//Event file generated from Sappy .s format.
	

	#define	ActraiserFillmore_grp  voicegroup000
	#define	ActraiserFillmore_pri  0
	#define	ActraiserFillmore_rev  0
	#define	ActraiserFillmore_mvl  127
	#define	ActraiserFillmore_key  0
	#define	ActraiserFillmore_tbs  1
	#define	ActraiserFillmore_exg  0
	#define	ActraiserFillmore_cmp  1

	// .rodata
	//	ActraiserFillmore
	ALIGN 4


//**************** Track 1 (Midi-Chn.0) ****************//

ActraiserFillmore_001:
//  #01 //000   ----------------------------------------
 BYTE   KEYSH   ActraiserFillmore_key+0
 BYTE   TEMPO   118*ActraiserFillmore_tbs/2
 BYTE   VOICE   34
 BYTE   VOL   45*ActraiserFillmore_mvl/mxv
 BYTE   PAN   c_v-32
 BYTE   N24  Cn2  v104
 BYTE   W24
 BYTE   As1
 BYTE   W24
 BYTE   Gs1
 BYTE   W24
 BYTE   Gn1
 BYTE   W24
//  #01 //001   ----------------------------------------
Label_0105283C:
 BYTE   N48  Fs1  v104
 BYTE   W48
 BYTE   Fs2
 BYTE   W48
 BYTE   PEND 
//  #01 //002   ----------------------------------------
Label_01052843:
 BYTE   N12  Gn1  v104
 BYTE   W12
 BYTE   N06  Gn2
 BYTE   W06
 BYTE   Gn1
 BYTE   W06
 BYTE   N06
 BYTE   W06
 BYTE   Gn2
 BYTE   W06
 BYTE   Gn1
 BYTE   W06
 BYTE   N06
 BYTE   W06
 BYTE   Gn2
 BYTE   W06
 BYTE   Gn1
 BYTE   W06
 BYTE   N06
 BYTE   W06
 BYTE   Gn2
 BYTE   W06
 BYTE   Gn1
 BYTE   W06
 BYTE   N06
 BYTE   W06
 BYTE   Gn2
 BYTE   W06
 BYTE   Gn1
 BYTE   W06
 BYTE   PEND 
//  #01 //003   ----------------------------------------
Label_01052865:
 BYTE   N54  Gn1  v104
 BYTE   W54
 BYTE   N06  Gn2
 BYTE   W06
 BYTE   N06
 BYTE   W06
 BYTE   Gn1
 BYTE   W06
 BYTE   Gn2
 BYTE   W06
 BYTE   Gn1
 BYTE   W06
 BYTE   Gn2
 BYTE   W06
 BYTE   N06
 BYTE   W06
 BYTE   PEND 
//  #01 //004   ----------------------------------------
Label_01052879:
 BYTE   N10  Cn2  v096
 BYTE   W12
 BYTE   N04
 BYTE   W06
 BYTE   N04
 BYTE   W06
 BYTE   N06  Cn3
 BYTE   W12
 BYTE   N04  Cn2
 BYTE   W06
 BYTE   N04
 BYTE   W12
 BYTE   N10
 BYTE   W12
 BYTE   N04
 BYTE   W06
 BYTE   Cn3
 BYTE   W06
 BYTE   Cn2
 BYTE   W06
 BYTE   N04
 BYTE   W12
 BYTE   PEND 
//  #01 //005   ----------------------------------------
 BYTE   N10  An1
 BYTE   W12
 BYTE   N04
 BYTE   W06
 BYTE   N04
 BYTE   W06
 BYTE   N06  An2
 BYTE   W12
 BYTE   N04  An1
 BYTE   W06
 BYTE   N04
 BYTE   W12
 BYTE   Gs1
 BYTE   W06
 BYTE   N04
 BYTE   W06
 BYTE   N04
 BYTE   W06
 BYTE   Gs2
 BYTE   W06
 BYTE   Gs1
 BYTE   W06
 BYTE   N04
 BYTE   W06
 BYTE   As1
 BYTE   W06
//  #01 //006   ----------------------------------------
 BYTE   PATT
  POIN2 Label_01052879
//  #01 //007   ----------------------------------------
 BYTE   N10  An1  v096
 BYTE   W12
 BYTE   N04
 BYTE   W06
 BYTE   N04
 BYTE   W06
 BYTE   N06  An2
 BYTE   W12
 BYTE   N04  An1
 BYTE   W06
 BYTE   N04
 BYTE   W12
 BYTE   Gs1
 BYTE   W06
 BYTE   N04
 BYTE   W06
 BYTE   N04
 BYTE   W06
 BYTE   Gs2
 BYTE   W06
 BYTE   Gs1
 BYTE   W06
 BYTE   N04
 BYTE   W06
 BYTE   Gn1
 BYTE   W06
//  #01 //008   ----------------------------------------
Label_010528D4:
 BYTE   N10  Gn1  v096
 BYTE   W12
 BYTE   N04
 BYTE   W06
 BYTE   N04
 BYTE   W06
 BYTE   Gn2
 BYTE   W06
 BYTE   Gn1
 BYTE   W06
 BYTE   N04
 BYTE   W24
 BYTE   N06  Bn1
 BYTE   W12
 BYTE   N04  Bn2
 BYTE   W06
 BYTE   Bn1
 BYTE   W06
 BYTE   N04
 BYTE   W12
 BYTE   PEND 
//  #01 //009   ----------------------------------------
Label_010528ED:
 BYTE   N10  Cn2  v096
 BYTE   W12
 BYTE   N04
 BYTE   W06
 BYTE   N04
 BYTE   W06
 BYTE   Cn3
 BYTE   W06
 BYTE   Cn2
 BYTE   W06
 BYTE   N04
 BYTE   W24
 BYTE   N06  An1
 BYTE   W12
 BYTE   N04  An2
 BYTE   W06
 BYTE   An1
 BYTE   W06
 BYTE   N04
 BYTE   W12
 BYTE   PEND 
//  #01 //010   ----------------------------------------
Label_01052906:
 BYTE   N10  Dn2  v096
 BYTE   W12
 BYTE   N04
 BYTE   W06
 BYTE   N04
 BYTE   W06
 BYTE   Dn3
 BYTE   W06
 BYTE   Dn2
 BYTE   W06
 BYTE   N04
 BYTE   W24
 BYTE   N06  As1
 BYTE   W12
 BYTE   N04  As2
 BYTE   W06
 BYTE   As1
 BYTE   W06
 BYTE   N04
 BYTE   W12
 BYTE   PEND 
//  #01 //011   ----------------------------------------
 BYTE   N10  Ds2
 BYTE   W12
 BYTE   N04
 BYTE   W06
 BYTE   N04
 BYTE   W06
 BYTE   Ds3
 BYTE   W06
 BYTE   Ds2
 BYTE   W06
 BYTE   N04
 BYTE   W12
 BYTE   N10  Dn2
 BYTE   W12
 BYTE   N04
 BYTE   W06
 BYTE   N04
 BYTE   W06
 BYTE   Dn3
 BYTE   W06
 BYTE   Dn2
 BYTE   W06
 BYTE   N04
 BYTE   W06
 BYTE   N04
 BYTE   W06
//  #01 //012   ----------------------------------------
 BYTE   PATT
  POIN2 Label_010528D4
//  #01 //013   ----------------------------------------
 BYTE   PATT
  POIN2 Label_010528ED
//  #01 //014   ----------------------------------------
 BYTE   PATT
  POIN2 Label_01052906
//  #01 //015   ----------------------------------------
 BYTE   N10  Ds2  v096
 BYTE   W12
 BYTE   N04
 BYTE   W06
 BYTE   N04
 BYTE   W06
 BYTE   Ds3
 BYTE   W06
 BYTE   Ds2
 BYTE   W06
 BYTE   N04
 BYTE   W12
 BYTE   N10  Gn2
 BYTE   W12
 BYTE   N04
 BYTE   W06
 BYTE   N04
 BYTE   W06
 BYTE   Gn3
 BYTE   W06
 BYTE   Gn2
 BYTE   W06
 BYTE   N04
 BYTE   W06
 BYTE   N04
 BYTE   W06
//  #01 //016   ----------------------------------------
 BYTE   N24  Gs2  v116
 BYTE   W24
 BYTE   N24
 BYTE   W24
 BYTE   N24
 BYTE   W24
 BYTE   N24
 BYTE   W24
//  #01 //017   ----------------------------------------
 BYTE   Fs2
 BYTE   W24
 BYTE   N24
 BYTE   W24
 BYTE   N24
 BYTE   W24
 BYTE   N24
 BYTE   W24
//  #01 //018   ----------------------------------------
 BYTE   Gn2
 BYTE   W24
 BYTE   N24
 BYTE   W24
 BYTE   N24
 BYTE   W24
 BYTE   N24
 BYTE   W24
//  #01 //019   ----------------------------------------
 BYTE   N24
 BYTE   W24
 BYTE   N24
 BYTE   W24
 BYTE   N12
 BYTE   W12
 BYTE   N06
 BYTE   W06
 BYTE   N06
 BYTE   W06
 BYTE   N06
 BYTE   W06
 BYTE   N06
 BYTE   W06
 BYTE   N06
 BYTE   W06
 BYTE   N06
 BYTE   W06
//  #01 //020   ----------------------------------------
 BYTE   N10  Cn2  v096
 BYTE   W12
 BYTE   N04  Cn3
 BYTE   W06
 BYTE   Cn2
 BYTE   W12
 BYTE   N10  Cn3
 BYTE   W12
 BYTE   N04
 BYTE   W06
 BYTE   N10  Cn2
 BYTE   W12
 BYTE   N04  Cn3
 BYTE   W06
 BYTE   Cn2
 BYTE   W12
 BYTE   N04
 BYTE   W06
 BYTE   N10  Cn3
 BYTE   W12
//  #01 //021   ----------------------------------------
Label_010529AE:
 BYTE   N06  Gs1  v096
 BYTE   W12
 BYTE   N12  Gs2
 BYTE   W18
 BYTE   N15  Gs1
 BYTE   W18
 BYTE   N09  Fn1
 BYTE   W12
 BYTE   Fn2
 BYTE   W12
 BYTE   Gn1
 BYTE   W12
 BYTE   Gn2
 BYTE   W12
 BYTE   PEND 
//  #01 //022   ----------------------------------------
 BYTE   N10  Cn2
 BYTE   W12
 BYTE   N04  Cn3
 BYTE   W06
 BYTE   Cn2
 BYTE   W12
 BYTE   N10  Cn3
 BYTE   W12
 BYTE   N04
 BYTE   W06
 BYTE   N10  Cn2
 BYTE   W12
 BYTE   N04  Cn3
 BYTE   W06
 BYTE   Cn2
 BYTE   W12
 BYTE   N10  Cn3
 BYTE   W12
 BYTE   N04
 BYTE   W06
//  #01 //023   ----------------------------------------
 BYTE   PATT
  POIN2 Label_010529AE
//  #01 //024   ----------------------------------------
 BYTE   N24  Cn2  v104
 BYTE   W24
 BYTE   As1
 BYTE   W24
 BYTE   Gs1
 BYTE   W24
 BYTE   Gn1
 BYTE   W24
//  #01 //025   ----------------------------------------
 BYTE   PATT
  POIN2 Label_0105283C
//  #01 //026   ----------------------------------------
 BYTE   PATT
  POIN2 Label_01052843
//  #01 //027   ----------------------------------------
 BYTE   PATT
  POIN2 Label_01052865
//  #01 //028   ----------------------------------------
 BYTE   GoTo
  POIN2 Label_01052879
//  #01 //029   ----------------------------------------
 BYTE   PATT
  POIN2 Label_01052879
 BYTE   FINE

//**************** Track 2 (Midi-Chn.1) ****************//

ActraiserFillmore_002:
//  #02 //000   ----------------------------------------
 BYTE   KEYSH   ActraiserFillmore_key+0
 BYTE   VOICE   41
 BYTE   PAN   c_v+0
 BYTE   VOL   62*ActraiserFillmore_mvl/mxv
 BYTE   W06
 BYTE   N06  Gn3  v072
 BYTE   W06
 BYTE   Cn4
 BYTE   W06
 BYTE   Ds4
 BYTE   W06
 BYTE   Dn4
 BYTE   W06
 BYTE   Dn4  v040
 BYTE   W06
 BYTE   Gn4  v072
 BYTE   W06
 BYTE   Gn4  v040
 BYTE   W06
 BYTE   Fn4  v072
 BYTE   W06
 BYTE   Fn4  v040
 BYTE   W06
 BYTE   Cn5  v072
 BYTE   W06
 BYTE   Cn5  v040
 BYTE   W06
 BYTE   Ds4  v072
 BYTE   W06
 BYTE   Ds4  v040
 BYTE   W06
 BYTE   Cn5  v072
 BYTE   W06
 BYTE   Cn5  v040
 BYTE   W06
//  #02 //001   ----------------------------------------
Label_01052A44:
 BYTE   N06  An3  v072
 BYTE   N06  An4
 BYTE   W06
 BYTE   An3  v040
 BYTE   N06  An4
 BYTE   W42
 BYTE   Cn4  v072
 BYTE   W06
 BYTE   An3
 BYTE   W06
 BYTE   Fs3
 BYTE   W06
 BYTE   An3
 BYTE   W06
 BYTE   Cn4
 BYTE   W06
 BYTE   Dn4
 BYTE   W06
 BYTE   Ds4
 BYTE   W06
 BYTE   Cn4
 BYTE   W06
 BYTE   PEND 
//  #02 //002   ----------------------------------------
Label_01052A61:
 BYTE   N06  Gn3  v072
 BYTE   W06
 BYTE   Gn3  v040
 BYTE   W06
 BYTE   Gs3  v072
 BYTE   W06
 BYTE   Gs3  v040
 BYTE   W06
 BYTE   Cn4  v072
 BYTE   W06
 BYTE   Cn4  v040
 BYTE   W06
 BYTE   Bn3  v072
 BYTE   W06
 BYTE   Bn3  v040
 BYTE   W06
 BYTE   Ds4  v072
 BYTE   W06
 BYTE   Ds4  v040
 BYTE   W06
 BYTE   Dn4  v072
 BYTE   W06
 BYTE   Dn4  v040
 BYTE   W06
 BYTE   Gs4  v072
 BYTE   W06
 BYTE   Gs4  v040
 BYTE   W06
 BYTE   Gn4  v072
 BYTE   W06
 BYTE   Gn4  v040
 BYTE   W06
 BYTE   PEND 
//  #02 //003   ----------------------------------------
Label_01052A93:
 BYTE   N06  Dn4  v072
 BYTE   W06
 BYTE   Ds4
 BYTE   W06
 BYTE   Fn4
 BYTE   W06
 BYTE   Bn3
 BYTE   W06
 BYTE   Cn4
 BYTE   W06
 BYTE   Dn4
 BYTE   W06
 BYTE   Gn3
 BYTE   W06
 BYTE   An3
 BYTE   W06
 BYTE   Bn3
 BYTE   W06
 BYTE   Cn4
 BYTE   W06
 BYTE   Dn4
 BYTE   W06
 BYTE   Ds4
 BYTE   W06
 BYTE   Fn4
 BYTE   W06
 BYTE   Bn3
 BYTE   W06
 BYTE   Cn4
 BYTE   W06
 BYTE   Dn4
 BYTE   W06
 BYTE   PEND 
//  #02 //004   ----------------------------------------
Label_01052AB6:
 BYTE   W96
//  #02 //005   ----------------------------------------
 BYTE   W96
//  #02 //006   ----------------------------------------
 BYTE   W96
//  #02 //007   ----------------------------------------
 BYTE   W96
//  #02 //008   ----------------------------------------
 BYTE   W96
//  #02 //009   ----------------------------------------
 BYTE   W96
//  #02 //010   ----------------------------------------
 BYTE   W96
//  #02 //011   ----------------------------------------
 BYTE   W96
//  #02 //012   ----------------------------------------
 BYTE   W96
//  #02 //013   ----------------------------------------
 BYTE   W96
//  #02 //014   ----------------------------------------
 BYTE   W96
//  #02 //015   ----------------------------------------
 BYTE   W96
//  #02 //016   ----------------------------------------
 BYTE   W96
//  #02 //017   ----------------------------------------
 BYTE   W96
//  #02 //018   ----------------------------------------
 BYTE   W96
//  #02 //019   ----------------------------------------
 BYTE   N24  Gn2  v072
 BYTE   W24
 BYTE   Bn2
 BYTE   W24
 BYTE   Dn3  v068
 BYTE   W24
 BYTE   Gn3
 BYTE   W24
//  #02 //020   ----------------------------------------
Label_01052AD0:
 BYTE   N06  Gn3  v052
 BYTE   W06
 BYTE   Cn4  v060
 BYTE   W06
 BYTE   Ds4  v072
 BYTE   W06
 BYTE   Gn4
 BYTE   W06
 BYTE   Fn4  v068
 BYTE   W06
 BYTE   Fn4  v040
 BYTE   W06
 BYTE   Cn5  v072
 BYTE   W06
 BYTE   Cn5  v040
 BYTE   W06
 BYTE   Ds4  v068
 BYTE   W06
 BYTE   Ds4  v040
 BYTE   W06
 BYTE   Cn5  v072
 BYTE   W06
 BYTE   Cn5  v040
 BYTE   W06
 BYTE   Fn4  v068
 BYTE   W06
 BYTE   Fn4  v040
 BYTE   W06
 BYTE   Bn4  v072
 BYTE   W06
 BYTE   Bn4  v040
 BYTE   W06
 BYTE   PEND 
//  #02 //021   ----------------------------------------
 BYTE   Gn3  v052
 BYTE   W06
 BYTE   Cn4  v060
 BYTE   W06
 BYTE   Ds4  v072
 BYTE   W06
 BYTE   Gn4
 BYTE   W06
 BYTE   Fn4  v068
 BYTE   W06
 BYTE   Fn4  v040
 BYTE   W06
 BYTE   Cn5  v072
 BYTE   W06
 BYTE   Cn5  v040
 BYTE   W06
 BYTE   Ds4  v068
 BYTE   W06
 BYTE   Ds4  v040
 BYTE   W06
 BYTE   Cn5  v072
 BYTE   W06
 BYTE   Cn5  v040
 BYTE   W06
 BYTE   Dn4  v068
 BYTE   W06
 BYTE   Dn4  v040
 BYTE   W06
 BYTE   Bn4  v072
 BYTE   W06
 BYTE   Bn4  v040
 BYTE   W06
//  #02 //022   ----------------------------------------
 BYTE   PATT
  POIN2 Label_01052AD0
//  #02 //023   ----------------------------------------
 BYTE   N06  Gn3  v052
 BYTE   W06
 BYTE   Cn4  v060
 BYTE   W06
 BYTE   Ds4  v072
 BYTE   W06
 BYTE   Gn4
 BYTE   W06
 BYTE   Fn4  v068
 BYTE   W06
 BYTE   Fn4  v040
 BYTE   W06
 BYTE   Cn5  v072
 BYTE   W06
 BYTE   Cn5  v040
 BYTE   W06
 BYTE   Ds4  v068
 BYTE   W06
 BYTE   Ds4  v040
 BYTE   W06
 BYTE   Cn5  v072
 BYTE   W06
 BYTE   Cn5  v040
 BYTE   W06
 BYTE   Dn4  v068
 BYTE   W06
 BYTE   Fn4  v072
 BYTE   W06
 BYTE   Gn4
 BYTE   W06
 BYTE   Bn4
 BYTE   W06
//  #02 //024   ----------------------------------------
 BYTE   W06
 BYTE   Gn3
 BYTE   W06
 BYTE   Cn4
 BYTE   W06
 BYTE   Ds4
 BYTE   W06
 BYTE   Dn4
 BYTE   W06
 BYTE   Dn4  v040
 BYTE   W06
 BYTE   Gn4  v072
 BYTE   W06
 BYTE   Gn4  v040
 BYTE   W06
 BYTE   Fn4  v072
 BYTE   W06
 BYTE   Fn4  v040
 BYTE   W06
 BYTE   Cn5  v072
 BYTE   W06
 BYTE   Cn5  v040
 BYTE   W06
 BYTE   Ds4  v072
 BYTE   W06
 BYTE   Ds4  v040
 BYTE   W06
 BYTE   Cn5  v072
 BYTE   W06
 BYTE   Cn5  v040
 BYTE   W06
//  #02 //025   ----------------------------------------
 BYTE   PATT
  POIN2 Label_01052A44
//  #02 //026   ----------------------------------------
 BYTE   PATT
  POIN2 Label_01052A61
//  #02 //027   ----------------------------------------
 BYTE   PATT
  POIN2 Label_01052A93
//  #02 //028   ----------------------------------------
 BYTE   GoTo
  POIN2 Label_01052AB6
//  #02 //029   ----------------------------------------
 BYTE   W96
 BYTE   FINE

//**************** Track 3 (Midi-Chn.2) ****************//

ActraiserFillmore_003:
//  #03 //000   ----------------------------------------
 BYTE   KEYSH   ActraiserFillmore_key+0
 BYTE   VOICE   20
 BYTE   VOL   38*ActraiserFillmore_mvl/mxv
 BYTE   PAN   c_v+32
 BYTE   N06  Cn4  v080
 BYTE   W06
 BYTE   Gn4
 BYTE   W06
 BYTE   Cn5
 BYTE   W06
 BYTE   Gn4
 BYTE   W06
 BYTE   Cn4
 BYTE   W06
 BYTE   Gn4
 BYTE   W06
 BYTE   Cn5
 BYTE   W06
 BYTE   Gn4
 BYTE   W06
 BYTE   Cn4
 BYTE   W06
 BYTE   Gn4
 BYTE   W06
 BYTE   Cn5
 BYTE   W06
 BYTE   Gn4
 BYTE   W06
 BYTE   Cn4
 BYTE   W06
 BYTE   Gn4
 BYTE   W06
 BYTE   Cn5
 BYTE   W06
 BYTE   Gn4
 BYTE   W06
//  #03 //001   ----------------------------------------
Label_0105763A:
 BYTE   N06  An4  v080
 BYTE   W06
 BYTE   Cn5
 BYTE   W06
 BYTE   Ds5  v076
 BYTE   W06
 BYTE   Cn5  v080
 BYTE   W06
 BYTE   An5  v068
 BYTE   W06
 BYTE   Fs5  v072
 BYTE   W06
 BYTE   Cn6  v060
 BYTE   W06
 BYTE   An5  v064
 BYTE   W06
 BYTE   Ds6  v052
 BYTE   W06
 BYTE   Cn6  v060
 BYTE   W06
 BYTE   An5  v064
 BYTE   W06
 BYTE   Fs5  v072
 BYTE   W06
 BYTE   Ds5  v076
 BYTE   W06
 BYTE   Fs5  v072
 BYTE   W06
 BYTE   Ds5  v076
 BYTE   W06
 BYTE   Cn5  v080
 BYTE   W06
 BYTE   PEND 
//  #03 //002   ----------------------------------------
Label_0105766B:
 BYTE   N24  Dn4  v080
 BYTE   W24
 BYTE   Ds4
 BYTE   W24
 BYTE   Fn4
 BYTE   W24
 BYTE   Fs4
 BYTE   W24
 BYTE   PEND 
//  #03 //003   ----------------------------------------
Label_01057676:
 BYTE   N06  Gn6  v048
 BYTE   W06
 BYTE   Fn6  v052
 BYTE   W06
 BYTE   Dn6
 BYTE   W06
 BYTE   Bn5  v060
 BYTE   W06
 BYTE   Gn5  v064
 BYTE   W06
 BYTE   Fn5
 BYTE   W06
 BYTE   Dn5  v068
 BYTE   W06
 BYTE   Bn4  v072
 BYTE   W06
 BYTE   Gn4  v076
 BYTE   W06
 BYTE   An4  v080
 BYTE   W06
 BYTE   Bn4
 BYTE   W06
 BYTE   Cn5
 BYTE   W06
 BYTE   Dn5
 BYTE   W06
 BYTE   Ds5
 BYTE   W06
 BYTE   Fn5
 BYTE   W06
 BYTE   Dn5
 BYTE   W06
 BYTE   PEND 
//  #03 //004   ----------------------------------------
Label_010576A0:
 BYTE   W36
 BYTE   N24  Gn4  v080
 BYTE   W24
 BYTE   N06
 BYTE   W06
 BYTE   Fn4
 BYTE   W06
 BYTE   Ds4
 BYTE   W06
 BYTE   Ds4  v040
 BYTE   W12
 BYTE   Gn3  v080
 BYTE   W06
//  #03 //005   ----------------------------------------
 BYTE   An3
 BYTE   W06
 BYTE   Cn4
 BYTE   W06
 BYTE   Fn4
 BYTE   W06
 BYTE   Cn4
 BYTE   W06
 BYTE   An3
 BYTE   W06
 BYTE   An3  v040
 BYTE   W12
 BYTE   An3  v080
 BYTE   W06
 BYTE   Gs3
 BYTE   W06
 BYTE   Ds3
 BYTE   W06
 BYTE   Cn3
 BYTE   W06
 BYTE   Gs3
 BYTE   W06
 BYTE   Bn3
 BYTE   W06
 BYTE   Dn4
 BYTE   W06
 BYTE   Fn4
 BYTE   W06
 BYTE   Bn3
 BYTE   W06
//  #03 //006   ----------------------------------------
 BYTE   W36
 BYTE   N24  Gn4
 BYTE   W24
 BYTE   N06
 BYTE   W06
 BYTE   Fn4
 BYTE   W06
 BYTE   Ds4
 BYTE   W06
 BYTE   Ds4  v040
 BYTE   W12
 BYTE   Cn4  v080
 BYTE   W06
//  #03 //007   ----------------------------------------
 BYTE   An3
 BYTE   W06
 BYTE   Cn4
 BYTE   W06
 BYTE   Fn4
 BYTE   W06
 BYTE   Cn4
 BYTE   W06
 BYTE   An3
 BYTE   W06
 BYTE   An3  v040
 BYTE   W12
 BYTE   Gn3  v080
 BYTE   W06
 BYTE   Gs3
 BYTE   W06
 BYTE   Ds3
 BYTE   W06
 BYTE   Gs3
 BYTE   W06
 BYTE   Gs4
 BYTE   W06
 BYTE   Gn4
 BYTE   W06
 BYTE   Fn4
 BYTE   W06
 BYTE   Ds4
 BYTE   W06
 BYTE   Dn4
 BYTE   W06
//  #03 //008   ----------------------------------------
Label_01057701:
 BYTE   N06  Fn3  v080
 BYTE   W06
 BYTE   Bn3
 BYTE   W06
 BYTE   Dn4
 BYTE   W06
 BYTE   Bn3
 BYTE   W06
 BYTE   Fn3
 BYTE   W06
 BYTE   Fn3  v040
 BYTE   W18
 BYTE   Gs3  v080
 BYTE   W06
 BYTE   N12  Bn3
 BYTE   W12
 BYTE   N06  Gs3
 BYTE   W06
 BYTE   Gn3
 BYTE   W06
 BYTE   Dn4
 BYTE   W06
 BYTE   Cn4
 BYTE   W06
 BYTE   Bn3
 BYTE   W06
 BYTE   PEND 
//  #03 //009   ----------------------------------------
Label_01057722:
 BYTE   N06  Gn3  v080
 BYTE   W06
 BYTE   Cn4
 BYTE   W06
 BYTE   Ds4
 BYTE   W06
 BYTE   Cn4
 BYTE   W06
 BYTE   Gn3
 BYTE   W06
 BYTE   Gn3  v040
 BYTE   W18
 BYTE   Gs3  v080
 BYTE   W06
 BYTE   Cn4
 BYTE   W06
 BYTE   Ds4
 BYTE   W06
 BYTE   Cn4
 BYTE   W06
 BYTE   An3
 BYTE   W06
 BYTE   Cn4
 BYTE   W06
 BYTE   Ds4
 BYTE   W06
 BYTE   Cn4
 BYTE   W06
 BYTE   PEND 
//  #03 //010   ----------------------------------------
 BYTE   Dn3
 BYTE   W06
 BYTE   Fn3
 BYTE   W06
 BYTE   As3
 BYTE   W06
 BYTE   Dn4
 BYTE   W06
 BYTE   Dn4  v040
 BYTE   W12
 BYTE   Dn4  v080
 BYTE   W06
 BYTE   Dn4  v040
 BYTE   W18
 BYTE   As3  v080
 BYTE   W06
 BYTE   As3  v040
 BYTE   W18
 BYTE   Dn4  v080
 BYTE   W06
 BYTE   Dn4  v040
 BYTE   W06
//  #03 //011   ----------------------------------------
 BYTE   Ds4  v080
 BYTE   W06
 BYTE   Dn4
 BYTE   W06
 BYTE   Ds4  v084
 BYTE   W06
 BYTE   Fn4
 BYTE   W06
 BYTE   Gn4
 BYTE   W06
 BYTE   Fn4
 BYTE   W06
 BYTE   Gn4  v088
 BYTE   W06
 BYTE   Gs4
 BYTE   W06
 BYTE   As4
 BYTE   W06
 BYTE   Cn5
 BYTE   W06
 BYTE   Dn5  v092
 BYTE   W06
 BYTE   Cn5  v088
 BYTE   W06
 BYTE   As4
 BYTE   W06
 BYTE   Gs4
 BYTE   W06
 BYTE   Gn4
 BYTE   W06
 BYTE   Fn4  v084
 BYTE   W06
//  #03 //012   ----------------------------------------
 BYTE   PATT
  POIN2 Label_01057701
//  #03 //013   ----------------------------------------
 BYTE   PATT
  POIN2 Label_01057722
//  #03 //014   ----------------------------------------
 BYTE   N06  Dn3  v080
 BYTE   W06
 BYTE   Fn3
 BYTE   W06
 BYTE   As3
 BYTE   W06
 BYTE   Dn4
 BYTE   W18
 BYTE   N06
 BYTE   W06
 BYTE   Dn4  v040
 BYTE   W18
 BYTE   As3  v080
 BYTE   W06
 BYTE   As3  v040
 BYTE   W18
 BYTE   Dn4  v080
 BYTE   W06
 BYTE   Dn4  v040
 BYTE   W06
//  #03 //015   ----------------------------------------
 BYTE   Ds4  v080
 BYTE   W06
 BYTE   Dn4
 BYTE   W06
 BYTE   Ds4
 BYTE   W06
 BYTE   Fn4
 BYTE   W06
 BYTE   Gn4
 BYTE   W06
 BYTE   Fn4
 BYTE   W06
 BYTE   Gn4
 BYTE   W06
 BYTE   Gs4
 BYTE   W06
 BYTE   Gn4
 BYTE   W06
 BYTE   Gn3  v084
 BYTE   W06
 BYTE   Bn3
 BYTE   W06
 BYTE   Dn4
 BYTE   W06
 BYTE   Gn4
 BYTE   W06
 BYTE   Bn4  v088
 BYTE   W06
 BYTE   Dn5
 BYTE   W06
 BYTE   Gn5  v092
 BYTE   W06
//  #03 //016   ----------------------------------------
 BYTE   N56  Cn5  v080
 BYTE   W60
 BYTE   N06  Gs4
 BYTE   W06
 BYTE   Ds4
 BYTE   W06
 BYTE   Gs4
 BYTE   W06
 BYTE   Cn5
 BYTE   W06
 BYTE   N12  Ds5
 BYTE   W12
//  #03 //017   ----------------------------------------
 BYTE   N18  Ds4
 BYTE   W18
 BYTE   Cn4
 BYTE   W18
 BYTE   N12  An3
 BYTE   W12
 BYTE   N24  Fs3
 BYTE   W24
 BYTE   N24
 BYTE   W24
//  #03 //018   ----------------------------------------
 BYTE   N48  Gn3
 BYTE   W48
 BYTE   Fn3
 BYTE   W48
//  #03 //019   ----------------------------------------
 BYTE   N24  Dn3
 BYTE   W24
 BYTE   Bn3
 BYTE   W24
 BYTE   Dn4
 BYTE   W24
 BYTE   Gn4
 BYTE   W24
//  #03 //020   ----------------------------------------
Label_010577FA:
 BYTE   N24  Ds4  v080
 BYTE   W24
 BYTE   Dn4
 BYTE   W24
 BYTE   Fn4
 BYTE   W24
 BYTE   Dn4
 BYTE   W24
 BYTE   PEND 
//  #03 //021   ----------------------------------------
 BYTE   PATT
  POIN2 Label_010577FA
//  #03 //022   ----------------------------------------
 BYTE   PATT
  POIN2 Label_010577FA
//  #03 //023   ----------------------------------------
 BYTE   PATT
  POIN2 Label_010577FA
//  #03 //024   ----------------------------------------
 BYTE   N06  Cn4  v080
 BYTE   W06
 BYTE   Gn4
 BYTE   W06
 BYTE   Cn5
 BYTE   W06
 BYTE   Gn4
 BYTE   W06
 BYTE   Cn4
 BYTE   W06
 BYTE   Gn4
 BYTE   W06
 BYTE   Cn5
 BYTE   W06
 BYTE   Gn4
 BYTE   W06
 BYTE   Cn4
 BYTE   W06
 BYTE   Gn4
 BYTE   W06
 BYTE   Cn5
 BYTE   W06
 BYTE   Gn4
 BYTE   W06
 BYTE   Cn4
 BYTE   W06
 BYTE   Gn4
 BYTE   W06
 BYTE   Cn5
 BYTE   W06
 BYTE   Gn4
 BYTE   W06
//  #03 //025   ----------------------------------------
 BYTE   PATT
  POIN2 Label_0105763A
//  #03 //026   ----------------------------------------
 BYTE   PATT
  POIN2 Label_0105766B
//  #03 //027   ----------------------------------------
 BYTE   PATT
  POIN2 Label_01057676
//  #03 //028   ----------------------------------------
 BYTE   GoTo
  POIN2 Label_010576A0
//  #03 //029   ----------------------------------------
 BYTE   N06  Ds5  v080
 BYTE   W36
 BYTE   N24  Gn4
 BYTE   W24
 BYTE   N06
 BYTE   W06
 BYTE   Fn4
 BYTE   W06
 BYTE   Ds4
 BYTE   W18
 BYTE   Gn3
 BYTE   W06
 BYTE   FINE

//**************** Track 4 (Midi-Chn.3) ****************//

ActraiserFillmore_004:
//  #04 //000   ----------------------------------------
 BYTE   KEYSH   ActraiserFillmore_key+0
 BYTE   VOICE   79
 BYTE   VOL   44*ActraiserFillmore_mvl/mxv
 BYTE   PAN   c_v-8
 BYTE   N22  Gn2  v080
 BYTE   W24
 BYTE   Cn3
 BYTE   W24
 BYTE   Gs3
 BYTE   W24
 BYTE   Gn3
 BYTE   W24
//  #04 //001   ----------------------------------------
Label_01052492:
 BYTE   N22  An2  v080
 BYTE   W24
 BYTE   N44  Dn3
 BYTE   W48
 BYTE   N22  Cn3
 BYTE   W24
 BYTE   PEND 
//  #04 //002   ----------------------------------------
 BYTE   W96
//  #04 //003   ----------------------------------------
 BYTE   W96
//  #04 //004   ----------------------------------------
Label_0105249F:
 BYTE   N52  Gn3  v080
 BYTE   W60
 BYTE   N04  Cn3
 BYTE   W12
 BYTE   Ds3
 BYTE   W12
 BYTE   Gn3
 BYTE   W12
 BYTE   PEND 
//  #04 //005   ----------------------------------------
 BYTE   An3
 BYTE   W06
 BYTE   Fn3
 BYTE   W06
 BYTE   An3
 BYTE   W06
 BYTE   Cn4
 BYTE   W06
 BYTE   N22  Fn4
 BYTE   W24
 BYTE   N04  Gs2
 BYTE   W06
 BYTE   Cn3
 BYTE   W06
 BYTE   Fn3
 BYTE   W06
 BYTE   Gs2
 BYTE   W06
 BYTE   Gn2
 BYTE   W06
 BYTE   Bn2
 BYTE   W06
 BYTE   Dn3
 BYTE   W06
 BYTE   Fn3
 BYTE   W06
//  #04 //006   ----------------------------------------
 BYTE   N52  Gn3
 BYTE   W96
//  #04 //007   ----------------------------------------
 BYTE   N32  An3
 BYTE   W48
 BYTE   N04  Gs3
 BYTE   W06
 BYTE   Ds3
 BYTE   W06
 BYTE   Cn3
 BYTE   W36
//  #04 //008   ----------------------------------------
 BYTE   N32  Gn3
 BYTE   W36
 BYTE   N04
 BYTE   W06
 BYTE   An3
 BYTE   W06
 BYTE   N10  Bn3
 BYTE   W12
 BYTE   N04  Gn3
 BYTE   W06
 BYTE   An3
 BYTE   W06
 BYTE   Bn3
 BYTE   W06
 BYTE   Dn4
 BYTE   W06
 BYTE   Cn4
 BYTE   W06
 BYTE   Bn3
 BYTE   W06
//  #04 //009   ----------------------------------------
 BYTE   N44  Cn4
 BYTE   W48
 BYTE   N22  Gs3
 BYTE   W24
 BYTE   An3
 BYTE   W24
//  #04 //010   ----------------------------------------
Label_010524F3:
 BYTE   N32  As3  v080
 BYTE   W36
 BYTE   N04
 BYTE   W06
 BYTE   Cn4
 BYTE   W06
 BYTE   Dn4
 BYTE   W12
 BYTE   As3
 BYTE   W06
 BYTE   Cn4
 BYTE   W06
 BYTE   Dn4
 BYTE   W12
 BYTE   As3
 BYTE   W12
 BYTE   PEND 
//  #04 //011   ----------------------------------------
 BYTE   N16  Ds4
 BYTE   W18
 BYTE   As3
 BYTE   W18
 BYTE   N10  Ds4
 BYTE   W12
 BYTE   N16  Gn4
 BYTE   W18
 BYTE   Fn4
 BYTE   W18
 BYTE   N10  Ds4
 BYTE   W12
//  #04 //012   ----------------------------------------
 BYTE   N44  Fn3
 BYTE   W48
 BYTE   Gs3
 BYTE   W48
//  #04 //013   ----------------------------------------
 BYTE   Gn3
 BYTE   W48
 BYTE   N22  Gs3
 BYTE   W24
 BYTE   An3
 BYTE   W24
//  #04 //014   ----------------------------------------
 BYTE   PATT
  POIN2 Label_010524F3
//  #04 //015   ----------------------------------------
 BYTE   N16  Ds4  v080
 BYTE   W18
 BYTE   As3
 BYTE   W18
 BYTE   N10  Ds4
 BYTE   W12
 BYTE   N16  Dn4
 BYTE   W18
 BYTE   Cn4
 BYTE   W18
 BYTE   N10  Bn3
 BYTE   W12
//  #04 //016   ----------------------------------------
 BYTE   N92  Cn4
 BYTE   W96
//  #04 //017   ----------------------------------------
 BYTE   N16  Ds4
 BYTE   W18
 BYTE   Cn4
 BYTE   W18
 BYTE   N10  An3
 BYTE   W12
 BYTE   N22  Ds3
 BYTE   W24
 BYTE   N22
 BYTE   W24
//  #04 //018   ----------------------------------------
 BYTE   N44  Dn3
 BYTE   W48
 BYTE   N44
 BYTE   W48
//  #04 //019   ----------------------------------------
 BYTE   N22
 BYTE   W24
 BYTE   Gn3
 BYTE   W24
 BYTE   Bn3
 BYTE   W24
 BYTE   Dn4
 BYTE   W24
//  #04 //020   ----------------------------------------
Label_01052555:
 BYTE   N22  Gn3  v080
 BYTE   W24
 BYTE   Cn4
 BYTE   W24
 BYTE   N22
 BYTE   W24
 BYTE   Bn3
 BYTE   W24
 BYTE   PEND 
//  #04 //021   ----------------------------------------
Label_01052560:
 BYTE   N22  Gs3  v080
 BYTE   W24
 BYTE   Cn4
 BYTE   W24
 BYTE   N22
 BYTE   W24
 BYTE   Bn3
 BYTE   W24
 BYTE   PEND 
//  #04 //022   ----------------------------------------
 BYTE   PATT
  POIN2 Label_01052555
//  #04 //023   ----------------------------------------
 BYTE   PATT
  POIN2 Label_01052560
//  #04 //024   ----------------------------------------
 BYTE   N22  Gn2  v080
 BYTE   W24
 BYTE   Cn3
 BYTE   W24
 BYTE   Gs3
 BYTE   W24
 BYTE   Gn3
 BYTE   W24
//  #04 //025   ----------------------------------------
 BYTE   PATT
  POIN2 Label_01052492
//  #04 //026   ----------------------------------------
 BYTE   W96
//  #04 //027   ----------------------------------------
 BYTE   W96
//  #04 //028   ----------------------------------------
 BYTE   GoTo
  POIN2 Label_0105249F
//  #04 //029   ----------------------------------------
 BYTE   PATT
  POIN2 Label_0105249F
 BYTE   FINE

//**************** Track 5 (Midi-Chn.4) ****************//

ActraiserFillmore_005:
//  #05 //000   ----------------------------------------
 BYTE   KEYSH   ActraiserFillmore_key+0
 BYTE   VOICE   110
 BYTE   PAN   c_v+16
 BYTE   VOL   62*ActraiserFillmore_mvl/mxv
 BYTE   W06
 BYTE   N06  Gn3  v100
 BYTE   W06
 BYTE   Cn4
 BYTE   W06
 BYTE   Ds4
 BYTE   W06
 BYTE   Dn4
 BYTE   W06
 BYTE   Dn4  v048
 BYTE   W06
 BYTE   Gn4  v100
 BYTE   W06
 BYTE   Gn4  v048
 BYTE   W06
 BYTE   Fn4  v100
 BYTE   W06
 BYTE   Fn4  v048
 BYTE   W06
 BYTE   Cn5  v100
 BYTE   W06
 BYTE   Cn5  v048
 BYTE   W06
 BYTE   Ds4  v100
 BYTE   W06
 BYTE   Ds4  v048
 BYTE   W06
 BYTE   Cn5  v100
 BYTE   W06
 BYTE   Cn5  v048
 BYTE   W06
//  #05 //001   ----------------------------------------
Label_01057890:
 BYTE   N06  An3  v100
 BYTE   W06
 BYTE   Fs3
 BYTE   W06
 BYTE   Ds3
 BYTE   W06
 BYTE   Fs3
 BYTE   W06
 BYTE   An3
 BYTE   W06
 BYTE   Cn4
 BYTE   W06
 BYTE   Ds4
 BYTE   W06
 BYTE   Cn4
 BYTE   W06
 BYTE   Cn5
 BYTE   W06
 BYTE   An4
 BYTE   W06
 BYTE   Fs4
 BYTE   W06
 BYTE   An4
 BYTE   W06
 BYTE   Cn5
 BYTE   W06
 BYTE   Dn5
 BYTE   W06
 BYTE   Ds5
 BYTE   W06
 BYTE   Cn5
 BYTE   W06
 BYTE   PEND 
//  #05 //002   ----------------------------------------
Label_010578B3:
 BYTE   N06  Gn4  v100
 BYTE   W06
 BYTE   Gn4  v048
 BYTE   W06
 BYTE   Gs4  v100
 BYTE   W06
 BYTE   Gs4  v048
 BYTE   W06
 BYTE   Cn5  v100
 BYTE   W06
 BYTE   Cn5  v048
 BYTE   W06
 BYTE   Bn4  v100
 BYTE   W06
 BYTE   Bn4  v048
 BYTE   W06
 BYTE   Ds5  v100
 BYTE   W06
 BYTE   Ds5  v048
 BYTE   W06
 BYTE   Dn5  v100
 BYTE   W06
 BYTE   Dn5  v048
 BYTE   W06
 BYTE   Gs5  v100
 BYTE   W06
 BYTE   Gs5  v048
 BYTE   W06
 BYTE   Gn5  v100
 BYTE   W06
 BYTE   Gn5  v048
 BYTE   W06
 BYTE   PEND 
//  #05 //003   ----------------------------------------
Label_010578E5:
 BYTE   N06  Dn4  v100
 BYTE   W06
 BYTE   Ds4
 BYTE   W06
 BYTE   Fn4
 BYTE   W06
 BYTE   Bn3
 BYTE   W06
 BYTE   Cn4
 BYTE   W06
 BYTE   Dn4
 BYTE   W06
 BYTE   Gn3
 BYTE   W06
 BYTE   An3
 BYTE   W06
 BYTE   Bn3
 BYTE   W06
 BYTE   Cn4
 BYTE   W06
 BYTE   Dn4
 BYTE   W06
 BYTE   Ds4
 BYTE   W06
 BYTE   Fn4
 BYTE   W06
 BYTE   Bn3
 BYTE   W06
 BYTE   Cn4
 BYTE   W06
 BYTE   Dn4
 BYTE   W06
 BYTE   PEND 
//  #05 //004   ----------------------------------------
Label_01057908:
 BYTE   N36  Ds4  v120
 BYTE   W36
 BYTE   N06  Cn4
 BYTE   W06
 BYTE   Dn4
 BYTE   W06
 BYTE   N12  Ds4
 BYTE   W12
 BYTE   N06  Cn4
 BYTE   W06
 BYTE   Dn4
 BYTE   W06
 BYTE   Ds4
 BYTE   W06
 BYTE   Ds4  v048
 BYTE   W06
 BYTE   Gn4  v120
 BYTE   W06
 BYTE   Gn4  v048
 BYTE   W06
 BYTE   PEND 
//  #05 //005   ----------------------------------------
 BYTE   N36  Fn4  v120
 BYTE   W36
 BYTE   N54  Cn4
 BYTE   W54
 BYTE   N06  Dn4
 BYTE   W06
//  #05 //006   ----------------------------------------
 BYTE   PATT
  POIN2 Label_01057908
//  #05 //007   ----------------------------------------
 BYTE   N36  Fn4  v120
 BYTE   W36
 BYTE   N60  Cn4
 BYTE   W60
//  #05 //008   ----------------------------------------
Label_0105793B:
 BYTE   N36  Dn4  v120
 BYTE   W36
 BYTE   N06  Bn3
 BYTE   W06
 BYTE   Cn4
 BYTE   W06
 BYTE   N12  Dn4
 BYTE   W12
 BYTE   N06  Bn3
 BYTE   W06
 BYTE   Cn4
 BYTE   W06
 BYTE   Dn4
 BYTE   W06
 BYTE   Fn4
 BYTE   W06
 BYTE   Ds4
 BYTE   W06
 BYTE   Dn4
 BYTE   W06
 BYTE   PEND 
//  #05 //009   ----------------------------------------
Label_01057955:
 BYTE   N36  Ds4  v120
 BYTE   W36
 BYTE   N06  Cn4
 BYTE   W06
 BYTE   Dn4
 BYTE   W06
 BYTE   N12  Ds4
 BYTE   W12
 BYTE   N06  Cn4
 BYTE   W06
 BYTE   Dn4
 BYTE   W06
 BYTE   Ds4
 BYTE   W06
 BYTE   Gn4
 BYTE   W06
 BYTE   Fn4
 BYTE   W06
 BYTE   Ds4
 BYTE   W06
 BYTE   PEND 
//  #05 //010   ----------------------------------------
Label_0105796F:
 BYTE   N30  Fn4  v120
 BYTE   W30
 BYTE   N06  Fn4  v048
 BYTE   W06
 BYTE   Dn4  v120
 BYTE   W06
 BYTE   Ds4
 BYTE   W06
 BYTE   Fn4
 BYTE   W06
 BYTE   Fn4  v048
 BYTE   W06
 BYTE   Dn4  v120
 BYTE   W06
 BYTE   Ds4
 BYTE   W06
 BYTE   Fn4
 BYTE   W06
 BYTE   Gs4
 BYTE   W06
 BYTE   Gn4
 BYTE   W06
 BYTE   Fn4
 BYTE   W06
 BYTE   PEND 
//  #05 //011   ----------------------------------------
 BYTE   N18  Gn4
 BYTE   W18
 BYTE   Fn4
 BYTE   W18
 BYTE   N12  Ds4
 BYTE   W12
 BYTE   N18  As4
 BYTE   W18
 BYTE   Gs4
 BYTE   W18
 BYTE   N12  Gn4
 BYTE   W12
//  #05 //012   ----------------------------------------
 BYTE   PATT
  POIN2 Label_0105793B
//  #05 //013   ----------------------------------------
 BYTE   PATT
  POIN2 Label_01057955
//  #05 //014   ----------------------------------------
 BYTE   PATT
  POIN2 Label_0105796F
//  #05 //015   ----------------------------------------
 BYTE   N18  Gn4  v120
 BYTE   W18
 BYTE   Fn4
 BYTE   W18
 BYTE   N12  Gn4
 BYTE   W12
 BYTE   N18  Bn4
 BYTE   W18
 BYTE   Cn5
 BYTE   W18
 BYTE   N12  Dn5
 BYTE   W12
//  #05 //016   ----------------------------------------
 BYTE   N18  Ds5
 BYTE   W18
 BYTE   Dn5
 BYTE   W18
 BYTE   Cn5
 BYTE   W18
 BYTE   Dn5
 BYTE   W18
 BYTE   N12  Ds5
 BYTE   W12
 BYTE   Cn5
 BYTE   W12
//  #05 //017   ----------------------------------------
 BYTE   N18  An4
 BYTE   W18
 BYTE   Fs4
 BYTE   W18
 BYTE   N12  Ds4
 BYTE   W12
 BYTE   N18  Cn4
 BYTE   W18
 BYTE   Bn3
 BYTE   W18
 BYTE   N12  An3
 BYTE   W12
//  #05 //018   ----------------------------------------
 BYTE   N90  Cn4
 BYTE   W90
 BYTE   N06  Gn4
 BYTE   W06
//  #05 //019   ----------------------------------------
 BYTE   N84
 BYTE   W96
//  #05 //020   ----------------------------------------
Label_010579E5:
 BYTE   N06  Gn3  v080
 BYTE   W06
 BYTE   Cn4  v092
 BYTE   W06
 BYTE   Ds4  v100
 BYTE   W06
 BYTE   Gn4
 BYTE   W06
 BYTE   Fn4  v096
 BYTE   W06
 BYTE   Fn4  v048
 BYTE   W06
 BYTE   Cn5  v100
 BYTE   W06
 BYTE   Cn5  v048
 BYTE   W06
 BYTE   Ds4  v096
 BYTE   W06
 BYTE   Ds4  v048
 BYTE   W06
 BYTE   Cn5  v100
 BYTE   W06
 BYTE   Cn5  v048
 BYTE   W06
 BYTE   Fn4  v096
 BYTE   W06
 BYTE   Fn4  v048
 BYTE   W06
 BYTE   Bn4  v100
 BYTE   W06
 BYTE   Bn4  v048
 BYTE   W06
 BYTE   PEND 
//  #05 //021   ----------------------------------------
 BYTE   Cn3  v080
 BYTE   W06
 BYTE   Cn4  v092
 BYTE   W06
 BYTE   Ds4  v100
 BYTE   W06
 BYTE   Gn4
 BYTE   W06
 BYTE   Fn4  v096
 BYTE   W06
 BYTE   Fn4  v048
 BYTE   W06
 BYTE   Cn5  v100
 BYTE   W06
 BYTE   Cn5  v048
 BYTE   W06
 BYTE   Ds4  v096
 BYTE   W06
 BYTE   Ds4  v048
 BYTE   W06
 BYTE   Cn5  v100
 BYTE   W06
 BYTE   Cn5  v048
 BYTE   W06
 BYTE   Dn4  v096
 BYTE   W06
 BYTE   Dn4  v048
 BYTE   W06
 BYTE   Bn4  v100
 BYTE   W06
 BYTE   Bn4  v048
 BYTE   W06
//  #05 //022   ----------------------------------------
 BYTE   PATT
  POIN2 Label_010579E5
//  #05 //023   ----------------------------------------
 BYTE   N06  Cn3  v080
 BYTE   W06
 BYTE   Cn4  v092
 BYTE   W06
 BYTE   Ds4  v100
 BYTE   W06
 BYTE   Gn4
 BYTE   W06
 BYTE   Fn4  v096
 BYTE   W06
 BYTE   Fn4  v048
 BYTE   W06
 BYTE   Cn5  v100
 BYTE   W06
 BYTE   Cn5  v048
 BYTE   W06
 BYTE   Ds4  v096
 BYTE   W06
 BYTE   Ds4  v048
 BYTE   W06
 BYTE   Cn5  v100
 BYTE   W06
 BYTE   Cn5  v048
 BYTE   W06
 BYTE   Dn4  v096
 BYTE   W06
 BYTE   Fn4  v100
 BYTE   W06
 BYTE   Gn4
 BYTE   W06
 BYTE   Bn4
 BYTE   W06
//  #05 //024   ----------------------------------------
 BYTE   W06
 BYTE   Gn3
 BYTE   W06
 BYTE   Cn4
 BYTE   W06
 BYTE   Ds4
 BYTE   W06
 BYTE   Dn4
 BYTE   W06
 BYTE   Dn4  v048
 BYTE   W06
 BYTE   Gn4  v100
 BYTE   W06
 BYTE   Gn4  v048
 BYTE   W06
 BYTE   Fn4  v100
 BYTE   W06
 BYTE   Fn4  v048
 BYTE   W06
 BYTE   Cn5  v100
 BYTE   W06
 BYTE   Cn5  v048
 BYTE   W06
 BYTE   Ds4  v100
 BYTE   W06
 BYTE   Ds4  v048
 BYTE   W06
 BYTE   Cn5  v100
 BYTE   W06
 BYTE   Cn5  v048
 BYTE   W06
//  #05 //025   ----------------------------------------
 BYTE   PATT
  POIN2 Label_01057890
//  #05 //026   ----------------------------------------
 BYTE   PATT
  POIN2 Label_010578B3
//  #05 //027   ----------------------------------------
 BYTE   PATT
  POIN2 Label_010578E5
//  #05 //028   ----------------------------------------
 BYTE   GoTo
  POIN2 Label_01057908
//  #05 //029   ----------------------------------------
 BYTE   N36  Ds4  v120
 BYTE   W36
 BYTE   N06  Cn4
 BYTE   W06
 BYTE   Dn4
 BYTE   W06
 BYTE   N12  Ds4
 BYTE   W12
 BYTE   N06  Cn4
 BYTE   W06
 BYTE   Dn4
 BYTE   W06
 BYTE   Ds4
 BYTE   W12
 BYTE   Gn4
 BYTE   W12
 BYTE   FINE

//**************** Track 6 (Midi-Chn.5) ****************//

ActraiserFillmore_006:
//  #06 //000   ----------------------------------------
 BYTE   KEYSH   ActraiserFillmore_key+0
 BYTE   VOICE   40
 BYTE   VOL   35*ActraiserFillmore_mvl/mxv
 BYTE   PAN   c_v-24
 BYTE   W06
 BYTE   N06  Gn2  v100
 BYTE   W06
 BYTE   Cn3
 BYTE   W06
 BYTE   Ds3
 BYTE   W06
 BYTE   Dn3
 BYTE   W12
 BYTE   Gn3
 BYTE   W12
 BYTE   Fn3
 BYTE   W12
 BYTE   Cn4
 BYTE   W12
 BYTE   Ds3
 BYTE   W12
 BYTE   Cn4
 BYTE   W12
//  #06 //001   ----------------------------------------
Label_01057AE9:
 BYTE   N06  An2  v100
 BYTE   W06
 BYTE   Fs2
 BYTE   W06
 BYTE   Ds2
 BYTE   W06
 BYTE   Fs2
 BYTE   W06
 BYTE   An2
 BYTE   W06
 BYTE   Cn3
 BYTE   W06
 BYTE   Ds3
 BYTE   W06
 BYTE   Cn3
 BYTE   W06
 BYTE   Cn4
 BYTE   W06
 BYTE   An3
 BYTE   W06
 BYTE   Fs3
 BYTE   W06
 BYTE   An3
 BYTE   W06
 BYTE   Cn4
 BYTE   W06
 BYTE   Dn4
 BYTE   W06
 BYTE   Ds4
 BYTE   W06
 BYTE   Cn4
 BYTE   W06
 BYTE   PEND 
//  #06 //002   ----------------------------------------
Label_01057B0C:
 BYTE   N06  Gn3  v100
 BYTE   W12
 BYTE   Gs3
 BYTE   W12
 BYTE   Cn4
 BYTE   W12
 BYTE   Bn3
 BYTE   W12
 BYTE   Ds4
 BYTE   W12
 BYTE   Dn4
 BYTE   W12
 BYTE   Gs4
 BYTE   W12
 BYTE   Gn4
 BYTE   W12
 BYTE   PEND 
//  #06 //003   ----------------------------------------
Label_01057B1F:
 BYTE   N06  Dn3  v100
 BYTE   W06
 BYTE   Ds3
 BYTE   W06
 BYTE   Fn3
 BYTE   W06
 BYTE   Bn2
 BYTE   W06
 BYTE   Cn3
 BYTE   W06
 BYTE   Dn3
 BYTE   W06
 BYTE   Gn2
 BYTE   W06
 BYTE   An2
 BYTE   W06
 BYTE   Bn2
 BYTE   W06
 BYTE   Cn3
 BYTE   W06
 BYTE   Dn3
 BYTE   W06
 BYTE   Ds3
 BYTE   W06
 BYTE   Fn3
 BYTE   W06
 BYTE   Bn2
 BYTE   W06
 BYTE   Cn3
 BYTE   W06
 BYTE   Dn3
 BYTE   W06
 BYTE   PEND 
//  #06 //004   ----------------------------------------
Label_01057B42:
 BYTE   N36  Ds3  v120
 BYTE   W36
 BYTE   N06  Cn3
 BYTE   W06
 BYTE   Dn3
 BYTE   W06
 BYTE   N12  Ds3
 BYTE   W12
 BYTE   N06  Cn3
 BYTE   W06
 BYTE   Dn3
 BYTE   W06
 BYTE   Ds3
 BYTE   W12
 BYTE   Gn3
 BYTE   W12
 BYTE   PEND 
//  #06 //005   ----------------------------------------
 BYTE   N36  Fn3
 BYTE   W36
 BYTE   N54  Cn3
 BYTE   W54
 BYTE   N06  Dn3
 BYTE   W06
//  #06 //006   ----------------------------------------
 BYTE   PATT
  POIN2 Label_01057B42
//  #06 //007   ----------------------------------------
 BYTE   N36  Fn3  v120
 BYTE   W36
 BYTE   N60  Cn3
 BYTE   W60
//  #06 //008   ----------------------------------------
Label_01057B6D:
 BYTE   N36  Dn3  v120
 BYTE   W36
 BYTE   N06  Bn2
 BYTE   W06
 BYTE   Cn3
 BYTE   W06
 BYTE   N12  Dn3
 BYTE   W12
 BYTE   N06  Bn2
 BYTE   W06
 BYTE   Cn3
 BYTE   W06
 BYTE   Dn3
 BYTE   W06
 BYTE   Fn3
 BYTE   W06
 BYTE   Ds3
 BYTE   W06
 BYTE   Dn3
 BYTE   W06
 BYTE   PEND 
//  #06 //009   ----------------------------------------
Label_01057B87:
 BYTE   N36  Ds3  v120
 BYTE   W36
 BYTE   N06  Cn3
 BYTE   W06
 BYTE   Dn3
 BYTE   W06
 BYTE   N12  Ds3
 BYTE   W12
 BYTE   N06  Cn3
 BYTE   W06
 BYTE   Dn3
 BYTE   W06
 BYTE   Ds3
 BYTE   W06
 BYTE   Gn3
 BYTE   W06
 BYTE   Fn3
 BYTE   W06
 BYTE   Ds3
 BYTE   W06
 BYTE   PEND 
//  #06 //010   ----------------------------------------
Label_01057BA1:
 BYTE   N30  Fn3  v120
 BYTE   W36
 BYTE   N06  Dn3
 BYTE   W06
 BYTE   Ds3
 BYTE   W06
 BYTE   Fn3
 BYTE   W12
 BYTE   Dn3
 BYTE   W06
 BYTE   Ds3
 BYTE   W06
 BYTE   Fn3
 BYTE   W06
 BYTE   Gs3
 BYTE   W06
 BYTE   Gn3
 BYTE   W06
 BYTE   Fn3
 BYTE   W06
 BYTE   PEND 
//  #06 //011   ----------------------------------------
 BYTE   N18  Gn3
 BYTE   W18
 BYTE   Fn3
 BYTE   W18
 BYTE   N12  Ds3
 BYTE   W12
 BYTE   N18  As3
 BYTE   W18
 BYTE   Gs3
 BYTE   W18
 BYTE   N12  Gn3
 BYTE   W12
//  #06 //012   ----------------------------------------
 BYTE   PATT
  POIN2 Label_01057B6D
//  #06 //013   ----------------------------------------
 BYTE   PATT
  POIN2 Label_01057B87
//  #06 //014   ----------------------------------------
 BYTE   PATT
  POIN2 Label_01057BA1
//  #06 //015   ----------------------------------------
 BYTE   N18  Gn3  v120
 BYTE   W18
 BYTE   Fn3
 BYTE   W18
 BYTE   N12  Gn3
 BYTE   W12
 BYTE   N18  Bn3
 BYTE   W18
 BYTE   Cn4
 BYTE   W18
 BYTE   N12  Dn4
 BYTE   W12
//  #06 //016   ----------------------------------------
 BYTE   N18  Ds4
 BYTE   W18
 BYTE   Dn4
 BYTE   W18
 BYTE   Cn4
 BYTE   W18
 BYTE   Dn4
 BYTE   W18
 BYTE   N12  Ds4
 BYTE   W12
 BYTE   Cn4
 BYTE   W12
//  #06 //017   ----------------------------------------
 BYTE   N18  An3
 BYTE   W18
 BYTE   Fs3
 BYTE   W18
 BYTE   N12  Ds3
 BYTE   W12
 BYTE   N18  Cn3
 BYTE   W18
 BYTE   Bn2
 BYTE   W18
 BYTE   N12  An2
 BYTE   W12
//  #06 //018   ----------------------------------------
 BYTE   N90  Cn3
 BYTE   W90
 BYTE   N06  Gn3
 BYTE   W06
//  #06 //019   ----------------------------------------
 BYTE   N84
 BYTE   W96
//  #06 //020   ----------------------------------------
Label_01057C0F:
 BYTE   N06  Gn2  v080
 BYTE   W06
 BYTE   Cn3  v092
 BYTE   W06
 BYTE   Ds3  v100
 BYTE   W06
 BYTE   Gn3
 BYTE   W06
 BYTE   Fn3  v096
 BYTE   W06
 BYTE   Fn3  v048
 BYTE   W06
 BYTE   Cn4  v100
 BYTE   W06
 BYTE   Cn4  v048
 BYTE   W06
 BYTE   Ds3  v096
 BYTE   W06
 BYTE   Ds3  v048
 BYTE   W06
 BYTE   Cn4  v100
 BYTE   W06
 BYTE   Cn4  v048
 BYTE   W06
 BYTE   Fn3  v096
 BYTE   W06
 BYTE   Fn3  v048
 BYTE   W06
 BYTE   Bn3  v100
 BYTE   W06
 BYTE   Bn3  v048
 BYTE   W06
 BYTE   PEND 
//  #06 //021   ----------------------------------------
 BYTE   Cn2  v080
 BYTE   W06
 BYTE   Cn3  v092
 BYTE   W06
 BYTE   Ds3  v100
 BYTE   W06
 BYTE   Gn3
 BYTE   W06
 BYTE   Fn3  v096
 BYTE   W06
 BYTE   Fn3  v048
 BYTE   W06
 BYTE   Cn4  v100
 BYTE   W06
 BYTE   Cn4  v048
 BYTE   W06
 BYTE   Ds3  v096
 BYTE   W06
 BYTE   Ds3  v048
 BYTE   W06
 BYTE   Cn4  v100
 BYTE   W06
 BYTE   Cn4  v048
 BYTE   W06
 BYTE   Dn3  v096
 BYTE   W06
 BYTE   Dn3  v048
 BYTE   W06
 BYTE   Bn3  v100
 BYTE   W06
 BYTE   Bn3  v048
 BYTE   W06
//  #06 //022   ----------------------------------------
 BYTE   PATT
  POIN2 Label_01057C0F
//  #06 //023   ----------------------------------------
 BYTE   N06  Cn2  v080
 BYTE   W06
 BYTE   Cn3  v092
 BYTE   W06
 BYTE   Ds3  v100
 BYTE   W06
 BYTE   Gn3
 BYTE   W06
 BYTE   Fn3  v096
 BYTE   W06
 BYTE   Fn3  v048
 BYTE   W06
 BYTE   Cn4  v100
 BYTE   W06
 BYTE   Cn4  v048
 BYTE   W06
 BYTE   Ds3  v096
 BYTE   W06
 BYTE   Ds3  v048
 BYTE   W06
 BYTE   Cn4  v100
 BYTE   W06
 BYTE   Cn4  v048
 BYTE   W06
 BYTE   Dn3  v096
 BYTE   W06
 BYTE   Fn3  v100
 BYTE   W06
 BYTE   Gn3
 BYTE   W06
 BYTE   Bn3
 BYTE   W06
//  #06 //024   ----------------------------------------
 BYTE   W06
 BYTE   Gn2
 BYTE   W06
 BYTE   Cn3
 BYTE   W06
 BYTE   Ds3
 BYTE   W06
 BYTE   Dn3
 BYTE   W06
 BYTE   Dn3  v048
 BYTE   W06
 BYTE   Gn3  v100
 BYTE   W06
 BYTE   Gn3  v048
 BYTE   W06
 BYTE   Fn3  v100
 BYTE   W06
 BYTE   Fn3  v048
 BYTE   W06
 BYTE   Cn4  v100
 BYTE   W06
 BYTE   Cn4  v048
 BYTE   W06
 BYTE   Ds3  v100
 BYTE   W06
 BYTE   Ds3  v048
 BYTE   W06
 BYTE   Cn4  v100
 BYTE   W06
 BYTE   Cn4  v048
 BYTE   W06
//  #06 //025   ----------------------------------------
 BYTE   PATT
  POIN2 Label_01057AE9
//  #06 //026   ----------------------------------------
 BYTE   PATT
  POIN2 Label_01057B0C
//  #06 //027   ----------------------------------------
 BYTE   PATT
  POIN2 Label_01057B1F
//  #06 //028   ----------------------------------------
 BYTE   GoTo
  POIN2 Label_01057B42
//  #06 //029   ----------------------------------------
 BYTE   PATT
  POIN2 Label_01057B42
 BYTE   FINE

//**************** Track 7 (Midi-Chn.6) ****************//

ActraiserFillmore_007:
//  #07 //000   ----------------------------------------
 BYTE   KEYSH   ActraiserFillmore_key+0
 BYTE   VOICE   124
 BYTE   VOL   44*ActraiserFillmore_mvl/mxv
 BYTE   N12  Cn1  v127
 BYTE   W12
 BYTE   N06  En1  v104
 BYTE   W06
 BYTE   N06
 BYTE   W06
 BYTE   N12  Cn1  v127
 BYTE   W12
 BYTE   N06  En1  v104
 BYTE   W06
 BYTE   N06
 BYTE   W06
 BYTE   N12  Cn1  v127
 BYTE   W12
 BYTE   N06  En1  v104
 BYTE   W06
 BYTE   N06
 BYTE   W06
 BYTE   N12  Cn1  v127
 BYTE   W12
 BYTE   N06  En1  v104
 BYTE   W06
 BYTE   N06
 BYTE   W06
//  #07 //001   ----------------------------------------
 BYTE   N12  Cn1  v127
 BYTE   W12
 BYTE   N06  En1  v104
 BYTE   W06
 BYTE   N06
 BYTE   W06
 BYTE   N12  Cn1  v127
 BYTE   W12
 BYTE   N06  En1  v104
 BYTE   W06
 BYTE   N06
 BYTE   W06
 BYTE   N12  Cn1  v127
 BYTE   W12
 BYTE   N06  En1  v104
 BYTE   W06
 BYTE   N06
 BYTE   W06
 BYTE   N12  Cn1  v127
 BYTE   W12
 BYTE   N06  En1  v104
 BYTE   W06
 BYTE   N06
 BYTE   W06
//  #07 //002   ----------------------------------------
 BYTE   N06
 BYTE   W06
 BYTE   Cn1  v127
 BYTE   W06
 BYTE   N06
 BYTE   N06  En1  v104
 BYTE   W06
 BYTE   N06
 BYTE   W06
 BYTE   Cn1  v127
 BYTE   W06
 BYTE   N06
 BYTE   W06
 BYTE   En1  v104
 BYTE   W06
 BYTE   Cn1  v127
 BYTE   N06  En1  v104
 BYTE   W06
 BYTE   Cn1  v127
 BYTE   W06
 BYTE   En1  v104
 BYTE   W06
 BYTE   Cn1  v127
 BYTE   N06  En1  v104
 BYTE   W06
 BYTE   Cn1  v127
 BYTE   N06  En1  v104
 BYTE   W06
 BYTE   N06
 BYTE   W06
 BYTE   Cn1  v127
 BYTE   W06
 BYTE   En1  v104
 BYTE   W06
 BYTE   N06
 BYTE   W06
//  #07 //003   ----------------------------------------
 BYTE   Cn1  v127
 BYTE   N24  Gn2  v096
 BYTE   W54
 BYTE   N06  En1  v104
 BYTE   W06
 BYTE   N06
 BYTE   W06
 BYTE   N06
 BYTE   W06
 BYTE   N03
 BYTE   W03
 BYTE   N03
 BYTE   W03
 BYTE   N06
 BYTE   W06
 BYTE   N06
 BYTE   W06
 BYTE   N06
 BYTE   W06
//  #07 //004   ----------------------------------------
Label_01057D8C:
 BYTE   N12  Cn1  v127
 BYTE   N24  Cs2  v096
 BYTE   W12
 BYTE   N06  Cn1  v127
 BYTE   W06
 BYTE   N06
 BYTE   W06
 BYTE   N12  En1  v104
 BYTE   N06  As1  v052
 BYTE   W12
 BYTE   Cn1  v127
 BYTE   W06
 BYTE   N06
 BYTE   W06
 BYTE   N12
 BYTE   N06  Fs1  v052
 BYTE   W06
 BYTE   N06
 BYTE   W06
 BYTE   Cn1  v127
 BYTE   W06
 BYTE   N06
 BYTE   W06
 BYTE   N12  En1  v104
 BYTE   N06  Fs1  v052
 BYTE   W06
 BYTE   N12  Cn1  v127
 BYTE   N06  Fs1  v052
 BYTE   W06
 BYTE   N06
 BYTE   W06
 BYTE   Cn1  v127
 BYTE   N06  Fs1  v052
 BYTE   W06
//  #07 //005   ----------------------------------------
Label_01057DC7:
 BYTE   N12  Cn1  v127
 BYTE   N12  Fs1  v052
 BYTE   W12
 BYTE   N06  Cn1  v127
 BYTE   W06
 BYTE   N06
 BYTE   W06
 BYTE   N12  En1  v104
 BYTE   N06  As1  v052
 BYTE   W12
 BYTE   Cn1  v127
 BYTE   W06
 BYTE   N06
 BYTE   W06
 BYTE   N12
 BYTE   N06  Fs1  v052
 BYTE   W06
 BYTE   N06
 BYTE   W06
 BYTE   Cn1  v127
 BYTE   W06
 BYTE   N06
 BYTE   W06
 BYTE   N12  En1  v104
 BYTE   N06  Fs1  v052
 BYTE   W06
 BYTE   N12  Cn1  v127
 BYTE   N06  Fs1  v052
 BYTE   W06
 BYTE   As1
 BYTE   W06
 BYTE   Cn1  v127
 BYTE   N06  Fs1  v052
 BYTE   W06
 BYTE   PEND 
//  #07 //006   ----------------------------------------
Label_01057E03:
 BYTE   N12  Cn1  v127
 BYTE   N12  Fs1  v052
 BYTE   W12
 BYTE   N06  Cn1  v127
 BYTE   W06
 BYTE   N06
 BYTE   W06
 BYTE   N12  En1  v104
 BYTE   N06  As1  v052
 BYTE   W12
 BYTE   Cn1  v127
 BYTE   W06
 BYTE   N06
 BYTE   W06
 BYTE   N12
 BYTE   N06  Fs1  v052
 BYTE   W06
 BYTE   N06
 BYTE   W06
 BYTE   Cn1  v127
 BYTE   W06
 BYTE   N06
 BYTE   W06
 BYTE   N12  En1  v104
 BYTE   N06  Fs1  v052
 BYTE   W06
 BYTE   N12  Cn1  v127
 BYTE   N06  Fs1  v052
 BYTE   W06
 BYTE   N06
 BYTE   W06
 BYTE   Cn1  v127
 BYTE   N06  Fs1  v052
 BYTE   W06
 BYTE   PEND 
//  #07 //007   ----------------------------------------
Label_01057E3F:
 BYTE   N12  Cn1  v127
 BYTE   N12  Fs1  v052
 BYTE   W12
 BYTE   N06  Cn1  v127
 BYTE   W06
 BYTE   N06
 BYTE   W06
 BYTE   N12  En1  v104
 BYTE   N06  As1  v052
 BYTE   W12
 BYTE   Cn1  v127
 BYTE   W06
 BYTE   N06
 BYTE   W06
 BYTE   N12
 BYTE   N06  Fs1  v052
 BYTE   W06
 BYTE   N06
 BYTE   N06  Cn2  v108
 BYTE   W06
 BYTE   Cn1  v127
 BYTE   N06  Cn2  v108
 BYTE   W06
 BYTE   Cn1  v127
 BYTE   N06  Cn2  v108
 BYTE   W06
 BYTE   N12  En1  v104
 BYTE   N06  Fs1  v052
 BYTE   N06  An1  v116
 BYTE   W06
 BYTE   N12  Cn1  v127
 BYTE   N06  Fn1  v116
 BYTE   N06  Fs1  v052
 BYTE   W06
 BYTE   Fn1  v116
 BYTE   N06  As1  v052
 BYTE   W06
 BYTE   Cn1  v127
 BYTE   N06  Fs1  v052
 BYTE   W06
 BYTE   PEND 
//  #07 //008   ----------------------------------------
 BYTE   PATT
  POIN2 Label_01057E03
//  #07 //009   ----------------------------------------
 BYTE   PATT
  POIN2 Label_01057DC7
//  #07 //010   ----------------------------------------
 BYTE   PATT
  POIN2 Label_01057E03
//  #07 //011   ----------------------------------------
 BYTE   PATT
  POIN2 Label_01057E3F
//  #07 //012   ----------------------------------------
Label_01057EA3:
 BYTE   N12  Cn1  v127
 BYTE   N12  Ds2  v072
 BYTE   W12
 BYTE   N06  Cn1  v127
 BYTE   W06
 BYTE   N06
 BYTE   W06
 BYTE   N12  En1  v104
 BYTE   N06  As1  v052
 BYTE   W12
 BYTE   Cn1  v127
 BYTE   W06
 BYTE   N06
 BYTE   W06
 BYTE   N12
 BYTE   N12  Ds2  v072
 BYTE   W06
 BYTE   N06  Fs1  v052
 BYTE   W06
 BYTE   Cn1  v127
 BYTE   W06
 BYTE   N06
 BYTE   W06
 BYTE   N12  En1  v104
 BYTE   N06  As1  v052
 BYTE   W06
 BYTE   N12  Cn1  v127
 BYTE   N06  Fs1  v052
 BYTE   W06
 BYTE   N06
 BYTE   W06
 BYTE   Cn1  v127
 BYTE   W06
 BYTE   PEND 
//  #07 //013   ----------------------------------------
 BYTE   N12
 BYTE   N12  Ds2  v072
 BYTE   W12
 BYTE   N06  Cn1  v127
 BYTE   W06
 BYTE   N06
 BYTE   W06
 BYTE   N12  En1  v104
 BYTE   N06  As1  v052
 BYTE   W12
 BYTE   Cn1  v127
 BYTE   W06
 BYTE   N06
 BYTE   W06
 BYTE   N12
 BYTE   N12  Ds2  v072
 BYTE   W06
 BYTE   N06  Fs1  v052
 BYTE   W06
 BYTE   Cn1  v127
 BYTE   W06
 BYTE   N06
 BYTE   W06
 BYTE   N12  En1  v104
 BYTE   N06  As1  v052
 BYTE   W06
 BYTE   N12  Cn1  v127
 BYTE   N06  Fs1  v052
 BYTE   W06
 BYTE   Ds2  v072
 BYTE   W06
 BYTE   Cn1  v127
 BYTE   N06  Ds2  v072
 BYTE   W06
//  #07 //014   ----------------------------------------
 BYTE   PATT
  POIN2 Label_01057EA3
//  #07 //015   ----------------------------------------
 BYTE   N12  Cn1  v127
 BYTE   N12  Ds2  v072
 BYTE   W12
 BYTE   N06  Cn1  v127
 BYTE   W06
 BYTE   N06
 BYTE   W06
 BYTE   N12  En1  v104
 BYTE   N06  As1  v052
 BYTE   W12
 BYTE   Cn1  v127
 BYTE   W06
 BYTE   N06
 BYTE   W06
 BYTE   N12
 BYTE   N06  Ds2  v072
 BYTE   W06
 BYTE   Fs1  v052
 BYTE   N06  Cn2  v108
 BYTE   W06
 BYTE   Cn1  v127
 BYTE   N06  Cn2  v108
 BYTE   W06
 BYTE   Cn1  v127
 BYTE   N06  Cn2  v108
 BYTE   W06
 BYTE   N12  En1  v104
 BYTE   N06  An1  v116
 BYTE   N06  Ds2  v072
 BYTE   W06
 BYTE   N12  Cn1  v127
 BYTE   N06  Fn1  v116
 BYTE   N06  Fs1  v052
 BYTE   W06
 BYTE   Fn1  v116
 BYTE   N06  Ds2  v072
 BYTE   W06
 BYTE   Cn1  v127
 BYTE   N06  Fs1  v052
 BYTE   W06
//  #07 //016   ----------------------------------------
Label_01057F6F:
 BYTE   N12  Cn1  v127
 BYTE   N24  Cs2  v096
 BYTE   W24
 BYTE   N12  Cn1  v127
 BYTE   N12  Fs1  v052
 BYTE   W24
 BYTE   Cn1  v127
 BYTE   N12  Fs1  v052
 BYTE   W12
 BYTE   N06  Cn1  v127
 BYTE   W06
 BYTE   N06
 BYTE   W06
 BYTE   N12
 BYTE   N12  Fs1  v052
 BYTE   W12
 BYTE   An1  v116
 BYTE   N12  An4  v080
 BYTE   W12
 BYTE   PEND 
//  #07 //017   ----------------------------------------
 BYTE   PATT
  POIN2 Label_01057F6F
//  #07 //018   ----------------------------------------
 BYTE   PATT
  POIN2 Label_01057F6F
//  #07 //019   ----------------------------------------
 BYTE   N12  Cn1  v127
 BYTE   N24  Cs2  v096
 BYTE   W24
 BYTE   N12  Cn1  v127
 BYTE   N12  Fs1  v052
 BYTE   W24
 BYTE   Cn1  v127
 BYTE   N12  Fs1  v052
 BYTE   W06
 BYTE   N03  Cn2  v108
 BYTE   W03
 BYTE   N03
 BYTE   W03
 BYTE   N06  Cn1  v127
 BYTE   N06  Cn2  v108
 BYTE   W06
 BYTE   Cn1  v127
 BYTE   N06  Cn2  v108
 BYTE   W06
 BYTE   N12  Cn1  v127
 BYTE   N12  Fs1  v052
 BYTE   N06  An1  v116
 BYTE   W06
 BYTE   Fn1
 BYTE   W06
 BYTE   N06
 BYTE   N12  An1
 BYTE   W06
 BYTE   N06  Fn1
 BYTE   W06
//  #07 //020   ----------------------------------------
Label_01057FD9:
 BYTE   N12  Cn1  v127
 BYTE   N06  Fn1  v116
 BYTE   W06
 BYTE   An1
 BYTE   W06
 BYTE   Cn1  v127
 BYTE   N06  Fs1  v052
 BYTE   N06  Cn2  v108
 BYTE   W06
 BYTE   Cn1  v127
 BYTE   W06
 BYTE   En1  v104
 BYTE   N06  Fn1  v116
 BYTE   N06  As1  v052
 BYTE   W06
 BYTE   Cn1  v127
 BYTE   W06
 BYTE   N06
 BYTE   N06  Fs1  v052
 BYTE   N06  Cn2  v108
 BYTE   W06
 BYTE   Cn1  v127
 BYTE   W06
 BYTE   N06
 BYTE   N06  Fn1  v116
 BYTE   W06
 BYTE   Cn1  v127
 BYTE   N06  An1  v116
 BYTE   W06
 BYTE   Cn1  v127
 BYTE   N06  Fs1  v052
 BYTE   N06  Cn2  v108
 BYTE   W06
 BYTE   Cn1  v127
 BYTE   W06
 BYTE   En1  v104
 BYTE   N06  Fn1  v116
 BYTE   N06  As1  v052
 BYTE   W06
 BYTE   Cn1  v127
 BYTE   W06
 BYTE   N12  En1  v104
 BYTE   N12  Gn2  v096
 BYTE   W12
 BYTE   PEND 
//  #07 //021   ----------------------------------------
Label_01058030:
 BYTE   N12  Cn1  v127
 BYTE   N06  Fn1  v116
 BYTE   W06
 BYTE   An1
 BYTE   W06
 BYTE   Cn1  v127
 BYTE   N06  Fs1  v052
 BYTE   N06  Cn2  v108
 BYTE   W06
 BYTE   Cn1  v127
 BYTE   W06
 BYTE   En1  v104
 BYTE   N06  Fn1  v116
 BYTE   N06  As1  v052
 BYTE   W06
 BYTE   Cn1  v127
 BYTE   W06
 BYTE   N06
 BYTE   N06  Fs1  v052
 BYTE   N06  Cn2  v108
 BYTE   W06
 BYTE   Cn1  v127
 BYTE   W06
 BYTE   N06
 BYTE   N06  Fn1  v116
 BYTE   W06
 BYTE   Cn1  v127
 BYTE   N06  An1  v116
 BYTE   W06
 BYTE   Cn1  v127
 BYTE   N06  Fs1  v052
 BYTE   N06  Cn2  v108
 BYTE   W06
 BYTE   Cn1  v127
 BYTE   W06
 BYTE   En1  v104
 BYTE   N06  Fn1  v116
 BYTE   N06  As1  v052
 BYTE   W06
 BYTE   Cn1  v127
 BYTE   W06
 BYTE   N06
 BYTE   N06  En1  v104
 BYTE   N12  Gn2  v096
 BYTE   W06
 BYTE   N06  Cn1  v127
 BYTE   N06  En1  v104
 BYTE   W06
 BYTE   PEND 
//  #07 //022   ----------------------------------------
 BYTE   PATT
  POIN2 Label_01057FD9
//  #07 //023   ----------------------------------------
 BYTE   PATT
  POIN2 Label_01058030
//  #07 //024   ----------------------------------------
Label_01058099:
 BYTE   N12  Cn1  v127
 BYTE   N12  Fs1  v052
 BYTE   W24
 BYTE   Cn1  v127
 BYTE   N12  Fs1  v052
 BYTE   W24
 BYTE   Cn1  v127
 BYTE   N12  Fs1  v052
 BYTE   W24
 BYTE   Cn1  v127
 BYTE   N12  Fs1  v052
 BYTE   W12
 BYTE   An4  v080
 BYTE   W12
 BYTE   PEND 
//  #07 //025   ----------------------------------------
 BYTE   PATT
  POIN2 Label_01058099
//  #07 //026   ----------------------------------------
 BYTE   PATT
  POIN2 Label_01058099
//  #07 //027   ----------------------------------------
 BYTE   N06  Cn1  v127
 BYTE   W06
 BYTE   Fn1  v116
 BYTE   N06  Fs1  v052
 BYTE   W06
 BYTE   Cn1  v127
 BYTE   N06  En1  v104
 BYTE   W06
 BYTE   Cn1  v127
 BYTE   W06
 BYTE   Fn1  v116
 BYTE   N06  Fs1  v052
 BYTE   W06
 BYTE   Cn1  v127
 BYTE   N06  En1  v104
 BYTE   W06
 BYTE   Cn1  v127
 BYTE   W06
 BYTE   Fn1  v116
 BYTE   N06  Fs1  v052
 BYTE   W06
 BYTE   Cn1  v127
 BYTE   N06  En1  v104
 BYTE   W06
 BYTE   N03  Cn2  v108
 BYTE   W03
 BYTE   N03
 BYTE   W03
 BYTE   N06
 BYTE   W06
 BYTE   N06
 BYTE   W06
 BYTE   An1  v116
 BYTE   W06
 BYTE   Fn1
 BYTE   N06  Fs1  v052
 BYTE   W06
 BYTE   Cn1  v127
 BYTE   N06  En1  v104
 BYTE   W06
 BYTE   Cn1  v127
 BYTE   N06  En1  v104
 BYTE   W06
//  #07 //028   ----------------------------------------
 BYTE   GoTo
  POIN2 Label_01057D8C
//  #07 //029   ----------------------------------------
 BYTE   W96
 BYTE   FINE

//******************************************************//
	ALIGN 4

ActraiserFillmore:
	BYTE	7	// NumTrks
	BYTE	0	// NumBlks
	BYTE	ActraiserFillmore_pri	// Priority
	BYTE	ActraiserFillmore_rev	// Reverb.
    
	POIN2	ActraiserFillmore_grp
    
	POIN2	ActraiserFillmore_001
	POIN2	ActraiserFillmore_002
	POIN2	ActraiserFillmore_003
	POIN2	ActraiserFillmore_004
	POIN2	ActraiserFillmore_005
	POIN2	ActraiserFillmore_006
	POIN2	ActraiserFillmore_007

	
