	.include "MPlayDef.s"

	.equ	Adversity_grp, voicegroup000
	.equ	Adversity_pri, 10
	.equ	Adversity_rev, 0
	.equ	Adversity_mvl, 127
	.equ	Adversity_key, 0
	.equ	Adversity_tbs, 1
	.equ	Adversity_exg, 0
	.equ	Adversity_cmp, 1

	.section .rodata
	.global	Adversity
	.align	2


@**************** Track 1 (Midi-Chn.0) ****************@

Adversity_001:
@  #01 @000   ----------------------------------------
Label_01542814:
 .byte   TEMPO , 210*Adversity_tbs/2
 .byte   KEYSH , Adversity_key+0
 .byte   VOICE , 57
 .byte   VOL , 50*Adversity_mvl/mxv
 .byte   N12 ,Gs2 ,v088
 .byte   W12
 .byte   As2
 .byte   W12
 .byte   Gs2
 .byte   W12
 .byte   As2
 .byte   W12
 .byte   Bn2
 .byte   W12
 .byte   Cs3
 .byte   W12
 .byte   Bn2
 .byte   W12
 .byte   As2
 .byte   W12
@  #01 @001   ----------------------------------------
Label_0154282E:
 .byte   N12 ,Gs2 ,v088
 .byte   W12
 .byte   As2
 .byte   W12
 .byte   Gs2
 .byte   W12
 .byte   As2
 .byte   W12
 .byte   Bn2
 .byte   W12
 .byte   Cs3
 .byte   W12
 .byte   Bn2
 .byte   W12
 .byte   As2
 .byte   W12
 .byte   PEND 
@  #01 @002   ----------------------------------------
 .byte   PATT
  .word Label_0154282E
@  #01 @003   ----------------------------------------
 .byte   PATT
  .word Label_0154282E
@  #01 @004   ----------------------------------------
 .byte   PATT
  .word Label_0154282E
@  #01 @005   ----------------------------------------
 .byte   PATT
  .word Label_0154282E
@  #01 @006   ----------------------------------------
 .byte   PATT
  .word Label_0154282E
@  #01 @007   ----------------------------------------
 .byte   PATT
  .word Label_0154282E
@  #01 @008   ----------------------------------------
 .byte   PATT
  .word Label_0154282E
@  #01 @009   ----------------------------------------
 .byte   PATT
  .word Label_0154282E
@  #01 @010   ----------------------------------------
 .byte   PATT
  .word Label_0154282E
@  #01 @011   ----------------------------------------
 .byte   N12 ,Gs2 ,v088
 .byte   W12
 .byte   As2
 .byte   W12
 .byte   Bn2
 .byte   W12
 .byte   Cs3
 .byte   W12
 .byte   Ds3
 .byte   W12
 .byte   En3
 .byte   W12
 .byte   Fs3
 .byte   W12
 .byte   Gs3
 .byte   W12
@  #01 @012   ----------------------------------------
Label_01542880:
 .byte   N12 ,As3 ,v088
 .byte   W12
 .byte   Gs3
 .byte   W12
 .byte   As3
 .byte   W12
 .byte   Gs3
 .byte   W12
 .byte   As3
 .byte   W12
 .byte   Gs3
 .byte   W12
 .byte   As3
 .byte   W12
 .byte   Gs3
 .byte   W12
 .byte   PEND 
@  #01 @013   ----------------------------------------
 .byte   PATT
  .word Label_01542880
@  #01 @014   ----------------------------------------
 .byte   PATT
  .word Label_01542880
@  #01 @015   ----------------------------------------
 .byte   N12 ,As3 ,v088
 .byte   W12
 .byte   Gs3
 .byte   W12
 .byte   As3
 .byte   W12
 .byte   Gs3
 .byte   W12
 .byte   As3
 .byte   W12
 .byte   Bn3
 .byte   W12
 .byte   Cs4
 .byte   W12
 .byte   Ds4
 .byte   W96
@  #01 @016   ----------------------------------------
 .byte   W96
@  #01 @017   ----------------------------------------
 .byte   W96
@  #01 @018   ----------------------------------------
 .byte   W96
@  #01 @019   ----------------------------------------
 .byte   W96
@  #01 @020   ----------------------------------------
 .byte   W96
@  #01 @021   ----------------------------------------
 .byte   W96
@  #01 @022   ----------------------------------------
 .byte   W96
@  #01 @023   ----------------------------------------
 .byte   W96
@  #01 @024   ----------------------------------------
 .byte   W96
@  #01 @025   ----------------------------------------
 .byte   W96
@  #01 @026   ----------------------------------------
 .byte   W96
@  #01 @027   ----------------------------------------
 .byte   W96
@  #01 @028   ----------------------------------------
 .byte   W96
@  #01 @029   ----------------------------------------
 .byte   W96
@  #01 @030   ----------------------------------------
 .byte   W96
@  #01 @031   ----------------------------------------
 .byte   W12
 .byte   N96 ,Ds3 ,v100
 .byte   W96
@  #01 @032   ----------------------------------------
 .byte   Cs3
 .byte   W96
@  #01 @033   ----------------------------------------
 .byte   Ds3
 .byte   W96
@  #01 @034   ----------------------------------------
 .byte   N72
 .byte   W96
@  #01 @035   ----------------------------------------
 .byte   N96
 .byte   W96
@  #01 @036   ----------------------------------------
 .byte   N48 ,En3
 .byte   W48
 .byte   Fs3
 .byte   W48
@  #01 @037   ----------------------------------------
 .byte   N96 ,Ds3
 .byte   W96
@  #01 @038   ----------------------------------------
 .byte   N48
 .byte   W48
 .byte   N24
 .byte   W48
@  #01 @039   ----------------------------------------
 .byte   N72
 .byte   W72
 .byte   N06 ,Cs3
 .byte   W12
 .byte   N12 ,Cn3
 .byte   W12
@  #01 @040   ----------------------------------------
 .byte   N48 ,Cs3
 .byte   W48
 .byte   Gs3
 .byte   W48
@  #01 @041   ----------------------------------------
 .byte   Gs3
 .byte   W48
 .byte   Fn3
 .byte   W48
@  #01 @042   ----------------------------------------
 .byte   Fs3
 .byte   W48
 .byte   Ds3
 .byte   W48
@  #01 @043   ----------------------------------------
 .byte   N96
 .byte   W96
@  #01 @044   ----------------------------------------
 .byte   Ds3
 .byte   W96
@  #01 @045   ----------------------------------------
 .byte   Ds3
 .byte   W96
@  #01 @046   ----------------------------------------
 .byte   N72
 .byte   W96
@  #01 @047   ----------------------------------------
 .byte   GOTO
  .word Label_01542814
 .byte   FINE

@**************** Track 2 (Midi-Chn.1) ****************@

Adversity_002:
@  #02 @000   ----------------------------------------
Label_015428FC:
 .byte   TEMPO , 210*Adversity_tbs/2
 .byte   KEYSH , Adversity_key+0
 .byte   VOICE , 40
 .byte   VOL , 43*Adversity_mvl/mxv
 .byte   W96
@  #02 @001   ----------------------------------------
 .byte   W96
@  #02 @002   ----------------------------------------
 .byte   W96
@  #02 @003   ----------------------------------------
 .byte   W96
@  #02 @004   ----------------------------------------
 .byte   W96
@  #02 @005   ----------------------------------------
 .byte   W96
@  #02 @006   ----------------------------------------
 .byte   W96
@  #02 @007   ----------------------------------------
 .byte   W96
@  #02 @008   ----------------------------------------
 .byte   W96
@  #02 @009   ----------------------------------------
 .byte   W96
@  #02 @010   ----------------------------------------
 .byte   W96
@  #02 @011   ----------------------------------------
 .byte   W96
@  #02 @012   ----------------------------------------
 .byte   W96
@  #02 @013   ----------------------------------------
 .byte   W96
@  #02 @014   ----------------------------------------
 .byte   W96
@  #02 @015   ----------------------------------------
 .byte   W96
@  #02 @016   ----------------------------------------
 .byte   N96 ,Ds3 ,v100
 .byte   W96
@  #02 @017   ----------------------------------------
 .byte   En3
 .byte   W96
@  #02 @018   ----------------------------------------
 .byte   Ds3
 .byte   W96
@  #02 @019   ----------------------------------------
 .byte   En3
 .byte   W96
@  #02 @020   ----------------------------------------
 .byte   Fs3
 .byte   W96
@  #02 @021   ----------------------------------------
 .byte   N72
 .byte   W72
 .byte   N06
 .byte   W12
 .byte   N12 ,Gs3
 .byte   W12
@  #02 @022   ----------------------------------------
 .byte   N96 ,An3
 .byte   W96
@  #02 @023   ----------------------------------------
 .byte   N72
 .byte   W84
 .byte   N12 ,Bn3
 .byte   W12
@  #02 @024   ----------------------------------------
 .byte   N96 ,Cs4
 .byte   W96
@  #02 @025   ----------------------------------------
 .byte   Ds3
 .byte   W96
@  #02 @026   ----------------------------------------
 .byte   Ds3
 .byte   W96
@  #02 @027   ----------------------------------------
 .byte   N72
 .byte   W84
 .byte   N12 ,Cs3
 .byte   W12
@  #02 @028   ----------------------------------------
 .byte   N96 ,Ds3
 .byte   W96
@  #02 @029   ----------------------------------------
 .byte   Ds3
 .byte   W96
@  #02 @030   ----------------------------------------
 .byte   Ds3
 .byte   W96
@  #02 @031   ----------------------------------------
 .byte   N48
 .byte   W96
@  #02 @032   ----------------------------------------
 .byte   N96 ,Fs2
 .byte   W96
@  #02 @033   ----------------------------------------
 .byte   N24
 .byte   W48
 .byte   N48 ,Gs2
 .byte   W48
@  #02 @034   ----------------------------------------
 .byte   N96 ,Fs2
 .byte   W96
@  #02 @035   ----------------------------------------
 .byte   N72
 .byte   W96
@  #02 @036   ----------------------------------------
 .byte   N96
 .byte   W96
@  #02 @037   ----------------------------------------
 .byte   Fs2
 .byte   W96
@  #02 @038   ----------------------------------------
 .byte   An2
 .byte   W96
@  #02 @039   ----------------------------------------
 .byte   N24
 .byte   W48
 .byte   N48
 .byte   W48
@  #02 @040   ----------------------------------------
 .byte   N96 ,Gs2
 .byte   W96
@  #02 @041   ----------------------------------------
 .byte   N72
 .byte   W96
@  #02 @042   ----------------------------------------
 .byte   N96 ,Bn2
 .byte   W96
@  #02 @043   ----------------------------------------
 .byte   N72
 .byte   W96
@  #02 @044   ----------------------------------------
 .byte   N96 ,Fs2
 .byte   W96
@  #02 @045   ----------------------------------------
 .byte   Fs2
 .byte   W96
@  #02 @046   ----------------------------------------
 .byte   Fs2
 .byte   W96
@  #02 @047   ----------------------------------------
 .byte   N72
 .byte   W96
@  #02 @048   ----------------------------------------
 .byte   GOTO
  .word Label_015428FC
 .byte   FINE

@**************** Track 3 (Midi-Chn.2) ****************@

Adversity_003:
@  #03 @000   ----------------------------------------
Label_01542974:
 .byte   TEMPO , 210*Adversity_tbs/2
 .byte   KEYSH , Adversity_key+0
 .byte   VOICE , 110
 .byte   VOL , 42*Adversity_mvl/mxv
 .byte   W96
@  #03 @001   ----------------------------------------
 .byte   W96
@  #03 @002   ----------------------------------------
 .byte   W96
@  #03 @003   ----------------------------------------
 .byte   W72
Label_01542980:
 .byte   N06 ,Cs4 ,v100
 .byte   W12
 .byte   N12 ,Gs4
 .byte   W12
@  #03 @004   ----------------------------------------
 .byte   N72 ,As4
 .byte   W72
 .byte   PEND 
Label_0154298B:
 .byte   N06 ,Gs4 ,v100
 .byte   W12
 .byte   N12 ,As4
 .byte   W12
@  #03 @005   ----------------------------------------
 .byte   N72 ,Bn4
 .byte   W72
 .byte   PEND 
Label_01542996:
 .byte   N06 ,As4 ,v100
 .byte   W12
 .byte   N12 ,Bn4
 .byte   W12
@  #03 @006   ----------------------------------------
 .byte   N72 ,Cs5
 .byte   W72
 .byte   PEND 
 .byte   N06 ,Bn4 ,v100
 .byte   W12
 .byte   N12 ,As4
 .byte   W12
@  #03 @007   ----------------------------------------
 .byte   N72 ,Bn4
 .byte   W72
@  #03 @008   ----------------------------------------
 .byte   PATT
  .word Label_01542980
@  #03 @009   ----------------------------------------
 .byte   PATT
  .word Label_0154298B
@  #03 @010   ----------------------------------------
 .byte   PATT
  .word Label_01542996
@  #03 @011   ----------------------------------------
 .byte   N06 ,Bn4 ,v100
 .byte   W12
 .byte   N12 ,Cs5
 .byte   W12
 .byte   N72 ,Ds5
 .byte   W84
@  #03 @012   ----------------------------------------
 .byte   N12 ,Fs5
 .byte   W12
 .byte   N96 ,Fn5
 .byte   W96
@  #03 @013   ----------------------------------------
 .byte   Fn5
 .byte   W96
@  #03 @014   ----------------------------------------
 .byte   Fn5
 .byte   W96
@  #03 @015   ----------------------------------------
 .byte   Fn5
 .byte   W96
@  #03 @016   ----------------------------------------
 .byte   As3 ,v112
 .byte   W96
@  #03 @017   ----------------------------------------
 .byte   Gs3
 .byte   W96
@  #03 @018   ----------------------------------------
 .byte   Bn3
 .byte   W96
@  #03 @019   ----------------------------------------
 .byte   As3
 .byte   W96
@  #03 @020   ----------------------------------------
 .byte   Cs4
 .byte   W96
@  #03 @021   ----------------------------------------
 .byte   N72
 .byte   W72
 .byte   N06
 .byte   W12
 .byte   N12 ,Ds4
 .byte   W12
@  #03 @022   ----------------------------------------
 .byte   N96 ,En4
 .byte   W96
@  #03 @023   ----------------------------------------
 .byte   N72
 .byte   W84
 .byte   N12 ,Fs4
 .byte   W12
@  #03 @024   ----------------------------------------
 .byte   N96 ,Gs4
 .byte   W96
@  #03 @025   ----------------------------------------
 .byte   Gs3
 .byte   W96
@  #03 @026   ----------------------------------------
 .byte   Gs3
 .byte   W96
@  #03 @027   ----------------------------------------
 .byte   N72
 .byte   W84
 .byte   N12 ,Fs3
 .byte   W12
@  #03 @028   ----------------------------------------
 .byte   N96 ,Gs3
 .byte   W96
@  #03 @029   ----------------------------------------
 .byte   Gs3
 .byte   W96
@  #03 @030   ----------------------------------------
 .byte   Gs3
 .byte   W96
@  #03 @031   ----------------------------------------
 .byte   N48
 .byte   W96
@  #03 @032   ----------------------------------------
 .byte   W96
@  #03 @033   ----------------------------------------
 .byte   W96
@  #03 @034   ----------------------------------------
 .byte   W96
@  #03 @035   ----------------------------------------
 .byte   W96
@  #03 @036   ----------------------------------------
 .byte   W96
@  #03 @037   ----------------------------------------
 .byte   W96
@  #03 @038   ----------------------------------------
 .byte   W96
@  #03 @039   ----------------------------------------
 .byte   W96
@  #03 @040   ----------------------------------------
 .byte   W96
@  #03 @041   ----------------------------------------
 .byte   W96
@  #03 @042   ----------------------------------------
 .byte   W96
@  #03 @043   ----------------------------------------
 .byte   W96
@  #03 @044   ----------------------------------------
 .byte   W96
@  #03 @045   ----------------------------------------
 .byte   W96
@  #03 @046   ----------------------------------------
 .byte   W96
@  #03 @047   ----------------------------------------
 .byte   W96
@  #03 @048   ----------------------------------------
 .byte   GOTO
  .word Label_01542974
 .byte   FINE

@**************** Track 4 (Midi-Chn.3) ****************@

Adversity_004:
@  #04 @000   ----------------------------------------
Label_011164CC:
 .byte   TEMPO , 210*Adversity_tbs/2
 .byte   KEYSH , Adversity_key+0
 .byte   VOICE , 40
 .byte   VOL , 18*Adversity_mvl/mxv
 .byte   W96
@  #04 @001   ----------------------------------------
 .byte   W96
@  #04 @002   ----------------------------------------
 .byte   W96
@  #04 @003   ----------------------------------------
 .byte   W96
@  #04 @004   ----------------------------------------
 .byte   W96
@  #04 @005   ----------------------------------------
 .byte   W96
@  #04 @006   ----------------------------------------
 .byte   W96
@  #04 @007   ----------------------------------------
 .byte   W96
@  #04 @008   ----------------------------------------
 .byte   W96
@  #04 @009   ----------------------------------------
 .byte   W96
@  #04 @010   ----------------------------------------
 .byte   W96
@  #04 @011   ----------------------------------------
 .byte   W96
@  #04 @012   ----------------------------------------
 .byte   W96
@  #04 @013   ----------------------------------------
 .byte   W96
@  #04 @014   ----------------------------------------
 .byte   W96
@  #04 @015   ----------------------------------------
 .byte   W96
@  #04 @016   ----------------------------------------
 .byte   W96
@  #04 @017   ----------------------------------------
 .byte   W96
@  #04 @018   ----------------------------------------
 .byte   W96
@  #04 @019   ----------------------------------------
 .byte   W96
@  #04 @020   ----------------------------------------
 .byte   W96
@  #04 @021   ----------------------------------------
 .byte   W96
@  #04 @022   ----------------------------------------
 .byte   W96
@  #04 @023   ----------------------------------------
 .byte   W96
@  #04 @024   ----------------------------------------
 .byte   W96
@  #04 @025   ----------------------------------------
 .byte   W96
@  #04 @026   ----------------------------------------
 .byte   W96
@  #04 @027   ----------------------------------------
 .byte   W96
@  #04 @028   ----------------------------------------
 .byte   W96
@  #04 @029   ----------------------------------------
 .byte   W96
@  #04 @030   ----------------------------------------
 .byte   W96
@  #04 @031   ----------------------------------------
 .byte   W96
@  #04 @032   ----------------------------------------
 .byte   N96 ,Gs1 ,v100
 .byte   W96
@  #04 @033   ----------------------------------------
 .byte   Gs1
 .byte   W96
@  #04 @034   ----------------------------------------
 .byte   An1
 .byte   W96
@  #04 @035   ----------------------------------------
 .byte   An1
 .byte   W96
@  #04 @036   ----------------------------------------
 .byte   Gs1
 .byte   W96
@  #04 @037   ----------------------------------------
 .byte   Gs1
 .byte   W96
@  #04 @038   ----------------------------------------
 .byte   Fs1
 .byte   W96
@  #04 @039   ----------------------------------------
 .byte   Fs1
 .byte   W96
@  #04 @040   ----------------------------------------
 .byte   En1
 .byte   W96
@  #04 @041   ----------------------------------------
 .byte   En1
 .byte   W96
@  #04 @042   ----------------------------------------
 .byte   Ds1
 .byte   W96
@  #04 @043   ----------------------------------------
 .byte   Ds1
 .byte   W96
@  #04 @044   ----------------------------------------
 .byte   Gs1
 .byte   W96
@  #04 @045   ----------------------------------------
 .byte   Gs1
 .byte   W96
@  #04 @046   ----------------------------------------
 .byte   Gs1
 .byte   W96
@  #04 @047   ----------------------------------------
 .byte   N72
 .byte   W96
@  #04 @048   ----------------------------------------
 .byte   GOTO
  .word Label_011164CC
 .byte   FINE

@**************** Track 5 (Midi-Chn.4) ****************@

Adversity_005:
@  #05 @000   ----------------------------------------
Label_01542A18:
 .byte   TEMPO , 210*Adversity_tbs/2
 .byte   KEYSH , Adversity_key+0
 .byte   VOICE , 40
 .byte   VOL , 53*Adversity_mvl/mxv
 .byte   PAN , c_v+16
 .byte   W96
@  #05 @001   ----------------------------------------
 .byte   W96
@  #05 @002   ----------------------------------------
 .byte   W96
@  #05 @003   ----------------------------------------
 .byte   W96
@  #05 @004   ----------------------------------------
 .byte   W96
@  #05 @005   ----------------------------------------
 .byte   W96
@  #05 @006   ----------------------------------------
 .byte   W96
@  #05 @007   ----------------------------------------
 .byte   W96
@  #05 @008   ----------------------------------------
 .byte   W96
@  #05 @009   ----------------------------------------
 .byte   W96
@  #05 @010   ----------------------------------------
 .byte   W96
@  #05 @011   ----------------------------------------
 .byte   W96
@  #05 @012   ----------------------------------------
 .byte   W96
@  #05 @013   ----------------------------------------
 .byte   W96
@  #05 @014   ----------------------------------------
 .byte   W96
@  #05 @015   ----------------------------------------
 .byte   N24 ,As2 ,v100
 .byte   W48
 .byte   N48 ,Gs2
 .byte   W48
@  #05 @016   ----------------------------------------
 .byte   N72 ,As2
 .byte   W96
@  #05 @017   ----------------------------------------
 .byte   W96
@  #05 @018   ----------------------------------------
 .byte   W96
@  #05 @019   ----------------------------------------
 .byte   W96
@  #05 @020   ----------------------------------------
 .byte   W96
@  #05 @021   ----------------------------------------
 .byte   W96
@  #05 @022   ----------------------------------------
 .byte   W72
 .byte   N12 ,Cn3
 .byte   W12
 .byte   Cs3
 .byte   W12
@  #05 @023   ----------------------------------------
 .byte   N72 ,Ds3
 .byte   W84
 .byte   N12 ,En3
 .byte   W12
@  #05 @024   ----------------------------------------
 .byte   N96 ,Ds3
 .byte   W96
@  #05 @025   ----------------------------------------
 .byte   Ds3
 .byte   W96
@  #05 @026   ----------------------------------------
 .byte   N48
 .byte   W48
 .byte   N96 ,Ds2
 .byte   W96
@  #05 @027   ----------------------------------------
 .byte   W96
@  #05 @028   ----------------------------------------
 .byte   W36
 .byte   N12 ,Cs3
 .byte   W12
 .byte   N96 ,Ds3
 .byte   W96
@  #05 @029   ----------------------------------------
 .byte   N24
 .byte   W48
 .byte   N96 ,Ds2
 .byte   W96
@  #05 @030   ----------------------------------------
 .byte   W96
@  #05 @031   ----------------------------------------
 .byte   W96
@  #05 @032   ----------------------------------------
 .byte   W84
 .byte   N24 ,Gs1 ,v088
 .byte   W60
@  #05 @033   ----------------------------------------
 .byte   Ds2
 .byte   W48
 .byte   N48 ,Gs2
 .byte   W96
@  #05 @034   ----------------------------------------
 .byte   W96
@  #05 @035   ----------------------------------------
 .byte   W96
@  #05 @036   ----------------------------------------
 .byte   Gs1
 .byte   W48
 .byte   N24 ,Ds2
 .byte   W48
@  #05 @037   ----------------------------------------
 .byte   N48 ,Gs2
 .byte   W48
 .byte   N96 ,Ds3
 .byte   W96
@  #05 @038   ----------------------------------------
 .byte   Cs3
 .byte   W96
@  #05 @039   ----------------------------------------
 .byte   N72
 .byte   W84
 .byte   N12 ,As2 ,v104
 .byte   W12
@  #05 @040   ----------------------------------------
 .byte   N48 ,Bn2 ,v088
 .byte   W48
 .byte   Cs3
 .byte   W48
@  #05 @041   ----------------------------------------
 .byte   N96 ,Ds3
 .byte   W96
@  #05 @042   ----------------------------------------
 .byte   N72
 .byte   W84
 .byte   N12 ,Cs3
 .byte   W12
@  #05 @043   ----------------------------------------
 .byte   N96 ,Ds3
 .byte   W96
@  #05 @044   ----------------------------------------
 .byte   N72
 .byte   W96
@  #05 @045   ----------------------------------------
 .byte   GOTO
  .word Label_01542A18
 .byte   FINE

@**************** Track 6 (Midi-Chn.5) ****************@

Adversity_006:
@  #06 @000   ----------------------------------------
Label_01542AA0:
 .byte   TEMPO , 210*Adversity_tbs/2
 .byte   KEYSH , Adversity_key+0
 .byte   VOICE , 57
 .byte   VOL , 23*Adversity_mvl/mxv
 .byte   PAN , c_v-16
 .byte   N12 ,Ds2 ,v100
 .byte   W24
 .byte   Ds2
 .byte   W24
 .byte   N24 ,En2
 .byte   W24
 .byte   N12
 .byte   W24
@  #06 @001   ----------------------------------------
Label_01542AB5:
 .byte   N12 ,Ds2 ,v100
 .byte   W24
 .byte   Ds2
 .byte   W24
 .byte   N24 ,En2
 .byte   W24
 .byte   N12
 .byte   W24
 .byte   PEND 
@  #06 @002   ----------------------------------------
 .byte   PATT
  .word Label_01542AB5
@  #06 @003   ----------------------------------------
 .byte   PATT
  .word Label_01542AB5
@  #06 @004   ----------------------------------------
 .byte   PATT
  .word Label_01542AB5
@  #06 @005   ----------------------------------------
 .byte   PATT
  .word Label_01542AB5
@  #06 @006   ----------------------------------------
 .byte   PATT
  .word Label_01542AB5
@  #06 @007   ----------------------------------------
 .byte   PATT
  .word Label_01542AB5
@  #06 @008   ----------------------------------------
 .byte   PATT
  .word Label_01542AB5
@  #06 @009   ----------------------------------------
 .byte   PATT
  .word Label_01542AB5
@  #06 @010   ----------------------------------------
 .byte   PATT
  .word Label_01542AB5
@  #06 @011   ----------------------------------------
 .byte   PATT
  .word Label_01542AB5
@  #06 @012   ----------------------------------------
Label_01542AF3:
 .byte   N12 ,Fs2 ,v100
 .byte   W24
 .byte   Fs2
 .byte   W24
 .byte   N24 ,En2
 .byte   W24
 .byte   N12
 .byte   W24
 .byte   PEND 
@  #06 @013   ----------------------------------------
 .byte   PATT
  .word Label_01542AF3
@  #06 @014   ----------------------------------------
 .byte   PATT
  .word Label_01542AF3
@  #06 @015   ----------------------------------------
 .byte   PATT
  .word Label_01542AF3
@  #06 @016   ----------------------------------------
 .byte   PATT
  .word Label_01542AB5
@  #06 @017   ----------------------------------------
 .byte   PATT
  .word Label_01542AB5
@  #06 @018   ----------------------------------------
 .byte   PATT
  .word Label_01542AB5
@  #06 @019   ----------------------------------------
 .byte   PATT
  .word Label_01542AB5
@  #06 @020   ----------------------------------------
 .byte   PATT
  .word Label_01542AB5
@  #06 @021   ----------------------------------------
 .byte   PATT
  .word Label_01542AB5
@  #06 @022   ----------------------------------------
 .byte   PATT
  .word Label_01542AB5
@  #06 @023   ----------------------------------------
 .byte   PATT
  .word Label_01542AB5
@  #06 @024   ----------------------------------------
 .byte   PATT
  .word Label_01542AB5
@  #06 @025   ----------------------------------------
 .byte   PATT
  .word Label_01542AB5
@  #06 @026   ----------------------------------------
 .byte   PATT
  .word Label_01542AB5
@  #06 @027   ----------------------------------------
 .byte   PATT
  .word Label_01542AB5
@  #06 @028   ----------------------------------------
 .byte   PATT
  .word Label_01542AB5
@  #06 @029   ----------------------------------------
 .byte   PATT
  .word Label_01542AB5
@  #06 @030   ----------------------------------------
 .byte   PATT
  .word Label_01542AB5
@  #06 @031   ----------------------------------------
 .byte   N12 ,Ds2 ,v100
 .byte   W24
 .byte   Ds2
 .byte   W24
 .byte   N24 ,En2
 .byte   W24
 .byte   N12
 .byte   W96
@  #06 @032   ----------------------------------------
 .byte   W96
@  #06 @033   ----------------------------------------
 .byte   W96
@  #06 @034   ----------------------------------------
 .byte   W96
@  #06 @035   ----------------------------------------
 .byte   W96
@  #06 @036   ----------------------------------------
 .byte   W96
@  #06 @037   ----------------------------------------
 .byte   W96
@  #06 @038   ----------------------------------------
 .byte   W96
@  #06 @039   ----------------------------------------
 .byte   W96
@  #06 @040   ----------------------------------------
 .byte   W96
@  #06 @041   ----------------------------------------
 .byte   W96
@  #06 @042   ----------------------------------------
 .byte   W96
@  #06 @043   ----------------------------------------
 .byte   W96
@  #06 @044   ----------------------------------------
 .byte   W96
@  #06 @045   ----------------------------------------
 .byte   W96
@  #06 @046   ----------------------------------------
 .byte   W96
@  #06 @047   ----------------------------------------
 .byte   W24
 .byte   GOTO
  .word Label_01542AA0
 .byte   FINE

@**************** Track 7 (Midi-Chn.6) ****************@

Adversity_007:
@  #07 @000   ----------------------------------------
Label_01542B7C:
 .byte   TEMPO , 210*Adversity_tbs/2
 .byte   KEYSH , Adversity_key+0
 .byte   VOICE , 41
 .byte   VOL , 50*Adversity_mvl/mxv
 .byte   PAN , c_v+16
 .byte   W96
@  #07 @001   ----------------------------------------
 .byte   W96
@  #07 @002   ----------------------------------------
 .byte   W96
@  #07 @003   ----------------------------------------
 .byte   W96
@  #07 @004   ----------------------------------------
 .byte   W96
@  #07 @005   ----------------------------------------
 .byte   W96
@  #07 @006   ----------------------------------------
 .byte   W96
@  #07 @007   ----------------------------------------
 .byte   W96
@  #07 @008   ----------------------------------------
 .byte   W96
@  #07 @009   ----------------------------------------
 .byte   W96
@  #07 @010   ----------------------------------------
 .byte   W96
@  #07 @011   ----------------------------------------
 .byte   W96
@  #07 @012   ----------------------------------------
 .byte   W96
@  #07 @013   ----------------------------------------
 .byte   W96
@  #07 @014   ----------------------------------------
 .byte   W96
@  #07 @015   ----------------------------------------
 .byte   N24 ,Ds3 ,v100
 .byte   W48
 .byte   N48 ,Cs3
 .byte   W48
@  #07 @016   ----------------------------------------
 .byte   N72 ,Ds3
 .byte   W96
@  #07 @017   ----------------------------------------
 .byte   W96
@  #07 @018   ----------------------------------------
 .byte   W96
@  #07 @019   ----------------------------------------
 .byte   W96
@  #07 @020   ----------------------------------------
 .byte   W96
@  #07 @021   ----------------------------------------
 .byte   W96
@  #07 @022   ----------------------------------------
 .byte   W72
 .byte   N12 ,En3
 .byte   W12
 .byte   Fs3
 .byte   W12
@  #07 @023   ----------------------------------------
 .byte   N72 ,Gs3
 .byte   W84
 .byte   N12 ,An3
 .byte   W12
@  #07 @024   ----------------------------------------
 .byte   N96 ,Gs3
 .byte   W96
@  #07 @025   ----------------------------------------
 .byte   Gs3
 .byte   W96
@  #07 @026   ----------------------------------------
 .byte   N48
 .byte   W48
 .byte   N96 ,Gs2
 .byte   W96
@  #07 @027   ----------------------------------------
 .byte   W96
@  #07 @028   ----------------------------------------
 .byte   W36
 .byte   N12 ,Fs3
 .byte   W12
 .byte   N96 ,Gs3
 .byte   W96
@  #07 @029   ----------------------------------------
 .byte   N24
 .byte   W48
 .byte   N96 ,Gs2
 .byte   W96
@  #07 @030   ----------------------------------------
 .byte   W96
@  #07 @031   ----------------------------------------
 .byte   W96
@  #07 @032   ----------------------------------------
 .byte   W84
 .byte   N24 ,Gs1 ,v088
 .byte   W60
@  #07 @033   ----------------------------------------
 .byte   Ds2
 .byte   W48
 .byte   N48 ,Gs2
 .byte   W96
@  #07 @034   ----------------------------------------
 .byte   W96
@  #07 @035   ----------------------------------------
 .byte   W96
@  #07 @036   ----------------------------------------
 .byte   Gs1
 .byte   W48
 .byte   N24 ,Ds2
 .byte   W48
@  #07 @037   ----------------------------------------
 .byte   N48 ,Gs2
 .byte   W48
 .byte   N96 ,Ds3
 .byte   W96
@  #07 @038   ----------------------------------------
 .byte   Cs3
 .byte   W96
@  #07 @039   ----------------------------------------
 .byte   N72
 .byte   W84
 .byte   N12 ,As2
 .byte   W12
@  #07 @040   ----------------------------------------
 .byte   N48 ,Bn2
 .byte   W48
 .byte   Cs3
 .byte   W48
@  #07 @041   ----------------------------------------
 .byte   N96 ,Ds3
 .byte   W96
@  #07 @042   ----------------------------------------
 .byte   N72
 .byte   W84
 .byte   N12 ,Cs3
 .byte   W12
@  #07 @043   ----------------------------------------
 .byte   N96 ,Ds3
 .byte   W96
@  #07 @044   ----------------------------------------
 .byte   N72
 .byte   W96
@  #07 @045   ----------------------------------------
 .byte   GOTO
  .word Label_01542B7C
 .byte   FINE

@**************** Track 8 (Midi-Chn.7) ****************@

Adversity_008:
@  #08 @000   ----------------------------------------
Label_01542C00:
 .byte   TEMPO , 210*Adversity_tbs/2
 .byte   KEYSH , Adversity_key+0
 .byte   VOICE , 40
 .byte   VOL , 8*Adversity_mvl/mxv
 .byte   PAN , c_v+3
 .byte   N96 ,Gs1 ,v100
 .byte   W96
@  #08 @001   ----------------------------------------
 .byte   Gs1
 .byte   W96
@  #08 @002   ----------------------------------------
 .byte   Gs1
 .byte   W96
@  #08 @003   ----------------------------------------
 .byte   Gs1
 .byte   W96
@  #08 @004   ----------------------------------------
 .byte   W96
@  #08 @005   ----------------------------------------
 .byte   W96
@  #08 @006   ----------------------------------------
 .byte   W96
@  #08 @007   ----------------------------------------
 .byte   W96
@  #08 @008   ----------------------------------------
 .byte   W96
@  #08 @009   ----------------------------------------
 .byte   W96
@  #08 @010   ----------------------------------------
 .byte   W96
@  #08 @011   ----------------------------------------
 .byte   W96
@  #08 @012   ----------------------------------------
 .byte   W96
@  #08 @013   ----------------------------------------
 .byte   W96
@  #08 @014   ----------------------------------------
 .byte   W96
@  #08 @015   ----------------------------------------
 .byte   W96
@  #08 @016   ----------------------------------------
 .byte   W96
@  #08 @017   ----------------------------------------
 .byte   W96
@  #08 @018   ----------------------------------------
 .byte   W96
@  #08 @019   ----------------------------------------
 .byte   W96
@  #08 @020   ----------------------------------------
 .byte   W96
@  #08 @021   ----------------------------------------
 .byte   W96
@  #08 @022   ----------------------------------------
 .byte   W96
@  #08 @023   ----------------------------------------
 .byte   W96
@  #08 @024   ----------------------------------------
 .byte   W96
@  #08 @025   ----------------------------------------
 .byte   W96
@  #08 @026   ----------------------------------------
 .byte   W96
@  #08 @027   ----------------------------------------
 .byte   W96
@  #08 @028   ----------------------------------------
 .byte   W96
@  #08 @029   ----------------------------------------
 .byte   W96
@  #08 @030   ----------------------------------------
 .byte   W96
@  #08 @031   ----------------------------------------
 .byte   W96
@  #08 @032   ----------------------------------------
 .byte   Gs1
 .byte   W96
@  #08 @033   ----------------------------------------
 .byte   Gs1
 .byte   W96
@  #08 @034   ----------------------------------------
 .byte   An1
 .byte   W96
@  #08 @035   ----------------------------------------
 .byte   An1
 .byte   W96
@  #08 @036   ----------------------------------------
 .byte   Gs1
 .byte   W96
@  #08 @037   ----------------------------------------
 .byte   Gs1
 .byte   W96
@  #08 @038   ----------------------------------------
 .byte   Fs1
 .byte   W96
@  #08 @039   ----------------------------------------
 .byte   Fs1
 .byte   W96
@  #08 @040   ----------------------------------------
 .byte   En1
 .byte   W96
@  #08 @041   ----------------------------------------
 .byte   En1
 .byte   W96
@  #08 @042   ----------------------------------------
 .byte   Ds1
 .byte   W96
@  #08 @043   ----------------------------------------
 .byte   Ds1
 .byte   W96
@  #08 @044   ----------------------------------------
 .byte   Gs1
 .byte   W96
@  #08 @045   ----------------------------------------
 .byte   Gs1
 .byte   W96
@  #08 @046   ----------------------------------------
 .byte   Gs1
 .byte   W96
@  #08 @047   ----------------------------------------
 .byte   N72
 .byte   W96
@  #08 @048   ----------------------------------------
 .byte   GOTO
  .word Label_01542C00
 .byte   FINE

@**************** Track 9 (Midi-Chn.8) ****************@

Adversity_009:
@  #09 @000   ----------------------------------------
Label_01542C58:
 .byte   TEMPO , 210*Adversity_tbs/2
 .byte   KEYSH , Adversity_key+0
 .byte   VOICE , 57
 .byte   VOL , 4*Adversity_mvl/mxv
 .byte   PAN , c_v-48
 .byte   N12 ,Gs2 ,v100
 .byte   W12
 .byte   Gs1
 .byte   W12
 .byte   Gs2
 .byte   W12
 .byte   Gs1
 .byte   W12
 .byte   Gs2
 .byte   W12
 .byte   Gs1
 .byte   W12
 .byte   Gs2
 .byte   W12
 .byte   Gs1
 .byte   W12
@  #09 @001   ----------------------------------------
Label_01542C74:
 .byte   N12 ,Gs2 ,v100
 .byte   W12
 .byte   Gs1
 .byte   W12
 .byte   Gs2
 .byte   W12
 .byte   Gs1
 .byte   W12
 .byte   Gs2
 .byte   W12
 .byte   Gs1
 .byte   W12
 .byte   Gs2
 .byte   W12
 .byte   Gs1
 .byte   W12
 .byte   PEND 
@  #09 @002   ----------------------------------------
 .byte   PATT
  .word Label_01542C74
@  #09 @003   ----------------------------------------
 .byte   PATT
  .word Label_01542C74
@  #09 @004   ----------------------------------------
 .byte   PATT
  .word Label_01542C74
@  #09 @005   ----------------------------------------
 .byte   PATT
  .word Label_01542C74
@  #09 @006   ----------------------------------------
 .byte   PATT
  .word Label_01542C74
@  #09 @007   ----------------------------------------
 .byte   PATT
  .word Label_01542C74
@  #09 @008   ----------------------------------------
 .byte   PATT
  .word Label_01542C74
@  #09 @009   ----------------------------------------
 .byte   PATT
  .word Label_01542C74
@  #09 @010   ----------------------------------------
 .byte   PATT
  .word Label_01542C74
@  #09 @011   ----------------------------------------
 .byte   PATT
  .word Label_01542C74
@  #09 @012   ----------------------------------------
Label_01542CB9:
 .byte   N12 ,An2 ,v100
 .byte   W12
 .byte   An1
 .byte   W12
 .byte   An2
 .byte   W12
 .byte   An1
 .byte   W12
 .byte   An2
 .byte   W12
 .byte   An1
 .byte   W12
 .byte   An2
 .byte   W12
 .byte   An1
 .byte   W12
 .byte   PEND 
@  #09 @013   ----------------------------------------
 .byte   PATT
  .word Label_01542CB9
@  #09 @014   ----------------------------------------
 .byte   PATT
  .word Label_01542CB9
@  #09 @015   ----------------------------------------
 .byte   PATT
  .word Label_01542CB9
@  #09 @016   ----------------------------------------
 .byte   PATT
  .word Label_01542C74
@  #09 @017   ----------------------------------------
 .byte   PATT
  .word Label_01542C74
@  #09 @018   ----------------------------------------
 .byte   PATT
  .word Label_01542C74
@  #09 @019   ----------------------------------------
 .byte   PATT
  .word Label_01542C74
@  #09 @020   ----------------------------------------
 .byte   PATT
  .word Label_01542C74
@  #09 @021   ----------------------------------------
 .byte   PATT
  .word Label_01542C74
@  #09 @022   ----------------------------------------
 .byte   PATT
  .word Label_01542C74
@  #09 @023   ----------------------------------------
 .byte   PATT
  .word Label_01542C74
@  #09 @024   ----------------------------------------
 .byte   PATT
  .word Label_01542C74
@  #09 @025   ----------------------------------------
 .byte   PATT
  .word Label_01542C74
@  #09 @026   ----------------------------------------
 .byte   PATT
  .word Label_01542C74
@  #09 @027   ----------------------------------------
 .byte   PATT
  .word Label_01542C74
@  #09 @028   ----------------------------------------
 .byte   PATT
  .word Label_01542C74
@  #09 @029   ----------------------------------------
 .byte   PATT
  .word Label_01542C74
@  #09 @030   ----------------------------------------
 .byte   PATT
  .word Label_01542C74
@  #09 @031   ----------------------------------------
 .byte   N12 ,Gs2 ,v100
 .byte   W12
 .byte   Gs1
 .byte   W12
 .byte   Gs2
 .byte   W12
 .byte   Gs1
 .byte   W12
 .byte   Gs2
 .byte   W12
 .byte   Gs1
 .byte   W12
 .byte   Gs2
 .byte   W12
 .byte   Gs1
 .byte   W96
@  #09 @032   ----------------------------------------
 .byte   W96
@  #09 @033   ----------------------------------------
 .byte   W96
@  #09 @034   ----------------------------------------
 .byte   W96
@  #09 @035   ----------------------------------------
 .byte   W96
@  #09 @036   ----------------------------------------
 .byte   W96
@  #09 @037   ----------------------------------------
 .byte   W96
@  #09 @038   ----------------------------------------
 .byte   W96
@  #09 @039   ----------------------------------------
 .byte   W96
@  #09 @040   ----------------------------------------
 .byte   W96
@  #09 @041   ----------------------------------------
 .byte   W96
@  #09 @042   ----------------------------------------
 .byte   W96
@  #09 @043   ----------------------------------------
 .byte   W96
@  #09 @044   ----------------------------------------
 .byte   W96
@  #09 @045   ----------------------------------------
 .byte   W96
@  #09 @046   ----------------------------------------
 .byte   W96
@  #09 @047   ----------------------------------------
 .byte   W12
 .byte   GOTO
  .word Label_01542C58
 .byte   FINE

@**************** Track 10 (Midi-Chn.9) ****************@

Adversity_010:
@  #10 @000   ----------------------------------------
Label_01542D50:
 .byte   TEMPO , 210*Adversity_tbs/2
 .byte   KEYSH , Adversity_key+0
 .byte   VOICE , 40
 .byte   VOL , 7*Adversity_mvl/mxv
 .byte   PAN , c_v+2
 .byte   N12 ,Gs2 ,v100
 .byte   W12
 .byte   As2
 .byte   W12
 .byte   Gs2
 .byte   W12
 .byte   As2
 .byte   W12
 .byte   Bn2
 .byte   W12
 .byte   Cs3
 .byte   W12
 .byte   Bn2
 .byte   W12
 .byte   As2
 .byte   W12
@  #10 @001   ----------------------------------------
Label_01542D6C:
 .byte   N12 ,Gs2 ,v100
 .byte   W12
 .byte   As2
 .byte   W12
 .byte   Gs2
 .byte   W12
 .byte   As2
 .byte   W12
 .byte   Bn2
 .byte   W12
 .byte   Cs3
 .byte   W12
 .byte   Bn2
 .byte   W12
 .byte   As2
 .byte   W12
 .byte   PEND 
@  #10 @002   ----------------------------------------
 .byte   PATT
  .word Label_01542D6C
@  #10 @003   ----------------------------------------
 .byte   PATT
  .word Label_01542D6C
@  #10 @004   ----------------------------------------
 .byte   PATT
  .word Label_01542D6C
@  #10 @005   ----------------------------------------
 .byte   PATT
  .word Label_01542D6C
@  #10 @006   ----------------------------------------
 .byte   PATT
  .word Label_01542D6C
@  #10 @007   ----------------------------------------
 .byte   PATT
  .word Label_01542D6C
@  #10 @008   ----------------------------------------
 .byte   PATT
  .word Label_01542D6C
@  #10 @009   ----------------------------------------
 .byte   PATT
  .word Label_01542D6C
@  #10 @010   ----------------------------------------
 .byte   PATT
  .word Label_01542D6C
@  #10 @011   ----------------------------------------
 .byte   N12 ,Gs2 ,v100
 .byte   W12
 .byte   As2
 .byte   W12
 .byte   Bn2
 .byte   W12
 .byte   Cs3
 .byte   W12
 .byte   Ds3
 .byte   W12
 .byte   En3
 .byte   W12
 .byte   Fs3
 .byte   W12
 .byte   Gs3
 .byte   W12
@  #10 @012   ----------------------------------------
Label_01542DBE:
 .byte   N12 ,As3 ,v100
 .byte   W12
 .byte   Gs3
 .byte   W12
 .byte   As3
 .byte   W12
 .byte   Gs3
 .byte   W12
 .byte   As3
 .byte   W12
 .byte   Gs3
 .byte   W12
 .byte   As3
 .byte   W12
 .byte   Gs3
 .byte   W12
 .byte   PEND 
@  #10 @013   ----------------------------------------
 .byte   PATT
  .word Label_01542DBE
@  #10 @014   ----------------------------------------
 .byte   PATT
  .word Label_01542DBE
@  #10 @015   ----------------------------------------
 .byte   N12 ,As3 ,v100
 .byte   W12
 .byte   Gs3
 .byte   W12
 .byte   As3
 .byte   W12
 .byte   Gs3
 .byte   W12
 .byte   As3
 .byte   W12
 .byte   Bn3
 .byte   W12
 .byte   Cs4
 .byte   W12
 .byte   Ds4
 .byte   W96
@  #10 @016   ----------------------------------------
 .byte   W96
@  #10 @017   ----------------------------------------
 .byte   W96
@  #10 @018   ----------------------------------------
 .byte   W96
@  #10 @019   ----------------------------------------
 .byte   W96
@  #10 @020   ----------------------------------------
 .byte   W96
@  #10 @021   ----------------------------------------
 .byte   W96
@  #10 @022   ----------------------------------------
 .byte   W96
@  #10 @023   ----------------------------------------
 .byte   W96
@  #10 @024   ----------------------------------------
 .byte   W96
@  #10 @025   ----------------------------------------
 .byte   W96
@  #10 @026   ----------------------------------------
 .byte   W96
@  #10 @027   ----------------------------------------
 .byte   W96
@  #10 @028   ----------------------------------------
 .byte   W96
@  #10 @029   ----------------------------------------
 .byte   W96
@  #10 @030   ----------------------------------------
 .byte   W96
@  #10 @031   ----------------------------------------
 .byte   W96
@  #10 @032   ----------------------------------------
 .byte   W96
@  #10 @033   ----------------------------------------
 .byte   W96
@  #10 @034   ----------------------------------------
 .byte   W96
@  #10 @035   ----------------------------------------
 .byte   W96
@  #10 @036   ----------------------------------------
 .byte   W96
@  #10 @037   ----------------------------------------
 .byte   W96
@  #10 @038   ----------------------------------------
 .byte   W96
@  #10 @039   ----------------------------------------
 .byte   W96
@  #10 @040   ----------------------------------------
 .byte   W96
@  #10 @041   ----------------------------------------
 .byte   W96
@  #10 @042   ----------------------------------------
 .byte   W96
@  #10 @043   ----------------------------------------
 .byte   W96
@  #10 @044   ----------------------------------------
 .byte   W96
@  #10 @045   ----------------------------------------
 .byte   W96
@  #10 @046   ----------------------------------------
 .byte   W96
@  #10 @047   ----------------------------------------
 .byte   W12
 .byte   GOTO
  .word Label_01542D50
 .byte   FINE

@**************** Track 11 (Midi-Chn.10) ****************@

Adversity_011:
@  #11 @000   ----------------------------------------
Label_01542E14:
 .byte   TEMPO , 210*Adversity_tbs/2
 .byte   KEYSH , Adversity_key+0
 .byte   VOICE , 109
 .byte   VOL , 26*Adversity_mvl/mxv
 .byte   W96
@  #11 @001   ----------------------------------------
 .byte   W96
@  #11 @002   ----------------------------------------
 .byte   W96
@  #11 @003   ----------------------------------------
 .byte   W72
Label_01542E20:
 .byte   N06 ,Cs4 ,v100
 .byte   W12
 .byte   N12 ,Gs4
 .byte   W12
@  #11 @004   ----------------------------------------
 .byte   N72 ,As4
 .byte   W72
 .byte   PEND 
Label_01542E2B:
 .byte   N06 ,Gs4 ,v100
 .byte   W12
 .byte   N12 ,As4
 .byte   W12
@  #11 @005   ----------------------------------------
 .byte   N72 ,Bn4
 .byte   W72
 .byte   PEND 
Label_01542E36:
 .byte   N06 ,As4 ,v100
 .byte   W12
 .byte   N12 ,Bn4
 .byte   W12
@  #11 @006   ----------------------------------------
 .byte   N72 ,Cs5
 .byte   W72
 .byte   PEND 
 .byte   N06 ,Bn4 ,v100
 .byte   W12
 .byte   N12 ,As4
 .byte   W12
@  #11 @007   ----------------------------------------
 .byte   N72 ,Bn4
 .byte   W72
@  #11 @008   ----------------------------------------
 .byte   PATT
  .word Label_01542E20
@  #11 @009   ----------------------------------------
 .byte   PATT
  .word Label_01542E2B
@  #11 @010   ----------------------------------------
 .byte   PATT
  .word Label_01542E36
@  #11 @011   ----------------------------------------
 .byte   N06 ,Bn4 ,v100
 .byte   W12
 .byte   N12 ,Cs5
 .byte   W12
 .byte   N72 ,Ds5
 .byte   W84
@  #11 @012   ----------------------------------------
 .byte   N12 ,Fs5
 .byte   W12
 .byte   N96 ,Fn5
 .byte   W96
@  #11 @013   ----------------------------------------
 .byte   Fn5
 .byte   W96
@  #11 @014   ----------------------------------------
 .byte   Fn5
 .byte   W96
@  #11 @015   ----------------------------------------
 .byte   Fn5
 .byte   W96
@  #11 @016   ----------------------------------------
 .byte   W96
@  #11 @017   ----------------------------------------
 .byte   W96
@  #11 @018   ----------------------------------------
 .byte   W96
@  #11 @019   ----------------------------------------
 .byte   W96
@  #11 @020   ----------------------------------------
 .byte   W96
@  #11 @021   ----------------------------------------
 .byte   W96
@  #11 @022   ----------------------------------------
 .byte   W96
@  #11 @023   ----------------------------------------
 .byte   W96
@  #11 @024   ----------------------------------------
 .byte   W96
@  #11 @025   ----------------------------------------
 .byte   W96
@  #11 @026   ----------------------------------------
 .byte   W96
@  #11 @027   ----------------------------------------
 .byte   W96
@  #11 @028   ----------------------------------------
 .byte   W96
@  #11 @029   ----------------------------------------
 .byte   W96
@  #11 @030   ----------------------------------------
 .byte   W96
@  #11 @031   ----------------------------------------
 .byte   W96
@  #11 @032   ----------------------------------------
Label_01542E80:
 .byte   N12 ,Gs2 ,v100
 .byte   W12
 .byte   Gs4
 .byte   W12
 .byte   Gs2
 .byte   W12
 .byte   Gs4
 .byte   W12
 .byte   Gs2
 .byte   W12
 .byte   Gs4
 .byte   W12
 .byte   Gs2
 .byte   W12
 .byte   Gs4
 .byte   W12
 .byte   PEND 
@  #11 @033   ----------------------------------------
 .byte   PATT
  .word Label_01542E80
@  #11 @034   ----------------------------------------
 .byte   PATT
  .word Label_01542E80
@  #11 @035   ----------------------------------------
 .byte   PATT
  .word Label_01542E80
@  #11 @036   ----------------------------------------
 .byte   PATT
  .word Label_01542E80
@  #11 @037   ----------------------------------------
 .byte   PATT
  .word Label_01542E80
@  #11 @038   ----------------------------------------
 .byte   PATT
  .word Label_01542E80
@  #11 @039   ----------------------------------------
 .byte   PATT
  .word Label_01542E80
@  #11 @040   ----------------------------------------
 .byte   PATT
  .word Label_01542E80
@  #11 @041   ----------------------------------------
 .byte   PATT
  .word Label_01542E80
@  #11 @042   ----------------------------------------
 .byte   PATT
  .word Label_01542E80
@  #11 @043   ----------------------------------------
 .byte   PATT
  .word Label_01542E80
@  #11 @044   ----------------------------------------
 .byte   PATT
  .word Label_01542E80
@  #11 @045   ----------------------------------------
 .byte   PATT
  .word Label_01542E80
@  #11 @046   ----------------------------------------
 .byte   PATT
  .word Label_01542E80
@  #11 @047   ----------------------------------------
 .byte   PATT
  .word Label_01542E80
@  #11 @048   ----------------------------------------
 .byte   GOTO
  .word Label_01542E14
 .byte   FINE

@**************** Track 12 (Midi-Chn.11) ****************@

Adversity_012:
@  #12 @000   ----------------------------------------
Label_01542EE4:
 .byte   TEMPO , 210*Adversity_tbs/2
 .byte   KEYSH , Adversity_key+0
 .byte   VOICE , 47
 .byte   VOL , 92*Adversity_mvl/mxv
 .byte   N24 ,Cn3 ,v100
 .byte   W72
 .byte   N12
 .byte   W12
 .byte   Cn3
 .byte   W12
@  #12 @001   ----------------------------------------
Label_01542EF4:
 .byte   N24 ,Cn3 ,v100
 .byte   W24
 .byte   Cn3
 .byte   W96
@  #12 @002   ----------------------------------------
 .byte   W48
 .byte   PEND 
Label_01542EFC:
 .byte   N24 ,Cn3 ,v100
 .byte   W24
 .byte   Cn3
 .byte   W24
@  #12 @003   ----------------------------------------
 .byte   Cn3
 .byte   W72
 .byte   PEND 
Label_01542F05:
 .byte   N24 ,Cn3 ,v100
 .byte   W72
@  #12 @004   ----------------------------------------
 .byte   N12
 .byte   W12
 .byte   Cn3
 .byte   W12
 .byte   PEND 
@  #12 @005   ----------------------------------------
 .byte   PATT
  .word Label_01542EF4
@  #12 @006   ----------------------------------------
 .byte   PATT
  .word Label_01542EFC
@  #12 @007   ----------------------------------------
 .byte   PATT
  .word Label_01542F05
@  #12 @008   ----------------------------------------
 .byte   PATT
  .word Label_01542EF4
@  #12 @009   ----------------------------------------
 .byte   PATT
  .word Label_01542EFC
@  #12 @010   ----------------------------------------
 .byte   PATT
  .word Label_01542F05
@  #12 @011   ----------------------------------------
 .byte   PATT
  .word Label_01542EF4
@  #12 @012   ----------------------------------------
Label_01542F31:
 .byte   N24 ,Cn3 ,v100
 .byte   W24
 .byte   N12 ,Cn3 ,v092
 .byte   W12
 .byte   As2
 .byte   W12
 .byte   Cn3 ,v080
 .byte   W12
 .byte   N24 ,As2 ,v072
 .byte   W24
 .byte   N12 ,Cn3 ,v080
 .byte   W12
 .byte   PEND 
@  #12 @013   ----------------------------------------
Label_01542F47:
 .byte   N12 ,Cn3 ,v092
 .byte   W12
 .byte   Cn3 ,v100
 .byte   W12
 .byte   N24
 .byte   W72
 .byte   PEND 
@  #12 @014   ----------------------------------------
Label_01542F51:
 .byte   N12 ,Cn3 ,v100
 .byte   W12
 .byte   Cn3
 .byte   W12
 .byte   N24
 .byte   W24
 .byte   Cn3
 .byte   W96
@  #12 @015   ----------------------------------------
 .byte   W48
 .byte   PEND 
@  #12 @016   ----------------------------------------
 .byte   PATT
  .word Label_01542EFC
@  #12 @017   ----------------------------------------
 .byte   PATT
  .word Label_01542F05
@  #12 @018   ----------------------------------------
 .byte   PATT
  .word Label_01542EF4
@  #12 @019   ----------------------------------------
 .byte   PATT
  .word Label_01542EFC
@  #12 @020   ----------------------------------------
 .byte   PATT
  .word Label_01542F05
@  #12 @021   ----------------------------------------
 .byte   PATT
  .word Label_01542EF4
@  #12 @022   ----------------------------------------
 .byte   PATT
  .word Label_01542EFC
@  #12 @023   ----------------------------------------
 .byte   PATT
  .word Label_01542F05
@  #12 @024   ----------------------------------------
 .byte   PATT
  .word Label_01542EF4
@  #12 @025   ----------------------------------------
 .byte   N24 ,Cn3 ,v100
 .byte   W24
 .byte   N12
 .byte   W12
 .byte   As2 ,v092
 .byte   W12
 .byte   Cn3 ,v080
 .byte   W12
 .byte   N24 ,As2 ,v072
 .byte   W24
 .byte   N12 ,Cn3 ,v080
 .byte   W12
@  #12 @026   ----------------------------------------
 .byte   PATT
  .word Label_01542F47
@  #12 @027   ----------------------------------------
 .byte   PATT
  .word Label_01542F51
@  #12 @028   ----------------------------------------
 .byte   PATT
  .word Label_01542EFC
@  #12 @029   ----------------------------------------
 .byte   PATT
  .word Label_01542F05
@  #12 @030   ----------------------------------------
 .byte   PATT
  .word Label_01542EF4
@  #12 @031   ----------------------------------------
 .byte   PATT
  .word Label_01542EFC
@  #12 @032   ----------------------------------------
 .byte   PATT
  .word Label_01542F05
@  #12 @033   ----------------------------------------
 .byte   PATT
  .word Label_01542EF4
@  #12 @034   ----------------------------------------
 .byte   PATT
  .word Label_01542EFC
@  #12 @035   ----------------------------------------
 .byte   PATT
  .word Label_01542F05
@  #12 @036   ----------------------------------------
 .byte   PATT
  .word Label_01542EF4
@  #12 @037   ----------------------------------------
 .byte   PATT
  .word Label_01542F31
@  #12 @038   ----------------------------------------
 .byte   N12 ,Cn3 ,v092
 .byte   W12
 .byte   Cn3 ,v100
 .byte   W12
 .byte   GOTO
  .word Label_01542EE4
 .byte   FINE

@**************** Track 13 (Midi-Chn.12) ****************@

Adversity_013:
@  #13 @000   ----------------------------------------
Label_01542FE8:
 .byte   TEMPO , 210*Adversity_tbs/2
 .byte   KEYSH , Adversity_key+0
 .byte   VOICE , 127
 .byte   VOL , 41*Adversity_mvl/mxv
 .byte   N24 ,Dn1 ,v100
 .byte   W72
 .byte   N12
 .byte   W12
 .byte   Dn1
 .byte   W12
@  #13 @001   ----------------------------------------
Label_01542FF8:
 .byte   N24 ,Dn1 ,v100
 .byte   W24
 .byte   Dn1
 .byte   W96
@  #13 @002   ----------------------------------------
 .byte   W48
 .byte   PEND 
Label_01543000:
 .byte   N24 ,Dn1 ,v100
 .byte   W24
 .byte   Dn1
 .byte   W24
@  #13 @003   ----------------------------------------
 .byte   Dn1
 .byte   W72
 .byte   PEND 
Label_01543009:
 .byte   N24 ,Dn1 ,v100
 .byte   W72
@  #13 @004   ----------------------------------------
 .byte   N12
 .byte   W12
 .byte   Dn1
 .byte   W12
 .byte   PEND 
@  #13 @005   ----------------------------------------
 .byte   PATT
  .word Label_01542FF8
@  #13 @006   ----------------------------------------
 .byte   PATT
  .word Label_01543000
@  #13 @007   ----------------------------------------
 .byte   PATT
  .word Label_01543009
@  #13 @008   ----------------------------------------
 .byte   PATT
  .word Label_01542FF8
@  #13 @009   ----------------------------------------
 .byte   PATT
  .word Label_01543000
@  #13 @010   ----------------------------------------
 .byte   PATT
  .word Label_01543009
@  #13 @011   ----------------------------------------
 .byte   PATT
  .word Label_01542FF8
@  #13 @012   ----------------------------------------
Label_01543035:
 .byte   N24 ,Dn1 ,v100
 .byte   W24
 .byte   N12 ,Dn1 ,v092
 .byte   W12
 .byte   Dn1
 .byte   W12
 .byte   Dn1 ,v080
 .byte   W12
 .byte   N24 ,Dn1 ,v072
 .byte   W24
 .byte   N12 ,Dn1 ,v080
 .byte   W12
 .byte   PEND 
@  #13 @013   ----------------------------------------
Label_0154304B:
 .byte   N12 ,Dn1 ,v092
 .byte   W12
 .byte   Dn1 ,v100
 .byte   W12
 .byte   N24
 .byte   W72
 .byte   PEND 
@  #13 @014   ----------------------------------------
Label_01543055:
 .byte   N12 ,Dn1 ,v100
 .byte   W12
 .byte   Dn1
 .byte   W12
 .byte   N24
 .byte   W24
 .byte   Dn1
 .byte   W96
@  #13 @015   ----------------------------------------
 .byte   W48
 .byte   PEND 
@  #13 @016   ----------------------------------------
 .byte   PATT
  .word Label_01543000
@  #13 @017   ----------------------------------------
 .byte   PATT
  .word Label_01543009
@  #13 @018   ----------------------------------------
 .byte   PATT
  .word Label_01542FF8
@  #13 @019   ----------------------------------------
 .byte   PATT
  .word Label_01543000
@  #13 @020   ----------------------------------------
 .byte   PATT
  .word Label_01543009
@  #13 @021   ----------------------------------------
 .byte   PATT
  .word Label_01542FF8
@  #13 @022   ----------------------------------------
 .byte   PATT
  .word Label_01543000
@  #13 @023   ----------------------------------------
 .byte   PATT
  .word Label_01543009
@  #13 @024   ----------------------------------------
 .byte   PATT
  .word Label_01542FF8
@  #13 @025   ----------------------------------------
 .byte   N24 ,Dn1 ,v100
 .byte   W24
 .byte   N12
 .byte   W12
 .byte   Dn1 ,v092
 .byte   W12
 .byte   Dn1 ,v080
 .byte   W12
 .byte   N24 ,Dn1 ,v072
 .byte   W24
 .byte   N12 ,Dn1 ,v080
 .byte   W12
@  #13 @026   ----------------------------------------
 .byte   PATT
  .word Label_0154304B
@  #13 @027   ----------------------------------------
 .byte   PATT
  .word Label_01543055
@  #13 @028   ----------------------------------------
 .byte   PATT
  .word Label_01543000
@  #13 @029   ----------------------------------------
 .byte   PATT
  .word Label_01543009
@  #13 @030   ----------------------------------------
 .byte   PATT
  .word Label_01542FF8
@  #13 @031   ----------------------------------------
 .byte   PATT
  .word Label_01543000
@  #13 @032   ----------------------------------------
 .byte   PATT
  .word Label_01543009
@  #13 @033   ----------------------------------------
 .byte   PATT
  .word Label_01542FF8
@  #13 @034   ----------------------------------------
 .byte   PATT
  .word Label_01543000
@  #13 @035   ----------------------------------------
 .byte   PATT
  .word Label_01543009
@  #13 @036   ----------------------------------------
 .byte   PATT
  .word Label_01542FF8
@  #13 @037   ----------------------------------------
 .byte   PATT
  .word Label_01543035
@  #13 @038   ----------------------------------------
 .byte   N12 ,Dn1 ,v092
 .byte   W12
 .byte   Dn1 ,v100
 .byte   W12
 .byte   GOTO
  .word Label_01542FE8
 .byte   FINE

@******************************************************@
	.align	2

Adversity:
	.byte	13	@ NumTrks
	.byte	0	@ NumBlks
	.byte	Adversity_pri	@ Priority
	.byte	Adversity_rev	@ Reverb.
    
	.word	Adversity_grp
    
	.word	Adversity_001
	.word	Adversity_002
	.word	Adversity_003
	.word	Adversity_004
	.word	Adversity_005
	.word	Adversity_006
	.word	Adversity_007
	.word	Adversity_008
	.word	Adversity_009
	.word	Adversity_010
	.word	Adversity_011
	.word	Adversity_012
	.word	Adversity_013

	.end
