//Event file generated from Sappy .s format.
	

	#define	Adversity_grp  voicegroup000
	#define	Adversity_pri  10
	#define	Adversity_rev  0
	#define	Adversity_mvl  127
	#define	Adversity_key  0
	#define	Adversity_tbs  1
	#define	Adversity_exg  0
	#define	Adversity_cmp  1

	// .rodata
	//	Adversity
	ALIGN 4


//**************** Track 1 (Midi-Chn.0) ****************//

Adversity_001:
//  #01 //000   ----------------------------------------
Label_01542814:
 BYTE   TEMPO   210*Adversity_tbs/2
 BYTE   KEYSH   Adversity_key+0
 BYTE   VOICE   57
 BYTE   VOL   50*Adversity_mvl/mxv
 BYTE   N12  Gs2  v088
 BYTE   W12
 BYTE   As2
 BYTE   W12
 BYTE   Gs2
 BYTE   W12
 BYTE   As2
 BYTE   W12
 BYTE   Bn2
 BYTE   W12
 BYTE   Cs3
 BYTE   W12
 BYTE   Bn2
 BYTE   W12
 BYTE   As2
 BYTE   W12
//  #01 //001   ----------------------------------------
Label_0154282E:
 BYTE   N12  Gs2  v088
 BYTE   W12
 BYTE   As2
 BYTE   W12
 BYTE   Gs2
 BYTE   W12
 BYTE   As2
 BYTE   W12
 BYTE   Bn2
 BYTE   W12
 BYTE   Cs3
 BYTE   W12
 BYTE   Bn2
 BYTE   W12
 BYTE   As2
 BYTE   W12
 BYTE   PEND 
//  #01 //002   ----------------------------------------
 BYTE   PATT
  POIN2 Label_0154282E
//  #01 //003   ----------------------------------------
 BYTE   PATT
  POIN2 Label_0154282E
//  #01 //004   ----------------------------------------
 BYTE   PATT
  POIN2 Label_0154282E
//  #01 //005   ----------------------------------------
 BYTE   PATT
  POIN2 Label_0154282E
//  #01 //006   ----------------------------------------
 BYTE   PATT
  POIN2 Label_0154282E
//  #01 //007   ----------------------------------------
 BYTE   PATT
  POIN2 Label_0154282E
//  #01 //008   ----------------------------------------
 BYTE   PATT
  POIN2 Label_0154282E
//  #01 //009   ----------------------------------------
 BYTE   PATT
  POIN2 Label_0154282E
//  #01 //010   ----------------------------------------
 BYTE   PATT
  POIN2 Label_0154282E
//  #01 //011   ----------------------------------------
 BYTE   N12  Gs2  v088
 BYTE   W12
 BYTE   As2
 BYTE   W12
 BYTE   Bn2
 BYTE   W12
 BYTE   Cs3
 BYTE   W12
 BYTE   Ds3
 BYTE   W12
 BYTE   En3
 BYTE   W12
 BYTE   Fs3
 BYTE   W12
 BYTE   Gs3
 BYTE   W12
//  #01 //012   ----------------------------------------
Label_01542880:
 BYTE   N12  As3  v088
 BYTE   W12
 BYTE   Gs3
 BYTE   W12
 BYTE   As3
 BYTE   W12
 BYTE   Gs3
 BYTE   W12
 BYTE   As3
 BYTE   W12
 BYTE   Gs3
 BYTE   W12
 BYTE   As3
 BYTE   W12
 BYTE   Gs3
 BYTE   W12
 BYTE   PEND 
//  #01 //013   ----------------------------------------
 BYTE   PATT
  POIN2 Label_01542880
//  #01 //014   ----------------------------------------
 BYTE   PATT
  POIN2 Label_01542880
//  #01 //015   ----------------------------------------
 BYTE   N12  As3  v088
 BYTE   W12
 BYTE   Gs3
 BYTE   W12
 BYTE   As3
 BYTE   W12
 BYTE   Gs3
 BYTE   W12
 BYTE   As3
 BYTE   W12
 BYTE   Bn3
 BYTE   W12
 BYTE   Cs4
 BYTE   W12
 BYTE   Ds4
 BYTE   W96
//  #01 //016   ----------------------------------------
 BYTE   W96
//  #01 //017   ----------------------------------------
 BYTE   W96
//  #01 //018   ----------------------------------------
 BYTE   W96
//  #01 //019   ----------------------------------------
 BYTE   W96
//  #01 //020   ----------------------------------------
 BYTE   W96
//  #01 //021   ----------------------------------------
 BYTE   W96
//  #01 //022   ----------------------------------------
 BYTE   W96
//  #01 //023   ----------------------------------------
 BYTE   W96
//  #01 //024   ----------------------------------------
 BYTE   W96
//  #01 //025   ----------------------------------------
 BYTE   W96
//  #01 //026   ----------------------------------------
 BYTE   W96
//  #01 //027   ----------------------------------------
 BYTE   W96
//  #01 //028   ----------------------------------------
 BYTE   W96
//  #01 //029   ----------------------------------------
 BYTE   W96
//  #01 //030   ----------------------------------------
 BYTE   W96
//  #01 //031   ----------------------------------------
 BYTE   W12
 BYTE   N96  Ds3  v100
 BYTE   W96
//  #01 //032   ----------------------------------------
 BYTE   Cs3
 BYTE   W96
//  #01 //033   ----------------------------------------
 BYTE   Ds3
 BYTE   W96
//  #01 //034   ----------------------------------------
 BYTE   N72
 BYTE   W96
//  #01 //035   ----------------------------------------
 BYTE   N96
 BYTE   W96
//  #01 //036   ----------------------------------------
 BYTE   N48  En3
 BYTE   W48
 BYTE   Fs3
 BYTE   W48
//  #01 //037   ----------------------------------------
 BYTE   N96  Ds3
 BYTE   W96
//  #01 //038   ----------------------------------------
 BYTE   N48
 BYTE   W48
 BYTE   N24
 BYTE   W48
//  #01 //039   ----------------------------------------
 BYTE   N72
 BYTE   W72
 BYTE   N06  Cs3
 BYTE   W12
 BYTE   N12  Cn3
 BYTE   W12
//  #01 //040   ----------------------------------------
 BYTE   N48  Cs3
 BYTE   W48
 BYTE   Gs3
 BYTE   W48
//  #01 //041   ----------------------------------------
 BYTE   Gs3
 BYTE   W48
 BYTE   Fn3
 BYTE   W48
//  #01 //042   ----------------------------------------
 BYTE   Fs3
 BYTE   W48
 BYTE   Ds3
 BYTE   W48
//  #01 //043   ----------------------------------------
 BYTE   N96
 BYTE   W96
//  #01 //044   ----------------------------------------
 BYTE   Ds3
 BYTE   W96
//  #01 //045   ----------------------------------------
 BYTE   Ds3
 BYTE   W96
//  #01 //046   ----------------------------------------
 BYTE   N72
 BYTE   W96
//  #01 //047   ----------------------------------------
 BYTE   GoTo
  POIN2 Label_01542814
 BYTE   FINE

//**************** Track 2 (Midi-Chn.1) ****************//

Adversity_002:
//  #02 //000   ----------------------------------------
Label_015428FC:
 BYTE   TEMPO   210*Adversity_tbs/2
 BYTE   KEYSH   Adversity_key+0
 BYTE   VOICE   40
 BYTE   VOL   43*Adversity_mvl/mxv
 BYTE   W96
//  #02 //001   ----------------------------------------
 BYTE   W96
//  #02 //002   ----------------------------------------
 BYTE   W96
//  #02 //003   ----------------------------------------
 BYTE   W96
//  #02 //004   ----------------------------------------
 BYTE   W96
//  #02 //005   ----------------------------------------
 BYTE   W96
//  #02 //006   ----------------------------------------
 BYTE   W96
//  #02 //007   ----------------------------------------
 BYTE   W96
//  #02 //008   ----------------------------------------
 BYTE   W96
//  #02 //009   ----------------------------------------
 BYTE   W96
//  #02 //010   ----------------------------------------
 BYTE   W96
//  #02 //011   ----------------------------------------
 BYTE   W96
//  #02 //012   ----------------------------------------
 BYTE   W96
//  #02 //013   ----------------------------------------
 BYTE   W96
//  #02 //014   ----------------------------------------
 BYTE   W96
//  #02 //015   ----------------------------------------
 BYTE   W96
//  #02 //016   ----------------------------------------
 BYTE   N96  Ds3  v100
 BYTE   W96
//  #02 //017   ----------------------------------------
 BYTE   En3
 BYTE   W96
//  #02 //018   ----------------------------------------
 BYTE   Ds3
 BYTE   W96
//  #02 //019   ----------------------------------------
 BYTE   En3
 BYTE   W96
//  #02 //020   ----------------------------------------
 BYTE   Fs3
 BYTE   W96
//  #02 //021   ----------------------------------------
 BYTE   N72
 BYTE   W72
 BYTE   N06
 BYTE   W12
 BYTE   N12  Gs3
 BYTE   W12
//  #02 //022   ----------------------------------------
 BYTE   N96  An3
 BYTE   W96
//  #02 //023   ----------------------------------------
 BYTE   N72
 BYTE   W84
 BYTE   N12  Bn3
 BYTE   W12
//  #02 //024   ----------------------------------------
 BYTE   N96  Cs4
 BYTE   W96
//  #02 //025   ----------------------------------------
 BYTE   Ds3
 BYTE   W96
//  #02 //026   ----------------------------------------
 BYTE   Ds3
 BYTE   W96
//  #02 //027   ----------------------------------------
 BYTE   N72
 BYTE   W84
 BYTE   N12  Cs3
 BYTE   W12
//  #02 //028   ----------------------------------------
 BYTE   N96  Ds3
 BYTE   W96
//  #02 //029   ----------------------------------------
 BYTE   Ds3
 BYTE   W96
//  #02 //030   ----------------------------------------
 BYTE   Ds3
 BYTE   W96
//  #02 //031   ----------------------------------------
 BYTE   N48
 BYTE   W96
//  #02 //032   ----------------------------------------
 BYTE   N96  Fs2
 BYTE   W96
//  #02 //033   ----------------------------------------
 BYTE   N24
 BYTE   W48
 BYTE   N48  Gs2
 BYTE   W48
//  #02 //034   ----------------------------------------
 BYTE   N96  Fs2
 BYTE   W96
//  #02 //035   ----------------------------------------
 BYTE   N72
 BYTE   W96
//  #02 //036   ----------------------------------------
 BYTE   N96
 BYTE   W96
//  #02 //037   ----------------------------------------
 BYTE   Fs2
 BYTE   W96
//  #02 //038   ----------------------------------------
 BYTE   An2
 BYTE   W96
//  #02 //039   ----------------------------------------
 BYTE   N24
 BYTE   W48
 BYTE   N48
 BYTE   W48
//  #02 //040   ----------------------------------------
 BYTE   N96  Gs2
 BYTE   W96
//  #02 //041   ----------------------------------------
 BYTE   N72
 BYTE   W96
//  #02 //042   ----------------------------------------
 BYTE   N96  Bn2
 BYTE   W96
//  #02 //043   ----------------------------------------
 BYTE   N72
 BYTE   W96
//  #02 //044   ----------------------------------------
 BYTE   N96  Fs2
 BYTE   W96
//  #02 //045   ----------------------------------------
 BYTE   Fs2
 BYTE   W96
//  #02 //046   ----------------------------------------
 BYTE   Fs2
 BYTE   W96
//  #02 //047   ----------------------------------------
 BYTE   N72
 BYTE   W96
//  #02 //048   ----------------------------------------
 BYTE   GoTo
  POIN2 Label_015428FC
 BYTE   FINE

//**************** Track 3 (Midi-Chn.2) ****************//

Adversity_003:
//  #03 //000   ----------------------------------------
Label_01542974:
 BYTE   TEMPO   210*Adversity_tbs/2
 BYTE   KEYSH   Adversity_key+0
 BYTE   VOICE   110
 BYTE   VOL   42*Adversity_mvl/mxv
 BYTE   W96
//  #03 //001   ----------------------------------------
 BYTE   W96
//  #03 //002   ----------------------------------------
 BYTE   W96
//  #03 //003   ----------------------------------------
 BYTE   W72
Label_01542980:
 BYTE   N06  Cs4  v100
 BYTE   W12
 BYTE   N12  Gs4
 BYTE   W12
//  #03 //004   ----------------------------------------
 BYTE   N72  As4
 BYTE   W72
 BYTE   PEND 
Label_0154298B:
 BYTE   N06  Gs4  v100
 BYTE   W12
 BYTE   N12  As4
 BYTE   W12
//  #03 //005   ----------------------------------------
 BYTE   N72  Bn4
 BYTE   W72
 BYTE   PEND 
Label_01542996:
 BYTE   N06  As4  v100
 BYTE   W12
 BYTE   N12  Bn4
 BYTE   W12
//  #03 //006   ----------------------------------------
 BYTE   N72  Cs5
 BYTE   W72
 BYTE   PEND 
 BYTE   N06  Bn4  v100
 BYTE   W12
 BYTE   N12  As4
 BYTE   W12
//  #03 //007   ----------------------------------------
 BYTE   N72  Bn4
 BYTE   W72
//  #03 //008   ----------------------------------------
 BYTE   PATT
  POIN2 Label_01542980
//  #03 //009   ----------------------------------------
 BYTE   PATT
  POIN2 Label_0154298B
//  #03 //010   ----------------------------------------
 BYTE   PATT
  POIN2 Label_01542996
//  #03 //011   ----------------------------------------
 BYTE   N06  Bn4  v100
 BYTE   W12
 BYTE   N12  Cs5
 BYTE   W12
 BYTE   N72  Ds5
 BYTE   W84
//  #03 //012   ----------------------------------------
 BYTE   N12  Fs5
 BYTE   W12
 BYTE   N96  Fn5
 BYTE   W96
//  #03 //013   ----------------------------------------
 BYTE   Fn5
 BYTE   W96
//  #03 //014   ----------------------------------------
 BYTE   Fn5
 BYTE   W96
//  #03 //015   ----------------------------------------
 BYTE   Fn5
 BYTE   W96
//  #03 //016   ----------------------------------------
 BYTE   As3  v112
 BYTE   W96
//  #03 //017   ----------------------------------------
 BYTE   Gs3
 BYTE   W96
//  #03 //018   ----------------------------------------
 BYTE   Bn3
 BYTE   W96
//  #03 //019   ----------------------------------------
 BYTE   As3
 BYTE   W96
//  #03 //020   ----------------------------------------
 BYTE   Cs4
 BYTE   W96
//  #03 //021   ----------------------------------------
 BYTE   N72
 BYTE   W72
 BYTE   N06
 BYTE   W12
 BYTE   N12  Ds4
 BYTE   W12
//  #03 //022   ----------------------------------------
 BYTE   N96  En4
 BYTE   W96
//  #03 //023   ----------------------------------------
 BYTE   N72
 BYTE   W84
 BYTE   N12  Fs4
 BYTE   W12
//  #03 //024   ----------------------------------------
 BYTE   N96  Gs4
 BYTE   W96
//  #03 //025   ----------------------------------------
 BYTE   Gs3
 BYTE   W96
//  #03 //026   ----------------------------------------
 BYTE   Gs3
 BYTE   W96
//  #03 //027   ----------------------------------------
 BYTE   N72
 BYTE   W84
 BYTE   N12  Fs3
 BYTE   W12
//  #03 //028   ----------------------------------------
 BYTE   N96  Gs3
 BYTE   W96
//  #03 //029   ----------------------------------------
 BYTE   Gs3
 BYTE   W96
//  #03 //030   ----------------------------------------
 BYTE   Gs3
 BYTE   W96
//  #03 //031   ----------------------------------------
 BYTE   N48
 BYTE   W96
//  #03 //032   ----------------------------------------
 BYTE   W96
//  #03 //033   ----------------------------------------
 BYTE   W96
//  #03 //034   ----------------------------------------
 BYTE   W96
//  #03 //035   ----------------------------------------
 BYTE   W96
//  #03 //036   ----------------------------------------
 BYTE   W96
//  #03 //037   ----------------------------------------
 BYTE   W96
//  #03 //038   ----------------------------------------
 BYTE   W96
//  #03 //039   ----------------------------------------
 BYTE   W96
//  #03 //040   ----------------------------------------
 BYTE   W96
//  #03 //041   ----------------------------------------
 BYTE   W96
//  #03 //042   ----------------------------------------
 BYTE   W96
//  #03 //043   ----------------------------------------
 BYTE   W96
//  #03 //044   ----------------------------------------
 BYTE   W96
//  #03 //045   ----------------------------------------
 BYTE   W96
//  #03 //046   ----------------------------------------
 BYTE   W96
//  #03 //047   ----------------------------------------
 BYTE   W96
//  #03 //048   ----------------------------------------
 BYTE   GoTo
  POIN2 Label_01542974
 BYTE   FINE

//**************** Track 4 (Midi-Chn.3) ****************//

Adversity_004:
//  #04 //000   ----------------------------------------
Label_011164CC:
 BYTE   TEMPO   210*Adversity_tbs/2
 BYTE   KEYSH   Adversity_key+0
 BYTE   VOICE   40
 BYTE   VOL   18*Adversity_mvl/mxv
 BYTE   W96
//  #04 //001   ----------------------------------------
 BYTE   W96
//  #04 //002   ----------------------------------------
 BYTE   W96
//  #04 //003   ----------------------------------------
 BYTE   W96
//  #04 //004   ----------------------------------------
 BYTE   W96
//  #04 //005   ----------------------------------------
 BYTE   W96
//  #04 //006   ----------------------------------------
 BYTE   W96
//  #04 //007   ----------------------------------------
 BYTE   W96
//  #04 //008   ----------------------------------------
 BYTE   W96
//  #04 //009   ----------------------------------------
 BYTE   W96
//  #04 //010   ----------------------------------------
 BYTE   W96
//  #04 //011   ----------------------------------------
 BYTE   W96
//  #04 //012   ----------------------------------------
 BYTE   W96
//  #04 //013   ----------------------------------------
 BYTE   W96
//  #04 //014   ----------------------------------------
 BYTE   W96
//  #04 //015   ----------------------------------------
 BYTE   W96
//  #04 //016   ----------------------------------------
 BYTE   W96
//  #04 //017   ----------------------------------------
 BYTE   W96
//  #04 //018   ----------------------------------------
 BYTE   W96
//  #04 //019   ----------------------------------------
 BYTE   W96
//  #04 //020   ----------------------------------------
 BYTE   W96
//  #04 //021   ----------------------------------------
 BYTE   W96
//  #04 //022   ----------------------------------------
 BYTE   W96
//  #04 //023   ----------------------------------------
 BYTE   W96
//  #04 //024   ----------------------------------------
 BYTE   W96
//  #04 //025   ----------------------------------------
 BYTE   W96
//  #04 //026   ----------------------------------------
 BYTE   W96
//  #04 //027   ----------------------------------------
 BYTE   W96
//  #04 //028   ----------------------------------------
 BYTE   W96
//  #04 //029   ----------------------------------------
 BYTE   W96
//  #04 //030   ----------------------------------------
 BYTE   W96
//  #04 //031   ----------------------------------------
 BYTE   W96
//  #04 //032   ----------------------------------------
 BYTE   N96  Gs1  v100
 BYTE   W96
//  #04 //033   ----------------------------------------
 BYTE   Gs1
 BYTE   W96
//  #04 //034   ----------------------------------------
 BYTE   An1
 BYTE   W96
//  #04 //035   ----------------------------------------
 BYTE   An1
 BYTE   W96
//  #04 //036   ----------------------------------------
 BYTE   Gs1
 BYTE   W96
//  #04 //037   ----------------------------------------
 BYTE   Gs1
 BYTE   W96
//  #04 //038   ----------------------------------------
 BYTE   Fs1
 BYTE   W96
//  #04 //039   ----------------------------------------
 BYTE   Fs1
 BYTE   W96
//  #04 //040   ----------------------------------------
 BYTE   En1
 BYTE   W96
//  #04 //041   ----------------------------------------
 BYTE   En1
 BYTE   W96
//  #04 //042   ----------------------------------------
 BYTE   Ds1
 BYTE   W96
//  #04 //043   ----------------------------------------
 BYTE   Ds1
 BYTE   W96
//  #04 //044   ----------------------------------------
 BYTE   Gs1
 BYTE   W96
//  #04 //045   ----------------------------------------
 BYTE   Gs1
 BYTE   W96
//  #04 //046   ----------------------------------------
 BYTE   Gs1
 BYTE   W96
//  #04 //047   ----------------------------------------
 BYTE   N72
 BYTE   W96
//  #04 //048   ----------------------------------------
 BYTE   GoTo
  POIN2 Label_011164CC
 BYTE   FINE

//**************** Track 5 (Midi-Chn.4) ****************//

Adversity_005:
//  #05 //000   ----------------------------------------
Label_01542A18:
 BYTE   TEMPO   210*Adversity_tbs/2
 BYTE   KEYSH   Adversity_key+0
 BYTE   VOICE   40
 BYTE   VOL   53*Adversity_mvl/mxv
 BYTE   PAN   c_v+16
 BYTE   W96
//  #05 //001   ----------------------------------------
 BYTE   W96
//  #05 //002   ----------------------------------------
 BYTE   W96
//  #05 //003   ----------------------------------------
 BYTE   W96
//  #05 //004   ----------------------------------------
 BYTE   W96
//  #05 //005   ----------------------------------------
 BYTE   W96
//  #05 //006   ----------------------------------------
 BYTE   W96
//  #05 //007   ----------------------------------------
 BYTE   W96
//  #05 //008   ----------------------------------------
 BYTE   W96
//  #05 //009   ----------------------------------------
 BYTE   W96
//  #05 //010   ----------------------------------------
 BYTE   W96
//  #05 //011   ----------------------------------------
 BYTE   W96
//  #05 //012   ----------------------------------------
 BYTE   W96
//  #05 //013   ----------------------------------------
 BYTE   W96
//  #05 //014   ----------------------------------------
 BYTE   W96
//  #05 //015   ----------------------------------------
 BYTE   N24  As2  v100
 BYTE   W48
 BYTE   N48  Gs2
 BYTE   W48
//  #05 //016   ----------------------------------------
 BYTE   N72  As2
 BYTE   W96
//  #05 //017   ----------------------------------------
 BYTE   W96
//  #05 //018   ----------------------------------------
 BYTE   W96
//  #05 //019   ----------------------------------------
 BYTE   W96
//  #05 //020   ----------------------------------------
 BYTE   W96
//  #05 //021   ----------------------------------------
 BYTE   W96
//  #05 //022   ----------------------------------------
 BYTE   W72
 BYTE   N12  Cn3
 BYTE   W12
 BYTE   Cs3
 BYTE   W12
//  #05 //023   ----------------------------------------
 BYTE   N72  Ds3
 BYTE   W84
 BYTE   N12  En3
 BYTE   W12
//  #05 //024   ----------------------------------------
 BYTE   N96  Ds3
 BYTE   W96
//  #05 //025   ----------------------------------------
 BYTE   Ds3
 BYTE   W96
//  #05 //026   ----------------------------------------
 BYTE   N48
 BYTE   W48
 BYTE   N96  Ds2
 BYTE   W96
//  #05 //027   ----------------------------------------
 BYTE   W96
//  #05 //028   ----------------------------------------
 BYTE   W36
 BYTE   N12  Cs3
 BYTE   W12
 BYTE   N96  Ds3
 BYTE   W96
//  #05 //029   ----------------------------------------
 BYTE   N24
 BYTE   W48
 BYTE   N96  Ds2
 BYTE   W96
//  #05 //030   ----------------------------------------
 BYTE   W96
//  #05 //031   ----------------------------------------
 BYTE   W96
//  #05 //032   ----------------------------------------
 BYTE   W84
 BYTE   N24  Gs1  v088
 BYTE   W60
//  #05 //033   ----------------------------------------
 BYTE   Ds2
 BYTE   W48
 BYTE   N48  Gs2
 BYTE   W96
//  #05 //034   ----------------------------------------
 BYTE   W96
//  #05 //035   ----------------------------------------
 BYTE   W96
//  #05 //036   ----------------------------------------
 BYTE   Gs1
 BYTE   W48
 BYTE   N24  Ds2
 BYTE   W48
//  #05 //037   ----------------------------------------
 BYTE   N48  Gs2
 BYTE   W48
 BYTE   N96  Ds3
 BYTE   W96
//  #05 //038   ----------------------------------------
 BYTE   Cs3
 BYTE   W96
//  #05 //039   ----------------------------------------
 BYTE   N72
 BYTE   W84
 BYTE   N12  As2  v104
 BYTE   W12
//  #05 //040   ----------------------------------------
 BYTE   N48  Bn2  v088
 BYTE   W48
 BYTE   Cs3
 BYTE   W48
//  #05 //041   ----------------------------------------
 BYTE   N96  Ds3
 BYTE   W96
//  #05 //042   ----------------------------------------
 BYTE   N72
 BYTE   W84
 BYTE   N12  Cs3
 BYTE   W12
//  #05 //043   ----------------------------------------
 BYTE   N96  Ds3
 BYTE   W96
//  #05 //044   ----------------------------------------
 BYTE   N72
 BYTE   W96
//  #05 //045   ----------------------------------------
 BYTE   GoTo
  POIN2 Label_01542A18
 BYTE   FINE

//**************** Track 6 (Midi-Chn.5) ****************//

Adversity_006:
//  #06 //000   ----------------------------------------
Label_01542AA0:
 BYTE   TEMPO   210*Adversity_tbs/2
 BYTE   KEYSH   Adversity_key+0
 BYTE   VOICE   57
 BYTE   VOL   23*Adversity_mvl/mxv
 BYTE   PAN   c_v-16
 BYTE   N12  Ds2  v100
 BYTE   W24
 BYTE   Ds2
 BYTE   W24
 BYTE   N24  En2
 BYTE   W24
 BYTE   N12
 BYTE   W24
//  #06 //001   ----------------------------------------
Label_01542AB5:
 BYTE   N12  Ds2  v100
 BYTE   W24
 BYTE   Ds2
 BYTE   W24
 BYTE   N24  En2
 BYTE   W24
 BYTE   N12
 BYTE   W24
 BYTE   PEND 
//  #06 //002   ----------------------------------------
 BYTE   PATT
  POIN2 Label_01542AB5
//  #06 //003   ----------------------------------------
 BYTE   PATT
  POIN2 Label_01542AB5
//  #06 //004   ----------------------------------------
 BYTE   PATT
  POIN2 Label_01542AB5
//  #06 //005   ----------------------------------------
 BYTE   PATT
  POIN2 Label_01542AB5
//  #06 //006   ----------------------------------------
 BYTE   PATT
  POIN2 Label_01542AB5
//  #06 //007   ----------------------------------------
 BYTE   PATT
  POIN2 Label_01542AB5
//  #06 //008   ----------------------------------------
 BYTE   PATT
  POIN2 Label_01542AB5
//  #06 //009   ----------------------------------------
 BYTE   PATT
  POIN2 Label_01542AB5
//  #06 //010   ----------------------------------------
 BYTE   PATT
  POIN2 Label_01542AB5
//  #06 //011   ----------------------------------------
 BYTE   PATT
  POIN2 Label_01542AB5
//  #06 //012   ----------------------------------------
Label_01542AF3:
 BYTE   N12  Fs2  v100
 BYTE   W24
 BYTE   Fs2
 BYTE   W24
 BYTE   N24  En2
 BYTE   W24
 BYTE   N12
 BYTE   W24
 BYTE   PEND 
//  #06 //013   ----------------------------------------
 BYTE   PATT
  POIN2 Label_01542AF3
//  #06 //014   ----------------------------------------
 BYTE   PATT
  POIN2 Label_01542AF3
//  #06 //015   ----------------------------------------
 BYTE   PATT
  POIN2 Label_01542AF3
//  #06 //016   ----------------------------------------
 BYTE   PATT
  POIN2 Label_01542AB5
//  #06 //017   ----------------------------------------
 BYTE   PATT
  POIN2 Label_01542AB5
//  #06 //018   ----------------------------------------
 BYTE   PATT
  POIN2 Label_01542AB5
//  #06 //019   ----------------------------------------
 BYTE   PATT
  POIN2 Label_01542AB5
//  #06 //020   ----------------------------------------
 BYTE   PATT
  POIN2 Label_01542AB5
//  #06 //021   ----------------------------------------
 BYTE   PATT
  POIN2 Label_01542AB5
//  #06 //022   ----------------------------------------
 BYTE   PATT
  POIN2 Label_01542AB5
//  #06 //023   ----------------------------------------
 BYTE   PATT
  POIN2 Label_01542AB5
//  #06 //024   ----------------------------------------
 BYTE   PATT
  POIN2 Label_01542AB5
//  #06 //025   ----------------------------------------
 BYTE   PATT
  POIN2 Label_01542AB5
//  #06 //026   ----------------------------------------
 BYTE   PATT
  POIN2 Label_01542AB5
//  #06 //027   ----------------------------------------
 BYTE   PATT
  POIN2 Label_01542AB5
//  #06 //028   ----------------------------------------
 BYTE   PATT
  POIN2 Label_01542AB5
//  #06 //029   ----------------------------------------
 BYTE   PATT
  POIN2 Label_01542AB5
//  #06 //030   ----------------------------------------
 BYTE   PATT
  POIN2 Label_01542AB5
//  #06 //031   ----------------------------------------
 BYTE   N12  Ds2  v100
 BYTE   W24
 BYTE   Ds2
 BYTE   W24
 BYTE   N24  En2
 BYTE   W24
 BYTE   N12
 BYTE   W96
//  #06 //032   ----------------------------------------
 BYTE   W96
//  #06 //033   ----------------------------------------
 BYTE   W96
//  #06 //034   ----------------------------------------
 BYTE   W96
//  #06 //035   ----------------------------------------
 BYTE   W96
//  #06 //036   ----------------------------------------
 BYTE   W96
//  #06 //037   ----------------------------------------
 BYTE   W96
//  #06 //038   ----------------------------------------
 BYTE   W96
//  #06 //039   ----------------------------------------
 BYTE   W96
//  #06 //040   ----------------------------------------
 BYTE   W96
//  #06 //041   ----------------------------------------
 BYTE   W96
//  #06 //042   ----------------------------------------
 BYTE   W96
//  #06 //043   ----------------------------------------
 BYTE   W96
//  #06 //044   ----------------------------------------
 BYTE   W96
//  #06 //045   ----------------------------------------
 BYTE   W96
//  #06 //046   ----------------------------------------
 BYTE   W96
//  #06 //047   ----------------------------------------
 BYTE   W24
 BYTE   GoTo
  POIN2 Label_01542AA0
 BYTE   FINE

//**************** Track 7 (Midi-Chn.6) ****************//

Adversity_007:
//  #07 //000   ----------------------------------------
Label_01542B7C:
 BYTE   TEMPO   210*Adversity_tbs/2
 BYTE   KEYSH   Adversity_key+0
 BYTE   VOICE   41
 BYTE   VOL   50*Adversity_mvl/mxv
 BYTE   PAN   c_v+16
 BYTE   W96
//  #07 //001   ----------------------------------------
 BYTE   W96
//  #07 //002   ----------------------------------------
 BYTE   W96
//  #07 //003   ----------------------------------------
 BYTE   W96
//  #07 //004   ----------------------------------------
 BYTE   W96
//  #07 //005   ----------------------------------------
 BYTE   W96
//  #07 //006   ----------------------------------------
 BYTE   W96
//  #07 //007   ----------------------------------------
 BYTE   W96
//  #07 //008   ----------------------------------------
 BYTE   W96
//  #07 //009   ----------------------------------------
 BYTE   W96
//  #07 //010   ----------------------------------------
 BYTE   W96
//  #07 //011   ----------------------------------------
 BYTE   W96
//  #07 //012   ----------------------------------------
 BYTE   W96
//  #07 //013   ----------------------------------------
 BYTE   W96
//  #07 //014   ----------------------------------------
 BYTE   W96
//  #07 //015   ----------------------------------------
 BYTE   N24  Ds3  v100
 BYTE   W48
 BYTE   N48  Cs3
 BYTE   W48
//  #07 //016   ----------------------------------------
 BYTE   N72  Ds3
 BYTE   W96
//  #07 //017   ----------------------------------------
 BYTE   W96
//  #07 //018   ----------------------------------------
 BYTE   W96
//  #07 //019   ----------------------------------------
 BYTE   W96
//  #07 //020   ----------------------------------------
 BYTE   W96
//  #07 //021   ----------------------------------------
 BYTE   W96
//  #07 //022   ----------------------------------------
 BYTE   W72
 BYTE   N12  En3
 BYTE   W12
 BYTE   Fs3
 BYTE   W12
//  #07 //023   ----------------------------------------
 BYTE   N72  Gs3
 BYTE   W84
 BYTE   N12  An3
 BYTE   W12
//  #07 //024   ----------------------------------------
 BYTE   N96  Gs3
 BYTE   W96
//  #07 //025   ----------------------------------------
 BYTE   Gs3
 BYTE   W96
//  #07 //026   ----------------------------------------
 BYTE   N48
 BYTE   W48
 BYTE   N96  Gs2
 BYTE   W96
//  #07 //027   ----------------------------------------
 BYTE   W96
//  #07 //028   ----------------------------------------
 BYTE   W36
 BYTE   N12  Fs3
 BYTE   W12
 BYTE   N96  Gs3
 BYTE   W96
//  #07 //029   ----------------------------------------
 BYTE   N24
 BYTE   W48
 BYTE   N96  Gs2
 BYTE   W96
//  #07 //030   ----------------------------------------
 BYTE   W96
//  #07 //031   ----------------------------------------
 BYTE   W96
//  #07 //032   ----------------------------------------
 BYTE   W84
 BYTE   N24  Gs1  v088
 BYTE   W60
//  #07 //033   ----------------------------------------
 BYTE   Ds2
 BYTE   W48
 BYTE   N48  Gs2
 BYTE   W96
//  #07 //034   ----------------------------------------
 BYTE   W96
//  #07 //035   ----------------------------------------
 BYTE   W96
//  #07 //036   ----------------------------------------
 BYTE   Gs1
 BYTE   W48
 BYTE   N24  Ds2
 BYTE   W48
//  #07 //037   ----------------------------------------
 BYTE   N48  Gs2
 BYTE   W48
 BYTE   N96  Ds3
 BYTE   W96
//  #07 //038   ----------------------------------------
 BYTE   Cs3
 BYTE   W96
//  #07 //039   ----------------------------------------
 BYTE   N72
 BYTE   W84
 BYTE   N12  As2
 BYTE   W12
//  #07 //040   ----------------------------------------
 BYTE   N48  Bn2
 BYTE   W48
 BYTE   Cs3
 BYTE   W48
//  #07 //041   ----------------------------------------
 BYTE   N96  Ds3
 BYTE   W96
//  #07 //042   ----------------------------------------
 BYTE   N72
 BYTE   W84
 BYTE   N12  Cs3
 BYTE   W12
//  #07 //043   ----------------------------------------
 BYTE   N96  Ds3
 BYTE   W96
//  #07 //044   ----------------------------------------
 BYTE   N72
 BYTE   W96
//  #07 //045   ----------------------------------------
 BYTE   GoTo
  POIN2 Label_01542B7C
 BYTE   FINE

//**************** Track 8 (Midi-Chn.7) ****************//

Adversity_008:
//  #08 //000   ----------------------------------------
Label_01542C00:
 BYTE   TEMPO   210*Adversity_tbs/2
 BYTE   KEYSH   Adversity_key+0
 BYTE   VOICE   40
 BYTE   VOL   8*Adversity_mvl/mxv
 BYTE   PAN   c_v+3
 BYTE   N96  Gs1  v100
 BYTE   W96
//  #08 //001   ----------------------------------------
 BYTE   Gs1
 BYTE   W96
//  #08 //002   ----------------------------------------
 BYTE   Gs1
 BYTE   W96
//  #08 //003   ----------------------------------------
 BYTE   Gs1
 BYTE   W96
//  #08 //004   ----------------------------------------
 BYTE   W96
//  #08 //005   ----------------------------------------
 BYTE   W96
//  #08 //006   ----------------------------------------
 BYTE   W96
//  #08 //007   ----------------------------------------
 BYTE   W96
//  #08 //008   ----------------------------------------
 BYTE   W96
//  #08 //009   ----------------------------------------
 BYTE   W96
//  #08 //010   ----------------------------------------
 BYTE   W96
//  #08 //011   ----------------------------------------
 BYTE   W96
//  #08 //012   ----------------------------------------
 BYTE   W96
//  #08 //013   ----------------------------------------
 BYTE   W96
//  #08 //014   ----------------------------------------
 BYTE   W96
//  #08 //015   ----------------------------------------
 BYTE   W96
//  #08 //016   ----------------------------------------
 BYTE   W96
//  #08 //017   ----------------------------------------
 BYTE   W96
//  #08 //018   ----------------------------------------
 BYTE   W96
//  #08 //019   ----------------------------------------
 BYTE   W96
//  #08 //020   ----------------------------------------
 BYTE   W96
//  #08 //021   ----------------------------------------
 BYTE   W96
//  #08 //022   ----------------------------------------
 BYTE   W96
//  #08 //023   ----------------------------------------
 BYTE   W96
//  #08 //024   ----------------------------------------
 BYTE   W96
//  #08 //025   ----------------------------------------
 BYTE   W96
//  #08 //026   ----------------------------------------
 BYTE   W96
//  #08 //027   ----------------------------------------
 BYTE   W96
//  #08 //028   ----------------------------------------
 BYTE   W96
//  #08 //029   ----------------------------------------
 BYTE   W96
//  #08 //030   ----------------------------------------
 BYTE   W96
//  #08 //031   ----------------------------------------
 BYTE   W96
//  #08 //032   ----------------------------------------
 BYTE   Gs1
 BYTE   W96
//  #08 //033   ----------------------------------------
 BYTE   Gs1
 BYTE   W96
//  #08 //034   ----------------------------------------
 BYTE   An1
 BYTE   W96
//  #08 //035   ----------------------------------------
 BYTE   An1
 BYTE   W96
//  #08 //036   ----------------------------------------
 BYTE   Gs1
 BYTE   W96
//  #08 //037   ----------------------------------------
 BYTE   Gs1
 BYTE   W96
//  #08 //038   ----------------------------------------
 BYTE   Fs1
 BYTE   W96
//  #08 //039   ----------------------------------------
 BYTE   Fs1
 BYTE   W96
//  #08 //040   ----------------------------------------
 BYTE   En1
 BYTE   W96
//  #08 //041   ----------------------------------------
 BYTE   En1
 BYTE   W96
//  #08 //042   ----------------------------------------
 BYTE   Ds1
 BYTE   W96
//  #08 //043   ----------------------------------------
 BYTE   Ds1
 BYTE   W96
//  #08 //044   ----------------------------------------
 BYTE   Gs1
 BYTE   W96
//  #08 //045   ----------------------------------------
 BYTE   Gs1
 BYTE   W96
//  #08 //046   ----------------------------------------
 BYTE   Gs1
 BYTE   W96
//  #08 //047   ----------------------------------------
 BYTE   N72
 BYTE   W96
//  #08 //048   ----------------------------------------
 BYTE   GoTo
  POIN2 Label_01542C00
 BYTE   FINE

//**************** Track 9 (Midi-Chn.8) ****************//

Adversity_009:
//  #09 //000   ----------------------------------------
Label_01542C58:
 BYTE   TEMPO   210*Adversity_tbs/2
 BYTE   KEYSH   Adversity_key+0
 BYTE   VOICE   57
 BYTE   VOL   4*Adversity_mvl/mxv
 BYTE   PAN   c_v-48
 BYTE   N12  Gs2  v100
 BYTE   W12
 BYTE   Gs1
 BYTE   W12
 BYTE   Gs2
 BYTE   W12
 BYTE   Gs1
 BYTE   W12
 BYTE   Gs2
 BYTE   W12
 BYTE   Gs1
 BYTE   W12
 BYTE   Gs2
 BYTE   W12
 BYTE   Gs1
 BYTE   W12
//  #09 //001   ----------------------------------------
Label_01542C74:
 BYTE   N12  Gs2  v100
 BYTE   W12
 BYTE   Gs1
 BYTE   W12
 BYTE   Gs2
 BYTE   W12
 BYTE   Gs1
 BYTE   W12
 BYTE   Gs2
 BYTE   W12
 BYTE   Gs1
 BYTE   W12
 BYTE   Gs2
 BYTE   W12
 BYTE   Gs1
 BYTE   W12
 BYTE   PEND 
//  #09 //002   ----------------------------------------
 BYTE   PATT
  POIN2 Label_01542C74
//  #09 //003   ----------------------------------------
 BYTE   PATT
  POIN2 Label_01542C74
//  #09 //004   ----------------------------------------
 BYTE   PATT
  POIN2 Label_01542C74
//  #09 //005   ----------------------------------------
 BYTE   PATT
  POIN2 Label_01542C74
//  #09 //006   ----------------------------------------
 BYTE   PATT
  POIN2 Label_01542C74
//  #09 //007   ----------------------------------------
 BYTE   PATT
  POIN2 Label_01542C74
//  #09 //008   ----------------------------------------
 BYTE   PATT
  POIN2 Label_01542C74
//  #09 //009   ----------------------------------------
 BYTE   PATT
  POIN2 Label_01542C74
//  #09 //010   ----------------------------------------
 BYTE   PATT
  POIN2 Label_01542C74
//  #09 //011   ----------------------------------------
 BYTE   PATT
  POIN2 Label_01542C74
//  #09 //012   ----------------------------------------
Label_01542CB9:
 BYTE   N12  An2  v100
 BYTE   W12
 BYTE   An1
 BYTE   W12
 BYTE   An2
 BYTE   W12
 BYTE   An1
 BYTE   W12
 BYTE   An2
 BYTE   W12
 BYTE   An1
 BYTE   W12
 BYTE   An2
 BYTE   W12
 BYTE   An1
 BYTE   W12
 BYTE   PEND 
//  #09 //013   ----------------------------------------
 BYTE   PATT
  POIN2 Label_01542CB9
//  #09 //014   ----------------------------------------
 BYTE   PATT
  POIN2 Label_01542CB9
//  #09 //015   ----------------------------------------
 BYTE   PATT
  POIN2 Label_01542CB9
//  #09 //016   ----------------------------------------
 BYTE   PATT
  POIN2 Label_01542C74
//  #09 //017   ----------------------------------------
 BYTE   PATT
  POIN2 Label_01542C74
//  #09 //018   ----------------------------------------
 BYTE   PATT
  POIN2 Label_01542C74
//  #09 //019   ----------------------------------------
 BYTE   PATT
  POIN2 Label_01542C74
//  #09 //020   ----------------------------------------
 BYTE   PATT
  POIN2 Label_01542C74
//  #09 //021   ----------------------------------------
 BYTE   PATT
  POIN2 Label_01542C74
//  #09 //022   ----------------------------------------
 BYTE   PATT
  POIN2 Label_01542C74
//  #09 //023   ----------------------------------------
 BYTE   PATT
  POIN2 Label_01542C74
//  #09 //024   ----------------------------------------
 BYTE   PATT
  POIN2 Label_01542C74
//  #09 //025   ----------------------------------------
 BYTE   PATT
  POIN2 Label_01542C74
//  #09 //026   ----------------------------------------
 BYTE   PATT
  POIN2 Label_01542C74
//  #09 //027   ----------------------------------------
 BYTE   PATT
  POIN2 Label_01542C74
//  #09 //028   ----------------------------------------
 BYTE   PATT
  POIN2 Label_01542C74
//  #09 //029   ----------------------------------------
 BYTE   PATT
  POIN2 Label_01542C74
//  #09 //030   ----------------------------------------
 BYTE   PATT
  POIN2 Label_01542C74
//  #09 //031   ----------------------------------------
 BYTE   N12  Gs2  v100
 BYTE   W12
 BYTE   Gs1
 BYTE   W12
 BYTE   Gs2
 BYTE   W12
 BYTE   Gs1
 BYTE   W12
 BYTE   Gs2
 BYTE   W12
 BYTE   Gs1
 BYTE   W12
 BYTE   Gs2
 BYTE   W12
 BYTE   Gs1
 BYTE   W96
//  #09 //032   ----------------------------------------
 BYTE   W96
//  #09 //033   ----------------------------------------
 BYTE   W96
//  #09 //034   ----------------------------------------
 BYTE   W96
//  #09 //035   ----------------------------------------
 BYTE   W96
//  #09 //036   ----------------------------------------
 BYTE   W96
//  #09 //037   ----------------------------------------
 BYTE   W96
//  #09 //038   ----------------------------------------
 BYTE   W96
//  #09 //039   ----------------------------------------
 BYTE   W96
//  #09 //040   ----------------------------------------
 BYTE   W96
//  #09 //041   ----------------------------------------
 BYTE   W96
//  #09 //042   ----------------------------------------
 BYTE   W96
//  #09 //043   ----------------------------------------
 BYTE   W96
//  #09 //044   ----------------------------------------
 BYTE   W96
//  #09 //045   ----------------------------------------
 BYTE   W96
//  #09 //046   ----------------------------------------
 BYTE   W96
//  #09 //047   ----------------------------------------
 BYTE   W12
 BYTE   GoTo
  POIN2 Label_01542C58
 BYTE   FINE

//**************** Track 10 (Midi-Chn.9) ****************//

Adversity_010:
//  #10 //000   ----------------------------------------
Label_01542D50:
 BYTE   TEMPO   210*Adversity_tbs/2
 BYTE   KEYSH   Adversity_key+0
 BYTE   VOICE   40
 BYTE   VOL   7*Adversity_mvl/mxv
 BYTE   PAN   c_v+2
 BYTE   N12  Gs2  v100
 BYTE   W12
 BYTE   As2
 BYTE   W12
 BYTE   Gs2
 BYTE   W12
 BYTE   As2
 BYTE   W12
 BYTE   Bn2
 BYTE   W12
 BYTE   Cs3
 BYTE   W12
 BYTE   Bn2
 BYTE   W12
 BYTE   As2
 BYTE   W12
//  #10 //001   ----------------------------------------
Label_01542D6C:
 BYTE   N12  Gs2  v100
 BYTE   W12
 BYTE   As2
 BYTE   W12
 BYTE   Gs2
 BYTE   W12
 BYTE   As2
 BYTE   W12
 BYTE   Bn2
 BYTE   W12
 BYTE   Cs3
 BYTE   W12
 BYTE   Bn2
 BYTE   W12
 BYTE   As2
 BYTE   W12
 BYTE   PEND 
//  #10 //002   ----------------------------------------
 BYTE   PATT
  POIN2 Label_01542D6C
//  #10 //003   ----------------------------------------
 BYTE   PATT
  POIN2 Label_01542D6C
//  #10 //004   ----------------------------------------
 BYTE   PATT
  POIN2 Label_01542D6C
//  #10 //005   ----------------------------------------
 BYTE   PATT
  POIN2 Label_01542D6C
//  #10 //006   ----------------------------------------
 BYTE   PATT
  POIN2 Label_01542D6C
//  #10 //007   ----------------------------------------
 BYTE   PATT
  POIN2 Label_01542D6C
//  #10 //008   ----------------------------------------
 BYTE   PATT
  POIN2 Label_01542D6C
//  #10 //009   ----------------------------------------
 BYTE   PATT
  POIN2 Label_01542D6C
//  #10 //010   ----------------------------------------
 BYTE   PATT
  POIN2 Label_01542D6C
//  #10 //011   ----------------------------------------
 BYTE   N12  Gs2  v100
 BYTE   W12
 BYTE   As2
 BYTE   W12
 BYTE   Bn2
 BYTE   W12
 BYTE   Cs3
 BYTE   W12
 BYTE   Ds3
 BYTE   W12
 BYTE   En3
 BYTE   W12
 BYTE   Fs3
 BYTE   W12
 BYTE   Gs3
 BYTE   W12
//  #10 //012   ----------------------------------------
Label_01542DBE:
 BYTE   N12  As3  v100
 BYTE   W12
 BYTE   Gs3
 BYTE   W12
 BYTE   As3
 BYTE   W12
 BYTE   Gs3
 BYTE   W12
 BYTE   As3
 BYTE   W12
 BYTE   Gs3
 BYTE   W12
 BYTE   As3
 BYTE   W12
 BYTE   Gs3
 BYTE   W12
 BYTE   PEND 
//  #10 //013   ----------------------------------------
 BYTE   PATT
  POIN2 Label_01542DBE
//  #10 //014   ----------------------------------------
 BYTE   PATT
  POIN2 Label_01542DBE
//  #10 //015   ----------------------------------------
 BYTE   N12  As3  v100
 BYTE   W12
 BYTE   Gs3
 BYTE   W12
 BYTE   As3
 BYTE   W12
 BYTE   Gs3
 BYTE   W12
 BYTE   As3
 BYTE   W12
 BYTE   Bn3
 BYTE   W12
 BYTE   Cs4
 BYTE   W12
 BYTE   Ds4
 BYTE   W96
//  #10 //016   ----------------------------------------
 BYTE   W96
//  #10 //017   ----------------------------------------
 BYTE   W96
//  #10 //018   ----------------------------------------
 BYTE   W96
//  #10 //019   ----------------------------------------
 BYTE   W96
//  #10 //020   ----------------------------------------
 BYTE   W96
//  #10 //021   ----------------------------------------
 BYTE   W96
//  #10 //022   ----------------------------------------
 BYTE   W96
//  #10 //023   ----------------------------------------
 BYTE   W96
//  #10 //024   ----------------------------------------
 BYTE   W96
//  #10 //025   ----------------------------------------
 BYTE   W96
//  #10 //026   ----------------------------------------
 BYTE   W96
//  #10 //027   ----------------------------------------
 BYTE   W96
//  #10 //028   ----------------------------------------
 BYTE   W96
//  #10 //029   ----------------------------------------
 BYTE   W96
//  #10 //030   ----------------------------------------
 BYTE   W96
//  #10 //031   ----------------------------------------
 BYTE   W96
//  #10 //032   ----------------------------------------
 BYTE   W96
//  #10 //033   ----------------------------------------
 BYTE   W96
//  #10 //034   ----------------------------------------
 BYTE   W96
//  #10 //035   ----------------------------------------
 BYTE   W96
//  #10 //036   ----------------------------------------
 BYTE   W96
//  #10 //037   ----------------------------------------
 BYTE   W96
//  #10 //038   ----------------------------------------
 BYTE   W96
//  #10 //039   ----------------------------------------
 BYTE   W96
//  #10 //040   ----------------------------------------
 BYTE   W96
//  #10 //041   ----------------------------------------
 BYTE   W96
//  #10 //042   ----------------------------------------
 BYTE   W96
//  #10 //043   ----------------------------------------
 BYTE   W96
//  #10 //044   ----------------------------------------
 BYTE   W96
//  #10 //045   ----------------------------------------
 BYTE   W96
//  #10 //046   ----------------------------------------
 BYTE   W96
//  #10 //047   ----------------------------------------
 BYTE   W12
 BYTE   GoTo
  POIN2 Label_01542D50
 BYTE   FINE

//**************** Track 11 (Midi-Chn.10) ****************//

Adversity_011:
//  #11 //000   ----------------------------------------
Label_01542E14:
 BYTE   TEMPO   210*Adversity_tbs/2
 BYTE   KEYSH   Adversity_key+0
 BYTE   VOICE   109
 BYTE   VOL   26*Adversity_mvl/mxv
 BYTE   W96
//  #11 //001   ----------------------------------------
 BYTE   W96
//  #11 //002   ----------------------------------------
 BYTE   W96
//  #11 //003   ----------------------------------------
 BYTE   W72
Label_01542E20:
 BYTE   N06  Cs4  v100
 BYTE   W12
 BYTE   N12  Gs4
 BYTE   W12
//  #11 //004   ----------------------------------------
 BYTE   N72  As4
 BYTE   W72
 BYTE   PEND 
Label_01542E2B:
 BYTE   N06  Gs4  v100
 BYTE   W12
 BYTE   N12  As4
 BYTE   W12
//  #11 //005   ----------------------------------------
 BYTE   N72  Bn4
 BYTE   W72
 BYTE   PEND 
Label_01542E36:
 BYTE   N06  As4  v100
 BYTE   W12
 BYTE   N12  Bn4
 BYTE   W12
//  #11 //006   ----------------------------------------
 BYTE   N72  Cs5
 BYTE   W72
 BYTE   PEND 
 BYTE   N06  Bn4  v100
 BYTE   W12
 BYTE   N12  As4
 BYTE   W12
//  #11 //007   ----------------------------------------
 BYTE   N72  Bn4
 BYTE   W72
//  #11 //008   ----------------------------------------
 BYTE   PATT
  POIN2 Label_01542E20
//  #11 //009   ----------------------------------------
 BYTE   PATT
  POIN2 Label_01542E2B
//  #11 //010   ----------------------------------------
 BYTE   PATT
  POIN2 Label_01542E36
//  #11 //011   ----------------------------------------
 BYTE   N06  Bn4  v100
 BYTE   W12
 BYTE   N12  Cs5
 BYTE   W12
 BYTE   N72  Ds5
 BYTE   W84
//  #11 //012   ----------------------------------------
 BYTE   N12  Fs5
 BYTE   W12
 BYTE   N96  Fn5
 BYTE   W96
//  #11 //013   ----------------------------------------
 BYTE   Fn5
 BYTE   W96
//  #11 //014   ----------------------------------------
 BYTE   Fn5
 BYTE   W96
//  #11 //015   ----------------------------------------
 BYTE   Fn5
 BYTE   W96
//  #11 //016   ----------------------------------------
 BYTE   W96
//  #11 //017   ----------------------------------------
 BYTE   W96
//  #11 //018   ----------------------------------------
 BYTE   W96
//  #11 //019   ----------------------------------------
 BYTE   W96
//  #11 //020   ----------------------------------------
 BYTE   W96
//  #11 //021   ----------------------------------------
 BYTE   W96
//  #11 //022   ----------------------------------------
 BYTE   W96
//  #11 //023   ----------------------------------------
 BYTE   W96
//  #11 //024   ----------------------------------------
 BYTE   W96
//  #11 //025   ----------------------------------------
 BYTE   W96
//  #11 //026   ----------------------------------------
 BYTE   W96
//  #11 //027   ----------------------------------------
 BYTE   W96
//  #11 //028   ----------------------------------------
 BYTE   W96
//  #11 //029   ----------------------------------------
 BYTE   W96
//  #11 //030   ----------------------------------------
 BYTE   W96
//  #11 //031   ----------------------------------------
 BYTE   W96
//  #11 //032   ----------------------------------------
Label_01542E80:
 BYTE   N12  Gs2  v100
 BYTE   W12
 BYTE   Gs4
 BYTE   W12
 BYTE   Gs2
 BYTE   W12
 BYTE   Gs4
 BYTE   W12
 BYTE   Gs2
 BYTE   W12
 BYTE   Gs4
 BYTE   W12
 BYTE   Gs2
 BYTE   W12
 BYTE   Gs4
 BYTE   W12
 BYTE   PEND 
//  #11 //033   ----------------------------------------
 BYTE   PATT
  POIN2 Label_01542E80
//  #11 //034   ----------------------------------------
 BYTE   PATT
  POIN2 Label_01542E80
//  #11 //035   ----------------------------------------
 BYTE   PATT
  POIN2 Label_01542E80
//  #11 //036   ----------------------------------------
 BYTE   PATT
  POIN2 Label_01542E80
//  #11 //037   ----------------------------------------
 BYTE   PATT
  POIN2 Label_01542E80
//  #11 //038   ----------------------------------------
 BYTE   PATT
  POIN2 Label_01542E80
//  #11 //039   ----------------------------------------
 BYTE   PATT
  POIN2 Label_01542E80
//  #11 //040   ----------------------------------------
 BYTE   PATT
  POIN2 Label_01542E80
//  #11 //041   ----------------------------------------
 BYTE   PATT
  POIN2 Label_01542E80
//  #11 //042   ----------------------------------------
 BYTE   PATT
  POIN2 Label_01542E80
//  #11 //043   ----------------------------------------
 BYTE   PATT
  POIN2 Label_01542E80
//  #11 //044   ----------------------------------------
 BYTE   PATT
  POIN2 Label_01542E80
//  #11 //045   ----------------------------------------
 BYTE   PATT
  POIN2 Label_01542E80
//  #11 //046   ----------------------------------------
 BYTE   PATT
  POIN2 Label_01542E80
//  #11 //047   ----------------------------------------
 BYTE   PATT
  POIN2 Label_01542E80
//  #11 //048   ----------------------------------------
 BYTE   GoTo
  POIN2 Label_01542E14
 BYTE   FINE

//**************** Track 12 (Midi-Chn.11) ****************//

Adversity_012:
//  #12 //000   ----------------------------------------
Label_01542EE4:
 BYTE   TEMPO   210*Adversity_tbs/2
 BYTE   KEYSH   Adversity_key+0
 BYTE   VOICE   47
 BYTE   VOL   92*Adversity_mvl/mxv
 BYTE   N24  Cn3  v100
 BYTE   W72
 BYTE   N12
 BYTE   W12
 BYTE   Cn3
 BYTE   W12
//  #12 //001   ----------------------------------------
Label_01542EF4:
 BYTE   N24  Cn3  v100
 BYTE   W24
 BYTE   Cn3
 BYTE   W96
//  #12 //002   ----------------------------------------
 BYTE   W48
 BYTE   PEND 
Label_01542EFC:
 BYTE   N24  Cn3  v100
 BYTE   W24
 BYTE   Cn3
 BYTE   W24
//  #12 //003   ----------------------------------------
 BYTE   Cn3
 BYTE   W72
 BYTE   PEND 
Label_01542F05:
 BYTE   N24  Cn3  v100
 BYTE   W72
//  #12 //004   ----------------------------------------
 BYTE   N12
 BYTE   W12
 BYTE   Cn3
 BYTE   W12
 BYTE   PEND 
//  #12 //005   ----------------------------------------
 BYTE   PATT
  POIN2 Label_01542EF4
//  #12 //006   ----------------------------------------
 BYTE   PATT
  POIN2 Label_01542EFC
//  #12 //007   ----------------------------------------
 BYTE   PATT
  POIN2 Label_01542F05
//  #12 //008   ----------------------------------------
 BYTE   PATT
  POIN2 Label_01542EF4
//  #12 //009   ----------------------------------------
 BYTE   PATT
  POIN2 Label_01542EFC
//  #12 //010   ----------------------------------------
 BYTE   PATT
  POIN2 Label_01542F05
//  #12 //011   ----------------------------------------
 BYTE   PATT
  POIN2 Label_01542EF4
//  #12 //012   ----------------------------------------
Label_01542F31:
 BYTE   N24  Cn3  v100
 BYTE   W24
 BYTE   N12  Cn3  v092
 BYTE   W12
 BYTE   As2
 BYTE   W12
 BYTE   Cn3  v080
 BYTE   W12
 BYTE   N24  As2  v072
 BYTE   W24
 BYTE   N12  Cn3  v080
 BYTE   W12
 BYTE   PEND 
//  #12 //013   ----------------------------------------
Label_01542F47:
 BYTE   N12  Cn3  v092
 BYTE   W12
 BYTE   Cn3  v100
 BYTE   W12
 BYTE   N24
 BYTE   W72
 BYTE   PEND 
//  #12 //014   ----------------------------------------
Label_01542F51:
 BYTE   N12  Cn3  v100
 BYTE   W12
 BYTE   Cn3
 BYTE   W12
 BYTE   N24
 BYTE   W24
 BYTE   Cn3
 BYTE   W96
//  #12 //015   ----------------------------------------
 BYTE   W48
 BYTE   PEND 
//  #12 //016   ----------------------------------------
 BYTE   PATT
  POIN2 Label_01542EFC
//  #12 //017   ----------------------------------------
 BYTE   PATT
  POIN2 Label_01542F05
//  #12 //018   ----------------------------------------
 BYTE   PATT
  POIN2 Label_01542EF4
//  #12 //019   ----------------------------------------
 BYTE   PATT
  POIN2 Label_01542EFC
//  #12 //020   ----------------------------------------
 BYTE   PATT
  POIN2 Label_01542F05
//  #12 //021   ----------------------------------------
 BYTE   PATT
  POIN2 Label_01542EF4
//  #12 //022   ----------------------------------------
 BYTE   PATT
  POIN2 Label_01542EFC
//  #12 //023   ----------------------------------------
 BYTE   PATT
  POIN2 Label_01542F05
//  #12 //024   ----------------------------------------
 BYTE   PATT
  POIN2 Label_01542EF4
//  #12 //025   ----------------------------------------
 BYTE   N24  Cn3  v100
 BYTE   W24
 BYTE   N12
 BYTE   W12
 BYTE   As2  v092
 BYTE   W12
 BYTE   Cn3  v080
 BYTE   W12
 BYTE   N24  As2  v072
 BYTE   W24
 BYTE   N12  Cn3  v080
 BYTE   W12
//  #12 //026   ----------------------------------------
 BYTE   PATT
  POIN2 Label_01542F47
//  #12 //027   ----------------------------------------
 BYTE   PATT
  POIN2 Label_01542F51
//  #12 //028   ----------------------------------------
 BYTE   PATT
  POIN2 Label_01542EFC
//  #12 //029   ----------------------------------------
 BYTE   PATT
  POIN2 Label_01542F05
//  #12 //030   ----------------------------------------
 BYTE   PATT
  POIN2 Label_01542EF4
//  #12 //031   ----------------------------------------
 BYTE   PATT
  POIN2 Label_01542EFC
//  #12 //032   ----------------------------------------
 BYTE   PATT
  POIN2 Label_01542F05
//  #12 //033   ----------------------------------------
 BYTE   PATT
  POIN2 Label_01542EF4
//  #12 //034   ----------------------------------------
 BYTE   PATT
  POIN2 Label_01542EFC
//  #12 //035   ----------------------------------------
 BYTE   PATT
  POIN2 Label_01542F05
//  #12 //036   ----------------------------------------
 BYTE   PATT
  POIN2 Label_01542EF4
//  #12 //037   ----------------------------------------
 BYTE   PATT
  POIN2 Label_01542F31
//  #12 //038   ----------------------------------------
 BYTE   N12  Cn3  v092
 BYTE   W12
 BYTE   Cn3  v100
 BYTE   W12
 BYTE   GoTo
  POIN2 Label_01542EE4
 BYTE   FINE

//**************** Track 13 (Midi-Chn.12) ****************//

Adversity_013:
//  #13 //000   ----------------------------------------
Label_01542FE8:
 BYTE   TEMPO   210*Adversity_tbs/2
 BYTE   KEYSH   Adversity_key+0
 BYTE   VOICE   127
 BYTE   VOL   41*Adversity_mvl/mxv
 BYTE   N24  Dn1  v100
 BYTE   W72
 BYTE   N12
 BYTE   W12
 BYTE   Dn1
 BYTE   W12
//  #13 //001   ----------------------------------------
Label_01542FF8:
 BYTE   N24  Dn1  v100
 BYTE   W24
 BYTE   Dn1
 BYTE   W96
//  #13 //002   ----------------------------------------
 BYTE   W48
 BYTE   PEND 
Label_01543000:
 BYTE   N24  Dn1  v100
 BYTE   W24
 BYTE   Dn1
 BYTE   W24
//  #13 //003   ----------------------------------------
 BYTE   Dn1
 BYTE   W72
 BYTE   PEND 
Label_01543009:
 BYTE   N24  Dn1  v100
 BYTE   W72
//  #13 //004   ----------------------------------------
 BYTE   N12
 BYTE   W12
 BYTE   Dn1
 BYTE   W12
 BYTE   PEND 
//  #13 //005   ----------------------------------------
 BYTE   PATT
  POIN2 Label_01542FF8
//  #13 //006   ----------------------------------------
 BYTE   PATT
  POIN2 Label_01543000
//  #13 //007   ----------------------------------------
 BYTE   PATT
  POIN2 Label_01543009
//  #13 //008   ----------------------------------------
 BYTE   PATT
  POIN2 Label_01542FF8
//  #13 //009   ----------------------------------------
 BYTE   PATT
  POIN2 Label_01543000
//  #13 //010   ----------------------------------------
 BYTE   PATT
  POIN2 Label_01543009
//  #13 //011   ----------------------------------------
 BYTE   PATT
  POIN2 Label_01542FF8
//  #13 //012   ----------------------------------------
Label_01543035:
 BYTE   N24  Dn1  v100
 BYTE   W24
 BYTE   N12  Dn1  v092
 BYTE   W12
 BYTE   Dn1
 BYTE   W12
 BYTE   Dn1  v080
 BYTE   W12
 BYTE   N24  Dn1  v072
 BYTE   W24
 BYTE   N12  Dn1  v080
 BYTE   W12
 BYTE   PEND 
//  #13 //013   ----------------------------------------
Label_0154304B:
 BYTE   N12  Dn1  v092
 BYTE   W12
 BYTE   Dn1  v100
 BYTE   W12
 BYTE   N24
 BYTE   W72
 BYTE   PEND 
//  #13 //014   ----------------------------------------
Label_01543055:
 BYTE   N12  Dn1  v100
 BYTE   W12
 BYTE   Dn1
 BYTE   W12
 BYTE   N24
 BYTE   W24
 BYTE   Dn1
 BYTE   W96
//  #13 //015   ----------------------------------------
 BYTE   W48
 BYTE   PEND 
//  #13 //016   ----------------------------------------
 BYTE   PATT
  POIN2 Label_01543000
//  #13 //017   ----------------------------------------
 BYTE   PATT
  POIN2 Label_01543009
//  #13 //018   ----------------------------------------
 BYTE   PATT
  POIN2 Label_01542FF8
//  #13 //019   ----------------------------------------
 BYTE   PATT
  POIN2 Label_01543000
//  #13 //020   ----------------------------------------
 BYTE   PATT
  POIN2 Label_01543009
//  #13 //021   ----------------------------------------
 BYTE   PATT
  POIN2 Label_01542FF8
//  #13 //022   ----------------------------------------
 BYTE   PATT
  POIN2 Label_01543000
//  #13 //023   ----------------------------------------
 BYTE   PATT
  POIN2 Label_01543009
//  #13 //024   ----------------------------------------
 BYTE   PATT
  POIN2 Label_01542FF8
//  #13 //025   ----------------------------------------
 BYTE   N24  Dn1  v100
 BYTE   W24
 BYTE   N12
 BYTE   W12
 BYTE   Dn1  v092
 BYTE   W12
 BYTE   Dn1  v080
 BYTE   W12
 BYTE   N24  Dn1  v072
 BYTE   W24
 BYTE   N12  Dn1  v080
 BYTE   W12
//  #13 //026   ----------------------------------------
 BYTE   PATT
  POIN2 Label_0154304B
//  #13 //027   ----------------------------------------
 BYTE   PATT
  POIN2 Label_01543055
//  #13 //028   ----------------------------------------
 BYTE   PATT
  POIN2 Label_01543000
//  #13 //029   ----------------------------------------
 BYTE   PATT
  POIN2 Label_01543009
//  #13 //030   ----------------------------------------
 BYTE   PATT
  POIN2 Label_01542FF8
//  #13 //031   ----------------------------------------
 BYTE   PATT
  POIN2 Label_01543000
//  #13 //032   ----------------------------------------
 BYTE   PATT
  POIN2 Label_01543009
//  #13 //033   ----------------------------------------
 BYTE   PATT
  POIN2 Label_01542FF8
//  #13 //034   ----------------------------------------
 BYTE   PATT
  POIN2 Label_01543000
//  #13 //035   ----------------------------------------
 BYTE   PATT
  POIN2 Label_01543009
//  #13 //036   ----------------------------------------
 BYTE   PATT
  POIN2 Label_01542FF8
//  #13 //037   ----------------------------------------
 BYTE   PATT
  POIN2 Label_01543035
//  #13 //038   ----------------------------------------
 BYTE   N12  Dn1  v092
 BYTE   W12
 BYTE   Dn1  v100
 BYTE   W12
 BYTE   GoTo
  POIN2 Label_01542FE8
 BYTE   FINE

//******************************************************//
	ALIGN 4

Adversity:
	BYTE	13	// NumTrks
	BYTE	0	// NumBlks
	BYTE	Adversity_pri	// Priority
	BYTE	Adversity_rev	// Reverb.
    
	POIN2	Adversity_grp
    
	POIN2	Adversity_001
	POIN2	Adversity_002
	POIN2	Adversity_003
	POIN2	Adversity_004
	POIN2	Adversity_005
	POIN2	Adversity_006
	POIN2	Adversity_007
	POIN2	Adversity_008
	POIN2	Adversity_009
	POIN2	Adversity_010
	POIN2	Adversity_011
	POIN2	Adversity_012
	POIN2	Adversity_013

	
