//Event file generated from Sappy .s format.
	

	#define	AlmEnemyPhase_grp  voicegroup000
	#define	AlmEnemyPhase_pri  0
	#define	AlmEnemyPhase_rev  0
	#define	AlmEnemyPhase_mvl  127
	#define	AlmEnemyPhase_key  0
	#define	AlmEnemyPhase_tbs  1
	#define	AlmEnemyPhase_exg  0
	#define	AlmEnemyPhase_cmp  1

	// .rodata
	//	AlmEnemyPhase
	ALIGN 4


//**************** Track 1 (Midi-Chn.0) ****************//

AlmEnemyPhase_001:
//  #01 //000   ----------------------------------------
 BYTE   KEYSH   AlmEnemyPhase_key+0
 BYTE   TEMPO   138*AlmEnemyPhase_tbs/2
 BYTE   VOICE   41
 BYTE   VOL   56*AlmEnemyPhase_mvl/mxv
 BYTE   W96
//  #01 //001   ----------------------------------------
Label_559FB1:
 BYTE   W96
//  #01 //002   ----------------------------------------
 BYTE   W96
//  #01 //003   ----------------------------------------
 BYTE   W96
//  #01 //004   ----------------------------------------
 BYTE   W96
//  #01 //005   ----------------------------------------
 BYTE   W96
//  #01 //006   ----------------------------------------
 BYTE   W96
//  #01 //007   ----------------------------------------
 BYTE   W96
//  #01 //008   ----------------------------------------
 BYTE   W96
//  #01 //009   ----------------------------------------
 BYTE   W96
//  #01 //010   ----------------------------------------
 BYTE   W96
//  #01 //011   ----------------------------------------
 BYTE   W84
 BYTE   W01
 BYTE   W04
 BYTE   W01
 BYTE   W02
 BYTE   W02
 BYTE   W02
//  #01 //012   ----------------------------------------
Label_559FC2:
 BYTE   N64  Cs4  v100
 BYTE   W72
 BYTE   N21  Fs3
 BYTE   W24
 BYTE   PEND 
//  #01 //013   ----------------------------------------
Label_559FCA:
 BYTE   N64  Gs3  v100
 BYTE   W72
 BYTE   N21  Bn3
 BYTE   W24
 BYTE   PEND 
//  #01 //014   ----------------------------------------
Label_559FD2:
 BYTE   N14  An3  v100
 BYTE   W16
 BYTE   N07  En4
 BYTE   W08
 BYTE   TIE  Cs4
 BYTE   W72
 BYTE   PEND 
//  #01 //015   ----------------------------------------
 BYTE   W64
 BYTE   EOT
 BYTE   W32
//  #01 //016   ----------------------------------------
 BYTE   PATT
  POIN2 Label_559FC2
//  #01 //017   ----------------------------------------
 BYTE   PATT
  POIN2 Label_559FCA
//  #01 //018   ----------------------------------------
 BYTE   PATT
  POIN2 Label_559FD2
//  #01 //019   ----------------------------------------
 BYTE   W64
 BYTE   EOT
 BYTE   Cs4
 BYTE   W32
//  #01 //020   ----------------------------------------
 BYTE   W96
//  #01 //021   ----------------------------------------
 BYTE   W96
//  #01 //022   ----------------------------------------
 BYTE   W96
//  #01 //023   ----------------------------------------
 BYTE   W96
//  #01 //024   ----------------------------------------
 BYTE   W96
//  #01 //025   ----------------------------------------
 BYTE   W96
//  #01 //026   ----------------------------------------
 BYTE   W96
//  #01 //027   ----------------------------------------
 BYTE   W96
//  #01 //028   ----------------------------------------
 BYTE   W96
//  #01 //029   ----------------------------------------
 BYTE   W96
//  #01 //030   ----------------------------------------
 BYTE   N42  En3  v100
 BYTE   N42  En4
 BYTE   W48
 BYTE   Dn3
 BYTE   N42  Dn4
 BYTE   W48
//  #01 //031   ----------------------------------------
 BYTE   N21  Cn3
 BYTE   N21  Cn4
 BYTE   W24
 BYTE   An2
 BYTE   N21  Bn3
 BYTE   W24
 BYTE   Gs2
 BYTE   N21  Cn4
 BYTE   W24
 BYTE   Bn2
 BYTE   N21  Dn4
 BYTE   W24
//  #01 //032   ----------------------------------------
 BYTE   TIE  An2
 BYTE   TIE  An3
 BYTE   W96
//  #01 //033   ----------------------------------------
 BYTE   W42
 BYTE   W01
 BYTE   EOT
 BYTE   An2  v069
 BYTE   W52
 BYTE   W01
//  #01 //034   ----------------------------------------
 BYTE   GoTo
  POIN2 Label_559FB1
 BYTE   FINE

//**************** Track 2 (Midi-Chn.1) ****************//

AlmEnemyPhase_002:
//  #02 //000   ----------------------------------------
 BYTE   KEYSH   AlmEnemyPhase_key+0
 BYTE   VOICE   75
 BYTE   VOL   58*AlmEnemyPhase_mvl/mxv
 BYTE   W96
//  #02 //001   ----------------------------------------
Label_55A033:
 BYTE   W80
 BYTE   W02
 BYTE   W05
 BYTE   W02
 BYTE   W02
 BYTE   W01
 BYTE   W02
 BYTE   W01
 BYTE   W01
//  #02 //002   ----------------------------------------
 BYTE   N16  Cn3  v100
 BYTE   W01
 BYTE   W01
 BYTE   W01
 BYTE   W01
 BYTE   W01
 BYTE   W02
 BYTE   W01
 BYTE   W01
 BYTE   W02
 BYTE   W07
 BYTE   N05  Gn3
 BYTE   W06
 BYTE   N42  Fs3
 BYTE   W48
 BYTE   N07  Dn3
 BYTE   W08
 BYTE   Fn3
 BYTE   W08
 BYTE   Dn3
 BYTE   W08
//  #02 //003   ----------------------------------------
 BYTE   N16  Cn3
 BYTE   W18
 BYTE   N05  Gn3
 BYTE   W06
 BYTE   N42  Fs3
 BYTE   W48
 BYTE   N07  Dn3
 BYTE   W08
 BYTE   Fn3
 BYTE   W08
 BYTE   Dn3
 BYTE   W08
//  #02 //004   ----------------------------------------
 BYTE   N16  An2
 BYTE   W18
 BYTE   N05  En3
 BYTE   W06
 BYTE   N42  Dn3
 BYTE   W48
 BYTE   N07  Cn3
 BYTE   W08
 BYTE   Dn3
 BYTE   W08
 BYTE   As2
 BYTE   W08
//  #02 //005   ----------------------------------------
 BYTE   N84  An2
 BYTE   W96
//  #02 //006   ----------------------------------------
 BYTE   N16  Gn2
 BYTE   W18
 BYTE   N05  As2
 BYTE   W06
 BYTE   N21  Fs3
 BYTE   W24
 BYTE   N42  Fn3
 BYTE   W48
//  #02 //007   ----------------------------------------
 BYTE   N16  Gn2
 BYTE   W18
 BYTE   N05  As2
 BYTE   W06
 BYTE   N21  Gn3
 BYTE   W24
 BYTE   N42  Fs3
 BYTE   W48
//  #02 //008   ----------------------------------------
 BYTE   N07  En3
 BYTE   W08
 BYTE   Dn3
 BYTE   W08
 BYTE   En3
 BYTE   W08
 BYTE   Fn3
 BYTE   W08
 BYTE   Gn3
 BYTE   W08
 BYTE   Fn3
 BYTE   W08
 BYTE   En3
 BYTE   W08
 BYTE   Dn3
 BYTE   W08
 BYTE   En3
 BYTE   W08
 BYTE   Fn3
 BYTE   W08
 BYTE   Gn3
 BYTE   W08
 BYTE   Fn3
 BYTE   W08
//  #02 //009   ----------------------------------------
 BYTE   N84  En3
 BYTE   W96
//  #02 //010   ----------------------------------------
 BYTE   W96
//  #02 //011   ----------------------------------------
 BYTE   W96
//  #02 //012   ----------------------------------------
 BYTE   W96
//  #02 //013   ----------------------------------------
 BYTE   W96
//  #02 //014   ----------------------------------------
 BYTE   W96
//  #02 //015   ----------------------------------------
 BYTE   W96
//  #02 //016   ----------------------------------------
 BYTE   N64  Cs3
 BYTE   W72
 BYTE   N21  Fs2
 BYTE   W24
//  #02 //017   ----------------------------------------
 BYTE   N64  Gs2
 BYTE   W72
 BYTE   N21  Bn2
 BYTE   W24
//  #02 //018   ----------------------------------------
 BYTE   N14  An2
 BYTE   W16
 BYTE   N07  En3
 BYTE   W08
 BYTE   TIE  Cs3
 BYTE   W72
//  #02 //019   ----------------------------------------
 BYTE   W64
 BYTE   EOT
 BYTE   W32
//  #02 //020   ----------------------------------------
 BYTE   W96
//  #02 //021   ----------------------------------------
 BYTE   W96
//  #02 //022   ----------------------------------------
 BYTE   W96
//  #02 //023   ----------------------------------------
 BYTE   W96
//  #02 //024   ----------------------------------------
 BYTE   W96
//  #02 //025   ----------------------------------------
 BYTE   W96
//  #02 //026   ----------------------------------------
 BYTE   W96
//  #02 //027   ----------------------------------------
 BYTE   W96
//  #02 //028   ----------------------------------------
 BYTE   W96
//  #02 //029   ----------------------------------------
 BYTE   W96
//  #02 //030   ----------------------------------------
 BYTE   N42  En3
 BYTE   W48
 BYTE   Dn3
 BYTE   W48
//  #02 //031   ----------------------------------------
 BYTE   N21  Cn3
 BYTE   W24
 BYTE   An2
 BYTE   W24
 BYTE   Gs2
 BYTE   W24
 BYTE   Bn2
 BYTE   W24
//  #02 //032   ----------------------------------------
 BYTE   TIE  An2
 BYTE   W96
//  #02 //033   ----------------------------------------
 BYTE   W42
 BYTE   W01
 BYTE   EOT
 BYTE   W52
 BYTE   W01
//  #02 //034   ----------------------------------------
 BYTE   GoTo
  POIN2 Label_55A033
 BYTE   FINE

//**************** Track 3 (Midi-Chn.2) ****************//

AlmEnemyPhase_003:
//  #03 //000   ----------------------------------------
 BYTE   KEYSH   AlmEnemyPhase_key+0
 BYTE   VOICE   61
 BYTE   VOL   46*AlmEnemyPhase_mvl/mxv
 BYTE   N21  An1  v100
 BYTE   N21  En2
 BYTE   W24
 BYTE   An1
 BYTE   N21  En2
 BYTE   W24
 BYTE   An1
 BYTE   N21  En2
 BYTE   W24
 BYTE   As1
 BYTE   N21  Fn2
 BYTE   W24
//  #03 //001   ----------------------------------------
Label_559CA0:
 BYTE   N21  An1  v100
 BYTE   N21  En2
 BYTE   W24
 BYTE   An1
 BYTE   N21  En2
 BYTE   W24
 BYTE   An1
 BYTE   N21  En2
 BYTE   W24
 BYTE   As1
 BYTE   N21  Fn2
 BYTE   W24
 BYTE   PEND 
//  #03 //002   ----------------------------------------
 BYTE   PATT
  POIN2 Label_559CA0
//  #03 //003   ----------------------------------------
 BYTE   PATT
  POIN2 Label_559CA0
//  #03 //004   ----------------------------------------
 BYTE   PATT
  POIN2 Label_559CA0
//  #03 //005   ----------------------------------------
 BYTE   N21  An1  v100
 BYTE   N21  En2
 BYTE   W24
 BYTE   An1
 BYTE   N21  En2
 BYTE   W24
 BYTE   An1
 BYTE   N21  En2
 BYTE   W24
 BYTE   Gs1
 BYTE   N21  Ds2
 BYTE   W24
//  #03 //006   ----------------------------------------
 BYTE   PATT
  POIN2 Label_559CA0
//  #03 //007   ----------------------------------------
 BYTE   PATT
  POIN2 Label_559CA0
//  #03 //008   ----------------------------------------
 BYTE   PATT
  POIN2 Label_559CA0
//  #03 //009   ----------------------------------------
 BYTE   N21  An1  v100
 BYTE   N21  En2
 BYTE   W24
 BYTE   An1
 BYTE   N21  En2
 BYTE   W24
 BYTE   An1
 BYTE   N21  En2
 BYTE   W24
 BYTE   Gn1
 BYTE   N21  Dn2
 BYTE   W24
//  #03 //010   ----------------------------------------
Label_559CF5:
 BYTE   N21  Fs1  v100
 BYTE   N21  Cs2
 BYTE   W24
 BYTE   Fs1
 BYTE   N21  Cs2
 BYTE   W24
 BYTE   Fs1
 BYTE   N21  Cs2
 BYTE   W24
 BYTE   Gn1
 BYTE   N21  Dn2
 BYTE   W24
 BYTE   PEND 
//  #03 //011   ----------------------------------------
 BYTE   PATT
  POIN2 Label_559CF5
//  #03 //012   ----------------------------------------
 BYTE   PATT
  POIN2 Label_559CF5
//  #03 //013   ----------------------------------------
 BYTE   PATT
  POIN2 Label_559CF5
//  #03 //014   ----------------------------------------
 BYTE   PATT
  POIN2 Label_559CF5
//  #03 //015   ----------------------------------------
Label_559D1C:
 BYTE   N21  Fs1  v100
 BYTE   N21  Cs2
 BYTE   W24
 BYTE   Fs1
 BYTE   N21  Cs2
 BYTE   W24
 BYTE   Fs1
 BYTE   N21  Cs2
 BYTE   W24
 BYTE   Fn1
 BYTE   N21  Cn2
 BYTE   W24
 BYTE   PEND 
//  #03 //016   ----------------------------------------
 BYTE   PATT
  POIN2 Label_559CF5
//  #03 //017   ----------------------------------------
 BYTE   PATT
  POIN2 Label_559CF5
//  #03 //018   ----------------------------------------
 BYTE   PATT
  POIN2 Label_559CF5
//  #03 //019   ----------------------------------------
 BYTE   PATT
  POIN2 Label_559D1C
//  #03 //020   ----------------------------------------
Label_559D43:
 BYTE   N10  Fs1  v100
 BYTE   N10  Cs2
 BYTE   W12
 BYTE   Fs1
 BYTE   N10  Cs2
 BYTE   W12
 BYTE   Gn1
 BYTE   N10  Dn2
 BYTE   W12
 BYTE   Gn1
 BYTE   N10  Dn2
 BYTE   W12
 BYTE   Fs1
 BYTE   N10  Cs2
 BYTE   W12
 BYTE   Fs1
 BYTE   N10  Cs2
 BYTE   W12
 BYTE   Gn1
 BYTE   N10  Dn2
 BYTE   W12
 BYTE   Gn1
 BYTE   N10  Dn2
 BYTE   W12
 BYTE   PEND 
//  #03 //021   ----------------------------------------
 BYTE   PATT
  POIN2 Label_559D43
//  #03 //022   ----------------------------------------
 BYTE   PATT
  POIN2 Label_559D43
//  #03 //023   ----------------------------------------
 BYTE   PATT
  POIN2 Label_559D43
//  #03 //024   ----------------------------------------
 BYTE   PATT
  POIN2 Label_559D43
//  #03 //025   ----------------------------------------
 BYTE   PATT
  POIN2 Label_559D43
//  #03 //026   ----------------------------------------
Label_559D7F:
 BYTE   N10  Gn1  v100
 BYTE   N10  Dn2
 BYTE   W12
 BYTE   Gn1
 BYTE   N10  Dn2
 BYTE   W12
 BYTE   Gs1
 BYTE   N10  Ds2
 BYTE   W12
 BYTE   Gs1
 BYTE   N10  Ds2
 BYTE   W12
 BYTE   Gn1
 BYTE   N10  Dn2
 BYTE   W12
 BYTE   Gn1
 BYTE   N10  Dn2
 BYTE   W12
 BYTE   Gs1
 BYTE   N10  Ds2
 BYTE   W12
 BYTE   Gs1
 BYTE   N10  Ds2
 BYTE   W12
 BYTE   PEND 
//  #03 //027   ----------------------------------------
 BYTE   PATT
  POIN2 Label_559D7F
//  #03 //028   ----------------------------------------
 BYTE   PATT
  POIN2 Label_559D7F
//  #03 //029   ----------------------------------------
 BYTE   N10  Gn1  v100
 BYTE   N10  Dn2
 BYTE   W12
 BYTE   Gn1
 BYTE   N10  Dn2
 BYTE   W12
 BYTE   Gs1
 BYTE   N10  Ds2
 BYTE   W12
 BYTE   Gs1
 BYTE   N10  Ds2
 BYTE   W12
 BYTE   Gn1
 BYTE   N10  Dn2
 BYTE   W12
 BYTE   Gn1
 BYTE   N10  Dn2
 BYTE   W12
 BYTE   Fs1
 BYTE   N10  Cs2
 BYTE   W12
 BYTE   Fs1
 BYTE   N10  Cs2
 BYTE   W12
//  #03 //030   ----------------------------------------
Label_559DCE:
 BYTE   N10  An1  v100
 BYTE   N10  En2
 BYTE   W12
 BYTE   An1
 BYTE   N10  En2
 BYTE   W12
 BYTE   As1
 BYTE   N10  Fn2
 BYTE   W12
 BYTE   As1
 BYTE   N10  Fn2
 BYTE   W12
 BYTE   An1
 BYTE   N10  En2
 BYTE   W12
 BYTE   An1
 BYTE   N10  En2
 BYTE   W12
 BYTE   As1
 BYTE   N10  Fn2
 BYTE   W12
 BYTE   As1
 BYTE   N10  Fn2
 BYTE   W12
 BYTE   PEND 
//  #03 //031   ----------------------------------------
 BYTE   PATT
  POIN2 Label_559DCE
//  #03 //032   ----------------------------------------
 BYTE   PATT
  POIN2 Label_559CA0
//  #03 //033   ----------------------------------------
 BYTE   PATT
  POIN2 Label_559CA0
//  #03 //034   ----------------------------------------
 BYTE   GoTo
  POIN2 Label_559CA0
 BYTE   FINE

//**************** Track 4 (Midi-Chn.3) ****************//

AlmEnemyPhase_004:
//  #04 //000   ----------------------------------------
 BYTE   KEYSH   AlmEnemyPhase_key+0
 BYTE   VOICE   32
 BYTE   VOL   48*AlmEnemyPhase_mvl/mxv
 BYTE   W96
//  #04 //001   ----------------------------------------
Label_55A0FB:
 BYTE   W96
//  #04 //002   ----------------------------------------
 BYTE   W96
//  #04 //003   ----------------------------------------
 BYTE   W96
//  #04 //004   ----------------------------------------
 BYTE   W96
//  #04 //005   ----------------------------------------
 BYTE   W96
//  #04 //006   ----------------------------------------
 BYTE   W96
//  #04 //007   ----------------------------------------
 BYTE   W96
//  #04 //008   ----------------------------------------
 BYTE   W96
//  #04 //009   ----------------------------------------
 BYTE   W96
//  #04 //010   ----------------------------------------
 BYTE   W96
//  #04 //011   ----------------------------------------
 BYTE   W96
//  #04 //012   ----------------------------------------
 BYTE   W96
//  #04 //013   ----------------------------------------
 BYTE   W96
//  #04 //014   ----------------------------------------
 BYTE   W96
//  #04 //015   ----------------------------------------
 BYTE   W96
//  #04 //016   ----------------------------------------
 BYTE   W96
//  #04 //017   ----------------------------------------
 BYTE   W96
//  #04 //018   ----------------------------------------
 BYTE   W96
//  #04 //019   ----------------------------------------
 BYTE   W96
//  #04 //020   ----------------------------------------
 BYTE   W96
//  #04 //021   ----------------------------------------
 BYTE   W96
//  #04 //022   ----------------------------------------
 BYTE   N21  Cs3  v124
 BYTE   W01
 BYTE   W01
 BYTE   W01
 BYTE   W01
 BYTE   W01
 BYTE   W01
 BYTE   W01
 BYTE   W01
 BYTE   W03
 BYTE   W03
 BYTE   W10
 BYTE   Fs2
 BYTE   W24
 BYTE   Gs2
 BYTE   W24
 BYTE   Bn2
 BYTE   W24
//  #04 //023   ----------------------------------------
 BYTE   N42  An2
 BYTE   W48
 BYTE   Gs2
 BYTE   W48
//  #04 //024   ----------------------------------------
 BYTE   N21  Fs2
 BYTE   W24
 BYTE   Gs2
 BYTE   W24
 BYTE   An2
 BYTE   W24
 BYTE   En3
 BYTE   W24
//  #04 //025   ----------------------------------------
 BYTE   N84  Cs3
 BYTE   W68
 BYTE   W02
 BYTE   PAN   c_v+3
 BYTE   W21
 BYTE   PAN   c_v+56
 BYTE   W03
 BYTE   PAN   c_v+57
 BYTE   W02
//  #04 //026   ----------------------------------------
 BYTE   N42  Dn3  v127
 BYTE   W48
 BYTE   Cn3
 BYTE   W48
//  #04 //027   ----------------------------------------
 BYTE   N21  As2
 BYTE   W24
 BYTE   An2
 BYTE   W24
 BYTE   As2
 BYTE   W24
 BYTE   Cn3
 BYTE   W24
//  #04 //028   ----------------------------------------
 BYTE   TIE  Gn2
 BYTE   W96
//  #04 //029   ----------------------------------------
 BYTE   W64
 BYTE   EOT
 BYTE   W32
//  #04 //030   ----------------------------------------
 BYTE   N42  En3
 BYTE   W48
 BYTE   Dn3
 BYTE   W48
//  #04 //031   ----------------------------------------
 BYTE   N21  Cn3
 BYTE   W24
 BYTE   An2
 BYTE   W24
 BYTE   Gs2
 BYTE   W24
 BYTE   Bn2
 BYTE   W24
//  #04 //032   ----------------------------------------
 BYTE   TIE  An2
 BYTE   W96
//  #04 //033   ----------------------------------------
 BYTE   W42
 BYTE   W01
 BYTE   EOT
 BYTE   W48
 BYTE   PAN   c_v+2
 BYTE   W05
//  #04 //034   ----------------------------------------
 BYTE   GoTo
  POIN2 Label_55A0FB
 BYTE   FINE

//**************** Track 5 (Midi-Chn.4) ****************//

AlmEnemyPhase_005:
//  #05 //000   ----------------------------------------
 BYTE   KEYSH   AlmEnemyPhase_key+0
 BYTE   VOICE   57
 BYTE   VOL   54*AlmEnemyPhase_mvl/mxv
 BYTE   W96
//  #05 //001   ----------------------------------------
Label_55A177:
 BYTE   W96
//  #05 //002   ----------------------------------------
 BYTE   W96
//  #05 //003   ----------------------------------------
 BYTE   W96
//  #05 //004   ----------------------------------------
 BYTE   W96
//  #05 //005   ----------------------------------------
 BYTE   N09  An3  v084
 BYTE   W12
 BYTE   N03
 BYTE   W06
 BYTE   N03
 BYTE   W06
 BYTE   N09
 BYTE   W12
 BYTE   N03
 BYTE   W06
 BYTE   N04  Dn4
 BYTE   W06
 BYTE   N24  Ds4
 BYTE   W24
 BYTE   N21  Gs3
 BYTE   W24
//  #05 //006   ----------------------------------------
 BYTE   N48  An3
 BYTE   W72
 BYTE   N21  Bn3
 BYTE   W24
//  #05 //007   ----------------------------------------
Label_55A196:
 BYTE   N48  Cn4  v084
 BYTE   W72
 BYTE   N21  Bn3
 BYTE   W24
 BYTE   PEND 
//  #05 //008   ----------------------------------------
 BYTE   PATT
  POIN2 Label_55A196
//  #05 //009   ----------------------------------------
 BYTE   N90  An3  v084
 BYTE   W96
//  #05 //010   ----------------------------------------
 BYTE   W96
//  #05 //011   ----------------------------------------
 BYTE   W96
//  #05 //012   ----------------------------------------
 BYTE   W96
//  #05 //013   ----------------------------------------
 BYTE   W96
//  #05 //014   ----------------------------------------
 BYTE   W96
//  #05 //015   ----------------------------------------
 BYTE   W96
//  #05 //016   ----------------------------------------
 BYTE   N42  Cs4
 BYTE   W48
 BYTE   Bn3
 BYTE   W48
//  #05 //017   ----------------------------------------
 BYTE   N21  Gs3
 BYTE   W24
 BYTE   Fs3
 BYTE   W24
 BYTE   Gs3  v088
 BYTE   W24
 BYTE   Bn3
 BYTE   W24
//  #05 //018   ----------------------------------------
 BYTE   TIE  Fs3
 BYTE   W96
//  #05 //019   ----------------------------------------
 BYTE   W64
 BYTE   EOT
 BYTE   W32
//  #05 //020   ----------------------------------------
 BYTE   W96
//  #05 //021   ----------------------------------------
 BYTE   W56
 BYTE   W02
 BYTE   W01
 BYTE   W02
 BYTE   W01
 BYTE   W02
 BYTE   W01
 BYTE   W02
 BYTE   W01
 BYTE   W02
 BYTE   W01
 BYTE   W02
 BYTE   W01
 BYTE   W02
 BYTE   W04
 BYTE   W03
 BYTE   W03
 BYTE   W01
 BYTE   W01
 BYTE   W02
 BYTE   W01
 BYTE   W01
 BYTE   W01
 BYTE   W01
 BYTE   W01
 BYTE   W01
//  #05 //022   ----------------------------------------
 BYTE   N21  Cs3  v124
 BYTE   W01
 BYTE   W01
 BYTE   W01
 BYTE   W01
 BYTE   W01
 BYTE   W01
 BYTE   W01
 BYTE   W01
 BYTE   W03
 BYTE   W03
 BYTE   W10
 BYTE   Fs2
 BYTE   W24
 BYTE   Gs2
 BYTE   W24
 BYTE   Bn2
 BYTE   W24
//  #05 //023   ----------------------------------------
 BYTE   N42  An2
 BYTE   W48
 BYTE   Gs2
 BYTE   W48
//  #05 //024   ----------------------------------------
 BYTE   N21  Fs2
 BYTE   W24
 BYTE   Gs2
 BYTE   W24
 BYTE   An2
 BYTE   W24
 BYTE   En3
 BYTE   W24
//  #05 //025   ----------------------------------------
 BYTE   N84  Cs3
 BYTE   W96
//  #05 //026   ----------------------------------------
 BYTE   N42  Dn3  v127
 BYTE   W48
 BYTE   Cn3
 BYTE   W48
//  #05 //027   ----------------------------------------
 BYTE   N21  As2
 BYTE   W24
 BYTE   An2
 BYTE   W24
 BYTE   As2
 BYTE   W24
 BYTE   Cn3
 BYTE   W24
//  #05 //028   ----------------------------------------
 BYTE   TIE  Gn2
 BYTE   W96
//  #05 //029   ----------------------------------------
 BYTE   W64
 BYTE   EOT
 BYTE   W28
 BYTE   W01
 BYTE   PAN   c_v-35
 BYTE   W03
//  #05 //030   ----------------------------------------
 BYTE   N42  En3
 BYTE   W05
 BYTE   PAN   c_v-36
 BYTE   W42
 BYTE   W01
 BYTE   N42  Dn3
 BYTE   W48
//  #05 //031   ----------------------------------------
 BYTE   N21  Cn3
 BYTE   W24
 BYTE   An2
 BYTE   W24
 BYTE   Gs2
 BYTE   W24
 BYTE   Bn2
 BYTE   W14
 BYTE   PAN   c_v-37
 BYTE   W10
//  #05 //032   ----------------------------------------
 BYTE   TIE  An2
 BYTE   W06
 BYTE   PAN   c_v-36
 BYTE   W90
//  #05 //033   ----------------------------------------
 BYTE   W42
 BYTE   W01
 BYTE   EOT
 BYTE   W42
 BYTE   PAN   c_v+0
 BYTE   W10
 BYTE   PAN   c_v+1
 BYTE   W01
//  #05 //034   ----------------------------------------
 BYTE   GoTo
  POIN2 Label_55A177
 BYTE   FINE

//**************** Track 6 (Midi-Chn.5) ****************//

AlmEnemyPhase_006:
//  #06 //000   ----------------------------------------
 BYTE   KEYSH   AlmEnemyPhase_key+0
 BYTE   VOICE   121
 BYTE   VOL   62*AlmEnemyPhase_mvl/mxv
 BYTE   N01  Cs0  v100
 BYTE   N01  Bn0
 BYTE   N01  Cn1
 BYTE   N01  Dn1
 BYTE   N01  Fs1
 BYTE   W12
 BYTE   N01
 BYTE   W06
 BYTE   N01
 BYTE   W06
 BYTE   Cs0
 BYTE   N01  Cn1
 BYTE   N01  Dn1
 BYTE   N01  Fs1
 BYTE   W12
 BYTE   N01
 BYTE   W06
 BYTE   N01
 BYTE   W06
 BYTE   Cs0
 BYTE   N01  Bn0
 BYTE   N01  Cn1
 BYTE   N01  Dn1
 BYTE   N01  Fs1
 BYTE   W12
 BYTE   N01
 BYTE   W06
 BYTE   N01
 BYTE   W06
 BYTE   N21  Cs0
 BYTE   N01  Cn1
 BYTE   N01  Dn1
 BYTE   N01  Fs1
 BYTE   W06
 BYTE   N01
 BYTE   W06
 BYTE   N01
 BYTE   W06
 BYTE   N01
 BYTE   W06
//  #06 //001   ----------------------------------------
Label_55A287:
 BYTE   N01  Cs0  v100
 BYTE   N01  Bn0
 BYTE   N01  Cn1
 BYTE   N01  Dn1
 BYTE   N01  Fs1
 BYTE   W12
 BYTE   N01
 BYTE   W06
 BYTE   N01
 BYTE   W06
 BYTE   Cs0
 BYTE   N01  Cn1
 BYTE   N01  Dn1
 BYTE   N01  Fs1
 BYTE   W12
 BYTE   N01
 BYTE   W06
 BYTE   N01
 BYTE   W06
 BYTE   Cs0
 BYTE   N01  Bn0
 BYTE   N01  Cn1
 BYTE   N01  Dn1
 BYTE   N01  Fs1
 BYTE   W12
 BYTE   N01
 BYTE   W06
 BYTE   N01
 BYTE   W06
 BYTE   N21  Cs0
 BYTE   N01  Cn1
 BYTE   N01  Dn1
 BYTE   N01  Fs1
 BYTE   W06
 BYTE   N01
 BYTE   W06
 BYTE   N01
 BYTE   W06
 BYTE   N01
 BYTE   W06
 BYTE   PEND 
//  #06 //002   ----------------------------------------
Label_55A2C1:
 BYTE   N01  Cs0  v100
 BYTE   N01  Bn0
 BYTE   N01  Cn1
 BYTE   N01  Dn1
 BYTE   N01  Fs1
 BYTE   N01  Cs2
 BYTE   W12
 BYTE   Fs1
 BYTE   W06
 BYTE   N01
 BYTE   W06
 BYTE   Cs0
 BYTE   N01  Cn1
 BYTE   N01  Dn1
 BYTE   N01  Fs1
 BYTE   W12
 BYTE   N01
 BYTE   W06
 BYTE   N01
 BYTE   W06
 BYTE   Cs0
 BYTE   N01  Bn0
 BYTE   N01  Cn1
 BYTE   N01  Dn1
 BYTE   N01  Fs1
 BYTE   W12
 BYTE   N01
 BYTE   W06
 BYTE   N01
 BYTE   W06
 BYTE   N21  Cs0
 BYTE   N01  Cn1
 BYTE   N01  Dn1
 BYTE   N01  Fs1
 BYTE   W06
 BYTE   N01
 BYTE   W06
 BYTE   N01
 BYTE   W06
 BYTE   N01
 BYTE   W06
 BYTE   PEND 
//  #06 //003   ----------------------------------------
 BYTE   PATT
  POIN2 Label_55A287
//  #06 //004   ----------------------------------------
 BYTE   PATT
  POIN2 Label_55A287
//  #06 //005   ----------------------------------------
 BYTE   N01  Cs0  v100
 BYTE   N01  Bn0
 BYTE   N01  Cn1
 BYTE   N01  Dn1
 BYTE   N01  Fs1
 BYTE   W12
 BYTE   N01
 BYTE   W06
 BYTE   N01
 BYTE   W06
 BYTE   Cs0
 BYTE   N01  Cn1
 BYTE   N01  Dn1
 BYTE   N01  Fs1
 BYTE   W12
 BYTE   N01
 BYTE   W06
 BYTE   N01
 BYTE   W06
 BYTE   Cs0
 BYTE   N01  Bn0
 BYTE   N01  Cn1
 BYTE   N01  Dn1
 BYTE   N01  Fs1
 BYTE   W12
 BYTE   N01
 BYTE   W06
 BYTE   N01
 BYTE   W06
 BYTE   N22  Cs0
 BYTE   N01  Cn1
 BYTE   N01  Dn1
 BYTE   N01  Fs1
 BYTE   W06
 BYTE   N01
 BYTE   W06
 BYTE   N01
 BYTE   W06
 BYTE   N01
 BYTE   W06
//  #06 //006   ----------------------------------------
 BYTE   Cs0  v064
 BYTE   N01  Bn0  v100
 BYTE   N01  Cn1
 BYTE   N01  Dn1
 BYTE   N01  Fs1
 BYTE   W12
 BYTE   N01
 BYTE   W06
 BYTE   N01
 BYTE   W06
 BYTE   Cs0
 BYTE   N01  Cn1
 BYTE   N01  Dn1
 BYTE   N01  Fs1
 BYTE   W12
 BYTE   N01
 BYTE   W06
 BYTE   N01
 BYTE   W06
 BYTE   Cs0
 BYTE   N01  Bn0
 BYTE   N01  Cn1
 BYTE   N01  Dn1
 BYTE   N01  Fs1
 BYTE   W12
 BYTE   N01
 BYTE   W06
 BYTE   N01
 BYTE   W06
 BYTE   N21  Cs0
 BYTE   N01  Cn1
 BYTE   N01  Dn1
 BYTE   N01  Fs1
 BYTE   W06
 BYTE   N01
 BYTE   W06
 BYTE   N01
 BYTE   W06
 BYTE   N01
 BYTE   W06
//  #06 //007   ----------------------------------------
 BYTE   PATT
  POIN2 Label_55A287
//  #06 //008   ----------------------------------------
 BYTE   PATT
  POIN2 Label_55A287
//  #06 //009   ----------------------------------------
 BYTE   PATT
  POIN2 Label_55A287
//  #06 //010   ----------------------------------------
 BYTE   PATT
  POIN2 Label_55A2C1
//  #06 //011   ----------------------------------------
 BYTE   PATT
  POIN2 Label_55A287
//  #06 //012   ----------------------------------------
 BYTE   PATT
  POIN2 Label_55A287
//  #06 //013   ----------------------------------------
 BYTE   PATT
  POIN2 Label_55A287
//  #06 //014   ----------------------------------------
 BYTE   PATT
  POIN2 Label_55A287
//  #06 //015   ----------------------------------------
 BYTE   PATT
  POIN2 Label_55A287
//  #06 //016   ----------------------------------------
 BYTE   PATT
  POIN2 Label_55A287
//  #06 //017   ----------------------------------------
 BYTE   PATT
  POIN2 Label_55A287
//  #06 //018   ----------------------------------------
 BYTE   PATT
  POIN2 Label_55A287
//  #06 //019   ----------------------------------------
 BYTE   PATT
  POIN2 Label_55A287
//  #06 //020   ----------------------------------------
 BYTE   PATT
  POIN2 Label_55A287
//  #06 //021   ----------------------------------------
 BYTE   PATT
  POIN2 Label_55A287
//  #06 //022   ----------------------------------------
 BYTE   PATT
  POIN2 Label_55A2C1
//  #06 //023   ----------------------------------------
 BYTE   PATT
  POIN2 Label_55A287
//  #06 //024   ----------------------------------------
 BYTE   PATT
  POIN2 Label_55A287
//  #06 //025   ----------------------------------------
 BYTE   PATT
  POIN2 Label_55A287
//  #06 //026   ----------------------------------------
 BYTE   PATT
  POIN2 Label_55A287
//  #06 //027   ----------------------------------------
 BYTE   PATT
  POIN2 Label_55A287
//  #06 //028   ----------------------------------------
 BYTE   PATT
  POIN2 Label_55A287
//  #06 //029   ----------------------------------------
 BYTE   PATT
  POIN2 Label_55A287
//  #06 //030   ----------------------------------------
 BYTE   PATT
  POIN2 Label_55A287
//  #06 //031   ----------------------------------------
 BYTE   N01  Cs0  v100
 BYTE   N01  Bn0
 BYTE   N01  Cn1
 BYTE   N01  Dn1
 BYTE   N01  Fs1
 BYTE   W12
 BYTE   N01
 BYTE   W06
 BYTE   N01
 BYTE   W06
 BYTE   Cs0
 BYTE   N01  Cn1
 BYTE   N01  Dn1
 BYTE   N01  Fs1
 BYTE   W12
 BYTE   N01
 BYTE   W06
 BYTE   N01
 BYTE   W06
 BYTE   N24  Cs0
 BYTE   N01  Bn0
 BYTE   N01  Cn1
 BYTE   N01  Dn1
 BYTE   N01  Fs1
 BYTE   N01  Ds2
 BYTE   W08
 BYTE   Cn1
 BYTE   W04
 BYTE   Fs1
 BYTE   W04
 BYTE   Cn1
 BYTE   W02
 BYTE   Fs1
 BYTE   W06
 BYTE   N21  Cs0
 BYTE   N01  Cn1
 BYTE   N01  Dn1
 BYTE   N01  Fs1
 BYTE   W06
 BYTE   N01
 BYTE   W02
 BYTE   Cn1
 BYTE   W04
 BYTE   Fs1
 BYTE   W04
 BYTE   Cn1
 BYTE   W02
 BYTE   Fs1
 BYTE   W06
//  #06 //032   ----------------------------------------
 BYTE   PATT
  POIN2 Label_55A2C1
//  #06 //033   ----------------------------------------
 BYTE   PATT
  POIN2 Label_55A287
//  #06 //034   ----------------------------------------
 BYTE   GoTo
  POIN2 Label_55A287
 BYTE   FINE

//**************** Track 7 (Midi-Chn.6) ****************//

AlmEnemyPhase_007:
//  #07 //000   ----------------------------------------
 BYTE   KEYSH   AlmEnemyPhase_key+0
 BYTE   VOICE   47
 BYTE   VOL   67*AlmEnemyPhase_mvl/mxv
 BYTE   N21  Fs2  v104
 BYTE   W72
 BYTE   Cn3  v084
 BYTE   W24
//  #07 //001   ----------------------------------------
Label_011692A5:
 BYTE   N21  Fs2  v104
 BYTE   W72
 BYTE   Cn3  v084
 BYTE   W24
 BYTE   PEND 
//  #07 //002   ----------------------------------------
 BYTE   PATT
  POIN2 Label_011692A5
//  #07 //003   ----------------------------------------
 BYTE   PATT
  POIN2 Label_011692A5
//  #07 //004   ----------------------------------------
 BYTE   PATT
  POIN2 Label_011692A5
//  #07 //005   ----------------------------------------
 BYTE   PATT
  POIN2 Label_011692A5
//  #07 //006   ----------------------------------------
 BYTE   PATT
  POIN2 Label_011692A5
//  #07 //007   ----------------------------------------
 BYTE   PATT
  POIN2 Label_011692A5
//  #07 //008   ----------------------------------------
 BYTE   PATT
  POIN2 Label_011692A5
//  #07 //009   ----------------------------------------
 BYTE   PATT
  POIN2 Label_011692A5
//  #07 //010   ----------------------------------------
Label_011692D5:
 BYTE   N21  En2  v104
 BYTE   W72
 BYTE   An2  v084
 BYTE   W24
 BYTE   PEND 
//  #07 //011   ----------------------------------------
 BYTE   PATT
  POIN2 Label_011692D5
//  #07 //012   ----------------------------------------
 BYTE   PATT
  POIN2 Label_011692D5
//  #07 //013   ----------------------------------------
 BYTE   PATT
  POIN2 Label_011692D5
//  #07 //014   ----------------------------------------
 BYTE   PATT
  POIN2 Label_011692D5
//  #07 //015   ----------------------------------------
 BYTE   PATT
  POIN2 Label_011692D5
//  #07 //016   ----------------------------------------
 BYTE   PATT
  POIN2 Label_011692D5
//  #07 //017   ----------------------------------------
 BYTE   PATT
  POIN2 Label_011692D5
//  #07 //018   ----------------------------------------
 BYTE   PATT
  POIN2 Label_011692D5
//  #07 //019   ----------------------------------------
 BYTE   PATT
  POIN2 Label_011692D5
//  #07 //020   ----------------------------------------
Label_0116930A:
 BYTE   N12  En2  v104
 BYTE   W24
 BYTE   N06  En2  v084
 BYTE   W24
 BYTE   N12  En2  v104
 BYTE   W24
 BYTE   N06  En2  v084
 BYTE   W24
 BYTE   PEND 
//  #07 //021   ----------------------------------------
 BYTE   PATT
  POIN2 Label_0116930A
//  #07 //022   ----------------------------------------
 BYTE   PATT
  POIN2 Label_0116930A
//  #07 //023   ----------------------------------------
 BYTE   PATT
  POIN2 Label_0116930A
//  #07 //024   ----------------------------------------
 BYTE   PATT
  POIN2 Label_0116930A
//  #07 //025   ----------------------------------------
 BYTE   PATT
  POIN2 Label_0116930A
//  #07 //026   ----------------------------------------
Label_01169334:
 BYTE   N12  Fn2  v104
 BYTE   W24
 BYTE   N06  Fn2  v084
 BYTE   W24
 BYTE   N12  Fn2  v104
 BYTE   W24
 BYTE   N06  Fn2  v084
 BYTE   W24
 BYTE   PEND 
//  #07 //027   ----------------------------------------
 BYTE   PATT
  POIN2 Label_01169334
//  #07 //028   ----------------------------------------
 BYTE   PATT
  POIN2 Label_01169334
//  #07 //029   ----------------------------------------
 BYTE   PATT
  POIN2 Label_01169334
//  #07 //030   ----------------------------------------
Label_01169354:
 BYTE   N12  Gn2  v104
 BYTE   W24
 BYTE   N06  Gn2  v084
 BYTE   W24
 BYTE   N12  Gn2  v104
 BYTE   W24
 BYTE   N21  Cn3  v084
 BYTE   W24
 BYTE   PEND 
//  #07 //031   ----------------------------------------
 BYTE   PATT
  POIN2 Label_01169354
//  #07 //032   ----------------------------------------
 BYTE   PATT
  POIN2 Label_01169354
//  #07 //033   ----------------------------------------
 BYTE   PATT
  POIN2 Label_01169354
//  #07 //034   ----------------------------------------
 BYTE   GoTo
  POIN2 Label_011692A5
 BYTE   FINE

//******************************************************//
	ALIGN 4

AlmEnemyPhase:
	BYTE	7	// NumTrks
	BYTE	0	// NumBlks
	BYTE	AlmEnemyPhase_pri	// Priority
	BYTE	AlmEnemyPhase_rev	// Reverb.
    
	POIN2	AlmEnemyPhase_grp
    
	POIN2	AlmEnemyPhase_001
	POIN2	AlmEnemyPhase_002
	POIN2	AlmEnemyPhase_003
	POIN2	AlmEnemyPhase_004
	POIN2	AlmEnemyPhase_005
	POIN2	AlmEnemyPhase_006
	POIN2	AlmEnemyPhase_007

	
