//Event file generated from Sappy .s format.
	

	#define	ArmyOfLeif_grp  voicegroup000
	#define	ArmyOfLeif_pri  0
	#define	ArmyOfLeif_rev  0
	#define	ArmyOfLeif_mvl  127
	#define	ArmyOfLeif_key  0
	#define	ArmyOfLeif_tbs  1
	#define	ArmyOfLeif_exg  0
	#define	ArmyOfLeif_cmp  1

	// .rodata
	//	ArmyOfLeif
	ALIGN 4


//**************** Track 1 (Midi-Chn.0) ****************//

ArmyOfLeif_001:
//  #01 //000   ----------------------------------------
 BYTE   KEYSH   ArmyOfLeif_key+0
 BYTE   TEMPO   112*ArmyOfLeif_tbs/2
 BYTE   VOICE   57
 BYTE   VOL   65*ArmyOfLeif_mvl/mxv
 BYTE   W84
 BYTE   N06  Fn2  v112
 BYTE   W06
 BYTE   As2
 BYTE   W06
//  #01 //001   ----------------------------------------
Label_0167245F:
 BYTE   N72  Cn3  v112
 BYTE   W84
 BYTE   N06  As2
 BYTE   W06
 BYTE   Cn3
 BYTE   W06
 BYTE   PEND 
//  #01 //002   ----------------------------------------
Label_01672469:
 BYTE   N72  Dn3  v112
 BYTE   W84
 BYTE   N06  Cn3
 BYTE   W06
 BYTE   Dn3
 BYTE   W06
 BYTE   PEND 
//  #01 //003   ----------------------------------------
Label_01672473:
 BYTE   N72  Ds3  v112
 BYTE   W84
 BYTE   N06  Dn3
 BYTE   W06
 BYTE   Cn3
 BYTE   W06
 BYTE   PEND 
//  #01 //004   ----------------------------------------
Label_0167247D:
 BYTE   N72  Dn3  v112
 BYTE   W84
 BYTE   N06  Fn2
 BYTE   W06
 BYTE   As2
 BYTE   W06
 BYTE   PEND 
//  #01 //005   ----------------------------------------
 BYTE   PATT
  POIN2 Label_0167245F
//  #01 //006   ----------------------------------------
 BYTE   PATT
  POIN2 Label_01672469
//  #01 //007   ----------------------------------------
Label_01672491:
 BYTE   N72  Ds3  v112
 BYTE   W84
 BYTE   N06  Fn3
 BYTE   W06
 BYTE   Cn3
 BYTE   W06
 BYTE   PEND 
//  #01 //008   ----------------------------------------
Label_0167249B:
 BYTE   N06  Cn3  v112
 BYTE   W06
 BYTE   Dn3
 BYTE   W06
 BYTE   N60
 BYTE   W84
 BYTE   PEND 
//  #01 //009   ----------------------------------------
Label_016724A4:
 BYTE   N42  Dn3  v100
 BYTE   W48
 BYTE   Ds3
 BYTE   W48
 BYTE   PEND 
//  #01 //010   ----------------------------------------
Label_016724AB:
 BYTE   N18  Dn3  v100
 BYTE   W24
 BYTE   Gn3
 BYTE   W24
 BYTE   Fn3
 BYTE   W24
 BYTE   Cn3
 BYTE   W24
 BYTE   PEND 
//  #01 //011   ----------------------------------------
Label_016724B6:
 BYTE   N42  Dn3  v100
 BYTE   W48
 BYTE   Fn3
 BYTE   W48
 BYTE   PEND 
//  #01 //012   ----------------------------------------
Label_016724BD:
 BYTE   N42  Gn3  v100
 BYTE   W48
 BYTE   Dn3
 BYTE   W48
 BYTE   PEND 
//  #01 //013   ----------------------------------------
 BYTE   PATT
  POIN2 Label_016724A4
//  #01 //014   ----------------------------------------
Label_016724C9:
 BYTE   N18  Cn3  v100
 BYTE   W24
 BYTE   Fn3
 BYTE   W24
 BYTE   Ds3
 BYTE   W24
 BYTE   Gn3
 BYTE   W24
 BYTE   PEND 
//  #01 //015   ----------------------------------------
 BYTE   N84  Gs3
 BYTE   W96
//  #01 //016   ----------------------------------------
 BYTE   N72  Fn3
 BYTE   W96
//  #01 //017   ----------------------------------------
 BYTE   W96
//  #01 //018   ----------------------------------------
 BYTE   W96
//  #01 //019   ----------------------------------------
 BYTE   W96
//  #01 //020   ----------------------------------------
 BYTE   W96
//  #01 //021   ----------------------------------------
 BYTE   W96
//  #01 //022   ----------------------------------------
 BYTE   W96
//  #01 //023   ----------------------------------------
 BYTE   W96
//  #01 //024   ----------------------------------------
 BYTE   W96
//  #01 //025   ----------------------------------------
 BYTE   W96
//  #01 //026   ----------------------------------------
Label_016724E3:
 BYTE   W84
 BYTE   N06  Ds3  v100
 BYTE   W06
 BYTE   Fn3
 BYTE   W06
 BYTE   PEND 
//  #01 //027   ----------------------------------------
Label_016724EB:
 BYTE   N36  Gn3  v092
 BYTE   W36
 BYTE   N12  Ds3  v100
 BYTE   W12
 BYTE   N24  As2
 BYTE   W24
 BYTE   Gn3
 BYTE   W24
 BYTE   PEND 
//  #01 //028   ----------------------------------------
Label_016724F9:
 BYTE   N36  Gn3  v092
 BYTE   W36
 BYTE   N06  An3  v100
 BYTE   W06
 BYTE   Gn3
 BYTE   W06
 BYTE   N24  Fs3  v092
 BYTE   W24
 BYTE   Dn3  v100
 BYTE   W24
 BYTE   PEND 
//  #01 //029   ----------------------------------------
Label_0167250B:
 BYTE   N36  As3  v092
 BYTE   W36
 BYTE   N12  As3  v100
 BYTE   W12
 BYTE   N18  An3
 BYTE   W18
 BYTE   Gn3
 BYTE   W18
 BYTE   N12  Fn3
 BYTE   W12
 BYTE   PEND 
//  #01 //030   ----------------------------------------
Label_0167251C:
 BYTE   N72  Gn3  v100
 BYTE   W78
 BYTE   N06  As2
 BYTE   W06
 BYTE   Cn3
 BYTE   W06
 BYTE   Fn3
 BYTE   W06
 BYTE   PEND 
//  #01 //031   ----------------------------------------
Label_01672528:
 BYTE   N72  Gn3  v100
 BYTE   W84
 BYTE   N06  Fs3
 BYTE   W06
 BYTE   Gn3
 BYTE   W06
 BYTE   PEND 
//  #01 //032   ----------------------------------------
 BYTE   VOL   65*ArmyOfLeif_mvl/mxv
 BYTE   N72  An3
 BYTE   W84
 BYTE   N06  Fn2  v112
 BYTE   W06
 BYTE   As2
 BYTE   W06
//  #01 //033   ----------------------------------------
 BYTE   PATT
  POIN2 Label_0167245F
//  #01 //034   ----------------------------------------
 BYTE   PATT
  POIN2 Label_01672469
//  #01 //035   ----------------------------------------
 BYTE   PATT
  POIN2 Label_01672473
//  #01 //036   ----------------------------------------
 BYTE   PATT
  POIN2 Label_0167247D
//  #01 //037   ----------------------------------------
 BYTE   PATT
  POIN2 Label_0167245F
//  #01 //038   ----------------------------------------
 BYTE   PATT
  POIN2 Label_01672469
//  #01 //039   ----------------------------------------
 BYTE   PATT
  POIN2 Label_01672491
//  #01 //040   ----------------------------------------
 BYTE   PATT
  POIN2 Label_0167249B
//  #01 //041   ----------------------------------------
 BYTE   PATT
  POIN2 Label_016724A4
//  #01 //042   ----------------------------------------
 BYTE   PATT
  POIN2 Label_016724AB
//  #01 //043   ----------------------------------------
 BYTE   PATT
  POIN2 Label_016724B6
//  #01 //044   ----------------------------------------
 BYTE   PATT
  POIN2 Label_016724BD
//  #01 //045   ----------------------------------------
 BYTE   PATT
  POIN2 Label_016724A4
//  #01 //046   ----------------------------------------
 BYTE   PATT
  POIN2 Label_016724C9
//  #01 //047   ----------------------------------------
 BYTE   N84  Gs3  v100
 BYTE   W96
//  #01 //048   ----------------------------------------
 BYTE   N72  Fn3
 BYTE   W96
//  #01 //049   ----------------------------------------
 BYTE   W96
//  #01 //050   ----------------------------------------
 BYTE   W96
//  #01 //051   ----------------------------------------
 BYTE   W96
//  #01 //052   ----------------------------------------
 BYTE   W96
//  #01 //053   ----------------------------------------
 BYTE   W96
//  #01 //054   ----------------------------------------
 BYTE   W96
//  #01 //055   ----------------------------------------
 BYTE   W96
//  #01 //056   ----------------------------------------
 BYTE   W96
//  #01 //057   ----------------------------------------
 BYTE   W96
//  #01 //058   ----------------------------------------
 BYTE   PATT
  POIN2 Label_016724E3
//  #01 //059   ----------------------------------------
 BYTE   PATT
  POIN2 Label_016724EB
//  #01 //060   ----------------------------------------
 BYTE   PATT
  POIN2 Label_016724F9
//  #01 //061   ----------------------------------------
 BYTE   PATT
  POIN2 Label_0167250B
//  #01 //062   ----------------------------------------
 BYTE   PATT
  POIN2 Label_0167251C
//  #01 //063   ----------------------------------------
 BYTE   PATT
  POIN2 Label_01672528
//  #01 //064   ----------------------------------------
 BYTE   N72  An3  v100
 BYTE   W96
 BYTE   FINE

//**************** Track 2 (Midi-Chn.1) ****************//

ArmyOfLeif_002:
//  #02 //000   ----------------------------------------
 BYTE   KEYSH   ArmyOfLeif_key+0
 BYTE   VOICE   56
 BYTE   VOL   74*ArmyOfLeif_mvl/mxv
 BYTE   W96
//  #02 //001   ----------------------------------------
 BYTE   W96
//  #02 //002   ----------------------------------------
 BYTE   W96
//  #02 //003   ----------------------------------------
 BYTE   W96
//  #02 //004   ----------------------------------------
 BYTE   W96
//  #02 //005   ----------------------------------------
 BYTE   W96
//  #02 //006   ----------------------------------------
 BYTE   W96
//  #02 //007   ----------------------------------------
 BYTE   W96
//  #02 //008   ----------------------------------------
 BYTE   W96
//  #02 //009   ----------------------------------------
 BYTE   W96
//  #02 //010   ----------------------------------------
 BYTE   W96
//  #02 //011   ----------------------------------------
 BYTE   W96
//  #02 //012   ----------------------------------------
 BYTE   W96
//  #02 //013   ----------------------------------------
 BYTE   W96
//  #02 //014   ----------------------------------------
 BYTE   W96
//  #02 //015   ----------------------------------------
 BYTE   W96
//  #02 //016   ----------------------------------------
 BYTE   W96
//  #02 //017   ----------------------------------------
 BYTE   W96
//  #02 //018   ----------------------------------------
Label_016725D0:
 BYTE   W78
 BYTE   N06  Fn2  v112
 BYTE   W06
 BYTE   As2
 BYTE   W06
 BYTE   Cn3
 BYTE   W06
 BYTE   PEND 
//  #02 //019   ----------------------------------------
Label_016725DA:
 BYTE   N72  Dn3  v112
 BYTE   W84
 BYTE   N06  Cn3
 BYTE   W06
 BYTE   Dn3
 BYTE   W06
 BYTE   PEND 
//  #02 //020   ----------------------------------------
Label_016725E4:
 BYTE   N72  Ds3  v112
 BYTE   W84
 BYTE   N06  Dn3
 BYTE   W06
 BYTE   Cn3
 BYTE   W06
 BYTE   PEND 
//  #02 //021   ----------------------------------------
 BYTE   N72  Dn3
 BYTE   W96
//  #02 //022   ----------------------------------------
 BYTE   PATT
  POIN2 Label_016725D0
//  #02 //023   ----------------------------------------
 BYTE   PATT
  POIN2 Label_016725DA
//  #02 //024   ----------------------------------------
 BYTE   PATT
  POIN2 Label_016725E4
//  #02 //025   ----------------------------------------
 BYTE   N72  Dn3  v112
 BYTE   W96
//  #02 //026   ----------------------------------------
 BYTE   W96
//  #02 //027   ----------------------------------------
 BYTE   W96
//  #02 //028   ----------------------------------------
 BYTE   W96
//  #02 //029   ----------------------------------------
 BYTE   W96
//  #02 //030   ----------------------------------------
 BYTE   W96
//  #02 //031   ----------------------------------------
Label_01672609:
 BYTE   N36  Dn4  v100
 BYTE   W36
 BYTE   N06
 BYTE   W06
 BYTE   N06
 BYTE   W06
 BYTE   N06
 BYTE   W12
 BYTE   N06
 BYTE   W12
 BYTE   N06
 BYTE   W12
 BYTE   N06
 BYTE   W12
 BYTE   PEND 
//  #02 //032   ----------------------------------------
Label_0167261A:
 BYTE   N36  Dn4  v100
 BYTE   W36
 BYTE   N06
 BYTE   W06
 BYTE   N06
 BYTE   W06
 BYTE   N06
 BYTE   W12
 BYTE   N12
 BYTE   W36
 BYTE   PEND 
//  #02 //033   ----------------------------------------
 BYTE   W96
//  #02 //034   ----------------------------------------
 BYTE   W96
//  #02 //035   ----------------------------------------
 BYTE   W96
//  #02 //036   ----------------------------------------
 BYTE   W96
//  #02 //037   ----------------------------------------
 BYTE   W96
//  #02 //038   ----------------------------------------
 BYTE   W96
//  #02 //039   ----------------------------------------
 BYTE   W96
//  #02 //040   ----------------------------------------
 BYTE   W96
//  #02 //041   ----------------------------------------
 BYTE   W96
//  #02 //042   ----------------------------------------
 BYTE   W96
//  #02 //043   ----------------------------------------
 BYTE   W96
//  #02 //044   ----------------------------------------
 BYTE   W96
//  #02 //045   ----------------------------------------
 BYTE   W96
//  #02 //046   ----------------------------------------
 BYTE   W96
//  #02 //047   ----------------------------------------
 BYTE   W96
//  #02 //048   ----------------------------------------
 BYTE   W96
//  #02 //049   ----------------------------------------
 BYTE   W96
//  #02 //050   ----------------------------------------
 BYTE   PATT
  POIN2 Label_016725D0
//  #02 //051   ----------------------------------------
 BYTE   PATT
  POIN2 Label_016725DA
//  #02 //052   ----------------------------------------
 BYTE   PATT
  POIN2 Label_016725E4
//  #02 //053   ----------------------------------------
 BYTE   N72  Dn3  v112
 BYTE   W96
//  #02 //054   ----------------------------------------
 BYTE   PATT
  POIN2 Label_016725D0
//  #02 //055   ----------------------------------------
 BYTE   PATT
  POIN2 Label_016725DA
//  #02 //056   ----------------------------------------
 BYTE   PATT
  POIN2 Label_016725E4
//  #02 //057   ----------------------------------------
 BYTE   N72  Dn3  v112
 BYTE   W96
//  #02 //058   ----------------------------------------
 BYTE   W96
//  #02 //059   ----------------------------------------
 BYTE   W96
//  #02 //060   ----------------------------------------
 BYTE   W96
//  #02 //061   ----------------------------------------
 BYTE   W96
//  #02 //062   ----------------------------------------
 BYTE   W96
//  #02 //063   ----------------------------------------
 BYTE   PATT
  POIN2 Label_01672609
//  #02 //064   ----------------------------------------
 BYTE   PATT
  POIN2 Label_0167261A
 BYTE   FINE

//**************** Track 3 (Midi-Chn.2) ****************//

ArmyOfLeif_003:
//  #03 //000   ----------------------------------------
 BYTE   KEYSH   ArmyOfLeif_key+0
 BYTE   VOICE   46
 BYTE   VOL   44*ArmyOfLeif_mvl/mxv
 BYTE   W96
//  #03 //001   ----------------------------------------
Label_01672677:
 BYTE   N06  Fn2  v100
 BYTE   W12
 BYTE   N06
 BYTE   W24
 BYTE   N06
 BYTE   W06
 BYTE   N06
 BYTE   W06
 BYTE   N06
 BYTE   W12
 BYTE   N06
 BYTE   W36
 BYTE   PEND 
//  #03 //002   ----------------------------------------
 BYTE   PATT
  POIN2 Label_01672677
//  #03 //003   ----------------------------------------
Label_0167268B:
 BYTE   N06  Gn2  v100
 BYTE   W12
 BYTE   N06
 BYTE   W24
 BYTE   N06
 BYTE   W06
 BYTE   N06
 BYTE   W06
 BYTE   N06
 BYTE   W12
 BYTE   N06
 BYTE   W36
 BYTE   PEND 
//  #03 //004   ----------------------------------------
 BYTE   PATT
  POIN2 Label_01672677
//  #03 //005   ----------------------------------------
 BYTE   PATT
  POIN2 Label_01672677
//  #03 //006   ----------------------------------------
 BYTE   PATT
  POIN2 Label_01672677
//  #03 //007   ----------------------------------------
 BYTE   PATT
  POIN2 Label_0167268B
//  #03 //008   ----------------------------------------
Label_016726AE:
 BYTE   N06  Fn2  v100
 BYTE   W12
 BYTE   N06
 BYTE   W24
 BYTE   N06
 BYTE   W06
 BYTE   N06
 BYTE   W06
 BYTE   N06
 BYTE   W12
 BYTE   N06
 BYTE   W24
 BYTE   Dn4
 BYTE   W06
 BYTE   Cn4
 BYTE   W06
 BYTE   PEND 
//  #03 //009   ----------------------------------------
Label_016726C1:
 BYTE   N30  As3  v100
 BYTE   W36
 BYTE   N06  An3
 BYTE   W06
 BYTE   As3
 BYTE   W06
 BYTE   N30  Cn4
 BYTE   W36
 BYTE   N06  An3
 BYTE   W06
 BYTE   Fn3
 BYTE   W06
 BYTE   PEND 
//  #03 //010   ----------------------------------------
Label_016726D3:
 BYTE   N18  Gn3  v100
 BYTE   W24
 BYTE   Dn4
 BYTE   W24
 BYTE   Cn4
 BYTE   W24
 BYTE   N12  An3
 BYTE   W12
 BYTE   Fn3
 BYTE   W12
 BYTE   PEND 
//  #03 //011   ----------------------------------------
Label_016726E1:
 BYTE   N24  As3  v100
 BYTE   W30
 BYTE   N06  Fn3
 BYTE   W06
 BYTE   An3
 BYTE   W06
 BYTE   As3
 BYTE   W06
 BYTE   N30  Cn4
 BYTE   W36
 BYTE   N06
 BYTE   W06
 BYTE   Dn4
 BYTE   W06
 BYTE   PEND 
//  #03 //012   ----------------------------------------
Label_016726F4:
 BYTE   N30  Ds4  v100
 BYTE   W36
 BYTE   N06  Fn4
 BYTE   W06
 BYTE   Ds4
 BYTE   W06
 BYTE   N30  Dn4
 BYTE   W36
 BYTE   N06
 BYTE   W06
 BYTE   Cn4
 BYTE   W06
 BYTE   PEND 
//  #03 //013   ----------------------------------------
Label_01672705:
 BYTE   N30  As3  v100
 BYTE   W36
 BYTE   N06  An3
 BYTE   W06
 BYTE   As3
 BYTE   W06
 BYTE   N30  Cn4
 BYTE   W36
 BYTE   N06  Fn4
 BYTE   W06
 BYTE   Ds4
 BYTE   W06
 BYTE   PEND 
//  #03 //014   ----------------------------------------
Label_01672717:
 BYTE   N18  Dn4  v100
 BYTE   W24
 BYTE   Cn4
 BYTE   W24
 BYTE   As3
 BYTE   W24
 BYTE   Dn4
 BYTE   W24
 BYTE   PEND 
//  #03 //015   ----------------------------------------
Label_01672722:
 BYTE   N30  Cn4  v100
 BYTE   W36
 BYTE   N06
 BYTE   W06
 BYTE   Dn4
 BYTE   W06
 BYTE   N30  Ds4
 BYTE   W36
 BYTE   N06
 BYTE   W06
 BYTE   Dn4
 BYTE   W06
 BYTE   PEND 
//  #03 //016   ----------------------------------------
 BYTE   N72  Cn4
 BYTE   W96
//  #03 //017   ----------------------------------------
Label_01672735:
 BYTE   N06  As2  v100
 BYTE   W12
 BYTE   N06
 BYTE   W24
 BYTE   N06
 BYTE   W06
 BYTE   N06
 BYTE   W06
 BYTE   N06
 BYTE   W12
 BYTE   N06
 BYTE   W36
 BYTE   PEND 
//  #03 //018   ----------------------------------------
 BYTE   PATT
  POIN2 Label_01672735
//  #03 //019   ----------------------------------------
 BYTE   PATT
  POIN2 Label_01672735
//  #03 //020   ----------------------------------------
 BYTE   PATT
  POIN2 Label_01672735
//  #03 //021   ----------------------------------------
 BYTE   PATT
  POIN2 Label_01672735
//  #03 //022   ----------------------------------------
 BYTE   PATT
  POIN2 Label_01672735
//  #03 //023   ----------------------------------------
 BYTE   PATT
  POIN2 Label_0167268B
//  #03 //024   ----------------------------------------
 BYTE   PATT
  POIN2 Label_0167268B
//  #03 //025   ----------------------------------------
 BYTE   PATT
  POIN2 Label_0167268B
//  #03 //026   ----------------------------------------
Label_0167276C:
 BYTE   N06  Gn2  v100
 BYTE   W12
 BYTE   N06
 BYTE   W24
 BYTE   N06
 BYTE   W06
 BYTE   N06
 BYTE   W06
 BYTE   N06
 BYTE   W24
 BYTE   Fn2
 BYTE   W24
 BYTE   PEND 
//  #03 //027   ----------------------------------------
Label_0167277B:
 BYTE   N06  Ds2  v100
 BYTE   W12
 BYTE   N06
 BYTE   W36
 BYTE   N06
 BYTE   W12
 BYTE   N06
 BYTE   W36
 BYTE   PEND 
//  #03 //028   ----------------------------------------
Label_01672786:
 BYTE   N06  Dn2  v100
 BYTE   W12
 BYTE   N06
 BYTE   W36
 BYTE   N06
 BYTE   W12
 BYTE   N06
 BYTE   W24
 BYTE   N06
 BYTE   W12
 BYTE   PEND 
//  #03 //029   ----------------------------------------
Label_01672793:
 BYTE   N06  Gn2  v100
 BYTE   W12
 BYTE   N06
 BYTE   W36
 BYTE   Fn2
 BYTE   W12
 BYTE   N06
 BYTE   W36
 BYTE   PEND 
//  #03 //030   ----------------------------------------
Label_0167279E:
 BYTE   N06  Ds2  v100
 BYTE   W12
 BYTE   N06
 BYTE   W72
 BYTE   N06
 BYTE   W12
 BYTE   PEND 
//  #03 //031   ----------------------------------------
 BYTE   PATT
  POIN2 Label_01672786
//  #03 //032   ----------------------------------------
Label_016727AC:
 BYTE   N06  Dn2  v100
 BYTE   W12
 BYTE   N06
 BYTE   W24
 BYTE   N06
 BYTE   W06
 BYTE   N06
 BYTE   W06
 BYTE   N06
 BYTE   W12
 BYTE   N06
 BYTE   W36
 BYTE   PEND 
//  #03 //033   ----------------------------------------
 BYTE   PATT
  POIN2 Label_01672677
//  #03 //034   ----------------------------------------
 BYTE   PATT
  POIN2 Label_01672677
//  #03 //035   ----------------------------------------
 BYTE   PATT
  POIN2 Label_0167268B
//  #03 //036   ----------------------------------------
 BYTE   PATT
  POIN2 Label_01672677
//  #03 //037   ----------------------------------------
 BYTE   PATT
  POIN2 Label_01672677
//  #03 //038   ----------------------------------------
 BYTE   PATT
  POIN2 Label_01672677
//  #03 //039   ----------------------------------------
 BYTE   PATT
  POIN2 Label_0167268B
//  #03 //040   ----------------------------------------
 BYTE   PATT
  POIN2 Label_016726AE
//  #03 //041   ----------------------------------------
 BYTE   PATT
  POIN2 Label_016726C1
//  #03 //042   ----------------------------------------
 BYTE   PATT
  POIN2 Label_016726D3
//  #03 //043   ----------------------------------------
 BYTE   PATT
  POIN2 Label_016726E1
//  #03 //044   ----------------------------------------
 BYTE   PATT
  POIN2 Label_016726F4
//  #03 //045   ----------------------------------------
 BYTE   PATT
  POIN2 Label_01672705
//  #03 //046   ----------------------------------------
 BYTE   PATT
  POIN2 Label_01672717
//  #03 //047   ----------------------------------------
 BYTE   PATT
  POIN2 Label_01672722
//  #03 //048   ----------------------------------------
 BYTE   N72  Cn4  v100
 BYTE   W96
//  #03 //049   ----------------------------------------
 BYTE   PATT
  POIN2 Label_01672735
//  #03 //050   ----------------------------------------
 BYTE   PATT
  POIN2 Label_01672735
//  #03 //051   ----------------------------------------
 BYTE   PATT
  POIN2 Label_01672735
//  #03 //052   ----------------------------------------
 BYTE   PATT
  POIN2 Label_01672735
//  #03 //053   ----------------------------------------
 BYTE   PATT
  POIN2 Label_01672735
//  #03 //054   ----------------------------------------
 BYTE   PATT
  POIN2 Label_01672735
//  #03 //055   ----------------------------------------
 BYTE   PATT
  POIN2 Label_0167268B
//  #03 //056   ----------------------------------------
 BYTE   PATT
  POIN2 Label_0167268B
//  #03 //057   ----------------------------------------
 BYTE   PATT
  POIN2 Label_0167268B
//  #03 //058   ----------------------------------------
 BYTE   PATT
  POIN2 Label_0167276C
//  #03 //059   ----------------------------------------
 BYTE   PATT
  POIN2 Label_0167277B
//  #03 //060   ----------------------------------------
 BYTE   PATT
  POIN2 Label_01672786
//  #03 //061   ----------------------------------------
 BYTE   PATT
  POIN2 Label_01672793
//  #03 //062   ----------------------------------------
 BYTE   PATT
  POIN2 Label_0167279E
//  #03 //063   ----------------------------------------
 BYTE   PATT
  POIN2 Label_01672786
//  #03 //064   ----------------------------------------
 BYTE   PATT
  POIN2 Label_016727AC
 BYTE   FINE

//**************** Track 4 (Midi-Chn.3) ****************//

ArmyOfLeif_004:
//  #04 //000   ----------------------------------------
 BYTE   KEYSH   ArmyOfLeif_key+0
 BYTE   VOICE   56
 BYTE   VOL   76*ArmyOfLeif_mvl/mxv
 BYTE   W96
//  #04 //001   ----------------------------------------
 BYTE   N72  Fn2  v100
 BYTE   W96
//  #04 //002   ----------------------------------------
 BYTE   N72
 BYTE   W96
//  #04 //003   ----------------------------------------
 BYTE   Gn2
 BYTE   W96
//  #04 //004   ----------------------------------------
 BYTE   Fn2
 BYTE   W96
//  #04 //005   ----------------------------------------
 BYTE   N72
 BYTE   W96
//  #04 //006   ----------------------------------------
 BYTE   N72
 BYTE   W96
//  #04 //007   ----------------------------------------
 BYTE   Gn2
 BYTE   W96
//  #04 //008   ----------------------------------------
Label_01672873:
 BYTE   N72  Fn2  v100
 BYTE   W84
 BYTE   N06  Dn3
 BYTE   W06
 BYTE   Cn3
 BYTE   W06
 BYTE   PEND 
//  #04 //009   ----------------------------------------
Label_0167287D:
 BYTE   N30  As2  v100
 BYTE   W36
 BYTE   N06  An2
 BYTE   W06
 BYTE   As2
 BYTE   W06
 BYTE   N30  Cn3
 BYTE   W36
 BYTE   N06  An2
 BYTE   W06
 BYTE   Fn2
 BYTE   W06
 BYTE   PEND 
//  #04 //010   ----------------------------------------
Label_0167288F:
 BYTE   N18  Gn2  v100
 BYTE   W24
 BYTE   Dn3
 BYTE   W24
 BYTE   Cn3
 BYTE   W24
 BYTE   N12  An2
 BYTE   W12
 BYTE   Fn2
 BYTE   W12
 BYTE   PEND 
//  #04 //011   ----------------------------------------
Label_0167289D:
 BYTE   N24  As2  v100
 BYTE   W30
 BYTE   N06  Fn2
 BYTE   W06
 BYTE   An2
 BYTE   W06
 BYTE   As2
 BYTE   W06
 BYTE   N30  Cn3
 BYTE   W36
 BYTE   N06
 BYTE   W06
 BYTE   Dn3
 BYTE   W06
 BYTE   PEND 
//  #04 //012   ----------------------------------------
Label_016728B0:
 BYTE   N30  Ds3  v100
 BYTE   W36
 BYTE   N06  Fn3
 BYTE   W06
 BYTE   Ds3
 BYTE   W06
 BYTE   N30  Dn3
 BYTE   W36
 BYTE   N06
 BYTE   W06
 BYTE   Cn3
 BYTE   W06
 BYTE   PEND 
//  #04 //013   ----------------------------------------
Label_016728C1:
 BYTE   N30  As2  v100
 BYTE   W36
 BYTE   N06  An2
 BYTE   W06
 BYTE   As2
 BYTE   W06
 BYTE   N30  Cn3
 BYTE   W36
 BYTE   N06  Fn3
 BYTE   W06
 BYTE   Ds3
 BYTE   W06
 BYTE   PEND 
//  #04 //014   ----------------------------------------
Label_016728D3:
 BYTE   N18  Gn2  v120
 BYTE   W24
 BYTE   Dn3  v127
 BYTE   W24
 BYTE   Cn3
 BYTE   W24
 BYTE   Gn3
 BYTE   W24
 BYTE   PEND 
//  #04 //015   ----------------------------------------
Label_016728DF:
 BYTE   N30  Fn3  v127
 BYTE   W36
 BYTE   N06  Ds3
 BYTE   W06
 BYTE   Dn3
 BYTE   W06
 BYTE   N30  Cn3
 BYTE   W36
 BYTE   N06  As2
 BYTE   W12
 BYTE   PEND 
//  #04 //016   ----------------------------------------
 BYTE   N72  Cn3
 BYTE   W96
//  #04 //017   ----------------------------------------
 BYTE   W96
//  #04 //018   ----------------------------------------
 BYTE   W96
//  #04 //019   ----------------------------------------
 BYTE   Fn2  v100
 BYTE   W96
//  #04 //020   ----------------------------------------
 BYTE   N72
 BYTE   W96
//  #04 //021   ----------------------------------------
 BYTE   N72
 BYTE   W96
//  #04 //022   ----------------------------------------
 BYTE   W96
//  #04 //023   ----------------------------------------
 BYTE   Gn2
 BYTE   W96
//  #04 //024   ----------------------------------------
 BYTE   N72
 BYTE   W96
//  #04 //025   ----------------------------------------
 BYTE   N72
 BYTE   W96
//  #04 //026   ----------------------------------------
 BYTE   W96
//  #04 //027   ----------------------------------------
 BYTE   W96
//  #04 //028   ----------------------------------------
 BYTE   W96
//  #04 //029   ----------------------------------------
 BYTE   W96
//  #04 //030   ----------------------------------------
 BYTE   W96
//  #04 //031   ----------------------------------------
 BYTE   W96
//  #04 //032   ----------------------------------------
 BYTE   W96
//  #04 //033   ----------------------------------------
 BYTE   Fn2
 BYTE   W96
//  #04 //034   ----------------------------------------
 BYTE   N72
 BYTE   W96
//  #04 //035   ----------------------------------------
 BYTE   Gn2
 BYTE   W96
//  #04 //036   ----------------------------------------
 BYTE   Fn2
 BYTE   W96
//  #04 //037   ----------------------------------------
 BYTE   N72
 BYTE   W96
//  #04 //038   ----------------------------------------
 BYTE   N72
 BYTE   W96
//  #04 //039   ----------------------------------------
 BYTE   Gn2
 BYTE   W96
//  #04 //040   ----------------------------------------
 BYTE   PATT
  POIN2 Label_01672873
//  #04 //041   ----------------------------------------
 BYTE   PATT
  POIN2 Label_0167287D
//  #04 //042   ----------------------------------------
 BYTE   PATT
  POIN2 Label_0167288F
//  #04 //043   ----------------------------------------
 BYTE   PATT
  POIN2 Label_0167289D
//  #04 //044   ----------------------------------------
 BYTE   PATT
  POIN2 Label_016728B0
//  #04 //045   ----------------------------------------
 BYTE   PATT
  POIN2 Label_016728C1
//  #04 //046   ----------------------------------------
 BYTE   PATT
  POIN2 Label_016728D3
//  #04 //047   ----------------------------------------
 BYTE   PATT
  POIN2 Label_016728DF
//  #04 //048   ----------------------------------------
 BYTE   N72  Cn3  v127
 BYTE   W96
//  #04 //049   ----------------------------------------
 BYTE   W96
//  #04 //050   ----------------------------------------
 BYTE   W96
//  #04 //051   ----------------------------------------
 BYTE   Fn2  v100
 BYTE   W96
//  #04 //052   ----------------------------------------
 BYTE   N72
 BYTE   W96
//  #04 //053   ----------------------------------------
 BYTE   N72
 BYTE   W96
//  #04 //054   ----------------------------------------
 BYTE   W96
//  #04 //055   ----------------------------------------
 BYTE   Gn2
 BYTE   W96
//  #04 //056   ----------------------------------------
 BYTE   N72
 BYTE   W96
//  #04 //057   ----------------------------------------
 BYTE   N72
 BYTE   W96
//  #04 //058   ----------------------------------------
 BYTE   W96
//  #04 //059   ----------------------------------------
 BYTE   W96
//  #04 //060   ----------------------------------------
 BYTE   W96
//  #04 //061   ----------------------------------------
 BYTE   W96
//  #04 //062   ----------------------------------------
 BYTE   W96
//  #04 //063   ----------------------------------------
 BYTE   W96
//  #04 //064   ----------------------------------------
 BYTE   W96
 BYTE   FINE

//**************** Track 5 (Midi-Chn.4) ****************//

ArmyOfLeif_005:
//  #05 //000   ----------------------------------------
 BYTE   KEYSH   ArmyOfLeif_key+0
 BYTE   VOICE   61
 BYTE   PAN   c_v-16
 BYTE   VOL   73*ArmyOfLeif_mvl/mxv
 BYTE   W96
//  #05 //001   ----------------------------------------
 BYTE   TIE  As0  v100
 BYTE   W96
//  #05 //002   ----------------------------------------
 BYTE   W96
//  #05 //003   ----------------------------------------
 BYTE   W96
//  #05 //004   ----------------------------------------
 BYTE   W96
//  #05 //005   ----------------------------------------
 BYTE   EOT
 BYTE   TIE
 BYTE   W96
//  #05 //006   ----------------------------------------
 BYTE   W96
//  #05 //007   ----------------------------------------
 BYTE   W96
//  #05 //008   ----------------------------------------
 BYTE   W96
//  #05 //009   ----------------------------------------
 BYTE   EOT
 BYTE   W96
//  #05 //010   ----------------------------------------
 BYTE   W96
//  #05 //011   ----------------------------------------
 BYTE   W96
//  #05 //012   ----------------------------------------
 BYTE   W96
//  #05 //013   ----------------------------------------
 BYTE   W96
//  #05 //014   ----------------------------------------
 BYTE   W96
//  #05 //015   ----------------------------------------
 BYTE   W96
//  #05 //016   ----------------------------------------
 BYTE   W96
//  #05 //017   ----------------------------------------
 BYTE   TIE
 BYTE   W96
//  #05 //018   ----------------------------------------
 BYTE   W96
//  #05 //019   ----------------------------------------
 BYTE   W96
//  #05 //020   ----------------------------------------
 BYTE   W96
//  #05 //021   ----------------------------------------
 BYTE   W96
//  #05 //022   ----------------------------------------
 BYTE   W72
 BYTE   EOT
 BYTE   W24
//  #05 //023   ----------------------------------------
 BYTE   TIE  Gn0
 BYTE   W96
//  #05 //024   ----------------------------------------
 BYTE   W96
//  #05 //025   ----------------------------------------
 BYTE   W96
//  #05 //026   ----------------------------------------
 BYTE   W48
 BYTE   EOT
 BYTE   W24
 BYTE   N12  Fn1
 BYTE   W24
//  #05 //027   ----------------------------------------
 BYTE   N96  Ds1
 BYTE   W96
//  #05 //028   ----------------------------------------
 BYTE   Dn1
 BYTE   W96
//  #05 //029   ----------------------------------------
Label_01672994:
 BYTE   N48  Gn1  v100
 BYTE   W48
 BYTE   Fn1
 BYTE   W48
 BYTE   PEND 
//  #05 //030   ----------------------------------------
 BYTE   N96  Ds1
 BYTE   W96
//  #05 //031   ----------------------------------------
 BYTE   Dn1
 BYTE   W96
//  #05 //032   ----------------------------------------
Label_016729A0:
 BYTE   N48  Dn1  v100
 BYTE   W60
 BYTE   N12
 BYTE   W36
 BYTE   PEND 
//  #05 //033   ----------------------------------------
 BYTE   TIE  As0
 BYTE   W96
//  #05 //034   ----------------------------------------
 BYTE   W96
//  #05 //035   ----------------------------------------
 BYTE   W96
//  #05 //036   ----------------------------------------
 BYTE   W96
//  #05 //037   ----------------------------------------
 BYTE   EOT
 BYTE   TIE
 BYTE   W96
//  #05 //038   ----------------------------------------
 BYTE   W96
//  #05 //039   ----------------------------------------
 BYTE   W96
//  #05 //040   ----------------------------------------
 BYTE   W96
//  #05 //041   ----------------------------------------
 BYTE   EOT
 BYTE   W96
//  #05 //042   ----------------------------------------
 BYTE   W96
//  #05 //043   ----------------------------------------
 BYTE   W96
//  #05 //044   ----------------------------------------
 BYTE   W96
//  #05 //045   ----------------------------------------
 BYTE   W96
//  #05 //046   ----------------------------------------
 BYTE   W96
//  #05 //047   ----------------------------------------
 BYTE   W96
//  #05 //048   ----------------------------------------
 BYTE   W96
//  #05 //049   ----------------------------------------
 BYTE   TIE
 BYTE   W96
//  #05 //050   ----------------------------------------
 BYTE   W96
//  #05 //051   ----------------------------------------
 BYTE   W96
//  #05 //052   ----------------------------------------
 BYTE   W96
//  #05 //053   ----------------------------------------
 BYTE   W96
//  #05 //054   ----------------------------------------
 BYTE   W72
 BYTE   EOT
 BYTE   W24
//  #05 //055   ----------------------------------------
 BYTE   TIE  Gn0
 BYTE   W96
//  #05 //056   ----------------------------------------
 BYTE   W96
//  #05 //057   ----------------------------------------
 BYTE   W96
//  #05 //058   ----------------------------------------
 BYTE   W48
 BYTE   EOT
 BYTE   W24
 BYTE   N12  Fn1
 BYTE   W24
//  #05 //059   ----------------------------------------
 BYTE   N96  Ds1
 BYTE   W96
//  #05 //060   ----------------------------------------
 BYTE   Dn1
 BYTE   W96
//  #05 //061   ----------------------------------------
 BYTE   PATT
  POIN2 Label_01672994
//  #05 //062   ----------------------------------------
 BYTE   N96  Ds1  v100
 BYTE   W96
//  #05 //063   ----------------------------------------
 BYTE   Dn1
 BYTE   W96
//  #05 //064   ----------------------------------------
 BYTE   PATT
  POIN2 Label_016729A0
 BYTE   FINE

//**************** Track 6 (Midi-Chn.5) ****************//

ArmyOfLeif_006:
//  #06 //000   ----------------------------------------
 BYTE   KEYSH   ArmyOfLeif_key+0
 BYTE   VOICE   33
 BYTE   VOL   72*ArmyOfLeif_mvl/mxv
 BYTE   W96
//  #06 //001   ----------------------------------------
 BYTE   W96
//  #06 //002   ----------------------------------------
 BYTE   W96
//  #06 //003   ----------------------------------------
 BYTE   W96
//  #06 //004   ----------------------------------------
 BYTE   W96
//  #06 //005   ----------------------------------------
 BYTE   W96
//  #06 //006   ----------------------------------------
 BYTE   W96
//  #06 //007   ----------------------------------------
 BYTE   W96
//  #06 //008   ----------------------------------------
 BYTE   W96
//  #06 //009   ----------------------------------------
Label_016729F7:
 BYTE   N12  Gn1  v100
 BYTE   W12
 BYTE   N12
 BYTE   W36
 BYTE   Fn1
 BYTE   W12
 BYTE   N12
 BYTE   W36
 BYTE   PEND 
//  #06 //010   ----------------------------------------
Label_01672A02:
 BYTE   N12  Ds1  v100
 BYTE   W12
 BYTE   N12
 BYTE   W36
 BYTE   Dn1
 BYTE   W12
 BYTE   N12
 BYTE   W36
 BYTE   PEND 
//  #06 //011   ----------------------------------------
Label_01672A0D:
 BYTE   N12  Gn1  v100
 BYTE   W12
 BYTE   N12
 BYTE   W36
 BYTE   An1
 BYTE   W12
 BYTE   N12
 BYTE   W36
 BYTE   PEND 
//  #06 //012   ----------------------------------------
Label_01672A18:
 BYTE   N12  As1  v100
 BYTE   W12
 BYTE   N12
 BYTE   W36
 BYTE   N12
 BYTE   W12
 BYTE   N12
 BYTE   W24
 BYTE   An1
 BYTE   W12
 BYTE   PEND 
//  #06 //013   ----------------------------------------
 BYTE   PATT
  POIN2 Label_016729F7
//  #06 //014   ----------------------------------------
 BYTE   PATT
  POIN2 Label_01672A02
//  #06 //015   ----------------------------------------
Label_01672A2F:
 BYTE   N12  Gs1  v100
 BYTE   W12
 BYTE   N12
 BYTE   W36
 BYTE   N12
 BYTE   W12
 BYTE   N12
 BYTE   W36
 BYTE   PEND 
//  #06 //016   ----------------------------------------
Label_01672A3A:
 BYTE   N12  Fn1  v100
 BYTE   W12
 BYTE   N12
 BYTE   W24
 BYTE   N06
 BYTE   W06
 BYTE   N06
 BYTE   W06
 BYTE   N12
 BYTE   W12
 BYTE   N12
 BYTE   W24
 BYTE   N12
 BYTE   W12
 BYTE   PEND 
//  #06 //017   ----------------------------------------
 BYTE   W96
//  #06 //018   ----------------------------------------
 BYTE   W96
//  #06 //019   ----------------------------------------
 BYTE   W96
//  #06 //020   ----------------------------------------
 BYTE   W96
//  #06 //021   ----------------------------------------
 BYTE   W96
//  #06 //022   ----------------------------------------
 BYTE   W96
//  #06 //023   ----------------------------------------
 BYTE   W96
//  #06 //024   ----------------------------------------
 BYTE   W96
//  #06 //025   ----------------------------------------
 BYTE   W96
//  #06 //026   ----------------------------------------
 BYTE   W72
 BYTE   N24
 BYTE   W24
//  #06 //027   ----------------------------------------
 BYTE   N96  Ds1
 BYTE   W96
//  #06 //028   ----------------------------------------
 BYTE   Dn1
 BYTE   W96
//  #06 //029   ----------------------------------------
Label_01672A5C:
 BYTE   N48  Gn1  v100
 BYTE   W48
 BYTE   Fn1
 BYTE   W48
 BYTE   PEND 
//  #06 //030   ----------------------------------------
 BYTE   N96  Ds1
 BYTE   W96
//  #06 //031   ----------------------------------------
 BYTE   Dn1
 BYTE   W96
//  #06 //032   ----------------------------------------
Label_01672A68:
 BYTE   N48  Dn1  v100
 BYTE   W60
 BYTE   N12
 BYTE   W36
 BYTE   PEND 
//  #06 //033   ----------------------------------------
 BYTE   W96
//  #06 //034   ----------------------------------------
 BYTE   W96
//  #06 //035   ----------------------------------------
 BYTE   W96
//  #06 //036   ----------------------------------------
 BYTE   W96
//  #06 //037   ----------------------------------------
 BYTE   W96
//  #06 //038   ----------------------------------------
 BYTE   W96
//  #06 //039   ----------------------------------------
 BYTE   W96
//  #06 //040   ----------------------------------------
 BYTE   W96
//  #06 //041   ----------------------------------------
 BYTE   PATT
  POIN2 Label_016729F7
//  #06 //042   ----------------------------------------
 BYTE   PATT
  POIN2 Label_01672A02
//  #06 //043   ----------------------------------------
 BYTE   PATT
  POIN2 Label_01672A0D
//  #06 //044   ----------------------------------------
 BYTE   PATT
  POIN2 Label_01672A18
//  #06 //045   ----------------------------------------
 BYTE   PATT
  POIN2 Label_016729F7
//  #06 //046   ----------------------------------------
 BYTE   PATT
  POIN2 Label_01672A02
//  #06 //047   ----------------------------------------
 BYTE   PATT
  POIN2 Label_01672A2F
//  #06 //048   ----------------------------------------
 BYTE   PATT
  POIN2 Label_01672A3A
//  #06 //049   ----------------------------------------
 BYTE   W96
//  #06 //050   ----------------------------------------
 BYTE   W96
//  #06 //051   ----------------------------------------
 BYTE   W96
//  #06 //052   ----------------------------------------
 BYTE   W96
//  #06 //053   ----------------------------------------
 BYTE   W96
//  #06 //054   ----------------------------------------
 BYTE   W96
//  #06 //055   ----------------------------------------
 BYTE   W96
//  #06 //056   ----------------------------------------
 BYTE   W96
//  #06 //057   ----------------------------------------
 BYTE   W96
//  #06 //058   ----------------------------------------
 BYTE   W72
 BYTE   N24  Fn1  v100
 BYTE   W24
//  #06 //059   ----------------------------------------
 BYTE   N96  Ds1
 BYTE   W96
//  #06 //060   ----------------------------------------
 BYTE   Dn1
 BYTE   W96
//  #06 //061   ----------------------------------------
 BYTE   PATT
  POIN2 Label_01672A5C
//  #06 //062   ----------------------------------------
 BYTE   N96  Ds1  v100
 BYTE   W96
//  #06 //063   ----------------------------------------
 BYTE   Dn1
 BYTE   W96
//  #06 //064   ----------------------------------------
 BYTE   PATT
  POIN2 Label_01672A68
 BYTE   FINE

//**************** Track 7 (Midi-Chn.6) ****************//

ArmyOfLeif_007:
//  #07 //000   ----------------------------------------
 BYTE   KEYSH   ArmyOfLeif_key+0
 BYTE   VOICE   56
 BYTE   VOL   57*ArmyOfLeif_mvl/mxv
 BYTE   W96
//  #07 //001   ----------------------------------------
Label_01672ACB:
 BYTE   N06  Fn2  v100
 BYTE   W12
 BYTE   N06
 BYTE   W24
 BYTE   N06
 BYTE   W06
 BYTE   N06
 BYTE   W06
 BYTE   N06
 BYTE   W12
 BYTE   N06
 BYTE   W36
 BYTE   PEND 
//  #07 //002   ----------------------------------------
 BYTE   PATT
  POIN2 Label_01672ACB
//  #07 //003   ----------------------------------------
Label_01672ADF:
 BYTE   N06  Gn2  v100
 BYTE   W12
 BYTE   N06
 BYTE   W24
 BYTE   N06
 BYTE   W06
 BYTE   N06
 BYTE   W06
 BYTE   N06
 BYTE   W12
 BYTE   N06
 BYTE   W36
 BYTE   PEND 
//  #07 //004   ----------------------------------------
 BYTE   PATT
  POIN2 Label_01672ACB
//  #07 //005   ----------------------------------------
 BYTE   PATT
  POIN2 Label_01672ACB
//  #07 //006   ----------------------------------------
 BYTE   PATT
  POIN2 Label_01672ACB
//  #07 //007   ----------------------------------------
 BYTE   PATT
  POIN2 Label_01672ADF
//  #07 //008   ----------------------------------------
 BYTE   PATT
  POIN2 Label_01672ACB
//  #07 //009   ----------------------------------------
 BYTE   W96
//  #07 //010   ----------------------------------------
 BYTE   W96
//  #07 //011   ----------------------------------------
 BYTE   W96
//  #07 //012   ----------------------------------------
 BYTE   W96
//  #07 //013   ----------------------------------------
 BYTE   W96
//  #07 //014   ----------------------------------------
 BYTE   W96
//  #07 //015   ----------------------------------------
 BYTE   W96
//  #07 //016   ----------------------------------------
 BYTE   W96
//  #07 //017   ----------------------------------------
Label_01672B0F:
 BYTE   N06  As2  v092
 BYTE   W12
 BYTE   N06
 BYTE   W24
 BYTE   N06
 BYTE   W06
 BYTE   N06
 BYTE   W06
 BYTE   N06
 BYTE   W12
 BYTE   N06
 BYTE   W36
 BYTE   PEND 
//  #07 //018   ----------------------------------------
 BYTE   PATT
  POIN2 Label_01672B0F
//  #07 //019   ----------------------------------------
Label_01672B23:
 BYTE   N06  As2  v104
 BYTE   W12
 BYTE   As2  v100
 BYTE   W24
 BYTE   N06
 BYTE   W06
 BYTE   N06
 BYTE   W06
 BYTE   N06
 BYTE   W12
 BYTE   N06
 BYTE   W36
 BYTE   PEND 
//  #07 //020   ----------------------------------------
Label_01672B33:
 BYTE   N06  As2  v100
 BYTE   W12
 BYTE   N06
 BYTE   W24
 BYTE   N06
 BYTE   W06
 BYTE   N06
 BYTE   W06
 BYTE   N06
 BYTE   W12
 BYTE   N06
 BYTE   W36
 BYTE   PEND 
//  #07 //021   ----------------------------------------
 BYTE   PATT
  POIN2 Label_01672B33
//  #07 //022   ----------------------------------------
 BYTE   PATT
  POIN2 Label_01672B0F
//  #07 //023   ----------------------------------------
 BYTE   PATT
  POIN2 Label_01672ADF
//  #07 //024   ----------------------------------------
 BYTE   PATT
  POIN2 Label_01672ADF
//  #07 //025   ----------------------------------------
 BYTE   PATT
  POIN2 Label_01672ADF
//  #07 //026   ----------------------------------------
Label_01672B5B:
 BYTE   N06  Gn2  v092
 BYTE   W12
 BYTE   N06
 BYTE   W24
 BYTE   N06
 BYTE   W06
 BYTE   N06
 BYTE   W06
 BYTE   Gn2  v100
 BYTE   W24
 BYTE   Fn2
 BYTE   W24
 BYTE   PEND 
//  #07 //027   ----------------------------------------
Label_01672B6B:
 BYTE   N06  Ds2  v100
 BYTE   W12
 BYTE   N06
 BYTE   W36
 BYTE   N06
 BYTE   W12
 BYTE   N06
 BYTE   W36
 BYTE   PEND 
//  #07 //028   ----------------------------------------
Label_01672B76:
 BYTE   N06  Dn2  v100
 BYTE   W12
 BYTE   N06
 BYTE   W36
 BYTE   N06
 BYTE   W12
 BYTE   N06
 BYTE   W24
 BYTE   N06
 BYTE   W12
 BYTE   PEND 
//  #07 //029   ----------------------------------------
Label_01672B83:
 BYTE   N06  Gn2  v100
 BYTE   W12
 BYTE   N06
 BYTE   W36
 BYTE   Fn2
 BYTE   W12
 BYTE   N06
 BYTE   W36
 BYTE   PEND 
//  #07 //030   ----------------------------------------
Label_01672B8E:
 BYTE   N06  Ds2  v100
 BYTE   W12
 BYTE   N06
 BYTE   W72
 BYTE   N06
 BYTE   W12
 BYTE   PEND 
//  #07 //031   ----------------------------------------
 BYTE   PATT
  POIN2 Label_01672B76
//  #07 //032   ----------------------------------------
Label_01672B9C:
 BYTE   N06  Dn2  v100
 BYTE   W12
 BYTE   N06
 BYTE   W24
 BYTE   N06
 BYTE   W06
 BYTE   N06
 BYTE   W06
 BYTE   N06
 BYTE   W12
 BYTE   N06
 BYTE   W36
 BYTE   PEND 
//  #07 //033   ----------------------------------------
 BYTE   PATT
  POIN2 Label_01672ACB
//  #07 //034   ----------------------------------------
 BYTE   PATT
  POIN2 Label_01672ACB
//  #07 //035   ----------------------------------------
 BYTE   PATT
  POIN2 Label_01672ADF
//  #07 //036   ----------------------------------------
 BYTE   PATT
  POIN2 Label_01672ACB
//  #07 //037   ----------------------------------------
 BYTE   PATT
  POIN2 Label_01672ACB
//  #07 //038   ----------------------------------------
 BYTE   PATT
  POIN2 Label_01672ACB
//  #07 //039   ----------------------------------------
 BYTE   PATT
  POIN2 Label_01672ADF
//  #07 //040   ----------------------------------------
 BYTE   PATT
  POIN2 Label_01672ACB
//  #07 //041   ----------------------------------------
 BYTE   W96
//  #07 //042   ----------------------------------------
 BYTE   W96
//  #07 //043   ----------------------------------------
 BYTE   W96
//  #07 //044   ----------------------------------------
 BYTE   W96
//  #07 //045   ----------------------------------------
 BYTE   W96
//  #07 //046   ----------------------------------------
 BYTE   W96
//  #07 //047   ----------------------------------------
 BYTE   W96
//  #07 //048   ----------------------------------------
 BYTE   W96
//  #07 //049   ----------------------------------------
 BYTE   PATT
  POIN2 Label_01672B0F
//  #07 //050   ----------------------------------------
 BYTE   PATT
  POIN2 Label_01672B0F
//  #07 //051   ----------------------------------------
 BYTE   PATT
  POIN2 Label_01672B23
//  #07 //052   ----------------------------------------
 BYTE   PATT
  POIN2 Label_01672B33
//  #07 //053   ----------------------------------------
 BYTE   PATT
  POIN2 Label_01672B33
//  #07 //054   ----------------------------------------
 BYTE   PATT
  POIN2 Label_01672B0F
//  #07 //055   ----------------------------------------
 BYTE   PATT
  POIN2 Label_01672ADF
//  #07 //056   ----------------------------------------
 BYTE   PATT
  POIN2 Label_01672ADF
//  #07 //057   ----------------------------------------
 BYTE   PATT
  POIN2 Label_01672ADF
//  #07 //058   ----------------------------------------
 BYTE   PATT
  POIN2 Label_01672B5B
//  #07 //059   ----------------------------------------
 BYTE   PATT
  POIN2 Label_01672B6B
//  #07 //060   ----------------------------------------
 BYTE   PATT
  POIN2 Label_01672B76
//  #07 //061   ----------------------------------------
 BYTE   PATT
  POIN2 Label_01672B83
//  #07 //062   ----------------------------------------
 BYTE   PATT
  POIN2 Label_01672B8E
//  #07 //063   ----------------------------------------
 BYTE   PATT
  POIN2 Label_01672B76
//  #07 //064   ----------------------------------------
 BYTE   PATT
  POIN2 Label_01672B9C
 BYTE   FINE

//**************** Track 8 (Midi-Chn.7) ****************//

ArmyOfLeif_008:
//  #08 //000   ----------------------------------------
 BYTE   KEYSH   ArmyOfLeif_key+0
 BYTE   VOICE   127
 BYTE   VOL   53*ArmyOfLeif_mvl/mxv
 BYTE   W96
//  #08 //001   ----------------------------------------
Label_01672C33:
 BYTE   N06  Dn1  v072
 BYTE   N06  En1  v100
 BYTE   W12
 BYTE   Dn1  v072
 BYTE   N06  En1  v100
 BYTE   W24
 BYTE   Dn1  v072
 BYTE   N06  En1  v100
 BYTE   W06
 BYTE   Dn1  v072
 BYTE   N06  En1  v100
 BYTE   W06
 BYTE   Dn1  v072
 BYTE   N06  En1  v100
 BYTE   W12
 BYTE   Dn1  v072
 BYTE   N06  En1  v100
 BYTE   W24
 BYTE   Cn1  v092
 BYTE   N06  Fn1  v080
 BYTE   W12
 BYTE   PEND 
//  #08 //002   ----------------------------------------
 BYTE   PATT
  POIN2 Label_01672C33
//  #08 //003   ----------------------------------------
 BYTE   PATT
  POIN2 Label_01672C33
//  #08 //004   ----------------------------------------
 BYTE   PATT
  POIN2 Label_01672C33
//  #08 //005   ----------------------------------------
 BYTE   PATT
  POIN2 Label_01672C33
//  #08 //006   ----------------------------------------
 BYTE   PATT
  POIN2 Label_01672C33
//  #08 //007   ----------------------------------------
 BYTE   PATT
  POIN2 Label_01672C33
//  #08 //008   ----------------------------------------
Label_01672C7D:
 BYTE   N06  Dn1  v072
 BYTE   N06  En1  v100
 BYTE   W12
 BYTE   Dn1  v072
 BYTE   N06  En1  v100
 BYTE   W24
 BYTE   Dn1  v072
 BYTE   N06  En1  v100
 BYTE   W06
 BYTE   Dn1  v072
 BYTE   N06  En1  v100
 BYTE   W06
 BYTE   Dn1  v072
 BYTE   N06  En1  v100
 BYTE   W12
 BYTE   Dn1  v072
 BYTE   N06  En1  v100
 BYTE   W12
 BYTE   Cn1  v092
 BYTE   N06  Fn1  v080
 BYTE   W12
 BYTE   Dn1  v072
 BYTE   N06  En1  v100
 BYTE   W06
 BYTE   Dn1  v072
 BYTE   N06  En1  v100
 BYTE   W06
 BYTE   PEND 
//  #08 //009   ----------------------------------------
Label_01672CB5:
 BYTE   N06  Dn1  v072
 BYTE   N06  En1  v100
 BYTE   W12
 BYTE   Dn1  v072
 BYTE   N06  En1  v100
 BYTE   W36
 BYTE   Dn1  v072
 BYTE   N06  En1  v100
 BYTE   W12
 BYTE   Dn1  v072
 BYTE   N06  En1  v100
 BYTE   W36
 BYTE   PEND 
//  #08 //010   ----------------------------------------
Label_01672CCF:
 BYTE   N06  Dn1  v072
 BYTE   N06  En1  v100
 BYTE   W12
 BYTE   Dn1  v072
 BYTE   N06  En1  v100
 BYTE   W36
 BYTE   Dn1  v072
 BYTE   N06  En1  v100
 BYTE   W12
 BYTE   Dn1  v072
 BYTE   N06  En1  v100
 BYTE   W24
 BYTE   Dn1  v072
 BYTE   N06  En1  v100
 BYTE   W06
 BYTE   Dn1  v072
 BYTE   N06  En1  v100
 BYTE   W06
 BYTE   PEND 
//  #08 //011   ----------------------------------------
 BYTE   PATT
  POIN2 Label_01672CB5
//  #08 //012   ----------------------------------------
Label_01672CFA:
 BYTE   N06  Dn1  v072
 BYTE   N06  En1  v100
 BYTE   W12
 BYTE   Dn1  v072
 BYTE   N06  En1  v100
 BYTE   W24
 BYTE   Dn1  v072
 BYTE   N06  En1  v100
 BYTE   W06
 BYTE   Dn1  v072
 BYTE   N06  En1  v100
 BYTE   W06
 BYTE   Dn1  v072
 BYTE   N06  En1  v100
 BYTE   W12
 BYTE   Dn1  v072
 BYTE   N06  En1  v100
 BYTE   W12
 BYTE   Dn1  v072
 BYTE   N03  En1  v100
 BYTE   W03
 BYTE   En1  v080
 BYTE   W09
 BYTE   N06  Dn1  v072
 BYTE   N06  En1  v100
 BYTE   W06
 BYTE   Dn1  v072
 BYTE   N06  En1  v100
 BYTE   W06
 BYTE   PEND 
//  #08 //013   ----------------------------------------
Label_01672D36:
 BYTE   N06  Dn1  v072
 BYTE   N06  En1  v100
 BYTE   W12
 BYTE   Dn1  v072
 BYTE   N06  En1  v100
 BYTE   W24
 BYTE   Dn1  v072
 BYTE   N06  En1  v100
 BYTE   W06
 BYTE   Dn1  v072
 BYTE   N06  En1  v100
 BYTE   W06
 BYTE   Dn1  v072
 BYTE   N06  En1  v100
 BYTE   W12
 BYTE   Dn1  v072
 BYTE   N06  En1  v100
 BYTE   W24
 BYTE   Dn1  v072
 BYTE   N06  En1  v100
 BYTE   W12
 BYTE   PEND 
//  #08 //014   ----------------------------------------
Label_01672D62:
 BYTE   N06  Dn1  v072
 BYTE   N06  En1  v100
 BYTE   W12
 BYTE   Dn1  v072
 BYTE   N06  En1  v100
 BYTE   W24
 BYTE   Dn1  v072
 BYTE   N06  En1  v100
 BYTE   W06
 BYTE   Dn1  v072
 BYTE   N06  En1  v100
 BYTE   W06
 BYTE   Dn1  v072
 BYTE   N06  En1  v100
 BYTE   W12
 BYTE   Dn1  v072
 BYTE   N06  En1  v100
 BYTE   W12
 BYTE   Dn1  v072
 BYTE   N06  En1  v100
 BYTE   W12
 BYTE   Dn1  v072
 BYTE   N06  En1  v100
 BYTE   W06
 BYTE   Dn1  v072
 BYTE   N06  En1  v100
 BYTE   W06
 BYTE   PEND 
//  #08 //015   ----------------------------------------
 BYTE   PATT
  POIN2 Label_01672D36
//  #08 //016   ----------------------------------------
 BYTE   PATT
  POIN2 Label_01672D62
//  #08 //017   ----------------------------------------
Label_01672DA4:
 BYTE   N06  Dn1  v072
 BYTE   N06  En1  v100
 BYTE   W12
 BYTE   Dn1  v072
 BYTE   N06  En1  v100
 BYTE   W12
 BYTE   Dn1  v072
 BYTE   N06  En1  v100
 BYTE   W12
 BYTE   Dn1  v072
 BYTE   N06  En1  v100
 BYTE   W06
 BYTE   Dn1  v072
 BYTE   N06  En1  v100
 BYTE   W06
 BYTE   Dn1  v072
 BYTE   N06  En1  v100
 BYTE   W12
 BYTE   Dn1  v072
 BYTE   N06  En1  v100
 BYTE   W24
 BYTE   Dn1  v072
 BYTE   N06  En1  v100
 BYTE   W12
 BYTE   PEND 
//  #08 //018   ----------------------------------------
 BYTE   PATT
  POIN2 Label_01672DA4
//  #08 //019   ----------------------------------------
 BYTE   PATT
  POIN2 Label_01672DA4
//  #08 //020   ----------------------------------------
 BYTE   PATT
  POIN2 Label_01672DA4
//  #08 //021   ----------------------------------------
 BYTE   PATT
  POIN2 Label_01672DA4
//  #08 //022   ----------------------------------------
 BYTE   PATT
  POIN2 Label_01672DA4
//  #08 //023   ----------------------------------------
 BYTE   PATT
  POIN2 Label_01672DA4
//  #08 //024   ----------------------------------------
 BYTE   PATT
  POIN2 Label_01672DA4
//  #08 //025   ----------------------------------------
 BYTE   PATT
  POIN2 Label_01672DA4
//  #08 //026   ----------------------------------------
 BYTE   PATT
  POIN2 Label_01672DA4
//  #08 //027   ----------------------------------------
 BYTE   PATT
  POIN2 Label_01672CCF
//  #08 //028   ----------------------------------------
 BYTE   PATT
  POIN2 Label_01672CCF
//  #08 //029   ----------------------------------------
 BYTE   PATT
  POIN2 Label_01672CCF
//  #08 //030   ----------------------------------------
Label_01672E12:
 BYTE   N06  Dn1  v072
 BYTE   N06  En1  v100
 BYTE   W12
 BYTE   Dn1  v072
 BYTE   N06  En1  v100
 BYTE   W12
 BYTE   Dn1  v072
 BYTE   N06  En1  v100
 BYTE   W12
 BYTE   Dn1  v072
 BYTE   N06  En1  v100
 BYTE   W06
 BYTE   Dn1  v072
 BYTE   N06  En1  v100
 BYTE   W06
 BYTE   Dn1  v072
 BYTE   N06  En1  v100
 BYTE   W12
 BYTE   Dn1  v072
 BYTE   N06  En1  v100
 BYTE   W12
 BYTE   Dn1  v072
 BYTE   N06  En1  v100
 BYTE   W12
 BYTE   Dn1  v072
 BYTE   N06  En1  v100
 BYTE   W06
 BYTE   Dn1  v072
 BYTE   N06  En1  v100
 BYTE   W06
 BYTE   PEND 
//  #08 //031   ----------------------------------------
 BYTE   PATT
  POIN2 Label_01672CCF
//  #08 //032   ----------------------------------------
 BYTE   N06  Dn1  v072
 BYTE   N06  En1  v100
 BYTE   W12
 BYTE   Dn1  v072
 BYTE   N06  En1  v100
 BYTE   W12
 BYTE   Dn1  v072
 BYTE   N06  En1  v100
 BYTE   W12
 BYTE   Dn1  v072
 BYTE   N06  En1  v100
 BYTE   W06
 BYTE   Dn1  v072
 BYTE   N06  En1  v100
 BYTE   W06
 BYTE   Dn1  v072
 BYTE   N06  En1  v100
 BYTE   W12
 BYTE   Dn1  v072
 BYTE   N06  En1  v100
 BYTE   W36
//  #08 //033   ----------------------------------------
 BYTE   PATT
  POIN2 Label_01672C33
//  #08 //034   ----------------------------------------
 BYTE   PATT
  POIN2 Label_01672C33
//  #08 //035   ----------------------------------------
 BYTE   PATT
  POIN2 Label_01672C33
//  #08 //036   ----------------------------------------
 BYTE   PATT
  POIN2 Label_01672C33
//  #08 //037   ----------------------------------------
 BYTE   PATT
  POIN2 Label_01672C33
//  #08 //038   ----------------------------------------
 BYTE   PATT
  POIN2 Label_01672C33
//  #08 //039   ----------------------------------------
 BYTE   PATT
  POIN2 Label_01672C33
//  #08 //040   ----------------------------------------
 BYTE   PATT
  POIN2 Label_01672C7D
//  #08 //041   ----------------------------------------
 BYTE   PATT
  POIN2 Label_01672CB5
//  #08 //042   ----------------------------------------
 BYTE   PATT
  POIN2 Label_01672CCF
//  #08 //043   ----------------------------------------
 BYTE   PATT
  POIN2 Label_01672CB5
//  #08 //044   ----------------------------------------
 BYTE   PATT
  POIN2 Label_01672CFA
//  #08 //045   ----------------------------------------
 BYTE   PATT
  POIN2 Label_01672D36
//  #08 //046   ----------------------------------------
 BYTE   PATT
  POIN2 Label_01672D62
//  #08 //047   ----------------------------------------
 BYTE   PATT
  POIN2 Label_01672D36
//  #08 //048   ----------------------------------------
 BYTE   PATT
  POIN2 Label_01672D62
//  #08 //049   ----------------------------------------
 BYTE   PATT
  POIN2 Label_01672DA4
//  #08 //050   ----------------------------------------
 BYTE   PATT
  POIN2 Label_01672DA4
//  #08 //051   ----------------------------------------
 BYTE   PATT
  POIN2 Label_01672DA4
//  #08 //052   ----------------------------------------
 BYTE   PATT
  POIN2 Label_01672DA4
//  #08 //053   ----------------------------------------
 BYTE   PATT
  POIN2 Label_01672DA4
//  #08 //054   ----------------------------------------
 BYTE   PATT
  POIN2 Label_01672DA4
//  #08 //055   ----------------------------------------
 BYTE   PATT
  POIN2 Label_01672DA4
//  #08 //056   ----------------------------------------
 BYTE   PATT
  POIN2 Label_01672DA4
//  #08 //057   ----------------------------------------
 BYTE   PATT
  POIN2 Label_01672DA4
//  #08 //058   ----------------------------------------
 BYTE   PATT
  POIN2 Label_01672DA4
//  #08 //059   ----------------------------------------
 BYTE   PATT
  POIN2 Label_01672CCF
//  #08 //060   ----------------------------------------
 BYTE   PATT
  POIN2 Label_01672CCF
//  #08 //061   ----------------------------------------
 BYTE   PATT
  POIN2 Label_01672CCF
//  #08 //062   ----------------------------------------
 BYTE   PATT
  POIN2 Label_01672E12
//  #08 //063   ----------------------------------------
 BYTE   PATT
  POIN2 Label_01672CCF
//  #08 //064   ----------------------------------------
 BYTE   N06  Dn1  v072
 BYTE   N06  En1  v100
 BYTE   W12
 BYTE   Dn1  v072
 BYTE   N06  En1  v100
 BYTE   W12
 BYTE   Dn1  v072
 BYTE   N06  En1  v100
 BYTE   W12
 BYTE   Dn1  v072
 BYTE   N06  En1  v100
 BYTE   W06
 BYTE   Dn1  v072
 BYTE   N06  En1  v100
 BYTE   W06
 BYTE   Dn1  v072
 BYTE   N06  En1  v100
 BYTE   W12
 BYTE   Dn1  v072
 BYTE   N06  En1  v100
 BYTE   W06
 BYTE   FINE

//**************** Track 9 (Midi-Chn.8) ****************//

ArmyOfLeif_009:
//  #09 //000   ----------------------------------------
 BYTE   KEYSH   ArmyOfLeif_key+0
 BYTE   VOICE   46
 BYTE   VOL   55*ArmyOfLeif_mvl/mxv
 BYTE   W96
//  #09 //001   ----------------------------------------
 BYTE   W96
//  #09 //002   ----------------------------------------
 BYTE   W96
//  #09 //003   ----------------------------------------
 BYTE   W96
//  #09 //004   ----------------------------------------
 BYTE   W96
//  #09 //005   ----------------------------------------
 BYTE   W96
//  #09 //006   ----------------------------------------
 BYTE   W96
//  #09 //007   ----------------------------------------
 BYTE   W96
//  #09 //008   ----------------------------------------
 BYTE   W96
//  #09 //009   ----------------------------------------
 BYTE   W96
//  #09 //010   ----------------------------------------
 BYTE   W96
//  #09 //011   ----------------------------------------
 BYTE   W96
//  #09 //012   ----------------------------------------
 BYTE   W96
//  #09 //013   ----------------------------------------
 BYTE   W96
//  #09 //014   ----------------------------------------
 BYTE   W96
//  #09 //015   ----------------------------------------
 BYTE   W96
//  #09 //016   ----------------------------------------
Label_01672F5E:
 BYTE   N03  Fn3  v104
 BYTE   W06
 BYTE   Cn3
 BYTE   W06
 BYTE   N03
 BYTE   W06
 BYTE   Fn3
 BYTE   W06
 BYTE   N03
 BYTE   W06
 BYTE   Cn3
 BYTE   W06
 BYTE   N03
 BYTE   W06
 BYTE   Fn3
 BYTE   W06
 BYTE   N03
 BYTE   W06
 BYTE   Cn4
 BYTE   W06
 BYTE   N03
 BYTE   W06
 BYTE   Fn4  v096
 BYTE   W06
 BYTE   N03
 BYTE   W06
 BYTE   Cn5
 BYTE   W06
 BYTE   N03
 BYTE   W06
 BYTE   Fn5
 BYTE   W06
 BYTE   PEND 
//  #09 //017   ----------------------------------------
 BYTE   W96
//  #09 //018   ----------------------------------------
 BYTE   W96
//  #09 //019   ----------------------------------------
 BYTE   W96
//  #09 //020   ----------------------------------------
 BYTE   W96
//  #09 //021   ----------------------------------------
 BYTE   W96
//  #09 //022   ----------------------------------------
Label_01672F87:
 BYTE   N48  Cn3  v104
 BYTE   W48
 BYTE   N24  Dn3
 BYTE   W24
 BYTE   Ds3
 BYTE   W24
 BYTE   PEND 
//  #09 //023   ----------------------------------------
 BYTE   W96
//  #09 //024   ----------------------------------------
 BYTE   W96
//  #09 //025   ----------------------------------------
 BYTE   W96
//  #09 //026   ----------------------------------------
Label_01672F94:
 BYTE   N48  Ds3  v104
 BYTE   W48
 BYTE   N36  Fn3
 BYTE   W36
 BYTE   N06  Ds3  v100
 BYTE   W06
 BYTE   Fn3
 BYTE   W06
 BYTE   PEND 
//  #09 //027   ----------------------------------------
 BYTE   N96  Gn3
 BYTE   W96
//  #09 //028   ----------------------------------------
Label_01672FA5:
 BYTE   N48  Gn3  v100
 BYTE   W48
 BYTE   Fs3
 BYTE   W48
 BYTE   PEND 
//  #09 //029   ----------------------------------------
Label_01672FAC:
 BYTE   N48  As3  v100
 BYTE   W48
 BYTE   Cn4
 BYTE   W48
 BYTE   PEND 
//  #09 //030   ----------------------------------------
Label_01672FB3:
 BYTE   N72  Dn4  v100
 BYTE   W78
 BYTE   N06  As2
 BYTE   W06
 BYTE   Cn3
 BYTE   W06
 BYTE   Fn3
 BYTE   W06
 BYTE   PEND 
//  #09 //031   ----------------------------------------
Label_01672FBF:
 BYTE   N72  Gn3  v100
 BYTE   W84
 BYTE   N06  Fs3
 BYTE   W06
 BYTE   Gn3
 BYTE   W06
 BYTE   PEND 
//  #09 //032   ----------------------------------------
 BYTE   N72  An3
 BYTE   W96
//  #09 //033   ----------------------------------------
 BYTE   W96
//  #09 //034   ----------------------------------------
 BYTE   W96
//  #09 //035   ----------------------------------------
 BYTE   W96
//  #09 //036   ----------------------------------------
 BYTE   W96
//  #09 //037   ----------------------------------------
 BYTE   W96
//  #09 //038   ----------------------------------------
 BYTE   W96
//  #09 //039   ----------------------------------------
 BYTE   W96
//  #09 //040   ----------------------------------------
 BYTE   W96
//  #09 //041   ----------------------------------------
 BYTE   W96
//  #09 //042   ----------------------------------------
 BYTE   W96
//  #09 //043   ----------------------------------------
 BYTE   W96
//  #09 //044   ----------------------------------------
 BYTE   W96
//  #09 //045   ----------------------------------------
 BYTE   W96
//  #09 //046   ----------------------------------------
 BYTE   W96
//  #09 //047   ----------------------------------------
 BYTE   W96
//  #09 //048   ----------------------------------------
 BYTE   PATT
  POIN2 Label_01672F5E
//  #09 //049   ----------------------------------------
 BYTE   W96
//  #09 //050   ----------------------------------------
 BYTE   W96
//  #09 //051   ----------------------------------------
 BYTE   W96
//  #09 //052   ----------------------------------------
 BYTE   W96
//  #09 //053   ----------------------------------------
 BYTE   W96
//  #09 //054   ----------------------------------------
 BYTE   PATT
  POIN2 Label_01672F87
//  #09 //055   ----------------------------------------
 BYTE   W96
//  #09 //056   ----------------------------------------
 BYTE   W96
//  #09 //057   ----------------------------------------
 BYTE   W96
//  #09 //058   ----------------------------------------
 BYTE   PATT
  POIN2 Label_01672F94
//  #09 //059   ----------------------------------------
 BYTE   N96  Gn3  v100
 BYTE   W96
//  #09 //060   ----------------------------------------
 BYTE   PATT
  POIN2 Label_01672FA5
//  #09 //061   ----------------------------------------
 BYTE   PATT
  POIN2 Label_01672FAC
//  #09 //062   ----------------------------------------
 BYTE   PATT
  POIN2 Label_01672FB3
//  #09 //063   ----------------------------------------
 BYTE   PATT
  POIN2 Label_01672FBF
//  #09 //064   ----------------------------------------
 BYTE   N72  An3  v100
 BYTE   W96
 BYTE   FINE

//**************** Track 10 (Midi-Chn.9) ****************//

ArmyOfLeif_010:
//  #10 //000   ----------------------------------------
 BYTE   KEYSH   ArmyOfLeif_key+0
 BYTE   VOICE   56
 BYTE   VOL   69*ArmyOfLeif_mvl/mxv
 BYTE   W96
//  #10 //001   ----------------------------------------
 BYTE   W96
//  #10 //002   ----------------------------------------
 BYTE   W96
//  #10 //003   ----------------------------------------
 BYTE   W96
//  #10 //004   ----------------------------------------
 BYTE   W96
//  #10 //005   ----------------------------------------
 BYTE   W96
//  #10 //006   ----------------------------------------
 BYTE   W96
//  #10 //007   ----------------------------------------
 BYTE   W96
//  #10 //008   ----------------------------------------
Label_0167301E:
 BYTE   W84
 BYTE   N06  Dn4  v100
 BYTE   W06
 BYTE   Cn4
 BYTE   W06
 BYTE   PEND 
//  #10 //009   ----------------------------------------
Label_01673026:
 BYTE   N30  As3  v100
 BYTE   W36
 BYTE   N06  An3
 BYTE   W06
 BYTE   As3
 BYTE   W06
 BYTE   N30  Cn4
 BYTE   W36
 BYTE   N06  An3
 BYTE   W06
 BYTE   Fn3
 BYTE   W06
 BYTE   PEND 
//  #10 //010   ----------------------------------------
Label_01673038:
 BYTE   N18  Gn3  v100
 BYTE   W24
 BYTE   Dn4
 BYTE   W24
 BYTE   Cn4
 BYTE   W24
 BYTE   N12  An3
 BYTE   W12
 BYTE   Fn3
 BYTE   W12
 BYTE   PEND 
//  #10 //011   ----------------------------------------
Label_01673046:
 BYTE   N24  As3  v100
 BYTE   W30
 BYTE   N06  Fn3
 BYTE   W06
 BYTE   An3
 BYTE   W06
 BYTE   As3
 BYTE   W06
 BYTE   N30  Cn4
 BYTE   W36
 BYTE   N06
 BYTE   W06
 BYTE   Dn4
 BYTE   W06
 BYTE   PEND 
//  #10 //012   ----------------------------------------
Label_01673059:
 BYTE   N30  Ds4  v100
 BYTE   W36
 BYTE   N06  Fn4
 BYTE   W06
 BYTE   Ds4
 BYTE   W06
 BYTE   N30  Dn4
 BYTE   W36
 BYTE   N06
 BYTE   W06
 BYTE   Cn4
 BYTE   W06
 BYTE   PEND 
//  #10 //013   ----------------------------------------
Label_0167306A:
 BYTE   N30  As3  v100
 BYTE   W36
 BYTE   N06  An3
 BYTE   W06
 BYTE   As3
 BYTE   W06
 BYTE   N30  Cn4
 BYTE   W36
 BYTE   N06  Fn4
 BYTE   W06
 BYTE   Ds4
 BYTE   W06
 BYTE   PEND 
//  #10 //014   ----------------------------------------
Label_0167307C:
 BYTE   N18  Dn4  v100
 BYTE   W24
 BYTE   Cn4
 BYTE   W24
 BYTE   As3
 BYTE   W24
 BYTE   Dn4
 BYTE   W24
 BYTE   PEND 
//  #10 //015   ----------------------------------------
Label_01673087:
 BYTE   N30  Cn4  v100
 BYTE   W36
 BYTE   N06
 BYTE   W06
 BYTE   Dn4
 BYTE   W06
 BYTE   N30  Ds4
 BYTE   W36
 BYTE   N06
 BYTE   W06
 BYTE   Dn4
 BYTE   W06
 BYTE   PEND 
//  #10 //016   ----------------------------------------
 BYTE   N72  Cn4
 BYTE   W96
//  #10 //017   ----------------------------------------
 BYTE   W96
//  #10 //018   ----------------------------------------
 BYTE   W96
//  #10 //019   ----------------------------------------
 BYTE   W96
//  #10 //020   ----------------------------------------
 BYTE   W96
//  #10 //021   ----------------------------------------
 BYTE   W96
//  #10 //022   ----------------------------------------
Label_0167309F:
 BYTE   N48  Ds2  v092
 BYTE   W48
 BYTE   N24  Fn2
 BYTE   W24
 BYTE   Gn2
 BYTE   W24
 BYTE   PEND 
//  #10 //023   ----------------------------------------
 BYTE   W96
//  #10 //024   ----------------------------------------
 BYTE   W96
//  #10 //025   ----------------------------------------
 BYTE   W96
//  #10 //026   ----------------------------------------
Label_016730AC:
 BYTE   N48  Gn2  v092
 BYTE   W48
 BYTE   An2
 BYTE   W48
 BYTE   PEND 
//  #10 //027   ----------------------------------------
 BYTE   N96  As2  v100
 BYTE   W96
//  #10 //028   ----------------------------------------
 BYTE   Cn3
 BYTE   W96
//  #10 //029   ----------------------------------------
Label_016730B9:
 BYTE   N48  Dn3  v100
 BYTE   W48
 BYTE   Ds3
 BYTE   W48
 BYTE   PEND 
//  #10 //030   ----------------------------------------
 BYTE   N96  Fn3
 BYTE   W96
//  #10 //031   ----------------------------------------
 BYTE   Gn3
 BYTE   W96
//  #10 //032   ----------------------------------------
Label_016730C5:
 BYTE   N48  Fs3  v100
 BYTE   W60
 BYTE   N12
 BYTE   W36
 BYTE   PEND 
//  #10 //033   ----------------------------------------
 BYTE   W96
//  #10 //034   ----------------------------------------
 BYTE   W96
//  #10 //035   ----------------------------------------
 BYTE   W96
//  #10 //036   ----------------------------------------
 BYTE   W96
//  #10 //037   ----------------------------------------
 BYTE   W96
//  #10 //038   ----------------------------------------
 BYTE   W96
//  #10 //039   ----------------------------------------
 BYTE   W96
//  #10 //040   ----------------------------------------
 BYTE   PATT
  POIN2 Label_0167301E
//  #10 //041   ----------------------------------------
 BYTE   PATT
  POIN2 Label_01673026
//  #10 //042   ----------------------------------------
 BYTE   PATT
  POIN2 Label_01673038
//  #10 //043   ----------------------------------------
 BYTE   PATT
  POIN2 Label_01673046
//  #10 //044   ----------------------------------------
 BYTE   PATT
  POIN2 Label_01673059
//  #10 //045   ----------------------------------------
 BYTE   PATT
  POIN2 Label_0167306A
//  #10 //046   ----------------------------------------
 BYTE   PATT
  POIN2 Label_0167307C
//  #10 //047   ----------------------------------------
 BYTE   PATT
  POIN2 Label_01673087
//  #10 //048   ----------------------------------------
 BYTE   N72  Cn4  v100
 BYTE   W96
//  #10 //049   ----------------------------------------
 BYTE   W96
//  #10 //050   ----------------------------------------
 BYTE   W96
//  #10 //051   ----------------------------------------
 BYTE   W96
//  #10 //052   ----------------------------------------
 BYTE   W96
//  #10 //053   ----------------------------------------
 BYTE   W96
//  #10 //054   ----------------------------------------
 BYTE   PATT
  POIN2 Label_0167309F
//  #10 //055   ----------------------------------------
 BYTE   W96
//  #10 //056   ----------------------------------------
 BYTE   W96
//  #10 //057   ----------------------------------------
 BYTE   W96
//  #10 //058   ----------------------------------------
 BYTE   PATT
  POIN2 Label_016730AC
//  #10 //059   ----------------------------------------
 BYTE   N96  As2  v100
 BYTE   W96
//  #10 //060   ----------------------------------------
 BYTE   Cn3
 BYTE   W96
//  #10 //061   ----------------------------------------
 BYTE   PATT
  POIN2 Label_016730B9
//  #10 //062   ----------------------------------------
 BYTE   N96  Fn3  v100
 BYTE   W96
//  #10 //063   ----------------------------------------
 BYTE   Gn3
 BYTE   W96
//  #10 //064   ----------------------------------------
 BYTE   PATT
  POIN2 Label_016730C5
 BYTE   FINE

//**************** Track 11 (Midi-Chn.10) ****************//

ArmyOfLeif_011:
//  #11 //000   ----------------------------------------
 BYTE   KEYSH   ArmyOfLeif_key+0
 BYTE   VOICE   57
 BYTE   VOL   65*ArmyOfLeif_mvl/mxv
 BYTE   W96
//  #11 //001   ----------------------------------------
 BYTE   W96
//  #11 //002   ----------------------------------------
 BYTE   W96
//  #11 //003   ----------------------------------------
 BYTE   W96
//  #11 //004   ----------------------------------------
 BYTE   W96
//  #11 //005   ----------------------------------------
 BYTE   W96
//  #11 //006   ----------------------------------------
 BYTE   W96
//  #11 //007   ----------------------------------------
 BYTE   W96
//  #11 //008   ----------------------------------------
 BYTE   W96
//  #11 //009   ----------------------------------------
 BYTE   W96
//  #11 //010   ----------------------------------------
 BYTE   W96
//  #11 //011   ----------------------------------------
 BYTE   W96
//  #11 //012   ----------------------------------------
 BYTE   W96
//  #11 //013   ----------------------------------------
 BYTE   W96
//  #11 //014   ----------------------------------------
 BYTE   W96
//  #11 //015   ----------------------------------------
 BYTE   W96
//  #11 //016   ----------------------------------------
 BYTE   W96
//  #11 //017   ----------------------------------------
 BYTE   W96
//  #11 //018   ----------------------------------------
 BYTE   W96
//  #11 //019   ----------------------------------------
 BYTE   W96
//  #11 //020   ----------------------------------------
 BYTE   W96
//  #11 //021   ----------------------------------------
 BYTE   W96
//  #11 //022   ----------------------------------------
 BYTE   W96
//  #11 //023   ----------------------------------------
 BYTE   W96
//  #11 //024   ----------------------------------------
 BYTE   W96
//  #11 //025   ----------------------------------------
 BYTE   W96
//  #11 //026   ----------------------------------------
 BYTE   W96
//  #11 //027   ----------------------------------------
 BYTE   N72  Gn3  v092
 BYTE   W96
//  #11 //028   ----------------------------------------
Label_0167314D:
 BYTE   N48  Gn3  v092
 BYTE   W48
 BYTE   Fs3
 BYTE   W48
 BYTE   PEND 
//  #11 //029   ----------------------------------------
Label_01673154:
 BYTE   N48  As3  v092
 BYTE   W48
 BYTE   Cn4  v100
 BYTE   W48
 BYTE   PEND 
//  #11 //030   ----------------------------------------
 BYTE   N72  Dn4
 BYTE   W96
//  #11 //031   ----------------------------------------
 BYTE   W96
//  #11 //032   ----------------------------------------
 BYTE   W96
//  #11 //033   ----------------------------------------
 BYTE   W96
//  #11 //034   ----------------------------------------
 BYTE   W96
//  #11 //035   ----------------------------------------
 BYTE   W96
//  #11 //036   ----------------------------------------
 BYTE   W96
//  #11 //037   ----------------------------------------
 BYTE   W96
//  #11 //038   ----------------------------------------
 BYTE   W96
//  #11 //039   ----------------------------------------
 BYTE   W96
//  #11 //040   ----------------------------------------
 BYTE   W96
//  #11 //041   ----------------------------------------
 BYTE   W96
//  #11 //042   ----------------------------------------
 BYTE   W96
//  #11 //043   ----------------------------------------
 BYTE   W96
//  #11 //044   ----------------------------------------
 BYTE   W96
//  #11 //045   ----------------------------------------
 BYTE   W96
//  #11 //046   ----------------------------------------
 BYTE   W96
//  #11 //047   ----------------------------------------
 BYTE   W96
//  #11 //048   ----------------------------------------
 BYTE   W96
//  #11 //049   ----------------------------------------
 BYTE   W96
//  #11 //050   ----------------------------------------
 BYTE   W96
//  #11 //051   ----------------------------------------
 BYTE   W96
//  #11 //052   ----------------------------------------
 BYTE   W96
//  #11 //053   ----------------------------------------
 BYTE   W96
//  #11 //054   ----------------------------------------
 BYTE   W96
//  #11 //055   ----------------------------------------
 BYTE   W96
//  #11 //056   ----------------------------------------
 BYTE   W96
//  #11 //057   ----------------------------------------
 BYTE   W96
//  #11 //058   ----------------------------------------
 BYTE   W96
//  #11 //059   ----------------------------------------
 BYTE   Gn3  v092
 BYTE   W96
//  #11 //060   ----------------------------------------
 BYTE   PATT
  POIN2 Label_0167314D
//  #11 //061   ----------------------------------------
 BYTE   PATT
  POIN2 Label_01673154
//  #11 //062   ----------------------------------------
 BYTE   N72  Dn4  v100
 BYTE   W96
//  #11 //063   ----------------------------------------
 BYTE   W96
//  #11 //064   ----------------------------------------
 BYTE   W96
 BYTE   FINE

//**************** Track 12 (Midi-Chn.11) ****************//

ArmyOfLeif_012:
//  #12 //000   ----------------------------------------
 BYTE   KEYSH   ArmyOfLeif_key+0
 BYTE   VOICE   60
 BYTE   PAN   c_v+16
 BYTE   VOL   62*ArmyOfLeif_mvl/mxv
 BYTE   W84
 BYTE   N06  Fn2  v112
 BYTE   W06
 BYTE   As2
 BYTE   W06
//  #12 //001   ----------------------------------------
Label_0167319F:
 BYTE   N72  Cn3  v112
 BYTE   W84
 BYTE   N06  As2
 BYTE   W06
 BYTE   Cn3
 BYTE   W06
 BYTE   PEND 
//  #12 //002   ----------------------------------------
Label_016731A9:
 BYTE   N72  Dn3  v112
 BYTE   W84
 BYTE   N06  Cn3
 BYTE   W06
 BYTE   Dn3
 BYTE   W06
 BYTE   PEND 
//  #12 //003   ----------------------------------------
Label_016731B3:
 BYTE   N72  Ds3  v112
 BYTE   W84
 BYTE   N06  Dn3
 BYTE   W06
 BYTE   Cn3
 BYTE   W06
 BYTE   PEND 
//  #12 //004   ----------------------------------------
Label_016731BD:
 BYTE   N72  Dn3  v112
 BYTE   W84
 BYTE   N06  Fn2
 BYTE   W06
 BYTE   As2
 BYTE   W06
 BYTE   PEND 
//  #12 //005   ----------------------------------------
 BYTE   PATT
  POIN2 Label_0167319F
//  #12 //006   ----------------------------------------
 BYTE   PATT
  POIN2 Label_016731A9
//  #12 //007   ----------------------------------------
Label_016731D1:
 BYTE   N72  Ds3  v112
 BYTE   W84
 BYTE   N06  Fn3
 BYTE   W06
 BYTE   Cn3
 BYTE   W06
 BYTE   PEND 
//  #12 //008   ----------------------------------------
Label_016731DB:
 BYTE   N06  Cn3  v112
 BYTE   W06
 BYTE   Dn3
 BYTE   W06
 BYTE   N60
 BYTE   W72
 BYTE   N06  Dn4  v100
 BYTE   W06
 BYTE   Cn4
 BYTE   W06
 BYTE   PEND 
//  #12 //009   ----------------------------------------
Label_016731EA:
 BYTE   N30  As3  v100
 BYTE   W36
 BYTE   N06  An3
 BYTE   W06
 BYTE   As3
 BYTE   W06
 BYTE   N30  Cn4
 BYTE   W36
 BYTE   N06  An3
 BYTE   W06
 BYTE   Fn3
 BYTE   W06
 BYTE   PEND 
//  #12 //010   ----------------------------------------
Label_016731FC:
 BYTE   N18  Gn3  v100
 BYTE   W24
 BYTE   Dn4
 BYTE   W24
 BYTE   Cn4
 BYTE   W24
 BYTE   N12  An3
 BYTE   W12
 BYTE   Fn3
 BYTE   W12
 BYTE   PEND 
//  #12 //011   ----------------------------------------
Label_0167320A:
 BYTE   N24  As3  v100
 BYTE   W30
 BYTE   N06  Fn3
 BYTE   W06
 BYTE   An3
 BYTE   W06
 BYTE   As3
 BYTE   W06
 BYTE   N30  Cn4
 BYTE   W36
 BYTE   N06
 BYTE   W06
 BYTE   Dn4
 BYTE   W06
 BYTE   PEND 
//  #12 //012   ----------------------------------------
Label_0167321D:
 BYTE   N30  Ds4  v100
 BYTE   W36
 BYTE   N06  Fn4
 BYTE   W06
 BYTE   Ds4
 BYTE   W06
 BYTE   N30  Dn4
 BYTE   W36
 BYTE   N06
 BYTE   W06
 BYTE   Cn4
 BYTE   W06
 BYTE   PEND 
//  #12 //013   ----------------------------------------
Label_0167322E:
 BYTE   N30  As3  v100
 BYTE   W36
 BYTE   N06  An3
 BYTE   W06
 BYTE   As3
 BYTE   W06
 BYTE   N30  Cn4
 BYTE   W36
 BYTE   N06  Fn4
 BYTE   W06
 BYTE   Ds4
 BYTE   W06
 BYTE   PEND 
//  #12 //014   ----------------------------------------
Label_01673240:
 BYTE   N18  Dn4  v100
 BYTE   W24
 BYTE   Cn4
 BYTE   W24
 BYTE   As3
 BYTE   W24
 BYTE   Dn4
 BYTE   W24
 BYTE   PEND 
//  #12 //015   ----------------------------------------
Label_0167324B:
 BYTE   N30  Cn4  v100
 BYTE   W36
 BYTE   N06
 BYTE   W06
 BYTE   Dn4
 BYTE   W06
 BYTE   N30  Ds4
 BYTE   W36
 BYTE   N06
 BYTE   W06
 BYTE   Dn4
 BYTE   W06
 BYTE   PEND 
//  #12 //016   ----------------------------------------
 BYTE   N72  Cn4
 BYTE   W96
//  #12 //017   ----------------------------------------
 BYTE   W96
//  #12 //018   ----------------------------------------
 BYTE   W96
//  #12 //019   ----------------------------------------
 BYTE   W96
//  #12 //020   ----------------------------------------
 BYTE   W96
//  #12 //021   ----------------------------------------
 BYTE   W96
//  #12 //022   ----------------------------------------
 BYTE   W96
//  #12 //023   ----------------------------------------
 BYTE   W96
//  #12 //024   ----------------------------------------
 BYTE   W96
//  #12 //025   ----------------------------------------
 BYTE   W96
//  #12 //026   ----------------------------------------
Label_01673267:
 BYTE   W84
 BYTE   N06  Ds3  v104
 BYTE   W06
 BYTE   Fn3
 BYTE   W06
 BYTE   PEND 
//  #12 //027   ----------------------------------------
Label_0167326F:
 BYTE   N36  Gn3  v104
 BYTE   W36
 BYTE   N12  Ds3
 BYTE   W12
 BYTE   N24  As2
 BYTE   W24
 BYTE   Gn3
 BYTE   W24
 BYTE   PEND 
//  #12 //028   ----------------------------------------
Label_0167327C:
 BYTE   N36  Gn3  v104
 BYTE   W36
 BYTE   N06  An3
 BYTE   W06
 BYTE   Gn3
 BYTE   W06
 BYTE   N24  Fs3
 BYTE   W24
 BYTE   Dn3
 BYTE   W24
 BYTE   PEND 
//  #12 //029   ----------------------------------------
Label_0167328B:
 BYTE   N36  As3  v104
 BYTE   W36
 BYTE   N12
 BYTE   W12
 BYTE   N18  An3
 BYTE   W18
 BYTE   Gn3
 BYTE   W18
 BYTE   N12  Fn3
 BYTE   W12
 BYTE   PEND 
//  #12 //030   ----------------------------------------
Label_0167329A:
 BYTE   N72  Gn3  v104
 BYTE   W78
 BYTE   N06  As2
 BYTE   W06
 BYTE   Cn3
 BYTE   W06
 BYTE   Fn3
 BYTE   W06
 BYTE   PEND 
//  #12 //031   ----------------------------------------
Label_016732A6:
 BYTE   N72  Gn3  v104
 BYTE   W84
 BYTE   N06  Fs3
 BYTE   W06
 BYTE   Gn3
 BYTE   W06
 BYTE   PEND 
//  #12 //032   ----------------------------------------
 BYTE   PAN   c_v+16
 BYTE   VOL   62*ArmyOfLeif_mvl/mxv
 BYTE   N72  An3
 BYTE   W84
 BYTE   N06  Fn2  v112
 BYTE   W06
 BYTE   As2
 BYTE   W06
//  #12 //033   ----------------------------------------
 BYTE   PATT
  POIN2 Label_0167319F
//  #12 //034   ----------------------------------------
 BYTE   PATT
  POIN2 Label_016731A9
//  #12 //035   ----------------------------------------
 BYTE   PATT
  POIN2 Label_016731B3
//  #12 //036   ----------------------------------------
 BYTE   PATT
  POIN2 Label_016731BD
//  #12 //037   ----------------------------------------
 BYTE   PATT
  POIN2 Label_0167319F
//  #12 //038   ----------------------------------------
 BYTE   PATT
  POIN2 Label_016731A9
//  #12 //039   ----------------------------------------
 BYTE   PATT
  POIN2 Label_016731D1
//  #12 //040   ----------------------------------------
 BYTE   PATT
  POIN2 Label_016731DB
//  #12 //041   ----------------------------------------
 BYTE   PATT
  POIN2 Label_016731EA
//  #12 //042   ----------------------------------------
 BYTE   PATT
  POIN2 Label_016731FC
//  #12 //043   ----------------------------------------
 BYTE   PATT
  POIN2 Label_0167320A
//  #12 //044   ----------------------------------------
 BYTE   PATT
  POIN2 Label_0167321D
//  #12 //045   ----------------------------------------
 BYTE   PATT
  POIN2 Label_0167322E
//  #12 //046   ----------------------------------------
 BYTE   PATT
  POIN2 Label_01673240
//  #12 //047   ----------------------------------------
 BYTE   PATT
  POIN2 Label_0167324B
//  #12 //048   ----------------------------------------
 BYTE   N72  Cn4  v100
 BYTE   W96
//  #12 //049   ----------------------------------------
 BYTE   W96
//  #12 //050   ----------------------------------------
 BYTE   W96
//  #12 //051   ----------------------------------------
 BYTE   W96
//  #12 //052   ----------------------------------------
 BYTE   W96
//  #12 //053   ----------------------------------------
 BYTE   W96
//  #12 //054   ----------------------------------------
 BYTE   W96
//  #12 //055   ----------------------------------------
 BYTE   W96
//  #12 //056   ----------------------------------------
 BYTE   W96
//  #12 //057   ----------------------------------------
 BYTE   W96
//  #12 //058   ----------------------------------------
 BYTE   PATT
  POIN2 Label_01673267
//  #12 //059   ----------------------------------------
 BYTE   PATT
  POIN2 Label_0167326F
//  #12 //060   ----------------------------------------
 BYTE   PATT
  POIN2 Label_0167327C
//  #12 //061   ----------------------------------------
 BYTE   PATT
  POIN2 Label_0167328B
//  #12 //062   ----------------------------------------
 BYTE   PATT
  POIN2 Label_0167329A
//  #12 //063   ----------------------------------------
 BYTE   PATT
  POIN2 Label_016732A6
//  #12 //064   ----------------------------------------
 BYTE   N72  An3  v104
 BYTE   W96
 BYTE   FINE

//**************** Track 13 (Midi-Chn.12) ****************//

ArmyOfLeif_013:
//  #13 //000   ----------------------------------------
 BYTE   KEYSH   ArmyOfLeif_key+0
 BYTE   VOICE   46
 BYTE   VOL   60*ArmyOfLeif_mvl/mxv
 BYTE   W96
//  #13 //001   ----------------------------------------
 BYTE   W96
//  #13 //002   ----------------------------------------
 BYTE   W96
//  #13 //003   ----------------------------------------
 BYTE   W96
//  #13 //004   ----------------------------------------
 BYTE   W96
//  #13 //005   ----------------------------------------
 BYTE   W96
//  #13 //006   ----------------------------------------
 BYTE   W96
//  #13 //007   ----------------------------------------
 BYTE   W96
//  #13 //008   ----------------------------------------
 BYTE   W96
//  #13 //009   ----------------------------------------
 BYTE   W96
//  #13 //010   ----------------------------------------
 BYTE   W96
//  #13 //011   ----------------------------------------
 BYTE   W96
//  #13 //012   ----------------------------------------
 BYTE   W96
//  #13 //013   ----------------------------------------
 BYTE   W96
//  #13 //014   ----------------------------------------
 BYTE   W96
//  #13 //015   ----------------------------------------
 BYTE   W96
//  #13 //016   ----------------------------------------
Label_0167334E:
 BYTE   N03  Fn3  v104
 BYTE   W06
 BYTE   Cn3
 BYTE   W06
 BYTE   N03
 BYTE   W06
 BYTE   Fn3
 BYTE   W06
 BYTE   N03
 BYTE   W06
 BYTE   Cn3
 BYTE   W06
 BYTE   N03
 BYTE   W06
 BYTE   Fn3
 BYTE   W06
 BYTE   N03
 BYTE   W06
 BYTE   Cn4
 BYTE   W06
 BYTE   N03
 BYTE   W06
 BYTE   Fn4  v096
 BYTE   W06
 BYTE   N03
 BYTE   W06
 BYTE   Cn5
 BYTE   W06
 BYTE   N03
 BYTE   W06
 BYTE   Fn5
 BYTE   W06
 BYTE   PEND 
//  #13 //017   ----------------------------------------
 BYTE   W96
//  #13 //018   ----------------------------------------
 BYTE   W96
//  #13 //019   ----------------------------------------
 BYTE   W96
//  #13 //020   ----------------------------------------
 BYTE   W96
//  #13 //021   ----------------------------------------
 BYTE   W96
//  #13 //022   ----------------------------------------
 BYTE   W96
//  #13 //023   ----------------------------------------
 BYTE   W96
//  #13 //024   ----------------------------------------
 BYTE   W96
//  #13 //025   ----------------------------------------
 BYTE   W96
//  #13 //026   ----------------------------------------
Label_0167337B:
 BYTE   W84
 BYTE   N06  Ds3  v100
 BYTE   W06
 BYTE   Fn3
 BYTE   W06
 BYTE   PEND 
//  #13 //027   ----------------------------------------
Label_01673383:
 BYTE   W36
 BYTE   N12  Ds3  v104
 BYTE   W12
 BYTE   N24  As2  v100
 BYTE   W24
 BYTE   Gn3
 BYTE   W24
 BYTE   PEND 
//  #13 //028   ----------------------------------------
Label_0167338F:
 BYTE   W36
 BYTE   N06  An3  v100
 BYTE   W06
 BYTE   Gn3
 BYTE   W30
 BYTE   N24  Dn3
 BYTE   W24
 BYTE   PEND 
//  #13 //029   ----------------------------------------
Label_0167339A:
 BYTE   W36
 BYTE   N12  As3  v100
 BYTE   W12
 BYTE   N18  An3
 BYTE   W18
 BYTE   Gn3
 BYTE   W18
 BYTE   N12  Fn3
 BYTE   W12
 BYTE   PEND 
//  #13 //030   ----------------------------------------
 BYTE   N72  Gn3
 BYTE   W96
//  #13 //031   ----------------------------------------
 BYTE   W96
//  #13 //032   ----------------------------------------
 BYTE   W96
//  #13 //033   ----------------------------------------
 BYTE   W96
//  #13 //034   ----------------------------------------
 BYTE   W96
//  #13 //035   ----------------------------------------
 BYTE   W96
//  #13 //036   ----------------------------------------
 BYTE   W96
//  #13 //037   ----------------------------------------
 BYTE   W96
//  #13 //038   ----------------------------------------
 BYTE   W96
//  #13 //039   ----------------------------------------
 BYTE   W96
//  #13 //040   ----------------------------------------
 BYTE   W96
//  #13 //041   ----------------------------------------
 BYTE   W96
//  #13 //042   ----------------------------------------
 BYTE   W96
//  #13 //043   ----------------------------------------
 BYTE   W96
//  #13 //044   ----------------------------------------
 BYTE   W96
//  #13 //045   ----------------------------------------
 BYTE   W96
//  #13 //046   ----------------------------------------
 BYTE   W96
//  #13 //047   ----------------------------------------
 BYTE   W96
//  #13 //048   ----------------------------------------
 BYTE   PATT
  POIN2 Label_0167334E
//  #13 //049   ----------------------------------------
 BYTE   W96
//  #13 //050   ----------------------------------------
 BYTE   W96
//  #13 //051   ----------------------------------------
 BYTE   W96
//  #13 //052   ----------------------------------------
 BYTE   W96
//  #13 //053   ----------------------------------------
 BYTE   W96
//  #13 //054   ----------------------------------------
 BYTE   W96
//  #13 //055   ----------------------------------------
 BYTE   W96
//  #13 //056   ----------------------------------------
 BYTE   W96
//  #13 //057   ----------------------------------------
 BYTE   W96
//  #13 //058   ----------------------------------------
 BYTE   PATT
  POIN2 Label_0167337B
//  #13 //059   ----------------------------------------
 BYTE   PATT
  POIN2 Label_01673383
//  #13 //060   ----------------------------------------
 BYTE   PATT
  POIN2 Label_0167338F
//  #13 //061   ----------------------------------------
 BYTE   PATT
  POIN2 Label_0167339A
//  #13 //062   ----------------------------------------
 BYTE   N72  Gn3  v100
 BYTE   W72
 BYTE   FINE

//**************** Track 14 (Midi-Chn.13) ****************//

ArmyOfLeif_014:
//  #14 //000   ----------------------------------------
 BYTE   KEYSH   ArmyOfLeif_key+0
 BYTE   VOICE   60
 BYTE   PAN   c_v+16
 BYTE   VOL   54*ArmyOfLeif_mvl/mxv
 BYTE   W96
//  #14 //001   ----------------------------------------
 BYTE   W96
//  #14 //002   ----------------------------------------
 BYTE   W96
//  #14 //003   ----------------------------------------
 BYTE   W96
//  #14 //004   ----------------------------------------
 BYTE   W96
//  #14 //005   ----------------------------------------
 BYTE   W96
//  #14 //006   ----------------------------------------
 BYTE   W96
//  #14 //007   ----------------------------------------
 BYTE   W96
//  #14 //008   ----------------------------------------
 BYTE   W96
//  #14 //009   ----------------------------------------
Label_016733F5:
 BYTE   N42  Dn3  v100
 BYTE   W48
 BYTE   Ds3
 BYTE   W48
 BYTE   PEND 
//  #14 //010   ----------------------------------------
Label_016733FC:
 BYTE   N18  Dn3  v100
 BYTE   W24
 BYTE   Gn3
 BYTE   W24
 BYTE   Fn3
 BYTE   W24
 BYTE   Cn3
 BYTE   W24
 BYTE   PEND 
//  #14 //011   ----------------------------------------
Label_01673407:
 BYTE   N42  Dn3  v100
 BYTE   W48
 BYTE   Fn3
 BYTE   W48
 BYTE   PEND 
//  #14 //012   ----------------------------------------
Label_0167340E:
 BYTE   N42  Gn3  v100
 BYTE   W48
 BYTE   Dn3
 BYTE   W48
 BYTE   PEND 
//  #14 //013   ----------------------------------------
 BYTE   PATT
  POIN2 Label_016733F5
//  #14 //014   ----------------------------------------
Label_0167341A:
 BYTE   N18  Cn3  v100
 BYTE   W24
 BYTE   Fn3
 BYTE   W24
 BYTE   Ds3
 BYTE   W24
 BYTE   Gn3
 BYTE   W24
 BYTE   PEND 
//  #14 //015   ----------------------------------------
 BYTE   N84  Gs3
 BYTE   W96
//  #14 //016   ----------------------------------------
 BYTE   N72  Fn3
 BYTE   W96
//  #14 //017   ----------------------------------------
 BYTE   W96
//  #14 //018   ----------------------------------------
 BYTE   W96
//  #14 //019   ----------------------------------------
 BYTE   W96
//  #14 //020   ----------------------------------------
 BYTE   W96
//  #14 //021   ----------------------------------------
 BYTE   W96
//  #14 //022   ----------------------------------------
 BYTE   W96
//  #14 //023   ----------------------------------------
 BYTE   W96
//  #14 //024   ----------------------------------------
 BYTE   W96
//  #14 //025   ----------------------------------------
 BYTE   W96
//  #14 //026   ----------------------------------------
 BYTE   W96
//  #14 //027   ----------------------------------------
 BYTE   W96
//  #14 //028   ----------------------------------------
 BYTE   W96
//  #14 //029   ----------------------------------------
 BYTE   W96
//  #14 //030   ----------------------------------------
 BYTE   W96
//  #14 //031   ----------------------------------------
 BYTE   W96
//  #14 //032   ----------------------------------------
 BYTE   W96
//  #14 //033   ----------------------------------------
 BYTE   W96
//  #14 //034   ----------------------------------------
 BYTE   W96
//  #14 //035   ----------------------------------------
 BYTE   W96
//  #14 //036   ----------------------------------------
 BYTE   W96
//  #14 //037   ----------------------------------------
 BYTE   W96
//  #14 //038   ----------------------------------------
 BYTE   W96
//  #14 //039   ----------------------------------------
 BYTE   W96
//  #14 //040   ----------------------------------------
 BYTE   W96
//  #14 //041   ----------------------------------------
 BYTE   PATT
  POIN2 Label_016733F5
//  #14 //042   ----------------------------------------
 BYTE   PATT
  POIN2 Label_016733FC
//  #14 //043   ----------------------------------------
 BYTE   PATT
  POIN2 Label_01673407
//  #14 //044   ----------------------------------------
 BYTE   PATT
  POIN2 Label_0167340E
//  #14 //045   ----------------------------------------
 BYTE   PATT
  POIN2 Label_016733F5
//  #14 //046   ----------------------------------------
 BYTE   PATT
  POIN2 Label_0167341A
//  #14 //047   ----------------------------------------
 BYTE   N84  Gs3  v100
 BYTE   W96
//  #14 //048   ----------------------------------------
 BYTE   N72  Fn3
 BYTE   W72
 BYTE   FINE

//**************** Track 15 (Midi-Chn.14) ****************//

ArmyOfLeif_015:
//  #15 //000   ----------------------------------------
 BYTE   KEYSH   ArmyOfLeif_key+0
 BYTE   VOICE   47
 BYTE   VOL   65*ArmyOfLeif_mvl/mxv
 BYTE   W96
//  #15 //001   ----------------------------------------
Label_01673473:
 BYTE   N12  An1  v104
 BYTE   N12  An2  v084
 BYTE   W12
 BYTE   An1  v104
 BYTE   N12  An2  v084
 BYTE   W24
 BYTE   N06  An1  v104
 BYTE   N06  An2  v084
 BYTE   W06
 BYTE   Ds1  v104
 BYTE   N06  Ds2  v084
 BYTE   W06
 BYTE   N12  An1  v104
 BYTE   N12  An2  v084
 BYTE   W12
 BYTE   An1  v104
 BYTE   N12  An2  v084
 BYTE   W24
 BYTE   An1  v104
 BYTE   N12  An2  v084
 BYTE   W12
 BYTE   PEND 
//  #15 //002   ----------------------------------------
 BYTE   PATT
  POIN2 Label_01673473
//  #15 //003   ----------------------------------------
 BYTE   PATT
  POIN2 Label_01673473
//  #15 //004   ----------------------------------------
Label_016734AB:
 BYTE   N12  An1  v104
 BYTE   N12  An2  v084
 BYTE   W12
 BYTE   An1  v104
 BYTE   N12  An2  v084
 BYTE   W24
 BYTE   N06  An1  v104
 BYTE   N06  An2  v084
 BYTE   W06
 BYTE   Ds1  v104
 BYTE   N06  Ds2  v084
 BYTE   W06
 BYTE   N12  An1  v104
 BYTE   N12  An2  v084
 BYTE   W12
 BYTE   An1  v104
 BYTE   N12  An2  v084
 BYTE   W24
 BYTE   N04  An1  v104
 BYTE   N04  An2  v084
 BYTE   W04
 BYTE   An1  v104
 BYTE   N04  An2  v084
 BYTE   W04
 BYTE   An1  v104
 BYTE   N04  An2  v084
 BYTE   W04
 BYTE   PEND 
//  #15 //005   ----------------------------------------
 BYTE   PATT
  POIN2 Label_01673473
//  #15 //006   ----------------------------------------
 BYTE   PATT
  POIN2 Label_01673473
//  #15 //007   ----------------------------------------
 BYTE   PATT
  POIN2 Label_01673473
//  #15 //008   ----------------------------------------
 BYTE   PATT
  POIN2 Label_016734AB
//  #15 //009   ----------------------------------------
 BYTE   W96
//  #15 //010   ----------------------------------------
 BYTE   W96
//  #15 //011   ----------------------------------------
 BYTE   W96
//  #15 //012   ----------------------------------------
 BYTE   W96
//  #15 //013   ----------------------------------------
 BYTE   W96
//  #15 //014   ----------------------------------------
 BYTE   W96
//  #15 //015   ----------------------------------------
 BYTE   W96
//  #15 //016   ----------------------------------------
 BYTE   W96
//  #15 //017   ----------------------------------------
Label_01673502:
 BYTE   N12  An1  v104
 BYTE   N12  An2  v084
 BYTE   W12
 BYTE   An1  v104
 BYTE   N12  An2  v084
 BYTE   W24
 BYTE   N06  An1  v104
 BYTE   N06  An2  v084
 BYTE   W06
 BYTE   Ds1  v104
 BYTE   N06  Ds2  v084
 BYTE   W06
 BYTE   N12  An1  v104
 BYTE   N12  An2  v084
 BYTE   W12
 BYTE   An1  v104
 BYTE   N12  An2  v084
 BYTE   W36
 BYTE   PEND 
//  #15 //018   ----------------------------------------
 BYTE   PATT
  POIN2 Label_01673502
//  #15 //019   ----------------------------------------
 BYTE   PATT
  POIN2 Label_01673502
//  #15 //020   ----------------------------------------
 BYTE   PATT
  POIN2 Label_016734AB
//  #15 //021   ----------------------------------------
 BYTE   PATT
  POIN2 Label_01673502
//  #15 //022   ----------------------------------------
 BYTE   PATT
  POIN2 Label_01673473
//  #15 //023   ----------------------------------------
 BYTE   PATT
  POIN2 Label_01673502
//  #15 //024   ----------------------------------------
 BYTE   PATT
  POIN2 Label_016734AB
//  #15 //025   ----------------------------------------
 BYTE   PATT
  POIN2 Label_01673502
//  #15 //026   ----------------------------------------
 BYTE   PATT
  POIN2 Label_01673502
//  #15 //027   ----------------------------------------
 BYTE   W96
//  #15 //028   ----------------------------------------
 BYTE   W96
//  #15 //029   ----------------------------------------
 BYTE   W96
//  #15 //030   ----------------------------------------
 BYTE   W96
//  #15 //031   ----------------------------------------
 BYTE   W96
//  #15 //032   ----------------------------------------
 BYTE   W96
//  #15 //033   ----------------------------------------
 BYTE   PATT
  POIN2 Label_01673473
//  #15 //034   ----------------------------------------
 BYTE   PATT
  POIN2 Label_01673473
//  #15 //035   ----------------------------------------
 BYTE   PATT
  POIN2 Label_01673473
//  #15 //036   ----------------------------------------
 BYTE   PATT
  POIN2 Label_016734AB
//  #15 //037   ----------------------------------------
 BYTE   PATT
  POIN2 Label_01673473
//  #15 //038   ----------------------------------------
 BYTE   PATT
  POIN2 Label_01673473
//  #15 //039   ----------------------------------------
 BYTE   PATT
  POIN2 Label_01673473
//  #15 //040   ----------------------------------------
 BYTE   PATT
  POIN2 Label_016734AB
//  #15 //041   ----------------------------------------
 BYTE   W96
//  #15 //042   ----------------------------------------
 BYTE   W96
//  #15 //043   ----------------------------------------
 BYTE   W96
//  #15 //044   ----------------------------------------
 BYTE   W96
//  #15 //045   ----------------------------------------
 BYTE   W96
//  #15 //046   ----------------------------------------
 BYTE   W96
//  #15 //047   ----------------------------------------
 BYTE   W96
//  #15 //048   ----------------------------------------
 BYTE   W96
//  #15 //049   ----------------------------------------
 BYTE   PATT
  POIN2 Label_01673502
//  #15 //050   ----------------------------------------
 BYTE   PATT
  POIN2 Label_01673502
//  #15 //051   ----------------------------------------
 BYTE   PATT
  POIN2 Label_01673502
//  #15 //052   ----------------------------------------
 BYTE   PATT
  POIN2 Label_016734AB
//  #15 //053   ----------------------------------------
 BYTE   PATT
  POIN2 Label_01673502
//  #15 //054   ----------------------------------------
 BYTE   PATT
  POIN2 Label_01673473
//  #15 //055   ----------------------------------------
 BYTE   PATT
  POIN2 Label_01673502
//  #15 //056   ----------------------------------------
 BYTE   PATT
  POIN2 Label_016734AB
//  #15 //057   ----------------------------------------
 BYTE   PATT
  POIN2 Label_01673502
//  #15 //058   ----------------------------------------
 BYTE   N12  An1  v104
 BYTE   N12  An2  v084
 BYTE   W12
 BYTE   An1  v104
 BYTE   N12  An2  v084
 BYTE   W24
 BYTE   N06  An1  v104
 BYTE   N06  An2  v084
 BYTE   W06
 BYTE   Ds1  v104
 BYTE   N06  Ds2  v084
 BYTE   W06
 BYTE   N12  An1  v104
 BYTE   N12  An2  v084
 BYTE   W12
 BYTE   An1  v104
 BYTE   N12  An2  v084
 BYTE   W12
 BYTE   FINE

//**************** Track 16 (Midi-Chn.15) ****************//

ArmyOfLeif_016:
//  #16 //000   ----------------------------------------
 BYTE   KEYSH   ArmyOfLeif_key+0
 BYTE   VOICE   81
 BYTE   VOL   66*ArmyOfLeif_mvl/mxv
 BYTE   W96
//  #16 //001   ----------------------------------------
 BYTE   W96
//  #16 //002   ----------------------------------------
 BYTE   W96
//  #16 //003   ----------------------------------------
 BYTE   W96
//  #16 //004   ----------------------------------------
 BYTE   W96
//  #16 //005   ----------------------------------------
 BYTE   W96
//  #16 //006   ----------------------------------------
 BYTE   W96
//  #16 //007   ----------------------------------------
 BYTE   W96
//  #16 //008   ----------------------------------------
 BYTE   W96
//  #16 //009   ----------------------------------------
 BYTE   W96
//  #16 //010   ----------------------------------------
 BYTE   W96
//  #16 //011   ----------------------------------------
 BYTE   W96
//  #16 //012   ----------------------------------------
 BYTE   W96
//  #16 //013   ----------------------------------------
 BYTE   W96
//  #16 //014   ----------------------------------------
 BYTE   W96
//  #16 //015   ----------------------------------------
 BYTE   W96
//  #16 //016   ----------------------------------------
 BYTE   W96
//  #16 //017   ----------------------------------------
 BYTE   W96
//  #16 //018   ----------------------------------------
 BYTE   W96
//  #16 //019   ----------------------------------------
 BYTE   W96
//  #16 //020   ----------------------------------------
 BYTE   W96
//  #16 //021   ----------------------------------------
 BYTE   W96
//  #16 //022   ----------------------------------------
 BYTE   W96
//  #16 //023   ----------------------------------------
 BYTE   W96
//  #16 //024   ----------------------------------------
 BYTE   W96
//  #16 //025   ----------------------------------------
 BYTE   W96
//  #16 //026   ----------------------------------------
Label_01673604:
 BYTE   W84
 BYTE   N06  Ds3  v100
 BYTE   W06
 BYTE   Fn3
 BYTE   W06
 BYTE   PEND 
//  #16 //027   ----------------------------------------
Label_0167360C:
 BYTE   N36  Gn3  v092
 BYTE   W36
 BYTE   N12  Ds3  v100
 BYTE   W12
 BYTE   N24  As2
 BYTE   W24
 BYTE   Gn3
 BYTE   W24
 BYTE   PEND 
//  #16 //028   ----------------------------------------
Label_0167361A:
 BYTE   N36  Gn3  v092
 BYTE   W36
 BYTE   N06  An3  v100
 BYTE   W06
 BYTE   Gn3
 BYTE   W06
 BYTE   N24  Fs3  v092
 BYTE   W24
 BYTE   Dn3  v100
 BYTE   W24
 BYTE   PEND 
//  #16 //029   ----------------------------------------
Label_0167362C:
 BYTE   N36  As3  v092
 BYTE   W36
 BYTE   N12  As3  v100
 BYTE   W12
 BYTE   N18  An3
 BYTE   W18
 BYTE   Gn3
 BYTE   W18
 BYTE   N12  Fn3
 BYTE   W12
 BYTE   PEND 
//  #16 //030   ----------------------------------------
Label_0167363D:
 BYTE   N72  Gn3  v100
 BYTE   W78
 BYTE   N06  As2
 BYTE   W06
 BYTE   Cn3
 BYTE   W06
 BYTE   Fn3
 BYTE   W06
 BYTE   PEND 
//  #16 //031   ----------------------------------------
Label_01673649:
 BYTE   N72  Gn3  v100
 BYTE   W84
 BYTE   N06  Fs3
 BYTE   W06
 BYTE   Gn3
 BYTE   W06
 BYTE   PEND 
//  #16 //032   ----------------------------------------
 BYTE   N72  An3
 BYTE   W96
//  #16 //033   ----------------------------------------
 BYTE   W96
//  #16 //034   ----------------------------------------
 BYTE   W96
//  #16 //035   ----------------------------------------
 BYTE   W96
//  #16 //036   ----------------------------------------
 BYTE   W96
//  #16 //037   ----------------------------------------
 BYTE   W96
//  #16 //038   ----------------------------------------
 BYTE   W96
//  #16 //039   ----------------------------------------
 BYTE   W96
//  #16 //040   ----------------------------------------
 BYTE   W96
//  #16 //041   ----------------------------------------
 BYTE   W96
//  #16 //042   ----------------------------------------
 BYTE   W96
//  #16 //043   ----------------------------------------
 BYTE   W96
//  #16 //044   ----------------------------------------
 BYTE   W96
//  #16 //045   ----------------------------------------
 BYTE   W96
//  #16 //046   ----------------------------------------
 BYTE   W96
//  #16 //047   ----------------------------------------
 BYTE   W96
//  #16 //048   ----------------------------------------
 BYTE   W96
//  #16 //049   ----------------------------------------
 BYTE   W96
//  #16 //050   ----------------------------------------
 BYTE   W96
//  #16 //051   ----------------------------------------
 BYTE   W96
//  #16 //052   ----------------------------------------
 BYTE   W96
//  #16 //053   ----------------------------------------
 BYTE   W96
//  #16 //054   ----------------------------------------
 BYTE   W96
//  #16 //055   ----------------------------------------
 BYTE   W96
//  #16 //056   ----------------------------------------
 BYTE   W96
//  #16 //057   ----------------------------------------
 BYTE   W96
//  #16 //058   ----------------------------------------
 BYTE   PATT
  POIN2 Label_01673604
//  #16 //059   ----------------------------------------
 BYTE   PATT
  POIN2 Label_0167360C
//  #16 //060   ----------------------------------------
 BYTE   PATT
  POIN2 Label_0167361A
//  #16 //061   ----------------------------------------
 BYTE   PATT
  POIN2 Label_0167362C
//  #16 //062   ----------------------------------------
 BYTE   PATT
  POIN2 Label_0167363D
//  #16 //063   ----------------------------------------
 BYTE   PATT
  POIN2 Label_01673649
//  #16 //064   ----------------------------------------
 BYTE   N72  An3  v100
 BYTE   W96
 BYTE   FINE

//******************************************************//
	ALIGN 4

ArmyOfLeif:
	BYTE	16	// NumTrks
	BYTE	0	// NumBlks
	BYTE	ArmyOfLeif_pri	// Priority
	BYTE	ArmyOfLeif_rev	// Reverb.
    
	POIN2	ArmyOfLeif_grp
    
	POIN2	ArmyOfLeif_001
	POIN2	ArmyOfLeif_002
	POIN2	ArmyOfLeif_003
	POIN2	ArmyOfLeif_004
	POIN2	ArmyOfLeif_005
	POIN2	ArmyOfLeif_006
	POIN2	ArmyOfLeif_007
	POIN2	ArmyOfLeif_008
	POIN2	ArmyOfLeif_009
	POIN2	ArmyOfLeif_010
	POIN2	ArmyOfLeif_011
	POIN2	ArmyOfLeif_012
	POIN2	ArmyOfLeif_013
	POIN2	ArmyOfLeif_014
	POIN2	ArmyOfLeif_015
	POIN2	ArmyOfLeif_016

	
