	.include "MPlayDef.s"

	.equ	ArmyOfLeif_grp, voicegroup000
	.equ	ArmyOfLeif_pri, 0
	.equ	ArmyOfLeif_rev, 0
	.equ	ArmyOfLeif_mvl, 127
	.equ	ArmyOfLeif_key, 0
	.equ	ArmyOfLeif_tbs, 1
	.equ	ArmyOfLeif_exg, 0
	.equ	ArmyOfLeif_cmp, 1

	.section .rodata
	.global	ArmyOfLeif
	.align	2


@**************** Track 1 (Midi-Chn.0) ****************@

ArmyOfLeif_001:
@  #01 @000   ----------------------------------------
 .byte   KEYSH , ArmyOfLeif_key+0
 .byte   TEMPO , 112*ArmyOfLeif_tbs/2
 .byte   VOICE , 57
 .byte   VOL , 65*ArmyOfLeif_mvl/mxv
 .byte   W84
 .byte   N06 ,Fn2 ,v112
 .byte   W06
 .byte   As2
 .byte   W06
@  #01 @001   ----------------------------------------
Label_0167245F:
 .byte   N72 ,Cn3 ,v112
 .byte   W84
 .byte   N06 ,As2
 .byte   W06
 .byte   Cn3
 .byte   W06
 .byte   PEND 
@  #01 @002   ----------------------------------------
Label_01672469:
 .byte   N72 ,Dn3 ,v112
 .byte   W84
 .byte   N06 ,Cn3
 .byte   W06
 .byte   Dn3
 .byte   W06
 .byte   PEND 
@  #01 @003   ----------------------------------------
Label_01672473:
 .byte   N72 ,Ds3 ,v112
 .byte   W84
 .byte   N06 ,Dn3
 .byte   W06
 .byte   Cn3
 .byte   W06
 .byte   PEND 
@  #01 @004   ----------------------------------------
Label_0167247D:
 .byte   N72 ,Dn3 ,v112
 .byte   W84
 .byte   N06 ,Fn2
 .byte   W06
 .byte   As2
 .byte   W06
 .byte   PEND 
@  #01 @005   ----------------------------------------
 .byte   PATT
  .word Label_0167245F
@  #01 @006   ----------------------------------------
 .byte   PATT
  .word Label_01672469
@  #01 @007   ----------------------------------------
Label_01672491:
 .byte   N72 ,Ds3 ,v112
 .byte   W84
 .byte   N06 ,Fn3
 .byte   W06
 .byte   Cn3
 .byte   W06
 .byte   PEND 
@  #01 @008   ----------------------------------------
Label_0167249B:
 .byte   N06 ,Cn3 ,v112
 .byte   W06
 .byte   Dn3
 .byte   W06
 .byte   N60
 .byte   W84
 .byte   PEND 
@  #01 @009   ----------------------------------------
Label_016724A4:
 .byte   N42 ,Dn3 ,v100
 .byte   W48
 .byte   Ds3
 .byte   W48
 .byte   PEND 
@  #01 @010   ----------------------------------------
Label_016724AB:
 .byte   N18 ,Dn3 ,v100
 .byte   W24
 .byte   Gn3
 .byte   W24
 .byte   Fn3
 .byte   W24
 .byte   Cn3
 .byte   W24
 .byte   PEND 
@  #01 @011   ----------------------------------------
Label_016724B6:
 .byte   N42 ,Dn3 ,v100
 .byte   W48
 .byte   Fn3
 .byte   W48
 .byte   PEND 
@  #01 @012   ----------------------------------------
Label_016724BD:
 .byte   N42 ,Gn3 ,v100
 .byte   W48
 .byte   Dn3
 .byte   W48
 .byte   PEND 
@  #01 @013   ----------------------------------------
 .byte   PATT
  .word Label_016724A4
@  #01 @014   ----------------------------------------
Label_016724C9:
 .byte   N18 ,Cn3 ,v100
 .byte   W24
 .byte   Fn3
 .byte   W24
 .byte   Ds3
 .byte   W24
 .byte   Gn3
 .byte   W24
 .byte   PEND 
@  #01 @015   ----------------------------------------
 .byte   N84 ,Gs3
 .byte   W96
@  #01 @016   ----------------------------------------
 .byte   N72 ,Fn3
 .byte   W96
@  #01 @017   ----------------------------------------
 .byte   W96
@  #01 @018   ----------------------------------------
 .byte   W96
@  #01 @019   ----------------------------------------
 .byte   W96
@  #01 @020   ----------------------------------------
 .byte   W96
@  #01 @021   ----------------------------------------
 .byte   W96
@  #01 @022   ----------------------------------------
 .byte   W96
@  #01 @023   ----------------------------------------
 .byte   W96
@  #01 @024   ----------------------------------------
 .byte   W96
@  #01 @025   ----------------------------------------
 .byte   W96
@  #01 @026   ----------------------------------------
Label_016724E3:
 .byte   W84
 .byte   N06 ,Ds3 ,v100
 .byte   W06
 .byte   Fn3
 .byte   W06
 .byte   PEND 
@  #01 @027   ----------------------------------------
Label_016724EB:
 .byte   N36 ,Gn3 ,v092
 .byte   W36
 .byte   N12 ,Ds3 ,v100
 .byte   W12
 .byte   N24 ,As2
 .byte   W24
 .byte   Gn3
 .byte   W24
 .byte   PEND 
@  #01 @028   ----------------------------------------
Label_016724F9:
 .byte   N36 ,Gn3 ,v092
 .byte   W36
 .byte   N06 ,An3 ,v100
 .byte   W06
 .byte   Gn3
 .byte   W06
 .byte   N24 ,Fs3 ,v092
 .byte   W24
 .byte   Dn3 ,v100
 .byte   W24
 .byte   PEND 
@  #01 @029   ----------------------------------------
Label_0167250B:
 .byte   N36 ,As3 ,v092
 .byte   W36
 .byte   N12 ,As3 ,v100
 .byte   W12
 .byte   N18 ,An3
 .byte   W18
 .byte   Gn3
 .byte   W18
 .byte   N12 ,Fn3
 .byte   W12
 .byte   PEND 
@  #01 @030   ----------------------------------------
Label_0167251C:
 .byte   N72 ,Gn3 ,v100
 .byte   W78
 .byte   N06 ,As2
 .byte   W06
 .byte   Cn3
 .byte   W06
 .byte   Fn3
 .byte   W06
 .byte   PEND 
@  #01 @031   ----------------------------------------
Label_01672528:
 .byte   N72 ,Gn3 ,v100
 .byte   W84
 .byte   N06 ,Fs3
 .byte   W06
 .byte   Gn3
 .byte   W06
 .byte   PEND 
@  #01 @032   ----------------------------------------
 .byte   VOL , 65*ArmyOfLeif_mvl/mxv
 .byte   N72 ,An3
 .byte   W84
 .byte   N06 ,Fn2 ,v112
 .byte   W06
 .byte   As2
 .byte   W06
@  #01 @033   ----------------------------------------
 .byte   PATT
  .word Label_0167245F
@  #01 @034   ----------------------------------------
 .byte   PATT
  .word Label_01672469
@  #01 @035   ----------------------------------------
 .byte   PATT
  .word Label_01672473
@  #01 @036   ----------------------------------------
 .byte   PATT
  .word Label_0167247D
@  #01 @037   ----------------------------------------
 .byte   PATT
  .word Label_0167245F
@  #01 @038   ----------------------------------------
 .byte   PATT
  .word Label_01672469
@  #01 @039   ----------------------------------------
 .byte   PATT
  .word Label_01672491
@  #01 @040   ----------------------------------------
 .byte   PATT
  .word Label_0167249B
@  #01 @041   ----------------------------------------
 .byte   PATT
  .word Label_016724A4
@  #01 @042   ----------------------------------------
 .byte   PATT
  .word Label_016724AB
@  #01 @043   ----------------------------------------
 .byte   PATT
  .word Label_016724B6
@  #01 @044   ----------------------------------------
 .byte   PATT
  .word Label_016724BD
@  #01 @045   ----------------------------------------
 .byte   PATT
  .word Label_016724A4
@  #01 @046   ----------------------------------------
 .byte   PATT
  .word Label_016724C9
@  #01 @047   ----------------------------------------
 .byte   N84 ,Gs3 ,v100
 .byte   W96
@  #01 @048   ----------------------------------------
 .byte   N72 ,Fn3
 .byte   W96
@  #01 @049   ----------------------------------------
 .byte   W96
@  #01 @050   ----------------------------------------
 .byte   W96
@  #01 @051   ----------------------------------------
 .byte   W96
@  #01 @052   ----------------------------------------
 .byte   W96
@  #01 @053   ----------------------------------------
 .byte   W96
@  #01 @054   ----------------------------------------
 .byte   W96
@  #01 @055   ----------------------------------------
 .byte   W96
@  #01 @056   ----------------------------------------
 .byte   W96
@  #01 @057   ----------------------------------------
 .byte   W96
@  #01 @058   ----------------------------------------
 .byte   PATT
  .word Label_016724E3
@  #01 @059   ----------------------------------------
 .byte   PATT
  .word Label_016724EB
@  #01 @060   ----------------------------------------
 .byte   PATT
  .word Label_016724F9
@  #01 @061   ----------------------------------------
 .byte   PATT
  .word Label_0167250B
@  #01 @062   ----------------------------------------
 .byte   PATT
  .word Label_0167251C
@  #01 @063   ----------------------------------------
 .byte   PATT
  .word Label_01672528
@  #01 @064   ----------------------------------------
 .byte   N72 ,An3 ,v100
 .byte   W96
 .byte   FINE

@**************** Track 2 (Midi-Chn.1) ****************@

ArmyOfLeif_002:
@  #02 @000   ----------------------------------------
 .byte   KEYSH , ArmyOfLeif_key+0
 .byte   VOICE , 56
 .byte   VOL , 74*ArmyOfLeif_mvl/mxv
 .byte   W96
@  #02 @001   ----------------------------------------
 .byte   W96
@  #02 @002   ----------------------------------------
 .byte   W96
@  #02 @003   ----------------------------------------
 .byte   W96
@  #02 @004   ----------------------------------------
 .byte   W96
@  #02 @005   ----------------------------------------
 .byte   W96
@  #02 @006   ----------------------------------------
 .byte   W96
@  #02 @007   ----------------------------------------
 .byte   W96
@  #02 @008   ----------------------------------------
 .byte   W96
@  #02 @009   ----------------------------------------
 .byte   W96
@  #02 @010   ----------------------------------------
 .byte   W96
@  #02 @011   ----------------------------------------
 .byte   W96
@  #02 @012   ----------------------------------------
 .byte   W96
@  #02 @013   ----------------------------------------
 .byte   W96
@  #02 @014   ----------------------------------------
 .byte   W96
@  #02 @015   ----------------------------------------
 .byte   W96
@  #02 @016   ----------------------------------------
 .byte   W96
@  #02 @017   ----------------------------------------
 .byte   W96
@  #02 @018   ----------------------------------------
Label_016725D0:
 .byte   W78
 .byte   N06 ,Fn2 ,v112
 .byte   W06
 .byte   As2
 .byte   W06
 .byte   Cn3
 .byte   W06
 .byte   PEND 
@  #02 @019   ----------------------------------------
Label_016725DA:
 .byte   N72 ,Dn3 ,v112
 .byte   W84
 .byte   N06 ,Cn3
 .byte   W06
 .byte   Dn3
 .byte   W06
 .byte   PEND 
@  #02 @020   ----------------------------------------
Label_016725E4:
 .byte   N72 ,Ds3 ,v112
 .byte   W84
 .byte   N06 ,Dn3
 .byte   W06
 .byte   Cn3
 .byte   W06
 .byte   PEND 
@  #02 @021   ----------------------------------------
 .byte   N72 ,Dn3
 .byte   W96
@  #02 @022   ----------------------------------------
 .byte   PATT
  .word Label_016725D0
@  #02 @023   ----------------------------------------
 .byte   PATT
  .word Label_016725DA
@  #02 @024   ----------------------------------------
 .byte   PATT
  .word Label_016725E4
@  #02 @025   ----------------------------------------
 .byte   N72 ,Dn3 ,v112
 .byte   W96
@  #02 @026   ----------------------------------------
 .byte   W96
@  #02 @027   ----------------------------------------
 .byte   W96
@  #02 @028   ----------------------------------------
 .byte   W96
@  #02 @029   ----------------------------------------
 .byte   W96
@  #02 @030   ----------------------------------------
 .byte   W96
@  #02 @031   ----------------------------------------
Label_01672609:
 .byte   N36 ,Dn4 ,v100
 .byte   W36
 .byte   N06
 .byte   W06
 .byte   N06
 .byte   W06
 .byte   N06
 .byte   W12
 .byte   N06
 .byte   W12
 .byte   N06
 .byte   W12
 .byte   N06
 .byte   W12
 .byte   PEND 
@  #02 @032   ----------------------------------------
Label_0167261A:
 .byte   N36 ,Dn4 ,v100
 .byte   W36
 .byte   N06
 .byte   W06
 .byte   N06
 .byte   W06
 .byte   N06
 .byte   W12
 .byte   N12
 .byte   W36
 .byte   PEND 
@  #02 @033   ----------------------------------------
 .byte   W96
@  #02 @034   ----------------------------------------
 .byte   W96
@  #02 @035   ----------------------------------------
 .byte   W96
@  #02 @036   ----------------------------------------
 .byte   W96
@  #02 @037   ----------------------------------------
 .byte   W96
@  #02 @038   ----------------------------------------
 .byte   W96
@  #02 @039   ----------------------------------------
 .byte   W96
@  #02 @040   ----------------------------------------
 .byte   W96
@  #02 @041   ----------------------------------------
 .byte   W96
@  #02 @042   ----------------------------------------
 .byte   W96
@  #02 @043   ----------------------------------------
 .byte   W96
@  #02 @044   ----------------------------------------
 .byte   W96
@  #02 @045   ----------------------------------------
 .byte   W96
@  #02 @046   ----------------------------------------
 .byte   W96
@  #02 @047   ----------------------------------------
 .byte   W96
@  #02 @048   ----------------------------------------
 .byte   W96
@  #02 @049   ----------------------------------------
 .byte   W96
@  #02 @050   ----------------------------------------
 .byte   PATT
  .word Label_016725D0
@  #02 @051   ----------------------------------------
 .byte   PATT
  .word Label_016725DA
@  #02 @052   ----------------------------------------
 .byte   PATT
  .word Label_016725E4
@  #02 @053   ----------------------------------------
 .byte   N72 ,Dn3 ,v112
 .byte   W96
@  #02 @054   ----------------------------------------
 .byte   PATT
  .word Label_016725D0
@  #02 @055   ----------------------------------------
 .byte   PATT
  .word Label_016725DA
@  #02 @056   ----------------------------------------
 .byte   PATT
  .word Label_016725E4
@  #02 @057   ----------------------------------------
 .byte   N72 ,Dn3 ,v112
 .byte   W96
@  #02 @058   ----------------------------------------
 .byte   W96
@  #02 @059   ----------------------------------------
 .byte   W96
@  #02 @060   ----------------------------------------
 .byte   W96
@  #02 @061   ----------------------------------------
 .byte   W96
@  #02 @062   ----------------------------------------
 .byte   W96
@  #02 @063   ----------------------------------------
 .byte   PATT
  .word Label_01672609
@  #02 @064   ----------------------------------------
 .byte   PATT
  .word Label_0167261A
 .byte   FINE

@**************** Track 3 (Midi-Chn.2) ****************@

ArmyOfLeif_003:
@  #03 @000   ----------------------------------------
 .byte   KEYSH , ArmyOfLeif_key+0
 .byte   VOICE , 46
 .byte   VOL , 44*ArmyOfLeif_mvl/mxv
 .byte   W96
@  #03 @001   ----------------------------------------
Label_01672677:
 .byte   N06 ,Fn2 ,v100
 .byte   W12
 .byte   N06
 .byte   W24
 .byte   N06
 .byte   W06
 .byte   N06
 .byte   W06
 .byte   N06
 .byte   W12
 .byte   N06
 .byte   W36
 .byte   PEND 
@  #03 @002   ----------------------------------------
 .byte   PATT
  .word Label_01672677
@  #03 @003   ----------------------------------------
Label_0167268B:
 .byte   N06 ,Gn2 ,v100
 .byte   W12
 .byte   N06
 .byte   W24
 .byte   N06
 .byte   W06
 .byte   N06
 .byte   W06
 .byte   N06
 .byte   W12
 .byte   N06
 .byte   W36
 .byte   PEND 
@  #03 @004   ----------------------------------------
 .byte   PATT
  .word Label_01672677
@  #03 @005   ----------------------------------------
 .byte   PATT
  .word Label_01672677
@  #03 @006   ----------------------------------------
 .byte   PATT
  .word Label_01672677
@  #03 @007   ----------------------------------------
 .byte   PATT
  .word Label_0167268B
@  #03 @008   ----------------------------------------
Label_016726AE:
 .byte   N06 ,Fn2 ,v100
 .byte   W12
 .byte   N06
 .byte   W24
 .byte   N06
 .byte   W06
 .byte   N06
 .byte   W06
 .byte   N06
 .byte   W12
 .byte   N06
 .byte   W24
 .byte   Dn4
 .byte   W06
 .byte   Cn4
 .byte   W06
 .byte   PEND 
@  #03 @009   ----------------------------------------
Label_016726C1:
 .byte   N30 ,As3 ,v100
 .byte   W36
 .byte   N06 ,An3
 .byte   W06
 .byte   As3
 .byte   W06
 .byte   N30 ,Cn4
 .byte   W36
 .byte   N06 ,An3
 .byte   W06
 .byte   Fn3
 .byte   W06
 .byte   PEND 
@  #03 @010   ----------------------------------------
Label_016726D3:
 .byte   N18 ,Gn3 ,v100
 .byte   W24
 .byte   Dn4
 .byte   W24
 .byte   Cn4
 .byte   W24
 .byte   N12 ,An3
 .byte   W12
 .byte   Fn3
 .byte   W12
 .byte   PEND 
@  #03 @011   ----------------------------------------
Label_016726E1:
 .byte   N24 ,As3 ,v100
 .byte   W30
 .byte   N06 ,Fn3
 .byte   W06
 .byte   An3
 .byte   W06
 .byte   As3
 .byte   W06
 .byte   N30 ,Cn4
 .byte   W36
 .byte   N06
 .byte   W06
 .byte   Dn4
 .byte   W06
 .byte   PEND 
@  #03 @012   ----------------------------------------
Label_016726F4:
 .byte   N30 ,Ds4 ,v100
 .byte   W36
 .byte   N06 ,Fn4
 .byte   W06
 .byte   Ds4
 .byte   W06
 .byte   N30 ,Dn4
 .byte   W36
 .byte   N06
 .byte   W06
 .byte   Cn4
 .byte   W06
 .byte   PEND 
@  #03 @013   ----------------------------------------
Label_01672705:
 .byte   N30 ,As3 ,v100
 .byte   W36
 .byte   N06 ,An3
 .byte   W06
 .byte   As3
 .byte   W06
 .byte   N30 ,Cn4
 .byte   W36
 .byte   N06 ,Fn4
 .byte   W06
 .byte   Ds4
 .byte   W06
 .byte   PEND 
@  #03 @014   ----------------------------------------
Label_01672717:
 .byte   N18 ,Dn4 ,v100
 .byte   W24
 .byte   Cn4
 .byte   W24
 .byte   As3
 .byte   W24
 .byte   Dn4
 .byte   W24
 .byte   PEND 
@  #03 @015   ----------------------------------------
Label_01672722:
 .byte   N30 ,Cn4 ,v100
 .byte   W36
 .byte   N06
 .byte   W06
 .byte   Dn4
 .byte   W06
 .byte   N30 ,Ds4
 .byte   W36
 .byte   N06
 .byte   W06
 .byte   Dn4
 .byte   W06
 .byte   PEND 
@  #03 @016   ----------------------------------------
 .byte   N72 ,Cn4
 .byte   W96
@  #03 @017   ----------------------------------------
Label_01672735:
 .byte   N06 ,As2 ,v100
 .byte   W12
 .byte   N06
 .byte   W24
 .byte   N06
 .byte   W06
 .byte   N06
 .byte   W06
 .byte   N06
 .byte   W12
 .byte   N06
 .byte   W36
 .byte   PEND 
@  #03 @018   ----------------------------------------
 .byte   PATT
  .word Label_01672735
@  #03 @019   ----------------------------------------
 .byte   PATT
  .word Label_01672735
@  #03 @020   ----------------------------------------
 .byte   PATT
  .word Label_01672735
@  #03 @021   ----------------------------------------
 .byte   PATT
  .word Label_01672735
@  #03 @022   ----------------------------------------
 .byte   PATT
  .word Label_01672735
@  #03 @023   ----------------------------------------
 .byte   PATT
  .word Label_0167268B
@  #03 @024   ----------------------------------------
 .byte   PATT
  .word Label_0167268B
@  #03 @025   ----------------------------------------
 .byte   PATT
  .word Label_0167268B
@  #03 @026   ----------------------------------------
Label_0167276C:
 .byte   N06 ,Gn2 ,v100
 .byte   W12
 .byte   N06
 .byte   W24
 .byte   N06
 .byte   W06
 .byte   N06
 .byte   W06
 .byte   N06
 .byte   W24
 .byte   Fn2
 .byte   W24
 .byte   PEND 
@  #03 @027   ----------------------------------------
Label_0167277B:
 .byte   N06 ,Ds2 ,v100
 .byte   W12
 .byte   N06
 .byte   W36
 .byte   N06
 .byte   W12
 .byte   N06
 .byte   W36
 .byte   PEND 
@  #03 @028   ----------------------------------------
Label_01672786:
 .byte   N06 ,Dn2 ,v100
 .byte   W12
 .byte   N06
 .byte   W36
 .byte   N06
 .byte   W12
 .byte   N06
 .byte   W24
 .byte   N06
 .byte   W12
 .byte   PEND 
@  #03 @029   ----------------------------------------
Label_01672793:
 .byte   N06 ,Gn2 ,v100
 .byte   W12
 .byte   N06
 .byte   W36
 .byte   Fn2
 .byte   W12
 .byte   N06
 .byte   W36
 .byte   PEND 
@  #03 @030   ----------------------------------------
Label_0167279E:
 .byte   N06 ,Ds2 ,v100
 .byte   W12
 .byte   N06
 .byte   W72
 .byte   N06
 .byte   W12
 .byte   PEND 
@  #03 @031   ----------------------------------------
 .byte   PATT
  .word Label_01672786
@  #03 @032   ----------------------------------------
Label_016727AC:
 .byte   N06 ,Dn2 ,v100
 .byte   W12
 .byte   N06
 .byte   W24
 .byte   N06
 .byte   W06
 .byte   N06
 .byte   W06
 .byte   N06
 .byte   W12
 .byte   N06
 .byte   W36
 .byte   PEND 
@  #03 @033   ----------------------------------------
 .byte   PATT
  .word Label_01672677
@  #03 @034   ----------------------------------------
 .byte   PATT
  .word Label_01672677
@  #03 @035   ----------------------------------------
 .byte   PATT
  .word Label_0167268B
@  #03 @036   ----------------------------------------
 .byte   PATT
  .word Label_01672677
@  #03 @037   ----------------------------------------
 .byte   PATT
  .word Label_01672677
@  #03 @038   ----------------------------------------
 .byte   PATT
  .word Label_01672677
@  #03 @039   ----------------------------------------
 .byte   PATT
  .word Label_0167268B
@  #03 @040   ----------------------------------------
 .byte   PATT
  .word Label_016726AE
@  #03 @041   ----------------------------------------
 .byte   PATT
  .word Label_016726C1
@  #03 @042   ----------------------------------------
 .byte   PATT
  .word Label_016726D3
@  #03 @043   ----------------------------------------
 .byte   PATT
  .word Label_016726E1
@  #03 @044   ----------------------------------------
 .byte   PATT
  .word Label_016726F4
@  #03 @045   ----------------------------------------
 .byte   PATT
  .word Label_01672705
@  #03 @046   ----------------------------------------
 .byte   PATT
  .word Label_01672717
@  #03 @047   ----------------------------------------
 .byte   PATT
  .word Label_01672722
@  #03 @048   ----------------------------------------
 .byte   N72 ,Cn4 ,v100
 .byte   W96
@  #03 @049   ----------------------------------------
 .byte   PATT
  .word Label_01672735
@  #03 @050   ----------------------------------------
 .byte   PATT
  .word Label_01672735
@  #03 @051   ----------------------------------------
 .byte   PATT
  .word Label_01672735
@  #03 @052   ----------------------------------------
 .byte   PATT
  .word Label_01672735
@  #03 @053   ----------------------------------------
 .byte   PATT
  .word Label_01672735
@  #03 @054   ----------------------------------------
 .byte   PATT
  .word Label_01672735
@  #03 @055   ----------------------------------------
 .byte   PATT
  .word Label_0167268B
@  #03 @056   ----------------------------------------
 .byte   PATT
  .word Label_0167268B
@  #03 @057   ----------------------------------------
 .byte   PATT
  .word Label_0167268B
@  #03 @058   ----------------------------------------
 .byte   PATT
  .word Label_0167276C
@  #03 @059   ----------------------------------------
 .byte   PATT
  .word Label_0167277B
@  #03 @060   ----------------------------------------
 .byte   PATT
  .word Label_01672786
@  #03 @061   ----------------------------------------
 .byte   PATT
  .word Label_01672793
@  #03 @062   ----------------------------------------
 .byte   PATT
  .word Label_0167279E
@  #03 @063   ----------------------------------------
 .byte   PATT
  .word Label_01672786
@  #03 @064   ----------------------------------------
 .byte   PATT
  .word Label_016727AC
 .byte   FINE

@**************** Track 4 (Midi-Chn.3) ****************@

ArmyOfLeif_004:
@  #04 @000   ----------------------------------------
 .byte   KEYSH , ArmyOfLeif_key+0
 .byte   VOICE , 56
 .byte   VOL , 76*ArmyOfLeif_mvl/mxv
 .byte   W96
@  #04 @001   ----------------------------------------
 .byte   N72 ,Fn2 ,v100
 .byte   W96
@  #04 @002   ----------------------------------------
 .byte   N72
 .byte   W96
@  #04 @003   ----------------------------------------
 .byte   Gn2
 .byte   W96
@  #04 @004   ----------------------------------------
 .byte   Fn2
 .byte   W96
@  #04 @005   ----------------------------------------
 .byte   N72
 .byte   W96
@  #04 @006   ----------------------------------------
 .byte   N72
 .byte   W96
@  #04 @007   ----------------------------------------
 .byte   Gn2
 .byte   W96
@  #04 @008   ----------------------------------------
Label_01672873:
 .byte   N72 ,Fn2 ,v100
 .byte   W84
 .byte   N06 ,Dn3
 .byte   W06
 .byte   Cn3
 .byte   W06
 .byte   PEND 
@  #04 @009   ----------------------------------------
Label_0167287D:
 .byte   N30 ,As2 ,v100
 .byte   W36
 .byte   N06 ,An2
 .byte   W06
 .byte   As2
 .byte   W06
 .byte   N30 ,Cn3
 .byte   W36
 .byte   N06 ,An2
 .byte   W06
 .byte   Fn2
 .byte   W06
 .byte   PEND 
@  #04 @010   ----------------------------------------
Label_0167288F:
 .byte   N18 ,Gn2 ,v100
 .byte   W24
 .byte   Dn3
 .byte   W24
 .byte   Cn3
 .byte   W24
 .byte   N12 ,An2
 .byte   W12
 .byte   Fn2
 .byte   W12
 .byte   PEND 
@  #04 @011   ----------------------------------------
Label_0167289D:
 .byte   N24 ,As2 ,v100
 .byte   W30
 .byte   N06 ,Fn2
 .byte   W06
 .byte   An2
 .byte   W06
 .byte   As2
 .byte   W06
 .byte   N30 ,Cn3
 .byte   W36
 .byte   N06
 .byte   W06
 .byte   Dn3
 .byte   W06
 .byte   PEND 
@  #04 @012   ----------------------------------------
Label_016728B0:
 .byte   N30 ,Ds3 ,v100
 .byte   W36
 .byte   N06 ,Fn3
 .byte   W06
 .byte   Ds3
 .byte   W06
 .byte   N30 ,Dn3
 .byte   W36
 .byte   N06
 .byte   W06
 .byte   Cn3
 .byte   W06
 .byte   PEND 
@  #04 @013   ----------------------------------------
Label_016728C1:
 .byte   N30 ,As2 ,v100
 .byte   W36
 .byte   N06 ,An2
 .byte   W06
 .byte   As2
 .byte   W06
 .byte   N30 ,Cn3
 .byte   W36
 .byte   N06 ,Fn3
 .byte   W06
 .byte   Ds3
 .byte   W06
 .byte   PEND 
@  #04 @014   ----------------------------------------
Label_016728D3:
 .byte   N18 ,Gn2 ,v120
 .byte   W24
 .byte   Dn3 ,v127
 .byte   W24
 .byte   Cn3
 .byte   W24
 .byte   Gn3
 .byte   W24
 .byte   PEND 
@  #04 @015   ----------------------------------------
Label_016728DF:
 .byte   N30 ,Fn3 ,v127
 .byte   W36
 .byte   N06 ,Ds3
 .byte   W06
 .byte   Dn3
 .byte   W06
 .byte   N30 ,Cn3
 .byte   W36
 .byte   N06 ,As2
 .byte   W12
 .byte   PEND 
@  #04 @016   ----------------------------------------
 .byte   N72 ,Cn3
 .byte   W96
@  #04 @017   ----------------------------------------
 .byte   W96
@  #04 @018   ----------------------------------------
 .byte   W96
@  #04 @019   ----------------------------------------
 .byte   Fn2 ,v100
 .byte   W96
@  #04 @020   ----------------------------------------
 .byte   N72
 .byte   W96
@  #04 @021   ----------------------------------------
 .byte   N72
 .byte   W96
@  #04 @022   ----------------------------------------
 .byte   W96
@  #04 @023   ----------------------------------------
 .byte   Gn2
 .byte   W96
@  #04 @024   ----------------------------------------
 .byte   N72
 .byte   W96
@  #04 @025   ----------------------------------------
 .byte   N72
 .byte   W96
@  #04 @026   ----------------------------------------
 .byte   W96
@  #04 @027   ----------------------------------------
 .byte   W96
@  #04 @028   ----------------------------------------
 .byte   W96
@  #04 @029   ----------------------------------------
 .byte   W96
@  #04 @030   ----------------------------------------
 .byte   W96
@  #04 @031   ----------------------------------------
 .byte   W96
@  #04 @032   ----------------------------------------
 .byte   W96
@  #04 @033   ----------------------------------------
 .byte   Fn2
 .byte   W96
@  #04 @034   ----------------------------------------
 .byte   N72
 .byte   W96
@  #04 @035   ----------------------------------------
 .byte   Gn2
 .byte   W96
@  #04 @036   ----------------------------------------
 .byte   Fn2
 .byte   W96
@  #04 @037   ----------------------------------------
 .byte   N72
 .byte   W96
@  #04 @038   ----------------------------------------
 .byte   N72
 .byte   W96
@  #04 @039   ----------------------------------------
 .byte   Gn2
 .byte   W96
@  #04 @040   ----------------------------------------
 .byte   PATT
  .word Label_01672873
@  #04 @041   ----------------------------------------
 .byte   PATT
  .word Label_0167287D
@  #04 @042   ----------------------------------------
 .byte   PATT
  .word Label_0167288F
@  #04 @043   ----------------------------------------
 .byte   PATT
  .word Label_0167289D
@  #04 @044   ----------------------------------------
 .byte   PATT
  .word Label_016728B0
@  #04 @045   ----------------------------------------
 .byte   PATT
  .word Label_016728C1
@  #04 @046   ----------------------------------------
 .byte   PATT
  .word Label_016728D3
@  #04 @047   ----------------------------------------
 .byte   PATT
  .word Label_016728DF
@  #04 @048   ----------------------------------------
 .byte   N72 ,Cn3 ,v127
 .byte   W96
@  #04 @049   ----------------------------------------
 .byte   W96
@  #04 @050   ----------------------------------------
 .byte   W96
@  #04 @051   ----------------------------------------
 .byte   Fn2 ,v100
 .byte   W96
@  #04 @052   ----------------------------------------
 .byte   N72
 .byte   W96
@  #04 @053   ----------------------------------------
 .byte   N72
 .byte   W96
@  #04 @054   ----------------------------------------
 .byte   W96
@  #04 @055   ----------------------------------------
 .byte   Gn2
 .byte   W96
@  #04 @056   ----------------------------------------
 .byte   N72
 .byte   W96
@  #04 @057   ----------------------------------------
 .byte   N72
 .byte   W96
@  #04 @058   ----------------------------------------
 .byte   W96
@  #04 @059   ----------------------------------------
 .byte   W96
@  #04 @060   ----------------------------------------
 .byte   W96
@  #04 @061   ----------------------------------------
 .byte   W96
@  #04 @062   ----------------------------------------
 .byte   W96
@  #04 @063   ----------------------------------------
 .byte   W96
@  #04 @064   ----------------------------------------
 .byte   W96
 .byte   FINE

@**************** Track 5 (Midi-Chn.4) ****************@

ArmyOfLeif_005:
@  #05 @000   ----------------------------------------
 .byte   KEYSH , ArmyOfLeif_key+0
 .byte   VOICE , 61
 .byte   PAN , c_v-16
 .byte   VOL , 73*ArmyOfLeif_mvl/mxv
 .byte   W96
@  #05 @001   ----------------------------------------
 .byte   TIE ,As0 ,v100
 .byte   W96
@  #05 @002   ----------------------------------------
 .byte   W96
@  #05 @003   ----------------------------------------
 .byte   W96
@  #05 @004   ----------------------------------------
 .byte   W96
@  #05 @005   ----------------------------------------
 .byte   EOT
 .byte   TIE
 .byte   W96
@  #05 @006   ----------------------------------------
 .byte   W96
@  #05 @007   ----------------------------------------
 .byte   W96
@  #05 @008   ----------------------------------------
 .byte   W96
@  #05 @009   ----------------------------------------
 .byte   EOT
 .byte   W96
@  #05 @010   ----------------------------------------
 .byte   W96
@  #05 @011   ----------------------------------------
 .byte   W96
@  #05 @012   ----------------------------------------
 .byte   W96
@  #05 @013   ----------------------------------------
 .byte   W96
@  #05 @014   ----------------------------------------
 .byte   W96
@  #05 @015   ----------------------------------------
 .byte   W96
@  #05 @016   ----------------------------------------
 .byte   W96
@  #05 @017   ----------------------------------------
 .byte   TIE
 .byte   W96
@  #05 @018   ----------------------------------------
 .byte   W96
@  #05 @019   ----------------------------------------
 .byte   W96
@  #05 @020   ----------------------------------------
 .byte   W96
@  #05 @021   ----------------------------------------
 .byte   W96
@  #05 @022   ----------------------------------------
 .byte   W72
 .byte   EOT
 .byte   W24
@  #05 @023   ----------------------------------------
 .byte   TIE ,Gn0
 .byte   W96
@  #05 @024   ----------------------------------------
 .byte   W96
@  #05 @025   ----------------------------------------
 .byte   W96
@  #05 @026   ----------------------------------------
 .byte   W48
 .byte   EOT
 .byte   W24
 .byte   N12 ,Fn1
 .byte   W24
@  #05 @027   ----------------------------------------
 .byte   N96 ,Ds1
 .byte   W96
@  #05 @028   ----------------------------------------
 .byte   Dn1
 .byte   W96
@  #05 @029   ----------------------------------------
Label_01672994:
 .byte   N48 ,Gn1 ,v100
 .byte   W48
 .byte   Fn1
 .byte   W48
 .byte   PEND 
@  #05 @030   ----------------------------------------
 .byte   N96 ,Ds1
 .byte   W96
@  #05 @031   ----------------------------------------
 .byte   Dn1
 .byte   W96
@  #05 @032   ----------------------------------------
Label_016729A0:
 .byte   N48 ,Dn1 ,v100
 .byte   W60
 .byte   N12
 .byte   W36
 .byte   PEND 
@  #05 @033   ----------------------------------------
 .byte   TIE ,As0
 .byte   W96
@  #05 @034   ----------------------------------------
 .byte   W96
@  #05 @035   ----------------------------------------
 .byte   W96
@  #05 @036   ----------------------------------------
 .byte   W96
@  #05 @037   ----------------------------------------
 .byte   EOT
 .byte   TIE
 .byte   W96
@  #05 @038   ----------------------------------------
 .byte   W96
@  #05 @039   ----------------------------------------
 .byte   W96
@  #05 @040   ----------------------------------------
 .byte   W96
@  #05 @041   ----------------------------------------
 .byte   EOT
 .byte   W96
@  #05 @042   ----------------------------------------
 .byte   W96
@  #05 @043   ----------------------------------------
 .byte   W96
@  #05 @044   ----------------------------------------
 .byte   W96
@  #05 @045   ----------------------------------------
 .byte   W96
@  #05 @046   ----------------------------------------
 .byte   W96
@  #05 @047   ----------------------------------------
 .byte   W96
@  #05 @048   ----------------------------------------
 .byte   W96
@  #05 @049   ----------------------------------------
 .byte   TIE
 .byte   W96
@  #05 @050   ----------------------------------------
 .byte   W96
@  #05 @051   ----------------------------------------
 .byte   W96
@  #05 @052   ----------------------------------------
 .byte   W96
@  #05 @053   ----------------------------------------
 .byte   W96
@  #05 @054   ----------------------------------------
 .byte   W72
 .byte   EOT
 .byte   W24
@  #05 @055   ----------------------------------------
 .byte   TIE ,Gn0
 .byte   W96
@  #05 @056   ----------------------------------------
 .byte   W96
@  #05 @057   ----------------------------------------
 .byte   W96
@  #05 @058   ----------------------------------------
 .byte   W48
 .byte   EOT
 .byte   W24
 .byte   N12 ,Fn1
 .byte   W24
@  #05 @059   ----------------------------------------
 .byte   N96 ,Ds1
 .byte   W96
@  #05 @060   ----------------------------------------
 .byte   Dn1
 .byte   W96
@  #05 @061   ----------------------------------------
 .byte   PATT
  .word Label_01672994
@  #05 @062   ----------------------------------------
 .byte   N96 ,Ds1 ,v100
 .byte   W96
@  #05 @063   ----------------------------------------
 .byte   Dn1
 .byte   W96
@  #05 @064   ----------------------------------------
 .byte   PATT
  .word Label_016729A0
 .byte   FINE

@**************** Track 6 (Midi-Chn.5) ****************@

ArmyOfLeif_006:
@  #06 @000   ----------------------------------------
 .byte   KEYSH , ArmyOfLeif_key+0
 .byte   VOICE , 33
 .byte   VOL , 72*ArmyOfLeif_mvl/mxv
 .byte   W96
@  #06 @001   ----------------------------------------
 .byte   W96
@  #06 @002   ----------------------------------------
 .byte   W96
@  #06 @003   ----------------------------------------
 .byte   W96
@  #06 @004   ----------------------------------------
 .byte   W96
@  #06 @005   ----------------------------------------
 .byte   W96
@  #06 @006   ----------------------------------------
 .byte   W96
@  #06 @007   ----------------------------------------
 .byte   W96
@  #06 @008   ----------------------------------------
 .byte   W96
@  #06 @009   ----------------------------------------
Label_016729F7:
 .byte   N12 ,Gn1 ,v100
 .byte   W12
 .byte   N12
 .byte   W36
 .byte   Fn1
 .byte   W12
 .byte   N12
 .byte   W36
 .byte   PEND 
@  #06 @010   ----------------------------------------
Label_01672A02:
 .byte   N12 ,Ds1 ,v100
 .byte   W12
 .byte   N12
 .byte   W36
 .byte   Dn1
 .byte   W12
 .byte   N12
 .byte   W36
 .byte   PEND 
@  #06 @011   ----------------------------------------
Label_01672A0D:
 .byte   N12 ,Gn1 ,v100
 .byte   W12
 .byte   N12
 .byte   W36
 .byte   An1
 .byte   W12
 .byte   N12
 .byte   W36
 .byte   PEND 
@  #06 @012   ----------------------------------------
Label_01672A18:
 .byte   N12 ,As1 ,v100
 .byte   W12
 .byte   N12
 .byte   W36
 .byte   N12
 .byte   W12
 .byte   N12
 .byte   W24
 .byte   An1
 .byte   W12
 .byte   PEND 
@  #06 @013   ----------------------------------------
 .byte   PATT
  .word Label_016729F7
@  #06 @014   ----------------------------------------
 .byte   PATT
  .word Label_01672A02
@  #06 @015   ----------------------------------------
Label_01672A2F:
 .byte   N12 ,Gs1 ,v100
 .byte   W12
 .byte   N12
 .byte   W36
 .byte   N12
 .byte   W12
 .byte   N12
 .byte   W36
 .byte   PEND 
@  #06 @016   ----------------------------------------
Label_01672A3A:
 .byte   N12 ,Fn1 ,v100
 .byte   W12
 .byte   N12
 .byte   W24
 .byte   N06
 .byte   W06
 .byte   N06
 .byte   W06
 .byte   N12
 .byte   W12
 .byte   N12
 .byte   W24
 .byte   N12
 .byte   W12
 .byte   PEND 
@  #06 @017   ----------------------------------------
 .byte   W96
@  #06 @018   ----------------------------------------
 .byte   W96
@  #06 @019   ----------------------------------------
 .byte   W96
@  #06 @020   ----------------------------------------
 .byte   W96
@  #06 @021   ----------------------------------------
 .byte   W96
@  #06 @022   ----------------------------------------
 .byte   W96
@  #06 @023   ----------------------------------------
 .byte   W96
@  #06 @024   ----------------------------------------
 .byte   W96
@  #06 @025   ----------------------------------------
 .byte   W96
@  #06 @026   ----------------------------------------
 .byte   W72
 .byte   N24
 .byte   W24
@  #06 @027   ----------------------------------------
 .byte   N96 ,Ds1
 .byte   W96
@  #06 @028   ----------------------------------------
 .byte   Dn1
 .byte   W96
@  #06 @029   ----------------------------------------
Label_01672A5C:
 .byte   N48 ,Gn1 ,v100
 .byte   W48
 .byte   Fn1
 .byte   W48
 .byte   PEND 
@  #06 @030   ----------------------------------------
 .byte   N96 ,Ds1
 .byte   W96
@  #06 @031   ----------------------------------------
 .byte   Dn1
 .byte   W96
@  #06 @032   ----------------------------------------
Label_01672A68:
 .byte   N48 ,Dn1 ,v100
 .byte   W60
 .byte   N12
 .byte   W36
 .byte   PEND 
@  #06 @033   ----------------------------------------
 .byte   W96
@  #06 @034   ----------------------------------------
 .byte   W96
@  #06 @035   ----------------------------------------
 .byte   W96
@  #06 @036   ----------------------------------------
 .byte   W96
@  #06 @037   ----------------------------------------
 .byte   W96
@  #06 @038   ----------------------------------------
 .byte   W96
@  #06 @039   ----------------------------------------
 .byte   W96
@  #06 @040   ----------------------------------------
 .byte   W96
@  #06 @041   ----------------------------------------
 .byte   PATT
  .word Label_016729F7
@  #06 @042   ----------------------------------------
 .byte   PATT
  .word Label_01672A02
@  #06 @043   ----------------------------------------
 .byte   PATT
  .word Label_01672A0D
@  #06 @044   ----------------------------------------
 .byte   PATT
  .word Label_01672A18
@  #06 @045   ----------------------------------------
 .byte   PATT
  .word Label_016729F7
@  #06 @046   ----------------------------------------
 .byte   PATT
  .word Label_01672A02
@  #06 @047   ----------------------------------------
 .byte   PATT
  .word Label_01672A2F
@  #06 @048   ----------------------------------------
 .byte   PATT
  .word Label_01672A3A
@  #06 @049   ----------------------------------------
 .byte   W96
@  #06 @050   ----------------------------------------
 .byte   W96
@  #06 @051   ----------------------------------------
 .byte   W96
@  #06 @052   ----------------------------------------
 .byte   W96
@  #06 @053   ----------------------------------------
 .byte   W96
@  #06 @054   ----------------------------------------
 .byte   W96
@  #06 @055   ----------------------------------------
 .byte   W96
@  #06 @056   ----------------------------------------
 .byte   W96
@  #06 @057   ----------------------------------------
 .byte   W96
@  #06 @058   ----------------------------------------
 .byte   W72
 .byte   N24 ,Fn1 ,v100
 .byte   W24
@  #06 @059   ----------------------------------------
 .byte   N96 ,Ds1
 .byte   W96
@  #06 @060   ----------------------------------------
 .byte   Dn1
 .byte   W96
@  #06 @061   ----------------------------------------
 .byte   PATT
  .word Label_01672A5C
@  #06 @062   ----------------------------------------
 .byte   N96 ,Ds1 ,v100
 .byte   W96
@  #06 @063   ----------------------------------------
 .byte   Dn1
 .byte   W96
@  #06 @064   ----------------------------------------
 .byte   PATT
  .word Label_01672A68
 .byte   FINE

@**************** Track 7 (Midi-Chn.6) ****************@

ArmyOfLeif_007:
@  #07 @000   ----------------------------------------
 .byte   KEYSH , ArmyOfLeif_key+0
 .byte   VOICE , 56
 .byte   VOL , 57*ArmyOfLeif_mvl/mxv
 .byte   W96
@  #07 @001   ----------------------------------------
Label_01672ACB:
 .byte   N06 ,Fn2 ,v100
 .byte   W12
 .byte   N06
 .byte   W24
 .byte   N06
 .byte   W06
 .byte   N06
 .byte   W06
 .byte   N06
 .byte   W12
 .byte   N06
 .byte   W36
 .byte   PEND 
@  #07 @002   ----------------------------------------
 .byte   PATT
  .word Label_01672ACB
@  #07 @003   ----------------------------------------
Label_01672ADF:
 .byte   N06 ,Gn2 ,v100
 .byte   W12
 .byte   N06
 .byte   W24
 .byte   N06
 .byte   W06
 .byte   N06
 .byte   W06
 .byte   N06
 .byte   W12
 .byte   N06
 .byte   W36
 .byte   PEND 
@  #07 @004   ----------------------------------------
 .byte   PATT
  .word Label_01672ACB
@  #07 @005   ----------------------------------------
 .byte   PATT
  .word Label_01672ACB
@  #07 @006   ----------------------------------------
 .byte   PATT
  .word Label_01672ACB
@  #07 @007   ----------------------------------------
 .byte   PATT
  .word Label_01672ADF
@  #07 @008   ----------------------------------------
 .byte   PATT
  .word Label_01672ACB
@  #07 @009   ----------------------------------------
 .byte   W96
@  #07 @010   ----------------------------------------
 .byte   W96
@  #07 @011   ----------------------------------------
 .byte   W96
@  #07 @012   ----------------------------------------
 .byte   W96
@  #07 @013   ----------------------------------------
 .byte   W96
@  #07 @014   ----------------------------------------
 .byte   W96
@  #07 @015   ----------------------------------------
 .byte   W96
@  #07 @016   ----------------------------------------
 .byte   W96
@  #07 @017   ----------------------------------------
Label_01672B0F:
 .byte   N06 ,As2 ,v092
 .byte   W12
 .byte   N06
 .byte   W24
 .byte   N06
 .byte   W06
 .byte   N06
 .byte   W06
 .byte   N06
 .byte   W12
 .byte   N06
 .byte   W36
 .byte   PEND 
@  #07 @018   ----------------------------------------
 .byte   PATT
  .word Label_01672B0F
@  #07 @019   ----------------------------------------
Label_01672B23:
 .byte   N06 ,As2 ,v104
 .byte   W12
 .byte   As2 ,v100
 .byte   W24
 .byte   N06
 .byte   W06
 .byte   N06
 .byte   W06
 .byte   N06
 .byte   W12
 .byte   N06
 .byte   W36
 .byte   PEND 
@  #07 @020   ----------------------------------------
Label_01672B33:
 .byte   N06 ,As2 ,v100
 .byte   W12
 .byte   N06
 .byte   W24
 .byte   N06
 .byte   W06
 .byte   N06
 .byte   W06
 .byte   N06
 .byte   W12
 .byte   N06
 .byte   W36
 .byte   PEND 
@  #07 @021   ----------------------------------------
 .byte   PATT
  .word Label_01672B33
@  #07 @022   ----------------------------------------
 .byte   PATT
  .word Label_01672B0F
@  #07 @023   ----------------------------------------
 .byte   PATT
  .word Label_01672ADF
@  #07 @024   ----------------------------------------
 .byte   PATT
  .word Label_01672ADF
@  #07 @025   ----------------------------------------
 .byte   PATT
  .word Label_01672ADF
@  #07 @026   ----------------------------------------
Label_01672B5B:
 .byte   N06 ,Gn2 ,v092
 .byte   W12
 .byte   N06
 .byte   W24
 .byte   N06
 .byte   W06
 .byte   N06
 .byte   W06
 .byte   Gn2 ,v100
 .byte   W24
 .byte   Fn2
 .byte   W24
 .byte   PEND 
@  #07 @027   ----------------------------------------
Label_01672B6B:
 .byte   N06 ,Ds2 ,v100
 .byte   W12
 .byte   N06
 .byte   W36
 .byte   N06
 .byte   W12
 .byte   N06
 .byte   W36
 .byte   PEND 
@  #07 @028   ----------------------------------------
Label_01672B76:
 .byte   N06 ,Dn2 ,v100
 .byte   W12
 .byte   N06
 .byte   W36
 .byte   N06
 .byte   W12
 .byte   N06
 .byte   W24
 .byte   N06
 .byte   W12
 .byte   PEND 
@  #07 @029   ----------------------------------------
Label_01672B83:
 .byte   N06 ,Gn2 ,v100
 .byte   W12
 .byte   N06
 .byte   W36
 .byte   Fn2
 .byte   W12
 .byte   N06
 .byte   W36
 .byte   PEND 
@  #07 @030   ----------------------------------------
Label_01672B8E:
 .byte   N06 ,Ds2 ,v100
 .byte   W12
 .byte   N06
 .byte   W72
 .byte   N06
 .byte   W12
 .byte   PEND 
@  #07 @031   ----------------------------------------
 .byte   PATT
  .word Label_01672B76
@  #07 @032   ----------------------------------------
Label_01672B9C:
 .byte   N06 ,Dn2 ,v100
 .byte   W12
 .byte   N06
 .byte   W24
 .byte   N06
 .byte   W06
 .byte   N06
 .byte   W06
 .byte   N06
 .byte   W12
 .byte   N06
 .byte   W36
 .byte   PEND 
@  #07 @033   ----------------------------------------
 .byte   PATT
  .word Label_01672ACB
@  #07 @034   ----------------------------------------
 .byte   PATT
  .word Label_01672ACB
@  #07 @035   ----------------------------------------
 .byte   PATT
  .word Label_01672ADF
@  #07 @036   ----------------------------------------
 .byte   PATT
  .word Label_01672ACB
@  #07 @037   ----------------------------------------
 .byte   PATT
  .word Label_01672ACB
@  #07 @038   ----------------------------------------
 .byte   PATT
  .word Label_01672ACB
@  #07 @039   ----------------------------------------
 .byte   PATT
  .word Label_01672ADF
@  #07 @040   ----------------------------------------
 .byte   PATT
  .word Label_01672ACB
@  #07 @041   ----------------------------------------
 .byte   W96
@  #07 @042   ----------------------------------------
 .byte   W96
@  #07 @043   ----------------------------------------
 .byte   W96
@  #07 @044   ----------------------------------------
 .byte   W96
@  #07 @045   ----------------------------------------
 .byte   W96
@  #07 @046   ----------------------------------------
 .byte   W96
@  #07 @047   ----------------------------------------
 .byte   W96
@  #07 @048   ----------------------------------------
 .byte   W96
@  #07 @049   ----------------------------------------
 .byte   PATT
  .word Label_01672B0F
@  #07 @050   ----------------------------------------
 .byte   PATT
  .word Label_01672B0F
@  #07 @051   ----------------------------------------
 .byte   PATT
  .word Label_01672B23
@  #07 @052   ----------------------------------------
 .byte   PATT
  .word Label_01672B33
@  #07 @053   ----------------------------------------
 .byte   PATT
  .word Label_01672B33
@  #07 @054   ----------------------------------------
 .byte   PATT
  .word Label_01672B0F
@  #07 @055   ----------------------------------------
 .byte   PATT
  .word Label_01672ADF
@  #07 @056   ----------------------------------------
 .byte   PATT
  .word Label_01672ADF
@  #07 @057   ----------------------------------------
 .byte   PATT
  .word Label_01672ADF
@  #07 @058   ----------------------------------------
 .byte   PATT
  .word Label_01672B5B
@  #07 @059   ----------------------------------------
 .byte   PATT
  .word Label_01672B6B
@  #07 @060   ----------------------------------------
 .byte   PATT
  .word Label_01672B76
@  #07 @061   ----------------------------------------
 .byte   PATT
  .word Label_01672B83
@  #07 @062   ----------------------------------------
 .byte   PATT
  .word Label_01672B8E
@  #07 @063   ----------------------------------------
 .byte   PATT
  .word Label_01672B76
@  #07 @064   ----------------------------------------
 .byte   PATT
  .word Label_01672B9C
 .byte   FINE

@**************** Track 8 (Midi-Chn.7) ****************@

ArmyOfLeif_008:
@  #08 @000   ----------------------------------------
 .byte   KEYSH , ArmyOfLeif_key+0
 .byte   VOICE , 127
 .byte   VOL , 53*ArmyOfLeif_mvl/mxv
 .byte   W96
@  #08 @001   ----------------------------------------
Label_01672C33:
 .byte   N06 ,Dn1 ,v072
 .byte   N06 ,En1 ,v100
 .byte   W12
 .byte   Dn1 ,v072
 .byte   N06 ,En1 ,v100
 .byte   W24
 .byte   Dn1 ,v072
 .byte   N06 ,En1 ,v100
 .byte   W06
 .byte   Dn1 ,v072
 .byte   N06 ,En1 ,v100
 .byte   W06
 .byte   Dn1 ,v072
 .byte   N06 ,En1 ,v100
 .byte   W12
 .byte   Dn1 ,v072
 .byte   N06 ,En1 ,v100
 .byte   W24
 .byte   Cn1 ,v092
 .byte   N06 ,Fn1 ,v080
 .byte   W12
 .byte   PEND 
@  #08 @002   ----------------------------------------
 .byte   PATT
  .word Label_01672C33
@  #08 @003   ----------------------------------------
 .byte   PATT
  .word Label_01672C33
@  #08 @004   ----------------------------------------
 .byte   PATT
  .word Label_01672C33
@  #08 @005   ----------------------------------------
 .byte   PATT
  .word Label_01672C33
@  #08 @006   ----------------------------------------
 .byte   PATT
  .word Label_01672C33
@  #08 @007   ----------------------------------------
 .byte   PATT
  .word Label_01672C33
@  #08 @008   ----------------------------------------
Label_01672C7D:
 .byte   N06 ,Dn1 ,v072
 .byte   N06 ,En1 ,v100
 .byte   W12
 .byte   Dn1 ,v072
 .byte   N06 ,En1 ,v100
 .byte   W24
 .byte   Dn1 ,v072
 .byte   N06 ,En1 ,v100
 .byte   W06
 .byte   Dn1 ,v072
 .byte   N06 ,En1 ,v100
 .byte   W06
 .byte   Dn1 ,v072
 .byte   N06 ,En1 ,v100
 .byte   W12
 .byte   Dn1 ,v072
 .byte   N06 ,En1 ,v100
 .byte   W12
 .byte   Cn1 ,v092
 .byte   N06 ,Fn1 ,v080
 .byte   W12
 .byte   Dn1 ,v072
 .byte   N06 ,En1 ,v100
 .byte   W06
 .byte   Dn1 ,v072
 .byte   N06 ,En1 ,v100
 .byte   W06
 .byte   PEND 
@  #08 @009   ----------------------------------------
Label_01672CB5:
 .byte   N06 ,Dn1 ,v072
 .byte   N06 ,En1 ,v100
 .byte   W12
 .byte   Dn1 ,v072
 .byte   N06 ,En1 ,v100
 .byte   W36
 .byte   Dn1 ,v072
 .byte   N06 ,En1 ,v100
 .byte   W12
 .byte   Dn1 ,v072
 .byte   N06 ,En1 ,v100
 .byte   W36
 .byte   PEND 
@  #08 @010   ----------------------------------------
Label_01672CCF:
 .byte   N06 ,Dn1 ,v072
 .byte   N06 ,En1 ,v100
 .byte   W12
 .byte   Dn1 ,v072
 .byte   N06 ,En1 ,v100
 .byte   W36
 .byte   Dn1 ,v072
 .byte   N06 ,En1 ,v100
 .byte   W12
 .byte   Dn1 ,v072
 .byte   N06 ,En1 ,v100
 .byte   W24
 .byte   Dn1 ,v072
 .byte   N06 ,En1 ,v100
 .byte   W06
 .byte   Dn1 ,v072
 .byte   N06 ,En1 ,v100
 .byte   W06
 .byte   PEND 
@  #08 @011   ----------------------------------------
 .byte   PATT
  .word Label_01672CB5
@  #08 @012   ----------------------------------------
Label_01672CFA:
 .byte   N06 ,Dn1 ,v072
 .byte   N06 ,En1 ,v100
 .byte   W12
 .byte   Dn1 ,v072
 .byte   N06 ,En1 ,v100
 .byte   W24
 .byte   Dn1 ,v072
 .byte   N06 ,En1 ,v100
 .byte   W06
 .byte   Dn1 ,v072
 .byte   N06 ,En1 ,v100
 .byte   W06
 .byte   Dn1 ,v072
 .byte   N06 ,En1 ,v100
 .byte   W12
 .byte   Dn1 ,v072
 .byte   N06 ,En1 ,v100
 .byte   W12
 .byte   Dn1 ,v072
 .byte   N03 ,En1 ,v100
 .byte   W03
 .byte   En1 ,v080
 .byte   W09
 .byte   N06 ,Dn1 ,v072
 .byte   N06 ,En1 ,v100
 .byte   W06
 .byte   Dn1 ,v072
 .byte   N06 ,En1 ,v100
 .byte   W06
 .byte   PEND 
@  #08 @013   ----------------------------------------
Label_01672D36:
 .byte   N06 ,Dn1 ,v072
 .byte   N06 ,En1 ,v100
 .byte   W12
 .byte   Dn1 ,v072
 .byte   N06 ,En1 ,v100
 .byte   W24
 .byte   Dn1 ,v072
 .byte   N06 ,En1 ,v100
 .byte   W06
 .byte   Dn1 ,v072
 .byte   N06 ,En1 ,v100
 .byte   W06
 .byte   Dn1 ,v072
 .byte   N06 ,En1 ,v100
 .byte   W12
 .byte   Dn1 ,v072
 .byte   N06 ,En1 ,v100
 .byte   W24
 .byte   Dn1 ,v072
 .byte   N06 ,En1 ,v100
 .byte   W12
 .byte   PEND 
@  #08 @014   ----------------------------------------
Label_01672D62:
 .byte   N06 ,Dn1 ,v072
 .byte   N06 ,En1 ,v100
 .byte   W12
 .byte   Dn1 ,v072
 .byte   N06 ,En1 ,v100
 .byte   W24
 .byte   Dn1 ,v072
 .byte   N06 ,En1 ,v100
 .byte   W06
 .byte   Dn1 ,v072
 .byte   N06 ,En1 ,v100
 .byte   W06
 .byte   Dn1 ,v072
 .byte   N06 ,En1 ,v100
 .byte   W12
 .byte   Dn1 ,v072
 .byte   N06 ,En1 ,v100
 .byte   W12
 .byte   Dn1 ,v072
 .byte   N06 ,En1 ,v100
 .byte   W12
 .byte   Dn1 ,v072
 .byte   N06 ,En1 ,v100
 .byte   W06
 .byte   Dn1 ,v072
 .byte   N06 ,En1 ,v100
 .byte   W06
 .byte   PEND 
@  #08 @015   ----------------------------------------
 .byte   PATT
  .word Label_01672D36
@  #08 @016   ----------------------------------------
 .byte   PATT
  .word Label_01672D62
@  #08 @017   ----------------------------------------
Label_01672DA4:
 .byte   N06 ,Dn1 ,v072
 .byte   N06 ,En1 ,v100
 .byte   W12
 .byte   Dn1 ,v072
 .byte   N06 ,En1 ,v100
 .byte   W12
 .byte   Dn1 ,v072
 .byte   N06 ,En1 ,v100
 .byte   W12
 .byte   Dn1 ,v072
 .byte   N06 ,En1 ,v100
 .byte   W06
 .byte   Dn1 ,v072
 .byte   N06 ,En1 ,v100
 .byte   W06
 .byte   Dn1 ,v072
 .byte   N06 ,En1 ,v100
 .byte   W12
 .byte   Dn1 ,v072
 .byte   N06 ,En1 ,v100
 .byte   W24
 .byte   Dn1 ,v072
 .byte   N06 ,En1 ,v100
 .byte   W12
 .byte   PEND 
@  #08 @018   ----------------------------------------
 .byte   PATT
  .word Label_01672DA4
@  #08 @019   ----------------------------------------
 .byte   PATT
  .word Label_01672DA4
@  #08 @020   ----------------------------------------
 .byte   PATT
  .word Label_01672DA4
@  #08 @021   ----------------------------------------
 .byte   PATT
  .word Label_01672DA4
@  #08 @022   ----------------------------------------
 .byte   PATT
  .word Label_01672DA4
@  #08 @023   ----------------------------------------
 .byte   PATT
  .word Label_01672DA4
@  #08 @024   ----------------------------------------
 .byte   PATT
  .word Label_01672DA4
@  #08 @025   ----------------------------------------
 .byte   PATT
  .word Label_01672DA4
@  #08 @026   ----------------------------------------
 .byte   PATT
  .word Label_01672DA4
@  #08 @027   ----------------------------------------
 .byte   PATT
  .word Label_01672CCF
@  #08 @028   ----------------------------------------
 .byte   PATT
  .word Label_01672CCF
@  #08 @029   ----------------------------------------
 .byte   PATT
  .word Label_01672CCF
@  #08 @030   ----------------------------------------
Label_01672E12:
 .byte   N06 ,Dn1 ,v072
 .byte   N06 ,En1 ,v100
 .byte   W12
 .byte   Dn1 ,v072
 .byte   N06 ,En1 ,v100
 .byte   W12
 .byte   Dn1 ,v072
 .byte   N06 ,En1 ,v100
 .byte   W12
 .byte   Dn1 ,v072
 .byte   N06 ,En1 ,v100
 .byte   W06
 .byte   Dn1 ,v072
 .byte   N06 ,En1 ,v100
 .byte   W06
 .byte   Dn1 ,v072
 .byte   N06 ,En1 ,v100
 .byte   W12
 .byte   Dn1 ,v072
 .byte   N06 ,En1 ,v100
 .byte   W12
 .byte   Dn1 ,v072
 .byte   N06 ,En1 ,v100
 .byte   W12
 .byte   Dn1 ,v072
 .byte   N06 ,En1 ,v100
 .byte   W06
 .byte   Dn1 ,v072
 .byte   N06 ,En1 ,v100
 .byte   W06
 .byte   PEND 
@  #08 @031   ----------------------------------------
 .byte   PATT
  .word Label_01672CCF
@  #08 @032   ----------------------------------------
 .byte   N06 ,Dn1 ,v072
 .byte   N06 ,En1 ,v100
 .byte   W12
 .byte   Dn1 ,v072
 .byte   N06 ,En1 ,v100
 .byte   W12
 .byte   Dn1 ,v072
 .byte   N06 ,En1 ,v100
 .byte   W12
 .byte   Dn1 ,v072
 .byte   N06 ,En1 ,v100
 .byte   W06
 .byte   Dn1 ,v072
 .byte   N06 ,En1 ,v100
 .byte   W06
 .byte   Dn1 ,v072
 .byte   N06 ,En1 ,v100
 .byte   W12
 .byte   Dn1 ,v072
 .byte   N06 ,En1 ,v100
 .byte   W36
@  #08 @033   ----------------------------------------
 .byte   PATT
  .word Label_01672C33
@  #08 @034   ----------------------------------------
 .byte   PATT
  .word Label_01672C33
@  #08 @035   ----------------------------------------
 .byte   PATT
  .word Label_01672C33
@  #08 @036   ----------------------------------------
 .byte   PATT
  .word Label_01672C33
@  #08 @037   ----------------------------------------
 .byte   PATT
  .word Label_01672C33
@  #08 @038   ----------------------------------------
 .byte   PATT
  .word Label_01672C33
@  #08 @039   ----------------------------------------
 .byte   PATT
  .word Label_01672C33
@  #08 @040   ----------------------------------------
 .byte   PATT
  .word Label_01672C7D
@  #08 @041   ----------------------------------------
 .byte   PATT
  .word Label_01672CB5
@  #08 @042   ----------------------------------------
 .byte   PATT
  .word Label_01672CCF
@  #08 @043   ----------------------------------------
 .byte   PATT
  .word Label_01672CB5
@  #08 @044   ----------------------------------------
 .byte   PATT
  .word Label_01672CFA
@  #08 @045   ----------------------------------------
 .byte   PATT
  .word Label_01672D36
@  #08 @046   ----------------------------------------
 .byte   PATT
  .word Label_01672D62
@  #08 @047   ----------------------------------------
 .byte   PATT
  .word Label_01672D36
@  #08 @048   ----------------------------------------
 .byte   PATT
  .word Label_01672D62
@  #08 @049   ----------------------------------------
 .byte   PATT
  .word Label_01672DA4
@  #08 @050   ----------------------------------------
 .byte   PATT
  .word Label_01672DA4
@  #08 @051   ----------------------------------------
 .byte   PATT
  .word Label_01672DA4
@  #08 @052   ----------------------------------------
 .byte   PATT
  .word Label_01672DA4
@  #08 @053   ----------------------------------------
 .byte   PATT
  .word Label_01672DA4
@  #08 @054   ----------------------------------------
 .byte   PATT
  .word Label_01672DA4
@  #08 @055   ----------------------------------------
 .byte   PATT
  .word Label_01672DA4
@  #08 @056   ----------------------------------------
 .byte   PATT
  .word Label_01672DA4
@  #08 @057   ----------------------------------------
 .byte   PATT
  .word Label_01672DA4
@  #08 @058   ----------------------------------------
 .byte   PATT
  .word Label_01672DA4
@  #08 @059   ----------------------------------------
 .byte   PATT
  .word Label_01672CCF
@  #08 @060   ----------------------------------------
 .byte   PATT
  .word Label_01672CCF
@  #08 @061   ----------------------------------------
 .byte   PATT
  .word Label_01672CCF
@  #08 @062   ----------------------------------------
 .byte   PATT
  .word Label_01672E12
@  #08 @063   ----------------------------------------
 .byte   PATT
  .word Label_01672CCF
@  #08 @064   ----------------------------------------
 .byte   N06 ,Dn1 ,v072
 .byte   N06 ,En1 ,v100
 .byte   W12
 .byte   Dn1 ,v072
 .byte   N06 ,En1 ,v100
 .byte   W12
 .byte   Dn1 ,v072
 .byte   N06 ,En1 ,v100
 .byte   W12
 .byte   Dn1 ,v072
 .byte   N06 ,En1 ,v100
 .byte   W06
 .byte   Dn1 ,v072
 .byte   N06 ,En1 ,v100
 .byte   W06
 .byte   Dn1 ,v072
 .byte   N06 ,En1 ,v100
 .byte   W12
 .byte   Dn1 ,v072
 .byte   N06 ,En1 ,v100
 .byte   W06
 .byte   FINE

@**************** Track 9 (Midi-Chn.8) ****************@

ArmyOfLeif_009:
@  #09 @000   ----------------------------------------
 .byte   KEYSH , ArmyOfLeif_key+0
 .byte   VOICE , 46
 .byte   VOL , 55*ArmyOfLeif_mvl/mxv
 .byte   W96
@  #09 @001   ----------------------------------------
 .byte   W96
@  #09 @002   ----------------------------------------
 .byte   W96
@  #09 @003   ----------------------------------------
 .byte   W96
@  #09 @004   ----------------------------------------
 .byte   W96
@  #09 @005   ----------------------------------------
 .byte   W96
@  #09 @006   ----------------------------------------
 .byte   W96
@  #09 @007   ----------------------------------------
 .byte   W96
@  #09 @008   ----------------------------------------
 .byte   W96
@  #09 @009   ----------------------------------------
 .byte   W96
@  #09 @010   ----------------------------------------
 .byte   W96
@  #09 @011   ----------------------------------------
 .byte   W96
@  #09 @012   ----------------------------------------
 .byte   W96
@  #09 @013   ----------------------------------------
 .byte   W96
@  #09 @014   ----------------------------------------
 .byte   W96
@  #09 @015   ----------------------------------------
 .byte   W96
@  #09 @016   ----------------------------------------
Label_01672F5E:
 .byte   N03 ,Fn3 ,v104
 .byte   W06
 .byte   Cn3
 .byte   W06
 .byte   N03
 .byte   W06
 .byte   Fn3
 .byte   W06
 .byte   N03
 .byte   W06
 .byte   Cn3
 .byte   W06
 .byte   N03
 .byte   W06
 .byte   Fn3
 .byte   W06
 .byte   N03
 .byte   W06
 .byte   Cn4
 .byte   W06
 .byte   N03
 .byte   W06
 .byte   Fn4 ,v096
 .byte   W06
 .byte   N03
 .byte   W06
 .byte   Cn5
 .byte   W06
 .byte   N03
 .byte   W06
 .byte   Fn5
 .byte   W06
 .byte   PEND 
@  #09 @017   ----------------------------------------
 .byte   W96
@  #09 @018   ----------------------------------------
 .byte   W96
@  #09 @019   ----------------------------------------
 .byte   W96
@  #09 @020   ----------------------------------------
 .byte   W96
@  #09 @021   ----------------------------------------
 .byte   W96
@  #09 @022   ----------------------------------------
Label_01672F87:
 .byte   N48 ,Cn3 ,v104
 .byte   W48
 .byte   N24 ,Dn3
 .byte   W24
 .byte   Ds3
 .byte   W24
 .byte   PEND 
@  #09 @023   ----------------------------------------
 .byte   W96
@  #09 @024   ----------------------------------------
 .byte   W96
@  #09 @025   ----------------------------------------
 .byte   W96
@  #09 @026   ----------------------------------------
Label_01672F94:
 .byte   N48 ,Ds3 ,v104
 .byte   W48
 .byte   N36 ,Fn3
 .byte   W36
 .byte   N06 ,Ds3 ,v100
 .byte   W06
 .byte   Fn3
 .byte   W06
 .byte   PEND 
@  #09 @027   ----------------------------------------
 .byte   N96 ,Gn3
 .byte   W96
@  #09 @028   ----------------------------------------
Label_01672FA5:
 .byte   N48 ,Gn3 ,v100
 .byte   W48
 .byte   Fs3
 .byte   W48
 .byte   PEND 
@  #09 @029   ----------------------------------------
Label_01672FAC:
 .byte   N48 ,As3 ,v100
 .byte   W48
 .byte   Cn4
 .byte   W48
 .byte   PEND 
@  #09 @030   ----------------------------------------
Label_01672FB3:
 .byte   N72 ,Dn4 ,v100
 .byte   W78
 .byte   N06 ,As2
 .byte   W06
 .byte   Cn3
 .byte   W06
 .byte   Fn3
 .byte   W06
 .byte   PEND 
@  #09 @031   ----------------------------------------
Label_01672FBF:
 .byte   N72 ,Gn3 ,v100
 .byte   W84
 .byte   N06 ,Fs3
 .byte   W06
 .byte   Gn3
 .byte   W06
 .byte   PEND 
@  #09 @032   ----------------------------------------
 .byte   N72 ,An3
 .byte   W96
@  #09 @033   ----------------------------------------
 .byte   W96
@  #09 @034   ----------------------------------------
 .byte   W96
@  #09 @035   ----------------------------------------
 .byte   W96
@  #09 @036   ----------------------------------------
 .byte   W96
@  #09 @037   ----------------------------------------
 .byte   W96
@  #09 @038   ----------------------------------------
 .byte   W96
@  #09 @039   ----------------------------------------
 .byte   W96
@  #09 @040   ----------------------------------------
 .byte   W96
@  #09 @041   ----------------------------------------
 .byte   W96
@  #09 @042   ----------------------------------------
 .byte   W96
@  #09 @043   ----------------------------------------
 .byte   W96
@  #09 @044   ----------------------------------------
 .byte   W96
@  #09 @045   ----------------------------------------
 .byte   W96
@  #09 @046   ----------------------------------------
 .byte   W96
@  #09 @047   ----------------------------------------
 .byte   W96
@  #09 @048   ----------------------------------------
 .byte   PATT
  .word Label_01672F5E
@  #09 @049   ----------------------------------------
 .byte   W96
@  #09 @050   ----------------------------------------
 .byte   W96
@  #09 @051   ----------------------------------------
 .byte   W96
@  #09 @052   ----------------------------------------
 .byte   W96
@  #09 @053   ----------------------------------------
 .byte   W96
@  #09 @054   ----------------------------------------
 .byte   PATT
  .word Label_01672F87
@  #09 @055   ----------------------------------------
 .byte   W96
@  #09 @056   ----------------------------------------
 .byte   W96
@  #09 @057   ----------------------------------------
 .byte   W96
@  #09 @058   ----------------------------------------
 .byte   PATT
  .word Label_01672F94
@  #09 @059   ----------------------------------------
 .byte   N96 ,Gn3 ,v100
 .byte   W96
@  #09 @060   ----------------------------------------
 .byte   PATT
  .word Label_01672FA5
@  #09 @061   ----------------------------------------
 .byte   PATT
  .word Label_01672FAC
@  #09 @062   ----------------------------------------
 .byte   PATT
  .word Label_01672FB3
@  #09 @063   ----------------------------------------
 .byte   PATT
  .word Label_01672FBF
@  #09 @064   ----------------------------------------
 .byte   N72 ,An3 ,v100
 .byte   W96
 .byte   FINE

@**************** Track 10 (Midi-Chn.9) ****************@

ArmyOfLeif_010:
@  #10 @000   ----------------------------------------
 .byte   KEYSH , ArmyOfLeif_key+0
 .byte   VOICE , 56
 .byte   VOL , 69*ArmyOfLeif_mvl/mxv
 .byte   W96
@  #10 @001   ----------------------------------------
 .byte   W96
@  #10 @002   ----------------------------------------
 .byte   W96
@  #10 @003   ----------------------------------------
 .byte   W96
@  #10 @004   ----------------------------------------
 .byte   W96
@  #10 @005   ----------------------------------------
 .byte   W96
@  #10 @006   ----------------------------------------
 .byte   W96
@  #10 @007   ----------------------------------------
 .byte   W96
@  #10 @008   ----------------------------------------
Label_0167301E:
 .byte   W84
 .byte   N06 ,Dn4 ,v100
 .byte   W06
 .byte   Cn4
 .byte   W06
 .byte   PEND 
@  #10 @009   ----------------------------------------
Label_01673026:
 .byte   N30 ,As3 ,v100
 .byte   W36
 .byte   N06 ,An3
 .byte   W06
 .byte   As3
 .byte   W06
 .byte   N30 ,Cn4
 .byte   W36
 .byte   N06 ,An3
 .byte   W06
 .byte   Fn3
 .byte   W06
 .byte   PEND 
@  #10 @010   ----------------------------------------
Label_01673038:
 .byte   N18 ,Gn3 ,v100
 .byte   W24
 .byte   Dn4
 .byte   W24
 .byte   Cn4
 .byte   W24
 .byte   N12 ,An3
 .byte   W12
 .byte   Fn3
 .byte   W12
 .byte   PEND 
@  #10 @011   ----------------------------------------
Label_01673046:
 .byte   N24 ,As3 ,v100
 .byte   W30
 .byte   N06 ,Fn3
 .byte   W06
 .byte   An3
 .byte   W06
 .byte   As3
 .byte   W06
 .byte   N30 ,Cn4
 .byte   W36
 .byte   N06
 .byte   W06
 .byte   Dn4
 .byte   W06
 .byte   PEND 
@  #10 @012   ----------------------------------------
Label_01673059:
 .byte   N30 ,Ds4 ,v100
 .byte   W36
 .byte   N06 ,Fn4
 .byte   W06
 .byte   Ds4
 .byte   W06
 .byte   N30 ,Dn4
 .byte   W36
 .byte   N06
 .byte   W06
 .byte   Cn4
 .byte   W06
 .byte   PEND 
@  #10 @013   ----------------------------------------
Label_0167306A:
 .byte   N30 ,As3 ,v100
 .byte   W36
 .byte   N06 ,An3
 .byte   W06
 .byte   As3
 .byte   W06
 .byte   N30 ,Cn4
 .byte   W36
 .byte   N06 ,Fn4
 .byte   W06
 .byte   Ds4
 .byte   W06
 .byte   PEND 
@  #10 @014   ----------------------------------------
Label_0167307C:
 .byte   N18 ,Dn4 ,v100
 .byte   W24
 .byte   Cn4
 .byte   W24
 .byte   As3
 .byte   W24
 .byte   Dn4
 .byte   W24
 .byte   PEND 
@  #10 @015   ----------------------------------------
Label_01673087:
 .byte   N30 ,Cn4 ,v100
 .byte   W36
 .byte   N06
 .byte   W06
 .byte   Dn4
 .byte   W06
 .byte   N30 ,Ds4
 .byte   W36
 .byte   N06
 .byte   W06
 .byte   Dn4
 .byte   W06
 .byte   PEND 
@  #10 @016   ----------------------------------------
 .byte   N72 ,Cn4
 .byte   W96
@  #10 @017   ----------------------------------------
 .byte   W96
@  #10 @018   ----------------------------------------
 .byte   W96
@  #10 @019   ----------------------------------------
 .byte   W96
@  #10 @020   ----------------------------------------
 .byte   W96
@  #10 @021   ----------------------------------------
 .byte   W96
@  #10 @022   ----------------------------------------
Label_0167309F:
 .byte   N48 ,Ds2 ,v092
 .byte   W48
 .byte   N24 ,Fn2
 .byte   W24
 .byte   Gn2
 .byte   W24
 .byte   PEND 
@  #10 @023   ----------------------------------------
 .byte   W96
@  #10 @024   ----------------------------------------
 .byte   W96
@  #10 @025   ----------------------------------------
 .byte   W96
@  #10 @026   ----------------------------------------
Label_016730AC:
 .byte   N48 ,Gn2 ,v092
 .byte   W48
 .byte   An2
 .byte   W48
 .byte   PEND 
@  #10 @027   ----------------------------------------
 .byte   N96 ,As2 ,v100
 .byte   W96
@  #10 @028   ----------------------------------------
 .byte   Cn3
 .byte   W96
@  #10 @029   ----------------------------------------
Label_016730B9:
 .byte   N48 ,Dn3 ,v100
 .byte   W48
 .byte   Ds3
 .byte   W48
 .byte   PEND 
@  #10 @030   ----------------------------------------
 .byte   N96 ,Fn3
 .byte   W96
@  #10 @031   ----------------------------------------
 .byte   Gn3
 .byte   W96
@  #10 @032   ----------------------------------------
Label_016730C5:
 .byte   N48 ,Fs3 ,v100
 .byte   W60
 .byte   N12
 .byte   W36
 .byte   PEND 
@  #10 @033   ----------------------------------------
 .byte   W96
@  #10 @034   ----------------------------------------
 .byte   W96
@  #10 @035   ----------------------------------------
 .byte   W96
@  #10 @036   ----------------------------------------
 .byte   W96
@  #10 @037   ----------------------------------------
 .byte   W96
@  #10 @038   ----------------------------------------
 .byte   W96
@  #10 @039   ----------------------------------------
 .byte   W96
@  #10 @040   ----------------------------------------
 .byte   PATT
  .word Label_0167301E
@  #10 @041   ----------------------------------------
 .byte   PATT
  .word Label_01673026
@  #10 @042   ----------------------------------------
 .byte   PATT
  .word Label_01673038
@  #10 @043   ----------------------------------------
 .byte   PATT
  .word Label_01673046
@  #10 @044   ----------------------------------------
 .byte   PATT
  .word Label_01673059
@  #10 @045   ----------------------------------------
 .byte   PATT
  .word Label_0167306A
@  #10 @046   ----------------------------------------
 .byte   PATT
  .word Label_0167307C
@  #10 @047   ----------------------------------------
 .byte   PATT
  .word Label_01673087
@  #10 @048   ----------------------------------------
 .byte   N72 ,Cn4 ,v100
 .byte   W96
@  #10 @049   ----------------------------------------
 .byte   W96
@  #10 @050   ----------------------------------------
 .byte   W96
@  #10 @051   ----------------------------------------
 .byte   W96
@  #10 @052   ----------------------------------------
 .byte   W96
@  #10 @053   ----------------------------------------
 .byte   W96
@  #10 @054   ----------------------------------------
 .byte   PATT
  .word Label_0167309F
@  #10 @055   ----------------------------------------
 .byte   W96
@  #10 @056   ----------------------------------------
 .byte   W96
@  #10 @057   ----------------------------------------
 .byte   W96
@  #10 @058   ----------------------------------------
 .byte   PATT
  .word Label_016730AC
@  #10 @059   ----------------------------------------
 .byte   N96 ,As2 ,v100
 .byte   W96
@  #10 @060   ----------------------------------------
 .byte   Cn3
 .byte   W96
@  #10 @061   ----------------------------------------
 .byte   PATT
  .word Label_016730B9
@  #10 @062   ----------------------------------------
 .byte   N96 ,Fn3 ,v100
 .byte   W96
@  #10 @063   ----------------------------------------
 .byte   Gn3
 .byte   W96
@  #10 @064   ----------------------------------------
 .byte   PATT
  .word Label_016730C5
 .byte   FINE

@**************** Track 11 (Midi-Chn.10) ****************@

ArmyOfLeif_011:
@  #11 @000   ----------------------------------------
 .byte   KEYSH , ArmyOfLeif_key+0
 .byte   VOICE , 57
 .byte   VOL , 65*ArmyOfLeif_mvl/mxv
 .byte   W96
@  #11 @001   ----------------------------------------
 .byte   W96
@  #11 @002   ----------------------------------------
 .byte   W96
@  #11 @003   ----------------------------------------
 .byte   W96
@  #11 @004   ----------------------------------------
 .byte   W96
@  #11 @005   ----------------------------------------
 .byte   W96
@  #11 @006   ----------------------------------------
 .byte   W96
@  #11 @007   ----------------------------------------
 .byte   W96
@  #11 @008   ----------------------------------------
 .byte   W96
@  #11 @009   ----------------------------------------
 .byte   W96
@  #11 @010   ----------------------------------------
 .byte   W96
@  #11 @011   ----------------------------------------
 .byte   W96
@  #11 @012   ----------------------------------------
 .byte   W96
@  #11 @013   ----------------------------------------
 .byte   W96
@  #11 @014   ----------------------------------------
 .byte   W96
@  #11 @015   ----------------------------------------
 .byte   W96
@  #11 @016   ----------------------------------------
 .byte   W96
@  #11 @017   ----------------------------------------
 .byte   W96
@  #11 @018   ----------------------------------------
 .byte   W96
@  #11 @019   ----------------------------------------
 .byte   W96
@  #11 @020   ----------------------------------------
 .byte   W96
@  #11 @021   ----------------------------------------
 .byte   W96
@  #11 @022   ----------------------------------------
 .byte   W96
@  #11 @023   ----------------------------------------
 .byte   W96
@  #11 @024   ----------------------------------------
 .byte   W96
@  #11 @025   ----------------------------------------
 .byte   W96
@  #11 @026   ----------------------------------------
 .byte   W96
@  #11 @027   ----------------------------------------
 .byte   N72 ,Gn3 ,v092
 .byte   W96
@  #11 @028   ----------------------------------------
Label_0167314D:
 .byte   N48 ,Gn3 ,v092
 .byte   W48
 .byte   Fs3
 .byte   W48
 .byte   PEND 
@  #11 @029   ----------------------------------------
Label_01673154:
 .byte   N48 ,As3 ,v092
 .byte   W48
 .byte   Cn4 ,v100
 .byte   W48
 .byte   PEND 
@  #11 @030   ----------------------------------------
 .byte   N72 ,Dn4
 .byte   W96
@  #11 @031   ----------------------------------------
 .byte   W96
@  #11 @032   ----------------------------------------
 .byte   W96
@  #11 @033   ----------------------------------------
 .byte   W96
@  #11 @034   ----------------------------------------
 .byte   W96
@  #11 @035   ----------------------------------------
 .byte   W96
@  #11 @036   ----------------------------------------
 .byte   W96
@  #11 @037   ----------------------------------------
 .byte   W96
@  #11 @038   ----------------------------------------
 .byte   W96
@  #11 @039   ----------------------------------------
 .byte   W96
@  #11 @040   ----------------------------------------
 .byte   W96
@  #11 @041   ----------------------------------------
 .byte   W96
@  #11 @042   ----------------------------------------
 .byte   W96
@  #11 @043   ----------------------------------------
 .byte   W96
@  #11 @044   ----------------------------------------
 .byte   W96
@  #11 @045   ----------------------------------------
 .byte   W96
@  #11 @046   ----------------------------------------
 .byte   W96
@  #11 @047   ----------------------------------------
 .byte   W96
@  #11 @048   ----------------------------------------
 .byte   W96
@  #11 @049   ----------------------------------------
 .byte   W96
@  #11 @050   ----------------------------------------
 .byte   W96
@  #11 @051   ----------------------------------------
 .byte   W96
@  #11 @052   ----------------------------------------
 .byte   W96
@  #11 @053   ----------------------------------------
 .byte   W96
@  #11 @054   ----------------------------------------
 .byte   W96
@  #11 @055   ----------------------------------------
 .byte   W96
@  #11 @056   ----------------------------------------
 .byte   W96
@  #11 @057   ----------------------------------------
 .byte   W96
@  #11 @058   ----------------------------------------
 .byte   W96
@  #11 @059   ----------------------------------------
 .byte   Gn3 ,v092
 .byte   W96
@  #11 @060   ----------------------------------------
 .byte   PATT
  .word Label_0167314D
@  #11 @061   ----------------------------------------
 .byte   PATT
  .word Label_01673154
@  #11 @062   ----------------------------------------
 .byte   N72 ,Dn4 ,v100
 .byte   W96
@  #11 @063   ----------------------------------------
 .byte   W96
@  #11 @064   ----------------------------------------
 .byte   W96
 .byte   FINE

@**************** Track 12 (Midi-Chn.11) ****************@

ArmyOfLeif_012:
@  #12 @000   ----------------------------------------
 .byte   KEYSH , ArmyOfLeif_key+0
 .byte   VOICE , 60
 .byte   PAN , c_v+16
 .byte   VOL , 62*ArmyOfLeif_mvl/mxv
 .byte   W84
 .byte   N06 ,Fn2 ,v112
 .byte   W06
 .byte   As2
 .byte   W06
@  #12 @001   ----------------------------------------
Label_0167319F:
 .byte   N72 ,Cn3 ,v112
 .byte   W84
 .byte   N06 ,As2
 .byte   W06
 .byte   Cn3
 .byte   W06
 .byte   PEND 
@  #12 @002   ----------------------------------------
Label_016731A9:
 .byte   N72 ,Dn3 ,v112
 .byte   W84
 .byte   N06 ,Cn3
 .byte   W06
 .byte   Dn3
 .byte   W06
 .byte   PEND 
@  #12 @003   ----------------------------------------
Label_016731B3:
 .byte   N72 ,Ds3 ,v112
 .byte   W84
 .byte   N06 ,Dn3
 .byte   W06
 .byte   Cn3
 .byte   W06
 .byte   PEND 
@  #12 @004   ----------------------------------------
Label_016731BD:
 .byte   N72 ,Dn3 ,v112
 .byte   W84
 .byte   N06 ,Fn2
 .byte   W06
 .byte   As2
 .byte   W06
 .byte   PEND 
@  #12 @005   ----------------------------------------
 .byte   PATT
  .word Label_0167319F
@  #12 @006   ----------------------------------------
 .byte   PATT
  .word Label_016731A9
@  #12 @007   ----------------------------------------
Label_016731D1:
 .byte   N72 ,Ds3 ,v112
 .byte   W84
 .byte   N06 ,Fn3
 .byte   W06
 .byte   Cn3
 .byte   W06
 .byte   PEND 
@  #12 @008   ----------------------------------------
Label_016731DB:
 .byte   N06 ,Cn3 ,v112
 .byte   W06
 .byte   Dn3
 .byte   W06
 .byte   N60
 .byte   W72
 .byte   N06 ,Dn4 ,v100
 .byte   W06
 .byte   Cn4
 .byte   W06
 .byte   PEND 
@  #12 @009   ----------------------------------------
Label_016731EA:
 .byte   N30 ,As3 ,v100
 .byte   W36
 .byte   N06 ,An3
 .byte   W06
 .byte   As3
 .byte   W06
 .byte   N30 ,Cn4
 .byte   W36
 .byte   N06 ,An3
 .byte   W06
 .byte   Fn3
 .byte   W06
 .byte   PEND 
@  #12 @010   ----------------------------------------
Label_016731FC:
 .byte   N18 ,Gn3 ,v100
 .byte   W24
 .byte   Dn4
 .byte   W24
 .byte   Cn4
 .byte   W24
 .byte   N12 ,An3
 .byte   W12
 .byte   Fn3
 .byte   W12
 .byte   PEND 
@  #12 @011   ----------------------------------------
Label_0167320A:
 .byte   N24 ,As3 ,v100
 .byte   W30
 .byte   N06 ,Fn3
 .byte   W06
 .byte   An3
 .byte   W06
 .byte   As3
 .byte   W06
 .byte   N30 ,Cn4
 .byte   W36
 .byte   N06
 .byte   W06
 .byte   Dn4
 .byte   W06
 .byte   PEND 
@  #12 @012   ----------------------------------------
Label_0167321D:
 .byte   N30 ,Ds4 ,v100
 .byte   W36
 .byte   N06 ,Fn4
 .byte   W06
 .byte   Ds4
 .byte   W06
 .byte   N30 ,Dn4
 .byte   W36
 .byte   N06
 .byte   W06
 .byte   Cn4
 .byte   W06
 .byte   PEND 
@  #12 @013   ----------------------------------------
Label_0167322E:
 .byte   N30 ,As3 ,v100
 .byte   W36
 .byte   N06 ,An3
 .byte   W06
 .byte   As3
 .byte   W06
 .byte   N30 ,Cn4
 .byte   W36
 .byte   N06 ,Fn4
 .byte   W06
 .byte   Ds4
 .byte   W06
 .byte   PEND 
@  #12 @014   ----------------------------------------
Label_01673240:
 .byte   N18 ,Dn4 ,v100
 .byte   W24
 .byte   Cn4
 .byte   W24
 .byte   As3
 .byte   W24
 .byte   Dn4
 .byte   W24
 .byte   PEND 
@  #12 @015   ----------------------------------------
Label_0167324B:
 .byte   N30 ,Cn4 ,v100
 .byte   W36
 .byte   N06
 .byte   W06
 .byte   Dn4
 .byte   W06
 .byte   N30 ,Ds4
 .byte   W36
 .byte   N06
 .byte   W06
 .byte   Dn4
 .byte   W06
 .byte   PEND 
@  #12 @016   ----------------------------------------
 .byte   N72 ,Cn4
 .byte   W96
@  #12 @017   ----------------------------------------
 .byte   W96
@  #12 @018   ----------------------------------------
 .byte   W96
@  #12 @019   ----------------------------------------
 .byte   W96
@  #12 @020   ----------------------------------------
 .byte   W96
@  #12 @021   ----------------------------------------
 .byte   W96
@  #12 @022   ----------------------------------------
 .byte   W96
@  #12 @023   ----------------------------------------
 .byte   W96
@  #12 @024   ----------------------------------------
 .byte   W96
@  #12 @025   ----------------------------------------
 .byte   W96
@  #12 @026   ----------------------------------------
Label_01673267:
 .byte   W84
 .byte   N06 ,Ds3 ,v104
 .byte   W06
 .byte   Fn3
 .byte   W06
 .byte   PEND 
@  #12 @027   ----------------------------------------
Label_0167326F:
 .byte   N36 ,Gn3 ,v104
 .byte   W36
 .byte   N12 ,Ds3
 .byte   W12
 .byte   N24 ,As2
 .byte   W24
 .byte   Gn3
 .byte   W24
 .byte   PEND 
@  #12 @028   ----------------------------------------
Label_0167327C:
 .byte   N36 ,Gn3 ,v104
 .byte   W36
 .byte   N06 ,An3
 .byte   W06
 .byte   Gn3
 .byte   W06
 .byte   N24 ,Fs3
 .byte   W24
 .byte   Dn3
 .byte   W24
 .byte   PEND 
@  #12 @029   ----------------------------------------
Label_0167328B:
 .byte   N36 ,As3 ,v104
 .byte   W36
 .byte   N12
 .byte   W12
 .byte   N18 ,An3
 .byte   W18
 .byte   Gn3
 .byte   W18
 .byte   N12 ,Fn3
 .byte   W12
 .byte   PEND 
@  #12 @030   ----------------------------------------
Label_0167329A:
 .byte   N72 ,Gn3 ,v104
 .byte   W78
 .byte   N06 ,As2
 .byte   W06
 .byte   Cn3
 .byte   W06
 .byte   Fn3
 .byte   W06
 .byte   PEND 
@  #12 @031   ----------------------------------------
Label_016732A6:
 .byte   N72 ,Gn3 ,v104
 .byte   W84
 .byte   N06 ,Fs3
 .byte   W06
 .byte   Gn3
 .byte   W06
 .byte   PEND 
@  #12 @032   ----------------------------------------
 .byte   PAN , c_v+16
 .byte   VOL , 62*ArmyOfLeif_mvl/mxv
 .byte   N72 ,An3
 .byte   W84
 .byte   N06 ,Fn2 ,v112
 .byte   W06
 .byte   As2
 .byte   W06
@  #12 @033   ----------------------------------------
 .byte   PATT
  .word Label_0167319F
@  #12 @034   ----------------------------------------
 .byte   PATT
  .word Label_016731A9
@  #12 @035   ----------------------------------------
 .byte   PATT
  .word Label_016731B3
@  #12 @036   ----------------------------------------
 .byte   PATT
  .word Label_016731BD
@  #12 @037   ----------------------------------------
 .byte   PATT
  .word Label_0167319F
@  #12 @038   ----------------------------------------
 .byte   PATT
  .word Label_016731A9
@  #12 @039   ----------------------------------------
 .byte   PATT
  .word Label_016731D1
@  #12 @040   ----------------------------------------
 .byte   PATT
  .word Label_016731DB
@  #12 @041   ----------------------------------------
 .byte   PATT
  .word Label_016731EA
@  #12 @042   ----------------------------------------
 .byte   PATT
  .word Label_016731FC
@  #12 @043   ----------------------------------------
 .byte   PATT
  .word Label_0167320A
@  #12 @044   ----------------------------------------
 .byte   PATT
  .word Label_0167321D
@  #12 @045   ----------------------------------------
 .byte   PATT
  .word Label_0167322E
@  #12 @046   ----------------------------------------
 .byte   PATT
  .word Label_01673240
@  #12 @047   ----------------------------------------
 .byte   PATT
  .word Label_0167324B
@  #12 @048   ----------------------------------------
 .byte   N72 ,Cn4 ,v100
 .byte   W96
@  #12 @049   ----------------------------------------
 .byte   W96
@  #12 @050   ----------------------------------------
 .byte   W96
@  #12 @051   ----------------------------------------
 .byte   W96
@  #12 @052   ----------------------------------------
 .byte   W96
@  #12 @053   ----------------------------------------
 .byte   W96
@  #12 @054   ----------------------------------------
 .byte   W96
@  #12 @055   ----------------------------------------
 .byte   W96
@  #12 @056   ----------------------------------------
 .byte   W96
@  #12 @057   ----------------------------------------
 .byte   W96
@  #12 @058   ----------------------------------------
 .byte   PATT
  .word Label_01673267
@  #12 @059   ----------------------------------------
 .byte   PATT
  .word Label_0167326F
@  #12 @060   ----------------------------------------
 .byte   PATT
  .word Label_0167327C
@  #12 @061   ----------------------------------------
 .byte   PATT
  .word Label_0167328B
@  #12 @062   ----------------------------------------
 .byte   PATT
  .word Label_0167329A
@  #12 @063   ----------------------------------------
 .byte   PATT
  .word Label_016732A6
@  #12 @064   ----------------------------------------
 .byte   N72 ,An3 ,v104
 .byte   W96
 .byte   FINE

@**************** Track 13 (Midi-Chn.12) ****************@

ArmyOfLeif_013:
@  #13 @000   ----------------------------------------
 .byte   KEYSH , ArmyOfLeif_key+0
 .byte   VOICE , 46
 .byte   VOL , 60*ArmyOfLeif_mvl/mxv
 .byte   W96
@  #13 @001   ----------------------------------------
 .byte   W96
@  #13 @002   ----------------------------------------
 .byte   W96
@  #13 @003   ----------------------------------------
 .byte   W96
@  #13 @004   ----------------------------------------
 .byte   W96
@  #13 @005   ----------------------------------------
 .byte   W96
@  #13 @006   ----------------------------------------
 .byte   W96
@  #13 @007   ----------------------------------------
 .byte   W96
@  #13 @008   ----------------------------------------
 .byte   W96
@  #13 @009   ----------------------------------------
 .byte   W96
@  #13 @010   ----------------------------------------
 .byte   W96
@  #13 @011   ----------------------------------------
 .byte   W96
@  #13 @012   ----------------------------------------
 .byte   W96
@  #13 @013   ----------------------------------------
 .byte   W96
@  #13 @014   ----------------------------------------
 .byte   W96
@  #13 @015   ----------------------------------------
 .byte   W96
@  #13 @016   ----------------------------------------
Label_0167334E:
 .byte   N03 ,Fn3 ,v104
 .byte   W06
 .byte   Cn3
 .byte   W06
 .byte   N03
 .byte   W06
 .byte   Fn3
 .byte   W06
 .byte   N03
 .byte   W06
 .byte   Cn3
 .byte   W06
 .byte   N03
 .byte   W06
 .byte   Fn3
 .byte   W06
 .byte   N03
 .byte   W06
 .byte   Cn4
 .byte   W06
 .byte   N03
 .byte   W06
 .byte   Fn4 ,v096
 .byte   W06
 .byte   N03
 .byte   W06
 .byte   Cn5
 .byte   W06
 .byte   N03
 .byte   W06
 .byte   Fn5
 .byte   W06
 .byte   PEND 
@  #13 @017   ----------------------------------------
 .byte   W96
@  #13 @018   ----------------------------------------
 .byte   W96
@  #13 @019   ----------------------------------------
 .byte   W96
@  #13 @020   ----------------------------------------
 .byte   W96
@  #13 @021   ----------------------------------------
 .byte   W96
@  #13 @022   ----------------------------------------
 .byte   W96
@  #13 @023   ----------------------------------------
 .byte   W96
@  #13 @024   ----------------------------------------
 .byte   W96
@  #13 @025   ----------------------------------------
 .byte   W96
@  #13 @026   ----------------------------------------
Label_0167337B:
 .byte   W84
 .byte   N06 ,Ds3 ,v100
 .byte   W06
 .byte   Fn3
 .byte   W06
 .byte   PEND 
@  #13 @027   ----------------------------------------
Label_01673383:
 .byte   W36
 .byte   N12 ,Ds3 ,v104
 .byte   W12
 .byte   N24 ,As2 ,v100
 .byte   W24
 .byte   Gn3
 .byte   W24
 .byte   PEND 
@  #13 @028   ----------------------------------------
Label_0167338F:
 .byte   W36
 .byte   N06 ,An3 ,v100
 .byte   W06
 .byte   Gn3
 .byte   W30
 .byte   N24 ,Dn3
 .byte   W24
 .byte   PEND 
@  #13 @029   ----------------------------------------
Label_0167339A:
 .byte   W36
 .byte   N12 ,As3 ,v100
 .byte   W12
 .byte   N18 ,An3
 .byte   W18
 .byte   Gn3
 .byte   W18
 .byte   N12 ,Fn3
 .byte   W12
 .byte   PEND 
@  #13 @030   ----------------------------------------
 .byte   N72 ,Gn3
 .byte   W96
@  #13 @031   ----------------------------------------
 .byte   W96
@  #13 @032   ----------------------------------------
 .byte   W96
@  #13 @033   ----------------------------------------
 .byte   W96
@  #13 @034   ----------------------------------------
 .byte   W96
@  #13 @035   ----------------------------------------
 .byte   W96
@  #13 @036   ----------------------------------------
 .byte   W96
@  #13 @037   ----------------------------------------
 .byte   W96
@  #13 @038   ----------------------------------------
 .byte   W96
@  #13 @039   ----------------------------------------
 .byte   W96
@  #13 @040   ----------------------------------------
 .byte   W96
@  #13 @041   ----------------------------------------
 .byte   W96
@  #13 @042   ----------------------------------------
 .byte   W96
@  #13 @043   ----------------------------------------
 .byte   W96
@  #13 @044   ----------------------------------------
 .byte   W96
@  #13 @045   ----------------------------------------
 .byte   W96
@  #13 @046   ----------------------------------------
 .byte   W96
@  #13 @047   ----------------------------------------
 .byte   W96
@  #13 @048   ----------------------------------------
 .byte   PATT
  .word Label_0167334E
@  #13 @049   ----------------------------------------
 .byte   W96
@  #13 @050   ----------------------------------------
 .byte   W96
@  #13 @051   ----------------------------------------
 .byte   W96
@  #13 @052   ----------------------------------------
 .byte   W96
@  #13 @053   ----------------------------------------
 .byte   W96
@  #13 @054   ----------------------------------------
 .byte   W96
@  #13 @055   ----------------------------------------
 .byte   W96
@  #13 @056   ----------------------------------------
 .byte   W96
@  #13 @057   ----------------------------------------
 .byte   W96
@  #13 @058   ----------------------------------------
 .byte   PATT
  .word Label_0167337B
@  #13 @059   ----------------------------------------
 .byte   PATT
  .word Label_01673383
@  #13 @060   ----------------------------------------
 .byte   PATT
  .word Label_0167338F
@  #13 @061   ----------------------------------------
 .byte   PATT
  .word Label_0167339A
@  #13 @062   ----------------------------------------
 .byte   N72 ,Gn3 ,v100
 .byte   W72
 .byte   FINE

@**************** Track 14 (Midi-Chn.13) ****************@

ArmyOfLeif_014:
@  #14 @000   ----------------------------------------
 .byte   KEYSH , ArmyOfLeif_key+0
 .byte   VOICE , 60
 .byte   PAN , c_v+16
 .byte   VOL , 54*ArmyOfLeif_mvl/mxv
 .byte   W96
@  #14 @001   ----------------------------------------
 .byte   W96
@  #14 @002   ----------------------------------------
 .byte   W96
@  #14 @003   ----------------------------------------
 .byte   W96
@  #14 @004   ----------------------------------------
 .byte   W96
@  #14 @005   ----------------------------------------
 .byte   W96
@  #14 @006   ----------------------------------------
 .byte   W96
@  #14 @007   ----------------------------------------
 .byte   W96
@  #14 @008   ----------------------------------------
 .byte   W96
@  #14 @009   ----------------------------------------
Label_016733F5:
 .byte   N42 ,Dn3 ,v100
 .byte   W48
 .byte   Ds3
 .byte   W48
 .byte   PEND 
@  #14 @010   ----------------------------------------
Label_016733FC:
 .byte   N18 ,Dn3 ,v100
 .byte   W24
 .byte   Gn3
 .byte   W24
 .byte   Fn3
 .byte   W24
 .byte   Cn3
 .byte   W24
 .byte   PEND 
@  #14 @011   ----------------------------------------
Label_01673407:
 .byte   N42 ,Dn3 ,v100
 .byte   W48
 .byte   Fn3
 .byte   W48
 .byte   PEND 
@  #14 @012   ----------------------------------------
Label_0167340E:
 .byte   N42 ,Gn3 ,v100
 .byte   W48
 .byte   Dn3
 .byte   W48
 .byte   PEND 
@  #14 @013   ----------------------------------------
 .byte   PATT
  .word Label_016733F5
@  #14 @014   ----------------------------------------
Label_0167341A:
 .byte   N18 ,Cn3 ,v100
 .byte   W24
 .byte   Fn3
 .byte   W24
 .byte   Ds3
 .byte   W24
 .byte   Gn3
 .byte   W24
 .byte   PEND 
@  #14 @015   ----------------------------------------
 .byte   N84 ,Gs3
 .byte   W96
@  #14 @016   ----------------------------------------
 .byte   N72 ,Fn3
 .byte   W96
@  #14 @017   ----------------------------------------
 .byte   W96
@  #14 @018   ----------------------------------------
 .byte   W96
@  #14 @019   ----------------------------------------
 .byte   W96
@  #14 @020   ----------------------------------------
 .byte   W96
@  #14 @021   ----------------------------------------
 .byte   W96
@  #14 @022   ----------------------------------------
 .byte   W96
@  #14 @023   ----------------------------------------
 .byte   W96
@  #14 @024   ----------------------------------------
 .byte   W96
@  #14 @025   ----------------------------------------
 .byte   W96
@  #14 @026   ----------------------------------------
 .byte   W96
@  #14 @027   ----------------------------------------
 .byte   W96
@  #14 @028   ----------------------------------------
 .byte   W96
@  #14 @029   ----------------------------------------
 .byte   W96
@  #14 @030   ----------------------------------------
 .byte   W96
@  #14 @031   ----------------------------------------
 .byte   W96
@  #14 @032   ----------------------------------------
 .byte   W96
@  #14 @033   ----------------------------------------
 .byte   W96
@  #14 @034   ----------------------------------------
 .byte   W96
@  #14 @035   ----------------------------------------
 .byte   W96
@  #14 @036   ----------------------------------------
 .byte   W96
@  #14 @037   ----------------------------------------
 .byte   W96
@  #14 @038   ----------------------------------------
 .byte   W96
@  #14 @039   ----------------------------------------
 .byte   W96
@  #14 @040   ----------------------------------------
 .byte   W96
@  #14 @041   ----------------------------------------
 .byte   PATT
  .word Label_016733F5
@  #14 @042   ----------------------------------------
 .byte   PATT
  .word Label_016733FC
@  #14 @043   ----------------------------------------
 .byte   PATT
  .word Label_01673407
@  #14 @044   ----------------------------------------
 .byte   PATT
  .word Label_0167340E
@  #14 @045   ----------------------------------------
 .byte   PATT
  .word Label_016733F5
@  #14 @046   ----------------------------------------
 .byte   PATT
  .word Label_0167341A
@  #14 @047   ----------------------------------------
 .byte   N84 ,Gs3 ,v100
 .byte   W96
@  #14 @048   ----------------------------------------
 .byte   N72 ,Fn3
 .byte   W72
 .byte   FINE

@**************** Track 15 (Midi-Chn.14) ****************@

ArmyOfLeif_015:
@  #15 @000   ----------------------------------------
 .byte   KEYSH , ArmyOfLeif_key+0
 .byte   VOICE , 47
 .byte   VOL , 65*ArmyOfLeif_mvl/mxv
 .byte   W96
@  #15 @001   ----------------------------------------
Label_01673473:
 .byte   N12 ,An1 ,v104
 .byte   N12 ,An2 ,v084
 .byte   W12
 .byte   An1 ,v104
 .byte   N12 ,An2 ,v084
 .byte   W24
 .byte   N06 ,An1 ,v104
 .byte   N06 ,An2 ,v084
 .byte   W06
 .byte   Ds1 ,v104
 .byte   N06 ,Ds2 ,v084
 .byte   W06
 .byte   N12 ,An1 ,v104
 .byte   N12 ,An2 ,v084
 .byte   W12
 .byte   An1 ,v104
 .byte   N12 ,An2 ,v084
 .byte   W24
 .byte   An1 ,v104
 .byte   N12 ,An2 ,v084
 .byte   W12
 .byte   PEND 
@  #15 @002   ----------------------------------------
 .byte   PATT
  .word Label_01673473
@  #15 @003   ----------------------------------------
 .byte   PATT
  .word Label_01673473
@  #15 @004   ----------------------------------------
Label_016734AB:
 .byte   N12 ,An1 ,v104
 .byte   N12 ,An2 ,v084
 .byte   W12
 .byte   An1 ,v104
 .byte   N12 ,An2 ,v084
 .byte   W24
 .byte   N06 ,An1 ,v104
 .byte   N06 ,An2 ,v084
 .byte   W06
 .byte   Ds1 ,v104
 .byte   N06 ,Ds2 ,v084
 .byte   W06
 .byte   N12 ,An1 ,v104
 .byte   N12 ,An2 ,v084
 .byte   W12
 .byte   An1 ,v104
 .byte   N12 ,An2 ,v084
 .byte   W24
 .byte   N04 ,An1 ,v104
 .byte   N04 ,An2 ,v084
 .byte   W04
 .byte   An1 ,v104
 .byte   N04 ,An2 ,v084
 .byte   W04
 .byte   An1 ,v104
 .byte   N04 ,An2 ,v084
 .byte   W04
 .byte   PEND 
@  #15 @005   ----------------------------------------
 .byte   PATT
  .word Label_01673473
@  #15 @006   ----------------------------------------
 .byte   PATT
  .word Label_01673473
@  #15 @007   ----------------------------------------
 .byte   PATT
  .word Label_01673473
@  #15 @008   ----------------------------------------
 .byte   PATT
  .word Label_016734AB
@  #15 @009   ----------------------------------------
 .byte   W96
@  #15 @010   ----------------------------------------
 .byte   W96
@  #15 @011   ----------------------------------------
 .byte   W96
@  #15 @012   ----------------------------------------
 .byte   W96
@  #15 @013   ----------------------------------------
 .byte   W96
@  #15 @014   ----------------------------------------
 .byte   W96
@  #15 @015   ----------------------------------------
 .byte   W96
@  #15 @016   ----------------------------------------
 .byte   W96
@  #15 @017   ----------------------------------------
Label_01673502:
 .byte   N12 ,An1 ,v104
 .byte   N12 ,An2 ,v084
 .byte   W12
 .byte   An1 ,v104
 .byte   N12 ,An2 ,v084
 .byte   W24
 .byte   N06 ,An1 ,v104
 .byte   N06 ,An2 ,v084
 .byte   W06
 .byte   Ds1 ,v104
 .byte   N06 ,Ds2 ,v084
 .byte   W06
 .byte   N12 ,An1 ,v104
 .byte   N12 ,An2 ,v084
 .byte   W12
 .byte   An1 ,v104
 .byte   N12 ,An2 ,v084
 .byte   W36
 .byte   PEND 
@  #15 @018   ----------------------------------------
 .byte   PATT
  .word Label_01673502
@  #15 @019   ----------------------------------------
 .byte   PATT
  .word Label_01673502
@  #15 @020   ----------------------------------------
 .byte   PATT
  .word Label_016734AB
@  #15 @021   ----------------------------------------
 .byte   PATT
  .word Label_01673502
@  #15 @022   ----------------------------------------
 .byte   PATT
  .word Label_01673473
@  #15 @023   ----------------------------------------
 .byte   PATT
  .word Label_01673502
@  #15 @024   ----------------------------------------
 .byte   PATT
  .word Label_016734AB
@  #15 @025   ----------------------------------------
 .byte   PATT
  .word Label_01673502
@  #15 @026   ----------------------------------------
 .byte   PATT
  .word Label_01673502
@  #15 @027   ----------------------------------------
 .byte   W96
@  #15 @028   ----------------------------------------
 .byte   W96
@  #15 @029   ----------------------------------------
 .byte   W96
@  #15 @030   ----------------------------------------
 .byte   W96
@  #15 @031   ----------------------------------------
 .byte   W96
@  #15 @032   ----------------------------------------
 .byte   W96
@  #15 @033   ----------------------------------------
 .byte   PATT
  .word Label_01673473
@  #15 @034   ----------------------------------------
 .byte   PATT
  .word Label_01673473
@  #15 @035   ----------------------------------------
 .byte   PATT
  .word Label_01673473
@  #15 @036   ----------------------------------------
 .byte   PATT
  .word Label_016734AB
@  #15 @037   ----------------------------------------
 .byte   PATT
  .word Label_01673473
@  #15 @038   ----------------------------------------
 .byte   PATT
  .word Label_01673473
@  #15 @039   ----------------------------------------
 .byte   PATT
  .word Label_01673473
@  #15 @040   ----------------------------------------
 .byte   PATT
  .word Label_016734AB
@  #15 @041   ----------------------------------------
 .byte   W96
@  #15 @042   ----------------------------------------
 .byte   W96
@  #15 @043   ----------------------------------------
 .byte   W96
@  #15 @044   ----------------------------------------
 .byte   W96
@  #15 @045   ----------------------------------------
 .byte   W96
@  #15 @046   ----------------------------------------
 .byte   W96
@  #15 @047   ----------------------------------------
 .byte   W96
@  #15 @048   ----------------------------------------
 .byte   W96
@  #15 @049   ----------------------------------------
 .byte   PATT
  .word Label_01673502
@  #15 @050   ----------------------------------------
 .byte   PATT
  .word Label_01673502
@  #15 @051   ----------------------------------------
 .byte   PATT
  .word Label_01673502
@  #15 @052   ----------------------------------------
 .byte   PATT
  .word Label_016734AB
@  #15 @053   ----------------------------------------
 .byte   PATT
  .word Label_01673502
@  #15 @054   ----------------------------------------
 .byte   PATT
  .word Label_01673473
@  #15 @055   ----------------------------------------
 .byte   PATT
  .word Label_01673502
@  #15 @056   ----------------------------------------
 .byte   PATT
  .word Label_016734AB
@  #15 @057   ----------------------------------------
 .byte   PATT
  .word Label_01673502
@  #15 @058   ----------------------------------------
 .byte   N12 ,An1 ,v104
 .byte   N12 ,An2 ,v084
 .byte   W12
 .byte   An1 ,v104
 .byte   N12 ,An2 ,v084
 .byte   W24
 .byte   N06 ,An1 ,v104
 .byte   N06 ,An2 ,v084
 .byte   W06
 .byte   Ds1 ,v104
 .byte   N06 ,Ds2 ,v084
 .byte   W06
 .byte   N12 ,An1 ,v104
 .byte   N12 ,An2 ,v084
 .byte   W12
 .byte   An1 ,v104
 .byte   N12 ,An2 ,v084
 .byte   W12
 .byte   FINE

@**************** Track 16 (Midi-Chn.15) ****************@

ArmyOfLeif_016:
@  #16 @000   ----------------------------------------
 .byte   KEYSH , ArmyOfLeif_key+0
 .byte   VOICE , 81
 .byte   VOL , 66*ArmyOfLeif_mvl/mxv
 .byte   W96
@  #16 @001   ----------------------------------------
 .byte   W96
@  #16 @002   ----------------------------------------
 .byte   W96
@  #16 @003   ----------------------------------------
 .byte   W96
@  #16 @004   ----------------------------------------
 .byte   W96
@  #16 @005   ----------------------------------------
 .byte   W96
@  #16 @006   ----------------------------------------
 .byte   W96
@  #16 @007   ----------------------------------------
 .byte   W96
@  #16 @008   ----------------------------------------
 .byte   W96
@  #16 @009   ----------------------------------------
 .byte   W96
@  #16 @010   ----------------------------------------
 .byte   W96
@  #16 @011   ----------------------------------------
 .byte   W96
@  #16 @012   ----------------------------------------
 .byte   W96
@  #16 @013   ----------------------------------------
 .byte   W96
@  #16 @014   ----------------------------------------
 .byte   W96
@  #16 @015   ----------------------------------------
 .byte   W96
@  #16 @016   ----------------------------------------
 .byte   W96
@  #16 @017   ----------------------------------------
 .byte   W96
@  #16 @018   ----------------------------------------
 .byte   W96
@  #16 @019   ----------------------------------------
 .byte   W96
@  #16 @020   ----------------------------------------
 .byte   W96
@  #16 @021   ----------------------------------------
 .byte   W96
@  #16 @022   ----------------------------------------
 .byte   W96
@  #16 @023   ----------------------------------------
 .byte   W96
@  #16 @024   ----------------------------------------
 .byte   W96
@  #16 @025   ----------------------------------------
 .byte   W96
@  #16 @026   ----------------------------------------
Label_01673604:
 .byte   W84
 .byte   N06 ,Ds3 ,v100
 .byte   W06
 .byte   Fn3
 .byte   W06
 .byte   PEND 
@  #16 @027   ----------------------------------------
Label_0167360C:
 .byte   N36 ,Gn3 ,v092
 .byte   W36
 .byte   N12 ,Ds3 ,v100
 .byte   W12
 .byte   N24 ,As2
 .byte   W24
 .byte   Gn3
 .byte   W24
 .byte   PEND 
@  #16 @028   ----------------------------------------
Label_0167361A:
 .byte   N36 ,Gn3 ,v092
 .byte   W36
 .byte   N06 ,An3 ,v100
 .byte   W06
 .byte   Gn3
 .byte   W06
 .byte   N24 ,Fs3 ,v092
 .byte   W24
 .byte   Dn3 ,v100
 .byte   W24
 .byte   PEND 
@  #16 @029   ----------------------------------------
Label_0167362C:
 .byte   N36 ,As3 ,v092
 .byte   W36
 .byte   N12 ,As3 ,v100
 .byte   W12
 .byte   N18 ,An3
 .byte   W18
 .byte   Gn3
 .byte   W18
 .byte   N12 ,Fn3
 .byte   W12
 .byte   PEND 
@  #16 @030   ----------------------------------------
Label_0167363D:
 .byte   N72 ,Gn3 ,v100
 .byte   W78
 .byte   N06 ,As2
 .byte   W06
 .byte   Cn3
 .byte   W06
 .byte   Fn3
 .byte   W06
 .byte   PEND 
@  #16 @031   ----------------------------------------
Label_01673649:
 .byte   N72 ,Gn3 ,v100
 .byte   W84
 .byte   N06 ,Fs3
 .byte   W06
 .byte   Gn3
 .byte   W06
 .byte   PEND 
@  #16 @032   ----------------------------------------
 .byte   N72 ,An3
 .byte   W96
@  #16 @033   ----------------------------------------
 .byte   W96
@  #16 @034   ----------------------------------------
 .byte   W96
@  #16 @035   ----------------------------------------
 .byte   W96
@  #16 @036   ----------------------------------------
 .byte   W96
@  #16 @037   ----------------------------------------
 .byte   W96
@  #16 @038   ----------------------------------------
 .byte   W96
@  #16 @039   ----------------------------------------
 .byte   W96
@  #16 @040   ----------------------------------------
 .byte   W96
@  #16 @041   ----------------------------------------
 .byte   W96
@  #16 @042   ----------------------------------------
 .byte   W96
@  #16 @043   ----------------------------------------
 .byte   W96
@  #16 @044   ----------------------------------------
 .byte   W96
@  #16 @045   ----------------------------------------
 .byte   W96
@  #16 @046   ----------------------------------------
 .byte   W96
@  #16 @047   ----------------------------------------
 .byte   W96
@  #16 @048   ----------------------------------------
 .byte   W96
@  #16 @049   ----------------------------------------
 .byte   W96
@  #16 @050   ----------------------------------------
 .byte   W96
@  #16 @051   ----------------------------------------
 .byte   W96
@  #16 @052   ----------------------------------------
 .byte   W96
@  #16 @053   ----------------------------------------
 .byte   W96
@  #16 @054   ----------------------------------------
 .byte   W96
@  #16 @055   ----------------------------------------
 .byte   W96
@  #16 @056   ----------------------------------------
 .byte   W96
@  #16 @057   ----------------------------------------
 .byte   W96
@  #16 @058   ----------------------------------------
 .byte   PATT
  .word Label_01673604
@  #16 @059   ----------------------------------------
 .byte   PATT
  .word Label_0167360C
@  #16 @060   ----------------------------------------
 .byte   PATT
  .word Label_0167361A
@  #16 @061   ----------------------------------------
 .byte   PATT
  .word Label_0167362C
@  #16 @062   ----------------------------------------
 .byte   PATT
  .word Label_0167363D
@  #16 @063   ----------------------------------------
 .byte   PATT
  .word Label_01673649
@  #16 @064   ----------------------------------------
 .byte   N72 ,An3 ,v100
 .byte   W96
 .byte   FINE

@******************************************************@
	.align	2

ArmyOfLeif:
	.byte	16	@ NumTrks
	.byte	0	@ NumBlks
	.byte	ArmyOfLeif_pri	@ Priority
	.byte	ArmyOfLeif_rev	@ Reverb.
    
	.word	ArmyOfLeif_grp
    
	.word	ArmyOfLeif_001
	.word	ArmyOfLeif_002
	.word	ArmyOfLeif_003
	.word	ArmyOfLeif_004
	.word	ArmyOfLeif_005
	.word	ArmyOfLeif_006
	.word	ArmyOfLeif_007
	.word	ArmyOfLeif_008
	.word	ArmyOfLeif_009
	.word	ArmyOfLeif_010
	.word	ArmyOfLeif_011
	.word	ArmyOfLeif_012
	.word	ArmyOfLeif_013
	.word	ArmyOfLeif_014
	.word	ArmyOfLeif_015
	.word	ArmyOfLeif_016

	.end
