//Event file generated from Sappy .s format.
	

	#define	AttackFE3_grp  voicegroup000
	#define	AttackFE3_pri  0
	#define	AttackFE3_rev  0
	#define	AttackFE3_mvl  127
	#define	AttackFE3_key  0
	#define	AttackFE3_tbs  1
	#define	AttackFE3_exg  0
	#define	AttackFE3_cmp  1

	// .rodata
	//	AttackFE3
	ALIGN 4


//**************** Track 1 (Midi-Chn.0) ****************//

AttackFE3_001:
//  #01 //000   ----------------------------------------
 BYTE   KEYSH   AttackFE3_key+0
Label_012653E6:
 BYTE   TEMPO   112*AttackFE3_tbs/2
 BYTE   W96
//  #01 //001   ----------------------------------------
 BYTE   W48
 BYTE   VOICE   60
 BYTE   VOL   70*AttackFE3_mvl/mxv
 BYTE   PAN   c_v+25
 BYTE   N11  Gn1  v104
 BYTE   W12
 BYTE   N04  An1  v112
 BYTE   W06
 BYTE   N11  As1  v104
 BYTE   W12
 BYTE   N04  Cn2  v112
 BYTE   W06
 BYTE   As1
 BYTE   W12
//  #01 //002   ----------------------------------------
 BYTE   Cn2  v104
 BYTE   W12
 BYTE   Dn2
 BYTE   W12
 BYTE   PAN   c_v-25
 BYTE   N11  Gn2
 BYTE   W12
 BYTE   N04  An2  v112
 BYTE   W06
 BYTE   N11  As2  v104
 BYTE   W12
 BYTE   N04  Cn3  v112
 BYTE   W06
 BYTE   As2
 BYTE   W12
 BYTE   An2  v104
 BYTE   W12
 BYTE   Fn2
 BYTE   W12
//  #01 //003   ----------------------------------------
 BYTE   VOICE   41
 BYTE   VOL   0*AttackFE3_mvl/mxv
 BYTE   PAN   c_v+25
 BYTE   N17  Gn5  v100
 BYTE   W18
 BYTE   N17
 BYTE   W18
 BYTE   N11  Gn5  v104
 BYTE   W12
 BYTE   Gn5  v108
 BYTE   W12
 BYTE   N17  Gn5  v100
 BYTE   W18
 BYTE   N17
 BYTE   W18
//  #01 //004   ----------------------------------------
 BYTE   N11  Gn5  v108
 BYTE   W12
 BYTE   Gn5  v112
 BYTE   W12
 BYTE   N17  Gn5  v104
 BYTE   W18
 BYTE   N17
 BYTE   W18
 BYTE   N11  Gn5  v108
 BYTE   W12
 BYTE   Gn5  v112
 BYTE   W12
 BYTE   N17  Gn5  v104
 BYTE   W12
//  #01 //005   ----------------------------------------
 BYTE   W06
 BYTE   N17
 BYTE   W18
 BYTE   N11  Gn5  v108
 BYTE   W12
 BYTE   N05  Fn5
 BYTE   W06
 BYTE   N04  Gn5
 BYTE   W06
 BYTE   VOICE   41
 BYTE   VOL   67*AttackFE3_mvl/mxv
 BYTE   PAN   c_v+14
 BYTE   VOL   67*AttackFE3_mvl/mxv
 BYTE   W01
 BYTE   VOL   68*AttackFE3_mvl/mxv
 BYTE   W03
 BYTE   VOL   68*AttackFE3_mvl/mxv
 BYTE   W02
 BYTE   N05  Gs3
 BYTE   W01
 BYTE   VOL   69*AttackFE3_mvl/mxv
 BYTE   W03
 BYTE   VOL   70*AttackFE3_mvl/mxv
 BYTE   W02
 BYTE   N05  Cn4  v096
 BYTE   W01
 BYTE   VOL   70*AttackFE3_mvl/mxv
 BYTE   W03
 BYTE   VOL   71*AttackFE3_mvl/mxv
 BYTE   W02
 BYTE   N05  Ds4  v104
 BYTE   W01
 BYTE   VOL   72*AttackFE3_mvl/mxv
 BYTE   W03
 BYTE   VOL   72*AttackFE3_mvl/mxv
 BYTE   W02
 BYTE   N05  Gs4  v108
 BYTE   W01
 BYTE   VOL   73*AttackFE3_mvl/mxv
 BYTE   W03
 BYTE   VOL   74*AttackFE3_mvl/mxv
 BYTE   W02
 BYTE   N05  Cn4  v096
 BYTE   W01
 BYTE   VOL   74*AttackFE3_mvl/mxv
 BYTE   W03
 BYTE   VOL   75*AttackFE3_mvl/mxv
 BYTE   W02
 BYTE   N05  Ds4  v104
 BYTE   W01
 BYTE   VOL   76*AttackFE3_mvl/mxv
 BYTE   W03
 BYTE   VOL   76*AttackFE3_mvl/mxv
 BYTE   W02
 BYTE   VOL   76*AttackFE3_mvl/mxv
 BYTE   N05  Gs4  v108
 BYTE   W02
 BYTE   VOL   76*AttackFE3_mvl/mxv
 BYTE   W04
//  #01 //006   ----------------------------------------
 BYTE   VOL   75*AttackFE3_mvl/mxv
 BYTE   N05  Ds4  v096
 BYTE   W04
 BYTE   VOL   74*AttackFE3_mvl/mxv
 BYTE   W02
 BYTE   N05  Gs4  v104
 BYTE   W02
 BYTE   VOL   74*AttackFE3_mvl/mxv
 BYTE   W04
 BYTE   VOL   73*AttackFE3_mvl/mxv
 BYTE   N05  Cn5  v108
 BYTE   W05
 BYTE   VOL   72*AttackFE3_mvl/mxv
 BYTE   W01
 BYTE   N05  Ds5  v096
 BYTE   W03
 BYTE   VOL   72*AttackFE3_mvl/mxv
 BYTE   W03
 BYTE   N05  Cn5  v104
 BYTE   W01
 BYTE   VOL   71*AttackFE3_mvl/mxv
 BYTE   W04
 BYTE   VOL   70*AttackFE3_mvl/mxv
 BYTE   W01
 BYTE   N05  Gs4  v096
 BYTE   W03
 BYTE   VOL   70*AttackFE3_mvl/mxv
 BYTE   W03
 BYTE   VOL   70*AttackFE3_mvl/mxv
 BYTE   W01
 BYTE   VOL   70*AttackFE3_mvl/mxv
 BYTE   W03
 BYTE   VOL   71*AttackFE3_mvl/mxv
 BYTE   W02
 BYTE   VOL   72*AttackFE3_mvl/mxv
 BYTE   N05  Gn3  v108
 BYTE   W03
 BYTE   VOL   72*AttackFE3_mvl/mxv
 BYTE   W03
 BYTE   VOL   73*AttackFE3_mvl/mxv
 BYTE   N05  Bn3  v096
 BYTE   W03
 BYTE   VOL   74*AttackFE3_mvl/mxv
 BYTE   W03
 BYTE   VOL   74*AttackFE3_mvl/mxv
 BYTE   N05  Dn4  v104
 BYTE   W02
 BYTE   VOL   75*AttackFE3_mvl/mxv
 BYTE   W03
 BYTE   VOL   76*AttackFE3_mvl/mxv
 BYTE   W01
 BYTE   N05  Fn4  v108
 BYTE   W02
 BYTE   VOL   76*AttackFE3_mvl/mxv
 BYTE   W03
 BYTE   VOL   77*AttackFE3_mvl/mxv
 BYTE   W01
 BYTE   N05  Gs4  v096
 BYTE   W02
 BYTE   VOL   78*AttackFE3_mvl/mxv
 BYTE   W02
 BYTE   VOL   78*AttackFE3_mvl/mxv
 BYTE   W02
 BYTE   N05  Bn4  v104
 BYTE   W01
 BYTE   VOL   79*AttackFE3_mvl/mxv
 BYTE   W03
 BYTE   VOL   80*AttackFE3_mvl/mxv
 BYTE   W02
 BYTE   VOL   80*AttackFE3_mvl/mxv
 BYTE   N05  Gs4  v108
 BYTE   W02
 BYTE   VOL   79*AttackFE3_mvl/mxv
 BYTE   W04
 BYTE   VOL   78*AttackFE3_mvl/mxv
 BYTE   N05  Gn4  v096
 BYTE   W04
 BYTE   VOL   78*AttackFE3_mvl/mxv
 BYTE   W02
 BYTE   N05  Gs4  v104
 BYTE   W02
 BYTE   VOL   77*AttackFE3_mvl/mxv
 BYTE   W04
//  #01 //007   ----------------------------------------
 BYTE   VOL   76*AttackFE3_mvl/mxv
 BYTE   N05  Gn4  v108
 BYTE   W05
 BYTE   VOL   76*AttackFE3_mvl/mxv
 BYTE   W01
 BYTE   N05  Fn4  v096
 BYTE   W03
 BYTE   VOL   75*AttackFE3_mvl/mxv
 BYTE   W03
 BYTE   N05  Ds4  v104
 BYTE   W01
 BYTE   VOL   74*AttackFE3_mvl/mxv
 BYTE   W04
 BYTE   VOL   74*AttackFE3_mvl/mxv
 BYTE   W01
 BYTE   N05  Dn4  v096
 BYTE   W03
 BYTE   VOL   73*AttackFE3_mvl/mxv
 BYTE   W03
 BYTE   GoTo
  POIN2 Label_012653E6
//  #01 //008   ----------------------------------------
 BYTE   W72
 BYTE   W72
//  #01 //009   ----------------------------------------
 BYTE   VOICE   60
 BYTE   VOL   70*AttackFE3_mvl/mxv
 BYTE   PAN   c_v+25
 BYTE   N11  Gn1  v104
 BYTE   W12
 BYTE   N04  An1  v112
 BYTE   W06
 BYTE   N11  As1  v104
 BYTE   W06
 BYTE   W06
 BYTE   N04  Cn2  v112
 BYTE   W06
 BYTE   As1
 BYTE   W12
 BYTE   Cn2  v104
 BYTE   W12
 BYTE   Dn2
 BYTE   W12
 BYTE   PAN   c_v-25
 BYTE   N11  Gn2
 BYTE   W12
 BYTE   N04  An2  v112
 BYTE   W06
 BYTE   N11  As2  v104
 BYTE   W12
//  #01 //010   ----------------------------------------
 BYTE   N04  Cn3  v112
 BYTE   W06
 BYTE   As2
 BYTE   W12
 BYTE   An2  v104
 BYTE   W12
 BYTE   Fn2
 BYTE   W13
 BYTE   VOICE   41
 BYTE   VOL   0*AttackFE3_mvl/mxv
 BYTE   PAN   c_v+25
 BYTE   N17  Gn5  v100
 BYTE   W18
 BYTE   N17
 BYTE   W18
 BYTE   N11  Gn5  v104
 BYTE   W12
 BYTE   Gn5  v108
 BYTE   W12
//  #01 //011   ----------------------------------------
 BYTE   N17  Gn5  v100
 BYTE   W11
 BYTE   W07
 BYTE   N17
 BYTE   W18
 BYTE   N11  Gn5  v108
 BYTE   W12
 BYTE   Gn5  v112
 BYTE   W12
 BYTE   N17  Gn5  v104
 BYTE   W18
 BYTE   N17
 BYTE   W18
//  #01 //012   ----------------------------------------
 BYTE   N11  Gn5  v108
 BYTE   W11
 BYTE   W01
 BYTE   Gn5  v112
 BYTE   W12
 BYTE   N17  Gn5  v104
 BYTE   W18
 BYTE   N17
 BYTE   W18
 BYTE   N11  Gn5  v108
 BYTE   W12
 BYTE   N05  Fn5
 BYTE   W06
 BYTE   N04  Gn5
 BYTE   W05
 BYTE   VOICE   41
 BYTE   VOL   67*AttackFE3_mvl/mxv
 BYTE   PAN   c_v+14
 BYTE   VOL   67*AttackFE3_mvl/mxv
 BYTE   W01
 BYTE   VOL   68*AttackFE3_mvl/mxv
 BYTE   W03
 BYTE   VOL   68*AttackFE3_mvl/mxv
 BYTE   W02
 BYTE   N05  Gs3
 BYTE   W01
 BYTE   VOL   69*AttackFE3_mvl/mxv
 BYTE   W03
 BYTE   VOL   70*AttackFE3_mvl/mxv
 BYTE   W02
 BYTE   N05  Cn4  v096
 BYTE   W01
//  #01 //013   ----------------------------------------
 BYTE   VOL   70*AttackFE3_mvl/mxv
 BYTE   W03
 BYTE   VOL   71*AttackFE3_mvl/mxv
 BYTE   W02
 BYTE   N05  Ds4  v104
 BYTE   W01
 BYTE   VOL   72*AttackFE3_mvl/mxv
 BYTE   W03
 BYTE   VOL   72*AttackFE3_mvl/mxv
 BYTE   W02
 BYTE   N05  Gs4  v108
 BYTE   W01
 BYTE   VOL   73*AttackFE3_mvl/mxv
 BYTE   W03
 BYTE   VOL   74*AttackFE3_mvl/mxv
 BYTE   W02
 BYTE   N05  Cn4  v096
 BYTE   W01
 BYTE   VOL   74*AttackFE3_mvl/mxv
 BYTE   W03
 BYTE   VOL   75*AttackFE3_mvl/mxv
 BYTE   W02
 BYTE   N05  Ds4  v104
 BYTE   W01
 BYTE   VOL   76*AttackFE3_mvl/mxv
 BYTE   W03
 BYTE   VOL   76*AttackFE3_mvl/mxv
 BYTE   W02
 BYTE   VOL   76*AttackFE3_mvl/mxv
 BYTE   N05  Gs4  v108
 BYTE   W02
 BYTE   VOL   76*AttackFE3_mvl/mxv
 BYTE   W04
 BYTE   VOL   75*AttackFE3_mvl/mxv
 BYTE   N05  Ds4  v096
 BYTE   W05
 BYTE   VOL   74*AttackFE3_mvl/mxv
 BYTE   W01
 BYTE   N05  Gs4  v104
 BYTE   W03
 BYTE   VOL   74*AttackFE3_mvl/mxv
 BYTE   W03
 BYTE   N05  Cn5  v108
 BYTE   W01
 BYTE   VOL   73*AttackFE3_mvl/mxv
 BYTE   W04
 BYTE   VOL   72*AttackFE3_mvl/mxv
 BYTE   W01
 BYTE   N05  Ds5  v096
 BYTE   W03
 BYTE   VOL   72*AttackFE3_mvl/mxv
 BYTE   W03
 BYTE   N05  Cn5  v104
 BYTE   W02
 BYTE   VOL   71*AttackFE3_mvl/mxv
 BYTE   W04
 BYTE   VOL   70*AttackFE3_mvl/mxv
 BYTE   N05  Gs4  v096
 BYTE   W04
 BYTE   VOL   70*AttackFE3_mvl/mxv
 BYTE   W02
 BYTE   VOL   70*AttackFE3_mvl/mxv
 BYTE   W01
 BYTE   VOL   70*AttackFE3_mvl/mxv
 BYTE   W03
 BYTE   VOL   71*AttackFE3_mvl/mxv
 BYTE   W02
 BYTE   N05  Gn3  v108
 BYTE   W01
 BYTE   VOL   72*AttackFE3_mvl/mxv
 BYTE   W03
 BYTE   VOL   72*AttackFE3_mvl/mxv
 BYTE   W02
 BYTE   N05  Bn3  v096
 BYTE   W01
 BYTE   VOL   73*AttackFE3_mvl/mxv
 BYTE   W02
 BYTE   VOL   74*AttackFE3_mvl/mxv
 BYTE   W03
 BYTE   VOL   74*AttackFE3_mvl/mxv
 BYTE   N05  Dn4  v104
 BYTE   W03
 BYTE   VOL   75*AttackFE3_mvl/mxv
 BYTE   W03
 BYTE   VOL   76*AttackFE3_mvl/mxv
 BYTE   N05  Fn4  v108
 BYTE   W03
//  #01 //014   ----------------------------------------
 BYTE   VOL   76*AttackFE3_mvl/mxv
 BYTE   W02
 BYTE   VOL   77*AttackFE3_mvl/mxv
 BYTE   W01
 BYTE   N05  Gs4  v096
 BYTE   W02
 BYTE   VOL   78*AttackFE3_mvl/mxv
 BYTE   W03
 BYTE   VOL   78*AttackFE3_mvl/mxv
 BYTE   W01
 BYTE   N05  Bn4  v104
 BYTE   W02
 BYTE   VOL   79*AttackFE3_mvl/mxv
 BYTE   W03
 BYTE   VOL   80*AttackFE3_mvl/mxv
 BYTE   W01
 BYTE   VOL   80*AttackFE3_mvl/mxv
 BYTE   N05  Gs4  v108
 BYTE   W02
 BYTE   VOL   79*AttackFE3_mvl/mxv
 BYTE   W04
 BYTE   VOL   78*AttackFE3_mvl/mxv
 BYTE   N05  Gn4  v096
 BYTE   W05
 BYTE   VOL   78*AttackFE3_mvl/mxv
 BYTE   W01
 BYTE   N05  Gs4  v104
 BYTE   W03
 BYTE   VOL   77*AttackFE3_mvl/mxv
 BYTE   W03
 BYTE   N05  Gn4  v108
 BYTE   W01
 BYTE   VOL   76*AttackFE3_mvl/mxv
 BYTE   W04
 BYTE   VOL   76*AttackFE3_mvl/mxv
 BYTE   W01
 BYTE   N05  Fn4  v096
 BYTE   W03
 BYTE   VOL   75*AttackFE3_mvl/mxv
 BYTE   W03
 BYTE   N05  Ds4  v104
 BYTE   W02
 BYTE   VOL   74*AttackFE3_mvl/mxv
 BYTE   W04
 BYTE   VOL   74*AttackFE3_mvl/mxv
 BYTE   N05  Dn4  v096
 BYTE   W04
 BYTE   VOL   73*AttackFE3_mvl/mxv
 BYTE   W01
 BYTE   FINE

//**************** Track 2 (Midi-Chn.1) ****************//

AttackFE3_002:
//  #02 //000   ----------------------------------------
 BYTE   KEYSH   AttackFE3_key+0
Label_012656B2:
 BYTE   W72
 BYTE   W01
 BYTE   VOICE   41
 BYTE   VOL   0*AttackFE3_mvl/mxv
 BYTE   PAN   c_v+25
 BYTE   N11  Cn5  v104
 BYTE   W12
 BYTE   N05  Dn5
 BYTE   W06
 BYTE   N11  Ds5
 BYTE   W05
//  #02 //001   ----------------------------------------
 BYTE   W07
 BYTE   N05  Fn5
 BYTE   W06
 BYTE   N11  Ds5
 BYTE   W12
 BYTE   Dn5
 BYTE   W12
 BYTE   N44  As4
 BYTE   W56
 BYTE   W03
//  #02 //002   ----------------------------------------
 BYTE   W24
 BYTE   W01
 BYTE   N11  Cn5
 BYTE   W12
 BYTE   N05  Dn5
 BYTE   W06
 BYTE   N11  Ds5
 BYTE   W12
 BYTE   N05  Fn5
 BYTE   W06
 BYTE   N11  Ds5
 BYTE   W12
 BYTE   Dn5
 BYTE   W12
 BYTE   N10  As4
 BYTE   W11
//  #02 //003   ----------------------------------------
 BYTE   VOICE   33
 BYTE   VOL   60*AttackFE3_mvl/mxv
 BYTE   PAN   c_v+0
 BYTE   N17  Dn3  v108
 BYTE   W18
 BYTE   An3  v104
 BYTE   W18
 BYTE   N11  Dn4  v096
 BYTE   W12
 BYTE   Dn3  v108
 BYTE   W12
 BYTE   N17  Ds3
 BYTE   W18
 BYTE   As3  v100
 BYTE   W18
//  #02 //004   ----------------------------------------
 BYTE   N11  Ds4  v096
 BYTE   W12
 BYTE   Ds3  v108
 BYTE   W12
 BYTE   N17  En3  v104
 BYTE   W18
 BYTE   Bn3  v096
 BYTE   W18
 BYTE   N11  En4  v092
 BYTE   W12
 BYTE   En3  v104
 BYTE   W12
 BYTE   N17  Fn3  v100
 BYTE   W12
//  #02 //005   ----------------------------------------
 BYTE   W06
 BYTE   Cn4  v096
 BYTE   W18
 BYTE   N11  Fn4  v088
 BYTE   W12
 BYTE   Fn3  v100
 BYTE   W12
 BYTE   N80  Fn2  v112
 BYTE   W48
//  #02 //006   ----------------------------------------
 BYTE   W36
 BYTE   Gn2  v116
 BYTE   W60
//  #02 //007   ----------------------------------------
 BYTE   W24
 BYTE   GoTo
  POIN2 Label_012656B2
//  #02 //008   ----------------------------------------
 BYTE   W72
 BYTE   W01
 BYTE   VOICE   41
 BYTE   VOL   0*AttackFE3_mvl/mxv
 BYTE   PAN   c_v+25
 BYTE   N11  Cn5  v104
 BYTE   W12
 BYTE   N05  Dn5
 BYTE   W06
 BYTE   N11  Ds5
 BYTE   W12
//  #02 //009   ----------------------------------------
 BYTE   N05  Fn5
 BYTE   W06
 BYTE   N11  Ds5
 BYTE   W12
 BYTE   Dn5
 BYTE   W12
 BYTE   N44  As4
 BYTE   W32
 BYTE   W03
 BYTE   W48
//  #02 //010   ----------------------------------------
 BYTE   W01
 BYTE   N11  Cn5
 BYTE   W12
 BYTE   N05  Dn5
 BYTE   W06
 BYTE   N11  Ds5
 BYTE   W12
 BYTE   N05  Fn5
 BYTE   W06
 BYTE   N11  Ds5
 BYTE   W11
 BYTE   W01
 BYTE   Dn5
 BYTE   W12
 BYTE   N10  As4
 BYTE   W11
 BYTE   VOICE   33
 BYTE   VOL   60*AttackFE3_mvl/mxv
 BYTE   PAN   c_v+0
 BYTE   N17  Dn3  v108
 BYTE   W18
 BYTE   An3  v104
 BYTE   W18
//  #02 //011   ----------------------------------------
 BYTE   N11  Dn4  v096
 BYTE   W12
 BYTE   Dn3  v108
 BYTE   W12
 BYTE   N17  Ds3
 BYTE   W12
 BYTE   W06
 BYTE   As3  v100
 BYTE   W18
 BYTE   N11  Ds4  v096
 BYTE   W12
 BYTE   Ds3  v108
 BYTE   W12
 BYTE   N17  En3  v104
 BYTE   W18
//  #02 //012   ----------------------------------------
 BYTE   Bn3  v096
 BYTE   W18
 BYTE   N11  En4  v092
 BYTE   W12
 BYTE   En3  v104
 BYTE   W12
 BYTE   N17  Fn3  v100
 BYTE   W18
 BYTE   Cn4  v096
 BYTE   W18
 BYTE   N11  Fn4  v088
 BYTE   W12
 BYTE   Fn3  v100
 BYTE   W12
//  #02 //013   ----------------------------------------
 BYTE   N80  Fn2  v112
 BYTE   W24
 BYTE   W60
 BYTE   Gn2  v116
 BYTE   W36
//  #02 //014   ----------------------------------------
 BYTE   W44
 BYTE   W03
 BYTE   FINE

//**************** Track 3 (Midi-Chn.2) ****************//

AttackFE3_003:
//  #03 //000   ----------------------------------------
 BYTE   KEYSH   AttackFE3_key+0
Label_012657B6:
 BYTE   VOICE   45
 BYTE   VOL   80*AttackFE3_mvl/mxv
 BYTE   PAN   c_v+0
 BYTE   N11  Gn2  v116
 BYTE   W12
 BYTE   N05  Dn2  v092
 BYTE   W06
 BYTE   N11  Gn2  v116
 BYTE   W12
 BYTE   N05  Dn2  v092
 BYTE   W06
 BYTE   N11  Gs2  v124
 BYTE   W12
 BYTE   Gs2  v096
 BYTE   W12
 BYTE   Gs2  v108
 BYTE   W12
 BYTE   Gn2  v116
 BYTE   W12
 BYTE   N05  Dn2  v092
 BYTE   W06
 BYTE   N11  Gn2  v116
 BYTE   W06
//  #03 //001   ----------------------------------------
Label_012657E1:
 BYTE   W06
 BYTE   N05  Dn2  v092
 BYTE   W06
 BYTE   N11  Gs2  v124
 BYTE   W12
 BYTE   Gs2  v096
 BYTE   W12
 BYTE   Gs2  v108
 BYTE   W12
 BYTE   Gn2  v116
 BYTE   W12
 BYTE   N05  Dn2  v092
 BYTE   W06
 BYTE   N11  Gn2  v116
 BYTE   W12
 BYTE   N05  Dn2  v092
 BYTE   W06
 BYTE   N11  Gs2  v124
 BYTE   W12
 BYTE   PEND 
//  #03 //002   ----------------------------------------
 BYTE   Gs2  v096
 BYTE   W12
 BYTE   Gs2  v108
 BYTE   W12
 BYTE   Gn2  v116
 BYTE   W12
 BYTE   N05  Dn2  v092
 BYTE   W06
 BYTE   N11  Gn2  v116
 BYTE   W12
 BYTE   N05  Dn2  v092
 BYTE   W06
 BYTE   N11  Gs2  v124
 BYTE   W12
 BYTE   Gs2  v096
 BYTE   W12
 BYTE   Gs2  v108
 BYTE   W12
//  #03 //003   ----------------------------------------
 BYTE   VOICE   45
 BYTE   VOL   80*AttackFE3_mvl/mxv
 BYTE   PAN   c_v+14
 BYTE   W12
 BYTE   N17  Gn2  v116
 BYTE   W18
 BYTE   N11
 BYTE   W12
 BYTE   N11
 BYTE   W12
 BYTE   N17
 BYTE   W18
 BYTE   As2
 BYTE   W18
 BYTE   N11
 BYTE   W06
//  #03 //004   ----------------------------------------
 BYTE   W06
 BYTE   N11
 BYTE   W12
 BYTE   N17
 BYTE   W18
 BYTE   Bn2
 BYTE   W18
 BYTE   N11
 BYTE   W12
 BYTE   N11
 BYTE   W12
 BYTE   N17
 BYTE   W18
//  #03 //005   ----------------------------------------
 BYTE   Cn3
 BYTE   W18
 BYTE   N11
 BYTE   W12
 BYTE   N11
 BYTE   W12
 BYTE   N52
 BYTE   W54
//  #03 //006   ----------------------------------------
 BYTE   W24
 BYTE   N23  Fn2
 BYTE   W24
 BYTE   VOL   80*AttackFE3_mvl/mxv
 BYTE   N17  Dn2  v092
 BYTE   W18
 BYTE   N17
 BYTE   W18
 BYTE   N14
 BYTE   W12
//  #03 //007   ----------------------------------------
 BYTE   W03
 BYTE   N05  Gn2  v068
 BYTE   W06
 BYTE   Gn2  v088
 BYTE   W06
 BYTE   Gn2  v104
 BYTE   W06
 BYTE   N02  Gn2  v124
 BYTE   W03
 BYTE   GoTo
  POIN2 Label_012657B6
//  #03 //008   ----------------------------------------
 BYTE   VOICE   45
 BYTE   VOL   80*AttackFE3_mvl/mxv
 BYTE   PAN   c_v+0
 BYTE   N11  Gn2  v116
 BYTE   W12
 BYTE   N05  Dn2  v092
 BYTE   W06
 BYTE   N11  Gn2  v116
 BYTE   W12
 BYTE   N05  Dn2  v092
 BYTE   W06
 BYTE   N11  Gs2  v124
 BYTE   W12
 BYTE   Gs2  v096
 BYTE   W12
 BYTE   Gs2  v108
 BYTE   W12
 BYTE   Gn2  v116
 BYTE   W12
 BYTE   N05  Dn2  v092
 BYTE   W06
 BYTE   N11  Gn2  v116
 BYTE   W12
//  #03 //009   ----------------------------------------
 BYTE   N05  Dn2  v092
 BYTE   W06
 BYTE   N11  Gs2  v124
 BYTE   W12
 BYTE   Gs2  v096
 BYTE   W12
 BYTE   Gs2  v108
 BYTE   W12
 BYTE   Gn2  v116
 BYTE   W12
 BYTE   N05  Dn2  v092
 BYTE   W06
 BYTE   N11  Gn2  v116
 BYTE   W06
//  #03 //010   ----------------------------------------
 BYTE   PATT
  POIN2 Label_012657E1
//  #03 //011   ----------------------------------------
 BYTE   N11  Gs2  v096
 BYTE   W12
 BYTE   Gs2  v108
 BYTE   W12
 BYTE   VOICE   45
 BYTE   VOL   80*AttackFE3_mvl/mxv
 BYTE   PAN   c_v+14
 BYTE   W12
 BYTE   N17  Gn2  v116
 BYTE   W18
 BYTE   N11
 BYTE   W12
 BYTE   N11
 BYTE   W12
 BYTE   N17
 BYTE   W18
//  #03 //012   ----------------------------------------
 BYTE   As2
 BYTE   W18
 BYTE   N11
 BYTE   W12
 BYTE   N11
 BYTE   W12
 BYTE   N17
 BYTE   W18
 BYTE   Bn2
 BYTE   W18
 BYTE   N11
 BYTE   W12
 BYTE   N11
 BYTE   W06
//  #03 //013   ----------------------------------------
 BYTE   W06
 BYTE   N17
 BYTE   W18
 BYTE   Cn3
 BYTE   W18
 BYTE   N11
 BYTE   W12
 BYTE   N11
 BYTE   W12
 BYTE   N52
 BYTE   W30
//  #03 //014   ----------------------------------------
 BYTE   W48
 BYTE   N23  Fn2
 BYTE   W24
 BYTE   VOL   80*AttackFE3_mvl/mxv
 BYTE   N17  Dn2  v092
 BYTE   W18
 BYTE   N17
 BYTE   W06
//  #03 //015   ----------------------------------------
 BYTE   W12
 BYTE   N14
 BYTE   W15
 BYTE   N05  Gn2  v068
 BYTE   W06
 BYTE   Gn2  v088
 BYTE   W06
 BYTE   Gn2  v104
 BYTE   W06
 BYTE   N02  Gn2  v124
 BYTE   W02
 BYTE   FINE

//**************** Track 4 (Midi-Chn.3) ****************//

AttackFE3_004:
//  #04 //000   ----------------------------------------
 BYTE   KEYSH   AttackFE3_key+0
Label_0126590A:
 BYTE   VOICE   33
 BYTE   VOL   60*AttackFE3_mvl/mxv
 BYTE   PAN   c_v+0
 BYTE   N11  Cn3  v104
 BYTE   W18
 BYTE   N17
 BYTE   W18
 BYTE   N08  Cs3
 BYTE   W12
 BYTE   N08
 BYTE   W12
 BYTE   N08
 BYTE   W12
 BYTE   N11  Cn3
 BYTE   W18
 BYTE   N17
 BYTE   W06
//  #04 //001   ----------------------------------------
Label_01265922:
 BYTE   W12
 BYTE   N08  Cs3  v104
 BYTE   W12
 BYTE   N08
 BYTE   W12
 BYTE   N08
 BYTE   W12
 BYTE   N11  Cn3
 BYTE   W18
 BYTE   N17
 BYTE   W18
 BYTE   N08  Cs3
 BYTE   W12
 BYTE   PEND 
//  #04 //002   ----------------------------------------
 BYTE   N08
 BYTE   W12
 BYTE   N08
 BYTE   W12
 BYTE   N11  Cn3
 BYTE   W18
 BYTE   N17
 BYTE   W18
 BYTE   N08  Cs3
 BYTE   W12
 BYTE   N08
 BYTE   W12
 BYTE   N08
 BYTE   W12
//  #04 //003   ----------------------------------------
 BYTE   VOICE   45
 BYTE   VOL   80*AttackFE3_mvl/mxv
 BYTE   PAN   c_v-14
 BYTE   N17  Dn2  v092
 BYTE   W18
 BYTE   N17
 BYTE   W18
 BYTE   N11
 BYTE   W12
 BYTE   N11
 BYTE   W12
 BYTE   N17  Ds2
 BYTE   W18
 BYTE   N17
 BYTE   W18
//  #04 //004   ----------------------------------------
 BYTE   N11
 BYTE   W12
 BYTE   N11
 BYTE   W12
 BYTE   N17  En2
 BYTE   W18
 BYTE   N17
 BYTE   W18
 BYTE   N11
 BYTE   W12
 BYTE   N11
 BYTE   W12
 BYTE   N17  Fn2
 BYTE   W12
//  #04 //005   ----------------------------------------
 BYTE   W06
 BYTE   N17
 BYTE   W18
 BYTE   N11
 BYTE   W12
 BYTE   N11
 BYTE   W12
 BYTE   N44  Fn2  v116
 BYTE   W48
//  #04 //006   ----------------------------------------
 BYTE   W12
 BYTE   N23  Cn2  v092
 BYTE   W24
 BYTE   N17  Gn2  v116
 BYTE   W18
 BYTE   N17
 BYTE   W18
 BYTE   N32
 BYTE   W24
//  #04 //007   ----------------------------------------
 BYTE   W12
 BYTE   VOL   80*AttackFE3_mvl/mxv
 BYTE   N05  Gn2  v092
 BYTE   W06
 BYTE   Gn2  v080
 BYTE   W06
 BYTE   GoTo
  POIN2 Label_0126590A
//  #04 //008   ----------------------------------------
 BYTE   VOICE   33
 BYTE   VOL   60*AttackFE3_mvl/mxv
 BYTE   PAN   c_v+0
 BYTE   N11  Cn3  v104
 BYTE   W18
 BYTE   N17
 BYTE   W18
 BYTE   N08  Cs3
 BYTE   W12
 BYTE   N08
 BYTE   W12
 BYTE   N08
 BYTE   W12
 BYTE   N11  Cn3
 BYTE   W18
 BYTE   N17
 BYTE   W18
//  #04 //009   ----------------------------------------
 BYTE   N08  Cs3
 BYTE   W12
 BYTE   N08
 BYTE   W12
 BYTE   N08
 BYTE   W12
 BYTE   N11  Cn3
 BYTE   W18
 BYTE   N17
 BYTE   W06
//  #04 //010   ----------------------------------------
 BYTE   PATT
  POIN2 Label_01265922
//  #04 //011   ----------------------------------------
 BYTE   N08  Cs3  v104
 BYTE   W12
 BYTE   N08
 BYTE   W12
 BYTE   VOICE   45
 BYTE   VOL   80*AttackFE3_mvl/mxv
 BYTE   PAN   c_v-14
 BYTE   N17  Dn2  v092
 BYTE   W18
 BYTE   N17
 BYTE   W18
 BYTE   N11
 BYTE   W12
 BYTE   N11
 BYTE   W12
 BYTE   N17  Ds2
 BYTE   W12
//  #04 //012   ----------------------------------------
 BYTE   W06
 BYTE   N17
 BYTE   W18
 BYTE   N11
 BYTE   W12
 BYTE   N11
 BYTE   W12
 BYTE   N17  En2
 BYTE   W18
 BYTE   N17
 BYTE   W18
 BYTE   N11
 BYTE   W12
//  #04 //013   ----------------------------------------
 BYTE   N11
 BYTE   W12
 BYTE   N17  Fn2
 BYTE   W18
 BYTE   N17
 BYTE   W18
 BYTE   N11
 BYTE   W12
 BYTE   N11
 BYTE   W12
 BYTE   N44  Fn2  v116
 BYTE   W24
//  #04 //014   ----------------------------------------
 BYTE   W36
 BYTE   N23  Cn2  v092
 BYTE   W24
 BYTE   N17  Gn2  v116
 BYTE   W18
 BYTE   N17
 BYTE   W18
//  #04 //015   ----------------------------------------
 BYTE   N32
 BYTE   W36
 BYTE   VOL   80*AttackFE3_mvl/mxv
 BYTE   N05  Gn2  v092
 BYTE   W06
 BYTE   Gn2  v080
 BYTE   W05
 BYTE   FINE

//**************** Track 5 (Midi-Chn.4) ****************//

AttackFE3_005:
//  #05 //000   ----------------------------------------
 BYTE   KEYSH   AttackFE3_key+0
Label_01265A0A:
 BYTE   VOICE   57
 BYTE   VOL   76*AttackFE3_mvl/mxv
 BYTE   PAN   c_v-14
 BYTE   N11  Cn3  v104
 BYTE   W12
 BYTE   N03  Dn3  v120
 BYTE   W06
 BYTE   N11  Ds3  v104
 BYTE   W12
 BYTE   N03  Fn3  v120
 BYTE   W06
 BYTE   N04  Ds3  v116
 BYTE   W12
 BYTE   Fn3  v104
 BYTE   W12
 BYTE   Gn3
 BYTE   W12
 BYTE   VOICE   61
 BYTE   VOL   69*AttackFE3_mvl/mxv
 BYTE   PAN   c_v+14
 BYTE   N11  Cn4
 BYTE   W12
 BYTE   N05  Dn4  v116
 BYTE   W06
 BYTE   N11  Ds4  v104
 BYTE   W06
//  #05 //001   ----------------------------------------
 BYTE   W06
 BYTE   N05  Fn4  v108
 BYTE   W06
 BYTE   VOL   79*AttackFE3_mvl/mxv
 BYTE   N11  Ds4  v096
 BYTE   W01
 BYTE   VOL   78*AttackFE3_mvl/mxv
 BYTE   W02
 BYTE   VOL   78*AttackFE3_mvl/mxv
 BYTE   W03
 BYTE   VOL   77*AttackFE3_mvl/mxv
 BYTE   W02
 BYTE   VOL   76*AttackFE3_mvl/mxv
 BYTE   W02
 BYTE   VOL   76*AttackFE3_mvl/mxv
 BYTE   W02
 BYTE   N11  Dn4
 BYTE   W01
 BYTE   VOL   75*AttackFE3_mvl/mxv
 BYTE   W02
 BYTE   VOL   74*AttackFE3_mvl/mxv
 BYTE   W03
 BYTE   VOL   74*AttackFE3_mvl/mxv
 BYTE   W02
 BYTE   VOL   73*AttackFE3_mvl/mxv
 BYTE   W02
 BYTE   VOL   72*AttackFE3_mvl/mxv
 BYTE   W02
 BYTE   N11  As3
 BYTE   W01
 BYTE   VOL   72*AttackFE3_mvl/mxv
 BYTE   W02
 BYTE   VOL   71*AttackFE3_mvl/mxv
 BYTE   W03
 BYTE   VOL   70*AttackFE3_mvl/mxv
 BYTE   W02
 BYTE   VOL   70*AttackFE3_mvl/mxv
 BYTE   W02
 BYTE   VOL   69*AttackFE3_mvl/mxv
 BYTE   W02
 BYTE   VOICE   57
 BYTE   VOL   76*AttackFE3_mvl/mxv
 BYTE   PAN   c_v-14
 BYTE   N11  Cn3  v104
 BYTE   W12
 BYTE   N03  Dn3  v120
 BYTE   W06
 BYTE   N11  Ds3  v104
 BYTE   W12
 BYTE   N03  Fn3  v120
 BYTE   W06
 BYTE   N04  Ds3  v116
 BYTE   W12
//  #05 //002   ----------------------------------------
 BYTE   Fn3  v104
 BYTE   W12
 BYTE   Gn3
 BYTE   W12
 BYTE   VOICE   61
 BYTE   VOL   69*AttackFE3_mvl/mxv
 BYTE   PAN   c_v+14
 BYTE   N11  Cn4
 BYTE   W12
 BYTE   N05  Dn4  v116
 BYTE   W06
 BYTE   N11  Ds4  v104
 BYTE   W12
 BYTE   N05  Fn4  v108
 BYTE   W06
 BYTE   VOL   79*AttackFE3_mvl/mxv
 BYTE   N11  Ds4  v096
 BYTE   W01
 BYTE   VOL   78*AttackFE3_mvl/mxv
 BYTE   W02
 BYTE   VOL   78*AttackFE3_mvl/mxv
 BYTE   W03
 BYTE   VOL   77*AttackFE3_mvl/mxv
 BYTE   W02
 BYTE   VOL   76*AttackFE3_mvl/mxv
 BYTE   W02
 BYTE   VOL   76*AttackFE3_mvl/mxv
 BYTE   W02
 BYTE   N11  Dn4
 BYTE   W01
 BYTE   VOL   75*AttackFE3_mvl/mxv
 BYTE   W02
 BYTE   VOL   74*AttackFE3_mvl/mxv
 BYTE   W03
 BYTE   VOL   74*AttackFE3_mvl/mxv
 BYTE   W02
 BYTE   VOL   73*AttackFE3_mvl/mxv
 BYTE   W02
 BYTE   VOL   72*AttackFE3_mvl/mxv
 BYTE   W02
 BYTE   N11  As3
 BYTE   W01
 BYTE   VOL   72*AttackFE3_mvl/mxv
 BYTE   W02
 BYTE   VOL   71*AttackFE3_mvl/mxv
 BYTE   W03
 BYTE   VOL   70*AttackFE3_mvl/mxv
 BYTE   W02
 BYTE   VOL   70*AttackFE3_mvl/mxv
 BYTE   W02
 BYTE   VOL   69*AttackFE3_mvl/mxv
 BYTE   W02
//  #05 //003   ----------------------------------------
 BYTE   VOICE   41
 BYTE   VOL   67*AttackFE3_mvl/mxv
 BYTE   PAN   c_v+14
 BYTE   N17  Gn4  v100
 BYTE   W18
 BYTE   N17
 BYTE   W18
 BYTE   N11  Gn4  v104
 BYTE   W12
 BYTE   Gn4  v108
 BYTE   W12
 BYTE   N17  Gn4  v100
 BYTE   W18
 BYTE   N17
 BYTE   W18
//  #05 //004   ----------------------------------------
 BYTE   N11  Gn4  v108
 BYTE   W12
 BYTE   Gn4  v112
 BYTE   W12
 BYTE   N17  Gn4  v104
 BYTE   W18
 BYTE   N17
 BYTE   W18
 BYTE   N11  Gn4  v108
 BYTE   W12
 BYTE   Gn4  v112
 BYTE   W12
 BYTE   N17  Gn4  v104
 BYTE   W12
//  #05 //005   ----------------------------------------
 BYTE   W06
 BYTE   N17
 BYTE   W18
 BYTE   N23  Gn4  v112
 BYTE   W24
 BYTE   N80  Gs4  v104
 BYTE   W48
//  #05 //006   ----------------------------------------
 BYTE   W36
 BYTE   N44  Gs4  v096
 BYTE   W44
 BYTE   W03
 BYTE   N32  Gn4  v116
 BYTE   W13
//  #05 //007   ----------------------------------------
 BYTE   W24
 BYTE   GoTo
  POIN2 Label_01265A0A
//  #05 //008   ----------------------------------------
 BYTE   VOICE   57
 BYTE   VOL   76*AttackFE3_mvl/mxv
 BYTE   PAN   c_v-14
 BYTE   N11  Cn3  v104
 BYTE   W12
 BYTE   N03  Dn3  v120
 BYTE   W06
 BYTE   N11  Ds3  v104
 BYTE   W12
 BYTE   N03  Fn3  v120
 BYTE   W06
 BYTE   N04  Ds3  v116
 BYTE   W12
 BYTE   Fn3  v104
 BYTE   W12
 BYTE   Gn3
 BYTE   W12
 BYTE   VOICE   61
 BYTE   VOL   69*AttackFE3_mvl/mxv
 BYTE   PAN   c_v+14
 BYTE   N11  Cn4
 BYTE   W12
 BYTE   N05  Dn4  v116
 BYTE   W06
 BYTE   N11  Ds4  v104
 BYTE   W12
//  #05 //009   ----------------------------------------
 BYTE   N05  Fn4  v108
 BYTE   W06
 BYTE   VOL   79*AttackFE3_mvl/mxv
 BYTE   N11  Ds4  v096
 BYTE   W01
 BYTE   VOL   78*AttackFE3_mvl/mxv
 BYTE   W03
 BYTE   VOL   78*AttackFE3_mvl/mxv
 BYTE   W02
 BYTE   VOL   77*AttackFE3_mvl/mxv
 BYTE   W02
 BYTE   VOL   76*AttackFE3_mvl/mxv
 BYTE   W03
 BYTE   VOL   76*AttackFE3_mvl/mxv
 BYTE   W01
 BYTE   N11  Dn4
 BYTE   W01
 BYTE   VOL   75*AttackFE3_mvl/mxv
 BYTE   W03
 BYTE   VOL   74*AttackFE3_mvl/mxv
 BYTE   W02
 BYTE   VOL   74*AttackFE3_mvl/mxv
 BYTE   W02
 BYTE   VOL   73*AttackFE3_mvl/mxv
 BYTE   W03
 BYTE   VOL   72*AttackFE3_mvl/mxv
 BYTE   W01
 BYTE   N11  As3
 BYTE   W01
 BYTE   VOL   72*AttackFE3_mvl/mxv
 BYTE   W03
 BYTE   VOL   71*AttackFE3_mvl/mxv
 BYTE   W02
 BYTE   VOL   70*AttackFE3_mvl/mxv
 BYTE   W02
 BYTE   VOL   70*AttackFE3_mvl/mxv
 BYTE   W03
 BYTE   VOL   69*AttackFE3_mvl/mxv
 BYTE   W01
 BYTE   VOICE   57
 BYTE   VOL   76*AttackFE3_mvl/mxv
 BYTE   PAN   c_v-14
 BYTE   N11  Cn3  v104
 BYTE   W12
 BYTE   N03  Dn3  v120
 BYTE   W06
 BYTE   N11  Ds3  v104
 BYTE   W06
 BYTE   W06
 BYTE   N03  Fn3  v120
 BYTE   W06
 BYTE   N04  Ds3  v116
 BYTE   W12
 BYTE   Fn3  v104
 BYTE   W12
//  #05 //010   ----------------------------------------
 BYTE   Gn3
 BYTE   W12
 BYTE   VOICE   61
 BYTE   VOL   69*AttackFE3_mvl/mxv
 BYTE   PAN   c_v+14
 BYTE   N11  Cn4
 BYTE   W12
 BYTE   N05  Dn4  v116
 BYTE   W06
 BYTE   N11  Ds4  v104
 BYTE   W12
 BYTE   N05  Fn4  v108
 BYTE   W06
 BYTE   VOL   79*AttackFE3_mvl/mxv
 BYTE   N11  Ds4  v096
 BYTE   W01
 BYTE   VOL   78*AttackFE3_mvl/mxv
 BYTE   W03
 BYTE   VOL   78*AttackFE3_mvl/mxv
 BYTE   W02
 BYTE   VOL   77*AttackFE3_mvl/mxv
 BYTE   W02
 BYTE   VOL   76*AttackFE3_mvl/mxv
 BYTE   W03
 BYTE   VOL   76*AttackFE3_mvl/mxv
 BYTE   W01
 BYTE   N11  Dn4
 BYTE   W01
 BYTE   VOL   75*AttackFE3_mvl/mxv
 BYTE   W03
 BYTE   VOL   74*AttackFE3_mvl/mxv
 BYTE   W02
 BYTE   VOL   74*AttackFE3_mvl/mxv
 BYTE   W02
 BYTE   VOL   73*AttackFE3_mvl/mxv
 BYTE   W03
 BYTE   VOL   72*AttackFE3_mvl/mxv
 BYTE   W01
 BYTE   N11  As3
 BYTE   W01
 BYTE   VOL   72*AttackFE3_mvl/mxv
 BYTE   W03
 BYTE   VOL   71*AttackFE3_mvl/mxv
 BYTE   W02
 BYTE   VOL   70*AttackFE3_mvl/mxv
 BYTE   W02
 BYTE   VOL   70*AttackFE3_mvl/mxv
 BYTE   W03
 BYTE   VOL   69*AttackFE3_mvl/mxv
 BYTE   W01
 BYTE   VOICE   41
 BYTE   VOL   67*AttackFE3_mvl/mxv
 BYTE   PAN   c_v+14
 BYTE   N17  Gn4  v100
 BYTE   W18
//  #05 //011   ----------------------------------------
 BYTE   N17
 BYTE   W18
 BYTE   N11  Gn4  v104
 BYTE   W12
 BYTE   Gn4  v108
 BYTE   W12
 BYTE   N17  Gn4  v100
 BYTE   W12
 BYTE   W06
 BYTE   N17
 BYTE   W18
 BYTE   N11  Gn4  v108
 BYTE   W12
 BYTE   Gn4  v112
 BYTE   W12
//  #05 //012   ----------------------------------------
 BYTE   N17  Gn4  v104
 BYTE   W18
 BYTE   N17
 BYTE   W18
 BYTE   N11  Gn4  v108
 BYTE   W12
 BYTE   Gn4  v112
 BYTE   W12
 BYTE   N17  Gn4  v104
 BYTE   W18
 BYTE   N17
 BYTE   W18
//  #05 //013   ----------------------------------------
 BYTE   N23  Gn4  v112
 BYTE   W24
 BYTE   N80  Gs4  v104
 BYTE   W24
 BYTE   W60
//  #05 //014   ----------------------------------------
 BYTE   N44  Gs4  v096
 BYTE   W36
 BYTE   W12
 BYTE   N32  Gn4  v116
 BYTE   W32
 BYTE   W03
 BYTE   FINE

//**************** Track 6 (Midi-Chn.5) ****************//

AttackFE3_006:
//  #06 //000   ----------------------------------------
 BYTE   KEYSH   AttackFE3_key+0
Label_01265C26:
 BYTE   VOICE   57
 BYTE   VOL   75*AttackFE3_mvl/mxv
 BYTE   PAN   c_v-14
 BYTE   N11  Gn2  v104
 BYTE   W12
 BYTE   N03  An2  v120
 BYTE   W06
 BYTE   N11  As2  v104
 BYTE   W12
 BYTE   N03  Cn3  v120
 BYTE   W06
 BYTE   N04  As2  v116
 BYTE   W12
 BYTE   Cn3  v104
 BYTE   W12
 BYTE   Dn3
 BYTE   W12
 BYTE   VOICE   61
 BYTE   VOL   64*AttackFE3_mvl/mxv
 BYTE   PAN   c_v+14
 BYTE   N11  Gn3
 BYTE   W12
 BYTE   N05  An3  v116
 BYTE   W06
 BYTE   N11  As3  v104
 BYTE   W06
//  #06 //001   ----------------------------------------
 BYTE   W06
 BYTE   N05  Cn4  v108
 BYTE   W06
 BYTE   VOL   74*AttackFE3_mvl/mxv
 BYTE   N11  As3  v096
 BYTE   W01
 BYTE   VOL   73*AttackFE3_mvl/mxv
 BYTE   W02
 BYTE   VOL   72*AttackFE3_mvl/mxv
 BYTE   W03
 BYTE   VOL   72*AttackFE3_mvl/mxv
 BYTE   W02
 BYTE   VOL   71*AttackFE3_mvl/mxv
 BYTE   W02
 BYTE   VOL   70*AttackFE3_mvl/mxv
 BYTE   W02
 BYTE   N11  An3
 BYTE   W01
 BYTE   VOL   70*AttackFE3_mvl/mxv
 BYTE   W02
 BYTE   VOL   69*AttackFE3_mvl/mxv
 BYTE   W03
 BYTE   VOL   68*AttackFE3_mvl/mxv
 BYTE   W02
 BYTE   VOL   68*AttackFE3_mvl/mxv
 BYTE   W02
 BYTE   VOL   67*AttackFE3_mvl/mxv
 BYTE   W02
 BYTE   N11  Fn3
 BYTE   W01
 BYTE   VOL   66*AttackFE3_mvl/mxv
 BYTE   W02
 BYTE   VOL   66*AttackFE3_mvl/mxv
 BYTE   W03
 BYTE   VOL   65*AttackFE3_mvl/mxv
 BYTE   W02
 BYTE   VOL   64*AttackFE3_mvl/mxv
 BYTE   W02
 BYTE   VOL   64*AttackFE3_mvl/mxv
 BYTE   W02
 BYTE   VOICE   57
 BYTE   VOL   75*AttackFE3_mvl/mxv
 BYTE   PAN   c_v-14
 BYTE   N11  Gn2  v104
 BYTE   W12
 BYTE   N03  An2  v120
 BYTE   W06
 BYTE   N11  As2  v104
 BYTE   W12
 BYTE   N03  Cn3  v120
 BYTE   W06
 BYTE   N04  As2  v116
 BYTE   W12
//  #06 //002   ----------------------------------------
 BYTE   Cn3  v104
 BYTE   W12
 BYTE   Dn3
 BYTE   W12
 BYTE   VOICE   61
 BYTE   VOL   64*AttackFE3_mvl/mxv
 BYTE   PAN   c_v+14
 BYTE   N11  Gn3
 BYTE   W12
 BYTE   N05  An3  v116
 BYTE   W06
 BYTE   N11  As3  v104
 BYTE   W12
 BYTE   N05  Cn4  v108
 BYTE   W06
 BYTE   VOL   74*AttackFE3_mvl/mxv
 BYTE   N11  As3  v096
 BYTE   W01
 BYTE   VOL   73*AttackFE3_mvl/mxv
 BYTE   W02
 BYTE   VOL   72*AttackFE3_mvl/mxv
 BYTE   W03
 BYTE   VOL   72*AttackFE3_mvl/mxv
 BYTE   W02
 BYTE   VOL   71*AttackFE3_mvl/mxv
 BYTE   W02
 BYTE   VOL   70*AttackFE3_mvl/mxv
 BYTE   W02
 BYTE   N11  An3
 BYTE   W01
 BYTE   VOL   70*AttackFE3_mvl/mxv
 BYTE   W02
 BYTE   VOL   69*AttackFE3_mvl/mxv
 BYTE   W03
 BYTE   VOL   68*AttackFE3_mvl/mxv
 BYTE   W02
 BYTE   VOL   68*AttackFE3_mvl/mxv
 BYTE   W02
 BYTE   VOL   67*AttackFE3_mvl/mxv
 BYTE   W02
 BYTE   N11  Fn3
 BYTE   W01
 BYTE   VOL   66*AttackFE3_mvl/mxv
 BYTE   W02
 BYTE   VOL   66*AttackFE3_mvl/mxv
 BYTE   W03
 BYTE   VOL   65*AttackFE3_mvl/mxv
 BYTE   W02
 BYTE   VOL   64*AttackFE3_mvl/mxv
 BYTE   W02
 BYTE   VOL   64*AttackFE3_mvl/mxv
 BYTE   W02
//  #06 //003   ----------------------------------------
 BYTE   VOICE   41
 BYTE   VOL   65*AttackFE3_mvl/mxv
 BYTE   PAN   c_v-14
 BYTE   N11  Dn4
 BYTE   W12
 BYTE   N05  Cn4
 BYTE   W06
 BYTE   N11  Dn4
 BYTE   W12
 BYTE   N05  Cn4
 BYTE   W06
 BYTE   Dn4  v104
 BYTE   W06
 BYTE   Cn4
 BYTE   W06
 BYTE   Dn4  v108
 BYTE   W06
 BYTE   Cn4
 BYTE   W06
 BYTE   N11  Dn4  v096
 BYTE   W12
 BYTE   N05  Cn4
 BYTE   W06
 BYTE   N11  Dn4
 BYTE   W12
 BYTE   N05  Cn4
 BYTE   W06
//  #06 //004   ----------------------------------------
 BYTE   Dn4  v108
 BYTE   W06
 BYTE   Cn4
 BYTE   W06
 BYTE   Dn4  v112
 BYTE   W06
 BYTE   Cn4
 BYTE   W06
 BYTE   N11  Dn4  v100
 BYTE   W12
 BYTE   N05  Cn4
 BYTE   W06
 BYTE   N11  Dn4
 BYTE   W12
 BYTE   N05  Cn4
 BYTE   W06
 BYTE   Dn4  v108
 BYTE   W06
 BYTE   Cn4
 BYTE   W06
 BYTE   Dn4  v112
 BYTE   W06
 BYTE   Cn4
 BYTE   W06
 BYTE   N11  Dn4  v100
 BYTE   W12
//  #06 //005   ----------------------------------------
 BYTE   N05  Cn4
 BYTE   W06
 BYTE   N11  Dn4
 BYTE   W12
 BYTE   N05  Cn4
 BYTE   W06
 BYTE   Dn4  v108
 BYTE   W06
 BYTE   Cn4
 BYTE   W06
 BYTE   Fn4  v116
 BYTE   W06
 BYTE   Gn4
 BYTE   W06
 BYTE   N80  Ds4  v104
 BYTE   W48
//  #06 //006   ----------------------------------------
 BYTE   W36
 BYTE   N44  Ds4  v096
 BYTE   W48
 BYTE   N32  Dn4  v116
 BYTE   W12
//  #06 //007   ----------------------------------------
 BYTE   W24
 BYTE   GoTo
  POIN2 Label_01265C26
//  #06 //008   ----------------------------------------
 BYTE   VOICE   57
 BYTE   VOL   75*AttackFE3_mvl/mxv
 BYTE   PAN   c_v-14
 BYTE   N11  Gn2  v104
 BYTE   W12
 BYTE   N03  An2  v120
 BYTE   W06
 BYTE   N11  As2  v104
 BYTE   W12
 BYTE   N03  Cn3  v120
 BYTE   W06
 BYTE   N04  As2  v116
 BYTE   W12
 BYTE   Cn3  v104
 BYTE   W12
 BYTE   Dn3
 BYTE   W12
 BYTE   VOICE   61
 BYTE   VOL   64*AttackFE3_mvl/mxv
 BYTE   PAN   c_v+14
 BYTE   N11  Gn3
 BYTE   W12
 BYTE   N05  An3  v116
 BYTE   W06
 BYTE   N11  As3  v104
 BYTE   W12
//  #06 //009   ----------------------------------------
 BYTE   N05  Cn4  v108
 BYTE   W06
 BYTE   VOL   74*AttackFE3_mvl/mxv
 BYTE   N11  As3  v096
 BYTE   W01
 BYTE   VOL   73*AttackFE3_mvl/mxv
 BYTE   W03
 BYTE   VOL   72*AttackFE3_mvl/mxv
 BYTE   W02
 BYTE   VOL   72*AttackFE3_mvl/mxv
 BYTE   W02
 BYTE   VOL   71*AttackFE3_mvl/mxv
 BYTE   W03
 BYTE   VOL   70*AttackFE3_mvl/mxv
 BYTE   W01
 BYTE   N11  An3
 BYTE   W01
 BYTE   VOL   70*AttackFE3_mvl/mxv
 BYTE   W03
 BYTE   VOL   69*AttackFE3_mvl/mxv
 BYTE   W02
 BYTE   VOL   68*AttackFE3_mvl/mxv
 BYTE   W02
 BYTE   VOL   68*AttackFE3_mvl/mxv
 BYTE   W03
 BYTE   VOL   67*AttackFE3_mvl/mxv
 BYTE   W01
 BYTE   N11  Fn3
 BYTE   W01
 BYTE   VOL   66*AttackFE3_mvl/mxv
 BYTE   W03
 BYTE   VOL   66*AttackFE3_mvl/mxv
 BYTE   W02
 BYTE   VOL   65*AttackFE3_mvl/mxv
 BYTE   W02
 BYTE   VOL   64*AttackFE3_mvl/mxv
 BYTE   W03
 BYTE   VOL   64*AttackFE3_mvl/mxv
 BYTE   W01
 BYTE   VOICE   57
 BYTE   VOL   75*AttackFE3_mvl/mxv
 BYTE   PAN   c_v-14
 BYTE   N11  Gn2  v104
 BYTE   W12
 BYTE   N03  An2  v120
 BYTE   W06
 BYTE   N11  As2  v104
 BYTE   W06
 BYTE   W06
 BYTE   N03  Cn3  v120
 BYTE   W06
 BYTE   N04  As2  v116
 BYTE   W12
 BYTE   Cn3  v104
 BYTE   W12
//  #06 //010   ----------------------------------------
 BYTE   Dn3
 BYTE   W12
 BYTE   VOICE   61
 BYTE   VOL   64*AttackFE3_mvl/mxv
 BYTE   PAN   c_v+14
 BYTE   N11  Gn3
 BYTE   W12
 BYTE   N05  An3  v116
 BYTE   W06
 BYTE   N11  As3  v104
 BYTE   W12
 BYTE   N05  Cn4  v108
 BYTE   W06
 BYTE   VOL   74*AttackFE3_mvl/mxv
 BYTE   N11  As3  v096
 BYTE   W01
 BYTE   VOL   73*AttackFE3_mvl/mxv
 BYTE   W03
 BYTE   VOL   72*AttackFE3_mvl/mxv
 BYTE   W02
 BYTE   VOL   72*AttackFE3_mvl/mxv
 BYTE   W02
 BYTE   VOL   71*AttackFE3_mvl/mxv
 BYTE   W03
 BYTE   VOL   70*AttackFE3_mvl/mxv
 BYTE   W01
 BYTE   N11  An3
 BYTE   W01
 BYTE   VOL   70*AttackFE3_mvl/mxv
 BYTE   W03
 BYTE   VOL   69*AttackFE3_mvl/mxv
 BYTE   W02
 BYTE   VOL   68*AttackFE3_mvl/mxv
 BYTE   W02
 BYTE   VOL   68*AttackFE3_mvl/mxv
 BYTE   W03
 BYTE   VOL   67*AttackFE3_mvl/mxv
 BYTE   W01
 BYTE   N11  Fn3
 BYTE   W01
 BYTE   VOL   66*AttackFE3_mvl/mxv
 BYTE   W03
 BYTE   VOL   66*AttackFE3_mvl/mxv
 BYTE   W02
 BYTE   VOL   65*AttackFE3_mvl/mxv
 BYTE   W02
 BYTE   VOL   64*AttackFE3_mvl/mxv
 BYTE   W03
 BYTE   VOL   64*AttackFE3_mvl/mxv
 BYTE   W01
 BYTE   VOICE   41
 BYTE   VOL   65*AttackFE3_mvl/mxv
 BYTE   PAN   c_v-14
 BYTE   N11  Dn4
 BYTE   W12
//  #06 //011   ----------------------------------------
 BYTE   N05  Cn4
 BYTE   W06
 BYTE   N11  Dn4
 BYTE   W12
 BYTE   N05  Cn4
 BYTE   W06
 BYTE   Dn4  v104
 BYTE   W06
 BYTE   Cn4
 BYTE   W06
 BYTE   Dn4  v108
 BYTE   W06
 BYTE   Cn4
 BYTE   W06
 BYTE   N11  Dn4  v096
 BYTE   W12
 BYTE   N05  Cn4
 BYTE   W06
 BYTE   N11  Dn4
 BYTE   W12
 BYTE   N05  Cn4
 BYTE   W06
 BYTE   Dn4  v108
 BYTE   W06
 BYTE   Cn4
 BYTE   W06
//  #06 //012   ----------------------------------------
 BYTE   Dn4  v112
 BYTE   W06
 BYTE   Cn4
 BYTE   W06
 BYTE   N11  Dn4  v100
 BYTE   W12
 BYTE   N05  Cn4
 BYTE   W06
 BYTE   N11  Dn4
 BYTE   W12
 BYTE   N05  Cn4
 BYTE   W06
 BYTE   Dn4  v108
 BYTE   W06
 BYTE   Cn4
 BYTE   W06
 BYTE   Dn4  v112
 BYTE   W06
 BYTE   Cn4
 BYTE   W06
 BYTE   N11  Dn4  v100
 BYTE   W12
 BYTE   N05  Cn4
 BYTE   W06
 BYTE   N11  Dn4
 BYTE   W12
//  #06 //013   ----------------------------------------
 BYTE   N05  Cn4
 BYTE   W06
 BYTE   Dn4  v108
 BYTE   W06
 BYTE   Cn4
 BYTE   W06
 BYTE   Fn4  v116
 BYTE   W06
 BYTE   Gn4
 BYTE   W06
 BYTE   N80  Ds4  v104
 BYTE   W24
 BYTE   W60
//  #06 //014   ----------------------------------------
 BYTE   N44  Ds4  v096
 BYTE   W36
 BYTE   W12
 BYTE   N32  Dn4  v116
 BYTE   W32
 BYTE   W03
 BYTE   FINE

//******************************************************//
	ALIGN 4

AttackFE3:
	BYTE	6	// NumTrks
	BYTE	0	// NumBlks
	BYTE	AttackFE3_pri	// Priority
	BYTE	AttackFE3_rev	// Reverb.
    
	POIN2	AttackFE3_grp
    
	POIN2	AttackFE3_001
	POIN2	AttackFE3_002
	POIN2	AttackFE3_003
	POIN2	AttackFE3_004
	POIN2	AttackFE3_005
	POIN2	AttackFE3_006

	
