//Event file generated from Sappy .s format.
	

	#define	BabiLighthouse_grp  voicegroup000
	#define	BabiLighthouse_pri  10
	#define	BabiLighthouse_rev  0
	#define	BabiLighthouse_mvl  127
	#define	BabiLighthouse_key  0
	#define	BabiLighthouse_tbs  1
	#define	BabiLighthouse_exg  0
	#define	BabiLighthouse_cmp  1

	// .rodata
	//	BabiLighthouse
	ALIGN 4


//**************** Track 1 (Midi-Chn.0) ****************//

BabiLighthouse_001:
//  #01 //000   ----------------------------------------
Label_01008D3C:
 BYTE   TEMPO   112*BabiLighthouse_tbs/2
 BYTE   KEYSH   BabiLighthouse_key+0
 BYTE   VOICE   33
 BYTE   VOL   46*BabiLighthouse_mvl/mxv
 BYTE   PAN   c_v+0
 BYTE   N23  Fs1  v127
 BYTE   W24
 BYTE   N11
 BYTE   W12
 BYTE   N23
 BYTE   W24
 BYTE   N11
 BYTE   W12
 BYTE   N23
 BYTE   W24
//  #01 //001   ----------------------------------------
 BYTE   N11
 BYTE   W12
 BYTE   N23
 BYTE   W24
 BYTE   N11
 BYTE   W12
 BYTE   N23  An1
 BYTE   W24
 BYTE   N11
 BYTE   W12
 BYTE   N23
 BYTE   W24
//  #01 //002   ----------------------------------------
 BYTE   N11
 BYTE   W12
 BYTE   N23
 BYTE   W24
 BYTE   N11
 BYTE   W12
 BYTE   N23
 BYTE   W24
 BYTE   N11
 BYTE   W12
 BYTE   N23  En1
 BYTE   W24
//  #01 //003   ----------------------------------------
 BYTE   N11
 BYTE   W12
 BYTE   N23
 BYTE   W24
 BYTE   N11
 BYTE   W12
 BYTE   N23
 BYTE   W24
 BYTE   N11
 BYTE   W12
 BYTE   N23
 BYTE   W24
//  #01 //004   ----------------------------------------
 BYTE   N11
 BYTE   W12
 BYTE   N23  Gn1
 BYTE   W24
 BYTE   N11
 BYTE   W12
 BYTE   N23
 BYTE   W24
 BYTE   N11
 BYTE   W12
 BYTE   N23
 BYTE   W24
//  #01 //005   ----------------------------------------
 BYTE   N11
 BYTE   W12
 BYTE   Gn1
 BYTE   W12
 BYTE   Gn1
 BYTE   W12
 BYTE   Gn1
 BYTE   W12
 BYTE   N23  Dn1
 BYTE   W24
 BYTE   N11
 BYTE   W12
 BYTE   N23
 BYTE   W24
//  #01 //006   ----------------------------------------
 BYTE   N11
 BYTE   W12
 BYTE   N23
 BYTE   W24
 BYTE   N11
 BYTE   W12
 BYTE   N23
 BYTE   W24
 BYTE   N11
 BYTE   W12
 BYTE   N23  Fn1
 BYTE   W24
//  #01 //007   ----------------------------------------
Label_01008DA1:
 BYTE   N11  Fn1  v127
 BYTE   W12
 BYTE   N23
 BYTE   W24
 BYTE   N11
 BYTE   W12
 BYTE   N23
 BYTE   W24
 BYTE   N11
 BYTE   W12
 BYTE   N23
 BYTE   W24
 BYTE   PEND 
//  #01 //008   ----------------------------------------
Label_01008DB0:
 BYTE   N11  Fn1  v127
 BYTE   W12
 BYTE   N23  An1
 BYTE   W24
 BYTE   N11
 BYTE   W12
 BYTE   N23
 BYTE   W24
 BYTE   N11
 BYTE   W12
 BYTE   N23  Gn1
 BYTE   W24
 BYTE   PEND 
//  #01 //009   ----------------------------------------
Label_01008DC1:
 BYTE   N11  Gn1  v127
 BYTE   W12
 BYTE   N23
 BYTE   W24
 BYTE   N11
 BYTE   W12
 BYTE   N23  Fn1
 BYTE   W24
 BYTE   N11
 BYTE   W12
 BYTE   N23
 BYTE   W24
 BYTE   PEND 
//  #01 //010   ----------------------------------------
Label_01008DD1:
 BYTE   N11  Fn1  v127
 BYTE   W12
 BYTE   N23
 BYTE   W24
 BYTE   N11
 BYTE   W12
 BYTE   N23
 BYTE   W24
 BYTE   N11
 BYTE   W12
 BYTE   An1
 BYTE   W12
 BYTE   PEND 
//  #01 //011   ----------------------------------------
Label_01008DE0:
 BYTE   N05  An1  v127
 BYTE   W06
 BYTE   N11
 BYTE   W12
 BYTE   N05
 BYTE   W06
 BYTE   N11
 BYTE   W12
 BYTE   An1
 BYTE   W12
 BYTE   An1
 BYTE   W12
 BYTE   An1
 BYTE   W12
 BYTE   N05
 BYTE   W06
 BYTE   N11
 BYTE   W12
 BYTE   N05
 BYTE   W06
 BYTE   PEND 
//  #01 //012   ----------------------------------------
Label_01008DF7:
 BYTE   N11  An1  v127
 BYTE   W12
 BYTE   An1
 BYTE   W12
 BYTE   An1
 BYTE   W12
 BYTE   An1
 BYTE   W12
 BYTE   N05
 BYTE   W06
 BYTE   N11
 BYTE   W12
 BYTE   N05
 BYTE   W06
 BYTE   N11
 BYTE   W12
 BYTE   An1
 BYTE   W12
 BYTE   PEND 
//  #01 //013   ----------------------------------------
Label_01008E0C:
 BYTE   N11  An1  v127
 BYTE   W12
 BYTE   An1
 BYTE   W12
 BYTE   N05
 BYTE   W06
 BYTE   N11
 BYTE   W12
 BYTE   N05
 BYTE   W06
 BYTE   N11  En1
 BYTE   W12
 BYTE   En1
 BYTE   W12
 BYTE   En1
 BYTE   W12
 BYTE   An1
 BYTE   W12
 BYTE   PEND 
//  #01 //014   ----------------------------------------
 BYTE   PATT
  POIN2 Label_01008DE0
//  #01 //015   ----------------------------------------
 BYTE   PATT
  POIN2 Label_01008DF7
//  #01 //016   ----------------------------------------
Label_01008E2C:
 BYTE   N11  An1  v127
 BYTE   W12
 BYTE   An1
 BYTE   W12
 BYTE   N05
 BYTE   W06
 BYTE   N11
 BYTE   W12
 BYTE   N05
 BYTE   W06
 BYTE   N11  En1
 BYTE   W12
 BYTE   En1
 BYTE   W12
 BYTE   En1
 BYTE   W12
 BYTE   Fs1
 BYTE   W12
 BYTE   PEND 
//  #01 //017   ----------------------------------------
Label_01008E42:
 BYTE   N05  Fs1  v127
 BYTE   W06
 BYTE   N11
 BYTE   W12
 BYTE   N05
 BYTE   W06
 BYTE   N11
 BYTE   W12
 BYTE   Fs1
 BYTE   W12
 BYTE   Fs1
 BYTE   W12
 BYTE   Fs1
 BYTE   W12
 BYTE   N05
 BYTE   W06
 BYTE   N11
 BYTE   W12
 BYTE   N05
 BYTE   W06
 BYTE   PEND 
//  #01 //018   ----------------------------------------
Label_01008E59:
 BYTE   N11  Fs1  v127
 BYTE   W12
 BYTE   Fs1
 BYTE   W12
 BYTE   Fs1
 BYTE   W12
 BYTE   An1
 BYTE   W12
 BYTE   N05
 BYTE   W06
 BYTE   N11
 BYTE   W12
 BYTE   N05
 BYTE   W06
 BYTE   N11
 BYTE   W12
 BYTE   An1
 BYTE   W12
 BYTE   PEND 
//  #01 //019   ----------------------------------------
Label_01008E6E:
 BYTE   N11  An1  v127
 BYTE   W12
 BYTE   An1
 BYTE   W12
 BYTE   N05
 BYTE   W06
 BYTE   N11
 BYTE   W12
 BYTE   N05
 BYTE   W06
 BYTE   N11
 BYTE   W12
 BYTE   An1
 BYTE   W12
 BYTE   An1
 BYTE   W12
 BYTE   En1
 BYTE   W12
 BYTE   PEND 
//  #01 //020   ----------------------------------------
Label_01008E83:
 BYTE   N05  En1  v127
 BYTE   W06
 BYTE   N11
 BYTE   W12
 BYTE   N05
 BYTE   W06
 BYTE   N11
 BYTE   W12
 BYTE   En1
 BYTE   W12
 BYTE   En1
 BYTE   W12
 BYTE   En1
 BYTE   W12
 BYTE   N05
 BYTE   W06
 BYTE   N11
 BYTE   W12
 BYTE   N05
 BYTE   W06
 BYTE   PEND 
//  #01 //021   ----------------------------------------
Label_01008E9A:
 BYTE   N11  En1  v127
 BYTE   W12
 BYTE   En1
 BYTE   W12
 BYTE   En1
 BYTE   W12
 BYTE   Gn1
 BYTE   W12
 BYTE   N05
 BYTE   W06
 BYTE   N11
 BYTE   W12
 BYTE   N05
 BYTE   W06
 BYTE   N11
 BYTE   W12
 BYTE   Gn1
 BYTE   W12
 BYTE   PEND 
//  #01 //022   ----------------------------------------
Label_01008EAF:
 BYTE   N11  Gn1  v127
 BYTE   W12
 BYTE   Gn1
 BYTE   W12
 BYTE   N05
 BYTE   W06
 BYTE   N11
 BYTE   W12
 BYTE   N05
 BYTE   W06
 BYTE   N11
 BYTE   W12
 BYTE   Gn1
 BYTE   W12
 BYTE   Gn1
 BYTE   W12
 BYTE   Dn1
 BYTE   W12
 BYTE   PEND 
//  #01 //023   ----------------------------------------
Label_01008EC4:
 BYTE   N05  Dn1  v127
 BYTE   W06
 BYTE   N11
 BYTE   W12
 BYTE   N05
 BYTE   W06
 BYTE   N11
 BYTE   W12
 BYTE   Dn1
 BYTE   W12
 BYTE   Dn1
 BYTE   W12
 BYTE   Dn1
 BYTE   W12
 BYTE   N05
 BYTE   W06
 BYTE   N11
 BYTE   W12
 BYTE   N05
 BYTE   W06
 BYTE   PEND 
//  #01 //024   ----------------------------------------
Label_01008EDB:
 BYTE   N11  Dn1  v127
 BYTE   W12
 BYTE   Dn1
 BYTE   W12
 BYTE   Dn1
 BYTE   W12
 BYTE   Fn1
 BYTE   W12
 BYTE   N05
 BYTE   W06
 BYTE   N11
 BYTE   W12
 BYTE   N05
 BYTE   W06
 BYTE   N11
 BYTE   W12
 BYTE   Fn1
 BYTE   W12
 BYTE   PEND 
//  #01 //025   ----------------------------------------
Label_01008EF0:
 BYTE   N11  Fn1  v127
 BYTE   W12
 BYTE   Fn1
 BYTE   W12
 BYTE   N05
 BYTE   W06
 BYTE   N11
 BYTE   W12
 BYTE   N05
 BYTE   W06
 BYTE   N11
 BYTE   W12
 BYTE   Fn1
 BYTE   W12
 BYTE   Fn1
 BYTE   W12
 BYTE   An1
 BYTE   W12
 BYTE   PEND 
//  #01 //026   ----------------------------------------
Label_01008F05:
 BYTE   N05  An1  v127
 BYTE   W06
 BYTE   N11
 BYTE   W12
 BYTE   N05
 BYTE   W06
 BYTE   N11
 BYTE   W12
 BYTE   An1
 BYTE   W12
 BYTE   An1
 BYTE   W12
 BYTE   Gn1
 BYTE   W12
 BYTE   N05
 BYTE   W06
 BYTE   N11
 BYTE   W12
 BYTE   N05
 BYTE   W06
 BYTE   PEND 
//  #01 //027   ----------------------------------------
Label_01008F1C:
 BYTE   N11  Gn1  v127
 BYTE   W12
 BYTE   Gn1
 BYTE   W12
 BYTE   Gn1
 BYTE   W12
 BYTE   Fn1
 BYTE   W12
 BYTE   N05
 BYTE   W06
 BYTE   N11
 BYTE   W12
 BYTE   N05
 BYTE   W06
 BYTE   N11
 BYTE   W12
 BYTE   Fn1
 BYTE   W12
 BYTE   PEND 
//  #01 //028   ----------------------------------------
 BYTE   PATT
  POIN2 Label_01008EF0
//  #01 //029   ----------------------------------------
Label_01008F36:
 BYTE   N11  Gs1  v127
 BYTE   W12
 BYTE   An1
 BYTE   W12
 BYTE   Bn1
 BYTE   W12
 BYTE   Cn2
 BYTE   W12
 BYTE   Dn2
 BYTE   W12
 BYTE   N07  Fs1
 BYTE   W12
 BYTE   Fs1
 BYTE   W12
 BYTE   Fs1
 BYTE   W12
 BYTE   PEND 
//  #01 //030   ----------------------------------------
Label_01008F4A:
 BYTE   N07  Fs1  v127
 BYTE   W12
 BYTE   Fs1
 BYTE   W12
 BYTE   Fs1
 BYTE   W12
 BYTE   Fs1
 BYTE   W12
 BYTE   Fs1
 BYTE   W12
 BYTE   Fs1
 BYTE   W12
 BYTE   Fs1
 BYTE   W12
 BYTE   Fs1
 BYTE   W12
 BYTE   PEND 
//  #01 //031   ----------------------------------------
 BYTE   PATT
  POIN2 Label_01008F4A
//  #01 //032   ----------------------------------------
 BYTE   PATT
  POIN2 Label_01008F4A
//  #01 //033   ----------------------------------------
 BYTE   PATT
  POIN2 Label_01008F4A
//  #01 //034   ----------------------------------------
 BYTE   PATT
  POIN2 Label_01008F4A
//  #01 //035   ----------------------------------------
 BYTE   N07  Fs1  v127
 BYTE   W12
 BYTE   Fs1
 BYTE   W12
 BYTE   Fs1
 BYTE   W12
 BYTE   Fs1
 BYTE   W12
 BYTE   Fs1
 BYTE   W12
 BYTE   N23
 BYTE   W24
 BYTE   N11
 BYTE   W12
//  #01 //036   ----------------------------------------
 BYTE   N23
 BYTE   W24
 BYTE   N11
 BYTE   W12
 BYTE   N23
 BYTE   W24
 BYTE   N11
 BYTE   W12
 BYTE   N23
 BYTE   W24
//  #01 //037   ----------------------------------------
 BYTE   N11
 BYTE   W12
 BYTE   N23  An1
 BYTE   W24
 BYTE   N11
 BYTE   W12
 BYTE   N23
 BYTE   W24
 BYTE   N11
 BYTE   W12
 BYTE   N23
 BYTE   W24
//  #01 //038   ----------------------------------------
 BYTE   N11
 BYTE   W12
 BYTE   N23
 BYTE   W24
 BYTE   N11
 BYTE   W12
 BYTE   N23  En1
 BYTE   W24
 BYTE   N11
 BYTE   W12
 BYTE   N23
 BYTE   W24
//  #01 //039   ----------------------------------------
 BYTE   N11
 BYTE   W12
 BYTE   N23
 BYTE   W24
 BYTE   N11
 BYTE   W12
 BYTE   N23
 BYTE   W24
 BYTE   N11
 BYTE   W12
 BYTE   N23  Gn1
 BYTE   W24
//  #01 //040   ----------------------------------------
 BYTE   N11
 BYTE   W12
 BYTE   N23
 BYTE   W24
 BYTE   N11
 BYTE   W12
 BYTE   N23
 BYTE   W24
 BYTE   N11
 BYTE   W12
 BYTE   Gn1
 BYTE   W12
//  #01 //041   ----------------------------------------
 BYTE   Gn1
 BYTE   W12
 BYTE   Gn1
 BYTE   W12
 BYTE   N23  Dn1
 BYTE   W24
 BYTE   N11
 BYTE   W12
 BYTE   N23
 BYTE   W24
 BYTE   N11
 BYTE   W12
//  #01 //042   ----------------------------------------
 BYTE   N23
 BYTE   W24
 BYTE   N11
 BYTE   W12
 BYTE   N23
 BYTE   W24
 BYTE   N11
 BYTE   W12
 BYTE   N23  Fn1
 BYTE   W24
//  #01 //043   ----------------------------------------
 BYTE   PATT
  POIN2 Label_01008DA1
//  #01 //044   ----------------------------------------
 BYTE   PATT
  POIN2 Label_01008DB0
//  #01 //045   ----------------------------------------
 BYTE   PATT
  POIN2 Label_01008DC1
//  #01 //046   ----------------------------------------
 BYTE   PATT
  POIN2 Label_01008DD1
//  #01 //047   ----------------------------------------
 BYTE   PATT
  POIN2 Label_01008DE0
//  #01 //048   ----------------------------------------
 BYTE   PATT
  POIN2 Label_01008DF7
//  #01 //049   ----------------------------------------
 BYTE   PATT
  POIN2 Label_01008E0C
//  #01 //050   ----------------------------------------
 BYTE   PATT
  POIN2 Label_01008DE0
//  #01 //051   ----------------------------------------
 BYTE   PATT
  POIN2 Label_01008DF7
//  #01 //052   ----------------------------------------
 BYTE   PATT
  POIN2 Label_01008E2C
//  #01 //053   ----------------------------------------
 BYTE   PATT
  POIN2 Label_01008E42
//  #01 //054   ----------------------------------------
 BYTE   PATT
  POIN2 Label_01008E59
//  #01 //055   ----------------------------------------
 BYTE   PATT
  POIN2 Label_01008E6E
//  #01 //056   ----------------------------------------
 BYTE   PATT
  POIN2 Label_01008E83
//  #01 //057   ----------------------------------------
 BYTE   PATT
  POIN2 Label_01008E9A
//  #01 //058   ----------------------------------------
 BYTE   PATT
  POIN2 Label_01008EAF
//  #01 //059   ----------------------------------------
 BYTE   PATT
  POIN2 Label_01008EC4
//  #01 //060   ----------------------------------------
 BYTE   PATT
  POIN2 Label_01008EDB
//  #01 //061   ----------------------------------------
 BYTE   PATT
  POIN2 Label_01008EF0
//  #01 //062   ----------------------------------------
 BYTE   PATT
  POIN2 Label_01008F05
//  #01 //063   ----------------------------------------
 BYTE   PATT
  POIN2 Label_01008F1C
//  #01 //064   ----------------------------------------
 BYTE   PATT
  POIN2 Label_01008EF0
//  #01 //065   ----------------------------------------
 BYTE   PATT
  POIN2 Label_01008F36
//  #01 //066   ----------------------------------------
 BYTE   PATT
  POIN2 Label_01008F4A
//  #01 //067   ----------------------------------------
 BYTE   PATT
  POIN2 Label_01008F4A
//  #01 //068   ----------------------------------------
 BYTE   PATT
  POIN2 Label_01008F4A
//  #01 //069   ----------------------------------------
 BYTE   PATT
  POIN2 Label_01008F4A
//  #01 //070   ----------------------------------------
 BYTE   PATT
  POIN2 Label_01008F4A
//  #01 //071   ----------------------------------------
 BYTE   N07  Fs1  v127
 BYTE   W12
 BYTE   Fs1
 BYTE   W12
 BYTE   Fs1
 BYTE   W12
 BYTE   Fs1
 BYTE   W12
 BYTE   Fs1
 BYTE   W17
 BYTE   GoTo
  POIN2 Label_01008D3C
 BYTE   FINE

//**************** Track 2 (Midi-Chn.1) ****************//

BabiLighthouse_002:
//  #02 //000   ----------------------------------------
Label_010085B8:
 BYTE   TEMPO   112*BabiLighthouse_tbs/2
 BYTE   KEYSH   BabiLighthouse_key+0
 BYTE   VOICE   73
 BYTE   VOL   26*BabiLighthouse_mvl/mxv
 BYTE   PAN   c_v-9
 BYTE   N05  Fs2  v127
 BYTE   W12
 BYTE   Gs2
 BYTE   W12
 BYTE   An2
 BYTE   W12
 BYTE   Fs2
 BYTE   W12
 BYTE   Gs2
 BYTE   W12
 BYTE   An2
 BYTE   W12
 BYTE   Fs2
 BYTE   W12
 BYTE   Gs2
 BYTE   W12
//  #02 //001   ----------------------------------------
Label_010085D4:
 BYTE   N05  An2  v127
 BYTE   W12
 BYTE   Fs2
 BYTE   W12
 BYTE   Gs2
 BYTE   W12
 BYTE   An2
 BYTE   W12
 BYTE   An2
 BYTE   W12
 BYTE   Bn2
 BYTE   W12
 BYTE   Cn3
 BYTE   W12
 BYTE   An2
 BYTE   W12
 BYTE   PEND 
//  #02 //002   ----------------------------------------
Label_010085E7:
 BYTE   N05  Bn2  v127
 BYTE   W12
 BYTE   Cn3
 BYTE   W12
 BYTE   An2
 BYTE   W12
 BYTE   Bn2
 BYTE   W12
 BYTE   Cn3
 BYTE   W12
 BYTE   An2
 BYTE   W12
 BYTE   Bn2
 BYTE   W12
 BYTE   Cn3
 BYTE   W12
 BYTE   PEND 
//  #02 //003   ----------------------------------------
Label_010085FA:
 BYTE   N05  En2  v127
 BYTE   W12
 BYTE   Fs2
 BYTE   W12
 BYTE   Gn2
 BYTE   W12
 BYTE   En2
 BYTE   W12
 BYTE   Fs2
 BYTE   W12
 BYTE   Gn2
 BYTE   W12
 BYTE   En2
 BYTE   W12
 BYTE   Fs2
 BYTE   W12
 BYTE   PEND 
//  #02 //004   ----------------------------------------
Label_0100860D:
 BYTE   N05  Gn2  v127
 BYTE   W12
 BYTE   En2
 BYTE   W12
 BYTE   Fs2
 BYTE   W12
 BYTE   Gn2
 BYTE   W12
 BYTE   Gn2
 BYTE   W12
 BYTE   An2
 BYTE   W12
 BYTE   As2
 BYTE   W12
 BYTE   Gn2
 BYTE   W12
 BYTE   PEND 
//  #02 //005   ----------------------------------------
Label_01008620:
 BYTE   N05  An2  v127
 BYTE   W12
 BYTE   As2
 BYTE   W12
 BYTE   Gn2
 BYTE   W12
 BYTE   An2
 BYTE   W12
 BYTE   As2
 BYTE   W12
 BYTE   Gn2
 BYTE   W12
 BYTE   An2
 BYTE   W12
 BYTE   As2
 BYTE   W12
 BYTE   PEND 
//  #02 //006   ----------------------------------------
Label_01008633:
 BYTE   N05  Dn2  v127
 BYTE   W12
 BYTE   En2
 BYTE   W12
 BYTE   Fn2
 BYTE   W12
 BYTE   Dn2
 BYTE   W12
 BYTE   En2
 BYTE   W12
 BYTE   Fn2
 BYTE   W12
 BYTE   Dn2
 BYTE   W12
 BYTE   En2
 BYTE   W12
 BYTE   PEND 
//  #02 //007   ----------------------------------------
Label_01008646:
 BYTE   N05  Fn2  v127
 BYTE   W12
 BYTE   Dn2
 BYTE   W12
 BYTE   En2
 BYTE   W12
 BYTE   Fn2
 BYTE   W12
 BYTE   Fn2
 BYTE   W12
 BYTE   Gn2
 BYTE   W12
 BYTE   Gs2
 BYTE   W12
 BYTE   Fn2
 BYTE   W12
 BYTE   PEND 
//  #02 //008   ----------------------------------------
Label_01008659:
 BYTE   N05  Gn2  v127
 BYTE   W12
 BYTE   Gs2
 BYTE   W12
 BYTE   Fn2
 BYTE   W12
 BYTE   Gn2
 BYTE   W12
 BYTE   Gs2
 BYTE   W12
 BYTE   Gs2
 BYTE   W12
 BYTE   Gn2
 BYTE   W12
 BYTE   Fn2
 BYTE   W12
 BYTE   PEND 
//  #02 //009   ----------------------------------------
Label_0100866C:
 BYTE   N05  An2  v127
 BYTE   W12
 BYTE   Bn2
 BYTE   W12
 BYTE   Cn3
 BYTE   W12
 BYTE   An2
 BYTE   W12
 BYTE   Bn2
 BYTE   W12
 BYTE   Cn3
 BYTE   W12
 BYTE   Gn2
 BYTE   W12
 BYTE   An2
 BYTE   W12
 BYTE   PEND 
//  #02 //010   ----------------------------------------
Label_0100867F:
 BYTE   N05  As2  v127
 BYTE   W12
 BYTE   Gn2
 BYTE   W12
 BYTE   An2
 BYTE   W12
 BYTE   As2
 BYTE   W12
 BYTE   Fn2
 BYTE   W12
 BYTE   Gn2
 BYTE   W12
 BYTE   Gs2
 BYTE   W12
 BYTE   Fn2
 BYTE   W12
 BYTE   PEND 
//  #02 //011   ----------------------------------------
Label_01008692:
 BYTE   N05  Gn2  v127
 BYTE   W12
 BYTE   Gs2
 BYTE   W12
 BYTE   Fn2
 BYTE   W12
 BYTE   Gn2
 BYTE   W12
 BYTE   Gs2
 BYTE   W12
 BYTE   Fn2
 BYTE   W12
 BYTE   Gn2
 BYTE   W12
 BYTE   Gs2
 BYTE   W12
 BYTE   PEND 
//  #02 //012   ----------------------------------------
Label_010086A5:
 BYTE   N05  An3  v127
 BYTE   W12
 BYTE   Cn4
 BYTE   W12
 BYTE   Dn4
 BYTE   W12
 BYTE   Bn3
 BYTE   W12
 BYTE   Cn4
 BYTE   W12
 BYTE   Gs3
 BYTE   W12
 BYTE   An3
 BYTE   W12
 BYTE   Cn4
 BYTE   W12
 BYTE   PEND 
//  #02 //013   ----------------------------------------
Label_010086B8:
 BYTE   N05  Dn4  v127
 BYTE   W12
 BYTE   Bn3
 BYTE   W12
 BYTE   Cn4
 BYTE   W12
 BYTE   Gs3
 BYTE   W12
 BYTE   An3
 BYTE   W12
 BYTE   Cn4
 BYTE   W12
 BYTE   Dn4
 BYTE   W12
 BYTE   Bn3
 BYTE   W12
 BYTE   PEND 
//  #02 //014   ----------------------------------------
Label_010086CB:
 BYTE   N05  Cn4  v127
 BYTE   W12
 BYTE   Gs3
 BYTE   W12
 BYTE   An3
 BYTE   W12
 BYTE   Cn4
 BYTE   W12
 BYTE   Dn4
 BYTE   W12
 BYTE   Bn3
 BYTE   W12
 BYTE   Cn4
 BYTE   W12
 BYTE   Gs3
 BYTE   W12
 BYTE   PEND 
//  #02 //015   ----------------------------------------
 BYTE   PATT
  POIN2 Label_010086A5
//  #02 //016   ----------------------------------------
 BYTE   PATT
  POIN2 Label_010086B8
//  #02 //017   ----------------------------------------
 BYTE   N05  Cn4  v127
 BYTE   W12
 BYTE   Gs3
 BYTE   W12
 BYTE   An3
 BYTE   W12
 BYTE   Cn4
 BYTE   W12
 BYTE   Dn4
 BYTE   W12
 BYTE   Bn3
 BYTE   W12
 BYTE   Cn4
 BYTE   W12
 BYTE   Gs3
 BYTE   W96
//  #02 //018   ----------------------------------------
 BYTE   W96
//  #02 //019   ----------------------------------------
 BYTE   W96
//  #02 //020   ----------------------------------------
 BYTE   W96
//  #02 //021   ----------------------------------------
 BYTE   W96
//  #02 //022   ----------------------------------------
 BYTE   W96
//  #02 //023   ----------------------------------------
 BYTE   W96
//  #02 //024   ----------------------------------------
 BYTE   W96
//  #02 //025   ----------------------------------------
 BYTE   W96
//  #02 //026   ----------------------------------------
 BYTE   W96
//  #02 //027   ----------------------------------------
 BYTE   W96
//  #02 //028   ----------------------------------------
 BYTE   W96
//  #02 //029   ----------------------------------------
 BYTE   W96
//  #02 //030   ----------------------------------------
 BYTE   W96
//  #02 //031   ----------------------------------------
 BYTE   W96
//  #02 //032   ----------------------------------------
 BYTE   W96
//  #02 //033   ----------------------------------------
 BYTE   W96
//  #02 //034   ----------------------------------------
 BYTE   W96
//  #02 //035   ----------------------------------------
 BYTE   W84
 BYTE   Fs2
 BYTE   W12
//  #02 //036   ----------------------------------------
 BYTE   Gs2
 BYTE   W12
 BYTE   An2
 BYTE   W12
 BYTE   Fs2
 BYTE   W12
 BYTE   Gs2
 BYTE   W12
 BYTE   An2
 BYTE   W12
 BYTE   Fs2
 BYTE   W12
 BYTE   Gs2
 BYTE   W12
//  #02 //037   ----------------------------------------
 BYTE   PATT
  POIN2 Label_010085D4
//  #02 //038   ----------------------------------------
 BYTE   PATT
  POIN2 Label_010085E7
//  #02 //039   ----------------------------------------
 BYTE   PATT
  POIN2 Label_010085FA
//  #02 //040   ----------------------------------------
 BYTE   PATT
  POIN2 Label_0100860D
//  #02 //041   ----------------------------------------
 BYTE   PATT
  POIN2 Label_01008620
//  #02 //042   ----------------------------------------
 BYTE   PATT
  POIN2 Label_01008633
//  #02 //043   ----------------------------------------
 BYTE   PATT
  POIN2 Label_01008646
//  #02 //044   ----------------------------------------
 BYTE   PATT
  POIN2 Label_01008659
//  #02 //045   ----------------------------------------
 BYTE   PATT
  POIN2 Label_0100866C
//  #02 //046   ----------------------------------------
 BYTE   PATT
  POIN2 Label_0100867F
//  #02 //047   ----------------------------------------
 BYTE   PATT
  POIN2 Label_01008692
//  #02 //048   ----------------------------------------
 BYTE   PATT
  POIN2 Label_010086A5
//  #02 //049   ----------------------------------------
 BYTE   PATT
  POIN2 Label_010086B8
//  #02 //050   ----------------------------------------
 BYTE   PATT
  POIN2 Label_010086CB
//  #02 //051   ----------------------------------------
 BYTE   PATT
  POIN2 Label_010086A5
//  #02 //052   ----------------------------------------
 BYTE   PATT
  POIN2 Label_010086B8
//  #02 //053   ----------------------------------------
 BYTE   N05  Cn4  v127
 BYTE   W12
 BYTE   Gs3
 BYTE   W12
 BYTE   An3
 BYTE   W12
 BYTE   Cn4
 BYTE   W12
 BYTE   Dn4
 BYTE   W12
 BYTE   Bn3
 BYTE   W12
 BYTE   Cn4
 BYTE   W12
 BYTE   Gs3
 BYTE   W96
//  #02 //054   ----------------------------------------
 BYTE   W96
//  #02 //055   ----------------------------------------
 BYTE   W96
//  #02 //056   ----------------------------------------
 BYTE   W96
//  #02 //057   ----------------------------------------
 BYTE   W96
//  #02 //058   ----------------------------------------
 BYTE   W96
//  #02 //059   ----------------------------------------
 BYTE   W96
//  #02 //060   ----------------------------------------
 BYTE   W96
//  #02 //061   ----------------------------------------
 BYTE   W96
//  #02 //062   ----------------------------------------
 BYTE   W96
//  #02 //063   ----------------------------------------
 BYTE   W96
//  #02 //064   ----------------------------------------
 BYTE   W96
//  #02 //065   ----------------------------------------
 BYTE   W96
//  #02 //066   ----------------------------------------
 BYTE   W96
//  #02 //067   ----------------------------------------
 BYTE   W96
//  #02 //068   ----------------------------------------
 BYTE   W96
//  #02 //069   ----------------------------------------
 BYTE   W96
//  #02 //070   ----------------------------------------
 BYTE   W96
//  #02 //071   ----------------------------------------
 BYTE   W88
 BYTE   W01
 BYTE   GoTo
  POIN2 Label_010085B8
 BYTE   FINE

//**************** Track 3 (Midi-Chn.2) ****************//

BabiLighthouse_003:
//  #03 //000   ----------------------------------------
Label_01009144:
 BYTE   TEMPO   112*BabiLighthouse_tbs/2
 BYTE   KEYSH   BabiLighthouse_key+0
 BYTE   VOICE   8
 BYTE   VOL   46*BabiLighthouse_mvl/mxv
 BYTE   PAN   c_v-9
 BYTE   W96
//  #03 //001   ----------------------------------------
 BYTE   W96
//  #03 //002   ----------------------------------------
 BYTE   W96
//  #03 //003   ----------------------------------------
 BYTE   W96
//  #03 //004   ----------------------------------------
 BYTE   W96
//  #03 //005   ----------------------------------------
 BYTE   W96
//  #03 //006   ----------------------------------------
 BYTE   W96
//  #03 //007   ----------------------------------------
 BYTE   W96
//  #03 //008   ----------------------------------------
 BYTE   W96
//  #03 //009   ----------------------------------------
 BYTE   W96
//  #03 //010   ----------------------------------------
 BYTE   W96
//  #03 //011   ----------------------------------------
 BYTE   W96
//  #03 //012   ----------------------------------------
 BYTE   W96
//  #03 //013   ----------------------------------------
 BYTE   W96
//  #03 //014   ----------------------------------------
 BYTE   W96
//  #03 //015   ----------------------------------------
 BYTE   W96
//  #03 //016   ----------------------------------------
 BYTE   W96
//  #03 //017   ----------------------------------------
 BYTE   W96
//  #03 //018   ----------------------------------------
Label_01009160:
 BYTE   N05  Fs2  v127
 BYTE   W12
 BYTE   Gs2
 BYTE   W12
 BYTE   An2
 BYTE   W12
 BYTE   Fs2
 BYTE   W12
 BYTE   Gs2
 BYTE   W12
 BYTE   An2
 BYTE   W12
 BYTE   Fs2
 BYTE   W12
 BYTE   Gs2
 BYTE   W12
 BYTE   PEND 
//  #03 //019   ----------------------------------------
Label_01009173:
 BYTE   N05  An2  v127
 BYTE   W12
 BYTE   Fs2
 BYTE   W12
 BYTE   Gs2
 BYTE   W12
 BYTE   An2
 BYTE   W12
 BYTE   An2
 BYTE   W12
 BYTE   Bn2
 BYTE   W12
 BYTE   Cn3
 BYTE   W12
 BYTE   An2
 BYTE   W12
 BYTE   PEND 
//  #03 //020   ----------------------------------------
Label_01009186:
 BYTE   N05  Bn2  v127
 BYTE   W12
 BYTE   Cn3
 BYTE   W12
 BYTE   An2
 BYTE   W12
 BYTE   Bn2
 BYTE   W12
 BYTE   Cn3
 BYTE   W12
 BYTE   An2
 BYTE   W12
 BYTE   Bn2
 BYTE   W12
 BYTE   Cn3
 BYTE   W12
 BYTE   PEND 
//  #03 //021   ----------------------------------------
Label_01009199:
 BYTE   N05  En2  v127
 BYTE   W12
 BYTE   Fs2
 BYTE   W12
 BYTE   Gn2
 BYTE   W12
 BYTE   En2
 BYTE   W12
 BYTE   Fs2
 BYTE   W12
 BYTE   Gn2
 BYTE   W12
 BYTE   En2
 BYTE   W12
 BYTE   Fs2
 BYTE   W12
 BYTE   PEND 
//  #03 //022   ----------------------------------------
Label_010091AC:
 BYTE   N05  Gn2  v127
 BYTE   W12
 BYTE   En2
 BYTE   W12
 BYTE   Fs2
 BYTE   W12
 BYTE   Gn2
 BYTE   W12
 BYTE   Gn2
 BYTE   W12
 BYTE   An2
 BYTE   W12
 BYTE   As2
 BYTE   W12
 BYTE   Gn2
 BYTE   W12
 BYTE   PEND 
//  #03 //023   ----------------------------------------
Label_010091BF:
 BYTE   N05  An2  v127
 BYTE   W12
 BYTE   As2
 BYTE   W12
 BYTE   Gn2
 BYTE   W12
 BYTE   An2
 BYTE   W12
 BYTE   As2
 BYTE   W12
 BYTE   Gn2
 BYTE   W12
 BYTE   An2
 BYTE   W12
 BYTE   As2
 BYTE   W12
 BYTE   PEND 
//  #03 //024   ----------------------------------------
Label_010091D2:
 BYTE   N05  Dn2  v127
 BYTE   W12
 BYTE   En2
 BYTE   W12
 BYTE   Fn2
 BYTE   W12
 BYTE   Dn2
 BYTE   W12
 BYTE   En2
 BYTE   W12
 BYTE   Fn2
 BYTE   W12
 BYTE   Dn2
 BYTE   W12
 BYTE   En2
 BYTE   W12
 BYTE   PEND 
//  #03 //025   ----------------------------------------
Label_010091E5:
 BYTE   N05  Fn2  v127
 BYTE   W12
 BYTE   Dn2
 BYTE   W12
 BYTE   En2
 BYTE   W12
 BYTE   Fn2
 BYTE   W12
 BYTE   Fn2
 BYTE   W12
 BYTE   Gn2
 BYTE   W12
 BYTE   Gs2
 BYTE   W12
 BYTE   Fn2
 BYTE   W12
 BYTE   PEND 
//  #03 //026   ----------------------------------------
Label_010091F8:
 BYTE   N05  Gn2  v127
 BYTE   W12
 BYTE   Gs2
 BYTE   W12
 BYTE   Fn2
 BYTE   W12
 BYTE   Gn2
 BYTE   W12
 BYTE   Gs2
 BYTE   W12
 BYTE   Gs2
 BYTE   W12
 BYTE   Gn2
 BYTE   W12
 BYTE   Fn2
 BYTE   W12
 BYTE   PEND 
//  #03 //027   ----------------------------------------
Label_0100920B:
 BYTE   N05  An2  v127
 BYTE   W12
 BYTE   Bn2
 BYTE   W12
 BYTE   Cn3
 BYTE   W12
 BYTE   An2
 BYTE   W12
 BYTE   Bn2
 BYTE   W12
 BYTE   Cn3
 BYTE   W12
 BYTE   Gn2
 BYTE   W12
 BYTE   An2
 BYTE   W12
 BYTE   PEND 
//  #03 //028   ----------------------------------------
Label_0100921E:
 BYTE   N05  As2  v127
 BYTE   W12
 BYTE   Gn2
 BYTE   W12
 BYTE   An2
 BYTE   W12
 BYTE   As2
 BYTE   W12
 BYTE   Fn2
 BYTE   W12
 BYTE   Gn2
 BYTE   W12
 BYTE   Gs2
 BYTE   W12
 BYTE   Fn2
 BYTE   W12
 BYTE   PEND 
//  #03 //029   ----------------------------------------
Label_01009231:
 BYTE   N05  Gn2  v127
 BYTE   W12
 BYTE   Gs2
 BYTE   W12
 BYTE   Fn2
 BYTE   W12
 BYTE   Gn2
 BYTE   W12
 BYTE   Gs2
 BYTE   W12
 BYTE   Fn2
 BYTE   W12
 BYTE   Gn2
 BYTE   W12
 BYTE   Gs2
 BYTE   W12
 BYTE   PEND 
//  #03 //030   ----------------------------------------
 BYTE   N05  An2  v127
 BYTE   W12
 BYTE   Cn3
 BYTE   W12
 BYTE   Dn3
 BYTE   W12
 BYTE   Bn2
 BYTE   W12
 BYTE   Cn3
 BYTE   W12
 BYTE   Gs2
 BYTE   W96
//  #03 //031   ----------------------------------------
 BYTE   W96
//  #03 //032   ----------------------------------------
 BYTE   W96
//  #03 //033   ----------------------------------------
 BYTE   W96
//  #03 //034   ----------------------------------------
 BYTE   W96
//  #03 //035   ----------------------------------------
 BYTE   W96
//  #03 //036   ----------------------------------------
 BYTE   W96
//  #03 //037   ----------------------------------------
 BYTE   W96
//  #03 //038   ----------------------------------------
 BYTE   W96
//  #03 //039   ----------------------------------------
 BYTE   W96
//  #03 //040   ----------------------------------------
 BYTE   W96
//  #03 //041   ----------------------------------------
 BYTE   W96
//  #03 //042   ----------------------------------------
 BYTE   W96
//  #03 //043   ----------------------------------------
 BYTE   W96
//  #03 //044   ----------------------------------------
 BYTE   W96
//  #03 //045   ----------------------------------------
 BYTE   W96
//  #03 //046   ----------------------------------------
 BYTE   W96
//  #03 //047   ----------------------------------------
 BYTE   W96
//  #03 //048   ----------------------------------------
 BYTE   W96
//  #03 //049   ----------------------------------------
 BYTE   W96
//  #03 //050   ----------------------------------------
 BYTE   W96
//  #03 //051   ----------------------------------------
 BYTE   W96
//  #03 //052   ----------------------------------------
 BYTE   W96
//  #03 //053   ----------------------------------------
 BYTE   W96
//  #03 //054   ----------------------------------------
 BYTE   W12
//  #03 //055   ----------------------------------------
 BYTE   PATT
  POIN2 Label_01009160
//  #03 //056   ----------------------------------------
 BYTE   PATT
  POIN2 Label_01009173
//  #03 //057   ----------------------------------------
 BYTE   PATT
  POIN2 Label_01009186
//  #03 //058   ----------------------------------------
 BYTE   PATT
  POIN2 Label_01009199
//  #03 //059   ----------------------------------------
 BYTE   PATT
  POIN2 Label_010091AC
//  #03 //060   ----------------------------------------
 BYTE   PATT
  POIN2 Label_010091BF
//  #03 //061   ----------------------------------------
 BYTE   PATT
  POIN2 Label_010091D2
//  #03 //062   ----------------------------------------
 BYTE   PATT
  POIN2 Label_010091E5
//  #03 //063   ----------------------------------------
 BYTE   PATT
  POIN2 Label_010091F8
//  #03 //064   ----------------------------------------
 BYTE   PATT
  POIN2 Label_0100920B
//  #03 //065   ----------------------------------------
 BYTE   PATT
  POIN2 Label_0100921E
//  #03 //066   ----------------------------------------
 BYTE   PATT
  POIN2 Label_01009231
//  #03 //067   ----------------------------------------
 BYTE   N05  An2  v127
 BYTE   W12
 BYTE   Cn3
 BYTE   W12
 BYTE   Dn3
 BYTE   W12
 BYTE   Bn2
 BYTE   W12
 BYTE   Cn3
 BYTE   W12
 BYTE   Gs2
 BYTE   W96
//  #03 //068   ----------------------------------------
 BYTE   W96
//  #03 //069   ----------------------------------------
 BYTE   W96
//  #03 //070   ----------------------------------------
 BYTE   W96
//  #03 //071   ----------------------------------------
 BYTE   W96
//  #03 //072   ----------------------------------------
 BYTE   W96
//  #03 //073   ----------------------------------------
 BYTE   W17
 BYTE   GoTo
  POIN2 Label_01009144
 BYTE   FINE

//**************** Track 4 (Midi-Chn.3) ****************//

BabiLighthouse_004:
//  #04 //000   ----------------------------------------
Label_01003FC0:
 BYTE   TEMPO   112*BabiLighthouse_tbs/2
 BYTE   KEYSH   BabiLighthouse_key+0
 BYTE   VOICE   75
 BYTE   VOL   18*BabiLighthouse_mvl/mxv
 BYTE   PAN   c_v+6
 BYTE   N68  Fs3  v127
 BYTE   N68  An3
 BYTE   W08
 BYTE   N03  Fs3
 BYTE   N03  An3
 BYTE   W60
 BYTE   W03
 BYTE   N23
 BYTE   N23  Cs4
 BYTE   W24
 BYTE   Gs3
 BYTE   N23  Bn3
 BYTE   W24
//  #04 //001   ----------------------------------------
 BYTE   Fs3
 BYTE   N23  An3
 BYTE   W24
 BYTE   N68  En3
 BYTE   N68  An3
 BYTE   W08
 BYTE   N03  En3
 BYTE   N03  An3
 BYTE   W60
 BYTE   W03
 BYTE   N32  Cn4
 BYTE   N32  An3
 BYTE   W04
//  #04 //002   ----------------------------------------
 BYTE   N03  Cn4
 BYTE   N03  An3
 BYTE   W32
 BYTE   N32  En4
 BYTE   N32  Cn4
 BYTE   W04
 BYTE   N03  En4
 BYTE   N03  Cn4
 BYTE   W32
 BYTE   N32  En4
 BYTE   N32  Bn3
 BYTE   W04
 BYTE   N03  En4
 BYTE   N03  Bn3
 BYTE   W32
//  #04 //003   ----------------------------------------
 BYTE   N32  Gn3
 BYTE   N32  Bn3
 BYTE   W04
 BYTE   N03  Gn3
 BYTE   N03  Bn3
 BYTE   W32
 BYTE   N32  Gn3
 BYTE   N32  En3
 BYTE   W04
 BYTE   N03  Gn3
 BYTE   N03  En3
 BYTE   W32
 BYTE   N32  Gn3
 BYTE   N32  Bn3
 BYTE   W04
 BYTE   N03  Gn3
 BYTE   N03  Bn3
 BYTE   W32
//  #04 //004   ----------------------------------------
 BYTE   N07  As3
 BYTE   N07  Gn3
 BYTE   W12
 BYTE   Cn4
 BYTE   N07  An3
 BYTE   W12
 BYTE   As3
 BYTE   N07  Dn4
 BYTE   W12
 BYTE   As3
 BYTE   N07  Dn4
 BYTE   W12
 BYTE   Ds4
 BYTE   N07  Cn4
 BYTE   W12
 BYTE   As3
 BYTE   N07  Dn4
 BYTE   W12
 BYTE   Fn4
 BYTE   N07  Dn4
 BYTE   W12
 BYTE   Ds4
 BYTE   N07  Cn4
 BYTE   W12
//  #04 //005   ----------------------------------------
 BYTE   Dn4
 BYTE   N07  As3
 BYTE   W12
 BYTE   Cn4
 BYTE   N07  An3
 BYTE   W12
 BYTE   Gn3
 BYTE   N07  As3
 BYTE   W12
 BYTE   Dn4
 BYTE   N07  As3
 BYTE   W12
 BYTE   N68  Dn4
 BYTE   N68  An3
 BYTE   W08
 BYTE   N03  Dn4
 BYTE   N03  An3
 BYTE   W60
//  #04 //006   ----------------------------------------
 BYTE   W03
 BYTE   N32
 BYTE   N32  Fn3
 BYTE   W04
 BYTE   N03  An3
 BYTE   N03  Fn3
 BYTE   W32
 BYTE   N32  An3
 BYTE   N32  Dn4
 BYTE   W04
 BYTE   N03  An3
 BYTE   N03  Dn4
 BYTE   W32
 BYTE   N07  Gs3
 BYTE   N07  Cn4
 BYTE   W12
 BYTE   As3
 BYTE   N07  Dn4
 BYTE   W12
//  #04 //007   ----------------------------------------
 BYTE   Ds4
 BYTE   N07  Cn4
 BYTE   W12
 BYTE   Fn4
 BYTE   N07  Dn4
 BYTE   W12
 BYTE   Cn4
 BYTE   N07  Ds4
 BYTE   W12
 BYTE   Dn4
 BYTE   N07  As3
 BYTE   W12
 BYTE   Ds4
 BYTE   N07  Gn4
 BYTE   W12
 BYTE   Fn4
 BYTE   N07  Dn4
 BYTE   W12
 BYTE   Ds4
 BYTE   N07  Cn4
 BYTE   W12
 BYTE   As3
 BYTE   N07  Dn4
 BYTE   W12
//  #04 //008   ----------------------------------------
 BYTE   Cn4
 BYTE   N07  Ds4
 BYTE   W12
 BYTE   Fn4
 BYTE   N07  Dn4
 BYTE   W12
 BYTE   N23  An4
 BYTE   N23  En4
 BYTE   W36
 BYTE   Cn4
 BYTE   N23  En4
 BYTE   W36
//  #04 //009   ----------------------------------------
 BYTE   Dn4
 BYTE   N23  As3
 BYTE   W36
 BYTE   Gn4
 BYTE   N23  Dn4
 BYTE   W36
 BYTE   N07  Gs3
 BYTE   N07  Cn4
 BYTE   W12
 BYTE   Fn4
 BYTE   N07  Cn4
 BYTE   W12
//  #04 //010   ----------------------------------------
 BYTE   Gs4
 BYTE   N07  Fn4
 BYTE   W12
 BYTE   Cn4
 BYTE   N07  Fn4
 BYTE   W12
 BYTE   Gs4
 BYTE   N07  Cn5
 BYTE   W12
 BYTE   Gs4
 BYTE   N07  Fn4
 BYTE   W12
 BYTE   Fn4
 BYTE   N07  Cn4
 BYTE   W12
 BYTE   Fn4
 BYTE   N07  Gs4
 BYTE   W12
 BYTE   Cn4
 BYTE   N07  Gs3
 BYTE   W12
 BYTE   Cn4
 BYTE   N07  Fn4
 BYTE   W12
//  #04 //011   ----------------------------------------
 BYTE   Fn3
 BYTE   N07  Gs3
 BYTE   W12
 BYTE   Gs3
 BYTE   N07  Cn4
 BYTE   W96
//  #04 //012   ----------------------------------------
 BYTE   W96
//  #04 //013   ----------------------------------------
 BYTE   W96
//  #04 //014   ----------------------------------------
 BYTE   W96
//  #04 //015   ----------------------------------------
 BYTE   W96
//  #04 //016   ----------------------------------------
 BYTE   W96
//  #04 //017   ----------------------------------------
 BYTE   W12
 BYTE   N68  Fs3
 BYTE   N68  An3
 BYTE   W08
 BYTE   N03  Fs3
 BYTE   N03  An3
 BYTE   W60
 BYTE   W03
 BYTE   N23  Cs4
 BYTE   N23  An3
 BYTE   W24
//  #04 //018   ----------------------------------------
 BYTE   Bn3
 BYTE   N23  Gs3
 BYTE   W24
 BYTE   An3
 BYTE   N23  Fs3
 BYTE   W24
 BYTE   N68  En3
 BYTE   N68  An3
 BYTE   W08
 BYTE   N03  En3
 BYTE   N03  An3
 BYTE   W60
//  #04 //019   ----------------------------------------
 BYTE   W03
 BYTE   N32
 BYTE   N32  Cn4
 BYTE   W04
 BYTE   N03  An3
 BYTE   N03  Cn4
 BYTE   W32
 BYTE   N32
 BYTE   N32  En4
 BYTE   W04
 BYTE   N03  Cn4
 BYTE   N03  En4
 BYTE   W32
 BYTE   N32
 BYTE   N32  Bn3
 BYTE   W04
 BYTE   N03  En4
 BYTE   N03  Bn3
 BYTE   W32
//  #04 //020   ----------------------------------------
 BYTE   N32
 BYTE   N32  Gn3
 BYTE   W04
 BYTE   N03  Bn3
 BYTE   N03  Gn3
 BYTE   W32
 BYTE   N32  En3
 BYTE   N32  Gn3
 BYTE   W04
 BYTE   N03  En3
 BYTE   N03  Gn3
 BYTE   W32
 BYTE   N32
 BYTE   N32  Bn3
 BYTE   W04
 BYTE   N03  Gn3
 BYTE   N03  Bn3
 BYTE   W32
//  #04 //021   ----------------------------------------
 BYTE   N07  As3
 BYTE   N07  Gn3
 BYTE   W12
 BYTE   Cn4
 BYTE   N07  An3
 BYTE   W12
 BYTE   Dn4
 BYTE   N07  As3
 BYTE   W12
 BYTE   As3
 BYTE   N07  Dn4
 BYTE   W12
 BYTE   Ds4
 BYTE   N07  Cn4
 BYTE   W12
 BYTE   Dn4
 BYTE   N07  As3
 BYTE   W12
 BYTE   Dn4
 BYTE   N07  Fn4
 BYTE   W12
 BYTE   Cn4
 BYTE   N07  Ds4
 BYTE   W12
//  #04 //022   ----------------------------------------
 BYTE   As3
 BYTE   N07  Dn4
 BYTE   W12
 BYTE   An3
 BYTE   N07  Cn4
 BYTE   W12
 BYTE   As3
 BYTE   N07  Gn3
 BYTE   W12
 BYTE   As3
 BYTE   N07  Dn4
 BYTE   W12
 BYTE   N68
 BYTE   N68  An3
 BYTE   W08
 BYTE   N03  Dn4
 BYTE   N03  An3
 BYTE   W60
//  #04 //023   ----------------------------------------
 BYTE   W03
 BYTE   N32  Fn3
 BYTE   N32  An3
 BYTE   W04
 BYTE   N03  Fn3
 BYTE   N03  An3
 BYTE   W32
 BYTE   N32  Dn4
 BYTE   N32  An3
 BYTE   W04
 BYTE   N03  Dn4
 BYTE   N03  An3
 BYTE   W32
 BYTE   N07  Cn4
 BYTE   N07  Gs3
 BYTE   W12
 BYTE   Dn4
 BYTE   N07  As3
 BYTE   W12
//  #04 //024   ----------------------------------------
 BYTE   Cn4
 BYTE   N07  Ds4
 BYTE   W12
 BYTE   Fn4
 BYTE   N07  Dn4
 BYTE   W12
 BYTE   Cn4
 BYTE   N07  Ds4
 BYTE   W12
 BYTE   As3
 BYTE   N07  Dn4
 BYTE   W12
 BYTE   Gn4
 BYTE   N07  Ds4
 BYTE   W12
 BYTE   Fn4
 BYTE   N07  Dn4
 BYTE   W12
 BYTE   Cn4
 BYTE   N07  Ds4
 BYTE   W12
 BYTE   As3
 BYTE   N07  Dn4
 BYTE   W12
//  #04 //025   ----------------------------------------
 BYTE   Cn4
 BYTE   N07  Ds4
 BYTE   W12
 BYTE   Dn4
 BYTE   N07  Fn4
 BYTE   W12
 BYTE   N23  An4
 BYTE   N23  En4
 BYTE   W36
 BYTE   Cn4
 BYTE   N23  En4
 BYTE   W36
//  #04 //026   ----------------------------------------
 BYTE   Dn4
 BYTE   N23  As3
 BYTE   W36
 BYTE   Gn4
 BYTE   N23  Dn4
 BYTE   W36
 BYTE   N07  Cn4
 BYTE   N07  Gs3
 BYTE   W12
 BYTE   Fn4
 BYTE   N07  Cn4
 BYTE   W12
//  #04 //027   ----------------------------------------
 BYTE   Gs4
 BYTE   N07  Fn4
 BYTE   W12
 BYTE   Fn4
 BYTE   N07  Cn4
 BYTE   W12
 BYTE   Gs4
 BYTE   N07  Cn5
 BYTE   W12
 BYTE   Fn4
 BYTE   N07  Gs4
 BYTE   W12
 BYTE   Fn4
 BYTE   N07  Cn4
 BYTE   W12
 BYTE   Fn4
 BYTE   N07  Gs4
 BYTE   W12
 BYTE   Gs3
 BYTE   N07  Cn4
 BYTE   W12
 BYTE   Cn4
 BYTE   N07  Fn4
 BYTE   W12
//  #04 //028   ----------------------------------------
 BYTE   Gs3
 BYTE   N07  Fn3
 BYTE   W12
 BYTE   Gs3
 BYTE   N07  Cn4
 BYTE   W96
//  #04 //029   ----------------------------------------
 BYTE   W96
//  #04 //030   ----------------------------------------
 BYTE   W96
//  #04 //031   ----------------------------------------
 BYTE   W96
//  #04 //032   ----------------------------------------
 BYTE   W96
//  #04 //033   ----------------------------------------
 BYTE   W96
//  #04 //034   ----------------------------------------
 BYTE   W84
 BYTE   N68  Fs3
 BYTE   N68  An3
 BYTE   W08
 BYTE   N03  Fs3
 BYTE   N03  An3
 BYTE   W60
//  #04 //035   ----------------------------------------
 BYTE   W03
 BYTE   N23
 BYTE   N23  Cs4
 BYTE   W24
 BYTE   Bn3
 BYTE   N23  Gs3
 BYTE   W24
 BYTE   An3
 BYTE   N23  Fs3
 BYTE   W24
 BYTE   N68  An3
 BYTE   N68  En3
 BYTE   W08
 BYTE   N03  An3
 BYTE   N03  En3
 BYTE   W60
//  #04 //036   ----------------------------------------
 BYTE   W03
 BYTE   N32  Cn4
 BYTE   N32  An3
 BYTE   W04
 BYTE   N03  Cn4
 BYTE   N03  An3
 BYTE   W32
 BYTE   N32  Cn4
 BYTE   N32  En4
 BYTE   W04
 BYTE   N03  Cn4
 BYTE   N03  En4
 BYTE   W32
 BYTE   N32  Bn3
 BYTE   N32  En4
 BYTE   W04
 BYTE   N03  Bn3
 BYTE   N03  En4
 BYTE   W32
//  #04 //037   ----------------------------------------
 BYTE   N32  Bn3
 BYTE   N32  Gn3
 BYTE   W04
 BYTE   N03  Bn3
 BYTE   N03  Gn3
 BYTE   W32
 BYTE   N32
 BYTE   N32  En3
 BYTE   W04
 BYTE   N03  Gn3
 BYTE   N03  En3
 BYTE   W32
 BYTE   N32  Bn3
 BYTE   N32  Gn3
 BYTE   W04
 BYTE   N03  Bn3
 BYTE   N03  Gn3
 BYTE   W32
//  #04 //038   ----------------------------------------
 BYTE   N07
 BYTE   N07  As3
 BYTE   W12
 BYTE   Cn4
 BYTE   N07  An3
 BYTE   W12
 BYTE   Dn4
 BYTE   N07  As3
 BYTE   W12
 BYTE   Dn4
 BYTE   N07  As3
 BYTE   W12
 BYTE   Cn4
 BYTE   N07  Ds4
 BYTE   W12
 BYTE   As3
 BYTE   N07  Dn4
 BYTE   W12
 BYTE   Dn4
 BYTE   N07  Fn4
 BYTE   W12
 BYTE   Cn4
 BYTE   N07  Ds4
 BYTE   W12
//  #04 //039   ----------------------------------------
 BYTE   Dn4
 BYTE   N07  As3
 BYTE   W12
 BYTE   An3
 BYTE   N07  Cn4
 BYTE   W12
 BYTE   As3
 BYTE   N07  Gn3
 BYTE   W12
 BYTE   Dn4
 BYTE   N07  As3
 BYTE   W12
 BYTE   N68  An3
 BYTE   N68  Dn4
 BYTE   W08
 BYTE   N03  An3
 BYTE   N03  Dn4
 BYTE   W60
//  #04 //040   ----------------------------------------
 BYTE   W03
 BYTE   N32  Fn3
 BYTE   N32  An3
 BYTE   W04
 BYTE   N03  Fn3
 BYTE   N03  An3
 BYTE   W32
 BYTE   N32
 BYTE   N32  Dn4
 BYTE   W04
 BYTE   N03  An3
 BYTE   N03  Dn4
 BYTE   W32
 BYTE   N07  Cn4
 BYTE   N07  Gs3
 BYTE   W12
 BYTE   Dn4
 BYTE   N07  As3
 BYTE   W12
//  #04 //041   ----------------------------------------
 BYTE   Cn4
 BYTE   N07  Ds4
 BYTE   W12
 BYTE   Fn4
 BYTE   N07  Dn4
 BYTE   W12
 BYTE   Ds4
 BYTE   N07  Cn4
 BYTE   W12
 BYTE   As3
 BYTE   N07  Dn4
 BYTE   W12
 BYTE   Ds4
 BYTE   N07  Gn4
 BYTE   W12
 BYTE   Dn4
 BYTE   N07  Fn4
 BYTE   W12
 BYTE   Cn4
 BYTE   N07  Ds4
 BYTE   W12
 BYTE   Dn4
 BYTE   N07  As3
 BYTE   W12
//  #04 //042   ----------------------------------------
 BYTE   Cn4
 BYTE   N07  Ds4
 BYTE   W12
 BYTE   Dn4
 BYTE   N07  Fn4
 BYTE   W12
 BYTE   N23  En4
 BYTE   N23  An4
 BYTE   W36
 BYTE   Cn4
 BYTE   N23  En4
 BYTE   W36
//  #04 //043   ----------------------------------------
 BYTE   As3
 BYTE   N23  Dn4
 BYTE   W36
 BYTE   Dn4
 BYTE   N23  Gn4
 BYTE   W36
 BYTE   N07  Cn4
 BYTE   N07  Gs3
 BYTE   W12
 BYTE   Fn4
 BYTE   N07  Cn4
 BYTE   W12
//  #04 //044   ----------------------------------------
 BYTE   Fn4
 BYTE   N07  Gs4
 BYTE   W12
 BYTE   Fn4
 BYTE   N07  Cn4
 BYTE   W12
 BYTE   Gs4
 BYTE   N07  Cn5
 BYTE   W12
 BYTE   Fn4
 BYTE   N07  Gs4
 BYTE   W12
 BYTE   Cn4
 BYTE   N07  Fn4
 BYTE   W12
 BYTE   Fn4
 BYTE   N07  Gs4
 BYTE   W12
 BYTE   Gs3
 BYTE   N07  Cn4
 BYTE   W12
 BYTE   Fn4
 BYTE   N07  Cn4
 BYTE   W12
//  #04 //045   ----------------------------------------
 BYTE   Fn3
 BYTE   N07  Gs3
 BYTE   W12
 BYTE   Cn4
 BYTE   N07  Gs3
 BYTE   W96
//  #04 //046   ----------------------------------------
 BYTE   W96
//  #04 //047   ----------------------------------------
 BYTE   W96
//  #04 //048   ----------------------------------------
 BYTE   W96
//  #04 //049   ----------------------------------------
 BYTE   W96
//  #04 //050   ----------------------------------------
 BYTE   W96
//  #04 //051   ----------------------------------------
 BYTE   W12
 BYTE   N68  An3
 BYTE   N68  Fs3
 BYTE   W08
 BYTE   N03  An3
 BYTE   N03  Fs3
 BYTE   W60
 BYTE   W03
 BYTE   N23  An3
 BYTE   N23  Cs4
 BYTE   W24
//  #04 //052   ----------------------------------------
 BYTE   Bn3
 BYTE   N23  Gs3
 BYTE   W24
 BYTE   Fs3
 BYTE   N23  An3
 BYTE   W24
 BYTE   N68
 BYTE   N68  En3
 BYTE   W08
 BYTE   N03  An3
 BYTE   N03  En3
 BYTE   W60
//  #04 //053   ----------------------------------------
 BYTE   W03
 BYTE   N32  An3
 BYTE   N32  Cn4
 BYTE   W04
 BYTE   N03  An3
 BYTE   N03  Cn4
 BYTE   W32
 BYTE   N32  En4
 BYTE   N32  Cn4
 BYTE   W04
 BYTE   N03  En4
 BYTE   N03  Cn4
 BYTE   W32
 BYTE   N32  Bn3
 BYTE   N32  En4
 BYTE   W04
 BYTE   N03  Bn3
 BYTE   N03  En4
 BYTE   W32
//  #04 //054   ----------------------------------------
 BYTE   N32  Gn3
 BYTE   N32  Bn3
 BYTE   W04
 BYTE   N03  Gn3
 BYTE   N03  Bn3
 BYTE   W32
 BYTE   N32  En3
 BYTE   N32  Gn3
 BYTE   W04
 BYTE   N03  En3
 BYTE   N03  Gn3
 BYTE   W32
 BYTE   N32  Bn3
 BYTE   N32  Gn3
 BYTE   W04
 BYTE   N03  Bn3
 BYTE   N03  Gn3
 BYTE   W32
//  #04 //055   ----------------------------------------
 BYTE   N07
 BYTE   N07  As3
 BYTE   W12
 BYTE   Cn4
 BYTE   N07  An3
 BYTE   W12
 BYTE   As3
 BYTE   N07  Dn4
 BYTE   W12
 BYTE   Dn4
 BYTE   N07  As3
 BYTE   W12
 BYTE   Cn4
 BYTE   N07  Ds4
 BYTE   W12
 BYTE   Dn4
 BYTE   N07  As3
 BYTE   W12
 BYTE   Fn4
 BYTE   N07  Dn4
 BYTE   W12
 BYTE   Ds4
 BYTE   N07  Cn4
 BYTE   W12
//  #04 //056   ----------------------------------------
 BYTE   As3
 BYTE   N07  Dn4
 BYTE   W12
 BYTE   Cn4
 BYTE   N07  An3
 BYTE   W12
 BYTE   Gn3
 BYTE   N07  As3
 BYTE   W12
 BYTE   Dn4
 BYTE   N07  As3
 BYTE   W12
 BYTE   N68  Dn4
 BYTE   N68  An3
 BYTE   W08
 BYTE   N03  Dn4
 BYTE   N03  An3
 BYTE   W60
//  #04 //057   ----------------------------------------
 BYTE   W03
 BYTE   N32
 BYTE   N32  Fn3
 BYTE   W04
 BYTE   N03  An3
 BYTE   N03  Fn3
 BYTE   W32
 BYTE   N32  An3
 BYTE   N32  Dn4
 BYTE   W04
 BYTE   N03  An3
 BYTE   N03  Dn4
 BYTE   W32
 BYTE   N07  Cn4
 BYTE   N07  Gs3
 BYTE   W12
 BYTE   As3
 BYTE   N07  Dn4
 BYTE   W12
//  #04 //058   ----------------------------------------
 BYTE   Ds4
 BYTE   N07  Cn4
 BYTE   W12
 BYTE   Dn4
 BYTE   N07  Fn4
 BYTE   W12
 BYTE   Cn4
 BYTE   N07  Ds4
 BYTE   W12
 BYTE   Dn4
 BYTE   N07  As3
 BYTE   W12
 BYTE   Ds4
 BYTE   N07  Gn4
 BYTE   W12
 BYTE   Fn4
 BYTE   N07  Dn4
 BYTE   W12
 BYTE   Ds4
 BYTE   N07  Cn4
 BYTE   W12
 BYTE   Dn4
 BYTE   N07  As3
 BYTE   W12
//  #04 //059   ----------------------------------------
 BYTE   Ds4
 BYTE   N07  Cn4
 BYTE   W12
 BYTE   Dn4
 BYTE   N07  Fn4
 BYTE   W12
 BYTE   N23  En4
 BYTE   N23  An4
 BYTE   W36
 BYTE   En4
 BYTE   N23  Cn4
 BYTE   W36
//  #04 //060   ----------------------------------------
 BYTE   Dn4
 BYTE   N23  As3
 BYTE   W36
 BYTE   Dn4
 BYTE   N23  Gn4
 BYTE   W36
 BYTE   N07  Gs3
 BYTE   N07  Cn4
 BYTE   W12
 BYTE   Cn4
 BYTE   N07  Fn4
 BYTE   W12
//  #04 //061   ----------------------------------------
 BYTE   Gs4
 BYTE   N07  Fn4
 BYTE   W12
 BYTE   Cn4
 BYTE   N07  Fn4
 BYTE   W12
 BYTE   Cn5
 BYTE   N07  Gs4
 BYTE   W12
 BYTE   Fn4
 BYTE   N07  Gs4
 BYTE   W12
 BYTE   Cn4
 BYTE   N07  Fn4
 BYTE   W12
 BYTE   Gs4
 BYTE   N07  Fn4
 BYTE   W12
 BYTE   Gs3
 BYTE   N07  Cn4
 BYTE   W12
 BYTE   Fn4
 BYTE   N07  Cn4
 BYTE   W12
//  #04 //062   ----------------------------------------
 BYTE   Fn3
 BYTE   N07  Gs3
 BYTE   W12
 BYTE   Cn4
 BYTE   N07  Gs3
 BYTE   W96
//  #04 //063   ----------------------------------------
 BYTE   W96
//  #04 //064   ----------------------------------------
 BYTE   W96
//  #04 //065   ----------------------------------------
 BYTE   W96
//  #04 //066   ----------------------------------------
 BYTE   W96
//  #04 //067   ----------------------------------------
 BYTE   W96
//  #04 //068   ----------------------------------------
 BYTE   W88
 BYTE   W01
 BYTE   GoTo
  POIN2 Label_01003FC0
 BYTE   FINE

//**************** Track 5 (Midi-Chn.4) ****************//

BabiLighthouse_005:
//  #05 //000   ----------------------------------------
Label_0100DF24:
 BYTE   TEMPO   112*BabiLighthouse_tbs/2
 BYTE   KEYSH   BabiLighthouse_key+0
 BYTE   VOICE   75
 BYTE   VOL   17*BabiLighthouse_mvl/mxv
 BYTE   PAN   c_v-9
 BYTE   BEND   c_v-5
 BYTE   W12
 BYTE   N68  Fs3  v127
 BYTE   N68  An3
 BYTE   W08
 BYTE   N03  Fs3
 BYTE   N03  An3
 BYTE   W60
 BYTE   W03
 BYTE   N23
 BYTE   N23  Cs4
 BYTE   W24
//  #05 //001   ----------------------------------------
 BYTE   Gs3
 BYTE   N23  Bn3
 BYTE   W24
 BYTE   Fs3
 BYTE   N23  An3
 BYTE   W24
 BYTE   N68
 BYTE   N68  En3
 BYTE   W08
 BYTE   N03  An3
 BYTE   N03  En3
 BYTE   W60
//  #05 //002   ----------------------------------------
 BYTE   W03
 BYTE   N32  Cn4
 BYTE   N32  An3
 BYTE   W04
 BYTE   N03  Cn4
 BYTE   N03  An3
 BYTE   W32
 BYTE   N32  Cn4
 BYTE   N32  En4
 BYTE   W04
 BYTE   N03  Cn4
 BYTE   N03  En4
 BYTE   W32
 BYTE   N32  Bn3
 BYTE   N32  En4
 BYTE   W04
 BYTE   N03  Bn3
 BYTE   N03  En4
 BYTE   W32
//  #05 //003   ----------------------------------------
 BYTE   N32  Bn3
 BYTE   N32  Gn3
 BYTE   W04
 BYTE   N03  Bn3
 BYTE   N03  Gn3
 BYTE   W32
 BYTE   N32
 BYTE   N32  En3
 BYTE   W04
 BYTE   N03  Gn3
 BYTE   N03  En3
 BYTE   W32
 BYTE   N32  Gn3
 BYTE   N32  Bn3
 BYTE   W04
 BYTE   N03  Gn3
 BYTE   N03  Bn3
 BYTE   W32
//  #05 //004   ----------------------------------------
 BYTE   N07  As3
 BYTE   N07  Gn3
 BYTE   W12
 BYTE   An3
 BYTE   N07  Cn4
 BYTE   W12
 BYTE   As3
 BYTE   N07  Dn4
 BYTE   W12
 BYTE   As3
 BYTE   N07  Dn4
 BYTE   W12
 BYTE   Cn4
 BYTE   N07  Ds4
 BYTE   W12
 BYTE   As3
 BYTE   N07  Dn4
 BYTE   W12
 BYTE   Fn4
 BYTE   N07  Dn4
 BYTE   W12
 BYTE   Ds4
 BYTE   N07  Cn4
 BYTE   W12
//  #05 //005   ----------------------------------------
 BYTE   Dn4
 BYTE   N07  As3
 BYTE   W12
 BYTE   Cn4
 BYTE   N07  An3
 BYTE   W12
 BYTE   As3
 BYTE   N07  Gn3
 BYTE   W12
 BYTE   Dn4
 BYTE   N07  As3
 BYTE   W12
 BYTE   N68  An3
 BYTE   N68  Dn4
 BYTE   W08
 BYTE   N03  An3
 BYTE   N03  Dn4
 BYTE   W60
//  #05 //006   ----------------------------------------
 BYTE   W03
Label_0100DFCA:
 BYTE   N32  Fn3  v127
 BYTE   N32  An3
 BYTE   W04
 BYTE   N03  Fn3
 BYTE   N03  An3
 BYTE   W32
 BYTE   N32
 BYTE   N32  Dn4
 BYTE   W04
 BYTE   N03  An3
 BYTE   N03  Dn4
 BYTE   W32
 BYTE   N07  Gs3
 BYTE   N07  Cn4
 BYTE   W12
 BYTE   Dn4
 BYTE   N07  As3
 BYTE   W12
 BYTE   PEND 
//  #05 //007   ----------------------------------------
 BYTE   N07  Ds4  v127
 BYTE   N07  Cn4
 BYTE   W12
 BYTE   Fn4
 BYTE   N07  Dn4
 BYTE   W12
 BYTE   Cn4
 BYTE   N07  Ds4
 BYTE   W12
 BYTE   Dn4
 BYTE   N07  As3
 BYTE   W12
 BYTE   Gn4
 BYTE   N07  Ds4
 BYTE   W12
 BYTE   Dn4
 BYTE   N07  Fn4
 BYTE   W12
 BYTE   Cn4
 BYTE   N07  Ds4
 BYTE   W12
 BYTE   Dn4
 BYTE   N07  As3
 BYTE   W12
//  #05 //008   ----------------------------------------
 BYTE   Ds4
 BYTE   N07  Cn4
 BYTE   W12
 BYTE   Fn4
 BYTE   N07  Dn4
 BYTE   W12
 BYTE   N23  En4
 BYTE   N23  An4
 BYTE   W36
 BYTE   Cn4
 BYTE   N23  En4
 BYTE   W36
//  #05 //009   ----------------------------------------
 BYTE   Dn4
 BYTE   N23  As3
 BYTE   W36
 BYTE   Dn4
 BYTE   N23  Gn4
 BYTE   W36
 BYTE   N07  Cn4
 BYTE   N07  Gs3
 BYTE   W12
 BYTE   Fn4
 BYTE   N07  Cn4
 BYTE   W12
//  #05 //010   ----------------------------------------
 BYTE   Fn4
 BYTE   N07  Gs4
 BYTE   W12
 BYTE   Cn4
 BYTE   N07  Fn4
 BYTE   W12
 BYTE   Gs4
 BYTE   N07  Cn5
 BYTE   W12
 BYTE   Fn4
 BYTE   N07  Gs4
 BYTE   W12
 BYTE   Fn4
 BYTE   N07  Cn4
 BYTE   W12
 BYTE   Fn4
 BYTE   N07  Gs4
 BYTE   W12
 BYTE   Gs3
 BYTE   N07  Cn4
 BYTE   W12
 BYTE   Cn4
 BYTE   N07  Fn4
 BYTE   W12
//  #05 //011   ----------------------------------------
 BYTE   Gs3
 BYTE   N07  Fn3
 BYTE   W12
 BYTE   Gs3
 BYTE   N07  Cn4
 BYTE   W96
//  #05 //012   ----------------------------------------
 BYTE   W96
//  #05 //013   ----------------------------------------
 BYTE   W96
//  #05 //014   ----------------------------------------
 BYTE   W96
//  #05 //015   ----------------------------------------
 BYTE   W96
//  #05 //016   ----------------------------------------
 BYTE   W96
//  #05 //017   ----------------------------------------
 BYTE   W12
Label_0100E05A:
 BYTE   N68  Fs3  v127
 BYTE   N68  An3
 BYTE   W08
 BYTE   N03  Fs3
 BYTE   N03  An3
 BYTE   W60
 BYTE   W03
 BYTE   N23
 BYTE   N23  Cs4
 BYTE   W24
 BYTE   PEND 
//  #05 //018   ----------------------------------------
 BYTE   N23  Bn3  v127
 BYTE   N23  Gs3
 BYTE   W24
 BYTE   Fs3
 BYTE   N23  An3
 BYTE   W24
 BYTE   N68
 BYTE   N68  En3
 BYTE   W08
 BYTE   N03  An3
 BYTE   N03  En3
 BYTE   W60
//  #05 //019   ----------------------------------------
 BYTE   W03
 BYTE   N32  An3
 BYTE   N32  Cn4
 BYTE   W04
 BYTE   N03  An3
 BYTE   N03  Cn4
 BYTE   W32
 BYTE   N32
 BYTE   N32  En4
 BYTE   W04
 BYTE   N03  Cn4
 BYTE   N03  En4
 BYTE   W32
 BYTE   N32
 BYTE   N32  Bn3
 BYTE   W04
 BYTE   N03  En4
 BYTE   N03  Bn3
 BYTE   W32
//  #05 //020   ----------------------------------------
 BYTE   N32
 BYTE   N32  Gn3
 BYTE   W04
 BYTE   N03  Bn3
 BYTE   N03  Gn3
 BYTE   W32
 BYTE   N32
 BYTE   N32  En3
 BYTE   W04
 BYTE   N03  Gn3
 BYTE   N03  En3
 BYTE   W32
 BYTE   N32  Bn3
 BYTE   N32  Gn3
 BYTE   W04
 BYTE   N03  Bn3
 BYTE   N03  Gn3
 BYTE   W32
//  #05 //021   ----------------------------------------
 BYTE   N07  As3
 BYTE   N07  Gn3
 BYTE   W12
 BYTE   An3
 BYTE   N07  Cn4
 BYTE   W12
 BYTE   As3
 BYTE   N07  Dn4
 BYTE   W12
 BYTE   Dn4
 BYTE   N07  As3
 BYTE   W12
 BYTE   Cn4
 BYTE   N07  Ds4
 BYTE   W12
 BYTE   As3
 BYTE   N07  Dn4
 BYTE   W12
 BYTE   Fn4
 BYTE   N07  Dn4
 BYTE   W12
 BYTE   Cn4
 BYTE   N07  Ds4
 BYTE   W12
//  #05 //022   ----------------------------------------
 BYTE   As3
 BYTE   N07  Dn4
 BYTE   W12
 BYTE   Cn4
 BYTE   N07  An3
 BYTE   W12
 BYTE   Gn3
 BYTE   N07  As3
 BYTE   W12
 BYTE   Dn4
 BYTE   N07  As3
 BYTE   W12
 BYTE   N68  Dn4
 BYTE   N68  An3
 BYTE   W08
 BYTE   N03  Dn4
 BYTE   N03  An3
 BYTE   W60
//  #05 //023   ----------------------------------------
 BYTE   W03
 BYTE   N32
 BYTE   N32  Fn3
 BYTE   W04
 BYTE   N03  An3
 BYTE   N03  Fn3
 BYTE   W32
 BYTE   N32  Dn4
 BYTE   N32  An3
 BYTE   W04
 BYTE   N03  Dn4
 BYTE   N03  An3
 BYTE   W32
 BYTE   N07  Gs3
 BYTE   N07  Cn4
 BYTE   W12
 BYTE   As3
 BYTE   N07  Dn4
 BYTE   W12
//  #05 //024   ----------------------------------------
 BYTE   Ds4
 BYTE   N07  Cn4
 BYTE   W12
 BYTE   Fn4
 BYTE   N07  Dn4
 BYTE   W12
 BYTE   Ds4
 BYTE   N07  Cn4
 BYTE   W12
 BYTE   As3
 BYTE   N07  Dn4
 BYTE   W12
 BYTE   Ds4
 BYTE   N07  Gn4
 BYTE   W12
 BYTE   Fn4
 BYTE   N07  Dn4
 BYTE   W12
 BYTE   Cn4
 BYTE   N07  Ds4
 BYTE   W12
 BYTE   Dn4
 BYTE   N07  As3
 BYTE   W12
//  #05 //025   ----------------------------------------
 BYTE   Ds4
 BYTE   N07  Cn4
 BYTE   W12
 BYTE   Fn4
 BYTE   N07  Dn4
 BYTE   W12
 BYTE   N23  An4
 BYTE   N23  En4
 BYTE   W36
 BYTE   En4
 BYTE   N23  Cn4
 BYTE   W36
//  #05 //026   ----------------------------------------
 BYTE   As3
 BYTE   N23  Dn4
 BYTE   W36
 BYTE   Dn4
 BYTE   N23  Gn4
 BYTE   W36
 BYTE   N07  Cn4
 BYTE   N07  Gs3
 BYTE   W12
 BYTE   Cn4
 BYTE   N07  Fn4
 BYTE   W12
//  #05 //027   ----------------------------------------
 BYTE   Fn4
 BYTE   N07  Gs4
 BYTE   W12
 BYTE   Fn4
 BYTE   N07  Cn4
 BYTE   W12
 BYTE   Cn5
 BYTE   N07  Gs4
 BYTE   W12
 BYTE   Gs4
 BYTE   N07  Fn4
 BYTE   W12
 BYTE   Fn4
 BYTE   N07  Cn4
 BYTE   W12
 BYTE   Fn4
 BYTE   N07  Gs4
 BYTE   W12
 BYTE   Gs3
 BYTE   N07  Cn4
 BYTE   W12
 BYTE   Cn4
 BYTE   N07  Fn4
 BYTE   W12
//  #05 //028   ----------------------------------------
 BYTE   Gs3
 BYTE   N07  Fn3
 BYTE   W12
 BYTE   Cn4
 BYTE   N07  Gs3
 BYTE   W96
//  #05 //029   ----------------------------------------
 BYTE   W96
//  #05 //030   ----------------------------------------
 BYTE   W96
//  #05 //031   ----------------------------------------
 BYTE   W96
//  #05 //032   ----------------------------------------
 BYTE   W96
//  #05 //033   ----------------------------------------
 BYTE   W96
//  #05 //034   ----------------------------------------
 BYTE   W84
//  #05 //035   ----------------------------------------
 BYTE   PATT
  POIN2 Label_0100E05A
//  #05 //036   ----------------------------------------
Label_0100E184:
 BYTE   N23  Bn3  v127
 BYTE   N23  Gs3
 BYTE   W24
 BYTE   An3
 BYTE   N23  Fs3
 BYTE   W24
 BYTE   N68  En3
 BYTE   N68  An3
 BYTE   W08
 BYTE   N03  En3
 BYTE   N03  An3
 BYTE   W60
//  #05 //037   ----------------------------------------
 BYTE   W03
 BYTE   PEND 
 BYTE   N32  Cn4  v127
 BYTE   N32  An3
 BYTE   W04
 BYTE   N03  Cn4
 BYTE   N03  An3
 BYTE   W32
 BYTE   N32  En4
 BYTE   N32  Cn4
 BYTE   W04
 BYTE   N03  En4
 BYTE   N03  Cn4
 BYTE   W32
 BYTE   N32  En4
 BYTE   N32  Bn3
 BYTE   W04
 BYTE   N03  En4
 BYTE   N03  Bn3
 BYTE   W32
//  #05 //038   ----------------------------------------
 BYTE   N32  Gn3
 BYTE   N32  Bn3
 BYTE   W04
 BYTE   N03  Gn3
 BYTE   N03  Bn3
 BYTE   W32
 BYTE   N32  Gn3
 BYTE   N32  En3
 BYTE   W04
 BYTE   N03  Gn3
 BYTE   N03  En3
 BYTE   W32
 BYTE   N32  Bn3
 BYTE   N32  Gn3
 BYTE   W04
 BYTE   N03  Bn3
 BYTE   N03  Gn3
 BYTE   W32
//  #05 //039   ----------------------------------------
 BYTE   N07
 BYTE   N07  As3
 BYTE   W12
 BYTE   An3
 BYTE   N07  Cn4
 BYTE   W12
 BYTE   Dn4
 BYTE   N07  As3
 BYTE   W12
 BYTE   Dn4
 BYTE   N07  As3
 BYTE   W12
 BYTE   Ds4
 BYTE   N07  Cn4
 BYTE   W12
 BYTE   As3
 BYTE   N07  Dn4
 BYTE   W12
 BYTE   Dn4
 BYTE   N07  Fn4
 BYTE   W12
 BYTE   Cn4
 BYTE   N07  Ds4
 BYTE   W12
//  #05 //040   ----------------------------------------
 BYTE   Dn4
 BYTE   N07  As3
 BYTE   W12
 BYTE   An3
 BYTE   N07  Cn4
 BYTE   W12
 BYTE   Gn3
 BYTE   N07  As3
 BYTE   W12
 BYTE   Dn4
 BYTE   N07  As3
 BYTE   W12
 BYTE   N68  Dn4
 BYTE   N68  An3
 BYTE   W08
 BYTE   N03  Dn4
 BYTE   N03  An3
 BYTE   W60
//  #05 //041   ----------------------------------------
 BYTE   W03
 BYTE   N32
 BYTE   N32  Fn3
 BYTE   W04
 BYTE   N03  An3
 BYTE   N03  Fn3
 BYTE   W32
 BYTE   N32  An3
 BYTE   N32  Dn4
 BYTE   W04
 BYTE   N03  An3
 BYTE   N03  Dn4
 BYTE   W32
 BYTE   N07  Cn4
 BYTE   N07  Gs3
 BYTE   W12
 BYTE   As3
 BYTE   N07  Dn4
 BYTE   W12
//  #05 //042   ----------------------------------------
 BYTE   Cn4
 BYTE   N07  Ds4
 BYTE   W12
 BYTE   Fn4
 BYTE   N07  Dn4
 BYTE   W12
 BYTE   Ds4
 BYTE   N07  Cn4
 BYTE   W12
 BYTE   As3
 BYTE   N07  Dn4
 BYTE   W12
 BYTE   Gn4
 BYTE   N07  Ds4
 BYTE   W12
 BYTE   Fn4
 BYTE   N07  Dn4
 BYTE   W12
 BYTE   Ds4
 BYTE   N07  Cn4
 BYTE   W12
 BYTE   As3
 BYTE   N07  Dn4
 BYTE   W12
//  #05 //043   ----------------------------------------
 BYTE   Ds4
 BYTE   N07  Cn4
 BYTE   W12
 BYTE   Dn4
 BYTE   N07  Fn4
 BYTE   W12
 BYTE   N23  An4
 BYTE   N23  En4
 BYTE   W36
 BYTE   Cn4
 BYTE   N23  En4
 BYTE   W36
//  #05 //044   ----------------------------------------
Label_0100E25F:
 BYTE   N23  As3  v127
 BYTE   N23  Dn4
 BYTE   W36
 BYTE   Gn4
 BYTE   N23  Dn4
 BYTE   W36
 BYTE   N07  Gs3
 BYTE   N07  Cn4
 BYTE   W12
 BYTE   Fn4
 BYTE   N07  Cn4
 BYTE   W12
 BYTE   PEND 
//  #05 //045   ----------------------------------------
 BYTE   N07  Gs4  v127
 BYTE   N07  Fn4
 BYTE   W12
 BYTE   Fn4
 BYTE   N07  Cn4
 BYTE   W12
 BYTE   Gs4
 BYTE   N07  Cn5
 BYTE   W12
 BYTE   Gs4
 BYTE   N07  Fn4
 BYTE   W12
 BYTE   Cn4
 BYTE   N07  Fn4
 BYTE   W12
 BYTE   Fn4
 BYTE   N07  Gs4
 BYTE   W12
 BYTE   Cn4
 BYTE   N07  Gs3
 BYTE   W12
 BYTE   Fn4
 BYTE   N07  Cn4
 BYTE   W12
//  #05 //046   ----------------------------------------
 BYTE   Gs3
 BYTE   N07  Fn3
 BYTE   W12
 BYTE   Cn4
 BYTE   N07  Gs3
 BYTE   W96
//  #05 //047   ----------------------------------------
 BYTE   W96
//  #05 //048   ----------------------------------------
 BYTE   W96
//  #05 //049   ----------------------------------------
 BYTE   W96
//  #05 //050   ----------------------------------------
 BYTE   W96
//  #05 //051   ----------------------------------------
 BYTE   W96
//  #05 //052   ----------------------------------------
 BYTE   W12
 BYTE   N68  An3
 BYTE   N68  Fs3
 BYTE   W08
 BYTE   N03  An3
 BYTE   N03  Fs3
 BYTE   W60
 BYTE   W03
 BYTE   N23  Cs4
 BYTE   N23  An3
 BYTE   W24
//  #05 //053   ----------------------------------------
 BYTE   PATT
  POIN2 Label_0100E184
//  #05 //054   ----------------------------------------
 BYTE   N32  An3  v127
 BYTE   N32  Cn4
 BYTE   W04
 BYTE   N03  An3
 BYTE   N03  Cn4
 BYTE   W32
 BYTE   N32  En4
 BYTE   N32  Cn4
 BYTE   W04
 BYTE   N03  En4
 BYTE   N03  Cn4
 BYTE   W32
 BYTE   N32  Bn3
 BYTE   N32  En4
 BYTE   W04
 BYTE   N03  Bn3
 BYTE   N03  En4
 BYTE   W32
//  #05 //055   ----------------------------------------
 BYTE   N32  Gn3
 BYTE   N32  Bn3
 BYTE   W04
 BYTE   N03  Gn3
 BYTE   N03  Bn3
 BYTE   W32
 BYTE   N32  Gn3
 BYTE   N32  En3
 BYTE   W04
 BYTE   N03  Gn3
 BYTE   N03  En3
 BYTE   W32
 BYTE   N32  Gn3
 BYTE   N32  Bn3
 BYTE   W04
 BYTE   N03  Gn3
 BYTE   N03  Bn3
 BYTE   W32
//  #05 //056   ----------------------------------------
 BYTE   N07  Gn3
 BYTE   N07  As3
 BYTE   W12
 BYTE   An3
 BYTE   N07  Cn4
 BYTE   W12
 BYTE   Dn4
 BYTE   N07  As3
 BYTE   W12
 BYTE   As3
 BYTE   N07  Dn4
 BYTE   W12
 BYTE   Ds4
 BYTE   N07  Cn4
 BYTE   W12
 BYTE   As3
 BYTE   N07  Dn4
 BYTE   W12
 BYTE   Dn4
 BYTE   N07  Fn4
 BYTE   W12
 BYTE   Ds4
 BYTE   N07  Cn4
 BYTE   W12
//  #05 //057   ----------------------------------------
 BYTE   As3
 BYTE   N07  Dn4
 BYTE   W12
 BYTE   An3
 BYTE   N07  Cn4
 BYTE   W12
 BYTE   As3
 BYTE   N07  Gn3
 BYTE   W12
 BYTE   As3
 BYTE   N07  Dn4
 BYTE   W12
 BYTE   N68
 BYTE   N68  An3
 BYTE   W08
 BYTE   N03  Dn4
 BYTE   N03  An3
 BYTE   W60
//  #05 //058   ----------------------------------------
 BYTE   W03
//  #05 //059   ----------------------------------------
 BYTE   PATT
  POIN2 Label_0100DFCA
//  #05 //060   ----------------------------------------
 BYTE   N07  Cn4  v127
 BYTE   N07  Ds4
 BYTE   W12
 BYTE   Dn4
 BYTE   N07  Fn4
 BYTE   W12
 BYTE   Ds4
 BYTE   N07  Cn4
 BYTE   W12
 BYTE   Dn4
 BYTE   N07  As3
 BYTE   W12
 BYTE   Gn4
 BYTE   N07  Ds4
 BYTE   W12
 BYTE   Fn4
 BYTE   N07  Dn4
 BYTE   W12
 BYTE   Ds4
 BYTE   N07  Cn4
 BYTE   W12
 BYTE   As3
 BYTE   N07  Dn4
 BYTE   W12
//  #05 //061   ----------------------------------------
 BYTE   Cn4
 BYTE   N07  Ds4
 BYTE   W12
 BYTE   Fn4
 BYTE   N07  Dn4
 BYTE   W12
 BYTE   N23  En4
 BYTE   N23  An4
 BYTE   W36
 BYTE   Cn4
 BYTE   N23  En4
 BYTE   W36
//  #05 //062   ----------------------------------------
 BYTE   PATT
  POIN2 Label_0100E25F
//  #05 //063   ----------------------------------------
 BYTE   N07  Fn4  v127
 BYTE   N07  Gs4
 BYTE   W12
 BYTE   Cn4
 BYTE   N07  Fn4
 BYTE   W12
 BYTE   Gs4
 BYTE   N07  Cn5
 BYTE   W12
 BYTE   Gs4
 BYTE   N07  Fn4
 BYTE   W12
 BYTE   Cn4
 BYTE   N07  Fn4
 BYTE   W12
 BYTE   Gs4
 BYTE   N07  Fn4
 BYTE   W12
 BYTE   Gs3
 BYTE   N07  Cn4
 BYTE   W12
 BYTE   Fn4
 BYTE   N07  Cn4
 BYTE   W12
//  #05 //064   ----------------------------------------
 BYTE   Fn3
 BYTE   N07  Gs3
 BYTE   W12
 BYTE   Gs3
 BYTE   N07  Cn4
 BYTE   W96
//  #05 //065   ----------------------------------------
 BYTE   W96
//  #05 //066   ----------------------------------------
 BYTE   W96
//  #05 //067   ----------------------------------------
 BYTE   W96
//  #05 //068   ----------------------------------------
 BYTE   W96
//  #05 //069   ----------------------------------------
 BYTE   W96
//  #05 //070   ----------------------------------------
 BYTE   W76
 BYTE   W01
 BYTE   GoTo
  POIN2 Label_0100DF24
 BYTE   FINE

//**************** Track 6 (Midi-Chn.5) ****************//

BabiLighthouse_006:
//  #06 //000   ----------------------------------------
Label_010092C0:
 BYTE   TEMPO   112*BabiLighthouse_tbs/2
 BYTE   KEYSH   BabiLighthouse_key+0
 BYTE   VOICE   48
 BYTE   VOL   28*BabiLighthouse_mvl/mxv
 BYTE   PAN   c_v-9
 BYTE   W96
//  #06 //001   ----------------------------------------
 BYTE   W96
//  #06 //002   ----------------------------------------
 BYTE   W96
//  #06 //003   ----------------------------------------
 BYTE   W96
//  #06 //004   ----------------------------------------
 BYTE   W96
//  #06 //005   ----------------------------------------
 BYTE   W96
//  #06 //006   ----------------------------------------
 BYTE   W96
//  #06 //007   ----------------------------------------
 BYTE   W96
//  #06 //008   ----------------------------------------
 BYTE   W96
//  #06 //009   ----------------------------------------
 BYTE   W96
//  #06 //010   ----------------------------------------
 BYTE   W96
//  #06 //011   ----------------------------------------
 BYTE   W96
//  #06 //012   ----------------------------------------
Label_010092D6:
 BYTE   N11  An3  v127
 BYTE   W12
 BYTE   Gs3
 BYTE   W12
 BYTE   An3
 BYTE   W12
 BYTE   Bn3
 BYTE   W12
 BYTE   Cn4
 BYTE   W12
 BYTE   Dn4
 BYTE   W12
 BYTE   En4
 BYTE   W12
 BYTE   Fn4
 BYTE   W12
 BYTE   PEND 
//  #06 //013   ----------------------------------------
Label_010092E9:
 BYTE   N11  Dn4  v127
 BYTE   W12
 BYTE   En4
 BYTE   W12
 BYTE   Cn4
 BYTE   W12
 BYTE   Dn4
 BYTE   W12
 BYTE   An4
 BYTE   W12
 BYTE   Gs4
 BYTE   W12
 BYTE   An4
 BYTE   W12
 BYTE   Bn4
 BYTE   W12
 BYTE   PEND 
//  #06 //014   ----------------------------------------
Label_010092FC:
 BYTE   N11  Cn5  v127
 BYTE   W12
 BYTE   Dn5
 BYTE   W12
 BYTE   N05  En5
 BYTE   W06
 BYTE   Bn4
 BYTE   W06
 BYTE   An4
 BYTE   W06
 BYTE   En4
 BYTE   W06
 BYTE   An4
 BYTE   W06
 BYTE   Bn4
 BYTE   W06
 BYTE   En5
 BYTE   W06
 BYTE   Bn4
 BYTE   W06
 BYTE   Gs4
 BYTE   W06
 BYTE   En4
 BYTE   W06
 BYTE   Bn3
 BYTE   W06
 BYTE   Gs3
 BYTE   W06
 BYTE   PEND 
//  #06 //015   ----------------------------------------
Label_0100931C:
 BYTE   N11  An3  v127
 BYTE   W12
 BYTE   Gs3
 BYTE   W12
 BYTE   An3
 BYTE   W12
 BYTE   Bn3
 BYTE   W12
 BYTE   Cn4
 BYTE   W12
 BYTE   Dn4
 BYTE   W12
 BYTE   En4
 BYTE   W12
 BYTE   An4
 BYTE   W12
 BYTE   PEND 
//  #06 //016   ----------------------------------------
Label_0100932F:
 BYTE   N11  Gs4  v127
 BYTE   W12
 BYTE   An4
 BYTE   W12
 BYTE   Bn4
 BYTE   W12
 BYTE   Cn5
 BYTE   W12
 BYTE   N05  Dn5
 BYTE   W06
 BYTE   En5
 BYTE   W06
 BYTE   Cn5
 BYTE   W06
 BYTE   Dn5
 BYTE   W06
 BYTE   En5
 BYTE   W06
 BYTE   Fn5
 BYTE   W06
 BYTE   En5
 BYTE   W06
 BYTE   Dn5
 BYTE   W06
 BYTE   PEND 
//  #06 //017   ----------------------------------------
Label_0100934B:
 BYTE   N05  Cn5  v127
 BYTE   W06
 BYTE   Bn4
 BYTE   W06
 BYTE   An4
 BYTE   W06
 BYTE   Gs4
 BYTE   W06
 BYTE   N11  An4
 BYTE   W12
 BYTE   En5
 BYTE   W12
 BYTE   Dn5
 BYTE   W12
 BYTE   Cn5
 BYTE   W12
 BYTE   Bn4
 BYTE   W12
 BYTE   Gs4
 BYTE   W96
//  #06 //018   ----------------------------------------
 BYTE   W96
//  #06 //019   ----------------------------------------
 BYTE   W96
//  #06 //020   ----------------------------------------
 BYTE   W96
//  #06 //021   ----------------------------------------
 BYTE   W96
//  #06 //022   ----------------------------------------
 BYTE   W96
//  #06 //023   ----------------------------------------
 BYTE   W96
//  #06 //024   ----------------------------------------
 BYTE   W96
//  #06 //025   ----------------------------------------
 BYTE   W96
//  #06 //026   ----------------------------------------
 BYTE   W96
//  #06 //027   ----------------------------------------
 BYTE   W96
//  #06 //028   ----------------------------------------
 BYTE   W96
//  #06 //029   ----------------------------------------
 BYTE   W12
 BYTE   PEND 
Label_0100936F:
 BYTE   N11  An3  v127
 BYTE   W12
 BYTE   Gs3
 BYTE   W12
 BYTE   An3
 BYTE   W12
 BYTE   Bn3
 BYTE   W12
 BYTE   Cn4
 BYTE   W12
 BYTE   Dn4
 BYTE   W12
 BYTE   N32  Cs4  v110
 BYTE   N32  An3
 BYTE   W04
 BYTE   N03  Cs4
 BYTE   N03  An3
 BYTE   W32
 BYTE   PEND 
//  #06 //030   ----------------------------------------
 BYTE   N32  Dn4  v110
 BYTE   N32  Bn3
 BYTE   W04
 BYTE   N03  Dn4
 BYTE   N03  Bn3
 BYTE   W32
 BYTE   N32  Gs3
 BYTE   N32  Bn3
 BYTE   W04
 BYTE   N03  Gs3
 BYTE   N03  Bn3
 BYTE   W32
 BYTE   N32  An3
 BYTE   N32  Cs4
 BYTE   W04
 BYTE   N03  An3
 BYTE   N03  Cs4
 BYTE   W32
//  #06 //031   ----------------------------------------
 BYTE   N32  Fs4
 BYTE   N32  Cs4
 BYTE   W04
 BYTE   N03  Fs4
 BYTE   N03  Cs4
 BYTE   W32
 BYTE   N32  Fn4
 BYTE   N32  Cs4
 BYTE   W04
 BYTE   N03  Fn4
 BYTE   N03  Cs4
 BYTE   W32
 BYTE   N32  Fs4
 BYTE   N32  Cs4
 BYTE   W04
 BYTE   N03  Fs4
 BYTE   N03  Cs4
 BYTE   W32
//  #06 //032   ----------------------------------------
 BYTE   N32  Gs4
 BYTE   N32  Fn4
 BYTE   W04
 BYTE   N03  Gs4
 BYTE   N03  Fn4
 BYTE   W32
 BYTE   N32  An3
 BYTE   N32  Cs4
 BYTE   W04
 BYTE   N03  An3
 BYTE   N03  Cs4
 BYTE   W32
 BYTE   N32  Bn3
 BYTE   N32  Dn4
 BYTE   W04
 BYTE   N03  Bn3
 BYTE   N03  Dn4
 BYTE   W32
//  #06 //033   ----------------------------------------
 BYTE   N32  Bn3
 BYTE   N32  Gs3
 BYTE   W04
 BYTE   N03  Bn3
 BYTE   N03  Gs3
 BYTE   W32
 BYTE   N32  An3
 BYTE   N32  Cs4
 BYTE   W04
 BYTE   N03  An3
 BYTE   N03  Cs4
 BYTE   W32
 BYTE   N32
 BYTE   N32  Fs4
 BYTE   W04
 BYTE   N03  Cs4
 BYTE   N03  Fs4
 BYTE   W32
//  #06 //034   ----------------------------------------
 BYTE   N32  Fn4
 BYTE   N32  Cs4
 BYTE   W04
 BYTE   N03  Fn4
 BYTE   N03  Cs4
 BYTE   W32
 BYTE   N32
 BYTE   N32  Fs4
 BYTE   W04
 BYTE   N03  Cs4
 BYTE   N03  Fs4
 BYTE   W32
 BYTE   N32  Fn4
 BYTE   N32  Gs4
 BYTE   W04
 BYTE   N03  Fn4
 BYTE   N03  Gs4
 BYTE   W96
//  #06 //035   ----------------------------------------
 BYTE   W96
//  #06 //036   ----------------------------------------
 BYTE   W96
//  #06 //037   ----------------------------------------
 BYTE   W96
//  #06 //038   ----------------------------------------
 BYTE   W96
//  #06 //039   ----------------------------------------
 BYTE   W96
//  #06 //040   ----------------------------------------
 BYTE   W96
//  #06 //041   ----------------------------------------
 BYTE   W96
//  #06 //042   ----------------------------------------
 BYTE   W96
//  #06 //043   ----------------------------------------
 BYTE   W96
//  #06 //044   ----------------------------------------
 BYTE   W96
//  #06 //045   ----------------------------------------
 BYTE   W96
//  #06 //046   ----------------------------------------
 BYTE   W32
//  #06 //047   ----------------------------------------
 BYTE   PATT
  POIN2 Label_010092D6
//  #06 //048   ----------------------------------------
 BYTE   PATT
  POIN2 Label_010092E9
//  #06 //049   ----------------------------------------
 BYTE   PATT
  POIN2 Label_010092FC
//  #06 //050   ----------------------------------------
 BYTE   PATT
  POIN2 Label_0100931C
//  #06 //051   ----------------------------------------
 BYTE   PATT
  POIN2 Label_0100932F
//  #06 //052   ----------------------------------------
 BYTE   PATT
  POIN2 Label_0100934B
//  #06 //053   ----------------------------------------
 BYTE   PATT
  POIN2 Label_0100936F
//  #06 //054   ----------------------------------------
 BYTE   N32  Bn3  v110
 BYTE   N32  Dn4
 BYTE   W04
 BYTE   N03  Bn3
 BYTE   N03  Dn4
 BYTE   W32
 BYTE   N32  Bn3
 BYTE   N32  Gs3
 BYTE   W04
 BYTE   N03  Bn3
 BYTE   N03  Gs3
 BYTE   W32
 BYTE   N32  An3
 BYTE   N32  Cs4
 BYTE   W04
 BYTE   N03  An3
 BYTE   N03  Cs4
 BYTE   W32
//  #06 //055   ----------------------------------------
 BYTE   N32
 BYTE   N32  Fs4
 BYTE   W04
 BYTE   N03  Cs4
 BYTE   N03  Fs4
 BYTE   W32
 BYTE   N32  Cs4
 BYTE   N32  Fn4
 BYTE   W04
 BYTE   N03  Cs4
 BYTE   N03  Fn4
 BYTE   W32
 BYTE   N32  Fs4
 BYTE   N32  Cs4
 BYTE   W04
 BYTE   N03  Fs4
 BYTE   N03  Cs4
 BYTE   W32
//  #06 //056   ----------------------------------------
 BYTE   N32  Fn4
 BYTE   N32  Gs4
 BYTE   W04
 BYTE   N03  Fn4
 BYTE   N03  Gs4
 BYTE   W32
 BYTE   N32  Cs4
 BYTE   N32  An3
 BYTE   W04
 BYTE   N03  Cs4
 BYTE   N03  An3
 BYTE   W32
 BYTE   N32  Bn3
 BYTE   N32  Dn4
 BYTE   W04
 BYTE   N03  Bn3
 BYTE   N03  Dn4
 BYTE   W32
//  #06 //057   ----------------------------------------
 BYTE   N32  Gs3
 BYTE   N32  Bn3
 BYTE   W04
 BYTE   N03  Gs3
 BYTE   N03  Bn3
 BYTE   W32
 BYTE   N32  Cs4
 BYTE   N32  An3
 BYTE   W04
 BYTE   N03  Cs4
 BYTE   N03  An3
 BYTE   W32
 BYTE   N32  Cs4
 BYTE   N32  Fs4
 BYTE   W04
 BYTE   N03  Cs4
 BYTE   N03  Fs4
 BYTE   W32
//  #06 //058   ----------------------------------------
 BYTE   N32  Cs4
 BYTE   N32  Fn4
 BYTE   W04
 BYTE   N03  Cs4
 BYTE   N03  Fn4
 BYTE   W32
 BYTE   N32  Fs4
 BYTE   N32  Cs4
 BYTE   W04
 BYTE   N03  Fs4
 BYTE   N03  Cs4
 BYTE   W32
 BYTE   N32  Fn4
 BYTE   N32  Gs4
 BYTE   W04
 BYTE   N03  Fn4
 BYTE   N03  Gs4
 BYTE   W36
//  #06 //059   ----------------------------------------
 BYTE   W01
 BYTE   GoTo
  POIN2 Label_010092C0
 BYTE   FINE

//**************** Track 7 (Midi-Chn.6) ****************//

BabiLighthouse_007:
//  #07 //000   ----------------------------------------
Label_010094EC:
 BYTE   TEMPO   112*BabiLighthouse_tbs/2
 BYTE   KEYSH   BabiLighthouse_key+0
 BYTE   VOICE   48
 BYTE   VOL   28*BabiLighthouse_mvl/mxv
 BYTE   PAN   c_v+6
 BYTE   W96
//  #07 //001   ----------------------------------------
 BYTE   W96
//  #07 //002   ----------------------------------------
 BYTE   W96
//  #07 //003   ----------------------------------------
 BYTE   W96
//  #07 //004   ----------------------------------------
 BYTE   W96
//  #07 //005   ----------------------------------------
 BYTE   W96
//  #07 //006   ----------------------------------------
 BYTE   W96
//  #07 //007   ----------------------------------------
 BYTE   W96
//  #07 //008   ----------------------------------------
 BYTE   W96
//  #07 //009   ----------------------------------------
 BYTE   W96
//  #07 //010   ----------------------------------------
 BYTE   W96
//  #07 //011   ----------------------------------------
 BYTE   W96
//  #07 //012   ----------------------------------------
Label_01009502:
 BYTE   N05  An2  v127
 BYTE   W06
 BYTE   Bn2
 BYTE   W06
 BYTE   Cn3
 BYTE   W06
 BYTE   An2
 BYTE   W06
 BYTE   Bn2
 BYTE   W06
 BYTE   Cn3
 BYTE   W06
 BYTE   Dn3
 BYTE   W06
 BYTE   En3
 BYTE   W06
 BYTE   Dn3
 BYTE   W06
 BYTE   Cn3
 BYTE   W06
 BYTE   Bn2
 BYTE   W06
 BYTE   Gs2
 BYTE   W06
 BYTE   An2
 BYTE   W06
 BYTE   Gs2
 BYTE   W06
 BYTE   An2
 BYTE   W06
 BYTE   Bn2
 BYTE   W06
 BYTE   PEND 
//  #07 //013   ----------------------------------------
Label_01009525:
 BYTE   N05  Cn3  v127
 BYTE   W06
 BYTE   Dn3
 BYTE   W06
 BYTE   En3
 BYTE   W06
 BYTE   Fn3
 BYTE   W06
 BYTE   Dn3
 BYTE   W06
 BYTE   En3
 BYTE   W06
 BYTE   Cn3
 BYTE   W06
 BYTE   Dn3
 BYTE   W06
 BYTE   En3
 BYTE   W06
 BYTE   Fn3
 BYTE   W06
 BYTE   Dn3
 BYTE   W06
 BYTE   En3
 BYTE   W06
 BYTE   Cn3
 BYTE   W06
 BYTE   Dn3
 BYTE   W06
 BYTE   An2
 BYTE   W06
 BYTE   Gs2
 BYTE   W06
 BYTE   PEND 
//  #07 //014   ----------------------------------------
Label_01009548:
 BYTE   N05  An2  v127
 BYTE   W06
 BYTE   Bn2
 BYTE   W06
 BYTE   Cn3
 BYTE   W06
 BYTE   Dn3
 BYTE   W06
 BYTE   En3
 BYTE   W06
 BYTE   Dn3
 BYTE   W06
 BYTE   Cn3
 BYTE   W06
 BYTE   Bn2
 BYTE   W06
 BYTE   An2
 BYTE   W06
 BYTE   Bn2
 BYTE   W06
 BYTE   Gs2
 BYTE   W06
 BYTE   Bn2
 BYTE   W06
 BYTE   En3
 BYTE   W06
 BYTE   Bn2
 BYTE   W06
 BYTE   Gs2
 BYTE   W06
 BYTE   En2
 BYTE   W06
 BYTE   PEND 
//  #07 //015   ----------------------------------------
Label_0100956B:
 BYTE   N05  An2  v127
 BYTE   W06
 BYTE   Bn2
 BYTE   W06
 BYTE   Cn3
 BYTE   W06
 BYTE   Bn2
 BYTE   W06
 BYTE   Cn3
 BYTE   W06
 BYTE   Dn3
 BYTE   W06
 BYTE   Cn3
 BYTE   W06
 BYTE   Dn3
 BYTE   W06
 BYTE   En3
 BYTE   W06
 BYTE   Dn3
 BYTE   W06
 BYTE   En3
 BYTE   W06
 BYTE   Fn3
 BYTE   W06
 BYTE   An3
 BYTE   W06
 BYTE   Gs3
 BYTE   W06
 BYTE   An3
 BYTE   W06
 BYTE   Bn3
 BYTE   W06
 BYTE   PEND 
//  #07 //016   ----------------------------------------
Label_0100958E:
 BYTE   N05  Fn3  v127
 BYTE   W06
 BYTE   En3
 BYTE   W06
 BYTE   Dn3
 BYTE   W06
 BYTE   Cn3
 BYTE   W06
 BYTE   Bn2
 BYTE   W06
 BYTE   An2
 BYTE   W06
 BYTE   Gs2
 BYTE   W06
 BYTE   Bn2
 BYTE   W06
 BYTE   Gs2
 BYTE   W06
 BYTE   An2
 BYTE   W06
 BYTE   Bn2
 BYTE   W06
 BYTE   An2
 BYTE   W06
 BYTE   Bn2
 BYTE   W06
 BYTE   Cn3
 BYTE   W06
 BYTE   Bn2
 BYTE   W06
 BYTE   Cn3
 BYTE   W06
 BYTE   PEND 
//  #07 //017   ----------------------------------------
Label_010095B1:
 BYTE   N05  Dn3  v127
 BYTE   W06
 BYTE   Cn3
 BYTE   W06
 BYTE   Dn3
 BYTE   W06
 BYTE   En3
 BYTE   W06
 BYTE   An2
 BYTE   W06
 BYTE   En3
 BYTE   W06
 BYTE   Dn3
 BYTE   W06
 BYTE   En3
 BYTE   W06
 BYTE   Cn3
 BYTE   W06
 BYTE   En3
 BYTE   W06
 BYTE   Gs2
 BYTE   W06
 BYTE   Bn2
 BYTE   W06
 BYTE   En3
 BYTE   W06
 BYTE   Bn2
 BYTE   W06
 BYTE   Gs2
 BYTE   W06
 BYTE   En2
 BYTE   W96
//  #07 //018   ----------------------------------------
 BYTE   W96
//  #07 //019   ----------------------------------------
 BYTE   W96
//  #07 //020   ----------------------------------------
 BYTE   W96
//  #07 //021   ----------------------------------------
 BYTE   W96
//  #07 //022   ----------------------------------------
 BYTE   W96
//  #07 //023   ----------------------------------------
 BYTE   W96
//  #07 //024   ----------------------------------------
 BYTE   W96
//  #07 //025   ----------------------------------------
 BYTE   W96
//  #07 //026   ----------------------------------------
 BYTE   W96
//  #07 //027   ----------------------------------------
 BYTE   W96
//  #07 //028   ----------------------------------------
 BYTE   W96
//  #07 //029   ----------------------------------------
 BYTE   W06
 BYTE   PEND 
 BYTE   N05  An2  v127
 BYTE   W06
 BYTE   Bn2
 BYTE   W06
 BYTE   Cn3
 BYTE   W06
 BYTE   An2
 BYTE   W06
 BYTE   Bn2
 BYTE   W06
 BYTE   Cn3
 BYTE   W06
 BYTE   Dn3
 BYTE   W06
 BYTE   En3
 BYTE   W06
 BYTE   Dn3
 BYTE   W06
 BYTE   Cn3
 BYTE   W06
 BYTE   Bn2
 BYTE   W06
 BYTE   Gs2
 BYTE   W96
//  #07 //030   ----------------------------------------
 BYTE   W96
//  #07 //031   ----------------------------------------
 BYTE   W96
//  #07 //032   ----------------------------------------
 BYTE   W96
//  #07 //033   ----------------------------------------
 BYTE   W96
//  #07 //034   ----------------------------------------
 BYTE   W96
//  #07 //035   ----------------------------------------
 BYTE   W96
//  #07 //036   ----------------------------------------
 BYTE   W96
//  #07 //037   ----------------------------------------
 BYTE   W96
//  #07 //038   ----------------------------------------
 BYTE   W96
//  #07 //039   ----------------------------------------
 BYTE   W96
//  #07 //040   ----------------------------------------
 BYTE   W96
//  #07 //041   ----------------------------------------
 BYTE   W96
//  #07 //042   ----------------------------------------
 BYTE   W96
//  #07 //043   ----------------------------------------
 BYTE   W96
//  #07 //044   ----------------------------------------
 BYTE   W96
//  #07 //045   ----------------------------------------
 BYTE   W96
//  #07 //046   ----------------------------------------
 BYTE   W96
//  #07 //047   ----------------------------------------
 BYTE   W06
//  #07 //048   ----------------------------------------
 BYTE   PATT
  POIN2 Label_01009502
//  #07 //049   ----------------------------------------
 BYTE   PATT
  POIN2 Label_01009525
//  #07 //050   ----------------------------------------
 BYTE   PATT
  POIN2 Label_01009548
//  #07 //051   ----------------------------------------
 BYTE   PATT
  POIN2 Label_0100956B
//  #07 //052   ----------------------------------------
 BYTE   PATT
  POIN2 Label_0100958E
//  #07 //053   ----------------------------------------
 BYTE   PATT
  POIN2 Label_010095B1
//  #07 //054   ----------------------------------------
 BYTE   N05  An2  v127
 BYTE   W06
 BYTE   Bn2
 BYTE   W06
 BYTE   Cn3
 BYTE   W06
 BYTE   An2
 BYTE   W06
 BYTE   Bn2
 BYTE   W06
 BYTE   Cn3
 BYTE   W06
 BYTE   Dn3
 BYTE   W06
 BYTE   En3
 BYTE   W06
 BYTE   Dn3
 BYTE   W06
 BYTE   Cn3
 BYTE   W06
 BYTE   Bn2
 BYTE   W06
 BYTE   Gs2
 BYTE   W96
//  #07 //055   ----------------------------------------
 BYTE   W96
//  #07 //056   ----------------------------------------
 BYTE   W96
//  #07 //057   ----------------------------------------
 BYTE   W96
//  #07 //058   ----------------------------------------
 BYTE   W96
//  #07 //059   ----------------------------------------
 BYTE   W96
//  #07 //060   ----------------------------------------
 BYTE   W11
 BYTE   GoTo
  POIN2 Label_010094EC
 BYTE   FINE

//**************** Track 8 (Midi-Chn.7) ****************//

BabiLighthouse_008:
//  #08 //000   ----------------------------------------
Label_0100CF50:
 BYTE   TEMPO   112*BabiLighthouse_tbs/2
 BYTE   KEYSH   BabiLighthouse_key+0
 BYTE   VOICE   127
 BYTE   VOL   58*BabiLighthouse_mvl/mxv
 BYTE   BEND   c_v+32
 BYTE   N11  Cn1  v127
 BYTE   N11  Cs2
 BYTE   W12
 BYTE   Fs1
 BYTE   W12
 BYTE   Fs1
 BYTE   W12
 BYTE   En1
 BYTE   N11  Dn1  v064
 BYTE   W12
 BYTE   Fs1  v127
 BYTE   W12
 BYTE   Fs1
 BYTE   W12
 BYTE   Cn1
 BYTE   W12
 BYTE   Fs1
 BYTE   W06
 BYTE   N05  Cn1  v101
 BYTE   W06
//  #08 //001   ----------------------------------------
Label_0100CF76:
 BYTE   N11  Fs1  v127
 BYTE   W12
 BYTE   En1
 BYTE   N11  Dn1  v064
 BYTE   W12
 BYTE   Fs1  v127
 BYTE   W12
 BYTE   Fs1
 BYTE   W12
 BYTE   Cn1
 BYTE   W12
 BYTE   Fs1
 BYTE   W12
 BYTE   Fs1
 BYTE   W12
 BYTE   Dn1  v064
 BYTE   N11  En1  v127
 BYTE   W12
 BYTE   PEND 
//  #08 //002   ----------------------------------------
Label_0100CF91:
 BYTE   N11  Fs1  v127
 BYTE   W12
 BYTE   Fs1
 BYTE   W12
 BYTE   Cn1
 BYTE   W12
 BYTE   Fs1
 BYTE   W06
 BYTE   N05  Cn1  v101
 BYTE   W06
 BYTE   N11  Fs1  v127
 BYTE   W12
 BYTE   Dn1  v064
 BYTE   N11  En1  v127
 BYTE   W12
 BYTE   Fs1
 BYTE   W12
 BYTE   Fs1
 BYTE   W12
 BYTE   PEND 
//  #08 //003   ----------------------------------------
Label_0100CFAE:
 BYTE   N11  Cn1  v127
 BYTE   W12
 BYTE   Fs1
 BYTE   W12
 BYTE   Fs1
 BYTE   W12
 BYTE   Dn1  v064
 BYTE   N11  En1  v127
 BYTE   W12
 BYTE   Fs1
 BYTE   W12
 BYTE   Fs1
 BYTE   W12
 BYTE   Cn1
 BYTE   W12
 BYTE   Fs1
 BYTE   W06
 BYTE   N05  Cn1  v101
 BYTE   W06
 BYTE   PEND 
//  #08 //004   ----------------------------------------
Label_0100CFC9:
 BYTE   N11  Fs1  v127
 BYTE   W12
 BYTE   Dn1  v064
 BYTE   N11  En1  v127
 BYTE   W12
 BYTE   Fs1
 BYTE   W12
 BYTE   Fs1
 BYTE   W12
 BYTE   Cn1
 BYTE   W12
 BYTE   Fs1
 BYTE   W12
 BYTE   Fs1
 BYTE   W12
 BYTE   Dn1  v064
 BYTE   N11  En1  v127
 BYTE   W12
 BYTE   PEND 
//  #08 //005   ----------------------------------------
 BYTE   N11  Fs1  v127
 BYTE   W12
 BYTE   Fs1
 BYTE   W12
 BYTE   Cn1
 BYTE   W12
 BYTE   Fs1
 BYTE   W06
 BYTE   N05  Cn1  v101
 BYTE   W06
 BYTE   N11  Fs1  v127
 BYTE   W12
 BYTE   En1
 BYTE   N11  Dn1  v064
 BYTE   W12
 BYTE   N05  En1  v127
 BYTE   N05  Dn1  v064
 BYTE   W06
 BYTE   En1  v127
 BYTE   N05  Dn1  v064
 BYTE   W06
 BYTE   En1  v127
 BYTE   N05  Dn1  v064
 BYTE   W06
 BYTE   Dn1
 BYTE   N05  En1  v127
 BYTE   W06
//  #08 //006   ----------------------------------------
Label_0100D013:
 BYTE   N11  Cs2  v127
 BYTE   N11  Cn1
 BYTE   W12
 BYTE   Fs1
 BYTE   W12
 BYTE   Fs1
 BYTE   W12
 BYTE   Dn1  v064
 BYTE   N11  En1  v127
 BYTE   W12
 BYTE   Fs1
 BYTE   W12
 BYTE   Fs1
 BYTE   W12
 BYTE   Cn1
 BYTE   W12
 BYTE   Fs1
 BYTE   W06
 BYTE   N05  Cn1  v101
 BYTE   W06
 BYTE   PEND 
//  #08 //007   ----------------------------------------
 BYTE   PATT
  POIN2 Label_0100CFC9
//  #08 //008   ----------------------------------------
 BYTE   PATT
  POIN2 Label_0100CF91
//  #08 //009   ----------------------------------------
Label_0100D03A:
 BYTE   N11  Cn1  v127
 BYTE   W12
 BYTE   Fs1
 BYTE   W12
 BYTE   Fs1
 BYTE   W12
 BYTE   En1
 BYTE   N11  Dn1  v064
 BYTE   W12
 BYTE   Fs1  v127
 BYTE   W12
 BYTE   Fs1
 BYTE   W12
 BYTE   Cn1
 BYTE   W12
 BYTE   Fs1
 BYTE   W06
 BYTE   N05  Cn1  v101
 BYTE   W06
 BYTE   PEND 
//  #08 //010   ----------------------------------------
Label_0100D055:
 BYTE   N11  Fs1  v127
 BYTE   W12
 BYTE   Dn1  v064
 BYTE   N11  En1  v127
 BYTE   W12
 BYTE   Fs1
 BYTE   W12
 BYTE   Fs1
 BYTE   W12
 BYTE   Cn1
 BYTE   W12
 BYTE   Fs1
 BYTE   W12
 BYTE   Fs1
 BYTE   W12
 BYTE   En1
 BYTE   N11  Dn1  v064
 BYTE   W12
 BYTE   PEND 
//  #08 //011   ----------------------------------------
 BYTE   N11  Fs1  v127
 BYTE   W12
 BYTE   Fs1
 BYTE   W12
 BYTE   Cn1
 BYTE   W12
 BYTE   Fs1
 BYTE   W06
 BYTE   N05  Cn1  v101
 BYTE   W06
 BYTE   N11  Fs1  v127
 BYTE   W12
 BYTE   Dn1  v064
 BYTE   N11  En1  v127
 BYTE   W12
 BYTE   N05  Cn2
 BYTE   W06
 BYTE   An1
 BYTE   W06
 BYTE   An1
 BYTE   W06
 BYTE   Cn1
 BYTE   W06
//  #08 //012   ----------------------------------------
 BYTE   N11
 BYTE   N11  Cs2
 BYTE   W12
 BYTE   Ds2
 BYTE   W12
 BYTE   Ds2
 BYTE   W12
 BYTE   Dn1  v064
 BYTE   N11  En1  v127
 BYTE   W12
 BYTE   Ds2
 BYTE   W12
 BYTE   Ds2
 BYTE   W12
 BYTE   Cn1
 BYTE   W12
 BYTE   Ds2
 BYTE   W12
//  #08 //013   ----------------------------------------
 BYTE   Ds2
 BYTE   W12
 BYTE   Dn1  v064
 BYTE   N11  En1  v127
 BYTE   W12
 BYTE   Ds2
 BYTE   W12
 BYTE   Ds2
 BYTE   W12
 BYTE   Cn1
 BYTE   W12
 BYTE   Ds2
 BYTE   W12
 BYTE   Ds2
 BYTE   W12
 BYTE   Dn1  v064
 BYTE   N11  En1  v127
 BYTE   W12
//  #08 //014   ----------------------------------------
 BYTE   Ds2
 BYTE   W12
 BYTE   Ds2
 BYTE   W12
 BYTE   N05  Cn2
 BYTE   W06
 BYTE   Cn2
 BYTE   W06
 BYTE   Cn2
 BYTE   W06
 BYTE   An1
 BYTE   W06
 BYTE   An1
 BYTE   W06
 BYTE   Cn1
 BYTE   W06
 BYTE   Cn2
 BYTE   W06
 BYTE   Cn2
 BYTE   W06
 BYTE   An1
 BYTE   W06
 BYTE   An1
 BYTE   W06
 BYTE   Cn1
 BYTE   W06
 BYTE   Cn1
 BYTE   W06
//  #08 //015   ----------------------------------------
 BYTE   N11  Cs2
 BYTE   N11  Cn1
 BYTE   W12
 BYTE   Ds2
 BYTE   W12
 BYTE   Ds2
 BYTE   W12
 BYTE   Dn1  v064
 BYTE   N11  En1  v127
 BYTE   W12
 BYTE   Ds2
 BYTE   W12
 BYTE   Ds2
 BYTE   W12
 BYTE   Cn1
 BYTE   W12
 BYTE   Ds2
 BYTE   W12
//  #08 //016   ----------------------------------------
 BYTE   Ds2
 BYTE   W12
 BYTE   En1
 BYTE   N11  Dn1  v064
 BYTE   W12
 BYTE   Ds2  v127
 BYTE   W12
 BYTE   Ds2
 BYTE   W12
 BYTE   Cn1
 BYTE   W12
 BYTE   Ds2
 BYTE   W12
 BYTE   Ds2
 BYTE   W12
 BYTE   Dn1  v064
 BYTE   N11  En1  v127
 BYTE   W12
//  #08 //017   ----------------------------------------
 BYTE   Ds2
 BYTE   W12
 BYTE   Ds2
 BYTE   W12
 BYTE   Cn1
 BYTE   W12
 BYTE   En1
 BYTE   N11  Cs2
 BYTE   N11  Dn1  v064
 BYTE   W12
 BYTE   Cn1  v127
 BYTE   W12
 BYTE   N05  En1
 BYTE   N05  Dn1  v064
 BYTE   W06
 BYTE   En1  v127
 BYTE   N05  Dn1  v064
 BYTE   W06
 BYTE   Cn2  v127
 BYTE   W06
 BYTE   Cn2
 BYTE   W06
 BYTE   An1
 BYTE   W06
 BYTE   Cn1
 BYTE   W06
//  #08 //018   ----------------------------------------
 BYTE   PATT
  POIN2 Label_0100D013
//  #08 //019   ----------------------------------------
Label_0100D134:
 BYTE   N11  Fs1  v127
 BYTE   W12
 BYTE   En1
 BYTE   N11  Dn1  v064
 BYTE   W12
 BYTE   Fs1  v127
 BYTE   W12
 BYTE   Fs1
 BYTE   W12
 BYTE   Cn1
 BYTE   W12
 BYTE   Fs1
 BYTE   W12
 BYTE   Fs1
 BYTE   W12
 BYTE   En1
 BYTE   N11  Dn1  v064
 BYTE   W12
 BYTE   PEND 
//  #08 //020   ----------------------------------------
 BYTE   PATT
  POIN2 Label_0100CF91
//  #08 //021   ----------------------------------------
 BYTE   PATT
  POIN2 Label_0100D03A
//  #08 //022   ----------------------------------------
 BYTE   PATT
  POIN2 Label_0100D134
//  #08 //023   ----------------------------------------
 BYTE   N11  Fs1  v127
 BYTE   W12
 BYTE   Fs1
 BYTE   W12
 BYTE   Cn1
 BYTE   W12
 BYTE   Fs1
 BYTE   W06
 BYTE   N05  Cn1  v101
 BYTE   W06
 BYTE   N11  Fs1  v127
 BYTE   W12
 BYTE   En1
 BYTE   N11  Dn1  v064
 BYTE   W12
 BYTE   N05  En1  v127
 BYTE   N05  Dn1  v064
 BYTE   W06
 BYTE   Dn1
 BYTE   N05  En1  v127
 BYTE   W06
 BYTE   En1
 BYTE   N05  Dn1  v064
 BYTE   W06
 BYTE   En1  v127
 BYTE   N05  Dn1  v064
 BYTE   W06
//  #08 //024   ----------------------------------------
 BYTE   PATT
  POIN2 Label_0100D013
//  #08 //025   ----------------------------------------
 BYTE   PATT
  POIN2 Label_0100D055
//  #08 //026   ----------------------------------------
 BYTE   N11  Fs1  v127
 BYTE   W12
 BYTE   Fs1
 BYTE   W12
 BYTE   Cn1
 BYTE   W12
 BYTE   Fs1
 BYTE   W06
 BYTE   N05  Cn1  v101
 BYTE   W06
 BYTE   N11  Fs1  v127
 BYTE   W12
 BYTE   En1
 BYTE   N11  Dn1  v064
 BYTE   W12
 BYTE   Fs1  v127
 BYTE   W12
 BYTE   Fs1
 BYTE   W12
//  #08 //027   ----------------------------------------
 BYTE   PATT
  POIN2 Label_0100CFAE
//  #08 //028   ----------------------------------------
 BYTE   PATT
  POIN2 Label_0100CF76
//  #08 //029   ----------------------------------------
 BYTE   N11  Fs1  v127
 BYTE   W12
 BYTE   Fs1
 BYTE   W12
 BYTE   Cn1
 BYTE   W12
 BYTE   Fs1
 BYTE   W06
 BYTE   N05  Cn1  v101
 BYTE   W06
 BYTE   N11  Fs1  v127
 BYTE   W12
 BYTE   En1
 BYTE   N11  Dn1  v064
 BYTE   W12
 BYTE   N05  Cn2  v127
 BYTE   W06
 BYTE   An1
 BYTE   W06
 BYTE   An1
 BYTE   W06
 BYTE   Cn1
 BYTE   W06
//  #08 //030   ----------------------------------------
 BYTE   N22  Cs2
 BYTE   N22  Cn1
 BYTE   W24
 BYTE   N11
 BYTE   W12
 BYTE   N05  Cn2
 BYTE   W06
 BYTE   Cn2
 BYTE   W06
 BYTE   An1
 BYTE   W06
 BYTE   An1
 BYTE   W06
 BYTE   Cn1
 BYTE   W06
 BYTE   Cn1
 BYTE   W06
 BYTE   N11
 BYTE   N11  Cs2
 BYTE   W12
 BYTE   Cn1
 BYTE   W12
//  #08 //031   ----------------------------------------
 BYTE   Cn1
 BYTE   W12
 BYTE   N05  En1
 BYTE   N05  Dn1  v064
 BYTE   W06
 BYTE   En1  v127
 BYTE   N05  Dn1  v064
 BYTE   W06
 BYTE   N11  Cn1  v127
 BYTE   W12
 BYTE   Cn1
 BYTE   W12
 BYTE   Cn1
 BYTE   W12
 BYTE   Cn1
 BYTE   W12
 BYTE   Cn1
 BYTE   W12
 BYTE   N05  En1
 BYTE   N05  Dn1  v064
 BYTE   W06
 BYTE   Dn1
 BYTE   N05  En1  v127
 BYTE   W06
//  #08 //032   ----------------------------------------
 BYTE   N11  Cn1
 BYTE   W12
 BYTE   Cn1
 BYTE   W12
 BYTE   Cn1
 BYTE   W12
 BYTE   Cn1
 BYTE   W12
 BYTE   Cn1
 BYTE   W12
 BYTE   N05  Dn1  v064
 BYTE   N05  En1  v127
 BYTE   W06
 BYTE   En1
 BYTE   N05  Dn1  v064
 BYTE   W06
 BYTE   N11  Cn1  v127
 BYTE   W12
 BYTE   Cn1
 BYTE   W12
//  #08 //033   ----------------------------------------
 BYTE   Cn1
 BYTE   W12
 BYTE   Cn1
 BYTE   W12
 BYTE   Cn1
 BYTE   W12
 BYTE   N05  En1
 BYTE   N05  Dn1  v064
 BYTE   W06
 BYTE   Dn1
 BYTE   N05  En1  v127
 BYTE   W06
 BYTE   N11  Cn1
 BYTE   W12
 BYTE   Cn1
 BYTE   W12
 BYTE   Cn1
 BYTE   W12
 BYTE   Fs1
 BYTE   W12
//  #08 //034   ----------------------------------------
 BYTE   Fs1
 BYTE   W12
 BYTE   En1
 BYTE   N11  Dn1  v064
 BYTE   W12
 BYTE   Fs1  v127
 BYTE   W12
 BYTE   Fs1
 BYTE   W12
 BYTE   Cn1
 BYTE   W12
 BYTE   Fs1
 BYTE   W06
 BYTE   N05  Cn1  v101
 BYTE   W06
 BYTE   N11  Fs1  v127
 BYTE   W12
 BYTE   Dn1  v064
 BYTE   N11  En1  v127
 BYTE   W12
//  #08 //035   ----------------------------------------
 BYTE   Fs1
 BYTE   W12
 BYTE   Fs1
 BYTE   W12
 BYTE   Cn1
 BYTE   W12
 BYTE   Fs1
 BYTE   W12
 BYTE   Fs1
 BYTE   W12
 BYTE   En1
 BYTE   N11  Dn1  v064
 BYTE   W12
 BYTE   Fs1  v127
 BYTE   W12
 BYTE   Fs1
 BYTE   W12
//  #08 //036   ----------------------------------------
 BYTE   Cn1
 BYTE   W12
 BYTE   Fs1
 BYTE   W06
 BYTE   N05  Cn1  v101
 BYTE   W06
 BYTE   N11  Fs1  v127
 BYTE   W12
 BYTE   En1
 BYTE   N11  Dn1  v064
 BYTE   N11  Cs2  v127
 BYTE   W12
 BYTE   N05  En1
 BYTE   N05  Dn1  v064
 BYTE   W06
 BYTE   Dn1
 BYTE   N05  En1  v127
 BYTE   W06
 BYTE   En1
 BYTE   N05  Dn1  v064
 BYTE   W06
 BYTE   En1  v127
 BYTE   N05  Dn1  v064
 BYTE   W06
 BYTE   BEND   c_v+32
 BYTE   N11  Cn1  v127
 BYTE   N11  Cs2
 BYTE   W12
 BYTE   Fs1
 BYTE   W12
//  #08 //037   ----------------------------------------
 BYTE   Fs1
 BYTE   W12
 BYTE   Dn1  v064
 BYTE   N11  En1  v127
 BYTE   W12
 BYTE   Fs1
 BYTE   W12
 BYTE   Fs1
 BYTE   W12
 BYTE   Cn1
 BYTE   W12
 BYTE   Fs1
 BYTE   W06
 BYTE   N05  Cn1  v101
 BYTE   W06
 BYTE   N11  Fs1  v127
 BYTE   W12
 BYTE   En1
 BYTE   N11  Dn1  v064
 BYTE   W12
//  #08 //038   ----------------------------------------
 BYTE   Fs1  v127
 BYTE   W12
 BYTE   Fs1
 BYTE   W12
 BYTE   Cn1
 BYTE   W12
 BYTE   Fs1
 BYTE   W12
 BYTE   Fs1
 BYTE   W12
 BYTE   En1
 BYTE   N11  Dn1  v064
 BYTE   W12
 BYTE   Fs1  v127
 BYTE   W12
 BYTE   Fs1
 BYTE   W12
//  #08 //039   ----------------------------------------
 BYTE   Cn1
 BYTE   W12
 BYTE   Fs1
 BYTE   W06
 BYTE   N05  Cn1  v101
 BYTE   W06
 BYTE   N11  Fs1  v127
 BYTE   W12
 BYTE   En1
 BYTE   N11  Dn1  v064
 BYTE   W12
 BYTE   Fs1  v127
 BYTE   W12
 BYTE   Fs1
 BYTE   W12
 BYTE   Cn1
 BYTE   W12
 BYTE   Fs1
 BYTE   W12
//  #08 //040   ----------------------------------------
 BYTE   Fs1
 BYTE   W12
 BYTE   Dn1  v064
 BYTE   N11  En1  v127
 BYTE   W12
 BYTE   Fs1
 BYTE   W12
 BYTE   Fs1
 BYTE   W12
 BYTE   Cn1
 BYTE   W12
 BYTE   Fs1
 BYTE   W06
 BYTE   N05  Cn1  v101
 BYTE   W06
 BYTE   N11  Fs1  v127
 BYTE   W12
 BYTE   En1
 BYTE   N11  Dn1  v064
 BYTE   W12
//  #08 //041   ----------------------------------------
 BYTE   Fs1  v127
 BYTE   W12
 BYTE   Fs1
 BYTE   W12
 BYTE   Cn1
 BYTE   W12
 BYTE   Fs1
 BYTE   W12
 BYTE   Fs1
 BYTE   W12
 BYTE   En1
 BYTE   N11  Dn1  v064
 BYTE   W12
 BYTE   Fs1  v127
 BYTE   W12
 BYTE   Fs1
 BYTE   W12
//  #08 //042   ----------------------------------------
 BYTE   Cn1
 BYTE   W12
 BYTE   Fs1
 BYTE   W06
 BYTE   N05  Cn1  v101
 BYTE   W06
 BYTE   N11  Fs1  v127
 BYTE   W12
 BYTE   Dn1  v064
 BYTE   N11  En1  v127
 BYTE   W12
 BYTE   N05
 BYTE   N05  Dn1  v064
 BYTE   W06
 BYTE   En1  v127
 BYTE   N05  Dn1  v064
 BYTE   W06
 BYTE   En1  v127
 BYTE   N05  Dn1  v064
 BYTE   W06
 BYTE   En1  v127
 BYTE   N05  Dn1  v064
 BYTE   W06
 BYTE   N11  Cs2  v127
 BYTE   N11  Cn1
 BYTE   W12
 BYTE   Fs1
 BYTE   W12
//  #08 //043   ----------------------------------------
 BYTE   Fs1
 BYTE   W12
 BYTE   Dn1  v064
 BYTE   N11  En1  v127
 BYTE   W12
 BYTE   Fs1
 BYTE   W12
 BYTE   Fs1
 BYTE   W12
 BYTE   Cn1
 BYTE   W12
 BYTE   Fs1
 BYTE   W06
 BYTE   N05  Cn1  v101
 BYTE   W06
 BYTE   N11  Fs1  v127
 BYTE   W12
 BYTE   En1
 BYTE   N11  Dn1  v064
 BYTE   W12
//  #08 //044   ----------------------------------------
 BYTE   Fs1  v127
 BYTE   W12
 BYTE   Fs1
 BYTE   W12
 BYTE   Cn1
 BYTE   W12
 BYTE   Fs1
 BYTE   W12
 BYTE   Fs1
 BYTE   W12
 BYTE   En1
 BYTE   N11  Dn1  v064
 BYTE   W12
 BYTE   Fs1  v127
 BYTE   W12
 BYTE   Fs1
 BYTE   W12
//  #08 //045   ----------------------------------------
 BYTE   Cn1
 BYTE   W12
 BYTE   Fs1
 BYTE   W06
 BYTE   N05  Cn1  v101
 BYTE   W06
 BYTE   N11  Fs1  v127
 BYTE   W12
 BYTE   En1
 BYTE   N11  Dn1  v064
 BYTE   W12
 BYTE   Fs1  v127
 BYTE   W12
 BYTE   Fs1
 BYTE   W12
 BYTE   Cn1
 BYTE   W12
 BYTE   Fs1
 BYTE   W12
//  #08 //046   ----------------------------------------
 BYTE   Fs1
 BYTE   W12
 BYTE   En1
 BYTE   N11  Dn1  v064
 BYTE   W12
 BYTE   Fs1  v127
 BYTE   W12
 BYTE   Fs1
 BYTE   W12
 BYTE   Cn1
 BYTE   W12
 BYTE   Fs1
 BYTE   W06
 BYTE   N05  Cn1  v101
 BYTE   W06
 BYTE   N11  Fs1  v127
 BYTE   W12
 BYTE   En1
 BYTE   N11  Dn1  v064
 BYTE   W12
//  #08 //047   ----------------------------------------
 BYTE   Fs1  v127
 BYTE   W12
 BYTE   Fs1
 BYTE   W12
 BYTE   Cn1
 BYTE   W12
 BYTE   Fs1
 BYTE   W12
 BYTE   Fs1
 BYTE   W12
 BYTE   En1
 BYTE   N11  Dn1  v064
 BYTE   W12
 BYTE   Fs1  v127
 BYTE   W12
 BYTE   Fs1
 BYTE   W12
//  #08 //048   ----------------------------------------
 BYTE   Cn1
 BYTE   W12
 BYTE   Fs1
 BYTE   W06
 BYTE   N05  Cn1  v101
 BYTE   W06
 BYTE   N11  Fs1  v127
 BYTE   W12
 BYTE   Dn1  v064
 BYTE   N11  En1  v127
 BYTE   W12
 BYTE   N05  Cn2
 BYTE   W06
 BYTE   An1
 BYTE   W06
 BYTE   An1
 BYTE   W06
 BYTE   Cn1
 BYTE   W06
 BYTE   N11  Cs2
 BYTE   N11  Cn1
 BYTE   W12
 BYTE   Ds2
 BYTE   W12
//  #08 //049   ----------------------------------------
 BYTE   Ds2
 BYTE   W12
 BYTE   En1
 BYTE   N11  Dn1  v064
 BYTE   W12
 BYTE   Ds2  v127
 BYTE   W12
 BYTE   Ds2
 BYTE   W12
 BYTE   Cn1
 BYTE   W12
 BYTE   Ds2
 BYTE   W12
 BYTE   Ds2
 BYTE   W12
 BYTE   En1
 BYTE   N11  Dn1  v064
 BYTE   W12
//  #08 //050   ----------------------------------------
 BYTE   Ds2  v127
 BYTE   W12
 BYTE   Ds2
 BYTE   W12
 BYTE   Cn1
 BYTE   W12
 BYTE   Ds2
 BYTE   W12
 BYTE   Ds2
 BYTE   W12
 BYTE   En1
 BYTE   N11  Dn1  v064
 BYTE   W12
 BYTE   Ds2  v127
 BYTE   W12
 BYTE   Ds2
 BYTE   W12
//  #08 //051   ----------------------------------------
 BYTE   N05  Cn2
 BYTE   W06
 BYTE   Cn2
 BYTE   W06
 BYTE   Cn2
 BYTE   W06
 BYTE   An1
 BYTE   W06
 BYTE   An1
 BYTE   W06
 BYTE   Cn1
 BYTE   W06
 BYTE   Cn2
 BYTE   W06
 BYTE   Cn2
 BYTE   W06
 BYTE   An1
 BYTE   W06
 BYTE   An1
 BYTE   W06
 BYTE   Cn1
 BYTE   W06
 BYTE   Cn1
 BYTE   W06
 BYTE   N11
 BYTE   N11  Cs2
 BYTE   W12
 BYTE   Ds2
 BYTE   W12
//  #08 //052   ----------------------------------------
 BYTE   Ds2
 BYTE   W12
 BYTE   Dn1  v064
 BYTE   N11  En1  v127
 BYTE   W12
 BYTE   Ds2
 BYTE   W12
 BYTE   Ds2
 BYTE   W12
 BYTE   Cn1
 BYTE   W12
 BYTE   Ds2
 BYTE   W12
 BYTE   Ds2
 BYTE   W12
 BYTE   En1
 BYTE   N11  Dn1  v064
 BYTE   W12
//  #08 //053   ----------------------------------------
 BYTE   Ds2  v127
 BYTE   W12
 BYTE   Ds2
 BYTE   W12
 BYTE   Cn1
 BYTE   W12
 BYTE   Ds2
 BYTE   W12
 BYTE   Ds2
 BYTE   W12
 BYTE   Dn1  v064
 BYTE   N11  En1  v127
 BYTE   W12
 BYTE   Ds2
 BYTE   W12
 BYTE   Ds2
 BYTE   W12
//  #08 //054   ----------------------------------------
 BYTE   Cn1
 BYTE   W12
 BYTE   Cs2
 BYTE   N11  En1
 BYTE   N11  Dn1  v064
 BYTE   W12
 BYTE   Cn1  v127
 BYTE   W12
 BYTE   N05  Dn1  v064
 BYTE   N05  En1  v127
 BYTE   W06
 BYTE   En1
 BYTE   N05  Dn1  v064
 BYTE   W06
 BYTE   Cn2  v127
 BYTE   W06
 BYTE   Cn2
 BYTE   W06
 BYTE   An1
 BYTE   W06
 BYTE   Cn1
 BYTE   W06
 BYTE   N11
 BYTE   N11  Cs2
 BYTE   W12
 BYTE   Fs1
 BYTE   W12
//  #08 //055   ----------------------------------------
 BYTE   Fs1
 BYTE   W12
 BYTE   En1
 BYTE   N11  Dn1  v064
 BYTE   W12
 BYTE   Fs1  v127
 BYTE   W12
 BYTE   Fs1
 BYTE   W12
 BYTE   Cn1
 BYTE   W12
 BYTE   Fs1
 BYTE   W06
 BYTE   N05  Cn1  v101
 BYTE   W06
 BYTE   N11  Fs1  v127
 BYTE   W12
 BYTE   En1
 BYTE   N11  Dn1  v064
 BYTE   W12
//  #08 //056   ----------------------------------------
 BYTE   Fs1  v127
 BYTE   W12
 BYTE   Fs1
 BYTE   W12
 BYTE   Cn1
 BYTE   W12
 BYTE   Fs1
 BYTE   W12
 BYTE   Fs1
 BYTE   W12
 BYTE   Dn1  v064
 BYTE   N11  En1  v127
 BYTE   W12
 BYTE   Fs1
 BYTE   W12
 BYTE   Fs1
 BYTE   W12
//  #08 //057   ----------------------------------------
 BYTE   Cn1
 BYTE   W12
 BYTE   Fs1
 BYTE   W06
 BYTE   N05  Cn1  v101
 BYTE   W06
 BYTE   N11  Fs1  v127
 BYTE   W12
 BYTE   En1
 BYTE   N11  Dn1  v064
 BYTE   W12
 BYTE   Fs1  v127
 BYTE   W12
 BYTE   Fs1
 BYTE   W12
 BYTE   Cn1
 BYTE   W12
 BYTE   Fs1
 BYTE   W12
//  #08 //058   ----------------------------------------
 BYTE   Fs1
 BYTE   W12
 BYTE   En1
 BYTE   N11  Dn1  v064
 BYTE   W12
 BYTE   Fs1  v127
 BYTE   W12
 BYTE   Fs1
 BYTE   W12
 BYTE   Cn1
 BYTE   W12
 BYTE   Fs1
 BYTE   W06
 BYTE   N05  Cn1  v101
 BYTE   W06
 BYTE   N11  Fs1  v127
 BYTE   W12
 BYTE   En1
 BYTE   N11  Dn1  v064
 BYTE   W12
//  #08 //059   ----------------------------------------
 BYTE   Fs1  v127
 BYTE   W12
 BYTE   Fs1
 BYTE   W12
 BYTE   Cn1
 BYTE   W12
 BYTE   Fs1
 BYTE   W12
 BYTE   Fs1
 BYTE   W12
 BYTE   En1
 BYTE   N11  Dn1  v064
 BYTE   W12
 BYTE   Fs1  v127
 BYTE   W12
 BYTE   Fs1
 BYTE   W12
//  #08 //060   ----------------------------------------
 BYTE   Cn1
 BYTE   W12
 BYTE   Fs1
 BYTE   W06
 BYTE   N05  Cn1  v101
 BYTE   W06
 BYTE   N11  Fs1  v127
 BYTE   W12
 BYTE   Dn1  v064
 BYTE   N11  En1  v127
 BYTE   W12
 BYTE   N05  Dn1  v064
 BYTE   N05  En1  v127
 BYTE   W06
 BYTE   En1
 BYTE   N05  Dn1  v064
 BYTE   W06
 BYTE   Dn1
 BYTE   N05  En1  v127
 BYTE   W06
 BYTE   En1
 BYTE   N05  Dn1  v064
 BYTE   W06
 BYTE   N11  Cn1  v127
 BYTE   N11  Cs2
 BYTE   W12
 BYTE   Fs1
 BYTE   W12
//  #08 //061   ----------------------------------------
 BYTE   Fs1
 BYTE   W12
 BYTE   En1
 BYTE   N11  Dn1  v064
 BYTE   W12
 BYTE   Fs1  v127
 BYTE   W12
 BYTE   Fs1
 BYTE   W12
 BYTE   Cn1
 BYTE   W12
 BYTE   Fs1
 BYTE   W06
 BYTE   N05  Cn1  v101
 BYTE   W06
 BYTE   N11  Fs1  v127
 BYTE   W12
 BYTE   Dn1  v064
 BYTE   N11  En1  v127
 BYTE   W12
//  #08 //062   ----------------------------------------
 BYTE   Fs1
 BYTE   W12
 BYTE   Fs1
 BYTE   W12
 BYTE   Cn1
 BYTE   W12
 BYTE   Fs1
 BYTE   W12
 BYTE   Fs1
 BYTE   W12
 BYTE   Dn1  v064
 BYTE   N11  En1  v127
 BYTE   W12
 BYTE   Fs1
 BYTE   W12
 BYTE   Fs1
 BYTE   W12
//  #08 //063   ----------------------------------------
 BYTE   Cn1
 BYTE   W12
 BYTE   Fs1
 BYTE   W06
 BYTE   N05  Cn1  v101
 BYTE   W06
 BYTE   N11  Fs1  v127
 BYTE   W12
 BYTE   Dn1  v064
 BYTE   N11  En1  v127
 BYTE   W12
 BYTE   Fs1
 BYTE   W12
 BYTE   Fs1
 BYTE   W12
 BYTE   Cn1
 BYTE   W12
 BYTE   Fs1
 BYTE   W12
//  #08 //064   ----------------------------------------
 BYTE   Fs1
 BYTE   W12
 BYTE   En1
 BYTE   N11  Dn1  v064
 BYTE   W12
 BYTE   Fs1  v127
 BYTE   W12
 BYTE   Fs1
 BYTE   W12
 BYTE   Cn1
 BYTE   W12
 BYTE   Fs1
 BYTE   W06
 BYTE   N05  Cn1  v101
 BYTE   W06
 BYTE   N11  Fs1  v127
 BYTE   W12
 BYTE   Dn1  v064
 BYTE   N11  En1  v127
 BYTE   W12
//  #08 //065   ----------------------------------------
 BYTE   Fs1
 BYTE   W12
 BYTE   Fs1
 BYTE   W12
 BYTE   Cn1
 BYTE   W12
 BYTE   Fs1
 BYTE   W12
 BYTE   Fs1
 BYTE   W12
 BYTE   En1
 BYTE   N11  Dn1  v064
 BYTE   W12
 BYTE   Fs1  v127
 BYTE   W12
 BYTE   Fs1
 BYTE   W12
//  #08 //066   ----------------------------------------
 BYTE   Cn1
 BYTE   W12
 BYTE   Fs1
 BYTE   W06
 BYTE   N05  Cn1  v101
 BYTE   W06
 BYTE   N11  Fs1  v127
 BYTE   W12
 BYTE   Dn1  v064
 BYTE   N11  En1  v127
 BYTE   W12
 BYTE   N05  Cn2
 BYTE   W06
 BYTE   An1
 BYTE   W06
 BYTE   An1
 BYTE   W06
 BYTE   Cn1
 BYTE   W06
 BYTE   N22
 BYTE   N22  Cs2
 BYTE   W24
//  #08 //067   ----------------------------------------
 BYTE   N11  Cn1
 BYTE   W12
 BYTE   N05  Cn2
 BYTE   W06
 BYTE   Cn2
 BYTE   W06
 BYTE   An1
 BYTE   W06
 BYTE   An1
 BYTE   W06
 BYTE   Cn1
 BYTE   W06
 BYTE   Cn1
 BYTE   W06
 BYTE   N11  Cs2
 BYTE   N11  Cn1
 BYTE   W12
 BYTE   Cn1
 BYTE   W12
 BYTE   Cn1
 BYTE   W12
 BYTE   N05  Dn1  v064
 BYTE   N05  En1  v127
 BYTE   W06
 BYTE   En1
 BYTE   N05  Dn1  v064
 BYTE   W06
//  #08 //068   ----------------------------------------
 BYTE   N11  Cn1  v127
 BYTE   W12
 BYTE   Cn1
 BYTE   W12
 BYTE   Cn1
 BYTE   W12
 BYTE   Cn1
 BYTE   W12
 BYTE   Cn1
 BYTE   W12
 BYTE   N05  En1
 BYTE   N05  Dn1  v064
 BYTE   W06
 BYTE   En1  v127
 BYTE   N05  Dn1  v064
 BYTE   W06
 BYTE   N11  Cn1  v127
 BYTE   W12
 BYTE   Cn1
 BYTE   W12
//  #08 //069   ----------------------------------------
 BYTE   Cn1
 BYTE   W12
 BYTE   Cn1
 BYTE   W12
 BYTE   Cn1
 BYTE   W12
 BYTE   N05  En1
 BYTE   N05  Dn1  v064
 BYTE   W06
 BYTE   En1  v127
 BYTE   N05  Dn1  v064
 BYTE   W06
 BYTE   N11  Cn1  v127
 BYTE   W12
 BYTE   Cn1
 BYTE   W12
 BYTE   Cn1
 BYTE   W12
 BYTE   Cn1
 BYTE   W12
//  #08 //070   ----------------------------------------
 BYTE   Cn1
 BYTE   W12
 BYTE   N05  Dn1  v064
 BYTE   N05  En1  v127
 BYTE   W06
 BYTE   En1
 BYTE   N05  Dn1  v064
 BYTE   W06
 BYTE   N11  Cn1  v127
 BYTE   W12
 BYTE   Cn1
 BYTE   W12
 BYTE   Cn1
 BYTE   W12
 BYTE   Fs1
 BYTE   W12
 BYTE   Fs1
 BYTE   W12
 BYTE   En1
 BYTE   N11  Dn1  v064
 BYTE   W12
//  #08 //071   ----------------------------------------
 BYTE   Fs1  v127
 BYTE   W12
 BYTE   Fs1
 BYTE   W12
 BYTE   Cn1
 BYTE   W12
 BYTE   Fs1
 BYTE   W06
 BYTE   N05  Cn1  v101
 BYTE   W06
 BYTE   N11  Fs1  v127
 BYTE   W12
 BYTE   En1
 BYTE   N11  Dn1  v064
 BYTE   W12
 BYTE   Fs1  v127
 BYTE   W12
 BYTE   Fs1
 BYTE   W12
//  #08 //072   ----------------------------------------
 BYTE   Cn1
 BYTE   W12
 BYTE   Fs1
 BYTE   W12
 BYTE   Fs1
 BYTE   W12
 BYTE   En1
 BYTE   N11  Dn1  v064
 BYTE   W12
 BYTE   Fs1  v127
 BYTE   W12
 BYTE   Fs1
 BYTE   W12
 BYTE   Cn1
 BYTE   W12
 BYTE   Fs1
 BYTE   W06
 BYTE   N05  Cn1  v101
 BYTE   W06
//  #08 //073   ----------------------------------------
 BYTE   N11  Fs1  v127
 BYTE   W12
 BYTE   Dn1  v064
 BYTE   N11  En1  v127
 BYTE   N11  Cs2
 BYTE   W12
 BYTE   N05  Dn1  v064
 BYTE   N05  En1  v127
 BYTE   W06
 BYTE   Dn1  v064
 BYTE   N05  En1  v127
 BYTE   W06
 BYTE   En1
 BYTE   N05  Dn1  v064
 BYTE   W06
 BYTE   En1  v127
 BYTE   N05  Dn1  v064
 BYTE   W11
 BYTE   GoTo
  POIN2 Label_0100CF50
 BYTE   FINE

//**************** Track 9 (Midi-Chn.8) ****************//

BabiLighthouse_009:
//  #09 //000   ----------------------------------------
Label_01004464:
 BYTE   TEMPO   112*BabiLighthouse_tbs/2
 BYTE   KEYSH   BabiLighthouse_key+0
 BYTE   VOICE   50
 BYTE   VOL   13*BabiLighthouse_mvl/mxv
 BYTE   PAN   c_v+6
 BYTE   W96
//  #09 //001   ----------------------------------------
 BYTE   W96
//  #09 //002   ----------------------------------------
 BYTE   W96
//  #09 //003   ----------------------------------------
 BYTE   W96
//  #09 //004   ----------------------------------------
 BYTE   W96
//  #09 //005   ----------------------------------------
 BYTE   W96
//  #09 //006   ----------------------------------------
 BYTE   W96
//  #09 //007   ----------------------------------------
 BYTE   W96
//  #09 //008   ----------------------------------------
 BYTE   W96
//  #09 //009   ----------------------------------------
 BYTE   W96
//  #09 //010   ----------------------------------------
 BYTE   W96
//  #09 //011   ----------------------------------------
 BYTE   W96
//  #09 //012   ----------------------------------------
Label_0100447A:
 BYTE   N05  An2  v127
 BYTE   W06
 BYTE   Bn2
 BYTE   W06
 BYTE   Cn3
 BYTE   W06
 BYTE   An2
 BYTE   W06
 BYTE   Bn2
 BYTE   W06
 BYTE   Cn3
 BYTE   W06
 BYTE   Dn3
 BYTE   W06
 BYTE   En3
 BYTE   W06
 BYTE   Dn3
 BYTE   W06
 BYTE   Cn3
 BYTE   W06
 BYTE   Bn2
 BYTE   W06
 BYTE   Gs2
 BYTE   W06
 BYTE   An2
 BYTE   W06
 BYTE   Gs2
 BYTE   W06
 BYTE   An2
 BYTE   W06
 BYTE   Bn2
 BYTE   W06
 BYTE   PEND 
//  #09 //013   ----------------------------------------
Label_0100449D:
 BYTE   N05  Cn3  v127
 BYTE   W06
 BYTE   Dn3
 BYTE   W06
 BYTE   En3
 BYTE   W06
 BYTE   Fn3
 BYTE   W06
 BYTE   Dn3
 BYTE   W06
 BYTE   En3
 BYTE   W06
 BYTE   Cn3
 BYTE   W06
 BYTE   Dn3
 BYTE   W06
 BYTE   En3
 BYTE   W06
 BYTE   Fn3
 BYTE   W06
 BYTE   Dn3
 BYTE   W06
 BYTE   En3
 BYTE   W06
 BYTE   Cn3
 BYTE   W06
 BYTE   Dn3
 BYTE   W06
 BYTE   An2
 BYTE   W06
 BYTE   Gs2
 BYTE   W06
 BYTE   PEND 
//  #09 //014   ----------------------------------------
Label_010044C0:
 BYTE   N05  An2  v127
 BYTE   W06
 BYTE   Bn2
 BYTE   W06
 BYTE   Cn3
 BYTE   W06
 BYTE   Dn3
 BYTE   W06
 BYTE   En3
 BYTE   W06
 BYTE   Dn3
 BYTE   W06
 BYTE   Cn3
 BYTE   W06
 BYTE   Bn2
 BYTE   W06
 BYTE   An2
 BYTE   W06
 BYTE   Bn2
 BYTE   W06
 BYTE   Gs2
 BYTE   W06
 BYTE   Bn2
 BYTE   W06
 BYTE   En3
 BYTE   W06
 BYTE   Bn2
 BYTE   W06
 BYTE   Gs2
 BYTE   W06
 BYTE   En2
 BYTE   W06
 BYTE   PEND 
//  #09 //015   ----------------------------------------
Label_010044E3:
 BYTE   N05  An2  v127
 BYTE   W06
 BYTE   Bn2
 BYTE   W06
 BYTE   Cn3
 BYTE   W06
 BYTE   Bn2
 BYTE   W06
 BYTE   Cn3
 BYTE   W06
 BYTE   Dn3
 BYTE   W06
 BYTE   Cn3
 BYTE   W06
 BYTE   Dn3
 BYTE   W06
 BYTE   En3
 BYTE   W06
 BYTE   Dn3
 BYTE   W06
 BYTE   En3
 BYTE   W06
 BYTE   Fn3
 BYTE   W06
 BYTE   An3
 BYTE   W06
 BYTE   Gs3
 BYTE   W06
 BYTE   An3
 BYTE   W06
 BYTE   Bn3
 BYTE   W06
 BYTE   PEND 
//  #09 //016   ----------------------------------------
Label_01004506:
 BYTE   N05  Fn3  v127
 BYTE   W06
 BYTE   En3
 BYTE   W06
 BYTE   Dn3
 BYTE   W06
 BYTE   Cn3
 BYTE   W06
 BYTE   Bn2
 BYTE   W06
 BYTE   An2
 BYTE   W06
 BYTE   Gs2
 BYTE   W06
 BYTE   Bn2
 BYTE   W06
 BYTE   Gs2
 BYTE   W06
 BYTE   An2
 BYTE   W06
 BYTE   Bn2
 BYTE   W06
 BYTE   An2
 BYTE   W06
 BYTE   Bn2
 BYTE   W06
 BYTE   Cn3
 BYTE   W06
 BYTE   Bn2
 BYTE   W06
 BYTE   Cn3
 BYTE   W06
 BYTE   PEND 
//  #09 //017   ----------------------------------------
Label_01004529:
 BYTE   N05  Dn3  v127
 BYTE   W06
 BYTE   Cn3
 BYTE   W06
 BYTE   Dn3
 BYTE   W06
 BYTE   En3
 BYTE   W06
 BYTE   An2
 BYTE   W06
 BYTE   En3
 BYTE   W06
 BYTE   Dn3
 BYTE   W06
 BYTE   En3
 BYTE   W06
 BYTE   Cn3
 BYTE   W06
 BYTE   En3
 BYTE   W06
 BYTE   Gs2
 BYTE   W06
 BYTE   Bn2
 BYTE   W06
 BYTE   En3
 BYTE   W06
 BYTE   Bn2
 BYTE   W06
 BYTE   Gs2
 BYTE   W06
 BYTE   En2
 BYTE   W96
//  #09 //018   ----------------------------------------
 BYTE   W96
//  #09 //019   ----------------------------------------
 BYTE   W96
//  #09 //020   ----------------------------------------
 BYTE   W96
//  #09 //021   ----------------------------------------
 BYTE   W96
//  #09 //022   ----------------------------------------
 BYTE   W96
//  #09 //023   ----------------------------------------
 BYTE   W96
//  #09 //024   ----------------------------------------
 BYTE   W96
//  #09 //025   ----------------------------------------
 BYTE   W96
//  #09 //026   ----------------------------------------
 BYTE   W96
//  #09 //027   ----------------------------------------
 BYTE   W96
//  #09 //028   ----------------------------------------
 BYTE   W96
//  #09 //029   ----------------------------------------
 BYTE   W06
 BYTE   PEND 
 BYTE   N05  An2  v127
 BYTE   W06
 BYTE   Bn2
 BYTE   W06
 BYTE   Cn3
 BYTE   W06
 BYTE   An2
 BYTE   W06
 BYTE   Bn2
 BYTE   W06
 BYTE   Cn3
 BYTE   W06
 BYTE   Dn3
 BYTE   W06
 BYTE   En3
 BYTE   W06
 BYTE   Dn3
 BYTE   W06
 BYTE   Cn3
 BYTE   W06
 BYTE   Bn2
 BYTE   W06
 BYTE   Gs2
 BYTE   W96
//  #09 //030   ----------------------------------------
 BYTE   W96
//  #09 //031   ----------------------------------------
 BYTE   W96
//  #09 //032   ----------------------------------------
 BYTE   W96
//  #09 //033   ----------------------------------------
 BYTE   W96
//  #09 //034   ----------------------------------------
 BYTE   W96
//  #09 //035   ----------------------------------------
 BYTE   W96
//  #09 //036   ----------------------------------------
 BYTE   W96
//  #09 //037   ----------------------------------------
 BYTE   W96
//  #09 //038   ----------------------------------------
 BYTE   W96
//  #09 //039   ----------------------------------------
 BYTE   W96
//  #09 //040   ----------------------------------------
 BYTE   W96
//  #09 //041   ----------------------------------------
 BYTE   W96
//  #09 //042   ----------------------------------------
 BYTE   W96
//  #09 //043   ----------------------------------------
 BYTE   W96
//  #09 //044   ----------------------------------------
 BYTE   W96
//  #09 //045   ----------------------------------------
 BYTE   W96
//  #09 //046   ----------------------------------------
 BYTE   W96
//  #09 //047   ----------------------------------------
 BYTE   W06
//  #09 //048   ----------------------------------------
 BYTE   PATT
  POIN2 Label_0100447A
//  #09 //049   ----------------------------------------
 BYTE   PATT
  POIN2 Label_0100449D
//  #09 //050   ----------------------------------------
 BYTE   PATT
  POIN2 Label_010044C0
//  #09 //051   ----------------------------------------
 BYTE   PATT
  POIN2 Label_010044E3
//  #09 //052   ----------------------------------------
 BYTE   PATT
  POIN2 Label_01004506
//  #09 //053   ----------------------------------------
 BYTE   PATT
  POIN2 Label_01004529
//  #09 //054   ----------------------------------------
 BYTE   N05  An2  v127
 BYTE   W06
 BYTE   Bn2
 BYTE   W06
 BYTE   Cn3
 BYTE   W06
 BYTE   An2
 BYTE   W06
 BYTE   Bn2
 BYTE   W06
 BYTE   Cn3
 BYTE   W06
 BYTE   Dn3
 BYTE   W06
 BYTE   En3
 BYTE   W06
 BYTE   Dn3
 BYTE   W06
 BYTE   Cn3
 BYTE   W06
 BYTE   Bn2
 BYTE   W06
 BYTE   Gs2
 BYTE   W96
//  #09 //055   ----------------------------------------
 BYTE   W96
//  #09 //056   ----------------------------------------
 BYTE   W96
//  #09 //057   ----------------------------------------
 BYTE   W96
//  #09 //058   ----------------------------------------
 BYTE   W96
//  #09 //059   ----------------------------------------
 BYTE   W96
//  #09 //060   ----------------------------------------
 BYTE   W11
 BYTE   GoTo
  POIN2 Label_01004464
 BYTE   FINE

//**************** Track 10 (Midi-Chn.9) ****************//

BabiLighthouse_010:
//  #10 //000   ----------------------------------------
Label_010045C8:
 BYTE   TEMPO   112*BabiLighthouse_tbs/2
 BYTE   KEYSH   BabiLighthouse_key+0
 BYTE   VOICE   68
 BYTE   VOL   26*BabiLighthouse_mvl/mxv
 BYTE   W96
//  #10 //001   ----------------------------------------
 BYTE   W96
//  #10 //002   ----------------------------------------
 BYTE   W96
//  #10 //003   ----------------------------------------
 BYTE   W96
//  #10 //004   ----------------------------------------
 BYTE   W96
//  #10 //005   ----------------------------------------
 BYTE   W96
//  #10 //006   ----------------------------------------
 BYTE   W96
//  #10 //007   ----------------------------------------
 BYTE   W96
//  #10 //008   ----------------------------------------
 BYTE   W96
//  #10 //009   ----------------------------------------
 BYTE   W96
//  #10 //010   ----------------------------------------
 BYTE   W96
//  #10 //011   ----------------------------------------
 BYTE   W96
//  #10 //012   ----------------------------------------
 BYTE   W96
//  #10 //013   ----------------------------------------
 BYTE   W96
//  #10 //014   ----------------------------------------
 BYTE   W96
//  #10 //015   ----------------------------------------
 BYTE   W96
//  #10 //016   ----------------------------------------
 BYTE   W96
//  #10 //017   ----------------------------------------
 BYTE   W96
//  #10 //018   ----------------------------------------
 BYTE   W96
//  #10 //019   ----------------------------------------
 BYTE   W96
//  #10 //020   ----------------------------------------
 BYTE   W96
//  #10 //021   ----------------------------------------
 BYTE   W96
//  #10 //022   ----------------------------------------
 BYTE   W96
//  #10 //023   ----------------------------------------
 BYTE   W96
//  #10 //024   ----------------------------------------
 BYTE   W96
//  #10 //025   ----------------------------------------
 BYTE   W96
//  #10 //026   ----------------------------------------
 BYTE   W96
//  #10 //027   ----------------------------------------
 BYTE   W96
//  #10 //028   ----------------------------------------
 BYTE   W96
//  #10 //029   ----------------------------------------
 BYTE   W96
//  #10 //030   ----------------------------------------
 BYTE   W72
Label_010045EF:
 BYTE   N05  Fs3  v127
 BYTE   W12
 BYTE   Fn3
 BYTE   W12
//  #10 //031   ----------------------------------------
 BYTE   Fs3
 BYTE   W12
 BYTE   Gs3
 BYTE   W12
 BYTE   An3
 BYTE   W12
 BYTE   Bn3
 BYTE   W12
 BYTE   Cs4
 BYTE   W12
 BYTE   Dn4
 BYTE   W12
 BYTE   PEND 
Label_01004602:
 BYTE   N05  Bn3  v127
 BYTE   W12
 BYTE   N32  Cs4
 BYTE   W04
 BYTE   N03
 BYTE   W32
//  #10 //032   ----------------------------------------
 BYTE   N05  Fs4
 BYTE   W12
 BYTE   Fn4
 BYTE   W12
 BYTE   Cs4
 BYTE   W12
 BYTE   Bn3
 BYTE   W12
 BYTE   PEND 
Label_01004615:
 BYTE   N05  Cs4  v127
 BYTE   W12
 BYTE   An3
 BYTE   W12
 BYTE   Fs3
 BYTE   W12
 BYTE   Gs3
 BYTE   W12
//  #10 //033   ----------------------------------------
 BYTE   An3
 BYTE   W12
 BYTE   N23  Bn3
 BYTE   W24
 BYTE   N05  Cs4
 BYTE   W12
 BYTE   PEND 
Label_01004628:
 BYTE   N05  Cs4  v127
 BYTE   W06
 BYTE   Dn4
 BYTE   W06
 BYTE   Bn3
 BYTE   W06
 BYTE   Cs4
 BYTE   W06
 BYTE   An3
 BYTE   W12
 BYTE   Fs3
 BYTE   W12
//  #10 //034   ----------------------------------------
 BYTE   Gs3
 BYTE   W12
 BYTE   An3
 BYTE   W12
 BYTE   N32  Dn4
 BYTE   W04
 BYTE   N03
 BYTE   W32
 BYTE   PEND 
Label_01004640:
 BYTE   N32  Cs4  v127
 BYTE   W04
 BYTE   N03
 BYTE   W32
//  #10 //035   ----------------------------------------
 BYTE   N05  Fs4
 BYTE   W12
 BYTE   Fn4
 BYTE   W12
 BYTE   Fs4
 BYTE   W12
 BYTE   Gs4
 BYTE   W12
 BYTE   An4
 BYTE   W12
 BYTE   PEND 
 BYTE   N05  Cs4  v127
 BYTE   W12
 BYTE   Cs5
 BYTE   W12
 BYTE   An4
 BYTE   W12
//  #10 //036   ----------------------------------------
 BYTE   Gs4
 BYTE   W12
 BYTE   Fn4
 BYTE   W12
 BYTE   Cs4
 BYTE   W12
 BYTE   Gs3
 BYTE   W96
//  #10 //037   ----------------------------------------
 BYTE   W96
//  #10 //038   ----------------------------------------
 BYTE   W96
//  #10 //039   ----------------------------------------
 BYTE   W96
//  #10 //040   ----------------------------------------
 BYTE   W96
//  #10 //041   ----------------------------------------
 BYTE   W96
//  #10 //042   ----------------------------------------
 BYTE   W96
//  #10 //043   ----------------------------------------
 BYTE   W96
//  #10 //044   ----------------------------------------
 BYTE   W96
//  #10 //045   ----------------------------------------
 BYTE   W96
//  #10 //046   ----------------------------------------
 BYTE   W96
//  #10 //047   ----------------------------------------
 BYTE   W96
//  #10 //048   ----------------------------------------
 BYTE   W96
//  #10 //049   ----------------------------------------
 BYTE   W96
//  #10 //050   ----------------------------------------
 BYTE   W96
//  #10 //051   ----------------------------------------
 BYTE   W96
//  #10 //052   ----------------------------------------
 BYTE   W96
//  #10 //053   ----------------------------------------
 BYTE   W96
//  #10 //054   ----------------------------------------
 BYTE   W96
//  #10 //055   ----------------------------------------
 BYTE   W96
//  #10 //056   ----------------------------------------
 BYTE   W96
//  #10 //057   ----------------------------------------
 BYTE   W96
//  #10 //058   ----------------------------------------
 BYTE   W96
//  #10 //059   ----------------------------------------
 BYTE   W96
//  #10 //060   ----------------------------------------
 BYTE   W96
//  #10 //061   ----------------------------------------
 BYTE   W96
//  #10 //062   ----------------------------------------
 BYTE   W96
//  #10 //063   ----------------------------------------
 BYTE   W96
//  #10 //064   ----------------------------------------
 BYTE   W96
//  #10 //065   ----------------------------------------
 BYTE   W96
//  #10 //066   ----------------------------------------
 BYTE   W84
//  #10 //067   ----------------------------------------
 BYTE   PATT
  POIN2 Label_010045EF
//  #10 //068   ----------------------------------------
 BYTE   PATT
  POIN2 Label_01004602
//  #10 //069   ----------------------------------------
 BYTE   PATT
  POIN2 Label_01004615
//  #10 //070   ----------------------------------------
 BYTE   PATT
  POIN2 Label_01004628
//  #10 //071   ----------------------------------------
 BYTE   PATT
  POIN2 Label_01004640
//  #10 //072   ----------------------------------------
 BYTE   N05  Cs4  v127
 BYTE   W12
 BYTE   Cs5
 BYTE   W12
 BYTE   An4
 BYTE   W12
 BYTE   Gs4
 BYTE   W12
 BYTE   Fn4
 BYTE   W12
 BYTE   Cs4
 BYTE   W12
 BYTE   Gs3
 BYTE   W17
 BYTE   GoTo
  POIN2 Label_010045C8
 BYTE   FINE

//**************** Track 11 (Midi-Chn.10) ****************//

BabiLighthouse_011:
//  #11 //000   ----------------------------------------
Label_0100D6D0:
 BYTE   TEMPO   112*BabiLighthouse_tbs/2
 BYTE   KEYSH   BabiLighthouse_key+0
 BYTE   VOICE   68
 BYTE   VOL   21*BabiLighthouse_mvl/mxv
 BYTE   W96
//  #11 //001   ----------------------------------------
 BYTE   W96
//  #11 //002   ----------------------------------------
 BYTE   W96
//  #11 //003   ----------------------------------------
 BYTE   W96
//  #11 //004   ----------------------------------------
 BYTE   W96
//  #11 //005   ----------------------------------------
 BYTE   W96
//  #11 //006   ----------------------------------------
 BYTE   W96
//  #11 //007   ----------------------------------------
 BYTE   W96
//  #11 //008   ----------------------------------------
 BYTE   W96
//  #11 //009   ----------------------------------------
 BYTE   W96
//  #11 //010   ----------------------------------------
 BYTE   W96
//  #11 //011   ----------------------------------------
 BYTE   W96
//  #11 //012   ----------------------------------------
 BYTE   W96
//  #11 //013   ----------------------------------------
 BYTE   W96
//  #11 //014   ----------------------------------------
 BYTE   W96
//  #11 //015   ----------------------------------------
 BYTE   W96
//  #11 //016   ----------------------------------------
 BYTE   W96
//  #11 //017   ----------------------------------------
 BYTE   W96
//  #11 //018   ----------------------------------------
 BYTE   W96
//  #11 //019   ----------------------------------------
 BYTE   W96
//  #11 //020   ----------------------------------------
 BYTE   W96
//  #11 //021   ----------------------------------------
 BYTE   W96
//  #11 //022   ----------------------------------------
 BYTE   W96
//  #11 //023   ----------------------------------------
 BYTE   W96
//  #11 //024   ----------------------------------------
 BYTE   W96
//  #11 //025   ----------------------------------------
 BYTE   W96
//  #11 //026   ----------------------------------------
 BYTE   W96
//  #11 //027   ----------------------------------------
 BYTE   W96
//  #11 //028   ----------------------------------------
 BYTE   W96
//  #11 //029   ----------------------------------------
 BYTE   W96
//  #11 //030   ----------------------------------------
 BYTE   W60
 BYTE   W02
 BYTE   BEND   c_v-5
 BYTE   W22
 BYTE   N05  Fs3  v127
 BYTE   W12
//  #11 //031   ----------------------------------------
 BYTE   Fn3
 BYTE   W12
 BYTE   Fs3
 BYTE   W12
 BYTE   Gs3
 BYTE   W12
 BYTE   An3
 BYTE   W12
 BYTE   Bn3
 BYTE   W12
 BYTE   Cs4
 BYTE   W12
 BYTE   Dn4
 BYTE   W12
 BYTE   Bn3
 BYTE   W12
//  #11 //032   ----------------------------------------
 BYTE   N32  Cs4
 BYTE   W04
 BYTE   N03
 BYTE   W32
 BYTE   N05  Fs4
 BYTE   W12
 BYTE   Fn4
 BYTE   W12
 BYTE   Cs4
 BYTE   W12
 BYTE   Bn3
 BYTE   W12
 BYTE   Cs4
 BYTE   W12
//  #11 //033   ----------------------------------------
 BYTE   An3
 BYTE   W12
 BYTE   Fs3
 BYTE   W12
 BYTE   Gs3
 BYTE   W12
 BYTE   An3
 BYTE   W12
 BYTE   N23  Bn3
 BYTE   W24
 BYTE   N05  Cs4
 BYTE   W12
 BYTE   Cs4
 BYTE   W06
 BYTE   Dn4
 BYTE   W06
//  #11 //034   ----------------------------------------
 BYTE   Bn3
 BYTE   W06
 BYTE   Cs4
 BYTE   W06
 BYTE   An3
 BYTE   W12
 BYTE   Fs3
 BYTE   W12
 BYTE   Gs3
 BYTE   W12
 BYTE   An3
 BYTE   W12
 BYTE   N32  Dn4
 BYTE   W04
 BYTE   N03
 BYTE   W32
//  #11 //035   ----------------------------------------
 BYTE   N32  Cs4
 BYTE   W04
 BYTE   N03
 BYTE   W32
 BYTE   N05  Fs4
 BYTE   W12
 BYTE   Fn4
 BYTE   W12
 BYTE   Fs4
 BYTE   W12
 BYTE   Gs4
 BYTE   W12
 BYTE   An4
 BYTE   W12
//  #11 //036   ----------------------------------------
 BYTE   Cs4
 BYTE   W12
 BYTE   Cs5
 BYTE   W12
 BYTE   An4
 BYTE   W12
 BYTE   Gs4
 BYTE   W12
 BYTE   Fn4
 BYTE   W12
 BYTE   Cs4
 BYTE   W12
 BYTE   Gs3
 BYTE   W96
//  #11 //037   ----------------------------------------
 BYTE   W96
//  #11 //038   ----------------------------------------
 BYTE   W96
//  #11 //039   ----------------------------------------
 BYTE   W96
//  #11 //040   ----------------------------------------
 BYTE   W96
//  #11 //041   ----------------------------------------
 BYTE   W96
//  #11 //042   ----------------------------------------
 BYTE   W96
//  #11 //043   ----------------------------------------
 BYTE   W96
//  #11 //044   ----------------------------------------
 BYTE   W96
//  #11 //045   ----------------------------------------
 BYTE   W96
//  #11 //046   ----------------------------------------
 BYTE   W96
//  #11 //047   ----------------------------------------
 BYTE   W96
//  #11 //048   ----------------------------------------
 BYTE   W96
//  #11 //049   ----------------------------------------
 BYTE   W96
//  #11 //050   ----------------------------------------
 BYTE   W96
//  #11 //051   ----------------------------------------
 BYTE   W96
//  #11 //052   ----------------------------------------
 BYTE   W96
//  #11 //053   ----------------------------------------
 BYTE   W96
//  #11 //054   ----------------------------------------
 BYTE   W96
//  #11 //055   ----------------------------------------
 BYTE   W96
//  #11 //056   ----------------------------------------
 BYTE   W96
//  #11 //057   ----------------------------------------
 BYTE   W96
//  #11 //058   ----------------------------------------
 BYTE   W96
//  #11 //059   ----------------------------------------
 BYTE   W96
//  #11 //060   ----------------------------------------
 BYTE   W96
//  #11 //061   ----------------------------------------
 BYTE   W96
//  #11 //062   ----------------------------------------
 BYTE   W96
//  #11 //063   ----------------------------------------
 BYTE   W96
//  #11 //064   ----------------------------------------
 BYTE   W96
//  #11 //065   ----------------------------------------
 BYTE   W96
//  #11 //066   ----------------------------------------
 BYTE   W60
 BYTE   W02
 BYTE   BEND   c_v-5
 BYTE   W22
 BYTE   N05  Fs3  v127
 BYTE   W12
//  #11 //067   ----------------------------------------
 BYTE   Fn3
 BYTE   W12
 BYTE   Fs3
 BYTE   W12
 BYTE   Gs3
 BYTE   W12
 BYTE   An3
 BYTE   W12
 BYTE   Bn3
 BYTE   W12
 BYTE   Cs4
 BYTE   W12
 BYTE   Dn4
 BYTE   W12
 BYTE   Bn3
 BYTE   W12
//  #11 //068   ----------------------------------------
 BYTE   N32  Cs4
 BYTE   W04
 BYTE   N03
 BYTE   W32
 BYTE   N05  Fs4
 BYTE   W12
 BYTE   Fn4
 BYTE   W12
 BYTE   Cs4
 BYTE   W12
 BYTE   Bn3
 BYTE   W12
 BYTE   Cs4
 BYTE   W12
//  #11 //069   ----------------------------------------
 BYTE   An3
 BYTE   W12
 BYTE   Fs3
 BYTE   W12
 BYTE   Gs3
 BYTE   W12
 BYTE   An3
 BYTE   W12
 BYTE   N23  Bn3
 BYTE   W24
 BYTE   N05  Cs4
 BYTE   W12
 BYTE   Cs4
 BYTE   W06
 BYTE   Dn4
 BYTE   W06
//  #11 //070   ----------------------------------------
 BYTE   Bn3
 BYTE   W06
 BYTE   Cs4
 BYTE   W06
 BYTE   An3
 BYTE   W12
 BYTE   Fs3
 BYTE   W12
 BYTE   Gs3
 BYTE   W12
 BYTE   An3
 BYTE   W12
 BYTE   N32  Dn4
 BYTE   W04
 BYTE   N03
 BYTE   W32
//  #11 //071   ----------------------------------------
 BYTE   N32  Cs4
 BYTE   W04
 BYTE   N03
 BYTE   W32
 BYTE   N05  Fs4
 BYTE   W12
 BYTE   Fn4
 BYTE   W12
 BYTE   Fs4
 BYTE   W12
 BYTE   Gs4
 BYTE   W12
 BYTE   An4
 BYTE   W12
//  #11 //072   ----------------------------------------
 BYTE   Cs4
 BYTE   W12
 BYTE   Cs5
 BYTE   W12
 BYTE   An4
 BYTE   W12
 BYTE   Gs4
 BYTE   W12
 BYTE   Fn4
 BYTE   W12
 BYTE   Cs4
 BYTE   W12
 BYTE   Gs3
 BYTE   W05
 BYTE   GoTo
  POIN2 Label_0100D6D0
 BYTE   FINE

//******************************************************//
	ALIGN 4

BabiLighthouse:
	BYTE	11	// NumTrks
	BYTE	0	// NumBlks
	BYTE	BabiLighthouse_pri	// Priority
	BYTE	BabiLighthouse_rev	// Reverb.
    
	POIN2	BabiLighthouse_grp
    
	POIN2	BabiLighthouse_001
	POIN2	BabiLighthouse_002
	POIN2	BabiLighthouse_003
	POIN2	BabiLighthouse_004
	POIN2	BabiLighthouse_005
	POIN2	BabiLighthouse_006
	POIN2	BabiLighthouse_007
	POIN2	BabiLighthouse_008
	POIN2	BabiLighthouse_009
	POIN2	BabiLighthouse_010
	POIN2	BabiLighthouse_011

	
