//Event file generated from Sappy .s format.
	

	#define	BattleToadSurf_grp  voicegroup000
	#define	BattleToadSurf_pri  0
	#define	BattleToadSurf_rev  0
	#define	BattleToadSurf_mvl  127
	#define	BattleToadSurf_key  0
	#define	BattleToadSurf_tbs  1
	#define	BattleToadSurf_exg  0
	#define	BattleToadSurf_cmp  1

	// .rodata
	//	BattleToadSurf
	ALIGN 4


//**************** Track 1 (Midi-Chn.0) ****************//

BattleToadSurf_001:
//  #01 //000   ----------------------------------------
 BYTE   KEYSH   BattleToadSurf_key+0
Label_0117B00A:
 BYTE   TEMPO   226*BattleToadSurf_tbs/2
 BYTE   VOICE   29
 BYTE   VOL   70*BattleToadSurf_mvl/mxv
 BYTE   N12  Cn2  v080
 BYTE   W24
 BYTE   N12
 BYTE   W12
 BYTE   N12
 BYTE   W12
 BYTE   Ds2
 BYTE   W12
 BYTE   Fn2
 BYTE   W24
 BYTE   Gn2
 BYTE   W12
//  #01 //001   ----------------------------------------
Label_0117B01E:
 BYTE   W12
 BYTE   N12  Gn2  v080
 BYTE   W12
 BYTE   Fn2
 BYTE   W24
 BYTE   Ds2
 BYTE   W12
 BYTE   Fn2
 BYTE   W36
 BYTE   PEND 
//  #01 //002   ----------------------------------------
Label_0117B02A:
 BYTE   N12  Cn2  v080
 BYTE   W44
 BYTE   W03
 BYTE   W01
 BYTE   N96  Ds3
 BYTE   W01
 BYTE   W01
 BYTE   W01
 BYTE   W01
 BYTE   W01
 BYTE   W01
 BYTE   W01
 BYTE   W01
 BYTE   W01
 BYTE   W01
 BYTE   W01
 BYTE   W01
 BYTE   W01
 BYTE   W01
 BYTE   W01
 BYTE   W01
 BYTE   W01
 BYTE   W01
 BYTE   W01
 BYTE   W01
 BYTE   W01
 BYTE   W01
 BYTE   W01
 BYTE   W01
 BYTE   W01
 BYTE   W01
 BYTE   W01
 BYTE   W01
 BYTE   W01
 BYTE   W01
 BYTE   W01
 BYTE   W01
 BYTE   W01
 BYTE   W01
 BYTE   W01
 BYTE   W01
 BYTE   W01
 BYTE   W01
 BYTE   W01
 BYTE   W01
 BYTE   W01
 BYTE   W01
 BYTE   W01
 BYTE   W01
 BYTE   W01
 BYTE   W01
 BYTE   W01
 BYTE   W01
 BYTE   PEND 
//  #01 //003   ----------------------------------------
Label_0117B063:
 BYTE   W01
 BYTE   W01
 BYTE   W01
 BYTE   W01
 BYTE   W01
 BYTE   W01
 BYTE   W01
 BYTE   W01
 BYTE   W01
 BYTE   W01
 BYTE   W01
 BYTE   W01
 BYTE   W01
 BYTE   W01
 BYTE   W01
 BYTE   W01
 BYTE   W01
 BYTE   W01
 BYTE   W01
 BYTE   W01
 BYTE   W01
 BYTE   W01
 BYTE   W01
 BYTE   W01
 BYTE   W01
 BYTE   W01
 BYTE   W01
 BYTE   W01
 BYTE   W01
 BYTE   W01
 BYTE   W01
 BYTE   W01
 BYTE   W01
 BYTE   W01
 BYTE   W01
 BYTE   W01
 BYTE   W01
 BYTE   W01
 BYTE   W01
 BYTE   W01
 BYTE   W01
 BYTE   W01
 BYTE   W01
 BYTE   W01
 BYTE   W01
 BYTE   W01
 BYTE   W01
 BYTE   W01
 BYTE   N12  Ds3  v080
 BYTE   W12
 BYTE   N12
 BYTE   W36
 BYTE   PEND 
//  #01 //004   ----------------------------------------
Label_0117B09A:
 BYTE   N12  Cn2  v080
 BYTE   W24
 BYTE   N12
 BYTE   W12
 BYTE   N12
 BYTE   W12
 BYTE   Ds2
 BYTE   W12
 BYTE   Fn2
 BYTE   W24
 BYTE   Gn2
 BYTE   W12
 BYTE   PEND 
//  #01 //005   ----------------------------------------
 BYTE   PATT
  POIN2 Label_0117B01E
//  #01 //006   ----------------------------------------
 BYTE   PATT
  POIN2 Label_0117B02A
//  #01 //007   ----------------------------------------
 BYTE   PATT
  POIN2 Label_0117B063
//  #01 //008   ----------------------------------------
Label_0117B0B8:
 BYTE   N12  Fn2  v080
 BYTE   W24
 BYTE   N12
 BYTE   W12
 BYTE   N12
 BYTE   W12
 BYTE   Gs2
 BYTE   W12
 BYTE   As2
 BYTE   W24
 BYTE   Cn3
 BYTE   W12
 BYTE   PEND 
//  #01 //009   ----------------------------------------
Label_0117B0C7:
 BYTE   W12
 BYTE   N12  Cn3  v080
 BYTE   W12
 BYTE   As2
 BYTE   W24
 BYTE   Gs2
 BYTE   W12
 BYTE   As2
 BYTE   W36
 BYTE   PEND 
//  #01 //010   ----------------------------------------
Label_0117B0D3:
 BYTE   N12  Fn2  v080
 BYTE   W44
 BYTE   W03
 BYTE   W01
 BYTE   N96  Gs3
 BYTE   W01
 BYTE   W01
 BYTE   W01
 BYTE   W01
 BYTE   W01
 BYTE   W01
 BYTE   W01
 BYTE   W01
 BYTE   W01
 BYTE   W01
 BYTE   W01
 BYTE   W01
 BYTE   W01
 BYTE   W01
 BYTE   W01
 BYTE   W01
 BYTE   W01
 BYTE   W01
 BYTE   W01
 BYTE   W01
 BYTE   W01
 BYTE   W01
 BYTE   W01
 BYTE   W01
 BYTE   W01
 BYTE   W01
 BYTE   W01
 BYTE   W01
 BYTE   W01
 BYTE   W01
 BYTE   W01
 BYTE   W01
 BYTE   W01
 BYTE   W01
 BYTE   W01
 BYTE   W01
 BYTE   W01
 BYTE   W01
 BYTE   W01
 BYTE   W01
 BYTE   W01
 BYTE   W01
 BYTE   W01
 BYTE   W01
 BYTE   W01
 BYTE   W01
 BYTE   W01
 BYTE   W01
 BYTE   PEND 
//  #01 //011   ----------------------------------------
Label_0117B10C:
 BYTE   W01
 BYTE   W01
 BYTE   W01
 BYTE   W01
 BYTE   W01
 BYTE   W01
 BYTE   W01
 BYTE   W01
 BYTE   W01
 BYTE   W01
 BYTE   W01
 BYTE   W01
 BYTE   W01
 BYTE   W01
 BYTE   W01
 BYTE   W01
 BYTE   W01
 BYTE   W01
 BYTE   W01
 BYTE   W01
 BYTE   W01
 BYTE   W01
 BYTE   W01
 BYTE   W01
 BYTE   W01
 BYTE   W01
 BYTE   W01
 BYTE   W01
 BYTE   W01
 BYTE   W01
 BYTE   W01
 BYTE   W01
 BYTE   W01
 BYTE   W01
 BYTE   W01
 BYTE   W01
 BYTE   W01
 BYTE   W01
 BYTE   W01
 BYTE   W01
 BYTE   W01
 BYTE   W01
 BYTE   W01
 BYTE   W01
 BYTE   W01
 BYTE   W01
 BYTE   W01
 BYTE   W01
 BYTE   N12  Gs3  v080
 BYTE   W12
 BYTE   N12
 BYTE   W36
 BYTE   PEND 
//  #01 //012   ----------------------------------------
 BYTE   PATT
  POIN2 Label_0117B09A
//  #01 //013   ----------------------------------------
 BYTE   PATT
  POIN2 Label_0117B01E
//  #01 //014   ----------------------------------------
 BYTE   PATT
  POIN2 Label_0117B02A
//  #01 //015   ----------------------------------------
 BYTE   PATT
  POIN2 Label_0117B063
//  #01 //016   ----------------------------------------
Label_0117B157:
 BYTE   N12  As1  v080
 BYTE   W24
 BYTE   N12
 BYTE   W12
 BYTE   N12
 BYTE   W12
 BYTE   N36  Fn3
 BYTE   W36
 BYTE   N12  Ds3
 BYTE   W12
 BYTE   PEND 
//  #01 //017   ----------------------------------------
Label_0117B166:
 BYTE   W24
 BYTE   N12  Ds3  v056
 BYTE   W24
 BYTE   Ds3  v040
 BYTE   W24
 BYTE   Fn3  v080
 BYTE   W12
 BYTE   N12
 BYTE   W12
 BYTE   PEND 
//  #01 //018   ----------------------------------------
Label_0117B174:
 BYTE   N12  Gn2  v080
 BYTE   W12
 BYTE   Cn3
 BYTE   W12
 BYTE   Dn3
 BYTE   W12
 BYTE   Ds3
 BYTE   W12
 BYTE   Gn3
 BYTE   W12
 BYTE   Ds3
 BYTE   W12
 BYTE   Dn3
 BYTE   W12
 BYTE   Ds3
 BYTE   W12
 BYTE   PEND 
//  #01 //019   ----------------------------------------
Label_0117B187:
 BYTE   N12  Gs2  v080
 BYTE   W12
 BYTE   Cn3
 BYTE   W12
 BYTE   Dn3
 BYTE   W12
 BYTE   Ds3
 BYTE   W12
 BYTE   Gn3
 BYTE   W12
 BYTE   Ds3
 BYTE   W12
 BYTE   Dn3
 BYTE   W12
 BYTE   Ds3
 BYTE   W12
 BYTE   PEND 
//  #01 //020   ----------------------------------------
Label_0117B19A:
 BYTE   N12  As2  v080
 BYTE   W12
 BYTE   Cn3
 BYTE   W12
 BYTE   Dn3
 BYTE   W12
 BYTE   Ds3
 BYTE   W12
 BYTE   Gn3
 BYTE   W12
 BYTE   Ds3
 BYTE   W12
 BYTE   Dn3
 BYTE   W12
 BYTE   Ds3
 BYTE   W12
 BYTE   PEND 
//  #01 //021   ----------------------------------------
 BYTE   PATT
  POIN2 Label_0117B187
//  #01 //022   ----------------------------------------
 BYTE   PATT
  POIN2 Label_0117B174
//  #01 //023   ----------------------------------------
 BYTE   PATT
  POIN2 Label_0117B187
//  #01 //024   ----------------------------------------
 BYTE   PATT
  POIN2 Label_0117B19A
//  #01 //025   ----------------------------------------
 BYTE   PATT
  POIN2 Label_0117B187
//  #01 //026   ----------------------------------------
 BYTE   PATT
  POIN2 Label_0117B174
//  #01 //027   ----------------------------------------
 BYTE   PATT
  POIN2 Label_0117B187
//  #01 //028   ----------------------------------------
 BYTE   PATT
  POIN2 Label_0117B19A
//  #01 //029   ----------------------------------------
 BYTE   PATT
  POIN2 Label_0117B187
//  #01 //030   ----------------------------------------
 BYTE   PATT
  POIN2 Label_0117B174
//  #01 //031   ----------------------------------------
 BYTE   PATT
  POIN2 Label_0117B187
//  #01 //032   ----------------------------------------
 BYTE   PATT
  POIN2 Label_0117B19A
//  #01 //033   ----------------------------------------
 BYTE   PATT
  POIN2 Label_0117B187
//  #01 //034   ----------------------------------------
Label_0117B1EE:
 BYTE   N12  Cn1  v080
 BYTE   W24
 BYTE   N12
 BYTE   W12
 BYTE   N12
 BYTE   W12
 BYTE   Ds3
 BYTE   W12
 BYTE   Fn3
 BYTE   W12
 BYTE   Cn1
 BYTE   W12
 BYTE   Gn3
 BYTE   W12
 BYTE   PEND 
//  #01 //035   ----------------------------------------
Label_0117B1FF:
 BYTE   W12
 BYTE   N12  Gn3  v080
 BYTE   W12
 BYTE   Fn3
 BYTE   W12
 BYTE   Cn1
 BYTE   W12
 BYTE   Ds3
 BYTE   W12
 BYTE   Fn3
 BYTE   W12
 BYTE   Cn1
 BYTE   W24
 BYTE   PEND 
//  #01 //036   ----------------------------------------
Label_0117B20F:
 BYTE   N12  Cn1  v080
 BYTE   W24
 BYTE   Cn4
 BYTE   W24
 BYTE   As3
 BYTE   W24
 BYTE   Cn1
 BYTE   W12
 BYTE   Gn3
 BYTE   W12
 BYTE   PEND 
//  #01 //037   ----------------------------------------
Label_0117B21C:
 BYTE   W12
 BYTE   N12  Gn3  v080
 BYTE   W12
 BYTE   Fn3
 BYTE   W24
 BYTE   Ds3
 BYTE   W12
 BYTE   Fn3
 BYTE   W12
 BYTE   Cn1
 BYTE   W24
 BYTE   PEND 
//  #01 //038   ----------------------------------------
Label_0117B22A:
 BYTE   N12  As1  v080
 BYTE   W24
 BYTE   N12
 BYTE   W12
 BYTE   N12
 BYTE   W12
 BYTE   Ds3
 BYTE   W12
 BYTE   Fn3
 BYTE   W12
 BYTE   As1
 BYTE   W12
 BYTE   Gn3
 BYTE   W12
 BYTE   PEND 
//  #01 //039   ----------------------------------------
Label_0117B23B:
 BYTE   W12
 BYTE   N12  Gn3  v080
 BYTE   W12
 BYTE   Fn3
 BYTE   W12
 BYTE   As1
 BYTE   W12
 BYTE   Ds3
 BYTE   W12
 BYTE   Fn3
 BYTE   W12
 BYTE   As1
 BYTE   W24
 BYTE   PEND 
//  #01 //040   ----------------------------------------
Label_0117B24B:
 BYTE   N12  Gs1  v080
 BYTE   W24
 BYTE   Cn4
 BYTE   W24
 BYTE   As3
 BYTE   W24
 BYTE   Gs1
 BYTE   W12
 BYTE   Gn3
 BYTE   W12
 BYTE   PEND 
//  #01 //041   ----------------------------------------
Label_0117B258:
 BYTE   W12
 BYTE   N12  Gn3  v080
 BYTE   W12
 BYTE   Fn3
 BYTE   W24
 BYTE   Ds3
 BYTE   W12
 BYTE   Fn3
 BYTE   W12
 BYTE   Gs1
 BYTE   W24
 BYTE   PEND 
//  #01 //042   ----------------------------------------
 BYTE   PATT
  POIN2 Label_0117B1EE
//  #01 //043   ----------------------------------------
 BYTE   PATT
  POIN2 Label_0117B1FF
//  #01 //044   ----------------------------------------
 BYTE   PATT
  POIN2 Label_0117B20F
//  #01 //045   ----------------------------------------
 BYTE   PATT
  POIN2 Label_0117B21C
//  #01 //046   ----------------------------------------
 BYTE   PATT
  POIN2 Label_0117B22A
//  #01 //047   ----------------------------------------
 BYTE   PATT
  POIN2 Label_0117B23B
//  #01 //048   ----------------------------------------
 BYTE   PATT
  POIN2 Label_0117B24B
//  #01 //049   ----------------------------------------
 BYTE   PATT
  POIN2 Label_0117B258
//  #01 //050   ----------------------------------------
Label_0117B28E:
 BYTE   N12  Cn1  v080
 BYTE   W24
 BYTE   N12
 BYTE   W12
 BYTE   N12
 BYTE   W12
 BYTE   Gn1
 BYTE   W12
 BYTE   As1
 BYTE   W24
 BYTE   Cn2
 BYTE   W12
 BYTE   PEND 
//  #01 //051   ----------------------------------------
Label_0117B29D:
 BYTE   W12
 BYTE   N12  Cn2  v080
 BYTE   W12
 BYTE   As1
 BYTE   W24
 BYTE   N24  Fn1
 BYTE   W11
 BYTE   BEND   c_v+10
 BYTE   W01
 BYTE   BEND   c_v+63
 BYTE   W11
 BYTE   BEND   c_v-1
 BYTE   W01
 BYTE   N12  Ds1
 BYTE   W12
 BYTE   Fn1
 BYTE   W12
 BYTE   PEND 
//  #01 //052   ----------------------------------------
 BYTE   PATT
  POIN2 Label_0117B28E
//  #01 //053   ----------------------------------------
 BYTE   PATT
  POIN2 Label_0117B29D
//  #01 //054   ----------------------------------------
 BYTE   PATT
  POIN2 Label_0117B28E
//  #01 //055   ----------------------------------------
 BYTE   PATT
  POIN2 Label_0117B29D
//  #01 //056   ----------------------------------------
 BYTE   PATT
  POIN2 Label_0117B28E
//  #01 //057   ----------------------------------------
 BYTE   PATT
  POIN2 Label_0117B29D
//  #01 //058   ----------------------------------------
 BYTE   PATT
  POIN2 Label_0117B09A
//  #01 //059   ----------------------------------------
 BYTE   PATT
  POIN2 Label_0117B01E
//  #01 //060   ----------------------------------------
 BYTE   PATT
  POIN2 Label_0117B02A
//  #01 //061   ----------------------------------------
 BYTE   PATT
  POIN2 Label_0117B063
//  #01 //062   ----------------------------------------
 BYTE   PATT
  POIN2 Label_0117B09A
//  #01 //063   ----------------------------------------
 BYTE   PATT
  POIN2 Label_0117B01E
//  #01 //064   ----------------------------------------
 BYTE   PATT
  POIN2 Label_0117B02A
//  #01 //065   ----------------------------------------
 BYTE   PATT
  POIN2 Label_0117B063
//  #01 //066   ----------------------------------------
 BYTE   PATT
  POIN2 Label_0117B0B8
//  #01 //067   ----------------------------------------
 BYTE   PATT
  POIN2 Label_0117B0C7
//  #01 //068   ----------------------------------------
 BYTE   PATT
  POIN2 Label_0117B0D3
//  #01 //069   ----------------------------------------
 BYTE   PATT
  POIN2 Label_0117B10C
//  #01 //070   ----------------------------------------
 BYTE   PATT
  POIN2 Label_0117B09A
//  #01 //071   ----------------------------------------
 BYTE   PATT
  POIN2 Label_0117B01E
//  #01 //072   ----------------------------------------
 BYTE   PATT
  POIN2 Label_0117B02A
//  #01 //073   ----------------------------------------
 BYTE   PATT
  POIN2 Label_0117B063
//  #01 //074   ----------------------------------------
 BYTE   PATT
  POIN2 Label_0117B157
//  #01 //075   ----------------------------------------
 BYTE   PATT
  POIN2 Label_0117B166
//  #01 //076   ----------------------------------------
 BYTE   PATT
  POIN2 Label_0117B174
//  #01 //077   ----------------------------------------
 BYTE   PATT
  POIN2 Label_0117B187
//  #01 //078   ----------------------------------------
 BYTE   PATT
  POIN2 Label_0117B19A
//  #01 //079   ----------------------------------------
 BYTE   PATT
  POIN2 Label_0117B187
//  #01 //080   ----------------------------------------
 BYTE   PATT
  POIN2 Label_0117B174
//  #01 //081   ----------------------------------------
 BYTE   PATT
  POIN2 Label_0117B187
//  #01 //082   ----------------------------------------
 BYTE   PATT
  POIN2 Label_0117B19A
//  #01 //083   ----------------------------------------
 BYTE   PATT
  POIN2 Label_0117B187
//  #01 //084   ----------------------------------------
 BYTE   PATT
  POIN2 Label_0117B174
//  #01 //085   ----------------------------------------
 BYTE   PATT
  POIN2 Label_0117B187
//  #01 //086   ----------------------------------------
 BYTE   PATT
  POIN2 Label_0117B19A
//  #01 //087   ----------------------------------------
 BYTE   PATT
  POIN2 Label_0117B187
//  #01 //088   ----------------------------------------
 BYTE   PATT
  POIN2 Label_0117B174
//  #01 //089   ----------------------------------------
 BYTE   PATT
  POIN2 Label_0117B187
//  #01 //090   ----------------------------------------
 BYTE   PATT
  POIN2 Label_0117B19A
//  #01 //091   ----------------------------------------
 BYTE   PATT
  POIN2 Label_0117B187
//  #01 //092   ----------------------------------------
 BYTE   PATT
  POIN2 Label_0117B1EE
//  #01 //093   ----------------------------------------
 BYTE   PATT
  POIN2 Label_0117B1FF
//  #01 //094   ----------------------------------------
 BYTE   PATT
  POIN2 Label_0117B20F
//  #01 //095   ----------------------------------------
 BYTE   PATT
  POIN2 Label_0117B21C
//  #01 //096   ----------------------------------------
 BYTE   PATT
  POIN2 Label_0117B22A
//  #01 //097   ----------------------------------------
 BYTE   PATT
  POIN2 Label_0117B23B
//  #01 //098   ----------------------------------------
 BYTE   PATT
  POIN2 Label_0117B24B
//  #01 //099   ----------------------------------------
 BYTE   PATT
  POIN2 Label_0117B258
//  #01 //100   ----------------------------------------
 BYTE   PATT
  POIN2 Label_0117B1EE
//  #01 //101   ----------------------------------------
 BYTE   PATT
  POIN2 Label_0117B1FF
//  #01 //102   ----------------------------------------
 BYTE   PATT
  POIN2 Label_0117B20F
//  #01 //103   ----------------------------------------
 BYTE   PATT
  POIN2 Label_0117B21C
//  #01 //104   ----------------------------------------
 BYTE   PATT
  POIN2 Label_0117B22A
//  #01 //105   ----------------------------------------
 BYTE   PATT
  POIN2 Label_0117B23B
//  #01 //106   ----------------------------------------
 BYTE   PATT
  POIN2 Label_0117B24B
//  #01 //107   ----------------------------------------
 BYTE   PATT
  POIN2 Label_0117B258
//  #01 //108   ----------------------------------------
 BYTE   PATT
  POIN2 Label_0117B28E
//  #01 //109   ----------------------------------------
 BYTE   PATT
  POIN2 Label_0117B29D
//  #01 //110   ----------------------------------------
 BYTE   PATT
  POIN2 Label_0117B28E
//  #01 //111   ----------------------------------------
 BYTE   PATT
  POIN2 Label_0117B29D
//  #01 //112   ----------------------------------------
 BYTE   PATT
  POIN2 Label_0117B28E
//  #01 //113   ----------------------------------------
 BYTE   PATT
  POIN2 Label_0117B29D
//  #01 //114   ----------------------------------------
 BYTE   PATT
  POIN2 Label_0117B28E
//  #01 //115   ----------------------------------------
 BYTE   PATT
  POIN2 Label_0117B29D
//  #01 //116   ----------------------------------------
 BYTE   GoTo
  POIN2 Label_0117B00A
 BYTE   FINE

//**************** Track 2 (Midi-Chn.1) ****************//

BattleToadSurf_002:
//  #02 //000   ----------------------------------------
 BYTE   KEYSH   BattleToadSurf_key+0
Label_0117AB0E:
 BYTE   VOICE   30
 BYTE   VOL   62*BattleToadSurf_mvl/mxv
 BYTE   N03  Cn4  v060
 BYTE   W12
 BYTE   N03
 BYTE   W12
 BYTE   Cn4  v092
 BYTE   W12
 BYTE   Cn4  v060
 BYTE   W12
 BYTE   N03
 BYTE   W12
 BYTE   N03
 BYTE   W12
 BYTE   Cn4  v092
 BYTE   W12
 BYTE   Cn4  v060
 BYTE   W12
//  #02 //001   ----------------------------------------
Label_0117AB28:
 BYTE   N03  Cn4  v060
 BYTE   W12
 BYTE   N03
 BYTE   W12
 BYTE   Cn4  v092
 BYTE   W12
 BYTE   Cn4  v060
 BYTE   W12
 BYTE   N03
 BYTE   W12
 BYTE   N03
 BYTE   W12
 BYTE   Cn4  v092
 BYTE   W12
 BYTE   Cn4  v060
 BYTE   W12
 BYTE   PEND 
//  #02 //002   ----------------------------------------
Label_0117AB3F:
 BYTE   N03  Cn4  v060
 BYTE   W12
 BYTE   N03
 BYTE   W12
 BYTE   Cn4  v092
 BYTE   W12
 BYTE   Cn4  v060
 BYTE   W09
 BYTE   W03
 BYTE   N03
 BYTE   W12
 BYTE   N03
 BYTE   W12
 BYTE   Cn4  v092
 BYTE   W12
 BYTE   Cn4  v060
 BYTE   W12
 BYTE   PEND 
//  #02 //003   ----------------------------------------
Label_0117AB57:
 BYTE   N03  Cn4  v060
 BYTE   W12
 BYTE   N03
 BYTE   W12
 BYTE   Cn4  v092
 BYTE   W12
 BYTE   Cn4  v060
 BYTE   W12
 BYTE   N03
 BYTE   W12
 BYTE   N03
 BYTE   W12
 BYTE   Cn4  v092
 BYTE   W12
 BYTE   Cn4  v060
 BYTE   W10
 BYTE   W02
 BYTE   PEND 
//  #02 //004   ----------------------------------------
 BYTE   PATT
  POIN2 Label_0117AB28
//  #02 //005   ----------------------------------------
 BYTE   PATT
  POIN2 Label_0117AB28
//  #02 //006   ----------------------------------------
 BYTE   PATT
  POIN2 Label_0117AB3F
//  #02 //007   ----------------------------------------
 BYTE   PATT
  POIN2 Label_0117AB57
//  #02 //008   ----------------------------------------
Label_0117AB83:
 BYTE   N03  Fn4  v060
 BYTE   W12
 BYTE   N03
 BYTE   W12
 BYTE   Fn4  v092
 BYTE   W12
 BYTE   Fn4  v060
 BYTE   W12
 BYTE   N03
 BYTE   W12
 BYTE   N03
 BYTE   W12
 BYTE   Fn4  v092
 BYTE   W12
 BYTE   Fn4  v060
 BYTE   W12
 BYTE   PEND 
//  #02 //009   ----------------------------------------
 BYTE   PATT
  POIN2 Label_0117AB83
//  #02 //010   ----------------------------------------
Label_0117AB9F:
 BYTE   N03  Fn4  v060
 BYTE   W12
 BYTE   N03
 BYTE   W12
 BYTE   Fn4  v092
 BYTE   W12
 BYTE   Fn4  v060
 BYTE   W09
 BYTE   W03
 BYTE   N03
 BYTE   W12
 BYTE   N03
 BYTE   W12
 BYTE   Fn4  v092
 BYTE   W12
 BYTE   Fn4  v060
 BYTE   W12
 BYTE   PEND 
//  #02 //011   ----------------------------------------
Label_0117ABB7:
 BYTE   N03  Fn4  v060
 BYTE   W12
 BYTE   N03
 BYTE   W12
 BYTE   Fn4  v092
 BYTE   W12
 BYTE   Fn4  v060
 BYTE   W12
 BYTE   N03
 BYTE   W12
 BYTE   N03
 BYTE   W12
 BYTE   Fn4  v092
 BYTE   W12
 BYTE   Fn4  v060
 BYTE   W10
 BYTE   W02
 BYTE   PEND 
//  #02 //012   ----------------------------------------
 BYTE   PATT
  POIN2 Label_0117AB28
//  #02 //013   ----------------------------------------
 BYTE   PATT
  POIN2 Label_0117AB28
//  #02 //014   ----------------------------------------
 BYTE   PATT
  POIN2 Label_0117AB3F
//  #02 //015   ----------------------------------------
 BYTE   PATT
  POIN2 Label_0117AB57
//  #02 //016   ----------------------------------------
 BYTE   W96
//  #02 //017   ----------------------------------------
 BYTE   W96
//  #02 //018   ----------------------------------------
 BYTE   W96
//  #02 //019   ----------------------------------------
 BYTE   W96
//  #02 //020   ----------------------------------------
 BYTE   W96
//  #02 //021   ----------------------------------------
 BYTE   W96
//  #02 //022   ----------------------------------------
 BYTE   W96
//  #02 //023   ----------------------------------------
 BYTE   W96
//  #02 //024   ----------------------------------------
 BYTE   W96
//  #02 //025   ----------------------------------------
 BYTE   W96
//  #02 //026   ----------------------------------------
 BYTE   W96
//  #02 //027   ----------------------------------------
 BYTE   W96
//  #02 //028   ----------------------------------------
 BYTE   W96
//  #02 //029   ----------------------------------------
 BYTE   W96
//  #02 //030   ----------------------------------------
 BYTE   W96
//  #02 //031   ----------------------------------------
 BYTE   W96
//  #02 //032   ----------------------------------------
 BYTE   W96
//  #02 //033   ----------------------------------------
 BYTE   W96
//  #02 //034   ----------------------------------------
 BYTE   W96
//  #02 //035   ----------------------------------------
 BYTE   W96
//  #02 //036   ----------------------------------------
 BYTE   W96
//  #02 //037   ----------------------------------------
 BYTE   W96
//  #02 //038   ----------------------------------------
 BYTE   W96
//  #02 //039   ----------------------------------------
 BYTE   W96
//  #02 //040   ----------------------------------------
 BYTE   W96
//  #02 //041   ----------------------------------------
 BYTE   W96
//  #02 //042   ----------------------------------------
 BYTE   W96
//  #02 //043   ----------------------------------------
 BYTE   W96
//  #02 //044   ----------------------------------------
 BYTE   W96
//  #02 //045   ----------------------------------------
 BYTE   W96
//  #02 //046   ----------------------------------------
 BYTE   W96
//  #02 //047   ----------------------------------------
 BYTE   W96
//  #02 //048   ----------------------------------------
 BYTE   W96
//  #02 //049   ----------------------------------------
 BYTE   W96
//  #02 //050   ----------------------------------------
 BYTE   W96
//  #02 //051   ----------------------------------------
 BYTE   W96
//  #02 //052   ----------------------------------------
 BYTE   W96
//  #02 //053   ----------------------------------------
 BYTE   W96
//  #02 //054   ----------------------------------------
 BYTE   W96
//  #02 //055   ----------------------------------------
 BYTE   W96
//  #02 //056   ----------------------------------------
 BYTE   W96
//  #02 //057   ----------------------------------------
 BYTE   W96
//  #02 //058   ----------------------------------------
 BYTE   PATT
  POIN2 Label_0117AB28
//  #02 //059   ----------------------------------------
 BYTE   PATT
  POIN2 Label_0117AB28
//  #02 //060   ----------------------------------------
 BYTE   PATT
  POIN2 Label_0117AB3F
//  #02 //061   ----------------------------------------
 BYTE   PATT
  POIN2 Label_0117AB57
//  #02 //062   ----------------------------------------
 BYTE   PATT
  POIN2 Label_0117AB28
//  #02 //063   ----------------------------------------
 BYTE   PATT
  POIN2 Label_0117AB28
//  #02 //064   ----------------------------------------
 BYTE   PATT
  POIN2 Label_0117AB3F
//  #02 //065   ----------------------------------------
 BYTE   PATT
  POIN2 Label_0117AB57
//  #02 //066   ----------------------------------------
 BYTE   PATT
  POIN2 Label_0117AB83
//  #02 //067   ----------------------------------------
 BYTE   PATT
  POIN2 Label_0117AB83
//  #02 //068   ----------------------------------------
 BYTE   PATT
  POIN2 Label_0117AB9F
//  #02 //069   ----------------------------------------
 BYTE   PATT
  POIN2 Label_0117ABB7
//  #02 //070   ----------------------------------------
 BYTE   PATT
  POIN2 Label_0117AB28
//  #02 //071   ----------------------------------------
 BYTE   PATT
  POIN2 Label_0117AB28
//  #02 //072   ----------------------------------------
 BYTE   PATT
  POIN2 Label_0117AB3F
//  #02 //073   ----------------------------------------
 BYTE   PATT
  POIN2 Label_0117AB57
//  #02 //074   ----------------------------------------
 BYTE   W96
//  #02 //075   ----------------------------------------
 BYTE   W96
//  #02 //076   ----------------------------------------
 BYTE   W96
//  #02 //077   ----------------------------------------
 BYTE   W96
//  #02 //078   ----------------------------------------
 BYTE   W96
//  #02 //079   ----------------------------------------
 BYTE   W96
//  #02 //080   ----------------------------------------
 BYTE   W96
//  #02 //081   ----------------------------------------
 BYTE   W96
//  #02 //082   ----------------------------------------
 BYTE   W96
//  #02 //083   ----------------------------------------
 BYTE   W96
//  #02 //084   ----------------------------------------
 BYTE   W96
//  #02 //085   ----------------------------------------
 BYTE   W96
//  #02 //086   ----------------------------------------
 BYTE   W96
//  #02 //087   ----------------------------------------
 BYTE   W96
//  #02 //088   ----------------------------------------
 BYTE   W96
//  #02 //089   ----------------------------------------
 BYTE   W96
//  #02 //090   ----------------------------------------
 BYTE   W96
//  #02 //091   ----------------------------------------
 BYTE   W96
//  #02 //092   ----------------------------------------
 BYTE   W96
//  #02 //093   ----------------------------------------
 BYTE   W96
//  #02 //094   ----------------------------------------
 BYTE   W96
//  #02 //095   ----------------------------------------
 BYTE   W96
//  #02 //096   ----------------------------------------
 BYTE   W96
//  #02 //097   ----------------------------------------
 BYTE   W96
//  #02 //098   ----------------------------------------
 BYTE   W96
//  #02 //099   ----------------------------------------
 BYTE   W96
//  #02 //100   ----------------------------------------
 BYTE   W96
//  #02 //101   ----------------------------------------
 BYTE   W96
//  #02 //102   ----------------------------------------
 BYTE   W96
//  #02 //103   ----------------------------------------
 BYTE   W96
//  #02 //104   ----------------------------------------
 BYTE   W96
//  #02 //105   ----------------------------------------
 BYTE   W96
//  #02 //106   ----------------------------------------
 BYTE   W96
//  #02 //107   ----------------------------------------
 BYTE   W96
//  #02 //108   ----------------------------------------
 BYTE   W96
//  #02 //109   ----------------------------------------
 BYTE   W96
//  #02 //110   ----------------------------------------
 BYTE   W96
//  #02 //111   ----------------------------------------
 BYTE   W96
//  #02 //112   ----------------------------------------
 BYTE   W96
//  #02 //113   ----------------------------------------
 BYTE   W96
//  #02 //114   ----------------------------------------
 BYTE   W96
//  #02 //115   ----------------------------------------
 BYTE   W96
//  #02 //116   ----------------------------------------
 BYTE   GoTo
  POIN2 Label_0117AB0E
 BYTE   FINE

//**************** Track 3 (Midi-Chn.2) ****************//

BattleToadSurf_003:
//  #03 //000   ----------------------------------------
 BYTE   KEYSH   BattleToadSurf_key+0
Label_0117B412:
 BYTE   VOICE   36
 BYTE   VOL   70*BattleToadSurf_mvl/mxv
 BYTE   N12  Cn1  v080
 BYTE   W24
 BYTE   N12
 BYTE   W12
 BYTE   N12
 BYTE   W12
 BYTE   Ds1
 BYTE   W12
 BYTE   Fn1
 BYTE   W24
 BYTE   Gn1
 BYTE   W12
//  #03 //001   ----------------------------------------
Label_0117B424:
 BYTE   W12
 BYTE   N12  Gn1  v080
 BYTE   W12
 BYTE   Fn1
 BYTE   W24
 BYTE   Ds1
 BYTE   W12
 BYTE   Fn1
 BYTE   W36
 BYTE   PEND 
//  #03 //002   ----------------------------------------
Label_0117B430:
 BYTE   N12  Cn1  v080
 BYTE   W72
 BYTE   N12
 BYTE   W12
 BYTE   N12
 BYTE   W12
 BYTE   PEND 
//  #03 //003   ----------------------------------------
Label_0117B439:
 BYTE   W12
 BYTE   N12  Cn1  v080
 BYTE   W12
 BYTE   N12
 BYTE   W24
 BYTE   N12
 BYTE   W12
 BYTE   N12
 BYTE   W36
 BYTE   PEND 
//  #03 //004   ----------------------------------------
Label_0117B445:
 BYTE   N12  Cn1  v080
 BYTE   W24
 BYTE   N12
 BYTE   W12
 BYTE   N12
 BYTE   W12
 BYTE   Ds1
 BYTE   W12
 BYTE   Fn1
 BYTE   W24
 BYTE   Gn1
 BYTE   W12
 BYTE   PEND 
//  #03 //005   ----------------------------------------
 BYTE   PATT
  POIN2 Label_0117B424
//  #03 //006   ----------------------------------------
 BYTE   PATT
  POIN2 Label_0117B430
//  #03 //007   ----------------------------------------
 BYTE   PATT
  POIN2 Label_0117B439
//  #03 //008   ----------------------------------------
Label_0117B463:
 BYTE   N12  Fn1  v080
 BYTE   W24
 BYTE   N12
 BYTE   W12
 BYTE   N12
 BYTE   W12
 BYTE   Gs1
 BYTE   W12
 BYTE   As1
 BYTE   W24
 BYTE   Cn2
 BYTE   W12
 BYTE   PEND 
//  #03 //009   ----------------------------------------
Label_0117B472:
 BYTE   W12
 BYTE   N12  Cn2  v080
 BYTE   W12
 BYTE   As1
 BYTE   W24
 BYTE   Gs1
 BYTE   W12
 BYTE   As1
 BYTE   W36
 BYTE   PEND 
//  #03 //010   ----------------------------------------
Label_0117B47E:
 BYTE   N12  Fn1  v080
 BYTE   W72
 BYTE   N12
 BYTE   W12
 BYTE   N12
 BYTE   W12
 BYTE   PEND 
//  #03 //011   ----------------------------------------
Label_0117B487:
 BYTE   W12
 BYTE   N12  Fn1  v080
 BYTE   W12
 BYTE   N12
 BYTE   W24
 BYTE   N12
 BYTE   W12
 BYTE   N12
 BYTE   W36
 BYTE   PEND 
//  #03 //012   ----------------------------------------
 BYTE   PATT
  POIN2 Label_0117B445
//  #03 //013   ----------------------------------------
 BYTE   PATT
  POIN2 Label_0117B424
//  #03 //014   ----------------------------------------
 BYTE   PATT
  POIN2 Label_0117B430
//  #03 //015   ----------------------------------------
 BYTE   PATT
  POIN2 Label_0117B439
//  #03 //016   ----------------------------------------
Label_0117B4A7:
 BYTE   N12  As1  v080
 BYTE   W24
 BYTE   N12
 BYTE   W12
 BYTE   N12
 BYTE   W12
 BYTE   N12
 BYTE   W24
 BYTE   N12
 BYTE   W12
 BYTE   Gs1
 BYTE   W12
 BYTE   PEND 
//  #03 //017   ----------------------------------------
 BYTE   W96
//  #03 //018   ----------------------------------------
 BYTE   W96
//  #03 //019   ----------------------------------------
 BYTE   W96
//  #03 //020   ----------------------------------------
 BYTE   W96
//  #03 //021   ----------------------------------------
 BYTE   W96
//  #03 //022   ----------------------------------------
Label_0117B4BB:
 BYTE   N12  Cn1  v080
 BYTE   W12
 BYTE   N12
 BYTE   W24
 BYTE   N12
 BYTE   W24
 BYTE   N12
 BYTE   W24
 BYTE   N12
 BYTE   W12
 BYTE   PEND 
//  #03 //023   ----------------------------------------
 BYTE   PATT
  POIN2 Label_0117B4BB
//  #03 //024   ----------------------------------------
 BYTE   PATT
  POIN2 Label_0117B4BB
//  #03 //025   ----------------------------------------
 BYTE   PATT
  POIN2 Label_0117B4BB
//  #03 //026   ----------------------------------------
Label_0117B4D7:
 BYTE   N12  Cn1  v080
 BYTE   W12
 BYTE   As0
 BYTE   W12
 BYTE   Gn0
 BYTE   W12
 BYTE   Cn1
 BYTE   W24
 BYTE   N12
 BYTE   W24
 BYTE   N12
 BYTE   W12
 BYTE   PEND 
//  #03 //027   ----------------------------------------
Label_0117B4E6:
 BYTE   N12  Cn1  v080
 BYTE   W12
 BYTE   As0
 BYTE   W12
 BYTE   Gn0
 BYTE   W12
 BYTE   Cn1
 BYTE   W24
 BYTE   N12
 BYTE   W12
 BYTE   Ds1
 BYTE   W12
 BYTE   Fn1
 BYTE   W12
 BYTE   PEND 
//  #03 //028   ----------------------------------------
 BYTE   PATT
  POIN2 Label_0117B4D7
//  #03 //029   ----------------------------------------
 BYTE   PATT
  POIN2 Label_0117B4E6
//  #03 //030   ----------------------------------------
 BYTE   PATT
  POIN2 Label_0117B4D7
//  #03 //031   ----------------------------------------
 BYTE   PATT
  POIN2 Label_0117B4E6
//  #03 //032   ----------------------------------------
 BYTE   PATT
  POIN2 Label_0117B4D7
//  #03 //033   ----------------------------------------
 BYTE   PATT
  POIN2 Label_0117B4E6
//  #03 //034   ----------------------------------------
Label_0117B515:
 BYTE   N12  Cn0  v080
 BYTE   W12
 BYTE   N12
 BYTE   W12
 BYTE   N12
 BYTE   W12
 BYTE   N12
 BYTE   W12
 BYTE   N12
 BYTE   W12
 BYTE   N12
 BYTE   W12
 BYTE   N12
 BYTE   W12
 BYTE   N12
 BYTE   W12
 BYTE   PEND 
//  #03 //035   ----------------------------------------
 BYTE   PATT
  POIN2 Label_0117B515
//  #03 //036   ----------------------------------------
 BYTE   PATT
  POIN2 Label_0117B515
//  #03 //037   ----------------------------------------
 BYTE   PATT
  POIN2 Label_0117B515
//  #03 //038   ----------------------------------------
Label_0117B537:
 BYTE   N12  As0  v080
 BYTE   W12
 BYTE   N12
 BYTE   W12
 BYTE   N12
 BYTE   W12
 BYTE   N12
 BYTE   W12
 BYTE   N12
 BYTE   W12
 BYTE   N12
 BYTE   W12
 BYTE   N12
 BYTE   W12
 BYTE   N12
 BYTE   W12
 BYTE   PEND 
//  #03 //039   ----------------------------------------
 BYTE   PATT
  POIN2 Label_0117B537
//  #03 //040   ----------------------------------------
Label_0117B54F:
 BYTE   N12  Gs0  v080
 BYTE   W12
 BYTE   N12
 BYTE   W12
 BYTE   N12
 BYTE   W12
 BYTE   N12
 BYTE   W12
 BYTE   N12
 BYTE   W12
 BYTE   N12
 BYTE   W12
 BYTE   N12
 BYTE   W12
 BYTE   N12
 BYTE   W12
 BYTE   PEND 
//  #03 //041   ----------------------------------------
 BYTE   PATT
  POIN2 Label_0117B54F
//  #03 //042   ----------------------------------------
 BYTE   PATT
  POIN2 Label_0117B515
//  #03 //043   ----------------------------------------
 BYTE   PATT
  POIN2 Label_0117B515
//  #03 //044   ----------------------------------------
 BYTE   PATT
  POIN2 Label_0117B515
//  #03 //045   ----------------------------------------
 BYTE   PATT
  POIN2 Label_0117B515
//  #03 //046   ----------------------------------------
 BYTE   PATT
  POIN2 Label_0117B537
//  #03 //047   ----------------------------------------
 BYTE   PATT
  POIN2 Label_0117B537
//  #03 //048   ----------------------------------------
 BYTE   PATT
  POIN2 Label_0117B54F
//  #03 //049   ----------------------------------------
 BYTE   PATT
  POIN2 Label_0117B54F
//  #03 //050   ----------------------------------------
Label_0117B58F:
 BYTE   N12  Cn1  v080
 BYTE   W24
 BYTE   N12
 BYTE   W12
 BYTE   N12
 BYTE   W12
 BYTE   Gn1
 BYTE   W12
 BYTE   As1
 BYTE   W24
 BYTE   Cn2
 BYTE   W12
 BYTE   PEND 
//  #03 //051   ----------------------------------------
Label_0117B59E:
 BYTE   W12
 BYTE   N12  Cn2  v080
 BYTE   W12
 BYTE   Gn1
 BYTE   W24
 BYTE   Fn1
 BYTE   W12
 BYTE   Gn1
 BYTE   W12
 BYTE   Ds1
 BYTE   W12
 BYTE   Fn1
 BYTE   W12
 BYTE   PEND 
//  #03 //052   ----------------------------------------
 BYTE   PATT
  POIN2 Label_0117B58F
//  #03 //053   ----------------------------------------
 BYTE   PATT
  POIN2 Label_0117B59E
//  #03 //054   ----------------------------------------
 BYTE   PATT
  POIN2 Label_0117B58F
//  #03 //055   ----------------------------------------
 BYTE   PATT
  POIN2 Label_0117B59E
//  #03 //056   ----------------------------------------
 BYTE   PATT
  POIN2 Label_0117B58F
//  #03 //057   ----------------------------------------
 BYTE   PATT
  POIN2 Label_0117B59E
//  #03 //058   ----------------------------------------
 BYTE   PATT
  POIN2 Label_0117B445
//  #03 //059   ----------------------------------------
 BYTE   PATT
  POIN2 Label_0117B424
//  #03 //060   ----------------------------------------
 BYTE   PATT
  POIN2 Label_0117B430
//  #03 //061   ----------------------------------------
 BYTE   PATT
  POIN2 Label_0117B439
//  #03 //062   ----------------------------------------
 BYTE   PATT
  POIN2 Label_0117B445
//  #03 //063   ----------------------------------------
 BYTE   PATT
  POIN2 Label_0117B424
//  #03 //064   ----------------------------------------
 BYTE   PATT
  POIN2 Label_0117B430
//  #03 //065   ----------------------------------------
 BYTE   PATT
  POIN2 Label_0117B439
//  #03 //066   ----------------------------------------
 BYTE   PATT
  POIN2 Label_0117B463
//  #03 //067   ----------------------------------------
 BYTE   PATT
  POIN2 Label_0117B472
//  #03 //068   ----------------------------------------
 BYTE   PATT
  POIN2 Label_0117B47E
//  #03 //069   ----------------------------------------
 BYTE   PATT
  POIN2 Label_0117B487
//  #03 //070   ----------------------------------------
 BYTE   PATT
  POIN2 Label_0117B445
//  #03 //071   ----------------------------------------
 BYTE   PATT
  POIN2 Label_0117B424
//  #03 //072   ----------------------------------------
 BYTE   PATT
  POIN2 Label_0117B430
//  #03 //073   ----------------------------------------
 BYTE   PATT
  POIN2 Label_0117B439
//  #03 //074   ----------------------------------------
 BYTE   PATT
  POIN2 Label_0117B4A7
//  #03 //075   ----------------------------------------
 BYTE   W96
//  #03 //076   ----------------------------------------
 BYTE   W96
//  #03 //077   ----------------------------------------
 BYTE   W96
//  #03 //078   ----------------------------------------
 BYTE   W96
//  #03 //079   ----------------------------------------
 BYTE   W96
//  #03 //080   ----------------------------------------
 BYTE   PATT
  POIN2 Label_0117B4BB
//  #03 //081   ----------------------------------------
 BYTE   PATT
  POIN2 Label_0117B4BB
//  #03 //082   ----------------------------------------
 BYTE   PATT
  POIN2 Label_0117B4BB
//  #03 //083   ----------------------------------------
 BYTE   PATT
  POIN2 Label_0117B4BB
//  #03 //084   ----------------------------------------
 BYTE   PATT
  POIN2 Label_0117B4D7
//  #03 //085   ----------------------------------------
 BYTE   PATT
  POIN2 Label_0117B4E6
//  #03 //086   ----------------------------------------
 BYTE   PATT
  POIN2 Label_0117B4D7
//  #03 //087   ----------------------------------------
 BYTE   PATT
  POIN2 Label_0117B4E6
//  #03 //088   ----------------------------------------
 BYTE   PATT
  POIN2 Label_0117B4D7
//  #03 //089   ----------------------------------------
 BYTE   PATT
  POIN2 Label_0117B4E6
//  #03 //090   ----------------------------------------
 BYTE   PATT
  POIN2 Label_0117B4D7
//  #03 //091   ----------------------------------------
 BYTE   PATT
  POIN2 Label_0117B4E6
//  #03 //092   ----------------------------------------
 BYTE   PATT
  POIN2 Label_0117B515
//  #03 //093   ----------------------------------------
 BYTE   PATT
  POIN2 Label_0117B515
//  #03 //094   ----------------------------------------
 BYTE   PATT
  POIN2 Label_0117B515
//  #03 //095   ----------------------------------------
 BYTE   PATT
  POIN2 Label_0117B515
//  #03 //096   ----------------------------------------
 BYTE   PATT
  POIN2 Label_0117B537
//  #03 //097   ----------------------------------------
 BYTE   PATT
  POIN2 Label_0117B537
//  #03 //098   ----------------------------------------
 BYTE   PATT
  POIN2 Label_0117B54F
//  #03 //099   ----------------------------------------
 BYTE   PATT
  POIN2 Label_0117B54F
//  #03 //100   ----------------------------------------
 BYTE   PATT
  POIN2 Label_0117B515
//  #03 //101   ----------------------------------------
 BYTE   PATT
  POIN2 Label_0117B515
//  #03 //102   ----------------------------------------
 BYTE   PATT
  POIN2 Label_0117B515
//  #03 //103   ----------------------------------------
 BYTE   PATT
  POIN2 Label_0117B515
//  #03 //104   ----------------------------------------
 BYTE   PATT
  POIN2 Label_0117B537
//  #03 //105   ----------------------------------------
 BYTE   PATT
  POIN2 Label_0117B537
//  #03 //106   ----------------------------------------
 BYTE   PATT
  POIN2 Label_0117B54F
//  #03 //107   ----------------------------------------
 BYTE   PATT
  POIN2 Label_0117B54F
//  #03 //108   ----------------------------------------
 BYTE   PATT
  POIN2 Label_0117B58F
//  #03 //109   ----------------------------------------
 BYTE   PATT
  POIN2 Label_0117B59E
//  #03 //110   ----------------------------------------
 BYTE   PATT
  POIN2 Label_0117B58F
//  #03 //111   ----------------------------------------
 BYTE   PATT
  POIN2 Label_0117B59E
//  #03 //112   ----------------------------------------
 BYTE   PATT
  POIN2 Label_0117B58F
//  #03 //113   ----------------------------------------
 BYTE   PATT
  POIN2 Label_0117B59E
//  #03 //114   ----------------------------------------
 BYTE   PATT
  POIN2 Label_0117B58F
//  #03 //115   ----------------------------------------
 BYTE   PATT
  POIN2 Label_0117B59E
//  #03 //116   ----------------------------------------
 BYTE   GoTo
  POIN2 Label_0117B412
 BYTE   FINE

//**************** Track 4 (Midi-Chn.3) ****************//

BattleToadSurf_004:
//  #04 //000   ----------------------------------------
 BYTE   KEYSH   BattleToadSurf_key+0
Label_0117B6F2:
 BYTE   VOICE   29
 BYTE   VOL   46*BattleToadSurf_mvl/mxv
 BYTE   W12
 BYTE   N12  Cn2  v080
 BYTE   W24
 BYTE   N12
 BYTE   W12
 BYTE   N12
 BYTE   W12
 BYTE   Ds2
 BYTE   W12
 BYTE   Fn2
 BYTE   W24
//  #04 //001   ----------------------------------------
Label_0117B703:
 BYTE   N12  Gn2  v080
 BYTE   W24
 BYTE   N12
 BYTE   W12
 BYTE   Fn2
 BYTE   W24
 BYTE   Ds2
 BYTE   W12
 BYTE   Fn2
 BYTE   W24
 BYTE   PEND 
//  #04 //002   ----------------------------------------
Label_0117B710:
 BYTE   W12
 BYTE   N12  Cn2  v080
 BYTE   W32
 BYTE   W03
 BYTE   W01
 BYTE   N96  As2  v100
 BYTE   W01
 BYTE   W01
 BYTE   W01
 BYTE   W01
 BYTE   W01
 BYTE   W01
 BYTE   W01
 BYTE   W01
 BYTE   W01
 BYTE   W01
 BYTE   W01
 BYTE   W01
 BYTE   W01
 BYTE   W01
 BYTE   W01
 BYTE   W01
 BYTE   W01
 BYTE   W01
 BYTE   W01
 BYTE   W01
 BYTE   W01
 BYTE   W01
 BYTE   W01
 BYTE   W01
 BYTE   W01
 BYTE   W01
 BYTE   W01
 BYTE   W01
 BYTE   W01
 BYTE   W01
 BYTE   W01
 BYTE   W01
 BYTE   W01
 BYTE   W01
 BYTE   W01
 BYTE   W01
 BYTE   W01
 BYTE   W01
 BYTE   W01
 BYTE   W01
 BYTE   W01
 BYTE   W01
 BYTE   W01
 BYTE   W01
 BYTE   W01
 BYTE   W01
 BYTE   W01
 BYTE   W01
 BYTE   PEND 
//  #04 //003   ----------------------------------------
Label_0117B74B:
 BYTE   W01
 BYTE   W01
 BYTE   W01
 BYTE   W01
 BYTE   W01
 BYTE   W01
 BYTE   W01
 BYTE   W01
 BYTE   W01
 BYTE   W01
 BYTE   W01
 BYTE   W01
 BYTE   W01
 BYTE   W01
 BYTE   W01
 BYTE   W01
 BYTE   W01
 BYTE   W01
 BYTE   W01
 BYTE   W01
 BYTE   W01
 BYTE   W01
 BYTE   W01
 BYTE   W01
 BYTE   W01
 BYTE   W01
 BYTE   W01
 BYTE   W01
 BYTE   W01
 BYTE   W01
 BYTE   W01
 BYTE   W01
 BYTE   W01
 BYTE   W01
 BYTE   W01
 BYTE   W01
 BYTE   W01
 BYTE   W01
 BYTE   W01
 BYTE   W01
 BYTE   W01
 BYTE   W01
 BYTE   W01
 BYTE   W01
 BYTE   W01
 BYTE   W01
 BYTE   W01
 BYTE   W01
 BYTE   N12  As2  v100
 BYTE   W12
 BYTE   N12
 BYTE   W36
 BYTE   PEND 
//  #04 //004   ----------------------------------------
Label_0117B782:
 BYTE   W12
 BYTE   N12  Cn2  v080
 BYTE   W24
 BYTE   N12
 BYTE   W12
 BYTE   N12
 BYTE   W12
 BYTE   Ds2
 BYTE   W12
 BYTE   Fn2
 BYTE   W24
 BYTE   PEND 
//  #04 //005   ----------------------------------------
 BYTE   PATT
  POIN2 Label_0117B703
//  #04 //006   ----------------------------------------
 BYTE   PATT
  POIN2 Label_0117B710
//  #04 //007   ----------------------------------------
 BYTE   PATT
  POIN2 Label_0117B74B
//  #04 //008   ----------------------------------------
Label_0117B79F:
 BYTE   W12
 BYTE   N12  Fn2  v080
 BYTE   W24
 BYTE   N12
 BYTE   W12
 BYTE   N12
 BYTE   W12
 BYTE   Gs2
 BYTE   W12
 BYTE   As2
 BYTE   W24
 BYTE   PEND 
//  #04 //009   ----------------------------------------
Label_0117B7AD:
 BYTE   N12  Cn3  v080
 BYTE   W24
 BYTE   N12
 BYTE   W12
 BYTE   As2
 BYTE   W24
 BYTE   Gs2
 BYTE   W12
 BYTE   As2
 BYTE   W24
 BYTE   PEND 
//  #04 //010   ----------------------------------------
Label_0117B7BA:
 BYTE   W12
 BYTE   N12  Fn2  v080
 BYTE   W32
 BYTE   W03
 BYTE   W01
 BYTE   N96  Ds3  v100
 BYTE   W01
 BYTE   W01
 BYTE   W01
 BYTE   W01
 BYTE   W01
 BYTE   W01
 BYTE   W01
 BYTE   W01
 BYTE   W01
 BYTE   W01
 BYTE   W01
 BYTE   W01
 BYTE   W01
 BYTE   W01
 BYTE   W01
 BYTE   W01
 BYTE   W01
 BYTE   W01
 BYTE   W01
 BYTE   W01
 BYTE   W01
 BYTE   W01
 BYTE   W01
 BYTE   W01
 BYTE   W01
 BYTE   W01
 BYTE   W01
 BYTE   W01
 BYTE   W01
 BYTE   W01
 BYTE   W01
 BYTE   W01
 BYTE   W01
 BYTE   W01
 BYTE   W01
 BYTE   W01
 BYTE   W01
 BYTE   W01
 BYTE   W01
 BYTE   W01
 BYTE   W01
 BYTE   W01
 BYTE   W01
 BYTE   W01
 BYTE   W01
 BYTE   W01
 BYTE   W01
 BYTE   W01
 BYTE   PEND 
//  #04 //011   ----------------------------------------
Label_0117B7F5:
 BYTE   W01
 BYTE   W01
 BYTE   W01
 BYTE   W01
 BYTE   W01
 BYTE   W01
 BYTE   W01
 BYTE   W01
 BYTE   W01
 BYTE   W01
 BYTE   W01
 BYTE   W01
 BYTE   W01
 BYTE   W01
 BYTE   W01
 BYTE   W01
 BYTE   W01
 BYTE   W01
 BYTE   W01
 BYTE   W01
 BYTE   W01
 BYTE   W01
 BYTE   W01
 BYTE   W01
 BYTE   W01
 BYTE   W01
 BYTE   W01
 BYTE   W01
 BYTE   W01
 BYTE   W01
 BYTE   W01
 BYTE   W01
 BYTE   W01
 BYTE   W01
 BYTE   W01
 BYTE   W01
 BYTE   W01
 BYTE   W01
 BYTE   W01
 BYTE   W01
 BYTE   W01
 BYTE   W01
 BYTE   W01
 BYTE   W01
 BYTE   W01
 BYTE   W01
 BYTE   W01
 BYTE   W01
 BYTE   N12  Ds3  v100
 BYTE   W12
 BYTE   N12
 BYTE   W36
 BYTE   PEND 
//  #04 //012   ----------------------------------------
 BYTE   PATT
  POIN2 Label_0117B782
//  #04 //013   ----------------------------------------
 BYTE   PATT
  POIN2 Label_0117B703
//  #04 //014   ----------------------------------------
 BYTE   PATT
  POIN2 Label_0117B710
//  #04 //015   ----------------------------------------
 BYTE   PATT
  POIN2 Label_0117B74B
//  #04 //016   ----------------------------------------
Label_0117B840:
 BYTE   W12
 BYTE   N12  As1  v080
 BYTE   W24
 BYTE   N12
 BYTE   W12
 BYTE   N12
 BYTE   N36  Dn3
 BYTE   W36
 BYTE   N12  Cn3
 BYTE   W12
 BYTE   PEND 
//  #04 //017   ----------------------------------------
Label_0117B84F:
 BYTE   W24
 BYTE   N12  Cn3  v056
 BYTE   W24
 BYTE   Cn3  v040
 BYTE   W24
 BYTE   As2  v080
 BYTE   W12
 BYTE   N12
 BYTE   W12
 BYTE   PEND 
//  #04 //018   ----------------------------------------
Label_0117B85D:
 BYTE   W12
 BYTE   N12  Gn2  v096
 BYTE   W12
 BYTE   Cn3
 BYTE   W12
 BYTE   Dn3
 BYTE   W12
 BYTE   Ds3
 BYTE   W12
 BYTE   Gn3
 BYTE   W12
 BYTE   Ds3
 BYTE   W12
 BYTE   Dn3
 BYTE   W12
 BYTE   PEND 
//  #04 //019   ----------------------------------------
Label_0117B86F:
 BYTE   N12  Ds3  v096
 BYTE   W12
 BYTE   Gs2
 BYTE   W12
 BYTE   Cn3
 BYTE   W12
 BYTE   Dn3
 BYTE   W12
 BYTE   Ds3
 BYTE   W12
 BYTE   Gn3
 BYTE   W12
 BYTE   Ds3
 BYTE   W12
 BYTE   Dn3
 BYTE   W12
 BYTE   PEND 
//  #04 //020   ----------------------------------------
Label_0117B882:
 BYTE   N12  Ds3  v096
 BYTE   W12
 BYTE   As2
 BYTE   W12
 BYTE   Cn3
 BYTE   W12
 BYTE   Dn3
 BYTE   W12
 BYTE   Ds3
 BYTE   W12
 BYTE   Gn3
 BYTE   W12
 BYTE   Ds3
 BYTE   W12
 BYTE   Dn3
 BYTE   W12
 BYTE   PEND 
//  #04 //021   ----------------------------------------
 BYTE   PATT
  POIN2 Label_0117B86F
//  #04 //022   ----------------------------------------
Label_0117B89A:
 BYTE   N12  Ds3  v096
 BYTE   W12
 BYTE   Gn2
 BYTE   W12
 BYTE   Cn3
 BYTE   W12
 BYTE   Dn3
 BYTE   W12
 BYTE   Ds3
 BYTE   W12
 BYTE   Gn3
 BYTE   W12
 BYTE   Ds3
 BYTE   W12
 BYTE   Dn3
 BYTE   W12
 BYTE   PEND 
//  #04 //023   ----------------------------------------
 BYTE   PATT
  POIN2 Label_0117B86F
//  #04 //024   ----------------------------------------
 BYTE   PATT
  POIN2 Label_0117B882
//  #04 //025   ----------------------------------------
 BYTE   PATT
  POIN2 Label_0117B86F
//  #04 //026   ----------------------------------------
 BYTE   PATT
  POIN2 Label_0117B89A
//  #04 //027   ----------------------------------------
 BYTE   PATT
  POIN2 Label_0117B86F
//  #04 //028   ----------------------------------------
 BYTE   PATT
  POIN2 Label_0117B882
//  #04 //029   ----------------------------------------
 BYTE   PATT
  POIN2 Label_0117B86F
//  #04 //030   ----------------------------------------
 BYTE   PATT
  POIN2 Label_0117B89A
//  #04 //031   ----------------------------------------
 BYTE   PATT
  POIN2 Label_0117B86F
//  #04 //032   ----------------------------------------
 BYTE   PATT
  POIN2 Label_0117B882
//  #04 //033   ----------------------------------------
Label_0117B8DF:
 BYTE   N12  Ds3  v096
 BYTE   W12
 BYTE   Gs2
 BYTE   W12
 BYTE   Cn3
 BYTE   W12
 BYTE   Dn3
 BYTE   W12
 BYTE   Ds3
 BYTE   W12
 BYTE   Gn3
 BYTE   W12
 BYTE   Ds3
 BYTE   W12
 BYTE   Dn3  v080
 BYTE   W12
 BYTE   PEND 
//  #04 //034   ----------------------------------------
Label_0117B8F3:
 BYTE   N12  Cn1  v080
 BYTE   W24
 BYTE   N12
 BYTE   W12
 BYTE   N12
 BYTE   W12
 BYTE   Cn3
 BYTE   W12
 BYTE   Dn3
 BYTE   W12
 BYTE   Cn1
 BYTE   W12
 BYTE   Ds3
 BYTE   W12
 BYTE   PEND 
//  #04 //035   ----------------------------------------
Label_0117B904:
 BYTE   W12
 BYTE   N12  Ds3  v080
 BYTE   W12
 BYTE   Dn3
 BYTE   W12
 BYTE   Cn1
 BYTE   W12
 BYTE   Cn3
 BYTE   W12
 BYTE   Dn3
 BYTE   W12
 BYTE   Cn1
 BYTE   W24
 BYTE   PEND 
//  #04 //036   ----------------------------------------
Label_0117B914:
 BYTE   N12  Cn1  v080
 BYTE   W24
 BYTE   Gn3
 BYTE   W24
 BYTE   N12
 BYTE   W24
 BYTE   Cn1
 BYTE   W12
 BYTE   Ds3  v052
 BYTE   W12
 BYTE   PEND 
//  #04 //037   ----------------------------------------
Label_0117B922:
 BYTE   W12
 BYTE   N12  Ds3  v080
 BYTE   W12
 BYTE   Dn3
 BYTE   W24
 BYTE   Cn3
 BYTE   W12
 BYTE   Dn3
 BYTE   W12
 BYTE   Cn1
 BYTE   W24
 BYTE   PEND 
//  #04 //038   ----------------------------------------
Label_0117B930:
 BYTE   N12  As1  v080
 BYTE   W24
 BYTE   N12
 BYTE   W12
 BYTE   N12
 BYTE   W12
 BYTE   Cn3
 BYTE   W12
 BYTE   Dn3
 BYTE   W12
 BYTE   As1
 BYTE   W12
 BYTE   Ds3
 BYTE   W12
 BYTE   PEND 
//  #04 //039   ----------------------------------------
Label_0117B941:
 BYTE   W12
 BYTE   N12  Ds3  v080
 BYTE   W12
 BYTE   Dn3
 BYTE   W12
 BYTE   As1
 BYTE   W12
 BYTE   Cn3
 BYTE   W12
 BYTE   Dn3
 BYTE   W12
 BYTE   As1
 BYTE   W24
 BYTE   PEND 
//  #04 //040   ----------------------------------------
Label_0117B951:
 BYTE   N12  Gs1  v080
 BYTE   W24
 BYTE   Gn3
 BYTE   W24
 BYTE   N12
 BYTE   W24
 BYTE   Gs1
 BYTE   W12
 BYTE   Ds3  v052
 BYTE   W12
 BYTE   PEND 
//  #04 //041   ----------------------------------------
Label_0117B95F:
 BYTE   W12
 BYTE   N12  Ds3  v080
 BYTE   W12
 BYTE   Dn3
 BYTE   W24
 BYTE   Cn3
 BYTE   W12
 BYTE   Dn3
 BYTE   W12
 BYTE   Gs1
 BYTE   W24
 BYTE   PEND 
//  #04 //042   ----------------------------------------
 BYTE   PATT
  POIN2 Label_0117B8F3
//  #04 //043   ----------------------------------------
 BYTE   PATT
  POIN2 Label_0117B904
//  #04 //044   ----------------------------------------
 BYTE   PATT
  POIN2 Label_0117B914
//  #04 //045   ----------------------------------------
 BYTE   PATT
  POIN2 Label_0117B922
//  #04 //046   ----------------------------------------
 BYTE   PATT
  POIN2 Label_0117B930
//  #04 //047   ----------------------------------------
 BYTE   PATT
  POIN2 Label_0117B941
//  #04 //048   ----------------------------------------
 BYTE   PATT
  POIN2 Label_0117B951
//  #04 //049   ----------------------------------------
 BYTE   PATT
  POIN2 Label_0117B95F
//  #04 //050   ----------------------------------------
Label_0117B995:
 BYTE   N12  Cn2  v080
 BYTE   W24
 BYTE   N12
 BYTE   W12
 BYTE   N12
 BYTE   W12
 BYTE   Gn2
 BYTE   W12
 BYTE   As2
 BYTE   W24
 BYTE   Cn3
 BYTE   W12
 BYTE   PEND 
//  #04 //051   ----------------------------------------
Label_0117B9A4:
 BYTE   W12
 BYTE   N12  Cn3  v080
 BYTE   W12
 BYTE   As2
 BYTE   W24
 BYTE   Fn2
 BYTE   W12
 BYTE   Gn2
 BYTE   W12
 BYTE   Ds2
 BYTE   W12
 BYTE   Fn2
 BYTE   W12
 BYTE   PEND 
//  #04 //052   ----------------------------------------
 BYTE   PATT
  POIN2 Label_0117B995
//  #04 //053   ----------------------------------------
 BYTE   PATT
  POIN2 Label_0117B9A4
//  #04 //054   ----------------------------------------
 BYTE   PATT
  POIN2 Label_0117B995
//  #04 //055   ----------------------------------------
 BYTE   PATT
  POIN2 Label_0117B9A4
//  #04 //056   ----------------------------------------
 BYTE   PATT
  POIN2 Label_0117B995
//  #04 //057   ----------------------------------------
 BYTE   PATT
  POIN2 Label_0117B9A4
//  #04 //058   ----------------------------------------
 BYTE   PATT
  POIN2 Label_0117B782
//  #04 //059   ----------------------------------------
 BYTE   PATT
  POIN2 Label_0117B703
//  #04 //060   ----------------------------------------
 BYTE   PATT
  POIN2 Label_0117B710
//  #04 //061   ----------------------------------------
 BYTE   PATT
  POIN2 Label_0117B74B
//  #04 //062   ----------------------------------------
 BYTE   PATT
  POIN2 Label_0117B782
//  #04 //063   ----------------------------------------
 BYTE   PATT
  POIN2 Label_0117B703
//  #04 //064   ----------------------------------------
 BYTE   PATT
  POIN2 Label_0117B710
//  #04 //065   ----------------------------------------
 BYTE   PATT
  POIN2 Label_0117B74B
//  #04 //066   ----------------------------------------
 BYTE   PATT
  POIN2 Label_0117B79F
//  #04 //067   ----------------------------------------
 BYTE   PATT
  POIN2 Label_0117B7AD
//  #04 //068   ----------------------------------------
 BYTE   PATT
  POIN2 Label_0117B7BA
//  #04 //069   ----------------------------------------
 BYTE   PATT
  POIN2 Label_0117B7F5
//  #04 //070   ----------------------------------------
 BYTE   PATT
  POIN2 Label_0117B782
//  #04 //071   ----------------------------------------
 BYTE   PATT
  POIN2 Label_0117B703
//  #04 //072   ----------------------------------------
 BYTE   PATT
  POIN2 Label_0117B710
//  #04 //073   ----------------------------------------
 BYTE   PATT
  POIN2 Label_0117B74B
//  #04 //074   ----------------------------------------
 BYTE   PATT
  POIN2 Label_0117B840
//  #04 //075   ----------------------------------------
 BYTE   PATT
  POIN2 Label_0117B84F
//  #04 //076   ----------------------------------------
 BYTE   PATT
  POIN2 Label_0117B85D
//  #04 //077   ----------------------------------------
 BYTE   PATT
  POIN2 Label_0117B86F
//  #04 //078   ----------------------------------------
 BYTE   PATT
  POIN2 Label_0117B882
//  #04 //079   ----------------------------------------
 BYTE   PATT
  POIN2 Label_0117B86F
//  #04 //080   ----------------------------------------
 BYTE   PATT
  POIN2 Label_0117B89A
//  #04 //081   ----------------------------------------
 BYTE   PATT
  POIN2 Label_0117B86F
//  #04 //082   ----------------------------------------
 BYTE   PATT
  POIN2 Label_0117B882
//  #04 //083   ----------------------------------------
 BYTE   PATT
  POIN2 Label_0117B86F
//  #04 //084   ----------------------------------------
 BYTE   PATT
  POIN2 Label_0117B89A
//  #04 //085   ----------------------------------------
 BYTE   PATT
  POIN2 Label_0117B86F
//  #04 //086   ----------------------------------------
 BYTE   PATT
  POIN2 Label_0117B882
//  #04 //087   ----------------------------------------
 BYTE   PATT
  POIN2 Label_0117B86F
//  #04 //088   ----------------------------------------
 BYTE   PATT
  POIN2 Label_0117B89A
//  #04 //089   ----------------------------------------
 BYTE   PATT
  POIN2 Label_0117B86F
//  #04 //090   ----------------------------------------
 BYTE   PATT
  POIN2 Label_0117B882
//  #04 //091   ----------------------------------------
 BYTE   PATT
  POIN2 Label_0117B8DF
//  #04 //092   ----------------------------------------
 BYTE   PATT
  POIN2 Label_0117B8F3
//  #04 //093   ----------------------------------------
 BYTE   PATT
  POIN2 Label_0117B904
//  #04 //094   ----------------------------------------
 BYTE   PATT
  POIN2 Label_0117B914
//  #04 //095   ----------------------------------------
 BYTE   PATT
  POIN2 Label_0117B922
//  #04 //096   ----------------------------------------
 BYTE   PATT
  POIN2 Label_0117B930
//  #04 //097   ----------------------------------------
 BYTE   PATT
  POIN2 Label_0117B941
//  #04 //098   ----------------------------------------
 BYTE   PATT
  POIN2 Label_0117B951
//  #04 //099   ----------------------------------------
 BYTE   PATT
  POIN2 Label_0117B95F
//  #04 //100   ----------------------------------------
 BYTE   PATT
  POIN2 Label_0117B8F3
//  #04 //101   ----------------------------------------
 BYTE   PATT
  POIN2 Label_0117B904
//  #04 //102   ----------------------------------------
 BYTE   PATT
  POIN2 Label_0117B914
//  #04 //103   ----------------------------------------
 BYTE   PATT
  POIN2 Label_0117B922
//  #04 //104   ----------------------------------------
 BYTE   PATT
  POIN2 Label_0117B930
//  #04 //105   ----------------------------------------
 BYTE   PATT
  POIN2 Label_0117B941
//  #04 //106   ----------------------------------------
 BYTE   PATT
  POIN2 Label_0117B951
//  #04 //107   ----------------------------------------
 BYTE   PATT
  POIN2 Label_0117B95F
//  #04 //108   ----------------------------------------
 BYTE   PATT
  POIN2 Label_0117B995
//  #04 //109   ----------------------------------------
 BYTE   PATT
  POIN2 Label_0117B9A4
//  #04 //110   ----------------------------------------
 BYTE   PATT
  POIN2 Label_0117B995
//  #04 //111   ----------------------------------------
 BYTE   PATT
  POIN2 Label_0117B9A4
//  #04 //112   ----------------------------------------
 BYTE   PATT
  POIN2 Label_0117B995
//  #04 //113   ----------------------------------------
 BYTE   PATT
  POIN2 Label_0117B9A4
//  #04 //114   ----------------------------------------
 BYTE   PATT
  POIN2 Label_0117B995
//  #04 //115   ----------------------------------------
 BYTE   PATT
  POIN2 Label_0117B9A4
//  #04 //116   ----------------------------------------
 BYTE   GoTo
  POIN2 Label_0117B6F2
 BYTE   FINE

//**************** Track 5 (Midi-Chn.4) ****************//

BattleToadSurf_005:
//  #05 //000   ----------------------------------------
 BYTE   KEYSH   BattleToadSurf_key+0
Label_0117ADDA:
 BYTE   VOICE   50
 BYTE   VOL   34*BattleToadSurf_mvl/mxv
 BYTE   TIE  Gn2  v060
 BYTE   W96
//  #05 //001   ----------------------------------------
 BYTE   W96
//  #05 //002   ----------------------------------------
 BYTE   W96
//  #05 //003   ----------------------------------------
 BYTE   W96
//  #05 //004   ----------------------------------------
 BYTE   W36
 BYTE   EOT
 BYTE   TIE
 BYTE   W60
//  #05 //005   ----------------------------------------
 BYTE   W96
//  #05 //006   ----------------------------------------
 BYTE   W96
//  #05 //007   ----------------------------------------
 BYTE   W96
//  #05 //008   ----------------------------------------
 BYTE   W36
 BYTE   EOT
 BYTE   TIE  Cn3
 BYTE   W60
//  #05 //009   ----------------------------------------
 BYTE   W96
//  #05 //010   ----------------------------------------
 BYTE   W96
//  #05 //011   ----------------------------------------
 BYTE   W96
//  #05 //012   ----------------------------------------
 BYTE   W36
 BYTE   EOT
 BYTE   TIE  Gn2
 BYTE   W60
//  #05 //013   ----------------------------------------
 BYTE   W96
//  #05 //014   ----------------------------------------
 BYTE   W96
//  #05 //015   ----------------------------------------
 BYTE   W96
//  #05 //016   ----------------------------------------
 BYTE   EOT
Label_0117ADFD:
 BYTE   N72  As2  v080
 BYTE   W72
 BYTE   N24  Gs2
 BYTE   W24
 BYTE   PEND 
//  #05 //017   ----------------------------------------
 BYTE   W96
//  #05 //018   ----------------------------------------
 BYTE   N96  Gn2  v060
 BYTE   W96
//  #05 //019   ----------------------------------------
 BYTE   Gs2
 BYTE   W96
//  #05 //020   ----------------------------------------
 BYTE   As2
 BYTE   W96
//  #05 //021   ----------------------------------------
 BYTE   Gs2
 BYTE   W96
//  #05 //022   ----------------------------------------
 BYTE   Gn2
 BYTE   W96
//  #05 //023   ----------------------------------------
 BYTE   Gs2
 BYTE   W96
//  #05 //024   ----------------------------------------
 BYTE   As2
 BYTE   W96
//  #05 //025   ----------------------------------------
 BYTE   Gs2
 BYTE   W96
//  #05 //026   ----------------------------------------
 BYTE   Gn2
 BYTE   W96
//  #05 //027   ----------------------------------------
 BYTE   Gs2
 BYTE   W96
//  #05 //028   ----------------------------------------
 BYTE   As2
 BYTE   W96
//  #05 //029   ----------------------------------------
 BYTE   Gs2
 BYTE   W96
//  #05 //030   ----------------------------------------
 BYTE   Gn2
 BYTE   W96
//  #05 //031   ----------------------------------------
 BYTE   Gs2
 BYTE   W96
//  #05 //032   ----------------------------------------
 BYTE   As2
 BYTE   W96
//  #05 //033   ----------------------------------------
 BYTE   Gs2
 BYTE   W96
//  #05 //034   ----------------------------------------
 BYTE   TIE  Ds3  v080
 BYTE   W96
//  #05 //035   ----------------------------------------
 BYTE   W96
//  #05 //036   ----------------------------------------
 BYTE   W96
//  #05 //037   ----------------------------------------
 BYTE   W96
//  #05 //038   ----------------------------------------
 BYTE   EOT
 BYTE   TIE
 BYTE   W96
//  #05 //039   ----------------------------------------
 BYTE   W96
//  #05 //040   ----------------------------------------
 BYTE   W96
//  #05 //041   ----------------------------------------
 BYTE   W96
//  #05 //042   ----------------------------------------
 BYTE   EOT
 BYTE   TIE
 BYTE   W96
//  #05 //043   ----------------------------------------
 BYTE   W96
//  #05 //044   ----------------------------------------
 BYTE   W96
//  #05 //045   ----------------------------------------
 BYTE   W96
//  #05 //046   ----------------------------------------
 BYTE   EOT
 BYTE   TIE
 BYTE   W96
//  #05 //047   ----------------------------------------
 BYTE   W96
//  #05 //048   ----------------------------------------
 BYTE   W96
//  #05 //049   ----------------------------------------
 BYTE   W96
//  #05 //050   ----------------------------------------
 BYTE   EOT
 BYTE   TIE  Gn2
 BYTE   W96
//  #05 //051   ----------------------------------------
 BYTE   W96
//  #05 //052   ----------------------------------------
 BYTE   W96
//  #05 //053   ----------------------------------------
 BYTE   W96
//  #05 //054   ----------------------------------------
 BYTE   EOT
 BYTE   TIE
 BYTE   W96
//  #05 //055   ----------------------------------------
 BYTE   W96
//  #05 //056   ----------------------------------------
 BYTE   W96
//  #05 //057   ----------------------------------------
 BYTE   W96
//  #05 //058   ----------------------------------------
 BYTE   EOT
 BYTE   TIE  Gn2  v060
 BYTE   W96
//  #05 //059   ----------------------------------------
 BYTE   W96
//  #05 //060   ----------------------------------------
 BYTE   W96
//  #05 //061   ----------------------------------------
 BYTE   W96
//  #05 //062   ----------------------------------------
 BYTE   W36
 BYTE   EOT
 BYTE   TIE
 BYTE   W60
//  #05 //063   ----------------------------------------
 BYTE   W96
//  #05 //064   ----------------------------------------
 BYTE   W96
//  #05 //065   ----------------------------------------
 BYTE   W96
//  #05 //066   ----------------------------------------
 BYTE   W36
 BYTE   EOT
 BYTE   TIE  Cn3
 BYTE   W60
//  #05 //067   ----------------------------------------
 BYTE   W96
//  #05 //068   ----------------------------------------
 BYTE   W96
//  #05 //069   ----------------------------------------
 BYTE   W96
//  #05 //070   ----------------------------------------
 BYTE   W36
 BYTE   EOT
 BYTE   TIE  Gn2
 BYTE   W60
//  #05 //071   ----------------------------------------
 BYTE   W96
//  #05 //072   ----------------------------------------
 BYTE   W96
//  #05 //073   ----------------------------------------
 BYTE   W96
//  #05 //074   ----------------------------------------
 BYTE   EOT
//  #05 //075   ----------------------------------------
 BYTE   PATT
  POIN2 Label_0117ADFD
//  #05 //076   ----------------------------------------
 BYTE   W96
//  #05 //077   ----------------------------------------
 BYTE   N96  Gn2  v060
 BYTE   W96
//  #05 //078   ----------------------------------------
 BYTE   Gs2
 BYTE   W96
//  #05 //079   ----------------------------------------
 BYTE   As2
 BYTE   W96
//  #05 //080   ----------------------------------------
 BYTE   Gs2
 BYTE   W96
//  #05 //081   ----------------------------------------
 BYTE   Gn2
 BYTE   W96
//  #05 //082   ----------------------------------------
 BYTE   Gs2
 BYTE   W96
//  #05 //083   ----------------------------------------
 BYTE   As2
 BYTE   W96
//  #05 //084   ----------------------------------------
 BYTE   Gs2
 BYTE   W96
//  #05 //085   ----------------------------------------
 BYTE   Gn2
 BYTE   W96
//  #05 //086   ----------------------------------------
 BYTE   Gs2
 BYTE   W96
//  #05 //087   ----------------------------------------
 BYTE   As2
 BYTE   W96
//  #05 //088   ----------------------------------------
 BYTE   Gs2
 BYTE   W96
//  #05 //089   ----------------------------------------
 BYTE   Gn2
 BYTE   W96
//  #05 //090   ----------------------------------------
 BYTE   Gs2
 BYTE   W96
//  #05 //091   ----------------------------------------
 BYTE   As2
 BYTE   W96
//  #05 //092   ----------------------------------------
 BYTE   Gs2
 BYTE   W96
//  #05 //093   ----------------------------------------
 BYTE   TIE  Ds3  v080
 BYTE   W96
//  #05 //094   ----------------------------------------
 BYTE   W96
//  #05 //095   ----------------------------------------
 BYTE   W96
//  #05 //096   ----------------------------------------
 BYTE   W96
//  #05 //097   ----------------------------------------
 BYTE   EOT
 BYTE   TIE
 BYTE   W96
//  #05 //098   ----------------------------------------
 BYTE   W96
//  #05 //099   ----------------------------------------
 BYTE   W96
//  #05 //100   ----------------------------------------
 BYTE   W96
//  #05 //101   ----------------------------------------
 BYTE   EOT
 BYTE   TIE
 BYTE   W96
//  #05 //102   ----------------------------------------
 BYTE   W96
//  #05 //103   ----------------------------------------
 BYTE   W96
//  #05 //104   ----------------------------------------
 BYTE   W96
//  #05 //105   ----------------------------------------
 BYTE   EOT
 BYTE   TIE
 BYTE   W96
//  #05 //106   ----------------------------------------
 BYTE   W96
//  #05 //107   ----------------------------------------
 BYTE   W96
//  #05 //108   ----------------------------------------
 BYTE   W96
//  #05 //109   ----------------------------------------
 BYTE   EOT
 BYTE   TIE  Gn2
 BYTE   W96
//  #05 //110   ----------------------------------------
 BYTE   W96
//  #05 //111   ----------------------------------------
 BYTE   W96
//  #05 //112   ----------------------------------------
 BYTE   W96
//  #05 //113   ----------------------------------------
 BYTE   EOT
 BYTE   TIE
 BYTE   W96
//  #05 //114   ----------------------------------------
 BYTE   W96
//  #05 //115   ----------------------------------------
 BYTE   W96
//  #05 //116   ----------------------------------------
 BYTE   W96
//  #05 //117   ----------------------------------------
 BYTE   EOT
 BYTE   GoTo
  POIN2 Label_0117ADDA
 BYTE   FINE

//**************** Track 6 (Midi-Chn.5) ****************//

BattleToadSurf_006:
//  #06 //000   ----------------------------------------
 BYTE   KEYSH   BattleToadSurf_key+0
Label_0117AEC6:
 BYTE   VOICE   50
 BYTE   VOL   31*BattleToadSurf_mvl/mxv
 BYTE   PAN   c_v-38
 BYTE   TIE  Cn3  v080
 BYTE   W96
//  #06 //001   ----------------------------------------
 BYTE   W96
//  #06 //002   ----------------------------------------
 BYTE   W96
//  #06 //003   ----------------------------------------
 BYTE   W96
//  #06 //004   ----------------------------------------
 BYTE   EOT
 BYTE   TIE
 BYTE   W96
//  #06 //005   ----------------------------------------
 BYTE   W96
//  #06 //006   ----------------------------------------
 BYTE   W96
//  #06 //007   ----------------------------------------
 BYTE   W96
//  #06 //008   ----------------------------------------
 BYTE   EOT
 BYTE   TIE  Fn3
 BYTE   W96
//  #06 //009   ----------------------------------------
 BYTE   W96
//  #06 //010   ----------------------------------------
 BYTE   W96
//  #06 //011   ----------------------------------------
 BYTE   W96
//  #06 //012   ----------------------------------------
 BYTE   EOT
 BYTE   TIE  Cn3
 BYTE   W96
//  #06 //013   ----------------------------------------
 BYTE   W96
//  #06 //014   ----------------------------------------
 BYTE   W96
//  #06 //015   ----------------------------------------
 BYTE   W96
//  #06 //016   ----------------------------------------
 BYTE   EOT
 BYTE   N96  Fn2
 BYTE   W96
//  #06 //017   ----------------------------------------
 BYTE   W96
//  #06 //018   ----------------------------------------
 BYTE   TIE  Cn3  v072
 BYTE   W96
//  #06 //019   ----------------------------------------
 BYTE   W96
//  #06 //020   ----------------------------------------
 BYTE   W96
//  #06 //021   ----------------------------------------
 BYTE   W96
//  #06 //022   ----------------------------------------
 BYTE   EOT
 BYTE   TIE
 BYTE   W96
//  #06 //023   ----------------------------------------
 BYTE   W96
//  #06 //024   ----------------------------------------
 BYTE   W96
//  #06 //025   ----------------------------------------
 BYTE   W96
//  #06 //026   ----------------------------------------
 BYTE   EOT
 BYTE   TIE
 BYTE   W96
//  #06 //027   ----------------------------------------
 BYTE   W96
//  #06 //028   ----------------------------------------
 BYTE   W96
//  #06 //029   ----------------------------------------
 BYTE   W96
//  #06 //030   ----------------------------------------
 BYTE   EOT
 BYTE   TIE
 BYTE   W96
//  #06 //031   ----------------------------------------
 BYTE   W96
//  #06 //032   ----------------------------------------
 BYTE   W96
//  #06 //033   ----------------------------------------
 BYTE   W96
//  #06 //034   ----------------------------------------
 BYTE   EOT
 BYTE   TIE  Cn3  v080
 BYTE   W96
//  #06 //035   ----------------------------------------
 BYTE   W96
//  #06 //036   ----------------------------------------
 BYTE   W96
//  #06 //037   ----------------------------------------
 BYTE   W96
//  #06 //038   ----------------------------------------
 BYTE   EOT
 BYTE   TIE  As2
 BYTE   W96
//  #06 //039   ----------------------------------------
 BYTE   W96
//  #06 //040   ----------------------------------------
 BYTE   EOT
 BYTE   TIE  Gs2
 BYTE   W96
//  #06 //041   ----------------------------------------
 BYTE   W96
//  #06 //042   ----------------------------------------
 BYTE   EOT
 BYTE   TIE  Cn3
 BYTE   W96
//  #06 //043   ----------------------------------------
 BYTE   W96
//  #06 //044   ----------------------------------------
 BYTE   W96
//  #06 //045   ----------------------------------------
 BYTE   W96
//  #06 //046   ----------------------------------------
 BYTE   EOT
 BYTE   TIE  As2
 BYTE   W96
//  #06 //047   ----------------------------------------
 BYTE   W96
//  #06 //048   ----------------------------------------
 BYTE   EOT
 BYTE   TIE  Gs2
 BYTE   W96
//  #06 //049   ----------------------------------------
 BYTE   W96
//  #06 //050   ----------------------------------------
 BYTE   EOT
Label_0117AF29:
 BYTE   N96  Ds2  v080
 BYTE   N96  Gn2
 BYTE   TIE  Cn3
 BYTE   W96
 BYTE   PEND 
//  #06 //051   ----------------------------------------
 BYTE   W96
//  #06 //052   ----------------------------------------
 BYTE   W96
//  #06 //053   ----------------------------------------
 BYTE   W96
//  #06 //054   ----------------------------------------
 BYTE   EOT
//  #06 //055   ----------------------------------------
 BYTE   PATT
  POIN2 Label_0117AF29
//  #06 //056   ----------------------------------------
 BYTE   W96
//  #06 //057   ----------------------------------------
 BYTE   W96
//  #06 //058   ----------------------------------------
 BYTE   W96
//  #06 //059   ----------------------------------------
 BYTE   EOT
 BYTE   Cn3
 BYTE   PAN   c_v-38
 BYTE   TIE  Cn3  v080
 BYTE   W96
//  #06 //060   ----------------------------------------
 BYTE   W96
//  #06 //061   ----------------------------------------
 BYTE   W96
//  #06 //062   ----------------------------------------
 BYTE   W96
//  #06 //063   ----------------------------------------
 BYTE   EOT
 BYTE   TIE
 BYTE   W96
//  #06 //064   ----------------------------------------
 BYTE   W96
//  #06 //065   ----------------------------------------
 BYTE   W96
//  #06 //066   ----------------------------------------
 BYTE   W96
//  #06 //067   ----------------------------------------
 BYTE   EOT
 BYTE   TIE  Fn3
 BYTE   W96
//  #06 //068   ----------------------------------------
 BYTE   W96
//  #06 //069   ----------------------------------------
 BYTE   W96
//  #06 //070   ----------------------------------------
 BYTE   W96
//  #06 //071   ----------------------------------------
 BYTE   EOT
 BYTE   TIE  Cn3
 BYTE   W96
//  #06 //072   ----------------------------------------
 BYTE   W96
//  #06 //073   ----------------------------------------
 BYTE   W96
//  #06 //074   ----------------------------------------
 BYTE   W96
//  #06 //075   ----------------------------------------
 BYTE   EOT
 BYTE   N96  Fn2
 BYTE   W96
//  #06 //076   ----------------------------------------
 BYTE   W96
//  #06 //077   ----------------------------------------
 BYTE   TIE  Cn3  v072
 BYTE   W96
//  #06 //078   ----------------------------------------
 BYTE   W96
//  #06 //079   ----------------------------------------
 BYTE   W96
//  #06 //080   ----------------------------------------
 BYTE   W96
//  #06 //081   ----------------------------------------
 BYTE   EOT
 BYTE   TIE
 BYTE   W96
//  #06 //082   ----------------------------------------
 BYTE   W96
//  #06 //083   ----------------------------------------
 BYTE   W96
//  #06 //084   ----------------------------------------
 BYTE   W96
//  #06 //085   ----------------------------------------
 BYTE   EOT
 BYTE   TIE
 BYTE   W96
//  #06 //086   ----------------------------------------
 BYTE   W96
//  #06 //087   ----------------------------------------
 BYTE   W96
//  #06 //088   ----------------------------------------
 BYTE   W96
//  #06 //089   ----------------------------------------
 BYTE   EOT
 BYTE   TIE
 BYTE   W96
//  #06 //090   ----------------------------------------
 BYTE   W96
//  #06 //091   ----------------------------------------
 BYTE   W96
//  #06 //092   ----------------------------------------
 BYTE   W96
//  #06 //093   ----------------------------------------
 BYTE   EOT
 BYTE   TIE  Cn3  v080
 BYTE   W96
//  #06 //094   ----------------------------------------
 BYTE   W96
//  #06 //095   ----------------------------------------
 BYTE   W96
//  #06 //096   ----------------------------------------
 BYTE   W96
//  #06 //097   ----------------------------------------
 BYTE   EOT
 BYTE   TIE  As2
 BYTE   W96
//  #06 //098   ----------------------------------------
 BYTE   W96
//  #06 //099   ----------------------------------------
 BYTE   EOT
 BYTE   TIE  Gs2
 BYTE   W96
//  #06 //100   ----------------------------------------
 BYTE   W96
//  #06 //101   ----------------------------------------
 BYTE   EOT
 BYTE   TIE  Cn3
 BYTE   W96
//  #06 //102   ----------------------------------------
 BYTE   W96
//  #06 //103   ----------------------------------------
 BYTE   W96
//  #06 //104   ----------------------------------------
 BYTE   W96
//  #06 //105   ----------------------------------------
 BYTE   EOT
 BYTE   TIE  As2
 BYTE   W96
//  #06 //106   ----------------------------------------
 BYTE   W96
//  #06 //107   ----------------------------------------
 BYTE   EOT
 BYTE   TIE  Gs2
 BYTE   W96
//  #06 //108   ----------------------------------------
 BYTE   W96
//  #06 //109   ----------------------------------------
 BYTE   EOT
//  #06 //110   ----------------------------------------
 BYTE   PATT
  POIN2 Label_0117AF29
//  #06 //111   ----------------------------------------
 BYTE   W96
//  #06 //112   ----------------------------------------
 BYTE   W96
//  #06 //113   ----------------------------------------
 BYTE   W96
//  #06 //114   ----------------------------------------
 BYTE   EOT
 BYTE   Cn3
//  #06 //115   ----------------------------------------
 BYTE   PATT
  POIN2 Label_0117AF29
//  #06 //116   ----------------------------------------
 BYTE   W96
//  #06 //117   ----------------------------------------
 BYTE   W96
//  #06 //118   ----------------------------------------
 BYTE   W96
//  #06 //119   ----------------------------------------
 BYTE   EOT
 BYTE   Cn3
 BYTE   GoTo
  POIN2 Label_0117AEC6
 BYTE   FINE

//**************** Track 7 (Midi-Chn.6) ****************//

BattleToadSurf_007:
//  #07 //000   ----------------------------------------
 BYTE   KEYSH   BattleToadSurf_key+0
Label_01179B8A:
 BYTE   VOICE   50
 BYTE   VOL   11*BattleToadSurf_mvl/mxv
 BYTE   TIE  Ds2  v080
 BYTE   W24
 BYTE   PAN   c_v+33
 BYTE   W72
//  #07 //001   ----------------------------------------
 BYTE   W96
//  #07 //002   ----------------------------------------
 BYTE   W96
//  #07 //003   ----------------------------------------
 BYTE   W96
//  #07 //004   ----------------------------------------
 BYTE   W24
 BYTE   EOT
 BYTE   TIE
 BYTE   W72
//  #07 //005   ----------------------------------------
 BYTE   W96
//  #07 //006   ----------------------------------------
 BYTE   W96
//  #07 //007   ----------------------------------------
 BYTE   W96
//  #07 //008   ----------------------------------------
 BYTE   W24
 BYTE   EOT
 BYTE   TIE  Gs2
 BYTE   W72
//  #07 //009   ----------------------------------------
 BYTE   W96
//  #07 //010   ----------------------------------------
 BYTE   W96
//  #07 //011   ----------------------------------------
 BYTE   W96
//  #07 //012   ----------------------------------------
 BYTE   W24
 BYTE   EOT
 BYTE   TIE  Ds2
 BYTE   W72
//  #07 //013   ----------------------------------------
 BYTE   W96
//  #07 //014   ----------------------------------------
 BYTE   W96
//  #07 //015   ----------------------------------------
 BYTE   W96
//  #07 //016   ----------------------------------------
 BYTE   EOT
 BYTE   N96
 BYTE   W96
//  #07 //017   ----------------------------------------
 BYTE   W96
//  #07 //018   ----------------------------------------
 BYTE   TIE  Ds3  v072
 BYTE   W96
//  #07 //019   ----------------------------------------
 BYTE   W96
//  #07 //020   ----------------------------------------
 BYTE   W96
//  #07 //021   ----------------------------------------
 BYTE   W96
//  #07 //022   ----------------------------------------
 BYTE   EOT
 BYTE   TIE
 BYTE   W96
//  #07 //023   ----------------------------------------
 BYTE   W96
//  #07 //024   ----------------------------------------
 BYTE   W96
//  #07 //025   ----------------------------------------
 BYTE   W96
//  #07 //026   ----------------------------------------
 BYTE   EOT
 BYTE   TIE
 BYTE   W96
//  #07 //027   ----------------------------------------
 BYTE   W96
//  #07 //028   ----------------------------------------
 BYTE   W96
//  #07 //029   ----------------------------------------
 BYTE   W96
//  #07 //030   ----------------------------------------
 BYTE   EOT
 BYTE   TIE
 BYTE   W96
//  #07 //031   ----------------------------------------
 BYTE   W96
//  #07 //032   ----------------------------------------
 BYTE   W96
//  #07 //033   ----------------------------------------
 BYTE   W96
//  #07 //034   ----------------------------------------
 BYTE   EOT
 BYTE   TIE  Gn2  v080
 BYTE   W96
//  #07 //035   ----------------------------------------
 BYTE   W96
//  #07 //036   ----------------------------------------
 BYTE   W96
//  #07 //037   ----------------------------------------
 BYTE   W96
//  #07 //038   ----------------------------------------
 BYTE   EOT
 BYTE   TIE  Fn2
 BYTE   W96
//  #07 //039   ----------------------------------------
 BYTE   W96
//  #07 //040   ----------------------------------------
 BYTE   W96
//  #07 //041   ----------------------------------------
 BYTE   W96
//  #07 //042   ----------------------------------------
 BYTE   EOT
 BYTE   TIE  Gn2
 BYTE   W96
//  #07 //043   ----------------------------------------
 BYTE   W96
//  #07 //044   ----------------------------------------
 BYTE   W96
//  #07 //045   ----------------------------------------
 BYTE   W96
//  #07 //046   ----------------------------------------
 BYTE   EOT
 BYTE   TIE  Fn2
 BYTE   W96
//  #07 //047   ----------------------------------------
 BYTE   W96
//  #07 //048   ----------------------------------------
 BYTE   W96
//  #07 //049   ----------------------------------------
 BYTE   W96
//  #07 //050   ----------------------------------------
 BYTE   EOT
 BYTE   TIE  Ds2
 BYTE   W96
//  #07 //051   ----------------------------------------
 BYTE   W96
//  #07 //052   ----------------------------------------
 BYTE   W96
//  #07 //053   ----------------------------------------
 BYTE   W96
//  #07 //054   ----------------------------------------
 BYTE   EOT
 BYTE   TIE
 BYTE   W96
//  #07 //055   ----------------------------------------
 BYTE   W96
//  #07 //056   ----------------------------------------
 BYTE   W96
//  #07 //057   ----------------------------------------
 BYTE   W96
//  #07 //058   ----------------------------------------
 BYTE   EOT
 BYTE   TIE
 BYTE   W24
 BYTE   PAN   c_v+33
 BYTE   W72
//  #07 //059   ----------------------------------------
 BYTE   W96
//  #07 //060   ----------------------------------------
 BYTE   W96
//  #07 //061   ----------------------------------------
 BYTE   W96
//  #07 //062   ----------------------------------------
 BYTE   W24
 BYTE   EOT
 BYTE   TIE
 BYTE   W72
//  #07 //063   ----------------------------------------
 BYTE   W96
//  #07 //064   ----------------------------------------
 BYTE   W96
//  #07 //065   ----------------------------------------
 BYTE   W96
//  #07 //066   ----------------------------------------
 BYTE   W24
 BYTE   EOT
 BYTE   TIE  Gs2
 BYTE   W72
//  #07 //067   ----------------------------------------
 BYTE   W96
//  #07 //068   ----------------------------------------
 BYTE   W96
//  #07 //069   ----------------------------------------
 BYTE   W96
//  #07 //070   ----------------------------------------
 BYTE   W24
 BYTE   EOT
 BYTE   TIE  Ds2
 BYTE   W72
//  #07 //071   ----------------------------------------
 BYTE   W96
//  #07 //072   ----------------------------------------
 BYTE   W96
//  #07 //073   ----------------------------------------
 BYTE   W96
//  #07 //074   ----------------------------------------
 BYTE   EOT
 BYTE   N96
 BYTE   W96
//  #07 //075   ----------------------------------------
 BYTE   W96
//  #07 //076   ----------------------------------------
 BYTE   TIE  Ds3  v072
 BYTE   W96
//  #07 //077   ----------------------------------------
 BYTE   W96
//  #07 //078   ----------------------------------------
 BYTE   W96
//  #07 //079   ----------------------------------------
 BYTE   W96
//  #07 //080   ----------------------------------------
 BYTE   EOT
 BYTE   TIE
 BYTE   W96
//  #07 //081   ----------------------------------------
 BYTE   W96
//  #07 //082   ----------------------------------------
 BYTE   W96
//  #07 //083   ----------------------------------------
 BYTE   W96
//  #07 //084   ----------------------------------------
 BYTE   EOT
 BYTE   TIE
 BYTE   W96
//  #07 //085   ----------------------------------------
 BYTE   W96
//  #07 //086   ----------------------------------------
 BYTE   W96
//  #07 //087   ----------------------------------------
 BYTE   W96
//  #07 //088   ----------------------------------------
 BYTE   EOT
 BYTE   TIE
 BYTE   W96
//  #07 //089   ----------------------------------------
 BYTE   W96
//  #07 //090   ----------------------------------------
 BYTE   W96
//  #07 //091   ----------------------------------------
 BYTE   W96
//  #07 //092   ----------------------------------------
 BYTE   EOT
 BYTE   TIE  Gn2  v080
 BYTE   W96
//  #07 //093   ----------------------------------------
 BYTE   W96
//  #07 //094   ----------------------------------------
 BYTE   W96
//  #07 //095   ----------------------------------------
 BYTE   W96
//  #07 //096   ----------------------------------------
 BYTE   EOT
 BYTE   TIE  Fn2
 BYTE   W96
//  #07 //097   ----------------------------------------
 BYTE   W96
//  #07 //098   ----------------------------------------
 BYTE   W96
//  #07 //099   ----------------------------------------
 BYTE   W96
//  #07 //100   ----------------------------------------
 BYTE   EOT
 BYTE   TIE  Gn2
 BYTE   W96
//  #07 //101   ----------------------------------------
 BYTE   W96
//  #07 //102   ----------------------------------------
 BYTE   W96
//  #07 //103   ----------------------------------------
 BYTE   W96
//  #07 //104   ----------------------------------------
 BYTE   EOT
 BYTE   TIE  Fn2
 BYTE   W96
//  #07 //105   ----------------------------------------
 BYTE   W96
//  #07 //106   ----------------------------------------
 BYTE   W96
//  #07 //107   ----------------------------------------
 BYTE   W96
//  #07 //108   ----------------------------------------
 BYTE   EOT
 BYTE   TIE  Ds2
 BYTE   W96
//  #07 //109   ----------------------------------------
 BYTE   W96
//  #07 //110   ----------------------------------------
 BYTE   W96
//  #07 //111   ----------------------------------------
 BYTE   W96
//  #07 //112   ----------------------------------------
 BYTE   EOT
 BYTE   TIE
 BYTE   W96
//  #07 //113   ----------------------------------------
 BYTE   W96
//  #07 //114   ----------------------------------------
 BYTE   W96
//  #07 //115   ----------------------------------------
 BYTE   W96
//  #07 //116   ----------------------------------------
 BYTE   EOT
 BYTE   GoTo
  POIN2 Label_01179B8A
 BYTE   FINE

//**************** Track 8 (Midi-Chn.7) ****************//

BattleToadSurf_008:
//  #08 //000   ----------------------------------------
 BYTE   KEYSH   BattleToadSurf_key+0
Label_0117BB0E:
 BYTE   VOICE   29
 BYTE   VOL   40*BattleToadSurf_mvl/mxv
 BYTE   W24
 BYTE   N12  Cn2  v080
 BYTE   W24
 BYTE   N12
 BYTE   W12
 BYTE   N12
 BYTE   W12
 BYTE   Ds2
 BYTE   W12
 BYTE   Fn2
 BYTE   W12
//  #08 //001   ----------------------------------------
Label_0117BB1F:
 BYTE   W12
 BYTE   N12  Gn2  v080
 BYTE   W24
 BYTE   N12
 BYTE   W12
 BYTE   Fn2
 BYTE   W24
 BYTE   Ds2
 BYTE   W12
 BYTE   Fn2
 BYTE   W12
 BYTE   PEND 
//  #08 //002   ----------------------------------------
 BYTE   W24
 BYTE   Cn2
 BYTE   W72
//  #08 //003   ----------------------------------------
 BYTE   W96
//  #08 //004   ----------------------------------------
Label_0117BB31:
 BYTE   W24
 BYTE   N12  Cn2  v080
 BYTE   W24
 BYTE   N12
 BYTE   W12
 BYTE   N12
 BYTE   W12
 BYTE   Ds2
 BYTE   W12
 BYTE   Fn2
 BYTE   W12
 BYTE   PEND 
//  #08 //005   ----------------------------------------
 BYTE   PATT
  POIN2 Label_0117BB1F
//  #08 //006   ----------------------------------------
 BYTE   W24
 BYTE   N12  Cn2  v080
 BYTE   W72
//  #08 //007   ----------------------------------------
 BYTE   W96
//  #08 //008   ----------------------------------------
Label_0117BB4A:
 BYTE   W24
 BYTE   N12  Fn2  v080
 BYTE   W24
 BYTE   N12
 BYTE   W12
 BYTE   N12
 BYTE   W12
 BYTE   Gs2
 BYTE   W12
 BYTE   As2
 BYTE   W12
 BYTE   PEND 
//  #08 //009   ----------------------------------------
Label_0117BB58:
 BYTE   W12
 BYTE   N12  Cn3  v080
 BYTE   W24
 BYTE   N12
 BYTE   W12
 BYTE   As2
 BYTE   W24
 BYTE   Gs2
 BYTE   W12
 BYTE   As2
 BYTE   W12
 BYTE   PEND 
//  #08 //010   ----------------------------------------
 BYTE   W24
 BYTE   Fn2
 BYTE   W72
//  #08 //011   ----------------------------------------
 BYTE   W96
//  #08 //012   ----------------------------------------
 BYTE   PATT
  POIN2 Label_0117BB31
//  #08 //013   ----------------------------------------
 BYTE   PATT
  POIN2 Label_0117BB1F
//  #08 //014   ----------------------------------------
 BYTE   W24
 BYTE   N12  Cn2  v080
 BYTE   W72
//  #08 //015   ----------------------------------------
 BYTE   W96
//  #08 //016   ----------------------------------------
Label_0117BB7A:
 BYTE   W24
 BYTE   N12  As1  v080
 BYTE   W24
 BYTE   N12
 BYTE   W12
 BYTE   N12
 BYTE   W36
 BYTE   PEND 
//  #08 //017   ----------------------------------------
 BYTE   W96
//  #08 //018   ----------------------------------------
 BYTE   W96
//  #08 //019   ----------------------------------------
 BYTE   W96
//  #08 //020   ----------------------------------------
 BYTE   W96
//  #08 //021   ----------------------------------------
 BYTE   W96
//  #08 //022   ----------------------------------------
 BYTE   W96
//  #08 //023   ----------------------------------------
 BYTE   W96
//  #08 //024   ----------------------------------------
 BYTE   W96
//  #08 //025   ----------------------------------------
 BYTE   W96
//  #08 //026   ----------------------------------------
 BYTE   W96
//  #08 //027   ----------------------------------------
 BYTE   W96
//  #08 //028   ----------------------------------------
 BYTE   W96
//  #08 //029   ----------------------------------------
 BYTE   W96
//  #08 //030   ----------------------------------------
 BYTE   W96
//  #08 //031   ----------------------------------------
 BYTE   W96
//  #08 //032   ----------------------------------------
 BYTE   W96
//  #08 //033   ----------------------------------------
 BYTE   W96
//  #08 //034   ----------------------------------------
Label_0117BB95:
 BYTE   W12
 BYTE   N12  Cn1  v080
 BYTE   W24
 BYTE   N12
 BYTE   W12
 BYTE   N12
 BYTE   W12
 BYTE   Cn3
 BYTE   N12  Ds3
 BYTE   W12
 BYTE   Dn3
 BYTE   N12  Fn3
 BYTE   W12
 BYTE   Cn1
 BYTE   W12
 BYTE   PEND 
//  #08 //035   ----------------------------------------
Label_0117BBA9:
 BYTE   N12  Ds3  v080
 BYTE   N12  Gn3
 BYTE   W24
 BYTE   Ds3
 BYTE   N12  Gn3
 BYTE   W12
 BYTE   Dn3
 BYTE   N12  Fn3
 BYTE   W12
 BYTE   Cn1
 BYTE   W12
 BYTE   Cn3
 BYTE   N12  Ds3
 BYTE   W12
 BYTE   Dn3
 BYTE   N12  Fn3
 BYTE   W12
 BYTE   Cn1
 BYTE   W12
 BYTE   PEND 
//  #08 //036   ----------------------------------------
Label_0117BBC4:
 BYTE   W12
 BYTE   N12  Cn1  v080
 BYTE   W24
 BYTE   Gn3
 BYTE   N12  Cn4
 BYTE   W24
 BYTE   Gn3
 BYTE   N12  As3
 BYTE   W24
 BYTE   Cn1
 BYTE   W12
 BYTE   PEND 
//  #08 //037   ----------------------------------------
Label_0117BBD4:
 BYTE   N12  Ds3  v052
 BYTE   N12  Gn3  v080
 BYTE   W24
 BYTE   Ds3
 BYTE   N12  Gn3
 BYTE   W12
 BYTE   Dn3
 BYTE   N12  Fn3
 BYTE   W24
 BYTE   Cn3
 BYTE   N12  Ds3
 BYTE   W12
 BYTE   Dn3
 BYTE   N12  Fn3
 BYTE   W12
 BYTE   Cn1
 BYTE   W12
 BYTE   PEND 
//  #08 //038   ----------------------------------------
Label_0117BBEE:
 BYTE   W12
 BYTE   N12  As1  v080
 BYTE   W24
 BYTE   N12
 BYTE   W12
 BYTE   N12
 BYTE   W12
 BYTE   Cn3
 BYTE   N12  Ds3
 BYTE   W12
 BYTE   Dn3
 BYTE   N12  Fn3
 BYTE   W12
 BYTE   As1
 BYTE   W12
 BYTE   PEND 
//  #08 //039   ----------------------------------------
Label_0117BC02:
 BYTE   N12  Ds3  v080
 BYTE   N12  Gn3
 BYTE   W24
 BYTE   Ds3
 BYTE   N12  Gn3
 BYTE   W12
 BYTE   Dn3
 BYTE   N12  Fn3
 BYTE   W12
 BYTE   As1
 BYTE   W12
 BYTE   Cn3
 BYTE   N12  Ds3
 BYTE   W12
 BYTE   Dn3
 BYTE   N12  Fn3
 BYTE   W12
 BYTE   As1
 BYTE   W12
 BYTE   PEND 
//  #08 //040   ----------------------------------------
Label_0117BC1D:
 BYTE   W12
 BYTE   N12  Gs1  v080
 BYTE   W24
 BYTE   Gn3
 BYTE   N12  Cn4
 BYTE   W24
 BYTE   Gn3
 BYTE   N12  As3
 BYTE   W24
 BYTE   Gs1
 BYTE   W12
 BYTE   PEND 
//  #08 //041   ----------------------------------------
Label_0117BC2D:
 BYTE   N12  Ds3  v052
 BYTE   N12  Gn3  v080
 BYTE   W24
 BYTE   Ds3
 BYTE   N12  Gn3
 BYTE   W12
 BYTE   Dn3
 BYTE   N12  Fn3
 BYTE   W24
 BYTE   Cn3
 BYTE   N12  Ds3
 BYTE   W12
 BYTE   Dn3
 BYTE   N12  Fn3
 BYTE   W12
 BYTE   Gs1
 BYTE   W12
 BYTE   PEND 
//  #08 //042   ----------------------------------------
 BYTE   PATT
  POIN2 Label_0117BB95
//  #08 //043   ----------------------------------------
 BYTE   PATT
  POIN2 Label_0117BBA9
//  #08 //044   ----------------------------------------
 BYTE   PATT
  POIN2 Label_0117BBC4
//  #08 //045   ----------------------------------------
 BYTE   PATT
  POIN2 Label_0117BBD4
//  #08 //046   ----------------------------------------
 BYTE   PATT
  POIN2 Label_0117BBEE
//  #08 //047   ----------------------------------------
 BYTE   PATT
  POIN2 Label_0117BC02
//  #08 //048   ----------------------------------------
 BYTE   PATT
  POIN2 Label_0117BC1D
//  #08 //049   ----------------------------------------
 BYTE   PATT
  POIN2 Label_0117BC2D
//  #08 //050   ----------------------------------------
Label_0117BC6F:
 BYTE   W12
 BYTE   N12  Cn2  v080
 BYTE   W24
 BYTE   N12
 BYTE   W12
 BYTE   N12
 BYTE   W12
 BYTE   Gn2
 BYTE   W12
 BYTE   As2
 BYTE   W24
 BYTE   PEND 
//  #08 //051   ----------------------------------------
Label_0117BC7D:
 BYTE   N12  Cn3  v080
 BYTE   W24
 BYTE   N12
 BYTE   W12
 BYTE   As2
 BYTE   W24
 BYTE   Fn2
 BYTE   W12
 BYTE   Gn2
 BYTE   W12
 BYTE   Ds2
 BYTE   W12
 BYTE   PEND 
//  #08 //052   ----------------------------------------
Label_0117BC8C:
 BYTE   N12  Fn2  v080
 BYTE   W12
 BYTE   Cn2
 BYTE   W24
 BYTE   N12
 BYTE   W12
 BYTE   N12
 BYTE   W12
 BYTE   Gn2
 BYTE   W12
 BYTE   As2
 BYTE   W24
 BYTE   PEND 
//  #08 //053   ----------------------------------------
 BYTE   PATT
  POIN2 Label_0117BC7D
//  #08 //054   ----------------------------------------
 BYTE   PATT
  POIN2 Label_0117BC8C
//  #08 //055   ----------------------------------------
 BYTE   PATT
  POIN2 Label_0117BC7D
//  #08 //056   ----------------------------------------
 BYTE   PATT
  POIN2 Label_0117BC8C
//  #08 //057   ----------------------------------------
 BYTE   PATT
  POIN2 Label_0117BC7D
//  #08 //058   ----------------------------------------
 BYTE   PATT
  POIN2 Label_0117BB31
//  #08 //059   ----------------------------------------
 BYTE   PATT
  POIN2 Label_0117BB1F
//  #08 //060   ----------------------------------------
 BYTE   W24
 BYTE   N12  Cn2  v080
 BYTE   W72
//  #08 //061   ----------------------------------------
 BYTE   W96
//  #08 //062   ----------------------------------------
 BYTE   PATT
  POIN2 Label_0117BB31
//  #08 //063   ----------------------------------------
 BYTE   PATT
  POIN2 Label_0117BB1F
//  #08 //064   ----------------------------------------
 BYTE   W24
 BYTE   N12  Cn2  v080
 BYTE   W72
//  #08 //065   ----------------------------------------
 BYTE   W96
//  #08 //066   ----------------------------------------
 BYTE   PATT
  POIN2 Label_0117BB4A
//  #08 //067   ----------------------------------------
 BYTE   PATT
  POIN2 Label_0117BB58
//  #08 //068   ----------------------------------------
 BYTE   W24
 BYTE   N12  Fn2  v080
 BYTE   W72
//  #08 //069   ----------------------------------------
 BYTE   W96
//  #08 //070   ----------------------------------------
 BYTE   PATT
  POIN2 Label_0117BB31
//  #08 //071   ----------------------------------------
 BYTE   PATT
  POIN2 Label_0117BB1F
//  #08 //072   ----------------------------------------
 BYTE   W24
 BYTE   N12  Cn2  v080
 BYTE   W72
//  #08 //073   ----------------------------------------
 BYTE   W96
//  #08 //074   ----------------------------------------
 BYTE   PATT
  POIN2 Label_0117BB7A
//  #08 //075   ----------------------------------------
 BYTE   W96
//  #08 //076   ----------------------------------------
 BYTE   W96
//  #08 //077   ----------------------------------------
 BYTE   W96
//  #08 //078   ----------------------------------------
 BYTE   W96
//  #08 //079   ----------------------------------------
 BYTE   W96
//  #08 //080   ----------------------------------------
 BYTE   W96
//  #08 //081   ----------------------------------------
 BYTE   W96
//  #08 //082   ----------------------------------------
 BYTE   W96
//  #08 //083   ----------------------------------------
 BYTE   W96
//  #08 //084   ----------------------------------------
 BYTE   W96
//  #08 //085   ----------------------------------------
 BYTE   W96
//  #08 //086   ----------------------------------------
 BYTE   W96
//  #08 //087   ----------------------------------------
 BYTE   W96
//  #08 //088   ----------------------------------------
 BYTE   W96
//  #08 //089   ----------------------------------------
 BYTE   W96
//  #08 //090   ----------------------------------------
 BYTE   W96
//  #08 //091   ----------------------------------------
 BYTE   W96
//  #08 //092   ----------------------------------------
 BYTE   PATT
  POIN2 Label_0117BB95
//  #08 //093   ----------------------------------------
 BYTE   PATT
  POIN2 Label_0117BBA9
//  #08 //094   ----------------------------------------
 BYTE   PATT
  POIN2 Label_0117BBC4
//  #08 //095   ----------------------------------------
 BYTE   PATT
  POIN2 Label_0117BBD4
//  #08 //096   ----------------------------------------
 BYTE   PATT
  POIN2 Label_0117BBEE
//  #08 //097   ----------------------------------------
 BYTE   PATT
  POIN2 Label_0117BC02
//  #08 //098   ----------------------------------------
 BYTE   PATT
  POIN2 Label_0117BC1D
//  #08 //099   ----------------------------------------
 BYTE   PATT
  POIN2 Label_0117BC2D
//  #08 //100   ----------------------------------------
 BYTE   PATT
  POIN2 Label_0117BB95
//  #08 //101   ----------------------------------------
 BYTE   PATT
  POIN2 Label_0117BBA9
//  #08 //102   ----------------------------------------
 BYTE   PATT
  POIN2 Label_0117BBC4
//  #08 //103   ----------------------------------------
 BYTE   PATT
  POIN2 Label_0117BBD4
//  #08 //104   ----------------------------------------
 BYTE   PATT
  POIN2 Label_0117BBEE
//  #08 //105   ----------------------------------------
 BYTE   PATT
  POIN2 Label_0117BC02
//  #08 //106   ----------------------------------------
 BYTE   PATT
  POIN2 Label_0117BC1D
//  #08 //107   ----------------------------------------
 BYTE   PATT
  POIN2 Label_0117BC2D
//  #08 //108   ----------------------------------------
 BYTE   PATT
  POIN2 Label_0117BC6F
//  #08 //109   ----------------------------------------
 BYTE   PATT
  POIN2 Label_0117BC7D
//  #08 //110   ----------------------------------------
 BYTE   PATT
  POIN2 Label_0117BC8C
//  #08 //111   ----------------------------------------
 BYTE   PATT
  POIN2 Label_0117BC7D
//  #08 //112   ----------------------------------------
 BYTE   PATT
  POIN2 Label_0117BC8C
//  #08 //113   ----------------------------------------
 BYTE   PATT
  POIN2 Label_0117BC7D
//  #08 //114   ----------------------------------------
 BYTE   PATT
  POIN2 Label_0117BC8C
//  #08 //115   ----------------------------------------
 BYTE   PATT
  POIN2 Label_0117BC7D
//  #08 //116   ----------------------------------------
 BYTE   GoTo
  POIN2 Label_0117BB0E
 BYTE   FINE

//**************** Track 9 (Midi-Chn.8) ****************//

BattleToadSurf_009:
//  #09 //000   ----------------------------------------
 BYTE   KEYSH   BattleToadSurf_key+0
Label_0117BD9A:
 BYTE   VOICE   127
 BYTE   VOL   65*BattleToadSurf_mvl/mxv
 BYTE   N06  Cn1  v080
 BYTE   W48
 BYTE   Dn1
 BYTE   N06  Fs1
 BYTE   W48
//  #09 //001   ----------------------------------------
Label_0117BDA6:
 BYTE   N06  Cn1  v080
 BYTE   W48
 BYTE   Dn1
 BYTE   N06  Fs1
 BYTE   W24
 BYTE   Fs1  v060
 BYTE   W12
 BYTE   N06
 BYTE   W12
 BYTE   PEND 
//  #09 //002   ----------------------------------------
Label_0117BDB4:
 BYTE   N06  Cn1  v080
 BYTE   W48
 BYTE   Dn1
 BYTE   N06  Fs1
 BYTE   W48
 BYTE   PEND 
//  #09 //003   ----------------------------------------
Label_0117BDBD:
 BYTE   N06  Cn1  v080
 BYTE   W48
 BYTE   Dn1
 BYTE   N06  Ds2  v060
 BYTE   W48
 BYTE   PEND 
//  #09 //004   ----------------------------------------
 BYTE   PATT
  POIN2 Label_0117BDB4
//  #09 //005   ----------------------------------------
 BYTE   PATT
  POIN2 Label_0117BDA6
//  #09 //006   ----------------------------------------
 BYTE   PATT
  POIN2 Label_0117BDB4
//  #09 //007   ----------------------------------------
 BYTE   PATT
  POIN2 Label_0117BDBD
//  #09 //008   ----------------------------------------
 BYTE   PATT
  POIN2 Label_0117BDB4
//  #09 //009   ----------------------------------------
 BYTE   PATT
  POIN2 Label_0117BDA6
//  #09 //010   ----------------------------------------
 BYTE   PATT
  POIN2 Label_0117BDB4
//  #09 //011   ----------------------------------------
 BYTE   PATT
  POIN2 Label_0117BDBD
//  #09 //012   ----------------------------------------
 BYTE   PATT
  POIN2 Label_0117BDB4
//  #09 //013   ----------------------------------------
 BYTE   PATT
  POIN2 Label_0117BDA6
//  #09 //014   ----------------------------------------
 BYTE   PATT
  POIN2 Label_0117BDB4
//  #09 //015   ----------------------------------------
 BYTE   PATT
  POIN2 Label_0117BDBD
//  #09 //016   ----------------------------------------
 BYTE   PATT
  POIN2 Label_0117BDB4
//  #09 //017   ----------------------------------------
Label_0117BE08:
 BYTE   N06  Ds2  v080
 BYTE   W24
 BYTE   Ds2  v052
 BYTE   W24
 BYTE   Ds2  v080
 BYTE   W24
 BYTE   Cs2  v060
 BYTE   W24
 BYTE   PEND 
//  #09 //018   ----------------------------------------
Label_0117BE16:
 BYTE   N06  Ds2  v080
 BYTE   W24
 BYTE   Bn2  v060
 BYTE   W24
 BYTE   N06
 BYTE   W24
 BYTE   N06
 BYTE   W24
 BYTE   PEND 
//  #09 //019   ----------------------------------------
 BYTE   PATT
  POIN2 Label_0117BE16
//  #09 //020   ----------------------------------------
 BYTE   PATT
  POIN2 Label_0117BE16
//  #09 //021   ----------------------------------------
 BYTE   PATT
  POIN2 Label_0117BE16
//  #09 //022   ----------------------------------------
 BYTE   PATT
  POIN2 Label_0117BE16
//  #09 //023   ----------------------------------------
 BYTE   PATT
  POIN2 Label_0117BE16
//  #09 //024   ----------------------------------------
 BYTE   PATT
  POIN2 Label_0117BE16
//  #09 //025   ----------------------------------------
 BYTE   PATT
  POIN2 Label_0117BE16
//  #09 //026   ----------------------------------------
Label_0117BE45:
 BYTE   N06  Cn1  v080
 BYTE   W48
 BYTE   N06
 BYTE   W48
 BYTE   PEND 
//  #09 //027   ----------------------------------------
 BYTE   PATT
  POIN2 Label_0117BE45
//  #09 //028   ----------------------------------------
 BYTE   PATT
  POIN2 Label_0117BE45
//  #09 //029   ----------------------------------------
 BYTE   PATT
  POIN2 Label_0117BE45
//  #09 //030   ----------------------------------------
 BYTE   PATT
  POIN2 Label_0117BE45
//  #09 //031   ----------------------------------------
 BYTE   PATT
  POIN2 Label_0117BE45
//  #09 //032   ----------------------------------------
 BYTE   PATT
  POIN2 Label_0117BE45
//  #09 //033   ----------------------------------------
 BYTE   PATT
  POIN2 Label_0117BE45
//  #09 //034   ----------------------------------------
Label_0117BE6F:
 BYTE   N06  Cn1  v080
 BYTE   W24
 BYTE   Cn1  v060
 BYTE   W24
 BYTE   Dn1  v080
 BYTE   N06  Fs1
 BYTE   W24
 BYTE   Cn1  v060
 BYTE   W24
 BYTE   PEND 
//  #09 //035   ----------------------------------------
 BYTE   PATT
  POIN2 Label_0117BE6F
//  #09 //036   ----------------------------------------
 BYTE   PATT
  POIN2 Label_0117BE6F
//  #09 //037   ----------------------------------------
Label_0117BE89:
 BYTE   N06  Cn1  v080
 BYTE   W24
 BYTE   Cn1  v060
 BYTE   W12
 BYTE   Cn1  v052
 BYTE   W12
 BYTE   Dn1  v080
 BYTE   N06  As1
 BYTE   W24
 BYTE   Cn1  v052
 BYTE   W24
 BYTE   PEND 
//  #09 //038   ----------------------------------------
 BYTE   PATT
  POIN2 Label_0117BE6F
//  #09 //039   ----------------------------------------
 BYTE   PATT
  POIN2 Label_0117BE6F
//  #09 //040   ----------------------------------------
 BYTE   PATT
  POIN2 Label_0117BE6F
//  #09 //041   ----------------------------------------
 BYTE   PATT
  POIN2 Label_0117BE89
//  #09 //042   ----------------------------------------
 BYTE   PATT
  POIN2 Label_0117BE6F
//  #09 //043   ----------------------------------------
 BYTE   PATT
  POIN2 Label_0117BE6F
//  #09 //044   ----------------------------------------
 BYTE   PATT
  POIN2 Label_0117BE6F
//  #09 //045   ----------------------------------------
 BYTE   PATT
  POIN2 Label_0117BE89
//  #09 //046   ----------------------------------------
 BYTE   PATT
  POIN2 Label_0117BE6F
//  #09 //047   ----------------------------------------
 BYTE   PATT
  POIN2 Label_0117BE6F
//  #09 //048   ----------------------------------------
 BYTE   PATT
  POIN2 Label_0117BE6F
//  #09 //049   ----------------------------------------
 BYTE   PATT
  POIN2 Label_0117BE89
//  #09 //050   ----------------------------------------
 BYTE   PATT
  POIN2 Label_0117BE6F
//  #09 //051   ----------------------------------------
 BYTE   PATT
  POIN2 Label_0117BE6F
//  #09 //052   ----------------------------------------
 BYTE   PATT
  POIN2 Label_0117BE6F
//  #09 //053   ----------------------------------------
 BYTE   PATT
  POIN2 Label_0117BE89
//  #09 //054   ----------------------------------------
 BYTE   PATT
  POIN2 Label_0117BE6F
//  #09 //055   ----------------------------------------
 BYTE   PATT
  POIN2 Label_0117BE6F
//  #09 //056   ----------------------------------------
 BYTE   PATT
  POIN2 Label_0117BE6F
//  #09 //057   ----------------------------------------
 BYTE   PATT
  POIN2 Label_0117BE89
//  #09 //058   ----------------------------------------
 BYTE   PATT
  POIN2 Label_0117BDB4
//  #09 //059   ----------------------------------------
 BYTE   PATT
  POIN2 Label_0117BDA6
//  #09 //060   ----------------------------------------
 BYTE   PATT
  POIN2 Label_0117BDB4
//  #09 //061   ----------------------------------------
 BYTE   PATT
  POIN2 Label_0117BDBD
//  #09 //062   ----------------------------------------
 BYTE   PATT
  POIN2 Label_0117BDB4
//  #09 //063   ----------------------------------------
 BYTE   PATT
  POIN2 Label_0117BDA6
//  #09 //064   ----------------------------------------
 BYTE   PATT
  POIN2 Label_0117BDB4
//  #09 //065   ----------------------------------------
 BYTE   PATT
  POIN2 Label_0117BDBD
//  #09 //066   ----------------------------------------
 BYTE   PATT
  POIN2 Label_0117BDB4
//  #09 //067   ----------------------------------------
 BYTE   PATT
  POIN2 Label_0117BDA6
//  #09 //068   ----------------------------------------
 BYTE   PATT
  POIN2 Label_0117BDB4
//  #09 //069   ----------------------------------------
 BYTE   PATT
  POIN2 Label_0117BDBD
//  #09 //070   ----------------------------------------
 BYTE   PATT
  POIN2 Label_0117BDB4
//  #09 //071   ----------------------------------------
 BYTE   PATT
  POIN2 Label_0117BDA6
//  #09 //072   ----------------------------------------
 BYTE   PATT
  POIN2 Label_0117BDB4
//  #09 //073   ----------------------------------------
 BYTE   PATT
  POIN2 Label_0117BDBD
//  #09 //074   ----------------------------------------
 BYTE   PATT
  POIN2 Label_0117BDB4
//  #09 //075   ----------------------------------------
 BYTE   PATT
  POIN2 Label_0117BE08
//  #09 //076   ----------------------------------------
 BYTE   PATT
  POIN2 Label_0117BE16
//  #09 //077   ----------------------------------------
 BYTE   PATT
  POIN2 Label_0117BE16
//  #09 //078   ----------------------------------------
 BYTE   PATT
  POIN2 Label_0117BE16
//  #09 //079   ----------------------------------------
 BYTE   PATT
  POIN2 Label_0117BE16
//  #09 //080   ----------------------------------------
 BYTE   PATT
  POIN2 Label_0117BE16
//  #09 //081   ----------------------------------------
 BYTE   PATT
  POIN2 Label_0117BE16
//  #09 //082   ----------------------------------------
 BYTE   PATT
  POIN2 Label_0117BE16
//  #09 //083   ----------------------------------------
 BYTE   PATT
  POIN2 Label_0117BE16
//  #09 //084   ----------------------------------------
 BYTE   PATT
  POIN2 Label_0117BE45
//  #09 //085   ----------------------------------------
 BYTE   PATT
  POIN2 Label_0117BE45
//  #09 //086   ----------------------------------------
 BYTE   PATT
  POIN2 Label_0117BE45
//  #09 //087   ----------------------------------------
 BYTE   PATT
  POIN2 Label_0117BE45
//  #09 //088   ----------------------------------------
 BYTE   PATT
  POIN2 Label_0117BE45
//  #09 //089   ----------------------------------------
 BYTE   PATT
  POIN2 Label_0117BE45
//  #09 //090   ----------------------------------------
 BYTE   PATT
  POIN2 Label_0117BE45
//  #09 //091   ----------------------------------------
 BYTE   PATT
  POIN2 Label_0117BE45
//  #09 //092   ----------------------------------------
 BYTE   PATT
  POIN2 Label_0117BE6F
//  #09 //093   ----------------------------------------
 BYTE   PATT
  POIN2 Label_0117BE6F
//  #09 //094   ----------------------------------------
 BYTE   PATT
  POIN2 Label_0117BE6F
//  #09 //095   ----------------------------------------
 BYTE   PATT
  POIN2 Label_0117BE89
//  #09 //096   ----------------------------------------
 BYTE   PATT
  POIN2 Label_0117BE6F
//  #09 //097   ----------------------------------------
 BYTE   PATT
  POIN2 Label_0117BE6F
//  #09 //098   ----------------------------------------
 BYTE   PATT
  POIN2 Label_0117BE6F
//  #09 //099   ----------------------------------------
 BYTE   PATT
  POIN2 Label_0117BE89
//  #09 //100   ----------------------------------------
 BYTE   PATT
  POIN2 Label_0117BE6F
//  #09 //101   ----------------------------------------
 BYTE   PATT
  POIN2 Label_0117BE6F
//  #09 //102   ----------------------------------------
 BYTE   PATT
  POIN2 Label_0117BE6F
//  #09 //103   ----------------------------------------
 BYTE   PATT
  POIN2 Label_0117BE89
//  #09 //104   ----------------------------------------
 BYTE   PATT
  POIN2 Label_0117BE6F
//  #09 //105   ----------------------------------------
 BYTE   PATT
  POIN2 Label_0117BE6F
//  #09 //106   ----------------------------------------
 BYTE   PATT
  POIN2 Label_0117BE6F
//  #09 //107   ----------------------------------------
 BYTE   PATT
  POIN2 Label_0117BE89
//  #09 //108   ----------------------------------------
 BYTE   PATT
  POIN2 Label_0117BE6F
//  #09 //109   ----------------------------------------
 BYTE   PATT
  POIN2 Label_0117BE6F
//  #09 //110   ----------------------------------------
 BYTE   PATT
  POIN2 Label_0117BE6F
//  #09 //111   ----------------------------------------
 BYTE   PATT
  POIN2 Label_0117BE89
//  #09 //112   ----------------------------------------
 BYTE   PATT
  POIN2 Label_0117BE6F
//  #09 //113   ----------------------------------------
 BYTE   PATT
  POIN2 Label_0117BE6F
//  #09 //114   ----------------------------------------
 BYTE   PATT
  POIN2 Label_0117BE6F
//  #09 //115   ----------------------------------------
 BYTE   PATT
  POIN2 Label_0117BE89
//  #09 //116   ----------------------------------------
 BYTE   GoTo
  POIN2 Label_0117BD9A
 BYTE   FINE

//******************************************************//
	ALIGN 4

BattleToadSurf:
	BYTE	9	// NumTrks
	BYTE	0	// NumBlks
	BYTE	BattleToadSurf_pri	// Priority
	BYTE	BattleToadSurf_rev	// Reverb.
    
	POIN2	BattleToadSurf_grp
    
	POIN2	BattleToadSurf_001
	POIN2	BattleToadSurf_002
	POIN2	BattleToadSurf_003
	POIN2	BattleToadSurf_004
	POIN2	BattleToadSurf_005
	POIN2	BattleToadSurf_006
	POIN2	BattleToadSurf_007
	POIN2	BattleToadSurf_008
	POIN2	BattleToadSurf_009

	
