//Event file generated from Sappy .s format.
	

	#define	BattleToadsDoubleDragonLevel1_grp  voicegroup000
	#define	BattleToadsDoubleDragonLevel1_pri  10
	#define	BattleToadsDoubleDragonLevel1_rev  0
	#define	BattleToadsDoubleDragonLevel1_mvl  127
	#define	BattleToadsDoubleDragonLevel1_key  0
	#define	BattleToadsDoubleDragonLevel1_tbs  1
	#define	BattleToadsDoubleDragonLevel1_exg  0
	#define	BattleToadsDoubleDragonLevel1_cmp  1

	// .rodata
	//	BattleToadsDoubleDragonLevel1
	ALIGN 4


//**************** Track 1 (Midi-Chn.0) ****************//

BattleToadsDoubleDragonLevel1_001:
//  #01 //000   ----------------------------------------
Label_014B6504:
 BYTE   TEMPO   76*BattleToadsDoubleDragonLevel1_tbs/2
 BYTE   KEYSH   BattleToadsDoubleDragonLevel1_key+0
 BYTE   VOICE   36
 BYTE   VOL   77*BattleToadsDoubleDragonLevel1_mvl/mxv
 BYTE   N06  An0  v127
 BYTE   W06
 BYTE   An0
 BYTE   W06
 BYTE   An0
 BYTE   W06
 BYTE   An0
 BYTE   W06
 BYTE   An0
 BYTE   W06
 BYTE   Cn1
 BYTE   W06
 BYTE   Dn1
 BYTE   W06
 BYTE   Gn0
 BYTE   W06
 BYTE   Gn0
 BYTE   W06
 BYTE   Gn0
 BYTE   W06
 BYTE   Gn0
 BYTE   W06
 BYTE   En0
 BYTE   W06
 BYTE   Gn0
 BYTE   W06
 BYTE   Gn0
 BYTE   W06
 BYTE   En0
 BYTE   W06
 BYTE   Gn0
 BYTE   W06
//  #01 //001   ----------------------------------------
Label_014B652E:
 BYTE   N06  An0  v127
 BYTE   W06
 BYTE   An0
 BYTE   W06
 BYTE   An0
 BYTE   W06
 BYTE   An0
 BYTE   W06
 BYTE   An0
 BYTE   W06
 BYTE   Cn1
 BYTE   W06
 BYTE   Dn1
 BYTE   W06
 BYTE   Gn0
 BYTE   W06
 BYTE   Gn0
 BYTE   W06
 BYTE   Gn0
 BYTE   W06
 BYTE   Gn0
 BYTE   W06
 BYTE   En0
 BYTE   W06
 BYTE   Gn0
 BYTE   W06
 BYTE   En0
 BYTE   W06
 BYTE   Gn0
 BYTE   W06
 BYTE   Gs0
 BYTE   W06
 BYTE   PEND 
//  #01 //002   ----------------------------------------
Label_014B6551:
 BYTE   N06  An0  v127
 BYTE   W06
 BYTE   An0
 BYTE   W06
 BYTE   An0
 BYTE   W06
 BYTE   An0
 BYTE   W06
 BYTE   An0
 BYTE   W06
 BYTE   Cn1
 BYTE   W06
 BYTE   Dn1
 BYTE   W06
 BYTE   Gn0
 BYTE   W06
 BYTE   Gn0
 BYTE   W06
 BYTE   Gn0
 BYTE   W06
 BYTE   Gn0
 BYTE   W06
 BYTE   En0
 BYTE   W06
 BYTE   Gn0
 BYTE   W06
 BYTE   Gn0
 BYTE   W06
 BYTE   En0
 BYTE   W06
 BYTE   Gn0
 BYTE   W06
 BYTE   PEND 
//  #01 //003   ----------------------------------------
 BYTE   PATT
  POIN2 Label_014B652E
//  #01 //004   ----------------------------------------
 BYTE   PATT
  POIN2 Label_014B6551
//  #01 //005   ----------------------------------------
 BYTE   PATT
  POIN2 Label_014B652E
//  #01 //006   ----------------------------------------
 BYTE   PATT
  POIN2 Label_014B6551
//  #01 //007   ----------------------------------------
 BYTE   PATT
  POIN2 Label_014B652E
//  #01 //008   ----------------------------------------
Label_014B658D:
 BYTE   N06  An0  v127
 BYTE   W06
 BYTE   An0
 BYTE   W06
 BYTE   An0
 BYTE   W06
 BYTE   N12  Fn0
 BYTE   W12
 BYTE   N06
 BYTE   W06
 BYTE   N18  Gn0
 BYTE   W18
 BYTE   N06
 BYTE   W06
 BYTE   Gn0
 BYTE   W06
 BYTE   Gn0
 BYTE   W06
 BYTE   Gn0
 BYTE   W06
 BYTE   Gn0
 BYTE   W06
 BYTE   Gn0
 BYTE   W06
 BYTE   Gn0
 BYTE   W06
 BYTE   PEND 
//  #01 //009   ----------------------------------------
Label_014B65AC:
 BYTE   N18  An0  v127
 BYTE   W18
 BYTE   N06
 BYTE   W06
 BYTE   N24
 BYTE   W24
 BYTE   N18  En0
 BYTE   W18
 BYTE   N06
 BYTE   W06
 BYTE   N24
 BYTE   W24
 BYTE   PEND 
//  #01 //010   ----------------------------------------
Label_014B65BC:
 BYTE   N18  As0  v127
 BYTE   W18
 BYTE   N06
 BYTE   W06
 BYTE   N24
 BYTE   W24
 BYTE   N18  Fn0
 BYTE   W18
 BYTE   N06
 BYTE   W06
 BYTE   N24
 BYTE   W24
 BYTE   PEND 
//  #01 //011   ----------------------------------------
 BYTE   PATT
  POIN2 Label_014B65AC
//  #01 //012   ----------------------------------------
 BYTE   PATT
  POIN2 Label_014B65BC
//  #01 //013   ----------------------------------------
 BYTE   PATT
  POIN2 Label_014B6551
//  #01 //014   ----------------------------------------
 BYTE   PATT
  POIN2 Label_014B652E
//  #01 //015   ----------------------------------------
 BYTE   PATT
  POIN2 Label_014B6551
//  #01 //016   ----------------------------------------
 BYTE   PATT
  POIN2 Label_014B652E
//  #01 //017   ----------------------------------------
 BYTE   PATT
  POIN2 Label_014B658D
//  #01 //018   ----------------------------------------
 BYTE   PATT
  POIN2 Label_014B658D
//  #01 //019   ----------------------------------------
 BYTE   PATT
  POIN2 Label_014B65AC
//  #01 //020   ----------------------------------------
 BYTE   PATT
  POIN2 Label_014B65BC
//  #01 //021   ----------------------------------------
 BYTE   PATT
  POIN2 Label_014B65AC
//  #01 //022   ----------------------------------------
 BYTE   PATT
  POIN2 Label_014B65BC
//  #01 //023   ----------------------------------------
Label_014B6608:
 BYTE   N06  An0  v127
 BYTE   W06
 BYTE   An0
 BYTE   W06
 BYTE   An0
 BYTE   W06
 BYTE   An0
 BYTE   W06
 BYTE   An0
 BYTE   W06
 BYTE   An0
 BYTE   W06
 BYTE   An0
 BYTE   W06
 BYTE   An0
 BYTE   W06
 BYTE   Gn0
 BYTE   W06
 BYTE   Gn0
 BYTE   W06
 BYTE   Gn0
 BYTE   W06
 BYTE   Gn0
 BYTE   W06
 BYTE   Gn0
 BYTE   W06
 BYTE   Gn0
 BYTE   W06
 BYTE   Gn0
 BYTE   W06
 BYTE   Gn0
 BYTE   W06
 BYTE   PEND 
//  #01 //024   ----------------------------------------
Label_014B662B:
 BYTE   N06  Fn0  v127
 BYTE   W06
 BYTE   Fn0
 BYTE   W06
 BYTE   Fn0
 BYTE   W06
 BYTE   Fn0
 BYTE   W06
 BYTE   Fn0
 BYTE   W06
 BYTE   Fn0
 BYTE   W06
 BYTE   Fn0
 BYTE   W06
 BYTE   Fn0
 BYTE   W06
 BYTE   Dn0
 BYTE   W06
 BYTE   Dn0
 BYTE   W06
 BYTE   Dn0
 BYTE   W06
 BYTE   Dn0
 BYTE   W06
 BYTE   Gn0
 BYTE   W06
 BYTE   Gn0
 BYTE   W06
 BYTE   Gn0
 BYTE   W06
 BYTE   Gn0
 BYTE   W06
 BYTE   PEND 
//  #01 //025   ----------------------------------------
 BYTE   PATT
  POIN2 Label_014B6608
//  #01 //026   ----------------------------------------
 BYTE   PATT
  POIN2 Label_014B662B
//  #01 //027   ----------------------------------------
 BYTE   N06  Fn0  v127
 BYTE   W06
 BYTE   Fn0
 BYTE   W06
 BYTE   Fn0
 BYTE   W06
 BYTE   Fn0
 BYTE   W06
 BYTE   Fn0
 BYTE   W06
 BYTE   Fn0
 BYTE   W06
 BYTE   Fn0
 BYTE   W06
 BYTE   Fn0
 BYTE   W06
 BYTE   Dn0
 BYTE   W06
 BYTE   Dn0
 BYTE   W06
 BYTE   Dn0
 BYTE   W06
 BYTE   Dn0
 BYTE   W06
 BYTE   Gn0
 BYTE   W06
 BYTE   Gn0
 BYTE   W06
 BYTE   Gn0
 BYTE   W06
 BYTE   Gn0
 BYTE   W06
//  #01 //028   ----------------------------------------
 BYTE   VOL   77*BattleToadsDoubleDragonLevel1_mvl/mxv
 BYTE   N06  An0  v127
 BYTE   W06
 BYTE   An0
 BYTE   W06
 BYTE   An0
 BYTE   W06
 BYTE   An0
 BYTE   W06
 BYTE   An0
 BYTE   W06
 BYTE   Cn1
 BYTE   W06
 BYTE   Dn1
 BYTE   W06
 BYTE   Gn0
 BYTE   W06
 BYTE   Gn0
 BYTE   W06
 BYTE   Gn0
 BYTE   W06
 BYTE   Gn0
 BYTE   W06
 BYTE   En0
 BYTE   W06
 BYTE   Gn0
 BYTE   W06
 BYTE   Gn0
 BYTE   W06
 BYTE   En0
 BYTE   W06
 BYTE   Gn0
 BYTE   W06
//  #01 //029   ----------------------------------------
 BYTE   An0
 BYTE   W06
 BYTE   An0
 BYTE   W06
 BYTE   An0
 BYTE   W06
 BYTE   An0
 BYTE   W06
 BYTE   An0
 BYTE   W06
 BYTE   Cn1
 BYTE   W06
 BYTE   Dn1
 BYTE   W06
 BYTE   Gn0
 BYTE   W06
 BYTE   Gn0
 BYTE   W06
 BYTE   Gn0
 BYTE   W06
 BYTE   Gn0
 BYTE   W06
 BYTE   En0
 BYTE   W06
 BYTE   Gn0
 BYTE   W06
 BYTE   En0
 BYTE   W06
 BYTE   Gn0
 BYTE   W06
 BYTE   Gs0
 BYTE   W06
//  #01 //030   ----------------------------------------
 BYTE   An0
 BYTE   W06
 BYTE   An0
 BYTE   W06
 BYTE   An0
 BYTE   W06
 BYTE   An0
 BYTE   W06
 BYTE   An0
 BYTE   W06
 BYTE   Cn1
 BYTE   W06
 BYTE   Dn1
 BYTE   W06
 BYTE   Gn0
 BYTE   W06
 BYTE   Gn0
 BYTE   W06
 BYTE   Gn0
 BYTE   W06
 BYTE   Gn0
 BYTE   W06
 BYTE   En0
 BYTE   W06
 BYTE   Gn0
 BYTE   W06
 BYTE   Gn0
 BYTE   W06
 BYTE   En0
 BYTE   W06
 BYTE   Gn0
 BYTE   W06
//  #01 //031   ----------------------------------------
 BYTE   An0
 BYTE   W06
 BYTE   An0
 BYTE   W06
 BYTE   An0
 BYTE   W06
 BYTE   An0
 BYTE   W06
 BYTE   An0
 BYTE   W06
 BYTE   Cn1
 BYTE   W06
 BYTE   Dn1
 BYTE   W06
 BYTE   Gn0
 BYTE   W06
 BYTE   Gn0
 BYTE   W06
 BYTE   Gn0
 BYTE   W06
 BYTE   Gn0
 BYTE   W06
 BYTE   En0
 BYTE   W06
 BYTE   Gn0
 BYTE   W06
 BYTE   En0
 BYTE   W06
 BYTE   Gn0
 BYTE   W06
 BYTE   Gs0
 BYTE   W06
//  #01 //032   ----------------------------------------
 BYTE   An0
 BYTE   W06
 BYTE   An0
 BYTE   W06
 BYTE   An0
 BYTE   W06
 BYTE   N12  Fn0
 BYTE   W12
 BYTE   N06
 BYTE   W06
 BYTE   N18  Gn0
 BYTE   W18
 BYTE   N06
 BYTE   W06
 BYTE   Gn0
 BYTE   W06
 BYTE   Gn0
 BYTE   W06
 BYTE   Gn0
 BYTE   W06
 BYTE   Gn0
 BYTE   W06
 BYTE   Gn0
 BYTE   W06
 BYTE   Gn0
 BYTE   W06
//  #01 //033   ----------------------------------------
 BYTE   N18  An0
 BYTE   W18
 BYTE   N06
 BYTE   W06
 BYTE   N24
 BYTE   W24
 BYTE   N18  En0
 BYTE   W18
 BYTE   N06
 BYTE   W06
 BYTE   N24
 BYTE   W24
//  #01 //034   ----------------------------------------
 BYTE   N18  As0
 BYTE   W18
 BYTE   N06
 BYTE   W06
 BYTE   N24
 BYTE   W24
 BYTE   N18  Fn0
 BYTE   W18
 BYTE   N06
 BYTE   W06
 BYTE   N24
 BYTE   W24
//  #01 //035   ----------------------------------------
 BYTE   N18  An0
 BYTE   W18
 BYTE   N06
 BYTE   W06
 BYTE   N24
 BYTE   W24
 BYTE   N18  En0
 BYTE   W18
 BYTE   N06
 BYTE   W06
 BYTE   N24
 BYTE   W24
//  #01 //036   ----------------------------------------
 BYTE   N18  As0
 BYTE   W18
 BYTE   N06
 BYTE   W06
 BYTE   N24
 BYTE   W24
 BYTE   N18  Fn0
 BYTE   W18
 BYTE   N06
 BYTE   W06
 BYTE   N24
 BYTE   W24
//  #01 //037   ----------------------------------------
 BYTE   N06  An0
 BYTE   W06
 BYTE   An0
 BYTE   W06
 BYTE   An0
 BYTE   W06
 BYTE   An0
 BYTE   W06
 BYTE   An0
 BYTE   W06
 BYTE   Cn1
 BYTE   W06
 BYTE   Dn1
 BYTE   W06
 BYTE   Gn0
 BYTE   W06
 BYTE   Gn0
 BYTE   W06
 BYTE   Gn0
 BYTE   W06
 BYTE   Gn0
 BYTE   W06
 BYTE   En0
 BYTE   W06
 BYTE   Gn0
 BYTE   W06
 BYTE   Gn0
 BYTE   W06
 BYTE   En0
 BYTE   W06
 BYTE   Gn0
 BYTE   W06
//  #01 //038   ----------------------------------------
 BYTE   An0
 BYTE   W06
 BYTE   An0
 BYTE   W06
 BYTE   An0
 BYTE   W06
 BYTE   An0
 BYTE   W06
 BYTE   An0
 BYTE   W06
 BYTE   Cn1
 BYTE   W06
 BYTE   Dn1
 BYTE   W06
 BYTE   Gn0
 BYTE   W06
 BYTE   Gn0
 BYTE   W06
 BYTE   Gn0
 BYTE   W06
 BYTE   Gn0
 BYTE   W06
 BYTE   En0
 BYTE   W06
 BYTE   Gn0
 BYTE   W06
 BYTE   En0
 BYTE   W06
 BYTE   Gn0
 BYTE   W06
 BYTE   Gs0
 BYTE   W06
//  #01 //039   ----------------------------------------
 BYTE   An0
 BYTE   W06
 BYTE   An0
 BYTE   W06
 BYTE   An0
 BYTE   W06
 BYTE   An0
 BYTE   W06
 BYTE   An0
 BYTE   W06
 BYTE   Cn1
 BYTE   W06
 BYTE   Dn1
 BYTE   W06
 BYTE   Gn0
 BYTE   W06
 BYTE   Gn0
 BYTE   W06
 BYTE   Gn0
 BYTE   W06
 BYTE   Gn0
 BYTE   W06
 BYTE   En0
 BYTE   W06
 BYTE   Gn0
 BYTE   W06
 BYTE   Gn0
 BYTE   W06
 BYTE   En0
 BYTE   W06
 BYTE   Gn0
 BYTE   W06
//  #01 //040   ----------------------------------------
 BYTE   An0
 BYTE   W06
 BYTE   An0
 BYTE   W06
 BYTE   An0
 BYTE   W06
 BYTE   An0
 BYTE   W06
 BYTE   An0
 BYTE   W06
 BYTE   Cn1
 BYTE   W06
 BYTE   Dn1
 BYTE   W06
 BYTE   Gn0
 BYTE   W06
 BYTE   Gn0
 BYTE   W06
 BYTE   Gn0
 BYTE   W06
 BYTE   Gn0
 BYTE   W06
 BYTE   En0
 BYTE   W06
 BYTE   Gn0
 BYTE   W06
 BYTE   En0
 BYTE   W06
 BYTE   Gn0
 BYTE   W06
 BYTE   Gs0
 BYTE   W06
//  #01 //041   ----------------------------------------
 BYTE   An0
 BYTE   W06
 BYTE   An0
 BYTE   W06
 BYTE   An0
 BYTE   W06
 BYTE   N12  Fn0
 BYTE   W12
 BYTE   N06
 BYTE   W06
 BYTE   N18  Gn0
 BYTE   W18
 BYTE   N06
 BYTE   W06
 BYTE   Gn0
 BYTE   W06
 BYTE   Gn0
 BYTE   W06
 BYTE   Gn0
 BYTE   W06
 BYTE   Gn0
 BYTE   W06
 BYTE   Gn0
 BYTE   W06
 BYTE   Gn0
 BYTE   W06
//  #01 //042   ----------------------------------------
 BYTE   An0
 BYTE   W06
 BYTE   An0
 BYTE   W06
 BYTE   An0
 BYTE   W06
 BYTE   N12  Fn0
 BYTE   W12
 BYTE   N06
 BYTE   W06
 BYTE   N18  Gn0
 BYTE   W18
 BYTE   N06
 BYTE   W06
 BYTE   Gn0
 BYTE   W06
 BYTE   Gn0
 BYTE   W06
 BYTE   Gn0
 BYTE   W06
 BYTE   Gn0
 BYTE   W06
 BYTE   Gn0
 BYTE   W06
 BYTE   Gn0
 BYTE   W06
//  #01 //043   ----------------------------------------
 BYTE   N18  An0
 BYTE   W18
 BYTE   N06
 BYTE   W06
 BYTE   N24
 BYTE   W24
 BYTE   N18  En0
 BYTE   W18
 BYTE   N06
 BYTE   W06
 BYTE   N24
 BYTE   W24
//  #01 //044   ----------------------------------------
 BYTE   N18  As0
 BYTE   W18
 BYTE   N06
 BYTE   W06
 BYTE   N24
 BYTE   W24
 BYTE   N18  Fn0
 BYTE   W18
 BYTE   N06
 BYTE   W06
 BYTE   N24
 BYTE   W24
//  #01 //045   ----------------------------------------
 BYTE   N18  An0
 BYTE   W18
 BYTE   N06
 BYTE   W06
 BYTE   N24
 BYTE   W24
 BYTE   N18  En0
 BYTE   W18
 BYTE   N06
 BYTE   W06
 BYTE   N24
 BYTE   W24
//  #01 //046   ----------------------------------------
 BYTE   N18  As0
 BYTE   W18
 BYTE   N06
 BYTE   W06
 BYTE   N24
 BYTE   W24
 BYTE   N18  Fn0
 BYTE   W18
 BYTE   N06
 BYTE   W06
 BYTE   N24
 BYTE   W24
//  #01 //047   ----------------------------------------
 BYTE   N06  An0
 BYTE   W06
 BYTE   An0
 BYTE   W06
 BYTE   An0
 BYTE   W06
 BYTE   An0
 BYTE   W06
 BYTE   An0
 BYTE   W06
 BYTE   An0
 BYTE   W06
 BYTE   An0
 BYTE   W06
 BYTE   An0
 BYTE   W06
 BYTE   Gn0
 BYTE   W06
 BYTE   Gn0
 BYTE   W06
 BYTE   Gn0
 BYTE   W06
 BYTE   Gn0
 BYTE   W06
 BYTE   Gn0
 BYTE   W06
 BYTE   Gn0
 BYTE   W06
 BYTE   Gn0
 BYTE   W06
 BYTE   Gn0
 BYTE   W06
//  #01 //048   ----------------------------------------
 BYTE   Fn0
 BYTE   W06
 BYTE   Fn0
 BYTE   W06
 BYTE   Fn0
 BYTE   W06
 BYTE   Fn0
 BYTE   W06
 BYTE   Fn0
 BYTE   W06
 BYTE   Fn0
 BYTE   W06
 BYTE   Fn0
 BYTE   W06
 BYTE   Fn0
 BYTE   W06
 BYTE   Dn0
 BYTE   W06
 BYTE   Dn0
 BYTE   W06
 BYTE   Dn0
 BYTE   W06
 BYTE   Dn0
 BYTE   W06
 BYTE   Gn0
 BYTE   W06
 BYTE   Gn0
 BYTE   W06
 BYTE   Gn0
 BYTE   W06
 BYTE   Gn0
 BYTE   W06
//  #01 //049   ----------------------------------------
 BYTE   An0
 BYTE   W06
 BYTE   An0
 BYTE   W06
 BYTE   An0
 BYTE   W06
 BYTE   An0
 BYTE   W06
 BYTE   An0
 BYTE   W06
 BYTE   An0
 BYTE   W06
 BYTE   An0
 BYTE   W06
 BYTE   An0
 BYTE   W06
 BYTE   Gn0
 BYTE   W06
 BYTE   Gn0
 BYTE   W06
 BYTE   Gn0
 BYTE   W06
 BYTE   Gn0
 BYTE   W06
 BYTE   Gn0
 BYTE   W06
 BYTE   Gn0
 BYTE   W06
 BYTE   Gn0
 BYTE   W06
 BYTE   Gn0
 BYTE   W06
//  #01 //050   ----------------------------------------
 BYTE   Fn0
 BYTE   W06
 BYTE   Fn0
 BYTE   W06
 BYTE   Fn0
 BYTE   W06
 BYTE   Fn0
 BYTE   W06
 BYTE   Fn0
 BYTE   W06
 BYTE   Fn0
 BYTE   W06
 BYTE   Fn0
 BYTE   W06
 BYTE   Fn0
 BYTE   W06
 BYTE   Dn0
 BYTE   W06
 BYTE   Dn0
 BYTE   W06
 BYTE   Dn0
 BYTE   W06
 BYTE   Dn0
 BYTE   W06
 BYTE   Gn0
 BYTE   W06
 BYTE   Gn0
 BYTE   W06
 BYTE   Gn0
 BYTE   W06
 BYTE   Gn0
 BYTE   W06
//  #01 //051   ----------------------------------------
 BYTE   Fn0
 BYTE   W06
 BYTE   Fn0
 BYTE   W06
 BYTE   Fn0
 BYTE   W06
 BYTE   Fn0
 BYTE   W06
 BYTE   Fn0
 BYTE   W06
 BYTE   Fn0
 BYTE   W06
 BYTE   Fn0
 BYTE   W06
 BYTE   Fn0
 BYTE   W06
 BYTE   Dn0
 BYTE   W06
 BYTE   Dn0
 BYTE   W06
 BYTE   Dn0
 BYTE   W06
 BYTE   Dn0
 BYTE   W06
 BYTE   Gn0
 BYTE   W06
 BYTE   Gn0
 BYTE   W06
 BYTE   Gn0
 BYTE   W06
 BYTE   Gn0
 BYTE   W12
//  #01 //052   ----------------------------------------
 BYTE   GoTo
  POIN2 Label_014B6504
 BYTE   FINE

//**************** Track 2 (Midi-Chn.1) ****************//

BattleToadsDoubleDragonLevel1_002:
//  #02 //000   ----------------------------------------
Label_014B5290:
 BYTE   TEMPO   76*BattleToadsDoubleDragonLevel1_tbs/2
 BYTE   KEYSH   BattleToadsDoubleDragonLevel1_key+0
 BYTE   VOICE   52
 BYTE   VOL   35*BattleToadsDoubleDragonLevel1_mvl/mxv
 BYTE   PAN   c_v+0
 BYTE   W06
 BYTE   N03  Cn4  v127
 BYTE   N03  An3
 BYTE   N03  En4
 BYTE   W06
 BYTE   Cn4  v102
 BYTE   N03  An3
 BYTE   N03  En4
 BYTE   W06
 BYTE   Cn4  v076
 BYTE   N03  An3
 BYTE   N03  En4
 BYTE   W06
 BYTE   Cn4  v051
 BYTE   N03  An3
 BYTE   N03  En4
 BYTE   W06
 BYTE   Cn4  v026
 BYTE   N03  An3
 BYTE   N03  En4
 BYTE   W24
 BYTE   Bn3  v127
 BYTE   N03  Gn3
 BYTE   N03  Dn4
 BYTE   W06
 BYTE   Bn3  v102
 BYTE   N03  Gn3
 BYTE   N03  Dn4
 BYTE   W06
 BYTE   Bn3  v076
 BYTE   N03  Gn3
 BYTE   N03  Dn4
 BYTE   W06
 BYTE   Bn3  v051
 BYTE   N03  Gn3
 BYTE   N03  Dn4
 BYTE   W06
 BYTE   Bn3  v026
 BYTE   N03  Gn3
 BYTE   N03  Dn4  v029
 BYTE   W24
//  #02 //001   ----------------------------------------
 BYTE   An3  v127
 BYTE   N03  En3
 BYTE   N03  Cn4
 BYTE   W06
 BYTE   An3  v102
 BYTE   N03  En3
 BYTE   N03  Cn4
 BYTE   W06
 BYTE   An3  v076
 BYTE   N03  En3
 BYTE   N03  Cn4
 BYTE   W06
 BYTE   An3  v051
 BYTE   N03  En3
 BYTE   N03  Cn4
 BYTE   W06
 BYTE   An3  v026
 BYTE   N03  En3
 BYTE   N03  Cn4  v029
 BYTE   W24
 BYTE   Bn3  v127
 BYTE   N03  Gn3
 BYTE   N03  Dn4
 BYTE   W06
 BYTE   Bn3  v102
 BYTE   N03  Gn3
 BYTE   N03  Dn4
 BYTE   W06
 BYTE   Bn3  v076
 BYTE   N03  Gn3
 BYTE   N03  Dn4
 BYTE   W06
 BYTE   Bn3  v051
 BYTE   N03  Gn3
 BYTE   N03  Dn4
 BYTE   W06
 BYTE   Bn3  v026
 BYTE   N03  Gn3
 BYTE   N03  Dn4  v029
 BYTE   W24
//  #02 //002   ----------------------------------------
 BYTE   Cn4  v127
 BYTE   N03  An3
 BYTE   N03  En4
 BYTE   W06
 BYTE   Cn4  v102
 BYTE   N03  An3
 BYTE   N03  En4
 BYTE   W06
 BYTE   Cn4  v076
 BYTE   N03  An3
 BYTE   N03  En4
 BYTE   W06
 BYTE   Cn4  v051
 BYTE   N03  An3
 BYTE   N03  En4
 BYTE   W06
 BYTE   Cn4  v026
 BYTE   N03  An3
 BYTE   N03  En4
 BYTE   W24
 BYTE   Bn3  v127
 BYTE   N03  Gn3
 BYTE   N03  Dn4
 BYTE   W06
 BYTE   Bn3  v102
 BYTE   N03  Gn3
 BYTE   N03  Dn4
 BYTE   W06
 BYTE   Bn3  v076
 BYTE   N03  Gn3
 BYTE   N03  Dn4
 BYTE   W06
 BYTE   Bn3  v051
 BYTE   N03  Gn3
 BYTE   N03  Dn4
 BYTE   W06
 BYTE   Bn3  v026
 BYTE   N03  Gn3
 BYTE   N03  Dn4  v029
 BYTE   W24
//  #02 //003   ----------------------------------------
 BYTE   An3  v127
 BYTE   N03  En3
 BYTE   N03  Cn4
 BYTE   W06
 BYTE   An3  v102
 BYTE   N03  En3
 BYTE   N03  Cn4
 BYTE   W06
 BYTE   An3  v076
 BYTE   N03  En3
 BYTE   N03  Cn4
 BYTE   W06
 BYTE   An3  v051
 BYTE   N03  En3
 BYTE   N03  Cn4
 BYTE   W06
 BYTE   An3  v026
 BYTE   N03  En3
 BYTE   N03  Cn4  v029
 BYTE   W24
 BYTE   Bn3  v127
 BYTE   N03  Gn3
 BYTE   N03  Dn4
 BYTE   W06
 BYTE   Bn3  v102
 BYTE   N03  Gn3
 BYTE   N03  Dn4
 BYTE   W06
 BYTE   Bn3  v076
 BYTE   N03  Gn3
 BYTE   N03  Dn4
 BYTE   W06
 BYTE   Bn3  v051
 BYTE   N03  Gn3
 BYTE   N03  Dn4
 BYTE   W06
 BYTE   Bn3  v026
 BYTE   N03  Gn3
 BYTE   N03  Dn4  v029
 BYTE   W96
//  #02 //004   ----------------------------------------
 BYTE   W96
//  #02 //005   ----------------------------------------
 BYTE   W96
//  #02 //006   ----------------------------------------
 BYTE   W96
//  #02 //007   ----------------------------------------
 BYTE   W18
Label_014B53BE:
 BYTE   N18  En4  v127
 BYTE   N18  Cn4
 BYTE   W18
 BYTE   Cn4
 BYTE   N18  An3
 BYTE   W18
 BYTE   N60  Dn4
 BYTE   N60  Bn3
 BYTE   W66
 BYTE   PEND 
//  #02 //008   ----------------------------------------
Label_014B53CE:
 BYTE   N06  En3  v127
 BYTE   W06
 BYTE   An3
 BYTE   W06
 BYTE   Cn4
 BYTE   W06
 BYTE   Bn3
 BYTE   W06
 BYTE   Cn4
 BYTE   W06
 BYTE   Bn3
 BYTE   W06
 BYTE   N12  Gn3
 BYTE   W12
 BYTE   N06  Bn2
 BYTE   W06
 BYTE   Dn3
 BYTE   W06
 BYTE   Gn3
 BYTE   W06
 BYTE   Fs3
 BYTE   W06
 BYTE   Gn3
 BYTE   W06
 BYTE   Fs3
 BYTE   W06
 BYTE   N12  Dn3
 BYTE   W12
 BYTE   PEND 
//  #02 //009   ----------------------------------------
Label_014B53F0:
 BYTE   N06  Dn3  v127
 BYTE   W06
 BYTE   Fn3
 BYTE   W06
 BYTE   As3
 BYTE   W06
 BYTE   An3
 BYTE   W06
 BYTE   Fn3
 BYTE   W06
 BYTE   Dn3
 BYTE   W06
 BYTE   N12  Cn3
 BYTE   W12
 BYTE   N06
 BYTE   W06
 BYTE   Dn3
 BYTE   W06
 BYTE   N12  Fn3
 BYTE   W12
 BYTE   N06  Dn3
 BYTE   W06
 BYTE   Fn3
 BYTE   W06
 BYTE   N12  Gn3
 BYTE   W12
 BYTE   PEND 
//  #02 //010   ----------------------------------------
 BYTE   PATT
  POIN2 Label_014B53CE
//  #02 //011   ----------------------------------------
 BYTE   N06  Dn3  v127
 BYTE   W06
 BYTE   Fn3
 BYTE   W06
 BYTE   As3
 BYTE   W06
 BYTE   An3
 BYTE   W06
 BYTE   Fn3
 BYTE   W06
 BYTE   Dn3
 BYTE   W06
 BYTE   N12  Cn3
 BYTE   W12
 BYTE   N06
 BYTE   W06
 BYTE   Dn3
 BYTE   W06
 BYTE   N12  Fn3
 BYTE   W12
 BYTE   N06  Dn3
 BYTE   W06
 BYTE   Fn3
 BYTE   W06
 BYTE   Gn3
 BYTE   W96
//  #02 //012   ----------------------------------------
 BYTE   W96
//  #02 //013   ----------------------------------------
 BYTE   W96
//  #02 //014   ----------------------------------------
 BYTE   W96
//  #02 //015   ----------------------------------------
 BYTE   W06
 BYTE   N18  En4
 BYTE   N18  Cn4
 BYTE   W18
 BYTE   Cn4
 BYTE   N18  An3
 BYTE   W18
 BYTE   N60  Dn4
 BYTE   N60  Bn3
 BYTE   W60
//  #02 //016   ----------------------------------------
 BYTE   PATT
  POIN2 Label_014B53BE
//  #02 //017   ----------------------------------------
 BYTE   PATT
  POIN2 Label_014B53CE
//  #02 //018   ----------------------------------------
 BYTE   PATT
  POIN2 Label_014B53F0
//  #02 //019   ----------------------------------------
 BYTE   PATT
  POIN2 Label_014B53CE
//  #02 //020   ----------------------------------------
 BYTE   N06  Dn3  v127
 BYTE   W06
 BYTE   Fn3
 BYTE   W06
 BYTE   As3
 BYTE   W06
 BYTE   An3
 BYTE   W06
 BYTE   Fn3
 BYTE   W06
 BYTE   Dn3
 BYTE   W06
 BYTE   N12  Cn3
 BYTE   W12
 BYTE   N06
 BYTE   W06
 BYTE   Dn3
 BYTE   W06
 BYTE   N12  Fn3
 BYTE   W12
 BYTE   N06  Dn3
 BYTE   W06
 BYTE   Fn3
 BYTE   W06
 BYTE   Gn3
 BYTE   W96
//  #02 //021   ----------------------------------------
 BYTE   W96
//  #02 //022   ----------------------------------------
 BYTE   W96
//  #02 //023   ----------------------------------------
 BYTE   W96
//  #02 //024   ----------------------------------------
 BYTE   W96
//  #02 //025   ----------------------------------------
 BYTE   W06
 BYTE   VOL   35*BattleToadsDoubleDragonLevel1_mvl/mxv
 BYTE   PAN   c_v+0
 BYTE   W96
//  #02 //026   ----------------------------------------
 BYTE   W96
//  #02 //027   ----------------------------------------
 BYTE   W96
//  #02 //028   ----------------------------------------
 BYTE   W96
//  #02 //029   ----------------------------------------
 BYTE   N18  En4  v127
 BYTE   N18  Cn4
 BYTE   W18
 BYTE   Cn4
 BYTE   N18  An3
 BYTE   W18
 BYTE   N60  Dn4
 BYTE   N60  Bn3
 BYTE   W66
//  #02 //030   ----------------------------------------
 BYTE   N06  En3
 BYTE   W06
 BYTE   An3
 BYTE   W06
 BYTE   Cn4
 BYTE   W06
 BYTE   Bn3
 BYTE   W06
 BYTE   Cn4
 BYTE   W06
 BYTE   Bn3
 BYTE   W06
 BYTE   N12  Gn3
 BYTE   W12
 BYTE   N06  Bn2
 BYTE   W06
 BYTE   Dn3
 BYTE   W06
 BYTE   Gn3
 BYTE   W06
 BYTE   Fs3
 BYTE   W06
 BYTE   Gn3
 BYTE   W06
 BYTE   Fs3
 BYTE   W06
 BYTE   N12  Dn3
 BYTE   W12
//  #02 //031   ----------------------------------------
 BYTE   N06
 BYTE   W06
 BYTE   Fn3
 BYTE   W06
 BYTE   As3
 BYTE   W06
 BYTE   An3
 BYTE   W06
 BYTE   Fn3
 BYTE   W06
 BYTE   Dn3
 BYTE   W06
 BYTE   N12  Cn3
 BYTE   W12
 BYTE   N06
 BYTE   W06
 BYTE   Dn3
 BYTE   W06
 BYTE   N12  Fn3
 BYTE   W12
 BYTE   N06  Dn3
 BYTE   W06
 BYTE   Fn3
 BYTE   W06
 BYTE   N12  Gn3
 BYTE   W12
//  #02 //032   ----------------------------------------
 BYTE   N06  En3
 BYTE   W06
 BYTE   An3
 BYTE   W06
 BYTE   Cn4
 BYTE   W06
 BYTE   Bn3
 BYTE   W06
 BYTE   Cn4
 BYTE   W06
 BYTE   Bn3
 BYTE   W06
 BYTE   N12  Gn3
 BYTE   W12
 BYTE   N06  Bn2
 BYTE   W06
 BYTE   Dn3
 BYTE   W06
 BYTE   Gn3
 BYTE   W06
 BYTE   Fs3
 BYTE   W06
 BYTE   Gn3
 BYTE   W06
 BYTE   Fs3
 BYTE   W06
 BYTE   N12  Dn3
 BYTE   W12
//  #02 //033   ----------------------------------------
 BYTE   N06
 BYTE   W06
 BYTE   Fn3
 BYTE   W06
 BYTE   As3
 BYTE   W06
 BYTE   An3
 BYTE   W06
 BYTE   Fn3
 BYTE   W06
 BYTE   Dn3
 BYTE   W06
 BYTE   N12  Cn3
 BYTE   W12
 BYTE   N06
 BYTE   W06
 BYTE   Dn3
 BYTE   W06
 BYTE   N12  Fn3
 BYTE   W12
 BYTE   N06  Dn3
 BYTE   W06
 BYTE   Fn3
 BYTE   W06
 BYTE   Gn3
 BYTE   W96
//  #02 //034   ----------------------------------------
 BYTE   W96
//  #02 //035   ----------------------------------------
 BYTE   W96
//  #02 //036   ----------------------------------------
 BYTE   W96
//  #02 //037   ----------------------------------------
 BYTE   W06
 BYTE   N18  En4
 BYTE   N18  Cn4
 BYTE   W18
 BYTE   Cn4
 BYTE   N18  An3
 BYTE   W18
 BYTE   N60  Dn4
 BYTE   N60  Bn3
 BYTE   W60
//  #02 //038   ----------------------------------------
 BYTE   N18  En4
 BYTE   N18  Cn4
 BYTE   W18
 BYTE   Cn4
 BYTE   N18  An3
 BYTE   W18
 BYTE   N60  Dn4
 BYTE   N60  Bn3
 BYTE   W66
//  #02 //039   ----------------------------------------
 BYTE   N06  En3
 BYTE   W06
 BYTE   An3
 BYTE   W06
 BYTE   Cn4
 BYTE   W06
 BYTE   Bn3
 BYTE   W06
 BYTE   Cn4
 BYTE   W06
 BYTE   Bn3
 BYTE   W06
 BYTE   N12  Gn3
 BYTE   W12
 BYTE   N06  Bn2
 BYTE   W06
 BYTE   Dn3
 BYTE   W06
 BYTE   Gn3
 BYTE   W06
 BYTE   Fs3
 BYTE   W06
 BYTE   Gn3
 BYTE   W06
 BYTE   Fs3
 BYTE   W06
 BYTE   N12  Dn3
 BYTE   W12
//  #02 //040   ----------------------------------------
 BYTE   N06
 BYTE   W06
 BYTE   Fn3
 BYTE   W06
 BYTE   As3
 BYTE   W06
 BYTE   An3
 BYTE   W06
 BYTE   Fn3
 BYTE   W06
 BYTE   Dn3
 BYTE   W06
 BYTE   N12  Cn3
 BYTE   W12
 BYTE   N06
 BYTE   W06
 BYTE   Dn3
 BYTE   W06
 BYTE   N12  Fn3
 BYTE   W12
 BYTE   N06  Dn3
 BYTE   W06
 BYTE   Fn3
 BYTE   W06
 BYTE   N12  Gn3
 BYTE   W12
//  #02 //041   ----------------------------------------
 BYTE   N06  En3
 BYTE   W06
 BYTE   An3
 BYTE   W06
 BYTE   Cn4
 BYTE   W06
 BYTE   Bn3
 BYTE   W06
 BYTE   Cn4
 BYTE   W06
 BYTE   Bn3
 BYTE   W06
 BYTE   N12  Gn3
 BYTE   W12
 BYTE   N06  Bn2
 BYTE   W06
 BYTE   Dn3
 BYTE   W06
 BYTE   Gn3
 BYTE   W06
 BYTE   Fs3
 BYTE   W06
 BYTE   Gn3
 BYTE   W06
 BYTE   Fs3
 BYTE   W06
 BYTE   N12  Dn3
 BYTE   W12
//  #02 //042   ----------------------------------------
 BYTE   N06
 BYTE   W06
 BYTE   Fn3
 BYTE   W06
 BYTE   As3
 BYTE   W06
 BYTE   An3
 BYTE   W06
 BYTE   Fn3
 BYTE   W06
 BYTE   Dn3
 BYTE   W06
 BYTE   N12  Cn3
 BYTE   W12
 BYTE   N06
 BYTE   W06
 BYTE   Dn3
 BYTE   W06
 BYTE   N12  Fn3
 BYTE   W12
 BYTE   N06  Dn3
 BYTE   W06
 BYTE   Fn3
 BYTE   W06
 BYTE   Gn3
 BYTE   W96
//  #02 //043   ----------------------------------------
 BYTE   W96
//  #02 //044   ----------------------------------------
 BYTE   W96
//  #02 //045   ----------------------------------------
 BYTE   W96
//  #02 //046   ----------------------------------------
 BYTE   W96
//  #02 //047   ----------------------------------------
 BYTE   W12
 BYTE   GoTo
  POIN2 Label_014B5290
 BYTE   FINE

//**************** Track 3 (Midi-Chn.2) ****************//

BattleToadsDoubleDragonLevel1_003:
//  #03 //000   ----------------------------------------
Label_014B5620:
 BYTE   TEMPO   76*BattleToadsDoubleDragonLevel1_tbs/2
 BYTE   KEYSH   BattleToadsDoubleDragonLevel1_key+0
 BYTE   VOICE   29
 BYTE   VOL   40*BattleToadsDoubleDragonLevel1_mvl/mxv
 BYTE   W96
//  #03 //001   ----------------------------------------
 BYTE   W96
//  #03 //002   ----------------------------------------
 BYTE   N06  An1  v127
 BYTE   W06
 BYTE   An1
 BYTE   W06
 BYTE   An1
 BYTE   W06
 BYTE   An1
 BYTE   W06
 BYTE   An1
 BYTE   W06
 BYTE   An1
 BYTE   W06
 BYTE   An1
 BYTE   W06
 BYTE   An1
 BYTE   W06
 BYTE   Gn1
 BYTE   W06
 BYTE   Gn1
 BYTE   W06
 BYTE   Gn1
 BYTE   W06
 BYTE   Gn1
 BYTE   W06
 BYTE   Gn1
 BYTE   W06
 BYTE   Gn1
 BYTE   W06
 BYTE   Gn1
 BYTE   W06
 BYTE   Gn1
 BYTE   W06
//  #03 //003   ----------------------------------------
 BYTE   An1
 BYTE   W06
 BYTE   An1
 BYTE   W06
 BYTE   An1
 BYTE   W06
 BYTE   An1
 BYTE   W06
 BYTE   An1
 BYTE   W06
 BYTE   An1
 BYTE   W06
 BYTE   An1
 BYTE   W06
 BYTE   An1
 BYTE   W06
 BYTE   Gn1
 BYTE   W06
 BYTE   Gn1
 BYTE   W06
 BYTE   Gn1
 BYTE   W06
 BYTE   Gn1
 BYTE   W06
 BYTE   Gn1
 BYTE   W06
 BYTE   Gn1
 BYTE   W06
 BYTE   Gn1
 BYTE   W06
 BYTE   Gn1
 BYTE   W96
//  #03 //004   ----------------------------------------
 BYTE   W96
//  #03 //005   ----------------------------------------
 BYTE   W96
//  #03 //006   ----------------------------------------
 BYTE   W96
//  #03 //007   ----------------------------------------
 BYTE   W96
//  #03 //008   ----------------------------------------
 BYTE   W06
Label_014B5671:
 BYTE   N06  An1  v127
 BYTE   W06
 BYTE   An1
 BYTE   W06
 BYTE   An1
 BYTE   W06
 BYTE   An1
 BYTE   W06
 BYTE   An1
 BYTE   W06
 BYTE   An1
 BYTE   W06
 BYTE   An1
 BYTE   W06
 BYTE   An1
 BYTE   W06
 BYTE   En1
 BYTE   W06
 BYTE   En1
 BYTE   W06
 BYTE   En1
 BYTE   W06
 BYTE   En1
 BYTE   W06
 BYTE   En1
 BYTE   W06
 BYTE   En1
 BYTE   W06
 BYTE   En1
 BYTE   W06
//  #03 //009   ----------------------------------------
 BYTE   En1
 BYTE   W06
 BYTE   PEND 
Label_014B5694:
 BYTE   N06  As1  v127
 BYTE   W06
 BYTE   As1
 BYTE   W06
 BYTE   As1
 BYTE   W06
 BYTE   As1
 BYTE   W06
 BYTE   As1
 BYTE   W06
 BYTE   As1
 BYTE   W06
 BYTE   As1
 BYTE   W06
 BYTE   As1
 BYTE   W06
 BYTE   Fn1
 BYTE   W06
 BYTE   Fn1
 BYTE   W06
 BYTE   An1
 BYTE   W06
 BYTE   An1
 BYTE   W06
 BYTE   Gn1
 BYTE   W06
 BYTE   Gn1
 BYTE   W06
 BYTE   Fn1
 BYTE   W06
//  #03 //010   ----------------------------------------
 BYTE   Fn1
 BYTE   W06
 BYTE   PEND 
//  #03 //011   ----------------------------------------
 BYTE   PATT
  POIN2 Label_014B5671
//  #03 //012   ----------------------------------------
 BYTE   N06  As1  v127
 BYTE   W06
 BYTE   As1
 BYTE   W06
 BYTE   As1
 BYTE   W06
 BYTE   As1
 BYTE   W06
 BYTE   As1
 BYTE   W06
 BYTE   As1
 BYTE   W06
 BYTE   As1
 BYTE   W06
 BYTE   As1
 BYTE   W06
 BYTE   Fn1
 BYTE   W06
 BYTE   Fn1
 BYTE   W06
 BYTE   An1
 BYTE   W06
 BYTE   An1
 BYTE   W06
 BYTE   Gn1
 BYTE   W06
 BYTE   Gn1
 BYTE   W06
 BYTE   Fn1
 BYTE   W06
 BYTE   Fn1
 BYTE   W96
//  #03 //013   ----------------------------------------
 BYTE   W96
//  #03 //014   ----------------------------------------
 BYTE   W96
//  #03 //015   ----------------------------------------
 BYTE   W96
//  #03 //016   ----------------------------------------
 BYTE   W96
//  #03 //017   ----------------------------------------
 BYTE   W96
//  #03 //018   ----------------------------------------
 BYTE   W06
//  #03 //019   ----------------------------------------
 BYTE   PATT
  POIN2 Label_014B5671
//  #03 //020   ----------------------------------------
 BYTE   PATT
  POIN2 Label_014B5694
//  #03 //021   ----------------------------------------
 BYTE   PATT
  POIN2 Label_014B5671
//  #03 //022   ----------------------------------------
 BYTE   N06  As1  v127
 BYTE   W06
 BYTE   As1
 BYTE   W06
 BYTE   As1
 BYTE   W06
 BYTE   As1
 BYTE   W06
 BYTE   As1
 BYTE   W06
 BYTE   As1
 BYTE   W06
 BYTE   As1
 BYTE   W06
 BYTE   As1
 BYTE   W06
 BYTE   Fn1
 BYTE   W06
 BYTE   Fn1
 BYTE   W06
 BYTE   An1
 BYTE   W06
 BYTE   An1
 BYTE   W06
 BYTE   Gn1
 BYTE   W06
 BYTE   Gn1
 BYTE   W06
 BYTE   Fn1
 BYTE   W06
 BYTE   Fn1
 BYTE   W96
//  #03 //023   ----------------------------------------
 BYTE   W96
//  #03 //024   ----------------------------------------
 BYTE   W96
//  #03 //025   ----------------------------------------
 BYTE   W96
//  #03 //026   ----------------------------------------
 BYTE   W96
//  #03 //027   ----------------------------------------
 BYTE   W06
 BYTE   VOL   40*BattleToadsDoubleDragonLevel1_mvl/mxv
 BYTE   W96
//  #03 //028   ----------------------------------------
 BYTE   W96
//  #03 //029   ----------------------------------------
 BYTE   W96
//  #03 //030   ----------------------------------------
 BYTE   W96
//  #03 //031   ----------------------------------------
 BYTE   W96
//  #03 //032   ----------------------------------------
 BYTE   N06  An1  v127
 BYTE   W06
 BYTE   An1
 BYTE   W06
 BYTE   An1
 BYTE   W06
 BYTE   An1
 BYTE   W06
 BYTE   An1
 BYTE   W06
 BYTE   An1
 BYTE   W06
 BYTE   An1
 BYTE   W06
 BYTE   An1
 BYTE   W06
 BYTE   En1
 BYTE   W06
 BYTE   En1
 BYTE   W06
 BYTE   En1
 BYTE   W06
 BYTE   En1
 BYTE   W06
 BYTE   En1
 BYTE   W06
 BYTE   En1
 BYTE   W06
 BYTE   En1
 BYTE   W06
 BYTE   En1
 BYTE   W06
//  #03 //033   ----------------------------------------
 BYTE   As1
 BYTE   W06
 BYTE   As1
 BYTE   W06
 BYTE   As1
 BYTE   W06
 BYTE   As1
 BYTE   W06
 BYTE   As1
 BYTE   W06
 BYTE   As1
 BYTE   W06
 BYTE   As1
 BYTE   W06
 BYTE   As1
 BYTE   W06
 BYTE   Fn1
 BYTE   W06
 BYTE   Fn1
 BYTE   W06
 BYTE   An1
 BYTE   W06
 BYTE   An1
 BYTE   W06
 BYTE   Gn1
 BYTE   W06
 BYTE   Gn1
 BYTE   W06
 BYTE   Fn1
 BYTE   W06
 BYTE   Fn1
 BYTE   W06
//  #03 //034   ----------------------------------------
 BYTE   An1
 BYTE   W06
 BYTE   An1
 BYTE   W06
 BYTE   An1
 BYTE   W06
 BYTE   An1
 BYTE   W06
 BYTE   An1
 BYTE   W06
 BYTE   An1
 BYTE   W06
 BYTE   An1
 BYTE   W06
 BYTE   An1
 BYTE   W06
 BYTE   En1
 BYTE   W06
 BYTE   En1
 BYTE   W06
 BYTE   En1
 BYTE   W06
 BYTE   En1
 BYTE   W06
 BYTE   En1
 BYTE   W06
 BYTE   En1
 BYTE   W06
 BYTE   En1
 BYTE   W06
 BYTE   En1
 BYTE   W06
//  #03 //035   ----------------------------------------
 BYTE   As1
 BYTE   W06
 BYTE   As1
 BYTE   W06
 BYTE   As1
 BYTE   W06
 BYTE   As1
 BYTE   W06
 BYTE   As1
 BYTE   W06
 BYTE   As1
 BYTE   W06
 BYTE   As1
 BYTE   W06
 BYTE   As1
 BYTE   W06
 BYTE   Fn1
 BYTE   W06
 BYTE   Fn1
 BYTE   W06
 BYTE   An1
 BYTE   W06
 BYTE   An1
 BYTE   W06
 BYTE   Gn1
 BYTE   W06
 BYTE   Gn1
 BYTE   W06
 BYTE   Fn1
 BYTE   W06
 BYTE   Fn1
 BYTE   W96
//  #03 //036   ----------------------------------------
 BYTE   W96
//  #03 //037   ----------------------------------------
 BYTE   W96
//  #03 //038   ----------------------------------------
 BYTE   W96
//  #03 //039   ----------------------------------------
 BYTE   W96
//  #03 //040   ----------------------------------------
 BYTE   W96
//  #03 //041   ----------------------------------------
 BYTE   W06
 BYTE   An1
 BYTE   W06
 BYTE   An1
 BYTE   W06
 BYTE   An1
 BYTE   W06
 BYTE   An1
 BYTE   W06
 BYTE   An1
 BYTE   W06
 BYTE   An1
 BYTE   W06
 BYTE   An1
 BYTE   W06
 BYTE   An1
 BYTE   W06
 BYTE   En1
 BYTE   W06
 BYTE   En1
 BYTE   W06
 BYTE   En1
 BYTE   W06
 BYTE   En1
 BYTE   W06
 BYTE   En1
 BYTE   W06
 BYTE   En1
 BYTE   W06
 BYTE   En1
 BYTE   W06
//  #03 //042   ----------------------------------------
 BYTE   En1
 BYTE   W06
 BYTE   As1
 BYTE   W06
 BYTE   As1
 BYTE   W06
 BYTE   As1
 BYTE   W06
 BYTE   As1
 BYTE   W06
 BYTE   As1
 BYTE   W06
 BYTE   As1
 BYTE   W06
 BYTE   As1
 BYTE   W06
 BYTE   As1
 BYTE   W06
 BYTE   Fn1
 BYTE   W06
 BYTE   Fn1
 BYTE   W06
 BYTE   An1
 BYTE   W06
 BYTE   An1
 BYTE   W06
 BYTE   Gn1
 BYTE   W06
 BYTE   Gn1
 BYTE   W06
 BYTE   Fn1
 BYTE   W06
//  #03 //043   ----------------------------------------
 BYTE   Fn1
 BYTE   W06
 BYTE   An1
 BYTE   W06
 BYTE   An1
 BYTE   W06
 BYTE   An1
 BYTE   W06
 BYTE   An1
 BYTE   W06
 BYTE   An1
 BYTE   W06
 BYTE   An1
 BYTE   W06
 BYTE   An1
 BYTE   W06
 BYTE   An1
 BYTE   W06
 BYTE   En1
 BYTE   W06
 BYTE   En1
 BYTE   W06
 BYTE   En1
 BYTE   W06
 BYTE   En1
 BYTE   W06
 BYTE   En1
 BYTE   W06
 BYTE   En1
 BYTE   W06
 BYTE   En1
 BYTE   W06
//  #03 //044   ----------------------------------------
 BYTE   En1
 BYTE   W06
 BYTE   As1
 BYTE   W06
 BYTE   As1
 BYTE   W06
 BYTE   As1
 BYTE   W06
 BYTE   As1
 BYTE   W06
 BYTE   As1
 BYTE   W06
 BYTE   As1
 BYTE   W06
 BYTE   As1
 BYTE   W06
 BYTE   As1
 BYTE   W06
 BYTE   Fn1
 BYTE   W06
 BYTE   Fn1
 BYTE   W06
 BYTE   An1
 BYTE   W06
 BYTE   An1
 BYTE   W06
 BYTE   Gn1
 BYTE   W06
 BYTE   Gn1
 BYTE   W06
 BYTE   Fn1
 BYTE   W06
//  #03 //045   ----------------------------------------
 BYTE   Fn1
 BYTE   W96
//  #03 //046   ----------------------------------------
 BYTE   W96
//  #03 //047   ----------------------------------------
 BYTE   W96
//  #03 //048   ----------------------------------------
 BYTE   W96
//  #03 //049   ----------------------------------------
 BYTE   W96
//  #03 //050   ----------------------------------------
 BYTE   W12
 BYTE   GoTo
  POIN2 Label_014B5620
 BYTE   FINE

//**************** Track 4 (Midi-Chn.3) ****************//

BattleToadsDoubleDragonLevel1_004:
//  #04 //000   ----------------------------------------
Label_014B4638:
 BYTE   TEMPO   76*BattleToadsDoubleDragonLevel1_tbs/2
 BYTE   KEYSH   BattleToadsDoubleDragonLevel1_key+0
 BYTE   VOICE   29
 BYTE   VOL   25*BattleToadsDoubleDragonLevel1_mvl/mxv
 BYTE   W96
//  #04 //001   ----------------------------------------
 BYTE   W96
//  #04 //002   ----------------------------------------
 BYTE   W96
//  #04 //003   ----------------------------------------
 BYTE   W96
//  #04 //004   ----------------------------------------
Label_014B4644:
 BYTE   N12  An2  v127
 BYTE   N12  An1
 BYTE   N12  En3
 BYTE   N12  En2
 BYTE   W12
 BYTE   N06  An2
 BYTE   N06  An1
 BYTE   N06  En3
 BYTE   N06  En2
 BYTE   W06
 BYTE   Gn1
 BYTE   N06  Gn2
 BYTE   W06
 BYTE   An1
 BYTE   N06  An2
 BYTE   W06
 BYTE   Cn2
 BYTE   N06  Cn3
 BYTE   W06
 BYTE   Dn2
 BYTE   N06  Dn3
 BYTE   W06
 BYTE   N12  Gn2
 BYTE   N12  Gn1
 BYTE   N12  Dn2
 BYTE   N12  Dn3
 BYTE   W12
 BYTE   Gn2
 BYTE   N12  Gn1
 BYTE   N12  Dn2
 BYTE   N12  Dn3
 BYTE   W12
 BYTE   N06  En1
 BYTE   N06  En2
 BYTE   W06
 BYTE   Gn1
 BYTE   N06  Gn2
 BYTE   W06
 BYTE   Gn1
 BYTE   N06  Gn2
 BYTE   W06
 BYTE   En1
 BYTE   N06  En2
 BYTE   W06
 BYTE   Gn1
 BYTE   N06  Gn2
 BYTE   W06
 BYTE   PEND 
//  #04 //005   ----------------------------------------
Label_014B468E:
 BYTE   N12  An2  v127
 BYTE   N12  An1
 BYTE   N12  En3
 BYTE   N12  En2
 BYTE   W12
 BYTE   N06  An2
 BYTE   N06  An1
 BYTE   N06  En3
 BYTE   N06  En2
 BYTE   W06
 BYTE   Gn1
 BYTE   N06  Gn2
 BYTE   W06
 BYTE   An1
 BYTE   N06  An2
 BYTE   W06
 BYTE   Cn2
 BYTE   N06  Cn3
 BYTE   W06
 BYTE   Dn2
 BYTE   N06  Dn3
 BYTE   W06
 BYTE   N12  Gn2
 BYTE   N12  Gn1
 BYTE   N12  Dn2
 BYTE   N12  Dn3
 BYTE   W12
 BYTE   Gn2
 BYTE   N12  Gn1
 BYTE   N12  Dn2
 BYTE   N12  Dn3
 BYTE   W12
 BYTE   N06  En1
 BYTE   N06  En2
 BYTE   W06
 BYTE   Gn1
 BYTE   N06  Gn2
 BYTE   W06
 BYTE   En1
 BYTE   N06  En2
 BYTE   W06
 BYTE   Gn1
 BYTE   N06  Gn2
 BYTE   W06
 BYTE   Gs1
 BYTE   N06  Gs2
 BYTE   W06
 BYTE   PEND 
//  #04 //006   ----------------------------------------
 BYTE   PATT
  POIN2 Label_014B4644
//  #04 //007   ----------------------------------------
 BYTE   PATT
  POIN2 Label_014B468E
//  #04 //008   ----------------------------------------
Label_014B46E2:
 BYTE   N12  An2  v127
 BYTE   N12  En3
 BYTE   N12  An1
 BYTE   N12  En2
 BYTE   W12
 BYTE   N06  An2
 BYTE   N06  En3
 BYTE   N06  An1
 BYTE   N06  En2
 BYTE   W06
 BYTE   N12  Fn2
 BYTE   N12  Cn3
 BYTE   N12  Fn1
 BYTE   N12  Cn2
 BYTE   W12
 BYTE   N06  Fn2
 BYTE   N06  Cn3
 BYTE   N06  Fn1
 BYTE   N06  Cn2
 BYTE   W06
 BYTE   N12  Gn2
 BYTE   N12  Dn3
 BYTE   N12  Gn1
 BYTE   N12  Dn2
 BYTE   W18
 BYTE   N06  Gn1
 BYTE   W06
 BYTE   Gn1
 BYTE   W06
 BYTE   Gn1
 BYTE   W06
 BYTE   Gn1
 BYTE   W06
 BYTE   Gn1
 BYTE   W06
 BYTE   Gn1
 BYTE   W06
 BYTE   Gn1
 BYTE   W96
//  #04 //009   ----------------------------------------
 BYTE   W96
//  #04 //010   ----------------------------------------
 BYTE   W96
//  #04 //011   ----------------------------------------
 BYTE   W96
//  #04 //012   ----------------------------------------
 BYTE   W06
 BYTE   PEND 
//  #04 //013   ----------------------------------------
 BYTE   PATT
  POIN2 Label_014B4644
//  #04 //014   ----------------------------------------
 BYTE   PATT
  POIN2 Label_014B468E
//  #04 //015   ----------------------------------------
 BYTE   PATT
  POIN2 Label_014B4644
//  #04 //016   ----------------------------------------
 BYTE   PATT
  POIN2 Label_014B468E
//  #04 //017   ----------------------------------------
 BYTE   N12  An2  v127
 BYTE   N12  En3
 BYTE   N12  An1
 BYTE   N12  En2
 BYTE   W12
 BYTE   N06  An2
 BYTE   N06  En3
 BYTE   N06  An1
 BYTE   N06  En2
 BYTE   W06
 BYTE   N12  Fn2
 BYTE   N12  Cn3
 BYTE   N12  Fn1
 BYTE   N12  Cn2
 BYTE   W12
 BYTE   N06  Fn2
 BYTE   N06  Cn3
 BYTE   N06  Fn1
 BYTE   N06  Cn2
 BYTE   W06
 BYTE   N12  Gn2
 BYTE   N12  Dn3
 BYTE   N12  Gn1
 BYTE   N12  Dn2
 BYTE   W18
 BYTE   N06  Gn1
 BYTE   W06
 BYTE   Gn1
 BYTE   W06
 BYTE   Gn1
 BYTE   W06
 BYTE   Gn1
 BYTE   W06
 BYTE   Gn1
 BYTE   W06
 BYTE   Gn1
 BYTE   W06
 BYTE   Gn1
 BYTE   W06
//  #04 //018   ----------------------------------------
 BYTE   PATT
  POIN2 Label_014B46E2
//  #04 //019   ----------------------------------------
Label_014B477A:
 BYTE   N06  En2  v127
 BYTE   N06  En3
 BYTE   N06  Bn1
 BYTE   N06  Bn2
 BYTE   W06
 BYTE   N12  Gn2
 BYTE   N12  Gn3
 BYTE   N12  Dn2
 BYTE   N12  Dn3
 BYTE   W12
 BYTE   An2
 BYTE   N12  An3
 BYTE   N12  En2
 BYTE   N12  En3
 BYTE   W12
 BYTE   N06  Bn2  v076
 BYTE   N06  En3
 BYTE   N06  Bn1  v127
 BYTE   N06  En2  v076
 BYTE   W06
 BYTE   Dn3
 BYTE   N06  Gn3
 BYTE   N06  Dn2  v127
 BYTE   N06  Gn2  v076
 BYTE   W06
 BYTE   En3
 BYTE   N06  An3
 BYTE   N06  En2  v127
 BYTE   N06  An2  v076
 BYTE   W06
 BYTE   En2  v127
 BYTE   N06  En3
 BYTE   N06  Bn1
 BYTE   N06  Bn2
 BYTE   W06
 BYTE   N12  Gn2
 BYTE   N12  Gn3
 BYTE   N12  Dn2
 BYTE   N12  Dn3
 BYTE   W12
 BYTE   An2
 BYTE   N12  An3
 BYTE   N12  En2
 BYTE   N12  En3
 BYTE   W12
 BYTE   N06  Bn2  v076
 BYTE   N06  En3
 BYTE   N06  Bn1  v127
 BYTE   N06  En2  v076
 BYTE   W06
 BYTE   Dn3
 BYTE   N06  Gn3
 BYTE   N06  Dn2  v127
 BYTE   N06  Gn2  v076
 BYTE   W06
 BYTE   En3
 BYTE   N06  An3
 BYTE   N06  En2  v127
 BYTE   N06  An2  v076
 BYTE   W06
 BYTE   PEND 
//  #04 //020   ----------------------------------------
Label_014B47F0:
 BYTE   N06  An1  v127
 BYTE   W06
 BYTE   An1
 BYTE   W06
 BYTE   Cn2
 BYTE   W06
 BYTE   Cn2
 BYTE   W06
 BYTE   Bn1
 BYTE   W06
 BYTE   Bn1
 BYTE   W06
 BYTE   Gn1
 BYTE   W06
 BYTE   Gn1
 BYTE   W06
 BYTE   En1
 BYTE   W06
 BYTE   En1
 BYTE   W06
 BYTE   An1
 BYTE   W06
 BYTE   An1
 BYTE   W06
 BYTE   Gn1
 BYTE   W06
 BYTE   Gn1
 BYTE   W06
 BYTE   Dn1
 BYTE   W06
 BYTE   Dn1
 BYTE   W06
 BYTE   PEND 
//  #04 //021   ----------------------------------------
 BYTE   PATT
  POIN2 Label_014B477A
//  #04 //022   ----------------------------------------
 BYTE   PATT
  POIN2 Label_014B47F0
//  #04 //023   ----------------------------------------
 BYTE   N06  An1  v127
 BYTE   W06
 BYTE   An1
 BYTE   W06
 BYTE   Cn2
 BYTE   W06
 BYTE   Cn2
 BYTE   W06
 BYTE   Bn1
 BYTE   W06
 BYTE   Bn1
 BYTE   W06
 BYTE   Gn1
 BYTE   W06
 BYTE   Gn1
 BYTE   W06
 BYTE   En1
 BYTE   W06
 BYTE   En1
 BYTE   W06
 BYTE   An1
 BYTE   W06
 BYTE   An1
 BYTE   W06
 BYTE   Gn1
 BYTE   W06
 BYTE   Gn1
 BYTE   W06
 BYTE   Dn1
 BYTE   W06
 BYTE   Dn1
 BYTE   W06
//  #04 //024   ----------------------------------------
 BYTE   VOL   25*BattleToadsDoubleDragonLevel1_mvl/mxv
 BYTE   N12  An2  v127
 BYTE   N12  An1
 BYTE   N12  En3
 BYTE   N12  En2
 BYTE   W12
 BYTE   N06  An2
 BYTE   N06  An1
 BYTE   N06  En3
 BYTE   N06  En2
 BYTE   W06
 BYTE   Gn1
 BYTE   N06  Gn2
 BYTE   W06
 BYTE   An1
 BYTE   N06  An2
 BYTE   W06
 BYTE   Cn2
 BYTE   N06  Cn3
 BYTE   W06
 BYTE   Dn2
 BYTE   N06  Dn3
 BYTE   W06
 BYTE   N12  Gn2
 BYTE   N12  Gn1
 BYTE   N12  Dn2
 BYTE   N12  Dn3
 BYTE   W12
 BYTE   Gn2
 BYTE   N12  Gn1
 BYTE   N12  Dn2
 BYTE   N12  Dn3
 BYTE   W12
 BYTE   N06  En1
 BYTE   N06  En2
 BYTE   W06
 BYTE   Gn1
 BYTE   N06  Gn2
 BYTE   W06
 BYTE   Gn1
 BYTE   N06  Gn2
 BYTE   W06
 BYTE   En1
 BYTE   N06  En2
 BYTE   W06
 BYTE   Gn1
 BYTE   N06  Gn2
 BYTE   W06
//  #04 //025   ----------------------------------------
 BYTE   N12  An2
 BYTE   N12  An1
 BYTE   N12  En3
 BYTE   N12  En2
 BYTE   W12
 BYTE   N06  An2
 BYTE   N06  An1
 BYTE   N06  En3
 BYTE   N06  En2
 BYTE   W06
 BYTE   Gn1
 BYTE   N06  Gn2
 BYTE   W06
 BYTE   An1
 BYTE   N06  An2
 BYTE   W06
 BYTE   Cn2
 BYTE   N06  Cn3
 BYTE   W06
 BYTE   Dn2
 BYTE   N06  Dn3
 BYTE   W06
 BYTE   N12  Gn2
 BYTE   N12  Gn1
 BYTE   N12  Dn2
 BYTE   N12  Dn3
 BYTE   W12
 BYTE   Gn2
 BYTE   N12  Gn1
 BYTE   N12  Dn2
 BYTE   N12  Dn3
 BYTE   W12
 BYTE   N06  En1
 BYTE   N06  En2
 BYTE   W06
 BYTE   Gn1
 BYTE   N06  Gn2
 BYTE   W06
 BYTE   En1
 BYTE   N06  En2
 BYTE   W06
 BYTE   Gn1
 BYTE   N06  Gn2
 BYTE   W06
 BYTE   Gs1
 BYTE   N06  Gs2
 BYTE   W06
//  #04 //026   ----------------------------------------
 BYTE   N12  An2
 BYTE   N12  An1
 BYTE   N12  En3
 BYTE   N12  En2
 BYTE   W12
 BYTE   N06  An2
 BYTE   N06  An1
 BYTE   N06  En3
 BYTE   N06  En2
 BYTE   W06
 BYTE   Gn1
 BYTE   N06  Gn2
 BYTE   W06
 BYTE   An1
 BYTE   N06  An2
 BYTE   W06
 BYTE   Cn2
 BYTE   N06  Cn3
 BYTE   W06
 BYTE   Dn2
 BYTE   N06  Dn3
 BYTE   W06
 BYTE   N12  Gn2
 BYTE   N12  Gn1
 BYTE   N12  Dn2
 BYTE   N12  Dn3
 BYTE   W12
 BYTE   Gn2
 BYTE   N12  Gn1
 BYTE   N12  Dn2
 BYTE   N12  Dn3
 BYTE   W12
 BYTE   N06  En1
 BYTE   N06  En2
 BYTE   W06
 BYTE   Gn1
 BYTE   N06  Gn2
 BYTE   W06
 BYTE   Gn1
 BYTE   N06  Gn2
 BYTE   W06
 BYTE   En1
 BYTE   N06  En2
 BYTE   W06
 BYTE   Gn1
 BYTE   N06  Gn2
 BYTE   W06
//  #04 //027   ----------------------------------------
 BYTE   N12  An2
 BYTE   N12  An1
 BYTE   N12  En3
 BYTE   N12  En2
 BYTE   W12
 BYTE   N06  An2
 BYTE   N06  An1
 BYTE   N06  En3
 BYTE   N06  En2
 BYTE   W06
 BYTE   Gn1
 BYTE   N06  Gn2
 BYTE   W06
 BYTE   An1
 BYTE   N06  An2
 BYTE   W06
 BYTE   Cn2
 BYTE   N06  Cn3
 BYTE   W06
 BYTE   Dn2
 BYTE   N06  Dn3
 BYTE   W06
 BYTE   N12  Gn2
 BYTE   N12  Gn1
 BYTE   N12  Dn2
 BYTE   N12  Dn3
 BYTE   W12
 BYTE   Gn2
 BYTE   N12  Gn1
 BYTE   N12  Dn2
 BYTE   N12  Dn3
 BYTE   W12
 BYTE   N06  En1
 BYTE   N06  En2
 BYTE   W06
 BYTE   Gn1
 BYTE   N06  Gn2
 BYTE   W06
 BYTE   En1
 BYTE   N06  En2
 BYTE   W06
 BYTE   Gn1
 BYTE   N06  Gn2
 BYTE   W06
 BYTE   Gs1
 BYTE   N06  Gs2
 BYTE   W06
//  #04 //028   ----------------------------------------
 BYTE   N12  An2
 BYTE   N12  En3
 BYTE   N12  An1
 BYTE   N12  En2
 BYTE   W12
 BYTE   N06  An2
 BYTE   N06  En3
 BYTE   N06  An1
 BYTE   N06  En2
 BYTE   W06
 BYTE   N12  Fn2
 BYTE   N12  Cn3
 BYTE   N12  Fn1
 BYTE   N12  Cn2
 BYTE   W12
 BYTE   N06  Fn2
 BYTE   N06  Cn3
 BYTE   N06  Fn1
 BYTE   N06  Cn2
 BYTE   W06
 BYTE   N12  Gn2
 BYTE   N12  Dn3
 BYTE   N12  Gn1
 BYTE   N12  Dn2
 BYTE   W18
 BYTE   N06  Gn1
 BYTE   W06
 BYTE   Gn1
 BYTE   W06
 BYTE   Gn1
 BYTE   W06
 BYTE   Gn1
 BYTE   W06
 BYTE   Gn1
 BYTE   W06
 BYTE   Gn1
 BYTE   W06
 BYTE   Gn1
 BYTE   W96
//  #04 //029   ----------------------------------------
 BYTE   W96
//  #04 //030   ----------------------------------------
 BYTE   W96
//  #04 //031   ----------------------------------------
 BYTE   W96
//  #04 //032   ----------------------------------------
 BYTE   W06
 BYTE   N12  An2
 BYTE   N12  An1
 BYTE   N12  En3
 BYTE   N12  En2
 BYTE   W12
 BYTE   N06  An2
 BYTE   N06  An1
 BYTE   N06  En3
 BYTE   N06  En2
 BYTE   W06
 BYTE   Gn1
 BYTE   N06  Gn2
 BYTE   W06
 BYTE   An1
 BYTE   N06  An2
 BYTE   W06
 BYTE   Cn2
 BYTE   N06  Cn3
 BYTE   W06
 BYTE   Dn2
 BYTE   N06  Dn3
 BYTE   W06
 BYTE   N12  Gn2
 BYTE   N12  Gn1
 BYTE   N12  Dn2
 BYTE   N12  Dn3
 BYTE   W12
 BYTE   Gn2
 BYTE   N12  Gn1
 BYTE   N12  Dn2
 BYTE   N12  Dn3
 BYTE   W12
 BYTE   N06  En1
 BYTE   N06  En2
 BYTE   W06
 BYTE   Gn1
 BYTE   N06  Gn2
 BYTE   W06
 BYTE   Gn1
 BYTE   N06  Gn2
 BYTE   W06
 BYTE   En1
 BYTE   N06  En2
 BYTE   W06
//  #04 //033   ----------------------------------------
 BYTE   Gn1
 BYTE   N06  Gn2
 BYTE   W06
 BYTE   N12  An2
 BYTE   N12  An1
 BYTE   N12  En3
 BYTE   N12  En2
 BYTE   W12
 BYTE   N06  An2
 BYTE   N06  An1
 BYTE   N06  En3
 BYTE   N06  En2
 BYTE   W06
 BYTE   Gn1
 BYTE   N06  Gn2
 BYTE   W06
 BYTE   An1
 BYTE   N06  An2
 BYTE   W06
 BYTE   Cn2
 BYTE   N06  Cn3
 BYTE   W06
 BYTE   Dn2
 BYTE   N06  Dn3
 BYTE   W06
 BYTE   N12  Gn2
 BYTE   N12  Gn1
 BYTE   N12  Dn2
 BYTE   N12  Dn3
 BYTE   W12
 BYTE   Gn2
 BYTE   N12  Gn1
 BYTE   N12  Dn2
 BYTE   N12  Dn3
 BYTE   W12
 BYTE   N06  En1
 BYTE   N06  En2
 BYTE   W06
 BYTE   Gn1
 BYTE   N06  Gn2
 BYTE   W06
 BYTE   En1
 BYTE   N06  En2
 BYTE   W06
 BYTE   Gn1
 BYTE   N06  Gn2
 BYTE   W06
//  #04 //034   ----------------------------------------
 BYTE   Gs1
 BYTE   N06  Gs2
 BYTE   W06
 BYTE   N12  An2
 BYTE   N12  An1
 BYTE   N12  En3
 BYTE   N12  En2
 BYTE   W12
 BYTE   N06  An2
 BYTE   N06  An1
 BYTE   N06  En3
 BYTE   N06  En2
 BYTE   W06
 BYTE   Gn1
 BYTE   N06  Gn2
 BYTE   W06
 BYTE   An1
 BYTE   N06  An2
 BYTE   W06
 BYTE   Cn2
 BYTE   N06  Cn3
 BYTE   W06
 BYTE   Dn2
 BYTE   N06  Dn3
 BYTE   W06
 BYTE   N12  Gn2
 BYTE   N12  Gn1
 BYTE   N12  Dn2
 BYTE   N12  Dn3
 BYTE   W12
 BYTE   Gn2
 BYTE   N12  Gn1
 BYTE   N12  Dn2
 BYTE   N12  Dn3
 BYTE   W12
 BYTE   N06  En1
 BYTE   N06  En2
 BYTE   W06
 BYTE   Gn1
 BYTE   N06  Gn2
 BYTE   W06
 BYTE   Gn1
 BYTE   N06  Gn2
 BYTE   W06
 BYTE   En1
 BYTE   N06  En2
 BYTE   W06
//  #04 //035   ----------------------------------------
 BYTE   Gn1
 BYTE   N06  Gn2
 BYTE   W06
 BYTE   N12  An2
 BYTE   N12  An1
 BYTE   N12  En3
 BYTE   N12  En2
 BYTE   W12
 BYTE   N06  An2
 BYTE   N06  An1
 BYTE   N06  En3
 BYTE   N06  En2
 BYTE   W06
 BYTE   Gn1
 BYTE   N06  Gn2
 BYTE   W06
 BYTE   An1
 BYTE   N06  An2
 BYTE   W06
 BYTE   Cn2
 BYTE   N06  Cn3
 BYTE   W06
 BYTE   Dn2
 BYTE   N06  Dn3
 BYTE   W06
 BYTE   N12  Gn2
 BYTE   N12  Gn1
 BYTE   N12  Dn2
 BYTE   N12  Dn3
 BYTE   W12
 BYTE   Gn2
 BYTE   N12  Gn1
 BYTE   N12  Dn2
 BYTE   N12  Dn3
 BYTE   W12
 BYTE   N06  En1
 BYTE   N06  En2
 BYTE   W06
 BYTE   Gn1
 BYTE   N06  Gn2
 BYTE   W06
 BYTE   En1
 BYTE   N06  En2
 BYTE   W06
 BYTE   Gn1
 BYTE   N06  Gn2
 BYTE   W06
//  #04 //036   ----------------------------------------
 BYTE   Gs1
 BYTE   N06  Gs2
 BYTE   W06
 BYTE   N12  An2
 BYTE   N12  En3
 BYTE   N12  An1
 BYTE   N12  En2
 BYTE   W12
 BYTE   N06  An2
 BYTE   N06  En3
 BYTE   N06  An1
 BYTE   N06  En2
 BYTE   W06
 BYTE   N12  Fn2
 BYTE   N12  Cn3
 BYTE   N12  Fn1
 BYTE   N12  Cn2
 BYTE   W12
 BYTE   N06  Fn2
 BYTE   N06  Cn3
 BYTE   N06  Fn1
 BYTE   N06  Cn2
 BYTE   W06
 BYTE   N12  Gn2
 BYTE   N12  Dn3
 BYTE   N12  Gn1
 BYTE   N12  Dn2
 BYTE   W18
 BYTE   N06  Gn1
 BYTE   W06
 BYTE   Gn1
 BYTE   W06
 BYTE   Gn1
 BYTE   W06
 BYTE   Gn1
 BYTE   W06
 BYTE   Gn1
 BYTE   W06
 BYTE   Gn1
 BYTE   W06
//  #04 //037   ----------------------------------------
 BYTE   Gn1
 BYTE   W06
 BYTE   N12  An2
 BYTE   N12  En3
 BYTE   N12  An1
 BYTE   N12  En2
 BYTE   W12
 BYTE   N06  An2
 BYTE   N06  En3
 BYTE   N06  An1
 BYTE   N06  En2
 BYTE   W06
 BYTE   N12  Fn2
 BYTE   N12  Cn3
 BYTE   N12  Fn1
 BYTE   N12  Cn2
 BYTE   W12
 BYTE   N06  Fn2
 BYTE   N06  Cn3
 BYTE   N06  Fn1
 BYTE   N06  Cn2
 BYTE   W06
 BYTE   N12  Gn2
 BYTE   N12  Dn3
 BYTE   N12  Gn1
 BYTE   N12  Dn2
 BYTE   W18
 BYTE   N06  Gn1
 BYTE   W06
 BYTE   Gn1
 BYTE   W06
 BYTE   Gn1
 BYTE   W06
 BYTE   Gn1
 BYTE   W06
 BYTE   Gn1
 BYTE   W06
 BYTE   Gn1
 BYTE   W06
//  #04 //038   ----------------------------------------
 BYTE   Gn1
 BYTE   W96
//  #04 //039   ----------------------------------------
 BYTE   W96
//  #04 //040   ----------------------------------------
 BYTE   W96
//  #04 //041   ----------------------------------------
 BYTE   W96
//  #04 //042   ----------------------------------------
 BYTE   W06
 BYTE   En2
 BYTE   N06  En3
 BYTE   N06  Bn1
 BYTE   N06  Bn2
 BYTE   W06
 BYTE   N12  Gn2
 BYTE   N12  Gn3
 BYTE   N12  Dn2
 BYTE   N12  Dn3
 BYTE   W12
 BYTE   An2
 BYTE   N12  An3
 BYTE   N12  En2
 BYTE   N12  En3
 BYTE   W12
 BYTE   N06  Bn2  v076
 BYTE   N06  En3
 BYTE   N06  Bn1  v127
 BYTE   N06  En2  v076
 BYTE   W06
 BYTE   Dn3
 BYTE   N06  Gn3
 BYTE   N06  Dn2  v127
 BYTE   N06  Gn2  v076
 BYTE   W06
 BYTE   En3
 BYTE   N06  An3
 BYTE   N06  En2  v127
 BYTE   N06  An2  v076
 BYTE   W06
 BYTE   En2  v127
 BYTE   N06  En3
 BYTE   N06  Bn1
 BYTE   N06  Bn2
 BYTE   W06
 BYTE   N12  Gn2
 BYTE   N12  Gn3
 BYTE   N12  Dn2
 BYTE   N12  Dn3
 BYTE   W12
 BYTE   An2
 BYTE   N12  An3
 BYTE   N12  En2
 BYTE   N12  En3
 BYTE   W12
 BYTE   N06  Bn2  v076
 BYTE   N06  En3
 BYTE   N06  Bn1  v127
 BYTE   N06  En2  v076
 BYTE   W06
 BYTE   Dn3
 BYTE   N06  Gn3
 BYTE   N06  Dn2  v127
 BYTE   N06  Gn2  v076
 BYTE   W06
//  #04 //043   ----------------------------------------
 BYTE   En3
 BYTE   N06  An3
 BYTE   N06  En2  v127
 BYTE   N06  An2  v076
 BYTE   W06
 BYTE   An1  v127
 BYTE   W06
 BYTE   An1
 BYTE   W06
 BYTE   Cn2
 BYTE   W06
 BYTE   Cn2
 BYTE   W06
 BYTE   Bn1
 BYTE   W06
 BYTE   Bn1
 BYTE   W06
 BYTE   Gn1
 BYTE   W06
 BYTE   Gn1
 BYTE   W06
 BYTE   En1
 BYTE   W06
 BYTE   En1
 BYTE   W06
 BYTE   An1
 BYTE   W06
 BYTE   An1
 BYTE   W06
 BYTE   Gn1
 BYTE   W06
 BYTE   Gn1
 BYTE   W06
 BYTE   Dn1
 BYTE   W06
//  #04 //044   ----------------------------------------
 BYTE   Dn1
 BYTE   W06
 BYTE   En2
 BYTE   N06  En3
 BYTE   N06  Bn1
 BYTE   N06  Bn2
 BYTE   W06
 BYTE   N12  Gn2
 BYTE   N12  Gn3
 BYTE   N12  Dn2
 BYTE   N12  Dn3
 BYTE   W12
 BYTE   An2
 BYTE   N12  An3
 BYTE   N12  En2
 BYTE   N12  En3
 BYTE   W12
 BYTE   N06  Bn2  v076
 BYTE   N06  En3
 BYTE   N06  Bn1  v127
 BYTE   N06  En2  v076
 BYTE   W06
 BYTE   Dn3
 BYTE   N06  Gn3
 BYTE   N06  Dn2  v127
 BYTE   N06  Gn2  v076
 BYTE   W06
 BYTE   En3
 BYTE   N06  An3
 BYTE   N06  En2  v127
 BYTE   N06  An2  v076
 BYTE   W06
 BYTE   En2  v127
 BYTE   N06  En3
 BYTE   N06  Bn1
 BYTE   N06  Bn2
 BYTE   W06
 BYTE   N12  Gn2
 BYTE   N12  Gn3
 BYTE   N12  Dn2
 BYTE   N12  Dn3
 BYTE   W12
 BYTE   An2
 BYTE   N12  An3
 BYTE   N12  En2
 BYTE   N12  En3
 BYTE   W12
 BYTE   N06  Bn2  v076
 BYTE   N06  En3
 BYTE   N06  Bn1  v127
 BYTE   N06  En2  v076
 BYTE   W06
 BYTE   Dn3
 BYTE   N06  Gn3
 BYTE   N06  Dn2  v127
 BYTE   N06  Gn2  v076
 BYTE   W06
//  #04 //045   ----------------------------------------
 BYTE   En3
 BYTE   N06  An3
 BYTE   N06  En2  v127
 BYTE   N06  An2  v076
 BYTE   W06
 BYTE   An1  v127
 BYTE   W06
 BYTE   An1
 BYTE   W06
 BYTE   Cn2
 BYTE   W06
 BYTE   Cn2
 BYTE   W06
 BYTE   Bn1
 BYTE   W06
 BYTE   Bn1
 BYTE   W06
 BYTE   Gn1
 BYTE   W06
 BYTE   Gn1
 BYTE   W06
 BYTE   En1
 BYTE   W06
 BYTE   En1
 BYTE   W06
 BYTE   An1
 BYTE   W06
 BYTE   An1
 BYTE   W06
 BYTE   Gn1
 BYTE   W06
 BYTE   Gn1
 BYTE   W06
 BYTE   Dn1
 BYTE   W06
//  #04 //046   ----------------------------------------
 BYTE   Dn1
 BYTE   W06
 BYTE   An1
 BYTE   W06
 BYTE   An1
 BYTE   W06
 BYTE   Cn2
 BYTE   W06
 BYTE   Cn2
 BYTE   W06
 BYTE   Bn1
 BYTE   W06
 BYTE   Bn1
 BYTE   W06
 BYTE   Gn1
 BYTE   W06
 BYTE   Gn1
 BYTE   W06
 BYTE   En1
 BYTE   W06
 BYTE   En1
 BYTE   W06
 BYTE   An1
 BYTE   W06
 BYTE   An1
 BYTE   W06
 BYTE   Gn1
 BYTE   W06
 BYTE   Gn1
 BYTE   W06
 BYTE   Dn1
 BYTE   W06
//  #04 //047   ----------------------------------------
 BYTE   Dn1
 BYTE   W12
 BYTE   GoTo
  POIN2 Label_014B4638
 BYTE   FINE

//**************** Track 5 (Midi-Chn.4) ****************//

BattleToadsDoubleDragonLevel1_005:
//  #05 //000   ----------------------------------------
Label_014B3F88:
 BYTE   TEMPO   76*BattleToadsDoubleDragonLevel1_tbs/2
 BYTE   KEYSH   BattleToadsDoubleDragonLevel1_key+0
 BYTE   VOICE   29
 BYTE   VOL   25*BattleToadsDoubleDragonLevel1_mvl/mxv
 BYTE   PAN   c_v+63
 BYTE   W96
//  #05 //001   ----------------------------------------
 BYTE   W96
//  #05 //002   ----------------------------------------
 BYTE   W96
//  #05 //003   ----------------------------------------
 BYTE   W96
//  #05 //004   ----------------------------------------
 BYTE   W06
Label_014B3F97:
 BYTE   N12  An2  v127
 BYTE   N12  An1
 BYTE   N12  En3
 BYTE   N12  En2
 BYTE   W12
 BYTE   N06  An2
 BYTE   N06  An1
 BYTE   N06  En3
 BYTE   N06  En2
 BYTE   W06
 BYTE   Gn1
 BYTE   N06  Gn2
 BYTE   W06
 BYTE   An1
 BYTE   N06  An2
 BYTE   W06
 BYTE   Cn2
 BYTE   N06  Cn3
 BYTE   W06
 BYTE   Dn2
 BYTE   N06  Dn3
 BYTE   W06
 BYTE   N12  Gn2
 BYTE   N12  Gn1
 BYTE   N12  Dn2
 BYTE   N12  Dn3
 BYTE   W12
 BYTE   Gn2
 BYTE   N12  Gn1
 BYTE   N12  Dn2
 BYTE   N12  Dn3
 BYTE   W12
 BYTE   N06  En1
 BYTE   N06  En2
 BYTE   W06
 BYTE   Gn1
 BYTE   N06  Gn2
 BYTE   W06
 BYTE   Gn1
 BYTE   N06  Gn2
 BYTE   W06
 BYTE   En1
 BYTE   N06  En2
 BYTE   W06
//  #05 //005   ----------------------------------------
 BYTE   Gn1
 BYTE   N06  Gn2
 BYTE   W06
 BYTE   PEND 
Label_014B3FE1:
 BYTE   N12  An2  v127
 BYTE   N12  An1
 BYTE   N12  En3
 BYTE   N12  En2
 BYTE   W12
 BYTE   N06  An2
 BYTE   N06  An1
 BYTE   N06  En3
 BYTE   N06  En2
 BYTE   W06
 BYTE   Gn1
 BYTE   N06  Gn2
 BYTE   W06
 BYTE   An1
 BYTE   N06  An2
 BYTE   W06
 BYTE   Cn2
 BYTE   N06  Cn3
 BYTE   W06
 BYTE   Dn2
 BYTE   N06  Dn3
 BYTE   W06
 BYTE   N12  Gn2
 BYTE   N12  Gn1
 BYTE   N12  Dn2
 BYTE   N12  Dn3
 BYTE   W12
 BYTE   Gn2
 BYTE   N12  Gn1
 BYTE   N12  Dn2
 BYTE   N12  Dn3
 BYTE   W12
 BYTE   N06  En1
 BYTE   N06  En2
 BYTE   W06
 BYTE   Gn1
 BYTE   N06  Gn2
 BYTE   W06
 BYTE   En1
 BYTE   N06  En2
 BYTE   W06
 BYTE   Gn1
 BYTE   N06  Gn2
 BYTE   W06
//  #05 //006   ----------------------------------------
 BYTE   Gs1
 BYTE   N06  Gs2
 BYTE   W06
 BYTE   PEND 
//  #05 //007   ----------------------------------------
 BYTE   PATT
  POIN2 Label_014B3F97
//  #05 //008   ----------------------------------------
 BYTE   PATT
  POIN2 Label_014B3FE1
//  #05 //009   ----------------------------------------
Label_014B4035:
 BYTE   N12  An2  v127
 BYTE   N12  En3
 BYTE   N12  An1
 BYTE   N12  En2
 BYTE   W12
 BYTE   N06  An2
 BYTE   N06  En3
 BYTE   N06  An1
 BYTE   N06  En2
 BYTE   W06
 BYTE   N12  Fn2
 BYTE   N12  Cn3
 BYTE   N12  Fn1
 BYTE   N12  Cn2
 BYTE   W12
 BYTE   N06  Fn2
 BYTE   N06  Cn3
 BYTE   N06  Fn1
 BYTE   N06  Cn2
 BYTE   W06
 BYTE   N12  Gn2
 BYTE   N12  Dn3
 BYTE   N12  Gn1
 BYTE   N12  Dn2
 BYTE   W18
 BYTE   N06  Gn1
 BYTE   W06
 BYTE   Gn1
 BYTE   W06
 BYTE   Gn1
 BYTE   W06
 BYTE   Gn1
 BYTE   W06
 BYTE   Gn1
 BYTE   W06
 BYTE   Gn1
 BYTE   W06
 BYTE   Gn1
 BYTE   W96
//  #05 //010   ----------------------------------------
 BYTE   W96
//  #05 //011   ----------------------------------------
 BYTE   W96
//  #05 //012   ----------------------------------------
 BYTE   W96
//  #05 //013   ----------------------------------------
 BYTE   W06
 BYTE   PEND 
//  #05 //014   ----------------------------------------
 BYTE   PATT
  POIN2 Label_014B3F97
//  #05 //015   ----------------------------------------
 BYTE   PATT
  POIN2 Label_014B3FE1
//  #05 //016   ----------------------------------------
 BYTE   PATT
  POIN2 Label_014B3F97
//  #05 //017   ----------------------------------------
 BYTE   PATT
  POIN2 Label_014B3FE1
//  #05 //018   ----------------------------------------
 BYTE   N12  An2  v127
 BYTE   N12  En3
 BYTE   N12  An1
 BYTE   N12  En2
 BYTE   W12
 BYTE   N06  An2
 BYTE   N06  En3
 BYTE   N06  An1
 BYTE   N06  En2
 BYTE   W06
 BYTE   N12  Fn2
 BYTE   N12  Cn3
 BYTE   N12  Fn1
 BYTE   N12  Cn2
 BYTE   W12
 BYTE   N06  Fn2
 BYTE   N06  Cn3
 BYTE   N06  Fn1
 BYTE   N06  Cn2
 BYTE   W06
 BYTE   N12  Gn2
 BYTE   N12  Dn3
 BYTE   N12  Gn1
 BYTE   N12  Dn2
 BYTE   W18
 BYTE   N06  Gn1
 BYTE   W06
 BYTE   Gn1
 BYTE   W06
 BYTE   Gn1
 BYTE   W06
 BYTE   Gn1
 BYTE   W06
 BYTE   Gn1
 BYTE   W06
 BYTE   Gn1
 BYTE   W06
 BYTE   Gn1
 BYTE   W06
//  #05 //019   ----------------------------------------
 BYTE   PATT
  POIN2 Label_014B4035
//  #05 //020   ----------------------------------------
Label_014B40CD:
 BYTE   N06  En2  v127
 BYTE   N06  En3
 BYTE   N06  Bn1
 BYTE   N06  Bn2
 BYTE   W06
 BYTE   N12  Gn2
 BYTE   N12  Gn3
 BYTE   N12  Dn2
 BYTE   N12  Dn3
 BYTE   W12
 BYTE   An2
 BYTE   N12  An3
 BYTE   N12  En2
 BYTE   N12  En3
 BYTE   W12
 BYTE   N06  Bn2  v076
 BYTE   N06  En3
 BYTE   N06  Bn1  v127
 BYTE   N06  En2  v076
 BYTE   W06
 BYTE   Dn3
 BYTE   N06  Gn3
 BYTE   N06  Dn2  v127
 BYTE   N06  Gn2  v076
 BYTE   W06
 BYTE   En3
 BYTE   N06  An3
 BYTE   N06  En2  v127
 BYTE   N06  An2  v076
 BYTE   W06
 BYTE   En2  v127
 BYTE   N06  En3
 BYTE   N06  Bn1
 BYTE   N06  Bn2
 BYTE   W06
 BYTE   N12  Gn2
 BYTE   N12  Gn3
 BYTE   N12  Dn2
 BYTE   N12  Dn3
 BYTE   W12
 BYTE   An2
 BYTE   N12  An3
 BYTE   N12  En2
 BYTE   N12  En3
 BYTE   W12
 BYTE   N06  Bn2  v076
 BYTE   N06  En3
 BYTE   N06  Bn1  v127
 BYTE   N06  En2  v076
 BYTE   W06
 BYTE   Dn3
 BYTE   N06  Gn3
 BYTE   N06  Dn2  v127
 BYTE   N06  Gn2  v076
 BYTE   W06
 BYTE   En3
 BYTE   N06  An3
 BYTE   N06  En2  v127
 BYTE   N06  An2  v076
 BYTE   W06
 BYTE   PEND 
//  #05 //021   ----------------------------------------
Label_014B4143:
 BYTE   N06  An1  v127
 BYTE   W06
 BYTE   An1
 BYTE   W06
 BYTE   Cn2
 BYTE   W06
 BYTE   Cn2
 BYTE   W06
 BYTE   Bn1
 BYTE   W06
 BYTE   Bn1
 BYTE   W06
 BYTE   Gn1
 BYTE   W06
 BYTE   Gn1
 BYTE   W06
 BYTE   En1
 BYTE   W06
 BYTE   En1
 BYTE   W06
 BYTE   An1
 BYTE   W06
 BYTE   An1
 BYTE   W06
 BYTE   Gn1
 BYTE   W06
 BYTE   Gn1
 BYTE   W06
 BYTE   Dn1
 BYTE   W06
 BYTE   Dn1
 BYTE   W06
 BYTE   PEND 
//  #05 //022   ----------------------------------------
 BYTE   PATT
  POIN2 Label_014B40CD
//  #05 //023   ----------------------------------------
 BYTE   PATT
  POIN2 Label_014B4143
//  #05 //024   ----------------------------------------
 BYTE   N06  An1  v127
 BYTE   W06
 BYTE   An1
 BYTE   W06
 BYTE   Cn2
 BYTE   W06
 BYTE   Cn2
 BYTE   W06
 BYTE   Bn1
 BYTE   W06
 BYTE   Bn1
 BYTE   W06
 BYTE   Gn1
 BYTE   W06
 BYTE   Gn1
 BYTE   W06
 BYTE   En1
 BYTE   W06
 BYTE   En1
 BYTE   W06
 BYTE   An1
 BYTE   W06
 BYTE   An1
 BYTE   W06
 BYTE   Gn1
 BYTE   W06
 BYTE   Gn1
 BYTE   W06
 BYTE   Dn1
 BYTE   W06
 BYTE   PAN   c_v+63
 BYTE   N06  Dn1  v127
 BYTE   W06
//  #05 //025   ----------------------------------------
 BYTE   N12  An2
 BYTE   N12  An1
 BYTE   N12  En3
 BYTE   N12  En2
 BYTE   W12
 BYTE   N06  An2
 BYTE   N06  An1
 BYTE   N06  En3
 BYTE   N06  En2
 BYTE   W06
 BYTE   Gn1
 BYTE   N06  Gn2
 BYTE   W06
 BYTE   An1
 BYTE   N06  An2
 BYTE   W06
 BYTE   Cn2
 BYTE   N06  Cn3
 BYTE   W06
 BYTE   Dn2
 BYTE   N06  Dn3
 BYTE   W06
 BYTE   N12  Gn2
 BYTE   N12  Gn1
 BYTE   N12  Dn2
 BYTE   N12  Dn3
 BYTE   W12
 BYTE   Gn2
 BYTE   N12  Gn1
 BYTE   N12  Dn2
 BYTE   N12  Dn3
 BYTE   W12
 BYTE   N06  En1
 BYTE   N06  En2
 BYTE   W06
 BYTE   Gn1
 BYTE   N06  Gn2
 BYTE   W06
 BYTE   Gn1
 BYTE   N06  Gn2
 BYTE   W06
 BYTE   En1
 BYTE   N06  En2
 BYTE   W06
 BYTE   Gn1
 BYTE   N06  Gn2
 BYTE   W06
//  #05 //026   ----------------------------------------
 BYTE   N12  An2
 BYTE   N12  An1
 BYTE   N12  En3
 BYTE   N12  En2
 BYTE   W12
 BYTE   N06  An2
 BYTE   N06  An1
 BYTE   N06  En3
 BYTE   N06  En2
 BYTE   W06
 BYTE   Gn1
 BYTE   N06  Gn2
 BYTE   W06
 BYTE   An1
 BYTE   N06  An2
 BYTE   W06
 BYTE   Cn2
 BYTE   N06  Cn3
 BYTE   W06
 BYTE   Dn2
 BYTE   N06  Dn3
 BYTE   W06
 BYTE   N12  Gn2
 BYTE   N12  Gn1
 BYTE   N12  Dn2
 BYTE   N12  Dn3
 BYTE   W12
 BYTE   Gn2
 BYTE   N12  Gn1
 BYTE   N12  Dn2
 BYTE   N12  Dn3
 BYTE   W12
 BYTE   N06  En1
 BYTE   N06  En2
 BYTE   W06
 BYTE   Gn1
 BYTE   N06  Gn2
 BYTE   W06
 BYTE   En1
 BYTE   N06  En2
 BYTE   W06
 BYTE   Gn1
 BYTE   N06  Gn2
 BYTE   W06
 BYTE   Gs1
 BYTE   N06  Gs2
 BYTE   W06
//  #05 //027   ----------------------------------------
 BYTE   N12  An2
 BYTE   N12  An1
 BYTE   N12  En3
 BYTE   N12  En2
 BYTE   W12
 BYTE   N06  An2
 BYTE   N06  An1
 BYTE   N06  En3
 BYTE   N06  En2
 BYTE   W06
 BYTE   Gn1
 BYTE   N06  Gn2
 BYTE   W06
 BYTE   An1
 BYTE   N06  An2
 BYTE   W06
 BYTE   Cn2
 BYTE   N06  Cn3
 BYTE   W06
 BYTE   Dn2
 BYTE   N06  Dn3
 BYTE   W06
 BYTE   N12  Gn2
 BYTE   N12  Gn1
 BYTE   N12  Dn2
 BYTE   N12  Dn3
 BYTE   W12
 BYTE   Gn2
 BYTE   N12  Gn1
 BYTE   N12  Dn2
 BYTE   N12  Dn3
 BYTE   W12
 BYTE   N06  En1
 BYTE   N06  En2
 BYTE   W06
 BYTE   Gn1
 BYTE   N06  Gn2
 BYTE   W06
 BYTE   Gn1
 BYTE   N06  Gn2
 BYTE   W06
 BYTE   En1
 BYTE   N06  En2
 BYTE   W06
 BYTE   Gn1
 BYTE   N06  Gn2
 BYTE   W06
//  #05 //028   ----------------------------------------
 BYTE   N12  An2
 BYTE   N12  An1
 BYTE   N12  En3
 BYTE   N12  En2
 BYTE   W12
 BYTE   N06  An2
 BYTE   N06  An1
 BYTE   N06  En3
 BYTE   N06  En2
 BYTE   W06
 BYTE   Gn1
 BYTE   N06  Gn2
 BYTE   W06
 BYTE   An1
 BYTE   N06  An2
 BYTE   W06
 BYTE   Cn2
 BYTE   N06  Cn3
 BYTE   W06
 BYTE   Dn2
 BYTE   N06  Dn3
 BYTE   W06
 BYTE   N12  Gn2
 BYTE   N12  Gn1
 BYTE   N12  Dn2
 BYTE   N12  Dn3
 BYTE   W12
 BYTE   Gn2
 BYTE   N12  Gn1
 BYTE   N12  Dn2
 BYTE   N12  Dn3
 BYTE   W12
 BYTE   N06  En1
 BYTE   N06  En2
 BYTE   W06
 BYTE   Gn1
 BYTE   N06  Gn2
 BYTE   W06
 BYTE   En1
 BYTE   N06  En2
 BYTE   W06
 BYTE   Gn1
 BYTE   N06  Gn2
 BYTE   W06
 BYTE   Gs1
 BYTE   N06  Gs2
 BYTE   W06
//  #05 //029   ----------------------------------------
 BYTE   N12  An2
 BYTE   N12  En3
 BYTE   N12  An1
 BYTE   N12  En2
 BYTE   W12
 BYTE   N06  An2
 BYTE   N06  En3
 BYTE   N06  An1
 BYTE   N06  En2
 BYTE   W06
 BYTE   N12  Fn2
 BYTE   N12  Cn3
 BYTE   N12  Fn1
 BYTE   N12  Cn2
 BYTE   W12
 BYTE   N06  Fn2
 BYTE   N06  Cn3
 BYTE   N06  Fn1
 BYTE   N06  Cn2
 BYTE   W06
 BYTE   N12  Gn2
 BYTE   N12  Dn3
 BYTE   N12  Gn1
 BYTE   N12  Dn2
 BYTE   W18
 BYTE   N06  Gn1
 BYTE   W06
 BYTE   Gn1
 BYTE   W06
 BYTE   Gn1
 BYTE   W06
 BYTE   Gn1
 BYTE   W06
 BYTE   Gn1
 BYTE   W06
 BYTE   Gn1
 BYTE   W06
 BYTE   Gn1
 BYTE   W96
//  #05 //030   ----------------------------------------
 BYTE   W96
//  #05 //031   ----------------------------------------
 BYTE   W96
//  #05 //032   ----------------------------------------
 BYTE   W96
//  #05 //033   ----------------------------------------
 BYTE   W06
 BYTE   N12  An2
 BYTE   N12  An1
 BYTE   N12  En3
 BYTE   N12  En2
 BYTE   W12
 BYTE   N06  An2
 BYTE   N06  An1
 BYTE   N06  En3
 BYTE   N06  En2
 BYTE   W06
 BYTE   Gn1
 BYTE   N06  Gn2
 BYTE   W06
 BYTE   An1
 BYTE   N06  An2
 BYTE   W06
 BYTE   Cn2
 BYTE   N06  Cn3
 BYTE   W06
 BYTE   Dn2
 BYTE   N06  Dn3
 BYTE   W06
 BYTE   N12  Gn2
 BYTE   N12  Gn1
 BYTE   N12  Dn2
 BYTE   N12  Dn3
 BYTE   W12
 BYTE   Gn2
 BYTE   N12  Gn1
 BYTE   N12  Dn2
 BYTE   N12  Dn3
 BYTE   W12
 BYTE   N06  En1
 BYTE   N06  En2
 BYTE   W06
 BYTE   Gn1
 BYTE   N06  Gn2
 BYTE   W06
 BYTE   Gn1
 BYTE   N06  Gn2
 BYTE   W06
 BYTE   En1
 BYTE   N06  En2
 BYTE   W06
//  #05 //034   ----------------------------------------
 BYTE   Gn1
 BYTE   N06  Gn2
 BYTE   W06
 BYTE   N12  An2
 BYTE   N12  An1
 BYTE   N12  En3
 BYTE   N12  En2
 BYTE   W12
 BYTE   N06  An2
 BYTE   N06  An1
 BYTE   N06  En3
 BYTE   N06  En2
 BYTE   W06
 BYTE   Gn1
 BYTE   N06  Gn2
 BYTE   W06
 BYTE   An1
 BYTE   N06  An2
 BYTE   W06
 BYTE   Cn2
 BYTE   N06  Cn3
 BYTE   W06
 BYTE   Dn2
 BYTE   N06  Dn3
 BYTE   W06
 BYTE   N12  Gn2
 BYTE   N12  Gn1
 BYTE   N12  Dn2
 BYTE   N12  Dn3
 BYTE   W12
 BYTE   Gn2
 BYTE   N12  Gn1
 BYTE   N12  Dn2
 BYTE   N12  Dn3
 BYTE   W12
 BYTE   N06  En1
 BYTE   N06  En2
 BYTE   W06
 BYTE   Gn1
 BYTE   N06  Gn2
 BYTE   W06
 BYTE   En1
 BYTE   N06  En2
 BYTE   W06
 BYTE   Gn1
 BYTE   N06  Gn2
 BYTE   W06
//  #05 //035   ----------------------------------------
 BYTE   Gs1
 BYTE   N06  Gs2
 BYTE   W06
 BYTE   N12  An2
 BYTE   N12  An1
 BYTE   N12  En3
 BYTE   N12  En2
 BYTE   W12
 BYTE   N06  An2
 BYTE   N06  An1
 BYTE   N06  En3
 BYTE   N06  En2
 BYTE   W06
 BYTE   Gn1
 BYTE   N06  Gn2
 BYTE   W06
 BYTE   An1
 BYTE   N06  An2
 BYTE   W06
 BYTE   Cn2
 BYTE   N06  Cn3
 BYTE   W06
 BYTE   Dn2
 BYTE   N06  Dn3
 BYTE   W06
 BYTE   N12  Gn2
 BYTE   N12  Gn1
 BYTE   N12  Dn2
 BYTE   N12  Dn3
 BYTE   W12
 BYTE   Gn2
 BYTE   N12  Gn1
 BYTE   N12  Dn2
 BYTE   N12  Dn3
 BYTE   W12
 BYTE   N06  En1
 BYTE   N06  En2
 BYTE   W06
 BYTE   Gn1
 BYTE   N06  Gn2
 BYTE   W06
 BYTE   Gn1
 BYTE   N06  Gn2
 BYTE   W06
 BYTE   En1
 BYTE   N06  En2
 BYTE   W06
//  #05 //036   ----------------------------------------
 BYTE   Gn1
 BYTE   N06  Gn2
 BYTE   W06
 BYTE   N12  An2
 BYTE   N12  An1
 BYTE   N12  En3
 BYTE   N12  En2
 BYTE   W12
 BYTE   N06  An2
 BYTE   N06  An1
 BYTE   N06  En3
 BYTE   N06  En2
 BYTE   W06
 BYTE   Gn1
 BYTE   N06  Gn2
 BYTE   W06
 BYTE   An1
 BYTE   N06  An2
 BYTE   W06
 BYTE   Cn2
 BYTE   N06  Cn3
 BYTE   W06
 BYTE   Dn2
 BYTE   N06  Dn3
 BYTE   W06
 BYTE   N12  Gn2
 BYTE   N12  Gn1
 BYTE   N12  Dn2
 BYTE   N12  Dn3
 BYTE   W12
 BYTE   Gn2
 BYTE   N12  Gn1
 BYTE   N12  Dn2
 BYTE   N12  Dn3
 BYTE   W12
 BYTE   N06  En1
 BYTE   N06  En2
 BYTE   W06
 BYTE   Gn1
 BYTE   N06  Gn2
 BYTE   W06
 BYTE   En1
 BYTE   N06  En2
 BYTE   W06
 BYTE   Gn1
 BYTE   N06  Gn2
 BYTE   W06
//  #05 //037   ----------------------------------------
 BYTE   Gs1
 BYTE   N06  Gs2
 BYTE   W06
 BYTE   N12  An2
 BYTE   N12  En3
 BYTE   N12  An1
 BYTE   N12  En2
 BYTE   W12
 BYTE   N06  An2
 BYTE   N06  En3
 BYTE   N06  An1
 BYTE   N06  En2
 BYTE   W06
 BYTE   N12  Fn2
 BYTE   N12  Cn3
 BYTE   N12  Fn1
 BYTE   N12  Cn2
 BYTE   W12
 BYTE   N06  Fn2
 BYTE   N06  Cn3
 BYTE   N06  Fn1
 BYTE   N06  Cn2
 BYTE   W06
 BYTE   N12  Gn2
 BYTE   N12  Dn3
 BYTE   N12  Gn1
 BYTE   N12  Dn2
 BYTE   W18
 BYTE   N06  Gn1
 BYTE   W06
 BYTE   Gn1
 BYTE   W06
 BYTE   Gn1
 BYTE   W06
 BYTE   Gn1
 BYTE   W06
 BYTE   Gn1
 BYTE   W06
 BYTE   Gn1
 BYTE   W06
//  #05 //038   ----------------------------------------
 BYTE   Gn1
 BYTE   W06
 BYTE   N12  An2
 BYTE   N12  En3
 BYTE   N12  An1
 BYTE   N12  En2
 BYTE   W12
 BYTE   N06  An2
 BYTE   N06  En3
 BYTE   N06  An1
 BYTE   N06  En2
 BYTE   W06
 BYTE   N12  Fn2
 BYTE   N12  Cn3
 BYTE   N12  Fn1
 BYTE   N12  Cn2
 BYTE   W12
 BYTE   N06  Fn2
 BYTE   N06  Cn3
 BYTE   N06  Fn1
 BYTE   N06  Cn2
 BYTE   W06
 BYTE   N12  Gn2
 BYTE   N12  Dn3
 BYTE   N12  Gn1
 BYTE   N12  Dn2
 BYTE   W18
 BYTE   N06  Gn1
 BYTE   W06
 BYTE   Gn1
 BYTE   W06
 BYTE   Gn1
 BYTE   W06
 BYTE   Gn1
 BYTE   W06
 BYTE   Gn1
 BYTE   W06
 BYTE   Gn1
 BYTE   W06
//  #05 //039   ----------------------------------------
 BYTE   Gn1
 BYTE   W96
//  #05 //040   ----------------------------------------
 BYTE   W96
//  #05 //041   ----------------------------------------
 BYTE   W96
//  #05 //042   ----------------------------------------
 BYTE   W96
//  #05 //043   ----------------------------------------
 BYTE   W06
 BYTE   En2
 BYTE   N06  En3
 BYTE   N06  Bn1
 BYTE   N06  Bn2
 BYTE   W06
 BYTE   N12  Gn2
 BYTE   N12  Gn3
 BYTE   N12  Dn2
 BYTE   N12  Dn3
 BYTE   W12
 BYTE   An2
 BYTE   N12  An3
 BYTE   N12  En2
 BYTE   N12  En3
 BYTE   W12
 BYTE   N06  Bn2  v076
 BYTE   N06  En3
 BYTE   N06  Bn1  v127
 BYTE   N06  En2  v076
 BYTE   W06
 BYTE   Dn3
 BYTE   N06  Gn3
 BYTE   N06  Dn2  v127
 BYTE   N06  Gn2  v076
 BYTE   W06
 BYTE   En3
 BYTE   N06  An3
 BYTE   N06  En2  v127
 BYTE   N06  An2  v076
 BYTE   W06
 BYTE   En2  v127
 BYTE   N06  En3
 BYTE   N06  Bn1
 BYTE   N06  Bn2
 BYTE   W06
 BYTE   N12  Gn2
 BYTE   N12  Gn3
 BYTE   N12  Dn2
 BYTE   N12  Dn3
 BYTE   W12
 BYTE   An2
 BYTE   N12  An3
 BYTE   N12  En2
 BYTE   N12  En3
 BYTE   W12
 BYTE   N06  Bn2  v076
 BYTE   N06  En3
 BYTE   N06  Bn1  v127
 BYTE   N06  En2  v076
 BYTE   W06
 BYTE   Dn3
 BYTE   N06  Gn3
 BYTE   N06  Dn2  v127
 BYTE   N06  Gn2  v076
 BYTE   W06
//  #05 //044   ----------------------------------------
 BYTE   En3
 BYTE   N06  An3
 BYTE   N06  En2  v127
 BYTE   N06  An2  v076
 BYTE   W06
 BYTE   An1  v127
 BYTE   W06
 BYTE   An1
 BYTE   W06
 BYTE   Cn2
 BYTE   W06
 BYTE   Cn2
 BYTE   W06
 BYTE   Bn1
 BYTE   W06
 BYTE   Bn1
 BYTE   W06
 BYTE   Gn1
 BYTE   W06
 BYTE   Gn1
 BYTE   W06
 BYTE   En1
 BYTE   W06
 BYTE   En1
 BYTE   W06
 BYTE   An1
 BYTE   W06
 BYTE   An1
 BYTE   W06
 BYTE   Gn1
 BYTE   W06
 BYTE   Gn1
 BYTE   W06
 BYTE   Dn1
 BYTE   W06
//  #05 //045   ----------------------------------------
 BYTE   Dn1
 BYTE   W06
 BYTE   En2
 BYTE   N06  En3
 BYTE   N06  Bn1
 BYTE   N06  Bn2
 BYTE   W06
 BYTE   N12  Gn2
 BYTE   N12  Gn3
 BYTE   N12  Dn2
 BYTE   N12  Dn3
 BYTE   W12
 BYTE   An2
 BYTE   N12  An3
 BYTE   N12  En2
 BYTE   N12  En3
 BYTE   W12
 BYTE   N06  Bn2  v076
 BYTE   N06  En3
 BYTE   N06  Bn1  v127
 BYTE   N06  En2  v076
 BYTE   W06
 BYTE   Dn3
 BYTE   N06  Gn3
 BYTE   N06  Dn2  v127
 BYTE   N06  Gn2  v076
 BYTE   W06
 BYTE   En3
 BYTE   N06  An3
 BYTE   N06  En2  v127
 BYTE   N06  An2  v076
 BYTE   W06
 BYTE   En2  v127
 BYTE   N06  En3
 BYTE   N06  Bn1
 BYTE   N06  Bn2
 BYTE   W06
 BYTE   N12  Gn2
 BYTE   N12  Gn3
 BYTE   N12  Dn2
 BYTE   N12  Dn3
 BYTE   W12
 BYTE   An2
 BYTE   N12  An3
 BYTE   N12  En2
 BYTE   N12  En3
 BYTE   W12
 BYTE   N06  Bn2  v076
 BYTE   N06  En3
 BYTE   N06  Bn1  v127
 BYTE   N06  En2  v076
 BYTE   W06
 BYTE   Dn3
 BYTE   N06  Gn3
 BYTE   N06  Dn2  v127
 BYTE   N06  Gn2  v076
 BYTE   W06
//  #05 //046   ----------------------------------------
 BYTE   En3
 BYTE   N06  An3
 BYTE   N06  En2  v127
 BYTE   N06  An2  v076
 BYTE   W06
 BYTE   An1  v127
 BYTE   W06
 BYTE   An1
 BYTE   W06
 BYTE   Cn2
 BYTE   W06
 BYTE   Cn2
 BYTE   W06
 BYTE   Bn1
 BYTE   W06
 BYTE   Bn1
 BYTE   W06
 BYTE   Gn1
 BYTE   W06
 BYTE   Gn1
 BYTE   W06
 BYTE   En1
 BYTE   W06
 BYTE   En1
 BYTE   W06
 BYTE   An1
 BYTE   W06
 BYTE   An1
 BYTE   W06
 BYTE   Gn1
 BYTE   W06
 BYTE   Gn1
 BYTE   W06
 BYTE   Dn1
 BYTE   W06
//  #05 //047   ----------------------------------------
 BYTE   Dn1
 BYTE   W06
 BYTE   An1
 BYTE   W06
 BYTE   An1
 BYTE   W06
 BYTE   Cn2
 BYTE   W06
 BYTE   Cn2
 BYTE   W06
 BYTE   Bn1
 BYTE   W06
 BYTE   Bn1
 BYTE   W06
 BYTE   Gn1
 BYTE   W06
 BYTE   Gn1
 BYTE   W06
 BYTE   En1
 BYTE   W06
 BYTE   En1
 BYTE   W06
 BYTE   An1
 BYTE   W06
 BYTE   An1
 BYTE   W06
 BYTE   Gn1
 BYTE   W06
 BYTE   Gn1
 BYTE   W06
 BYTE   Dn1
 BYTE   W06
//  #05 //048   ----------------------------------------
 BYTE   Dn1
 BYTE   W06
 BYTE   GoTo
  POIN2 Label_014B3F88
 BYTE   FINE

//**************** Track 6 (Midi-Chn.5) ****************//

BattleToadsDoubleDragonLevel1_006:
//  #06 //000   ----------------------------------------
Label_014B58C0:
 BYTE   TEMPO   76*BattleToadsDoubleDragonLevel1_tbs/2
 BYTE   KEYSH   BattleToadsDoubleDragonLevel1_key+0
 BYTE   VOICE   52
 BYTE   VOL   35*BattleToadsDoubleDragonLevel1_mvl/mxv
 BYTE   PAN   c_v-64
 BYTE   W96
//  #06 //001   ----------------------------------------
 BYTE   W96
//  #06 //002   ----------------------------------------
 BYTE   W96
//  #06 //003   ----------------------------------------
 BYTE   W96
//  #06 //004   ----------------------------------------
 BYTE   W96
//  #06 //005   ----------------------------------------
 BYTE   W96
//  #06 //006   ----------------------------------------
 BYTE   W96
//  #06 //007   ----------------------------------------
 BYTE   W96
//  #06 //008   ----------------------------------------
 BYTE   W96
//  #06 //009   ----------------------------------------
 BYTE   W12
Label_014B58D4:
 BYTE   N06  En3  v127
 BYTE   W06
 BYTE   An3
 BYTE   W06
 BYTE   Cn4
 BYTE   W06
 BYTE   Bn3
 BYTE   W06
 BYTE   Cn4
 BYTE   W06
 BYTE   Bn3
 BYTE   W06
 BYTE   N12  Gn3
 BYTE   W12
 BYTE   N06  Bn2
 BYTE   W06
 BYTE   Dn3
 BYTE   W06
 BYTE   Gn3
 BYTE   W06
 BYTE   Fs3
 BYTE   W06
 BYTE   Gn3
 BYTE   W06
 BYTE   Fs3
 BYTE   W06
//  #06 //010   ----------------------------------------
 BYTE   N12  Dn3
 BYTE   W12
 BYTE   PEND 
Label_014B58F6:
 BYTE   N06  Dn3  v127
 BYTE   W06
 BYTE   Fn3
 BYTE   W06
 BYTE   As3
 BYTE   W06
 BYTE   An3
 BYTE   W06
 BYTE   Fn3
 BYTE   W06
 BYTE   Dn3
 BYTE   W06
 BYTE   N12  Cn3
 BYTE   W12
 BYTE   N06
 BYTE   W06
 BYTE   Dn3
 BYTE   W06
 BYTE   N12  Fn3
 BYTE   W12
 BYTE   N06  Dn3
 BYTE   W06
 BYTE   Fn3
 BYTE   W06
//  #06 //011   ----------------------------------------
 BYTE   N12  Gn3
 BYTE   W12
 BYTE   PEND 
//  #06 //012   ----------------------------------------
 BYTE   PATT
  POIN2 Label_014B58D4
//  #06 //013   ----------------------------------------
 BYTE   N06  Dn3  v127
 BYTE   W06
 BYTE   Fn3
 BYTE   W06
 BYTE   As3
 BYTE   W06
 BYTE   An3
 BYTE   W06
 BYTE   Fn3
 BYTE   W06
 BYTE   Dn3
 BYTE   W06
 BYTE   N12  Cn3
 BYTE   W12
 BYTE   N06
 BYTE   W06
 BYTE   Dn3
 BYTE   W06
 BYTE   N12  Fn3
 BYTE   W12
 BYTE   N06  Dn3
 BYTE   W06
 BYTE   Fn3
 BYTE   W06
 BYTE   Gn3
 BYTE   W96
//  #06 //014   ----------------------------------------
 BYTE   W96
//  #06 //015   ----------------------------------------
 BYTE   W96
//  #06 //016   ----------------------------------------
 BYTE   W96
//  #06 //017   ----------------------------------------
 BYTE   W96
//  #06 //018   ----------------------------------------
 BYTE   W96
//  #06 //019   ----------------------------------------
 BYTE   W12
//  #06 //020   ----------------------------------------
 BYTE   PATT
  POIN2 Label_014B58D4
//  #06 //021   ----------------------------------------
 BYTE   PATT
  POIN2 Label_014B58F6
//  #06 //022   ----------------------------------------
 BYTE   PATT
  POIN2 Label_014B58D4
//  #06 //023   ----------------------------------------
 BYTE   N06  Dn3  v127
 BYTE   W06
 BYTE   Fn3
 BYTE   W06
 BYTE   As3
 BYTE   W06
 BYTE   An3
 BYTE   W06
 BYTE   Fn3
 BYTE   W06
 BYTE   Dn3
 BYTE   W06
 BYTE   N12  Cn3
 BYTE   W12
 BYTE   N06
 BYTE   W06
 BYTE   Dn3
 BYTE   W06
 BYTE   N12  Fn3
 BYTE   W12
 BYTE   N06  Dn3
 BYTE   W06
 BYTE   Fn3
 BYTE   W06
 BYTE   Gn3
 BYTE   W96
//  #06 //024   ----------------------------------------
 BYTE   W96
//  #06 //025   ----------------------------------------
 BYTE   W96
//  #06 //026   ----------------------------------------
 BYTE   W96
//  #06 //027   ----------------------------------------
 BYTE   VOL   35*BattleToadsDoubleDragonLevel1_mvl/mxv
 BYTE   PAN   c_v-64
 BYTE   W96
//  #06 //028   ----------------------------------------
 BYTE   W96
//  #06 //029   ----------------------------------------
 BYTE   W96
//  #06 //030   ----------------------------------------
 BYTE   W96
//  #06 //031   ----------------------------------------
 BYTE   W96
//  #06 //032   ----------------------------------------
 BYTE   W96
//  #06 //033   ----------------------------------------
 BYTE   W12
 BYTE   N06  En3  v127
 BYTE   W06
 BYTE   An3
 BYTE   W06
 BYTE   Cn4
 BYTE   W06
 BYTE   Bn3
 BYTE   W06
 BYTE   Cn4
 BYTE   W06
 BYTE   Bn3
 BYTE   W06
 BYTE   N12  Gn3
 BYTE   W12
 BYTE   N06  Bn2
 BYTE   W06
 BYTE   Dn3
 BYTE   W06
 BYTE   Gn3
 BYTE   W06
 BYTE   Fs3
 BYTE   W06
 BYTE   Gn3
 BYTE   W06
 BYTE   Fs3
 BYTE   W06
//  #06 //034   ----------------------------------------
 BYTE   N12  Dn3
 BYTE   W12
 BYTE   N06
 BYTE   W06
 BYTE   Fn3
 BYTE   W06
 BYTE   As3
 BYTE   W06
 BYTE   An3
 BYTE   W06
 BYTE   Fn3
 BYTE   W06
 BYTE   Dn3
 BYTE   W06
 BYTE   N12  Cn3
 BYTE   W12
 BYTE   N06
 BYTE   W06
 BYTE   Dn3
 BYTE   W06
 BYTE   N12  Fn3
 BYTE   W12
 BYTE   N06  Dn3
 BYTE   W06
 BYTE   Fn3
 BYTE   W06
//  #06 //035   ----------------------------------------
 BYTE   N12  Gn3
 BYTE   W12
 BYTE   N06  En3
 BYTE   W06
 BYTE   An3
 BYTE   W06
 BYTE   Cn4
 BYTE   W06
 BYTE   Bn3
 BYTE   W06
 BYTE   Cn4
 BYTE   W06
 BYTE   Bn3
 BYTE   W06
 BYTE   N12  Gn3
 BYTE   W12
 BYTE   N06  Bn2
 BYTE   W06
 BYTE   Dn3
 BYTE   W06
 BYTE   Gn3
 BYTE   W06
 BYTE   Fs3
 BYTE   W06
 BYTE   Gn3
 BYTE   W06
 BYTE   Fs3
 BYTE   W06
//  #06 //036   ----------------------------------------
 BYTE   N12  Dn3
 BYTE   W12
 BYTE   N06
 BYTE   W06
 BYTE   Fn3
 BYTE   W06
 BYTE   As3
 BYTE   W06
 BYTE   An3
 BYTE   W06
 BYTE   Fn3
 BYTE   W06
 BYTE   Dn3
 BYTE   W06
 BYTE   N12  Cn3
 BYTE   W12
 BYTE   N06
 BYTE   W06
 BYTE   Dn3
 BYTE   W06
 BYTE   N12  Fn3
 BYTE   W12
 BYTE   N06  Dn3
 BYTE   W06
 BYTE   Fn3
 BYTE   W06
//  #06 //037   ----------------------------------------
 BYTE   Gn3
 BYTE   W96
//  #06 //038   ----------------------------------------
 BYTE   W96
//  #06 //039   ----------------------------------------
 BYTE   W96
//  #06 //040   ----------------------------------------
 BYTE   W96
//  #06 //041   ----------------------------------------
 BYTE   W96
//  #06 //042   ----------------------------------------
 BYTE   W96
//  #06 //043   ----------------------------------------
 BYTE   W12
 BYTE   En3
 BYTE   W06
 BYTE   An3
 BYTE   W06
 BYTE   Cn4
 BYTE   W06
 BYTE   Bn3
 BYTE   W06
 BYTE   Cn4
 BYTE   W06
 BYTE   Bn3
 BYTE   W06
 BYTE   N12  Gn3
 BYTE   W12
 BYTE   N06  Bn2
 BYTE   W06
 BYTE   Dn3
 BYTE   W06
 BYTE   Gn3
 BYTE   W06
 BYTE   Fs3
 BYTE   W06
 BYTE   Gn3
 BYTE   W06
 BYTE   Fs3
 BYTE   W06
//  #06 //044   ----------------------------------------
 BYTE   N12  Dn3
 BYTE   W12
 BYTE   N06
 BYTE   W06
 BYTE   Fn3
 BYTE   W06
 BYTE   As3
 BYTE   W06
 BYTE   An3
 BYTE   W06
 BYTE   Fn3
 BYTE   W06
 BYTE   Dn3
 BYTE   W06
 BYTE   N12  Cn3
 BYTE   W12
 BYTE   N06
 BYTE   W06
 BYTE   Dn3
 BYTE   W06
 BYTE   N12  Fn3
 BYTE   W12
 BYTE   N06  Dn3
 BYTE   W06
 BYTE   Fn3
 BYTE   W06
//  #06 //045   ----------------------------------------
 BYTE   N12  Gn3
 BYTE   W12
 BYTE   N06  En3
 BYTE   W06
 BYTE   An3
 BYTE   W06
 BYTE   Cn4
 BYTE   W06
 BYTE   Bn3
 BYTE   W06
 BYTE   Cn4
 BYTE   W06
 BYTE   Bn3
 BYTE   W06
 BYTE   N12  Gn3
 BYTE   W12
 BYTE   N06  Bn2
 BYTE   W06
 BYTE   Dn3
 BYTE   W06
 BYTE   Gn3
 BYTE   W06
 BYTE   Fs3
 BYTE   W06
 BYTE   Gn3
 BYTE   W06
 BYTE   Fs3
 BYTE   W06
//  #06 //046   ----------------------------------------
 BYTE   N12  Dn3
 BYTE   W12
 BYTE   N06
 BYTE   W06
 BYTE   Fn3
 BYTE   W06
 BYTE   As3
 BYTE   W06
 BYTE   An3
 BYTE   W06
 BYTE   Fn3
 BYTE   W06
 BYTE   Dn3
 BYTE   W06
 BYTE   N12  Cn3
 BYTE   W12
 BYTE   N06
 BYTE   W06
 BYTE   Dn3
 BYTE   W06
 BYTE   N12  Fn3
 BYTE   W12
 BYTE   N06  Dn3
 BYTE   W06
 BYTE   Fn3
 BYTE   W06
//  #06 //047   ----------------------------------------
 BYTE   Gn3
 BYTE   W96
//  #06 //048   ----------------------------------------
 BYTE   W96
//  #06 //049   ----------------------------------------
 BYTE   W96
//  #06 //050   ----------------------------------------
 BYTE   W96
//  #06 //051   ----------------------------------------
 BYTE   W96
//  #06 //052   ----------------------------------------
 BYTE   W06
 BYTE   GoTo
  POIN2 Label_014B58C0
 BYTE   FINE

//**************** Track 7 (Midi-Chn.6) ****************//

BattleToadsDoubleDragonLevel1_007:
//  #07 //000   ----------------------------------------
Label_014B6980:
 BYTE   TEMPO   76*BattleToadsDoubleDragonLevel1_tbs/2
 BYTE   KEYSH   BattleToadsDoubleDragonLevel1_key+0
 BYTE   VOICE   127
 BYTE   VOL   58*BattleToadsDoubleDragonLevel1_mvl/mxv
 BYTE   N03  Fs1  v127
 BYTE   N06  Cn1
 BYTE   W03
 BYTE   N03  Gs1
 BYTE   W03
 BYTE   As1
 BYTE   W03
 BYTE   Gs1
 BYTE   W03
 BYTE   Fs1
 BYTE   N06  Cn1
 BYTE   W03
 BYTE   N03  Gs1
 BYTE   W03
 BYTE   As1
 BYTE   W03
 BYTE   Gs1
 BYTE   W03
 BYTE   Fs1
 BYTE   N06  Cn1
 BYTE   W03
 BYTE   N03  Gs1
 BYTE   W03
 BYTE   As1
 BYTE   W03
 BYTE   Gs1
 BYTE   W03
 BYTE   Fs1
 BYTE   N06  Cn1
 BYTE   W03
 BYTE   N03  Gs1
 BYTE   W03
 BYTE   As1
 BYTE   W03
 BYTE   Gs1
 BYTE   W03
 BYTE   Fs1
 BYTE   N06  Cn1
 BYTE   W03
 BYTE   N03  Gs1
 BYTE   W03
 BYTE   As1
 BYTE   W03
 BYTE   Gs1
 BYTE   W03
 BYTE   Fs1
 BYTE   N06  Cn1
 BYTE   W03
 BYTE   N03  Gs1
 BYTE   W03
 BYTE   As1
 BYTE   W03
 BYTE   Gs1
 BYTE   W03
 BYTE   Fs1
 BYTE   N06  Cn1
 BYTE   W03
 BYTE   N03  Gs1
 BYTE   W03
 BYTE   As1
 BYTE   W03
 BYTE   Gs1
 BYTE   W03
 BYTE   Fs1
 BYTE   N06  Cn1
 BYTE   W03
 BYTE   N03  Fs1
 BYTE   W03
 BYTE   As1
 BYTE   W03
 BYTE   As1
 BYTE   W03
//  #07 //001   ----------------------------------------
 BYTE   Fs1
 BYTE   N06  Cn1
 BYTE   W03
 BYTE   N03  Gs1
 BYTE   W03
 BYTE   As1
 BYTE   W03
 BYTE   Gs1
 BYTE   W03
 BYTE   Fs1
 BYTE   N06  Cn1
 BYTE   W03
 BYTE   N03  Gs1
 BYTE   W03
 BYTE   As1
 BYTE   W03
 BYTE   Gs1
 BYTE   W03
 BYTE   Fs1
 BYTE   N06  Cn1
 BYTE   W03
 BYTE   N03  Gs1
 BYTE   W03
 BYTE   As1
 BYTE   W03
 BYTE   Gs1
 BYTE   W03
 BYTE   Fs1
 BYTE   N06  Cn1
 BYTE   W03
 BYTE   N03  Gs1
 BYTE   W03
 BYTE   As1
 BYTE   W03
 BYTE   Gs1
 BYTE   W03
 BYTE   Fs1
 BYTE   N06  Cn1
 BYTE   W03
 BYTE   N03  Gs1
 BYTE   W03
 BYTE   As1
 BYTE   W03
 BYTE   Gs1
 BYTE   W03
 BYTE   Fs1
 BYTE   N06  Cn1
 BYTE   W03
 BYTE   N03  Gs1
 BYTE   W03
 BYTE   As1
 BYTE   W03
 BYTE   Gs1
 BYTE   W03
 BYTE   Fs1
 BYTE   N06  Cn1
 BYTE   W03
 BYTE   N03  Fs1
 BYTE   W03
 BYTE   As1
 BYTE   W03
 BYTE   Cn1
 BYTE   N03  As1
 BYTE   W03
 BYTE   Fs1
 BYTE   N06  Dn1
 BYTE   W03
 BYTE   N03  Gs1
 BYTE   W03
 BYTE   As1
 BYTE   N06  Cn1
 BYTE   W03
 BYTE   N03  Gs1
 BYTE   W03
//  #07 //002   ----------------------------------------
 BYTE   Fs1
 BYTE   N06  Cn1
 BYTE   W03
 BYTE   N03  Gs1
 BYTE   W03
 BYTE   As1
 BYTE   W03
 BYTE   Gs1
 BYTE   W03
 BYTE   Fs1
 BYTE   N06  Dn1
 BYTE   W03
 BYTE   N03  Gs1
 BYTE   W03
 BYTE   As1
 BYTE   W03
 BYTE   Gs1
 BYTE   W03
 BYTE   Fs1
 BYTE   N06  Cn1
 BYTE   W03
 BYTE   N03  Gs1
 BYTE   W03
 BYTE   As1
 BYTE   W03
 BYTE   Gs1
 BYTE   W03
 BYTE   Fs1
 BYTE   N06  Dn1
 BYTE   W03
 BYTE   N03  Gs1
 BYTE   W03
 BYTE   As1
 BYTE   W03
 BYTE   Gs1
 BYTE   W03
 BYTE   Fs1
 BYTE   N06  Cn1
 BYTE   W03
 BYTE   N03  Gs1
 BYTE   W03
 BYTE   As1
 BYTE   W03
 BYTE   Gs1
 BYTE   W03
 BYTE   Fs1
 BYTE   N06  Dn1
 BYTE   W03
 BYTE   N03  Gs1
 BYTE   W03
 BYTE   As1
 BYTE   W03
 BYTE   Gs1
 BYTE   W03
 BYTE   Fs1
 BYTE   N06  Cn1
 BYTE   W03
 BYTE   N03  Gs1
 BYTE   W03
 BYTE   As1
 BYTE   W03
 BYTE   Gs1
 BYTE   W03
 BYTE   Fs1
 BYTE   N06  Dn1
 BYTE   W03
 BYTE   N03  Fs1
 BYTE   W03
 BYTE   As1
 BYTE   W03
 BYTE   As1
 BYTE   W03
//  #07 //003   ----------------------------------------
 BYTE   Fs1
 BYTE   N06  Cn1
 BYTE   W03
 BYTE   N03  Gs1
 BYTE   W03
 BYTE   As1
 BYTE   W03
 BYTE   Gs1
 BYTE   W03
 BYTE   Fs1
 BYTE   N06  Dn1
 BYTE   W03
 BYTE   N03  Gs1
 BYTE   W03
 BYTE   As1
 BYTE   W03
 BYTE   Gs1
 BYTE   W03
 BYTE   Fs1
 BYTE   N06  Cn1
 BYTE   W03
 BYTE   N03  Gs1
 BYTE   W03
 BYTE   As1
 BYTE   W03
 BYTE   Gs1
 BYTE   W03
 BYTE   Fs1
 BYTE   N06  Dn1
 BYTE   W03
 BYTE   N03  Gs1
 BYTE   W03
 BYTE   As1
 BYTE   W03
 BYTE   Gs1
 BYTE   W03
 BYTE   Fs1
 BYTE   N06  Cn1
 BYTE   W03
 BYTE   N03  Gs1
 BYTE   W03
 BYTE   As1
 BYTE   W03
 BYTE   Gs1
 BYTE   W03
 BYTE   Fs1
 BYTE   N06  Dn1
 BYTE   W03
 BYTE   N03  Gs1
 BYTE   W03
 BYTE   As1
 BYTE   W03
 BYTE   Gs1
 BYTE   W03
 BYTE   Fs1
 BYTE   N06  Cn1
 BYTE   W03
 BYTE   N03  Gs1
 BYTE   W03
 BYTE   As1
 BYTE   W03
 BYTE   Gs1
 BYTE   N03  Cn1
 BYTE   W03
 BYTE   N01  Dn1
 BYTE   N03  Fs1
 BYTE   W01
 BYTE   N04  Dn1
 BYTE   W01
 BYTE   N03  Gs1
 BYTE   W03
 BYTE   As1
 BYTE   W03
 BYTE   Gs1
 BYTE   W03
Label_014B6AF5:
 BYTE   N06  As1  v127
 BYTE   N06  Cn1
 BYTE   W06
//  #07 //004   ----------------------------------------
 BYTE   Gs1
 BYTE   W06
 BYTE   As1
 BYTE   N06  Dn1
 BYTE   W06
 BYTE   Gs1
 BYTE   W06
 BYTE   As1
 BYTE   N06  Cn1
 BYTE   W06
 BYTE   Gs1
 BYTE   W06
 BYTE   As1
 BYTE   N06  Dn1
 BYTE   W06
 BYTE   Gs1
 BYTE   W06
 BYTE   As1
 BYTE   N06  Cn1
 BYTE   W06
 BYTE   Gs1
 BYTE   W06
 BYTE   As1
 BYTE   N06  Dn1
 BYTE   W06
 BYTE   Gs1
 BYTE   W06
 BYTE   As1
 BYTE   N06  Cn1
 BYTE   W06
 BYTE   Gs1
 BYTE   W06
 BYTE   As1
 BYTE   N06  Dn1
 BYTE   W06
 BYTE   Gs1
 BYTE   W06
 BYTE   PEND 
//  #07 //005   ----------------------------------------
 BYTE   PATT
  POIN2 Label_014B6AF5
//  #07 //006   ----------------------------------------
 BYTE   PATT
  POIN2 Label_014B6AF5
//  #07 //007   ----------------------------------------
Label_014B6B32:
 BYTE   N06  Cn1  v127
 BYTE   N06  As1
 BYTE   W06
 BYTE   Gs1
 BYTE   W06
 BYTE   Dn1
 BYTE   N06  As1
 BYTE   W06
 BYTE   Gs1
 BYTE   W06
 BYTE   Cn1
 BYTE   N06  As1
 BYTE   W06
 BYTE   Gs1
 BYTE   W06
 BYTE   Dn1
 BYTE   N06  As1
 BYTE   W06
 BYTE   Gs1
 BYTE   W06
 BYTE   Cn1
 BYTE   N06  As1
 BYTE   W06
 BYTE   Cn2
 BYTE   N06  Dn2
 BYTE   N06  As1  v001
 BYTE   N06  Bn1  v127
 BYTE   W06
 BYTE   Dn1
 BYTE   N06  As1
 BYTE   W06
 BYTE   Bn1
 BYTE   N06  Cn2
 BYTE   N06  As1  v001
 BYTE   N06  An1  v127
 BYTE   W06
 BYTE   Cn1
 BYTE   N06  As1
 BYTE   W06
 BYTE   An1
 BYTE   N06  Bn1
 BYTE   N06  As1  v001
 BYTE   N06  Gn1  v127
 BYTE   W06
 BYTE   Dn1
 BYTE   N06  As1
 BYTE   W06
 BYTE   Gn1
 BYTE   N06  An1
 BYTE   N06  As1  v001
 BYTE   N06  Fn1  v127
 BYTE   W06
 BYTE   PEND 
//  #07 //008   ----------------------------------------
Label_014B6B85:
 BYTE   N06  Cn1  v127
 BYTE   N06  As1
 BYTE   W06
 BYTE   Bn1
 BYTE   N06  Cn2
 BYTE   N06  As1  v001
 BYTE   N06  An1  v127
 BYTE   W06
 BYTE   Cn2
 BYTE   N06  Dn1
 BYTE   N06  An1
 BYTE   N06  Bn1
 BYTE   W06
 BYTE   Cn1
 BYTE   N06  As1
 BYTE   W06
 BYTE   As1  v001
 BYTE   W06
 BYTE   Cn1  v127
 BYTE   N06  As1
 BYTE   W06
 BYTE   Dn1
 BYTE   N06  As1
 BYTE   W06
 BYTE   As1  v001
 BYTE   W06
 BYTE   Cn2  v127
 BYTE   N06  Bn1
 BYTE   N06  An1
 BYTE   W06
 BYTE   Bn1
 BYTE   N06  Cn1
 BYTE   N06  Gn1
 BYTE   N06  An1
 BYTE   W06
 BYTE   Dn1
 BYTE   N06  As1
 BYTE   W06
 BYTE   As1  v001
 BYTE   W06
 BYTE   Cn1  v127
 BYTE   W06
 BYTE   An1
 BYTE   N06  Cn1
 BYTE   N06  Fn1
 BYTE   N06  Gn1
 BYTE   W06
 BYTE   Dn1
 BYTE   N06  As1
 BYTE   W06
 BYTE   As1  v001
 BYTE   W06
 BYTE   PEND 
//  #07 //009   ----------------------------------------
Label_014B6BD9:
 BYTE   N06  Fs1  v127
 BYTE   N06  Cn1
 BYTE   W06
 BYTE   Gs1
 BYTE   W06
 BYTE   As1
 BYTE   W06
 BYTE   Gs1
 BYTE   N06  Cn1
 BYTE   W06
 BYTE   Fs1
 BYTE   N06  Cn1
 BYTE   W06
 BYTE   Gs1
 BYTE   W06
 BYTE   Fs1
 BYTE   N06  Dn1
 BYTE   W06
 BYTE   Gs1
 BYTE   W06
 BYTE   Fs1
 BYTE   N06  Cn1
 BYTE   W06
 BYTE   Gs1
 BYTE   W06
 BYTE   As1
 BYTE   W06
 BYTE   Gs1
 BYTE   N06  Cn1
 BYTE   W06
 BYTE   Fs1
 BYTE   N06  Cn1
 BYTE   W06
 BYTE   Gs1
 BYTE   W06
 BYTE   Fs1
 BYTE   N06  Dn1
 BYTE   W06
 BYTE   Gs1
 BYTE   W06
 BYTE   PEND 
//  #07 //010   ----------------------------------------
Label_014B6C0C:
 BYTE   N06  Fs1  v127
 BYTE   N06  Cn1
 BYTE   W06
 BYTE   Gs1
 BYTE   W06
 BYTE   As1
 BYTE   W06
 BYTE   Gs1
 BYTE   N06  Cn1
 BYTE   W06
 BYTE   Fs1
 BYTE   N06  Cn1
 BYTE   W06
 BYTE   Gs1
 BYTE   W06
 BYTE   Fs1
 BYTE   N06  Dn1
 BYTE   W06
 BYTE   Gs1
 BYTE   W06
 BYTE   Fs1
 BYTE   N06  Cn1
 BYTE   W06
 BYTE   Gs1
 BYTE   W06
 BYTE   As1
 BYTE   W06
 BYTE   Gs1
 BYTE   N06  Cn1
 BYTE   W06
 BYTE   Fs1
 BYTE   N06  Cn1
 BYTE   W06
 BYTE   Cn2
 BYTE   N06  Bn1
 BYTE   N06  An1
 BYTE   W06
 BYTE   Fs1
 BYTE   N06  Dn1
 BYTE   W06
 BYTE   Gs1
 BYTE   W06
 BYTE   PEND 
//  #07 //011   ----------------------------------------
Label_014B6C43:
 BYTE   N06  Fs1  v127
 BYTE   N06  Cn1
 BYTE   W06
 BYTE   Gs1
 BYTE   W06
 BYTE   Fs1
 BYTE   N06  Dn1
 BYTE   W06
 BYTE   Gs1
 BYTE   N06  Cn1
 BYTE   W06
 BYTE   Fs1
 BYTE   N06  Cn1
 BYTE   W06
 BYTE   Gs1
 BYTE   W06
 BYTE   Fs1
 BYTE   N06  Dn1
 BYTE   W06
 BYTE   Gs1
 BYTE   W06
 BYTE   Fs1
 BYTE   N06  Cn1
 BYTE   W06
 BYTE   Gs1
 BYTE   W06
 BYTE   Fs1
 BYTE   N06  Dn1
 BYTE   W06
 BYTE   Gs1
 BYTE   N06  Cn1
 BYTE   W06
 BYTE   Fs1
 BYTE   N06  Cn1
 BYTE   W06
 BYTE   Gs1
 BYTE   W06
 BYTE   Fs1
 BYTE   N06  Dn1
 BYTE   W06
 BYTE   Gs1
 BYTE   W06
 BYTE   PEND 
//  #07 //012   ----------------------------------------
Label_014B6C7A:
 BYTE   N06  Fs1  v127
 BYTE   N06  Cn1
 BYTE   W06
 BYTE   Gs1
 BYTE   W06
 BYTE   Fs1
 BYTE   N06  Dn1
 BYTE   W06
 BYTE   Gs1
 BYTE   N06  Cn1
 BYTE   W06
 BYTE   Fs1
 BYTE   N06  Cn1
 BYTE   W06
 BYTE   Gs1
 BYTE   W06
 BYTE   Fs1
 BYTE   N06  Dn1
 BYTE   W06
 BYTE   Gs1
 BYTE   W06
 BYTE   Fs1
 BYTE   N06  Cn1
 BYTE   W06
 BYTE   Gs1
 BYTE   W06
 BYTE   As1
 BYTE   N06  Dn1
 BYTE   W06
 BYTE   Gs1
 BYTE   N06  Cn1
 BYTE   W06
 BYTE   Fs1
 BYTE   N06  Cn1
 BYTE   W06
 BYTE   Bn1
 BYTE   N06  Cn2
 BYTE   N06  Dn1
 BYTE   N06  An1
 BYTE   W06
 BYTE   Fs1
 BYTE   N06  Dn1
 BYTE   W06
 BYTE   An1
 BYTE   N06  Bn1
 BYTE   N06  Dn1
 BYTE   N06  Gn1
 BYTE   W06
 BYTE   PEND 
//  #07 //013   ----------------------------------------
 BYTE   PATT
  POIN2 Label_014B6AF5
//  #07 //014   ----------------------------------------
 BYTE   PATT
  POIN2 Label_014B6AF5
//  #07 //015   ----------------------------------------
 BYTE   PATT
  POIN2 Label_014B6AF5
//  #07 //016   ----------------------------------------
 BYTE   PATT
  POIN2 Label_014B6B32
//  #07 //017   ----------------------------------------
 BYTE   PATT
  POIN2 Label_014B6B85
//  #07 //018   ----------------------------------------
 BYTE   PATT
  POIN2 Label_014B6B85
//  #07 //019   ----------------------------------------
 BYTE   PATT
  POIN2 Label_014B6BD9
//  #07 //020   ----------------------------------------
 BYTE   PATT
  POIN2 Label_014B6C0C
//  #07 //021   ----------------------------------------
 BYTE   PATT
  POIN2 Label_014B6C43
//  #07 //022   ----------------------------------------
 BYTE   PATT
  POIN2 Label_014B6C7A
//  #07 //023   ----------------------------------------
Label_014B6CEF:
 BYTE   N06  Cn1  v127
 BYTE   N06  As1
 BYTE   W06
 BYTE   Cn1
 BYTE   N06  Gs1
 BYTE   W06
 BYTE   Dn1
 BYTE   N06  As1
 BYTE   W06
 BYTE   Gs1
 BYTE   W06
 BYTE   Cn1
 BYTE   N06  As1
 BYTE   W06
 BYTE   Gs1
 BYTE   W06
 BYTE   Dn1
 BYTE   N06  As1
 BYTE   W06
 BYTE   Gs1
 BYTE   W06
 BYTE   Cn1
 BYTE   N06  As1
 BYTE   W06
 BYTE   Cn1
 BYTE   N06  Gs1
 BYTE   W06
 BYTE   Dn1
 BYTE   N06  As1
 BYTE   W06
 BYTE   Gs1
 BYTE   W06
 BYTE   Cn1
 BYTE   N06  As1
 BYTE   W06
 BYTE   Gs1
 BYTE   W06
 BYTE   Dn1
 BYTE   N06  As1
 BYTE   W06
 BYTE   Gs1
 BYTE   W06
 BYTE   PEND 
//  #07 //024   ----------------------------------------
Label_014B6D26:
 BYTE   N06  Cn1  v127
 BYTE   N06  As1
 BYTE   W06
 BYTE   Cn1
 BYTE   N06  Gs1
 BYTE   W06
 BYTE   Dn1
 BYTE   N06  As1
 BYTE   W06
 BYTE   Gs1
 BYTE   W06
 BYTE   Cn1
 BYTE   N06  As1
 BYTE   W06
 BYTE   Cn1
 BYTE   N06  Gs1
 BYTE   W06
 BYTE   Dn1
 BYTE   N06  As1
 BYTE   W06
 BYTE   Gs1
 BYTE   W06
 BYTE   Cn1
 BYTE   N06  As1
 BYTE   W06
 BYTE   Cn1
 BYTE   N06  Gs1
 BYTE   W06
 BYTE   Dn1
 BYTE   N06  As1
 BYTE   W06
 BYTE   Gs1
 BYTE   W06
 BYTE   Cn1
 BYTE   N06  As1
 BYTE   W06
 BYTE   Cn1
 BYTE   N06  Gs1
 BYTE   W06
 BYTE   Dn1
 BYTE   N06  As1
 BYTE   W06
 BYTE   Dn1
 BYTE   N06  As1
 BYTE   W06
 BYTE   PEND 
//  #07 //025   ----------------------------------------
 BYTE   PATT
  POIN2 Label_014B6CEF
//  #07 //026   ----------------------------------------
 BYTE   PATT
  POIN2 Label_014B6D26
//  #07 //027   ----------------------------------------
 BYTE   N06  Cn1  v127
 BYTE   N06  As1
 BYTE   W06
 BYTE   Cn1
 BYTE   N06  Gs1
 BYTE   W06
 BYTE   Dn1
 BYTE   N06  As1
 BYTE   W06
 BYTE   Gs1
 BYTE   W06
 BYTE   Cn1
 BYTE   N06  As1
 BYTE   W06
 BYTE   Cn1
 BYTE   N06  Gs1
 BYTE   W06
 BYTE   Dn1
 BYTE   N06  As1
 BYTE   W06
 BYTE   Dn1
 BYTE   N06  Gs1
 BYTE   W06
 BYTE   Cn1
 BYTE   N06  As1
 BYTE   W06
 BYTE   Dn1
 BYTE   N06  Gs1
 BYTE   W06
 BYTE   Dn1
 BYTE   N06  As1
 BYTE   W06
 BYTE   An1
 BYTE   N06  Bn1
 BYTE   N06  Gs1
 BYTE   N06  Cn2
 BYTE   W06
 BYTE   N03  Dn1
 BYTE   N06  As1
 BYTE   W03
 BYTE   N03  Dn1
 BYTE   W03
 BYTE   Bn1
 BYTE   N03  An1
 BYTE   N03  Gn1
 BYTE   N06  Gs1
 BYTE   W03
 BYTE   N03  Bn1
 BYTE   N03  An1
 BYTE   N03  Gn1
 BYTE   W03
 BYTE   Dn1
 BYTE   N06  As1
 BYTE   W03
 BYTE   N03  Dn1
 BYTE   W03
 BYTE   An1
 BYTE   N03  Gn1
 BYTE   N03  Fn1
 BYTE   N06  As1
 BYTE   W03
 BYTE   N03  An1
 BYTE   N03  Gn1
 BYTE   N03  Fn1
 BYTE   W03
//  #07 //028   ----------------------------------------
 BYTE   VOL   58*BattleToadsDoubleDragonLevel1_mvl/mxv
 BYTE   N06  As1  v127
 BYTE   N06  Cn1
 BYTE   W06
 BYTE   Gs1
 BYTE   W06
 BYTE   As1
 BYTE   N06  Dn1
 BYTE   W06
 BYTE   Gs1
 BYTE   W06
 BYTE   As1
 BYTE   N06  Cn1
 BYTE   W06
 BYTE   Gs1
 BYTE   W06
 BYTE   As1
 BYTE   N06  Dn1
 BYTE   W06
 BYTE   Gs1
 BYTE   W06
 BYTE   As1
 BYTE   N06  Cn1
 BYTE   W06
 BYTE   Gs1
 BYTE   W06
 BYTE   As1
 BYTE   N06  Dn1
 BYTE   W06
 BYTE   Gs1
 BYTE   W06
 BYTE   As1
 BYTE   N06  Cn1
 BYTE   W06
 BYTE   Gs1
 BYTE   W06
 BYTE   As1
 BYTE   N06  Dn1
 BYTE   W06
 BYTE   Gs1
 BYTE   W06
//  #07 //029   ----------------------------------------
 BYTE   As1
 BYTE   N06  Cn1
 BYTE   W06
 BYTE   Gs1
 BYTE   W06
 BYTE   As1
 BYTE   N06  Dn1
 BYTE   W06
 BYTE   Gs1
 BYTE   W06
 BYTE   As1
 BYTE   N06  Cn1
 BYTE   W06
 BYTE   Gs1
 BYTE   W06
 BYTE   As1
 BYTE   N06  Dn1
 BYTE   W06
 BYTE   Gs1
 BYTE   W06
 BYTE   As1
 BYTE   N06  Cn1
 BYTE   W06
 BYTE   Gs1
 BYTE   W06
 BYTE   As1
 BYTE   N06  Dn1
 BYTE   W06
 BYTE   Gs1
 BYTE   W06
 BYTE   As1
 BYTE   N06  Cn1
 BYTE   W06
 BYTE   Gs1
 BYTE   W06
 BYTE   As1
 BYTE   N06  Dn1
 BYTE   W06
 BYTE   Gs1
 BYTE   W06
//  #07 //030   ----------------------------------------
 BYTE   As1
 BYTE   N06  Cn1
 BYTE   W06
 BYTE   Gs1
 BYTE   W06
 BYTE   As1
 BYTE   N06  Dn1
 BYTE   W06
 BYTE   Gs1
 BYTE   W06
 BYTE   As1
 BYTE   N06  Cn1
 BYTE   W06
 BYTE   Gs1
 BYTE   W06
 BYTE   As1
 BYTE   N06  Dn1
 BYTE   W06
 BYTE   Gs1
 BYTE   W06
 BYTE   As1
 BYTE   N06  Cn1
 BYTE   W06
 BYTE   Gs1
 BYTE   W06
 BYTE   As1
 BYTE   N06  Dn1
 BYTE   W06
 BYTE   Gs1
 BYTE   W06
 BYTE   As1
 BYTE   N06  Cn1
 BYTE   W06
 BYTE   Gs1
 BYTE   W06
 BYTE   As1
 BYTE   N06  Dn1
 BYTE   W06
 BYTE   Gs1
 BYTE   W06
//  #07 //031   ----------------------------------------
 BYTE   Cn1
 BYTE   N06  As1
 BYTE   W06
 BYTE   Gs1
 BYTE   W06
 BYTE   Dn1
 BYTE   N06  As1
 BYTE   W06
 BYTE   Gs1
 BYTE   W06
 BYTE   Cn1
 BYTE   N06  As1
 BYTE   W06
 BYTE   Gs1
 BYTE   W06
 BYTE   Dn1
 BYTE   N06  As1
 BYTE   W06
 BYTE   Gs1
 BYTE   W06
 BYTE   Cn1
 BYTE   N06  As1
 BYTE   W06
 BYTE   Cn2
 BYTE   N06  Dn2
 BYTE   N06  As1  v001
 BYTE   N06  Bn1  v127
 BYTE   W06
 BYTE   Dn1
 BYTE   N06  As1
 BYTE   W06
 BYTE   Bn1
 BYTE   N06  Cn2
 BYTE   N06  As1  v001
 BYTE   N06  An1  v127
 BYTE   W06
 BYTE   Cn1
 BYTE   N06  As1
 BYTE   W06
 BYTE   An1
 BYTE   N06  Bn1
 BYTE   N06  As1  v001
 BYTE   N06  Gn1  v127
 BYTE   W06
 BYTE   Dn1
 BYTE   N06  As1
 BYTE   W06
 BYTE   Gn1
 BYTE   N06  An1
 BYTE   N06  As1  v001
 BYTE   N06  Fn1  v127
 BYTE   W06
//  #07 //032   ----------------------------------------
 BYTE   Cn1
 BYTE   N06  As1
 BYTE   W06
 BYTE   Bn1
 BYTE   N06  Cn2
 BYTE   N06  As1  v001
 BYTE   N06  An1  v127
 BYTE   W06
 BYTE   Cn2
 BYTE   N06  Dn1
 BYTE   N06  An1
 BYTE   N06  Bn1
 BYTE   W06
 BYTE   Cn1
 BYTE   N06  As1
 BYTE   W06
 BYTE   As1  v001
 BYTE   W06
 BYTE   Cn1  v127
 BYTE   N06  As1
 BYTE   W06
 BYTE   Dn1
 BYTE   N06  As1
 BYTE   W06
 BYTE   As1  v001
 BYTE   W06
 BYTE   Cn2  v127
 BYTE   N06  Bn1
 BYTE   N06  An1
 BYTE   W06
 BYTE   Bn1
 BYTE   N06  Cn1
 BYTE   N06  Gn1
 BYTE   N06  An1
 BYTE   W06
 BYTE   Dn1
 BYTE   N06  As1
 BYTE   W06
 BYTE   As1  v001
 BYTE   W06
 BYTE   Cn1  v127
 BYTE   W06
 BYTE   An1
 BYTE   N06  Cn1
 BYTE   N06  Fn1
 BYTE   N06  Gn1
 BYTE   W06
 BYTE   Dn1
 BYTE   N06  As1
 BYTE   W06
 BYTE   As1  v001
 BYTE   W06
//  #07 //033   ----------------------------------------
 BYTE   Fs1  v127
 BYTE   N06  Cn1
 BYTE   W06
 BYTE   Gs1
 BYTE   W06
 BYTE   As1
 BYTE   W06
 BYTE   Gs1
 BYTE   N06  Cn1
 BYTE   W06
 BYTE   Fs1
 BYTE   N06  Cn1
 BYTE   W06
 BYTE   Gs1
 BYTE   W06
 BYTE   Fs1
 BYTE   N06  Dn1
 BYTE   W06
 BYTE   Gs1
 BYTE   W06
 BYTE   Fs1
 BYTE   N06  Cn1
 BYTE   W06
 BYTE   Gs1
 BYTE   W06
 BYTE   As1
 BYTE   W06
 BYTE   Gs1
 BYTE   N06  Cn1
 BYTE   W06
 BYTE   Fs1
 BYTE   N06  Cn1
 BYTE   W06
 BYTE   Gs1
 BYTE   W06
 BYTE   Fs1
 BYTE   N06  Dn1
 BYTE   W06
 BYTE   Gs1
 BYTE   W06
//  #07 //034   ----------------------------------------
 BYTE   Fs1
 BYTE   N06  Cn1
 BYTE   W06
 BYTE   Gs1
 BYTE   W06
 BYTE   As1
 BYTE   W06
 BYTE   Gs1
 BYTE   N06  Cn1
 BYTE   W06
 BYTE   Fs1
 BYTE   N06  Cn1
 BYTE   W06
 BYTE   Gs1
 BYTE   W06
 BYTE   Fs1
 BYTE   N06  Dn1
 BYTE   W06
 BYTE   Gs1
 BYTE   W06
 BYTE   Fs1
 BYTE   N06  Cn1
 BYTE   W06
 BYTE   Gs1
 BYTE   W06
 BYTE   As1
 BYTE   W06
 BYTE   Gs1
 BYTE   N06  Cn1
 BYTE   W06
 BYTE   Fs1
 BYTE   N06  Cn1
 BYTE   W06
 BYTE   Cn2
 BYTE   N06  Bn1
 BYTE   N06  An1
 BYTE   W06
 BYTE   Fs1
 BYTE   N06  Dn1
 BYTE   W06
 BYTE   Gs1
 BYTE   W06
//  #07 //035   ----------------------------------------
 BYTE   Fs1
 BYTE   N06  Cn1
 BYTE   W06
 BYTE   Gs1
 BYTE   W06
 BYTE   Fs1
 BYTE   N06  Dn1
 BYTE   W06
 BYTE   Gs1
 BYTE   N06  Cn1
 BYTE   W06
 BYTE   Fs1
 BYTE   N06  Cn1
 BYTE   W06
 BYTE   Gs1
 BYTE   W06
 BYTE   Fs1
 BYTE   N06  Dn1
 BYTE   W06
 BYTE   Gs1
 BYTE   W06
 BYTE   Fs1
 BYTE   N06  Cn1
 BYTE   W06
 BYTE   Gs1
 BYTE   W06
 BYTE   Fs1
 BYTE   N06  Dn1
 BYTE   W06
 BYTE   Gs1
 BYTE   N06  Cn1
 BYTE   W06
 BYTE   Fs1
 BYTE   N06  Cn1
 BYTE   W06
 BYTE   Gs1
 BYTE   W06
 BYTE   Fs1
 BYTE   N06  Dn1
 BYTE   W06
 BYTE   Gs1
 BYTE   W06
//  #07 //036   ----------------------------------------
 BYTE   Fs1
 BYTE   N06  Cn1
 BYTE   W06
 BYTE   Gs1
 BYTE   W06
 BYTE   Fs1
 BYTE   N06  Dn1
 BYTE   W06
 BYTE   Gs1
 BYTE   N06  Cn1
 BYTE   W06
 BYTE   Fs1
 BYTE   N06  Cn1
 BYTE   W06
 BYTE   Gs1
 BYTE   W06
 BYTE   Fs1
 BYTE   N06  Dn1
 BYTE   W06
 BYTE   Gs1
 BYTE   W06
 BYTE   Fs1
 BYTE   N06  Cn1
 BYTE   W06
 BYTE   Gs1
 BYTE   W06
 BYTE   As1
 BYTE   N06  Dn1
 BYTE   W06
 BYTE   Gs1
 BYTE   N06  Cn1
 BYTE   W06
 BYTE   Fs1
 BYTE   N06  Cn1
 BYTE   W06
 BYTE   Bn1
 BYTE   N06  Cn2
 BYTE   N06  Dn1
 BYTE   N06  An1
 BYTE   W06
 BYTE   Fs1
 BYTE   N06  Dn1
 BYTE   W06
 BYTE   An1
 BYTE   N06  Bn1
 BYTE   N06  Dn1
 BYTE   N06  Gn1
 BYTE   W06
//  #07 //037   ----------------------------------------
 BYTE   As1
 BYTE   N06  Cn1
 BYTE   W06
 BYTE   Gs1
 BYTE   W06
 BYTE   As1
 BYTE   N06  Dn1
 BYTE   W06
 BYTE   Gs1
 BYTE   W06
 BYTE   As1
 BYTE   N06  Cn1
 BYTE   W06
 BYTE   Gs1
 BYTE   W06
 BYTE   As1
 BYTE   N06  Dn1
 BYTE   W06
 BYTE   Gs1
 BYTE   W06
 BYTE   As1
 BYTE   N06  Cn1
 BYTE   W06
 BYTE   Gs1
 BYTE   W06
 BYTE   As1
 BYTE   N06  Dn1
 BYTE   W06
 BYTE   Gs1
 BYTE   W06
 BYTE   As1
 BYTE   N06  Cn1
 BYTE   W06
 BYTE   Gs1
 BYTE   W06
 BYTE   As1
 BYTE   N06  Dn1
 BYTE   W06
 BYTE   Gs1
 BYTE   W06
//  #07 //038   ----------------------------------------
 BYTE   As1
 BYTE   N06  Cn1
 BYTE   W06
 BYTE   Gs1
 BYTE   W06
 BYTE   As1
 BYTE   N06  Dn1
 BYTE   W06
 BYTE   Gs1
 BYTE   W06
 BYTE   As1
 BYTE   N06  Cn1
 BYTE   W06
 BYTE   Gs1
 BYTE   W06
 BYTE   As1
 BYTE   N06  Dn1
 BYTE   W06
 BYTE   Gs1
 BYTE   W06
 BYTE   As1
 BYTE   N06  Cn1
 BYTE   W06
 BYTE   Gs1
 BYTE   W06
 BYTE   As1
 BYTE   N06  Dn1
 BYTE   W06
 BYTE   Gs1
 BYTE   W06
 BYTE   As1
 BYTE   N06  Cn1
 BYTE   W06
 BYTE   Gs1
 BYTE   W06
 BYTE   As1
 BYTE   N06  Dn1
 BYTE   W06
 BYTE   Gs1
 BYTE   W06
//  #07 //039   ----------------------------------------
 BYTE   As1
 BYTE   N06  Cn1
 BYTE   W06
 BYTE   Gs1
 BYTE   W06
 BYTE   As1
 BYTE   N06  Dn1
 BYTE   W06
 BYTE   Gs1
 BYTE   W06
 BYTE   As1
 BYTE   N06  Cn1
 BYTE   W06
 BYTE   Gs1
 BYTE   W06
 BYTE   As1
 BYTE   N06  Dn1
 BYTE   W06
 BYTE   Gs1
 BYTE   W06
 BYTE   As1
 BYTE   N06  Cn1
 BYTE   W06
 BYTE   Gs1
 BYTE   W06
 BYTE   As1
 BYTE   N06  Dn1
 BYTE   W06
 BYTE   Gs1
 BYTE   W06
 BYTE   As1
 BYTE   N06  Cn1
 BYTE   W06
 BYTE   Gs1
 BYTE   W06
 BYTE   As1
 BYTE   N06  Dn1
 BYTE   W06
 BYTE   Gs1
 BYTE   W06
//  #07 //040   ----------------------------------------
 BYTE   Cn1
 BYTE   N06  As1
 BYTE   W06
 BYTE   Gs1
 BYTE   W06
 BYTE   Dn1
 BYTE   N06  As1
 BYTE   W06
 BYTE   Gs1
 BYTE   W06
 BYTE   Cn1
 BYTE   N06  As1
 BYTE   W06
 BYTE   Gs1
 BYTE   W06
 BYTE   Dn1
 BYTE   N06  As1
 BYTE   W06
 BYTE   Gs1
 BYTE   W06
 BYTE   Cn1
 BYTE   N06  As1
 BYTE   W06
 BYTE   Cn2
 BYTE   N06  Dn2
 BYTE   N06  As1  v001
 BYTE   N06  Bn1  v127
 BYTE   W06
 BYTE   Dn1
 BYTE   N06  As1
 BYTE   W06
 BYTE   Bn1
 BYTE   N06  Cn2
 BYTE   N06  As1  v001
 BYTE   N06  An1  v127
 BYTE   W06
 BYTE   Cn1
 BYTE   N06  As1
 BYTE   W06
 BYTE   An1
 BYTE   N06  Bn1
 BYTE   N06  As1  v001
 BYTE   N06  Gn1  v127
 BYTE   W06
 BYTE   Dn1
 BYTE   N06  As1
 BYTE   W06
 BYTE   Gn1
 BYTE   N06  An1
 BYTE   N06  As1  v001
 BYTE   N06  Fn1  v127
 BYTE   W06
//  #07 //041   ----------------------------------------
 BYTE   Cn1
 BYTE   N06  As1
 BYTE   W06
 BYTE   Bn1
 BYTE   N06  Cn2
 BYTE   N06  As1  v001
 BYTE   N06  An1  v127
 BYTE   W06
 BYTE   Cn2
 BYTE   N06  Dn1
 BYTE   N06  An1
 BYTE   N06  Bn1
 BYTE   W06
 BYTE   Cn1
 BYTE   N06  As1
 BYTE   W06
 BYTE   As1  v001
 BYTE   W06
 BYTE   Cn1  v127
 BYTE   N06  As1
 BYTE   W06
 BYTE   Dn1
 BYTE   N06  As1
 BYTE   W06
 BYTE   As1  v001
 BYTE   W06
 BYTE   Cn2  v127
 BYTE   N06  Bn1
 BYTE   N06  An1
 BYTE   W06
 BYTE   Bn1
 BYTE   N06  Cn1
 BYTE   N06  Gn1
 BYTE   N06  An1
 BYTE   W06
 BYTE   Dn1
 BYTE   N06  As1
 BYTE   W06
 BYTE   As1  v001
 BYTE   W06
 BYTE   Cn1  v127
 BYTE   W06
 BYTE   An1
 BYTE   N06  Cn1
 BYTE   N06  Fn1
 BYTE   N06  Gn1
 BYTE   W06
 BYTE   Dn1
 BYTE   N06  As1
 BYTE   W06
 BYTE   As1  v001
 BYTE   W06
//  #07 //042   ----------------------------------------
 BYTE   Cn1  v127
 BYTE   N06  As1
 BYTE   W06
 BYTE   Bn1
 BYTE   N06  Cn2
 BYTE   N06  As1  v001
 BYTE   N06  An1  v127
 BYTE   W06
 BYTE   Cn2
 BYTE   N06  Dn1
 BYTE   N06  An1
 BYTE   N06  Bn1
 BYTE   W06
 BYTE   Cn1
 BYTE   N06  As1
 BYTE   W06
 BYTE   As1  v001
 BYTE   W06
 BYTE   Cn1  v127
 BYTE   N06  As1
 BYTE   W06
 BYTE   Dn1
 BYTE   N06  As1
 BYTE   W06
 BYTE   As1  v001
 BYTE   W06
 BYTE   Cn2  v127
 BYTE   N06  Bn1
 BYTE   N06  An1
 BYTE   W06
 BYTE   Bn1
 BYTE   N06  Cn1
 BYTE   N06  Gn1
 BYTE   N06  An1
 BYTE   W06
 BYTE   Dn1
 BYTE   N06  As1
 BYTE   W06
 BYTE   As1  v001
 BYTE   W06
 BYTE   Cn1  v127
 BYTE   W06
 BYTE   An1
 BYTE   N06  Cn1
 BYTE   N06  Fn1
 BYTE   N06  Gn1
 BYTE   W06
 BYTE   Dn1
 BYTE   N06  As1
 BYTE   W06
 BYTE   As1  v001
 BYTE   W06
//  #07 //043   ----------------------------------------
 BYTE   Fs1  v127
 BYTE   N06  Cn1
 BYTE   W06
 BYTE   Gs1
 BYTE   W06
 BYTE   As1
 BYTE   W06
 BYTE   Gs1
 BYTE   N06  Cn1
 BYTE   W06
 BYTE   Fs1
 BYTE   N06  Cn1
 BYTE   W06
 BYTE   Gs1
 BYTE   W06
 BYTE   Fs1
 BYTE   N06  Dn1
 BYTE   W06
 BYTE   Gs1
 BYTE   W06
 BYTE   Fs1
 BYTE   N06  Cn1
 BYTE   W06
 BYTE   Gs1
 BYTE   W06
 BYTE   As1
 BYTE   W06
 BYTE   Gs1
 BYTE   N06  Cn1
 BYTE   W06
 BYTE   Fs1
 BYTE   N06  Cn1
 BYTE   W06
 BYTE   Gs1
 BYTE   W06
 BYTE   Fs1
 BYTE   N06  Dn1
 BYTE   W06
 BYTE   Gs1
 BYTE   W06
//  #07 //044   ----------------------------------------
 BYTE   Fs1
 BYTE   N06  Cn1
 BYTE   W06
 BYTE   Gs1
 BYTE   W06
 BYTE   As1
 BYTE   W06
 BYTE   Gs1
 BYTE   N06  Cn1
 BYTE   W06
 BYTE   Fs1
 BYTE   N06  Cn1
 BYTE   W06
 BYTE   Gs1
 BYTE   W06
 BYTE   Fs1
 BYTE   N06  Dn1
 BYTE   W06
 BYTE   Gs1
 BYTE   W06
 BYTE   Fs1
 BYTE   N06  Cn1
 BYTE   W06
 BYTE   Gs1
 BYTE   W06
 BYTE   As1
 BYTE   W06
 BYTE   Gs1
 BYTE   N06  Cn1
 BYTE   W06
 BYTE   Fs1
 BYTE   N06  Cn1
 BYTE   W06
 BYTE   Cn2
 BYTE   N06  Bn1
 BYTE   N06  An1
 BYTE   W06
 BYTE   Fs1
 BYTE   N06  Dn1
 BYTE   W06
 BYTE   Gs1
 BYTE   W06
//  #07 //045   ----------------------------------------
 BYTE   Fs1
 BYTE   N06  Cn1
 BYTE   W06
 BYTE   Gs1
 BYTE   W06
 BYTE   Fs1
 BYTE   N06  Dn1
 BYTE   W06
 BYTE   Gs1
 BYTE   N06  Cn1
 BYTE   W06
 BYTE   Fs1
 BYTE   N06  Cn1
 BYTE   W06
 BYTE   Gs1
 BYTE   W06
 BYTE   Fs1
 BYTE   N06  Dn1
 BYTE   W06
 BYTE   Gs1
 BYTE   W06
 BYTE   Fs1
 BYTE   N06  Cn1
 BYTE   W06
 BYTE   Gs1
 BYTE   W06
 BYTE   Fs1
 BYTE   N06  Dn1
 BYTE   W06
 BYTE   Gs1
 BYTE   N06  Cn1
 BYTE   W06
 BYTE   Fs1
 BYTE   N06  Cn1
 BYTE   W06
 BYTE   Gs1
 BYTE   W06
 BYTE   Fs1
 BYTE   N06  Dn1
 BYTE   W06
 BYTE   Gs1
 BYTE   W06
//  #07 //046   ----------------------------------------
 BYTE   Fs1
 BYTE   N06  Cn1
 BYTE   W06
 BYTE   Gs1
 BYTE   W06
 BYTE   Fs1
 BYTE   N06  Dn1
 BYTE   W06
 BYTE   Gs1
 BYTE   N06  Cn1
 BYTE   W06
 BYTE   Fs1
 BYTE   N06  Cn1
 BYTE   W06
 BYTE   Gs1
 BYTE   W06
 BYTE   Fs1
 BYTE   N06  Dn1
 BYTE   W06
 BYTE   Gs1
 BYTE   W06
 BYTE   Fs1
 BYTE   N06  Cn1
 BYTE   W06
 BYTE   Gs1
 BYTE   W06
 BYTE   As1
 BYTE   N06  Dn1
 BYTE   W06
 BYTE   Gs1
 BYTE   N06  Cn1
 BYTE   W06
 BYTE   Fs1
 BYTE   N06  Cn1
 BYTE   W06
 BYTE   Bn1
 BYTE   N06  Cn2
 BYTE   N06  Dn1
 BYTE   N06  An1
 BYTE   W06
 BYTE   Fs1
 BYTE   N06  Dn1
 BYTE   W06
 BYTE   An1
 BYTE   N06  Bn1
 BYTE   N06  Dn1
 BYTE   N06  Gn1
 BYTE   W06
//  #07 //047   ----------------------------------------
 BYTE   Cn1
 BYTE   N06  As1
 BYTE   W06
 BYTE   Cn1
 BYTE   N06  Gs1
 BYTE   W06
 BYTE   Dn1
 BYTE   N06  As1
 BYTE   W06
 BYTE   Gs1
 BYTE   W06
 BYTE   Cn1
 BYTE   N06  As1
 BYTE   W06
 BYTE   Gs1
 BYTE   W06
 BYTE   Dn1
 BYTE   N06  As1
 BYTE   W06
 BYTE   Gs1
 BYTE   W06
 BYTE   Cn1
 BYTE   N06  As1
 BYTE   W06
 BYTE   Cn1
 BYTE   N06  Gs1
 BYTE   W06
 BYTE   Dn1
 BYTE   N06  As1
 BYTE   W06
 BYTE   Gs1
 BYTE   W06
 BYTE   Cn1
 BYTE   N06  As1
 BYTE   W06
 BYTE   Gs1
 BYTE   W06
 BYTE   Dn1
 BYTE   N06  As1
 BYTE   W06
 BYTE   Gs1
 BYTE   W06
//  #07 //048   ----------------------------------------
 BYTE   Cn1
 BYTE   N06  As1
 BYTE   W06
 BYTE   Cn1
 BYTE   N06  Gs1
 BYTE   W06
 BYTE   Dn1
 BYTE   N06  As1
 BYTE   W06
 BYTE   Gs1
 BYTE   W06
 BYTE   Cn1
 BYTE   N06  As1
 BYTE   W06
 BYTE   Cn1
 BYTE   N06  Gs1
 BYTE   W06
 BYTE   Dn1
 BYTE   N06  As1
 BYTE   W06
 BYTE   Gs1
 BYTE   W06
 BYTE   Cn1
 BYTE   N06  As1
 BYTE   W06
 BYTE   Cn1
 BYTE   N06  Gs1
 BYTE   W06
 BYTE   Dn1
 BYTE   N06  As1
 BYTE   W06
 BYTE   Gs1
 BYTE   W06
 BYTE   Cn1
 BYTE   N06  As1
 BYTE   W06
 BYTE   Cn1
 BYTE   N06  Gs1
 BYTE   W06
 BYTE   Dn1
 BYTE   N06  As1
 BYTE   W06
 BYTE   Dn1
 BYTE   N06  As1
 BYTE   W06
//  #07 //049   ----------------------------------------
 BYTE   Cn1
 BYTE   N06  As1
 BYTE   W06
 BYTE   Cn1
 BYTE   N06  Gs1
 BYTE   W06
 BYTE   Dn1
 BYTE   N06  As1
 BYTE   W06
 BYTE   Gs1
 BYTE   W06
 BYTE   Cn1
 BYTE   N06  As1
 BYTE   W06
 BYTE   Gs1
 BYTE   W06
 BYTE   Dn1
 BYTE   N06  As1
 BYTE   W06
 BYTE   Gs1
 BYTE   W06
 BYTE   Cn1
 BYTE   N06  As1
 BYTE   W06
 BYTE   Cn1
 BYTE   N06  Gs1
 BYTE   W06
 BYTE   Dn1
 BYTE   N06  As1
 BYTE   W06
 BYTE   Gs1
 BYTE   W06
 BYTE   Cn1
 BYTE   N06  As1
 BYTE   W06
 BYTE   Gs1
 BYTE   W06
 BYTE   Dn1
 BYTE   N06  As1
 BYTE   W06
 BYTE   Gs1
 BYTE   W06
//  #07 //050   ----------------------------------------
 BYTE   Cn1
 BYTE   N06  As1
 BYTE   W06
 BYTE   Cn1
 BYTE   N06  Gs1
 BYTE   W06
 BYTE   Dn1
 BYTE   N06  As1
 BYTE   W06
 BYTE   Gs1
 BYTE   W06
 BYTE   Cn1
 BYTE   N06  As1
 BYTE   W06
 BYTE   Cn1
 BYTE   N06  Gs1
 BYTE   W06
 BYTE   Dn1
 BYTE   N06  As1
 BYTE   W06
 BYTE   Gs1
 BYTE   W06
 BYTE   Cn1
 BYTE   N06  As1
 BYTE   W06
 BYTE   Cn1
 BYTE   N06  Gs1
 BYTE   W06
 BYTE   Dn1
 BYTE   N06  As1
 BYTE   W06
 BYTE   Gs1
 BYTE   W06
 BYTE   Cn1
 BYTE   N06  As1
 BYTE   W06
 BYTE   Cn1
 BYTE   N06  Gs1
 BYTE   W06
 BYTE   Dn1
 BYTE   N06  As1
 BYTE   W06
 BYTE   Dn1
 BYTE   N06  As1
 BYTE   W06
//  #07 //051   ----------------------------------------
 BYTE   Cn1
 BYTE   N06  As1
 BYTE   W06
 BYTE   Cn1
 BYTE   N06  Gs1
 BYTE   W06
 BYTE   Dn1
 BYTE   N06  As1
 BYTE   W06
 BYTE   Gs1
 BYTE   W06
 BYTE   Cn1
 BYTE   N06  As1
 BYTE   W06
 BYTE   Cn1
 BYTE   N06  Gs1
 BYTE   W06
 BYTE   Dn1
 BYTE   N06  As1
 BYTE   W06
 BYTE   Dn1
 BYTE   N06  Gs1
 BYTE   W06
 BYTE   Cn1
 BYTE   N06  As1
 BYTE   W06
 BYTE   Dn1
 BYTE   N06  Gs1
 BYTE   W06
 BYTE   Dn1
 BYTE   N06  As1
 BYTE   W06
 BYTE   An1
 BYTE   N06  Bn1
 BYTE   N06  Gs1
 BYTE   N06  Cn2
 BYTE   W06
 BYTE   N03  Dn1
 BYTE   N06  As1
 BYTE   W03
 BYTE   N03  Dn1
 BYTE   W03
 BYTE   Bn1
 BYTE   N03  An1
 BYTE   N03  Gn1
 BYTE   N06  Gs1
 BYTE   W03
 BYTE   N03  Bn1
 BYTE   N03  An1
 BYTE   N03  Gn1
 BYTE   W03
 BYTE   Dn1
 BYTE   N06  As1
 BYTE   W03
 BYTE   N03  Dn1
 BYTE   W03
 BYTE   An1
 BYTE   N03  Gn1
 BYTE   N03  Fn1
 BYTE   N06  As1
 BYTE   W03
 BYTE   N03  An1
 BYTE   N03  Gn1
 BYTE   N03  Fn1
 BYTE   W09
//  #07 //052   ----------------------------------------
 BYTE   GoTo
  POIN2 Label_014B6980
 BYTE   FINE

//******************************************************//
	ALIGN 4

BattleToadsDoubleDragonLevel1:
	BYTE	7	// NumTrks
	BYTE	0	// NumBlks
	BYTE	BattleToadsDoubleDragonLevel1_pri	// Priority
	BYTE	BattleToadsDoubleDragonLevel1_rev	// Reverb.
    
	POIN2	BattleToadsDoubleDragonLevel1_grp
    
	POIN2	BattleToadsDoubleDragonLevel1_001
	POIN2	BattleToadsDoubleDragonLevel1_002
	POIN2	BattleToadsDoubleDragonLevel1_003
	POIN2	BattleToadsDoubleDragonLevel1_004
	POIN2	BattleToadsDoubleDragonLevel1_005
	POIN2	BattleToadsDoubleDragonLevel1_006
	POIN2	BattleToadsDoubleDragonLevel1_007

	
