//Event file generated from Sappy .s format.
	

	#define	BelieveInMyselfSA2B_grp  voicegroup000
	#define	BelieveInMyselfSA2B_pri  0
	#define	BelieveInMyselfSA2B_rev  0
	#define	BelieveInMyselfSA2B_mvl  127
	#define	BelieveInMyselfSA2B_key  0
	#define	BelieveInMyselfSA2B_tbs  1
	#define	BelieveInMyselfSA2B_exg  0
	#define	BelieveInMyselfSA2B_cmp  1

	// .rodata
	//	BelieveInMyselfSA2B
	ALIGN 4


//**************** Track 1 (Midi-Chn.0) ****************//

BelieveInMyselfSA2B_001:
//  #01 //000   ----------------------------------------
 BYTE   KEYSH   BelieveInMyselfSA2B_key+0
Label_010068CE:
 BYTE   TEMPO   172*BelieveInMyselfSA2B_tbs/2
 BYTE   VOICE   28
 BYTE   VOL   77*BelieveInMyselfSA2B_mvl/mxv
 BYTE   PAN   c_v+0
 BYTE   W96
//  #01 //001   ----------------------------------------
 BYTE   W96
//  #01 //002   ----------------------------------------
 BYTE   W96
//  #01 //003   ----------------------------------------
 BYTE   W96
//  #01 //004   ----------------------------------------
 BYTE   W96
//  #01 //005   ----------------------------------------
 BYTE   W96
//  #01 //006   ----------------------------------------
 BYTE   W96
//  #01 //007   ----------------------------------------
 BYTE   W96
//  #01 //008   ----------------------------------------
Label_010068DE:
 BYTE   N32  En3  v112
 BYTE   W36
 BYTE   N32
 BYTE   W36
 BYTE   N22  Cs3
 BYTE   W24
 BYTE   PEND 
//  #01 //009   ----------------------------------------
Label_010068E8:
 BYTE   N32  En3  v112
 BYTE   W36
 BYTE   N32
 BYTE   W36
 BYTE   N22
 BYTE   W24
 BYTE   PEND 
//  #01 //010   ----------------------------------------
Label_010068F1:
 BYTE   N68  Fn3  v112
 BYTE   W72
 BYTE   N22
 BYTE   W24
 BYTE   PEND 
//  #01 //011   ----------------------------------------
Label_010068F8:
 BYTE   N32  Fn3  v112
 BYTE   W36
 BYTE   N22  Fs3
 BYTE   W24
 BYTE   N11
 BYTE   W12
 BYTE   N22  Gs3
 BYTE   W24
 BYTE   PEND 
//  #01 //012   ----------------------------------------
Label_01006905:
 BYTE   N11  An3  v112
 BYTE   W12
 BYTE   N22  Gs3
 BYTE   W24
 BYTE   TIE  Fs3
 BYTE   W60
 BYTE   PEND 
//  #01 //013   ----------------------------------------
 BYTE   W88
 BYTE   EOT
 BYTE   W08
//  #01 //014   ----------------------------------------
Label_01006913:
 BYTE   W24
 BYTE   N11  Dn3  v112
 BYTE   W12
 BYTE   N11
 BYTE   W12
 BYTE   N22
 BYTE   W24
 BYTE   N44
 BYTE   W24
 BYTE   PEND 
//  #01 //015   ----------------------------------------
 BYTE   W24
 BYTE   N11  Fn3
 BYTE   W12
 BYTE   N11
 BYTE   W12
 BYTE   N11
 BYTE   W12
 BYTE   N11
 BYTE   W12
 BYTE   N22
 BYTE   W24
//  #01 //016   ----------------------------------------
 BYTE   N32  En3
 BYTE   W36
 BYTE   Cs3
 BYTE   W36
 BYTE   N22
 BYTE   W24
//  #01 //017   ----------------------------------------
 BYTE   N90  En3
 BYTE   W96
//  #01 //018   ----------------------------------------
 BYTE   W96
//  #01 //019   ----------------------------------------
 BYTE   PATT
  POIN2 Label_010068DE
//  #01 //020   ----------------------------------------
 BYTE   PATT
  POIN2 Label_010068E8
//  #01 //021   ----------------------------------------
 BYTE   PATT
  POIN2 Label_010068F1
//  #01 //022   ----------------------------------------
 BYTE   PATT
  POIN2 Label_010068F8
//  #01 //023   ----------------------------------------
 BYTE   PATT
  POIN2 Label_01006905
//  #01 //024   ----------------------------------------
 BYTE   W88
 BYTE   EOT
 BYTE   Fs3
 BYTE   W08
//  #01 //025   ----------------------------------------
 BYTE   PATT
  POIN2 Label_01006913
//  #01 //026   ----------------------------------------
 BYTE   W24
 BYTE   N22  Fn3  v112
 BYTE   W24
 BYTE   N22
 BYTE   W24
 BYTE   N22
 BYTE   W24
//  #01 //027   ----------------------------------------
 BYTE   W24
 BYTE   N11  En3
 BYTE   W12
 BYTE   N11
 BYTE   W12
 BYTE   N22
 BYTE   W24
 BYTE   N22
 BYTE   W24
//  #01 //028   ----------------------------------------
 BYTE   N90  Ds3
 BYTE   W96
//  #01 //029   ----------------------------------------
 BYTE   Fs3
 BYTE   W96
//  #01 //030   ----------------------------------------
Label_01006970:
 BYTE   W24
 BYTE   N22  Fs3  v112
 BYTE   W24
 BYTE   N22
 BYTE   W24
 BYTE   An3
 BYTE   W24
 BYTE   PEND 
//  #01 //031   ----------------------------------------
 BYTE   N32  Gs3
 BYTE   W36
 BYTE   N56  Fs3
 BYTE   W60
//  #01 //032   ----------------------------------------
 BYTE   PATT
  POIN2 Label_01006970
//  #01 //033   ----------------------------------------
Label_01006985:
 BYTE   N11  Gs3  v112
 BYTE   W12
 BYTE   N22  Fs3
 BYTE   W24
 BYTE   N32  Dn3
 BYTE   W36
 BYTE   N22  En3
 BYTE   W24
 BYTE   PEND 
//  #01 //034   ----------------------------------------
Label_01006993:
 BYTE   N44  Cs3  v112
 BYTE   W72
 BYTE   N11  En3
 BYTE   W12
 BYTE   N11
 BYTE   W12
 BYTE   PEND 
//  #01 //035   ----------------------------------------
 BYTE   PATT
  POIN2 Label_010068E8
//  #01 //036   ----------------------------------------
 BYTE   N90  Ds3  v112
 BYTE   W96
//  #01 //037   ----------------------------------------
Label_010069A6:
 BYTE   N68  Fs3  v112
 BYTE   W72
 BYTE   N22
 BYTE   W24
 BYTE   PEND 
//  #01 //038   ----------------------------------------
 BYTE   N90  Dn3
 BYTE   W96
//  #01 //039   ----------------------------------------
 BYTE   Fs3
 BYTE   W96
//  #01 //040   ----------------------------------------
 BYTE   W24
 BYTE   N11  Fn3
 BYTE   W12
 BYTE   N11
 BYTE   W12
 BYTE   N22
 BYTE   W24
 BYTE   N22
 BYTE   W24
//  #01 //041   ----------------------------------------
 BYTE   Gn3
 BYTE   W24
 BYTE   N22
 BYTE   W24
 BYTE   N22
 BYTE   W24
 BYTE   N22
 BYTE   W24
//  #01 //042   ----------------------------------------
 BYTE   W96
//  #01 //043   ----------------------------------------
Label_010069C5:
 BYTE   N32  En3  v112
 BYTE   N32  An3
 BYTE   W36
 BYTE   En3
 BYTE   N32  An3
 BYTE   W36
 BYTE   N22  Cs3
 BYTE   N22  En3
 BYTE   W24
 BYTE   PEND 
//  #01 //044   ----------------------------------------
Label_010069D5:
 BYTE   N44  An2  v112
 BYTE   N44  Dn3
 BYTE   W48
 BYTE   TIE  En3
 BYTE   TIE  An3
 BYTE   W48
 BYTE   PEND 
//  #01 //045   ----------------------------------------
 BYTE   W88
 BYTE   EOT
 BYTE   En3  v069
 BYTE   W08
//  #01 //046   ----------------------------------------
 BYTE   W96
//  #01 //047   ----------------------------------------
Label_010069E7:
 BYTE   N32  Dn3  v112
 BYTE   W36
 BYTE   N32
 BYTE   W36
 BYTE   N22  Fs3
 BYTE   W24
 BYTE   PEND 
//  #01 //048   ----------------------------------------
 BYTE   N44  En3
 BYTE   W48
 BYTE   An3
 BYTE   W48
//  #01 //049   ----------------------------------------
Label_010069F6:
 BYTE   N32  Fs3  v112
 BYTE   W36
 BYTE   N32
 BYTE   W36
 BYTE   N22  An3
 BYTE   W24
 BYTE   PEND 
//  #01 //050   ----------------------------------------
 BYTE   Gs3
 BYTE   W24
 BYTE   An3
 BYTE   W24
 BYTE   Bn3
 BYTE   W24
 BYTE   N22
 BYTE   W24
//  #01 //051   ----------------------------------------
 BYTE   PATT
  POIN2 Label_010069C5
//  #01 //052   ----------------------------------------
 BYTE   PATT
  POIN2 Label_010069D5
//  #01 //053   ----------------------------------------
 BYTE   W88
 BYTE   EOT
 BYTE   En3  v069
 BYTE   W08
//  #01 //054   ----------------------------------------
 BYTE   W96
//  #01 //055   ----------------------------------------
 BYTE   PATT
  POIN2 Label_010069E7
//  #01 //056   ----------------------------------------
 BYTE   N44  En3  v112
 BYTE   W48
 BYTE   An3
 BYTE   W48
//  #01 //057   ----------------------------------------
 BYTE   PATT
  POIN2 Label_010069F6
//  #01 //058   ----------------------------------------
Label_01006A28:
 BYTE   N44  Gs3  v112
 BYTE   W48
 BYTE   Bn3
 BYTE   W48
 BYTE   PEND 
//  #01 //059   ----------------------------------------
 BYTE   N90  An3
 BYTE   W96
//  #01 //060   ----------------------------------------
 BYTE   W96
//  #01 //061   ----------------------------------------
 BYTE   W96
//  #01 //062   ----------------------------------------
 BYTE   W96
//  #01 //063   ----------------------------------------
 BYTE   W96
//  #01 //064   ----------------------------------------
 BYTE   W96
//  #01 //065   ----------------------------------------
 BYTE   W96
//  #01 //066   ----------------------------------------
 BYTE   W96
//  #01 //067   ----------------------------------------
 BYTE   PATT
  POIN2 Label_010068DE
//  #01 //068   ----------------------------------------
 BYTE   PATT
  POIN2 Label_010068E8
//  #01 //069   ----------------------------------------
 BYTE   PATT
  POIN2 Label_010068F1
//  #01 //070   ----------------------------------------
 BYTE   PATT
  POIN2 Label_010068F8
//  #01 //071   ----------------------------------------
 BYTE   PATT
  POIN2 Label_01006905
//  #01 //072   ----------------------------------------
 BYTE   W88
 BYTE   EOT
 BYTE   Fs3
 BYTE   W08
//  #01 //073   ----------------------------------------
 BYTE   W24
 BYTE   N22  Dn3  v112
 BYTE   W24
 BYTE   N22
 BYTE   W24
 BYTE   N22
 BYTE   W24
//  #01 //074   ----------------------------------------
Label_01006A5F:
 BYTE   N32  Fn3  v112
 BYTE   W36
 BYTE   N32
 BYTE   W36
 BYTE   N22
 BYTE   W24
 BYTE   PEND 
//  #01 //075   ----------------------------------------
 BYTE   PATT
  POIN2 Label_010068E8
//  #01 //076   ----------------------------------------
 BYTE   N44  Ds3  v112
 BYTE   W48
 BYTE   TIE  Fs3
 BYTE   W48
//  #01 //077   ----------------------------------------
 BYTE   W88
 BYTE   EOT
 BYTE   W08
//  #01 //078   ----------------------------------------
 BYTE   PATT
  POIN2 Label_01006970
//  #01 //079   ----------------------------------------
 BYTE   N11  Gs3  v112
 BYTE   W12
 BYTE   N22  Fs3
 BYTE   W24
 BYTE   N56
 BYTE   W60
//  #01 //080   ----------------------------------------
Label_01006A85:
 BYTE   W24
 BYTE   N44  Fs3  v112
 BYTE   W48
 BYTE   N22  An3
 BYTE   W24
 BYTE   PEND 
//  #01 //081   ----------------------------------------
 BYTE   PATT
  POIN2 Label_01006985
//  #01 //082   ----------------------------------------
 BYTE   PATT
  POIN2 Label_01006993
//  #01 //083   ----------------------------------------
 BYTE   PATT
  POIN2 Label_010068E8
//  #01 //084   ----------------------------------------
 BYTE   N90  Ds3  v112
 BYTE   W96
//  #01 //085   ----------------------------------------
 BYTE   PATT
  POIN2 Label_010069A6
//  #01 //086   ----------------------------------------
 BYTE   N90  Dn3  v112
 BYTE   W96
//  #01 //087   ----------------------------------------
 BYTE   Fs3
 BYTE   W96
//  #01 //088   ----------------------------------------
 BYTE   PATT
  POIN2 Label_01006A5F
//  #01 //089   ----------------------------------------
 BYTE   N22  Gn3  v112
 BYTE   W24
 BYTE   N22
 BYTE   W24
 BYTE   N44
 BYTE   W48
//  #01 //090   ----------------------------------------
 BYTE   W96
//  #01 //091   ----------------------------------------
 BYTE   N32  En3
 BYTE   N32  An3
 BYTE   W36
 BYTE   N22  En3
 BYTE   N22  An3
 BYTE   W24
 BYTE   N11  Cs3
 BYTE   N11  En3
 BYTE   W12
 BYTE   N22  Cs3
 BYTE   N22  En3
 BYTE   W24
//  #01 //092   ----------------------------------------
 BYTE   PATT
  POIN2 Label_010069D5
//  #01 //093   ----------------------------------------
 BYTE   W88
 BYTE   EOT
 BYTE   En3  v069
 BYTE   W08
//  #01 //094   ----------------------------------------
 BYTE   W96
//  #01 //095   ----------------------------------------
 BYTE   N22  Dn3  v112
 BYTE   W24
 BYTE   N11
 BYTE   W12
 BYTE   N32
 BYTE   W36
 BYTE   N11  Fs3
 BYTE   W12
 BYTE   N11
 BYTE   W12
//  #01 //096   ----------------------------------------
 BYTE   N44  En3
 BYTE   W48
 BYTE   An3
 BYTE   W48
//  #01 //097   ----------------------------------------
 BYTE   PATT
  POIN2 Label_010069F6
//  #01 //098   ----------------------------------------
 BYTE   PATT
  POIN2 Label_01006A28
//  #01 //099   ----------------------------------------
 BYTE   PATT
  POIN2 Label_010069C5
//  #01 //100   ----------------------------------------
 BYTE   PATT
  POIN2 Label_010069D5
//  #01 //101   ----------------------------------------
 BYTE   W88
 BYTE   EOT
 BYTE   En3  v069
 BYTE   W08
//  #01 //102   ----------------------------------------
 BYTE   W96
//  #01 //103   ----------------------------------------
 BYTE   PATT
  POIN2 Label_010069E7
//  #01 //104   ----------------------------------------
 BYTE   N44  En3  v112
 BYTE   W48
 BYTE   An3
 BYTE   W48
//  #01 //105   ----------------------------------------
 BYTE   N22  Fs3
 BYTE   W24
 BYTE   N11
 BYTE   W12
 BYTE   N11
 BYTE   W12
 BYTE   N22
 BYTE   W24
 BYTE   An3
 BYTE   W24
//  #01 //106   ----------------------------------------
 BYTE   PATT
  POIN2 Label_01006A28
//  #01 //107   ----------------------------------------
 BYTE   N90  An3  v112
 BYTE   W96
//  #01 //108   ----------------------------------------
 BYTE   W96
//  #01 //109   ----------------------------------------
 BYTE   W96
//  #01 //110   ----------------------------------------
 BYTE   W96
//  #01 //111   ----------------------------------------
 BYTE   W96
//  #01 //112   ----------------------------------------
 BYTE   W96
//  #01 //113   ----------------------------------------
 BYTE   W96
//  #01 //114   ----------------------------------------
 BYTE   W96
//  #01 //115   ----------------------------------------
 BYTE   W96
//  #01 //116   ----------------------------------------
 BYTE   W96
//  #01 //117   ----------------------------------------
 BYTE   W96
//  #01 //118   ----------------------------------------
 BYTE   W96
//  #01 //119   ----------------------------------------
 BYTE   W96
//  #01 //120   ----------------------------------------
 BYTE   W96
//  #01 //121   ----------------------------------------
 BYTE   W96
//  #01 //122   ----------------------------------------
 BYTE   W96
//  #01 //123   ----------------------------------------
 BYTE   PATT
  POIN2 Label_01006970
//  #01 //124   ----------------------------------------
 BYTE   N22  Gn3  v112
 BYTE   W24
 BYTE   N11
 BYTE   W12
 BYTE   N56  Dn3
 BYTE   W60
//  #01 //125   ----------------------------------------
 BYTE   W24
 BYTE   N11  Fs3
 BYTE   W12
 BYTE   N11
 BYTE   W12
 BYTE   N22
 BYTE   W24
 BYTE   Dn3
 BYTE   W24
//  #01 //126   ----------------------------------------
 BYTE   N32  Cs3
 BYTE   W36
 BYTE   Dn3
 BYTE   W36
 BYTE   N22  En3
 BYTE   W24
//  #01 //127   ----------------------------------------
 BYTE   PATT
  POIN2 Label_01006A85
//  #01 //128   ----------------------------------------
 BYTE   N32  Gn3  v112
 BYTE   W36
 BYTE   N22  Dn3
 BYTE   W24
 BYTE   N11
 BYTE   W12
 BYTE   N22  Gn3
 BYTE   W24
//  #01 //129   ----------------------------------------
 BYTE   N90  Fs3
 BYTE   W96
//  #01 //130   ----------------------------------------
 BYTE   N32
 BYTE   W36
 BYTE   En3
 BYTE   W36
 BYTE   N22  Dn3
 BYTE   W24
//  #01 //131   ----------------------------------------
 BYTE   N32  En3
 BYTE   W36
 BYTE   N32
 BYTE   W36
 BYTE   N11  Bn2
 BYTE   W12
 BYTE   N11
 BYTE   W12
//  #01 //132   ----------------------------------------
 BYTE   N22  En3
 BYTE   W24
 BYTE   N22
 BYTE   W24
 BYTE   N44
 BYTE   W48
//  #01 //133   ----------------------------------------
 BYTE   N32  Ds3
 BYTE   W36
 BYTE   Fn3
 BYTE   W36
 BYTE   N22  Gn3
 BYTE   W24
//  #01 //134   ----------------------------------------
 BYTE   N90  Fs3
 BYTE   N90  As3
 BYTE   W96
//  #01 //135   ----------------------------------------
 BYTE   W96
//  #01 //136   ----------------------------------------
Label_01006B8D:
 BYTE   N32  En3  v127
 BYTE   N32  An3
 BYTE   W36
 BYTE   En3
 BYTE   N32  An3
 BYTE   W36
 BYTE   N22  Cs3
 BYTE   N22  En3
 BYTE   W24
 BYTE   PEND 
//  #01 //137   ----------------------------------------
Label_01006B9D:
 BYTE   N44  An2  v127
 BYTE   N44  Dn3
 BYTE   W48
 BYTE   TIE  En3
 BYTE   TIE  An3
 BYTE   W48
 BYTE   PEND 
//  #01 //138   ----------------------------------------
 BYTE   W88
 BYTE   EOT
 BYTE   En3  v069
 BYTE   W08
//  #01 //139   ----------------------------------------
 BYTE   W96
//  #01 //140   ----------------------------------------
Label_01006BAF:
 BYTE   N32  Dn3  v127
 BYTE   W36
 BYTE   N32
 BYTE   W36
 BYTE   N22  Fs3
 BYTE   W24
 BYTE   PEND 
//  #01 //141   ----------------------------------------
 BYTE   N44  En3
 BYTE   W48
 BYTE   An3
 BYTE   W48
//  #01 //142   ----------------------------------------
Label_01006BBE:
 BYTE   N32  Fs3  v127
 BYTE   W36
 BYTE   N32
 BYTE   W36
 BYTE   N22  An3
 BYTE   W24
 BYTE   PEND 
//  #01 //143   ----------------------------------------
 BYTE   Gs3
 BYTE   W24
 BYTE   An3
 BYTE   W24
 BYTE   Bn3
 BYTE   W24
 BYTE   N22
 BYTE   W24
//  #01 //144   ----------------------------------------
 BYTE   PATT
  POIN2 Label_01006B8D
//  #01 //145   ----------------------------------------
 BYTE   PATT
  POIN2 Label_01006B9D
//  #01 //146   ----------------------------------------
 BYTE   W88
 BYTE   EOT
 BYTE   En3  v069
 BYTE   W08
//  #01 //147   ----------------------------------------
 BYTE   W96
//  #01 //148   ----------------------------------------
 BYTE   PATT
  POIN2 Label_01006BAF
//  #01 //149   ----------------------------------------
 BYTE   N44  En3  v127
 BYTE   W48
 BYTE   An3
 BYTE   W48
//  #01 //150   ----------------------------------------
 BYTE   PATT
  POIN2 Label_01006BBE
//  #01 //151   ----------------------------------------
 BYTE   N44  Gs3  v127
 BYTE   W48
 BYTE   Bn3
 BYTE   W48
//  #01 //152   ----------------------------------------
 BYTE   TIE  An3
 BYTE   W96
//  #01 //153   ----------------------------------------
 BYTE   W84
 BYTE   W02
 BYTE   EOT
 BYTE   W10
//  #01 //154   ----------------------------------------
 BYTE   W96
//  #01 //155   ----------------------------------------
 BYTE   W96
//  #01 //156   ----------------------------------------
 BYTE   W96
//  #01 //157   ----------------------------------------
 BYTE   W96
//  #01 //158   ----------------------------------------
 BYTE   W96
//  #01 //159   ----------------------------------------
 BYTE   N44  Fn3
 BYTE   W48
 BYTE   En3
 BYTE   W48
//  #01 //160   ----------------------------------------
 BYTE   TIE  An2
 BYTE   W96
//  #01 //161   ----------------------------------------
 BYTE   W84
 BYTE   W02
 BYTE   EOT
 BYTE   GoTo
  POIN2 Label_010068CE
 BYTE   FINE

//**************** Track 2 (Midi-Chn.1) ****************//

BelieveInMyselfSA2B_002:
//  #02 //000   ----------------------------------------
 BYTE   KEYSH   BelieveInMyselfSA2B_key+0
Label_01006C2A:
 BYTE   VOICE   46
 BYTE   VOL   77*BelieveInMyselfSA2B_mvl/mxv
 BYTE   PAN   c_v+0
 BYTE   N44  Cs3  v112
 BYTE   W48
 BYTE   An2
 BYTE   W48
//  #02 //001   ----------------------------------------
Label_01006C36:
 BYTE   N44  Fn2  v112
 BYTE   W48
 BYTE   Bn2
 BYTE   W48
 BYTE   PEND 
//  #02 //002   ----------------------------------------
Label_01006C3D:
 BYTE   N11  Bn2  v112
 BYTE   W12
 BYTE   Cs3
 BYTE   W12
 BYTE   Bn2
 BYTE   W12
 BYTE   N56  An2
 BYTE   W60
 BYTE   PEND 
//  #02 //003   ----------------------------------------
Label_01006C49:
 BYTE   N11  Bn2  v112
 BYTE   W12
 BYTE   Cs3
 BYTE   W12
 BYTE   An2
 BYTE   W12
 BYTE   N44  Gn2
 BYTE   W48
 BYTE   N11  En3
 BYTE   W12
 BYTE   PEND 
//  #02 //004   ----------------------------------------
 BYTE   Dn3
 BYTE   W12
 BYTE   En3
 BYTE   W12
 BYTE   Dn3
 BYTE   W12
 BYTE   N22  Cs3
 BYTE   W24
 BYTE   N11  An2
 BYTE   W12
 BYTE   N22  Fs2
 BYTE   W24
//  #02 //005   ----------------------------------------
Label_01006C67:
 BYTE   N44  An2  v112
 BYTE   W48
 BYTE   N22  Fs2
 BYTE   W24
 BYTE   An2
 BYTE   W24
 BYTE   PEND 
//  #02 //006   ----------------------------------------
 BYTE   N11  Dn3
 BYTE   W12
 BYTE   En3
 BYTE   W12
 BYTE   Dn3
 BYTE   W12
 BYTE   N22  Cn3
 BYTE   W24
 BYTE   N11  An2
 BYTE   W12
 BYTE   N22  Fn2
 BYTE   W24
//  #02 //007   ----------------------------------------
Label_01006C81:
 BYTE   N44  An2  v112
 BYTE   N44  Fn3
 BYTE   W48
 BYTE   Bn2
 BYTE   N44  Gn3
 BYTE   W48
 BYTE   PEND 
//  #02 //008   ----------------------------------------
 BYTE   N90  An3  v096
 BYTE   W96
//  #02 //009   ----------------------------------------
Label_01006C90:
 BYTE   N44  Bn3  v096
 BYTE   W48
 BYTE   N22  Cs4
 BYTE   W24
 BYTE   An3
 BYTE   W24
 BYTE   PEND 
//  #02 //010   ----------------------------------------
Label_01006C9A:
 BYTE   N44  Bn3  v096
 BYTE   W48
 BYTE   Gs3
 BYTE   W48
 BYTE   PEND 
//  #02 //011   ----------------------------------------
Label_01006CA1:
 BYTE   N44  Bn3  v096
 BYTE   W48
 BYTE   N22  Cs4
 BYTE   W24
 BYTE   Gs3
 BYTE   W24
 BYTE   PEND 
//  #02 //012   ----------------------------------------
 BYTE   N90  An3
 BYTE   W96
//  #02 //013   ----------------------------------------
Label_01006CAE:
 BYTE   N44  Bn3  v096
 BYTE   W48
 BYTE   N22  Cs4
 BYTE   W24
 BYTE   TIE  An3
 BYTE   W24
 BYTE   PEND 
//  #02 //014   ----------------------------------------
 BYTE   W88
 BYTE   W01
 BYTE   EOT
 BYTE   W07
//  #02 //015   ----------------------------------------
 BYTE   W96
//  #02 //016   ----------------------------------------
 BYTE   W96
//  #02 //017   ----------------------------------------
 BYTE   W96
//  #02 //018   ----------------------------------------
 BYTE   N44  En3
 BYTE   W48
 BYTE   N22  Dn3
 BYTE   W24
 BYTE   En3
 BYTE   W24
//  #02 //019   ----------------------------------------
 BYTE   N90  An3
 BYTE   W96
//  #02 //020   ----------------------------------------
 BYTE   PATT
  POIN2 Label_01006C90
//  #02 //021   ----------------------------------------
 BYTE   PATT
  POIN2 Label_01006C9A
//  #02 //022   ----------------------------------------
 BYTE   PATT
  POIN2 Label_01006CA1
//  #02 //023   ----------------------------------------
 BYTE   N90  An3  v096
 BYTE   W96
//  #02 //024   ----------------------------------------
 BYTE   PATT
  POIN2 Label_01006CAE
//  #02 //025   ----------------------------------------
 BYTE   W88
 BYTE   W01
 BYTE   EOT
 BYTE   An3
 BYTE   W07
//  #02 //026   ----------------------------------------
 BYTE   W96
//  #02 //027   ----------------------------------------
 BYTE   W96
//  #02 //028   ----------------------------------------
 BYTE   W96
//  #02 //029   ----------------------------------------
 BYTE   W96
//  #02 //030   ----------------------------------------
Label_01006CEC:
 BYTE   N11  Fs2  v112
 BYTE   W12
 BYTE   Cs2
 BYTE   W12
 BYTE   Fs2
 BYTE   W12
 BYTE   N22  Gs2
 BYTE   W24
 BYTE   N32  An2
 BYTE   W36
 BYTE   PEND 
//  #02 //031   ----------------------------------------
 BYTE   W96
//  #02 //032   ----------------------------------------
 BYTE   PATT
  POIN2 Label_01006CEC
//  #02 //033   ----------------------------------------
 BYTE   W96
//  #02 //034   ----------------------------------------
 BYTE   W96
//  #02 //035   ----------------------------------------
Label_01006D03:
 BYTE   N32  An3  v112
 BYTE   W72
 BYTE   N22  Cs3
 BYTE   W24
 BYTE   PEND 
//  #02 //036   ----------------------------------------
 BYTE   W96
//  #02 //037   ----------------------------------------
Label_01006D0C:
 BYTE   N32  An3  v112
 BYTE   W36
 BYTE   En3
 BYTE   W36
 BYTE   N22  Ds3
 BYTE   W24
 BYTE   PEND 
//  #02 //038   ----------------------------------------
 BYTE   W96
//  #02 //039   ----------------------------------------
Label_01006D17:
 BYTE   N32  An3  v112
 BYTE   W36
 BYTE   En3
 BYTE   W36
 BYTE   N22  Dn3
 BYTE   W24
 BYTE   PEND 
//  #02 //040   ----------------------------------------
 BYTE   W96
//  #02 //041   ----------------------------------------
 BYTE   W96
//  #02 //042   ----------------------------------------
Label_01006D23:
 BYTE   N22  Bn4  v112
 BYTE   W24
 BYTE   Gn4
 BYTE   W24
 BYTE   Dn4
 BYTE   W24
 BYTE   Bn3
 BYTE   W24
 BYTE   PEND 
//  #02 //043   ----------------------------------------
 BYTE   W96
//  #02 //044   ----------------------------------------
 BYTE   W96
//  #02 //045   ----------------------------------------
Label_01006D30:
 BYTE   W24
 BYTE   N22  An2  v112
 BYTE   W24
 BYTE   N22
 BYTE   W24
 BYTE   Bn2
 BYTE   W24
 BYTE   PEND 
//  #02 //046   ----------------------------------------
Label_01006D3A:
 BYTE   N22  Cs3  v112
 BYTE   W24
 BYTE   En2
 BYTE   W24
 BYTE   Dn2
 BYTE   W24
 BYTE   N22
 BYTE   W24
 BYTE   PEND 
//  #02 //047   ----------------------------------------
 BYTE   W96
//  #02 //048   ----------------------------------------
 BYTE   W48
 BYTE   N44  Gs4
 BYTE   W48
//  #02 //049   ----------------------------------------
 BYTE   W48
 BYTE   An4
 BYTE   W48
//  #02 //050   ----------------------------------------
 BYTE   W48
 BYTE   Bn4
 BYTE   W48
//  #02 //051   ----------------------------------------
 BYTE   W96
//  #02 //052   ----------------------------------------
 BYTE   W96
//  #02 //053   ----------------------------------------
 BYTE   PATT
  POIN2 Label_01006D30
//  #02 //054   ----------------------------------------
Label_01006D57:
 BYTE   N22  Cs3  v112
 BYTE   W24
 BYTE   En2
 BYTE   W24
 BYTE   N44  Dn2
 BYTE   W48
 BYTE   PEND 
//  #02 //055   ----------------------------------------
 BYTE   W96
//  #02 //056   ----------------------------------------
 BYTE   W96
//  #02 //057   ----------------------------------------
 BYTE   W96
//  #02 //058   ----------------------------------------
 BYTE   W96
//  #02 //059   ----------------------------------------
 BYTE   Cs3
 BYTE   W48
 BYTE   An2
 BYTE   W48
//  #02 //060   ----------------------------------------
 BYTE   PATT
  POIN2 Label_01006C36
//  #02 //061   ----------------------------------------
 BYTE   PATT
  POIN2 Label_01006C3D
//  #02 //062   ----------------------------------------
 BYTE   PATT
  POIN2 Label_01006C49
//  #02 //063   ----------------------------------------
 BYTE   N11  Dn3  v112
 BYTE   W12
 BYTE   En3
 BYTE   W12
 BYTE   Dn3
 BYTE   W12
 BYTE   N22  Cs3
 BYTE   W24
 BYTE   An2
 BYTE   W24
 BYTE   N11  Fs2
 BYTE   W12
//  #02 //064   ----------------------------------------
 BYTE   PATT
  POIN2 Label_01006C67
//  #02 //065   ----------------------------------------
 BYTE   N11  Dn3  v112
 BYTE   W12
 BYTE   En3
 BYTE   W12
 BYTE   Dn3
 BYTE   W12
 BYTE   N22  Cn3
 BYTE   W24
 BYTE   An2
 BYTE   W24
 BYTE   N11  Fn2
 BYTE   W12
//  #02 //066   ----------------------------------------
 BYTE   PATT
  POIN2 Label_01006C81
//  #02 //067   ----------------------------------------
 BYTE   N90  An3  v096
 BYTE   W96
//  #02 //068   ----------------------------------------
 BYTE   PATT
  POIN2 Label_01006C90
//  #02 //069   ----------------------------------------
 BYTE   PATT
  POIN2 Label_01006C9A
//  #02 //070   ----------------------------------------
 BYTE   PATT
  POIN2 Label_01006CA1
//  #02 //071   ----------------------------------------
 BYTE   N90  An3  v096
 BYTE   W96
//  #02 //072   ----------------------------------------
 BYTE   PATT
  POIN2 Label_01006CAE
//  #02 //073   ----------------------------------------
 BYTE   W88
 BYTE   W01
 BYTE   EOT
 BYTE   An3
 BYTE   W07
//  #02 //074   ----------------------------------------
 BYTE   W96
//  #02 //075   ----------------------------------------
 BYTE   W96
//  #02 //076   ----------------------------------------
 BYTE   W96
//  #02 //077   ----------------------------------------
 BYTE   W96
//  #02 //078   ----------------------------------------
 BYTE   PATT
  POIN2 Label_01006CEC
//  #02 //079   ----------------------------------------
 BYTE   W96
//  #02 //080   ----------------------------------------
 BYTE   PATT
  POIN2 Label_01006CEC
//  #02 //081   ----------------------------------------
 BYTE   W96
//  #02 //082   ----------------------------------------
 BYTE   W96
//  #02 //083   ----------------------------------------
 BYTE   PATT
  POIN2 Label_01006D03
//  #02 //084   ----------------------------------------
 BYTE   W96
//  #02 //085   ----------------------------------------
 BYTE   PATT
  POIN2 Label_01006D0C
//  #02 //086   ----------------------------------------
 BYTE   W96
//  #02 //087   ----------------------------------------
 BYTE   PATT
  POIN2 Label_01006D17
//  #02 //088   ----------------------------------------
 BYTE   W96
//  #02 //089   ----------------------------------------
 BYTE   W96
//  #02 //090   ----------------------------------------
 BYTE   PATT
  POIN2 Label_01006D23
//  #02 //091   ----------------------------------------
 BYTE   W96
//  #02 //092   ----------------------------------------
 BYTE   W96
//  #02 //093   ----------------------------------------
 BYTE   PATT
  POIN2 Label_01006D30
//  #02 //094   ----------------------------------------
 BYTE   PATT
  POIN2 Label_01006D3A
//  #02 //095   ----------------------------------------
 BYTE   W96
//  #02 //096   ----------------------------------------
 BYTE   W48
 BYTE   N44  Gs4  v112
 BYTE   W48
//  #02 //097   ----------------------------------------
 BYTE   W48
 BYTE   An4
 BYTE   W48
//  #02 //098   ----------------------------------------
 BYTE   W48
 BYTE   Bn4
 BYTE   W48
//  #02 //099   ----------------------------------------
 BYTE   W96
//  #02 //100   ----------------------------------------
 BYTE   W96
//  #02 //101   ----------------------------------------
 BYTE   PATT
  POIN2 Label_01006D30
//  #02 //102   ----------------------------------------
 BYTE   PATT
  POIN2 Label_01006D57
//  #02 //103   ----------------------------------------
 BYTE   W96
//  #02 //104   ----------------------------------------
 BYTE   W96
//  #02 //105   ----------------------------------------
 BYTE   W96
//  #02 //106   ----------------------------------------
 BYTE   W96
//  #02 //107   ----------------------------------------
 BYTE   W12
 BYTE   N11  Cs4  v112
 BYTE   W12
 BYTE   Dn4
 BYTE   W12
 BYTE   N22  An3
 BYTE   W24
 BYTE   N11  En3
 BYTE   W12
 BYTE   N22  Cs3
 BYTE   W24
//  #02 //108   ----------------------------------------
 BYTE   Gs2
 BYTE   W24
 BYTE   N11  Cs3
 BYTE   W12
 BYTE   N22  Fn3
 BYTE   W24
 BYTE   N11  Gs3
 BYTE   W12
 BYTE   Cs4
 BYTE   W12
 BYTE   Fn4
 BYTE   W12
//  #02 //109   ----------------------------------------
 BYTE   Fs4
 BYTE   W12
 BYTE   N22  Cs4
 BYTE   W24
 BYTE   N11  Fs3
 BYTE   W12
 BYTE   N11
 BYTE   W12
 BYTE   Gs3
 BYTE   W12
 BYTE   N11
 BYTE   W12
 BYTE   An3
 BYTE   W12
//  #02 //110   ----------------------------------------
 BYTE   N22  Gn3
 BYTE   W24
 BYTE   N11  En4
 BYTE   W12
 BYTE   N32  Dn4
 BYTE   W60
//  #02 //111   ----------------------------------------
 BYTE   W12
 BYTE   N11  An3
 BYTE   W12
 BYTE   Dn4
 BYTE   W12
 BYTE   An3
 BYTE   W12
 BYTE   En4
 BYTE   W12
 BYTE   N22  Dn4
 BYTE   W24
 BYTE   N11  En4
 BYTE   W12
//  #02 //112   ----------------------------------------
 BYTE   N22  Fs4
 BYTE   W24
 BYTE   N11  En4
 BYTE   W12
 BYTE   N32  Dn4
 BYTE   W60
//  #02 //113   ----------------------------------------
 BYTE   W12
 BYTE   N11  An3
 BYTE   W12
 BYTE   Cn4
 BYTE   W12
 BYTE   An3
 BYTE   W12
 BYTE   Fn4
 BYTE   W12
 BYTE   Cn4
 BYTE   W12
 BYTE   Gn4
 BYTE   W12
 BYTE   N22  An4
 BYTE   W12
//  #02 //114   ----------------------------------------
 BYTE   W12
 BYTE   N11  Gn4
 BYTE   W12
 BYTE   Fn4
 BYTE   W12
 BYTE   N32  Gn4
 BYTE   W60
//  #02 //115   ----------------------------------------
 BYTE   N11  An3
 BYTE   N11  Cs4
 BYTE   W12
 BYTE   Bn3
 BYTE   N11  Dn4
 BYTE   W12
 BYTE   Cs4
 BYTE   N11  En4
 BYTE   W12
 BYTE   N32  En3
 BYTE   N32  An3
 BYTE   W36
 BYTE   N11  En3
 BYTE   N11  An3
 BYTE   W12
 BYTE   En3
 BYTE   N11  Gs3
 BYTE   W12
//  #02 //116   ----------------------------------------
 BYTE   Fn3
 BYTE   N11  Gs3
 BYTE   W12
 BYTE   Fs3
 BYTE   N11  An3
 BYTE   W12
 BYTE   Fn3
 BYTE   N11  Gs3
 BYTE   W12
 BYTE   N32  Cs3
 BYTE   N32  Fn3
 BYTE   W60
//  #02 //117   ----------------------------------------
 BYTE   N11  Cs3
 BYTE   N11  Fs3
 BYTE   W12
 BYTE   N11
 BYTE   N11  An3
 BYTE   W24
 BYTE   N11
 BYTE   N11  Cs4
 BYTE   W24
 BYTE   N11
 BYTE   N11  En4
 BYTE   W24
 BYTE   N22  Bn3
 BYTE   N22  Dn4
 BYTE   W12
//  #02 //118   ----------------------------------------
 BYTE   W12
 BYTE   N11  An3
 BYTE   N11  Cs4
 BYTE   W12
 BYTE   Gn3
 BYTE   N11  Bn3
 BYTE   W12
 BYTE   N56  Dn4
 BYTE   N56  Gn4
 BYTE   W60
//  #02 //119   ----------------------------------------
 BYTE   N11  En3
 BYTE   N11  An3
 BYTE   W12
 BYTE   N11
 BYTE   N11  Cs4
 BYTE   W24
 BYTE   Bn3
 BYTE   N11  Dn4
 BYTE   W24
 BYTE   Cs4
 BYTE   N11  En4
 BYTE   W24
 BYTE   N22  Dn4
 BYTE   N22  Fs4
 BYTE   W12
//  #02 //120   ----------------------------------------
 BYTE   W12
 BYTE   N11  En4
 BYTE   N11  Gn4
 BYTE   W12
 BYTE   Fs4
 BYTE   N11  An4
 BYTE   W12
 BYTE   N56  An3
 BYTE   N56  Dn4
 BYTE   W60
//  #02 //121   ----------------------------------------
 BYTE   N11  An4
 BYTE   W12
 BYTE   Gn4
 BYTE   W12
 BYTE   Fn4
 BYTE   W12
 BYTE   N22  Cn4
 BYTE   W24
 BYTE   N11  Cn5
 BYTE   W12
 BYTE   As4
 BYTE   W12
 BYTE   An4
 BYTE   W12
//  #02 //122   ----------------------------------------
 BYTE   Fn4
 BYTE   W24
 BYTE   Dn5
 BYTE   W12
 BYTE   Cn5
 BYTE   W12
 BYTE   Bn4
 BYTE   W12
 BYTE   Gn4
 BYTE   W24
 BYTE   N05  An4
 BYTE   W06
 BYTE   Gn4
 BYTE   W06
//  #02 //123   ----------------------------------------
 BYTE   N44  Fs4
 BYTE   W96
//  #02 //124   ----------------------------------------
 BYTE   N32  Gn2
 BYTE   W36
 BYTE   An2
 BYTE   W36
 BYTE   N68  Dn3
 BYTE   W24
//  #02 //125   ----------------------------------------
 BYTE   W96
//  #02 //126   ----------------------------------------
 BYTE   W96
//  #02 //127   ----------------------------------------
 BYTE   W96
//  #02 //128   ----------------------------------------
 BYTE   W96
//  #02 //129   ----------------------------------------
 BYTE   W96
//  #02 //130   ----------------------------------------
 BYTE   W96
//  #02 //131   ----------------------------------------
 BYTE   W96
//  #02 //132   ----------------------------------------
 BYTE   W96
//  #02 //133   ----------------------------------------
 BYTE   W96
//  #02 //134   ----------------------------------------
 BYTE   W96
//  #02 //135   ----------------------------------------
 BYTE   N22  Fs4
 BYTE   W24
 BYTE   Cs4
 BYTE   W24
 BYTE   N44  Gs4
 BYTE   W48
//  #02 //136   ----------------------------------------
 BYTE   W96
//  #02 //137   ----------------------------------------
 BYTE   W96
//  #02 //138   ----------------------------------------
Label_01006F34:
 BYTE   W24
 BYTE   N22  An2  v127
 BYTE   W24
 BYTE   N22
 BYTE   W24
 BYTE   Bn2
 BYTE   W24
 BYTE   PEND 
//  #02 //139   ----------------------------------------
 BYTE   Cs3
 BYTE   W24
 BYTE   En2
 BYTE   W24
 BYTE   Dn2
 BYTE   W24
 BYTE   N22
 BYTE   W24
//  #02 //140   ----------------------------------------
 BYTE   W48
 BYTE   N44  Fs4
 BYTE   W48
//  #02 //141   ----------------------------------------
 BYTE   W48
 BYTE   Gs4
 BYTE   W48
//  #02 //142   ----------------------------------------
 BYTE   W48
 BYTE   An4
 BYTE   W48
//  #02 //143   ----------------------------------------
 BYTE   W48
 BYTE   Bn4
 BYTE   W48
//  #02 //144   ----------------------------------------
 BYTE   W96
//  #02 //145   ----------------------------------------
 BYTE   W96
//  #02 //146   ----------------------------------------
 BYTE   PATT
  POIN2 Label_01006F34
//  #02 //147   ----------------------------------------
 BYTE   N22  Cs3  v127
 BYTE   W24
 BYTE   En2
 BYTE   W24
 BYTE   N44  Dn2
 BYTE   W48
//  #02 //148   ----------------------------------------
 BYTE   W48
 BYTE   Fs4
 BYTE   W48
//  #02 //149   ----------------------------------------
 BYTE   W48
 BYTE   Gs4
 BYTE   W48
//  #02 //150   ----------------------------------------
 BYTE   W48
 BYTE   An4
 BYTE   W48
//  #02 //151   ----------------------------------------
 BYTE   W48
 BYTE   Bn4
 BYTE   W48
//  #02 //152   ----------------------------------------
 BYTE   Cs3
 BYTE   W48
 BYTE   An2
 BYTE   W48
//  #02 //153   ----------------------------------------
 BYTE   Fn2
 BYTE   W48
 BYTE   Bn2
 BYTE   W48
//  #02 //154   ----------------------------------------
 BYTE   N11
 BYTE   W12
 BYTE   Cs3
 BYTE   W12
 BYTE   Bn2
 BYTE   W12
 BYTE   N56  An2
 BYTE   W60
//  #02 //155   ----------------------------------------
 BYTE   N11  Bn2
 BYTE   W12
 BYTE   Cs3
 BYTE   W12
 BYTE   An2
 BYTE   W12
 BYTE   N44  Gn2
 BYTE   W48
 BYTE   N11  En3
 BYTE   W12
//  #02 //156   ----------------------------------------
 BYTE   Dn3
 BYTE   W12
 BYTE   En3
 BYTE   W12
 BYTE   Dn3
 BYTE   W12
 BYTE   N22  Cs3
 BYTE   W24
 BYTE   An2
 BYTE   W24
 BYTE   N11  Fs2
 BYTE   W12
//  #02 //157   ----------------------------------------
 BYTE   N44  An2
 BYTE   W48
 BYTE   N22  Fs2
 BYTE   W24
 BYTE   An2
 BYTE   W24
//  #02 //158   ----------------------------------------
 BYTE   N11  Dn3
 BYTE   W12
 BYTE   En3
 BYTE   W12
 BYTE   Dn3
 BYTE   W12
 BYTE   N22  Cn3
 BYTE   W24
 BYTE   An2
 BYTE   W24
 BYTE   N11  Fn2
 BYTE   W12
//  #02 //159   ----------------------------------------
 BYTE   N44  An2
 BYTE   W48
 BYTE   Bn2
 BYTE   W48
//  #02 //160   ----------------------------------------
 BYTE   TIE  Cs2
 BYTE   TIE  En2
 BYTE   W96
//  #02 //161   ----------------------------------------
 BYTE   W84
 BYTE   W02
 BYTE   EOT
 BYTE   Cs2  v052
 BYTE   GoTo
  POIN2 Label_01006C2A
 BYTE   FINE

//**************** Track 3 (Midi-Chn.2) ****************//

BelieveInMyselfSA2B_003:
//  #03 //000   ----------------------------------------
 BYTE   KEYSH   BelieveInMyselfSA2B_key+0
Label_01006FDE:
 BYTE   VOICE   4
 BYTE   VOL   42*BelieveInMyselfSA2B_mvl/mxv
 BYTE   PAN   c_v+0
 BYTE   N90  An1  v096
 BYTE   N90  Cs2
 BYTE   N90  En2
 BYTE   W96
//  #03 //001   ----------------------------------------
 BYTE   Gs1
 BYTE   N90  Cs2
 BYTE   N90  Fn2
 BYTE   W96
//  #03 //002   ----------------------------------------
Label_01006FF2:
 BYTE   N90  An1  v096
 BYTE   N90  Cs2
 BYTE   N90  Fs2
 BYTE   W96
 BYTE   PEND 
//  #03 //003   ----------------------------------------
 BYTE   Bn1
 BYTE   N90  Dn2
 BYTE   N90  Gn2
 BYTE   W96
//  #03 //004   ----------------------------------------
Label_01007001:
 BYTE   N90  Fs2  v096
 BYTE   N90  An2
 BYTE   N90  Dn3
 BYTE   W96
 BYTE   PEND 
//  #03 //005   ----------------------------------------
 BYTE   PATT
  POIN2 Label_01007001
//  #03 //006   ----------------------------------------
 BYTE   N90  An1  v096
 BYTE   N90  Cn2
 BYTE   N90  Fn2
 BYTE   W96
//  #03 //007   ----------------------------------------
 BYTE   N44  An1
 BYTE   N44  Cn2
 BYTE   N44  Fn2
 BYTE   W48
 BYTE   Bn1
 BYTE   N44  Dn2
 BYTE   N44  Gn2
 BYTE   W48
//  #03 //008   ----------------------------------------
 BYTE   W96
//  #03 //009   ----------------------------------------
 BYTE   W96
//  #03 //010   ----------------------------------------
 BYTE   W96
//  #03 //011   ----------------------------------------
 BYTE   W96
//  #03 //012   ----------------------------------------
 BYTE   W96
//  #03 //013   ----------------------------------------
 BYTE   W96
//  #03 //014   ----------------------------------------
 BYTE   PATT
  POIN2 Label_01007001
//  #03 //015   ----------------------------------------
Label_0100702F:
 BYTE   N90  An2  v096
 BYTE   N90  Cn3
 BYTE   N90  Fn3
 BYTE   W96
 BYTE   PEND 
//  #03 //016   ----------------------------------------
Label_01007038:
 BYTE   N90  Cs2  v096
 BYTE   N90  En2
 BYTE   N90  An2
 BYTE   W96
 BYTE   PEND 
//  #03 //017   ----------------------------------------
 BYTE   Gs1
 BYTE   N90  Bn1
 BYTE   N90  En2
 BYTE   W96
//  #03 //018   ----------------------------------------
 BYTE   N44  Gs1
 BYTE   N44  Bn1
 BYTE   N44  En2
 BYTE   W48
 BYTE   N22  Fs1
 BYTE   N22  An1
 BYTE   N22  Dn2
 BYTE   W24
 BYTE   Gs1
 BYTE   N22  Bn1
 BYTE   N22  En2
 BYTE   W24
//  #03 //019   ----------------------------------------
Label_0100705B:
 BYTE   N22  Cs2  v096
 BYTE   N22  En2
 BYTE   N22  An2
 BYTE   W96
 BYTE   PEND 
//  #03 //020   ----------------------------------------
 BYTE   W96
//  #03 //021   ----------------------------------------
Label_01007065:
 BYTE   N22  Fn2  v096
 BYTE   N22  Gs2
 BYTE   N22  Cs3
 BYTE   W96
 BYTE   PEND 
//  #03 //022   ----------------------------------------
 BYTE   W96
//  #03 //023   ----------------------------------------
Label_0100706F:
 BYTE   N22  An1  v096
 BYTE   N22  Cs2
 BYTE   N22  Fs2
 BYTE   W96
 BYTE   PEND 
//  #03 //024   ----------------------------------------
 BYTE   W96
//  #03 //025   ----------------------------------------
Label_01007079:
 BYTE   N78  Fs2  v096
 BYTE   N78  An2
 BYTE   N78  Dn3
 BYTE   W84
 BYTE   N90  An2
 BYTE   N90  Cn3
 BYTE   N90  Fn3
 BYTE   W12
 BYTE   PEND 
//  #03 //026   ----------------------------------------
Label_01007089:
 BYTE   W84
 BYTE   N90  Cs2  v096
 BYTE   N90  En2
 BYTE   N90  An2
 BYTE   W12
 BYTE   PEND 
//  #03 //027   ----------------------------------------
Label_01007093:
 BYTE   W84
 BYTE   TIE  Ds2  v096
 BYTE   TIE  Fs2
 BYTE   TIE  Bn2
 BYTE   W12
 BYTE   PEND 
//  #03 //028   ----------------------------------------
 BYTE   W96
//  #03 //029   ----------------------------------------
 BYTE   W84
 BYTE   W01
 BYTE   EOT
 BYTE   Ds2  v054
 BYTE   Bn2
 BYTE   W11
//  #03 //030   ----------------------------------------
 BYTE   PATT
  POIN2 Label_01006FF2
//  #03 //031   ----------------------------------------
Label_010070AA:
 BYTE   N32  Gs1  v096
 BYTE   N32  Bn1
 BYTE   N32  En2
 BYTE   W36
 BYTE   N56  Fs1
 BYTE   N56  An1
 BYTE   N56  Dn2
 BYTE   W60
 BYTE   PEND 
//  #03 //032   ----------------------------------------
 BYTE   PATT
  POIN2 Label_01006FF2
//  #03 //033   ----------------------------------------
 BYTE   PATT
  POIN2 Label_010070AA
//  #03 //034   ----------------------------------------
 BYTE   PATT
  POIN2 Label_01007038
//  #03 //035   ----------------------------------------
 BYTE   W96
//  #03 //036   ----------------------------------------
Label_010070CA:
 BYTE   N90  Ds2  v096
 BYTE   N90  Fs2
 BYTE   N90  Bn2
 BYTE   W96
 BYTE   PEND 
//  #03 //037   ----------------------------------------
 BYTE   W96
//  #03 //038   ----------------------------------------
 BYTE   PATT
  POIN2 Label_01007001
//  #03 //039   ----------------------------------------
 BYTE   W96
//  #03 //040   ----------------------------------------
 BYTE   PATT
  POIN2 Label_0100702F
//  #03 //041   ----------------------------------------
 BYTE   N90  Bn2  v096
 BYTE   N90  Dn3
 BYTE   W96
//  #03 //042   ----------------------------------------
 BYTE   W96
//  #03 //043   ----------------------------------------
Label_010070E6:
 BYTE   N90  An1  v112
 BYTE   N90  Cs2
 BYTE   N90  En2
 BYTE   N90  An2
 BYTE   W96
 BYTE   PEND 
//  #03 //044   ----------------------------------------
Label_010070F1:
 BYTE   N90  Fs1  v112
 BYTE   N90  An1
 BYTE   N90  Dn2
 BYTE   W96
 BYTE   PEND 
//  #03 //045   ----------------------------------------
Label_010070FA:
 BYTE   N90  An1  v112
 BYTE   N90  Cs2
 BYTE   N90  Fs2
 BYTE   W96
 BYTE   PEND 
//  #03 //046   ----------------------------------------
Label_01007103:
 BYTE   N44  Gs1  v112
 BYTE   N44  Bn1
 BYTE   N44  En2
 BYTE   W48
 BYTE   Fs1
 BYTE   N44  An1
 BYTE   N44  Dn2
 BYTE   W48
 BYTE   PEND 
//  #03 //047   ----------------------------------------
Label_01007112:
 BYTE   N11  Bn1  v112
 BYTE   W12
 BYTE   Fs2
 BYTE   W12
 BYTE   Bn2
 BYTE   W12
 BYTE   N56  Dn3
 BYTE   W60
 BYTE   PEND 
//  #03 //048   ----------------------------------------
Label_0100711E:
 BYTE   N11  Cs2  v112
 BYTE   W12
 BYTE   An2
 BYTE   W12
 BYTE   Cs3
 BYTE   W12
 BYTE   N56  En3
 BYTE   W60
 BYTE   PEND 
//  #03 //049   ----------------------------------------
Label_0100712A:
 BYTE   N11  Dn2  v112
 BYTE   W12
 BYTE   An2
 BYTE   W12
 BYTE   Dn3
 BYTE   W12
 BYTE   N56  Fs3
 BYTE   W60
 BYTE   PEND 
//  #03 //050   ----------------------------------------
Label_01007136:
 BYTE   N90  En2  v112
 BYTE   N90  Gs2
 BYTE   N90  Bn2
 BYTE   N90  En3
 BYTE   W96
 BYTE   PEND 
//  #03 //051   ----------------------------------------
 BYTE   PATT
  POIN2 Label_010070E6
//  #03 //052   ----------------------------------------
 BYTE   PATT
  POIN2 Label_010070F1
//  #03 //053   ----------------------------------------
 BYTE   PATT
  POIN2 Label_010070FA
//  #03 //054   ----------------------------------------
 BYTE   PATT
  POIN2 Label_01007103
//  #03 //055   ----------------------------------------
 BYTE   PATT
  POIN2 Label_01007112
//  #03 //056   ----------------------------------------
 BYTE   PATT
  POIN2 Label_0100711E
//  #03 //057   ----------------------------------------
 BYTE   PATT
  POIN2 Label_0100712A
//  #03 //058   ----------------------------------------
Label_01007164:
 BYTE   N11  En2  v112
 BYTE   N11  Gs2
 BYTE   N11  Bn2
 BYTE   N11  En3
 BYTE   W24
 BYTE   N68  En2
 BYTE   N68  Gs2
 BYTE   N68  Bn2
 BYTE   N68  En3
 BYTE   W72
 BYTE   PEND 
//  #03 //059   ----------------------------------------
Label_01007178:
 BYTE   N90  An1  v112
 BYTE   N90  Cs2
 BYTE   N90  En2
 BYTE   W96
 BYTE   PEND 
//  #03 //060   ----------------------------------------
Label_01007181:
 BYTE   N90  Gs1  v112
 BYTE   N90  Cs2
 BYTE   N90  Fn2
 BYTE   W96
 BYTE   PEND 
//  #03 //061   ----------------------------------------
 BYTE   PATT
  POIN2 Label_010070FA
//  #03 //062   ----------------------------------------
Label_0100718F:
 BYTE   N90  Bn1  v112
 BYTE   N90  Dn2
 BYTE   N90  Gn2
 BYTE   W96
 BYTE   PEND 
//  #03 //063   ----------------------------------------
Label_01007198:
 BYTE   N90  Fs2  v112
 BYTE   N90  An2
 BYTE   N90  Dn3
 BYTE   W96
 BYTE   PEND 
//  #03 //064   ----------------------------------------
 BYTE   PATT
  POIN2 Label_01007198
//  #03 //065   ----------------------------------------
Label_010071A6:
 BYTE   N90  An1  v112
 BYTE   N90  Cn2
 BYTE   N90  Fn2
 BYTE   W96
 BYTE   PEND 
//  #03 //066   ----------------------------------------
Label_010071AF:
 BYTE   N44  An1  v112
 BYTE   N44  Cn2
 BYTE   N44  Fn2
 BYTE   W48
 BYTE   Bn1
 BYTE   N44  Dn2
 BYTE   N44  Gn2
 BYTE   W48
 BYTE   PEND 
//  #03 //067   ----------------------------------------
 BYTE   PATT
  POIN2 Label_0100705B
//  #03 //068   ----------------------------------------
 BYTE   W96
//  #03 //069   ----------------------------------------
 BYTE   PATT
  POIN2 Label_01007065
//  #03 //070   ----------------------------------------
 BYTE   W96
//  #03 //071   ----------------------------------------
 BYTE   PATT
  POIN2 Label_0100706F
//  #03 //072   ----------------------------------------
 BYTE   W96
//  #03 //073   ----------------------------------------
 BYTE   PATT
  POIN2 Label_01007079
//  #03 //074   ----------------------------------------
 BYTE   PATT
  POIN2 Label_01007089
//  #03 //075   ----------------------------------------
 BYTE   PATT
  POIN2 Label_01007093
//  #03 //076   ----------------------------------------
 BYTE   W96
//  #03 //077   ----------------------------------------
 BYTE   W84
 BYTE   W01
 BYTE   EOT
 BYTE   Ds2  v054
 BYTE   Bn2
 BYTE   W11
//  #03 //078   ----------------------------------------
 BYTE   PATT
  POIN2 Label_01006FF2
//  #03 //079   ----------------------------------------
 BYTE   PATT
  POIN2 Label_010070AA
//  #03 //080   ----------------------------------------
 BYTE   PATT
  POIN2 Label_01006FF2
//  #03 //081   ----------------------------------------
 BYTE   PATT
  POIN2 Label_010070AA
//  #03 //082   ----------------------------------------
 BYTE   PATT
  POIN2 Label_01007038
//  #03 //083   ----------------------------------------
 BYTE   W96
//  #03 //084   ----------------------------------------
 BYTE   PATT
  POIN2 Label_010070CA
//  #03 //085   ----------------------------------------
 BYTE   W96
//  #03 //086   ----------------------------------------
 BYTE   PATT
  POIN2 Label_01007001
//  #03 //087   ----------------------------------------
 BYTE   W96
//  #03 //088   ----------------------------------------
 BYTE   PATT
  POIN2 Label_0100702F
//  #03 //089   ----------------------------------------
 BYTE   N90  Bn2  v096
 BYTE   N90  Dn3
 BYTE   W96
//  #03 //090   ----------------------------------------
 BYTE   W96
//  #03 //091   ----------------------------------------
 BYTE   PATT
  POIN2 Label_010070E6
//  #03 //092   ----------------------------------------
 BYTE   PATT
  POIN2 Label_010070F1
//  #03 //093   ----------------------------------------
 BYTE   PATT
  POIN2 Label_010070FA
//  #03 //094   ----------------------------------------
 BYTE   PATT
  POIN2 Label_01007103
//  #03 //095   ----------------------------------------
 BYTE   PATT
  POIN2 Label_01007112
//  #03 //096   ----------------------------------------
 BYTE   PATT
  POIN2 Label_0100711E
//  #03 //097   ----------------------------------------
 BYTE   PATT
  POIN2 Label_0100712A
//  #03 //098   ----------------------------------------
 BYTE   PATT
  POIN2 Label_01007136
//  #03 //099   ----------------------------------------
 BYTE   PATT
  POIN2 Label_010070E6
//  #03 //100   ----------------------------------------
 BYTE   PATT
  POIN2 Label_010070F1
//  #03 //101   ----------------------------------------
 BYTE   PATT
  POIN2 Label_010070FA
//  #03 //102   ----------------------------------------
 BYTE   PATT
  POIN2 Label_01007103
//  #03 //103   ----------------------------------------
 BYTE   PATT
  POIN2 Label_01007112
//  #03 //104   ----------------------------------------
 BYTE   PATT
  POIN2 Label_0100711E
//  #03 //105   ----------------------------------------
 BYTE   PATT
  POIN2 Label_0100712A
//  #03 //106   ----------------------------------------
 BYTE   PATT
  POIN2 Label_01007164
//  #03 //107   ----------------------------------------
 BYTE   PATT
  POIN2 Label_01007178
//  #03 //108   ----------------------------------------
 BYTE   PATT
  POIN2 Label_01007181
//  #03 //109   ----------------------------------------
 BYTE   PATT
  POIN2 Label_010070FA
//  #03 //110   ----------------------------------------
 BYTE   PATT
  POIN2 Label_0100718F
//  #03 //111   ----------------------------------------
 BYTE   PATT
  POIN2 Label_01007198
//  #03 //112   ----------------------------------------
 BYTE   PATT
  POIN2 Label_01007198
//  #03 //113   ----------------------------------------
 BYTE   PATT
  POIN2 Label_010071A6
//  #03 //114   ----------------------------------------
 BYTE   PATT
  POIN2 Label_010071AF
//  #03 //115   ----------------------------------------
 BYTE   PATT
  POIN2 Label_01007178
//  #03 //116   ----------------------------------------
 BYTE   PATT
  POIN2 Label_01007181
//  #03 //117   ----------------------------------------
 BYTE   PATT
  POIN2 Label_010070FA
//  #03 //118   ----------------------------------------
 BYTE   PATT
  POIN2 Label_0100718F
//  #03 //119   ----------------------------------------
 BYTE   PATT
  POIN2 Label_01007198
//  #03 //120   ----------------------------------------
 BYTE   N44  Fs2  v112
 BYTE   N44  An2
 BYTE   N44  Dn3
 BYTE   W48
 BYTE   N22  Fs2
 BYTE   N22  An2
 BYTE   N22  Dn3
 BYTE   W24
 BYTE   Fs2
 BYTE   N22  An2
 BYTE   N22  Dn3
 BYTE   W24
//  #03 //121   ----------------------------------------
 BYTE   PATT
  POIN2 Label_010071A6
//  #03 //122   ----------------------------------------
 BYTE   PATT
  POIN2 Label_010071AF
//  #03 //123   ----------------------------------------
Label_010072C9:
 BYTE   N11  An1  v112
 BYTE   N11  Cs2
 BYTE   N11  Fs2
 BYTE   W24
 BYTE   An1
 BYTE   N11  Cs2
 BYTE   N11  Fs2
 BYTE   W24
 BYTE   An1
 BYTE   N11  Cs2
 BYTE   N11  Fs2
 BYTE   W24
 BYTE   An1
 BYTE   N11  Cs2
 BYTE   N11  Fs2
 BYTE   W24
 BYTE   PEND 
//  #03 //124   ----------------------------------------
Label_010072E4:
 BYTE   N11  Bn1  v112
 BYTE   N11  Dn2
 BYTE   N11  Gn2
 BYTE   W24
 BYTE   Bn1
 BYTE   N11  Dn2
 BYTE   N11  Gn2
 BYTE   W24
 BYTE   Bn1
 BYTE   N11  Dn2
 BYTE   N11  Gn2
 BYTE   W24
 BYTE   Bn1
 BYTE   N11  Dn2
 BYTE   N11  Gn2
 BYTE   W24
 BYTE   PEND 
//  #03 //125   ----------------------------------------
 BYTE   Fs1
 BYTE   N11  An1
 BYTE   N11  Dn2
 BYTE   W24
 BYTE   Fs1
 BYTE   N11  An1
 BYTE   N11  Dn2
 BYTE   W24
 BYTE   Fs1
 BYTE   N11  An1
 BYTE   N11  Dn2
 BYTE   W24
 BYTE   Fs1
 BYTE   N11  An1
 BYTE   N11  Dn2
 BYTE   W24
//  #03 //126   ----------------------------------------
 BYTE   Cs2
 BYTE   N11  En2
 BYTE   N11  An2
 BYTE   W24
 BYTE   Cs2
 BYTE   N11  En2
 BYTE   N11  An2
 BYTE   W24
 BYTE   Cs2
 BYTE   N11  En2
 BYTE   N11  An2
 BYTE   W24
 BYTE   Cs2
 BYTE   N11  En2
 BYTE   N11  An2
 BYTE   W24
//  #03 //127   ----------------------------------------
 BYTE   PATT
  POIN2 Label_010072C9
//  #03 //128   ----------------------------------------
 BYTE   PATT
  POIN2 Label_010072E4
//  #03 //129   ----------------------------------------
 BYTE   PATT
  POIN2 Label_01007198
//  #03 //130   ----------------------------------------
 BYTE   W96
//  #03 //131   ----------------------------------------
 BYTE   N90  Gs2  v112
 BYTE   N90  Bn2
 BYTE   N90  En3
 BYTE   W96
//  #03 //132   ----------------------------------------
 BYTE   W96
//  #03 //133   ----------------------------------------
 BYTE   W96
//  #03 //134   ----------------------------------------
 BYTE   W96
//  #03 //135   ----------------------------------------
 BYTE   N44  Fs1
 BYTE   N44  Fs2
 BYTE   W48
 BYTE   Gs1
 BYTE   N44  Gs2
 BYTE   W48
//  #03 //136   ----------------------------------------
Label_01007353:
 BYTE   N90  An1  v127
 BYTE   N90  Cs2
 BYTE   N90  En2
 BYTE   N90  An2
 BYTE   W96
 BYTE   PEND 
//  #03 //137   ----------------------------------------
Label_0100735E:
 BYTE   N90  Fs1  v127
 BYTE   N90  An1
 BYTE   N90  Dn2
 BYTE   W96
 BYTE   PEND 
//  #03 //138   ----------------------------------------
Label_01007367:
 BYTE   N90  An1  v127
 BYTE   N90  Cs2
 BYTE   N90  Fs2
 BYTE   W96
 BYTE   PEND 
//  #03 //139   ----------------------------------------
Label_01007370:
 BYTE   N44  Gs1  v127
 BYTE   N44  Bn1
 BYTE   N44  En2
 BYTE   W48
 BYTE   Fs1
 BYTE   N44  An1
 BYTE   N44  Dn2
 BYTE   W48
 BYTE   PEND 
//  #03 //140   ----------------------------------------
Label_0100737F:
 BYTE   N11  Bn1  v127
 BYTE   W12
 BYTE   Fs2
 BYTE   W12
 BYTE   Bn2
 BYTE   W12
 BYTE   N56  Dn3
 BYTE   W60
 BYTE   PEND 
//  #03 //141   ----------------------------------------
Label_0100738B:
 BYTE   N11  Cs2  v127
 BYTE   W12
 BYTE   An2
 BYTE   W12
 BYTE   Cs3
 BYTE   W12
 BYTE   N56  En3
 BYTE   W60
 BYTE   PEND 
//  #03 //142   ----------------------------------------
Label_01007397:
 BYTE   N11  Dn2  v127
 BYTE   W12
 BYTE   An2
 BYTE   W12
 BYTE   Dn3
 BYTE   W12
 BYTE   N56  Fs3
 BYTE   W60
 BYTE   PEND 
//  #03 //143   ----------------------------------------
 BYTE   N90  En2
 BYTE   N90  Gs2
 BYTE   N90  Bn2
 BYTE   N90  En3
 BYTE   W96
//  #03 //144   ----------------------------------------
 BYTE   PATT
  POIN2 Label_01007353
//  #03 //145   ----------------------------------------
 BYTE   PATT
  POIN2 Label_0100735E
//  #03 //146   ----------------------------------------
 BYTE   PATT
  POIN2 Label_01007367
//  #03 //147   ----------------------------------------
 BYTE   PATT
  POIN2 Label_01007370
//  #03 //148   ----------------------------------------
 BYTE   PATT
  POIN2 Label_0100737F
//  #03 //149   ----------------------------------------
 BYTE   PATT
  POIN2 Label_0100738B
//  #03 //150   ----------------------------------------
 BYTE   PATT
  POIN2 Label_01007397
//  #03 //151   ----------------------------------------
 BYTE   N11  En2  v127
 BYTE   N11  Gs2
 BYTE   N11  Bn2
 BYTE   N11  En3
 BYTE   W24
 BYTE   N68  En2
 BYTE   N68  Gs2
 BYTE   N68  Bn2
 BYTE   N68  En3
 BYTE   W72
//  #03 //152   ----------------------------------------
 BYTE   N90  An1
 BYTE   N90  Cs2
 BYTE   N90  En2
 BYTE   W96
//  #03 //153   ----------------------------------------
 BYTE   Gs1
 BYTE   N90  Cs2
 BYTE   N90  Fn2
 BYTE   W96
//  #03 //154   ----------------------------------------
 BYTE   PATT
  POIN2 Label_01007367
//  #03 //155   ----------------------------------------
 BYTE   N90  Bn1  v127
 BYTE   N90  Dn2
 BYTE   N90  Gn2
 BYTE   W96
//  #03 //156   ----------------------------------------
Label_010073FC:
 BYTE   N90  Fs2  v127
 BYTE   N90  An2
 BYTE   N90  Dn3
 BYTE   W96
 BYTE   PEND 
//  #03 //157   ----------------------------------------
 BYTE   PATT
  POIN2 Label_010073FC
//  #03 //158   ----------------------------------------
 BYTE   N90  An1  v127
 BYTE   N90  Cn2
 BYTE   N90  Fn2
 BYTE   W96
//  #03 //159   ----------------------------------------
 BYTE   N44  An1
 BYTE   N44  Cn2
 BYTE   N44  Fn2
 BYTE   W48
 BYTE   Bn1
 BYTE   N44  Dn2
 BYTE   N44  Gn2
 BYTE   W48
//  #03 //160   ----------------------------------------
 BYTE   TIE  An0
 BYTE   TIE  An1
 BYTE   W96
//  #03 //161   ----------------------------------------
 BYTE   W84
 BYTE   W02
 BYTE   EOT
 BYTE   An0  v045
 BYTE   GoTo
  POIN2 Label_01006FDE
 BYTE   FINE

//**************** Track 4 (Midi-Chn.3) ****************//

BelieveInMyselfSA2B_004:
//  #04 //000   ----------------------------------------
 BYTE   KEYSH   BelieveInMyselfSA2B_key+0
Label_01007446:
 BYTE   VOICE   34
 BYTE   VOL   50*BelieveInMyselfSA2B_mvl/mxv
 BYTE   PAN   c_v+0
 BYTE   N11  An2  v096
 BYTE   W12
 BYTE   N11
 BYTE   W12
 BYTE   N11
 BYTE   W12
 BYTE   N11
 BYTE   W12
 BYTE   N11
 BYTE   W12
 BYTE   N11
 BYTE   W12
 BYTE   N11
 BYTE   W12
 BYTE   N11
 BYTE   W12
//  #04 //001   ----------------------------------------
Label_0100745E:
 BYTE   N11  Fn2  v096
 BYTE   W12
 BYTE   N11
 BYTE   W12
 BYTE   N11
 BYTE   W12
 BYTE   N11
 BYTE   W12
 BYTE   N11
 BYTE   W12
 BYTE   N11
 BYTE   W12
 BYTE   N11
 BYTE   W12
 BYTE   N11
 BYTE   W12
 BYTE   PEND 
//  #04 //002   ----------------------------------------
 BYTE   Fs2
 BYTE   W12
 BYTE   N11
 BYTE   W12
 BYTE   N11
 BYTE   W12
 BYTE   N11
 BYTE   W12
 BYTE   N11
 BYTE   W12
 BYTE   N11
 BYTE   W12
 BYTE   N11
 BYTE   W12
 BYTE   N11
 BYTE   W12
//  #04 //003   ----------------------------------------
 BYTE   Gn2
 BYTE   W12
 BYTE   N11
 BYTE   W12
 BYTE   N11
 BYTE   W12
 BYTE   N11
 BYTE   W12
 BYTE   N11
 BYTE   W12
 BYTE   N11
 BYTE   W12
 BYTE   N11
 BYTE   W12
 BYTE   N11
 BYTE   W12
//  #04 //004   ----------------------------------------
Label_01007491:
 BYTE   N11  Dn3  v096
 BYTE   W12
 BYTE   N11
 BYTE   W12
 BYTE   N11
 BYTE   W12
 BYTE   N11
 BYTE   W12
 BYTE   N11
 BYTE   W12
 BYTE   N11
 BYTE   W12
 BYTE   N11
 BYTE   W12
 BYTE   N11
 BYTE   W12
 BYTE   PEND 
//  #04 //005   ----------------------------------------
 BYTE   PATT
  POIN2 Label_01007491
//  #04 //006   ----------------------------------------
 BYTE   PATT
  POIN2 Label_0100745E
//  #04 //007   ----------------------------------------
 BYTE   N11  Fn2  v096
 BYTE   W12
 BYTE   N11
 BYTE   W12
 BYTE   N11
 BYTE   W12
 BYTE   N11
 BYTE   W12
 BYTE   Gn2
 BYTE   W12
 BYTE   N11
 BYTE   W12
 BYTE   N11
 BYTE   W12
 BYTE   N11
 BYTE   W12
//  #04 //008   ----------------------------------------
Label_010074C0:
 BYTE   N05  An3  v096
 BYTE   W12
 BYTE   N05
 BYTE   W12
 BYTE   N05
 BYTE   W12
 BYTE   N05
 BYTE   W12
 BYTE   N05
 BYTE   W12
 BYTE   N05
 BYTE   W12
 BYTE   N05
 BYTE   W12
 BYTE   N05
 BYTE   W12
 BYTE   PEND 
//  #04 //009   ----------------------------------------
 BYTE   PATT
  POIN2 Label_010074C0
//  #04 //010   ----------------------------------------
Label_010074D8:
 BYTE   N05  Cs4  v096
 BYTE   W12
 BYTE   N05
 BYTE   W12
 BYTE   N05
 BYTE   W12
 BYTE   N05
 BYTE   W12
 BYTE   N05
 BYTE   W12
 BYTE   N05
 BYTE   W12
 BYTE   N05
 BYTE   W12
 BYTE   N05
 BYTE   W12
 BYTE   PEND 
//  #04 //011   ----------------------------------------
 BYTE   PATT
  POIN2 Label_010074D8
//  #04 //012   ----------------------------------------
Label_010074F0:
 BYTE   N05  Fs3  v096
 BYTE   W12
 BYTE   N05
 BYTE   W12
 BYTE   N05
 BYTE   W12
 BYTE   N05
 BYTE   W12
 BYTE   N05
 BYTE   W12
 BYTE   N05
 BYTE   W12
 BYTE   N05
 BYTE   W12
 BYTE   N05
 BYTE   W12
 BYTE   PEND 
//  #04 //013   ----------------------------------------
 BYTE   PATT
  POIN2 Label_010074F0
//  #04 //014   ----------------------------------------
 BYTE   N05  Dn3  v096
 BYTE   W12
 BYTE   N05
 BYTE   W12
 BYTE   N05
 BYTE   W12
 BYTE   N05
 BYTE   W12
 BYTE   N05
 BYTE   W12
 BYTE   N05
 BYTE   W12
 BYTE   N05
 BYTE   W12
 BYTE   N05
 BYTE   W12
//  #04 //015   ----------------------------------------
 BYTE   Fn3
 BYTE   W12
 BYTE   N05
 BYTE   W12
 BYTE   N05
 BYTE   W12
 BYTE   N05
 BYTE   W12
 BYTE   N05
 BYTE   W12
 BYTE   N05
 BYTE   W12
 BYTE   N05
 BYTE   W12
 BYTE   N05
 BYTE   W12
//  #04 //016   ----------------------------------------
 BYTE   PATT
  POIN2 Label_010074C0
//  #04 //017   ----------------------------------------
 BYTE   N05  En3  v096
 BYTE   W12
 BYTE   N05
 BYTE   W12
 BYTE   N05
 BYTE   W12
 BYTE   N05
 BYTE   W12
 BYTE   N05
 BYTE   W12
 BYTE   N05
 BYTE   W12
 BYTE   N05
 BYTE   W12
 BYTE   N05
 BYTE   W12
//  #04 //018   ----------------------------------------
 BYTE   N05
 BYTE   W12
 BYTE   N05
 BYTE   W12
 BYTE   N05
 BYTE   W12
 BYTE   N05
 BYTE   W12
 BYTE   Dn3
 BYTE   W12
 BYTE   N05
 BYTE   W12
 BYTE   En3
 BYTE   W12
 BYTE   N05
 BYTE   W12
//  #04 //019   ----------------------------------------
 BYTE   PATT
  POIN2 Label_010074C0
//  #04 //020   ----------------------------------------
 BYTE   PATT
  POIN2 Label_010074C0
//  #04 //021   ----------------------------------------
 BYTE   PATT
  POIN2 Label_010074D8
//  #04 //022   ----------------------------------------
 BYTE   PATT
  POIN2 Label_010074D8
//  #04 //023   ----------------------------------------
 BYTE   PATT
  POIN2 Label_010074F0
//  #04 //024   ----------------------------------------
 BYTE   PATT
  POIN2 Label_010074F0
//  #04 //025   ----------------------------------------
Label_0100756F:
 BYTE   N05  Dn3  v096
 BYTE   W12
 BYTE   N05
 BYTE   W12
 BYTE   N05
 BYTE   W12
 BYTE   N05
 BYTE   W12
 BYTE   N05
 BYTE   W12
 BYTE   N05
 BYTE   W12
 BYTE   N05
 BYTE   W12
 BYTE   N11  Fn3
 BYTE   W12
 BYTE   PEND 
//  #04 //026   ----------------------------------------
Label_01007583:
 BYTE   W12
 BYTE   N05  Fn3  v096
 BYTE   W12
 BYTE   N05
 BYTE   W12
 BYTE   N05
 BYTE   W12
 BYTE   N05
 BYTE   W12
 BYTE   N05
 BYTE   W12
 BYTE   N05
 BYTE   W12
 BYTE   N11  An3
 BYTE   W12
 BYTE   PEND 
//  #04 //027   ----------------------------------------
Label_01007596:
 BYTE   W12
 BYTE   N05  An3  v096
 BYTE   W12
 BYTE   N05
 BYTE   W12
 BYTE   N05
 BYTE   W12
 BYTE   N05
 BYTE   W12
 BYTE   N05
 BYTE   W12
 BYTE   N05
 BYTE   W12
 BYTE   N22  Bn3
 BYTE   W12
 BYTE   PEND 
//  #04 //028   ----------------------------------------
Label_010075A9:
 BYTE   W12
 BYTE   N11  Bn3  v096
 BYTE   W12
 BYTE   N11
 BYTE   W12
 BYTE   N11
 BYTE   W12
 BYTE   N11
 BYTE   W12
 BYTE   N11
 BYTE   W12
 BYTE   N11
 BYTE   W12
 BYTE   N11
 BYTE   W12
 BYTE   PEND 
//  #04 //029   ----------------------------------------
Label_010075BB:
 BYTE   N11  Bn3  v096
 BYTE   W12
 BYTE   N22  Ds4
 BYTE   W24
 BYTE   En4
 BYTE   W24
 BYTE   Fn4
 BYTE   W24
 BYTE   N11  Fs4
 BYTE   W12
 BYTE   PEND 
//  #04 //030   ----------------------------------------
 BYTE   PATT
  POIN2 Label_010074F0
//  #04 //031   ----------------------------------------
Label_010075CF:
 BYTE   N05  En3  v096
 BYTE   W12
 BYTE   N05
 BYTE   W12
 BYTE   N05
 BYTE   W12
 BYTE   N22  Dn3
 BYTE   W24
 BYTE   N05
 BYTE   W12
 BYTE   N05
 BYTE   W12
 BYTE   N05
 BYTE   W12
 BYTE   PEND 
//  #04 //032   ----------------------------------------
 BYTE   PATT
  POIN2 Label_010074F0
//  #04 //033   ----------------------------------------
 BYTE   PATT
  POIN2 Label_010075CF
//  #04 //034   ----------------------------------------
 BYTE   PATT
  POIN2 Label_010074C0
//  #04 //035   ----------------------------------------
 BYTE   PATT
  POIN2 Label_010074C0
//  #04 //036   ----------------------------------------
Label_010075F5:
 BYTE   N05  Bn3  v096
 BYTE   W12
 BYTE   N05
 BYTE   W12
 BYTE   N05
 BYTE   W12
 BYTE   N05
 BYTE   W12
 BYTE   N05
 BYTE   W12
 BYTE   N05
 BYTE   W12
 BYTE   N05
 BYTE   W12
 BYTE   N05
 BYTE   W12
 BYTE   PEND 
//  #04 //037   ----------------------------------------
 BYTE   PATT
  POIN2 Label_010075F5
//  #04 //038   ----------------------------------------
Label_0100760D:
 BYTE   N05  Dn4  v096
 BYTE   W12
 BYTE   N05
 BYTE   W12
 BYTE   N05
 BYTE   W12
 BYTE   N05
 BYTE   W12
 BYTE   N05
 BYTE   W12
 BYTE   N05
 BYTE   W12
 BYTE   N05
 BYTE   W12
 BYTE   N05
 BYTE   W12
 BYTE   PEND 
//  #04 //039   ----------------------------------------
 BYTE   PATT
  POIN2 Label_0100760D
//  #04 //040   ----------------------------------------
Label_01007625:
 BYTE   N05  Fn4  v096
 BYTE   W12
 BYTE   N05
 BYTE   W12
 BYTE   N05
 BYTE   W12
 BYTE   N05
 BYTE   W12
 BYTE   N05
 BYTE   W12
 BYTE   N05
 BYTE   W12
 BYTE   N05
 BYTE   W12
 BYTE   N05
 BYTE   W12
 BYTE   PEND 
//  #04 //041   ----------------------------------------
Label_01007638:
 BYTE   N05  Gn4  v096
 BYTE   W12
 BYTE   N05
 BYTE   W12
 BYTE   N05
 BYTE   W12
 BYTE   N05
 BYTE   W12
 BYTE   N05
 BYTE   W12
 BYTE   N05
 BYTE   W12
 BYTE   N05
 BYTE   W12
 BYTE   N05
 BYTE   W12
 BYTE   PEND 
//  #04 //042   ----------------------------------------
 BYTE   N90  Gn3
 BYTE   W96
//  #04 //043   ----------------------------------------
Label_0100764E:
 BYTE   N11  An2  v112
 BYTE   W12
 BYTE   N11
 BYTE   W12
 BYTE   N11
 BYTE   W12
 BYTE   N11
 BYTE   W12
 BYTE   N11
 BYTE   W12
 BYTE   N11
 BYTE   W12
 BYTE   N11
 BYTE   W12
 BYTE   N11
 BYTE   W12
 BYTE   PEND 
//  #04 //044   ----------------------------------------
Label_01007661:
 BYTE   N11  Dn3  v112
 BYTE   W12
 BYTE   N11
 BYTE   W12
 BYTE   N11
 BYTE   W12
 BYTE   N11
 BYTE   W12
 BYTE   N11
 BYTE   W12
 BYTE   N11
 BYTE   W12
 BYTE   N11
 BYTE   W12
 BYTE   N11
 BYTE   W12
 BYTE   PEND 
//  #04 //045   ----------------------------------------
Label_01007674:
 BYTE   N11  Fs3  v112
 BYTE   W12
 BYTE   N11
 BYTE   W12
 BYTE   N11
 BYTE   W12
 BYTE   N11
 BYTE   W12
 BYTE   N11
 BYTE   W12
 BYTE   N11
 BYTE   W12
 BYTE   N11
 BYTE   W12
 BYTE   N11
 BYTE   W12
 BYTE   PEND 
//  #04 //046   ----------------------------------------
Label_01007687:
 BYTE   N11  En3  v112
 BYTE   W12
 BYTE   N11
 BYTE   W12
 BYTE   N11
 BYTE   W12
 BYTE   N11
 BYTE   W12
 BYTE   Dn3
 BYTE   W12
 BYTE   N11
 BYTE   W12
 BYTE   N11
 BYTE   W12
 BYTE   N11
 BYTE   W12
 BYTE   PEND 
//  #04 //047   ----------------------------------------
Label_0100769A:
 BYTE   N11  Bn2  v112
 BYTE   W12
 BYTE   N11
 BYTE   W12
 BYTE   N11
 BYTE   W12
 BYTE   N11
 BYTE   W12
 BYTE   N11
 BYTE   W12
 BYTE   N11
 BYTE   W12
 BYTE   N11
 BYTE   W12
 BYTE   N11
 BYTE   W12
 BYTE   PEND 
//  #04 //048   ----------------------------------------
Label_010076AD:
 BYTE   N11  Cs3  v112
 BYTE   W12
 BYTE   N11
 BYTE   W12
 BYTE   N11
 BYTE   W12
 BYTE   N11
 BYTE   W12
 BYTE   N11
 BYTE   W12
 BYTE   N11
 BYTE   W12
 BYTE   N11
 BYTE   W12
 BYTE   N11
 BYTE   W12
 BYTE   PEND 
//  #04 //049   ----------------------------------------
 BYTE   PATT
  POIN2 Label_01007661
//  #04 //050   ----------------------------------------
Label_010076C5:
 BYTE   N11  En3  v112
 BYTE   W12
 BYTE   N11
 BYTE   W12
 BYTE   Dn3
 BYTE   W12
 BYTE   N11
 BYTE   W12
 BYTE   Cs3
 BYTE   W12
 BYTE   N11
 BYTE   W12
 BYTE   Bn2
 BYTE   W12
 BYTE   N11
 BYTE   W12
 BYTE   PEND 
//  #04 //051   ----------------------------------------
 BYTE   PATT
  POIN2 Label_0100764E
//  #04 //052   ----------------------------------------
 BYTE   PATT
  POIN2 Label_01007661
//  #04 //053   ----------------------------------------
 BYTE   PATT
  POIN2 Label_01007674
//  #04 //054   ----------------------------------------
 BYTE   PATT
  POIN2 Label_01007687
//  #04 //055   ----------------------------------------
 BYTE   PATT
  POIN2 Label_0100769A
//  #04 //056   ----------------------------------------
 BYTE   PATT
  POIN2 Label_010076AD
//  #04 //057   ----------------------------------------
 BYTE   PATT
  POIN2 Label_01007661
//  #04 //058   ----------------------------------------
Label_010076FB:
 BYTE   N11  En3  v112
 BYTE   W12
 BYTE   En2
 BYTE   W12
 BYTE   N32  En3
 BYTE   W36
 BYTE   N11  En2
 BYTE   W12
 BYTE   N22  En3
 BYTE   W24
 BYTE   PEND 
//  #04 //059   ----------------------------------------
 BYTE   PATT
  POIN2 Label_0100764E
//  #04 //060   ----------------------------------------
Label_01007710:
 BYTE   N11  Fn2  v112
 BYTE   W12
 BYTE   N11
 BYTE   W12
 BYTE   N11
 BYTE   W12
 BYTE   N11
 BYTE   W12
 BYTE   N11
 BYTE   W12
 BYTE   N11
 BYTE   W12
 BYTE   N11
 BYTE   W12
 BYTE   N11
 BYTE   W12
 BYTE   PEND 
//  #04 //061   ----------------------------------------
Label_01007723:
 BYTE   N11  Fs2  v112
 BYTE   W12
 BYTE   N11
 BYTE   W12
 BYTE   N11
 BYTE   W12
 BYTE   N11
 BYTE   W12
 BYTE   N11
 BYTE   W12
 BYTE   N11
 BYTE   W12
 BYTE   N11
 BYTE   W12
 BYTE   N11
 BYTE   W12
 BYTE   PEND 
//  #04 //062   ----------------------------------------
Label_01007736:
 BYTE   N11  Gn2  v112
 BYTE   W12
 BYTE   N11
 BYTE   W12
 BYTE   N11
 BYTE   W12
 BYTE   N11
 BYTE   W12
 BYTE   N11
 BYTE   W12
 BYTE   N11
 BYTE   W12
 BYTE   N11
 BYTE   W12
 BYTE   N11
 BYTE   W12
 BYTE   PEND 
//  #04 //063   ----------------------------------------
 BYTE   PATT
  POIN2 Label_01007661
//  #04 //064   ----------------------------------------
 BYTE   PATT
  POIN2 Label_01007661
//  #04 //065   ----------------------------------------
 BYTE   PATT
  POIN2 Label_01007710
//  #04 //066   ----------------------------------------
Label_01007758:
 BYTE   N11  Fn2  v112
 BYTE   W12
 BYTE   N11
 BYTE   W12
 BYTE   N11
 BYTE   W12
 BYTE   N11
 BYTE   W12
 BYTE   Gn2
 BYTE   W12
 BYTE   N11
 BYTE   W12
 BYTE   N11
 BYTE   W12
 BYTE   N11
 BYTE   W12
 BYTE   PEND 
//  #04 //067   ----------------------------------------
 BYTE   PATT
  POIN2 Label_010074C0
//  #04 //068   ----------------------------------------
 BYTE   PATT
  POIN2 Label_010074C0
//  #04 //069   ----------------------------------------
 BYTE   PATT
  POIN2 Label_010074D8
//  #04 //070   ----------------------------------------
 BYTE   PATT
  POIN2 Label_010074D8
//  #04 //071   ----------------------------------------
 BYTE   PATT
  POIN2 Label_010074F0
//  #04 //072   ----------------------------------------
 BYTE   PATT
  POIN2 Label_010074F0
//  #04 //073   ----------------------------------------
 BYTE   PATT
  POIN2 Label_0100756F
//  #04 //074   ----------------------------------------
 BYTE   PATT
  POIN2 Label_01007583
//  #04 //075   ----------------------------------------
 BYTE   PATT
  POIN2 Label_01007596
//  #04 //076   ----------------------------------------
 BYTE   PATT
  POIN2 Label_010075A9
//  #04 //077   ----------------------------------------
 BYTE   PATT
  POIN2 Label_010075BB
//  #04 //078   ----------------------------------------
 BYTE   PATT
  POIN2 Label_010074F0
//  #04 //079   ----------------------------------------
 BYTE   PATT
  POIN2 Label_010075CF
//  #04 //080   ----------------------------------------
 BYTE   PATT
  POIN2 Label_010074F0
//  #04 //081   ----------------------------------------
 BYTE   PATT
  POIN2 Label_010075CF
//  #04 //082   ----------------------------------------
 BYTE   PATT
  POIN2 Label_010074C0
//  #04 //083   ----------------------------------------
 BYTE   PATT
  POIN2 Label_010074C0
//  #04 //084   ----------------------------------------
 BYTE   PATT
  POIN2 Label_010075F5
//  #04 //085   ----------------------------------------
 BYTE   PATT
  POIN2 Label_010075F5
//  #04 //086   ----------------------------------------
 BYTE   PATT
  POIN2 Label_0100760D
//  #04 //087   ----------------------------------------
 BYTE   PATT
  POIN2 Label_0100760D
//  #04 //088   ----------------------------------------
 BYTE   PATT
  POIN2 Label_01007625
//  #04 //089   ----------------------------------------
 BYTE   PATT
  POIN2 Label_01007638
//  #04 //090   ----------------------------------------
 BYTE   N90  Gn3  v096
 BYTE   W96
//  #04 //091   ----------------------------------------
 BYTE   PATT
  POIN2 Label_0100764E
//  #04 //092   ----------------------------------------
 BYTE   PATT
  POIN2 Label_01007661
//  #04 //093   ----------------------------------------
 BYTE   PATT
  POIN2 Label_01007674
//  #04 //094   ----------------------------------------
 BYTE   PATT
  POIN2 Label_01007687
//  #04 //095   ----------------------------------------
 BYTE   PATT
  POIN2 Label_0100769A
//  #04 //096   ----------------------------------------
 BYTE   PATT
  POIN2 Label_010076AD
//  #04 //097   ----------------------------------------
 BYTE   PATT
  POIN2 Label_01007661
//  #04 //098   ----------------------------------------
 BYTE   PATT
  POIN2 Label_010076C5
//  #04 //099   ----------------------------------------
 BYTE   PATT
  POIN2 Label_0100764E
//  #04 //100   ----------------------------------------
 BYTE   PATT
  POIN2 Label_01007661
//  #04 //101   ----------------------------------------
 BYTE   PATT
  POIN2 Label_01007674
//  #04 //102   ----------------------------------------
 BYTE   PATT
  POIN2 Label_01007687
//  #04 //103   ----------------------------------------
 BYTE   PATT
  POIN2 Label_0100769A
//  #04 //104   ----------------------------------------
 BYTE   PATT
  POIN2 Label_010076AD
//  #04 //105   ----------------------------------------
 BYTE   PATT
  POIN2 Label_01007661
//  #04 //106   ----------------------------------------
 BYTE   PATT
  POIN2 Label_010076FB
//  #04 //107   ----------------------------------------
 BYTE   PATT
  POIN2 Label_0100764E
//  #04 //108   ----------------------------------------
 BYTE   PATT
  POIN2 Label_01007710
//  #04 //109   ----------------------------------------
 BYTE   PATT
  POIN2 Label_01007723
//  #04 //110   ----------------------------------------
 BYTE   PATT
  POIN2 Label_01007736
//  #04 //111   ----------------------------------------
 BYTE   PATT
  POIN2 Label_01007661
//  #04 //112   ----------------------------------------
 BYTE   PATT
  POIN2 Label_01007661
//  #04 //113   ----------------------------------------
 BYTE   PATT
  POIN2 Label_01007710
//  #04 //114   ----------------------------------------
 BYTE   PATT
  POIN2 Label_01007758
//  #04 //115   ----------------------------------------
 BYTE   PATT
  POIN2 Label_0100764E
//  #04 //116   ----------------------------------------
 BYTE   PATT
  POIN2 Label_01007710
//  #04 //117   ----------------------------------------
 BYTE   PATT
  POIN2 Label_01007723
//  #04 //118   ----------------------------------------
 BYTE   PATT
  POIN2 Label_01007736
//  #04 //119   ----------------------------------------
 BYTE   PATT
  POIN2 Label_01007661
//  #04 //120   ----------------------------------------
 BYTE   PATT
  POIN2 Label_01007661
//  #04 //121   ----------------------------------------
 BYTE   PATT
  POIN2 Label_01007710
//  #04 //122   ----------------------------------------
 BYTE   PATT
  POIN2 Label_01007758
//  #04 //123   ----------------------------------------
 BYTE   PATT
  POIN2 Label_01007674
//  #04 //124   ----------------------------------------
Label_01007887:
 BYTE   N11  Gn3  v112
 BYTE   W12
 BYTE   N11
 BYTE   W12
 BYTE   N11
 BYTE   W12
 BYTE   N11
 BYTE   W12
 BYTE   N11
 BYTE   W12
 BYTE   N11
 BYTE   W12
 BYTE   N11
 BYTE   W12
 BYTE   N11
 BYTE   W12
 BYTE   PEND 
//  #04 //125   ----------------------------------------
 BYTE   PATT
  POIN2 Label_01007661
//  #04 //126   ----------------------------------------
 BYTE   N11  An3  v112
 BYTE   W12
 BYTE   N11
 BYTE   W12
 BYTE   N11
 BYTE   W12
 BYTE   N11
 BYTE   W12
 BYTE   N11
 BYTE   W12
 BYTE   N11
 BYTE   W12
 BYTE   N11
 BYTE   W12
 BYTE   N11
 BYTE   W12
//  #04 //127   ----------------------------------------
 BYTE   PATT
  POIN2 Label_01007674
//  #04 //128   ----------------------------------------
 BYTE   PATT
  POIN2 Label_01007887
//  #04 //129   ----------------------------------------
Label_010078BB:
 BYTE   N05  Dn4  v112
 BYTE   W12
 BYTE   N05
 BYTE   W12
 BYTE   N05
 BYTE   W12
 BYTE   N05
 BYTE   W12
 BYTE   N05
 BYTE   W12
 BYTE   N05
 BYTE   W12
 BYTE   N05
 BYTE   W12
 BYTE   N05
 BYTE   W12
 BYTE   PEND 
//  #04 //130   ----------------------------------------
 BYTE   PATT
  POIN2 Label_010078BB
//  #04 //131   ----------------------------------------
Label_010078D3:
 BYTE   N05  En4  v112
 BYTE   W12
 BYTE   N05
 BYTE   W12
 BYTE   N05
 BYTE   W12
 BYTE   N05
 BYTE   W12
 BYTE   N05
 BYTE   W12
 BYTE   N05
 BYTE   W12
 BYTE   N05
 BYTE   W12
 BYTE   N05
 BYTE   W12
 BYTE   PEND 
//  #04 //132   ----------------------------------------
 BYTE   PATT
  POIN2 Label_010078D3
//  #04 //133   ----------------------------------------
 BYTE   N05  Ds4  v127
 BYTE   W96
//  #04 //134   ----------------------------------------
 BYTE   W96
//  #04 //135   ----------------------------------------
 BYTE   N44  Fs2  v112
 BYTE   W48
 BYTE   Gs2
 BYTE   W48
//  #04 //136   ----------------------------------------
Label_010078F6:
 BYTE   N11  An2  v127
 BYTE   W12
 BYTE   N11
 BYTE   W12
 BYTE   N11
 BYTE   W12
 BYTE   N11
 BYTE   W12
 BYTE   N11
 BYTE   W12
 BYTE   N11
 BYTE   W12
 BYTE   En3
 BYTE   W12
 BYTE   N11
 BYTE   W12
 BYTE   PEND 
//  #04 //137   ----------------------------------------
Label_01007909:
 BYTE   N11  Dn3  v127
 BYTE   W12
 BYTE   N11
 BYTE   W12
 BYTE   N11
 BYTE   W12
 BYTE   Cs3
 BYTE   W12
 BYTE   Dn3
 BYTE   W12
 BYTE   Cs3
 BYTE   W12
 BYTE   Bn2
 BYTE   W12
 BYTE   An2
 BYTE   W12
 BYTE   PEND 
//  #04 //138   ----------------------------------------
Label_0100791C:
 BYTE   N11  Fs2  v127
 BYTE   W12
 BYTE   N11
 BYTE   W12
 BYTE   N11
 BYTE   W12
 BYTE   N11
 BYTE   W12
 BYTE   N11
 BYTE   W12
 BYTE   N11
 BYTE   W12
 BYTE   N11
 BYTE   W12
 BYTE   N11
 BYTE   W12
 BYTE   PEND 
//  #04 //139   ----------------------------------------
Label_0100792F:
 BYTE   N11  En3  v127
 BYTE   W12
 BYTE   N11
 BYTE   W12
 BYTE   N11
 BYTE   W12
 BYTE   N11
 BYTE   W12
 BYTE   Dn3
 BYTE   W12
 BYTE   N11
 BYTE   W12
 BYTE   N11
 BYTE   W12
 BYTE   N11
 BYTE   W12
 BYTE   PEND 
//  #04 //140   ----------------------------------------
Label_01007942:
 BYTE   N11  Bn2  v127
 BYTE   W12
 BYTE   N11
 BYTE   W12
 BYTE   N11
 BYTE   W12
 BYTE   N11
 BYTE   W12
 BYTE   N11
 BYTE   W12
 BYTE   N11
 BYTE   W12
 BYTE   N11
 BYTE   W12
 BYTE   N11
 BYTE   W12
 BYTE   PEND 
//  #04 //141   ----------------------------------------
Label_01007955:
 BYTE   N11  Cs3  v127
 BYTE   W12
 BYTE   N11
 BYTE   W12
 BYTE   N11
 BYTE   W12
 BYTE   N11
 BYTE   W12
 BYTE   N11
 BYTE   W12
 BYTE   N11
 BYTE   W12
 BYTE   N11
 BYTE   W12
 BYTE   N11
 BYTE   W12
 BYTE   PEND 
//  #04 //142   ----------------------------------------
Label_01007968:
 BYTE   N11  Dn3  v127
 BYTE   W12
 BYTE   N11
 BYTE   W12
 BYTE   N11
 BYTE   W12
 BYTE   N11
 BYTE   W12
 BYTE   N11
 BYTE   W12
 BYTE   N11
 BYTE   W12
 BYTE   N11
 BYTE   W12
 BYTE   N11
 BYTE   W12
 BYTE   PEND 
//  #04 //143   ----------------------------------------
 BYTE   En3
 BYTE   W12
 BYTE   N11
 BYTE   W12
 BYTE   Dn3
 BYTE   W12
 BYTE   N11
 BYTE   W12
 BYTE   Cs3
 BYTE   W12
 BYTE   N11
 BYTE   W12
 BYTE   Bn2
 BYTE   W12
 BYTE   N11
 BYTE   W12
//  #04 //144   ----------------------------------------
 BYTE   PATT
  POIN2 Label_010078F6
//  #04 //145   ----------------------------------------
 BYTE   PATT
  POIN2 Label_01007909
//  #04 //146   ----------------------------------------
 BYTE   PATT
  POIN2 Label_0100791C
//  #04 //147   ----------------------------------------
 BYTE   PATT
  POIN2 Label_0100792F
//  #04 //148   ----------------------------------------
 BYTE   PATT
  POIN2 Label_01007942
//  #04 //149   ----------------------------------------
 BYTE   PATT
  POIN2 Label_01007955
//  #04 //150   ----------------------------------------
 BYTE   PATT
  POIN2 Label_01007968
//  #04 //151   ----------------------------------------
 BYTE   N11  En3  v127
 BYTE   W12
 BYTE   En2
 BYTE   W12
 BYTE   N32  En3
 BYTE   W36
 BYTE   N11  En2
 BYTE   W12
 BYTE   N22  En3
 BYTE   W24
//  #04 //152   ----------------------------------------
 BYTE   N11  An2
 BYTE   W12
 BYTE   N11
 BYTE   W12
 BYTE   N11
 BYTE   W12
 BYTE   N11
 BYTE   W12
 BYTE   N11
 BYTE   W12
 BYTE   N11
 BYTE   W12
 BYTE   N11
 BYTE   W12
 BYTE   N11
 BYTE   W12
//  #04 //153   ----------------------------------------
Label_010079CE:
 BYTE   N11  Fn2  v127
 BYTE   W12
 BYTE   N11
 BYTE   W12
 BYTE   N11
 BYTE   W12
 BYTE   N11
 BYTE   W12
 BYTE   N11
 BYTE   W12
 BYTE   N11
 BYTE   W12
 BYTE   N11
 BYTE   W12
 BYTE   N11
 BYTE   W12
 BYTE   PEND 
//  #04 //154   ----------------------------------------
 BYTE   PATT
  POIN2 Label_0100791C
//  #04 //155   ----------------------------------------
 BYTE   N11  Gn2  v127
 BYTE   W12
 BYTE   N11
 BYTE   W12
 BYTE   N11
 BYTE   W12
 BYTE   N11
 BYTE   W12
 BYTE   N11
 BYTE   W12
 BYTE   N11
 BYTE   W12
 BYTE   N11
 BYTE   W12
 BYTE   N11
 BYTE   W12
//  #04 //156   ----------------------------------------
 BYTE   PATT
  POIN2 Label_01007968
//  #04 //157   ----------------------------------------
 BYTE   PATT
  POIN2 Label_01007968
//  #04 //158   ----------------------------------------
 BYTE   PATT
  POIN2 Label_010079CE
//  #04 //159   ----------------------------------------
 BYTE   N11  Fn2  v127
 BYTE   W12
 BYTE   N11
 BYTE   W12
 BYTE   N11
 BYTE   W12
 BYTE   N11
 BYTE   W12
 BYTE   Gn2
 BYTE   W12
 BYTE   N11
 BYTE   W12
 BYTE   N11
 BYTE   W12
 BYTE   N11
 BYTE   W12
//  #04 //160   ----------------------------------------
 BYTE   TIE  An1
 BYTE   W96
//  #04 //161   ----------------------------------------
 BYTE   W84
 BYTE   W02
 BYTE   EOT
 BYTE   GoTo
  POIN2 Label_01007446
 BYTE   FINE

//******************************************************//
	ALIGN 4

BelieveInMyselfSA2B:
	BYTE	4	// NumTrks
	BYTE	0	// NumBlks
	BYTE	BelieveInMyselfSA2B_pri	// Priority
	BYTE	BelieveInMyselfSA2B_rev	// Reverb.
    
	POIN2	BelieveInMyselfSA2B_grp
    
	POIN2	BelieveInMyselfSA2B_001
	POIN2	BelieveInMyselfSA2B_002
	POIN2	BelieveInMyselfSA2B_003
	POIN2	BelieveInMyselfSA2B_004

	
