	.include "MPlayDef.s"

	.equ	BelieveInMyselfSA2B_grp, voicegroup000
	.equ	BelieveInMyselfSA2B_pri, 0
	.equ	BelieveInMyselfSA2B_rev, 0
	.equ	BelieveInMyselfSA2B_mvl, 127
	.equ	BelieveInMyselfSA2B_key, 0
	.equ	BelieveInMyselfSA2B_tbs, 1
	.equ	BelieveInMyselfSA2B_exg, 0
	.equ	BelieveInMyselfSA2B_cmp, 1

	.section .rodata
	.global	BelieveInMyselfSA2B
	.align	2


@**************** Track 1 (Midi-Chn.0) ****************@

BelieveInMyselfSA2B_001:
@  #01 @000   ----------------------------------------
 .byte   KEYSH , BelieveInMyselfSA2B_key+0
Label_010068CE:
 .byte   TEMPO , 172*BelieveInMyselfSA2B_tbs/2
 .byte   VOICE , 28
 .byte   VOL , 77*BelieveInMyselfSA2B_mvl/mxv
 .byte   PAN , c_v+0
 .byte   W96
@  #01 @001   ----------------------------------------
 .byte   W96
@  #01 @002   ----------------------------------------
 .byte   W96
@  #01 @003   ----------------------------------------
 .byte   W96
@  #01 @004   ----------------------------------------
 .byte   W96
@  #01 @005   ----------------------------------------
 .byte   W96
@  #01 @006   ----------------------------------------
 .byte   W96
@  #01 @007   ----------------------------------------
 .byte   W96
@  #01 @008   ----------------------------------------
Label_010068DE:
 .byte   N32 ,En3 ,v112
 .byte   W36
 .byte   N32
 .byte   W36
 .byte   N22 ,Cs3
 .byte   W24
 .byte   PEND 
@  #01 @009   ----------------------------------------
Label_010068E8:
 .byte   N32 ,En3 ,v112
 .byte   W36
 .byte   N32
 .byte   W36
 .byte   N22
 .byte   W24
 .byte   PEND 
@  #01 @010   ----------------------------------------
Label_010068F1:
 .byte   N68 ,Fn3 ,v112
 .byte   W72
 .byte   N22
 .byte   W24
 .byte   PEND 
@  #01 @011   ----------------------------------------
Label_010068F8:
 .byte   N32 ,Fn3 ,v112
 .byte   W36
 .byte   N22 ,Fs3
 .byte   W24
 .byte   N11
 .byte   W12
 .byte   N22 ,Gs3
 .byte   W24
 .byte   PEND 
@  #01 @012   ----------------------------------------
Label_01006905:
 .byte   N11 ,An3 ,v112
 .byte   W12
 .byte   N22 ,Gs3
 .byte   W24
 .byte   TIE ,Fs3
 .byte   W60
 .byte   PEND 
@  #01 @013   ----------------------------------------
 .byte   W88
 .byte   EOT
 .byte   W08
@  #01 @014   ----------------------------------------
Label_01006913:
 .byte   W24
 .byte   N11 ,Dn3 ,v112
 .byte   W12
 .byte   N11
 .byte   W12
 .byte   N22
 .byte   W24
 .byte   N44
 .byte   W24
 .byte   PEND 
@  #01 @015   ----------------------------------------
 .byte   W24
 .byte   N11 ,Fn3
 .byte   W12
 .byte   N11
 .byte   W12
 .byte   N11
 .byte   W12
 .byte   N11
 .byte   W12
 .byte   N22
 .byte   W24
@  #01 @016   ----------------------------------------
 .byte   N32 ,En3
 .byte   W36
 .byte   Cs3
 .byte   W36
 .byte   N22
 .byte   W24
@  #01 @017   ----------------------------------------
 .byte   N90 ,En3
 .byte   W96
@  #01 @018   ----------------------------------------
 .byte   W96
@  #01 @019   ----------------------------------------
 .byte   PATT
  .word Label_010068DE
@  #01 @020   ----------------------------------------
 .byte   PATT
  .word Label_010068E8
@  #01 @021   ----------------------------------------
 .byte   PATT
  .word Label_010068F1
@  #01 @022   ----------------------------------------
 .byte   PATT
  .word Label_010068F8
@  #01 @023   ----------------------------------------
 .byte   PATT
  .word Label_01006905
@  #01 @024   ----------------------------------------
 .byte   W88
 .byte   EOT
 .byte   Fs3
 .byte   W08
@  #01 @025   ----------------------------------------
 .byte   PATT
  .word Label_01006913
@  #01 @026   ----------------------------------------
 .byte   W24
 .byte   N22 ,Fn3 ,v112
 .byte   W24
 .byte   N22
 .byte   W24
 .byte   N22
 .byte   W24
@  #01 @027   ----------------------------------------
 .byte   W24
 .byte   N11 ,En3
 .byte   W12
 .byte   N11
 .byte   W12
 .byte   N22
 .byte   W24
 .byte   N22
 .byte   W24
@  #01 @028   ----------------------------------------
 .byte   N90 ,Ds3
 .byte   W96
@  #01 @029   ----------------------------------------
 .byte   Fs3
 .byte   W96
@  #01 @030   ----------------------------------------
Label_01006970:
 .byte   W24
 .byte   N22 ,Fs3 ,v112
 .byte   W24
 .byte   N22
 .byte   W24
 .byte   An3
 .byte   W24
 .byte   PEND 
@  #01 @031   ----------------------------------------
 .byte   N32 ,Gs3
 .byte   W36
 .byte   N56 ,Fs3
 .byte   W60
@  #01 @032   ----------------------------------------
 .byte   PATT
  .word Label_01006970
@  #01 @033   ----------------------------------------
Label_01006985:
 .byte   N11 ,Gs3 ,v112
 .byte   W12
 .byte   N22 ,Fs3
 .byte   W24
 .byte   N32 ,Dn3
 .byte   W36
 .byte   N22 ,En3
 .byte   W24
 .byte   PEND 
@  #01 @034   ----------------------------------------
Label_01006993:
 .byte   N44 ,Cs3 ,v112
 .byte   W72
 .byte   N11 ,En3
 .byte   W12
 .byte   N11
 .byte   W12
 .byte   PEND 
@  #01 @035   ----------------------------------------
 .byte   PATT
  .word Label_010068E8
@  #01 @036   ----------------------------------------
 .byte   N90 ,Ds3 ,v112
 .byte   W96
@  #01 @037   ----------------------------------------
Label_010069A6:
 .byte   N68 ,Fs3 ,v112
 .byte   W72
 .byte   N22
 .byte   W24
 .byte   PEND 
@  #01 @038   ----------------------------------------
 .byte   N90 ,Dn3
 .byte   W96
@  #01 @039   ----------------------------------------
 .byte   Fs3
 .byte   W96
@  #01 @040   ----------------------------------------
 .byte   W24
 .byte   N11 ,Fn3
 .byte   W12
 .byte   N11
 .byte   W12
 .byte   N22
 .byte   W24
 .byte   N22
 .byte   W24
@  #01 @041   ----------------------------------------
 .byte   Gn3
 .byte   W24
 .byte   N22
 .byte   W24
 .byte   N22
 .byte   W24
 .byte   N22
 .byte   W24
@  #01 @042   ----------------------------------------
 .byte   W96
@  #01 @043   ----------------------------------------
Label_010069C5:
 .byte   N32 ,En3 ,v112
 .byte   N32 ,An3
 .byte   W36
 .byte   En3
 .byte   N32 ,An3
 .byte   W36
 .byte   N22 ,Cs3
 .byte   N22 ,En3
 .byte   W24
 .byte   PEND 
@  #01 @044   ----------------------------------------
Label_010069D5:
 .byte   N44 ,An2 ,v112
 .byte   N44 ,Dn3
 .byte   W48
 .byte   TIE ,En3
 .byte   TIE ,An3
 .byte   W48
 .byte   PEND 
@  #01 @045   ----------------------------------------
 .byte   W88
 .byte   EOT
 .byte   En3 ,v069
 .byte   W08
@  #01 @046   ----------------------------------------
 .byte   W96
@  #01 @047   ----------------------------------------
Label_010069E7:
 .byte   N32 ,Dn3 ,v112
 .byte   W36
 .byte   N32
 .byte   W36
 .byte   N22 ,Fs3
 .byte   W24
 .byte   PEND 
@  #01 @048   ----------------------------------------
 .byte   N44 ,En3
 .byte   W48
 .byte   An3
 .byte   W48
@  #01 @049   ----------------------------------------
Label_010069F6:
 .byte   N32 ,Fs3 ,v112
 .byte   W36
 .byte   N32
 .byte   W36
 .byte   N22 ,An3
 .byte   W24
 .byte   PEND 
@  #01 @050   ----------------------------------------
 .byte   Gs3
 .byte   W24
 .byte   An3
 .byte   W24
 .byte   Bn3
 .byte   W24
 .byte   N22
 .byte   W24
@  #01 @051   ----------------------------------------
 .byte   PATT
  .word Label_010069C5
@  #01 @052   ----------------------------------------
 .byte   PATT
  .word Label_010069D5
@  #01 @053   ----------------------------------------
 .byte   W88
 .byte   EOT
 .byte   En3 ,v069
 .byte   W08
@  #01 @054   ----------------------------------------
 .byte   W96
@  #01 @055   ----------------------------------------
 .byte   PATT
  .word Label_010069E7
@  #01 @056   ----------------------------------------
 .byte   N44 ,En3 ,v112
 .byte   W48
 .byte   An3
 .byte   W48
@  #01 @057   ----------------------------------------
 .byte   PATT
  .word Label_010069F6
@  #01 @058   ----------------------------------------
Label_01006A28:
 .byte   N44 ,Gs3 ,v112
 .byte   W48
 .byte   Bn3
 .byte   W48
 .byte   PEND 
@  #01 @059   ----------------------------------------
 .byte   N90 ,An3
 .byte   W96
@  #01 @060   ----------------------------------------
 .byte   W96
@  #01 @061   ----------------------------------------
 .byte   W96
@  #01 @062   ----------------------------------------
 .byte   W96
@  #01 @063   ----------------------------------------
 .byte   W96
@  #01 @064   ----------------------------------------
 .byte   W96
@  #01 @065   ----------------------------------------
 .byte   W96
@  #01 @066   ----------------------------------------
 .byte   W96
@  #01 @067   ----------------------------------------
 .byte   PATT
  .word Label_010068DE
@  #01 @068   ----------------------------------------
 .byte   PATT
  .word Label_010068E8
@  #01 @069   ----------------------------------------
 .byte   PATT
  .word Label_010068F1
@  #01 @070   ----------------------------------------
 .byte   PATT
  .word Label_010068F8
@  #01 @071   ----------------------------------------
 .byte   PATT
  .word Label_01006905
@  #01 @072   ----------------------------------------
 .byte   W88
 .byte   EOT
 .byte   Fs3
 .byte   W08
@  #01 @073   ----------------------------------------
 .byte   W24
 .byte   N22 ,Dn3 ,v112
 .byte   W24
 .byte   N22
 .byte   W24
 .byte   N22
 .byte   W24
@  #01 @074   ----------------------------------------
Label_01006A5F:
 .byte   N32 ,Fn3 ,v112
 .byte   W36
 .byte   N32
 .byte   W36
 .byte   N22
 .byte   W24
 .byte   PEND 
@  #01 @075   ----------------------------------------
 .byte   PATT
  .word Label_010068E8
@  #01 @076   ----------------------------------------
 .byte   N44 ,Ds3 ,v112
 .byte   W48
 .byte   TIE ,Fs3
 .byte   W48
@  #01 @077   ----------------------------------------
 .byte   W88
 .byte   EOT
 .byte   W08
@  #01 @078   ----------------------------------------
 .byte   PATT
  .word Label_01006970
@  #01 @079   ----------------------------------------
 .byte   N11 ,Gs3 ,v112
 .byte   W12
 .byte   N22 ,Fs3
 .byte   W24
 .byte   N56
 .byte   W60
@  #01 @080   ----------------------------------------
Label_01006A85:
 .byte   W24
 .byte   N44 ,Fs3 ,v112
 .byte   W48
 .byte   N22 ,An3
 .byte   W24
 .byte   PEND 
@  #01 @081   ----------------------------------------
 .byte   PATT
  .word Label_01006985
@  #01 @082   ----------------------------------------
 .byte   PATT
  .word Label_01006993
@  #01 @083   ----------------------------------------
 .byte   PATT
  .word Label_010068E8
@  #01 @084   ----------------------------------------
 .byte   N90 ,Ds3 ,v112
 .byte   W96
@  #01 @085   ----------------------------------------
 .byte   PATT
  .word Label_010069A6
@  #01 @086   ----------------------------------------
 .byte   N90 ,Dn3 ,v112
 .byte   W96
@  #01 @087   ----------------------------------------
 .byte   Fs3
 .byte   W96
@  #01 @088   ----------------------------------------
 .byte   PATT
  .word Label_01006A5F
@  #01 @089   ----------------------------------------
 .byte   N22 ,Gn3 ,v112
 .byte   W24
 .byte   N22
 .byte   W24
 .byte   N44
 .byte   W48
@  #01 @090   ----------------------------------------
 .byte   W96
@  #01 @091   ----------------------------------------
 .byte   N32 ,En3
 .byte   N32 ,An3
 .byte   W36
 .byte   N22 ,En3
 .byte   N22 ,An3
 .byte   W24
 .byte   N11 ,Cs3
 .byte   N11 ,En3
 .byte   W12
 .byte   N22 ,Cs3
 .byte   N22 ,En3
 .byte   W24
@  #01 @092   ----------------------------------------
 .byte   PATT
  .word Label_010069D5
@  #01 @093   ----------------------------------------
 .byte   W88
 .byte   EOT
 .byte   En3 ,v069
 .byte   W08
@  #01 @094   ----------------------------------------
 .byte   W96
@  #01 @095   ----------------------------------------
 .byte   N22 ,Dn3 ,v112
 .byte   W24
 .byte   N11
 .byte   W12
 .byte   N32
 .byte   W36
 .byte   N11 ,Fs3
 .byte   W12
 .byte   N11
 .byte   W12
@  #01 @096   ----------------------------------------
 .byte   N44 ,En3
 .byte   W48
 .byte   An3
 .byte   W48
@  #01 @097   ----------------------------------------
 .byte   PATT
  .word Label_010069F6
@  #01 @098   ----------------------------------------
 .byte   PATT
  .word Label_01006A28
@  #01 @099   ----------------------------------------
 .byte   PATT
  .word Label_010069C5
@  #01 @100   ----------------------------------------
 .byte   PATT
  .word Label_010069D5
@  #01 @101   ----------------------------------------
 .byte   W88
 .byte   EOT
 .byte   En3 ,v069
 .byte   W08
@  #01 @102   ----------------------------------------
 .byte   W96
@  #01 @103   ----------------------------------------
 .byte   PATT
  .word Label_010069E7
@  #01 @104   ----------------------------------------
 .byte   N44 ,En3 ,v112
 .byte   W48
 .byte   An3
 .byte   W48
@  #01 @105   ----------------------------------------
 .byte   N22 ,Fs3
 .byte   W24
 .byte   N11
 .byte   W12
 .byte   N11
 .byte   W12
 .byte   N22
 .byte   W24
 .byte   An3
 .byte   W24
@  #01 @106   ----------------------------------------
 .byte   PATT
  .word Label_01006A28
@  #01 @107   ----------------------------------------
 .byte   N90 ,An3 ,v112
 .byte   W96
@  #01 @108   ----------------------------------------
 .byte   W96
@  #01 @109   ----------------------------------------
 .byte   W96
@  #01 @110   ----------------------------------------
 .byte   W96
@  #01 @111   ----------------------------------------
 .byte   W96
@  #01 @112   ----------------------------------------
 .byte   W96
@  #01 @113   ----------------------------------------
 .byte   W96
@  #01 @114   ----------------------------------------
 .byte   W96
@  #01 @115   ----------------------------------------
 .byte   W96
@  #01 @116   ----------------------------------------
 .byte   W96
@  #01 @117   ----------------------------------------
 .byte   W96
@  #01 @118   ----------------------------------------
 .byte   W96
@  #01 @119   ----------------------------------------
 .byte   W96
@  #01 @120   ----------------------------------------
 .byte   W96
@  #01 @121   ----------------------------------------
 .byte   W96
@  #01 @122   ----------------------------------------
 .byte   W96
@  #01 @123   ----------------------------------------
 .byte   PATT
  .word Label_01006970
@  #01 @124   ----------------------------------------
 .byte   N22 ,Gn3 ,v112
 .byte   W24
 .byte   N11
 .byte   W12
 .byte   N56 ,Dn3
 .byte   W60
@  #01 @125   ----------------------------------------
 .byte   W24
 .byte   N11 ,Fs3
 .byte   W12
 .byte   N11
 .byte   W12
 .byte   N22
 .byte   W24
 .byte   Dn3
 .byte   W24
@  #01 @126   ----------------------------------------
 .byte   N32 ,Cs3
 .byte   W36
 .byte   Dn3
 .byte   W36
 .byte   N22 ,En3
 .byte   W24
@  #01 @127   ----------------------------------------
 .byte   PATT
  .word Label_01006A85
@  #01 @128   ----------------------------------------
 .byte   N32 ,Gn3 ,v112
 .byte   W36
 .byte   N22 ,Dn3
 .byte   W24
 .byte   N11
 .byte   W12
 .byte   N22 ,Gn3
 .byte   W24
@  #01 @129   ----------------------------------------
 .byte   N90 ,Fs3
 .byte   W96
@  #01 @130   ----------------------------------------
 .byte   N32
 .byte   W36
 .byte   En3
 .byte   W36
 .byte   N22 ,Dn3
 .byte   W24
@  #01 @131   ----------------------------------------
 .byte   N32 ,En3
 .byte   W36
 .byte   N32
 .byte   W36
 .byte   N11 ,Bn2
 .byte   W12
 .byte   N11
 .byte   W12
@  #01 @132   ----------------------------------------
 .byte   N22 ,En3
 .byte   W24
 .byte   N22
 .byte   W24
 .byte   N44
 .byte   W48
@  #01 @133   ----------------------------------------
 .byte   N32 ,Ds3
 .byte   W36
 .byte   Fn3
 .byte   W36
 .byte   N22 ,Gn3
 .byte   W24
@  #01 @134   ----------------------------------------
 .byte   N90 ,Fs3
 .byte   N90 ,As3
 .byte   W96
@  #01 @135   ----------------------------------------
 .byte   W96
@  #01 @136   ----------------------------------------
Label_01006B8D:
 .byte   N32 ,En3 ,v127
 .byte   N32 ,An3
 .byte   W36
 .byte   En3
 .byte   N32 ,An3
 .byte   W36
 .byte   N22 ,Cs3
 .byte   N22 ,En3
 .byte   W24
 .byte   PEND 
@  #01 @137   ----------------------------------------
Label_01006B9D:
 .byte   N44 ,An2 ,v127
 .byte   N44 ,Dn3
 .byte   W48
 .byte   TIE ,En3
 .byte   TIE ,An3
 .byte   W48
 .byte   PEND 
@  #01 @138   ----------------------------------------
 .byte   W88
 .byte   EOT
 .byte   En3 ,v069
 .byte   W08
@  #01 @139   ----------------------------------------
 .byte   W96
@  #01 @140   ----------------------------------------
Label_01006BAF:
 .byte   N32 ,Dn3 ,v127
 .byte   W36
 .byte   N32
 .byte   W36
 .byte   N22 ,Fs3
 .byte   W24
 .byte   PEND 
@  #01 @141   ----------------------------------------
 .byte   N44 ,En3
 .byte   W48
 .byte   An3
 .byte   W48
@  #01 @142   ----------------------------------------
Label_01006BBE:
 .byte   N32 ,Fs3 ,v127
 .byte   W36
 .byte   N32
 .byte   W36
 .byte   N22 ,An3
 .byte   W24
 .byte   PEND 
@  #01 @143   ----------------------------------------
 .byte   Gs3
 .byte   W24
 .byte   An3
 .byte   W24
 .byte   Bn3
 .byte   W24
 .byte   N22
 .byte   W24
@  #01 @144   ----------------------------------------
 .byte   PATT
  .word Label_01006B8D
@  #01 @145   ----------------------------------------
 .byte   PATT
  .word Label_01006B9D
@  #01 @146   ----------------------------------------
 .byte   W88
 .byte   EOT
 .byte   En3 ,v069
 .byte   W08
@  #01 @147   ----------------------------------------
 .byte   W96
@  #01 @148   ----------------------------------------
 .byte   PATT
  .word Label_01006BAF
@  #01 @149   ----------------------------------------
 .byte   N44 ,En3 ,v127
 .byte   W48
 .byte   An3
 .byte   W48
@  #01 @150   ----------------------------------------
 .byte   PATT
  .word Label_01006BBE
@  #01 @151   ----------------------------------------
 .byte   N44 ,Gs3 ,v127
 .byte   W48
 .byte   Bn3
 .byte   W48
@  #01 @152   ----------------------------------------
 .byte   TIE ,An3
 .byte   W96
@  #01 @153   ----------------------------------------
 .byte   W84
 .byte   W02
 .byte   EOT
 .byte   W10
@  #01 @154   ----------------------------------------
 .byte   W96
@  #01 @155   ----------------------------------------
 .byte   W96
@  #01 @156   ----------------------------------------
 .byte   W96
@  #01 @157   ----------------------------------------
 .byte   W96
@  #01 @158   ----------------------------------------
 .byte   W96
@  #01 @159   ----------------------------------------
 .byte   N44 ,Fn3
 .byte   W48
 .byte   En3
 .byte   W48
@  #01 @160   ----------------------------------------
 .byte   TIE ,An2
 .byte   W96
@  #01 @161   ----------------------------------------
 .byte   W84
 .byte   W02
 .byte   EOT
 .byte   GOTO
  .word Label_010068CE
 .byte   FINE

@**************** Track 2 (Midi-Chn.1) ****************@

BelieveInMyselfSA2B_002:
@  #02 @000   ----------------------------------------
 .byte   KEYSH , BelieveInMyselfSA2B_key+0
Label_01006C2A:
 .byte   VOICE , 46
 .byte   VOL , 77*BelieveInMyselfSA2B_mvl/mxv
 .byte   PAN , c_v+0
 .byte   N44 ,Cs3 ,v112
 .byte   W48
 .byte   An2
 .byte   W48
@  #02 @001   ----------------------------------------
Label_01006C36:
 .byte   N44 ,Fn2 ,v112
 .byte   W48
 .byte   Bn2
 .byte   W48
 .byte   PEND 
@  #02 @002   ----------------------------------------
Label_01006C3D:
 .byte   N11 ,Bn2 ,v112
 .byte   W12
 .byte   Cs3
 .byte   W12
 .byte   Bn2
 .byte   W12
 .byte   N56 ,An2
 .byte   W60
 .byte   PEND 
@  #02 @003   ----------------------------------------
Label_01006C49:
 .byte   N11 ,Bn2 ,v112
 .byte   W12
 .byte   Cs3
 .byte   W12
 .byte   An2
 .byte   W12
 .byte   N44 ,Gn2
 .byte   W48
 .byte   N11 ,En3
 .byte   W12
 .byte   PEND 
@  #02 @004   ----------------------------------------
 .byte   Dn3
 .byte   W12
 .byte   En3
 .byte   W12
 .byte   Dn3
 .byte   W12
 .byte   N22 ,Cs3
 .byte   W24
 .byte   N11 ,An2
 .byte   W12
 .byte   N22 ,Fs2
 .byte   W24
@  #02 @005   ----------------------------------------
Label_01006C67:
 .byte   N44 ,An2 ,v112
 .byte   W48
 .byte   N22 ,Fs2
 .byte   W24
 .byte   An2
 .byte   W24
 .byte   PEND 
@  #02 @006   ----------------------------------------
 .byte   N11 ,Dn3
 .byte   W12
 .byte   En3
 .byte   W12
 .byte   Dn3
 .byte   W12
 .byte   N22 ,Cn3
 .byte   W24
 .byte   N11 ,An2
 .byte   W12
 .byte   N22 ,Fn2
 .byte   W24
@  #02 @007   ----------------------------------------
Label_01006C81:
 .byte   N44 ,An2 ,v112
 .byte   N44 ,Fn3
 .byte   W48
 .byte   Bn2
 .byte   N44 ,Gn3
 .byte   W48
 .byte   PEND 
@  #02 @008   ----------------------------------------
 .byte   N90 ,An3 ,v096
 .byte   W96
@  #02 @009   ----------------------------------------
Label_01006C90:
 .byte   N44 ,Bn3 ,v096
 .byte   W48
 .byte   N22 ,Cs4
 .byte   W24
 .byte   An3
 .byte   W24
 .byte   PEND 
@  #02 @010   ----------------------------------------
Label_01006C9A:
 .byte   N44 ,Bn3 ,v096
 .byte   W48
 .byte   Gs3
 .byte   W48
 .byte   PEND 
@  #02 @011   ----------------------------------------
Label_01006CA1:
 .byte   N44 ,Bn3 ,v096
 .byte   W48
 .byte   N22 ,Cs4
 .byte   W24
 .byte   Gs3
 .byte   W24
 .byte   PEND 
@  #02 @012   ----------------------------------------
 .byte   N90 ,An3
 .byte   W96
@  #02 @013   ----------------------------------------
Label_01006CAE:
 .byte   N44 ,Bn3 ,v096
 .byte   W48
 .byte   N22 ,Cs4
 .byte   W24
 .byte   TIE ,An3
 .byte   W24
 .byte   PEND 
@  #02 @014   ----------------------------------------
 .byte   W88
 .byte   W01
 .byte   EOT
 .byte   W07
@  #02 @015   ----------------------------------------
 .byte   W96
@  #02 @016   ----------------------------------------
 .byte   W96
@  #02 @017   ----------------------------------------
 .byte   W96
@  #02 @018   ----------------------------------------
 .byte   N44 ,En3
 .byte   W48
 .byte   N22 ,Dn3
 .byte   W24
 .byte   En3
 .byte   W24
@  #02 @019   ----------------------------------------
 .byte   N90 ,An3
 .byte   W96
@  #02 @020   ----------------------------------------
 .byte   PATT
  .word Label_01006C90
@  #02 @021   ----------------------------------------
 .byte   PATT
  .word Label_01006C9A
@  #02 @022   ----------------------------------------
 .byte   PATT
  .word Label_01006CA1
@  #02 @023   ----------------------------------------
 .byte   N90 ,An3 ,v096
 .byte   W96
@  #02 @024   ----------------------------------------
 .byte   PATT
  .word Label_01006CAE
@  #02 @025   ----------------------------------------
 .byte   W88
 .byte   W01
 .byte   EOT
 .byte   An3
 .byte   W07
@  #02 @026   ----------------------------------------
 .byte   W96
@  #02 @027   ----------------------------------------
 .byte   W96
@  #02 @028   ----------------------------------------
 .byte   W96
@  #02 @029   ----------------------------------------
 .byte   W96
@  #02 @030   ----------------------------------------
Label_01006CEC:
 .byte   N11 ,Fs2 ,v112
 .byte   W12
 .byte   Cs2
 .byte   W12
 .byte   Fs2
 .byte   W12
 .byte   N22 ,Gs2
 .byte   W24
 .byte   N32 ,An2
 .byte   W36
 .byte   PEND 
@  #02 @031   ----------------------------------------
 .byte   W96
@  #02 @032   ----------------------------------------
 .byte   PATT
  .word Label_01006CEC
@  #02 @033   ----------------------------------------
 .byte   W96
@  #02 @034   ----------------------------------------
 .byte   W96
@  #02 @035   ----------------------------------------
Label_01006D03:
 .byte   N32 ,An3 ,v112
 .byte   W72
 .byte   N22 ,Cs3
 .byte   W24
 .byte   PEND 
@  #02 @036   ----------------------------------------
 .byte   W96
@  #02 @037   ----------------------------------------
Label_01006D0C:
 .byte   N32 ,An3 ,v112
 .byte   W36
 .byte   En3
 .byte   W36
 .byte   N22 ,Ds3
 .byte   W24
 .byte   PEND 
@  #02 @038   ----------------------------------------
 .byte   W96
@  #02 @039   ----------------------------------------
Label_01006D17:
 .byte   N32 ,An3 ,v112
 .byte   W36
 .byte   En3
 .byte   W36
 .byte   N22 ,Dn3
 .byte   W24
 .byte   PEND 
@  #02 @040   ----------------------------------------
 .byte   W96
@  #02 @041   ----------------------------------------
 .byte   W96
@  #02 @042   ----------------------------------------
Label_01006D23:
 .byte   N22 ,Bn4 ,v112
 .byte   W24
 .byte   Gn4
 .byte   W24
 .byte   Dn4
 .byte   W24
 .byte   Bn3
 .byte   W24
 .byte   PEND 
@  #02 @043   ----------------------------------------
 .byte   W96
@  #02 @044   ----------------------------------------
 .byte   W96
@  #02 @045   ----------------------------------------
Label_01006D30:
 .byte   W24
 .byte   N22 ,An2 ,v112
 .byte   W24
 .byte   N22
 .byte   W24
 .byte   Bn2
 .byte   W24
 .byte   PEND 
@  #02 @046   ----------------------------------------
Label_01006D3A:
 .byte   N22 ,Cs3 ,v112
 .byte   W24
 .byte   En2
 .byte   W24
 .byte   Dn2
 .byte   W24
 .byte   N22
 .byte   W24
 .byte   PEND 
@  #02 @047   ----------------------------------------
 .byte   W96
@  #02 @048   ----------------------------------------
 .byte   W48
 .byte   N44 ,Gs4
 .byte   W48
@  #02 @049   ----------------------------------------
 .byte   W48
 .byte   An4
 .byte   W48
@  #02 @050   ----------------------------------------
 .byte   W48
 .byte   Bn4
 .byte   W48
@  #02 @051   ----------------------------------------
 .byte   W96
@  #02 @052   ----------------------------------------
 .byte   W96
@  #02 @053   ----------------------------------------
 .byte   PATT
  .word Label_01006D30
@  #02 @054   ----------------------------------------
Label_01006D57:
 .byte   N22 ,Cs3 ,v112
 .byte   W24
 .byte   En2
 .byte   W24
 .byte   N44 ,Dn2
 .byte   W48
 .byte   PEND 
@  #02 @055   ----------------------------------------
 .byte   W96
@  #02 @056   ----------------------------------------
 .byte   W96
@  #02 @057   ----------------------------------------
 .byte   W96
@  #02 @058   ----------------------------------------
 .byte   W96
@  #02 @059   ----------------------------------------
 .byte   Cs3
 .byte   W48
 .byte   An2
 .byte   W48
@  #02 @060   ----------------------------------------
 .byte   PATT
  .word Label_01006C36
@  #02 @061   ----------------------------------------
 .byte   PATT
  .word Label_01006C3D
@  #02 @062   ----------------------------------------
 .byte   PATT
  .word Label_01006C49
@  #02 @063   ----------------------------------------
 .byte   N11 ,Dn3 ,v112
 .byte   W12
 .byte   En3
 .byte   W12
 .byte   Dn3
 .byte   W12
 .byte   N22 ,Cs3
 .byte   W24
 .byte   An2
 .byte   W24
 .byte   N11 ,Fs2
 .byte   W12
@  #02 @064   ----------------------------------------
 .byte   PATT
  .word Label_01006C67
@  #02 @065   ----------------------------------------
 .byte   N11 ,Dn3 ,v112
 .byte   W12
 .byte   En3
 .byte   W12
 .byte   Dn3
 .byte   W12
 .byte   N22 ,Cn3
 .byte   W24
 .byte   An2
 .byte   W24
 .byte   N11 ,Fn2
 .byte   W12
@  #02 @066   ----------------------------------------
 .byte   PATT
  .word Label_01006C81
@  #02 @067   ----------------------------------------
 .byte   N90 ,An3 ,v096
 .byte   W96
@  #02 @068   ----------------------------------------
 .byte   PATT
  .word Label_01006C90
@  #02 @069   ----------------------------------------
 .byte   PATT
  .word Label_01006C9A
@  #02 @070   ----------------------------------------
 .byte   PATT
  .word Label_01006CA1
@  #02 @071   ----------------------------------------
 .byte   N90 ,An3 ,v096
 .byte   W96
@  #02 @072   ----------------------------------------
 .byte   PATT
  .word Label_01006CAE
@  #02 @073   ----------------------------------------
 .byte   W88
 .byte   W01
 .byte   EOT
 .byte   An3
 .byte   W07
@  #02 @074   ----------------------------------------
 .byte   W96
@  #02 @075   ----------------------------------------
 .byte   W96
@  #02 @076   ----------------------------------------
 .byte   W96
@  #02 @077   ----------------------------------------
 .byte   W96
@  #02 @078   ----------------------------------------
 .byte   PATT
  .word Label_01006CEC
@  #02 @079   ----------------------------------------
 .byte   W96
@  #02 @080   ----------------------------------------
 .byte   PATT
  .word Label_01006CEC
@  #02 @081   ----------------------------------------
 .byte   W96
@  #02 @082   ----------------------------------------
 .byte   W96
@  #02 @083   ----------------------------------------
 .byte   PATT
  .word Label_01006D03
@  #02 @084   ----------------------------------------
 .byte   W96
@  #02 @085   ----------------------------------------
 .byte   PATT
  .word Label_01006D0C
@  #02 @086   ----------------------------------------
 .byte   W96
@  #02 @087   ----------------------------------------
 .byte   PATT
  .word Label_01006D17
@  #02 @088   ----------------------------------------
 .byte   W96
@  #02 @089   ----------------------------------------
 .byte   W96
@  #02 @090   ----------------------------------------
 .byte   PATT
  .word Label_01006D23
@  #02 @091   ----------------------------------------
 .byte   W96
@  #02 @092   ----------------------------------------
 .byte   W96
@  #02 @093   ----------------------------------------
 .byte   PATT
  .word Label_01006D30
@  #02 @094   ----------------------------------------
 .byte   PATT
  .word Label_01006D3A
@  #02 @095   ----------------------------------------
 .byte   W96
@  #02 @096   ----------------------------------------
 .byte   W48
 .byte   N44 ,Gs4 ,v112
 .byte   W48
@  #02 @097   ----------------------------------------
 .byte   W48
 .byte   An4
 .byte   W48
@  #02 @098   ----------------------------------------
 .byte   W48
 .byte   Bn4
 .byte   W48
@  #02 @099   ----------------------------------------
 .byte   W96
@  #02 @100   ----------------------------------------
 .byte   W96
@  #02 @101   ----------------------------------------
 .byte   PATT
  .word Label_01006D30
@  #02 @102   ----------------------------------------
 .byte   PATT
  .word Label_01006D57
@  #02 @103   ----------------------------------------
 .byte   W96
@  #02 @104   ----------------------------------------
 .byte   W96
@  #02 @105   ----------------------------------------
 .byte   W96
@  #02 @106   ----------------------------------------
 .byte   W96
@  #02 @107   ----------------------------------------
 .byte   W12
 .byte   N11 ,Cs4 ,v112
 .byte   W12
 .byte   Dn4
 .byte   W12
 .byte   N22 ,An3
 .byte   W24
 .byte   N11 ,En3
 .byte   W12
 .byte   N22 ,Cs3
 .byte   W24
@  #02 @108   ----------------------------------------
 .byte   Gs2
 .byte   W24
 .byte   N11 ,Cs3
 .byte   W12
 .byte   N22 ,Fn3
 .byte   W24
 .byte   N11 ,Gs3
 .byte   W12
 .byte   Cs4
 .byte   W12
 .byte   Fn4
 .byte   W12
@  #02 @109   ----------------------------------------
 .byte   Fs4
 .byte   W12
 .byte   N22 ,Cs4
 .byte   W24
 .byte   N11 ,Fs3
 .byte   W12
 .byte   N11
 .byte   W12
 .byte   Gs3
 .byte   W12
 .byte   N11
 .byte   W12
 .byte   An3
 .byte   W12
@  #02 @110   ----------------------------------------
 .byte   N22 ,Gn3
 .byte   W24
 .byte   N11 ,En4
 .byte   W12
 .byte   N32 ,Dn4
 .byte   W60
@  #02 @111   ----------------------------------------
 .byte   W12
 .byte   N11 ,An3
 .byte   W12
 .byte   Dn4
 .byte   W12
 .byte   An3
 .byte   W12
 .byte   En4
 .byte   W12
 .byte   N22 ,Dn4
 .byte   W24
 .byte   N11 ,En4
 .byte   W12
@  #02 @112   ----------------------------------------
 .byte   N22 ,Fs4
 .byte   W24
 .byte   N11 ,En4
 .byte   W12
 .byte   N32 ,Dn4
 .byte   W60
@  #02 @113   ----------------------------------------
 .byte   W12
 .byte   N11 ,An3
 .byte   W12
 .byte   Cn4
 .byte   W12
 .byte   An3
 .byte   W12
 .byte   Fn4
 .byte   W12
 .byte   Cn4
 .byte   W12
 .byte   Gn4
 .byte   W12
 .byte   N22 ,An4
 .byte   W12
@  #02 @114   ----------------------------------------
 .byte   W12
 .byte   N11 ,Gn4
 .byte   W12
 .byte   Fn4
 .byte   W12
 .byte   N32 ,Gn4
 .byte   W60
@  #02 @115   ----------------------------------------
 .byte   N11 ,An3
 .byte   N11 ,Cs4
 .byte   W12
 .byte   Bn3
 .byte   N11 ,Dn4
 .byte   W12
 .byte   Cs4
 .byte   N11 ,En4
 .byte   W12
 .byte   N32 ,En3
 .byte   N32 ,An3
 .byte   W36
 .byte   N11 ,En3
 .byte   N11 ,An3
 .byte   W12
 .byte   En3
 .byte   N11 ,Gs3
 .byte   W12
@  #02 @116   ----------------------------------------
 .byte   Fn3
 .byte   N11 ,Gs3
 .byte   W12
 .byte   Fs3
 .byte   N11 ,An3
 .byte   W12
 .byte   Fn3
 .byte   N11 ,Gs3
 .byte   W12
 .byte   N32 ,Cs3
 .byte   N32 ,Fn3
 .byte   W60
@  #02 @117   ----------------------------------------
 .byte   N11 ,Cs3
 .byte   N11 ,Fs3
 .byte   W12
 .byte   N11
 .byte   N11 ,An3
 .byte   W24
 .byte   N11
 .byte   N11 ,Cs4
 .byte   W24
 .byte   N11
 .byte   N11 ,En4
 .byte   W24
 .byte   N22 ,Bn3
 .byte   N22 ,Dn4
 .byte   W12
@  #02 @118   ----------------------------------------
 .byte   W12
 .byte   N11 ,An3
 .byte   N11 ,Cs4
 .byte   W12
 .byte   Gn3
 .byte   N11 ,Bn3
 .byte   W12
 .byte   N56 ,Dn4
 .byte   N56 ,Gn4
 .byte   W60
@  #02 @119   ----------------------------------------
 .byte   N11 ,En3
 .byte   N11 ,An3
 .byte   W12
 .byte   N11
 .byte   N11 ,Cs4
 .byte   W24
 .byte   Bn3
 .byte   N11 ,Dn4
 .byte   W24
 .byte   Cs4
 .byte   N11 ,En4
 .byte   W24
 .byte   N22 ,Dn4
 .byte   N22 ,Fs4
 .byte   W12
@  #02 @120   ----------------------------------------
 .byte   W12
 .byte   N11 ,En4
 .byte   N11 ,Gn4
 .byte   W12
 .byte   Fs4
 .byte   N11 ,An4
 .byte   W12
 .byte   N56 ,An3
 .byte   N56 ,Dn4
 .byte   W60
@  #02 @121   ----------------------------------------
 .byte   N11 ,An4
 .byte   W12
 .byte   Gn4
 .byte   W12
 .byte   Fn4
 .byte   W12
 .byte   N22 ,Cn4
 .byte   W24
 .byte   N11 ,Cn5
 .byte   W12
 .byte   As4
 .byte   W12
 .byte   An4
 .byte   W12
@  #02 @122   ----------------------------------------
 .byte   Fn4
 .byte   W24
 .byte   Dn5
 .byte   W12
 .byte   Cn5
 .byte   W12
 .byte   Bn4
 .byte   W12
 .byte   Gn4
 .byte   W24
 .byte   N05 ,An4
 .byte   W06
 .byte   Gn4
 .byte   W06
@  #02 @123   ----------------------------------------
 .byte   N44 ,Fs4
 .byte   W96
@  #02 @124   ----------------------------------------
 .byte   N32 ,Gn2
 .byte   W36
 .byte   An2
 .byte   W36
 .byte   N68 ,Dn3
 .byte   W24
@  #02 @125   ----------------------------------------
 .byte   W96
@  #02 @126   ----------------------------------------
 .byte   W96
@  #02 @127   ----------------------------------------
 .byte   W96
@  #02 @128   ----------------------------------------
 .byte   W96
@  #02 @129   ----------------------------------------
 .byte   W96
@  #02 @130   ----------------------------------------
 .byte   W96
@  #02 @131   ----------------------------------------
 .byte   W96
@  #02 @132   ----------------------------------------
 .byte   W96
@  #02 @133   ----------------------------------------
 .byte   W96
@  #02 @134   ----------------------------------------
 .byte   W96
@  #02 @135   ----------------------------------------
 .byte   N22 ,Fs4
 .byte   W24
 .byte   Cs4
 .byte   W24
 .byte   N44 ,Gs4
 .byte   W48
@  #02 @136   ----------------------------------------
 .byte   W96
@  #02 @137   ----------------------------------------
 .byte   W96
@  #02 @138   ----------------------------------------
Label_01006F34:
 .byte   W24
 .byte   N22 ,An2 ,v127
 .byte   W24
 .byte   N22
 .byte   W24
 .byte   Bn2
 .byte   W24
 .byte   PEND 
@  #02 @139   ----------------------------------------
 .byte   Cs3
 .byte   W24
 .byte   En2
 .byte   W24
 .byte   Dn2
 .byte   W24
 .byte   N22
 .byte   W24
@  #02 @140   ----------------------------------------
 .byte   W48
 .byte   N44 ,Fs4
 .byte   W48
@  #02 @141   ----------------------------------------
 .byte   W48
 .byte   Gs4
 .byte   W48
@  #02 @142   ----------------------------------------
 .byte   W48
 .byte   An4
 .byte   W48
@  #02 @143   ----------------------------------------
 .byte   W48
 .byte   Bn4
 .byte   W48
@  #02 @144   ----------------------------------------
 .byte   W96
@  #02 @145   ----------------------------------------
 .byte   W96
@  #02 @146   ----------------------------------------
 .byte   PATT
  .word Label_01006F34
@  #02 @147   ----------------------------------------
 .byte   N22 ,Cs3 ,v127
 .byte   W24
 .byte   En2
 .byte   W24
 .byte   N44 ,Dn2
 .byte   W48
@  #02 @148   ----------------------------------------
 .byte   W48
 .byte   Fs4
 .byte   W48
@  #02 @149   ----------------------------------------
 .byte   W48
 .byte   Gs4
 .byte   W48
@  #02 @150   ----------------------------------------
 .byte   W48
 .byte   An4
 .byte   W48
@  #02 @151   ----------------------------------------
 .byte   W48
 .byte   Bn4
 .byte   W48
@  #02 @152   ----------------------------------------
 .byte   Cs3
 .byte   W48
 .byte   An2
 .byte   W48
@  #02 @153   ----------------------------------------
 .byte   Fn2
 .byte   W48
 .byte   Bn2
 .byte   W48
@  #02 @154   ----------------------------------------
 .byte   N11
 .byte   W12
 .byte   Cs3
 .byte   W12
 .byte   Bn2
 .byte   W12
 .byte   N56 ,An2
 .byte   W60
@  #02 @155   ----------------------------------------
 .byte   N11 ,Bn2
 .byte   W12
 .byte   Cs3
 .byte   W12
 .byte   An2
 .byte   W12
 .byte   N44 ,Gn2
 .byte   W48
 .byte   N11 ,En3
 .byte   W12
@  #02 @156   ----------------------------------------
 .byte   Dn3
 .byte   W12
 .byte   En3
 .byte   W12
 .byte   Dn3
 .byte   W12
 .byte   N22 ,Cs3
 .byte   W24
 .byte   An2
 .byte   W24
 .byte   N11 ,Fs2
 .byte   W12
@  #02 @157   ----------------------------------------
 .byte   N44 ,An2
 .byte   W48
 .byte   N22 ,Fs2
 .byte   W24
 .byte   An2
 .byte   W24
@  #02 @158   ----------------------------------------
 .byte   N11 ,Dn3
 .byte   W12
 .byte   En3
 .byte   W12
 .byte   Dn3
 .byte   W12
 .byte   N22 ,Cn3
 .byte   W24
 .byte   An2
 .byte   W24
 .byte   N11 ,Fn2
 .byte   W12
@  #02 @159   ----------------------------------------
 .byte   N44 ,An2
 .byte   W48
 .byte   Bn2
 .byte   W48
@  #02 @160   ----------------------------------------
 .byte   TIE ,Cs2
 .byte   TIE ,En2
 .byte   W96
@  #02 @161   ----------------------------------------
 .byte   W84
 .byte   W02
 .byte   EOT
 .byte   Cs2 ,v052
 .byte   GOTO
  .word Label_01006C2A
 .byte   FINE

@**************** Track 3 (Midi-Chn.2) ****************@

BelieveInMyselfSA2B_003:
@  #03 @000   ----------------------------------------
 .byte   KEYSH , BelieveInMyselfSA2B_key+0
Label_01006FDE:
 .byte   VOICE , 4
 .byte   VOL , 42*BelieveInMyselfSA2B_mvl/mxv
 .byte   PAN , c_v+0
 .byte   N90 ,An1 ,v096
 .byte   N90 ,Cs2
 .byte   N90 ,En2
 .byte   W96
@  #03 @001   ----------------------------------------
 .byte   Gs1
 .byte   N90 ,Cs2
 .byte   N90 ,Fn2
 .byte   W96
@  #03 @002   ----------------------------------------
Label_01006FF2:
 .byte   N90 ,An1 ,v096
 .byte   N90 ,Cs2
 .byte   N90 ,Fs2
 .byte   W96
 .byte   PEND 
@  #03 @003   ----------------------------------------
 .byte   Bn1
 .byte   N90 ,Dn2
 .byte   N90 ,Gn2
 .byte   W96
@  #03 @004   ----------------------------------------
Label_01007001:
 .byte   N90 ,Fs2 ,v096
 .byte   N90 ,An2
 .byte   N90 ,Dn3
 .byte   W96
 .byte   PEND 
@  #03 @005   ----------------------------------------
 .byte   PATT
  .word Label_01007001
@  #03 @006   ----------------------------------------
 .byte   N90 ,An1 ,v096
 .byte   N90 ,Cn2
 .byte   N90 ,Fn2
 .byte   W96
@  #03 @007   ----------------------------------------
 .byte   N44 ,An1
 .byte   N44 ,Cn2
 .byte   N44 ,Fn2
 .byte   W48
 .byte   Bn1
 .byte   N44 ,Dn2
 .byte   N44 ,Gn2
 .byte   W48
@  #03 @008   ----------------------------------------
 .byte   W96
@  #03 @009   ----------------------------------------
 .byte   W96
@  #03 @010   ----------------------------------------
 .byte   W96
@  #03 @011   ----------------------------------------
 .byte   W96
@  #03 @012   ----------------------------------------
 .byte   W96
@  #03 @013   ----------------------------------------
 .byte   W96
@  #03 @014   ----------------------------------------
 .byte   PATT
  .word Label_01007001
@  #03 @015   ----------------------------------------
Label_0100702F:
 .byte   N90 ,An2 ,v096
 .byte   N90 ,Cn3
 .byte   N90 ,Fn3
 .byte   W96
 .byte   PEND 
@  #03 @016   ----------------------------------------
Label_01007038:
 .byte   N90 ,Cs2 ,v096
 .byte   N90 ,En2
 .byte   N90 ,An2
 .byte   W96
 .byte   PEND 
@  #03 @017   ----------------------------------------
 .byte   Gs1
 .byte   N90 ,Bn1
 .byte   N90 ,En2
 .byte   W96
@  #03 @018   ----------------------------------------
 .byte   N44 ,Gs1
 .byte   N44 ,Bn1
 .byte   N44 ,En2
 .byte   W48
 .byte   N22 ,Fs1
 .byte   N22 ,An1
 .byte   N22 ,Dn2
 .byte   W24
 .byte   Gs1
 .byte   N22 ,Bn1
 .byte   N22 ,En2
 .byte   W24
@  #03 @019   ----------------------------------------
Label_0100705B:
 .byte   N22 ,Cs2 ,v096
 .byte   N22 ,En2
 .byte   N22 ,An2
 .byte   W96
 .byte   PEND 
@  #03 @020   ----------------------------------------
 .byte   W96
@  #03 @021   ----------------------------------------
Label_01007065:
 .byte   N22 ,Fn2 ,v096
 .byte   N22 ,Gs2
 .byte   N22 ,Cs3
 .byte   W96
 .byte   PEND 
@  #03 @022   ----------------------------------------
 .byte   W96
@  #03 @023   ----------------------------------------
Label_0100706F:
 .byte   N22 ,An1 ,v096
 .byte   N22 ,Cs2
 .byte   N22 ,Fs2
 .byte   W96
 .byte   PEND 
@  #03 @024   ----------------------------------------
 .byte   W96
@  #03 @025   ----------------------------------------
Label_01007079:
 .byte   N78 ,Fs2 ,v096
 .byte   N78 ,An2
 .byte   N78 ,Dn3
 .byte   W84
 .byte   N90 ,An2
 .byte   N90 ,Cn3
 .byte   N90 ,Fn3
 .byte   W12
 .byte   PEND 
@  #03 @026   ----------------------------------------
Label_01007089:
 .byte   W84
 .byte   N90 ,Cs2 ,v096
 .byte   N90 ,En2
 .byte   N90 ,An2
 .byte   W12
 .byte   PEND 
@  #03 @027   ----------------------------------------
Label_01007093:
 .byte   W84
 .byte   TIE ,Ds2 ,v096
 .byte   TIE ,Fs2
 .byte   TIE ,Bn2
 .byte   W12
 .byte   PEND 
@  #03 @028   ----------------------------------------
 .byte   W96
@  #03 @029   ----------------------------------------
 .byte   W84
 .byte   W01
 .byte   EOT
 .byte   Ds2 ,v054
 .byte   Bn2
 .byte   W11
@  #03 @030   ----------------------------------------
 .byte   PATT
  .word Label_01006FF2
@  #03 @031   ----------------------------------------
Label_010070AA:
 .byte   N32 ,Gs1 ,v096
 .byte   N32 ,Bn1
 .byte   N32 ,En2
 .byte   W36
 .byte   N56 ,Fs1
 .byte   N56 ,An1
 .byte   N56 ,Dn2
 .byte   W60
 .byte   PEND 
@  #03 @032   ----------------------------------------
 .byte   PATT
  .word Label_01006FF2
@  #03 @033   ----------------------------------------
 .byte   PATT
  .word Label_010070AA
@  #03 @034   ----------------------------------------
 .byte   PATT
  .word Label_01007038
@  #03 @035   ----------------------------------------
 .byte   W96
@  #03 @036   ----------------------------------------
Label_010070CA:
 .byte   N90 ,Ds2 ,v096
 .byte   N90 ,Fs2
 .byte   N90 ,Bn2
 .byte   W96
 .byte   PEND 
@  #03 @037   ----------------------------------------
 .byte   W96
@  #03 @038   ----------------------------------------
 .byte   PATT
  .word Label_01007001
@  #03 @039   ----------------------------------------
 .byte   W96
@  #03 @040   ----------------------------------------
 .byte   PATT
  .word Label_0100702F
@  #03 @041   ----------------------------------------
 .byte   N90 ,Bn2 ,v096
 .byte   N90 ,Dn3
 .byte   W96
@  #03 @042   ----------------------------------------
 .byte   W96
@  #03 @043   ----------------------------------------
Label_010070E6:
 .byte   N90 ,An1 ,v112
 .byte   N90 ,Cs2
 .byte   N90 ,En2
 .byte   N90 ,An2
 .byte   W96
 .byte   PEND 
@  #03 @044   ----------------------------------------
Label_010070F1:
 .byte   N90 ,Fs1 ,v112
 .byte   N90 ,An1
 .byte   N90 ,Dn2
 .byte   W96
 .byte   PEND 
@  #03 @045   ----------------------------------------
Label_010070FA:
 .byte   N90 ,An1 ,v112
 .byte   N90 ,Cs2
 .byte   N90 ,Fs2
 .byte   W96
 .byte   PEND 
@  #03 @046   ----------------------------------------
Label_01007103:
 .byte   N44 ,Gs1 ,v112
 .byte   N44 ,Bn1
 .byte   N44 ,En2
 .byte   W48
 .byte   Fs1
 .byte   N44 ,An1
 .byte   N44 ,Dn2
 .byte   W48
 .byte   PEND 
@  #03 @047   ----------------------------------------
Label_01007112:
 .byte   N11 ,Bn1 ,v112
 .byte   W12
 .byte   Fs2
 .byte   W12
 .byte   Bn2
 .byte   W12
 .byte   N56 ,Dn3
 .byte   W60
 .byte   PEND 
@  #03 @048   ----------------------------------------
Label_0100711E:
 .byte   N11 ,Cs2 ,v112
 .byte   W12
 .byte   An2
 .byte   W12
 .byte   Cs3
 .byte   W12
 .byte   N56 ,En3
 .byte   W60
 .byte   PEND 
@  #03 @049   ----------------------------------------
Label_0100712A:
 .byte   N11 ,Dn2 ,v112
 .byte   W12
 .byte   An2
 .byte   W12
 .byte   Dn3
 .byte   W12
 .byte   N56 ,Fs3
 .byte   W60
 .byte   PEND 
@  #03 @050   ----------------------------------------
Label_01007136:
 .byte   N90 ,En2 ,v112
 .byte   N90 ,Gs2
 .byte   N90 ,Bn2
 .byte   N90 ,En3
 .byte   W96
 .byte   PEND 
@  #03 @051   ----------------------------------------
 .byte   PATT
  .word Label_010070E6
@  #03 @052   ----------------------------------------
 .byte   PATT
  .word Label_010070F1
@  #03 @053   ----------------------------------------
 .byte   PATT
  .word Label_010070FA
@  #03 @054   ----------------------------------------
 .byte   PATT
  .word Label_01007103
@  #03 @055   ----------------------------------------
 .byte   PATT
  .word Label_01007112
@  #03 @056   ----------------------------------------
 .byte   PATT
  .word Label_0100711E
@  #03 @057   ----------------------------------------
 .byte   PATT
  .word Label_0100712A
@  #03 @058   ----------------------------------------
Label_01007164:
 .byte   N11 ,En2 ,v112
 .byte   N11 ,Gs2
 .byte   N11 ,Bn2
 .byte   N11 ,En3
 .byte   W24
 .byte   N68 ,En2
 .byte   N68 ,Gs2
 .byte   N68 ,Bn2
 .byte   N68 ,En3
 .byte   W72
 .byte   PEND 
@  #03 @059   ----------------------------------------
Label_01007178:
 .byte   N90 ,An1 ,v112
 .byte   N90 ,Cs2
 .byte   N90 ,En2
 .byte   W96
 .byte   PEND 
@  #03 @060   ----------------------------------------
Label_01007181:
 .byte   N90 ,Gs1 ,v112
 .byte   N90 ,Cs2
 .byte   N90 ,Fn2
 .byte   W96
 .byte   PEND 
@  #03 @061   ----------------------------------------
 .byte   PATT
  .word Label_010070FA
@  #03 @062   ----------------------------------------
Label_0100718F:
 .byte   N90 ,Bn1 ,v112
 .byte   N90 ,Dn2
 .byte   N90 ,Gn2
 .byte   W96
 .byte   PEND 
@  #03 @063   ----------------------------------------
Label_01007198:
 .byte   N90 ,Fs2 ,v112
 .byte   N90 ,An2
 .byte   N90 ,Dn3
 .byte   W96
 .byte   PEND 
@  #03 @064   ----------------------------------------
 .byte   PATT
  .word Label_01007198
@  #03 @065   ----------------------------------------
Label_010071A6:
 .byte   N90 ,An1 ,v112
 .byte   N90 ,Cn2
 .byte   N90 ,Fn2
 .byte   W96
 .byte   PEND 
@  #03 @066   ----------------------------------------
Label_010071AF:
 .byte   N44 ,An1 ,v112
 .byte   N44 ,Cn2
 .byte   N44 ,Fn2
 .byte   W48
 .byte   Bn1
 .byte   N44 ,Dn2
 .byte   N44 ,Gn2
 .byte   W48
 .byte   PEND 
@  #03 @067   ----------------------------------------
 .byte   PATT
  .word Label_0100705B
@  #03 @068   ----------------------------------------
 .byte   W96
@  #03 @069   ----------------------------------------
 .byte   PATT
  .word Label_01007065
@  #03 @070   ----------------------------------------
 .byte   W96
@  #03 @071   ----------------------------------------
 .byte   PATT
  .word Label_0100706F
@  #03 @072   ----------------------------------------
 .byte   W96
@  #03 @073   ----------------------------------------
 .byte   PATT
  .word Label_01007079
@  #03 @074   ----------------------------------------
 .byte   PATT
  .word Label_01007089
@  #03 @075   ----------------------------------------
 .byte   PATT
  .word Label_01007093
@  #03 @076   ----------------------------------------
 .byte   W96
@  #03 @077   ----------------------------------------
 .byte   W84
 .byte   W01
 .byte   EOT
 .byte   Ds2 ,v054
 .byte   Bn2
 .byte   W11
@  #03 @078   ----------------------------------------
 .byte   PATT
  .word Label_01006FF2
@  #03 @079   ----------------------------------------
 .byte   PATT
  .word Label_010070AA
@  #03 @080   ----------------------------------------
 .byte   PATT
  .word Label_01006FF2
@  #03 @081   ----------------------------------------
 .byte   PATT
  .word Label_010070AA
@  #03 @082   ----------------------------------------
 .byte   PATT
  .word Label_01007038
@  #03 @083   ----------------------------------------
 .byte   W96
@  #03 @084   ----------------------------------------
 .byte   PATT
  .word Label_010070CA
@  #03 @085   ----------------------------------------
 .byte   W96
@  #03 @086   ----------------------------------------
 .byte   PATT
  .word Label_01007001
@  #03 @087   ----------------------------------------
 .byte   W96
@  #03 @088   ----------------------------------------
 .byte   PATT
  .word Label_0100702F
@  #03 @089   ----------------------------------------
 .byte   N90 ,Bn2 ,v096
 .byte   N90 ,Dn3
 .byte   W96
@  #03 @090   ----------------------------------------
 .byte   W96
@  #03 @091   ----------------------------------------
 .byte   PATT
  .word Label_010070E6
@  #03 @092   ----------------------------------------
 .byte   PATT
  .word Label_010070F1
@  #03 @093   ----------------------------------------
 .byte   PATT
  .word Label_010070FA
@  #03 @094   ----------------------------------------
 .byte   PATT
  .word Label_01007103
@  #03 @095   ----------------------------------------
 .byte   PATT
  .word Label_01007112
@  #03 @096   ----------------------------------------
 .byte   PATT
  .word Label_0100711E
@  #03 @097   ----------------------------------------
 .byte   PATT
  .word Label_0100712A
@  #03 @098   ----------------------------------------
 .byte   PATT
  .word Label_01007136
@  #03 @099   ----------------------------------------
 .byte   PATT
  .word Label_010070E6
@  #03 @100   ----------------------------------------
 .byte   PATT
  .word Label_010070F1
@  #03 @101   ----------------------------------------
 .byte   PATT
  .word Label_010070FA
@  #03 @102   ----------------------------------------
 .byte   PATT
  .word Label_01007103
@  #03 @103   ----------------------------------------
 .byte   PATT
  .word Label_01007112
@  #03 @104   ----------------------------------------
 .byte   PATT
  .word Label_0100711E
@  #03 @105   ----------------------------------------
 .byte   PATT
  .word Label_0100712A
@  #03 @106   ----------------------------------------
 .byte   PATT
  .word Label_01007164
@  #03 @107   ----------------------------------------
 .byte   PATT
  .word Label_01007178
@  #03 @108   ----------------------------------------
 .byte   PATT
  .word Label_01007181
@  #03 @109   ----------------------------------------
 .byte   PATT
  .word Label_010070FA
@  #03 @110   ----------------------------------------
 .byte   PATT
  .word Label_0100718F
@  #03 @111   ----------------------------------------
 .byte   PATT
  .word Label_01007198
@  #03 @112   ----------------------------------------
 .byte   PATT
  .word Label_01007198
@  #03 @113   ----------------------------------------
 .byte   PATT
  .word Label_010071A6
@  #03 @114   ----------------------------------------
 .byte   PATT
  .word Label_010071AF
@  #03 @115   ----------------------------------------
 .byte   PATT
  .word Label_01007178
@  #03 @116   ----------------------------------------
 .byte   PATT
  .word Label_01007181
@  #03 @117   ----------------------------------------
 .byte   PATT
  .word Label_010070FA
@  #03 @118   ----------------------------------------
 .byte   PATT
  .word Label_0100718F
@  #03 @119   ----------------------------------------
 .byte   PATT
  .word Label_01007198
@  #03 @120   ----------------------------------------
 .byte   N44 ,Fs2 ,v112
 .byte   N44 ,An2
 .byte   N44 ,Dn3
 .byte   W48
 .byte   N22 ,Fs2
 .byte   N22 ,An2
 .byte   N22 ,Dn3
 .byte   W24
 .byte   Fs2
 .byte   N22 ,An2
 .byte   N22 ,Dn3
 .byte   W24
@  #03 @121   ----------------------------------------
 .byte   PATT
  .word Label_010071A6
@  #03 @122   ----------------------------------------
 .byte   PATT
  .word Label_010071AF
@  #03 @123   ----------------------------------------
Label_010072C9:
 .byte   N11 ,An1 ,v112
 .byte   N11 ,Cs2
 .byte   N11 ,Fs2
 .byte   W24
 .byte   An1
 .byte   N11 ,Cs2
 .byte   N11 ,Fs2
 .byte   W24
 .byte   An1
 .byte   N11 ,Cs2
 .byte   N11 ,Fs2
 .byte   W24
 .byte   An1
 .byte   N11 ,Cs2
 .byte   N11 ,Fs2
 .byte   W24
 .byte   PEND 
@  #03 @124   ----------------------------------------
Label_010072E4:
 .byte   N11 ,Bn1 ,v112
 .byte   N11 ,Dn2
 .byte   N11 ,Gn2
 .byte   W24
 .byte   Bn1
 .byte   N11 ,Dn2
 .byte   N11 ,Gn2
 .byte   W24
 .byte   Bn1
 .byte   N11 ,Dn2
 .byte   N11 ,Gn2
 .byte   W24
 .byte   Bn1
 .byte   N11 ,Dn2
 .byte   N11 ,Gn2
 .byte   W24
 .byte   PEND 
@  #03 @125   ----------------------------------------
 .byte   Fs1
 .byte   N11 ,An1
 .byte   N11 ,Dn2
 .byte   W24
 .byte   Fs1
 .byte   N11 ,An1
 .byte   N11 ,Dn2
 .byte   W24
 .byte   Fs1
 .byte   N11 ,An1
 .byte   N11 ,Dn2
 .byte   W24
 .byte   Fs1
 .byte   N11 ,An1
 .byte   N11 ,Dn2
 .byte   W24
@  #03 @126   ----------------------------------------
 .byte   Cs2
 .byte   N11 ,En2
 .byte   N11 ,An2
 .byte   W24
 .byte   Cs2
 .byte   N11 ,En2
 .byte   N11 ,An2
 .byte   W24
 .byte   Cs2
 .byte   N11 ,En2
 .byte   N11 ,An2
 .byte   W24
 .byte   Cs2
 .byte   N11 ,En2
 .byte   N11 ,An2
 .byte   W24
@  #03 @127   ----------------------------------------
 .byte   PATT
  .word Label_010072C9
@  #03 @128   ----------------------------------------
 .byte   PATT
  .word Label_010072E4
@  #03 @129   ----------------------------------------
 .byte   PATT
  .word Label_01007198
@  #03 @130   ----------------------------------------
 .byte   W96
@  #03 @131   ----------------------------------------
 .byte   N90 ,Gs2 ,v112
 .byte   N90 ,Bn2
 .byte   N90 ,En3
 .byte   W96
@  #03 @132   ----------------------------------------
 .byte   W96
@  #03 @133   ----------------------------------------
 .byte   W96
@  #03 @134   ----------------------------------------
 .byte   W96
@  #03 @135   ----------------------------------------
 .byte   N44 ,Fs1
 .byte   N44 ,Fs2
 .byte   W48
 .byte   Gs1
 .byte   N44 ,Gs2
 .byte   W48
@  #03 @136   ----------------------------------------
Label_01007353:
 .byte   N90 ,An1 ,v127
 .byte   N90 ,Cs2
 .byte   N90 ,En2
 .byte   N90 ,An2
 .byte   W96
 .byte   PEND 
@  #03 @137   ----------------------------------------
Label_0100735E:
 .byte   N90 ,Fs1 ,v127
 .byte   N90 ,An1
 .byte   N90 ,Dn2
 .byte   W96
 .byte   PEND 
@  #03 @138   ----------------------------------------
Label_01007367:
 .byte   N90 ,An1 ,v127
 .byte   N90 ,Cs2
 .byte   N90 ,Fs2
 .byte   W96
 .byte   PEND 
@  #03 @139   ----------------------------------------
Label_01007370:
 .byte   N44 ,Gs1 ,v127
 .byte   N44 ,Bn1
 .byte   N44 ,En2
 .byte   W48
 .byte   Fs1
 .byte   N44 ,An1
 .byte   N44 ,Dn2
 .byte   W48
 .byte   PEND 
@  #03 @140   ----------------------------------------
Label_0100737F:
 .byte   N11 ,Bn1 ,v127
 .byte   W12
 .byte   Fs2
 .byte   W12
 .byte   Bn2
 .byte   W12
 .byte   N56 ,Dn3
 .byte   W60
 .byte   PEND 
@  #03 @141   ----------------------------------------
Label_0100738B:
 .byte   N11 ,Cs2 ,v127
 .byte   W12
 .byte   An2
 .byte   W12
 .byte   Cs3
 .byte   W12
 .byte   N56 ,En3
 .byte   W60
 .byte   PEND 
@  #03 @142   ----------------------------------------
Label_01007397:
 .byte   N11 ,Dn2 ,v127
 .byte   W12
 .byte   An2
 .byte   W12
 .byte   Dn3
 .byte   W12
 .byte   N56 ,Fs3
 .byte   W60
 .byte   PEND 
@  #03 @143   ----------------------------------------
 .byte   N90 ,En2
 .byte   N90 ,Gs2
 .byte   N90 ,Bn2
 .byte   N90 ,En3
 .byte   W96
@  #03 @144   ----------------------------------------
 .byte   PATT
  .word Label_01007353
@  #03 @145   ----------------------------------------
 .byte   PATT
  .word Label_0100735E
@  #03 @146   ----------------------------------------
 .byte   PATT
  .word Label_01007367
@  #03 @147   ----------------------------------------
 .byte   PATT
  .word Label_01007370
@  #03 @148   ----------------------------------------
 .byte   PATT
  .word Label_0100737F
@  #03 @149   ----------------------------------------
 .byte   PATT
  .word Label_0100738B
@  #03 @150   ----------------------------------------
 .byte   PATT
  .word Label_01007397
@  #03 @151   ----------------------------------------
 .byte   N11 ,En2 ,v127
 .byte   N11 ,Gs2
 .byte   N11 ,Bn2
 .byte   N11 ,En3
 .byte   W24
 .byte   N68 ,En2
 .byte   N68 ,Gs2
 .byte   N68 ,Bn2
 .byte   N68 ,En3
 .byte   W72
@  #03 @152   ----------------------------------------
 .byte   N90 ,An1
 .byte   N90 ,Cs2
 .byte   N90 ,En2
 .byte   W96
@  #03 @153   ----------------------------------------
 .byte   Gs1
 .byte   N90 ,Cs2
 .byte   N90 ,Fn2
 .byte   W96
@  #03 @154   ----------------------------------------
 .byte   PATT
  .word Label_01007367
@  #03 @155   ----------------------------------------
 .byte   N90 ,Bn1 ,v127
 .byte   N90 ,Dn2
 .byte   N90 ,Gn2
 .byte   W96
@  #03 @156   ----------------------------------------
Label_010073FC:
 .byte   N90 ,Fs2 ,v127
 .byte   N90 ,An2
 .byte   N90 ,Dn3
 .byte   W96
 .byte   PEND 
@  #03 @157   ----------------------------------------
 .byte   PATT
  .word Label_010073FC
@  #03 @158   ----------------------------------------
 .byte   N90 ,An1 ,v127
 .byte   N90 ,Cn2
 .byte   N90 ,Fn2
 .byte   W96
@  #03 @159   ----------------------------------------
 .byte   N44 ,An1
 .byte   N44 ,Cn2
 .byte   N44 ,Fn2
 .byte   W48
 .byte   Bn1
 .byte   N44 ,Dn2
 .byte   N44 ,Gn2
 .byte   W48
@  #03 @160   ----------------------------------------
 .byte   TIE ,An0
 .byte   TIE ,An1
 .byte   W96
@  #03 @161   ----------------------------------------
 .byte   W84
 .byte   W02
 .byte   EOT
 .byte   An0 ,v045
 .byte   GOTO
  .word Label_01006FDE
 .byte   FINE

@**************** Track 4 (Midi-Chn.3) ****************@

BelieveInMyselfSA2B_004:
@  #04 @000   ----------------------------------------
 .byte   KEYSH , BelieveInMyselfSA2B_key+0
Label_01007446:
 .byte   VOICE , 34
 .byte   VOL , 50*BelieveInMyselfSA2B_mvl/mxv
 .byte   PAN , c_v+0
 .byte   N11 ,An2 ,v096
 .byte   W12
 .byte   N11
 .byte   W12
 .byte   N11
 .byte   W12
 .byte   N11
 .byte   W12
 .byte   N11
 .byte   W12
 .byte   N11
 .byte   W12
 .byte   N11
 .byte   W12
 .byte   N11
 .byte   W12
@  #04 @001   ----------------------------------------
Label_0100745E:
 .byte   N11 ,Fn2 ,v096
 .byte   W12
 .byte   N11
 .byte   W12
 .byte   N11
 .byte   W12
 .byte   N11
 .byte   W12
 .byte   N11
 .byte   W12
 .byte   N11
 .byte   W12
 .byte   N11
 .byte   W12
 .byte   N11
 .byte   W12
 .byte   PEND 
@  #04 @002   ----------------------------------------
 .byte   Fs2
 .byte   W12
 .byte   N11
 .byte   W12
 .byte   N11
 .byte   W12
 .byte   N11
 .byte   W12
 .byte   N11
 .byte   W12
 .byte   N11
 .byte   W12
 .byte   N11
 .byte   W12
 .byte   N11
 .byte   W12
@  #04 @003   ----------------------------------------
 .byte   Gn2
 .byte   W12
 .byte   N11
 .byte   W12
 .byte   N11
 .byte   W12
 .byte   N11
 .byte   W12
 .byte   N11
 .byte   W12
 .byte   N11
 .byte   W12
 .byte   N11
 .byte   W12
 .byte   N11
 .byte   W12
@  #04 @004   ----------------------------------------
Label_01007491:
 .byte   N11 ,Dn3 ,v096
 .byte   W12
 .byte   N11
 .byte   W12
 .byte   N11
 .byte   W12
 .byte   N11
 .byte   W12
 .byte   N11
 .byte   W12
 .byte   N11
 .byte   W12
 .byte   N11
 .byte   W12
 .byte   N11
 .byte   W12
 .byte   PEND 
@  #04 @005   ----------------------------------------
 .byte   PATT
  .word Label_01007491
@  #04 @006   ----------------------------------------
 .byte   PATT
  .word Label_0100745E
@  #04 @007   ----------------------------------------
 .byte   N11 ,Fn2 ,v096
 .byte   W12
 .byte   N11
 .byte   W12
 .byte   N11
 .byte   W12
 .byte   N11
 .byte   W12
 .byte   Gn2
 .byte   W12
 .byte   N11
 .byte   W12
 .byte   N11
 .byte   W12
 .byte   N11
 .byte   W12
@  #04 @008   ----------------------------------------
Label_010074C0:
 .byte   N05 ,An3 ,v096
 .byte   W12
 .byte   N05
 .byte   W12
 .byte   N05
 .byte   W12
 .byte   N05
 .byte   W12
 .byte   N05
 .byte   W12
 .byte   N05
 .byte   W12
 .byte   N05
 .byte   W12
 .byte   N05
 .byte   W12
 .byte   PEND 
@  #04 @009   ----------------------------------------
 .byte   PATT
  .word Label_010074C0
@  #04 @010   ----------------------------------------
Label_010074D8:
 .byte   N05 ,Cs4 ,v096
 .byte   W12
 .byte   N05
 .byte   W12
 .byte   N05
 .byte   W12
 .byte   N05
 .byte   W12
 .byte   N05
 .byte   W12
 .byte   N05
 .byte   W12
 .byte   N05
 .byte   W12
 .byte   N05
 .byte   W12
 .byte   PEND 
@  #04 @011   ----------------------------------------
 .byte   PATT
  .word Label_010074D8
@  #04 @012   ----------------------------------------
Label_010074F0:
 .byte   N05 ,Fs3 ,v096
 .byte   W12
 .byte   N05
 .byte   W12
 .byte   N05
 .byte   W12
 .byte   N05
 .byte   W12
 .byte   N05
 .byte   W12
 .byte   N05
 .byte   W12
 .byte   N05
 .byte   W12
 .byte   N05
 .byte   W12
 .byte   PEND 
@  #04 @013   ----------------------------------------
 .byte   PATT
  .word Label_010074F0
@  #04 @014   ----------------------------------------
 .byte   N05 ,Dn3 ,v096
 .byte   W12
 .byte   N05
 .byte   W12
 .byte   N05
 .byte   W12
 .byte   N05
 .byte   W12
 .byte   N05
 .byte   W12
 .byte   N05
 .byte   W12
 .byte   N05
 .byte   W12
 .byte   N05
 .byte   W12
@  #04 @015   ----------------------------------------
 .byte   Fn3
 .byte   W12
 .byte   N05
 .byte   W12
 .byte   N05
 .byte   W12
 .byte   N05
 .byte   W12
 .byte   N05
 .byte   W12
 .byte   N05
 .byte   W12
 .byte   N05
 .byte   W12
 .byte   N05
 .byte   W12
@  #04 @016   ----------------------------------------
 .byte   PATT
  .word Label_010074C0
@  #04 @017   ----------------------------------------
 .byte   N05 ,En3 ,v096
 .byte   W12
 .byte   N05
 .byte   W12
 .byte   N05
 .byte   W12
 .byte   N05
 .byte   W12
 .byte   N05
 .byte   W12
 .byte   N05
 .byte   W12
 .byte   N05
 .byte   W12
 .byte   N05
 .byte   W12
@  #04 @018   ----------------------------------------
 .byte   N05
 .byte   W12
 .byte   N05
 .byte   W12
 .byte   N05
 .byte   W12
 .byte   N05
 .byte   W12
 .byte   Dn3
 .byte   W12
 .byte   N05
 .byte   W12
 .byte   En3
 .byte   W12
 .byte   N05
 .byte   W12
@  #04 @019   ----------------------------------------
 .byte   PATT
  .word Label_010074C0
@  #04 @020   ----------------------------------------
 .byte   PATT
  .word Label_010074C0
@  #04 @021   ----------------------------------------
 .byte   PATT
  .word Label_010074D8
@  #04 @022   ----------------------------------------
 .byte   PATT
  .word Label_010074D8
@  #04 @023   ----------------------------------------
 .byte   PATT
  .word Label_010074F0
@  #04 @024   ----------------------------------------
 .byte   PATT
  .word Label_010074F0
@  #04 @025   ----------------------------------------
Label_0100756F:
 .byte   N05 ,Dn3 ,v096
 .byte   W12
 .byte   N05
 .byte   W12
 .byte   N05
 .byte   W12
 .byte   N05
 .byte   W12
 .byte   N05
 .byte   W12
 .byte   N05
 .byte   W12
 .byte   N05
 .byte   W12
 .byte   N11 ,Fn3
 .byte   W12
 .byte   PEND 
@  #04 @026   ----------------------------------------
Label_01007583:
 .byte   W12
 .byte   N05 ,Fn3 ,v096
 .byte   W12
 .byte   N05
 .byte   W12
 .byte   N05
 .byte   W12
 .byte   N05
 .byte   W12
 .byte   N05
 .byte   W12
 .byte   N05
 .byte   W12
 .byte   N11 ,An3
 .byte   W12
 .byte   PEND 
@  #04 @027   ----------------------------------------
Label_01007596:
 .byte   W12
 .byte   N05 ,An3 ,v096
 .byte   W12
 .byte   N05
 .byte   W12
 .byte   N05
 .byte   W12
 .byte   N05
 .byte   W12
 .byte   N05
 .byte   W12
 .byte   N05
 .byte   W12
 .byte   N22 ,Bn3
 .byte   W12
 .byte   PEND 
@  #04 @028   ----------------------------------------
Label_010075A9:
 .byte   W12
 .byte   N11 ,Bn3 ,v096
 .byte   W12
 .byte   N11
 .byte   W12
 .byte   N11
 .byte   W12
 .byte   N11
 .byte   W12
 .byte   N11
 .byte   W12
 .byte   N11
 .byte   W12
 .byte   N11
 .byte   W12
 .byte   PEND 
@  #04 @029   ----------------------------------------
Label_010075BB:
 .byte   N11 ,Bn3 ,v096
 .byte   W12
 .byte   N22 ,Ds4
 .byte   W24
 .byte   En4
 .byte   W24
 .byte   Fn4
 .byte   W24
 .byte   N11 ,Fs4
 .byte   W12
 .byte   PEND 
@  #04 @030   ----------------------------------------
 .byte   PATT
  .word Label_010074F0
@  #04 @031   ----------------------------------------
Label_010075CF:
 .byte   N05 ,En3 ,v096
 .byte   W12
 .byte   N05
 .byte   W12
 .byte   N05
 .byte   W12
 .byte   N22 ,Dn3
 .byte   W24
 .byte   N05
 .byte   W12
 .byte   N05
 .byte   W12
 .byte   N05
 .byte   W12
 .byte   PEND 
@  #04 @032   ----------------------------------------
 .byte   PATT
  .word Label_010074F0
@  #04 @033   ----------------------------------------
 .byte   PATT
  .word Label_010075CF
@  #04 @034   ----------------------------------------
 .byte   PATT
  .word Label_010074C0
@  #04 @035   ----------------------------------------
 .byte   PATT
  .word Label_010074C0
@  #04 @036   ----------------------------------------
Label_010075F5:
 .byte   N05 ,Bn3 ,v096
 .byte   W12
 .byte   N05
 .byte   W12
 .byte   N05
 .byte   W12
 .byte   N05
 .byte   W12
 .byte   N05
 .byte   W12
 .byte   N05
 .byte   W12
 .byte   N05
 .byte   W12
 .byte   N05
 .byte   W12
 .byte   PEND 
@  #04 @037   ----------------------------------------
 .byte   PATT
  .word Label_010075F5
@  #04 @038   ----------------------------------------
Label_0100760D:
 .byte   N05 ,Dn4 ,v096
 .byte   W12
 .byte   N05
 .byte   W12
 .byte   N05
 .byte   W12
 .byte   N05
 .byte   W12
 .byte   N05
 .byte   W12
 .byte   N05
 .byte   W12
 .byte   N05
 .byte   W12
 .byte   N05
 .byte   W12
 .byte   PEND 
@  #04 @039   ----------------------------------------
 .byte   PATT
  .word Label_0100760D
@  #04 @040   ----------------------------------------
Label_01007625:
 .byte   N05 ,Fn4 ,v096
 .byte   W12
 .byte   N05
 .byte   W12
 .byte   N05
 .byte   W12
 .byte   N05
 .byte   W12
 .byte   N05
 .byte   W12
 .byte   N05
 .byte   W12
 .byte   N05
 .byte   W12
 .byte   N05
 .byte   W12
 .byte   PEND 
@  #04 @041   ----------------------------------------
Label_01007638:
 .byte   N05 ,Gn4 ,v096
 .byte   W12
 .byte   N05
 .byte   W12
 .byte   N05
 .byte   W12
 .byte   N05
 .byte   W12
 .byte   N05
 .byte   W12
 .byte   N05
 .byte   W12
 .byte   N05
 .byte   W12
 .byte   N05
 .byte   W12
 .byte   PEND 
@  #04 @042   ----------------------------------------
 .byte   N90 ,Gn3
 .byte   W96
@  #04 @043   ----------------------------------------
Label_0100764E:
 .byte   N11 ,An2 ,v112
 .byte   W12
 .byte   N11
 .byte   W12
 .byte   N11
 .byte   W12
 .byte   N11
 .byte   W12
 .byte   N11
 .byte   W12
 .byte   N11
 .byte   W12
 .byte   N11
 .byte   W12
 .byte   N11
 .byte   W12
 .byte   PEND 
@  #04 @044   ----------------------------------------
Label_01007661:
 .byte   N11 ,Dn3 ,v112
 .byte   W12
 .byte   N11
 .byte   W12
 .byte   N11
 .byte   W12
 .byte   N11
 .byte   W12
 .byte   N11
 .byte   W12
 .byte   N11
 .byte   W12
 .byte   N11
 .byte   W12
 .byte   N11
 .byte   W12
 .byte   PEND 
@  #04 @045   ----------------------------------------
Label_01007674:
 .byte   N11 ,Fs3 ,v112
 .byte   W12
 .byte   N11
 .byte   W12
 .byte   N11
 .byte   W12
 .byte   N11
 .byte   W12
 .byte   N11
 .byte   W12
 .byte   N11
 .byte   W12
 .byte   N11
 .byte   W12
 .byte   N11
 .byte   W12
 .byte   PEND 
@  #04 @046   ----------------------------------------
Label_01007687:
 .byte   N11 ,En3 ,v112
 .byte   W12
 .byte   N11
 .byte   W12
 .byte   N11
 .byte   W12
 .byte   N11
 .byte   W12
 .byte   Dn3
 .byte   W12
 .byte   N11
 .byte   W12
 .byte   N11
 .byte   W12
 .byte   N11
 .byte   W12
 .byte   PEND 
@  #04 @047   ----------------------------------------
Label_0100769A:
 .byte   N11 ,Bn2 ,v112
 .byte   W12
 .byte   N11
 .byte   W12
 .byte   N11
 .byte   W12
 .byte   N11
 .byte   W12
 .byte   N11
 .byte   W12
 .byte   N11
 .byte   W12
 .byte   N11
 .byte   W12
 .byte   N11
 .byte   W12
 .byte   PEND 
@  #04 @048   ----------------------------------------
Label_010076AD:
 .byte   N11 ,Cs3 ,v112
 .byte   W12
 .byte   N11
 .byte   W12
 .byte   N11
 .byte   W12
 .byte   N11
 .byte   W12
 .byte   N11
 .byte   W12
 .byte   N11
 .byte   W12
 .byte   N11
 .byte   W12
 .byte   N11
 .byte   W12
 .byte   PEND 
@  #04 @049   ----------------------------------------
 .byte   PATT
  .word Label_01007661
@  #04 @050   ----------------------------------------
Label_010076C5:
 .byte   N11 ,En3 ,v112
 .byte   W12
 .byte   N11
 .byte   W12
 .byte   Dn3
 .byte   W12
 .byte   N11
 .byte   W12
 .byte   Cs3
 .byte   W12
 .byte   N11
 .byte   W12
 .byte   Bn2
 .byte   W12
 .byte   N11
 .byte   W12
 .byte   PEND 
@  #04 @051   ----------------------------------------
 .byte   PATT
  .word Label_0100764E
@  #04 @052   ----------------------------------------
 .byte   PATT
  .word Label_01007661
@  #04 @053   ----------------------------------------
 .byte   PATT
  .word Label_01007674
@  #04 @054   ----------------------------------------
 .byte   PATT
  .word Label_01007687
@  #04 @055   ----------------------------------------
 .byte   PATT
  .word Label_0100769A
@  #04 @056   ----------------------------------------
 .byte   PATT
  .word Label_010076AD
@  #04 @057   ----------------------------------------
 .byte   PATT
  .word Label_01007661
@  #04 @058   ----------------------------------------
Label_010076FB:
 .byte   N11 ,En3 ,v112
 .byte   W12
 .byte   En2
 .byte   W12
 .byte   N32 ,En3
 .byte   W36
 .byte   N11 ,En2
 .byte   W12
 .byte   N22 ,En3
 .byte   W24
 .byte   PEND 
@  #04 @059   ----------------------------------------
 .byte   PATT
  .word Label_0100764E
@  #04 @060   ----------------------------------------
Label_01007710:
 .byte   N11 ,Fn2 ,v112
 .byte   W12
 .byte   N11
 .byte   W12
 .byte   N11
 .byte   W12
 .byte   N11
 .byte   W12
 .byte   N11
 .byte   W12
 .byte   N11
 .byte   W12
 .byte   N11
 .byte   W12
 .byte   N11
 .byte   W12
 .byte   PEND 
@  #04 @061   ----------------------------------------
Label_01007723:
 .byte   N11 ,Fs2 ,v112
 .byte   W12
 .byte   N11
 .byte   W12
 .byte   N11
 .byte   W12
 .byte   N11
 .byte   W12
 .byte   N11
 .byte   W12
 .byte   N11
 .byte   W12
 .byte   N11
 .byte   W12
 .byte   N11
 .byte   W12
 .byte   PEND 
@  #04 @062   ----------------------------------------
Label_01007736:
 .byte   N11 ,Gn2 ,v112
 .byte   W12
 .byte   N11
 .byte   W12
 .byte   N11
 .byte   W12
 .byte   N11
 .byte   W12
 .byte   N11
 .byte   W12
 .byte   N11
 .byte   W12
 .byte   N11
 .byte   W12
 .byte   N11
 .byte   W12
 .byte   PEND 
@  #04 @063   ----------------------------------------
 .byte   PATT
  .word Label_01007661
@  #04 @064   ----------------------------------------
 .byte   PATT
  .word Label_01007661
@  #04 @065   ----------------------------------------
 .byte   PATT
  .word Label_01007710
@  #04 @066   ----------------------------------------
Label_01007758:
 .byte   N11 ,Fn2 ,v112
 .byte   W12
 .byte   N11
 .byte   W12
 .byte   N11
 .byte   W12
 .byte   N11
 .byte   W12
 .byte   Gn2
 .byte   W12
 .byte   N11
 .byte   W12
 .byte   N11
 .byte   W12
 .byte   N11
 .byte   W12
 .byte   PEND 
@  #04 @067   ----------------------------------------
 .byte   PATT
  .word Label_010074C0
@  #04 @068   ----------------------------------------
 .byte   PATT
  .word Label_010074C0
@  #04 @069   ----------------------------------------
 .byte   PATT
  .word Label_010074D8
@  #04 @070   ----------------------------------------
 .byte   PATT
  .word Label_010074D8
@  #04 @071   ----------------------------------------
 .byte   PATT
  .word Label_010074F0
@  #04 @072   ----------------------------------------
 .byte   PATT
  .word Label_010074F0
@  #04 @073   ----------------------------------------
 .byte   PATT
  .word Label_0100756F
@  #04 @074   ----------------------------------------
 .byte   PATT
  .word Label_01007583
@  #04 @075   ----------------------------------------
 .byte   PATT
  .word Label_01007596
@  #04 @076   ----------------------------------------
 .byte   PATT
  .word Label_010075A9
@  #04 @077   ----------------------------------------
 .byte   PATT
  .word Label_010075BB
@  #04 @078   ----------------------------------------
 .byte   PATT
  .word Label_010074F0
@  #04 @079   ----------------------------------------
 .byte   PATT
  .word Label_010075CF
@  #04 @080   ----------------------------------------
 .byte   PATT
  .word Label_010074F0
@  #04 @081   ----------------------------------------
 .byte   PATT
  .word Label_010075CF
@  #04 @082   ----------------------------------------
 .byte   PATT
  .word Label_010074C0
@  #04 @083   ----------------------------------------
 .byte   PATT
  .word Label_010074C0
@  #04 @084   ----------------------------------------
 .byte   PATT
  .word Label_010075F5
@  #04 @085   ----------------------------------------
 .byte   PATT
  .word Label_010075F5
@  #04 @086   ----------------------------------------
 .byte   PATT
  .word Label_0100760D
@  #04 @087   ----------------------------------------
 .byte   PATT
  .word Label_0100760D
@  #04 @088   ----------------------------------------
 .byte   PATT
  .word Label_01007625
@  #04 @089   ----------------------------------------
 .byte   PATT
  .word Label_01007638
@  #04 @090   ----------------------------------------
 .byte   N90 ,Gn3 ,v096
 .byte   W96
@  #04 @091   ----------------------------------------
 .byte   PATT
  .word Label_0100764E
@  #04 @092   ----------------------------------------
 .byte   PATT
  .word Label_01007661
@  #04 @093   ----------------------------------------
 .byte   PATT
  .word Label_01007674
@  #04 @094   ----------------------------------------
 .byte   PATT
  .word Label_01007687
@  #04 @095   ----------------------------------------
 .byte   PATT
  .word Label_0100769A
@  #04 @096   ----------------------------------------
 .byte   PATT
  .word Label_010076AD
@  #04 @097   ----------------------------------------
 .byte   PATT
  .word Label_01007661
@  #04 @098   ----------------------------------------
 .byte   PATT
  .word Label_010076C5
@  #04 @099   ----------------------------------------
 .byte   PATT
  .word Label_0100764E
@  #04 @100   ----------------------------------------
 .byte   PATT
  .word Label_01007661
@  #04 @101   ----------------------------------------
 .byte   PATT
  .word Label_01007674
@  #04 @102   ----------------------------------------
 .byte   PATT
  .word Label_01007687
@  #04 @103   ----------------------------------------
 .byte   PATT
  .word Label_0100769A
@  #04 @104   ----------------------------------------
 .byte   PATT
  .word Label_010076AD
@  #04 @105   ----------------------------------------
 .byte   PATT
  .word Label_01007661
@  #04 @106   ----------------------------------------
 .byte   PATT
  .word Label_010076FB
@  #04 @107   ----------------------------------------
 .byte   PATT
  .word Label_0100764E
@  #04 @108   ----------------------------------------
 .byte   PATT
  .word Label_01007710
@  #04 @109   ----------------------------------------
 .byte   PATT
  .word Label_01007723
@  #04 @110   ----------------------------------------
 .byte   PATT
  .word Label_01007736
@  #04 @111   ----------------------------------------
 .byte   PATT
  .word Label_01007661
@  #04 @112   ----------------------------------------
 .byte   PATT
  .word Label_01007661
@  #04 @113   ----------------------------------------
 .byte   PATT
  .word Label_01007710
@  #04 @114   ----------------------------------------
 .byte   PATT
  .word Label_01007758
@  #04 @115   ----------------------------------------
 .byte   PATT
  .word Label_0100764E
@  #04 @116   ----------------------------------------
 .byte   PATT
  .word Label_01007710
@  #04 @117   ----------------------------------------
 .byte   PATT
  .word Label_01007723
@  #04 @118   ----------------------------------------
 .byte   PATT
  .word Label_01007736
@  #04 @119   ----------------------------------------
 .byte   PATT
  .word Label_01007661
@  #04 @120   ----------------------------------------
 .byte   PATT
  .word Label_01007661
@  #04 @121   ----------------------------------------
 .byte   PATT
  .word Label_01007710
@  #04 @122   ----------------------------------------
 .byte   PATT
  .word Label_01007758
@  #04 @123   ----------------------------------------
 .byte   PATT
  .word Label_01007674
@  #04 @124   ----------------------------------------
Label_01007887:
 .byte   N11 ,Gn3 ,v112
 .byte   W12
 .byte   N11
 .byte   W12
 .byte   N11
 .byte   W12
 .byte   N11
 .byte   W12
 .byte   N11
 .byte   W12
 .byte   N11
 .byte   W12
 .byte   N11
 .byte   W12
 .byte   N11
 .byte   W12
 .byte   PEND 
@  #04 @125   ----------------------------------------
 .byte   PATT
  .word Label_01007661
@  #04 @126   ----------------------------------------
 .byte   N11 ,An3 ,v112
 .byte   W12
 .byte   N11
 .byte   W12
 .byte   N11
 .byte   W12
 .byte   N11
 .byte   W12
 .byte   N11
 .byte   W12
 .byte   N11
 .byte   W12
 .byte   N11
 .byte   W12
 .byte   N11
 .byte   W12
@  #04 @127   ----------------------------------------
 .byte   PATT
  .word Label_01007674
@  #04 @128   ----------------------------------------
 .byte   PATT
  .word Label_01007887
@  #04 @129   ----------------------------------------
Label_010078BB:
 .byte   N05 ,Dn4 ,v112
 .byte   W12
 .byte   N05
 .byte   W12
 .byte   N05
 .byte   W12
 .byte   N05
 .byte   W12
 .byte   N05
 .byte   W12
 .byte   N05
 .byte   W12
 .byte   N05
 .byte   W12
 .byte   N05
 .byte   W12
 .byte   PEND 
@  #04 @130   ----------------------------------------
 .byte   PATT
  .word Label_010078BB
@  #04 @131   ----------------------------------------
Label_010078D3:
 .byte   N05 ,En4 ,v112
 .byte   W12
 .byte   N05
 .byte   W12
 .byte   N05
 .byte   W12
 .byte   N05
 .byte   W12
 .byte   N05
 .byte   W12
 .byte   N05
 .byte   W12
 .byte   N05
 .byte   W12
 .byte   N05
 .byte   W12
 .byte   PEND 
@  #04 @132   ----------------------------------------
 .byte   PATT
  .word Label_010078D3
@  #04 @133   ----------------------------------------
 .byte   N05 ,Ds4 ,v127
 .byte   W96
@  #04 @134   ----------------------------------------
 .byte   W96
@  #04 @135   ----------------------------------------
 .byte   N44 ,Fs2 ,v112
 .byte   W48
 .byte   Gs2
 .byte   W48
@  #04 @136   ----------------------------------------
Label_010078F6:
 .byte   N11 ,An2 ,v127
 .byte   W12
 .byte   N11
 .byte   W12
 .byte   N11
 .byte   W12
 .byte   N11
 .byte   W12
 .byte   N11
 .byte   W12
 .byte   N11
 .byte   W12
 .byte   En3
 .byte   W12
 .byte   N11
 .byte   W12
 .byte   PEND 
@  #04 @137   ----------------------------------------
Label_01007909:
 .byte   N11 ,Dn3 ,v127
 .byte   W12
 .byte   N11
 .byte   W12
 .byte   N11
 .byte   W12
 .byte   Cs3
 .byte   W12
 .byte   Dn3
 .byte   W12
 .byte   Cs3
 .byte   W12
 .byte   Bn2
 .byte   W12
 .byte   An2
 .byte   W12
 .byte   PEND 
@  #04 @138   ----------------------------------------
Label_0100791C:
 .byte   N11 ,Fs2 ,v127
 .byte   W12
 .byte   N11
 .byte   W12
 .byte   N11
 .byte   W12
 .byte   N11
 .byte   W12
 .byte   N11
 .byte   W12
 .byte   N11
 .byte   W12
 .byte   N11
 .byte   W12
 .byte   N11
 .byte   W12
 .byte   PEND 
@  #04 @139   ----------------------------------------
Label_0100792F:
 .byte   N11 ,En3 ,v127
 .byte   W12
 .byte   N11
 .byte   W12
 .byte   N11
 .byte   W12
 .byte   N11
 .byte   W12
 .byte   Dn3
 .byte   W12
 .byte   N11
 .byte   W12
 .byte   N11
 .byte   W12
 .byte   N11
 .byte   W12
 .byte   PEND 
@  #04 @140   ----------------------------------------
Label_01007942:
 .byte   N11 ,Bn2 ,v127
 .byte   W12
 .byte   N11
 .byte   W12
 .byte   N11
 .byte   W12
 .byte   N11
 .byte   W12
 .byte   N11
 .byte   W12
 .byte   N11
 .byte   W12
 .byte   N11
 .byte   W12
 .byte   N11
 .byte   W12
 .byte   PEND 
@  #04 @141   ----------------------------------------
Label_01007955:
 .byte   N11 ,Cs3 ,v127
 .byte   W12
 .byte   N11
 .byte   W12
 .byte   N11
 .byte   W12
 .byte   N11
 .byte   W12
 .byte   N11
 .byte   W12
 .byte   N11
 .byte   W12
 .byte   N11
 .byte   W12
 .byte   N11
 .byte   W12
 .byte   PEND 
@  #04 @142   ----------------------------------------
Label_01007968:
 .byte   N11 ,Dn3 ,v127
 .byte   W12
 .byte   N11
 .byte   W12
 .byte   N11
 .byte   W12
 .byte   N11
 .byte   W12
 .byte   N11
 .byte   W12
 .byte   N11
 .byte   W12
 .byte   N11
 .byte   W12
 .byte   N11
 .byte   W12
 .byte   PEND 
@  #04 @143   ----------------------------------------
 .byte   En3
 .byte   W12
 .byte   N11
 .byte   W12
 .byte   Dn3
 .byte   W12
 .byte   N11
 .byte   W12
 .byte   Cs3
 .byte   W12
 .byte   N11
 .byte   W12
 .byte   Bn2
 .byte   W12
 .byte   N11
 .byte   W12
@  #04 @144   ----------------------------------------
 .byte   PATT
  .word Label_010078F6
@  #04 @145   ----------------------------------------
 .byte   PATT
  .word Label_01007909
@  #04 @146   ----------------------------------------
 .byte   PATT
  .word Label_0100791C
@  #04 @147   ----------------------------------------
 .byte   PATT
  .word Label_0100792F
@  #04 @148   ----------------------------------------
 .byte   PATT
  .word Label_01007942
@  #04 @149   ----------------------------------------
 .byte   PATT
  .word Label_01007955
@  #04 @150   ----------------------------------------
 .byte   PATT
  .word Label_01007968
@  #04 @151   ----------------------------------------
 .byte   N11 ,En3 ,v127
 .byte   W12
 .byte   En2
 .byte   W12
 .byte   N32 ,En3
 .byte   W36
 .byte   N11 ,En2
 .byte   W12
 .byte   N22 ,En3
 .byte   W24
@  #04 @152   ----------------------------------------
 .byte   N11 ,An2
 .byte   W12
 .byte   N11
 .byte   W12
 .byte   N11
 .byte   W12
 .byte   N11
 .byte   W12
 .byte   N11
 .byte   W12
 .byte   N11
 .byte   W12
 .byte   N11
 .byte   W12
 .byte   N11
 .byte   W12
@  #04 @153   ----------------------------------------
Label_010079CE:
 .byte   N11 ,Fn2 ,v127
 .byte   W12
 .byte   N11
 .byte   W12
 .byte   N11
 .byte   W12
 .byte   N11
 .byte   W12
 .byte   N11
 .byte   W12
 .byte   N11
 .byte   W12
 .byte   N11
 .byte   W12
 .byte   N11
 .byte   W12
 .byte   PEND 
@  #04 @154   ----------------------------------------
 .byte   PATT
  .word Label_0100791C
@  #04 @155   ----------------------------------------
 .byte   N11 ,Gn2 ,v127
 .byte   W12
 .byte   N11
 .byte   W12
 .byte   N11
 .byte   W12
 .byte   N11
 .byte   W12
 .byte   N11
 .byte   W12
 .byte   N11
 .byte   W12
 .byte   N11
 .byte   W12
 .byte   N11
 .byte   W12
@  #04 @156   ----------------------------------------
 .byte   PATT
  .word Label_01007968
@  #04 @157   ----------------------------------------
 .byte   PATT
  .word Label_01007968
@  #04 @158   ----------------------------------------
 .byte   PATT
  .word Label_010079CE
@  #04 @159   ----------------------------------------
 .byte   N11 ,Fn2 ,v127
 .byte   W12
 .byte   N11
 .byte   W12
 .byte   N11
 .byte   W12
 .byte   N11
 .byte   W12
 .byte   Gn2
 .byte   W12
 .byte   N11
 .byte   W12
 .byte   N11
 .byte   W12
 .byte   N11
 .byte   W12
@  #04 @160   ----------------------------------------
 .byte   TIE ,An1
 .byte   W96
@  #04 @161   ----------------------------------------
 .byte   W84
 .byte   W02
 .byte   EOT
 .byte   GOTO
  .word Label_01007446
 .byte   FINE

@******************************************************@
	.align	2

BelieveInMyselfSA2B:
	.byte	4	@ NumTrks
	.byte	0	@ NumBlks
	.byte	BelieveInMyselfSA2B_pri	@ Priority
	.byte	BelieveInMyselfSA2B_rev	@ Reverb.
    
	.word	BelieveInMyselfSA2B_grp
    
	.word	BelieveInMyselfSA2B_001
	.word	BelieveInMyselfSA2B_002
	.word	BelieveInMyselfSA2B_003
	.word	BelieveInMyselfSA2B_004

	.end
