//Event file generated from Sappy .s format.
	

	#define	BoF2Battle_grp  voicegroup000
	#define	BoF2Battle_pri  0
	#define	BoF2Battle_rev  0
	#define	BoF2Battle_mvl  127
	#define	BoF2Battle_key  0
	#define	BoF2Battle_tbs  1
	#define	BoF2Battle_exg  0
	#define	BoF2Battle_cmp  1

	// .rodata
	//	BoF2Battle
	ALIGN 4


//**************** Track 1 (Midi-Chn.0) ****************//

BoF2Battle_001:
//  #01 //000   ----------------------------------------
 BYTE   KEYSH   BoF2Battle_key+0
Label_01102FC6:
 BYTE   TEMPO   178*BoF2Battle_tbs/2
 BYTE   VOICE   73
 BYTE   PAN   c_v+0
 BYTE   VOL   47*BoF2Battle_mvl/mxv
 BYTE   W96
//  #01 //001   ----------------------------------------
 BYTE   W96
//  #01 //002   ----------------------------------------
 BYTE   TIE  En3  v116
 BYTE   W96
//  #01 //003   ----------------------------------------
 BYTE   W68
 BYTE   W03
 BYTE   EOT
 BYTE   W01
 BYTE   N05
 BYTE   W06
 BYTE   Fs3
 BYTE   W06
 BYTE   Gn3
 BYTE   W06
 BYTE   An3
 BYTE   W06
//  #01 //004   ----------------------------------------
 BYTE   TIE  Bn3
 BYTE   W96
//  #01 //005   ----------------------------------------
 BYTE   W92
 BYTE   W03
 BYTE   EOT
 BYTE   W01
//  #01 //006   ----------------------------------------
Label_01102FE7:
 BYTE   N02  Cn4  v116
 BYTE   W03
 BYTE   En4
 BYTE   W03
 BYTE   Gn4
 BYTE   W66
 BYTE   Dn4
 BYTE   W03
 BYTE   Fs4
 BYTE   W03
 BYTE   An4
 BYTE   W18
 BYTE   PEND 
//  #01 //007   ----------------------------------------
 BYTE   W96
//  #01 //008   ----------------------------------------
 BYTE   N44  En3
 BYTE   W48
 BYTE   Fs3
 BYTE   W48
//  #01 //009   ----------------------------------------
Label_01102FFC:
 BYTE   N44  Gn3  v116
 BYTE   W48
 BYTE   An3
 BYTE   W48
 BYTE   PEND 
//  #01 //010   ----------------------------------------
 BYTE   TIE  En3
 BYTE   W96
//  #01 //011   ----------------------------------------
 BYTE   W80
 BYTE   W03
 BYTE   EOT
 BYTE   W04
 BYTE   N02
 BYTE   W03
 BYTE   Gn3
 BYTE   W03
 BYTE   Bn3
 BYTE   W03
//  #01 //012   ----------------------------------------
 BYTE   TIE  En4
 BYTE   W96
//  #01 //013   ----------------------------------------
 BYTE   W92
 BYTE   W03
 BYTE   EOT
 BYTE   W01
//  #01 //014   ----------------------------------------
Label_01103017:
 BYTE   N80  Fn3  v116
 BYTE   W84
 BYTE   W03
 BYTE   N02
 BYTE   W03
 BYTE   An3
 BYTE   W03
 BYTE   Cn4
 BYTE   W03
 BYTE   PEND 
//  #01 //015   ----------------------------------------
 BYTE   N92  Fn4
 BYTE   W96
//  #01 //016   ----------------------------------------
 BYTE   An4
 BYTE   W96
//  #01 //017   ----------------------------------------
Label_01103028:
 BYTE   N32  Gn4  v116
 BYTE   W36
 BYTE   Fn4
 BYTE   W36
 BYTE   N23  Dn4
 BYTE   W24
 BYTE   PEND 
//  #01 //018   ----------------------------------------
Label_01103032:
 BYTE   N23  As3  v116
 BYTE   W24
 BYTE   Ds3
 BYTE   W24
 BYTE   Gs3
 BYTE   W24
 BYTE   Gn3
 BYTE   W24
 BYTE   PEND 
//  #01 //019   ----------------------------------------
Label_0110303D:
 BYTE   N23  Fs3  v116
 BYTE   W24
 BYTE   Fn3
 BYTE   W24
 BYTE   Cn3
 BYTE   W24
 BYTE   Ds3
 BYTE   W24
 BYTE   PEND 
//  #01 //020   ----------------------------------------
Label_01103048:
 BYTE   N23  Cs3  v116
 BYTE   W24
 BYTE   N11  As2
 BYTE   W12
 BYTE   Bn2
 BYTE   W12
 BYTE   PEND 
 BYTE   TIE  Cn3
 BYTE   W96
//  #01 //021   ----------------------------------------
 BYTE   W92
 BYTE   W03
 BYTE   EOT
 BYTE   W01
//  #01 //022   ----------------------------------------
 BYTE   TIE  En3
 BYTE   W96
//  #01 //023   ----------------------------------------
 BYTE   W68
 BYTE   W03
 BYTE   EOT
 BYTE   W01
 BYTE   N05
 BYTE   W06
 BYTE   Fs3
 BYTE   W06
 BYTE   Gn3
 BYTE   W06
 BYTE   An3
 BYTE   W06
//  #01 //024   ----------------------------------------
 BYTE   TIE  Bn3
 BYTE   W96
//  #01 //025   ----------------------------------------
 BYTE   W92
 BYTE   W03
 BYTE   EOT
 BYTE   W01
//  #01 //026   ----------------------------------------
 BYTE   PATT
  POIN2 Label_01102FE7
//  #01 //027   ----------------------------------------
 BYTE   W96
//  #01 //028   ----------------------------------------
 BYTE   N44  En3  v116
 BYTE   W48
 BYTE   Fs3
 BYTE   W48
//  #01 //029   ----------------------------------------
 BYTE   PATT
  POIN2 Label_01102FFC
//  #01 //030   ----------------------------------------
 BYTE   TIE  En3  v116
 BYTE   W96
//  #01 //031   ----------------------------------------
 BYTE   W80
 BYTE   W03
 BYTE   EOT
 BYTE   W04
 BYTE   N02
 BYTE   W03
 BYTE   Gn3
 BYTE   W03
 BYTE   Bn3
 BYTE   W03
//  #01 //032   ----------------------------------------
 BYTE   TIE  En4
 BYTE   W96
//  #01 //033   ----------------------------------------
 BYTE   W92
 BYTE   W03
 BYTE   EOT
 BYTE   W01
//  #01 //034   ----------------------------------------
 BYTE   PATT
  POIN2 Label_01103017
//  #01 //035   ----------------------------------------
 BYTE   N92  Fn4  v116
 BYTE   W96
//  #01 //036   ----------------------------------------
 BYTE   An4
 BYTE   W96
//  #01 //037   ----------------------------------------
 BYTE   PATT
  POIN2 Label_01103028
//  #01 //038   ----------------------------------------
 BYTE   PATT
  POIN2 Label_01103032
//  #01 //039   ----------------------------------------
 BYTE   PATT
  POIN2 Label_0110303D
//  #01 //040   ----------------------------------------
 BYTE   PATT
  POIN2 Label_01103048
//  #01 //041   ----------------------------------------
 BYTE   TIE  Cn3  v116
 BYTE   W96
//  #01 //042   ----------------------------------------
 BYTE   W92
 BYTE   W03
 BYTE   EOT
 BYTE   W01
//  #01 //043   ----------------------------------------
 BYTE   TIE  En3
 BYTE   W96
//  #01 //044   ----------------------------------------
 BYTE   W68
 BYTE   W03
 BYTE   EOT
 BYTE   W01
 BYTE   N05
 BYTE   W06
 BYTE   Fs3
 BYTE   W06
 BYTE   Gn3
 BYTE   W06
 BYTE   An3
 BYTE   W06
//  #01 //045   ----------------------------------------
 BYTE   TIE  Bn3
 BYTE   W96
//  #01 //046   ----------------------------------------
 BYTE   W92
 BYTE   W03
 BYTE   EOT
 BYTE   W01
//  #01 //047   ----------------------------------------
 BYTE   PATT
  POIN2 Label_01102FE7
//  #01 //048   ----------------------------------------
 BYTE   W96
//  #01 //049   ----------------------------------------
 BYTE   N44  En3  v116
 BYTE   W48
 BYTE   Fs3
 BYTE   W48
//  #01 //050   ----------------------------------------
 BYTE   PATT
  POIN2 Label_01102FFC
//  #01 //051   ----------------------------------------
 BYTE   TIE  En3  v116
 BYTE   W96
//  #01 //052   ----------------------------------------
 BYTE   W80
 BYTE   W03
 BYTE   EOT
 BYTE   W04
 BYTE   N02
 BYTE   W03
 BYTE   Gn3
 BYTE   W03
 BYTE   Bn3
 BYTE   W03
//  #01 //053   ----------------------------------------
 BYTE   TIE  En4
 BYTE   W96
//  #01 //054   ----------------------------------------
 BYTE   W92
 BYTE   W03
 BYTE   EOT
 BYTE   W01
//  #01 //055   ----------------------------------------
 BYTE   PATT
  POIN2 Label_01103017
//  #01 //056   ----------------------------------------
 BYTE   N92  Fn4  v116
 BYTE   W96
//  #01 //057   ----------------------------------------
 BYTE   An4
 BYTE   W96
//  #01 //058   ----------------------------------------
 BYTE   PATT
  POIN2 Label_01103028
//  #01 //059   ----------------------------------------
 BYTE   PATT
  POIN2 Label_01103032
//  #01 //060   ----------------------------------------
 BYTE   PATT
  POIN2 Label_0110303D
//  #01 //061   ----------------------------------------
 BYTE   PATT
  POIN2 Label_01103048
//  #01 //062   ----------------------------------------
 BYTE   TIE  Cn3  v116
 BYTE   W96
//  #01 //063   ----------------------------------------
 BYTE   W92
 BYTE   W03
 BYTE   EOT
 BYTE   W01
//  #01 //064   ----------------------------------------
 BYTE   TIE  En3
 BYTE   W96
//  #01 //065   ----------------------------------------
 BYTE   W68
 BYTE   W03
 BYTE   EOT
 BYTE   W01
 BYTE   N05
 BYTE   W06
 BYTE   Fs3
 BYTE   W06
 BYTE   Gn3
 BYTE   W06
 BYTE   An3
 BYTE   W06
//  #01 //066   ----------------------------------------
 BYTE   TIE  Bn3
 BYTE   W96
//  #01 //067   ----------------------------------------
 BYTE   W92
 BYTE   W03
 BYTE   EOT
 BYTE   W01
//  #01 //068   ----------------------------------------
 BYTE   PATT
  POIN2 Label_01102FE7
//  #01 //069   ----------------------------------------
 BYTE   W96
//  #01 //070   ----------------------------------------
 BYTE   N44  En3  v116
 BYTE   W48
 BYTE   Fs3
 BYTE   W48
//  #01 //071   ----------------------------------------
 BYTE   PATT
  POIN2 Label_01102FFC
//  #01 //072   ----------------------------------------
 BYTE   TIE  En3  v116
 BYTE   W96
//  #01 //073   ----------------------------------------
 BYTE   W80
 BYTE   W03
 BYTE   EOT
 BYTE   W04
 BYTE   N02
 BYTE   W03
 BYTE   Gn3
 BYTE   W03
 BYTE   Bn3
 BYTE   W03
//  #01 //074   ----------------------------------------
 BYTE   TIE  En4
 BYTE   W96
//  #01 //075   ----------------------------------------
 BYTE   W92
 BYTE   W03
 BYTE   EOT
 BYTE   W01
//  #01 //076   ----------------------------------------
 BYTE   PATT
  POIN2 Label_01103017
//  #01 //077   ----------------------------------------
 BYTE   N92  Fn4  v116
 BYTE   W96
//  #01 //078   ----------------------------------------
 BYTE   An4
 BYTE   W96
//  #01 //079   ----------------------------------------
 BYTE   PATT
  POIN2 Label_01103028
//  #01 //080   ----------------------------------------
 BYTE   PATT
  POIN2 Label_01103032
//  #01 //081   ----------------------------------------
 BYTE   PATT
  POIN2 Label_0110303D
//  #01 //082   ----------------------------------------
 BYTE   PATT
  POIN2 Label_01103048
//  #01 //083   ----------------------------------------
 BYTE   TIE  Cn3  v116
 BYTE   W96
//  #01 //084   ----------------------------------------
 BYTE   W92
 BYTE   W03
 BYTE   EOT
 BYTE   GoTo
  POIN2 Label_01102FC6
 BYTE   FINE

//**************** Track 2 (Midi-Chn.1) ****************//

BoF2Battle_002:
//  #02 //000   ----------------------------------------
 BYTE   KEYSH   BoF2Battle_key+0
Label_011039FA:
 BYTE   VOICE   36
 BYTE   PAN   c_v+0
 BYTE   VOL   45*BoF2Battle_mvl/mxv
 BYTE   N10  En2  v112
 BYTE   W12
 BYTE   Bn2
 BYTE   W12
 BYTE   En2
 BYTE   W12
 BYTE   Bn2
 BYTE   W12
 BYTE   Dn2
 BYTE   W12
 BYTE   An2
 BYTE   W12
 BYTE   Dn2
 BYTE   W12
 BYTE   An2
 BYTE   W12
//  #02 //001   ----------------------------------------
Label_01103A12:
 BYTE   N10  En2  v112
 BYTE   W12
 BYTE   Bn2
 BYTE   W12
 BYTE   En2
 BYTE   W12
 BYTE   Bn2
 BYTE   W12
 BYTE   Dn2
 BYTE   W12
 BYTE   An2
 BYTE   W12
 BYTE   Dn2
 BYTE   W12
 BYTE   An2
 BYTE   W12
 BYTE   PEND 
//  #02 //002   ----------------------------------------
 BYTE   PATT
  POIN2 Label_01103A12
//  #02 //003   ----------------------------------------
 BYTE   PATT
  POIN2 Label_01103A12
//  #02 //004   ----------------------------------------
 BYTE   PATT
  POIN2 Label_01103A12
//  #02 //005   ----------------------------------------
 BYTE   PATT
  POIN2 Label_01103A12
//  #02 //006   ----------------------------------------
Label_01103A39:
 BYTE   N10  Cn2  v112
 BYTE   W12
 BYTE   Gn2
 BYTE   W12
 BYTE   Cn2
 BYTE   W12
 BYTE   Gn2
 BYTE   W12
 BYTE   Dn2
 BYTE   W12
 BYTE   An2
 BYTE   W12
 BYTE   Dn2
 BYTE   W12
 BYTE   An2
 BYTE   W12
 BYTE   PEND 
//  #02 //007   ----------------------------------------
 BYTE   PATT
  POIN2 Label_01103A39
//  #02 //008   ----------------------------------------
 BYTE   PATT
  POIN2 Label_01103A12
//  #02 //009   ----------------------------------------
 BYTE   PATT
  POIN2 Label_01103A12
//  #02 //010   ----------------------------------------
Label_01103A5B:
 BYTE   N10  En2  v112
 BYTE   W12
 BYTE   N04  En1
 BYTE   W12
 BYTE   N04
 BYTE   W12
 BYTE   N10  En2
 BYTE   W12
 BYTE   N04  En1
 BYTE   W12
 BYTE   N04
 BYTE   W12
 BYTE   N10  En2
 BYTE   W12
 BYTE   N04  En1
 BYTE   W12
 BYTE   PEND 
//  #02 //011   ----------------------------------------
Label_01103A73:
 BYTE   N10  En2  v112
 BYTE   W12
 BYTE   N04  En1
 BYTE   W12
 BYTE   N04
 BYTE   W12
 BYTE   N10  En2
 BYTE   W12
 BYTE   N04  Bn1
 BYTE   W12
 BYTE   En1
 BYTE   W12
 BYTE   N10  En2
 BYTE   W12
 BYTE   N04  En1
 BYTE   W12
 BYTE   PEND 
//  #02 //012   ----------------------------------------
 BYTE   PATT
  POIN2 Label_01103A5B
//  #02 //013   ----------------------------------------
 BYTE   PATT
  POIN2 Label_01103A73
//  #02 //014   ----------------------------------------
Label_01103A95:
 BYTE   N10  Fn2  v112
 BYTE   W12
 BYTE   N04  Fn1
 BYTE   W12
 BYTE   N04
 BYTE   W12
 BYTE   N10  Fn2
 BYTE   W12
 BYTE   N04  Fn1
 BYTE   W12
 BYTE   N04
 BYTE   W12
 BYTE   N10  Fn2
 BYTE   W12
 BYTE   N04  Fn1
 BYTE   W12
 BYTE   PEND 
//  #02 //015   ----------------------------------------
Label_01103AAD:
 BYTE   N10  Fn2  v112
 BYTE   W12
 BYTE   N04  Fn1
 BYTE   W12
 BYTE   N04
 BYTE   W12
 BYTE   N10  Fn2
 BYTE   W12
 BYTE   N04  Cn2
 BYTE   W12
 BYTE   Fn1
 BYTE   W12
 BYTE   N10  Fn2
 BYTE   W12
 BYTE   N04  Fn1
 BYTE   W12
 BYTE   PEND 
//  #02 //016   ----------------------------------------
 BYTE   PATT
  POIN2 Label_01103A95
//  #02 //017   ----------------------------------------
 BYTE   PATT
  POIN2 Label_01103AAD
//  #02 //018   ----------------------------------------
Label_01103ACF:
 BYTE   N22  As2  v112
 BYTE   W24
 BYTE   Ds2
 BYTE   W24
 BYTE   Gs2
 BYTE   W24
 BYTE   Gn2
 BYTE   W24
 BYTE   PEND 
//  #02 //019   ----------------------------------------
Label_01103ADA:
 BYTE   N22  Fs2  v112
 BYTE   W24
 BYTE   Fn2
 BYTE   W24
 BYTE   Cn2
 BYTE   W24
 BYTE   Ds2
 BYTE   W24
 BYTE   PEND 
//  #02 //020   ----------------------------------------
Label_01103AE5:
 BYTE   N22  Cs2  v112
 BYTE   W24
 BYTE   N10  As1
 BYTE   W12
 BYTE   Bn1
 BYTE   W12
 BYTE   PEND 
Label_01103AEF:
 BYTE   N10  Cn2  v112
 BYTE   W12
 BYTE   N04
 BYTE   W12
 BYTE   N04
 BYTE   W12
 BYTE   N10
 BYTE   W12
//  #02 //021   ----------------------------------------
 BYTE   N04
 BYTE   W12
 BYTE   N04
 BYTE   W12
 BYTE   N10
 BYTE   W12
 BYTE   N04
 BYTE   W12
 BYTE   PEND 
Label_01103B02:
 BYTE   W12
 BYTE   N10  Cn2  v112
 BYTE   W24
 BYTE   N10
 BYTE   W24
//  #02 //022   ----------------------------------------
 BYTE   N10
 BYTE   W24
 BYTE   N10
 BYTE   W12
 BYTE   PEND 
//  #02 //023   ----------------------------------------
 BYTE   PATT
  POIN2 Label_01103A12
//  #02 //024   ----------------------------------------
 BYTE   PATT
  POIN2 Label_01103A12
//  #02 //025   ----------------------------------------
 BYTE   PATT
  POIN2 Label_01103A12
//  #02 //026   ----------------------------------------
 BYTE   PATT
  POIN2 Label_01103A12
//  #02 //027   ----------------------------------------
 BYTE   PATT
  POIN2 Label_01103A39
//  #02 //028   ----------------------------------------
 BYTE   PATT
  POIN2 Label_01103A39
//  #02 //029   ----------------------------------------
 BYTE   PATT
  POIN2 Label_01103A12
//  #02 //030   ----------------------------------------
 BYTE   PATT
  POIN2 Label_01103A12
//  #02 //031   ----------------------------------------
 BYTE   PATT
  POIN2 Label_01103A5B
//  #02 //032   ----------------------------------------
 BYTE   PATT
  POIN2 Label_01103A73
//  #02 //033   ----------------------------------------
 BYTE   PATT
  POIN2 Label_01103A5B
//  #02 //034   ----------------------------------------
 BYTE   PATT
  POIN2 Label_01103A73
//  #02 //035   ----------------------------------------
 BYTE   PATT
  POIN2 Label_01103A95
//  #02 //036   ----------------------------------------
 BYTE   PATT
  POIN2 Label_01103AAD
//  #02 //037   ----------------------------------------
 BYTE   PATT
  POIN2 Label_01103A95
//  #02 //038   ----------------------------------------
 BYTE   PATT
  POIN2 Label_01103AAD
//  #02 //039   ----------------------------------------
 BYTE   PATT
  POIN2 Label_01103ACF
//  #02 //040   ----------------------------------------
 BYTE   PATT
  POIN2 Label_01103ADA
//  #02 //041   ----------------------------------------
 BYTE   PATT
  POIN2 Label_01103AE5
//  #02 //042   ----------------------------------------
 BYTE   PATT
  POIN2 Label_01103AEF
//  #02 //043   ----------------------------------------
 BYTE   PATT
  POIN2 Label_01103B02
//  #02 //044   ----------------------------------------
 BYTE   PATT
  POIN2 Label_01103A12
//  #02 //045   ----------------------------------------
 BYTE   PATT
  POIN2 Label_01103A12
//  #02 //046   ----------------------------------------
 BYTE   PATT
  POIN2 Label_01103A12
//  #02 //047   ----------------------------------------
 BYTE   PATT
  POIN2 Label_01103A12
//  #02 //048   ----------------------------------------
 BYTE   PATT
  POIN2 Label_01103A39
//  #02 //049   ----------------------------------------
 BYTE   PATT
  POIN2 Label_01103A39
//  #02 //050   ----------------------------------------
 BYTE   PATT
  POIN2 Label_01103A12
//  #02 //051   ----------------------------------------
 BYTE   PATT
  POIN2 Label_01103A12
//  #02 //052   ----------------------------------------
 BYTE   PATT
  POIN2 Label_01103A5B
//  #02 //053   ----------------------------------------
 BYTE   PATT
  POIN2 Label_01103A73
//  #02 //054   ----------------------------------------
 BYTE   PATT
  POIN2 Label_01103A5B
//  #02 //055   ----------------------------------------
 BYTE   PATT
  POIN2 Label_01103A73
//  #02 //056   ----------------------------------------
 BYTE   PATT
  POIN2 Label_01103A95
//  #02 //057   ----------------------------------------
 BYTE   PATT
  POIN2 Label_01103AAD
//  #02 //058   ----------------------------------------
 BYTE   PATT
  POIN2 Label_01103A95
//  #02 //059   ----------------------------------------
 BYTE   PATT
  POIN2 Label_01103AAD
//  #02 //060   ----------------------------------------
 BYTE   PATT
  POIN2 Label_01103ACF
//  #02 //061   ----------------------------------------
 BYTE   PATT
  POIN2 Label_01103ADA
//  #02 //062   ----------------------------------------
 BYTE   PATT
  POIN2 Label_01103AE5
//  #02 //063   ----------------------------------------
 BYTE   PATT
  POIN2 Label_01103AEF
//  #02 //064   ----------------------------------------
 BYTE   PATT
  POIN2 Label_01103B02
//  #02 //065   ----------------------------------------
 BYTE   PATT
  POIN2 Label_01103A12
//  #02 //066   ----------------------------------------
 BYTE   PATT
  POIN2 Label_01103A12
//  #02 //067   ----------------------------------------
 BYTE   PATT
  POIN2 Label_01103A12
//  #02 //068   ----------------------------------------
 BYTE   PATT
  POIN2 Label_01103A12
//  #02 //069   ----------------------------------------
 BYTE   PATT
  POIN2 Label_01103A39
//  #02 //070   ----------------------------------------
 BYTE   PATT
  POIN2 Label_01103A39
//  #02 //071   ----------------------------------------
 BYTE   PATT
  POIN2 Label_01103A12
//  #02 //072   ----------------------------------------
 BYTE   PATT
  POIN2 Label_01103A12
//  #02 //073   ----------------------------------------
 BYTE   PATT
  POIN2 Label_01103A5B
//  #02 //074   ----------------------------------------
 BYTE   PATT
  POIN2 Label_01103A73
//  #02 //075   ----------------------------------------
 BYTE   PATT
  POIN2 Label_01103A5B
//  #02 //076   ----------------------------------------
 BYTE   PATT
  POIN2 Label_01103A73
//  #02 //077   ----------------------------------------
 BYTE   PATT
  POIN2 Label_01103A95
//  #02 //078   ----------------------------------------
 BYTE   PATT
  POIN2 Label_01103AAD
//  #02 //079   ----------------------------------------
 BYTE   PATT
  POIN2 Label_01103A95
//  #02 //080   ----------------------------------------
 BYTE   PATT
  POIN2 Label_01103AAD
//  #02 //081   ----------------------------------------
 BYTE   PATT
  POIN2 Label_01103ACF
//  #02 //082   ----------------------------------------
 BYTE   PATT
  POIN2 Label_01103ADA
//  #02 //083   ----------------------------------------
 BYTE   PATT
  POIN2 Label_01103AE5
//  #02 //084   ----------------------------------------
 BYTE   PATT
  POIN2 Label_01103AEF
//  #02 //085   ----------------------------------------
 BYTE   W12
 BYTE   N10  Cn2  v112
 BYTE   W24
 BYTE   N10
 BYTE   W24
 BYTE   N10
 BYTE   W24
 BYTE   N10
 BYTE   W11
 BYTE   GoTo
  POIN2 Label_011039FA
 BYTE   FINE

//**************** Track 3 (Midi-Chn.2) ****************//

BoF2Battle_003:
//  #03 //000   ----------------------------------------
 BYTE   KEYSH   BoF2Battle_key+0
Label_01109EC6:
 BYTE   VOICE   61
 BYTE   PAN   c_v-30
 BYTE   VOL   35*BoF2Battle_mvl/mxv
 BYTE   N44  Gn2  v116
 BYTE   N44  Bn2
 BYTE   N44  En4
 BYTE   W48
 BYTE   An2
 BYTE   N44  Dn3
 BYTE   N44  Fs4
 BYTE   W48
//  #03 //001   ----------------------------------------
 BYTE   Bn2
 BYTE   N44  En3
 BYTE   N44  Gn4
 BYTE   W48
 BYTE   Dn3
 BYTE   N44  Fs3
 BYTE   N44  An4
 BYTE   W48
//  #03 //002   ----------------------------------------
 BYTE   W96
//  #03 //003   ----------------------------------------
 BYTE   W96
//  #03 //004   ----------------------------------------
 BYTE   W96
//  #03 //005   ----------------------------------------
 BYTE   W96
//  #03 //006   ----------------------------------------
 BYTE   W96
//  #03 //007   ----------------------------------------
 BYTE   W96
//  #03 //008   ----------------------------------------
Label_01109EEC:
 BYTE   N44  Bn2  v116
 BYTE   W48
 BYTE   Dn3
 BYTE   W48
 BYTE   PEND 
//  #03 //009   ----------------------------------------
 BYTE   En3
 BYTE   W48
 BYTE   Fs3
 BYTE   W48
//  #03 //010   ----------------------------------------
Label_01109EF7:
 BYTE   N11  Bn3  v116
 BYTE   N11  En4
 BYTE   W36
 BYTE   Bn3
 BYTE   N11  En4
 BYTE   W36
 BYTE   Bn3
 BYTE   N11  En4
 BYTE   W24
 BYTE   PEND 
//  #03 //011   ----------------------------------------
Label_01109F06:
 BYTE   W12
 BYTE   N32  Bn3  v116
 BYTE   N32  En4
 BYTE   W36
 BYTE   N11
 BYTE   N11  Gn4
 BYTE   W24
 BYTE   Cn4
 BYTE   N11  Fs4
 BYTE   W24
 BYTE   PEND 
//  #03 //012   ----------------------------------------
 BYTE   PATT
  POIN2 Label_01109EF7
//  #03 //013   ----------------------------------------
 BYTE   PATT
  POIN2 Label_01109F06
//  #03 //014   ----------------------------------------
Label_01109F20:
 BYTE   N11  Fn4  v116
 BYTE   N11  An4
 BYTE   W36
 BYTE   Fn4
 BYTE   N11  An4
 BYTE   W36
 BYTE   Fn4
 BYTE   N11  An4
 BYTE   W24
 BYTE   PEND 
//  #03 //015   ----------------------------------------
Label_01109F2F:
 BYTE   W12
 BYTE   N32  Fn4  v116
 BYTE   N32  An4
 BYTE   W36
 BYTE   N11
 BYTE   N11  Cn5
 BYTE   W24
 BYTE   Gn4
 BYTE   N11  Bn4
 BYTE   W24
 BYTE   PEND 
//  #03 //016   ----------------------------------------
 BYTE   PATT
  POIN2 Label_01109F20
//  #03 //017   ----------------------------------------
 BYTE   PATT
  POIN2 Label_01109F2F
//  #03 //018   ----------------------------------------
Label_01109F49:
 BYTE   N23  As3  v116
 BYTE   W24
 BYTE   Ds3
 BYTE   W24
 BYTE   Gs3
 BYTE   W24
 BYTE   Gn3
 BYTE   W24
 BYTE   PEND 
//  #03 //019   ----------------------------------------
Label_01109F54:
 BYTE   N23  Fs3  v116
 BYTE   W24
 BYTE   Fn3
 BYTE   W24
 BYTE   Cn3
 BYTE   W24
 BYTE   Ds3
 BYTE   W24
 BYTE   PEND 
//  #03 //020   ----------------------------------------
Label_01109F5F:
 BYTE   N23  Cs3  v116
 BYTE   W24
 BYTE   N11  As2
 BYTE   W12
 BYTE   Bn2
 BYTE   W12
 BYTE   PEND 
Label_01109F69:
 BYTE   TIE  Gn2  v116
 BYTE   TIE  Cn3
 BYTE   W96
 BYTE   PEND 
//  #03 //021   ----------------------------------------
 BYTE   W92
 BYTE   W03
 BYTE   EOT
 BYTE   Gn2  v060
 BYTE   W01
//  #03 //022   ----------------------------------------
 BYTE   W96
//  #03 //023   ----------------------------------------
 BYTE   W96
//  #03 //024   ----------------------------------------
 BYTE   W96
//  #03 //025   ----------------------------------------
 BYTE   W96
//  #03 //026   ----------------------------------------
 BYTE   W96
//  #03 //027   ----------------------------------------
 BYTE   W96
//  #03 //028   ----------------------------------------
 BYTE   PATT
  POIN2 Label_01109EEC
//  #03 //029   ----------------------------------------
 BYTE   N44  En3  v116
 BYTE   W48
 BYTE   Fs3
 BYTE   W48
//  #03 //030   ----------------------------------------
 BYTE   PATT
  POIN2 Label_01109EF7
//  #03 //031   ----------------------------------------
 BYTE   PATT
  POIN2 Label_01109F06
//  #03 //032   ----------------------------------------
 BYTE   PATT
  POIN2 Label_01109EF7
//  #03 //033   ----------------------------------------
 BYTE   PATT
  POIN2 Label_01109F06
//  #03 //034   ----------------------------------------
 BYTE   PATT
  POIN2 Label_01109F20
//  #03 //035   ----------------------------------------
 BYTE   PATT
  POIN2 Label_01109F2F
//  #03 //036   ----------------------------------------
 BYTE   PATT
  POIN2 Label_01109F20
//  #03 //037   ----------------------------------------
 BYTE   PATT
  POIN2 Label_01109F2F
//  #03 //038   ----------------------------------------
 BYTE   PATT
  POIN2 Label_01109F49
//  #03 //039   ----------------------------------------
 BYTE   PATT
  POIN2 Label_01109F54
//  #03 //040   ----------------------------------------
 BYTE   PATT
  POIN2 Label_01109F5F
//  #03 //041   ----------------------------------------
 BYTE   PATT
  POIN2 Label_01109F69
//  #03 //042   ----------------------------------------
 BYTE   W92
 BYTE   W03
 BYTE   EOT
 BYTE   Gn2  v060
 BYTE   W01
//  #03 //043   ----------------------------------------
 BYTE   W96
//  #03 //044   ----------------------------------------
 BYTE   W96
//  #03 //045   ----------------------------------------
 BYTE   W96
//  #03 //046   ----------------------------------------
 BYTE   W96
//  #03 //047   ----------------------------------------
 BYTE   W96
//  #03 //048   ----------------------------------------
 BYTE   W96
//  #03 //049   ----------------------------------------
 BYTE   PATT
  POIN2 Label_01109EEC
//  #03 //050   ----------------------------------------
 BYTE   N44  En3  v116
 BYTE   W48
 BYTE   Fs3
 BYTE   W48
//  #03 //051   ----------------------------------------
 BYTE   PATT
  POIN2 Label_01109EF7
//  #03 //052   ----------------------------------------
 BYTE   PATT
  POIN2 Label_01109F06
//  #03 //053   ----------------------------------------
 BYTE   PATT
  POIN2 Label_01109EF7
//  #03 //054   ----------------------------------------
 BYTE   PATT
  POIN2 Label_01109F06
//  #03 //055   ----------------------------------------
 BYTE   PATT
  POIN2 Label_01109F20
//  #03 //056   ----------------------------------------
 BYTE   PATT
  POIN2 Label_01109F2F
//  #03 //057   ----------------------------------------
 BYTE   PATT
  POIN2 Label_01109F20
//  #03 //058   ----------------------------------------
 BYTE   PATT
  POIN2 Label_01109F2F
//  #03 //059   ----------------------------------------
 BYTE   PATT
  POIN2 Label_01109F49
//  #03 //060   ----------------------------------------
 BYTE   PATT
  POIN2 Label_01109F54
//  #03 //061   ----------------------------------------
 BYTE   PATT
  POIN2 Label_01109F5F
//  #03 //062   ----------------------------------------
 BYTE   PATT
  POIN2 Label_01109F69
//  #03 //063   ----------------------------------------
 BYTE   W92
 BYTE   W03
 BYTE   EOT
 BYTE   Gn2  v060
 BYTE   W01
//  #03 //064   ----------------------------------------
 BYTE   W96
//  #03 //065   ----------------------------------------
 BYTE   W96
//  #03 //066   ----------------------------------------
 BYTE   W96
//  #03 //067   ----------------------------------------
 BYTE   W96
//  #03 //068   ----------------------------------------
 BYTE   W96
//  #03 //069   ----------------------------------------
 BYTE   W96
//  #03 //070   ----------------------------------------
 BYTE   PATT
  POIN2 Label_01109EEC
//  #03 //071   ----------------------------------------
 BYTE   N44  En3  v116
 BYTE   W48
 BYTE   Fs3
 BYTE   W48
//  #03 //072   ----------------------------------------
 BYTE   PATT
  POIN2 Label_01109EF7
//  #03 //073   ----------------------------------------
 BYTE   PATT
  POIN2 Label_01109F06
//  #03 //074   ----------------------------------------
 BYTE   PATT
  POIN2 Label_01109EF7
//  #03 //075   ----------------------------------------
 BYTE   PATT
  POIN2 Label_01109F06
//  #03 //076   ----------------------------------------
 BYTE   PATT
  POIN2 Label_01109F20
//  #03 //077   ----------------------------------------
 BYTE   PATT
  POIN2 Label_01109F2F
//  #03 //078   ----------------------------------------
 BYTE   PATT
  POIN2 Label_01109F20
//  #03 //079   ----------------------------------------
 BYTE   PATT
  POIN2 Label_01109F2F
//  #03 //080   ----------------------------------------
 BYTE   PATT
  POIN2 Label_01109F49
//  #03 //081   ----------------------------------------
 BYTE   PATT
  POIN2 Label_01109F54
//  #03 //082   ----------------------------------------
 BYTE   PATT
  POIN2 Label_01109F5F
//  #03 //083   ----------------------------------------
 BYTE   PATT
  POIN2 Label_01109F69
//  #03 //084   ----------------------------------------
 BYTE   W92
 BYTE   W03
 BYTE   EOT
 BYTE   Gn2  v060
 BYTE   GoTo
  POIN2 Label_01109EC6
 BYTE   FINE

//**************** Track 4 (Midi-Chn.3) ****************//

BoF2Battle_004:
//  #04 //000   ----------------------------------------
 BYTE   KEYSH   BoF2Battle_key+0
Label_0110A75A:
 BYTE   VOICE   29
 BYTE   PAN   c_v+34
 BYTE   VOL   32*BoF2Battle_mvl/mxv
 BYTE   N11  En2  v072
 BYTE   N11  En3  v100
 BYTE   W12
 BYTE   En2  v072
 BYTE   N11  En3  v100
 BYTE   W12
 BYTE   N05  En2  v052
 BYTE   N05  En3  v080
 BYTE   W12
 BYTE   N11  En2  v072
 BYTE   N11  En3  v100
 BYTE   W12
 BYTE   Dn2  v072
 BYTE   N11  Dn3  v100
 BYTE   W12
 BYTE   Dn2  v072
 BYTE   N11  Dn3  v100
 BYTE   W12
 BYTE   N05  Dn2  v052
 BYTE   N05  Dn3  v080
 BYTE   W12
 BYTE   N11  Dn2  v072
 BYTE   N11  Dn3  v100
 BYTE   W12
//  #04 //001   ----------------------------------------
Label_0110A795:
 BYTE   N11  En2  v072
 BYTE   N11  En3  v100
 BYTE   W12
 BYTE   En2  v072
 BYTE   N11  En3  v100
 BYTE   W12
 BYTE   N05  En2  v052
 BYTE   N05  En3  v080
 BYTE   W12
 BYTE   N11  En2  v072
 BYTE   N11  En3  v100
 BYTE   W12
 BYTE   Dn2  v072
 BYTE   N11  Dn3  v100
 BYTE   W12
 BYTE   Dn2  v072
 BYTE   N11  Dn3  v100
 BYTE   W12
 BYTE   N05  Dn2  v052
 BYTE   N05  Dn3  v080
 BYTE   W12
 BYTE   N11  Dn2  v072
 BYTE   N11  Dn3  v100
 BYTE   W12
 BYTE   PEND 
//  #04 //002   ----------------------------------------
 BYTE   PATT
  POIN2 Label_0110A795
//  #04 //003   ----------------------------------------
 BYTE   PATT
  POIN2 Label_0110A795
//  #04 //004   ----------------------------------------
 BYTE   PATT
  POIN2 Label_0110A795
//  #04 //005   ----------------------------------------
 BYTE   PATT
  POIN2 Label_0110A795
//  #04 //006   ----------------------------------------
Label_0110A7DF:
 BYTE   N11  Cn2  v072
 BYTE   N11  Cn3  v100
 BYTE   W12
 BYTE   Cn2  v072
 BYTE   N11  Cn3  v100
 BYTE   W12
 BYTE   N05  Cn2  v052
 BYTE   N05  Cn3  v080
 BYTE   W12
 BYTE   N11  Cn2  v072
 BYTE   N11  Cn3  v100
 BYTE   W12
 BYTE   Dn2  v072
 BYTE   N11  Dn3  v100
 BYTE   W12
 BYTE   Dn2  v072
 BYTE   N11  Dn3  v100
 BYTE   W12
 BYTE   N05  Dn2  v052
 BYTE   N05  Dn3  v080
 BYTE   W12
 BYTE   N11  Dn2  v072
 BYTE   N11  Dn3  v100
 BYTE   W12
 BYTE   PEND 
//  #04 //007   ----------------------------------------
 BYTE   PATT
  POIN2 Label_0110A7DF
//  #04 //008   ----------------------------------------
 BYTE   PATT
  POIN2 Label_0110A795
//  #04 //009   ----------------------------------------
 BYTE   PATT
  POIN2 Label_0110A795
//  #04 //010   ----------------------------------------
Label_0110A824:
 BYTE   N12  En2  v072
 BYTE   N12  En3  v100
 BYTE   W12
 BYTE   N06  En2  v052
 BYTE   N06  En3  v080
 BYTE   W12
 BYTE   En2  v052
 BYTE   N06  En3  v080
 BYTE   W12
 BYTE   N12  En2  v072
 BYTE   N12  En3  v100
 BYTE   W12
 BYTE   N06  En2  v052
 BYTE   N06  En3  v080
 BYTE   W12
 BYTE   En2  v052
 BYTE   N06  En3  v080
 BYTE   W12
 BYTE   N12  En2  v072
 BYTE   N12  En3  v100
 BYTE   W12
 BYTE   N06  En2  v052
 BYTE   N06  En3  v080
 BYTE   W12
 BYTE   PEND 
//  #04 //011   ----------------------------------------
Label_0110A85B:
 BYTE   N11  En2  v072
 BYTE   N11  En3  v100
 BYTE   W12
 BYTE   Bn1  v072
 BYTE   N11  Bn2  v100
 BYTE   W12
 BYTE   Cn2  v072
 BYTE   N11  Cn3  v100
 BYTE   W12
 BYTE   Bn1  v072
 BYTE   N11  Bn2  v100
 BYTE   W12
 BYTE   Dn2  v072
 BYTE   N11  Dn3  v100
 BYTE   W12
 BYTE   Bn1  v072
 BYTE   N11  Bn2  v100
 BYTE   W12
 BYTE   Ds2  v072
 BYTE   N11  Ds3  v100
 BYTE   W12
 BYTE   Bn1  v072
 BYTE   N11  Bn2  v100
 BYTE   W12
 BYTE   PEND 
//  #04 //012   ----------------------------------------
Label_0110A88D:
 BYTE   N12  En2  v072
 BYTE   N12  En3  v100
 BYTE   W12
 BYTE   N06  En2  v052
 BYTE   N06  En3  v080
 BYTE   W12
 BYTE   En2  v052
 BYTE   N06  En3  v080
 BYTE   W12
 BYTE   N12  En2  v072
 BYTE   N12  En3  v100
 BYTE   W12
 BYTE   N06  En2  v052
 BYTE   N06  En3  v080
 BYTE   W12
 BYTE   En2  v052
 BYTE   N06  En3  v080
 BYTE   W12
 BYTE   N12  En2  v072
 BYTE   N12  En3  v100
 BYTE   W12
 BYTE   N06  En2  v052
 BYTE   N06  En3  v080
 BYTE   W12
 BYTE   PEND 
//  #04 //013   ----------------------------------------
 BYTE   PATT
  POIN2 Label_0110A85B
//  #04 //014   ----------------------------------------
Label_0110A8C9:
 BYTE   N12  Fn2  v072
 BYTE   N12  Fn3  v100
 BYTE   W12
 BYTE   N06  Fn2  v052
 BYTE   N06  Fn3  v080
 BYTE   W12
 BYTE   Fn2  v052
 BYTE   N06  Fn3  v080
 BYTE   W12
 BYTE   N12  Fn2  v072
 BYTE   N12  Fn3  v100
 BYTE   W12
 BYTE   N06  Fn2  v052
 BYTE   N06  Fn3  v080
 BYTE   W12
 BYTE   Fn2  v052
 BYTE   N06  Fn3  v080
 BYTE   W12
 BYTE   N12  Fn2  v072
 BYTE   N12  Fn3  v100
 BYTE   W12
 BYTE   N06  Fn2  v052
 BYTE   N06  Fn3  v080
 BYTE   W12
 BYTE   PEND 
//  #04 //015   ----------------------------------------
Label_0110A900:
 BYTE   N11  Fn2  v072
 BYTE   N11  Fn3  v100
 BYTE   W12
 BYTE   Cn2  v072
 BYTE   N11  Cn3  v100
 BYTE   W12
 BYTE   Dn2  v072
 BYTE   N11  Dn3  v100
 BYTE   W12
 BYTE   Cn2  v072
 BYTE   N11  Cn3  v100
 BYTE   W12
 BYTE   En2  v072
 BYTE   N11  En3  v100
 BYTE   W12
 BYTE   Cn2  v072
 BYTE   N11  Cn3  v100
 BYTE   W12
 BYTE   En2  v072
 BYTE   N11  En3  v100
 BYTE   W12
 BYTE   Gn2  v072
 BYTE   N11  Gn3  v100
 BYTE   W12
 BYTE   PEND 
//  #04 //016   ----------------------------------------
 BYTE   PATT
  POIN2 Label_0110A8C9
//  #04 //017   ----------------------------------------
 BYTE   PATT
  POIN2 Label_0110A900
//  #04 //018   ----------------------------------------
Label_0110A93C:
 BYTE   N23  As1  v072
 BYTE   N23  As2  v100
 BYTE   W24
 BYTE   N11  As1  v072
 BYTE   N11  As2  v100
 BYTE   W12
 BYTE   As1  v072
 BYTE   N11  As2  v100
 BYTE   W12
 BYTE   As1  v072
 BYTE   N11  As2  v100
 BYTE   W12
 BYTE   N05  As1  v052
 BYTE   N05  As2  v080
 BYTE   W12
 BYTE   N11  As1  v072
 BYTE   N11  As2  v100
 BYTE   W12
 BYTE   N05  As1  v052
 BYTE   N05  As2  v080
 BYTE   W12
 BYTE   PEND 
//  #04 //019   ----------------------------------------
Label_0110A96C:
 BYTE   N11  Bn1  v072
 BYTE   N11  Bn2  v100
 BYTE   W12
 BYTE   Bn1  v072
 BYTE   N11  Bn2  v100
 BYTE   W12
 BYTE   N23  Cn2  v072
 BYTE   N23  Cn3  v100
 BYTE   W24
 BYTE   N11  Cn2  v072
 BYTE   N11  Cn3  v100
 BYTE   W12
 BYTE   Cn2  v072
 BYTE   N11  Cn3  v100
 BYTE   W12
 BYTE   Cn2  v072
 BYTE   N11  Cn3  v100
 BYTE   W12
 BYTE   N05  Cn2  v052
 BYTE   N05  Cn3  v080
 BYTE   W12
 BYTE   PEND 
//  #04 //020   ----------------------------------------
Label_0110A99B:
 BYTE   N11  Cn2  v072
 BYTE   N11  Cn3  v100
 BYTE   W12
 BYTE   N05  Cn2  v052
 BYTE   N05  Cn3  v080
 BYTE   W12
 BYTE   N11  As1  v072
 BYTE   N11  As2  v100
 BYTE   W12
 BYTE   Bn1  v072
 BYTE   N11  Bn2  v100
 BYTE   W12
 BYTE   PEND 
Label_0110A9B7:
 BYTE   N11  Cn2  v072
 BYTE   N11  Cn3  v100
 BYTE   W12
 BYTE   N05  Cn2  v052
 BYTE   N05  Cn3  v080
 BYTE   W12
 BYTE   Cn2  v052
 BYTE   N05  Cn3  v080
 BYTE   W12
 BYTE   N11  Cn2  v072
 BYTE   N11  Cn3  v100
 BYTE   W12
//  #04 //021   ----------------------------------------
 BYTE   N05  Cn2  v052
 BYTE   N05  Cn3  v080
 BYTE   W12
 BYTE   Cn2  v052
 BYTE   N05  Cn3  v080
 BYTE   W12
 BYTE   N11  Cn2  v072
 BYTE   N11  Cn3  v100
 BYTE   W12
 BYTE   N05  Cn2  v052
 BYTE   N05  Cn3  v080
 BYTE   W12
 BYTE   PEND 
Label_0110A9EE:
 BYTE   N05  Cn2  v052
 BYTE   N05  Cn3  v080
 BYTE   W12
 BYTE   N11  Cn2  v072
 BYTE   N11  Cn3  v100
 BYTE   W12
 BYTE   N05  Cn2  v052
 BYTE   N05  Cn3  v080
 BYTE   W12
 BYTE   N11  Cn2  v072
 BYTE   N11  Cn3  v100
 BYTE   W12
//  #04 //022   ----------------------------------------
 BYTE   N05  Cn2  v052
 BYTE   N05  Cn3  v080
 BYTE   W12
 BYTE   N11  Cn2  v072
 BYTE   N11  Cn3  v100
 BYTE   W12
 BYTE   N05  Cn2  v052
 BYTE   N05  Cn3  v080
 BYTE   W12
 BYTE   N11  Cn2  v072
 BYTE   N11  Cn3  v100
 BYTE   W12
 BYTE   PEND 
//  #04 //023   ----------------------------------------
 BYTE   PATT
  POIN2 Label_0110A795
//  #04 //024   ----------------------------------------
 BYTE   PATT
  POIN2 Label_0110A795
//  #04 //025   ----------------------------------------
 BYTE   PATT
  POIN2 Label_0110A795
//  #04 //026   ----------------------------------------
 BYTE   PATT
  POIN2 Label_0110A795
//  #04 //027   ----------------------------------------
 BYTE   PATT
  POIN2 Label_0110A7DF
//  #04 //028   ----------------------------------------
 BYTE   PATT
  POIN2 Label_0110A7DF
//  #04 //029   ----------------------------------------
 BYTE   PATT
  POIN2 Label_0110A795
//  #04 //030   ----------------------------------------
 BYTE   PATT
  POIN2 Label_0110A795
//  #04 //031   ----------------------------------------
 BYTE   PATT
  POIN2 Label_0110A824
//  #04 //032   ----------------------------------------
 BYTE   PATT
  POIN2 Label_0110A85B
//  #04 //033   ----------------------------------------
 BYTE   PATT
  POIN2 Label_0110A88D
//  #04 //034   ----------------------------------------
 BYTE   PATT
  POIN2 Label_0110A85B
//  #04 //035   ----------------------------------------
 BYTE   PATT
  POIN2 Label_0110A8C9
//  #04 //036   ----------------------------------------
 BYTE   PATT
  POIN2 Label_0110A900
//  #04 //037   ----------------------------------------
 BYTE   PATT
  POIN2 Label_0110A8C9
//  #04 //038   ----------------------------------------
 BYTE   PATT
  POIN2 Label_0110A900
//  #04 //039   ----------------------------------------
 BYTE   PATT
  POIN2 Label_0110A93C
//  #04 //040   ----------------------------------------
 BYTE   PATT
  POIN2 Label_0110A96C
//  #04 //041   ----------------------------------------
 BYTE   PATT
  POIN2 Label_0110A99B
//  #04 //042   ----------------------------------------
 BYTE   PATT
  POIN2 Label_0110A9B7
//  #04 //043   ----------------------------------------
 BYTE   PATT
  POIN2 Label_0110A9EE
//  #04 //044   ----------------------------------------
 BYTE   PATT
  POIN2 Label_0110A795
//  #04 //045   ----------------------------------------
 BYTE   PATT
  POIN2 Label_0110A795
//  #04 //046   ----------------------------------------
 BYTE   PATT
  POIN2 Label_0110A795
//  #04 //047   ----------------------------------------
 BYTE   PATT
  POIN2 Label_0110A795
//  #04 //048   ----------------------------------------
 BYTE   PATT
  POIN2 Label_0110A7DF
//  #04 //049   ----------------------------------------
 BYTE   PATT
  POIN2 Label_0110A7DF
//  #04 //050   ----------------------------------------
 BYTE   PATT
  POIN2 Label_0110A795
//  #04 //051   ----------------------------------------
 BYTE   PATT
  POIN2 Label_0110A795
//  #04 //052   ----------------------------------------
 BYTE   PATT
  POIN2 Label_0110A824
//  #04 //053   ----------------------------------------
 BYTE   PATT
  POIN2 Label_0110A85B
//  #04 //054   ----------------------------------------
 BYTE   PATT
  POIN2 Label_0110A88D
//  #04 //055   ----------------------------------------
 BYTE   PATT
  POIN2 Label_0110A85B
//  #04 //056   ----------------------------------------
 BYTE   PATT
  POIN2 Label_0110A8C9
//  #04 //057   ----------------------------------------
 BYTE   PATT
  POIN2 Label_0110A900
//  #04 //058   ----------------------------------------
 BYTE   PATT
  POIN2 Label_0110A8C9
//  #04 //059   ----------------------------------------
 BYTE   PATT
  POIN2 Label_0110A900
//  #04 //060   ----------------------------------------
 BYTE   PATT
  POIN2 Label_0110A93C
//  #04 //061   ----------------------------------------
 BYTE   PATT
  POIN2 Label_0110A96C
//  #04 //062   ----------------------------------------
 BYTE   PATT
  POIN2 Label_0110A99B
//  #04 //063   ----------------------------------------
 BYTE   PATT
  POIN2 Label_0110A9B7
//  #04 //064   ----------------------------------------
 BYTE   PATT
  POIN2 Label_0110A9EE
//  #04 //065   ----------------------------------------
 BYTE   PATT
  POIN2 Label_0110A795
//  #04 //066   ----------------------------------------
 BYTE   PATT
  POIN2 Label_0110A795
//  #04 //067   ----------------------------------------
 BYTE   PATT
  POIN2 Label_0110A795
//  #04 //068   ----------------------------------------
 BYTE   PATT
  POIN2 Label_0110A795
//  #04 //069   ----------------------------------------
 BYTE   PATT
  POIN2 Label_0110A7DF
//  #04 //070   ----------------------------------------
 BYTE   PATT
  POIN2 Label_0110A7DF
//  #04 //071   ----------------------------------------
 BYTE   PATT
  POIN2 Label_0110A795
//  #04 //072   ----------------------------------------
 BYTE   PATT
  POIN2 Label_0110A795
//  #04 //073   ----------------------------------------
 BYTE   PATT
  POIN2 Label_0110A824
//  #04 //074   ----------------------------------------
 BYTE   PATT
  POIN2 Label_0110A85B
//  #04 //075   ----------------------------------------
 BYTE   PATT
  POIN2 Label_0110A88D
//  #04 //076   ----------------------------------------
 BYTE   PATT
  POIN2 Label_0110A85B
//  #04 //077   ----------------------------------------
 BYTE   PATT
  POIN2 Label_0110A8C9
//  #04 //078   ----------------------------------------
 BYTE   PATT
  POIN2 Label_0110A900
//  #04 //079   ----------------------------------------
 BYTE   PATT
  POIN2 Label_0110A8C9
//  #04 //080   ----------------------------------------
 BYTE   PATT
  POIN2 Label_0110A900
//  #04 //081   ----------------------------------------
 BYTE   PATT
  POIN2 Label_0110A93C
//  #04 //082   ----------------------------------------
 BYTE   PATT
  POIN2 Label_0110A96C
//  #04 //083   ----------------------------------------
 BYTE   PATT
  POIN2 Label_0110A99B
//  #04 //084   ----------------------------------------
 BYTE   PATT
  POIN2 Label_0110A9B7
//  #04 //085   ----------------------------------------
 BYTE   N05  Cn2  v052
 BYTE   N05  Cn3  v080
 BYTE   W12
 BYTE   N11  Cn2  v072
 BYTE   N11  Cn3  v100
 BYTE   W12
 BYTE   N05  Cn2  v052
 BYTE   N05  Cn3  v080
 BYTE   W12
 BYTE   N11  Cn2  v072
 BYTE   N11  Cn3  v100
 BYTE   W12
 BYTE   N05  Cn2  v052
 BYTE   N05  Cn3  v080
 BYTE   W12
 BYTE   N11  Cn2  v072
 BYTE   N11  Cn3  v100
 BYTE   W12
 BYTE   N05  Cn2  v052
 BYTE   N05  Cn3  v080
 BYTE   W12
 BYTE   N11  Cn2  v072
 BYTE   N11  Cn3  v100
 BYTE   W11
 BYTE   GoTo
  POIN2 Label_0110A75A
 BYTE   FINE

//**************** Track 5 (Midi-Chn.4) ****************//

BoF2Battle_005:
//  #05 //000   ----------------------------------------
 BYTE   KEYSH   BoF2Battle_key+0
Label_0110AC2E:
 BYTE   VOICE   127
 BYTE   VOL   37*BoF2Battle_mvl/mxv
 BYTE   PAN   c_v+0
 BYTE   N01  Cn1  v120
 BYTE   N01  An2  v100
 BYTE   W12
 BYTE   Cn1  v120
 BYTE   W12
 BYTE   Dn1
 BYTE   W12
 BYTE   Cn1
 BYTE   W12
 BYTE   N01
 BYTE   N01  An2  v100
 BYTE   W12
 BYTE   Cn1  v120
 BYTE   W12
 BYTE   Dn1
 BYTE   W12
 BYTE   Cn1
 BYTE   W12
//  #05 //001   ----------------------------------------
 BYTE   N01
 BYTE   N01  An2  v100
 BYTE   W06
 BYTE   Dn2  v120
 BYTE   W06
 BYTE   N01
 BYTE   W06
 BYTE   N01
 BYTE   W06
 BYTE   Bn1
 BYTE   N01  An2  v100
 BYTE   W06
 BYTE   Bn1  v120
 BYTE   W06
 BYTE   N01
 BYTE   W06
 BYTE   N01
 BYTE   W06
 BYTE   An1
 BYTE   N01  An2  v100
 BYTE   W06
 BYTE   An1  v120
 BYTE   W06
 BYTE   N01
 BYTE   W06
 BYTE   N01
 BYTE   W06
 BYTE   Fn1
 BYTE   N01  An2  v100
 BYTE   W06
 BYTE   Fn1  v120
 BYTE   W06
 BYTE   N01
 BYTE   W06
 BYTE   N01
 BYTE   W06
//  #05 //002   ----------------------------------------
Label_0110AC7E:
 BYTE   N01  Cn1  v120
 BYTE   N01  An2  v100
 BYTE   W24
 BYTE   Dn1  v120
 BYTE   N01  Fs1  v100
 BYTE   W12
 BYTE   Cn1  v120
 BYTE   N01  As1  v100
 BYTE   W12
 BYTE   Fs1
 BYTE   W12
 BYTE   Cn1  v120
 BYTE   N01  As1  v100
 BYTE   W12
 BYTE   Dn1  v120
 BYTE   N01  Fs1  v100
 BYTE   W12
 BYTE   As1
 BYTE   W12
 BYTE   PEND 
//  #05 //003   ----------------------------------------
Label_0110ACA2:
 BYTE   N01  Cn1  v120
 BYTE   N01  Fs1  v100
 BYTE   W12
 BYTE   Cn1  v120
 BYTE   N01  As1  v100
 BYTE   W12
 BYTE   Dn1  v120
 BYTE   N01  Fs1  v100
 BYTE   W12
 BYTE   Cn1  v120
 BYTE   N01  As1  v100
 BYTE   W12
 BYTE   Fs1
 BYTE   W12
 BYTE   Cn1  v120
 BYTE   N01  As1  v100
 BYTE   W12
 BYTE   Dn1  v120
 BYTE   N01  Fs1  v100
 BYTE   W12
 BYTE   Dn1  v120
 BYTE   N01  As1  v100
 BYTE   W12
 BYTE   PEND 
//  #05 //004   ----------------------------------------
 BYTE   PATT
  POIN2 Label_0110AC7E
//  #05 //005   ----------------------------------------
Label_0110ACD5:
 BYTE   N01  Cn1  v120
 BYTE   N01  Fs1  v100
 BYTE   W12
 BYTE   Cn1  v120
 BYTE   N01  As1  v100
 BYTE   W12
 BYTE   Dn1  v120
 BYTE   N01  Fs1  v100
 BYTE   W12
 BYTE   Cn1  v120
 BYTE   N01  As1  v100
 BYTE   W12
 BYTE   Cn1  v120
 BYTE   W06
 BYTE   Dn2
 BYTE   W06
 BYTE   N01
 BYTE   W06
 BYTE   N01
 BYTE   W06
 BYTE   Bn1
 BYTE   W06
 BYTE   N01
 BYTE   W06
 BYTE   An1
 BYTE   W06
 BYTE   N01
 BYTE   W06
 BYTE   PEND 
//  #05 //006   ----------------------------------------
 BYTE   PATT
  POIN2 Label_0110AC7E
//  #05 //007   ----------------------------------------
 BYTE   PATT
  POIN2 Label_0110ACA2
//  #05 //008   ----------------------------------------
 BYTE   PATT
  POIN2 Label_0110AC7E
//  #05 //009   ----------------------------------------
Label_0110AD0F:
 BYTE   N01  Cn1  v120
 BYTE   N01  Fs1  v100
 BYTE   W12
 BYTE   Cn1  v120
 BYTE   N01  As1  v100
 BYTE   W12
 BYTE   Dn1  v120
 BYTE   N01  Fs1  v100
 BYTE   W12
 BYTE   Cn1  v120
 BYTE   N01  As1  v100
 BYTE   W12
 BYTE   Cn1  v120
 BYTE   W06
 BYTE   Dn1
 BYTE   W06
 BYTE   N01
 BYTE   W06
 BYTE   N01
 BYTE   W06
 BYTE   N01
 BYTE   W06
 BYTE   N01
 BYTE   W06
 BYTE   N01
 BYTE   W06
 BYTE   N01
 BYTE   W06
 BYTE   PEND 
//  #05 //010   ----------------------------------------
Label_0110AD3A:
 BYTE   N01  Cn1  v120
 BYTE   N01  An2  v100
 BYTE   W12
 BYTE   Dn1  v120
 BYTE   W12
 BYTE   N01
 BYTE   W12
 BYTE   Cn1
 BYTE   N01  An2  v100
 BYTE   W12
 BYTE   Dn1  v120
 BYTE   W12
 BYTE   N01
 BYTE   W12
 BYTE   Cn1
 BYTE   N01  An2  v100
 BYTE   W12
 BYTE   Dn1  v120
 BYTE   W12
 BYTE   PEND 
//  #05 //011   ----------------------------------------
Label_0110AD59:
 BYTE   N01  Cn1  v120
 BYTE   N01  An2  v100
 BYTE   W06
 BYTE   Dn2  v120
 BYTE   W06
 BYTE   N01
 BYTE   W06
 BYTE   N01
 BYTE   W06
 BYTE   N01
 BYTE   W06
 BYTE   Bn1
 BYTE   W06
 BYTE   N01
 BYTE   W06
 BYTE   N01
 BYTE   W06
 BYTE   N01
 BYTE   W06
 BYTE   An1
 BYTE   W06
 BYTE   N01
 BYTE   W06
 BYTE   N01
 BYTE   W06
 BYTE   N01
 BYTE   W06
 BYTE   Fn1
 BYTE   W06
 BYTE   N01
 BYTE   W06
 BYTE   N01
 BYTE   W06
 BYTE   PEND 
//  #05 //012   ----------------------------------------
 BYTE   PATT
  POIN2 Label_0110AD3A
//  #05 //013   ----------------------------------------
Label_0110AD85:
 BYTE   N01  Cn1  v120
 BYTE   N01  An2  v100
 BYTE   W06
 BYTE   Dn2  v120
 BYTE   W06
 BYTE   Bn1
 BYTE   W06
 BYTE   Gn1
 BYTE   W06
 BYTE   Cn1
 BYTE   N01  An2  v100
 BYTE   W06
 BYTE   Dn2  v120
 BYTE   W06
 BYTE   Bn1
 BYTE   W06
 BYTE   Gn1
 BYTE   W06
 BYTE   Dn1
 BYTE   N01  An2  v100
 BYTE   W06
 BYTE   Dn1  v120
 BYTE   W06
 BYTE   N01
 BYTE   W06
 BYTE   N01
 BYTE   W06
 BYTE   N01
 BYTE   N01  An2  v100
 BYTE   W06
 BYTE   Dn1  v120
 BYTE   W06
 BYTE   N01
 BYTE   W06
 BYTE   N01
 BYTE   W06
 BYTE   PEND 
//  #05 //014   ----------------------------------------
 BYTE   PATT
  POIN2 Label_0110AD3A
//  #05 //015   ----------------------------------------
 BYTE   PATT
  POIN2 Label_0110AD59
//  #05 //016   ----------------------------------------
 BYTE   PATT
  POIN2 Label_0110AD3A
//  #05 //017   ----------------------------------------
 BYTE   PATT
  POIN2 Label_0110AD85
//  #05 //018   ----------------------------------------
Label_0110ADCC:
 BYTE   N01  Cn1  v120
 BYTE   N01  An2  v100
 BYTE   W24
 BYTE   Cn1  v120
 BYTE   N01  As1  v100
 BYTE   W12
 BYTE   Dn1  v120
 BYTE   N01  Fs1  v100
 BYTE   W12
 BYTE   As1
 BYTE   W12
 BYTE   Cn1  v120
 BYTE   N01  Fs1  v100
 BYTE   W12
 BYTE   As1
 BYTE   N01  Dn2  v120
 BYTE   W06
 BYTE   N01
 BYTE   W06
 BYTE   Fs1  v100
 BYTE   N01  Bn1  v120
 BYTE   W06
 BYTE   N01
 BYTE   W06
 BYTE   PEND 
//  #05 //019   ----------------------------------------
Label_0110ADF7:
 BYTE   N01  An1  v120
 BYTE   N01  As1  v100
 BYTE   W06
 BYTE   An1  v120
 BYTE   W06
 BYTE   Fn1
 BYTE   N01  Fs1  v100
 BYTE   W06
 BYTE   Fn1  v120
 BYTE   W06
 BYTE   Cn1
 BYTE   N01  An2  v100
 BYTE   W24
 BYTE   Cn1  v120
 BYTE   N01  As1  v100
 BYTE   W12
 BYTE   Dn1  v120
 BYTE   N01  Fs1  v100
 BYTE   W12
 BYTE   As1
 BYTE   W12
 BYTE   Cn1  v120
 BYTE   N01  Fs1  v100
 BYTE   W12
 BYTE   PEND 
//  #05 //020   ----------------------------------------
Label_0110AE23:
 BYTE   N01  Dn1  v120
 BYTE   N01  As1  v100
 BYTE   W06
 BYTE   Dn1  v120
 BYTE   W06
 BYTE   N01
 BYTE   N01  Fs1  v100
 BYTE   W06
 BYTE   Dn1  v120
 BYTE   W06
 BYTE   N01
 BYTE   N01  As1  v100
 BYTE   W06
 BYTE   Dn1  v120
 BYTE   W06
 BYTE   N01
 BYTE   N01  Fs1  v100
 BYTE   W06
 BYTE   Dn1  v120
 BYTE   W06
 BYTE   PEND 
Label_0110AE46:
 BYTE   N01  Cn1  v120
 BYTE   N01  An2  v100
 BYTE   W12
 BYTE   Cn1  v120
 BYTE   W12
 BYTE   Dn1
 BYTE   N01  Fs1  v100
 BYTE   W12
 BYTE   Cn1  v120
 BYTE   N01  As1  v100
 BYTE   W12
//  #05 //021   ----------------------------------------
 BYTE   Fs1
 BYTE   W12
 BYTE   Cn1  v120
 BYTE   N01  As1  v100
 BYTE   W12
 BYTE   Dn1  v120
 BYTE   N01  Fs1  v100
 BYTE   W12
 BYTE   Cn1  v120
 BYTE   N01  As1  v100
 BYTE   W12
 BYTE   PEND 
Label_0110AE70:
 BYTE   N01  Cn1  v120
 BYTE   N01  An2  v100
 BYTE   W12
 BYTE   Cn1  v120
 BYTE   W12
 BYTE   Dn1
 BYTE   N01  An2  v100
 BYTE   W12
 BYTE   Cn1  v120
 BYTE   W12
//  #05 //022   ----------------------------------------
 BYTE   N01
 BYTE   N01  An2  v100
 BYTE   W06
 BYTE   Dn1  v120
 BYTE   W06
 BYTE   N01
 BYTE   W06
 BYTE   N01
 BYTE   W06
 BYTE   N01
 BYTE   N01  An2  v100
 BYTE   W06
 BYTE   Dn1  v120
 BYTE   W06
 BYTE   N01
 BYTE   W06
 BYTE   N01
 BYTE   W06
 BYTE   PEND 
//  #05 //023   ----------------------------------------
 BYTE   PATT
  POIN2 Label_0110AC7E
//  #05 //024   ----------------------------------------
 BYTE   PATT
  POIN2 Label_0110ACA2
//  #05 //025   ----------------------------------------
 BYTE   PATT
  POIN2 Label_0110AC7E
//  #05 //026   ----------------------------------------
 BYTE   PATT
  POIN2 Label_0110ACD5
//  #05 //027   ----------------------------------------
 BYTE   PATT
  POIN2 Label_0110AC7E
//  #05 //028   ----------------------------------------
 BYTE   PATT
  POIN2 Label_0110ACA2
//  #05 //029   ----------------------------------------
 BYTE   PATT
  POIN2 Label_0110AC7E
//  #05 //030   ----------------------------------------
 BYTE   PATT
  POIN2 Label_0110AD0F
//  #05 //031   ----------------------------------------
 BYTE   PATT
  POIN2 Label_0110AD3A
//  #05 //032   ----------------------------------------
 BYTE   PATT
  POIN2 Label_0110AD59
//  #05 //033   ----------------------------------------
 BYTE   PATT
  POIN2 Label_0110AD3A
//  #05 //034   ----------------------------------------
 BYTE   PATT
  POIN2 Label_0110AD85
//  #05 //035   ----------------------------------------
 BYTE   PATT
  POIN2 Label_0110AD3A
//  #05 //036   ----------------------------------------
 BYTE   PATT
  POIN2 Label_0110AD59
//  #05 //037   ----------------------------------------
 BYTE   PATT
  POIN2 Label_0110AD3A
//  #05 //038   ----------------------------------------
 BYTE   PATT
  POIN2 Label_0110AD85
//  #05 //039   ----------------------------------------
 BYTE   PATT
  POIN2 Label_0110ADCC
//  #05 //040   ----------------------------------------
 BYTE   PATT
  POIN2 Label_0110ADF7
//  #05 //041   ----------------------------------------
 BYTE   PATT
  POIN2 Label_0110AE23
//  #05 //042   ----------------------------------------
 BYTE   PATT
  POIN2 Label_0110AE46
//  #05 //043   ----------------------------------------
 BYTE   PATT
  POIN2 Label_0110AE70
//  #05 //044   ----------------------------------------
 BYTE   PATT
  POIN2 Label_0110AC7E
//  #05 //045   ----------------------------------------
 BYTE   PATT
  POIN2 Label_0110ACA2
//  #05 //046   ----------------------------------------
 BYTE   PATT
  POIN2 Label_0110AC7E
//  #05 //047   ----------------------------------------
 BYTE   PATT
  POIN2 Label_0110ACD5
//  #05 //048   ----------------------------------------
 BYTE   PATT
  POIN2 Label_0110AC7E
//  #05 //049   ----------------------------------------
 BYTE   PATT
  POIN2 Label_0110ACA2
//  #05 //050   ----------------------------------------
 BYTE   PATT
  POIN2 Label_0110AC7E
//  #05 //051   ----------------------------------------
 BYTE   PATT
  POIN2 Label_0110AD0F
//  #05 //052   ----------------------------------------
 BYTE   PATT
  POIN2 Label_0110AD3A
//  #05 //053   ----------------------------------------
 BYTE   PATT
  POIN2 Label_0110AD59
//  #05 //054   ----------------------------------------
 BYTE   PATT
  POIN2 Label_0110AD3A
//  #05 //055   ----------------------------------------
 BYTE   PATT
  POIN2 Label_0110AD85
//  #05 //056   ----------------------------------------
 BYTE   PATT
  POIN2 Label_0110AD3A
//  #05 //057   ----------------------------------------
 BYTE   PATT
  POIN2 Label_0110AD59
//  #05 //058   ----------------------------------------
 BYTE   PATT
  POIN2 Label_0110AD3A
//  #05 //059   ----------------------------------------
 BYTE   PATT
  POIN2 Label_0110AD85
//  #05 //060   ----------------------------------------
 BYTE   PATT
  POIN2 Label_0110ADCC
//  #05 //061   ----------------------------------------
 BYTE   PATT
  POIN2 Label_0110ADF7
//  #05 //062   ----------------------------------------
 BYTE   PATT
  POIN2 Label_0110AE23
//  #05 //063   ----------------------------------------
 BYTE   PATT
  POIN2 Label_0110AE46
//  #05 //064   ----------------------------------------
 BYTE   PATT
  POIN2 Label_0110AE70
//  #05 //065   ----------------------------------------
 BYTE   PATT
  POIN2 Label_0110AC7E
//  #05 //066   ----------------------------------------
 BYTE   PATT
  POIN2 Label_0110ACA2
//  #05 //067   ----------------------------------------
 BYTE   PATT
  POIN2 Label_0110AC7E
//  #05 //068   ----------------------------------------
 BYTE   PATT
  POIN2 Label_0110ACD5
//  #05 //069   ----------------------------------------
 BYTE   PATT
  POIN2 Label_0110AC7E
//  #05 //070   ----------------------------------------
 BYTE   PATT
  POIN2 Label_0110ACA2
//  #05 //071   ----------------------------------------
 BYTE   PATT
  POIN2 Label_0110AC7E
//  #05 //072   ----------------------------------------
 BYTE   PATT
  POIN2 Label_0110AD0F
//  #05 //073   ----------------------------------------
 BYTE   PATT
  POIN2 Label_0110AD3A
//  #05 //074   ----------------------------------------
 BYTE   PATT
  POIN2 Label_0110AD59
//  #05 //075   ----------------------------------------
 BYTE   PATT
  POIN2 Label_0110AD3A
//  #05 //076   ----------------------------------------
 BYTE   PATT
  POIN2 Label_0110AD85
//  #05 //077   ----------------------------------------
 BYTE   PATT
  POIN2 Label_0110AD3A
//  #05 //078   ----------------------------------------
 BYTE   PATT
  POIN2 Label_0110AD59
//  #05 //079   ----------------------------------------
 BYTE   PATT
  POIN2 Label_0110AD3A
//  #05 //080   ----------------------------------------
 BYTE   PATT
  POIN2 Label_0110AD85
//  #05 //081   ----------------------------------------
 BYTE   PATT
  POIN2 Label_0110ADCC
//  #05 //082   ----------------------------------------
 BYTE   PATT
  POIN2 Label_0110ADF7
//  #05 //083   ----------------------------------------
 BYTE   PATT
  POIN2 Label_0110AE23
//  #05 //084   ----------------------------------------
 BYTE   PATT
  POIN2 Label_0110AE46
//  #05 //085   ----------------------------------------
 BYTE   N01  Cn1  v120
 BYTE   N01  An2  v100
 BYTE   W12
 BYTE   Cn1  v120
 BYTE   W12
 BYTE   Dn1
 BYTE   N01  An2  v100
 BYTE   W12
 BYTE   Cn1  v120
 BYTE   W12
 BYTE   N01
 BYTE   N01  An2  v100
 BYTE   W06
 BYTE   Dn1  v120
 BYTE   W06
 BYTE   N01
 BYTE   W06
 BYTE   N01
 BYTE   W06
 BYTE   N01
 BYTE   N01  An2  v100
 BYTE   W06
 BYTE   Dn1  v120
 BYTE   W06
 BYTE   N01
 BYTE   W06
 BYTE   N01
 BYTE   W05
 BYTE   GoTo
  POIN2 Label_0110AC2E
 BYTE   FINE

//******************************************************//
	ALIGN 4

BoF2Battle:
	BYTE	5	// NumTrks
	BYTE	0	// NumBlks
	BYTE	BoF2Battle_pri	// Priority
	BYTE	BoF2Battle_rev	// Reverb.
    
	POIN2	BoF2Battle_grp
    
	POIN2	BoF2Battle_001
	POIN2	BoF2Battle_002
	POIN2	BoF2Battle_003
	POIN2	BoF2Battle_004
	POIN2	BoF2Battle_005

	
