//Event file generated from Sappy .s format.
	

	#define	ChineseTea_grp  voicegroup000
	#define	ChineseTea_pri  0
	#define	ChineseTea_rev  0
	#define	ChineseTea_mvl  127
	#define	ChineseTea_key  0
	#define	ChineseTea_tbs  1
	#define	ChineseTea_exg  0
	#define	ChineseTea_cmp  1

	// .rodata
	//	ChineseTea
	ALIGN 4


//**************** Track 1 (Midi-Chn.0) ****************//

ChineseTea_001:
// 000   ----------------------------------------
 BYTE   KEYSH   ChineseTea_key+0
 BYTE   TEMPO   130*ChineseTea_tbs/2
 BYTE   VOICE   36
 BYTE   VOL   31*ChineseTea_mvl/mxv
 BYTE   PAN   c_v+6
 BYTE   W96
// 001   ----------------------------------------
 BYTE   W96
// 002   ----------------------------------------
 BYTE   W96
// 003   ----------------------------------------
 BYTE   W96
// 004   ----------------------------------------
 BYTE   W06
 BYTE   TEMPO   132*ChineseTea_tbs/2
 BYTE   W10
 BYTE   TEMPO   132*ChineseTea_tbs/2
 BYTE   W11
 BYTE   TEMPO   134*ChineseTea_tbs/2
 BYTE   W09
 BYTE   TEMPO   134*ChineseTea_tbs/2
 BYTE   W16
 BYTE   TEMPO   136*ChineseTea_tbs/2
 BYTE   W10
 BYTE   TEMPO   134*ChineseTea_tbs/2
 BYTE   W10
 BYTE   TEMPO   136*ChineseTea_tbs/2
 BYTE   W24
// 005   ----------------------------------------
 BYTE   TEMPO   134*ChineseTea_tbs/2
 BYTE   W05
 BYTE   TEMPO   136*ChineseTea_tbs/2
 BYTE   W84
 BYTE   TEMPO   134*ChineseTea_tbs/2
 BYTE   W07
// 006   ----------------------------------------
 BYTE   TEMPO   136*ChineseTea_tbs/2
 BYTE   W04
 BYTE   TEMPO   134*ChineseTea_tbs/2
 BYTE   W05
 BYTE   TEMPO   134*ChineseTea_tbs/2
 BYTE   W04
 BYTE   TEMPO   132*ChineseTea_tbs/2
 BYTE   W04
 BYTE   TEMPO   132*ChineseTea_tbs/2
 BYTE   W03
 BYTE   TEMPO   130*ChineseTea_tbs/2
 BYTE   W04
 BYTE   TEMPO   130*ChineseTea_tbs/2
 BYTE   W03
 BYTE   TEMPO   128*ChineseTea_tbs/2
 BYTE   W04
 BYTE   TEMPO   128*ChineseTea_tbs/2
 BYTE   W04
 BYTE   TEMPO   126*ChineseTea_tbs/2
 BYTE   W06
 BYTE   TEMPO   126*ChineseTea_tbs/2
 BYTE   W10
 BYTE   TEMPO   124*ChineseTea_tbs/2
 BYTE   W44
 BYTE   W01
// 007   ----------------------------------------
 BYTE   W72
 BYTE   TEMPO   142*ChineseTea_tbs/2
 BYTE   N23  Fs1  v100
 BYTE   N23  Cs2  v120
 BYTE   W24
// 008   ----------------------------------------
Label_0_B7D870:
 BYTE   N23  Dn1  v120
 BYTE   N23  An1
 BYTE   N23  En3
 BYTE   W24
 BYTE   N06  An0
 BYTE   W06
 BYTE   Dn1
 BYTE   N06  Fs1
 BYTE   W06
 BYTE   N11  Dn1
 BYTE   N11  An1
 BYTE   W12
 BYTE   N23  En1
 BYTE   N23  Bn1
 BYTE   W24
 BYTE   N06  Bn0
 BYTE   W06
 BYTE   N11  Gs1
 BYTE   N11  Bn1
 BYTE   W12
 BYTE   N06
 BYTE   N06  En2
 BYTE   W06
// 009   ----------------------------------------
Label_0_B7D895:
 BYTE   N17  Fs1  v120
 BYTE   N17  Cs2
 BYTE   W18
 BYTE   Fs1
 BYTE   N17  Cs2
 BYTE   W18
 BYTE   N11  An1
 BYTE   N11  Fs2
 BYTE   W12
 BYTE   N17  Fs1
 BYTE   N17  An1
 BYTE   W18
 BYTE   Fs1
 BYTE   N17  An1
 BYTE   W18
 BYTE   N11  Cs2
 BYTE   N11  An2
 BYTE   W12
 BYTE   PEND 
// 010   ----------------------------------------
Label_0_B7D8B3:
 BYTE   N23  Dn1  v120
 BYTE   N23  An1
 BYTE   W24
 BYTE   N06  An0
 BYTE   W06
 BYTE   Dn1
 BYTE   N06  Fs1
 BYTE   W06
 BYTE   N11  Dn1
 BYTE   N11  An1
 BYTE   W12
 BYTE   N23  Fn1
 BYTE   N23  Bn1
 BYTE   W24
 BYTE   N06  Fn1
 BYTE   W06
 BYTE   N11
 BYTE   N11  Gs1
 BYTE   W12
 BYTE   N06
 BYTE   N06  Bn1
 BYTE   W06
 BYTE   PEND 
// 011   ----------------------------------------
Label_0_B7D8D6:
 BYTE   N17  An1  v120
 BYTE   N17  Fs2
 BYTE   W18
 BYTE   An1
 BYTE   N17  Cs2
 BYTE   W18
 BYTE   N11  Fs1
 BYTE   N11  An1
 BYTE   W12
 BYTE   N17  Bn1
 BYTE   N17  En2
 BYTE   W18
 BYTE   Gs1
 BYTE   N17  Bn1
 BYTE   W18
 BYTE   N11  En1
 BYTE   N11  Gs1
 BYTE   W12
 BYTE   PEND 
// 012   ----------------------------------------
Label_0_B7D8F4:
 BYTE   N23  Dn1  v120
 BYTE   N23  An1
 BYTE   W24
 BYTE   N06  An0
 BYTE   W06
 BYTE   Dn1
 BYTE   N06  Fs1
 BYTE   W06
 BYTE   N11  Dn1
 BYTE   N11  An1
 BYTE   W12
 BYTE   N23  En1
 BYTE   N23  Bn1
 BYTE   W24
 BYTE   N06  Bn0
 BYTE   W06
 BYTE   N11  Gs1
 BYTE   N11  Bn1
 BYTE   W12
 BYTE   N06
 BYTE   N06  En2
 BYTE   W06
 BYTE   PEND 
// 013   ----------------------------------------
 BYTE   PATT
  POIN2 Label_0_B7D895
// 014   ----------------------------------------
Label_0_B7D91D:
 BYTE   N23  Dn1  v120
 BYTE   N23  An1
 BYTE   W24
 BYTE   N06  An0
 BYTE   W06
 BYTE   Dn1
 BYTE   N06  Fs1
 BYTE   W06
 BYTE   N11  Dn1
 BYTE   N11  An1
 BYTE   W12
 BYTE   N23  En1
 BYTE   N23  Bn1
 BYTE   W24
 BYTE   N06  Gs1
 BYTE   W06
 BYTE   N23
 BYTE   N11  Bn1
 BYTE   W12
 BYTE   N06  En2
 BYTE   N06  Gs2
 BYTE   W06
 BYTE   PEND 
// 015   ----------------------------------------
Label_0_B7D941:
 BYTE   N17  Fs1  v120
 BYTE   N17  Cs2
 BYTE   W18
 BYTE   Fs1
 BYTE   N17  Cs2
 BYTE   W18
 BYTE   N11  An1
 BYTE   N11  Fs2
 BYTE   W12
 BYTE   N17  Cs2
 BYTE   N17  An2
 BYTE   W18
 BYTE   An1
 BYTE   N17  Cs2
 BYTE   W18
 BYTE   N11
 BYTE   N11  An2
 BYTE   W12
 BYTE   PEND 
// 016   ----------------------------------------
 BYTE   PATT
  POIN2 Label_0_B7D8F4
// 017   ----------------------------------------
 BYTE   PATT
  POIN2 Label_0_B7D895
// 018   ----------------------------------------
 BYTE   PATT
  POIN2 Label_0_B7D8B3
// 019   ----------------------------------------
 BYTE   PATT
  POIN2 Label_0_B7D8D6
// 020   ----------------------------------------
 BYTE   PATT
  POIN2 Label_0_B7D8F4
// 021   ----------------------------------------
 BYTE   PATT
  POIN2 Label_0_B7D895
// 022   ----------------------------------------
 BYTE   PATT
  POIN2 Label_0_B7D91D
// 023   ----------------------------------------
 BYTE   PATT
  POIN2 Label_0_B7D941
// 024   ----------------------------------------
Label_0_B7D986:
 BYTE   N11  Fs1  v120
 BYTE   W12
 BYTE   Cs2
 BYTE   W12
 BYTE   N03  Cs1  v100
 BYTE   W06
 BYTE   N06  Fs1  v120
 BYTE   W06
 BYTE   Cs2
 BYTE   W06
 BYTE   N17  Fs1
 BYTE   W18
 BYTE   N11  Cs2
 BYTE   W12
 BYTE   N17  Fs1
 BYTE   W18
 BYTE   N06  Cs2
 BYTE   W06
 BYTE   PEND 
// 025   ----------------------------------------
Label_0_B7D9A3:
 BYTE   N11  En1  v120
 BYTE   W12
 BYTE   Cs2
 BYTE   W12
 BYTE   N03  Cs1  v100
 BYTE   W06
 BYTE   N06  En1  v120
 BYTE   W06
 BYTE   Cs2
 BYTE   W06
 BYTE   N17  En1
 BYTE   W18
 BYTE   N11  Cs2
 BYTE   W12
 BYTE   N06  En1  v060
 BYTE   W06
 BYTE   En1  v120
 BYTE   W06
 BYTE   N11  Cs2
 BYTE   W12
 BYTE   PEND 
// 026   ----------------------------------------
Label_0_B7D9C4:
 BYTE   N11  Ds1  v120
 BYTE   W12
 BYTE   Bn1
 BYTE   W12
 BYTE   N03  Bn0  v100
 BYTE   W06
 BYTE   N06  Ds1  v120
 BYTE   W06
 BYTE   Bn1
 BYTE   W06
 BYTE   N17  Ds1
 BYTE   W18
 BYTE   N11  Bn1
 BYTE   W12
 BYTE   N17  Ds1
 BYTE   W18
 BYTE   N06  Bn1
 BYTE   W06
 BYTE   PEND 
// 027   ----------------------------------------
Label_0_B7D9E1:
 BYTE   N11  Ds1  v120
 BYTE   W12
 BYTE   N17  Bn1
 BYTE   W18
 BYTE   N06  Ds1
 BYTE   W06
 BYTE   N11  Bn1
 BYTE   W12
 BYTE   Ds1
 BYTE   W12
 BYTE   Bn1
 BYTE   W12
 BYTE   N17  Ds1
 BYTE   W18
 BYTE   N06  Bn1
 BYTE   W06
 BYTE   PEND 
// 028   ----------------------------------------
Label_0_B7D9F9:
 BYTE   N11  Dn1  v120
 BYTE   W12
 BYTE   An1
 BYTE   W12
 BYTE   N03  Dn1  v100
 BYTE   W06
 BYTE   N06  Dn1  v120
 BYTE   W06
 BYTE   An1
 BYTE   W06
 BYTE   N17  Dn1
 BYTE   W18
 BYTE   N11  An1
 BYTE   W12
 BYTE   N17  Dn1
 BYTE   W18
 BYTE   N06  An1
 BYTE   W06
 BYTE   PEND 
// 029   ----------------------------------------
Label_0_B7DA16:
 BYTE   N11  En1  v120
 BYTE   W12
 BYTE   Bn1
 BYTE   W12
 BYTE   N03  En1  v100
 BYTE   W06
 BYTE   N06  Gs1  v120
 BYTE   W06
 BYTE   Bn1
 BYTE   W06
 BYTE   N17  En1
 BYTE   W18
 BYTE   N11  Bn1
 BYTE   W12
 BYTE   N06  En1  v060
 BYTE   W06
 BYTE   Gs1  v120
 BYTE   W06
 BYTE   N11  Bn1
 BYTE   W12
 BYTE   PEND 
// 030   ----------------------------------------
Label_0_B7DA37:
 BYTE   N11  Fs1  v120
 BYTE   W12
 BYTE   Cs2
 BYTE   W12
 BYTE   N03  Cs1  v100
 BYTE   W06
 BYTE   N06  Fs1  v120
 BYTE   W06
 BYTE   Cs2
 BYTE   W06
 BYTE   N17  An1
 BYTE   W18
 BYTE   N11  Fs1
 BYTE   W12
 BYTE   N17  Cs2
 BYTE   W18
 BYTE   N06  Fs1
 BYTE   W06
 BYTE   PEND 
// 031   ----------------------------------------
 BYTE   N11
 BYTE   W12
 BYTE   N17  Cs2
 BYTE   W18
 BYTE   N06  An1
 BYTE   W06
 BYTE   N11  Fs2
 BYTE   W12
 BYTE   Fs1
 BYTE   W12
 BYTE   Cs2
 BYTE   W12
 BYTE   N17  An1
 BYTE   W18
 BYTE   N06  Cs2
 BYTE   W06
// 032   ----------------------------------------
 BYTE   PATT
  POIN2 Label_0_B7D986
// 033   ----------------------------------------
 BYTE   PATT
  POIN2 Label_0_B7D9A3
// 034   ----------------------------------------
 BYTE   PATT
  POIN2 Label_0_B7D9C4
// 035   ----------------------------------------
 BYTE   PATT
  POIN2 Label_0_B7D9E1
// 036   ----------------------------------------
 BYTE   PATT
  POIN2 Label_0_B7D9F9
// 037   ----------------------------------------
 BYTE   PATT
  POIN2 Label_0_B7DA16
// 038   ----------------------------------------
 BYTE   PATT
  POIN2 Label_0_B7DA37
// 039   ----------------------------------------
 BYTE   TEMPO   142*ChineseTea_tbs/2
 BYTE   N11  Fs1  v120
 BYTE   W06
 BYTE   TEMPO   142*ChineseTea_tbs/2
 BYTE   W01
 BYTE   TEMPO   142*ChineseTea_tbs/2
 BYTE   W05
 BYTE   N17  Cs2
 BYTE   W14
 BYTE   TEMPO   140*ChineseTea_tbs/2
 BYTE   W04
 BYTE   N06  An1
 BYTE   W06
 BYTE   N11  Fs2
 BYTE   W12
 BYTE   Fs1
 BYTE   W07
 BYTE   TEMPO   140*ChineseTea_tbs/2
 BYTE   W05
 BYTE   Cs2
 BYTE   W12
 BYTE   N17  An1
 BYTE   W18
 BYTE   N06  Cs2
 BYTE   W06
// 040   ----------------------------------------
 BYTE   N23  Dn1
 BYTE   N23  An1
 BYTE   W24
 BYTE   TEMPO   138*ChineseTea_tbs/2
 BYTE   N06  An0
 BYTE   W06
 BYTE   Dn1
 BYTE   N06  Fs1
 BYTE   W06
 BYTE   N11  Dn1
 BYTE   N11  An1
 BYTE   W10
 BYTE   TEMPO   138*ChineseTea_tbs/2
 BYTE   W02
 BYTE   N23  En1
 BYTE   N23  Bn1
 BYTE   W24
 BYTE   N06  Bn0
 BYTE   W06
 BYTE   N11  Gs1
 BYTE   N11  Bn1
 BYTE   W12
 BYTE   N06
 BYTE   N06  En2
 BYTE   W06
// 041   ----------------------------------------
 BYTE   PATT
  POIN2 Label_0_B7D895
// 042   ----------------------------------------
 BYTE   PATT
  POIN2 Label_0_B7D8B3
// 043   ----------------------------------------
 BYTE   PATT
  POIN2 Label_0_B7D8D6
// 044   ----------------------------------------
 BYTE   PATT
  POIN2 Label_0_B7D8F4
// 045   ----------------------------------------
 BYTE   PATT
  POIN2 Label_0_B7D895
// 046   ----------------------------------------
 BYTE   PATT
  POIN2 Label_0_B7D91D
// 047   ----------------------------------------
 BYTE   N17  Fs1  v120
 BYTE   N17  Cs2
 BYTE   W18
 BYTE   Fs1
 BYTE   N17  Cs2
 BYTE   W18
 BYTE   N11  An1
 BYTE   N11  Fs2
 BYTE   W12
 BYTE   N17  Cs2
 BYTE   N17  An2
 BYTE   W09
 BYTE   TEMPO   138*ChineseTea_tbs/2
 BYTE   W09
 BYTE   An1
 BYTE   N17  Cs2
 BYTE   W02
 BYTE   TEMPO   140*ChineseTea_tbs/2
 BYTE   W09
 BYTE   TEMPO   140*ChineseTea_tbs/2
 BYTE   W07
 BYTE   N11
 BYTE   N11  An2
 BYTE   W04
 BYTE   TEMPO   142*ChineseTea_tbs/2
 BYTE   W08
// 048   ----------------------------------------
 BYTE   PATT
  POIN2 Label_0_B7D8F4
// 049   ----------------------------------------
 BYTE   PATT
  POIN2 Label_0_B7D895
// 050   ----------------------------------------
 BYTE   PATT
  POIN2 Label_0_B7D8B3
// 051   ----------------------------------------
 BYTE   PATT
  POIN2 Label_0_B7D8D6
// 052   ----------------------------------------
 BYTE   PATT
  POIN2 Label_0_B7D8F4
// 053   ----------------------------------------
 BYTE   PATT
  POIN2 Label_0_B7D895
// 054   ----------------------------------------
 BYTE   PATT
  POIN2 Label_0_B7D91D
// 055   ----------------------------------------
 BYTE   PATT
  POIN2 Label_0_B7D941
// 056   ----------------------------------------
 BYTE   PATT
  POIN2 Label_0_B7D8F4
// 057   ----------------------------------------
 BYTE   PATT
  POIN2 Label_0_B7D895
// 058   ----------------------------------------
 BYTE   PATT
  POIN2 Label_0_B7D8B3
// 059   ----------------------------------------
 BYTE   PATT
  POIN2 Label_0_B7D8D6
// 060   ----------------------------------------
 BYTE   PATT
  POIN2 Label_0_B7D8F4
// 061   ----------------------------------------
 BYTE   PATT
  POIN2 Label_0_B7D895
// 062   ----------------------------------------
 BYTE   PATT
  POIN2 Label_0_B7D91D
// 063   ----------------------------------------
 BYTE   PATT
  POIN2 Label_0_B7D941
// 064   ----------------------------------------
 BYTE   GoTo
  POIN2 Label_0_B7D870
 BYTE   FINE

//**************** Track 2 (Midi-Chn.1) ****************//

ChineseTea_002:
// 000   ----------------------------------------
 BYTE   KEYSH   ChineseTea_key+0
 BYTE   VOICE   110
 BYTE   VOL   54*ChineseTea_mvl/mxv
 BYTE   PAN   c_v+8
 BYTE   N32  Fs3  v120
 BYTE   W36
 BYTE   N11  Fs4
 BYTE   W12
 BYTE   N17  En4
 BYTE   W18
 BYTE   An4  v100
 BYTE   W18
 BYTE   N11  Gs4  v120
 BYTE   W12
// 001   ----------------------------------------
Label_1_A5FE4D:
 BYTE   N09  En4  v120
 BYTE   W12
 BYTE   Cs4  v100
 BYTE   W12
 BYTE   N11  En4  v120
 BYTE   W12
 BYTE   N06  En4  v112
 BYTE   W06
 BYTE   N52  Fs4  v127
 BYTE   W54
 BYTE   PEND 
// 002   ----------------------------------------
 BYTE   N32  Fs3  v120
 BYTE   W36
 BYTE   N11  Fs4  v100
 BYTE   W12
 BYTE   N17  Fn4  v120
 BYTE   W18
 BYTE   Fs4  v100
 BYTE   W18
 BYTE   N15  Gs4  v112
 BYTE   W12
// 003   ----------------------------------------
 BYTE   N92  Cs4  v120
 BYTE   W96
// 004   ----------------------------------------
 BYTE   N32  Fs3
 BYTE   W36
 BYTE   N11  Fs4
 BYTE   W12
 BYTE   N17  En4
 BYTE   W18
 BYTE   Fs4  v100
 BYTE   W18
 BYTE   N11  Gs4  v120
 BYTE   W12
// 005   ----------------------------------------
 BYTE   N09  An4
 BYTE   W12
 BYTE   Cs4  v100
 BYTE   W12
 BYTE   N11  Gs4  v120
 BYTE   W12
 BYTE   N06  Gs4  v112
 BYTE   W06
 BYTE   N28  An4
 BYTE   W30
 BYTE   N23  Bn4
 BYTE   W24
// 006   ----------------------------------------
 BYTE   N11  Cs5  v120
 BYTE   W12
 BYTE   N09  Fs4  v112
 BYTE   W24
 BYTE   N06  Gs4  v120
 BYTE   W06
 BYTE   An4  v112
 BYTE   W06
 BYTE   N17  Gs4  v120
 BYTE   W18
 BYTE   En4  v100
 BYTE   W18
 BYTE   N11  Cs4  v112
 BYTE   W12
// 007   ----------------------------------------
 BYTE   PATT
  POIN2 Label_1_A5FE4D
// 008   ----------------------------------------
Label_1_A5FEBB:
 BYTE   N32  Fs3  v127
 BYTE   W36
 BYTE   N11  Fs4
 BYTE   W12
 BYTE   N17  En4
 BYTE   W18
 BYTE   An4  v120
 BYTE   W18
 BYTE   N11  Gs4  v127
 BYTE   W12
 BYTE   PEND 
// 009   ----------------------------------------
Label_1_A5FECD:
 BYTE   N09  En4  v127
 BYTE   W12
 BYTE   Cs4  v120
 BYTE   W12
 BYTE   N11  En4  v127
 BYTE   W12
 BYTE   N06
 BYTE   W06
 BYTE   N52  Fs4
 BYTE   W54
 BYTE   PEND 
// 010   ----------------------------------------
Label_1_A5FEDE:
 BYTE   N32  Fs3  v127
 BYTE   W36
 BYTE   N11  Fs4  v120
 BYTE   W12
 BYTE   N17  Fn4  v127
 BYTE   W18
 BYTE   Fs4  v120
 BYTE   W18
 BYTE   N15  Gs4  v127
 BYTE   W12
 BYTE   PEND 
// 011   ----------------------------------------
 BYTE   N92  Cs4
 BYTE   W96
// 012   ----------------------------------------
Label_1_A5FEF5:
 BYTE   N32  Fs3  v127
 BYTE   W36
 BYTE   N11  Fs4
 BYTE   W12
 BYTE   N17  En4
 BYTE   W18
 BYTE   Fs4  v120
 BYTE   W18
 BYTE   N11  Gs4  v127
 BYTE   W12
 BYTE   PEND 
// 013   ----------------------------------------
Label_1_A5FF07:
 BYTE   N09  An4  v127
 BYTE   W12
 BYTE   Cs4  v120
 BYTE   W12
 BYTE   N11  Gs4  v127
 BYTE   W12
 BYTE   N06
 BYTE   W06
 BYTE   N28  An4
 BYTE   W30
 BYTE   N23  Bn4
 BYTE   W24
 BYTE   PEND 
// 014   ----------------------------------------
Label_1_A5FF1B:
 BYTE   N11  Cs5  v127
 BYTE   W12
 BYTE   N09  Fs4
 BYTE   W24
 BYTE   N06  Gs4
 BYTE   W06
 BYTE   An4
 BYTE   W06
 BYTE   N17  Gs4
 BYTE   W18
 BYTE   En4  v120
 BYTE   W18
 BYTE   N11  Cs4  v127
 BYTE   W12
 BYTE   PEND 
// 015   ----------------------------------------
 BYTE   PATT
  POIN2 Label_1_A5FECD
// 016   ----------------------------------------
 BYTE   PATT
  POIN2 Label_1_A5FEBB
// 017   ----------------------------------------
 BYTE   PATT
  POIN2 Label_1_A5FECD
// 018   ----------------------------------------
 BYTE   PATT
  POIN2 Label_1_A5FEDE
// 019   ----------------------------------------
 BYTE   N92  Cs4  v127
 BYTE   W96
// 020   ----------------------------------------
 BYTE   PATT
  POIN2 Label_1_A5FEF5
// 021   ----------------------------------------
 BYTE   PATT
  POIN2 Label_1_A5FF07
// 022   ----------------------------------------
 BYTE   PATT
  POIN2 Label_1_A5FF1B
// 023   ----------------------------------------
 BYTE   PATT
  POIN2 Label_1_A5FECD
// 024   ----------------------------------------
 BYTE   W96
// 025   ----------------------------------------
 BYTE   W96
// 026   ----------------------------------------
 BYTE   W96
// 027   ----------------------------------------
 BYTE   W96
// 028   ----------------------------------------
 BYTE   W96
// 029   ----------------------------------------
 BYTE   W96
// 030   ----------------------------------------
 BYTE   W96
// 031   ----------------------------------------
 BYTE   W96
// 032   ----------------------------------------
 BYTE   W96
// 033   ----------------------------------------
 BYTE   W96
// 034   ----------------------------------------
 BYTE   W96
// 035   ----------------------------------------
 BYTE   W96
// 036   ----------------------------------------
 BYTE   W96
// 037   ----------------------------------------
 BYTE   W96
// 038   ----------------------------------------
 BYTE   W96
// 039   ----------------------------------------
 BYTE   W96
// 040   ----------------------------------------
 BYTE   N32  Fs2  v127
 BYTE   W36
 BYTE   N11  Fs3
 BYTE   W12
 BYTE   N17  En3
 BYTE   W18
 BYTE   An3  v120
 BYTE   W18
 BYTE   N11  Gs3  v127
 BYTE   W12
// 041   ----------------------------------------
Label_1_A5FF7F:
 BYTE   N09  En3  v127
 BYTE   W12
 BYTE   Cs3  v120
 BYTE   W12
 BYTE   N11  En3  v127
 BYTE   W12
 BYTE   N06
 BYTE   W06
 BYTE   N52  Fs3
 BYTE   W54
 BYTE   PEND 
// 042   ----------------------------------------
 BYTE   N32  Fs2
 BYTE   W36
 BYTE   N11  Fs3  v120
 BYTE   W12
 BYTE   N17  Fn3  v127
 BYTE   W18
 BYTE   Fs3  v120
 BYTE   W18
 BYTE   N15  Gs3  v127
 BYTE   W12
// 043   ----------------------------------------
 BYTE   N92  Cs3
 BYTE   W96
// 044   ----------------------------------------
 BYTE   N32  Fs2
 BYTE   W36
 BYTE   N11  Fs3
 BYTE   W12
 BYTE   N17  En3
 BYTE   W18
 BYTE   Fs3  v120
 BYTE   W18
 BYTE   N11  Gs3  v127
 BYTE   W12
// 045   ----------------------------------------
 BYTE   N09  An3
 BYTE   W12
 BYTE   Cs3  v120
 BYTE   W12
 BYTE   N11  Gs3  v127
 BYTE   W12
 BYTE   N06
 BYTE   W06
 BYTE   N28  An3
 BYTE   W30
 BYTE   N23  Bn3
 BYTE   W24
// 046   ----------------------------------------
 BYTE   N11  Cs4
 BYTE   W12
 BYTE   N09  Fs3
 BYTE   W24
 BYTE   N06  Gs3
 BYTE   W06
 BYTE   An3
 BYTE   W06
 BYTE   N17  Gs3
 BYTE   W18
 BYTE   En3  v120
 BYTE   W18
 BYTE   N11  Cs3  v127
 BYTE   W12
// 047   ----------------------------------------
 BYTE   PATT
  POIN2 Label_1_A5FF7F
// 048   ----------------------------------------
 BYTE   PATT
  POIN2 Label_1_A5FEBB
// 049   ----------------------------------------
 BYTE   PATT
  POIN2 Label_1_A5FECD
// 050   ----------------------------------------
 BYTE   PATT
  POIN2 Label_1_A5FEDE
// 051   ----------------------------------------
 BYTE   N92  Cs4  v127
 BYTE   W96
// 052   ----------------------------------------
 BYTE   PATT
  POIN2 Label_1_A5FEF5
// 053   ----------------------------------------
 BYTE   PATT
  POIN2 Label_1_A5FF07
// 054   ----------------------------------------
 BYTE   PATT
  POIN2 Label_1_A5FF1B
// 055   ----------------------------------------
 BYTE   PATT
  POIN2 Label_1_A5FECD
// 056   ----------------------------------------
 BYTE   PATT
  POIN2 Label_1_A5FEBB
// 057   ----------------------------------------
 BYTE   PATT
  POIN2 Label_1_A5FECD
// 058   ----------------------------------------
 BYTE   PATT
  POIN2 Label_1_A5FEDE
// 059   ----------------------------------------
 BYTE   N92  Cs4  v127
 BYTE   W96
// 060   ----------------------------------------
 BYTE   PATT
  POIN2 Label_1_A5FEF5
// 061   ----------------------------------------
 BYTE   PATT
  POIN2 Label_1_A5FF07
// 062   ----------------------------------------
 BYTE   PATT
  POIN2 Label_1_A5FF1B
// 063   ----------------------------------------
 BYTE   PATT
  POIN2 Label_1_A5FECD
// 064   ----------------------------------------
 BYTE   GoTo
  POIN2 Label_1_A5FEBB
 BYTE   FINE

//**************** Track 3 (Midi-Chn.2) ****************//

ChineseTea_003:
// 000   ----------------------------------------
 BYTE   KEYSH   ChineseTea_key+0
 BYTE   VOICE   110
 BYTE   VOL   34*ChineseTea_mvl/mxv
 BYTE   PAN   c_v-12
 BYTE   N32  Dn3  v120
 BYTE   W36
 BYTE   N11  An3
 BYTE   W12
 BYTE   N17  Gs2
 BYTE   W18
 BYTE   En3  v100
 BYTE   W18
 BYTE   N11  Bn2  v120
 BYTE   W12
// 001   ----------------------------------------
 BYTE   N09  Cs3
 BYTE   W12
 BYTE   Fs2  v100
 BYTE   W12
 BYTE   N11  An2  v120
 BYTE   W12
 BYTE   N06  Gs2  v112
 BYTE   W06
 BYTE   N52  An2  v127
 BYTE   W54
// 002   ----------------------------------------
 BYTE   N32  An2  v120
 BYTE   W36
 BYTE   N11  An3  v100
 BYTE   W12
 BYTE   N17  Fn3  v120
 BYTE   W18
 BYTE   Fs3  v100
 BYTE   W18
 BYTE   N15  Gs3  v112
 BYTE   W12
// 003   ----------------------------------------
 BYTE   N92  An3  v120
 BYTE   W96
// 004   ----------------------------------------
 BYTE   N32  An2
 BYTE   W36
 BYTE   N11  An3
 BYTE   W12
 BYTE   N17  Gs3
 BYTE   W18
 BYTE   An3  v100
 BYTE   W18
 BYTE   N11  Bn3  v120
 BYTE   W12
// 005   ----------------------------------------
 BYTE   N09  Cs4
 BYTE   W12
 BYTE   Fs3  v100
 BYTE   W12
 BYTE   N11  En3  v120
 BYTE   W12
 BYTE   N06  En3  v112
 BYTE   W06
 BYTE   N30  Fs3
 BYTE   W30
 BYTE   N23  Gs3
 BYTE   W24
// 006   ----------------------------------------
 BYTE   N11  An3  v120
 BYTE   W12
 BYTE   N09  Dn3  v112
 BYTE   W24
 BYTE   N06  En3  v120
 BYTE   W06
 BYTE   Fs3  v112
 BYTE   W06
 BYTE   N17  En3  v120
 BYTE   W18
 BYTE   Gs3  v100
 BYTE   W18
 BYTE   N11  An3  v112
 BYTE   W12
// 007   ----------------------------------------
 BYTE   N09  Bn3  v120
 BYTE   W12
 BYTE   En3  v100
 BYTE   W12
 BYTE   N11  Gs3  v120
 BYTE   W12
 BYTE   N06  Gs3  v112
 BYTE   W06
 BYTE   N54  An3  v127
 BYTE   W54
// 008   ----------------------------------------
Label_2_B4A93F:
 BYTE   N32  Dn3  v127
 BYTE   W36
 BYTE   N11  An3
 BYTE   W12
 BYTE   N17  Gs2
 BYTE   W18
 BYTE   En3  v120
 BYTE   W18
 BYTE   N11  Bn2  v127
 BYTE   W12
 BYTE   PEND 
// 009   ----------------------------------------
Label_2_B4A951:
 BYTE   N09  Cs3  v127
 BYTE   W12
 BYTE   Fs2  v120
 BYTE   W12
 BYTE   N11  An2  v127
 BYTE   W12
 BYTE   N06  Gs2
 BYTE   W06
 BYTE   N52  An2
 BYTE   W54
 BYTE   PEND 
// 010   ----------------------------------------
Label_2_B4A963:
 BYTE   N32  An2  v127
 BYTE   W36
 BYTE   N11  An3  v120
 BYTE   W12
 BYTE   N17  Fn3  v127
 BYTE   W18
 BYTE   Fs3  v120
 BYTE   W18
 BYTE   N15  Gs3  v127
 BYTE   W12
 BYTE   PEND 
// 011   ----------------------------------------
 BYTE   N92  An3
 BYTE   W96
// 012   ----------------------------------------
Label_2_B4A97A:
 BYTE   N32  An2  v127
 BYTE   W36
 BYTE   N11  An3
 BYTE   W12
 BYTE   N17  Gs3
 BYTE   W18
 BYTE   An3  v120
 BYTE   W18
 BYTE   N11  Bn3  v127
 BYTE   W12
 BYTE   PEND 
// 013   ----------------------------------------
Label_2_B4A98C:
 BYTE   N09  Cs4  v127
 BYTE   W12
 BYTE   Fs3  v120
 BYTE   W12
 BYTE   N11  En3  v127
 BYTE   W12
 BYTE   N06
 BYTE   W06
 BYTE   N30  Fs3
 BYTE   W30
 BYTE   N23  Gs3
 BYTE   W24
 BYTE   PEND 
// 014   ----------------------------------------
Label_2_B4A9A0:
 BYTE   N11  An3  v127
 BYTE   W12
 BYTE   N09  Dn3
 BYTE   W24
 BYTE   N06  En3
 BYTE   W06
 BYTE   Fs3
 BYTE   W06
 BYTE   N17  En3
 BYTE   W18
 BYTE   Gs3  v120
 BYTE   W18
 BYTE   N11  An3  v127
 BYTE   W12
 BYTE   PEND 
// 015   ----------------------------------------
Label_2_B4A9B7:
 BYTE   N09  Bn3  v127
 BYTE   W12
 BYTE   En3  v120
 BYTE   W12
 BYTE   N11  Gs3  v127
 BYTE   W12
 BYTE   N06
 BYTE   W06
 BYTE   N54  An3
 BYTE   W54
 BYTE   PEND 
// 016   ----------------------------------------
 BYTE   PATT
  POIN2 Label_2_B4A93F
// 017   ----------------------------------------
 BYTE   PATT
  POIN2 Label_2_B4A951
// 018   ----------------------------------------
 BYTE   PATT
  POIN2 Label_2_B4A963
// 019   ----------------------------------------
 BYTE   N92  An3  v127
 BYTE   W96
// 020   ----------------------------------------
 BYTE   PATT
  POIN2 Label_2_B4A97A
// 021   ----------------------------------------
 BYTE   PATT
  POIN2 Label_2_B4A98C
// 022   ----------------------------------------
 BYTE   PATT
  POIN2 Label_2_B4A9A0
// 023   ----------------------------------------
 BYTE   PATT
  POIN2 Label_2_B4A9B7
// 024   ----------------------------------------
 BYTE   W96
// 025   ----------------------------------------
 BYTE   W96
// 026   ----------------------------------------
 BYTE   W96
// 027   ----------------------------------------
 BYTE   W96
// 028   ----------------------------------------
 BYTE   W96
// 029   ----------------------------------------
 BYTE   W96
// 030   ----------------------------------------
 BYTE   W96
// 031   ----------------------------------------
 BYTE   W96
// 032   ----------------------------------------
 BYTE   W96
// 033   ----------------------------------------
 BYTE   W96
// 034   ----------------------------------------
 BYTE   W96
// 035   ----------------------------------------
 BYTE   W96
// 036   ----------------------------------------
 BYTE   W96
// 037   ----------------------------------------
 BYTE   W96
// 038   ----------------------------------------
 BYTE   W96
// 039   ----------------------------------------
 BYTE   W96
// 040   ----------------------------------------
 BYTE   W96
// 041   ----------------------------------------
 BYTE   W96
// 042   ----------------------------------------
 BYTE   W96
// 043   ----------------------------------------
 BYTE   W96
// 044   ----------------------------------------
 BYTE   W96
// 045   ----------------------------------------
 BYTE   W96
// 046   ----------------------------------------
 BYTE   W96
// 047   ----------------------------------------
 BYTE   W96
// 048   ----------------------------------------
Label_2_B4AA07:
 BYTE   N32  Dn4  v127
 BYTE   W36
 BYTE   N11  An4
 BYTE   W12
 BYTE   N17  Gs3
 BYTE   W18
 BYTE   En4  v120
 BYTE   W18
 BYTE   N11  Bn3  v127
 BYTE   W12
 BYTE   PEND 
// 049   ----------------------------------------
Label_2_B4AA19:
 BYTE   N09  Cs4  v127
 BYTE   W12
 BYTE   Fs3  v120
 BYTE   W12
 BYTE   N11  An3  v127
 BYTE   W12
 BYTE   N06  Gs3
 BYTE   W06
 BYTE   N52  An3
 BYTE   W54
 BYTE   PEND 
// 050   ----------------------------------------
Label_2_B4AA2B:
 BYTE   N32  An3  v127
 BYTE   W36
 BYTE   N11  An4  v120
 BYTE   W12
 BYTE   N17  Bn3  v127
 BYTE   W18
 BYTE   Cs4  v120
 BYTE   W18
 BYTE   N15  Fn4  v127
 BYTE   W12
 BYTE   PEND 
// 051   ----------------------------------------
 BYTE   N92  An4
 BYTE   W96
// 052   ----------------------------------------
Label_2_B4AA42:
 BYTE   N32  An3  v127
 BYTE   W36
 BYTE   N11  An4
 BYTE   W12
 BYTE   N17  Gs4
 BYTE   W18
 BYTE   An4  v120
 BYTE   W18
 BYTE   N11  Bn4  v127
 BYTE   W12
 BYTE   PEND 
// 053   ----------------------------------------
Label_2_B4AA54:
 BYTE   N09  Cs5  v127
 BYTE   W12
 BYTE   Fs4  v120
 BYTE   W12
 BYTE   N11  En4  v127
 BYTE   W12
 BYTE   N06
 BYTE   W06
 BYTE   N30  Fs4
 BYTE   W30
 BYTE   N23  Gs4
 BYTE   W24
 BYTE   PEND 
// 054   ----------------------------------------
Label_2_B4AA68:
 BYTE   N11  An4  v127
 BYTE   W12
 BYTE   N09  Dn4
 BYTE   W24
 BYTE   N06  En4
 BYTE   W06
 BYTE   Fs4
 BYTE   W06
 BYTE   N17  En4
 BYTE   W18
 BYTE   Gs4  v120
 BYTE   W18
 BYTE   N11  An4  v127
 BYTE   W12
 BYTE   PEND 
// 055   ----------------------------------------
Label_2_B4AA7F:
 BYTE   N09  Bn4  v127
 BYTE   W12
 BYTE   En4  v120
 BYTE   W12
 BYTE   N11  Gs4  v127
 BYTE   W12
 BYTE   N06
 BYTE   W06
 BYTE   N54  An4
 BYTE   W54
 BYTE   PEND 
// 056   ----------------------------------------
 BYTE   PATT
  POIN2 Label_2_B4AA07
// 057   ----------------------------------------
 BYTE   PATT
  POIN2 Label_2_B4AA19
// 058   ----------------------------------------
 BYTE   PATT
  POIN2 Label_2_B4AA2B
// 059   ----------------------------------------
 BYTE   N92  An4  v127
 BYTE   W96
// 060   ----------------------------------------
 BYTE   PATT
  POIN2 Label_2_B4AA42
// 061   ----------------------------------------
 BYTE   PATT
  POIN2 Label_2_B4AA54
// 062   ----------------------------------------
 BYTE   PATT
  POIN2 Label_2_B4AA68
// 063   ----------------------------------------
 BYTE   PATT
  POIN2 Label_2_B4AA7F
// 064   ----------------------------------------
 BYTE   GoTo
  POIN2 Label_2_B4A93F
 BYTE   FINE

//**************** Track 4 (Midi-Chn.3) ****************//

ChineseTea_004:
// 000   ----------------------------------------
 BYTE   KEYSH   ChineseTea_key+0
 BYTE   VOICE   1
 BYTE   VOL   13*ChineseTea_mvl/mxv
 BYTE   PAN   c_v-34
 BYTE   N17  Dn2  v060
 BYTE   W18
 BYTE   N28  An2
 BYTE   W30
 BYTE   N17  Gs2
 BYTE   W18
 BYTE   Bn2
 BYTE   W18
 BYTE   N11  En3
 BYTE   W12
// 001   ----------------------------------------
 BYTE   N08  Fs3
 BYTE   W09
 BYTE   Bn3
 BYTE   W09
 BYTE   N06  An2
 BYTE   W06
 BYTE   N08  En3
 BYTE   W09
 BYTE   Bn2
 BYTE   W09
 BYTE   N06  Gs2
 BYTE   W06
 BYTE   N44  An2
 BYTE   W48
// 002   ----------------------------------------
 BYTE   N17  Fs2
 BYTE   W18
 BYTE   N18  Dn3
 BYTE   W18
 BYTE   N11  An2
 BYTE   W12
 BYTE   N17  Fn3
 BYTE   W18
 BYTE   Bn2
 BYTE   W18
 BYTE   N11  Gs3
 BYTE   W12
// 003   ----------------------------------------
 BYTE   N44  An2
 BYTE   W48
 BYTE   N08  Cs3
 BYTE   W09
 BYTE   An3
 BYTE   W09
 BYTE   N06  Gs3
 BYTE   W06
 BYTE   N08  Bn2
 BYTE   W09
 BYTE   Gs3
 BYTE   W09
 BYTE   N06  Fs3
 BYTE   W06
// 004   ----------------------------------------
 BYTE   N06
 BYTE   W06
 BYTE   Dn3
 BYTE   W06
 BYTE   An2
 BYTE   W06
 BYTE   Dn3
 BYTE   W06
 BYTE   An3
 BYTE   W06
 BYTE   Fs3
 BYTE   W06
 BYTE   Dn3
 BYTE   W06
 BYTE   An2
 BYTE   W06
 BYTE   Bn2
 BYTE   W06
 BYTE   En3
 BYTE   W06
 BYTE   Gs3
 BYTE   W06
 BYTE   Bn3
 BYTE   W06
 BYTE   Gs3
 BYTE   W06
 BYTE   Bn3
 BYTE   W06
 BYTE   En4
 BYTE   W06
 BYTE   Bn3
 BYTE   W06
// 005   ----------------------------------------
 BYTE   Cs4
 BYTE   W06
 BYTE   An3
 BYTE   W06
 BYTE   Fs3
 BYTE   W06
 BYTE   Bn3
 BYTE   W06
 BYTE   Gs3
 BYTE   W06
 BYTE   En3
 BYTE   W06
 BYTE   An3
 BYTE   W06
 BYTE   Fs3
 BYTE   W06
 BYTE   Cs3
 BYTE   W06
 BYTE   Gs3
 BYTE   W06
 BYTE   En3
 BYTE   W06
 BYTE   Bn2
 BYTE   W06
 BYTE   Fs3
 BYTE   W06
 BYTE   An2
 BYTE   W06
 BYTE   An3
 BYTE   W06
 BYTE   En3
 BYTE   W06
// 006   ----------------------------------------
 BYTE   An3
 BYTE   W06
 BYTE   Fs3
 BYTE   W06
 BYTE   Dn3
 BYTE   W06
 BYTE   An3
 BYTE   W06
 BYTE   Fs3
 BYTE   W06
 BYTE   Dn3
 BYTE   W06
 BYTE   Dn4
 BYTE   W06
 BYTE   An3
 BYTE   W06
 BYTE   Gs3
 BYTE   W06
 BYTE   En3
 BYTE   W06
 BYTE   Bn2
 BYTE   W06
 BYTE   Gs3
 BYTE   W06
 BYTE   En3
 BYTE   W06
 BYTE   Bn2
 BYTE   W06
 BYTE   Bn3
 BYTE   W06
 BYTE   Gs3
 BYTE   W06
// 007   ----------------------------------------
 BYTE   An3
 BYTE   W06
 BYTE   Cs4
 BYTE   W06
 BYTE   Fs4
 BYTE   W06
 BYTE   Bn3
 BYTE   W06
 BYTE   En4
 BYTE   W06
 BYTE   Gs4
 BYTE   W06
 BYTE   Cs4
 BYTE   W06
 BYTE   Fs4
 BYTE   W06
 BYTE   An4
 BYTE   W06
 BYTE   Gs4
 BYTE   W06
 BYTE   En4
 BYTE   W06
 BYTE   Bn3
 BYTE   W06
 BYTE   Fs4
 BYTE   W06
 BYTE   Cs4
 BYTE   W06
 BYTE   An3
 BYTE   W06
 BYTE   Gs3
 BYTE   W06
// 008   ----------------------------------------
Label_3_B7E3D2:
 BYTE   PAN   c_v-34
 BYTE   N06  Fs3  v100
 BYTE   W06
 BYTE   Dn3
 BYTE   W06
 BYTE   An2
 BYTE   W06
 BYTE   Dn3
 BYTE   W06
 BYTE   An3
 BYTE   W06
 BYTE   Fs3
 BYTE   W06
 BYTE   Dn3
 BYTE   W06
 BYTE   An2
 BYTE   W06
 BYTE   Bn2
 BYTE   W06
 BYTE   En3
 BYTE   W06
 BYTE   Gs3
 BYTE   W06
 BYTE   Bn3
 BYTE   W06
 BYTE   Gs3
 BYTE   W06
 BYTE   Bn3
 BYTE   W06
 BYTE   En4
 BYTE   W06
 BYTE   Bn3
 BYTE   W06
 BYTE   PEND 
// 009   ----------------------------------------
Label_3_B7E3F7:
 BYTE   N06  Cs4  v100
 BYTE   W06
 BYTE   An3
 BYTE   W06
 BYTE   Fs3
 BYTE   W06
 BYTE   Bn3
 BYTE   W06
 BYTE   Gs3
 BYTE   W06
 BYTE   En3
 BYTE   W06
 BYTE   An3
 BYTE   W06
 BYTE   Fs3
 BYTE   W06
 BYTE   Cs3
 BYTE   W06
 BYTE   Gs3
 BYTE   W06
 BYTE   En3
 BYTE   W06
 BYTE   Bn2
 BYTE   W06
 BYTE   Fs3
 BYTE   W06
 BYTE   An2
 BYTE   W06
 BYTE   An3
 BYTE   W06
 BYTE   En3
 BYTE   W06
 BYTE   PEND 
// 010   ----------------------------------------
Label_3_B7E41A:
 BYTE   N06  An3  v100
 BYTE   W06
 BYTE   Fs3
 BYTE   W06
 BYTE   Dn3
 BYTE   W06
 BYTE   An3
 BYTE   W06
 BYTE   Fs3
 BYTE   W06
 BYTE   Dn3
 BYTE   W06
 BYTE   Dn4
 BYTE   W06
 BYTE   An3
 BYTE   W06
 BYTE   Gs3
 BYTE   W06
 BYTE   En3
 BYTE   W06
 BYTE   Bn2
 BYTE   W06
 BYTE   Gs3
 BYTE   W06
 BYTE   En3
 BYTE   W06
 BYTE   Bn2
 BYTE   W06
 BYTE   Bn3
 BYTE   W06
 BYTE   Gs3
 BYTE   W06
 BYTE   PEND 
// 011   ----------------------------------------
Label_3_B7E43D:
 BYTE   N06  An3  v100
 BYTE   W06
 BYTE   Cs4
 BYTE   W06
 BYTE   Fs4
 BYTE   W06
 BYTE   Bn3
 BYTE   W06
 BYTE   En4
 BYTE   W06
 BYTE   Gs4
 BYTE   W06
 BYTE   Cs4
 BYTE   W06
 BYTE   Fs4
 BYTE   W06
 BYTE   An4
 BYTE   W06
 BYTE   Gs4
 BYTE   W06
 BYTE   En4
 BYTE   W06
 BYTE   Bn3
 BYTE   W06
 BYTE   Fs4
 BYTE   W06
 BYTE   Cs4
 BYTE   W06
 BYTE   An3
 BYTE   W06
 BYTE   Gs3
 BYTE   W06
 BYTE   PEND 
// 012   ----------------------------------------
Label_3_B7E460:
 BYTE   N06  Fs3  v100
 BYTE   W06
 BYTE   Dn3
 BYTE   W06
 BYTE   An2
 BYTE   W06
 BYTE   Dn3
 BYTE   W06
 BYTE   An3
 BYTE   W06
 BYTE   Fs3
 BYTE   W06
 BYTE   Dn3
 BYTE   W06
 BYTE   An2
 BYTE   W06
 BYTE   Bn2
 BYTE   W06
 BYTE   En3
 BYTE   W06
 BYTE   Gs3
 BYTE   W06
 BYTE   Bn3
 BYTE   W06
 BYTE   Gs3
 BYTE   W06
 BYTE   Bn3
 BYTE   W06
 BYTE   En4
 BYTE   W06
 BYTE   Bn3
 BYTE   W06
 BYTE   PEND 
// 013   ----------------------------------------
 BYTE   PATT
  POIN2 Label_3_B7E3F7
// 014   ----------------------------------------
 BYTE   PATT
  POIN2 Label_3_B7E41A
// 015   ----------------------------------------
 BYTE   PATT
  POIN2 Label_3_B7E43D
// 016   ----------------------------------------
 BYTE   PATT
  POIN2 Label_3_B7E460
// 017   ----------------------------------------
 BYTE   PATT
  POIN2 Label_3_B7E3F7
// 018   ----------------------------------------
 BYTE   PATT
  POIN2 Label_3_B7E41A
// 019   ----------------------------------------
 BYTE   PATT
  POIN2 Label_3_B7E43D
// 020   ----------------------------------------
 BYTE   PATT
  POIN2 Label_3_B7E460
// 021   ----------------------------------------
 BYTE   PATT
  POIN2 Label_3_B7E3F7
// 022   ----------------------------------------
 BYTE   PATT
  POIN2 Label_3_B7E41A
// 023   ----------------------------------------
 BYTE   N06  An3  v100
 BYTE   W06
 BYTE   Cs4
 BYTE   W06
 BYTE   Fs4
 BYTE   W06
 BYTE   Bn3
 BYTE   W06
 BYTE   En4
 BYTE   W06
 BYTE   Gs4
 BYTE   W06
 BYTE   Cs4
 BYTE   W06
 BYTE   Fs4
 BYTE   W06
 BYTE   PAN   c_v+6
 BYTE   N23  An3  v120
 BYTE   N23  Fs4
 BYTE   W24
 BYTE   Bn3
 BYTE   N23  Gs4
 BYTE   W24
// 024   ----------------------------------------
Label_3_B7E4D3:
 BYTE   N68  Cs4  v120
 BYTE   N68  An4
 BYTE   W72
 BYTE   N23
 BYTE   N23  Cs5
 BYTE   W24
 BYTE   PEND 
// 025   ----------------------------------------
Label_3_B7E4DE:
 BYTE   N44  Cs4  v120
 BYTE   N44  Gs4
 BYTE   W48
 BYTE   N44
 BYTE   N44  Cs5
 BYTE   W48
 BYTE   PEND 
// 026   ----------------------------------------
Label_3_B7E4E9:
 BYTE   TIE  Ds4  v120
 BYTE   TIE  Fs4
 BYTE   W96
 BYTE   PEND 
// 027   ----------------------------------------
 BYTE   W64
 BYTE   W01
 BYTE   EOT
 BYTE   Ds4
 BYTE   W04
 BYTE   N11
 BYTE   W02
 BYTE   EOT
 BYTE   Fs4
 BYTE   W01
 BYTE   N11
 BYTE   W12
 BYTE   Ds4
 BYTE   N11  Gs4
 BYTE   W12
// 028   ----------------------------------------
 BYTE   N32  Cs4
 BYTE   N32  An4
 BYTE   W36
 BYTE   N23  An3
 BYTE   N23  Cs4
 BYTE   W24
 BYTE   N11  Bn3
 BYTE   N11  Gs4
 BYTE   W12
 BYTE   Cs4
 BYTE   N11  An4
 BYTE   W12
 BYTE   N44  Bn3
 BYTE   N44  Gs4
 BYTE   W12
// 029   ----------------------------------------
 BYTE   W36
 BYTE   N32
 BYTE   N32  Bn4
 BYTE   W36
 BYTE   N23  An4
 BYTE   N23  Cs5
 BYTE   W24
// 030   ----------------------------------------
 BYTE   TIE  Cs4
 BYTE   TIE  An4
 BYTE   W96
// 031   ----------------------------------------
 BYTE   W44
 BYTE   W02
 BYTE   EOT
 BYTE   Cs4  v081
 BYTE   W02
 BYTE   N23  An3
 BYTE   N23  Fs4
 BYTE   W24
 BYTE   Bn3
 BYTE   N23  Gs4
 BYTE   W24
// 032   ----------------------------------------
 BYTE   PATT
  POIN2 Label_3_B7E4D3
// 033   ----------------------------------------
 BYTE   PATT
  POIN2 Label_3_B7E4DE
// 034   ----------------------------------------
 BYTE   PATT
  POIN2 Label_3_B7E4E9
// 035   ----------------------------------------
 BYTE   W64
 BYTE   W01
 BYTE   EOT
 BYTE   Ds4
 BYTE   W04
 BYTE   N11  Ds4  v120
 BYTE   W02
 BYTE   EOT
 BYTE   Fs4
 BYTE   W01
 BYTE   N11
 BYTE   W12
 BYTE   Ds4
 BYTE   N11  Gs4
 BYTE   W12
// 036   ----------------------------------------
 BYTE   N32  Cs4
 BYTE   N32  An4
 BYTE   W36
 BYTE   N23  An3
 BYTE   N23  Cs4
 BYTE   W24
 BYTE   N11  Bn3
 BYTE   N11  Gs4
 BYTE   W12
 BYTE   Cs4
 BYTE   N11  An4
 BYTE   W12
 BYTE   N28  Bn3
 BYTE   N28  Gs4
 BYTE   W12
// 037   ----------------------------------------
 BYTE   W18
 BYTE   N17  Gs3
 BYTE   N17  Bn3
 BYTE   W18
 BYTE   N23  Gs4
 BYTE   W12
 BYTE   An4
 BYTE   W12
 BYTE   N06  Bn4
 BYTE   W06
 BYTE   En5
 BYTE   W06
 BYTE   Bn4
 BYTE   W06
 BYTE   Gs4
 BYTE   W06
 BYTE   TIE  An4
 BYTE   W06
 BYTE   Fs4
 BYTE   W06
// 038   ----------------------------------------
 BYTE   W92
 BYTE   W03
 BYTE   EOT
 BYTE   EOT
 BYTE   An4
 BYTE   W01
// 039   ----------------------------------------
 BYTE   N92
 BYTE   N92  Fs5
 BYTE   W96
// 040   ----------------------------------------
 BYTE   W96
// 041   ----------------------------------------
 BYTE   W96
// 042   ----------------------------------------
 BYTE   W96
// 043   ----------------------------------------
 BYTE   W96
// 044   ----------------------------------------
 BYTE   W96
// 045   ----------------------------------------
 BYTE   W96
// 046   ----------------------------------------
 BYTE   W96
// 047   ----------------------------------------
 BYTE   W96
// 048   ----------------------------------------
 BYTE   PATT
  POIN2 Label_3_B7E3D2
// 049   ----------------------------------------
 BYTE   PATT
  POIN2 Label_3_B7E3F7
// 050   ----------------------------------------
 BYTE   PATT
  POIN2 Label_3_B7E41A
// 051   ----------------------------------------
 BYTE   PATT
  POIN2 Label_3_B7E43D
// 052   ----------------------------------------
 BYTE   PATT
  POIN2 Label_3_B7E460
// 053   ----------------------------------------
 BYTE   PATT
  POIN2 Label_3_B7E3F7
// 054   ----------------------------------------
 BYTE   PATT
  POIN2 Label_3_B7E41A
// 055   ----------------------------------------
 BYTE   PATT
  POIN2 Label_3_B7E43D
// 056   ----------------------------------------
 BYTE   PATT
  POIN2 Label_3_B7E460
// 057   ----------------------------------------
 BYTE   PATT
  POIN2 Label_3_B7E3F7
// 058   ----------------------------------------
 BYTE   PATT
  POIN2 Label_3_B7E41A
// 059   ----------------------------------------
 BYTE   PATT
  POIN2 Label_3_B7E43D
// 060   ----------------------------------------
 BYTE   PATT
  POIN2 Label_3_B7E460
// 061   ----------------------------------------
 BYTE   PATT
  POIN2 Label_3_B7E3F7
// 062   ----------------------------------------
 BYTE   PATT
  POIN2 Label_3_B7E41A
// 063   ----------------------------------------
 BYTE   N06  An3  v100
 BYTE   W06
 BYTE   Cs4
 BYTE   W06
 BYTE   Fs4
 BYTE   W06
 BYTE   Bn3
 BYTE   W06
 BYTE   En4
 BYTE   W06
 BYTE   Gs4
 BYTE   W06
 BYTE   Cs4
 BYTE   W06
 BYTE   Fs4
 BYTE   W06
 BYTE   An3
 BYTE   W06
 BYTE   Cs4
 BYTE   W06
 BYTE   Fs4
 BYTE   W06
 BYTE   Bn3
 BYTE   W06
 BYTE   En4
 BYTE   W06
 BYTE   Gs4
 BYTE   W06
 BYTE   Cs4
 BYTE   W06
 BYTE   Fs4
 BYTE   W06
// 064   ----------------------------------------
 BYTE   GoTo
  POIN2 Label_3_B7E3D2
 BYTE   FINE

//**************** Track 5 (Midi-Chn.4) ****************//

ChineseTea_005:
// 000   ----------------------------------------
 BYTE   KEYSH   ChineseTea_key+0
 BYTE   VOICE   75
 BYTE   VOL   26*ChineseTea_mvl/mxv
 BYTE   PAN   c_v+0
 BYTE   W96
// 001   ----------------------------------------
 BYTE   W96
// 002   ----------------------------------------
 BYTE   W96
// 003   ----------------------------------------
 BYTE   W96
// 004   ----------------------------------------
 BYTE   W96
// 005   ----------------------------------------
 BYTE   W96
// 006   ----------------------------------------
 BYTE   W96
// 007   ----------------------------------------
 BYTE   W96
// 008   ----------------------------------------
Label_4_B4AAD0:
 BYTE   W96
// 009   ----------------------------------------
 BYTE   W96
// 010   ----------------------------------------
 BYTE   W96
// 011   ----------------------------------------
 BYTE   W96
// 012   ----------------------------------------
 BYTE   W96
// 013   ----------------------------------------
 BYTE   W96
// 014   ----------------------------------------
 BYTE   W96
// 015   ----------------------------------------
 BYTE   W96
// 016   ----------------------------------------
 BYTE   W96
// 017   ----------------------------------------
 BYTE   W96
// 018   ----------------------------------------
 BYTE   W96
// 019   ----------------------------------------
 BYTE   W96
// 020   ----------------------------------------
 BYTE   W96
// 021   ----------------------------------------
 BYTE   W96
// 022   ----------------------------------------
 BYTE   W96
// 023   ----------------------------------------
 BYTE   W96
// 024   ----------------------------------------
 BYTE   W96
// 025   ----------------------------------------
 BYTE   W96
// 026   ----------------------------------------
 BYTE   W96
// 027   ----------------------------------------
 BYTE   W96
// 028   ----------------------------------------
 BYTE   W96
// 029   ----------------------------------------
 BYTE   W96
// 030   ----------------------------------------
 BYTE   W96
// 031   ----------------------------------------
 BYTE   W96
// 032   ----------------------------------------
 BYTE   W96
// 033   ----------------------------------------
 BYTE   W96
// 034   ----------------------------------------
 BYTE   W96
// 035   ----------------------------------------
 BYTE   W96
// 036   ----------------------------------------
 BYTE   W96
// 037   ----------------------------------------
 BYTE   W96
// 038   ----------------------------------------
 BYTE   W96
// 039   ----------------------------------------
 BYTE   W72
 BYTE   N23  Gs5  v120
 BYTE   W24
// 040   ----------------------------------------
 BYTE   An5
 BYTE   W24
 BYTE   N12  Cs5
 BYTE   W12
 BYTE   An5
 BYTE   W12
 BYTE   Gs5
 BYTE   W12
 BYTE   Fs5
 BYTE   W12
 BYTE   En5
 BYTE   W12
 BYTE   Dn5
 BYTE   W12
// 041   ----------------------------------------
Label_4_B4AB03:
 BYTE   N09  Cs5  v120
 BYTE   W12
 BYTE   En5
 BYTE   W12
 BYTE   Bn4
 BYTE   W12
 BYTE   Cs5
 BYTE   W12
 BYTE   N32  An4
 BYTE   W36
 BYTE   N11
 BYTE   W12
 BYTE   PEND 
// 042   ----------------------------------------
 BYTE   Bn4
 BYTE   W12
 BYTE   Cs5
 BYTE   W12
 BYTE   En5
 BYTE   W12
 BYTE   Cs5
 BYTE   W12
 BYTE   Bn4
 BYTE   W12
 BYTE   N08  Cs5
 BYTE   W09
 BYTE   N02  An4
 BYTE   W03
 BYTE   N11  Bn4
 BYTE   W12
 BYTE   An4
 BYTE   W12
// 043   ----------------------------------------
 BYTE   Fs4
 BYTE   W12
 BYTE   An4
 BYTE   W12
 BYTE   N02  Fs4  v060
 BYTE   W03
 BYTE   En4
 BYTE   W03
 BYTE   Fs4  v072
 BYTE   W03
 BYTE   En4  v080
 BYTE   W03
 BYTE   Fs4  v092
 BYTE   W03
 BYTE   En4  v100
 BYTE   W03
 BYTE   Fs4  v112
 BYTE   W03
 BYTE   En4  v120
 BYTE   W03
 BYTE   N32  Fs4
 BYTE   W36
 BYTE   An5
 BYTE   W12
// 044   ----------------------------------------
 BYTE   W24
 BYTE   N12  Cs5
 BYTE   W12
 BYTE   An5
 BYTE   W12
 BYTE   Gs5
 BYTE   W12
 BYTE   Fs5
 BYTE   W12
 BYTE   En5
 BYTE   W12
 BYTE   Dn5
 BYTE   W12
// 045   ----------------------------------------
 BYTE   PATT
  POIN2 Label_4_B4AB03
// 046   ----------------------------------------
 BYTE   N11  Bn4  v120
 BYTE   W12
 BYTE   Cs5
 BYTE   W12
 BYTE   En5
 BYTE   W12
 BYTE   Cs5
 BYTE   W12
 BYTE   Bn4
 BYTE   W12
 BYTE   N08  Cs5
 BYTE   W09
 BYTE   N02
 BYTE   W03
 BYTE   N11  En5
 BYTE   W12
 BYTE   Fs5
 BYTE   W12
// 047   ----------------------------------------
 BYTE   An5
 BYTE   W12
 BYTE   Fs5
 BYTE   W12
 BYTE   N02  En5  v060
 BYTE   W03
 BYTE   Fs5
 BYTE   W03
 BYTE   En5  v072
 BYTE   W03
 BYTE   Fs5  v080
 BYTE   W03
 BYTE   En5  v092
 BYTE   W03
 BYTE   Fs5  v100
 BYTE   W03
 BYTE   En5  v112
 BYTE   W03
 BYTE   Fs5  v120
 BYTE   W03
 BYTE   N44
 BYTE   W48
// 048   ----------------------------------------
 BYTE   W96
// 049   ----------------------------------------
 BYTE   W96
// 050   ----------------------------------------
 BYTE   W96
// 051   ----------------------------------------
 BYTE   W96
// 052   ----------------------------------------
 BYTE   W96
// 053   ----------------------------------------
 BYTE   W96
// 054   ----------------------------------------
 BYTE   W96
// 055   ----------------------------------------
 BYTE   W96
// 056   ----------------------------------------
 BYTE   W96
// 057   ----------------------------------------
 BYTE   W96
// 058   ----------------------------------------
 BYTE   W96
// 059   ----------------------------------------
 BYTE   W96
// 060   ----------------------------------------
 BYTE   W96
// 061   ----------------------------------------
 BYTE   W96
// 062   ----------------------------------------
 BYTE   W96
// 063   ----------------------------------------
 BYTE   W96
// 064   ----------------------------------------
 BYTE   GoTo
  POIN2 Label_4_B4AAD0
 BYTE   FINE

//**************** Track 6 (Midi-Chn.5) ****************//

ChineseTea_006:
// 000   ----------------------------------------
 BYTE   KEYSH   ChineseTea_key+0
 BYTE   VOICE   48
 BYTE   VOL   29*ChineseTea_mvl/mxv
 BYTE   PAN   c_v+26
 BYTE   TIE  Fs2  v072
 BYTE   W96
// 001   ----------------------------------------
 BYTE   W92
 BYTE   W03
 BYTE   EOT
 BYTE   W01
// 002   ----------------------------------------
 BYTE   N44  Dn2
 BYTE   W48
 BYTE   Fn2
 BYTE   W48
// 003   ----------------------------------------
 BYTE   N92  Cs2
 BYTE   W96
// 004   ----------------------------------------
 BYTE   N44  Dn2
 BYTE   W48
 BYTE   Gs2
 BYTE   W48
// 005   ----------------------------------------
 BYTE   An2
 BYTE   W48
 BYTE   Cs3
 BYTE   W48
// 006   ----------------------------------------
 BYTE   An2
 BYTE   N44  Fs3
 BYTE   W48
 BYTE   Bn2
 BYTE   N44  Gs3
 BYTE   W48
// 007   ----------------------------------------
 BYTE   Cs3
 BYTE   N92  An3
 BYTE   W40
 BYTE   Dn3
 BYTE   W06
 BYTE   Cs3
 BYTE   W48
 BYTE   W02
// 008   ----------------------------------------
Label_5_B3F312:
 BYTE   N44  Dn2  v112
 BYTE   N44  An2
 BYTE   W48
 BYTE   En2
 BYTE   N44  Bn2
 BYTE   W48
 BYTE   PEND 
// 009   ----------------------------------------
 BYTE   N92  Fs2
 BYTE   N92  Cs3
 BYTE   W96
// 010   ----------------------------------------
Label_5_B3F322:
 BYTE   N44  Dn2  v112
 BYTE   N44  An2
 BYTE   W48
 BYTE   Fn2
 BYTE   N44  Bn2
 BYTE   W48
 BYTE   PEND 
// 011   ----------------------------------------
 BYTE   N92  Fs2
 BYTE   N92  An2
 BYTE   W96
// 012   ----------------------------------------
 BYTE   PATT
  POIN2 Label_5_B3F312
// 013   ----------------------------------------
 BYTE   N92  Fs2  v112
 BYTE   N92  Cs3
 BYTE   W96
// 014   ----------------------------------------
 BYTE   PATT
  POIN2 Label_5_B3F312
// 015   ----------------------------------------
 BYTE   N92  An2  v112
 BYTE   N92  Fs3
 BYTE   W96
// 016   ----------------------------------------
 BYTE   PATT
  POIN2 Label_5_B3F312
// 017   ----------------------------------------
 BYTE   N92  Fs2  v112
 BYTE   N92  Cs3
 BYTE   W96
// 018   ----------------------------------------
 BYTE   PATT
  POIN2 Label_5_B3F322
// 019   ----------------------------------------
 BYTE   N92  Fs2  v112
 BYTE   N92  An2
 BYTE   W96
// 020   ----------------------------------------
 BYTE   PATT
  POIN2 Label_5_B3F312
// 021   ----------------------------------------
 BYTE   N92  Fs2  v112
 BYTE   N92  Cs3
 BYTE   W96
// 022   ----------------------------------------
 BYTE   PATT
  POIN2 Label_5_B3F312
// 023   ----------------------------------------
 BYTE   N92  An2  v112
 BYTE   N92  Fs3
 BYTE   W96
// 024   ----------------------------------------
 BYTE   N96  Fs2  v080
 BYTE   W96
// 025   ----------------------------------------
 BYTE   En2
 BYTE   W96
// 026   ----------------------------------------
 BYTE   TIE  Ds2
 BYTE   W96
// 027   ----------------------------------------
 BYTE   W96
// 028   ----------------------------------------
 BYTE   EOT
 BYTE   N96  Dn2
 BYTE   W96
// 029   ----------------------------------------
 BYTE   En2
 BYTE   W96
// 030   ----------------------------------------
 BYTE   TIE  Cs2
 BYTE   W96
// 031   ----------------------------------------
 BYTE   W96
// 032   ----------------------------------------
 BYTE   EOT
 BYTE   N96  Fs2
 BYTE   W96
// 033   ----------------------------------------
 BYTE   En2
 BYTE   W96
// 034   ----------------------------------------
 BYTE   TIE  Ds2
 BYTE   W96
// 035   ----------------------------------------
 BYTE   W96
// 036   ----------------------------------------
 BYTE   EOT
 BYTE   N96  Dn2
 BYTE   W96
// 037   ----------------------------------------
 BYTE   En2
 BYTE   W96
// 038   ----------------------------------------
 BYTE   Fs2
 BYTE   W96
// 039   ----------------------------------------
 BYTE   N68  Fs3
 BYTE   W72
 BYTE   N23  Gs5  v120
 BYTE   W24
// 040   ----------------------------------------
 BYTE   An5
 BYTE   W24
 BYTE   N12  Cs5
 BYTE   W12
 BYTE   An5
 BYTE   W12
 BYTE   Gs5
 BYTE   W12
 BYTE   Fs5
 BYTE   W12
 BYTE   En5
 BYTE   W12
 BYTE   Dn5
 BYTE   W12
// 041   ----------------------------------------
Label_5_B3F3B0:
 BYTE   N09  Cs5  v120
 BYTE   W12
 BYTE   En5
 BYTE   W12
 BYTE   Bn4
 BYTE   W12
 BYTE   Cs5
 BYTE   W12
 BYTE   N32  An4
 BYTE   W36
 BYTE   N11
 BYTE   W12
 BYTE   PEND 
// 042   ----------------------------------------
 BYTE   Bn4
 BYTE   W12
 BYTE   Cs5
 BYTE   W12
 BYTE   En5
 BYTE   W12
 BYTE   Cs5
 BYTE   W12
 BYTE   Bn4
 BYTE   W12
 BYTE   N08  Cs5
 BYTE   W09
 BYTE   N02  An4
 BYTE   W03
 BYTE   N11  Bn4
 BYTE   W12
 BYTE   An4
 BYTE   W12
// 043   ----------------------------------------
 BYTE   Fs4
 BYTE   W12
 BYTE   An4
 BYTE   W12
 BYTE   N02  Fs4  v060
 BYTE   W03
 BYTE   En4
 BYTE   W03
 BYTE   Fs4  v072
 BYTE   W03
 BYTE   En4  v080
 BYTE   W03
 BYTE   Fs4  v092
 BYTE   W03
 BYTE   En4  v100
 BYTE   W03
 BYTE   Fs4  v112
 BYTE   W03
 BYTE   En4  v120
 BYTE   W03
 BYTE   N32  Fs4
 BYTE   W36
 BYTE   An5
 BYTE   W12
// 044   ----------------------------------------
 BYTE   W24
 BYTE   N12  Cs5
 BYTE   W12
 BYTE   An5
 BYTE   W12
 BYTE   Gs5
 BYTE   W12
 BYTE   Fs5
 BYTE   W12
 BYTE   En5
 BYTE   W12
 BYTE   Dn5
 BYTE   W12
// 045   ----------------------------------------
 BYTE   PATT
  POIN2 Label_5_B3F3B0
// 046   ----------------------------------------
 BYTE   N11  Bn4  v120
 BYTE   W12
 BYTE   Cs5
 BYTE   W12
 BYTE   En5
 BYTE   W12
 BYTE   Cs5
 BYTE   W12
 BYTE   Bn4
 BYTE   W12
 BYTE   N08  Cs5
 BYTE   W09
 BYTE   N02
 BYTE   W03
 BYTE   N11  En5
 BYTE   W12
 BYTE   Fs5
 BYTE   W12
// 047   ----------------------------------------
 BYTE   An5
 BYTE   W12
 BYTE   Fs5
 BYTE   W12
 BYTE   N02  En5  v060
 BYTE   W03
 BYTE   Fs5
 BYTE   W03
 BYTE   En5  v072
 BYTE   W03
 BYTE   Fs5  v080
 BYTE   W03
 BYTE   En5  v092
 BYTE   W03
 BYTE   Fs5  v100
 BYTE   W03
 BYTE   En5  v112
 BYTE   W03
 BYTE   Fs5  v120
 BYTE   W03
 BYTE   N44
 BYTE   W48
// 048   ----------------------------------------
 BYTE   PATT
  POIN2 Label_5_B3F312
// 049   ----------------------------------------
 BYTE   N92  Fs2  v112
 BYTE   N92  Cs3
 BYTE   W96
// 050   ----------------------------------------
 BYTE   PATT
  POIN2 Label_5_B3F322
// 051   ----------------------------------------
 BYTE   N92  Fs2  v112
 BYTE   N92  An2
 BYTE   W96
// 052   ----------------------------------------
 BYTE   PATT
  POIN2 Label_5_B3F312
// 053   ----------------------------------------
 BYTE   N92  Fs2  v112
 BYTE   N92  Cs3
 BYTE   W96
// 054   ----------------------------------------
 BYTE   PATT
  POIN2 Label_5_B3F312
// 055   ----------------------------------------
 BYTE   N92  An2  v112
 BYTE   N92  Fs3
 BYTE   W96
// 056   ----------------------------------------
 BYTE   PATT
  POIN2 Label_5_B3F312
// 057   ----------------------------------------
 BYTE   N92  Fs2  v112
 BYTE   N92  Cs3
 BYTE   W96
// 058   ----------------------------------------
 BYTE   PATT
  POIN2 Label_5_B3F322
// 059   ----------------------------------------
 BYTE   N92  Fs2  v112
 BYTE   N92  An2
 BYTE   W96
// 060   ----------------------------------------
 BYTE   PATT
  POIN2 Label_5_B3F312
// 061   ----------------------------------------
 BYTE   N92  Fs2  v112
 BYTE   N92  Cs3
 BYTE   W96
// 062   ----------------------------------------
 BYTE   PATT
  POIN2 Label_5_B3F312
// 063   ----------------------------------------
 BYTE   N92  An2  v112
 BYTE   N92  Fs3
 BYTE   W96
// 064   ----------------------------------------
 BYTE   GoTo
  POIN2 Label_5_B3F312
 BYTE   FINE

//**************** Track 7 (Midi-Chn.6) ****************//

ChineseTea_007:
// 000   ----------------------------------------
 BYTE   KEYSH   ChineseTea_key+0
 BYTE   VOICE   61
 BYTE   VOL   33*ChineseTea_mvl/mxv
 BYTE   PAN   c_v-6
 BYTE   W96
// 001   ----------------------------------------
 BYTE   W96
// 002   ----------------------------------------
 BYTE   W96
// 003   ----------------------------------------
 BYTE   W96
// 004   ----------------------------------------
 BYTE   W96
// 005   ----------------------------------------
 BYTE   W96
// 006   ----------------------------------------
 BYTE   W96
// 007   ----------------------------------------
 BYTE   W96
// 008   ----------------------------------------
Label_6_B48534:
 BYTE   N32  Fs3  v120
 BYTE   W36
 BYTE   N11  Fs4
 BYTE   W12
 BYTE   N17  En4
 BYTE   W18
 BYTE   An4  v100
 BYTE   W18
 BYTE   N11  Gs4  v120
 BYTE   W12
 BYTE   PEND 
// 009   ----------------------------------------
Label_6_B48546:
 BYTE   N09  En4  v120
 BYTE   W12
 BYTE   Cs4  v100
 BYTE   W12
 BYTE   N11  En4  v120
 BYTE   W12
 BYTE   N06  En4  v112
 BYTE   W06
 BYTE   N52  Fs4  v127
 BYTE   W54
 BYTE   PEND 
// 010   ----------------------------------------
Label_6_B4855A:
 BYTE   N32  Fs3  v120
 BYTE   W36
 BYTE   N11  Fs4  v100
 BYTE   W12
 BYTE   N17  Fn4  v120
 BYTE   W18
 BYTE   Fs4  v100
 BYTE   W18
 BYTE   N15  Gs4  v112
 BYTE   W12
 BYTE   PEND 
// 011   ----------------------------------------
 BYTE   N92  Cs4  v120
 BYTE   W96
// 012   ----------------------------------------
Label_6_B48572:
 BYTE   N32  Fs3  v120
 BYTE   W36
 BYTE   N11  Fs4
 BYTE   W12
 BYTE   N17  En4
 BYTE   W18
 BYTE   Fs4  v100
 BYTE   W18
 BYTE   N11  Gs4  v120
 BYTE   W12
 BYTE   PEND 
// 013   ----------------------------------------
Label_6_B48584:
 BYTE   N09  An4  v120
 BYTE   W12
 BYTE   Cs4  v100
 BYTE   W12
 BYTE   N11  Gs4  v120
 BYTE   W12
 BYTE   N06  Gs4  v112
 BYTE   W06
 BYTE   N28  An4
 BYTE   W30
 BYTE   N23  Bn4
 BYTE   W24
 BYTE   PEND 
// 014   ----------------------------------------
Label_6_B4859A:
 BYTE   N11  Cs5  v120
 BYTE   W12
 BYTE   N09  Fs4  v112
 BYTE   W24
 BYTE   N06  Gs4  v120
 BYTE   W06
 BYTE   An4  v112
 BYTE   W06
 BYTE   N17  Gs4  v120
 BYTE   W18
 BYTE   En4  v100
 BYTE   W18
 BYTE   N11  Cs4  v112
 BYTE   W12
 BYTE   PEND 
// 015   ----------------------------------------
 BYTE   PATT
  POIN2 Label_6_B48546
// 016   ----------------------------------------
 BYTE   PATT
  POIN2 Label_6_B48534
// 017   ----------------------------------------
 BYTE   PATT
  POIN2 Label_6_B48546
// 018   ----------------------------------------
 BYTE   PATT
  POIN2 Label_6_B4855A
// 019   ----------------------------------------
 BYTE   N92  Cs4  v120
 BYTE   W96
// 020   ----------------------------------------
 BYTE   PATT
  POIN2 Label_6_B48572
// 021   ----------------------------------------
 BYTE   PATT
  POIN2 Label_6_B48584
// 022   ----------------------------------------
 BYTE   PATT
  POIN2 Label_6_B4859A
// 023   ----------------------------------------
 BYTE   PATT
  POIN2 Label_6_B48546
// 024   ----------------------------------------
 BYTE   W96
// 025   ----------------------------------------
 BYTE   W96
// 026   ----------------------------------------
 BYTE   W96
// 027   ----------------------------------------
 BYTE   W96
// 028   ----------------------------------------
 BYTE   W96
// 029   ----------------------------------------
 BYTE   W96
// 030   ----------------------------------------
 BYTE   W96
// 031   ----------------------------------------
 BYTE   W96
// 032   ----------------------------------------
 BYTE   W96
// 033   ----------------------------------------
 BYTE   W96
// 034   ----------------------------------------
 BYTE   W96
// 035   ----------------------------------------
 BYTE   W96
// 036   ----------------------------------------
 BYTE   W96
// 037   ----------------------------------------
 BYTE   W96
// 038   ----------------------------------------
 BYTE   W96
// 039   ----------------------------------------
Label_6_B485F0:
 BYTE   N09  En3  v120
 BYTE   W12
 BYTE   Cs3  v100
 BYTE   W12
 BYTE   N11  En3  v120
 BYTE   W12
 BYTE   N06  En3  v112
 BYTE   W06
 BYTE   N52  Fs3  v127
 BYTE   W54
 BYTE   PEND 
// 040   ----------------------------------------
 BYTE   N32  Fs2  v120
 BYTE   W36
 BYTE   N11  Fs3
 BYTE   W12
 BYTE   N17  En3
 BYTE   W18
 BYTE   An3  v100
 BYTE   W18
 BYTE   N11  Gs3  v120
 BYTE   W12
// 041   ----------------------------------------
 BYTE   PATT
  POIN2 Label_6_B485F0
// 042   ----------------------------------------
 BYTE   N32  Fs2  v120
 BYTE   W36
 BYTE   N11  Fs3  v100
 BYTE   W12
 BYTE   N17  Fn3  v120
 BYTE   W18
 BYTE   Fs3  v100
 BYTE   W18
 BYTE   N15  Gs3  v112
 BYTE   W12
// 043   ----------------------------------------
 BYTE   N92  Cs3  v120
 BYTE   W96
// 044   ----------------------------------------
 BYTE   N32  Fs2
 BYTE   W36
 BYTE   N11  Fs3
 BYTE   W12
 BYTE   N17  En3
 BYTE   W18
 BYTE   Fs3  v100
 BYTE   W18
 BYTE   N11  Gs3  v120
 BYTE   W12
// 045   ----------------------------------------
 BYTE   N09  An3
 BYTE   W12
 BYTE   Cs3  v100
 BYTE   W12
 BYTE   N11  Gs3  v120
 BYTE   W12
 BYTE   N06  Gs3  v112
 BYTE   W06
 BYTE   N28  An3
 BYTE   W30
 BYTE   N23  Bn3
 BYTE   W24
// 046   ----------------------------------------
 BYTE   N11  Cs4  v120
 BYTE   W12
 BYTE   N09  Fs3  v112
 BYTE   W24
 BYTE   N06  Gs3  v120
 BYTE   W06
 BYTE   An3  v112
 BYTE   W06
 BYTE   N17  Gs3  v120
 BYTE   W18
 BYTE   En3  v100
 BYTE   W18
 BYTE   N11  Cs3  v112
 BYTE   W12
// 047   ----------------------------------------
 BYTE   PATT
  POIN2 Label_6_B485F0
// 048   ----------------------------------------
 BYTE   PATT
  POIN2 Label_6_B48534
// 049   ----------------------------------------
 BYTE   PATT
  POIN2 Label_6_B48546
// 050   ----------------------------------------
 BYTE   PATT
  POIN2 Label_6_B4855A
// 051   ----------------------------------------
 BYTE   N92  Cs4  v120
 BYTE   W96
// 052   ----------------------------------------
 BYTE   PATT
  POIN2 Label_6_B48572
// 053   ----------------------------------------
 BYTE   PATT
  POIN2 Label_6_B48584
// 054   ----------------------------------------
 BYTE   PATT
  POIN2 Label_6_B4859A
// 055   ----------------------------------------
 BYTE   PATT
  POIN2 Label_6_B48546
// 056   ----------------------------------------
 BYTE   PATT
  POIN2 Label_6_B48534
// 057   ----------------------------------------
 BYTE   PATT
  POIN2 Label_6_B48546
// 058   ----------------------------------------
 BYTE   PATT
  POIN2 Label_6_B4855A
// 059   ----------------------------------------
 BYTE   N92  Cs4  v120
 BYTE   W96
// 060   ----------------------------------------
 BYTE   PATT
  POIN2 Label_6_B48572
// 061   ----------------------------------------
 BYTE   PATT
  POIN2 Label_6_B48584
// 062   ----------------------------------------
 BYTE   PATT
  POIN2 Label_6_B4859A
// 063   ----------------------------------------
 BYTE   PATT
  POIN2 Label_6_B48546
// 064   ----------------------------------------
 BYTE   GoTo
  POIN2 Label_6_B48534
 BYTE   FINE

//**************** Track 8 (Midi-Chn.7) ****************//

ChineseTea_008:
// 000   ----------------------------------------
 BYTE   KEYSH   ChineseTea_key+0
 BYTE   VOICE   61
 BYTE   VOL   17*ChineseTea_mvl/mxv
 BYTE   PAN   c_v+11
 BYTE   W96
// 001   ----------------------------------------
 BYTE   W96
// 002   ----------------------------------------
 BYTE   W96
// 003   ----------------------------------------
 BYTE   W96
// 004   ----------------------------------------
 BYTE   W96
// 005   ----------------------------------------
 BYTE   W96
// 006   ----------------------------------------
 BYTE   W96
// 007   ----------------------------------------
 BYTE   W96
// 008   ----------------------------------------
Label_7_B486DC:
 BYTE   N32  Dn3  v120
 BYTE   W36
 BYTE   N11  An3
 BYTE   W12
 BYTE   N17  Gs2
 BYTE   W18
 BYTE   En3  v100
 BYTE   W18
 BYTE   N11  Bn2  v120
 BYTE   W12
 BYTE   PEND 
// 009   ----------------------------------------
Label_7_B486EE:
 BYTE   N09  Cs3  v120
 BYTE   W12
 BYTE   Fs2  v100
 BYTE   W12
 BYTE   N11  An2  v120
 BYTE   W12
 BYTE   N06  Gs2  v112
 BYTE   W06
 BYTE   N52  An2  v127
 BYTE   W54
 BYTE   PEND 
// 010   ----------------------------------------
Label_7_B48702:
 BYTE   N32  An2  v120
 BYTE   W36
 BYTE   N11  An3  v100
 BYTE   W12
 BYTE   N17  Fn3  v120
 BYTE   W18
 BYTE   Fs3  v100
 BYTE   W18
 BYTE   N15  Gs3  v112
 BYTE   W12
 BYTE   PEND 
// 011   ----------------------------------------
 BYTE   N92  An3  v120
 BYTE   W96
// 012   ----------------------------------------
Label_7_B4871A:
 BYTE   N32  An2  v120
 BYTE   W36
 BYTE   N11  An3
 BYTE   W12
 BYTE   N17  Gs3
 BYTE   W18
 BYTE   An3  v100
 BYTE   W18
 BYTE   N11  Bn3  v120
 BYTE   W12
 BYTE   PEND 
// 013   ----------------------------------------
Label_7_B4872C:
 BYTE   N09  Cs4  v120
 BYTE   W12
 BYTE   Fs3  v100
 BYTE   W12
 BYTE   N11  En3  v120
 BYTE   W12
 BYTE   N06  En3  v112
 BYTE   W06
 BYTE   N30  Fs3
 BYTE   W30
 BYTE   N23  Gs3
 BYTE   W24
 BYTE   PEND 
// 014   ----------------------------------------
Label_7_B48742:
 BYTE   N11  An3  v120
 BYTE   W12
 BYTE   N09  Dn3  v112
 BYTE   W24
 BYTE   N06  En3  v120
 BYTE   W06
 BYTE   Fs3  v112
 BYTE   W06
 BYTE   N17  En3  v120
 BYTE   W18
 BYTE   Gs3  v100
 BYTE   W18
 BYTE   N11  An3  v112
 BYTE   W12
 BYTE   PEND 
// 015   ----------------------------------------
Label_7_B4875D:
 BYTE   N09  Bn3  v120
 BYTE   W12
 BYTE   En3  v100
 BYTE   W12
 BYTE   N11  Gs3  v120
 BYTE   W12
 BYTE   N06  Gs3  v112
 BYTE   W06
 BYTE   N54  An3  v127
 BYTE   W54
 BYTE   PEND 
// 016   ----------------------------------------
 BYTE   PATT
  POIN2 Label_7_B486DC
// 017   ----------------------------------------
 BYTE   PATT
  POIN2 Label_7_B486EE
// 018   ----------------------------------------
 BYTE   PATT
  POIN2 Label_7_B48702
// 019   ----------------------------------------
 BYTE   N92  An3  v120
 BYTE   W96
// 020   ----------------------------------------
 BYTE   PATT
  POIN2 Label_7_B4871A
// 021   ----------------------------------------
 BYTE   PATT
  POIN2 Label_7_B4872C
// 022   ----------------------------------------
 BYTE   PATT
  POIN2 Label_7_B48742
// 023   ----------------------------------------
 BYTE   PATT
  POIN2 Label_7_B4875D
// 024   ----------------------------------------
 BYTE   W96
// 025   ----------------------------------------
 BYTE   W96
// 026   ----------------------------------------
 BYTE   W96
// 027   ----------------------------------------
 BYTE   W96
// 028   ----------------------------------------
 BYTE   W96
// 029   ----------------------------------------
 BYTE   W96
// 030   ----------------------------------------
 BYTE   W96
// 031   ----------------------------------------
 BYTE   W96
// 032   ----------------------------------------
 BYTE   W96
// 033   ----------------------------------------
 BYTE   W96
// 034   ----------------------------------------
 BYTE   W96
// 035   ----------------------------------------
 BYTE   W96
// 036   ----------------------------------------
 BYTE   W96
// 037   ----------------------------------------
 BYTE   W96
// 038   ----------------------------------------
 BYTE   W96
// 039   ----------------------------------------
 BYTE   W96
// 040   ----------------------------------------
 BYTE   W96
// 041   ----------------------------------------
 BYTE   W96
// 042   ----------------------------------------
 BYTE   W96
// 043   ----------------------------------------
 BYTE   W96
// 044   ----------------------------------------
 BYTE   W96
// 045   ----------------------------------------
 BYTE   W96
// 046   ----------------------------------------
 BYTE   W96
// 047   ----------------------------------------
 BYTE   W96
// 048   ----------------------------------------
Label_7_B487B0:
 BYTE   N32  Dn4  v120
 BYTE   W36
 BYTE   N11  An4
 BYTE   W12
 BYTE   N17  Gs3
 BYTE   W18
 BYTE   En4  v100
 BYTE   W18
 BYTE   N11  Bn3  v120
 BYTE   W12
 BYTE   PEND 
// 049   ----------------------------------------
Label_7_B487C2:
 BYTE   N09  Cs4  v120
 BYTE   W12
 BYTE   Fs3  v100
 BYTE   W12
 BYTE   N11  An3  v120
 BYTE   W12
 BYTE   N06  Gs3  v112
 BYTE   W06
 BYTE   N52  An3  v127
 BYTE   W54
 BYTE   PEND 
// 050   ----------------------------------------
Label_7_B487D6:
 BYTE   N32  An3  v120
 BYTE   W36
 BYTE   N11  An4  v100
 BYTE   W12
 BYTE   N17  Bn3  v120
 BYTE   W18
 BYTE   Cs4  v100
 BYTE   W18
 BYTE   N15  Fn4  v112
 BYTE   W12
 BYTE   PEND 
// 051   ----------------------------------------
 BYTE   N92  An4  v120
 BYTE   W96
// 052   ----------------------------------------
Label_7_B487EE:
 BYTE   N32  An3  v120
 BYTE   W36
 BYTE   N11  An4
 BYTE   W12
 BYTE   N17  Gs4
 BYTE   W18
 BYTE   An4  v100
 BYTE   W18
 BYTE   N11  Bn4  v120
 BYTE   W12
 BYTE   PEND 
// 053   ----------------------------------------
Label_7_B48800:
 BYTE   N09  Cs5  v120
 BYTE   W12
 BYTE   Fs4  v100
 BYTE   W12
 BYTE   N11  En4  v120
 BYTE   W12
 BYTE   N06  En4  v112
 BYTE   W06
 BYTE   N30  Fs4
 BYTE   W30
 BYTE   N23  Gs4
 BYTE   W24
 BYTE   PEND 
// 054   ----------------------------------------
Label_7_B48816:
 BYTE   N11  An4  v120
 BYTE   W12
 BYTE   N09  Dn4  v112
 BYTE   W24
 BYTE   N06  En4  v120
 BYTE   W06
 BYTE   Fs4  v112
 BYTE   W06
 BYTE   N17  En4  v120
 BYTE   W18
 BYTE   Gs4  v100
 BYTE   W18
 BYTE   N11  An4  v112
 BYTE   W12
 BYTE   PEND 
// 055   ----------------------------------------
Label_7_B48831:
 BYTE   N09  Bn4  v120
 BYTE   W12
 BYTE   En4  v100
 BYTE   W12
 BYTE   N11  Gs4  v120
 BYTE   W12
 BYTE   N06  Gs4  v112
 BYTE   W06
 BYTE   N54  An4  v127
 BYTE   W54
 BYTE   PEND 
// 056   ----------------------------------------
 BYTE   PATT
  POIN2 Label_7_B487B0
// 057   ----------------------------------------
 BYTE   PATT
  POIN2 Label_7_B487C2
// 058   ----------------------------------------
 BYTE   PATT
  POIN2 Label_7_B487D6
// 059   ----------------------------------------
 BYTE   N92  An4  v120
 BYTE   W96
// 060   ----------------------------------------
 BYTE   PATT
  POIN2 Label_7_B487EE
// 061   ----------------------------------------
 BYTE   PATT
  POIN2 Label_7_B48800
// 062   ----------------------------------------
 BYTE   PATT
  POIN2 Label_7_B48816
// 063   ----------------------------------------
 BYTE   PATT
  POIN2 Label_7_B48831
// 064   ----------------------------------------
 BYTE   GoTo
  POIN2 Label_7_B486DC
 BYTE   FINE

//**************** Track 9 (Midi-Chn.8) ****************//

ChineseTea_009:
// 000   ----------------------------------------
 BYTE   KEYSH   ChineseTea_key+0
 BYTE   VOICE   8
 BYTE   VOL   35*ChineseTea_mvl/mxv
 BYTE   PAN   c_v+0
 BYTE   W96
// 001   ----------------------------------------
 BYTE   W96
// 002   ----------------------------------------
 BYTE   W96
// 003   ----------------------------------------
 BYTE   W96
// 004   ----------------------------------------
 BYTE   W96
// 005   ----------------------------------------
 BYTE   W96
// 006   ----------------------------------------
 BYTE   W96
// 007   ----------------------------------------
 BYTE   W72
 BYTE   N01  Cn1  v108
 BYTE   N01  En1
 BYTE   N01  Cs2  v092
 BYTE   W24
// 008   ----------------------------------------
Label_8_01552481:
 BYTE   N01  Cn1  v108
 BYTE   N01  Cs2  v092
 BYTE   W06
 BYTE   Fs1  v064
 BYTE   W06
 BYTE   N01
 BYTE   W12
 BYTE   En1  v080
 BYTE   N01  As1  v092
 BYTE   W06
 BYTE   Cn1
 BYTE   W06
 BYTE   N01
 BYTE   N01  Fs1
 BYTE   W06
 BYTE   N01
 BYTE   W12
 BYTE   Cn1
 BYTE   N01  Fs1
 BYTE   W06
 BYTE   As1
 BYTE   W06
 BYTE   Cn1
 BYTE   W06
 BYTE   En1  v108
 BYTE   N01  Fs1  v080
 BYTE   W06
 BYTE   As1  v092
 BYTE   W12
 BYTE   Cn1  v080
 BYTE   W06
 BYTE   PEND 
// 009   ----------------------------------------
Label_8_015524B0:
 BYTE   N01  Cn1  v108
 BYTE   W06
 BYTE   Fs1  v064
 BYTE   W06
 BYTE   Cn1  v080
 BYTE   N01  Fs1  v064
 BYTE   W12
 BYTE   En1  v080
 BYTE   N01  As1  v092
 BYTE   W06
 BYTE   Cn1
 BYTE   W06
 BYTE   N01
 BYTE   N01  Fs1
 BYTE   W06
 BYTE   N01
 BYTE   W12
 BYTE   Cn1
 BYTE   N01  Fs1
 BYTE   W06
 BYTE   As1
 BYTE   W06
 BYTE   Cn1
 BYTE   W06
 BYTE   En1  v108
 BYTE   N01  Fs1  v080
 BYTE   W06
 BYTE   As1  v092
 BYTE   W06
 BYTE   Dn1  v080
 BYTE   W06
 BYTE   N01
 BYTE   N01  Fs1
 BYTE   W06
 BYTE   PEND 
// 010   ----------------------------------------
 BYTE   PATT
  POIN2 Label_8_01552481
// 011   ----------------------------------------
 BYTE   PATT
  POIN2 Label_8_015524B0
// 012   ----------------------------------------
 BYTE   PATT
  POIN2 Label_8_01552481
// 013   ----------------------------------------
 BYTE   PATT
  POIN2 Label_8_015524B0
// 014   ----------------------------------------
 BYTE   PATT
  POIN2 Label_8_01552481
// 015   ----------------------------------------
 BYTE   PATT
  POIN2 Label_8_015524B0
// 016   ----------------------------------------
 BYTE   PATT
  POIN2 Label_8_01552481
// 017   ----------------------------------------
 BYTE   PATT
  POIN2 Label_8_015524B0
// 018   ----------------------------------------
 BYTE   PATT
  POIN2 Label_8_01552481
// 019   ----------------------------------------
 BYTE   PATT
  POIN2 Label_8_015524B0
// 020   ----------------------------------------
 BYTE   PATT
  POIN2 Label_8_01552481
// 021   ----------------------------------------
 BYTE   PATT
  POIN2 Label_8_015524B0
// 022   ----------------------------------------
 BYTE   PATT
  POIN2 Label_8_01552481
// 023   ----------------------------------------
Label_8_01552525:
 BYTE   N01  Cn1  v108
 BYTE   N01  Fn1  v080
 BYTE   W06
 BYTE   Dn1  v092
 BYTE   N01  Fs1  v064
 BYTE   N01  Cn2  v080
 BYTE   W06
 BYTE   Cn1
 BYTE   N01  Dn1  v092
 BYTE   N01  Fs1  v064
 BYTE   N01  An1  v080
 BYTE   W06
 BYTE   N01
 BYTE   W06
 BYTE   Dn1  v092
 BYTE   N01  En1  v080
 BYTE   N01  Fn1
 BYTE   N01  As1  v092
 BYTE   W06
 BYTE   Cn1
 BYTE   N01  Dn1
 BYTE   N01  Fn1  v080
 BYTE   W06
 BYTE   Cn1  v092
 BYTE   N01  Dn1
 BYTE   N01  Fn1  v080
 BYTE   N01  Fs1  v092
 BYTE   W06
 BYTE   En1  v108
 BYTE   N01  Fn1  v080
 BYTE   N01  Fs1  v092
 BYTE   W06
 BYTE   Cn1  v108
 BYTE   N01  En1
 BYTE   W06
 BYTE   Cn1  v092
 BYTE   N01  Fs1
 BYTE   W06
 BYTE   As1
 BYTE   W06
 BYTE   Cn1
 BYTE   W06
 BYTE   Cn1  v108
 BYTE   N01  En1
 BYTE   N01  Fs1  v080
 BYTE   N01  Cs2  v108
 BYTE   W06
 BYTE   As1  v092
 BYTE   W06
 BYTE   Dn1  v080
 BYTE   W06
 BYTE   N01
 BYTE   N01  Fs1
 BYTE   W06
 BYTE   PEND 
// 024   ----------------------------------------
Label_8_0155258C:
 BYTE   N01  Cn1  v092
 BYTE   N01  Fs1  v108
 BYTE   N01  Cs2  v092
 BYTE   W12
 BYTE   Fs1  v108
 BYTE   W06
 BYTE   Cn1  v092
 BYTE   W06
 BYTE   Fs1  v108
 BYTE   W06
 BYTE   Cn1  v092
 BYTE   W06
 BYTE   N01
 BYTE   N01  Fs1  v108
 BYTE   W06
 BYTE   Cn1  v092
 BYTE   W06
 BYTE   Dn1
 BYTE   N01  Fs1  v108
 BYTE   W12
 BYTE   N01
 BYTE   W12
 BYTE   Cn1  v092
 BYTE   N01  Fs1  v108
 BYTE   W12
 BYTE   Cn1  v092
 BYTE   N01  Fs1  v108
 BYTE   W12
 BYTE   PEND 
// 025   ----------------------------------------
Label_8_015525BE:
 BYTE   N01  Cn1  v092
 BYTE   N01  Fs1  v108
 BYTE   W12
 BYTE   N01
 BYTE   W06
 BYTE   Cn1  v092
 BYTE   W06
 BYTE   Fs1  v108
 BYTE   W06
 BYTE   Cn1  v092
 BYTE   W06
 BYTE   N01
 BYTE   N01  Fs1  v108
 BYTE   W06
 BYTE   Cn1  v092
 BYTE   W06
 BYTE   Dn1
 BYTE   N01  Fs1  v108
 BYTE   W12
 BYTE   N01
 BYTE   W12
 BYTE   Cn1  v092
 BYTE   N01  Fs1  v108
 BYTE   W12
 BYTE   Cn1  v092
 BYTE   N01  Fs1  v108
 BYTE   W12
 BYTE   PEND 
// 026   ----------------------------------------
 BYTE   PATT
  POIN2 Label_8_015525BE
// 027   ----------------------------------------
Label_8_015525F1:
 BYTE   N01  Cn1  v092
 BYTE   N01  Fs1  v108
 BYTE   W12
 BYTE   N01
 BYTE   W06
 BYTE   Cn1  v092
 BYTE   W06
 BYTE   Fs1  v108
 BYTE   W06
 BYTE   Cn1  v092
 BYTE   W06
 BYTE   N01
 BYTE   N01  Fs1  v108
 BYTE   W06
 BYTE   Cn1  v092
 BYTE   W06
 BYTE   Dn1
 BYTE   N01  Fs1  v108
 BYTE   W12
 BYTE   En1  v080
 BYTE   N01  Fs1  v108
 BYTE   W06
 BYTE   En1  v080
 BYTE   W06
 BYTE   Cn1  v092
 BYTE   N01  Fs1  v108
 BYTE   W06
 BYTE   En1  v092
 BYTE   W06
 BYTE   Cn1
 BYTE   N01  En1
 BYTE   N01  Fs1  v108
 BYTE   W06
 BYTE   En1  v092
 BYTE   W06
 BYTE   PEND 
// 028   ----------------------------------------
 BYTE   PATT
  POIN2 Label_8_0155258C
// 029   ----------------------------------------
 BYTE   PATT
  POIN2 Label_8_015525BE
// 030   ----------------------------------------
 BYTE   PATT
  POIN2 Label_8_015525BE
// 031   ----------------------------------------
 BYTE   PATT
  POIN2 Label_8_015525F1
// 032   ----------------------------------------
Label_8_01552641:
 BYTE   N01  Cn1  v092
 BYTE   N01  Fs1  v108
 BYTE   N01  Cs2  v092
 BYTE   W12
 BYTE   As1  v108
 BYTE   W06
 BYTE   Cn1  v092
 BYTE   N01  Fs1  v108
 BYTE   W06
 BYTE   Dn1  v092
 BYTE   N01  Fs1  v108
 BYTE   W06
 BYTE   Cn1  v092
 BYTE   W06
 BYTE   Fs1  v108
 BYTE   W06
 BYTE   Cn1  v092
 BYTE   W06
 BYTE   Fs1  v108
 BYTE   W12
 BYTE   Cn1  v092
 BYTE   N01  As1  v108
 BYTE   W06
 BYTE   Fs1
 BYTE   W06
 BYTE   Dn1  v092
 BYTE   N01  Fs1  v108
 BYTE   W12
 BYTE   Cn1  v092
 BYTE   N01  Fs1  v108
 BYTE   W12
 BYTE   PEND 
// 033   ----------------------------------------
Label_8_0155267B:
 BYTE   N01  Cn1  v092
 BYTE   N01  Fs1  v108
 BYTE   W12
 BYTE   Cn1  v092
 BYTE   N01  As1  v108
 BYTE   W06
 BYTE   Fs1
 BYTE   W06
 BYTE   Dn1  v092
 BYTE   N01  Fs1  v108
 BYTE   W12
 BYTE   N01
 BYTE   W06
 BYTE   Cn1  v092
 BYTE   W06
 BYTE   N01
 BYTE   N01  Fs1  v108
 BYTE   W06
 BYTE   Cn1  v092
 BYTE   W06
 BYTE   N01
 BYTE   N01  As1  v108
 BYTE   W06
 BYTE   Fs1
 BYTE   W06
 BYTE   Dn1  v092
 BYTE   N01  Fs1  v108
 BYTE   W06
 BYTE   Cn1  v092
 BYTE   W06
 BYTE   N01
 BYTE   N01  Dn1  v064
 BYTE   N01  Fs1  v108
 BYTE   W06
 BYTE   Cn1  v092
 BYTE   N01  Dn1  v052
 BYTE   W06
 BYTE   PEND 
// 034   ----------------------------------------
Label_8_015526BC:
 BYTE   N01  Cn1  v092
 BYTE   N01  Fs1  v108
 BYTE   W12
 BYTE   As1
 BYTE   W06
 BYTE   Cn1  v092
 BYTE   N01  Fs1  v108
 BYTE   W06
 BYTE   Dn1  v092
 BYTE   N01  Fs1  v108
 BYTE   W06
 BYTE   Cn1  v092
 BYTE   W06
 BYTE   Fs1  v108
 BYTE   W06
 BYTE   Cn1  v092
 BYTE   W06
 BYTE   Fs1  v108
 BYTE   W12
 BYTE   Cn1  v092
 BYTE   N01  As1  v108
 BYTE   W06
 BYTE   Fs1
 BYTE   W06
 BYTE   Dn1  v092
 BYTE   N01  Fs1  v108
 BYTE   W12
 BYTE   Cn1  v092
 BYTE   N01  Fs1  v108
 BYTE   W12
 BYTE   PEND 
// 035   ----------------------------------------
 BYTE   Cn1  v092
 BYTE   N01  Fs1  v108
 BYTE   W12
 BYTE   Cn1  v092
 BYTE   N01  As1  v108
 BYTE   W06
 BYTE   Fs1
 BYTE   W06
 BYTE   Dn1  v092
 BYTE   N01  Fs1  v108
 BYTE   W12
 BYTE   N01
 BYTE   W06
 BYTE   Cn1  v092
 BYTE   W06
 BYTE   N01
 BYTE   N01  Fs1  v108
 BYTE   W06
 BYTE   Cn1  v092
 BYTE   N01  Dn1
 BYTE   W06
 BYTE   Cn1
 BYTE   N01  Dn1
 BYTE   N01  As1  v108
 BYTE   W06
 BYTE   Fs1
 BYTE   W06
 BYTE   Dn1  v092
 BYTE   N01  En1
 BYTE   N01  Fs1  v108
 BYTE   W06
 BYTE   Cn1  v092
 BYTE   W06
 BYTE   N01
 BYTE   N01  Dn1  v064
 BYTE   N01  En1  v092
 BYTE   N01  Fs1  v108
 BYTE   W06
 BYTE   Cn1  v092
 BYTE   N01  Dn1  v052
 BYTE   N01  En1  v092
 BYTE   W06
// 036   ----------------------------------------
 BYTE   PATT
  POIN2 Label_8_01552641
// 037   ----------------------------------------
 BYTE   PATT
  POIN2 Label_8_0155267B
// 038   ----------------------------------------
 BYTE   PATT
  POIN2 Label_8_015526BC
// 039   ----------------------------------------
 BYTE   N01  Cn1  v092
 BYTE   N01  Fs1  v108
 BYTE   W12
 BYTE   Cn1  v092
 BYTE   N01  As1  v108
 BYTE   W06
 BYTE   Fs1
 BYTE   W06
 BYTE   Dn1  v092
 BYTE   N01  Fs1  v108
 BYTE   W06
 BYTE   Cn2
 BYTE   W06
 BYTE   Fs1
 BYTE   N01  Cn2
 BYTE   W06
 BYTE   Cn1  v092
 BYTE   N01  An1  v108
 BYTE   W06
 BYTE   Cn1  v092
 BYTE   N01  Fn1  v108
 BYTE   N01  Fs1
 BYTE   W06
 BYTE   Cn1  v092
 BYTE   N01  Dn1
 BYTE   N01  Cn2  v108
 BYTE   W06
 BYTE   Cn1  v092
 BYTE   N01  Dn1
 BYTE   N01  An1  v108
 BYTE   N01  As1
 BYTE   W06
 BYTE   Fn1
 BYTE   N01  Fs1
 BYTE   W06
 BYTE   Dn1  v092
 BYTE   N01  En1
 BYTE   N01  Fs1  v108
 BYTE   N01  Cn2
 BYTE   W06
 BYTE   Cn1  v092
 BYTE   N01  Fn1  v108
 BYTE   W06
 BYTE   Cn1  v092
 BYTE   N01  Dn1  v064
 BYTE   N01  En1  v092
 BYTE   N01  Fs1  v108
 BYTE   N01  Cn2
 BYTE   W06
 BYTE   Cn1  v092
 BYTE   N01  Dn1  v052
 BYTE   N01  En1  v092
 BYTE   N01  Fn1  v108
 BYTE   W06
// 040   ----------------------------------------
 BYTE   Cn1
 BYTE   N01  Cs2  v120
 BYTE   W06
 BYTE   Fs1  v052
 BYTE   W06
 BYTE   N01
 BYTE   W12
 BYTE   Fs1  v108
 BYTE   W06
 BYTE   Fs1  v064
 BYTE   W18
 BYTE   Cn1  v108
 BYTE   N01  Fs1  v052
 BYTE   W12
 BYTE   N01
 BYTE   W12
 BYTE   Fs1  v108
 BYTE   W06
 BYTE   Fs1  v064
 BYTE   W18
// 041   ----------------------------------------
 BYTE   Cn1  v108
 BYTE   N01  Fs1  v064
 BYTE   W06
 BYTE   Fs1  v052
 BYTE   W06
 BYTE   N01
 BYTE   W12
 BYTE   Fs1  v108
 BYTE   W06
 BYTE   Fs1  v064
 BYTE   W18
 BYTE   Cn1  v108
 BYTE   N01  Fs1  v052
 BYTE   W12
 BYTE   N01
 BYTE   W12
 BYTE   Fs1  v108
 BYTE   W06
 BYTE   Fs1  v064
 BYTE   W18
// 042   ----------------------------------------
 BYTE   Cn1  v108
 BYTE   N01  Fs1  v064
 BYTE   W06
 BYTE   Fs1  v052
 BYTE   W06
 BYTE   N01
 BYTE   W12
 BYTE   Cn1  v108
 BYTE   N01  Fs1
 BYTE   W06
 BYTE   Fs1  v064
 BYTE   W18
 BYTE   Cn1  v108
 BYTE   N01  Fs1  v052
 BYTE   W12
 BYTE   N01
 BYTE   W12
 BYTE   Cn1  v108
 BYTE   N01  Fs1
 BYTE   W06
 BYTE   Fs1  v064
 BYTE   W18
// 043   ----------------------------------------
 BYTE   Cn1  v108
 BYTE   N01  Fs1  v064
 BYTE   W06
 BYTE   Fs1  v052
 BYTE   W06
 BYTE   N01
 BYTE   W12
 BYTE   Cn1  v108
 BYTE   N01  Fs1
 BYTE   W06
 BYTE   Fs1  v064
 BYTE   W18
 BYTE   Cn1  v108
 BYTE   N01  Fs1  v052
 BYTE   W12
 BYTE   N01
 BYTE   W06
 BYTE   Cn1  v036
 BYTE   W06
 BYTE   Dn1  v092
 BYTE   N01  En1  v120
 BYTE   N01  Fs1  v108
 BYTE   N01  Ds2
 BYTE   W06
 BYTE   Fs1  v064
 BYTE   W06
 BYTE   Dn1
 BYTE   N01  En1  v120
 BYTE   W12
// 044   ----------------------------------------
Label_8_01552846:
 BYTE   N01  Cn1  v108
 BYTE   N01  Fs1
 BYTE   W12
 BYTE   Cn1
 BYTE   N01  As1
 BYTE   W12
 BYTE   En1
 BYTE   N01  Fs1
 BYTE   W12
 BYTE   As1
 BYTE   W12
 BYTE   Cn1
 BYTE   N01  Fs1
 BYTE   W06
 BYTE   Cn1  v092
 BYTE   W06
 BYTE   N01
 BYTE   N01  As1  v108
 BYTE   W06
 BYTE   Fs1
 BYTE   W06
 BYTE   En1
 BYTE   W12
 BYTE   Cn1
 BYTE   N01  As1
 BYTE   W06
 BYTE   Fs1
 BYTE   W06
 BYTE   PEND 
// 045   ----------------------------------------
 BYTE   PATT
  POIN2 Label_8_01552846
// 046   ----------------------------------------
 BYTE   PATT
  POIN2 Label_8_01552846
// 047   ----------------------------------------
 BYTE   N01  Cn1  v108
 BYTE   N01  Fs1
 BYTE   N01  Cs2  v080
 BYTE   W12
 BYTE   Cn1  v108
 BYTE   N01  As1
 BYTE   W12
 BYTE   En1
 BYTE   N01  Fn1
 BYTE   N01  Fs1
 BYTE   W03
 BYTE   Fn1
 BYTE   W03
 BYTE   Fn1  v120
 BYTE   W03
 BYTE   N01
 BYTE   W03
 BYTE   An1
 BYTE   N01  As1  v108
 BYTE   N01  Cs2  v092
 BYTE   W03
 BYTE   An1  v120
 BYTE   W03
 BYTE   En1  v108
 BYTE   N01  An1  v120
 BYTE   W03
 BYTE   N01
 BYTE   W03
 BYTE   Cn1  v108
 BYTE   N01  En1  v120
 BYTE   N01  Fs1  v108
 BYTE   N01  Cn2  v120
 BYTE   W03
 BYTE   En1
 BYTE   N01  Cn2
 BYTE   W03
 BYTE   Cn1  v092
 BYTE   N01  En1  v120
 BYTE   N01  Cn2
 BYTE   W03
 BYTE   En1
 BYTE   N01  Cn2
 BYTE   W03
 BYTE   Cn1  v092
 BYTE   N01  En1  v120
 BYTE   N01  As1  v108
 BYTE   N01  Cn2  v120
 BYTE   W03
 BYTE   En1
 BYTE   N01  Cn2
 BYTE   W03
 BYTE   Dn1
 BYTE   N01  En1  v108
 BYTE   N01  Fs1
 BYTE   N01  An1  v120
 BYTE   W03
 BYTE   Dn1
 BYTE   N01  An1
 BYTE   W03
 BYTE   Dn1
 BYTE   N01  En1  v108
 BYTE   N01  An1  v120
 BYTE   N01  Cs2
 BYTE   W03
 BYTE   Dn1
 BYTE   N01  An1
 BYTE   W03
 BYTE   Dn1
 BYTE   N01  An1
 BYTE   W03
 BYTE   Dn1
 BYTE   N01  An1
 BYTE   W03
 BYTE   Cn1
 BYTE   N01  Dn1
 BYTE   N01  En1
 BYTE   N01  Fn1  v108
 BYTE   N01  As1
 BYTE   W03
 BYTE   Cn1  v120
 BYTE   N01  Fn1  v108
 BYTE   W03
 BYTE   Cn1  v120
 BYTE   N01  Dn1
 BYTE   N01  En1
 BYTE   N01  Fn1  v108
 BYTE   N01  Fs1
 BYTE   W03
 BYTE   Cn1  v120
 BYTE   N01  Fn1  v108
 BYTE   W03
// 048   ----------------------------------------
 BYTE   Cn1
 BYTE   N01  Dn1  v120
 BYTE   N01  En1
 BYTE   N01  Fn1
 BYTE   N01  Cs2
 BYTE   W06
 BYTE   Fs1  v064
 BYTE   W06
 BYTE   N01
 BYTE   W12
 BYTE   En1  v080
 BYTE   N01  As1  v092
 BYTE   W06
 BYTE   Cn1
 BYTE   W06
 BYTE   N01
 BYTE   N01  Fs1
 BYTE   W06
 BYTE   N01
 BYTE   W12
 BYTE   Cn1
 BYTE   N01  Fs1
 BYTE   W06
 BYTE   As1
 BYTE   W06
 BYTE   Cn1
 BYTE   W06
 BYTE   En1  v108
 BYTE   N01  Fs1  v080
 BYTE   W06
 BYTE   As1  v092
 BYTE   W12
 BYTE   Cn1  v080
 BYTE   W06
// 049   ----------------------------------------
 BYTE   PATT
  POIN2 Label_8_015524B0
// 050   ----------------------------------------
 BYTE   PATT
  POIN2 Label_8_01552481
// 051   ----------------------------------------
 BYTE   PATT
  POIN2 Label_8_015524B0
// 052   ----------------------------------------
 BYTE   PATT
  POIN2 Label_8_01552481
// 053   ----------------------------------------
 BYTE   PATT
  POIN2 Label_8_015524B0
// 054   ----------------------------------------
 BYTE   PATT
  POIN2 Label_8_01552481
// 055   ----------------------------------------
 BYTE   PATT
  POIN2 Label_8_015524B0
// 056   ----------------------------------------
 BYTE   PATT
  POIN2 Label_8_01552481
// 057   ----------------------------------------
 BYTE   PATT
  POIN2 Label_8_015524B0
// 058   ----------------------------------------
 BYTE   PATT
  POIN2 Label_8_01552481
// 059   ----------------------------------------
 BYTE   PATT
  POIN2 Label_8_015524B0
// 060   ----------------------------------------
 BYTE   PATT
  POIN2 Label_8_01552481
// 061   ----------------------------------------
 BYTE   PATT
  POIN2 Label_8_015524B0
// 062   ----------------------------------------
 BYTE   PATT
  POIN2 Label_8_01552481
// 063   ----------------------------------------
 BYTE   PATT
  POIN2 Label_8_01552525
// 064   ----------------------------------------
 BYTE   GoTo
  POIN2 Label_8_01552481
 BYTE   FINE

//**************** Track 10 (Midi-Chn.9) ****************//

ChineseTea_010:
// 000   ----------------------------------------
 BYTE   KEYSH   ChineseTea_key+0
 BYTE   VOICE   1
 BYTE   VOL   27*ChineseTea_mvl/mxv
 BYTE   PAN   c_v+16
 BYTE   N17  Dn3  v060
 BYTE   W18
 BYTE   N28  An3
 BYTE   W30
 BYTE   N17  Gs3
 BYTE   W18
 BYTE   Bn3
 BYTE   W18
 BYTE   N11  En4
 BYTE   W12
// 001   ----------------------------------------
 BYTE   N08  Fs4
 BYTE   W09
 BYTE   Bn4
 BYTE   W09
 BYTE   N06  An3
 BYTE   W06
 BYTE   N08  En4
 BYTE   W09
 BYTE   Bn3
 BYTE   W09
 BYTE   N06  Gs3
 BYTE   W06
 BYTE   N44  An3
 BYTE   W48
// 002   ----------------------------------------
 BYTE   N17  Fs3
 BYTE   W18
 BYTE   N18  Dn4
 BYTE   W18
 BYTE   N11  An3
 BYTE   W12
 BYTE   N17  Fn4
 BYTE   W18
 BYTE   Bn3
 BYTE   W18
 BYTE   N11  Gs4
 BYTE   W12
// 003   ----------------------------------------
 BYTE   N44  An3
 BYTE   W48
 BYTE   N08  Cs4
 BYTE   W09
 BYTE   An4
 BYTE   W09
 BYTE   N06  Gs4
 BYTE   W06
 BYTE   N08  Bn3
 BYTE   W09
 BYTE   Gs4
 BYTE   W09
 BYTE   N06  Fs4
 BYTE   W06
// 004   ----------------------------------------
 BYTE   N06
 BYTE   W06
 BYTE   Dn4
 BYTE   W06
 BYTE   An3
 BYTE   W06
 BYTE   Dn4
 BYTE   W06
 BYTE   An4
 BYTE   W06
 BYTE   Fs4
 BYTE   W06
 BYTE   Dn4
 BYTE   W06
 BYTE   An3
 BYTE   W06
 BYTE   Bn3
 BYTE   W06
 BYTE   En4
 BYTE   W06
 BYTE   Gs4
 BYTE   W06
 BYTE   Bn4
 BYTE   W06
 BYTE   Gs4
 BYTE   W06
 BYTE   Bn4
 BYTE   W06
 BYTE   En5
 BYTE   W06
 BYTE   Bn4
 BYTE   W06
// 005   ----------------------------------------
 BYTE   Cs5
 BYTE   W06
 BYTE   An4
 BYTE   W06
 BYTE   Fs4
 BYTE   W06
 BYTE   Bn4
 BYTE   W06
 BYTE   Gs4
 BYTE   W06
 BYTE   En4
 BYTE   W06
 BYTE   An4
 BYTE   W06
 BYTE   Fs4
 BYTE   W06
 BYTE   Cs4
 BYTE   W06
 BYTE   Gs4
 BYTE   W06
 BYTE   En4
 BYTE   W06
 BYTE   Bn3
 BYTE   W06
 BYTE   Fs4
 BYTE   W06
 BYTE   An3
 BYTE   W06
 BYTE   An4
 BYTE   W06
 BYTE   En4
 BYTE   W06
// 006   ----------------------------------------
 BYTE   An4
 BYTE   W06
 BYTE   Fs4
 BYTE   W06
 BYTE   Dn4
 BYTE   W06
 BYTE   An4
 BYTE   W06
 BYTE   Fs4
 BYTE   W06
 BYTE   Dn4
 BYTE   W06
 BYTE   Dn5
 BYTE   W06
 BYTE   An4
 BYTE   W06
 BYTE   Gs4
 BYTE   W06
 BYTE   En4
 BYTE   W06
 BYTE   Bn3
 BYTE   W06
 BYTE   Gs4
 BYTE   W06
 BYTE   En4
 BYTE   W06
 BYTE   Bn3
 BYTE   W06
 BYTE   Bn4
 BYTE   W06
 BYTE   Gs4
 BYTE   W06
// 007   ----------------------------------------
 BYTE   An4
 BYTE   W06
 BYTE   Cs5
 BYTE   W06
 BYTE   Fs5
 BYTE   W06
 BYTE   Bn4
 BYTE   W06
 BYTE   En5
 BYTE   W06
 BYTE   Gs5
 BYTE   W06
 BYTE   Cs5
 BYTE   W06
 BYTE   Fs5
 BYTE   W06
 BYTE   An5
 BYTE   W06
 BYTE   Gs5
 BYTE   W06
 BYTE   En5
 BYTE   W06
 BYTE   Bn4
 BYTE   W06
 BYTE   Fs5
 BYTE   W06
 BYTE   Cs5
 BYTE   W06
 BYTE   An4
 BYTE   W06
 BYTE   Gs4
 BYTE   W06
// 008   ----------------------------------------
Label_9_B76732:
 BYTE   PAN   c_v+16
 BYTE   N06  Fs4  v100
 BYTE   W06
 BYTE   Dn4
 BYTE   W06
 BYTE   An3
 BYTE   W06
 BYTE   Dn4
 BYTE   W06
 BYTE   An4
 BYTE   W06
 BYTE   Fs4
 BYTE   W06
 BYTE   Dn4
 BYTE   W06
 BYTE   An3
 BYTE   W06
 BYTE   Bn3
 BYTE   W06
 BYTE   En4
 BYTE   W06
 BYTE   Gs4
 BYTE   W06
 BYTE   Bn4
 BYTE   W06
 BYTE   Gs4
 BYTE   W06
 BYTE   Bn4
 BYTE   W06
 BYTE   En5
 BYTE   W06
 BYTE   Bn4
 BYTE   W06
 BYTE   PEND 
// 009   ----------------------------------------
Label_9_B76757:
 BYTE   N06  Cs5  v100
 BYTE   W06
 BYTE   An4
 BYTE   W06
 BYTE   Fs4
 BYTE   W06
 BYTE   Bn4
 BYTE   W06
 BYTE   Gs4
 BYTE   W06
 BYTE   En4
 BYTE   W06
 BYTE   An4
 BYTE   W06
 BYTE   Fs4
 BYTE   W06
 BYTE   Cs4
 BYTE   W06
 BYTE   Gs4
 BYTE   W06
 BYTE   En4
 BYTE   W06
 BYTE   Bn3
 BYTE   W06
 BYTE   Fs4
 BYTE   W06
 BYTE   An3
 BYTE   W06
 BYTE   An4
 BYTE   W06
 BYTE   En4
 BYTE   W06
 BYTE   PEND 
// 010   ----------------------------------------
Label_9_B7677A:
 BYTE   N06  An4  v100
 BYTE   W06
 BYTE   Fs4
 BYTE   W06
 BYTE   Dn4
 BYTE   W06
 BYTE   An4
 BYTE   W06
 BYTE   Fs4
 BYTE   W06
 BYTE   Dn4
 BYTE   W06
 BYTE   Dn5
 BYTE   W06
 BYTE   An4
 BYTE   W06
 BYTE   Gs4
 BYTE   W06
 BYTE   En4
 BYTE   W06
 BYTE   Bn3
 BYTE   W06
 BYTE   Gs4
 BYTE   W06
 BYTE   En4
 BYTE   W06
 BYTE   Bn3
 BYTE   W06
 BYTE   Bn4
 BYTE   W06
 BYTE   Gs4
 BYTE   W06
 BYTE   PEND 
// 011   ----------------------------------------
Label_9_B7679D:
 BYTE   N06  An4  v100
 BYTE   W06
 BYTE   Cs5
 BYTE   W06
 BYTE   Fs5
 BYTE   W06
 BYTE   Bn4
 BYTE   W06
 BYTE   En5
 BYTE   W06
 BYTE   Gs5
 BYTE   W06
 BYTE   Cs5
 BYTE   W06
 BYTE   Fs5
 BYTE   W06
 BYTE   An5
 BYTE   W06
 BYTE   Gs5
 BYTE   W06
 BYTE   En5
 BYTE   W06
 BYTE   Bn4
 BYTE   W06
 BYTE   Fs5
 BYTE   W06
 BYTE   Cs5
 BYTE   W06
 BYTE   An4
 BYTE   W06
 BYTE   Gs4
 BYTE   W06
 BYTE   PEND 
// 012   ----------------------------------------
Label_9_B767C0:
 BYTE   N06  Fs4  v100
 BYTE   W06
 BYTE   Dn4
 BYTE   W06
 BYTE   An3
 BYTE   W06
 BYTE   Dn4
 BYTE   W06
 BYTE   An4
 BYTE   W06
 BYTE   Fs4
 BYTE   W06
 BYTE   Dn4
 BYTE   W06
 BYTE   An3
 BYTE   W06
 BYTE   Bn3
 BYTE   W06
 BYTE   En4
 BYTE   W06
 BYTE   Gs4
 BYTE   W06
 BYTE   Bn4
 BYTE   W06
 BYTE   Gs4
 BYTE   W06
 BYTE   Bn4
 BYTE   W06
 BYTE   En5
 BYTE   W06
 BYTE   Bn4
 BYTE   W06
 BYTE   PEND 
// 013   ----------------------------------------
 BYTE   PATT
  POIN2 Label_9_B76757
// 014   ----------------------------------------
 BYTE   PATT
  POIN2 Label_9_B7677A
// 015   ----------------------------------------
 BYTE   PATT
  POIN2 Label_9_B7679D
// 016   ----------------------------------------
 BYTE   PATT
  POIN2 Label_9_B767C0
// 017   ----------------------------------------
 BYTE   PATT
  POIN2 Label_9_B76757
// 018   ----------------------------------------
 BYTE   PATT
  POIN2 Label_9_B7677A
// 019   ----------------------------------------
 BYTE   PATT
  POIN2 Label_9_B7679D
// 020   ----------------------------------------
 BYTE   PATT
  POIN2 Label_9_B767C0
// 021   ----------------------------------------
 BYTE   PATT
  POIN2 Label_9_B76757
// 022   ----------------------------------------
 BYTE   PATT
  POIN2 Label_9_B7677A
// 023   ----------------------------------------
 BYTE   N06  An4  v100
 BYTE   W06
 BYTE   Cs5
 BYTE   W06
 BYTE   Fs5
 BYTE   W06
 BYTE   Bn4
 BYTE   W06
 BYTE   En5
 BYTE   W06
 BYTE   Gs5
 BYTE   W06
 BYTE   Cs5
 BYTE   W06
 BYTE   Fs5
 BYTE   W06
 BYTE   PAN   c_v+6
 BYTE   N23  An4  v120
 BYTE   N23  Fs5
 BYTE   W24
 BYTE   Bn4
 BYTE   N23  Gs5
 BYTE   W24
// 024   ----------------------------------------
Label_9_B76833:
 BYTE   N68  Cs5  v120
 BYTE   N68  An5
 BYTE   W72
 BYTE   N23
 BYTE   N23  Cs6
 BYTE   W24
 BYTE   PEND 
// 025   ----------------------------------------
Label_9_B7683E:
 BYTE   N44  Cs5  v120
 BYTE   N44  Gs5
 BYTE   W48
 BYTE   N44
 BYTE   N44  Cs6
 BYTE   W48
 BYTE   PEND 
// 026   ----------------------------------------
Label_9_B76849:
 BYTE   TIE  Ds5  v120
 BYTE   TIE  Fs5
 BYTE   W96
 BYTE   PEND 
// 027   ----------------------------------------
 BYTE   W64
 BYTE   W01
 BYTE   EOT
 BYTE   Ds5
 BYTE   W04
 BYTE   N11
 BYTE   W02
 BYTE   EOT
 BYTE   Fs5
 BYTE   W01
 BYTE   N11
 BYTE   W12
 BYTE   Ds5
 BYTE   N11  Gs5
 BYTE   W12
// 028   ----------------------------------------
 BYTE   N32  Cs5
 BYTE   N32  An5
 BYTE   W36
 BYTE   N23  An4
 BYTE   N23  Cs5
 BYTE   W24
 BYTE   N11  Bn4
 BYTE   N11  Gs5
 BYTE   W12
 BYTE   Cs5
 BYTE   N11  An5
 BYTE   W12
 BYTE   N44  Bn4
 BYTE   N44  Gs5
 BYTE   W12
// 029   ----------------------------------------
 BYTE   W36
 BYTE   N32
 BYTE   N32  Bn5
 BYTE   W36
 BYTE   N23  An5
 BYTE   N23  Cs6
 BYTE   W24
// 030   ----------------------------------------
 BYTE   TIE  Cs5
 BYTE   TIE  An5
 BYTE   W96
// 031   ----------------------------------------
 BYTE   W44
 BYTE   W02
 BYTE   EOT
 BYTE   Cs5  v093
 BYTE   W02
 BYTE   N23  An4
 BYTE   N23  Fs5
 BYTE   W24
 BYTE   Bn4
 BYTE   N23  Gs5
 BYTE   W24
// 032   ----------------------------------------
 BYTE   PATT
  POIN2 Label_9_B76833
// 033   ----------------------------------------
 BYTE   PATT
  POIN2 Label_9_B7683E
// 034   ----------------------------------------
 BYTE   PATT
  POIN2 Label_9_B76849
// 035   ----------------------------------------
 BYTE   W64
 BYTE   W01
 BYTE   EOT
 BYTE   Ds5
 BYTE   W04
 BYTE   N11  Ds5  v120
 BYTE   W02
 BYTE   EOT
 BYTE   Fs5
 BYTE   W01
 BYTE   N11
 BYTE   W12
 BYTE   Ds5
 BYTE   N11  Gs5
 BYTE   W12
// 036   ----------------------------------------
 BYTE   N32  Cs5
 BYTE   N32  An5
 BYTE   W36
 BYTE   N23  An4
 BYTE   N23  Cs5
 BYTE   W24
 BYTE   N11  Bn4
 BYTE   N11  Gs5
 BYTE   W12
 BYTE   Cs5
 BYTE   N11  An5
 BYTE   W12
 BYTE   N28  Bn4
 BYTE   N28  Gs5
 BYTE   W12
// 037   ----------------------------------------
 BYTE   W18
 BYTE   N17  Gs4
 BYTE   N17  Bn4
 BYTE   W18
 BYTE   N23  Gs5
 BYTE   W12
 BYTE   An5
 BYTE   W12
 BYTE   N06  Bn5
 BYTE   W06
 BYTE   En6
 BYTE   W06
 BYTE   Bn5
 BYTE   W06
 BYTE   Gs5
 BYTE   W06
 BYTE   TIE  An5
 BYTE   W06
 BYTE   Fs5
 BYTE   W06
// 038   ----------------------------------------
 BYTE   W92
 BYTE   W03
 BYTE   EOT
 BYTE   EOT
 BYTE   An5
 BYTE   W01
// 039   ----------------------------------------
 BYTE   N92
 BYTE   N92  Fs6
 BYTE   W96
// 040   ----------------------------------------
 BYTE   W96
// 041   ----------------------------------------
 BYTE   W96
// 042   ----------------------------------------
 BYTE   W96
// 043   ----------------------------------------
 BYTE   W96
// 044   ----------------------------------------
 BYTE   W96
// 045   ----------------------------------------
 BYTE   W96
// 046   ----------------------------------------
 BYTE   W96
// 047   ----------------------------------------
 BYTE   W96
// 048   ----------------------------------------
 BYTE   PATT
  POIN2 Label_9_B76732
// 049   ----------------------------------------
 BYTE   PATT
  POIN2 Label_9_B76757
// 050   ----------------------------------------
 BYTE   PATT
  POIN2 Label_9_B7677A
// 051   ----------------------------------------
 BYTE   PATT
  POIN2 Label_9_B7679D
// 052   ----------------------------------------
 BYTE   PATT
  POIN2 Label_9_B767C0
// 053   ----------------------------------------
 BYTE   PATT
  POIN2 Label_9_B76757
// 054   ----------------------------------------
 BYTE   PATT
  POIN2 Label_9_B7677A
// 055   ----------------------------------------
 BYTE   PATT
  POIN2 Label_9_B7679D
// 056   ----------------------------------------
 BYTE   PATT
  POIN2 Label_9_B767C0
// 057   ----------------------------------------
 BYTE   PATT
  POIN2 Label_9_B76757
// 058   ----------------------------------------
 BYTE   PATT
  POIN2 Label_9_B7677A
// 059   ----------------------------------------
 BYTE   PATT
  POIN2 Label_9_B7679D
// 060   ----------------------------------------
 BYTE   PATT
  POIN2 Label_9_B767C0
// 061   ----------------------------------------
 BYTE   PATT
  POIN2 Label_9_B76757
// 062   ----------------------------------------
 BYTE   PATT
  POIN2 Label_9_B7677A
// 063   ----------------------------------------
 BYTE   N06  An4  v100
 BYTE   W06
 BYTE   Cs5
 BYTE   W06
 BYTE   Fs5
 BYTE   W06
 BYTE   Bn4
 BYTE   W06
 BYTE   En5
 BYTE   W06
 BYTE   Gs5
 BYTE   W06
 BYTE   Cs5
 BYTE   W06
 BYTE   Fs5
 BYTE   W06
 BYTE   An4
 BYTE   W06
 BYTE   Cs5
 BYTE   W06
 BYTE   Fs5
 BYTE   W06
 BYTE   Bn4
 BYTE   W06
 BYTE   En5
 BYTE   W06
 BYTE   Gs5
 BYTE   W06
 BYTE   Cs5
 BYTE   W06
 BYTE   Fs5
 BYTE   W06
// 064   ----------------------------------------
 BYTE   GoTo
  POIN2 Label_9_B76732
 BYTE   FINE

//**************** Track 11 (Midi-Chn.10) ****************//

ChineseTea_011:
// 000   ----------------------------------------
 BYTE   KEYSH   ChineseTea_key+0
 BYTE   VOICE   4
 BYTE   VOL   27*ChineseTea_mvl/mxv
 BYTE   PAN   c_v-14
 BYTE   N17  Dn1  v060
 BYTE   W18
 BYTE   N28  An1
 BYTE   W30
 BYTE   N17  Gs1
 BYTE   W18
 BYTE   Bn1
 BYTE   W18
 BYTE   N11  En2
 BYTE   W12
// 001   ----------------------------------------
 BYTE   N08  Fs2
 BYTE   W09
 BYTE   Bn2
 BYTE   W09
 BYTE   N06  An1
 BYTE   W06
 BYTE   N08  En2
 BYTE   W09
 BYTE   Bn1
 BYTE   W09
 BYTE   N06  Gs1
 BYTE   W06
 BYTE   N44  An1
 BYTE   W48
// 002   ----------------------------------------
 BYTE   N17  Fs1
 BYTE   W18
 BYTE   N18  Dn2
 BYTE   W18
 BYTE   N11  An1
 BYTE   W12
 BYTE   N17  Fn2
 BYTE   W18
 BYTE   Bn1
 BYTE   W18
 BYTE   N11  Gs2
 BYTE   W12
// 003   ----------------------------------------
 BYTE   N44  An1
 BYTE   W48
 BYTE   N08  Cs2
 BYTE   W09
 BYTE   An2
 BYTE   W09
 BYTE   N06  Gs2
 BYTE   W06
 BYTE   N08  Bn1
 BYTE   W09
 BYTE   Gs2
 BYTE   W09
 BYTE   N06  Fs2
 BYTE   W06
// 004   ----------------------------------------
 BYTE   N06
 BYTE   W06
 BYTE   Dn2
 BYTE   W06
 BYTE   An1
 BYTE   W06
 BYTE   Dn2
 BYTE   W06
 BYTE   An2
 BYTE   W06
 BYTE   Fs2
 BYTE   W06
 BYTE   Dn2
 BYTE   W06
 BYTE   An1
 BYTE   W06
 BYTE   Bn1
 BYTE   W06
 BYTE   En2
 BYTE   W06
 BYTE   Gs2
 BYTE   W06
 BYTE   Bn2
 BYTE   W06
 BYTE   Gs2
 BYTE   W06
 BYTE   Bn2
 BYTE   W06
 BYTE   En3
 BYTE   W06
 BYTE   Bn2
 BYTE   W06
// 005   ----------------------------------------
 BYTE   Cs3
 BYTE   W06
 BYTE   An2
 BYTE   W06
 BYTE   Fs2
 BYTE   W06
 BYTE   Bn2
 BYTE   W06
 BYTE   Gs2
 BYTE   W06
 BYTE   En2
 BYTE   W06
 BYTE   An2
 BYTE   W06
 BYTE   Fs2
 BYTE   W06
 BYTE   Cs2
 BYTE   W06
 BYTE   Gs2
 BYTE   W06
 BYTE   En2
 BYTE   W06
 BYTE   Bn1
 BYTE   W06
 BYTE   Fs2
 BYTE   W06
 BYTE   An1
 BYTE   W06
 BYTE   An2
 BYTE   W06
 BYTE   En2
 BYTE   W06
// 006   ----------------------------------------
 BYTE   An2
 BYTE   W06
 BYTE   Fs2
 BYTE   W06
 BYTE   Dn2
 BYTE   W06
 BYTE   An2
 BYTE   W06
 BYTE   Fs2
 BYTE   W06
 BYTE   Dn2
 BYTE   W06
 BYTE   Dn3
 BYTE   W06
 BYTE   An2
 BYTE   W06
 BYTE   Gs2
 BYTE   W06
 BYTE   En2
 BYTE   W06
 BYTE   Bn1
 BYTE   W06
 BYTE   Gs2
 BYTE   W06
 BYTE   En2
 BYTE   W06
 BYTE   Bn1
 BYTE   W06
 BYTE   Bn2
 BYTE   W06
 BYTE   Gs2
 BYTE   W06
// 007   ----------------------------------------
 BYTE   An2
 BYTE   W06
 BYTE   Cs3
 BYTE   W06
 BYTE   Fs3
 BYTE   W06
 BYTE   Bn2
 BYTE   W06
 BYTE   En3
 BYTE   W06
 BYTE   Gs3
 BYTE   W06
 BYTE   Cs3
 BYTE   W06
 BYTE   Fs3
 BYTE   W06
 BYTE   An3
 BYTE   W06
 BYTE   Gs3
 BYTE   W06
 BYTE   En3
 BYTE   W06
 BYTE   Bn2
 BYTE   W06
 BYTE   Fs3
 BYTE   W06
 BYTE   Cs3
 BYTE   W06
 BYTE   An2
 BYTE   W06
 BYTE   Gs2
 BYTE   W06
// 008   ----------------------------------------
Label_10_015321E2:
 BYTE   PAN   c_v-4
 BYTE   N06  Fs2  v100
 BYTE   W06
 BYTE   Dn2
 BYTE   W06
 BYTE   An1
 BYTE   W06
 BYTE   Dn2
 BYTE   W06
 BYTE   An2
 BYTE   W06
 BYTE   Fs2
 BYTE   W06
 BYTE   Dn2
 BYTE   W06
 BYTE   An1
 BYTE   W06
 BYTE   Bn1
 BYTE   W06
 BYTE   En2
 BYTE   W06
 BYTE   Gs2
 BYTE   W06
 BYTE   Bn2
 BYTE   W06
 BYTE   Gs2
 BYTE   W06
 BYTE   Bn2
 BYTE   W06
 BYTE   En3
 BYTE   W06
 BYTE   Bn2
 BYTE   W06
// 009   ----------------------------------------
Label_10_01532206:
 BYTE   N06  Cs3  v100
 BYTE   W06
 BYTE   An2
 BYTE   W06
 BYTE   Fs2
 BYTE   W06
 BYTE   Bn2
 BYTE   W06
 BYTE   Gs2
 BYTE   W06
 BYTE   En2
 BYTE   W06
 BYTE   An2
 BYTE   W06
 BYTE   Fs2
 BYTE   W06
 BYTE   Cs2
 BYTE   W06
 BYTE   Gs2
 BYTE   W06
 BYTE   En2
 BYTE   W06
 BYTE   Bn1
 BYTE   W06
 BYTE   Fs2
 BYTE   W06
 BYTE   An1
 BYTE   W06
 BYTE   An2
 BYTE   W06
 BYTE   En2
 BYTE   W06
 BYTE   PEND 
// 010   ----------------------------------------
Label_10_01532229:
 BYTE   N06  An2  v100
 BYTE   W06
 BYTE   Fs2
 BYTE   W06
 BYTE   Dn2
 BYTE   W06
 BYTE   An2
 BYTE   W06
 BYTE   Fs2
 BYTE   W06
 BYTE   Dn2
 BYTE   W06
 BYTE   Dn3
 BYTE   W06
 BYTE   An2
 BYTE   W06
 BYTE   Gs2
 BYTE   W06
 BYTE   En2
 BYTE   W06
 BYTE   Bn1
 BYTE   W06
 BYTE   Gs2
 BYTE   W06
 BYTE   En2
 BYTE   W06
 BYTE   Bn1
 BYTE   W06
 BYTE   Bn2
 BYTE   W06
 BYTE   Gs2
 BYTE   W06
 BYTE   PEND 
// 011   ----------------------------------------
Label_10_0153224C:
 BYTE   N06  An2  v100
 BYTE   W06
 BYTE   Cs3
 BYTE   W06
 BYTE   Fs3
 BYTE   W06
 BYTE   Bn2
 BYTE   W06
 BYTE   En3
 BYTE   W06
 BYTE   Gs3
 BYTE   W06
 BYTE   Cs3
 BYTE   W06
 BYTE   Fs3
 BYTE   W06
 BYTE   An3
 BYTE   W06
 BYTE   Gs3
 BYTE   W06
 BYTE   En3
 BYTE   W06
 BYTE   Bn2
 BYTE   W06
 BYTE   Fs3
 BYTE   W06
 BYTE   Cs3
 BYTE   W06
 BYTE   An2
 BYTE   W06
 BYTE   Gs2
 BYTE   W06
 BYTE   PEND 
// 012   ----------------------------------------
Label_10_0153226F:
 BYTE   N06  Fs2  v100
 BYTE   W06
 BYTE   Dn2
 BYTE   W06
 BYTE   An1
 BYTE   W06
 BYTE   Dn2
 BYTE   W06
 BYTE   An2
 BYTE   W06
 BYTE   Fs2
 BYTE   W06
 BYTE   Dn2
 BYTE   W06
 BYTE   An1
 BYTE   W06
 BYTE   Bn1
 BYTE   W06
 BYTE   En2
 BYTE   W06
 BYTE   Gs2
 BYTE   W06
 BYTE   Bn2
 BYTE   W06
 BYTE   Gs2
 BYTE   W06
 BYTE   Bn2
 BYTE   W06
 BYTE   En3
 BYTE   W06
 BYTE   Bn2
 BYTE   W06
 BYTE   PEND 
// 013   ----------------------------------------
 BYTE   PATT
  POIN2 Label_10_01532206
// 014   ----------------------------------------
 BYTE   PATT
  POIN2 Label_10_01532229
// 015   ----------------------------------------
 BYTE   PATT
  POIN2 Label_10_0153224C
// 016   ----------------------------------------
 BYTE   PATT
  POIN2 Label_10_0153226F
// 017   ----------------------------------------
 BYTE   PATT
  POIN2 Label_10_01532206
// 018   ----------------------------------------
 BYTE   PATT
  POIN2 Label_10_01532229
// 019   ----------------------------------------
 BYTE   PATT
  POIN2 Label_10_0153224C
// 020   ----------------------------------------
 BYTE   PATT
  POIN2 Label_10_0153226F
// 021   ----------------------------------------
 BYTE   PATT
  POIN2 Label_10_01532206
// 022   ----------------------------------------
 BYTE   PATT
  POIN2 Label_10_01532229
// 023   ----------------------------------------
 BYTE   N06  An2  v100
 BYTE   W06
 BYTE   Cs3
 BYTE   W06
 BYTE   Fs3
 BYTE   W06
 BYTE   Bn2
 BYTE   W06
 BYTE   En3
 BYTE   W06
 BYTE   Gs3
 BYTE   W06
 BYTE   Cs3
 BYTE   W06
 BYTE   Fs3
 BYTE   W06
 BYTE   PAN   c_v+6
 BYTE   N23  An2  v120
 BYTE   N23  Fs3
 BYTE   W24
 BYTE   Bn2
 BYTE   N23  Gs3
 BYTE   W24
// 024   ----------------------------------------
Label_10_015322E2:
 BYTE   N68  Cs3  v120
 BYTE   N68  An3
 BYTE   W72
 BYTE   N23
 BYTE   N23  Cs4
 BYTE   W24
 BYTE   PEND 
// 025   ----------------------------------------
Label_10_015322ED:
 BYTE   N44  Cs3  v120
 BYTE   N44  Gs3
 BYTE   W48
 BYTE   N44
 BYTE   N44  Cs4
 BYTE   W48
 BYTE   PEND 
// 026   ----------------------------------------
Label_10_015322F8:
 BYTE   TIE  Ds3  v120
 BYTE   TIE  Fs3
 BYTE   W96
 BYTE   PEND 
// 027   ----------------------------------------
 BYTE   W64
 BYTE   W01
 BYTE   EOT
 BYTE   Ds3
 BYTE   W04
 BYTE   N11
 BYTE   W02
 BYTE   EOT
 BYTE   Fs3
 BYTE   W01
 BYTE   N11
 BYTE   W12
 BYTE   Ds3
 BYTE   N11  Gs3
 BYTE   W12
// 028   ----------------------------------------
 BYTE   N32  Cs3
 BYTE   N32  An3
 BYTE   W36
 BYTE   N23  An2
 BYTE   N23  Cs3
 BYTE   W24
 BYTE   N11  Bn2
 BYTE   N11  Gs3
 BYTE   W12
 BYTE   Cs3
 BYTE   N11  An3
 BYTE   W12
 BYTE   N44  Bn2
 BYTE   N44  Gs3
 BYTE   W12
// 029   ----------------------------------------
 BYTE   W36
 BYTE   N32
 BYTE   N32  Bn3
 BYTE   W36
 BYTE   N23  An3
 BYTE   N23  Cs4
 BYTE   W24
// 030   ----------------------------------------
 BYTE   TIE  Cs3
 BYTE   TIE  An3
 BYTE   W96
// 031   ----------------------------------------
 BYTE   W44
 BYTE   W02
 BYTE   EOT
 BYTE   Cs3  v069
 BYTE   W02
 BYTE   N23  An2
 BYTE   N23  Fs3
 BYTE   W24
 BYTE   Bn2
 BYTE   N23  Gs3
 BYTE   W24
// 032   ----------------------------------------
 BYTE   PATT
  POIN2 Label_10_015322E2
// 033   ----------------------------------------
 BYTE   PATT
  POIN2 Label_10_015322ED
// 034   ----------------------------------------
 BYTE   PATT
  POIN2 Label_10_015322F8
// 035   ----------------------------------------
 BYTE   W64
 BYTE   W01
 BYTE   EOT
 BYTE   Ds3
 BYTE   W04
 BYTE   N11  Ds3  v120
 BYTE   W02
 BYTE   EOT
 BYTE   Fs3
 BYTE   W01
 BYTE   N11
 BYTE   W12
 BYTE   Ds3
 BYTE   N11  Gs3
 BYTE   W12
// 036   ----------------------------------------
 BYTE   N32  Cs3
 BYTE   N32  An3
 BYTE   W36
 BYTE   N23  An2
 BYTE   N23  Cs3
 BYTE   W24
 BYTE   N11  Bn2
 BYTE   N11  Gs3
 BYTE   W12
 BYTE   Cs3
 BYTE   N11  An3
 BYTE   W12
 BYTE   N28  Bn2
 BYTE   N28  Gs3
 BYTE   W12
// 037   ----------------------------------------
 BYTE   W18
 BYTE   N17  Gs2
 BYTE   N17  Bn2
 BYTE   W18
 BYTE   N23  Gs3
 BYTE   W12
 BYTE   An3
 BYTE   W12
 BYTE   N06  Bn3
 BYTE   W06
 BYTE   En4
 BYTE   W06
 BYTE   Bn3
 BYTE   W06
 BYTE   Gs3
 BYTE   W06
 BYTE   TIE  An3
 BYTE   W06
 BYTE   Fs3
 BYTE   W06
// 038   ----------------------------------------
 BYTE   W92
 BYTE   W03
 BYTE   EOT
 BYTE   EOT
 BYTE   An3
 BYTE   W01
// 039   ----------------------------------------
 BYTE   N92
 BYTE   N92  Fs4
 BYTE   W96
// 040   ----------------------------------------
 BYTE   W96
// 041   ----------------------------------------
 BYTE   W96
// 042   ----------------------------------------
 BYTE   W96
// 043   ----------------------------------------
 BYTE   W96
// 044   ----------------------------------------
 BYTE   W96
// 045   ----------------------------------------
 BYTE   W96
// 046   ----------------------------------------
 BYTE   W96
// 047   ----------------------------------------
 BYTE   W96
// 048   ----------------------------------------
 BYTE   PAN   c_v-34
 BYTE   N06  Fs2  v100
 BYTE   W06
 BYTE   Dn2
 BYTE   W06
 BYTE   An1
 BYTE   W06
 BYTE   Dn2
 BYTE   W06
 BYTE   An2
 BYTE   W06
 BYTE   Fs2
 BYTE   W06
 BYTE   Dn2
 BYTE   W06
 BYTE   An1
 BYTE   W06
 BYTE   Bn1
 BYTE   W06
 BYTE   En2
 BYTE   W06
 BYTE   Gs2
 BYTE   W06
 BYTE   Bn2
 BYTE   W06
 BYTE   Gs2
 BYTE   W06
 BYTE   Bn2
 BYTE   W06
 BYTE   En3
 BYTE   W06
 BYTE   Bn2
 BYTE   W06
// 049   ----------------------------------------
 BYTE   PATT
  POIN2 Label_10_01532206
// 050   ----------------------------------------
 BYTE   PATT
  POIN2 Label_10_01532229
// 051   ----------------------------------------
 BYTE   PATT
  POIN2 Label_10_0153224C
// 052   ----------------------------------------
 BYTE   PATT
  POIN2 Label_10_0153226F
// 053   ----------------------------------------
 BYTE   PATT
  POIN2 Label_10_01532206
// 054   ----------------------------------------
 BYTE   PATT
  POIN2 Label_10_01532229
// 055   ----------------------------------------
 BYTE   PATT
  POIN2 Label_10_0153224C
// 056   ----------------------------------------
 BYTE   PATT
  POIN2 Label_10_0153226F
// 057   ----------------------------------------
 BYTE   PATT
  POIN2 Label_10_01532206
// 058   ----------------------------------------
 BYTE   PATT
  POIN2 Label_10_01532229
// 059   ----------------------------------------
 BYTE   PATT
  POIN2 Label_10_0153224C
// 060   ----------------------------------------
 BYTE   PATT
  POIN2 Label_10_0153226F
// 061   ----------------------------------------
 BYTE   PATT
  POIN2 Label_10_01532206
// 062   ----------------------------------------
 BYTE   PATT
  POIN2 Label_10_01532229
// 063   ----------------------------------------
 BYTE   N06  An2  v100
 BYTE   W06
 BYTE   Cs3
 BYTE   W06
 BYTE   Fs3
 BYTE   W06
 BYTE   Bn2
 BYTE   W06
 BYTE   En3
 BYTE   W06
 BYTE   Gs3
 BYTE   W06
 BYTE   Cs3
 BYTE   W06
 BYTE   Fs3
 BYTE   W06
 BYTE   An2
 BYTE   W06
 BYTE   Cs3
 BYTE   W06
 BYTE   Fs3
 BYTE   W06
 BYTE   Bn2
 BYTE   W06
 BYTE   En3
 BYTE   W06
 BYTE   Gs3
 BYTE   W06
 BYTE   Cs3
 BYTE   W06
 BYTE   Fs3
 BYTE   W06
// 064   ----------------------------------------
 BYTE   GoTo
  POIN2 Label_10_015321E2
 BYTE   FINE

//**************** Track 12 (Midi-Chn.11) ****************//

ChineseTea_012:
// 000   ----------------------------------------
 BYTE   KEYSH   ChineseTea_key+0
 BYTE   VOICE   0
 BYTE   VOL   39*ChineseTea_mvl/mxv
 BYTE   PAN   c_v+0
 BYTE   W96
// 001   ----------------------------------------
 BYTE   W96
// 002   ----------------------------------------
 BYTE   W96
// 003   ----------------------------------------
 BYTE   W96
// 004   ----------------------------------------
 BYTE   W96
// 005   ----------------------------------------
 BYTE   W96
// 006   ----------------------------------------
 BYTE   W96
// 007   ----------------------------------------
 BYTE   W96
// 008   ----------------------------------------
Label_11_01552ABC:
 BYTE   W96
// 009   ----------------------------------------
 BYTE   W96
// 010   ----------------------------------------
 BYTE   W96
// 011   ----------------------------------------
 BYTE   W96
// 012   ----------------------------------------
 BYTE   W96
// 013   ----------------------------------------
 BYTE   W96
// 014   ----------------------------------------
 BYTE   W96
// 015   ----------------------------------------
 BYTE   W96
// 016   ----------------------------------------
 BYTE   W96
// 017   ----------------------------------------
 BYTE   W96
// 018   ----------------------------------------
 BYTE   W96
// 019   ----------------------------------------
 BYTE   W96
// 020   ----------------------------------------
 BYTE   W96
// 021   ----------------------------------------
 BYTE   W96
// 022   ----------------------------------------
 BYTE   W96
// 023   ----------------------------------------
 BYTE   W96
// 024   ----------------------------------------
 BYTE   N12  Gs2  v092
 BYTE   W06
 BYTE   An2
 BYTE   W06
 BYTE   Cs3
 BYTE   W06
 BYTE   Fs3
 BYTE   W06
 BYTE   An3
 BYTE   W06
 BYTE   Cs4
 BYTE   W06
 BYTE   Fs4
 BYTE   W06
 BYTE   An4
 BYTE   W06
 BYTE   Cs4
 BYTE   W06
 BYTE   Fs4
 BYTE   W06
 BYTE   An4
 BYTE   W06
 BYTE   Gs4
 BYTE   W06
 BYTE   An3
 BYTE   W06
 BYTE   Cs4
 BYTE   W06
 BYTE   En4
 BYTE   W06
 BYTE   Fs4
 BYTE   W06
// 025   ----------------------------------------
 BYTE   En2
 BYTE   W06
 BYTE   Fs2
 BYTE   W06
 BYTE   Gs2
 BYTE   W06
 BYTE   Cs3
 BYTE   W06
 BYTE   En3
 BYTE   W06
 BYTE   Gs3
 BYTE   W06
 BYTE   Cs4
 BYTE   W06
 BYTE   En4
 BYTE   W06
 BYTE   Gs4
 BYTE   W06
 BYTE   Bn4
 BYTE   W06
 BYTE   Gs4
 BYTE   W06
 BYTE   En5
 BYTE   W06
 BYTE   Bn4
 BYTE   W06
 BYTE   Gs4
 BYTE   W06
 BYTE   En4
 BYTE   W06
 BYTE   Bn3
 BYTE   W06
// 026   ----------------------------------------
 BYTE   Ds2
 BYTE   W06
 BYTE   Gs2
 BYTE   W06
 BYTE   Bn2
 BYTE   W06
 BYTE   Ds3
 BYTE   W06
 BYTE   Gs3
 BYTE   W06
 BYTE   Bn3
 BYTE   W06
 BYTE   Gs3
 BYTE   W06
 BYTE   Bn3
 BYTE   W06
 BYTE   Ds4
 BYTE   W06
 BYTE   Fs4
 BYTE   W06
 BYTE   Gs4
 BYTE   W06
 BYTE   Bn4
 BYTE   W06
 BYTE   Gs4
 BYTE   W06
 BYTE   Bn4
 BYTE   W06
 BYTE   Ds4
 BYTE   W06
 BYTE   Gs3
 BYTE   W06
// 027   ----------------------------------------
 BYTE   Ds4
 BYTE   W06
 BYTE   Bn3
 BYTE   W06
 BYTE   An3
 BYTE   W06
 BYTE   Gs3
 BYTE   W06
 BYTE   Bn3
 BYTE   W06
 BYTE   Gs3
 BYTE   W06
 BYTE   Ds3
 BYTE   W06
 BYTE   Bn2
 BYTE   W06
 BYTE   An2
 BYTE   W06
 BYTE   Gs2
 BYTE   W06
 BYTE   An2
 BYTE   W06
 BYTE   Bn2
 BYTE   W06
 BYTE   Cs3
 BYTE   W06
 BYTE   Gs3
 BYTE   W06
 BYTE   An3
 BYTE   W06
 BYTE   Gs3
 BYTE   W06
// 028   ----------------------------------------
 BYTE   Dn2
 BYTE   W06
 BYTE   Fs2
 BYTE   W06
 BYTE   An2
 BYTE   W06
 BYTE   Dn3
 BYTE   W06
 BYTE   Fs3
 BYTE   W06
 BYTE   An3
 BYTE   W06
 BYTE   Dn4
 BYTE   W06
 BYTE   Fs4
 BYTE   W06
 BYTE   An4
 BYTE   W06
 BYTE   Gs4
 BYTE   W06
 BYTE   En4
 BYTE   W06
 BYTE   Dn4
 BYTE   W06
 BYTE   Fs4
 BYTE   W06
 BYTE   An4
 BYTE   W06
 BYTE   Fs4
 BYTE   W06
 BYTE   Dn4
 BYTE   W06
// 029   ----------------------------------------
 BYTE   En2
 BYTE   W06
 BYTE   Gs2
 BYTE   W06
 BYTE   Bn2
 BYTE   W06
 BYTE   En3
 BYTE   W06
 BYTE   Gs3
 BYTE   W06
 BYTE   Bn3
 BYTE   W06
 BYTE   En4
 BYTE   W06
 BYTE   Gs4
 BYTE   W06
 BYTE   Bn4
 BYTE   W06
 BYTE   Gs4
 BYTE   W06
 BYTE   En4
 BYTE   W06
 BYTE   Bn4
 BYTE   W06
 BYTE   Gs4
 BYTE   W06
 BYTE   En4
 BYTE   W06
 BYTE   Bn4
 BYTE   W06
 BYTE   En4
 BYTE   W06
// 030   ----------------------------------------
 BYTE   Fs2
 BYTE   W06
 BYTE   Gs2
 BYTE   W06
 BYTE   An2
 BYTE   W06
 BYTE   Cs3
 BYTE   W06
 BYTE   Fs3
 BYTE   W06
 BYTE   Gs3
 BYTE   W06
 BYTE   An3
 BYTE   W06
 BYTE   Cs4
 BYTE   W06
 BYTE   Fs4
 BYTE   W06
 BYTE   Gs4
 BYTE   W06
 BYTE   An4
 BYTE   W06
 BYTE   Cs5
 BYTE   W06
 BYTE   Fs5
 BYTE   W06
 BYTE   Cs5
 BYTE   W06
 BYTE   An4
 BYTE   W06
 BYTE   Gs4
 BYTE   W06
// 031   ----------------------------------------
 BYTE   Fs4
 BYTE   W06
 BYTE   An4
 BYTE   W06
 BYTE   Gs4
 BYTE   W06
 BYTE   Cs4
 BYTE   W06
 BYTE   Gs4
 BYTE   W06
 BYTE   Fs4
 BYTE   W06
 BYTE   Bn3
 BYTE   W06
 BYTE   Fs4
 BYTE   W06
 BYTE   En4
 BYTE   W06
 BYTE   An3
 BYTE   W06
 BYTE   En4
 BYTE   W06
 BYTE   Dn4
 BYTE   W06
 BYTE   Cs4
 BYTE   W06
 BYTE   Bn3
 BYTE   W06
 BYTE   An3
 BYTE   W06
 BYTE   Gs3
 BYTE   W06
// 032   ----------------------------------------
 BYTE   Gs2  v100
 BYTE   W06
 BYTE   An2
 BYTE   W06
 BYTE   Cs3
 BYTE   W06
 BYTE   Fs3
 BYTE   W06
 BYTE   An3
 BYTE   W06
 BYTE   Cs4
 BYTE   W06
 BYTE   Fs4
 BYTE   W06
 BYTE   An4  v104
 BYTE   W06
 BYTE   Cs4
 BYTE   W06
 BYTE   Fs4
 BYTE   W06
 BYTE   An4
 BYTE   W06
 BYTE   Gs4
 BYTE   W06
 BYTE   An3
 BYTE   W06
 BYTE   Cs4
 BYTE   W06
 BYTE   En4
 BYTE   W06
 BYTE   Fs4
 BYTE   W06
// 033   ----------------------------------------
 BYTE   En2
 BYTE   W06
 BYTE   Fs2
 BYTE   W06
 BYTE   Gs2
 BYTE   W06
 BYTE   Cs3
 BYTE   W06
 BYTE   En3
 BYTE   W06
 BYTE   Gs3
 BYTE   W06
 BYTE   Cs4
 BYTE   W06
 BYTE   En4
 BYTE   W06
 BYTE   Gs4
 BYTE   W06
 BYTE   Bn4
 BYTE   W06
 BYTE   Gs4
 BYTE   W06
 BYTE   En5
 BYTE   W06
 BYTE   Bn4
 BYTE   W06
 BYTE   Gs4
 BYTE   W06
 BYTE   En4
 BYTE   W06
 BYTE   Bn3
 BYTE   W06
// 034   ----------------------------------------
 BYTE   Ds2
 BYTE   W06
 BYTE   Gs2
 BYTE   W06
 BYTE   Bn2
 BYTE   W06
 BYTE   Ds3
 BYTE   W06
 BYTE   Gs3
 BYTE   W06
 BYTE   Bn3
 BYTE   W06
 BYTE   Gs3
 BYTE   W06
 BYTE   Bn3
 BYTE   W06
 BYTE   Ds4
 BYTE   W06
 BYTE   Fs4
 BYTE   W06
 BYTE   Gs4
 BYTE   W06
 BYTE   Bn4
 BYTE   W06
 BYTE   Gs4
 BYTE   W06
 BYTE   Bn4
 BYTE   W06
 BYTE   Ds4
 BYTE   W06
 BYTE   Gs3
 BYTE   W06
// 035   ----------------------------------------
 BYTE   Ds4
 BYTE   W06
 BYTE   Bn3
 BYTE   W06
 BYTE   An3
 BYTE   W06
 BYTE   Gs3
 BYTE   W06
 BYTE   Bn3
 BYTE   W06
 BYTE   Gs3
 BYTE   W06
 BYTE   Ds3
 BYTE   W06
 BYTE   Bn2
 BYTE   W06
 BYTE   An2
 BYTE   W06
 BYTE   Gs2
 BYTE   W06
 BYTE   An2  v108
 BYTE   W06
 BYTE   Bn2
 BYTE   W06
 BYTE   Cs3
 BYTE   W06
 BYTE   Gs3
 BYTE   W06
 BYTE   An3
 BYTE   W06
 BYTE   Gs3
 BYTE   W06
// 036   ----------------------------------------
 BYTE   Dn2
 BYTE   W06
 BYTE   Fs2
 BYTE   W06
 BYTE   An2
 BYTE   W06
 BYTE   Dn3
 BYTE   W06
 BYTE   Fs3
 BYTE   W06
 BYTE   An3
 BYTE   W06
 BYTE   Dn4
 BYTE   W06
 BYTE   Fs4
 BYTE   W06
 BYTE   An4
 BYTE   W06
 BYTE   Gs4
 BYTE   W06
 BYTE   En4
 BYTE   W06
 BYTE   Dn4
 BYTE   W06
 BYTE   Fs4
 BYTE   W06
 BYTE   An4
 BYTE   W06
 BYTE   Fs4
 BYTE   W06
 BYTE   Dn4
 BYTE   W06
// 037   ----------------------------------------
 BYTE   En2
 BYTE   W06
 BYTE   Gs2
 BYTE   W06
 BYTE   Bn2
 BYTE   W06
 BYTE   En3
 BYTE   W06
 BYTE   Gs3
 BYTE   W06
 BYTE   Bn3
 BYTE   W06
 BYTE   En4
 BYTE   W06
 BYTE   Gs4
 BYTE   W06
 BYTE   Bn4
 BYTE   W06
 BYTE   Gs4
 BYTE   W06
 BYTE   En4
 BYTE   W06
 BYTE   Bn4
 BYTE   W06
 BYTE   Gs4
 BYTE   W06
 BYTE   En4
 BYTE   W06
 BYTE   Bn4
 BYTE   W06
 BYTE   En4
 BYTE   W06
// 038   ----------------------------------------
 BYTE   Fs2
 BYTE   W06
 BYTE   Gs2
 BYTE   W06
 BYTE   An2
 BYTE   W06
 BYTE   Cs3
 BYTE   W06
 BYTE   Fs3
 BYTE   W06
 BYTE   Gs3
 BYTE   W06
 BYTE   An3
 BYTE   W06
 BYTE   Cs4
 BYTE   W06
 BYTE   Fs4
 BYTE   W06
 BYTE   Gs4
 BYTE   W06
 BYTE   An4
 BYTE   W06
 BYTE   Cs5
 BYTE   W06
 BYTE   Fs5
 BYTE   W06
 BYTE   Cs5  v112
 BYTE   W06
 BYTE   An4
 BYTE   W06
 BYTE   Gs4
 BYTE   W06
// 039   ----------------------------------------
 BYTE   Fs4
 BYTE   W06
 BYTE   An4
 BYTE   W06
 BYTE   Gs4
 BYTE   W06
 BYTE   Cs4
 BYTE   W06
 BYTE   Gs4
 BYTE   W06
 BYTE   Fs4
 BYTE   W06
 BYTE   Bn3
 BYTE   W06
 BYTE   Fs4
 BYTE   W06
 BYTE   En4
 BYTE   W06
 BYTE   An3
 BYTE   W06
 BYTE   En4
 BYTE   W06
 BYTE   Dn4
 BYTE   W06
 BYTE   Cs4
 BYTE   W06
 BYTE   Bn3
 BYTE   W06
 BYTE   An3
 BYTE   W06
 BYTE   Gs3
 BYTE   W06
// 040   ----------------------------------------
Label_11_01552CD2:
 BYTE   N11  Dn3  v112
 BYTE   N11  An3
 BYTE   W12
 BYTE   Fs4
 BYTE   N11  An4
 BYTE   W12
 BYTE   Dn3
 BYTE   N11  An3
 BYTE   W12
 BYTE   Fs4
 BYTE   N11  An4
 BYTE   W12
 BYTE   En3
 BYTE   N11  Bn3
 BYTE   W12
 BYTE   Gs4
 BYTE   N11  Bn4
 BYTE   W12
 BYTE   En3
 BYTE   N11  Bn3
 BYTE   W12
 BYTE   Gs4
 BYTE   N11  Bn4
 BYTE   W12
 BYTE   PEND 
// 041   ----------------------------------------
Label_11_01552CF5:
 BYTE   N11  Fs3  v112
 BYTE   N11  Cs4
 BYTE   W12
 BYTE   Fs4
 BYTE   N11  An4
 BYTE   W12
 BYTE   Fs3
 BYTE   N11  Cs4
 BYTE   W12
 BYTE   Fs4
 BYTE   N11  An4
 BYTE   W12
 BYTE   Fs3
 BYTE   N11  Cs4
 BYTE   W12
 BYTE   Fs4
 BYTE   N11  An4
 BYTE   W12
 BYTE   Fs3
 BYTE   N11  Cs4
 BYTE   W12
 BYTE   Fs4
 BYTE   N11  An4
 BYTE   W12
 BYTE   PEND 
// 042   ----------------------------------------
Label_11_01552D18:
 BYTE   N11  Dn3  v112
 BYTE   N11  An3
 BYTE   W12
 BYTE   Dn4
 BYTE   N11  Fs4
 BYTE   W12
 BYTE   Dn3
 BYTE   N11  An3
 BYTE   W12
 BYTE   Dn4
 BYTE   N11  Fs4
 BYTE   W12
 BYTE   En3
 BYTE   N11  Bn3
 BYTE   W12
 BYTE   En4
 BYTE   N11  Gs4
 BYTE   W12
 BYTE   En3
 BYTE   N11  Bn3
 BYTE   W12
 BYTE   En4
 BYTE   N11  Gs4
 BYTE   W12
 BYTE   PEND 
// 043   ----------------------------------------
Label_11_01552D3B:
 BYTE   N11  Fs3  v112
 BYTE   N11  Cs4
 BYTE   W12
 BYTE   Fs4
 BYTE   N11  An4
 BYTE   W12
 BYTE   Fs3
 BYTE   N11  Cs4
 BYTE   W12
 BYTE   Gs4
 BYTE   N11  Bn4
 BYTE   W12
 BYTE   Fs3
 BYTE   N11  Cs4
 BYTE   W12
 BYTE   An4
 BYTE   N11  Cs5
 BYTE   W12
 BYTE   Fs3
 BYTE   N11  Cs4
 BYTE   W12
 BYTE   An4
 BYTE   N11  Fs5
 BYTE   W12
 BYTE   PEND 
// 044   ----------------------------------------
 BYTE   PATT
  POIN2 Label_11_01552CD2
// 045   ----------------------------------------
 BYTE   PATT
  POIN2 Label_11_01552CF5
// 046   ----------------------------------------
 BYTE   PATT
  POIN2 Label_11_01552D18
// 047   ----------------------------------------
 BYTE   PATT
  POIN2 Label_11_01552D3B
// 048   ----------------------------------------
 BYTE   W96
// 049   ----------------------------------------
 BYTE   W96
// 050   ----------------------------------------
 BYTE   W96
// 051   ----------------------------------------
 BYTE   W96
// 052   ----------------------------------------
 BYTE   W96
// 053   ----------------------------------------
 BYTE   W96
// 054   ----------------------------------------
 BYTE   W96
// 055   ----------------------------------------
 BYTE   W96
// 056   ----------------------------------------
 BYTE   W96
// 057   ----------------------------------------
 BYTE   W96
// 058   ----------------------------------------
 BYTE   W96
// 059   ----------------------------------------
 BYTE   W96
// 060   ----------------------------------------
 BYTE   W96
// 061   ----------------------------------------
 BYTE   W96
// 062   ----------------------------------------
 BYTE   W96
// 063   ----------------------------------------
 BYTE   W96
// 064   ----------------------------------------
 BYTE   GoTo
  POIN2 Label_11_01552ABC
 BYTE   FINE

//**************** Track 13 (Midi-Chn.12) ****************//

ChineseTea_013:
// 000   ----------------------------------------
 BYTE   KEYSH   ChineseTea_key+0
 BYTE   VOICE   0
 BYTE   VOL   30*ChineseTea_mvl/mxv
 BYTE   PAN   c_v+26
 BYTE   W96
// 001   ----------------------------------------
 BYTE   W96
// 002   ----------------------------------------
 BYTE   W96
// 003   ----------------------------------------
 BYTE   W96
// 004   ----------------------------------------
 BYTE   W96
// 005   ----------------------------------------
 BYTE   W96
// 006   ----------------------------------------
 BYTE   W96
// 007   ----------------------------------------
 BYTE   W96
// 008   ----------------------------------------
Label_12_01531C70:
 BYTE   W96
// 009   ----------------------------------------
 BYTE   W96
// 010   ----------------------------------------
 BYTE   W96
// 011   ----------------------------------------
 BYTE   W96
// 012   ----------------------------------------
 BYTE   W96
// 013   ----------------------------------------
 BYTE   W96
// 014   ----------------------------------------
 BYTE   W96
// 015   ----------------------------------------
 BYTE   W96
// 016   ----------------------------------------
 BYTE   W96
// 017   ----------------------------------------
 BYTE   W96
// 018   ----------------------------------------
 BYTE   W96
// 019   ----------------------------------------
 BYTE   W96
// 020   ----------------------------------------
 BYTE   W96
// 021   ----------------------------------------
 BYTE   W96
// 022   ----------------------------------------
 BYTE   W96
// 023   ----------------------------------------
 BYTE   W96
// 024   ----------------------------------------
 BYTE   N12  Gs1  v092
 BYTE   W06
 BYTE   An1
 BYTE   W06
 BYTE   Cs2
 BYTE   W06
 BYTE   Fs2
 BYTE   W06
 BYTE   An2
 BYTE   W06
 BYTE   Cs3
 BYTE   W06
 BYTE   Fs3
 BYTE   W06
 BYTE   An3
 BYTE   W06
 BYTE   Cs3
 BYTE   W06
 BYTE   Fs3
 BYTE   W06
 BYTE   An3
 BYTE   W06
 BYTE   Gs3
 BYTE   W06
 BYTE   An2
 BYTE   W06
 BYTE   Cs3
 BYTE   W06
 BYTE   En3
 BYTE   W06
 BYTE   Fs3
 BYTE   W06
// 025   ----------------------------------------
 BYTE   En1
 BYTE   W06
 BYTE   Fs1
 BYTE   W06
 BYTE   Gs1
 BYTE   W06
 BYTE   Cs2
 BYTE   W06
 BYTE   En2
 BYTE   W06
 BYTE   Gs2
 BYTE   W06
 BYTE   Cs3
 BYTE   W06
 BYTE   En3
 BYTE   W06
 BYTE   Gs3
 BYTE   W06
 BYTE   Bn3
 BYTE   W06
 BYTE   Gs3
 BYTE   W06
 BYTE   En4
 BYTE   W06
 BYTE   Bn3
 BYTE   W06
 BYTE   Gs3
 BYTE   W06
 BYTE   En3
 BYTE   W06
 BYTE   Bn2
 BYTE   W06
// 026   ----------------------------------------
 BYTE   Ds1
 BYTE   W06
 BYTE   Gs1
 BYTE   W06
 BYTE   Bn1
 BYTE   W06
 BYTE   Ds2
 BYTE   W06
 BYTE   Gs2
 BYTE   W06
 BYTE   Bn2
 BYTE   W06
 BYTE   Gs2
 BYTE   W06
 BYTE   Bn2
 BYTE   W06
 BYTE   Ds3
 BYTE   W06
 BYTE   Fs3
 BYTE   W06
 BYTE   Gs3
 BYTE   W06
 BYTE   Bn3
 BYTE   W06
 BYTE   Gs3
 BYTE   W06
 BYTE   Bn3
 BYTE   W06
 BYTE   Ds3
 BYTE   W06
 BYTE   Gs2
 BYTE   W06
// 027   ----------------------------------------
 BYTE   Ds3
 BYTE   W06
 BYTE   Bn2
 BYTE   W06
 BYTE   An2
 BYTE   W06
 BYTE   Gs2
 BYTE   W06
 BYTE   Bn2
 BYTE   W06
 BYTE   Gs2
 BYTE   W06
 BYTE   Ds2
 BYTE   W06
 BYTE   Bn1
 BYTE   W06
 BYTE   An1
 BYTE   W06
 BYTE   Gs1
 BYTE   W06
 BYTE   An1
 BYTE   W06
 BYTE   Bn1
 BYTE   W06
 BYTE   Cs2
 BYTE   W06
 BYTE   Gs2
 BYTE   W06
 BYTE   An2
 BYTE   W06
 BYTE   Gs2
 BYTE   W06
// 028   ----------------------------------------
 BYTE   Dn1
 BYTE   W06
 BYTE   Fs1
 BYTE   W06
 BYTE   An1
 BYTE   W06
 BYTE   Dn2
 BYTE   W06
 BYTE   Fs2
 BYTE   W06
 BYTE   An2
 BYTE   W06
 BYTE   Dn3
 BYTE   W06
 BYTE   Fs3
 BYTE   W06
 BYTE   An3
 BYTE   W06
 BYTE   Gs3
 BYTE   W06
 BYTE   En3
 BYTE   W06
 BYTE   Dn3
 BYTE   W06
 BYTE   Fs3
 BYTE   W06
 BYTE   An3
 BYTE   W06
 BYTE   Fs3
 BYTE   W06
 BYTE   Dn3
 BYTE   W06
// 029   ----------------------------------------
 BYTE   En1
 BYTE   W06
 BYTE   Gs1
 BYTE   W06
 BYTE   Bn1
 BYTE   W06
 BYTE   En2
 BYTE   W06
 BYTE   Gs2
 BYTE   W06
 BYTE   Bn2
 BYTE   W06
 BYTE   En3
 BYTE   W06
 BYTE   Gs3
 BYTE   W06
 BYTE   Bn3
 BYTE   W06
 BYTE   Gs3
 BYTE   W06
 BYTE   En3
 BYTE   W06
 BYTE   Bn3
 BYTE   W06
 BYTE   Gs3
 BYTE   W06
 BYTE   En3
 BYTE   W06
 BYTE   Bn3
 BYTE   W06
 BYTE   En3
 BYTE   W06
// 030   ----------------------------------------
 BYTE   Fs1
 BYTE   W06
 BYTE   Gs1
 BYTE   W06
 BYTE   An1
 BYTE   W06
 BYTE   Cs2
 BYTE   W06
 BYTE   Fs2
 BYTE   W06
 BYTE   Gs2
 BYTE   W06
 BYTE   An2
 BYTE   W06
 BYTE   Cs3
 BYTE   W06
 BYTE   Fs3
 BYTE   W06
 BYTE   Gs3
 BYTE   W06
 BYTE   An3
 BYTE   W06
 BYTE   Cs4
 BYTE   W06
 BYTE   Fs4
 BYTE   W06
 BYTE   Cs4
 BYTE   W06
 BYTE   An3
 BYTE   W06
 BYTE   Gs3
 BYTE   W06
// 031   ----------------------------------------
 BYTE   Fs3
 BYTE   W06
 BYTE   An3
 BYTE   W06
 BYTE   Gs3
 BYTE   W06
 BYTE   Cs3
 BYTE   W06
 BYTE   Gs3
 BYTE   W06
 BYTE   Fs3
 BYTE   W06
 BYTE   Bn2
 BYTE   W06
 BYTE   Fs3
 BYTE   W06
 BYTE   En3
 BYTE   W06
 BYTE   An2
 BYTE   W06
 BYTE   En3
 BYTE   W06
 BYTE   Dn3
 BYTE   W06
 BYTE   Cs3
 BYTE   W06
 BYTE   Bn2
 BYTE   W06
 BYTE   An2
 BYTE   W06
 BYTE   Gs2
 BYTE   W06
// 032   ----------------------------------------
 BYTE   Gs1  v100
 BYTE   W06
 BYTE   An1
 BYTE   W06
 BYTE   Cs2
 BYTE   W06
 BYTE   Fs2
 BYTE   W06
 BYTE   An2
 BYTE   W06
 BYTE   Cs3
 BYTE   W06
 BYTE   Fs3
 BYTE   W06
 BYTE   An3  v104
 BYTE   W06
 BYTE   Cs3
 BYTE   W06
 BYTE   Fs3
 BYTE   W06
 BYTE   An3
 BYTE   W06
 BYTE   Gs3
 BYTE   W06
 BYTE   An2
 BYTE   W06
 BYTE   Cs3
 BYTE   W06
 BYTE   En3
 BYTE   W06
 BYTE   Fs3
 BYTE   W06
// 033   ----------------------------------------
 BYTE   En1
 BYTE   W06
 BYTE   Fs1
 BYTE   W06
 BYTE   Gs1
 BYTE   W06
 BYTE   Cs2
 BYTE   W06
 BYTE   En2
 BYTE   W06
 BYTE   Gs2
 BYTE   W06
 BYTE   Cs3
 BYTE   W06
 BYTE   En3
 BYTE   W06
 BYTE   Gs3
 BYTE   W06
 BYTE   Bn3
 BYTE   W06
 BYTE   Gs3
 BYTE   W06
 BYTE   En4
 BYTE   W06
 BYTE   Bn3
 BYTE   W06
 BYTE   Gs3
 BYTE   W06
 BYTE   En3
 BYTE   W06
 BYTE   Bn2
 BYTE   W06
// 034   ----------------------------------------
 BYTE   Ds1
 BYTE   W06
 BYTE   Gs1
 BYTE   W06
 BYTE   Bn1
 BYTE   W06
 BYTE   Ds2
 BYTE   W06
 BYTE   Gs2
 BYTE   W06
 BYTE   Bn2
 BYTE   W06
 BYTE   Gs2
 BYTE   W06
 BYTE   Bn2
 BYTE   W06
 BYTE   Ds3
 BYTE   W06
 BYTE   Fs3
 BYTE   W06
 BYTE   Gs3
 BYTE   W06
 BYTE   Bn3
 BYTE   W06
 BYTE   Gs3
 BYTE   W06
 BYTE   Bn3
 BYTE   W06
 BYTE   Ds3
 BYTE   W06
 BYTE   Gs2
 BYTE   W06
// 035   ----------------------------------------
 BYTE   Ds3
 BYTE   W06
 BYTE   Bn2
 BYTE   W06
 BYTE   An2
 BYTE   W06
 BYTE   Gs2
 BYTE   W06
 BYTE   Bn2
 BYTE   W06
 BYTE   Gs2
 BYTE   W06
 BYTE   Ds2
 BYTE   W06
 BYTE   Bn1
 BYTE   W06
 BYTE   An1
 BYTE   W06
 BYTE   Gs1
 BYTE   W06
 BYTE   An1  v108
 BYTE   W06
 BYTE   Bn1
 BYTE   W06
 BYTE   Cs2
 BYTE   W06
 BYTE   Gs2
 BYTE   W06
 BYTE   An2
 BYTE   W06
 BYTE   Gs2
 BYTE   W06
// 036   ----------------------------------------
 BYTE   Dn1
 BYTE   W06
 BYTE   Fs1
 BYTE   W06
 BYTE   An1
 BYTE   W06
 BYTE   Dn2
 BYTE   W06
 BYTE   Fs2
 BYTE   W06
 BYTE   An2
 BYTE   W06
 BYTE   Dn3
 BYTE   W06
 BYTE   Fs3
 BYTE   W06
 BYTE   An3
 BYTE   W06
 BYTE   Gs3
 BYTE   W06
 BYTE   En3
 BYTE   W06
 BYTE   Dn3
 BYTE   W06
 BYTE   Fs3
 BYTE   W06
 BYTE   An3
 BYTE   W06
 BYTE   Fs3
 BYTE   W06
 BYTE   Dn3
 BYTE   W06
// 037   ----------------------------------------
 BYTE   En1
 BYTE   W06
 BYTE   Gs1
 BYTE   W06
 BYTE   Bn1
 BYTE   W06
 BYTE   En2
 BYTE   W06
 BYTE   Gs2
 BYTE   W06
 BYTE   Bn2
 BYTE   W06
 BYTE   En3
 BYTE   W06
 BYTE   Gs3
 BYTE   W06
 BYTE   Bn3
 BYTE   W06
 BYTE   Gs3
 BYTE   W06
 BYTE   En3
 BYTE   W06
 BYTE   Bn3
 BYTE   W06
 BYTE   Gs3
 BYTE   W06
 BYTE   En3
 BYTE   W06
 BYTE   Bn3
 BYTE   W06
 BYTE   En3
 BYTE   W06
// 038   ----------------------------------------
 BYTE   Fs1
 BYTE   W06
 BYTE   Gs1
 BYTE   W06
 BYTE   An1
 BYTE   W06
 BYTE   Cs2
 BYTE   W06
 BYTE   Fs2
 BYTE   W06
 BYTE   Gs2
 BYTE   W06
 BYTE   An2
 BYTE   W06
 BYTE   Cs3
 BYTE   W06
 BYTE   Fs3
 BYTE   W06
 BYTE   Gs3
 BYTE   W06
 BYTE   An3
 BYTE   W06
 BYTE   Cs4
 BYTE   W06
 BYTE   Fs4
 BYTE   W06
 BYTE   Cs4  v112
 BYTE   W06
 BYTE   An3
 BYTE   W06
 BYTE   Gs3
 BYTE   W06
// 039   ----------------------------------------
 BYTE   Fs3
 BYTE   W06
 BYTE   An3
 BYTE   W06
 BYTE   Gs3
 BYTE   W06
 BYTE   Cs3
 BYTE   W06
 BYTE   Gs3
 BYTE   W06
 BYTE   Fs3
 BYTE   W06
 BYTE   Bn2
 BYTE   W06
 BYTE   Fs3
 BYTE   W06
 BYTE   En3
 BYTE   W06
 BYTE   An2
 BYTE   W06
 BYTE   En3
 BYTE   W06
 BYTE   Dn3
 BYTE   W06
 BYTE   Cs3
 BYTE   W06
 BYTE   Bn2
 BYTE   W06
 BYTE   An2
 BYTE   W06
 BYTE   Gs2
 BYTE   W06
// 040   ----------------------------------------
Label_12_01531E86:
 BYTE   N11  Dn2  v112
 BYTE   N11  An2
 BYTE   W12
 BYTE   Fs3
 BYTE   N11  An3
 BYTE   W12
 BYTE   Dn2
 BYTE   N11  An2
 BYTE   W12
 BYTE   Fs3
 BYTE   N11  An3
 BYTE   W12
 BYTE   En2
 BYTE   N11  Bn2
 BYTE   W12
 BYTE   Gs3
 BYTE   N11  Bn3
 BYTE   W12
 BYTE   En2
 BYTE   N11  Bn2
 BYTE   W12
 BYTE   Gs3
 BYTE   N11  Bn3
 BYTE   W12
 BYTE   PEND 
// 041   ----------------------------------------
Label_12_01531EA9:
 BYTE   N11  Fs2  v112
 BYTE   N11  Cs3
 BYTE   W12
 BYTE   Fs3
 BYTE   N11  An3
 BYTE   W12
 BYTE   Fs2
 BYTE   N11  Cs3
 BYTE   W12
 BYTE   Fs3
 BYTE   N11  An3
 BYTE   W12
 BYTE   Fs2
 BYTE   N11  Cs3
 BYTE   W12
 BYTE   Fs3
 BYTE   N11  An3
 BYTE   W12
 BYTE   Fs2
 BYTE   N11  Cs3
 BYTE   W12
 BYTE   Fs3
 BYTE   N11  An3
 BYTE   W12
 BYTE   PEND 
// 042   ----------------------------------------
Label_12_01531ECC:
 BYTE   N11  Dn2  v112
 BYTE   N11  An2
 BYTE   W12
 BYTE   Dn3
 BYTE   N11  Fs3
 BYTE   W12
 BYTE   Dn2
 BYTE   N11  An2
 BYTE   W12
 BYTE   Dn3
 BYTE   N11  Fs3
 BYTE   W12
 BYTE   En2
 BYTE   N11  Bn2
 BYTE   W12
 BYTE   En3
 BYTE   N11  Gs3
 BYTE   W12
 BYTE   En2
 BYTE   N11  Bn2
 BYTE   W12
 BYTE   En3
 BYTE   N11  Gs3
 BYTE   W12
 BYTE   PEND 
// 043   ----------------------------------------
Label_12_01531EEF:
 BYTE   N11  Fs2  v112
 BYTE   N11  Cs3
 BYTE   W12
 BYTE   Fs3
 BYTE   N11  An3
 BYTE   W12
 BYTE   Fs2
 BYTE   N11  Cs3
 BYTE   W12
 BYTE   Gs3
 BYTE   N11  Bn3
 BYTE   W12
 BYTE   Fs2
 BYTE   N11  Cs3
 BYTE   W12
 BYTE   An3
 BYTE   N11  Cs4
 BYTE   W12
 BYTE   Fs2
 BYTE   N11  Cs3
 BYTE   W12
 BYTE   An3
 BYTE   N11  Fs4
 BYTE   W12
 BYTE   PEND 
// 044   ----------------------------------------
 BYTE   PATT
  POIN2 Label_12_01531E86
// 045   ----------------------------------------
 BYTE   PATT
  POIN2 Label_12_01531EA9
// 046   ----------------------------------------
 BYTE   PATT
  POIN2 Label_12_01531ECC
// 047   ----------------------------------------
 BYTE   PATT
  POIN2 Label_12_01531EEF
// 048   ----------------------------------------
 BYTE   W96
// 049   ----------------------------------------
 BYTE   W96
// 050   ----------------------------------------
 BYTE   W96
// 051   ----------------------------------------
 BYTE   W96
// 052   ----------------------------------------
 BYTE   W96
// 053   ----------------------------------------
 BYTE   W96
// 054   ----------------------------------------
 BYTE   W96
// 055   ----------------------------------------
 BYTE   W96
// 056   ----------------------------------------
 BYTE   W96
// 057   ----------------------------------------
 BYTE   W96
// 058   ----------------------------------------
 BYTE   W96
// 059   ----------------------------------------
 BYTE   W96
// 060   ----------------------------------------
 BYTE   W96
// 061   ----------------------------------------
 BYTE   W96
// 062   ----------------------------------------
 BYTE   W96
// 063   ----------------------------------------
 BYTE   W96
// 064   ----------------------------------------
 BYTE   GoTo
  POIN2 Label_12_01531C70
 BYTE   FINE

//**************** Track 14 (Midi-Chn.13) ****************//

ChineseTea_014:
// 000   ----------------------------------------
 BYTE   KEYSH   ChineseTea_key+0
 BYTE   VOICE   110
 BYTE   VOL   24*ChineseTea_mvl/mxv
 BYTE   PAN   c_v-24
 BYTE   N32  Fs2  v112
 BYTE   W36
 BYTE   N11  Fs3
 BYTE   W12
 BYTE   N17  En3
 BYTE   W18
 BYTE   An3  v092
 BYTE   W18
 BYTE   N11  Gs3  v112
 BYTE   W12
// 001   ----------------------------------------
Label_13_01F789E9:
 BYTE   N09  En3  v112
 BYTE   W12
 BYTE   Cs3  v092
 BYTE   W12
 BYTE   N11  En3  v112
 BYTE   W12
 BYTE   N06  En3  v104
 BYTE   W06
 BYTE   N52  Fs3  v124
 BYTE   W54
 BYTE   PEND 
// 002   ----------------------------------------
 BYTE   N32  Fs2  v112
 BYTE   W36
 BYTE   N11  Fs3  v092
 BYTE   W12
 BYTE   N17  Fn3  v112
 BYTE   W18
 BYTE   Fs3  v092
 BYTE   W18
 BYTE   N15  Gs3  v104
 BYTE   W12
// 003   ----------------------------------------
 BYTE   N92  Cs3  v112
 BYTE   W96
// 004   ----------------------------------------
 BYTE   N32  Fs2
 BYTE   W36
 BYTE   N11  Fs3
 BYTE   W12
 BYTE   N17  En3
 BYTE   W18
 BYTE   Fs3  v092
 BYTE   W18
 BYTE   N11  Gs3  v112
 BYTE   W12
// 005   ----------------------------------------
 BYTE   N09  An3
 BYTE   W12
 BYTE   Cs3  v092
 BYTE   W12
 BYTE   N11  Gs3  v112
 BYTE   W12
 BYTE   N06  Gs3  v104
 BYTE   W06
 BYTE   N28  An3
 BYTE   W30
 BYTE   N23  Bn3
 BYTE   W24
// 006   ----------------------------------------
 BYTE   N11  Cs4  v112
 BYTE   W12
 BYTE   N09  Fs3  v104
 BYTE   W24
 BYTE   N06  Gs3  v112
 BYTE   W06
 BYTE   An3  v104
 BYTE   W06
 BYTE   N17  Gs3  v112
 BYTE   W18
 BYTE   En3  v092
 BYTE   W18
 BYTE   N11  Cs3  v104
 BYTE   W12
// 007   ----------------------------------------
 BYTE   PATT
  POIN2 Label_13_01F789E9
// 008   ----------------------------------------
Label_13_01F78A57:
 BYTE   N32  Fs2  v127
 BYTE   W36
 BYTE   N11  Fs3
 BYTE   W12
 BYTE   N17  En3
 BYTE   W18
 BYTE   An3  v112
 BYTE   W18
 BYTE   N11  Gs3  v127
 BYTE   W12
 BYTE   PEND 
// 009   ----------------------------------------
Label_13_01F78A69:
 BYTE   N09  En3  v127
 BYTE   W12
 BYTE   Cs3  v112
 BYTE   W12
 BYTE   N11  En3  v127
 BYTE   W12
 BYTE   N06  En3  v124
 BYTE   W06
 BYTE   N52  Fs3  v127
 BYTE   W54
 BYTE   PEND 
// 010   ----------------------------------------
Label_13_01F78A7D:
 BYTE   N32  Fs2  v127
 BYTE   W36
 BYTE   N11  Fs3  v112
 BYTE   W12
 BYTE   N17  Fn3  v127
 BYTE   W18
 BYTE   Fs3  v112
 BYTE   W18
 BYTE   N15  Gs3  v124
 BYTE   W12
 BYTE   PEND 
// 011   ----------------------------------------
 BYTE   N92  Cs3  v127
 BYTE   W96
// 012   ----------------------------------------
Label_13_01F78A95:
 BYTE   N32  Fs2  v127
 BYTE   W36
 BYTE   N11  Fs3
 BYTE   W12
 BYTE   N17  En3
 BYTE   W18
 BYTE   Fs3  v112
 BYTE   W18
 BYTE   N11  Gs3  v127
 BYTE   W12
 BYTE   PEND 
// 013   ----------------------------------------
Label_13_01F78AA7:
 BYTE   N09  An3  v127
 BYTE   W12
 BYTE   Cs3  v112
 BYTE   W12
 BYTE   N11  Gs3  v127
 BYTE   W12
 BYTE   N06  Gs3  v124
 BYTE   W06
 BYTE   N28  An3
 BYTE   W30
 BYTE   N23  Bn3
 BYTE   W24
 BYTE   PEND 
// 014   ----------------------------------------
Label_13_01F78ABD:
 BYTE   N11  Cs4  v127
 BYTE   W12
 BYTE   N09  Fs3  v124
 BYTE   W24
 BYTE   N06  Gs3  v127
 BYTE   W06
 BYTE   An3  v124
 BYTE   W06
 BYTE   N17  Gs3  v127
 BYTE   W18
 BYTE   En3  v112
 BYTE   W18
 BYTE   N11  Cs3  v124
 BYTE   W12
 BYTE   PEND 
// 015   ----------------------------------------
 BYTE   PATT
  POIN2 Label_13_01F78A69
// 016   ----------------------------------------
 BYTE   PATT
  POIN2 Label_13_01F78A57
// 017   ----------------------------------------
 BYTE   PATT
  POIN2 Label_13_01F78A69
// 018   ----------------------------------------
 BYTE   PATT
  POIN2 Label_13_01F78A7D
// 019   ----------------------------------------
 BYTE   N92  Cs3  v127
 BYTE   W96
// 020   ----------------------------------------
 BYTE   PATT
  POIN2 Label_13_01F78A95
// 021   ----------------------------------------
 BYTE   PATT
  POIN2 Label_13_01F78AA7
// 022   ----------------------------------------
 BYTE   PATT
  POIN2 Label_13_01F78ABD
// 023   ----------------------------------------
 BYTE   PATT
  POIN2 Label_13_01F78A69
// 024   ----------------------------------------
 BYTE   W96
// 025   ----------------------------------------
 BYTE   W96
// 026   ----------------------------------------
 BYTE   W96
// 027   ----------------------------------------
 BYTE   W96
// 028   ----------------------------------------
 BYTE   W96
// 029   ----------------------------------------
 BYTE   W96
// 030   ----------------------------------------
 BYTE   W96
// 031   ----------------------------------------
 BYTE   W96
// 032   ----------------------------------------
 BYTE   W96
// 033   ----------------------------------------
 BYTE   W96
// 034   ----------------------------------------
 BYTE   W96
// 035   ----------------------------------------
 BYTE   W96
// 036   ----------------------------------------
 BYTE   W96
// 037   ----------------------------------------
 BYTE   W96
// 038   ----------------------------------------
 BYTE   W96
// 039   ----------------------------------------
 BYTE   W96
// 040   ----------------------------------------
 BYTE   N32  Fs1  v127
 BYTE   W36
 BYTE   N11  Fs2
 BYTE   W12
 BYTE   N17  En2
 BYTE   W18
 BYTE   An2  v112
 BYTE   W18
 BYTE   N11  Gs2  v127
 BYTE   W12
// 041   ----------------------------------------
Label_13_01F78B25:
 BYTE   N09  En2  v127
 BYTE   W12
 BYTE   Cs2  v112
 BYTE   W12
 BYTE   N11  En2  v127
 BYTE   W12
 BYTE   N06  En2  v124
 BYTE   W06
 BYTE   N52  Fs2  v127
 BYTE   W54
 BYTE   PEND 
// 042   ----------------------------------------
 BYTE   N32  Fs1
 BYTE   W36
 BYTE   N11  Fs2  v112
 BYTE   W12
 BYTE   N17  Fn2  v127
 BYTE   W18
 BYTE   Fs2  v112
 BYTE   W18
 BYTE   N15  Gs2  v124
 BYTE   W12
// 043   ----------------------------------------
 BYTE   N92  Cs2  v127
 BYTE   W96
// 044   ----------------------------------------
 BYTE   N32  Fs1
 BYTE   W36
 BYTE   N11  Fs2
 BYTE   W12
 BYTE   N17  En2
 BYTE   W18
 BYTE   Fs2  v112
 BYTE   W18
 BYTE   N11  Gs2  v127
 BYTE   W12
// 045   ----------------------------------------
 BYTE   N09  An2
 BYTE   W12
 BYTE   Cs2  v112
 BYTE   W12
 BYTE   N11  Gs2  v127
 BYTE   W12
 BYTE   N06  Gs2  v124
 BYTE   W06
 BYTE   N28  An2
 BYTE   W30
 BYTE   N23  Bn2
 BYTE   W24
// 046   ----------------------------------------
 BYTE   N11  Cs3  v127
 BYTE   W12
 BYTE   N09  Fs2  v124
 BYTE   W24
 BYTE   N06  Gs2  v127
 BYTE   W06
 BYTE   An2  v124
 BYTE   W06
 BYTE   N17  Gs2  v127
 BYTE   W18
 BYTE   En2  v112
 BYTE   W18
 BYTE   N11  Cs2  v124
 BYTE   W12
// 047   ----------------------------------------
 BYTE   PATT
  POIN2 Label_13_01F78B25
// 048   ----------------------------------------
 BYTE   PATT
  POIN2 Label_13_01F78A57
// 049   ----------------------------------------
 BYTE   PATT
  POIN2 Label_13_01F78A69
// 050   ----------------------------------------
 BYTE   PATT
  POIN2 Label_13_01F78A7D
// 051   ----------------------------------------
 BYTE   N92  Cs3  v127
 BYTE   W96
// 052   ----------------------------------------
 BYTE   PATT
  POIN2 Label_13_01F78A95
// 053   ----------------------------------------
 BYTE   PATT
  POIN2 Label_13_01F78AA7
// 054   ----------------------------------------
 BYTE   PATT
  POIN2 Label_13_01F78ABD
// 055   ----------------------------------------
 BYTE   PATT
  POIN2 Label_13_01F78A69
// 056   ----------------------------------------
 BYTE   PATT
  POIN2 Label_13_01F78A57
// 057   ----------------------------------------
 BYTE   PATT
  POIN2 Label_13_01F78A69
// 058   ----------------------------------------
 BYTE   PATT
  POIN2 Label_13_01F78A7D
// 059   ----------------------------------------
 BYTE   N92  Cs3  v127
 BYTE   W96
// 060   ----------------------------------------
 BYTE   PATT
  POIN2 Label_13_01F78A95
// 061   ----------------------------------------
 BYTE   PATT
  POIN2 Label_13_01F78AA7
// 062   ----------------------------------------
 BYTE   PATT
  POIN2 Label_13_01F78ABD
// 063   ----------------------------------------
 BYTE   PATT
  POIN2 Label_13_01F78A69
// 064   ----------------------------------------
 BYTE   GoTo
  POIN2 Label_13_01F78A57
 BYTE   FINE

//******************************************************//
	ALIGN 4

ChineseTea:
	BYTE	14	// NumTrks
	BYTE	0	// NumBlks
	BYTE	ChineseTea_pri	// Priority
	BYTE	ChineseTea_rev	// Reverb.
    
	POIN2	ChineseTea_grp
    
	POIN2	ChineseTea_001
	POIN2	ChineseTea_002
	POIN2	ChineseTea_003
	POIN2	ChineseTea_004
	POIN2	ChineseTea_005
	POIN2	ChineseTea_006
	POIN2	ChineseTea_007
	POIN2	ChineseTea_008
	POIN2	ChineseTea_009
	POIN2	ChineseTea_010
	POIN2	ChineseTea_011
	POIN2	ChineseTea_012
	POIN2	ChineseTea_013
	POIN2	ChineseTea_014

	
