//Event file generated from Sappy .s format.
	

	#define	DelfinoPlaza_grp  voicegroup000
	#define	DelfinoPlaza_pri  0
	#define	DelfinoPlaza_rev  0
	#define	DelfinoPlaza_mvl  127
	#define	DelfinoPlaza_key  0
	#define	DelfinoPlaza_tbs  1
	#define	DelfinoPlaza_exg  0
	#define	DelfinoPlaza_cmp  1

	// .rodata
	//	DelfinoPlaza
	ALIGN 4


//**************** Track 1 (Midi-Chn.0) ****************//

DelfinoPlaza_001:
//  #01 //000   ----------------------------------------
 BYTE   VOL   80*DelfinoPlaza_mvl/mxv
 BYTE   KEYSH   DelfinoPlaza_key+0
 BYTE   TEMPO   140*DelfinoPlaza_tbs/2
 BYTE   VOICE   21
 BYTE   W06
 BYTE   W02
 BYTE   N11  Bn3  v120
 BYTE   W04
 BYTE   W06
 BYTE   N05  Dn4  v080
 BYTE   W04
 BYTE   N07  Bn3  v060
 BYTE   W02
 BYTE   W02
 BYTE   N10  Gs3
 BYTE   W04
 BYTE   W05
 BYTE   Fs3  v040
 BYTE   W01
 BYTE   W06
 BYTE   W02
 BYTE   VOL   63*DelfinoPlaza_mvl/mxv
 BYTE   N10  Fn3  v032
 BYTE   W04
 BYTE   W02
 BYTE   N12  En3  v080
 BYTE   W04
 BYTE   W06
 BYTE   Fs3  v072
 BYTE   W06
 BYTE   W04
 BYTE   N11  Gn3
 BYTE   W02
 BYTE   W06
 BYTE   W02
 BYTE   N92  Dn3  v100
 BYTE   N92  En3
 BYTE   N92  Gs3  v120
 BYTE   W04
 BYTE   W01
 BYTE   W01
 BYTE   W01
 BYTE   W03
 BYTE   W06
//  #01 //001   ----------------------------------------
 BYTE   W02
 BYTE   W02
 BYTE   VOL   63*DelfinoPlaza_mvl/mxv
 BYTE   W02
 BYTE   W03
 BYTE   W02
 BYTE   W02
 BYTE   W02
 BYTE   W03
 BYTE   W02
 BYTE   W02
 BYTE   W02
 BYTE   W03
 BYTE   VOL   58*DelfinoPlaza_mvl/mxv
 BYTE   W02
 BYTE   W01
 BYTE   VOL   54*DelfinoPlaza_mvl/mxv
 BYTE   W01
 BYTE   W01
 BYTE   VOL   50*DelfinoPlaza_mvl/mxv
 BYTE   W01
 BYTE   W02
 BYTE   VOL   46*DelfinoPlaza_mvl/mxv
 BYTE   W01
 BYTE   W02
 BYTE   VOL   42*DelfinoPlaza_mvl/mxv
 BYTE   W03
 BYTE   VOL   38*DelfinoPlaza_mvl/mxv
 BYTE   W03
 BYTE   VOL   34*DelfinoPlaza_mvl/mxv
 BYTE   W02
 BYTE   VOL   30*DelfinoPlaza_mvl/mxv
 BYTE   W03
 BYTE   VOL   27*DelfinoPlaza_mvl/mxv
 BYTE   W03
 BYTE   VOL   23*DelfinoPlaza_mvl/mxv
 BYTE   W03
 BYTE   VOL   20*DelfinoPlaza_mvl/mxv
 BYTE   W03
 BYTE   VOL   18*DelfinoPlaza_mvl/mxv
 BYTE   W02
 BYTE   VOL   15*DelfinoPlaza_mvl/mxv
 BYTE   W01
 BYTE   W01
 BYTE   W01
 BYTE   VOL   13*DelfinoPlaza_mvl/mxv
 BYTE   W01
 BYTE   W01
 BYTE   W01
 BYTE   VOL   12*DelfinoPlaza_mvl/mxv
 BYTE   W01
 BYTE   W01
 BYTE   W01
 BYTE   VOL   10*DelfinoPlaza_mvl/mxv
 BYTE   W01
 BYTE   W01
 BYTE   W01
 BYTE   VOL   8*DelfinoPlaza_mvl/mxv
 BYTE   W01
 BYTE   W01
 BYTE   VOL   7*DelfinoPlaza_mvl/mxv
 BYTE   W01
 BYTE   W01
 BYTE   W01
 BYTE   VOL   5*DelfinoPlaza_mvl/mxv
 BYTE   W03
 BYTE   VOL   3*DelfinoPlaza_mvl/mxv
 BYTE   W03
 BYTE   VOL   2*DelfinoPlaza_mvl/mxv
 BYTE   W03
 BYTE   VOL   1*DelfinoPlaza_mvl/mxv
 BYTE   W09
Label_013B4BA1:
 BYTE   W01
//  #01 //002   ----------------------------------------
 BYTE   W01
 BYTE   VOL   0*DelfinoPlaza_mvl/mxv
 BYTE   W64
 BYTE   W01
 BYTE   W30
//  #01 //003   ----------------------------------------
 BYTE   W96
//  #01 //004   ----------------------------------------
 BYTE   W96
//  #01 //005   ----------------------------------------
 BYTE   W96
//  #01 //006   ----------------------------------------
 BYTE   W72
 BYTE   W01
 BYTE   VOL   68*DelfinoPlaza_mvl/mxv
 BYTE   W11
 BYTE   VOL   68*DelfinoPlaza_mvl/mxv
 BYTE   W12
//  #01 //007   ----------------------------------------
 BYTE   W22
 BYTE   VOL   69*DelfinoPlaza_mvl/mxv
 BYTE   W22
 BYTE   VOL   69*DelfinoPlaza_mvl/mxv
 BYTE   W32
 BYTE   W02
 BYTE   VOL   70*DelfinoPlaza_mvl/mxv
 BYTE   W18
//  #01 //008   ----------------------------------------
 BYTE   W04
 BYTE   VOL   71*DelfinoPlaza_mvl/mxv
 BYTE   W32
 BYTE   W02
 BYTE   VOL   71*DelfinoPlaza_mvl/mxv
 BYTE   W22
 BYTE   VOL   71*DelfinoPlaza_mvl/mxv
 BYTE   W32
 BYTE   W02
 BYTE   VOL   72*DelfinoPlaza_mvl/mxv
 BYTE   W02
//  #01 //009   ----------------------------------------
 BYTE   W20
 BYTE   VOL   73*DelfinoPlaza_mvl/mxv
 BYTE   W32
 BYTE   W02
 BYTE   VOL   73*DelfinoPlaza_mvl/mxv
 BYTE   W22
 BYTE   VOL   74*DelfinoPlaza_mvl/mxv
 BYTE   W20
//  #01 //010   ----------------------------------------
 BYTE   W14
 BYTE   VOL   74*DelfinoPlaza_mvl/mxv
 BYTE   W22
 BYTE   VOL   75*DelfinoPlaza_mvl/mxv
 BYTE   W32
 BYTE   W02
 BYTE   VOL   76*DelfinoPlaza_mvl/mxv
 BYTE   W22
 BYTE   VOL   76*DelfinoPlaza_mvl/mxv
 BYTE   W04
//  #01 //011   ----------------------------------------
 BYTE   W30
 BYTE   VOL   76*DelfinoPlaza_mvl/mxv
 BYTE   W22
 BYTE   VOL   76*DelfinoPlaza_mvl/mxv
 BYTE   W44
//  #01 //012   ----------------------------------------
Label_013B4BDB:
 BYTE   W12
 BYTE   VOL   76*DelfinoPlaza_mvl/mxv
 BYTE   W56
 BYTE   VOL   76*DelfinoPlaza_mvl/mxv
 BYTE   W28
 BYTE   PEND 
//  #01 //013   ----------------------------------------
Label_013B4BE2:
 BYTE   W28
 BYTE   VOL   76*DelfinoPlaza_mvl/mxv
 BYTE   W56
 BYTE   VOL   76*DelfinoPlaza_mvl/mxv
 BYTE   W12
 BYTE   PEND 
//  #01 //014   ----------------------------------------
 BYTE   W12
 BYTE   N30  Dn4  v100
 BYTE   W32
 BYTE   VOL   76*DelfinoPlaza_mvl/mxv
 BYTE   N03  An3  v092
 BYTE   W02
 BYTE   Gs3
 BYTE   W02
 BYTE   Gn3
 BYTE   W02
 BYTE   N21  Fs3  v120
 BYTE   W22
 BYTE   N23  Dn4  v100
 BYTE   W24
//  #01 //015   ----------------------------------------
 BYTE   N92  Cs4
 BYTE   W04
 BYTE   VOL   76*DelfinoPlaza_mvl/mxv
 BYTE   W56
 BYTE   VOL   76*DelfinoPlaza_mvl/mxv
 BYTE   W36
//  #01 //016   ----------------------------------------
 BYTE   W12
 BYTE   N30  Dn4
 BYTE   W08
 BYTE   VOL   76*DelfinoPlaza_mvl/mxv
 BYTE   W23
 BYTE   N03  An3  v092
 BYTE   W02
 BYTE   Gs3
 BYTE   W02
 BYTE   Gn3
 BYTE   W02
 BYTE   N21  Fs3  v120
 BYTE   W22
 BYTE   N23  Dn4  v100
 BYTE   W05
 BYTE   VOL   76*DelfinoPlaza_mvl/mxv
 BYTE   W19
 BYTE   N44  Cs4
 BYTE   W01
//  #01 //017   ----------------------------------------
 BYTE   W36
 BYTE   VOL   76*DelfinoPlaza_mvl/mxv
 BYTE   W11
 BYTE   N44  An3
 BYTE   W44
 BYTE   W01
 BYTE   VOL   76*DelfinoPlaza_mvl/mxv
 BYTE   W04
//  #01 //018   ----------------------------------------
 BYTE   W12
 BYTE   N28  Dn4
 BYTE   W30
 BYTE   N03  An3  v092
 BYTE   W02
 BYTE   Gs3
 BYTE   W02
 BYTE   Gn3
 BYTE   W02
 BYTE   N23  Fs3  v120
 BYTE   W04
 BYTE   VOL   76*DelfinoPlaza_mvl/mxv
 BYTE   W20
 BYTE   N23  Dn4  v100
 BYTE   W24
//  #01 //019   ----------------------------------------
 BYTE   Cs4
 BYTE   W12
 BYTE   VOL   76*DelfinoPlaza_mvl/mxv
 BYTE   W12
 BYTE   N23  Bn3
 BYTE   W24
 BYTE   N44  As3
 BYTE   W20
 BYTE   VOL   76*DelfinoPlaza_mvl/mxv
 BYTE   W28
//  #01 //020   ----------------------------------------
 BYTE   W12
 BYTE   N28  An3
 BYTE   W16
 BYTE   VOL   76*DelfinoPlaza_mvl/mxv
 BYTE   W14
 BYTE   N03  Gs3  v092
 BYTE   W02
 BYTE   Gn3
 BYTE   W02
 BYTE   Fs3
 BYTE   W02
 BYTE   N23  Fn3  v120
 BYTE   W24
 BYTE   An3  v100
 BYTE   W12
 BYTE   VOL   76*DelfinoPlaza_mvl/mxv
 BYTE   W11
 BYTE   N44  Gs3
 BYTE   W01
//  #01 //021   ----------------------------------------
 BYTE   W44
 BYTE   VOL   76*DelfinoPlaza_mvl/mxv
 BYTE   W03
 BYTE   N44  En4
 BYTE   W48
 BYTE   W01
//  #01 //022   ----------------------------------------
Label_013B4C79:
 BYTE   W04
 BYTE   VOL   76*DelfinoPlaza_mvl/mxv
 BYTE   W56
 BYTE   VOL   76*DelfinoPlaza_mvl/mxv
 BYTE   W36
 BYTE   PEND 
//  #01 //023   ----------------------------------------
 BYTE   W96
//  #01 //024   ----------------------------------------
Label_013B4C81:
 BYTE   W36
 BYTE   VOL   76*DelfinoPlaza_mvl/mxv
 BYTE   W56
 BYTE   VOL   76*DelfinoPlaza_mvl/mxv
 BYTE   W04
 BYTE   PEND 
//  #01 //025   ----------------------------------------
 BYTE   W52
 BYTE   En4
 BYTE   W44
//  #01 //026   ----------------------------------------
 BYTE   W12
 BYTE   En4
 BYTE   N05  Cs3  v112
 BYTE   N05  En3  v116
 BYTE   N05  An3  v104
 BYTE   W12
 BYTE   N04  Cs3  v112
 BYTE   N05  En3  v100
 BYTE   N04  An3
 BYTE   W12
 BYTE   N05  Cs3
 BYTE   N04  En3  v112
 BYTE   N04  An3  v088
 BYTE   W12
 BYTE   N16  Bn2  v080
 BYTE   N16  Dn3  v088
 BYTE   N19  Gn3  v096
 BYTE   W20
 BYTE   VOL   76*DelfinoPlaza_mvl/mxv
 BYTE   W04
 BYTE   N04  Bn2
 BYTE   N05  Dn3  v088
 BYTE   W12
 BYTE   N03  Bn2  v096
 BYTE   N04  Dn3  v080
 BYTE   N03  Gn3  v088
 BYTE   W12
//  #01 //027   ----------------------------------------
 BYTE   N36  Gs2  v068
 BYTE   N36  Bn2  v088
 BYTE   N40  En3  v112
 BYTE   W28
 BYTE   VOL   76*DelfinoPlaza_mvl/mxv
 BYTE   W20
 BYTE   N40  An2  v088
 BYTE   W36
 BYTE   VOL   76*DelfinoPlaza_mvl/mxv
 BYTE   W12
//  #01 //028   ----------------------------------------
 BYTE   W12
 BYTE   N05  Cs3  v100
 BYTE   N05  En3
 BYTE   N05  An3  v096
 BYTE   W12
 BYTE   Cs3  v100
 BYTE   N05  En3  v092
 BYTE   N04  An3  v096
 BYTE   W12
 BYTE   N05  Cs3  v088
 BYTE   N05  En3
 BYTE   N04  An3  v084
 BYTE   W08
 BYTE   VOL   76*DelfinoPlaza_mvl/mxv
 BYTE   W04
 BYTE   N19  Bn2  v088
 BYTE   N19  Dn3  v080
 BYTE   N18  Gn3  v092
 BYTE   W24
 BYTE   N05  Dn3  v088
 BYTE   N04  Gn3
 BYTE   N06  Bn3  v104
 BYTE   W12
 BYTE   Bn2  v092
 BYTE   N05  Dn3  v076
 BYTE   N04  Gn3  v088
 BYTE   W12
//  #01 //029   ----------------------------------------
 BYTE   N84  Cs3  v080
 BYTE   N88  En3  v068
 BYTE   N84  An3  v080
 BYTE   W04
 BYTE   VOL   76*DelfinoPlaza_mvl/mxv
 BYTE   W56
 BYTE   VOL   76*DelfinoPlaza_mvl/mxv
 BYTE   W36
//  #01 //030   ----------------------------------------
 BYTE   W12
 BYTE   N05  En3  v096
 BYTE   N06  Gn3  v088
 BYTE   N05  Cn4  v116
 BYTE   W08
 BYTE   VOL   76*DelfinoPlaza_mvl/mxv
 BYTE   W04
 BYTE   N04  En3  v100
 BYTE   N07  Gn3  v096
 BYTE   N04  Cn4  v092
 BYTE   W12
 BYTE   En3  v096
 BYTE   N06  Gn3  v068
 BYTE   N05  Cn4  v088
 BYTE   W12
 BYTE   N20  Dn3
 BYTE   N18  Fn3  v092
 BYTE   N22  As3  v096
 BYTE   W24
 BYTE   N05  Dn3  v092
 BYTE   N05  Fn3  v096
 BYTE   W04
 BYTE   VOL   76*DelfinoPlaza_mvl/mxv
 BYTE   W08
 BYTE   N04  Dn3  v088
 BYTE   N03  Fn3  v092
 BYTE   N04  As3  v100
 BYTE   W12
//  #01 //031   ----------------------------------------
 BYTE   N36  Cn3  v088
 BYTE   N42  En3  v076
 BYTE   N40  Gn3  v092
 BYTE   W36
 BYTE   VOL   76*DelfinoPlaza_mvl/mxv
 BYTE   W12
 BYTE   N44  Cn3  v080
 BYTE   W44
 BYTE   VOL   76*DelfinoPlaza_mvl/mxv
 BYTE   W04
//  #01 //032   ----------------------------------------
 BYTE   W12
 BYTE   N05  En3  v104
 BYTE   N04  Gn3  v080
 BYTE   N05  Cn4  v112
 BYTE   W12
 BYTE   En3  v100
 BYTE   N05  Gn3  v088
 BYTE   N04  Cn4
 BYTE   W12
 BYTE   N05  En3  v100
 BYTE   N05  Gn3  v080
 BYTE   N03  Cn4  v088
 BYTE   W12
 BYTE   N19  Dn3  v080
 BYTE   N19  Fn3
 BYTE   N17  As3  v092
 BYTE   W04
 BYTE   VOL   76*DelfinoPlaza_mvl/mxv
 BYTE   W20
 BYTE   N07  Fn3  v104
 BYTE   N05  As3  v088
 BYTE   N05  Dn4  v104
 BYTE   W12
 BYTE   N06  Dn3  v112
 BYTE   N04  Fn3  v092
 BYTE   N05  As3  v088
 BYTE   W12
//  #01 //033   ----------------------------------------
 BYTE   N76  En3  v092
 BYTE   N76  Gn3  v076
 BYTE   N68  Cn4  v088
 BYTE   W12
 BYTE   VOL   76*DelfinoPlaza_mvl/mxv
 BYTE   W56
 BYTE   VOL   76*DelfinoPlaza_mvl/mxv
 BYTE   W28
//  #01 //034   ----------------------------------------
 BYTE   W12
 BYTE   N06  Cs3  v096
 BYTE   N06  En3  v100
 BYTE   N05  An3  v112
 BYTE   W12
 BYTE   Cs3
 BYTE   N06  En3  v104
 BYTE   N05  An3  v092
 BYTE   W04
 BYTE   VOL   76*DelfinoPlaza_mvl/mxv
 BYTE   W08
 BYTE   N05  Cs3  v100
 BYTE   N06  En3
 BYTE   N03  An3  v080
 BYTE   W12
 BYTE   N18  Ds3
 BYTE   N18  Fs3  v100
 BYTE   N19  An3  v096
 BYTE   W24
 BYTE   N06  Ds3  v116
 BYTE   N05  Fs3  v104
 BYTE   W12
 BYTE   VOL   76*DelfinoPlaza_mvl/mxv
 BYTE   N06  Ds3  v120
 BYTE   N05  An3  v112
 BYTE   W12
//  #01 //035   ----------------------------------------
 BYTE   N40  Bn2  v104
 BYTE   N42  En3  v092
 BYTE   N44  Gs3  v112
 BYTE   W44
 BYTE   VOL   76*DelfinoPlaza_mvl/mxv
 BYTE   W04
 BYTE   N48  Bn2  v080
 BYTE   N20  En3  v088
 BYTE   N20  Fs3  v096
 BYTE   W24
 BYTE   N24  Dn3  v076
 BYTE   N24  En3  v072
 BYTE   W24
//  #01 //036   ----------------------------------------
 BYTE   W04
 BYTE   VOL   76*DelfinoPlaza_mvl/mxv
 BYTE   W08
 BYTE   N05  Cs3  v100
 BYTE   N06  En3
 BYTE   N04  An3  v104
 BYTE   W12
 BYTE   N05  Cs3
 BYTE   N07  En3  v100
 BYTE   N03  An3  v088
 BYTE   W12
 BYTE   Cs3  v084
 BYTE   N05  En3  v076
 BYTE   N03  An3  v088
 BYTE   W12
 BYTE   N17  Ds3  v124
 BYTE   N17  Fs3  v088
 BYTE   N19  An3  v084
 BYTE   W12
 BYTE   VOL   76*DelfinoPlaza_mvl/mxv
 BYTE   W12
 BYTE   N05  Ds3  v100
 BYTE   N06  Fs3
 BYTE   W12
 BYTE   N05  Ds3
 BYTE   N04  An3  v096
 BYTE   W12
//  #01 //037   ----------------------------------------
 BYTE   N24  Bn2  v048
 BYTE   N32  Dn3  v072
 BYTE   N32  Fs3  v088
 BYTE   W20
 BYTE   VOL   76*DelfinoPlaza_mvl/mxv
 BYTE   W28
 BYTE   N32  Bn2  v060
 BYTE   N32  En3  v080
 BYTE   N32  Gs3  v092
 BYTE   W28
 BYTE   VOL   76*DelfinoPlaza_mvl/mxv
 BYTE   W20
//  #01 //038   ----------------------------------------
 BYTE   W36
 BYTE   VOL   76*DelfinoPlaza_mvl/mxv
 BYTE   W60
//  #01 //039   ----------------------------------------
 BYTE   W96
//  #01 //040   ----------------------------------------
Label_013B4E6E:
 BYTE   W12
 BYTE   VOL   76*DelfinoPlaza_mvl/mxv
 BYTE   W56
 BYTE   VOL   76*DelfinoPlaza_mvl/mxv
 BYTE   W28
 BYTE   PEND 
//  #01 //041   ----------------------------------------
Label_013B4E75:
 BYTE   W28
 BYTE   VOL   76*DelfinoPlaza_mvl/mxv
 BYTE   W56
 BYTE   VOL   76*DelfinoPlaza_mvl/mxv
 BYTE   W12
 BYTE   PEND 
//  #01 //042   ----------------------------------------
 BYTE   W44
 BYTE   Ds4
 BYTE   W52
//  #01 //043   ----------------------------------------
 BYTE   W04
 BYTE   Ds4
 BYTE   W56
 BYTE   Ds4
 BYTE   W36
//  #01 //044   ----------------------------------------
 BYTE   W12
 BYTE   N24  En4  v100
 BYTE   W08
 BYTE   VOL   75*DelfinoPlaza_mvl/mxv
 BYTE   W16
 BYTE   N05  Ds4  v092
 BYTE   W04
 BYTE   N07  Dn4
 BYTE   W08
 BYTE   N11  Cs4
 BYTE   W12
 BYTE   Dn4  v120
 BYTE   W12
 BYTE   Ds4  v092
 BYTE   W04
 BYTE   VOL   75*DelfinoPlaza_mvl/mxv
 BYTE   W08
 BYTE   N11  En4
 BYTE   W12
//  #01 //045   ----------------------------------------
 BYTE   Cs4  v100
 BYTE   W12
 BYTE   Gs3  v092
 BYTE   W12
 BYTE   N84  En3  v112
 BYTE   W12
 BYTE   VOL   74*DelfinoPlaza_mvl/mxv
 BYTE   W56
 BYTE   VOL   74*DelfinoPlaza_mvl/mxv
 BYTE   W04
//  #01 //046   ----------------------------------------
 BYTE   W16
 BYTE   N03  Fs3  v080
 BYTE   W04
 BYTE   Gs3  v100
 BYTE   W04
 BYTE   N11  Fs3  v060
 BYTE   W12
 BYTE   En3  v100
 BYTE   W12
 BYTE   Fs3
 BYTE   W04
 BYTE   VOL   73*DelfinoPlaza_mvl/mxv
 BYTE   W08
 BYTE   N11  Bn3  v060
 BYTE   W12
 BYTE   Dn4  v100
 BYTE   W12
 BYTE   Fs4
 BYTE   W12
//  #01 //047   ----------------------------------------
 BYTE   N07  En4  v112
 BYTE   W04
 BYTE   Fs4
 BYTE   W04
 BYTE   N84  En4  v100
 BYTE   W04
 BYTE   VOL   73*DelfinoPlaza_mvl/mxv
 BYTE   W56
 BYTE   VOL   73*DelfinoPlaza_mvl/mxv
 BYTE   W28
//  #01 //048   ----------------------------------------
 BYTE   W12
 BYTE   N05  Fs4
 BYTE   W06
 BYTE   Gs4
 BYTE   W06
 BYTE   N13  En4  v080
 BYTE   W04
 BYTE   VOL   72*DelfinoPlaza_mvl/mxv
 BYTE   W10
 BYTE   N05  Dn4
 BYTE   W06
 BYTE   En4  v072
 BYTE   W04
 BYTE   N13  Cs4
 BYTE   W14
 BYTE   N05  Bn3  v060
 BYTE   W06
 BYTE   Cs4  v072
 BYTE   W06
 BYTE   N11  An3  v080
 BYTE   W10
 BYTE   VOL   71*DelfinoPlaza_mvl/mxv
 BYTE   W02
 BYTE   N05  Fs3  v112
 BYTE   W06
 BYTE   Gs3  v100
 BYTE   W04
//  #01 //049   ----------------------------------------
 BYTE   W02
 BYTE   N11  En3  v092
 BYTE   W12
 BYTE   N05  Dn3
 BYTE   W06
 BYTE   En3
 BYTE   W06
 BYTE   N11  Cs3  v100
 BYTE   W12
 BYTE   N05  Bn2  v080
 BYTE   W06
 BYTE   VOL   71*DelfinoPlaza_mvl/mxv
 BYTE   N05  Cs3
 BYTE   W06
 BYTE   N13  An2  v092
 BYTE   W14
 BYTE   N05  Fs2  v100
 BYTE   W06
 BYTE   Gs2
 BYTE   W06
 BYTE   TIE  En2  v120
 BYTE   W20
//  #01 //050   ----------------------------------------
 BYTE   W04
 BYTE   VOL   71*DelfinoPlaza_mvl/mxv
 BYTE   W56
 BYTE   VOL   70*DelfinoPlaza_mvl/mxv
 BYTE   W36
//  #01 //051   ----------------------------------------
 BYTE   W20
 BYTE   VOL   69*DelfinoPlaza_mvl/mxv
 BYTE   W30
 BYTE   W01
 BYTE   EOT
 BYTE   W24
 BYTE   W01
 BYTE   VOL   69*DelfinoPlaza_mvl/mxv
 BYTE   W20
//  #01 //052   ----------------------------------------
 BYTE   VOL   76*DelfinoPlaza_mvl/mxv
 BYTE   W36
 BYTE   VOL   76*DelfinoPlaza_mvl/mxv
 BYTE   W56
 BYTE   VOL   76*DelfinoPlaza_mvl/mxv
 BYTE   W04
//  #01 //053   ----------------------------------------
 BYTE   W52
 BYTE   VOL   76*DelfinoPlaza_mvl/mxv
 BYTE   W44
//  #01 //054   ----------------------------------------
 BYTE   PATT
  POIN2 Label_013B4BDB
//  #01 //055   ----------------------------------------
 BYTE   PATT
  POIN2 Label_013B4BE2
//  #01 //056   ----------------------------------------
 BYTE   W44
 BYTE   VOL   76*DelfinoPlaza_mvl/mxv
 BYTE   W52
//  #01 //057   ----------------------------------------
 BYTE   PATT
  POIN2 Label_013B4C79
//  #01 //058   ----------------------------------------
 BYTE   W20
 BYTE   VOL   76*DelfinoPlaza_mvl/mxv
 BYTE   W56
 BYTE   VOL   76*DelfinoPlaza_mvl/mxv
 BYTE   W20
//  #01 //059   ----------------------------------------
 BYTE   PATT
  POIN2 Label_013B4C81
//  #01 //060   ----------------------------------------
 BYTE   W12
 BYTE   N30  Dn4  v100
 BYTE   W32
 BYTE   N03  An3  v092
 BYTE   W02
 BYTE   Gs3
 BYTE   W02
 BYTE   Gn3
 BYTE   W02
 BYTE   N21  Fs3  v120
 BYTE   W02
 BYTE   VOL   76*DelfinoPlaza_mvl/mxv
 BYTE   W20
 BYTE   N23  Dn4  v100
 BYTE   W24
//  #01 //061   ----------------------------------------
 BYTE   N92  Cs4
 BYTE   W96
//  #01 //062   ----------------------------------------
 BYTE   W12
 BYTE   N30  Dn4
 BYTE   W16
 BYTE   VOL   76*DelfinoPlaza_mvl/mxv
 BYTE   W15
 BYTE   N03  An3  v092
 BYTE   W02
 BYTE   Gs3
 BYTE   W02
 BYTE   Gn3
 BYTE   W02
 BYTE   N21  Fs3  v120
 BYTE   W22
 BYTE   N23  Dn4  v100
 BYTE   W13
 BYTE   VOL   76*DelfinoPlaza_mvl/mxv
 BYTE   W11
 BYTE   N44  Cs4
 BYTE   W01
//  #01 //063   ----------------------------------------
 BYTE   W44
 BYTE   VOL   76*DelfinoPlaza_mvl/mxv
 BYTE   W03
 BYTE   N44  An3
 BYTE   W48
 BYTE   W01
//  #01 //064   ----------------------------------------
 BYTE   W04
 BYTE   VOL   76*DelfinoPlaza_mvl/mxv
 BYTE   W08
 BYTE   N28  Dn4
 BYTE   W30
 BYTE   N03  An3  v092
 BYTE   W02
 BYTE   Gs3
 BYTE   W02
 BYTE   Gn3
 BYTE   W02
 BYTE   N23  Fs3  v120
 BYTE   W12
 BYTE   VOL   76*DelfinoPlaza_mvl/mxv
 BYTE   W12
 BYTE   N23  Dn4  v100
 BYTE   W24
//  #01 //065   ----------------------------------------
 BYTE   Cs4
 BYTE   W20
 BYTE   VOL   76*DelfinoPlaza_mvl/mxv
 BYTE   W04
 BYTE   N23  Bn3
 BYTE   W24
 BYTE   N44  As3
 BYTE   W28
 BYTE   VOL   76*DelfinoPlaza_mvl/mxv
 BYTE   W20
//  #01 //066   ----------------------------------------
 BYTE   W12
 BYTE   N28  An3
 BYTE   W24
 BYTE   VOL   76*DelfinoPlaza_mvl/mxv
 BYTE   W06
 BYTE   N03  Gs3  v092
 BYTE   W02
 BYTE   Gn3
 BYTE   W02
 BYTE   Fs3
 BYTE   W02
 BYTE   N23  Fn3  v120
 BYTE   W24
 BYTE   An3  v100
 BYTE   W20
 BYTE   VOL   76*DelfinoPlaza_mvl/mxv
 BYTE   W03
 BYTE   N44  Gs3
 BYTE   W01
//  #01 //067   ----------------------------------------
 BYTE   W44
 BYTE   W03
 BYTE   En4
 BYTE   W05
 BYTE   VOL   76*DelfinoPlaza_mvl/mxv
 BYTE   W44
//  #01 //068   ----------------------------------------
 BYTE   PATT
  POIN2 Label_013B4E6E
//  #01 //069   ----------------------------------------
 BYTE   PATT
  POIN2 Label_013B4E75
//  #01 //070   ----------------------------------------
 BYTE   W44
 BYTE   VOL   76*DelfinoPlaza_mvl/mxv
 BYTE   W52
//  #01 //071   ----------------------------------------
 BYTE   W04
 BYTE   VOL   76*DelfinoPlaza_mvl/mxv
 BYTE   W56
 BYTE   VOL   76*DelfinoPlaza_mvl/mxv
 BYTE   W36
//  #01 //072   ----------------------------------------
 BYTE   W12
 BYTE   N05  Cs3  v112
 BYTE   N05  En3  v116
 BYTE   N05  An3  v104
 BYTE   W08
 BYTE   VOL   76*DelfinoPlaza_mvl/mxv
 BYTE   W04
 BYTE   N04  Cs3  v112
 BYTE   N05  En3  v100
 BYTE   N04  An3
 BYTE   W12
 BYTE   N05  Cs3
 BYTE   N04  En3  v112
 BYTE   N04  An3  v088
 BYTE   W12
 BYTE   N16  Bn2  v080
 BYTE   N16  Dn3  v088
 BYTE   N19  Gn3  v096
 BYTE   W24
 BYTE   N04  Bn2
 BYTE   N05  Dn3  v088
 BYTE   W04
 BYTE   VOL   76*DelfinoPlaza_mvl/mxv
 BYTE   W08
 BYTE   N03  Bn2  v096
 BYTE   N04  Dn3  v080
 BYTE   N03  Gn3  v088
 BYTE   W12
//  #01 //073   ----------------------------------------
 BYTE   N36  Gs2  v068
 BYTE   N36  Bn2  v088
 BYTE   N40  En3  v112
 BYTE   W36
 BYTE   VOL   76*DelfinoPlaza_mvl/mxv
 BYTE   W12
 BYTE   N40  An2  v088
 BYTE   W44
 BYTE   VOL   76*DelfinoPlaza_mvl/mxv
 BYTE   W04
//  #01 //074   ----------------------------------------
 BYTE   W12
 BYTE   N05  Cs3  v100
 BYTE   N05  En3
 BYTE   N05  An3  v096
 BYTE   W12
 BYTE   Cs3  v100
 BYTE   N05  En3  v092
 BYTE   N04  An3  v096
 BYTE   W12
 BYTE   N05  Cs3  v088
 BYTE   N05  En3
 BYTE   N04  An3  v084
 BYTE   W12
 BYTE   N19  Bn2  v088
 BYTE   N19  Dn3  v080
 BYTE   N18  Gn3  v092
 BYTE   W07
 BYTE   VOL   76*DelfinoPlaza_mvl/mxv
 BYTE   W17
 BYTE   N05  Dn3  v088
 BYTE   N04  Gn3
 BYTE   N06  Bn3  v104
 BYTE   W12
 BYTE   Bn2  v092
 BYTE   N05  Dn3  v076
 BYTE   N04  Gn3  v088
 BYTE   W12
//  #01 //075   ----------------------------------------
 BYTE   N84  Cs3  v080
 BYTE   N88  En3  v068
 BYTE   N84  An3  v080
 BYTE   W15
 BYTE   VOL   76*DelfinoPlaza_mvl/mxv
 BYTE   W56
 BYTE   VOL   76*DelfinoPlaza_mvl/mxv
 BYTE   W24
 BYTE   W01
//  #01 //076   ----------------------------------------
 BYTE   W12
 BYTE   N05  En3  v096
 BYTE   N06  Gn3  v088
 BYTE   N05  Cn4  v116
 BYTE   W12
 BYTE   N04  En3  v100
 BYTE   N07  Gn3  v096
 BYTE   N04  Cn4  v092
 BYTE   W07
 BYTE   VOL   76*DelfinoPlaza_mvl/mxv
 BYTE   W05
 BYTE   N04  En3  v096
 BYTE   N06  Gn3  v068
 BYTE   N05  Cn4  v088
 BYTE   W12
 BYTE   N20  Dn3
 BYTE   N18  Fn3  v092
 BYTE   N22  As3  v096
 BYTE   W24
 BYTE   N05  Dn3  v092
 BYTE   N05  Fn3  v096
 BYTE   W12
 BYTE   N04  Dn3  v088
 BYTE   N03  Fn3  v092
 BYTE   N04  As3  v100
 BYTE   W12
//  #01 //077   ----------------------------------------
 BYTE   N36  Cn3  v088
 BYTE   N42  En3  v076
 BYTE   N40  Gn3  v092
 BYTE   W48
 BYTE   N44  Cn3  v080
 BYTE   W48
//  #01 //078   ----------------------------------------
 BYTE   W07
 BYTE   VOL   76*DelfinoPlaza_mvl/mxv
 BYTE   W05
 BYTE   N05  En3  v104
 BYTE   N04  Gn3  v080
 BYTE   N05  Cn4  v112
 BYTE   W12
 BYTE   En3  v100
 BYTE   N05  Gn3  v088
 BYTE   N04  Cn4
 BYTE   W12
 BYTE   N05  En3  v100
 BYTE   N05  Gn3  v080
 BYTE   N03  Cn4  v088
 BYTE   W12
 BYTE   N19  Dn3  v080
 BYTE   N19  Fn3
 BYTE   N17  As3  v092
 BYTE   W15
 BYTE   VOL   76*DelfinoPlaza_mvl/mxv
 BYTE   W09
 BYTE   N07  Fn3  v104
 BYTE   N05  As3  v088
 BYTE   N05  Dn4  v104
 BYTE   W12
 BYTE   N06  Dn3  v112
 BYTE   N04  Fn3  v092
 BYTE   N05  As3  v088
 BYTE   W12
//  #01 //079   ----------------------------------------
 BYTE   N76  En3  v092
 BYTE   N76  Gn3  v076
 BYTE   N68  Cn4  v088
 BYTE   W23
 BYTE   VOL   76*DelfinoPlaza_mvl/mxv
 BYTE   W56
 BYTE   VOL   76*DelfinoPlaza_mvl/mxv
 BYTE   W17
//  #01 //080   ----------------------------------------
 BYTE   W12
 BYTE   N06  Cs3  v096
 BYTE   N06  En3  v100
 BYTE   N05  An3  v112
 BYTE   W12
 BYTE   Cs3
 BYTE   N06  En3  v104
 BYTE   N05  An3  v092
 BYTE   W12
 BYTE   Cs3  v100
 BYTE   N06  En3
 BYTE   N03  An3  v080
 BYTE   W03
 BYTE   VOL   75*DelfinoPlaza_mvl/mxv
 BYTE   W09
 BYTE   N18  Ds3
 BYTE   N18  Fs3  v100
 BYTE   N19  An3  v096
 BYTE   W24
 BYTE   N06  Ds3  v116
 BYTE   N05  Fs3  v104
 BYTE   W12
 BYTE   N06  Ds3  v120
 BYTE   N05  An3  v112
 BYTE   W11
 BYTE   VOL   75*DelfinoPlaza_mvl/mxv
 BYTE   W01
//  #01 //081   ----------------------------------------
 BYTE   N40  Bn2  v104
 BYTE   N42  En3  v092
 BYTE   N44  Gs3  v112
 BYTE   W48
 BYTE   N48  Bn2  v080
 BYTE   N20  En3  v088
 BYTE   N20  Fs3  v096
 BYTE   W07
 BYTE   VOL   75*DelfinoPlaza_mvl/mxv
 BYTE   W17
 BYTE   N24  Dn3  v076
 BYTE   N24  En3  v072
 BYTE   W24
//  #01 //082   ----------------------------------------
 BYTE   W12
 BYTE   N05  Cs3  v100
 BYTE   N06  En3
 BYTE   N04  An3  v104
 BYTE   W03
 BYTE   VOL   75*DelfinoPlaza_mvl/mxv
 BYTE   W09
 BYTE   N05  Cs3
 BYTE   N07  En3  v100
 BYTE   N03  An3  v088
 BYTE   W12
 BYTE   Cs3  v084
 BYTE   N05  En3  v076
 BYTE   N03  An3  v088
 BYTE   W12
 BYTE   N17  Ds3  v124
 BYTE   N17  Fs3  v088
 BYTE   N19  An3  v084
 BYTE   W23
 BYTE   VOL   75*DelfinoPlaza_mvl/mxv
 BYTE   W01
 BYTE   N05  Ds3  v100
 BYTE   N06  Fs3
 BYTE   W12
 BYTE   N05  Ds3
 BYTE   N04  An3  v096
 BYTE   W12
//  #01 //083   ----------------------------------------
 BYTE   N24  Bn2  v048
 BYTE   N32  Dn3  v072
 BYTE   N32  Fs3  v088
 BYTE   W30
 BYTE   W01
 BYTE   VOL   74*DelfinoPlaza_mvl/mxv
 BYTE   W17
 BYTE   N32  Bn2  v060
 BYTE   N32  En3  v080
 BYTE   N32  Gs3  v092
 BYTE   W36
 BYTE   W03
 BYTE   VOL   74*DelfinoPlaza_mvl/mxv
 BYTE   W09
//  #01 //084   ----------------------------------------
 BYTE   W44
 BYTE   W03
 BYTE   VOL   74*DelfinoPlaza_mvl/mxv
 BYTE   W48
 BYTE   W01
//  #01 //085   ----------------------------------------
 BYTE   W07
 BYTE   VOL   73*DelfinoPlaza_mvl/mxv
 BYTE   W56
 BYTE   VOL   73*DelfinoPlaza_mvl/mxv
 BYTE   W32
 BYTE   W01
//  #01 //086   ----------------------------------------
 BYTE   W23
 BYTE   VOL   72*DelfinoPlaza_mvl/mxv
 BYTE   W56
 BYTE   VOL   71*DelfinoPlaza_mvl/mxv
 BYTE   W17
//  #01 //087   ----------------------------------------
 BYTE   W36
 BYTE   W03
 BYTE   VOL   71*DelfinoPlaza_mvl/mxv
 BYTE   W56
 BYTE   VOL   71*DelfinoPlaza_mvl/mxv
 BYTE   W01
//  #01 //088   ----------------------------------------
 BYTE   W54
 BYTE   W01
 BYTE   VOL   70*DelfinoPlaza_mvl/mxv
 BYTE   W40
 BYTE   W01
//  #01 //089   ----------------------------------------
 BYTE   W15
 BYTE   VOL   69*DelfinoPlaza_mvl/mxv
 BYTE   W56
 BYTE   VOL   69*DelfinoPlaza_mvl/mxv
 BYTE   W24
 BYTE   W01
//  #01 //090   ----------------------------------------
 BYTE   W12
 BYTE   N24  En4  v100
 BYTE   W19
 BYTE   VOL   69*DelfinoPlaza_mvl/mxv
 BYTE   W05
 BYTE   N05  Ds4  v092
 BYTE   W04
 BYTE   N07  Dn4
 BYTE   W08
 BYTE   N11  Cs4
 BYTE   W12
 BYTE   Dn4  v120
 BYTE   W12
 BYTE   Ds4  v092
 BYTE   W12
 BYTE   En4
 BYTE   W12
//  #01 //091   ----------------------------------------
 BYTE   Cs4  v100
 BYTE   W12
 BYTE   Gs3  v092
 BYTE   W12
 BYTE   N84  En3  v112
 BYTE   W72
//  #01 //092   ----------------------------------------
 BYTE   W16
 BYTE   N03  Fs3  v080
 BYTE   W04
 BYTE   Gs3  v100
 BYTE   W04
 BYTE   N11  Fs3  v060
 BYTE   W12
 BYTE   En3  v100
 BYTE   W12
 BYTE   Fs3
 BYTE   W12
 BYTE   Bn3  v060
 BYTE   W12
 BYTE   Dn4  v100
 BYTE   W12
 BYTE   Fs4
 BYTE   W12
//  #01 //093   ----------------------------------------
 BYTE   N07  En4  v112
 BYTE   W04
 BYTE   Fs4
 BYTE   W04
 BYTE   N84  En4  v100
 BYTE   W88
//  #01 //094   ----------------------------------------
 BYTE   W12
 BYTE   N05  Fs4
 BYTE   W06
 BYTE   Gs4
 BYTE   W06
 BYTE   N13  En4  v080
 BYTE   W14
 BYTE   N05  Dn4
 BYTE   W06
 BYTE   En4  v072
 BYTE   W04
 BYTE   N13  Cs4
 BYTE   W14
 BYTE   N05  Bn3  v060
 BYTE   W06
 BYTE   Cs4  v072
 BYTE   W06
 BYTE   N11  An3  v080
 BYTE   W12
 BYTE   N05  Fs3  v112
 BYTE   W06
 BYTE   Gs3  v100
 BYTE   W04
//  #01 //095   ----------------------------------------
 BYTE   W02
 BYTE   N11  En3  v092
 BYTE   W12
 BYTE   N05  Dn3
 BYTE   W06
 BYTE   En3
 BYTE   W06
 BYTE   N11  Cs3  v100
 BYTE   W12
 BYTE   N05  Bn2  v080
 BYTE   W06
 BYTE   Cs3
 BYTE   W06
 BYTE   N13  An2  v092
 BYTE   W14
 BYTE   N05  Fs2  v100
 BYTE   W06
 BYTE   Gs2
 BYTE   W06
 BYTE   TIE  En2  v120
 BYTE   W20
//  #01 //096   ----------------------------------------
 BYTE   W96
//  #01 //097   ----------------------------------------
 BYTE   W44
 BYTE   W01
 BYTE   VOL   51*DelfinoPlaza_mvl/mxv
 BYTE   W06
 BYTE   EOT
 BYTE   W44
 BYTE   GoTo
  POIN2 Label_013B4BA1
 BYTE   FINE

//**************** Track 2 (Midi-Chn.1) ****************//

DelfinoPlaza_002:
//  #02 //000   ----------------------------------------
 BYTE   VOL   80*DelfinoPlaza_mvl/mxv
 BYTE   KEYSH   DelfinoPlaza_key+0
 BYTE   VOICE   24
 BYTE   W96
//  #02 //001   ----------------------------------------
 BYTE   W92
 BYTE   W03
Label_013B2C45:
 BYTE   W01
//  #02 //002   ----------------------------------------
 BYTE   W96
//  #02 //003   ----------------------------------------
 BYTE   W96
//  #02 //004   ----------------------------------------
 BYTE   W96
//  #02 //005   ----------------------------------------
 BYTE   W96
//  #02 //006   ----------------------------------------
Label_013B2C4A:
 BYTE   W06
 BYTE   N07  En3  v116
 BYTE   W06
 BYTE   N06  Cs4  v124
 BYTE   W12
 BYTE   N09  Cs4  v112
 BYTE   W12
 BYTE   N05  En3  v100
 BYTE   W12
 BYTE   N04  Dn3  v096
 BYTE   W12
 BYTE   N06  Dn3  v080
 BYTE   W06
 BYTE   N20  Bn3  v120
 BYTE   W30
 BYTE   PEND 
//  #02 //007   ----------------------------------------
Label_013B2C68:
 BYTE   W06
 BYTE   N06  En3  v096
 BYTE   W06
 BYTE   N05  Cs4  v127
 BYTE   W12
 BYTE   N10  Cs4  v120
 BYTE   W12
 BYTE   N04  En3  v100
 BYTE   W12
 BYTE   N05  Dn3  v104
 BYTE   W12
 BYTE   N06  Dn3  v092
 BYTE   W06
 BYTE   N21  Bn3  v116
 BYTE   W30
 BYTE   PEND 
//  #02 //008   ----------------------------------------
Label_013B2C86:
 BYTE   W06
 BYTE   N06  En3  v088
 BYTE   W06
 BYTE   N04  Cs4  v124
 BYTE   W12
 BYTE   N05  Cs4  v120
 BYTE   W12
 BYTE   Cs4  v104
 BYTE   W06
 BYTE   BEND   c_v-2
 BYTE   W01
 BYTE   BEND   c_v-10
 BYTE   W01
 BYTE   BEND   c_v-18
 BYTE   W01
 BYTE   BEND   c_v-25
 BYTE   W01
 BYTE   BEND   c_v-34
 BYTE   W01
 BYTE   BEND   c_v-36
 BYTE   W01
 BYTE   BEND   c_v-38
 BYTE   N18  Dn4  v120
 BYTE   W01
 BYTE   BEND   c_v-37
 BYTE   W01
 BYTE   BEND   c_v-34
 BYTE   W01
 BYTE   BEND   c_v-25
 BYTE   W01
 BYTE   BEND   c_v+3
 BYTE   W01
 BYTE   BEND   c_v+0
 BYTE   W01
 BYTE   BEND   c_v+1
 BYTE   W02
 BYTE   BEND   c_v+2
 BYTE   W01
 BYTE   BEND   c_v+1
 BYTE   W01
 BYTE   BEND   c_v+0
 BYTE   W08
 BYTE   N04  Fs3
 BYTE   W12
 BYTE   N05  Fs3  v104
 BYTE   W06
 BYTE   N07  Gs3  v120
 BYTE   W12
 BYTE   PEND 
//  #02 //009   ----------------------------------------
 BYTE   N72  An3
 BYTE   W96
//  #02 //010   ----------------------------------------
 BYTE   PATT
  POIN2 Label_013B2C4A
//  #02 //011   ----------------------------------------
 BYTE   PATT
  POIN2 Label_013B2C68
//  #02 //012   ----------------------------------------
 BYTE   PATT
  POIN2 Label_013B2C86
//  #02 //013   ----------------------------------------
 BYTE   N72  An3  v120
 BYTE   W96
//  #02 //014   ----------------------------------------
 BYTE   W96
//  #02 //015   ----------------------------------------
 BYTE   W96
//  #02 //016   ----------------------------------------
 BYTE   W96
//  #02 //017   ----------------------------------------
 BYTE   W96
//  #02 //018   ----------------------------------------
 BYTE   W96
//  #02 //019   ----------------------------------------
 BYTE   W96
//  #02 //020   ----------------------------------------
 BYTE   W96
//  #02 //021   ----------------------------------------
 BYTE   W96
//  #02 //022   ----------------------------------------
 BYTE   PATT
  POIN2 Label_013B2C4A
//  #02 //023   ----------------------------------------
 BYTE   PATT
  POIN2 Label_013B2C68
//  #02 //024   ----------------------------------------
Label_013B2CEF:
 BYTE   W06
 BYTE   N06  En3  v088
 BYTE   W06
 BYTE   N04  Cs4  v124
 BYTE   W12
 BYTE   N05  Cs4  v120
 BYTE   W12
 BYTE   Cs4  v104
 BYTE   W09
 BYTE   BEND   c_v-6
 BYTE   W01
 BYTE   BEND   c_v-14
 BYTE   W01
 BYTE   BEND   c_v-22
 BYTE   W01
 BYTE   BEND   c_v-29
 BYTE   N18  Dn4  v120
 BYTE   W01
 BYTE   BEND   c_v-38
 BYTE   W01
 BYTE   BEND   c_v-40
 BYTE   W01
 BYTE   BEND   c_v-42
 BYTE   W01
 BYTE   BEND   c_v-41
 BYTE   W01
 BYTE   BEND   c_v-38
 BYTE   W01
 BYTE   BEND   c_v-29
 BYTE   W01
 BYTE   BEND   c_v-1
 BYTE   W01
 BYTE   BEND   c_v-4
 BYTE   W01
 BYTE   BEND   c_v-3
 BYTE   W02
 BYTE   BEND   c_v-2
 BYTE   W02
 BYTE   BEND   c_v+0
 BYTE   W05
 BYTE   N04  Fs3
 BYTE   W12
 BYTE   N05  Fs3  v104
 BYTE   W06
 BYTE   N07  Gs3  v120
 BYTE   W12
 BYTE   PEND 
//  #02 //025   ----------------------------------------
 BYTE   N72  An3
 BYTE   W96
//  #02 //026   ----------------------------------------
 BYTE   W96
//  #02 //027   ----------------------------------------
 BYTE   W96
//  #02 //028   ----------------------------------------
 BYTE   W96
//  #02 //029   ----------------------------------------
 BYTE   W96
//  #02 //030   ----------------------------------------
 BYTE   W96
//  #02 //031   ----------------------------------------
 BYTE   W96
//  #02 //032   ----------------------------------------
 BYTE   W96
//  #02 //033   ----------------------------------------
 BYTE   W96
//  #02 //034   ----------------------------------------
 BYTE   W96
//  #02 //035   ----------------------------------------
 BYTE   W96
//  #02 //036   ----------------------------------------
 BYTE   W96
//  #02 //037   ----------------------------------------
 BYTE   W96
//  #02 //038   ----------------------------------------
 BYTE   PATT
  POIN2 Label_013B2C4A
//  #02 //039   ----------------------------------------
 BYTE   PATT
  POIN2 Label_013B2C68
//  #02 //040   ----------------------------------------
Label_013B2D47:
 BYTE   W06
 BYTE   N06  En3  v088
 BYTE   W06
 BYTE   N04  Cs4  v124
 BYTE   W12
 BYTE   N05  Cs4  v120
 BYTE   W12
 BYTE   Cs4  v104
 BYTE   W09
 BYTE   BEND   c_v-17
 BYTE   W01
 BYTE   BEND   c_v-25
 BYTE   W01
 BYTE   BEND   c_v-32
 BYTE   W01
 BYTE   BEND   c_v-39
 BYTE   N18  Dn4  v120
 BYTE   W01
 BYTE   BEND   c_v-42
 BYTE   W01
 BYTE   BEND   c_v-44
 BYTE   W01
 BYTE   BEND   c_v-44
 BYTE   W01
 BYTE   BEND   c_v-41
 BYTE   W01
 BYTE   BEND   c_v-32
 BYTE   W01
 BYTE   BEND   c_v-9
 BYTE   W01
 BYTE   BEND   c_v-8
 BYTE   W01
 BYTE   BEND   c_v-6
 BYTE   W02
 BYTE   BEND   c_v-5
 BYTE   W02
 BYTE   BEND   c_v-4
 BYTE   W06
 BYTE   N04  Fs3
 BYTE   W12
 BYTE   N05  Fs3  v104
 BYTE   W06
 BYTE   N07  Gs3  v120
 BYTE   W12
 BYTE   PEND 
//  #02 //041   ----------------------------------------
 BYTE   N72  An3
 BYTE   W96
//  #02 //042   ----------------------------------------
 BYTE   W96
//  #02 //043   ----------------------------------------
 BYTE   W96
//  #02 //044   ----------------------------------------
 BYTE   W96
//  #02 //045   ----------------------------------------
 BYTE   W96
//  #02 //046   ----------------------------------------
 BYTE   W96
//  #02 //047   ----------------------------------------
 BYTE   W96
//  #02 //048   ----------------------------------------
 BYTE   W96
//  #02 //049   ----------------------------------------
 BYTE   W96
//  #02 //050   ----------------------------------------
 BYTE   W96
//  #02 //051   ----------------------------------------
 BYTE   W96
//  #02 //052   ----------------------------------------
 BYTE   PATT
  POIN2 Label_013B2C4A
//  #02 //053   ----------------------------------------
 BYTE   PATT
  POIN2 Label_013B2C68
//  #02 //054   ----------------------------------------
 BYTE   PATT
  POIN2 Label_013B2C86
//  #02 //055   ----------------------------------------
 BYTE   N72  An3  v120
 BYTE   W96
//  #02 //056   ----------------------------------------
 BYTE   PATT
  POIN2 Label_013B2C4A
//  #02 //057   ----------------------------------------
 BYTE   PATT
  POIN2 Label_013B2C68
//  #02 //058   ----------------------------------------
 BYTE   PATT
  POIN2 Label_013B2C86
//  #02 //059   ----------------------------------------
 BYTE   N72  An3  v120
 BYTE   W96
//  #02 //060   ----------------------------------------
 BYTE   W96
//  #02 //061   ----------------------------------------
 BYTE   W96
//  #02 //062   ----------------------------------------
 BYTE   W96
//  #02 //063   ----------------------------------------
 BYTE   W96
//  #02 //064   ----------------------------------------
 BYTE   W96
//  #02 //065   ----------------------------------------
 BYTE   W96
//  #02 //066   ----------------------------------------
 BYTE   W96
//  #02 //067   ----------------------------------------
 BYTE   W96
//  #02 //068   ----------------------------------------
 BYTE   PATT
  POIN2 Label_013B2C4A
//  #02 //069   ----------------------------------------
 BYTE   PATT
  POIN2 Label_013B2C68
//  #02 //070   ----------------------------------------
 BYTE   PATT
  POIN2 Label_013B2CEF
//  #02 //071   ----------------------------------------
 BYTE   N72  An3  v120
 BYTE   W96
//  #02 //072   ----------------------------------------
 BYTE   W96
//  #02 //073   ----------------------------------------
 BYTE   W96
//  #02 //074   ----------------------------------------
 BYTE   W96
//  #02 //075   ----------------------------------------
 BYTE   W96
//  #02 //076   ----------------------------------------
 BYTE   W96
//  #02 //077   ----------------------------------------
 BYTE   W96
//  #02 //078   ----------------------------------------
 BYTE   W96
//  #02 //079   ----------------------------------------
 BYTE   W96
//  #02 //080   ----------------------------------------
 BYTE   W96
//  #02 //081   ----------------------------------------
 BYTE   W96
//  #02 //082   ----------------------------------------
 BYTE   W96
//  #02 //083   ----------------------------------------
 BYTE   W96
//  #02 //084   ----------------------------------------
 BYTE   PATT
  POIN2 Label_013B2C4A
//  #02 //085   ----------------------------------------
 BYTE   PATT
  POIN2 Label_013B2C68
//  #02 //086   ----------------------------------------
 BYTE   PATT
  POIN2 Label_013B2D47
//  #02 //087   ----------------------------------------
 BYTE   N72  An3  v120
 BYTE   W96
//  #02 //088   ----------------------------------------
 BYTE   W96
//  #02 //089   ----------------------------------------
 BYTE   W96
//  #02 //090   ----------------------------------------
 BYTE   W96
//  #02 //091   ----------------------------------------
 BYTE   W96
//  #02 //092   ----------------------------------------
 BYTE   W96
//  #02 //093   ----------------------------------------
 BYTE   W96
//  #02 //094   ----------------------------------------
 BYTE   W96
//  #02 //095   ----------------------------------------
 BYTE   W96
//  #02 //096   ----------------------------------------
 BYTE   W96
//  #02 //097   ----------------------------------------
 BYTE   W44
 BYTE   W01
 BYTE   VOL   73*DelfinoPlaza_mvl/mxv
 BYTE   BEND   c_v+0
 BYTE   W48
 BYTE   W02
 BYTE   GoTo
  POIN2 Label_013B2C45
 BYTE   FINE

//**************** Track 3 (Midi-Chn.2) ****************//

DelfinoPlaza_003:
//  #03 //000   ----------------------------------------
 BYTE   KEYSH   DelfinoPlaza_key+0
 BYTE   VOICE   24
 BYTE   W96
//  #03 //001   ----------------------------------------
 BYTE   W04
 BYTE   VOL   62*DelfinoPlaza_mvl/mxv
 BYTE   W09
 BYTE   VOL   61*DelfinoPlaza_mvl/mxv
 BYTE   W08
 BYTE   VOL   61*DelfinoPlaza_mvl/mxv
 BYTE   W09
 BYTE   VOL   59*DelfinoPlaza_mvl/mxv
 BYTE   W08
 BYTE   VOL   59*DelfinoPlaza_mvl/mxv
 BYTE   W08
 BYTE   VOL   58*DelfinoPlaza_mvl/mxv
 BYTE   W09
 BYTE   VOL   57*DelfinoPlaza_mvl/mxv
 BYTE   W05
 BYTE   VOL   57*DelfinoPlaza_mvl/mxv
 BYTE   W09
 BYTE   VOL   56*DelfinoPlaza_mvl/mxv
 BYTE   W08
 BYTE   VOL   55*DelfinoPlaza_mvl/mxv
 BYTE   W09
 BYTE   VOL   54*DelfinoPlaza_mvl/mxv
 BYTE   W08
 BYTE   VOL   53*DelfinoPlaza_mvl/mxv
 BYTE   W01
Label_013B52BF:
 BYTE   W01
//  #03 //002   ----------------------------------------
 BYTE   N05  En2  v116
 BYTE   W12
 BYTE   En2  v092
 BYTE   W08
 BYTE   VOL   53*DelfinoPlaza_mvl/mxv
 BYTE   W04
 BYTE   N04  Gn2  v104
 BYTE   W12
 BYTE   Gn2  v088
 BYTE   W12
 BYTE   N06  Fs2  v100
 BYTE   W12
 BYTE   N07  Fs2  v092
 BYTE   W12
 BYTE   N05  Fn2  v104
 BYTE   W04
 BYTE   VOL   53*DelfinoPlaza_mvl/mxv
 BYTE   W08
 BYTE   N05  Fn2  v092
 BYTE   W12
//  #03 //003   ----------------------------------------
 BYTE   En2  v096
 BYTE   W12
 BYTE   En2  v088
 BYTE   W12
 BYTE   Gn2  v100
 BYTE   W05
 BYTE   W01
 BYTE   W06
 BYTE   VOL   54*DelfinoPlaza_mvl/mxv
 BYTE   N04  Gn2  v072
 BYTE   W12
 BYTE   N06  Fs2  v104
 BYTE   W12
 BYTE   N06
 BYTE   W12
 BYTE   Fn2  v112
 BYTE   W12
 BYTE   N05  Fn2  v092
 BYTE   W08
 BYTE   VOL   54*DelfinoPlaza_mvl/mxv
 BYTE   W04
//  #03 //004   ----------------------------------------
 BYTE   N06  En2  v096
 BYTE   W12
 BYTE   N05  En2  v088
 BYTE   W12
 BYTE   Gn2  v096
 BYTE   W12
 BYTE   N04  Gn2  v088
 BYTE   W12
 BYTE   N05  Fs2  v096
 BYTE   W07
 BYTE   VOL   54*DelfinoPlaza_mvl/mxv
 BYTE   W05
 BYTE   N06  Fs2  v112
 BYTE   W12
 BYTE   Fn2
 BYTE   W12
 BYTE   Fn2  v096
 BYTE   W12
//  #03 //005   ----------------------------------------
 BYTE   En2
 BYTE   W12
 BYTE   N05  En2  v088
 BYTE   W03
 BYTE   VOL   54*DelfinoPlaza_mvl/mxv
 BYTE   W09
 BYTE   N05  Gn2  v104
 BYTE   W12
 BYTE   Gn2  v096
 BYTE   W04
 BYTE   W01
 BYTE   W06
 BYTE   MOD 0
 BYTE   W01
 BYTE   N05  Fs2  v112
 BYTE   W12
 BYTE   N06  Fs2  v100
 BYTE   W11
 BYTE   VOL   54*DelfinoPlaza_mvl/mxv
 BYTE   W01
 BYTE   N05  Fn2
 BYTE   W12
 BYTE   Fn2  v092
 BYTE   W12
//  #03 //006   ----------------------------------------
 BYTE   En2  v116
 BYTE   W12
 BYTE   En2  v092
 BYTE   W12
 BYTE   N04  Gn2  v104
 BYTE   W07
 BYTE   VOL   54*DelfinoPlaza_mvl/mxv
 BYTE   W05
 BYTE   N04  Gn2  v088
 BYTE   W12
 BYTE   N06  Fs2  v100
 BYTE   W12
 BYTE   N07  Fs2  v092
 BYTE   W12
 BYTE   N05  Fn2  v104
 BYTE   W12
 BYTE   VOL   54*DelfinoPlaza_mvl/mxv
 BYTE   N05  Fn2  v092
 BYTE   W12
//  #03 //007   ----------------------------------------
 BYTE   En2  v096
 BYTE   W12
 BYTE   En2  v088
 BYTE   W12
 BYTE   Gn2  v100
 BYTE   W05
 BYTE   W01
 BYTE   W06
 BYTE   N04  Gn2  v072
 BYTE   W08
 BYTE   VOL   54*DelfinoPlaza_mvl/mxv
 BYTE   W04
 BYTE   N06  Fs2  v104
 BYTE   W12
 BYTE   N06
 BYTE   W12
 BYTE   Fn2  v112
 BYTE   W12
 BYTE   N05  Fn2  v092
 BYTE   W12
//  #03 //008   ----------------------------------------
 BYTE   N06  En2  v096
 BYTE   W04
 BYTE   VOL   54*DelfinoPlaza_mvl/mxv
 BYTE   W08
 BYTE   N05  En2  v088
 BYTE   W12
 BYTE   Gn2  v096
 BYTE   W12
 BYTE   N04  Gn2  v088
 BYTE   W12
 BYTE   N05  Fs2  v096
 BYTE   W12
 BYTE   VOL   54*DelfinoPlaza_mvl/mxv
 BYTE   N06  Fs2  v112
 BYTE   W12
 BYTE   Fn2
 BYTE   W12
 BYTE   Fn2  v096
 BYTE   W12
//  #03 //009   ----------------------------------------
 BYTE   En2
 BYTE   W12
 BYTE   N05  En2  v088
 BYTE   W08
 BYTE   VOL   55*DelfinoPlaza_mvl/mxv
 BYTE   W04
 BYTE   N05  Gn2  v104
 BYTE   W12
 BYTE   Gn2  v096
 BYTE   W04
 BYTE   W01
 BYTE   W06
 BYTE   MOD 0
 BYTE   W01
 BYTE   N05  Fs2  v112
 BYTE   W12
 BYTE   N06  Fs2  v100
 BYTE   W12
 BYTE   N05  Fn2
 BYTE   W04
 BYTE   VOL   55*DelfinoPlaza_mvl/mxv
 BYTE   W08
 BYTE   N05  Fn2  v092
 BYTE   W12
//  #03 //010   ----------------------------------------
 BYTE   En2  v116
 BYTE   W12
 BYTE   En2  v092
 BYTE   W12
 BYTE   N04  Gn2  v104
 BYTE   W12
 BYTE   VOL   55*DelfinoPlaza_mvl/mxv
 BYTE   N04  Gn2  v088
 BYTE   W12
 BYTE   N06  Fs2  v100
 BYTE   W12
 BYTE   N07  Fs2  v092
 BYTE   W12
 BYTE   N05  Fn2  v104
 BYTE   W12
 BYTE   Fn2  v092
 BYTE   W08
 BYTE   VOL   55*DelfinoPlaza_mvl/mxv
 BYTE   W04
//  #03 //011   ----------------------------------------
 BYTE   N05  En2  v096
 BYTE   W12
 BYTE   En2  v088
 BYTE   W12
 BYTE   Gn2  v100
 BYTE   W05
 BYTE   W01
 BYTE   W06
 BYTE   N04  Gn2  v072
 BYTE   W12
 BYTE   N06  Fs2  v104
 BYTE   W04
 BYTE   VOL   55*DelfinoPlaza_mvl/mxv
 BYTE   W08
 BYTE   N06
 BYTE   W12
 BYTE   Fn2  v112
 BYTE   W12
 BYTE   N05  Fn2  v092
 BYTE   W12
//  #03 //012   ----------------------------------------
 BYTE   N06  En2  v096
 BYTE   W12
 BYTE   VOL   56*DelfinoPlaza_mvl/mxv
 BYTE   N05  En2  v088
 BYTE   W12
 BYTE   Gn2  v096
 BYTE   W12
 BYTE   N04  Gn2  v088
 BYTE   W12
 BYTE   N05  Fs2  v096
 BYTE   W12
 BYTE   N06  Fs2  v112
 BYTE   W08
 BYTE   VOL   56*DelfinoPlaza_mvl/mxv
 BYTE   W04
 BYTE   N06  Fn2
 BYTE   W12
 BYTE   Fn2  v096
 BYTE   W11
 BYTE   N07  En2  v124
 BYTE   W01
//  #03 //013   ----------------------------------------
 BYTE   W13
 BYTE   N04  En2  v127
 BYTE   W05
 BYTE   En2  v116
 BYTE   W06
 BYTE   N05  En2  v124
 BYTE   W04
 BYTE   VOL   56*DelfinoPlaza_mvl/mxv
 BYTE   W08
 BYTE   N04
 BYTE   W06
 BYTE   En2  v127
 BYTE   W06
 BYTE   N06  En2  v124
 BYTE   W11
 BYTE   N02
 BYTE   W05
 BYTE   N04  En2  v116
 BYTE   W06
 BYTE   N03  En2  v124
 BYTE   W05
 BYTE   N04  En2  v120
 BYTE   W06
 BYTE   N04
 BYTE   W03
 BYTE   VOL   56*DelfinoPlaza_mvl/mxv
 BYTE   W12
//  #03 //014   ----------------------------------------
 BYTE   N06  Dn2  v112
 BYTE   N05  Fs2  v124
 BYTE   W12
 BYTE   N04  Dn2  v088
 BYTE   N05  Fs2  v116
 BYTE   W12
 BYTE   Dn2  v092
 BYTE   N06  Fs2  v116
 BYTE   W12
 BYTE   N04  Dn2  v088
 BYTE   N05  Fs2  v116
 BYTE   W08
 BYTE   VOL   56*DelfinoPlaza_mvl/mxv
 BYTE   W04
 BYTE   N05  Dn2  v096
 BYTE   N06  Fs2  v124
 BYTE   W12
 BYTE   N04  Dn2  v088
 BYTE   N05  Fs2  v112
 BYTE   W12
 BYTE   Dn2  v104
 BYTE   N06  Fs2  v127
 BYTE   W12
 BYTE   N04  Dn2  v092
 BYTE   N05  Fs2  v104
 BYTE   W12
//  #03 //015   ----------------------------------------
 BYTE   Cs2  v112
 BYTE   N05  En2
 BYTE   W04
 BYTE   VOL   56*DelfinoPlaza_mvl/mxv
 BYTE   W08
 BYTE   N04  Cs2
 BYTE   N04  En2  v088
 BYTE   W12
 BYTE   N05  Cs2  v120
 BYTE   N05  En2  v096
 BYTE   W12
 BYTE   Cs2  v100
 BYTE   N05  En2  v088
 BYTE   W12
 BYTE   N06  Cs2  v116
 BYTE   N05  En2  v096
 BYTE   W12
 BYTE   VOL   56*DelfinoPlaza_mvl/mxv
 BYTE   N05  Cs2  v104
 BYTE   N04  En2  v100
 BYTE   W12
 BYTE   N06  Cs2  v120
 BYTE   N05  En2  v104
 BYTE   W12
 BYTE   Cs2  v112
 BYTE   N04  En2  v100
 BYTE   W12
//  #03 //016   ----------------------------------------
 BYTE   N05  Dn2  v104
 BYTE   N06  Fs2  v120
 BYTE   W12
 BYTE   Dn2  v096
 BYTE   N05  Fs2  v116
 BYTE   W08
 BYTE   VOL   56*DelfinoPlaza_mvl/mxv
 BYTE   W04
 BYTE   N05  Dn2  v104
 BYTE   N06  Fs2  v124
 BYTE   W12
 BYTE   N04  Dn2  v092
 BYTE   N06  Fs2  v120
 BYTE   W12
 BYTE   N05  Dn2  v092
 BYTE   N06  Fs2  v127
 BYTE   W12
 BYTE   N04  Dn2  v088
 BYTE   N05  Fs2  v104
 BYTE   W12
 BYTE   Dn2  v100
 BYTE   N05  Fs2  v124
 BYTE   W04
 BYTE   VOL   56*DelfinoPlaza_mvl/mxv
 BYTE   W08
 BYTE   N04  Dn2  v096
 BYTE   N05  Fs2  v100
 BYTE   W12
//  #03 //017   ----------------------------------------
 BYTE   Cs2  v116
 BYTE   N05  En2  v104
 BYTE   W12
 BYTE   Cs2  v116
 BYTE   N04  En2  v092
 BYTE   W12
 BYTE   N06  Cs2  v116
 BYTE   N05  En2  v096
 BYTE   W12
 BYTE   VOL   57*DelfinoPlaza_mvl/mxv
 BYTE   N05  Cs2  v116
 BYTE   N05  En2  v092
 BYTE   W12
 BYTE   En2  v100
 BYTE   N05  An2
 BYTE   W12
 BYTE   En2
 BYTE   N05  An2
 BYTE   W12
 BYTE   En2
 BYTE   N05  Gn2
 BYTE   W12
 BYTE   En2
 BYTE   N05  Gn2
 BYTE   W08
 BYTE   VOL   57*DelfinoPlaza_mvl/mxv
 BYTE   W04
//  #03 //018   ----------------------------------------
 BYTE   N05  Dn2  v104
 BYTE   N06  Fs2  v127
 BYTE   W12
 BYTE   N04  Dn2  v096
 BYTE   N05  Fs2  v120
 BYTE   W12
 BYTE   Dn2  v096
 BYTE   N06  Fs2  v124
 BYTE   W12
 BYTE   N05  Dn2  v100
 BYTE   N05  Fs2  v104
 BYTE   W12
 BYTE   Dn2
 BYTE   N06  Fs2  v116
 BYTE   W04
 BYTE   VOL   57*DelfinoPlaza_mvl/mxv
 BYTE   W08
 BYTE   N04  Dn2  v100
 BYTE   N04  Fs2  v104
 BYTE   W12
 BYTE   N05  Dn2  v096
 BYTE   N04  Fs2  v104
 BYTE   W12
 BYTE   Dn2  v096
 BYTE   N06  Fs2
 BYTE   W12
//  #03 //019   ----------------------------------------
 BYTE   N05  Cs2  v116
 BYTE   N05  En2
 BYTE   W12
 BYTE   VOL   57*DelfinoPlaza_mvl/mxv
 BYTE   N05  Cs2
 BYTE   N05  En2  v092
 BYTE   W12
 BYTE   Cs2  v120
 BYTE   N05  En2  v104
 BYTE   N07  Gs2  v127
 BYTE   W12
 BYTE   N06  Cs2  v116
 BYTE   N06  Gs2  v104
 BYTE   W12
 BYTE   Cs2  v120
 BYTE   N05  Fs2  v127
 BYTE   W12
 BYTE   Cs2  v120
 BYTE   N05  Fs2  v127
 BYTE   W08
 BYTE   VOL   57*DelfinoPlaza_mvl/mxv
 BYTE   W04
 BYTE   N05  Cs2  v120
 BYTE   N04  Fs2  v127
 BYTE   W12
 BYTE   Cs2  v116
 BYTE   N05  Fs2
 BYTE   W12
//  #03 //020   ----------------------------------------
 BYTE   N06  Cn2  v112
 BYTE   N06  Fn2
 BYTE   W12
 BYTE   N05  Cn2  v092
 BYTE   N04  Fn2  v096
 BYTE   W12
 BYTE   N05  Cn2
 BYTE   N05  Fn2  v104
 BYTE   W04
 BYTE   VOL   57*DelfinoPlaza_mvl/mxv
 BYTE   W08
 BYTE   N04  Cn2  v096
 BYTE   N04  Fn2  v104
 BYTE   W12
 BYTE   N05  Cn2  v116
 BYTE   N05  Fn2  v100
 BYTE   W12
 BYTE   N04  Cn2  v112
 BYTE   N04  Fn2  v100
 BYTE   W12
 BYTE   N05  Cn2  v116
 BYTE   N05  Fn2  v092
 BYTE   W12
 BYTE   VOL   57*DelfinoPlaza_mvl/mxv
 BYTE   N04  Cn2  v100
 BYTE   N06  Fn2  v096
 BYTE   W12
//  #03 //021   ----------------------------------------
 BYTE   N05  Bn1  v116
 BYTE   N05  En2
 BYTE   W12
 BYTE   N04  Bn1  v112
 BYTE   N05  En2  v100
 BYTE   W12
 BYTE   Bn1  v112
 BYTE   N05  En2
 BYTE   W12
 BYTE   Bn1
 BYTE   N05  En2  v100
 BYTE   W08
 BYTE   VOL   57*DelfinoPlaza_mvl/mxv
 BYTE   W04
 BYTE   N06  Bn1  v104
 BYTE   N05  En2  v100
 BYTE   W12
 BYTE   Bn1  v112
 BYTE   N05  En2  v104
 BYTE   W12
 BYTE   N06  Bn1  v112
 BYTE   N05  En2  v092
 BYTE   W12
 BYTE   Bn1  v112
 BYTE   N05  En2  v092
 BYTE   W12
//  #03 //022   ----------------------------------------
 BYTE   En2  v112
 BYTE   W04
 BYTE   VOL   57*DelfinoPlaza_mvl/mxv
 BYTE   W08
 BYTE   N05  En2  v096
 BYTE   W12
 BYTE   Gn2
 BYTE   W12
 BYTE   Gn2  v092
 BYTE   W12
 BYTE   Fs2  v127
 BYTE   W12
 BYTE   VOL   57*DelfinoPlaza_mvl/mxv
 BYTE   N05  Fs2  v112
 BYTE   W12
 BYTE   N06  Fn2
 BYTE   W12
 BYTE   Fn2  v100
 BYTE   W12
//  #03 //023   ----------------------------------------
 BYTE   En2  v112
 BYTE   W12
 BYTE   N05  En2  v092
 BYTE   W08
 BYTE   VOL   58*DelfinoPlaza_mvl/mxv
 BYTE   W04
 BYTE   N05  Gn2  v120
 BYTE   W12
 BYTE   N04  Gn2  v096
 BYTE   W12
 BYTE   N05  Fs2  v116
 BYTE   W12
 BYTE   Fs2  v092
 BYTE   W12
 BYTE   N06  Fn2  v104
 BYTE   W04
 BYTE   VOL   58*DelfinoPlaza_mvl/mxv
 BYTE   W08
 BYTE   N06  Fn2  v096
 BYTE   W12
//  #03 //024   ----------------------------------------
 BYTE   En2  v104
 BYTE   W12
 BYTE   N04  En2  v096
 BYTE   W12
 BYTE   N05  Gn2  v104
 BYTE   W12
 BYTE   VOL   58*DelfinoPlaza_mvl/mxv
 BYTE   N03  Gn2  v088
 BYTE   W12
 BYTE   N05  Fs2  v104
 BYTE   W12
 BYTE   Fs2  v096
 BYTE   W12
 BYTE   N06  Fn2  v104
 BYTE   W12
 BYTE   N04  Fn2  v092
 BYTE   W08
 BYTE   VOL   58*DelfinoPlaza_mvl/mxv
 BYTE   W04
//  #03 //025   ----------------------------------------
 BYTE   N05  En2  v112
 BYTE   W12
 BYTE   N04  En2  v092
 BYTE   W11
 BYTE   En2  v096
 BYTE   W11
 BYTE   N02  En2  v076
 BYTE   W05
 BYTE   En2  v072
 BYTE   W05
 BYTE   N03  En2  v120
 BYTE   W05
 BYTE   En2  v116
 BYTE   W03
 BYTE   VOL   58*DelfinoPlaza_mvl/mxv
 BYTE   W03
 BYTE   N01  En2  v104
 BYTE   W04
 BYTE   N02  En2  v116
 BYTE   W04
 BYTE   En2  v112
 BYTE   W04
 BYTE   N03  En2  v127
 BYTE   W05
 BYTE   En2  v124
 BYTE   W05
 BYTE   En2  v116
 BYTE   W07
 BYTE   N04  En2  v124
 BYTE   W12
//  #03 //026   ----------------------------------------
 BYTE   N06  En2  v100
 BYTE   N05  An2  v116
 BYTE   W12
 BYTE   VOL   59*DelfinoPlaza_mvl/mxv
 BYTE   N04  En2  v092
 BYTE   N04  An2  v104
 BYTE   W12
 BYTE   N05  En2
 BYTE   W01
 BYTE   N04  An2  v100
 BYTE   W10
 BYTE   En2  v088
 BYTE   W01
 BYTE   An2  v092
 BYTE   W11
 BYTE   N06  Dn2  v124
 BYTE   W01
 BYTE   N04  Gn2  v116
 BYTE   W12
 BYTE   Dn2  v096
 BYTE   N04  Gn2
 BYTE   W08
 BYTE   VOL   59*DelfinoPlaza_mvl/mxv
 BYTE   W03
 BYTE   N05  Dn2  v112
 BYTE   W01
 BYTE   Gn2  v100
 BYTE   W11
 BYTE   Dn2  v112
 BYTE   N04  Gn2  v092
 BYTE   W11
 BYTE   N06  En2  v127
 BYTE   W01
 BYTE   N04  Gs2  v124
 BYTE   W01
//  #03 //027   ----------------------------------------
 BYTE   W11
 BYTE   N05  En2  v104
 BYTE   N05  Gs2  v116
 BYTE   W12
 BYTE   En2  v112
 BYTE   N04  Gs2  v120
 BYTE   W05
 BYTE   VOL   59*DelfinoPlaza_mvl/mxv
 BYTE   W05
 BYTE   N04  Gs2  v096
 BYTE   W01
 BYTE   N05  En2
 BYTE   W12
 BYTE   N06  En2  v112
 BYTE   N05  An2
 BYTE   W12
 BYTE   En2  v104
 BYTE   W01
 BYTE   N03  An2  v096
 BYTE   W11
 BYTE   N05  En2
 BYTE   W01
 BYTE   N04  An2  v104
 BYTE   W10
 BYTE   N05  En2
 BYTE   W02
 BYTE   N04  An2  v092
 BYTE   W01
 BYTE   VOL   59*DelfinoPlaza_mvl/mxv
 BYTE   W10
 BYTE   N06  En2  v100
 BYTE   W01
 BYTE   N05  An2  v112
 BYTE   W01
//  #03 //028   ----------------------------------------
 BYTE   W09
 BYTE   En2  v092
 BYTE   W02
 BYTE   N04  An2  v088
 BYTE   W11
 BYTE   N05  En2  v100
 BYTE   W01
 BYTE   N04  An2  v104
 BYTE   W11
 BYTE   N05  En2  v100
 BYTE   W01
 BYTE   An2  v096
 BYTE   W09
 BYTE   VOL   59*DelfinoPlaza_mvl/mxv
 BYTE   W02
 BYTE   N05  Dn2  v120
 BYTE   W01
 BYTE   Gn2
 BYTE   W11
 BYTE   Dn2  v100
 BYTE   W02
 BYTE   N04  Gn2
 BYTE   W11
 BYTE   N05  Dn2  v116
 BYTE   W01
 BYTE   Gn2  v100
 BYTE   W11
 BYTE   Dn2  v104
 BYTE   N04  Gn2  v092
 BYTE   W12
 BYTE   N06  En2  v124
 BYTE   W01
//  #03 //029   ----------------------------------------
 BYTE   W01
 BYTE   N04  An2  v116
 BYTE   W03
 BYTE   VOL   59*DelfinoPlaza_mvl/mxv
 BYTE   W06
 BYTE   N05  En2  v100
 BYTE   W02
 BYTE   N04  An2  v104
 BYTE   W10
 BYTE   N05  En2  v112
 BYTE   W02
 BYTE   N04  An2
 BYTE   W10
 BYTE   N06  En2
 BYTE   W01
 BYTE   N04  An2  v096
 BYTE   W12
 BYTE   N05  En2  v104
 BYTE   W01
 BYTE   N04  An2  v100
 BYTE   W10
 BYTE   N05  En2  v104
 BYTE   W01
 BYTE   N04  An2  v100
 BYTE   W01
 BYTE   VOL   59*DelfinoPlaza_mvl/mxv
 BYTE   W11
 BYTE   N04  Fn2  v112
 BYTE   N03  As2  v124
 BYTE   W09
 BYTE   N05  Fs2  v127
 BYTE   W02
 BYTE   N04  Bn2  v104
 BYTE   W11
 BYTE   N05  Gn2  v100
 BYTE   W01
 BYTE   Cn3  v116
 BYTE   W02
//  #03 //030   ----------------------------------------
 BYTE   W10
 BYTE   Gn2  v104
 BYTE   N05  Cn3
 BYTE   W10
 BYTE   VOL   59*DelfinoPlaza_mvl/mxv
 BYTE   W02
 BYTE   N04  Gn2  v088
 BYTE   N05  Cn3  v104
 BYTE   W11
 BYTE   Gn2
 BYTE   W01
 BYTE   N04  Cn3  v100
 BYTE   W11
 BYTE   N05  Fn2
 BYTE   N04  As2  v127
 BYTE   W12
 BYTE   N05  Fn2  v112
 BYTE   N04  As2  v116
 BYTE   W13
 BYTE   N05  Fn2  v112
 BYTE   N04  As2
 BYTE   W06
 BYTE   VOL   59*DelfinoPlaza_mvl/mxv
 BYTE   W06
 BYTE   N05  Fn2  v104
 BYTE   N05  As2  v120
 BYTE   W12
 BYTE   N06  Gn2  v124
 BYTE   W01
 BYTE   Cn3  v112
 BYTE   W01
//  #03 //031   ----------------------------------------
 BYTE   W10
 BYTE   N05  Gn2  v100
 BYTE   W02
 BYTE   N03  Cn3  v088
 BYTE   W11
 BYTE   N05  Gn2  v104
 BYTE   W01
 BYTE   N04  Cn3  v112
 BYTE   W11
 BYTE   N05  Gn2
 BYTE   W01
 BYTE   VOL   59*DelfinoPlaza_mvl/mxv
 BYTE   W01
 BYTE   N04  Cn3
 BYTE   W10
 BYTE   N05  Gn2  v092
 BYTE   W02
 BYTE   N04  Cn3  v104
 BYTE   W11
 BYTE   Gn2  v100
 BYTE   N04  Cn3
 BYTE   W12
 BYTE   N05  Gn2  v104
 BYTE   W01
 BYTE   N04  Cn3  v100
 BYTE   W11
 BYTE   Gn2  v096
 BYTE   W01
 BYTE   N03  Cn3  v100
 BYTE   W07
 BYTE   VOL   60*DelfinoPlaza_mvl/mxv
 BYTE   W04
//  #03 //032   ----------------------------------------
 BYTE   N05  Gn2  v104
 BYTE   W01
 BYTE   Cn3  v116
 BYTE   W11
 BYTE   Gn2  v100
 BYTE   W01
 BYTE   N04  Cn3
 BYTE   W10
 BYTE   N05  Gn2
 BYTE   W02
 BYTE   N04  Cn3  v096
 BYTE   W10
 BYTE   N05  Gn2
 BYTE   W01
 BYTE   N04  Cn3  v100
 BYTE   W11
 BYTE   N05  Fn2  v104
 BYTE   N04  As2  v127
 BYTE   W05
 BYTE   VOL   60*DelfinoPlaza_mvl/mxv
 BYTE   W06
 BYTE   N05  Fn2  v096
 BYTE   N04  As2  v116
 BYTE   W12
 BYTE   N05  Fn2  v112
 BYTE   W01
 BYTE   N04  As2  v127
 BYTE   W11
 BYTE   N05  Fn2  v112
 BYTE   N04  As2
 BYTE   W12
 BYTE   N05  Gn2  v124
 BYTE   N05  Cn3  v112
 BYTE   W02
//  #03 //033   ----------------------------------------
 BYTE   W09
 BYTE   Gn2  v096
 BYTE   W03
 BYTE   VOL   60*DelfinoPlaza_mvl/mxv
 BYTE   N04  Cn3  v100
 BYTE   W10
 BYTE   N05  Gn2  v116
 BYTE   W02
 BYTE   N04  Cn3
 BYTE   W10
 BYTE   N05  Gn2  v104
 BYTE   W02
 BYTE   N04  Cn3  v112
 BYTE   W10
 BYTE   N05  Gn2
 BYTE   W02
 BYTE   N04  Cn3
 BYTE   W11
 BYTE   N05  Gn2  v104
 BYTE   W01
 BYTE   N04  Cn3  v100
 BYTE   W08
 BYTE   VOL   60*DelfinoPlaza_mvl/mxv
 BYTE   W03
 BYTE   N04  Gn2
 BYTE   W02
 BYTE   Cn3  v092
 BYTE   W10
 BYTE   N03  Gn2
 BYTE   N03  Cn3  v096
 BYTE   W12
 BYTE   N05  En2  v112
 BYTE   N04  An2
 BYTE   W01
//  #03 //034   ----------------------------------------
 BYTE   W10
 BYTE   N05  En2  v096
 BYTE   W01
 BYTE   N04  An2  v104
 BYTE   W11
 BYTE   N06  En2  v100
 BYTE   W02
 BYTE   N04  An2  v096
 BYTE   W04
 BYTE   VOL   60*DelfinoPlaza_mvl/mxv
 BYTE   W06
 BYTE   N05  En2
 BYTE   W02
 BYTE   N03  An2  v088
 BYTE   W12
 BYTE   N04  Fs2  v120
 BYTE   N05  An2  v080
 BYTE   W01
 BYTE   W10
 BYTE   N04  Fs2  v127
 BYTE   W01
 BYTE   An2  v092
 BYTE   W11
 BYTE   Fs2  v124
 BYTE   W02
 BYTE   N05  An2  v100
 BYTE   W09
 BYTE   Fs2  v124
 BYTE   W02
 BYTE   VOL   61*DelfinoPlaza_mvl/mxv
 BYTE   N05  An2  v088
 BYTE   W12
//  #03 //035   ----------------------------------------
 BYTE   N06  En2  v124
 BYTE   W02
 BYTE   N03  Gs2  v120
 BYTE   W09
 BYTE   N04  Gs2  v112
 BYTE   W01
 BYTE   En2
 BYTE   W11
 BYTE   Gs2  v116
 BYTE   W01
 BYTE   N05  En2
 BYTE   W10
 BYTE   N04  Gs2  v120
 BYTE   W01
 BYTE   En2  v116
 BYTE   W09
 BYTE   VOL   61*DelfinoPlaza_mvl/mxv
 BYTE   W03
 BYTE   N05
 BYTE   N05  Gs2  v127
 BYTE   W12
 BYTE   N04  Gs2  v124
 BYTE   W01
 BYTE   En2  v096
 BYTE   W11
 BYTE   N05  En2  v104
 BYTE   N04  Gs2  v120
 BYTE   W11
 BYTE   N05  En2  v104
 BYTE   N04  Gs2
 BYTE   W12
 BYTE   N06  En2  v116
 BYTE   W01
 BYTE   N05  An2  v112
 BYTE   W01
//  #03 //036   ----------------------------------------
 BYTE   W04
 BYTE   VOL   61*DelfinoPlaza_mvl/mxv
 BYTE   W06
 BYTE   N06  En2  v100
 BYTE   W02
 BYTE   N04  An2  v096
 BYTE   W10
 BYTE   N05  En2  v100
 BYTE   W02
 BYTE   An2
 BYTE   W10
 BYTE   En2
 BYTE   W02
 BYTE   An2
 BYTE   W11
 BYTE   Fs2  v116
 BYTE   W01
 BYTE   An2  v112
 BYTE   W10
 BYTE   Fs2  v116
 BYTE   W02
 BYTE   VOL   61*DelfinoPlaza_mvl/mxv
 BYTE   N04  An2  v096
 BYTE   W11
 BYTE   Fs2  v120
 BYTE   W01
 BYTE   N05  An2  v096
 BYTE   W10
 BYTE   N04  Fs2  v116
 BYTE   W01
 BYTE   N05  An2  v088
 BYTE   W13
//  #03 //037   ----------------------------------------
 BYTE   N06  Dn2  v092
 BYTE   N04  Fs2  v127
 BYTE   W11
 BYTE   N05  Dn2  v100
 BYTE   W01
 BYTE   N04  Fs2  v124
 BYTE   W08
 BYTE   VOL   61*DelfinoPlaza_mvl/mxv
 BYTE   W03
 BYTE   N05  Dn2  v092
 BYTE   W01
 BYTE   N04  Fs2  v124
 BYTE   W11
 BYTE   N05  Dn2  v104
 BYTE   N05  Fs2  v124
 BYTE   W12
 BYTE   N04  Gs2
 BYTE   W01
 BYTE   N06  En2  v112
 BYTE   W11
 BYTE   N05  Gs2  v120
 BYTE   W01
 BYTE   En2  v100
 BYTE   W11
 BYTE   Gs2  v124
 BYTE   W01
 BYTE   N06  En2  v104
 BYTE   W04
 BYTE   VOL   61*DelfinoPlaza_mvl/mxv
 BYTE   W07
 BYTE   N05  Gs2  v116
 BYTE   W01
 BYTE   En2  v100
 BYTE   W12
//  #03 //038   ----------------------------------------
 BYTE   N05
 BYTE   W12
 BYTE   N05
 BYTE   W12
 BYTE   Gn2
 BYTE   W12
 BYTE   VOL   61*DelfinoPlaza_mvl/mxv
 BYTE   N05
 BYTE   W12
 BYTE   Fs2
 BYTE   W12
 BYTE   N05
 BYTE   W12
 BYTE   Fn2
 BYTE   W12
 BYTE   N05
 BYTE   W08
 BYTE   VOL   61*DelfinoPlaza_mvl/mxv
 BYTE   W04
//  #03 //039   ----------------------------------------
 BYTE   N05  En2
 BYTE   W12
 BYTE   N05
 BYTE   W12
 BYTE   Gn2
 BYTE   W12
 BYTE   N05
 BYTE   W12
 BYTE   Fs2
 BYTE   W04
 BYTE   VOL   61*DelfinoPlaza_mvl/mxv
 BYTE   W08
 BYTE   N05
 BYTE   W12
 BYTE   Fn2
 BYTE   W12
 BYTE   N05
 BYTE   W12
//  #03 //040   ----------------------------------------
 BYTE   En2
 BYTE   W12
 BYTE   VOL   62*DelfinoPlaza_mvl/mxv
 BYTE   N05
 BYTE   W12
 BYTE   Gn2
 BYTE   W12
 BYTE   N05
 BYTE   W12
 BYTE   Fs2
 BYTE   W12
 BYTE   N05
 BYTE   W08
 BYTE   VOL   62*DelfinoPlaza_mvl/mxv
 BYTE   W04
 BYTE   N05  Gs2
 BYTE   W12
 BYTE   N05
 BYTE   W12
//  #03 //041   ----------------------------------------
 BYTE   An2
 BYTE   W28
 BYTE   VOL   62*DelfinoPlaza_mvl/mxv
 BYTE   W56
 BYTE   VOL   62*DelfinoPlaza_mvl/mxv
 BYTE   W12
//  #03 //042   ----------------------------------------
 BYTE   N05  En2
 BYTE   W12
 BYTE   N05
 BYTE   W12
 BYTE   Gn2
 BYTE   W12
 BYTE   N05
 BYTE   W08
 BYTE   VOL   62*DelfinoPlaza_mvl/mxv
 BYTE   W04
 BYTE   N05  Fs2
 BYTE   W12
 BYTE   N05
 BYTE   W12
 BYTE   Fn2
 BYTE   W12
 BYTE   N05
 BYTE   W12
//  #03 //043   ----------------------------------------
 BYTE   En2
 BYTE   W04
 BYTE   VOL   62*DelfinoPlaza_mvl/mxv
 BYTE   W08
 BYTE   N05
 BYTE   W12
 BYTE   Gn2
 BYTE   W12
 BYTE   N05
 BYTE   W12
 BYTE   Fs2
 BYTE   W12
 BYTE   VOL   62*DelfinoPlaza_mvl/mxv
 BYTE   N05
 BYTE   W12
 BYTE   Fn2
 BYTE   W12
 BYTE   N05
 BYTE   W12
//  #03 //044   ----------------------------------------
 BYTE   En2
 BYTE   W12
 BYTE   N05
 BYTE   W08
 BYTE   VOL   62*DelfinoPlaza_mvl/mxv
 BYTE   W04
 BYTE   N05  Gn2
 BYTE   W12
 BYTE   N05
 BYTE   W12
 BYTE   Fs2
 BYTE   W12
 BYTE   N05
 BYTE   W12
 BYTE   Fn2
 BYTE   W04
 BYTE   VOL   62*DelfinoPlaza_mvl/mxv
 BYTE   W08
 BYTE   N05
 BYTE   W12
//  #03 //045   ----------------------------------------
 BYTE   En2
 BYTE   W12
 BYTE   N05
 BYTE   W12
 BYTE   Gn2
 BYTE   W12
 BYTE   VOL   62*DelfinoPlaza_mvl/mxv
 BYTE   N05
 BYTE   W12
 BYTE   Fs2
 BYTE   W12
 BYTE   N05
 BYTE   W12
 BYTE   Fn2
 BYTE   W12
 BYTE   N05
 BYTE   W12
//  #03 //046   ----------------------------------------
Label_013B5A30:
 BYTE   N05  En2  v100
 BYTE   W12
 BYTE   N05
 BYTE   W12
 BYTE   Gn2
 BYTE   W12
 BYTE   N05
 BYTE   W12
 BYTE   Fs2
 BYTE   W12
 BYTE   N05
 BYTE   W12
 BYTE   Fn2
 BYTE   W12
 BYTE   N05
 BYTE   W12
 BYTE   PEND 
//  #03 //047   ----------------------------------------
 BYTE   PATT
  POIN2 Label_013B5A30
//  #03 //048   ----------------------------------------
 BYTE   PATT
  POIN2 Label_013B5A30
//  #03 //049   ----------------------------------------
 BYTE   PATT
  POIN2 Label_013B5A30
//  #03 //050   ----------------------------------------
 BYTE   PATT
  POIN2 Label_013B5A30
//  #03 //051   ----------------------------------------
 BYTE   PATT
  POIN2 Label_013B5A30
//  #03 //052   ----------------------------------------
 BYTE   VOL   54*DelfinoPlaza_mvl/mxv
 BYTE   N05  En2  v116
 BYTE   W12
 BYTE   En2  v092
 BYTE   W12
 BYTE   N04  Gn2  v104
 BYTE   W12
 BYTE   VOL   54*DelfinoPlaza_mvl/mxv
 BYTE   N04  Gn2  v088
 BYTE   W12
 BYTE   N06  Fs2  v100
 BYTE   W12
 BYTE   N07  Fs2  v092
 BYTE   W12
 BYTE   N05  Fn2  v104
 BYTE   W12
 BYTE   Fn2  v092
 BYTE   W08
 BYTE   VOL   54*DelfinoPlaza_mvl/mxv
 BYTE   W04
//  #03 //053   ----------------------------------------
 BYTE   N05  En2  v096
 BYTE   W12
 BYTE   En2  v088
 BYTE   W12
 BYTE   Gn2  v100
 BYTE   W05
 BYTE   W01
 BYTE   W06
 BYTE   N04  Gn2  v072
 BYTE   W12
 BYTE   N06  Fs2  v104
 BYTE   W04
 BYTE   VOL   54*DelfinoPlaza_mvl/mxv
 BYTE   W08
 BYTE   N06
 BYTE   W12
 BYTE   Fn2  v112
 BYTE   W12
 BYTE   N05  Fn2  v092
 BYTE   W12
//  #03 //054   ----------------------------------------
 BYTE   N06  En2  v096
 BYTE   W12
 BYTE   VOL   54*DelfinoPlaza_mvl/mxv
 BYTE   N05  En2  v088
 BYTE   W12
 BYTE   Gn2  v096
 BYTE   W12
 BYTE   N04  Gn2  v088
 BYTE   W12
 BYTE   N05  Fs2  v096
 BYTE   W12
 BYTE   N06  Fs2  v112
 BYTE   W08
 BYTE   VOL   54*DelfinoPlaza_mvl/mxv
 BYTE   W04
 BYTE   N06  Fn2
 BYTE   W12
 BYTE   Fn2  v096
 BYTE   W12
//  #03 //055   ----------------------------------------
 BYTE   En2
 BYTE   W12
 BYTE   N05  En2  v088
 BYTE   W12
 BYTE   Gn2  v104
 BYTE   W04
 BYTE   VOL   55*DelfinoPlaza_mvl/mxv
 BYTE   W08
 BYTE   N05  Gn2  v096
 BYTE   W04
 BYTE   W01
 BYTE   W06
 BYTE   MOD 0
 BYTE   W01
 BYTE   N05  Fs2  v112
 BYTE   W12
 BYTE   N06  Fs2  v100
 BYTE   W12
 BYTE   N05  Fn2
 BYTE   W12
 BYTE   VOL   55*DelfinoPlaza_mvl/mxv
 BYTE   N05  Fn2  v092
 BYTE   W12
//  #03 //056   ----------------------------------------
 BYTE   En2  v116
 BYTE   W12
 BYTE   En2  v092
 BYTE   W12
 BYTE   N04  Gn2  v104
 BYTE   W12
 BYTE   Gn2  v088
 BYTE   W08
 BYTE   VOL   55*DelfinoPlaza_mvl/mxv
 BYTE   W04
 BYTE   N06  Fs2  v100
 BYTE   W12
 BYTE   N07  Fs2  v092
 BYTE   W12
 BYTE   N05  Fn2  v104
 BYTE   W12
 BYTE   Fn2  v092
 BYTE   W12
//  #03 //057   ----------------------------------------
 BYTE   En2  v096
 BYTE   W04
 BYTE   VOL   55*DelfinoPlaza_mvl/mxv
 BYTE   W08
 BYTE   N05  En2  v088
 BYTE   W12
 BYTE   Gn2  v100
 BYTE   W05
 BYTE   W01
 BYTE   W06
 BYTE   N04  Gn2  v072
 BYTE   W12
 BYTE   N06  Fs2  v104
 BYTE   W12
 BYTE   VOL   56*DelfinoPlaza_mvl/mxv
 BYTE   N06
 BYTE   W12
 BYTE   Fn2  v112
 BYTE   W12
 BYTE   N05  Fn2  v092
 BYTE   W12
//  #03 //058   ----------------------------------------
 BYTE   N06  En2  v096
 BYTE   W12
 BYTE   N05  En2  v088
 BYTE   W08
 BYTE   VOL   56*DelfinoPlaza_mvl/mxv
 BYTE   W04
 BYTE   N05  Gn2  v096
 BYTE   W12
 BYTE   N04  Gn2  v088
 BYTE   W12
 BYTE   N05  Fs2  v096
 BYTE   W12
 BYTE   N06  Fs2  v112
 BYTE   W12
 BYTE   Fn2
 BYTE   W04
 BYTE   VOL   56*DelfinoPlaza_mvl/mxv
 BYTE   W08
 BYTE   N06  Fn2  v096
 BYTE   W11
 BYTE   N07  En2  v124
 BYTE   W01
//  #03 //059   ----------------------------------------
 BYTE   W13
 BYTE   N04  En2  v127
 BYTE   W05
 BYTE   En2  v116
 BYTE   W06
 BYTE   N05  En2  v124
 BYTE   W12
 BYTE   VOL   56*DelfinoPlaza_mvl/mxv
 BYTE   N04
 BYTE   W06
 BYTE   En2  v127
 BYTE   W06
 BYTE   N06  En2  v124
 BYTE   W11
 BYTE   N02
 BYTE   W05
 BYTE   N04  En2  v116
 BYTE   W06
 BYTE   N03  En2  v124
 BYTE   W05
 BYTE   N04  En2  v120
 BYTE   W06
 BYTE   N04
 BYTE   W11
 BYTE   VOL   56*DelfinoPlaza_mvl/mxv
 BYTE   W04
//  #03 //060   ----------------------------------------
 BYTE   N06  Dn2  v112
 BYTE   N05  Fs2  v124
 BYTE   W12
 BYTE   N04  Dn2  v088
 BYTE   N05  Fs2  v116
 BYTE   W12
 BYTE   Dn2  v092
 BYTE   N06  Fs2  v116
 BYTE   W12
 BYTE   N04  Dn2  v088
 BYTE   N05  Fs2  v116
 BYTE   W12
 BYTE   Dn2  v096
 BYTE   N06  Fs2  v124
 BYTE   W04
 BYTE   VOL   56*DelfinoPlaza_mvl/mxv
 BYTE   W08
 BYTE   N04  Dn2  v088
 BYTE   N05  Fs2  v112
 BYTE   W12
 BYTE   Dn2  v104
 BYTE   N06  Fs2  v127
 BYTE   W12
 BYTE   N04  Dn2  v092
 BYTE   N05  Fs2  v104
 BYTE   W12
//  #03 //061   ----------------------------------------
 BYTE   Cs2  v112
 BYTE   N05  En2
 BYTE   W12
 BYTE   VOL   56*DelfinoPlaza_mvl/mxv
 BYTE   N04  Cs2
 BYTE   N04  En2  v088
 BYTE   W12
 BYTE   N05  Cs2  v120
 BYTE   N05  En2  v096
 BYTE   W12
 BYTE   Cs2  v100
 BYTE   N05  En2  v088
 BYTE   W12
 BYTE   N06  Cs2  v116
 BYTE   N05  En2  v096
 BYTE   W12
 BYTE   Cs2  v104
 BYTE   N04  En2  v100
 BYTE   W08
 BYTE   VOL   56*DelfinoPlaza_mvl/mxv
 BYTE   W04
 BYTE   N06  Cs2  v120
 BYTE   N05  En2  v104
 BYTE   W12
 BYTE   Cs2  v112
 BYTE   N04  En2  v100
 BYTE   W12
//  #03 //062   ----------------------------------------
 BYTE   N05  Dn2  v104
 BYTE   N06  Fs2  v120
 BYTE   W12
 BYTE   Dn2  v096
 BYTE   N05  Fs2  v116
 BYTE   W12
 BYTE   Dn2  v104
 BYTE   N06  Fs2  v124
 BYTE   W04
 BYTE   VOL   56*DelfinoPlaza_mvl/mxv
 BYTE   W08
 BYTE   N04  Dn2  v092
 BYTE   N06  Fs2  v120
 BYTE   W12
 BYTE   N05  Dn2  v092
 BYTE   N06  Fs2  v127
 BYTE   W12
 BYTE   N04  Dn2  v088
 BYTE   N05  Fs2  v104
 BYTE   W12
 BYTE   Dn2  v100
 BYTE   N05  Fs2  v124
 BYTE   W12
 BYTE   VOL   56*DelfinoPlaza_mvl/mxv
 BYTE   N04  Dn2  v096
 BYTE   N05  Fs2  v100
 BYTE   W12
//  #03 //063   ----------------------------------------
 BYTE   Cs2  v116
 BYTE   N05  En2  v104
 BYTE   W12
 BYTE   Cs2  v116
 BYTE   N04  En2  v092
 BYTE   W12
 BYTE   N06  Cs2  v116
 BYTE   N05  En2  v096
 BYTE   W12
 BYTE   Cs2  v116
 BYTE   N05  En2  v092
 BYTE   W08
 BYTE   VOL   57*DelfinoPlaza_mvl/mxv
 BYTE   W04
 BYTE   N05  En2  v100
 BYTE   N05  An2
 BYTE   W12
 BYTE   En2
 BYTE   N05  An2
 BYTE   W12
 BYTE   En2
 BYTE   N05  Gn2
 BYTE   W12
 BYTE   En2
 BYTE   N05  Gn2
 BYTE   W12
//  #03 //064   ----------------------------------------
 BYTE   Dn2  v104
 BYTE   N06  Fs2  v127
 BYTE   W04
 BYTE   VOL   57*DelfinoPlaza_mvl/mxv
 BYTE   W08
 BYTE   N04  Dn2  v096
 BYTE   N05  Fs2  v120
 BYTE   W12
 BYTE   Dn2  v096
 BYTE   N06  Fs2  v124
 BYTE   W12
 BYTE   N05  Dn2  v100
 BYTE   N05  Fs2  v104
 BYTE   W12
 BYTE   Dn2
 BYTE   N06  Fs2  v116
 BYTE   W12
 BYTE   VOL   57*DelfinoPlaza_mvl/mxv
 BYTE   N04  Dn2  v100
 BYTE   N04  Fs2  v104
 BYTE   W12
 BYTE   N05  Dn2  v096
 BYTE   N04  Fs2  v104
 BYTE   W12
 BYTE   Dn2  v096
 BYTE   N06  Fs2
 BYTE   W12
//  #03 //065   ----------------------------------------
 BYTE   N05  Cs2  v116
 BYTE   N05  En2
 BYTE   W12
 BYTE   Cs2
 BYTE   N05  En2  v092
 BYTE   W08
 BYTE   VOL   57*DelfinoPlaza_mvl/mxv
 BYTE   W04
 BYTE   N05  Cs2  v120
 BYTE   N05  En2  v104
 BYTE   N07  Gs2  v127
 BYTE   W12
 BYTE   N06  Cs2  v116
 BYTE   N06  Gs2  v104
 BYTE   W12
 BYTE   Cs2  v120
 BYTE   N05  Fs2  v127
 BYTE   W12
 BYTE   Cs2  v120
 BYTE   N05  Fs2  v127
 BYTE   W12
 BYTE   Cs2  v120
 BYTE   N04  Fs2  v127
 BYTE   W04
 BYTE   VOL   57*DelfinoPlaza_mvl/mxv
 BYTE   W08
 BYTE   N04  Cs2  v116
 BYTE   N05  Fs2
 BYTE   W12
//  #03 //066   ----------------------------------------
 BYTE   N06  Cn2  v112
 BYTE   N06  Fn2
 BYTE   W12
 BYTE   N05  Cn2  v092
 BYTE   N04  Fn2  v096
 BYTE   W12
 BYTE   N05  Cn2
 BYTE   N05  Fn2  v104
 BYTE   W12
 BYTE   VOL   57*DelfinoPlaza_mvl/mxv
 BYTE   N04  Cn2  v096
 BYTE   N04  Fn2  v104
 BYTE   W12
 BYTE   N05  Cn2  v116
 BYTE   N05  Fn2  v100
 BYTE   W12
 BYTE   N04  Cn2  v112
 BYTE   N04  Fn2  v100
 BYTE   W12
 BYTE   N05  Cn2  v116
 BYTE   N05  Fn2  v092
 BYTE   W12
 BYTE   N04  Cn2  v100
 BYTE   N06  Fn2  v096
 BYTE   W08
 BYTE   VOL   57*DelfinoPlaza_mvl/mxv
 BYTE   W04
//  #03 //067   ----------------------------------------
 BYTE   N05  Bn1  v116
 BYTE   N05  En2
 BYTE   W12
 BYTE   N04  Bn1  v112
 BYTE   N05  En2  v100
 BYTE   W12
 BYTE   Bn1  v112
 BYTE   N05  En2
 BYTE   W12
 BYTE   Bn1
 BYTE   N05  En2  v100
 BYTE   W12
 BYTE   N06  Bn1  v104
 BYTE   N05  En2  v100
 BYTE   W04
 BYTE   VOL   57*DelfinoPlaza_mvl/mxv
 BYTE   W08
 BYTE   N05  Bn1  v112
 BYTE   N05  En2  v104
 BYTE   W12
 BYTE   N06  Bn1  v112
 BYTE   N05  En2  v092
 BYTE   W12
 BYTE   Bn1  v112
 BYTE   N05  En2  v092
 BYTE   W12
//  #03 //068   ----------------------------------------
 BYTE   En2  v112
 BYTE   W12
 BYTE   VOL   57*DelfinoPlaza_mvl/mxv
 BYTE   N05  En2  v096
 BYTE   W12
 BYTE   Gn2
 BYTE   W12
 BYTE   Gn2  v092
 BYTE   W12
 BYTE   Fs2  v127
 BYTE   W12
 BYTE   Fs2  v112
 BYTE   W08
 BYTE   VOL   57*DelfinoPlaza_mvl/mxv
 BYTE   W04
 BYTE   N06  Fn2
 BYTE   W12
 BYTE   Fn2  v100
 BYTE   W12
//  #03 //069   ----------------------------------------
 BYTE   En2  v112
 BYTE   W12
 BYTE   N05  En2  v092
 BYTE   W12
 BYTE   Gn2  v120
 BYTE   W04
 BYTE   VOL   58*DelfinoPlaza_mvl/mxv
 BYTE   W08
 BYTE   N04  Gn2  v096
 BYTE   W12
 BYTE   N05  Fs2  v116
 BYTE   W12
 BYTE   Fs2  v092
 BYTE   W12
 BYTE   N06  Fn2  v104
 BYTE   W12
 BYTE   VOL   58*DelfinoPlaza_mvl/mxv
 BYTE   N06  Fn2  v096
 BYTE   W12
//  #03 //070   ----------------------------------------
 BYTE   En2  v104
 BYTE   W12
 BYTE   N04  En2  v096
 BYTE   W12
 BYTE   N05  Gn2  v104
 BYTE   W12
 BYTE   N03  Gn2  v088
 BYTE   W08
 BYTE   VOL   58*DelfinoPlaza_mvl/mxv
 BYTE   W04
 BYTE   N05  Fs2  v104
 BYTE   W12
 BYTE   Fs2  v096
 BYTE   W12
 BYTE   N06  Fn2  v104
 BYTE   W12
 BYTE   N04  Fn2  v092
 BYTE   W12
//  #03 //071   ----------------------------------------
 BYTE   N05  En2  v112
 BYTE   W04
 BYTE   VOL   58*DelfinoPlaza_mvl/mxv
 BYTE   W08
 BYTE   N04  En2  v092
 BYTE   W11
 BYTE   En2  v096
 BYTE   W11
 BYTE   N02  En2  v076
 BYTE   W05
 BYTE   En2  v072
 BYTE   W05
 BYTE   N03  En2  v120
 BYTE   W05
 BYTE   En2  v116
 BYTE   W06
 BYTE   N01  En2  v104
 BYTE   W04
 BYTE   N02  En2  v116
 BYTE   W01
 BYTE   VOL   58*DelfinoPlaza_mvl/mxv
 BYTE   W03
 BYTE   N02  En2  v112
 BYTE   W04
 BYTE   N03  En2  v127
 BYTE   W05
 BYTE   En2  v124
 BYTE   W05
 BYTE   En2  v116
 BYTE   W07
 BYTE   N04  En2  v124
 BYTE   W12
//  #03 //072   ----------------------------------------
 BYTE   N06  En2  v100
 BYTE   N05  An2  v116
 BYTE   W12
 BYTE   N04  En2  v092
 BYTE   N04  An2  v104
 BYTE   W08
 BYTE   VOL   59*DelfinoPlaza_mvl/mxv
 BYTE   W04
 BYTE   N05  En2
 BYTE   W01
 BYTE   N04  An2  v100
 BYTE   W10
 BYTE   En2  v088
 BYTE   W01
 BYTE   An2  v092
 BYTE   W11
 BYTE   N06  Dn2  v124
 BYTE   W01
 BYTE   N04  Gn2  v116
 BYTE   W12
 BYTE   Dn2  v096
 BYTE   N04  Gn2
 BYTE   W11
 BYTE   N05  Dn2  v112
 BYTE   W01
 BYTE   Gn2  v100
 BYTE   W04
 BYTE   VOL   59*DelfinoPlaza_mvl/mxv
 BYTE   W07
 BYTE   N05  Dn2  v112
 BYTE   N04  Gn2  v092
 BYTE   W11
 BYTE   N06  En2  v127
 BYTE   W01
 BYTE   N04  Gs2  v124
 BYTE   W01
//  #03 //073   ----------------------------------------
 BYTE   W11
 BYTE   N05  En2  v104
 BYTE   N05  Gs2  v116
 BYTE   W12
 BYTE   En2  v112
 BYTE   N04  Gs2  v120
 BYTE   W10
 BYTE   Gs2  v096
 BYTE   W01
 BYTE   N05  En2
 BYTE   W02
 BYTE   VOL   59*DelfinoPlaza_mvl/mxv
 BYTE   W10
 BYTE   N06  En2  v112
 BYTE   N05  An2
 BYTE   W12
 BYTE   En2  v104
 BYTE   W01
 BYTE   N03  An2  v096
 BYTE   W11
 BYTE   N05  En2
 BYTE   W01
 BYTE   N04  An2  v104
 BYTE   W10
 BYTE   N05  En2
 BYTE   W02
 BYTE   N04  An2  v092
 BYTE   W09
 BYTE   VOL   59*DelfinoPlaza_mvl/mxv
 BYTE   W02
 BYTE   N06  En2  v100
 BYTE   W01
 BYTE   N05  An2  v112
 BYTE   W01
//  #03 //074   ----------------------------------------
 BYTE   W09
 BYTE   En2  v092
 BYTE   W02
 BYTE   N04  An2  v088
 BYTE   W11
 BYTE   N05  En2  v100
 BYTE   W01
 BYTE   N04  An2  v104
 BYTE   W11
 BYTE   N05  En2  v100
 BYTE   W01
 BYTE   An2  v096
 BYTE   W11
 BYTE   Dn2  v120
 BYTE   W01
 BYTE   Gn2
 BYTE   W08
 BYTE   VOL   59*DelfinoPlaza_mvl/mxv
 BYTE   W03
 BYTE   N05  Dn2  v100
 BYTE   W02
 BYTE   N04  Gn2
 BYTE   W11
 BYTE   N05  Dn2  v116
 BYTE   W01
 BYTE   Gn2  v100
 BYTE   W11
 BYTE   Dn2  v104
 BYTE   N04  Gn2  v092
 BYTE   W12
 BYTE   N06  En2  v124
 BYTE   W01
//  #03 //075   ----------------------------------------
 BYTE   W01
 BYTE   N04  An2  v116
 BYTE   W09
 BYTE   N05  En2  v100
 BYTE   W02
 BYTE   N04  An2  v104
 BYTE   W03
 BYTE   VOL   59*DelfinoPlaza_mvl/mxv
 BYTE   W07
 BYTE   N05  En2  v112
 BYTE   W02
 BYTE   N04  An2
 BYTE   W10
 BYTE   N06  En2
 BYTE   W01
 BYTE   N04  An2  v096
 BYTE   W12
 BYTE   N05  En2  v104
 BYTE   W01
 BYTE   N04  An2  v100
 BYTE   W10
 BYTE   N05  En2  v104
 BYTE   W01
 BYTE   N04  An2  v100
 BYTE   W12
 BYTE   VOL   59*DelfinoPlaza_mvl/mxv
 BYTE   N04  Fn2  v112
 BYTE   N03  As2  v124
 BYTE   W09
 BYTE   N05  Fs2  v127
 BYTE   W02
 BYTE   N04  Bn2  v104
 BYTE   W11
 BYTE   N05  Gn2  v100
 BYTE   W01
 BYTE   Cn3  v116
 BYTE   W02
//  #03 //076   ----------------------------------------
 BYTE   W10
 BYTE   Gn2  v104
 BYTE   N05  Cn3
 BYTE   W12
 BYTE   N04  Gn2  v088
 BYTE   N05  Cn3  v104
 BYTE   W09
 BYTE   VOL   59*DelfinoPlaza_mvl/mxv
 BYTE   W02
 BYTE   N05  Gn2
 BYTE   W01
 BYTE   N04  Cn3  v100
 BYTE   W11
 BYTE   N05  Fn2
 BYTE   N04  As2  v127
 BYTE   W12
 BYTE   N05  Fn2  v112
 BYTE   N04  As2  v116
 BYTE   W13
 BYTE   N05  Fn2  v112
 BYTE   N04  As2
 BYTE   W12
 BYTE   N05  Fn2  v104
 BYTE   N05  As2  v120
 BYTE   W05
 BYTE   VOL   59*DelfinoPlaza_mvl/mxv
 BYTE   W07
 BYTE   N06  Gn2  v124
 BYTE   W01
 BYTE   Cn3  v112
 BYTE   W01
//  #03 //077   ----------------------------------------
 BYTE   W10
 BYTE   N05  Gn2  v100
 BYTE   W02
 BYTE   N03  Cn3  v088
 BYTE   W11
 BYTE   N05  Gn2  v104
 BYTE   W01
 BYTE   N04  Cn3  v112
 BYTE   W11
 BYTE   N05  Gn2
 BYTE   W02
 BYTE   N04  Cn3
 BYTE   W10
 BYTE   VOL   60*DelfinoPlaza_mvl/mxv
 BYTE   N05  Gn2  v092
 BYTE   W02
 BYTE   N04  Cn3  v104
 BYTE   W11
 BYTE   Gn2  v100
 BYTE   N04  Cn3
 BYTE   W12
 BYTE   N05  Gn2  v104
 BYTE   W01
 BYTE   N04  Cn3  v100
 BYTE   W11
 BYTE   Gn2  v096
 BYTE   W01
 BYTE   N03  Cn3  v100
 BYTE   W11
//  #03 //078   ----------------------------------------
 BYTE   N05  Gn2  v104
 BYTE   W01
 BYTE   Cn3  v116
 BYTE   W06
 BYTE   VOL   60*DelfinoPlaza_mvl/mxv
 BYTE   W05
 BYTE   N05  Gn2  v100
 BYTE   W01
 BYTE   N04  Cn3
 BYTE   W10
 BYTE   N05  Gn2
 BYTE   W02
 BYTE   N04  Cn3  v096
 BYTE   W10
 BYTE   N05  Gn2
 BYTE   W01
 BYTE   N04  Cn3  v100
 BYTE   W11
 BYTE   N05  Fn2  v104
 BYTE   N04  As2  v127
 BYTE   W11
 BYTE   N05  Fn2  v096
 BYTE   N04  As2  v116
 BYTE   W05
 BYTE   VOL   60*DelfinoPlaza_mvl/mxv
 BYTE   W07
 BYTE   N05  Fn2  v112
 BYTE   W01
 BYTE   N04  As2  v127
 BYTE   W11
 BYTE   N05  Fn2  v112
 BYTE   N04  As2
 BYTE   W12
 BYTE   N05  Gn2  v124
 BYTE   N05  Cn3  v112
 BYTE   W02
//  #03 //079   ----------------------------------------
 BYTE   W09
 BYTE   Gn2  v096
 BYTE   W03
 BYTE   N04  Cn3  v100
 BYTE   W10
 BYTE   N05  Gn2  v116
 BYTE   W01
 BYTE   VOL   60*DelfinoPlaza_mvl/mxv
 BYTE   W01
 BYTE   N04  Cn3
 BYTE   W10
 BYTE   N05  Gn2  v104
 BYTE   W02
 BYTE   N04  Cn3  v112
 BYTE   W10
 BYTE   N05  Gn2
 BYTE   W02
 BYTE   N04  Cn3
 BYTE   W11
 BYTE   N05  Gn2  v104
 BYTE   W01
 BYTE   N04  Cn3  v100
 BYTE   W11
 BYTE   Gn2
 BYTE   W02
 BYTE   Cn3  v092
 BYTE   W06
 BYTE   VOL   60*DelfinoPlaza_mvl/mxv
 BYTE   W04
 BYTE   N03  Gn2
 BYTE   N03  Cn3  v096
 BYTE   W12
 BYTE   N05  En2  v112
 BYTE   N04  An2
 BYTE   W01
//  #03 //080   ----------------------------------------
 BYTE   W10
 BYTE   N05  En2  v096
 BYTE   W01
 BYTE   N04  An2  v104
 BYTE   W11
 BYTE   N06  En2  v100
 BYTE   W02
 BYTE   N04  An2  v096
 BYTE   W10
 BYTE   N05  En2
 BYTE   W02
 BYTE   N03  An2  v088
 BYTE   W03
 BYTE   VOL   61*DelfinoPlaza_mvl/mxv
 BYTE   W09
 BYTE   N04  Fs2  v120
 BYTE   N05  An2  v080
 BYTE   W01
 BYTE   W10
 BYTE   N04  Fs2  v127
 BYTE   W01
 BYTE   An2  v092
 BYTE   W11
 BYTE   Fs2  v124
 BYTE   W02
 BYTE   N05  An2  v100
 BYTE   W09
 BYTE   Fs2  v124
 BYTE   W02
 BYTE   An2  v088
 BYTE   W11
 BYTE   VOL   61*DelfinoPlaza_mvl/mxv
 BYTE   W01
//  #03 //081   ----------------------------------------
 BYTE   N06  En2  v124
 BYTE   W02
 BYTE   N03  Gs2  v120
 BYTE   W09
 BYTE   N04  Gs2  v112
 BYTE   W01
 BYTE   En2
 BYTE   W11
 BYTE   Gs2  v116
 BYTE   W01
 BYTE   N05  En2
 BYTE   W10
 BYTE   N04  Gs2  v120
 BYTE   W01
 BYTE   En2  v116
 BYTE   W12
 BYTE   N05
 BYTE   N05  Gs2  v127
 BYTE   W08
 BYTE   VOL   61*DelfinoPlaza_mvl/mxv
 BYTE   W04
 BYTE   N04  Gs2  v124
 BYTE   W01
 BYTE   En2  v096
 BYTE   W11
 BYTE   N05  En2  v104
 BYTE   N04  Gs2  v120
 BYTE   W11
 BYTE   N05  En2  v104
 BYTE   N04  Gs2
 BYTE   W12
 BYTE   N06  En2  v116
 BYTE   W01
 BYTE   N05  An2  v112
 BYTE   W01
//  #03 //082   ----------------------------------------
 BYTE   W10
 BYTE   N06  En2  v100
 BYTE   W02
 BYTE   N04  An2  v096
 BYTE   W03
 BYTE   VOL   61*DelfinoPlaza_mvl/mxv
 BYTE   W07
 BYTE   N05  En2  v100
 BYTE   W02
 BYTE   An2
 BYTE   W10
 BYTE   En2
 BYTE   W02
 BYTE   An2
 BYTE   W11
 BYTE   Fs2  v116
 BYTE   W01
 BYTE   An2  v112
 BYTE   W10
 BYTE   Fs2  v116
 BYTE   W02
 BYTE   N04  An2  v096
 BYTE   W11
 BYTE   VOL   61*DelfinoPlaza_mvl/mxv
 BYTE   N04  Fs2  v120
 BYTE   W01
 BYTE   N05  An2  v096
 BYTE   W10
 BYTE   N04  Fs2  v116
 BYTE   W01
 BYTE   N05  An2  v088
 BYTE   W13
//  #03 //083   ----------------------------------------
 BYTE   N06  Dn2  v092
 BYTE   N04  Fs2  v127
 BYTE   W11
 BYTE   N05  Dn2  v100
 BYTE   W01
 BYTE   N04  Fs2  v124
 BYTE   W11
 BYTE   N05  Dn2  v092
 BYTE   W01
 BYTE   N04  Fs2  v124
 BYTE   W07
 BYTE   VOL   61*DelfinoPlaza_mvl/mxv
 BYTE   W04
 BYTE   N05  Dn2  v104
 BYTE   N05  Fs2  v124
 BYTE   W12
 BYTE   N04  Gs2
 BYTE   W01
 BYTE   N06  En2  v112
 BYTE   W11
 BYTE   N05  Gs2  v120
 BYTE   W01
 BYTE   En2  v100
 BYTE   W11
 BYTE   Gs2  v124
 BYTE   W01
 BYTE   N06  En2  v104
 BYTE   W11
 BYTE   N05  Gs2  v116
 BYTE   W01
 BYTE   En2  v100
 BYTE   W03
 BYTE   VOL   61*DelfinoPlaza_mvl/mxv
 BYTE   W09
//  #03 //084   ----------------------------------------
 BYTE   N05
 BYTE   W12
 BYTE   N05
 BYTE   W12
 BYTE   Gn2
 BYTE   W12
 BYTE   N05
 BYTE   W11
 BYTE   VOL   61*DelfinoPlaza_mvl/mxv
 BYTE   W01
 BYTE   N05  Fs2
 BYTE   W12
 BYTE   N05
 BYTE   W12
 BYTE   Fn2
 BYTE   W12
 BYTE   N05
 BYTE   W12
//  #03 //085   ----------------------------------------
 BYTE   En2
 BYTE   W07
 BYTE   VOL   61*DelfinoPlaza_mvl/mxv
 BYTE   W05
 BYTE   N05
 BYTE   W12
 BYTE   Gn2
 BYTE   W12
 BYTE   N05
 BYTE   W12
 BYTE   Fs2
 BYTE   W12
 BYTE   N05
 BYTE   W03
 BYTE   VOL   61*DelfinoPlaza_mvl/mxv
 BYTE   W09
 BYTE   N05  Fn2
 BYTE   W12
 BYTE   N05
 BYTE   W12
//  #03 //086   ----------------------------------------
 BYTE   En2
 BYTE   W12
 BYTE   N05
 BYTE   W11
 BYTE   VOL   62*DelfinoPlaza_mvl/mxv
 BYTE   W01
 BYTE   N05  Gn2
 BYTE   W12
 BYTE   N05
 BYTE   W12
 BYTE   Fs2
 BYTE   W12
 BYTE   N05
 BYTE   W12
 BYTE   Gs2
 BYTE   W07
 BYTE   VOL   62*DelfinoPlaza_mvl/mxv
 BYTE   W05
 BYTE   N05
 BYTE   W12
//  #03 //087   ----------------------------------------
 BYTE   An2
 BYTE   W36
 BYTE   W03
 BYTE   VOL   62*DelfinoPlaza_mvl/mxv
 BYTE   W56
 BYTE   VOL   62*DelfinoPlaza_mvl/mxv
 BYTE   W01
//  #03 //088   ----------------------------------------
 BYTE   N05  En2
 BYTE   W12
 BYTE   N05
 BYTE   W12
 BYTE   Gn2
 BYTE   W12
 BYTE   N05
 BYTE   W12
 BYTE   Fs2
 BYTE   W07
 BYTE   VOL   62*DelfinoPlaza_mvl/mxv
 BYTE   W05
 BYTE   N05
 BYTE   W12
 BYTE   Fn2
 BYTE   W12
 BYTE   N05
 BYTE   W12
//  #03 //089   ----------------------------------------
 BYTE   En2
 BYTE   W12
 BYTE   N05
 BYTE   W03
 BYTE   VOL   62*DelfinoPlaza_mvl/mxv
 BYTE   W09
 BYTE   N05  Gn2
 BYTE   W12
 BYTE   N05
 BYTE   W12
 BYTE   Fs2
 BYTE   W12
 BYTE   N05
 BYTE   W11
 BYTE   VOL   62*DelfinoPlaza_mvl/mxv
 BYTE   W01
 BYTE   N05  Fn2
 BYTE   W12
 BYTE   N05
 BYTE   W12
//  #03 //090   ----------------------------------------
 BYTE   En2
 BYTE   W12
 BYTE   N05
 BYTE   W12
 BYTE   Gn2
 BYTE   W07
 BYTE   VOL   62*DelfinoPlaza_mvl/mxv
 BYTE   W05
 BYTE   N05
 BYTE   W12
 BYTE   Fs2
 BYTE   W12
 BYTE   N05
 BYTE   W12
 BYTE   Fn2
 BYTE   W12
 BYTE   N05
 BYTE   W03
 BYTE   VOL   62*DelfinoPlaza_mvl/mxv
 BYTE   W09
//  #03 //091   ----------------------------------------
 BYTE   PATT
  POIN2 Label_013B5A30
//  #03 //092   ----------------------------------------
 BYTE   PATT
  POIN2 Label_013B5A30
//  #03 //093   ----------------------------------------
 BYTE   PATT
  POIN2 Label_013B5A30
//  #03 //094   ----------------------------------------
 BYTE   PATT
  POIN2 Label_013B5A30
//  #03 //095   ----------------------------------------
 BYTE   PATT
  POIN2 Label_013B5A30
//  #03 //096   ----------------------------------------
 BYTE   PATT
  POIN2 Label_013B5A30
//  #03 //097   ----------------------------------------
 BYTE   N05  En2  v100
 BYTE   W12
 BYTE   N05
 BYTE   W12
 BYTE   Gn2
 BYTE   W12
 BYTE   N05
 BYTE   W12
 BYTE   Fs2
 BYTE   W12
 BYTE   N05
 BYTE   W12
 BYTE   Fn2
 BYTE   W12
 BYTE   N05
 BYTE   W11
 BYTE   GoTo
  POIN2 Label_013B52BF
 BYTE   FINE

//**************** Track 4 (Midi-Chn.3) ****************//

DelfinoPlaza_004:
//  #04 //000   ----------------------------------------
 BYTE   KEYSH   DelfinoPlaza_key+0
 BYTE   VOICE   24
 BYTE   W96
//  #04 //001   ----------------------------------------
 BYTE   W04
 BYTE   VOL   62*DelfinoPlaza_mvl/mxv
 BYTE   W09
 BYTE   VOL   61*DelfinoPlaza_mvl/mxv
 BYTE   W08
 BYTE   VOL   61*DelfinoPlaza_mvl/mxv
 BYTE   W09
 BYTE   VOL   59*DelfinoPlaza_mvl/mxv
 BYTE   W08
 BYTE   VOL   59*DelfinoPlaza_mvl/mxv
 BYTE   W08
 BYTE   VOL   58*DelfinoPlaza_mvl/mxv
 BYTE   W09
 BYTE   VOL   57*DelfinoPlaza_mvl/mxv
 BYTE   W05
 BYTE   VOL   57*DelfinoPlaza_mvl/mxv
 BYTE   W09
 BYTE   VOL   56*DelfinoPlaza_mvl/mxv
 BYTE   W08
 BYTE   VOL   55*DelfinoPlaza_mvl/mxv
 BYTE   W09
 BYTE   VOL   54*DelfinoPlaza_mvl/mxv
 BYTE   W08
 BYTE   VOL   53*DelfinoPlaza_mvl/mxv
 BYTE   W01
Label_013B618B:
 BYTE   W01
//  #04 //002   ----------------------------------------
 BYTE   N06  An1  v104
 BYTE   W12
 BYTE   N05  An1  v088
 BYTE   W08
 BYTE   PAN   c_v-20
 BYTE   VOL   53*DelfinoPlaza_mvl/mxv
 BYTE   W04
 BYTE   N05  As1  v116
 BYTE   W12
 BYTE   As1  v088
 BYTE   W12
 BYTE   N06  Bn1  v096
 BYTE   W12
 BYTE   Bn1  v084
 BYTE   W12
 BYTE   N05  Gs1  v100
 BYTE   W04
 BYTE   PAN   c_v-20
 BYTE   VOL   53*DelfinoPlaza_mvl/mxv
 BYTE   W08
 BYTE   N06  Gs1  v092
 BYTE   W12
//  #04 //003   ----------------------------------------
 BYTE   An1  v096
 BYTE   W12
 BYTE   An1  v080
 BYTE   W12
 BYTE   N05  As1  v100
 BYTE   W05
 BYTE   W01
 BYTE   W06
 BYTE   PAN   c_v-20
 BYTE   VOL   54*DelfinoPlaza_mvl/mxv
 BYTE   N05  As1  v104
 BYTE   W12
 BYTE   N06  Bn1  v100
 BYTE   W12
 BYTE   N05  Bn1  v092
 BYTE   W12
 BYTE   Gs1  v116
 BYTE   W12
 BYTE   N06  Gs1  v104
 BYTE   W08
 BYTE   PAN   c_v-20
 BYTE   VOL   54*DelfinoPlaza_mvl/mxv
 BYTE   W04
//  #04 //004   ----------------------------------------
 BYTE   N06  An1  v092
 BYTE   W12
 BYTE   An1  v080
 BYTE   W12
 BYTE   N05  As1  v112
 BYTE   W12
 BYTE   N06  As1  v104
 BYTE   W12
 BYTE   Bn1  v092
 BYTE   W07
 BYTE   PAN   c_v-20
 BYTE   VOL   54*DelfinoPlaza_mvl/mxv
 BYTE   W05
 BYTE   N05
 BYTE   W12
 BYTE   Gs1  v100
 BYTE   W12
 BYTE   N07  Gs1  v092
 BYTE   W12
//  #04 //005   ----------------------------------------
 BYTE   An1  v096
 BYTE   W12
 BYTE   N06  An1  v088
 BYTE   W03
 BYTE   PAN   c_v-20
 BYTE   VOL   54*DelfinoPlaza_mvl/mxv
 BYTE   W09
 BYTE   N05  As1  v112
 BYTE   W12
 BYTE   N06  As1  v104
 BYTE   W04
 BYTE   W01
 BYTE   W06
 BYTE   MOD 0
 BYTE   W01
 BYTE   N06  Bn1  v092
 BYTE   W12
 BYTE   N06
 BYTE   W11
 BYTE   PAN   c_v-20
 BYTE   VOL   54*DelfinoPlaza_mvl/mxv
 BYTE   W01
 BYTE   N05  Gs1  v104
 BYTE   W12
 BYTE   N06
 BYTE   W12
//  #04 //006   ----------------------------------------
 BYTE   An1
 BYTE   W12
 BYTE   N05  An1  v088
 BYTE   W12
 BYTE   As1  v116
 BYTE   W07
 BYTE   PAN   c_v-20
 BYTE   VOL   54*DelfinoPlaza_mvl/mxv
 BYTE   W05
 BYTE   N05  As1  v088
 BYTE   W12
 BYTE   N06  Bn1  v096
 BYTE   W12
 BYTE   Bn1  v084
 BYTE   W12
 BYTE   N05  Gs1  v100
 BYTE   W12
 BYTE   PAN   c_v-20
 BYTE   VOL   54*DelfinoPlaza_mvl/mxv
 BYTE   N06  Gs1  v092
 BYTE   W12
//  #04 //007   ----------------------------------------
 BYTE   An1  v096
 BYTE   W12
 BYTE   An1  v080
 BYTE   W12
 BYTE   N05  As1  v100
 BYTE   W05
 BYTE   W01
 BYTE   W06
 BYTE   As1  v104
 BYTE   W08
 BYTE   PAN   c_v-20
 BYTE   VOL   54*DelfinoPlaza_mvl/mxv
 BYTE   W04
 BYTE   N06  Bn1  v100
 BYTE   W12
 BYTE   N05  Bn1  v092
 BYTE   W12
 BYTE   Gs1  v116
 BYTE   W12
 BYTE   N06  Gs1  v104
 BYTE   W12
//  #04 //008   ----------------------------------------
 BYTE   An1  v092
 BYTE   W04
 BYTE   PAN   c_v-20
 BYTE   VOL   54*DelfinoPlaza_mvl/mxv
 BYTE   W08
 BYTE   N06  An1  v080
 BYTE   W12
 BYTE   N05  As1  v112
 BYTE   W12
 BYTE   N06  As1  v104
 BYTE   W12
 BYTE   Bn1  v092
 BYTE   W12
 BYTE   PAN   c_v-20
 BYTE   VOL   54*DelfinoPlaza_mvl/mxv
 BYTE   N05
 BYTE   W12
 BYTE   Gs1  v100
 BYTE   W12
 BYTE   N07  Gs1  v092
 BYTE   W12
//  #04 //009   ----------------------------------------
 BYTE   An1  v096
 BYTE   W12
 BYTE   N06  An1  v088
 BYTE   W08
 BYTE   PAN   c_v-20
 BYTE   VOL   54*DelfinoPlaza_mvl/mxv
 BYTE   W04
 BYTE   N05  As1  v112
 BYTE   W12
 BYTE   N06  As1  v104
 BYTE   W04
 BYTE   W01
 BYTE   W06
 BYTE   MOD 0
 BYTE   W01
 BYTE   N06  Bn1  v092
 BYTE   W12
 BYTE   N06
 BYTE   W12
 BYTE   N05  Gs1  v104
 BYTE   W04
 BYTE   PAN   c_v-20
 BYTE   VOL   55*DelfinoPlaza_mvl/mxv
 BYTE   W08
 BYTE   N06
 BYTE   W12
//  #04 //010   ----------------------------------------
 BYTE   An1
 BYTE   W12
 BYTE   N05  An1  v088
 BYTE   W12
 BYTE   As1  v116
 BYTE   W12
 BYTE   PAN   c_v-20
 BYTE   VOL   55*DelfinoPlaza_mvl/mxv
 BYTE   N05  As1  v088
 BYTE   W12
 BYTE   N06  Bn1  v096
 BYTE   W12
 BYTE   Bn1  v084
 BYTE   W12
 BYTE   N05  Gs1  v100
 BYTE   W12
 BYTE   N06  Gs1  v092
 BYTE   W08
 BYTE   PAN   c_v-20
 BYTE   VOL   55*DelfinoPlaza_mvl/mxv
 BYTE   W04
//  #04 //011   ----------------------------------------
 BYTE   N06  An1  v096
 BYTE   W12
 BYTE   An1  v080
 BYTE   W12
 BYTE   N05  As1  v100
 BYTE   W05
 BYTE   W01
 BYTE   W06
 BYTE   As1  v104
 BYTE   W12
 BYTE   N06  Bn1  v100
 BYTE   W04
 BYTE   PAN   c_v-20
 BYTE   VOL   55*DelfinoPlaza_mvl/mxv
 BYTE   W08
 BYTE   N05  Bn1  v092
 BYTE   W12
 BYTE   Gs1  v116
 BYTE   W12
 BYTE   N06  Gs1  v104
 BYTE   W12
//  #04 //012   ----------------------------------------
 BYTE   An1  v092
 BYTE   W12
 BYTE   PAN   c_v-20
 BYTE   VOL   55*DelfinoPlaza_mvl/mxv
 BYTE   N06  An1  v080
 BYTE   W12
 BYTE   N05  As1  v112
 BYTE   W12
 BYTE   N06  As1  v104
 BYTE   W12
 BYTE   Bn1  v092
 BYTE   W12
 BYTE   N05
 BYTE   W08
 BYTE   PAN   c_v-20
 BYTE   VOL   56*DelfinoPlaza_mvl/mxv
 BYTE   W04
 BYTE   N05  Gs1  v100
 BYTE   W12
 BYTE   N07  Gs1  v092
 BYTE   W09
 BYTE   N08  An1  v124
 BYTE   W03
//  #04 //013   ----------------------------------------
 BYTE   W11
 BYTE   N04
 BYTE   W07
 BYTE   An1  v104
 BYTE   W05
 BYTE   N06  An1  v127
 BYTE   W05
 BYTE   PAN   c_v-20
 BYTE   VOL   56*DelfinoPlaza_mvl/mxv
 BYTE   W07
 BYTE   N04
 BYTE   W05
 BYTE   N04
 BYTE   W06
 BYTE   N05  An1  v124
 BYTE   W10
 BYTE   N03  An1  v120
 BYTE   W05
 BYTE   An1  v116
 BYTE   W05
 BYTE   N04  An1  v124
 BYTE   W05
 BYTE   An1  v127
 BYTE   W12
 BYTE   N06
 BYTE   W01
 BYTE   PAN   c_v-20
 BYTE   VOL   56*DelfinoPlaza_mvl/mxv
 BYTE   W12
//  #04 //014   ----------------------------------------
 BYTE   N06  An1  v116
 BYTE   W12
 BYTE   N04  An1  v096
 BYTE   W12
 BYTE   N06  An1  v104
 BYTE   W12
 BYTE   N05  An1  v100
 BYTE   W08
 BYTE   PAN   c_v-20
 BYTE   VOL   56*DelfinoPlaza_mvl/mxv
 BYTE   W04
 BYTE   N06  An1  v104
 BYTE   W12
 BYTE   N05  An1  v112
 BYTE   W12
 BYTE   N06
 BYTE   W12
 BYTE   N05
 BYTE   W12
//  #04 //015   ----------------------------------------
 BYTE   N06  An1  v116
 BYTE   W04
 BYTE   PAN   c_v-20
 BYTE   VOL   56*DelfinoPlaza_mvl/mxv
 BYTE   W08
 BYTE   N05  An1  v112
 BYTE   W12
 BYTE   An1  v100
 BYTE   W12
 BYTE   An1  v096
 BYTE   W12
 BYTE   N06  An1  v088
 BYTE   W12
 BYTE   PAN   c_v-20
 BYTE   VOL   56*DelfinoPlaza_mvl/mxv
 BYTE   N05  An1  v092
 BYTE   W12
 BYTE   An1  v104
 BYTE   W12
 BYTE   An1  v096
 BYTE   W12
//  #04 //016   ----------------------------------------
 BYTE   An1  v100
 BYTE   W12
 BYTE   N04  An1  v104
 BYTE   W08
 BYTE   PAN   c_v-20
 BYTE   VOL   56*DelfinoPlaza_mvl/mxv
 BYTE   W04
 BYTE   N05  An1  v120
 BYTE   W12
 BYTE   N04  An1  v116
 BYTE   W12
 BYTE   An1  v120
 BYTE   W12
 BYTE   N05  An1  v112
 BYTE   W12
 BYTE   An1  v096
 BYTE   W04
 BYTE   PAN   c_v-20
 BYTE   VOL   56*DelfinoPlaza_mvl/mxv
 BYTE   W08
 BYTE   N05  An1  v116
 BYTE   W12
//  #04 //017   ----------------------------------------
 BYTE   An1  v120
 BYTE   W12
 BYTE   N04  An1  v112
 BYTE   W12
 BYTE   N05  An1  v120
 BYTE   W12
 BYTE   PAN   c_v-20
 BYTE   VOL   56*DelfinoPlaza_mvl/mxv
 BYTE   N05  An1  v116
 BYTE   W12
 BYTE   An1  v120
 BYTE   W12
 BYTE   An1  v116
 BYTE   W12
 BYTE   Bn1
 BYTE   W12
 BYTE   Cs2
 BYTE   W08
 BYTE   PAN   c_v-20
 BYTE   VOL   56*DelfinoPlaza_mvl/mxv
 BYTE   W04
//  #04 //018   ----------------------------------------
 BYTE   N05  An1  v096
 BYTE   W12
 BYTE   An1  v112
 BYTE   W12
 BYTE   An1  v100
 BYTE   W12
 BYTE   An1  v104
 BYTE   W12
 BYTE   N05
 BYTE   W04
 BYTE   PAN   c_v-20
 BYTE   VOL   57*DelfinoPlaza_mvl/mxv
 BYTE   W08
 BYTE   N05  An1  v100
 BYTE   W12
 BYTE   An1  v112
 BYTE   W12
 BYTE   An1  v116
 BYTE   W12
//  #04 //019   ----------------------------------------
 BYTE   An1  v120
 BYTE   W12
 BYTE   PAN   c_v-20
 BYTE   VOL   57*DelfinoPlaza_mvl/mxv
 BYTE   N05  An1  v104
 BYTE   W12
 BYTE   Bn1  v124
 BYTE   W12
 BYTE   Bn1  v116
 BYTE   W12
 BYTE   As1  v127
 BYTE   W12
 BYTE   N05
 BYTE   W08
 BYTE   PAN   c_v-20
 BYTE   VOL   57*DelfinoPlaza_mvl/mxv
 BYTE   W04
 BYTE   N04
 BYTE   W12
 BYTE   N04
 BYTE   W12
//  #04 //020   ----------------------------------------
 BYTE   An1  v124
 BYTE   W12
 BYTE   An1  v127
 BYTE   W12
 BYTE   N05  An1  v120
 BYTE   W04
 BYTE   PAN   c_v-20
 BYTE   VOL   57*DelfinoPlaza_mvl/mxv
 BYTE   W08
 BYTE   N05
 BYTE   W12
 BYTE   An1  v116
 BYTE   W12
 BYTE   An1  v112
 BYTE   W12
 BYTE   An1  v116
 BYTE   W12
 BYTE   PAN   c_v-20
 BYTE   VOL   57*DelfinoPlaza_mvl/mxv
 BYTE   N05  An1  v100
 BYTE   W12
//  #04 //021   ----------------------------------------
 BYTE   N06  Gs1  v127
 BYTE   W12
 BYTE   N05  Gs1  v116
 BYTE   W12
 BYTE   Gs1  v127
 BYTE   W12
 BYTE   N05
 BYTE   W08
 BYTE   PAN   c_v-20
 BYTE   VOL   57*DelfinoPlaza_mvl/mxv
 BYTE   W04
 BYTE   N05
 BYTE   W12
 BYTE   Gs1  v124
 BYTE   W12
 BYTE   N05
 BYTE   W12
 BYTE   N06  Gs1  v127
 BYTE   W12
//  #04 //022   ----------------------------------------
 BYTE   An1  v104
 BYTE   W04
 BYTE   PAN   c_v-20
 BYTE   VOL   57*DelfinoPlaza_mvl/mxv
 BYTE   W08
 BYTE   N05  An1  v088
 BYTE   W12
 BYTE   As1  v116
 BYTE   W12
 BYTE   As1  v088
 BYTE   W12
 BYTE   N06  Bn1  v096
 BYTE   W12
 BYTE   PAN   c_v-20
 BYTE   VOL   57*DelfinoPlaza_mvl/mxv
 BYTE   N06  Bn1  v084
 BYTE   W12
 BYTE   N05  Gs1  v100
 BYTE   W12
 BYTE   N06  Gs1  v092
 BYTE   W12
//  #04 //023   ----------------------------------------
 BYTE   An1  v096
 BYTE   W12
 BYTE   An1  v080
 BYTE   W08
 BYTE   PAN   c_v-20
 BYTE   VOL   57*DelfinoPlaza_mvl/mxv
 BYTE   W04
 BYTE   N05  As1  v100
 BYTE   W05
 BYTE   W01
 BYTE   W06
 BYTE   As1  v104
 BYTE   W12
 BYTE   N06  Bn1  v100
 BYTE   W12
 BYTE   N05  Bn1  v092
 BYTE   W12
 BYTE   Gs1  v116
 BYTE   W04
 BYTE   PAN   c_v-20
 BYTE   VOL   57*DelfinoPlaza_mvl/mxv
 BYTE   W08
 BYTE   N06  Gs1  v104
 BYTE   W12
//  #04 //024   ----------------------------------------
 BYTE   An1  v092
 BYTE   W12
 BYTE   An1  v080
 BYTE   W12
 BYTE   N05  As1  v112
 BYTE   W12
 BYTE   PAN   c_v-20
 BYTE   VOL   57*DelfinoPlaza_mvl/mxv
 BYTE   N06  As1  v104
 BYTE   W12
 BYTE   Bn1  v092
 BYTE   W12
 BYTE   N05
 BYTE   W12
 BYTE   Gs1  v100
 BYTE   W12
 BYTE   N07  Gs1  v092
 BYTE   W08
 BYTE   PAN   c_v-20
 BYTE   VOL   58*DelfinoPlaza_mvl/mxv
 BYTE   W04
//  #04 //025   ----------------------------------------
 BYTE   N07  An1  v096
 BYTE   W12
 BYTE   N06  An1  v088
 BYTE   W12
 BYTE   N05  An1  v112
 BYTE   W12
 BYTE   N06  An1  v104
 BYTE   W04
 BYTE   W01
 BYTE   W06
 BYTE   MOD 0
 BYTE   W01
 BYTE   N06  An1  v092
 BYTE   W04
 BYTE   PAN   c_v-20
 BYTE   VOL   58*DelfinoPlaza_mvl/mxv
 BYTE   W08
 BYTE   N06
 BYTE   W12
 BYTE   N05  An1  v104
 BYTE   W12
 BYTE   N06
 BYTE   W12
//  #04 //026   ----------------------------------------
 BYTE   N05  An1  v100
 BYTE   N05  Cs2
 BYTE   W12
 BYTE   PAN   c_v-20
 BYTE   VOL   58*DelfinoPlaza_mvl/mxv
 BYTE   N05  An1
 BYTE   N05  Cs2
 BYTE   W12
 BYTE   An1
 BYTE   N05  Cs2
 BYTE   W12
 BYTE   An1
 BYTE   N05  Cs2
 BYTE   W12
 BYTE   Gn1
 BYTE   N05  Bn1
 BYTE   W12
 BYTE   Gn1
 BYTE   N05  Bn1
 BYTE   W08
 BYTE   PAN   c_v-20
 BYTE   VOL   58*DelfinoPlaza_mvl/mxv
 BYTE   W04
 BYTE   N05  Gn1
 BYTE   N05  Bn1
 BYTE   W12
 BYTE   Gn1
 BYTE   N05  Bn1
 BYTE   W12
//  #04 //027   ----------------------------------------
 BYTE   Gs1
 BYTE   N05  Bn1
 BYTE   W12
 BYTE   Gs1
 BYTE   N05  Bn1
 BYTE   W12
 BYTE   Gs1
 BYTE   N05  Bn1
 BYTE   W04
 BYTE   PAN   c_v-20
 BYTE   VOL   58*DelfinoPlaza_mvl/mxv
 BYTE   W08
 BYTE   N05  Gs1
 BYTE   N05  Bn1
 BYTE   W12
 BYTE   An1
 BYTE   N05  Cs2
 BYTE   W12
 BYTE   An1
 BYTE   N05  Cs2
 BYTE   W12
 BYTE   An1
 BYTE   N05  Cs2
 BYTE   W12
 BYTE   PAN   c_v-20
 BYTE   VOL   59*DelfinoPlaza_mvl/mxv
 BYTE   N05  An1
 BYTE   N05  Cs2
 BYTE   W12
//  #04 //028   ----------------------------------------
 BYTE   An1
 BYTE   N05  Cs2
 BYTE   W12
 BYTE   An1
 BYTE   N05  Cs2
 BYTE   W12
 BYTE   An1
 BYTE   N05  Cs2
 BYTE   W12
 BYTE   An1
 BYTE   N05  Cs2
 BYTE   W08
 BYTE   PAN   c_v-20
 BYTE   VOL   59*DelfinoPlaza_mvl/mxv
 BYTE   W04
 BYTE   N05  Gn1
 BYTE   N05  Bn1
 BYTE   W12
 BYTE   Gn1
 BYTE   N05  Bn1
 BYTE   W12
 BYTE   Gn1
 BYTE   N05  Bn1
 BYTE   W12
 BYTE   Gn1
 BYTE   N05  Bn1
 BYTE   W12
//  #04 //029   ----------------------------------------
 BYTE   An1
 BYTE   N05  Cs2
 BYTE   W04
 BYTE   PAN   c_v-20
 BYTE   VOL   59*DelfinoPlaza_mvl/mxv
 BYTE   W08
 BYTE   N05  An1
 BYTE   N05  Cs2
 BYTE   W12
 BYTE   An1
 BYTE   N05  Cs2
 BYTE   W12
 BYTE   An1
 BYTE   N05  Cs2
 BYTE   W12
 BYTE   An1
 BYTE   N05  Cs2
 BYTE   W12
 BYTE   PAN   c_v-20
 BYTE   VOL   59*DelfinoPlaza_mvl/mxv
 BYTE   N05  An1
 BYTE   N05  Cs2
 BYTE   W12
 BYTE   As1
 BYTE   N05  Dn2
 BYTE   W12
 BYTE   Bn1
 BYTE   N05  Ds2
 BYTE   W12
//  #04 //030   ----------------------------------------
 BYTE   Cn2
 BYTE   N05  En2
 BYTE   W12
 BYTE   Cn2
 BYTE   N05  En2
 BYTE   W08
 BYTE   PAN   c_v-20
 BYTE   VOL   59*DelfinoPlaza_mvl/mxv
 BYTE   W04
 BYTE   N05  Cn2
 BYTE   N05  En2
 BYTE   W12
 BYTE   Cn2
 BYTE   N05  En2
 BYTE   W12
 BYTE   As1
 BYTE   N05  Dn2
 BYTE   W12
 BYTE   As1
 BYTE   N05  Dn2
 BYTE   W12
 BYTE   As1
 BYTE   N05  Dn2
 BYTE   W04
 BYTE   PAN   c_v-20
 BYTE   VOL   59*DelfinoPlaza_mvl/mxv
 BYTE   W08
 BYTE   N05  As1
 BYTE   N05  Dn2
 BYTE   W12
//  #04 //031   ----------------------------------------
 BYTE   Cn2
 BYTE   N05  En2
 BYTE   W12
 BYTE   Cn2
 BYTE   N05  En2
 BYTE   W12
 BYTE   Cn2
 BYTE   N05  En2
 BYTE   W12
 BYTE   PAN   c_v-20
 BYTE   VOL   59*DelfinoPlaza_mvl/mxv
 BYTE   N05  Cn2
 BYTE   N05  En2
 BYTE   W12
 BYTE   Cn2
 BYTE   N05  En2
 BYTE   W12
 BYTE   Cn2
 BYTE   N05  En2
 BYTE   W12
 BYTE   Cn2
 BYTE   N05  En2
 BYTE   W12
 BYTE   Cn2
 BYTE   N05  En2
 BYTE   W08
 BYTE   PAN   c_v-20
 BYTE   VOL   59*DelfinoPlaza_mvl/mxv
 BYTE   W04
//  #04 //032   ----------------------------------------
 BYTE   N05  Cn2
 BYTE   N05  En2
 BYTE   W12
 BYTE   Cn2
 BYTE   N05  En2
 BYTE   W12
 BYTE   Cn2
 BYTE   N05  En2
 BYTE   W12
 BYTE   Cn2
 BYTE   N05  En2
 BYTE   W12
 BYTE   As1
 BYTE   N05  Dn2
 BYTE   W04
 BYTE   PAN   c_v-20
 BYTE   VOL   59*DelfinoPlaza_mvl/mxv
 BYTE   W08
 BYTE   N05  As1
 BYTE   N05  Dn2
 BYTE   W12
 BYTE   As1
 BYTE   N05  Dn2
 BYTE   W12
 BYTE   As1
 BYTE   N05  Dn2
 BYTE   W12
//  #04 //033   ----------------------------------------
 BYTE   Cn2
 BYTE   N05  En2
 BYTE   W12
 BYTE   PAN   c_v-20
 BYTE   VOL   59*DelfinoPlaza_mvl/mxv
 BYTE   N05  Cn2
 BYTE   N05  En2
 BYTE   W12
 BYTE   Cn2
 BYTE   N05  En2
 BYTE   W12
 BYTE   Cn2
 BYTE   N05  En2
 BYTE   W12
 BYTE   Cn2
 BYTE   N05  En2
 BYTE   W12
 BYTE   Cn2
 BYTE   N05  En2
 BYTE   W08
 BYTE   PAN   c_v-20
 BYTE   VOL   59*DelfinoPlaza_mvl/mxv
 BYTE   W04
 BYTE   N05  Cn2
 BYTE   N05  En2
 BYTE   W12
 BYTE   Cn2
 BYTE   N05  En2
 BYTE   W12
//  #04 //034   ----------------------------------------
 BYTE   Cs2
 BYTE   W12
 BYTE   N05
 BYTE   W12
 BYTE   N05
 BYTE   W04
 BYTE   PAN   c_v-20
 BYTE   VOL   60*DelfinoPlaza_mvl/mxv
 BYTE   W08
 BYTE   N05
 BYTE   W12
 BYTE   Ds2
 BYTE   W12
 BYTE   N05
 BYTE   W12
 BYTE   N05
 BYTE   W12
 BYTE   PAN   c_v-20
 BYTE   VOL   60*DelfinoPlaza_mvl/mxv
 BYTE   N05
 BYTE   W12
//  #04 //035   ----------------------------------------
 BYTE   Bn1
 BYTE   W12
 BYTE   N05
 BYTE   W12
 BYTE   N05
 BYTE   W12
 BYTE   N05
 BYTE   W08
 BYTE   PAN   c_v-20
 BYTE   VOL   60*DelfinoPlaza_mvl/mxv
 BYTE   W04
 BYTE   N05
 BYTE   W12
 BYTE   N05
 BYTE   W12
 BYTE   N05
 BYTE   W12
 BYTE   N05
 BYTE   W12
//  #04 //036   ----------------------------------------
 BYTE   Cs2
 BYTE   W04
 BYTE   PAN   c_v-20
 BYTE   VOL   60*DelfinoPlaza_mvl/mxv
 BYTE   W08
 BYTE   N05
 BYTE   W12
 BYTE   N05
 BYTE   W12
 BYTE   N05
 BYTE   W12
 BYTE   Ds2
 BYTE   W12
 BYTE   PAN   c_v-20
 BYTE   VOL   60*DelfinoPlaza_mvl/mxv
 BYTE   N05
 BYTE   W12
 BYTE   N05
 BYTE   W12
 BYTE   N05
 BYTE   W12
//  #04 //037   ----------------------------------------
 BYTE   An1
 BYTE   W12
 BYTE   N05
 BYTE   W08
 BYTE   PAN   c_v-20
 BYTE   VOL   61*DelfinoPlaza_mvl/mxv
 BYTE   W04
 BYTE   N05
 BYTE   W12
 BYTE   N05
 BYTE   W12
 BYTE   Bn1
 BYTE   N05  Dn2
 BYTE   W12
 BYTE   Bn1
 BYTE   N05  Dn2
 BYTE   W12
 BYTE   Bn1
 BYTE   N05  Dn2
 BYTE   W04
 BYTE   PAN   c_v-20
 BYTE   VOL   61*DelfinoPlaza_mvl/mxv
 BYTE   W08
 BYTE   N05  Bn1
 BYTE   N05  Dn2
 BYTE   W12
//  #04 //038   ----------------------------------------
 BYTE   An1
 BYTE   W12
 BYTE   N05
 BYTE   W12
 BYTE   As1
 BYTE   W12
 BYTE   PAN   c_v-20
 BYTE   VOL   61*DelfinoPlaza_mvl/mxv
 BYTE   N05
 BYTE   W12
 BYTE   Bn1
 BYTE   W12
 BYTE   N05
 BYTE   W12
 BYTE   Gs1
 BYTE   W12
 BYTE   N05
 BYTE   W08
 BYTE   PAN   c_v-20
 BYTE   VOL   61*DelfinoPlaza_mvl/mxv
 BYTE   W04
//  #04 //039   ----------------------------------------
 BYTE   N05  An1
 BYTE   W12
 BYTE   N05
 BYTE   W12
 BYTE   As1
 BYTE   W12
 BYTE   N05
 BYTE   W12
 BYTE   Bn1
 BYTE   W04
 BYTE   PAN   c_v-20
 BYTE   VOL   61*DelfinoPlaza_mvl/mxv
 BYTE   W08
 BYTE   N05
 BYTE   W12
 BYTE   Gs1
 BYTE   W12
 BYTE   N05
 BYTE   W04
 BYTE   MOD 0
 BYTE   W08
//  #04 //040   ----------------------------------------
 BYTE   N05  An1
 BYTE   W12
 BYTE   PAN   c_v-20
 BYTE   VOL   61*DelfinoPlaza_mvl/mxv
 BYTE   N05
 BYTE   W12
 BYTE   As1
 BYTE   W07
 BYTE   MOD 0
 BYTE   W05
 BYTE   N05
 BYTE   W12
 BYTE   An1
 BYTE   N05  Dn2
 BYTE   W06
 BYTE   MOD 1
 BYTE   W01
 BYTE   MOD 0
 BYTE   W03
 BYTE   MOD 1
 BYTE   W01
 BYTE   MOD 0
 BYTE   W01
 BYTE   N05  An1
 BYTE   N05  Dn2
 BYTE   W08
 BYTE   PAN   c_v-20
 BYTE   VOL   61*DelfinoPlaza_mvl/mxv
 BYTE   W04
 BYTE   N05  Bn1
 BYTE   N05  Dn2
 BYTE   N05  En2
 BYTE   W12
 BYTE   Bn1
 BYTE   N05  Dn2
 BYTE   N05  En2
 BYTE   W12
//  #04 //041   ----------------------------------------
 BYTE   An1
 BYTE   N05  Cs2
 BYTE   N05  En2
 BYTE   W11
 BYTE   N06  An1  v120
 BYTE   N05  En2  v116
 BYTE   W12
 BYTE   N06  En2  v076
 BYTE   W01
 BYTE   An1  v116
 BYTE   W03
 BYTE   MOD 0
 BYTE   W01
 BYTE   PAN   c_v-20
 BYTE   VOL   61*DelfinoPlaza_mvl/mxv
 BYTE   W07
 BYTE   N03  En2  v092
 BYTE   W01
 BYTE   N04  An1  v096
 BYTE   W02
 BYTE   N03  En2  v112
 BYTE   W06
 BYTE   N05  En2  v116
 BYTE   W04
 BYTE   An1  v112
 BYTE   W03
 BYTE   W03
 BYTE   N05
 BYTE   N05  En2  v116
 BYTE   W06
 BYTE   An1  v120
 BYTE   N04  En2  v116
 BYTE   W10
 BYTE   En2  v127
 BYTE   W01
 BYTE   An1  v112
 BYTE   W05
 BYTE   N02  En2  v127
 BYTE   W04
 BYTE   N04  An1  v116
 BYTE   N02  En2  v124
 BYTE   W04
 BYTE   PAN   c_v-20
 BYTE   VOL   61*DelfinoPlaza_mvl/mxv
 BYTE   W01
 BYTE   N04
 BYTE   W03
 BYTE   An1  v120
 BYTE   W08
//  #04 //042   ----------------------------------------
 BYTE   N05  An1  v100
 BYTE   W12
 BYTE   N05
 BYTE   W12
 BYTE   As1
 BYTE   W12
 BYTE   N05
 BYTE   W08
 BYTE   PAN   c_v-20
 BYTE   VOL   61*DelfinoPlaza_mvl/mxv
 BYTE   W04
 BYTE   N05  Bn1
 BYTE   W12
 BYTE   N05
 BYTE   W12
 BYTE   Gs1
 BYTE   W12
 BYTE   N05
 BYTE   W12
//  #04 //043   ----------------------------------------
 BYTE   An1
 BYTE   W04
 BYTE   PAN   c_v-20
 BYTE   VOL   62*DelfinoPlaza_mvl/mxv
 BYTE   W08
 BYTE   N05
 BYTE   W12
 BYTE   As1
 BYTE   W12
 BYTE   N05
 BYTE   W12
 BYTE   Bn1
 BYTE   W12
 BYTE   PAN   c_v-20
 BYTE   VOL   62*DelfinoPlaza_mvl/mxv
 BYTE   N05
 BYTE   W12
 BYTE   Gs1
 BYTE   W12
 BYTE   N05
 BYTE   W12
//  #04 //044   ----------------------------------------
 BYTE   An1
 BYTE   W12
 BYTE   N05
 BYTE   W08
 BYTE   PAN   c_v-20
 BYTE   VOL   62*DelfinoPlaza_mvl/mxv
 BYTE   W04
 BYTE   N05  As1
 BYTE   W12
 BYTE   N05
 BYTE   W12
 BYTE   Bn1
 BYTE   W12
 BYTE   N05
 BYTE   W12
 BYTE   Gs1
 BYTE   W04
 BYTE   PAN   c_v-20
 BYTE   VOL   62*DelfinoPlaza_mvl/mxv
 BYTE   W08
 BYTE   N05
 BYTE   W12
//  #04 //045   ----------------------------------------
 BYTE   An1
 BYTE   W12
 BYTE   N05
 BYTE   W12
 BYTE   As1
 BYTE   W12
 BYTE   PAN   c_v-20
 BYTE   VOL   62*DelfinoPlaza_mvl/mxv
 BYTE   N05
 BYTE   W12
 BYTE   Bn1
 BYTE   W12
 BYTE   N05
 BYTE   W12
 BYTE   Gs1
 BYTE   W12
 BYTE   N05
 BYTE   W08
 BYTE   PAN   c_v-21
 BYTE   VOL   62*DelfinoPlaza_mvl/mxv
 BYTE   W04
//  #04 //046   ----------------------------------------
 BYTE   N05  An1
 BYTE   W12
 BYTE   N05
 BYTE   W12
 BYTE   As1
 BYTE   W12
 BYTE   N05
 BYTE   W12
 BYTE   Bn1
 BYTE   W04
 BYTE   PAN   c_v-21
 BYTE   VOL   62*DelfinoPlaza_mvl/mxv
 BYTE   W08
 BYTE   N05
 BYTE   W12
 BYTE   Gs1
 BYTE   W12
 BYTE   N05
 BYTE   W12
//  #04 //047   ----------------------------------------
 BYTE   An1
 BYTE   W12
 BYTE   PAN   c_v-21
 BYTE   VOL   62*DelfinoPlaza_mvl/mxv
 BYTE   N05
 BYTE   W12
 BYTE   As1
 BYTE   W12
 BYTE   N05
 BYTE   W12
 BYTE   Bn1
 BYTE   W12
 BYTE   N05
 BYTE   W08
 BYTE   PAN   c_v-21
 BYTE   VOL   62*DelfinoPlaza_mvl/mxv
 BYTE   W04
 BYTE   N05  Gs1
 BYTE   W12
 BYTE   N05
 BYTE   W12
//  #04 //048   ----------------------------------------
 BYTE   An1
 BYTE   W12
 BYTE   N05
 BYTE   W12
 BYTE   As1
 BYTE   W04
 BYTE   PAN   c_v-21
 BYTE   VOL   62*DelfinoPlaza_mvl/mxv
 BYTE   W08
 BYTE   N05
 BYTE   W12
 BYTE   Bn1
 BYTE   W12
 BYTE   N05
 BYTE   W12
 BYTE   Gs1
 BYTE   W12
 BYTE   PAN   c_v-21
 BYTE   N05
 BYTE   W12
//  #04 //049   ----------------------------------------
 BYTE   An1
 BYTE   W12
 BYTE   N05
 BYTE   W12
 BYTE   As1
 BYTE   W12
 BYTE   N05
 BYTE   W08
 BYTE   PAN   c_v-21
 BYTE   W04
 BYTE   N05  Bn1
 BYTE   W12
 BYTE   N05
 BYTE   W12
 BYTE   Gs1
 BYTE   W12
 BYTE   N05
 BYTE   W12
//  #04 //050   ----------------------------------------
 BYTE   An1
 BYTE   W04
 BYTE   PAN   c_v-21
 BYTE   W08
 BYTE   N05
 BYTE   W12
 BYTE   As1
 BYTE   W12
 BYTE   N05
 BYTE   W12
 BYTE   Bn1
 BYTE   W12
 BYTE   PAN   c_v-21
 BYTE   N05
 BYTE   W12
 BYTE   Gs1
 BYTE   W12
 BYTE   N05
 BYTE   W12
//  #04 //051   ----------------------------------------
 BYTE   An1
 BYTE   W12
 BYTE   N05
 BYTE   W08
 BYTE   PAN   c_v-21
 BYTE   W04
 BYTE   N05  As1
 BYTE   W12
 BYTE   N05
 BYTE   W12
 BYTE   Bn1
 BYTE   W12
 BYTE   N05
 BYTE   W12
 BYTE   Gs1
 BYTE   W04
 BYTE   PAN   c_v-21
 BYTE   W08
 BYTE   N05
 BYTE   W12
//  #04 //052   ----------------------------------------
 BYTE   VOL   54*DelfinoPlaza_mvl/mxv
 BYTE   N06  An1  v104
 BYTE   W12
 BYTE   N05  An1  v088
 BYTE   W12
 BYTE   As1  v116
 BYTE   W12
 BYTE   PAN   c_v-21
 BYTE   VOL   54*DelfinoPlaza_mvl/mxv
 BYTE   N05  As1  v088
 BYTE   W12
 BYTE   N06  Bn1  v096
 BYTE   W12
 BYTE   Bn1  v084
 BYTE   W12
 BYTE   N05  Gs1  v100
 BYTE   W12
 BYTE   N06  Gs1  v092
 BYTE   W08
 BYTE   PAN   c_v-21
 BYTE   VOL   54*DelfinoPlaza_mvl/mxv
 BYTE   W04
//  #04 //053   ----------------------------------------
 BYTE   N06  An1  v096
 BYTE   W12
 BYTE   An1  v080
 BYTE   W12
 BYTE   N05  As1  v100
 BYTE   W05
 BYTE   W01
 BYTE   W06
 BYTE   As1  v104
 BYTE   W12
 BYTE   N06  Bn1  v100
 BYTE   W04
 BYTE   PAN   c_v-21
 BYTE   VOL   54*DelfinoPlaza_mvl/mxv
 BYTE   W08
 BYTE   N05  Bn1  v092
 BYTE   W12
 BYTE   Gs1  v116
 BYTE   W12
 BYTE   N06  Gs1  v104
 BYTE   W12
//  #04 //054   ----------------------------------------
 BYTE   An1  v092
 BYTE   W12
 BYTE   PAN   c_v-21
 BYTE   VOL   54*DelfinoPlaza_mvl/mxv
 BYTE   N06  An1  v080
 BYTE   W12
 BYTE   N05  As1  v112
 BYTE   W12
 BYTE   N06  As1  v104
 BYTE   W12
 BYTE   Bn1  v092
 BYTE   W12
 BYTE   N05
 BYTE   W08
 BYTE   PAN   c_v-21
 BYTE   VOL   54*DelfinoPlaza_mvl/mxv
 BYTE   W04
 BYTE   N05  Gs1  v100
 BYTE   W12
 BYTE   N07  Gs1  v092
 BYTE   W12
//  #04 //055   ----------------------------------------
 BYTE   An1  v096
 BYTE   W12
 BYTE   N06  An1  v088
 BYTE   W12
 BYTE   N05  As1  v112
 BYTE   W04
 BYTE   PAN   c_v-21
 BYTE   VOL   54*DelfinoPlaza_mvl/mxv
 BYTE   W08
 BYTE   N06  As1  v104
 BYTE   W04
 BYTE   W01
 BYTE   W06
 BYTE   MOD 0
 BYTE   W01
 BYTE   N06  Bn1  v092
 BYTE   W12
 BYTE   N06
 BYTE   W12
 BYTE   N05  Gs1  v104
 BYTE   W12
 BYTE   PAN   c_v-21
 BYTE   VOL   55*DelfinoPlaza_mvl/mxv
 BYTE   N06
 BYTE   W12
//  #04 //056   ----------------------------------------
 BYTE   An1
 BYTE   W12
 BYTE   N05  An1  v088
 BYTE   W12
 BYTE   As1  v116
 BYTE   W12
 BYTE   As1  v088
 BYTE   W08
 BYTE   PAN   c_v-21
 BYTE   VOL   55*DelfinoPlaza_mvl/mxv
 BYTE   W04
 BYTE   N06  Bn1  v096
 BYTE   W12
 BYTE   Bn1  v084
 BYTE   W12
 BYTE   N05  Gs1  v100
 BYTE   W12
 BYTE   N06  Gs1  v092
 BYTE   W12
//  #04 //057   ----------------------------------------
 BYTE   An1  v096
 BYTE   W04
 BYTE   PAN   c_v-21
 BYTE   VOL   55*DelfinoPlaza_mvl/mxv
 BYTE   W08
 BYTE   N06  An1  v080
 BYTE   W12
 BYTE   N05  As1  v100
 BYTE   W05
 BYTE   W01
 BYTE   W06
 BYTE   As1  v104
 BYTE   W12
 BYTE   N06  Bn1  v100
 BYTE   W12
 BYTE   PAN   c_v-21
 BYTE   VOL   55*DelfinoPlaza_mvl/mxv
 BYTE   N05  Bn1  v092
 BYTE   W12
 BYTE   Gs1  v116
 BYTE   W12
 BYTE   N06  Gs1  v104
 BYTE   W12
//  #04 //058   ----------------------------------------
 BYTE   An1  v092
 BYTE   W12
 BYTE   An1  v080
 BYTE   W08
 BYTE   PAN   c_v-20
 BYTE   VOL   55*DelfinoPlaza_mvl/mxv
 BYTE   W04
 BYTE   N05  As1  v112
 BYTE   W12
 BYTE   N06  As1  v104
 BYTE   W12
 BYTE   Bn1  v092
 BYTE   W12
 BYTE   N05
 BYTE   W12
 BYTE   Gs1  v100
 BYTE   W04
 BYTE   PAN   c_v-20
 BYTE   VOL   56*DelfinoPlaza_mvl/mxv
 BYTE   W08
 BYTE   N07  Gs1  v092
 BYTE   W09
 BYTE   N08  An1  v124
 BYTE   W03
//  #04 //059   ----------------------------------------
 BYTE   W11
 BYTE   N04
 BYTE   W07
 BYTE   An1  v104
 BYTE   W05
 BYTE   N06  An1  v127
 BYTE   W12
 BYTE   N04
 BYTE   W01
 BYTE   PAN   c_v-20
 BYTE   VOL   56*DelfinoPlaza_mvl/mxv
 BYTE   W04
 BYTE   N04
 BYTE   W06
 BYTE   N05  An1  v124
 BYTE   W10
 BYTE   N03  An1  v120
 BYTE   W05
 BYTE   An1  v116
 BYTE   W05
 BYTE   N04  An1  v124
 BYTE   W05
 BYTE   An1  v127
 BYTE   W12
 BYTE   N06
 BYTE   W09
 BYTE   PAN   c_v-20
 BYTE   VOL   56*DelfinoPlaza_mvl/mxv
 BYTE   W04
//  #04 //060   ----------------------------------------
 BYTE   N06  An1  v116
 BYTE   W12
 BYTE   N04  An1  v096
 BYTE   W12
 BYTE   N06  An1  v104
 BYTE   W12
 BYTE   N05  An1  v100
 BYTE   W12
 BYTE   N06  An1  v104
 BYTE   W04
 BYTE   PAN   c_v-20
 BYTE   VOL   56*DelfinoPlaza_mvl/mxv
 BYTE   W08
 BYTE   N05  An1  v112
 BYTE   W12
 BYTE   N06
 BYTE   W12
 BYTE   N05
 BYTE   W12
//  #04 //061   ----------------------------------------
 BYTE   N06  An1  v116
 BYTE   W12
 BYTE   PAN   c_v-20
 BYTE   VOL   56*DelfinoPlaza_mvl/mxv
 BYTE   N05  An1  v112
 BYTE   W12
 BYTE   An1  v100
 BYTE   W12
 BYTE   An1  v096
 BYTE   W12
 BYTE   N06  An1  v088
 BYTE   W12
 BYTE   N05  An1  v092
 BYTE   W08
 BYTE   PAN   c_v-20
 BYTE   VOL   56*DelfinoPlaza_mvl/mxv
 BYTE   W04
 BYTE   N05  An1  v104
 BYTE   W12
 BYTE   An1  v096
 BYTE   W12
//  #04 //062   ----------------------------------------
 BYTE   An1  v100
 BYTE   W12
 BYTE   N04  An1  v104
 BYTE   W12
 BYTE   N05  An1  v120
 BYTE   W04
 BYTE   PAN   c_v-20
 BYTE   VOL   56*DelfinoPlaza_mvl/mxv
 BYTE   W08
 BYTE   N04  An1  v116
 BYTE   W12
 BYTE   An1  v120
 BYTE   W12
 BYTE   N05  An1  v112
 BYTE   W12
 BYTE   An1  v096
 BYTE   W12
 BYTE   PAN   c_v-20
 BYTE   VOL   56*DelfinoPlaza_mvl/mxv
 BYTE   N05  An1  v116
 BYTE   W12
//  #04 //063   ----------------------------------------
 BYTE   An1  v120
 BYTE   W12
 BYTE   N04  An1  v112
 BYTE   W12
 BYTE   N05  An1  v120
 BYTE   W12
 BYTE   An1  v116
 BYTE   W08
 BYTE   PAN   c_v-20
 BYTE   VOL   56*DelfinoPlaza_mvl/mxv
 BYTE   W04
 BYTE   N05  An1  v120
 BYTE   W12
 BYTE   An1  v116
 BYTE   W12
 BYTE   Bn1
 BYTE   W12
 BYTE   Cs2
 BYTE   W12
//  #04 //064   ----------------------------------------
 BYTE   An1  v096
 BYTE   W04
 BYTE   PAN   c_v-20
 BYTE   VOL   56*DelfinoPlaza_mvl/mxv
 BYTE   W08
 BYTE   N05  An1  v112
 BYTE   W12
 BYTE   An1  v100
 BYTE   W12
 BYTE   An1  v104
 BYTE   W12
 BYTE   N05
 BYTE   W12
 BYTE   PAN   c_v-20
 BYTE   VOL   57*DelfinoPlaza_mvl/mxv
 BYTE   N05  An1  v100
 BYTE   W12
 BYTE   An1  v112
 BYTE   W12
 BYTE   An1  v116
 BYTE   W12
//  #04 //065   ----------------------------------------
 BYTE   An1  v120
 BYTE   W12
 BYTE   An1  v104
 BYTE   W08
 BYTE   PAN   c_v-20
 BYTE   VOL   57*DelfinoPlaza_mvl/mxv
 BYTE   W04
 BYTE   N05  Bn1  v124
 BYTE   W12
 BYTE   Bn1  v116
 BYTE   W12
 BYTE   As1  v127
 BYTE   W12
 BYTE   N05
 BYTE   W12
 BYTE   N04
 BYTE   W04
 BYTE   PAN   c_v-20
 BYTE   VOL   57*DelfinoPlaza_mvl/mxv
 BYTE   W08
 BYTE   N04
 BYTE   W12
//  #04 //066   ----------------------------------------
 BYTE   An1  v124
 BYTE   W12
 BYTE   An1  v127
 BYTE   W12
 BYTE   N05  An1  v120
 BYTE   W12
 BYTE   PAN   c_v-20
 BYTE   VOL   57*DelfinoPlaza_mvl/mxv
 BYTE   N05
 BYTE   W12
 BYTE   An1  v116
 BYTE   W12
 BYTE   An1  v112
 BYTE   W12
 BYTE   An1  v116
 BYTE   W12
 BYTE   An1  v100
 BYTE   W08
 BYTE   PAN   c_v-20
 BYTE   VOL   57*DelfinoPlaza_mvl/mxv
 BYTE   W04
//  #04 //067   ----------------------------------------
 BYTE   N06  Gs1  v127
 BYTE   W12
 BYTE   N05  Gs1  v116
 BYTE   W12
 BYTE   Gs1  v127
 BYTE   W12
 BYTE   N05
 BYTE   W12
 BYTE   N05
 BYTE   W04
 BYTE   PAN   c_v-20
 BYTE   VOL   57*DelfinoPlaza_mvl/mxv
 BYTE   W08
 BYTE   N05  Gs1  v124
 BYTE   W12
 BYTE   N05
 BYTE   W12
 BYTE   N06  Gs1  v127
 BYTE   W12
//  #04 //068   ----------------------------------------
 BYTE   An1  v104
 BYTE   W12
 BYTE   PAN   c_v-20
 BYTE   VOL   57*DelfinoPlaza_mvl/mxv
 BYTE   N05  An1  v088
 BYTE   W12
 BYTE   As1  v116
 BYTE   W12
 BYTE   As1  v088
 BYTE   W12
 BYTE   N06  Bn1  v096
 BYTE   W12
 BYTE   Bn1  v084
 BYTE   W08
 BYTE   PAN   c_v-20
 BYTE   VOL   57*DelfinoPlaza_mvl/mxv
 BYTE   W04
 BYTE   N05  Gs1  v100
 BYTE   W12
 BYTE   N06  Gs1  v092
 BYTE   W12
//  #04 //069   ----------------------------------------
 BYTE   An1  v096
 BYTE   W12
 BYTE   An1  v080
 BYTE   W12
 BYTE   N05  As1  v100
 BYTE   W04
 BYTE   PAN   c_v-20
 BYTE   VOL   57*DelfinoPlaza_mvl/mxv
 BYTE   W01
 BYTE   W01
 BYTE   W06
 BYTE   N05  As1  v104
 BYTE   W12
 BYTE   N06  Bn1  v100
 BYTE   W12
 BYTE   N05  Bn1  v092
 BYTE   W12
 BYTE   Gs1  v116
 BYTE   W12
 BYTE   PAN   c_v-20
 BYTE   VOL   57*DelfinoPlaza_mvl/mxv
 BYTE   N06  Gs1  v104
 BYTE   W12
//  #04 //070   ----------------------------------------
 BYTE   An1  v092
 BYTE   W12
 BYTE   An1  v080
 BYTE   W12
 BYTE   N05  As1  v112
 BYTE   W12
 BYTE   N06  As1  v104
 BYTE   W08
 BYTE   PAN   c_v-20
 BYTE   VOL   57*DelfinoPlaza_mvl/mxv
 BYTE   W04
 BYTE   N06  Bn1  v092
 BYTE   W12
 BYTE   N05
 BYTE   W12
 BYTE   Gs1  v100
 BYTE   W12
 BYTE   N07  Gs1  v092
 BYTE   W12
//  #04 //071   ----------------------------------------
 BYTE   An1  v096
 BYTE   W04
 BYTE   PAN   c_v-20
 BYTE   VOL   58*DelfinoPlaza_mvl/mxv
 BYTE   W08
 BYTE   N06  An1  v088
 BYTE   W12
 BYTE   N05  An1  v112
 BYTE   W12
 BYTE   N06  An1  v104
 BYTE   W04
 BYTE   W01
 BYTE   W06
 BYTE   MOD 0
 BYTE   W01
 BYTE   N06  An1  v092
 BYTE   W12
 BYTE   PAN   c_v-20
 BYTE   VOL   58*DelfinoPlaza_mvl/mxv
 BYTE   N06
 BYTE   W12
 BYTE   N05  An1  v104
 BYTE   W12
 BYTE   N06
 BYTE   W12
//  #04 //072   ----------------------------------------
 BYTE   N05  An1  v100
 BYTE   N05  Cs2
 BYTE   W12
 BYTE   An1
 BYTE   N05  Cs2
 BYTE   W08
 BYTE   PAN   c_v-20
 BYTE   VOL   58*DelfinoPlaza_mvl/mxv
 BYTE   W04
 BYTE   N05  An1
 BYTE   N05  Cs2
 BYTE   W12
 BYTE   An1
 BYTE   N05  Cs2
 BYTE   W12
 BYTE   Gn1
 BYTE   N05  Bn1
 BYTE   W12
 BYTE   Gn1
 BYTE   N05  Bn1
 BYTE   W12
 BYTE   Gn1
 BYTE   N05  Bn1
 BYTE   W04
 BYTE   PAN   c_v-20
 BYTE   VOL   58*DelfinoPlaza_mvl/mxv
 BYTE   W08
 BYTE   N05  Gn1
 BYTE   N05  Bn1
 BYTE   W12
//  #04 //073   ----------------------------------------
 BYTE   Gs1
 BYTE   N05  Bn1
 BYTE   W12
 BYTE   Gs1
 BYTE   N05  Bn1
 BYTE   W12
 BYTE   Gs1
 BYTE   N05  Bn1
 BYTE   W12
 BYTE   PAN   c_v-20
 BYTE   VOL   58*DelfinoPlaza_mvl/mxv
 BYTE   N05  Gs1
 BYTE   N05  Bn1
 BYTE   W12
 BYTE   An1
 BYTE   N05  Cs2
 BYTE   W12
 BYTE   An1
 BYTE   N05  Cs2
 BYTE   W12
 BYTE   An1
 BYTE   N05  Cs2
 BYTE   W12
 BYTE   An1
 BYTE   N05  Cs2
 BYTE   W08
 BYTE   PAN   c_v-20
 BYTE   VOL   59*DelfinoPlaza_mvl/mxv
 BYTE   W04
//  #04 //074   ----------------------------------------
 BYTE   N05  An1
 BYTE   N05  Cs2
 BYTE   W12
 BYTE   An1
 BYTE   N05  Cs2
 BYTE   W12
 BYTE   An1
 BYTE   N05  Cs2
 BYTE   W12
 BYTE   An1
 BYTE   N05  Cs2
 BYTE   W12
 BYTE   Gn1
 BYTE   N05  Bn1
 BYTE   W07
 BYTE   PAN   c_v-20
 BYTE   VOL   59*DelfinoPlaza_mvl/mxv
 BYTE   W05
 BYTE   N05  Gn1
 BYTE   N05  Bn1
 BYTE   W12
 BYTE   Gn1
 BYTE   N05  Bn1
 BYTE   W12
 BYTE   Gn1
 BYTE   N05  Bn1
 BYTE   W12
//  #04 //075   ----------------------------------------
 BYTE   An1
 BYTE   N05  Cs2
 BYTE   W12
 BYTE   An1
 BYTE   N05  Cs2
 BYTE   W03
 BYTE   PAN   c_v-20
 BYTE   VOL   59*DelfinoPlaza_mvl/mxv
 BYTE   W09
 BYTE   N05  An1
 BYTE   N05  Cs2
 BYTE   W12
 BYTE   An1
 BYTE   N05  Cs2
 BYTE   W12
 BYTE   An1
 BYTE   N05  Cs2
 BYTE   W12
 BYTE   An1
 BYTE   N05  Cs2
 BYTE   W11
 BYTE   PAN   c_v-20
 BYTE   VOL   59*DelfinoPlaza_mvl/mxv
 BYTE   W01
 BYTE   N05  As1
 BYTE   N05  Dn2
 BYTE   W12
 BYTE   Bn1
 BYTE   N05  Ds2
 BYTE   W12
//  #04 //076   ----------------------------------------
 BYTE   Cn2
 BYTE   N05  En2
 BYTE   W12
 BYTE   Cn2
 BYTE   N05  En2
 BYTE   W12
 BYTE   Cn2
 BYTE   N05  En2
 BYTE   W07
 BYTE   PAN   c_v-20
 BYTE   VOL   59*DelfinoPlaza_mvl/mxv
 BYTE   W05
 BYTE   N05  Cn2
 BYTE   N05  En2
 BYTE   W12
 BYTE   As1
 BYTE   N05  Dn2
 BYTE   W12
 BYTE   As1
 BYTE   N05  Dn2
 BYTE   W12
 BYTE   As1
 BYTE   N05  Dn2
 BYTE   W12
 BYTE   As1
 BYTE   N05  Dn2
 BYTE   W03
 BYTE   PAN   c_v-20
 BYTE   VOL   59*DelfinoPlaza_mvl/mxv
 BYTE   W09
//  #04 //077   ----------------------------------------
 BYTE   N05  Cn2
 BYTE   N05  En2
 BYTE   W12
 BYTE   Cn2
 BYTE   N05  En2
 BYTE   W12
 BYTE   Cn2
 BYTE   N05  En2
 BYTE   W12
 BYTE   Cn2
 BYTE   N05  En2
 BYTE   W11
 BYTE   PAN   c_v-20
 BYTE   VOL   59*DelfinoPlaza_mvl/mxv
 BYTE   W01
 BYTE   N05  Cn2
 BYTE   N05  En2
 BYTE   W12
 BYTE   Cn2
 BYTE   N05  En2
 BYTE   W12
 BYTE   Cn2
 BYTE   N05  En2
 BYTE   W12
 BYTE   Cn2
 BYTE   N05  En2
 BYTE   W12
//  #04 //078   ----------------------------------------
 BYTE   Cn2
 BYTE   N05  En2
 BYTE   W07
 BYTE   PAN   c_v-20
 BYTE   VOL   59*DelfinoPlaza_mvl/mxv
 BYTE   W05
 BYTE   N05  Cn2
 BYTE   N05  En2
 BYTE   W12
 BYTE   Cn2
 BYTE   N05  En2
 BYTE   W12
 BYTE   Cn2
 BYTE   N05  En2
 BYTE   W12
 BYTE   As1
 BYTE   N05  Dn2
 BYTE   W12
 BYTE   As1
 BYTE   N05  Dn2
 BYTE   W03
 BYTE   PAN   c_v-20
 BYTE   VOL   59*DelfinoPlaza_mvl/mxv
 BYTE   W09
 BYTE   N05  As1
 BYTE   N05  Dn2
 BYTE   W12
 BYTE   As1
 BYTE   N05  Dn2
 BYTE   W12
//  #04 //079   ----------------------------------------
 BYTE   Cn2
 BYTE   N05  En2
 BYTE   W12
 BYTE   Cn2
 BYTE   N05  En2
 BYTE   W11
 BYTE   PAN   c_v-20
 BYTE   VOL   59*DelfinoPlaza_mvl/mxv
 BYTE   W01
 BYTE   N05  Cn2
 BYTE   N05  En2
 BYTE   W12
 BYTE   Cn2
 BYTE   N05  En2
 BYTE   W12
 BYTE   Cn2
 BYTE   N05  En2
 BYTE   W12
 BYTE   Cn2
 BYTE   N05  En2
 BYTE   W12
 BYTE   Cn2
 BYTE   N05  En2
 BYTE   W07
 BYTE   PAN   c_v-20
 BYTE   VOL   59*DelfinoPlaza_mvl/mxv
 BYTE   W05
 BYTE   N05  Cn2
 BYTE   N05  En2
 BYTE   W12
//  #04 //080   ----------------------------------------
 BYTE   Cs2
 BYTE   W12
 BYTE   N05
 BYTE   W12
 BYTE   N05
 BYTE   W12
 BYTE   N05
 BYTE   W03
 BYTE   PAN   c_v-20
 BYTE   VOL   60*DelfinoPlaza_mvl/mxv
 BYTE   W09
 BYTE   N05  Ds2
 BYTE   W12
 BYTE   N05
 BYTE   W12
 BYTE   N05
 BYTE   W12
 BYTE   N05
 BYTE   W11
 BYTE   PAN   c_v-20
 BYTE   VOL   60*DelfinoPlaza_mvl/mxv
 BYTE   W01
//  #04 //081   ----------------------------------------
 BYTE   N05  Bn1
 BYTE   W12
 BYTE   N05
 BYTE   W12
 BYTE   N05
 BYTE   W12
 BYTE   N05
 BYTE   W12
 BYTE   N05
 BYTE   W07
 BYTE   PAN   c_v-20
 BYTE   VOL   60*DelfinoPlaza_mvl/mxv
 BYTE   W05
 BYTE   N05
 BYTE   W12
 BYTE   N05
 BYTE   W12
 BYTE   N05
 BYTE   W12
//  #04 //082   ----------------------------------------
 BYTE   Cs2
 BYTE   W12
 BYTE   N05
 BYTE   W03
 BYTE   PAN   c_v-20
 BYTE   VOL   60*DelfinoPlaza_mvl/mxv
 BYTE   W09
 BYTE   N05
 BYTE   W12
 BYTE   N05
 BYTE   W12
 BYTE   Ds2
 BYTE   W12
 BYTE   N05
 BYTE   W11
 BYTE   PAN   c_v-20
 BYTE   VOL   60*DelfinoPlaza_mvl/mxv
 BYTE   W01
 BYTE   N05
 BYTE   W12
 BYTE   N05
 BYTE   W12
//  #04 //083   ----------------------------------------
 BYTE   An1
 BYTE   W12
 BYTE   N05
 BYTE   W12
 BYTE   N05
 BYTE   W07
 BYTE   PAN   c_v-20
 BYTE   VOL   61*DelfinoPlaza_mvl/mxv
 BYTE   W05
 BYTE   N05
 BYTE   W12
 BYTE   Bn1
 BYTE   N05  Dn2
 BYTE   W12
 BYTE   Bn1
 BYTE   N05  Dn2
 BYTE   W12
 BYTE   Bn1
 BYTE   N05  Dn2
 BYTE   W12
 BYTE   Bn1
 BYTE   N05  Dn2
 BYTE   W03
 BYTE   PAN   c_v-20
 BYTE   VOL   61*DelfinoPlaza_mvl/mxv
 BYTE   W09
//  #04 //084   ----------------------------------------
 BYTE   N05  An1
 BYTE   W12
 BYTE   N05
 BYTE   W12
 BYTE   As1
 BYTE   W12
 BYTE   N05
 BYTE   W11
 BYTE   PAN   c_v-20
 BYTE   VOL   61*DelfinoPlaza_mvl/mxv
 BYTE   W01
 BYTE   N05  Bn1
 BYTE   W12
 BYTE   N05
 BYTE   W12
 BYTE   Gs1
 BYTE   W12
 BYTE   N05
 BYTE   W12
//  #04 //085   ----------------------------------------
 BYTE   An1
 BYTE   W07
 BYTE   PAN   c_v-20
 BYTE   VOL   61*DelfinoPlaza_mvl/mxv
 BYTE   W05
 BYTE   N05
 BYTE   W12
 BYTE   As1
 BYTE   W12
 BYTE   N05
 BYTE   W12
 BYTE   Bn1
 BYTE   W12
 BYTE   N05
 BYTE   W03
 BYTE   PAN   c_v-20
 BYTE   VOL   61*DelfinoPlaza_mvl/mxv
 BYTE   W09
 BYTE   N05  Gs1
 BYTE   W12
 BYTE   N05
 BYTE   W04
 BYTE   MOD 0
 BYTE   W08
//  #04 //086   ----------------------------------------
 BYTE   N05  An1
 BYTE   W12
 BYTE   N05
 BYTE   W11
 BYTE   PAN   c_v-20
 BYTE   VOL   61*DelfinoPlaza_mvl/mxv
 BYTE   W01
 BYTE   N05  As1
 BYTE   W07
 BYTE   MOD 0
 BYTE   W05
 BYTE   N05
 BYTE   W12
 BYTE   An1
 BYTE   N05  Dn2
 BYTE   W06
 BYTE   MOD 1
 BYTE   W01
 BYTE   MOD 0
 BYTE   W03
 BYTE   MOD 1
 BYTE   W01
 BYTE   MOD 0
 BYTE   W01
 BYTE   N05  An1
 BYTE   N05  Dn2
 BYTE   W12
 BYTE   Bn1
 BYTE   N05  Dn2
 BYTE   N05  En2
 BYTE   W07
 BYTE   PAN   c_v-20
 BYTE   VOL   61*DelfinoPlaza_mvl/mxv
 BYTE   W05
 BYTE   N05  Bn1
 BYTE   N05  Dn2
 BYTE   N05  En2
 BYTE   W12
//  #04 //087   ----------------------------------------
 BYTE   An1
 BYTE   N05  Cs2
 BYTE   N05  En2
 BYTE   W11
 BYTE   N06  An1  v120
 BYTE   N05  En2  v116
 BYTE   W12
 BYTE   N06  En2  v076
 BYTE   W01
 BYTE   An1  v116
 BYTE   W03
 BYTE   MOD 0
 BYTE   W08
 BYTE   N03  En2  v092
 BYTE   W01
 BYTE   N04  An1  v096
 BYTE   W02
 BYTE   N03  En2  v112
 BYTE   W01
 BYTE   PAN   c_v-20
 BYTE   VOL   61*DelfinoPlaza_mvl/mxv
 BYTE   W05
 BYTE   N05  En2  v116
 BYTE   W04
 BYTE   An1  v112
 BYTE   W03
 BYTE   W03
 BYTE   N05
 BYTE   N05  En2  v116
 BYTE   W06
 BYTE   An1  v120
 BYTE   N04  En2  v116
 BYTE   W10
 BYTE   En2  v127
 BYTE   W01
 BYTE   An1  v112
 BYTE   W05
 BYTE   N02  En2  v127
 BYTE   W04
 BYTE   N04  An1  v116
 BYTE   N02  En2  v124
 BYTE   W05
 BYTE   N04
 BYTE   W03
 BYTE   An1  v120
 BYTE   W07
 BYTE   PAN   c_v-20
 BYTE   VOL   61*DelfinoPlaza_mvl/mxv
 BYTE   W01
//  #04 //088   ----------------------------------------
 BYTE   N05  An1  v100
 BYTE   W12
 BYTE   N05
 BYTE   W12
 BYTE   As1
 BYTE   W12
 BYTE   N05
 BYTE   W12
 BYTE   Bn1
 BYTE   W07
 BYTE   PAN   c_v-20
 BYTE   VOL   61*DelfinoPlaza_mvl/mxv
 BYTE   W05
 BYTE   N05
 BYTE   W12
 BYTE   Gs1
 BYTE   W12
 BYTE   N05
 BYTE   W12
//  #04 //089   ----------------------------------------
 BYTE   An1
 BYTE   W12
 BYTE   N05
 BYTE   W03
 BYTE   PAN   c_v-20
 BYTE   VOL   62*DelfinoPlaza_mvl/mxv
 BYTE   W09
 BYTE   N05  As1
 BYTE   W12
 BYTE   N05
 BYTE   W12
 BYTE   Bn1
 BYTE   W12
 BYTE   N05
 BYTE   W11
 BYTE   PAN   c_v-20
 BYTE   VOL   62*DelfinoPlaza_mvl/mxv
 BYTE   W01
 BYTE   N05  Gs1
 BYTE   W12
 BYTE   N05
 BYTE   W12
//  #04 //090   ----------------------------------------
 BYTE   An1
 BYTE   W12
 BYTE   N05
 BYTE   W12
 BYTE   As1
 BYTE   W07
 BYTE   PAN   c_v-20
 BYTE   VOL   62*DelfinoPlaza_mvl/mxv
 BYTE   W05
 BYTE   N05
 BYTE   W12
 BYTE   Bn1
 BYTE   W12
 BYTE   N05
 BYTE   W12
 BYTE   Gs1
 BYTE   W12
 BYTE   N05
 BYTE   W03
 BYTE   PAN   c_v-20
 BYTE   VOL   62*DelfinoPlaza_mvl/mxv
 BYTE   W09
//  #04 //091   ----------------------------------------
 BYTE   N05  An1
 BYTE   W12
 BYTE   N05
 BYTE   W12
 BYTE   As1
 BYTE   W12
 BYTE   N05
 BYTE   W11
 BYTE   PAN   c_v-20
 BYTE   VOL   62*DelfinoPlaza_mvl/mxv
 BYTE   W01
 BYTE   N05  Bn1
 BYTE   W12
 BYTE   N05
 BYTE   W12
 BYTE   Gs1
 BYTE   W12
 BYTE   N05
 BYTE   W12
//  #04 //092   ----------------------------------------
 BYTE   An1
 BYTE   W07
 BYTE   PAN   c_v-20
 BYTE   VOL   62*DelfinoPlaza_mvl/mxv
 BYTE   W05
 BYTE   N05
 BYTE   W12
 BYTE   As1
 BYTE   W12
 BYTE   N05
 BYTE   W12
 BYTE   Bn1
 BYTE   W12
 BYTE   N05
 BYTE   W03
 BYTE   PAN   c_v-20
 BYTE   VOL   62*DelfinoPlaza_mvl/mxv
 BYTE   W09
 BYTE   N05  Gs1
 BYTE   W12
 BYTE   N05
 BYTE   W12
//  #04 //093   ----------------------------------------
 BYTE   An1
 BYTE   W12
 BYTE   N05
 BYTE   W11
 BYTE   PAN   c_v-20
 BYTE   VOL   62*DelfinoPlaza_mvl/mxv
 BYTE   W01
 BYTE   N05  As1
 BYTE   W12
 BYTE   N05
 BYTE   W12
 BYTE   Bn1
 BYTE   W12
 BYTE   N05
 BYTE   W12
 BYTE   Gs1
 BYTE   W07
 BYTE   PAN   c_v-20
 BYTE   VOL   62*DelfinoPlaza_mvl/mxv
 BYTE   W05
 BYTE   N05
 BYTE   W12
//  #04 //094   ----------------------------------------
 BYTE   An1
 BYTE   W12
 BYTE   N05
 BYTE   W12
 BYTE   As1
 BYTE   W12
 BYTE   N05
 BYTE   W03
 BYTE   PAN   c_v-20
 BYTE   VOL   62*DelfinoPlaza_mvl/mxv
 BYTE   W09
 BYTE   N05  Bn1
 BYTE   W12
 BYTE   N05
 BYTE   W12
 BYTE   Gs1
 BYTE   W12
 BYTE   N05
 BYTE   W11
 BYTE   PAN   c_v-20
 BYTE   W01
//  #04 //095   ----------------------------------------
 BYTE   N05  An1
 BYTE   W12
 BYTE   N05
 BYTE   W12
 BYTE   As1
 BYTE   W12
 BYTE   N05
 BYTE   W12
 BYTE   Bn1
 BYTE   W07
 BYTE   PAN   c_v-20
 BYTE   W05
 BYTE   N05
 BYTE   W12
 BYTE   Gs1
 BYTE   W12
 BYTE   N05
 BYTE   W12
//  #04 //096   ----------------------------------------
 BYTE   An1
 BYTE   W12
 BYTE   N05
 BYTE   W03
 BYTE   PAN   c_v-20
 BYTE   W09
 BYTE   N05  As1
 BYTE   W12
 BYTE   N05
 BYTE   W12
 BYTE   Bn1
 BYTE   W12
 BYTE   N05
 BYTE   W11
 BYTE   PAN   c_v-20
 BYTE   W01
 BYTE   N05  Gs1
 BYTE   W12
 BYTE   N05
 BYTE   W12
//  #04 //097   ----------------------------------------
 BYTE   An1
 BYTE   W12
 BYTE   N05
 BYTE   W12
 BYTE   As1
 BYTE   W07
 BYTE   PAN   c_v-20
 BYTE   W05
 BYTE   N05
 BYTE   W12
 BYTE   Bn1
 BYTE   W12
 BYTE   N05
 BYTE   W12
 BYTE   Gs1
 BYTE   W12
 BYTE   N05
 BYTE   W03
 BYTE   PAN   c_v-20
 BYTE   W08
 BYTE   GoTo
  POIN2 Label_013B618B
 BYTE   FINE

//**************** Track 5 (Midi-Chn.4) ****************//

DelfinoPlaza_005:
//  #05 //000   ----------------------------------------
 BYTE   KEYSH   DelfinoPlaza_key+0
 BYTE   VOICE   124
 BYTE   W96
//  #05 //001   ----------------------------------------
 BYTE   W92
 BYTE   W03
Label_013B3A3F:
 BYTE   W01
//  #05 //002   ----------------------------------------
 BYTE   W96
//  #05 //003   ----------------------------------------
 BYTE   W96
//  #05 //004   ----------------------------------------
 BYTE   W96
//  #05 //005   ----------------------------------------
 BYTE   W96
//  #05 //006   ----------------------------------------
 BYTE   W96
//  #05 //007   ----------------------------------------
 BYTE   W96
//  #05 //008   ----------------------------------------
 BYTE   W96
//  #05 //009   ----------------------------------------
 BYTE   W96
//  #05 //010   ----------------------------------------
 BYTE   W96
//  #05 //011   ----------------------------------------
 BYTE   W96
//  #05 //012   ----------------------------------------
 BYTE   W96
//  #05 //013   ----------------------------------------
 BYTE   W96
//  #05 //014   ----------------------------------------
 BYTE   W96
//  #05 //015   ----------------------------------------
 BYTE   W96
//  #05 //016   ----------------------------------------
 BYTE   W96
//  #05 //017   ----------------------------------------
 BYTE   W96
//  #05 //018   ----------------------------------------
 BYTE   W96
//  #05 //019   ----------------------------------------
 BYTE   W96
//  #05 //020   ----------------------------------------
 BYTE   W96
//  #05 //021   ----------------------------------------
 BYTE   W96
//  #05 //022   ----------------------------------------
 BYTE   W96
//  #05 //023   ----------------------------------------
 BYTE   W96
//  #05 //024   ----------------------------------------
 BYTE   W96
//  #05 //025   ----------------------------------------
 BYTE   W96
//  #05 //026   ----------------------------------------
 BYTE   W96
//  #05 //027   ----------------------------------------
 BYTE   W96
//  #05 //028   ----------------------------------------
 BYTE   W96
//  #05 //029   ----------------------------------------
 BYTE   W96
//  #05 //030   ----------------------------------------
 BYTE   W96
//  #05 //031   ----------------------------------------
 BYTE   W96
//  #05 //032   ----------------------------------------
 BYTE   W96
//  #05 //033   ----------------------------------------
 BYTE   W96
//  #05 //034   ----------------------------------------
 BYTE   W96
//  #05 //035   ----------------------------------------
 BYTE   W96
//  #05 //036   ----------------------------------------
 BYTE   W96
//  #05 //037   ----------------------------------------
 BYTE   W96
//  #05 //038   ----------------------------------------
 BYTE   W96
//  #05 //039   ----------------------------------------
 BYTE   W96
//  #05 //040   ----------------------------------------
 BYTE   W96
//  #05 //041   ----------------------------------------
 BYTE   W96
//  #05 //042   ----------------------------------------
 BYTE   W96
//  #05 //043   ----------------------------------------
 BYTE   W96
//  #05 //044   ----------------------------------------
 BYTE   W96
//  #05 //045   ----------------------------------------
 BYTE   W96
//  #05 //046   ----------------------------------------
 BYTE   W96
//  #05 //047   ----------------------------------------
 BYTE   W96
//  #05 //048   ----------------------------------------
 BYTE   W96
//  #05 //049   ----------------------------------------
 BYTE   W96
//  #05 //050   ----------------------------------------
 BYTE   W96
//  #05 //051   ----------------------------------------
 BYTE   W36
 BYTE   W01
 BYTE   VOL   62*DelfinoPlaza_mvl/mxv
 BYTE   W09
 BYTE   VOL   61*DelfinoPlaza_mvl/mxv
 BYTE   W08
 BYTE   VOL   61*DelfinoPlaza_mvl/mxv
 BYTE   W08
 BYTE   VOL   60*DelfinoPlaza_mvl/mxv
 BYTE   W09
 BYTE   VOL   59*DelfinoPlaza_mvl/mxv
 BYTE   W05
 BYTE   VOL   59*DelfinoPlaza_mvl/mxv
 BYTE   W09
 BYTE   VOL   58*DelfinoPlaza_mvl/mxv
 BYTE   W08
 BYTE   VOL   57*DelfinoPlaza_mvl/mxv
 BYTE   W03
//  #05 //052   ----------------------------------------
 BYTE   N05  Cn3  v100
 BYTE   W06
 BYTE   N05
 BYTE   W06
 BYTE   N02
 BYTE   W03
 BYTE   N02
 BYTE   W03
 BYTE   N02
 BYTE   W03
 BYTE   N02
 BYTE   W03
 BYTE   N11  Cs3
 BYTE   W12
 BYTE   VOL   57*DelfinoPlaza_mvl/mxv
 BYTE   N11  Cn3
 BYTE   W12
 BYTE   N05
 BYTE   W06
 BYTE   N05
 BYTE   W06
 BYTE   N05
 BYTE   W06
 BYTE   N05
 BYTE   W06
 BYTE   N11  Cs3
 BYTE   W12
 BYTE   Cn3
 BYTE   W12
//  #05 //053   ----------------------------------------
Label_013B3AA7:
 BYTE   N05  Cn3  v100
 BYTE   W06
 BYTE   N05
 BYTE   W06
 BYTE   N02
 BYTE   W03
 BYTE   N02
 BYTE   W03
 BYTE   N02
 BYTE   W03
 BYTE   N02
 BYTE   W03
 BYTE   N11  Cs3
 BYTE   W12
 BYTE   Cn3
 BYTE   W12
 BYTE   N05
 BYTE   W06
 BYTE   N05
 BYTE   W06
 BYTE   N05
 BYTE   W06
 BYTE   N05
 BYTE   W06
 BYTE   N11  Cs3
 BYTE   W12
 BYTE   Cn3
 BYTE   W12
 BYTE   PEND 
//  #05 //054   ----------------------------------------
 BYTE   PATT
  POIN2 Label_013B3AA7
//  #05 //055   ----------------------------------------
 BYTE   PATT
  POIN2 Label_013B3AA7
//  #05 //056   ----------------------------------------
 BYTE   PATT
  POIN2 Label_013B3AA7
//  #05 //057   ----------------------------------------
 BYTE   PATT
  POIN2 Label_013B3AA7
//  #05 //058   ----------------------------------------
 BYTE   PATT
  POIN2 Label_013B3AA7
//  #05 //059   ----------------------------------------
Label_013B3AE1:
 BYTE   N05  Cn3  v100
 BYTE   W06
 BYTE   N05
 BYTE   W06
 BYTE   N02
 BYTE   W03
 BYTE   N02
 BYTE   W03
 BYTE   N02
 BYTE   W03
 BYTE   N02
 BYTE   W03
 BYTE   N05
 BYTE   W06
 BYTE   N05
 BYTE   W06
 BYTE   N02
 BYTE   W03
 BYTE   N02
 BYTE   W03
 BYTE   N02
 BYTE   W03
 BYTE   N02
 BYTE   W03
 BYTE   N05
 BYTE   W06
 BYTE   N05
 BYTE   W06
 BYTE   N02
 BYTE   W03
 BYTE   N02
 BYTE   W03
 BYTE   N02
 BYTE   W03
 BYTE   N02
 BYTE   W03
 BYTE   N11  Cs3
 BYTE   W12
 BYTE   Cn3
 BYTE   W12
 BYTE   PEND 
//  #05 //060   ----------------------------------------
 BYTE   PATT
  POIN2 Label_013B3AA7
//  #05 //061   ----------------------------------------
 BYTE   PATT
  POIN2 Label_013B3AA7
//  #05 //062   ----------------------------------------
 BYTE   PATT
  POIN2 Label_013B3AA7
//  #05 //063   ----------------------------------------
 BYTE   PATT
  POIN2 Label_013B3AA7
//  #05 //064   ----------------------------------------
 BYTE   PATT
  POIN2 Label_013B3AA7
//  #05 //065   ----------------------------------------
 BYTE   PATT
  POIN2 Label_013B3AA7
//  #05 //066   ----------------------------------------
 BYTE   PATT
  POIN2 Label_013B3AA7
//  #05 //067   ----------------------------------------
Label_013B3B30:
 BYTE   N05  Cn3  v100
 BYTE   W06
 BYTE   N05
 BYTE   W06
 BYTE   N02
 BYTE   W03
 BYTE   N02
 BYTE   N08  Cs3
 BYTE   W09
 BYTE   N05  Cn3
 BYTE   W06
 BYTE   N05
 BYTE   W06
 BYTE   N02
 BYTE   W03
 BYTE   N02
 BYTE   N08  Cs3
 BYTE   W09
 BYTE   N05  Cn3
 BYTE   W06
 BYTE   N05
 BYTE   W06
 BYTE   N02
 BYTE   W03
 BYTE   N02
 BYTE   W03
 BYTE   N02
 BYTE   W03
 BYTE   N02
 BYTE   W03
 BYTE   N11
 BYTE   W12
 BYTE   N11
 BYTE   W12
 BYTE   PEND 
//  #05 //068   ----------------------------------------
 BYTE   PATT
  POIN2 Label_013B3AA7
//  #05 //069   ----------------------------------------
 BYTE   PATT
  POIN2 Label_013B3AA7
//  #05 //070   ----------------------------------------
 BYTE   PATT
  POIN2 Label_013B3AA7
//  #05 //071   ----------------------------------------
 BYTE   PATT
  POIN2 Label_013B3AE1
//  #05 //072   ----------------------------------------
 BYTE   N05  Cn3  v127
 BYTE   W06
 BYTE   N04
 BYTE   W12
 BYTE   N05
 BYTE   W06
 BYTE   N03  Cs3
 BYTE   W24
 BYTE   N05  Cn3
 BYTE   W06
 BYTE   N04
 BYTE   W12
 BYTE   N05
 BYTE   W06
 BYTE   N03  Cs3
 BYTE   W24
//  #05 //073   ----------------------------------------
 BYTE   N04  Cn3
 BYTE   W06
 BYTE   N04
 BYTE   W12
 BYTE   N05
 BYTE   W06
 BYTE   N03  Cs3
 BYTE   W24
 BYTE   N04  Cn3
 BYTE   W06
 BYTE   N03
 BYTE   W12
 BYTE   N04
 BYTE   W06
 BYTE   N03  Cs3
 BYTE   W24
//  #05 //074   ----------------------------------------
 BYTE   N04  Cn3
 BYTE   W06
 BYTE   N02  Cn3  v124
 BYTE   W12
 BYTE   N04  Cn3  v127
 BYTE   W06
 BYTE   N02  Cs3
 BYTE   W24
 BYTE   N04  Cn3
 BYTE   W06
 BYTE   N03
 BYTE   W12
 BYTE   N03
 BYTE   W06
 BYTE   Cs3
 BYTE   W24
//  #05 //075   ----------------------------------------
 BYTE   N04  Cn3
 BYTE   W06
 BYTE   N03
 BYTE   W12
 BYTE   N03
 BYTE   W06
 BYTE   N04
 BYTE   W06
 BYTE   N03
 BYTE   W12
 BYTE   N03
 BYTE   W06
 BYTE   N03
 BYTE   W06
 BYTE   N03
 BYTE   W12
 BYTE   N04
 BYTE   W06
 BYTE   N03  Cs3
 BYTE   W24
//  #05 //076   ----------------------------------------
 BYTE   N04  Cn3
 BYTE   W06
 BYTE   N04
 BYTE   W12
 BYTE   N04
 BYTE   W06
 BYTE   Cs3
 BYTE   W24
 BYTE   Cn3
 BYTE   W06
 BYTE   N03  Cn3  v124
 BYTE   W12
 BYTE   N05  Cn3  v127
 BYTE   W06
 BYTE   N03  Cs3
 BYTE   W24
//  #05 //077   ----------------------------------------
 BYTE   N05  Cn3
 BYTE   W06
 BYTE   N03
 BYTE   W12
 BYTE   N05
 BYTE   W06
 BYTE   N03  Cs3
 BYTE   W24
 BYTE   N05  Cn3
 BYTE   W06
 BYTE   N04
 BYTE   W12
 BYTE   N05
 BYTE   W06
 BYTE   N04  Cs3
 BYTE   W24
//  #05 //078   ----------------------------------------
 BYTE   N05  Cn3
 BYTE   W06
 BYTE   N04
 BYTE   W12
 BYTE   N06
 BYTE   W06
 BYTE   N04  Cs3
 BYTE   W24
 BYTE   N05  Cn3
 BYTE   W06
 BYTE   N04
 BYTE   W01
 BYTE   MOD 1
 BYTE   W01
 BYTE   MOD 0
 BYTE   W02
 BYTE   MOD 0
 BYTE   W01
 BYTE   W01
 BYTE   W01
 BYTE   W02
 BYTE   MOD 1
 BYTE   W01
 BYTE   CnM2  v001
 BYTE   W01
 BYTE   MOD 0
 BYTE   W01
 BYTE   N06
 BYTE   W02
 BYTE   MOD 1
 BYTE   W01
 BYTE   MOD 0
 BYTE   W02
 BYTE   MOD 0
 BYTE   W01
 BYTE   N04  Cs3
 BYTE   W06
 BYTE   W04
 BYTE   W01
 BYTE   MOD 1
 BYTE   W01
 BYTE   MOD 0
 BYTE   W03
 BYTE   MOD 1
 BYTE   W01
 BYTE   MOD 0
 BYTE   W01
 BYTE   W03
 BYTE   MOD 0
 BYTE   W01
 BYTE   W02
 BYTE   W01
//  #05 //079   ----------------------------------------
 BYTE   N05  Cn3
 BYTE   W04
 BYTE   MOD 0
 BYTE   W02
 BYTE   N04
 BYTE   W02
 BYTE   W01
 BYTE   W04
 BYTE   MOD 1
 BYTE   W01
 BYTE   MOD 0
 BYTE   W01
 BYTE   MOD 0
 BYTE   W01
 BYTE   MOD 1
 BYTE   W01
 BYTE   MOD 0
 BYTE   W01
 BYTE   MOD 0
 BYTE   N04
 BYTE   W01
 BYTE   MOD 1
 BYTE   W01
 BYTE   MOD 0
 BYTE   W04
 BYTE   N04
 BYTE   W01
 BYTE   MOD 1
 BYTE   W01
 BYTE   MOD 0
 BYTE   W01
 BYTE   W02
 BYTE   MOD 1
 BYTE   W01
 BYTE   MOD 0
 BYTE   N04
 BYTE   W01
 BYTE   MOD 0
 BYTE   W09
 BYTE   W02
 BYTE   N04  Cn3  v124
 BYTE   W04
 BYTE   W01
 BYTE   MOD 1
 BYTE   MOD 0
 BYTE   W01
 BYTE   N04  Cn3  v127
 BYTE   W01
 BYTE   MOD 1
 BYTE   W01
 BYTE   CsM2  v000
 BYTE   W01
 BYTE   MOD 1
 BYTE   W01
 BYTE   MOD 0
 BYTE   W01
 BYTE   MOD 1
 BYTE   W01
 BYTE   CnM2  v001
 BYTE   N04
 BYTE   W01
 BYTE   MOD 0
 BYTE   MOD 1
 BYTE   W01
 BYTE   W01
 BYTE   CnM2  v000
 BYTE   W02
 BYTE   W07
 BYTE   MOD 1
 BYTE   N04
 BYTE   W01
 BYTE   MOD 0
 BYTE   W01
 BYTE   CsM2  v000
 BYTE   W01
 BYTE   CsM2  v000
 BYTE   W02
 BYTE   W01
 BYTE   MOD 1
 BYTE   N05  Cs3
 BYTE   W01
 BYTE   MOD 1
 BYTE   W01
 BYTE   MOD 0
 BYTE   W01
 BYTE   MOD 1
 BYTE   W01
 BYTE   CnM2  v001
 BYTE   W01
 BYTE   MOD 0
 BYTE   W01
 BYTE   MOD 0
 BYTE   W04
 BYTE   MOD 0
 BYTE   W02
 BYTE   MOD 1
 BYTE   W01
 BYTE   MOD 0
 BYTE   W05
 BYTE   MOD 0
 BYTE   W01
 BYTE   W04
 BYTE   CsM2  v000
 BYTE   W01
//  #05 //080   ----------------------------------------
 BYTE   N05  Cn3
 BYTE   W06
 BYTE   MOD 1
 BYTE   MOD 0
 BYTE   N05
 BYTE   W02
 BYTE   MOD 0
 BYTE   W10
 BYTE   N05
 BYTE   W06
 BYTE   N04  Cs3
 BYTE   W24
 BYTE   N05  Cn3
 BYTE   W03
 BYTE   MOD 1
 BYTE   W01
 BYTE   MOD 0
 BYTE   W01
 BYTE   MOD 0
 BYTE   W01
 BYTE   N04
 BYTE   W03
 BYTE   W07
 BYTE   W01
 BYTE   W01
 BYTE   N05
 BYTE   W01
 BYTE   W05
 BYTE   Cs3
 BYTE   W01
 BYTE   W20
 BYTE   W01
 BYTE   W02
//  #05 //081   ----------------------------------------
 BYTE   Cn3
 BYTE   W06
 BYTE   MOD 1
 BYTE   N04
 BYTE   W01
 BYTE   MOD 0
 BYTE   W09
 BYTE   W01
 BYTE   W01
 BYTE   N06
 BYTE   W06
 BYTE   N05  Cs3
 BYTE   W07
 BYTE   W01
 BYTE   MOD 1
 BYTE   MOD 0
 BYTE   W01
 BYTE   CsM2  v000
 BYTE   W03
 BYTE   W01
 BYTE   MOD 1
 BYTE   W01
 BYTE   MOD 0
 BYTE   W04
 BYTE   W06
 BYTE   N04  Cn3
 BYTE   W06
 BYTE   Cn3  v124
 BYTE   W12
 BYTE   N06  Cn3  v127
 BYTE   W06
 BYTE   N05  Cs3
 BYTE   W12
 BYTE   MOD 1
 BYTE   W01
 BYTE   MOD 0
 BYTE   W03
 BYTE   MOD 1
 BYTE   W01
 BYTE   MOD 0
 BYTE   W07
//  #05 //082   ----------------------------------------
 BYTE   N04  Cn3
 BYTE   W06
 BYTE   N05
 BYTE   W12
 BYTE   N05
 BYTE   W06
 BYTE   MOD 0
 BYTE   N04  Cs3
 BYTE   W23
 BYTE   W01
 BYTE   N05  Cn3
 BYTE   W03
 BYTE   MOD 1
 BYTE   W01
 BYTE   MOD 0
 BYTE   W02
 BYTE   N04
 BYTE   W12
 BYTE   N06
 BYTE   W06
 BYTE   N04  Cs3
 BYTE   W24
//  #05 //083   ----------------------------------------
 BYTE   Cn3
 BYTE   W05
 BYTE   W01
 BYTE   N04
 BYTE   W12
 BYTE   N03
 BYTE   W06
 BYTE   N04
 BYTE   W06
 BYTE   N04
 BYTE   W12
 BYTE   N02  Cn3  v124
 BYTE   W06
 BYTE   N05  Cn3  v100
 BYTE   W06
 BYTE   N05
 BYTE   W06
 BYTE   N02
 BYTE   W03
 BYTE   N02
 BYTE   W03
 BYTE   N02
 BYTE   W03
 BYTE   N02
 BYTE   W03
 BYTE   N11  Cs3
 BYTE   W12
 BYTE   Cn3
 BYTE   W12
//  #05 //084   ----------------------------------------
 BYTE   PATT
  POIN2 Label_013B3AA7
//  #05 //085   ----------------------------------------
 BYTE   PATT
  POIN2 Label_013B3AA7
//  #05 //086   ----------------------------------------
 BYTE   PATT
  POIN2 Label_013B3AA7
//  #05 //087   ----------------------------------------
 BYTE   N05  Cn3  v100
 BYTE   W06
 BYTE   N05
 BYTE   W06
 BYTE   N02
 BYTE   W03
 BYTE   N02
 BYTE   W03
 BYTE   N02
 BYTE   W03
 BYTE   N02
 BYTE   W03
 BYTE   N05
 BYTE   W06
 BYTE   N05
 BYTE   W06
 BYTE   N02
 BYTE   W03
 BYTE   N02
 BYTE   W03
 BYTE   N02
 BYTE   W03
 BYTE   N02
 BYTE   W03
 BYTE   N05
 BYTE   W06
 BYTE   N05
 BYTE   W06
 BYTE   N02
 BYTE   W03
 BYTE   N02
 BYTE   W03
 BYTE   N02
 BYTE   W03
 BYTE   N02
 BYTE   W03
 BYTE   N11
 BYTE   W12
 BYTE   Cs3
 BYTE   W12
//  #05 //088   ----------------------------------------
 BYTE   PATT
  POIN2 Label_013B3AA7
//  #05 //089   ----------------------------------------
 BYTE   PATT
  POIN2 Label_013B3AA7
//  #05 //090   ----------------------------------------
 BYTE   PATT
  POIN2 Label_013B3AA7
//  #05 //091   ----------------------------------------
 BYTE   PATT
  POIN2 Label_013B3B30
//  #05 //092   ----------------------------------------
 BYTE   PATT
  POIN2 Label_013B3AA7
//  #05 //093   ----------------------------------------
 BYTE   PATT
  POIN2 Label_013B3AA7
//  #05 //094   ----------------------------------------
 BYTE   PATT
  POIN2 Label_013B3AA7
//  #05 //095   ----------------------------------------
 BYTE   PATT
  POIN2 Label_013B3AA7
//  #05 //096   ----------------------------------------
 BYTE   PATT
  POIN2 Label_013B3AA7
//  #05 //097   ----------------------------------------
 BYTE   N05  Cn3  v100
 BYTE   W06
 BYTE   N05
 BYTE   W06
 BYTE   N02
 BYTE   W03
 BYTE   N02
 BYTE   W03
 BYTE   N02
 BYTE   W03
 BYTE   N02
 BYTE   W03
 BYTE   N05
 BYTE   W06
 BYTE   N05
 BYTE   W06
 BYTE   N02
 BYTE   W03
 BYTE   N02
 BYTE   W03
 BYTE   N02
 BYTE   W03
 BYTE   N02
 BYTE   W03
 BYTE   N05
 BYTE   W06
 BYTE   N05
 BYTE   W06
 BYTE   N02
 BYTE   W03
 BYTE   N02
 BYTE   W03
 BYTE   N02
 BYTE   W03
 BYTE   N02
 BYTE   W03
 BYTE   N11  Cs3
 BYTE   W12
 BYTE   Cn3
 BYTE   W11
 BYTE   GoTo
  POIN2 Label_013B3A3F
 BYTE   FINE

//******************************************************//
	ALIGN 4

DelfinoPlaza:
	BYTE	5	// NumTrks
	BYTE	0	// NumBlks
	BYTE	DelfinoPlaza_pri	// Priority
	BYTE	DelfinoPlaza_rev	// Reverb.
    
	POIN2	DelfinoPlaza_grp
    
	POIN2	DelfinoPlaza_001
	POIN2	DelfinoPlaza_002
	POIN2	DelfinoPlaza_003
	POIN2	DelfinoPlaza_004
	POIN2	DelfinoPlaza_005

	
