//Event file generated from Sappy .s format.
	

	#define	Destiny_grp  voicegroup000
	#define	Destiny_pri  0
	#define	Destiny_rev  0
	#define	Destiny_mvl  127
	#define	Destiny_key  0
	#define	Destiny_tbs  1
	#define	Destiny_exg  0
	#define	Destiny_cmp  1

	// .rodata
	//	Destiny
	ALIGN 4


//**************** Track 1 (Midi-Chn.0) ****************//

Destiny_001:
//  #01 //000   ----------------------------------------
 BYTE   KEYSH   Destiny_key+0
 BYTE   TEMPO   94*Destiny_tbs/2
 BYTE   VOICE   75
 BYTE   VOL   49*Destiny_mvl/mxv
 BYTE   TIE  En1  v100
 BYTE   W96
//  #01 //001   ----------------------------------------
 BYTE   W96
//  #01 //002   ----------------------------------------
 BYTE   W96
//  #01 //003   ----------------------------------------
 BYTE   W96
//  #01 //004   ----------------------------------------
 BYTE   EOT
 BYTE   TIE  Cn1
 BYTE   W96
//  #01 //005   ----------------------------------------
 BYTE   W96
//  #01 //006   ----------------------------------------
 BYTE   EOT
 BYTE   TIE  Bn0
 BYTE   W96
//  #01 //007   ----------------------------------------
 BYTE   W96
//  #01 //008   ----------------------------------------
 BYTE   EOT
 BYTE   TIE  En1
 BYTE   W96
//  #01 //009   ----------------------------------------
 BYTE   W96
//  #01 //010   ----------------------------------------
 BYTE   W96
//  #01 //011   ----------------------------------------
 BYTE   W96
//  #01 //012   ----------------------------------------
 BYTE   EOT
 BYTE   TIE  Cn1
 BYTE   W96
//  #01 //013   ----------------------------------------
 BYTE   W96
//  #01 //014   ----------------------------------------
 BYTE   EOT
 BYTE   TIE  Bn0
 BYTE   W96
//  #01 //015   ----------------------------------------
 BYTE   W96
//  #01 //016   ----------------------------------------
 BYTE   EOT
 BYTE   TIE  En1
 BYTE   W96
//  #01 //017   ----------------------------------------
 BYTE   W96
//  #01 //018   ----------------------------------------
 BYTE   W96
//  #01 //019   ----------------------------------------
 BYTE   W96
//  #01 //020   ----------------------------------------
 BYTE   EOT
 BYTE   TIE  Cn1
 BYTE   W96
//  #01 //021   ----------------------------------------
 BYTE   W96
//  #01 //022   ----------------------------------------
 BYTE   EOT
 BYTE   TIE  Bn0
 BYTE   W96
//  #01 //023   ----------------------------------------
 BYTE   W96
//  #01 //024   ----------------------------------------
 BYTE   EOT
 BYTE   TIE  En1
 BYTE   W96
//  #01 //025   ----------------------------------------
 BYTE   W96
//  #01 //026   ----------------------------------------
 BYTE   W96
//  #01 //027   ----------------------------------------
 BYTE   W96
//  #01 //028   ----------------------------------------
 BYTE   EOT
 BYTE   TIE  Cn1
 BYTE   W96
//  #01 //029   ----------------------------------------
 BYTE   W96
//  #01 //030   ----------------------------------------
 BYTE   EOT
 BYTE   TIE  Bn0
 BYTE   W96
//  #01 //031   ----------------------------------------
 BYTE   W96
//  #01 //032   ----------------------------------------
 BYTE   EOT
 BYTE   FINE

//**************** Track 2 (Midi-Chn.1) ****************//

Destiny_002:
//  #02 //000   ----------------------------------------
 BYTE   KEYSH   Destiny_key+0
 BYTE   VOICE   42
 BYTE   VOL   27*Destiny_mvl/mxv
 BYTE   N12  Gn3  v100
 BYTE   W12
 BYTE   An3
 BYTE   W12
 BYTE   Bn3
 BYTE   W12
 BYTE   An3
 BYTE   W12
 BYTE   Gn3
 BYTE   W12
 BYTE   An3
 BYTE   W12
 BYTE   Bn3
 BYTE   W12
 BYTE   An3
 BYTE   W12
//  #02 //001   ----------------------------------------
Label_0167505C:
 BYTE   N12  Gn3  v100
 BYTE   W12
 BYTE   An3
 BYTE   W12
 BYTE   Bn3
 BYTE   W12
 BYTE   An3
 BYTE   W12
 BYTE   Gn3
 BYTE   W12
 BYTE   An3
 BYTE   W12
 BYTE   Bn3
 BYTE   W12
 BYTE   An3
 BYTE   W12
 BYTE   PEND 
//  #02 //002   ----------------------------------------
 BYTE   PATT
  POIN2 Label_0167505C
//  #02 //003   ----------------------------------------
Label_01675074:
 BYTE   N12  Gn3  v100
 BYTE   W12
 BYTE   An3
 BYTE   W12
 BYTE   Bn3
 BYTE   W12
 BYTE   An3
 BYTE   W12
 BYTE   Gn3
 BYTE   W12
 BYTE   An3
 BYTE   W12
 BYTE   Bn3
 BYTE   W12
 BYTE   Cs4
 BYTE   W12
 BYTE   PEND 
//  #02 //004   ----------------------------------------
Label_01675087:
 BYTE   N12  Cn4  v100
 BYTE   W12
 BYTE   Dn4
 BYTE   W12
 BYTE   En4
 BYTE   W12
 BYTE   Dn4
 BYTE   W12
 BYTE   Cn4
 BYTE   W12
 BYTE   Dn4
 BYTE   W12
 BYTE   En4
 BYTE   W12
 BYTE   Dn4
 BYTE   W12
 BYTE   PEND 
//  #02 //005   ----------------------------------------
 BYTE   PATT
  POIN2 Label_01675087
//  #02 //006   ----------------------------------------
Label_0167509F:
 BYTE   N12  Dn4  v100
 BYTE   W12
 BYTE   En4
 BYTE   W12
 BYTE   Fs4
 BYTE   W12
 BYTE   En4
 BYTE   W12
 BYTE   Dn4
 BYTE   W12
 BYTE   En4
 BYTE   W12
 BYTE   Fs4
 BYTE   W12
 BYTE   En4
 BYTE   W12
 BYTE   PEND 
//  #02 //007   ----------------------------------------
Label_016750B2:
 BYTE   N12  Dn4  v100
 BYTE   W12
 BYTE   En4
 BYTE   W12
 BYTE   Fs4
 BYTE   W12
 BYTE   En4
 BYTE   W12
 BYTE   Dn4
 BYTE   W12
 BYTE   En4
 BYTE   W12
 BYTE   Fs4
 BYTE   W12
 BYTE   Dn4
 BYTE   W12
 BYTE   PEND 
//  #02 //008   ----------------------------------------
 BYTE   PATT
  POIN2 Label_0167505C
//  #02 //009   ----------------------------------------
 BYTE   PATT
  POIN2 Label_0167505C
//  #02 //010   ----------------------------------------
 BYTE   PATT
  POIN2 Label_0167505C
//  #02 //011   ----------------------------------------
 BYTE   PATT
  POIN2 Label_01675074
//  #02 //012   ----------------------------------------
 BYTE   PATT
  POIN2 Label_01675087
//  #02 //013   ----------------------------------------
 BYTE   PATT
  POIN2 Label_01675087
//  #02 //014   ----------------------------------------
 BYTE   PATT
  POIN2 Label_0167509F
//  #02 //015   ----------------------------------------
 BYTE   PATT
  POIN2 Label_016750B2
//  #02 //016   ----------------------------------------
 BYTE   VOL   27*Destiny_mvl/mxv
 BYTE   N12  Gn3  v100
 BYTE   W12
 BYTE   An3
 BYTE   W12
 BYTE   Bn3
 BYTE   W12
 BYTE   An3
 BYTE   W12
 BYTE   Gn3
 BYTE   W12
 BYTE   An3
 BYTE   W12
 BYTE   Bn3
 BYTE   W12
 BYTE   An3
 BYTE   W12
//  #02 //017   ----------------------------------------
 BYTE   PATT
  POIN2 Label_0167505C
//  #02 //018   ----------------------------------------
 BYTE   PATT
  POIN2 Label_0167505C
//  #02 //019   ----------------------------------------
 BYTE   PATT
  POIN2 Label_01675074
//  #02 //020   ----------------------------------------
 BYTE   PATT
  POIN2 Label_01675087
//  #02 //021   ----------------------------------------
 BYTE   PATT
  POIN2 Label_01675087
//  #02 //022   ----------------------------------------
 BYTE   PATT
  POIN2 Label_0167509F
//  #02 //023   ----------------------------------------
 BYTE   PATT
  POIN2 Label_016750B2
//  #02 //024   ----------------------------------------
 BYTE   PATT
  POIN2 Label_0167505C
//  #02 //025   ----------------------------------------
 BYTE   PATT
  POIN2 Label_0167505C
//  #02 //026   ----------------------------------------
 BYTE   PATT
  POIN2 Label_0167505C
//  #02 //027   ----------------------------------------
 BYTE   PATT
  POIN2 Label_01675074
//  #02 //028   ----------------------------------------
 BYTE   PATT
  POIN2 Label_01675087
//  #02 //029   ----------------------------------------
 BYTE   PATT
  POIN2 Label_01675087
//  #02 //030   ----------------------------------------
 BYTE   PATT
  POIN2 Label_0167509F
//  #02 //031   ----------------------------------------
 BYTE   PATT
  POIN2 Label_016750B2
 BYTE   FINE

//**************** Track 3 (Midi-Chn.2) ****************//

Destiny_003:
//  #03 //000   ----------------------------------------
 BYTE   KEYSH   Destiny_key+0
 BYTE   VOICE   42
 BYTE   VOL   27*Destiny_mvl/mxv
 BYTE   N12  Bn3  v100
 BYTE   W12
 BYTE   Cs4
 BYTE   W12
 BYTE   Dn4
 BYTE   W12
 BYTE   Cs4
 BYTE   W12
 BYTE   Bn3
 BYTE   W12
 BYTE   Cs4
 BYTE   W12
 BYTE   Dn4
 BYTE   W12
 BYTE   Cs4
 BYTE   W12
//  #03 //001   ----------------------------------------
Label_01675168:
 BYTE   N12  Bn3  v100
 BYTE   W12
 BYTE   Cs4
 BYTE   W12
 BYTE   Dn4
 BYTE   W12
 BYTE   Cs4
 BYTE   W12
 BYTE   Bn3
 BYTE   W12
 BYTE   Cs4
 BYTE   W12
 BYTE   Dn4
 BYTE   W12
 BYTE   Cs4
 BYTE   W12
 BYTE   PEND 
//  #03 //002   ----------------------------------------
 BYTE   PATT
  POIN2 Label_01675168
//  #03 //003   ----------------------------------------
Label_01675180:
 BYTE   N12  Bn3  v100
 BYTE   W12
 BYTE   Cs4
 BYTE   W12
 BYTE   Dn4
 BYTE   W12
 BYTE   Cs4
 BYTE   W12
 BYTE   Bn3
 BYTE   W12
 BYTE   Cs4
 BYTE   W12
 BYTE   Dn4
 BYTE   W12
 BYTE   En4
 BYTE   W12
 BYTE   PEND 
//  #03 //004   ----------------------------------------
Label_01675193:
 BYTE   N12  En4  v100
 BYTE   W12
 BYTE   Fs4
 BYTE   W12
 BYTE   Gn4
 BYTE   W12
 BYTE   Fs4
 BYTE   W12
 BYTE   En4
 BYTE   W12
 BYTE   Fs4
 BYTE   W12
 BYTE   Gn4
 BYTE   W12
 BYTE   Fs4
 BYTE   W12
 BYTE   PEND 
//  #03 //005   ----------------------------------------
 BYTE   PATT
  POIN2 Label_01675193
//  #03 //006   ----------------------------------------
Label_016751AB:
 BYTE   N12  Fs4  v100
 BYTE   W12
 BYTE   Gn4
 BYTE   W12
 BYTE   An4
 BYTE   W12
 BYTE   Gn4
 BYTE   W12
 BYTE   Fs4
 BYTE   W12
 BYTE   Gn4
 BYTE   W12
 BYTE   An4
 BYTE   W12
 BYTE   Gn4
 BYTE   W12
 BYTE   PEND 
//  #03 //007   ----------------------------------------
Label_016751BE:
 BYTE   N12  Fs4  v100
 BYTE   W12
 BYTE   Gn4
 BYTE   W12
 BYTE   An4
 BYTE   W12
 BYTE   Gn4
 BYTE   W12
 BYTE   Fs4
 BYTE   W12
 BYTE   Gn4
 BYTE   W12
 BYTE   An4
 BYTE   W12
 BYTE   Fs4
 BYTE   W12
 BYTE   PEND 
//  #03 //008   ----------------------------------------
 BYTE   PATT
  POIN2 Label_01675168
//  #03 //009   ----------------------------------------
 BYTE   PATT
  POIN2 Label_01675168
//  #03 //010   ----------------------------------------
 BYTE   PATT
  POIN2 Label_01675168
//  #03 //011   ----------------------------------------
 BYTE   PATT
  POIN2 Label_01675180
//  #03 //012   ----------------------------------------
 BYTE   PATT
  POIN2 Label_01675193
//  #03 //013   ----------------------------------------
 BYTE   PATT
  POIN2 Label_01675193
//  #03 //014   ----------------------------------------
 BYTE   PATT
  POIN2 Label_016751AB
//  #03 //015   ----------------------------------------
 BYTE   PATT
  POIN2 Label_016751BE
//  #03 //016   ----------------------------------------
 BYTE   VOL   27*Destiny_mvl/mxv
 BYTE   N12  Bn3  v100
 BYTE   W12
 BYTE   Cs4
 BYTE   W12
 BYTE   Dn4
 BYTE   W12
 BYTE   Cs4
 BYTE   W12
 BYTE   Bn3
 BYTE   W12
 BYTE   Cs4
 BYTE   W12
 BYTE   Dn4
 BYTE   W12
 BYTE   Cs4
 BYTE   W12
//  #03 //017   ----------------------------------------
 BYTE   PATT
  POIN2 Label_01675168
//  #03 //018   ----------------------------------------
 BYTE   PATT
  POIN2 Label_01675168
//  #03 //019   ----------------------------------------
 BYTE   PATT
  POIN2 Label_01675180
//  #03 //020   ----------------------------------------
 BYTE   PATT
  POIN2 Label_01675193
//  #03 //021   ----------------------------------------
 BYTE   PATT
  POIN2 Label_01675193
//  #03 //022   ----------------------------------------
 BYTE   PATT
  POIN2 Label_016751AB
//  #03 //023   ----------------------------------------
 BYTE   PATT
  POIN2 Label_016751BE
//  #03 //024   ----------------------------------------
 BYTE   PATT
  POIN2 Label_01675168
//  #03 //025   ----------------------------------------
 BYTE   PATT
  POIN2 Label_01675168
//  #03 //026   ----------------------------------------
 BYTE   PATT
  POIN2 Label_01675168
//  #03 //027   ----------------------------------------
 BYTE   PATT
  POIN2 Label_01675180
//  #03 //028   ----------------------------------------
 BYTE   PATT
  POIN2 Label_01675193
//  #03 //029   ----------------------------------------
 BYTE   PATT
  POIN2 Label_01675193
//  #03 //030   ----------------------------------------
 BYTE   PATT
  POIN2 Label_016751AB
//  #03 //031   ----------------------------------------
 BYTE   PATT
  POIN2 Label_016751BE
 BYTE   FINE

//**************** Track 4 (Midi-Chn.3) ****************//

Destiny_004:
//  #04 //000   ----------------------------------------
 BYTE   KEYSH   Destiny_key+0
 BYTE   VOICE   42
 BYTE   VOL   15*Destiny_mvl/mxv
 BYTE   N12  Gn2  v100
 BYTE   W12
 BYTE   An2
 BYTE   W12
 BYTE   Bn2
 BYTE   W12
 BYTE   An2
 BYTE   W12
 BYTE   Gn2
 BYTE   W12
 BYTE   An2
 BYTE   W12
 BYTE   Bn2
 BYTE   W12
 BYTE   An2
 BYTE   W12
//  #04 //001   ----------------------------------------
Label_01675274:
 BYTE   N12  Gn2  v100
 BYTE   W12
 BYTE   An2
 BYTE   W12
 BYTE   Bn2
 BYTE   W12
 BYTE   An2
 BYTE   W12
 BYTE   Gn2
 BYTE   W12
 BYTE   An2
 BYTE   W12
 BYTE   Bn2
 BYTE   W12
 BYTE   An2
 BYTE   W12
 BYTE   PEND 
//  #04 //002   ----------------------------------------
 BYTE   PATT
  POIN2 Label_01675274
//  #04 //003   ----------------------------------------
Label_0167528C:
 BYTE   N12  Gn2  v100
 BYTE   W12
 BYTE   An2
 BYTE   W12
 BYTE   Bn2
 BYTE   W12
 BYTE   An2
 BYTE   W12
 BYTE   Gn2
 BYTE   W12
 BYTE   An2
 BYTE   W12
 BYTE   Bn2
 BYTE   W12
 BYTE   Cs3
 BYTE   W12
 BYTE   PEND 
//  #04 //004   ----------------------------------------
Label_0167529F:
 BYTE   N12  Cn3  v100
 BYTE   W12
 BYTE   Dn3
 BYTE   W12
 BYTE   En3
 BYTE   W12
 BYTE   Dn3
 BYTE   W12
 BYTE   Cn3
 BYTE   W12
 BYTE   Dn3
 BYTE   W12
 BYTE   En3
 BYTE   W12
 BYTE   Dn3
 BYTE   W12
 BYTE   PEND 
//  #04 //005   ----------------------------------------
 BYTE   PATT
  POIN2 Label_0167529F
//  #04 //006   ----------------------------------------
Label_016752B7:
 BYTE   N12  Dn3  v100
 BYTE   W12
 BYTE   En3
 BYTE   W12
 BYTE   Fs3
 BYTE   W12
 BYTE   En3
 BYTE   W12
 BYTE   Dn3
 BYTE   W12
 BYTE   En3
 BYTE   W12
 BYTE   Fs3
 BYTE   W12
 BYTE   En3
 BYTE   W12
 BYTE   PEND 
//  #04 //007   ----------------------------------------
Label_016752CA:
 BYTE   N12  Dn3  v100
 BYTE   W12
 BYTE   En3
 BYTE   W12
 BYTE   Fs3
 BYTE   W12
 BYTE   En3
 BYTE   W12
 BYTE   Dn3
 BYTE   W12
 BYTE   En3
 BYTE   W12
 BYTE   Fs3
 BYTE   W12
 BYTE   Dn3
 BYTE   W12
 BYTE   PEND 
//  #04 //008   ----------------------------------------
 BYTE   PATT
  POIN2 Label_01675274
//  #04 //009   ----------------------------------------
 BYTE   PATT
  POIN2 Label_01675274
//  #04 //010   ----------------------------------------
 BYTE   PATT
  POIN2 Label_01675274
//  #04 //011   ----------------------------------------
 BYTE   PATT
  POIN2 Label_0167528C
//  #04 //012   ----------------------------------------
 BYTE   PATT
  POIN2 Label_0167529F
//  #04 //013   ----------------------------------------
 BYTE   PATT
  POIN2 Label_0167529F
//  #04 //014   ----------------------------------------
 BYTE   PATT
  POIN2 Label_016752B7
//  #04 //015   ----------------------------------------
 BYTE   PATT
  POIN2 Label_016752CA
//  #04 //016   ----------------------------------------
 BYTE   VOL   15*Destiny_mvl/mxv
 BYTE   N12  Gn2  v100
 BYTE   W12
 BYTE   An2
 BYTE   W12
 BYTE   Bn2
 BYTE   W12
 BYTE   An2
 BYTE   W12
 BYTE   Gn2
 BYTE   W12
 BYTE   An2
 BYTE   W12
 BYTE   Bn2
 BYTE   W12
 BYTE   An2
 BYTE   W12
//  #04 //017   ----------------------------------------
 BYTE   PATT
  POIN2 Label_01675274
//  #04 //018   ----------------------------------------
 BYTE   PATT
  POIN2 Label_01675274
//  #04 //019   ----------------------------------------
 BYTE   PATT
  POIN2 Label_0167528C
//  #04 //020   ----------------------------------------
 BYTE   PATT
  POIN2 Label_0167529F
//  #04 //021   ----------------------------------------
 BYTE   PATT
  POIN2 Label_0167529F
//  #04 //022   ----------------------------------------
 BYTE   PATT
  POIN2 Label_016752B7
//  #04 //023   ----------------------------------------
 BYTE   PATT
  POIN2 Label_016752CA
//  #04 //024   ----------------------------------------
 BYTE   PATT
  POIN2 Label_01675274
//  #04 //025   ----------------------------------------
 BYTE   PATT
  POIN2 Label_01675274
//  #04 //026   ----------------------------------------
 BYTE   PATT
  POIN2 Label_01675274
//  #04 //027   ----------------------------------------
 BYTE   PATT
  POIN2 Label_0167528C
//  #04 //028   ----------------------------------------
 BYTE   PATT
  POIN2 Label_0167529F
//  #04 //029   ----------------------------------------
 BYTE   PATT
  POIN2 Label_0167529F
//  #04 //030   ----------------------------------------
 BYTE   PATT
  POIN2 Label_016752B7
//  #04 //031   ----------------------------------------
 BYTE   PATT
  POIN2 Label_016752CA
 BYTE   FINE

//**************** Track 5 (Midi-Chn.4) ****************//

Destiny_005:
//  #05 //000   ----------------------------------------
 BYTE   KEYSH   Destiny_key+0
 BYTE   VOICE   42
 BYTE   VOL   15*Destiny_mvl/mxv
 BYTE   N12  Bn2  v100
 BYTE   W12
 BYTE   Cs3
 BYTE   W12
 BYTE   Dn3
 BYTE   W12
 BYTE   Cs3
 BYTE   W12
 BYTE   Bn2
 BYTE   W12
 BYTE   Cs3
 BYTE   W12
 BYTE   Dn3
 BYTE   W12
 BYTE   Cs3
 BYTE   W12
//  #05 //001   ----------------------------------------
Label_01675380:
 BYTE   N12  Bn2  v100
 BYTE   W12
 BYTE   Cs3
 BYTE   W12
 BYTE   Dn3
 BYTE   W12
 BYTE   Cs3
 BYTE   W12
 BYTE   Bn2
 BYTE   W12
 BYTE   Cs3
 BYTE   W12
 BYTE   Dn3
 BYTE   W12
 BYTE   Cs3
 BYTE   W12
 BYTE   PEND 
//  #05 //002   ----------------------------------------
 BYTE   PATT
  POIN2 Label_01675380
//  #05 //003   ----------------------------------------
Label_01675398:
 BYTE   N12  Bn2  v100
 BYTE   W12
 BYTE   Cs3
 BYTE   W12
 BYTE   Dn3
 BYTE   W12
 BYTE   Cs3
 BYTE   W12
 BYTE   Bn2
 BYTE   W12
 BYTE   Cs3
 BYTE   W12
 BYTE   Dn3
 BYTE   W12
 BYTE   En3
 BYTE   W12
 BYTE   PEND 
//  #05 //004   ----------------------------------------
Label_016753AB:
 BYTE   N12  En3  v100
 BYTE   W12
 BYTE   Fs3
 BYTE   W12
 BYTE   Gn3
 BYTE   W12
 BYTE   Fs3
 BYTE   W12
 BYTE   En3
 BYTE   W12
 BYTE   Fs3
 BYTE   W12
 BYTE   Gn3
 BYTE   W12
 BYTE   Fs3
 BYTE   W12
 BYTE   PEND 
//  #05 //005   ----------------------------------------
 BYTE   PATT
  POIN2 Label_016753AB
//  #05 //006   ----------------------------------------
Label_016753C3:
 BYTE   N12  Fs3  v100
 BYTE   W12
 BYTE   Gn3
 BYTE   W12
 BYTE   An3
 BYTE   W12
 BYTE   Gn3
 BYTE   W12
 BYTE   Fs3
 BYTE   W12
 BYTE   Gn3
 BYTE   W12
 BYTE   An3
 BYTE   W12
 BYTE   Gn3
 BYTE   W12
 BYTE   PEND 
//  #05 //007   ----------------------------------------
Label_016753D6:
 BYTE   N12  Fs3  v100
 BYTE   W12
 BYTE   Gn3
 BYTE   W12
 BYTE   An3
 BYTE   W12
 BYTE   Gn3
 BYTE   W12
 BYTE   Fs3
 BYTE   W12
 BYTE   Gn3
 BYTE   W12
 BYTE   An3
 BYTE   W12
 BYTE   Fs3
 BYTE   W12
 BYTE   PEND 
//  #05 //008   ----------------------------------------
 BYTE   PATT
  POIN2 Label_01675380
//  #05 //009   ----------------------------------------
 BYTE   PATT
  POIN2 Label_01675380
//  #05 //010   ----------------------------------------
 BYTE   PATT
  POIN2 Label_01675380
//  #05 //011   ----------------------------------------
 BYTE   PATT
  POIN2 Label_01675398
//  #05 //012   ----------------------------------------
 BYTE   PATT
  POIN2 Label_016753AB
//  #05 //013   ----------------------------------------
 BYTE   PATT
  POIN2 Label_016753AB
//  #05 //014   ----------------------------------------
 BYTE   PATT
  POIN2 Label_016753C3
//  #05 //015   ----------------------------------------
 BYTE   PATT
  POIN2 Label_016753D6
//  #05 //016   ----------------------------------------
 BYTE   VOL   15*Destiny_mvl/mxv
 BYTE   N12  Bn2  v100
 BYTE   W12
 BYTE   Cs3
 BYTE   W12
 BYTE   Dn3
 BYTE   W12
 BYTE   Cs3
 BYTE   W12
 BYTE   Bn2
 BYTE   W12
 BYTE   Cs3
 BYTE   W12
 BYTE   Dn3
 BYTE   W12
 BYTE   Cs3
 BYTE   W12
//  #05 //017   ----------------------------------------
 BYTE   PATT
  POIN2 Label_01675380
//  #05 //018   ----------------------------------------
 BYTE   PATT
  POIN2 Label_01675380
//  #05 //019   ----------------------------------------
 BYTE   PATT
  POIN2 Label_01675398
//  #05 //020   ----------------------------------------
 BYTE   PATT
  POIN2 Label_016753AB
//  #05 //021   ----------------------------------------
 BYTE   PATT
  POIN2 Label_016753AB
//  #05 //022   ----------------------------------------
 BYTE   PATT
  POIN2 Label_016753C3
//  #05 //023   ----------------------------------------
 BYTE   PATT
  POIN2 Label_016753D6
//  #05 //024   ----------------------------------------
 BYTE   PATT
  POIN2 Label_01675380
//  #05 //025   ----------------------------------------
 BYTE   PATT
  POIN2 Label_01675380
//  #05 //026   ----------------------------------------
 BYTE   PATT
  POIN2 Label_01675380
//  #05 //027   ----------------------------------------
 BYTE   PATT
  POIN2 Label_01675398
//  #05 //028   ----------------------------------------
 BYTE   PATT
  POIN2 Label_016753AB
//  #05 //029   ----------------------------------------
 BYTE   PATT
  POIN2 Label_016753AB
//  #05 //030   ----------------------------------------
 BYTE   PATT
  POIN2 Label_016753C3
//  #05 //031   ----------------------------------------
 BYTE   PATT
  POIN2 Label_016753D6
 BYTE   FINE

//**************** Track 6 (Midi-Chn.5) ****************//

Destiny_006:
//  #06 //000   ----------------------------------------
 BYTE   KEYSH   Destiny_key+0
 BYTE   VOICE   42
 BYTE   VOL   44*Destiny_mvl/mxv
 BYTE   N84  Fs4  v100
 BYTE   W84
 BYTE   N04  Gn4
 BYTE   W04
 BYTE   Fs4
 BYTE   W04
 BYTE   En4
 BYTE   W04
//  #06 //001   ----------------------------------------
Label_01675485:
 BYTE   N84  Bn3  v100
 BYTE   W84
 BYTE   N04
 BYTE   W04
 BYTE   En4
 BYTE   W04
 BYTE   An4
 BYTE   W04
 BYTE   PEND 
//  #06 //002   ----------------------------------------
Label_01675490:
 BYTE   N84  Fs4  v100
 BYTE   W84
 BYTE   N06  En4
 BYTE   W06
 BYTE   Fs4
 BYTE   W06
 BYTE   PEND 
//  #06 //003   ----------------------------------------
Label_0167549A:
 BYTE   N84  Gn4  v100
 BYTE   W84
 BYTE   N04  En4
 BYTE   W04
 BYTE   Gn4
 BYTE   W04
 BYTE   Bn4
 BYTE   W04
 BYTE   PEND 
//  #06 //004   ----------------------------------------
Label_016754A6:
 BYTE   N42  Dn5  v100
 BYTE   W44
 BYTE   W01
 BYTE   N03  Gn4
 BYTE   W03
 BYTE   N72
 BYTE   W48
 BYTE   PEND 
//  #06 //005   ----------------------------------------
Label_016754B1:
 BYTE   W24
 BYTE   N24  Dn5  v100
 BYTE   W24
 BYTE   Cn5
 BYTE   W24
 BYTE   Bn4
 BYTE   W24
 BYTE   PEND 
//  #06 //006   ----------------------------------------
Label_016754BB:
 BYTE   N42  Dn5  v100
 BYTE   W44
 BYTE   W01
 BYTE   N03  Fs4
 BYTE   W03
 BYTE   N72
 BYTE   W48
 BYTE   PEND 
//  #06 //007   ----------------------------------------
Label_016754C6:
 BYTE   W24
 BYTE   N24  An4  v100
 BYTE   W24
 BYTE   Gn4
 BYTE   W24
 BYTE   N12  Fs4
 BYTE   W12
 BYTE   Dn4
 BYTE   W12
 BYTE   PEND 
//  #06 //008   ----------------------------------------
 BYTE   TIE  En4
 BYTE   W96
//  #06 //009   ----------------------------------------
 BYTE   W84
 BYTE   EOT
 BYTE   N04  Bn3
 BYTE   W04
 BYTE   En4
 BYTE   W04
 BYTE   Bn4
 BYTE   W04
//  #06 //010   ----------------------------------------
 BYTE   PATT
  POIN2 Label_01675490
//  #06 //011   ----------------------------------------
Label_016754E4:
 BYTE   N84  Gn4  v100
 BYTE   W84
 BYTE   N04  Bn3
 BYTE   W04
 BYTE   En4
 BYTE   W04
 BYTE   An4
 BYTE   W04
 BYTE   PEND 
//  #06 //012   ----------------------------------------
 BYTE   PATT
  POIN2 Label_01675490
//  #06 //013   ----------------------------------------
Label_016754F5:
 BYTE   N84  Gn4  v100
 BYTE   W84
 BYTE   N06  An4
 BYTE   W06
 BYTE   Bn4
 BYTE   W06
 BYTE   PEND 
//  #06 //014   ----------------------------------------
Label_016754FF:
 BYTE   N72  Dn5  v100
 BYTE   W72
 BYTE   N12  Cn5
 BYTE   W12
 BYTE   Bn4
 BYTE   W12
 BYTE   PEND 
//  #06 //015   ----------------------------------------
Label_01675509:
 BYTE   N84  An4  v100
 BYTE   W90
 BYTE   N06  Gn4
 BYTE   W06
 BYTE   PEND 
//  #06 //016   ----------------------------------------
 BYTE   N84  Fs4
 BYTE   W84
 BYTE   N04  Gn4
 BYTE   W04
 BYTE   Fs4
 BYTE   W04
 BYTE   En4
 BYTE   W04
//  #06 //017   ----------------------------------------
 BYTE   PATT
  POIN2 Label_01675485
//  #06 //018   ----------------------------------------
 BYTE   PATT
  POIN2 Label_01675490
//  #06 //019   ----------------------------------------
 BYTE   PATT
  POIN2 Label_0167549A
//  #06 //020   ----------------------------------------
 BYTE   PATT
  POIN2 Label_016754A6
//  #06 //021   ----------------------------------------
 BYTE   PATT
  POIN2 Label_016754B1
//  #06 //022   ----------------------------------------
 BYTE   PATT
  POIN2 Label_016754BB
//  #06 //023   ----------------------------------------
 BYTE   PATT
  POIN2 Label_016754C6
//  #06 //024   ----------------------------------------
 BYTE   TIE  En4  v100
 BYTE   W96
//  #06 //025   ----------------------------------------
 BYTE   W84
 BYTE   EOT
 BYTE   N04  Bn3
 BYTE   W04
 BYTE   En4
 BYTE   W04
 BYTE   Bn4
 BYTE   W04
//  #06 //026   ----------------------------------------
 BYTE   PATT
  POIN2 Label_01675490
//  #06 //027   ----------------------------------------
 BYTE   PATT
  POIN2 Label_016754E4
//  #06 //028   ----------------------------------------
 BYTE   PATT
  POIN2 Label_01675490
//  #06 //029   ----------------------------------------
 BYTE   PATT
  POIN2 Label_016754F5
//  #06 //030   ----------------------------------------
 BYTE   PATT
  POIN2 Label_016754FF
//  #06 //031   ----------------------------------------
 BYTE   PATT
  POIN2 Label_01675509
 BYTE   FINE

//**************** Track 7 (Midi-Chn.6) ****************//

Destiny_007:
//  #07 //000   ----------------------------------------
 BYTE   KEYSH   Destiny_key+0
 BYTE   VOICE   42
 BYTE   VOL   29*Destiny_mvl/mxv
 BYTE   N84  Fs3  v100
 BYTE   W84
 BYTE   N04  Gn3
 BYTE   W04
 BYTE   Fs3
 BYTE   W04
 BYTE   En3
 BYTE   W04
//  #07 //001   ----------------------------------------
Label_0167557D:
 BYTE   N84  Bn2  v100
 BYTE   W84
 BYTE   N04
 BYTE   W04
 BYTE   En3
 BYTE   W04
 BYTE   An3
 BYTE   W04
 BYTE   PEND 
//  #07 //002   ----------------------------------------
Label_01675588:
 BYTE   N84  Fs3  v100
 BYTE   W84
 BYTE   N06  En3
 BYTE   W06
 BYTE   Fs3
 BYTE   W06
 BYTE   PEND 
//  #07 //003   ----------------------------------------
Label_01675592:
 BYTE   N84  Gn3  v100
 BYTE   W84
 BYTE   N04  En3
 BYTE   W04
 BYTE   Gn3
 BYTE   W04
 BYTE   Bn3
 BYTE   W04
 BYTE   PEND 
//  #07 //004   ----------------------------------------
Label_0167559E:
 BYTE   N42  Dn4  v100
 BYTE   W44
 BYTE   W01
 BYTE   N03  Gn3
 BYTE   W03
 BYTE   N72
 BYTE   W48
 BYTE   PEND 
//  #07 //005   ----------------------------------------
Label_016755A9:
 BYTE   W24
 BYTE   N24  Dn4  v100
 BYTE   W24
 BYTE   Cn4
 BYTE   W24
 BYTE   Bn3
 BYTE   W24
 BYTE   PEND 
//  #07 //006   ----------------------------------------
Label_016755B3:
 BYTE   N42  Dn4  v100
 BYTE   W44
 BYTE   W01
 BYTE   N03  Fs3
 BYTE   W03
 BYTE   N72  Fs3  v080
 BYTE   W48
 BYTE   PEND 
//  #07 //007   ----------------------------------------
Label_016755C0:
 BYTE   W24
 BYTE   N24  An3  v100
 BYTE   W24
 BYTE   Gn3
 BYTE   W24
 BYTE   N12  Fs3  v080
 BYTE   W12
 BYTE   Dn3
 BYTE   W12
 BYTE   PEND 
//  #07 //008   ----------------------------------------
 BYTE   TIE  En3  v100
 BYTE   W96
//  #07 //009   ----------------------------------------
 BYTE   W84
 BYTE   EOT
 BYTE   N04  Bn2
 BYTE   W04
 BYTE   En3
 BYTE   W04
 BYTE   Bn3
 BYTE   W04
//  #07 //010   ----------------------------------------
 BYTE   PATT
  POIN2 Label_01675588
//  #07 //011   ----------------------------------------
Label_016755E0:
 BYTE   N84  Gn3  v100
 BYTE   W84
 BYTE   N04  Bn2
 BYTE   W04
 BYTE   En3
 BYTE   W04
 BYTE   An3
 BYTE   W04
 BYTE   PEND 
//  #07 //012   ----------------------------------------
 BYTE   PATT
  POIN2 Label_01675588
//  #07 //013   ----------------------------------------
Label_016755F1:
 BYTE   N84  Gn3  v100
 BYTE   W84
 BYTE   N06  An3
 BYTE   W06
 BYTE   Bn3
 BYTE   W06
 BYTE   PEND 
//  #07 //014   ----------------------------------------
Label_016755FB:
 BYTE   N72  Dn4  v100
 BYTE   W72
 BYTE   N12  Cn4
 BYTE   W12
 BYTE   Bn3
 BYTE   W12
 BYTE   PEND 
//  #07 //015   ----------------------------------------
Label_01675605:
 BYTE   N84  An3  v100
 BYTE   W90
 BYTE   N06  Gn3
 BYTE   W06
 BYTE   PEND 
//  #07 //016   ----------------------------------------
 BYTE   VOL   29*Destiny_mvl/mxv
 BYTE   N84  Fs3
 BYTE   W84
 BYTE   N04  Gn3
 BYTE   W04
 BYTE   Fs3
 BYTE   W04
 BYTE   En3
 BYTE   W04
//  #07 //017   ----------------------------------------
 BYTE   PATT
  POIN2 Label_0167557D
//  #07 //018   ----------------------------------------
 BYTE   PATT
  POIN2 Label_01675588
//  #07 //019   ----------------------------------------
 BYTE   PATT
  POIN2 Label_01675592
//  #07 //020   ----------------------------------------
 BYTE   PATT
  POIN2 Label_0167559E
//  #07 //021   ----------------------------------------
 BYTE   PATT
  POIN2 Label_016755A9
//  #07 //022   ----------------------------------------
 BYTE   PATT
  POIN2 Label_016755B3
//  #07 //023   ----------------------------------------
 BYTE   PATT
  POIN2 Label_016755C0
//  #07 //024   ----------------------------------------
 BYTE   TIE  En3  v100
 BYTE   W96
//  #07 //025   ----------------------------------------
 BYTE   W84
 BYTE   EOT
 BYTE   N04  Bn2
 BYTE   W04
 BYTE   En3
 BYTE   W04
 BYTE   Bn3
 BYTE   W04
//  #07 //026   ----------------------------------------
 BYTE   PATT
  POIN2 Label_01675588
//  #07 //027   ----------------------------------------
 BYTE   PATT
  POIN2 Label_016755E0
//  #07 //028   ----------------------------------------
 BYTE   PATT
  POIN2 Label_01675588
//  #07 //029   ----------------------------------------
 BYTE   PATT
  POIN2 Label_016755F1
//  #07 //030   ----------------------------------------
 BYTE   PATT
  POIN2 Label_016755FB
//  #07 //031   ----------------------------------------
 BYTE   PATT
  POIN2 Label_01675605
 BYTE   FINE

//**************** Track 8 (Midi-Chn.7) ****************//

Destiny_008:
//  #08 //000   ----------------------------------------
 BYTE   KEYSH   Destiny_key+0
 BYTE   VOICE   73
 BYTE   VOL   46*Destiny_mvl/mxv
 BYTE   N84  Fs4  v100
 BYTE   W84
 BYTE   N04  Gn4
 BYTE   W04
 BYTE   Fs4
 BYTE   W04
 BYTE   En4
 BYTE   W04
//  #08 //001   ----------------------------------------
Label_01675679:
 BYTE   N84  Bn3  v100
 BYTE   W84
 BYTE   N04
 BYTE   W04
 BYTE   En4
 BYTE   W04
 BYTE   An4
 BYTE   W04
 BYTE   PEND 
//  #08 //002   ----------------------------------------
Label_01675684:
 BYTE   N84  Fs4  v100
 BYTE   W84
 BYTE   N06  En4
 BYTE   W06
 BYTE   Fs4
 BYTE   W06
 BYTE   PEND 
//  #08 //003   ----------------------------------------
Label_0167568E:
 BYTE   N84  Gn4  v100
 BYTE   W84
 BYTE   N04  En4
 BYTE   W04
 BYTE   Gn4
 BYTE   W04
 BYTE   Bn4
 BYTE   W04
 BYTE   PEND 
//  #08 //004   ----------------------------------------
Label_0167569A:
 BYTE   N42  Dn5  v100
 BYTE   W44
 BYTE   W01
 BYTE   N03  Gn4
 BYTE   W03
 BYTE   N72
 BYTE   W48
 BYTE   PEND 
//  #08 //005   ----------------------------------------
Label_016756A5:
 BYTE   W24
 BYTE   N24  Dn5  v100
 BYTE   W24
 BYTE   Cn5
 BYTE   W24
 BYTE   Bn4
 BYTE   W24
 BYTE   PEND 
//  #08 //006   ----------------------------------------
Label_016756AF:
 BYTE   N42  Dn5  v100
 BYTE   W44
 BYTE   W01
 BYTE   N03  Fs4
 BYTE   W03
 BYTE   N72
 BYTE   W48
 BYTE   PEND 
//  #08 //007   ----------------------------------------
Label_016756BA:
 BYTE   W24
 BYTE   N24  An4  v100
 BYTE   W24
 BYTE   Gn4
 BYTE   W24
 BYTE   N12  Fs4
 BYTE   W12
 BYTE   Dn4
 BYTE   W12
 BYTE   PEND 
//  #08 //008   ----------------------------------------
Label_016756C7:
 BYTE   N06  En4  v100
 BYTE   W06
 BYTE   Bn3
 BYTE   W06
 BYTE   En4
 BYTE   W06
 BYTE   Fs4
 BYTE   W06
 BYTE   En4
 BYTE   W06
 BYTE   Bn3
 BYTE   W06
 BYTE   En4
 BYTE   W06
 BYTE   Fs4
 BYTE   W06
 BYTE   En4
 BYTE   W06
 BYTE   Bn3
 BYTE   W06
 BYTE   En4
 BYTE   W06
 BYTE   Fs4
 BYTE   W06
 BYTE   En4
 BYTE   W06
 BYTE   Bn3
 BYTE   W06
 BYTE   En4
 BYTE   W06
 BYTE   Fs4
 BYTE   W06
 BYTE   PEND 
//  #08 //009   ----------------------------------------
Label_016756EA:
 BYTE   N06  En4  v100
 BYTE   W06
 BYTE   Bn3
 BYTE   W06
 BYTE   En4
 BYTE   W06
 BYTE   Fs4
 BYTE   W06
 BYTE   En4
 BYTE   W06
 BYTE   Bn3
 BYTE   W06
 BYTE   En4
 BYTE   W06
 BYTE   Fs4
 BYTE   W06
 BYTE   En4
 BYTE   W06
 BYTE   Bn3
 BYTE   W06
 BYTE   En4
 BYTE   W06
 BYTE   Fs4
 BYTE   W06
 BYTE   Gn4
 BYTE   W06
 BYTE   An4
 BYTE   W06
 BYTE   Bn4
 BYTE   W06
 BYTE   Dn5
 BYTE   W06
 BYTE   PEND 
//  #08 //010   ----------------------------------------
 BYTE   PATT
  POIN2 Label_01675684
//  #08 //011   ----------------------------------------
Label_01675712:
 BYTE   N84  Gn4  v100
 BYTE   W84
 BYTE   N04  Bn3
 BYTE   W04
 BYTE   En4
 BYTE   W04
 BYTE   An4
 BYTE   W04
 BYTE   PEND 
//  #08 //012   ----------------------------------------
 BYTE   PATT
  POIN2 Label_01675684
//  #08 //013   ----------------------------------------
Label_01675723:
 BYTE   N84  Gn4  v100
 BYTE   W84
 BYTE   N06  An4
 BYTE   W06
 BYTE   Bn4
 BYTE   W06
 BYTE   PEND 
//  #08 //014   ----------------------------------------
Label_0167572D:
 BYTE   N72  Dn5  v100
 BYTE   W72
 BYTE   N12  Cn5
 BYTE   W12
 BYTE   Bn4
 BYTE   W12
 BYTE   PEND 
//  #08 //015   ----------------------------------------
Label_01675737:
 BYTE   N84  An4  v100
 BYTE   W90
 BYTE   N06  Gn4
 BYTE   W06
 BYTE   PEND 
//  #08 //016   ----------------------------------------
 BYTE   VOL   46*Destiny_mvl/mxv
 BYTE   N84  Fs4
 BYTE   W84
 BYTE   N04  Gn4
 BYTE   W04
 BYTE   Fs4
 BYTE   W04
 BYTE   En4
 BYTE   W04
//  #08 //017   ----------------------------------------
 BYTE   PATT
  POIN2 Label_01675679
//  #08 //018   ----------------------------------------
 BYTE   PATT
  POIN2 Label_01675684
//  #08 //019   ----------------------------------------
 BYTE   PATT
  POIN2 Label_0167568E
//  #08 //020   ----------------------------------------
 BYTE   PATT
  POIN2 Label_0167569A
//  #08 //021   ----------------------------------------
 BYTE   PATT
  POIN2 Label_016756A5
//  #08 //022   ----------------------------------------
 BYTE   PATT
  POIN2 Label_016756AF
//  #08 //023   ----------------------------------------
 BYTE   PATT
  POIN2 Label_016756BA
//  #08 //024   ----------------------------------------
 BYTE   PATT
  POIN2 Label_016756C7
//  #08 //025   ----------------------------------------
 BYTE   PATT
  POIN2 Label_016756EA
//  #08 //026   ----------------------------------------
 BYTE   PATT
  POIN2 Label_01675684
//  #08 //027   ----------------------------------------
 BYTE   PATT
  POIN2 Label_01675712
//  #08 //028   ----------------------------------------
 BYTE   PATT
  POIN2 Label_01675684
//  #08 //029   ----------------------------------------
 BYTE   PATT
  POIN2 Label_01675723
//  #08 //030   ----------------------------------------
 BYTE   PATT
  POIN2 Label_0167572D
//  #08 //031   ----------------------------------------
 BYTE   PATT
  POIN2 Label_01675737
 BYTE   FINE

//**************** Track 9 (Midi-Chn.8) ****************//

Destiny_009:
//  #09 //000   ----------------------------------------
 BYTE   KEYSH   Destiny_key+0
 BYTE   VOICE   46
 BYTE   VOL   19*Destiny_mvl/mxv
 BYTE   W96
//  #09 //001   ----------------------------------------
 BYTE   W96
//  #09 //002   ----------------------------------------
 BYTE   W96
//  #09 //003   ----------------------------------------
 BYTE   W96
//  #09 //004   ----------------------------------------
 BYTE   W96
//  #09 //005   ----------------------------------------
 BYTE   W96
//  #09 //006   ----------------------------------------
 BYTE   W96
//  #09 //007   ----------------------------------------
Label_016757A5:
 BYTE   W84
 BYTE   N06  Fs2  v100
 BYTE   W06
 BYTE   N06
 BYTE   W06
 BYTE   PEND 
//  #09 //008   ----------------------------------------
Label_016757AD:
 BYTE   N24  Fs2  v100
 BYTE   W84
 BYTE   N04
 BYTE   W04
 BYTE   N04
 BYTE   W04
 BYTE   N04
 BYTE   W04
 BYTE   PEND 
//  #09 //009   ----------------------------------------
 BYTE   PATT
  POIN2 Label_016757AD
//  #09 //010   ----------------------------------------
Label_016757BD:
 BYTE   N12  Fs2  v100
 BYTE   W12
 BYTE   N12
 BYTE   W72
 BYTE   N04
 BYTE   W04
 BYTE   N04
 BYTE   W04
 BYTE   N04
 BYTE   W04
 BYTE   PEND 
//  #09 //011   ----------------------------------------
 BYTE   N24
 BYTE   W96
//  #09 //012   ----------------------------------------
Label_016757CC:
 BYTE   N04  Fs2  v100
 BYTE   W04
 BYTE   N04
 BYTE   W04
 BYTE   N04
 BYTE   W04
 BYTE   N24
 BYTE   W72
 BYTE   N04
 BYTE   W04
 BYTE   N04
 BYTE   W04
 BYTE   N04
 BYTE   W04
 BYTE   PEND 
//  #09 //013   ----------------------------------------
Label_016757DD:
 BYTE   N12  Fs2  v100
 BYTE   W12
 BYTE   N12
 BYTE   W84
 BYTE   PEND 
//  #09 //014   ----------------------------------------
Label_016757E4:
 BYTE   N04  Fs2  v100
 BYTE   W04
 BYTE   N04
 BYTE   W04
 BYTE   N04
 BYTE   W04
 BYTE   N24
 BYTE   W84
 BYTE   PEND 
//  #09 //015   ----------------------------------------
 BYTE   N04
 BYTE   W04
 BYTE   N04
 BYTE   W04
 BYTE   N04
 BYTE   W04
 BYTE   N12
 BYTE   W12
 BYTE   N12
 BYTE   W72
//  #09 //016   ----------------------------------------
 BYTE   W96
//  #09 //017   ----------------------------------------
 BYTE   W96
//  #09 //018   ----------------------------------------
 BYTE   W96
//  #09 //019   ----------------------------------------
 BYTE   W96
//  #09 //020   ----------------------------------------
 BYTE   W96
//  #09 //021   ----------------------------------------
 BYTE   W96
//  #09 //022   ----------------------------------------
 BYTE   W96
//  #09 //023   ----------------------------------------
 BYTE   PATT
  POIN2 Label_016757A5
//  #09 //024   ----------------------------------------
 BYTE   PATT
  POIN2 Label_016757AD
//  #09 //025   ----------------------------------------
 BYTE   PATT
  POIN2 Label_016757AD
//  #09 //026   ----------------------------------------
 BYTE   PATT
  POIN2 Label_016757BD
//  #09 //027   ----------------------------------------
 BYTE   N24  Fs2  v100
 BYTE   W96
//  #09 //028   ----------------------------------------
 BYTE   PATT
  POIN2 Label_016757CC
//  #09 //029   ----------------------------------------
 BYTE   PATT
  POIN2 Label_016757DD
//  #09 //030   ----------------------------------------
 BYTE   PATT
  POIN2 Label_016757E4
//  #09 //031   ----------------------------------------
 BYTE   N04  Fs2  v100
 BYTE   W04
 BYTE   N04
 BYTE   W04
 BYTE   N04
 BYTE   W04
 BYTE   N12
 BYTE   W12
 BYTE   N12
 BYTE   W12
 BYTE   FINE

//**************** Track 10 (Midi-Chn.9) ****************//

Destiny_010:
//  #10 //000   ----------------------------------------
 BYTE   KEYSH   Destiny_key+0
 BYTE   VOICE   124
 BYTE   VOL   37*Destiny_mvl/mxv
 BYTE   N06  Dn1  v100
 BYTE   W12
 BYTE   Dn1  v052
 BYTE   W12
 BYTE   Dn1  v040
 BYTE   W12
 BYTE   N03  Dn1  v088
 BYTE   W04
 BYTE   N03
 BYTE   W04
 BYTE   N03
 BYTE   W04
 BYTE   N06  Dn1  v100
 BYTE   W12
 BYTE   N06
 BYTE   W12
 BYTE   Dn1  v052
 BYTE   W12
 BYTE   Dn1  v040
 BYTE   W12
//  #10 //001   ----------------------------------------
Label_01675858:
 BYTE   N06  Dn1  v100
 BYTE   W12
 BYTE   Dn1  v052
 BYTE   W12
 BYTE   Dn1  v040
 BYTE   W12
 BYTE   N03  Dn1  v088
 BYTE   W04
 BYTE   N03
 BYTE   W04
 BYTE   N03
 BYTE   W04
 BYTE   N06  Dn1  v100
 BYTE   W12
 BYTE   N06
 BYTE   W12
 BYTE   Dn1  v052
 BYTE   W12
 BYTE   Dn1  v040
 BYTE   W12
 BYTE   PEND 
//  #10 //002   ----------------------------------------
 BYTE   PATT
  POIN2 Label_01675858
//  #10 //003   ----------------------------------------
 BYTE   PATT
  POIN2 Label_01675858
//  #10 //004   ----------------------------------------
 BYTE   PATT
  POIN2 Label_01675858
//  #10 //005   ----------------------------------------
 BYTE   PATT
  POIN2 Label_01675858
//  #10 //006   ----------------------------------------
 BYTE   PATT
  POIN2 Label_01675858
//  #10 //007   ----------------------------------------
 BYTE   PATT
  POIN2 Label_01675858
//  #10 //008   ----------------------------------------
 BYTE   PATT
  POIN2 Label_01675858
//  #10 //009   ----------------------------------------
 BYTE   PATT
  POIN2 Label_01675858
//  #10 //010   ----------------------------------------
 BYTE   PATT
  POIN2 Label_01675858
//  #10 //011   ----------------------------------------
 BYTE   PATT
  POIN2 Label_01675858
//  #10 //012   ----------------------------------------
 BYTE   PATT
  POIN2 Label_01675858
//  #10 //013   ----------------------------------------
 BYTE   PATT
  POIN2 Label_01675858
//  #10 //014   ----------------------------------------
 BYTE   PATT
  POIN2 Label_01675858
//  #10 //015   ----------------------------------------
 BYTE   PATT
  POIN2 Label_01675858
//  #10 //016   ----------------------------------------
 BYTE   PATT
  POIN2 Label_01675858
//  #10 //017   ----------------------------------------
 BYTE   PATT
  POIN2 Label_01675858
//  #10 //018   ----------------------------------------
 BYTE   PATT
  POIN2 Label_01675858
//  #10 //019   ----------------------------------------
 BYTE   PATT
  POIN2 Label_01675858
//  #10 //020   ----------------------------------------
 BYTE   PATT
  POIN2 Label_01675858
//  #10 //021   ----------------------------------------
 BYTE   PATT
  POIN2 Label_01675858
//  #10 //022   ----------------------------------------
 BYTE   PATT
  POIN2 Label_01675858
//  #10 //023   ----------------------------------------
 BYTE   PATT
  POIN2 Label_01675858
//  #10 //024   ----------------------------------------
 BYTE   PATT
  POIN2 Label_01675858
//  #10 //025   ----------------------------------------
 BYTE   PATT
  POIN2 Label_01675858
//  #10 //026   ----------------------------------------
 BYTE   PATT
  POIN2 Label_01675858
//  #10 //027   ----------------------------------------
 BYTE   PATT
  POIN2 Label_01675858
//  #10 //028   ----------------------------------------
 BYTE   PATT
  POIN2 Label_01675858
//  #10 //029   ----------------------------------------
 BYTE   PATT
  POIN2 Label_01675858
//  #10 //030   ----------------------------------------
 BYTE   PATT
  POIN2 Label_01675858
//  #10 //031   ----------------------------------------
 BYTE   N06  Dn1  v100
 BYTE   W12
 BYTE   Dn1  v052
 BYTE   W12
 BYTE   Dn1  v040
 BYTE   W12
 BYTE   N03  Dn1  v088
 BYTE   W04
 BYTE   N03
 BYTE   W04
 BYTE   N03
 BYTE   W04
 BYTE   N06  Dn1  v100
 BYTE   W12
 BYTE   N06
 BYTE   W12
 BYTE   Dn1  v052
 BYTE   W12
 BYTE   Dn1  v040
 BYTE   W06
 BYTE   FINE

//**************** Track 11 (Midi-Chn.10) ****************//

Destiny_011:
//  #11 //000   ----------------------------------------
 BYTE   KEYSH   Destiny_key+0
 BYTE   VOICE   46
 BYTE   VOL   29*Destiny_mvl/mxv
 BYTE   W96
//  #11 //001   ----------------------------------------
 BYTE   W96
//  #11 //002   ----------------------------------------
 BYTE   W96
//  #11 //003   ----------------------------------------
 BYTE   W96
//  #11 //004   ----------------------------------------
 BYTE   W96
//  #11 //005   ----------------------------------------
 BYTE   W96
//  #11 //006   ----------------------------------------
 BYTE   W96
//  #11 //007   ----------------------------------------
Label_01675935:
 BYTE   W84
 BYTE   N06  Fs1  v100
 BYTE   W06
 BYTE   N06
 BYTE   W06
 BYTE   PEND 
//  #11 //008   ----------------------------------------
Label_0167593D:
 BYTE   N24  Fs1  v100
 BYTE   W84
 BYTE   N04
 BYTE   W04
 BYTE   N04
 BYTE   W04
 BYTE   N04
 BYTE   W04
 BYTE   PEND 
//  #11 //009   ----------------------------------------
 BYTE   PATT
  POIN2 Label_0167593D
//  #11 //010   ----------------------------------------
Label_0167594D:
 BYTE   N12  Fs1  v100
 BYTE   W12
 BYTE   N12
 BYTE   W72
 BYTE   N04
 BYTE   W04
 BYTE   N04
 BYTE   W04
 BYTE   N04
 BYTE   W04
 BYTE   PEND 
//  #11 //011   ----------------------------------------
 BYTE   N24
 BYTE   W96
//  #11 //012   ----------------------------------------
Label_0167595C:
 BYTE   N04  Fs1  v100
 BYTE   W04
 BYTE   N04
 BYTE   W04
 BYTE   N04
 BYTE   W04
 BYTE   N24
 BYTE   W72
 BYTE   N04
 BYTE   W04
 BYTE   N04
 BYTE   W04
 BYTE   N04
 BYTE   W04
 BYTE   PEND 
//  #11 //013   ----------------------------------------
Label_0167596D:
 BYTE   N12  Fs1  v100
 BYTE   W12
 BYTE   N12
 BYTE   W84
 BYTE   PEND 
//  #11 //014   ----------------------------------------
Label_01675974:
 BYTE   N04  Fs1  v100
 BYTE   W04
 BYTE   N04
 BYTE   W04
 BYTE   N04
 BYTE   W04
 BYTE   N24
 BYTE   W84
 BYTE   PEND 
//  #11 //015   ----------------------------------------
 BYTE   N04
 BYTE   W04
 BYTE   N04
 BYTE   W04
 BYTE   N04
 BYTE   W04
 BYTE   N12
 BYTE   W12
 BYTE   N12
 BYTE   W72
//  #11 //016   ----------------------------------------
 BYTE   W96
//  #11 //017   ----------------------------------------
 BYTE   W96
//  #11 //018   ----------------------------------------
 BYTE   W96
//  #11 //019   ----------------------------------------
 BYTE   W96
//  #11 //020   ----------------------------------------
 BYTE   W96
//  #11 //021   ----------------------------------------
 BYTE   W96
//  #11 //022   ----------------------------------------
 BYTE   W96
//  #11 //023   ----------------------------------------
 BYTE   PATT
  POIN2 Label_01675935
//  #11 //024   ----------------------------------------
 BYTE   PATT
  POIN2 Label_0167593D
//  #11 //025   ----------------------------------------
 BYTE   PATT
  POIN2 Label_0167593D
//  #11 //026   ----------------------------------------
 BYTE   PATT
  POIN2 Label_0167594D
//  #11 //027   ----------------------------------------
 BYTE   N24  Fs1  v100
 BYTE   W96
//  #11 //028   ----------------------------------------
 BYTE   PATT
  POIN2 Label_0167595C
//  #11 //029   ----------------------------------------
 BYTE   PATT
  POIN2 Label_0167596D
//  #11 //030   ----------------------------------------
 BYTE   PATT
  POIN2 Label_01675974
//  #11 //031   ----------------------------------------
 BYTE   N04  Fs1  v100
 BYTE   W04
 BYTE   N04
 BYTE   W04
 BYTE   N04
 BYTE   W04
 BYTE   N12
 BYTE   W12
 BYTE   N12
 BYTE   W12
 BYTE   FINE

//******************************************************//
	ALIGN 4

Destiny:
	BYTE	11	// NumTrks
	BYTE	0	// NumBlks
	BYTE	Destiny_pri	// Priority
	BYTE	Destiny_rev	// Reverb.
    
	POIN2	Destiny_grp
    
	POIN2	Destiny_001
	POIN2	Destiny_002
	POIN2	Destiny_003
	POIN2	Destiny_004
	POIN2	Destiny_005
	POIN2	Destiny_006
	POIN2	Destiny_007
	POIN2	Destiny_008
	POIN2	Destiny_009
	POIN2	Destiny_010
	POIN2	Destiny_011

	
