//Event file generated from Sappy .s format.
	

	#define	EndlessBattle_grp  voicegroup000
	#define	EndlessBattle_pri  0
	#define	EndlessBattle_rev  0
	#define	EndlessBattle_mvl  127
	#define	EndlessBattle_key  0
	#define	EndlessBattle_tbs  1
	#define	EndlessBattle_exg  0
	#define	EndlessBattle_cmp  1

	// .rodata
	//	EndlessBattle
	ALIGN 4


//**************** Track 1 (Midi-Chn.0) ****************//

EndlessBattle_001:
//  #01 //000   ----------------------------------------
 BYTE   KEYSH   EndlessBattle_key+0
 BYTE   TEMPO   122*EndlessBattle_tbs/2
 BYTE   VOICE   34
 BYTE   VOL   38*EndlessBattle_mvl/mxv
 BYTE   PAN   c_v+0
 BYTE   BEND   c_v+0
 BYTE   N30  Gn1  v127
 BYTE   W36
 BYTE   N30
 BYTE   W36
 BYTE   N19
 BYTE   W24
//  #01 //001   ----------------------------------------
 BYTE   N30
 BYTE   W36
 BYTE   N30
 BYTE   W36
 BYTE   N10
 BYTE   W12
 BYTE   N03  Dn2  v104
 BYTE   W06
 BYTE   Gn1
 BYTE   W06
//  #01 //002   ----------------------------------------
Label_01260A4C:
 BYTE   N11  Cn2  v127
 BYTE   W12
 BYTE   N03
 BYTE   W12
 BYTE   N07  Cn2  v092
 BYTE   W12
 BYTE   N11  Cn2  v127
 BYTE   W12
 BYTE   N02
 BYTE   W12
 BYTE   N06  Cn2  v092
 BYTE   W12
 BYTE   N11  Cn2  v127
 BYTE   W12
 BYTE   N02  Cn2  v092
 BYTE   W06
 BYTE   Cn2  v080
 BYTE   W06
 BYTE   PEND 
//  #01 //003   ----------------------------------------
Label_01260A6C:
 BYTE   N11  As1  v127
 BYTE   W12
 BYTE   N03
 BYTE   W12
 BYTE   N07  As1  v092
 BYTE   W12
 BYTE   N11  As1  v127
 BYTE   W12
 BYTE   N02
 BYTE   W12
 BYTE   N06  As1  v092
 BYTE   W12
 BYTE   N11  As1  v127
 BYTE   W12
 BYTE   N02  As1  v092
 BYTE   W06
 BYTE   As1  v080
 BYTE   W06
 BYTE   PEND 
//  #01 //004   ----------------------------------------
Label_01260A8C:
 BYTE   N11  Gs1  v127
 BYTE   W12
 BYTE   N03
 BYTE   W12
 BYTE   N07  Gs1  v092
 BYTE   W12
 BYTE   N11  Gs1  v127
 BYTE   W12
 BYTE   N02
 BYTE   W12
 BYTE   N06  Gs1  v092
 BYTE   W12
 BYTE   N11  Gs1  v127
 BYTE   W12
 BYTE   N02  Gs1  v092
 BYTE   W06
 BYTE   Gs1  v080
 BYTE   W06
 BYTE   PEND 
//  #01 //005   ----------------------------------------
Label_01260AAC:
 BYTE   N11  Gn1  v127
 BYTE   W12
 BYTE   N03
 BYTE   W12
 BYTE   N07  Gn1  v092
 BYTE   W12
 BYTE   N11  Gn1  v127
 BYTE   W12
 BYTE   N02
 BYTE   W12
 BYTE   N06  Gn1  v092
 BYTE   W12
 BYTE   N11  Gn1  v127
 BYTE   W12
 BYTE   N02  Gn1  v092
 BYTE   W06
 BYTE   Gn1  v080
 BYTE   W06
 BYTE   PEND 
//  #01 //006   ----------------------------------------
 BYTE   N11  Fn1  v127
 BYTE   W12
 BYTE   N03
 BYTE   W12
 BYTE   N07  Fn1  v092
 BYTE   W12
 BYTE   N11  Fn1  v127
 BYTE   W12
 BYTE   N02
 BYTE   W12
 BYTE   N06  Fn1  v092
 BYTE   W12
 BYTE   N11  Fn1  v127
 BYTE   W12
 BYTE   N02  Fn1  v092
 BYTE   W06
 BYTE   Fn1  v080
 BYTE   W06
//  #01 //007   ----------------------------------------
 BYTE   N11  Ds2  v127
 BYTE   W12
 BYTE   N03
 BYTE   W12
 BYTE   N07  Ds2  v092
 BYTE   W12
 BYTE   N11  Ds2  v127
 BYTE   W12
 BYTE   N02
 BYTE   W12
 BYTE   N06  Ds2  v092
 BYTE   W12
 BYTE   N11  Ds2  v127
 BYTE   W12
 BYTE   N02  Ds2  v092
 BYTE   W06
 BYTE   Ds2  v080
 BYTE   W06
//  #01 //008   ----------------------------------------
Label_01260B0A:
 BYTE   N11  Dn2  v127
 BYTE   W12
 BYTE   N03
 BYTE   W12
 BYTE   N07  Dn2  v092
 BYTE   W12
 BYTE   N11  Dn2  v127
 BYTE   W12
 BYTE   N02
 BYTE   W12
 BYTE   N06  Dn2  v092
 BYTE   W12
 BYTE   N11  Dn2  v127
 BYTE   W12
 BYTE   N02  Dn2  v092
 BYTE   W06
 BYTE   Dn2  v080
 BYTE   W06
 BYTE   PEND 
//  #01 //009   ----------------------------------------
 BYTE   N11  Gn1  v127
 BYTE   W12
 BYTE   N03
 BYTE   W12
 BYTE   N07  Gn1  v092
 BYTE   W12
 BYTE   N11  Gn1  v127
 BYTE   W12
 BYTE   N02
 BYTE   W12
 BYTE   N06  Gn1  v092
 BYTE   W12
 BYTE   N11  Gn1  v127
 BYTE   W12
 BYTE   N03  Dn2
 BYTE   W06
 BYTE   Gn2
 BYTE   W06
//  #01 //010   ----------------------------------------
 BYTE   PATT
  POIN2 Label_01260A4C
//  #01 //011   ----------------------------------------
 BYTE   PATT
  POIN2 Label_01260A6C
//  #01 //012   ----------------------------------------
 BYTE   N11  An1  v127
 BYTE   W12
 BYTE   N03
 BYTE   W12
 BYTE   N07  An1  v092
 BYTE   W12
 BYTE   N11  An1  v127
 BYTE   W12
 BYTE   N02
 BYTE   W12
 BYTE   N06  An1  v092
 BYTE   W12
 BYTE   N11  An1  v127
 BYTE   W12
 BYTE   N02  An1  v092
 BYTE   W06
 BYTE   An1  v080
 BYTE   W06
//  #01 //013   ----------------------------------------
 BYTE   PATT
  POIN2 Label_01260A8C
//  #01 //014   ----------------------------------------
Label_01260B75:
 BYTE   N11  Cs2  v127
 BYTE   W12
 BYTE   N03
 BYTE   W12
 BYTE   N07  Cs2  v092
 BYTE   W12
 BYTE   N11  Cs2  v127
 BYTE   W12
 BYTE   N02
 BYTE   W12
 BYTE   N06  Cs2  v092
 BYTE   W12
 BYTE   N11  Cs2  v127
 BYTE   W12
 BYTE   N02  Cs2  v092
 BYTE   W06
 BYTE   Cs2  v080
 BYTE   W06
 BYTE   PEND 
//  #01 //015   ----------------------------------------
 BYTE   PATT
  POIN2 Label_01260B75
//  #01 //016   ----------------------------------------
 BYTE   PATT
  POIN2 Label_01260B0A
//  #01 //017   ----------------------------------------
 BYTE   PATT
  POIN2 Label_01260AAC
//  #01 //018   ----------------------------------------
 BYTE   N44  Gs1  v116
 BYTE   W48
 BYTE   N21  Ds2
 BYTE   W24
 BYTE   Gs2
 BYTE   W24
//  #01 //019   ----------------------------------------
 BYTE   N22  As2
 BYTE   W24
 BYTE   N52  As1
 BYTE   W60
 BYTE   N04  Cn2
 BYTE   W06
 BYTE   Dn2
 BYTE   W06
//  #01 //020   ----------------------------------------
Label_01260BB8:
 BYTE   N44  Ds2  v116
 BYTE   W48
 BYTE   N22  As1
 BYTE   W24
 BYTE   Ds2
 BYTE   W24
 BYTE   PEND 
//  #01 //021   ----------------------------------------
 BYTE   N44  Fn2
 BYTE   W48
 BYTE   N22  Cn2
 BYTE   W24
 BYTE   An1
 BYTE   W24
//  #01 //022   ----------------------------------------
 BYTE   N68  Gs1
 BYTE   W72
 BYTE   N22  Ds2
 BYTE   W24
//  #01 //023   ----------------------------------------
 BYTE   As1
 BYTE   W24
 BYTE   Fn2
 BYTE   W24
 BYTE   Cn3
 BYTE   W24
 BYTE   As2
 BYTE   W24
//  #01 //024   ----------------------------------------
 BYTE   N44  An2
 BYTE   W48
 BYTE   An1
 BYTE   W48
//  #01 //025   ----------------------------------------
 BYTE   N22  Fn2
 BYTE   W24
 BYTE   Ds2
 BYTE   W24
 BYTE   Cn2
 BYTE   W24
 BYTE   An1
 BYTE   W24
//  #01 //026   ----------------------------------------
 BYTE   N76  Gs1
 BYTE   W84
 BYTE   N04  As1
 BYTE   W06
 BYTE   Cn2
 BYTE   W06
//  #01 //027   ----------------------------------------
 BYTE   N44  As1
 BYTE   W48
 BYTE   N22  Cn2
 BYTE   W24
 BYTE   Dn2
 BYTE   W24
//  #01 //028   ----------------------------------------
 BYTE   PATT
  POIN2 Label_01260BB8
//  #01 //029   ----------------------------------------
 BYTE   N44  Fn2  v116
 BYTE   W48
 BYTE   Fn1
 BYTE   W48
//  #01 //030   ----------------------------------------
 BYTE   Gs1
 BYTE   W48
 BYTE   N22  Ds2
 BYTE   W24
 BYTE   N44  Gs2
 BYTE   W24
//  #01 //031   ----------------------------------------
 BYTE   W24
 BYTE   Gs1
 BYTE   W48
 BYTE   N22  Cn2
 BYTE   W24
//  #01 //032   ----------------------------------------
 BYTE   As1
 BYTE   W24
 BYTE   N22
 BYTE   W24
 BYTE   N22
 BYTE   W24
 BYTE   N22
 BYTE   W24
//  #01 //033   ----------------------------------------
 BYTE   Bn1
 BYTE   W24
 BYTE   N22
 BYTE   W24
 BYTE   Gn1
 BYTE   W24
 BYTE   Bn1
 BYTE   W24
//  #01 //034   ----------------------------------------
 BYTE   N32  Cn2
 BYTE   W36
 BYTE   As1
 BYTE   W36
 BYTE   N22  Gs1
 BYTE   W24
//  #01 //035   ----------------------------------------
Label_01260C27:
 BYTE   N30  Gs1  v116
 BYTE   W36
 BYTE   N30
 BYTE   W36
 BYTE   N19
 BYTE   W24
 BYTE   PEND 
//  #01 //036   ----------------------------------------
 BYTE   N32  Cn2
 BYTE   W36
 BYTE   As1
 BYTE   W36
 BYTE   N20  Gs1
 BYTE   W24
//  #01 //037   ----------------------------------------
 BYTE   PATT
  POIN2 Label_01260C27
//  #01 //038   ----------------------------------------
 BYTE   N30  Gn1  v127
 BYTE   W36
 BYTE   N30
 BYTE   W36
 BYTE   N19
 BYTE   W24
//  #01 //039   ----------------------------------------
 BYTE   N30
 BYTE   W36
 BYTE   N30
 BYTE   W36
 BYTE   N03  Dn2  v104
 BYTE   W12
 BYTE   Gn1
 BYTE   W12
//  #01 //040   ----------------------------------------
 BYTE   GoTo
  POIN2 Label_01260A4C
 BYTE   FINE

//**************** Track 2 (Midi-Chn.1) ****************//

EndlessBattle_002:
//  #02 //000   ----------------------------------------
 BYTE   KEYSH   EndlessBattle_key+0
 BYTE   VOICE   68
 BYTE   VOL   19*EndlessBattle_mvl/mxv
 BYTE   PAN   c_v+32
 BYTE   BEND   c_v+0
 BYTE   N11  Gn2  v068
 BYTE   W36
 BYTE   Gn2  v076
 BYTE   W36
 BYTE   Gn2  v092
 BYTE   W24
//  #02 //001   ----------------------------------------
 BYTE   Gn2  v108
 BYTE   W36
 BYTE   Gn2  v084
 BYTE   W36
 BYTE   Gn2  v092
 BYTE   W24
//  #02 //002   ----------------------------------------
Label_01260C75:
 BYTE   N11  Gn2  v104
 BYTE   W24
 BYTE   Gn2  v072
 BYTE   W24
 BYTE   Gn2  v084
 BYTE   W24
 BYTE   Gn2  v072
 BYTE   W24
 BYTE   PEND 
//  #02 //003   ----------------------------------------
Label_01260C83:
 BYTE   N11  Fn2  v104
 BYTE   W24
 BYTE   Fn2  v072
 BYTE   W24
 BYTE   Fn2  v084
 BYTE   W24
 BYTE   Fn2  v072
 BYTE   W24
 BYTE   PEND 
//  #02 //004   ----------------------------------------
Label_01260C91:
 BYTE   N11  Ds2  v104
 BYTE   W24
 BYTE   Ds2  v072
 BYTE   W24
 BYTE   Ds2  v084
 BYTE   W24
 BYTE   Ds2  v072
 BYTE   W24
 BYTE   PEND 
//  #02 //005   ----------------------------------------
 BYTE   Dn2  v104
 BYTE   W24
 BYTE   Dn2  v072
 BYTE   W24
 BYTE   Dn2  v084
 BYTE   W24
 BYTE   Dn2  v072
 BYTE   W24
//  #02 //006   ----------------------------------------
Label_01260CAB:
 BYTE   N11  Cn2  v104
 BYTE   W24
 BYTE   Cn2  v072
 BYTE   W24
 BYTE   Cn2  v084
 BYTE   W24
 BYTE   Cn2  v072
 BYTE   W24
 BYTE   PEND 
//  #02 //007   ----------------------------------------
 BYTE   PATT
  POIN2 Label_01260CAB
//  #02 //008   ----------------------------------------
 BYTE   N11  Dn2  v104
 BYTE   W24
 BYTE   Dn2  v072
 BYTE   W24
 BYTE   Fn2  v084
 BYTE   W24
 BYTE   Fn2  v072
 BYTE   W24
//  #02 //009   ----------------------------------------
 BYTE   PATT
  POIN2 Label_01260C75
//  #02 //010   ----------------------------------------
 BYTE   PATT
  POIN2 Label_01260C75
//  #02 //011   ----------------------------------------
 BYTE   PATT
  POIN2 Label_01260C83
//  #02 //012   ----------------------------------------
 BYTE   PATT
  POIN2 Label_01260C83
//  #02 //013   ----------------------------------------
 BYTE   PATT
  POIN2 Label_01260C75
//  #02 //014   ----------------------------------------
 BYTE   PATT
  POIN2 Label_01260C91
//  #02 //015   ----------------------------------------
 BYTE   PATT
  POIN2 Label_01260C83
//  #02 //016   ----------------------------------------
 BYTE   PATT
  POIN2 Label_01260C83
//  #02 //017   ----------------------------------------
 BYTE   N11  Gn2  v104
 BYTE   W24
 BYTE   Cn3  v072
 BYTE   W24
 BYTE   Dn3  v084
 BYTE   W24
 BYTE   Gn2  v072
 BYTE   W24
//  #02 //018   ----------------------------------------
 BYTE   W96
//  #02 //019   ----------------------------------------
 BYTE   W96
//  #02 //020   ----------------------------------------
 BYTE   W96
//  #02 //021   ----------------------------------------
 BYTE   W96
//  #02 //022   ----------------------------------------
 BYTE   W96
//  #02 //023   ----------------------------------------
 BYTE   W96
//  #02 //024   ----------------------------------------
 BYTE   W96
//  #02 //025   ----------------------------------------
 BYTE   W96
//  #02 //026   ----------------------------------------
 BYTE   W96
//  #02 //027   ----------------------------------------
 BYTE   W96
//  #02 //028   ----------------------------------------
 BYTE   W96
//  #02 //029   ----------------------------------------
 BYTE   W96
//  #02 //030   ----------------------------------------
 BYTE   W96
//  #02 //031   ----------------------------------------
 BYTE   W96
//  #02 //032   ----------------------------------------
 BYTE   W96
//  #02 //033   ----------------------------------------
 BYTE   W96
//  #02 //034   ----------------------------------------
 BYTE   W96
//  #02 //035   ----------------------------------------
 BYTE   W96
//  #02 //036   ----------------------------------------
 BYTE   W96
//  #02 //037   ----------------------------------------
 BYTE   W96
//  #02 //038   ----------------------------------------
 BYTE   Gn2  v068
 BYTE   W36
 BYTE   Gn2  v076
 BYTE   W36
 BYTE   Gn2  v092
 BYTE   W24
//  #02 //039   ----------------------------------------
 BYTE   N11
 BYTE   W36
 BYTE   Gn2  v068
 BYTE   W36
 BYTE   Gn2  v092
 BYTE   W24
//  #02 //040   ----------------------------------------
 BYTE   GoTo
  POIN2 Label_01260C75
 BYTE   FINE

//**************** Track 3 (Midi-Chn.2) ****************//

EndlessBattle_003:
//  #03 //000   ----------------------------------------
 BYTE   KEYSH   EndlessBattle_key+0
 BYTE   VOICE   70
 BYTE   VOL   18*EndlessBattle_mvl/mxv
 BYTE   PAN   c_v+0
 BYTE   BEND   c_v+0
 BYTE   N11  Dn2  v068
 BYTE   W36
 BYTE   Dn2  v076
 BYTE   W36
 BYTE   Dn2  v092
 BYTE   W24
//  #03 //001   ----------------------------------------
 BYTE   Dn2  v108
 BYTE   W36
 BYTE   Dn2  v084
 BYTE   W36
 BYTE   Dn2  v092
 BYTE   W24
//  #03 //002   ----------------------------------------
Label_01260D49:
 BYTE   N11  Ds2  v104
 BYTE   W24
 BYTE   Ds2  v072
 BYTE   W24
 BYTE   Ds2  v084
 BYTE   W24
 BYTE   Ds2  v072
 BYTE   W24
 BYTE   PEND 
//  #03 //003   ----------------------------------------
Label_01260D57:
 BYTE   N11  Dn2  v104
 BYTE   W24
 BYTE   Dn2  v072
 BYTE   W24
 BYTE   Dn2  v084
 BYTE   W24
 BYTE   Dn2  v072
 BYTE   W24
 BYTE   PEND 
//  #03 //004   ----------------------------------------
Label_01260D65:
 BYTE   N11  Cn2  v104
 BYTE   W24
 BYTE   Cn2  v072
 BYTE   W24
 BYTE   Cn2  v084
 BYTE   W24
 BYTE   Cn2  v072
 BYTE   W24
 BYTE   PEND 
//  #03 //005   ----------------------------------------
Label_01260D73:
 BYTE   N11  As1  v104
 BYTE   W24
 BYTE   As1  v072
 BYTE   W24
 BYTE   As1  v084
 BYTE   W24
 BYTE   As1  v072
 BYTE   W24
 BYTE   PEND 
//  #03 //006   ----------------------------------------
 BYTE   Gs1  v104
 BYTE   W24
 BYTE   Gs1  v072
 BYTE   W24
 BYTE   Gs1  v084
 BYTE   W24
 BYTE   Gs1  v072
 BYTE   W24
//  #03 //007   ----------------------------------------
 BYTE   PATT
  POIN2 Label_01260D73
//  #03 //008   ----------------------------------------
 BYTE   N11  Gs1  v104
 BYTE   W24
 BYTE   Gs1  v072
 BYTE   W24
 BYTE   Cn2  v084
 BYTE   W24
 BYTE   Cn2  v072
 BYTE   W24
//  #03 //009   ----------------------------------------
 BYTE   PATT
  POIN2 Label_01260D57
//  #03 //010   ----------------------------------------
 BYTE   PATT
  POIN2 Label_01260D49
//  #03 //011   ----------------------------------------
 BYTE   PATT
  POIN2 Label_01260D57
//  #03 //012   ----------------------------------------
 BYTE   PATT
  POIN2 Label_01260D65
//  #03 //013   ----------------------------------------
 BYTE   PATT
  POIN2 Label_01260D49
//  #03 //014   ----------------------------------------
 BYTE   PATT
  POIN2 Label_01260D65
//  #03 //015   ----------------------------------------
 BYTE   PATT
  POIN2 Label_01260D65
//  #03 //016   ----------------------------------------
 BYTE   N11  En2  v104
 BYTE   W24
 BYTE   En2  v072
 BYTE   W24
 BYTE   En2  v084
 BYTE   W24
 BYTE   En2  v072
 BYTE   W24
//  #03 //017   ----------------------------------------
 BYTE   Dn2  v104
 BYTE   W24
 BYTE   Gn2  v072
 BYTE   W24
 BYTE   Fn2  v084
 BYTE   W24
 BYTE   Dn2  v072
 BYTE   W24
//  #03 //018   ----------------------------------------
 BYTE   W96
//  #03 //019   ----------------------------------------
 BYTE   W96
//  #03 //020   ----------------------------------------
 BYTE   W96
//  #03 //021   ----------------------------------------
 BYTE   W96
//  #03 //022   ----------------------------------------
 BYTE   W96
//  #03 //023   ----------------------------------------
 BYTE   W96
//  #03 //024   ----------------------------------------
 BYTE   W96
//  #03 //025   ----------------------------------------
 BYTE   W96
//  #03 //026   ----------------------------------------
 BYTE   W96
//  #03 //027   ----------------------------------------
 BYTE   W96
//  #03 //028   ----------------------------------------
 BYTE   W96
//  #03 //029   ----------------------------------------
 BYTE   W96
//  #03 //030   ----------------------------------------
 BYTE   W96
//  #03 //031   ----------------------------------------
 BYTE   W96
//  #03 //032   ----------------------------------------
 BYTE   W96
//  #03 //033   ----------------------------------------
 BYTE   W96
//  #03 //034   ----------------------------------------
 BYTE   W96
//  #03 //035   ----------------------------------------
 BYTE   W96
//  #03 //036   ----------------------------------------
 BYTE   W96
//  #03 //037   ----------------------------------------
 BYTE   W96
//  #03 //038   ----------------------------------------
 BYTE   Dn2  v068
 BYTE   W36
 BYTE   Dn2  v076
 BYTE   W36
 BYTE   Dn2  v092
 BYTE   W24
//  #03 //039   ----------------------------------------
 BYTE   N11
 BYTE   W36
 BYTE   Dn2  v068
 BYTE   W36
 BYTE   Dn2  v092
 BYTE   W24
//  #03 //040   ----------------------------------------
 BYTE   GoTo
  POIN2 Label_01260D49
 BYTE   FINE

//**************** Track 4 (Midi-Chn.3) ****************//

EndlessBattle_004:
//  #04 //000   ----------------------------------------
 BYTE   KEYSH   EndlessBattle_key+0
 BYTE   VOICE   71
 BYTE   VOL   19*EndlessBattle_mvl/mxv
 BYTE   PAN   c_v+15
 BYTE   BEND   c_v+0
 BYTE   N11  Cn2  v068
 BYTE   W12
 BYTE   N04  Gn1  v064
 BYTE   W12
 BYTE   Gn1  v076
 BYTE   W12
 BYTE   N11  Cn2
 BYTE   W12
 BYTE   N04  Gn1
 BYTE   W12
 BYTE   Gn1  v064
 BYTE   W12
 BYTE   N11  Cn2  v092
 BYTE   W12
 BYTE   N04  Gn1  v064
 BYTE   W12
//  #04 //001   ----------------------------------------
 BYTE   N11  Bn1  v108
 BYTE   W12
 BYTE   N04  Gn1  v064
 BYTE   W12
 BYTE   Gn1  v076
 BYTE   W12
 BYTE   N11  Bn1  v084
 BYTE   W12
 BYTE   N04  Gn1  v076
 BYTE   W12
 BYTE   Gn1  v064
 BYTE   W12
 BYTE   N11  Bn1  v092
 BYTE   W12
 BYTE   N04  Gn1  v064
 BYTE   W12
//  #04 //002   ----------------------------------------
Label_01260E4C:
 BYTE   N11  Dn2  v104
 BYTE   W12
 BYTE   N04  Gn1  v076
 BYTE   W12
 BYTE   N11  Dn2  v072
 BYTE   W12
 BYTE   N04  Gn1  v076
 BYTE   W12
 BYTE   N11  Dn2  v084
 BYTE   W12
 BYTE   N04  Gn1  v076
 BYTE   W12
 BYTE   N11  Dn2  v072
 BYTE   W12
 BYTE   N04  Gn1  v076
 BYTE   W12
 BYTE   PEND 
//  #04 //003   ----------------------------------------
Label_01260E6D:
 BYTE   N11  Cn2  v104
 BYTE   W12
 BYTE   N04  Fn1  v076
 BYTE   W12
 BYTE   N11  Cn2  v072
 BYTE   W12
 BYTE   N04  Fn1  v076
 BYTE   W12
 BYTE   N11  Cn2  v084
 BYTE   W12
 BYTE   N04  Fn1  v076
 BYTE   W12
 BYTE   N11  Cn2  v072
 BYTE   W12
 BYTE   N04  Fn1  v076
 BYTE   W12
 BYTE   PEND 
//  #04 //004   ----------------------------------------
Label_01260E8E:
 BYTE   N11  As1  v104
 BYTE   W12
 BYTE   N04  Gn1  v076
 BYTE   W12
 BYTE   N11  As1  v072
 BYTE   W12
 BYTE   N04  Gn1  v076
 BYTE   W12
 BYTE   N11  As1  v084
 BYTE   W12
 BYTE   N04  Gn1  v076
 BYTE   W12
 BYTE   N11  As1  v072
 BYTE   W12
 BYTE   N04  Gn1  v076
 BYTE   W12
 BYTE   PEND 
//  #04 //005   ----------------------------------------
Label_01260EAF:
 BYTE   N11  An1  v104
 BYTE   W12
 BYTE   N04  Fn1  v076
 BYTE   W12
 BYTE   N11  An1  v072
 BYTE   W12
 BYTE   N04  Fn1  v076
 BYTE   W12
 BYTE   N11  An1  v084
 BYTE   W12
 BYTE   N04  Fn1  v076
 BYTE   W12
 BYTE   N11  An1  v072
 BYTE   W12
 BYTE   N04  Fn1  v076
 BYTE   W12
 BYTE   PEND 
//  #04 //006   ----------------------------------------
Label_01260ED0:
 BYTE   N11  Gn1  v104
 BYTE   W12
 BYTE   N04  Ds1  v076
 BYTE   W12
 BYTE   N11  Gn1  v072
 BYTE   W12
 BYTE   N04  Ds1  v076
 BYTE   W12
 BYTE   N11  Gn1  v084
 BYTE   W12
 BYTE   N04  Ds1  v076
 BYTE   W12
 BYTE   N11  Gn1  v072
 BYTE   W12
 BYTE   N04  Ds1  v076
 BYTE   W12
 BYTE   PEND 
//  #04 //007   ----------------------------------------
 BYTE   PATT
  POIN2 Label_01260ED0
//  #04 //008   ----------------------------------------
 BYTE   N11  Fn1  v104
 BYTE   W12
 BYTE   N04  Dn1  v076
 BYTE   W12
 BYTE   N11  Fn1  v072
 BYTE   W12
 BYTE   N04  Dn1  v076
 BYTE   W12
 BYTE   N11  Gs1  v084
 BYTE   W12
 BYTE   N04  Fn1  v076
 BYTE   W12
 BYTE   N11  Gs1  v072
 BYTE   W12
 BYTE   N04  Fn1  v076
 BYTE   W12
//  #04 //009   ----------------------------------------
 BYTE   N11  Cn2  v104
 BYTE   W12
 BYTE   N04  Gn1  v076
 BYTE   W12
 BYTE   N11  Cn2  v072
 BYTE   W12
 BYTE   N04  Gn1  v076
 BYTE   W12
 BYTE   N11  Bn1  v084
 BYTE   W12
 BYTE   N04  Gn1  v076
 BYTE   W12
 BYTE   N11  Bn1  v072
 BYTE   W12
 BYTE   N04  Gn1  v076
 BYTE   W12
//  #04 //010   ----------------------------------------
 BYTE   PATT
  POIN2 Label_01260E4C
//  #04 //011   ----------------------------------------
 BYTE   PATT
  POIN2 Label_01260E6D
//  #04 //012   ----------------------------------------
 BYTE   PATT
  POIN2 Label_01260EAF
//  #04 //013   ----------------------------------------
 BYTE   PATT
  POIN2 Label_01260E8E
//  #04 //014   ----------------------------------------
Label_01260F4A:
 BYTE   N11  Gs1  v104
 BYTE   W12
 BYTE   N04  Fn1  v076
 BYTE   W12
 BYTE   N11  Gs1  v072
 BYTE   W12
 BYTE   N04  Fn1  v076
 BYTE   W12
 BYTE   N11  Gs1  v084
 BYTE   W12
 BYTE   N04  Fn1  v076
 BYTE   W12
 BYTE   N11  Gs1  v072
 BYTE   W12
 BYTE   N04  Fn1  v076
 BYTE   W12
 BYTE   PEND 
//  #04 //015   ----------------------------------------
 BYTE   PATT
  POIN2 Label_01260F4A
//  #04 //016   ----------------------------------------
 BYTE   N11  Cn2  v104
 BYTE   W12
 BYTE   N04  An1  v076
 BYTE   W12
 BYTE   N11  Cn2  v072
 BYTE   W12
 BYTE   N04  An1  v076
 BYTE   W12
 BYTE   N11  Cn2  v084
 BYTE   W12
 BYTE   N04  An1  v076
 BYTE   W12
 BYTE   N11  Cn2  v072
 BYTE   W12
 BYTE   N04  An1  v076
 BYTE   W12
//  #04 //017   ----------------------------------------
 BYTE   N11  Cn2  v104
 BYTE   W12
 BYTE   N04  Gn1  v076
 BYTE   W12
 BYTE   N11  Dn2  v072
 BYTE   W12
 BYTE   N04  Cn2  v076
 BYTE   W12
 BYTE   N11  Bn1  v084
 BYTE   W12
 BYTE   N04  Gn1  v076
 BYTE   W12
 BYTE   N11  Bn1  v072
 BYTE   W12
 BYTE   N04  Gn1  v076
 BYTE   W12
//  #04 //018   ----------------------------------------
 BYTE   W96
//  #04 //019   ----------------------------------------
 BYTE   W96
//  #04 //020   ----------------------------------------
 BYTE   W96
//  #04 //021   ----------------------------------------
 BYTE   W96
//  #04 //022   ----------------------------------------
 BYTE   W96
//  #04 //023   ----------------------------------------
 BYTE   W96
//  #04 //024   ----------------------------------------
 BYTE   W96
//  #04 //025   ----------------------------------------
 BYTE   W96
//  #04 //026   ----------------------------------------
 BYTE   W96
//  #04 //027   ----------------------------------------
 BYTE   W96
//  #04 //028   ----------------------------------------
 BYTE   W96
//  #04 //029   ----------------------------------------
 BYTE   W96
//  #04 //030   ----------------------------------------
 BYTE   W96
//  #04 //031   ----------------------------------------
 BYTE   W96
//  #04 //032   ----------------------------------------
 BYTE   W96
//  #04 //033   ----------------------------------------
 BYTE   W96
//  #04 //034   ----------------------------------------
 BYTE   W96
//  #04 //035   ----------------------------------------
 BYTE   W96
//  #04 //036   ----------------------------------------
 BYTE   W96
//  #04 //037   ----------------------------------------
 BYTE   W96
//  #04 //038   ----------------------------------------
 BYTE   N11  Cn2  v068
 BYTE   W12
 BYTE   N04  Gn1  v064
 BYTE   W12
 BYTE   Gn1  v076
 BYTE   W12
 BYTE   N11  Cn2
 BYTE   W12
 BYTE   N04  Gn1
 BYTE   W12
 BYTE   Gn1  v064
 BYTE   W12
 BYTE   N11  Cn2  v092
 BYTE   W12
 BYTE   N04  Gn1  v064
 BYTE   W12
//  #04 //039   ----------------------------------------
 BYTE   N11  Bn1  v092
 BYTE   W12
 BYTE   N04  Gn1  v064
 BYTE   W12
 BYTE   Gn1  v076
 BYTE   W12
 BYTE   N11  Bn1  v068
 BYTE   W12
 BYTE   N04  Gn1  v076
 BYTE   W12
 BYTE   Gn1  v064
 BYTE   W12
 BYTE   N11  Bn1  v092
 BYTE   W12
 BYTE   N04  Gn1  v064
 BYTE   W12
//  #04 //040   ----------------------------------------
 BYTE   GoTo
  POIN2 Label_01260E4C
 BYTE   FINE

//**************** Track 5 (Midi-Chn.4) ****************//

EndlessBattle_005:
//  #05 //000   ----------------------------------------
 BYTE   KEYSH   EndlessBattle_key+0
 BYTE   VOICE   73
 BYTE   VOL   52*EndlessBattle_mvl/mxv
 BYTE   PAN   c_v-23
 BYTE   BEND   c_v+0
 BYTE   W96
//  #05 //001   ----------------------------------------
 BYTE   W92
 BYTE   W01
 BYTE   W03
//  #05 //002   ----------------------------------------
Label_01261012:
 BYTE   N32  Ds4  v108
 BYTE   W02
 BYTE   W01
 BYTE   W01
 BYTE   W01
 BYTE   W01
 BYTE   W01
 BYTE   W10
 BYTE   W01
 BYTE   W02
 BYTE   W01
 BYTE   W02
 BYTE   W01
 BYTE   W02
 BYTE   W01
 BYTE   W02
 BYTE   W01
 BYTE   W01
 BYTE   W02
 BYTE   W01
 BYTE   W01
 BYTE   W01
 BYTE   N05  Fn4
 BYTE   W01
 BYTE   W01
 BYTE   W02
 BYTE   W01
 BYTE   W01
 BYTE   Gn4
 BYTE   W01
 BYTE   W01
 BYTE   W02
 BYTE   W01
 BYTE   W01
 BYTE   N56  Cn5
 BYTE   W01
 BYTE   W02
 BYTE   W01
 BYTE   W02
 BYTE   W01
 BYTE   W02
 BYTE   W01
 BYTE   W01
 BYTE   W08
 BYTE   W04
 BYTE   W05
 BYTE   W04
 BYTE   W01
 BYTE   W02
 BYTE   W01
 BYTE   W02
 BYTE   W01
 BYTE   W02
 BYTE   W01
 BYTE   W02
 BYTE   W01
 BYTE   W02
 BYTE   W01
//  #05 //003   ----------------------------------------
 BYTE   W02
 BYTE   W01
 BYTE   W15
 BYTE   N02  Cn5  v084
 BYTE   W03
 BYTE   Cs5
 BYTE   W03
 BYTE   N23  Dn5  v104
 BYTE   W02
 BYTE   W01
 BYTE   W01
 BYTE   W01
 BYTE   W01
 BYTE   W01
 BYTE   W01
 BYTE   W01
 BYTE   W02
 BYTE   W01
 BYTE   W02
 BYTE   W01
 BYTE   W02
 BYTE   W01
 BYTE   W02
 BYTE   W01
 BYTE   W02
 BYTE   W01
 BYTE   As4  v108
 BYTE   W08
 BYTE   W05
 BYTE   W04
 BYTE   W04
 BYTE   W03
 BYTE   Fn4
 BYTE   W01
 BYTE   W04
 BYTE   W03
 BYTE   W03
 BYTE   W03
 BYTE   W03
 BYTE   W03
 BYTE   W03
 BYTE   W01
//  #05 //004   ----------------------------------------
 BYTE   N17  Gn4
 BYTE   W06
 BYTE   W06
 BYTE   W06
 BYTE   N05  Fn4
 BYTE   W01
 BYTE   W05
 BYTE   N92  Gn4
 BYTE   W01
 BYTE   W01
 BYTE   W01
 BYTE   W01
 BYTE   W01
 BYTE   W01
 BYTE   W03
 BYTE   W03
 BYTE   W03
 BYTE   W03
 BYTE   W01
 BYTE   W01
 BYTE   W02
 BYTE   W01
 BYTE   W02
 BYTE   W01
 BYTE   W02
 BYTE   W01
 BYTE   W02
 BYTE   W01
 BYTE   W03
 BYTE   W03
 BYTE   W03
 BYTE   W03
 BYTE   W03
 BYTE   W03
 BYTE   W03
 BYTE   W03
 BYTE   W03
 BYTE   W01
 BYTE   W02
 BYTE   W01
 BYTE   W02
 BYTE   W01
 BYTE   W02
 BYTE   W01
 BYTE   W02
 BYTE   W01
//  #05 //005   ----------------------------------------
 BYTE   W02
 BYTE   W01
 BYTE   W02
 BYTE   W01
 BYTE   W02
 BYTE   W01
 BYTE   W02
 BYTE   W01
 BYTE   W02
 BYTE   W01
 BYTE   W02
 BYTE   W01
 BYTE   W02
 BYTE   W01
 BYTE   W02
 BYTE   W01
 BYTE   W02
 BYTE   W01
 BYTE   W01
 BYTE   W02
 BYTE   W01
 BYTE   W02
 BYTE   W01
 BYTE   W02
 BYTE   W01
 BYTE   W02
 BYTE   W01
 BYTE   W02
 BYTE   N02  As4  v084
 BYTE   W01
 BYTE   W02
 BYTE   Bn4
 BYTE   W01
 BYTE   W02
 BYTE   N23  Cn5  v108
 BYTE   W01
 BYTE   W02
 BYTE   W01
 BYTE   W02
 BYTE   W01
 BYTE   W01
 BYTE   W09
 BYTE   W05
 BYTE   W02
 BYTE   As4
 BYTE   W03
 BYTE   W04
 BYTE   W02
 BYTE   W01
 BYTE   W02
 BYTE   W01
 BYTE   W02
 BYTE   W01
 BYTE   W02
 BYTE   W01
 BYTE   W02
 BYTE   W01
 BYTE   W01
 BYTE   W01
//  #05 //006   ----------------------------------------
 BYTE   N32  Gn4
 BYTE   W01
 BYTE   W01
 BYTE   W01
 BYTE   W01
 BYTE   W03
 BYTE   W03
 BYTE   W03
 BYTE   W03
 BYTE   W02
 BYTE   W01
 BYTE   W02
 BYTE   W01
 BYTE   W02
 BYTE   W01
 BYTE   W02
 BYTE   W01
 BYTE   W02
 BYTE   W01
 BYTE   W02
 BYTE   W01
 BYTE   W01
 BYTE   W01
 BYTE   N05
 BYTE   W06
 BYTE   Gs4
 BYTE   W06
 BYTE   N44  Fn4
 BYTE   W02
 BYTE   W03
 BYTE   W03
 BYTE   W03
 BYTE   W03
 BYTE   W03
 BYTE   W03
 BYTE   W03
 BYTE   W01
 BYTE   W01
 BYTE   W02
 BYTE   W01
 BYTE   W02
 BYTE   W01
 BYTE   W02
 BYTE   W01
 BYTE   W02
 BYTE   W01
 BYTE   W02
 BYTE   W01
 BYTE   W02
 BYTE   W01
 BYTE   W02
 BYTE   W01
 BYTE   W02
//  #05 //007   ----------------------------------------
 BYTE   W01
 BYTE   W01
 BYTE   W02
 BYTE   W01
 BYTE   W02
 BYTE   W01
 BYTE   W02
 BYTE   W01
 BYTE   W02
 BYTE   W01
 BYTE   W02
 BYTE   W01
 BYTE   W02
 BYTE   W01
 BYTE   W01
 BYTE   W03
 BYTE   N23  Gn4
 BYTE   W03
 BYTE   W03
 BYTE   W02
 BYTE   W01
 BYTE   W02
 BYTE   W01
 BYTE   W02
 BYTE   W01
 BYTE   W02
 BYTE   W01
 BYTE   W01
 BYTE   W05
 BYTE   N17  Cn4
 BYTE   W02
 BYTE   W01
 BYTE   W02
 BYTE   W01
 BYTE   W02
 BYTE   W01
 BYTE   W06
 BYTE   W03
 BYTE   Dn4
 BYTE   W03
 BYTE   W03
 BYTE   W03
 BYTE   W03
 BYTE   W03
 BYTE   W03
 BYTE   N11  Ds4
 BYTE   W03
 BYTE   W03
 BYTE   W03
 BYTE   W03
//  #05 //008   ----------------------------------------
 BYTE   N17  Gn4
 BYTE   W02
 BYTE   W01
 BYTE   W02
 BYTE   W01
 BYTE   W02
 BYTE   W01
 BYTE   W01
 BYTE   W03
 BYTE   W03
 BYTE   W02
 BYTE   N05  Fn4
 BYTE   W01
 BYTE   W02
 BYTE   W01
 BYTE   W02
 BYTE   TIE  Gn4
 BYTE   W01
 BYTE   W01
 BYTE   W01
 BYTE   W01
 BYTE   W01
 BYTE   W01
 BYTE   W01
 BYTE   W01
 BYTE   W01
 BYTE   W03
 BYTE   W03
 BYTE   W03
 BYTE   W03
 BYTE   W03
 BYTE   W03
 BYTE   W01
 BYTE   W02
 BYTE   W01
 BYTE   W02
 BYTE   W01
 BYTE   W01
 BYTE   W03
 BYTE   W03
 BYTE   W03
 BYTE   W03
 BYTE   W03
 BYTE   W03
 BYTE   W03
 BYTE   W02
 BYTE   W03
 BYTE   W03
 BYTE   W03
 BYTE   W03
 BYTE   W02
//  #05 //009   ----------------------------------------
 BYTE   W01
 BYTE   W03
 BYTE   W03
 BYTE   W03
 BYTE   W03
 BYTE   W03
 BYTE   W03
 BYTE   W01
 BYTE   W02
 BYTE   W01
 BYTE   W02
 BYTE   W01
 BYTE   W02
 BYTE   W01
 BYTE   W02
 BYTE   W01
 BYTE   W02
 BYTE   W01
 BYTE   W02
 BYTE   W01
 BYTE   W02
 BYTE   W01
 BYTE   W02
 BYTE   W01
 BYTE   W02
 BYTE   W01
 BYTE   W02
 BYTE   W01
 BYTE   W02
 BYTE   W01
 BYTE   W02
 BYTE   W01
 BYTE   W02
 BYTE   W01
 BYTE   W02
 BYTE   W01
 BYTE   EOT
 BYTE   W02
 BYTE   W01
 BYTE   W02
 BYTE   W01
 BYTE   W02
 BYTE   W01
 BYTE   W01
 BYTE   W01
 BYTE   W01
 BYTE   W01
 BYTE   W01
 BYTE   W01
 BYTE   W01
 BYTE   W01
 BYTE   W01
 BYTE   W01
 BYTE   W01
 BYTE   W01
 BYTE   W01
 BYTE   W01
 BYTE   W01
 BYTE   W01
 BYTE   W01
 BYTE   W01
 BYTE   W01
 BYTE   W01
 BYTE   W01
 BYTE   W01
 BYTE   W01
 BYTE   W01
 BYTE   W01
//  #05 //010   ----------------------------------------
 BYTE   N32  Ds4
 BYTE   W01
 BYTE   W01
 BYTE   W01
 BYTE   W01
 BYTE   W01
 BYTE   W09
 BYTE   W08
 BYTE   W02
 BYTE   W01
 BYTE   W02
 BYTE   W01
 BYTE   W02
 BYTE   W01
 BYTE   W02
 BYTE   W01
 BYTE   W02
 BYTE   N05  Fn4
 BYTE   W01
 BYTE   W03
 BYTE   W02
 BYTE   Gn4
 BYTE   W01
 BYTE   W03
 BYTE   W02
 BYTE   N56  Cn5
 BYTE   W01
 BYTE   W01
 BYTE   W01
 BYTE   W01
 BYTE   W01
 BYTE   W03
 BYTE   W03
 BYTE   W03
 BYTE   W02
 BYTE   W01
 BYTE   W02
 BYTE   W01
 BYTE   W02
 BYTE   W01
 BYTE   W02
 BYTE   W01
 BYTE   W02
 BYTE   W01
 BYTE   W02
 BYTE   W01
 BYTE   W02
 BYTE   W02
 BYTE   W01
 BYTE   W02
 BYTE   W01
 BYTE   W02
 BYTE   W01
 BYTE   W02
 BYTE   W01
 BYTE   W01
 BYTE   W01
//  #05 //011   ----------------------------------------
 BYTE   W02
 BYTE   W01
 BYTE   W02
 BYTE   W01
 BYTE   W02
 BYTE   W01
 BYTE   W01
 BYTE   W02
 BYTE   W01
 BYTE   W02
 BYTE   W09
 BYTE   N23
 BYTE   W01
 BYTE   W01
 BYTE   W02
 BYTE   W01
 BYTE   W02
 BYTE   W01
 BYTE   W01
 BYTE   W02
 BYTE   W01
 BYTE   W02
 BYTE   W01
 BYTE   W02
 BYTE   W01
 BYTE   W02
 BYTE   W01
 BYTE   W02
 BYTE   W01
 BYTE   N17  Dn5  v104
 BYTE   W02
 BYTE   W01
 BYTE   W13
 BYTE   W02
 BYTE   Ds5  v092
 BYTE   W10
 BYTE   W03
 BYTE   W03
 BYTE   W02
 BYTE   N11  Fn5  v088
 BYTE   W01
 BYTE   W03
 BYTE   W03
 BYTE   W03
 BYTE   W02
//  #05 //012   ----------------------------------------
 BYTE   N40  Gn5  v080
 BYTE   W02
 BYTE   W01
 BYTE   W02
 BYTE   W01
 BYTE   W02
 BYTE   W01
 BYTE   W02
 BYTE   W01
 BYTE   W02
 BYTE   W01
 BYTE   W01
 BYTE   W03
 BYTE   W03
 BYTE   W03
 BYTE   W03
 BYTE   W03
 BYTE   W03
 BYTE   W02
 BYTE   W01
 BYTE   W02
 BYTE   W01
 BYTE   W01
 BYTE   W01
 BYTE   N05  Fn5  v088
 BYTE   W06
 BYTE   N44  Cn5  v108
 BYTE   W06
 BYTE   W02
 BYTE   W01
 BYTE   W02
 BYTE   W01
 BYTE   W02
 BYTE   W01
 BYTE   W01
 BYTE   W08
 BYTE   W08
 BYTE   W08
 BYTE   W08
//  #05 //013   ----------------------------------------
 BYTE   W02
 BYTE   W01
 BYTE   W01
 BYTE   W03
 BYTE   W03
 BYTE   W03
 BYTE   W03
 BYTE   W03
 BYTE   W03
 BYTE   W02
 BYTE   N23  Gn4
 BYTE   W02
 BYTE   W01
 BYTE   W02
 BYTE   W01
 BYTE   W02
 BYTE   W01
 BYTE   W02
 BYTE   W01
 BYTE   W02
 BYTE   W01
 BYTE   W02
 BYTE   W01
 BYTE   W02
 BYTE   W01
 BYTE   W02
 BYTE   W01
 BYTE   Ds5  v092
 BYTE   W02
 BYTE   W01
 BYTE   W02
 BYTE   W01
 BYTE   W02
 BYTE   W03
 BYTE   W03
 BYTE   W03
 BYTE   W03
 BYTE   W03
 BYTE   W01
 BYTE   Dn5  v104
 BYTE   W07
 BYTE   W09
 BYTE   W01
 BYTE   W02
 BYTE   W01
 BYTE   W02
 BYTE   W01
 BYTE   W01
//  #05 //014   ----------------------------------------
 BYTE   N40  Cn5  v108
 BYTE   W01
 BYTE   W01
 BYTE   W02
 BYTE   W01
 BYTE   W02
 BYTE   W01
 BYTE   W03
 BYTE   W03
 BYTE   W03
 BYTE   W03
 BYTE   W03
 BYTE   W03
 BYTE   W02
 BYTE   W01
 BYTE   W02
 BYTE   W01
 BYTE   W02
 BYTE   W01
 BYTE   W02
 BYTE   W01
 BYTE   W02
 BYTE   W02
 BYTE   N05  As4
 BYTE   W06
 BYTE   N44  Fn4
 BYTE   W08
 BYTE   W03
 BYTE   W03
 BYTE   W03
 BYTE   W03
 BYTE   W03
 BYTE   W01
 BYTE   W02
 BYTE   W01
 BYTE   W02
 BYTE   W01
 BYTE   W02
 BYTE   W01
 BYTE   W02
 BYTE   W01
 BYTE   W02
 BYTE   W01
 BYTE   W02
 BYTE   W01
 BYTE   W02
 BYTE   W01
 BYTE   W02
 BYTE   W01
//  #05 //015   ----------------------------------------
 BYTE   W02
 BYTE   W01
 BYTE   W02
 BYTE   W03
 BYTE   W03
 BYTE   W03
 BYTE   W03
 BYTE   W03
 BYTE   W01
 BYTE   W02
 BYTE   W01
 BYTE   N23
 BYTE   W02
 BYTE   W01
 BYTE   W02
 BYTE   W01
 BYTE   W02
 BYTE   W01
 BYTE   W02
 BYTE   W01
 BYTE   W01
 BYTE   W03
 BYTE   W03
 BYTE   W03
 BYTE   W02
 BYTE   N17  Gn4
 BYTE   W18
 BYTE   Gs4
 BYTE   W18
 BYTE   N11  As4
 BYTE   W12
//  #05 //016   ----------------------------------------
 BYTE   N17  Gn4
 BYTE   W02
 BYTE   W01
 BYTE   W01
 BYTE   W01
 BYTE   W01
 BYTE   W01
 BYTE   W01
 BYTE   W02
 BYTE   W01
 BYTE   W02
 BYTE   W01
 BYTE   W02
 BYTE   W01
 BYTE   W01
 BYTE   N05  Fn4
 BYTE   W01
 BYTE   W01
 BYTE   W02
 BYTE   W01
 BYTE   W01
 BYTE   TIE  Gn4
 BYTE   W01
 BYTE   W01
 BYTE   W01
 BYTE   W01
 BYTE   W01
 BYTE   W01
 BYTE   W01
 BYTE   W18
 BYTE   W02
 BYTE   W01
 BYTE   W02
 BYTE   W01
 BYTE   W03
 BYTE   W03
 BYTE   W03
 BYTE   W03
 BYTE   W03
 BYTE   W03
 BYTE   W03
 BYTE   W03
 BYTE   W03
 BYTE   W03
 BYTE   W03
 BYTE   W03
 BYTE   W03
 BYTE   W02
//  #05 //017   ----------------------------------------
 BYTE   W01
 BYTE   W03
 BYTE   W03
 BYTE   W03
 BYTE   W03
 BYTE   W01
 BYTE   W03
 BYTE   W03
 BYTE   W03
 BYTE   W03
 BYTE   W03
 BYTE   W03
 BYTE   W03
 BYTE   W03
 BYTE   W03
 BYTE   W03
 BYTE   W03
 BYTE   W03
 BYTE   W03
 BYTE   W03
 BYTE   W03
 BYTE   W03
 BYTE   W03
 BYTE   W03
 BYTE   W03
 BYTE   W03
 BYTE   W03
 BYTE   EOT
 BYTE   W03
 BYTE   W03
 BYTE   W01
 BYTE   W12
//  #05 //018   ----------------------------------------
 BYTE   W64
 BYTE   W01
 BYTE   W30
 BYTE   W01
//  #05 //019   ----------------------------------------
 BYTE   W44
 BYTE   W01
 BYTE   W48
 BYTE   W03
//  #05 //020   ----------------------------------------
 BYTE   W24
 BYTE   W02
 BYTE   W68
 BYTE   W02
//  #05 //021   ----------------------------------------
 BYTE   W07
 BYTE   W76
 BYTE   W01
 BYTE   W12
//  #05 //022   ----------------------------------------
 BYTE   W64
 BYTE   W32
//  #05 //023   ----------------------------------------
 BYTE   W44
 BYTE   W01
 BYTE   W48
 BYTE   W03
//  #05 //024   ----------------------------------------
 BYTE   W24
 BYTE   W02
 BYTE   W01
 BYTE   W01
 BYTE   W01
 BYTE   W01
 BYTE   W01
 BYTE   W01
 BYTE   W01
 BYTE   W01
 BYTE   W01
 BYTE   W01
 BYTE   W01
 BYTE   W01
 BYTE   W01
 BYTE   W01
 BYTE   W01
 BYTE   W01
 BYTE   N02  As4  v084
 BYTE   W01
 BYTE   W02
 BYTE   Bn4
 BYTE   W01
 BYTE   W02
 BYTE   N17  Cn5  v108
 BYTE   W01
 BYTE   W01
 BYTE   W01
 BYTE   W01
 BYTE   W07
 BYTE   W01
 BYTE   W02
 BYTE   W01
 BYTE   W02
 BYTE   W01
 BYTE   N05  Dn5
 BYTE   W06
 BYTE   TIE  Cn5
 BYTE   W02
 BYTE   W01
 BYTE   W02
 BYTE   W01
 BYTE   W02
 BYTE   W01
 BYTE   W02
 BYTE   W01
 BYTE   W02
 BYTE   W03
 BYTE   W03
 BYTE   W03
 BYTE   W01
//  #05 //025   ----------------------------------------
 BYTE   W02
 BYTE   W03
 BYTE   W03
 BYTE   W03
 BYTE   W03
 BYTE   W03
 BYTE   W03
 BYTE   W03
 BYTE   W03
 BYTE   W03
 BYTE   W03
 BYTE   W03
 BYTE   W03
 BYTE   W03
 BYTE   W03
 BYTE   W01
 BYTE   W01
 BYTE   W02
 BYTE   W01
 BYTE   W02
 BYTE   W01
 BYTE   W02
 BYTE   W01
 BYTE   W02
 BYTE   W01
 BYTE   W02
 BYTE   W01
 BYTE   W02
 BYTE   W01
 BYTE   W02
 BYTE   W01
 BYTE   W02
 BYTE   W01
 BYTE   W02
 BYTE   W01
 BYTE   W02
 BYTE   W01
 BYTE   W02
 BYTE   W01
 BYTE   W02
 BYTE   W01
 BYTE   W02
 BYTE   W01
 BYTE   W02
 BYTE   W01
 BYTE   W02
 BYTE   W01
 BYTE   EOT
 BYTE   W02
 BYTE   W01
 BYTE   W02
//  #05 //026   ----------------------------------------
 BYTE   W01
 BYTE   W48
 BYTE   W03
 BYTE   W24
 BYTE   W02
 BYTE   W18
//  #05 //027   ----------------------------------------
 BYTE   W08
 BYTE   W24
 BYTE   W01
 BYTE   W24
 BYTE   W02
 BYTE   W24
 BYTE   W02
 BYTE   W11
//  #05 //028   ----------------------------------------
 BYTE   W14
 BYTE   W24
 BYTE   W02
 BYTE   W24
 BYTE   W01
 BYTE   W24
 BYTE   W02
 BYTE   W05
//  #05 //029   ----------------------------------------
 BYTE   W21
 BYTE   W24
 BYTE   W01
 BYTE   W24
 BYTE   W02
 BYTE   W24
//  #05 //030   ----------------------------------------
 BYTE   W01
 BYTE   W24
 BYTE   W02
 BYTE   W24
 BYTE   W02
 BYTE   W24
 BYTE   W01
 BYTE   W18
//  #05 //031   ----------------------------------------
 BYTE   W08
 BYTE   W24
 BYTE   W01
 BYTE   W24
 BYTE   W02
 BYTE   W24
 BYTE   W02
 BYTE   W11
//  #05 //032   ----------------------------------------
 BYTE   W14
 BYTE   W24
 BYTE   W02
 BYTE   W24
 BYTE   W02
 BYTE   W24
 BYTE   W01
 BYTE   W05
//  #05 //033   ----------------------------------------
 BYTE   W21
 BYTE   W24
 BYTE   W01
 BYTE   W24
 BYTE   W02
 BYTE   W18
 BYTE   N01  Dn5  v036
 BYTE   W02
 BYTE   Ds5  v056
 BYTE   W02
 BYTE   En5  v068
 BYTE   W02
//  #05 //034   ----------------------------------------
 BYTE   N17  Fn5  v092
 BYTE   W01
 BYTE   W01
 BYTE   W01
 BYTE   W01
 BYTE   W02
 BYTE   W01
 BYTE   W02
 BYTE   W02
 BYTE   W01
 BYTE   W02
 BYTE   W01
 BYTE   W02
 BYTE   W01
 BYTE   N05  Gn5
 BYTE   W06
 BYTE   N11  Fn5
 BYTE   W12
 BYTE   N23  Ds5  v100
 BYTE   W02
 BYTE   W01
 BYTE   W01
 BYTE   W01
 BYTE   W02
 BYTE   W01
 BYTE   W02
 BYTE   W01
 BYTE   W02
 BYTE   W01
 BYTE   W02
 BYTE   W01
 BYTE   W02
 BYTE   W01
 BYTE   W02
 BYTE   W01
 BYTE   W02
 BYTE   W01
 BYTE   W02
 BYTE   W01
 BYTE   W02
 BYTE   W01
 BYTE   W02
 BYTE   W01
 BYTE   W01
 BYTE   N17  Dn5
 BYTE   W01
 BYTE   W01
 BYTE   W01
 BYTE   W01
 BYTE   W02
 BYTE   W01
 BYTE   W02
 BYTE   W01
 BYTE   W02
 BYTE   W01
 BYTE   W01
 BYTE   W01
 BYTE   W01
 BYTE   W01
 BYTE   W01
 BYTE   N05  Ds5
 BYTE   W06
//  #05 //035   ----------------------------------------
 BYTE   N11  Dn5
 BYTE   W01
 BYTE   W02
 BYTE   W01
 BYTE   W02
 BYTE   W02
 BYTE   W01
 BYTE   W02
 BYTE   W01
 BYTE   N52  Cn5
 BYTE   W02
 BYTE   W02
 BYTE   W01
 BYTE   W02
 BYTE   W01
 BYTE   W03
 BYTE   W03
 BYTE   W03
 BYTE   W03
 BYTE   W03
 BYTE   W03
 BYTE   W03
 BYTE   W01
 BYTE   W02
 BYTE   W01
 BYTE   W02
 BYTE   W01
 BYTE   W02
 BYTE   W01
 BYTE   W02
 BYTE   W01
 BYTE   W02
 BYTE   W01
 BYTE   W02
 BYTE   W01
 BYTE   W02
 BYTE   W01
 BYTE   W02
 BYTE   W01
 BYTE   W02
 BYTE   W01
 BYTE   W01
 BYTE   W01
 BYTE   W01
 BYTE   N11  Dn5
 BYTE   W03
 BYTE   W03
 BYTE   W03
 BYTE   W03
 BYTE   Ds5
 BYTE   W03
 BYTE   W03
 BYTE   W03
 BYTE   W03
//  #05 //036   ----------------------------------------
 BYTE   N17  Fn5  v092
 BYTE   W01
 BYTE   W01
 BYTE   W01
 BYTE   W13
 BYTE   W01
 BYTE   W01
 BYTE   N05  Gn5
 BYTE   W06
 BYTE   N11  Fn5
 BYTE   W03
 BYTE   W03
 BYTE   W03
 BYTE   W03
 BYTE   N28  Ds5  v100
 BYTE   W01
 BYTE   W02
 BYTE   W01
 BYTE   W02
 BYTE   W01
 BYTE   W01
 BYTE   W03
 BYTE   W03
 BYTE   W03
 BYTE   W01
 BYTE   W02
 BYTE   W01
 BYTE   W02
 BYTE   W01
 BYTE   W02
 BYTE   W02
 BYTE   W01
 BYTE   W01
 BYTE   N01  Fn5  v048
 BYTE   W01
 BYTE   W01
 BYTE   Gn5  v064
 BYTE   W02
 BYTE   Gs5  v072
 BYTE   W01
 BYTE   W01
 BYTE   N23  As5  v084
 BYTE   W01
 BYTE   W01
 BYTE   W02
 BYTE   W01
 BYTE   W02
 BYTE   W02
 BYTE   W01
 BYTE   W02
 BYTE   W01
 BYTE   W02
 BYTE   W01
 BYTE   W02
 BYTE   W01
 BYTE   W02
 BYTE   W01
 BYTE   W02
//  #05 //037   ----------------------------------------
 BYTE   N05  Gs5  v092
 BYTE   W06
 BYTE   Gn5
 BYTE   W06
 BYTE   N72  Ds5  v100
 BYTE   W01
 BYTE   W01
 BYTE   W01
 BYTE   W01
 BYTE   W01
 BYTE   W01
 BYTE   W01
 BYTE   W03
 BYTE   W03
 BYTE   W03
 BYTE   W03
 BYTE   W03
 BYTE   W03
 BYTE   W03
 BYTE   W03
 BYTE   W02
 BYTE   W03
 BYTE   W03
 BYTE   W03
 BYTE   W03
 BYTE   W03
 BYTE   W03
 BYTE   W03
 BYTE   W03
 BYTE   W03
 BYTE   W03
 BYTE   W03
 BYTE   W02
 BYTE   W01
 BYTE   W02
 BYTE   W01
 BYTE   W02
 BYTE   W01
 BYTE   W02
 BYTE   W01
 BYTE   W02
 BYTE   W01
 BYTE   W02
 BYTE   W01
//  #05 //038   ----------------------------------------
 BYTE   N44  Gn3  v108
 BYTE   W01
 BYTE   W01
 BYTE   W01
 BYTE   W01
 BYTE   W01
 BYTE   W01
 BYTE   W01
 BYTE   W01
 BYTE   W01
 BYTE   W01
 BYTE   W01
 BYTE   W01
 BYTE   W01
 BYTE   W01
 BYTE   W01
 BYTE   W01
 BYTE   W03
 BYTE   W03
 BYTE   W03
 BYTE   W03
 BYTE   W03
 BYTE   W01
 BYTE   W01
 BYTE   W01
 BYTE   W01
 BYTE   W01
 BYTE   W01
 BYTE   W01
 BYTE   W01
 BYTE   W01
 BYTE   W01
 BYTE   W01
 BYTE   W01
 BYTE   W01
 BYTE   W01
 BYTE   W01
 BYTE   W01
 BYTE   W01
 BYTE   N36  Dn4
 BYTE   W01
 BYTE   W01
 BYTE   W01
 BYTE   W01
 BYTE   W01
 BYTE   W01
 BYTE   W01
 BYTE   W01
 BYTE   W01
 BYTE   W01
 BYTE   W01
 BYTE   W01
 BYTE   W07
 BYTE   W02
 BYTE   W01
 BYTE   W02
 BYTE   W01
 BYTE   W02
 BYTE   W01
 BYTE   W02
 BYTE   W10
 BYTE   N03  Cs4
 BYTE   W04
 BYTE   Cn4
 BYTE   W04
//  #05 //039   ----------------------------------------
 BYTE   N80  Bn3
 BYTE   W04
 BYTE   W03
 BYTE   W03
 BYTE   W03
 BYTE   W03
 BYTE   W03
 BYTE   W03
 BYTE   W03
 BYTE   W03
 BYTE   W03
 BYTE   W03
 BYTE   W03
 BYTE   W03
 BYTE   W03
 BYTE   W03
 BYTE   W01
 BYTE   W02
 BYTE   W01
 BYTE   W02
 BYTE   W01
 BYTE   W02
 BYTE   W01
 BYTE   W02
 BYTE   W01
 BYTE   W02
 BYTE   W01
 BYTE   W02
 BYTE   W01
 BYTE   W02
 BYTE   W01
 BYTE   W02
 BYTE   W01
 BYTE   W02
 BYTE   W01
 BYTE   W02
 BYTE   W01
 BYTE   W02
 BYTE   W01
 BYTE   W02
 BYTE   W01
 BYTE   W02
 BYTE   W07
 BYTE   W01
 BYTE   W03
//  #05 //040   ----------------------------------------
 BYTE   GoTo
  POIN2 Label_01261012
 BYTE   FINE

//**************** Track 6 (Midi-Chn.5) ****************//

EndlessBattle_006:
//  #06 //000   ----------------------------------------
 BYTE   KEYSH   EndlessBattle_key+0
 BYTE   VOICE   62
 BYTE   VOL   37*EndlessBattle_mvl/mxv
 BYTE   PAN   c_v-10
 BYTE   BEND   c_v+0
 BYTE   N11  Gn6  v072
 BYTE   W12
 BYTE   Gn6  v040
 BYTE   W12
 BYTE   Gn6  v016
 BYTE   W12
 BYTE   Gn6  v092
 BYTE   W12
 BYTE   Gn6  v060
 BYTE   W12
 BYTE   Gn6  v036
 BYTE   W12
 BYTE   Gn6  v092
 BYTE   W12
 BYTE   Gn6  v076
 BYTE   W12
//  #06 //001   ----------------------------------------
Label_012615A3:
 BYTE   N11  Gn6  v108
 BYTE   W12
 BYTE   Gn6  v076
 BYTE   W12
 BYTE   Gn6  v052
 BYTE   W12
 BYTE   Gn6  v108
 BYTE   W12
 BYTE   Gn6  v076
 BYTE   W12
 BYTE   Gn6  v052
 BYTE   W12
 BYTE   Gn6  v108
 BYTE   W12
 BYTE   Gn6  v076
 BYTE   W12
 BYTE   PEND 
//  #06 //002   ----------------------------------------
Label_012615BD:
 BYTE   W96
//  #06 //003   ----------------------------------------
 BYTE   W96
//  #06 //004   ----------------------------------------
 BYTE   W96
//  #06 //005   ----------------------------------------
 BYTE   W96
//  #06 //006   ----------------------------------------
 BYTE   W96
//  #06 //007   ----------------------------------------
 BYTE   W96
//  #06 //008   ----------------------------------------
 BYTE   W96
//  #06 //009   ----------------------------------------
 BYTE   W96
//  #06 //010   ----------------------------------------
 BYTE   N44  Gn3  v096
 BYTE   W03
 BYTE   W03
 BYTE   W03
 BYTE   W03
 BYTE   W03
 BYTE   W03
 BYTE   W03
 BYTE   W03
 BYTE   W03
 BYTE   W03
 BYTE   W03
 BYTE   W03
 BYTE   W03
 BYTE   W03
 BYTE   W03
 BYTE   W03
 BYTE   Cn4
 BYTE   W03
 BYTE   W03
 BYTE   W03
 BYTE   W03
 BYTE   W03
 BYTE   W03
 BYTE   W03
 BYTE   W03
 BYTE   W03
 BYTE   W03
 BYTE   W03
 BYTE   W03
 BYTE   W03
 BYTE   W03
 BYTE   W03
 BYTE   W03
//  #06 //011   ----------------------------------------
 BYTE   As3
 BYTE   W06
 BYTE   W04
 BYTE   W03
 BYTE   W03
 BYTE   W03
 BYTE   W04
 BYTE   W03
 BYTE   W03
 BYTE   W03
 BYTE   W03
 BYTE   W04
 BYTE   W03
 BYTE   W03
 BYTE   W03
 BYTE   Fn3
 BYTE   W04
 BYTE   W03
 BYTE   W03
 BYTE   W03
 BYTE   W03
 BYTE   W04
 BYTE   W03
 BYTE   W03
 BYTE   W03
 BYTE   W04
 BYTE   W03
 BYTE   W03
 BYTE   W03
 BYTE   W03
 BYTE   W03
//  #06 //012   ----------------------------------------
 BYTE   N32
 BYTE   W01
 BYTE   W03
 BYTE   W03
 BYTE   W03
 BYTE   W04
 BYTE   W01
 BYTE   W02
 BYTE   W01
 BYTE   W02
 BYTE   W01
 BYTE   W02
 BYTE   W01
 BYTE   W02
 BYTE   W01
 BYTE   W02
 BYTE   W01
 BYTE   W02
 BYTE   W01
 BYTE   W02
 BYTE   W01
 BYTE   N02  Gn3
 BYTE   W02
 BYTE   W01
 BYTE   An3
 BYTE   W02
 BYTE   W01
 BYTE   As3
 BYTE   W02
 BYTE   W01
 BYTE   Cn4
 BYTE   W02
 BYTE   W01
 BYTE   N17  Dn4
 BYTE   W18
 BYTE   Ds4
 BYTE   W12
 BYTE   W06
 BYTE   N11  Fn4
 BYTE   W09
 BYTE   W03
//  #06 //013   ----------------------------------------
 BYTE   N17  Gn4
 BYTE   W12
 BYTE   W06
 BYTE   N05  Fn4
 BYTE   W06
 BYTE   N68  Cn4
 BYTE   W03
 BYTE   W03
 BYTE   W03
 BYTE   W03
 BYTE   W03
 BYTE   W03
 BYTE   W03
 BYTE   W03
 BYTE   W03
 BYTE   W03
 BYTE   W03
 BYTE   W03
 BYTE   W03
 BYTE   W03
 BYTE   W01
 BYTE   W02
 BYTE   W01
 BYTE   W02
 BYTE   W01
 BYTE   W02
 BYTE   W01
 BYTE   W02
 BYTE   W01
 BYTE   W02
 BYTE   W01
 BYTE   W02
 BYTE   W01
 BYTE   W02
 BYTE   W01
 BYTE   W02
 BYTE   W01
 BYTE   W02
 BYTE   W01
 BYTE   W02
//  #06 //014   ----------------------------------------
 BYTE   N44  Gs3
 BYTE   W01
 BYTE   W02
 BYTE   W01
 BYTE   W02
 BYTE   W01
 BYTE   W02
 BYTE   W01
 BYTE   W02
 BYTE   W01
 BYTE   W02
 BYTE   W01
 BYTE   W02
 BYTE   W01
 BYTE   W02
 BYTE   W01
 BYTE   W04
 BYTE   W04
 BYTE   W04
 BYTE   W04
 BYTE   W04
 BYTE   W04
 BYTE   W02
 BYTE   N36  Cn4
 BYTE   W08
 BYTE   W06
 BYTE   W05
 BYTE   W06
 BYTE   W05
 BYTE   W06
 BYTE   W03
 BYTE   N02  Dn4  v104
 BYTE   W02
 BYTE   W01
 BYTE   Ds4
 BYTE   W03
 BYTE   En4
 BYTE   W01
 BYTE   W02
//  #06 //015   ----------------------------------------
 BYTE   N44  Fn4  v096
 BYTE   W30
 BYTE   W07
 BYTE   W03
 BYTE   W03
 BYTE   W04
 BYTE   W01
 BYTE   Cn4
 BYTE   W02
 BYTE   W03
 BYTE   W03
 BYTE   W04
 BYTE   W03
 BYTE   W03
 BYTE   W04
 BYTE   W03
 BYTE   W03
 BYTE   W03
 BYTE   W04
 BYTE   W03
 BYTE   W03
 BYTE   W04
 BYTE   W03
//  #06 //016   ----------------------------------------
 BYTE   N44
 BYTE   W03
 BYTE   W09
 BYTE   W04
 BYTE   W04
 BYTE   W04
 BYTE   W04
 BYTE   W04
 BYTE   W04
 BYTE   W04
 BYTE   W05
 BYTE   W03
 BYTE   N17  An3
 BYTE   W01
 BYTE   W04
 BYTE   W04
 BYTE   W04
 BYTE   W04
 BYTE   W01
 BYTE   N02  As3
 BYTE   W03
 BYTE   Bn3
 BYTE   W03
 BYTE   N23  Cn4
 BYTE   W02
 BYTE   W04
 BYTE   W04
 BYTE   W04
 BYTE   W04
 BYTE   W04
 BYTE   W02
//  #06 //017   ----------------------------------------
 BYTE   N48
 BYTE   W02
 BYTE   W06
 BYTE   W06
 BYTE   W06
 BYTE   W05
 BYTE   W06
 BYTE   W06
 BYTE   W06
 BYTE   W05
 BYTE   N30  Bn3
 BYTE   W02
 BYTE   W01
 BYTE   W02
 BYTE   W01
 BYTE   W02
 BYTE   W01
 BYTE   W02
 BYTE   W01
 BYTE   W02
 BYTE   W01
 BYTE   W02
 BYTE   W01
 BYTE   W02
 BYTE   W01
 BYTE   W01
 BYTE   W02
 BYTE   W01
 BYTE   W02
 BYTE   W01
 BYTE   W02
 BYTE   W01
 BYTE   W02
 BYTE   W01
 BYTE   W02
 BYTE   W01
 BYTE   W02
 BYTE   W01
 BYTE   W01
 BYTE   W01
 BYTE   W03
 BYTE   W03
//  #06 //018   ----------------------------------------
 BYTE   N44  Gn3  v127
 BYTE   W03
 BYTE   W03
 BYTE   W03
 BYTE   W03
 BYTE   W03
 BYTE   W03
 BYTE   W03
 BYTE   W03
 BYTE   W03
 BYTE   W03
 BYTE   W03
 BYTE   W03
 BYTE   W12
 BYTE   Cn4
 BYTE   W04
 BYTE   W03
 BYTE   W03
 BYTE   W03
 BYTE   W03
 BYTE   W03
 BYTE   W03
 BYTE   W02
 BYTE   W03
 BYTE   W03
 BYTE   W03
 BYTE   W03
 BYTE   W03
 BYTE   W03
 BYTE   W03
 BYTE   W03
//  #06 //019   ----------------------------------------
 BYTE   W15
 BYTE   W01
 BYTE   W02
 BYTE   W01
 BYTE   W02
 BYTE   W03
 BYTE   N23
 BYTE   W03
 BYTE   W03
 BYTE   W03
 BYTE   W03
 BYTE   W03
 BYTE   W03
 BYTE   W03
 BYTE   W03
 BYTE   Dn4
 BYTE   W24
 BYTE   As3
 BYTE   W24
//  #06 //020   ----------------------------------------
 BYTE   N44  Gn3
 BYTE   W05
 BYTE   W03
 BYTE   W03
 BYTE   W03
 BYTE   W03
 BYTE   W03
 BYTE   W03
 BYTE   W02
 BYTE   W03
 BYTE   W03
 BYTE   W03
 BYTE   W03
 BYTE   W03
 BYTE   W03
 BYTE   W03
 BYTE   W02
 BYTE   N32  Ds3
 BYTE   W01
 BYTE   W32
 BYTE   W03
 BYTE   N05  Fn3
 BYTE   W06
 BYTE   Gn3
 BYTE   W06
//  #06 //021   ----------------------------------------
 BYTE   N44  Fn3
 BYTE   W01
 BYTE   W05
 BYTE   W05
 BYTE   W04
 BYTE   W05
 BYTE   W05
 BYTE   W05
 BYTE   W04
 BYTE   W05
 BYTE   W03
 BYTE   W03
 BYTE   W03
 BYTE   W03
 BYTE   W03
 BYTE   W02
 BYTE   W02
 BYTE   W01
 BYTE   W01
 BYTE   N23  Cn3
 BYTE   W01
 BYTE   W01
 BYTE   W02
 BYTE   W01
 BYTE   W02
 BYTE   W01
 BYTE   W02
 BYTE   W01
 BYTE   W02
 BYTE   W11
 BYTE   N11  Dn3
 BYTE   W12
//  #06 //022   ----------------------------------------
 BYTE   N44  Ds3
 BYTE   W48
 BYTE   N23  Fn3
 BYTE   W24
 BYTE   Gn3
 BYTE   W24
//  #06 //023   ----------------------------------------
 BYTE   N44  As3
 BYTE   W06
 BYTE   W03
 BYTE   W03
 BYTE   W03
 BYTE   W03
 BYTE   W03
 BYTE   W01
 BYTE   W03
 BYTE   W03
 BYTE   W03
 BYTE   W03
 BYTE   W03
 BYTE   W03
 BYTE   W03
 BYTE   W03
 BYTE   W02
 BYTE   N17  Fn3
 BYTE   W01
 BYTE   W01
 BYTE   W16
 BYTE   Gn3
 BYTE   W18
 BYTE   N11  As3
 BYTE   W12
//  #06 //024   ----------------------------------------
 BYTE   N17  Cn4
 BYTE   W18
 BYTE   N05  Dn4
 BYTE   W06
 BYTE   TIE  Cn4
 BYTE   W02
 BYTE   W03
 BYTE   W03
 BYTE   W03
 BYTE   W03
 BYTE   W03
 BYTE   W03
 BYTE   W03
 BYTE   W03
 BYTE   W03
 BYTE   W03
 BYTE   W08
 BYTE   W04
 BYTE   W04
 BYTE   W04
 BYTE   W04
 BYTE   W04
 BYTE   W04
 BYTE   W05
 BYTE   W03
//  #06 //025   ----------------------------------------
 BYTE   W01
 BYTE   W04
 BYTE   W04
 BYTE   W04
 BYTE   W04
 BYTE   W04
 BYTE   W03
 BYTE   W03
 BYTE   W03
 BYTE   W03
 BYTE   W03
 BYTE   W03
 BYTE   W03
 BYTE   W03
 BYTE   W03
 BYTE   W03
 BYTE   W03
 BYTE   W03
 BYTE   W03
 BYTE   W03
 BYTE   W03
 BYTE   W03
 BYTE   W02
 BYTE   EOT
 BYTE   W01
 BYTE   W03
 BYTE   W03
 BYTE   W03
 BYTE   W03
 BYTE   W03
 BYTE   W03
 BYTE   W01
 BYTE   W03
 BYTE   W02
//  #06 //026   ----------------------------------------
 BYTE   N24  Cn3  v104
 BYTE   W01
 BYTE   W03
 BYTE   W03
 BYTE   W03
 BYTE   W03
 BYTE   W03
 BYTE   W03
 BYTE   W03
 BYTE   W02
 BYTE   Ds3
 BYTE   W01
 BYTE   W03
 BYTE   W03
 BYTE   W03
 BYTE   W03
 BYTE   W03
 BYTE   W03
 BYTE   W03
 BYTE   W01
 BYTE   W01
 BYTE   Gs3
 BYTE   W02
 BYTE   W03
 BYTE   W03
 BYTE   W03
 BYTE   W03
 BYTE   W03
 BYTE   W03
 BYTE   W03
 BYTE   W01
 BYTE   Cn4
 BYTE   W02
 BYTE   W03
 BYTE   W03
 BYTE   W03
 BYTE   W03
 BYTE   W03
 BYTE   W03
 BYTE   W04
//  #06 //027   ----------------------------------------
 BYTE   N48  Dn4
 BYTE   W30
 BYTE   W17
 BYTE   W01
 BYTE   As3
 BYTE   W16
 BYTE   W17
 BYTE   W15
//  #06 //028   ----------------------------------------
 BYTE   Gn4
 BYTE   W02
 BYTE   W02
 BYTE   W01
 BYTE   W02
 BYTE   W01
 BYTE   W02
 BYTE   W01
 BYTE   W02
 BYTE   W01
 BYTE   W02
 BYTE   W07
 BYTE   W03
 BYTE   W04
 BYTE   W03
 BYTE   W04
 BYTE   W03
 BYTE   W04
 BYTE   W03
 BYTE   W01
 BYTE   N24  Fn4  v080
 BYTE   W02
 BYTE   W04
 BYTE   W03
 BYTE   W04
 BYTE   W03
 BYTE   W03
 BYTE   W03
 BYTE   W02
 BYTE   Ds4
 BYTE   W01
 BYTE   W03
 BYTE   W03
 BYTE   W03
 BYTE   W03
 BYTE   W03
 BYTE   W03
 BYTE   W03
 BYTE   W02
//  #06 //029   ----------------------------------------
 BYTE   N96  Cn4  v104
 BYTE   W01
 BYTE   W03
 BYTE   W03
 BYTE   W02
 BYTE   W01
 BYTE   W02
 BYTE   W01
 BYTE   W02
 BYTE   W01
 BYTE   W02
 BYTE   W01
 BYTE   W02
 BYTE   W01
 BYTE   W02
 BYTE   W01
 BYTE   W02
 BYTE   W01
 BYTE   W02
 BYTE   W01
 BYTE   W02
 BYTE   W01
 BYTE   W02
 BYTE   W01
 BYTE   W02
 BYTE   W01
 BYTE   W02
 BYTE   W01
 BYTE   W02
 BYTE   W01
 BYTE   W02
 BYTE   W01
 BYTE   W01
 BYTE   W03
 BYTE   W03
 BYTE   W03
 BYTE   W03
 BYTE   W03
 BYTE   W03
 BYTE   W03
 BYTE   W03
 BYTE   W03
 BYTE   W03
 BYTE   W03
 BYTE   W03
 BYTE   W03
 BYTE   W03
 BYTE   W03
 BYTE   W01
//  #06 //030   ----------------------------------------
 BYTE   W02
 BYTE   W03
 BYTE   W03
 BYTE   W02
 BYTE   W03
 BYTE   W03
 BYTE   W03
 BYTE   W03
 BYTE   W02
 BYTE   N48  Ds3
 BYTE   W01
 BYTE   W03
 BYTE   W03
 BYTE   W03
 BYTE   W03
 BYTE   W03
 BYTE   W03
 BYTE   W03
 BYTE   W03
 BYTE   W03
 BYTE   W03
 BYTE   W03
 BYTE   W03
 BYTE   W03
 BYTE   W03
 BYTE   W03
 BYTE   W02
 BYTE   Fn3
 BYTE   W24
//  #06 //031   ----------------------------------------
 BYTE   W10
 BYTE   W14
 BYTE   N24  Gn3
 BYTE   W04
 BYTE   W19
 BYTE   W01
 BYTE   Gs3
 BYTE   W17
 BYTE   W07
 BYTE   Cn4
 BYTE   W11
 BYTE   W13
//  #06 //032   ----------------------------------------
 BYTE   N72  Dn4
 BYTE   W05
 BYTE   W01
 BYTE   W02
 BYTE   W01
 BYTE   W02
 BYTE   W01
 BYTE   W02
 BYTE   W01
 BYTE   W02
 BYTE   W01
 BYTE   W02
 BYTE   W01
 BYTE   W01
 BYTE   W08
 BYTE   W04
 BYTE   W04
 BYTE   W04
 BYTE   W04
 BYTE   W04
 BYTE   W04
 BYTE   W04
 BYTE   W04
 BYTE   W03
 BYTE   W03
 BYTE   W03
 BYTE   W01
 BYTE   N24  Fn4
 BYTE   W02
 BYTE   W03
 BYTE   W02
 BYTE   W03
 BYTE   W03
 BYTE   W03
 BYTE   W03
 BYTE   W03
 BYTE   W02
//  #06 //033   ----------------------------------------
 BYTE   N96  Dn4
 BYTE   W03
 BYTE   W03
 BYTE   W03
 BYTE   W01
 BYTE   W02
 BYTE   W01
 BYTE   W02
 BYTE   W01
 BYTE   W02
 BYTE   W01
 BYTE   W02
 BYTE   W01
 BYTE   W02
 BYTE   W01
 BYTE   W02
 BYTE   W01
 BYTE   W02
 BYTE   W01
 BYTE   W02
 BYTE   W01
 BYTE   W02
 BYTE   W01
 BYTE   W02
 BYTE   W01
 BYTE   W02
 BYTE   W01
 BYTE   W02
 BYTE   W01
 BYTE   W02
 BYTE   W01
 BYTE   W02
 BYTE   W01
 BYTE   W02
 BYTE   W01
 BYTE   W02
 BYTE   W01
 BYTE   W02
 BYTE   W01
 BYTE   W02
 BYTE   W01
 BYTE   W02
 BYTE   W01
 BYTE   W02
 BYTE   W03
 BYTE   W03
 BYTE   W03
 BYTE   W03
 BYTE   W01
 BYTE   W01
 BYTE   W02
 BYTE   W01
 BYTE   W02
 BYTE   W01
 BYTE   W02
 BYTE   W01
 BYTE   W02
 BYTE   W01
 BYTE   W01
//  #06 //034   ----------------------------------------
 BYTE   N36  Fn4
 BYTE   W01
 BYTE   W32
 BYTE   W03
 BYTE   N12  Ds4
 BYTE   W12
 BYTE   Ds4  v056
 BYTE   W12
 BYTE   Ds4  v040
 BYTE   W12
 BYTE   N36  Dn4  v104
 BYTE   W24
//  #06 //035   ----------------------------------------
 BYTE   W12
 BYTE   N72  Cn4
 BYTE   W04
 BYTE   W02
 BYTE   W01
 BYTE   W02
 BYTE   W01
 BYTE   W02
 BYTE   W01
 BYTE   W02
 BYTE   W01
 BYTE   W02
 BYTE   W03
 BYTE   W03
 BYTE   W03
 BYTE   W03
 BYTE   W03
 BYTE   W03
 BYTE   W03
 BYTE   W03
 BYTE   W03
 BYTE   W03
 BYTE   W03
 BYTE   W03
 BYTE   W03
 BYTE   W03
 BYTE   W03
 BYTE   W03
 BYTE   W03
 BYTE   W03
 BYTE   W03
 BYTE   W03
 BYTE   W03
 BYTE   W01
 BYTE   W02
//  #06 //036   ----------------------------------------
 BYTE   N36  Fn4
 BYTE   W36
 BYTE   N12  Ds4
 BYTE   W12
 BYTE   Ds4  v056
 BYTE   W12
 BYTE   Ds4  v040
 BYTE   W12
 BYTE   N36  Dn4  v104
 BYTE   W24
//  #06 //037   ----------------------------------------
 BYTE   W10
 BYTE   W02
 BYTE   N66  Cn4
 BYTE   W01
 BYTE   W03
 BYTE   W02
 BYTE   W03
 BYTE   W03
 BYTE   W03
 BYTE   W03
 BYTE   W03
 BYTE   W03
 BYTE   W03
 BYTE   W03
 BYTE   W03
 BYTE   W03
 BYTE   W03
 BYTE   W03
 BYTE   W03
 BYTE   W03
 BYTE   W03
 BYTE   W03
 BYTE   W01
 BYTE   W02
 BYTE   W01
 BYTE   W02
 BYTE   W01
 BYTE   W02
 BYTE   W01
 BYTE   W02
 BYTE   W01
 BYTE   W02
 BYTE   W01
 BYTE   W02
 BYTE   W01
 BYTE   W02
 BYTE   W01
 BYTE   W02
 BYTE   W01
 BYTE   W02
 BYTE   W01
 BYTE   W01
 BYTE   W01
//  #06 //038   ----------------------------------------
 BYTE   N11  Gn6  v072
 BYTE   W12
 BYTE   Gn6  v040
 BYTE   W12
 BYTE   Gn6  v016
 BYTE   W12
 BYTE   Gn6  v092
 BYTE   W12
 BYTE   Gn6  v060
 BYTE   W12
 BYTE   Gn6  v036
 BYTE   W12
 BYTE   Gn6  v092
 BYTE   W12
 BYTE   Gn6  v076
 BYTE   W12
//  #06 //039   ----------------------------------------
 BYTE   PATT
  POIN2 Label_012615A3
//  #06 //040   ----------------------------------------
 BYTE   GoTo
  POIN2 Label_012615BD
 BYTE   FINE

//**************** Track 7 (Midi-Chn.6) ****************//

EndlessBattle_007:
//  #07 //000   ----------------------------------------
 BYTE   KEYSH   EndlessBattle_key+0
 BYTE   VOICE   63
 BYTE   VOL   35*EndlessBattle_mvl/mxv
 BYTE   PAN   c_v-35
 BYTE   BEND   c_v+0
 BYTE   N11  Cn5  v072
 BYTE   W12
 BYTE   Cn5  v040
 BYTE   W12
 BYTE   Cn5  v016
 BYTE   W12
 BYTE   Cn5  v092
 BYTE   W12
 BYTE   Cn5  v060
 BYTE   W12
 BYTE   Cn5  v036
 BYTE   W12
 BYTE   Cn5  v092
 BYTE   W12
 BYTE   Cn5  v076
 BYTE   W12
//  #07 //001   ----------------------------------------
Label_0126199B:
 BYTE   N11  Bn4  v108
 BYTE   W12
 BYTE   Bn4  v076
 BYTE   W12
 BYTE   Bn4  v052
 BYTE   W12
 BYTE   Bn4  v108
 BYTE   W12
 BYTE   Bn4  v076
 BYTE   W12
 BYTE   Bn4  v052
 BYTE   W12
 BYTE   Bn4  v108
 BYTE   W12
 BYTE   Bn4  v076
 BYTE   W12
 BYTE   PEND 
//  #07 //002   ----------------------------------------
Label_012619B5:
 BYTE   W96
//  #07 //003   ----------------------------------------
 BYTE   W96
//  #07 //004   ----------------------------------------
 BYTE   W96
//  #07 //005   ----------------------------------------
 BYTE   W96
//  #07 //006   ----------------------------------------
 BYTE   W96
//  #07 //007   ----------------------------------------
 BYTE   W96
//  #07 //008   ----------------------------------------
 BYTE   W96
//  #07 //009   ----------------------------------------
 BYTE   W96
//  #07 //010   ----------------------------------------
 BYTE   N44  Cn2  v096
 BYTE   W03
 BYTE   W03
 BYTE   W03
 BYTE   W03
 BYTE   W03
 BYTE   W03
 BYTE   W03
 BYTE   W03
 BYTE   W03
 BYTE   W03
 BYTE   W03
 BYTE   W03
 BYTE   W03
 BYTE   W03
 BYTE   W03
 BYTE   W03
 BYTE   Ds2
 BYTE   W03
 BYTE   W03
 BYTE   W03
 BYTE   W03
 BYTE   W03
 BYTE   W03
 BYTE   W03
 BYTE   W03
 BYTE   W03
 BYTE   W03
 BYTE   W03
 BYTE   W03
 BYTE   W03
 BYTE   W03
 BYTE   W03
 BYTE   W03
//  #07 //011   ----------------------------------------
 BYTE   Dn2
 BYTE   W06
 BYTE   W04
 BYTE   W03
 BYTE   W03
 BYTE   W03
 BYTE   W04
 BYTE   W03
 BYTE   W03
 BYTE   W03
 BYTE   W03
 BYTE   W04
 BYTE   W03
 BYTE   W03
 BYTE   W03
 BYTE   As1
 BYTE   W04
 BYTE   W03
 BYTE   W03
 BYTE   W03
 BYTE   W03
 BYTE   W04
 BYTE   W03
 BYTE   W03
 BYTE   W03
 BYTE   W04
 BYTE   W03
 BYTE   W03
 BYTE   W03
 BYTE   W03
 BYTE   W03
//  #07 //012   ----------------------------------------
 BYTE   N32  Cn2
 BYTE   W01
 BYTE   W03
 BYTE   W03
 BYTE   W03
 BYTE   W04
 BYTE   W01
 BYTE   W02
 BYTE   W01
 BYTE   W02
 BYTE   W01
 BYTE   W02
 BYTE   W01
 BYTE   W02
 BYTE   W01
 BYTE   W02
 BYTE   W01
 BYTE   W02
 BYTE   W01
 BYTE   W02
 BYTE   W01
 BYTE   N02  Cs2
 BYTE   W02
 BYTE   W01
 BYTE   Dn2
 BYTE   W02
 BYTE   W01
 BYTE   Ds2
 BYTE   W02
 BYTE   W01
 BYTE   En2
 BYTE   W02
 BYTE   W01
 BYTE   N17  Fn2
 BYTE   W18
 BYTE   Gn2
 BYTE   W12
 BYTE   W06
 BYTE   N11  An2
 BYTE   W09
 BYTE   W03
//  #07 //013   ----------------------------------------
 BYTE   N17  Cn3
 BYTE   W12
 BYTE   W06
 BYTE   N05  Gs2
 BYTE   W06
 BYTE   N68  Ds2
 BYTE   W03
 BYTE   W03
 BYTE   W03
 BYTE   W03
 BYTE   W03
 BYTE   W03
 BYTE   W03
 BYTE   W03
 BYTE   W03
 BYTE   W03
 BYTE   W03
 BYTE   W03
 BYTE   W03
 BYTE   W03
 BYTE   W01
 BYTE   W02
 BYTE   W01
 BYTE   W02
 BYTE   W01
 BYTE   W02
 BYTE   W01
 BYTE   W02
 BYTE   W01
 BYTE   W02
 BYTE   W01
 BYTE   W02
 BYTE   W01
 BYTE   W02
 BYTE   W01
 BYTE   W02
 BYTE   W01
 BYTE   W02
 BYTE   W01
 BYTE   W02
//  #07 //014   ----------------------------------------
 BYTE   N44  Cs2
 BYTE   W01
 BYTE   W02
 BYTE   W01
 BYTE   W02
 BYTE   W01
 BYTE   W02
 BYTE   W01
 BYTE   W02
 BYTE   W01
 BYTE   W02
 BYTE   W01
 BYTE   W02
 BYTE   W01
 BYTE   W02
 BYTE   W01
 BYTE   W04
 BYTE   W04
 BYTE   W04
 BYTE   W04
 BYTE   W04
 BYTE   W04
 BYTE   W02
 BYTE   N40  Fn2
 BYTE   W08
 BYTE   W06
 BYTE   W05
 BYTE   W06
 BYTE   W05
 BYTE   W06
 BYTE   W05
 BYTE   W01
 BYTE   N02  Fs2  v104
 BYTE   W03
 BYTE   Gn2
 BYTE   W01
 BYTE   W02
//  #07 //015   ----------------------------------------
 BYTE   N44  Gs2  v096
 BYTE   W30
 BYTE   W07
 BYTE   W03
 BYTE   W03
 BYTE   W04
 BYTE   W01
 BYTE   Fn2
 BYTE   W02
 BYTE   W03
 BYTE   W03
 BYTE   W04
 BYTE   W03
 BYTE   W03
 BYTE   W04
 BYTE   W03
 BYTE   W03
 BYTE   W03
 BYTE   W04
 BYTE   W03
 BYTE   W03
 BYTE   W04
 BYTE   W03
//  #07 //016   ----------------------------------------
 BYTE   N44
 BYTE   W03
 BYTE   W09
 BYTE   W04
 BYTE   W04
 BYTE   W04
 BYTE   W04
 BYTE   W04
 BYTE   W04
 BYTE   W04
 BYTE   W05
 BYTE   W03
 BYTE   N17  Cn2
 BYTE   W01
 BYTE   W04
 BYTE   W04
 BYTE   W04
 BYTE   W04
 BYTE   W01
 BYTE   N02  Dn2
 BYTE   W03
 BYTE   En2
 BYTE   W03
 BYTE   N23  Fn2
 BYTE   W02
 BYTE   W04
 BYTE   W04
 BYTE   W04
 BYTE   W04
 BYTE   W04
 BYTE   W02
//  #07 //017   ----------------------------------------
 BYTE   N48  Gn2
 BYTE   W02
 BYTE   W06
 BYTE   W06
 BYTE   W06
 BYTE   W05
 BYTE   W06
 BYTE   W06
 BYTE   W06
 BYTE   W05
 BYTE   N30  Dn2
 BYTE   W02
 BYTE   W01
 BYTE   W02
 BYTE   W01
 BYTE   W02
 BYTE   W01
 BYTE   W02
 BYTE   W01
 BYTE   W02
 BYTE   W01
 BYTE   W02
 BYTE   W01
 BYTE   W02
 BYTE   W01
 BYTE   W01
 BYTE   W02
 BYTE   W01
 BYTE   W02
 BYTE   W01
 BYTE   W02
 BYTE   W01
 BYTE   W02
 BYTE   W01
 BYTE   W02
 BYTE   W01
 BYTE   W02
 BYTE   W01
 BYTE   W01
 BYTE   W01
 BYTE   W03
 BYTE   W03
//  #07 //018   ----------------------------------------
 BYTE   W03
 BYTE   W03
 BYTE   W03
 BYTE   W03
 BYTE   W03
 BYTE   W03
 BYTE   W03
 BYTE   W03
 BYTE   W03
 BYTE   W03
 BYTE   W03
 BYTE   W03
 BYTE   W16
 BYTE   W03
 BYTE   W03
 BYTE   W03
 BYTE   W03
 BYTE   W03
 BYTE   W03
 BYTE   W02
 BYTE   W03
 BYTE   W03
 BYTE   W03
 BYTE   W03
 BYTE   W03
 BYTE   W03
 BYTE   W03
 BYTE   W03
//  #07 //019   ----------------------------------------
 BYTE   W15
 BYTE   W01
 BYTE   W02
 BYTE   W01
 BYTE   W02
 BYTE   W03
 BYTE   W03
 BYTE   W03
 BYTE   W03
 BYTE   W03
 BYTE   W03
 BYTE   W03
 BYTE   W03
 BYTE   W48
 BYTE   W03
//  #07 //020   ----------------------------------------
 BYTE   W05
 BYTE   W03
 BYTE   W03
 BYTE   W03
 BYTE   W03
 BYTE   W03
 BYTE   W03
 BYTE   W02
 BYTE   W03
 BYTE   W03
 BYTE   W03
 BYTE   W03
 BYTE   W03
 BYTE   W03
 BYTE   W03
 BYTE   W03
 BYTE   W44
 BYTE   W03
//  #07 //021   ----------------------------------------
 BYTE   W01
 BYTE   W05
 BYTE   W05
 BYTE   W04
 BYTE   W05
 BYTE   W05
 BYTE   W05
 BYTE   W04
 BYTE   W05
 BYTE   W03
 BYTE   W03
 BYTE   W03
 BYTE   W03
 BYTE   W03
 BYTE   W02
 BYTE   W02
 BYTE   W01
 BYTE   W02
 BYTE   W01
 BYTE   W02
 BYTE   W01
 BYTE   W02
 BYTE   W01
 BYTE   W02
 BYTE   W01
 BYTE   W02
 BYTE   W23
//  #07 //022   ----------------------------------------
 BYTE   W96
//  #07 //023   ----------------------------------------
 BYTE   W06
 BYTE   W03
 BYTE   W03
 BYTE   W03
 BYTE   W03
 BYTE   W03
 BYTE   W01
 BYTE   W03
 BYTE   W03
 BYTE   W03
 BYTE   W03
 BYTE   W03
 BYTE   W03
 BYTE   W03
 BYTE   W03
 BYTE   W03
 BYTE   W01
 BYTE   W44
 BYTE   W02
//  #07 //024   ----------------------------------------
 BYTE   W24
 BYTE   W02
 BYTE   W03
 BYTE   W03
 BYTE   W03
 BYTE   W03
 BYTE   W03
 BYTE   W03
 BYTE   W03
 BYTE   W03
 BYTE   W03
 BYTE   W03
 BYTE   W08
 BYTE   W04
 BYTE   W04
 BYTE   W04
 BYTE   W04
 BYTE   W04
 BYTE   W04
 BYTE   W05
 BYTE   W03
//  #07 //025   ----------------------------------------
 BYTE   W01
 BYTE   W04
 BYTE   W04
 BYTE   W04
 BYTE   W04
 BYTE   W04
 BYTE   W03
 BYTE   W03
 BYTE   W03
 BYTE   W03
 BYTE   W03
 BYTE   W03
 BYTE   W03
 BYTE   W03
 BYTE   W03
 BYTE   W03
 BYTE   W03
 BYTE   W03
 BYTE   W03
 BYTE   W03
 BYTE   W03
 BYTE   W03
 BYTE   W03
 BYTE   W03
 BYTE   W03
 BYTE   W03
 BYTE   W03
 BYTE   W03
 BYTE   W03
 BYTE   W01
 BYTE   W03
 BYTE   W02
//  #07 //026   ----------------------------------------
 BYTE   N48  Gs1  v104
 BYTE   W01
 BYTE   W03
 BYTE   W03
 BYTE   W03
 BYTE   W03
 BYTE   W03
 BYTE   W03
 BYTE   W03
 BYTE   W03
 BYTE   W03
 BYTE   W03
 BYTE   W03
 BYTE   W03
 BYTE   W03
 BYTE   W03
 BYTE   W03
 BYTE   W01
 BYTE   W01
 BYTE   N24  Cn2
 BYTE   W02
 BYTE   W03
 BYTE   W03
 BYTE   W03
 BYTE   W03
 BYTE   W03
 BYTE   W03
 BYTE   W03
 BYTE   W01
 BYTE   Ds2
 BYTE   W02
 BYTE   W03
 BYTE   W03
 BYTE   W03
 BYTE   W03
 BYTE   W03
 BYTE   W03
 BYTE   W04
//  #07 //027   ----------------------------------------
 BYTE   N48  Fn2
 BYTE   W30
 BYTE   W17
 BYTE   W01
 BYTE   Dn2
 BYTE   W16
 BYTE   W17
 BYTE   W15
//  #07 //028   ----------------------------------------
 BYTE   N24  Fn3
 BYTE   W02
 BYTE   W02
 BYTE   W01
 BYTE   W02
 BYTE   W01
 BYTE   W02
 BYTE   W01
 BYTE   W02
 BYTE   W01
 BYTE   W02
 BYTE   W07
 BYTE   W01
 BYTE   Ds3
 BYTE   W02
 BYTE   W04
 BYTE   W03
 BYTE   W04
 BYTE   W03
 BYTE   W04
 BYTE   W03
 BYTE   W01
 BYTE   As2
 BYTE   W02
 BYTE   W04
 BYTE   W03
 BYTE   W04
 BYTE   W03
 BYTE   W03
 BYTE   W03
 BYTE   W02
 BYTE   Gn2
 BYTE   W01
 BYTE   W03
 BYTE   W03
 BYTE   W03
 BYTE   W03
 BYTE   W03
 BYTE   W03
 BYTE   W03
 BYTE   W02
//  #07 //029   ----------------------------------------
 BYTE   N48  An2
 BYTE   W01
 BYTE   W03
 BYTE   W03
 BYTE   W02
 BYTE   W01
 BYTE   W02
 BYTE   W01
 BYTE   W02
 BYTE   W01
 BYTE   W02
 BYTE   W01
 BYTE   W02
 BYTE   W01
 BYTE   W02
 BYTE   W01
 BYTE   W02
 BYTE   W01
 BYTE   W02
 BYTE   W01
 BYTE   W02
 BYTE   W01
 BYTE   W02
 BYTE   W01
 BYTE   W02
 BYTE   W01
 BYTE   W02
 BYTE   W01
 BYTE   W02
 BYTE   W01
 BYTE   W02
 BYTE   Fn2
 BYTE   W01
 BYTE   W01
 BYTE   W03
 BYTE   W03
 BYTE   W03
 BYTE   W03
 BYTE   W03
 BYTE   W03
 BYTE   W03
 BYTE   W03
 BYTE   W03
 BYTE   W03
 BYTE   W03
 BYTE   W03
 BYTE   W03
 BYTE   W03
 BYTE   W03
 BYTE   W01
//  #07 //030   ----------------------------------------
 BYTE   W02
 BYTE   W03
 BYTE   W03
 BYTE   W02
 BYTE   W03
 BYTE   W03
 BYTE   W03
 BYTE   W03
 BYTE   W02
 BYTE   Cn2
 BYTE   W01
 BYTE   W03
 BYTE   W03
 BYTE   W03
 BYTE   W03
 BYTE   W03
 BYTE   W03
 BYTE   W03
 BYTE   W03
 BYTE   W03
 BYTE   W03
 BYTE   W03
 BYTE   W03
 BYTE   W03
 BYTE   W03
 BYTE   W03
 BYTE   W02
 BYTE   Dn2
 BYTE   W24
//  #07 //031   ----------------------------------------
 BYTE   W10
 BYTE   W14
 BYTE   N24  Ds2
 BYTE   W04
 BYTE   W19
 BYTE   W01
 BYTE   Cn2
 BYTE   W17
 BYTE   W07
 BYTE   N23  Ds2
 BYTE   W11
 BYTE   W13
//  #07 //032   ----------------------------------------
 BYTE   N72  Fn2
 BYTE   W05
 BYTE   W01
 BYTE   W02
 BYTE   W01
 BYTE   W02
 BYTE   W01
 BYTE   W02
 BYTE   W01
 BYTE   W02
 BYTE   W01
 BYTE   W02
 BYTE   W01
 BYTE   W01
 BYTE   W08
 BYTE   W04
 BYTE   W04
 BYTE   W04
 BYTE   W04
 BYTE   W04
 BYTE   W04
 BYTE   W04
 BYTE   W04
 BYTE   W03
 BYTE   W03
 BYTE   W03
 BYTE   W01
 BYTE   N24  Gs2
 BYTE   W02
 BYTE   W03
 BYTE   W02
 BYTE   W03
 BYTE   W03
 BYTE   W03
 BYTE   W03
 BYTE   W03
 BYTE   W02
//  #07 //033   ----------------------------------------
 BYTE   N96  Fn2
 BYTE   W03
 BYTE   W03
 BYTE   W03
 BYTE   W01
 BYTE   W02
 BYTE   W01
 BYTE   W02
 BYTE   W01
 BYTE   W02
 BYTE   W01
 BYTE   W02
 BYTE   W01
 BYTE   W02
 BYTE   W01
 BYTE   W02
 BYTE   W01
 BYTE   W02
 BYTE   W01
 BYTE   W02
 BYTE   W01
 BYTE   W02
 BYTE   W01
 BYTE   W02
 BYTE   W01
 BYTE   W02
 BYTE   W01
 BYTE   W02
 BYTE   W01
 BYTE   W02
 BYTE   W01
 BYTE   W02
 BYTE   W01
 BYTE   W02
 BYTE   W01
 BYTE   W02
 BYTE   W01
 BYTE   W02
 BYTE   W01
 BYTE   W02
 BYTE   W01
 BYTE   W02
 BYTE   W01
 BYTE   W02
 BYTE   W03
 BYTE   W03
 BYTE   W03
 BYTE   W03
 BYTE   W01
 BYTE   W01
 BYTE   W02
 BYTE   W01
 BYTE   W02
 BYTE   W01
 BYTE   W02
 BYTE   W01
 BYTE   W02
 BYTE   W01
 BYTE   W01
//  #07 //034   ----------------------------------------
 BYTE   N36  Gn2
 BYTE   W01
 BYTE   W32
 BYTE   W03
 BYTE   N12
 BYTE   W12
 BYTE   Gn2  v056
 BYTE   W12
 BYTE   Gn2  v040
 BYTE   W12
 BYTE   N36  Fn2  v104
 BYTE   W24
//  #07 //035   ----------------------------------------
 BYTE   W12
 BYTE   N72  Ds2
 BYTE   W04
 BYTE   W02
 BYTE   W01
 BYTE   W02
 BYTE   W01
 BYTE   W02
 BYTE   W01
 BYTE   W02
 BYTE   W01
 BYTE   W02
 BYTE   W03
 BYTE   W03
 BYTE   W03
 BYTE   W03
 BYTE   W03
 BYTE   W03
 BYTE   W03
 BYTE   W03
 BYTE   W03
 BYTE   W03
 BYTE   W03
 BYTE   W03
 BYTE   W03
 BYTE   W03
 BYTE   W03
 BYTE   W03
 BYTE   W03
 BYTE   W03
 BYTE   W03
 BYTE   W03
 BYTE   W03
 BYTE   W01
 BYTE   W02
//  #07 //036   ----------------------------------------
 BYTE   N36  Gn2
 BYTE   W36
 BYTE   N12
 BYTE   W12
 BYTE   Gn2  v056
 BYTE   W12
 BYTE   Gn2  v040
 BYTE   W12
 BYTE   N36  Fn2  v104
 BYTE   W24
//  #07 //037   ----------------------------------------
 BYTE   W10
 BYTE   W02
 BYTE   N66  Ds2
 BYTE   W01
 BYTE   W03
 BYTE   W02
 BYTE   W03
 BYTE   W03
 BYTE   W03
 BYTE   W03
 BYTE   W03
 BYTE   W03
 BYTE   W03
 BYTE   W03
 BYTE   W03
 BYTE   W03
 BYTE   W03
 BYTE   W03
 BYTE   W03
 BYTE   W03
 BYTE   W03
 BYTE   W03
 BYTE   W01
 BYTE   W02
 BYTE   W01
 BYTE   W02
 BYTE   W01
 BYTE   W02
 BYTE   W01
 BYTE   W02
 BYTE   W01
 BYTE   W02
 BYTE   W01
 BYTE   W02
 BYTE   W01
 BYTE   W02
 BYTE   W01
 BYTE   W02
 BYTE   W01
 BYTE   W02
 BYTE   W01
 BYTE   W01
 BYTE   W01
//  #07 //038   ----------------------------------------
 BYTE   N11  Cn5  v072
 BYTE   W12
 BYTE   Cn5  v040
 BYTE   W12
 BYTE   Cn5  v016
 BYTE   W12
 BYTE   Cn5  v092
 BYTE   W12
 BYTE   Cn5  v060
 BYTE   W12
 BYTE   Cn5  v036
 BYTE   W12
 BYTE   Cn5  v092
 BYTE   W12
 BYTE   Cn5  v076
 BYTE   W12
//  #07 //039   ----------------------------------------
 BYTE   PATT
  POIN2 Label_0126199B
//  #07 //040   ----------------------------------------
 BYTE   GoTo
  POIN2 Label_012619B5
 BYTE   FINE

//**************** Track 8 (Midi-Chn.7) ****************//

EndlessBattle_008:
//  #08 //000   ----------------------------------------
 BYTE   KEYSH   EndlessBattle_key+0
 BYTE   VOICE   40
 BYTE   VOL   35*EndlessBattle_mvl/mxv
 BYTE   PAN   c_v+21
 BYTE   BEND   c_v+0
 BYTE   W96
//  #08 //001   ----------------------------------------
 BYTE   W96
//  #08 //002   ----------------------------------------
Label_01261D48:
 BYTE   W96
//  #08 //003   ----------------------------------------
 BYTE   W96
//  #08 //004   ----------------------------------------
 BYTE   W96
//  #08 //005   ----------------------------------------
 BYTE   W96
//  #08 //006   ----------------------------------------
 BYTE   W96
//  #08 //007   ----------------------------------------
 BYTE   W96
//  #08 //008   ----------------------------------------
 BYTE   W96
//  #08 //009   ----------------------------------------
 BYTE   W96
//  #08 //010   ----------------------------------------
 BYTE   W96
//  #08 //011   ----------------------------------------
 BYTE   W96
//  #08 //012   ----------------------------------------
 BYTE   W96
//  #08 //013   ----------------------------------------
 BYTE   W96
//  #08 //014   ----------------------------------------
 BYTE   W96
//  #08 //015   ----------------------------------------
 BYTE   W96
//  #08 //016   ----------------------------------------
 BYTE   W96
//  #08 //017   ----------------------------------------
 BYTE   W96
//  #08 //018   ----------------------------------------
 BYTE   W96
//  #08 //019   ----------------------------------------
 BYTE   W96
//  #08 //020   ----------------------------------------
 BYTE   W96
//  #08 //021   ----------------------------------------
 BYTE   W96
//  #08 //022   ----------------------------------------
 BYTE   W96
//  #08 //023   ----------------------------------------
 BYTE   W96
//  #08 //024   ----------------------------------------
 BYTE   W96
//  #08 //025   ----------------------------------------
 BYTE   W60
 BYTE   W02
 BYTE   W10
 BYTE   N03  Gn2  v108
 BYTE   W04
 BYTE   An2
 BYTE   W03
 BYTE   As2
 BYTE   W04
 BYTE   Cn3
 BYTE   W03
 BYTE   Dn3
 BYTE   W04
 BYTE   Ds3
 BYTE   W03
 BYTE   N02  Fn3
 BYTE   W03
//  #08 //026   ----------------------------------------
 BYTE   N44  Gn3
 BYTE   W07
 BYTE   W02
 BYTE   W01
 BYTE   W02
 BYTE   W01
 BYTE   W02
 BYTE   W01
 BYTE   W02
 BYTE   W01
 BYTE   W02
 BYTE   W01
 BYTE   W02
 BYTE   W01
 BYTE   W01
 BYTE   W06
 BYTE   W04
 BYTE   W03
 BYTE   W03
 BYTE   W03
 BYTE   W03
 BYTE   Ds4
 BYTE   W03
 BYTE   W03
 BYTE   W03
 BYTE   W03
 BYTE   W03
 BYTE   W03
 BYTE   W03
 BYTE   W03
 BYTE   W03
 BYTE   W03
 BYTE   W03
 BYTE   W03
 BYTE   W03
 BYTE   W09
//  #08 //027   ----------------------------------------
 BYTE   W24
 BYTE   N23  Dn4
 BYTE   W24
 BYTE   Cn4
 BYTE   W24
 BYTE   As3
 BYTE   W23
 BYTE   W01
//  #08 //028   ----------------------------------------
 BYTE   N44  Gn3
 BYTE   W02
 BYTE   W03
 BYTE   W03
 BYTE   W03
 BYTE   W03
 BYTE   W03
 BYTE   W02
 BYTE   W03
 BYTE   W03
 BYTE   W03
 BYTE   W03
 BYTE   W03
 BYTE   W03
 BYTE   W03
 BYTE   W03
 BYTE   W03
 BYTE   W02
 BYTE   N17  As3
 BYTE   W18
 BYTE   Ds3
 BYTE   W18
 BYTE   N11  Gn3
 BYTE   W12
//  #08 //029   ----------------------------------------
 BYTE   N44  Fn3
 BYTE   W01
 BYTE   W03
 BYTE   W03
 BYTE   W03
 BYTE   W03
 BYTE   W03
 BYTE   W03
 BYTE   W01
 BYTE   W03
 BYTE   W03
 BYTE   W03
 BYTE   W03
 BYTE   W03
 BYTE   W03
 BYTE   W03
 BYTE   W03
 BYTE   W03
 BYTE   W01
 BYTE   N23  Cn3
 BYTE   W24
 BYTE   Dn3
 BYTE   W24
//  #08 //030   ----------------------------------------
 BYTE   TIE  Ds3
 BYTE   W04
 BYTE   W03
 BYTE   W03
 BYTE   W03
 BYTE   W03
 BYTE   W03
 BYTE   W03
 BYTE   W03
 BYTE   W03
 BYTE   W03
 BYTE   W03
 BYTE   W03
 BYTE   W03
 BYTE   W03
 BYTE   W03
 BYTE   W03
 BYTE   W03
 BYTE   W03
 BYTE   W04
 BYTE   W04
 BYTE   W03
 BYTE   W04
 BYTE   W04
 BYTE   W03
 BYTE   W04
 BYTE   W04
 BYTE   W04
 BYTE   W03
 BYTE   W04
//  #08 //031   ----------------------------------------
 BYTE   W04
 BYTE   W03
 BYTE   W04
 BYTE   W04
 BYTE   W03
 BYTE   W04
 BYTE   W04
 BYTE   W04
 BYTE   W03
 BYTE   W04
 BYTE   W04
 BYTE   W03
 BYTE   W03
 BYTE   EOT
 BYTE   W01
 BYTE   N17  Dn3
 BYTE   W18
 BYTE   Ds3
 BYTE   W18
 BYTE   N11  Fn3
 BYTE   W12
//  #08 //032   ----------------------------------------
 BYTE   N60  Gn3
 BYTE   W01
 BYTE   W03
 BYTE   W03
 BYTE   W03
 BYTE   W03
 BYTE   W03
 BYTE   W03
 BYTE   W01
 BYTE   W03
 BYTE   W03
 BYTE   W03
 BYTE   W03
 BYTE   W03
 BYTE   W03
 BYTE   W03
 BYTE   W03
 BYTE   W03
 BYTE   W03
 BYTE   W03
 BYTE   W03
 BYTE   W03
 BYTE   W03
 BYTE   W10
 BYTE   N17
 BYTE   W18
 BYTE   N05  Gs3
 BYTE   W06
//  #08 //033   ----------------------------------------
 BYTE   N92  Gn3
 BYTE   W06
 BYTE   W09
 BYTE   W04
 BYTE   W05
 BYTE   W04
 BYTE   W05
 BYTE   W04
 BYTE   W05
 BYTE   W04
 BYTE   W03
 BYTE   W03
 BYTE   W03
 BYTE   W03
 BYTE   W03
 BYTE   W03
 BYTE   W03
 BYTE   W03
 BYTE   W03
 BYTE   W03
 BYTE   W03
 BYTE   W03
 BYTE   W03
 BYTE   W03
 BYTE   W03
 BYTE   W03
 BYTE   W02
//  #08 //034   ----------------------------------------
 BYTE   W01
 BYTE   W02
 BYTE   W92
 BYTE   W01
//  #08 //035   ----------------------------------------
 BYTE   W96
//  #08 //036   ----------------------------------------
 BYTE   W96
//  #08 //037   ----------------------------------------
 BYTE   W96
//  #08 //038   ----------------------------------------
 BYTE   W96
//  #08 //039   ----------------------------------------
 BYTE   W96
//  #08 //040   ----------------------------------------
 BYTE   GoTo
  POIN2 Label_01261D48
 BYTE   FINE

//**************** Track 9 (Midi-Chn.8) ****************//

EndlessBattle_009:
//  #09 //000   ----------------------------------------
 BYTE   KEYSH   EndlessBattle_key+0
 BYTE   VOICE   29
 BYTE   VOL   19*EndlessBattle_mvl/mxv
 BYTE   PAN   c_v-24
 BYTE   BEND   c_v+0
 BYTE   N11  Gn2  v116
 BYTE   W12
 BYTE   Gn2  v096
 BYTE   W12
 BYTE   Gn2  v056
 BYTE   W12
 BYTE   Gn2  v116
 BYTE   W12
 BYTE   Gn2  v096
 BYTE   W12
 BYTE   Gn2  v056
 BYTE   W12
 BYTE   Gn2  v116
 BYTE   W12
 BYTE   Gn2  v096
 BYTE   W12
//  #09 //001   ----------------------------------------
Label_01261E77:
 BYTE   N11  Gn2  v116
 BYTE   W12
 BYTE   Gn2  v096
 BYTE   W12
 BYTE   Gn2  v056
 BYTE   W12
 BYTE   Gn2  v116
 BYTE   W12
 BYTE   Gn2  v096
 BYTE   W12
 BYTE   Gn2  v056
 BYTE   W12
 BYTE   Gn2  v116
 BYTE   W12
 BYTE   Gn2  v096
 BYTE   W12
 BYTE   PEND 
//  #09 //002   ----------------------------------------
Label_01261E91:
 BYTE   N11  Cn3  v116
 BYTE   W12
 BYTE   Cn3  v096
 BYTE   W12
 BYTE   Cn3  v056
 BYTE   W12
 BYTE   Cn3  v116
 BYTE   W12
 BYTE   Cn3  v096
 BYTE   W12
 BYTE   Cn3  v056
 BYTE   W12
 BYTE   Cn3  v116
 BYTE   W12
 BYTE   Cn3  v096
 BYTE   W12
 BYTE   PEND 
//  #09 //003   ----------------------------------------
Label_01261EAB:
 BYTE   N11  As2  v116
 BYTE   W12
 BYTE   As2  v096
 BYTE   W12
 BYTE   As2  v056
 BYTE   W12
 BYTE   As2  v116
 BYTE   W12
 BYTE   As2  v096
 BYTE   W12
 BYTE   As2  v056
 BYTE   W12
 BYTE   As2  v116
 BYTE   W12
 BYTE   As2  v096
 BYTE   W12
 BYTE   PEND 
//  #09 //004   ----------------------------------------
Label_01261EC5:
 BYTE   N11  Gs2  v116
 BYTE   W12
 BYTE   Gs2  v096
 BYTE   W12
 BYTE   Gs2  v056
 BYTE   W12
 BYTE   Gs2  v116
 BYTE   W12
 BYTE   Gs2  v096
 BYTE   W12
 BYTE   Gs2  v056
 BYTE   W12
 BYTE   Gs2  v116
 BYTE   W12
 BYTE   Gs2  v096
 BYTE   W12
 BYTE   PEND 
//  #09 //005   ----------------------------------------
 BYTE   PATT
  POIN2 Label_01261E77
//  #09 //006   ----------------------------------------
 BYTE   N11  Fn2  v116
 BYTE   W12
 BYTE   Fn2  v096
 BYTE   W12
 BYTE   Fn2  v056
 BYTE   W12
 BYTE   Fn2  v116
 BYTE   W12
 BYTE   Fn2  v096
 BYTE   W12
 BYTE   Fn2  v056
 BYTE   W12
 BYTE   Fn2  v116
 BYTE   W12
 BYTE   Fn2  v096
 BYTE   W12
//  #09 //007   ----------------------------------------
 BYTE   Ds2  v116
 BYTE   W12
 BYTE   Ds2  v096
 BYTE   W12
 BYTE   Ds2  v056
 BYTE   W12
 BYTE   Ds2  v116
 BYTE   W12
 BYTE   Ds2  v096
 BYTE   W12
 BYTE   Ds2  v056
 BYTE   W12
 BYTE   Ds2  v116
 BYTE   W12
 BYTE   Ds2  v096
 BYTE   W12
//  #09 //008   ----------------------------------------
Label_01261F15:
 BYTE   N11  Dn3  v116
 BYTE   W12
 BYTE   Dn3  v096
 BYTE   W12
 BYTE   Dn3  v056
 BYTE   W12
 BYTE   Dn3  v116
 BYTE   W12
 BYTE   Dn3  v096
 BYTE   W12
 BYTE   Dn3  v056
 BYTE   W12
 BYTE   Dn3  v116
 BYTE   W12
 BYTE   Dn3  v096
 BYTE   W12
 BYTE   PEND 
//  #09 //009   ----------------------------------------
 BYTE   PATT
  POIN2 Label_01261E77
//  #09 //010   ----------------------------------------
 BYTE   PATT
  POIN2 Label_01261E91
//  #09 //011   ----------------------------------------
 BYTE   PATT
  POIN2 Label_01261EAB
//  #09 //012   ----------------------------------------
 BYTE   N11  An2  v116
 BYTE   W12
 BYTE   An2  v096
 BYTE   W12
 BYTE   An2  v056
 BYTE   W12
 BYTE   An2  v116
 BYTE   W12
 BYTE   An2  v096
 BYTE   W12
 BYTE   An2  v056
 BYTE   W12
 BYTE   An2  v116
 BYTE   W12
 BYTE   An2  v096
 BYTE   W12
//  #09 //013   ----------------------------------------
 BYTE   PATT
  POIN2 Label_01261EC5
//  #09 //014   ----------------------------------------
Label_01261F5C:
 BYTE   N11  Cs3  v116
 BYTE   W12
 BYTE   Cs3  v096
 BYTE   W12
 BYTE   Cs3  v056
 BYTE   W12
 BYTE   Cs3  v116
 BYTE   W12
 BYTE   Cs3  v096
 BYTE   W12
 BYTE   Cs3  v056
 BYTE   W12
 BYTE   Cs3  v116
 BYTE   W12
 BYTE   Cs3  v096
 BYTE   W12
 BYTE   PEND 
//  #09 //015   ----------------------------------------
 BYTE   PATT
  POIN2 Label_01261F5C
//  #09 //016   ----------------------------------------
 BYTE   PATT
  POIN2 Label_01261F15
//  #09 //017   ----------------------------------------
 BYTE   PATT
  POIN2 Label_01261E77
//  #09 //018   ----------------------------------------
 BYTE   N44  Gs0  v076
 BYTE   W48
 BYTE   N22  Ds1
 BYTE   W24
 BYTE   Gs1
 BYTE   W24
//  #09 //019   ----------------------------------------
 BYTE   N24  As1
 BYTE   W24
 BYTE   N52  As0
 BYTE   W60
 BYTE   N05  Cn1
 BYTE   W06
 BYTE   Dn1
 BYTE   W06
//  #09 //020   ----------------------------------------
Label_01261F99:
 BYTE   N48  Ds1  v076
 BYTE   W48
 BYTE   N24  As0
 BYTE   W24
 BYTE   N23  Ds1
 BYTE   W24
 BYTE   PEND 
//  #09 //021   ----------------------------------------
 BYTE   N48  Fn1
 BYTE   W48
 BYTE   N23  Cn1
 BYTE   W24
 BYTE   An0
 BYTE   W24
//  #09 //022   ----------------------------------------
 BYTE   N68  Gs0
 BYTE   W72
 BYTE   N23  Ds1
 BYTE   W24
//  #09 //023   ----------------------------------------
 BYTE   N24  As0
 BYTE   W24
 BYTE   Fn1
 BYTE   W24
 BYTE   Cn2
 BYTE   W24
 BYTE   N23  As1
 BYTE   W24
//  #09 //024   ----------------------------------------
 BYTE   N48  An1
 BYTE   W48
 BYTE   N44  An0
 BYTE   W48
//  #09 //025   ----------------------------------------
 BYTE   N24  Fn1
 BYTE   W24
 BYTE   Ds1
 BYTE   W24
 BYTE   Cn1
 BYTE   W24
 BYTE   N23  An0
 BYTE   W24
//  #09 //026   ----------------------------------------
 BYTE   N76  Gs0
 BYTE   W84
 BYTE   N05  As0
 BYTE   W06
 BYTE   Cn1
 BYTE   W06
//  #09 //027   ----------------------------------------
 BYTE   N44  As0
 BYTE   W48
 BYTE   N23  Cn1
 BYTE   W24
 BYTE   Dn1
 BYTE   W24
//  #09 //028   ----------------------------------------
 BYTE   PATT
  POIN2 Label_01261F99
//  #09 //029   ----------------------------------------
 BYTE   N48  Fn1  v076
 BYTE   W48
 BYTE   N44  Fn0
 BYTE   W48
//  #09 //030   ----------------------------------------
 BYTE   Gs0
 BYTE   W48
 BYTE   N23  Ds1
 BYTE   W24
 BYTE   N44  Gs1
 BYTE   W24
//  #09 //031   ----------------------------------------
 BYTE   W24
 BYTE   N48  Gs0
 BYTE   W48
 BYTE   N23  Cn1
 BYTE   W24
//  #09 //032   ----------------------------------------
 BYTE   N24  As2  v096
 BYTE   W24
 BYTE   N24
 BYTE   W24
 BYTE   N24
 BYTE   W24
 BYTE   N23
 BYTE   W24
//  #09 //033   ----------------------------------------
 BYTE   N24  Bn2
 BYTE   W24
 BYTE   N24
 BYTE   W24
 BYTE   Gn2
 BYTE   W24
 BYTE   N23  Bn2
 BYTE   W24
//  #09 //034   ----------------------------------------
Label_0126200B:
 BYTE   N11  Cn3  v116
 BYTE   W12
 BYTE   Cn3  v096
 BYTE   W12
 BYTE   Cn3  v056
 BYTE   W12
 BYTE   As2  v116
 BYTE   W12
 BYTE   As2  v096
 BYTE   W12
 BYTE   As2  v056
 BYTE   W12
 BYTE   Gs2  v116
 BYTE   W12
 BYTE   Gs2  v096
 BYTE   W12
 BYTE   PEND 
//  #09 //035   ----------------------------------------
 BYTE   PATT
  POIN2 Label_01261EC5
//  #09 //036   ----------------------------------------
 BYTE   PATT
  POIN2 Label_0126200B
//  #09 //037   ----------------------------------------
 BYTE   PATT
  POIN2 Label_01261EC5
//  #09 //038   ----------------------------------------
 BYTE   PATT
  POIN2 Label_01261E77
//  #09 //039   ----------------------------------------
 BYTE   PATT
  POIN2 Label_01261E77
//  #09 //040   ----------------------------------------
 BYTE   GoTo
  POIN2 Label_01261E91
 BYTE   FINE

//**************** Track 10 (Midi-Chn.9) ****************//

EndlessBattle_010:
//  #10 //000   ----------------------------------------
 BYTE   KEYSH   EndlessBattle_key+0
 BYTE   VOICE   73
 BYTE   VOL   18*EndlessBattle_mvl/mxv
 BYTE   PAN   c_v+0
 BYTE   BEND   c_v+0
 BYTE   W96
//  #10 //001   ----------------------------------------
 BYTE   W96
//  #10 //002   ----------------------------------------
Label_01262050:
 BYTE   W96
//  #10 //003   ----------------------------------------
 BYTE   W96
//  #10 //004   ----------------------------------------
 BYTE   W96
//  #10 //005   ----------------------------------------
 BYTE   W96
//  #10 //006   ----------------------------------------
 BYTE   W96
//  #10 //007   ----------------------------------------
 BYTE   W96
//  #10 //008   ----------------------------------------
 BYTE   W96
//  #10 //009   ----------------------------------------
 BYTE   W96
//  #10 //010   ----------------------------------------
 BYTE   W96
//  #10 //011   ----------------------------------------
 BYTE   W96
//  #10 //012   ----------------------------------------
 BYTE   W96
//  #10 //013   ----------------------------------------
 BYTE   W96
//  #10 //014   ----------------------------------------
 BYTE   W96
//  #10 //015   ----------------------------------------
 BYTE   W96
//  #10 //016   ----------------------------------------
 BYTE   W96
//  #10 //017   ----------------------------------------
 BYTE   W60
 BYTE   W32
 BYTE   W01
 BYTE   W03
//  #10 //018   ----------------------------------------
 BYTE   N23  Ds1  v072
 BYTE   N23  Gn3
 BYTE   N23  As4
 BYTE   W05
 BYTE   W04
 BYTE   W03
 BYTE   W04
 BYTE   W04
 BYTE   W04
 BYTE   Gn1
 BYTE   N23  Gs3
 BYTE   N23  Cn5
 BYTE   W04
 BYTE   W04
 BYTE   W04
 BYTE   W04
 BYTE   W03
 BYTE   W04
 BYTE   W01
 BYTE   Gn1
 BYTE   N23  Cn3
 BYTE   N23  Ds5
 BYTE   W03
 BYTE   W04
 BYTE   W04
 BYTE   W04
 BYTE   W04
 BYTE   W03
 BYTE   W02
 BYTE   Cn2
 BYTE   N23  Ds3
 BYTE   N23  Gn5
 BYTE   W02
 BYTE   W04
 BYTE   W04
 BYTE   W04
 BYTE   W04
 BYTE   W04
 BYTE   W02
//  #10 //019   ----------------------------------------
 BYTE   N44  Dn2
 BYTE   N23  Fn3
 BYTE   N44  As5
 BYTE   W04
 BYTE   W06
 BYTE   W07
 BYTE   W06
 BYTE   W01
 BYTE   N23  Gn2
 BYTE   W05
 BYTE   W06
 BYTE   W07
 BYTE   W06
 BYTE   Fn1
 BYTE   N23  As3
 BYTE   N44  Fn5
 BYTE   W24
 BYTE   N23  As1
 BYTE   N23  Dn3
 BYTE   W24
//  #10 //020   ----------------------------------------
 BYTE   Gn1
 BYTE   N23  As3
 BYTE   N44  Ds5
 BYTE   W24
 BYTE   N23  Fn1
 BYTE   N80  Gn3
 BYTE   W24
 BYTE   N54  Ds1
 BYTE   N56  As4
 BYTE   W05
 BYTE   W03
 BYTE   W03
 BYTE   W03
 BYTE   W03
 BYTE   W03
 BYTE   W03
 BYTE   W03
 BYTE   W03
 BYTE   W03
 BYTE   W03
 BYTE   W03
 BYTE   W01
 BYTE   W02
 BYTE   W01
 BYTE   W02
 BYTE   W01
 BYTE   W02
 BYTE   W01
//  #10 //021   ----------------------------------------
 BYTE   W02
 BYTE   W01
 BYTE   W02
 BYTE   W01
 BYTE   W02
 BYTE   W01
 BYTE   W01
 BYTE   W01
 BYTE   W01
 BYTE   W01
 BYTE   W01
 BYTE   W01
 BYTE   W01
 BYTE   W01
 BYTE   W01
 BYTE   W01
 BYTE   W01
 BYTE   W01
 BYTE   W01
 BYTE   W01
 BYTE   W01
 BYTE   N23  Cn1
 BYTE   N23  Fn3
 BYTE   N23  An4
 BYTE   W24
 BYTE   Fn1
 BYTE   N23  An3
 BYTE   N23  Cn5
 BYTE   W24
 BYTE   An1
 BYTE   N23  Ds3
 BYTE   N44  Fn5
 BYTE   W24
//  #10 //022   ----------------------------------------
 BYTE   Gs1
 BYTE   N44  Cn3
 BYTE   W24
 BYTE   N23  Gn5
 BYTE   W24
 BYTE   Fn1
 BYTE   N44  As3
 BYTE   N23  Dn5
 BYTE   W24
 BYTE   Gn1
 BYTE   N23  Ds5
 BYTE   W24
//  #10 //023   ----------------------------------------
 BYTE   N44  Gs1
 BYTE   N22  Dn3
 BYTE   N44  Fn5
 BYTE   W24
 BYTE   N22  Cn3
 BYTE   W24
 BYTE   N44  Fn1
 BYTE   N44  As3
 BYTE   N44  Dn5
 BYTE   W48
//  #10 //024   ----------------------------------------
 BYTE   Fn1
 BYTE   N23  Gn3
 BYTE   N44  Cn5
 BYTE   W24
 BYTE   N23  An3
 BYTE   W24
 BYTE   An1
 BYTE   N23  Cn3
 BYTE   N23  Fn5
 BYTE   W24
 BYTE   Cn2
 BYTE   N23  Ds3
 BYTE   N23  Gn5
 BYTE   W24
//  #10 //025   ----------------------------------------
 BYTE   N44  Ds2
 BYTE   N23  Fn3
 BYTE   N23  An5
 BYTE   W24
 BYTE   An2
 BYTE   N23  Cn6
 BYTE   W24
 BYTE   N44  An1
 BYTE   N44  Cn3
 BYTE   N23  Fn5
 BYTE   W48
//  #10 //026   ----------------------------------------
 BYTE   N92  Gs2
 BYTE   W96
//  #10 //027   ----------------------------------------
 BYTE   As2
 BYTE   W96
//  #10 //028   ----------------------------------------
 BYTE   Ds2
 BYTE   W96
//  #10 //029   ----------------------------------------
 BYTE   Fn2
 BYTE   W96
//  #10 //030   ----------------------------------------
 BYTE   Gs2
 BYTE   W96
//  #10 //031   ----------------------------------------
 BYTE   Cn3
 BYTE   W96
//  #10 //032   ----------------------------------------
 BYTE   As2
 BYTE   W96
//  #10 //033   ----------------------------------------
 BYTE   Gn2
 BYTE   W96
//  #10 //034   ----------------------------------------
 BYTE   N32  Ds3  v068
 BYTE   N32  Gn5  v072
 BYTE   W02
 BYTE   W03
 BYTE   W03
 BYTE   W03
 BYTE   W03
 BYTE   W03
 BYTE   W02
 BYTE   W08
 BYTE   W04
 BYTE   W04
 BYTE   W01
 BYTE   Gn2  v068
 BYTE   N32  As5  v072
 BYTE   W02
 BYTE   W04
 BYTE   W04
 BYTE   W04
 BYTE   W04
 BYTE   W04
 BYTE   W08
 BYTE   W06
 BYTE   N44  Ds3  v068
 BYTE   N44  Gn5  v072
 BYTE   W03
 BYTE   W08
 BYTE   W09
 BYTE   W04
//  #10 //035   ----------------------------------------
 BYTE   W05
 BYTE   W08
 BYTE   W09
 BYTE   W02
 BYTE   N23  Cn3  v068
 BYTE   N23  Fn5  v072
 BYTE   W07
 BYTE   W08
 BYTE   W09
 BYTE   As3  v068
 BYTE   N23  Ds5  v072
 BYTE   W08
 BYTE   W09
 BYTE   W07
 BYTE   Gs3  v068
 BYTE   N23  Cn5  v072
 BYTE   W02
 BYTE   W08
 BYTE   W09
 BYTE   W05
//  #10 //036   ----------------------------------------
 BYTE   N32  As3  v068
 BYTE   N32  Ds5  v072
 BYTE   W04
 BYTE   W03
 BYTE   W03
 BYTE   W04
 BYTE   W03
 BYTE   W03
 BYTE   W04
 BYTE   W03
 BYTE   W04
 BYTE   W03
 BYTE   W02
 BYTE   Ds3  v068
 BYTE   N32  Gn5  v072
 BYTE   W01
 BYTE   W04
 BYTE   W03
 BYTE   W03
 BYTE   W04
 BYTE   W03
 BYTE   W04
 BYTE   W14
 BYTE   Fn3  v068
 BYTE   N32  As5  v072
 BYTE   W24
//  #10 //037   ----------------------------------------
 BYTE   W01
 BYTE   W06
 BYTE   W03
 BYTE   W02
 BYTE   N80  Ds3  v068
 BYTE   N80  Gs5  v072
 BYTE   W01
 BYTE   W04
 BYTE   W03
 BYTE   W03
 BYTE   W03
 BYTE   W03
 BYTE   W03
 BYTE   W03
 BYTE   W03
 BYTE   W03
 BYTE   W03
 BYTE   W03
 BYTE   W03
 BYTE   W03
 BYTE   W03
 BYTE   W02
 BYTE   W01
 BYTE   W02
 BYTE   W01
 BYTE   W02
 BYTE   W01
 BYTE   W02
 BYTE   W01
 BYTE   W02
 BYTE   W01
 BYTE   W02
 BYTE   W01
 BYTE   W02
 BYTE   W01
 BYTE   W02
 BYTE   W01
 BYTE   W02
 BYTE   W01
 BYTE   W02
 BYTE   W01
 BYTE   W02
 BYTE   W01
 BYTE   W02
 BYTE   W01
 BYTE   W02
 BYTE   W01
 BYTE   W01
//  #10 //038   ----------------------------------------
 BYTE   W96
//  #10 //039   ----------------------------------------
 BYTE   W96
//  #10 //040   ----------------------------------------
 BYTE   GoTo
  POIN2 Label_01262050
 BYTE   FINE

//**************** Track 11 (Midi-Chn.10) ****************//

EndlessBattle_011:
//  #11 //000   ----------------------------------------
 BYTE   KEYSH   EndlessBattle_key+0
 BYTE   VOICE   30
 BYTE   VOL   12*EndlessBattle_mvl/mxv
 BYTE   PAN   c_v+19
 BYTE   BEND   c_v+0
 BYTE   N32  Gn1  v116
 BYTE   W36
 BYTE   Gn1  v088
 BYTE   W36
 BYTE   N23  Gn1  v116
 BYTE   W24
//  #11 //001   ----------------------------------------
Label_01262211:
 BYTE   N32  Gn1  v116
 BYTE   W36
 BYTE   Gn1  v088
 BYTE   W36
 BYTE   N11  Gn1  v116
 BYTE   W12
 BYTE   N03  Gn1  v084
 BYTE   W04
 BYTE   Gn1  v092
 BYTE   W04
 BYTE   Gn1  v104
 BYTE   W04
 BYTE   PEND 
//  #11 //002   ----------------------------------------
Label_01262227:
 BYTE   N32  Cn2  v100
 BYTE   W36
 BYTE   N56  Cn2  v096
 BYTE   W60
 BYTE   PEND 
//  #11 //003   ----------------------------------------
Label_01262230:
 BYTE   N32  As1  v100
 BYTE   W36
 BYTE   N56  As1  v096
 BYTE   W60
 BYTE   PEND 
//  #11 //004   ----------------------------------------
Label_01262239:
 BYTE   N32  Gs1  v100
 BYTE   W36
 BYTE   N56  Gs1  v096
 BYTE   W60
 BYTE   PEND 
//  #11 //005   ----------------------------------------
Label_01262242:
 BYTE   N32  Gn1  v100
 BYTE   W36
 BYTE   N56  Gn1  v096
 BYTE   W60
 BYTE   PEND 
//  #11 //006   ----------------------------------------
 BYTE   N32  Fn1  v100
 BYTE   W36
 BYTE   N56  Fn1  v096
 BYTE   W60
//  #11 //007   ----------------------------------------
 BYTE   N32  Ds1  v100
 BYTE   W36
 BYTE   N56  Ds1  v096
 BYTE   W60
//  #11 //008   ----------------------------------------
Label_0126225B:
 BYTE   N32  Dn2  v100
 BYTE   W36
 BYTE   N56  Dn2  v096
 BYTE   W60
 BYTE   PEND 
//  #11 //009   ----------------------------------------
 BYTE   PATT
  POIN2 Label_01262242
//  #11 //010   ----------------------------------------
 BYTE   PATT
  POIN2 Label_01262227
//  #11 //011   ----------------------------------------
 BYTE   PATT
  POIN2 Label_01262230
//  #11 //012   ----------------------------------------
 BYTE   N32  An1  v100
 BYTE   W36
 BYTE   N56  An1  v096
 BYTE   W60
//  #11 //013   ----------------------------------------
 BYTE   PATT
  POIN2 Label_01262239
//  #11 //014   ----------------------------------------
Label_01262280:
 BYTE   N32  Cs2  v100
 BYTE   W36
 BYTE   N56  Cs2  v096
 BYTE   W60
 BYTE   PEND 
//  #11 //015   ----------------------------------------
 BYTE   PATT
  POIN2 Label_01262280
//  #11 //016   ----------------------------------------
 BYTE   PATT
  POIN2 Label_0126225B
//  #11 //017   ----------------------------------------
 BYTE   PATT
  POIN2 Label_01262242
//  #11 //018   ----------------------------------------
 BYTE   N92  Gs1  v092
 BYTE   W96
//  #11 //019   ----------------------------------------
 BYTE   As1
 BYTE   W96
//  #11 //020   ----------------------------------------
 BYTE   Ds1
 BYTE   W96
//  #11 //021   ----------------------------------------
 BYTE   Fn1
 BYTE   W96
//  #11 //022   ----------------------------------------
 BYTE   Gs1
 BYTE   W96
//  #11 //023   ----------------------------------------
 BYTE   As1
 BYTE   W96
//  #11 //024   ----------------------------------------
 BYTE   An1
 BYTE   W96
//  #11 //025   ----------------------------------------
 BYTE   N92
 BYTE   W96
//  #11 //026   ----------------------------------------
 BYTE   Gs1
 BYTE   W96
//  #11 //027   ----------------------------------------
 BYTE   As1
 BYTE   W96
//  #11 //028   ----------------------------------------
 BYTE   Ds1
 BYTE   W96
//  #11 //029   ----------------------------------------
 BYTE   Fn1
 BYTE   W96
//  #11 //030   ----------------------------------------
 BYTE   Gs1
 BYTE   W96
//  #11 //031   ----------------------------------------
 BYTE   N92
 BYTE   W96
//  #11 //032   ----------------------------------------
 BYTE   N24  As1  v088
 BYTE   W24
 BYTE   As1  v084
 BYTE   W24
 BYTE   N24
 BYTE   W24
 BYTE   N23
 BYTE   W24
//  #11 //033   ----------------------------------------
 BYTE   N24  Bn1  v116
 BYTE   W24
 BYTE   Bn1  v084
 BYTE   W24
 BYTE   N24
 BYTE   W24
 BYTE   N23
 BYTE   W24
//  #11 //034   ----------------------------------------
 BYTE   N32  Cn4  v116
 BYTE   W36
 BYTE   As1  v104
 BYTE   W36
 BYTE   N92  Gs1
 BYTE   W24
//  #11 //035   ----------------------------------------
 BYTE   W72
 BYTE   N05  Gs1  v072
 BYTE   W06
 BYTE   Gs1  v088
 BYTE   W06
 BYTE   Gs1  v096
 BYTE   W06
 BYTE   Gs1  v116
 BYTE   W06
//  #11 //036   ----------------------------------------
 BYTE   N32  Cn4
 BYTE   W36
 BYTE   As1  v104
 BYTE   W36
 BYTE   N68  Gs1
 BYTE   W24
//  #11 //037   ----------------------------------------
 BYTE   W48
 BYTE   N24  Ds1  v108
 BYTE   W24
 BYTE   Gs1  v116
 BYTE   W24
//  #11 //038   ----------------------------------------
 BYTE   N32  Gn1
 BYTE   W36
 BYTE   Gn1  v088
 BYTE   W36
 BYTE   N23  Gn1  v116
 BYTE   W24
//  #11 //039   ----------------------------------------
 BYTE   PATT
  POIN2 Label_01262211
//  #11 //040   ----------------------------------------
 BYTE   GoTo
  POIN2 Label_01262227
 BYTE   FINE

//**************** Track 12 (Midi-Chn.11) ****************//

EndlessBattle_012:
//  #12 //000   ----------------------------------------
 BYTE   KEYSH   EndlessBattle_key+0
 BYTE   VOICE   127
 BYTE   VOL   47*EndlessBattle_mvl/mxv
 BYTE   PAN   c_v+0
 BYTE   BEND   c_v+0
 BYTE   N05  Dn1  v112
 BYTE   N13  An2  v040
 BYTE   W06
 BYTE   N05  En1  v080
 BYTE   W06
 BYTE   Dn1  v100
 BYTE   W06
 BYTE   Dn1  v040
 BYTE   W06
 BYTE   Dn1  v028
 BYTE   W06
 BYTE   Dn1  v020
 BYTE   W06
 BYTE   En1  v096
 BYTE   N13  An2  v048
 BYTE   W06
 BYTE   N05  Dn1  v068
 BYTE   W06
 BYTE   Dn1  v076
 BYTE   W06
 BYTE   En1  v060
 BYTE   W06
 BYTE   Dn1  v084
 BYTE   W06
 BYTE   Dn1  v040
 BYTE   W06
 BYTE   Dn1  v096
 BYTE   N13  An2  v040
 BYTE   W06
 BYTE   N05  Dn1  v020
 BYTE   W06
 BYTE   Dn1  v044
 BYTE   W06
 BYTE   N02  Dn1  v056
 BYTE   W03
 BYTE   En1  v068
 BYTE   W03
//  #12 //001   ----------------------------------------
Label_01262357:
 BYTE   N05  Dn1  v112
 BYTE   N13  An2  v056
 BYTE   W06
 BYTE   N05  En1  v080
 BYTE   W06
 BYTE   Dn1  v100
 BYTE   W06
 BYTE   Dn1  v040
 BYTE   W06
 BYTE   Dn1  v028
 BYTE   W06
 BYTE   Dn1  v020
 BYTE   W06
 BYTE   En1  v092
 BYTE   N13  An2  v048
 BYTE   W06
 BYTE   N05  Dn1  v080
 BYTE   W06
 BYTE   Dn1  v092
 BYTE   W06
 BYTE   En1  v060
 BYTE   W06
 BYTE   Dn1  v100
 BYTE   W06
 BYTE   Dn1  v040
 BYTE   W06
 BYTE   N23  Fs1  v092
 BYTE   N13  An2  v040
 BYTE   W24
 BYTE   PEND 
//  #12 //002   ----------------------------------------
Label_0126238C:
 BYTE   N05  Dn1  v112
 BYTE   N84  Cs2  v048
 BYTE   W06
 BYTE   N05  En1  v080
 BYTE   W06
 BYTE   Dn1  v100
 BYTE   W06
 BYTE   Dn1  v040
 BYTE   W06
 BYTE   Dn1  v028
 BYTE   W06
 BYTE   Dn1  v020
 BYTE   W06
 BYTE   En1  v068
 BYTE   W06
 BYTE   Dn1  v080
 BYTE   W06
 BYTE   Dn1  v092
 BYTE   W06
 BYTE   En1  v060
 BYTE   W06
 BYTE   Dn1  v100
 BYTE   W06
 BYTE   Dn1  v040
 BYTE   W06
 BYTE   Dn1  v028
 BYTE   W06
 BYTE   Dn1  v020
 BYTE   W12
 BYTE   N02  Dn1  v056
 BYTE   W03
 BYTE   En1  v068
 BYTE   W03
//  #12 //003   ----------------------------------------
Label_012623C2:
 BYTE   N05  Dn1  v112
 BYTE   W06
 BYTE   En1  v080
 BYTE   W06
 BYTE   Dn1  v100
 BYTE   W06
 BYTE   Dn1  v040
 BYTE   W06
 BYTE   Dn1  v028
 BYTE   W06
 BYTE   Dn1  v020
 BYTE   W06
 BYTE   En1  v068
 BYTE   W06
 BYTE   Dn1  v080
 BYTE   W06
 BYTE   Dn1  v092
 BYTE   W06
 BYTE   En1  v060
 BYTE   W06
 BYTE   Dn1  v100
 BYTE   W06
 BYTE   Dn1  v040
 BYTE   W06
 BYTE   N23  Fs1  v080
 BYTE   W24
 BYTE   PEND 
//  #12 //004   ----------------------------------------
Label_012623EC:
 BYTE   N05  Dn1  v112
 BYTE   W06
 BYTE   En1  v080
 BYTE   W06
 BYTE   Dn1  v100
 BYTE   W06
 BYTE   Dn1  v040
 BYTE   W06
 BYTE   Dn1  v028
 BYTE   W06
 BYTE   Dn1  v020
 BYTE   W06
 BYTE   En1  v068
 BYTE   W06
 BYTE   Dn1  v080
 BYTE   W06
 BYTE   Dn1  v092
 BYTE   W06
 BYTE   En1  v060
 BYTE   W06
 BYTE   Dn1  v100
 BYTE   W06
 BYTE   Dn1  v040
 BYTE   W06
 BYTE   Dn1  v028
 BYTE   W06
 BYTE   Dn1  v020
 BYTE   W12
 BYTE   N02  Dn1  v056
 BYTE   W03
 BYTE   En1  v068
 BYTE   W03
 BYTE   PEND 
//  #12 //005   ----------------------------------------
 BYTE   PATT
  POIN2 Label_012623C2
//  #12 //006   ----------------------------------------
 BYTE   PATT
  POIN2 Label_012623EC
//  #12 //007   ----------------------------------------
 BYTE   PATT
  POIN2 Label_012623C2
//  #12 //008   ----------------------------------------
 BYTE   PATT
  POIN2 Label_012623EC
//  #12 //009   ----------------------------------------
 BYTE   PATT
  POIN2 Label_012623C2
//  #12 //010   ----------------------------------------
 BYTE   N05  Dn1  v112
 BYTE   N84  Cs2  v032
 BYTE   W06
 BYTE   N05  En1  v080
 BYTE   W06
 BYTE   Dn1  v100
 BYTE   W06
 BYTE   Dn1  v040
 BYTE   W06
 BYTE   Dn1  v028
 BYTE   W06
 BYTE   Dn1  v020
 BYTE   W06
 BYTE   En1  v068
 BYTE   W06
 BYTE   Dn1  v080
 BYTE   W06
 BYTE   Dn1  v092
 BYTE   W06
 BYTE   En1  v060
 BYTE   W06
 BYTE   Dn1  v100
 BYTE   W06
 BYTE   Dn1  v040
 BYTE   W06
 BYTE   Dn1  v028
 BYTE   W06
 BYTE   Dn1  v020
 BYTE   W12
 BYTE   N02  Dn1  v056
 BYTE   W03
 BYTE   En1  v068
 BYTE   W03
//  #12 //011   ----------------------------------------
 BYTE   PATT
  POIN2 Label_012623C2
//  #12 //012   ----------------------------------------
 BYTE   PATT
  POIN2 Label_012623EC
//  #12 //013   ----------------------------------------
 BYTE   PATT
  POIN2 Label_012623C2
//  #12 //014   ----------------------------------------
 BYTE   PATT
  POIN2 Label_012623EC
//  #12 //015   ----------------------------------------
 BYTE   PATT
  POIN2 Label_012623C2
//  #12 //016   ----------------------------------------
 BYTE   PATT
  POIN2 Label_012623EC
//  #12 //017   ----------------------------------------
 BYTE   PATT
  POIN2 Label_012623C2
//  #12 //018   ----------------------------------------
Label_01262491:
 BYTE   N15  En1  v100
 BYTE   N12  An2  v036
 BYTE   W16
 BYTE   N15  En1  v068
 BYTE   W08
 BYTE   N12  An2  v016
 BYTE   W08
 BYTE   N15  En1  v052
 BYTE   W16
 BYTE   En1  v040
 BYTE   N12  An2  v036
 BYTE   W16
 BYTE   N15  En1  v032
 BYTE   W08
 BYTE   N12  An2  v016
 BYTE   W08
 BYTE   N15  En1  v020
 BYTE   W16
 BYTE   PEND 
//  #12 //019   ----------------------------------------
Label_012624B7:
 BYTE   N15  Dn1  v100
 BYTE   N12  An2  v036
 BYTE   W16
 BYTE   N15  Dn1  v068
 BYTE   W08
 BYTE   N12  An2  v016
 BYTE   W08
 BYTE   N15  Dn1  v052
 BYTE   W16
 BYTE   Dn1  v040
 BYTE   N12  An2  v036
 BYTE   W16
 BYTE   N15  Dn1  v032
 BYTE   W08
 BYTE   N12  An2  v016
 BYTE   W08
 BYTE   N15  Dn1  v020
 BYTE   W16
 BYTE   PEND 
//  #12 //020   ----------------------------------------
 BYTE   PATT
  POIN2 Label_01262491
//  #12 //021   ----------------------------------------
 BYTE   PATT
  POIN2 Label_012624B7
//  #12 //022   ----------------------------------------
 BYTE   PATT
  POIN2 Label_01262491
//  #12 //023   ----------------------------------------
 BYTE   PATT
  POIN2 Label_012624B7
//  #12 //024   ----------------------------------------
 BYTE   PATT
  POIN2 Label_01262491
//  #12 //025   ----------------------------------------
 BYTE   N15  Dn1  v100
 BYTE   N12  An2  v036
 BYTE   W16
 BYTE   N15  Dn1  v068
 BYTE   W08
 BYTE   N12  An2  v016
 BYTE   W08
 BYTE   N15  Dn1  v052
 BYTE   W16
 BYTE   Dn1  v040
 BYTE   N12  An2  v036
 BYTE   W24
 BYTE   N23  Fs1  v092
 BYTE   N03  Fn2  v004
 BYTE   N12  An2  v016
 BYTE   W04
 BYTE   N03  Fn2
 BYTE   W04
 BYTE   Fn2  v028
 BYTE   W04
 BYTE   Fn2  v040
 BYTE   W04
 BYTE   Fn2  v048
 BYTE   W04
 BYTE   Fn2  v060
 BYTE   W04
//  #12 //026   ----------------------------------------
 BYTE   N05  Dn1  v120
 BYTE   TIE  Fn2  v064
 BYTE   W06
 BYTE   N05  En1  v080
 BYTE   W06
 BYTE   Dn1  v108
 BYTE   W06
 BYTE   Dn1  v048
 BYTE   W06
 BYTE   Dn1  v036
 BYTE   W06
 BYTE   Dn1  v028
 BYTE   W06
 BYTE   En1  v068
 BYTE   W06
 BYTE   Dn1  v088
 BYTE   W06
 BYTE   Dn1  v100
 BYTE   W06
 BYTE   En1  v060
 BYTE   W06
 BYTE   Dn1  v108
 BYTE   W06
 BYTE   Dn1  v048
 BYTE   W06
 BYTE   Dn1  v036
 BYTE   W06
 BYTE   Dn1  v028
 BYTE   W12
 BYTE   N02  Dn1  v064
 BYTE   W03
 BYTE   En1  v068
 BYTE   W03
//  #12 //027   ----------------------------------------
 BYTE   N05  Dn1  v120
 BYTE   W02
 BYTE   EOT
 BYTE   Fn2
 BYTE   W04
 BYTE   N05  En1  v080
 BYTE   W06
 BYTE   Dn1  v108
 BYTE   W06
 BYTE   Dn1  v048
 BYTE   W06
 BYTE   Dn1  v036
 BYTE   W06
 BYTE   Dn1  v028
 BYTE   W06
 BYTE   En1  v068
 BYTE   W06
 BYTE   Dn1  v088
 BYTE   W06
 BYTE   Dn1  v100
 BYTE   W06
 BYTE   En1  v060
 BYTE   W06
 BYTE   Dn1  v108
 BYTE   W06
 BYTE   Dn1  v048
 BYTE   W06
 BYTE   N23  Fs1  v088
 BYTE   W24
//  #12 //028   ----------------------------------------
Label_0126258B:
 BYTE   N05  Dn1  v120
 BYTE   W06
 BYTE   En1  v080
 BYTE   W06
 BYTE   Dn1  v108
 BYTE   W06
 BYTE   Dn1  v048
 BYTE   W06
 BYTE   Dn1  v036
 BYTE   W06
 BYTE   Dn1  v028
 BYTE   W06
 BYTE   En1  v068
 BYTE   W06
 BYTE   Dn1  v088
 BYTE   W06
 BYTE   Dn1  v100
 BYTE   W06
 BYTE   En1  v060
 BYTE   W06
 BYTE   Dn1  v108
 BYTE   W06
 BYTE   Dn1  v048
 BYTE   W06
 BYTE   Dn1  v036
 BYTE   W06
 BYTE   Dn1  v028
 BYTE   W12
 BYTE   N02  Dn1  v064
 BYTE   W03
 BYTE   En1  v068
 BYTE   W03
 BYTE   PEND 
//  #12 //029   ----------------------------------------
Label_012625BE:
 BYTE   N05  Dn1  v120
 BYTE   W06
 BYTE   En1  v080
 BYTE   W06
 BYTE   Dn1  v108
 BYTE   W06
 BYTE   Dn1  v048
 BYTE   W06
 BYTE   Dn1  v036
 BYTE   W06
 BYTE   Dn1  v028
 BYTE   W06
 BYTE   En1  v068
 BYTE   W06
 BYTE   Dn1  v088
 BYTE   W06
 BYTE   Dn1  v100
 BYTE   W06
 BYTE   En1  v060
 BYTE   W06
 BYTE   Dn1  v108
 BYTE   W06
 BYTE   Dn1  v048
 BYTE   W06
 BYTE   N23  Fs1  v088
 BYTE   W24
 BYTE   PEND 
//  #12 //030   ----------------------------------------
 BYTE   PATT
  POIN2 Label_0126258B
//  #12 //031   ----------------------------------------
 BYTE   PATT
  POIN2 Label_012625BE
//  #12 //032   ----------------------------------------
 BYTE   PATT
  POIN2 Label_0126258B
//  #12 //033   ----------------------------------------
 BYTE   N05  Dn1  v120
 BYTE   W06
 BYTE   En1  v080
 BYTE   W06
 BYTE   Dn1  v108
 BYTE   W06
 BYTE   Dn1  v048
 BYTE   W06
 BYTE   Dn1  v036
 BYTE   W06
 BYTE   Dn1  v028
 BYTE   W06
 BYTE   En1  v068
 BYTE   W06
 BYTE   Dn1  v088
 BYTE   W06
 BYTE   Dn1  v044
 BYTE   W06
 BYTE   En1  v116
 BYTE   W06
 BYTE   Dn1  v068
 BYTE   W06
 BYTE   En1  v080
 BYTE   W06
 BYTE   N11  Fs1  v100
 BYTE   W12
 BYTE   N05  Dn1  v096
 BYTE   W06
 BYTE   En1  v092
 BYTE   W06
//  #12 //034   ----------------------------------------
 BYTE   N23  Fs1  v096
 BYTE   N92  Cs2  v048
 BYTE   W24
 BYTE   N05  Dn1  v088
 BYTE   W06
 BYTE   En1
 BYTE   W06
 BYTE   Dn1
 BYTE   W06
 BYTE   Dn1  v048
 BYTE   W06
 BYTE   Dn1  v036
 BYTE   W06
 BYTE   Dn1  v028
 BYTE   W06
 BYTE   En1  v068
 BYTE   W06
 BYTE   Dn1  v096
 BYTE   W06
 BYTE   N23  Fs1
 BYTE   W24
//  #12 //035   ----------------------------------------
 BYTE   N05  Dn1  v088
 BYTE   W06
 BYTE   En1
 BYTE   W06
 BYTE   Dn1
 BYTE   W06
 BYTE   Dn1  v048
 BYTE   W06
 BYTE   Dn1  v036
 BYTE   W06
 BYTE   Dn1  v072
 BYTE   W06
 BYTE   En1  v068
 BYTE   W06
 BYTE   Dn1  v096
 BYTE   W06
 BYTE   En1  v036
 BYTE   W06
 BYTE   Dn1  v080
 BYTE   W06
 BYTE   En1  v068
 BYTE   W06
 BYTE   Dn1  v048
 BYTE   W06
 BYTE   N02  En1  v072
 BYTE   W03
 BYTE   Dn1  v076
 BYTE   W03
 BYTE   N05  En1  v092
 BYTE   W06
 BYTE   Dn1  v068
 BYTE   W06
 BYTE   En1  v052
 BYTE   W06
//  #12 //036   ----------------------------------------
 BYTE   N23  Fs1  v096
 BYTE   N92  En2  v048
 BYTE   W24
 BYTE   N05  Dn1  v088
 BYTE   W06
 BYTE   En1
 BYTE   W06
 BYTE   Dn1
 BYTE   W06
 BYTE   Dn1  v048
 BYTE   W06
 BYTE   Dn1  v036
 BYTE   W06
 BYTE   Dn1  v028
 BYTE   W06
 BYTE   En1  v068
 BYTE   W06
 BYTE   Dn1  v096
 BYTE   W06
 BYTE   N23  Fs1
 BYTE   W24
//  #12 //037   ----------------------------------------
 BYTE   N05  Dn1  v088
 BYTE   W06
 BYTE   En1
 BYTE   W06
 BYTE   Dn1
 BYTE   W06
 BYTE   Dn1  v048
 BYTE   W06
 BYTE   Dn1  v036
 BYTE   W06
 BYTE   Dn1  v072
 BYTE   W06
 BYTE   En1  v068
 BYTE   W06
 BYTE   Dn1  v096
 BYTE   W06
 BYTE   En1  v036
 BYTE   W06
 BYTE   Dn1  v088
 BYTE   W06
 BYTE   En1  v068
 BYTE   W06
 BYTE   Dn1  v048
 BYTE   W06
 BYTE   N02  En1  v072
 BYTE   W03
 BYTE   Dn1  v076
 BYTE   W03
 BYTE   N05  En1  v092
 BYTE   W06
 BYTE   Dn1  v068
 BYTE   W06
 BYTE   En1  v052
 BYTE   W06
//  #12 //038   ----------------------------------------
 BYTE   Dn1  v112
 BYTE   N32  An2  v040
 BYTE   W06
 BYTE   N05  En1  v080
 BYTE   W06
 BYTE   Dn1  v100
 BYTE   W06
 BYTE   Dn1  v040
 BYTE   W06
 BYTE   Dn1  v028
 BYTE   W06
 BYTE   Dn1  v020
 BYTE   W06
 BYTE   En1  v096
 BYTE   N13  An2  v048
 BYTE   W06
 BYTE   N05  Dn1  v068
 BYTE   W06
 BYTE   Dn1  v076
 BYTE   W06
 BYTE   En1  v060
 BYTE   W06
 BYTE   Dn1  v084
 BYTE   W06
 BYTE   Dn1  v040
 BYTE   W06
 BYTE   Dn1  v096
 BYTE   N13  An2  v040
 BYTE   W06
 BYTE   N05  Dn1  v020
 BYTE   W06
 BYTE   Dn1  v044
 BYTE   W06
 BYTE   N02  Dn1  v056
 BYTE   W03
 BYTE   En1  v068
 BYTE   W03
//  #12 //039   ----------------------------------------
 BYTE   PATT
  POIN2 Label_01262357
//  #12 //040   ----------------------------------------
 BYTE   GoTo
  POIN2 Label_0126238C
 BYTE   FINE

//******************************************************//
	ALIGN 4

EndlessBattle:
	BYTE	12	// NumTrks
	BYTE	0	// NumBlks
	BYTE	EndlessBattle_pri	// Priority
	BYTE	EndlessBattle_rev	// Reverb.
    
	POIN2	EndlessBattle_grp
    
	POIN2	EndlessBattle_001
	POIN2	EndlessBattle_002
	POIN2	EndlessBattle_003
	POIN2	EndlessBattle_004
	POIN2	EndlessBattle_005
	POIN2	EndlessBattle_006
	POIN2	EndlessBattle_007
	POIN2	EndlessBattle_008
	POIN2	EndlessBattle_009
	POIN2	EndlessBattle_010
	POIN2	EndlessBattle_011
	POIN2	EndlessBattle_012

	
