//Event file generated from Sappy .s format.
	

	#define	FirstStepTowardsWar_grp  voicegroup000
	#define	FirstStepTowardsWar_pri  0
	#define	FirstStepTowardsWar_rev  0
	#define	FirstStepTowardsWar_mvl  127
	#define	FirstStepTowardsWar_key  0
	#define	FirstStepTowardsWar_tbs  1
	#define	FirstStepTowardsWar_exg  0
	#define	FirstStepTowardsWar_cmp  1

	// .rodata
	//	FirstStepTowardsWar
	ALIGN 4


//**************** Track 1 (Midi-Chn.0) ****************//

FirstStepTowardsWar_001:
//  #01 //000   ----------------------------------------
 BYTE   KEYSH   FirstStepTowardsWar_key+0
 BYTE   TEMPO   144*FirstStepTowardsWar_tbs/2
 BYTE   VOICE   61
 BYTE   PAN   c_v+0
 BYTE   VOL   31*FirstStepTowardsWar_mvl/mxv
 BYTE   W96
//  #01 //001   ----------------------------------------
 BYTE   W96
//  #01 //002   ----------------------------------------
 BYTE   W96
//  #01 //003   ----------------------------------------
 BYTE   W96
//  #01 //004   ----------------------------------------
 BYTE   W96
//  #01 //005   ----------------------------------------
 BYTE   W96
//  #01 //006   ----------------------------------------
 BYTE   W96
//  #01 //007   ----------------------------------------
 BYTE   W96
//  #01 //008   ----------------------------------------
Label_011F2DE6:
 BYTE   W96
//  #01 //009   ----------------------------------------
 BYTE   W96
//  #01 //010   ----------------------------------------
 BYTE   W96
//  #01 //011   ----------------------------------------
 BYTE   W96
//  #01 //012   ----------------------------------------
Label_011F2DEA:
 BYTE   N44  Dn3  v112
 BYTE   W48
 BYTE   N11  Dn3  v100
 BYTE   W12
 BYTE   En3
 BYTE   W12
 BYTE   N04  Fn3
 BYTE   W06
 BYTE   N16  Gn3
 BYTE   W18
 BYTE   PEND 
//  #01 //013   ----------------------------------------
Label_011F2DFB:
 BYTE   N44  An3  v112
 BYTE   W48
 BYTE   N23  Gn3  v100
 BYTE   W24
 BYTE   N05  Fn3
 BYTE   W06
 BYTE   N16  En3
 BYTE   W18
 BYTE   PEND 
//  #01 //014   ----------------------------------------
Label_011F2E0A:
 BYTE   N05  Fn3  v112
 BYTE   W06
 BYTE   N04  En3  v100
 BYTE   W06
 BYTE   N32  Dn3
 BYTE   W36
 BYTE   N11
 BYTE   W12
 BYTE   En3  v092
 BYTE   W12
 BYTE   N04  Fn3  v100
 BYTE   W06
 BYTE   N11  Gn3
 BYTE   W12
 BYTE   N04  Dn3  v092
 BYTE   W06
 BYTE   PEND 
//  #01 //015   ----------------------------------------
 BYTE   PATT
  POIN2 Label_011F2DFB
//  #01 //016   ----------------------------------------
Label_011F2E2B:
 BYTE   N11  Fn3  v112
 BYTE   W12
 BYTE   N03  Dn3  v100
 BYTE   W06
 BYTE   N48  Dn4
 BYTE   W54
 BYTE   N23
 BYTE   W24
 BYTE   PEND 
//  #01 //017   ----------------------------------------
Label_011F2E39:
 BYTE   TIE  Cs4  v100
 BYTE   TIE  En4  v092
 BYTE   W96
 BYTE   PEND 
//  #01 //018   ----------------------------------------
 BYTE   W68
 BYTE   W03
 BYTE   EOT
 BYTE   Cs4  v076
 BYTE   W01
 BYTE   N04  Dn4  v080
 BYTE   W03
 BYTE   Cn4  v072
 BYTE   W03
 BYTE   Bn3
 BYTE   W03
 BYTE   An3
 BYTE   W03
 BYTE   Gn3
 BYTE   W06
 BYTE   N52  Dn4  v112
 BYTE   W06
//  #01 //019   ----------------------------------------
Label_011F2E58:
 BYTE   W48
 BYTE   N11  Dn4  v100
 BYTE   W12
 BYTE   En4  v092
 BYTE   W12
 BYTE   N04  Fn4  v100
 BYTE   W06
 BYTE   N16  Gn4
 BYTE   W18
 BYTE   PEND 
//  #01 //020   ----------------------------------------
Label_011F2E68:
 BYTE   N44  An4  v112
 BYTE   W48
 BYTE   N23  Gn4  v100
 BYTE   W24
 BYTE   N05  Fn4
 BYTE   W06
 BYTE   N17  En4
 BYTE   W18
 BYTE   PEND 
//  #01 //021   ----------------------------------------
Label_011F2E77:
 BYTE   N05  Fn4  v112
 BYTE   W06
 BYTE   En4  v100
 BYTE   W06
 BYTE   N32  Dn4
 BYTE   W36
 BYTE   N11
 BYTE   W12
 BYTE   En4  v092
 BYTE   W12
 BYTE   N04  Fn4  v100
 BYTE   W06
 BYTE   N11  Gn4
 BYTE   W12
 BYTE   N04  Dn4  v092
 BYTE   W06
 BYTE   PEND 
//  #01 //022   ----------------------------------------
Label_011F2E92:
 BYTE   N44  An4  v112
 BYTE   W48
 BYTE   N23  Gn4  v100
 BYTE   W24
 BYTE   N05  Fn4
 BYTE   W06
 BYTE   N16  En4
 BYTE   W18
 BYTE   PEND 
//  #01 //023   ----------------------------------------
 BYTE   N92  Dn4  v104
 BYTE   W96
//  #01 //024   ----------------------------------------
Label_011F2EA5:
 BYTE   N44  En4  v112
 BYTE   W48
 BYTE   N23  An3
 BYTE   W24
 BYTE   N17  En4
 BYTE   W18
 BYTE   TIE  An3  v092
 BYTE   TIE  Dn4  v100
 BYTE   W06
 BYTE   PEND 
//  #01 //025   ----------------------------------------
 BYTE   W96
//  #01 //026   ----------------------------------------
 BYTE   W32
 BYTE   W02
 BYTE   EOT
 BYTE   An3  v074
 BYTE   W14
 BYTE   N08  Fn4
 BYTE   W12
 BYTE   Gn4
 BYTE   W12
 BYTE   N05  An4
 BYTE   W06
 BYTE   N11  Cn5  v112
 BYTE   W12
 BYTE   N76  Dn5
 BYTE   W06
//  #01 //027   ----------------------------------------
Label_011F2ECD:
 BYTE   W72
 BYTE   N11  As4  v100
 BYTE   W12
 BYTE   Cn5
 BYTE   W12
 BYTE   PEND 
//  #01 //028   ----------------------------------------
Label_011F2ED5:
 BYTE   N44  Dn5  v112
 BYTE   W48
 BYTE   Fn5  v100
 BYTE   W48
 BYTE   PEND 
//  #01 //029   ----------------------------------------
Label_011F2EDD:
 BYTE   N32  En5  v112
 BYTE   W36
 BYTE   N23  Cn5  v100
 BYTE   W24
 BYTE   N11  Dn5
 BYTE   W12
 BYTE   TIE  An4
 BYTE   W24
 BYTE   PEND 
//  #01 //030   ----------------------------------------
 BYTE   W92
 BYTE   W03
 BYTE   EOT
 BYTE   W01
//  #01 //031   ----------------------------------------
Label_011F2EF0:
 BYTE   N68  As4  v112
 BYTE   W72
 BYTE   N11  Gn4  v100
 BYTE   W12
 BYTE   An4
 BYTE   W12
 BYTE   PEND 
//  #01 //032   ----------------------------------------
Label_011F2EFB:
 BYTE   N44  As4  v112
 BYTE   W48
 BYTE   N23  Cn5  v100
 BYTE   W24
 BYTE   Dn5
 BYTE   W24
 BYTE   PEND 
//  #01 //033   ----------------------------------------
Label_011F2F06:
 BYTE   N32  Cn5  v100
 BYTE   W36
 BYTE   Fn4
 BYTE   W36
 BYTE   N11  Gn4
 BYTE   W12
 BYTE   TIE  An4
 BYTE   W12
 BYTE   PEND 
//  #01 //034   ----------------------------------------
 BYTE   W88
 BYTE   W01
 BYTE   EOT
 BYTE   W01
 BYTE   N68  Dn5  v112
 BYTE   W06
//  #01 //035   ----------------------------------------
 BYTE   PATT
  POIN2 Label_011F2ECD
//  #01 //036   ----------------------------------------
 BYTE   PATT
  POIN2 Label_011F2ED5
//  #01 //037   ----------------------------------------
Label_011F2F25:
 BYTE   N32  En5  v112
 BYTE   W36
 BYTE   N23  Cn5  v100
 BYTE   W24
 BYTE   N11  Dn5
 BYTE   W12
 BYTE   N92  An4
 BYTE   W24
 BYTE   PEND 
//  #01 //038   ----------------------------------------
Label_011F2F34:
 BYTE   W72
 BYTE   N11  Gn4  v100
 BYTE   W12
 BYTE   An4
 BYTE   W12
 BYTE   PEND 
//  #01 //039   ----------------------------------------
 BYTE   PATT
  POIN2 Label_011F2EF0
//  #01 //040   ----------------------------------------
Label_011F2F41:
 BYTE   N56  As4  v112
 BYTE   W60
 BYTE   N11  An4  v100
 BYTE   W12
 BYTE   N11
 BYTE   W12
 BYTE   Fn4
 BYTE   W12
 BYTE   PEND 
//  #01 //041   ----------------------------------------
Label_011F2F4E:
 BYTE   N32  Gn4  v112
 BYTE   W36
 BYTE   N44  Cn4  v100
 BYTE   W48
 BYTE   TIE  Cs4
 BYTE   W12
 BYTE   PEND 
//  #01 //042   ----------------------------------------
 BYTE   W92
 BYTE   W01
 BYTE   EOT
 BYTE   W03
//  #01 //043   ----------------------------------------
 BYTE   W96
//  #01 //044   ----------------------------------------
 BYTE   W96
//  #01 //045   ----------------------------------------
Label_011F2F60:
 BYTE   N05  Fn3  v092
 BYTE   N05  Dn4  v100
 BYTE   W18
 BYTE   N76  Fn3  v092
 BYTE   N72  Dn4  v100
 BYTE   W78
 BYTE   PEND 
//  #01 //046   ----------------------------------------
Label_011F2F6F:
 BYTE   N05  En3  v092
 BYTE   N05  Cs4  v100
 BYTE   W18
 BYTE   TIE  En3  v092
 BYTE   TIE  Cs4  v100
 BYTE   W78
 BYTE   PEND 
//  #01 //047   ----------------------------------------
 BYTE   W96
//  #01 //048   ----------------------------------------
 BYTE   W90
 BYTE   EOT
 BYTE   W05
 BYTE   EOT
 BYTE   En3
 BYTE   W01
//  #01 //049   ----------------------------------------
 BYTE   PATT
  POIN2 Label_011F2DEA
//  #01 //050   ----------------------------------------
 BYTE   PATT
  POIN2 Label_011F2DFB
//  #01 //051   ----------------------------------------
 BYTE   PATT
  POIN2 Label_011F2E0A
//  #01 //052   ----------------------------------------
 BYTE   PATT
  POIN2 Label_011F2DFB
//  #01 //053   ----------------------------------------
 BYTE   PATT
  POIN2 Label_011F2E2B
//  #01 //054   ----------------------------------------
 BYTE   PATT
  POIN2 Label_011F2E39
//  #01 //055   ----------------------------------------
 BYTE   W68
 BYTE   W03
 BYTE   EOT
 BYTE   Cs4  v076
 BYTE   W01
 BYTE   N04  Dn4  v080
 BYTE   W03
 BYTE   Cn4  v072
 BYTE   W03
 BYTE   Bn3
 BYTE   W03
 BYTE   An3
 BYTE   W03
 BYTE   Gn3
 BYTE   W06
 BYTE   N52  Dn4  v112
 BYTE   W06
//  #01 //056   ----------------------------------------
 BYTE   PATT
  POIN2 Label_011F2E58
//  #01 //057   ----------------------------------------
 BYTE   PATT
  POIN2 Label_011F2E68
//  #01 //058   ----------------------------------------
 BYTE   PATT
  POIN2 Label_011F2E77
//  #01 //059   ----------------------------------------
 BYTE   PATT
  POIN2 Label_011F2E92
//  #01 //060   ----------------------------------------
 BYTE   N92  Dn4  v104
 BYTE   W96
//  #01 //061   ----------------------------------------
 BYTE   PATT
  POIN2 Label_011F2EA5
//  #01 //062   ----------------------------------------
 BYTE   W96
//  #01 //063   ----------------------------------------
 BYTE   W32
 BYTE   W02
 BYTE   EOT
 BYTE   An3  v074
 BYTE   W14
 BYTE   N08  Fn4  v100
 BYTE   W12
 BYTE   Gn4
 BYTE   W12
 BYTE   N05  An4
 BYTE   W06
 BYTE   N11  Cn5  v112
 BYTE   W12
 BYTE   N76  Dn5
 BYTE   W06
//  #01 //064   ----------------------------------------
 BYTE   PATT
  POIN2 Label_011F2ECD
//  #01 //065   ----------------------------------------
 BYTE   PATT
  POIN2 Label_011F2ED5
//  #01 //066   ----------------------------------------
 BYTE   PATT
  POIN2 Label_011F2EDD
//  #01 //067   ----------------------------------------
 BYTE   W92
 BYTE   W03
 BYTE   EOT
 BYTE   An4
 BYTE   W01
//  #01 //068   ----------------------------------------
 BYTE   PATT
  POIN2 Label_011F2EF0
//  #01 //069   ----------------------------------------
 BYTE   PATT
  POIN2 Label_011F2EFB
//  #01 //070   ----------------------------------------
 BYTE   PATT
  POIN2 Label_011F2F06
//  #01 //071   ----------------------------------------
 BYTE   W88
 BYTE   W01
 BYTE   EOT
 BYTE   An4
 BYTE   W01
 BYTE   N68  Dn5  v112
 BYTE   W06
//  #01 //072   ----------------------------------------
 BYTE   PATT
  POIN2 Label_011F2ECD
//  #01 //073   ----------------------------------------
 BYTE   PATT
  POIN2 Label_011F2ED5
//  #01 //074   ----------------------------------------
 BYTE   PATT
  POIN2 Label_011F2F25
//  #01 //075   ----------------------------------------
 BYTE   PATT
  POIN2 Label_011F2F34
//  #01 //076   ----------------------------------------
 BYTE   PATT
  POIN2 Label_011F2EF0
//  #01 //077   ----------------------------------------
 BYTE   PATT
  POIN2 Label_011F2F41
//  #01 //078   ----------------------------------------
 BYTE   PATT
  POIN2 Label_011F2F4E
//  #01 //079   ----------------------------------------
 BYTE   W92
 BYTE   W01
 BYTE   EOT
 BYTE   Cs4
 BYTE   W03
//  #01 //080   ----------------------------------------
 BYTE   W96
//  #01 //081   ----------------------------------------
 BYTE   W96
//  #01 //082   ----------------------------------------
 BYTE   PATT
  POIN2 Label_011F2F60
//  #01 //083   ----------------------------------------
 BYTE   PATT
  POIN2 Label_011F2F6F
//  #01 //084   ----------------------------------------
 BYTE   W96
//  #01 //085   ----------------------------------------
 BYTE   W90
 BYTE   EOT
 BYTE   Cs4
 BYTE   W05
 BYTE   En3
 BYTE   W01
//  #01 //086   ----------------------------------------
 BYTE   W96
//  #01 //087   ----------------------------------------
 BYTE   W96
//  #01 //088   ----------------------------------------
 BYTE   W96
//  #01 //089   ----------------------------------------
 BYTE   W96
//  #01 //090   ----------------------------------------
 BYTE   W96
//  #01 //091   ----------------------------------------
 BYTE   W96
//  #01 //092   ----------------------------------------
 BYTE   W96
//  #01 //093   ----------------------------------------
 BYTE   W96
//  #01 //094   ----------------------------------------
 BYTE   W96
//  #01 //095   ----------------------------------------
 BYTE   W96
//  #01 //096   ----------------------------------------
 BYTE   W96
//  #01 //097   ----------------------------------------
 BYTE   W96
//  #01 //098   ----------------------------------------
 BYTE   W96
//  #01 //099   ----------------------------------------
 BYTE   W96
//  #01 //100   ----------------------------------------
 BYTE   W96
//  #01 //101   ----------------------------------------
 BYTE   W96
//  #01 //102   ----------------------------------------
 BYTE   W96
//  #01 //103   ----------------------------------------
 BYTE   W96
//  #01 //104   ----------------------------------------
 BYTE   W96
//  #01 //105   ----------------------------------------
 BYTE   W96
//  #01 //106   ----------------------------------------
 BYTE   W96
//  #01 //107   ----------------------------------------
 BYTE   W96
//  #01 //108   ----------------------------------------
 BYTE   W96
//  #01 //109   ----------------------------------------
 BYTE   W92
 BYTE   W03
 BYTE   GoTo
  POIN2 Label_011F2DE6
 BYTE   FINE

//**************** Track 2 (Midi-Chn.1) ****************//

FirstStepTowardsWar_002:
//  #02 //000   ----------------------------------------
 BYTE   KEYSH   FirstStepTowardsWar_key+0
 BYTE   VOICE   36
 BYTE   PAN   c_v+0
 BYTE   VOL   25*FirstStepTowardsWar_mvl/mxv
 BYTE   W96
//  #02 //001   ----------------------------------------
 BYTE   W96
//  #02 //002   ----------------------------------------
 BYTE   W96
//  #02 //003   ----------------------------------------
 BYTE   W96
//  #02 //004   ----------------------------------------
 BYTE   W96
//  #02 //005   ----------------------------------------
 BYTE   W96
//  #02 //006   ----------------------------------------
 BYTE   W96
//  #02 //007   ----------------------------------------
 BYTE   W96
//  #02 //008   ----------------------------------------
Label_011FB3C4:
 BYTE   N11  Dn1  v112
 BYTE   W12
 BYTE   N01  Dn1  v092
 BYTE   W06
 BYTE   N01
 BYTE   W06
 BYTE   N11  Dn1  v112
 BYTE   W12
 BYTE   N01  Dn1  v092
 BYTE   W06
 BYTE   N01
 BYTE   W06
 BYTE   N11  Dn1  v112
 BYTE   W12
 BYTE   N01  Dn1  v092
 BYTE   W06
 BYTE   N01
 BYTE   W06
 BYTE   N11  Dn1  v112
 BYTE   W12
 BYTE   N01  Dn1  v092
 BYTE   W06
 BYTE   N01
 BYTE   W06
//  #02 //009   ----------------------------------------
 BYTE   N11  Cn1  v112
 BYTE   W12
 BYTE   N01  Cn1  v092
 BYTE   W06
 BYTE   N01
 BYTE   W06
 BYTE   N11  Cn1  v112
 BYTE   W12
 BYTE   N01  Cn1  v092
 BYTE   W06
 BYTE   N01
 BYTE   W06
 BYTE   N11  Cn1  v112
 BYTE   W12
 BYTE   N01  Cn1  v092
 BYTE   W06
 BYTE   N01
 BYTE   W06
 BYTE   N11  Cn1  v112
 BYTE   W12
 BYTE   N01  Cn1  v092
 BYTE   W06
 BYTE   N01
 BYTE   W06
//  #02 //010   ----------------------------------------
 BYTE   N11  As0  v112
 BYTE   W12
 BYTE   N01  As0  v092
 BYTE   W06
 BYTE   N01
 BYTE   W06
 BYTE   N11  As0  v112
 BYTE   W12
 BYTE   N01  As0  v092
 BYTE   W06
 BYTE   N01
 BYTE   W06
 BYTE   N11  As0  v112
 BYTE   W12
 BYTE   N01  As0  v092
 BYTE   W06
 BYTE   N01
 BYTE   W06
 BYTE   N11  As0  v112
 BYTE   W12
 BYTE   N01  As0  v092
 BYTE   W06
 BYTE   N01
 BYTE   W06
//  #02 //011   ----------------------------------------
 BYTE   N11  An0  v112
 BYTE   W12
 BYTE   N01  An0  v092
 BYTE   W06
 BYTE   N01
 BYTE   W06
 BYTE   N11  An0  v112
 BYTE   W12
 BYTE   N01  An0  v092
 BYTE   W06
 BYTE   N01
 BYTE   W06
 BYTE   N11  As0  v112
 BYTE   W12
 BYTE   As1  v127
 BYTE   W12
 BYTE   N05  Cn1  v112
 BYTE   W06
 BYTE   N02  Cn2  v127
 BYTE   W18
//  #02 //012   ----------------------------------------
Label_011FB45F:
 BYTE   N11  Dn1  v100
 BYTE   W12
 BYTE   N01  Dn1  v092
 BYTE   W06
 BYTE   N01
 BYTE   W06
 BYTE   N11  Dn1  v100
 BYTE   W12
 BYTE   N01  Dn1  v092
 BYTE   W06
 BYTE   N01
 BYTE   W06
 BYTE   N11  Dn1  v100
 BYTE   W12
 BYTE   N01  Dn1  v092
 BYTE   W06
 BYTE   N01
 BYTE   W06
 BYTE   N05  Dn1  v100
 BYTE   W06
 BYTE   N02  Dn2  v127
 BYTE   W06
 BYTE   BEND   c_v-11
 BYTE   N11  Dn1  v100
 BYTE   W06
 BYTE   BEND   c_v+0
 BYTE   W06
 BYTE   PEND 
//  #02 //013   ----------------------------------------
Label_011FB48F:
 BYTE   N11  Fn1  v100
 BYTE   W12
 BYTE   N01  Fn1  v092
 BYTE   W06
 BYTE   N01
 BYTE   W06
 BYTE   N05  Fn1  v100
 BYTE   W06
 BYTE   N02  Fn2  v127
 BYTE   W12
 BYTE   N01  Fn1  v092
 BYTE   W06
 BYTE   N11  Gn1  v100
 BYTE   W12
 BYTE   N01  Gn1  v092
 BYTE   W06
 BYTE   N01
 BYTE   W05
 BYTE   BEND   c_v-6
 BYTE   W01
 BYTE   N05  Gn2  v100
 BYTE   W02
 BYTE   BEND   c_v+0
 BYTE   W04
 BYTE   N04  Dn2  v092
 BYTE   W06
 BYTE   N05  Bn1
 BYTE   W06
 BYTE   N04  Gn1
 BYTE   W06
 BYTE   PEND 
//  #02 //014   ----------------------------------------
 BYTE   PATT
  POIN2 Label_011FB45F
//  #02 //015   ----------------------------------------
 BYTE   PATT
  POIN2 Label_011FB48F
//  #02 //016   ----------------------------------------
Label_011FB4CE:
 BYTE   N10  As0  v100
 BYTE   W12
 BYTE   N01  As0  v080
 BYTE   W06
 BYTE   N01
 BYTE   W06
 BYTE   N10  As0  v100
 BYTE   W12
 BYTE   N01  As0  v080
 BYTE   W06
 BYTE   N01
 BYTE   W06
 BYTE   N10  As0  v100
 BYTE   W12
 BYTE   N01  As0  v080
 BYTE   W06
 BYTE   N01
 BYTE   W06
 BYTE   N05  As0  v100
 BYTE   W06
 BYTE   N02  As1  v080
 BYTE   W12
 BYTE   N01  As0
 BYTE   W06
 BYTE   PEND 
//  #02 //017   ----------------------------------------
Label_011FB4F8:
 BYTE   N10  An0  v100
 BYTE   W12
 BYTE   N01  An0  v080
 BYTE   W06
 BYTE   N01
 BYTE   W06
 BYTE   N10  An0  v100
 BYTE   W12
 BYTE   N01  An0  v080
 BYTE   W06
 BYTE   N01
 BYTE   W06
 BYTE   N10  An0  v100
 BYTE   W12
 BYTE   N01  An0  v080
 BYTE   W06
 BYTE   N01
 BYTE   W06
 BYTE   N10  An0  v100
 BYTE   W12
 BYTE   N01  An0  v080
 BYTE   W06
 BYTE   N01
 BYTE   W06
 BYTE   PEND 
//  #02 //018   ----------------------------------------
Label_011FB521:
 BYTE   N10  An0  v100
 BYTE   W12
 BYTE   N01  An0  v080
 BYTE   W06
 BYTE   N01
 BYTE   W06
 BYTE   N10  An0  v100
 BYTE   W12
 BYTE   N01  An0  v080
 BYTE   W06
 BYTE   N01
 BYTE   W06
 BYTE   N10  An0  v100
 BYTE   W12
 BYTE   N01  An0  v080
 BYTE   W06
 BYTE   N01
 BYTE   W06
 BYTE   N05  An0  v100
 BYTE   W06
 BYTE   N04
 BYTE   W06
 BYTE   N01  An0  v080
 BYTE   W06
 BYTE   N05  Dn2  v127
 BYTE   W06
 BYTE   PEND 
//  #02 //019   ----------------------------------------
Label_011FB54E:
 BYTE   W12
 BYTE   N01  Dn1  v092
 BYTE   W06
 BYTE   N01
 BYTE   W06
 BYTE   N11  Dn1  v100
 BYTE   W12
 BYTE   N01  Dn1  v092
 BYTE   W06
 BYTE   N01
 BYTE   W06
 BYTE   N11  Dn1  v100
 BYTE   W12
 BYTE   N01  Dn1  v092
 BYTE   W06
 BYTE   N01
 BYTE   W06
 BYTE   N05  Dn1  v100
 BYTE   W06
 BYTE   N02  Dn2  v127
 BYTE   W06
 BYTE   BEND   c_v-11
 BYTE   N11  Dn1  v100
 BYTE   W06
 BYTE   BEND   c_v+0
 BYTE   W06
 BYTE   PEND 
//  #02 //020   ----------------------------------------
Label_011FB57B:
 BYTE   N11  Fn1  v100
 BYTE   W12
 BYTE   N01  Fn1  v092
 BYTE   W06
 BYTE   N01
 BYTE   W06
 BYTE   N05  Fn1  v100
 BYTE   W06
 BYTE   N02  Fn2  v127
 BYTE   W12
 BYTE   N01  Fn1  v092
 BYTE   W06
 BYTE   N11  Gn1  v100
 BYTE   W12
 BYTE   N01  Gn1  v092
 BYTE   W06
 BYTE   N01
 BYTE   W06
 BYTE   N05  Gn2  v100
 BYTE   W06
 BYTE   N04  Dn2  v092
 BYTE   W06
 BYTE   N05  Bn1
 BYTE   W06
 BYTE   N04  Gn1
 BYTE   W06
 BYTE   PEND 
//  #02 //021   ----------------------------------------
 BYTE   PATT
  POIN2 Label_011FB45F
//  #02 //022   ----------------------------------------
 BYTE   PATT
  POIN2 Label_011FB57B
//  #02 //023   ----------------------------------------
 BYTE   PATT
  POIN2 Label_011FB4CE
//  #02 //024   ----------------------------------------
Label_011FB5B9:
 BYTE   N10  An0  v100
 BYTE   W12
 BYTE   N01  An0  v080
 BYTE   W06
 BYTE   N01
 BYTE   W06
 BYTE   N10  An0  v100
 BYTE   W12
 BYTE   N01  An0  v080
 BYTE   W06
 BYTE   N01
 BYTE   W06
 BYTE   N10  An0  v100
 BYTE   W12
 BYTE   N01  An0  v080
 BYTE   W06
 BYTE   N01
 BYTE   W06
 BYTE   N10  An0  v100
 BYTE   W12
 BYTE   N02
 BYTE   W03
 BYTE   N02
 BYTE   W03
 BYTE   Dn2  v127
 BYTE   W06
 BYTE   PEND 
//  #02 //025   ----------------------------------------
Label_011FB5E3:
 BYTE   W12
 BYTE   N06  Dn1  v112
 BYTE   W11
 BYTE   BEND   c_v+15
 BYTE   W01
 BYTE   N11  An1  v100
 BYTE   W06
 BYTE   BEND   c_v+0
 BYTE   W05
 BYTE   W01
 BYTE   N05  Fn1  v092
 BYTE   W06
 BYTE   Dn1
 BYTE   W06
 BYTE   Dn1  v100
 BYTE   W06
 BYTE   N05
 BYTE   W06
 BYTE   Dn2  v127
 BYTE   W12
 BYTE   Cn2
 BYTE   W06
 BYTE   N10  An1  v112
 BYTE   W12
 BYTE   Dn1
 BYTE   W06
 BYTE   PEND 
//  #02 //026   ----------------------------------------
Label_011FB60A:
 BYTE   W12
 BYTE   N05  Dn1  v100
 BYTE   W12
 BYTE   N01  Cn1
 BYTE   W06
 BYTE   N10  Dn2  v120
 BYTE   W12
 BYTE   N02
 BYTE   W06
 BYTE   N06  Dn1  v112
 BYTE   W06
 BYTE   N05  Dn1  v100
 BYTE   W06
 BYTE   N06  En1  v112
 BYTE   W06
 BYTE   N05  En1  v100
 BYTE   W06
 BYTE   N06  Fn1  v112
 BYTE   W06
 BYTE   N09  An1  v127
 BYTE   W12
 BYTE   N05  As1
 BYTE   W06
 BYTE   PEND 
//  #02 //027   ----------------------------------------
Label_011FB634:
 BYTE   W12
 BYTE   N05  As0  v092
 BYTE   W06
 BYTE   N05
 BYTE   W06
 BYTE   As0  v112
 BYTE   W12
 BYTE   As0  v092
 BYTE   W06
 BYTE   N05
 BYTE   W06
 BYTE   As0  v112
 BYTE   W12
 BYTE   As0  v092
 BYTE   W06
 BYTE   N05
 BYTE   W06
 BYTE   As0  v112
 BYTE   W12
 BYTE   As0  v092
 BYTE   W06
 BYTE   N05
 BYTE   W06
 BYTE   PEND 
//  #02 //028   ----------------------------------------
Label_011FB654:
 BYTE   N05  As0  v112
 BYTE   W12
 BYTE   As0  v092
 BYTE   W06
 BYTE   N05
 BYTE   W06
 BYTE   As0  v112
 BYTE   W12
 BYTE   As0  v092
 BYTE   W06
 BYTE   N05
 BYTE   W06
 BYTE   As0  v112
 BYTE   W12
 BYTE   As0  v092
 BYTE   W06
 BYTE   N05
 BYTE   W06
 BYTE   As0  v112
 BYTE   W12
 BYTE   As0  v092
 BYTE   W06
 BYTE   N05
 BYTE   W06
 BYTE   PEND 
//  #02 //029   ----------------------------------------
Label_011FB676:
 BYTE   N05  An0  v112
 BYTE   W12
 BYTE   An0  v092
 BYTE   W06
 BYTE   N05
 BYTE   W06
 BYTE   An0  v112
 BYTE   W12
 BYTE   An0  v092
 BYTE   W06
 BYTE   N05
 BYTE   W06
 BYTE   An0  v112
 BYTE   W12
 BYTE   An0  v092
 BYTE   W06
 BYTE   N05
 BYTE   W06
 BYTE   An0  v112
 BYTE   W12
 BYTE   An0  v092
 BYTE   W06
 BYTE   N05
 BYTE   W06
 BYTE   PEND 
//  #02 //030   ----------------------------------------
Label_011FB698:
 BYTE   N05  An0  v112
 BYTE   W12
 BYTE   An0  v092
 BYTE   W06
 BYTE   N05
 BYTE   W06
 BYTE   An0  v112
 BYTE   W12
 BYTE   An0  v092
 BYTE   W06
 BYTE   N05
 BYTE   W06
 BYTE   An0  v112
 BYTE   W12
 BYTE   An0  v092
 BYTE   W06
 BYTE   N05
 BYTE   W06
 BYTE   BEND   c_v+8
 BYTE   N11  Gn1  v112
 BYTE   W06
 BYTE   BEND   c_v+0
 BYTE   W05
 BYTE   W01
 BYTE   N05  Cn1  v092
 BYTE   W06
 BYTE   An0
 BYTE   W06
 BYTE   PEND 
//  #02 //031   ----------------------------------------
Label_011FB6C2:
 BYTE   N05  Gn0  v112
 BYTE   W12
 BYTE   Gn0  v092
 BYTE   W06
 BYTE   N05
 BYTE   W06
 BYTE   Gn0  v112
 BYTE   W12
 BYTE   Gn0  v092
 BYTE   W06
 BYTE   N05
 BYTE   W06
 BYTE   Gn0  v112
 BYTE   W12
 BYTE   Gn0  v092
 BYTE   W06
 BYTE   N05
 BYTE   W06
 BYTE   Gn0  v112
 BYTE   W12
 BYTE   Gn0  v092
 BYTE   W06
 BYTE   N05
 BYTE   W06
 BYTE   PEND 
//  #02 //032   ----------------------------------------
 BYTE   PATT
  POIN2 Label_011FB6C2
//  #02 //033   ----------------------------------------
Label_011FB6E9:
 BYTE   N05  Fn0  v112
 BYTE   W12
 BYTE   Fn0  v092
 BYTE   W06
 BYTE   N05
 BYTE   W06
 BYTE   Fn0  v112
 BYTE   W12
 BYTE   Fn0  v092
 BYTE   W06
 BYTE   N05
 BYTE   W06
 BYTE   Fn0  v112
 BYTE   W12
 BYTE   Fn0  v092
 BYTE   W06
 BYTE   N05
 BYTE   W06
 BYTE   Fn0  v112
 BYTE   W12
 BYTE   Fn0  v092
 BYTE   W06
 BYTE   N04  Gn0
 BYTE   W06
 BYTE   PEND 
//  #02 //034   ----------------------------------------
Label_011FB70C:
 BYTE   N05  An0  v112
 BYTE   W12
 BYTE   An0  v092
 BYTE   W06
 BYTE   N05
 BYTE   W06
 BYTE   An0  v112
 BYTE   W12
 BYTE   An0  v092
 BYTE   W06
 BYTE   N05
 BYTE   W06
 BYTE   An0  v100
 BYTE   W12
 BYTE   An0  v092
 BYTE   W06
 BYTE   N05
 BYTE   W06
 BYTE   An0  v112
 BYTE   W12
 BYTE   N01  En0  v040
 BYTE   W02
 BYTE   Gn0
 BYTE   W02
 BYTE   An0
 BYTE   W02
 BYTE   N02  As1  v127
 BYTE   W06
 BYTE   PEND 
//  #02 //035   ----------------------------------------
 BYTE   PATT
  POIN2 Label_011FB634
//  #02 //036   ----------------------------------------
 BYTE   PATT
  POIN2 Label_011FB654
//  #02 //037   ----------------------------------------
 BYTE   PATT
  POIN2 Label_011FB676
//  #02 //038   ----------------------------------------
 BYTE   PATT
  POIN2 Label_011FB698
//  #02 //039   ----------------------------------------
 BYTE   PATT
  POIN2 Label_011FB6C2
//  #02 //040   ----------------------------------------
Label_011FB74E:
 BYTE   N05  Ds1  v112
 BYTE   W12
 BYTE   Ds1  v092
 BYTE   W06
 BYTE   N05
 BYTE   W06
 BYTE   Ds1  v112
 BYTE   W12
 BYTE   Ds1  v092
 BYTE   W06
 BYTE   N05
 BYTE   W06
 BYTE   Ds1  v112
 BYTE   W12
 BYTE   Ds1  v092
 BYTE   W06
 BYTE   N05
 BYTE   W06
 BYTE   Ds1  v112
 BYTE   W12
 BYTE   Ds1  v092
 BYTE   W06
 BYTE   N05
 BYTE   W06
 BYTE   PEND 
//  #02 //041   ----------------------------------------
Label_011FB770:
 BYTE   N05  Cn1  v112
 BYTE   W12
 BYTE   Cn1  v092
 BYTE   W06
 BYTE   N05
 BYTE   W06
 BYTE   Cn1  v112
 BYTE   W12
 BYTE   Cn1  v092
 BYTE   W06
 BYTE   N05
 BYTE   W06
 BYTE   Cn1  v112
 BYTE   W12
 BYTE   Cn1  v092
 BYTE   W06
 BYTE   N05
 BYTE   W06
 BYTE   Cn1  v112
 BYTE   W12
 BYTE   Cn1  v092
 BYTE   W06
 BYTE   N05
 BYTE   W06
 BYTE   PEND 
//  #02 //042   ----------------------------------------
Label_011FB792:
 BYTE   N05  An0  v100
 BYTE   W12
 BYTE   An0  v080
 BYTE   W06
 BYTE   N05
 BYTE   W06
 BYTE   An0  v100
 BYTE   W12
 BYTE   An0  v080
 BYTE   W06
 BYTE   N05
 BYTE   W06
 BYTE   An0  v100
 BYTE   W12
 BYTE   An0  v080
 BYTE   W06
 BYTE   N05
 BYTE   W06
 BYTE   An0  v100
 BYTE   W12
 BYTE   An0  v080
 BYTE   W06
 BYTE   N02  Dn2  v127
 BYTE   W06
 BYTE   PEND 
//  #02 //043   ----------------------------------------
 BYTE   PATT
  POIN2 Label_011FB5E3
//  #02 //044   ----------------------------------------
Label_011FB7BB:
 BYTE   W12
 BYTE   N05  Dn1  v100
 BYTE   W12
 BYTE   N01  Cn1
 BYTE   W06
 BYTE   N10  Dn2  v120
 BYTE   W12
 BYTE   N02
 BYTE   W06
 BYTE   N05  Dn1  v112
 BYTE   W06
 BYTE   Dn1  v100
 BYTE   W06
 BYTE   En1  v112
 BYTE   W06
 BYTE   En1  v100
 BYTE   W06
 BYTE   Fn1  v112
 BYTE   W06
 BYTE   N09  An1  v127
 BYTE   W12
 BYTE   N05  As0  v112
 BYTE   W06
 BYTE   PEND 
//  #02 //045   ----------------------------------------
 BYTE   W18
 BYTE   N72  As0  v100
 BYTE   W78
//  #02 //046   ----------------------------------------
Label_011FB7E7:
 BYTE   N05  An0  v112
 BYTE   W18
 BYTE   N28  An0  v100
 BYTE   W30
 BYTE   N05
 BYTE   W12
 BYTE   N05
 BYTE   W12
 BYTE   N05
 BYTE   W12
 BYTE   N05
 BYTE   W12
 BYTE   PEND 
//  #02 //047   ----------------------------------------
Label_011FB7F8:
 BYTE   N05  An0  v100
 BYTE   W12
 BYTE   N05
 BYTE   W12
 BYTE   N05
 BYTE   W12
 BYTE   N05
 BYTE   W12
 BYTE   N05
 BYTE   W12
 BYTE   N05
 BYTE   W12
 BYTE   N05
 BYTE   W12
 BYTE   N05
 BYTE   W12
 BYTE   PEND 
//  #02 //048   ----------------------------------------
 BYTE   PATT
  POIN2 Label_011FB7F8
//  #02 //049   ----------------------------------------
 BYTE   PATT
  POIN2 Label_011FB45F
//  #02 //050   ----------------------------------------
 BYTE   PATT
  POIN2 Label_011FB57B
//  #02 //051   ----------------------------------------
 BYTE   PATT
  POIN2 Label_011FB45F
//  #02 //052   ----------------------------------------
 BYTE   PATT
  POIN2 Label_011FB57B
//  #02 //053   ----------------------------------------
 BYTE   PATT
  POIN2 Label_011FB4CE
//  #02 //054   ----------------------------------------
 BYTE   PATT
  POIN2 Label_011FB4F8
//  #02 //055   ----------------------------------------
 BYTE   PATT
  POIN2 Label_011FB521
//  #02 //056   ----------------------------------------
 BYTE   PATT
  POIN2 Label_011FB54E
//  #02 //057   ----------------------------------------
 BYTE   PATT
  POIN2 Label_011FB57B
//  #02 //058   ----------------------------------------
 BYTE   PATT
  POIN2 Label_011FB45F
//  #02 //059   ----------------------------------------
 BYTE   PATT
  POIN2 Label_011FB57B
//  #02 //060   ----------------------------------------
 BYTE   PATT
  POIN2 Label_011FB4CE
//  #02 //061   ----------------------------------------
 BYTE   PATT
  POIN2 Label_011FB5B9
//  #02 //062   ----------------------------------------
 BYTE   PATT
  POIN2 Label_011FB5E3
//  #02 //063   ----------------------------------------
 BYTE   PATT
  POIN2 Label_011FB60A
//  #02 //064   ----------------------------------------
 BYTE   PATT
  POIN2 Label_011FB634
//  #02 //065   ----------------------------------------
 BYTE   PATT
  POIN2 Label_011FB654
//  #02 //066   ----------------------------------------
 BYTE   PATT
  POIN2 Label_011FB676
//  #02 //067   ----------------------------------------
 BYTE   PATT
  POIN2 Label_011FB698
//  #02 //068   ----------------------------------------
 BYTE   PATT
  POIN2 Label_011FB6C2
//  #02 //069   ----------------------------------------
 BYTE   PATT
  POIN2 Label_011FB6C2
//  #02 //070   ----------------------------------------
 BYTE   PATT
  POIN2 Label_011FB6E9
//  #02 //071   ----------------------------------------
 BYTE   PATT
  POIN2 Label_011FB70C
//  #02 //072   ----------------------------------------
 BYTE   PATT
  POIN2 Label_011FB634
//  #02 //073   ----------------------------------------
 BYTE   PATT
  POIN2 Label_011FB654
//  #02 //074   ----------------------------------------
 BYTE   PATT
  POIN2 Label_011FB676
//  #02 //075   ----------------------------------------
 BYTE   PATT
  POIN2 Label_011FB698
//  #02 //076   ----------------------------------------
 BYTE   PATT
  POIN2 Label_011FB6C2
//  #02 //077   ----------------------------------------
 BYTE   PATT
  POIN2 Label_011FB74E
//  #02 //078   ----------------------------------------
 BYTE   PATT
  POIN2 Label_011FB770
//  #02 //079   ----------------------------------------
 BYTE   PATT
  POIN2 Label_011FB792
//  #02 //080   ----------------------------------------
 BYTE   PATT
  POIN2 Label_011FB5E3
//  #02 //081   ----------------------------------------
 BYTE   PATT
  POIN2 Label_011FB7BB
//  #02 //082   ----------------------------------------
 BYTE   W18
 BYTE   N72  As0  v100
 BYTE   W78
//  #02 //083   ----------------------------------------
 BYTE   PATT
  POIN2 Label_011FB7E7
//  #02 //084   ----------------------------------------
 BYTE   PATT
  POIN2 Label_011FB7F8
//  #02 //085   ----------------------------------------
 BYTE   N05  An0  v100
 BYTE   W12
 BYTE   N05
 BYTE   W12
 BYTE   N05
 BYTE   W12
 BYTE   N05
 BYTE   W12
 BYTE   N05
 BYTE   W12
 BYTE   N05
 BYTE   W12
 BYTE   N05
 BYTE   W12
 BYTE   N05
 BYTE   W11
 BYTE   VOICE   42
 BYTE   W01
//  #02 //086   ----------------------------------------
Label_011FB8D9:
 BYTE   N06  As0  v112
 BYTE   W12
 BYTE   As0  v072
 BYTE   W12
 BYTE   N06
 BYTE   W12
 BYTE   As0  v112
 BYTE   W12
 BYTE   As0  v072
 BYTE   W12
 BYTE   N06
 BYTE   W12
 BYTE   As0  v112
 BYTE   W12
 BYTE   As0  v072
 BYTE   W12
 BYTE   PEND 
//  #02 //087   ----------------------------------------
 BYTE   PATT
  POIN2 Label_011FB8D9
//  #02 //088   ----------------------------------------
Label_011FB8F6:
 BYTE   N06  An0  v112
 BYTE   W12
 BYTE   An0  v072
 BYTE   W12
 BYTE   N06
 BYTE   W12
 BYTE   An0  v112
 BYTE   W12
 BYTE   An0  v072
 BYTE   W12
 BYTE   N06
 BYTE   W12
 BYTE   An0  v112
 BYTE   W12
 BYTE   An0  v072
 BYTE   W12
 BYTE   PEND 
//  #02 //089   ----------------------------------------
 BYTE   PATT
  POIN2 Label_011FB8F6
//  #02 //090   ----------------------------------------
 BYTE   PATT
  POIN2 Label_011FB8D9
//  #02 //091   ----------------------------------------
 BYTE   PATT
  POIN2 Label_011FB8D9
//  #02 //092   ----------------------------------------
Label_011FB91D:
 BYTE   N06  Cn1  v112
 BYTE   W12
 BYTE   Cn1  v072
 BYTE   W12
 BYTE   N06
 BYTE   W12
 BYTE   Cn1  v112
 BYTE   W12
 BYTE   Cn1  v072
 BYTE   W12
 BYTE   N06
 BYTE   W12
 BYTE   Cn1  v112
 BYTE   W12
 BYTE   Cn1  v072
 BYTE   W12
 BYTE   PEND 
//  #02 //093   ----------------------------------------
Label_011FB935:
 BYTE   N06  Dn1  v112
 BYTE   W12
 BYTE   Dn1  v072
 BYTE   W12
 BYTE   N06
 BYTE   W12
 BYTE   Dn1  v112
 BYTE   W12
 BYTE   Dn1  v072
 BYTE   W12
 BYTE   N06
 BYTE   W12
 BYTE   Dn1  v112
 BYTE   W12
 BYTE   Dn1  v072
 BYTE   W12
 BYTE   PEND 
//  #02 //094   ----------------------------------------
 BYTE   PATT
  POIN2 Label_011FB8D9
//  #02 //095   ----------------------------------------
 BYTE   PATT
  POIN2 Label_011FB8D9
//  #02 //096   ----------------------------------------
 BYTE   PATT
  POIN2 Label_011FB8F6
//  #02 //097   ----------------------------------------
 BYTE   PATT
  POIN2 Label_011FB8F6
//  #02 //098   ----------------------------------------
 BYTE   PATT
  POIN2 Label_011FB8D9
//  #02 //099   ----------------------------------------
 BYTE   PATT
  POIN2 Label_011FB8D9
//  #02 //100   ----------------------------------------
 BYTE   PATT
  POIN2 Label_011FB91D
//  #02 //101   ----------------------------------------
 BYTE   PATT
  POIN2 Label_011FB935
//  #02 //102   ----------------------------------------
Label_011FB975:
 BYTE   N06  As0  v112
 BYTE   W12
 BYTE   As0  v092
 BYTE   W12
 BYTE   N06
 BYTE   W12
 BYTE   As0  v112
 BYTE   W12
 BYTE   As0  v092
 BYTE   W12
 BYTE   N06
 BYTE   W12
 BYTE   As0  v112
 BYTE   W12
 BYTE   As0  v092
 BYTE   W12
 BYTE   PEND 
//  #02 //103   ----------------------------------------
 BYTE   PATT
  POIN2 Label_011FB975
//  #02 //104   ----------------------------------------
Label_011FB992:
 BYTE   N06  An0  v112
 BYTE   W12
 BYTE   An0  v092
 BYTE   W12
 BYTE   N06
 BYTE   W12
 BYTE   An0  v112
 BYTE   W12
 BYTE   An0  v092
 BYTE   W12
 BYTE   N06
 BYTE   W12
 BYTE   An0  v112
 BYTE   W12
 BYTE   An0  v092
 BYTE   W12
 BYTE   PEND 
//  #02 //105   ----------------------------------------
 BYTE   PATT
  POIN2 Label_011FB992
//  #02 //106   ----------------------------------------
 BYTE   PATT
  POIN2 Label_011FB975
//  #02 //107   ----------------------------------------
 BYTE   PATT
  POIN2 Label_011FB975
//  #02 //108   ----------------------------------------
 BYTE   N06  Cn1  v112
 BYTE   W12
 BYTE   Cn1  v092
 BYTE   W12
 BYTE   N06
 BYTE   W12
 BYTE   Cn1  v112
 BYTE   W12
 BYTE   Cn1  v092
 BYTE   W12
 BYTE   N06
 BYTE   W12
 BYTE   Cn1  v112
 BYTE   W12
 BYTE   Cn1  v092
 BYTE   W12
//  #02 //109   ----------------------------------------
 BYTE   Dn1  v112
 BYTE   W12
 BYTE   Dn1  v092
 BYTE   W12
 BYTE   N06
 BYTE   W12
 BYTE   Dn1  v112
 BYTE   W12
 BYTE   Dn1  v092
 BYTE   W12
 BYTE   N06
 BYTE   W12
 BYTE   Dn1  v112
 BYTE   W12
 BYTE   Dn1  v092
 BYTE   W11
 BYTE   GoTo
  POIN2 Label_011FB3C4
 BYTE   FINE

//**************** Track 3 (Midi-Chn.2) ****************//

FirstStepTowardsWar_003:
//  #03 //000   ----------------------------------------
 BYTE   KEYSH   FirstStepTowardsWar_key+0
 BYTE   VOICE   28
 BYTE   PAN   c_v-10
 BYTE   VOL   20*FirstStepTowardsWar_mvl/mxv
 BYTE   BEND   c_v+0
 BYTE   W96
//  #03 //001   ----------------------------------------
 BYTE   W96
//  #03 //002   ----------------------------------------
 BYTE   W96
//  #03 //003   ----------------------------------------
 BYTE   W96
//  #03 //004   ----------------------------------------
 BYTE   W96
//  #03 //005   ----------------------------------------
 BYTE   W96
//  #03 //006   ----------------------------------------
 BYTE   W96
//  #03 //007   ----------------------------------------
 BYTE   W96
//  #03 //008   ----------------------------------------
Label_011F309A:
 BYTE   W96
//  #03 //009   ----------------------------------------
 BYTE   W96
//  #03 //010   ----------------------------------------
 BYTE   W96
//  #03 //011   ----------------------------------------
 BYTE   W96
//  #03 //012   ----------------------------------------
Label_011F309E:
 BYTE   N01  Dn2  v112
 BYTE   W06
 BYTE   N01
 BYTE   W05
 BYTE   BEND   c_v-11
 BYTE   W01
 BYTE   N11  An2  v092
 BYTE   W06
 BYTE   BEND   c_v+0
 BYTE   W06
 BYTE   N05  Dn2
 BYTE   W06
 BYTE   An2  v100
 BYTE   W66
 BYTE   PEND 
//  #03 //013   ----------------------------------------
 BYTE   W96
//  #03 //014   ----------------------------------------
 BYTE   PATT
  POIN2 Label_011F309E
//  #03 //015   ----------------------------------------
 BYTE   W96
//  #03 //016   ----------------------------------------
 BYTE   W96
//  #03 //017   ----------------------------------------
 BYTE   W96
//  #03 //018   ----------------------------------------
 BYTE   W90
 BYTE   N10  Dn2  v112
 BYTE   W06
//  #03 //019   ----------------------------------------
Label_011F30C3:
 BYTE   W06
 BYTE   N01  Dn2  v112
 BYTE   W05
 BYTE   BEND   c_v-11
 BYTE   W01
 BYTE   N11  An2  v092
 BYTE   W06
 BYTE   BEND   c_v+0
 BYTE   W06
 BYTE   N05  Dn2
 BYTE   W06
 BYTE   An2  v100
 BYTE   W66
 BYTE   PEND 
//  #03 //020   ----------------------------------------
 BYTE   W96
//  #03 //021   ----------------------------------------
 BYTE   PATT
  POIN2 Label_011F309E
//  #03 //022   ----------------------------------------
 BYTE   W96
//  #03 //023   ----------------------------------------
 BYTE   W96
//  #03 //024   ----------------------------------------
 BYTE   W96
//  #03 //025   ----------------------------------------
 BYTE   W96
//  #03 //026   ----------------------------------------
 BYTE   W96
//  #03 //027   ----------------------------------------
 BYTE   W96
//  #03 //028   ----------------------------------------
 BYTE   W96
//  #03 //029   ----------------------------------------
 BYTE   W96
//  #03 //030   ----------------------------------------
 BYTE   W96
//  #03 //031   ----------------------------------------
 BYTE   W96
//  #03 //032   ----------------------------------------
 BYTE   W96
//  #03 //033   ----------------------------------------
 BYTE   W96
//  #03 //034   ----------------------------------------
 BYTE   W96
//  #03 //035   ----------------------------------------
 BYTE   W96
//  #03 //036   ----------------------------------------
 BYTE   W96
//  #03 //037   ----------------------------------------
 BYTE   W96
//  #03 //038   ----------------------------------------
 BYTE   W96
//  #03 //039   ----------------------------------------
 BYTE   W96
//  #03 //040   ----------------------------------------
 BYTE   W96
//  #03 //041   ----------------------------------------
 BYTE   W96
//  #03 //042   ----------------------------------------
 BYTE   W96
//  #03 //043   ----------------------------------------
 BYTE   W96
//  #03 //044   ----------------------------------------
 BYTE   W96
//  #03 //045   ----------------------------------------
 BYTE   W96
//  #03 //046   ----------------------------------------
 BYTE   W96
//  #03 //047   ----------------------------------------
 BYTE   W96
//  #03 //048   ----------------------------------------
 BYTE   W96
//  #03 //049   ----------------------------------------
 BYTE   PATT
  POIN2 Label_011F309E
//  #03 //050   ----------------------------------------
 BYTE   W96
//  #03 //051   ----------------------------------------
 BYTE   PATT
  POIN2 Label_011F309E
//  #03 //052   ----------------------------------------
 BYTE   W96
//  #03 //053   ----------------------------------------
 BYTE   W96
//  #03 //054   ----------------------------------------
 BYTE   W96
//  #03 //055   ----------------------------------------
 BYTE   W90
 BYTE   N10  Dn2  v112
 BYTE   W06
//  #03 //056   ----------------------------------------
 BYTE   PATT
  POIN2 Label_011F30C3
//  #03 //057   ----------------------------------------
 BYTE   W96
//  #03 //058   ----------------------------------------
 BYTE   PATT
  POIN2 Label_011F309E
//  #03 //059   ----------------------------------------
 BYTE   W96
//  #03 //060   ----------------------------------------
 BYTE   W96
//  #03 //061   ----------------------------------------
 BYTE   W96
//  #03 //062   ----------------------------------------
 BYTE   W96
//  #03 //063   ----------------------------------------
 BYTE   W96
//  #03 //064   ----------------------------------------
 BYTE   W96
//  #03 //065   ----------------------------------------
 BYTE   W96
//  #03 //066   ----------------------------------------
 BYTE   W96
//  #03 //067   ----------------------------------------
 BYTE   W96
//  #03 //068   ----------------------------------------
 BYTE   W96
//  #03 //069   ----------------------------------------
 BYTE   W96
//  #03 //070   ----------------------------------------
 BYTE   W96
//  #03 //071   ----------------------------------------
 BYTE   W96
//  #03 //072   ----------------------------------------
 BYTE   W96
//  #03 //073   ----------------------------------------
 BYTE   W96
//  #03 //074   ----------------------------------------
 BYTE   W96
//  #03 //075   ----------------------------------------
 BYTE   W96
//  #03 //076   ----------------------------------------
 BYTE   W96
//  #03 //077   ----------------------------------------
 BYTE   W96
//  #03 //078   ----------------------------------------
 BYTE   W96
//  #03 //079   ----------------------------------------
 BYTE   W96
//  #03 //080   ----------------------------------------
 BYTE   W96
//  #03 //081   ----------------------------------------
 BYTE   W96
//  #03 //082   ----------------------------------------
 BYTE   W96
//  #03 //083   ----------------------------------------
 BYTE   W96
//  #03 //084   ----------------------------------------
 BYTE   W96
//  #03 //085   ----------------------------------------
 BYTE   W96
//  #03 //086   ----------------------------------------
 BYTE   W96
//  #03 //087   ----------------------------------------
 BYTE   W96
//  #03 //088   ----------------------------------------
 BYTE   W96
//  #03 //089   ----------------------------------------
 BYTE   W96
//  #03 //090   ----------------------------------------
 BYTE   W96
//  #03 //091   ----------------------------------------
 BYTE   W96
//  #03 //092   ----------------------------------------
 BYTE   W96
//  #03 //093   ----------------------------------------
 BYTE   W96
//  #03 //094   ----------------------------------------
 BYTE   W96
//  #03 //095   ----------------------------------------
 BYTE   W96
//  #03 //096   ----------------------------------------
 BYTE   W96
//  #03 //097   ----------------------------------------
 BYTE   W96
//  #03 //098   ----------------------------------------
 BYTE   W96
//  #03 //099   ----------------------------------------
 BYTE   W96
//  #03 //100   ----------------------------------------
 BYTE   W96
//  #03 //101   ----------------------------------------
 BYTE   W96
//  #03 //102   ----------------------------------------
 BYTE   W96
//  #03 //103   ----------------------------------------
 BYTE   W96
//  #03 //104   ----------------------------------------
 BYTE   W96
//  #03 //105   ----------------------------------------
 BYTE   W96
//  #03 //106   ----------------------------------------
 BYTE   W96
//  #03 //107   ----------------------------------------
 BYTE   W96
//  #03 //108   ----------------------------------------
 BYTE   W96
//  #03 //109   ----------------------------------------
 BYTE   W92
 BYTE   W03
 BYTE   GoTo
  POIN2 Label_011F309A
 BYTE   FINE

//**************** Track 4 (Midi-Chn.3) ****************//

FirstStepTowardsWar_004:
//  #04 //000   ----------------------------------------
 BYTE   KEYSH   FirstStepTowardsWar_key+0
 BYTE   VOICE   29
 BYTE   PAN   c_v+26
 BYTE   VOL   20*FirstStepTowardsWar_mvl/mxv
 BYTE   BEND   c_v+0
 BYTE   W96
//  #04 //001   ----------------------------------------
 BYTE   W96
//  #04 //002   ----------------------------------------
 BYTE   W96
//  #04 //003   ----------------------------------------
 BYTE   W96
//  #04 //004   ----------------------------------------
 BYTE   W96
//  #04 //005   ----------------------------------------
 BYTE   W96
//  #04 //006   ----------------------------------------
 BYTE   W96
//  #04 //007   ----------------------------------------
 BYTE   W96
//  #04 //008   ----------------------------------------
Label_011FB9FE:
 BYTE   N92  Dn2  v112
 BYTE   N92  An2  v092
 BYTE   W96
//  #04 //009   ----------------------------------------
 BYTE   Cn2  v112
 BYTE   N92  Gn2  v092
 BYTE   W96
//  #04 //010   ----------------------------------------
 BYTE   As1  v112
 BYTE   N92  Fn2  v092
 BYTE   W96
//  #04 //011   ----------------------------------------
 BYTE   N44  An1  v112
 BYTE   N44  En2  v092
 BYTE   W48
 BYTE   N01  As1  v112
 BYTE   N01  Fn2  v092
 BYTE   W06
 BYTE   As1  v112
 BYTE   N01  Fn2  v092
 BYTE   W06
 BYTE   N11  As1  v112
 BYTE   N11  Fn2  v092
 BYTE   W12
 BYTE   N01  Cn2  v112
 BYTE   N01  Gn2  v092
 BYTE   W06
 BYTE   N05  Cn2  v112
 BYTE   N05  Gn2  v092
 BYTE   W18
//  #04 //012   ----------------------------------------
Label_011FBA3A:
 BYTE   W36
 BYTE   N01  Dn3  v072
 BYTE   N01  Fn3
 BYTE   N01  An3  v092
 BYTE   W06
 BYTE   Dn3
 BYTE   N01  Fn3  v072
 BYTE   N01  An3
 BYTE   W06
 BYTE   Dn3  v112
 BYTE   N01  Fn3  v092
 BYTE   W01
 BYTE   An3
 BYTE   W11
 BYTE   Dn3  v072
 BYTE   N01  Fn3
 BYTE   N01  An3  v092
 BYTE   W06
 BYTE   Dn3
 BYTE   N01  Fn3  v072
 BYTE   N01  An3
 BYTE   W06
 BYTE   N11  Dn3  v112
 BYTE   N10  Fn3  v092
 BYTE   W01
 BYTE   An3
 BYTE   W11
 BYTE   N01  Dn3
 BYTE   N01  Fn3  v072
 BYTE   N01  An3
 BYTE   W06
 BYTE   Dn3
 BYTE   N01  Fn3
 BYTE   N01  An3  v092
 BYTE   W06
 BYTE   PEND 
//  #04 //013   ----------------------------------------
Label_011FBA7B:
 BYTE   N05  Cn3  v100
 BYTE   N05  Fn3  v080
 BYTE   W01
 BYTE   N04  An3
 BYTE   W11
 BYTE   N01  Cn3  v100
 BYTE   N01  Fn3  v080
 BYTE   N01  An3
 BYTE   W06
 BYTE   Cn3
 BYTE   N01  Fn3
 BYTE   N01  An3  v100
 BYTE   W06
 BYTE   Cn3
 BYTE   N01  Fn3  v080
 BYTE   N01  An3
 BYTE   W06
 BYTE   N11  An3  v100
 BYTE   W01
 BYTE   N10  Cn3  v080
 BYTE   N10  Fn3
 BYTE   W11
 BYTE   N01  Cn3  v072
 BYTE   N01  Fn3
 BYTE   N01  An3  v092
 BYTE   W06
 BYTE   N05  Dn3  v100
 BYTE   N05  Gn3  v080
 BYTE   W01
 BYTE   N04  Bn3
 BYTE   W11
 BYTE   N01  Dn3  v100
 BYTE   N01  Gn3  v080
 BYTE   N01  Bn3
 BYTE   W06
 BYTE   Dn3
 BYTE   N01  Gn3
 BYTE   N01  Bn3  v100
 BYTE   W06
 BYTE   N11  Dn3  v112
 BYTE   N10  Gn3  v092
 BYTE   W01
 BYTE   Bn3
 BYTE   W11
 BYTE   N01  Dn3  v100
 BYTE   N01  Gn3  v080
 BYTE   N01  Bn3
 BYTE   W06
 BYTE   Dn3
 BYTE   N01  Gn3
 BYTE   N01  Bn3  v100
 BYTE   W06
 BYTE   PEND 
//  #04 //014   ----------------------------------------
 BYTE   PATT
  POIN2 Label_011FBA3A
//  #04 //015   ----------------------------------------
Label_011FBAE8:
 BYTE   N05  Cn3  v100
 BYTE   N05  Fn3  v080
 BYTE   W01
 BYTE   N04  An3
 BYTE   W11
 BYTE   N01  Cn3  v100
 BYTE   N01  Fn3  v080
 BYTE   N01  An3
 BYTE   W06
 BYTE   Cn3
 BYTE   N01  Fn3
 BYTE   N01  An3  v100
 BYTE   W06
 BYTE   Cn3
 BYTE   N01  Fn3  v080
 BYTE   N01  An3
 BYTE   W06
 BYTE   N04  An3  v100
 BYTE   W01
 BYTE   N03  Cn3  v080
 BYTE   N04  Fn3
 BYTE   W11
 BYTE   N01  Cn3  v072
 BYTE   N01  Fn3
 BYTE   N01  An3  v092
 BYTE   W06
 BYTE   N05  Dn3  v100
 BYTE   N05  Gn3  v080
 BYTE   W01
 BYTE   N04  Bn3
 BYTE   W11
 BYTE   N01  Dn3  v100
 BYTE   N01  Gn3  v080
 BYTE   N01  Bn3
 BYTE   W06
 BYTE   Dn3
 BYTE   N01  Gn3
 BYTE   N01  Bn3  v100
 BYTE   W06
 BYTE   N11  Dn3  v112
 BYTE   N10  Gn3  v092
 BYTE   W01
 BYTE   Bn3
 BYTE   W11
 BYTE   N01  Dn3  v100
 BYTE   N01  Gn3  v080
 BYTE   N01  Bn3
 BYTE   W06
 BYTE   Dn3
 BYTE   N01  Gn3
 BYTE   N01  Bn3  v100
 BYTE   W06
 BYTE   PEND 
//  #04 //016   ----------------------------------------
Label_011FBB50:
 BYTE   N11  Dn3  v112
 BYTE   N11  Fn3  v092
 BYTE   W01
 BYTE   N10  As3
 BYTE   W11
 BYTE   N01  Dn3
 BYTE   N01  Fn3  v072
 BYTE   N01  As3
 BYTE   W06
 BYTE   Dn3
 BYTE   N01  Fn3
 BYTE   N01  As3  v092
 BYTE   W06
 BYTE   Dn3  v100
 BYTE   N01  Fn3  v080
 BYTE   N01  As3
 BYTE   W06
 BYTE   Dn3  v072
 BYTE   N01  Fn3
 BYTE   N01  As3  v092
 BYTE   W06
 BYTE   N11  Dn3
 BYTE   N11  Fn3  v072
 BYTE   W01
 BYTE   N10  As3
 BYTE   W11
 BYTE   N01  Dn3  v092
 BYTE   N01  Fn3  v072
 BYTE   N01  As3
 BYTE   W06
 BYTE   Dn3
 BYTE   N01  Fn3
 BYTE   N01  As3  v092
 BYTE   W06
 BYTE   N11  Dn3  v100
 BYTE   N11  Fn3  v080
 BYTE   W01
 BYTE   N10  As3
 BYTE   W11
 BYTE   N11  Dn3  v100
 BYTE   N11  Fn3  v080
 BYTE   W01
 BYTE   N10  As3
 BYTE   W11
 BYTE   N01  Dn3  v092
 BYTE   N01  Fn3  v072
 BYTE   N01  As3
 BYTE   W06
 BYTE   Dn3
 BYTE   N01  Fn3
 BYTE   N01  As3  v092
 BYTE   W06
 BYTE   PEND 
//  #04 //017   ----------------------------------------
Label_011FBBB7:
 BYTE   N11  Cs3  v112
 BYTE   N11  En3  v092
 BYTE   W01
 BYTE   N10  An3
 BYTE   W11
 BYTE   N01  Cs3
 BYTE   N01  En3  v072
 BYTE   N01  An3
 BYTE   W06
 BYTE   Cs3
 BYTE   N01  En3
 BYTE   N01  An3  v092
 BYTE   W06
 BYTE   Cs3  v100
 BYTE   N01  En3  v080
 BYTE   N01  An3
 BYTE   W06
 BYTE   Cs3  v072
 BYTE   N01  En3
 BYTE   N01  An3  v092
 BYTE   W06
 BYTE   N11  Cs3
 BYTE   N11  En3  v072
 BYTE   W01
 BYTE   N10  An3
 BYTE   W11
 BYTE   N01  Cs3  v092
 BYTE   N01  En3  v072
 BYTE   N01  An3
 BYTE   W06
 BYTE   Cs3
 BYTE   N01  En3
 BYTE   N01  An3  v092
 BYTE   W06
 BYTE   N11  Cs3  v100
 BYTE   N11  En3  v080
 BYTE   W01
 BYTE   N10  An3
 BYTE   W11
 BYTE   N11  Cs3  v100
 BYTE   N11  En3  v080
 BYTE   W01
 BYTE   N10  An3
 BYTE   W11
 BYTE   N01  Cs3  v092
 BYTE   N01  En3  v072
 BYTE   N01  An3
 BYTE   W06
 BYTE   Cs3
 BYTE   N01  En3
 BYTE   N01  An3  v092
 BYTE   W06
 BYTE   PEND 
//  #04 //018   ----------------------------------------
 BYTE   PATT
  POIN2 Label_011FBBB7
//  #04 //019   ----------------------------------------
 BYTE   PATT
  POIN2 Label_011FBA3A
//  #04 //020   ----------------------------------------
 BYTE   PATT
  POIN2 Label_011FBA7B
//  #04 //021   ----------------------------------------
 BYTE   PATT
  POIN2 Label_011FBA3A
//  #04 //022   ----------------------------------------
 BYTE   PATT
  POIN2 Label_011FBAE8
//  #04 //023   ----------------------------------------
 BYTE   PATT
  POIN2 Label_011FBB50
//  #04 //024   ----------------------------------------
Label_011FBC3C:
 BYTE   N11  Cn3  v112
 BYTE   N11  En3  v092
 BYTE   W01
 BYTE   N10  An3
 BYTE   W11
 BYTE   N01  Cn3
 BYTE   N01  En3  v072
 BYTE   N01  An3
 BYTE   W06
 BYTE   Cn3
 BYTE   N01  En3
 BYTE   N01  An3  v092
 BYTE   W06
 BYTE   Cn3  v100
 BYTE   N01  En3  v080
 BYTE   N01  An3
 BYTE   W06
 BYTE   Cn3  v072
 BYTE   N01  En3
 BYTE   N01  An3  v092
 BYTE   W06
 BYTE   N11  Cn3
 BYTE   N11  En3  v072
 BYTE   W01
 BYTE   N10  An3
 BYTE   W11
 BYTE   N01  Cn3  v092
 BYTE   N01  En3  v072
 BYTE   N01  An3
 BYTE   W06
 BYTE   Cn3
 BYTE   N01  En3
 BYTE   N01  An3  v092
 BYTE   W06
 BYTE   N11  Cn3  v100
 BYTE   N11  En3  v080
 BYTE   W01
 BYTE   N10  An3
 BYTE   W11
 BYTE   N11  Cn3  v100
 BYTE   N11  En3  v080
 BYTE   W01
 BYTE   N10  An3
 BYTE   W11
 BYTE   N01  Cn3  v092
 BYTE   N01  En3  v072
 BYTE   N01  An3
 BYTE   W06
 BYTE   Cn3
 BYTE   N01  En3
 BYTE   N01  An3  v092
 BYTE   W06
 BYTE   PEND 
//  #04 //025   ----------------------------------------
 BYTE   W96
//  #04 //026   ----------------------------------------
Label_011FBCA4:
 BYTE   W90
 BYTE   N15  As1  v112
 BYTE   N15  Fn2  v092
 BYTE   W06
 BYTE   PEND 
//  #04 //027   ----------------------------------------
Label_011FBCAD:
 BYTE   W12
 BYTE   N03  As1  v112
 BYTE   W06
 BYTE   N02
 BYTE   W06
 BYTE   N11
 BYTE   N11  Fn2  v092
 BYTE   W12
 BYTE   N03  As1  v112
 BYTE   W06
 BYTE   N02
 BYTE   W06
 BYTE   N11
 BYTE   N11  Fn2  v092
 BYTE   W12
 BYTE   N03  As1  v112
 BYTE   W06
 BYTE   N02
 BYTE   W06
 BYTE   N11
 BYTE   N11  Fn2  v092
 BYTE   W12
 BYTE   N03  As1  v112
 BYTE   W06
 BYTE   N02
 BYTE   W06
 BYTE   PEND 
//  #04 //028   ----------------------------------------
Label_011FBCD6:
 BYTE   N11  As1  v112
 BYTE   N11  Fn2  v092
 BYTE   W12
 BYTE   N03  As1  v112
 BYTE   W06
 BYTE   N02
 BYTE   W06
 BYTE   N11
 BYTE   N11  Fn2  v092
 BYTE   W12
 BYTE   N03  As1  v112
 BYTE   W06
 BYTE   N02
 BYTE   W06
 BYTE   N11
 BYTE   N11  Fn2  v092
 BYTE   W12
 BYTE   N03  As1  v112
 BYTE   W06
 BYTE   N02
 BYTE   W06
 BYTE   N11
 BYTE   N11  Fn2  v092
 BYTE   W12
 BYTE   N03  As1  v112
 BYTE   W06
 BYTE   N02
 BYTE   W06
 BYTE   PEND 
//  #04 //029   ----------------------------------------
Label_011FBD05:
 BYTE   N11  An1  v112
 BYTE   N11  En2  v092
 BYTE   W12
 BYTE   N03  An1  v112
 BYTE   W06
 BYTE   N02
 BYTE   W06
 BYTE   N11
 BYTE   N11  En2  v092
 BYTE   W12
 BYTE   N03  An1  v112
 BYTE   W06
 BYTE   N02
 BYTE   W06
 BYTE   N11
 BYTE   N11  En2  v092
 BYTE   W12
 BYTE   N03  An1  v112
 BYTE   W06
 BYTE   N02
 BYTE   W06
 BYTE   N11
 BYTE   N11  En2  v092
 BYTE   W12
 BYTE   N03  An1  v112
 BYTE   W06
 BYTE   N02
 BYTE   W06
 BYTE   PEND 
//  #04 //030   ----------------------------------------
 BYTE   PATT
  POIN2 Label_011FBD05
//  #04 //031   ----------------------------------------
Label_011FBD39:
 BYTE   N11  Gn1  v112
 BYTE   N11  Dn2  v092
 BYTE   W12
 BYTE   N03  Gn1  v112
 BYTE   W06
 BYTE   N02
 BYTE   W06
 BYTE   N11
 BYTE   N11  Dn2  v092
 BYTE   W12
 BYTE   N03  Gn1  v112
 BYTE   W06
 BYTE   N02
 BYTE   W06
 BYTE   N11
 BYTE   N11  Dn2  v092
 BYTE   W12
 BYTE   N03  Gn1  v112
 BYTE   W06
 BYTE   N02
 BYTE   W06
 BYTE   N11
 BYTE   N11  Dn2  v092
 BYTE   W12
 BYTE   N03  Gn1  v112
 BYTE   W06
 BYTE   N02
 BYTE   W06
 BYTE   PEND 
//  #04 //032   ----------------------------------------
 BYTE   PATT
  POIN2 Label_011FBD39
//  #04 //033   ----------------------------------------
Label_011FBD6D:
 BYTE   N11  Fn3  v127
 BYTE   W12
 BYTE   Cn3
 BYTE   W12
 BYTE   An2
 BYTE   W12
 BYTE   Fn3
 BYTE   W12
 BYTE   Cn3
 BYTE   W12
 BYTE   An2
 BYTE   W12
 BYTE   Fn3
 BYTE   W12
 BYTE   Cn3
 BYTE   W12
 BYTE   PEND 
//  #04 //034   ----------------------------------------
Label_011FBD80:
 BYTE   N11  En3  v127
 BYTE   W12
 BYTE   Cs3
 BYTE   W12
 BYTE   An2
 BYTE   W12
 BYTE   En3
 BYTE   W12
 BYTE   Cs3
 BYTE   W12
 BYTE   An2
 BYTE   W12
 BYTE   MOD 0
 BYTE   MOD 80
 BYTE   N16  En3
 BYTE   W12
 BYTE   BEND   c_v-12
 BYTE   W01
 BYTE   BEND   c_v-19
 BYTE   W01
 BYTE   BEND   c_v-23
 BYTE   W01
 BYTE   BEND   c_v-29
 BYTE   W01
 BYTE   BEND   c_v-31
 BYTE   W01
 BYTE   MOD 0
 BYTE   MOD 0
 BYTE   BEND   c_v-32
 BYTE   W01
 BYTE   BEND   c_v+0
 BYTE   N15  As1  v112
 BYTE   N15  Fn2  v092
 BYTE   W06
 BYTE   PEND 
//  #04 //035   ----------------------------------------
Label_011FBDAE:
 BYTE   W12
 BYTE   N03  As1  v096
 BYTE   W06
 BYTE   N02
 BYTE   W06
 BYTE   N11  As1  v112
 BYTE   N11  Fn2  v092
 BYTE   W12
 BYTE   N03  As1  v096
 BYTE   W06
 BYTE   N02
 BYTE   W06
 BYTE   N11  As1  v112
 BYTE   N11  Fn2  v092
 BYTE   W12
 BYTE   N03  As1  v096
 BYTE   W06
 BYTE   N02
 BYTE   W06
 BYTE   N11  As1  v112
 BYTE   N11  Fn2  v092
 BYTE   W12
 BYTE   N03  As1  v096
 BYTE   W06
 BYTE   N02
 BYTE   W06
 BYTE   PEND 
//  #04 //036   ----------------------------------------
Label_011FBDDD:
 BYTE   N11  As1  v112
 BYTE   N11  Fn2  v092
 BYTE   W12
 BYTE   N03  As1  v096
 BYTE   W06
 BYTE   N02
 BYTE   W06
 BYTE   N11  As1  v112
 BYTE   N11  Fn2  v092
 BYTE   W12
 BYTE   N03  As1  v096
 BYTE   W06
 BYTE   N02
 BYTE   W06
 BYTE   N11  As1  v112
 BYTE   N11  Fn2  v092
 BYTE   W12
 BYTE   N03  As1  v096
 BYTE   W06
 BYTE   N02
 BYTE   W06
 BYTE   N11  As1  v112
 BYTE   N11  Fn2  v092
 BYTE   W12
 BYTE   N03  As1  v096
 BYTE   W06
 BYTE   N02
 BYTE   W06
 BYTE   PEND 
//  #04 //037   ----------------------------------------
Label_011FBE12:
 BYTE   N11  An1  v112
 BYTE   N11  En2  v092
 BYTE   W12
 BYTE   N03  An1  v096
 BYTE   W06
 BYTE   N02
 BYTE   W06
 BYTE   N11  An1  v112
 BYTE   N11  En2  v092
 BYTE   W12
 BYTE   N03  An1  v096
 BYTE   W06
 BYTE   N02
 BYTE   W06
 BYTE   N11  An1  v112
 BYTE   N11  En2  v092
 BYTE   W12
 BYTE   N03  An1  v096
 BYTE   W06
 BYTE   N02
 BYTE   W06
 BYTE   N11  An1  v112
 BYTE   N11  En2  v092
 BYTE   W12
 BYTE   N03  An1  v096
 BYTE   W06
 BYTE   N02
 BYTE   W06
 BYTE   PEND 
//  #04 //038   ----------------------------------------
 BYTE   PATT
  POIN2 Label_011FBE12
//  #04 //039   ----------------------------------------
Label_011FBE4C:
 BYTE   N11  Gn1  v112
 BYTE   N11  Dn2  v092
 BYTE   W12
 BYTE   N03  Gn1  v096
 BYTE   W06
 BYTE   N02
 BYTE   W06
 BYTE   N11  Gn1  v112
 BYTE   N11  Dn2  v092
 BYTE   W12
 BYTE   N03  Gn1  v096
 BYTE   W06
 BYTE   N02
 BYTE   W06
 BYTE   N11  Gn1  v112
 BYTE   N11  Dn2  v092
 BYTE   W12
 BYTE   N03  Gn1  v096
 BYTE   W06
 BYTE   N02
 BYTE   W06
 BYTE   N11  Gn1  v112
 BYTE   N11  Dn2  v092
 BYTE   W12
 BYTE   N03  Gn1  v096
 BYTE   W06
 BYTE   N02
 BYTE   W06
 BYTE   PEND 
//  #04 //040   ----------------------------------------
Label_011FBE81:
 BYTE   N11  Ds2  v112
 BYTE   N11  As2  v092
 BYTE   W12
 BYTE   N03  Ds2  v096
 BYTE   W06
 BYTE   N02
 BYTE   W06
 BYTE   N11  Ds2  v112
 BYTE   N11  As2  v092
 BYTE   W12
 BYTE   N03  Ds2  v096
 BYTE   W06
 BYTE   N02
 BYTE   W06
 BYTE   N11  Ds2  v112
 BYTE   N11  As2  v092
 BYTE   W12
 BYTE   N03  Ds2  v096
 BYTE   W06
 BYTE   N02
 BYTE   W06
 BYTE   N11  Ds2  v112
 BYTE   N11  As2  v092
 BYTE   W12
 BYTE   N03  Ds2  v096
 BYTE   W06
 BYTE   N02
 BYTE   W06
 BYTE   PEND 
//  #04 //041   ----------------------------------------
Label_011FBEB6:
 BYTE   N11  Cn2  v112
 BYTE   N11  Gn2  v092
 BYTE   W12
 BYTE   N03  Cn2  v096
 BYTE   W06
 BYTE   N02
 BYTE   W06
 BYTE   N11  Cn2  v112
 BYTE   N11  Gn2  v092
 BYTE   W12
 BYTE   N03  Cn2  v096
 BYTE   W06
 BYTE   N02
 BYTE   W06
 BYTE   N11  Cn2  v112
 BYTE   N11  Gn2  v092
 BYTE   W12
 BYTE   N03  Cn2  v096
 BYTE   W06
 BYTE   N02
 BYTE   W06
 BYTE   N09  Cn2  v112
 BYTE   N09  Gn2  v092
 BYTE   W12
 BYTE   N01  En3  v127
 BYTE   N01  Gn3
 BYTE   N23  An3
 BYTE   W12
 BYTE   PEND 
//  #04 //042   ----------------------------------------
Label_011FBEED:
 BYTE   W12
 BYTE   N11  En3  v127
 BYTE   W12
 BYTE   Fn3
 BYTE   W12
 BYTE   En3
 BYTE   W12
 BYTE   Gn3
 BYTE   W12
 BYTE   Fn3
 BYTE   W12
 BYTE   En3
 BYTE   W12
 BYTE   N05  Fn3
 BYTE   W06
 BYTE   TIE  Dn2  v112
 BYTE   TIE  An2  v092
 BYTE   W06
 BYTE   PEND 
//  #04 //043   ----------------------------------------
 BYTE   W92
 BYTE   W02
 BYTE   EOT
 BYTE   Dn2  v057
 BYTE   W02
//  #04 //044   ----------------------------------------
Label_011FBF0D:
 BYTE   N88  Dn2  v112
 BYTE   N88  An2  v092
 BYTE   W90
 BYTE   N05  As1  v112
 BYTE   N05  Fn2  v092
 BYTE   W06
 BYTE   PEND 
//  #04 //045   ----------------------------------------
Label_011FBF1C:
 BYTE   W18
 BYTE   N76  As1  v112
 BYTE   N76  Fn2  v092
 BYTE   W78
 BYTE   PEND 
//  #04 //046   ----------------------------------------
Label_011FBF25:
 BYTE   N05  An1  v100
 BYTE   N05  En2
 BYTE   W18
 BYTE   N76  An1
 BYTE   N76  En2
 BYTE   W78
 BYTE   PEND 
//  #04 //047   ----------------------------------------
Label_011FBF31:
 BYTE   N05  An4  v100
 BYTE   W06
 BYTE   En4
 BYTE   W06
 BYTE   Cs4
 BYTE   W06
 BYTE   An3
 BYTE   W06
 BYTE   An4
 BYTE   W06
 BYTE   En4
 BYTE   W06
 BYTE   Cs4
 BYTE   W06
 BYTE   An3
 BYTE   W06
 BYTE   An4
 BYTE   W06
 BYTE   En4
 BYTE   W06
 BYTE   Cs4
 BYTE   W06
 BYTE   An3
 BYTE   W06
 BYTE   An4
 BYTE   W06
 BYTE   En4
 BYTE   W06
 BYTE   Cs4
 BYTE   W06
 BYTE   N03  An3
 BYTE   W06
 BYTE   PEND 
//  #04 //048   ----------------------------------------
 BYTE   PATT
  POIN2 Label_011FBF31
//  #04 //049   ----------------------------------------
 BYTE   PATT
  POIN2 Label_011FBA3A
//  #04 //050   ----------------------------------------
 BYTE   PATT
  POIN2 Label_011FBA7B
//  #04 //051   ----------------------------------------
 BYTE   PATT
  POIN2 Label_011FBA3A
//  #04 //052   ----------------------------------------
 BYTE   PATT
  POIN2 Label_011FBAE8
//  #04 //053   ----------------------------------------
 BYTE   PATT
  POIN2 Label_011FBB50
//  #04 //054   ----------------------------------------
 BYTE   PATT
  POIN2 Label_011FBBB7
//  #04 //055   ----------------------------------------
 BYTE   PATT
  POIN2 Label_011FBBB7
//  #04 //056   ----------------------------------------
 BYTE   PATT
  POIN2 Label_011FBA3A
//  #04 //057   ----------------------------------------
 BYTE   PATT
  POIN2 Label_011FBA7B
//  #04 //058   ----------------------------------------
 BYTE   PATT
  POIN2 Label_011FBA3A
//  #04 //059   ----------------------------------------
 BYTE   PATT
  POIN2 Label_011FBAE8
//  #04 //060   ----------------------------------------
 BYTE   PATT
  POIN2 Label_011FBB50
//  #04 //061   ----------------------------------------
 BYTE   PATT
  POIN2 Label_011FBC3C
//  #04 //062   ----------------------------------------
 BYTE   W96
//  #04 //063   ----------------------------------------
 BYTE   PATT
  POIN2 Label_011FBCA4
//  #04 //064   ----------------------------------------
 BYTE   PATT
  POIN2 Label_011FBCAD
//  #04 //065   ----------------------------------------
 BYTE   PATT
  POIN2 Label_011FBCD6
//  #04 //066   ----------------------------------------
 BYTE   PATT
  POIN2 Label_011FBD05
//  #04 //067   ----------------------------------------
 BYTE   PATT
  POIN2 Label_011FBD05
//  #04 //068   ----------------------------------------
 BYTE   PATT
  POIN2 Label_011FBD39
//  #04 //069   ----------------------------------------
 BYTE   PATT
  POIN2 Label_011FBD39
//  #04 //070   ----------------------------------------
 BYTE   PATT
  POIN2 Label_011FBD6D
//  #04 //071   ----------------------------------------
 BYTE   PATT
  POIN2 Label_011FBD80
//  #04 //072   ----------------------------------------
 BYTE   PATT
  POIN2 Label_011FBDAE
//  #04 //073   ----------------------------------------
 BYTE   PATT
  POIN2 Label_011FBDDD
//  #04 //074   ----------------------------------------
 BYTE   PATT
  POIN2 Label_011FBE12
//  #04 //075   ----------------------------------------
 BYTE   PATT
  POIN2 Label_011FBE12
//  #04 //076   ----------------------------------------
 BYTE   PATT
  POIN2 Label_011FBE4C
//  #04 //077   ----------------------------------------
 BYTE   PATT
  POIN2 Label_011FBE81
//  #04 //078   ----------------------------------------
 BYTE   PATT
  POIN2 Label_011FBEB6
//  #04 //079   ----------------------------------------
 BYTE   PATT
  POIN2 Label_011FBEED
//  #04 //080   ----------------------------------------
 BYTE   W92
 BYTE   W02
 BYTE   EOT
 BYTE   Dn2  v057
 BYTE   W02
//  #04 //081   ----------------------------------------
 BYTE   PATT
  POIN2 Label_011FBF0D
//  #04 //082   ----------------------------------------
 BYTE   PATT
  POIN2 Label_011FBF1C
//  #04 //083   ----------------------------------------
 BYTE   PATT
  POIN2 Label_011FBF25
//  #04 //084   ----------------------------------------
 BYTE   N05  An4  v100
 BYTE   W06
 BYTE   En4
 BYTE   W06
 BYTE   Cs4
 BYTE   W06
 BYTE   An3
 BYTE   W06
 BYTE   An4
 BYTE   W06
 BYTE   En4
 BYTE   W06
 BYTE   Cs4
 BYTE   W06
 BYTE   An3
 BYTE   W06
 BYTE   An4
 BYTE   W06
 BYTE   En4
 BYTE   W06
 BYTE   Cs4
 BYTE   W06
 BYTE   An3
 BYTE   W06
 BYTE   An4
 BYTE   W06
 BYTE   En4
 BYTE   W06
 BYTE   Cs4
 BYTE   W06
 BYTE   N03  An3
 BYTE   W05
 BYTE   BEND   c_v-11
 BYTE   W01
//  #04 //085   ----------------------------------------
 BYTE   N84  An4  v112
 BYTE   W02
 BYTE   BEND   c_v-10
 BYTE   W03
 BYTE   BEND   c_v-9
 BYTE   W03
 BYTE   BEND   c_v-7
 BYTE   W03
 BYTE   BEND   c_v-6
 BYTE   W01
 BYTE   MOD 0
 BYTE   MOD 20
 BYTE   W02
 BYTE   BEND   c_v-5
 BYTE   W03
 BYTE   BEND   c_v-3
 BYTE   W03
 BYTE   BEND   c_v-2
 BYTE   W03
 BYTE   BEND   c_v-1
 BYTE   W01
 BYTE   MOD 0
 BYTE   MOD 60
 BYTE   BEND   c_v+0
 BYTE   W12
 BYTE   MOD 0
 BYTE   MOD 80
 BYTE   W36
 BYTE   MOD 0
 BYTE   BEND   c_v+0
 BYTE   W01
 BYTE   BEND   c_v-5
 BYTE   W02
 BYTE   BEND   c_v-9
 BYTE   W01
 BYTE   BEND   c_v-14
 BYTE   W02
 BYTE   BEND   c_v-18
 BYTE   W01
 BYTE   BEND   c_v-22
 BYTE   W02
 BYTE   BEND   c_v-27
 BYTE   W01
 BYTE   BEND   c_v-31
 BYTE   W02
 BYTE   BEND   c_v-36
 BYTE   W11
 BYTE   BEND   c_v+0
 BYTE   W01
//  #04 //086   ----------------------------------------
 BYTE   W96
//  #04 //087   ----------------------------------------
 BYTE   W96
//  #04 //088   ----------------------------------------
 BYTE   W96
//  #04 //089   ----------------------------------------
 BYTE   W96
//  #04 //090   ----------------------------------------
 BYTE   W96
//  #04 //091   ----------------------------------------
 BYTE   W96
//  #04 //092   ----------------------------------------
 BYTE   W96
//  #04 //093   ----------------------------------------
 BYTE   W96
//  #04 //094   ----------------------------------------
 BYTE   W96
//  #04 //095   ----------------------------------------
 BYTE   W96
//  #04 //096   ----------------------------------------
 BYTE   W96
//  #04 //097   ----------------------------------------
 BYTE   W96
//  #04 //098   ----------------------------------------
 BYTE   W96
//  #04 //099   ----------------------------------------
 BYTE   W96
//  #04 //100   ----------------------------------------
 BYTE   W96
//  #04 //101   ----------------------------------------
 BYTE   W96
//  #04 //102   ----------------------------------------
 BYTE   W96
//  #04 //103   ----------------------------------------
 BYTE   W96
//  #04 //104   ----------------------------------------
 BYTE   W96
//  #04 //105   ----------------------------------------
 BYTE   W96
//  #04 //106   ----------------------------------------
 BYTE   W96
//  #04 //107   ----------------------------------------
 BYTE   W96
//  #04 //108   ----------------------------------------
 BYTE   W96
//  #04 //109   ----------------------------------------
 BYTE   W92
 BYTE   W03
 BYTE   GoTo
  POIN2 Label_011FB9FE
 BYTE   FINE

//**************** Track 5 (Midi-Chn.4) ****************//

FirstStepTowardsWar_005:
//  #05 //000   ----------------------------------------
 BYTE   KEYSH   FirstStepTowardsWar_key+0
 BYTE   VOICE   100
 BYTE   PAN   c_v-10
 BYTE   VOL   16*FirstStepTowardsWar_mvl/mxv
 BYTE   BEND   c_v+0
 BYTE   W96
//  #05 //001   ----------------------------------------
 BYTE   W96
//  #05 //002   ----------------------------------------
 BYTE   W96
//  #05 //003   ----------------------------------------
 BYTE   W96
//  #05 //004   ----------------------------------------
 BYTE   W96
//  #05 //005   ----------------------------------------
 BYTE   W96
//  #05 //006   ----------------------------------------
 BYTE   W96
//  #05 //007   ----------------------------------------
 BYTE   W96
//  #05 //008   ----------------------------------------
Label_011F3176:
 BYTE   VOICE   100
 BYTE   W24
 BYTE   N68  Fn4  v100
 BYTE   N68  An4
 BYTE   N68  Cn5  v112
 BYTE   W72
//  #05 //009   ----------------------------------------
 BYTE   W96
//  #05 //010   ----------------------------------------
 BYTE   W24
 BYTE   Fn4  v100
 BYTE   N68  An4
 BYTE   N68  Cn5  v112
 BYTE   W72
//  #05 //011   ----------------------------------------
 BYTE   N44  En4  v080
 BYTE   W02
 BYTE   Gn4
 BYTE   W02
 BYTE   N42  Cn5  v092
 BYTE   W56
 BYTE   N05  As3  v080
 BYTE   N05  Dn4
 BYTE   N05  Fn4  v092
 BYTE   W18
 BYTE   Cn4  v080
 BYTE   N05  En4
 BYTE   N05  Gn4  v092
 BYTE   W18
//  #05 //012   ----------------------------------------
Label_011F31A7:
 BYTE   W24
 BYTE   N68  Dn3  v072
 BYTE   N68  Fn3
 BYTE   N68  Cn4  v080
 BYTE   W72
 BYTE   PEND 
//  #05 //013   ----------------------------------------
Label_011F31B2:
 BYTE   N44  Fn3  v072
 BYTE   W02
 BYTE   An3
 BYTE   W01
 BYTE   En4  v080
 BYTE   W44
 BYTE   W01
 BYTE   Gn3  v072
 BYTE   N44  Bn3
 BYTE   N44  Dn4  v080
 BYTE   W48
 BYTE   PEND 
//  #05 //014   ----------------------------------------
 BYTE   PATT
  POIN2 Label_011F31A7
//  #05 //015   ----------------------------------------
Label_011F31CA:
 BYTE   N44  Fn3  v072
 BYTE   N44  An3
 BYTE   N44  En4  v080
 BYTE   W48
 BYTE   Gn3  v072
 BYTE   N44  Bn3
 BYTE   N44  Dn4  v080
 BYTE   W48
 BYTE   PEND 
//  #05 //016   ----------------------------------------
Label_011F31DC:
 BYTE   N92  Fn3  v072
 BYTE   N92  As3
 BYTE   N92  Dn4  v080
 BYTE   W96
 BYTE   PEND 
//  #05 //017   ----------------------------------------
Label_011F31E6:
 BYTE   N92  En3  v072
 BYTE   N92  An3
 BYTE   N92  Cs4  v080
 BYTE   W96
 BYTE   PEND 
//  #05 //018   ----------------------------------------
Label_011F31F0:
 BYTE   N88  An3  v072
 BYTE   N88  Cs4
 BYTE   N88  En4  v080
 BYTE   W90
 BYTE   N92  Dn3  v072
 BYTE   N92  Fn3
 BYTE   N92  Cn4  v080
 BYTE   W06
 BYTE   PEND 
//  #05 //019   ----------------------------------------
 BYTE   W96
//  #05 //020   ----------------------------------------
 BYTE   PATT
  POIN2 Label_011F31B2
//  #05 //021   ----------------------------------------
 BYTE   PATT
  POIN2 Label_011F31A7
//  #05 //022   ----------------------------------------
 BYTE   PATT
  POIN2 Label_011F31CA
//  #05 //023   ----------------------------------------
 BYTE   PATT
  POIN2 Label_011F31DC
//  #05 //024   ----------------------------------------
Label_011F3218:
 BYTE   N88  En3  v072
 BYTE   N88  An3
 BYTE   N88  Cn4  v080
 BYTE   W90
 BYTE   N52  Dn3  v092
 BYTE   W06
 BYTE   PEND 
//  #05 //025   ----------------------------------------
Label_011F3226:
 BYTE   W48
 BYTE   N11  Fn3  v092
 BYTE   W12
 BYTE   Gn3
 BYTE   W12
 BYTE   N05  An3
 BYTE   W06
 BYTE   N17  Cn4
 BYTE   W12
 BYTE   N52  Dn4
 BYTE   W06
 BYTE   PEND 
//  #05 //026   ----------------------------------------
Label_011F3237:
 BYTE   W48
 BYTE   N11  Dn4  v092
 BYTE   W12
 BYTE   En4
 BYTE   W12
 BYTE   N05  Fn4
 BYTE   W06
 BYTE   N11  An4
 BYTE   W12
 BYTE   TIE  Dn4
 BYTE   W04
 BYTE   N96  Fn4
 BYTE   W02
 BYTE   PEND 
//  #05 //027   ----------------------------------------
Label_011F324B:
 BYTE   N92  As4  v100
 BYTE   W92
 BYTE   W02
 BYTE   PEND 
 BYTE   EOT
 BYTE   Dn4
 BYTE   W02
//  #05 //028   ----------------------------------------
Label_011F3254:
 BYTE   N92  As3  v092
 BYTE   N92  Dn4
 BYTE   N92  Fn4  v100
 BYTE   W96
 BYTE   PEND 
//  #05 //029   ----------------------------------------
Label_011F325E:
 BYTE   N92  An3  v092
 BYTE   N92  Cn4
 BYTE   N92  En4  v100
 BYTE   W96
 BYTE   PEND 
//  #05 //030   ----------------------------------------
Label_011F3268:
 BYTE   N11  An3  v100
 BYTE   W12
 BYTE   Cn4  v092
 BYTE   W12
 BYTE   En4
 BYTE   W12
 BYTE   N23  An4  v100
 BYTE   W24
 BYTE   N11  En4  v092
 BYTE   W12
 BYTE   Cn4
 BYTE   W12
 BYTE   An3  v100
 BYTE   W12
 BYTE   PEND 
//  #05 //031   ----------------------------------------
Label_011F327F:
 BYTE   N92  Gn3  v092
 BYTE   N92  As3
 BYTE   N92  Dn4  v100
 BYTE   W96
 BYTE   PEND 
//  #05 //032   ----------------------------------------
Label_011F3289:
 BYTE   N92  As3  v092
 BYTE   N92  Dn4
 BYTE   N92  Gn4  v100
 BYTE   W96
 BYTE   PEND 
//  #05 //033   ----------------------------------------
Label_011F3293:
 BYTE   N92  An3  v092
 BYTE   N92  Cn4
 BYTE   N92  Fn4  v100
 BYTE   W96
 BYTE   PEND 
//  #05 //034   ----------------------------------------
Label_011F329D:
 BYTE   N92  An3  v092
 BYTE   N92  Cs4
 BYTE   N92  En4  v100
 BYTE   W90
 BYTE   TIE  Fn3  v092
 BYTE   TIE  As3
 BYTE   TIE  Dn4  v100
 BYTE   W06
 BYTE   PEND 
//  #05 //035   ----------------------------------------
 BYTE   W92
 BYTE   W02
 BYTE   EOT
 BYTE   Fn3  v070
 BYTE   Dn4
 BYTE   W02
//  #05 //036   ----------------------------------------
 BYTE   PATT
  POIN2 Label_011F3254
//  #05 //037   ----------------------------------------
 BYTE   PATT
  POIN2 Label_011F325E
//  #05 //038   ----------------------------------------
 BYTE   PATT
  POIN2 Label_011F3268
//  #05 //039   ----------------------------------------
 BYTE   PATT
  POIN2 Label_011F327F
//  #05 //040   ----------------------------------------
Label_011F32CB:
 BYTE   N92  As3  v092
 BYTE   N92  Ds4
 BYTE   N92  Gn4  v100
 BYTE   W96
 BYTE   PEND 
//  #05 //041   ----------------------------------------
Label_011F32D5:
 BYTE   N80  Gn3  v092
 BYTE   N80  Cn4
 BYTE   N80  En4  v100
 BYTE   W84
 BYTE   TIE  An3  v092
 BYTE   TIE  Cs4
 BYTE   TIE  En4  v100
 BYTE   W12
 BYTE   PEND 
//  #05 //042   ----------------------------------------
 BYTE   W90
 BYTE   EOT
 BYTE   An3
 BYTE   TIE  Dn3  v080
 BYTE   TIE  Fn3
 BYTE   N05  An3
 BYTE   TIE  Cn4  v100
 BYTE   W05
 BYTE   EOT
 BYTE   Cs4  v076
 BYTE   W01
//  #05 //043   ----------------------------------------
 BYTE   W92
 BYTE   W03
 BYTE   Dn3  v065
 BYTE   Cn4
 BYTE   W01
//  #05 //044   ----------------------------------------
Label_011F3300:
 BYTE   N92  Dn4  v092
 BYTE   N92  Fn4
 BYTE   N92  An4  v100
 BYTE   N92  Cn5  v112
 BYTE   W96
 BYTE   PEND 
//  #05 //045   ----------------------------------------
Label_011F330D:
 BYTE   W18
 BYTE   N05  As1  v112
 BYTE   N05  Fn2  v092
 BYTE   W06
 BYTE   N11  As2  v100
 BYTE   W12
 BYTE   N05  Dn3
 BYTE   W06
 BYTE   N05
 BYTE   W06
 BYTE   Fn3
 BYTE   W06
 BYTE   N05
 BYTE   W06
 BYTE   As3
 BYTE   W06
 BYTE   N05
 BYTE   W06
 BYTE   Dn4
 BYTE   W06
 BYTE   N05
 BYTE   W06
 BYTE   Fn4
 BYTE   W06
 BYTE   N05
 BYTE   W06
 BYTE   PEND 
//  #05 //046   ----------------------------------------
Label_011F332F:
 BYTE   W24
 BYTE   N11  An2  v100
 BYTE   W12
 BYTE   N05  Cs3
 BYTE   W06
 BYTE   N05
 BYTE   W06
 BYTE   En3
 BYTE   W06
 BYTE   N05
 BYTE   W06
 BYTE   An3
 BYTE   W06
 BYTE   N05
 BYTE   W06
 BYTE   Cs4
 BYTE   W06
 BYTE   N05
 BYTE   W06
 BYTE   En4
 BYTE   W06
 BYTE   N05
 BYTE   W06
 BYTE   PEND 
//  #05 //047   ----------------------------------------
Label_011F334A:
 BYTE   TIE  An3  v100
 BYTE   W48
 BYTE   N92  En4
 BYTE   W48
 BYTE   PEND 
//  #05 //048   ----------------------------------------
Label_011F3352:
 BYTE   N92  An4  v100
 BYTE   W44
 BYTE   W01
 BYTE   PEND 
 BYTE   EOT
 BYTE   An3
 BYTE   W03
 BYTE   N44  En5
 BYTE   W48
//  #05 //049   ----------------------------------------
 BYTE   PATT
  POIN2 Label_011F31A7
//  #05 //050   ----------------------------------------
 BYTE   PATT
  POIN2 Label_011F31B2
//  #05 //051   ----------------------------------------
 BYTE   PATT
  POIN2 Label_011F31A7
//  #05 //052   ----------------------------------------
 BYTE   PATT
  POIN2 Label_011F31CA
//  #05 //053   ----------------------------------------
 BYTE   PATT
  POIN2 Label_011F31DC
//  #05 //054   ----------------------------------------
 BYTE   PATT
  POIN2 Label_011F31E6
//  #05 //055   ----------------------------------------
 BYTE   PATT
  POIN2 Label_011F31F0
//  #05 //056   ----------------------------------------
 BYTE   W96
//  #05 //057   ----------------------------------------
 BYTE   PATT
  POIN2 Label_011F31B2
//  #05 //058   ----------------------------------------
 BYTE   PATT
  POIN2 Label_011F31A7
//  #05 //059   ----------------------------------------
 BYTE   PATT
  POIN2 Label_011F31CA
//  #05 //060   ----------------------------------------
 BYTE   PATT
  POIN2 Label_011F31DC
//  #05 //061   ----------------------------------------
 BYTE   PATT
  POIN2 Label_011F3218
//  #05 //062   ----------------------------------------
 BYTE   PATT
  POIN2 Label_011F3226
//  #05 //063   ----------------------------------------
 BYTE   PATT
  POIN2 Label_011F3237
//  #05 //064   ----------------------------------------
 BYTE   PATT
  POIN2 Label_011F324B
//  #05 //065   ----------------------------------------
 BYTE   EOT
 BYTE   Dn4
 BYTE   W02
//  #05 //066   ----------------------------------------
 BYTE   PATT
  POIN2 Label_011F3254
//  #05 //067   ----------------------------------------
 BYTE   PATT
  POIN2 Label_011F325E
//  #05 //068   ----------------------------------------
 BYTE   PATT
  POIN2 Label_011F3268
//  #05 //069   ----------------------------------------
 BYTE   PATT
  POIN2 Label_011F327F
//  #05 //070   ----------------------------------------
 BYTE   PATT
  POIN2 Label_011F3289
//  #05 //071   ----------------------------------------
 BYTE   PATT
  POIN2 Label_011F3293
//  #05 //072   ----------------------------------------
 BYTE   PATT
  POIN2 Label_011F329D
//  #05 //073   ----------------------------------------
 BYTE   W92
 BYTE   W02
 BYTE   EOT
 BYTE   Fn3  v070
 BYTE   Dn4
 BYTE   W02
//  #05 //074   ----------------------------------------
 BYTE   PATT
  POIN2 Label_011F3254
//  #05 //075   ----------------------------------------
 BYTE   PATT
  POIN2 Label_011F325E
//  #05 //076   ----------------------------------------
 BYTE   PATT
  POIN2 Label_011F3268
//  #05 //077   ----------------------------------------
 BYTE   PATT
  POIN2 Label_011F327F
//  #05 //078   ----------------------------------------
 BYTE   PATT
  POIN2 Label_011F32CB
//  #05 //079   ----------------------------------------
 BYTE   PATT
  POIN2 Label_011F32D5
//  #05 //080   ----------------------------------------
 BYTE   W90
 BYTE   EOT
 BYTE   An3
 BYTE   TIE  Dn3  v080
 BYTE   TIE  Fn3
 BYTE   N05  An3
 BYTE   TIE  Cn4  v100
 BYTE   W05
 BYTE   EOT
 BYTE   Cs4  v076
 BYTE   W01
//  #05 //081   ----------------------------------------
 BYTE   W92
 BYTE   W03
 BYTE   Dn3  v065
 BYTE   Cn4
 BYTE   W01
//  #05 //082   ----------------------------------------
 BYTE   PATT
  POIN2 Label_011F3300
//  #05 //083   ----------------------------------------
 BYTE   PATT
  POIN2 Label_011F330D
//  #05 //084   ----------------------------------------
 BYTE   PATT
  POIN2 Label_011F332F
//  #05 //085   ----------------------------------------
 BYTE   PATT
  POIN2 Label_011F334A
//  #05 //086   ----------------------------------------
 BYTE   PATT
  POIN2 Label_011F3352
//  #05 //087   ----------------------------------------
 BYTE   EOT
 BYTE   An3
 BYTE   W03
 BYTE   N44  En5  v100
 BYTE   W48
 BYTE   W96
//  #05 //088   ----------------------------------------
 BYTE   W96
//  #05 //089   ----------------------------------------
 BYTE   W96
//  #05 //090   ----------------------------------------
 BYTE   W96
//  #05 //091   ----------------------------------------
 BYTE   W96
//  #05 //092   ----------------------------------------
 BYTE   W96
//  #05 //093   ----------------------------------------
 BYTE   W96
//  #05 //094   ----------------------------------------
 BYTE   W92
 BYTE   W03
 BYTE   VOICE   60
 BYTE   VOL   20*FirstStepTowardsWar_mvl/mxv
 BYTE   W01
//  #05 //095   ----------------------------------------
Label_011F343B:
 BYTE   N68  An2  v092
 BYTE   W72
 BYTE   N23  Fn3
 BYTE   W24
 BYTE   PEND 
//  #05 //096   ----------------------------------------
 BYTE   N44  En3
 BYTE   W48
 BYTE   Gn3
 BYTE   W48
//  #05 //097   ----------------------------------------
Label_011F3448:
 BYTE   N68  Fn3  v092
 BYTE   W72
 BYTE   N11  En3
 BYTE   W12
 BYTE   Dn3
 BYTE   W12
 BYTE   PEND 
//  #05 //098   ----------------------------------------
 BYTE   N92  An2
 BYTE   W96
//  #05 //099   ----------------------------------------
Label_011F3455:
 BYTE   N68  Dn3  v127
 BYTE   W72
 BYTE   N23  Gn3  v120
 BYTE   W24
 BYTE   PEND 
//  #05 //100   ----------------------------------------
Label_011F345E:
 BYTE   N44  Fn3  v127
 BYTE   W48
 BYTE   An3  v120
 BYTE   W48
 BYTE   PEND 
//  #05 //101   ----------------------------------------
Label_011F3466:
 BYTE   N44  Gn3  v127
 BYTE   W48
 BYTE   Fn3
 BYTE   W48
 BYTE   PEND 
//  #05 //102   ----------------------------------------
 BYTE   En3
 BYTE   W48
 BYTE   Dn3
 BYTE   W48
//  #05 //103   ----------------------------------------
 BYTE   PATT
  POIN2 Label_011F343B
//  #05 //104   ----------------------------------------
 BYTE   N44  En3  v092
 BYTE   W48
 BYTE   Gn3
 BYTE   W48
//  #05 //105   ----------------------------------------
 BYTE   PATT
  POIN2 Label_011F3448
//  #05 //106   ----------------------------------------
 BYTE   N92  An2  v092
 BYTE   W96
//  #05 //107   ----------------------------------------
 BYTE   PATT
  POIN2 Label_011F3455
//  #05 //108   ----------------------------------------
 BYTE   PATT
  POIN2 Label_011F345E
//  #05 //109   ----------------------------------------
 BYTE   PATT
  POIN2 Label_011F3466
//  #05 //110   ----------------------------------------
 BYTE   N44  En3  v127
 BYTE   W48
 BYTE   Dn3
 BYTE   W06
 BYTE   W01
 BYTE   W01
 BYTE   W01
 BYTE   W01
 BYTE   W01
 BYTE   W01
 BYTE   W01
 BYTE   W01
 BYTE   W01
 BYTE   W01
 BYTE   W01
 BYTE   W01
 BYTE   W01
 BYTE   W01
 BYTE   W01
 BYTE   W01
 BYTE   W02
 BYTE   W01
 BYTE   W01
 BYTE   W01
 BYTE   W02
 BYTE   W01
 BYTE   W01
 BYTE   W02
 BYTE   W01
 BYTE   W01
 BYTE   W02
 BYTE   W01
 BYTE   W01
 BYTE   W02
 BYTE   W01
 BYTE   W01
 BYTE   W02
 BYTE   W01
 BYTE   W01
 BYTE   GoTo
  POIN2 Label_011F3176
 BYTE   FINE

//**************** Track 6 (Midi-Chn.5) ****************//

FirstStepTowardsWar_006:
//  #06 //000   ----------------------------------------
 BYTE   KEYSH   FirstStepTowardsWar_key+0
 BYTE   VOICE   48
 BYTE   PAN   c_v+0
 BYTE   VOL   22*FirstStepTowardsWar_mvl/mxv
 BYTE   MOD 0
 BYTE   MOD 0
 BYTE   N92  Dn1  v092
 BYTE   W96
//  #06 //001   ----------------------------------------
 BYTE   Cn1
 BYTE   W96
//  #06 //002   ----------------------------------------
 BYTE   As0
 BYTE   W96
//  #06 //003   ----------------------------------------
 BYTE   An0
 BYTE   W96
//  #06 //004   ----------------------------------------
 BYTE   Dn1
 BYTE   W96
//  #06 //005   ----------------------------------------
 BYTE   Cn1
 BYTE   W96
//  #06 //006   ----------------------------------------
 BYTE   As0
 BYTE   W96
//  #06 //007   ----------------------------------------
 BYTE   An0
 BYTE   W96
//  #06 //008   ----------------------------------------
Label_011F34F5:
 BYTE   W96
//  #06 //009   ----------------------------------------
 BYTE   W96
//  #06 //010   ----------------------------------------
 BYTE   W96
//  #06 //011   ----------------------------------------
 BYTE   W96
//  #06 //012   ----------------------------------------
Label_011F34F9:
 BYTE   N44  Dn3  v112
 BYTE   W48
 BYTE   N11  Dn3  v100
 BYTE   W12
 BYTE   En3  v092
 BYTE   W12
 BYTE   N04  Fn3  v100
 BYTE   W06
 BYTE   N11  Gn3
 BYTE   W12
 BYTE   N04  Dn3
 BYTE   W06
 BYTE   PEND 
//  #06 //013   ----------------------------------------
Label_011F350F:
 BYTE   N44  An3  v112
 BYTE   W48
 BYTE   N23  Gn3  v100
 BYTE   W24
 BYTE   N05  Fn3
 BYTE   W06
 BYTE   N17  En3
 BYTE   W18
 BYTE   PEND 
//  #06 //014   ----------------------------------------
Label_011F351E:
 BYTE   N05  Fn3  v112
 BYTE   W06
 BYTE   En3  v100
 BYTE   W06
 BYTE   N32  Dn3
 BYTE   W36
 BYTE   N11
 BYTE   W12
 BYTE   En3
 BYTE   W12
 BYTE   N04  Fn3
 BYTE   W06
 BYTE   N16  Gn3
 BYTE   W18
 BYTE   PEND 
//  #06 //015   ----------------------------------------
Label_011F3533:
 BYTE   N44  An3  v112
 BYTE   W48
 BYTE   N23  Gn3  v100
 BYTE   W24
 BYTE   N05  Fn3
 BYTE   W06
 BYTE   N16  En3
 BYTE   W18
 BYTE   PEND 
//  #06 //016   ----------------------------------------
Label_011F3542:
 BYTE   N11  Fn3  v112
 BYTE   W12
 BYTE   N03  Dn3  v100
 BYTE   W06
 BYTE   N52  Dn4
 BYTE   W54
 BYTE   N23
 BYTE   W24
 BYTE   PEND 
//  #06 //017   ----------------------------------------
Label_011F3550:
 BYTE   TIE  Cs4  v100
 BYTE   TIE  En4  v092
 BYTE   W96
 BYTE   PEND 
//  #06 //018   ----------------------------------------
 BYTE   W68
 BYTE   W03
 BYTE   EOT
 BYTE   Cs4  v076
 BYTE   W01
 BYTE   N04  Dn4  v080
 BYTE   W03
 BYTE   Cn4  v072
 BYTE   W03
 BYTE   Bn3
 BYTE   W03
 BYTE   An3
 BYTE   W03
 BYTE   Gn3
 BYTE   W06
 BYTE   N52  Dn4  v112
 BYTE   W06
//  #06 //019   ----------------------------------------
Label_011F356F:
 BYTE   W48
 BYTE   N11  Dn4  v100
 BYTE   W12
 BYTE   En4  v092
 BYTE   W12
 BYTE   N04  Fn4  v100
 BYTE   W06
 BYTE   N11  Gn4
 BYTE   W12
 BYTE   N04  Dn4  v092
 BYTE   W06
 BYTE   PEND 
//  #06 //020   ----------------------------------------
Label_011F3583:
 BYTE   N44  An4  v112
 BYTE   W48
 BYTE   N23  Gn4  v100
 BYTE   W24
 BYTE   N05  Fn4
 BYTE   W06
 BYTE   N17  En4
 BYTE   W18
 BYTE   PEND 
//  #06 //021   ----------------------------------------
Label_011F3592:
 BYTE   N05  Fn4  v112
 BYTE   W06
 BYTE   En4  v100
 BYTE   W06
 BYTE   N32  Dn4
 BYTE   W36
 BYTE   N11
 BYTE   W12
 BYTE   En4  v092
 BYTE   W12
 BYTE   N04  Fn4  v100
 BYTE   W06
 BYTE   N16  Gn4
 BYTE   W18
 BYTE   PEND 
//  #06 //022   ----------------------------------------
Label_011F35A9:
 BYTE   N44  An4  v112
 BYTE   W48
 BYTE   N23  Gn4  v100
 BYTE   W24
 BYTE   N05  Fn4
 BYTE   W06
 BYTE   N16  En4
 BYTE   W18
 BYTE   PEND 
//  #06 //023   ----------------------------------------
 BYTE   N92  Dn4  v104
 BYTE   W96
//  #06 //024   ----------------------------------------
Label_011F35BC:
 BYTE   N44  En4  v112
 BYTE   W48
 BYTE   N23  An3
 BYTE   W24
 BYTE   N17  En4
 BYTE   W18
 BYTE   TIE  An3  v092
 BYTE   TIE  Dn4  v100
 BYTE   W06
 BYTE   PEND 
//  #06 //025   ----------------------------------------
 BYTE   W96
//  #06 //026   ----------------------------------------
 BYTE   W32
 BYTE   W02
 BYTE   EOT
 BYTE   An3  v074
 BYTE   W14
 BYTE   N08  Fn4
 BYTE   W12
 BYTE   Gn4
 BYTE   W12
 BYTE   N05  An4
 BYTE   W06
 BYTE   N11  Cn5  v112
 BYTE   W12
 BYTE   N76  Dn5
 BYTE   W06
//  #06 //027   ----------------------------------------
Label_011F35E4:
 BYTE   W72
 BYTE   N11  As4  v100
 BYTE   W12
 BYTE   Cn5
 BYTE   W12
 BYTE   PEND 
//  #06 //028   ----------------------------------------
Label_011F35EC:
 BYTE   N44  Dn5  v112
 BYTE   W48
 BYTE   Fn5  v100
 BYTE   W48
 BYTE   PEND 
//  #06 //029   ----------------------------------------
Label_011F35F4:
 BYTE   N32  En5  v112
 BYTE   W36
 BYTE   N23  Cn5  v100
 BYTE   W24
 BYTE   N11  Dn5
 BYTE   W12
 BYTE   TIE  An4
 BYTE   W24
 BYTE   PEND 
//  #06 //030   ----------------------------------------
 BYTE   W92
 BYTE   W03
 BYTE   EOT
 BYTE   W01
//  #06 //031   ----------------------------------------
Label_011F3607:
 BYTE   N68  As4  v112
 BYTE   W72
 BYTE   N11  Gn4  v100
 BYTE   W12
 BYTE   An4
 BYTE   W12
 BYTE   PEND 
//  #06 //032   ----------------------------------------
Label_011F3612:
 BYTE   N44  As4  v112
 BYTE   W48
 BYTE   N23  Cn5  v100
 BYTE   W24
 BYTE   Dn5
 BYTE   W24
 BYTE   PEND 
//  #06 //033   ----------------------------------------
Label_011F361D:
 BYTE   N32  Cn5  v100
 BYTE   W36
 BYTE   Fn4
 BYTE   W36
 BYTE   N11  Gn4
 BYTE   W12
 BYTE   TIE  An4
 BYTE   W12
 BYTE   PEND 
//  #06 //034   ----------------------------------------
 BYTE   W88
 BYTE   W01
 BYTE   EOT
 BYTE   W01
 BYTE   N68  Dn5  v112
 BYTE   W06
//  #06 //035   ----------------------------------------
 BYTE   PATT
  POIN2 Label_011F35E4
//  #06 //036   ----------------------------------------
 BYTE   PATT
  POIN2 Label_011F35EC
//  #06 //037   ----------------------------------------
Label_011F363C:
 BYTE   N32  En5  v112
 BYTE   W36
 BYTE   N23  Cn5  v100
 BYTE   W24
 BYTE   N11  Dn5
 BYTE   W12
 BYTE   N92  An4
 BYTE   W24
 BYTE   PEND 
//  #06 //038   ----------------------------------------
Label_011F364B:
 BYTE   W72
 BYTE   N11  Gn4  v100
 BYTE   W12
 BYTE   An4
 BYTE   W12
 BYTE   PEND 
//  #06 //039   ----------------------------------------
 BYTE   PATT
  POIN2 Label_011F3607
//  #06 //040   ----------------------------------------
Label_011F3658:
 BYTE   N56  As4  v112
 BYTE   W60
 BYTE   N11  An4  v100
 BYTE   W12
 BYTE   N11
 BYTE   W12
 BYTE   Fn4
 BYTE   W12
 BYTE   PEND 
//  #06 //041   ----------------------------------------
Label_011F3665:
 BYTE   N32  Gn4  v112
 BYTE   W36
 BYTE   N44  Cn4  v100
 BYTE   W48
 BYTE   TIE  Cs4
 BYTE   W12
 BYTE   PEND 
//  #06 //042   ----------------------------------------
 BYTE   W90
 BYTE   N11  Dn5
 BYTE   W03
 BYTE   EOT
 BYTE   Cs4
 BYTE   W03
//  #06 //043   ----------------------------------------
Label_011F3678:
 BYTE   W06
 BYTE   N05  An4  v092
 BYTE   W06
 BYTE   Fn4
 BYTE   W06
 BYTE   Dn5  v100
 BYTE   W06
 BYTE   An4  v092
 BYTE   W06
 BYTE   Fn4
 BYTE   W06
 BYTE   Dn4
 BYTE   W06
 BYTE   Fn4
 BYTE   W06
 BYTE   Dn5  v100
 BYTE   W06
 BYTE   An4  v092
 BYTE   W06
 BYTE   Fn4
 BYTE   W06
 BYTE   Dn5  v100
 BYTE   W06
 BYTE   An4  v092
 BYTE   W06
 BYTE   Fn4
 BYTE   W06
 BYTE   Dn4
 BYTE   W06
 BYTE   Fn4
 BYTE   W06
 BYTE   PEND 
//  #06 //044   ----------------------------------------
Label_011F36A0:
 BYTE   N05  Dn5  v100
 BYTE   W06
 BYTE   An4  v092
 BYTE   W06
 BYTE   Fn4
 BYTE   W06
 BYTE   Dn5  v100
 BYTE   W06
 BYTE   An4  v092
 BYTE   W06
 BYTE   Fn4
 BYTE   W06
 BYTE   Dn4
 BYTE   W06
 BYTE   Fn4
 BYTE   W06
 BYTE   Dn5  v100
 BYTE   W06
 BYTE   An4  v092
 BYTE   W06
 BYTE   Fn4
 BYTE   W06
 BYTE   Dn5  v100
 BYTE   W06
 BYTE   An4  v092
 BYTE   W06
 BYTE   Fn4
 BYTE   W06
 BYTE   Dn4
 BYTE   W06
 BYTE   Fn4
 BYTE   W06
 BYTE   PEND 
//  #06 //045   ----------------------------------------
Label_011F36CA:
 BYTE   N05  Fn3  v092
 BYTE   N05  Dn4  v100
 BYTE   W18
 BYTE   N76  Fn3  v092
 BYTE   N76  Dn4  v100
 BYTE   W78
 BYTE   PEND 
//  #06 //046   ----------------------------------------
Label_011F36D9:
 BYTE   N05  En3  v092
 BYTE   N05  Cs4  v100
 BYTE   W18
 BYTE   TIE  En3  v092
 BYTE   TIE  Cs4  v100
 BYTE   W78
 BYTE   PEND 
//  #06 //047   ----------------------------------------
 BYTE   W92
 BYTE   W03
 BYTE   EOT
 BYTE   En3  v073
 BYTE   BEND   c_v-11
 BYTE   W01
//  #06 //048   ----------------------------------------
Label_011F36F0:
 BYTE   N92  An4  v112
 BYTE   W02
 BYTE   BEND   c_v-10
 BYTE   W03
 BYTE   BEND   c_v-9
 BYTE   W03
 BYTE   BEND   c_v-7
 BYTE   W03
 BYTE   BEND   c_v-6
 BYTE   W03
 BYTE   BEND   c_v-5
 BYTE   W03
 BYTE   BEND   c_v-3
 BYTE   W03
 BYTE   BEND   c_v-2
 BYTE   W03
 BYTE   BEND   c_v-1
 BYTE   W01
 BYTE   BEND   c_v+0
 BYTE   W72
 BYTE   PEND 
//  #06 //049   ----------------------------------------
 BYTE   PATT
  POIN2 Label_011F34F9
//  #06 //050   ----------------------------------------
 BYTE   PATT
  POIN2 Label_011F350F
//  #06 //051   ----------------------------------------
 BYTE   PATT
  POIN2 Label_011F351E
//  #06 //052   ----------------------------------------
 BYTE   PATT
  POIN2 Label_011F3533
//  #06 //053   ----------------------------------------
 BYTE   PATT
  POIN2 Label_011F3542
//  #06 //054   ----------------------------------------
 BYTE   PATT
  POIN2 Label_011F3550
//  #06 //055   ----------------------------------------
 BYTE   W68
 BYTE   W03
 BYTE   EOT
 BYTE   Cs4  v076
 BYTE   W01
 BYTE   N04  Dn4  v080
 BYTE   W03
 BYTE   Cn4  v072
 BYTE   W03
 BYTE   Bn3
 BYTE   W03
 BYTE   An3
 BYTE   W03
 BYTE   Gn3
 BYTE   W06
 BYTE   N52  Dn4  v112
 BYTE   W06
//  #06 //056   ----------------------------------------
 BYTE   PATT
  POIN2 Label_011F356F
//  #06 //057   ----------------------------------------
 BYTE   PATT
  POIN2 Label_011F3583
//  #06 //058   ----------------------------------------
 BYTE   PATT
  POIN2 Label_011F3592
//  #06 //059   ----------------------------------------
 BYTE   PATT
  POIN2 Label_011F35A9
//  #06 //060   ----------------------------------------
 BYTE   N92  Dn4  v104
 BYTE   W96
//  #06 //061   ----------------------------------------
 BYTE   PATT
  POIN2 Label_011F35BC
//  #06 //062   ----------------------------------------
 BYTE   W96
//  #06 //063   ----------------------------------------
 BYTE   W32
 BYTE   W02
 BYTE   EOT
 BYTE   An3  v074
 BYTE   W14
 BYTE   N08  Fn4  v100
 BYTE   W12
 BYTE   Gn4
 BYTE   W12
 BYTE   N05  An4
 BYTE   W06
 BYTE   N11  Cn5  v112
 BYTE   W12
 BYTE   N76  Dn5
 BYTE   W06
//  #06 //064   ----------------------------------------
 BYTE   PATT
  POIN2 Label_011F35E4
//  #06 //065   ----------------------------------------
 BYTE   PATT
  POIN2 Label_011F35EC
//  #06 //066   ----------------------------------------
 BYTE   PATT
  POIN2 Label_011F35F4
//  #06 //067   ----------------------------------------
 BYTE   W92
 BYTE   W03
 BYTE   EOT
 BYTE   An4
 BYTE   W01
//  #06 //068   ----------------------------------------
 BYTE   PATT
  POIN2 Label_011F3607
//  #06 //069   ----------------------------------------
 BYTE   PATT
  POIN2 Label_011F3612
//  #06 //070   ----------------------------------------
 BYTE   PATT
  POIN2 Label_011F361D
//  #06 //071   ----------------------------------------
 BYTE   W88
 BYTE   W01
 BYTE   EOT
 BYTE   An4
 BYTE   W01
 BYTE   N68  Dn5  v112
 BYTE   W06
//  #06 //072   ----------------------------------------
 BYTE   PATT
  POIN2 Label_011F35E4
//  #06 //073   ----------------------------------------
 BYTE   PATT
  POIN2 Label_011F35EC
//  #06 //074   ----------------------------------------
 BYTE   PATT
  POIN2 Label_011F363C
//  #06 //075   ----------------------------------------
 BYTE   PATT
  POIN2 Label_011F364B
//  #06 //076   ----------------------------------------
 BYTE   PATT
  POIN2 Label_011F3607
//  #06 //077   ----------------------------------------
 BYTE   PATT
  POIN2 Label_011F3658
//  #06 //078   ----------------------------------------
 BYTE   PATT
  POIN2 Label_011F3665
//  #06 //079   ----------------------------------------
 BYTE   W90
 BYTE   N05  Dn5  v100
 BYTE   W03
 BYTE   EOT
 BYTE   Cs4
 BYTE   W03
//  #06 //080   ----------------------------------------
 BYTE   PATT
  POIN2 Label_011F3678
//  #06 //081   ----------------------------------------
 BYTE   PATT
  POIN2 Label_011F36A0
//  #06 //082   ----------------------------------------
 BYTE   PATT
  POIN2 Label_011F36CA
//  #06 //083   ----------------------------------------
 BYTE   PATT
  POIN2 Label_011F36D9
//  #06 //084   ----------------------------------------
 BYTE   W92
 BYTE   W03
 BYTE   EOT
 BYTE   En3  v073
 BYTE   BEND   c_v-11
 BYTE   W01
//  #06 //085   ----------------------------------------
 BYTE   PATT
  POIN2 Label_011F36F0
//  #06 //086   ----------------------------------------
 BYTE   TIE  An3  v052
 BYTE   TIE  Fn4  v072
 BYTE   W96
//  #06 //087   ----------------------------------------
 BYTE   W92
 BYTE   EOT
 BYTE   W04
//  #06 //088   ----------------------------------------
 BYTE   TIE  En4
 BYTE   W96
//  #06 //089   ----------------------------------------
 BYTE   W92
 BYTE   EOT
 BYTE   An3  v076
 BYTE   W04
//  #06 //090   ----------------------------------------
Label_011F37FB:
 BYTE   TIE  As3  v072
 BYTE   TIE  Fn4  v060
 BYTE   W96
 BYTE   PEND 
//  #06 //091   ----------------------------------------
 BYTE   W92
 BYTE   EOT
 BYTE   As3  v077
 BYTE   W04
//  #06 //092   ----------------------------------------
Label_011F3808:
 BYTE   N92  Cn4  v072
 BYTE   N92  Gn4  v060
 BYTE   W96
 BYTE   PEND 
//  #06 //093   ----------------------------------------
 BYTE   PATT
  POIN2 Label_011F3808
//  #06 //094   ----------------------------------------
 BYTE   TIE  An3  v072
 BYTE   TIE  Fn4  v060
 BYTE   W96
//  #06 //095   ----------------------------------------
 BYTE   W92
 BYTE   EOT
 BYTE   W04
//  #06 //096   ----------------------------------------
 BYTE   TIE  En4  v072
 BYTE   W96
//  #06 //097   ----------------------------------------
 BYTE   W92
 BYTE   EOT
 BYTE   An3  v076
 BYTE   W04
//  #06 //098   ----------------------------------------
 BYTE   PATT
  POIN2 Label_011F37FB
//  #06 //099   ----------------------------------------
 BYTE   W92
 BYTE   EOT
 BYTE   As3  v077
 BYTE   W04
//  #06 //100   ----------------------------------------
 BYTE   PATT
  POIN2 Label_011F3808
//  #06 //101   ----------------------------------------
 BYTE   N92  An3  v060
 BYTE   N92  Cn4  v072
 BYTE   W96
//  #06 //102   ----------------------------------------
 BYTE   N44  Dn4  v092
 BYTE   W48
 BYTE   Cn4
 BYTE   W48
//  #06 //103   ----------------------------------------
 BYTE   En4
 BYTE   W48
 BYTE   Gn4
 BYTE   W48
//  #06 //104   ----------------------------------------
 BYTE   Fn4
 BYTE   W48
 BYTE   En4
 BYTE   W48
//  #06 //105   ----------------------------------------
 BYTE   N22  Dn4  v112
 BYTE   W24
 BYTE   Fn4  v120
 BYTE   W24
 BYTE   En4
 BYTE   W24
 BYTE   Gn4  v127
 BYTE   W24
//  #06 //106   ----------------------------------------
 BYTE   N44  Dn4
 BYTE   W48
 BYTE   An4  v120
 BYTE   W48
//  #06 //107   ----------------------------------------
 BYTE   As4  v127
 BYTE   W48
 BYTE   An4  v120
 BYTE   W48
//  #06 //108   ----------------------------------------
 BYTE   Gn4  v127
 BYTE   W48
 BYTE   Fn4
 BYTE   W48
//  #06 //109   ----------------------------------------
 BYTE   En4
 BYTE   W48
 BYTE   Dn4
 BYTE   W06
 BYTE   W01
 BYTE   W01
 BYTE   W01
 BYTE   W01
 BYTE   W01
 BYTE   W01
 BYTE   W01
 BYTE   W01
 BYTE   W01
 BYTE   W01
 BYTE   W01
 BYTE   W01
 BYTE   W01
 BYTE   W01
 BYTE   W01
 BYTE   W01
 BYTE   W02
 BYTE   W01
 BYTE   W01
 BYTE   W01
 BYTE   W02
 BYTE   W01
 BYTE   W01
 BYTE   W02
 BYTE   W01
 BYTE   W01
 BYTE   W02
 BYTE   W01
 BYTE   W01
 BYTE   W02
 BYTE   W01
 BYTE   W01
 BYTE   W02
 BYTE   W01
 BYTE   W01
 BYTE   GoTo
  POIN2 Label_011F34F5
 BYTE   FINE

//**************** Track 7 (Midi-Chn.6) ****************//

FirstStepTowardsWar_007:
//  #07 //000   ----------------------------------------
 BYTE   KEYSH   FirstStepTowardsWar_key+0
 BYTE   VOICE   61
 BYTE   PAN   c_v+20
 BYTE   VOL   25*FirstStepTowardsWar_mvl/mxv
 BYTE   MOD 0
 BYTE   MOD 0
 BYTE   W96
//  #07 //001   ----------------------------------------
 BYTE   W96
//  #07 //002   ----------------------------------------
 BYTE   W96
//  #07 //003   ----------------------------------------
 BYTE   W96
//  #07 //004   ----------------------------------------
 BYTE   W96
//  #07 //005   ----------------------------------------
 BYTE   W96
//  #07 //006   ----------------------------------------
 BYTE   W96
//  #07 //007   ----------------------------------------
 BYTE   W96
//  #07 //008   ----------------------------------------
Label_011F38BB:
 BYTE   W96
//  #07 //009   ----------------------------------------
 BYTE   W96
//  #07 //010   ----------------------------------------
 BYTE   W96
//  #07 //011   ----------------------------------------
 BYTE   W60
 BYTE   N05  As2  v092
 BYTE   N05  Dn3
 BYTE   N05  Fn3  v100
 BYTE   W18
 BYTE   Cn3  v092
 BYTE   N05  En3
 BYTE   N05  Gn3  v100
 BYTE   W18
//  #07 //012   ----------------------------------------
 BYTE   W96
//  #07 //013   ----------------------------------------
 BYTE   W96
//  #07 //014   ----------------------------------------
 BYTE   W96
//  #07 //015   ----------------------------------------
 BYTE   W96
//  #07 //016   ----------------------------------------
 BYTE   W96
//  #07 //017   ----------------------------------------
Label_011F38D5:
 BYTE   N11  An3  v092
 BYTE   N11  Cs4
 BYTE   W12
 BYTE   N05  En3
 BYTE   N05  An3
 BYTE   W06
 BYTE   N28
 BYTE   N28  Cs4
 BYTE   W30
 BYTE   N11
 BYTE   N11  En4
 BYTE   W12
 BYTE   N05  An3
 BYTE   N05  Cs4
 BYTE   W06
 BYTE   N28
 BYTE   N28  En4
 BYTE   W30
 BYTE   PEND 
//  #07 //018   ----------------------------------------
Label_011F38F2:
 BYTE   N11  En4  v092
 BYTE   N11  An4
 BYTE   W12
 BYTE   N05  Cs4
 BYTE   N05  En4
 BYTE   W06
 BYTE   N28
 BYTE   N28  An4
 BYTE   W30
 BYTE   N11
 BYTE   N11  Cs5
 BYTE   W12
 BYTE   N05  En4
 BYTE   N05  An4
 BYTE   W06
 BYTE   N28
 BYTE   N28  Cs5
 BYTE   W30
 BYTE   PEND 
//  #07 //019   ----------------------------------------
 BYTE   W96
//  #07 //020   ----------------------------------------
 BYTE   W96
//  #07 //021   ----------------------------------------
 BYTE   W96
//  #07 //022   ----------------------------------------
 BYTE   W96
//  #07 //023   ----------------------------------------
 BYTE   W96
//  #07 //024   ----------------------------------------
Label_011F3914:
 BYTE   W90
 BYTE   N16  Dn4  v100
 BYTE   N16  Fn4
 BYTE   N16  An4  v112
 BYTE   W06
 BYTE   PEND 
//  #07 //025   ----------------------------------------
Label_011F391F:
 BYTE   W12
 BYTE   N05  Dn4  v100
 BYTE   N05  Fn4
 BYTE   N05  An4  v112
 BYTE   W12
 BYTE   N04  Cn4  v100
 BYTE   N04  En4
 BYTE   N04  Gn4  v112
 BYTE   W06
 BYTE   Dn4  v100
 BYTE   N04  Fn4
 BYTE   N04  An4  v112
 BYTE   W60
 BYTE   N16  Dn4  v100
 BYTE   N16  Fn4
 BYTE   N16  An4  v112
 BYTE   W06
 BYTE   PEND 
//  #07 //026   ----------------------------------------
Label_011F3944:
 BYTE   W12
 BYTE   N05  Dn4  v100
 BYTE   N05  Fn4
 BYTE   N05  An4  v112
 BYTE   W06
 BYTE   N04  Dn4  v100
 BYTE   N04  Fn4
 BYTE   N04  An4  v112
 BYTE   W06
 BYTE   Cn4  v100
 BYTE   N04  En4
 BYTE   N04  Gn4  v112
 BYTE   W06
 BYTE   N05  Dn4  v100
 BYTE   N05  Fn4
 BYTE   N05  An4  v112
 BYTE   W18
 BYTE   N11  Dn4
 BYTE   W12
 BYTE   En4
 BYTE   W12
 BYTE   N05  Fn4
 BYTE   W06
 BYTE   N16  An4
 BYTE   W18
 BYTE   PEND 
//  #07 //027   ----------------------------------------
Label_011F3974:
 BYTE   W24
 BYTE   N04  Fn4  v100
 BYTE   N04  As4  v112
 BYTE   N04  Dn5  v100
 BYTE   W72
 BYTE   PEND 
//  #07 //028   ----------------------------------------
 BYTE   W96
//  #07 //029   ----------------------------------------
 BYTE   W96
//  #07 //030   ----------------------------------------
 BYTE   W96
//  #07 //031   ----------------------------------------
 BYTE   W96
//  #07 //032   ----------------------------------------
 BYTE   W96
//  #07 //033   ----------------------------------------
 BYTE   W96
//  #07 //034   ----------------------------------------
 BYTE   W96
//  #07 //035   ----------------------------------------
 BYTE   W96
//  #07 //036   ----------------------------------------
 BYTE   W96
//  #07 //037   ----------------------------------------
 BYTE   W96
//  #07 //038   ----------------------------------------
 BYTE   W96
//  #07 //039   ----------------------------------------
 BYTE   W96
//  #07 //040   ----------------------------------------
 BYTE   W96
//  #07 //041   ----------------------------------------
 BYTE   W96
//  #07 //042   ----------------------------------------
 BYTE   W90
 BYTE   N44  Dn3  v127
 BYTE   W06
//  #07 //043   ----------------------------------------
Label_011F3993:
 BYTE   W48
 BYTE   N11  Fn3  v127
 BYTE   W12
 BYTE   Gn3
 BYTE   W12
 BYTE   N05  An3
 BYTE   W06
 BYTE   N17  Cn4
 BYTE   W18
 BYTE   PEND 
//  #07 //044   ----------------------------------------
 BYTE   N44  Dn3
 BYTE   N44  Dn4
 BYTE   W48
 BYTE   N11  Fn3
 BYTE   N11  Fn4
 BYTE   W12
 BYTE   Gn3
 BYTE   N11  Gn4
 BYTE   W12
 BYTE   N05  An3
 BYTE   N05  An4
 BYTE   W06
 BYTE   N17  Cn4
 BYTE   N17  Cn5
 BYTE   W18
//  #07 //045   ----------------------------------------
 BYTE   W96
//  #07 //046   ----------------------------------------
 BYTE   W96
//  #07 //047   ----------------------------------------
 BYTE   W96
//  #07 //048   ----------------------------------------
 BYTE   W96
//  #07 //049   ----------------------------------------
 BYTE   W96
//  #07 //050   ----------------------------------------
 BYTE   W96
//  #07 //051   ----------------------------------------
 BYTE   W96
//  #07 //052   ----------------------------------------
 BYTE   W96
//  #07 //053   ----------------------------------------
 BYTE   W96
//  #07 //054   ----------------------------------------
 BYTE   PATT
  POIN2 Label_011F38D5
//  #07 //055   ----------------------------------------
 BYTE   PATT
  POIN2 Label_011F38F2
//  #07 //056   ----------------------------------------
 BYTE   W96
//  #07 //057   ----------------------------------------
 BYTE   W96
//  #07 //058   ----------------------------------------
 BYTE   W96
//  #07 //059   ----------------------------------------
 BYTE   W96
//  #07 //060   ----------------------------------------
 BYTE   W96
//  #07 //061   ----------------------------------------
 BYTE   PATT
  POIN2 Label_011F3914
//  #07 //062   ----------------------------------------
 BYTE   PATT
  POIN2 Label_011F391F
//  #07 //063   ----------------------------------------
 BYTE   PATT
  POIN2 Label_011F3944
//  #07 //064   ----------------------------------------
 BYTE   PATT
  POIN2 Label_011F3974
//  #07 //065   ----------------------------------------
 BYTE   W96
//  #07 //066   ----------------------------------------
 BYTE   W96
//  #07 //067   ----------------------------------------
 BYTE   W96
//  #07 //068   ----------------------------------------
 BYTE   W96
//  #07 //069   ----------------------------------------
 BYTE   W96
//  #07 //070   ----------------------------------------
 BYTE   W96
//  #07 //071   ----------------------------------------
 BYTE   W96
//  #07 //072   ----------------------------------------
 BYTE   W96
//  #07 //073   ----------------------------------------
 BYTE   W96
//  #07 //074   ----------------------------------------
 BYTE   W96
//  #07 //075   ----------------------------------------
 BYTE   W96
//  #07 //076   ----------------------------------------
 BYTE   W96
//  #07 //077   ----------------------------------------
 BYTE   W96
//  #07 //078   ----------------------------------------
 BYTE   W96
//  #07 //079   ----------------------------------------
 BYTE   W90
 BYTE   N44  Dn3  v127
 BYTE   W06
//  #07 //080   ----------------------------------------
 BYTE   PATT
  POIN2 Label_011F3993
//  #07 //081   ----------------------------------------
 BYTE   N44  Dn3  v127
 BYTE   N44  Dn4
 BYTE   W48
 BYTE   N11  Fn3
 BYTE   N11  Fn4
 BYTE   W12
 BYTE   Gn3
 BYTE   N11  Gn4
 BYTE   W12
 BYTE   N05  An3
 BYTE   N05  An4
 BYTE   W06
 BYTE   N17  Cn4
 BYTE   N16  Cn5
 BYTE   W18
//  #07 //082   ----------------------------------------
 BYTE   W96
//  #07 //083   ----------------------------------------
 BYTE   W96
//  #07 //084   ----------------------------------------
 BYTE   W96
//  #07 //085   ----------------------------------------
 BYTE   W96
//  #07 //086   ----------------------------------------
 BYTE   W96
//  #07 //087   ----------------------------------------
 BYTE   W96
//  #07 //088   ----------------------------------------
 BYTE   W96
//  #07 //089   ----------------------------------------
 BYTE   W96
//  #07 //090   ----------------------------------------
 BYTE   W96
//  #07 //091   ----------------------------------------
 BYTE   W96
//  #07 //092   ----------------------------------------
 BYTE   W96
//  #07 //093   ----------------------------------------
 BYTE   W96
//  #07 //094   ----------------------------------------
Label_011F3A22:
 BYTE   N06  Fn2  v080
 BYTE   N06  As2  v092
 BYTE   W36
 BYTE   Fn2  v080
 BYTE   N06  As2  v092
 BYTE   W36
 BYTE   Fn2  v080
 BYTE   N06  As2  v092
 BYTE   W24
 BYTE   PEND 
//  #07 //095   ----------------------------------------
 BYTE   PATT
  POIN2 Label_011F3A22
//  #07 //096   ----------------------------------------
Label_011F3A3B:
 BYTE   N06  En2  v080
 BYTE   N06  An2  v092
 BYTE   W36
 BYTE   En2  v080
 BYTE   N06  An2  v092
 BYTE   W36
 BYTE   En2  v080
 BYTE   N06  An2  v092
 BYTE   W24
 BYTE   PEND 
//  #07 //097   ----------------------------------------
 BYTE   PATT
  POIN2 Label_011F3A3B
//  #07 //098   ----------------------------------------
 BYTE   PATT
  POIN2 Label_011F3A22
//  #07 //099   ----------------------------------------
 BYTE   PATT
  POIN2 Label_011F3A22
//  #07 //100   ----------------------------------------
Label_011F3A5E:
 BYTE   N06  En2  v080
 BYTE   N06  Gn2  v092
 BYTE   W36
 BYTE   En2  v080
 BYTE   N06  Gn2  v092
 BYTE   W36
 BYTE   En2  v080
 BYTE   N06  Gn2  v092
 BYTE   W24
 BYTE   PEND 
//  #07 //101   ----------------------------------------
 BYTE   Fn2
 BYTE   N06  An2  v080
 BYTE   W36
 BYTE   Fn2  v092
 BYTE   N06  An2  v080
 BYTE   W36
 BYTE   Fn2
 BYTE   N06  An2  v092
 BYTE   W24
//  #07 //102   ----------------------------------------
 BYTE   PATT
  POIN2 Label_011F3A22
//  #07 //103   ----------------------------------------
 BYTE   PATT
  POIN2 Label_011F3A22
//  #07 //104   ----------------------------------------
 BYTE   PATT
  POIN2 Label_011F3A3B
//  #07 //105   ----------------------------------------
 BYTE   PATT
  POIN2 Label_011F3A3B
//  #07 //106   ----------------------------------------
 BYTE   PATT
  POIN2 Label_011F3A22
//  #07 //107   ----------------------------------------
 BYTE   PATT
  POIN2 Label_011F3A22
//  #07 //108   ----------------------------------------
 BYTE   PATT
  POIN2 Label_011F3A5E
//  #07 //109   ----------------------------------------
 BYTE   N06  Fn2  v092
 BYTE   N06  An2  v080
 BYTE   W36
 BYTE   Fn2  v092
 BYTE   N06  An2  v080
 BYTE   W36
 BYTE   Fn2  v092
 BYTE   N06  An2  v080
 BYTE   W23
 BYTE   GoTo
  POIN2 Label_011F38BB
 BYTE   FINE

//**************** Track 8 (Midi-Chn.7) ****************//

FirstStepTowardsWar_008:
//  #08 //000   ----------------------------------------
 BYTE   KEYSH   FirstStepTowardsWar_key+0
 BYTE   VOICE   48
 BYTE   PAN   c_v+26
 BYTE   VOL   22*FirstStepTowardsWar_mvl/mxv
 BYTE   W96
//  #08 //001   ----------------------------------------
 BYTE   W96
//  #08 //002   ----------------------------------------
 BYTE   W96
//  #08 //003   ----------------------------------------
 BYTE   W96
//  #08 //004   ----------------------------------------
 BYTE   N92  An2  v092
 BYTE   W96
//  #08 //005   ----------------------------------------
 BYTE   N44  Dn3
 BYTE   W48
 BYTE   En3
 BYTE   W48
//  #08 //006   ----------------------------------------
 BYTE   N68  An2
 BYTE   W72
 BYTE   N22  Dn3
 BYTE   W24
//  #08 //007   ----------------------------------------
 BYTE   N92  Cs3
 BYTE   W96
//  #08 //008   ----------------------------------------
Label_011F3AEE:
 BYTE   N92  An2  v088
 BYTE   W96
//  #08 //009   ----------------------------------------
 BYTE   Dn3  v108
 BYTE   W96
//  #08 //010   ----------------------------------------
 BYTE   An3  v092
 BYTE   W96
//  #08 //011   ----------------------------------------
 BYTE   N44  Gn3
 BYTE   W96
//  #08 //012   ----------------------------------------
 BYTE   W96
//  #08 //013   ----------------------------------------
 BYTE   W96
//  #08 //014   ----------------------------------------
 BYTE   W96
//  #08 //015   ----------------------------------------
 BYTE   W96
//  #08 //016   ----------------------------------------
 BYTE   W96
//  #08 //017   ----------------------------------------
 BYTE   W96
//  #08 //018   ----------------------------------------
 BYTE   W96
//  #08 //019   ----------------------------------------
 BYTE   W96
//  #08 //020   ----------------------------------------
 BYTE   W96
//  #08 //021   ----------------------------------------
 BYTE   W96
//  #08 //022   ----------------------------------------
 BYTE   W96
//  #08 //023   ----------------------------------------
 BYTE   W96
//  #08 //024   ----------------------------------------
 BYTE   W96
//  #08 //025   ----------------------------------------
 BYTE   W96
//  #08 //026   ----------------------------------------
 BYTE   W96
//  #08 //027   ----------------------------------------
 BYTE   W96
//  #08 //028   ----------------------------------------
 BYTE   W96
//  #08 //029   ----------------------------------------
 BYTE   W96
//  #08 //030   ----------------------------------------
 BYTE   W96
//  #08 //031   ----------------------------------------
 BYTE   W96
//  #08 //032   ----------------------------------------
 BYTE   W96
//  #08 //033   ----------------------------------------
 BYTE   W96
//  #08 //034   ----------------------------------------
 BYTE   W96
//  #08 //035   ----------------------------------------
 BYTE   W96
//  #08 //036   ----------------------------------------
 BYTE   W96
//  #08 //037   ----------------------------------------
 BYTE   W96
//  #08 //038   ----------------------------------------
 BYTE   W96
//  #08 //039   ----------------------------------------
 BYTE   W96
//  #08 //040   ----------------------------------------
 BYTE   W96
//  #08 //041   ----------------------------------------
 BYTE   W96
//  #08 //042   ----------------------------------------
 BYTE   W96
//  #08 //043   ----------------------------------------
 BYTE   W96
//  #08 //044   ----------------------------------------
 BYTE   W96
//  #08 //045   ----------------------------------------
 BYTE   W96
//  #08 //046   ----------------------------------------
 BYTE   W96
//  #08 //047   ----------------------------------------
 BYTE   W96
//  #08 //048   ----------------------------------------
 BYTE   W96
//  #08 //049   ----------------------------------------
 BYTE   W96
//  #08 //050   ----------------------------------------
 BYTE   W96
//  #08 //051   ----------------------------------------
 BYTE   W96
//  #08 //052   ----------------------------------------
 BYTE   W96
//  #08 //053   ----------------------------------------
 BYTE   W96
//  #08 //054   ----------------------------------------
 BYTE   W96
//  #08 //055   ----------------------------------------
 BYTE   W96
//  #08 //056   ----------------------------------------
 BYTE   W96
//  #08 //057   ----------------------------------------
 BYTE   W96
//  #08 //058   ----------------------------------------
 BYTE   W96
//  #08 //059   ----------------------------------------
 BYTE   W96
//  #08 //060   ----------------------------------------
 BYTE   W96
//  #08 //061   ----------------------------------------
 BYTE   W96
//  #08 //062   ----------------------------------------
 BYTE   W96
//  #08 //063   ----------------------------------------
 BYTE   W96
//  #08 //064   ----------------------------------------
 BYTE   W96
//  #08 //065   ----------------------------------------
 BYTE   W96
//  #08 //066   ----------------------------------------
 BYTE   W96
//  #08 //067   ----------------------------------------
 BYTE   W96
//  #08 //068   ----------------------------------------
 BYTE   W96
//  #08 //069   ----------------------------------------
 BYTE   W96
//  #08 //070   ----------------------------------------
 BYTE   W96
//  #08 //071   ----------------------------------------
 BYTE   W96
//  #08 //072   ----------------------------------------
 BYTE   W96
//  #08 //073   ----------------------------------------
 BYTE   W96
//  #08 //074   ----------------------------------------
 BYTE   W96
//  #08 //075   ----------------------------------------
 BYTE   W96
//  #08 //076   ----------------------------------------
 BYTE   W96
//  #08 //077   ----------------------------------------
 BYTE   W96
//  #08 //078   ----------------------------------------
 BYTE   W96
//  #08 //079   ----------------------------------------
 BYTE   W96
//  #08 //080   ----------------------------------------
 BYTE   W96
//  #08 //081   ----------------------------------------
 BYTE   W96
//  #08 //082   ----------------------------------------
 BYTE   W96
//  #08 //083   ----------------------------------------
 BYTE   W96
//  #08 //084   ----------------------------------------
 BYTE   W96
//  #08 //085   ----------------------------------------
 BYTE   VOICE   56
 BYTE   W12
 BYTE   PAN   c_v+0
 BYTE   W84
//  #08 //086   ----------------------------------------
Label_011F3B4A:
 BYTE   N06  As1  v112
 BYTE   W36
 BYTE   N06
 BYTE   W36
 BYTE   N06
 BYTE   W24
 BYTE   PEND 
//  #08 //087   ----------------------------------------
 BYTE   PATT
  POIN2 Label_011F3B4A
//  #08 //088   ----------------------------------------
Label_011F3B58:
 BYTE   N06  An1  v112
 BYTE   W36
 BYTE   N06
 BYTE   W36
 BYTE   N06
 BYTE   W24
 BYTE   PEND 
//  #08 //089   ----------------------------------------
 BYTE   PATT
  POIN2 Label_011F3B58
//  #08 //090   ----------------------------------------
 BYTE   PATT
  POIN2 Label_011F3B4A
//  #08 //091   ----------------------------------------
 BYTE   PATT
  POIN2 Label_011F3B4A
//  #08 //092   ----------------------------------------
 BYTE   N06  Cn2  v112
 BYTE   W36
 BYTE   N06
 BYTE   W36
 BYTE   N06
 BYTE   W24
//  #08 //093   ----------------------------------------
 BYTE   Dn2
 BYTE   W36
 BYTE   N06
 BYTE   W36
 BYTE   N06
 BYTE   W24
//  #08 //094   ----------------------------------------
Label_011F3B7E:
 BYTE   N06  Fn3  v092
 BYTE   W36
 BYTE   N06
 BYTE   W36
 BYTE   N06
 BYTE   W24
 BYTE   PEND 
//  #08 //095   ----------------------------------------
 BYTE   PATT
  POIN2 Label_011F3B7E
//  #08 //096   ----------------------------------------
Label_011F3B8C:
 BYTE   N06  An3  v092
 BYTE   W36
 BYTE   N06
 BYTE   W36
 BYTE   N06
 BYTE   W24
 BYTE   PEND 
//  #08 //097   ----------------------------------------
 BYTE   PATT
  POIN2 Label_011F3B8C
//  #08 //098   ----------------------------------------
 BYTE   PATT
  POIN2 Label_011F3B7E
//  #08 //099   ----------------------------------------
 BYTE   PATT
  POIN2 Label_011F3B7E
//  #08 //100   ----------------------------------------
 BYTE   PATT
  POIN2 Label_011F3B8C
//  #08 //101   ----------------------------------------
 BYTE   N06  Gn3  v092
 BYTE   W36
 BYTE   N06
 BYTE   W36
 BYTE   N06
 BYTE   W24
//  #08 //102   ----------------------------------------
 BYTE   PATT
  POIN2 Label_011F3B7E
//  #08 //103   ----------------------------------------
 BYTE   PATT
  POIN2 Label_011F3B7E
//  #08 //104   ----------------------------------------
 BYTE   PATT
  POIN2 Label_011F3B8C
//  #08 //105   ----------------------------------------
 BYTE   PATT
  POIN2 Label_011F3B8C
//  #08 //106   ----------------------------------------
 BYTE   PATT
  POIN2 Label_011F3B7E
//  #08 //107   ----------------------------------------
 BYTE   PATT
  POIN2 Label_011F3B7E
//  #08 //108   ----------------------------------------
 BYTE   PATT
  POIN2 Label_011F3B8C
//  #08 //109   ----------------------------------------
 BYTE   N06  Gn3  v092
 BYTE   W36
 BYTE   N06
 BYTE   W36
 BYTE   N06
 BYTE   W23
 BYTE   GoTo
  POIN2 Label_011F3AEE
 BYTE   FINE

//**************** Track 9 (Midi-Chn.8) ****************//

FirstStepTowardsWar_009:
//  #09 //000   ----------------------------------------
 BYTE   KEYSH   FirstStepTowardsWar_key+0
 BYTE   VOICE   48
 BYTE   PAN   c_v-24
 BYTE   VOL   22*FirstStepTowardsWar_mvl/mxv
 BYTE   N11  Gn4  v100
 BYTE   W12
 BYTE   An3  v092
 BYTE   W12
 BYTE   Dn4
 BYTE   W12
 BYTE   En4
 BYTE   W12
 BYTE   Fn4  v100
 BYTE   W12
 BYTE   An3  v092
 BYTE   W12
 BYTE   Dn4
 BYTE   W12
 BYTE   En4
 BYTE   W12
//  #09 //001   ----------------------------------------
Label_011F3C11:
 BYTE   N11  Fn4  v100
 BYTE   W12
 BYTE   An3  v092
 BYTE   W12
 BYTE   Dn4
 BYTE   W12
 BYTE   Gn4
 BYTE   W12
 BYTE   Fn4  v100
 BYTE   W12
 BYTE   An3  v092
 BYTE   W12
 BYTE   Dn4
 BYTE   W12
 BYTE   Gn4  v100
 BYTE   W12
 BYTE   PEND 
//  #09 //002   ----------------------------------------
Label_011F3C28:
 BYTE   N11  Fn4  v100
 BYTE   W12
 BYTE   An3  v092
 BYTE   W12
 BYTE   Dn4
 BYTE   W12
 BYTE   Fn4  v100
 BYTE   W12
 BYTE   Gn4
 BYTE   W12
 BYTE   An3  v092
 BYTE   W12
 BYTE   Dn4
 BYTE   W12
 BYTE   Gn4  v100
 BYTE   W12
 BYTE   PEND 
//  #09 //003   ----------------------------------------
 BYTE   Fn4
 BYTE   W12
 BYTE   An3  v092
 BYTE   W12
 BYTE   Dn4
 BYTE   W12
 BYTE   Fn4  v100
 BYTE   W12
 BYTE   En4
 BYTE   W12
 BYTE   Dn4  v092
 BYTE   W12
 BYTE   Cn4
 BYTE   W12
 BYTE   An3
 BYTE   W12
//  #09 //004   ----------------------------------------
 BYTE   Gn4  v100
 BYTE   W12
 BYTE   An3  v092
 BYTE   W12
 BYTE   Dn4
 BYTE   W12
 BYTE   En4
 BYTE   W12
 BYTE   Fn4  v100
 BYTE   W12
 BYTE   An3  v092
 BYTE   W12
 BYTE   Dn4
 BYTE   W12
 BYTE   En4
 BYTE   W12
//  #09 //005   ----------------------------------------
 BYTE   PATT
  POIN2 Label_011F3C11
//  #09 //006   ----------------------------------------
 BYTE   PATT
  POIN2 Label_011F3C28
//  #09 //007   ----------------------------------------
 BYTE   N11  Fn4  v100
 BYTE   W12
 BYTE   An3  v092
 BYTE   W12
 BYTE   Dn4
 BYTE   W12
 BYTE   Fn4  v100
 BYTE   W12
 BYTE   En4
 BYTE   W12
 BYTE   Dn4  v092
 BYTE   W12
 BYTE   Cs4
 BYTE   W12
 BYTE   En4
 BYTE   W12
//  #09 //008   ----------------------------------------
Label_011F3C85:
 BYTE   N11  Fn4  v100
 BYTE   W12
 BYTE   An3  v080
 BYTE   W12
 BYTE   Dn4  v088
 BYTE   W12
 BYTE   Fn4  v092
 BYTE   W12
 BYTE   Gn4  v100
 BYTE   W12
 BYTE   An3  v080
 BYTE   W12
 BYTE   Dn4  v088
 BYTE   W12
 BYTE   Gn4  v092
 BYTE   W12
 BYTE   PEND 
//  #09 //009   ----------------------------------------
 BYTE   PATT
  POIN2 Label_011F3C85
//  #09 //010   ----------------------------------------
 BYTE   PATT
  POIN2 Label_011F3C85
//  #09 //011   ----------------------------------------
 BYTE   N11  Fn4  v100
 BYTE   W12
 BYTE   An3  v080
 BYTE   W12
 BYTE   Dn4  v088
 BYTE   W12
 BYTE   Fn4  v092
 BYTE   W24
 BYTE   Gn4  v100
 BYTE   W18
 BYTE   N17  An4  v080
 BYTE   W18
//  #09 //012   ----------------------------------------
 BYTE   W96
//  #09 //013   ----------------------------------------
 BYTE   W96
//  #09 //014   ----------------------------------------
 BYTE   W96
//  #09 //015   ----------------------------------------
 BYTE   W96
//  #09 //016   ----------------------------------------
 BYTE   W96
//  #09 //017   ----------------------------------------
 BYTE   W96
//  #09 //018   ----------------------------------------
 BYTE   W96
//  #09 //019   ----------------------------------------
 BYTE   W96
//  #09 //020   ----------------------------------------
 BYTE   W96
//  #09 //021   ----------------------------------------
 BYTE   W96
//  #09 //022   ----------------------------------------
 BYTE   W96
//  #09 //023   ----------------------------------------
 BYTE   W96
//  #09 //024   ----------------------------------------
 BYTE   W96
//  #09 //025   ----------------------------------------
 BYTE   W96
//  #09 //026   ----------------------------------------
 BYTE   W96
//  #09 //027   ----------------------------------------
 BYTE   W96
//  #09 //028   ----------------------------------------
 BYTE   W96
//  #09 //029   ----------------------------------------
 BYTE   W96
//  #09 //030   ----------------------------------------
 BYTE   W96
//  #09 //031   ----------------------------------------
 BYTE   W96
//  #09 //032   ----------------------------------------
 BYTE   W96
//  #09 //033   ----------------------------------------
 BYTE   W96
//  #09 //034   ----------------------------------------
 BYTE   W96
//  #09 //035   ----------------------------------------
 BYTE   W96
//  #09 //036   ----------------------------------------
 BYTE   W96
//  #09 //037   ----------------------------------------
 BYTE   W96
//  #09 //038   ----------------------------------------
 BYTE   W96
//  #09 //039   ----------------------------------------
 BYTE   W96
//  #09 //040   ----------------------------------------
 BYTE   W96
//  #09 //041   ----------------------------------------
 BYTE   W96
//  #09 //042   ----------------------------------------
 BYTE   W96
//  #09 //043   ----------------------------------------
 BYTE   W96
//  #09 //044   ----------------------------------------
 BYTE   W96
//  #09 //045   ----------------------------------------
 BYTE   W96
//  #09 //046   ----------------------------------------
 BYTE   W96
//  #09 //047   ----------------------------------------
 BYTE   W96
//  #09 //048   ----------------------------------------
 BYTE   W96
//  #09 //049   ----------------------------------------
 BYTE   W96
//  #09 //050   ----------------------------------------
 BYTE   W96
//  #09 //051   ----------------------------------------
 BYTE   W96
//  #09 //052   ----------------------------------------
 BYTE   W96
//  #09 //053   ----------------------------------------
 BYTE   W96
//  #09 //054   ----------------------------------------
 BYTE   W96
//  #09 //055   ----------------------------------------
 BYTE   W96
//  #09 //056   ----------------------------------------
 BYTE   W96
//  #09 //057   ----------------------------------------
 BYTE   W96
//  #09 //058   ----------------------------------------
 BYTE   W96
//  #09 //059   ----------------------------------------
 BYTE   W96
//  #09 //060   ----------------------------------------
 BYTE   W96
//  #09 //061   ----------------------------------------
 BYTE   W96
//  #09 //062   ----------------------------------------
 BYTE   W96
//  #09 //063   ----------------------------------------
 BYTE   W96
//  #09 //064   ----------------------------------------
 BYTE   W96
//  #09 //065   ----------------------------------------
 BYTE   W96
//  #09 //066   ----------------------------------------
 BYTE   W96
//  #09 //067   ----------------------------------------
 BYTE   W96
//  #09 //068   ----------------------------------------
 BYTE   W96
//  #09 //069   ----------------------------------------
 BYTE   W96
//  #09 //070   ----------------------------------------
 BYTE   W96
//  #09 //071   ----------------------------------------
 BYTE   W96
//  #09 //072   ----------------------------------------
 BYTE   W96
//  #09 //073   ----------------------------------------
 BYTE   W96
//  #09 //074   ----------------------------------------
 BYTE   W96
//  #09 //075   ----------------------------------------
 BYTE   W96
//  #09 //076   ----------------------------------------
 BYTE   W96
//  #09 //077   ----------------------------------------
 BYTE   W96
//  #09 //078   ----------------------------------------
 BYTE   W96
//  #09 //079   ----------------------------------------
 BYTE   W96
//  #09 //080   ----------------------------------------
 BYTE   W96
//  #09 //081   ----------------------------------------
 BYTE   W96
//  #09 //082   ----------------------------------------
 BYTE   W96
//  #09 //083   ----------------------------------------
 BYTE   W96
//  #09 //084   ----------------------------------------
 BYTE   W96
//  #09 //085   ----------------------------------------
 BYTE   W96
//  #09 //086   ----------------------------------------
 BYTE   N44  Dn3  v112
 BYTE   W48
 BYTE   N11  Dn3  v100
 BYTE   W12
 BYTE   En3  v092
 BYTE   W12
 BYTE   Fn3  v100
 BYTE   W12
 BYTE   Gn3
 BYTE   W12
//  #09 //087   ----------------------------------------
Label_011F3D17:
 BYTE   N44  An3  v112
 BYTE   W48
 BYTE   N23  Gn3  v100
 BYTE   W24
 BYTE   N05  Fn3
 BYTE   W06
 BYTE   N17  En3
 BYTE   W18
 BYTE   PEND 
//  #09 //088   ----------------------------------------
Label_011F3D26:
 BYTE   N05  Fn3  v112
 BYTE   W06
 BYTE   En3  v100
 BYTE   W06
 BYTE   N32  Dn3
 BYTE   W36
 BYTE   N11
 BYTE   W12
 BYTE   En3
 BYTE   W12
 BYTE   N04  Fn3
 BYTE   W06
 BYTE   N16  Gn3
 BYTE   W18
 BYTE   PEND 
//  #09 //089   ----------------------------------------
Label_011F3D3B:
 BYTE   N44  An3  v112
 BYTE   W48
 BYTE   N23  Gn3  v100
 BYTE   W24
 BYTE   N05  Fn3
 BYTE   W06
 BYTE   N16  En3
 BYTE   W18
 BYTE   PEND 
//  #09 //090   ----------------------------------------
Label_011F3D4A:
 BYTE   N44  Dn3  v112
 BYTE   W48
 BYTE   N11  Dn3  v100
 BYTE   W12
 BYTE   En3  v092
 BYTE   W12
 BYTE   N04  Fn3  v100
 BYTE   W06
 BYTE   N11  Gn3
 BYTE   W12
 BYTE   N04  Dn3
 BYTE   W06
 BYTE   PEND 
//  #09 //091   ----------------------------------------
 BYTE   PATT
  POIN2 Label_011F3D17
//  #09 //092   ----------------------------------------
Label_011F3D65:
 BYTE   N11  Fn3  v100
 BYTE   W12
 BYTE   Dn3
 BYTE   W12
 BYTE   Fn3
 BYTE   W12
 BYTE   N22  As3
 BYTE   W24
 BYTE   N11  Dn3
 BYTE   W12
 BYTE   As3
 BYTE   W12
 BYTE   Dn4
 BYTE   W12
 BYTE   PEND 
//  #09 //093   ----------------------------------------
Label_011F3D78:
 BYTE   N44  En4  v100
 BYTE   W48
 BYTE   N23  Gn3
 BYTE   W24
 BYTE   N05  Fn3
 BYTE   W06
 BYTE   N16  En3
 BYTE   W18
 BYTE   PEND 
//  #09 //094   ----------------------------------------
 BYTE   PATT
  POIN2 Label_011F3D4A
//  #09 //095   ----------------------------------------
 BYTE   PATT
  POIN2 Label_011F3D17
//  #09 //096   ----------------------------------------
 BYTE   PATT
  POIN2 Label_011F3D26
//  #09 //097   ----------------------------------------
 BYTE   PATT
  POIN2 Label_011F3D3B
//  #09 //098   ----------------------------------------
 BYTE   PATT
  POIN2 Label_011F3D4A
//  #09 //099   ----------------------------------------
 BYTE   PATT
  POIN2 Label_011F3D17
//  #09 //100   ----------------------------------------
 BYTE   PATT
  POIN2 Label_011F3D65
//  #09 //101   ----------------------------------------
 BYTE   PATT
  POIN2 Label_011F3D78
//  #09 //102   ----------------------------------------
 BYTE   PATT
  POIN2 Label_011F3D4A
//  #09 //103   ----------------------------------------
 BYTE   PATT
  POIN2 Label_011F3D17
//  #09 //104   ----------------------------------------
 BYTE   PATT
  POIN2 Label_011F3D26
//  #09 //105   ----------------------------------------
 BYTE   PATT
  POIN2 Label_011F3D3B
//  #09 //106   ----------------------------------------
 BYTE   PATT
  POIN2 Label_011F3D4A
//  #09 //107   ----------------------------------------
 BYTE   PATT
  POIN2 Label_011F3D17
//  #09 //108   ----------------------------------------
 BYTE   PATT
  POIN2 Label_011F3D65
//  #09 //109   ----------------------------------------
 BYTE   N44  Cn4  v100
 BYTE   W48
 BYTE   N23  Gn3
 BYTE   W24
 BYTE   N05  Fn3
 BYTE   W06
 BYTE   N16  En3
 BYTE   W17
 BYTE   GoTo
  POIN2 Label_011F3C85
 BYTE   FINE

//**************** Track 10 (Midi-Chn.9) ****************//

FirstStepTowardsWar_010:
//  #10 //000   ----------------------------------------
 BYTE   KEYSH   FirstStepTowardsWar_key+0
 BYTE   VOICE   32
 BYTE   PAN   c_v+26
 BYTE   VOL   22*FirstStepTowardsWar_mvl/mxv
 BYTE   W96
//  #10 //001   ----------------------------------------
 BYTE   W96
//  #10 //002   ----------------------------------------
 BYTE   W96
//  #10 //003   ----------------------------------------
 BYTE   W96
//  #10 //004   ----------------------------------------
 BYTE   W96
//  #10 //005   ----------------------------------------
 BYTE   W96
//  #10 //006   ----------------------------------------
 BYTE   W96
//  #10 //007   ----------------------------------------
 BYTE   W96
//  #10 //008   ----------------------------------------
Label_011F3E08:
 BYTE   W96
//  #10 //009   ----------------------------------------
 BYTE   W96
//  #10 //010   ----------------------------------------
 BYTE   W96
//  #10 //011   ----------------------------------------
 BYTE   W96
//  #10 //012   ----------------------------------------
 BYTE   W96
//  #10 //013   ----------------------------------------
 BYTE   W96
//  #10 //014   ----------------------------------------
 BYTE   W96
//  #10 //015   ----------------------------------------
 BYTE   W96
//  #10 //016   ----------------------------------------
 BYTE   W96
//  #10 //017   ----------------------------------------
 BYTE   W96
//  #10 //018   ----------------------------------------
 BYTE   W96
//  #10 //019   ----------------------------------------
 BYTE   W96
//  #10 //020   ----------------------------------------
 BYTE   W96
//  #10 //021   ----------------------------------------
 BYTE   W96
//  #10 //022   ----------------------------------------
 BYTE   W96
//  #10 //023   ----------------------------------------
 BYTE   W96
//  #10 //024   ----------------------------------------
 BYTE   W96
//  #10 //025   ----------------------------------------
 BYTE   W96
//  #10 //026   ----------------------------------------
 BYTE   W96
//  #10 //027   ----------------------------------------
 BYTE   W96
//  #10 //028   ----------------------------------------
 BYTE   W92
 BYTE   N04  Cn3  v100
 BYTE   W04
//  #10 //029   ----------------------------------------
 BYTE   W96
//  #10 //030   ----------------------------------------
 BYTE   W96
//  #10 //031   ----------------------------------------
 BYTE   W96
//  #10 //032   ----------------------------------------
 BYTE   W92
 BYTE   W02
 BYTE   N03  Cn3  v120
 BYTE   W02
//  #10 //033   ----------------------------------------
 BYTE   W96
//  #10 //034   ----------------------------------------
 BYTE   W84
 BYTE   N03
 BYTE   W12
//  #10 //035   ----------------------------------------
 BYTE   W96
//  #10 //036   ----------------------------------------
 BYTE   W96
//  #10 //037   ----------------------------------------
 BYTE   W96
//  #10 //038   ----------------------------------------
 BYTE   W92
 BYTE   N04  Cn3  v100
 BYTE   W04
//  #10 //039   ----------------------------------------
 BYTE   W96
//  #10 //040   ----------------------------------------
 BYTE   W96
//  #10 //041   ----------------------------------------
 BYTE   W96
//  #10 //042   ----------------------------------------
 BYTE   W96
//  #10 //043   ----------------------------------------
 BYTE   W96
//  #10 //044   ----------------------------------------
 BYTE   W96
//  #10 //045   ----------------------------------------
 BYTE   W96
//  #10 //046   ----------------------------------------
 BYTE   W96
//  #10 //047   ----------------------------------------
 BYTE   W96
//  #10 //048   ----------------------------------------
 BYTE   W96
//  #10 //049   ----------------------------------------
 BYTE   W96
//  #10 //050   ----------------------------------------
 BYTE   W96
//  #10 //051   ----------------------------------------
 BYTE   W96
//  #10 //052   ----------------------------------------
 BYTE   W96
//  #10 //053   ----------------------------------------
 BYTE   W96
//  #10 //054   ----------------------------------------
 BYTE   W96
//  #10 //055   ----------------------------------------
 BYTE   W96
//  #10 //056   ----------------------------------------
 BYTE   W96
//  #10 //057   ----------------------------------------
 BYTE   W96
//  #10 //058   ----------------------------------------
 BYTE   W96
//  #10 //059   ----------------------------------------
 BYTE   W96
//  #10 //060   ----------------------------------------
 BYTE   W96
//  #10 //061   ----------------------------------------
 BYTE   W96
//  #10 //062   ----------------------------------------
 BYTE   W96
//  #10 //063   ----------------------------------------
 BYTE   W96
//  #10 //064   ----------------------------------------
 BYTE   W96
//  #10 //065   ----------------------------------------
 BYTE   W92
 BYTE   N04
 BYTE   W04
//  #10 //066   ----------------------------------------
 BYTE   W96
//  #10 //067   ----------------------------------------
 BYTE   W96
//  #10 //068   ----------------------------------------
 BYTE   W96
//  #10 //069   ----------------------------------------
 BYTE   W96
//  #10 //070   ----------------------------------------
 BYTE   W96
//  #10 //071   ----------------------------------------
 BYTE   W72
 BYTE   N06
 BYTE   W24
//  #10 //072   ----------------------------------------
 BYTE   W96
//  #10 //073   ----------------------------------------
 BYTE   W96
//  #10 //074   ----------------------------------------
 BYTE   W96
//  #10 //075   ----------------------------------------
 BYTE   W96
//  #10 //076   ----------------------------------------
 BYTE   W92
 BYTE   W02
 BYTE   N02  Cn3  v092
 BYTE   W02
//  #10 //077   ----------------------------------------
 BYTE   W96
//  #10 //078   ----------------------------------------
 BYTE   W96
//  #10 //079   ----------------------------------------
 BYTE   W96
//  #10 //080   ----------------------------------------
 BYTE   W96
//  #10 //081   ----------------------------------------
 BYTE   W96
//  #10 //082   ----------------------------------------
 BYTE   W96
//  #10 //083   ----------------------------------------
 BYTE   W96
//  #10 //084   ----------------------------------------
 BYTE   W96
//  #10 //085   ----------------------------------------
 BYTE   W96
//  #10 //086   ----------------------------------------
 BYTE   W96
//  #10 //087   ----------------------------------------
 BYTE   W96
//  #10 //088   ----------------------------------------
 BYTE   W96
//  #10 //089   ----------------------------------------
 BYTE   W96
//  #10 //090   ----------------------------------------
 BYTE   W96
//  #10 //091   ----------------------------------------
 BYTE   W96
//  #10 //092   ----------------------------------------
 BYTE   W96
//  #10 //093   ----------------------------------------
 BYTE   W92
 BYTE   W02
 BYTE   VOICE   47
 BYTE   W01
 BYTE   PAN   c_v+0
 BYTE   W01
//  #10 //094   ----------------------------------------
Label_011F3E7D:
 BYTE   N01  As1  v112
 BYTE   W36
 BYTE   As1  v092
 BYTE   W48
 BYTE   Dn1  v072
 BYTE   W06
 BYTE   Dn1  v092
 BYTE   W06
 BYTE   PEND 
//  #10 //095   ----------------------------------------
 BYTE   PATT
  POIN2 Label_011F3E7D
//  #10 //096   ----------------------------------------
Label_011F3E90:
 BYTE   N01  An1  v112
 BYTE   W36
 BYTE   An1  v092
 BYTE   W48
 BYTE   Dn1  v072
 BYTE   W06
 BYTE   Dn1  v092
 BYTE   W06
 BYTE   PEND 
//  #10 //097   ----------------------------------------
 BYTE   PATT
  POIN2 Label_011F3E90
//  #10 //098   ----------------------------------------
 BYTE   PATT
  POIN2 Label_011F3E7D
//  #10 //099   ----------------------------------------
 BYTE   PATT
  POIN2 Label_011F3E7D
//  #10 //100   ----------------------------------------
Label_011F3EAD:
 BYTE   N01  Cn2  v112
 BYTE   W36
 BYTE   Cn2  v092
 BYTE   W48
 BYTE   Dn1  v072
 BYTE   W06
 BYTE   Dn1  v092
 BYTE   W06
 BYTE   PEND 
//  #10 //101   ----------------------------------------
 BYTE   PATT
  POIN2 Label_011F3E90
//  #10 //102   ----------------------------------------
 BYTE   PATT
  POIN2 Label_011F3E7D
//  #10 //103   ----------------------------------------
 BYTE   PATT
  POIN2 Label_011F3E7D
//  #10 //104   ----------------------------------------
 BYTE   PATT
  POIN2 Label_011F3E90
//  #10 //105   ----------------------------------------
 BYTE   PATT
  POIN2 Label_011F3E90
//  #10 //106   ----------------------------------------
 BYTE   PATT
  POIN2 Label_011F3E7D
//  #10 //107   ----------------------------------------
 BYTE   PATT
  POIN2 Label_011F3E7D
//  #10 //108   ----------------------------------------
 BYTE   PATT
  POIN2 Label_011F3EAD
//  #10 //109   ----------------------------------------
 BYTE   N01  Dn1  v112
 BYTE   W06
 BYTE   Dn1  v100
 BYTE   W06
 BYTE   Dn1  v108
 BYTE   W06
 BYTE   Dn1  v096
 BYTE   W06
 BYTE   Dn1  v100
 BYTE   W06
 BYTE   Dn1  v092
 BYTE   W06
 BYTE   Dn1  v096
 BYTE   W06
 BYTE   Dn1  v088
 BYTE   W06
 BYTE   Dn1  v080
 BYTE   W06
 BYTE   Dn1  v092
 BYTE   W06
 BYTE   Dn1  v080
 BYTE   W06
 BYTE   Dn1  v092
 BYTE   W06
 BYTE   Dn1  v100
 BYTE   W06
 BYTE   Dn1  v112
 BYTE   W06
 BYTE   Dn1  v108
 BYTE   W06
 BYTE   Dn1  v120
 BYTE   W05
 BYTE   GoTo
  POIN2 Label_011F3E08
 BYTE   FINE

//**************** Track 11 (Midi-Chn.10) ****************//

FirstStepTowardsWar_011:
//  #11 //000   ----------------------------------------
 BYTE   KEYSH   FirstStepTowardsWar_key+0
 BYTE   VOICE   124
 BYTE   PAN   c_v+0
 BYTE   VOL   25*FirstStepTowardsWar_mvl/mxv
 BYTE   W96
//  #11 //001   ----------------------------------------
 BYTE   W96
//  #11 //002   ----------------------------------------
 BYTE   W96
//  #11 //003   ----------------------------------------
 BYTE   W96
//  #11 //004   ----------------------------------------
 BYTE   W96
//  #11 //005   ----------------------------------------
 BYTE   W96
//  #11 //006   ----------------------------------------
 BYTE   W96
//  #11 //007   ----------------------------------------
 BYTE   N01  Gs1  v100
 BYTE   W24
 BYTE   N01
 BYTE   W24
 BYTE   N01
 BYTE   W12
 BYTE   Cn1  v092
 BYTE   N01  Gs1
 BYTE   W06
 BYTE   Cn1  v080
 BYTE   N01  Gs1
 BYTE   W06
 BYTE   Dn1  v120
 BYTE   N01  Cs2  v092
 BYTE   W24
//  #11 //008   ----------------------------------------
Label_011FC0AF:
 BYTE   N01  Cn1  v112
 BYTE   N01  Fs1  v092
 BYTE   W06
 BYTE   Fs1  v060
 BYTE   W06
 BYTE   Cn1  v092
 BYTE   N01  Fs1  v060
 BYTE   W06
 BYTE   Cn1  v080
 BYTE   N01  Fs1  v060
 BYTE   W06
 BYTE   Dn1  v120
 BYTE   N01  An2  v092
 BYTE   W06
 BYTE   Fs1  v060
 BYTE   W06
 BYTE   N01
 BYTE   W06
 BYTE   Cn1  v092
 BYTE   N01  Fs1  v060
 BYTE   W06
 BYTE   Cn1  v100
 BYTE   N01  Fs1  v092
 BYTE   W06
 BYTE   Fs1  v060
 BYTE   W06
 BYTE   Cn1  v092
 BYTE   N01  Fs1  v060
 BYTE   W06
 BYTE   N01
 BYTE   W06
 BYTE   Dn1  v120
 BYTE   N01  Fs1  v092
 BYTE   W06
 BYTE   Fs1  v060
 BYTE   W06
 BYTE   Cn1  v092
 BYTE   N01  Fs1  v060
 BYTE   W06
 BYTE   N01
 BYTE   W06
//  #11 //009   ----------------------------------------
 BYTE   Cn1  v112
 BYTE   N01  Fs1  v092
 BYTE   W06
 BYTE   Fs1  v060
 BYTE   W06
 BYTE   Cn1  v092
 BYTE   N01  Fs1  v060
 BYTE   W06
 BYTE   Cn1  v080
 BYTE   N01  Fs1  v060
 BYTE   W06
 BYTE   Dn1  v120
 BYTE   N01  An2  v092
 BYTE   W06
 BYTE   Fs1  v060
 BYTE   W06
 BYTE   N01
 BYTE   W06
 BYTE   Cn1  v092
 BYTE   N01  Fs1  v060
 BYTE   W06
 BYTE   Dn1  v120
 BYTE   N01  Fs1  v092
 BYTE   W06
 BYTE   Fs1  v060
 BYTE   W06
 BYTE   Dn1  v112
 BYTE   N01  Fs1  v092
 BYTE   W06
 BYTE   Fs1  v060
 BYTE   W06
 BYTE   Dn1  v120
 BYTE   N01  Fs1  v092
 BYTE   W06
 BYTE   Dn1
 BYTE   N01  Cs2  v080
 BYTE   W06
 BYTE   Fs1  v060
 BYTE   W06
 BYTE   Dn1  v127
 BYTE   N01  An2  v092
 BYTE   W06
//  #11 //010   ----------------------------------------
 BYTE   W12
 BYTE   Cn1
 BYTE   N01  Fs1  v060
 BYTE   W06
 BYTE   Cn1  v080
 BYTE   N01  Fs1  v060
 BYTE   W06
 BYTE   Dn1  v120
 BYTE   N01  An2  v092
 BYTE   W06
 BYTE   Fs1  v060
 BYTE   W06
 BYTE   N01
 BYTE   W06
 BYTE   Cn1  v092
 BYTE   N01  Fs1  v060
 BYTE   W06
 BYTE   Cn1  v100
 BYTE   N01  Fs1  v092
 BYTE   W06
 BYTE   Fs1  v060
 BYTE   W06
 BYTE   Cn1  v092
 BYTE   N01  Fs1  v060
 BYTE   W06
 BYTE   N01
 BYTE   W06
 BYTE   Dn1  v120
 BYTE   N01  Fs1  v092
 BYTE   W06
 BYTE   Fs1  v060
 BYTE   W06
 BYTE   Cn1  v092
 BYTE   N01  Fs1  v060
 BYTE   W06
 BYTE   N01
 BYTE   W06
//  #11 //011   ----------------------------------------
 BYTE   Cn1  v112
 BYTE   N01  Fs1  v092
 BYTE   W06
 BYTE   Fs1  v060
 BYTE   W06
 BYTE   N01
 BYTE   W06
 BYTE   N01
 BYTE   W06
 BYTE   Dn1  v120
 BYTE   N01  An2  v092
 BYTE   W06
 BYTE   Fs1  v060
 BYTE   W06
 BYTE   N01
 BYTE   W06
 BYTE   Cn1  v092
 BYTE   N01  Fs1  v060
 BYTE   W06
 BYTE   Dn1  v120
 BYTE   N01  Fs1  v092
 BYTE   W06
 BYTE   Fs1  v060
 BYTE   W06
 BYTE   Dn1  v112
 BYTE   N01  An2  v092
 BYTE   W06
 BYTE   Fs1  v060
 BYTE   W06
 BYTE   Dn1  v120
 BYTE   N01  Fs1  v092
 BYTE   W06
 BYTE   Dn1  v127
 BYTE   N01  Cs2  v080
 BYTE   W18
//  #11 //012   ----------------------------------------
Label_011FC1BF:
 BYTE   N01  Cn1  v112
 BYTE   N01  Fs1  v100
 BYTE   W06
 BYTE   Fs1  v052
 BYTE   W06
 BYTE   Fs1  v040
 BYTE   W06
 BYTE   Fs1  v092
 BYTE   W06
 BYTE   Dn1  v120
 BYTE   W06
 BYTE   As1  v080
 BYTE   W06
 BYTE   Fs1  v052
 BYTE   W06
 BYTE   Cn1  v092
 BYTE   N01  Fs1  v052
 BYTE   W06
 BYTE   Cn1  v100
 BYTE   N01  Fs1  v092
 BYTE   W06
 BYTE   Fs1  v052
 BYTE   W06
 BYTE   Cn1  v092
 BYTE   N01  As1  v052
 BYTE   W06
 BYTE   Fs1  v072
 BYTE   W06
 BYTE   Dn1  v120
 BYTE   W06
 BYTE   Fs1  v060
 BYTE   W06
 BYTE   Cn1  v100
 BYTE   N01  As1  v052
 BYTE   W06
 BYTE   Fs1  v040
 BYTE   W06
 BYTE   PEND 
//  #11 //013   ----------------------------------------
Label_011FC200:
 BYTE   N01  Cn1  v112
 BYTE   N01  Fs1  v100
 BYTE   W06
 BYTE   Fs1  v052
 BYTE   W06
 BYTE   Fs1  v040
 BYTE   W06
 BYTE   Fs1  v092
 BYTE   W06
 BYTE   Dn1  v120
 BYTE   W06
 BYTE   As1  v080
 BYTE   W06
 BYTE   Fs1  v052
 BYTE   W06
 BYTE   Cn1  v092
 BYTE   N01  Fs1  v052
 BYTE   W06
 BYTE   Fs1  v092
 BYTE   W06
 BYTE   Fs1  v052
 BYTE   W06
 BYTE   Cn1  v100
 BYTE   N01  As1  v052
 BYTE   W06
 BYTE   Cn1  v080
 BYTE   N01  Fs1  v072
 BYTE   W06
 BYTE   Dn1  v120
 BYTE   W06
 BYTE   Fs1  v060
 BYTE   W06
 BYTE   Cn1  v092
 BYTE   N01  As1  v052
 BYTE   W06
 BYTE   Fs1  v040
 BYTE   W06
 BYTE   PEND 
//  #11 //014   ----------------------------------------
 BYTE   PATT
  POIN2 Label_011FC1BF
//  #11 //015   ----------------------------------------
 BYTE   PATT
  POIN2 Label_011FC200
//  #11 //016   ----------------------------------------
 BYTE   PATT
  POIN2 Label_011FC1BF
//  #11 //017   ----------------------------------------
 BYTE   PATT
  POIN2 Label_011FC200
//  #11 //018   ----------------------------------------
Label_011FC255:
 BYTE   N01  Cn1  v112
 BYTE   N01  Fs1  v100
 BYTE   W06
 BYTE   Fs1  v052
 BYTE   W06
 BYTE   Fs1  v040
 BYTE   W06
 BYTE   Fs1  v092
 BYTE   W06
 BYTE   Dn1  v120
 BYTE   W06
 BYTE   As1  v080
 BYTE   W06
 BYTE   Fs1  v052
 BYTE   W06
 BYTE   Cn1  v092
 BYTE   N01  Fs1  v052
 BYTE   W06
 BYTE   Fs1  v092
 BYTE   W06
 BYTE   Fs1  v052
 BYTE   W06
 BYTE   Cn1  v100
 BYTE   N01  As1  v052
 BYTE   W06
 BYTE   Cn1  v080
 BYTE   N01  Fs1  v072
 BYTE   W06
 BYTE   Dn1  v120
 BYTE   W06
 BYTE   N01
 BYTE   N01  Fs1  v060
 BYTE   W06
 BYTE   As1  v052
 BYTE   W06
 BYTE   Dn1  v127
 BYTE   N01  An2  v100
 BYTE   W06
 BYTE   PEND 
//  #11 //019   ----------------------------------------
Label_011FC298:
 BYTE   W06
 BYTE   N01  Fs1  v052
 BYTE   W06
 BYTE   Cn1  v112
 BYTE   N01  Fs1  v040
 BYTE   W06
 BYTE   Fs1  v092
 BYTE   W06
 BYTE   Dn1  v120
 BYTE   N01  Cs2  v092
 BYTE   W06
 BYTE   As1  v080
 BYTE   W06
 BYTE   Fs1  v052
 BYTE   W06
 BYTE   Cn1  v092
 BYTE   N01  Fs1  v052
 BYTE   W06
 BYTE   Cn1  v100
 BYTE   N01  Fs1  v060
 BYTE   W06
 BYTE   Fs1  v052
 BYTE   W06
 BYTE   Cn1  v092
 BYTE   N01  As1
 BYTE   W06
 BYTE   Fs1  v040
 BYTE   W06
 BYTE   Dn1  v120
 BYTE   W06
 BYTE   Fs1  v060
 BYTE   W06
 BYTE   Cn1  v100
 BYTE   N01  As1  v092
 BYTE   W06
 BYTE   Fs1  v040
 BYTE   W06
 BYTE   PEND 
//  #11 //020   ----------------------------------------
 BYTE   PATT
  POIN2 Label_011FC200
//  #11 //021   ----------------------------------------
 BYTE   PATT
  POIN2 Label_011FC1BF
//  #11 //022   ----------------------------------------
 BYTE   PATT
  POIN2 Label_011FC200
//  #11 //023   ----------------------------------------
 BYTE   PATT
  POIN2 Label_011FC1BF
//  #11 //024   ----------------------------------------
Label_011FC2ED:
 BYTE   N01  Cn1  v112
 BYTE   N01  Fs1  v100
 BYTE   W06
 BYTE   Fs1  v052
 BYTE   W06
 BYTE   Fs1  v040
 BYTE   W06
 BYTE   Fs1  v092
 BYTE   W06
 BYTE   Dn1  v120
 BYTE   W06
 BYTE   As1  v080
 BYTE   W06
 BYTE   Fs1  v052
 BYTE   W06
 BYTE   Cn1  v092
 BYTE   N01  Fs1  v052
 BYTE   W06
 BYTE   Fs1  v060
 BYTE   W06
 BYTE   Fs1  v052
 BYTE   W06
 BYTE   Cn1  v100
 BYTE   N01  Fs1  v092
 BYTE   W06
 BYTE   Cn1  v080
 BYTE   N01  Fs1  v040
 BYTE   W06
 BYTE   Dn1  v120
 BYTE   W06
 BYTE   Dn1  v092
 BYTE   N01  Fs1  v060
 BYTE   W06
 BYTE   Dn1  v120
 BYTE   N01  Fs1  v092
 BYTE   W06
 BYTE   Dn1  v127
 BYTE   N01  An2  v092
 BYTE   W06
 BYTE   PEND 
//  #11 //025   ----------------------------------------
Label_011FC334:
 BYTE   W12
 BYTE   N01  Cn1  v112
 BYTE   N01  Cs2  v092
 BYTE   W12
 BYTE   Dn1  v120
 BYTE   W06
 BYTE   Dn1  v112
 BYTE   W06
 BYTE   Dn1  v120
 BYTE   W06
 BYTE   Dn1  v127
 BYTE   W06
 BYTE   Cn1  v100
 BYTE   W12
 BYTE   Cn1  v092
 BYTE   W12
 BYTE   Dn1  v120
 BYTE   W06
 BYTE   Cn1  v100
 BYTE   W12
 BYTE   Dn1  v127
 BYTE   N01  An2  v092
 BYTE   W06
 BYTE   PEND 
//  #11 //026   ----------------------------------------
Label_011FC35B:
 BYTE   W12
 BYTE   N01  Cn1  v092
 BYTE   W06
 BYTE   Cn1  v080
 BYTE   W06
 BYTE   Dn1  v120
 BYTE   W18
 BYTE   Cn1  v092
 BYTE   W06
 BYTE   Gs1
 BYTE   W12
 BYTE   Cn1  v100
 BYTE   W06
 BYTE   Cn1  v080
 BYTE   W06
 BYTE   Dn1  v120
 BYTE   N01  Gs1  v092
 BYTE   W06
 BYTE   Dn1  v112
 BYTE   W06
 BYTE   Dn1  v120
 BYTE   W06
 BYTE   Dn1  v127
 BYTE   N01  An2  v100
 BYTE   W06
 BYTE   PEND 
//  #11 //027   ----------------------------------------
Label_011FC384:
 BYTE   W12
 BYTE   N01  Cn1  v092
 BYTE   N01  Fs1  v052
 BYTE   W06
 BYTE   Cn1  v080
 BYTE   N01  Fs1  v052
 BYTE   W06
 BYTE   Dn1  v120
 BYTE   N01  Gs1  v092
 BYTE   W12
 BYTE   Cn1
 BYTE   N01  Fs1  v052
 BYTE   W06
 BYTE   Cn1  v080
 BYTE   N01  Fs1  v052
 BYTE   W06
 BYTE   Cn1  v092
 BYTE   N01  Gs1
 BYTE   W12
 BYTE   Cn1  v080
 BYTE   N01  Fs1  v052
 BYTE   W06
 BYTE   Cn1  v072
 BYTE   N01  Fs1  v052
 BYTE   W06
 BYTE   Dn1  v120
 BYTE   N01  Gs1  v092
 BYTE   W12
 BYTE   Cn1
 BYTE   N01  Fs1  v052
 BYTE   W06
 BYTE   Cn1  v080
 BYTE   N01  Fs1  v052
 BYTE   W06
 BYTE   PEND 
//  #11 //028   ----------------------------------------
Label_011FC3C6:
 BYTE   N01  Cn1  v100
 BYTE   N01  Gs1  v092
 BYTE   W12
 BYTE   Cn1
 BYTE   N01  Fs1  v052
 BYTE   W06
 BYTE   Cn1  v080
 BYTE   N01  Fs1  v052
 BYTE   W06
 BYTE   Dn1  v120
 BYTE   N01  Gs1  v092
 BYTE   W12
 BYTE   Cn1
 BYTE   N01  Fs1  v052
 BYTE   W06
 BYTE   Cn1  v080
 BYTE   N01  Fs1  v052
 BYTE   W06
 BYTE   Cn1  v092
 BYTE   N01  Gs1
 BYTE   W12
 BYTE   Cn1  v080
 BYTE   N01  Fs1  v052
 BYTE   W06
 BYTE   Cn1  v072
 BYTE   N01  Fs1  v052
 BYTE   W06
 BYTE   Dn1  v120
 BYTE   N01  Gs1  v092
 BYTE   W12
 BYTE   Cn1
 BYTE   N01  Fs1  v052
 BYTE   W06
 BYTE   Cn1  v080
 BYTE   N01  Fs1  v052
 BYTE   W06
 BYTE   PEND 
//  #11 //029   ----------------------------------------
 BYTE   PATT
  POIN2 Label_011FC3C6
//  #11 //030   ----------------------------------------
 BYTE   PATT
  POIN2 Label_011FC3C6
//  #11 //031   ----------------------------------------
 BYTE   PATT
  POIN2 Label_011FC3C6
//  #11 //032   ----------------------------------------
 BYTE   PATT
  POIN2 Label_011FC3C6
//  #11 //033   ----------------------------------------
 BYTE   PATT
  POIN2 Label_011FC3C6
//  #11 //034   ----------------------------------------
 BYTE   N01  Cn1  v100
 BYTE   N01  Gs1  v092
 BYTE   W12
 BYTE   Cn1
 BYTE   N01  Fs1  v052
 BYTE   W06
 BYTE   Cn1  v080
 BYTE   N01  Fs1  v052
 BYTE   W06
 BYTE   Dn1  v120
 BYTE   N01  Gs1  v092
 BYTE   W12
 BYTE   Cn1
 BYTE   N01  Fs1  v052
 BYTE   W06
 BYTE   Cn1  v080
 BYTE   N01  Fs1  v052
 BYTE   W06
 BYTE   Cn1  v092
 BYTE   N01  Fs1  v040
 BYTE   W06
 BYTE   As1  v052
 BYTE   W06
 BYTE   Cn1  v080
 BYTE   N01  Fs1  v040
 BYTE   W06
 BYTE   Cn1  v072
 BYTE   N01  As1  v052
 BYTE   W06
 BYTE   Dn1  v120
 BYTE   N01  Fs1  v040
 BYTE   W06
 BYTE   Dn1  v120
 BYTE   N01  Fs1  v052
 BYTE   W06
 BYTE   Dn1  v072
 BYTE   W03
 BYTE   Dn1  v060
 BYTE   W03
 BYTE   Dn1  v127
 BYTE   N01  An2  v100
 BYTE   W06
//  #11 //035   ----------------------------------------
Label_011FC475:
 BYTE   W12
 BYTE   N01  Cn1  v092
 BYTE   N01  Fs1  v052
 BYTE   W06
 BYTE   Cn1  v080
 BYTE   N01  Fs1  v052
 BYTE   W06
 BYTE   Dn1  v120
 BYTE   N01  Gs1  v092
 BYTE   W12
 BYTE   Cn1
 BYTE   N01  Fs1  v052
 BYTE   W06
 BYTE   Cn1  v080
 BYTE   N01  Fs1  v052
 BYTE   W06
 BYTE   Cn1  v092
 BYTE   N01  Gs1
 BYTE   W12
 BYTE   Cn1  v080
 BYTE   N01  Fs1  v052
 BYTE   W06
 BYTE   Cn1  v072
 BYTE   N01  Fs1  v052
 BYTE   W06
 BYTE   Dn1  v120
 BYTE   N01  Gs1  v092
 BYTE   W12
 BYTE   Cn1  v080
 BYTE   N01  Fs1  v052
 BYTE   W06
 BYTE   Cn1  v072
 BYTE   N01  Fs1  v052
 BYTE   W06
 BYTE   PEND 
//  #11 //036   ----------------------------------------
 BYTE   PATT
  POIN2 Label_011FC3C6
//  #11 //037   ----------------------------------------
 BYTE   PATT
  POIN2 Label_011FC3C6
//  #11 //038   ----------------------------------------
 BYTE   PATT
  POIN2 Label_011FC3C6
//  #11 //039   ----------------------------------------
 BYTE   PATT
  POIN2 Label_011FC3C6
//  #11 //040   ----------------------------------------
 BYTE   PATT
  POIN2 Label_011FC3C6
//  #11 //041   ----------------------------------------
 BYTE   PATT
  POIN2 Label_011FC3C6
//  #11 //042   ----------------------------------------
Label_011FC4D6:
 BYTE   N01  Cn1  v100
 BYTE   N01  Gs1  v092
 BYTE   W12
 BYTE   Cn1
 BYTE   N01  Fs1  v052
 BYTE   W06
 BYTE   Cn1  v080
 BYTE   N01  Fs1  v052
 BYTE   W06
 BYTE   Dn1  v120
 BYTE   N01  Gs1  v092
 BYTE   W12
 BYTE   Cn1
 BYTE   N01  Fs1  v052
 BYTE   W06
 BYTE   Cn1  v080
 BYTE   N01  Fs1  v052
 BYTE   W06
 BYTE   Gs1  v092
 BYTE   W12
 BYTE   Cn1  v080
 BYTE   N01  Fs1  v052
 BYTE   W06
 BYTE   Cn1  v072
 BYTE   N01  Fs1  v052
 BYTE   W06
 BYTE   Dn1  v120
 BYTE   N01  Gs1  v092
 BYTE   W06
 BYTE   Cn2  v100
 BYTE   W03
 BYTE   Cn2  v080
 BYTE   W03
 BYTE   Fs1  v052
 BYTE   N01  An1  v100
 BYTE   W06
 BYTE   Bn2  v092
 BYTE   W01
 BYTE   Dn1  v127
 BYTE   W05
 BYTE   PEND 
//  #11 //043   ----------------------------------------
Label_011FC521:
 BYTE   N01  Bn2  v127
 BYTE   W12
 BYTE   Cn1  v112
 BYTE   W12
 BYTE   Dn1  v120
 BYTE   N01  Bn2
 BYTE   W24
 BYTE   Bn2  v112
 BYTE   W12
 BYTE   Cn1  v092
 BYTE   W06
 BYTE   Cn1  v080
 BYTE   W06
 BYTE   Dn1  v120
 BYTE   N01  Bn2  v112
 BYTE   W12
 BYTE   Cn1  v092
 BYTE   W12
 BYTE   PEND 
//  #11 //044   ----------------------------------------
Label_011FC540:
 BYTE   N01  Cn1  v112
 BYTE   N01  Bn2
 BYTE   W24
 BYTE   Dn1  v120
 BYTE   N01  Bn2  v100
 BYTE   W24
 BYTE   N01
 BYTE   W12
 BYTE   Cn1  v092
 BYTE   W06
 BYTE   Cn1  v080
 BYTE   W06
 BYTE   Dn1  v120
 BYTE   N01  Bn2  v100
 BYTE   W12
 BYTE   Cn1  v092
 BYTE   W12
 BYTE   PEND 
//  #11 //045   ----------------------------------------
Label_011FC55E:
 BYTE   N01  Cn1  v112
 BYTE   N01  An2  v092
 BYTE   W18
 BYTE   Cn1  v112
 BYTE   N01  Cs2  v092
 BYTE   W30
 BYTE   Cn2
 BYTE   W03
 BYTE   N01
 BYTE   W03
 BYTE   N01
 BYTE   W06
 BYTE   An1
 BYTE   W06
 BYTE   N01
 BYTE   W06
 BYTE   Gn1
 BYTE   W06
 BYTE   N01
 BYTE   W06
 BYTE   Fn1
 BYTE   W06
 BYTE   N01
 BYTE   W06
 BYTE   PEND 
//  #11 //046   ----------------------------------------
 BYTE   Cn1  v112
 BYTE   N01  An2  v092
 BYTE   W18
 BYTE   Cn1  v112
 BYTE   N01  Cs2  v092
 BYTE   W06
 BYTE   Gs1  v080
 BYTE   W24
 BYTE   N01
 BYTE   N01  Cn2  v092
 BYTE   W03
 BYTE   N01
 BYTE   W03
 BYTE   N01
 BYTE   W06
 BYTE   Fn1
 BYTE   W06
 BYTE   N01
 BYTE   W06
 BYTE   Gn1
 BYTE   N01  Gs1  v080
 BYTE   W03
 BYTE   Gn1  v092
 BYTE   W03
 BYTE   Fn1
 BYTE   W06
 BYTE   Dn1
 BYTE   W06
 BYTE   N01
 BYTE   W06
//  #11 //047   ----------------------------------------
Label_011FC5A8:
 BYTE   N01  Cn1  v112
 BYTE   N01  Gs1  v080
 BYTE   W24
 BYTE   Cn1  v100
 BYTE   N01  Gs1  v080
 BYTE   W24
 BYTE   Cn1  v100
 BYTE   N01  Gs1  v080
 BYTE   W24
 BYTE   Cn1  v100
 BYTE   N01  Gs1  v080
 BYTE   W24
 BYTE   PEND 
//  #11 //048   ----------------------------------------
 BYTE   Cn1  v112
 BYTE   N01  Gs1  v080
 BYTE   W24
 BYTE   Cn1  v100
 BYTE   N01  Gs1  v080
 BYTE   W24
 BYTE   Dn1  v127
 BYTE   W06
 BYTE   N01
 BYTE   W06
 BYTE   N01
 BYTE   W06
 BYTE   N01
 BYTE   W06
 BYTE   N01
 BYTE   W06
 BYTE   N01
 BYTE   W12
 BYTE   N01
 BYTE   W06
//  #11 //049   ----------------------------------------
 BYTE   Cn1  v112
 BYTE   N01  An2  v092
 BYTE   W06
 BYTE   Fs1  v052
 BYTE   W06
 BYTE   Fs1  v040
 BYTE   W06
 BYTE   Fs1  v092
 BYTE   W06
 BYTE   Dn1  v120
 BYTE   W06
 BYTE   As1  v080
 BYTE   W06
 BYTE   Fs1  v052
 BYTE   W06
 BYTE   Cn1  v092
 BYTE   N01  Fs1  v052
 BYTE   W06
 BYTE   Cn1  v100
 BYTE   N01  Fs1  v092
 BYTE   W06
 BYTE   Fs1  v052
 BYTE   W06
 BYTE   Cn1  v092
 BYTE   N01  As1  v052
 BYTE   W06
 BYTE   Fs1  v072
 BYTE   W06
 BYTE   Dn1  v120
 BYTE   W06
 BYTE   Fs1  v060
 BYTE   W06
 BYTE   Cn1  v100
 BYTE   N01  As1  v052
 BYTE   W06
 BYTE   Fs1  v040
 BYTE   W06
//  #11 //050   ----------------------------------------
 BYTE   PATT
  POIN2 Label_011FC200
//  #11 //051   ----------------------------------------
 BYTE   PATT
  POIN2 Label_011FC1BF
//  #11 //052   ----------------------------------------
 BYTE   PATT
  POIN2 Label_011FC200
//  #11 //053   ----------------------------------------
 BYTE   PATT
  POIN2 Label_011FC1BF
//  #11 //054   ----------------------------------------
 BYTE   PATT
  POIN2 Label_011FC200
//  #11 //055   ----------------------------------------
 BYTE   PATT
  POIN2 Label_011FC255
//  #11 //056   ----------------------------------------
 BYTE   PATT
  POIN2 Label_011FC298
//  #11 //057   ----------------------------------------
 BYTE   PATT
  POIN2 Label_011FC200
//  #11 //058   ----------------------------------------
 BYTE   PATT
  POIN2 Label_011FC1BF
//  #11 //059   ----------------------------------------
 BYTE   PATT
  POIN2 Label_011FC200
//  #11 //060   ----------------------------------------
 BYTE   PATT
  POIN2 Label_011FC1BF
//  #11 //061   ----------------------------------------
 BYTE   PATT
  POIN2 Label_011FC2ED
//  #11 //062   ----------------------------------------
 BYTE   PATT
  POIN2 Label_011FC334
//  #11 //063   ----------------------------------------
 BYTE   PATT
  POIN2 Label_011FC35B
//  #11 //064   ----------------------------------------
 BYTE   PATT
  POIN2 Label_011FC384
//  #11 //065   ----------------------------------------
 BYTE   PATT
  POIN2 Label_011FC3C6
//  #11 //066   ----------------------------------------
 BYTE   PATT
  POIN2 Label_011FC3C6
//  #11 //067   ----------------------------------------
 BYTE   PATT
  POIN2 Label_011FC3C6
//  #11 //068   ----------------------------------------
 BYTE   PATT
  POIN2 Label_011FC3C6
//  #11 //069   ----------------------------------------
 BYTE   PATT
  POIN2 Label_011FC3C6
//  #11 //070   ----------------------------------------
 BYTE   PATT
  POIN2 Label_011FC3C6
//  #11 //071   ----------------------------------------
 BYTE   N01  Cn1  v100
 BYTE   N01  Gs1  v092
 BYTE   W12
 BYTE   Cn1
 BYTE   N01  Fs1  v052
 BYTE   W06
 BYTE   Cn1  v080
 BYTE   N01  Fs1  v052
 BYTE   W06
 BYTE   Dn1  v120
 BYTE   N01  Gs1  v092
 BYTE   W12
 BYTE   Cn1
 BYTE   N01  Fs1  v052
 BYTE   W06
 BYTE   Cn1  v080
 BYTE   N01  Fs1  v052
 BYTE   W06
 BYTE   Cn1  v092
 BYTE   N01  Fs1  v040
 BYTE   W06
 BYTE   As1  v052
 BYTE   W06
 BYTE   Cn1  v080
 BYTE   N01  Fs1  v040
 BYTE   W06
 BYTE   Cn1  v072
 BYTE   N01  As1  v052
 BYTE   W06
 BYTE   Dn1  v120
 BYTE   N01  Fs1  v040
 BYTE   W06
 BYTE   Fs1  v052
 BYTE   W01
 BYTE   Dn1  v120
 BYTE   W05
 BYTE   Cn1  v092
 BYTE   W03
 BYTE   Cn1  v080
 BYTE   W03
 BYTE   An2  v100
 BYTE   W01
 BYTE   Dn1  v127
 BYTE   W05
//  #11 //072   ----------------------------------------
 BYTE   PATT
  POIN2 Label_011FC475
//  #11 //073   ----------------------------------------
 BYTE   PATT
  POIN2 Label_011FC3C6
//  #11 //074   ----------------------------------------
 BYTE   PATT
  POIN2 Label_011FC3C6
//  #11 //075   ----------------------------------------
 BYTE   PATT
  POIN2 Label_011FC3C6
//  #11 //076   ----------------------------------------
 BYTE   PATT
  POIN2 Label_011FC3C6
//  #11 //077   ----------------------------------------
 BYTE   PATT
  POIN2 Label_011FC3C6
//  #11 //078   ----------------------------------------
 BYTE   PATT
  POIN2 Label_011FC3C6
//  #11 //079   ----------------------------------------
 BYTE   PATT
  POIN2 Label_011FC4D6
//  #11 //080   ----------------------------------------
 BYTE   PATT
  POIN2 Label_011FC521
//  #11 //081   ----------------------------------------
 BYTE   PATT
  POIN2 Label_011FC540
//  #11 //082   ----------------------------------------
 BYTE   PATT
  POIN2 Label_011FC55E
//  #11 //083   ----------------------------------------
 BYTE   N01  Cn1  v112
 BYTE   N01  An2  v092
 BYTE   W18
 BYTE   Cn1  v112
 BYTE   N01  Cs2  v092
 BYTE   W06
 BYTE   Gs1  v080
 BYTE   W24
 BYTE   N01
 BYTE   N01  Cn2  v092
 BYTE   W03
 BYTE   N01
 BYTE   W03
 BYTE   N01
 BYTE   W06
 BYTE   N01
 BYTE   W06
 BYTE   N01
 BYTE   W06
 BYTE   Gs1  v080
 BYTE   N01  Cn2  v092
 BYTE   W03
 BYTE   N01
 BYTE   W03
 BYTE   N01
 BYTE   W06
 BYTE   An1
 BYTE   W06
 BYTE   Fn1
 BYTE   W06
//  #11 //084   ----------------------------------------
 BYTE   PATT
  POIN2 Label_011FC5A8
//  #11 //085   ----------------------------------------
 BYTE   N01  Cn1  v112
 BYTE   N01  Gs1  v080
 BYTE   W24
 BYTE   Cn1  v100
 BYTE   N01  Gs1  v080
 BYTE   W23
 BYTE   Dn1
 BYTE   W01
 BYTE   Dn1  v120
 BYTE   W11
 BYTE   Dn1  v080
 BYTE   W01
 BYTE   Dn1  v120
 BYTE   W12
 BYTE   N01
 BYTE   W06
 BYTE   Dn1  v100
 BYTE   W06
 BYTE   Dn1  v127
 BYTE   W06
 BYTE   N01
 BYTE   W06
//  #11 //086   ----------------------------------------
 BYTE   An2
 BYTE   W96
//  #11 //087   ----------------------------------------
 BYTE   W96
//  #11 //088   ----------------------------------------
 BYTE   W96
//  #11 //089   ----------------------------------------
 BYTE   W96
//  #11 //090   ----------------------------------------
 BYTE   W96
//  #11 //091   ----------------------------------------
 BYTE   W96
//  #11 //092   ----------------------------------------
 BYTE   W96
//  #11 //093   ----------------------------------------
 BYTE   W96
//  #11 //094   ----------------------------------------
 BYTE   W96
//  #11 //095   ----------------------------------------
 BYTE   W96
//  #11 //096   ----------------------------------------
 BYTE   W96
//  #11 //097   ----------------------------------------
 BYTE   W96
//  #11 //098   ----------------------------------------
 BYTE   W96
//  #11 //099   ----------------------------------------
 BYTE   W96
//  #11 //100   ----------------------------------------
 BYTE   W96
//  #11 //101   ----------------------------------------
 BYTE   W96
//  #11 //102   ----------------------------------------
 BYTE   W96
//  #11 //103   ----------------------------------------
 BYTE   W96
//  #11 //104   ----------------------------------------
 BYTE   W96
//  #11 //105   ----------------------------------------
 BYTE   W96
//  #11 //106   ----------------------------------------
 BYTE   W96
//  #11 //107   ----------------------------------------
 BYTE   W96
//  #11 //108   ----------------------------------------
 BYTE   W96
//  #11 //109   ----------------------------------------
 BYTE   W92
 BYTE   W03
 BYTE   GoTo
  POIN2 Label_011FC0AF
 BYTE   FINE

//******************************************************//
	ALIGN 4

FirstStepTowardsWar:
	BYTE	11	// NumTrks
	BYTE	0	// NumBlks
	BYTE	FirstStepTowardsWar_pri	// Priority
	BYTE	FirstStepTowardsWar_rev	// Reverb.
    
	POIN2	FirstStepTowardsWar_grp
    
	POIN2	FirstStepTowardsWar_001
	POIN2	FirstStepTowardsWar_002
	POIN2	FirstStepTowardsWar_003
	POIN2	FirstStepTowardsWar_004
	POIN2	FirstStepTowardsWar_005
	POIN2	FirstStepTowardsWar_006
	POIN2	FirstStepTowardsWar_007
	POIN2	FirstStepTowardsWar_008
	POIN2	FirstStepTowardsWar_009
	POIN2	FirstStepTowardsWar_010
	POIN2	FirstStepTowardsWar_011

	
