	.include "MPlayDef.s"

	.equ	FivePmACNH_grp, voicegroup000
	.equ	FivePmACNH_pri, 0
	.equ	FivePmACNH_rev, 0
	.equ	FivePmACNH_mvl, 127
	.equ	FivePmACNH_key, 0
	.equ	FivePmACNH_tbs, 1
	.equ	FivePmACNH_exg, 0
	.equ	FivePmACNH_cmp, 1

	.section .rodata
	.global	FivePmACNH
	.align	2


@**************** Track 1 (Midi-Chn.0) ****************@

FivePmACNH_001:
@  #01 @000   ----------------------------------------
 .byte   KEYSH , FivePmACNH_key+0
Label_547722:
 .byte   TEMPO , 72*FivePmACNH_tbs/2
 .byte   VOICE , 0
 .byte   VOL , 52*FivePmACNH_mvl/mxv
 .byte   PAN , c_v+0
 .byte   N07 ,Dn2 ,v064
 .byte   N07 ,Fs2
 .byte   N07 ,An2
 .byte   W24
 .byte   Dn2
 .byte   N07 ,Fs2
 .byte   N07 ,An2
 .byte   W24
 .byte   Dn2
 .byte   N07 ,Fs2
 .byte   N07 ,An2
 .byte   W24
 .byte   Dn2
 .byte   N07 ,Fs2
 .byte   N07 ,An2
 .byte   W24
@  #01 @001   ----------------------------------------
Label_547744:
 .byte   N07 ,Dn2 ,v064
 .byte   N07 ,Fs2
 .byte   N07 ,An2
 .byte   W24
 .byte   Dn2
 .byte   N07 ,Fs2
 .byte   N07 ,An2
 .byte   W24
 .byte   Dn2
 .byte   N07 ,Fs2
 .byte   N07 ,An2
 .byte   W24
 .byte   Dn2
 .byte   N07 ,Fs2
 .byte   N07 ,An2
 .byte   W24
 .byte   PEND 
@  #01 @002   ----------------------------------------
Label_54775F:
 .byte   N07 ,En2 ,v064
 .byte   N07 ,Gs2
 .byte   N07 ,Bn2
 .byte   W24
 .byte   En2
 .byte   N07 ,Gs2
 .byte   N07 ,Bn2
 .byte   W24
 .byte   En2
 .byte   N07 ,Gs2
 .byte   N07 ,Bn2
 .byte   W24
 .byte   En2
 .byte   N07 ,Gs2
 .byte   N07 ,Bn2
 .byte   W24
 .byte   PEND 
@  #01 @003   ----------------------------------------
 .byte   PATT
  .word Label_54775F
@  #01 @004   ----------------------------------------
 .byte   PATT
  .word Label_547744
@  #01 @005   ----------------------------------------
 .byte   PATT
  .word Label_547744
@  #01 @006   ----------------------------------------
 .byte   PATT
  .word Label_54775F
@  #01 @007   ----------------------------------------
 .byte   PATT
  .word Label_54775F
@  #01 @008   ----------------------------------------
 .byte   PATT
  .word Label_547744
@  #01 @009   ----------------------------------------
 .byte   PATT
  .word Label_547744
@  #01 @010   ----------------------------------------
 .byte   PATT
  .word Label_54775F
@  #01 @011   ----------------------------------------
Label_5477A2:
 .byte   N07 ,En2 ,v064
 .byte   N07 ,Gs2
 .byte   N07 ,Bn2
 .byte   W24
 .byte   En2
 .byte   N07 ,Gs2
 .byte   N07 ,Bn2
 .byte   W24
 .byte   N22 ,Cs2
 .byte   N22 ,En2
 .byte   N22 ,Gs2
 .byte   W24
 .byte   Dn2
 .byte   N22 ,Fs2
 .byte   N22 ,An2
 .byte   W24
 .byte   PEND 
@  #01 @012   ----------------------------------------
Label_5477BE:
 .byte   N11 ,En2 ,v064
 .byte   N11 ,Gs2
 .byte   N11 ,Bn2
 .byte   W24
 .byte   En2
 .byte   N11 ,Gs2
 .byte   N11 ,Bn2
 .byte   W24
 .byte   En2
 .byte   N11 ,Gs2
 .byte   N11 ,Bn2
 .byte   W24
 .byte   En2
 .byte   N11 ,Gs2
 .byte   N11 ,Bn2
 .byte   W24
 .byte   PEND 
@  #01 @013   ----------------------------------------
Label_5477D9:
 .byte   N11 ,En2 ,v064
 .byte   N11 ,Gs2
 .byte   N11 ,Bn2
 .byte   W24
 .byte   En2
 .byte   N11 ,Gs2
 .byte   N11 ,Bn2
 .byte   W24
 .byte   En2
 .byte   N11 ,Gs2
 .byte   N11 ,As2
 .byte   W24
 .byte   En2
 .byte   N11 ,Gs2
 .byte   N11 ,As2
 .byte   W24
 .byte   PEND 
@  #01 @014   ----------------------------------------
Label_5477F4:
 .byte   N07 ,Ds2 ,v064
 .byte   N07 ,Fs2
 .byte   N07 ,As2
 .byte   W24
 .byte   Ds2
 .byte   N07 ,Fs2
 .byte   N07 ,As2
 .byte   W24
 .byte   Ds2
 .byte   N07 ,Fs2
 .byte   N07 ,As2
 .byte   W24
 .byte   Ds2
 .byte   N07 ,Fs2
 .byte   N07 ,As2
 .byte   W24
 .byte   PEND 
@  #01 @015   ----------------------------------------
Label_54780F:
 .byte   N07 ,Fs2 ,v064
 .byte   N07 ,As2
 .byte   N07 ,Cs3
 .byte   W24
 .byte   Fs2
 .byte   N07 ,As2
 .byte   N07 ,Cs3
 .byte   W24
 .byte   Fs2
 .byte   N07 ,Bn2
 .byte   W24
 .byte   Fs2
 .byte   N07 ,As2
 .byte   W24
 .byte   PEND 
@  #01 @016   ----------------------------------------
 .byte   PATT
  .word Label_54775F
@  #01 @017   ----------------------------------------
Label_54782B:
 .byte   N07 ,En2 ,v064
 .byte   N07 ,Gs2
 .byte   N07 ,Bn2
 .byte   W24
 .byte   En2
 .byte   N07 ,Gs2
 .byte   N07 ,Bn2
 .byte   W24
 .byte   En2
 .byte   N07 ,Gs2
 .byte   N07 ,As2
 .byte   W24
 .byte   En2
 .byte   N07 ,Gs2
 .byte   N07 ,As2
 .byte   W24
 .byte   PEND 
@  #01 @018   ----------------------------------------
Label_547846:
 .byte   N07 ,En2 ,v064
 .byte   N07 ,An2
 .byte   N07 ,Cs3
 .byte   W24
 .byte   En2
 .byte   N07 ,An2
 .byte   N07 ,Cs3
 .byte   W24
 .byte   En2
 .byte   N07 ,An2
 .byte   N07 ,Cs3
 .byte   W24
 .byte   En2
 .byte   N07 ,An2
 .byte   N07 ,Cs3
 .byte   W24
 .byte   PEND 
@  #01 @019   ----------------------------------------
Label_547861:
 .byte   N07 ,En2 ,v064
 .byte   N07 ,An2
 .byte   N07 ,Cs3
 .byte   W24
 .byte   En2
 .byte   N07 ,An2
 .byte   N07 ,Cs3
 .byte   W24
 .byte   Ds2
 .byte   N07 ,An2
 .byte   N07 ,Bn2
 .byte   W24
 .byte   N22 ,Fn2
 .byte   N22 ,Gs2
 .byte   N22 ,Cs3
 .byte   W24
 .byte   PEND 
@  #01 @020   ----------------------------------------
Label_54787D:
 .byte   N11 ,Fs2 ,v064
 .byte   N11 ,An2
 .byte   N11 ,Dn3
 .byte   W24
 .byte   Dn2
 .byte   N11 ,Fs2
 .byte   N11 ,An2
 .byte   W24
 .byte   Dn2
 .byte   N11 ,Fs2
 .byte   N11 ,An2
 .byte   W24
 .byte   Dn2
 .byte   N11 ,Fs2
 .byte   N11 ,An2
 .byte   W24
 .byte   PEND 
@  #01 @021   ----------------------------------------
Label_547898:
 .byte   N11 ,Dn2 ,v064
 .byte   N11 ,Fs2
 .byte   N11 ,An2
 .byte   W24
 .byte   Dn2
 .byte   N11 ,Fs2
 .byte   N11 ,An2
 .byte   W24
 .byte   Dn2
 .byte   N11 ,Fs2
 .byte   N11 ,An2
 .byte   W24
 .byte   Dn2
 .byte   N11 ,Fs2
 .byte   N11 ,An2
 .byte   W24
 .byte   PEND 
@  #01 @022   ----------------------------------------
 .byte   PATT
  .word Label_5477BE
@  #01 @023   ----------------------------------------
Label_5478B8:
 .byte   N07 ,En2 ,v064
 .byte   N07 ,Gs2
 .byte   N07 ,Bn2
 .byte   W24
 .byte   En2
 .byte   N07 ,Gs2
 .byte   N07 ,Bn2
 .byte   W24
 .byte   N22 ,En2
 .byte   N22 ,Gs2
 .byte   N22 ,Bn2
 .byte   W24
 .byte   Ds2
 .byte   N22 ,Gn2
 .byte   N22 ,As2
 .byte   W24
 .byte   PEND 
@  #01 @024   ----------------------------------------
Label_5478D4:
 .byte   N07 ,Fs2 ,v064
 .byte   N07 ,An2
 .byte   N07 ,Dn3
 .byte   W24
 .byte   Fs2
 .byte   N07 ,An2
 .byte   N07 ,Dn3
 .byte   W24
 .byte   N11 ,Fs2
 .byte   N11 ,An2
 .byte   N11 ,Dn3
 .byte   W12
 .byte   N22 ,En2
 .byte   N22 ,Gs2
 .byte   N22 ,Bn2
 .byte   W24
 .byte   Fs2
 .byte   N22 ,An2
 .byte   N22 ,Cs3
 .byte   W12
 .byte   PEND 
@  #01 @025   ----------------------------------------
Label_5478F7:
 .byte   W12
 .byte   N56 ,Fn2 ,v064
 .byte   N56 ,Bn2
 .byte   N56 ,En3
 .byte   W84
 .byte   PEND 
@  #01 @026   ----------------------------------------
 .byte   PATT
  .word Label_547898
@  #01 @027   ----------------------------------------
 .byte   PATT
  .word Label_547898
@  #01 @028   ----------------------------------------
 .byte   PATT
  .word Label_5477BE
@  #01 @029   ----------------------------------------
 .byte   PATT
  .word Label_54775F
@  #01 @030   ----------------------------------------
 .byte   PATT
  .word Label_547744
@  #01 @031   ----------------------------------------
 .byte   PATT
  .word Label_547744
@  #01 @032   ----------------------------------------
 .byte   PATT
  .word Label_54775F
@  #01 @033   ----------------------------------------
 .byte   PATT
  .word Label_54775F
@  #01 @034   ----------------------------------------
 .byte   PATT
  .word Label_547744
@  #01 @035   ----------------------------------------
 .byte   PATT
  .word Label_547744
@  #01 @036   ----------------------------------------
 .byte   PATT
  .word Label_54775F
@  #01 @037   ----------------------------------------
 .byte   PATT
  .word Label_54775F
@  #01 @038   ----------------------------------------
 .byte   PATT
  .word Label_547744
@  #01 @039   ----------------------------------------
 .byte   PATT
  .word Label_547744
@  #01 @040   ----------------------------------------
 .byte   PATT
  .word Label_54775F
@  #01 @041   ----------------------------------------
 .byte   PATT
  .word Label_5477A2
@  #01 @042   ----------------------------------------
 .byte   PATT
  .word Label_5477BE
@  #01 @043   ----------------------------------------
 .byte   PATT
  .word Label_5477D9
@  #01 @044   ----------------------------------------
 .byte   PATT
  .word Label_5477F4
@  #01 @045   ----------------------------------------
 .byte   PATT
  .word Label_54780F
@  #01 @046   ----------------------------------------
 .byte   PATT
  .word Label_54775F
@  #01 @047   ----------------------------------------
 .byte   PATT
  .word Label_54782B
@  #01 @048   ----------------------------------------
 .byte   PATT
  .word Label_547846
@  #01 @049   ----------------------------------------
 .byte   PATT
  .word Label_547861
@  #01 @050   ----------------------------------------
 .byte   PATT
  .word Label_54787D
@  #01 @051   ----------------------------------------
 .byte   PATT
  .word Label_547898
@  #01 @052   ----------------------------------------
 .byte   PATT
  .word Label_5477BE
@  #01 @053   ----------------------------------------
 .byte   PATT
  .word Label_5478B8
@  #01 @054   ----------------------------------------
 .byte   PATT
  .word Label_5478D4
@  #01 @055   ----------------------------------------
 .byte   PATT
  .word Label_5478F7
@  #01 @056   ----------------------------------------
 .byte   PATT
  .word Label_547898
@  #01 @057   ----------------------------------------
 .byte   PATT
  .word Label_547898
@  #01 @058   ----------------------------------------
 .byte   PATT
  .word Label_5477BE
@  #01 @059   ----------------------------------------
 .byte   PATT
  .word Label_54775F
@  #01 @060   ----------------------------------------
 .byte   W24
 .byte   GOTO
  .word Label_547722
 .byte   FINE

@**************** Track 2 (Midi-Chn.1) ****************@

FivePmACNH_002:
@  #02 @000   ----------------------------------------
 .byte   KEYSH , FivePmACNH_key+0
Label_5462B2:
 .byte   VOICE , 81
 .byte   VOL , 67*FivePmACNH_mvl/mxv
 .byte   PAN , c_v+0
 .byte   W96
@  #02 @001   ----------------------------------------
 .byte   W96
@  #02 @002   ----------------------------------------
 .byte   W96
@  #02 @003   ----------------------------------------
 .byte   W96
@  #02 @004   ----------------------------------------
Label_5462BC:
 .byte   W24
 .byte   N22 ,Cs4 ,v068
 .byte   W24
 .byte   N05 ,An3
 .byte   W24
 .byte   N18 ,Fs4
 .byte   W20
 .byte   N01 ,Gn4
 .byte   W02
 .byte   Fs4
 .byte   W02
 .byte   PEND 
@  #02 @005   ----------------------------------------
Label_5462CD:
 .byte   N44 ,En4 ,v068
 .byte   W84
 .byte   N06 ,Dn4
 .byte   W07
 .byte   N02 ,En4
 .byte   W05
 .byte   PEND 
@  #02 @006   ----------------------------------------
Label_5462D8:
 .byte   N05 ,Cs4 ,v068
 .byte   W12
 .byte   N06 ,An3
 .byte   W07
 .byte   N72 ,En3
 .byte   W76
 .byte   W01
 .byte   PEND 
@  #02 @007   ----------------------------------------
 .byte   W96
@  #02 @008   ----------------------------------------
 .byte   PATT
  .word Label_5462BC
@  #02 @009   ----------------------------------------
Label_5462EA:
 .byte   N05 ,En4 ,v068
 .byte   W12
 .byte   Cs4
 .byte   W12
 .byte   An3
 .byte   W12
 .byte   N22 ,Bn3
 .byte   W48
 .byte   N06 ,An3
 .byte   W07
 .byte   N04 ,Bn3
 .byte   W05
 .byte   PEND 
@  #02 @010   ----------------------------------------
Label_5462FC:
 .byte   N05 ,Cs4 ,v068
 .byte   W12
 .byte   BEND , c_v+0
 .byte   N11 ,Cn4
 .byte   W01
 .byte   BEND , c_v+0
 .byte   W01
 .byte   BEND , c_v+1
 .byte   W01
 .byte   BEND , c_v+1
 .byte   W01
 .byte   BEND , c_v+2
 .byte   W01
 .byte   BEND , c_v+2
 .byte   W01
 .byte   BEND , c_v+3
 .byte   W01
 .byte   BEND , c_v+3
 .byte   W01
 .byte   BEND , c_v+4
 .byte   W01
 .byte   BEND , c_v+5
 .byte   W03
 .byte   BEND , c_v+0
 .byte   W72
 .byte   PEND 
@  #02 @011   ----------------------------------------
 .byte   W96
@  #02 @012   ----------------------------------------
 .byte   W96
@  #02 @013   ----------------------------------------
 .byte   W96
@  #02 @014   ----------------------------------------
 .byte   W96
@  #02 @015   ----------------------------------------
 .byte   W96
@  #02 @016   ----------------------------------------
 .byte   W96
@  #02 @017   ----------------------------------------
 .byte   W96
@  #02 @018   ----------------------------------------
 .byte   W96
@  #02 @019   ----------------------------------------
 .byte   W96
@  #02 @020   ----------------------------------------
Label_546324:
 .byte   W24
 .byte   N22 ,Cs4 ,v068
 .byte   W24
 .byte   N05 ,An3
 .byte   W36
 .byte   N11 ,En3
 .byte   W12
 .byte   PEND 
@  #02 @021   ----------------------------------------
Label_546330:
 .byte   N05 ,Cs4 ,v068
 .byte   W12
 .byte   BEND , c_v+0
 .byte   N11 ,Cn4
 .byte   W01
 .byte   BEND , c_v+0
 .byte   W01
 .byte   BEND , c_v+1
 .byte   W01
 .byte   BEND , c_v+1
 .byte   W01
 .byte   BEND , c_v+2
 .byte   W01
 .byte   BEND , c_v+3
 .byte   W01
 .byte   BEND , c_v+3
 .byte   W01
 .byte   BEND , c_v+4
 .byte   W01
 .byte   BEND , c_v+5
 .byte   W04
 .byte   BEND , c_v+0
 .byte   N11 ,An3
 .byte   W60
 .byte   N06
 .byte   W07
 .byte   N04 ,Bn3
 .byte   W05
 .byte   PEND 
@  #02 @022   ----------------------------------------
Label_546354:
 .byte   N05 ,Cs4 ,v068
 .byte   W12
 .byte   N11
 .byte   W84
 .byte   PEND 
@  #02 @023   ----------------------------------------
 .byte   W96
@  #02 @024   ----------------------------------------
Label_54635C:
 .byte   W12
 .byte   N11 ,Cs4 ,v048
 .byte   W12
 .byte   An3
 .byte   W12
 .byte   Fs4
 .byte   W12
 .byte   En4
 .byte   W12
 .byte   Cs4
 .byte   W12
 .byte   An3
 .byte   W12
 .byte   N22 ,Fs3
 .byte   W12
 .byte   PEND 
@  #02 @025   ----------------------------------------
 .byte   W12
 .byte   N56 ,Bn3
 .byte   W84
@  #02 @026   ----------------------------------------
 .byte   W96
@  #02 @027   ----------------------------------------
 .byte   W96
@  #02 @028   ----------------------------------------
 .byte   W96
@  #02 @029   ----------------------------------------
 .byte   W96
@  #02 @030   ----------------------------------------
 .byte   W96
@  #02 @031   ----------------------------------------
 .byte   W96
@  #02 @032   ----------------------------------------
 .byte   W96
@  #02 @033   ----------------------------------------
 .byte   W96
@  #02 @034   ----------------------------------------
 .byte   PATT
  .word Label_5462BC
@  #02 @035   ----------------------------------------
 .byte   PATT
  .word Label_5462CD
@  #02 @036   ----------------------------------------
 .byte   PATT
  .word Label_5462D8
@  #02 @037   ----------------------------------------
 .byte   W96
@  #02 @038   ----------------------------------------
 .byte   PATT
  .word Label_5462BC
@  #02 @039   ----------------------------------------
 .byte   PATT
  .word Label_5462EA
@  #02 @040   ----------------------------------------
 .byte   PATT
  .word Label_5462FC
@  #02 @041   ----------------------------------------
 .byte   W96
@  #02 @042   ----------------------------------------
 .byte   W96
@  #02 @043   ----------------------------------------
 .byte   W96
@  #02 @044   ----------------------------------------
 .byte   W96
@  #02 @045   ----------------------------------------
 .byte   W96
@  #02 @046   ----------------------------------------
 .byte   W96
@  #02 @047   ----------------------------------------
 .byte   W96
@  #02 @048   ----------------------------------------
 .byte   W96
@  #02 @049   ----------------------------------------
 .byte   W96
@  #02 @050   ----------------------------------------
 .byte   PATT
  .word Label_546324
@  #02 @051   ----------------------------------------
 .byte   PATT
  .word Label_546330
@  #02 @052   ----------------------------------------
 .byte   PATT
  .word Label_546354
@  #02 @053   ----------------------------------------
 .byte   W96
@  #02 @054   ----------------------------------------
 .byte   PATT
  .word Label_54635C
@  #02 @055   ----------------------------------------
 .byte   W12
 .byte   N56 ,Bn3 ,v048
 .byte   W84
@  #02 @056   ----------------------------------------
 .byte   W96
@  #02 @057   ----------------------------------------
 .byte   W96
@  #02 @058   ----------------------------------------
 .byte   W96
@  #02 @059   ----------------------------------------
 .byte   W96
@  #02 @060   ----------------------------------------
 .byte   W24
 .byte   GOTO
  .word Label_5462B2
 .byte   FINE

@**************** Track 3 (Midi-Chn.2) ****************@

FivePmACNH_003:
@  #03 @000   ----------------------------------------
 .byte   KEYSH , FivePmACNH_key+0
Label_5473BE:
 .byte   VOICE , 4
 .byte   VOL , 52*FivePmACNH_mvl/mxv
 .byte   PAN , c_v+0
 .byte   W96
@  #03 @001   ----------------------------------------
 .byte   W96
@  #03 @002   ----------------------------------------
 .byte   W96
@  #03 @003   ----------------------------------------
 .byte   W96
@  #03 @004   ----------------------------------------
 .byte   W96
@  #03 @005   ----------------------------------------
 .byte   W96
@  #03 @006   ----------------------------------------
 .byte   W96
@  #03 @007   ----------------------------------------
 .byte   W96
@  #03 @008   ----------------------------------------
 .byte   W96
@  #03 @009   ----------------------------------------
 .byte   W96
@  #03 @010   ----------------------------------------
 .byte   W96
@  #03 @011   ----------------------------------------
 .byte   W96
@  #03 @012   ----------------------------------------
Label_5473D0:
 .byte   W24
 .byte   N22 ,Ds4 ,v084
 .byte   W24
 .byte   N05 ,Bn3
 .byte   W24
 .byte   N18 ,Gs4
 .byte   W20
 .byte   N01 ,An4
 .byte   W02
 .byte   Gs4
 .byte   W02
 .byte   PEND 
@  #03 @013   ----------------------------------------
Label_5473E1:
 .byte   N44 ,Fs4 ,v084
 .byte   W84
 .byte   N06 ,En4
 .byte   W07
 .byte   N02 ,Fs4
 .byte   W05
 .byte   PEND 
@  #03 @014   ----------------------------------------
Label_5473EC:
 .byte   N05 ,Ds4 ,v084
 .byte   W12
 .byte   N06 ,Bn3
 .byte   W07
 .byte   N72 ,Fs3
 .byte   W76
 .byte   W01
 .byte   PEND 
@  #03 @015   ----------------------------------------
 .byte   W96
@  #03 @016   ----------------------------------------
 .byte   PATT
  .word Label_5473D0
@  #03 @017   ----------------------------------------
Label_5473FE:
 .byte   N05 ,Fs4 ,v084
 .byte   W12
 .byte   Ds4
 .byte   W12
 .byte   Bn3
 .byte   W12
 .byte   N22 ,Cs4
 .byte   W48
 .byte   N06 ,Bn3
 .byte   W07
 .byte   N04 ,Cs4
 .byte   W05
 .byte   PEND 
@  #03 @018   ----------------------------------------
Label_547410:
 .byte   N05 ,En4 ,v084
 .byte   W12
 .byte   Ds4
 .byte   W12
 .byte   Bn3
 .byte   W12
 .byte   N30 ,Cs4
 .byte   W32
 .byte   N01 ,Dn4
 .byte   W02
 .byte   Cs4
 .byte   W02
 .byte   N44 ,Bn3
 .byte   W24
 .byte   PEND 
@  #03 @019   ----------------------------------------
 .byte   W96
@  #03 @020   ----------------------------------------
 .byte   W96
@  #03 @021   ----------------------------------------
 .byte   W96
@  #03 @022   ----------------------------------------
 .byte   W96
@  #03 @023   ----------------------------------------
 .byte   W96
@  #03 @024   ----------------------------------------
Label_547429:
 .byte   W12
 .byte   N11 ,Cs4 ,v060
 .byte   W12
 .byte   An3
 .byte   W12
 .byte   Fs4
 .byte   W12
 .byte   En4
 .byte   W12
 .byte   Cs4
 .byte   W12
 .byte   An3
 .byte   W12
 .byte   N22 ,Fs3
 .byte   W12
 .byte   PEND 
@  #03 @025   ----------------------------------------
 .byte   W12
 .byte   N56 ,Bn3
 .byte   W84
@  #03 @026   ----------------------------------------
 .byte   W96
@  #03 @027   ----------------------------------------
 .byte   W96
@  #03 @028   ----------------------------------------
 .byte   W96
@  #03 @029   ----------------------------------------
 .byte   W96
@  #03 @030   ----------------------------------------
 .byte   W96
@  #03 @031   ----------------------------------------
 .byte   W96
@  #03 @032   ----------------------------------------
 .byte   W96
@  #03 @033   ----------------------------------------
 .byte   W96
@  #03 @034   ----------------------------------------
 .byte   W96
@  #03 @035   ----------------------------------------
 .byte   W96
@  #03 @036   ----------------------------------------
 .byte   W96
@  #03 @037   ----------------------------------------
 .byte   W96
@  #03 @038   ----------------------------------------
 .byte   W96
@  #03 @039   ----------------------------------------
 .byte   W96
@  #03 @040   ----------------------------------------
 .byte   W96
@  #03 @041   ----------------------------------------
 .byte   W96
@  #03 @042   ----------------------------------------
 .byte   PATT
  .word Label_5473D0
@  #03 @043   ----------------------------------------
 .byte   PATT
  .word Label_5473E1
@  #03 @044   ----------------------------------------
 .byte   PATT
  .word Label_5473EC
@  #03 @045   ----------------------------------------
 .byte   W96
@  #03 @046   ----------------------------------------
 .byte   PATT
  .word Label_5473D0
@  #03 @047   ----------------------------------------
 .byte   PATT
  .word Label_5473FE
@  #03 @048   ----------------------------------------
 .byte   PATT
  .word Label_547410
@  #03 @049   ----------------------------------------
 .byte   W96
@  #03 @050   ----------------------------------------
 .byte   W96
@  #03 @051   ----------------------------------------
 .byte   W96
@  #03 @052   ----------------------------------------
 .byte   W96
@  #03 @053   ----------------------------------------
 .byte   W96
@  #03 @054   ----------------------------------------
 .byte   PATT
  .word Label_547429
@  #03 @055   ----------------------------------------
 .byte   W12
 .byte   N56 ,Bn3 ,v060
 .byte   W84
@  #03 @056   ----------------------------------------
 .byte   W96
@  #03 @057   ----------------------------------------
 .byte   W96
@  #03 @058   ----------------------------------------
 .byte   W96
@  #03 @059   ----------------------------------------
 .byte   W96
@  #03 @060   ----------------------------------------
 .byte   W24
 .byte   GOTO
  .word Label_5473BE
 .byte   FINE

@**************** Track 4 (Midi-Chn.3) ****************@

FivePmACNH_004:
@  #04 @000   ----------------------------------------
 .byte   KEYSH , FivePmACNH_key+0
Label_5479B6:
 .byte   VOICE , 4
 .byte   VOL , 52*FivePmACNH_mvl/mxv
 .byte   PAN , c_v+0
 .byte   W96
@  #04 @001   ----------------------------------------
 .byte   W96
@  #04 @002   ----------------------------------------
 .byte   W96
@  #04 @003   ----------------------------------------
 .byte   W96
@  #04 @004   ----------------------------------------
 .byte   W96
@  #04 @005   ----------------------------------------
 .byte   W96
@  #04 @006   ----------------------------------------
 .byte   W96
@  #04 @007   ----------------------------------------
 .byte   W96
@  #04 @008   ----------------------------------------
 .byte   W96
@  #04 @009   ----------------------------------------
 .byte   W96
@  #04 @010   ----------------------------------------
 .byte   W96
@  #04 @011   ----------------------------------------
 .byte   W96
@  #04 @012   ----------------------------------------
Label_5479C8:
 .byte   W12
 .byte   N02 ,Cs2 ,v052
 .byte   W19
 .byte   Ds2
 .byte   W17
 .byte   Cs2
 .byte   W19
 .byte   Ds2
 .byte   W28
 .byte   W01
 .byte   PEND 
@  #04 @013   ----------------------------------------
 .byte   PATT
  .word Label_5479C8
@  #04 @014   ----------------------------------------
 .byte   PATT
  .word Label_5479C8
@  #04 @015   ----------------------------------------
 .byte   PATT
  .word Label_5479C8
@  #04 @016   ----------------------------------------
 .byte   PATT
  .word Label_5479C8
@  #04 @017   ----------------------------------------
 .byte   PATT
  .word Label_5479C8
@  #04 @018   ----------------------------------------
 .byte   PATT
  .word Label_5479C8
@  #04 @019   ----------------------------------------
 .byte   W96
@  #04 @020   ----------------------------------------
 .byte   W96
@  #04 @021   ----------------------------------------
 .byte   W96
@  #04 @022   ----------------------------------------
 .byte   W96
@  #04 @023   ----------------------------------------
 .byte   W96
@  #04 @024   ----------------------------------------
 .byte   W96
@  #04 @025   ----------------------------------------
 .byte   W96
@  #04 @026   ----------------------------------------
 .byte   W96
@  #04 @027   ----------------------------------------
 .byte   W96
@  #04 @028   ----------------------------------------
 .byte   W96
@  #04 @029   ----------------------------------------
 .byte   W96
@  #04 @030   ----------------------------------------
 .byte   W96
@  #04 @031   ----------------------------------------
 .byte   W96
@  #04 @032   ----------------------------------------
 .byte   W96
@  #04 @033   ----------------------------------------
 .byte   W96
@  #04 @034   ----------------------------------------
 .byte   W96
@  #04 @035   ----------------------------------------
 .byte   W96
@  #04 @036   ----------------------------------------
 .byte   W96
@  #04 @037   ----------------------------------------
 .byte   W96
@  #04 @038   ----------------------------------------
 .byte   W96
@  #04 @039   ----------------------------------------
 .byte   W96
@  #04 @040   ----------------------------------------
 .byte   W96
@  #04 @041   ----------------------------------------
 .byte   W96
@  #04 @042   ----------------------------------------
 .byte   PATT
  .word Label_5479C8
@  #04 @043   ----------------------------------------
 .byte   PATT
  .word Label_5479C8
@  #04 @044   ----------------------------------------
 .byte   PATT
  .word Label_5479C8
@  #04 @045   ----------------------------------------
 .byte   PATT
  .word Label_5479C8
@  #04 @046   ----------------------------------------
 .byte   PATT
  .word Label_5479C8
@  #04 @047   ----------------------------------------
 .byte   PATT
  .word Label_5479C8
@  #04 @048   ----------------------------------------
 .byte   PATT
  .word Label_5479C8
@  #04 @049   ----------------------------------------
 .byte   W96
@  #04 @050   ----------------------------------------
 .byte   W96
@  #04 @051   ----------------------------------------
 .byte   W96
@  #04 @052   ----------------------------------------
 .byte   W96
@  #04 @053   ----------------------------------------
 .byte   W96
@  #04 @054   ----------------------------------------
 .byte   W96
@  #04 @055   ----------------------------------------
 .byte   W96
@  #04 @056   ----------------------------------------
 .byte   W96
@  #04 @057   ----------------------------------------
 .byte   W96
@  #04 @058   ----------------------------------------
 .byte   W96
@  #04 @059   ----------------------------------------
 .byte   W96
@  #04 @060   ----------------------------------------
 .byte   W24
 .byte   GOTO
  .word Label_5479B6
 .byte   FINE

@**************** Track 5 (Midi-Chn.4) ****************@

FivePmACNH_005:
@  #05 @000   ----------------------------------------
 .byte   KEYSH , FivePmACNH_key+0
Label_5463CA:
 .byte   VOICE , 4
 .byte   VOL , 52*FivePmACNH_mvl/mxv
 .byte   PAN , c_v+0
 .byte   W96
@  #05 @001   ----------------------------------------
 .byte   W96
@  #05 @002   ----------------------------------------
 .byte   W96
@  #05 @003   ----------------------------------------
 .byte   W96
@  #05 @004   ----------------------------------------
 .byte   W96
@  #05 @005   ----------------------------------------
 .byte   W96
@  #05 @006   ----------------------------------------
 .byte   W96
@  #05 @007   ----------------------------------------
 .byte   W96
@  #05 @008   ----------------------------------------
 .byte   W96
@  #05 @009   ----------------------------------------
 .byte   W96
@  #05 @010   ----------------------------------------
 .byte   W96
@  #05 @011   ----------------------------------------
 .byte   W96
@  #05 @012   ----------------------------------------
 .byte   W96
@  #05 @013   ----------------------------------------
 .byte   W96
@  #05 @014   ----------------------------------------
 .byte   W96
@  #05 @015   ----------------------------------------
 .byte   W96
@  #05 @016   ----------------------------------------
 .byte   W96
@  #05 @017   ----------------------------------------
 .byte   W96
@  #05 @018   ----------------------------------------
 .byte   W96
@  #05 @019   ----------------------------------------
 .byte   W96
@  #05 @020   ----------------------------------------
 .byte   W96
@  #05 @021   ----------------------------------------
 .byte   W96
@  #05 @022   ----------------------------------------
 .byte   W96
@  #05 @023   ----------------------------------------
 .byte   W96
@  #05 @024   ----------------------------------------
 .byte   W96
@  #05 @025   ----------------------------------------
Label_5463E9:
 .byte   W66
 .byte   W01
 .byte   N04 ,An4 ,v080
 .byte   W05
 .byte   N06 ,Cn5
 .byte   N06 ,En5
 .byte   W07
 .byte   N04 ,Bn4
 .byte   W05
 .byte   N11 ,An4
 .byte   W12
 .byte   PEND 
@  #05 @026   ----------------------------------------
 .byte   W96
@  #05 @027   ----------------------------------------
 .byte   W96
@  #05 @028   ----------------------------------------
 .byte   W96
@  #05 @029   ----------------------------------------
 .byte   W96
@  #05 @030   ----------------------------------------
 .byte   W96
@  #05 @031   ----------------------------------------
 .byte   W96
@  #05 @032   ----------------------------------------
 .byte   W96
@  #05 @033   ----------------------------------------
 .byte   W96
@  #05 @034   ----------------------------------------
 .byte   W96
@  #05 @035   ----------------------------------------
 .byte   W96
@  #05 @036   ----------------------------------------
 .byte   W96
@  #05 @037   ----------------------------------------
 .byte   W96
@  #05 @038   ----------------------------------------
 .byte   W96
@  #05 @039   ----------------------------------------
 .byte   W96
@  #05 @040   ----------------------------------------
 .byte   W96
@  #05 @041   ----------------------------------------
 .byte   W96
@  #05 @042   ----------------------------------------
 .byte   W96
@  #05 @043   ----------------------------------------
 .byte   W96
@  #05 @044   ----------------------------------------
 .byte   W96
@  #05 @045   ----------------------------------------
 .byte   W96
@  #05 @046   ----------------------------------------
 .byte   W96
@  #05 @047   ----------------------------------------
 .byte   W96
@  #05 @048   ----------------------------------------
 .byte   W96
@  #05 @049   ----------------------------------------
 .byte   W96
@  #05 @050   ----------------------------------------
 .byte   W96
@  #05 @051   ----------------------------------------
 .byte   W96
@  #05 @052   ----------------------------------------
 .byte   W96
@  #05 @053   ----------------------------------------
 .byte   W96
@  #05 @054   ----------------------------------------
 .byte   W96
@  #05 @055   ----------------------------------------
 .byte   PATT
  .word Label_5463E9
@  #05 @056   ----------------------------------------
 .byte   W96
@  #05 @057   ----------------------------------------
 .byte   W96
@  #05 @058   ----------------------------------------
 .byte   W96
@  #05 @059   ----------------------------------------
 .byte   W96
@  #05 @060   ----------------------------------------
 .byte   W24
 .byte   GOTO
  .word Label_5463CA
 .byte   FINE

@**************** Track 6 (Midi-Chn.5) ****************@

FivePmACNH_006:
@  #06 @000   ----------------------------------------
 .byte   KEYSH , FivePmACNH_key+0
Label_5466C2:
 .byte   VOICE , 28
 .byte   VOL , 90*FivePmACNH_mvl/mxv
 .byte   PAN , c_v+0
 .byte   W07
 .byte   N04 ,En2 ,v040
 .byte   W05
 .byte   N11 ,Fs2
 .byte   W12
 .byte   An2
 .byte   W12
 .byte   Fs2
 .byte   W12
 .byte   An2
 .byte   W12
 .byte   N07 ,Bn2
 .byte   W07
 .byte   N04 ,An2
 .byte   W28
 .byte   W01
@  #06 @001   ----------------------------------------
Label_5466DD:
 .byte   W07
 .byte   N04 ,En2 ,v040
 .byte   W05
 .byte   N11 ,Fs2
 .byte   W12
 .byte   An2
 .byte   W12
 .byte   Fs2
 .byte   W12
 .byte   Cs3
 .byte   W12
 .byte   N07 ,Bn2
 .byte   W07
 .byte   N04 ,An2
 .byte   W05
 .byte   N07 ,Bn2
 .byte   W07
 .byte   N16 ,An2
 .byte   W17
 .byte   PEND 
@  #06 @002   ----------------------------------------
Label_5466F8:
 .byte   W07
 .byte   N04 ,En2 ,v040
 .byte   W05
 .byte   N11 ,Fs2
 .byte   W12
 .byte   An2
 .byte   W12
 .byte   Fs2
 .byte   W12
 .byte   An2
 .byte   W12
 .byte   N07 ,Bn2
 .byte   W07
 .byte   N04 ,An2
 .byte   W28
 .byte   W01
 .byte   PEND 
@  #06 @003   ----------------------------------------
Label_54670E:
 .byte   W07
 .byte   N04 ,En2 ,v040
 .byte   W05
 .byte   N11 ,Fs2
 .byte   W12
 .byte   An2
 .byte   W12
 .byte   Fs2
 .byte   W12
 .byte   N07 ,Fs3
 .byte   W07
 .byte   N11 ,En3
 .byte   W12
 .byte   N04 ,Cs3
 .byte   W12
 .byte   N16 ,Fs2
 .byte   W17
 .byte   PEND 
@  #06 @004   ----------------------------------------
 .byte   PATT
  .word Label_5466F8
@  #06 @005   ----------------------------------------
 .byte   PATT
  .word Label_5466DD
@  #06 @006   ----------------------------------------
 .byte   PATT
  .word Label_5466F8
@  #06 @007   ----------------------------------------
 .byte   PATT
  .word Label_54670E
@  #06 @008   ----------------------------------------
 .byte   PATT
  .word Label_5466F8
@  #06 @009   ----------------------------------------
 .byte   PATT
  .word Label_5466DD
@  #06 @010   ----------------------------------------
 .byte   PATT
  .word Label_5466F8
@  #06 @011   ----------------------------------------
Label_54674A:
 .byte   W07
 .byte   N04 ,En2 ,v040
 .byte   W05
 .byte   N11 ,Fs2
 .byte   W12
 .byte   An2
 .byte   W12
 .byte   Fs2
 .byte   W12
 .byte   N23 ,Gs2
 .byte   N23 ,Cs3
 .byte   W24
 .byte   An2
 .byte   N23 ,Dn3
 .byte   W24
 .byte   PEND 
@  #06 @012   ----------------------------------------
Label_546760:
 .byte   N07 ,Bn2 ,v040
 .byte   N07 ,En3
 .byte   W07
 .byte   N04 ,Fs2
 .byte   W05
 .byte   N11 ,Gs2
 .byte   W12
 .byte   Bn2
 .byte   W12
 .byte   Gs2
 .byte   W12
 .byte   Bn2
 .byte   W12
 .byte   N07 ,Cs3
 .byte   W07
 .byte   N04 ,Bn2
 .byte   W28
 .byte   W01
 .byte   PEND 
@  #06 @013   ----------------------------------------
Label_54677A:
 .byte   W07
 .byte   N04 ,Fs2 ,v040
 .byte   W05
 .byte   N11 ,Gs2
 .byte   W12
 .byte   Bn2
 .byte   W12
 .byte   Gs2
 .byte   W12
 .byte   Ds3
 .byte   W12
 .byte   N07 ,Cs3
 .byte   W07
 .byte   N04 ,Bn2
 .byte   W05
 .byte   N07 ,Cs3
 .byte   W07
 .byte   N16 ,Bn2
 .byte   W17
 .byte   PEND 
@  #06 @014   ----------------------------------------
Label_546795:
 .byte   W07
 .byte   N04 ,Fs2 ,v040
 .byte   W05
 .byte   N11 ,Gs2
 .byte   W12
 .byte   Bn2
 .byte   W12
 .byte   Gs2
 .byte   W12
 .byte   Bn2
 .byte   W12
 .byte   N07 ,Cs3
 .byte   W07
 .byte   N04 ,Bn2
 .byte   W28
 .byte   W01
 .byte   PEND 
@  #06 @015   ----------------------------------------
Label_5467AB:
 .byte   W07
 .byte   N04 ,Fs2 ,v040
 .byte   W05
 .byte   N11 ,Gs2
 .byte   W12
 .byte   Bn2
 .byte   W12
 .byte   Gs2
 .byte   W12
 .byte   N07 ,Gs3
 .byte   W07
 .byte   N11 ,Fs3
 .byte   W12
 .byte   N04 ,Ds3
 .byte   W12
 .byte   N16 ,Gs2
 .byte   W17
 .byte   PEND 
@  #06 @016   ----------------------------------------
 .byte   PATT
  .word Label_546795
@  #06 @017   ----------------------------------------
 .byte   PATT
  .word Label_54677A
@  #06 @018   ----------------------------------------
 .byte   PATT
  .word Label_546795
@  #06 @019   ----------------------------------------
Label_5467D3:
 .byte   N19 ,Bn1 ,v040
 .byte   W19
 .byte   N04 ,Fs2
 .byte   W12
 .byte   An2
 .byte   W12
 .byte   Fs2
 .byte   W05
 .byte   N05 ,Bn2
 .byte   W24
 .byte   N23 ,Gs2
 .byte   N23 ,Cs3
 .byte   W24
 .byte   PEND 
@  #06 @020   ----------------------------------------
Label_5467E7:
 .byte   N07 ,An2 ,v040
 .byte   N07 ,Dn3
 .byte   W07
 .byte   N04 ,En2
 .byte   W05
 .byte   N11 ,Fs2
 .byte   W12
 .byte   An2
 .byte   W12
 .byte   Fs2
 .byte   W12
 .byte   An2
 .byte   W12
 .byte   N07 ,Bn2
 .byte   W07
 .byte   N04 ,An2
 .byte   W28
 .byte   W01
 .byte   PEND 
@  #06 @021   ----------------------------------------
 .byte   PATT
  .word Label_5466DD
@  #06 @022   ----------------------------------------
 .byte   PATT
  .word Label_5466F8
@  #06 @023   ----------------------------------------
Label_54680B:
 .byte   W07
 .byte   N04 ,En2 ,v040
 .byte   W05
 .byte   N11 ,Fs2
 .byte   W12
 .byte   An2
 .byte   W12
 .byte   Fs2
 .byte   W60
 .byte   PEND 
@  #06 @024   ----------------------------------------
 .byte   W96
@  #06 @025   ----------------------------------------
 .byte   W96
@  #06 @026   ----------------------------------------
 .byte   PATT
  .word Label_5466F8
@  #06 @027   ----------------------------------------
 .byte   PATT
  .word Label_5466DD
@  #06 @028   ----------------------------------------
 .byte   PATT
  .word Label_5466F8
@  #06 @029   ----------------------------------------
 .byte   PATT
  .word Label_54670E
@  #06 @030   ----------------------------------------
 .byte   PATT
  .word Label_5466F8
@  #06 @031   ----------------------------------------
 .byte   PATT
  .word Label_5466DD
@  #06 @032   ----------------------------------------
 .byte   PATT
  .word Label_5466F8
@  #06 @033   ----------------------------------------
 .byte   PATT
  .word Label_54670E
@  #06 @034   ----------------------------------------
 .byte   PATT
  .word Label_5466F8
@  #06 @035   ----------------------------------------
 .byte   PATT
  .word Label_5466DD
@  #06 @036   ----------------------------------------
 .byte   PATT
  .word Label_5466F8
@  #06 @037   ----------------------------------------
 .byte   PATT
  .word Label_54670E
@  #06 @038   ----------------------------------------
 .byte   PATT
  .word Label_5466F8
@  #06 @039   ----------------------------------------
 .byte   PATT
  .word Label_5466DD
@  #06 @040   ----------------------------------------
 .byte   PATT
  .word Label_5466F8
@  #06 @041   ----------------------------------------
 .byte   PATT
  .word Label_54674A
@  #06 @042   ----------------------------------------
 .byte   PATT
  .word Label_546760
@  #06 @043   ----------------------------------------
 .byte   PATT
  .word Label_54677A
@  #06 @044   ----------------------------------------
 .byte   PATT
  .word Label_546795
@  #06 @045   ----------------------------------------
 .byte   PATT
  .word Label_5467AB
@  #06 @046   ----------------------------------------
 .byte   PATT
  .word Label_546795
@  #06 @047   ----------------------------------------
 .byte   PATT
  .word Label_54677A
@  #06 @048   ----------------------------------------
 .byte   PATT
  .word Label_546795
@  #06 @049   ----------------------------------------
 .byte   PATT
  .word Label_5467D3
@  #06 @050   ----------------------------------------
 .byte   PATT
  .word Label_5467E7
@  #06 @051   ----------------------------------------
 .byte   PATT
  .word Label_5466DD
@  #06 @052   ----------------------------------------
 .byte   PATT
  .word Label_5466F8
@  #06 @053   ----------------------------------------
 .byte   PATT
  .word Label_54680B
@  #06 @054   ----------------------------------------
 .byte   W96
@  #06 @055   ----------------------------------------
 .byte   W96
@  #06 @056   ----------------------------------------
 .byte   PATT
  .word Label_5466F8
@  #06 @057   ----------------------------------------
 .byte   PATT
  .word Label_5466DD
@  #06 @058   ----------------------------------------
 .byte   PATT
  .word Label_5466F8
@  #06 @059   ----------------------------------------
 .byte   PATT
  .word Label_54670E
@  #06 @060   ----------------------------------------
 .byte   W24
 .byte   GOTO
  .word Label_5466C2
 .byte   FINE

@**************** Track 7 (Midi-Chn.6) ****************@

FivePmACNH_007:
@  #07 @000   ----------------------------------------
 .byte   KEYSH , FivePmACNH_key+0
Label_546E4E:
 .byte   VOICE , 34
 .byte   VOL , 72*FivePmACNH_mvl/mxv
 .byte   PAN , c_v+0
 .byte   N11 ,Bn1 ,v080
 .byte   W90
 .byte   W01
 .byte   N04 ,Dn1
 .byte   W05
@  #07 @001   ----------------------------------------
 .byte   N11 ,En1
 .byte   W96
@  #07 @002   ----------------------------------------
Label_546E5F:
 .byte   N11 ,An1 ,v080
 .byte   W90
 .byte   W01
 .byte   N04 ,En1
 .byte   W05
 .byte   PEND 
@  #07 @003   ----------------------------------------
Label_546E68:
 .byte   N11 ,Fs1 ,v080
 .byte   W48
 .byte   N07 ,Fs2
 .byte   W07
 .byte   N05 ,En2
 .byte   W12
 .byte   N04 ,Cs2
 .byte   W12
 .byte   N16 ,Fs1
 .byte   W17
 .byte   PEND 
@  #07 @004   ----------------------------------------
Label_546E79:
 .byte   N11 ,Bn1 ,v080
 .byte   W90
 .byte   W01
 .byte   N04 ,Dn1
 .byte   W05
 .byte   PEND 
@  #07 @005   ----------------------------------------
 .byte   N11 ,En1
 .byte   W96
@  #07 @006   ----------------------------------------
 .byte   PATT
  .word Label_546E5F
@  #07 @007   ----------------------------------------
 .byte   PATT
  .word Label_546E68
@  #07 @008   ----------------------------------------
 .byte   PATT
  .word Label_546E79
@  #07 @009   ----------------------------------------
 .byte   N11 ,En1 ,v080
 .byte   W96
@  #07 @010   ----------------------------------------
Label_546E98:
 .byte   N11 ,An1 ,v080
 .byte   W90
 .byte   W01
 .byte   N04 ,Gs1
 .byte   W05
 .byte   PEND 
@  #07 @011   ----------------------------------------
Label_546EA1:
 .byte   N11 ,An1 ,v080
 .byte   W48
 .byte   N23
 .byte   W24
 .byte   Bn1
 .byte   W24
 .byte   PEND 
@  #07 @012   ----------------------------------------
Label_546EAA:
 .byte   N11 ,Cs2 ,v080
 .byte   W42
 .byte   W01
 .byte   N04 ,Gs1
 .byte   W05
 .byte   N11 ,Bn1
 .byte   W12
 .byte   N05 ,Cs2
 .byte   W30
 .byte   W01
 .byte   N04 ,En1
 .byte   W05
 .byte   PEND 
@  #07 @013   ----------------------------------------
Label_546EBD:
 .byte   N11 ,Fs1 ,v080
 .byte   W48
 .byte   En1
 .byte   W12
 .byte   N05 ,Fs1
 .byte   W36
 .byte   PEND 
@  #07 @014   ----------------------------------------
Label_546EC7:
 .byte   N11 ,Bn1 ,v080
 .byte   W42
 .byte   W01
 .byte   N04 ,Fs1
 .byte   W05
 .byte   N11 ,Gs1
 .byte   W12
 .byte   N05 ,Bn1
 .byte   W30
 .byte   W01
 .byte   N04 ,Fs1
 .byte   W05
 .byte   PEND 
@  #07 @015   ----------------------------------------
Label_546EDA:
 .byte   N11 ,Gs1 ,v080
 .byte   W42
 .byte   W01
 .byte   N04 ,Ds2
 .byte   W05
 .byte   N07 ,Gs2
 .byte   W07
 .byte   N05 ,Fs2
 .byte   W12
 .byte   N04 ,Ds2
 .byte   W12
 .byte   N16 ,Gs1
 .byte   W17
 .byte   PEND 
@  #07 @016   ----------------------------------------
 .byte   PATT
  .word Label_546EAA
@  #07 @017   ----------------------------------------
 .byte   PATT
  .word Label_546EBD
@  #07 @018   ----------------------------------------
Label_546EF9:
 .byte   N11 ,Fs1 ,v080
 .byte   W42
 .byte   W01
 .byte   N04
 .byte   W05
 .byte   N11 ,En1
 .byte   W12
 .byte   N05 ,Fs1
 .byte   W36
 .byte   PEND 
@  #07 @019   ----------------------------------------
Label_546F07:
 .byte   N19 ,Bn1 ,v080
 .byte   W19
 .byte   N04 ,Fs2
 .byte   W12
 .byte   An2
 .byte   W12
 .byte   Fs2
 .byte   W05
 .byte   N05 ,Bn2
 .byte   W24
 .byte   N23 ,As1
 .byte   W24
 .byte   PEND 
@  #07 @020   ----------------------------------------
 .byte   PATT
  .word Label_546E79
@  #07 @021   ----------------------------------------
 .byte   N11 ,En1 ,v080
 .byte   W96
@  #07 @022   ----------------------------------------
 .byte   PATT
  .word Label_546E5F
@  #07 @023   ----------------------------------------
Label_546F27:
 .byte   N11 ,Fs1 ,v080
 .byte   W42
 .byte   W01
 .byte   N04 ,En2
 .byte   W05
 .byte   N07 ,Fs2
 .byte   W07
 .byte   N04 ,En2
 .byte   W05
 .byte   N05 ,Fs2
 .byte   W12
 .byte   N23 ,Fs1
 .byte   W24
 .byte   PEND 
@  #07 @024   ----------------------------------------
Label_546F3C:
 .byte   N11 ,Bn1 ,v080
 .byte   W42
 .byte   W01
 .byte   N04 ,Fs1
 .byte   W05
 .byte   N11 ,Bn1
 .byte   W12
 .byte   N23 ,Cs2
 .byte   W24
 .byte   Dn2
 .byte   W12
 .byte   PEND 
@  #07 @025   ----------------------------------------
Label_546F4D:
 .byte   W12
 .byte   N56 ,Gn1 ,v080
 .byte   W60
 .byte   N23 ,Fs1
 .byte   W24
 .byte   PEND 
@  #07 @026   ----------------------------------------
 .byte   PATT
  .word Label_546E79
@  #07 @027   ----------------------------------------
 .byte   N11 ,En1 ,v080
 .byte   W96
@  #07 @028   ----------------------------------------
 .byte   PATT
  .word Label_546E5F
@  #07 @029   ----------------------------------------
 .byte   PATT
  .word Label_546E68
@  #07 @030   ----------------------------------------
 .byte   PATT
  .word Label_546E79
@  #07 @031   ----------------------------------------
 .byte   N11 ,En1 ,v080
 .byte   W96
@  #07 @032   ----------------------------------------
 .byte   PATT
  .word Label_546E5F
@  #07 @033   ----------------------------------------
 .byte   PATT
  .word Label_546E68
@  #07 @034   ----------------------------------------
 .byte   PATT
  .word Label_546E79
@  #07 @035   ----------------------------------------
 .byte   N11 ,En1 ,v080
 .byte   W96
@  #07 @036   ----------------------------------------
 .byte   PATT
  .word Label_546E5F
@  #07 @037   ----------------------------------------
 .byte   PATT
  .word Label_546E68
@  #07 @038   ----------------------------------------
 .byte   PATT
  .word Label_546E79
@  #07 @039   ----------------------------------------
 .byte   N11 ,En1 ,v080
 .byte   W96
@  #07 @040   ----------------------------------------
 .byte   PATT
  .word Label_546E98
@  #07 @041   ----------------------------------------
 .byte   PATT
  .word Label_546EA1
@  #07 @042   ----------------------------------------
 .byte   PATT
  .word Label_546EAA
@  #07 @043   ----------------------------------------
 .byte   PATT
  .word Label_546EBD
@  #07 @044   ----------------------------------------
 .byte   PATT
  .word Label_546EC7
@  #07 @045   ----------------------------------------
 .byte   PATT
  .word Label_546EDA
@  #07 @046   ----------------------------------------
 .byte   PATT
  .word Label_546EAA
@  #07 @047   ----------------------------------------
 .byte   PATT
  .word Label_546EBD
@  #07 @048   ----------------------------------------
 .byte   PATT
  .word Label_546EF9
@  #07 @049   ----------------------------------------
 .byte   PATT
  .word Label_546F07
@  #07 @050   ----------------------------------------
 .byte   PATT
  .word Label_546E79
@  #07 @051   ----------------------------------------
 .byte   N11 ,En1 ,v080
 .byte   W96
@  #07 @052   ----------------------------------------
 .byte   PATT
  .word Label_546E5F
@  #07 @053   ----------------------------------------
 .byte   PATT
  .word Label_546F27
@  #07 @054   ----------------------------------------
 .byte   PATT
  .word Label_546F3C
@  #07 @055   ----------------------------------------
 .byte   PATT
  .word Label_546F4D
@  #07 @056   ----------------------------------------
 .byte   PATT
  .word Label_546E79
@  #07 @057   ----------------------------------------
 .byte   N11 ,En1 ,v080
 .byte   W96
@  #07 @058   ----------------------------------------
 .byte   PATT
  .word Label_546E5F
@  #07 @059   ----------------------------------------
 .byte   PATT
  .word Label_546E68
@  #07 @060   ----------------------------------------
 .byte   W24
 .byte   GOTO
  .word Label_546E4E
 .byte   FINE

@**************** Track 8 (Midi-Chn.7) ****************@

FivePmACNH_008:
@  #08 @000   ----------------------------------------
 .byte   KEYSH , FivePmACNH_key+0
Label_547006:
 .byte   VOICE , 127
 .byte   VOL , 62*FivePmACNH_mvl/mxv
 .byte   PAN , c_v+0
 .byte   N23 ,Cn1 ,v060
 .byte   N11 ,Fs1 ,v032
 .byte   W12
 .byte   N11
 .byte   W12
 .byte   N23 ,Dn1 ,v076
 .byte   N11 ,Fs1 ,v032
 .byte   W12
 .byte   N11
 .byte   W12
 .byte   N23 ,Cn1 ,v064
 .byte   N11 ,Fs1 ,v032
 .byte   W12
 .byte   N11
 .byte   W12
 .byte   N23 ,Dn1 ,v076
 .byte   N11 ,Fs1 ,v032
 .byte   W12
 .byte   N11
 .byte   W12
@  #08 @001   ----------------------------------------
Label_547030:
 .byte   N23 ,Cn1 ,v064
 .byte   N11 ,Fs1 ,v032
 .byte   W12
 .byte   N11
 .byte   W12
 .byte   N19 ,Dn1 ,v076
 .byte   N11 ,Fs1 ,v032
 .byte   W12
 .byte   N11
 .byte   W07
 .byte   N04 ,Dn1
 .byte   W05
 .byte   N07 ,Cn1 ,v064
 .byte   N11 ,Fs1 ,v032
 .byte   W07
 .byte   N04 ,Dn1
 .byte   W05
 .byte   N11 ,Fs1
 .byte   W12
 .byte   N23 ,Dn1 ,v076
 .byte   N11 ,Fs1 ,v032
 .byte   W12
 .byte   N11
 .byte   W12
 .byte   PEND 
@  #08 @002   ----------------------------------------
Label_54705C:
 .byte   N23 ,Cn1 ,v064
 .byte   N11 ,Fs1 ,v032
 .byte   W12
 .byte   N11
 .byte   W12
 .byte   N23 ,Dn1 ,v076
 .byte   N11 ,Fs1 ,v032
 .byte   W12
 .byte   N11
 .byte   W12
 .byte   N23 ,Cn1 ,v064
 .byte   N11 ,Fs1 ,v032
 .byte   W12
 .byte   N11
 .byte   W12
 .byte   N23 ,Dn1 ,v076
 .byte   N11 ,Fs1 ,v032
 .byte   W12
 .byte   N11
 .byte   W12
 .byte   PEND 
@  #08 @003   ----------------------------------------
Label_547081:
 .byte   N23 ,Cn1 ,v064
 .byte   N11 ,Fs1 ,v032
 .byte   W12
 .byte   N11
 .byte   W12
 .byte   N19 ,Dn1 ,v076
 .byte   N11 ,Fs1 ,v032
 .byte   W12
 .byte   N11
 .byte   W07
 .byte   N04 ,Dn1
 .byte   W05
 .byte   N07 ,Cn1 ,v064
 .byte   N11 ,Fs1 ,v032
 .byte   W07
 .byte   N04 ,Dn1
 .byte   W05
 .byte   N11 ,Fs1
 .byte   W12
 .byte   N07 ,Dn1 ,v076
 .byte   N11 ,Fs1 ,v032
 .byte   W07
 .byte   N16 ,Cn1 ,v064
 .byte   W05
 .byte   N11 ,Fs1 ,v032
 .byte   W12
 .byte   PEND 
@  #08 @004   ----------------------------------------
 .byte   PATT
  .word Label_54705C
@  #08 @005   ----------------------------------------
 .byte   PATT
  .word Label_547030
@  #08 @006   ----------------------------------------
 .byte   PATT
  .word Label_54705C
@  #08 @007   ----------------------------------------
 .byte   PATT
  .word Label_547081
@  #08 @008   ----------------------------------------
 .byte   PATT
  .word Label_54705C
@  #08 @009   ----------------------------------------
 .byte   PATT
  .word Label_547030
@  #08 @010   ----------------------------------------
 .byte   PATT
  .word Label_54705C
@  #08 @011   ----------------------------------------
 .byte   PATT
  .word Label_547081
@  #08 @012   ----------------------------------------
Label_5470DB:
 .byte   N23 ,Cn1 ,v064
 .byte   N11 ,Fs1 ,v032
 .byte   W12
 .byte   N11
 .byte   W12
 .byte   N23 ,Dn1 ,v076
 .byte   N11 ,Fs1 ,v032
 .byte   W12
 .byte   N11
 .byte   W12
 .byte   Cn1 ,v064
 .byte   N11 ,Fs1 ,v032
 .byte   W12
 .byte   Cn1 ,v064
 .byte   N11 ,Fs1 ,v032
 .byte   W12
 .byte   N23 ,Dn1 ,v076
 .byte   N11 ,Fs1 ,v032
 .byte   W12
 .byte   N11
 .byte   W12
 .byte   PEND 
@  #08 @013   ----------------------------------------
Label_547103:
 .byte   N23 ,Cn1 ,v064
 .byte   N11 ,Fs1 ,v032
 .byte   W12
 .byte   N11
 .byte   W12
 .byte   N19 ,Dn1 ,v076
 .byte   N11 ,Fs1 ,v032
 .byte   W12
 .byte   N11
 .byte   W07
 .byte   N04 ,Dn1
 .byte   W05
 .byte   N07 ,Cn1 ,v064
 .byte   N11 ,Fs1 ,v032
 .byte   W07
 .byte   N04 ,Dn1
 .byte   W05
 .byte   N11 ,Fs1
 .byte   W12
 .byte   N19 ,Dn1 ,v076
 .byte   N11 ,Fs1 ,v032
 .byte   W12
 .byte   N11
 .byte   W07
 .byte   N04 ,Dn1
 .byte   W05
 .byte   PEND 
@  #08 @014   ----------------------------------------
 .byte   PATT
  .word Label_5470DB
@  #08 @015   ----------------------------------------
Label_547137:
 .byte   N23 ,Cn1 ,v064
 .byte   N11 ,Fs1 ,v032
 .byte   W12
 .byte   N11
 .byte   W12
 .byte   N19 ,Dn1 ,v076
 .byte   N11 ,Fs1 ,v032
 .byte   W12
 .byte   N11
 .byte   W07
 .byte   N04 ,Dn1
 .byte   W05
 .byte   N07 ,Cn1 ,v064
 .byte   N11 ,Fs1 ,v032
 .byte   W07
 .byte   N04 ,Dn1
 .byte   W05
 .byte   N11 ,Cn1 ,v064
 .byte   N11 ,Fs1 ,v032
 .byte   W12
 .byte   N07 ,Dn1 ,v076
 .byte   N11 ,Fs1 ,v032
 .byte   W07
 .byte   Cn1 ,v064
 .byte   W05
 .byte   Fs1 ,v032
 .byte   W07
 .byte   N04 ,Dn1
 .byte   W05
 .byte   PEND 
@  #08 @016   ----------------------------------------
 .byte   PATT
  .word Label_5470DB
@  #08 @017   ----------------------------------------
 .byte   PATT
  .word Label_547103
@  #08 @018   ----------------------------------------
 .byte   PATT
  .word Label_5470DB
@  #08 @019   ----------------------------------------
Label_54717D:
 .byte   N23 ,Cn1 ,v064
 .byte   N11 ,Fs1 ,v032
 .byte   W12
 .byte   N11
 .byte   W12
 .byte   N19 ,Dn1 ,v076
 .byte   N11 ,Fs1 ,v032
 .byte   W12
 .byte   N11
 .byte   W07
 .byte   N04 ,Dn1
 .byte   W05
 .byte   N07 ,Cn1 ,v064
 .byte   N11 ,Fs1 ,v032
 .byte   W07
 .byte   N16 ,Dn1 ,v064
 .byte   W05
 .byte   N11 ,Fs1 ,v032
 .byte   W12
 .byte   N23 ,Dn1 ,v076
 .byte   N11 ,Fs1 ,v032
 .byte   W12
 .byte   N11
 .byte   W12
 .byte   PEND 
@  #08 @020   ----------------------------------------
 .byte   PATT
  .word Label_54705C
@  #08 @021   ----------------------------------------
 .byte   PATT
  .word Label_547030
@  #08 @022   ----------------------------------------
 .byte   PATT
  .word Label_54705C
@  #08 @023   ----------------------------------------
Label_5471BA:
 .byte   N23 ,Cn1 ,v064
 .byte   N11 ,Fs1 ,v032
 .byte   W12
 .byte   N11
 .byte   W12
 .byte   N19 ,Dn1 ,v076
 .byte   N11 ,Fs1 ,v032
 .byte   W12
 .byte   N11
 .byte   W07
 .byte   N04 ,Dn1
 .byte   W05
 .byte   N07 ,Cn1 ,v064
 .byte   N11 ,Fs1 ,v032
 .byte   W07
 .byte   N04 ,Dn1
 .byte   W05
 .byte   N11 ,Fs1
 .byte   W12
 .byte   N19 ,Dn1 ,v076
 .byte   N11 ,Fs1 ,v032
 .byte   W12
 .byte   N11
 .byte   W07
 .byte   N04 ,Dn1 ,v064
 .byte   W05
 .byte   PEND 
@  #08 @024   ----------------------------------------
Label_5471EA:
 .byte   N23 ,Cn1 ,v064
 .byte   N11 ,Fs1 ,v032
 .byte   W12
 .byte   N11
 .byte   W12
 .byte   N23 ,Dn1 ,v076
 .byte   N11 ,Fs1 ,v032
 .byte   W12
 .byte   N11
 .byte   W12
 .byte   Cn1 ,v064
 .byte   N11 ,Fs1 ,v032
 .byte   W12
 .byte   Dn1 ,v064
 .byte   N11 ,Fs1 ,v032
 .byte   W12
 .byte   N11
 .byte   W12
 .byte   Cn1 ,v064
 .byte   N11 ,Fs1 ,v032
 .byte   W12
 .byte   PEND 
@  #08 @025   ----------------------------------------
Label_547211:
 .byte   W12
 .byte   N11 ,Cn1 ,v064
 .byte   W36
 .byte   Cn1 ,v076
 .byte   W12
 .byte   N07
 .byte   W07
 .byte   N04 ,Dn1 ,v032
 .byte   W05
 .byte   N07 ,Dn1 ,v056
 .byte   W07
 .byte   N04 ,Dn1 ,v064
 .byte   W05
 .byte   N11 ,Cn1 ,v076
 .byte   W12
 .byte   PEND 
@  #08 @026   ----------------------------------------
 .byte   PATT
  .word Label_54705C
@  #08 @027   ----------------------------------------
 .byte   PATT
  .word Label_547030
@  #08 @028   ----------------------------------------
 .byte   PATT
  .word Label_54705C
@  #08 @029   ----------------------------------------
 .byte   PATT
  .word Label_547081
@  #08 @030   ----------------------------------------
 .byte   N23 ,Cn1 ,v060
 .byte   N11 ,Fs1 ,v032
 .byte   W12
 .byte   N11
 .byte   W12
 .byte   N23 ,Dn1 ,v076
 .byte   N11 ,Fs1 ,v032
 .byte   W12
 .byte   N11
 .byte   W12
 .byte   N23 ,Cn1 ,v064
 .byte   N11 ,Fs1 ,v032
 .byte   W12
 .byte   N11
 .byte   W12
 .byte   N23 ,Dn1 ,v076
 .byte   N11 ,Fs1 ,v032
 .byte   W12
 .byte   N11
 .byte   W12
@  #08 @031   ----------------------------------------
 .byte   PATT
  .word Label_547030
@  #08 @032   ----------------------------------------
 .byte   PATT
  .word Label_54705C
@  #08 @033   ----------------------------------------
 .byte   PATT
  .word Label_547081
@  #08 @034   ----------------------------------------
 .byte   PATT
  .word Label_54705C
@  #08 @035   ----------------------------------------
 .byte   PATT
  .word Label_547030
@  #08 @036   ----------------------------------------
 .byte   PATT
  .word Label_54705C
@  #08 @037   ----------------------------------------
 .byte   PATT
  .word Label_547081
@  #08 @038   ----------------------------------------
 .byte   PATT
  .word Label_54705C
@  #08 @039   ----------------------------------------
 .byte   PATT
  .word Label_547030
@  #08 @040   ----------------------------------------
 .byte   PATT
  .word Label_54705C
@  #08 @041   ----------------------------------------
 .byte   PATT
  .word Label_547081
@  #08 @042   ----------------------------------------
 .byte   PATT
  .word Label_5470DB
@  #08 @043   ----------------------------------------
 .byte   PATT
  .word Label_547103
@  #08 @044   ----------------------------------------
 .byte   PATT
  .word Label_5470DB
@  #08 @045   ----------------------------------------
 .byte   PATT
  .word Label_547137
@  #08 @046   ----------------------------------------
 .byte   PATT
  .word Label_5470DB
@  #08 @047   ----------------------------------------
 .byte   PATT
  .word Label_547103
@  #08 @048   ----------------------------------------
 .byte   PATT
  .word Label_5470DB
@  #08 @049   ----------------------------------------
 .byte   PATT
  .word Label_54717D
@  #08 @050   ----------------------------------------
 .byte   PATT
  .word Label_54705C
@  #08 @051   ----------------------------------------
 .byte   PATT
  .word Label_547030
@  #08 @052   ----------------------------------------
 .byte   PATT
  .word Label_54705C
@  #08 @053   ----------------------------------------
 .byte   PATT
  .word Label_5471BA
@  #08 @054   ----------------------------------------
 .byte   PATT
  .word Label_5471EA
@  #08 @055   ----------------------------------------
 .byte   PATT
  .word Label_547211
@  #08 @056   ----------------------------------------
 .byte   PATT
  .word Label_54705C
@  #08 @057   ----------------------------------------
 .byte   PATT
  .word Label_547030
@  #08 @058   ----------------------------------------
 .byte   PATT
  .word Label_54705C
@  #08 @059   ----------------------------------------
 .byte   PATT
  .word Label_547081
@  #08 @060   ----------------------------------------
 .byte   W24
 .byte   GOTO
  .word Label_547006
 .byte   FINE

@******************************************************@
	.align	2

FivePmACNH:
	.byte	8	@ NumTrks
	.byte	0	@ NumBlks
	.byte	FivePmACNH_pri	@ Priority
	.byte	FivePmACNH_rev	@ Reverb.
    
	.word	FivePmACNH_grp
    
	.word	FivePmACNH_001
	.word	FivePmACNH_002
	.word	FivePmACNH_003
	.word	FivePmACNH_004
	.word	FivePmACNH_005
	.word	FivePmACNH_006
	.word	FivePmACNH_007
	.word	FivePmACNH_008

	.end
