	.include "MPlayDef.s"

	.equ	ForwardFE5_grp, voicegroup000
	.equ	ForwardFE5_pri, 0
	.equ	ForwardFE5_rev, 0
	.equ	ForwardFE5_mvl, 127
	.equ	ForwardFE5_key, 0
	.equ	ForwardFE5_tbs, 1
	.equ	ForwardFE5_exg, 0
	.equ	ForwardFE5_cmp, 1

	.section .rodata
	.global	ForwardFE5
	.align	2


@**************** Track 1 (Midi-Chn.0) ****************@

ForwardFE5_001:
@  #01 @000   ----------------------------------------
 .byte   KEYSH , ForwardFE5_key+0
Label_016780B2:
 .byte   TEMPO , 114*ForwardFE5_tbs/2
 .byte   VOICE , 56
 .byte   VOL , 66*ForwardFE5_mvl/mxv
 .byte   N36 ,Ds3 ,v100
 .byte   W48
 .byte   Fn3
 .byte   W48
@  #01 @001   ----------------------------------------
Label_016780BE:
 .byte   N36 ,Gn3 ,v100
 .byte   W48
 .byte   As3
 .byte   W48
 .byte   PEND 
@  #01 @002   ----------------------------------------
Label_016780C5:
 .byte   N36 ,Gs3 ,v100
 .byte   W48
 .byte   Fn3
 .byte   W48
 .byte   PEND 
@  #01 @003   ----------------------------------------
 .byte   N84 ,Gn3
 .byte   W96
@  #01 @004   ----------------------------------------
Label_016780CF:
 .byte   N36 ,Ds3 ,v100
 .byte   W48
 .byte   Fn3
 .byte   W48
 .byte   PEND 
@  #01 @005   ----------------------------------------
 .byte   PATT
  .word Label_016780BE
@  #01 @006   ----------------------------------------
Label_016780DB:
 .byte   N60 ,Cn4 ,v100
 .byte   W72
 .byte   N24 ,As3
 .byte   W24
 .byte   PEND 
@  #01 @007   ----------------------------------------
Label_016780E3:
 .byte   N48 ,Gn3 ,v100
 .byte   W72
 .byte   N06
 .byte   W12
 .byte   Fn3
 .byte   W12
 .byte   PEND 
@  #01 @008   ----------------------------------------
Label_016780EC:
 .byte   N36 ,Gn3 ,v100
 .byte   W48
 .byte   Ds3
 .byte   W48
 .byte   PEND 
@  #01 @009   ----------------------------------------
Label_016780F3:
 .byte   N36 ,Ds3 ,v100
 .byte   W48
 .byte   N18 ,Dn3
 .byte   W24
 .byte   Cn3
 .byte   W24
 .byte   PEND 
@  #01 @010   ----------------------------------------
 .byte   TIE ,Fn3
 .byte   W96
@  #01 @011   ----------------------------------------
 .byte   W84
 .byte   EOT
 .byte   W12
@  #01 @012   ----------------------------------------
 .byte   PATT
  .word Label_016780CF
@  #01 @013   ----------------------------------------
 .byte   PATT
  .word Label_016780BE
@  #01 @014   ----------------------------------------
 .byte   PATT
  .word Label_016780C5
@  #01 @015   ----------------------------------------
 .byte   PATT
  .word Label_016780E3
@  #01 @016   ----------------------------------------
Label_01678117:
 .byte   N36 ,Ds3 ,v100
 .byte   W48
 .byte   Gs3
 .byte   W48
 .byte   PEND 
@  #01 @017   ----------------------------------------
Label_0167811E:
 .byte   N36 ,Fn3 ,v100
 .byte   W48
 .byte   Dn3
 .byte   W48
 .byte   PEND 
@  #01 @018   ----------------------------------------
 .byte   N84 ,Fn3
 .byte   W96
@  #01 @019   ----------------------------------------
 .byte   Ds3
 .byte   W96
@  #01 @020   ----------------------------------------
Label_0167812A:
 .byte   N36 ,Cn3 ,v100
 .byte   W48
 .byte   Gs3
 .byte   W48
 .byte   PEND 
@  #01 @021   ----------------------------------------
Label_01678131:
 .byte   N12 ,Gn3 ,v100
 .byte   W24
 .byte   Dn3
 .byte   W24
 .byte   N36 ,Ds3
 .byte   W48
 .byte   PEND 
@  #01 @022   ----------------------------------------
Label_0167813B:
 .byte   N36 ,Fn3 ,v100
 .byte   W48
 .byte   N12 ,Cn3
 .byte   W24
 .byte   N06 ,Dn3
 .byte   W12
 .byte   Ds3
 .byte   W12
 .byte   PEND 
@  #01 @023   ----------------------------------------
Label_01678148:
 .byte   N36 ,Ds3 ,v100
 .byte   W48
 .byte   Dn3
 .byte   W48
 .byte   PEND 
@  #01 @024   ----------------------------------------
Label_0167814F:
 .byte   N36 ,Dn3 ,v100
 .byte   W48
 .byte   N18 ,Gn3
 .byte   W24
 .byte   N06 ,Dn3
 .byte   W12
 .byte   Fn3
 .byte   W12
 .byte   PEND 
@  #01 @025   ----------------------------------------
Label_0167815C:
 .byte   N18 ,Fn3 ,v100
 .byte   W24
 .byte   Ds3
 .byte   W24
 .byte   Dn3
 .byte   W24
 .byte   Cn3
 .byte   W24
 .byte   PEND 
@  #01 @026   ----------------------------------------
Label_01678167:
 .byte   N36 ,Fn3 ,v100
 .byte   W48
 .byte   N30 ,Cn3
 .byte   W36
 .byte   N06 ,Dn3
 .byte   W12
 .byte   PEND 
@  #01 @027   ----------------------------------------
 .byte   PATT
  .word Label_01678148
@  #01 @028   ----------------------------------------
 .byte   PATT
  .word Label_016780CF
@  #01 @029   ----------------------------------------
 .byte   PATT
  .word Label_016780BE
@  #01 @030   ----------------------------------------
 .byte   PATT
  .word Label_016780C5
@  #01 @031   ----------------------------------------
 .byte   N84 ,Gn3 ,v100
 .byte   W96
@  #01 @032   ----------------------------------------
 .byte   PATT
  .word Label_016780CF
@  #01 @033   ----------------------------------------
 .byte   PATT
  .word Label_016780BE
@  #01 @034   ----------------------------------------
 .byte   PATT
  .word Label_016780DB
@  #01 @035   ----------------------------------------
 .byte   PATT
  .word Label_016780E3
@  #01 @036   ----------------------------------------
 .byte   PATT
  .word Label_016780EC
@  #01 @037   ----------------------------------------
 .byte   PATT
  .word Label_016780F3
@  #01 @038   ----------------------------------------
 .byte   TIE ,Fn3 ,v100
 .byte   W96
@  #01 @039   ----------------------------------------
 .byte   W84
 .byte   EOT
 .byte   W12
@  #01 @040   ----------------------------------------
 .byte   PATT
  .word Label_016780CF
@  #01 @041   ----------------------------------------
 .byte   PATT
  .word Label_016780BE
@  #01 @042   ----------------------------------------
 .byte   PATT
  .word Label_016780C5
@  #01 @043   ----------------------------------------
 .byte   PATT
  .word Label_016780E3
@  #01 @044   ----------------------------------------
 .byte   PATT
  .word Label_01678117
@  #01 @045   ----------------------------------------
 .byte   PATT
  .word Label_0167811E
@  #01 @046   ----------------------------------------
 .byte   N84 ,Fn3 ,v100
 .byte   W96
@  #01 @047   ----------------------------------------
 .byte   Ds3
 .byte   W96
@  #01 @048   ----------------------------------------
 .byte   PATT
  .word Label_0167812A
@  #01 @049   ----------------------------------------
 .byte   PATT
  .word Label_01678131
@  #01 @050   ----------------------------------------
 .byte   PATT
  .word Label_0167813B
@  #01 @051   ----------------------------------------
 .byte   PATT
  .word Label_01678148
@  #01 @052   ----------------------------------------
 .byte   PATT
  .word Label_0167814F
@  #01 @053   ----------------------------------------
 .byte   PATT
  .word Label_0167815C
@  #01 @054   ----------------------------------------
 .byte   PATT
  .word Label_01678167
@  #01 @055   ----------------------------------------
 .byte   PATT
  .word Label_01678148
@  #01 @056   ----------------------------------------
 .byte   W24
 .byte   GOTO
  .word Label_016780B2
 .byte   FINE

@**************** Track 2 (Midi-Chn.1) ****************@

ForwardFE5_002:
@  #02 @000   ----------------------------------------
 .byte   KEYSH , ForwardFE5_key+0
Label_01678206:
 .byte   VOICE , 42
 .byte   VOL , 55*ForwardFE5_mvl/mxv
 .byte   W96
@  #02 @001   ----------------------------------------
 .byte   W96
@  #02 @002   ----------------------------------------
 .byte   W96
@  #02 @003   ----------------------------------------
 .byte   W96
@  #02 @004   ----------------------------------------
 .byte   W96
@  #02 @005   ----------------------------------------
 .byte   W96
@  #02 @006   ----------------------------------------
 .byte   W96
@  #02 @007   ----------------------------------------
 .byte   W96
@  #02 @008   ----------------------------------------
Label_01678212:
 .byte   W24
 .byte   N24 ,Gn2 ,v100
 .byte   W24
 .byte   Cn3
 .byte   W24
 .byte   Dn3
 .byte   W24
 .byte   PEND 
@  #02 @009   ----------------------------------------
Label_0167821C:
 .byte   N24 ,Ds3 ,v100
 .byte   W24
 .byte   Gn3
 .byte   W24
 .byte   Cn4
 .byte   W24
 .byte   Dn4
 .byte   W24
 .byte   PEND 
@  #02 @010   ----------------------------------------
Label_01678227:
 .byte   N84 ,Ds4 ,v100
 .byte   W84
 .byte   N06 ,Dn4
 .byte   W06
 .byte   Ds4
 .byte   W06
 .byte   PEND 
@  #02 @011   ----------------------------------------
 .byte   N84 ,Fn4
 .byte   W96
@  #02 @012   ----------------------------------------
 .byte   W96
@  #02 @013   ----------------------------------------
 .byte   W96
@  #02 @014   ----------------------------------------
 .byte   W96
@  #02 @015   ----------------------------------------
Label_01678237:
 .byte   W24
 .byte   N24 ,As3 ,v100
 .byte   W24
 .byte   Ds4
 .byte   W24
 .byte   Dn4
 .byte   W24
 .byte   PEND 
@  #02 @016   ----------------------------------------
Label_01678241:
 .byte   N72 ,Ds4 ,v100
 .byte   W72
 .byte   N12 ,Fn4
 .byte   W12
 .byte   Gn4
 .byte   W12
 .byte   PEND 
@  #02 @017   ----------------------------------------
 .byte   N96 ,Gs4
 .byte   W96
@  #02 @018   ----------------------------------------
 .byte   As4
 .byte   W96
@  #02 @019   ----------------------------------------
Label_01678250:
 .byte   N24 ,Ds4 ,v100
 .byte   W24
 .byte   As3
 .byte   W24
 .byte   Gn3
 .byte   W24
 .byte   Ds3
 .byte   W24
 .byte   PEND 
@  #02 @020   ----------------------------------------
Label_0167825B:
 .byte   N42 ,Cn3 ,v100
 .byte   W48
 .byte   Gs3
 .byte   W48
 .byte   PEND 
@  #02 @021   ----------------------------------------
Label_01678262:
 .byte   N18 ,Gn3 ,v100
 .byte   W24
 .byte   Dn3
 .byte   W24
 .byte   N42 ,Ds3
 .byte   W48
 .byte   PEND 
@  #02 @022   ----------------------------------------
Label_0167826C:
 .byte   N42 ,Fn3 ,v100
 .byte   W48
 .byte   N18 ,Cn3
 .byte   W24
 .byte   N06 ,Dn3
 .byte   W12
 .byte   Ds3
 .byte   W12
 .byte   PEND 
@  #02 @023   ----------------------------------------
Label_01678279:
 .byte   N42 ,Ds3 ,v100
 .byte   W48
 .byte   N36 ,Dn3
 .byte   W48
 .byte   PEND 
@  #02 @024   ----------------------------------------
Label_01678281:
 .byte   N42 ,Dn3 ,v100
 .byte   W48
 .byte   N18 ,Gn3
 .byte   W24
 .byte   N06 ,Dn3
 .byte   W12
 .byte   Fn3
 .byte   W12
 .byte   PEND 
@  #02 @025   ----------------------------------------
Label_0167828E:
 .byte   N18 ,Fn3 ,v100
 .byte   W24
 .byte   Ds3
 .byte   W24
 .byte   Dn3
 .byte   W24
 .byte   Cn3
 .byte   W24
 .byte   PEND 
@  #02 @026   ----------------------------------------
Label_01678299:
 .byte   N42 ,Fn3 ,v100
 .byte   W48
 .byte   N30 ,Cn3
 .byte   W36
 .byte   N06 ,Dn3
 .byte   W12
 .byte   PEND 
@  #02 @027   ----------------------------------------
Label_016782A4:
 .byte   N42 ,Ds3 ,v100
 .byte   W48
 .byte   Dn3
 .byte   W48
 .byte   PEND 
@  #02 @028   ----------------------------------------
 .byte   W96
@  #02 @029   ----------------------------------------
 .byte   W96
@  #02 @030   ----------------------------------------
 .byte   W96
@  #02 @031   ----------------------------------------
 .byte   W96
@  #02 @032   ----------------------------------------
 .byte   W96
@  #02 @033   ----------------------------------------
 .byte   W96
@  #02 @034   ----------------------------------------
 .byte   W96
@  #02 @035   ----------------------------------------
 .byte   W96
@  #02 @036   ----------------------------------------
 .byte   PATT
  .word Label_01678212
@  #02 @037   ----------------------------------------
 .byte   PATT
  .word Label_0167821C
@  #02 @038   ----------------------------------------
 .byte   PATT
  .word Label_01678227
@  #02 @039   ----------------------------------------
 .byte   N84 ,Fn4 ,v100
 .byte   W96
@  #02 @040   ----------------------------------------
 .byte   W96
@  #02 @041   ----------------------------------------
 .byte   W96
@  #02 @042   ----------------------------------------
 .byte   W96
@  #02 @043   ----------------------------------------
 .byte   PATT
  .word Label_01678237
@  #02 @044   ----------------------------------------
 .byte   PATT
  .word Label_01678241
@  #02 @045   ----------------------------------------
 .byte   N96 ,Gs4 ,v100
 .byte   W96
@  #02 @046   ----------------------------------------
 .byte   As4
 .byte   W96
@  #02 @047   ----------------------------------------
 .byte   PATT
  .word Label_01678250
@  #02 @048   ----------------------------------------
 .byte   PATT
  .word Label_0167825B
@  #02 @049   ----------------------------------------
 .byte   PATT
  .word Label_01678262
@  #02 @050   ----------------------------------------
 .byte   PATT
  .word Label_0167826C
@  #02 @051   ----------------------------------------
 .byte   PATT
  .word Label_01678279
@  #02 @052   ----------------------------------------
 .byte   PATT
  .word Label_01678281
@  #02 @053   ----------------------------------------
 .byte   PATT
  .word Label_0167828E
@  #02 @054   ----------------------------------------
 .byte   PATT
  .word Label_01678299
@  #02 @055   ----------------------------------------
 .byte   PATT
  .word Label_016782A4
@  #02 @056   ----------------------------------------
 .byte   W24
 .byte   GOTO
  .word Label_01678206
 .byte   FINE

@**************** Track 3 (Midi-Chn.2) ****************@

ForwardFE5_003:
@  #03 @000   ----------------------------------------
 .byte   KEYSH , ForwardFE5_key+0
Label_01678312:
 .byte   VOICE , 60
 .byte   VOL , 60*ForwardFE5_mvl/mxv
 .byte   N12 ,Ds1 ,v100
 .byte   W12
 .byte   N30
 .byte   W36
 .byte   N30
 .byte   W36
 .byte   N12
 .byte   W12
@  #03 @001   ----------------------------------------
Label_01678320:
 .byte   N12 ,Ds1 ,v100
 .byte   W12
 .byte   N30
 .byte   W36
 .byte   N30
 .byte   W36
 .byte   N12
 .byte   W12
 .byte   PEND 
@  #03 @002   ----------------------------------------
 .byte   PATT
  .word Label_01678320
@  #03 @003   ----------------------------------------
 .byte   PATT
  .word Label_01678320
@  #03 @004   ----------------------------------------
 .byte   PATT
  .word Label_01678320
@  #03 @005   ----------------------------------------
 .byte   PATT
  .word Label_01678320
@  #03 @006   ----------------------------------------
Label_0167833F:
 .byte   N12 ,Gs1 ,v100
 .byte   W12
 .byte   N24
 .byte   W36
 .byte   N24
 .byte   W36
 .byte   N12
 .byte   W12
 .byte   PEND 
@  #03 @007   ----------------------------------------
Label_0167834A:
 .byte   N12 ,Ds1 ,v100
 .byte   W12
 .byte   N24
 .byte   W24
 .byte   N12
 .byte   W12
 .byte   N24
 .byte   W24
 .byte   Dn1
 .byte   W24
 .byte   PEND 
@  #03 @008   ----------------------------------------
Label_01678357:
 .byte   N84 ,Cn1 ,v100
 .byte   W84
 .byte   N12 ,As0
 .byte   W12
 .byte   PEND 
@  #03 @009   ----------------------------------------
Label_0167835F:
 .byte   N72 ,Gs0 ,v100
 .byte   W72
 .byte   N24 ,An0
 .byte   W24
 .byte   PEND 
@  #03 @010   ----------------------------------------
Label_01678367:
 .byte   N84 ,As0 ,v100
 .byte   W84
 .byte   N12 ,Fn1
 .byte   W12
 .byte   PEND 
@  #03 @011   ----------------------------------------
 .byte   N96 ,As1
 .byte   W96
@  #03 @012   ----------------------------------------
 .byte   PATT
  .word Label_01678320
@  #03 @013   ----------------------------------------
 .byte   PATT
  .word Label_01678320
@  #03 @014   ----------------------------------------
Label_0167837C:
 .byte   N12 ,Cn2 ,v100
 .byte   W12
 .byte   N18
 .byte   W36
 .byte   Dn2
 .byte   W36
 .byte   N12
 .byte   W12
 .byte   PEND 
@  #03 @015   ----------------------------------------
Label_01678387:
 .byte   N12 ,Ds2 ,v100
 .byte   W12
 .byte   N12
 .byte   W84
 .byte   PEND 
@  #03 @016   ----------------------------------------
 .byte   N96 ,Cn1
 .byte   W96
@  #03 @017   ----------------------------------------
 .byte   Gs0
 .byte   W96
@  #03 @018   ----------------------------------------
 .byte   As0
 .byte   W96
@  #03 @019   ----------------------------------------
Label_01678395:
 .byte   N30 ,Ds1 ,v100
 .byte   W36
 .byte   N06
 .byte   W06
 .byte   N06
 .byte   W06
 .byte   N12
 .byte   W12
 .byte   N30
 .byte   W36
 .byte   PEND 
@  #03 @020   ----------------------------------------
 .byte   N96 ,Gs0
 .byte   W96
@  #03 @021   ----------------------------------------
Label_016783A5:
 .byte   N48 ,Gn0 ,v100
 .byte   W48
 .byte   N24 ,Cn1
 .byte   W24
 .byte   As0
 .byte   W24
 .byte   PEND 
@  #03 @022   ----------------------------------------
 .byte   N96 ,Gs0
 .byte   W96
@  #03 @023   ----------------------------------------
 .byte   As0
 .byte   W96
@  #03 @024   ----------------------------------------
 .byte   Gn0
 .byte   W96
@  #03 @025   ----------------------------------------
Label_016783B6:
 .byte   N48 ,Cn1 ,v100
 .byte   W48
 .byte   N24 ,Bn0
 .byte   W24
 .byte   As0
 .byte   W24
 .byte   PEND 
@  #03 @026   ----------------------------------------
 .byte   N96 ,An0
 .byte   W96
@  #03 @027   ----------------------------------------
 .byte   As0
 .byte   W96
@  #03 @028   ----------------------------------------
 .byte   VOL , 60*ForwardFE5_mvl/mxv
 .byte   N12 ,Ds1
 .byte   W12
 .byte   N30
 .byte   W36
 .byte   N30
 .byte   W36
 .byte   N12
 .byte   W12
@  #03 @029   ----------------------------------------
 .byte   PATT
  .word Label_01678320
@  #03 @030   ----------------------------------------
 .byte   PATT
  .word Label_01678320
@  #03 @031   ----------------------------------------
 .byte   PATT
  .word Label_01678320
@  #03 @032   ----------------------------------------
 .byte   PATT
  .word Label_01678320
@  #03 @033   ----------------------------------------
 .byte   PATT
  .word Label_01678320
@  #03 @034   ----------------------------------------
 .byte   PATT
  .word Label_0167833F
@  #03 @035   ----------------------------------------
 .byte   PATT
  .word Label_0167834A
@  #03 @036   ----------------------------------------
 .byte   PATT
  .word Label_01678357
@  #03 @037   ----------------------------------------
 .byte   PATT
  .word Label_0167835F
@  #03 @038   ----------------------------------------
 .byte   PATT
  .word Label_01678367
@  #03 @039   ----------------------------------------
 .byte   N96 ,As1 ,v100
 .byte   W96
@  #03 @040   ----------------------------------------
 .byte   PATT
  .word Label_01678320
@  #03 @041   ----------------------------------------
 .byte   PATT
  .word Label_01678320
@  #03 @042   ----------------------------------------
 .byte   PATT
  .word Label_0167837C
@  #03 @043   ----------------------------------------
 .byte   PATT
  .word Label_01678387
@  #03 @044   ----------------------------------------
 .byte   N96 ,Cn1 ,v100
 .byte   W96
@  #03 @045   ----------------------------------------
 .byte   Gs0
 .byte   W96
@  #03 @046   ----------------------------------------
 .byte   As0
 .byte   W96
@  #03 @047   ----------------------------------------
 .byte   PATT
  .word Label_01678395
@  #03 @048   ----------------------------------------
 .byte   N96 ,Gs0 ,v100
 .byte   W96
@  #03 @049   ----------------------------------------
 .byte   PATT
  .word Label_016783A5
@  #03 @050   ----------------------------------------
 .byte   N96 ,Gs0 ,v100
 .byte   W96
@  #03 @051   ----------------------------------------
 .byte   As0
 .byte   W96
@  #03 @052   ----------------------------------------
 .byte   Gn0
 .byte   W96
@  #03 @053   ----------------------------------------
 .byte   PATT
  .word Label_016783B6
@  #03 @054   ----------------------------------------
 .byte   N96 ,An0 ,v100
 .byte   W96
@  #03 @055   ----------------------------------------
 .byte   As0
 .byte   W96
@  #03 @056   ----------------------------------------
 .byte   W24
 .byte   GOTO
  .word Label_01678312
 .byte   FINE

@**************** Track 4 (Midi-Chn.3) ****************@

ForwardFE5_004:
@  #04 @000   ----------------------------------------
 .byte   KEYSH , ForwardFE5_key+0
Label_0167844E:
 .byte   VOICE , 57
 .byte   VOL , 62*ForwardFE5_mvl/mxv
 .byte   N36 ,Gn2 ,v100
 .byte   W48
 .byte   Gs2
 .byte   W48
@  #04 @001   ----------------------------------------
Label_01678458:
 .byte   N36 ,As2 ,v100
 .byte   W48
 .byte   Ds3
 .byte   W48
 .byte   PEND 
@  #04 @002   ----------------------------------------
Label_0167845F:
 .byte   N36 ,Cn3 ,v100
 .byte   W48
 .byte   Gs2
 .byte   W48
 .byte   PEND 
@  #04 @003   ----------------------------------------
 .byte   N84 ,As2
 .byte   W96
@  #04 @004   ----------------------------------------
Label_01678469:
 .byte   N36 ,Gn2 ,v100
 .byte   W48
 .byte   Gs2
 .byte   W48
 .byte   PEND 
@  #04 @005   ----------------------------------------
 .byte   PATT
  .word Label_01678458
@  #04 @006   ----------------------------------------
Label_01678475:
 .byte   N60 ,Gs3 ,v100
 .byte   W72
 .byte   N24 ,Ds3
 .byte   W24
 .byte   PEND 
@  #04 @007   ----------------------------------------
Label_0167847D:
 .byte   N48 ,Ds3 ,v100
 .byte   W72
 .byte   N24 ,Dn3
 .byte   W24
 .byte   PEND 
@  #04 @008   ----------------------------------------
Label_01678485:
 .byte   N36 ,Ds3 ,v100
 .byte   W48
 .byte   Cn3
 .byte   W48
 .byte   PEND 
@  #04 @009   ----------------------------------------
Label_0167848C:
 .byte   N36 ,Cn3 ,v100
 .byte   W48
 .byte   N18 ,As2
 .byte   W24
 .byte   Gs2
 .byte   W24
 .byte   PEND 
@  #04 @010   ----------------------------------------
 .byte   N96
 .byte   W96
@  #04 @011   ----------------------------------------
 .byte   As2
 .byte   W96
@  #04 @012   ----------------------------------------
 .byte   PATT
  .word Label_01678469
@  #04 @013   ----------------------------------------
 .byte   PATT
  .word Label_01678458
@  #04 @014   ----------------------------------------
 .byte   PATT
  .word Label_0167845F
@  #04 @015   ----------------------------------------
Label_016784A9:
 .byte   N48 ,As2 ,v100
 .byte   W72
 .byte   N06
 .byte   W12
 .byte   Gs2
 .byte   W12
 .byte   PEND 
@  #04 @016   ----------------------------------------
Label_016784B2:
 .byte   N36 ,Gn2 ,v100
 .byte   W48
 .byte   Cn3
 .byte   W48
 .byte   PEND 
@  #04 @017   ----------------------------------------
Label_016784B9:
 .byte   N36 ,Gs2 ,v100
 .byte   W48
 .byte   Fn2
 .byte   W48
 .byte   PEND 
@  #04 @018   ----------------------------------------
 .byte   N84 ,Gs2
 .byte   W96
@  #04 @019   ----------------------------------------
 .byte   Gn2
 .byte   W96
@  #04 @020   ----------------------------------------
Label_016784C5:
 .byte   N36 ,Gs2 ,v100
 .byte   W48
 .byte   Ds3
 .byte   W48
 .byte   PEND 
@  #04 @021   ----------------------------------------
Label_016784CC:
 .byte   N12 ,Dn3 ,v100
 .byte   W24
 .byte   Bn2
 .byte   W24
 .byte   N36 ,Cn3
 .byte   W48
 .byte   PEND 
@  #04 @022   ----------------------------------------
Label_016784D6:
 .byte   N36 ,Cn3 ,v100
 .byte   W48
 .byte   N12 ,Gs2
 .byte   W24
 .byte   N06 ,As2
 .byte   W12
 .byte   Cn3
 .byte   W12
 .byte   PEND 
@  #04 @023   ----------------------------------------
Label_016784E3:
 .byte   N36 ,Cn3 ,v100
 .byte   W48
 .byte   As2
 .byte   W48
 .byte   PEND 
@  #04 @024   ----------------------------------------
Label_016784EA:
 .byte   N36 ,Bn2 ,v100
 .byte   W48
 .byte   N18 ,Dn3
 .byte   W24
 .byte   N06 ,Bn2
 .byte   W12
 .byte   Dn3
 .byte   W12
 .byte   PEND 
@  #04 @025   ----------------------------------------
Label_016784F7:
 .byte   N42 ,Cn3 ,v100
 .byte   W48
 .byte   N18 ,Bn2
 .byte   W24
 .byte   Gn2
 .byte   W24
 .byte   PEND 
@  #04 @026   ----------------------------------------
Label_01678501:
 .byte   N36 ,Cn3 ,v100
 .byte   W48
 .byte   N30 ,An2
 .byte   W36
 .byte   N06 ,As2
 .byte   W12
 .byte   PEND 
@  #04 @027   ----------------------------------------
Label_0167850C:
 .byte   N36 ,As2 ,v100
 .byte   W48
 .byte   N36
 .byte   W48
 .byte   PEND 
@  #04 @028   ----------------------------------------
 .byte   VOL , 62*ForwardFE5_mvl/mxv
 .byte   N36 ,Gn2
 .byte   W48
 .byte   Gs2
 .byte   W48
@  #04 @029   ----------------------------------------
 .byte   PATT
  .word Label_01678458
@  #04 @030   ----------------------------------------
 .byte   PATT
  .word Label_0167845F
@  #04 @031   ----------------------------------------
 .byte   N84 ,As2 ,v100
 .byte   W96
@  #04 @032   ----------------------------------------
 .byte   PATT
  .word Label_01678469
@  #04 @033   ----------------------------------------
 .byte   PATT
  .word Label_01678458
@  #04 @034   ----------------------------------------
 .byte   PATT
  .word Label_01678475
@  #04 @035   ----------------------------------------
 .byte   PATT
  .word Label_0167847D
@  #04 @036   ----------------------------------------
 .byte   PATT
  .word Label_01678485
@  #04 @037   ----------------------------------------
 .byte   PATT
  .word Label_0167848C
@  #04 @038   ----------------------------------------
 .byte   N96 ,Gs2 ,v100
 .byte   W96
@  #04 @039   ----------------------------------------
 .byte   As2
 .byte   W96
@  #04 @040   ----------------------------------------
 .byte   PATT
  .word Label_01678469
@  #04 @041   ----------------------------------------
 .byte   PATT
  .word Label_01678458
@  #04 @042   ----------------------------------------
 .byte   PATT
  .word Label_0167845F
@  #04 @043   ----------------------------------------
 .byte   PATT
  .word Label_016784A9
@  #04 @044   ----------------------------------------
 .byte   PATT
  .word Label_016784B2
@  #04 @045   ----------------------------------------
 .byte   PATT
  .word Label_016784B9
@  #04 @046   ----------------------------------------
 .byte   N84 ,Gs2 ,v100
 .byte   W96
@  #04 @047   ----------------------------------------
 .byte   Gn2
 .byte   W96
@  #04 @048   ----------------------------------------
 .byte   PATT
  .word Label_016784C5
@  #04 @049   ----------------------------------------
 .byte   PATT
  .word Label_016784CC
@  #04 @050   ----------------------------------------
 .byte   PATT
  .word Label_016784D6
@  #04 @051   ----------------------------------------
 .byte   PATT
  .word Label_016784E3
@  #04 @052   ----------------------------------------
 .byte   PATT
  .word Label_016784EA
@  #04 @053   ----------------------------------------
 .byte   PATT
  .word Label_016784F7
@  #04 @054   ----------------------------------------
 .byte   PATT
  .word Label_01678501
@  #04 @055   ----------------------------------------
 .byte   PATT
  .word Label_0167850C
@  #04 @056   ----------------------------------------
 .byte   W24
 .byte   GOTO
  .word Label_0167844E
 .byte   FINE

@**************** Track 5 (Midi-Chn.4) ****************@

ForwardFE5_005:
@  #05 @000   ----------------------------------------
 .byte   KEYSH , ForwardFE5_key+0
Label_016785A2:
 .byte   VOICE , 42
 .byte   VOL , 44*ForwardFE5_mvl/mxv
 .byte   W96
@  #05 @001   ----------------------------------------
 .byte   W96
@  #05 @002   ----------------------------------------
 .byte   W96
@  #05 @003   ----------------------------------------
 .byte   W96
@  #05 @004   ----------------------------------------
 .byte   W96
@  #05 @005   ----------------------------------------
 .byte   W96
@  #05 @006   ----------------------------------------
 .byte   W96
@  #05 @007   ----------------------------------------
 .byte   W96
@  #05 @008   ----------------------------------------
 .byte   W96
@  #05 @009   ----------------------------------------
 .byte   W96
@  #05 @010   ----------------------------------------
 .byte   W96
@  #05 @011   ----------------------------------------
 .byte   W96
@  #05 @012   ----------------------------------------
 .byte   W96
@  #05 @013   ----------------------------------------
 .byte   W96
@  #05 @014   ----------------------------------------
 .byte   W96
@  #05 @015   ----------------------------------------
 .byte   W96
@  #05 @016   ----------------------------------------
 .byte   W96
@  #05 @017   ----------------------------------------
 .byte   W96
@  #05 @018   ----------------------------------------
 .byte   W96
@  #05 @019   ----------------------------------------
 .byte   W96
@  #05 @020   ----------------------------------------
Label_016785BA:
 .byte   N42 ,Cn5 ,v100
 .byte   W48
 .byte   Gs5
 .byte   W48
 .byte   PEND 
@  #05 @021   ----------------------------------------
Label_016785C1:
 .byte   N18 ,Gn5 ,v100
 .byte   W24
 .byte   Dn5
 .byte   W24
 .byte   N42 ,Ds5
 .byte   W48
 .byte   PEND 
@  #05 @022   ----------------------------------------
Label_016785CB:
 .byte   N42 ,Fn5 ,v100
 .byte   W48
 .byte   N18 ,Cn5
 .byte   W24
 .byte   N06 ,Dn5
 .byte   W12
 .byte   Ds5
 .byte   W12
 .byte   PEND 
@  #05 @023   ----------------------------------------
Label_016785D8:
 .byte   N42 ,Ds5 ,v100
 .byte   W48
 .byte   N36 ,Dn5
 .byte   W48
 .byte   PEND 
@  #05 @024   ----------------------------------------
Label_016785E0:
 .byte   N42 ,Dn5 ,v100
 .byte   W48
 .byte   N18 ,Gn5
 .byte   W24
 .byte   N06 ,Dn5
 .byte   W12
 .byte   Fn5
 .byte   W12
 .byte   PEND 
@  #05 @025   ----------------------------------------
Label_016785ED:
 .byte   N18 ,Fn5 ,v100
 .byte   W24
 .byte   Ds5
 .byte   W24
 .byte   Dn5
 .byte   W24
 .byte   Cn5
 .byte   W24
 .byte   PEND 
@  #05 @026   ----------------------------------------
Label_016785F8:
 .byte   N42 ,Fn5 ,v100
 .byte   W48
 .byte   N30 ,Cn5
 .byte   W36
 .byte   N06 ,Dn5
 .byte   W12
 .byte   PEND 
@  #05 @027   ----------------------------------------
Label_01678603:
 .byte   N42 ,Ds5 ,v100
 .byte   W48
 .byte   Dn5
 .byte   W48
 .byte   PEND 
@  #05 @028   ----------------------------------------
 .byte   W96
@  #05 @029   ----------------------------------------
 .byte   W96
@  #05 @030   ----------------------------------------
 .byte   W96
@  #05 @031   ----------------------------------------
 .byte   W96
@  #05 @032   ----------------------------------------
 .byte   W96
@  #05 @033   ----------------------------------------
 .byte   W96
@  #05 @034   ----------------------------------------
 .byte   W96
@  #05 @035   ----------------------------------------
 .byte   W96
@  #05 @036   ----------------------------------------
 .byte   W96
@  #05 @037   ----------------------------------------
 .byte   W96
@  #05 @038   ----------------------------------------
 .byte   W96
@  #05 @039   ----------------------------------------
 .byte   W96
@  #05 @040   ----------------------------------------
 .byte   W96
@  #05 @041   ----------------------------------------
 .byte   W96
@  #05 @042   ----------------------------------------
 .byte   W96
@  #05 @043   ----------------------------------------
 .byte   W96
@  #05 @044   ----------------------------------------
 .byte   W96
@  #05 @045   ----------------------------------------
 .byte   W96
@  #05 @046   ----------------------------------------
 .byte   W96
@  #05 @047   ----------------------------------------
 .byte   W96
@  #05 @048   ----------------------------------------
 .byte   PATT
  .word Label_016785BA
@  #05 @049   ----------------------------------------
 .byte   PATT
  .word Label_016785C1
@  #05 @050   ----------------------------------------
 .byte   PATT
  .word Label_016785CB
@  #05 @051   ----------------------------------------
 .byte   PATT
  .word Label_016785D8
@  #05 @052   ----------------------------------------
 .byte   PATT
  .word Label_016785E0
@  #05 @053   ----------------------------------------
 .byte   PATT
  .word Label_016785ED
@  #05 @054   ----------------------------------------
 .byte   PATT
  .word Label_016785F8
@  #05 @055   ----------------------------------------
 .byte   PATT
  .word Label_01678603
@  #05 @056   ----------------------------------------
 .byte   W24
 .byte   GOTO
  .word Label_016785A2
 .byte   FINE

@**************** Track 6 (Midi-Chn.5) ****************@

ForwardFE5_006:
@  #06 @000   ----------------------------------------
 .byte   KEYSH , ForwardFE5_key+0
Label_01678652:
 .byte   VOICE , 60
 .byte   VOL , 66*ForwardFE5_mvl/mxv
 .byte   N12 ,As1 ,v100
 .byte   W12
 .byte   N24
 .byte   W36
 .byte   N24
 .byte   W36
 .byte   N12
 .byte   W12
@  #06 @001   ----------------------------------------
Label_01678660:
 .byte   N12 ,As1 ,v100
 .byte   W12
 .byte   N24
 .byte   W36
 .byte   N24
 .byte   W36
 .byte   N12
 .byte   W12
 .byte   PEND 
@  #06 @002   ----------------------------------------
 .byte   PATT
  .word Label_01678660
@  #06 @003   ----------------------------------------
 .byte   PATT
  .word Label_01678660
@  #06 @004   ----------------------------------------
 .byte   PATT
  .word Label_01678660
@  #06 @005   ----------------------------------------
 .byte   PATT
  .word Label_01678660
@  #06 @006   ----------------------------------------
Label_0167867F:
 .byte   N12 ,Ds2 ,v100
 .byte   W12
 .byte   N24
 .byte   W36
 .byte   N24
 .byte   W36
 .byte   N12
 .byte   W12
 .byte   PEND 
@  #06 @007   ----------------------------------------
Label_0167868A:
 .byte   N12 ,As1 ,v100
 .byte   W12
 .byte   N24
 .byte   W24
 .byte   N12
 .byte   W12
 .byte   N24
 .byte   W24
 .byte   N24
 .byte   W24
 .byte   PEND 
@  #06 @008   ----------------------------------------
 .byte   W96
@  #06 @009   ----------------------------------------
 .byte   W96
@  #06 @010   ----------------------------------------
 .byte   W96
@  #06 @011   ----------------------------------------
 .byte   W96
@  #06 @012   ----------------------------------------
 .byte   PATT
  .word Label_01678660
@  #06 @013   ----------------------------------------
 .byte   PATT
  .word Label_01678660
@  #06 @014   ----------------------------------------
Label_016786A5:
 .byte   N12 ,Gn1 ,v100
 .byte   W12
 .byte   N24
 .byte   W36
 .byte   An1
 .byte   W36
 .byte   N12
 .byte   W12
 .byte   PEND 
@  #06 @015   ----------------------------------------
Label_016786B0:
 .byte   N12 ,As1 ,v100
 .byte   W12
 .byte   N24
 .byte   W36
 .byte   N24
 .byte   W24
 .byte   An1
 .byte   W24
 .byte   PEND 
@  #06 @016   ----------------------------------------
 .byte   W96
@  #06 @017   ----------------------------------------
 .byte   W96
@  #06 @018   ----------------------------------------
 .byte   W96
@  #06 @019   ----------------------------------------
 .byte   W96
@  #06 @020   ----------------------------------------
 .byte   W96
@  #06 @021   ----------------------------------------
 .byte   W96
@  #06 @022   ----------------------------------------
 .byte   W96
@  #06 @023   ----------------------------------------
 .byte   W96
@  #06 @024   ----------------------------------------
 .byte   W96
@  #06 @025   ----------------------------------------
 .byte   W96
@  #06 @026   ----------------------------------------
 .byte   W96
@  #06 @027   ----------------------------------------
 .byte   W96
@  #06 @028   ----------------------------------------
 .byte   PATT
  .word Label_01678660
@  #06 @029   ----------------------------------------
 .byte   PATT
  .word Label_01678660
@  #06 @030   ----------------------------------------
 .byte   PATT
  .word Label_01678660
@  #06 @031   ----------------------------------------
 .byte   PATT
  .word Label_01678660
@  #06 @032   ----------------------------------------
 .byte   PATT
  .word Label_01678660
@  #06 @033   ----------------------------------------
 .byte   PATT
  .word Label_01678660
@  #06 @034   ----------------------------------------
 .byte   PATT
  .word Label_0167867F
@  #06 @035   ----------------------------------------
 .byte   PATT
  .word Label_0167868A
@  #06 @036   ----------------------------------------
 .byte   W96
@  #06 @037   ----------------------------------------
 .byte   W96
@  #06 @038   ----------------------------------------
 .byte   W96
@  #06 @039   ----------------------------------------
 .byte   W96
@  #06 @040   ----------------------------------------
 .byte   PATT
  .word Label_01678660
@  #06 @041   ----------------------------------------
 .byte   PATT
  .word Label_01678660
@  #06 @042   ----------------------------------------
 .byte   PATT
  .word Label_016786A5
@  #06 @043   ----------------------------------------
 .byte   PATT
  .word Label_016786B0
@  #06 @044   ----------------------------------------
 .byte   W96
@  #06 @045   ----------------------------------------
 .byte   W96
@  #06 @046   ----------------------------------------
 .byte   W96
@  #06 @047   ----------------------------------------
 .byte   W96
@  #06 @048   ----------------------------------------
 .byte   W96
@  #06 @049   ----------------------------------------
 .byte   W96
@  #06 @050   ----------------------------------------
 .byte   W96
@  #06 @051   ----------------------------------------
 .byte   W96
@  #06 @052   ----------------------------------------
 .byte   W96
@  #06 @053   ----------------------------------------
 .byte   W96
@  #06 @054   ----------------------------------------
 .byte   W96
@  #06 @055   ----------------------------------------
 .byte   W96
@  #06 @056   ----------------------------------------
 .byte   W24
 .byte   GOTO
  .word Label_01678652
 .byte   FINE

@**************** Track 7 (Midi-Chn.6) ****************@

ForwardFE5_007:
@  #07 @000   ----------------------------------------
 .byte   KEYSH , ForwardFE5_key+0
Label_0167871E:
 .byte   VOICE , 57
 .byte   VOL , 62*ForwardFE5_mvl/mxv
 .byte   N36 ,Ds2 ,v100
 .byte   W48
 .byte   Fn2
 .byte   W48
@  #07 @001   ----------------------------------------
Label_01678728:
 .byte   N36 ,Gn2 ,v100
 .byte   W48
 .byte   As2
 .byte   W48
 .byte   PEND 
@  #07 @002   ----------------------------------------
Label_0167872F:
 .byte   N36 ,Gs2 ,v100
 .byte   W48
 .byte   Fn2
 .byte   W48
 .byte   PEND 
@  #07 @003   ----------------------------------------
 .byte   N84 ,Gn2
 .byte   W96
@  #07 @004   ----------------------------------------
Label_01678739:
 .byte   VOL , 62*ForwardFE5_mvl/mxv
 .byte   N36 ,Ds2 ,v100
 .byte   W48
 .byte   Fn2
 .byte   W48
 .byte   PEND 
@  #07 @005   ----------------------------------------
 .byte   PATT
  .word Label_01678728
@  #07 @006   ----------------------------------------
Label_01678747:
 .byte   N60 ,Cn3 ,v100
 .byte   W72
 .byte   N24 ,As2
 .byte   W24
 .byte   PEND 
@  #07 @007   ----------------------------------------
Label_0167874F:
 .byte   N48 ,As2 ,v100
 .byte   W72
 .byte   N24 ,Fn2
 .byte   W24
 .byte   PEND 
@  #07 @008   ----------------------------------------
Label_01678757:
 .byte   N36 ,Gs2 ,v100
 .byte   W48
 .byte   Ds2
 .byte   W48
 .byte   PEND 
@  #07 @009   ----------------------------------------
Label_0167875E:
 .byte   N36 ,Ds2 ,v100
 .byte   W48
 .byte   N18 ,Dn2
 .byte   W24
 .byte   Cn2
 .byte   W24
 .byte   PEND 
@  #07 @010   ----------------------------------------
 .byte   TIE ,Fn2
 .byte   W96
@  #07 @011   ----------------------------------------
 .byte   W84
 .byte   EOT
 .byte   W12
@  #07 @012   ----------------------------------------
 .byte   PATT
  .word Label_01678739
@  #07 @013   ----------------------------------------
 .byte   PATT
  .word Label_01678728
@  #07 @014   ----------------------------------------
 .byte   PATT
  .word Label_0167872F
@  #07 @015   ----------------------------------------
Label_0167877D:
 .byte   N48 ,Gn2 ,v100
 .byte   W72
 .byte   N06
 .byte   W12
 .byte   Fn2
 .byte   W12
 .byte   PEND 
@  #07 @016   ----------------------------------------
Label_01678786:
 .byte   N36 ,Ds2 ,v100
 .byte   W48
 .byte   Gs2
 .byte   W48
 .byte   PEND 
@  #07 @017   ----------------------------------------
Label_0167878D:
 .byte   VOL , 62*ForwardFE5_mvl/mxv
 .byte   N36 ,Fn2 ,v100
 .byte   W48
 .byte   Dn2
 .byte   W48
 .byte   PEND 
@  #07 @018   ----------------------------------------
 .byte   N84 ,Fn2
 .byte   W96
@  #07 @019   ----------------------------------------
 .byte   Ds2
 .byte   W96
@  #07 @020   ----------------------------------------
Label_0167879B:
 .byte   N36 ,Ds2 ,v100
 .byte   W48
 .byte   Cn3
 .byte   W48
 .byte   PEND 
@  #07 @021   ----------------------------------------
Label_016787A2:
 .byte   N12 ,Bn2 ,v100
 .byte   W24
 .byte   Gn2
 .byte   W24
 .byte   N36
 .byte   W48
 .byte   PEND 
@  #07 @022   ----------------------------------------
Label_016787AB:
 .byte   N36 ,Gs2 ,v100
 .byte   W48
 .byte   N12 ,Cn2
 .byte   W24
 .byte   N06 ,Dn2
 .byte   W12
 .byte   Ds2
 .byte   W12
 .byte   PEND 
@  #07 @023   ----------------------------------------
 .byte   PATT
  .word Label_0167872F
@  #07 @024   ----------------------------------------
Label_016787BD:
 .byte   N36 ,Gn2 ,v100
 .byte   W48
 .byte   N18
 .byte   W24
 .byte   N06
 .byte   W12
 .byte   N06
 .byte   W12
 .byte   PEND 
@  #07 @025   ----------------------------------------
Label_016787C8:
 .byte   N42 ,Gn2 ,v100
 .byte   W48
 .byte   N18
 .byte   W24
 .byte   Ds2
 .byte   W24
 .byte   PEND 
@  #07 @026   ----------------------------------------
Label_016787D1:
 .byte   N36 ,An2 ,v100
 .byte   W48
 .byte   N30 ,Fn2
 .byte   W36
 .byte   N06
 .byte   W12
 .byte   PEND 
@  #07 @027   ----------------------------------------
Label_016787DB:
 .byte   N36 ,Ds2 ,v100
 .byte   W48
 .byte   Fn2
 .byte   W48
 .byte   PEND 
@  #07 @028   ----------------------------------------
 .byte   PATT
  .word Label_01678739
@  #07 @029   ----------------------------------------
 .byte   PATT
  .word Label_01678728
@  #07 @030   ----------------------------------------
 .byte   PATT
  .word Label_0167872F
@  #07 @031   ----------------------------------------
 .byte   N84 ,Gn2 ,v100
 .byte   W96
@  #07 @032   ----------------------------------------
 .byte   PATT
  .word Label_01678739
@  #07 @033   ----------------------------------------
 .byte   PATT
  .word Label_01678728
@  #07 @034   ----------------------------------------
 .byte   PATT
  .word Label_01678747
@  #07 @035   ----------------------------------------
 .byte   PATT
  .word Label_0167874F
@  #07 @036   ----------------------------------------
 .byte   PATT
  .word Label_01678757
@  #07 @037   ----------------------------------------
 .byte   PATT
  .word Label_0167875E
@  #07 @038   ----------------------------------------
 .byte   TIE ,Fn2 ,v100
 .byte   W96
@  #07 @039   ----------------------------------------
 .byte   W84
 .byte   EOT
 .byte   W12
@  #07 @040   ----------------------------------------
 .byte   PATT
  .word Label_01678739
@  #07 @041   ----------------------------------------
 .byte   PATT
  .word Label_01678728
@  #07 @042   ----------------------------------------
 .byte   PATT
  .word Label_0167872F
@  #07 @043   ----------------------------------------
 .byte   PATT
  .word Label_0167877D
@  #07 @044   ----------------------------------------
 .byte   PATT
  .word Label_01678786
@  #07 @045   ----------------------------------------
 .byte   PATT
  .word Label_0167878D
@  #07 @046   ----------------------------------------
 .byte   N84 ,Fn2 ,v100
 .byte   W96
@  #07 @047   ----------------------------------------
 .byte   Ds2
 .byte   W96
@  #07 @048   ----------------------------------------
 .byte   PATT
  .word Label_0167879B
@  #07 @049   ----------------------------------------
 .byte   PATT
  .word Label_016787A2
@  #07 @050   ----------------------------------------
 .byte   PATT
  .word Label_016787AB
@  #07 @051   ----------------------------------------
 .byte   PATT
  .word Label_0167872F
@  #07 @052   ----------------------------------------
 .byte   PATT
  .word Label_016787BD
@  #07 @053   ----------------------------------------
 .byte   PATT
  .word Label_016787C8
@  #07 @054   ----------------------------------------
 .byte   PATT
  .word Label_016787D1
@  #07 @055   ----------------------------------------
 .byte   PATT
  .word Label_016787DB
@  #07 @056   ----------------------------------------
 .byte   W24
 .byte   GOTO
  .word Label_0167871E
 .byte   FINE

@**************** Track 8 (Midi-Chn.7) ****************@

ForwardFE5_008:
@  #08 @000   ----------------------------------------
 .byte   KEYSH , ForwardFE5_key+0
Label_01678872:
 .byte   VOICE , 42
 .byte   VOL , 55*ForwardFE5_mvl/mxv
 .byte   N12 ,Ds2 ,v100
 .byte   W12
 .byte   N24
 .byte   W36
 .byte   N24
 .byte   W36
 .byte   N12
 .byte   W12
@  #08 @001   ----------------------------------------
Label_01678880:
 .byte   N12 ,Ds2 ,v100
 .byte   W12
 .byte   N24
 .byte   W36
 .byte   N24
 .byte   W36
 .byte   N12
 .byte   W12
 .byte   PEND 
@  #08 @002   ----------------------------------------
 .byte   PATT
  .word Label_01678880
@  #08 @003   ----------------------------------------
 .byte   PATT
  .word Label_01678880
@  #08 @004   ----------------------------------------
 .byte   PATT
  .word Label_01678880
@  #08 @005   ----------------------------------------
 .byte   PATT
  .word Label_01678880
@  #08 @006   ----------------------------------------
Label_0167889F:
 .byte   N12 ,Gs2 ,v100
 .byte   W12
 .byte   N24
 .byte   W36
 .byte   N24
 .byte   W36
 .byte   N12
 .byte   W12
 .byte   PEND 
@  #08 @007   ----------------------------------------
Label_016788AA:
 .byte   N12 ,Ds2 ,v100
 .byte   W12
 .byte   N24
 .byte   W24
 .byte   N12
 .byte   W12
 .byte   N24
 .byte   W24
 .byte   Dn2
 .byte   W24
 .byte   PEND 
@  #08 @008   ----------------------------------------
Label_016788B7:
 .byte   N84 ,Cn2 ,v100
 .byte   W84
 .byte   N12 ,As1
 .byte   W12
 .byte   PEND 
@  #08 @009   ----------------------------------------
Label_016788BF:
 .byte   N72 ,Gs1 ,v100
 .byte   W72
 .byte   N24 ,An1
 .byte   W24
 .byte   PEND 
@  #08 @010   ----------------------------------------
Label_016788C7:
 .byte   N84 ,As1 ,v100
 .byte   W84
 .byte   N12 ,Fn2
 .byte   W12
 .byte   PEND 
@  #08 @011   ----------------------------------------
 .byte   N96 ,As2
 .byte   W96
@  #08 @012   ----------------------------------------
 .byte   PATT
  .word Label_01678880
@  #08 @013   ----------------------------------------
 .byte   PATT
  .word Label_01678880
@  #08 @014   ----------------------------------------
Label_016788DC:
 .byte   N12 ,Cn2 ,v100
 .byte   W12
 .byte   N24
 .byte   W36
 .byte   Dn2
 .byte   W36
 .byte   N12
 .byte   W12
 .byte   PEND 
@  #08 @015   ----------------------------------------
Label_016788E7:
 .byte   N12 ,Ds2 ,v100
 .byte   W12
 .byte   N24
 .byte   W36
 .byte   N24
 .byte   W24
 .byte   Dn2
 .byte   W24
 .byte   PEND 
@  #08 @016   ----------------------------------------
 .byte   N96 ,Cn2
 .byte   W96
@  #08 @017   ----------------------------------------
 .byte   Gs1
 .byte   W96
@  #08 @018   ----------------------------------------
 .byte   As1
 .byte   W96
@  #08 @019   ----------------------------------------
Label_016788F9:
 .byte   N24 ,Ds2 ,v100
 .byte   W36
 .byte   N06
 .byte   W06
 .byte   N06
 .byte   W06
 .byte   N12
 .byte   W12
 .byte   N24
 .byte   W36
 .byte   PEND 
@  #08 @020   ----------------------------------------
 .byte   N96 ,Gs1
 .byte   W96
@  #08 @021   ----------------------------------------
Label_01678909:
 .byte   N48 ,Gn1 ,v100
 .byte   W48
 .byte   N24 ,Cn2
 .byte   W24
 .byte   As1
 .byte   W24
 .byte   PEND 
@  #08 @022   ----------------------------------------
 .byte   N96 ,Gs1
 .byte   W96
@  #08 @023   ----------------------------------------
 .byte   As1
 .byte   W96
@  #08 @024   ----------------------------------------
 .byte   Gn1
 .byte   W96
@  #08 @025   ----------------------------------------
Label_0167891A:
 .byte   N48 ,Cn2 ,v100
 .byte   W48
 .byte   N24 ,Bn1
 .byte   W24
 .byte   As1
 .byte   W24
 .byte   PEND 
@  #08 @026   ----------------------------------------
 .byte   N96 ,An1
 .byte   W96
@  #08 @027   ----------------------------------------
 .byte   As1
 .byte   W96
@  #08 @028   ----------------------------------------
 .byte   PATT
  .word Label_01678880
@  #08 @029   ----------------------------------------
 .byte   PATT
  .word Label_01678880
@  #08 @030   ----------------------------------------
 .byte   PATT
  .word Label_01678880
@  #08 @031   ----------------------------------------
 .byte   PATT
  .word Label_01678880
@  #08 @032   ----------------------------------------
 .byte   PATT
  .word Label_01678880
@  #08 @033   ----------------------------------------
 .byte   PATT
  .word Label_01678880
@  #08 @034   ----------------------------------------
 .byte   PATT
  .word Label_0167889F
@  #08 @035   ----------------------------------------
 .byte   PATT
  .word Label_016788AA
@  #08 @036   ----------------------------------------
 .byte   PATT
  .word Label_016788B7
@  #08 @037   ----------------------------------------
 .byte   PATT
  .word Label_016788BF
@  #08 @038   ----------------------------------------
 .byte   PATT
  .word Label_016788C7
@  #08 @039   ----------------------------------------
 .byte   N96 ,As2 ,v100
 .byte   W96
@  #08 @040   ----------------------------------------
 .byte   PATT
  .word Label_01678880
@  #08 @041   ----------------------------------------
 .byte   PATT
  .word Label_01678880
@  #08 @042   ----------------------------------------
 .byte   PATT
  .word Label_016788DC
@  #08 @043   ----------------------------------------
 .byte   PATT
  .word Label_016788E7
@  #08 @044   ----------------------------------------
 .byte   N96 ,Cn2 ,v100
 .byte   W96
@  #08 @045   ----------------------------------------
 .byte   Gs1
 .byte   W96
@  #08 @046   ----------------------------------------
 .byte   As1
 .byte   W96
@  #08 @047   ----------------------------------------
 .byte   PATT
  .word Label_016788F9
@  #08 @048   ----------------------------------------
 .byte   N96 ,Gs1 ,v100
 .byte   W96
@  #08 @049   ----------------------------------------
 .byte   PATT
  .word Label_01678909
@  #08 @050   ----------------------------------------
 .byte   N96 ,Gs1 ,v100
 .byte   W96
@  #08 @051   ----------------------------------------
 .byte   As1
 .byte   W96
@  #08 @052   ----------------------------------------
 .byte   Gn1
 .byte   W96
@  #08 @053   ----------------------------------------
 .byte   PATT
  .word Label_0167891A
@  #08 @054   ----------------------------------------
 .byte   N96 ,An1 ,v100
 .byte   W96
@  #08 @055   ----------------------------------------
 .byte   As1
 .byte   W96
@  #08 @056   ----------------------------------------
 .byte   W24
 .byte   GOTO
  .word Label_01678872
 .byte   FINE

@**************** Track 9 (Midi-Chn.8) ****************@

ForwardFE5_009:
@  #09 @000   ----------------------------------------
 .byte   KEYSH , ForwardFE5_key+0
Label_016789AA:
 .byte   VOICE , 124
 .byte   VOL , 47*ForwardFE5_mvl/mxv
 .byte   N06 ,Gn2 ,v060
 .byte   N06 ,An2 ,v108
 .byte   W48
 .byte   Dn1 ,v100
 .byte   N06 ,En1 ,v076
 .byte   W12
 .byte   Dn1 ,v100
 .byte   N06 ,En1 ,v076
 .byte   W36
@  #09 @001   ----------------------------------------
Label_016789C1:
 .byte   N06 ,Dn1 ,v100
 .byte   N06 ,En1 ,v076
 .byte   W36
 .byte   Dn1 ,v100
 .byte   N06 ,En1 ,v076
 .byte   W06
 .byte   Dn1 ,v100
 .byte   N06 ,En1 ,v076
 .byte   W06
 .byte   Dn1 ,v100
 .byte   N06 ,En1 ,v076
 .byte   W12
 .byte   Dn1 ,v100
 .byte   N06 ,En1 ,v076
 .byte   W36
 .byte   PEND 
@  #09 @002   ----------------------------------------
Label_016789E1:
 .byte   N06 ,Dn1 ,v100
 .byte   N06 ,En1 ,v076
 .byte   W48
 .byte   Dn1 ,v100
 .byte   N06 ,En1 ,v076
 .byte   W12
 .byte   Dn1 ,v100
 .byte   N06 ,En1 ,v076
 .byte   W36
 .byte   PEND 
@  #09 @003   ----------------------------------------
Label_016789F5:
 .byte   N06 ,Dn1 ,v100
 .byte   N06 ,En1 ,v076
 .byte   W36
 .byte   Dn1 ,v100
 .byte   N06 ,En1 ,v076
 .byte   W06
 .byte   Dn1 ,v100
 .byte   N06 ,En1 ,v076
 .byte   W06
 .byte   Dn1 ,v100
 .byte   N06 ,En1 ,v076
 .byte   W12
 .byte   Dn1 ,v100
 .byte   N06 ,En1 ,v076
 .byte   W24
 .byte   Dn1 ,v100
 .byte   N06 ,En1 ,v076
 .byte   W06
 .byte   Dn1 ,v100
 .byte   N06 ,En1 ,v076
 .byte   W06
 .byte   PEND 
@  #09 @004   ----------------------------------------
 .byte   PATT
  .word Label_016789E1
@  #09 @005   ----------------------------------------
 .byte   PATT
  .word Label_016789C1
@  #09 @006   ----------------------------------------
 .byte   PATT
  .word Label_016789E1
@  #09 @007   ----------------------------------------
 .byte   PATT
  .word Label_016789F5
@  #09 @008   ----------------------------------------
 .byte   PATT
  .word Label_016789E1
@  #09 @009   ----------------------------------------
 .byte   PATT
  .word Label_016789C1
@  #09 @010   ----------------------------------------
 .byte   PATT
  .word Label_016789E1
@  #09 @011   ----------------------------------------
 .byte   PATT
  .word Label_016789F5
@  #09 @012   ----------------------------------------
 .byte   PATT
  .word Label_016789E1
@  #09 @013   ----------------------------------------
 .byte   PATT
  .word Label_016789C1
@  #09 @014   ----------------------------------------
 .byte   PATT
  .word Label_016789E1
@  #09 @015   ----------------------------------------
 .byte   PATT
  .word Label_016789F5
@  #09 @016   ----------------------------------------
 .byte   PATT
  .word Label_016789E1
@  #09 @017   ----------------------------------------
 .byte   PATT
  .word Label_016789C1
@  #09 @018   ----------------------------------------
 .byte   PATT
  .word Label_016789E1
@  #09 @019   ----------------------------------------
 .byte   PATT
  .word Label_016789F5
@  #09 @020   ----------------------------------------
 .byte   PATT
  .word Label_016789E1
@  #09 @021   ----------------------------------------
 .byte   PATT
  .word Label_016789C1
@  #09 @022   ----------------------------------------
 .byte   PATT
  .word Label_016789E1
@  #09 @023   ----------------------------------------
 .byte   PATT
  .word Label_016789F5
@  #09 @024   ----------------------------------------
 .byte   PATT
  .word Label_016789E1
@  #09 @025   ----------------------------------------
 .byte   PATT
  .word Label_016789C1
@  #09 @026   ----------------------------------------
 .byte   PATT
  .word Label_016789E1
@  #09 @027   ----------------------------------------
 .byte   PATT
  .word Label_016789F5
@  #09 @028   ----------------------------------------
 .byte   N06 ,Gn2 ,v060
 .byte   N06 ,An2 ,v108
 .byte   W48
 .byte   Dn1 ,v100
 .byte   N06 ,En1 ,v076
 .byte   W12
 .byte   Dn1 ,v100
 .byte   N06 ,En1 ,v076
 .byte   W36
@  #09 @029   ----------------------------------------
 .byte   PATT
  .word Label_016789C1
@  #09 @030   ----------------------------------------
 .byte   PATT
  .word Label_016789E1
@  #09 @031   ----------------------------------------
 .byte   PATT
  .word Label_016789F5
@  #09 @032   ----------------------------------------
 .byte   PATT
  .word Label_016789E1
@  #09 @033   ----------------------------------------
 .byte   PATT
  .word Label_016789C1
@  #09 @034   ----------------------------------------
 .byte   PATT
  .word Label_016789E1
@  #09 @035   ----------------------------------------
 .byte   PATT
  .word Label_016789F5
@  #09 @036   ----------------------------------------
 .byte   PATT
  .word Label_016789E1
@  #09 @037   ----------------------------------------
 .byte   PATT
  .word Label_016789C1
@  #09 @038   ----------------------------------------
 .byte   PATT
  .word Label_016789E1
@  #09 @039   ----------------------------------------
 .byte   PATT
  .word Label_016789F5
@  #09 @040   ----------------------------------------
 .byte   PATT
  .word Label_016789E1
@  #09 @041   ----------------------------------------
 .byte   PATT
  .word Label_016789C1
@  #09 @042   ----------------------------------------
 .byte   PATT
  .word Label_016789E1
@  #09 @043   ----------------------------------------
 .byte   PATT
  .word Label_016789F5
@  #09 @044   ----------------------------------------
 .byte   PATT
  .word Label_016789E1
@  #09 @045   ----------------------------------------
 .byte   PATT
  .word Label_016789C1
@  #09 @046   ----------------------------------------
 .byte   PATT
  .word Label_016789E1
@  #09 @047   ----------------------------------------
 .byte   PATT
  .word Label_016789F5
@  #09 @048   ----------------------------------------
 .byte   PATT
  .word Label_016789E1
@  #09 @049   ----------------------------------------
 .byte   PATT
  .word Label_016789C1
@  #09 @050   ----------------------------------------
 .byte   PATT
  .word Label_016789E1
@  #09 @051   ----------------------------------------
 .byte   PATT
  .word Label_016789F5
@  #09 @052   ----------------------------------------
 .byte   PATT
  .word Label_016789E1
@  #09 @053   ----------------------------------------
 .byte   PATT
  .word Label_016789C1
@  #09 @054   ----------------------------------------
 .byte   PATT
  .word Label_016789E1
@  #09 @055   ----------------------------------------
 .byte   PATT
  .word Label_016789F5
@  #09 @056   ----------------------------------------
 .byte   W24
 .byte   GOTO
  .word Label_016789AA
 .byte   FINE

@******************************************************@
	.align	2

ForwardFE5:
	.byte	9	@ NumTrks
	.byte	0	@ NumBlks
	.byte	ForwardFE5_pri	@ Priority
	.byte	ForwardFE5_rev	@ Reverb.
    
	.word	ForwardFE5_grp
    
	.word	ForwardFE5_001
	.word	ForwardFE5_002
	.word	ForwardFE5_003
	.word	ForwardFE5_004
	.word	ForwardFE5_005
	.word	ForwardFE5_006
	.word	ForwardFE5_007
	.word	ForwardFE5_008
	.word	ForwardFE5_009

	.end
