//Event file generated from Sappy .s format.
	

	#define	ForwardFE5_grp  voicegroup000
	#define	ForwardFE5_pri  0
	#define	ForwardFE5_rev  0
	#define	ForwardFE5_mvl  127
	#define	ForwardFE5_key  0
	#define	ForwardFE5_tbs  1
	#define	ForwardFE5_exg  0
	#define	ForwardFE5_cmp  1

	// .rodata
	//	ForwardFE5
	ALIGN 4


//**************** Track 1 (Midi-Chn.0) ****************//

ForwardFE5_001:
//  #01 //000   ----------------------------------------
 BYTE   KEYSH   ForwardFE5_key+0
Label_016780B2:
 BYTE   TEMPO   114*ForwardFE5_tbs/2
 BYTE   VOICE   56
 BYTE   VOL   66*ForwardFE5_mvl/mxv
 BYTE   N36  Ds3  v100
 BYTE   W48
 BYTE   Fn3
 BYTE   W48
//  #01 //001   ----------------------------------------
Label_016780BE:
 BYTE   N36  Gn3  v100
 BYTE   W48
 BYTE   As3
 BYTE   W48
 BYTE   PEND 
//  #01 //002   ----------------------------------------
Label_016780C5:
 BYTE   N36  Gs3  v100
 BYTE   W48
 BYTE   Fn3
 BYTE   W48
 BYTE   PEND 
//  #01 //003   ----------------------------------------
 BYTE   N84  Gn3
 BYTE   W96
//  #01 //004   ----------------------------------------
Label_016780CF:
 BYTE   N36  Ds3  v100
 BYTE   W48
 BYTE   Fn3
 BYTE   W48
 BYTE   PEND 
//  #01 //005   ----------------------------------------
 BYTE   PATT
  POIN2 Label_016780BE
//  #01 //006   ----------------------------------------
Label_016780DB:
 BYTE   N60  Cn4  v100
 BYTE   W72
 BYTE   N24  As3
 BYTE   W24
 BYTE   PEND 
//  #01 //007   ----------------------------------------
Label_016780E3:
 BYTE   N48  Gn3  v100
 BYTE   W72
 BYTE   N06
 BYTE   W12
 BYTE   Fn3
 BYTE   W12
 BYTE   PEND 
//  #01 //008   ----------------------------------------
Label_016780EC:
 BYTE   N36  Gn3  v100
 BYTE   W48
 BYTE   Ds3
 BYTE   W48
 BYTE   PEND 
//  #01 //009   ----------------------------------------
Label_016780F3:
 BYTE   N36  Ds3  v100
 BYTE   W48
 BYTE   N18  Dn3
 BYTE   W24
 BYTE   Cn3
 BYTE   W24
 BYTE   PEND 
//  #01 //010   ----------------------------------------
 BYTE   TIE  Fn3
 BYTE   W96
//  #01 //011   ----------------------------------------
 BYTE   W84
 BYTE   EOT
 BYTE   W12
//  #01 //012   ----------------------------------------
 BYTE   PATT
  POIN2 Label_016780CF
//  #01 //013   ----------------------------------------
 BYTE   PATT
  POIN2 Label_016780BE
//  #01 //014   ----------------------------------------
 BYTE   PATT
  POIN2 Label_016780C5
//  #01 //015   ----------------------------------------
 BYTE   PATT
  POIN2 Label_016780E3
//  #01 //016   ----------------------------------------
Label_01678117:
 BYTE   N36  Ds3  v100
 BYTE   W48
 BYTE   Gs3
 BYTE   W48
 BYTE   PEND 
//  #01 //017   ----------------------------------------
Label_0167811E:
 BYTE   N36  Fn3  v100
 BYTE   W48
 BYTE   Dn3
 BYTE   W48
 BYTE   PEND 
//  #01 //018   ----------------------------------------
 BYTE   N84  Fn3
 BYTE   W96
//  #01 //019   ----------------------------------------
 BYTE   Ds3
 BYTE   W96
//  #01 //020   ----------------------------------------
Label_0167812A:
 BYTE   N36  Cn3  v100
 BYTE   W48
 BYTE   Gs3
 BYTE   W48
 BYTE   PEND 
//  #01 //021   ----------------------------------------
Label_01678131:
 BYTE   N12  Gn3  v100
 BYTE   W24
 BYTE   Dn3
 BYTE   W24
 BYTE   N36  Ds3
 BYTE   W48
 BYTE   PEND 
//  #01 //022   ----------------------------------------
Label_0167813B:
 BYTE   N36  Fn3  v100
 BYTE   W48
 BYTE   N12  Cn3
 BYTE   W24
 BYTE   N06  Dn3
 BYTE   W12
 BYTE   Ds3
 BYTE   W12
 BYTE   PEND 
//  #01 //023   ----------------------------------------
Label_01678148:
 BYTE   N36  Ds3  v100
 BYTE   W48
 BYTE   Dn3
 BYTE   W48
 BYTE   PEND 
//  #01 //024   ----------------------------------------
Label_0167814F:
 BYTE   N36  Dn3  v100
 BYTE   W48
 BYTE   N18  Gn3
 BYTE   W24
 BYTE   N06  Dn3
 BYTE   W12
 BYTE   Fn3
 BYTE   W12
 BYTE   PEND 
//  #01 //025   ----------------------------------------
Label_0167815C:
 BYTE   N18  Fn3  v100
 BYTE   W24
 BYTE   Ds3
 BYTE   W24
 BYTE   Dn3
 BYTE   W24
 BYTE   Cn3
 BYTE   W24
 BYTE   PEND 
//  #01 //026   ----------------------------------------
Label_01678167:
 BYTE   N36  Fn3  v100
 BYTE   W48
 BYTE   N30  Cn3
 BYTE   W36
 BYTE   N06  Dn3
 BYTE   W12
 BYTE   PEND 
//  #01 //027   ----------------------------------------
 BYTE   PATT
  POIN2 Label_01678148
//  #01 //028   ----------------------------------------
 BYTE   PATT
  POIN2 Label_016780CF
//  #01 //029   ----------------------------------------
 BYTE   PATT
  POIN2 Label_016780BE
//  #01 //030   ----------------------------------------
 BYTE   PATT
  POIN2 Label_016780C5
//  #01 //031   ----------------------------------------
 BYTE   N84  Gn3  v100
 BYTE   W96
//  #01 //032   ----------------------------------------
 BYTE   PATT
  POIN2 Label_016780CF
//  #01 //033   ----------------------------------------
 BYTE   PATT
  POIN2 Label_016780BE
//  #01 //034   ----------------------------------------
 BYTE   PATT
  POIN2 Label_016780DB
//  #01 //035   ----------------------------------------
 BYTE   PATT
  POIN2 Label_016780E3
//  #01 //036   ----------------------------------------
 BYTE   PATT
  POIN2 Label_016780EC
//  #01 //037   ----------------------------------------
 BYTE   PATT
  POIN2 Label_016780F3
//  #01 //038   ----------------------------------------
 BYTE   TIE  Fn3  v100
 BYTE   W96
//  #01 //039   ----------------------------------------
 BYTE   W84
 BYTE   EOT
 BYTE   W12
//  #01 //040   ----------------------------------------
 BYTE   PATT
  POIN2 Label_016780CF
//  #01 //041   ----------------------------------------
 BYTE   PATT
  POIN2 Label_016780BE
//  #01 //042   ----------------------------------------
 BYTE   PATT
  POIN2 Label_016780C5
//  #01 //043   ----------------------------------------
 BYTE   PATT
  POIN2 Label_016780E3
//  #01 //044   ----------------------------------------
 BYTE   PATT
  POIN2 Label_01678117
//  #01 //045   ----------------------------------------
 BYTE   PATT
  POIN2 Label_0167811E
//  #01 //046   ----------------------------------------
 BYTE   N84  Fn3  v100
 BYTE   W96
//  #01 //047   ----------------------------------------
 BYTE   Ds3
 BYTE   W96
//  #01 //048   ----------------------------------------
 BYTE   PATT
  POIN2 Label_0167812A
//  #01 //049   ----------------------------------------
 BYTE   PATT
  POIN2 Label_01678131
//  #01 //050   ----------------------------------------
 BYTE   PATT
  POIN2 Label_0167813B
//  #01 //051   ----------------------------------------
 BYTE   PATT
  POIN2 Label_01678148
//  #01 //052   ----------------------------------------
 BYTE   PATT
  POIN2 Label_0167814F
//  #01 //053   ----------------------------------------
 BYTE   PATT
  POIN2 Label_0167815C
//  #01 //054   ----------------------------------------
 BYTE   PATT
  POIN2 Label_01678167
//  #01 //055   ----------------------------------------
 BYTE   PATT
  POIN2 Label_01678148
//  #01 //056   ----------------------------------------
 BYTE   W24
 BYTE   GoTo
  POIN2 Label_016780B2
 BYTE   FINE

//**************** Track 2 (Midi-Chn.1) ****************//

ForwardFE5_002:
//  #02 //000   ----------------------------------------
 BYTE   KEYSH   ForwardFE5_key+0
Label_01678206:
 BYTE   VOICE   42
 BYTE   VOL   55*ForwardFE5_mvl/mxv
 BYTE   W96
//  #02 //001   ----------------------------------------
 BYTE   W96
//  #02 //002   ----------------------------------------
 BYTE   W96
//  #02 //003   ----------------------------------------
 BYTE   W96
//  #02 //004   ----------------------------------------
 BYTE   W96
//  #02 //005   ----------------------------------------
 BYTE   W96
//  #02 //006   ----------------------------------------
 BYTE   W96
//  #02 //007   ----------------------------------------
 BYTE   W96
//  #02 //008   ----------------------------------------
Label_01678212:
 BYTE   W24
 BYTE   N24  Gn2  v100
 BYTE   W24
 BYTE   Cn3
 BYTE   W24
 BYTE   Dn3
 BYTE   W24
 BYTE   PEND 
//  #02 //009   ----------------------------------------
Label_0167821C:
 BYTE   N24  Ds3  v100
 BYTE   W24
 BYTE   Gn3
 BYTE   W24
 BYTE   Cn4
 BYTE   W24
 BYTE   Dn4
 BYTE   W24
 BYTE   PEND 
//  #02 //010   ----------------------------------------
Label_01678227:
 BYTE   N84  Ds4  v100
 BYTE   W84
 BYTE   N06  Dn4
 BYTE   W06
 BYTE   Ds4
 BYTE   W06
 BYTE   PEND 
//  #02 //011   ----------------------------------------
 BYTE   N84  Fn4
 BYTE   W96
//  #02 //012   ----------------------------------------
 BYTE   W96
//  #02 //013   ----------------------------------------
 BYTE   W96
//  #02 //014   ----------------------------------------
 BYTE   W96
//  #02 //015   ----------------------------------------
Label_01678237:
 BYTE   W24
 BYTE   N24  As3  v100
 BYTE   W24
 BYTE   Ds4
 BYTE   W24
 BYTE   Dn4
 BYTE   W24
 BYTE   PEND 
//  #02 //016   ----------------------------------------
Label_01678241:
 BYTE   N72  Ds4  v100
 BYTE   W72
 BYTE   N12  Fn4
 BYTE   W12
 BYTE   Gn4
 BYTE   W12
 BYTE   PEND 
//  #02 //017   ----------------------------------------
 BYTE   N96  Gs4
 BYTE   W96
//  #02 //018   ----------------------------------------
 BYTE   As4
 BYTE   W96
//  #02 //019   ----------------------------------------
Label_01678250:
 BYTE   N24  Ds4  v100
 BYTE   W24
 BYTE   As3
 BYTE   W24
 BYTE   Gn3
 BYTE   W24
 BYTE   Ds3
 BYTE   W24
 BYTE   PEND 
//  #02 //020   ----------------------------------------
Label_0167825B:
 BYTE   N42  Cn3  v100
 BYTE   W48
 BYTE   Gs3
 BYTE   W48
 BYTE   PEND 
//  #02 //021   ----------------------------------------
Label_01678262:
 BYTE   N18  Gn3  v100
 BYTE   W24
 BYTE   Dn3
 BYTE   W24
 BYTE   N42  Ds3
 BYTE   W48
 BYTE   PEND 
//  #02 //022   ----------------------------------------
Label_0167826C:
 BYTE   N42  Fn3  v100
 BYTE   W48
 BYTE   N18  Cn3
 BYTE   W24
 BYTE   N06  Dn3
 BYTE   W12
 BYTE   Ds3
 BYTE   W12
 BYTE   PEND 
//  #02 //023   ----------------------------------------
Label_01678279:
 BYTE   N42  Ds3  v100
 BYTE   W48
 BYTE   N36  Dn3
 BYTE   W48
 BYTE   PEND 
//  #02 //024   ----------------------------------------
Label_01678281:
 BYTE   N42  Dn3  v100
 BYTE   W48
 BYTE   N18  Gn3
 BYTE   W24
 BYTE   N06  Dn3
 BYTE   W12
 BYTE   Fn3
 BYTE   W12
 BYTE   PEND 
//  #02 //025   ----------------------------------------
Label_0167828E:
 BYTE   N18  Fn3  v100
 BYTE   W24
 BYTE   Ds3
 BYTE   W24
 BYTE   Dn3
 BYTE   W24
 BYTE   Cn3
 BYTE   W24
 BYTE   PEND 
//  #02 //026   ----------------------------------------
Label_01678299:
 BYTE   N42  Fn3  v100
 BYTE   W48
 BYTE   N30  Cn3
 BYTE   W36
 BYTE   N06  Dn3
 BYTE   W12
 BYTE   PEND 
//  #02 //027   ----------------------------------------
Label_016782A4:
 BYTE   N42  Ds3  v100
 BYTE   W48
 BYTE   Dn3
 BYTE   W48
 BYTE   PEND 
//  #02 //028   ----------------------------------------
 BYTE   W96
//  #02 //029   ----------------------------------------
 BYTE   W96
//  #02 //030   ----------------------------------------
 BYTE   W96
//  #02 //031   ----------------------------------------
 BYTE   W96
//  #02 //032   ----------------------------------------
 BYTE   W96
//  #02 //033   ----------------------------------------
 BYTE   W96
//  #02 //034   ----------------------------------------
 BYTE   W96
//  #02 //035   ----------------------------------------
 BYTE   W96
//  #02 //036   ----------------------------------------
 BYTE   PATT
  POIN2 Label_01678212
//  #02 //037   ----------------------------------------
 BYTE   PATT
  POIN2 Label_0167821C
//  #02 //038   ----------------------------------------
 BYTE   PATT
  POIN2 Label_01678227
//  #02 //039   ----------------------------------------
 BYTE   N84  Fn4  v100
 BYTE   W96
//  #02 //040   ----------------------------------------
 BYTE   W96
//  #02 //041   ----------------------------------------
 BYTE   W96
//  #02 //042   ----------------------------------------
 BYTE   W96
//  #02 //043   ----------------------------------------
 BYTE   PATT
  POIN2 Label_01678237
//  #02 //044   ----------------------------------------
 BYTE   PATT
  POIN2 Label_01678241
//  #02 //045   ----------------------------------------
 BYTE   N96  Gs4  v100
 BYTE   W96
//  #02 //046   ----------------------------------------
 BYTE   As4
 BYTE   W96
//  #02 //047   ----------------------------------------
 BYTE   PATT
  POIN2 Label_01678250
//  #02 //048   ----------------------------------------
 BYTE   PATT
  POIN2 Label_0167825B
//  #02 //049   ----------------------------------------
 BYTE   PATT
  POIN2 Label_01678262
//  #02 //050   ----------------------------------------
 BYTE   PATT
  POIN2 Label_0167826C
//  #02 //051   ----------------------------------------
 BYTE   PATT
  POIN2 Label_01678279
//  #02 //052   ----------------------------------------
 BYTE   PATT
  POIN2 Label_01678281
//  #02 //053   ----------------------------------------
 BYTE   PATT
  POIN2 Label_0167828E
//  #02 //054   ----------------------------------------
 BYTE   PATT
  POIN2 Label_01678299
//  #02 //055   ----------------------------------------
 BYTE   PATT
  POIN2 Label_016782A4
//  #02 //056   ----------------------------------------
 BYTE   W24
 BYTE   GoTo
  POIN2 Label_01678206
 BYTE   FINE

//**************** Track 3 (Midi-Chn.2) ****************//

ForwardFE5_003:
//  #03 //000   ----------------------------------------
 BYTE   KEYSH   ForwardFE5_key+0
Label_01678312:
 BYTE   VOICE   60
 BYTE   VOL   60*ForwardFE5_mvl/mxv
 BYTE   N12  Ds1  v100
 BYTE   W12
 BYTE   N30
 BYTE   W36
 BYTE   N30
 BYTE   W36
 BYTE   N12
 BYTE   W12
//  #03 //001   ----------------------------------------
Label_01678320:
 BYTE   N12  Ds1  v100
 BYTE   W12
 BYTE   N30
 BYTE   W36
 BYTE   N30
 BYTE   W36
 BYTE   N12
 BYTE   W12
 BYTE   PEND 
//  #03 //002   ----------------------------------------
 BYTE   PATT
  POIN2 Label_01678320
//  #03 //003   ----------------------------------------
 BYTE   PATT
  POIN2 Label_01678320
//  #03 //004   ----------------------------------------
 BYTE   PATT
  POIN2 Label_01678320
//  #03 //005   ----------------------------------------
 BYTE   PATT
  POIN2 Label_01678320
//  #03 //006   ----------------------------------------
Label_0167833F:
 BYTE   N12  Gs1  v100
 BYTE   W12
 BYTE   N24
 BYTE   W36
 BYTE   N24
 BYTE   W36
 BYTE   N12
 BYTE   W12
 BYTE   PEND 
//  #03 //007   ----------------------------------------
Label_0167834A:
 BYTE   N12  Ds1  v100
 BYTE   W12
 BYTE   N24
 BYTE   W24
 BYTE   N12
 BYTE   W12
 BYTE   N24
 BYTE   W24
 BYTE   Dn1
 BYTE   W24
 BYTE   PEND 
//  #03 //008   ----------------------------------------
Label_01678357:
 BYTE   N84  Cn1  v100
 BYTE   W84
 BYTE   N12  As0
 BYTE   W12
 BYTE   PEND 
//  #03 //009   ----------------------------------------
Label_0167835F:
 BYTE   N72  Gs0  v100
 BYTE   W72
 BYTE   N24  An0
 BYTE   W24
 BYTE   PEND 
//  #03 //010   ----------------------------------------
Label_01678367:
 BYTE   N84  As0  v100
 BYTE   W84
 BYTE   N12  Fn1
 BYTE   W12
 BYTE   PEND 
//  #03 //011   ----------------------------------------
 BYTE   N96  As1
 BYTE   W96
//  #03 //012   ----------------------------------------
 BYTE   PATT
  POIN2 Label_01678320
//  #03 //013   ----------------------------------------
 BYTE   PATT
  POIN2 Label_01678320
//  #03 //014   ----------------------------------------
Label_0167837C:
 BYTE   N12  Cn2  v100
 BYTE   W12
 BYTE   N18
 BYTE   W36
 BYTE   Dn2
 BYTE   W36
 BYTE   N12
 BYTE   W12
 BYTE   PEND 
//  #03 //015   ----------------------------------------
Label_01678387:
 BYTE   N12  Ds2  v100
 BYTE   W12
 BYTE   N12
 BYTE   W84
 BYTE   PEND 
//  #03 //016   ----------------------------------------
 BYTE   N96  Cn1
 BYTE   W96
//  #03 //017   ----------------------------------------
 BYTE   Gs0
 BYTE   W96
//  #03 //018   ----------------------------------------
 BYTE   As0
 BYTE   W96
//  #03 //019   ----------------------------------------
Label_01678395:
 BYTE   N30  Ds1  v100
 BYTE   W36
 BYTE   N06
 BYTE   W06
 BYTE   N06
 BYTE   W06
 BYTE   N12
 BYTE   W12
 BYTE   N30
 BYTE   W36
 BYTE   PEND 
//  #03 //020   ----------------------------------------
 BYTE   N96  Gs0
 BYTE   W96
//  #03 //021   ----------------------------------------
Label_016783A5:
 BYTE   N48  Gn0  v100
 BYTE   W48
 BYTE   N24  Cn1
 BYTE   W24
 BYTE   As0
 BYTE   W24
 BYTE   PEND 
//  #03 //022   ----------------------------------------
 BYTE   N96  Gs0
 BYTE   W96
//  #03 //023   ----------------------------------------
 BYTE   As0
 BYTE   W96
//  #03 //024   ----------------------------------------
 BYTE   Gn0
 BYTE   W96
//  #03 //025   ----------------------------------------
Label_016783B6:
 BYTE   N48  Cn1  v100
 BYTE   W48
 BYTE   N24  Bn0
 BYTE   W24
 BYTE   As0
 BYTE   W24
 BYTE   PEND 
//  #03 //026   ----------------------------------------
 BYTE   N96  An0
 BYTE   W96
//  #03 //027   ----------------------------------------
 BYTE   As0
 BYTE   W96
//  #03 //028   ----------------------------------------
 BYTE   VOL   60*ForwardFE5_mvl/mxv
 BYTE   N12  Ds1
 BYTE   W12
 BYTE   N30
 BYTE   W36
 BYTE   N30
 BYTE   W36
 BYTE   N12
 BYTE   W12
//  #03 //029   ----------------------------------------
 BYTE   PATT
  POIN2 Label_01678320
//  #03 //030   ----------------------------------------
 BYTE   PATT
  POIN2 Label_01678320
//  #03 //031   ----------------------------------------
 BYTE   PATT
  POIN2 Label_01678320
//  #03 //032   ----------------------------------------
 BYTE   PATT
  POIN2 Label_01678320
//  #03 //033   ----------------------------------------
 BYTE   PATT
  POIN2 Label_01678320
//  #03 //034   ----------------------------------------
 BYTE   PATT
  POIN2 Label_0167833F
//  #03 //035   ----------------------------------------
 BYTE   PATT
  POIN2 Label_0167834A
//  #03 //036   ----------------------------------------
 BYTE   PATT
  POIN2 Label_01678357
//  #03 //037   ----------------------------------------
 BYTE   PATT
  POIN2 Label_0167835F
//  #03 //038   ----------------------------------------
 BYTE   PATT
  POIN2 Label_01678367
//  #03 //039   ----------------------------------------
 BYTE   N96  As1  v100
 BYTE   W96
//  #03 //040   ----------------------------------------
 BYTE   PATT
  POIN2 Label_01678320
//  #03 //041   ----------------------------------------
 BYTE   PATT
  POIN2 Label_01678320
//  #03 //042   ----------------------------------------
 BYTE   PATT
  POIN2 Label_0167837C
//  #03 //043   ----------------------------------------
 BYTE   PATT
  POIN2 Label_01678387
//  #03 //044   ----------------------------------------
 BYTE   N96  Cn1  v100
 BYTE   W96
//  #03 //045   ----------------------------------------
 BYTE   Gs0
 BYTE   W96
//  #03 //046   ----------------------------------------
 BYTE   As0
 BYTE   W96
//  #03 //047   ----------------------------------------
 BYTE   PATT
  POIN2 Label_01678395
//  #03 //048   ----------------------------------------
 BYTE   N96  Gs0  v100
 BYTE   W96
//  #03 //049   ----------------------------------------
 BYTE   PATT
  POIN2 Label_016783A5
//  #03 //050   ----------------------------------------
 BYTE   N96  Gs0  v100
 BYTE   W96
//  #03 //051   ----------------------------------------
 BYTE   As0
 BYTE   W96
//  #03 //052   ----------------------------------------
 BYTE   Gn0
 BYTE   W96
//  #03 //053   ----------------------------------------
 BYTE   PATT
  POIN2 Label_016783B6
//  #03 //054   ----------------------------------------
 BYTE   N96  An0  v100
 BYTE   W96
//  #03 //055   ----------------------------------------
 BYTE   As0
 BYTE   W96
//  #03 //056   ----------------------------------------
 BYTE   W24
 BYTE   GoTo
  POIN2 Label_01678312
 BYTE   FINE

//**************** Track 4 (Midi-Chn.3) ****************//

ForwardFE5_004:
//  #04 //000   ----------------------------------------
 BYTE   KEYSH   ForwardFE5_key+0
Label_0167844E:
 BYTE   VOICE   57
 BYTE   VOL   62*ForwardFE5_mvl/mxv
 BYTE   N36  Gn2  v100
 BYTE   W48
 BYTE   Gs2
 BYTE   W48
//  #04 //001   ----------------------------------------
Label_01678458:
 BYTE   N36  As2  v100
 BYTE   W48
 BYTE   Ds3
 BYTE   W48
 BYTE   PEND 
//  #04 //002   ----------------------------------------
Label_0167845F:
 BYTE   N36  Cn3  v100
 BYTE   W48
 BYTE   Gs2
 BYTE   W48
 BYTE   PEND 
//  #04 //003   ----------------------------------------
 BYTE   N84  As2
 BYTE   W96
//  #04 //004   ----------------------------------------
Label_01678469:
 BYTE   N36  Gn2  v100
 BYTE   W48
 BYTE   Gs2
 BYTE   W48
 BYTE   PEND 
//  #04 //005   ----------------------------------------
 BYTE   PATT
  POIN2 Label_01678458
//  #04 //006   ----------------------------------------
Label_01678475:
 BYTE   N60  Gs3  v100
 BYTE   W72
 BYTE   N24  Ds3
 BYTE   W24
 BYTE   PEND 
//  #04 //007   ----------------------------------------
Label_0167847D:
 BYTE   N48  Ds3  v100
 BYTE   W72
 BYTE   N24  Dn3
 BYTE   W24
 BYTE   PEND 
//  #04 //008   ----------------------------------------
Label_01678485:
 BYTE   N36  Ds3  v100
 BYTE   W48
 BYTE   Cn3
 BYTE   W48
 BYTE   PEND 
//  #04 //009   ----------------------------------------
Label_0167848C:
 BYTE   N36  Cn3  v100
 BYTE   W48
 BYTE   N18  As2
 BYTE   W24
 BYTE   Gs2
 BYTE   W24
 BYTE   PEND 
//  #04 //010   ----------------------------------------
 BYTE   N96
 BYTE   W96
//  #04 //011   ----------------------------------------
 BYTE   As2
 BYTE   W96
//  #04 //012   ----------------------------------------
 BYTE   PATT
  POIN2 Label_01678469
//  #04 //013   ----------------------------------------
 BYTE   PATT
  POIN2 Label_01678458
//  #04 //014   ----------------------------------------
 BYTE   PATT
  POIN2 Label_0167845F
//  #04 //015   ----------------------------------------
Label_016784A9:
 BYTE   N48  As2  v100
 BYTE   W72
 BYTE   N06
 BYTE   W12
 BYTE   Gs2
 BYTE   W12
 BYTE   PEND 
//  #04 //016   ----------------------------------------
Label_016784B2:
 BYTE   N36  Gn2  v100
 BYTE   W48
 BYTE   Cn3
 BYTE   W48
 BYTE   PEND 
//  #04 //017   ----------------------------------------
Label_016784B9:
 BYTE   N36  Gs2  v100
 BYTE   W48
 BYTE   Fn2
 BYTE   W48
 BYTE   PEND 
//  #04 //018   ----------------------------------------
 BYTE   N84  Gs2
 BYTE   W96
//  #04 //019   ----------------------------------------
 BYTE   Gn2
 BYTE   W96
//  #04 //020   ----------------------------------------
Label_016784C5:
 BYTE   N36  Gs2  v100
 BYTE   W48
 BYTE   Ds3
 BYTE   W48
 BYTE   PEND 
//  #04 //021   ----------------------------------------
Label_016784CC:
 BYTE   N12  Dn3  v100
 BYTE   W24
 BYTE   Bn2
 BYTE   W24
 BYTE   N36  Cn3
 BYTE   W48
 BYTE   PEND 
//  #04 //022   ----------------------------------------
Label_016784D6:
 BYTE   N36  Cn3  v100
 BYTE   W48
 BYTE   N12  Gs2
 BYTE   W24
 BYTE   N06  As2
 BYTE   W12
 BYTE   Cn3
 BYTE   W12
 BYTE   PEND 
//  #04 //023   ----------------------------------------
Label_016784E3:
 BYTE   N36  Cn3  v100
 BYTE   W48
 BYTE   As2
 BYTE   W48
 BYTE   PEND 
//  #04 //024   ----------------------------------------
Label_016784EA:
 BYTE   N36  Bn2  v100
 BYTE   W48
 BYTE   N18  Dn3
 BYTE   W24
 BYTE   N06  Bn2
 BYTE   W12
 BYTE   Dn3
 BYTE   W12
 BYTE   PEND 
//  #04 //025   ----------------------------------------
Label_016784F7:
 BYTE   N42  Cn3  v100
 BYTE   W48
 BYTE   N18  Bn2
 BYTE   W24
 BYTE   Gn2
 BYTE   W24
 BYTE   PEND 
//  #04 //026   ----------------------------------------
Label_01678501:
 BYTE   N36  Cn3  v100
 BYTE   W48
 BYTE   N30  An2
 BYTE   W36
 BYTE   N06  As2
 BYTE   W12
 BYTE   PEND 
//  #04 //027   ----------------------------------------
Label_0167850C:
 BYTE   N36  As2  v100
 BYTE   W48
 BYTE   N36
 BYTE   W48
 BYTE   PEND 
//  #04 //028   ----------------------------------------
 BYTE   VOL   62*ForwardFE5_mvl/mxv
 BYTE   N36  Gn2
 BYTE   W48
 BYTE   Gs2
 BYTE   W48
//  #04 //029   ----------------------------------------
 BYTE   PATT
  POIN2 Label_01678458
//  #04 //030   ----------------------------------------
 BYTE   PATT
  POIN2 Label_0167845F
//  #04 //031   ----------------------------------------
 BYTE   N84  As2  v100
 BYTE   W96
//  #04 //032   ----------------------------------------
 BYTE   PATT
  POIN2 Label_01678469
//  #04 //033   ----------------------------------------
 BYTE   PATT
  POIN2 Label_01678458
//  #04 //034   ----------------------------------------
 BYTE   PATT
  POIN2 Label_01678475
//  #04 //035   ----------------------------------------
 BYTE   PATT
  POIN2 Label_0167847D
//  #04 //036   ----------------------------------------
 BYTE   PATT
  POIN2 Label_01678485
//  #04 //037   ----------------------------------------
 BYTE   PATT
  POIN2 Label_0167848C
//  #04 //038   ----------------------------------------
 BYTE   N96  Gs2  v100
 BYTE   W96
//  #04 //039   ----------------------------------------
 BYTE   As2
 BYTE   W96
//  #04 //040   ----------------------------------------
 BYTE   PATT
  POIN2 Label_01678469
//  #04 //041   ----------------------------------------
 BYTE   PATT
  POIN2 Label_01678458
//  #04 //042   ----------------------------------------
 BYTE   PATT
  POIN2 Label_0167845F
//  #04 //043   ----------------------------------------
 BYTE   PATT
  POIN2 Label_016784A9
//  #04 //044   ----------------------------------------
 BYTE   PATT
  POIN2 Label_016784B2
//  #04 //045   ----------------------------------------
 BYTE   PATT
  POIN2 Label_016784B9
//  #04 //046   ----------------------------------------
 BYTE   N84  Gs2  v100
 BYTE   W96
//  #04 //047   ----------------------------------------
 BYTE   Gn2
 BYTE   W96
//  #04 //048   ----------------------------------------
 BYTE   PATT
  POIN2 Label_016784C5
//  #04 //049   ----------------------------------------
 BYTE   PATT
  POIN2 Label_016784CC
//  #04 //050   ----------------------------------------
 BYTE   PATT
  POIN2 Label_016784D6
//  #04 //051   ----------------------------------------
 BYTE   PATT
  POIN2 Label_016784E3
//  #04 //052   ----------------------------------------
 BYTE   PATT
  POIN2 Label_016784EA
//  #04 //053   ----------------------------------------
 BYTE   PATT
  POIN2 Label_016784F7
//  #04 //054   ----------------------------------------
 BYTE   PATT
  POIN2 Label_01678501
//  #04 //055   ----------------------------------------
 BYTE   PATT
  POIN2 Label_0167850C
//  #04 //056   ----------------------------------------
 BYTE   W24
 BYTE   GoTo
  POIN2 Label_0167844E
 BYTE   FINE

//**************** Track 5 (Midi-Chn.4) ****************//

ForwardFE5_005:
//  #05 //000   ----------------------------------------
 BYTE   KEYSH   ForwardFE5_key+0
Label_016785A2:
 BYTE   VOICE   42
 BYTE   VOL   44*ForwardFE5_mvl/mxv
 BYTE   W96
//  #05 //001   ----------------------------------------
 BYTE   W96
//  #05 //002   ----------------------------------------
 BYTE   W96
//  #05 //003   ----------------------------------------
 BYTE   W96
//  #05 //004   ----------------------------------------
 BYTE   W96
//  #05 //005   ----------------------------------------
 BYTE   W96
//  #05 //006   ----------------------------------------
 BYTE   W96
//  #05 //007   ----------------------------------------
 BYTE   W96
//  #05 //008   ----------------------------------------
 BYTE   W96
//  #05 //009   ----------------------------------------
 BYTE   W96
//  #05 //010   ----------------------------------------
 BYTE   W96
//  #05 //011   ----------------------------------------
 BYTE   W96
//  #05 //012   ----------------------------------------
 BYTE   W96
//  #05 //013   ----------------------------------------
 BYTE   W96
//  #05 //014   ----------------------------------------
 BYTE   W96
//  #05 //015   ----------------------------------------
 BYTE   W96
//  #05 //016   ----------------------------------------
 BYTE   W96
//  #05 //017   ----------------------------------------
 BYTE   W96
//  #05 //018   ----------------------------------------
 BYTE   W96
//  #05 //019   ----------------------------------------
 BYTE   W96
//  #05 //020   ----------------------------------------
Label_016785BA:
 BYTE   N42  Cn5  v100
 BYTE   W48
 BYTE   Gs5
 BYTE   W48
 BYTE   PEND 
//  #05 //021   ----------------------------------------
Label_016785C1:
 BYTE   N18  Gn5  v100
 BYTE   W24
 BYTE   Dn5
 BYTE   W24
 BYTE   N42  Ds5
 BYTE   W48
 BYTE   PEND 
//  #05 //022   ----------------------------------------
Label_016785CB:
 BYTE   N42  Fn5  v100
 BYTE   W48
 BYTE   N18  Cn5
 BYTE   W24
 BYTE   N06  Dn5
 BYTE   W12
 BYTE   Ds5
 BYTE   W12
 BYTE   PEND 
//  #05 //023   ----------------------------------------
Label_016785D8:
 BYTE   N42  Ds5  v100
 BYTE   W48
 BYTE   N36  Dn5
 BYTE   W48
 BYTE   PEND 
//  #05 //024   ----------------------------------------
Label_016785E0:
 BYTE   N42  Dn5  v100
 BYTE   W48
 BYTE   N18  Gn5
 BYTE   W24
 BYTE   N06  Dn5
 BYTE   W12
 BYTE   Fn5
 BYTE   W12
 BYTE   PEND 
//  #05 //025   ----------------------------------------
Label_016785ED:
 BYTE   N18  Fn5  v100
 BYTE   W24
 BYTE   Ds5
 BYTE   W24
 BYTE   Dn5
 BYTE   W24
 BYTE   Cn5
 BYTE   W24
 BYTE   PEND 
//  #05 //026   ----------------------------------------
Label_016785F8:
 BYTE   N42  Fn5  v100
 BYTE   W48
 BYTE   N30  Cn5
 BYTE   W36
 BYTE   N06  Dn5
 BYTE   W12
 BYTE   PEND 
//  #05 //027   ----------------------------------------
Label_01678603:
 BYTE   N42  Ds5  v100
 BYTE   W48
 BYTE   Dn5
 BYTE   W48
 BYTE   PEND 
//  #05 //028   ----------------------------------------
 BYTE   W96
//  #05 //029   ----------------------------------------
 BYTE   W96
//  #05 //030   ----------------------------------------
 BYTE   W96
//  #05 //031   ----------------------------------------
 BYTE   W96
//  #05 //032   ----------------------------------------
 BYTE   W96
//  #05 //033   ----------------------------------------
 BYTE   W96
//  #05 //034   ----------------------------------------
 BYTE   W96
//  #05 //035   ----------------------------------------
 BYTE   W96
//  #05 //036   ----------------------------------------
 BYTE   W96
//  #05 //037   ----------------------------------------
 BYTE   W96
//  #05 //038   ----------------------------------------
 BYTE   W96
//  #05 //039   ----------------------------------------
 BYTE   W96
//  #05 //040   ----------------------------------------
 BYTE   W96
//  #05 //041   ----------------------------------------
 BYTE   W96
//  #05 //042   ----------------------------------------
 BYTE   W96
//  #05 //043   ----------------------------------------
 BYTE   W96
//  #05 //044   ----------------------------------------
 BYTE   W96
//  #05 //045   ----------------------------------------
 BYTE   W96
//  #05 //046   ----------------------------------------
 BYTE   W96
//  #05 //047   ----------------------------------------
 BYTE   W96
//  #05 //048   ----------------------------------------
 BYTE   PATT
  POIN2 Label_016785BA
//  #05 //049   ----------------------------------------
 BYTE   PATT
  POIN2 Label_016785C1
//  #05 //050   ----------------------------------------
 BYTE   PATT
  POIN2 Label_016785CB
//  #05 //051   ----------------------------------------
 BYTE   PATT
  POIN2 Label_016785D8
//  #05 //052   ----------------------------------------
 BYTE   PATT
  POIN2 Label_016785E0
//  #05 //053   ----------------------------------------
 BYTE   PATT
  POIN2 Label_016785ED
//  #05 //054   ----------------------------------------
 BYTE   PATT
  POIN2 Label_016785F8
//  #05 //055   ----------------------------------------
 BYTE   PATT
  POIN2 Label_01678603
//  #05 //056   ----------------------------------------
 BYTE   W24
 BYTE   GoTo
  POIN2 Label_016785A2
 BYTE   FINE

//**************** Track 6 (Midi-Chn.5) ****************//

ForwardFE5_006:
//  #06 //000   ----------------------------------------
 BYTE   KEYSH   ForwardFE5_key+0
Label_01678652:
 BYTE   VOICE   60
 BYTE   VOL   66*ForwardFE5_mvl/mxv
 BYTE   N12  As1  v100
 BYTE   W12
 BYTE   N24
 BYTE   W36
 BYTE   N24
 BYTE   W36
 BYTE   N12
 BYTE   W12
//  #06 //001   ----------------------------------------
Label_01678660:
 BYTE   N12  As1  v100
 BYTE   W12
 BYTE   N24
 BYTE   W36
 BYTE   N24
 BYTE   W36
 BYTE   N12
 BYTE   W12
 BYTE   PEND 
//  #06 //002   ----------------------------------------
 BYTE   PATT
  POIN2 Label_01678660
//  #06 //003   ----------------------------------------
 BYTE   PATT
  POIN2 Label_01678660
//  #06 //004   ----------------------------------------
 BYTE   PATT
  POIN2 Label_01678660
//  #06 //005   ----------------------------------------
 BYTE   PATT
  POIN2 Label_01678660
//  #06 //006   ----------------------------------------
Label_0167867F:
 BYTE   N12  Ds2  v100
 BYTE   W12
 BYTE   N24
 BYTE   W36
 BYTE   N24
 BYTE   W36
 BYTE   N12
 BYTE   W12
 BYTE   PEND 
//  #06 //007   ----------------------------------------
Label_0167868A:
 BYTE   N12  As1  v100
 BYTE   W12
 BYTE   N24
 BYTE   W24
 BYTE   N12
 BYTE   W12
 BYTE   N24
 BYTE   W24
 BYTE   N24
 BYTE   W24
 BYTE   PEND 
//  #06 //008   ----------------------------------------
 BYTE   W96
//  #06 //009   ----------------------------------------
 BYTE   W96
//  #06 //010   ----------------------------------------
 BYTE   W96
//  #06 //011   ----------------------------------------
 BYTE   W96
//  #06 //012   ----------------------------------------
 BYTE   PATT
  POIN2 Label_01678660
//  #06 //013   ----------------------------------------
 BYTE   PATT
  POIN2 Label_01678660
//  #06 //014   ----------------------------------------
Label_016786A5:
 BYTE   N12  Gn1  v100
 BYTE   W12
 BYTE   N24
 BYTE   W36
 BYTE   An1
 BYTE   W36
 BYTE   N12
 BYTE   W12
 BYTE   PEND 
//  #06 //015   ----------------------------------------
Label_016786B0:
 BYTE   N12  As1  v100
 BYTE   W12
 BYTE   N24
 BYTE   W36
 BYTE   N24
 BYTE   W24
 BYTE   An1
 BYTE   W24
 BYTE   PEND 
//  #06 //016   ----------------------------------------
 BYTE   W96
//  #06 //017   ----------------------------------------
 BYTE   W96
//  #06 //018   ----------------------------------------
 BYTE   W96
//  #06 //019   ----------------------------------------
 BYTE   W96
//  #06 //020   ----------------------------------------
 BYTE   W96
//  #06 //021   ----------------------------------------
 BYTE   W96
//  #06 //022   ----------------------------------------
 BYTE   W96
//  #06 //023   ----------------------------------------
 BYTE   W96
//  #06 //024   ----------------------------------------
 BYTE   W96
//  #06 //025   ----------------------------------------
 BYTE   W96
//  #06 //026   ----------------------------------------
 BYTE   W96
//  #06 //027   ----------------------------------------
 BYTE   W96
//  #06 //028   ----------------------------------------
 BYTE   PATT
  POIN2 Label_01678660
//  #06 //029   ----------------------------------------
 BYTE   PATT
  POIN2 Label_01678660
//  #06 //030   ----------------------------------------
 BYTE   PATT
  POIN2 Label_01678660
//  #06 //031   ----------------------------------------
 BYTE   PATT
  POIN2 Label_01678660
//  #06 //032   ----------------------------------------
 BYTE   PATT
  POIN2 Label_01678660
//  #06 //033   ----------------------------------------
 BYTE   PATT
  POIN2 Label_01678660
//  #06 //034   ----------------------------------------
 BYTE   PATT
  POIN2 Label_0167867F
//  #06 //035   ----------------------------------------
 BYTE   PATT
  POIN2 Label_0167868A
//  #06 //036   ----------------------------------------
 BYTE   W96
//  #06 //037   ----------------------------------------
 BYTE   W96
//  #06 //038   ----------------------------------------
 BYTE   W96
//  #06 //039   ----------------------------------------
 BYTE   W96
//  #06 //040   ----------------------------------------
 BYTE   PATT
  POIN2 Label_01678660
//  #06 //041   ----------------------------------------
 BYTE   PATT
  POIN2 Label_01678660
//  #06 //042   ----------------------------------------
 BYTE   PATT
  POIN2 Label_016786A5
//  #06 //043   ----------------------------------------
 BYTE   PATT
  POIN2 Label_016786B0
//  #06 //044   ----------------------------------------
 BYTE   W96
//  #06 //045   ----------------------------------------
 BYTE   W96
//  #06 //046   ----------------------------------------
 BYTE   W96
//  #06 //047   ----------------------------------------
 BYTE   W96
//  #06 //048   ----------------------------------------
 BYTE   W96
//  #06 //049   ----------------------------------------
 BYTE   W96
//  #06 //050   ----------------------------------------
 BYTE   W96
//  #06 //051   ----------------------------------------
 BYTE   W96
//  #06 //052   ----------------------------------------
 BYTE   W96
//  #06 //053   ----------------------------------------
 BYTE   W96
//  #06 //054   ----------------------------------------
 BYTE   W96
//  #06 //055   ----------------------------------------
 BYTE   W96
//  #06 //056   ----------------------------------------
 BYTE   W24
 BYTE   GoTo
  POIN2 Label_01678652
 BYTE   FINE

//**************** Track 7 (Midi-Chn.6) ****************//

ForwardFE5_007:
//  #07 //000   ----------------------------------------
 BYTE   KEYSH   ForwardFE5_key+0
Label_0167871E:
 BYTE   VOICE   57
 BYTE   VOL   62*ForwardFE5_mvl/mxv
 BYTE   N36  Ds2  v100
 BYTE   W48
 BYTE   Fn2
 BYTE   W48
//  #07 //001   ----------------------------------------
Label_01678728:
 BYTE   N36  Gn2  v100
 BYTE   W48
 BYTE   As2
 BYTE   W48
 BYTE   PEND 
//  #07 //002   ----------------------------------------
Label_0167872F:
 BYTE   N36  Gs2  v100
 BYTE   W48
 BYTE   Fn2
 BYTE   W48
 BYTE   PEND 
//  #07 //003   ----------------------------------------
 BYTE   N84  Gn2
 BYTE   W96
//  #07 //004   ----------------------------------------
Label_01678739:
 BYTE   VOL   62*ForwardFE5_mvl/mxv
 BYTE   N36  Ds2  v100
 BYTE   W48
 BYTE   Fn2
 BYTE   W48
 BYTE   PEND 
//  #07 //005   ----------------------------------------
 BYTE   PATT
  POIN2 Label_01678728
//  #07 //006   ----------------------------------------
Label_01678747:
 BYTE   N60  Cn3  v100
 BYTE   W72
 BYTE   N24  As2
 BYTE   W24
 BYTE   PEND 
//  #07 //007   ----------------------------------------
Label_0167874F:
 BYTE   N48  As2  v100
 BYTE   W72
 BYTE   N24  Fn2
 BYTE   W24
 BYTE   PEND 
//  #07 //008   ----------------------------------------
Label_01678757:
 BYTE   N36  Gs2  v100
 BYTE   W48
 BYTE   Ds2
 BYTE   W48
 BYTE   PEND 
//  #07 //009   ----------------------------------------
Label_0167875E:
 BYTE   N36  Ds2  v100
 BYTE   W48
 BYTE   N18  Dn2
 BYTE   W24
 BYTE   Cn2
 BYTE   W24
 BYTE   PEND 
//  #07 //010   ----------------------------------------
 BYTE   TIE  Fn2
 BYTE   W96
//  #07 //011   ----------------------------------------
 BYTE   W84
 BYTE   EOT
 BYTE   W12
//  #07 //012   ----------------------------------------
 BYTE   PATT
  POIN2 Label_01678739
//  #07 //013   ----------------------------------------
 BYTE   PATT
  POIN2 Label_01678728
//  #07 //014   ----------------------------------------
 BYTE   PATT
  POIN2 Label_0167872F
//  #07 //015   ----------------------------------------
Label_0167877D:
 BYTE   N48  Gn2  v100
 BYTE   W72
 BYTE   N06
 BYTE   W12
 BYTE   Fn2
 BYTE   W12
 BYTE   PEND 
//  #07 //016   ----------------------------------------
Label_01678786:
 BYTE   N36  Ds2  v100
 BYTE   W48
 BYTE   Gs2
 BYTE   W48
 BYTE   PEND 
//  #07 //017   ----------------------------------------
Label_0167878D:
 BYTE   VOL   62*ForwardFE5_mvl/mxv
 BYTE   N36  Fn2  v100
 BYTE   W48
 BYTE   Dn2
 BYTE   W48
 BYTE   PEND 
//  #07 //018   ----------------------------------------
 BYTE   N84  Fn2
 BYTE   W96
//  #07 //019   ----------------------------------------
 BYTE   Ds2
 BYTE   W96
//  #07 //020   ----------------------------------------
Label_0167879B:
 BYTE   N36  Ds2  v100
 BYTE   W48
 BYTE   Cn3
 BYTE   W48
 BYTE   PEND 
//  #07 //021   ----------------------------------------
Label_016787A2:
 BYTE   N12  Bn2  v100
 BYTE   W24
 BYTE   Gn2
 BYTE   W24
 BYTE   N36
 BYTE   W48
 BYTE   PEND 
//  #07 //022   ----------------------------------------
Label_016787AB:
 BYTE   N36  Gs2  v100
 BYTE   W48
 BYTE   N12  Cn2
 BYTE   W24
 BYTE   N06  Dn2
 BYTE   W12
 BYTE   Ds2
 BYTE   W12
 BYTE   PEND 
//  #07 //023   ----------------------------------------
 BYTE   PATT
  POIN2 Label_0167872F
//  #07 //024   ----------------------------------------
Label_016787BD:
 BYTE   N36  Gn2  v100
 BYTE   W48
 BYTE   N18
 BYTE   W24
 BYTE   N06
 BYTE   W12
 BYTE   N06
 BYTE   W12
 BYTE   PEND 
//  #07 //025   ----------------------------------------
Label_016787C8:
 BYTE   N42  Gn2  v100
 BYTE   W48
 BYTE   N18
 BYTE   W24
 BYTE   Ds2
 BYTE   W24
 BYTE   PEND 
//  #07 //026   ----------------------------------------
Label_016787D1:
 BYTE   N36  An2  v100
 BYTE   W48
 BYTE   N30  Fn2
 BYTE   W36
 BYTE   N06
 BYTE   W12
 BYTE   PEND 
//  #07 //027   ----------------------------------------
Label_016787DB:
 BYTE   N36  Ds2  v100
 BYTE   W48
 BYTE   Fn2
 BYTE   W48
 BYTE   PEND 
//  #07 //028   ----------------------------------------
 BYTE   PATT
  POIN2 Label_01678739
//  #07 //029   ----------------------------------------
 BYTE   PATT
  POIN2 Label_01678728
//  #07 //030   ----------------------------------------
 BYTE   PATT
  POIN2 Label_0167872F
//  #07 //031   ----------------------------------------
 BYTE   N84  Gn2  v100
 BYTE   W96
//  #07 //032   ----------------------------------------
 BYTE   PATT
  POIN2 Label_01678739
//  #07 //033   ----------------------------------------
 BYTE   PATT
  POIN2 Label_01678728
//  #07 //034   ----------------------------------------
 BYTE   PATT
  POIN2 Label_01678747
//  #07 //035   ----------------------------------------
 BYTE   PATT
  POIN2 Label_0167874F
//  #07 //036   ----------------------------------------
 BYTE   PATT
  POIN2 Label_01678757
//  #07 //037   ----------------------------------------
 BYTE   PATT
  POIN2 Label_0167875E
//  #07 //038   ----------------------------------------
 BYTE   TIE  Fn2  v100
 BYTE   W96
//  #07 //039   ----------------------------------------
 BYTE   W84
 BYTE   EOT
 BYTE   W12
//  #07 //040   ----------------------------------------
 BYTE   PATT
  POIN2 Label_01678739
//  #07 //041   ----------------------------------------
 BYTE   PATT
  POIN2 Label_01678728
//  #07 //042   ----------------------------------------
 BYTE   PATT
  POIN2 Label_0167872F
//  #07 //043   ----------------------------------------
 BYTE   PATT
  POIN2 Label_0167877D
//  #07 //044   ----------------------------------------
 BYTE   PATT
  POIN2 Label_01678786
//  #07 //045   ----------------------------------------
 BYTE   PATT
  POIN2 Label_0167878D
//  #07 //046   ----------------------------------------
 BYTE   N84  Fn2  v100
 BYTE   W96
//  #07 //047   ----------------------------------------
 BYTE   Ds2
 BYTE   W96
//  #07 //048   ----------------------------------------
 BYTE   PATT
  POIN2 Label_0167879B
//  #07 //049   ----------------------------------------
 BYTE   PATT
  POIN2 Label_016787A2
//  #07 //050   ----------------------------------------
 BYTE   PATT
  POIN2 Label_016787AB
//  #07 //051   ----------------------------------------
 BYTE   PATT
  POIN2 Label_0167872F
//  #07 //052   ----------------------------------------
 BYTE   PATT
  POIN2 Label_016787BD
//  #07 //053   ----------------------------------------
 BYTE   PATT
  POIN2 Label_016787C8
//  #07 //054   ----------------------------------------
 BYTE   PATT
  POIN2 Label_016787D1
//  #07 //055   ----------------------------------------
 BYTE   PATT
  POIN2 Label_016787DB
//  #07 //056   ----------------------------------------
 BYTE   W24
 BYTE   GoTo
  POIN2 Label_0167871E
 BYTE   FINE

//**************** Track 8 (Midi-Chn.7) ****************//

ForwardFE5_008:
//  #08 //000   ----------------------------------------
 BYTE   KEYSH   ForwardFE5_key+0
Label_01678872:
 BYTE   VOICE   42
 BYTE   VOL   55*ForwardFE5_mvl/mxv
 BYTE   N12  Ds2  v100
 BYTE   W12
 BYTE   N24
 BYTE   W36
 BYTE   N24
 BYTE   W36
 BYTE   N12
 BYTE   W12
//  #08 //001   ----------------------------------------
Label_01678880:
 BYTE   N12  Ds2  v100
 BYTE   W12
 BYTE   N24
 BYTE   W36
 BYTE   N24
 BYTE   W36
 BYTE   N12
 BYTE   W12
 BYTE   PEND 
//  #08 //002   ----------------------------------------
 BYTE   PATT
  POIN2 Label_01678880
//  #08 //003   ----------------------------------------
 BYTE   PATT
  POIN2 Label_01678880
//  #08 //004   ----------------------------------------
 BYTE   PATT
  POIN2 Label_01678880
//  #08 //005   ----------------------------------------
 BYTE   PATT
  POIN2 Label_01678880
//  #08 //006   ----------------------------------------
Label_0167889F:
 BYTE   N12  Gs2  v100
 BYTE   W12
 BYTE   N24
 BYTE   W36
 BYTE   N24
 BYTE   W36
 BYTE   N12
 BYTE   W12
 BYTE   PEND 
//  #08 //007   ----------------------------------------
Label_016788AA:
 BYTE   N12  Ds2  v100
 BYTE   W12
 BYTE   N24
 BYTE   W24
 BYTE   N12
 BYTE   W12
 BYTE   N24
 BYTE   W24
 BYTE   Dn2
 BYTE   W24
 BYTE   PEND 
//  #08 //008   ----------------------------------------
Label_016788B7:
 BYTE   N84  Cn2  v100
 BYTE   W84
 BYTE   N12  As1
 BYTE   W12
 BYTE   PEND 
//  #08 //009   ----------------------------------------
Label_016788BF:
 BYTE   N72  Gs1  v100
 BYTE   W72
 BYTE   N24  An1
 BYTE   W24
 BYTE   PEND 
//  #08 //010   ----------------------------------------
Label_016788C7:
 BYTE   N84  As1  v100
 BYTE   W84
 BYTE   N12  Fn2
 BYTE   W12
 BYTE   PEND 
//  #08 //011   ----------------------------------------
 BYTE   N96  As2
 BYTE   W96
//  #08 //012   ----------------------------------------
 BYTE   PATT
  POIN2 Label_01678880
//  #08 //013   ----------------------------------------
 BYTE   PATT
  POIN2 Label_01678880
//  #08 //014   ----------------------------------------
Label_016788DC:
 BYTE   N12  Cn2  v100
 BYTE   W12
 BYTE   N24
 BYTE   W36
 BYTE   Dn2
 BYTE   W36
 BYTE   N12
 BYTE   W12
 BYTE   PEND 
//  #08 //015   ----------------------------------------
Label_016788E7:
 BYTE   N12  Ds2  v100
 BYTE   W12
 BYTE   N24
 BYTE   W36
 BYTE   N24
 BYTE   W24
 BYTE   Dn2
 BYTE   W24
 BYTE   PEND 
//  #08 //016   ----------------------------------------
 BYTE   N96  Cn2
 BYTE   W96
//  #08 //017   ----------------------------------------
 BYTE   Gs1
 BYTE   W96
//  #08 //018   ----------------------------------------
 BYTE   As1
 BYTE   W96
//  #08 //019   ----------------------------------------
Label_016788F9:
 BYTE   N24  Ds2  v100
 BYTE   W36
 BYTE   N06
 BYTE   W06
 BYTE   N06
 BYTE   W06
 BYTE   N12
 BYTE   W12
 BYTE   N24
 BYTE   W36
 BYTE   PEND 
//  #08 //020   ----------------------------------------
 BYTE   N96  Gs1
 BYTE   W96
//  #08 //021   ----------------------------------------
Label_01678909:
 BYTE   N48  Gn1  v100
 BYTE   W48
 BYTE   N24  Cn2
 BYTE   W24
 BYTE   As1
 BYTE   W24
 BYTE   PEND 
//  #08 //022   ----------------------------------------
 BYTE   N96  Gs1
 BYTE   W96
//  #08 //023   ----------------------------------------
 BYTE   As1
 BYTE   W96
//  #08 //024   ----------------------------------------
 BYTE   Gn1
 BYTE   W96
//  #08 //025   ----------------------------------------
Label_0167891A:
 BYTE   N48  Cn2  v100
 BYTE   W48
 BYTE   N24  Bn1
 BYTE   W24
 BYTE   As1
 BYTE   W24
 BYTE   PEND 
//  #08 //026   ----------------------------------------
 BYTE   N96  An1
 BYTE   W96
//  #08 //027   ----------------------------------------
 BYTE   As1
 BYTE   W96
//  #08 //028   ----------------------------------------
 BYTE   PATT
  POIN2 Label_01678880
//  #08 //029   ----------------------------------------
 BYTE   PATT
  POIN2 Label_01678880
//  #08 //030   ----------------------------------------
 BYTE   PATT
  POIN2 Label_01678880
//  #08 //031   ----------------------------------------
 BYTE   PATT
  POIN2 Label_01678880
//  #08 //032   ----------------------------------------
 BYTE   PATT
  POIN2 Label_01678880
//  #08 //033   ----------------------------------------
 BYTE   PATT
  POIN2 Label_01678880
//  #08 //034   ----------------------------------------
 BYTE   PATT
  POIN2 Label_0167889F
//  #08 //035   ----------------------------------------
 BYTE   PATT
  POIN2 Label_016788AA
//  #08 //036   ----------------------------------------
 BYTE   PATT
  POIN2 Label_016788B7
//  #08 //037   ----------------------------------------
 BYTE   PATT
  POIN2 Label_016788BF
//  #08 //038   ----------------------------------------
 BYTE   PATT
  POIN2 Label_016788C7
//  #08 //039   ----------------------------------------
 BYTE   N96  As2  v100
 BYTE   W96
//  #08 //040   ----------------------------------------
 BYTE   PATT
  POIN2 Label_01678880
//  #08 //041   ----------------------------------------
 BYTE   PATT
  POIN2 Label_01678880
//  #08 //042   ----------------------------------------
 BYTE   PATT
  POIN2 Label_016788DC
//  #08 //043   ----------------------------------------
 BYTE   PATT
  POIN2 Label_016788E7
//  #08 //044   ----------------------------------------
 BYTE   N96  Cn2  v100
 BYTE   W96
//  #08 //045   ----------------------------------------
 BYTE   Gs1
 BYTE   W96
//  #08 //046   ----------------------------------------
 BYTE   As1
 BYTE   W96
//  #08 //047   ----------------------------------------
 BYTE   PATT
  POIN2 Label_016788F9
//  #08 //048   ----------------------------------------
 BYTE   N96  Gs1  v100
 BYTE   W96
//  #08 //049   ----------------------------------------
 BYTE   PATT
  POIN2 Label_01678909
//  #08 //050   ----------------------------------------
 BYTE   N96  Gs1  v100
 BYTE   W96
//  #08 //051   ----------------------------------------
 BYTE   As1
 BYTE   W96
//  #08 //052   ----------------------------------------
 BYTE   Gn1
 BYTE   W96
//  #08 //053   ----------------------------------------
 BYTE   PATT
  POIN2 Label_0167891A
//  #08 //054   ----------------------------------------
 BYTE   N96  An1  v100
 BYTE   W96
//  #08 //055   ----------------------------------------
 BYTE   As1
 BYTE   W96
//  #08 //056   ----------------------------------------
 BYTE   W24
 BYTE   GoTo
  POIN2 Label_01678872
 BYTE   FINE

//**************** Track 9 (Midi-Chn.8) ****************//

ForwardFE5_009:
//  #09 //000   ----------------------------------------
 BYTE   KEYSH   ForwardFE5_key+0
Label_016789AA:
 BYTE   VOICE   124
 BYTE   VOL   47*ForwardFE5_mvl/mxv
 BYTE   N06  Gn2  v060
 BYTE   N06  An2  v108
 BYTE   W48
 BYTE   Dn1  v100
 BYTE   N06  En1  v076
 BYTE   W12
 BYTE   Dn1  v100
 BYTE   N06  En1  v076
 BYTE   W36
//  #09 //001   ----------------------------------------
Label_016789C1:
 BYTE   N06  Dn1  v100
 BYTE   N06  En1  v076
 BYTE   W36
 BYTE   Dn1  v100
 BYTE   N06  En1  v076
 BYTE   W06
 BYTE   Dn1  v100
 BYTE   N06  En1  v076
 BYTE   W06
 BYTE   Dn1  v100
 BYTE   N06  En1  v076
 BYTE   W12
 BYTE   Dn1  v100
 BYTE   N06  En1  v076
 BYTE   W36
 BYTE   PEND 
//  #09 //002   ----------------------------------------
Label_016789E1:
 BYTE   N06  Dn1  v100
 BYTE   N06  En1  v076
 BYTE   W48
 BYTE   Dn1  v100
 BYTE   N06  En1  v076
 BYTE   W12
 BYTE   Dn1  v100
 BYTE   N06  En1  v076
 BYTE   W36
 BYTE   PEND 
//  #09 //003   ----------------------------------------
Label_016789F5:
 BYTE   N06  Dn1  v100
 BYTE   N06  En1  v076
 BYTE   W36
 BYTE   Dn1  v100
 BYTE   N06  En1  v076
 BYTE   W06
 BYTE   Dn1  v100
 BYTE   N06  En1  v076
 BYTE   W06
 BYTE   Dn1  v100
 BYTE   N06  En1  v076
 BYTE   W12
 BYTE   Dn1  v100
 BYTE   N06  En1  v076
 BYTE   W24
 BYTE   Dn1  v100
 BYTE   N06  En1  v076
 BYTE   W06
 BYTE   Dn1  v100
 BYTE   N06  En1  v076
 BYTE   W06
 BYTE   PEND 
//  #09 //004   ----------------------------------------
 BYTE   PATT
  POIN2 Label_016789E1
//  #09 //005   ----------------------------------------
 BYTE   PATT
  POIN2 Label_016789C1
//  #09 //006   ----------------------------------------
 BYTE   PATT
  POIN2 Label_016789E1
//  #09 //007   ----------------------------------------
 BYTE   PATT
  POIN2 Label_016789F5
//  #09 //008   ----------------------------------------
 BYTE   PATT
  POIN2 Label_016789E1
//  #09 //009   ----------------------------------------
 BYTE   PATT
  POIN2 Label_016789C1
//  #09 //010   ----------------------------------------
 BYTE   PATT
  POIN2 Label_016789E1
//  #09 //011   ----------------------------------------
 BYTE   PATT
  POIN2 Label_016789F5
//  #09 //012   ----------------------------------------
 BYTE   PATT
  POIN2 Label_016789E1
//  #09 //013   ----------------------------------------
 BYTE   PATT
  POIN2 Label_016789C1
//  #09 //014   ----------------------------------------
 BYTE   PATT
  POIN2 Label_016789E1
//  #09 //015   ----------------------------------------
 BYTE   PATT
  POIN2 Label_016789F5
//  #09 //016   ----------------------------------------
 BYTE   PATT
  POIN2 Label_016789E1
//  #09 //017   ----------------------------------------
 BYTE   PATT
  POIN2 Label_016789C1
//  #09 //018   ----------------------------------------
 BYTE   PATT
  POIN2 Label_016789E1
//  #09 //019   ----------------------------------------
 BYTE   PATT
  POIN2 Label_016789F5
//  #09 //020   ----------------------------------------
 BYTE   PATT
  POIN2 Label_016789E1
//  #09 //021   ----------------------------------------
 BYTE   PATT
  POIN2 Label_016789C1
//  #09 //022   ----------------------------------------
 BYTE   PATT
  POIN2 Label_016789E1
//  #09 //023   ----------------------------------------
 BYTE   PATT
  POIN2 Label_016789F5
//  #09 //024   ----------------------------------------
 BYTE   PATT
  POIN2 Label_016789E1
//  #09 //025   ----------------------------------------
 BYTE   PATT
  POIN2 Label_016789C1
//  #09 //026   ----------------------------------------
 BYTE   PATT
  POIN2 Label_016789E1
//  #09 //027   ----------------------------------------
 BYTE   PATT
  POIN2 Label_016789F5
//  #09 //028   ----------------------------------------
 BYTE   N06  Gn2  v060
 BYTE   N06  An2  v108
 BYTE   W48
 BYTE   Dn1  v100
 BYTE   N06  En1  v076
 BYTE   W12
 BYTE   Dn1  v100
 BYTE   N06  En1  v076
 BYTE   W36
//  #09 //029   ----------------------------------------
 BYTE   PATT
  POIN2 Label_016789C1
//  #09 //030   ----------------------------------------
 BYTE   PATT
  POIN2 Label_016789E1
//  #09 //031   ----------------------------------------
 BYTE   PATT
  POIN2 Label_016789F5
//  #09 //032   ----------------------------------------
 BYTE   PATT
  POIN2 Label_016789E1
//  #09 //033   ----------------------------------------
 BYTE   PATT
  POIN2 Label_016789C1
//  #09 //034   ----------------------------------------
 BYTE   PATT
  POIN2 Label_016789E1
//  #09 //035   ----------------------------------------
 BYTE   PATT
  POIN2 Label_016789F5
//  #09 //036   ----------------------------------------
 BYTE   PATT
  POIN2 Label_016789E1
//  #09 //037   ----------------------------------------
 BYTE   PATT
  POIN2 Label_016789C1
//  #09 //038   ----------------------------------------
 BYTE   PATT
  POIN2 Label_016789E1
//  #09 //039   ----------------------------------------
 BYTE   PATT
  POIN2 Label_016789F5
//  #09 //040   ----------------------------------------
 BYTE   PATT
  POIN2 Label_016789E1
//  #09 //041   ----------------------------------------
 BYTE   PATT
  POIN2 Label_016789C1
//  #09 //042   ----------------------------------------
 BYTE   PATT
  POIN2 Label_016789E1
//  #09 //043   ----------------------------------------
 BYTE   PATT
  POIN2 Label_016789F5
//  #09 //044   ----------------------------------------
 BYTE   PATT
  POIN2 Label_016789E1
//  #09 //045   ----------------------------------------
 BYTE   PATT
  POIN2 Label_016789C1
//  #09 //046   ----------------------------------------
 BYTE   PATT
  POIN2 Label_016789E1
//  #09 //047   ----------------------------------------
 BYTE   PATT
  POIN2 Label_016789F5
//  #09 //048   ----------------------------------------
 BYTE   PATT
  POIN2 Label_016789E1
//  #09 //049   ----------------------------------------
 BYTE   PATT
  POIN2 Label_016789C1
//  #09 //050   ----------------------------------------
 BYTE   PATT
  POIN2 Label_016789E1
//  #09 //051   ----------------------------------------
 BYTE   PATT
  POIN2 Label_016789F5
//  #09 //052   ----------------------------------------
 BYTE   PATT
  POIN2 Label_016789E1
//  #09 //053   ----------------------------------------
 BYTE   PATT
  POIN2 Label_016789C1
//  #09 //054   ----------------------------------------
 BYTE   PATT
  POIN2 Label_016789E1
//  #09 //055   ----------------------------------------
 BYTE   PATT
  POIN2 Label_016789F5
//  #09 //056   ----------------------------------------
 BYTE   W24
 BYTE   GoTo
  POIN2 Label_016789AA
 BYTE   FINE

//******************************************************//
	ALIGN 4

ForwardFE5:
	BYTE	9	// NumTrks
	BYTE	0	// NumBlks
	BYTE	ForwardFE5_pri	// Priority
	BYTE	ForwardFE5_rev	// Reverb.
    
	POIN2	ForwardFE5_grp
    
	POIN2	ForwardFE5_001
	POIN2	ForwardFE5_002
	POIN2	ForwardFE5_003
	POIN2	ForwardFE5_004
	POIN2	ForwardFE5_005
	POIN2	ForwardFE5_006
	POIN2	ForwardFE5_007
	POIN2	ForwardFE5_008
	POIN2	ForwardFE5_009

	
