//Event file generated from Sappy .s format.
	

	#define	GundamnF19Act12_grp  voicegroup000
	#define	GundamnF19Act12_pri  10
	#define	GundamnF19Act12_rev  0
	#define	GundamnF19Act12_mvl  127
	#define	GundamnF19Act12_key  0
	#define	GundamnF19Act12_tbs  1
	#define	GundamnF19Act12_exg  0
	#define	GundamnF19Act12_cmp  1

	// .rodata
	//	GundamnF19Act12
	ALIGN 4


//**************** Track 1 (Midi-Chn.0) ****************//

GundamnF19Act12_001:
//  #01 //000   ----------------------------------------
Label_014B738C:
 BYTE   TEMPO   300*GundamnF19Act12_tbs/2
 BYTE   KEYSH   GundamnF19Act12_key+0
 BYTE   VOICE   34
 BYTE   VOL   66*GundamnF19Act12_mvl/mxv
 BYTE   PAN   c_v+0
 BYTE   W06
 BYTE   TEMPO   160*GundamnF19Act12_tbs/2
 BYTE   N09  Bn0  v127
 BYTE   W12
 BYTE   N04
 BYTE   W06
 BYTE   Bn0
 BYTE   W06
 BYTE   N09
 BYTE   W12
 BYTE   N04
 BYTE   W06
 BYTE   Bn0
 BYTE   W06
 BYTE   N09
 BYTE   W12
 BYTE   N04
 BYTE   W06
 BYTE   Bn0
 BYTE   W06
 BYTE   N09
 BYTE   W12
 BYTE   N04
 BYTE   W06
//  #01 //001   ----------------------------------------
Label_014B73B1:
 BYTE   N04  Bn0  v127
 BYTE   W06
 BYTE   N09
 BYTE   W12
 BYTE   N04
 BYTE   W06
 BYTE   Bn0
 BYTE   W06
 BYTE   N09
 BYTE   W12
 BYTE   N04
 BYTE   W06
 BYTE   Bn0
 BYTE   W06
 BYTE   N09
 BYTE   W12
 BYTE   N04
 BYTE   W06
 BYTE   Bn0
 BYTE   W06
 BYTE   N09
 BYTE   W12
 BYTE   N04
 BYTE   W06
 BYTE   PEND 
//  #01 //002   ----------------------------------------
 BYTE   PATT
  POIN2 Label_014B73B1
//  #01 //003   ----------------------------------------
 BYTE   PATT
  POIN2 Label_014B73B1
//  #01 //004   ----------------------------------------
 BYTE   PATT
  POIN2 Label_014B73B1
//  #01 //005   ----------------------------------------
 BYTE   N04  Bn0  v127
 BYTE   W06
 BYTE   N09  An0
 BYTE   W12
 BYTE   N04
 BYTE   W06
 BYTE   An0
 BYTE   W06
 BYTE   N09
 BYTE   W12
 BYTE   N04
 BYTE   W06
 BYTE   An0
 BYTE   W06
 BYTE   N09
 BYTE   W12
 BYTE   N04
 BYTE   W06
 BYTE   An0
 BYTE   W06
 BYTE   N09
 BYTE   W12
 BYTE   N04
 BYTE   W06
//  #01 //006   ----------------------------------------
 BYTE   An0
 BYTE   W06
 BYTE   N09  Gs0
 BYTE   W12
 BYTE   N04
 BYTE   W06
 BYTE   Gs0
 BYTE   W06
 BYTE   N09
 BYTE   W12
 BYTE   N04
 BYTE   W06
 BYTE   Gs0
 BYTE   W06
 BYTE   N09
 BYTE   W12
 BYTE   N04
 BYTE   W06
 BYTE   Gs0
 BYTE   W06
 BYTE   N09
 BYTE   W12
 BYTE   N22  Gn0
 BYTE   W24
//  #01 //007   ----------------------------------------
 BYTE   N10  Dn0
 BYTE   W12
 BYTE   Gn0
 BYTE   W12
 BYTE   N22  An0
 BYTE   W24
 BYTE   N10  En0
 BYTE   W12
 BYTE   An0
 BYTE   W12
 BYTE   N04
 BYTE   W06
 BYTE   An0
 BYTE   W06
 BYTE   N09  Bn0
 BYTE   W12
//  #01 //008   ----------------------------------------
Label_014B7424:
 BYTE   N04  Bn0  v127
 BYTE   W06
 BYTE   Bn0
 BYTE   W06
 BYTE   N09
 BYTE   W12
 BYTE   N04
 BYTE   W06
 BYTE   Bn0
 BYTE   W06
 BYTE   N09
 BYTE   W12
 BYTE   N04
 BYTE   W06
 BYTE   Bn0
 BYTE   W06
 BYTE   N09
 BYTE   W12
 BYTE   N04
 BYTE   W06
 BYTE   Bn0
 BYTE   W06
 BYTE   N09  An0
 BYTE   W12
 BYTE   PEND 
//  #01 //009   ----------------------------------------
Label_014B7440:
 BYTE   N04  An0  v127
 BYTE   W06
 BYTE   An0
 BYTE   W06
 BYTE   N09
 BYTE   W12
 BYTE   N04
 BYTE   W06
 BYTE   An0
 BYTE   W06
 BYTE   N09
 BYTE   W12
 BYTE   N04
 BYTE   W06
 BYTE   An0
 BYTE   W06
 BYTE   N09
 BYTE   W12
 BYTE   N04
 BYTE   W06
 BYTE   An0
 BYTE   W06
 BYTE   N09  Gs0
 BYTE   W12
 BYTE   PEND 
//  #01 //010   ----------------------------------------
Label_014B745C:
 BYTE   N04  Gs0  v127
 BYTE   W06
 BYTE   Gs0
 BYTE   W06
 BYTE   N09
 BYTE   W12
 BYTE   N04
 BYTE   W06
 BYTE   Gs0
 BYTE   W06
 BYTE   N09
 BYTE   W12
 BYTE   N04
 BYTE   W06
 BYTE   Gs0
 BYTE   W06
 BYTE   N09
 BYTE   W12
 BYTE   N04
 BYTE   W06
 BYTE   Gs0
 BYTE   W06
 BYTE   N10  Gn0
 BYTE   W12
 BYTE   PEND 
//  #01 //011   ----------------------------------------
 BYTE   N10  Dn0  v127
 BYTE   W12
 BYTE   Gn0
 BYTE   W12
 BYTE   N22  An0
 BYTE   W24
 BYTE   N10  En0
 BYTE   W12
 BYTE   N22  An0
 BYTE   W24
 BYTE   N09  Bn0
 BYTE   W12
//  #01 //012   ----------------------------------------
 BYTE   PATT
  POIN2 Label_014B7424
//  #01 //013   ----------------------------------------
 BYTE   PATT
  POIN2 Label_014B7440
//  #01 //014   ----------------------------------------
 BYTE   PATT
  POIN2 Label_014B745C
//  #01 //015   ----------------------------------------
 BYTE   N10  Dn0  v127
 BYTE   W12
 BYTE   Gn0
 BYTE   W12
 BYTE   N22  An0
 BYTE   W24
 BYTE   N10  En0
 BYTE   W12
 BYTE   N22  An0
 BYTE   W24
 BYTE   N09  Gn0
 BYTE   W12
//  #01 //016   ----------------------------------------
Label_014B74AB:
 BYTE   N04  Gn0  v127
 BYTE   W06
 BYTE   Gn0
 BYTE   W06
 BYTE   N09
 BYTE   W12
 BYTE   N04
 BYTE   W06
 BYTE   Gn0
 BYTE   W06
 BYTE   N09
 BYTE   W12
 BYTE   N04
 BYTE   W06
 BYTE   Gn0
 BYTE   W06
 BYTE   N09
 BYTE   W12
 BYTE   N04
 BYTE   W06
 BYTE   Gn0
 BYTE   W06
 BYTE   N09
 BYTE   W12
 BYTE   PEND 
//  #01 //017   ----------------------------------------
Label_014B74C6:
 BYTE   N04  Gn0  v127
 BYTE   W06
 BYTE   Gn0
 BYTE   W06
 BYTE   N09
 BYTE   W12
 BYTE   N04
 BYTE   W06
 BYTE   Gn0
 BYTE   W06
 BYTE   N09
 BYTE   W12
 BYTE   N04
 BYTE   W06
 BYTE   Gn0
 BYTE   W06
 BYTE   N09
 BYTE   W12
 BYTE   N04
 BYTE   W06
 BYTE   Gn0
 BYTE   W06
 BYTE   N09  An0
 BYTE   W12
 BYTE   PEND 
//  #01 //018   ----------------------------------------
Label_014B74E2:
 BYTE   N04  An0  v127
 BYTE   W06
 BYTE   An0
 BYTE   W06
 BYTE   N09
 BYTE   W12
 BYTE   N04
 BYTE   W06
 BYTE   An0
 BYTE   W06
 BYTE   N09
 BYTE   W12
 BYTE   N04
 BYTE   W06
 BYTE   An0
 BYTE   W06
 BYTE   N09
 BYTE   W12
 BYTE   N04
 BYTE   W06
 BYTE   An0
 BYTE   W06
 BYTE   N09
 BYTE   W12
 BYTE   PEND 
//  #01 //019   ----------------------------------------
 BYTE   N04  An0  v127
 BYTE   W06
 BYTE   An0
 BYTE   W06
 BYTE   N09
 BYTE   W12
 BYTE   N04
 BYTE   W06
 BYTE   An0
 BYTE   W06
 BYTE   N09
 BYTE   W12
 BYTE   N04
 BYTE   W06
 BYTE   An0
 BYTE   W06
 BYTE   N09
 BYTE   W12
 BYTE   N04
 BYTE   W06
 BYTE   An0
 BYTE   W06
 BYTE   N09  Gn0
 BYTE   W12
//  #01 //020   ----------------------------------------
 BYTE   PATT
  POIN2 Label_014B74AB
//  #01 //021   ----------------------------------------
 BYTE   PATT
  POIN2 Label_014B74C6
//  #01 //022   ----------------------------------------
 BYTE   PATT
  POIN2 Label_014B74E2
//  #01 //023   ----------------------------------------
 BYTE   N04  An0  v127
 BYTE   W06
 BYTE   An0
 BYTE   W06
 BYTE   N09
 BYTE   W12
 BYTE   N04
 BYTE   W06
 BYTE   An0
 BYTE   W06
 BYTE   N09
 BYTE   W12
 BYTE   N04
 BYTE   W06
 BYTE   An0
 BYTE   W06
 BYTE   N09
 BYTE   W12
 BYTE   N04
 BYTE   W06
 BYTE   An0
 BYTE   W06
 BYTE   N10  Bn0
 BYTE   W12
//  #01 //024   ----------------------------------------
Label_014B7542:
 BYTE   N10  Dn1  v127
 BYTE   W12
 BYTE   Fs1
 BYTE   W12
 BYTE   N22  An0
 BYTE   W24
 BYTE   N10  Cs1
 BYTE   W12
 BYTE   En1
 BYTE   W12
 BYTE   N22  Gn0
 BYTE   W24
 BYTE   PEND 
//  #01 //025   ----------------------------------------
 BYTE   N10  Bn0  v127
 BYTE   W12
 BYTE   Dn1
 BYTE   W12
 BYTE   N22  An0
 BYTE   W24
 BYTE   N10  Cs1
 BYTE   W12
 BYTE   N22  En1
 BYTE   W24
 BYTE   N10  Bn0
 BYTE   W12
//  #01 //026   ----------------------------------------
 BYTE   PATT
  POIN2 Label_014B7542
//  #01 //027   ----------------------------------------
 BYTE   N10  Bn0  v127
 BYTE   W12
 BYTE   Dn1
 BYTE   W12
 BYTE   N22  An0
 BYTE   W24
 BYTE   N10  Cs1
 BYTE   W12
 BYTE   N22  En1
 BYTE   W24
 BYTE   N16  Fs0
 BYTE   W18
//  #01 //028   ----------------------------------------
 BYTE   Fs0
 BYTE   W18
 BYTE   N10
 BYTE   W60
 BYTE   N09  Bn0
 BYTE   W12
 BYTE   N04
 BYTE   W06
//  #01 //029   ----------------------------------------
 BYTE   PATT
  POIN2 Label_014B73B1
//  #01 //030   ----------------------------------------
 BYTE   PATT
  POIN2 Label_014B73B1
//  #01 //031   ----------------------------------------
 BYTE   PATT
  POIN2 Label_014B73B1
//  #01 //032   ----------------------------------------
 BYTE   PATT
  POIN2 Label_014B73B1
//  #01 //033   ----------------------------------------
 BYTE   N04  Bn0  v127
 BYTE   W06
 BYTE   N09
 BYTE   W12
 BYTE   N04
 BYTE   W06
 BYTE   Bn0
 BYTE   W06
 BYTE   N09
 BYTE   W12
 BYTE   N04
 BYTE   W06
 BYTE   Bn0
 BYTE   W06
 BYTE   N09
 BYTE   W12
 BYTE   N04
 BYTE   W06
 BYTE   Bn0
 BYTE   W06
 BYTE   N09  An0
 BYTE   W12
 BYTE   N04
 BYTE   W06
//  #01 //034   ----------------------------------------
 BYTE   An0
 BYTE   W06
 BYTE   N09
 BYTE   W12
 BYTE   N04
 BYTE   W06
 BYTE   An0
 BYTE   W06
 BYTE   N09
 BYTE   W12
 BYTE   N04
 BYTE   W06
 BYTE   An0
 BYTE   W06
 BYTE   N09
 BYTE   W12
 BYTE   N04
 BYTE   W06
 BYTE   An0
 BYTE   W06
 BYTE   N09  Gs0
 BYTE   W12
 BYTE   N04
 BYTE   W06
//  #01 //035   ----------------------------------------
 BYTE   Gs0
 BYTE   W06
 BYTE   N09
 BYTE   W12
 BYTE   N04
 BYTE   W06
 BYTE   Gs0
 BYTE   W06
 BYTE   N09
 BYTE   W12
 BYTE   N04
 BYTE   W06
 BYTE   Gs0
 BYTE   W06
 BYTE   N09
 BYTE   W12
 BYTE   N22  Gn0
 BYTE   W24
 BYTE   N10  Dn0
 BYTE   W12
//  #01 //036   ----------------------------------------
 BYTE   Gn0
 BYTE   W12
 BYTE   N22  An0
 BYTE   W24
 BYTE   N10  En0
 BYTE   W12
 BYTE   An0
 BYTE   W12
 BYTE   N04
 BYTE   W06
 BYTE   An0
 BYTE   W06
 BYTE   N09  Bn0
 BYTE   W12
 BYTE   N04
 BYTE   W06
 BYTE   Bn0
 BYTE   W06
//  #01 //037   ----------------------------------------
Label_014B75F9:
 BYTE   N09  Bn0  v127
 BYTE   W12
 BYTE   N04
 BYTE   W06
 BYTE   Bn0
 BYTE   W06
 BYTE   N09
 BYTE   W12
 BYTE   N04
 BYTE   W06
 BYTE   Bn0
 BYTE   W06
 BYTE   N09
 BYTE   W12
 BYTE   N04
 BYTE   W06
 BYTE   Bn0
 BYTE   W06
 BYTE   N09  An0
 BYTE   W12
 BYTE   N04
 BYTE   W06
 BYTE   An0
 BYTE   W06
 BYTE   PEND 
//  #01 //038   ----------------------------------------
Label_014B7615:
 BYTE   N09  An0  v127
 BYTE   W12
 BYTE   N04
 BYTE   W06
 BYTE   An0
 BYTE   W06
 BYTE   N09
 BYTE   W12
 BYTE   N04
 BYTE   W06
 BYTE   An0
 BYTE   W06
 BYTE   N09
 BYTE   W12
 BYTE   N04
 BYTE   W06
 BYTE   An0
 BYTE   W06
 BYTE   N09  Gs0
 BYTE   W12
 BYTE   N04
 BYTE   W06
 BYTE   Gs0
 BYTE   W06
 BYTE   PEND 
//  #01 //039   ----------------------------------------
Label_014B7631:
 BYTE   N09  Gs0  v127
 BYTE   W12
 BYTE   N04
 BYTE   W06
 BYTE   Gs0
 BYTE   W06
 BYTE   N09
 BYTE   W12
 BYTE   N04
 BYTE   W06
 BYTE   Gs0
 BYTE   W06
 BYTE   N09
 BYTE   W12
 BYTE   N04
 BYTE   W06
 BYTE   Gs0
 BYTE   W06
 BYTE   N10  Gn0
 BYTE   W12
 BYTE   Dn0
 BYTE   W12
 BYTE   PEND 
//  #01 //040   ----------------------------------------
 BYTE   N10  Gn0  v127
 BYTE   W12
 BYTE   N22  An0
 BYTE   W24
 BYTE   N10  En0
 BYTE   W12
 BYTE   N22  An0
 BYTE   W24
 BYTE   N09  Bn0
 BYTE   W12
 BYTE   N04
 BYTE   W06
 BYTE   Bn0
 BYTE   W06
//  #01 //041   ----------------------------------------
 BYTE   PATT
  POIN2 Label_014B75F9
//  #01 //042   ----------------------------------------
 BYTE   PATT
  POIN2 Label_014B7615
//  #01 //043   ----------------------------------------
 BYTE   PATT
  POIN2 Label_014B7631
//  #01 //044   ----------------------------------------
 BYTE   N10  Gn0  v127
 BYTE   W12
 BYTE   N22  An0
 BYTE   W24
 BYTE   N10  En0
 BYTE   W12
 BYTE   N22  An0
 BYTE   W24
 BYTE   N09  Gn0
 BYTE   W12
 BYTE   N04
 BYTE   W06
 BYTE   Gn0
 BYTE   W06
//  #01 //045   ----------------------------------------
Label_014B7682:
 BYTE   N09  Gn0  v127
 BYTE   W12
 BYTE   N04
 BYTE   W06
 BYTE   Gn0
 BYTE   W06
 BYTE   N09
 BYTE   W12
 BYTE   N04
 BYTE   W06
 BYTE   Gn0
 BYTE   W06
 BYTE   N09
 BYTE   W12
 BYTE   N04
 BYTE   W06
 BYTE   Gn0
 BYTE   W06
 BYTE   N09
 BYTE   W12
 BYTE   N04
 BYTE   W06
 BYTE   Gn0
 BYTE   W06
 BYTE   PEND 
//  #01 //046   ----------------------------------------
Label_014B769D:
 BYTE   N09  Gn0  v127
 BYTE   W12
 BYTE   N04
 BYTE   W06
 BYTE   Gn0
 BYTE   W06
 BYTE   N09
 BYTE   W12
 BYTE   N04
 BYTE   W06
 BYTE   Gn0
 BYTE   W06
 BYTE   N09
 BYTE   W12
 BYTE   N04
 BYTE   W06
 BYTE   Gn0
 BYTE   W06
 BYTE   N09  An0
 BYTE   W12
 BYTE   N04
 BYTE   W06
 BYTE   An0
 BYTE   W06
 BYTE   PEND 
//  #01 //047   ----------------------------------------
Label_014B76B9:
 BYTE   N09  An0  v127
 BYTE   W12
 BYTE   N04
 BYTE   W06
 BYTE   An0
 BYTE   W06
 BYTE   N09
 BYTE   W12
 BYTE   N04
 BYTE   W06
 BYTE   An0
 BYTE   W06
 BYTE   N09
 BYTE   W12
 BYTE   N04
 BYTE   W06
 BYTE   An0
 BYTE   W06
 BYTE   N09
 BYTE   W12
 BYTE   N04
 BYTE   W06
 BYTE   An0
 BYTE   W06
 BYTE   PEND 
//  #01 //048   ----------------------------------------
 BYTE   N09  An0  v127
 BYTE   W12
 BYTE   N04
 BYTE   W06
 BYTE   An0
 BYTE   W06
 BYTE   N09
 BYTE   W12
 BYTE   N04
 BYTE   W06
 BYTE   An0
 BYTE   W06
 BYTE   N09
 BYTE   W12
 BYTE   N04
 BYTE   W06
 BYTE   An0
 BYTE   W06
 BYTE   N09  Gn0
 BYTE   W12
 BYTE   N04
 BYTE   W06
 BYTE   Gn0
 BYTE   W06
//  #01 //049   ----------------------------------------
 BYTE   PATT
  POIN2 Label_014B7682
//  #01 //050   ----------------------------------------
 BYTE   PATT
  POIN2 Label_014B769D
//  #01 //051   ----------------------------------------
 BYTE   PATT
  POIN2 Label_014B76B9
//  #01 //052   ----------------------------------------
 BYTE   N09  An0  v127
 BYTE   W12
 BYTE   N04
 BYTE   W06
 BYTE   An0
 BYTE   W06
 BYTE   N09
 BYTE   W12
 BYTE   N04
 BYTE   W06
 BYTE   An0
 BYTE   W06
 BYTE   N09
 BYTE   W12
 BYTE   N04
 BYTE   W06
 BYTE   An0
 BYTE   W06
 BYTE   N10  Bn0
 BYTE   W12
 BYTE   Dn1
 BYTE   W12
//  #01 //053   ----------------------------------------
Label_014B7717:
 BYTE   N10  Fs1  v127
 BYTE   W12
 BYTE   N22  An0
 BYTE   W24
 BYTE   N10  Cs1
 BYTE   W12
 BYTE   En1
 BYTE   W12
 BYTE   N22  Gn0
 BYTE   W24
 BYTE   N10  Bn0
 BYTE   W12
 BYTE   PEND 
//  #01 //054   ----------------------------------------
 BYTE   N10  Dn1  v127
 BYTE   W12
 BYTE   N22  An0
 BYTE   W24
 BYTE   N10  Cs1
 BYTE   W12
 BYTE   N22  En1
 BYTE   W24
 BYTE   N10  Bn0
 BYTE   W12
 BYTE   Dn1
 BYTE   W12
//  #01 //055   ----------------------------------------
 BYTE   PATT
  POIN2 Label_014B7717
//  #01 //056   ----------------------------------------
 BYTE   N10  Dn1  v127
 BYTE   W12
 BYTE   N22  An0
 BYTE   W24
 BYTE   N10  Cs1
 BYTE   W12
 BYTE   N22  En1
 BYTE   W24
 BYTE   N16  Fs0
 BYTE   W18
 BYTE   Fs0
 BYTE   W18
//  #01 //057   ----------------------------------------
 BYTE   N10
 BYTE   W60
 BYTE   N09  Bn0
 BYTE   W12
 BYTE   N04
 BYTE   W06
 BYTE   Bn0
 BYTE   W06
 BYTE   N09
 BYTE   W12
//  #01 //058   ----------------------------------------
Label_014B775E:
 BYTE   N04  Bn0  v127
 BYTE   W06
 BYTE   Bn0
 BYTE   W06
 BYTE   N09
 BYTE   W12
 BYTE   N04
 BYTE   W06
 BYTE   Bn0
 BYTE   W06
 BYTE   N09
 BYTE   W12
 BYTE   N04
 BYTE   W06
 BYTE   Bn0
 BYTE   W06
 BYTE   N09
 BYTE   W12
 BYTE   N04
 BYTE   W06
 BYTE   Bn0
 BYTE   W06
 BYTE   N09
 BYTE   W12
 BYTE   PEND 
//  #01 //059   ----------------------------------------
 BYTE   PATT
  POIN2 Label_014B775E
//  #01 //060   ----------------------------------------
 BYTE   PATT
  POIN2 Label_014B775E
//  #01 //061   ----------------------------------------
 BYTE   PATT
  POIN2 Label_014B775E
//  #01 //062   ----------------------------------------
Label_014B7788:
 BYTE   N04  Bn0  v127
 BYTE   W06
 BYTE   Bn0
 BYTE   W06
 BYTE   N09
 BYTE   W12
 BYTE   N04
 BYTE   W06
 BYTE   Bn0
 BYTE   W06
 BYTE   N09
 BYTE   W12
 BYTE   N04
 BYTE   W06
 BYTE   Bn0
 BYTE   W06
 BYTE   N09  An0
 BYTE   W12
 BYTE   N04
 BYTE   W06
 BYTE   An0
 BYTE   W06
 BYTE   N09
 BYTE   W12
 BYTE   PEND 
//  #01 //063   ----------------------------------------
Label_014B77A4:
 BYTE   N04  An0  v127
 BYTE   W06
 BYTE   An0
 BYTE   W06
 BYTE   N09
 BYTE   W12
 BYTE   N04
 BYTE   W06
 BYTE   An0
 BYTE   W06
 BYTE   N09
 BYTE   W12
 BYTE   N04
 BYTE   W06
 BYTE   An0
 BYTE   W06
 BYTE   N09  Gs0
 BYTE   W12
 BYTE   N04
 BYTE   W06
 BYTE   Gs0
 BYTE   W06
 BYTE   N09
 BYTE   W12
 BYTE   PEND 
//  #01 //064   ----------------------------------------
 BYTE   N04  Gs0  v127
 BYTE   W06
 BYTE   Gs0
 BYTE   W06
 BYTE   N09
 BYTE   W12
 BYTE   N04
 BYTE   W06
 BYTE   Gs0
 BYTE   W06
 BYTE   N09
 BYTE   W12
 BYTE   N22  Gn0
 BYTE   W24
 BYTE   N10  Dn0
 BYTE   W12
 BYTE   Gn0
 BYTE   W12
//  #01 //065   ----------------------------------------
 BYTE   N22  An0
 BYTE   W24
 BYTE   N10  En0
 BYTE   W12
 BYTE   An0
 BYTE   W12
 BYTE   N04
 BYTE   W06
 BYTE   An0
 BYTE   W06
 BYTE   N09  Bn0
 BYTE   W12
 BYTE   N04
 BYTE   W06
 BYTE   Bn0
 BYTE   W06
 BYTE   N09
 BYTE   W12
//  #01 //066   ----------------------------------------
 BYTE   PATT
  POIN2 Label_014B7788
//  #01 //067   ----------------------------------------
 BYTE   PATT
  POIN2 Label_014B77A4
//  #01 //068   ----------------------------------------
Label_014B77F5:
 BYTE   N04  Gs0  v127
 BYTE   W06
 BYTE   Gs0
 BYTE   W06
 BYTE   N09
 BYTE   W12
 BYTE   N04
 BYTE   W06
 BYTE   Gs0
 BYTE   W06
 BYTE   N09
 BYTE   W12
 BYTE   N04
 BYTE   W06
 BYTE   Gs0
 BYTE   W06
 BYTE   N10  Gn0
 BYTE   W12
 BYTE   Dn0
 BYTE   W12
 BYTE   Gn0
 BYTE   W12
 BYTE   PEND 
//  #01 //069   ----------------------------------------
 BYTE   N22  An0  v127
 BYTE   W24
 BYTE   N10  En0
 BYTE   W12
 BYTE   N22  An0
 BYTE   W24
 BYTE   N09  Bn0
 BYTE   W12
 BYTE   N04
 BYTE   W06
 BYTE   Bn0
 BYTE   W06
 BYTE   N09
 BYTE   W12
//  #01 //070   ----------------------------------------
 BYTE   PATT
  POIN2 Label_014B7788
//  #01 //071   ----------------------------------------
 BYTE   PATT
  POIN2 Label_014B77A4
//  #01 //072   ----------------------------------------
 BYTE   PATT
  POIN2 Label_014B77F5
//  #01 //073   ----------------------------------------
 BYTE   N22  An0  v127
 BYTE   W24
 BYTE   N10  En0
 BYTE   W12
 BYTE   N22  An0
 BYTE   W24
 BYTE   N09  Gn0
 BYTE   W12
 BYTE   N04
 BYTE   W06
 BYTE   Gn0
 BYTE   W06
 BYTE   N09
 BYTE   W12
//  #01 //074   ----------------------------------------
 BYTE   PATT
  POIN2 Label_014B74AB
//  #01 //075   ----------------------------------------
Label_014B7849:
 BYTE   N04  Gn0  v127
 BYTE   W06
 BYTE   Gn0
 BYTE   W06
 BYTE   N09
 BYTE   W12
 BYTE   N04
 BYTE   W06
 BYTE   Gn0
 BYTE   W06
 BYTE   N09
 BYTE   W12
 BYTE   N04
 BYTE   W06
 BYTE   Gn0
 BYTE   W06
 BYTE   N09  An0
 BYTE   W12
 BYTE   N04
 BYTE   W06
 BYTE   An0
 BYTE   W06
 BYTE   N09
 BYTE   W12
 BYTE   PEND 
//  #01 //076   ----------------------------------------
 BYTE   PATT
  POIN2 Label_014B74E2
//  #01 //077   ----------------------------------------
 BYTE   N04  An0  v127
 BYTE   W06
 BYTE   An0
 BYTE   W06
 BYTE   N09
 BYTE   W12
 BYTE   N04
 BYTE   W06
 BYTE   An0
 BYTE   W06
 BYTE   N09
 BYTE   W12
 BYTE   N04
 BYTE   W06
 BYTE   An0
 BYTE   W06
 BYTE   N09  Gn0
 BYTE   W12
 BYTE   N04
 BYTE   W06
 BYTE   Gn0
 BYTE   W06
 BYTE   N09
 BYTE   W12
//  #01 //078   ----------------------------------------
 BYTE   PATT
  POIN2 Label_014B74AB
//  #01 //079   ----------------------------------------
 BYTE   PATT
  POIN2 Label_014B7849
//  #01 //080   ----------------------------------------
 BYTE   PATT
  POIN2 Label_014B74E2
//  #01 //081   ----------------------------------------
 BYTE   N04  An0  v127
 BYTE   W06
 BYTE   An0
 BYTE   W06
 BYTE   N09
 BYTE   W12
 BYTE   N04
 BYTE   W06
 BYTE   An0
 BYTE   W06
 BYTE   N09
 BYTE   W12
 BYTE   N04
 BYTE   W06
 BYTE   An0
 BYTE   W06
 BYTE   N10  Bn0
 BYTE   W12
 BYTE   Dn1
 BYTE   W12
 BYTE   Fs1
 BYTE   W12
//  #01 //082   ----------------------------------------
Label_014B78AD:
 BYTE   N22  An0  v127
 BYTE   W24
 BYTE   N10  Cs1
 BYTE   W12
 BYTE   En1
 BYTE   W12
 BYTE   N22  Gn0
 BYTE   W24
 BYTE   N10  Bn0
 BYTE   W12
 BYTE   Dn1
 BYTE   W12
 BYTE   PEND 
//  #01 //083   ----------------------------------------
 BYTE   N22  An0  v127
 BYTE   W24
 BYTE   N10  Cs1
 BYTE   W12
 BYTE   N22  En1
 BYTE   W24
 BYTE   N10  Bn0
 BYTE   W12
 BYTE   Dn1
 BYTE   W12
 BYTE   Fs1
 BYTE   W12
//  #01 //084   ----------------------------------------
 BYTE   PATT
  POIN2 Label_014B78AD
//  #01 //085   ----------------------------------------
 BYTE   N22  An0  v127
 BYTE   W24
 BYTE   N10  Cs1
 BYTE   W12
 BYTE   N22  En1
 BYTE   W24
 BYTE   N16  Fs0
 BYTE   W18
 BYTE   Fs0
 BYTE   W18
//  #01 //086   ----------------------------------------
 BYTE   N10
 BYTE   W60
 BYTE   N09  Bn0
 BYTE   W12
 BYTE   N04  Bn0  v125
 BYTE   W06
 BYTE   Bn0  v124
 BYTE   W06
 BYTE   N09  Bn0  v123
 BYTE   W12
//  #01 //087   ----------------------------------------
 BYTE   N04  Bn0  v121
 BYTE   W06
 BYTE   Bn0  v120
 BYTE   W06
 BYTE   N09  Bn0  v119
 BYTE   W12
 BYTE   N04  Bn0  v118
 BYTE   W06
 BYTE   Bn0  v116
 BYTE   W06
 BYTE   N09  Bn0  v115
 BYTE   W12
 BYTE   N04  Bn0  v114
 BYTE   W06
 BYTE   Bn0  v113
 BYTE   W06
 BYTE   N09  Bn0  v111
 BYTE   W12
 BYTE   N04  Bn0  v109
 BYTE   W06
 BYTE   Bn0
 BYTE   W06
 BYTE   N09  Bn0  v107
 BYTE   W12
//  #01 //088   ----------------------------------------
 BYTE   N04  Bn0  v105
 BYTE   W06
 BYTE   Bn0
 BYTE   W06
 BYTE   N09  Bn0  v104
 BYTE   W12
 BYTE   N04  Bn0  v101
 BYTE   W06
 BYTE   Bn0  v100
 BYTE   W06
 BYTE   N09
 BYTE   W12
 BYTE   N04  Bn0  v097
 BYTE   W06
 BYTE   Bn0  v096
 BYTE   W06
 BYTE   N09  Bn0  v095
 BYTE   W12
 BYTE   N04  Bn0  v093
 BYTE   W06
 BYTE   Bn0  v092
 BYTE   W06
 BYTE   N09  Bn0  v091
 BYTE   W12
//  #01 //089   ----------------------------------------
 BYTE   N04  Bn0  v090
 BYTE   W06
 BYTE   Bn0  v088
 BYTE   W06
 BYTE   N09  Bn0  v087
 BYTE   W12
 BYTE   N04  Bn0  v086
 BYTE   W06
 BYTE   Bn0  v085
 BYTE   W06
 BYTE   N09  Bn0  v083
 BYTE   W12
 BYTE   N04  Bn0  v082
 BYTE   W06
 BYTE   Bn0  v081
 BYTE   W06
 BYTE   N09  Bn0  v080
 BYTE   W12
 BYTE   N04  Bn0  v077
 BYTE   W06
 BYTE   Bn0
 BYTE   W06
 BYTE   N09  Bn0  v076
 BYTE   W12
//  #01 //090   ----------------------------------------
 BYTE   N04  Bn0  v073
 BYTE   W06
 BYTE   Bn0
 BYTE   W06
 BYTE   N09  Bn0  v072
 BYTE   W12
 BYTE   N04  Bn0  v069
 BYTE   W06
 BYTE   Bn0  v068
 BYTE   W06
 BYTE   N09
 BYTE   W12
 BYTE   N04  Bn0  v066
 BYTE   W06
 BYTE   Bn0  v064
 BYTE   W06
 BYTE   N09  Bn0  v063
 BYTE   W12
 BYTE   N04  Bn0  v062
 BYTE   W06
 BYTE   Bn0  v060
 BYTE   W06
 BYTE   N09  Bn0  v059
 BYTE   W12
//  #01 //091   ----------------------------------------
 BYTE   N04  Bn0  v058
 BYTE   W06
 BYTE   Bn0  v057
 BYTE   W06
 BYTE   N09  Bn0  v055
 BYTE   W12
 BYTE   N04  Bn0  v054
 BYTE   W06
 BYTE   Bn0  v053
 BYTE   W06
 BYTE   N09  Bn0  v052
 BYTE   W12
 BYTE   N04  Bn0  v050
 BYTE   W06
 BYTE   Bn0  v049
 BYTE   W06
 BYTE   N09  An0  v048
 BYTE   W12
 BYTE   N04  An0  v045
 BYTE   W06
 BYTE   An0
 BYTE   W06
 BYTE   N09  An0  v044
 BYTE   W12
//  #01 //092   ----------------------------------------
 BYTE   N04  An0  v041
 BYTE   W06
 BYTE   An0
 BYTE   W06
 BYTE   N09  An0  v040
 BYTE   W12
 BYTE   N04  An0  v038
 BYTE   W06
 BYTE   An0  v036
 BYTE   W06
 BYTE   N09
 BYTE   W12
 BYTE   N04  An0  v034
 BYTE   W06
 BYTE   An0  v033
 BYTE   W06
 BYTE   N09  Gs0  v031
 BYTE   W12
 BYTE   N04  Gs0  v030
 BYTE   W06
 BYTE   Gs0  v029
 BYTE   W06
 BYTE   N09  Gs0  v027
 BYTE   W12
//  #01 //093   ----------------------------------------
 BYTE   N04  Gs0  v026
 BYTE   W06
 BYTE   Gs0  v025
 BYTE   W06
 BYTE   N09  Gs0  v024
 BYTE   W12
 BYTE   N04  Gs0  v022
 BYTE   W06
 BYTE   Gs0  v021
 BYTE   W06
 BYTE   N09  Gs0  v020
 BYTE   W12
 BYTE   N22  Gn0  v019
 BYTE   W24
 BYTE   N10  Dn0  v013
 BYTE   W12
 BYTE   Gn0  v012
 BYTE   W12
//  #01 //094   ----------------------------------------
 BYTE   N22  An0  v010
 BYTE   W24
 BYTE   N10  En0  v006
 BYTE   W12
 BYTE   An0  v005
 BYTE   W12
 BYTE   N04  An0  v002
 BYTE   W06
 BYTE   An0  v001
 BYTE   W06
 BYTE   GoTo
  POIN2 Label_014B738C
 BYTE   FINE

//**************** Track 2 (Midi-Chn.1) ****************//

GundamnF19Act12_002:
//  #02 //000   ----------------------------------------
Label_014B6980:
 BYTE   TEMPO   300*GundamnF19Act12_tbs/2
 BYTE   KEYSH   GundamnF19Act12_key+0
 BYTE   VOICE   36
 BYTE   VOL   47*GundamnF19Act12_mvl/mxv
 BYTE   PAN   c_v+0
 BYTE   W06
 BYTE   TEMPO   160*GundamnF19Act12_tbs/2
 BYTE   N09  Bn0  v117
 BYTE   W12
 BYTE   N04
 BYTE   W06
 BYTE   Bn0
 BYTE   W06
 BYTE   N09
 BYTE   W12
 BYTE   N04
 BYTE   W06
 BYTE   Bn0
 BYTE   W06
 BYTE   N09
 BYTE   W12
 BYTE   N04
 BYTE   W06
 BYTE   Bn0
 BYTE   W06
 BYTE   N09
 BYTE   W12
 BYTE   N04
 BYTE   W06
//  #02 //001   ----------------------------------------
Label_014B69A5:
 BYTE   N04  Bn0  v117
 BYTE   W06
 BYTE   N09
 BYTE   W12
 BYTE   N04
 BYTE   W06
 BYTE   Bn0
 BYTE   W06
 BYTE   N09
 BYTE   W12
 BYTE   N04
 BYTE   W06
 BYTE   Bn0
 BYTE   W06
 BYTE   N09
 BYTE   W12
 BYTE   N04
 BYTE   W06
 BYTE   Bn0
 BYTE   W06
 BYTE   N09
 BYTE   W12
 BYTE   N04
 BYTE   W06
 BYTE   PEND 
//  #02 //002   ----------------------------------------
 BYTE   PATT
  POIN2 Label_014B69A5
//  #02 //003   ----------------------------------------
 BYTE   PATT
  POIN2 Label_014B69A5
//  #02 //004   ----------------------------------------
 BYTE   PATT
  POIN2 Label_014B69A5
//  #02 //005   ----------------------------------------
 BYTE   N04  Bn0  v117
 BYTE   W06
 BYTE   N09  An0
 BYTE   W12
 BYTE   N04
 BYTE   W06
 BYTE   An0
 BYTE   W06
 BYTE   N09
 BYTE   W12
 BYTE   N04
 BYTE   W06
 BYTE   An0
 BYTE   W06
 BYTE   N09
 BYTE   W12
 BYTE   N04
 BYTE   W06
 BYTE   An0
 BYTE   W06
 BYTE   N09
 BYTE   W12
 BYTE   N04
 BYTE   W06
//  #02 //006   ----------------------------------------
 BYTE   An0
 BYTE   W06
 BYTE   N09  Gs0
 BYTE   W12
 BYTE   N04
 BYTE   W06
 BYTE   Gs0
 BYTE   W06
 BYTE   N09
 BYTE   W12
 BYTE   N04
 BYTE   W06
 BYTE   Gs0
 BYTE   W06
 BYTE   N09
 BYTE   W12
 BYTE   N04
 BYTE   W06
 BYTE   Gs0
 BYTE   W06
 BYTE   N09
 BYTE   W12
 BYTE   N22  Gn0
 BYTE   W24
//  #02 //007   ----------------------------------------
 BYTE   N10  Dn0
 BYTE   W12
 BYTE   Gn0
 BYTE   W12
 BYTE   N22  An0
 BYTE   W24
 BYTE   N10  En0
 BYTE   W12
 BYTE   An0
 BYTE   W12
 BYTE   N04
 BYTE   W06
 BYTE   An0
 BYTE   W06
 BYTE   N09  Bn0
 BYTE   W12
//  #02 //008   ----------------------------------------
Label_014B6A18:
 BYTE   N04  Bn0  v117
 BYTE   W06
 BYTE   Bn0
 BYTE   W06
 BYTE   N09
 BYTE   W12
 BYTE   N04
 BYTE   W06
 BYTE   Bn0
 BYTE   W06
 BYTE   N09
 BYTE   W12
 BYTE   N04
 BYTE   W06
 BYTE   Bn0
 BYTE   W06
 BYTE   N09
 BYTE   W12
 BYTE   N04
 BYTE   W06
 BYTE   Bn0
 BYTE   W06
 BYTE   N09  An0
 BYTE   W12
 BYTE   PEND 
//  #02 //009   ----------------------------------------
Label_014B6A34:
 BYTE   N04  An0  v117
 BYTE   W06
 BYTE   An0
 BYTE   W06
 BYTE   N09
 BYTE   W12
 BYTE   N04
 BYTE   W06
 BYTE   An0
 BYTE   W06
 BYTE   N09
 BYTE   W12
 BYTE   N04
 BYTE   W06
 BYTE   An0
 BYTE   W06
 BYTE   N09
 BYTE   W12
 BYTE   N04
 BYTE   W06
 BYTE   An0
 BYTE   W06
 BYTE   N09  Gs0
 BYTE   W12
 BYTE   PEND 
//  #02 //010   ----------------------------------------
Label_014B6A50:
 BYTE   N04  Gs0  v117
 BYTE   W06
 BYTE   Gs0
 BYTE   W06
 BYTE   N09
 BYTE   W12
 BYTE   N04
 BYTE   W06
 BYTE   Gs0
 BYTE   W06
 BYTE   N09
 BYTE   W12
 BYTE   N04
 BYTE   W06
 BYTE   Gs0
 BYTE   W06
 BYTE   N09
 BYTE   W12
 BYTE   N04
 BYTE   W06
 BYTE   Gs0
 BYTE   W06
 BYTE   N10  Gn0
 BYTE   W12
 BYTE   PEND 
//  #02 //011   ----------------------------------------
 BYTE   N10  Dn0  v117
 BYTE   W12
 BYTE   Gn0
 BYTE   W12
 BYTE   N22  An0
 BYTE   W24
 BYTE   N10  En0
 BYTE   W12
 BYTE   N22  An0
 BYTE   W24
 BYTE   N09  Bn0
 BYTE   W12
//  #02 //012   ----------------------------------------
 BYTE   PATT
  POIN2 Label_014B6A18
//  #02 //013   ----------------------------------------
 BYTE   PATT
  POIN2 Label_014B6A34
//  #02 //014   ----------------------------------------
 BYTE   PATT
  POIN2 Label_014B6A50
//  #02 //015   ----------------------------------------
 BYTE   N10  Dn0  v117
 BYTE   W12
 BYTE   Gn0
 BYTE   W12
 BYTE   N22  An0
 BYTE   W24
 BYTE   N10  En0
 BYTE   W12
 BYTE   N22  An0
 BYTE   W24
 BYTE   N09  Gn0
 BYTE   W12
//  #02 //016   ----------------------------------------
Label_014B6A9F:
 BYTE   N04  Gn0  v117
 BYTE   W06
 BYTE   Gn0
 BYTE   W06
 BYTE   N09
 BYTE   W12
 BYTE   N04
 BYTE   W06
 BYTE   Gn0
 BYTE   W06
 BYTE   N09
 BYTE   W12
 BYTE   N04
 BYTE   W06
 BYTE   Gn0
 BYTE   W06
 BYTE   N09
 BYTE   W12
 BYTE   N04
 BYTE   W06
 BYTE   Gn0
 BYTE   W06
 BYTE   N09
 BYTE   W12
 BYTE   PEND 
//  #02 //017   ----------------------------------------
Label_014B6ABA:
 BYTE   N04  Gn0  v117
 BYTE   W06
 BYTE   Gn0
 BYTE   W06
 BYTE   N09
 BYTE   W12
 BYTE   N04
 BYTE   W06
 BYTE   Gn0
 BYTE   W06
 BYTE   N09
 BYTE   W12
 BYTE   N04
 BYTE   W06
 BYTE   Gn0
 BYTE   W06
 BYTE   N09
 BYTE   W12
 BYTE   N04
 BYTE   W06
 BYTE   Gn0
 BYTE   W06
 BYTE   N09  An0
 BYTE   W12
 BYTE   PEND 
//  #02 //018   ----------------------------------------
Label_014B6AD6:
 BYTE   N04  An0  v117
 BYTE   W06
 BYTE   An0
 BYTE   W06
 BYTE   N09
 BYTE   W12
 BYTE   N04
 BYTE   W06
 BYTE   An0
 BYTE   W06
 BYTE   N09
 BYTE   W12
 BYTE   N04
 BYTE   W06
 BYTE   An0
 BYTE   W06
 BYTE   N09
 BYTE   W12
 BYTE   N04
 BYTE   W06
 BYTE   An0
 BYTE   W06
 BYTE   N09
 BYTE   W12
 BYTE   PEND 
//  #02 //019   ----------------------------------------
 BYTE   N04  An0  v117
 BYTE   W06
 BYTE   An0
 BYTE   W06
 BYTE   N09
 BYTE   W12
 BYTE   N04
 BYTE   W06
 BYTE   An0
 BYTE   W06
 BYTE   N09
 BYTE   W12
 BYTE   N04
 BYTE   W06
 BYTE   An0
 BYTE   W06
 BYTE   N09
 BYTE   W12
 BYTE   N04
 BYTE   W06
 BYTE   An0
 BYTE   W06
 BYTE   N09  Gn0
 BYTE   W12
//  #02 //020   ----------------------------------------
 BYTE   PATT
  POIN2 Label_014B6A9F
//  #02 //021   ----------------------------------------
 BYTE   PATT
  POIN2 Label_014B6ABA
//  #02 //022   ----------------------------------------
 BYTE   PATT
  POIN2 Label_014B6AD6
//  #02 //023   ----------------------------------------
 BYTE   N04  An0  v117
 BYTE   W06
 BYTE   An0
 BYTE   W06
 BYTE   N09
 BYTE   W12
 BYTE   N04
 BYTE   W06
 BYTE   An0
 BYTE   W06
 BYTE   N09
 BYTE   W12
 BYTE   N04
 BYTE   W06
 BYTE   An0
 BYTE   W06
 BYTE   N09
 BYTE   W12
 BYTE   N04
 BYTE   W06
 BYTE   An0
 BYTE   W06
 BYTE   N10  Bn0
 BYTE   W12
//  #02 //024   ----------------------------------------
Label_014B6B36:
 BYTE   N10  Dn1  v117
 BYTE   W12
 BYTE   Fs1
 BYTE   W12
 BYTE   N22  An0
 BYTE   W24
 BYTE   N10  Cs1
 BYTE   W12
 BYTE   En1
 BYTE   W12
 BYTE   N22  Gn0
 BYTE   W24
 BYTE   PEND 
//  #02 //025   ----------------------------------------
 BYTE   N10  Bn0  v117
 BYTE   W12
 BYTE   Dn1
 BYTE   W12
 BYTE   N22  An0
 BYTE   W24
 BYTE   N10  Cs1
 BYTE   W12
 BYTE   N22  En1
 BYTE   W24
 BYTE   N10  Bn0
 BYTE   W12
//  #02 //026   ----------------------------------------
 BYTE   PATT
  POIN2 Label_014B6B36
//  #02 //027   ----------------------------------------
 BYTE   N10  Bn0  v117
 BYTE   W12
 BYTE   Dn1
 BYTE   W12
 BYTE   N22  An0
 BYTE   W24
 BYTE   N10  Cs1
 BYTE   W12
 BYTE   N22  En1
 BYTE   W24
 BYTE   N16  Fs0
 BYTE   W18
//  #02 //028   ----------------------------------------
 BYTE   Fs0
 BYTE   W18
 BYTE   N10
 BYTE   W60
 BYTE   N09  Bn0
 BYTE   W12
 BYTE   N04
 BYTE   W06
//  #02 //029   ----------------------------------------
 BYTE   PATT
  POIN2 Label_014B69A5
//  #02 //030   ----------------------------------------
 BYTE   PATT
  POIN2 Label_014B69A5
//  #02 //031   ----------------------------------------
 BYTE   PATT
  POIN2 Label_014B69A5
//  #02 //032   ----------------------------------------
 BYTE   PATT
  POIN2 Label_014B69A5
//  #02 //033   ----------------------------------------
 BYTE   N04  Bn0  v117
 BYTE   W06
 BYTE   N09
 BYTE   W12
 BYTE   N04
 BYTE   W06
 BYTE   Bn0
 BYTE   W06
 BYTE   N09
 BYTE   W12
 BYTE   N04
 BYTE   W06
 BYTE   Bn0
 BYTE   W06
 BYTE   N09
 BYTE   W12
 BYTE   N04
 BYTE   W06
 BYTE   Bn0
 BYTE   W06
 BYTE   N09  An0
 BYTE   W12
 BYTE   N04
 BYTE   W06
//  #02 //034   ----------------------------------------
 BYTE   An0
 BYTE   W06
 BYTE   N09
 BYTE   W12
 BYTE   N04
 BYTE   W06
 BYTE   An0
 BYTE   W06
 BYTE   N09
 BYTE   W12
 BYTE   N04
 BYTE   W06
 BYTE   An0
 BYTE   W06
 BYTE   N09
 BYTE   W12
 BYTE   N04
 BYTE   W06
 BYTE   An0
 BYTE   W06
 BYTE   N09  Gs0
 BYTE   W12
 BYTE   N04
 BYTE   W06
//  #02 //035   ----------------------------------------
 BYTE   Gs0
 BYTE   W06
 BYTE   N09
 BYTE   W12
 BYTE   N04
 BYTE   W06
 BYTE   Gs0
 BYTE   W06
 BYTE   N09
 BYTE   W12
 BYTE   N04
 BYTE   W06
 BYTE   Gs0
 BYTE   W06
 BYTE   N09
 BYTE   W12
 BYTE   N22  Gn0
 BYTE   W24
 BYTE   N10  Dn0
 BYTE   W12
//  #02 //036   ----------------------------------------
 BYTE   Gn0
 BYTE   W12
 BYTE   N22  An0
 BYTE   W24
 BYTE   N10  En0
 BYTE   W12
 BYTE   An0
 BYTE   W12
 BYTE   N04
 BYTE   W06
 BYTE   An0
 BYTE   W06
 BYTE   N09  Bn0
 BYTE   W12
 BYTE   N04
 BYTE   W06
 BYTE   Bn0
 BYTE   W06
//  #02 //037   ----------------------------------------
Label_014B6BED:
 BYTE   N09  Bn0  v117
 BYTE   W12
 BYTE   N04
 BYTE   W06
 BYTE   Bn0
 BYTE   W06
 BYTE   N09
 BYTE   W12
 BYTE   N04
 BYTE   W06
 BYTE   Bn0
 BYTE   W06
 BYTE   N09
 BYTE   W12
 BYTE   N04
 BYTE   W06
 BYTE   Bn0
 BYTE   W06
 BYTE   N09  An0
 BYTE   W12
 BYTE   N04
 BYTE   W06
 BYTE   An0
 BYTE   W06
 BYTE   PEND 
//  #02 //038   ----------------------------------------
Label_014B6C09:
 BYTE   N09  An0  v117
 BYTE   W12
 BYTE   N04
 BYTE   W06
 BYTE   An0
 BYTE   W06
 BYTE   N09
 BYTE   W12
 BYTE   N04
 BYTE   W06
 BYTE   An0
 BYTE   W06
 BYTE   N09
 BYTE   W12
 BYTE   N04
 BYTE   W06
 BYTE   An0
 BYTE   W06
 BYTE   N09  Gs0
 BYTE   W12
 BYTE   N04
 BYTE   W06
 BYTE   Gs0
 BYTE   W06
 BYTE   PEND 
//  #02 //039   ----------------------------------------
Label_014B6C25:
 BYTE   N09  Gs0  v117
 BYTE   W12
 BYTE   N04
 BYTE   W06
 BYTE   Gs0
 BYTE   W06
 BYTE   N09
 BYTE   W12
 BYTE   N04
 BYTE   W06
 BYTE   Gs0
 BYTE   W06
 BYTE   N09
 BYTE   W12
 BYTE   N04
 BYTE   W06
 BYTE   Gs0
 BYTE   W06
 BYTE   N10  Gn0
 BYTE   W12
 BYTE   Dn0
 BYTE   W12
 BYTE   PEND 
//  #02 //040   ----------------------------------------
 BYTE   N10  Gn0  v117
 BYTE   W12
 BYTE   N22  An0
 BYTE   W24
 BYTE   N10  En0
 BYTE   W12
 BYTE   N22  An0
 BYTE   W24
 BYTE   N09  Bn0
 BYTE   W12
 BYTE   N04
 BYTE   W06
 BYTE   Bn0
 BYTE   W06
//  #02 //041   ----------------------------------------
 BYTE   PATT
  POIN2 Label_014B6BED
//  #02 //042   ----------------------------------------
 BYTE   PATT
  POIN2 Label_014B6C09
//  #02 //043   ----------------------------------------
 BYTE   PATT
  POIN2 Label_014B6C25
//  #02 //044   ----------------------------------------
 BYTE   N10  Gn0  v117
 BYTE   W12
 BYTE   N22  An0
 BYTE   W24
 BYTE   N10  En0
 BYTE   W12
 BYTE   N22  An0
 BYTE   W24
 BYTE   N09  Gn0
 BYTE   W12
 BYTE   N04
 BYTE   W06
 BYTE   Gn0
 BYTE   W06
//  #02 //045   ----------------------------------------
Label_014B6C76:
 BYTE   N09  Gn0  v117
 BYTE   W12
 BYTE   N04
 BYTE   W06
 BYTE   Gn0
 BYTE   W06
 BYTE   N09
 BYTE   W12
 BYTE   N04
 BYTE   W06
 BYTE   Gn0
 BYTE   W06
 BYTE   N09
 BYTE   W12
 BYTE   N04
 BYTE   W06
 BYTE   Gn0
 BYTE   W06
 BYTE   N09
 BYTE   W12
 BYTE   N04
 BYTE   W06
 BYTE   Gn0
 BYTE   W06
 BYTE   PEND 
//  #02 //046   ----------------------------------------
Label_014B6C91:
 BYTE   N09  Gn0  v117
 BYTE   W12
 BYTE   N04
 BYTE   W06
 BYTE   Gn0
 BYTE   W06
 BYTE   N09
 BYTE   W12
 BYTE   N04
 BYTE   W06
 BYTE   Gn0
 BYTE   W06
 BYTE   N09
 BYTE   W12
 BYTE   N04
 BYTE   W06
 BYTE   Gn0
 BYTE   W06
 BYTE   N09  An0
 BYTE   W12
 BYTE   N04
 BYTE   W06
 BYTE   An0
 BYTE   W06
 BYTE   PEND 
//  #02 //047   ----------------------------------------
Label_014B6CAD:
 BYTE   N09  An0  v117
 BYTE   W12
 BYTE   N04
 BYTE   W06
 BYTE   An0
 BYTE   W06
 BYTE   N09
 BYTE   W12
 BYTE   N04
 BYTE   W06
 BYTE   An0
 BYTE   W06
 BYTE   N09
 BYTE   W12
 BYTE   N04
 BYTE   W06
 BYTE   An0
 BYTE   W06
 BYTE   N09
 BYTE   W12
 BYTE   N04
 BYTE   W06
 BYTE   An0
 BYTE   W06
 BYTE   PEND 
//  #02 //048   ----------------------------------------
 BYTE   N09  An0  v117
 BYTE   W12
 BYTE   N04
 BYTE   W06
 BYTE   An0
 BYTE   W06
 BYTE   N09
 BYTE   W12
 BYTE   N04
 BYTE   W06
 BYTE   An0
 BYTE   W06
 BYTE   N09
 BYTE   W12
 BYTE   N04
 BYTE   W06
 BYTE   An0
 BYTE   W06
 BYTE   N09  Gn0
 BYTE   W12
 BYTE   N04
 BYTE   W06
 BYTE   Gn0
 BYTE   W06
//  #02 //049   ----------------------------------------
 BYTE   PATT
  POIN2 Label_014B6C76
//  #02 //050   ----------------------------------------
 BYTE   PATT
  POIN2 Label_014B6C91
//  #02 //051   ----------------------------------------
 BYTE   PATT
  POIN2 Label_014B6CAD
//  #02 //052   ----------------------------------------
 BYTE   N09  An0  v117
 BYTE   W12
 BYTE   N04
 BYTE   W06
 BYTE   An0
 BYTE   W06
 BYTE   N09
 BYTE   W12
 BYTE   N04
 BYTE   W06
 BYTE   An0
 BYTE   W06
 BYTE   N09
 BYTE   W12
 BYTE   N04
 BYTE   W06
 BYTE   An0
 BYTE   W06
 BYTE   N10  Bn0
 BYTE   W12
 BYTE   Dn1
 BYTE   W12
//  #02 //053   ----------------------------------------
Label_014B6D0B:
 BYTE   N10  Fs1  v117
 BYTE   W12
 BYTE   N22  An0
 BYTE   W24
 BYTE   N10  Cs1
 BYTE   W12
 BYTE   En1
 BYTE   W12
 BYTE   N22  Gn0
 BYTE   W24
 BYTE   N10  Bn0
 BYTE   W12
 BYTE   PEND 
//  #02 //054   ----------------------------------------
 BYTE   N10  Dn1  v117
 BYTE   W12
 BYTE   N22  An0
 BYTE   W24
 BYTE   N10  Cs1
 BYTE   W12
 BYTE   N22  En1
 BYTE   W24
 BYTE   N10  Bn0
 BYTE   W12
 BYTE   Dn1
 BYTE   W12
//  #02 //055   ----------------------------------------
 BYTE   PATT
  POIN2 Label_014B6D0B
//  #02 //056   ----------------------------------------
 BYTE   N10  Dn1  v117
 BYTE   W12
 BYTE   N22  An0
 BYTE   W24
 BYTE   N10  Cs1
 BYTE   W12
 BYTE   N22  En1
 BYTE   W24
 BYTE   N16  Fs0
 BYTE   W18
 BYTE   Fs0
 BYTE   W18
//  #02 //057   ----------------------------------------
 BYTE   N10
 BYTE   W60
 BYTE   N09  Bn0
 BYTE   W12
 BYTE   N04
 BYTE   W06
 BYTE   Bn0
 BYTE   W06
 BYTE   N09
 BYTE   W12
//  #02 //058   ----------------------------------------
Label_014B6D52:
 BYTE   N04  Bn0  v117
 BYTE   W06
 BYTE   Bn0
 BYTE   W06
 BYTE   N09
 BYTE   W12
 BYTE   N04
 BYTE   W06
 BYTE   Bn0
 BYTE   W06
 BYTE   N09
 BYTE   W12
 BYTE   N04
 BYTE   W06
 BYTE   Bn0
 BYTE   W06
 BYTE   N09
 BYTE   W12
 BYTE   N04
 BYTE   W06
 BYTE   Bn0
 BYTE   W06
 BYTE   N09
 BYTE   W12
 BYTE   PEND 
//  #02 //059   ----------------------------------------
 BYTE   PATT
  POIN2 Label_014B6D52
//  #02 //060   ----------------------------------------
 BYTE   PATT
  POIN2 Label_014B6D52
//  #02 //061   ----------------------------------------
 BYTE   PATT
  POIN2 Label_014B6D52
//  #02 //062   ----------------------------------------
Label_014B6D7C:
 BYTE   N04  Bn0  v117
 BYTE   W06
 BYTE   Bn0
 BYTE   W06
 BYTE   N09
 BYTE   W12
 BYTE   N04
 BYTE   W06
 BYTE   Bn0
 BYTE   W06
 BYTE   N09
 BYTE   W12
 BYTE   N04
 BYTE   W06
 BYTE   Bn0
 BYTE   W06
 BYTE   N09  An0
 BYTE   W12
 BYTE   N04
 BYTE   W06
 BYTE   An0
 BYTE   W06
 BYTE   N09
 BYTE   W12
 BYTE   PEND 
//  #02 //063   ----------------------------------------
Label_014B6D98:
 BYTE   N04  An0  v117
 BYTE   W06
 BYTE   An0
 BYTE   W06
 BYTE   N09
 BYTE   W12
 BYTE   N04
 BYTE   W06
 BYTE   An0
 BYTE   W06
 BYTE   N09
 BYTE   W12
 BYTE   N04
 BYTE   W06
 BYTE   An0
 BYTE   W06
 BYTE   N09  Gs0
 BYTE   W12
 BYTE   N04
 BYTE   W06
 BYTE   Gs0
 BYTE   W06
 BYTE   N09
 BYTE   W12
 BYTE   PEND 
//  #02 //064   ----------------------------------------
 BYTE   N04  Gs0  v117
 BYTE   W06
 BYTE   Gs0
 BYTE   W06
 BYTE   N09
 BYTE   W12
 BYTE   N04
 BYTE   W06
 BYTE   Gs0
 BYTE   W06
 BYTE   N09
 BYTE   W12
 BYTE   N22  Gn0
 BYTE   W24
 BYTE   N10  Dn0
 BYTE   W12
 BYTE   Gn0
 BYTE   W12
//  #02 //065   ----------------------------------------
 BYTE   N22  An0
 BYTE   W24
 BYTE   N10  En0
 BYTE   W12
 BYTE   An0
 BYTE   W12
 BYTE   N04
 BYTE   W06
 BYTE   An0
 BYTE   W06
 BYTE   N09  Bn0
 BYTE   W12
 BYTE   N04
 BYTE   W06
 BYTE   Bn0
 BYTE   W06
 BYTE   N09
 BYTE   W12
//  #02 //066   ----------------------------------------
 BYTE   PATT
  POIN2 Label_014B6D7C
//  #02 //067   ----------------------------------------
 BYTE   PATT
  POIN2 Label_014B6D98
//  #02 //068   ----------------------------------------
Label_014B6DE9:
 BYTE   N04  Gs0  v117
 BYTE   W06
 BYTE   Gs0
 BYTE   W06
 BYTE   N09
 BYTE   W12
 BYTE   N04
 BYTE   W06
 BYTE   Gs0
 BYTE   W06
 BYTE   N09
 BYTE   W12
 BYTE   N04
 BYTE   W06
 BYTE   Gs0
 BYTE   W06
 BYTE   N10  Gn0
 BYTE   W12
 BYTE   Dn0
 BYTE   W12
 BYTE   Gn0
 BYTE   W12
 BYTE   PEND 
//  #02 //069   ----------------------------------------
 BYTE   N22  An0  v117
 BYTE   W24
 BYTE   N10  En0
 BYTE   W12
 BYTE   N22  An0
 BYTE   W24
 BYTE   N09  Bn0
 BYTE   W12
 BYTE   N04
 BYTE   W06
 BYTE   Bn0
 BYTE   W06
 BYTE   N09
 BYTE   W12
//  #02 //070   ----------------------------------------
 BYTE   PATT
  POIN2 Label_014B6D7C
//  #02 //071   ----------------------------------------
 BYTE   PATT
  POIN2 Label_014B6D98
//  #02 //072   ----------------------------------------
 BYTE   PATT
  POIN2 Label_014B6DE9
//  #02 //073   ----------------------------------------
 BYTE   N22  An0  v117
 BYTE   W24
 BYTE   N10  En0
 BYTE   W12
 BYTE   N22  An0
 BYTE   W24
 BYTE   N09  Gn0
 BYTE   W12
 BYTE   N04
 BYTE   W06
 BYTE   Gn0
 BYTE   W06
 BYTE   N09
 BYTE   W12
//  #02 //074   ----------------------------------------
 BYTE   PATT
  POIN2 Label_014B6A9F
//  #02 //075   ----------------------------------------
Label_014B6E3D:
 BYTE   N04  Gn0  v117
 BYTE   W06
 BYTE   Gn0
 BYTE   W06
 BYTE   N09
 BYTE   W12
 BYTE   N04
 BYTE   W06
 BYTE   Gn0
 BYTE   W06
 BYTE   N09
 BYTE   W12
 BYTE   N04
 BYTE   W06
 BYTE   Gn0
 BYTE   W06
 BYTE   N09  An0
 BYTE   W12
 BYTE   N04
 BYTE   W06
 BYTE   An0
 BYTE   W06
 BYTE   N09
 BYTE   W12
 BYTE   PEND 
//  #02 //076   ----------------------------------------
 BYTE   PATT
  POIN2 Label_014B6AD6
//  #02 //077   ----------------------------------------
 BYTE   N04  An0  v117
 BYTE   W06
 BYTE   An0
 BYTE   W06
 BYTE   N09
 BYTE   W12
 BYTE   N04
 BYTE   W06
 BYTE   An0
 BYTE   W06
 BYTE   N09
 BYTE   W12
 BYTE   N04
 BYTE   W06
 BYTE   An0
 BYTE   W06
 BYTE   N09  Gn0
 BYTE   W12
 BYTE   N04
 BYTE   W06
 BYTE   Gn0
 BYTE   W06
 BYTE   N09
 BYTE   W12
//  #02 //078   ----------------------------------------
 BYTE   PATT
  POIN2 Label_014B6A9F
//  #02 //079   ----------------------------------------
 BYTE   PATT
  POIN2 Label_014B6E3D
//  #02 //080   ----------------------------------------
 BYTE   PATT
  POIN2 Label_014B6AD6
//  #02 //081   ----------------------------------------
 BYTE   N04  An0  v117
 BYTE   W06
 BYTE   An0
 BYTE   W06
 BYTE   N09
 BYTE   W12
 BYTE   N04
 BYTE   W06
 BYTE   An0
 BYTE   W06
 BYTE   N09
 BYTE   W12
 BYTE   N04
 BYTE   W06
 BYTE   An0
 BYTE   W06
 BYTE   N10  Bn0
 BYTE   W12
 BYTE   Dn1
 BYTE   W12
 BYTE   Fs1
 BYTE   W12
//  #02 //082   ----------------------------------------
Label_014B6EA1:
 BYTE   N22  An0  v117
 BYTE   W24
 BYTE   N10  Cs1
 BYTE   W12
 BYTE   En1
 BYTE   W12
 BYTE   N22  Gn0
 BYTE   W24
 BYTE   N10  Bn0
 BYTE   W12
 BYTE   Dn1
 BYTE   W12
 BYTE   PEND 
//  #02 //083   ----------------------------------------
 BYTE   N22  An0  v117
 BYTE   W24
 BYTE   N10  Cs1
 BYTE   W12
 BYTE   N22  En1
 BYTE   W24
 BYTE   N10  Bn0
 BYTE   W12
 BYTE   Dn1
 BYTE   W12
 BYTE   Fs1
 BYTE   W12
//  #02 //084   ----------------------------------------
 BYTE   PATT
  POIN2 Label_014B6EA1
//  #02 //085   ----------------------------------------
 BYTE   N22  An0  v117
 BYTE   W24
 BYTE   N10  Cs1
 BYTE   W12
 BYTE   N22  En1
 BYTE   W24
 BYTE   N16  Fs0
 BYTE   W18
 BYTE   Fs0
 BYTE   W18
//  #02 //086   ----------------------------------------
 BYTE   N10
 BYTE   W60
 BYTE   N09  Bn0
 BYTE   W12
 BYTE   N04  Bn0  v115
 BYTE   W06
 BYTE   Bn0  v114
 BYTE   W06
 BYTE   N09  Bn0  v113
 BYTE   W12
//  #02 //087   ----------------------------------------
 BYTE   N04  Bn0  v112
 BYTE   W06
 BYTE   Bn0  v111
 BYTE   W06
 BYTE   N09  Bn0  v109
 BYTE   W12
 BYTE   N04  Bn0  v108
 BYTE   W06
 BYTE   Bn0  v107
 BYTE   W06
 BYTE   N09  Bn0  v106
 BYTE   W12
 BYTE   N04  Bn0  v105
 BYTE   W06
 BYTE   Bn0  v104
 BYTE   W06
 BYTE   N09  Bn0  v102
 BYTE   W12
 BYTE   N04  Bn0  v100
 BYTE   W06
 BYTE   Bn0
 BYTE   W06
 BYTE   N09  Bn0  v099
 BYTE   W12
//  #02 //088   ----------------------------------------
 BYTE   N04  Bn0  v097
 BYTE   W06
 BYTE   Bn0
 BYTE   W06
 BYTE   N09  Bn0  v095
 BYTE   W12
 BYTE   N04  Bn0  v093
 BYTE   W06
 BYTE   Bn0  v092
 BYTE   W06
 BYTE   N09
 BYTE   W12
 BYTE   N04  Bn0  v090
 BYTE   W06
 BYTE   Bn0  v088
 BYTE   W06
 BYTE   N09  Bn0  v087
 BYTE   W12
 BYTE   N04  Bn0  v086
 BYTE   W06
 BYTE   Bn0  v085
 BYTE   W06
 BYTE   N09  Bn0  v084
 BYTE   W12
//  #02 //089   ----------------------------------------
 BYTE   N04  Bn0  v083
 BYTE   W06
 BYTE   Bn0  v081
 BYTE   W06
 BYTE   N09  Bn0  v080
 BYTE   W12
 BYTE   N04  Bn0  v079
 BYTE   W06
 BYTE   Bn0  v078
 BYTE   W06
 BYTE   N09  Bn0  v077
 BYTE   W12
 BYTE   N04  Bn0  v076
 BYTE   W06
 BYTE   Bn0  v074
 BYTE   W06
 BYTE   N09  Bn0  v073
 BYTE   W12
 BYTE   N04  Bn0  v071
 BYTE   W06
 BYTE   Bn0
 BYTE   W06
 BYTE   N09  Bn0  v070
 BYTE   W12
//  #02 //090   ----------------------------------------
 BYTE   N04  Bn0  v067
 BYTE   W06
 BYTE   Bn0
 BYTE   W06
 BYTE   N09  Bn0  v066
 BYTE   W12
 BYTE   N04  Bn0  v064
 BYTE   W06
 BYTE   Bn0  v063
 BYTE   W06
 BYTE   N09
 BYTE   W12
 BYTE   N04  Bn0  v060
 BYTE   W06
 BYTE   Bn0  v059
 BYTE   W06
 BYTE   N09  Bn0  v058
 BYTE   W12
 BYTE   N04  Bn0  v057
 BYTE   W06
 BYTE   Bn0  v056
 BYTE   W06
 BYTE   N09  Bn0  v054
 BYTE   W12
//  #02 //091   ----------------------------------------
 BYTE   N04  Bn0  v053
 BYTE   W06
 BYTE   Bn0  v052
 BYTE   W06
 BYTE   N09  Bn0  v051
 BYTE   W12
 BYTE   N04  Bn0  v050
 BYTE   W06
 BYTE   Bn0  v049
 BYTE   W06
 BYTE   N09  Bn0  v047
 BYTE   W12
 BYTE   N04  Bn0  v046
 BYTE   W06
 BYTE   Bn0  v045
 BYTE   W06
 BYTE   N09  An0  v044
 BYTE   W12
 BYTE   N04  An0  v042
 BYTE   W06
 BYTE   An0
 BYTE   W06
 BYTE   N09  An0  v040
 BYTE   W12
//  #02 //092   ----------------------------------------
 BYTE   N04  An0  v038
 BYTE   W06
 BYTE   An0
 BYTE   W06
 BYTE   N09  An0  v037
 BYTE   W12
 BYTE   N04  An0  v035
 BYTE   W06
 BYTE   An0  v033
 BYTE   W06
 BYTE   N09
 BYTE   W12
 BYTE   N04  An0  v031
 BYTE   W06
 BYTE   An0  v030
 BYTE   W06
 BYTE   N09  Gs0  v029
 BYTE   W12
 BYTE   N04  Gs0  v028
 BYTE   W06
 BYTE   Gs0  v026
 BYTE   W06
 BYTE   N09  Gs0  v025
 BYTE   W12
//  #02 //093   ----------------------------------------
 BYTE   N04  Gs0  v024
 BYTE   W06
 BYTE   Gs0  v023
 BYTE   W06
 BYTE   N09  Gs0  v022
 BYTE   W12
 BYTE   N04  Gs0  v021
 BYTE   W06
 BYTE   Gs0  v019
 BYTE   W06
 BYTE   N09  Gs0  v018
 BYTE   W12
 BYTE   N22  Gn0  v017
 BYTE   W24
 BYTE   N10  Dn0  v012
 BYTE   W12
 BYTE   Gn0  v011
 BYTE   W12
//  #02 //094   ----------------------------------------
 BYTE   N22  An0  v009
 BYTE   W24
 BYTE   N10  En0  v005
 BYTE   W12
 BYTE   An0  v004
 BYTE   W12
 BYTE   N04  An0  v002
 BYTE   W06
 BYTE   An0  v001
 BYTE   W06
 BYTE   GoTo
  POIN2 Label_014B6980
 BYTE   FINE

//**************** Track 3 (Midi-Chn.2) ****************//

GundamnF19Act12_003:
//  #03 //000   ----------------------------------------
Label_014B5290:
 BYTE   TEMPO   300*GundamnF19Act12_tbs/2
 BYTE   KEYSH   GundamnF19Act12_key+0
 BYTE   VOICE   63
 BYTE   VOL   43*GundamnF19Act12_mvl/mxv
 BYTE   PAN   c_v+32
 BYTE   W06
 BYTE   TEMPO   160*GundamnF19Act12_tbs/2
 BYTE   N10  Dn4  v120
 BYTE   W48
 BYTE   Fs3
 BYTE   W12
 BYTE   Bn3
 BYTE   W12
 BYTE   Dn4
 BYTE   W12
 BYTE   Cs4
 BYTE   W84
//  #03 //001   ----------------------------------------
Label_014B52A9:
 BYTE   N10  Cs4  v120
 BYTE   W12
 BYTE   En4
 BYTE   W84
 BYTE   PEND 
//  #03 //002   ----------------------------------------
Label_014B52B0:
 BYTE   N10  En4  v120
 BYTE   W12
 BYTE   N44  Gn4
 BYTE   W02
 BYTE   N02
 BYTE   W44
 BYTE   W01
 BYTE   N56  An4
 BYTE   W02
 BYTE   N02
 BYTE   W56
//  #03 //003   ----------------------------------------
 BYTE   W01
 BYTE   PEND 
Label_014B52C1:
 BYTE   N10  Dn4  v120
 BYTE   W48
 BYTE   Fs3
 BYTE   W12
 BYTE   Bn3
 BYTE   W12
 BYTE   Dn4
 BYTE   W12
 BYTE   Cs4
 BYTE   W84
 BYTE   PEND 
//  #03 //004   ----------------------------------------
 BYTE   PATT
  POIN2 Label_014B52A9
//  #03 //005   ----------------------------------------
 BYTE   PATT
  POIN2 Label_014B52B0
//  #03 //006   ----------------------------------------
Label_014B52D8:
 BYTE   N92  Bn3  v080
 BYTE   N92  Dn3
 BYTE   W04
 BYTE   N02  Bn3
 BYTE   N02  Dn3
 BYTE   W90
 BYTE   W01
 BYTE   PEND 
Label_014B52E5:
 BYTE   N92  An3  v080
 BYTE   N92  Dn3
 BYTE   W04
//  #03 //007   ----------------------------------------
 BYTE   N02  An3
 BYTE   N02  Dn3
 BYTE   W90
 BYTE   W01
 BYTE   PEND 
Label_014B52F2:
 BYTE   N92  Gs3  v080
 BYTE   N92  Dn3
 BYTE   W04
 BYTE   N02  Gs3
 BYTE   N02  Dn3
 BYTE   W90
//  #03 //008   ----------------------------------------
 BYTE   W01
 BYTE   PEND 
Label_014B52FF:
 BYTE   N32  Gn3  v080
 BYTE   N32  Dn3
 BYTE   W01
 BYTE   N02  Gn3
 BYTE   N02  Dn3
 BYTE   W32
 BYTE   W02
 BYTE   N56  An3
 BYTE   N56  En3
 BYTE   W02
 BYTE   N02  An3
 BYTE   N02  En3
 BYTE   W56
 BYTE   W01
 BYTE   PEND 
//  #03 //009   ----------------------------------------
 BYTE   PATT
  POIN2 Label_014B52D8
//  #03 //010   ----------------------------------------
 BYTE   PATT
  POIN2 Label_014B52E5
//  #03 //011   ----------------------------------------
 BYTE   PATT
  POIN2 Label_014B52F2
//  #03 //012   ----------------------------------------
 BYTE   PATT
  POIN2 Label_014B52FF
//  #03 //013   ----------------------------------------
Label_014B532B:
 BYTE   N96  Dn4  v090
 BYTE   W04
 BYTE   N92
 BYTE   W04
 BYTE   N02
 BYTE   W96
//  #03 //014   ----------------------------------------
 BYTE   W84
 BYTE   W02
 BYTE   PEND 
Label_014B5336:
 BYTE   N96  Cs4  v090
 BYTE   W04
 BYTE   N22
 BYTE   W96
//  #03 //015   ----------------------------------------
 BYTE   W19
 BYTE   PEND 
Label_014B533E:
 BYTE   N22  Bn3  v090
 BYTE   W24
 BYTE   Cs4
 BYTE   W24
 BYTE   Dn4
 BYTE   W24
 BYTE   N96
 BYTE   W04
 BYTE   N92
 BYTE   W04
//  #03 //016   ----------------------------------------
 BYTE   N02
 BYTE   W96
//  #03 //017   ----------------------------------------
 BYTE   W84
 BYTE   W02
 BYTE   PEND 
//  #03 //018   ----------------------------------------
 BYTE   PATT
  POIN2 Label_014B5336
//  #03 //019   ----------------------------------------
Label_014B5354:
 BYTE   N22  Bn3  v090
 BYTE   W24
 BYTE   Cs4
 BYTE   W24
 BYTE   Dn4
 BYTE   W24
 BYTE   N10  Fs4  v110
 BYTE   N10  Fs3  v080
 BYTE   W12
 BYTE   En4  v110
 BYTE   N10  En3  v080
 BYTE   W12
 BYTE   PEND 
//  #03 //020   ----------------------------------------
Label_014B536A:
 BYTE   N10  Dn4  v110
 BYTE   N10  Dn3  v080
 BYTE   W12
 BYTE   N22  En4  v110
 BYTE   N22  En3  v080
 BYTE   W24
 BYTE   N10  Dn4  v110
 BYTE   N10  Dn3  v080
 BYTE   W12
 BYTE   Cs4  v110
 BYTE   N10  Cs3  v080
 BYTE   W12
 BYTE   N22  Dn4  v110
 BYTE   N22  Dn3  v080
 BYTE   W24
 BYTE   N10  Cs4  v110
 BYTE   N10  Cs3  v080
 BYTE   W12
 BYTE   PEND 
//  #03 //021   ----------------------------------------
Label_014B5394:
 BYTE   N10  Bn3  v110
 BYTE   N10  Bn2  v080
 BYTE   W12
 BYTE   N22  Bn3  v110
 BYTE   N22  Bn2  v080
 BYTE   W24
 BYTE   N10  Cs4  v110
 BYTE   N10  Cs3  v080
 BYTE   W12
 BYTE   N22  Dn4  v110
 BYTE   N22  Dn3  v080
 BYTE   W24
 BYTE   N10  Fs4  v110
 BYTE   N10  Fs3  v080
 BYTE   W12
 BYTE   En4  v110
 BYTE   N10  En3  v080
 BYTE   W12
 BYTE   PEND 
//  #03 //022   ----------------------------------------
Label_014B53BE:
 BYTE   N10  Dn4  v110
 BYTE   N10  Dn3  v080
 BYTE   W12
 BYTE   N22  En4  v110
 BYTE   N22  En3  v080
 BYTE   W24
 BYTE   N10  Dn4  v110
 BYTE   N10  Dn3  v080
 BYTE   W12
 BYTE   Cs4  v110
 BYTE   N10  Cs3  v080
 BYTE   W12
 BYTE   N22  Dn3
 BYTE   N22  Dn4  v110
 BYTE   W24
 BYTE   N10  Cs4
 BYTE   N10  Cs3  v080
 BYTE   W12
 BYTE   PEND 
//  #03 //023   ----------------------------------------
Label_014B53E6:
 BYTE   N10  Bn3  v110
 BYTE   N10  Bn2  v080
 BYTE   W12
 BYTE   N22  Bn3  v110
 BYTE   N22  Bn2  v080
 BYTE   W24
 BYTE   N10  Cs4  v110
 BYTE   N10  Cs3  v080
 BYTE   W12
 BYTE   N22  Dn4  v110
 BYTE   N22  Dn3  v080
 BYTE   W24
 BYTE   N16  Cs4  v110
 BYTE   N16  Cs3  v080
 BYTE   W18
 BYTE   Cs4  v110
 BYTE   N16  Cs3  v080
 BYTE   W18
 BYTE   PEND 
//  #03 //024   ----------------------------------------
Label_014B5410:
 BYTE   N10  Cs4  v110
 BYTE   N10  Cs3  v080
 BYTE   W60
 BYTE   Dn4  v120
 BYTE   W48
 BYTE   PEND 
//  #03 //025   ----------------------------------------
Label_014B541B:
 BYTE   N10  Fs3  v120
 BYTE   W12
 BYTE   Bn3
 BYTE   W12
 BYTE   Dn4
 BYTE   W12
 BYTE   Cs4
 BYTE   W84
 BYTE   PEND 
//  #03 //026   ----------------------------------------
 BYTE   PATT
  POIN2 Label_014B52A9
//  #03 //027   ----------------------------------------
 BYTE   PATT
  POIN2 Label_014B52B0
//  #03 //028   ----------------------------------------
 BYTE   PATT
  POIN2 Label_014B52C1
//  #03 //029   ----------------------------------------
 BYTE   PATT
  POIN2 Label_014B52A9
//  #03 //030   ----------------------------------------
 BYTE   PATT
  POIN2 Label_014B52B0
//  #03 //031   ----------------------------------------
 BYTE   PATT
  POIN2 Label_014B52D8
//  #03 //032   ----------------------------------------
 BYTE   PATT
  POIN2 Label_014B52E5
//  #03 //033   ----------------------------------------
 BYTE   PATT
  POIN2 Label_014B52F2
//  #03 //034   ----------------------------------------
 BYTE   PATT
  POIN2 Label_014B52FF
//  #03 //035   ----------------------------------------
 BYTE   PATT
  POIN2 Label_014B52D8
//  #03 //036   ----------------------------------------
 BYTE   PATT
  POIN2 Label_014B52E5
//  #03 //037   ----------------------------------------
 BYTE   PATT
  POIN2 Label_014B52F2
//  #03 //038   ----------------------------------------
 BYTE   PATT
  POIN2 Label_014B52FF
//  #03 //039   ----------------------------------------
 BYTE   PATT
  POIN2 Label_014B532B
//  #03 //040   ----------------------------------------
 BYTE   PATT
  POIN2 Label_014B5336
//  #03 //041   ----------------------------------------
 BYTE   PATT
  POIN2 Label_014B533E
//  #03 //042   ----------------------------------------
 BYTE   PATT
  POIN2 Label_014B5336
//  #03 //043   ----------------------------------------
 BYTE   PATT
  POIN2 Label_014B5354
//  #03 //044   ----------------------------------------
 BYTE   PATT
  POIN2 Label_014B536A
//  #03 //045   ----------------------------------------
 BYTE   PATT
  POIN2 Label_014B5394
//  #03 //046   ----------------------------------------
 BYTE   PATT
  POIN2 Label_014B53BE
//  #03 //047   ----------------------------------------
 BYTE   PATT
  POIN2 Label_014B53E6
//  #03 //048   ----------------------------------------
 BYTE   PATT
  POIN2 Label_014B5410
//  #03 //049   ----------------------------------------
 BYTE   PATT
  POIN2 Label_014B541B
//  #03 //050   ----------------------------------------
 BYTE   PATT
  POIN2 Label_014B52A9
//  #03 //051   ----------------------------------------
 BYTE   PATT
  POIN2 Label_014B52B0
//  #03 //052   ----------------------------------------
 BYTE   PATT
  POIN2 Label_014B52C1
//  #03 //053   ----------------------------------------
 BYTE   PATT
  POIN2 Label_014B52A9
//  #03 //054   ----------------------------------------
 BYTE   PATT
  POIN2 Label_014B52B0
//  #03 //055   ----------------------------------------
 BYTE   PATT
  POIN2 Label_014B52D8
//  #03 //056   ----------------------------------------
 BYTE   PATT
  POIN2 Label_014B52E5
//  #03 //057   ----------------------------------------
 BYTE   PATT
  POIN2 Label_014B52F2
//  #03 //058   ----------------------------------------
 BYTE   PATT
  POIN2 Label_014B52FF
//  #03 //059   ----------------------------------------
 BYTE   PATT
  POIN2 Label_014B52D8
//  #03 //060   ----------------------------------------
 BYTE   PATT
  POIN2 Label_014B52E5
//  #03 //061   ----------------------------------------
 BYTE   PATT
  POIN2 Label_014B52F2
//  #03 //062   ----------------------------------------
 BYTE   PATT
  POIN2 Label_014B52FF
//  #03 //063   ----------------------------------------
 BYTE   PATT
  POIN2 Label_014B532B
//  #03 //064   ----------------------------------------
 BYTE   PATT
  POIN2 Label_014B5336
//  #03 //065   ----------------------------------------
 BYTE   PATT
  POIN2 Label_014B533E
//  #03 //066   ----------------------------------------
 BYTE   PATT
  POIN2 Label_014B5336
//  #03 //067   ----------------------------------------
 BYTE   PATT
  POIN2 Label_014B5354
//  #03 //068   ----------------------------------------
 BYTE   PATT
  POIN2 Label_014B536A
//  #03 //069   ----------------------------------------
 BYTE   PATT
  POIN2 Label_014B5394
//  #03 //070   ----------------------------------------
 BYTE   PATT
  POIN2 Label_014B53BE
//  #03 //071   ----------------------------------------
 BYTE   PATT
  POIN2 Label_014B53E6
//  #03 //072   ----------------------------------------
 BYTE   PATT
  POIN2 Label_014B5410
//  #03 //073   ----------------------------------------
 BYTE   N10  Fs3  v112
 BYTE   W12
 BYTE   Bn3  v111
 BYTE   W12
 BYTE   Dn4  v109
 BYTE   W12
 BYTE   Cs4  v108
 BYTE   W84
//  #03 //074   ----------------------------------------
 BYTE   Cs4  v094
 BYTE   W12
 BYTE   En4  v092
 BYTE   W84
//  #03 //075   ----------------------------------------
 BYTE   En4  v079
 BYTE   W12
 BYTE   N44  Gn4  v078
 BYTE   W02
 BYTE   N02
 BYTE   W44
 BYTE   W01
 BYTE   N56  An4  v069
 BYTE   W02
 BYTE   N02
 BYTE   W56
//  #03 //076   ----------------------------------------
 BYTE   W01
 BYTE   N10  Dn4  v060
 BYTE   W48
 BYTE   Fs3  v052
 BYTE   W12
 BYTE   Bn3  v051
 BYTE   W12
 BYTE   Dn4  v049
 BYTE   W12
 BYTE   Cs4  v048
 BYTE   W84
//  #03 //077   ----------------------------------------
 BYTE   Cs4  v034
 BYTE   W12
 BYTE   En4  v032
 BYTE   W84
//  #03 //078   ----------------------------------------
 BYTE   En4  v019
 BYTE   W12
 BYTE   N44  Gn4  v018
 BYTE   W02
 BYTE   N02
 BYTE   W44
 BYTE   W01
 BYTE   N56  An4  v009
 BYTE   W02
 BYTE   N02
 BYTE   W56
//  #03 //079   ----------------------------------------
 BYTE   W01
 BYTE   GoTo
  POIN2 Label_014B5290
 BYTE   FINE

//**************** Track 4 (Midi-Chn.3) ****************//

GundamnF19Act12_004:
//  #04 //000   ----------------------------------------
Label_014B6504:
 BYTE   TEMPO   300*GundamnF19Act12_tbs/2
 BYTE   KEYSH   GundamnF19Act12_key+0
 BYTE   VOICE   63
 BYTE   VOL   33*GundamnF19Act12_mvl/mxv
 BYTE   PAN   c_v-32
 BYTE   W06
 BYTE   TEMPO   160*GundamnF19Act12_tbs/2
 BYTE   N10  Bn3  v100
 BYTE   W48
 BYTE   Fs2
 BYTE   W12
 BYTE   Bn2
 BYTE   W12
 BYTE   Dn3
 BYTE   W12
 BYTE   An3
 BYTE   W84
//  #04 //001   ----------------------------------------
Label_014B651D:
 BYTE   N10  An3  v100
 BYTE   W12
 BYTE   Cs4
 BYTE   W84
 BYTE   PEND 
//  #04 //002   ----------------------------------------
 BYTE   N10  Cs4  v100
 BYTE   W12
 BYTE   N44  Dn4
 BYTE   W02
 BYTE   N02
 BYTE   W44
 BYTE   W01
 BYTE   N56  En4
 BYTE   W02
 BYTE   N02
 BYTE   W56
//  #04 //003   ----------------------------------------
 BYTE   W01
 BYTE   N10  Bn3
 BYTE   W48
 BYTE   Fs2
 BYTE   W12
 BYTE   Bn2
 BYTE   W12
 BYTE   Dn3
 BYTE   W12
 BYTE   An3
 BYTE   W84
//  #04 //004   ----------------------------------------
 BYTE   PATT
  POIN2 Label_014B651D
//  #04 //005   ----------------------------------------
 BYTE   N10  Cs4  v100
 BYTE   W12
 BYTE   N44  Dn4
 BYTE   W02
 BYTE   N02
 BYTE   W44
 BYTE   W01
 BYTE   N56  En4
 BYTE   W02
 BYTE   N02
 BYTE   W56
//  #04 //006   ----------------------------------------
 BYTE   W01
Label_014B6554:
 BYTE   PAN   c_v+0
 BYTE   W48
 BYTE   N10  Fs2  v120
 BYTE   W12
 BYTE   Bn2
 BYTE   W12
 BYTE   Dn3
 BYTE   W12
 BYTE   N22  Cs3
 BYTE   W24
//  #04 //007   ----------------------------------------
 BYTE   An2
 BYTE   W24
 BYTE   Fs2
 BYTE   W24
 BYTE   An2
 BYTE   W24
 BYTE   N96  Bn2
 BYTE   W04
 BYTE   N10
 BYTE   W96
//  #04 //008   ----------------------------------------
 BYTE   W07
 BYTE   Gn2
 BYTE   W12
 BYTE   Dn2
 BYTE   W12
 BYTE   Gn2
 BYTE   W12
 BYTE   N22  An2
 BYTE   W24
 BYTE   N10  En2
 BYTE   W12
 BYTE   N22  An2
 BYTE   W72
//  #04 //009   ----------------------------------------
 BYTE   N10  Fs2
 BYTE   W12
 BYTE   Bn2
 BYTE   W12
 BYTE   Dn3
 BYTE   W12
 BYTE   N22  Cs3
 BYTE   W24
 BYTE   An2
 BYTE   W24
 BYTE   Fs2
 BYTE   W24
//  #04 //010   ----------------------------------------
 BYTE   An2
 BYTE   W24
 BYTE   N96  Fs3
 BYTE   W04
 BYTE   N10
 BYTE   W96
//  #04 //011   ----------------------------------------
 BYTE   W07
 BYTE   Gn2
 BYTE   W12
 BYTE   Dn2
 BYTE   W12
 BYTE   Gn2
 BYTE   W12
 BYTE   N22  An2
 BYTE   W24
 BYTE   N10  En2
 BYTE   W12
 BYTE   N22  An2
 BYTE   W96
//  #04 //012   ----------------------------------------
 BYTE   W96
//  #04 //013   ----------------------------------------
 BYTE   W96
//  #04 //014   ----------------------------------------
 BYTE   W96
//  #04 //015   ----------------------------------------
 BYTE   W96
//  #04 //016   ----------------------------------------
 BYTE   W96
//  #04 //017   ----------------------------------------
 BYTE   W96
//  #04 //018   ----------------------------------------
 BYTE   W96
//  #04 //019   ----------------------------------------
 BYTE   W24
 BYTE   PEND 
Label_014B65AB:
 BYTE   PAN   c_v-32
 BYTE   N10  Dn4  v100
 BYTE   N10  Fs3  v080
 BYTE   W12
 BYTE   Cs4  v100
 BYTE   N10  En3  v080
 BYTE   W12
 BYTE   Bn3  v100
 BYTE   N10  Dn3  v080
 BYTE   W12
 BYTE   N22  Cs4  v100
 BYTE   N22  En3  v080
 BYTE   W24
 BYTE   N10  Bn3  v100
 BYTE   N10  Dn3  v080
 BYTE   W12
//  #04 //020   ----------------------------------------
 BYTE   An3  v100
 BYTE   N10  Cs3  v080
 BYTE   W12
 BYTE   N22  Bn3  v100
 BYTE   N22  Dn3  v080
 BYTE   W24
 BYTE   N10  An3  v100
 BYTE   N10  Cs3  v080
 BYTE   W12
 BYTE   Gn3  v100
 BYTE   N10  Bn2  v080
 BYTE   W12
 BYTE   N22  Gn3  v100
 BYTE   N22  Bn2  v080
 BYTE   W24
 BYTE   N10  An3  v100
 BYTE   N10  Cs3  v080
 BYTE   W12
//  #04 //021   ----------------------------------------
 BYTE   N22  Bn3  v100
 BYTE   N22  Dn3  v080
 BYTE   W24
 BYTE   N10  Dn4  v100
 BYTE   N10  Fs3  v080
 BYTE   W12
 BYTE   Cs4  v100
 BYTE   N10  En3  v080
 BYTE   W12
 BYTE   Bn3  v100
 BYTE   N10  Dn3  v080
 BYTE   W12
 BYTE   N22  Cs4  v100
 BYTE   N22  En3  v080
 BYTE   W24
 BYTE   N10  Bn3  v100
 BYTE   N10  Dn3  v080
 BYTE   W12
//  #04 //022   ----------------------------------------
 BYTE   An3  v100
 BYTE   N10  Cs3  v080
 BYTE   W12
 BYTE   N22  Bn3  v100
 BYTE   N22  Dn3  v080
 BYTE   W24
 BYTE   N10  An3  v100
 BYTE   N10  Cs3  v080
 BYTE   W12
 BYTE   Gn3  v100
 BYTE   N10  Bn2  v080
 BYTE   W12
 BYTE   N22  Gn3  v100
 BYTE   N22  Bn2  v080
 BYTE   W24
 BYTE   N10  An3  v100
 BYTE   N10  Cs3  v080
 BYTE   W12
//  #04 //023   ----------------------------------------
 BYTE   N22  Bn3  v100
 BYTE   N22  Dn3  v080
 BYTE   W24
 BYTE   N16  Fs3  v100
 BYTE   N16  Cs3  v080
 BYTE   W18
 BYTE   Fs3  v100
 BYTE   N16  Cs3  v080
 BYTE   W18
 BYTE   N10  Fs3  v100
 BYTE   N10  Cs3  v080
 BYTE   W60
//  #04 //024   ----------------------------------------
 BYTE   Bn3  v100
 BYTE   W48
 BYTE   Fs2
 BYTE   W12
 BYTE   Bn2
 BYTE   W12
 BYTE   Dn3
 BYTE   W12
 BYTE   An3
 BYTE   W84
//  #04 //025   ----------------------------------------
 BYTE   An3
 BYTE   W12
 BYTE   Cs4
 BYTE   W84
//  #04 //026   ----------------------------------------
 BYTE   Cs4
 BYTE   W12
 BYTE   N44  Dn4
 BYTE   W02
 BYTE   N02
 BYTE   W44
 BYTE   W01
 BYTE   N56  En4
 BYTE   W02
 BYTE   N02
 BYTE   W56
//  #04 //027   ----------------------------------------
 BYTE   W01
 BYTE   N10  Bn3
 BYTE   W48
 BYTE   Fs2
 BYTE   W12
 BYTE   Bn2
 BYTE   W12
 BYTE   Dn3
 BYTE   W12
 BYTE   An3
 BYTE   W84
//  #04 //028   ----------------------------------------
 BYTE   An3
 BYTE   W12
 BYTE   Cs4
 BYTE   W84
//  #04 //029   ----------------------------------------
 BYTE   Cs4
 BYTE   W12
 BYTE   N44  Dn4
 BYTE   W02
 BYTE   N02
 BYTE   W44
 BYTE   W01
 BYTE   N56  En4
 BYTE   W02
 BYTE   N02
 BYTE   W56
//  #04 //030   ----------------------------------------
 BYTE   W01
 BYTE   PEND 
//  #04 //031   ----------------------------------------
 BYTE   PATT
  POIN2 Label_014B6554
//  #04 //032   ----------------------------------------
 BYTE   PATT
  POIN2 Label_014B65AB
//  #04 //033   ----------------------------------------
 BYTE   PATT
  POIN2 Label_014B6554
//  #04 //034   ----------------------------------------
 BYTE   PAN   c_v-32
 BYTE   N10  Dn4  v100
 BYTE   N10  Fs3  v080
 BYTE   W12
 BYTE   Cs4  v100
 BYTE   N10  En3  v080
 BYTE   W12
 BYTE   Bn3  v100
 BYTE   N10  Dn3  v080
 BYTE   W12
 BYTE   N22  Cs4  v100
 BYTE   N22  En3  v080
 BYTE   W24
 BYTE   N10  Bn3  v100
 BYTE   N10  Dn3  v080
 BYTE   W12
 BYTE   An3  v100
 BYTE   N10  Cs3  v080
 BYTE   W12
 BYTE   N22  Bn3  v100
 BYTE   N22  Dn3  v080
 BYTE   W24
//  #04 //035   ----------------------------------------
 BYTE   N10  An3  v100
 BYTE   N10  Cs3  v080
 BYTE   W12
 BYTE   Gn3  v100
 BYTE   N10  Bn2  v080
 BYTE   W12
 BYTE   N22  Gn3  v100
 BYTE   N22  Bn2  v080
 BYTE   W24
 BYTE   N10  An3  v100
 BYTE   N10  Cs3  v080
 BYTE   W12
 BYTE   N22  Bn3  v100
 BYTE   N22  Dn3  v080
 BYTE   W24
 BYTE   N10  Dn4  v100
 BYTE   N10  Fs3  v080
 BYTE   W12
//  #04 //036   ----------------------------------------
 BYTE   Cs4  v100
 BYTE   N10  En3  v080
 BYTE   W12
 BYTE   Bn3  v100
 BYTE   N10  Dn3  v080
 BYTE   W12
 BYTE   N22  Cs4  v100
 BYTE   N22  En3  v080
 BYTE   W24
 BYTE   N10  Bn3  v100
 BYTE   N10  Dn3  v080
 BYTE   W12
 BYTE   An3  v100
 BYTE   N10  Cs3  v080
 BYTE   W12
 BYTE   N22  Bn3  v100
 BYTE   N22  Dn3  v080
 BYTE   W24
//  #04 //037   ----------------------------------------
 BYTE   N10  An3  v100
 BYTE   N10  Cs3  v080
 BYTE   W12
 BYTE   Gn3  v100
 BYTE   N10  Bn2  v080
 BYTE   W12
 BYTE   N22  Gn3  v100
 BYTE   N22  Bn2  v080
 BYTE   W24
 BYTE   N10  An3  v100
 BYTE   N10  Cs3  v080
 BYTE   W12
 BYTE   N22  Bn3  v100
 BYTE   N22  Dn3  v080
 BYTE   W24
 BYTE   N16  Fs3  v100
 BYTE   N16  Cs3  v080
 BYTE   W18
//  #04 //038   ----------------------------------------
 BYTE   Fs3  v100
 BYTE   N16  Cs3  v080
 BYTE   W18
 BYTE   N10  Fs3  v100
 BYTE   N10  Cs3  v080
 BYTE   W60
 BYTE   Bn3  v100
 BYTE   W48
//  #04 //039   ----------------------------------------
 BYTE   Fs2  v094
 BYTE   W12
 BYTE   Bn2  v093
 BYTE   W12
 BYTE   Dn3  v091
 BYTE   W12
 BYTE   An3  v090
 BYTE   W84
//  #04 //040   ----------------------------------------
 BYTE   An3  v079
 BYTE   W12
 BYTE   Cs4  v077
 BYTE   W84
//  #04 //041   ----------------------------------------
 BYTE   Cs4  v066
 BYTE   W12
 BYTE   N44  Dn4  v065
 BYTE   W02
 BYTE   N02
 BYTE   W44
 BYTE   W01
 BYTE   N56  En4  v058
 BYTE   W02
 BYTE   N02
 BYTE   W56
//  #04 //042   ----------------------------------------
 BYTE   W01
 BYTE   N10  Bn3  v050
 BYTE   W48
 BYTE   Fs2  v044
 BYTE   W12
 BYTE   Bn2  v043
 BYTE   W12
 BYTE   Dn3  v041
 BYTE   W12
 BYTE   An3  v040
 BYTE   W84
//  #04 //043   ----------------------------------------
 BYTE   An3  v029
 BYTE   W12
 BYTE   Cs4  v027
 BYTE   W84
//  #04 //044   ----------------------------------------
 BYTE   Cs4  v016
 BYTE   W12
 BYTE   N44  Dn4  v015
 BYTE   W02
 BYTE   N02
 BYTE   W44
 BYTE   W01
 BYTE   N56  En4  v008
 BYTE   W02
 BYTE   N02
 BYTE   W56
//  #04 //045   ----------------------------------------
 BYTE   W01
 BYTE   GoTo
  POIN2 Label_014B6504
 BYTE   FINE

//**************** Track 5 (Midi-Chn.4) ****************//

GundamnF19Act12_005:
//  #05 //000   ----------------------------------------
Label_014B4638:
 BYTE   TEMPO   300*GundamnF19Act12_tbs/2
 BYTE   KEYSH   GundamnF19Act12_key+0
 BYTE   VOICE   63
 BYTE   VOL   26*GundamnF19Act12_mvl/mxv
 BYTE   PAN   c_v+0
 BYTE   W06
 BYTE   TEMPO   160*GundamnF19Act12_tbs/2
 BYTE   W18
 BYTE   N10  Dn4  v100
 BYTE   N10  Bn3  v080
 BYTE   W48
 BYTE   Fs3  v100
 BYTE   N10  Fs2  v080
 BYTE   W12
 BYTE   Bn3  v100
 BYTE   N10  Bn2  v080
 BYTE   W12
//  #05 //001   ----------------------------------------
 BYTE   Dn4  v100
 BYTE   N10  Dn3  v080
 BYTE   W12
 BYTE   Cs4  v100
 BYTE   N10  An3  v080
 BYTE   W84
//  #05 //002   ----------------------------------------
Label_014B4665:
 BYTE   N10  Cs4  v100
 BYTE   N10  An3  v080
 BYTE   W12
 BYTE   En4  v100
 BYTE   N10  Cs4  v080
 BYTE   W84
 BYTE   PEND 
//  #05 //003   ----------------------------------------
Label_014B4673:
 BYTE   N10  En4  v100
 BYTE   N10  Cs4  v080
 BYTE   W12
 BYTE   N44  Gn4  v100
 BYTE   N44  Dn4  v080
 BYTE   W02
 BYTE   N02  Gn4  v100
 BYTE   N02  Dn4  v080
 BYTE   W44
 BYTE   W01
 BYTE   N56  An4  v100
 BYTE   N56  En4  v080
 BYTE   W02
 BYTE   N02  An4  v100
 BYTE   N02  En4  v080
 BYTE   W56
//  #05 //004   ----------------------------------------
 BYTE   W01
 BYTE   PEND 
Label_014B4699:
 BYTE   N10  Dn4  v100
 BYTE   N10  Bn3  v080
 BYTE   W48
 BYTE   Fs3  v100
 BYTE   N10  Fs2  v080
 BYTE   W12
 BYTE   Bn3  v100
 BYTE   N10  Bn2  v080
 BYTE   W12
 BYTE   Dn4  v100
 BYTE   N10  Dn3  v080
 BYTE   W12
 BYTE   Cs4  v100
 BYTE   N10  An3  v080
 BYTE   W84
 BYTE   PEND 
//  #05 //005   ----------------------------------------
 BYTE   PATT
  POIN2 Label_014B4665
//  #05 //006   ----------------------------------------
Label_014B46BE:
 BYTE   N10  En4  v100
 BYTE   N10  Cs4  v080
 BYTE   W12
 BYTE   N44  Gn4  v100
 BYTE   N44  Dn4  v080
 BYTE   W02
 BYTE   N02  Gn4  v100
 BYTE   N02  Dn4  v080
 BYTE   W44
 BYTE   W01
 BYTE   N56  An4  v100
 BYTE   N56  En4  v080
 BYTE   W02
 BYTE   N02  An4  v100
 BYTE   N02  En4  v080
 BYTE   W96
//  #05 //007   ----------------------------------------
 BYTE   W09
 BYTE   PEND 
Label_014B46E4:
 BYTE   N10  Fs2  v100
 BYTE   W12
 BYTE   Bn2
 BYTE   W12
 BYTE   Dn3
 BYTE   W12
 BYTE   N22  Cs3
 BYTE   W24
 BYTE   An2
 BYTE   W24
 BYTE   Fs2
 BYTE   W24
 BYTE   PEND 
//  #05 //008   ----------------------------------------
Label_014B46F4:
 BYTE   N22  An2  v100
 BYTE   W24
 BYTE   N96  Bn2
 BYTE   W04
 BYTE   N10
 BYTE   W96
//  #05 //009   ----------------------------------------
 BYTE   W07
 BYTE   PEND 
Label_014B46FF:
 BYTE   N10  Gn2  v100
 BYTE   W12
 BYTE   Dn2
 BYTE   W12
 BYTE   Gn2
 BYTE   W12
 BYTE   N22  An2
 BYTE   W24
 BYTE   N10  En2
 BYTE   W12
 BYTE   N22  An2
 BYTE   W72
 BYTE   PEND 
//  #05 //010   ----------------------------------------
 BYTE   PATT
  POIN2 Label_014B46E4
//  #05 //011   ----------------------------------------
Label_014B4716:
 BYTE   N22  An2  v100
 BYTE   W24
 BYTE   N96  Fs3
 BYTE   W04
 BYTE   N10
 BYTE   W96
//  #05 //012   ----------------------------------------
 BYTE   W07
 BYTE   PEND 
Label_014B4721:
 BYTE   N10  Gn2  v100
 BYTE   W12
 BYTE   Dn2
 BYTE   W12
 BYTE   Gn2
 BYTE   W12
 BYTE   N22  An2
 BYTE   W24
 BYTE   N10  En2
 BYTE   W12
 BYTE   N22  An2
 BYTE   W96
//  #05 //013   ----------------------------------------
 BYTE   W96
//  #05 //014   ----------------------------------------
 BYTE   W96
//  #05 //015   ----------------------------------------
 BYTE   W96
//  #05 //016   ----------------------------------------
 BYTE   W96
//  #05 //017   ----------------------------------------
 BYTE   W96
//  #05 //018   ----------------------------------------
 BYTE   W96
//  #05 //019   ----------------------------------------
 BYTE   W96
//  #05 //020   ----------------------------------------
 BYTE   W24
 BYTE   PEND 
Label_014B473B:
 BYTE   N10  Fs3  v070
 BYTE   N10  Fs4  v090
 BYTE   N10  Dn4  v080
 BYTE   W12
 BYTE   En3  v070
 BYTE   N10  En4  v090
 BYTE   N10  Cs4  v080
 BYTE   W12
 BYTE   Dn3  v070
 BYTE   N10  Dn4  v090
 BYTE   N10  Bn3  v080
 BYTE   W12
 BYTE   N22  En3  v070
 BYTE   N22  En4  v090
 BYTE   N22  Cs4  v080
 BYTE   W24
 BYTE   N10  Dn3  v070
 BYTE   N10  Dn4  v090
 BYTE   N10  Bn3  v080
 BYTE   W12
//  #05 //021   ----------------------------------------
 BYTE   Cs3  v070
 BYTE   N10  Cs4  v090
 BYTE   N10  An3  v080
 BYTE   W12
 BYTE   N22  Dn3  v070
 BYTE   N22  Dn4  v090
 BYTE   N22  Bn3  v080
 BYTE   W24
 BYTE   PEND 
Label_014B477F:
 BYTE   N10  Cs3  v070
 BYTE   N10  Cs4  v090
 BYTE   N10  An3  v080
 BYTE   W12
 BYTE   Bn2  v070
 BYTE   N10  Bn3  v090
 BYTE   N10  Gn3  v080
 BYTE   W12
 BYTE   N22  Bn2  v070
 BYTE   N22  Bn3  v090
 BYTE   N22  Gn3  v080
 BYTE   W24
 BYTE   N10  Cs3  v070
 BYTE   N10  Cs4  v090
 BYTE   N10  An3  v080
 BYTE   W12
//  #05 //022   ----------------------------------------
 BYTE   N22  Dn3
 BYTE   N22  Dn4  v090
 BYTE   N22  Bn3  v080
 BYTE   W24
 BYTE   N10  Fs3  v070
 BYTE   N10  Fs4  v090
 BYTE   N10  Dn4  v080
 BYTE   W12
 BYTE   PEND 
Label_014B47BA:
 BYTE   N10  En3  v070
 BYTE   N10  En4  v090
 BYTE   N10  Cs4  v080
 BYTE   W12
 BYTE   Dn3  v070
 BYTE   N10  Dn4  v090
 BYTE   N10  Bn3  v080
 BYTE   W12
 BYTE   N22  En3  v070
 BYTE   N22  En4  v090
 BYTE   N22  Cs4  v080
 BYTE   W24
 BYTE   N10  Dn3  v070
 BYTE   N10  Dn4  v090
 BYTE   N10  Bn3  v080
 BYTE   W12
//  #05 //023   ----------------------------------------
 BYTE   Cs3
 BYTE   N10  Cs4  v090
 BYTE   N10  An3  v080
 BYTE   W12
 BYTE   N22  Dn3  v070
 BYTE   N22  Dn4  v090
 BYTE   N22  Bn3  v080
 BYTE   W24
 BYTE   PEND 
Label_014B47F4:
 BYTE   N10  Cs3  v070
 BYTE   N10  Cs4  v090
 BYTE   N10  An3  v080
 BYTE   W12
 BYTE   Bn2  v070
 BYTE   N10  Bn3  v090
 BYTE   N10  Gn3  v080
 BYTE   W12
 BYTE   N22  Bn2  v070
 BYTE   N22  Bn3  v090
 BYTE   N22  Gn3  v080
 BYTE   W24
 BYTE   N10  Cs3  v070
 BYTE   N10  Cs4  v090
 BYTE   N10  An3  v080
 BYTE   W12
//  #05 //024   ----------------------------------------
 BYTE   N22  Dn3
 BYTE   N22  Dn4  v090
 BYTE   N22  Bn3  v080
 BYTE   W24
 BYTE   N16  Cs3  v070
 BYTE   N16  Cs4  v090
 BYTE   N16  Fs3  v080
 BYTE   W18
 BYTE   PEND 
Label_014B482F:
 BYTE   N16  Cs3  v070
 BYTE   N16  Cs4  v090
 BYTE   N16  Fs3  v080
 BYTE   W18
 BYTE   N10  Cs3  v070
 BYTE   N10  Cs4  v090
 BYTE   N10  Fs3  v080
 BYTE   W60
//  #05 //025   ----------------------------------------
 BYTE   Dn4  v100
 BYTE   N10  Bn3  v080
 BYTE   W48
 BYTE   PEND 
Label_014B484A:
 BYTE   N10  Fs3  v100
 BYTE   N10  Fs2  v080
 BYTE   W12
 BYTE   Bn3  v100
 BYTE   N10  Bn2  v080
 BYTE   W12
 BYTE   Dn4  v100
 BYTE   N10  Dn3  v080
 BYTE   W12
 BYTE   Cs4  v100
 BYTE   N10  An3  v080
 BYTE   W84
 BYTE   PEND 
//  #05 //026   ----------------------------------------
 BYTE   PATT
  POIN2 Label_014B4665
//  #05 //027   ----------------------------------------
 BYTE   PATT
  POIN2 Label_014B4673
//  #05 //028   ----------------------------------------
 BYTE   PATT
  POIN2 Label_014B4699
//  #05 //029   ----------------------------------------
 BYTE   PATT
  POIN2 Label_014B4665
//  #05 //030   ----------------------------------------
 BYTE   PATT
  POIN2 Label_014B46BE
//  #05 //031   ----------------------------------------
 BYTE   PATT
  POIN2 Label_014B46E4
//  #05 //032   ----------------------------------------
 BYTE   PATT
  POIN2 Label_014B46F4
//  #05 //033   ----------------------------------------
 BYTE   PATT
  POIN2 Label_014B46FF
//  #05 //034   ----------------------------------------
 BYTE   PATT
  POIN2 Label_014B46E4
//  #05 //035   ----------------------------------------
 BYTE   PATT
  POIN2 Label_014B4716
//  #05 //036   ----------------------------------------
 BYTE   PATT
  POIN2 Label_014B4721
//  #05 //037   ----------------------------------------
 BYTE   PATT
  POIN2 Label_014B473B
//  #05 //038   ----------------------------------------
 BYTE   PATT
  POIN2 Label_014B477F
//  #05 //039   ----------------------------------------
 BYTE   PATT
  POIN2 Label_014B47BA
//  #05 //040   ----------------------------------------
 BYTE   PATT
  POIN2 Label_014B47F4
//  #05 //041   ----------------------------------------
 BYTE   PATT
  POIN2 Label_014B482F
//  #05 //042   ----------------------------------------
 BYTE   PATT
  POIN2 Label_014B484A
//  #05 //043   ----------------------------------------
 BYTE   PATT
  POIN2 Label_014B4665
//  #05 //044   ----------------------------------------
 BYTE   PATT
  POIN2 Label_014B4673
//  #05 //045   ----------------------------------------
 BYTE   PATT
  POIN2 Label_014B4699
//  #05 //046   ----------------------------------------
 BYTE   PATT
  POIN2 Label_014B4665
//  #05 //047   ----------------------------------------
 BYTE   PATT
  POIN2 Label_014B46BE
//  #05 //048   ----------------------------------------
 BYTE   PATT
  POIN2 Label_014B46E4
//  #05 //049   ----------------------------------------
 BYTE   PATT
  POIN2 Label_014B46F4
//  #05 //050   ----------------------------------------
 BYTE   PATT
  POIN2 Label_014B46FF
//  #05 //051   ----------------------------------------
 BYTE   PATT
  POIN2 Label_014B46E4
//  #05 //052   ----------------------------------------
 BYTE   PATT
  POIN2 Label_014B4716
//  #05 //053   ----------------------------------------
 BYTE   PATT
  POIN2 Label_014B4721
//  #05 //054   ----------------------------------------
 BYTE   PATT
  POIN2 Label_014B473B
//  #05 //055   ----------------------------------------
 BYTE   PATT
  POIN2 Label_014B477F
//  #05 //056   ----------------------------------------
 BYTE   PATT
  POIN2 Label_014B47BA
//  #05 //057   ----------------------------------------
 BYTE   PATT
  POIN2 Label_014B47F4
//  #05 //058   ----------------------------------------
 BYTE   N16  Cs3  v070
 BYTE   N16  Cs4  v090
 BYTE   N16  Fs3  v080
 BYTE   W18
 BYTE   N10  Cs3  v070
 BYTE   N10  Cs4  v090
 BYTE   N10  Fs3  v080
 BYTE   W60
 BYTE   Dn4  v098
 BYTE   N10  Bn3  v078
 BYTE   W48
//  #05 //059   ----------------------------------------
 BYTE   Fs3  v092
 BYTE   N10  Fs2  v073
 BYTE   W12
 BYTE   Bn3  v090
 BYTE   N10  Bn2  v072
 BYTE   W12
 BYTE   Dn4  v089
 BYTE   N10  Dn3  v071
 BYTE   W12
 BYTE   Cs4  v087
 BYTE   N10  An3  v069
 BYTE   W84
//  #05 //060   ----------------------------------------
 BYTE   Cs4  v076
 BYTE   N10  An3  v060
 BYTE   W12
 BYTE   En4  v075
 BYTE   N10  Cs4  v060
 BYTE   W84
//  #05 //061   ----------------------------------------
 BYTE   En4  v064
 BYTE   N10  Cs4  v051
 BYTE   W12
 BYTE   N44  Gn4  v062
 BYTE   N44  Dn4  v049
 BYTE   W02
 BYTE   N02  Gn4  v062
 BYTE   N02  Dn4  v049
 BYTE   W44
 BYTE   W01
 BYTE   N56  An4  v056
 BYTE   N56  En4  v044
 BYTE   W02
 BYTE   N02  An4  v056
 BYTE   N02  En4  v044
 BYTE   W56
//  #05 //062   ----------------------------------------
 BYTE   W01
 BYTE   N10  Dn4  v048
 BYTE   N10  Bn3  v038
 BYTE   W48
 BYTE   Fs3  v042
 BYTE   N10  Fs2  v033
 BYTE   W12
 BYTE   Bn3  v040
 BYTE   N10  Bn2  v032
 BYTE   W12
 BYTE   Dn4  v039
 BYTE   N10  Dn3  v031
 BYTE   W12
 BYTE   Cs4  v037
 BYTE   N10  An3  v029
 BYTE   W84
//  #05 //063   ----------------------------------------
 BYTE   Cs4  v026
 BYTE   N10  An3  v020
 BYTE   W12
 BYTE   En4  v025
 BYTE   N10  Cs4  v020
 BYTE   W84
//  #05 //064   ----------------------------------------
 BYTE   En4  v014
 BYTE   N10  Cs4  v011
 BYTE   W12
 BYTE   N44  Gn4  v012
 BYTE   N44  Dn4  v009
 BYTE   W02
 BYTE   N02  Gn4  v012
 BYTE   N02  Dn4  v009
 BYTE   W44
 BYTE   W01
 BYTE   N42  An4  v006
 BYTE   N42  En4  v004
 BYTE   W42
//  #05 //065   ----------------------------------------
 BYTE   GoTo
  POIN2 Label_014B4638
 BYTE   FINE

//**************** Track 6 (Midi-Chn.5) ****************//

GundamnF19Act12_006:
//  #06 //000   ----------------------------------------
Label_014B3F88:
 BYTE   TEMPO   300*GundamnF19Act12_tbs/2
 BYTE   KEYSH   GundamnF19Act12_key+0
 BYTE   VOICE   81
 BYTE   VOL   36*GundamnF19Act12_mvl/mxv
 BYTE   PAN   c_v-16
 BYTE   PAN   c_v-16
 BYTE   W06
 BYTE   TEMPO   160*GundamnF19Act12_tbs/2
 BYTE   W96
//  #06 //001   ----------------------------------------
 BYTE   W96
//  #06 //002   ----------------------------------------
 BYTE   W96
//  #06 //003   ----------------------------------------
 BYTE   W96
//  #06 //004   ----------------------------------------
 BYTE   W96
//  #06 //005   ----------------------------------------
 BYTE   W96
//  #06 //006   ----------------------------------------
 BYTE   W96
//  #06 //007   ----------------------------------------
 BYTE   W96
//  #06 //008   ----------------------------------------
 BYTE   W96
//  #06 //009   ----------------------------------------
 BYTE   W96
//  #06 //010   ----------------------------------------
 BYTE   W96
//  #06 //011   ----------------------------------------
 BYTE   W96
//  #06 //012   ----------------------------------------
 BYTE   W96
//  #06 //013   ----------------------------------------
 BYTE   W96
//  #06 //014   ----------------------------------------
 BYTE   W96
//  #06 //015   ----------------------------------------
 BYTE   W96
//  #06 //016   ----------------------------------------
Label_014B3FA7:
 BYTE   BEND   c_v-64
 BYTE   N36  Bn3  v096
 BYTE   N36  Fs4  v108
 BYTE   BEND   c_v-62
 BYTE   BEND   c_v-60
 BYTE   BEND   c_v-58
 BYTE   BEND   c_v-56
 BYTE   BEND   c_v-54
 BYTE   BEND   c_v-52
 BYTE   BEND   c_v-50
 BYTE   BEND   c_v-48
 BYTE   BEND   c_v-46
 BYTE   BEND   c_v-44
 BYTE   BEND   c_v-42
 BYTE   BEND   c_v-40
 BYTE   PEND 
Label_014B3FC8:
 BYTE   BEND   c_v-38
 BYTE   BEND   c_v-36
 BYTE   BEND   c_v-34
 BYTE   BEND   c_v-32
 BYTE   BEND   c_v-30
 BYTE   BEND   c_v-28
 BYTE   BEND   c_v-26
 BYTE   BEND   c_v-24
 BYTE   BEND   c_v-22
 BYTE   BEND   c_v-20
 BYTE   BEND   c_v-18
 BYTE   BEND   c_v-16
 BYTE   BEND   c_v-14
 BYTE   PEND 
Label_014B3FE3:
 BYTE   BEND   c_v-12
 BYTE   BEND   c_v-10
 BYTE   BEND   c_v-8
 BYTE   BEND   c_v-6
 BYTE   BEND   c_v-4
 BYTE   BEND   c_v-2
 BYTE   BEND   c_v+0
 BYTE   W24
 BYTE   N12  Bn3  v108
 BYTE   N12  Gn3  v096
 BYTE   W36
 BYTE   Bn3
 BYTE   N12  Fs4  v108
 BYTE   W12
 BYTE   N36  Bn3
 BYTE   N36  Gn3  v096
 BYTE   W36
//  #06 //017   ----------------------------------------
 BYTE   N12  Bn3
 BYTE   N12  Fs4  v108
 BYTE   W12
 BYTE   N24  Bn3
 BYTE   N24  Gn3  v096
 BYTE   W24
 BYTE   Fs4  v108
 BYTE   N24  Bn3  v096
 BYTE   W24
 BYTE   En4  v108
 BYTE   N24  An3  v096
 BYTE   W24
 BYTE   N12
 BYTE   N12  Dn4  v108
 BYTE   W12
//  #06 //018   ----------------------------------------
 BYTE   N96  Cs4
 BYTE   N96  An3  v096
 BYTE   W04
 BYTE   N72  Cs4  v108
 BYTE   N72  An3  v096
 BYTE   W96
//  #06 //019   ----------------------------------------
 BYTE   W66
 BYTE   W01
 BYTE   PEND 
//  #06 //020   ----------------------------------------
 BYTE   PATT
  POIN2 Label_014B3FA7
//  #06 //021   ----------------------------------------
 BYTE   PATT
  POIN2 Label_014B3FC8
//  #06 //022   ----------------------------------------
Label_014B403B:
 BYTE   BEND   c_v-12
 BYTE   BEND   c_v-10
 BYTE   BEND   c_v-8
 BYTE   BEND   c_v-6
 BYTE   BEND   c_v-4
 BYTE   BEND   c_v-2
 BYTE   BEND   c_v+0
 BYTE   W24
 BYTE   N12  Bn3  v108
 BYTE   N12  Gn3  v096
 BYTE   W36
 BYTE   Bn3
 BYTE   N12  Fs4  v108
 BYTE   W12
 BYTE   N36  Bn3
 BYTE   N36  Gn3  v096
 BYTE   W36
//  #06 //023   ----------------------------------------
 BYTE   N12  Bn3
 BYTE   N12  Fs4  v108
 BYTE   W12
 BYTE   N24  Bn3
 BYTE   N24  Gn3  v096
 BYTE   W24
 BYTE   Fs4  v108
 BYTE   N24  Bn3  v096
 BYTE   W24
 BYTE   En4  v108
 BYTE   N24  An3  v096
 BYTE   W24
 BYTE   N12
 BYTE   N12  Dn4  v108
 BYTE   W12
 BYTE   PEND 
//  #06 //024   ----------------------------------------
Label_014B407A:
 BYTE   BEND   c_v-64
 BYTE   N96  An3  v096
 BYTE   N96  Cs4  v108
 BYTE   BEND   c_v-62
 BYTE   BEND   c_v-60
 BYTE   BEND   c_v-58
 BYTE   BEND   c_v-56
 BYTE   BEND   c_v-54
 BYTE   BEND   c_v-52
 BYTE   BEND   c_v-50
 BYTE   BEND   c_v-48
 BYTE   BEND   c_v-46
 BYTE   BEND   c_v-44
 BYTE   BEND   c_v-42
 BYTE   BEND   c_v-40
 BYTE   N72  Cs4  v108
 BYTE   N72  An3  v096
 BYTE   PEND 
//  #06 //025   ----------------------------------------
 BYTE   PATT
  POIN2 Label_014B3FC8
//  #06 //026   ----------------------------------------
Label_014B40A6:
 BYTE   BEND   c_v-12
 BYTE   BEND   c_v-10
 BYTE   BEND   c_v-8
 BYTE   BEND   c_v-6
 BYTE   BEND   c_v-4
 BYTE   BEND   c_v-2
 BYTE   BEND   c_v+0
 BYTE   W96
//  #06 //027   ----------------------------------------
 BYTE   W96
//  #06 //028   ----------------------------------------
 BYTE   W96
//  #06 //029   ----------------------------------------
 BYTE   W96
//  #06 //030   ----------------------------------------
 BYTE   W96
//  #06 //031   ----------------------------------------
 BYTE   W96
//  #06 //032   ----------------------------------------
 BYTE   W96
//  #06 //033   ----------------------------------------
 BYTE   W96
//  #06 //034   ----------------------------------------
 BYTE   W96
//  #06 //035   ----------------------------------------
 BYTE   W96
//  #06 //036   ----------------------------------------
 BYTE   W96
//  #06 //037   ----------------------------------------
 BYTE   W96
//  #06 //038   ----------------------------------------
 BYTE   W96
//  #06 //039   ----------------------------------------
 BYTE   W96
//  #06 //040   ----------------------------------------
 BYTE   W96
//  #06 //041   ----------------------------------------
 BYTE   W96
//  #06 //042   ----------------------------------------
 BYTE   W96
//  #06 //043   ----------------------------------------
 BYTE   W96
//  #06 //044   ----------------------------------------
 BYTE   W96
//  #06 //045   ----------------------------------------
 BYTE   W96
//  #06 //046   ----------------------------------------
 BYTE   W96
//  #06 //047   ----------------------------------------
 BYTE   W96
//  #06 //048   ----------------------------------------
 BYTE   W60
 BYTE   PEND 
//  #06 //049   ----------------------------------------
 BYTE   PATT
  POIN2 Label_014B3FA7
//  #06 //050   ----------------------------------------
 BYTE   PATT
  POIN2 Label_014B3FC8
//  #06 //051   ----------------------------------------
 BYTE   PATT
  POIN2 Label_014B3FE3
//  #06 //052   ----------------------------------------
Label_014B40DB:
 BYTE   BEND   c_v-64
 BYTE   N36  Fs4  v108
 BYTE   N36  Bn3  v096
 BYTE   BEND   c_v-62
 BYTE   BEND   c_v-60
 BYTE   BEND   c_v-58
 BYTE   BEND   c_v-56
 BYTE   BEND   c_v-54
 BYTE   BEND   c_v-52
 BYTE   BEND   c_v-50
 BYTE   BEND   c_v-48
 BYTE   BEND   c_v-46
 BYTE   BEND   c_v-44
 BYTE   BEND   c_v-42
 BYTE   BEND   c_v-40
 BYTE   PEND 
//  #06 //053   ----------------------------------------
 BYTE   PATT
  POIN2 Label_014B3FC8
//  #06 //054   ----------------------------------------
 BYTE   PATT
  POIN2 Label_014B403B
//  #06 //055   ----------------------------------------
 BYTE   PATT
  POIN2 Label_014B407A
//  #06 //056   ----------------------------------------
 BYTE   PATT
  POIN2 Label_014B3FC8
//  #06 //057   ----------------------------------------
 BYTE   PATT
  POIN2 Label_014B40A6
//  #06 //058   ----------------------------------------
 BYTE   PATT
  POIN2 Label_014B3FA7
//  #06 //059   ----------------------------------------
 BYTE   PATT
  POIN2 Label_014B3FC8
//  #06 //060   ----------------------------------------
 BYTE   PATT
  POIN2 Label_014B3FE3
//  #06 //061   ----------------------------------------
 BYTE   PATT
  POIN2 Label_014B40DB
//  #06 //062   ----------------------------------------
 BYTE   PATT
  POIN2 Label_014B3FC8
//  #06 //063   ----------------------------------------
 BYTE   PATT
  POIN2 Label_014B403B
//  #06 //064   ----------------------------------------
 BYTE   BEND   c_v-64
 BYTE   N96  Cs4  v108
 BYTE   N96  An3  v096
 BYTE   BEND   c_v-62
 BYTE   BEND   c_v-60
 BYTE   BEND   c_v-58
 BYTE   BEND   c_v-56
 BYTE   BEND   c_v-54
 BYTE   BEND   c_v-52
 BYTE   BEND   c_v-50
 BYTE   BEND   c_v-48
 BYTE   BEND   c_v-46
 BYTE   BEND   c_v-44
 BYTE   BEND   c_v-42
 BYTE   BEND   c_v-40
 BYTE   N72  Cs4  v108
 BYTE   N72  An3  v096
//  #06 //065   ----------------------------------------
 BYTE   PATT
  POIN2 Label_014B3FC8
//  #06 //066   ----------------------------------------
 BYTE   BEND   c_v-12
 BYTE   BEND   c_v-10
 BYTE   BEND   c_v-8
 BYTE   BEND   c_v-6
 BYTE   BEND   c_v-4
 BYTE   BEND   c_v-2
 BYTE   BEND   c_v+0
 BYTE   W96
//  #06 //067   ----------------------------------------
 BYTE   W96
//  #06 //068   ----------------------------------------
 BYTE   W96
//  #06 //069   ----------------------------------------
 BYTE   W96
//  #06 //070   ----------------------------------------
 BYTE   W96
//  #06 //071   ----------------------------------------
 BYTE   W96
//  #06 //072   ----------------------------------------
 BYTE   W96
//  #06 //073   ----------------------------------------
 BYTE   W96
//  #06 //074   ----------------------------------------
 BYTE   W96
//  #06 //075   ----------------------------------------
 BYTE   W96
//  #06 //076   ----------------------------------------
 BYTE   W96
//  #06 //077   ----------------------------------------
 BYTE   W96
//  #06 //078   ----------------------------------------
 BYTE   W96
//  #06 //079   ----------------------------------------
 BYTE   W96
//  #06 //080   ----------------------------------------
 BYTE   W60
 BYTE   GoTo
  POIN2 Label_014B3F88
 BYTE   FINE

//**************** Track 7 (Midi-Chn.6) ****************//

GundamnF19Act12_007:
//  #07 //000   ----------------------------------------
Label_014B4184:
 BYTE   TEMPO   300*GundamnF19Act12_tbs/2
 BYTE   KEYSH   GundamnF19Act12_key+0
 BYTE   VOICE   81
 BYTE   VOL   19*GundamnF19Act12_mvl/mxv
 BYTE   PAN   c_v+16
 BYTE   PAN   c_v+16
 BYTE   W06
 BYTE   TEMPO   160*GundamnF19Act12_tbs/2
 BYTE   W96
//  #07 //001   ----------------------------------------
 BYTE   W96
//  #07 //002   ----------------------------------------
 BYTE   W96
//  #07 //003   ----------------------------------------
 BYTE   W96
//  #07 //004   ----------------------------------------
 BYTE   W96
//  #07 //005   ----------------------------------------
 BYTE   W96
//  #07 //006   ----------------------------------------
 BYTE   W96
//  #07 //007   ----------------------------------------
 BYTE   W96
//  #07 //008   ----------------------------------------
 BYTE   W96
//  #07 //009   ----------------------------------------
 BYTE   W96
//  #07 //010   ----------------------------------------
 BYTE   W96
//  #07 //011   ----------------------------------------
 BYTE   W96
//  #07 //012   ----------------------------------------
 BYTE   W96
//  #07 //013   ----------------------------------------
 BYTE   W96
//  #07 //014   ----------------------------------------
 BYTE   W96
//  #07 //015   ----------------------------------------
 BYTE   W96
//  #07 //016   ----------------------------------------
 BYTE   W18
Label_014B41A4:
 BYTE   BEND   c_v-64
 BYTE   N36  Fs4  v088
 BYTE   N36  Bn3  v072
 BYTE   BEND   c_v-62
 BYTE   BEND   c_v-60
 BYTE   BEND   c_v-58
 BYTE   BEND   c_v-56
 BYTE   BEND   c_v-54
 BYTE   BEND   c_v-52
 BYTE   BEND   c_v-50
 BYTE   BEND   c_v-48
 BYTE   BEND   c_v-46
 BYTE   BEND   c_v-44
 BYTE   BEND   c_v-42
 BYTE   BEND   c_v-40
 BYTE   PEND 
Label_014B41C5:
 BYTE   BEND   c_v-38
 BYTE   BEND   c_v-36
 BYTE   BEND   c_v-34
 BYTE   BEND   c_v-32
 BYTE   BEND   c_v-30
 BYTE   BEND   c_v-28
 BYTE   BEND   c_v-26
 BYTE   BEND   c_v-24
 BYTE   BEND   c_v-22
 BYTE   BEND   c_v-20
 BYTE   BEND   c_v-18
 BYTE   BEND   c_v-16
 BYTE   BEND   c_v-14
 BYTE   PEND 
Label_014B41E0:
 BYTE   BEND   c_v-12
 BYTE   BEND   c_v-10
 BYTE   BEND   c_v-8
 BYTE   BEND   c_v-6
 BYTE   BEND   c_v-4
 BYTE   BEND   c_v-2
 BYTE   BEND   c_v+0
 BYTE   W24
 BYTE   N12  Gn3  v072
 BYTE   N12  Bn3  v088
 BYTE   W36
 BYTE   Fs4
 BYTE   N12  Bn3  v072
 BYTE   W12
 BYTE   N36  Gn3
 BYTE   N36  Bn3  v088
 BYTE   W36
//  #07 //017   ----------------------------------------
 BYTE   N12  Fs4
 BYTE   N12  Bn3  v072
 BYTE   W12
 BYTE   N24  Gn3
 BYTE   N24  Bn3  v088
 BYTE   W24
 BYTE   Bn3  v072
 BYTE   N24  Fs4  v088
 BYTE   W24
 BYTE   An3  v072
 BYTE   N24  En4  v088
 BYTE   W24
 BYTE   N12  Dn4
 BYTE   N12  An3  v072
 BYTE   W12
//  #07 //018   ----------------------------------------
 BYTE   N96
 BYTE   N96  Cs4  v088
 BYTE   W04
 BYTE   N72  An3  v072
 BYTE   N72  Cs4  v088
 BYTE   W96
//  #07 //019   ----------------------------------------
 BYTE   W66
 BYTE   W01
 BYTE   PEND 
//  #07 //020   ----------------------------------------
 BYTE   PATT
  POIN2 Label_014B41A4
//  #07 //021   ----------------------------------------
 BYTE   PATT
  POIN2 Label_014B41C5
//  #07 //022   ----------------------------------------
Label_014B4238:
 BYTE   BEND   c_v-12
 BYTE   BEND   c_v-10
 BYTE   BEND   c_v-8
 BYTE   BEND   c_v-6
 BYTE   BEND   c_v-4
 BYTE   BEND   c_v-2
 BYTE   BEND   c_v+0
 BYTE   W24
 BYTE   N12  Gn3  v072
 BYTE   N12  Bn3  v088
 BYTE   W36
 BYTE   Fs4
 BYTE   N12  Bn3  v072
 BYTE   W12
 BYTE   N36  Gn3
 BYTE   N36  Bn3  v088
 BYTE   W36
//  #07 //023   ----------------------------------------
 BYTE   N12  Fs4
 BYTE   N12  Bn3  v072
 BYTE   W12
 BYTE   N24  Gn3
 BYTE   N24  Bn3  v088
 BYTE   W24
 BYTE   Bn3  v072
 BYTE   N24  Fs4  v088
 BYTE   W24
 BYTE   An3  v072
 BYTE   N24  En4  v088
 BYTE   W24
 BYTE   N12  Dn4
 BYTE   N12  An3  v072
 BYTE   W12
 BYTE   PEND 
//  #07 //024   ----------------------------------------
Label_014B4278:
 BYTE   BEND   c_v-64
 BYTE   N96  Cs4  v088
 BYTE   N96  An3  v072
 BYTE   BEND   c_v-62
 BYTE   BEND   c_v-60
 BYTE   BEND   c_v-58
 BYTE   BEND   c_v-56
 BYTE   BEND   c_v-54
 BYTE   BEND   c_v-52
 BYTE   BEND   c_v-50
 BYTE   BEND   c_v-48
 BYTE   BEND   c_v-46
 BYTE   BEND   c_v-44
 BYTE   BEND   c_v-42
 BYTE   BEND   c_v-40
 BYTE   N72  An3  v072
 BYTE   N72  Cs4  v088
 BYTE   PEND 
//  #07 //025   ----------------------------------------
 BYTE   PATT
  POIN2 Label_014B41C5
//  #07 //026   ----------------------------------------
Label_014B42A4:
 BYTE   BEND   c_v-12
 BYTE   BEND   c_v-10
 BYTE   BEND   c_v-8
 BYTE   BEND   c_v-6
 BYTE   BEND   c_v-4
 BYTE   BEND   c_v-2
 BYTE   BEND   c_v+0
 BYTE   W96
//  #07 //027   ----------------------------------------
 BYTE   W96
//  #07 //028   ----------------------------------------
 BYTE   W96
//  #07 //029   ----------------------------------------
 BYTE   W96
//  #07 //030   ----------------------------------------
 BYTE   W96
//  #07 //031   ----------------------------------------
 BYTE   W96
//  #07 //032   ----------------------------------------
 BYTE   W96
//  #07 //033   ----------------------------------------
 BYTE   W96
//  #07 //034   ----------------------------------------
 BYTE   W96
//  #07 //035   ----------------------------------------
 BYTE   W96
//  #07 //036   ----------------------------------------
 BYTE   W96
//  #07 //037   ----------------------------------------
 BYTE   W96
//  #07 //038   ----------------------------------------
 BYTE   W96
//  #07 //039   ----------------------------------------
 BYTE   W96
//  #07 //040   ----------------------------------------
 BYTE   W96
//  #07 //041   ----------------------------------------
 BYTE   W96
//  #07 //042   ----------------------------------------
 BYTE   W96
//  #07 //043   ----------------------------------------
 BYTE   W96
//  #07 //044   ----------------------------------------
 BYTE   W96
//  #07 //045   ----------------------------------------
 BYTE   W96
//  #07 //046   ----------------------------------------
 BYTE   W96
//  #07 //047   ----------------------------------------
 BYTE   W96
//  #07 //048   ----------------------------------------
 BYTE   W60
 BYTE   PEND 
//  #07 //049   ----------------------------------------
 BYTE   PATT
  POIN2 Label_014B41A4
//  #07 //050   ----------------------------------------
 BYTE   PATT
  POIN2 Label_014B41C5
//  #07 //051   ----------------------------------------
 BYTE   PATT
  POIN2 Label_014B41E0
//  #07 //052   ----------------------------------------
Label_014B42D9:
 BYTE   BEND   c_v-64
 BYTE   N36  Bn3  v072
 BYTE   N36  Fs4  v088
 BYTE   BEND   c_v-62
 BYTE   BEND   c_v-60
 BYTE   BEND   c_v-58
 BYTE   BEND   c_v-56
 BYTE   BEND   c_v-54
 BYTE   BEND   c_v-52
 BYTE   BEND   c_v-50
 BYTE   BEND   c_v-48
 BYTE   BEND   c_v-46
 BYTE   BEND   c_v-44
 BYTE   BEND   c_v-42
 BYTE   BEND   c_v-40
 BYTE   PEND 
//  #07 //053   ----------------------------------------
 BYTE   PATT
  POIN2 Label_014B41C5
//  #07 //054   ----------------------------------------
 BYTE   PATT
  POIN2 Label_014B4238
//  #07 //055   ----------------------------------------
 BYTE   PATT
  POIN2 Label_014B4278
//  #07 //056   ----------------------------------------
 BYTE   PATT
  POIN2 Label_014B41C5
//  #07 //057   ----------------------------------------
 BYTE   PATT
  POIN2 Label_014B42A4
//  #07 //058   ----------------------------------------
 BYTE   PATT
  POIN2 Label_014B41A4
//  #07 //059   ----------------------------------------
 BYTE   PATT
  POIN2 Label_014B41C5
//  #07 //060   ----------------------------------------
 BYTE   PATT
  POIN2 Label_014B41E0
//  #07 //061   ----------------------------------------
 BYTE   PATT
  POIN2 Label_014B42D9
//  #07 //062   ----------------------------------------
 BYTE   PATT
  POIN2 Label_014B41C5
//  #07 //063   ----------------------------------------
 BYTE   PATT
  POIN2 Label_014B4238
//  #07 //064   ----------------------------------------
 BYTE   BEND   c_v-64
 BYTE   N96  An3  v072
 BYTE   N96  Cs4  v088
 BYTE   BEND   c_v-62
 BYTE   BEND   c_v-60
 BYTE   BEND   c_v-58
 BYTE   BEND   c_v-56
 BYTE   BEND   c_v-54
 BYTE   BEND   c_v-52
 BYTE   BEND   c_v-50
 BYTE   BEND   c_v-48
 BYTE   BEND   c_v-46
 BYTE   BEND   c_v-44
 BYTE   BEND   c_v-42
 BYTE   BEND   c_v-40
 BYTE   N72  An3  v072
 BYTE   N72  Cs4  v088
//  #07 //065   ----------------------------------------
 BYTE   PATT
  POIN2 Label_014B41C5
//  #07 //066   ----------------------------------------
 BYTE   BEND   c_v-12
 BYTE   BEND   c_v-10
 BYTE   BEND   c_v-8
 BYTE   BEND   c_v-6
 BYTE   BEND   c_v-4
 BYTE   BEND   c_v-2
 BYTE   BEND   c_v+0
 BYTE   W96
//  #07 //067   ----------------------------------------
 BYTE   W96
//  #07 //068   ----------------------------------------
 BYTE   W96
//  #07 //069   ----------------------------------------
 BYTE   W96
//  #07 //070   ----------------------------------------
 BYTE   W96
//  #07 //071   ----------------------------------------
 BYTE   W96
//  #07 //072   ----------------------------------------
 BYTE   W96
//  #07 //073   ----------------------------------------
 BYTE   W96
//  #07 //074   ----------------------------------------
 BYTE   W96
//  #07 //075   ----------------------------------------
 BYTE   W96
//  #07 //076   ----------------------------------------
 BYTE   W96
//  #07 //077   ----------------------------------------
 BYTE   W96
//  #07 //078   ----------------------------------------
 BYTE   W96
//  #07 //079   ----------------------------------------
 BYTE   W96
//  #07 //080   ----------------------------------------
 BYTE   W42
 BYTE   GoTo
  POIN2 Label_014B4184
 BYTE   FINE

//**************** Track 8 (Midi-Chn.7) ****************//

GundamnF19Act12_008:
//  #08 //000   ----------------------------------------
Label_014D0D24:
 BYTE   TEMPO   300*GundamnF19Act12_tbs/2
 BYTE   KEYSH   GundamnF19Act12_key+0
 BYTE   VOICE   81
 BYTE   VOL   30*GundamnF19Act12_mvl/mxv
 BYTE   PAN   c_v+63
 BYTE   W06
 BYTE   TEMPO   160*GundamnF19Act12_tbs/2
 BYTE   N04  Fs4  v100
 BYTE   W06
 BYTE   Bn3
 BYTE   W06
 BYTE   Cs4
 BYTE   W06
 BYTE   Dn4
 BYTE   W06
 BYTE   Fs4
 BYTE   W06
 BYTE   Bn3
 BYTE   W06
 BYTE   Cs4
 BYTE   W06
 BYTE   Dn4
 BYTE   W06
Label_014D0D43:
 BYTE   PAN   c_v+63
 BYTE   N04  Fs4  v100
 BYTE   W01
 BYTE   PAN   c_v+59
 BYTE   W01
 BYTE   PAN   c_v+55
 BYTE   W01
 BYTE   PAN   c_v+51
 BYTE   W01
 BYTE   N04  Bn3  v100
 BYTE   PEND 
Label_014D0D56:
 BYTE   PAN   c_v+47
 BYTE   W01
 BYTE   PAN   c_v+43
 BYTE   W01
 BYTE   PAN   c_v+39
 BYTE   W01
 BYTE   PAN   c_v+35
 BYTE   W01
 BYTE   N04  Cs4  v100
 BYTE   PEND 
Label_014D0D66:
 BYTE   PAN   c_v+31
 BYTE   W01
 BYTE   PAN   c_v+27
 BYTE   W01
 BYTE   PAN   c_v+23
 BYTE   W01
 BYTE   PAN   c_v+19
 BYTE   W01
 BYTE   N04  Dn4  v100
 BYTE   PEND 
Label_014D0D76:
 BYTE   PAN   c_v+15
 BYTE   W01
 BYTE   PAN   c_v+11
 BYTE   W01
 BYTE   PAN   c_v+7
 BYTE   W01
 BYTE   PAN   c_v+3
 BYTE   W01
 BYTE   N04  Fs4  v100
 BYTE   PEND 
Label_014D0D86:
 BYTE   PAN   c_v-1
 BYTE   W01
 BYTE   PAN   c_v-5
 BYTE   W01
 BYTE   PAN   c_v-9
 BYTE   W01
 BYTE   PAN   c_v-13
 BYTE   W01
 BYTE   N04  Bn3  v100
 BYTE   PEND 
Label_014D0D96:
 BYTE   PAN   c_v-17
 BYTE   W01
 BYTE   PAN   c_v-21
 BYTE   W01
 BYTE   PAN   c_v-25
 BYTE   W01
 BYTE   PAN   c_v-29
 BYTE   W01
 BYTE   N04  Cs4  v100
 BYTE   PEND 
Label_014D0DA6:
 BYTE   PAN   c_v-33
 BYTE   W01
 BYTE   PAN   c_v-37
 BYTE   W01
 BYTE   PAN   c_v-41
 BYTE   W01
 BYTE   PAN   c_v-45
 BYTE   W01
 BYTE   N04  Dn4  v100
 BYTE   PEND 
Label_014D0DB6:
 BYTE   PAN   c_v-49
 BYTE   W01
 BYTE   PAN   c_v-53
 BYTE   W01
 BYTE   PAN   c_v-57
 BYTE   W01
 BYTE   PAN   c_v-61
 BYTE   W01
 BYTE   N04  Fs4  v100
 BYTE   W06
 BYTE   Bn3
 BYTE   W06
//  #08 //001   ----------------------------------------
 BYTE   Cs4
 BYTE   W06
 BYTE   Dn4
 BYTE   W06
 BYTE   Fs4
 BYTE   W06
 BYTE   Bn3
 BYTE   W06
 BYTE   Cs4
 BYTE   W06
 BYTE   Dn4
 BYTE   W06
 BYTE   PEND 
Label_014D0DD5:
 BYTE   PAN   c_v-64
 BYTE   N04  Fs4  v100
 BYTE   W01
 BYTE   PAN   c_v-60
 BYTE   W01
 BYTE   PAN   c_v-56
 BYTE   W01
 BYTE   PAN   c_v-52
 BYTE   W01
 BYTE   N04  Bn3  v100
 BYTE   PEND 
Label_014D0DE8:
 BYTE   PAN   c_v-48
 BYTE   W01
 BYTE   PAN   c_v-44
 BYTE   W01
 BYTE   PAN   c_v-40
 BYTE   W01
 BYTE   PAN   c_v-36
 BYTE   W01
 BYTE   N04  Cs4  v100
 BYTE   PEND 
Label_014D0DF8:
 BYTE   PAN   c_v-32
 BYTE   W01
 BYTE   PAN   c_v-28
 BYTE   W01
 BYTE   PAN   c_v-24
 BYTE   W01
 BYTE   PAN   c_v-20
 BYTE   W01
 BYTE   N04  Dn4  v100
 BYTE   PEND 
Label_014D0E08:
 BYTE   PAN   c_v-16
 BYTE   W01
 BYTE   PAN   c_v-12
 BYTE   W01
 BYTE   PAN   c_v-8
 BYTE   W01
 BYTE   PAN   c_v-4
 BYTE   W01
 BYTE   N04  Fs4  v100
 BYTE   PEND 
Label_014D0E18:
 BYTE   PAN   c_v+0
 BYTE   W01
 BYTE   PAN   c_v+4
 BYTE   W01
 BYTE   PAN   c_v+8
 BYTE   W01
 BYTE   PAN   c_v+12
 BYTE   W01
 BYTE   N04  Bn3  v100
 BYTE   PEND 
Label_014D0E28:
 BYTE   PAN   c_v+16
 BYTE   W01
 BYTE   PAN   c_v+20
 BYTE   W01
 BYTE   PAN   c_v+24
 BYTE   W01
 BYTE   PAN   c_v+28
 BYTE   W01
 BYTE   N04  Cs4  v100
 BYTE   PEND 
Label_014D0E38:
 BYTE   PAN   c_v+32
 BYTE   W01
 BYTE   PAN   c_v+36
 BYTE   W01
 BYTE   PAN   c_v+40
 BYTE   W01
 BYTE   PAN   c_v+44
 BYTE   W01
 BYTE   N04  Dn4  v100
 BYTE   PEND 
Label_014D0E48:
 BYTE   PAN   c_v+48
 BYTE   W01
 BYTE   PAN   c_v+52
 BYTE   W01
 BYTE   PAN   c_v+56
 BYTE   W01
 BYTE   PAN   c_v+60
 BYTE   PEND 
Label_014D0E54:
 BYTE   PAN   c_v+63
 BYTE   N04  Fs4  v100
 BYTE   W06
 BYTE   Bn3
 BYTE   W06
 BYTE   Cs4
 BYTE   W06
 BYTE   Dn4
 BYTE   W06
 BYTE   Fs4
 BYTE   W06
//  #08 //002   ----------------------------------------
 BYTE   Bn3
 BYTE   W06
 BYTE   Cs4
 BYTE   W06
 BYTE   Dn4
 BYTE   W06
 BYTE   PEND 
//  #08 //003   ----------------------------------------
 BYTE   PATT
  POIN2 Label_014D0D43
//  #08 //004   ----------------------------------------
 BYTE   PATT
  POIN2 Label_014D0D56
//  #08 //005   ----------------------------------------
 BYTE   PATT
  POIN2 Label_014D0D66
//  #08 //006   ----------------------------------------
 BYTE   PATT
  POIN2 Label_014D0D76
//  #08 //007   ----------------------------------------
 BYTE   PATT
  POIN2 Label_014D0D86
//  #08 //008   ----------------------------------------
 BYTE   PATT
  POIN2 Label_014D0D96
//  #08 //009   ----------------------------------------
 BYTE   PATT
  POIN2 Label_014D0DA6
//  #08 //010   ----------------------------------------
 BYTE   PATT
  POIN2 Label_014D0DB6
//  #08 //011   ----------------------------------------
 BYTE   PATT
  POIN2 Label_014D0DD5
//  #08 //012   ----------------------------------------
 BYTE   PATT
  POIN2 Label_014D0DE8
//  #08 //013   ----------------------------------------
 BYTE   PATT
  POIN2 Label_014D0DF8
//  #08 //014   ----------------------------------------
 BYTE   PATT
  POIN2 Label_014D0E08
//  #08 //015   ----------------------------------------
 BYTE   PATT
  POIN2 Label_014D0E18
//  #08 //016   ----------------------------------------
 BYTE   PATT
  POIN2 Label_014D0E28
//  #08 //017   ----------------------------------------
 BYTE   PATT
  POIN2 Label_014D0E38
//  #08 //018   ----------------------------------------
 BYTE   PATT
  POIN2 Label_014D0E48
//  #08 //019   ----------------------------------------
 BYTE   PATT
  POIN2 Label_014D0E54
//  #08 //020   ----------------------------------------
 BYTE   PATT
  POIN2 Label_014D0D43
//  #08 //021   ----------------------------------------
 BYTE   PATT
  POIN2 Label_014D0D56
//  #08 //022   ----------------------------------------
 BYTE   PATT
  POIN2 Label_014D0D66
//  #08 //023   ----------------------------------------
 BYTE   PATT
  POIN2 Label_014D0D76
//  #08 //024   ----------------------------------------
 BYTE   PATT
  POIN2 Label_014D0D86
//  #08 //025   ----------------------------------------
 BYTE   PATT
  POIN2 Label_014D0D96
//  #08 //026   ----------------------------------------
 BYTE   PATT
  POIN2 Label_014D0DA6
//  #08 //027   ----------------------------------------
 BYTE   PATT
  POIN2 Label_014D0DB6
//  #08 //028   ----------------------------------------
 BYTE   PATT
  POIN2 Label_014D0DD5
//  #08 //029   ----------------------------------------
 BYTE   PATT
  POIN2 Label_014D0DE8
//  #08 //030   ----------------------------------------
 BYTE   PATT
  POIN2 Label_014D0DF8
//  #08 //031   ----------------------------------------
 BYTE   PATT
  POIN2 Label_014D0E08
//  #08 //032   ----------------------------------------
 BYTE   PATT
  POIN2 Label_014D0E18
//  #08 //033   ----------------------------------------
 BYTE   PATT
  POIN2 Label_014D0E28
//  #08 //034   ----------------------------------------
 BYTE   PATT
  POIN2 Label_014D0E38
//  #08 //035   ----------------------------------------
 BYTE   PATT
  POIN2 Label_014D0E48
//  #08 //036   ----------------------------------------
 BYTE   PATT
  POIN2 Label_014D0E54
//  #08 //037   ----------------------------------------
 BYTE   PATT
  POIN2 Label_014D0D43
//  #08 //038   ----------------------------------------
 BYTE   PATT
  POIN2 Label_014D0D56
//  #08 //039   ----------------------------------------
 BYTE   PATT
  POIN2 Label_014D0D66
//  #08 //040   ----------------------------------------
 BYTE   PATT
  POIN2 Label_014D0D76
//  #08 //041   ----------------------------------------
 BYTE   PATT
  POIN2 Label_014D0D86
//  #08 //042   ----------------------------------------
 BYTE   PATT
  POIN2 Label_014D0D96
//  #08 //043   ----------------------------------------
 BYTE   PATT
  POIN2 Label_014D0DA6
//  #08 //044   ----------------------------------------
 BYTE   PATT
  POIN2 Label_014D0DB6
//  #08 //045   ----------------------------------------
 BYTE   PATT
  POIN2 Label_014D0DD5
//  #08 //046   ----------------------------------------
 BYTE   PATT
  POIN2 Label_014D0DE8
//  #08 //047   ----------------------------------------
 BYTE   PATT
  POIN2 Label_014D0DF8
//  #08 //048   ----------------------------------------
 BYTE   PATT
  POIN2 Label_014D0E08
//  #08 //049   ----------------------------------------
 BYTE   PATT
  POIN2 Label_014D0E18
//  #08 //050   ----------------------------------------
 BYTE   PATT
  POIN2 Label_014D0E28
//  #08 //051   ----------------------------------------
 BYTE   PATT
  POIN2 Label_014D0E38
//  #08 //052   ----------------------------------------
 BYTE   PATT
  POIN2 Label_014D0E48
//  #08 //053   ----------------------------------------
Label_014D0F63:
 BYTE   PAN   c_v+63
 BYTE   W96
//  #08 //054   ----------------------------------------
 BYTE   W96
//  #08 //055   ----------------------------------------
 BYTE   W96
//  #08 //056   ----------------------------------------
 BYTE   W96
//  #08 //057   ----------------------------------------
 BYTE   W96
//  #08 //058   ----------------------------------------
 BYTE   W96
//  #08 //059   ----------------------------------------
 BYTE   W96
//  #08 //060   ----------------------------------------
 BYTE   W96
//  #08 //061   ----------------------------------------
 BYTE   W96
//  #08 //062   ----------------------------------------
 BYTE   W96
//  #08 //063   ----------------------------------------
 BYTE   W96
//  #08 //064   ----------------------------------------
 BYTE   W96
//  #08 //065   ----------------------------------------
 BYTE   W96
//  #08 //066   ----------------------------------------
 BYTE   W96
//  #08 //067   ----------------------------------------
 BYTE   W96
//  #08 //068   ----------------------------------------
 BYTE   W96
//  #08 //069   ----------------------------------------
 BYTE   W96
//  #08 //070   ----------------------------------------
 BYTE   W96
//  #08 //071   ----------------------------------------
 BYTE   W96
//  #08 //072   ----------------------------------------
 BYTE   W96
//  #08 //073   ----------------------------------------
 BYTE   W96
//  #08 //074   ----------------------------------------
 BYTE   N04  Fs4  v100
 BYTE   W06
 BYTE   Bn3
 BYTE   W06
 BYTE   Cs4
 BYTE   W06
 BYTE   Dn4
 BYTE   W06
 BYTE   Fs4
 BYTE   W06
 BYTE   Bn3
 BYTE   W06
 BYTE   Cs4
 BYTE   W06
 BYTE   Dn4
 BYTE   W06
 BYTE   PEND 
//  #08 //075   ----------------------------------------
 BYTE   PATT
  POIN2 Label_014D0D43
//  #08 //076   ----------------------------------------
 BYTE   PATT
  POIN2 Label_014D0D56
//  #08 //077   ----------------------------------------
 BYTE   PATT
  POIN2 Label_014D0D66
//  #08 //078   ----------------------------------------
 BYTE   PATT
  POIN2 Label_014D0D76
//  #08 //079   ----------------------------------------
 BYTE   PATT
  POIN2 Label_014D0D86
//  #08 //080   ----------------------------------------
 BYTE   PATT
  POIN2 Label_014D0D96
//  #08 //081   ----------------------------------------
 BYTE   PATT
  POIN2 Label_014D0DA6
//  #08 //082   ----------------------------------------
 BYTE   PATT
  POIN2 Label_014D0DB6
//  #08 //083   ----------------------------------------
 BYTE   PATT
  POIN2 Label_014D0DD5
//  #08 //084   ----------------------------------------
 BYTE   PATT
  POIN2 Label_014D0DE8
//  #08 //085   ----------------------------------------
 BYTE   PATT
  POIN2 Label_014D0DF8
//  #08 //086   ----------------------------------------
 BYTE   PATT
  POIN2 Label_014D0E08
//  #08 //087   ----------------------------------------
 BYTE   PATT
  POIN2 Label_014D0E18
//  #08 //088   ----------------------------------------
 BYTE   PATT
  POIN2 Label_014D0E28
//  #08 //089   ----------------------------------------
 BYTE   PATT
  POIN2 Label_014D0E38
//  #08 //090   ----------------------------------------
 BYTE   PATT
  POIN2 Label_014D0E48
//  #08 //091   ----------------------------------------
 BYTE   PATT
  POIN2 Label_014D0E54
//  #08 //092   ----------------------------------------
 BYTE   PATT
  POIN2 Label_014D0D43
//  #08 //093   ----------------------------------------
 BYTE   PATT
  POIN2 Label_014D0D56
//  #08 //094   ----------------------------------------
 BYTE   PATT
  POIN2 Label_014D0D66
//  #08 //095   ----------------------------------------
 BYTE   PATT
  POIN2 Label_014D0D76
//  #08 //096   ----------------------------------------
 BYTE   PATT
  POIN2 Label_014D0D86
//  #08 //097   ----------------------------------------
 BYTE   PATT
  POIN2 Label_014D0D96
//  #08 //098   ----------------------------------------
 BYTE   PATT
  POIN2 Label_014D0DA6
//  #08 //099   ----------------------------------------
 BYTE   PATT
  POIN2 Label_014D0DB6
//  #08 //100   ----------------------------------------
 BYTE   PATT
  POIN2 Label_014D0DD5
//  #08 //101   ----------------------------------------
 BYTE   PATT
  POIN2 Label_014D0DE8
//  #08 //102   ----------------------------------------
 BYTE   PATT
  POIN2 Label_014D0DF8
//  #08 //103   ----------------------------------------
 BYTE   PATT
  POIN2 Label_014D0E08
//  #08 //104   ----------------------------------------
 BYTE   PATT
  POIN2 Label_014D0E18
//  #08 //105   ----------------------------------------
 BYTE   PATT
  POIN2 Label_014D0E28
//  #08 //106   ----------------------------------------
 BYTE   PATT
  POIN2 Label_014D0E38
//  #08 //107   ----------------------------------------
 BYTE   PATT
  POIN2 Label_014D0E48
//  #08 //108   ----------------------------------------
 BYTE   PATT
  POIN2 Label_014D0E54
//  #08 //109   ----------------------------------------
 BYTE   PATT
  POIN2 Label_014D0D43
//  #08 //110   ----------------------------------------
 BYTE   PATT
  POIN2 Label_014D0D56
//  #08 //111   ----------------------------------------
 BYTE   PATT
  POIN2 Label_014D0D66
//  #08 //112   ----------------------------------------
 BYTE   PATT
  POIN2 Label_014D0D76
//  #08 //113   ----------------------------------------
 BYTE   PATT
  POIN2 Label_014D0D86
//  #08 //114   ----------------------------------------
 BYTE   PATT
  POIN2 Label_014D0D96
//  #08 //115   ----------------------------------------
 BYTE   PATT
  POIN2 Label_014D0DA6
//  #08 //116   ----------------------------------------
 BYTE   PATT
  POIN2 Label_014D0DB6
//  #08 //117   ----------------------------------------
 BYTE   PATT
  POIN2 Label_014D0DD5
//  #08 //118   ----------------------------------------
 BYTE   PATT
  POIN2 Label_014D0DE8
//  #08 //119   ----------------------------------------
 BYTE   PATT
  POIN2 Label_014D0DF8
//  #08 //120   ----------------------------------------
 BYTE   PATT
  POIN2 Label_014D0E08
//  #08 //121   ----------------------------------------
 BYTE   PATT
  POIN2 Label_014D0E18
//  #08 //122   ----------------------------------------
 BYTE   PATT
  POIN2 Label_014D0E28
//  #08 //123   ----------------------------------------
 BYTE   PATT
  POIN2 Label_014D0E38
//  #08 //124   ----------------------------------------
 BYTE   PATT
  POIN2 Label_014D0E48
//  #08 //125   ----------------------------------------
 BYTE   PATT
  POIN2 Label_014D0E54
//  #08 //126   ----------------------------------------
 BYTE   PATT
  POIN2 Label_014D0D43
//  #08 //127   ----------------------------------------
 BYTE   PATT
  POIN2 Label_014D0D56
//  #08 //128   ----------------------------------------
 BYTE   PATT
  POIN2 Label_014D0D66
//  #08 //129   ----------------------------------------
 BYTE   PATT
  POIN2 Label_014D0D76
//  #08 //130   ----------------------------------------
 BYTE   PATT
  POIN2 Label_014D0D86
//  #08 //131   ----------------------------------------
 BYTE   PATT
  POIN2 Label_014D0D96
//  #08 //132   ----------------------------------------
 BYTE   PATT
  POIN2 Label_014D0DA6
//  #08 //133   ----------------------------------------
 BYTE   PATT
  POIN2 Label_014D0DB6
//  #08 //134   ----------------------------------------
 BYTE   PATT
  POIN2 Label_014D0DD5
//  #08 //135   ----------------------------------------
 BYTE   PATT
  POIN2 Label_014D0DE8
//  #08 //136   ----------------------------------------
 BYTE   PATT
  POIN2 Label_014D0DF8
//  #08 //137   ----------------------------------------
 BYTE   PATT
  POIN2 Label_014D0E08
//  #08 //138   ----------------------------------------
 BYTE   PATT
  POIN2 Label_014D0E18
//  #08 //139   ----------------------------------------
 BYTE   PATT
  POIN2 Label_014D0E28
//  #08 //140   ----------------------------------------
 BYTE   PATT
  POIN2 Label_014D0E38
//  #08 //141   ----------------------------------------
 BYTE   PATT
  POIN2 Label_014D0E48
//  #08 //142   ----------------------------------------
 BYTE   PATT
  POIN2 Label_014D0F63
//  #08 //143   ----------------------------------------
 BYTE   PATT
  POIN2 Label_014D0D43
//  #08 //144   ----------------------------------------
 BYTE   PATT
  POIN2 Label_014D0D56
//  #08 //145   ----------------------------------------
 BYTE   PATT
  POIN2 Label_014D0D66
//  #08 //146   ----------------------------------------
 BYTE   PATT
  POIN2 Label_014D0D76
//  #08 //147   ----------------------------------------
 BYTE   PATT
  POIN2 Label_014D0D86
//  #08 //148   ----------------------------------------
 BYTE   PATT
  POIN2 Label_014D0D96
//  #08 //149   ----------------------------------------
 BYTE   PATT
  POIN2 Label_014D0DA6
//  #08 //150   ----------------------------------------
 BYTE   PATT
  POIN2 Label_014D0DB6
//  #08 //151   ----------------------------------------
 BYTE   PATT
  POIN2 Label_014D0DD5
//  #08 //152   ----------------------------------------
 BYTE   PATT
  POIN2 Label_014D0DE8
//  #08 //153   ----------------------------------------
 BYTE   PATT
  POIN2 Label_014D0DF8
//  #08 //154   ----------------------------------------
 BYTE   PATT
  POIN2 Label_014D0E08
//  #08 //155   ----------------------------------------
 BYTE   PATT
  POIN2 Label_014D0E18
//  #08 //156   ----------------------------------------
 BYTE   PATT
  POIN2 Label_014D0E28
//  #08 //157   ----------------------------------------
 BYTE   PATT
  POIN2 Label_014D0E38
//  #08 //158   ----------------------------------------
 BYTE   PATT
  POIN2 Label_014D0E48
//  #08 //159   ----------------------------------------
 BYTE   PATT
  POIN2 Label_014D0E54
//  #08 //160   ----------------------------------------
 BYTE   PATT
  POIN2 Label_014D0D43
//  #08 //161   ----------------------------------------
 BYTE   PATT
  POIN2 Label_014D0D56
//  #08 //162   ----------------------------------------
 BYTE   PATT
  POIN2 Label_014D0D66
//  #08 //163   ----------------------------------------
 BYTE   PATT
  POIN2 Label_014D0D76
//  #08 //164   ----------------------------------------
 BYTE   PATT
  POIN2 Label_014D0D86
//  #08 //165   ----------------------------------------
 BYTE   PATT
  POIN2 Label_014D0D96
//  #08 //166   ----------------------------------------
 BYTE   PATT
  POIN2 Label_014D0DA6
//  #08 //167   ----------------------------------------
 BYTE   PATT
  POIN2 Label_014D0DB6
//  #08 //168   ----------------------------------------
 BYTE   PATT
  POIN2 Label_014D0DD5
//  #08 //169   ----------------------------------------
 BYTE   PATT
  POIN2 Label_014D0DE8
//  #08 //170   ----------------------------------------
 BYTE   PATT
  POIN2 Label_014D0DF8
//  #08 //171   ----------------------------------------
 BYTE   PATT
  POIN2 Label_014D0E08
//  #08 //172   ----------------------------------------
 BYTE   PATT
  POIN2 Label_014D0E18
//  #08 //173   ----------------------------------------
 BYTE   PATT
  POIN2 Label_014D0E28
//  #08 //174   ----------------------------------------
 BYTE   PATT
  POIN2 Label_014D0E38
//  #08 //175   ----------------------------------------
 BYTE   PATT
  POIN2 Label_014D0E48
//  #08 //176   ----------------------------------------
 BYTE   PATT
  POIN2 Label_014D0E54
//  #08 //177   ----------------------------------------
 BYTE   PATT
  POIN2 Label_014D0D43
//  #08 //178   ----------------------------------------
 BYTE   PATT
  POIN2 Label_014D0D56
//  #08 //179   ----------------------------------------
 BYTE   PATT
  POIN2 Label_014D0D66
//  #08 //180   ----------------------------------------
 BYTE   PATT
  POIN2 Label_014D0D76
//  #08 //181   ----------------------------------------
 BYTE   PATT
  POIN2 Label_014D0D86
//  #08 //182   ----------------------------------------
 BYTE   PATT
  POIN2 Label_014D0D96
//  #08 //183   ----------------------------------------
 BYTE   PATT
  POIN2 Label_014D0DA6
//  #08 //184   ----------------------------------------
 BYTE   PATT
  POIN2 Label_014D0DB6
//  #08 //185   ----------------------------------------
 BYTE   PATT
  POIN2 Label_014D0DD5
//  #08 //186   ----------------------------------------
 BYTE   PATT
  POIN2 Label_014D0DE8
//  #08 //187   ----------------------------------------
 BYTE   PATT
  POIN2 Label_014D0DF8
//  #08 //188   ----------------------------------------
 BYTE   PATT
  POIN2 Label_014D0E08
//  #08 //189   ----------------------------------------
 BYTE   PATT
  POIN2 Label_014D0E18
//  #08 //190   ----------------------------------------
 BYTE   PATT
  POIN2 Label_014D0E28
//  #08 //191   ----------------------------------------
 BYTE   PATT
  POIN2 Label_014D0E38
//  #08 //192   ----------------------------------------
 BYTE   PATT
  POIN2 Label_014D0E48
//  #08 //193   ----------------------------------------
 BYTE   PATT
  POIN2 Label_014D0E54
//  #08 //194   ----------------------------------------
 BYTE   PATT
  POIN2 Label_014D0D43
//  #08 //195   ----------------------------------------
 BYTE   PATT
  POIN2 Label_014D0D56
//  #08 //196   ----------------------------------------
 BYTE   PATT
  POIN2 Label_014D0D66
//  #08 //197   ----------------------------------------
 BYTE   PATT
  POIN2 Label_014D0D76
//  #08 //198   ----------------------------------------
 BYTE   PATT
  POIN2 Label_014D0D86
//  #08 //199   ----------------------------------------
 BYTE   PATT
  POIN2 Label_014D0D96
//  #08 //200   ----------------------------------------
 BYTE   PATT
  POIN2 Label_014D0DA6
//  #08 //201   ----------------------------------------
 BYTE   PATT
  POIN2 Label_014D0DB6
//  #08 //202   ----------------------------------------
 BYTE   PATT
  POIN2 Label_014D0DD5
//  #08 //203   ----------------------------------------
 BYTE   PATT
  POIN2 Label_014D0DE8
//  #08 //204   ----------------------------------------
 BYTE   PATT
  POIN2 Label_014D0DF8
//  #08 //205   ----------------------------------------
 BYTE   PATT
  POIN2 Label_014D0E08
//  #08 //206   ----------------------------------------
 BYTE   PATT
  POIN2 Label_014D0E18
//  #08 //207   ----------------------------------------
 BYTE   PATT
  POIN2 Label_014D0E28
//  #08 //208   ----------------------------------------
 BYTE   PATT
  POIN2 Label_014D0E38
//  #08 //209   ----------------------------------------
 BYTE   PATT
  POIN2 Label_014D0E48
//  #08 //210   ----------------------------------------
 BYTE   PAN   c_v+63
 BYTE   W96
//  #08 //211   ----------------------------------------
 BYTE   W96
//  #08 //212   ----------------------------------------
 BYTE   W96
//  #08 //213   ----------------------------------------
 BYTE   W96
//  #08 //214   ----------------------------------------
 BYTE   W96
//  #08 //215   ----------------------------------------
 BYTE   W96
//  #08 //216   ----------------------------------------
 BYTE   W96
//  #08 //217   ----------------------------------------
 BYTE   W96
//  #08 //218   ----------------------------------------
 BYTE   W96
//  #08 //219   ----------------------------------------
 BYTE   W96
//  #08 //220   ----------------------------------------
 BYTE   W96
//  #08 //221   ----------------------------------------
 BYTE   W96
//  #08 //222   ----------------------------------------
 BYTE   W96
//  #08 //223   ----------------------------------------
 BYTE   W96
//  #08 //224   ----------------------------------------
 BYTE   W96
//  #08 //225   ----------------------------------------
 BYTE   W96
//  #08 //226   ----------------------------------------
 BYTE   W96
//  #08 //227   ----------------------------------------
 BYTE   W96
//  #08 //228   ----------------------------------------
 BYTE   W96
//  #08 //229   ----------------------------------------
 BYTE   W96
//  #08 //230   ----------------------------------------
 BYTE   W96
//  #08 //231   ----------------------------------------
 BYTE   N04  Fs4  v100
 BYTE   W06
 BYTE   Bn3
 BYTE   W06
 BYTE   Cs4  v099
 BYTE   W06
 BYTE   Dn4  v098
 BYTE   W06
 BYTE   Fs4  v097
 BYTE   W06
 BYTE   Bn3
 BYTE   W06
 BYTE   Cs4  v096
 BYTE   W06
 BYTE   Dn4  v095
 BYTE   W06
 BYTE   PAN   c_v+63
 BYTE   N04  Fs4  v094
 BYTE   W01
 BYTE   PAN   c_v+59
 BYTE   W01
 BYTE   PAN   c_v+55
 BYTE   W01
 BYTE   PAN   c_v+51
 BYTE   W01
 BYTE   N04  Bn3  v093
 BYTE   PAN   c_v+47
 BYTE   W01
 BYTE   PAN   c_v+43
 BYTE   W01
 BYTE   PAN   c_v+39
 BYTE   W01
 BYTE   PAN   c_v+35
 BYTE   W01
 BYTE   N04  Cs4  v093
 BYTE   PAN   c_v+31
 BYTE   W01
 BYTE   PAN   c_v+27
 BYTE   W01
 BYTE   PAN   c_v+23
 BYTE   W01
 BYTE   PAN   c_v+19
 BYTE   W01
 BYTE   N04  Dn4  v092
 BYTE   PAN   c_v+15
 BYTE   W01
 BYTE   PAN   c_v+11
 BYTE   W01
 BYTE   PAN   c_v+7
 BYTE   W01
 BYTE   PAN   c_v+3
 BYTE   W01
 BYTE   N04  Fs4  v091
 BYTE   PAN   c_v-1
 BYTE   W01
 BYTE   PAN   c_v-5
 BYTE   W01
 BYTE   PAN   c_v-9
 BYTE   W01
 BYTE   PAN   c_v-13
 BYTE   W01
 BYTE   N04  Bn3  v090
 BYTE   PAN   c_v-17
 BYTE   W01
 BYTE   PAN   c_v-21
 BYTE   W01
 BYTE   PAN   c_v-25
 BYTE   W01
 BYTE   PAN   c_v-29
 BYTE   W01
 BYTE   N04  Cs4  v090
 BYTE   PAN   c_v-33
 BYTE   W01
 BYTE   PAN   c_v-37
 BYTE   W01
 BYTE   PAN   c_v-41
 BYTE   W01
 BYTE   PAN   c_v-45
 BYTE   W01
 BYTE   N04  Dn4  v089
 BYTE   PAN   c_v-49
 BYTE   W01
 BYTE   PAN   c_v-53
 BYTE   W01
 BYTE   PAN   c_v-57
 BYTE   W01
 BYTE   PAN   c_v-61
 BYTE   W01
 BYTE   N04  Fs4  v088
 BYTE   W06
 BYTE   Bn3  v087
 BYTE   W06
 BYTE   Cs4  v086
 BYTE   W06
//  #08 //232   ----------------------------------------
 BYTE   Dn4
 BYTE   W06
 BYTE   Fs4  v085
 BYTE   W06
 BYTE   Bn3  v084
 BYTE   W06
 BYTE   Cs4  v083
 BYTE   W06
 BYTE   Dn4
 BYTE   W06
 BYTE   PAN   c_v-64
 BYTE   N04  Fs4  v082
 BYTE   W01
 BYTE   PAN   c_v-60
 BYTE   W01
 BYTE   PAN   c_v-56
 BYTE   W01
 BYTE   PAN   c_v-52
 BYTE   W01
 BYTE   N04  Bn3  v081
 BYTE   PAN   c_v-48
 BYTE   W01
 BYTE   PAN   c_v-44
 BYTE   W01
 BYTE   PAN   c_v-40
 BYTE   W01
 BYTE   PAN   c_v-36
 BYTE   W01
 BYTE   N04  Cs4  v080
 BYTE   PAN   c_v-32
 BYTE   W01
 BYTE   PAN   c_v-28
 BYTE   W01
 BYTE   PAN   c_v-24
 BYTE   W01
 BYTE   PAN   c_v-20
 BYTE   W01
 BYTE   N04  Dn4  v079
 BYTE   PAN   c_v-16
 BYTE   W01
 BYTE   PAN   c_v-12
 BYTE   W01
 BYTE   PAN   c_v-8
 BYTE   W01
 BYTE   PAN   c_v-4
 BYTE   W01
 BYTE   N04  Fs4  v079
 BYTE   PAN   c_v+0
 BYTE   W01
 BYTE   PAN   c_v+4
 BYTE   W01
 BYTE   PAN   c_v+8
 BYTE   W01
 BYTE   PAN   c_v+12
 BYTE   W01
 BYTE   N04  Bn3  v078
 BYTE   PAN   c_v+16
 BYTE   W01
 BYTE   PAN   c_v+20
 BYTE   W01
 BYTE   PAN   c_v+24
 BYTE   W01
 BYTE   PAN   c_v+28
 BYTE   W01
 BYTE   N04  Cs4  v077
 BYTE   PAN   c_v+32
 BYTE   W01
 BYTE   PAN   c_v+36
 BYTE   W01
 BYTE   PAN   c_v+40
 BYTE   W01
 BYTE   PAN   c_v+44
 BYTE   W01
 BYTE   N04  Dn4  v076
//  #08 //233   ----------------------------------------
 BYTE   PATT
  POIN2 Label_014D0E48
//  #08 //234   ----------------------------------------
 BYTE   PAN   c_v+63
 BYTE   N04  Fs4  v075
 BYTE   W06
 BYTE   Bn3
 BYTE   W06
 BYTE   Cs4  v074
 BYTE   W06
 BYTE   Dn4  v073
 BYTE   W06
 BYTE   Fs4  v072
 BYTE   W06
 BYTE   Bn3
 BYTE   W06
 BYTE   Cs4  v071
 BYTE   W06
 BYTE   Dn4  v070
 BYTE   W06
 BYTE   PAN   c_v+63
 BYTE   N04  Fs4  v069
 BYTE   W01
 BYTE   PAN   c_v+59
 BYTE   W01
 BYTE   PAN   c_v+55
 BYTE   W01
 BYTE   PAN   c_v+51
 BYTE   W01
 BYTE   N04  Bn3  v068
 BYTE   PAN   c_v+47
 BYTE   W01
 BYTE   PAN   c_v+43
 BYTE   W01
 BYTE   PAN   c_v+39
 BYTE   W01
 BYTE   PAN   c_v+35
 BYTE   W01
 BYTE   N04  Cs4  v068
 BYTE   PAN   c_v+31
 BYTE   W01
 BYTE   PAN   c_v+27
 BYTE   W01
 BYTE   PAN   c_v+23
 BYTE   W01
 BYTE   PAN   c_v+19
 BYTE   W01
 BYTE   N04  Dn4  v067
 BYTE   PAN   c_v+15
 BYTE   W01
 BYTE   PAN   c_v+11
 BYTE   W01
 BYTE   PAN   c_v+7
 BYTE   W01
 BYTE   PAN   c_v+3
 BYTE   W01
 BYTE   N04  Fs4  v066
 BYTE   PAN   c_v-1
 BYTE   W01
 BYTE   PAN   c_v-5
 BYTE   W01
 BYTE   PAN   c_v-9
 BYTE   W01
 BYTE   PAN   c_v-13
 BYTE   W01
 BYTE   N04  Bn3  v065
 BYTE   PAN   c_v-17
 BYTE   W01
 BYTE   PAN   c_v-21
 BYTE   W01
 BYTE   PAN   c_v-25
 BYTE   W01
 BYTE   PAN   c_v-29
 BYTE   W01
 BYTE   N04  Cs4  v065
 BYTE   PAN   c_v-33
 BYTE   W01
 BYTE   PAN   c_v-37
 BYTE   W01
 BYTE   PAN   c_v-41
 BYTE   W01
 BYTE   PAN   c_v-45
 BYTE   W01
 BYTE   N04  Dn4  v064
 BYTE   PAN   c_v-49
 BYTE   W01
 BYTE   PAN   c_v-53
 BYTE   W01
 BYTE   PAN   c_v-57
 BYTE   W01
 BYTE   PAN   c_v-61
 BYTE   W01
 BYTE   N04  Fs4  v063
 BYTE   W06
 BYTE   Bn3  v062
 BYTE   W06
 BYTE   Cs4  v061
 BYTE   W06
//  #08 //235   ----------------------------------------
 BYTE   Dn4
 BYTE   W06
 BYTE   Fs4  v060
 BYTE   W06
 BYTE   Bn3  v059
 BYTE   W06
 BYTE   Cs4  v058
 BYTE   W06
 BYTE   Dn4
 BYTE   W06
 BYTE   PAN   c_v-64
 BYTE   N04  Fs4  v057
 BYTE   W01
 BYTE   PAN   c_v-60
 BYTE   W01
 BYTE   PAN   c_v-56
 BYTE   W01
 BYTE   PAN   c_v-52
 BYTE   W01
 BYTE   N04  Bn3  v056
 BYTE   PAN   c_v-48
 BYTE   W01
 BYTE   PAN   c_v-44
 BYTE   W01
 BYTE   PAN   c_v-40
 BYTE   W01
 BYTE   PAN   c_v-36
 BYTE   W01
 BYTE   N04  Cs4  v055
 BYTE   PAN   c_v-32
 BYTE   W01
 BYTE   PAN   c_v-28
 BYTE   W01
 BYTE   PAN   c_v-24
 BYTE   W01
 BYTE   PAN   c_v-20
 BYTE   W01
 BYTE   N04  Dn4  v054
 BYTE   PAN   c_v-16
 BYTE   W01
 BYTE   PAN   c_v-12
 BYTE   W01
 BYTE   PAN   c_v-8
 BYTE   W01
 BYTE   PAN   c_v-4
 BYTE   W01
 BYTE   N04  Fs4  v054
 BYTE   PAN   c_v+0
 BYTE   W01
 BYTE   PAN   c_v+4
 BYTE   W01
 BYTE   PAN   c_v+8
 BYTE   W01
 BYTE   PAN   c_v+12
 BYTE   W01
 BYTE   N04  Bn3  v053
 BYTE   PAN   c_v+16
 BYTE   W01
 BYTE   PAN   c_v+20
 BYTE   W01
 BYTE   PAN   c_v+24
 BYTE   W01
 BYTE   PAN   c_v+28
 BYTE   W01
 BYTE   N04  Cs4  v052
 BYTE   PAN   c_v+32
 BYTE   W01
 BYTE   PAN   c_v+36
 BYTE   W01
 BYTE   PAN   c_v+40
 BYTE   W01
 BYTE   PAN   c_v+44
 BYTE   W01
 BYTE   N04  Dn4  v051
//  #08 //236   ----------------------------------------
 BYTE   PATT
  POIN2 Label_014D0E48
//  #08 //237   ----------------------------------------
 BYTE   PAN   c_v+63
 BYTE   N04  Fs4  v050
 BYTE   W06
 BYTE   Bn3
 BYTE   W06
 BYTE   Cs4  v049
 BYTE   W06
 BYTE   Dn4  v048
 BYTE   W06
 BYTE   Fs4  v047
 BYTE   W06
 BYTE   Bn3
 BYTE   W06
 BYTE   Cs4  v046
 BYTE   W06
 BYTE   Dn4  v045
 BYTE   W06
 BYTE   PAN   c_v+63
 BYTE   N04  Fs4  v044
 BYTE   W01
 BYTE   PAN   c_v+59
 BYTE   W01
 BYTE   PAN   c_v+55
 BYTE   W01
 BYTE   PAN   c_v+51
 BYTE   W01
 BYTE   N04  Bn3  v043
 BYTE   PAN   c_v+47
 BYTE   W01
 BYTE   PAN   c_v+43
 BYTE   W01
 BYTE   PAN   c_v+39
 BYTE   W01
 BYTE   PAN   c_v+35
 BYTE   W01
 BYTE   N04  Cs4  v043
 BYTE   PAN   c_v+31
 BYTE   W01
 BYTE   PAN   c_v+27
 BYTE   W01
 BYTE   PAN   c_v+23
 BYTE   W01
 BYTE   PAN   c_v+19
 BYTE   W01
 BYTE   N04  Dn4  v042
 BYTE   PAN   c_v+15
 BYTE   W01
 BYTE   PAN   c_v+11
 BYTE   W01
 BYTE   PAN   c_v+7
 BYTE   W01
 BYTE   PAN   c_v+3
 BYTE   W01
 BYTE   N04  Fs4  v041
 BYTE   PAN   c_v-1
 BYTE   W01
 BYTE   PAN   c_v-5
 BYTE   W01
 BYTE   PAN   c_v-9
 BYTE   W01
 BYTE   PAN   c_v-13
 BYTE   W01
 BYTE   N04  Bn3  v040
 BYTE   PAN   c_v-17
 BYTE   W01
 BYTE   PAN   c_v-21
 BYTE   W01
 BYTE   PAN   c_v-25
 BYTE   W01
 BYTE   PAN   c_v-29
 BYTE   W01
 BYTE   N04  Cs4  v040
 BYTE   PAN   c_v-33
 BYTE   W01
 BYTE   PAN   c_v-37
 BYTE   W01
 BYTE   PAN   c_v-41
 BYTE   W01
 BYTE   PAN   c_v-45
 BYTE   W01
 BYTE   N04  Dn4  v039
 BYTE   PAN   c_v-49
 BYTE   W01
 BYTE   PAN   c_v-53
 BYTE   W01
 BYTE   PAN   c_v-57
 BYTE   W01
 BYTE   PAN   c_v-61
 BYTE   W01
 BYTE   N04  Fs4  v038
 BYTE   W06
 BYTE   Bn3  v037
 BYTE   W06
 BYTE   Cs4  v036
 BYTE   W06
//  #08 //238   ----------------------------------------
 BYTE   Dn4
 BYTE   W06
 BYTE   Fs4  v035
 BYTE   W06
 BYTE   Bn3  v034
 BYTE   W06
 BYTE   Cs4  v033
 BYTE   W06
 BYTE   Dn4
 BYTE   W06
 BYTE   PAN   c_v-64
 BYTE   N04  Fs4  v032
 BYTE   W01
 BYTE   PAN   c_v-60
 BYTE   W01
 BYTE   PAN   c_v-56
 BYTE   W01
 BYTE   PAN   c_v-52
 BYTE   W01
 BYTE   N04  Bn3  v031
 BYTE   PAN   c_v-48
 BYTE   W01
 BYTE   PAN   c_v-44
 BYTE   W01
 BYTE   PAN   c_v-40
 BYTE   W01
 BYTE   PAN   c_v-36
 BYTE   W01
 BYTE   N04  Cs4  v030
 BYTE   PAN   c_v-32
 BYTE   W01
 BYTE   PAN   c_v-28
 BYTE   W01
 BYTE   PAN   c_v-24
 BYTE   W01
 BYTE   PAN   c_v-20
 BYTE   W01
 BYTE   N04  Dn4  v029
 BYTE   PAN   c_v-16
 BYTE   W01
 BYTE   PAN   c_v-12
 BYTE   W01
 BYTE   PAN   c_v-8
 BYTE   W01
 BYTE   PAN   c_v-4
 BYTE   W01
 BYTE   N04  Fs4  v029
 BYTE   PAN   c_v+0
 BYTE   W01
 BYTE   PAN   c_v+4
 BYTE   W01
 BYTE   PAN   c_v+8
 BYTE   W01
 BYTE   PAN   c_v+12
 BYTE   W01
 BYTE   N04  Bn3  v028
 BYTE   PAN   c_v+16
 BYTE   W01
 BYTE   PAN   c_v+20
 BYTE   W01
 BYTE   PAN   c_v+24
 BYTE   W01
 BYTE   PAN   c_v+28
 BYTE   W01
 BYTE   N04  Cs4  v027
 BYTE   PAN   c_v+32
 BYTE   W01
 BYTE   PAN   c_v+36
 BYTE   W01
 BYTE   PAN   c_v+40
 BYTE   W01
 BYTE   PAN   c_v+44
 BYTE   W01
 BYTE   N04  Dn4  v026
//  #08 //239   ----------------------------------------
 BYTE   PATT
  POIN2 Label_014D0E48
//  #08 //240   ----------------------------------------
 BYTE   PAN   c_v+63
 BYTE   N04  Fs4  v025
 BYTE   W06
 BYTE   Bn3
 BYTE   W06
 BYTE   Cs4  v024
 BYTE   W06
 BYTE   Dn4  v023
 BYTE   W06
 BYTE   Fs4  v022
 BYTE   W06
 BYTE   Bn3
 BYTE   W06
 BYTE   Cs4  v021
 BYTE   W06
 BYTE   Dn4  v020
 BYTE   W06
 BYTE   PAN   c_v+63
 BYTE   N04  Fs4  v019
 BYTE   W01
 BYTE   PAN   c_v+59
 BYTE   W01
 BYTE   PAN   c_v+55
 BYTE   W01
 BYTE   PAN   c_v+51
 BYTE   W01
 BYTE   N04  Bn3  v018
 BYTE   PAN   c_v+47
 BYTE   W01
 BYTE   PAN   c_v+43
 BYTE   W01
 BYTE   PAN   c_v+39
 BYTE   W01
 BYTE   PAN   c_v+35
 BYTE   W01
 BYTE   N04  Cs4  v018
 BYTE   PAN   c_v+31
 BYTE   W01
 BYTE   PAN   c_v+27
 BYTE   W01
 BYTE   PAN   c_v+23
 BYTE   W01
 BYTE   PAN   c_v+19
 BYTE   W01
 BYTE   N04  Dn4  v017
 BYTE   PAN   c_v+15
 BYTE   W01
 BYTE   PAN   c_v+11
 BYTE   W01
 BYTE   PAN   c_v+7
 BYTE   W01
 BYTE   PAN   c_v+3
 BYTE   W01
 BYTE   N04  Fs4  v016
 BYTE   PAN   c_v-1
 BYTE   W01
 BYTE   PAN   c_v-5
 BYTE   W01
 BYTE   PAN   c_v-9
 BYTE   W01
 BYTE   PAN   c_v-13
 BYTE   W01
 BYTE   N04  Bn3  v015
 BYTE   PAN   c_v-17
 BYTE   W01
 BYTE   PAN   c_v-21
 BYTE   W01
 BYTE   PAN   c_v-25
 BYTE   W01
 BYTE   PAN   c_v-29
 BYTE   W01
 BYTE   N04  Cs4  v015
 BYTE   PAN   c_v-33
 BYTE   W01
 BYTE   PAN   c_v-37
 BYTE   W01
 BYTE   PAN   c_v-41
 BYTE   W01
 BYTE   PAN   c_v-45
 BYTE   W01
 BYTE   N04  Dn4  v014
 BYTE   PAN   c_v-49
 BYTE   W01
 BYTE   PAN   c_v-53
 BYTE   W01
 BYTE   PAN   c_v-57
 BYTE   W01
 BYTE   PAN   c_v-61
 BYTE   W01
 BYTE   N04  Fs4  v013
 BYTE   W06
 BYTE   Bn3  v012
 BYTE   W06
 BYTE   Cs4  v011
 BYTE   W06
//  #08 //241   ----------------------------------------
 BYTE   Dn4
 BYTE   W06
 BYTE   Fs4  v010
 BYTE   W06
 BYTE   Bn3  v009
 BYTE   W06
 BYTE   Cs4  v008
 BYTE   W06
 BYTE   Dn4
 BYTE   W06
 BYTE   PAN   c_v-64
 BYTE   N04  Fs4  v007
 BYTE   W01
 BYTE   PAN   c_v-60
 BYTE   W01
 BYTE   PAN   c_v-56
 BYTE   W01
 BYTE   PAN   c_v-52
 BYTE   W01
 BYTE   N04  Bn3  v006
 BYTE   PAN   c_v-48
 BYTE   W01
 BYTE   PAN   c_v-44
 BYTE   W01
 BYTE   PAN   c_v-40
 BYTE   W01
 BYTE   PAN   c_v-36
 BYTE   W01
 BYTE   N04  Cs4  v005
 BYTE   PAN   c_v-32
 BYTE   W01
 BYTE   PAN   c_v-28
 BYTE   W01
 BYTE   PAN   c_v-24
 BYTE   W01
 BYTE   PAN   c_v-20
 BYTE   W01
 BYTE   N04  Dn4  v004
 BYTE   PAN   c_v-16
 BYTE   W01
 BYTE   PAN   c_v-12
 BYTE   W01
 BYTE   PAN   c_v-8
 BYTE   W01
 BYTE   PAN   c_v-4
 BYTE   W01
 BYTE   N04  Fs4  v004
 BYTE   PAN   c_v+0
 BYTE   W01
 BYTE   PAN   c_v+4
 BYTE   W01
 BYTE   PAN   c_v+8
 BYTE   W01
 BYTE   PAN   c_v+12
 BYTE   W01
 BYTE   N04  Bn3  v003
 BYTE   PAN   c_v+16
 BYTE   W01
 BYTE   PAN   c_v+20
 BYTE   W01
 BYTE   PAN   c_v+24
 BYTE   W01
 BYTE   PAN   c_v+28
 BYTE   W01
 BYTE   N04  Cs4  v002
 BYTE   PAN   c_v+32
 BYTE   W01
 BYTE   PAN   c_v+36
 BYTE   W01
 BYTE   PAN   c_v+40
 BYTE   W01
 BYTE   PAN   c_v+44
 BYTE   W01
 BYTE   N04  Dn4  v001
//  #08 //242   ----------------------------------------
 BYTE   PATT
  POIN2 Label_014D0E48
//  #08 //243   ----------------------------------------
 BYTE   PAN   c_v+63
 BYTE   GoTo
  POIN2 Label_014D0D24
 BYTE   FINE

//**************** Track 9 (Midi-Chn.8) ****************//

GundamnF19Act12_009:
//  #09 //000   ----------------------------------------
Label_014B7A3C:
 BYTE   TEMPO   300*GundamnF19Act12_tbs/2
 BYTE   KEYSH   GundamnF19Act12_key+0
 BYTE   VOICE   127
 BYTE   VOL   72*GundamnF19Act12_mvl/mxv
 BYTE   PAN   c_v+0
 BYTE   W06
 BYTE   TEMPO   160*GundamnF19Act12_tbs/2
 BYTE   N01  Cn1  v117
 BYTE   W24
 BYTE   Cn1
 BYTE   W24
 BYTE   Cn1
 BYTE   W24
 BYTE   Cn1
 BYTE   W24
//  #09 //001   ----------------------------------------
Label_014B7A53:
 BYTE   N01  Cn1  v117
 BYTE   W24
 BYTE   Cn1
 BYTE   W24
 BYTE   Cn1
 BYTE   W24
 BYTE   Cn1
 BYTE   W24
 BYTE   PEND 
//  #09 //002   ----------------------------------------
 BYTE   N01  Cn1  v117
 BYTE   W24
 BYTE   Cn1
 BYTE   W24
 BYTE   Cn1
 BYTE   W24
 BYTE   Cn1
 BYTE   W12
 BYTE   Dn1  v127
 BYTE   W24
//  #09 //003   ----------------------------------------
 BYTE   Cn1  v117
 BYTE   W12
 BYTE   Cn1
 BYTE   W12
 BYTE   Dn1  v127
 BYTE   W24
 BYTE   Dn1
 BYTE   W12
 BYTE   Dn1
 BYTE   W06
 BYTE   Dn1
 BYTE   W06
 BYTE   Dn1
 BYTE   W06
 BYTE   Dn1
 BYTE   W06
 BYTE   Cn1  v117
 BYTE   W24
//  #09 //004   ----------------------------------------
Label_014B7A80:
 BYTE   N01  Dn1  v127
 BYTE   W24
 BYTE   Cn1  v117
 BYTE   W12
 BYTE   Cn1
 BYTE   W12
 BYTE   Dn1  v127
 BYTE   W24
 BYTE   Cn1  v117
 BYTE   W24
 BYTE   PEND 
//  #09 //005   ----------------------------------------
 BYTE   PATT
  POIN2 Label_014B7A80
//  #09 //006   ----------------------------------------
 BYTE   N01  Dn1  v127
 BYTE   W24
 BYTE   Cn1  v117
 BYTE   W12
 BYTE   Cn1
 BYTE   W12
 BYTE   Dn1  v127
 BYTE   W12
 BYTE   Cn1  v117
 BYTE   W24
 BYTE   Dn1  v127
 BYTE   W12
//  #09 //007   ----------------------------------------
 BYTE   Dn1
 BYTE   W12
 BYTE   Cn1  v117
 BYTE   W24
 BYTE   Dn1  v127
 BYTE   W12
 BYTE   Cn2
 BYTE   W03
 BYTE   Cn2
 BYTE   W03
 BYTE   Cn2
 BYTE   W06
 BYTE   An1
 BYTE   W06
 BYTE   Gn1
 BYTE   W06
 BYTE   Cn1  v117
 BYTE   W24
//  #09 //008   ----------------------------------------
 BYTE   PATT
  POIN2 Label_014B7A80
//  #09 //009   ----------------------------------------
 BYTE   PATT
  POIN2 Label_014B7A80
//  #09 //010   ----------------------------------------
 BYTE   PATT
  POIN2 Label_014B7A80
//  #09 //011   ----------------------------------------
 BYTE   N01  Dn1  v127
 BYTE   W24
 BYTE   Cn1  v117
 BYTE   W12
 BYTE   Cn1
 BYTE   W12
 BYTE   Dn1  v127
 BYTE   W12
 BYTE   Dn1
 BYTE   W06
 BYTE   Dn1
 BYTE   W06
 BYTE   Cn1  v117
 BYTE   W24
//  #09 //012   ----------------------------------------
 BYTE   PATT
  POIN2 Label_014B7A80
//  #09 //013   ----------------------------------------
 BYTE   PATT
  POIN2 Label_014B7A80
//  #09 //014   ----------------------------------------
 BYTE   N01  Dn1  v127
 BYTE   W24
 BYTE   Cn1  v117
 BYTE   W12
 BYTE   Cn1
 BYTE   W12
 BYTE   Dn1  v127
 BYTE   W24
 BYTE   Cn1  v117
 BYTE   W12
 BYTE   Cn2  v127
 BYTE   W03
 BYTE   Cn2
 BYTE   W09
//  #09 //015   ----------------------------------------
 BYTE   Cn2
 BYTE   W24
 BYTE   An1
 BYTE   W12
 BYTE   An1
 BYTE   W12
 BYTE   Gn1
 BYTE   W12
 BYTE   Gn1
 BYTE   W12
 BYTE   Cn1  v117
 BYTE   W24
//  #09 //016   ----------------------------------------
 BYTE   PATT
  POIN2 Label_014B7A80
//  #09 //017   ----------------------------------------
 BYTE   PATT
  POIN2 Label_014B7A80
//  #09 //018   ----------------------------------------
 BYTE   PATT
  POIN2 Label_014B7A80
//  #09 //019   ----------------------------------------
 BYTE   N01  Dn1  v127
 BYTE   W24
 BYTE   Dn1
 BYTE   W06
 BYTE   Dn1
 BYTE   W06
 BYTE   Dn1
 BYTE   W12
 BYTE   Dn1
 BYTE   W12
 BYTE   Dn1
 BYTE   W06
 BYTE   Dn1
 BYTE   W06
 BYTE   Cn1  v117
 BYTE   W24
//  #09 //020   ----------------------------------------
 BYTE   PATT
  POIN2 Label_014B7A80
//  #09 //021   ----------------------------------------
 BYTE   PATT
  POIN2 Label_014B7A80
//  #09 //022   ----------------------------------------
 BYTE   PATT
  POIN2 Label_014B7A80
//  #09 //023   ----------------------------------------
 BYTE   N01  Dn1  v127
 BYTE   W24
 BYTE   Cn2
 BYTE   W06
 BYTE   Cn2
 BYTE   W06
 BYTE   An1
 BYTE   W06
 BYTE   An1
 BYTE   W06
 BYTE   Gn1
 BYTE   W06
 BYTE   Gn1
 BYTE   W06
 BYTE   Dn1
 BYTE   W06
 BYTE   Dn1
 BYTE   W06
 BYTE   Cn1  v117
 BYTE   W12
 BYTE   Dn1  v127
 BYTE   W12
//  #09 //024   ----------------------------------------
Label_014B7B54:
 BYTE   N01  Dn1  v127
 BYTE   W12
 BYTE   Cn1  v117
 BYTE   W24
 BYTE   Dn1  v127
 BYTE   W12
 BYTE   Dn1
 BYTE   W12
 BYTE   Cn1  v117
 BYTE   W24
 BYTE   Dn1  v127
 BYTE   W12
 BYTE   PEND 
//  #09 //025   ----------------------------------------
 BYTE   PATT
  POIN2 Label_014B7B54
//  #09 //026   ----------------------------------------
 BYTE   PATT
  POIN2 Label_014B7B54
//  #09 //027   ----------------------------------------
 BYTE   N01  Dn1  v127
 BYTE   W12
 BYTE   Cn1  v117
 BYTE   W24
 BYTE   Dn1  v127
 BYTE   W12
 BYTE   Dn1
 BYTE   W06
 BYTE   Dn1
 BYTE   W06
 BYTE   Dn1
 BYTE   W06
 BYTE   Dn1
 BYTE   W06
 BYTE   Dn1
 BYTE   W18
 BYTE   Dn1
 BYTE   W18
//  #09 //028   ----------------------------------------
 BYTE   Dn1
 BYTE   W36
 BYTE   Cn2
 BYTE   W03
 BYTE   Cn2
 BYTE   W03
 BYTE   An1
 BYTE   W06
 BYTE   An1
 BYTE   W06
 BYTE   Gn1
 BYTE   W06
 BYTE   Cn1  v117
 BYTE   W24
 BYTE   Cn1
 BYTE   W24
//  #09 //029   ----------------------------------------
 BYTE   PATT
  POIN2 Label_014B7A53
//  #09 //030   ----------------------------------------
 BYTE   PATT
  POIN2 Label_014B7A53
//  #09 //031   ----------------------------------------
 BYTE   N01  Cn1  v117
 BYTE   W24
 BYTE   Cn1
 BYTE   W12
 BYTE   Dn1  v127
 BYTE   W24
 BYTE   Cn1  v117
 BYTE   W12
 BYTE   Cn1
 BYTE   W12
 BYTE   Dn1  v127
 BYTE   W24
//  #09 //032   ----------------------------------------
 BYTE   Dn1
 BYTE   W12
 BYTE   Dn1
 BYTE   W06
 BYTE   Dn1
 BYTE   W06
 BYTE   Dn1
 BYTE   W06
 BYTE   Dn1
 BYTE   W06
 BYTE   Cn1  v117
 BYTE   W24
 BYTE   Dn1  v127
 BYTE   W24
 BYTE   Cn1  v117
 BYTE   W12
//  #09 //033   ----------------------------------------
Label_014B7BC6:
 BYTE   N01  Cn1  v117
 BYTE   W12
 BYTE   Dn1  v127
 BYTE   W24
 BYTE   Cn1  v117
 BYTE   W24
 BYTE   Dn1  v127
 BYTE   W24
 BYTE   Cn1  v117
 BYTE   W12
 BYTE   PEND 
//  #09 //034   ----------------------------------------
 BYTE   PATT
  POIN2 Label_014B7BC6
//  #09 //035   ----------------------------------------
 BYTE   N01  Cn1  v117
 BYTE   W12
 BYTE   Dn1  v127
 BYTE   W12
 BYTE   Cn1  v117
 BYTE   W24
 BYTE   Dn1  v127
 BYTE   W12
 BYTE   Dn1
 BYTE   W12
 BYTE   Cn1  v117
 BYTE   W24
//  #09 //036   ----------------------------------------
 BYTE   Dn1  v127
 BYTE   W12
 BYTE   Cn2
 BYTE   W03
 BYTE   Cn2
 BYTE   W03
 BYTE   Cn2
 BYTE   W06
 BYTE   An1
 BYTE   W06
 BYTE   Gn1
 BYTE   W06
 BYTE   Cn1  v117
 BYTE   W24
 BYTE   Dn1  v127
 BYTE   W24
 BYTE   Cn1  v117
 BYTE   W12
//  #09 //037   ----------------------------------------
 BYTE   PATT
  POIN2 Label_014B7BC6
//  #09 //038   ----------------------------------------
 BYTE   PATT
  POIN2 Label_014B7BC6
//  #09 //039   ----------------------------------------
 BYTE   PATT
  POIN2 Label_014B7BC6
//  #09 //040   ----------------------------------------
 BYTE   N01  Cn1  v117
 BYTE   W12
 BYTE   Dn1  v127
 BYTE   W12
 BYTE   Dn1
 BYTE   W06
 BYTE   Dn1
 BYTE   W06
 BYTE   Cn1  v117
 BYTE   W24
 BYTE   Dn1  v127
 BYTE   W24
 BYTE   Cn1  v117
 BYTE   W12
//  #09 //041   ----------------------------------------
 BYTE   PATT
  POIN2 Label_014B7BC6
//  #09 //042   ----------------------------------------
 BYTE   PATT
  POIN2 Label_014B7BC6
//  #09 //043   ----------------------------------------
 BYTE   N01  Cn1  v117
 BYTE   W12
 BYTE   Dn1  v127
 BYTE   W24
 BYTE   Cn1  v117
 BYTE   W12
 BYTE   Cn2  v127
 BYTE   W03
 BYTE   Cn2
 BYTE   W09
 BYTE   Cn2
 BYTE   W24
 BYTE   An1
 BYTE   W12
//  #09 //044   ----------------------------------------
 BYTE   An1
 BYTE   W12
 BYTE   Gn1
 BYTE   W12
 BYTE   Gn1
 BYTE   W12
 BYTE   Cn1  v117
 BYTE   W24
 BYTE   Dn1  v127
 BYTE   W24
 BYTE   Cn1  v117
 BYTE   W12
//  #09 //045   ----------------------------------------
 BYTE   PATT
  POIN2 Label_014B7BC6
//  #09 //046   ----------------------------------------
 BYTE   PATT
  POIN2 Label_014B7BC6
//  #09 //047   ----------------------------------------
 BYTE   N01  Cn1  v117
 BYTE   W12
 BYTE   Dn1  v127
 BYTE   W24
 BYTE   Cn1  v117
 BYTE   W24
 BYTE   Dn1  v127
 BYTE   W24
 BYTE   Dn1
 BYTE   W06
 BYTE   Dn1
 BYTE   W06
//  #09 //048   ----------------------------------------
 BYTE   Dn1
 BYTE   W12
 BYTE   Dn1
 BYTE   W12
 BYTE   Dn1
 BYTE   W06
 BYTE   Dn1
 BYTE   W06
 BYTE   Cn1  v117
 BYTE   W24
 BYTE   Dn1  v127
 BYTE   W24
 BYTE   Cn1  v117
 BYTE   W12
//  #09 //049   ----------------------------------------
 BYTE   PATT
  POIN2 Label_014B7BC6
//  #09 //050   ----------------------------------------
 BYTE   PATT
  POIN2 Label_014B7BC6
//  #09 //051   ----------------------------------------
 BYTE   N01  Cn1  v117
 BYTE   W12
 BYTE   Dn1  v127
 BYTE   W24
 BYTE   Cn1  v117
 BYTE   W24
 BYTE   Dn1  v127
 BYTE   W24
 BYTE   Cn2
 BYTE   W06
 BYTE   Cn2
 BYTE   W06
//  #09 //052   ----------------------------------------
 BYTE   An1
 BYTE   W06
 BYTE   An1
 BYTE   W06
 BYTE   Gn1
 BYTE   W06
 BYTE   Gn1
 BYTE   W06
 BYTE   Dn1
 BYTE   W06
 BYTE   Dn1
 BYTE   W06
 BYTE   Cn1  v117
 BYTE   W12
 BYTE   Dn1  v127
 BYTE   W12
 BYTE   Dn1
 BYTE   W12
 BYTE   Cn1  v117
 BYTE   W24
//  #09 //053   ----------------------------------------
Label_014B7CB1:
 BYTE   N01  Dn1  v127
 BYTE   W12
 BYTE   Dn1
 BYTE   W12
 BYTE   Cn1  v117
 BYTE   W24
 BYTE   Dn1  v127
 BYTE   W12
 BYTE   Dn1
 BYTE   W12
 BYTE   Cn1  v117
 BYTE   W24
 BYTE   PEND 
//  #09 //054   ----------------------------------------
 BYTE   PATT
  POIN2 Label_014B7CB1
//  #09 //055   ----------------------------------------
 BYTE   PATT
  POIN2 Label_014B7CB1
//  #09 //056   ----------------------------------------
 BYTE   N01  Dn1  v127
 BYTE   W12
 BYTE   Dn1
 BYTE   W06
 BYTE   Dn1
 BYTE   W06
 BYTE   Dn1
 BYTE   W06
 BYTE   Dn1
 BYTE   W06
 BYTE   Dn1
 BYTE   W18
 BYTE   Dn1
 BYTE   W18
 BYTE   Dn1
 BYTE   W36
//  #09 //057   ----------------------------------------
 BYTE   Cn2
 BYTE   W03
 BYTE   Cn2
 BYTE   W03
 BYTE   An1
 BYTE   W06
 BYTE   An1
 BYTE   W06
 BYTE   Gn1
 BYTE   W06
 BYTE   Cn1  v117
 BYTE   W24
 BYTE   Cn1
 BYTE   W24
 BYTE   Cn1
 BYTE   W24
//  #09 //058   ----------------------------------------
 BYTE   PATT
  POIN2 Label_014B7A53
//  #09 //059   ----------------------------------------
 BYTE   PATT
  POIN2 Label_014B7A53
//  #09 //060   ----------------------------------------
 BYTE   N01  Cn1  v117
 BYTE   W12
 BYTE   Dn1  v127
 BYTE   W24
 BYTE   Cn1  v117
 BYTE   W12
 BYTE   Cn1
 BYTE   W12
 BYTE   Dn1  v127
 BYTE   W24
 BYTE   Dn1
 BYTE   W12
//  #09 //061   ----------------------------------------
 BYTE   Dn1
 BYTE   W06
 BYTE   Dn1
 BYTE   W06
 BYTE   Dn1
 BYTE   W06
 BYTE   Dn1
 BYTE   W06
 BYTE   Cn1  v117
 BYTE   W24
 BYTE   Dn1  v127
 BYTE   W24
 BYTE   Cn1  v117
 BYTE   W12
 BYTE   Cn1
 BYTE   W12
//  #09 //062   ----------------------------------------
Label_014B7D1E:
 BYTE   N01  Dn1  v127
 BYTE   W24
 BYTE   Cn1  v117
 BYTE   W24
 BYTE   Dn1  v127
 BYTE   W24
 BYTE   Cn1  v117
 BYTE   W12
 BYTE   Cn1
 BYTE   W12
 BYTE   PEND 
//  #09 //063   ----------------------------------------
 BYTE   PATT
  POIN2 Label_014B7D1E
//  #09 //064   ----------------------------------------
 BYTE   PATT
  POIN2 Label_014B7B54
//  #09 //065   ----------------------------------------
 BYTE   N01  Cn2  v127
 BYTE   W03
 BYTE   Cn2
 BYTE   W03
 BYTE   Cn2
 BYTE   W06
 BYTE   An1
 BYTE   W06
 BYTE   Gn1
 BYTE   W06
 BYTE   Cn1  v117
 BYTE   W24
 BYTE   Dn1  v127
 BYTE   W24
 BYTE   Cn1  v117
 BYTE   W12
 BYTE   Cn1
 BYTE   W12
//  #09 //066   ----------------------------------------
 BYTE   PATT
  POIN2 Label_014B7D1E
//  #09 //067   ----------------------------------------
 BYTE   PATT
  POIN2 Label_014B7D1E
//  #09 //068   ----------------------------------------
 BYTE   PATT
  POIN2 Label_014B7D1E
//  #09 //069   ----------------------------------------
Label_014B7D5E:
 BYTE   N01  Dn1  v127
 BYTE   W12
 BYTE   Dn1
 BYTE   W06
 BYTE   Dn1
 BYTE   W06
 BYTE   Cn1  v117
 BYTE   W24
 BYTE   Dn1  v127
 BYTE   W24
 BYTE   Cn1  v117
 BYTE   W12
 BYTE   Cn1
 BYTE   W12
 BYTE   PEND 
//  #09 //070   ----------------------------------------
 BYTE   PATT
  POIN2 Label_014B7D1E
//  #09 //071   ----------------------------------------
 BYTE   PATT
  POIN2 Label_014B7D1E
//  #09 //072   ----------------------------------------
 BYTE   N01  Dn1  v127
 BYTE   W24
 BYTE   Cn1  v117
 BYTE   W12
 BYTE   Cn2  v127
 BYTE   W03
 BYTE   Cn2
 BYTE   W09
 BYTE   Cn2
 BYTE   W24
 BYTE   An1
 BYTE   W12
 BYTE   An1
 BYTE   W12
//  #09 //073   ----------------------------------------
 BYTE   Gn1
 BYTE   W12
 BYTE   Gn1
 BYTE   W12
 BYTE   Cn1  v117
 BYTE   W24
 BYTE   Dn1  v127
 BYTE   W24
 BYTE   Cn1  v117
 BYTE   W12
 BYTE   Cn1
 BYTE   W12
//  #09 //074   ----------------------------------------
 BYTE   PATT
  POIN2 Label_014B7D1E
//  #09 //075   ----------------------------------------
 BYTE   PATT
  POIN2 Label_014B7D1E
//  #09 //076   ----------------------------------------
 BYTE   N01  Dn1  v127
 BYTE   W24
 BYTE   Cn1  v117
 BYTE   W24
 BYTE   Dn1  v127
 BYTE   W24
 BYTE   Dn1
 BYTE   W06
 BYTE   Dn1
 BYTE   W06
 BYTE   Dn1
 BYTE   W12
//  #09 //077   ----------------------------------------
 BYTE   PATT
  POIN2 Label_014B7D5E
//  #09 //078   ----------------------------------------
 BYTE   PATT
  POIN2 Label_014B7D1E
//  #09 //079   ----------------------------------------
 BYTE   PATT
  POIN2 Label_014B7D1E
//  #09 //080   ----------------------------------------
 BYTE   N01  Dn1  v127
 BYTE   W24
 BYTE   Cn1  v117
 BYTE   W24
 BYTE   Dn1  v127
 BYTE   W24
 BYTE   Cn2
 BYTE   W06
 BYTE   Cn2
 BYTE   W06
 BYTE   An1
 BYTE   W06
 BYTE   An1
 BYTE   W06
//  #09 //081   ----------------------------------------
 BYTE   Gn1
 BYTE   W06
 BYTE   Gn1
 BYTE   W06
 BYTE   Dn1
 BYTE   W06
 BYTE   Dn1
 BYTE   W06
 BYTE   Cn1  v117
 BYTE   W12
 BYTE   Dn1  v127
 BYTE   W12
 BYTE   Dn1
 BYTE   W12
 BYTE   Cn1  v117
 BYTE   W24
 BYTE   Dn1  v127
 BYTE   W12
//  #09 //082   ----------------------------------------
 BYTE   PATT
  POIN2 Label_014B7B54
//  #09 //083   ----------------------------------------
 BYTE   PATT
  POIN2 Label_014B7B54
//  #09 //084   ----------------------------------------
 BYTE   PATT
  POIN2 Label_014B7B54
//  #09 //085   ----------------------------------------
 BYTE   N01  Dn1  v127
 BYTE   W06
 BYTE   Dn1
 BYTE   W06
 BYTE   Dn1
 BYTE   W06
 BYTE   Dn1
 BYTE   W06
 BYTE   Dn1
 BYTE   W18
 BYTE   Dn1
 BYTE   W18
 BYTE   Dn1
 BYTE   W36
//  #09 //086   ----------------------------------------
 BYTE   Cn2
 BYTE   W03
 BYTE   Cn2
 BYTE   W03
 BYTE   An1
 BYTE   W06
 BYTE   An1
 BYTE   W06
 BYTE   Gn1
 BYTE   W06
 BYTE   Cn1  v117
 BYTE   W24
 BYTE   Cn1  v113
 BYTE   W24
 BYTE   Cn1  v109
 BYTE   W24
//  #09 //087   ----------------------------------------
 BYTE   Cn1  v106
 BYTE   W24
 BYTE   Cn1  v102
 BYTE   W24
 BYTE   Cn1  v099
 BYTE   W24
 BYTE   Cn1  v095
 BYTE   W24
//  #09 //088   ----------------------------------------
 BYTE   Cn1  v092
 BYTE   W24
 BYTE   Cn1  v087
 BYTE   W24
 BYTE   Cn1  v084
 BYTE   W24
 BYTE   Cn1  v080
 BYTE   W24
//  #09 //089   ----------------------------------------
 BYTE   Cn1  v077
 BYTE   W12
 BYTE   Dn1  v082
 BYTE   W24
 BYTE   Cn1  v071
 BYTE   W12
 BYTE   Cn1  v070
 BYTE   W12
 BYTE   Dn1  v073
 BYTE   W24
 BYTE   Dn1  v069
 BYTE   W12
//  #09 //090   ----------------------------------------
 BYTE   Dn1  v068
 BYTE   W06
 BYTE   Dn1  v067
 BYTE   W06
 BYTE   Dn1  v066
 BYTE   W06
 BYTE   Dn1  v064
 BYTE   W06
 BYTE   Cn1  v058
 BYTE   W24
 BYTE   Dn1  v059
 BYTE   W24
 BYTE   Cn1  v051
 BYTE   W12
 BYTE   Cn1  v050
 BYTE   W12
//  #09 //091   ----------------------------------------
 BYTE   Dn1  v052
 BYTE   W24
 BYTE   Cn1  v044
 BYTE   W24
 BYTE   Dn1
 BYTE   W24
 BYTE   Cn1  v037
 BYTE   W12
 BYTE   Cn1  v035
 BYTE   W12
//  #09 //092   ----------------------------------------
 BYTE   Dn1  v036
 BYTE   W24
 BYTE   Cn1  v029
 BYTE   W24
 BYTE   Dn1  v027
 BYTE   W24
 BYTE   Cn1  v022
 BYTE   W12
 BYTE   Cn1  v021
 BYTE   W12
//  #09 //093   ----------------------------------------
 BYTE   Dn1  v020
 BYTE   W12
 BYTE   Cn1  v017
 BYTE   W24
 BYTE   Dn1  v013
 BYTE   W12
 BYTE   Dn1  v012
 BYTE   W12
 BYTE   Cn1  v009
 BYTE   W24
 BYTE   Dn1  v006
 BYTE   W12
//  #09 //094   ----------------------------------------
 BYTE   Cn2  v005
 BYTE   W03
 BYTE   Cn2  v003
 BYTE   W03
 BYTE   Cn2
 BYTE   W06
 BYTE   An1  v002
 BYTE   W06
 BYTE   Gn1  v001
 BYTE   W06
 BYTE   GoTo
  POIN2 Label_014B7A3C
 BYTE   FINE

//******************************************************//
	ALIGN 4

GundamnF19Act12:
	BYTE	9	// NumTrks
	BYTE	0	// NumBlks
	BYTE	GundamnF19Act12_pri	// Priority
	BYTE	GundamnF19Act12_rev	// Reverb.
    
	POIN2	GundamnF19Act12_grp
    
	POIN2	GundamnF19Act12_001
	POIN2	GundamnF19Act12_002
	POIN2	GundamnF19Act12_003
	POIN2	GundamnF19Act12_004
	POIN2	GundamnF19Act12_005
	POIN2	GundamnF19Act12_006
	POIN2	GundamnF19Act12_007
	POIN2	GundamnF19Act12_008
	POIN2	GundamnF19Act12_009

	
