//Event file generated from Sappy .s format.
	

	#define	HarvestDance_grp  voicegroup000
	#define	HarvestDance_pri  0
	#define	HarvestDance_rev  0
	#define	HarvestDance_mvl  127
	#define	HarvestDance_key  0
	#define	HarvestDance_tbs  1
	#define	HarvestDance_exg  0
	#define	HarvestDance_cmp  1

	// .rodata
	//	HarvestDance
	ALIGN 4


//**************** Track 1 (Midi-Chn.0) ****************//

HarvestDance_001:
//  #01 //000   ----------------------------------------
 BYTE   KEYSH   HarvestDance_key+0
 BYTE   TEMPO   134*HarvestDance_tbs/2
 BYTE   VOICE   56
 BYTE   W48
 BYTE   VOL   70*HarvestDance_mvl/mxv
 BYTE   W48
//  #01 //001   ----------------------------------------
Label_011C737E:
 BYTE   N06  Gn2  v127
 BYTE   W36
 BYTE   N06
 BYTE   W24
 BYTE   N24  As2
 BYTE   W24
 BYTE   N06  Gn2
 BYTE   W12
 BYTE   PEND 
//  #01 //002   ----------------------------------------
Label_011C738B:
 BYTE   W12
 BYTE   N06  As2  v127
 BYTE   W24
 BYTE   N06
 BYTE   W12
 BYTE   N03  Cn3
 BYTE   W06
 BYTE   N03
 BYTE   W06
 BYTE   N03
 BYTE   W36
 BYTE   PEND 
//  #01 //003   ----------------------------------------
 BYTE   PATT
  POIN2 Label_011C737E
//  #01 //004   ----------------------------------------
 BYTE   N06  Ds3  v127
 BYTE   W12
 BYTE   N24  Dn3
 BYTE   W24
 BYTE   As2
 BYTE   W24
 BYTE   An2
 BYTE   W24
 BYTE   N12  Fn2
 BYTE   W12
//  #01 //005   ----------------------------------------
 BYTE   PATT
  POIN2 Label_011C737E
//  #01 //006   ----------------------------------------
 BYTE   PATT
  POIN2 Label_011C738B
//  #01 //007   ----------------------------------------
 BYTE   PATT
  POIN2 Label_011C737E
//  #01 //008   ----------------------------------------
 BYTE   PATT
  POIN2 Label_011C738B
//  #01 //009   ----------------------------------------
 BYTE   PATT
  POIN2 Label_011C737E
//  #01 //010   ----------------------------------------
 BYTE   PATT
  POIN2 Label_011C738B
//  #01 //011   ----------------------------------------
 BYTE   PATT
  POIN2 Label_011C737E
//  #01 //012   ----------------------------------------
 BYTE   PATT
  POIN2 Label_011C738B
//  #01 //013   ----------------------------------------
Label_011C73D5:
 BYTE   N06  As2  v127
 BYTE   W36
 BYTE   N06
 BYTE   W24
 BYTE   N24  Cs3
 BYTE   W24
 BYTE   N06  As2
 BYTE   W12
 BYTE   PEND 
//  #01 //014   ----------------------------------------
Label_011C73E2:
 BYTE   W12
 BYTE   N06  Cs3  v127
 BYTE   W24
 BYTE   N06
 BYTE   W12
 BYTE   N03  Ds3
 BYTE   W06
 BYTE   N03
 BYTE   W06
 BYTE   N03
 BYTE   W36
 BYTE   PEND 
//  #01 //015   ----------------------------------------
 BYTE   PATT
  POIN2 Label_011C73D5
//  #01 //016   ----------------------------------------
 BYTE   PATT
  POIN2 Label_011C73E2
//  #01 //017   ----------------------------------------
Label_011C73FB:
 BYTE   N06  Cs3  v127
 BYTE   W36
 BYTE   N06
 BYTE   W24
 BYTE   N24  En3
 BYTE   W24
 BYTE   N06  Cs3
 BYTE   W12
 BYTE   PEND 
//  #01 //018   ----------------------------------------
Label_011C7408:
 BYTE   W12
 BYTE   N06  En3  v127
 BYTE   W24
 BYTE   N06
 BYTE   W12
 BYTE   N03  Fs3
 BYTE   W06
 BYTE   N03
 BYTE   W06
 BYTE   N03
 BYTE   W36
 BYTE   PEND 
//  #01 //019   ----------------------------------------
 BYTE   PATT
  POIN2 Label_011C73FB
//  #01 //020   ----------------------------------------
 BYTE   PATT
  POIN2 Label_011C7408
//  #01 //021   ----------------------------------------
Label_011C7421:
 BYTE   W24
 BYTE   N06  Gs3  v127
 BYTE   W24
 BYTE   N12  Ds4
 BYTE   W12
 BYTE   N06  En4
 BYTE   W24
 BYTE   N06
 BYTE   W12
 BYTE   PEND 
//  #01 //022   ----------------------------------------
Label_011C742F:
 BYTE   N12  Cs4  v127
 BYTE   W12
 BYTE   N06  Ds4
 BYTE   W24
 BYTE   N06
 BYTE   W12
 BYTE   N12  Cs4
 BYTE   W12
 BYTE   N06  Ds4
 BYTE   W24
 BYTE   N06
 BYTE   W12
 BYTE   PEND 
//  #01 //023   ----------------------------------------
 BYTE   PATT
  POIN2 Label_011C7421
//  #01 //024   ----------------------------------------
 BYTE   PATT
  POIN2 Label_011C742F
//  #01 //025   ----------------------------------------
 BYTE   PATT
  POIN2 Label_011C7421
//  #01 //026   ----------------------------------------
 BYTE   PATT
  POIN2 Label_011C742F
//  #01 //027   ----------------------------------------
 BYTE   PATT
  POIN2 Label_011C7421
//  #01 //028   ----------------------------------------
 BYTE   PATT
  POIN2 Label_011C742F
//  #01 //029   ----------------------------------------
Label_011C745F:
//  #01 //030   ----------------------------------------
 BYTE   PATT
  POIN2 Label_011C737E
//  #01 //031   ----------------------------------------
 BYTE   PATT
  POIN2 Label_011C738B
//  #01 //032   ----------------------------------------
 BYTE   PATT
  POIN2 Label_011C737E
//  #01 //033   ----------------------------------------
 BYTE   PATT
  POIN2 Label_011C738B
//  #01 //034   ----------------------------------------
 BYTE   PATT
  POIN2 Label_011C737E
//  #01 //035   ----------------------------------------
 BYTE   PATT
  POIN2 Label_011C738B
//  #01 //036   ----------------------------------------
 BYTE   PATT
  POIN2 Label_011C737E
//  #01 //037   ----------------------------------------
 BYTE   PATT
  POIN2 Label_011C738B
//  #01 //038   ----------------------------------------
 BYTE   PATT
  POIN2 Label_011C73D5
//  #01 //039   ----------------------------------------
 BYTE   PATT
  POIN2 Label_011C73E2
//  #01 //040   ----------------------------------------
 BYTE   PATT
  POIN2 Label_011C73D5
//  #01 //041   ----------------------------------------
 BYTE   PATT
  POIN2 Label_011C73E2
//  #01 //042   ----------------------------------------
 BYTE   PATT
  POIN2 Label_011C73FB
//  #01 //043   ----------------------------------------
 BYTE   PATT
  POIN2 Label_011C7408
//  #01 //044   ----------------------------------------
 BYTE   PATT
  POIN2 Label_011C73FB
//  #01 //045   ----------------------------------------
 BYTE   PATT
  POIN2 Label_011C7408
//  #01 //046   ----------------------------------------
 BYTE   PATT
  POIN2 Label_011C7421
//  #01 //047   ----------------------------------------
 BYTE   PATT
  POIN2 Label_011C742F
//  #01 //048   ----------------------------------------
 BYTE   PATT
  POIN2 Label_011C7421
//  #01 //049   ----------------------------------------
 BYTE   PATT
  POIN2 Label_011C742F
//  #01 //050   ----------------------------------------
 BYTE   PATT
  POIN2 Label_011C7421
//  #01 //051   ----------------------------------------
 BYTE   PATT
  POIN2 Label_011C742F
//  #01 //052   ----------------------------------------
 BYTE   PATT
  POIN2 Label_011C7421
//  #01 //053   ----------------------------------------
 BYTE   PATT
  POIN2 Label_011C742F
//  #01 //054   ----------------------------------------
 BYTE   PATT
  POIN2 Label_011C737E
//  #01 //055   ----------------------------------------
 BYTE   PATT
  POIN2 Label_011C738B
//  #01 //056   ----------------------------------------
 BYTE   PATT
  POIN2 Label_011C737E
//  #01 //057   ----------------------------------------
 BYTE   PATT
  POIN2 Label_011C738B
//  #01 //058   ----------------------------------------
 BYTE   PATT
  POIN2 Label_011C737E
//  #01 //059   ----------------------------------------
 BYTE   PATT
  POIN2 Label_011C738B
//  #01 //060   ----------------------------------------
 BYTE   PATT
  POIN2 Label_011C737E
//  #01 //061   ----------------------------------------
 BYTE   PATT
  POIN2 Label_011C738B
//  #01 //062   ----------------------------------------
 BYTE   PATT
  POIN2 Label_011C73D5
//  #01 //063   ----------------------------------------
 BYTE   PATT
  POIN2 Label_011C73E2
//  #01 //064   ----------------------------------------
 BYTE   PATT
  POIN2 Label_011C73D5
//  #01 //065   ----------------------------------------
 BYTE   PATT
  POIN2 Label_011C73E2
//  #01 //066   ----------------------------------------
 BYTE   PATT
  POIN2 Label_011C73FB
//  #01 //067   ----------------------------------------
 BYTE   PATT
  POIN2 Label_011C7408
//  #01 //068   ----------------------------------------
 BYTE   PATT
  POIN2 Label_011C73FB
//  #01 //069   ----------------------------------------
 BYTE   PATT
  POIN2 Label_011C7408
//  #01 //070   ----------------------------------------
 BYTE   PATT
  POIN2 Label_011C7421
//  #01 //071   ----------------------------------------
 BYTE   PATT
  POIN2 Label_011C742F
//  #01 //072   ----------------------------------------
 BYTE   PATT
  POIN2 Label_011C7421
//  #01 //073   ----------------------------------------
 BYTE   PATT
  POIN2 Label_011C742F
//  #01 //074   ----------------------------------------
 BYTE   PATT
  POIN2 Label_011C7421
//  #01 //075   ----------------------------------------
 BYTE   PATT
  POIN2 Label_011C742F
//  #01 //076   ----------------------------------------
 BYTE   PATT
  POIN2 Label_011C7421
//  #01 //077   ----------------------------------------
 BYTE   PATT
  POIN2 Label_011C742F
//  #01 //078   ----------------------------------------
 BYTE   GoTo
  POIN2 Label_011C745F
//  #01 //079   ----------------------------------------
 BYTE   W06
 BYTE   FINE

//**************** Track 2 (Midi-Chn.1) ****************//

HarvestDance_002:
//  #02 //000   ----------------------------------------
 BYTE   KEYSH   HarvestDance_key+0
 BYTE   VOICE   48
 BYTE   W48
 BYTE   VOL   70*HarvestDance_mvl/mxv
 BYTE   W48
//  #02 //001   ----------------------------------------
 BYTE   W96
//  #02 //002   ----------------------------------------
 BYTE   W96
//  #02 //003   ----------------------------------------
 BYTE   W96
//  #02 //004   ----------------------------------------
 BYTE   W96
//  #02 //005   ----------------------------------------
Label_011C7564:
 BYTE   N48  Cn3  v112
 BYTE   W48
 BYTE   Dn3
 BYTE   W48
 BYTE   PEND 
//  #02 //006   ----------------------------------------
Label_011C756B:
 BYTE   N48  Ds3  v112
 BYTE   W48
 BYTE   Gn3
 BYTE   W48
 BYTE   PEND 
//  #02 //007   ----------------------------------------
 BYTE   N96  As3
 BYTE   W96
//  #02 //008   ----------------------------------------
Label_011C7575:
 BYTE   N48  An3  v112
 BYTE   W48
 BYTE   Fn3
 BYTE   W48
 BYTE   PEND 
//  #02 //009   ----------------------------------------
Label_011C757C:
 BYTE   N48  Cn2  v096
 BYTE   N48  Gn3  v112
 BYTE   W48
 BYTE   Dn2  v096
 BYTE   N48  Cn4  v112
 BYTE   W48
 BYTE   PEND 
//  #02 //010   ----------------------------------------
Label_011C758A:
 BYTE   N48  Ds2  v096
 BYTE   N48  Dn4  v112
 BYTE   W48
 BYTE   Gn2  v096
 BYTE   N48  Fn4  v112
 BYTE   W48
 BYTE   PEND 
//  #02 //011   ----------------------------------------
Label_011C7598:
 BYTE   N96  As2  v096
 BYTE   N72  Ds4  v112
 BYTE   W72
 BYTE   N12  Dn4
 BYTE   W12
 BYTE   Cn4
 BYTE   W12
 BYTE   PEND 
//  #02 //012   ----------------------------------------
Label_011C75A5:
 BYTE   N36  An2  v096
 BYTE   N36  Dn4  v112
 BYTE   W36
 BYTE   Fn2  v096
 BYTE   N36  As3  v112
 BYTE   W36
 BYTE   N24  Cn2  v096
 BYTE   N24  Fn3  v112
 BYTE   W24
 BYTE   PEND 
//  #02 //013   ----------------------------------------
Label_011C75BA:
 BYTE   N12  Ds3  v112
 BYTE   W12
 BYTE   Fn3
 BYTE   W12
 BYTE   Fs3
 BYTE   W12
 BYTE   As3
 BYTE   W12
 BYTE   N24  Fn4
 BYTE   W24
 BYTE   N48  Ds4
 BYTE   W24
 BYTE   PEND 
//  #02 //014   ----------------------------------------
Label_011C75CB:
 BYTE   W24
 BYTE   N24  As3  v112
 BYTE   W24
 BYTE   N18  Fs3
 BYTE   W24
 BYTE   N24  Ds3
 BYTE   W24
 BYTE   PEND 
//  #02 //015   ----------------------------------------
Label_011C75D7:
 BYTE   N48  Cs4  v112
 BYTE   W48
 BYTE   N66  Cn4
 BYTE   W48
 BYTE   PEND 
//  #02 //016   ----------------------------------------
Label_011C75DF:
 BYTE   W24
 BYTE   N48  Gs3  v112
 BYTE   W48
 BYTE   N24  As3
 BYTE   W24
 BYTE   PEND 
//  #02 //017   ----------------------------------------
Label_011C75E8:
 BYTE   N12  An3  v112
 BYTE   N12  An4
 BYTE   W12
 BYTE   Bn3
 BYTE   N12  Bn4
 BYTE   W12
 BYTE   Cs4
 BYTE   N12  Cs5
 BYTE   W12
 BYTE   Fs3
 BYTE   N12  Fs4
 BYTE   W12
 BYTE   N72  Gs3
 BYTE   N72  Gs4
 BYTE   W48
 BYTE   PEND 
//  #02 //018   ----------------------------------------
Label_011C7600:
 BYTE   W24
 BYTE   N24  En3  v112
 BYTE   N24  En4
 BYTE   W24
 BYTE   Bn2
 BYTE   N24  Bn3
 BYTE   W21
 BYTE   TIE  Cs3
 BYTE   TIE  Cs4
 BYTE   W24
 BYTE   W03
 BYTE   PEND 
//  #02 //019   ----------------------------------------
Label_011C7612:
 BYTE   W48
 BYTE   VOL   70*HarvestDance_mvl/mxv
 BYTE   W01
 BYTE   VOL   111*HarvestDance_mvl/mxv
 BYTE   W02
 BYTE   VOL   110*HarvestDance_mvl/mxv
 BYTE   W02
 BYTE   VOL   109*HarvestDance_mvl/mxv
 BYTE   W02
 BYTE   VOL   108*HarvestDance_mvl/mxv
 BYTE   W02
 BYTE   VOL   107*HarvestDance_mvl/mxv
 BYTE   W01
 BYTE   VOL   106*HarvestDance_mvl/mxv
 BYTE   W02
 BYTE   VOL   105*HarvestDance_mvl/mxv
 BYTE   W02
 BYTE   VOL   104*HarvestDance_mvl/mxv
 BYTE   W02
 BYTE   VOL   103*HarvestDance_mvl/mxv
 BYTE   W02
 BYTE   VOL   102*HarvestDance_mvl/mxv
 BYTE   W01
 BYTE   VOL   101*HarvestDance_mvl/mxv
 BYTE   W02
 BYTE   VOL   100*HarvestDance_mvl/mxv
 BYTE   W02
 BYTE   VOL   99*HarvestDance_mvl/mxv
 BYTE   W02
 BYTE   VOL   98*HarvestDance_mvl/mxv
 BYTE   W02
 BYTE   VOL   97*HarvestDance_mvl/mxv
 BYTE   W01
 BYTE   VOL   96*HarvestDance_mvl/mxv
 BYTE   W02
 BYTE   VOL   95*HarvestDance_mvl/mxv
 BYTE   W02
 BYTE   VOL   94*HarvestDance_mvl/mxv
 BYTE   W02
 BYTE   VOL   93*HarvestDance_mvl/mxv
 BYTE   W02
 BYTE   VOL   92*HarvestDance_mvl/mxv
 BYTE   W01
 BYTE   VOL   91*HarvestDance_mvl/mxv
 BYTE   W02
 BYTE   VOL   90*HarvestDance_mvl/mxv
 BYTE   W02
 BYTE   VOL   89*HarvestDance_mvl/mxv
 BYTE   W02
 BYTE   VOL   88*HarvestDance_mvl/mxv
 BYTE   W02
 BYTE   VOL   87*HarvestDance_mvl/mxv
 BYTE   W01
 BYTE   VOL   86*HarvestDance_mvl/mxv
 BYTE   W02
 BYTE   PEND 
//  #02 //020   ----------------------------------------
Label_011C764B:
 BYTE   VOL   43*HarvestDance_mvl/mxv
 BYTE   W02
 BYTE   VOL   84*HarvestDance_mvl/mxv
 BYTE   W02
 BYTE   VOL   83*HarvestDance_mvl/mxv
 BYTE   W02
 BYTE   VOL   82*HarvestDance_mvl/mxv
 BYTE   W01
 BYTE   VOL   81*HarvestDance_mvl/mxv
 BYTE   W02
 BYTE   VOL   80*HarvestDance_mvl/mxv
 BYTE   W02
 BYTE   VOL   79*HarvestDance_mvl/mxv
 BYTE   W02
 BYTE   VOL   78*HarvestDance_mvl/mxv
 BYTE   W02
 BYTE   VOL   77*HarvestDance_mvl/mxv
 BYTE   W01
 BYTE   VOL   76*HarvestDance_mvl/mxv
 BYTE   W02
 BYTE   VOL   75*HarvestDance_mvl/mxv
 BYTE   W02
 BYTE   VOL   74*HarvestDance_mvl/mxv
 BYTE   W02
 BYTE   VOL   73*HarvestDance_mvl/mxv
 BYTE   W02
 BYTE   VOL   72*HarvestDance_mvl/mxv
 BYTE   W01
 BYTE   VOL   71*HarvestDance_mvl/mxv
 BYTE   W02
 BYTE   VOL   70*HarvestDance_mvl/mxv
 BYTE   W02
 BYTE   VOL   69*HarvestDance_mvl/mxv
 BYTE   W02
 BYTE   VOL   68*HarvestDance_mvl/mxv
 BYTE   W02
 BYTE   VOL   67*HarvestDance_mvl/mxv
 BYTE   W01
 BYTE   VOL   66*HarvestDance_mvl/mxv
 BYTE   W02
 BYTE   VOL   65*HarvestDance_mvl/mxv
 BYTE   W02
 BYTE   VOL   64*HarvestDance_mvl/mxv
 BYTE   W02
 BYTE   VOL   63*HarvestDance_mvl/mxv
 BYTE   W02
 BYTE   VOL   62*HarvestDance_mvl/mxv
 BYTE   W01
 BYTE   VOL   61*HarvestDance_mvl/mxv
 BYTE   W02
 BYTE   VOL   60*HarvestDance_mvl/mxv
 BYTE   W02
 BYTE   VOL   59*HarvestDance_mvl/mxv
 BYTE   W02
 BYTE   VOL   58*HarvestDance_mvl/mxv
 BYTE   W02
 BYTE   VOL   57*HarvestDance_mvl/mxv
 BYTE   W01
 BYTE   VOL   56*HarvestDance_mvl/mxv
 BYTE   W02
 BYTE   VOL   55*HarvestDance_mvl/mxv
 BYTE   W02
 BYTE   VOL   54*HarvestDance_mvl/mxv
 BYTE   W02
 BYTE   VOL   53*HarvestDance_mvl/mxv
 BYTE   W02
 BYTE   VOL   52*HarvestDance_mvl/mxv
 BYTE   W01
 BYTE   VOL   51*HarvestDance_mvl/mxv
 BYTE   W02
 BYTE   VOL   50*HarvestDance_mvl/mxv
 BYTE   W02
 BYTE   VOL   49*HarvestDance_mvl/mxv
 BYTE   W02
 BYTE   VOL   48*HarvestDance_mvl/mxv
 BYTE   W02
 BYTE   VOL   47*HarvestDance_mvl/mxv
 BYTE   W01
 BYTE   VOL   46*HarvestDance_mvl/mxv
 BYTE   W02
 BYTE   VOL   45*HarvestDance_mvl/mxv
 BYTE   W02
 BYTE   VOL   44*HarvestDance_mvl/mxv
 BYTE   W02
 BYTE   VOL   43*HarvestDance_mvl/mxv
 BYTE   W02
 BYTE   VOL   42*HarvestDance_mvl/mxv
 BYTE   W01
 BYTE   VOL   41*HarvestDance_mvl/mxv
 BYTE   W02
 BYTE   VOL   40*HarvestDance_mvl/mxv
 BYTE   W02
 BYTE   VOL   39*HarvestDance_mvl/mxv
 BYTE   W01
 BYTE   PEND 
 BYTE   EOT
 BYTE   Cs3  v073
 BYTE   W12
//  #02 //021   ----------------------------------------
Label_011C76AF:
 BYTE   VOL   70*HarvestDance_mvl/mxv
 BYTE   N09  Gs4  v127
 BYTE   W96
 BYTE   PEND 
//  #02 //022   ----------------------------------------
 BYTE   W96
//  #02 //023   ----------------------------------------
 BYTE   W96
//  #02 //024   ----------------------------------------
 BYTE   W96
//  #02 //025   ----------------------------------------
 BYTE   W96
//  #02 //026   ----------------------------------------
 BYTE   W96
//  #02 //027   ----------------------------------------
 BYTE   W96
//  #02 //028   ----------------------------------------
 BYTE   W96
//  #02 //029   ----------------------------------------
Label_011C76BD:
//  #02 //030   ----------------------------------------
 BYTE   PATT
  POIN2 Label_011C7564
//  #02 //031   ----------------------------------------
 BYTE   PATT
  POIN2 Label_011C756B
//  #02 //032   ----------------------------------------
 BYTE   N96  As3  v112
 BYTE   W96
//  #02 //033   ----------------------------------------
 BYTE   PATT
  POIN2 Label_011C7575
//  #02 //034   ----------------------------------------
 BYTE   PATT
  POIN2 Label_011C757C
//  #02 //035   ----------------------------------------
 BYTE   PATT
  POIN2 Label_011C758A
//  #02 //036   ----------------------------------------
 BYTE   PATT
  POIN2 Label_011C7598
//  #02 //037   ----------------------------------------
 BYTE   PATT
  POIN2 Label_011C75A5
//  #02 //038   ----------------------------------------
 BYTE   PATT
  POIN2 Label_011C75BA
//  #02 //039   ----------------------------------------
 BYTE   PATT
  POIN2 Label_011C75CB
//  #02 //040   ----------------------------------------
 BYTE   PATT
  POIN2 Label_011C75D7
//  #02 //041   ----------------------------------------
 BYTE   PATT
  POIN2 Label_011C75DF
//  #02 //042   ----------------------------------------
 BYTE   PATT
  POIN2 Label_011C75E8
//  #02 //043   ----------------------------------------
 BYTE   PATT
  POIN2 Label_011C7600
//  #02 //044   ----------------------------------------
 BYTE   PATT
  POIN2 Label_011C7612
//  #02 //045   ----------------------------------------
 BYTE   PATT
  POIN2 Label_011C764B
//  #02 //046   ----------------------------------------
 BYTE   EOT
 BYTE   Cs3  v073
 BYTE   W12
//  #02 //047   ----------------------------------------
 BYTE   PATT
  POIN2 Label_011C76AF
//  #02 //048   ----------------------------------------
 BYTE   W96
//  #02 //049   ----------------------------------------
 BYTE   W96
//  #02 //050   ----------------------------------------
 BYTE   W96
//  #02 //051   ----------------------------------------
 BYTE   W96
//  #02 //052   ----------------------------------------
 BYTE   W96
//  #02 //053   ----------------------------------------
 BYTE   W96
//  #02 //054   ----------------------------------------
 BYTE   W96
//  #02 //055   ----------------------------------------
 BYTE   PATT
  POIN2 Label_011C7564
//  #02 //056   ----------------------------------------
 BYTE   PATT
  POIN2 Label_011C756B
//  #02 //057   ----------------------------------------
 BYTE   N96  As3  v112
 BYTE   W96
//  #02 //058   ----------------------------------------
 BYTE   PATT
  POIN2 Label_011C7575
//  #02 //059   ----------------------------------------
 BYTE   PATT
  POIN2 Label_011C757C
//  #02 //060   ----------------------------------------
 BYTE   PATT
  POIN2 Label_011C758A
//  #02 //061   ----------------------------------------
 BYTE   PATT
  POIN2 Label_011C7598
//  #02 //062   ----------------------------------------
 BYTE   PATT
  POIN2 Label_011C75A5
//  #02 //063   ----------------------------------------
 BYTE   PATT
  POIN2 Label_011C75BA
//  #02 //064   ----------------------------------------
 BYTE   PATT
  POIN2 Label_011C75CB
//  #02 //065   ----------------------------------------
 BYTE   PATT
  POIN2 Label_011C75D7
//  #02 //066   ----------------------------------------
 BYTE   PATT
  POIN2 Label_011C75DF
//  #02 //067   ----------------------------------------
 BYTE   PATT
  POIN2 Label_011C75E8
//  #02 //068   ----------------------------------------
 BYTE   PATT
  POIN2 Label_011C7600
//  #02 //069   ----------------------------------------
 BYTE   PATT
  POIN2 Label_011C7612
//  #02 //070   ----------------------------------------
 BYTE   PATT
  POIN2 Label_011C764B
//  #02 //071   ----------------------------------------
 BYTE   EOT
 BYTE   Cs3  v073
 BYTE   W12
//  #02 //072   ----------------------------------------
 BYTE   PATT
  POIN2 Label_011C76AF
//  #02 //073   ----------------------------------------
 BYTE   W96
//  #02 //074   ----------------------------------------
 BYTE   W96
//  #02 //075   ----------------------------------------
 BYTE   W96
//  #02 //076   ----------------------------------------
 BYTE   W96
//  #02 //077   ----------------------------------------
 BYTE   W96
//  #02 //078   ----------------------------------------
 BYTE   W96
//  #02 //079   ----------------------------------------
 BYTE   W96
//  #02 //080   ----------------------------------------
 BYTE   GoTo
  POIN2 Label_011C76BD
//  #02 //081   ----------------------------------------
 BYTE   W06
 BYTE   FINE

//**************** Track 3 (Midi-Chn.2) ****************//

HarvestDance_003:
//  #03 //000   ----------------------------------------
 BYTE   KEYSH   HarvestDance_key+0
 BYTE   VOICE   48
 BYTE   W48
 BYTE   VOL   70*HarvestDance_mvl/mxv
 BYTE   W48
//  #03 //001   ----------------------------------------
Label_011C778C:
 BYTE   N06  Cn1  v127
 BYTE   N06  Cn2  v080
 BYTE   W24
 BYTE   Cn1  v127
 BYTE   N06  Cn2  v080
 BYTE   W24
 BYTE   Cn1  v127
 BYTE   N06  Cn2  v080
 BYTE   W24
 BYTE   Cn1  v127
 BYTE   N06  Cn2  v080
 BYTE   W24
 BYTE   PEND 
//  #03 //002   ----------------------------------------
 BYTE   PATT
  POIN2 Label_011C778C
//  #03 //003   ----------------------------------------
 BYTE   PATT
  POIN2 Label_011C778C
//  #03 //004   ----------------------------------------
 BYTE   N06  Fn1  v127
 BYTE   N06  Fn2  v096
 BYTE   W12
 BYTE   N24  Gn1  v127
 BYTE   N24  Gn2  v096
 BYTE   W24
 BYTE   Gs1  v127
 BYTE   N24  Gs2  v096
 BYTE   W24
 BYTE   N21  As1  v127
 BYTE   N21  As2  v096
 BYTE   W24
 BYTE   N12  As1  v127
 BYTE   N12  As2  v096
 BYTE   W12
//  #03 //005   ----------------------------------------
 BYTE   PATT
  POIN2 Label_011C778C
//  #03 //006   ----------------------------------------
 BYTE   PATT
  POIN2 Label_011C778C
//  #03 //007   ----------------------------------------
 BYTE   PATT
  POIN2 Label_011C778C
//  #03 //008   ----------------------------------------
 BYTE   PATT
  POIN2 Label_011C778C
//  #03 //009   ----------------------------------------
 BYTE   PATT
  POIN2 Label_011C778C
//  #03 //010   ----------------------------------------
 BYTE   PATT
  POIN2 Label_011C778C
//  #03 //011   ----------------------------------------
 BYTE   PATT
  POIN2 Label_011C778C
//  #03 //012   ----------------------------------------
 BYTE   PATT
  POIN2 Label_011C778C
//  #03 //013   ----------------------------------------
Label_011C77FA:
 BYTE   N06  Ds1  v127
 BYTE   N06  Ds2  v080
 BYTE   W24
 BYTE   Ds1  v127
 BYTE   N06  Ds2  v080
 BYTE   W24
 BYTE   Ds1  v127
 BYTE   N06  Ds2  v080
 BYTE   W24
 BYTE   Ds1  v127
 BYTE   N06  Ds2  v080
 BYTE   W24
 BYTE   PEND 
//  #03 //014   ----------------------------------------
 BYTE   PATT
  POIN2 Label_011C77FA
//  #03 //015   ----------------------------------------
 BYTE   PATT
  POIN2 Label_011C77FA
//  #03 //016   ----------------------------------------
 BYTE   PATT
  POIN2 Label_011C77FA
//  #03 //017   ----------------------------------------
Label_011C7823:
 BYTE   N06  Fs1  v127
 BYTE   N06  Fs2  v080
 BYTE   W24
 BYTE   Fs1  v127
 BYTE   N06  Fs2  v080
 BYTE   W24
 BYTE   Fs1  v127
 BYTE   N06  Fs2  v080
 BYTE   W24
 BYTE   Fs1  v127
 BYTE   N06  Fs2  v080
 BYTE   W24
 BYTE   PEND 
//  #03 //018   ----------------------------------------
 BYTE   PATT
  POIN2 Label_011C7823
//  #03 //019   ----------------------------------------
 BYTE   PATT
  POIN2 Label_011C7823
//  #03 //020   ----------------------------------------
 BYTE   PATT
  POIN2 Label_011C7823
//  #03 //021   ----------------------------------------
Label_011C784C:
 BYTE   N06  Gs1  v127
 BYTE   N06  Gs2  v080
 BYTE   W48
 BYTE   Gs1  v127
 BYTE   N06  Gs2  v080
 BYTE   W48
 BYTE   PEND 
//  #03 //022   ----------------------------------------
Label_011C785A:
 BYTE   N06  Gs1  v127
 BYTE   N06  Gs2  v080
 BYTE   W48
 BYTE   Gs1  v127
 BYTE   N06  Gs2  v080
 BYTE   W24
 BYTE   Gs1  v127
 BYTE   N06  Gs2  v080
 BYTE   W24
 BYTE   PEND 
//  #03 //023   ----------------------------------------
 BYTE   PATT
  POIN2 Label_011C784C
//  #03 //024   ----------------------------------------
 BYTE   PATT
  POIN2 Label_011C785A
//  #03 //025   ----------------------------------------
 BYTE   PATT
  POIN2 Label_011C784C
//  #03 //026   ----------------------------------------
 BYTE   PATT
  POIN2 Label_011C785A
//  #03 //027   ----------------------------------------
 BYTE   PATT
  POIN2 Label_011C784C
//  #03 //028   ----------------------------------------
 BYTE   PATT
  POIN2 Label_011C785A
//  #03 //029   ----------------------------------------
Label_011C788C:
//  #03 //030   ----------------------------------------
 BYTE   PATT
  POIN2 Label_011C778C
//  #03 //031   ----------------------------------------
 BYTE   PATT
  POIN2 Label_011C778C
//  #03 //032   ----------------------------------------
 BYTE   PATT
  POIN2 Label_011C778C
//  #03 //033   ----------------------------------------
 BYTE   PATT
  POIN2 Label_011C778C
//  #03 //034   ----------------------------------------
 BYTE   PATT
  POIN2 Label_011C778C
//  #03 //035   ----------------------------------------
 BYTE   PATT
  POIN2 Label_011C778C
//  #03 //036   ----------------------------------------
 BYTE   PATT
  POIN2 Label_011C778C
//  #03 //037   ----------------------------------------
 BYTE   PATT
  POIN2 Label_011C778C
//  #03 //038   ----------------------------------------
 BYTE   PATT
  POIN2 Label_011C77FA
//  #03 //039   ----------------------------------------
 BYTE   PATT
  POIN2 Label_011C77FA
//  #03 //040   ----------------------------------------
 BYTE   PATT
  POIN2 Label_011C77FA
//  #03 //041   ----------------------------------------
 BYTE   PATT
  POIN2 Label_011C77FA
//  #03 //042   ----------------------------------------
 BYTE   PATT
  POIN2 Label_011C7823
//  #03 //043   ----------------------------------------
 BYTE   PATT
  POIN2 Label_011C7823
//  #03 //044   ----------------------------------------
 BYTE   PATT
  POIN2 Label_011C7823
//  #03 //045   ----------------------------------------
 BYTE   PATT
  POIN2 Label_011C7823
//  #03 //046   ----------------------------------------
 BYTE   PATT
  POIN2 Label_011C784C
//  #03 //047   ----------------------------------------
 BYTE   PATT
  POIN2 Label_011C785A
//  #03 //048   ----------------------------------------
 BYTE   PATT
  POIN2 Label_011C784C
//  #03 //049   ----------------------------------------
 BYTE   PATT
  POIN2 Label_011C785A
//  #03 //050   ----------------------------------------
 BYTE   PATT
  POIN2 Label_011C784C
//  #03 //051   ----------------------------------------
 BYTE   PATT
  POIN2 Label_011C785A
//  #03 //052   ----------------------------------------
 BYTE   PATT
  POIN2 Label_011C784C
//  #03 //053   ----------------------------------------
 BYTE   PATT
  POIN2 Label_011C785A
//  #03 //054   ----------------------------------------
 BYTE   PATT
  POIN2 Label_011C778C
//  #03 //055   ----------------------------------------
 BYTE   PATT
  POIN2 Label_011C778C
//  #03 //056   ----------------------------------------
 BYTE   PATT
  POIN2 Label_011C778C
//  #03 //057   ----------------------------------------
 BYTE   PATT
  POIN2 Label_011C778C
//  #03 //058   ----------------------------------------
 BYTE   PATT
  POIN2 Label_011C778C
//  #03 //059   ----------------------------------------
 BYTE   PATT
  POIN2 Label_011C778C
//  #03 //060   ----------------------------------------
 BYTE   PATT
  POIN2 Label_011C778C
//  #03 //061   ----------------------------------------
 BYTE   PATT
  POIN2 Label_011C778C
//  #03 //062   ----------------------------------------
 BYTE   PATT
  POIN2 Label_011C77FA
//  #03 //063   ----------------------------------------
 BYTE   PATT
  POIN2 Label_011C77FA
//  #03 //064   ----------------------------------------
 BYTE   PATT
  POIN2 Label_011C77FA
//  #03 //065   ----------------------------------------
 BYTE   PATT
  POIN2 Label_011C77FA
//  #03 //066   ----------------------------------------
 BYTE   PATT
  POIN2 Label_011C7823
//  #03 //067   ----------------------------------------
 BYTE   PATT
  POIN2 Label_011C7823
//  #03 //068   ----------------------------------------
 BYTE   PATT
  POIN2 Label_011C7823
//  #03 //069   ----------------------------------------
 BYTE   PATT
  POIN2 Label_011C7823
//  #03 //070   ----------------------------------------
 BYTE   PATT
  POIN2 Label_011C784C
//  #03 //071   ----------------------------------------
 BYTE   PATT
  POIN2 Label_011C785A
//  #03 //072   ----------------------------------------
 BYTE   PATT
  POIN2 Label_011C784C
//  #03 //073   ----------------------------------------
 BYTE   PATT
  POIN2 Label_011C785A
//  #03 //074   ----------------------------------------
 BYTE   PATT
  POIN2 Label_011C784C
//  #03 //075   ----------------------------------------
 BYTE   PATT
  POIN2 Label_011C785A
//  #03 //076   ----------------------------------------
 BYTE   PATT
  POIN2 Label_011C784C
//  #03 //077   ----------------------------------------
 BYTE   PATT
  POIN2 Label_011C785A
//  #03 //078   ----------------------------------------
 BYTE   GoTo
  POIN2 Label_011C788C
//  #03 //079   ----------------------------------------
 BYTE   W06
 BYTE   FINE

//**************** Track 4 (Midi-Chn.3) ****************//

HarvestDance_004:
//  #04 //000   ----------------------------------------
 BYTE   KEYSH   HarvestDance_key+0
 BYTE   VOICE   47
 BYTE   W48
 BYTE   VOL   70*HarvestDance_mvl/mxv
 BYTE   W48
//  #04 //001   ----------------------------------------
 BYTE   W96
//  #04 //002   ----------------------------------------
Label_011C798D:
 BYTE   W72
 BYTE   N12  Cn2  v127
 BYTE   W12
 BYTE   Gn1
 BYTE   W12
 BYTE   PEND 
//  #04 //003   ----------------------------------------
 BYTE   W96
//  #04 //004   ----------------------------------------
 BYTE   PATT
  POIN2 Label_011C798D
//  #04 //005   ----------------------------------------
 BYTE   N12  Gn1  v127
 BYTE   W96
//  #04 //006   ----------------------------------------
 BYTE   PATT
  POIN2 Label_011C798D
//  #04 //007   ----------------------------------------
 BYTE   W96
//  #04 //008   ----------------------------------------
 BYTE   PATT
  POIN2 Label_011C798D
//  #04 //009   ----------------------------------------
 BYTE   W96
//  #04 //010   ----------------------------------------
 BYTE   PATT
  POIN2 Label_011C798D
//  #04 //011   ----------------------------------------
 BYTE   W96
//  #04 //012   ----------------------------------------
 BYTE   PATT
  POIN2 Label_011C798D
//  #04 //013   ----------------------------------------
 BYTE   W96
//  #04 //014   ----------------------------------------
Label_011C79B7:
 BYTE   W72
 BYTE   N12  Ds2  v127
 BYTE   W12
 BYTE   As1
 BYTE   W12
 BYTE   PEND 
//  #04 //015   ----------------------------------------
 BYTE   W96
//  #04 //016   ----------------------------------------
 BYTE   PATT
  POIN2 Label_011C79B7
//  #04 //017   ----------------------------------------
 BYTE   W96
//  #04 //018   ----------------------------------------
Label_011C79C6:
 BYTE   W72
 BYTE   N12  Fs2  v127
 BYTE   W12
 BYTE   Cs2
 BYTE   W12
 BYTE   PEND 
//  #04 //019   ----------------------------------------
 BYTE   W96
//  #04 //020   ----------------------------------------
 BYTE   PATT
  POIN2 Label_011C79C6
//  #04 //021   ----------------------------------------
 BYTE   N12  Gs1  v127
 BYTE   W96
//  #04 //022   ----------------------------------------
Label_011C79D8:
 BYTE   W48
 BYTE   N12  Gs1  v127
 BYTE   W24
 BYTE   N12
 BYTE   W12
 BYTE   Ds2
 BYTE   W12
 BYTE   PEND 
//  #04 //023   ----------------------------------------
 BYTE   Gs1
 BYTE   W96
//  #04 //024   ----------------------------------------
 BYTE   PATT
  POIN2 Label_011C79D8
//  #04 //025   ----------------------------------------
 BYTE   N12  Gs1  v127
 BYTE   W96
//  #04 //026   ----------------------------------------
 BYTE   PATT
  POIN2 Label_011C79D8
//  #04 //027   ----------------------------------------
 BYTE   N12  Gs1  v127
 BYTE   W96
//  #04 //028   ----------------------------------------
 BYTE   PATT
  POIN2 Label_011C79D8
//  #04 //029   ----------------------------------------
Label_011C79FB:
 BYTE   N12  Gn1  v127
 BYTE   W96
//  #04 //030   ----------------------------------------
 BYTE   PATT
  POIN2 Label_011C798D
//  #04 //031   ----------------------------------------
 BYTE   W96
//  #04 //032   ----------------------------------------
 BYTE   PATT
  POIN2 Label_011C798D
//  #04 //033   ----------------------------------------
 BYTE   W96
//  #04 //034   ----------------------------------------
 BYTE   PATT
  POIN2 Label_011C798D
//  #04 //035   ----------------------------------------
 BYTE   W96
//  #04 //036   ----------------------------------------
 BYTE   PATT
  POIN2 Label_011C798D
//  #04 //037   ----------------------------------------
 BYTE   W96
//  #04 //038   ----------------------------------------
 BYTE   PATT
  POIN2 Label_011C79B7
//  #04 //039   ----------------------------------------
 BYTE   W96
//  #04 //040   ----------------------------------------
 BYTE   PATT
  POIN2 Label_011C79B7
//  #04 //041   ----------------------------------------
 BYTE   W96
//  #04 //042   ----------------------------------------
 BYTE   PATT
  POIN2 Label_011C79C6
//  #04 //043   ----------------------------------------
 BYTE   W96
//  #04 //044   ----------------------------------------
 BYTE   PATT
  POIN2 Label_011C79C6
//  #04 //045   ----------------------------------------
 BYTE   N12  Gs1  v127
 BYTE   W96
//  #04 //046   ----------------------------------------
 BYTE   PATT
  POIN2 Label_011C79D8
//  #04 //047   ----------------------------------------
 BYTE   N12  Gs1  v127
 BYTE   W96
//  #04 //048   ----------------------------------------
 BYTE   PATT
  POIN2 Label_011C79D8
//  #04 //049   ----------------------------------------
 BYTE   N12  Gs1  v127
 BYTE   W96
//  #04 //050   ----------------------------------------
 BYTE   PATT
  POIN2 Label_011C79D8
//  #04 //051   ----------------------------------------
 BYTE   N12  Gs1  v127
 BYTE   W96
//  #04 //052   ----------------------------------------
 BYTE   PATT
  POIN2 Label_011C79D8
//  #04 //053   ----------------------------------------
 BYTE   N12  Gn1  v127
 BYTE   W96
//  #04 //054   ----------------------------------------
 BYTE   PATT
  POIN2 Label_011C798D
//  #04 //055   ----------------------------------------
 BYTE   W96
//  #04 //056   ----------------------------------------
 BYTE   PATT
  POIN2 Label_011C798D
//  #04 //057   ----------------------------------------
 BYTE   W96
//  #04 //058   ----------------------------------------
 BYTE   PATT
  POIN2 Label_011C798D
//  #04 //059   ----------------------------------------
 BYTE   W96
//  #04 //060   ----------------------------------------
 BYTE   PATT
  POIN2 Label_011C798D
//  #04 //061   ----------------------------------------
 BYTE   W96
//  #04 //062   ----------------------------------------
 BYTE   PATT
  POIN2 Label_011C79B7
//  #04 //063   ----------------------------------------
 BYTE   W96
//  #04 //064   ----------------------------------------
 BYTE   PATT
  POIN2 Label_011C79B7
//  #04 //065   ----------------------------------------
 BYTE   W96
//  #04 //066   ----------------------------------------
 BYTE   PATT
  POIN2 Label_011C79C6
//  #04 //067   ----------------------------------------
 BYTE   W96
//  #04 //068   ----------------------------------------
 BYTE   PATT
  POIN2 Label_011C79C6
//  #04 //069   ----------------------------------------
 BYTE   N12  Gs1  v127
 BYTE   W96
//  #04 //070   ----------------------------------------
 BYTE   PATT
  POIN2 Label_011C79D8
//  #04 //071   ----------------------------------------
 BYTE   N12  Gs1  v127
 BYTE   W96
//  #04 //072   ----------------------------------------
 BYTE   PATT
  POIN2 Label_011C79D8
//  #04 //073   ----------------------------------------
 BYTE   N12  Gs1  v127
 BYTE   W96
//  #04 //074   ----------------------------------------
 BYTE   PATT
  POIN2 Label_011C79D8
//  #04 //075   ----------------------------------------
 BYTE   N12  Gs1  v127
 BYTE   W96
//  #04 //076   ----------------------------------------
 BYTE   PATT
  POIN2 Label_011C79D8
//  #04 //077   ----------------------------------------
 BYTE   GoTo
  POIN2 Label_011C79FB
//  #04 //078   ----------------------------------------
 BYTE   W06
 BYTE   FINE

//**************** Track 5 (Midi-Chn.4) ****************//

HarvestDance_005:
//  #05 //000   ----------------------------------------
 BYTE   KEYSH   HarvestDance_key+0
 BYTE   VOICE   60
 BYTE   W48
 BYTE   VOL   70*HarvestDance_mvl/mxv
 BYTE   W48
//  #05 //001   ----------------------------------------
Label_011C7AB8:
 BYTE   N06  Cn3  v096
 BYTE   W36
 BYTE   N06
 BYTE   W24
 BYTE   N24  Ds3
 BYTE   W24
 BYTE   N06  Cn3
 BYTE   W12
 BYTE   PEND 
//  #05 //002   ----------------------------------------
Label_011C7AC5:
 BYTE   W12
 BYTE   N06  Ds3  v096
 BYTE   W24
 BYTE   N06
 BYTE   W12
 BYTE   N03  Fn3
 BYTE   W06
 BYTE   N03
 BYTE   W06
 BYTE   N03
 BYTE   W36
 BYTE   PEND 
//  #05 //003   ----------------------------------------
 BYTE   PATT
  POIN2 Label_011C7AB8
//  #05 //004   ----------------------------------------
 BYTE   N06  Gs3  v096
 BYTE   W12
 BYTE   N24  Gn3
 BYTE   W24
 BYTE   Ds3
 BYTE   W24
 BYTE   Dn3
 BYTE   W24
 BYTE   N12  As2
 BYTE   W12
//  #05 //005   ----------------------------------------
 BYTE   PATT
  POIN2 Label_011C7AB8
//  #05 //006   ----------------------------------------
 BYTE   PATT
  POIN2 Label_011C7AC5
//  #05 //007   ----------------------------------------
 BYTE   PATT
  POIN2 Label_011C7AB8
//  #05 //008   ----------------------------------------
 BYTE   PATT
  POIN2 Label_011C7AC5
//  #05 //009   ----------------------------------------
 BYTE   PATT
  POIN2 Label_011C7AB8
//  #05 //010   ----------------------------------------
 BYTE   PATT
  POIN2 Label_011C7AC5
//  #05 //011   ----------------------------------------
 BYTE   PATT
  POIN2 Label_011C7AB8
//  #05 //012   ----------------------------------------
 BYTE   PATT
  POIN2 Label_011C7AC5
//  #05 //013   ----------------------------------------
Label_011C7B0F:
 BYTE   N06  Ds3  v096
 BYTE   W36
 BYTE   N06
 BYTE   W24
 BYTE   N24  Fs3
 BYTE   W24
 BYTE   N06  Ds3
 BYTE   W12
 BYTE   PEND 
//  #05 //014   ----------------------------------------
Label_011C7B1C:
 BYTE   W12
 BYTE   N06  Fs3  v096
 BYTE   W24
 BYTE   N06
 BYTE   W12
 BYTE   N03  Gs3
 BYTE   W06
 BYTE   N03
 BYTE   W06
 BYTE   N03
 BYTE   W36
 BYTE   PEND 
//  #05 //015   ----------------------------------------
 BYTE   PATT
  POIN2 Label_011C7B0F
//  #05 //016   ----------------------------------------
 BYTE   PATT
  POIN2 Label_011C7B1C
//  #05 //017   ----------------------------------------
Label_011C7B35:
 BYTE   N06  Fs3  v096
 BYTE   W36
 BYTE   N06
 BYTE   W24
 BYTE   N24  An3
 BYTE   W24
 BYTE   N06  Fs3
 BYTE   W12
 BYTE   PEND 
//  #05 //018   ----------------------------------------
Label_011C7B42:
 BYTE   W12
 BYTE   N06  An3  v096
 BYTE   W24
 BYTE   N06
 BYTE   W12
 BYTE   N03  Bn3
 BYTE   W06
 BYTE   N03
 BYTE   W06
 BYTE   N03
 BYTE   W36
 BYTE   PEND 
//  #05 //019   ----------------------------------------
 BYTE   PATT
  POIN2 Label_011C7B35
//  #05 //020   ----------------------------------------
 BYTE   PATT
  POIN2 Label_011C7B42
//  #05 //021   ----------------------------------------
Label_011C7B5B:
 BYTE   W24
 BYTE   N06  Ds3  v096
 BYTE   W24
 BYTE   N12  Bn3
 BYTE   W12
 BYTE   N06
 BYTE   W24
 BYTE   N06
 BYTE   W12
 BYTE   PEND 
//  #05 //022   ----------------------------------------
Label_011C7B68:
 BYTE   N12  Bn3  v096
 BYTE   W12
 BYTE   N06
 BYTE   W24
 BYTE   N06
 BYTE   W12
 BYTE   N12  An3
 BYTE   W12
 BYTE   N06
 BYTE   W24
 BYTE   N06
 BYTE   W12
 BYTE   PEND 
//  #05 //023   ----------------------------------------
 BYTE   PATT
  POIN2 Label_011C7B5B
//  #05 //024   ----------------------------------------
 BYTE   PATT
  POIN2 Label_011C7B68
//  #05 //025   ----------------------------------------
 BYTE   PATT
  POIN2 Label_011C7B5B
//  #05 //026   ----------------------------------------
 BYTE   PATT
  POIN2 Label_011C7B68
//  #05 //027   ----------------------------------------
 BYTE   PATT
  POIN2 Label_011C7B5B
//  #05 //028   ----------------------------------------
 BYTE   PATT
  POIN2 Label_011C7B68
//  #05 //029   ----------------------------------------
Label_011C7B96:
//  #05 //030   ----------------------------------------
 BYTE   PATT
  POIN2 Label_011C7AB8
//  #05 //031   ----------------------------------------
 BYTE   PATT
  POIN2 Label_011C7AC5
//  #05 //032   ----------------------------------------
 BYTE   PATT
  POIN2 Label_011C7AB8
//  #05 //033   ----------------------------------------
 BYTE   PATT
  POIN2 Label_011C7AC5
//  #05 //034   ----------------------------------------
 BYTE   PATT
  POIN2 Label_011C7AB8
//  #05 //035   ----------------------------------------
 BYTE   PATT
  POIN2 Label_011C7AC5
//  #05 //036   ----------------------------------------
 BYTE   PATT
  POIN2 Label_011C7AB8
//  #05 //037   ----------------------------------------
 BYTE   PATT
  POIN2 Label_011C7AC5
//  #05 //038   ----------------------------------------
 BYTE   PATT
  POIN2 Label_011C7B0F
//  #05 //039   ----------------------------------------
 BYTE   PATT
  POIN2 Label_011C7B1C
//  #05 //040   ----------------------------------------
 BYTE   PATT
  POIN2 Label_011C7B0F
//  #05 //041   ----------------------------------------
 BYTE   PATT
  POIN2 Label_011C7B1C
//  #05 //042   ----------------------------------------
 BYTE   PATT
  POIN2 Label_011C7B35
//  #05 //043   ----------------------------------------
 BYTE   PATT
  POIN2 Label_011C7B42
//  #05 //044   ----------------------------------------
 BYTE   PATT
  POIN2 Label_011C7B35
//  #05 //045   ----------------------------------------
 BYTE   PATT
  POIN2 Label_011C7B42
//  #05 //046   ----------------------------------------
 BYTE   PATT
  POIN2 Label_011C7B5B
//  #05 //047   ----------------------------------------
 BYTE   PATT
  POIN2 Label_011C7B68
//  #05 //048   ----------------------------------------
 BYTE   PATT
  POIN2 Label_011C7B5B
//  #05 //049   ----------------------------------------
 BYTE   PATT
  POIN2 Label_011C7B68
//  #05 //050   ----------------------------------------
 BYTE   PATT
  POIN2 Label_011C7B5B
//  #05 //051   ----------------------------------------
 BYTE   PATT
  POIN2 Label_011C7B68
//  #05 //052   ----------------------------------------
 BYTE   PATT
  POIN2 Label_011C7B5B
//  #05 //053   ----------------------------------------
 BYTE   PATT
  POIN2 Label_011C7B68
//  #05 //054   ----------------------------------------
 BYTE   PATT
  POIN2 Label_011C7AB8
//  #05 //055   ----------------------------------------
 BYTE   PATT
  POIN2 Label_011C7AC5
//  #05 //056   ----------------------------------------
 BYTE   PATT
  POIN2 Label_011C7AB8
//  #05 //057   ----------------------------------------
 BYTE   PATT
  POIN2 Label_011C7AC5
//  #05 //058   ----------------------------------------
 BYTE   PATT
  POIN2 Label_011C7AB8
//  #05 //059   ----------------------------------------
 BYTE   PATT
  POIN2 Label_011C7AC5
//  #05 //060   ----------------------------------------
 BYTE   PATT
  POIN2 Label_011C7AB8
//  #05 //061   ----------------------------------------
 BYTE   PATT
  POIN2 Label_011C7AC5
//  #05 //062   ----------------------------------------
 BYTE   PATT
  POIN2 Label_011C7B0F
//  #05 //063   ----------------------------------------
 BYTE   PATT
  POIN2 Label_011C7B1C
//  #05 //064   ----------------------------------------
 BYTE   PATT
  POIN2 Label_011C7B0F
//  #05 //065   ----------------------------------------
 BYTE   PATT
  POIN2 Label_011C7B1C
//  #05 //066   ----------------------------------------
 BYTE   PATT
  POIN2 Label_011C7B35
//  #05 //067   ----------------------------------------
 BYTE   PATT
  POIN2 Label_011C7B42
//  #05 //068   ----------------------------------------
 BYTE   PATT
  POIN2 Label_011C7B35
//  #05 //069   ----------------------------------------
 BYTE   PATT
  POIN2 Label_011C7B42
//  #05 //070   ----------------------------------------
 BYTE   PATT
  POIN2 Label_011C7B5B
//  #05 //071   ----------------------------------------
 BYTE   PATT
  POIN2 Label_011C7B68
//  #05 //072   ----------------------------------------
 BYTE   PATT
  POIN2 Label_011C7B5B
//  #05 //073   ----------------------------------------
 BYTE   PATT
  POIN2 Label_011C7B68
//  #05 //074   ----------------------------------------
 BYTE   PATT
  POIN2 Label_011C7B5B
//  #05 //075   ----------------------------------------
 BYTE   PATT
  POIN2 Label_011C7B68
//  #05 //076   ----------------------------------------
 BYTE   PATT
  POIN2 Label_011C7B5B
//  #05 //077   ----------------------------------------
 BYTE   PATT
  POIN2 Label_011C7B68
//  #05 //078   ----------------------------------------
 BYTE   GoTo
  POIN2 Label_011C7B96
//  #05 //079   ----------------------------------------
 BYTE   W06
 BYTE   FINE

//**************** Track 6 (Midi-Chn.5) ****************//

HarvestDance_006:
//  #06 //000   ----------------------------------------
 BYTE   KEYSH   HarvestDance_key+0
 BYTE   VOICE   57
 BYTE   W48
 BYTE   VOL   70*HarvestDance_mvl/mxv
 BYTE   W48
//  #06 //001   ----------------------------------------
 BYTE   W96
//  #06 //002   ----------------------------------------
 BYTE   W96
//  #06 //003   ----------------------------------------
 BYTE   W96
//  #06 //004   ----------------------------------------
 BYTE   W96
//  #06 //005   ----------------------------------------
 BYTE   W96
//  #06 //006   ----------------------------------------
 BYTE   W96
//  #06 //007   ----------------------------------------
 BYTE   W96
//  #06 //008   ----------------------------------------
 BYTE   W96
//  #06 //009   ----------------------------------------
 BYTE   W96
//  #06 //010   ----------------------------------------
 BYTE   W96
//  #06 //011   ----------------------------------------
 BYTE   W96
//  #06 //012   ----------------------------------------
 BYTE   W96
//  #06 //013   ----------------------------------------
 BYTE   W96
//  #06 //014   ----------------------------------------
 BYTE   W96
//  #06 //015   ----------------------------------------
 BYTE   W96
//  #06 //016   ----------------------------------------
 BYTE   W96
//  #06 //017   ----------------------------------------
 BYTE   W96
//  #06 //018   ----------------------------------------
 BYTE   W96
//  #06 //019   ----------------------------------------
 BYTE   W96
//  #06 //020   ----------------------------------------
 BYTE   W96
//  #06 //021   ----------------------------------------
Label_011C7CAC:
 BYTE   W24
 BYTE   N06  Fs2  v112
 BYTE   W24
 BYTE   N12
 BYTE   W12
 BYTE   N06
 BYTE   W24
 BYTE   N06
 BYTE   W12
 BYTE   PEND 
//  #06 //022   ----------------------------------------
Label_011C7CB8:
 BYTE   N12  Fs2  v112
 BYTE   W12
 BYTE   N06
 BYTE   W24
 BYTE   N06
 BYTE   W12
 BYTE   N12  En2
 BYTE   W12
 BYTE   N06
 BYTE   W24
 BYTE   N06
 BYTE   W12
 BYTE   PEND 
//  #06 //023   ----------------------------------------
 BYTE   PATT
  POIN2 Label_011C7CAC
//  #06 //024   ----------------------------------------
 BYTE   PATT
  POIN2 Label_011C7CB8
//  #06 //025   ----------------------------------------
 BYTE   PATT
  POIN2 Label_011C7CAC
//  #06 //026   ----------------------------------------
 BYTE   PATT
  POIN2 Label_011C7CB8
//  #06 //027   ----------------------------------------
 BYTE   PATT
  POIN2 Label_011C7CAC
//  #06 //028   ----------------------------------------
 BYTE   PATT
  POIN2 Label_011C7CB8
//  #06 //029   ----------------------------------------
Label_011C7CE6:
 BYTE   W96
//  #06 //030   ----------------------------------------
 BYTE   W96
//  #06 //031   ----------------------------------------
 BYTE   W96
//  #06 //032   ----------------------------------------
 BYTE   W96
//  #06 //033   ----------------------------------------
 BYTE   W96
//  #06 //034   ----------------------------------------
 BYTE   W96
//  #06 //035   ----------------------------------------
 BYTE   W96
//  #06 //036   ----------------------------------------
 BYTE   W96
//  #06 //037   ----------------------------------------
 BYTE   W96
//  #06 //038   ----------------------------------------
 BYTE   W96
//  #06 //039   ----------------------------------------
 BYTE   W96
//  #06 //040   ----------------------------------------
 BYTE   W96
//  #06 //041   ----------------------------------------
 BYTE   W96
//  #06 //042   ----------------------------------------
 BYTE   W96
//  #06 //043   ----------------------------------------
 BYTE   W96
//  #06 //044   ----------------------------------------
 BYTE   W96
//  #06 //045   ----------------------------------------
 BYTE   PATT
  POIN2 Label_011C7CAC
//  #06 //046   ----------------------------------------
 BYTE   PATT
  POIN2 Label_011C7CB8
//  #06 //047   ----------------------------------------
 BYTE   PATT
  POIN2 Label_011C7CAC
//  #06 //048   ----------------------------------------
 BYTE   PATT
  POIN2 Label_011C7CB8
//  #06 //049   ----------------------------------------
 BYTE   PATT
  POIN2 Label_011C7CAC
//  #06 //050   ----------------------------------------
 BYTE   PATT
  POIN2 Label_011C7CB8
//  #06 //051   ----------------------------------------
 BYTE   PATT
  POIN2 Label_011C7CAC
//  #06 //052   ----------------------------------------
 BYTE   PATT
  POIN2 Label_011C7CB8
//  #06 //053   ----------------------------------------
 BYTE   W96
//  #06 //054   ----------------------------------------
 BYTE   W96
//  #06 //055   ----------------------------------------
 BYTE   W96
//  #06 //056   ----------------------------------------
 BYTE   W96
//  #06 //057   ----------------------------------------
 BYTE   W96
//  #06 //058   ----------------------------------------
 BYTE   W96
//  #06 //059   ----------------------------------------
 BYTE   W96
//  #06 //060   ----------------------------------------
 BYTE   W96
//  #06 //061   ----------------------------------------
 BYTE   W96
//  #06 //062   ----------------------------------------
 BYTE   W96
//  #06 //063   ----------------------------------------
 BYTE   W96
//  #06 //064   ----------------------------------------
 BYTE   W96
//  #06 //065   ----------------------------------------
 BYTE   W96
//  #06 //066   ----------------------------------------
 BYTE   W96
//  #06 //067   ----------------------------------------
 BYTE   W96
//  #06 //068   ----------------------------------------
 BYTE   W96
//  #06 //069   ----------------------------------------
 BYTE   PATT
  POIN2 Label_011C7CAC
//  #06 //070   ----------------------------------------
 BYTE   PATT
  POIN2 Label_011C7CB8
//  #06 //071   ----------------------------------------
 BYTE   PATT
  POIN2 Label_011C7CAC
//  #06 //072   ----------------------------------------
 BYTE   PATT
  POIN2 Label_011C7CB8
//  #06 //073   ----------------------------------------
 BYTE   PATT
  POIN2 Label_011C7CAC
//  #06 //074   ----------------------------------------
 BYTE   PATT
  POIN2 Label_011C7CB8
//  #06 //075   ----------------------------------------
 BYTE   PATT
  POIN2 Label_011C7CAC
//  #06 //076   ----------------------------------------
 BYTE   PATT
  POIN2 Label_011C7CB8
//  #06 //077   ----------------------------------------
 BYTE   GoTo
  POIN2 Label_011C7CE6
//  #06 //078   ----------------------------------------
 BYTE   W06
 BYTE   FINE

//**************** Track 7 (Midi-Chn.6) ****************//

HarvestDance_007:
//  #07 //000   ----------------------------------------
 BYTE   KEYSH   HarvestDance_key+0
 BYTE   VOICE   56
 BYTE   W48
 BYTE   VOL   70*HarvestDance_mvl/mxv
 BYTE   W48
//  #07 //001   ----------------------------------------
Label_011C7D68:
 BYTE   W12
 BYTE   N06  Gn2  v048
 BYTE   W36
 BYTE   N06
 BYTE   W24
 BYTE   N24  As2
 BYTE   W24
 BYTE   PEND 
//  #07 //002   ----------------------------------------
Label_011C7D73:
 BYTE   N06  Gn2  v048
 BYTE   W24
 BYTE   As2
 BYTE   W24
 BYTE   N06
 BYTE   W12
 BYTE   N03  Cn3
 BYTE   W06
 BYTE   N03
 BYTE   W06
 BYTE   N03
 BYTE   W24
 BYTE   PEND 
//  #07 //003   ----------------------------------------
 BYTE   PATT
  POIN2 Label_011C7D68
//  #07 //004   ----------------------------------------
 BYTE   N06  Gn2  v048
 BYTE   W12
 BYTE   Ds3
 BYTE   W12
 BYTE   N24  Dn3
 BYTE   W24
 BYTE   As2
 BYTE   W24
 BYTE   An2
 BYTE   W24
//  #07 //005   ----------------------------------------
Label_011C7D95:
 BYTE   N12  Fn2  v048
 BYTE   W12
 BYTE   N06  Gn2
 BYTE   W36
 BYTE   N06
 BYTE   W24
 BYTE   N24  As2
 BYTE   W24
 BYTE   PEND 
//  #07 //006   ----------------------------------------
 BYTE   PATT
  POIN2 Label_011C7D73
//  #07 //007   ----------------------------------------
 BYTE   PATT
  POIN2 Label_011C7D68
//  #07 //008   ----------------------------------------
 BYTE   PATT
  POIN2 Label_011C7D73
//  #07 //009   ----------------------------------------
 BYTE   PATT
  POIN2 Label_011C7D68
//  #07 //010   ----------------------------------------
 BYTE   PATT
  POIN2 Label_011C7D73
//  #07 //011   ----------------------------------------
 BYTE   PATT
  POIN2 Label_011C7D68
//  #07 //012   ----------------------------------------
 BYTE   PATT
  POIN2 Label_011C7D73
//  #07 //013   ----------------------------------------
Label_011C7DC5:
 BYTE   W12
 BYTE   N06  As2  v048
 BYTE   W36
 BYTE   N06
 BYTE   W24
 BYTE   N24  Cs3
 BYTE   W24
 BYTE   PEND 
//  #07 //014   ----------------------------------------
Label_011C7DD0:
 BYTE   N06  As2  v048
 BYTE   W24
 BYTE   Cs3
 BYTE   W24
 BYTE   N06
 BYTE   W12
 BYTE   N03  Ds3
 BYTE   W06
 BYTE   N03
 BYTE   W06
 BYTE   N03
 BYTE   W24
 BYTE   PEND 
//  #07 //015   ----------------------------------------
 BYTE   PATT
  POIN2 Label_011C7DC5
//  #07 //016   ----------------------------------------
 BYTE   PATT
  POIN2 Label_011C7DD0
//  #07 //017   ----------------------------------------
Label_011C7DEA:
 BYTE   W12
 BYTE   N06  Cs3  v048
 BYTE   W36
 BYTE   N06
 BYTE   W24
 BYTE   N24  En3
 BYTE   W24
 BYTE   PEND 
//  #07 //018   ----------------------------------------
Label_011C7DF5:
 BYTE   N06  Cs3  v048
 BYTE   W24
 BYTE   En3
 BYTE   W24
 BYTE   N06
 BYTE   W12
 BYTE   N03  Fs3
 BYTE   W06
 BYTE   N03
 BYTE   W06
 BYTE   N03
 BYTE   W24
 BYTE   PEND 
//  #07 //019   ----------------------------------------
 BYTE   PATT
  POIN2 Label_011C7DEA
//  #07 //020   ----------------------------------------
 BYTE   PATT
  POIN2 Label_011C7DF5
//  #07 //021   ----------------------------------------
Label_011C7E0F:
 BYTE   W36
 BYTE   N06  Gs3  v048
 BYTE   W24
 BYTE   N12  Ds4
 BYTE   W12
 BYTE   N06  En4
 BYTE   W24
 BYTE   PEND 
//  #07 //022   ----------------------------------------
Label_011C7E1B:
 BYTE   N06  En4  v048
 BYTE   W12
 BYTE   N12  Cs4
 BYTE   W12
 BYTE   N06  Ds4
 BYTE   W24
 BYTE   N06
 BYTE   W12
 BYTE   N12  Cs4
 BYTE   W12
 BYTE   N06  Ds4
 BYTE   W24
 BYTE   PEND 
//  #07 //023   ----------------------------------------
Label_011C7E2E:
 BYTE   N06  Ds4  v048
 BYTE   W36
 BYTE   Gs3
 BYTE   W24
 BYTE   N12  Ds4
 BYTE   W12
 BYTE   N06  En4
 BYTE   W24
 BYTE   PEND 
//  #07 //024   ----------------------------------------
 BYTE   PATT
  POIN2 Label_011C7E1B
//  #07 //025   ----------------------------------------
 BYTE   PATT
  POIN2 Label_011C7E2E
//  #07 //026   ----------------------------------------
 BYTE   PATT
  POIN2 Label_011C7E1B
//  #07 //027   ----------------------------------------
 BYTE   PATT
  POIN2 Label_011C7E2E
//  #07 //028   ----------------------------------------
 BYTE   PATT
  POIN2 Label_011C7E1B
//  #07 //029   ----------------------------------------
Label_011C7E54:
//  #07 //030   ----------------------------------------
 BYTE   PATT
  POIN2 Label_011C7D95
//  #07 //031   ----------------------------------------
 BYTE   PATT
  POIN2 Label_011C7D73
//  #07 //032   ----------------------------------------
 BYTE   PATT
  POIN2 Label_011C7D68
//  #07 //033   ----------------------------------------
 BYTE   PATT
  POIN2 Label_011C7D73
//  #07 //034   ----------------------------------------
 BYTE   PATT
  POIN2 Label_011C7D68
//  #07 //035   ----------------------------------------
 BYTE   PATT
  POIN2 Label_011C7D73
//  #07 //036   ----------------------------------------
 BYTE   PATT
  POIN2 Label_011C7D68
//  #07 //037   ----------------------------------------
 BYTE   PATT
  POIN2 Label_011C7D73
//  #07 //038   ----------------------------------------
 BYTE   PATT
  POIN2 Label_011C7DC5
//  #07 //039   ----------------------------------------
 BYTE   PATT
  POIN2 Label_011C7DD0
//  #07 //040   ----------------------------------------
 BYTE   PATT
  POIN2 Label_011C7DC5
//  #07 //041   ----------------------------------------
 BYTE   PATT
  POIN2 Label_011C7DD0
//  #07 //042   ----------------------------------------
 BYTE   PATT
  POIN2 Label_011C7DEA
//  #07 //043   ----------------------------------------
 BYTE   PATT
  POIN2 Label_011C7DF5
//  #07 //044   ----------------------------------------
 BYTE   PATT
  POIN2 Label_011C7DEA
//  #07 //045   ----------------------------------------
 BYTE   PATT
  POIN2 Label_011C7DF5
//  #07 //046   ----------------------------------------
 BYTE   PATT
  POIN2 Label_011C7E0F
//  #07 //047   ----------------------------------------
 BYTE   PATT
  POIN2 Label_011C7E1B
//  #07 //048   ----------------------------------------
 BYTE   PATT
  POIN2 Label_011C7E2E
//  #07 //049   ----------------------------------------
 BYTE   PATT
  POIN2 Label_011C7E1B
//  #07 //050   ----------------------------------------
 BYTE   PATT
  POIN2 Label_011C7E2E
//  #07 //051   ----------------------------------------
 BYTE   PATT
  POIN2 Label_011C7E1B
//  #07 //052   ----------------------------------------
 BYTE   PATT
  POIN2 Label_011C7E2E
//  #07 //053   ----------------------------------------
 BYTE   PATT
  POIN2 Label_011C7E1B
//  #07 //054   ----------------------------------------
 BYTE   PATT
  POIN2 Label_011C7D95
//  #07 //055   ----------------------------------------
 BYTE   PATT
  POIN2 Label_011C7D73
//  #07 //056   ----------------------------------------
 BYTE   PATT
  POIN2 Label_011C7D68
//  #07 //057   ----------------------------------------
 BYTE   PATT
  POIN2 Label_011C7D73
//  #07 //058   ----------------------------------------
 BYTE   PATT
  POIN2 Label_011C7D68
//  #07 //059   ----------------------------------------
 BYTE   PATT
  POIN2 Label_011C7D73
//  #07 //060   ----------------------------------------
 BYTE   PATT
  POIN2 Label_011C7D68
//  #07 //061   ----------------------------------------
 BYTE   PATT
  POIN2 Label_011C7D73
//  #07 //062   ----------------------------------------
 BYTE   PATT
  POIN2 Label_011C7DC5
//  #07 //063   ----------------------------------------
 BYTE   PATT
  POIN2 Label_011C7DD0
//  #07 //064   ----------------------------------------
 BYTE   PATT
  POIN2 Label_011C7DC5
//  #07 //065   ----------------------------------------
 BYTE   PATT
  POIN2 Label_011C7DD0
//  #07 //066   ----------------------------------------
 BYTE   PATT
  POIN2 Label_011C7DEA
//  #07 //067   ----------------------------------------
 BYTE   PATT
  POIN2 Label_011C7DF5
//  #07 //068   ----------------------------------------
 BYTE   PATT
  POIN2 Label_011C7DEA
//  #07 //069   ----------------------------------------
 BYTE   PATT
  POIN2 Label_011C7DF5
//  #07 //070   ----------------------------------------
 BYTE   PATT
  POIN2 Label_011C7E0F
//  #07 //071   ----------------------------------------
 BYTE   PATT
  POIN2 Label_011C7E1B
//  #07 //072   ----------------------------------------
 BYTE   PATT
  POIN2 Label_011C7E2E
//  #07 //073   ----------------------------------------
 BYTE   PATT
  POIN2 Label_011C7E1B
//  #07 //074   ----------------------------------------
 BYTE   PATT
  POIN2 Label_011C7E2E
//  #07 //075   ----------------------------------------
 BYTE   PATT
  POIN2 Label_011C7E1B
//  #07 //076   ----------------------------------------
 BYTE   PATT
  POIN2 Label_011C7E2E
//  #07 //077   ----------------------------------------
 BYTE   PATT
  POIN2 Label_011C7E1B
//  #07 //078   ----------------------------------------
 BYTE   GoTo
  POIN2 Label_011C7E54
//  #07 //079   ----------------------------------------
 BYTE   N06  Ds4  v048
 BYTE   W06
 BYTE   FINE

//**************** Track 8 (Midi-Chn.7) ****************//

HarvestDance_008:
//  #08 //000   ----------------------------------------
 BYTE   KEYSH   HarvestDance_key+0
 BYTE   VOICE   60
 BYTE   W48
 BYTE   VOL   70*HarvestDance_mvl/mxv
 BYTE   W48
//  #08 //001   ----------------------------------------
Label_011C7F58:
 BYTE   W12
 BYTE   N06  Cn3  v048
 BYTE   W36
 BYTE   N06
 BYTE   W24
 BYTE   N24  Ds3
 BYTE   W24
 BYTE   PEND 
//  #08 //002   ----------------------------------------
Label_011C7F63:
 BYTE   N06  Cn3  v048
 BYTE   W24
 BYTE   Ds3
 BYTE   W24
 BYTE   N06
 BYTE   W12
 BYTE   N03  Fn3
 BYTE   W06
 BYTE   N03
 BYTE   W06
 BYTE   N03
 BYTE   W24
 BYTE   PEND 
//  #08 //003   ----------------------------------------
 BYTE   PATT
  POIN2 Label_011C7F58
//  #08 //004   ----------------------------------------
 BYTE   N06  Cn3  v048
 BYTE   W12
 BYTE   Gs3
 BYTE   W12
 BYTE   N24  Gn3
 BYTE   W24
 BYTE   Ds3
 BYTE   W24
 BYTE   Dn3
 BYTE   W24
//  #08 //005   ----------------------------------------
Label_011C7F85:
 BYTE   N12  As2  v048
 BYTE   W12
 BYTE   N06  Cn3
 BYTE   W36
 BYTE   N06
 BYTE   W24
 BYTE   N24  Ds3
 BYTE   W24
 BYTE   PEND 
//  #08 //006   ----------------------------------------
 BYTE   PATT
  POIN2 Label_011C7F63
//  #08 //007   ----------------------------------------
 BYTE   PATT
  POIN2 Label_011C7F58
//  #08 //008   ----------------------------------------
 BYTE   PATT
  POIN2 Label_011C7F63
//  #08 //009   ----------------------------------------
 BYTE   PATT
  POIN2 Label_011C7F58
//  #08 //010   ----------------------------------------
 BYTE   PATT
  POIN2 Label_011C7F63
//  #08 //011   ----------------------------------------
 BYTE   PATT
  POIN2 Label_011C7F58
//  #08 //012   ----------------------------------------
 BYTE   PATT
  POIN2 Label_011C7F63
//  #08 //013   ----------------------------------------
Label_011C7FB5:
 BYTE   W12
 BYTE   N06  Ds3  v048
 BYTE   W36
 BYTE   N06
 BYTE   W24
 BYTE   N24  Fs3
 BYTE   W24
 BYTE   PEND 
//  #08 //014   ----------------------------------------
Label_011C7FC0:
 BYTE   N06  Ds3  v048
 BYTE   W24
 BYTE   Fs3
 BYTE   W24
 BYTE   N06
 BYTE   W12
 BYTE   N03  Gs3
 BYTE   W06
 BYTE   N03
 BYTE   W06
 BYTE   N03
 BYTE   W24
 BYTE   PEND 
//  #08 //015   ----------------------------------------
 BYTE   PATT
  POIN2 Label_011C7FB5
//  #08 //016   ----------------------------------------
 BYTE   PATT
  POIN2 Label_011C7FC0
//  #08 //017   ----------------------------------------
Label_011C7FDA:
 BYTE   W12
 BYTE   N06  Fs3  v048
 BYTE   W36
 BYTE   N06
 BYTE   W24
 BYTE   N24  An3
 BYTE   W24
 BYTE   PEND 
//  #08 //018   ----------------------------------------
Label_011C7FE5:
 BYTE   N06  Fs3  v048
 BYTE   W24
 BYTE   An3
 BYTE   W24
 BYTE   N06
 BYTE   W12
 BYTE   N03  Bn3
 BYTE   W06
 BYTE   N03
 BYTE   W06
 BYTE   N03
 BYTE   W24
 BYTE   PEND 
//  #08 //019   ----------------------------------------
 BYTE   PATT
  POIN2 Label_011C7FDA
//  #08 //020   ----------------------------------------
 BYTE   PATT
  POIN2 Label_011C7FE5
//  #08 //021   ----------------------------------------
Label_011C7FFF:
 BYTE   W36
 BYTE   N06  Ds3  v048
 BYTE   W24
 BYTE   N12  Bn3
 BYTE   W12
 BYTE   N06
 BYTE   W24
 BYTE   PEND 
//  #08 //022   ----------------------------------------
Label_011C800A:
 BYTE   N06  Bn3  v048
 BYTE   W12
 BYTE   N12
 BYTE   W12
 BYTE   N06
 BYTE   W24
 BYTE   N06
 BYTE   W12
 BYTE   N12  An3
 BYTE   W12
 BYTE   N06
 BYTE   W24
 BYTE   PEND 
//  #08 //023   ----------------------------------------
Label_011C801A:
 BYTE   N06  An3  v048
 BYTE   W36
 BYTE   Ds3
 BYTE   W24
 BYTE   N12  Bn3
 BYTE   W12
 BYTE   N06
 BYTE   W24
 BYTE   PEND 
//  #08 //024   ----------------------------------------
 BYTE   PATT
  POIN2 Label_011C800A
//  #08 //025   ----------------------------------------
 BYTE   PATT
  POIN2 Label_011C801A
//  #08 //026   ----------------------------------------
 BYTE   PATT
  POIN2 Label_011C800A
//  #08 //027   ----------------------------------------
 BYTE   PATT
  POIN2 Label_011C801A
//  #08 //028   ----------------------------------------
 BYTE   PATT
  POIN2 Label_011C800A
//  #08 //029   ----------------------------------------
Label_011C803F:
//  #08 //030   ----------------------------------------
 BYTE   PATT
  POIN2 Label_011C7F85
//  #08 //031   ----------------------------------------
 BYTE   PATT
  POIN2 Label_011C7F63
//  #08 //032   ----------------------------------------
 BYTE   PATT
  POIN2 Label_011C7F58
//  #08 //033   ----------------------------------------
 BYTE   PATT
  POIN2 Label_011C7F63
//  #08 //034   ----------------------------------------
 BYTE   PATT
  POIN2 Label_011C7F58
//  #08 //035   ----------------------------------------
 BYTE   PATT
  POIN2 Label_011C7F63
//  #08 //036   ----------------------------------------
 BYTE   PATT
  POIN2 Label_011C7F58
//  #08 //037   ----------------------------------------
 BYTE   PATT
  POIN2 Label_011C7F63
//  #08 //038   ----------------------------------------
 BYTE   PATT
  POIN2 Label_011C7FB5
//  #08 //039   ----------------------------------------
 BYTE   PATT
  POIN2 Label_011C7FC0
//  #08 //040   ----------------------------------------
 BYTE   PATT
  POIN2 Label_011C7FB5
//  #08 //041   ----------------------------------------
 BYTE   PATT
  POIN2 Label_011C7FC0
//  #08 //042   ----------------------------------------
 BYTE   PATT
  POIN2 Label_011C7FDA
//  #08 //043   ----------------------------------------
 BYTE   PATT
  POIN2 Label_011C7FE5
//  #08 //044   ----------------------------------------
 BYTE   PATT
  POIN2 Label_011C7FDA
//  #08 //045   ----------------------------------------
 BYTE   PATT
  POIN2 Label_011C7FE5
//  #08 //046   ----------------------------------------
 BYTE   PATT
  POIN2 Label_011C7FFF
//  #08 //047   ----------------------------------------
 BYTE   PATT
  POIN2 Label_011C800A
//  #08 //048   ----------------------------------------
 BYTE   PATT
  POIN2 Label_011C801A
//  #08 //049   ----------------------------------------
 BYTE   PATT
  POIN2 Label_011C800A
//  #08 //050   ----------------------------------------
 BYTE   PATT
  POIN2 Label_011C801A
//  #08 //051   ----------------------------------------
 BYTE   PATT
  POIN2 Label_011C800A
//  #08 //052   ----------------------------------------
 BYTE   PATT
  POIN2 Label_011C801A
//  #08 //053   ----------------------------------------
 BYTE   PATT
  POIN2 Label_011C800A
//  #08 //054   ----------------------------------------
 BYTE   PATT
  POIN2 Label_011C7F85
//  #08 //055   ----------------------------------------
 BYTE   PATT
  POIN2 Label_011C7F63
//  #08 //056   ----------------------------------------
 BYTE   PATT
  POIN2 Label_011C7F58
//  #08 //057   ----------------------------------------
 BYTE   PATT
  POIN2 Label_011C7F63
//  #08 //058   ----------------------------------------
 BYTE   PATT
  POIN2 Label_011C7F58
//  #08 //059   ----------------------------------------
 BYTE   PATT
  POIN2 Label_011C7F63
//  #08 //060   ----------------------------------------
 BYTE   PATT
  POIN2 Label_011C7F58
//  #08 //061   ----------------------------------------
 BYTE   PATT
  POIN2 Label_011C7F63
//  #08 //062   ----------------------------------------
 BYTE   PATT
  POIN2 Label_011C7FB5
//  #08 //063   ----------------------------------------
 BYTE   PATT
  POIN2 Label_011C7FC0
//  #08 //064   ----------------------------------------
 BYTE   PATT
  POIN2 Label_011C7FB5
//  #08 //065   ----------------------------------------
 BYTE   PATT
  POIN2 Label_011C7FC0
//  #08 //066   ----------------------------------------
 BYTE   PATT
  POIN2 Label_011C7FDA
//  #08 //067   ----------------------------------------
 BYTE   PATT
  POIN2 Label_011C7FE5
//  #08 //068   ----------------------------------------
 BYTE   PATT
  POIN2 Label_011C7FDA
//  #08 //069   ----------------------------------------
 BYTE   PATT
  POIN2 Label_011C7FE5
//  #08 //070   ----------------------------------------
 BYTE   PATT
  POIN2 Label_011C7FFF
//  #08 //071   ----------------------------------------
 BYTE   PATT
  POIN2 Label_011C800A
//  #08 //072   ----------------------------------------
 BYTE   PATT
  POIN2 Label_011C801A
//  #08 //073   ----------------------------------------
 BYTE   PATT
  POIN2 Label_011C800A
//  #08 //074   ----------------------------------------
 BYTE   PATT
  POIN2 Label_011C801A
//  #08 //075   ----------------------------------------
 BYTE   PATT
  POIN2 Label_011C800A
//  #08 //076   ----------------------------------------
 BYTE   PATT
  POIN2 Label_011C801A
//  #08 //077   ----------------------------------------
 BYTE   PATT
  POIN2 Label_011C800A
//  #08 //078   ----------------------------------------
 BYTE   GoTo
  POIN2 Label_011C803F
//  #08 //079   ----------------------------------------
 BYTE   N06  An3  v048
 BYTE   W06
 BYTE   FINE

//**************** Track 9 (Midi-Chn.8) ****************//

HarvestDance_009:
//  #09 //000   ----------------------------------------
 BYTE   KEYSH   HarvestDance_key+0
 BYTE   VOICE   57
 BYTE   W48
 BYTE   VOL   70*HarvestDance_mvl/mxv
 BYTE   W48
//  #09 //001   ----------------------------------------
 BYTE   W96
//  #09 //002   ----------------------------------------
 BYTE   W96
//  #09 //003   ----------------------------------------
 BYTE   W96
//  #09 //004   ----------------------------------------
 BYTE   W96
//  #09 //005   ----------------------------------------
 BYTE   W96
//  #09 //006   ----------------------------------------
 BYTE   W96
//  #09 //007   ----------------------------------------
 BYTE   W96
//  #09 //008   ----------------------------------------
 BYTE   W96
//  #09 //009   ----------------------------------------
 BYTE   W96
//  #09 //010   ----------------------------------------
 BYTE   W96
//  #09 //011   ----------------------------------------
 BYTE   W96
//  #09 //012   ----------------------------------------
 BYTE   W96
//  #09 //013   ----------------------------------------
 BYTE   W96
//  #09 //014   ----------------------------------------
 BYTE   W96
//  #09 //015   ----------------------------------------
 BYTE   W96
//  #09 //016   ----------------------------------------
 BYTE   W96
//  #09 //017   ----------------------------------------
 BYTE   W96
//  #09 //018   ----------------------------------------
 BYTE   W96
//  #09 //019   ----------------------------------------
 BYTE   W96
//  #09 //020   ----------------------------------------
 BYTE   W96
//  #09 //021   ----------------------------------------
Label_011C8158:
 BYTE   W36
 BYTE   N06  Fs2  v048
 BYTE   W24
 BYTE   N12
 BYTE   W12
 BYTE   N06
 BYTE   W24
 BYTE   PEND 
//  #09 //022   ----------------------------------------
Label_011C8162:
 BYTE   N06  Fs2  v048
 BYTE   W12
 BYTE   N12
 BYTE   W12
 BYTE   N06
 BYTE   W24
 BYTE   N06
 BYTE   W12
 BYTE   N12  En2
 BYTE   W12
 BYTE   N06
 BYTE   W24
 BYTE   PEND 
//  #09 //023   ----------------------------------------
Label_011C8172:
 BYTE   N06  En2  v048
 BYTE   W36
 BYTE   Fs2
 BYTE   W24
 BYTE   N12
 BYTE   W12
 BYTE   N06
 BYTE   W24
 BYTE   PEND 
//  #09 //024   ----------------------------------------
 BYTE   PATT
  POIN2 Label_011C8162
//  #09 //025   ----------------------------------------
 BYTE   PATT
  POIN2 Label_011C8172
//  #09 //026   ----------------------------------------
 BYTE   PATT
  POIN2 Label_011C8162
//  #09 //027   ----------------------------------------
 BYTE   PATT
  POIN2 Label_011C8172
//  #09 //028   ----------------------------------------
 BYTE   PATT
  POIN2 Label_011C8162
//  #09 //029   ----------------------------------------
Label_011C8196:
 BYTE   W96
//  #09 //030   ----------------------------------------
 BYTE   W96
//  #09 //031   ----------------------------------------
 BYTE   W96
//  #09 //032   ----------------------------------------
 BYTE   W96
//  #09 //033   ----------------------------------------
 BYTE   W96
//  #09 //034   ----------------------------------------
 BYTE   W96
//  #09 //035   ----------------------------------------
 BYTE   W96
//  #09 //036   ----------------------------------------
 BYTE   W96
//  #09 //037   ----------------------------------------
 BYTE   W96
//  #09 //038   ----------------------------------------
 BYTE   W96
//  #09 //039   ----------------------------------------
 BYTE   W96
//  #09 //040   ----------------------------------------
 BYTE   W96
//  #09 //041   ----------------------------------------
 BYTE   W96
//  #09 //042   ----------------------------------------
 BYTE   W96
//  #09 //043   ----------------------------------------
 BYTE   W96
//  #09 //044   ----------------------------------------
 BYTE   W96
//  #09 //045   ----------------------------------------
 BYTE   PATT
  POIN2 Label_011C8158
//  #09 //046   ----------------------------------------
 BYTE   PATT
  POIN2 Label_011C8162
//  #09 //047   ----------------------------------------
 BYTE   PATT
  POIN2 Label_011C8172
//  #09 //048   ----------------------------------------
 BYTE   PATT
  POIN2 Label_011C8162
//  #09 //049   ----------------------------------------
 BYTE   PATT
  POIN2 Label_011C8172
//  #09 //050   ----------------------------------------
 BYTE   PATT
  POIN2 Label_011C8162
//  #09 //051   ----------------------------------------
 BYTE   PATT
  POIN2 Label_011C8172
//  #09 //052   ----------------------------------------
 BYTE   PATT
  POIN2 Label_011C8162
//  #09 //053   ----------------------------------------
 BYTE   W96
//  #09 //054   ----------------------------------------
 BYTE   W96
//  #09 //055   ----------------------------------------
 BYTE   W96
//  #09 //056   ----------------------------------------
 BYTE   W96
//  #09 //057   ----------------------------------------
 BYTE   W96
//  #09 //058   ----------------------------------------
 BYTE   W96
//  #09 //059   ----------------------------------------
 BYTE   W96
//  #09 //060   ----------------------------------------
 BYTE   W96
//  #09 //061   ----------------------------------------
 BYTE   W96
//  #09 //062   ----------------------------------------
 BYTE   W96
//  #09 //063   ----------------------------------------
 BYTE   W96
//  #09 //064   ----------------------------------------
 BYTE   W96
//  #09 //065   ----------------------------------------
 BYTE   W96
//  #09 //066   ----------------------------------------
 BYTE   W96
//  #09 //067   ----------------------------------------
 BYTE   W96
//  #09 //068   ----------------------------------------
 BYTE   W96
//  #09 //069   ----------------------------------------
 BYTE   PATT
  POIN2 Label_011C8158
//  #09 //070   ----------------------------------------
 BYTE   PATT
  POIN2 Label_011C8162
//  #09 //071   ----------------------------------------
 BYTE   PATT
  POIN2 Label_011C8172
//  #09 //072   ----------------------------------------
 BYTE   PATT
  POIN2 Label_011C8162
//  #09 //073   ----------------------------------------
 BYTE   PATT
  POIN2 Label_011C8172
//  #09 //074   ----------------------------------------
 BYTE   PATT
  POIN2 Label_011C8162
//  #09 //075   ----------------------------------------
 BYTE   PATT
  POIN2 Label_011C8172
//  #09 //076   ----------------------------------------
 BYTE   PATT
  POIN2 Label_011C8162
//  #09 //077   ----------------------------------------
 BYTE   GoTo
  POIN2 Label_011C8196
//  #09 //078   ----------------------------------------
 BYTE   N06  En2  v048
 BYTE   W06
 BYTE   FINE

//**************** Track 10 (Midi-Chn.9) ****************//

HarvestDance_010:
//  #10 //000   ----------------------------------------
 BYTE   KEYSH   HarvestDance_key+0
 BYTE   VOICE   48
 BYTE   W48
 BYTE   VOL   70*HarvestDance_mvl/mxv
 BYTE   W48
//  #10 //001   ----------------------------------------
Label_011C8218:
 BYTE   N06  Dn1  v080
 BYTE   W12
 BYTE   N03  Dn1  v036
 BYTE   W03
 BYTE   Dn1  v048
 BYTE   W03
 BYTE   Dn1  v060
 BYTE   W03
 BYTE   Dn1  v068
 BYTE   W03
 BYTE   N06  Dn1  v080
 BYTE   W12
 BYTE   Dn1  v064
 BYTE   W12
 BYTE   Dn1  v048
 BYTE   W06
 BYTE   Dn1  v056
 BYTE   W06
 BYTE   Dn1  v064
 BYTE   W12
 BYTE   Dn1  v080
 BYTE   W12
 BYTE   N03  Dn1  v036
 BYTE   W03
 BYTE   Dn1  v044
 BYTE   W03
 BYTE   Dn1  v056
 BYTE   W03
 BYTE   Dn1  v064
 BYTE   W03
 BYTE   PEND 
//  #10 //002   ----------------------------------------
Label_011C824A:
 BYTE   N03  Dn1  v064
 BYTE   W03
 BYTE   Dn1  v044
 BYTE   W03
 BYTE   Dn1  v056
 BYTE   W03
 BYTE   Dn1  v064
 BYTE   W03
 BYTE   N06  Dn1  v080
 BYTE   W12
 BYTE   N03  Dn1  v064
 BYTE   W03
 BYTE   Dn1  v044
 BYTE   W03
 BYTE   Dn1  v056
 BYTE   W03
 BYTE   Dn1  v064
 BYTE   W03
 BYTE   N06  Dn1  v080
 BYTE   W12
 BYTE   N03  Dn1  v064
 BYTE   W03
 BYTE   Dn1  v044
 BYTE   W03
 BYTE   Dn1  v056
 BYTE   W03
 BYTE   Dn1  v064
 BYTE   W03
 BYTE   N06  Dn1  v080
 BYTE   W12
 BYTE   N06
 BYTE   W06
 BYTE   Dn1  v064
 BYTE   W06
 BYTE   N03  Dn1  v048
 BYTE   W03
 BYTE   Dn1  v056
 BYTE   W03
 BYTE   Dn1  v064
 BYTE   W03
 BYTE   Dn1  v072
 BYTE   W03
 BYTE   PEND 
//  #10 //003   ----------------------------------------
 BYTE   PATT
  POIN2 Label_011C8218
//  #10 //004   ----------------------------------------
 BYTE   PATT
  POIN2 Label_011C824A
//  #10 //005   ----------------------------------------
 BYTE   PATT
  POIN2 Label_011C8218
//  #10 //006   ----------------------------------------
 BYTE   PATT
  POIN2 Label_011C824A
//  #10 //007   ----------------------------------------
 BYTE   PATT
  POIN2 Label_011C8218
//  #10 //008   ----------------------------------------
 BYTE   PATT
  POIN2 Label_011C824A
//  #10 //009   ----------------------------------------
 BYTE   PATT
  POIN2 Label_011C8218
//  #10 //010   ----------------------------------------
 BYTE   PATT
  POIN2 Label_011C824A
//  #10 //011   ----------------------------------------
 BYTE   PATT
  POIN2 Label_011C8218
//  #10 //012   ----------------------------------------
 BYTE   PATT
  POIN2 Label_011C824A
//  #10 //013   ----------------------------------------
 BYTE   PATT
  POIN2 Label_011C8218
//  #10 //014   ----------------------------------------
 BYTE   PATT
  POIN2 Label_011C824A
//  #10 //015   ----------------------------------------
 BYTE   PATT
  POIN2 Label_011C8218
//  #10 //016   ----------------------------------------
 BYTE   PATT
  POIN2 Label_011C824A
//  #10 //017   ----------------------------------------
 BYTE   PATT
  POIN2 Label_011C8218
//  #10 //018   ----------------------------------------
 BYTE   PATT
  POIN2 Label_011C824A
//  #10 //019   ----------------------------------------
 BYTE   PATT
  POIN2 Label_011C8218
//  #10 //020   ----------------------------------------
 BYTE   PATT
  POIN2 Label_011C824A
//  #10 //021   ----------------------------------------
 BYTE   PATT
  POIN2 Label_011C8218
//  #10 //022   ----------------------------------------
 BYTE   PATT
  POIN2 Label_011C824A
//  #10 //023   ----------------------------------------
 BYTE   PATT
  POIN2 Label_011C8218
//  #10 //024   ----------------------------------------
 BYTE   PATT
  POIN2 Label_011C824A
//  #10 //025   ----------------------------------------
 BYTE   PATT
  POIN2 Label_011C8218
//  #10 //026   ----------------------------------------
 BYTE   PATT
  POIN2 Label_011C824A
//  #10 //027   ----------------------------------------
 BYTE   PATT
  POIN2 Label_011C8218
//  #10 //028   ----------------------------------------
 BYTE   PATT
  POIN2 Label_011C824A
//  #10 //029   ----------------------------------------
Label_011C8312:
//  #10 //030   ----------------------------------------
 BYTE   PATT
  POIN2 Label_011C8218
//  #10 //031   ----------------------------------------
 BYTE   PATT
  POIN2 Label_011C824A
//  #10 //032   ----------------------------------------
 BYTE   PATT
  POIN2 Label_011C8218
//  #10 //033   ----------------------------------------
 BYTE   PATT
  POIN2 Label_011C824A
//  #10 //034   ----------------------------------------
 BYTE   PATT
  POIN2 Label_011C8218
//  #10 //035   ----------------------------------------
 BYTE   PATT
  POIN2 Label_011C824A
//  #10 //036   ----------------------------------------
 BYTE   PATT
  POIN2 Label_011C8218
//  #10 //037   ----------------------------------------
 BYTE   PATT
  POIN2 Label_011C824A
//  #10 //038   ----------------------------------------
 BYTE   PATT
  POIN2 Label_011C8218
//  #10 //039   ----------------------------------------
 BYTE   PATT
  POIN2 Label_011C824A
//  #10 //040   ----------------------------------------
 BYTE   PATT
  POIN2 Label_011C8218
//  #10 //041   ----------------------------------------
 BYTE   PATT
  POIN2 Label_011C824A
//  #10 //042   ----------------------------------------
 BYTE   PATT
  POIN2 Label_011C8218
//  #10 //043   ----------------------------------------
 BYTE   PATT
  POIN2 Label_011C824A
//  #10 //044   ----------------------------------------
 BYTE   PATT
  POIN2 Label_011C8218
//  #10 //045   ----------------------------------------
 BYTE   PATT
  POIN2 Label_011C824A
//  #10 //046   ----------------------------------------
 BYTE   PATT
  POIN2 Label_011C8218
//  #10 //047   ----------------------------------------
 BYTE   PATT
  POIN2 Label_011C824A
//  #10 //048   ----------------------------------------
 BYTE   PATT
  POIN2 Label_011C8218
//  #10 //049   ----------------------------------------
 BYTE   PATT
  POIN2 Label_011C824A
//  #10 //050   ----------------------------------------
 BYTE   PATT
  POIN2 Label_011C8218
//  #10 //051   ----------------------------------------
 BYTE   PATT
  POIN2 Label_011C824A
//  #10 //052   ----------------------------------------
 BYTE   PATT
  POIN2 Label_011C8218
//  #10 //053   ----------------------------------------
 BYTE   PATT
  POIN2 Label_011C824A
//  #10 //054   ----------------------------------------
 BYTE   PATT
  POIN2 Label_011C8218
//  #10 //055   ----------------------------------------
 BYTE   PATT
  POIN2 Label_011C824A
//  #10 //056   ----------------------------------------
 BYTE   PATT
  POIN2 Label_011C8218
//  #10 //057   ----------------------------------------
 BYTE   PATT
  POIN2 Label_011C824A
//  #10 //058   ----------------------------------------
 BYTE   PATT
  POIN2 Label_011C8218
//  #10 //059   ----------------------------------------
 BYTE   PATT
  POIN2 Label_011C824A
//  #10 //060   ----------------------------------------
 BYTE   PATT
  POIN2 Label_011C8218
//  #10 //061   ----------------------------------------
 BYTE   PATT
  POIN2 Label_011C824A
//  #10 //062   ----------------------------------------
 BYTE   PATT
  POIN2 Label_011C8218
//  #10 //063   ----------------------------------------
 BYTE   PATT
  POIN2 Label_011C824A
//  #10 //064   ----------------------------------------
 BYTE   PATT
  POIN2 Label_011C8218
//  #10 //065   ----------------------------------------
 BYTE   PATT
  POIN2 Label_011C824A
//  #10 //066   ----------------------------------------
 BYTE   PATT
  POIN2 Label_011C8218
//  #10 //067   ----------------------------------------
 BYTE   PATT
  POIN2 Label_011C824A
//  #10 //068   ----------------------------------------
 BYTE   PATT
  POIN2 Label_011C8218
//  #10 //069   ----------------------------------------
 BYTE   PATT
  POIN2 Label_011C824A
//  #10 //070   ----------------------------------------
 BYTE   PATT
  POIN2 Label_011C8218
//  #10 //071   ----------------------------------------
 BYTE   PATT
  POIN2 Label_011C824A
//  #10 //072   ----------------------------------------
 BYTE   PATT
  POIN2 Label_011C8218
//  #10 //073   ----------------------------------------
 BYTE   PATT
  POIN2 Label_011C824A
//  #10 //074   ----------------------------------------
 BYTE   PATT
  POIN2 Label_011C8218
//  #10 //075   ----------------------------------------
 BYTE   PATT
  POIN2 Label_011C824A
//  #10 //076   ----------------------------------------
 BYTE   PATT
  POIN2 Label_011C8218
//  #10 //077   ----------------------------------------
 BYTE   PATT
  POIN2 Label_011C824A
//  #10 //078   ----------------------------------------
 BYTE   GoTo
  POIN2 Label_011C8312
//  #10 //079   ----------------------------------------
 BYTE   W06
 BYTE   FINE

//******************************************************//
	ALIGN 4

HarvestDance:
	BYTE	10	// NumTrks
	BYTE	0	// NumBlks
	BYTE	HarvestDance_pri	// Priority
	BYTE	HarvestDance_rev	// Reverb.
    
	POIN2	HarvestDance_grp
    
	POIN2	HarvestDance_001
	POIN2	HarvestDance_002
	POIN2	HarvestDance_003
	POIN2	HarvestDance_004
	POIN2	HarvestDance_005
	POIN2	HarvestDance_006
	POIN2	HarvestDance_007
	POIN2	HarvestDance_008
	POIN2	HarvestDance_009
	POIN2	HarvestDance_010

	
