	.include "MPlayDef.s"

	.equ	InsideTheWhale_grp, voicegroup000
	.equ	InsideTheWhale_pri, 0
	.equ	InsideTheWhale_rev, 0
	.equ	InsideTheWhale_mvl, 127
	.equ	InsideTheWhale_key, 0
	.equ	InsideTheWhale_tbs, 1
	.equ	InsideTheWhale_exg, 0
	.equ	InsideTheWhale_cmp, 1

	.section .rodata
	.global	InsideTheWhale
	.align	2


@**************** Track 1 (Midi-Chn.0) ****************@

InsideTheWhale_001:
@  #01 @000   ----------------------------------------
 .byte   KEYSH , InsideTheWhale_key+0
Label_01312382:
 .byte   TEMPO , 120*InsideTheWhale_tbs/2
 .byte   VOICE , 34
 .byte   PAN , c_v+0
 .byte   VOL , 42*InsideTheWhale_mvl/mxv
 .byte   PAN , c_v+0
 .byte   VOL , 42*InsideTheWhale_mvl/mxv
 .byte   PAN , c_v+0
 .byte   VOL , 42*InsideTheWhale_mvl/mxv
 .byte   PAN , c_v+0
 .byte   VOL , 42*InsideTheWhale_mvl/mxv
 .byte   BEND , c_v+0
 .byte   N11 ,Cn2 ,v127
 .byte   W12
 .byte   Gn1
 .byte   W12
 .byte   As1
 .byte   W12
 .byte   N05 ,Gn1
 .byte   W06
 .byte   N11 ,Cn2
 .byte   W12
 .byte   N05 ,Gn1
 .byte   W06
 .byte   N11 ,As1
 .byte   W12
 .byte   Cn2
 .byte   W12
 .byte   As1
 .byte   W12
@  #01 @001   ----------------------------------------
Label_013123B0:
 .byte   N11 ,Cn2 ,v127
 .byte   W12
 .byte   Gn1
 .byte   W12
 .byte   As1
 .byte   W12
 .byte   N05 ,Gn1
 .byte   W06
 .byte   N11 ,Cn2
 .byte   W12
 .byte   N05 ,Gn1
 .byte   W06
 .byte   N11 ,As1
 .byte   W12
 .byte   Cn2
 .byte   W12
 .byte   As1
 .byte   W12
 .byte   PEND 
@  #01 @002   ----------------------------------------
 .byte   PATT
  .word Label_013123B0
@  #01 @003   ----------------------------------------
Label_013123CE:
 .byte   N11 ,Cn2 ,v127
 .byte   W12
 .byte   Gn1
 .byte   W12
 .byte   As1
 .byte   W12
 .byte   N05 ,Gn1
 .byte   W06
 .byte   N11 ,Cn2
 .byte   W12
 .byte   N05 ,Gn1
 .byte   W06
 .byte   Cn2
 .byte   W06
 .byte   N11 ,Dn2
 .byte   W12
 .byte   N05 ,An1
 .byte   W06
 .byte   N11 ,Dn2
 .byte   W12
 .byte   PEND 
@  #01 @004   ----------------------------------------
Label_013123EB:
 .byte   N11 ,As1 ,v127
 .byte   W12
 .byte   Fn1
 .byte   W12
 .byte   Gs1
 .byte   W12
 .byte   N05 ,Fn1
 .byte   W06
 .byte   N11 ,As1
 .byte   W12
 .byte   N05 ,Fn1
 .byte   W06
 .byte   N11 ,Gs1
 .byte   W12
 .byte   As1
 .byte   W12
 .byte   Gs1
 .byte   W12
 .byte   PEND 
@  #01 @005   ----------------------------------------
 .byte   PATT
  .word Label_013123EB
@  #01 @006   ----------------------------------------
 .byte   PATT
  .word Label_013123EB
@  #01 @007   ----------------------------------------
 .byte   PATT
  .word Label_013123EB
@  #01 @008   ----------------------------------------
 .byte   PATT
  .word Label_013123B0
@  #01 @009   ----------------------------------------
 .byte   PATT
  .word Label_013123B0
@  #01 @010   ----------------------------------------
 .byte   PATT
  .word Label_013123B0
@  #01 @011   ----------------------------------------
 .byte   PATT
  .word Label_013123CE
@  #01 @012   ----------------------------------------
 .byte   PATT
  .word Label_013123EB
@  #01 @013   ----------------------------------------
 .byte   PATT
  .word Label_013123EB
@  #01 @014   ----------------------------------------
 .byte   PATT
  .word Label_013123EB
@  #01 @015   ----------------------------------------
 .byte   W96
@  #01 @016   ----------------------------------------
 .byte   PATT
  .word Label_013123B0
@  #01 @017   ----------------------------------------
 .byte   PATT
  .word Label_013123B0
@  #01 @018   ----------------------------------------
 .byte   PATT
  .word Label_013123B0
@  #01 @019   ----------------------------------------
 .byte   PATT
  .word Label_013123CE
@  #01 @020   ----------------------------------------
 .byte   PATT
  .word Label_013123EB
@  #01 @021   ----------------------------------------
 .byte   PATT
  .word Label_013123EB
@  #01 @022   ----------------------------------------
 .byte   PATT
  .word Label_013123EB
@  #01 @023   ----------------------------------------
 .byte   PATT
  .word Label_013123EB
@  #01 @024   ----------------------------------------
 .byte   PATT
  .word Label_013123B0
@  #01 @025   ----------------------------------------
 .byte   PATT
  .word Label_013123B0
@  #01 @026   ----------------------------------------
 .byte   PATT
  .word Label_013123B0
@  #01 @027   ----------------------------------------
 .byte   PATT
  .word Label_013123CE
@  #01 @028   ----------------------------------------
 .byte   PATT
  .word Label_013123B0
@  #01 @029   ----------------------------------------
 .byte   PATT
  .word Label_013123B0
@  #01 @030   ----------------------------------------
 .byte   PATT
  .word Label_013123B0
@  #01 @031   ----------------------------------------
 .byte   W96
@  #01 @032   ----------------------------------------
 .byte   PATT
  .word Label_013123B0
@  #01 @033   ----------------------------------------
 .byte   PATT
  .word Label_013123B0
@  #01 @034   ----------------------------------------
 .byte   PATT
  .word Label_013123B0
@  #01 @035   ----------------------------------------
 .byte   PATT
  .word Label_013123CE
@  #01 @036   ----------------------------------------
 .byte   PATT
  .word Label_013123EB
@  #01 @037   ----------------------------------------
 .byte   PATT
  .word Label_013123EB
@  #01 @038   ----------------------------------------
 .byte   PATT
  .word Label_013123EB
@  #01 @039   ----------------------------------------
 .byte   PATT
  .word Label_013123EB
@  #01 @040   ----------------------------------------
 .byte   PATT
  .word Label_013123B0
@  #01 @041   ----------------------------------------
 .byte   PATT
  .word Label_013123B0
@  #01 @042   ----------------------------------------
 .byte   PATT
  .word Label_013123B0
@  #01 @043   ----------------------------------------
 .byte   PATT
  .word Label_013123CE
@  #01 @044   ----------------------------------------
 .byte   PATT
  .word Label_013123EB
@  #01 @045   ----------------------------------------
 .byte   PATT
  .word Label_013123EB
@  #01 @046   ----------------------------------------
 .byte   PATT
  .word Label_013123EB
@  #01 @047   ----------------------------------------
 .byte   W96
@  #01 @048   ----------------------------------------
 .byte   PATT
  .word Label_013123B0
@  #01 @049   ----------------------------------------
 .byte   PATT
  .word Label_013123B0
@  #01 @050   ----------------------------------------
 .byte   PATT
  .word Label_013123B0
@  #01 @051   ----------------------------------------
 .byte   PATT
  .word Label_013123CE
@  #01 @052   ----------------------------------------
 .byte   PATT
  .word Label_013123EB
@  #01 @053   ----------------------------------------
 .byte   PATT
  .word Label_013123EB
@  #01 @054   ----------------------------------------
 .byte   PATT
  .word Label_013123EB
@  #01 @055   ----------------------------------------
 .byte   PATT
  .word Label_013123EB
@  #01 @056   ----------------------------------------
 .byte   PATT
  .word Label_013123B0
@  #01 @057   ----------------------------------------
 .byte   PATT
  .word Label_013123B0
@  #01 @058   ----------------------------------------
 .byte   PATT
  .word Label_013123B0
@  #01 @059   ----------------------------------------
 .byte   PATT
  .word Label_013123CE
@  #01 @060   ----------------------------------------
 .byte   PATT
  .word Label_013123B0
@  #01 @061   ----------------------------------------
 .byte   PATT
  .word Label_013123B0
@  #01 @062   ----------------------------------------
 .byte   PATT
  .word Label_013123B0
@  #01 @063   ----------------------------------------
 .byte   W96
@  #01 @064   ----------------------------------------
 .byte   GOTO
  .word Label_01312382
@  #01 @065   ----------------------------------------
 .byte   VOICE , 34
 .byte   PAN , c_v+0
 .byte   VOL , 42*InsideTheWhale_mvl/mxv
 .byte   PAN , c_v+0
 .byte   VOL , 42*InsideTheWhale_mvl/mxv
 .byte   PAN , c_v+0
 .byte   VOL , 42*InsideTheWhale_mvl/mxv
 .byte   BEND , c_v+0
 .byte   FINE

@**************** Track 2 (Midi-Chn.1) ****************@

InsideTheWhale_002:
@  #02 @000   ----------------------------------------
 .byte   KEYSH , InsideTheWhale_key+0
Label_01312536:
 .byte   VOICE , 35
 .byte   PAN , c_v+0
 .byte   VOL , 42*InsideTheWhale_mvl/mxv
 .byte   PAN , c_v+0
 .byte   VOL , 42*InsideTheWhale_mvl/mxv
 .byte   PAN , c_v+0
 .byte   VOL , 42*InsideTheWhale_mvl/mxv
 .byte   PAN , c_v+0
 .byte   VOL , 42*InsideTheWhale_mvl/mxv
 .byte   BEND , c_v+0
 .byte   N11 ,Cn2 ,v127
 .byte   W12
 .byte   Gn1
 .byte   W12
 .byte   As1
 .byte   W12
 .byte   N05 ,Gn1
 .byte   W06
 .byte   N11 ,Cn2
 .byte   W12
 .byte   N05 ,Gn1
 .byte   W06
 .byte   N11 ,As1
 .byte   W12
 .byte   Cn2
 .byte   W12
 .byte   As1
 .byte   W12
@  #02 @001   ----------------------------------------
Label_01312562:
 .byte   N11 ,Cn2 ,v127
 .byte   W12
 .byte   Gn1
 .byte   W12
 .byte   As1
 .byte   W12
 .byte   N05 ,Gn1
 .byte   W06
 .byte   N11 ,Cn2
 .byte   W12
 .byte   N05 ,Gn1
 .byte   W06
 .byte   N11 ,As1
 .byte   W12
 .byte   Cn2
 .byte   W12
 .byte   As1
 .byte   W12
 .byte   PEND 
@  #02 @002   ----------------------------------------
 .byte   PATT
  .word Label_01312562
@  #02 @003   ----------------------------------------
Label_01312580:
 .byte   N11 ,Cn2 ,v127
 .byte   W12
 .byte   Gn1
 .byte   W12
 .byte   As1
 .byte   W12
 .byte   N05 ,Gn1
 .byte   W06
 .byte   N11 ,Cn2
 .byte   W12
 .byte   N05 ,Gn1
 .byte   W06
 .byte   Cn2
 .byte   W06
 .byte   N11 ,Dn2
 .byte   W12
 .byte   N05 ,An1
 .byte   W06
 .byte   N11 ,Dn2
 .byte   W12
 .byte   PEND 
@  #02 @004   ----------------------------------------
Label_0131259D:
 .byte   N11 ,As1 ,v127
 .byte   W12
 .byte   Fn1
 .byte   W12
 .byte   Gs1
 .byte   W12
 .byte   N05 ,Fn1
 .byte   W06
 .byte   N11 ,As1
 .byte   W12
 .byte   N05 ,Fn1
 .byte   W06
 .byte   N11 ,Gs1
 .byte   W12
 .byte   As1
 .byte   W12
 .byte   Gs1
 .byte   W12
 .byte   PEND 
@  #02 @005   ----------------------------------------
 .byte   PATT
  .word Label_0131259D
@  #02 @006   ----------------------------------------
 .byte   PATT
  .word Label_0131259D
@  #02 @007   ----------------------------------------
 .byte   PATT
  .word Label_0131259D
@  #02 @008   ----------------------------------------
 .byte   PATT
  .word Label_01312562
@  #02 @009   ----------------------------------------
 .byte   PATT
  .word Label_01312562
@  #02 @010   ----------------------------------------
 .byte   PATT
  .word Label_01312562
@  #02 @011   ----------------------------------------
 .byte   PATT
  .word Label_01312580
@  #02 @012   ----------------------------------------
 .byte   PATT
  .word Label_0131259D
@  #02 @013   ----------------------------------------
 .byte   PATT
  .word Label_0131259D
@  #02 @014   ----------------------------------------
 .byte   PATT
  .word Label_0131259D
@  #02 @015   ----------------------------------------
 .byte   W96
@  #02 @016   ----------------------------------------
 .byte   PATT
  .word Label_01312562
@  #02 @017   ----------------------------------------
 .byte   PATT
  .word Label_01312562
@  #02 @018   ----------------------------------------
 .byte   PATT
  .word Label_01312562
@  #02 @019   ----------------------------------------
 .byte   PATT
  .word Label_01312580
@  #02 @020   ----------------------------------------
 .byte   PATT
  .word Label_0131259D
@  #02 @021   ----------------------------------------
 .byte   PATT
  .word Label_0131259D
@  #02 @022   ----------------------------------------
 .byte   PATT
  .word Label_0131259D
@  #02 @023   ----------------------------------------
 .byte   PATT
  .word Label_0131259D
@  #02 @024   ----------------------------------------
 .byte   PATT
  .word Label_01312562
@  #02 @025   ----------------------------------------
 .byte   PATT
  .word Label_01312562
@  #02 @026   ----------------------------------------
 .byte   PATT
  .word Label_01312562
@  #02 @027   ----------------------------------------
 .byte   PATT
  .word Label_01312580
@  #02 @028   ----------------------------------------
 .byte   PATT
  .word Label_01312562
@  #02 @029   ----------------------------------------
 .byte   PATT
  .word Label_01312562
@  #02 @030   ----------------------------------------
 .byte   PATT
  .word Label_01312562
@  #02 @031   ----------------------------------------
 .byte   W96
@  #02 @032   ----------------------------------------
 .byte   PATT
  .word Label_01312562
@  #02 @033   ----------------------------------------
 .byte   PATT
  .word Label_01312562
@  #02 @034   ----------------------------------------
 .byte   PATT
  .word Label_01312562
@  #02 @035   ----------------------------------------
 .byte   PATT
  .word Label_01312580
@  #02 @036   ----------------------------------------
 .byte   PATT
  .word Label_0131259D
@  #02 @037   ----------------------------------------
 .byte   PATT
  .word Label_0131259D
@  #02 @038   ----------------------------------------
 .byte   PATT
  .word Label_0131259D
@  #02 @039   ----------------------------------------
 .byte   PATT
  .word Label_0131259D
@  #02 @040   ----------------------------------------
 .byte   PATT
  .word Label_01312562
@  #02 @041   ----------------------------------------
 .byte   PATT
  .word Label_01312562
@  #02 @042   ----------------------------------------
 .byte   PATT
  .word Label_01312562
@  #02 @043   ----------------------------------------
 .byte   PATT
  .word Label_01312580
@  #02 @044   ----------------------------------------
 .byte   PATT
  .word Label_0131259D
@  #02 @045   ----------------------------------------
 .byte   PATT
  .word Label_0131259D
@  #02 @046   ----------------------------------------
 .byte   PATT
  .word Label_0131259D
@  #02 @047   ----------------------------------------
 .byte   W96
@  #02 @048   ----------------------------------------
 .byte   PATT
  .word Label_01312562
@  #02 @049   ----------------------------------------
 .byte   PATT
  .word Label_01312562
@  #02 @050   ----------------------------------------
 .byte   PATT
  .word Label_01312562
@  #02 @051   ----------------------------------------
 .byte   PATT
  .word Label_01312580
@  #02 @052   ----------------------------------------
 .byte   PATT
  .word Label_0131259D
@  #02 @053   ----------------------------------------
 .byte   PATT
  .word Label_0131259D
@  #02 @054   ----------------------------------------
 .byte   PATT
  .word Label_0131259D
@  #02 @055   ----------------------------------------
 .byte   PATT
  .word Label_0131259D
@  #02 @056   ----------------------------------------
 .byte   PATT
  .word Label_01312562
@  #02 @057   ----------------------------------------
 .byte   PATT
  .word Label_01312562
@  #02 @058   ----------------------------------------
 .byte   PATT
  .word Label_01312562
@  #02 @059   ----------------------------------------
 .byte   PATT
  .word Label_01312580
@  #02 @060   ----------------------------------------
 .byte   PATT
  .word Label_01312562
@  #02 @061   ----------------------------------------
 .byte   PATT
  .word Label_01312562
@  #02 @062   ----------------------------------------
 .byte   PATT
  .word Label_01312562
@  #02 @063   ----------------------------------------
 .byte   W96
@  #02 @064   ----------------------------------------
 .byte   GOTO
  .word Label_01312536
@  #02 @065   ----------------------------------------
 .byte   VOICE , 35
 .byte   PAN , c_v+0
 .byte   VOL , 42*InsideTheWhale_mvl/mxv
 .byte   PAN , c_v+0
 .byte   VOL , 42*InsideTheWhale_mvl/mxv
 .byte   PAN , c_v+0
 .byte   VOL , 42*InsideTheWhale_mvl/mxv
 .byte   BEND , c_v+0
 .byte   FINE

@**************** Track 3 (Midi-Chn.2) ****************@

InsideTheWhale_003:
@  #03 @000   ----------------------------------------
 .byte   KEYSH , InsideTheWhale_key+0
Label_013126E6:
 .byte   VOICE , 48
 .byte   PAN , c_v+0
 .byte   VOL , 42*InsideTheWhale_mvl/mxv
 .byte   PAN , c_v+0
 .byte   VOL , 42*InsideTheWhale_mvl/mxv
 .byte   PAN , c_v+0
 .byte   VOL , 42*InsideTheWhale_mvl/mxv
 .byte   PAN , c_v+0
 .byte   VOL , 42*InsideTheWhale_mvl/mxv
 .byte   BEND , c_v+0
 .byte   TIE ,Cn3 ,v127
 .byte   TIE ,Ds3
 .byte   TIE ,Gn3
 .byte   W96
@  #03 @001   ----------------------------------------
 .byte   W96
@  #03 @002   ----------------------------------------
 .byte   W96
@  #03 @003   ----------------------------------------
 .byte   W56
 .byte   W03
 .byte   EOT
 .byte   Cn3 ,v063
 .byte   Gn3
 .byte   W01
 .byte   N32 ,Dn3
 .byte   N32 ,Fn3
 .byte   N32 ,An3
 .byte   W36
@  #03 @004   ----------------------------------------
Label_01312712:
 .byte   TIE ,Dn3 ,v127
 .byte   TIE ,Fn3
 .byte   TIE ,Gs3
 .byte   W96
 .byte   PEND 
@  #03 @005   ----------------------------------------
 .byte   W96
@  #03 @006   ----------------------------------------
 .byte   W96
@  #03 @007   ----------------------------------------
 .byte   W92
 .byte   W03
 .byte   EOT
 .byte   Dn3 ,v065
 .byte   Gs3
 .byte   W01
@  #03 @008   ----------------------------------------
Label_01312724:
 .byte   TIE ,Cn3 ,v127
 .byte   TIE ,Ds3
 .byte   TIE ,Gn3
 .byte   W96
 .byte   PEND 
@  #03 @009   ----------------------------------------
 .byte   W96
@  #03 @010   ----------------------------------------
 .byte   W96
@  #03 @011   ----------------------------------------
 .byte   W56
 .byte   W03
 .byte   EOT
 .byte   Cn3 ,v063
 .byte   Gn3
 .byte   W01
 .byte   N32 ,Dn3
 .byte   N32 ,Fn3
 .byte   N32 ,An3
 .byte   W36
@  #03 @012   ----------------------------------------
 .byte   PATT
  .word Label_01312712
@  #03 @013   ----------------------------------------
 .byte   W96
@  #03 @014   ----------------------------------------
 .byte   W96
@  #03 @015   ----------------------------------------
 .byte   W92
 .byte   W03
 .byte   EOT
 .byte   Dn3 ,v065
 .byte   Gs3
 .byte   W01
@  #03 @016   ----------------------------------------
 .byte   PATT
  .word Label_01312724
@  #03 @017   ----------------------------------------
 .byte   W96
@  #03 @018   ----------------------------------------
 .byte   W96
@  #03 @019   ----------------------------------------
 .byte   W56
 .byte   W03
 .byte   EOT
 .byte   Cn3 ,v063
 .byte   Gn3
 .byte   W01
 .byte   N32 ,Dn3 ,v127
 .byte   N32 ,Fn3
 .byte   N32 ,An3
 .byte   W36
@  #03 @020   ----------------------------------------
 .byte   PATT
  .word Label_01312712
@  #03 @021   ----------------------------------------
 .byte   W96
@  #03 @022   ----------------------------------------
 .byte   W96
@  #03 @023   ----------------------------------------
 .byte   W92
 .byte   W03
 .byte   EOT
 .byte   Dn3 ,v065
 .byte   Gs3
 .byte   W01
@  #03 @024   ----------------------------------------
 .byte   W96
@  #03 @025   ----------------------------------------
 .byte   W96
@  #03 @026   ----------------------------------------
 .byte   W96
@  #03 @027   ----------------------------------------
 .byte   W96
@  #03 @028   ----------------------------------------
 .byte   W96
@  #03 @029   ----------------------------------------
 .byte   W96
@  #03 @030   ----------------------------------------
 .byte   W96
@  #03 @031   ----------------------------------------
 .byte   W96
@  #03 @032   ----------------------------------------
 .byte   PATT
  .word Label_01312724
@  #03 @033   ----------------------------------------
 .byte   W96
@  #03 @034   ----------------------------------------
 .byte   W96
@  #03 @035   ----------------------------------------
 .byte   W56
 .byte   W03
 .byte   EOT
 .byte   Cn3 ,v063
 .byte   Gn3
 .byte   W01
 .byte   N32 ,Dn3 ,v127
 .byte   N32 ,Fn3
 .byte   N32 ,An3
 .byte   W36
@  #03 @036   ----------------------------------------
 .byte   PATT
  .word Label_01312712
@  #03 @037   ----------------------------------------
 .byte   W96
@  #03 @038   ----------------------------------------
 .byte   W96
@  #03 @039   ----------------------------------------
 .byte   W92
 .byte   W03
 .byte   EOT
 .byte   Dn3 ,v065
 .byte   Gs3
 .byte   W01
@  #03 @040   ----------------------------------------
 .byte   PATT
  .word Label_01312724
@  #03 @041   ----------------------------------------
 .byte   W96
@  #03 @042   ----------------------------------------
 .byte   W96
@  #03 @043   ----------------------------------------
 .byte   W56
 .byte   W03
 .byte   EOT
 .byte   Cn3 ,v063
 .byte   Gn3
 .byte   W01
 .byte   N32 ,Dn3 ,v127
 .byte   N32 ,Fn3
 .byte   N32 ,An3
 .byte   W36
@  #03 @044   ----------------------------------------
 .byte   PATT
  .word Label_01312712
@  #03 @045   ----------------------------------------
 .byte   W96
@  #03 @046   ----------------------------------------
 .byte   W96
@  #03 @047   ----------------------------------------
 .byte   W92
 .byte   W03
 .byte   EOT
 .byte   Dn3 ,v065
 .byte   Gs3
 .byte   W01
@  #03 @048   ----------------------------------------
 .byte   PATT
  .word Label_01312724
@  #03 @049   ----------------------------------------
 .byte   W96
@  #03 @050   ----------------------------------------
 .byte   W96
@  #03 @051   ----------------------------------------
 .byte   W56
 .byte   W03
 .byte   EOT
 .byte   Cn3 ,v063
 .byte   Gn3
 .byte   W01
 .byte   N32 ,Dn3 ,v127
 .byte   N32 ,Fn3
 .byte   N32 ,An3
 .byte   W36
@  #03 @052   ----------------------------------------
 .byte   PATT
  .word Label_01312712
@  #03 @053   ----------------------------------------
 .byte   W96
@  #03 @054   ----------------------------------------
 .byte   W96
@  #03 @055   ----------------------------------------
 .byte   W92
 .byte   W03
 .byte   EOT
 .byte   Dn3 ,v065
 .byte   Gs3
 .byte   W01
@  #03 @056   ----------------------------------------
 .byte   W96
@  #03 @057   ----------------------------------------
 .byte   W96
@  #03 @058   ----------------------------------------
 .byte   W96
@  #03 @059   ----------------------------------------
 .byte   W96
@  #03 @060   ----------------------------------------
 .byte   W96
@  #03 @061   ----------------------------------------
 .byte   W96
@  #03 @062   ----------------------------------------
 .byte   W96
@  #03 @063   ----------------------------------------
 .byte   W96
@  #03 @064   ----------------------------------------
 .byte   GOTO
  .word Label_013126E6
@  #03 @065   ----------------------------------------
 .byte   VOICE , 48
 .byte   PAN , c_v+0
 .byte   VOL , 42*InsideTheWhale_mvl/mxv
 .byte   PAN , c_v+0
 .byte   VOL , 42*InsideTheWhale_mvl/mxv
 .byte   PAN , c_v+0
 .byte   VOL , 42*InsideTheWhale_mvl/mxv
 .byte   BEND , c_v+0
 .byte   FINE

@**************** Track 4 (Midi-Chn.3) ****************@

InsideTheWhale_004:
@  #04 @000   ----------------------------------------
 .byte   KEYSH , InsideTheWhale_key+0
Label_01312806:
 .byte   VOICE , 80
 .byte   PAN , c_v+0
 .byte   VOL , 42*InsideTheWhale_mvl/mxv
 .byte   PAN , c_v+0
 .byte   VOL , 42*InsideTheWhale_mvl/mxv
 .byte   PAN , c_v+0
 .byte   VOL , 42*InsideTheWhale_mvl/mxv
 .byte   PAN , c_v+0
 .byte   VOL , 42*InsideTheWhale_mvl/mxv
 .byte   BEND , c_v+0
 .byte   W36
 .byte   N05 ,Gn4 ,v127
 .byte   W12
 .byte   As4
 .byte   W06
 .byte   Dn5
 .byte   W12
 .byte   Gn5
 .byte   W30
@  #04 @001   ----------------------------------------
Label_01312825:
 .byte   W12
 .byte   N05 ,Gn4 ,v127
 .byte   W12
 .byte   As4
 .byte   W06
 .byte   Dn5
 .byte   W12
 .byte   Gn4
 .byte   W54
 .byte   PEND 
@  #04 @002   ----------------------------------------
Label_01312831:
 .byte   W36
 .byte   N05 ,Gn4 ,v127
 .byte   W12
 .byte   As4
 .byte   W06
 .byte   Dn5
 .byte   W12
 .byte   Gn5
 .byte   W30
 .byte   PEND 
@  #04 @003   ----------------------------------------
 .byte   PATT
  .word Label_01312825
@  #04 @004   ----------------------------------------
 .byte   PATT
  .word Label_01312831
@  #04 @005   ----------------------------------------
 .byte   PATT
  .word Label_01312825
@  #04 @006   ----------------------------------------
 .byte   PATT
  .word Label_01312831
@  #04 @007   ----------------------------------------
 .byte   PATT
  .word Label_01312825
@  #04 @008   ----------------------------------------
 .byte   PATT
  .word Label_01312831
@  #04 @009   ----------------------------------------
 .byte   PATT
  .word Label_01312825
@  #04 @010   ----------------------------------------
 .byte   PATT
  .word Label_01312831
@  #04 @011   ----------------------------------------
 .byte   PATT
  .word Label_01312825
@  #04 @012   ----------------------------------------
 .byte   PATT
  .word Label_01312831
@  #04 @013   ----------------------------------------
 .byte   PATT
  .word Label_01312825
@  #04 @014   ----------------------------------------
 .byte   PATT
  .word Label_01312831
@  #04 @015   ----------------------------------------
 .byte   PATT
  .word Label_01312825
@  #04 @016   ----------------------------------------
 .byte   PATT
  .word Label_01312831
@  #04 @017   ----------------------------------------
 .byte   PATT
  .word Label_01312825
@  #04 @018   ----------------------------------------
 .byte   PATT
  .word Label_01312831
@  #04 @019   ----------------------------------------
 .byte   PATT
  .word Label_01312825
@  #04 @020   ----------------------------------------
 .byte   PATT
  .word Label_01312831
@  #04 @021   ----------------------------------------
 .byte   PATT
  .word Label_01312825
@  #04 @022   ----------------------------------------
 .byte   PATT
  .word Label_01312831
@  #04 @023   ----------------------------------------
 .byte   PATT
  .word Label_01312825
@  #04 @024   ----------------------------------------
 .byte   PATT
  .word Label_01312831
@  #04 @025   ----------------------------------------
 .byte   PATT
  .word Label_01312825
@  #04 @026   ----------------------------------------
 .byte   PATT
  .word Label_01312831
@  #04 @027   ----------------------------------------
 .byte   PATT
  .word Label_01312825
@  #04 @028   ----------------------------------------
 .byte   PATT
  .word Label_01312831
@  #04 @029   ----------------------------------------
 .byte   PATT
  .word Label_01312825
@  #04 @030   ----------------------------------------
 .byte   PATT
  .word Label_01312831
@  #04 @031   ----------------------------------------
 .byte   PATT
  .word Label_01312825
@  #04 @032   ----------------------------------------
 .byte   PATT
  .word Label_01312831
@  #04 @033   ----------------------------------------
 .byte   PATT
  .word Label_01312825
@  #04 @034   ----------------------------------------
 .byte   PATT
  .word Label_01312831
@  #04 @035   ----------------------------------------
 .byte   PATT
  .word Label_01312825
@  #04 @036   ----------------------------------------
 .byte   PATT
  .word Label_01312831
@  #04 @037   ----------------------------------------
 .byte   PATT
  .word Label_01312825
@  #04 @038   ----------------------------------------
 .byte   PATT
  .word Label_01312831
@  #04 @039   ----------------------------------------
 .byte   PATT
  .word Label_01312825
@  #04 @040   ----------------------------------------
 .byte   PATT
  .word Label_01312831
@  #04 @041   ----------------------------------------
 .byte   PATT
  .word Label_01312825
@  #04 @042   ----------------------------------------
 .byte   PATT
  .word Label_01312831
@  #04 @043   ----------------------------------------
 .byte   PATT
  .word Label_01312825
@  #04 @044   ----------------------------------------
 .byte   PATT
  .word Label_01312831
@  #04 @045   ----------------------------------------
 .byte   PATT
  .word Label_01312825
@  #04 @046   ----------------------------------------
 .byte   PATT
  .word Label_01312831
@  #04 @047   ----------------------------------------
 .byte   PATT
  .word Label_01312825
@  #04 @048   ----------------------------------------
 .byte   PATT
  .word Label_01312831
@  #04 @049   ----------------------------------------
 .byte   PATT
  .word Label_01312825
@  #04 @050   ----------------------------------------
 .byte   PATT
  .word Label_01312831
@  #04 @051   ----------------------------------------
 .byte   PATT
  .word Label_01312825
@  #04 @052   ----------------------------------------
 .byte   PATT
  .word Label_01312831
@  #04 @053   ----------------------------------------
 .byte   PATT
  .word Label_01312825
@  #04 @054   ----------------------------------------
 .byte   PATT
  .word Label_01312831
@  #04 @055   ----------------------------------------
 .byte   PATT
  .word Label_01312825
@  #04 @056   ----------------------------------------
 .byte   PATT
  .word Label_01312831
@  #04 @057   ----------------------------------------
 .byte   PATT
  .word Label_01312825
@  #04 @058   ----------------------------------------
 .byte   PATT
  .word Label_01312831
@  #04 @059   ----------------------------------------
 .byte   PATT
  .word Label_01312825
@  #04 @060   ----------------------------------------
 .byte   PATT
  .word Label_01312831
@  #04 @061   ----------------------------------------
 .byte   PATT
  .word Label_01312825
@  #04 @062   ----------------------------------------
 .byte   PATT
  .word Label_01312831
@  #04 @063   ----------------------------------------
 .byte   PATT
  .word Label_01312825
@  #04 @064   ----------------------------------------
 .byte   GOTO
  .word Label_01312806
@  #04 @065   ----------------------------------------
 .byte   VOICE , 80
 .byte   PAN , c_v+0
 .byte   VOL , 42*InsideTheWhale_mvl/mxv
 .byte   PAN , c_v+0
 .byte   VOL , 42*InsideTheWhale_mvl/mxv
 .byte   PAN , c_v+0
 .byte   VOL , 42*InsideTheWhale_mvl/mxv
 .byte   BEND , c_v+0
 .byte   FINE

@**************** Track 5 (Midi-Chn.4) ****************@

InsideTheWhale_005:
@  #05 @000   ----------------------------------------
 .byte   KEYSH , InsideTheWhale_key+0
Label_01312986:
 .byte   VOICE , 80
 .byte   PAN , c_v+0
 .byte   VOL , 42*InsideTheWhale_mvl/mxv
 .byte   PAN , c_v+0
 .byte   VOL , 42*InsideTheWhale_mvl/mxv
 .byte   PAN , c_v+0
 .byte   VOL , 42*InsideTheWhale_mvl/mxv
 .byte   PAN , c_v+0
 .byte   VOL , 42*InsideTheWhale_mvl/mxv
 .byte   BEND , c_v+0
 .byte   W48
 .byte   N05 ,Gn4 ,v096
 .byte   W12
 .byte   As4
 .byte   W06
 .byte   Dn5
 .byte   W12
 .byte   Gn5
 .byte   W18
@  #05 @001   ----------------------------------------
Label_013129A5:
 .byte   W24
 .byte   N05 ,Gn4 ,v096
 .byte   W12
 .byte   As4 ,v100
 .byte   W06
 .byte   Dn5
 .byte   W12
 .byte   Gn4
 .byte   W42
 .byte   PEND 
@  #05 @002   ----------------------------------------
Label_013129B2:
 .byte   W48
 .byte   N05 ,Gn4 ,v096
 .byte   W12
 .byte   As4
 .byte   W06
 .byte   Dn5
 .byte   W12
 .byte   Gn5
 .byte   W18
 .byte   PEND 
@  #05 @003   ----------------------------------------
 .byte   PATT
  .word Label_013129A5
@  #05 @004   ----------------------------------------
 .byte   PATT
  .word Label_013129B2
@  #05 @005   ----------------------------------------
 .byte   PATT
  .word Label_013129A5
@  #05 @006   ----------------------------------------
 .byte   PATT
  .word Label_013129B2
@  #05 @007   ----------------------------------------
 .byte   PATT
  .word Label_013129A5
@  #05 @008   ----------------------------------------
 .byte   PATT
  .word Label_013129B2
@  #05 @009   ----------------------------------------
 .byte   PATT
  .word Label_013129A5
@  #05 @010   ----------------------------------------
 .byte   PATT
  .word Label_013129B2
@  #05 @011   ----------------------------------------
 .byte   PATT
  .word Label_013129A5
@  #05 @012   ----------------------------------------
 .byte   PATT
  .word Label_013129B2
@  #05 @013   ----------------------------------------
 .byte   PATT
  .word Label_013129A5
@  #05 @014   ----------------------------------------
 .byte   PATT
  .word Label_013129B2
@  #05 @015   ----------------------------------------
 .byte   PATT
  .word Label_013129A5
@  #05 @016   ----------------------------------------
 .byte   PATT
  .word Label_013129B2
@  #05 @017   ----------------------------------------
 .byte   PATT
  .word Label_013129A5
@  #05 @018   ----------------------------------------
 .byte   PATT
  .word Label_013129B2
@  #05 @019   ----------------------------------------
 .byte   PATT
  .word Label_013129A5
@  #05 @020   ----------------------------------------
 .byte   PATT
  .word Label_013129B2
@  #05 @021   ----------------------------------------
 .byte   PATT
  .word Label_013129A5
@  #05 @022   ----------------------------------------
 .byte   PATT
  .word Label_013129B2
@  #05 @023   ----------------------------------------
 .byte   PATT
  .word Label_013129A5
@  #05 @024   ----------------------------------------
 .byte   PATT
  .word Label_013129B2
@  #05 @025   ----------------------------------------
 .byte   PATT
  .word Label_013129A5
@  #05 @026   ----------------------------------------
 .byte   PATT
  .word Label_013129B2
@  #05 @027   ----------------------------------------
 .byte   PATT
  .word Label_013129A5
@  #05 @028   ----------------------------------------
 .byte   PATT
  .word Label_013129B2
@  #05 @029   ----------------------------------------
 .byte   PATT
  .word Label_013129A5
@  #05 @030   ----------------------------------------
 .byte   PATT
  .word Label_013129B2
@  #05 @031   ----------------------------------------
 .byte   PATT
  .word Label_013129A5
@  #05 @032   ----------------------------------------
 .byte   PATT
  .word Label_013129B2
@  #05 @033   ----------------------------------------
 .byte   PATT
  .word Label_013129A5
@  #05 @034   ----------------------------------------
 .byte   PATT
  .word Label_013129B2
@  #05 @035   ----------------------------------------
 .byte   PATT
  .word Label_013129A5
@  #05 @036   ----------------------------------------
 .byte   PATT
  .word Label_013129B2
@  #05 @037   ----------------------------------------
 .byte   PATT
  .word Label_013129A5
@  #05 @038   ----------------------------------------
 .byte   PATT
  .word Label_013129B2
@  #05 @039   ----------------------------------------
 .byte   PATT
  .word Label_013129A5
@  #05 @040   ----------------------------------------
 .byte   PATT
  .word Label_013129B2
@  #05 @041   ----------------------------------------
 .byte   PATT
  .word Label_013129A5
@  #05 @042   ----------------------------------------
 .byte   PATT
  .word Label_013129B2
@  #05 @043   ----------------------------------------
 .byte   PATT
  .word Label_013129A5
@  #05 @044   ----------------------------------------
 .byte   PATT
  .word Label_013129B2
@  #05 @045   ----------------------------------------
 .byte   PATT
  .word Label_013129A5
@  #05 @046   ----------------------------------------
 .byte   PATT
  .word Label_013129B2
@  #05 @047   ----------------------------------------
 .byte   PATT
  .word Label_013129A5
@  #05 @048   ----------------------------------------
 .byte   PATT
  .word Label_013129B2
@  #05 @049   ----------------------------------------
 .byte   PATT
  .word Label_013129A5
@  #05 @050   ----------------------------------------
 .byte   PATT
  .word Label_013129B2
@  #05 @051   ----------------------------------------
 .byte   PATT
  .word Label_013129A5
@  #05 @052   ----------------------------------------
 .byte   PATT
  .word Label_013129B2
@  #05 @053   ----------------------------------------
 .byte   PATT
  .word Label_013129A5
@  #05 @054   ----------------------------------------
 .byte   PATT
  .word Label_013129B2
@  #05 @055   ----------------------------------------
 .byte   PATT
  .word Label_013129A5
@  #05 @056   ----------------------------------------
 .byte   PATT
  .word Label_013129B2
@  #05 @057   ----------------------------------------
 .byte   PATT
  .word Label_013129A5
@  #05 @058   ----------------------------------------
 .byte   PATT
  .word Label_013129B2
@  #05 @059   ----------------------------------------
 .byte   PATT
  .word Label_013129A5
@  #05 @060   ----------------------------------------
 .byte   PATT
  .word Label_013129B2
@  #05 @061   ----------------------------------------
 .byte   PATT
  .word Label_013129A5
@  #05 @062   ----------------------------------------
 .byte   PATT
  .word Label_013129B2
@  #05 @063   ----------------------------------------
 .byte   PATT
  .word Label_013129A5
@  #05 @064   ----------------------------------------
 .byte   GOTO
  .word Label_01312986
@  #05 @065   ----------------------------------------
 .byte   VOICE , 80
 .byte   PAN , c_v+0
 .byte   VOL , 42*InsideTheWhale_mvl/mxv
 .byte   PAN , c_v+0
 .byte   VOL , 42*InsideTheWhale_mvl/mxv
 .byte   PAN , c_v+0
 .byte   VOL , 42*InsideTheWhale_mvl/mxv
 .byte   BEND , c_v+0
 .byte   FINE

@**************** Track 6 (Midi-Chn.5) ****************@

InsideTheWhale_006:
@  #06 @000   ----------------------------------------
 .byte   KEYSH , InsideTheWhale_key+0
Label_01312B0A:
 .byte   VOICE , 80
 .byte   PAN , c_v+0
 .byte   VOL , 42*InsideTheWhale_mvl/mxv
 .byte   PAN , c_v+0
 .byte   VOL , 42*InsideTheWhale_mvl/mxv
 .byte   PAN , c_v+0
 .byte   VOL , 42*InsideTheWhale_mvl/mxv
 .byte   PAN , c_v+0
 .byte   VOL , 42*InsideTheWhale_mvl/mxv
 .byte   BEND , c_v+0
 .byte   W60
 .byte   N05 ,Gn4 ,v064
 .byte   W12
 .byte   As4
 .byte   W06
 .byte   Dn5
 .byte   W12
 .byte   Gn5
 .byte   W06
@  #06 @001   ----------------------------------------
Label_01312B29:
 .byte   W36
 .byte   N05 ,Gn4 ,v064
 .byte   W12
 .byte   As4
 .byte   W06
 .byte   Dn5
 .byte   W12
 .byte   Gn4
 .byte   W30
 .byte   PEND 
@  #06 @002   ----------------------------------------
Label_01312B35:
 .byte   W60
 .byte   N05 ,Gn4 ,v064
 .byte   W12
 .byte   As4
 .byte   W06
 .byte   Dn5
 .byte   W12
 .byte   Gn5
 .byte   W06
 .byte   PEND 
@  #06 @003   ----------------------------------------
 .byte   PATT
  .word Label_01312B29
@  #06 @004   ----------------------------------------
 .byte   PATT
  .word Label_01312B35
@  #06 @005   ----------------------------------------
 .byte   PATT
  .word Label_01312B29
@  #06 @006   ----------------------------------------
 .byte   PATT
  .word Label_01312B35
@  #06 @007   ----------------------------------------
 .byte   PATT
  .word Label_01312B29
@  #06 @008   ----------------------------------------
 .byte   PATT
  .word Label_01312B35
@  #06 @009   ----------------------------------------
 .byte   PATT
  .word Label_01312B29
@  #06 @010   ----------------------------------------
 .byte   PATT
  .word Label_01312B35
@  #06 @011   ----------------------------------------
 .byte   PATT
  .word Label_01312B29
@  #06 @012   ----------------------------------------
 .byte   PATT
  .word Label_01312B35
@  #06 @013   ----------------------------------------
 .byte   PATT
  .word Label_01312B29
@  #06 @014   ----------------------------------------
 .byte   PATT
  .word Label_01312B35
@  #06 @015   ----------------------------------------
 .byte   PATT
  .word Label_01312B29
@  #06 @016   ----------------------------------------
 .byte   PATT
  .word Label_01312B35
@  #06 @017   ----------------------------------------
 .byte   PATT
  .word Label_01312B29
@  #06 @018   ----------------------------------------
 .byte   PATT
  .word Label_01312B35
@  #06 @019   ----------------------------------------
 .byte   PATT
  .word Label_01312B29
@  #06 @020   ----------------------------------------
 .byte   PATT
  .word Label_01312B35
@  #06 @021   ----------------------------------------
 .byte   PATT
  .word Label_01312B29
@  #06 @022   ----------------------------------------
 .byte   PATT
  .word Label_01312B35
@  #06 @023   ----------------------------------------
 .byte   PATT
  .word Label_01312B29
@  #06 @024   ----------------------------------------
 .byte   PATT
  .word Label_01312B35
@  #06 @025   ----------------------------------------
 .byte   PATT
  .word Label_01312B29
@  #06 @026   ----------------------------------------
 .byte   PATT
  .word Label_01312B35
@  #06 @027   ----------------------------------------
 .byte   PATT
  .word Label_01312B29
@  #06 @028   ----------------------------------------
 .byte   PATT
  .word Label_01312B35
@  #06 @029   ----------------------------------------
 .byte   PATT
  .word Label_01312B29
@  #06 @030   ----------------------------------------
 .byte   PATT
  .word Label_01312B35
@  #06 @031   ----------------------------------------
 .byte   PATT
  .word Label_01312B29
@  #06 @032   ----------------------------------------
 .byte   PATT
  .word Label_01312B35
@  #06 @033   ----------------------------------------
 .byte   PATT
  .word Label_01312B29
@  #06 @034   ----------------------------------------
 .byte   PATT
  .word Label_01312B35
@  #06 @035   ----------------------------------------
 .byte   PATT
  .word Label_01312B29
@  #06 @036   ----------------------------------------
 .byte   PATT
  .word Label_01312B35
@  #06 @037   ----------------------------------------
 .byte   PATT
  .word Label_01312B29
@  #06 @038   ----------------------------------------
 .byte   PATT
  .word Label_01312B35
@  #06 @039   ----------------------------------------
 .byte   PATT
  .word Label_01312B29
@  #06 @040   ----------------------------------------
 .byte   PATT
  .word Label_01312B35
@  #06 @041   ----------------------------------------
 .byte   PATT
  .word Label_01312B29
@  #06 @042   ----------------------------------------
 .byte   PATT
  .word Label_01312B35
@  #06 @043   ----------------------------------------
 .byte   PATT
  .word Label_01312B29
@  #06 @044   ----------------------------------------
 .byte   PATT
  .word Label_01312B35
@  #06 @045   ----------------------------------------
 .byte   PATT
  .word Label_01312B29
@  #06 @046   ----------------------------------------
 .byte   PATT
  .word Label_01312B35
@  #06 @047   ----------------------------------------
 .byte   PATT
  .word Label_01312B29
@  #06 @048   ----------------------------------------
 .byte   PATT
  .word Label_01312B35
@  #06 @049   ----------------------------------------
 .byte   PATT
  .word Label_01312B29
@  #06 @050   ----------------------------------------
 .byte   PATT
  .word Label_01312B35
@  #06 @051   ----------------------------------------
 .byte   PATT
  .word Label_01312B29
@  #06 @052   ----------------------------------------
 .byte   PATT
  .word Label_01312B35
@  #06 @053   ----------------------------------------
 .byte   PATT
  .word Label_01312B29
@  #06 @054   ----------------------------------------
 .byte   PATT
  .word Label_01312B35
@  #06 @055   ----------------------------------------
 .byte   PATT
  .word Label_01312B29
@  #06 @056   ----------------------------------------
 .byte   PATT
  .word Label_01312B35
@  #06 @057   ----------------------------------------
 .byte   PATT
  .word Label_01312B29
@  #06 @058   ----------------------------------------
 .byte   PATT
  .word Label_01312B35
@  #06 @059   ----------------------------------------
 .byte   PATT
  .word Label_01312B29
@  #06 @060   ----------------------------------------
 .byte   PATT
  .word Label_01312B35
@  #06 @061   ----------------------------------------
 .byte   PATT
  .word Label_01312B29
@  #06 @062   ----------------------------------------
 .byte   PATT
  .word Label_01312B35
@  #06 @063   ----------------------------------------
 .byte   PATT
  .word Label_01312B29
@  #06 @064   ----------------------------------------
 .byte   GOTO
  .word Label_01312B0A
@  #06 @065   ----------------------------------------
 .byte   VOICE , 80
 .byte   PAN , c_v+0
 .byte   VOL , 42*InsideTheWhale_mvl/mxv
 .byte   PAN , c_v+0
 .byte   VOL , 42*InsideTheWhale_mvl/mxv
 .byte   PAN , c_v+0
 .byte   VOL , 42*InsideTheWhale_mvl/mxv
 .byte   BEND , c_v+0
 .byte   FINE

@**************** Track 7 (Midi-Chn.6) ****************@

InsideTheWhale_007:
@  #07 @000   ----------------------------------------
 .byte   KEYSH , InsideTheWhale_key+0
Label_01312C8A:
 .byte   VOICE , 127
 .byte   PAN , c_v+0
 .byte   VOL , 42*InsideTheWhale_mvl/mxv
 .byte   PAN , c_v+0
 .byte   VOL , 42*InsideTheWhale_mvl/mxv
 .byte   PAN , c_v+0
 .byte   VOL , 42*InsideTheWhale_mvl/mxv
 .byte   PAN , c_v+0
 .byte   VOL , 42*InsideTheWhale_mvl/mxv
 .byte   BEND , c_v+0
 .byte   N05 ,Cn1 ,v127
 .byte   N05 ,Cs2
 .byte   W06
 .byte   Fs1
 .byte   W06
 .byte   As1
 .byte   W12
 .byte   Cn1
 .byte   N05 ,En1
 .byte   N05 ,Fs1
 .byte   W06
 .byte   N05
 .byte   W06
 .byte   As1
 .byte   W06
 .byte   En1 ,v084
 .byte   W06
 .byte   Cn1 ,v127
 .byte   N05 ,Fs1
 .byte   W06
 .byte   N05
 .byte   W06
 .byte   As1
 .byte   W12
 .byte   Cn1
 .byte   N05 ,En1
 .byte   N05 ,Fs1
 .byte   W06
 .byte   N05
 .byte   W06
 .byte   As1
 .byte   W12
@  #07 @001   ----------------------------------------
Label_01312CC8:
 .byte   N05 ,Cn1 ,v127
 .byte   N05 ,Fs1
 .byte   W06
 .byte   N05
 .byte   W06
 .byte   As1
 .byte   W12
 .byte   Cn1
 .byte   N05 ,En1
 .byte   N05 ,Fs1
 .byte   W06
 .byte   N05
 .byte   W06
 .byte   As1
 .byte   W06
 .byte   En1 ,v084
 .byte   W06
 .byte   Cn1 ,v127
 .byte   N05 ,Fs1
 .byte   W06
 .byte   N05
 .byte   W06
 .byte   As1
 .byte   W12
 .byte   Cn1
 .byte   N05 ,En1
 .byte   N05 ,Fs1
 .byte   W06
 .byte   N05
 .byte   W06
 .byte   As1
 .byte   W12
 .byte   PEND 
@  #07 @002   ----------------------------------------
 .byte   PATT
  .word Label_01312CC8
@  #07 @003   ----------------------------------------
 .byte   PATT
  .word Label_01312CC8
@  #07 @004   ----------------------------------------
 .byte   PATT
  .word Label_01312CC8
@  #07 @005   ----------------------------------------
 .byte   PATT
  .word Label_01312CC8
@  #07 @006   ----------------------------------------
 .byte   PATT
  .word Label_01312CC8
@  #07 @007   ----------------------------------------
Label_01312D0C:
 .byte   N05 ,Cn1 ,v127
 .byte   N05 ,Fs1
 .byte   W06
 .byte   N05
 .byte   W06
 .byte   As1
 .byte   W12
 .byte   Cn1
 .byte   N05 ,En1
 .byte   N05 ,Fs1
 .byte   W06
 .byte   N05
 .byte   W06
 .byte   As1
 .byte   W06
 .byte   En1 ,v084
 .byte   W06
 .byte   Cn1 ,v127
 .byte   N05 ,Fs1
 .byte   W06
 .byte   Dn1
 .byte   N05 ,Fs1
 .byte   W06
 .byte   Dn1
 .byte   N05 ,As1
 .byte   W12
 .byte   Cn1
 .byte   N05 ,Dn1
 .byte   N05 ,En1
 .byte   N05 ,Fs1
 .byte   W06
 .byte   Dn1
 .byte   N05 ,Fs1
 .byte   W06
 .byte   Dn1
 .byte   N05 ,As1
 .byte   W06
 .byte   Dn1
 .byte   W06
 .byte   PEND 
@  #07 @008   ----------------------------------------
Label_01312D43:
 .byte   N05 ,Cn1 ,v127
 .byte   N05 ,Cs2
 .byte   W06
 .byte   Fs1
 .byte   W06
 .byte   As1
 .byte   W12
 .byte   Cn1
 .byte   N05 ,En1
 .byte   N05 ,Fs1
 .byte   W06
 .byte   N05
 .byte   W06
 .byte   As1
 .byte   W06
 .byte   En1 ,v084
 .byte   W06
 .byte   Cn1 ,v127
 .byte   N05 ,Fs1
 .byte   W06
 .byte   N05
 .byte   W06
 .byte   As1
 .byte   W12
 .byte   Cn1
 .byte   N05 ,En1
 .byte   N05 ,Fs1
 .byte   W06
 .byte   N05
 .byte   W06
 .byte   As1
 .byte   W12
 .byte   PEND 
@  #07 @009   ----------------------------------------
 .byte   PATT
  .word Label_01312CC8
@  #07 @010   ----------------------------------------
 .byte   PATT
  .word Label_01312CC8
@  #07 @011   ----------------------------------------
 .byte   PATT
  .word Label_01312CC8
@  #07 @012   ----------------------------------------
 .byte   PATT
  .word Label_01312CC8
@  #07 @013   ----------------------------------------
 .byte   PATT
  .word Label_01312CC8
@  #07 @014   ----------------------------------------
 .byte   PATT
  .word Label_01312CC8
@  #07 @015   ----------------------------------------
Label_01312D8C:
 .byte   N05 ,En1 ,v127
 .byte   W06
 .byte   N05
 .byte   W12
 .byte   N05
 .byte   W06
 .byte   N05
 .byte   W06
 .byte   N05
 .byte   W12
 .byte   N05
 .byte   W06
 .byte   N05
 .byte   W06
 .byte   N05
 .byte   W12
 .byte   N05
 .byte   W06
 .byte   N05
 .byte   W06
 .byte   N05
 .byte   W12
 .byte   N05
 .byte   W06
 .byte   PEND 
@  #07 @016   ----------------------------------------
 .byte   PATT
  .word Label_01312D43
@  #07 @017   ----------------------------------------
 .byte   PATT
  .word Label_01312CC8
@  #07 @018   ----------------------------------------
 .byte   PATT
  .word Label_01312CC8
@  #07 @019   ----------------------------------------
 .byte   PATT
  .word Label_01312CC8
@  #07 @020   ----------------------------------------
 .byte   PATT
  .word Label_01312CC8
@  #07 @021   ----------------------------------------
 .byte   PATT
  .word Label_01312CC8
@  #07 @022   ----------------------------------------
 .byte   PATT
  .word Label_01312CC8
@  #07 @023   ----------------------------------------
 .byte   PATT
  .word Label_01312D0C
@  #07 @024   ----------------------------------------
 .byte   PATT
  .word Label_01312D43
@  #07 @025   ----------------------------------------
 .byte   PATT
  .word Label_01312CC8
@  #07 @026   ----------------------------------------
 .byte   PATT
  .word Label_01312CC8
@  #07 @027   ----------------------------------------
 .byte   PATT
  .word Label_01312CC8
@  #07 @028   ----------------------------------------
 .byte   PATT
  .word Label_01312CC8
@  #07 @029   ----------------------------------------
 .byte   PATT
  .word Label_01312CC8
@  #07 @030   ----------------------------------------
 .byte   PATT
  .word Label_01312CC8
@  #07 @031   ----------------------------------------
Label_01312DF2:
 .byte   N05 ,Fs1 ,v127
 .byte   W06
 .byte   N05
 .byte   W06
 .byte   As1
 .byte   W12
 .byte   En1
 .byte   N05 ,Fs1
 .byte   W06
 .byte   N05
 .byte   W06
 .byte   As1
 .byte   W06
 .byte   En1 ,v084
 .byte   W06
 .byte   Fs1 ,v127
 .byte   W06
 .byte   Dn1
 .byte   N05 ,Ds1
 .byte   N05 ,Fs1
 .byte   W06
 .byte   Dn1
 .byte   N05 ,Ds1
 .byte   N05 ,As1
 .byte   W12
 .byte   Dn1
 .byte   N05 ,Ds1
 .byte   N05 ,En1
 .byte   N05 ,Fs1
 .byte   W06
 .byte   Dn1
 .byte   N05 ,Ds1
 .byte   N05 ,Fs1
 .byte   W06
 .byte   Dn1
 .byte   N05 ,Ds1
 .byte   N05 ,As1
 .byte   W06
 .byte   Dn1
 .byte   N05 ,Ds1
 .byte   W06
 .byte   PEND 
@  #07 @032   ----------------------------------------
 .byte   PATT
  .word Label_01312D43
@  #07 @033   ----------------------------------------
 .byte   PATT
  .word Label_01312CC8
@  #07 @034   ----------------------------------------
 .byte   PATT
  .word Label_01312CC8
@  #07 @035   ----------------------------------------
 .byte   PATT
  .word Label_01312CC8
@  #07 @036   ----------------------------------------
 .byte   PATT
  .word Label_01312CC8
@  #07 @037   ----------------------------------------
 .byte   PATT
  .word Label_01312CC8
@  #07 @038   ----------------------------------------
 .byte   PATT
  .word Label_01312CC8
@  #07 @039   ----------------------------------------
 .byte   PATT
  .word Label_01312D0C
@  #07 @040   ----------------------------------------
 .byte   PATT
  .word Label_01312D43
@  #07 @041   ----------------------------------------
 .byte   PATT
  .word Label_01312CC8
@  #07 @042   ----------------------------------------
 .byte   PATT
  .word Label_01312CC8
@  #07 @043   ----------------------------------------
 .byte   PATT
  .word Label_01312CC8
@  #07 @044   ----------------------------------------
 .byte   PATT
  .word Label_01312CC8
@  #07 @045   ----------------------------------------
 .byte   PATT
  .word Label_01312CC8
@  #07 @046   ----------------------------------------
 .byte   PATT
  .word Label_01312CC8
@  #07 @047   ----------------------------------------
 .byte   PATT
  .word Label_01312D8C
@  #07 @048   ----------------------------------------
 .byte   PATT
  .word Label_01312D43
@  #07 @049   ----------------------------------------
 .byte   PATT
  .word Label_01312CC8
@  #07 @050   ----------------------------------------
 .byte   PATT
  .word Label_01312CC8
@  #07 @051   ----------------------------------------
 .byte   PATT
  .word Label_01312CC8
@  #07 @052   ----------------------------------------
 .byte   PATT
  .word Label_01312CC8
@  #07 @053   ----------------------------------------
 .byte   PATT
  .word Label_01312CC8
@  #07 @054   ----------------------------------------
 .byte   PATT
  .word Label_01312CC8
@  #07 @055   ----------------------------------------
 .byte   PATT
  .word Label_01312D0C
@  #07 @056   ----------------------------------------
 .byte   PATT
  .word Label_01312D43
@  #07 @057   ----------------------------------------
 .byte   PATT
  .word Label_01312CC8
@  #07 @058   ----------------------------------------
 .byte   PATT
  .word Label_01312CC8
@  #07 @059   ----------------------------------------
 .byte   PATT
  .word Label_01312CC8
@  #07 @060   ----------------------------------------
 .byte   PATT
  .word Label_01312CC8
@  #07 @061   ----------------------------------------
 .byte   PATT
  .word Label_01312CC8
@  #07 @062   ----------------------------------------
 .byte   PATT
  .word Label_01312CC8
@  #07 @063   ----------------------------------------
 .byte   PATT
  .word Label_01312DF2
@  #07 @064   ----------------------------------------
 .byte   GOTO
  .word Label_01312C8A
@  #07 @065   ----------------------------------------
 .byte   VOICE , 127
 .byte   PAN , c_v+0
 .byte   VOL , 42*InsideTheWhale_mvl/mxv
 .byte   PAN , c_v+0
 .byte   VOL , 42*InsideTheWhale_mvl/mxv
 .byte   PAN , c_v+0
 .byte   VOL , 42*InsideTheWhale_mvl/mxv
 .byte   BEND , c_v+0
 .byte   FINE

@**************** Track 8 (Midi-Chn.7) ****************@

InsideTheWhale_008:
@  #08 @000   ----------------------------------------
 .byte   KEYSH , InsideTheWhale_key+0
Label_01312EE6:
 .byte   VOICE , 48
 .byte   PAN , c_v+0
 .byte   VOL , 42*InsideTheWhale_mvl/mxv
 .byte   PAN , c_v+0
 .byte   VOL , 42*InsideTheWhale_mvl/mxv
 .byte   PAN , c_v+0
 .byte   VOL , 42*InsideTheWhale_mvl/mxv
 .byte   PAN , c_v+0
 .byte   VOL , 42*InsideTheWhale_mvl/mxv
 .byte   BEND , c_v+0
 .byte   W96
@  #08 @001   ----------------------------------------
 .byte   W96
@  #08 @002   ----------------------------------------
 .byte   W96
@  #08 @003   ----------------------------------------
 .byte   W96
@  #08 @004   ----------------------------------------
 .byte   W96
@  #08 @005   ----------------------------------------
 .byte   W96
@  #08 @006   ----------------------------------------
 .byte   W96
@  #08 @007   ----------------------------------------
 .byte   W96
@  #08 @008   ----------------------------------------
 .byte   W96
@  #08 @009   ----------------------------------------
 .byte   W96
@  #08 @010   ----------------------------------------
 .byte   W96
@  #08 @011   ----------------------------------------
 .byte   W96
@  #08 @012   ----------------------------------------
 .byte   W96
@  #08 @013   ----------------------------------------
 .byte   W96
@  #08 @014   ----------------------------------------
 .byte   W96
@  #08 @015   ----------------------------------------
Label_01312F09:
 .byte   N92 ,As3 ,v127
 .byte   N92 ,Cs4
 .byte   N92 ,Fn4
 .byte   W96
 .byte   PEND 
@  #08 @016   ----------------------------------------
 .byte   W96
@  #08 @017   ----------------------------------------
 .byte   W96
@  #08 @018   ----------------------------------------
 .byte   W96
@  #08 @019   ----------------------------------------
 .byte   W96
@  #08 @020   ----------------------------------------
 .byte   W96
@  #08 @021   ----------------------------------------
 .byte   W96
@  #08 @022   ----------------------------------------
 .byte   W96
@  #08 @023   ----------------------------------------
 .byte   W96
@  #08 @024   ----------------------------------------
 .byte   W96
@  #08 @025   ----------------------------------------
 .byte   W96
@  #08 @026   ----------------------------------------
 .byte   W96
@  #08 @027   ----------------------------------------
 .byte   W96
@  #08 @028   ----------------------------------------
 .byte   W96
@  #08 @029   ----------------------------------------
 .byte   W96
@  #08 @030   ----------------------------------------
 .byte   W96
@  #08 @031   ----------------------------------------
 .byte   W96
@  #08 @032   ----------------------------------------
 .byte   W96
@  #08 @033   ----------------------------------------
 .byte   W96
@  #08 @034   ----------------------------------------
 .byte   W96
@  #08 @035   ----------------------------------------
 .byte   W96
@  #08 @036   ----------------------------------------
 .byte   W96
@  #08 @037   ----------------------------------------
 .byte   W96
@  #08 @038   ----------------------------------------
 .byte   W96
@  #08 @039   ----------------------------------------
 .byte   W96
@  #08 @040   ----------------------------------------
 .byte   W96
@  #08 @041   ----------------------------------------
 .byte   W96
@  #08 @042   ----------------------------------------
 .byte   W96
@  #08 @043   ----------------------------------------
 .byte   W96
@  #08 @044   ----------------------------------------
 .byte   W96
@  #08 @045   ----------------------------------------
 .byte   W96
@  #08 @046   ----------------------------------------
 .byte   W96
@  #08 @047   ----------------------------------------
 .byte   PATT
  .word Label_01312F09
@  #08 @048   ----------------------------------------
 .byte   W96
@  #08 @049   ----------------------------------------
 .byte   W96
@  #08 @050   ----------------------------------------
 .byte   W96
@  #08 @051   ----------------------------------------
 .byte   W96
@  #08 @052   ----------------------------------------
 .byte   W96
@  #08 @053   ----------------------------------------
 .byte   W96
@  #08 @054   ----------------------------------------
 .byte   W96
@  #08 @055   ----------------------------------------
 .byte   W96
@  #08 @056   ----------------------------------------
 .byte   W96
@  #08 @057   ----------------------------------------
 .byte   W96
@  #08 @058   ----------------------------------------
 .byte   W96
@  #08 @059   ----------------------------------------
 .byte   W96
@  #08 @060   ----------------------------------------
 .byte   W96
@  #08 @061   ----------------------------------------
 .byte   W96
@  #08 @062   ----------------------------------------
 .byte   W96
@  #08 @063   ----------------------------------------
 .byte   W96
@  #08 @064   ----------------------------------------
 .byte   GOTO
  .word Label_01312EE6
@  #08 @065   ----------------------------------------
 .byte   VOICE , 48
 .byte   PAN , c_v+0
 .byte   VOL , 42*InsideTheWhale_mvl/mxv
 .byte   PAN , c_v+0
 .byte   VOL , 42*InsideTheWhale_mvl/mxv
 .byte   PAN , c_v+0
 .byte   VOL , 42*InsideTheWhale_mvl/mxv
 .byte   BEND , c_v+0
 .byte   FINE

@******************************************************@
	.align	2

InsideTheWhale:
	.byte	8	@ NumTrks
	.byte	0	@ NumBlks
	.byte	InsideTheWhale_pri	@ Priority
	.byte	InsideTheWhale_rev	@ Reverb.
    
	.word	InsideTheWhale_grp
    
	.word	InsideTheWhale_001
	.word	InsideTheWhale_002
	.word	InsideTheWhale_003
	.word	InsideTheWhale_004
	.word	InsideTheWhale_005
	.word	InsideTheWhale_006
	.word	InsideTheWhale_007
	.word	InsideTheWhale_008

	.end
