//Event file generated from Sappy .s format.
	

	#define	InsideTheWhale_grp  voicegroup000
	#define	InsideTheWhale_pri  0
	#define	InsideTheWhale_rev  0
	#define	InsideTheWhale_mvl  127
	#define	InsideTheWhale_key  0
	#define	InsideTheWhale_tbs  1
	#define	InsideTheWhale_exg  0
	#define	InsideTheWhale_cmp  1

	// .rodata
	//	InsideTheWhale
	ALIGN 4


//**************** Track 1 (Midi-Chn.0) ****************//

InsideTheWhale_001:
//  #01 //000   ----------------------------------------
 BYTE   KEYSH   InsideTheWhale_key+0
Label_01312382:
 BYTE   TEMPO   120*InsideTheWhale_tbs/2
 BYTE   VOICE   34
 BYTE   PAN   c_v+0
 BYTE   VOL   42*InsideTheWhale_mvl/mxv
 BYTE   PAN   c_v+0
 BYTE   VOL   42*InsideTheWhale_mvl/mxv
 BYTE   PAN   c_v+0
 BYTE   VOL   42*InsideTheWhale_mvl/mxv
 BYTE   PAN   c_v+0
 BYTE   VOL   42*InsideTheWhale_mvl/mxv
 BYTE   BEND   c_v+0
 BYTE   N11  Cn2  v127
 BYTE   W12
 BYTE   Gn1
 BYTE   W12
 BYTE   As1
 BYTE   W12
 BYTE   N05  Gn1
 BYTE   W06
 BYTE   N11  Cn2
 BYTE   W12
 BYTE   N05  Gn1
 BYTE   W06
 BYTE   N11  As1
 BYTE   W12
 BYTE   Cn2
 BYTE   W12
 BYTE   As1
 BYTE   W12
//  #01 //001   ----------------------------------------
Label_013123B0:
 BYTE   N11  Cn2  v127
 BYTE   W12
 BYTE   Gn1
 BYTE   W12
 BYTE   As1
 BYTE   W12
 BYTE   N05  Gn1
 BYTE   W06
 BYTE   N11  Cn2
 BYTE   W12
 BYTE   N05  Gn1
 BYTE   W06
 BYTE   N11  As1
 BYTE   W12
 BYTE   Cn2
 BYTE   W12
 BYTE   As1
 BYTE   W12
 BYTE   PEND 
//  #01 //002   ----------------------------------------
 BYTE   PATT
  POIN2 Label_013123B0
//  #01 //003   ----------------------------------------
Label_013123CE:
 BYTE   N11  Cn2  v127
 BYTE   W12
 BYTE   Gn1
 BYTE   W12
 BYTE   As1
 BYTE   W12
 BYTE   N05  Gn1
 BYTE   W06
 BYTE   N11  Cn2
 BYTE   W12
 BYTE   N05  Gn1
 BYTE   W06
 BYTE   Cn2
 BYTE   W06
 BYTE   N11  Dn2
 BYTE   W12
 BYTE   N05  An1
 BYTE   W06
 BYTE   N11  Dn2
 BYTE   W12
 BYTE   PEND 
//  #01 //004   ----------------------------------------
Label_013123EB:
 BYTE   N11  As1  v127
 BYTE   W12
 BYTE   Fn1
 BYTE   W12
 BYTE   Gs1
 BYTE   W12
 BYTE   N05  Fn1
 BYTE   W06
 BYTE   N11  As1
 BYTE   W12
 BYTE   N05  Fn1
 BYTE   W06
 BYTE   N11  Gs1
 BYTE   W12
 BYTE   As1
 BYTE   W12
 BYTE   Gs1
 BYTE   W12
 BYTE   PEND 
//  #01 //005   ----------------------------------------
 BYTE   PATT
  POIN2 Label_013123EB
//  #01 //006   ----------------------------------------
 BYTE   PATT
  POIN2 Label_013123EB
//  #01 //007   ----------------------------------------
 BYTE   PATT
  POIN2 Label_013123EB
//  #01 //008   ----------------------------------------
 BYTE   PATT
  POIN2 Label_013123B0
//  #01 //009   ----------------------------------------
 BYTE   PATT
  POIN2 Label_013123B0
//  #01 //010   ----------------------------------------
 BYTE   PATT
  POIN2 Label_013123B0
//  #01 //011   ----------------------------------------
 BYTE   PATT
  POIN2 Label_013123CE
//  #01 //012   ----------------------------------------
 BYTE   PATT
  POIN2 Label_013123EB
//  #01 //013   ----------------------------------------
 BYTE   PATT
  POIN2 Label_013123EB
//  #01 //014   ----------------------------------------
 BYTE   PATT
  POIN2 Label_013123EB
//  #01 //015   ----------------------------------------
 BYTE   W96
//  #01 //016   ----------------------------------------
 BYTE   PATT
  POIN2 Label_013123B0
//  #01 //017   ----------------------------------------
 BYTE   PATT
  POIN2 Label_013123B0
//  #01 //018   ----------------------------------------
 BYTE   PATT
  POIN2 Label_013123B0
//  #01 //019   ----------------------------------------
 BYTE   PATT
  POIN2 Label_013123CE
//  #01 //020   ----------------------------------------
 BYTE   PATT
  POIN2 Label_013123EB
//  #01 //021   ----------------------------------------
 BYTE   PATT
  POIN2 Label_013123EB
//  #01 //022   ----------------------------------------
 BYTE   PATT
  POIN2 Label_013123EB
//  #01 //023   ----------------------------------------
 BYTE   PATT
  POIN2 Label_013123EB
//  #01 //024   ----------------------------------------
 BYTE   PATT
  POIN2 Label_013123B0
//  #01 //025   ----------------------------------------
 BYTE   PATT
  POIN2 Label_013123B0
//  #01 //026   ----------------------------------------
 BYTE   PATT
  POIN2 Label_013123B0
//  #01 //027   ----------------------------------------
 BYTE   PATT
  POIN2 Label_013123CE
//  #01 //028   ----------------------------------------
 BYTE   PATT
  POIN2 Label_013123B0
//  #01 //029   ----------------------------------------
 BYTE   PATT
  POIN2 Label_013123B0
//  #01 //030   ----------------------------------------
 BYTE   PATT
  POIN2 Label_013123B0
//  #01 //031   ----------------------------------------
 BYTE   W96
//  #01 //032   ----------------------------------------
 BYTE   PATT
  POIN2 Label_013123B0
//  #01 //033   ----------------------------------------
 BYTE   PATT
  POIN2 Label_013123B0
//  #01 //034   ----------------------------------------
 BYTE   PATT
  POIN2 Label_013123B0
//  #01 //035   ----------------------------------------
 BYTE   PATT
  POIN2 Label_013123CE
//  #01 //036   ----------------------------------------
 BYTE   PATT
  POIN2 Label_013123EB
//  #01 //037   ----------------------------------------
 BYTE   PATT
  POIN2 Label_013123EB
//  #01 //038   ----------------------------------------
 BYTE   PATT
  POIN2 Label_013123EB
//  #01 //039   ----------------------------------------
 BYTE   PATT
  POIN2 Label_013123EB
//  #01 //040   ----------------------------------------
 BYTE   PATT
  POIN2 Label_013123B0
//  #01 //041   ----------------------------------------
 BYTE   PATT
  POIN2 Label_013123B0
//  #01 //042   ----------------------------------------
 BYTE   PATT
  POIN2 Label_013123B0
//  #01 //043   ----------------------------------------
 BYTE   PATT
  POIN2 Label_013123CE
//  #01 //044   ----------------------------------------
 BYTE   PATT
  POIN2 Label_013123EB
//  #01 //045   ----------------------------------------
 BYTE   PATT
  POIN2 Label_013123EB
//  #01 //046   ----------------------------------------
 BYTE   PATT
  POIN2 Label_013123EB
//  #01 //047   ----------------------------------------
 BYTE   W96
//  #01 //048   ----------------------------------------
 BYTE   PATT
  POIN2 Label_013123B0
//  #01 //049   ----------------------------------------
 BYTE   PATT
  POIN2 Label_013123B0
//  #01 //050   ----------------------------------------
 BYTE   PATT
  POIN2 Label_013123B0
//  #01 //051   ----------------------------------------
 BYTE   PATT
  POIN2 Label_013123CE
//  #01 //052   ----------------------------------------
 BYTE   PATT
  POIN2 Label_013123EB
//  #01 //053   ----------------------------------------
 BYTE   PATT
  POIN2 Label_013123EB
//  #01 //054   ----------------------------------------
 BYTE   PATT
  POIN2 Label_013123EB
//  #01 //055   ----------------------------------------
 BYTE   PATT
  POIN2 Label_013123EB
//  #01 //056   ----------------------------------------
 BYTE   PATT
  POIN2 Label_013123B0
//  #01 //057   ----------------------------------------
 BYTE   PATT
  POIN2 Label_013123B0
//  #01 //058   ----------------------------------------
 BYTE   PATT
  POIN2 Label_013123B0
//  #01 //059   ----------------------------------------
 BYTE   PATT
  POIN2 Label_013123CE
//  #01 //060   ----------------------------------------
 BYTE   PATT
  POIN2 Label_013123B0
//  #01 //061   ----------------------------------------
 BYTE   PATT
  POIN2 Label_013123B0
//  #01 //062   ----------------------------------------
 BYTE   PATT
  POIN2 Label_013123B0
//  #01 //063   ----------------------------------------
 BYTE   W96
//  #01 //064   ----------------------------------------
 BYTE   GoTo
  POIN2 Label_01312382
//  #01 //065   ----------------------------------------
 BYTE   VOICE   34
 BYTE   PAN   c_v+0
 BYTE   VOL   42*InsideTheWhale_mvl/mxv
 BYTE   PAN   c_v+0
 BYTE   VOL   42*InsideTheWhale_mvl/mxv
 BYTE   PAN   c_v+0
 BYTE   VOL   42*InsideTheWhale_mvl/mxv
 BYTE   BEND   c_v+0
 BYTE   FINE

//**************** Track 2 (Midi-Chn.1) ****************//

InsideTheWhale_002:
//  #02 //000   ----------------------------------------
 BYTE   KEYSH   InsideTheWhale_key+0
Label_01312536:
 BYTE   VOICE   35
 BYTE   PAN   c_v+0
 BYTE   VOL   42*InsideTheWhale_mvl/mxv
 BYTE   PAN   c_v+0
 BYTE   VOL   42*InsideTheWhale_mvl/mxv
 BYTE   PAN   c_v+0
 BYTE   VOL   42*InsideTheWhale_mvl/mxv
 BYTE   PAN   c_v+0
 BYTE   VOL   42*InsideTheWhale_mvl/mxv
 BYTE   BEND   c_v+0
 BYTE   N11  Cn2  v127
 BYTE   W12
 BYTE   Gn1
 BYTE   W12
 BYTE   As1
 BYTE   W12
 BYTE   N05  Gn1
 BYTE   W06
 BYTE   N11  Cn2
 BYTE   W12
 BYTE   N05  Gn1
 BYTE   W06
 BYTE   N11  As1
 BYTE   W12
 BYTE   Cn2
 BYTE   W12
 BYTE   As1
 BYTE   W12
//  #02 //001   ----------------------------------------
Label_01312562:
 BYTE   N11  Cn2  v127
 BYTE   W12
 BYTE   Gn1
 BYTE   W12
 BYTE   As1
 BYTE   W12
 BYTE   N05  Gn1
 BYTE   W06
 BYTE   N11  Cn2
 BYTE   W12
 BYTE   N05  Gn1
 BYTE   W06
 BYTE   N11  As1
 BYTE   W12
 BYTE   Cn2
 BYTE   W12
 BYTE   As1
 BYTE   W12
 BYTE   PEND 
//  #02 //002   ----------------------------------------
 BYTE   PATT
  POIN2 Label_01312562
//  #02 //003   ----------------------------------------
Label_01312580:
 BYTE   N11  Cn2  v127
 BYTE   W12
 BYTE   Gn1
 BYTE   W12
 BYTE   As1
 BYTE   W12
 BYTE   N05  Gn1
 BYTE   W06
 BYTE   N11  Cn2
 BYTE   W12
 BYTE   N05  Gn1
 BYTE   W06
 BYTE   Cn2
 BYTE   W06
 BYTE   N11  Dn2
 BYTE   W12
 BYTE   N05  An1
 BYTE   W06
 BYTE   N11  Dn2
 BYTE   W12
 BYTE   PEND 
//  #02 //004   ----------------------------------------
Label_0131259D:
 BYTE   N11  As1  v127
 BYTE   W12
 BYTE   Fn1
 BYTE   W12
 BYTE   Gs1
 BYTE   W12
 BYTE   N05  Fn1
 BYTE   W06
 BYTE   N11  As1
 BYTE   W12
 BYTE   N05  Fn1
 BYTE   W06
 BYTE   N11  Gs1
 BYTE   W12
 BYTE   As1
 BYTE   W12
 BYTE   Gs1
 BYTE   W12
 BYTE   PEND 
//  #02 //005   ----------------------------------------
 BYTE   PATT
  POIN2 Label_0131259D
//  #02 //006   ----------------------------------------
 BYTE   PATT
  POIN2 Label_0131259D
//  #02 //007   ----------------------------------------
 BYTE   PATT
  POIN2 Label_0131259D
//  #02 //008   ----------------------------------------
 BYTE   PATT
  POIN2 Label_01312562
//  #02 //009   ----------------------------------------
 BYTE   PATT
  POIN2 Label_01312562
//  #02 //010   ----------------------------------------
 BYTE   PATT
  POIN2 Label_01312562
//  #02 //011   ----------------------------------------
 BYTE   PATT
  POIN2 Label_01312580
//  #02 //012   ----------------------------------------
 BYTE   PATT
  POIN2 Label_0131259D
//  #02 //013   ----------------------------------------
 BYTE   PATT
  POIN2 Label_0131259D
//  #02 //014   ----------------------------------------
 BYTE   PATT
  POIN2 Label_0131259D
//  #02 //015   ----------------------------------------
 BYTE   W96
//  #02 //016   ----------------------------------------
 BYTE   PATT
  POIN2 Label_01312562
//  #02 //017   ----------------------------------------
 BYTE   PATT
  POIN2 Label_01312562
//  #02 //018   ----------------------------------------
 BYTE   PATT
  POIN2 Label_01312562
//  #02 //019   ----------------------------------------
 BYTE   PATT
  POIN2 Label_01312580
//  #02 //020   ----------------------------------------
 BYTE   PATT
  POIN2 Label_0131259D
//  #02 //021   ----------------------------------------
 BYTE   PATT
  POIN2 Label_0131259D
//  #02 //022   ----------------------------------------
 BYTE   PATT
  POIN2 Label_0131259D
//  #02 //023   ----------------------------------------
 BYTE   PATT
  POIN2 Label_0131259D
//  #02 //024   ----------------------------------------
 BYTE   PATT
  POIN2 Label_01312562
//  #02 //025   ----------------------------------------
 BYTE   PATT
  POIN2 Label_01312562
//  #02 //026   ----------------------------------------
 BYTE   PATT
  POIN2 Label_01312562
//  #02 //027   ----------------------------------------
 BYTE   PATT
  POIN2 Label_01312580
//  #02 //028   ----------------------------------------
 BYTE   PATT
  POIN2 Label_01312562
//  #02 //029   ----------------------------------------
 BYTE   PATT
  POIN2 Label_01312562
//  #02 //030   ----------------------------------------
 BYTE   PATT
  POIN2 Label_01312562
//  #02 //031   ----------------------------------------
 BYTE   W96
//  #02 //032   ----------------------------------------
 BYTE   PATT
  POIN2 Label_01312562
//  #02 //033   ----------------------------------------
 BYTE   PATT
  POIN2 Label_01312562
//  #02 //034   ----------------------------------------
 BYTE   PATT
  POIN2 Label_01312562
//  #02 //035   ----------------------------------------
 BYTE   PATT
  POIN2 Label_01312580
//  #02 //036   ----------------------------------------
 BYTE   PATT
  POIN2 Label_0131259D
//  #02 //037   ----------------------------------------
 BYTE   PATT
  POIN2 Label_0131259D
//  #02 //038   ----------------------------------------
 BYTE   PATT
  POIN2 Label_0131259D
//  #02 //039   ----------------------------------------
 BYTE   PATT
  POIN2 Label_0131259D
//  #02 //040   ----------------------------------------
 BYTE   PATT
  POIN2 Label_01312562
//  #02 //041   ----------------------------------------
 BYTE   PATT
  POIN2 Label_01312562
//  #02 //042   ----------------------------------------
 BYTE   PATT
  POIN2 Label_01312562
//  #02 //043   ----------------------------------------
 BYTE   PATT
  POIN2 Label_01312580
//  #02 //044   ----------------------------------------
 BYTE   PATT
  POIN2 Label_0131259D
//  #02 //045   ----------------------------------------
 BYTE   PATT
  POIN2 Label_0131259D
//  #02 //046   ----------------------------------------
 BYTE   PATT
  POIN2 Label_0131259D
//  #02 //047   ----------------------------------------
 BYTE   W96
//  #02 //048   ----------------------------------------
 BYTE   PATT
  POIN2 Label_01312562
//  #02 //049   ----------------------------------------
 BYTE   PATT
  POIN2 Label_01312562
//  #02 //050   ----------------------------------------
 BYTE   PATT
  POIN2 Label_01312562
//  #02 //051   ----------------------------------------
 BYTE   PATT
  POIN2 Label_01312580
//  #02 //052   ----------------------------------------
 BYTE   PATT
  POIN2 Label_0131259D
//  #02 //053   ----------------------------------------
 BYTE   PATT
  POIN2 Label_0131259D
//  #02 //054   ----------------------------------------
 BYTE   PATT
  POIN2 Label_0131259D
//  #02 //055   ----------------------------------------
 BYTE   PATT
  POIN2 Label_0131259D
//  #02 //056   ----------------------------------------
 BYTE   PATT
  POIN2 Label_01312562
//  #02 //057   ----------------------------------------
 BYTE   PATT
  POIN2 Label_01312562
//  #02 //058   ----------------------------------------
 BYTE   PATT
  POIN2 Label_01312562
//  #02 //059   ----------------------------------------
 BYTE   PATT
  POIN2 Label_01312580
//  #02 //060   ----------------------------------------
 BYTE   PATT
  POIN2 Label_01312562
//  #02 //061   ----------------------------------------
 BYTE   PATT
  POIN2 Label_01312562
//  #02 //062   ----------------------------------------
 BYTE   PATT
  POIN2 Label_01312562
//  #02 //063   ----------------------------------------
 BYTE   W96
//  #02 //064   ----------------------------------------
 BYTE   GoTo
  POIN2 Label_01312536
//  #02 //065   ----------------------------------------
 BYTE   VOICE   35
 BYTE   PAN   c_v+0
 BYTE   VOL   42*InsideTheWhale_mvl/mxv
 BYTE   PAN   c_v+0
 BYTE   VOL   42*InsideTheWhale_mvl/mxv
 BYTE   PAN   c_v+0
 BYTE   VOL   42*InsideTheWhale_mvl/mxv
 BYTE   BEND   c_v+0
 BYTE   FINE

//**************** Track 3 (Midi-Chn.2) ****************//

InsideTheWhale_003:
//  #03 //000   ----------------------------------------
 BYTE   KEYSH   InsideTheWhale_key+0
Label_013126E6:
 BYTE   VOICE   48
 BYTE   PAN   c_v+0
 BYTE   VOL   42*InsideTheWhale_mvl/mxv
 BYTE   PAN   c_v+0
 BYTE   VOL   42*InsideTheWhale_mvl/mxv
 BYTE   PAN   c_v+0
 BYTE   VOL   42*InsideTheWhale_mvl/mxv
 BYTE   PAN   c_v+0
 BYTE   VOL   42*InsideTheWhale_mvl/mxv
 BYTE   BEND   c_v+0
 BYTE   TIE  Cn3  v127
 BYTE   TIE  Ds3
 BYTE   TIE  Gn3
 BYTE   W96
//  #03 //001   ----------------------------------------
 BYTE   W96
//  #03 //002   ----------------------------------------
 BYTE   W96
//  #03 //003   ----------------------------------------
 BYTE   W56
 BYTE   W03
 BYTE   EOT
 BYTE   Cn3  v063
 BYTE   Gn3
 BYTE   W01
 BYTE   N32  Dn3
 BYTE   N32  Fn3
 BYTE   N32  An3
 BYTE   W36
//  #03 //004   ----------------------------------------
Label_01312712:
 BYTE   TIE  Dn3  v127
 BYTE   TIE  Fn3
 BYTE   TIE  Gs3
 BYTE   W96
 BYTE   PEND 
//  #03 //005   ----------------------------------------
 BYTE   W96
//  #03 //006   ----------------------------------------
 BYTE   W96
//  #03 //007   ----------------------------------------
 BYTE   W92
 BYTE   W03
 BYTE   EOT
 BYTE   Dn3  v065
 BYTE   Gs3
 BYTE   W01
//  #03 //008   ----------------------------------------
Label_01312724:
 BYTE   TIE  Cn3  v127
 BYTE   TIE  Ds3
 BYTE   TIE  Gn3
 BYTE   W96
 BYTE   PEND 
//  #03 //009   ----------------------------------------
 BYTE   W96
//  #03 //010   ----------------------------------------
 BYTE   W96
//  #03 //011   ----------------------------------------
 BYTE   W56
 BYTE   W03
 BYTE   EOT
 BYTE   Cn3  v063
 BYTE   Gn3
 BYTE   W01
 BYTE   N32  Dn3
 BYTE   N32  Fn3
 BYTE   N32  An3
 BYTE   W36
//  #03 //012   ----------------------------------------
 BYTE   PATT
  POIN2 Label_01312712
//  #03 //013   ----------------------------------------
 BYTE   W96
//  #03 //014   ----------------------------------------
 BYTE   W96
//  #03 //015   ----------------------------------------
 BYTE   W92
 BYTE   W03
 BYTE   EOT
 BYTE   Dn3  v065
 BYTE   Gs3
 BYTE   W01
//  #03 //016   ----------------------------------------
 BYTE   PATT
  POIN2 Label_01312724
//  #03 //017   ----------------------------------------
 BYTE   W96
//  #03 //018   ----------------------------------------
 BYTE   W96
//  #03 //019   ----------------------------------------
 BYTE   W56
 BYTE   W03
 BYTE   EOT
 BYTE   Cn3  v063
 BYTE   Gn3
 BYTE   W01
 BYTE   N32  Dn3  v127
 BYTE   N32  Fn3
 BYTE   N32  An3
 BYTE   W36
//  #03 //020   ----------------------------------------
 BYTE   PATT
  POIN2 Label_01312712
//  #03 //021   ----------------------------------------
 BYTE   W96
//  #03 //022   ----------------------------------------
 BYTE   W96
//  #03 //023   ----------------------------------------
 BYTE   W92
 BYTE   W03
 BYTE   EOT
 BYTE   Dn3  v065
 BYTE   Gs3
 BYTE   W01
//  #03 //024   ----------------------------------------
 BYTE   W96
//  #03 //025   ----------------------------------------
 BYTE   W96
//  #03 //026   ----------------------------------------
 BYTE   W96
//  #03 //027   ----------------------------------------
 BYTE   W96
//  #03 //028   ----------------------------------------
 BYTE   W96
//  #03 //029   ----------------------------------------
 BYTE   W96
//  #03 //030   ----------------------------------------
 BYTE   W96
//  #03 //031   ----------------------------------------
 BYTE   W96
//  #03 //032   ----------------------------------------
 BYTE   PATT
  POIN2 Label_01312724
//  #03 //033   ----------------------------------------
 BYTE   W96
//  #03 //034   ----------------------------------------
 BYTE   W96
//  #03 //035   ----------------------------------------
 BYTE   W56
 BYTE   W03
 BYTE   EOT
 BYTE   Cn3  v063
 BYTE   Gn3
 BYTE   W01
 BYTE   N32  Dn3  v127
 BYTE   N32  Fn3
 BYTE   N32  An3
 BYTE   W36
//  #03 //036   ----------------------------------------
 BYTE   PATT
  POIN2 Label_01312712
//  #03 //037   ----------------------------------------
 BYTE   W96
//  #03 //038   ----------------------------------------
 BYTE   W96
//  #03 //039   ----------------------------------------
 BYTE   W92
 BYTE   W03
 BYTE   EOT
 BYTE   Dn3  v065
 BYTE   Gs3
 BYTE   W01
//  #03 //040   ----------------------------------------
 BYTE   PATT
  POIN2 Label_01312724
//  #03 //041   ----------------------------------------
 BYTE   W96
//  #03 //042   ----------------------------------------
 BYTE   W96
//  #03 //043   ----------------------------------------
 BYTE   W56
 BYTE   W03
 BYTE   EOT
 BYTE   Cn3  v063
 BYTE   Gn3
 BYTE   W01
 BYTE   N32  Dn3  v127
 BYTE   N32  Fn3
 BYTE   N32  An3
 BYTE   W36
//  #03 //044   ----------------------------------------
 BYTE   PATT
  POIN2 Label_01312712
//  #03 //045   ----------------------------------------
 BYTE   W96
//  #03 //046   ----------------------------------------
 BYTE   W96
//  #03 //047   ----------------------------------------
 BYTE   W92
 BYTE   W03
 BYTE   EOT
 BYTE   Dn3  v065
 BYTE   Gs3
 BYTE   W01
//  #03 //048   ----------------------------------------
 BYTE   PATT
  POIN2 Label_01312724
//  #03 //049   ----------------------------------------
 BYTE   W96
//  #03 //050   ----------------------------------------
 BYTE   W96
//  #03 //051   ----------------------------------------
 BYTE   W56
 BYTE   W03
 BYTE   EOT
 BYTE   Cn3  v063
 BYTE   Gn3
 BYTE   W01
 BYTE   N32  Dn3  v127
 BYTE   N32  Fn3
 BYTE   N32  An3
 BYTE   W36
//  #03 //052   ----------------------------------------
 BYTE   PATT
  POIN2 Label_01312712
//  #03 //053   ----------------------------------------
 BYTE   W96
//  #03 //054   ----------------------------------------
 BYTE   W96
//  #03 //055   ----------------------------------------
 BYTE   W92
 BYTE   W03
 BYTE   EOT
 BYTE   Dn3  v065
 BYTE   Gs3
 BYTE   W01
//  #03 //056   ----------------------------------------
 BYTE   W96
//  #03 //057   ----------------------------------------
 BYTE   W96
//  #03 //058   ----------------------------------------
 BYTE   W96
//  #03 //059   ----------------------------------------
 BYTE   W96
//  #03 //060   ----------------------------------------
 BYTE   W96
//  #03 //061   ----------------------------------------
 BYTE   W96
//  #03 //062   ----------------------------------------
 BYTE   W96
//  #03 //063   ----------------------------------------
 BYTE   W96
//  #03 //064   ----------------------------------------
 BYTE   GoTo
  POIN2 Label_013126E6
//  #03 //065   ----------------------------------------
 BYTE   VOICE   48
 BYTE   PAN   c_v+0
 BYTE   VOL   42*InsideTheWhale_mvl/mxv
 BYTE   PAN   c_v+0
 BYTE   VOL   42*InsideTheWhale_mvl/mxv
 BYTE   PAN   c_v+0
 BYTE   VOL   42*InsideTheWhale_mvl/mxv
 BYTE   BEND   c_v+0
 BYTE   FINE

//**************** Track 4 (Midi-Chn.3) ****************//

InsideTheWhale_004:
//  #04 //000   ----------------------------------------
 BYTE   KEYSH   InsideTheWhale_key+0
Label_01312806:
 BYTE   VOICE   80
 BYTE   PAN   c_v+0
 BYTE   VOL   42*InsideTheWhale_mvl/mxv
 BYTE   PAN   c_v+0
 BYTE   VOL   42*InsideTheWhale_mvl/mxv
 BYTE   PAN   c_v+0
 BYTE   VOL   42*InsideTheWhale_mvl/mxv
 BYTE   PAN   c_v+0
 BYTE   VOL   42*InsideTheWhale_mvl/mxv
 BYTE   BEND   c_v+0
 BYTE   W36
 BYTE   N05  Gn4  v127
 BYTE   W12
 BYTE   As4
 BYTE   W06
 BYTE   Dn5
 BYTE   W12
 BYTE   Gn5
 BYTE   W30
//  #04 //001   ----------------------------------------
Label_01312825:
 BYTE   W12
 BYTE   N05  Gn4  v127
 BYTE   W12
 BYTE   As4
 BYTE   W06
 BYTE   Dn5
 BYTE   W12
 BYTE   Gn4
 BYTE   W54
 BYTE   PEND 
//  #04 //002   ----------------------------------------
Label_01312831:
 BYTE   W36
 BYTE   N05  Gn4  v127
 BYTE   W12
 BYTE   As4
 BYTE   W06
 BYTE   Dn5
 BYTE   W12
 BYTE   Gn5
 BYTE   W30
 BYTE   PEND 
//  #04 //003   ----------------------------------------
 BYTE   PATT
  POIN2 Label_01312825
//  #04 //004   ----------------------------------------
 BYTE   PATT
  POIN2 Label_01312831
//  #04 //005   ----------------------------------------
 BYTE   PATT
  POIN2 Label_01312825
//  #04 //006   ----------------------------------------
 BYTE   PATT
  POIN2 Label_01312831
//  #04 //007   ----------------------------------------
 BYTE   PATT
  POIN2 Label_01312825
//  #04 //008   ----------------------------------------
 BYTE   PATT
  POIN2 Label_01312831
//  #04 //009   ----------------------------------------
 BYTE   PATT
  POIN2 Label_01312825
//  #04 //010   ----------------------------------------
 BYTE   PATT
  POIN2 Label_01312831
//  #04 //011   ----------------------------------------
 BYTE   PATT
  POIN2 Label_01312825
//  #04 //012   ----------------------------------------
 BYTE   PATT
  POIN2 Label_01312831
//  #04 //013   ----------------------------------------
 BYTE   PATT
  POIN2 Label_01312825
//  #04 //014   ----------------------------------------
 BYTE   PATT
  POIN2 Label_01312831
//  #04 //015   ----------------------------------------
 BYTE   PATT
  POIN2 Label_01312825
//  #04 //016   ----------------------------------------
 BYTE   PATT
  POIN2 Label_01312831
//  #04 //017   ----------------------------------------
 BYTE   PATT
  POIN2 Label_01312825
//  #04 //018   ----------------------------------------
 BYTE   PATT
  POIN2 Label_01312831
//  #04 //019   ----------------------------------------
 BYTE   PATT
  POIN2 Label_01312825
//  #04 //020   ----------------------------------------
 BYTE   PATT
  POIN2 Label_01312831
//  #04 //021   ----------------------------------------
 BYTE   PATT
  POIN2 Label_01312825
//  #04 //022   ----------------------------------------
 BYTE   PATT
  POIN2 Label_01312831
//  #04 //023   ----------------------------------------
 BYTE   PATT
  POIN2 Label_01312825
//  #04 //024   ----------------------------------------
 BYTE   PATT
  POIN2 Label_01312831
//  #04 //025   ----------------------------------------
 BYTE   PATT
  POIN2 Label_01312825
//  #04 //026   ----------------------------------------
 BYTE   PATT
  POIN2 Label_01312831
//  #04 //027   ----------------------------------------
 BYTE   PATT
  POIN2 Label_01312825
//  #04 //028   ----------------------------------------
 BYTE   PATT
  POIN2 Label_01312831
//  #04 //029   ----------------------------------------
 BYTE   PATT
  POIN2 Label_01312825
//  #04 //030   ----------------------------------------
 BYTE   PATT
  POIN2 Label_01312831
//  #04 //031   ----------------------------------------
 BYTE   PATT
  POIN2 Label_01312825
//  #04 //032   ----------------------------------------
 BYTE   PATT
  POIN2 Label_01312831
//  #04 //033   ----------------------------------------
 BYTE   PATT
  POIN2 Label_01312825
//  #04 //034   ----------------------------------------
 BYTE   PATT
  POIN2 Label_01312831
//  #04 //035   ----------------------------------------
 BYTE   PATT
  POIN2 Label_01312825
//  #04 //036   ----------------------------------------
 BYTE   PATT
  POIN2 Label_01312831
//  #04 //037   ----------------------------------------
 BYTE   PATT
  POIN2 Label_01312825
//  #04 //038   ----------------------------------------
 BYTE   PATT
  POIN2 Label_01312831
//  #04 //039   ----------------------------------------
 BYTE   PATT
  POIN2 Label_01312825
//  #04 //040   ----------------------------------------
 BYTE   PATT
  POIN2 Label_01312831
//  #04 //041   ----------------------------------------
 BYTE   PATT
  POIN2 Label_01312825
//  #04 //042   ----------------------------------------
 BYTE   PATT
  POIN2 Label_01312831
//  #04 //043   ----------------------------------------
 BYTE   PATT
  POIN2 Label_01312825
//  #04 //044   ----------------------------------------
 BYTE   PATT
  POIN2 Label_01312831
//  #04 //045   ----------------------------------------
 BYTE   PATT
  POIN2 Label_01312825
//  #04 //046   ----------------------------------------
 BYTE   PATT
  POIN2 Label_01312831
//  #04 //047   ----------------------------------------
 BYTE   PATT
  POIN2 Label_01312825
//  #04 //048   ----------------------------------------
 BYTE   PATT
  POIN2 Label_01312831
//  #04 //049   ----------------------------------------
 BYTE   PATT
  POIN2 Label_01312825
//  #04 //050   ----------------------------------------
 BYTE   PATT
  POIN2 Label_01312831
//  #04 //051   ----------------------------------------
 BYTE   PATT
  POIN2 Label_01312825
//  #04 //052   ----------------------------------------
 BYTE   PATT
  POIN2 Label_01312831
//  #04 //053   ----------------------------------------
 BYTE   PATT
  POIN2 Label_01312825
//  #04 //054   ----------------------------------------
 BYTE   PATT
  POIN2 Label_01312831
//  #04 //055   ----------------------------------------
 BYTE   PATT
  POIN2 Label_01312825
//  #04 //056   ----------------------------------------
 BYTE   PATT
  POIN2 Label_01312831
//  #04 //057   ----------------------------------------
 BYTE   PATT
  POIN2 Label_01312825
//  #04 //058   ----------------------------------------
 BYTE   PATT
  POIN2 Label_01312831
//  #04 //059   ----------------------------------------
 BYTE   PATT
  POIN2 Label_01312825
//  #04 //060   ----------------------------------------
 BYTE   PATT
  POIN2 Label_01312831
//  #04 //061   ----------------------------------------
 BYTE   PATT
  POIN2 Label_01312825
//  #04 //062   ----------------------------------------
 BYTE   PATT
  POIN2 Label_01312831
//  #04 //063   ----------------------------------------
 BYTE   PATT
  POIN2 Label_01312825
//  #04 //064   ----------------------------------------
 BYTE   GoTo
  POIN2 Label_01312806
//  #04 //065   ----------------------------------------
 BYTE   VOICE   80
 BYTE   PAN   c_v+0
 BYTE   VOL   42*InsideTheWhale_mvl/mxv
 BYTE   PAN   c_v+0
 BYTE   VOL   42*InsideTheWhale_mvl/mxv
 BYTE   PAN   c_v+0
 BYTE   VOL   42*InsideTheWhale_mvl/mxv
 BYTE   BEND   c_v+0
 BYTE   FINE

//**************** Track 5 (Midi-Chn.4) ****************//

InsideTheWhale_005:
//  #05 //000   ----------------------------------------
 BYTE   KEYSH   InsideTheWhale_key+0
Label_01312986:
 BYTE   VOICE   80
 BYTE   PAN   c_v+0
 BYTE   VOL   42*InsideTheWhale_mvl/mxv
 BYTE   PAN   c_v+0
 BYTE   VOL   42*InsideTheWhale_mvl/mxv
 BYTE   PAN   c_v+0
 BYTE   VOL   42*InsideTheWhale_mvl/mxv
 BYTE   PAN   c_v+0
 BYTE   VOL   42*InsideTheWhale_mvl/mxv
 BYTE   BEND   c_v+0
 BYTE   W48
 BYTE   N05  Gn4  v096
 BYTE   W12
 BYTE   As4
 BYTE   W06
 BYTE   Dn5
 BYTE   W12
 BYTE   Gn5
 BYTE   W18
//  #05 //001   ----------------------------------------
Label_013129A5:
 BYTE   W24
 BYTE   N05  Gn4  v096
 BYTE   W12
 BYTE   As4  v100
 BYTE   W06
 BYTE   Dn5
 BYTE   W12
 BYTE   Gn4
 BYTE   W42
 BYTE   PEND 
//  #05 //002   ----------------------------------------
Label_013129B2:
 BYTE   W48
 BYTE   N05  Gn4  v096
 BYTE   W12
 BYTE   As4
 BYTE   W06
 BYTE   Dn5
 BYTE   W12
 BYTE   Gn5
 BYTE   W18
 BYTE   PEND 
//  #05 //003   ----------------------------------------
 BYTE   PATT
  POIN2 Label_013129A5
//  #05 //004   ----------------------------------------
 BYTE   PATT
  POIN2 Label_013129B2
//  #05 //005   ----------------------------------------
 BYTE   PATT
  POIN2 Label_013129A5
//  #05 //006   ----------------------------------------
 BYTE   PATT
  POIN2 Label_013129B2
//  #05 //007   ----------------------------------------
 BYTE   PATT
  POIN2 Label_013129A5
//  #05 //008   ----------------------------------------
 BYTE   PATT
  POIN2 Label_013129B2
//  #05 //009   ----------------------------------------
 BYTE   PATT
  POIN2 Label_013129A5
//  #05 //010   ----------------------------------------
 BYTE   PATT
  POIN2 Label_013129B2
//  #05 //011   ----------------------------------------
 BYTE   PATT
  POIN2 Label_013129A5
//  #05 //012   ----------------------------------------
 BYTE   PATT
  POIN2 Label_013129B2
//  #05 //013   ----------------------------------------
 BYTE   PATT
  POIN2 Label_013129A5
//  #05 //014   ----------------------------------------
 BYTE   PATT
  POIN2 Label_013129B2
//  #05 //015   ----------------------------------------
 BYTE   PATT
  POIN2 Label_013129A5
//  #05 //016   ----------------------------------------
 BYTE   PATT
  POIN2 Label_013129B2
//  #05 //017   ----------------------------------------
 BYTE   PATT
  POIN2 Label_013129A5
//  #05 //018   ----------------------------------------
 BYTE   PATT
  POIN2 Label_013129B2
//  #05 //019   ----------------------------------------
 BYTE   PATT
  POIN2 Label_013129A5
//  #05 //020   ----------------------------------------
 BYTE   PATT
  POIN2 Label_013129B2
//  #05 //021   ----------------------------------------
 BYTE   PATT
  POIN2 Label_013129A5
//  #05 //022   ----------------------------------------
 BYTE   PATT
  POIN2 Label_013129B2
//  #05 //023   ----------------------------------------
 BYTE   PATT
  POIN2 Label_013129A5
//  #05 //024   ----------------------------------------
 BYTE   PATT
  POIN2 Label_013129B2
//  #05 //025   ----------------------------------------
 BYTE   PATT
  POIN2 Label_013129A5
//  #05 //026   ----------------------------------------
 BYTE   PATT
  POIN2 Label_013129B2
//  #05 //027   ----------------------------------------
 BYTE   PATT
  POIN2 Label_013129A5
//  #05 //028   ----------------------------------------
 BYTE   PATT
  POIN2 Label_013129B2
//  #05 //029   ----------------------------------------
 BYTE   PATT
  POIN2 Label_013129A5
//  #05 //030   ----------------------------------------
 BYTE   PATT
  POIN2 Label_013129B2
//  #05 //031   ----------------------------------------
 BYTE   PATT
  POIN2 Label_013129A5
//  #05 //032   ----------------------------------------
 BYTE   PATT
  POIN2 Label_013129B2
//  #05 //033   ----------------------------------------
 BYTE   PATT
  POIN2 Label_013129A5
//  #05 //034   ----------------------------------------
 BYTE   PATT
  POIN2 Label_013129B2
//  #05 //035   ----------------------------------------
 BYTE   PATT
  POIN2 Label_013129A5
//  #05 //036   ----------------------------------------
 BYTE   PATT
  POIN2 Label_013129B2
//  #05 //037   ----------------------------------------
 BYTE   PATT
  POIN2 Label_013129A5
//  #05 //038   ----------------------------------------
 BYTE   PATT
  POIN2 Label_013129B2
//  #05 //039   ----------------------------------------
 BYTE   PATT
  POIN2 Label_013129A5
//  #05 //040   ----------------------------------------
 BYTE   PATT
  POIN2 Label_013129B2
//  #05 //041   ----------------------------------------
 BYTE   PATT
  POIN2 Label_013129A5
//  #05 //042   ----------------------------------------
 BYTE   PATT
  POIN2 Label_013129B2
//  #05 //043   ----------------------------------------
 BYTE   PATT
  POIN2 Label_013129A5
//  #05 //044   ----------------------------------------
 BYTE   PATT
  POIN2 Label_013129B2
//  #05 //045   ----------------------------------------
 BYTE   PATT
  POIN2 Label_013129A5
//  #05 //046   ----------------------------------------
 BYTE   PATT
  POIN2 Label_013129B2
//  #05 //047   ----------------------------------------
 BYTE   PATT
  POIN2 Label_013129A5
//  #05 //048   ----------------------------------------
 BYTE   PATT
  POIN2 Label_013129B2
//  #05 //049   ----------------------------------------
 BYTE   PATT
  POIN2 Label_013129A5
//  #05 //050   ----------------------------------------
 BYTE   PATT
  POIN2 Label_013129B2
//  #05 //051   ----------------------------------------
 BYTE   PATT
  POIN2 Label_013129A5
//  #05 //052   ----------------------------------------
 BYTE   PATT
  POIN2 Label_013129B2
//  #05 //053   ----------------------------------------
 BYTE   PATT
  POIN2 Label_013129A5
//  #05 //054   ----------------------------------------
 BYTE   PATT
  POIN2 Label_013129B2
//  #05 //055   ----------------------------------------
 BYTE   PATT
  POIN2 Label_013129A5
//  #05 //056   ----------------------------------------
 BYTE   PATT
  POIN2 Label_013129B2
//  #05 //057   ----------------------------------------
 BYTE   PATT
  POIN2 Label_013129A5
//  #05 //058   ----------------------------------------
 BYTE   PATT
  POIN2 Label_013129B2
//  #05 //059   ----------------------------------------
 BYTE   PATT
  POIN2 Label_013129A5
//  #05 //060   ----------------------------------------
 BYTE   PATT
  POIN2 Label_013129B2
//  #05 //061   ----------------------------------------
 BYTE   PATT
  POIN2 Label_013129A5
//  #05 //062   ----------------------------------------
 BYTE   PATT
  POIN2 Label_013129B2
//  #05 //063   ----------------------------------------
 BYTE   PATT
  POIN2 Label_013129A5
//  #05 //064   ----------------------------------------
 BYTE   GoTo
  POIN2 Label_01312986
//  #05 //065   ----------------------------------------
 BYTE   VOICE   80
 BYTE   PAN   c_v+0
 BYTE   VOL   42*InsideTheWhale_mvl/mxv
 BYTE   PAN   c_v+0
 BYTE   VOL   42*InsideTheWhale_mvl/mxv
 BYTE   PAN   c_v+0
 BYTE   VOL   42*InsideTheWhale_mvl/mxv
 BYTE   BEND   c_v+0
 BYTE   FINE

//**************** Track 6 (Midi-Chn.5) ****************//

InsideTheWhale_006:
//  #06 //000   ----------------------------------------
 BYTE   KEYSH   InsideTheWhale_key+0
Label_01312B0A:
 BYTE   VOICE   80
 BYTE   PAN   c_v+0
 BYTE   VOL   42*InsideTheWhale_mvl/mxv
 BYTE   PAN   c_v+0
 BYTE   VOL   42*InsideTheWhale_mvl/mxv
 BYTE   PAN   c_v+0
 BYTE   VOL   42*InsideTheWhale_mvl/mxv
 BYTE   PAN   c_v+0
 BYTE   VOL   42*InsideTheWhale_mvl/mxv
 BYTE   BEND   c_v+0
 BYTE   W60
 BYTE   N05  Gn4  v064
 BYTE   W12
 BYTE   As4
 BYTE   W06
 BYTE   Dn5
 BYTE   W12
 BYTE   Gn5
 BYTE   W06
//  #06 //001   ----------------------------------------
Label_01312B29:
 BYTE   W36
 BYTE   N05  Gn4  v064
 BYTE   W12
 BYTE   As4
 BYTE   W06
 BYTE   Dn5
 BYTE   W12
 BYTE   Gn4
 BYTE   W30
 BYTE   PEND 
//  #06 //002   ----------------------------------------
Label_01312B35:
 BYTE   W60
 BYTE   N05  Gn4  v064
 BYTE   W12
 BYTE   As4
 BYTE   W06
 BYTE   Dn5
 BYTE   W12
 BYTE   Gn5
 BYTE   W06
 BYTE   PEND 
//  #06 //003   ----------------------------------------
 BYTE   PATT
  POIN2 Label_01312B29
//  #06 //004   ----------------------------------------
 BYTE   PATT
  POIN2 Label_01312B35
//  #06 //005   ----------------------------------------
 BYTE   PATT
  POIN2 Label_01312B29
//  #06 //006   ----------------------------------------
 BYTE   PATT
  POIN2 Label_01312B35
//  #06 //007   ----------------------------------------
 BYTE   PATT
  POIN2 Label_01312B29
//  #06 //008   ----------------------------------------
 BYTE   PATT
  POIN2 Label_01312B35
//  #06 //009   ----------------------------------------
 BYTE   PATT
  POIN2 Label_01312B29
//  #06 //010   ----------------------------------------
 BYTE   PATT
  POIN2 Label_01312B35
//  #06 //011   ----------------------------------------
 BYTE   PATT
  POIN2 Label_01312B29
//  #06 //012   ----------------------------------------
 BYTE   PATT
  POIN2 Label_01312B35
//  #06 //013   ----------------------------------------
 BYTE   PATT
  POIN2 Label_01312B29
//  #06 //014   ----------------------------------------
 BYTE   PATT
  POIN2 Label_01312B35
//  #06 //015   ----------------------------------------
 BYTE   PATT
  POIN2 Label_01312B29
//  #06 //016   ----------------------------------------
 BYTE   PATT
  POIN2 Label_01312B35
//  #06 //017   ----------------------------------------
 BYTE   PATT
  POIN2 Label_01312B29
//  #06 //018   ----------------------------------------
 BYTE   PATT
  POIN2 Label_01312B35
//  #06 //019   ----------------------------------------
 BYTE   PATT
  POIN2 Label_01312B29
//  #06 //020   ----------------------------------------
 BYTE   PATT
  POIN2 Label_01312B35
//  #06 //021   ----------------------------------------
 BYTE   PATT
  POIN2 Label_01312B29
//  #06 //022   ----------------------------------------
 BYTE   PATT
  POIN2 Label_01312B35
//  #06 //023   ----------------------------------------
 BYTE   PATT
  POIN2 Label_01312B29
//  #06 //024   ----------------------------------------
 BYTE   PATT
  POIN2 Label_01312B35
//  #06 //025   ----------------------------------------
 BYTE   PATT
  POIN2 Label_01312B29
//  #06 //026   ----------------------------------------
 BYTE   PATT
  POIN2 Label_01312B35
//  #06 //027   ----------------------------------------
 BYTE   PATT
  POIN2 Label_01312B29
//  #06 //028   ----------------------------------------
 BYTE   PATT
  POIN2 Label_01312B35
//  #06 //029   ----------------------------------------
 BYTE   PATT
  POIN2 Label_01312B29
//  #06 //030   ----------------------------------------
 BYTE   PATT
  POIN2 Label_01312B35
//  #06 //031   ----------------------------------------
 BYTE   PATT
  POIN2 Label_01312B29
//  #06 //032   ----------------------------------------
 BYTE   PATT
  POIN2 Label_01312B35
//  #06 //033   ----------------------------------------
 BYTE   PATT
  POIN2 Label_01312B29
//  #06 //034   ----------------------------------------
 BYTE   PATT
  POIN2 Label_01312B35
//  #06 //035   ----------------------------------------
 BYTE   PATT
  POIN2 Label_01312B29
//  #06 //036   ----------------------------------------
 BYTE   PATT
  POIN2 Label_01312B35
//  #06 //037   ----------------------------------------
 BYTE   PATT
  POIN2 Label_01312B29
//  #06 //038   ----------------------------------------
 BYTE   PATT
  POIN2 Label_01312B35
//  #06 //039   ----------------------------------------
 BYTE   PATT
  POIN2 Label_01312B29
//  #06 //040   ----------------------------------------
 BYTE   PATT
  POIN2 Label_01312B35
//  #06 //041   ----------------------------------------
 BYTE   PATT
  POIN2 Label_01312B29
//  #06 //042   ----------------------------------------
 BYTE   PATT
  POIN2 Label_01312B35
//  #06 //043   ----------------------------------------
 BYTE   PATT
  POIN2 Label_01312B29
//  #06 //044   ----------------------------------------
 BYTE   PATT
  POIN2 Label_01312B35
//  #06 //045   ----------------------------------------
 BYTE   PATT
  POIN2 Label_01312B29
//  #06 //046   ----------------------------------------
 BYTE   PATT
  POIN2 Label_01312B35
//  #06 //047   ----------------------------------------
 BYTE   PATT
  POIN2 Label_01312B29
//  #06 //048   ----------------------------------------
 BYTE   PATT
  POIN2 Label_01312B35
//  #06 //049   ----------------------------------------
 BYTE   PATT
  POIN2 Label_01312B29
//  #06 //050   ----------------------------------------
 BYTE   PATT
  POIN2 Label_01312B35
//  #06 //051   ----------------------------------------
 BYTE   PATT
  POIN2 Label_01312B29
//  #06 //052   ----------------------------------------
 BYTE   PATT
  POIN2 Label_01312B35
//  #06 //053   ----------------------------------------
 BYTE   PATT
  POIN2 Label_01312B29
//  #06 //054   ----------------------------------------
 BYTE   PATT
  POIN2 Label_01312B35
//  #06 //055   ----------------------------------------
 BYTE   PATT
  POIN2 Label_01312B29
//  #06 //056   ----------------------------------------
 BYTE   PATT
  POIN2 Label_01312B35
//  #06 //057   ----------------------------------------
 BYTE   PATT
  POIN2 Label_01312B29
//  #06 //058   ----------------------------------------
 BYTE   PATT
  POIN2 Label_01312B35
//  #06 //059   ----------------------------------------
 BYTE   PATT
  POIN2 Label_01312B29
//  #06 //060   ----------------------------------------
 BYTE   PATT
  POIN2 Label_01312B35
//  #06 //061   ----------------------------------------
 BYTE   PATT
  POIN2 Label_01312B29
//  #06 //062   ----------------------------------------
 BYTE   PATT
  POIN2 Label_01312B35
//  #06 //063   ----------------------------------------
 BYTE   PATT
  POIN2 Label_01312B29
//  #06 //064   ----------------------------------------
 BYTE   GoTo
  POIN2 Label_01312B0A
//  #06 //065   ----------------------------------------
 BYTE   VOICE   80
 BYTE   PAN   c_v+0
 BYTE   VOL   42*InsideTheWhale_mvl/mxv
 BYTE   PAN   c_v+0
 BYTE   VOL   42*InsideTheWhale_mvl/mxv
 BYTE   PAN   c_v+0
 BYTE   VOL   42*InsideTheWhale_mvl/mxv
 BYTE   BEND   c_v+0
 BYTE   FINE

//**************** Track 7 (Midi-Chn.6) ****************//

InsideTheWhale_007:
//  #07 //000   ----------------------------------------
 BYTE   KEYSH   InsideTheWhale_key+0
Label_01312C8A:
 BYTE   VOICE   127
 BYTE   PAN   c_v+0
 BYTE   VOL   42*InsideTheWhale_mvl/mxv
 BYTE   PAN   c_v+0
 BYTE   VOL   42*InsideTheWhale_mvl/mxv
 BYTE   PAN   c_v+0
 BYTE   VOL   42*InsideTheWhale_mvl/mxv
 BYTE   PAN   c_v+0
 BYTE   VOL   42*InsideTheWhale_mvl/mxv
 BYTE   BEND   c_v+0
 BYTE   N05  Cn1  v127
 BYTE   N05  Cs2
 BYTE   W06
 BYTE   Fs1
 BYTE   W06
 BYTE   As1
 BYTE   W12
 BYTE   Cn1
 BYTE   N05  En1
 BYTE   N05  Fs1
 BYTE   W06
 BYTE   N05
 BYTE   W06
 BYTE   As1
 BYTE   W06
 BYTE   En1  v084
 BYTE   W06
 BYTE   Cn1  v127
 BYTE   N05  Fs1
 BYTE   W06
 BYTE   N05
 BYTE   W06
 BYTE   As1
 BYTE   W12
 BYTE   Cn1
 BYTE   N05  En1
 BYTE   N05  Fs1
 BYTE   W06
 BYTE   N05
 BYTE   W06
 BYTE   As1
 BYTE   W12
//  #07 //001   ----------------------------------------
Label_01312CC8:
 BYTE   N05  Cn1  v127
 BYTE   N05  Fs1
 BYTE   W06
 BYTE   N05
 BYTE   W06
 BYTE   As1
 BYTE   W12
 BYTE   Cn1
 BYTE   N05  En1
 BYTE   N05  Fs1
 BYTE   W06
 BYTE   N05
 BYTE   W06
 BYTE   As1
 BYTE   W06
 BYTE   En1  v084
 BYTE   W06
 BYTE   Cn1  v127
 BYTE   N05  Fs1
 BYTE   W06
 BYTE   N05
 BYTE   W06
 BYTE   As1
 BYTE   W12
 BYTE   Cn1
 BYTE   N05  En1
 BYTE   N05  Fs1
 BYTE   W06
 BYTE   N05
 BYTE   W06
 BYTE   As1
 BYTE   W12
 BYTE   PEND 
//  #07 //002   ----------------------------------------
 BYTE   PATT
  POIN2 Label_01312CC8
//  #07 //003   ----------------------------------------
 BYTE   PATT
  POIN2 Label_01312CC8
//  #07 //004   ----------------------------------------
 BYTE   PATT
  POIN2 Label_01312CC8
//  #07 //005   ----------------------------------------
 BYTE   PATT
  POIN2 Label_01312CC8
//  #07 //006   ----------------------------------------
 BYTE   PATT
  POIN2 Label_01312CC8
//  #07 //007   ----------------------------------------
Label_01312D0C:
 BYTE   N05  Cn1  v127
 BYTE   N05  Fs1
 BYTE   W06
 BYTE   N05
 BYTE   W06
 BYTE   As1
 BYTE   W12
 BYTE   Cn1
 BYTE   N05  En1
 BYTE   N05  Fs1
 BYTE   W06
 BYTE   N05
 BYTE   W06
 BYTE   As1
 BYTE   W06
 BYTE   En1  v084
 BYTE   W06
 BYTE   Cn1  v127
 BYTE   N05  Fs1
 BYTE   W06
 BYTE   Dn1
 BYTE   N05  Fs1
 BYTE   W06
 BYTE   Dn1
 BYTE   N05  As1
 BYTE   W12
 BYTE   Cn1
 BYTE   N05  Dn1
 BYTE   N05  En1
 BYTE   N05  Fs1
 BYTE   W06
 BYTE   Dn1
 BYTE   N05  Fs1
 BYTE   W06
 BYTE   Dn1
 BYTE   N05  As1
 BYTE   W06
 BYTE   Dn1
 BYTE   W06
 BYTE   PEND 
//  #07 //008   ----------------------------------------
Label_01312D43:
 BYTE   N05  Cn1  v127
 BYTE   N05  Cs2
 BYTE   W06
 BYTE   Fs1
 BYTE   W06
 BYTE   As1
 BYTE   W12
 BYTE   Cn1
 BYTE   N05  En1
 BYTE   N05  Fs1
 BYTE   W06
 BYTE   N05
 BYTE   W06
 BYTE   As1
 BYTE   W06
 BYTE   En1  v084
 BYTE   W06
 BYTE   Cn1  v127
 BYTE   N05  Fs1
 BYTE   W06
 BYTE   N05
 BYTE   W06
 BYTE   As1
 BYTE   W12
 BYTE   Cn1
 BYTE   N05  En1
 BYTE   N05  Fs1
 BYTE   W06
 BYTE   N05
 BYTE   W06
 BYTE   As1
 BYTE   W12
 BYTE   PEND 
//  #07 //009   ----------------------------------------
 BYTE   PATT
  POIN2 Label_01312CC8
//  #07 //010   ----------------------------------------
 BYTE   PATT
  POIN2 Label_01312CC8
//  #07 //011   ----------------------------------------
 BYTE   PATT
  POIN2 Label_01312CC8
//  #07 //012   ----------------------------------------
 BYTE   PATT
  POIN2 Label_01312CC8
//  #07 //013   ----------------------------------------
 BYTE   PATT
  POIN2 Label_01312CC8
//  #07 //014   ----------------------------------------
 BYTE   PATT
  POIN2 Label_01312CC8
//  #07 //015   ----------------------------------------
Label_01312D8C:
 BYTE   N05  En1  v127
 BYTE   W06
 BYTE   N05
 BYTE   W12
 BYTE   N05
 BYTE   W06
 BYTE   N05
 BYTE   W06
 BYTE   N05
 BYTE   W12
 BYTE   N05
 BYTE   W06
 BYTE   N05
 BYTE   W06
 BYTE   N05
 BYTE   W12
 BYTE   N05
 BYTE   W06
 BYTE   N05
 BYTE   W06
 BYTE   N05
 BYTE   W12
 BYTE   N05
 BYTE   W06
 BYTE   PEND 
//  #07 //016   ----------------------------------------
 BYTE   PATT
  POIN2 Label_01312D43
//  #07 //017   ----------------------------------------
 BYTE   PATT
  POIN2 Label_01312CC8
//  #07 //018   ----------------------------------------
 BYTE   PATT
  POIN2 Label_01312CC8
//  #07 //019   ----------------------------------------
 BYTE   PATT
  POIN2 Label_01312CC8
//  #07 //020   ----------------------------------------
 BYTE   PATT
  POIN2 Label_01312CC8
//  #07 //021   ----------------------------------------
 BYTE   PATT
  POIN2 Label_01312CC8
//  #07 //022   ----------------------------------------
 BYTE   PATT
  POIN2 Label_01312CC8
//  #07 //023   ----------------------------------------
 BYTE   PATT
  POIN2 Label_01312D0C
//  #07 //024   ----------------------------------------
 BYTE   PATT
  POIN2 Label_01312D43
//  #07 //025   ----------------------------------------
 BYTE   PATT
  POIN2 Label_01312CC8
//  #07 //026   ----------------------------------------
 BYTE   PATT
  POIN2 Label_01312CC8
//  #07 //027   ----------------------------------------
 BYTE   PATT
  POIN2 Label_01312CC8
//  #07 //028   ----------------------------------------
 BYTE   PATT
  POIN2 Label_01312CC8
//  #07 //029   ----------------------------------------
 BYTE   PATT
  POIN2 Label_01312CC8
//  #07 //030   ----------------------------------------
 BYTE   PATT
  POIN2 Label_01312CC8
//  #07 //031   ----------------------------------------
Label_01312DF2:
 BYTE   N05  Fs1  v127
 BYTE   W06
 BYTE   N05
 BYTE   W06
 BYTE   As1
 BYTE   W12
 BYTE   En1
 BYTE   N05  Fs1
 BYTE   W06
 BYTE   N05
 BYTE   W06
 BYTE   As1
 BYTE   W06
 BYTE   En1  v084
 BYTE   W06
 BYTE   Fs1  v127
 BYTE   W06
 BYTE   Dn1
 BYTE   N05  Ds1
 BYTE   N05  Fs1
 BYTE   W06
 BYTE   Dn1
 BYTE   N05  Ds1
 BYTE   N05  As1
 BYTE   W12
 BYTE   Dn1
 BYTE   N05  Ds1
 BYTE   N05  En1
 BYTE   N05  Fs1
 BYTE   W06
 BYTE   Dn1
 BYTE   N05  Ds1
 BYTE   N05  Fs1
 BYTE   W06
 BYTE   Dn1
 BYTE   N05  Ds1
 BYTE   N05  As1
 BYTE   W06
 BYTE   Dn1
 BYTE   N05  Ds1
 BYTE   W06
 BYTE   PEND 
//  #07 //032   ----------------------------------------
 BYTE   PATT
  POIN2 Label_01312D43
//  #07 //033   ----------------------------------------
 BYTE   PATT
  POIN2 Label_01312CC8
//  #07 //034   ----------------------------------------
 BYTE   PATT
  POIN2 Label_01312CC8
//  #07 //035   ----------------------------------------
 BYTE   PATT
  POIN2 Label_01312CC8
//  #07 //036   ----------------------------------------
 BYTE   PATT
  POIN2 Label_01312CC8
//  #07 //037   ----------------------------------------
 BYTE   PATT
  POIN2 Label_01312CC8
//  #07 //038   ----------------------------------------
 BYTE   PATT
  POIN2 Label_01312CC8
//  #07 //039   ----------------------------------------
 BYTE   PATT
  POIN2 Label_01312D0C
//  #07 //040   ----------------------------------------
 BYTE   PATT
  POIN2 Label_01312D43
//  #07 //041   ----------------------------------------
 BYTE   PATT
  POIN2 Label_01312CC8
//  #07 //042   ----------------------------------------
 BYTE   PATT
  POIN2 Label_01312CC8
//  #07 //043   ----------------------------------------
 BYTE   PATT
  POIN2 Label_01312CC8
//  #07 //044   ----------------------------------------
 BYTE   PATT
  POIN2 Label_01312CC8
//  #07 //045   ----------------------------------------
 BYTE   PATT
  POIN2 Label_01312CC8
//  #07 //046   ----------------------------------------
 BYTE   PATT
  POIN2 Label_01312CC8
//  #07 //047   ----------------------------------------
 BYTE   PATT
  POIN2 Label_01312D8C
//  #07 //048   ----------------------------------------
 BYTE   PATT
  POIN2 Label_01312D43
//  #07 //049   ----------------------------------------
 BYTE   PATT
  POIN2 Label_01312CC8
//  #07 //050   ----------------------------------------
 BYTE   PATT
  POIN2 Label_01312CC8
//  #07 //051   ----------------------------------------
 BYTE   PATT
  POIN2 Label_01312CC8
//  #07 //052   ----------------------------------------
 BYTE   PATT
  POIN2 Label_01312CC8
//  #07 //053   ----------------------------------------
 BYTE   PATT
  POIN2 Label_01312CC8
//  #07 //054   ----------------------------------------
 BYTE   PATT
  POIN2 Label_01312CC8
//  #07 //055   ----------------------------------------
 BYTE   PATT
  POIN2 Label_01312D0C
//  #07 //056   ----------------------------------------
 BYTE   PATT
  POIN2 Label_01312D43
//  #07 //057   ----------------------------------------
 BYTE   PATT
  POIN2 Label_01312CC8
//  #07 //058   ----------------------------------------
 BYTE   PATT
  POIN2 Label_01312CC8
//  #07 //059   ----------------------------------------
 BYTE   PATT
  POIN2 Label_01312CC8
//  #07 //060   ----------------------------------------
 BYTE   PATT
  POIN2 Label_01312CC8
//  #07 //061   ----------------------------------------
 BYTE   PATT
  POIN2 Label_01312CC8
//  #07 //062   ----------------------------------------
 BYTE   PATT
  POIN2 Label_01312CC8
//  #07 //063   ----------------------------------------
 BYTE   PATT
  POIN2 Label_01312DF2
//  #07 //064   ----------------------------------------
 BYTE   GoTo
  POIN2 Label_01312C8A
//  #07 //065   ----------------------------------------
 BYTE   VOICE   127
 BYTE   PAN   c_v+0
 BYTE   VOL   42*InsideTheWhale_mvl/mxv
 BYTE   PAN   c_v+0
 BYTE   VOL   42*InsideTheWhale_mvl/mxv
 BYTE   PAN   c_v+0
 BYTE   VOL   42*InsideTheWhale_mvl/mxv
 BYTE   BEND   c_v+0
 BYTE   FINE

//**************** Track 8 (Midi-Chn.7) ****************//

InsideTheWhale_008:
//  #08 //000   ----------------------------------------
 BYTE   KEYSH   InsideTheWhale_key+0
Label_01312EE6:
 BYTE   VOICE   48
 BYTE   PAN   c_v+0
 BYTE   VOL   42*InsideTheWhale_mvl/mxv
 BYTE   PAN   c_v+0
 BYTE   VOL   42*InsideTheWhale_mvl/mxv
 BYTE   PAN   c_v+0
 BYTE   VOL   42*InsideTheWhale_mvl/mxv
 BYTE   PAN   c_v+0
 BYTE   VOL   42*InsideTheWhale_mvl/mxv
 BYTE   BEND   c_v+0
 BYTE   W96
//  #08 //001   ----------------------------------------
 BYTE   W96
//  #08 //002   ----------------------------------------
 BYTE   W96
//  #08 //003   ----------------------------------------
 BYTE   W96
//  #08 //004   ----------------------------------------
 BYTE   W96
//  #08 //005   ----------------------------------------
 BYTE   W96
//  #08 //006   ----------------------------------------
 BYTE   W96
//  #08 //007   ----------------------------------------
 BYTE   W96
//  #08 //008   ----------------------------------------
 BYTE   W96
//  #08 //009   ----------------------------------------
 BYTE   W96
//  #08 //010   ----------------------------------------
 BYTE   W96
//  #08 //011   ----------------------------------------
 BYTE   W96
//  #08 //012   ----------------------------------------
 BYTE   W96
//  #08 //013   ----------------------------------------
 BYTE   W96
//  #08 //014   ----------------------------------------
 BYTE   W96
//  #08 //015   ----------------------------------------
Label_01312F09:
 BYTE   N92  As3  v127
 BYTE   N92  Cs4
 BYTE   N92  Fn4
 BYTE   W96
 BYTE   PEND 
//  #08 //016   ----------------------------------------
 BYTE   W96
//  #08 //017   ----------------------------------------
 BYTE   W96
//  #08 //018   ----------------------------------------
 BYTE   W96
//  #08 //019   ----------------------------------------
 BYTE   W96
//  #08 //020   ----------------------------------------
 BYTE   W96
//  #08 //021   ----------------------------------------
 BYTE   W96
//  #08 //022   ----------------------------------------
 BYTE   W96
//  #08 //023   ----------------------------------------
 BYTE   W96
//  #08 //024   ----------------------------------------
 BYTE   W96
//  #08 //025   ----------------------------------------
 BYTE   W96
//  #08 //026   ----------------------------------------
 BYTE   W96
//  #08 //027   ----------------------------------------
 BYTE   W96
//  #08 //028   ----------------------------------------
 BYTE   W96
//  #08 //029   ----------------------------------------
 BYTE   W96
//  #08 //030   ----------------------------------------
 BYTE   W96
//  #08 //031   ----------------------------------------
 BYTE   W96
//  #08 //032   ----------------------------------------
 BYTE   W96
//  #08 //033   ----------------------------------------
 BYTE   W96
//  #08 //034   ----------------------------------------
 BYTE   W96
//  #08 //035   ----------------------------------------
 BYTE   W96
//  #08 //036   ----------------------------------------
 BYTE   W96
//  #08 //037   ----------------------------------------
 BYTE   W96
//  #08 //038   ----------------------------------------
 BYTE   W96
//  #08 //039   ----------------------------------------
 BYTE   W96
//  #08 //040   ----------------------------------------
 BYTE   W96
//  #08 //041   ----------------------------------------
 BYTE   W96
//  #08 //042   ----------------------------------------
 BYTE   W96
//  #08 //043   ----------------------------------------
 BYTE   W96
//  #08 //044   ----------------------------------------
 BYTE   W96
//  #08 //045   ----------------------------------------
 BYTE   W96
//  #08 //046   ----------------------------------------
 BYTE   W96
//  #08 //047   ----------------------------------------
 BYTE   PATT
  POIN2 Label_01312F09
//  #08 //048   ----------------------------------------
 BYTE   W96
//  #08 //049   ----------------------------------------
 BYTE   W96
//  #08 //050   ----------------------------------------
 BYTE   W96
//  #08 //051   ----------------------------------------
 BYTE   W96
//  #08 //052   ----------------------------------------
 BYTE   W96
//  #08 //053   ----------------------------------------
 BYTE   W96
//  #08 //054   ----------------------------------------
 BYTE   W96
//  #08 //055   ----------------------------------------
 BYTE   W96
//  #08 //056   ----------------------------------------
 BYTE   W96
//  #08 //057   ----------------------------------------
 BYTE   W96
//  #08 //058   ----------------------------------------
 BYTE   W96
//  #08 //059   ----------------------------------------
 BYTE   W96
//  #08 //060   ----------------------------------------
 BYTE   W96
//  #08 //061   ----------------------------------------
 BYTE   W96
//  #08 //062   ----------------------------------------
 BYTE   W96
//  #08 //063   ----------------------------------------
 BYTE   W96
//  #08 //064   ----------------------------------------
 BYTE   GoTo
  POIN2 Label_01312EE6
//  #08 //065   ----------------------------------------
 BYTE   VOICE   48
 BYTE   PAN   c_v+0
 BYTE   VOL   42*InsideTheWhale_mvl/mxv
 BYTE   PAN   c_v+0
 BYTE   VOL   42*InsideTheWhale_mvl/mxv
 BYTE   PAN   c_v+0
 BYTE   VOL   42*InsideTheWhale_mvl/mxv
 BYTE   BEND   c_v+0
 BYTE   FINE

//******************************************************//
	ALIGN 4

InsideTheWhale:
	BYTE	8	// NumTrks
	BYTE	0	// NumBlks
	BYTE	InsideTheWhale_pri	// Priority
	BYTE	InsideTheWhale_rev	// Reverb.
    
	POIN2	InsideTheWhale_grp
    
	POIN2	InsideTheWhale_001
	POIN2	InsideTheWhale_002
	POIN2	InsideTheWhale_003
	POIN2	InsideTheWhale_004
	POIN2	InsideTheWhale_005
	POIN2	InsideTheWhale_006
	POIN2	InsideTheWhale_007
	POIN2	InsideTheWhale_008

	
