	.include "MPlayDef.s"

	.equ	IsaachArmy_grp, voicegroup000
	.equ	IsaachArmy_pri, 0
	.equ	IsaachArmy_rev, 0
	.equ	IsaachArmy_mvl, 127
	.equ	IsaachArmy_key, 0
	.equ	IsaachArmy_tbs, 1
	.equ	IsaachArmy_exg, 0
	.equ	IsaachArmy_cmp, 1

	.section .rodata
	.global	IsaachArmy
	.align	2


@**************** Track 1 (Midi-Chn.0) ****************@

IsaachArmy_001:
@  #01 @000   ----------------------------------------
 .byte   KEYSH , IsaachArmy_key+0
 .byte   TEMPO , 100*IsaachArmy_tbs/2
 .byte   VOICE , 48
 .byte   VOL , 62*IsaachArmy_mvl/mxv
 .byte   PAN , c_v+0
 .byte   N05 ,Cs4 ,v096
 .byte   W06
 .byte   Ds4
 .byte   W06
 .byte   En4
 .byte   W06
 .byte   Fs4
 .byte   W06
Label_011C69C0:
 .byte   N23 ,Ds3 ,v096
 .byte   N44 ,Gs4
 .byte   W24
 .byte   N05 ,Ds3
 .byte   W12
 .byte   N05
 .byte   W12
 .byte   N23 ,En3
 .byte   N32 ,Ds4
 .byte   W24
@  #01 @001   ----------------------------------------
 .byte   N23 ,Cs3
 .byte   W12
 .byte   N05 ,En4
 .byte   W06
 .byte   Fs4
 .byte   W06
 .byte   PEND 
Label_011C69D9:
 .byte   N23 ,Ds4 ,v096
 .byte   W24
 .byte   N32 ,Gs3
 .byte   W36
 .byte   N11 ,Cs4
 .byte   W12
@  #01 @002   ----------------------------------------
 .byte   Bn3
 .byte   W12
 .byte   As3
 .byte   W12
 .byte   PEND 
@  #01 @003   ----------------------------------------
 .byte   PATT
  .word Label_011C69C0
@  #01 @004   ----------------------------------------
Label_011C69ED:
 .byte   N23 ,Ds4 ,v096
 .byte   W24
 .byte   N44 ,Gs3
 .byte   W36
 .byte   N11 ,Cs4
 .byte   W12
 .byte   Bn3
 .byte   W12
 .byte   Cs4
 .byte   W12
 .byte   PEND 
@  #01 @005   ----------------------------------------
Label_011C69FC:
 .byte   N23 ,Gs3 ,v096
 .byte   N44 ,Gs4
 .byte   W24
 .byte   N05 ,Gs3
 .byte   W12
 .byte   N05
 .byte   W12
 .byte   N23 ,An3
 .byte   N32 ,Ds4
 .byte   W24
 .byte   N23 ,Fs3
 .byte   W12
 .byte   N05 ,En4
 .byte   W06
 .byte   Fs4
 .byte   W06
 .byte   PEND 
@  #01 @006   ----------------------------------------
Label_011C6A15:
 .byte   N23 ,Gs3 ,v096
 .byte   N23 ,Gs4
 .byte   W24
 .byte   N05 ,Gs3
 .byte   N68 ,Cs4
 .byte   W12
 .byte   N05 ,Gs3
 .byte   W12
 .byte   N23 ,An3
 .byte   W24
 .byte   Fs3
 .byte   W24
 .byte   PEND 
@  #01 @007   ----------------------------------------
 .byte   PATT
  .word Label_011C69FC
@  #01 @008   ----------------------------------------
Label_011C6A2E:
 .byte   N23 ,Gs4 ,v096
 .byte   W24
 .byte   N68 ,Gs3
 .byte   W48
 .byte   N23 ,Ds4 ,v080
 .byte   W24
 .byte   PEND 
@  #01 @009   ----------------------------------------
 .byte   W96
@  #01 @010   ----------------------------------------
Label_011C6A3B:
 .byte   N44 ,Cs3 ,v096
 .byte   N44 ,Gs3
 .byte   W48
 .byte   Cs3
 .byte   N44 ,Fs3
 .byte   W48
 .byte   PEND 
@  #01 @011   ----------------------------------------
 .byte   W96
@  #01 @012   ----------------------------------------
Label_011C6A47:
 .byte   N44 ,An2 ,v112
 .byte   N44 ,En3
 .byte   W48
 .byte   Gs2
 .byte   N44 ,Ds3
 .byte   W48
 .byte   PEND 
@  #01 @013   ----------------------------------------
Label_011C6A52:
 .byte   N68 ,Ds3 ,v080
 .byte   N68 ,Gs3
 .byte   N68 ,Ds4
 .byte   W72
 .byte   N23 ,Fs3
 .byte   N23 ,Cs4
 .byte   N23 ,Fs4
 .byte   W24
 .byte   PEND 
@  #01 @014   ----------------------------------------
Label_011C6A62:
 .byte   N92 ,Ds3 ,v080
 .byte   N92 ,Gs3
 .byte   N92 ,Ds4
 .byte   W96
 .byte   PEND 
@  #01 @015   ----------------------------------------
Label_011C6A6B:
 .byte   N44 ,Ds3 ,v080
 .byte   N44 ,Gs3
 .byte   N44 ,Ds4
 .byte   W48
 .byte   En3
 .byte   N44 ,An3
 .byte   N44 ,En4
 .byte   W48
 .byte   PEND 
@  #01 @016   ----------------------------------------
 .byte   PATT
  .word Label_011C6A62
@  #01 @017   ----------------------------------------
 .byte   W96
@  #01 @018   ----------------------------------------
Label_011C6A80:
 .byte   W72
 .byte   N05 ,Cs4 ,v080
 .byte   W06
 .byte   Ds4
 .byte   W06
 .byte   En4
 .byte   W06
 .byte   Fs4
 .byte   W06
 .byte   PEND 
@  #01 @019   ----------------------------------------
 .byte   PATT
  .word Label_011C69C0
@  #01 @020   ----------------------------------------
 .byte   PATT
  .word Label_011C69D9
@  #01 @021   ----------------------------------------
 .byte   PATT
  .word Label_011C69C0
@  #01 @022   ----------------------------------------
 .byte   PATT
  .word Label_011C69ED
@  #01 @023   ----------------------------------------
 .byte   PATT
  .word Label_011C69FC
@  #01 @024   ----------------------------------------
 .byte   PATT
  .word Label_011C6A15
@  #01 @025   ----------------------------------------
 .byte   PATT
  .word Label_011C69FC
@  #01 @026   ----------------------------------------
 .byte   PATT
  .word Label_011C6A2E
@  #01 @027   ----------------------------------------
 .byte   W96
@  #01 @028   ----------------------------------------
 .byte   PATT
  .word Label_011C6A3B
@  #01 @029   ----------------------------------------
 .byte   W96
@  #01 @030   ----------------------------------------
 .byte   PATT
  .word Label_011C6A47
@  #01 @031   ----------------------------------------
 .byte   PATT
  .word Label_011C6A52
@  #01 @032   ----------------------------------------
 .byte   PATT
  .word Label_011C6A62
@  #01 @033   ----------------------------------------
 .byte   PATT
  .word Label_011C6A6B
@  #01 @034   ----------------------------------------
 .byte   PATT
  .word Label_011C6A62
@  #01 @035   ----------------------------------------
 .byte   W96
@  #01 @036   ----------------------------------------
 .byte   PATT
  .word Label_011C6A80
@  #01 @037   ----------------------------------------
 .byte   N92 ,Gs3 ,v080
 .byte   N92 ,Cn4
 .byte   N92 ,Ds4
 .byte   N92 ,Gs4
 .byte   W96
 .byte   FINE

@**************** Track 2 (Midi-Chn.1) ****************@

IsaachArmy_002:
@  #02 @000   ----------------------------------------
 .byte   KEYSH , IsaachArmy_key+0
 .byte   VOICE , 56
 .byte   VOL , 62*IsaachArmy_mvl/mxv
 .byte   PAN , c_v+0
 .byte   W24
 .byte   W96
@  #02 @001   ----------------------------------------
 .byte   W96
@  #02 @002   ----------------------------------------
 .byte   W96
@  #02 @003   ----------------------------------------
 .byte   W96
@  #02 @004   ----------------------------------------
 .byte   W96
@  #02 @005   ----------------------------------------
 .byte   W96
@  #02 @006   ----------------------------------------
 .byte   W96
@  #02 @007   ----------------------------------------
 .byte   W96
@  #02 @008   ----------------------------------------
Label_011C6AF9:
 .byte   W12
 .byte   N05 ,Ds3 ,v080
 .byte   N05 ,Gs3
 .byte   N05 ,Ds4
 .byte   W06
 .byte   En3
 .byte   N05 ,An3
 .byte   N05 ,En4
 .byte   W06
 .byte   Ds3
 .byte   N05 ,Gs3
 .byte   N05 ,Ds4
 .byte   W12
 .byte   Ds3
 .byte   N05 ,Gs3
 .byte   N05 ,Ds4
 .byte   W12
 .byte   N44 ,Ds3
 .byte   N44 ,Gs3
 .byte   N44 ,Ds4
 .byte   W48
 .byte   PEND 
@  #02 @009   ----------------------------------------
 .byte   W96
@  #02 @010   ----------------------------------------
Label_011C6B1D:
 .byte   W12
 .byte   N05 ,Ds3 ,v080
 .byte   N05 ,Gs3
 .byte   N05 ,Ds4
 .byte   W06
 .byte   En3
 .byte   N05 ,An3
 .byte   N05 ,En4
 .byte   W06
 .byte   Ds3
 .byte   N05 ,Gs3
 .byte   N05 ,Ds4
 .byte   W12
 .byte   Fs3
 .byte   N05 ,Cs4
 .byte   N05 ,Fs4
 .byte   W12
 .byte   N44 ,Ds3
 .byte   N44 ,Gs3
 .byte   N44 ,Ds4
 .byte   W48
 .byte   PEND 
@  #02 @011   ----------------------------------------
 .byte   W96
@  #02 @012   ----------------------------------------
 .byte   W96
@  #02 @013   ----------------------------------------
 .byte   W96
@  #02 @014   ----------------------------------------
 .byte   W96
@  #02 @015   ----------------------------------------
 .byte   W96
@  #02 @016   ----------------------------------------
Label_011C6B45:
 .byte   N23 ,Gs2 ,v080
 .byte   N23 ,Ds3
 .byte   W24
 .byte   N05 ,Gs2
 .byte   N05 ,Ds3
 .byte   W12
 .byte   Gs2
 .byte   N05 ,Ds3
 .byte   W12
 .byte   N23 ,An2
 .byte   N23 ,En3
 .byte   W24
 .byte   Fs2
 .byte   N23 ,Cs3
 .byte   W24
 .byte   PEND 
@  #02 @017   ----------------------------------------
 .byte   N92 ,Gs2
 .byte   N92 ,Ds3
 .byte   W96
@  #02 @018   ----------------------------------------
 .byte   W96
@  #02 @019   ----------------------------------------
 .byte   W96
@  #02 @020   ----------------------------------------
 .byte   W96
@  #02 @021   ----------------------------------------
 .byte   W96
@  #02 @022   ----------------------------------------
 .byte   W96
@  #02 @023   ----------------------------------------
 .byte   W96
@  #02 @024   ----------------------------------------
 .byte   W96
@  #02 @025   ----------------------------------------
 .byte   W96
@  #02 @026   ----------------------------------------
 .byte   PATT
  .word Label_011C6AF9
@  #02 @027   ----------------------------------------
 .byte   W96
@  #02 @028   ----------------------------------------
 .byte   PATT
  .word Label_011C6B1D
@  #02 @029   ----------------------------------------
 .byte   W96
@  #02 @030   ----------------------------------------
 .byte   W96
@  #02 @031   ----------------------------------------
 .byte   W96
@  #02 @032   ----------------------------------------
 .byte   W96
@  #02 @033   ----------------------------------------
 .byte   W96
@  #02 @034   ----------------------------------------
 .byte   PATT
  .word Label_011C6B45
@  #02 @035   ----------------------------------------
 .byte   N92 ,Gs2 ,v080
 .byte   N92 ,Ds3
 .byte   W96
@  #02 @036   ----------------------------------------
 .byte   W96
 .byte   FINE

@**************** Track 3 (Midi-Chn.2) ****************@

IsaachArmy_003:
@  #03 @000   ----------------------------------------
 .byte   KEYSH , IsaachArmy_key+0
 .byte   VOICE , 57
 .byte   VOL , 62*IsaachArmy_mvl/mxv
 .byte   PAN , c_v+0
 .byte   W24
Label_011C6B91:
 .byte   N23 ,Ds2 ,v080
 .byte   W24
 .byte   N05
 .byte   W12
 .byte   N05
 .byte   W12
 .byte   N23 ,En2
 .byte   W24
@  #03 @001   ----------------------------------------
 .byte   Cs2
 .byte   W24
 .byte   PEND 
@  #03 @002   ----------------------------------------
 .byte   PATT
  .word Label_011C6B91
@  #03 @003   ----------------------------------------
 .byte   PATT
  .word Label_011C6B91
@  #03 @004   ----------------------------------------
Label_011C6BA9:
 .byte   N23 ,Ds2 ,v080
 .byte   W24
 .byte   N05
 .byte   W12
 .byte   N05
 .byte   W12
 .byte   N44 ,En2
 .byte   W48
 .byte   PEND 
@  #03 @005   ----------------------------------------
Label_011C6BB5:
 .byte   N23 ,Gs2 ,v080
 .byte   W24
 .byte   N05
 .byte   W12
 .byte   N05
 .byte   W12
 .byte   N23 ,An2
 .byte   W24
 .byte   Fs2
 .byte   W24
 .byte   PEND 
@  #03 @006   ----------------------------------------
 .byte   PATT
  .word Label_011C6BB5
@  #03 @007   ----------------------------------------
 .byte   PATT
  .word Label_011C6BB5
@  #03 @008   ----------------------------------------
 .byte   PATT
  .word Label_011C6BB5
@  #03 @009   ----------------------------------------
 .byte   N92 ,Gs1 ,v080
 .byte   N92 ,Ds2
 .byte   W96
@  #03 @010   ----------------------------------------
Label_011C6BD8:
 .byte   W12
 .byte   N05 ,Ds2 ,v080
 .byte   W24
 .byte   N05
 .byte   W24
 .byte   N05
 .byte   W12
 .byte   N05
 .byte   W12
 .byte   N05
 .byte   W12
 .byte   PEND 
@  #03 @011   ----------------------------------------
 .byte   N92 ,Gs1
 .byte   N92 ,Ds2
 .byte   W96
@  #03 @012   ----------------------------------------
 .byte   PATT
  .word Label_011C6BD8
@  #03 @013   ----------------------------------------
Label_011C6BF0:
 .byte   N05 ,An1 ,v080
 .byte   N05 ,En2
 .byte   W12
 .byte   N17 ,An1
 .byte   N17 ,En2
 .byte   W24
 .byte   N05 ,An1
 .byte   N05 ,En2
 .byte   W12
 .byte   An1
 .byte   N05 ,En2
 .byte   W12
 .byte   N17 ,An1
 .byte   N17 ,En2
 .byte   W24
 .byte   N05 ,An1
 .byte   N05 ,En2
 .byte   W12
 .byte   PEND 
@  #03 @014   ----------------------------------------
Label_011C6C0F:
 .byte   N05 ,Gs1 ,v080
 .byte   N05 ,Ds2
 .byte   W12
 .byte   N17 ,Gs1
 .byte   N17 ,Ds2
 .byte   W24
 .byte   N05 ,Gs1
 .byte   N05 ,Ds2
 .byte   W12
 .byte   Gs1
 .byte   N05 ,Ds2
 .byte   W12
 .byte   N17 ,Gs1
 .byte   N17 ,Ds2
 .byte   W24
 .byte   N05 ,Gs1
 .byte   N05 ,Ds2
 .byte   W12
 .byte   PEND 
@  #03 @015   ----------------------------------------
 .byte   PATT
  .word Label_011C6BF0
@  #03 @016   ----------------------------------------
 .byte   PATT
  .word Label_011C6C0F
@  #03 @017   ----------------------------------------
 .byte   W96
@  #03 @018   ----------------------------------------
 .byte   W96
@  #03 @019   ----------------------------------------
 .byte   PATT
  .word Label_011C6B91
@  #03 @020   ----------------------------------------
 .byte   PATT
  .word Label_011C6B91
@  #03 @021   ----------------------------------------
 .byte   PATT
  .word Label_011C6B91
@  #03 @022   ----------------------------------------
 .byte   PATT
  .word Label_011C6BA9
@  #03 @023   ----------------------------------------
 .byte   PATT
  .word Label_011C6BB5
@  #03 @024   ----------------------------------------
 .byte   PATT
  .word Label_011C6BB5
@  #03 @025   ----------------------------------------
 .byte   PATT
  .word Label_011C6BB5
@  #03 @026   ----------------------------------------
 .byte   PATT
  .word Label_011C6BB5
@  #03 @027   ----------------------------------------
 .byte   N92 ,Gs1 ,v080
 .byte   N92 ,Ds2
 .byte   W96
@  #03 @028   ----------------------------------------
 .byte   PATT
  .word Label_011C6BD8
@  #03 @029   ----------------------------------------
 .byte   N92 ,Gs1 ,v080
 .byte   N92 ,Ds2
 .byte   W96
@  #03 @030   ----------------------------------------
 .byte   PATT
  .word Label_011C6BD8
@  #03 @031   ----------------------------------------
 .byte   PATT
  .word Label_011C6BF0
@  #03 @032   ----------------------------------------
 .byte   PATT
  .word Label_011C6C0F
@  #03 @033   ----------------------------------------
 .byte   PATT
  .word Label_011C6BF0
@  #03 @034   ----------------------------------------
 .byte   PATT
  .word Label_011C6C0F
@  #03 @035   ----------------------------------------
 .byte   W96
@  #03 @036   ----------------------------------------
 .byte   W96
@  #03 @037   ----------------------------------------
 .byte   N92 ,Ds2 ,v080
 .byte   W96
 .byte   FINE

@**************** Track 4 (Midi-Chn.3) ****************@

IsaachArmy_004:
@  #04 @000   ----------------------------------------
 .byte   KEYSH , IsaachArmy_key+0
 .byte   VOICE , 34
 .byte   VOL , 62*IsaachArmy_mvl/mxv
 .byte   PAN , c_v+0
 .byte   W24
Label_011C6C9D:
 .byte   N05 ,Gs0 ,v080
 .byte   W12
 .byte   N23
 .byte   W24
 .byte   N05
 .byte   W12
 .byte   N05
 .byte   W12
 .byte   N23
 .byte   W36
 .byte   PEND 
@  #04 @001   ----------------------------------------
 .byte   PATT
  .word Label_011C6C9D
@  #04 @002   ----------------------------------------
 .byte   PATT
  .word Label_011C6C9D
@  #04 @003   ----------------------------------------
 .byte   PATT
  .word Label_011C6C9D
@  #04 @004   ----------------------------------------
Label_011C6CB9:
 .byte   N05 ,Cs1 ,v080
 .byte   W12
 .byte   N23
 .byte   W24
 .byte   N05
 .byte   W12
 .byte   N05
 .byte   W12
 .byte   N23
 .byte   W36
 .byte   PEND 
@  #04 @005   ----------------------------------------
 .byte   PATT
  .word Label_011C6CB9
@  #04 @006   ----------------------------------------
 .byte   PATT
  .word Label_011C6CB9
@  #04 @007   ----------------------------------------
 .byte   PATT
  .word Label_011C6CB9
@  #04 @008   ----------------------------------------
 .byte   W96
@  #04 @009   ----------------------------------------
 .byte   W96
@  #04 @010   ----------------------------------------
 .byte   W96
@  #04 @011   ----------------------------------------
 .byte   W96
@  #04 @012   ----------------------------------------
 .byte   W96
@  #04 @013   ----------------------------------------
 .byte   W96
@  #04 @014   ----------------------------------------
 .byte   W96
@  #04 @015   ----------------------------------------
 .byte   W96
@  #04 @016   ----------------------------------------
 .byte   PATT
  .word Label_011C6C9D
@  #04 @017   ----------------------------------------
 .byte   PATT
  .word Label_011C6C9D
@  #04 @018   ----------------------------------------
 .byte   PATT
  .word Label_011C6C9D
@  #04 @019   ----------------------------------------
 .byte   PATT
  .word Label_011C6C9D
@  #04 @020   ----------------------------------------
 .byte   PATT
  .word Label_011C6C9D
@  #04 @021   ----------------------------------------
 .byte   PATT
  .word Label_011C6C9D
@  #04 @022   ----------------------------------------
 .byte   PATT
  .word Label_011C6CB9
@  #04 @023   ----------------------------------------
 .byte   PATT
  .word Label_011C6CB9
@  #04 @024   ----------------------------------------
 .byte   PATT
  .word Label_011C6CB9
@  #04 @025   ----------------------------------------
 .byte   PATT
  .word Label_011C6CB9
@  #04 @026   ----------------------------------------
 .byte   W96
@  #04 @027   ----------------------------------------
 .byte   W96
@  #04 @028   ----------------------------------------
 .byte   W96
@  #04 @029   ----------------------------------------
 .byte   W96
@  #04 @030   ----------------------------------------
 .byte   W96
@  #04 @031   ----------------------------------------
 .byte   W96
@  #04 @032   ----------------------------------------
 .byte   W96
@  #04 @033   ----------------------------------------
 .byte   W96
@  #04 @034   ----------------------------------------
 .byte   PATT
  .word Label_011C6C9D
@  #04 @035   ----------------------------------------
 .byte   PATT
  .word Label_011C6C9D
@  #04 @036   ----------------------------------------
 .byte   N92 ,Gs0 ,v080
 .byte   W96
 .byte   FINE

@**************** Track 5 (Midi-Chn.4) ****************@

IsaachArmy_005:
@  #05 @000   ----------------------------------------
 .byte   KEYSH , IsaachArmy_key+0
 .byte   VOICE , 0
 .byte   VOL , 62*IsaachArmy_mvl/mxv
 .byte   PAN , c_v+0
 .byte   W24
 .byte   W96
@  #05 @001   ----------------------------------------
 .byte   W96
@  #05 @002   ----------------------------------------
 .byte   W96
@  #05 @003   ----------------------------------------
 .byte   W96
@  #05 @004   ----------------------------------------
 .byte   W96
@  #05 @005   ----------------------------------------
 .byte   W96
@  #05 @006   ----------------------------------------
 .byte   W96
@  #05 @007   ----------------------------------------
 .byte   W96
@  #05 @008   ----------------------------------------
Label_011C6D39:
 .byte   W60
 .byte   N05 ,Ds1 ,v080
 .byte   W06
 .byte   N05
 .byte   W06
 .byte   N05
 .byte   W12
 .byte   N05
 .byte   W12
 .byte   PEND 
@  #05 @009   ----------------------------------------
Label_011C6D45:
 .byte   N23 ,Ds1 ,v080
 .byte   W24
 .byte   N11
 .byte   W12
 .byte   N11
 .byte   W24
 .byte   N11
 .byte   W24
 .byte   N11
 .byte   W12
 .byte   PEND 
@  #05 @010   ----------------------------------------
 .byte   PATT
  .word Label_011C6D39
@  #05 @011   ----------------------------------------
Label_011C6D57:
 .byte   W12
 .byte   N11 ,Ds1 ,v080
 .byte   W24
 .byte   N11
 .byte   W24
 .byte   N11
 .byte   W24
 .byte   N11
 .byte   W12
 .byte   PEND 
@  #05 @012   ----------------------------------------
 .byte   W96
@  #05 @013   ----------------------------------------
 .byte   W96
@  #05 @014   ----------------------------------------
 .byte   W96
@  #05 @015   ----------------------------------------
 .byte   W96
@  #05 @016   ----------------------------------------
 .byte   W96
@  #05 @017   ----------------------------------------
 .byte   W96
@  #05 @018   ----------------------------------------
 .byte   W96
@  #05 @019   ----------------------------------------
 .byte   W96
@  #05 @020   ----------------------------------------
 .byte   W96
@  #05 @021   ----------------------------------------
 .byte   W96
@  #05 @022   ----------------------------------------
 .byte   W96
@  #05 @023   ----------------------------------------
 .byte   W96
@  #05 @024   ----------------------------------------
 .byte   W96
@  #05 @025   ----------------------------------------
 .byte   W96
@  #05 @026   ----------------------------------------
 .byte   PATT
  .word Label_011C6D39
@  #05 @027   ----------------------------------------
 .byte   PATT
  .word Label_011C6D45
@  #05 @028   ----------------------------------------
 .byte   PATT
  .word Label_011C6D39
@  #05 @029   ----------------------------------------
 .byte   PATT
  .word Label_011C6D57
@  #05 @030   ----------------------------------------
 .byte   W96
@  #05 @031   ----------------------------------------
 .byte   W96
@  #05 @032   ----------------------------------------
 .byte   W96
@  #05 @033   ----------------------------------------
 .byte   W96
@  #05 @034   ----------------------------------------
 .byte   W96
@  #05 @035   ----------------------------------------
 .byte   W96
@  #05 @036   ----------------------------------------
 .byte   W96
 .byte   FINE

@**************** Track 6 (Midi-Chn.5) ****************@

IsaachArmy_006:
@  #06 @000   ----------------------------------------
 .byte   KEYSH , IsaachArmy_key+0
 .byte   VOICE , 0
 .byte   VOL , 62*IsaachArmy_mvl/mxv
 .byte   PAN , c_v+0
 .byte   N23 ,Cn1 ,v096
 .byte   W24
Label_011C6D9C:
 .byte   N23 ,Cn1 ,v096
 .byte   W24
 .byte   N05
 .byte   W12
 .byte   N05
 .byte   W12
 .byte   N23
 .byte   W24
@  #06 @001   ----------------------------------------
 .byte   N23
 .byte   W24
 .byte   PEND 
@  #06 @002   ----------------------------------------
 .byte   PATT
  .word Label_011C6D9C
@  #06 @003   ----------------------------------------
 .byte   PATT
  .word Label_011C6D9C
@  #06 @004   ----------------------------------------
 .byte   PATT
  .word Label_011C6D9C
@  #06 @005   ----------------------------------------
 .byte   PATT
  .word Label_011C6D9C
@  #06 @006   ----------------------------------------
 .byte   PATT
  .word Label_011C6D9C
@  #06 @007   ----------------------------------------
 .byte   PATT
  .word Label_011C6D9C
@  #06 @008   ----------------------------------------
 .byte   PATT
  .word Label_011C6D9C
@  #06 @009   ----------------------------------------
 .byte   N23 ,Cs2 ,v096
 .byte   W96
@  #06 @010   ----------------------------------------
 .byte   W96
@  #06 @011   ----------------------------------------
 .byte   N23
 .byte   W96
@  #06 @012   ----------------------------------------
 .byte   W96
@  #06 @013   ----------------------------------------
Label_011C6DD4:
 .byte   N11 ,Cn1 ,v096
 .byte   W24
 .byte   N11
 .byte   W12
 .byte   N11
 .byte   W12
 .byte   N11
 .byte   W24
 .byte   N11
 .byte   W12
 .byte   N11
 .byte   W12
 .byte   PEND 
@  #06 @014   ----------------------------------------
 .byte   PATT
  .word Label_011C6DD4
@  #06 @015   ----------------------------------------
 .byte   PATT
  .word Label_011C6DD4
@  #06 @016   ----------------------------------------
 .byte   PATT
  .word Label_011C6DD4
@  #06 @017   ----------------------------------------
 .byte   PATT
  .word Label_011C6DD4
@  #06 @018   ----------------------------------------
 .byte   PATT
  .word Label_011C6DD4
@  #06 @019   ----------------------------------------
 .byte   PATT
  .word Label_011C6D9C
@  #06 @020   ----------------------------------------
 .byte   PATT
  .word Label_011C6D9C
@  #06 @021   ----------------------------------------
 .byte   PATT
  .word Label_011C6D9C
@  #06 @022   ----------------------------------------
 .byte   PATT
  .word Label_011C6D9C
@  #06 @023   ----------------------------------------
 .byte   PATT
  .word Label_011C6D9C
@  #06 @024   ----------------------------------------
 .byte   PATT
  .word Label_011C6D9C
@  #06 @025   ----------------------------------------
 .byte   PATT
  .word Label_011C6D9C
@  #06 @026   ----------------------------------------
 .byte   PATT
  .word Label_011C6D9C
@  #06 @027   ----------------------------------------
 .byte   N23 ,Cs2 ,v096
 .byte   W96
@  #06 @028   ----------------------------------------
 .byte   W96
@  #06 @029   ----------------------------------------
 .byte   N23
 .byte   W96
@  #06 @030   ----------------------------------------
 .byte   W96
@  #06 @031   ----------------------------------------
 .byte   PATT
  .word Label_011C6DD4
@  #06 @032   ----------------------------------------
 .byte   PATT
  .word Label_011C6DD4
@  #06 @033   ----------------------------------------
 .byte   PATT
  .word Label_011C6DD4
@  #06 @034   ----------------------------------------
 .byte   PATT
  .word Label_011C6DD4
@  #06 @035   ----------------------------------------
 .byte   PATT
  .word Label_011C6DD4
@  #06 @036   ----------------------------------------
 .byte   PATT
  .word Label_011C6DD4
@  #06 @037   ----------------------------------------
 .byte   W96
 .byte   FINE

@******************************************************@
	.align	2

IsaachArmy:
	.byte	6	@ NumTrks
	.byte	0	@ NumBlks
	.byte	IsaachArmy_pri	@ Priority
	.byte	IsaachArmy_rev	@ Reverb.
    
	.word	IsaachArmy_grp
    
	.word	IsaachArmy_001
	.word	IsaachArmy_002
	.word	IsaachArmy_003
	.word	IsaachArmy_004
	.word	IsaachArmy_005
	.word	IsaachArmy_006

	.end
