	.include "MPlayDef.s"

	.equ	KBBStage5_grp, voicegroup000
	.equ	KBBStage5_pri, 0
	.equ	KBBStage5_rev, 0
	.equ	KBBStage5_mvl, 127
	.equ	KBBStage5_key, 0
	.equ	KBBStage5_tbs, 1
	.equ	KBBStage5_exg, 0
	.equ	KBBStage5_cmp, 1

	.section .rodata
	.global	KBBStage5
	.align	2


@**************** Track 1 (Midi-Chn.0) ****************@

KBBStage5_001:
@  #01 @000   ----------------------------------------
 .byte   KEYSH , KBBStage5_key+0
 .byte   TEMPO , 174*KBBStage5_tbs/2
 .byte   VOICE , 48
 .byte   VOL , 53*KBBStage5_mvl/mxv
 .byte   W96
@  #01 @001   ----------------------------------------
Label_010CD68D:
 .byte   N32 ,Gn3 ,v127
 .byte   W36
 .byte   N05 ,An3
 .byte   W06
 .byte   Bn3
 .byte   W06
 .byte   N23 ,Fs4
 .byte   W24
 .byte   En4
 .byte   W24
 .byte   PEND 
@  #01 @002   ----------------------------------------
Label_010CD69C:
 .byte   N23 ,Dn4 ,v127
 .byte   W24
 .byte   Cs4
 .byte   W24
 .byte   Dn4
 .byte   W24
 .byte   N11 ,En4
 .byte   W12
 .byte   N23 ,Cs4
 .byte   W12
 .byte   PEND 
@  #01 @003   ----------------------------------------
Label_010CD6AB:
 .byte   W12
 .byte   N11 ,Bn3 ,v127
 .byte   W12
 .byte   N44 ,An3
 .byte   W48
 .byte   N11 ,Fs3
 .byte   W12
 .byte   An3
 .byte   W12
 .byte   PEND 
@  #01 @004   ----------------------------------------
Label_010CD6B9:
 .byte   N32 ,Cs4 ,v127
 .byte   W36
 .byte   Dn4
 .byte   W36
 .byte   N23 ,Fs3
 .byte   W24
 .byte   PEND 
@  #01 @005   ----------------------------------------
 .byte   PATT
  .word Label_010CD68D
@  #01 @006   ----------------------------------------
Label_010CD6C8:
 .byte   N23 ,Dn4 ,v127
 .byte   W24
 .byte   Cs4
 .byte   W24
 .byte   Dn4
 .byte   W24
 .byte   N11 ,En4
 .byte   W12
 .byte   N44 ,Cs4
 .byte   W12
 .byte   PEND 
@  #01 @007   ----------------------------------------
 .byte   W36
 .byte   N68 ,Fs4
 .byte   W60
@  #01 @008   ----------------------------------------
Label_010CD6DB:
 .byte   W12
 .byte   N11 ,An3 ,v127
 .byte   W12
 .byte   Gs3
 .byte   W12
 .byte   An3
 .byte   W12
 .byte   N23 ,Cs4
 .byte   W24
 .byte   Cn4
 .byte   W24
 .byte   PEND 
@  #01 @009   ----------------------------------------
Label_010CD6EA:
 .byte   N32 ,Bn3 ,v127
 .byte   W36
 .byte   N23 ,Gn3
 .byte   W24
 .byte   N11 ,An3
 .byte   W12
 .byte   Bn3
 .byte   W12
 .byte   Fs4
 .byte   W12
 .byte   PEND 
@  #01 @010   ----------------------------------------
Label_010CD6F9:
 .byte   N32 ,Fs4 ,v127
 .byte   W36
 .byte   N05 ,En4
 .byte   W06
 .byte   Ds4
 .byte   W06
 .byte   N44 ,En4
 .byte   W48
 .byte   PEND 
@  #01 @011   ----------------------------------------
Label_010CD706:
 .byte   N32 ,Dn4 ,v127
 .byte   W36
 .byte   N23 ,Bn3
 .byte   W24
 .byte   N11 ,Cs4
 .byte   W12
 .byte   Dn4
 .byte   W12
 .byte   An4
 .byte   W12
 .byte   PEND 
@  #01 @012   ----------------------------------------
Label_010CD715:
 .byte   N32 ,An4 ,v127
 .byte   W36
 .byte   N05 ,Gn4
 .byte   W06
 .byte   Fs4
 .byte   W06
 .byte   N44 ,En4
 .byte   W48
 .byte   PEND 
@  #01 @013   ----------------------------------------
Label_010CD722:
 .byte   N56 ,Fn4 ,v127
 .byte   W60
 .byte   N11 ,Gn4
 .byte   W12
 .byte   An4
 .byte   W12
 .byte   Fn5
 .byte   W12
 .byte   PEND 
@  #01 @014   ----------------------------------------
Label_010CD72E:
 .byte   N32 ,En5 ,v127
 .byte   W36
 .byte   Bn4
 .byte   W36
 .byte   N23 ,Dn5
 .byte   W24
 .byte   PEND 
@  #01 @015   ----------------------------------------
Label_010CD738:
 .byte   N32 ,Dn5 ,v127
 .byte   W36
 .byte   N11 ,Cs5
 .byte   W12
 .byte   N68
 .byte   W48
 .byte   PEND 
@  #01 @016   ----------------------------------------
Label_010CD742:
 .byte   W24
 .byte   N23 ,An4 ,v127
 .byte   W24
 .byte   N23
 .byte   W24
 .byte   Gn4
 .byte   W24
 .byte   PEND 
@  #01 @017   ----------------------------------------
 .byte   VOICE , 48
 .byte   W96
@  #01 @018   ----------------------------------------
 .byte   W96
@  #01 @019   ----------------------------------------
 .byte   W96
@  #01 @020   ----------------------------------------
 .byte   W96
@  #01 @021   ----------------------------------------
 .byte   W96
@  #01 @022   ----------------------------------------
 .byte   W96
@  #01 @023   ----------------------------------------
 .byte   W96
@  #01 @024   ----------------------------------------
 .byte   W96
@  #01 @025   ----------------------------------------
 .byte   PATT
  .word Label_010CD68D
@  #01 @026   ----------------------------------------
 .byte   PATT
  .word Label_010CD69C
@  #01 @027   ----------------------------------------
 .byte   PATT
  .word Label_010CD6AB
@  #01 @028   ----------------------------------------
 .byte   PATT
  .word Label_010CD6B9
@  #01 @029   ----------------------------------------
 .byte   PATT
  .word Label_010CD68D
@  #01 @030   ----------------------------------------
 .byte   PATT
  .word Label_010CD6C8
@  #01 @031   ----------------------------------------
 .byte   W36
 .byte   N68 ,Fs4 ,v127
 .byte   W60
@  #01 @032   ----------------------------------------
 .byte   PATT
  .word Label_010CD6DB
@  #01 @033   ----------------------------------------
 .byte   PATT
  .word Label_010CD6EA
@  #01 @034   ----------------------------------------
 .byte   PATT
  .word Label_010CD6F9
@  #01 @035   ----------------------------------------
 .byte   PATT
  .word Label_010CD706
@  #01 @036   ----------------------------------------
 .byte   PATT
  .word Label_010CD715
@  #01 @037   ----------------------------------------
 .byte   PATT
  .word Label_010CD722
@  #01 @038   ----------------------------------------
 .byte   PATT
  .word Label_010CD72E
@  #01 @039   ----------------------------------------
 .byte   PATT
  .word Label_010CD738
@  #01 @040   ----------------------------------------
 .byte   PATT
  .word Label_010CD742
@  #01 @041   ----------------------------------------
 .byte   W96
@  #01 @042   ----------------------------------------
 .byte   W96
@  #01 @043   ----------------------------------------
 .byte   W96
@  #01 @044   ----------------------------------------
 .byte   W96
@  #01 @045   ----------------------------------------
 .byte   W96
@  #01 @046   ----------------------------------------
 .byte   W96
@  #01 @047   ----------------------------------------
 .byte   W96
@  #01 @048   ----------------------------------------
 .byte   W96
@  #01 @049   ----------------------------------------
 .byte   W96
@  #01 @050   ----------------------------------------
 .byte   W96
@  #01 @051   ----------------------------------------
 .byte   W96
@  #01 @052   ----------------------------------------
 .byte   W96
@  #01 @053   ----------------------------------------
 .byte   W96
@  #01 @054   ----------------------------------------
 .byte   W96
@  #01 @055   ----------------------------------------
 .byte   W96
@  #01 @056   ----------------------------------------
 .byte   W96
@  #01 @057   ----------------------------------------
 .byte   VOICE , 48
 .byte   W96
@  #01 @058   ----------------------------------------
 .byte   W96
@  #01 @059   ----------------------------------------
 .byte   W96
@  #01 @060   ----------------------------------------
 .byte   W96
@  #01 @061   ----------------------------------------
 .byte   W96
@  #01 @062   ----------------------------------------
 .byte   W96
@  #01 @063   ----------------------------------------
 .byte   W96
@  #01 @064   ----------------------------------------
 .byte   W96
@  #01 @065   ----------------------------------------
 .byte   PATT
  .word Label_010CD68D
@  #01 @066   ----------------------------------------
 .byte   PATT
  .word Label_010CD69C
@  #01 @067   ----------------------------------------
 .byte   PATT
  .word Label_010CD6AB
@  #01 @068   ----------------------------------------
 .byte   PATT
  .word Label_010CD6B9
@  #01 @069   ----------------------------------------
 .byte   PATT
  .word Label_010CD68D
@  #01 @070   ----------------------------------------
 .byte   PATT
  .word Label_010CD6C8
@  #01 @071   ----------------------------------------
 .byte   W36
 .byte   N68 ,Fs4 ,v127
 .byte   W60
@  #01 @072   ----------------------------------------
 .byte   PATT
  .word Label_010CD6DB
@  #01 @073   ----------------------------------------
 .byte   PATT
  .word Label_010CD6EA
@  #01 @074   ----------------------------------------
 .byte   PATT
  .word Label_010CD6F9
@  #01 @075   ----------------------------------------
 .byte   PATT
  .word Label_010CD706
@  #01 @076   ----------------------------------------
 .byte   PATT
  .word Label_010CD715
@  #01 @077   ----------------------------------------
 .byte   PATT
  .word Label_010CD722
@  #01 @078   ----------------------------------------
 .byte   PATT
  .word Label_010CD72E
@  #01 @079   ----------------------------------------
 .byte   PATT
  .word Label_010CD738
@  #01 @080   ----------------------------------------
 .byte   PATT
  .word Label_010CD742
@  #01 @081   ----------------------------------------
 .byte   VOICE , 48
 .byte   W96
@  #01 @082   ----------------------------------------
 .byte   W96
@  #01 @083   ----------------------------------------
 .byte   W96
@  #01 @084   ----------------------------------------
 .byte   W96
@  #01 @085   ----------------------------------------
 .byte   W96
@  #01 @086   ----------------------------------------
 .byte   W96
@  #01 @087   ----------------------------------------
 .byte   W96
@  #01 @088   ----------------------------------------
 .byte   W96
@  #01 @089   ----------------------------------------
 .byte   PATT
  .word Label_010CD68D
@  #01 @090   ----------------------------------------
 .byte   PATT
  .word Label_010CD69C
@  #01 @091   ----------------------------------------
 .byte   PATT
  .word Label_010CD6AB
@  #01 @092   ----------------------------------------
 .byte   PATT
  .word Label_010CD6B9
@  #01 @093   ----------------------------------------
 .byte   PATT
  .word Label_010CD68D
@  #01 @094   ----------------------------------------
 .byte   PATT
  .word Label_010CD6C8
@  #01 @095   ----------------------------------------
 .byte   W36
 .byte   N68 ,Fs4 ,v127
 .byte   W60
@  #01 @096   ----------------------------------------
 .byte   PATT
  .word Label_010CD6DB
@  #01 @097   ----------------------------------------
 .byte   PATT
  .word Label_010CD6EA
@  #01 @098   ----------------------------------------
 .byte   PATT
  .word Label_010CD6F9
@  #01 @099   ----------------------------------------
 .byte   PATT
  .word Label_010CD706
@  #01 @100   ----------------------------------------
 .byte   PATT
  .word Label_010CD715
@  #01 @101   ----------------------------------------
 .byte   PATT
  .word Label_010CD722
@  #01 @102   ----------------------------------------
 .byte   PATT
  .word Label_010CD72E
@  #01 @103   ----------------------------------------
 .byte   PATT
  .word Label_010CD738
@  #01 @104   ----------------------------------------
 .byte   PATT
  .word Label_010CD742
@  #01 @105   ----------------------------------------
 .byte   W96
@  #01 @106   ----------------------------------------
 .byte   W96
@  #01 @107   ----------------------------------------
 .byte   W96
@  #01 @108   ----------------------------------------
 .byte   W96
@  #01 @109   ----------------------------------------
 .byte   W96
@  #01 @110   ----------------------------------------
 .byte   W96
@  #01 @111   ----------------------------------------
 .byte   W96
@  #01 @112   ----------------------------------------
 .byte   W96
@  #01 @113   ----------------------------------------
 .byte   W96
@  #01 @114   ----------------------------------------
 .byte   W96
@  #01 @115   ----------------------------------------
 .byte   W96
@  #01 @116   ----------------------------------------
 .byte   W96
@  #01 @117   ----------------------------------------
 .byte   W96
@  #01 @118   ----------------------------------------
 .byte   W96
@  #01 @119   ----------------------------------------
 .byte   W96
@  #01 @120   ----------------------------------------
 .byte   W92
 .byte   W03
 .byte   GOTO
  .word Label_010CD68D
 .byte   FINE

@**************** Track 2 (Midi-Chn.1) ****************@

KBBStage5_002:
@  #02 @000   ----------------------------------------
 .byte   KEYSH , KBBStage5_key+0
 .byte   VOICE , 73
 .byte   VOL , 59*KBBStage5_mvl/mxv
 .byte   N05 ,An3 ,v127
 .byte   W12
 .byte   N80
 .byte   W84
@  #02 @001   ----------------------------------------
Label_010DF54C:
 .byte   N05 ,Gn2 ,v127
 .byte   W12
 .byte   Gn3
 .byte   W06
 .byte   N05
 .byte   W06
 .byte   Gn2
 .byte   W12
 .byte   Gn3
 .byte   W06
 .byte   N05
 .byte   W06
 .byte   Gn2
 .byte   W12
 .byte   Gn3
 .byte   W06
 .byte   N05
 .byte   W06
 .byte   Gn2
 .byte   W12
 .byte   Gn3
 .byte   W06
 .byte   N05
 .byte   W06
 .byte   PEND 
@  #02 @002   ----------------------------------------
Label_010DF567:
 .byte   N05 ,An2 ,v127
 .byte   W12
 .byte   An3
 .byte   W06
 .byte   N05
 .byte   W06
 .byte   An2
 .byte   W12
 .byte   An3
 .byte   W06
 .byte   N05
 .byte   W06
 .byte   An2
 .byte   W12
 .byte   An3
 .byte   W06
 .byte   N05
 .byte   W06
 .byte   An2
 .byte   W12
 .byte   An3
 .byte   W06
 .byte   N05
 .byte   W06
 .byte   PEND 
@  #02 @003   ----------------------------------------
Label_010DF582:
 .byte   N05 ,Fs2 ,v127
 .byte   W12
 .byte   Fs3
 .byte   W06
 .byte   N05
 .byte   W06
 .byte   Fs2
 .byte   W12
 .byte   Fs3
 .byte   W06
 .byte   N05
 .byte   W06
 .byte   Fs2
 .byte   W12
 .byte   Fs3
 .byte   W06
 .byte   N05
 .byte   W06
 .byte   Fs2
 .byte   W12
 .byte   Fs3
 .byte   W06
 .byte   N05
 .byte   W06
 .byte   PEND 
@  #02 @004   ----------------------------------------
Label_010DF59D:
 .byte   N11 ,Bn2 ,v127
 .byte   W12
 .byte   Bn3
 .byte   W12
 .byte   Bn2
 .byte   W12
 .byte   Bn3
 .byte   W12
 .byte   Bn2
 .byte   W12
 .byte   Bn3
 .byte   W12
 .byte   Bn2
 .byte   W12
 .byte   Bn3
 .byte   W12
 .byte   PEND 
@  #02 @005   ----------------------------------------
 .byte   PATT
  .word Label_010DF54C
@  #02 @006   ----------------------------------------
 .byte   PATT
  .word Label_010DF567
@  #02 @007   ----------------------------------------
 .byte   PATT
  .word Label_010DF582
@  #02 @008   ----------------------------------------
Label_010DF5BF:
 .byte   N05 ,Fs2 ,v127
 .byte   W12
 .byte   Fs3
 .byte   W06
 .byte   N05
 .byte   W06
 .byte   Fs2
 .byte   W12
 .byte   Fs3
 .byte   W06
 .byte   N05
 .byte   W06
 .byte   N23 ,Fs2
 .byte   W24
 .byte   Fn2
 .byte   W24
 .byte   PEND 
@  #02 @009   ----------------------------------------
Label_010DF5D3:
 .byte   N05 ,En2 ,v127
 .byte   W12
 .byte   En3
 .byte   W06
 .byte   N05
 .byte   W06
 .byte   En2
 .byte   W12
 .byte   En3
 .byte   W06
 .byte   N05
 .byte   W06
 .byte   En2
 .byte   W12
 .byte   En3
 .byte   W06
 .byte   N05
 .byte   W06
 .byte   En2
 .byte   W12
 .byte   En3
 .byte   W06
 .byte   N05
 .byte   W06
 .byte   PEND 
@  #02 @010   ----------------------------------------
 .byte   PATT
  .word Label_010DF567
@  #02 @011   ----------------------------------------
 .byte   PATT
  .word Label_010DF54C
@  #02 @012   ----------------------------------------
 .byte   PATT
  .word Label_010DF567
@  #02 @013   ----------------------------------------
Label_010DF5FD:
 .byte   N05 ,Fn2 ,v127
 .byte   W12
 .byte   Fn3
 .byte   W06
 .byte   N05
 .byte   W06
 .byte   Fn2
 .byte   W12
 .byte   Fn3
 .byte   W06
 .byte   N05
 .byte   W06
 .byte   Fn2
 .byte   W12
 .byte   Fn3
 .byte   W06
 .byte   N05
 .byte   W06
 .byte   Fn2
 .byte   W12
 .byte   Fn3
 .byte   W06
 .byte   N05
 .byte   W06
 .byte   PEND 
@  #02 @014   ----------------------------------------
 .byte   PATT
  .word Label_010DF54C
@  #02 @015   ----------------------------------------
Label_010DF61D:
 .byte   N11 ,An2 ,v127
 .byte   W12
 .byte   An3
 .byte   W12
 .byte   An2
 .byte   W12
 .byte   An3
 .byte   W12
 .byte   An2
 .byte   W12
 .byte   An3
 .byte   W12
 .byte   An2
 .byte   W12
 .byte   An3
 .byte   W12
 .byte   PEND 
@  #02 @016   ----------------------------------------
Label_010DF630:
 .byte   N11 ,An2 ,v127
 .byte   W12
 .byte   An3
 .byte   W12
 .byte   An2
 .byte   W12
 .byte   An3
 .byte   W12
 .byte   N23 ,An2
 .byte   W24
 .byte   Gs2
 .byte   W24
 .byte   PEND 
@  #02 @017   ----------------------------------------
Label_010DF640:
 .byte   N11 ,Gn3 ,v127
 .byte   W12
 .byte   N11
 .byte   W12
 .byte   Bn3
 .byte   W12
 .byte   Gn3
 .byte   W12
 .byte   Cs4
 .byte   W12
 .byte   Gn3
 .byte   W12
 .byte   Dn4
 .byte   W12
 .byte   Gn3
 .byte   W12
 .byte   PEND 
@  #02 @018   ----------------------------------------
Label_010DF653:
 .byte   N11 ,Fs3 ,v127
 .byte   W12
 .byte   N11
 .byte   W12
 .byte   An3
 .byte   W12
 .byte   Fs3
 .byte   W12
 .byte   Cs4
 .byte   W12
 .byte   Fs3
 .byte   W12
 .byte   Dn4
 .byte   W12
 .byte   Fs3
 .byte   W12
 .byte   PEND 
@  #02 @019   ----------------------------------------
Label_010DF666:
 .byte   N11 ,An3 ,v127
 .byte   W12
 .byte   N11
 .byte   W12
 .byte   Cn4
 .byte   W12
 .byte   An3
 .byte   W12
 .byte   Dn4
 .byte   W12
 .byte   An3
 .byte   W12
 .byte   En4
 .byte   W12
 .byte   An3
 .byte   W12
 .byte   PEND 
@  #02 @020   ----------------------------------------
Label_010DF679:
 .byte   N05 ,Dn3 ,v127
 .byte   W12
 .byte   N05
 .byte   W06
 .byte   N05
 .byte   W06
 .byte   N05
 .byte   W12
 .byte   N05
 .byte   W06
 .byte   N05
 .byte   W06
 .byte   N05
 .byte   W12
 .byte   N05
 .byte   W06
 .byte   N05
 .byte   W06
 .byte   N05
 .byte   W12
 .byte   N05
 .byte   W06
 .byte   N05
 .byte   W06
 .byte   PEND 
@  #02 @021   ----------------------------------------
 .byte   PATT
  .word Label_010DF640
@  #02 @022   ----------------------------------------
 .byte   PATT
  .word Label_010DF653
@  #02 @023   ----------------------------------------
Label_010DF69E:
 .byte   N11 ,En3 ,v127
 .byte   W12
 .byte   N11
 .byte   W12
 .byte   Gn3
 .byte   W12
 .byte   En3
 .byte   W12
 .byte   An3
 .byte   W12
 .byte   En3
 .byte   W12
 .byte   Bn3
 .byte   W12
 .byte   En3
 .byte   W12
 .byte   PEND 
@  #02 @024   ----------------------------------------
Label_010DF6B1:
 .byte   N05 ,An3 ,v127
 .byte   W12
 .byte   N80
 .byte   W84
 .byte   PEND 
@  #02 @025   ----------------------------------------
 .byte   PATT
  .word Label_010DF54C
@  #02 @026   ----------------------------------------
 .byte   PATT
  .word Label_010DF567
@  #02 @027   ----------------------------------------
 .byte   PATT
  .word Label_010DF582
@  #02 @028   ----------------------------------------
 .byte   PATT
  .word Label_010DF59D
@  #02 @029   ----------------------------------------
 .byte   PATT
  .word Label_010DF54C
@  #02 @030   ----------------------------------------
 .byte   PATT
  .word Label_010DF567
@  #02 @031   ----------------------------------------
 .byte   PATT
  .word Label_010DF582
@  #02 @032   ----------------------------------------
 .byte   PATT
  .word Label_010DF5BF
@  #02 @033   ----------------------------------------
 .byte   PATT
  .word Label_010DF5D3
@  #02 @034   ----------------------------------------
 .byte   PATT
  .word Label_010DF567
@  #02 @035   ----------------------------------------
 .byte   PATT
  .word Label_010DF54C
@  #02 @036   ----------------------------------------
 .byte   PATT
  .word Label_010DF567
@  #02 @037   ----------------------------------------
 .byte   PATT
  .word Label_010DF5FD
@  #02 @038   ----------------------------------------
 .byte   PATT
  .word Label_010DF54C
@  #02 @039   ----------------------------------------
 .byte   PATT
  .word Label_010DF61D
@  #02 @040   ----------------------------------------
 .byte   PATT
  .word Label_010DF630
@  #02 @041   ----------------------------------------
 .byte   PATT
  .word Label_010DF54C
@  #02 @042   ----------------------------------------
 .byte   PATT
  .word Label_010DF567
@  #02 @043   ----------------------------------------
 .byte   PATT
  .word Label_010DF582
@  #02 @044   ----------------------------------------
 .byte   PATT
  .word Label_010DF59D
@  #02 @045   ----------------------------------------
 .byte   PATT
  .word Label_010DF54C
@  #02 @046   ----------------------------------------
 .byte   PATT
  .word Label_010DF567
@  #02 @047   ----------------------------------------
 .byte   PATT
  .word Label_010DF582
@  #02 @048   ----------------------------------------
 .byte   PATT
  .word Label_010DF582
@  #02 @049   ----------------------------------------
 .byte   PATT
  .word Label_010DF5D3
@  #02 @050   ----------------------------------------
 .byte   PATT
  .word Label_010DF567
@  #02 @051   ----------------------------------------
 .byte   PATT
  .word Label_010DF54C
@  #02 @052   ----------------------------------------
 .byte   PATT
  .word Label_010DF567
@  #02 @053   ----------------------------------------
 .byte   PATT
  .word Label_010DF5FD
@  #02 @054   ----------------------------------------
 .byte   PATT
  .word Label_010DF54C
@  #02 @055   ----------------------------------------
 .byte   PATT
  .word Label_010DF61D
@  #02 @056   ----------------------------------------
 .byte   PATT
  .word Label_010DF630
@  #02 @057   ----------------------------------------
 .byte   PATT
  .word Label_010DF640
@  #02 @058   ----------------------------------------
 .byte   PATT
  .word Label_010DF653
@  #02 @059   ----------------------------------------
 .byte   PATT
  .word Label_010DF666
@  #02 @060   ----------------------------------------
 .byte   PATT
  .word Label_010DF679
@  #02 @061   ----------------------------------------
 .byte   PATT
  .word Label_010DF640
@  #02 @062   ----------------------------------------
 .byte   PATT
  .word Label_010DF653
@  #02 @063   ----------------------------------------
 .byte   PATT
  .word Label_010DF69E
@  #02 @064   ----------------------------------------
 .byte   PATT
  .word Label_010DF6B1
@  #02 @065   ----------------------------------------
 .byte   PATT
  .word Label_010DF54C
@  #02 @066   ----------------------------------------
 .byte   PATT
  .word Label_010DF567
@  #02 @067   ----------------------------------------
 .byte   PATT
  .word Label_010DF582
@  #02 @068   ----------------------------------------
 .byte   PATT
  .word Label_010DF59D
@  #02 @069   ----------------------------------------
 .byte   PATT
  .word Label_010DF54C
@  #02 @070   ----------------------------------------
 .byte   PATT
  .word Label_010DF567
@  #02 @071   ----------------------------------------
 .byte   PATT
  .word Label_010DF582
@  #02 @072   ----------------------------------------
 .byte   PATT
  .word Label_010DF5BF
@  #02 @073   ----------------------------------------
 .byte   PATT
  .word Label_010DF5D3
@  #02 @074   ----------------------------------------
 .byte   PATT
  .word Label_010DF567
@  #02 @075   ----------------------------------------
 .byte   PATT
  .word Label_010DF54C
@  #02 @076   ----------------------------------------
 .byte   PATT
  .word Label_010DF567
@  #02 @077   ----------------------------------------
 .byte   PATT
  .word Label_010DF5FD
@  #02 @078   ----------------------------------------
 .byte   PATT
  .word Label_010DF54C
@  #02 @079   ----------------------------------------
 .byte   PATT
  .word Label_010DF61D
@  #02 @080   ----------------------------------------
 .byte   PATT
  .word Label_010DF630
@  #02 @081   ----------------------------------------
 .byte   PATT
  .word Label_010DF640
@  #02 @082   ----------------------------------------
 .byte   PATT
  .word Label_010DF653
@  #02 @083   ----------------------------------------
 .byte   PATT
  .word Label_010DF666
@  #02 @084   ----------------------------------------
 .byte   PATT
  .word Label_010DF679
@  #02 @085   ----------------------------------------
 .byte   PATT
  .word Label_010DF640
@  #02 @086   ----------------------------------------
 .byte   PATT
  .word Label_010DF653
@  #02 @087   ----------------------------------------
 .byte   PATT
  .word Label_010DF69E
@  #02 @088   ----------------------------------------
 .byte   PATT
  .word Label_010DF6B1
@  #02 @089   ----------------------------------------
 .byte   PATT
  .word Label_010DF54C
@  #02 @090   ----------------------------------------
 .byte   PATT
  .word Label_010DF567
@  #02 @091   ----------------------------------------
 .byte   PATT
  .word Label_010DF582
@  #02 @092   ----------------------------------------
 .byte   PATT
  .word Label_010DF59D
@  #02 @093   ----------------------------------------
 .byte   PATT
  .word Label_010DF54C
@  #02 @094   ----------------------------------------
 .byte   PATT
  .word Label_010DF567
@  #02 @095   ----------------------------------------
 .byte   PATT
  .word Label_010DF582
@  #02 @096   ----------------------------------------
 .byte   PATT
  .word Label_010DF5BF
@  #02 @097   ----------------------------------------
 .byte   PATT
  .word Label_010DF5D3
@  #02 @098   ----------------------------------------
 .byte   PATT
  .word Label_010DF567
@  #02 @099   ----------------------------------------
 .byte   PATT
  .word Label_010DF54C
@  #02 @100   ----------------------------------------
 .byte   PATT
  .word Label_010DF567
@  #02 @101   ----------------------------------------
 .byte   PATT
  .word Label_010DF5FD
@  #02 @102   ----------------------------------------
 .byte   PATT
  .word Label_010DF54C
@  #02 @103   ----------------------------------------
 .byte   PATT
  .word Label_010DF61D
@  #02 @104   ----------------------------------------
 .byte   PATT
  .word Label_010DF630
@  #02 @105   ----------------------------------------
 .byte   PATT
  .word Label_010DF54C
@  #02 @106   ----------------------------------------
 .byte   PATT
  .word Label_010DF567
@  #02 @107   ----------------------------------------
 .byte   PATT
  .word Label_010DF582
@  #02 @108   ----------------------------------------
 .byte   PATT
  .word Label_010DF59D
@  #02 @109   ----------------------------------------
 .byte   PATT
  .word Label_010DF54C
@  #02 @110   ----------------------------------------
 .byte   PATT
  .word Label_010DF567
@  #02 @111   ----------------------------------------
 .byte   PATT
  .word Label_010DF582
@  #02 @112   ----------------------------------------
 .byte   PATT
  .word Label_010DF582
@  #02 @113   ----------------------------------------
 .byte   PATT
  .word Label_010DF5D3
@  #02 @114   ----------------------------------------
 .byte   PATT
  .word Label_010DF567
@  #02 @115   ----------------------------------------
 .byte   PATT
  .word Label_010DF54C
@  #02 @116   ----------------------------------------
 .byte   PATT
  .word Label_010DF567
@  #02 @117   ----------------------------------------
 .byte   PATT
  .word Label_010DF5FD
@  #02 @118   ----------------------------------------
 .byte   PATT
  .word Label_010DF54C
@  #02 @119   ----------------------------------------
 .byte   PATT
  .word Label_010DF61D
@  #02 @120   ----------------------------------------
 .byte   N11 ,An2 ,v127
 .byte   W12
 .byte   An3
 .byte   W12
 .byte   An2
 .byte   W12
 .byte   An3
 .byte   W12
 .byte   N23 ,An2
 .byte   W24
 .byte   Gs2
 .byte   W23
 .byte   GOTO
  .word Label_010DF54C
 .byte   FINE

@**************** Track 3 (Midi-Chn.2) ****************@

KBBStage5_003:
@  #03 @000   ----------------------------------------
 .byte   KEYSH , KBBStage5_key+0
 .byte   VOICE , 74
 .byte   VOL , 73*KBBStage5_mvl/mxv
 .byte   W96
@  #03 @001   ----------------------------------------
Label_011DFF0F:
 .byte   W96
@  #03 @002   ----------------------------------------
 .byte   W96
@  #03 @003   ----------------------------------------
 .byte   W96
@  #03 @004   ----------------------------------------
Label_011DFF12:
 .byte   W48
 .byte   N05 ,Dn5 ,v127
 .byte   W06
 .byte   Dn5 ,v104
 .byte   W06
 .byte   Cs5 ,v127
 .byte   W06
 .byte   Cs5 ,v108
 .byte   W06
 .byte   Bn4 ,v127
 .byte   W06
 .byte   Bn4 ,v092
 .byte   W06
 .byte   Fs4 ,v127
 .byte   W06
 .byte   Fs4 ,v096
 .byte   W06
 .byte   PEND 
@  #03 @005   ----------------------------------------
Label_011DFF2D:
 .byte   N05 ,Fs4 ,v072
 .byte   W06
 .byte   Fs4 ,v052
 .byte   W06
 .byte   Fs4 ,v024
 .byte   W84
 .byte   PEND 
@  #03 @006   ----------------------------------------
 .byte   W96
@  #03 @007   ----------------------------------------
 .byte   W96
@  #03 @008   ----------------------------------------
 .byte   W96
@  #03 @009   ----------------------------------------
 .byte   W96
@  #03 @010   ----------------------------------------
 .byte   W96
@  #03 @011   ----------------------------------------
 .byte   W96
@  #03 @012   ----------------------------------------
 .byte   W96
@  #03 @013   ----------------------------------------
 .byte   W96
@  #03 @014   ----------------------------------------
 .byte   W96
@  #03 @015   ----------------------------------------
 .byte   W96
@  #03 @016   ----------------------------------------
 .byte   W96
@  #03 @017   ----------------------------------------
 .byte   VOICE , 74
 .byte   W96
@  #03 @018   ----------------------------------------
 .byte   W96
@  #03 @019   ----------------------------------------
 .byte   W96
@  #03 @020   ----------------------------------------
 .byte   W96
@  #03 @021   ----------------------------------------
 .byte   W96
@  #03 @022   ----------------------------------------
 .byte   W96
@  #03 @023   ----------------------------------------
 .byte   W96
@  #03 @024   ----------------------------------------
 .byte   W96
@  #03 @025   ----------------------------------------
 .byte   W96
@  #03 @026   ----------------------------------------
 .byte   W96
@  #03 @027   ----------------------------------------
 .byte   W96
@  #03 @028   ----------------------------------------
Label_011DFF50:
 .byte   W48
 .byte   N05 ,Dn5 ,v127
 .byte   W06
 .byte   Dn5 ,v076
 .byte   W06
 .byte   Cs5 ,v127
 .byte   W06
 .byte   Cs5 ,v072
 .byte   W06
 .byte   Bn4 ,v127
 .byte   W06
 .byte   Bn4 ,v068
 .byte   W06
 .byte   Fs4 ,v127
 .byte   W06
 .byte   Fs4 ,v064
 .byte   W06
 .byte   PEND 
@  #03 @029   ----------------------------------------
Label_011DFF6B:
 .byte   N05 ,Fs4 ,v040
 .byte   W06
 .byte   Fs4 ,v020
 .byte   W06
 .byte   Fs4 ,v004
 .byte   W84
 .byte   PEND 
@  #03 @030   ----------------------------------------
 .byte   W96
@  #03 @031   ----------------------------------------
 .byte   W96
@  #03 @032   ----------------------------------------
 .byte   W96
@  #03 @033   ----------------------------------------
 .byte   W96
@  #03 @034   ----------------------------------------
 .byte   W96
@  #03 @035   ----------------------------------------
 .byte   W96
@  #03 @036   ----------------------------------------
 .byte   W96
@  #03 @037   ----------------------------------------
 .byte   W96
@  #03 @038   ----------------------------------------
 .byte   W96
@  #03 @039   ----------------------------------------
 .byte   W96
@  #03 @040   ----------------------------------------
 .byte   W96
@  #03 @041   ----------------------------------------
 .byte   W96
@  #03 @042   ----------------------------------------
 .byte   W96
@  #03 @043   ----------------------------------------
 .byte   W96
@  #03 @044   ----------------------------------------
 .byte   W96
@  #03 @045   ----------------------------------------
 .byte   W96
@  #03 @046   ----------------------------------------
 .byte   W96
@  #03 @047   ----------------------------------------
 .byte   W96
@  #03 @048   ----------------------------------------
 .byte   W96
@  #03 @049   ----------------------------------------
 .byte   W96
@  #03 @050   ----------------------------------------
 .byte   W96
@  #03 @051   ----------------------------------------
 .byte   W96
@  #03 @052   ----------------------------------------
 .byte   W96
@  #03 @053   ----------------------------------------
 .byte   W96
@  #03 @054   ----------------------------------------
 .byte   W96
@  #03 @055   ----------------------------------------
 .byte   W96
@  #03 @056   ----------------------------------------
 .byte   W96
@  #03 @057   ----------------------------------------
 .byte   VOICE , 74
 .byte   W96
@  #03 @058   ----------------------------------------
 .byte   W96
@  #03 @059   ----------------------------------------
 .byte   W96
@  #03 @060   ----------------------------------------
 .byte   W96
@  #03 @061   ----------------------------------------
 .byte   W96
@  #03 @062   ----------------------------------------
 .byte   W96
@  #03 @063   ----------------------------------------
 .byte   W96
@  #03 @064   ----------------------------------------
 .byte   W96
@  #03 @065   ----------------------------------------
 .byte   W96
@  #03 @066   ----------------------------------------
 .byte   W96
@  #03 @067   ----------------------------------------
 .byte   W96
@  #03 @068   ----------------------------------------
 .byte   PATT
  .word Label_011DFF12
@  #03 @069   ----------------------------------------
 .byte   PATT
  .word Label_011DFF2D
@  #03 @070   ----------------------------------------
 .byte   W96
@  #03 @071   ----------------------------------------
 .byte   W96
@  #03 @072   ----------------------------------------
 .byte   W96
@  #03 @073   ----------------------------------------
 .byte   W96
@  #03 @074   ----------------------------------------
 .byte   W96
@  #03 @075   ----------------------------------------
 .byte   W96
@  #03 @076   ----------------------------------------
 .byte   W96
@  #03 @077   ----------------------------------------
 .byte   W96
@  #03 @078   ----------------------------------------
 .byte   W96
@  #03 @079   ----------------------------------------
 .byte   W96
@  #03 @080   ----------------------------------------
 .byte   W96
@  #03 @081   ----------------------------------------
 .byte   VOICE , 74
 .byte   W96
@  #03 @082   ----------------------------------------
 .byte   W96
@  #03 @083   ----------------------------------------
 .byte   W96
@  #03 @084   ----------------------------------------
 .byte   W96
@  #03 @085   ----------------------------------------
 .byte   W96
@  #03 @086   ----------------------------------------
 .byte   W96
@  #03 @087   ----------------------------------------
 .byte   W96
@  #03 @088   ----------------------------------------
 .byte   W96
@  #03 @089   ----------------------------------------
 .byte   W96
@  #03 @090   ----------------------------------------
 .byte   W96
@  #03 @091   ----------------------------------------
 .byte   W96
@  #03 @092   ----------------------------------------
 .byte   PATT
  .word Label_011DFF50
@  #03 @093   ----------------------------------------
 .byte   PATT
  .word Label_011DFF6B
@  #03 @094   ----------------------------------------
 .byte   W96
@  #03 @095   ----------------------------------------
 .byte   W96
@  #03 @096   ----------------------------------------
 .byte   W96
@  #03 @097   ----------------------------------------
 .byte   W96
@  #03 @098   ----------------------------------------
 .byte   W96
@  #03 @099   ----------------------------------------
 .byte   W96
@  #03 @100   ----------------------------------------
 .byte   W96
@  #03 @101   ----------------------------------------
 .byte   W96
@  #03 @102   ----------------------------------------
 .byte   W96
@  #03 @103   ----------------------------------------
 .byte   W96
@  #03 @104   ----------------------------------------
 .byte   W96
@  #03 @105   ----------------------------------------
 .byte   W96
@  #03 @106   ----------------------------------------
 .byte   W96
@  #03 @107   ----------------------------------------
 .byte   W96
@  #03 @108   ----------------------------------------
 .byte   W96
@  #03 @109   ----------------------------------------
 .byte   W96
@  #03 @110   ----------------------------------------
 .byte   W96
@  #03 @111   ----------------------------------------
 .byte   W96
@  #03 @112   ----------------------------------------
 .byte   W96
@  #03 @113   ----------------------------------------
 .byte   W96
@  #03 @114   ----------------------------------------
 .byte   W96
@  #03 @115   ----------------------------------------
 .byte   W96
@  #03 @116   ----------------------------------------
 .byte   W96
@  #03 @117   ----------------------------------------
 .byte   W96
@  #03 @118   ----------------------------------------
 .byte   W96
@  #03 @119   ----------------------------------------
 .byte   W96
@  #03 @120   ----------------------------------------
 .byte   W92
 .byte   W03
 .byte   GOTO
  .word Label_011DFF0F
 .byte   FINE

@**************** Track 4 (Midi-Chn.3) ****************@

KBBStage5_004:
@  #04 @000   ----------------------------------------
 .byte   KEYSH , KBBStage5_key+0
 .byte   VOICE , 68
 .byte   VOL , 80*KBBStage5_mvl/mxv
 .byte   W96
@  #04 @001   ----------------------------------------
Label_011DE4F3:
 .byte   W96
@  #04 @002   ----------------------------------------
 .byte   W96
@  #04 @003   ----------------------------------------
 .byte   W96
@  #04 @004   ----------------------------------------
 .byte   W96
@  #04 @005   ----------------------------------------
 .byte   W96
@  #04 @006   ----------------------------------------
 .byte   W96
@  #04 @007   ----------------------------------------
 .byte   W96
@  #04 @008   ----------------------------------------
 .byte   W96
@  #04 @009   ----------------------------------------
Label_011DE4FB:
 .byte   W24
 .byte   N23 ,Gn3 ,v088
 .byte   W24
 .byte   Bn3
 .byte   W24
 .byte   Fs4
 .byte   W24
 .byte   PEND 
@  #04 @010   ----------------------------------------
Label_011DE505:
 .byte   N32 ,En4 ,v088
 .byte   W36
 .byte   N80 ,Cs4
 .byte   W60
 .byte   PEND 
@  #04 @011   ----------------------------------------
Label_011DE50D:
 .byte   W24
 .byte   N23 ,Gn3 ,v088
 .byte   W24
 .byte   Bn3
 .byte   W24
 .byte   An4
 .byte   W24
 .byte   PEND 
@  #04 @012   ----------------------------------------
Label_011DE517:
 .byte   N23 ,En4 ,v088
 .byte   W24
 .byte   N11 ,Dn4
 .byte   W12
 .byte   N23 ,Cs4
 .byte   W24
 .byte   N11 ,Dn4
 .byte   W12
 .byte   N23 ,En4
 .byte   W24
 .byte   PEND 
@  #04 @013   ----------------------------------------
Label_011DE528:
 .byte   N11 ,Fn3 ,v088
 .byte   W12
 .byte   Cn4
 .byte   W12
 .byte   Gn4
 .byte   W12
 .byte   Fn4
 .byte   W12
 .byte   N17 ,En4
 .byte   W18
 .byte   Fn4
 .byte   W18
 .byte   N11 ,An3
 .byte   W12
 .byte   PEND 
@  #04 @014   ----------------------------------------
Label_011DE53B:
 .byte   N11 ,Gn3 ,v088
 .byte   W12
 .byte   Dn4
 .byte   W12
 .byte   An4
 .byte   W12
 .byte   Gn4
 .byte   W12
 .byte   N17 ,Fs4
 .byte   W18
 .byte   Gn4
 .byte   W18
 .byte   N11 ,Dn4
 .byte   W12
 .byte   PEND 
@  #04 @015   ----------------------------------------
Label_011DE54E:
 .byte   N11 ,An3 ,v088
 .byte   W12
 .byte   En4
 .byte   W12
 .byte   Bn4
 .byte   W12
 .byte   An4
 .byte   W12
 .byte   TIE ,Cs5
 .byte   W48
 .byte   PEND 
@  #04 @016   ----------------------------------------
 .byte   W92
 .byte   W03
 .byte   EOT
 .byte   W01
@  #04 @017   ----------------------------------------
 .byte   W96
@  #04 @018   ----------------------------------------
 .byte   W96
@  #04 @019   ----------------------------------------
 .byte   W96
@  #04 @020   ----------------------------------------
 .byte   W96
@  #04 @021   ----------------------------------------
 .byte   W96
@  #04 @022   ----------------------------------------
 .byte   W96
@  #04 @023   ----------------------------------------
 .byte   W96
@  #04 @024   ----------------------------------------
 .byte   W96
@  #04 @025   ----------------------------------------
 .byte   W96
@  #04 @026   ----------------------------------------
 .byte   W96
@  #04 @027   ----------------------------------------
 .byte   W96
@  #04 @028   ----------------------------------------
 .byte   W96
@  #04 @029   ----------------------------------------
 .byte   W96
@  #04 @030   ----------------------------------------
 .byte   W96
@  #04 @031   ----------------------------------------
 .byte   W96
@  #04 @032   ----------------------------------------
 .byte   W96
@  #04 @033   ----------------------------------------
 .byte   PATT
  .word Label_011DE4FB
@  #04 @034   ----------------------------------------
 .byte   PATT
  .word Label_011DE505
@  #04 @035   ----------------------------------------
 .byte   PATT
  .word Label_011DE50D
@  #04 @036   ----------------------------------------
 .byte   PATT
  .word Label_011DE517
@  #04 @037   ----------------------------------------
 .byte   PATT
  .word Label_011DE528
@  #04 @038   ----------------------------------------
 .byte   PATT
  .word Label_011DE53B
@  #04 @039   ----------------------------------------
 .byte   PATT
  .word Label_011DE54E
@  #04 @040   ----------------------------------------
 .byte   W92
 .byte   W03
 .byte   EOT
 .byte   Cs5
 .byte   W01
@  #04 @041   ----------------------------------------
 .byte   W96
@  #04 @042   ----------------------------------------
 .byte   W96
@  #04 @043   ----------------------------------------
 .byte   W96
@  #04 @044   ----------------------------------------
 .byte   W96
@  #04 @045   ----------------------------------------
 .byte   W96
@  #04 @046   ----------------------------------------
 .byte   W96
@  #04 @047   ----------------------------------------
 .byte   W96
@  #04 @048   ----------------------------------------
 .byte   W96
@  #04 @049   ----------------------------------------
 .byte   W96
@  #04 @050   ----------------------------------------
 .byte   W96
@  #04 @051   ----------------------------------------
 .byte   W96
@  #04 @052   ----------------------------------------
 .byte   W96
@  #04 @053   ----------------------------------------
 .byte   W96
@  #04 @054   ----------------------------------------
 .byte   W96
@  #04 @055   ----------------------------------------
 .byte   W96
@  #04 @056   ----------------------------------------
 .byte   W96
@  #04 @057   ----------------------------------------
 .byte   W96
@  #04 @058   ----------------------------------------
 .byte   W96
@  #04 @059   ----------------------------------------
 .byte   W96
@  #04 @060   ----------------------------------------
 .byte   W96
@  #04 @061   ----------------------------------------
 .byte   W96
@  #04 @062   ----------------------------------------
 .byte   W96
@  #04 @063   ----------------------------------------
 .byte   W96
@  #04 @064   ----------------------------------------
 .byte   W96
@  #04 @065   ----------------------------------------
 .byte   W96
@  #04 @066   ----------------------------------------
 .byte   W96
@  #04 @067   ----------------------------------------
 .byte   W96
@  #04 @068   ----------------------------------------
 .byte   W96
@  #04 @069   ----------------------------------------
 .byte   W96
@  #04 @070   ----------------------------------------
 .byte   W96
@  #04 @071   ----------------------------------------
 .byte   W96
@  #04 @072   ----------------------------------------
 .byte   W96
@  #04 @073   ----------------------------------------
 .byte   PATT
  .word Label_011DE4FB
@  #04 @074   ----------------------------------------
 .byte   PATT
  .word Label_011DE505
@  #04 @075   ----------------------------------------
 .byte   PATT
  .word Label_011DE50D
@  #04 @076   ----------------------------------------
 .byte   PATT
  .word Label_011DE517
@  #04 @077   ----------------------------------------
 .byte   PATT
  .word Label_011DE528
@  #04 @078   ----------------------------------------
 .byte   PATT
  .word Label_011DE53B
@  #04 @079   ----------------------------------------
 .byte   PATT
  .word Label_011DE54E
@  #04 @080   ----------------------------------------
 .byte   W92
 .byte   W03
 .byte   EOT
 .byte   Cs5
 .byte   W01
@  #04 @081   ----------------------------------------
 .byte   W96
@  #04 @082   ----------------------------------------
 .byte   W96
@  #04 @083   ----------------------------------------
 .byte   W96
@  #04 @084   ----------------------------------------
 .byte   W96
@  #04 @085   ----------------------------------------
 .byte   W96
@  #04 @086   ----------------------------------------
 .byte   W96
@  #04 @087   ----------------------------------------
 .byte   W96
@  #04 @088   ----------------------------------------
 .byte   W96
@  #04 @089   ----------------------------------------
 .byte   W96
@  #04 @090   ----------------------------------------
 .byte   W96
@  #04 @091   ----------------------------------------
 .byte   W96
@  #04 @092   ----------------------------------------
 .byte   W96
@  #04 @093   ----------------------------------------
 .byte   W96
@  #04 @094   ----------------------------------------
 .byte   W96
@  #04 @095   ----------------------------------------
 .byte   W96
@  #04 @096   ----------------------------------------
 .byte   W96
@  #04 @097   ----------------------------------------
 .byte   PATT
  .word Label_011DE4FB
@  #04 @098   ----------------------------------------
 .byte   PATT
  .word Label_011DE505
@  #04 @099   ----------------------------------------
 .byte   PATT
  .word Label_011DE50D
@  #04 @100   ----------------------------------------
 .byte   PATT
  .word Label_011DE517
@  #04 @101   ----------------------------------------
 .byte   PATT
  .word Label_011DE528
@  #04 @102   ----------------------------------------
 .byte   PATT
  .word Label_011DE53B
@  #04 @103   ----------------------------------------
 .byte   PATT
  .word Label_011DE54E
@  #04 @104   ----------------------------------------
 .byte   W92
 .byte   W03
 .byte   EOT
 .byte   Cs5
 .byte   W01
@  #04 @105   ----------------------------------------
 .byte   W96
@  #04 @106   ----------------------------------------
 .byte   W96
@  #04 @107   ----------------------------------------
 .byte   W96
@  #04 @108   ----------------------------------------
 .byte   W96
@  #04 @109   ----------------------------------------
 .byte   W96
@  #04 @110   ----------------------------------------
 .byte   W96
@  #04 @111   ----------------------------------------
 .byte   W96
@  #04 @112   ----------------------------------------
 .byte   W96
@  #04 @113   ----------------------------------------
 .byte   W96
@  #04 @114   ----------------------------------------
 .byte   W96
@  #04 @115   ----------------------------------------
 .byte   W96
@  #04 @116   ----------------------------------------
 .byte   W96
@  #04 @117   ----------------------------------------
 .byte   W96
@  #04 @118   ----------------------------------------
 .byte   W96
@  #04 @119   ----------------------------------------
 .byte   W96
@  #04 @120   ----------------------------------------
 .byte   W92
 .byte   W03
 .byte   GOTO
  .word Label_011DE4F3
 .byte   FINE

@**************** Track 5 (Midi-Chn.4) ****************@

KBBStage5_005:
@  #05 @000   ----------------------------------------
 .byte   KEYSH , KBBStage5_key+0
 .byte   VOICE , 1
 .byte   VOL , 72*KBBStage5_mvl/mxv
 .byte   W12
 .byte   N11 ,Dn4 ,v127
 .byte   W12
 .byte   Cs4
 .byte   W24
 .byte   Dn4
 .byte   W12
 .byte   N32 ,An4
 .byte   W36
@  #05 @001   ----------------------------------------
Label_010CD936:
 .byte   W96
@  #05 @002   ----------------------------------------
 .byte   W96
@  #05 @003   ----------------------------------------
 .byte   W96
@  #05 @004   ----------------------------------------
 .byte   W96
@  #05 @005   ----------------------------------------
 .byte   W96
@  #05 @006   ----------------------------------------
 .byte   W96
@  #05 @007   ----------------------------------------
 .byte   W96
@  #05 @008   ----------------------------------------
 .byte   W96
@  #05 @009   ----------------------------------------
 .byte   W96
@  #05 @010   ----------------------------------------
 .byte   W96
@  #05 @011   ----------------------------------------
 .byte   W96
@  #05 @012   ----------------------------------------
 .byte   W96
@  #05 @013   ----------------------------------------
 .byte   W96
@  #05 @014   ----------------------------------------
 .byte   W96
@  #05 @015   ----------------------------------------
 .byte   W96
@  #05 @016   ----------------------------------------
 .byte   W96
@  #05 @017   ----------------------------------------
Label_010CD946:
 .byte   VOICE , 1
 .byte   W12
 .byte   N11 ,Bn3 ,v127
 .byte   W12
 .byte   Fs4
 .byte   W24
 .byte   Bn3
 .byte   W12
 .byte   Fs4
 .byte   W24
 .byte   Bn3
 .byte   W12
 .byte   PEND 
@  #05 @018   ----------------------------------------
Label_010CD956:
 .byte   W12
 .byte   N11 ,An3 ,v127
 .byte   W12
 .byte   En4
 .byte   W24
 .byte   An3
 .byte   W12
 .byte   En4
 .byte   W36
 .byte   PEND 
@  #05 @019   ----------------------------------------
Label_010CD962:
 .byte   W12
 .byte   N11 ,Cn4 ,v127
 .byte   W12
 .byte   Gn4
 .byte   W24
 .byte   Cn4
 .byte   W12
 .byte   Gn4
 .byte   W24
 .byte   Cn4
 .byte   W12
 .byte   PEND 
@  #05 @020   ----------------------------------------
Label_010CD970:
 .byte   W12
 .byte   N11 ,An3 ,v127
 .byte   W12
 .byte   Fs4
 .byte   W24
 .byte   Gn4
 .byte   W24
 .byte   N28 ,An4
 .byte   W24
 .byte   PEND 
@  #05 @021   ----------------------------------------
Label_010CD97D:
 .byte   W12
 .byte   N11 ,Bn3 ,v127
 .byte   W12
 .byte   Fs4
 .byte   W24
 .byte   Bn3
 .byte   W12
 .byte   Fs4
 .byte   W24
 .byte   Bn3
 .byte   W12
 .byte   PEND 
@  #05 @022   ----------------------------------------
 .byte   PATT
  .word Label_010CD956
@  #05 @023   ----------------------------------------
Label_010CD990:
 .byte   W12
 .byte   N11 ,Gn3 ,v127
 .byte   W12
 .byte   Dn4
 .byte   W24
 .byte   Gn3
 .byte   W12
 .byte   Dn4
 .byte   W24
 .byte   Gn3
 .byte   W12
 .byte   PEND 
@  #05 @024   ----------------------------------------
Label_010CD99E:
 .byte   W12
 .byte   N11 ,Dn4 ,v127
 .byte   W12
 .byte   Cs4
 .byte   W24
 .byte   Dn4
 .byte   W12
 .byte   N32 ,An4
 .byte   W36
 .byte   PEND 
@  #05 @025   ----------------------------------------
 .byte   W96
@  #05 @026   ----------------------------------------
 .byte   W96
@  #05 @027   ----------------------------------------
 .byte   W96
@  #05 @028   ----------------------------------------
 .byte   W96
@  #05 @029   ----------------------------------------
 .byte   W96
@  #05 @030   ----------------------------------------
 .byte   W96
@  #05 @031   ----------------------------------------
 .byte   W96
@  #05 @032   ----------------------------------------
 .byte   W96
@  #05 @033   ----------------------------------------
 .byte   W96
@  #05 @034   ----------------------------------------
 .byte   W96
@  #05 @035   ----------------------------------------
 .byte   W96
@  #05 @036   ----------------------------------------
 .byte   W96
@  #05 @037   ----------------------------------------
 .byte   W96
@  #05 @038   ----------------------------------------
 .byte   W96
@  #05 @039   ----------------------------------------
 .byte   W96
@  #05 @040   ----------------------------------------
 .byte   W96
@  #05 @041   ----------------------------------------
 .byte   W96
@  #05 @042   ----------------------------------------
 .byte   W96
@  #05 @043   ----------------------------------------
 .byte   W96
@  #05 @044   ----------------------------------------
 .byte   W96
@  #05 @045   ----------------------------------------
 .byte   W96
@  #05 @046   ----------------------------------------
 .byte   W96
@  #05 @047   ----------------------------------------
 .byte   W96
@  #05 @048   ----------------------------------------
 .byte   W96
@  #05 @049   ----------------------------------------
 .byte   W96
@  #05 @050   ----------------------------------------
 .byte   W96
@  #05 @051   ----------------------------------------
 .byte   W96
@  #05 @052   ----------------------------------------
 .byte   W96
@  #05 @053   ----------------------------------------
 .byte   W96
@  #05 @054   ----------------------------------------
 .byte   W96
@  #05 @055   ----------------------------------------
 .byte   W96
@  #05 @056   ----------------------------------------
 .byte   W96
@  #05 @057   ----------------------------------------
 .byte   PATT
  .word Label_010CD946
@  #05 @058   ----------------------------------------
 .byte   PATT
  .word Label_010CD956
@  #05 @059   ----------------------------------------
 .byte   PATT
  .word Label_010CD962
@  #05 @060   ----------------------------------------
 .byte   PATT
  .word Label_010CD970
@  #05 @061   ----------------------------------------
 .byte   PATT
  .word Label_010CD97D
@  #05 @062   ----------------------------------------
 .byte   PATT
  .word Label_010CD956
@  #05 @063   ----------------------------------------
 .byte   PATT
  .word Label_010CD990
@  #05 @064   ----------------------------------------
 .byte   PATT
  .word Label_010CD99E
@  #05 @065   ----------------------------------------
 .byte   W96
@  #05 @066   ----------------------------------------
 .byte   W96
@  #05 @067   ----------------------------------------
 .byte   W96
@  #05 @068   ----------------------------------------
 .byte   W96
@  #05 @069   ----------------------------------------
 .byte   W96
@  #05 @070   ----------------------------------------
 .byte   W96
@  #05 @071   ----------------------------------------
 .byte   W96
@  #05 @072   ----------------------------------------
 .byte   W96
@  #05 @073   ----------------------------------------
 .byte   W96
@  #05 @074   ----------------------------------------
 .byte   W96
@  #05 @075   ----------------------------------------
 .byte   W96
@  #05 @076   ----------------------------------------
 .byte   W96
@  #05 @077   ----------------------------------------
 .byte   W96
@  #05 @078   ----------------------------------------
 .byte   W96
@  #05 @079   ----------------------------------------
 .byte   W96
@  #05 @080   ----------------------------------------
 .byte   W96
@  #05 @081   ----------------------------------------
 .byte   PATT
  .word Label_010CD946
@  #05 @082   ----------------------------------------
 .byte   PATT
  .word Label_010CD956
@  #05 @083   ----------------------------------------
 .byte   PATT
  .word Label_010CD962
@  #05 @084   ----------------------------------------
 .byte   PATT
  .word Label_010CD970
@  #05 @085   ----------------------------------------
 .byte   PATT
  .word Label_010CD97D
@  #05 @086   ----------------------------------------
 .byte   PATT
  .word Label_010CD956
@  #05 @087   ----------------------------------------
 .byte   PATT
  .word Label_010CD990
@  #05 @088   ----------------------------------------
 .byte   PATT
  .word Label_010CD99E
@  #05 @089   ----------------------------------------
 .byte   W96
@  #05 @090   ----------------------------------------
 .byte   W96
@  #05 @091   ----------------------------------------
 .byte   W96
@  #05 @092   ----------------------------------------
 .byte   W96
@  #05 @093   ----------------------------------------
 .byte   W96
@  #05 @094   ----------------------------------------
 .byte   W96
@  #05 @095   ----------------------------------------
 .byte   W96
@  #05 @096   ----------------------------------------
 .byte   W96
@  #05 @097   ----------------------------------------
 .byte   W96
@  #05 @098   ----------------------------------------
 .byte   W96
@  #05 @099   ----------------------------------------
 .byte   W96
@  #05 @100   ----------------------------------------
 .byte   W96
@  #05 @101   ----------------------------------------
 .byte   W96
@  #05 @102   ----------------------------------------
 .byte   W96
@  #05 @103   ----------------------------------------
 .byte   W96
@  #05 @104   ----------------------------------------
 .byte   W96
@  #05 @105   ----------------------------------------
 .byte   W96
@  #05 @106   ----------------------------------------
 .byte   W96
@  #05 @107   ----------------------------------------
 .byte   W96
@  #05 @108   ----------------------------------------
 .byte   W96
@  #05 @109   ----------------------------------------
 .byte   W96
@  #05 @110   ----------------------------------------
 .byte   W96
@  #05 @111   ----------------------------------------
 .byte   W96
@  #05 @112   ----------------------------------------
 .byte   W96
@  #05 @113   ----------------------------------------
 .byte   W96
@  #05 @114   ----------------------------------------
 .byte   W96
@  #05 @115   ----------------------------------------
 .byte   W96
@  #05 @116   ----------------------------------------
 .byte   W96
@  #05 @117   ----------------------------------------
 .byte   W96
@  #05 @118   ----------------------------------------
 .byte   W96
@  #05 @119   ----------------------------------------
 .byte   W96
@  #05 @120   ----------------------------------------
 .byte   W92
 .byte   W03
 .byte   GOTO
  .word Label_010CD936
 .byte   FINE

@**************** Track 6 (Midi-Chn.5) ****************@

KBBStage5_006:
@  #06 @000   ----------------------------------------
 .byte   KEYSH , KBBStage5_key+0
 .byte   VOICE , 48
 .byte   VOL , 66*KBBStage5_mvl/mxv
 .byte   W12
 .byte   N11 ,En4 ,v127
 .byte   W12
 .byte   N68 ,An4
 .byte   W72
@  #06 @001   ----------------------------------------
Label_010CDB1E:
 .byte   W96
@  #06 @002   ----------------------------------------
 .byte   W96
@  #06 @003   ----------------------------------------
 .byte   W96
@  #06 @004   ----------------------------------------
 .byte   W96
@  #06 @005   ----------------------------------------
 .byte   W96
@  #06 @006   ----------------------------------------
 .byte   W96
@  #06 @007   ----------------------------------------
 .byte   W96
@  #06 @008   ----------------------------------------
 .byte   W96
@  #06 @009   ----------------------------------------
 .byte   W96
@  #06 @010   ----------------------------------------
 .byte   W96
@  #06 @011   ----------------------------------------
 .byte   W96
@  #06 @012   ----------------------------------------
 .byte   W96
@  #06 @013   ----------------------------------------
 .byte   W96
@  #06 @014   ----------------------------------------
 .byte   W96
@  #06 @015   ----------------------------------------
 .byte   W96
@  #06 @016   ----------------------------------------
 .byte   W96
@  #06 @017   ----------------------------------------
 .byte   VOICE , 48
 .byte   W96
@  #06 @018   ----------------------------------------
 .byte   W96
@  #06 @019   ----------------------------------------
 .byte   W96
@  #06 @020   ----------------------------------------
 .byte   W96
@  #06 @021   ----------------------------------------
 .byte   W96
@  #06 @022   ----------------------------------------
 .byte   W96
@  #06 @023   ----------------------------------------
 .byte   W96
@  #06 @024   ----------------------------------------
Label_010CDB37:
 .byte   W12
 .byte   N11 ,En4 ,v127
 .byte   W12
 .byte   N68 ,An4
 .byte   W72
 .byte   PEND 
@  #06 @025   ----------------------------------------
 .byte   W96
@  #06 @026   ----------------------------------------
 .byte   W96
@  #06 @027   ----------------------------------------
 .byte   W96
@  #06 @028   ----------------------------------------
 .byte   W96
@  #06 @029   ----------------------------------------
 .byte   W96
@  #06 @030   ----------------------------------------
 .byte   W96
@  #06 @031   ----------------------------------------
 .byte   W96
@  #06 @032   ----------------------------------------
 .byte   W96
@  #06 @033   ----------------------------------------
 .byte   W96
@  #06 @034   ----------------------------------------
 .byte   W96
@  #06 @035   ----------------------------------------
 .byte   W96
@  #06 @036   ----------------------------------------
 .byte   W96
@  #06 @037   ----------------------------------------
 .byte   W96
@  #06 @038   ----------------------------------------
 .byte   W96
@  #06 @039   ----------------------------------------
 .byte   W96
@  #06 @040   ----------------------------------------
 .byte   W96
@  #06 @041   ----------------------------------------
 .byte   W96
@  #06 @042   ----------------------------------------
 .byte   W96
@  #06 @043   ----------------------------------------
 .byte   W96
@  #06 @044   ----------------------------------------
 .byte   W96
@  #06 @045   ----------------------------------------
 .byte   W96
@  #06 @046   ----------------------------------------
 .byte   W96
@  #06 @047   ----------------------------------------
 .byte   W96
@  #06 @048   ----------------------------------------
 .byte   W96
@  #06 @049   ----------------------------------------
 .byte   W96
@  #06 @050   ----------------------------------------
 .byte   W96
@  #06 @051   ----------------------------------------
 .byte   W96
@  #06 @052   ----------------------------------------
 .byte   W96
@  #06 @053   ----------------------------------------
 .byte   W96
@  #06 @054   ----------------------------------------
 .byte   W96
@  #06 @055   ----------------------------------------
 .byte   W96
@  #06 @056   ----------------------------------------
 .byte   W96
@  #06 @057   ----------------------------------------
 .byte   VOICE , 48
 .byte   W96
@  #06 @058   ----------------------------------------
 .byte   W96
@  #06 @059   ----------------------------------------
 .byte   W96
@  #06 @060   ----------------------------------------
 .byte   W96
@  #06 @061   ----------------------------------------
 .byte   W96
@  #06 @062   ----------------------------------------
 .byte   W96
@  #06 @063   ----------------------------------------
 .byte   W96
@  #06 @064   ----------------------------------------
 .byte   PATT
  .word Label_010CDB37
@  #06 @065   ----------------------------------------
 .byte   W96
@  #06 @066   ----------------------------------------
 .byte   W96
@  #06 @067   ----------------------------------------
 .byte   W96
@  #06 @068   ----------------------------------------
 .byte   W96
@  #06 @069   ----------------------------------------
 .byte   W96
@  #06 @070   ----------------------------------------
 .byte   W96
@  #06 @071   ----------------------------------------
 .byte   W96
@  #06 @072   ----------------------------------------
 .byte   W96
@  #06 @073   ----------------------------------------
 .byte   W96
@  #06 @074   ----------------------------------------
 .byte   W96
@  #06 @075   ----------------------------------------
 .byte   W96
@  #06 @076   ----------------------------------------
 .byte   W96
@  #06 @077   ----------------------------------------
 .byte   W96
@  #06 @078   ----------------------------------------
 .byte   W96
@  #06 @079   ----------------------------------------
 .byte   W96
@  #06 @080   ----------------------------------------
 .byte   W96
@  #06 @081   ----------------------------------------
 .byte   VOICE , 48
 .byte   W96
@  #06 @082   ----------------------------------------
 .byte   W96
@  #06 @083   ----------------------------------------
 .byte   W96
@  #06 @084   ----------------------------------------
 .byte   W96
@  #06 @085   ----------------------------------------
 .byte   W96
@  #06 @086   ----------------------------------------
 .byte   W96
@  #06 @087   ----------------------------------------
 .byte   W96
@  #06 @088   ----------------------------------------
 .byte   PATT
  .word Label_010CDB37
@  #06 @089   ----------------------------------------
 .byte   W96
@  #06 @090   ----------------------------------------
 .byte   W96
@  #06 @091   ----------------------------------------
 .byte   W96
@  #06 @092   ----------------------------------------
 .byte   W96
@  #06 @093   ----------------------------------------
 .byte   W96
@  #06 @094   ----------------------------------------
 .byte   W96
@  #06 @095   ----------------------------------------
 .byte   W96
@  #06 @096   ----------------------------------------
 .byte   W96
@  #06 @097   ----------------------------------------
 .byte   W96
@  #06 @098   ----------------------------------------
 .byte   W96
@  #06 @099   ----------------------------------------
 .byte   W96
@  #06 @100   ----------------------------------------
 .byte   W96
@  #06 @101   ----------------------------------------
 .byte   W96
@  #06 @102   ----------------------------------------
 .byte   W96
@  #06 @103   ----------------------------------------
 .byte   W96
@  #06 @104   ----------------------------------------
 .byte   W96
@  #06 @105   ----------------------------------------
 .byte   W96
@  #06 @106   ----------------------------------------
 .byte   W96
@  #06 @107   ----------------------------------------
 .byte   W96
@  #06 @108   ----------------------------------------
 .byte   W96
@  #06 @109   ----------------------------------------
 .byte   W96
@  #06 @110   ----------------------------------------
 .byte   W96
@  #06 @111   ----------------------------------------
 .byte   W96
@  #06 @112   ----------------------------------------
 .byte   W96
@  #06 @113   ----------------------------------------
 .byte   W96
@  #06 @114   ----------------------------------------
 .byte   W96
@  #06 @115   ----------------------------------------
 .byte   W96
@  #06 @116   ----------------------------------------
 .byte   W96
@  #06 @117   ----------------------------------------
 .byte   W96
@  #06 @118   ----------------------------------------
 .byte   W96
@  #06 @119   ----------------------------------------
 .byte   W96
@  #06 @120   ----------------------------------------
 .byte   W92
 .byte   W03
 .byte   GOTO
  .word Label_010CDB1E
 .byte   FINE

@**************** Track 7 (Midi-Chn.6) ****************@

KBBStage5_007:
@  #07 @000   ----------------------------------------
 .byte   KEYSH , KBBStage5_key+0
 .byte   VOICE , 61
 .byte   VOL , 78*KBBStage5_mvl/mxv
 .byte   W96
@  #07 @001   ----------------------------------------
Label_010DF8F3:
 .byte   W96
@  #07 @002   ----------------------------------------
 .byte   W96
@  #07 @003   ----------------------------------------
 .byte   W96
@  #07 @004   ----------------------------------------
 .byte   W96
@  #07 @005   ----------------------------------------
 .byte   W96
@  #07 @006   ----------------------------------------
 .byte   W96
@  #07 @007   ----------------------------------------
 .byte   W96
@  #07 @008   ----------------------------------------
 .byte   W96
@  #07 @009   ----------------------------------------
 .byte   W96
@  #07 @010   ----------------------------------------
 .byte   W96
@  #07 @011   ----------------------------------------
 .byte   W96
@  #07 @012   ----------------------------------------
 .byte   W96
@  #07 @013   ----------------------------------------
 .byte   W96
@  #07 @014   ----------------------------------------
 .byte   W96
@  #07 @015   ----------------------------------------
 .byte   W96
@  #07 @016   ----------------------------------------
 .byte   W96
@  #07 @017   ----------------------------------------
 .byte   W96
@  #07 @018   ----------------------------------------
 .byte   W96
@  #07 @019   ----------------------------------------
 .byte   W96
@  #07 @020   ----------------------------------------
 .byte   W96
@  #07 @021   ----------------------------------------
 .byte   W96
@  #07 @022   ----------------------------------------
 .byte   W96
@  #07 @023   ----------------------------------------
 .byte   W96
@  #07 @024   ----------------------------------------
 .byte   W96
@  #07 @025   ----------------------------------------
 .byte   W96
@  #07 @026   ----------------------------------------
 .byte   W96
@  #07 @027   ----------------------------------------
 .byte   W96
@  #07 @028   ----------------------------------------
 .byte   W96
@  #07 @029   ----------------------------------------
 .byte   W96
@  #07 @030   ----------------------------------------
 .byte   W96
@  #07 @031   ----------------------------------------
 .byte   W96
@  #07 @032   ----------------------------------------
 .byte   W96
@  #07 @033   ----------------------------------------
 .byte   W96
@  #07 @034   ----------------------------------------
 .byte   W96
@  #07 @035   ----------------------------------------
 .byte   W96
@  #07 @036   ----------------------------------------
 .byte   W96
@  #07 @037   ----------------------------------------
 .byte   W96
@  #07 @038   ----------------------------------------
 .byte   W96
@  #07 @039   ----------------------------------------
 .byte   W96
@  #07 @040   ----------------------------------------
 .byte   W96
@  #07 @041   ----------------------------------------
 .byte   TIE ,Fs3 ,v127
 .byte   W96
@  #07 @042   ----------------------------------------
 .byte   W11
 .byte   EOT
 .byte   W01
 .byte   N17 ,En3
 .byte   W18
 .byte   Dn3
 .byte   W18
 .byte   Cs3
 .byte   W18
 .byte   Dn3
 .byte   W18
 .byte   N11 ,En3
 .byte   W12
@  #07 @043   ----------------------------------------
Label_010DF92E:
 .byte   N80 ,An3 ,v127
 .byte   W84
 .byte   N05 ,Gn3
 .byte   W06
 .byte   An3
 .byte   W06
 .byte   PEND 
@  #07 @044   ----------------------------------------
Label_010DF938:
 .byte   N32 ,Gn3 ,v127
 .byte   W36
 .byte   N11 ,Fs3
 .byte   W12
 .byte   En3
 .byte   W12
 .byte   Dn3
 .byte   W12
 .byte   Cs3
 .byte   W12
 .byte   Dn3
 .byte   W12
 .byte   PEND 
@  #07 @045   ----------------------------------------
 .byte   TIE ,Bn3
 .byte   W96
@  #07 @046   ----------------------------------------
 .byte   W32
 .byte   W03
 .byte   EOT
 .byte   W01
 .byte   N11
 .byte   W12
 .byte   An3
 .byte   W12
 .byte   Gn3
 .byte   W12
 .byte   Fs3
 .byte   W12
 .byte   En3
 .byte   W12
@  #07 @047   ----------------------------------------
Label_010DF959:
 .byte   N32 ,Fs3 ,v127
 .byte   W36
 .byte   Gn3
 .byte   W36
 .byte   N23 ,Fs3
 .byte   W24
 .byte   PEND 
@  #07 @048   ----------------------------------------
Label_010DF963:
 .byte   N32 ,Ds3 ,v127
 .byte   W36
 .byte   N23 ,Bn2
 .byte   W24
 .byte   N11
 .byte   W12
 .byte   As2
 .byte   W12
 .byte   Bn2
 .byte   W12
 .byte   PEND 
@  #07 @049   ----------------------------------------
Label_010DF971:
 .byte   N32 ,Fs3 ,v127
 .byte   W36
 .byte   En3
 .byte   W36
 .byte   N23 ,Dn3
 .byte   W24
 .byte   PEND 
@  #07 @050   ----------------------------------------
Label_010DF97B:
 .byte   N32 ,An3 ,v127
 .byte   W36
 .byte   En3
 .byte   W36
 .byte   N23 ,An2
 .byte   W24
 .byte   PEND 
@  #07 @051   ----------------------------------------
 .byte   PATT
  .word Label_010DF971
@  #07 @052   ----------------------------------------
Label_010DF98A:
 .byte   N32 ,An3 ,v127
 .byte   W36
 .byte   En3
 .byte   W36
 .byte   N23 ,An3
 .byte   W24
 .byte   PEND 
@  #07 @053   ----------------------------------------
 .byte   N92 ,As3
 .byte   W96
@  #07 @054   ----------------------------------------
 .byte   Cn4
 .byte   W96
@  #07 @055   ----------------------------------------
Label_010DF999:
 .byte   TIE ,Dn4 ,v127
 .byte   W12
 .byte   N11 ,Fs3
 .byte   W12
 .byte   N11
 .byte   W24
 .byte   Gn3
 .byte   W12
 .byte   Fs3
 .byte   W24
 .byte   N11
 .byte   W12
 .byte   PEND 
@  #07 @056   ----------------------------------------
Label_010DF9A9:
 .byte   W12
 .byte   N11 ,Fs3 ,v127
 .byte   W12
 .byte   N11
 .byte   W12
 .byte   N11
 .byte   W12
 .byte   Gn3
 .byte   W24
 .byte   Fs3
 .byte   W23
 .byte   PEND 
 .byte   EOT
 .byte   Dn4
 .byte   W01
@  #07 @057   ----------------------------------------
 .byte   W96
@  #07 @058   ----------------------------------------
 .byte   W96
@  #07 @059   ----------------------------------------
 .byte   W96
@  #07 @060   ----------------------------------------
 .byte   W96
@  #07 @061   ----------------------------------------
 .byte   W96
@  #07 @062   ----------------------------------------
 .byte   W96
@  #07 @063   ----------------------------------------
 .byte   W96
@  #07 @064   ----------------------------------------
 .byte   W96
@  #07 @065   ----------------------------------------
 .byte   W96
@  #07 @066   ----------------------------------------
 .byte   W96
@  #07 @067   ----------------------------------------
 .byte   W96
@  #07 @068   ----------------------------------------
 .byte   W96
@  #07 @069   ----------------------------------------
 .byte   W96
@  #07 @070   ----------------------------------------
 .byte   W96
@  #07 @071   ----------------------------------------
 .byte   W96
@  #07 @072   ----------------------------------------
 .byte   W96
@  #07 @073   ----------------------------------------
 .byte   W96
@  #07 @074   ----------------------------------------
 .byte   W96
@  #07 @075   ----------------------------------------
 .byte   W96
@  #07 @076   ----------------------------------------
 .byte   W96
@  #07 @077   ----------------------------------------
 .byte   W96
@  #07 @078   ----------------------------------------
 .byte   W96
@  #07 @079   ----------------------------------------
 .byte   W96
@  #07 @080   ----------------------------------------
 .byte   W96
@  #07 @081   ----------------------------------------
 .byte   W96
@  #07 @082   ----------------------------------------
 .byte   W96
@  #07 @083   ----------------------------------------
 .byte   W96
@  #07 @084   ----------------------------------------
 .byte   W96
@  #07 @085   ----------------------------------------
 .byte   W96
@  #07 @086   ----------------------------------------
 .byte   W96
@  #07 @087   ----------------------------------------
 .byte   W96
@  #07 @088   ----------------------------------------
 .byte   W96
@  #07 @089   ----------------------------------------
 .byte   W96
@  #07 @090   ----------------------------------------
 .byte   W96
@  #07 @091   ----------------------------------------
 .byte   W96
@  #07 @092   ----------------------------------------
 .byte   W96
@  #07 @093   ----------------------------------------
 .byte   W96
@  #07 @094   ----------------------------------------
 .byte   W96
@  #07 @095   ----------------------------------------
 .byte   W96
@  #07 @096   ----------------------------------------
 .byte   W96
@  #07 @097   ----------------------------------------
 .byte   W96
@  #07 @098   ----------------------------------------
 .byte   W96
@  #07 @099   ----------------------------------------
 .byte   W96
@  #07 @100   ----------------------------------------
 .byte   W96
@  #07 @101   ----------------------------------------
 .byte   W96
@  #07 @102   ----------------------------------------
 .byte   W96
@  #07 @103   ----------------------------------------
 .byte   W96
@  #07 @104   ----------------------------------------
 .byte   W96
@  #07 @105   ----------------------------------------
 .byte   TIE ,Fs3
 .byte   W96
@  #07 @106   ----------------------------------------
 .byte   W11
 .byte   EOT
 .byte   W01
 .byte   N17 ,En3
 .byte   W18
 .byte   Dn3
 .byte   W18
 .byte   Cs3
 .byte   W18
 .byte   Dn3
 .byte   W18
 .byte   N11 ,En3
 .byte   W12
@  #07 @107   ----------------------------------------
 .byte   PATT
  .word Label_010DF92E
@  #07 @108   ----------------------------------------
 .byte   PATT
  .word Label_010DF938
@  #07 @109   ----------------------------------------
 .byte   TIE ,Bn3 ,v127
 .byte   W96
@  #07 @110   ----------------------------------------
 .byte   W32
 .byte   W03
 .byte   EOT
 .byte   W01
 .byte   N11
 .byte   W12
 .byte   An3
 .byte   W12
 .byte   Gn3
 .byte   W12
 .byte   Fs3
 .byte   W12
 .byte   En3
 .byte   W12
@  #07 @111   ----------------------------------------
 .byte   PATT
  .word Label_010DF959
@  #07 @112   ----------------------------------------
 .byte   PATT
  .word Label_010DF963
@  #07 @113   ----------------------------------------
 .byte   PATT
  .word Label_010DF971
@  #07 @114   ----------------------------------------
 .byte   PATT
  .word Label_010DF97B
@  #07 @115   ----------------------------------------
 .byte   PATT
  .word Label_010DF971
@  #07 @116   ----------------------------------------
 .byte   PATT
  .word Label_010DF98A
@  #07 @117   ----------------------------------------
 .byte   N92 ,As3 ,v127
 .byte   W96
@  #07 @118   ----------------------------------------
 .byte   Cn4
 .byte   W96
@  #07 @119   ----------------------------------------
 .byte   PATT
  .word Label_010DF999
@  #07 @120   ----------------------------------------
 .byte   PATT
  .word Label_010DF9A9
@  #07 @121   ----------------------------------------
 .byte   EOT
 .byte   Dn4
 .byte   GOTO
  .word Label_010DF8F3
 .byte   FINE

@**************** Track 8 (Midi-Chn.7) ****************@

KBBStage5_008:
@  #08 @000   ----------------------------------------
 .byte   VOL , 80*KBBStage5_mvl/mxv
 .byte   KEYSH , KBBStage5_key+0
 .byte   VOICE , 127
 .byte   N05 ,Fs1 ,v127
 .byte   W12
 .byte   Dn1
 .byte   W36
 .byte   Dn1 ,v036
 .byte   W12
 .byte   Dn1 ,v056
 .byte   W12
 .byte   Dn1 ,v092
 .byte   W06
 .byte   Dn1 ,v120
 .byte   W06
 .byte   Dn1 ,v096
 .byte   W06
 .byte   Dn1 ,v120
 .byte   W06
@  #08 @001   ----------------------------------------
Label_010DFA86:
 .byte   N05 ,Fs1 ,v127
 .byte   W12
 .byte   Cn1
 .byte   W06
 .byte   N05
 .byte   W06
 .byte   Dn1
 .byte   W12
 .byte   Cn1
 .byte   W06
 .byte   N05
 .byte   W06
 .byte   Fs1
 .byte   W12
 .byte   Cn1
 .byte   W06
 .byte   N05
 .byte   W06
 .byte   Dn1
 .byte   W12
 .byte   Cn1
 .byte   W06
 .byte   N05
 .byte   W06
 .byte   PEND 
@  #08 @002   ----------------------------------------
 .byte   PATT
  .word Label_010DFA86
@  #08 @003   ----------------------------------------
 .byte   PATT
  .word Label_010DFA86
@  #08 @004   ----------------------------------------
Label_010DFAAB:
 .byte   N05 ,Fs1 ,v127
 .byte   W12
 .byte   Cn1
 .byte   W06
 .byte   N05
 .byte   W06
 .byte   Dn1
 .byte   W12
 .byte   Cn1
 .byte   W06
 .byte   N05
 .byte   W06
 .byte   Fs1
 .byte   W12
 .byte   Cn1
 .byte   W06
 .byte   N05
 .byte   W06
 .byte   Dn1
 .byte   W12
 .byte   Cn1
 .byte   N05 ,Dn1 ,v064
 .byte   W06
 .byte   Cn1 ,v127
 .byte   N05 ,Dn1 ,v064
 .byte   W06
 .byte   PEND 
@  #08 @005   ----------------------------------------
 .byte   PATT
  .word Label_010DFA86
@  #08 @006   ----------------------------------------
 .byte   PATT
  .word Label_010DFA86
@  #08 @007   ----------------------------------------
 .byte   PATT
  .word Label_010DFA86
@  #08 @008   ----------------------------------------
Label_010DFADC:
 .byte   N05 ,Fs1 ,v127
 .byte   W12
 .byte   Cn1
 .byte   W06
 .byte   N05
 .byte   W06
 .byte   Dn1
 .byte   W12
 .byte   Cn1
 .byte   W06
 .byte   N05
 .byte   W06
 .byte   Fs1
 .byte   W24
 .byte   Dn1
 .byte   W12
 .byte   Dn1 ,v072
 .byte   W06
 .byte   Dn1 ,v127
 .byte   W06
 .byte   PEND 
@  #08 @009   ----------------------------------------
 .byte   PATT
  .word Label_010DFA86
@  #08 @010   ----------------------------------------
 .byte   PATT
  .word Label_010DFA86
@  #08 @011   ----------------------------------------
 .byte   PATT
  .word Label_010DFA86
@  #08 @012   ----------------------------------------
 .byte   PATT
  .word Label_010DFA86
@  #08 @013   ----------------------------------------
 .byte   PATT
  .word Label_010DFA86
@  #08 @014   ----------------------------------------
 .byte   PATT
  .word Label_010DFA86
@  #08 @015   ----------------------------------------
 .byte   PATT
  .word Label_010DFA86
@  #08 @016   ----------------------------------------
Label_010DFB18:
 .byte   N05 ,Fs1 ,v127
 .byte   W12
 .byte   Cn1
 .byte   W06
 .byte   N05
 .byte   W06
 .byte   Dn1
 .byte   W12
 .byte   Cn1
 .byte   W06
 .byte   N05
 .byte   W06
 .byte   Fs1
 .byte   W24
 .byte   Dn1 ,v120
 .byte   W12
 .byte   Dn1 ,v088
 .byte   W06
 .byte   Dn1 ,v108
 .byte   W06
 .byte   PEND 
@  #08 @017   ----------------------------------------
Label_010DFB32:
 .byte   N05 ,Fs1 ,v127
 .byte   W12
 .byte   Ds2
 .byte   W12
 .byte   Dn1
 .byte   W12
 .byte   Ds2
 .byte   W06
 .byte   Fn2
 .byte   W12
 .byte   N05
 .byte   W18
 .byte   Dn1
 .byte   W12
 .byte   Fn2
 .byte   W12
 .byte   PEND 
@  #08 @018   ----------------------------------------
 .byte   PATT
  .word Label_010DFB32
@  #08 @019   ----------------------------------------
 .byte   PATT
  .word Label_010DFB32
@  #08 @020   ----------------------------------------
Label_010DFB4F:
 .byte   N05 ,Fs1 ,v127
 .byte   W12
 .byte   Ds2
 .byte   W12
 .byte   Dn1
 .byte   W12
 .byte   Ds2
 .byte   W06
 .byte   Fn2
 .byte   W12
 .byte   N05
 .byte   W18
 .byte   Dn1
 .byte   W12
 .byte   N05
 .byte   W06
 .byte   N05
 .byte   W06
 .byte   PEND 
@  #08 @021   ----------------------------------------
 .byte   PATT
  .word Label_010DFB32
@  #08 @022   ----------------------------------------
 .byte   PATT
  .word Label_010DFB32
@  #08 @023   ----------------------------------------
 .byte   PATT
  .word Label_010DFB32
@  #08 @024   ----------------------------------------
Label_010DFB73:
 .byte   N05 ,Fs1 ,v127
 .byte   W12
 .byte   Dn1
 .byte   W36
 .byte   Dn1 ,v036
 .byte   W12
 .byte   Dn1 ,v056
 .byte   W12
 .byte   Dn1 ,v092
 .byte   W06
 .byte   Dn1 ,v120
 .byte   W06
 .byte   Dn1 ,v096
 .byte   W06
 .byte   Dn1 ,v120
 .byte   W06
 .byte   PEND 
@  #08 @025   ----------------------------------------
 .byte   PATT
  .word Label_010DFA86
@  #08 @026   ----------------------------------------
 .byte   PATT
  .word Label_010DFA86
@  #08 @027   ----------------------------------------
 .byte   PATT
  .word Label_010DFA86
@  #08 @028   ----------------------------------------
 .byte   PATT
  .word Label_010DFAAB
@  #08 @029   ----------------------------------------
 .byte   PATT
  .word Label_010DFA86
@  #08 @030   ----------------------------------------
 .byte   PATT
  .word Label_010DFA86
@  #08 @031   ----------------------------------------
 .byte   PATT
  .word Label_010DFA86
@  #08 @032   ----------------------------------------
 .byte   PATT
  .word Label_010DFADC
@  #08 @033   ----------------------------------------
 .byte   PATT
  .word Label_010DFA86
@  #08 @034   ----------------------------------------
 .byte   PATT
  .word Label_010DFA86
@  #08 @035   ----------------------------------------
 .byte   PATT
  .word Label_010DFA86
@  #08 @036   ----------------------------------------
 .byte   PATT
  .word Label_010DFA86
@  #08 @037   ----------------------------------------
 .byte   PATT
  .word Label_010DFA86
@  #08 @038   ----------------------------------------
 .byte   PATT
  .word Label_010DFA86
@  #08 @039   ----------------------------------------
 .byte   PATT
  .word Label_010DFA86
@  #08 @040   ----------------------------------------
 .byte   PATT
  .word Label_010DFB18
@  #08 @041   ----------------------------------------
 .byte   PATT
  .word Label_010DFA86
@  #08 @042   ----------------------------------------
 .byte   PATT
  .word Label_010DFA86
@  #08 @043   ----------------------------------------
 .byte   PATT
  .word Label_010DFA86
@  #08 @044   ----------------------------------------
 .byte   PATT
  .word Label_010DFAAB
@  #08 @045   ----------------------------------------
 .byte   PATT
  .word Label_010DFA86
@  #08 @046   ----------------------------------------
 .byte   PATT
  .word Label_010DFA86
@  #08 @047   ----------------------------------------
 .byte   PATT
  .word Label_010DFA86
@  #08 @048   ----------------------------------------
 .byte   PATT
  .word Label_010DFA86
@  #08 @049   ----------------------------------------
 .byte   PATT
  .word Label_010DFA86
@  #08 @050   ----------------------------------------
 .byte   PATT
  .word Label_010DFA86
@  #08 @051   ----------------------------------------
 .byte   PATT
  .word Label_010DFA86
@  #08 @052   ----------------------------------------
 .byte   PATT
  .word Label_010DFA86
@  #08 @053   ----------------------------------------
 .byte   PATT
  .word Label_010DFA86
@  #08 @054   ----------------------------------------
 .byte   PATT
  .word Label_010DFA86
@  #08 @055   ----------------------------------------
 .byte   PATT
  .word Label_010DFA86
@  #08 @056   ----------------------------------------
 .byte   N05 ,Fs1 ,v127
 .byte   W12
 .byte   Cn1
 .byte   W06
 .byte   N05
 .byte   W06
 .byte   Dn1
 .byte   W12
 .byte   Cn1
 .byte   W06
 .byte   N05
 .byte   W06
 .byte   Fs1
 .byte   W24
 .byte   Dn1
 .byte   W12
 .byte   Dn1 ,v104
 .byte   W06
 .byte   Dn1 ,v127
 .byte   W06
@  #08 @057   ----------------------------------------
 .byte   PATT
  .word Label_010DFB32
@  #08 @058   ----------------------------------------
 .byte   PATT
  .word Label_010DFB32
@  #08 @059   ----------------------------------------
 .byte   PATT
  .word Label_010DFB32
@  #08 @060   ----------------------------------------
 .byte   PATT
  .word Label_010DFB4F
@  #08 @061   ----------------------------------------
 .byte   PATT
  .word Label_010DFB32
@  #08 @062   ----------------------------------------
 .byte   PATT
  .word Label_010DFB32
@  #08 @063   ----------------------------------------
 .byte   PATT
  .word Label_010DFB32
@  #08 @064   ----------------------------------------
 .byte   PATT
  .word Label_010DFB73
@  #08 @065   ----------------------------------------
 .byte   PATT
  .word Label_010DFA86
@  #08 @066   ----------------------------------------
 .byte   PATT
  .word Label_010DFA86
@  #08 @067   ----------------------------------------
 .byte   PATT
  .word Label_010DFA86
@  #08 @068   ----------------------------------------
 .byte   PATT
  .word Label_010DFAAB
@  #08 @069   ----------------------------------------
 .byte   PATT
  .word Label_010DFA86
@  #08 @070   ----------------------------------------
 .byte   PATT
  .word Label_010DFA86
@  #08 @071   ----------------------------------------
 .byte   PATT
  .word Label_010DFA86
@  #08 @072   ----------------------------------------
 .byte   PATT
  .word Label_010DFADC
@  #08 @073   ----------------------------------------
 .byte   PATT
  .word Label_010DFA86
@  #08 @074   ----------------------------------------
 .byte   PATT
  .word Label_010DFA86
@  #08 @075   ----------------------------------------
 .byte   PATT
  .word Label_010DFA86
@  #08 @076   ----------------------------------------
 .byte   PATT
  .word Label_010DFA86
@  #08 @077   ----------------------------------------
 .byte   PATT
  .word Label_010DFA86
@  #08 @078   ----------------------------------------
 .byte   PATT
  .word Label_010DFA86
@  #08 @079   ----------------------------------------
 .byte   PATT
  .word Label_010DFA86
@  #08 @080   ----------------------------------------
 .byte   PATT
  .word Label_010DFB18
@  #08 @081   ----------------------------------------
 .byte   PATT
  .word Label_010DFB32
@  #08 @082   ----------------------------------------
 .byte   PATT
  .word Label_010DFB32
@  #08 @083   ----------------------------------------
 .byte   PATT
  .word Label_010DFB32
@  #08 @084   ----------------------------------------
 .byte   PATT
  .word Label_010DFB4F
@  #08 @085   ----------------------------------------
 .byte   PATT
  .word Label_010DFB32
@  #08 @086   ----------------------------------------
 .byte   PATT
  .word Label_010DFB32
@  #08 @087   ----------------------------------------
 .byte   PATT
  .word Label_010DFB32
@  #08 @088   ----------------------------------------
 .byte   PATT
  .word Label_010DFB73
@  #08 @089   ----------------------------------------
 .byte   PATT
  .word Label_010DFA86
@  #08 @090   ----------------------------------------
 .byte   PATT
  .word Label_010DFA86
@  #08 @091   ----------------------------------------
 .byte   PATT
  .word Label_010DFA86
@  #08 @092   ----------------------------------------
 .byte   PATT
  .word Label_010DFAAB
@  #08 @093   ----------------------------------------
 .byte   PATT
  .word Label_010DFA86
@  #08 @094   ----------------------------------------
 .byte   PATT
  .word Label_010DFA86
@  #08 @095   ----------------------------------------
 .byte   PATT
  .word Label_010DFA86
@  #08 @096   ----------------------------------------
 .byte   PATT
  .word Label_010DFADC
@  #08 @097   ----------------------------------------
 .byte   PATT
  .word Label_010DFA86
@  #08 @098   ----------------------------------------
 .byte   PATT
  .word Label_010DFA86
@  #08 @099   ----------------------------------------
 .byte   PATT
  .word Label_010DFA86
@  #08 @100   ----------------------------------------
 .byte   PATT
  .word Label_010DFA86
@  #08 @101   ----------------------------------------
 .byte   PATT
  .word Label_010DFA86
@  #08 @102   ----------------------------------------
 .byte   PATT
  .word Label_010DFA86
@  #08 @103   ----------------------------------------
 .byte   PATT
  .word Label_010DFA86
@  #08 @104   ----------------------------------------
 .byte   PATT
  .word Label_010DFB18
@  #08 @105   ----------------------------------------
 .byte   PATT
  .word Label_010DFA86
@  #08 @106   ----------------------------------------
 .byte   PATT
  .word Label_010DFA86
@  #08 @107   ----------------------------------------
 .byte   PATT
  .word Label_010DFA86
@  #08 @108   ----------------------------------------
 .byte   PATT
  .word Label_010DFAAB
@  #08 @109   ----------------------------------------
 .byte   PATT
  .word Label_010DFA86
@  #08 @110   ----------------------------------------
 .byte   PATT
  .word Label_010DFA86
@  #08 @111   ----------------------------------------
 .byte   PATT
  .word Label_010DFA86
@  #08 @112   ----------------------------------------
 .byte   PATT
  .word Label_010DFA86
@  #08 @113   ----------------------------------------
 .byte   PATT
  .word Label_010DFA86
@  #08 @114   ----------------------------------------
 .byte   PATT
  .word Label_010DFA86
@  #08 @115   ----------------------------------------
 .byte   PATT
  .word Label_010DFA86
@  #08 @116   ----------------------------------------
 .byte   PATT
  .word Label_010DFA86
@  #08 @117   ----------------------------------------
 .byte   PATT
  .word Label_010DFA86
@  #08 @118   ----------------------------------------
 .byte   PATT
  .word Label_010DFA86
@  #08 @119   ----------------------------------------
 .byte   PATT
  .word Label_010DFA86
@  #08 @120   ----------------------------------------
 .byte   N05 ,Fs1 ,v127
 .byte   W12
 .byte   Cn1
 .byte   W06
 .byte   N05
 .byte   W06
 .byte   Dn1
 .byte   W12
 .byte   Cn1
 .byte   W06
 .byte   N05
 .byte   W06
 .byte   Fs1
 .byte   W24
 .byte   Dn1
 .byte   W12
 .byte   Dn1 ,v104
 .byte   W06
 .byte   Dn1 ,v127
 .byte   W05
 .byte   GOTO
  .word Label_010DFA86
 .byte   FINE

@******************************************************@
	.align	2

KBBStage5:
	.byte	8	@ NumTrks
	.byte	0	@ NumBlks
	.byte	KBBStage5_pri	@ Priority
	.byte	KBBStage5_rev	@ Reverb.
    
	.word	KBBStage5_grp
    
	.word	KBBStage5_001
	.word	KBBStage5_002
	.word	KBBStage5_003
	.word	KBBStage5_004
	.word	KBBStage5_005
	.word	KBBStage5_006
	.word	KBBStage5_007
	.word	KBBStage5_008

	.end
