//Event file generated from Sappy .s format.
	

	#define	KKCafe_grp  voicegroup000
	#define	KKCafe_pri  0
	#define	KKCafe_rev  0
	#define	KKCafe_mvl  127
	#define	KKCafe_key  0
	#define	KKCafe_tbs  1
	#define	KKCafe_exg  0
	#define	KKCafe_cmp  1

	// .rodata
	//	KKCafe
	ALIGN 4


//**************** Track 1 (Midi-Chn.0) ****************//

KKCafe_001:
//  #01 //000   ----------------------------------------
 BYTE   KEYSH   KKCafe_key+0
Label_013ADF6A:
 BYTE   TEMPO   210*KKCafe_tbs/2
 BYTE   VOICE   36
 BYTE   VOL   87*KKCafe_mvl/mxv
 BYTE   PAN   c_v+0
 BYTE   W96
//  #01 //001   ----------------------------------------
 BYTE   W96
//  #01 //002   ----------------------------------------
 BYTE   W96
//  #01 //003   ----------------------------------------
 BYTE   W96
//  #01 //004   ----------------------------------------
 BYTE   W96
//  #01 //005   ----------------------------------------
 BYTE   W60
 BYTE   W02
 BYTE   N09  Gs2  v080
 BYTE   W10
 BYTE   N14  Gn2
 BYTE   W14
 BYTE   N09  Fn2
 BYTE   W10
//  #01 //006   ----------------------------------------
Label_013ADF83:
 BYTE   N36  Ds2  v064
 BYTE   W36
 BYTE   W02
 BYTE   N32  As1
 BYTE   W32
 BYTE   W02
 BYTE   N23  Gn2
 BYTE   W24
 BYTE   PEND 
//  #01 //007   ----------------------------------------
Label_013ADF90:
 BYTE   N23  Dn2  v064
 BYTE   W24
 BYTE   Gn2
 BYTE   W24
 BYTE   N36  Ds2
 BYTE   W36
 BYTE   W02
 BYTE   N32  As1
 BYTE   W10
 BYTE   PEND 
//  #01 //008   ----------------------------------------
Label_013ADF9E:
 BYTE   W24
 BYTE   N23  Gn2  v064
 BYTE   W24
 BYTE   Dn2
 BYTE   W24
 BYTE   Gn2
 BYTE   W24
 BYTE   PEND 
//  #01 //009   ----------------------------------------
 BYTE   PATT
  POIN2 Label_013ADF83
//  #01 //010   ----------------------------------------
 BYTE   PATT
  POIN2 Label_013ADF90
//  #01 //011   ----------------------------------------
 BYTE   PATT
  POIN2 Label_013ADF9E
//  #01 //012   ----------------------------------------
 BYTE   PATT
  POIN2 Label_013ADF83
//  #01 //013   ----------------------------------------
Label_013ADFBC:
 BYTE   N23  Dn2  v064
 BYTE   W24
 BYTE   Gn2
 BYTE   W24
 BYTE   Ds2
 BYTE   W24
 BYTE   Dn2
 BYTE   W24
 BYTE   PEND 
//  #01 //014   ----------------------------------------
Label_013ADFC7:
 BYTE   N23  Cn2  v064
 BYTE   W24
 BYTE   As1
 BYTE   W24
 BYTE   Cn2
 BYTE   W24
 BYTE   Dn2
 BYTE   W24
 BYTE   PEND 
//  #01 //015   ----------------------------------------
Label_013ADFD2:
 BYTE   N36  Fn2  v064
 BYTE   W36
 BYTE   W02
 BYTE   N32  Cn2
 BYTE   W32
 BYTE   W02
 BYTE   N23  Gs1
 BYTE   W24
 BYTE   PEND 
//  #01 //016   ----------------------------------------
Label_013ADFDF:
 BYTE   N23  Gn1  v064
 BYTE   W24
 BYTE   Gs1
 BYTE   W24
 BYTE   N36  Fn2
 BYTE   W36
 BYTE   W02
 BYTE   N32  Cn2
 BYTE   W10
 BYTE   PEND 
//  #01 //017   ----------------------------------------
Label_013ADFED:
 BYTE   W24
 BYTE   N23  Gs1  v064
 BYTE   W24
 BYTE   Gn1
 BYTE   W24
 BYTE   Gs1
 BYTE   W24
 BYTE   PEND 
//  #01 //018   ----------------------------------------
 BYTE   PATT
  POIN2 Label_013ADFD2
//  #01 //019   ----------------------------------------
 BYTE   PATT
  POIN2 Label_013ADFDF
//  #01 //020   ----------------------------------------
 BYTE   PATT
  POIN2 Label_013ADFED
//  #01 //021   ----------------------------------------
 BYTE   PATT
  POIN2 Label_013ADFD2
//  #01 //022   ----------------------------------------
 BYTE   PATT
  POIN2 Label_013ADFDF
//  #01 //023   ----------------------------------------
 BYTE   PATT
  POIN2 Label_013ADFED
//  #01 //024   ----------------------------------------
 BYTE   PATT
  POIN2 Label_013ADFD2
//  #01 //025   ----------------------------------------
Label_013AE01A:
 BYTE   N23  Gn1  v064
 BYTE   W24
 BYTE   Gs1
 BYTE   W24
 BYTE   N36  Fn2
 BYTE   W36
 BYTE   W02
 BYTE   N32  As1
 BYTE   W10
 BYTE   PEND 
//  #01 //026   ----------------------------------------
Label_013AE028:
 BYTE   W24
 BYTE   N23  Gs2  v064
 BYTE   W24
 BYTE   As2
 BYTE   W24
 BYTE   Gs2
 BYTE   W24
 BYTE   PEND 
//  #01 //027   ----------------------------------------
 BYTE   PATT
  POIN2 Label_013ADF83
//  #01 //028   ----------------------------------------
 BYTE   PATT
  POIN2 Label_013ADF90
//  #01 //029   ----------------------------------------
 BYTE   PATT
  POIN2 Label_013ADF9E
//  #01 //030   ----------------------------------------
 BYTE   PATT
  POIN2 Label_013ADF83
//  #01 //031   ----------------------------------------
 BYTE   PATT
  POIN2 Label_013ADF90
//  #01 //032   ----------------------------------------
 BYTE   PATT
  POIN2 Label_013ADF9E
//  #01 //033   ----------------------------------------
 BYTE   PATT
  POIN2 Label_013ADF83
//  #01 //034   ----------------------------------------
 BYTE   PATT
  POIN2 Label_013ADF90
//  #01 //035   ----------------------------------------
 BYTE   PATT
  POIN2 Label_013ADF9E
//  #01 //036   ----------------------------------------
 BYTE   PATT
  POIN2 Label_013ADF83
//  #01 //037   ----------------------------------------
Label_013AE064:
 BYTE   N23  Dn2  v064
 BYTE   W24
 BYTE   Gn2
 BYTE   W24
 BYTE   N36  Cn2
 BYTE   W36
 BYTE   W02
 BYTE   N32  En2
 BYTE   W10
 BYTE   PEND 
//  #01 //038   ----------------------------------------
Label_013AE072:
 BYTE   W24
 BYTE   N23  Gn2  v064
 BYTE   W24
 BYTE   En2
 BYTE   W24
 BYTE   Gn2
 BYTE   W24
 BYTE   PEND 
//  #01 //039   ----------------------------------------
Label_013AE07C:
 BYTE   N23  Gs2  v064
 BYTE   W24
 BYTE   Fn2
 BYTE   W24
 BYTE   Gs2
 BYTE   W24
 BYTE   Gn2
 BYTE   W24
 BYTE   PEND 
//  #01 //040   ----------------------------------------
Label_013AE087:
 BYTE   N23  Ds2  v064
 BYTE   W24
 BYTE   Gn2
 BYTE   W24
 BYTE   Fn2
 BYTE   W24
 BYTE   Gn2
 BYTE   W24
 BYTE   PEND 
//  #01 //041   ----------------------------------------
Label_013AE092:
 BYTE   N23  Fn2  v064
 BYTE   W24
 BYTE   N36  Ds2
 BYTE   W36
 BYTE   W02
 BYTE   N32  Cn2
 BYTE   W32
 BYTE   W02
 BYTE   PEND 
//  #01 //042   ----------------------------------------
Label_013AE09F:
 BYTE   N36  Gs1  v064
 BYTE   W36
 BYTE   W02
 BYTE   N32  Ds2
 BYTE   W32
 BYTE   W02
 BYTE   N23  Gn2
 BYTE   W24
 BYTE   PEND 
//  #01 //043   ----------------------------------------
Label_013AE0AC:
 BYTE   N23  Ds2  v064
 BYTE   W24
 BYTE   Gn2
 BYTE   W24
 BYTE   N36  Gs1
 BYTE   W36
 BYTE   W02
 BYTE   N32  Ds2
 BYTE   W10
 BYTE   PEND 
//  #01 //044   ----------------------------------------
Label_013AE0BA:
 BYTE   W24
 BYTE   N23  Gn2  v064
 BYTE   W24
 BYTE   Ds2
 BYTE   W24
 BYTE   Gn2
 BYTE   W24
 BYTE   PEND 
//  #01 //045   ----------------------------------------
Label_013AE0C4:
 BYTE   N36  Gn1  v064
 BYTE   W36
 BYTE   W02
 BYTE   N32  Dn2
 BYTE   W32
 BYTE   W02
 BYTE   N23  Fn2
 BYTE   W24
 BYTE   PEND 
//  #01 //046   ----------------------------------------
Label_013AE0D1:
 BYTE   N23  Dn2  v064
 BYTE   W24
 BYTE   Fn2
 BYTE   W24
 BYTE   N36  Gs1
 BYTE   W36
 BYTE   W02
 BYTE   N32  En2
 BYTE   W10
 BYTE   PEND 
//  #01 //047   ----------------------------------------
Label_013AE0DF:
 BYTE   W24
 BYTE   N23  As2  v064
 BYTE   W24
 BYTE   En2
 BYTE   W24
 BYTE   As2
 BYTE   W24
 BYTE   PEND 
//  #01 //048   ----------------------------------------
 BYTE   N16  Gs1  v076
 BYTE   W96
//  #01 //049   ----------------------------------------
 BYTE   W48
 BYTE   N68  Fn1  v064
 BYTE   W48
//  #01 //050   ----------------------------------------
 BYTE   W24
 BYTE   As1
 BYTE   W72
//  #01 //051   ----------------------------------------
 BYTE   PATT
  POIN2 Label_013ADF83
//  #01 //052   ----------------------------------------
 BYTE   PATT
  POIN2 Label_013ADF90
//  #01 //053   ----------------------------------------
 BYTE   PATT
  POIN2 Label_013ADF9E
//  #01 //054   ----------------------------------------
 BYTE   N23  Cn2  v080
 BYTE   W24
 BYTE   As1
 BYTE   W24
 BYTE   Cn2
 BYTE   W24
 BYTE   Fn2
 BYTE   W24
//  #01 //055   ----------------------------------------
 BYTE   Gs2
 BYTE   W24
 BYTE   Cs3
 BYTE   W24
 BYTE   Ds3
 BYTE   W24
 BYTE   N23
 BYTE   W24
//  #01 //056   ----------------------------------------
 BYTE   As2
 BYTE   W24
 BYTE   Gn2
 BYTE   W24
 BYTE   Ds2
 BYTE   W24
 BYTE   Gn2
 BYTE   W24
//  #01 //057   ----------------------------------------
 BYTE   Gs1
 BYTE   W24
 BYTE   As1
 BYTE   W24
 BYTE   Cn2
 BYTE   W24
 BYTE   Gn2
 BYTE   W24
//  #01 //058   ----------------------------------------
 BYTE   Ds2
 BYTE   W24
 BYTE   As1
 BYTE   W24
 BYTE   Gn2
 BYTE   W24
 BYTE   Ds2
 BYTE   W24
//  #01 //059   ----------------------------------------
 BYTE   Gn2
 BYTE   W24
 BYTE   Ds2
 BYTE   W24
 BYTE   Gs1
 BYTE   W24
 BYTE   Ds2
 BYTE   W24
//  #01 //060   ----------------------------------------
 BYTE   N23
 BYTE   W24
 BYTE   Cn2
 BYTE   W24
 BYTE   Dn2
 BYTE   W24
 BYTE   Gn2
 BYTE   W24
//  #01 //061   ----------------------------------------
 BYTE   Fn2
 BYTE   W24
 BYTE   Ds2
 BYTE   W24
 BYTE   Fn2
 BYTE   W24
 BYTE   N23
 BYTE   W24
//  #01 //062   ----------------------------------------
 BYTE   Dn2
 BYTE   W24
 BYTE   Cn2
 BYTE   W24
 BYTE   Dn2
 BYTE   W24
 BYTE   An1
 BYTE   W24
//  #01 //063   ----------------------------------------
 BYTE   Ds2  v120
 BYTE   W24
 BYTE   Fn2  v080
 BYTE   W24
 BYTE   Gn2
 BYTE   W24
 BYTE   Dn2  v120
 BYTE   W24
//  #01 //064   ----------------------------------------
 BYTE   Ds2  v080
 BYTE   W24
 BYTE   Fn2
 BYTE   W24
 BYTE   Cn2  v120
 BYTE   W24
 BYTE   Dn2  v080
 BYTE   W24
//  #01 //065   ----------------------------------------
 BYTE   Ds2
 BYTE   W24
 BYTE   As1  v120
 BYTE   W24
 BYTE   Gn1  v080
 BYTE   W24
 BYTE   As1
 BYTE   W24
//  #01 //066   ----------------------------------------
Label_013AE16E:
 BYTE   N11  Ds2  v064
 BYTE   W36
 BYTE   W02
 BYTE   N23
 BYTE   W32
 BYTE   W02
 BYTE   N11  As1
 BYTE   W24
 BYTE   PEND 
//  #01 //067   ----------------------------------------
Label_013AE17A:
 BYTE   W14
 BYTE   N23  As1  v064
 BYTE   W32
 BYTE   W02
 BYTE   N11  Ds2
 BYTE   W36
 BYTE   W02
 BYTE   N23
 BYTE   W10
 BYTE   PEND 
//  #01 //068   ----------------------------------------
Label_013AE187:
 BYTE   W24
 BYTE   N11  As1  v064
 BYTE   W36
 BYTE   W02
 BYTE   N23
 BYTE   W32
 BYTE   W02
 BYTE   PEND 
//  #01 //069   ----------------------------------------
 BYTE   PATT
  POIN2 Label_013AE16E
//  #01 //070   ----------------------------------------
 BYTE   PATT
  POIN2 Label_013AE17A
//  #01 //071   ----------------------------------------
 BYTE   PATT
  POIN2 Label_013AE187
//  #01 //072   ----------------------------------------
 BYTE   PATT
  POIN2 Label_013AE16E
//  #01 //073   ----------------------------------------
 BYTE   PATT
  POIN2 Label_013AE17A
//  #01 //074   ----------------------------------------
 BYTE   PATT
  POIN2 Label_013AE187
//  #01 //075   ----------------------------------------
Label_013AE1AF:
 BYTE   N11  Fn2  v064
 BYTE   W36
 BYTE   W02
 BYTE   N23
 BYTE   W32
 BYTE   W02
 BYTE   N11  Cn2
 BYTE   W24
 BYTE   PEND 
//  #01 //076   ----------------------------------------
Label_013AE1BB:
 BYTE   W14
 BYTE   N23  Cn2  v064
 BYTE   W32
 BYTE   W02
 BYTE   N11  Fn2
 BYTE   W36
 BYTE   W02
 BYTE   N23
 BYTE   W10
 BYTE   PEND 
//  #01 //077   ----------------------------------------
Label_013AE1C8:
 BYTE   W24
 BYTE   N11  Cn2  v064
 BYTE   W36
 BYTE   W02
 BYTE   N23
 BYTE   W32
 BYTE   W02
 BYTE   PEND 
//  #01 //078   ----------------------------------------
 BYTE   PATT
  POIN2 Label_013AE1AF
//  #01 //079   ----------------------------------------
 BYTE   PATT
  POIN2 Label_013AE1BB
//  #01 //080   ----------------------------------------
 BYTE   PATT
  POIN2 Label_013AE1C8
//  #01 //081   ----------------------------------------
 BYTE   PATT
  POIN2 Label_013AE1AF
//  #01 //082   ----------------------------------------
 BYTE   PATT
  POIN2 Label_013AE1BB
//  #01 //083   ----------------------------------------
 BYTE   PATT
  POIN2 Label_013AE1C8
//  #01 //084   ----------------------------------------
 BYTE   PATT
  POIN2 Label_013AE1AF
//  #01 //085   ----------------------------------------
Label_013AE1F5:
 BYTE   W14
 BYTE   N23  Cn2  v064
 BYTE   W32
 BYTE   W02
 BYTE   N11  As1
 BYTE   W36
 BYTE   W02
 BYTE   N23
 BYTE   W10
 BYTE   PEND 
//  #01 //086   ----------------------------------------
Label_013AE202:
 BYTE   W24
 BYTE   N11  Fn2  v064
 BYTE   W36
 BYTE   W02
 BYTE   N23
 BYTE   W32
 BYTE   W02
 BYTE   PEND 
//  #01 //087   ----------------------------------------
 BYTE   PATT
  POIN2 Label_013AE16E
//  #01 //088   ----------------------------------------
 BYTE   PATT
  POIN2 Label_013AE17A
//  #01 //089   ----------------------------------------
 BYTE   PATT
  POIN2 Label_013AE187
//  #01 //090   ----------------------------------------
 BYTE   N11  As1  v064
 BYTE   W36
 BYTE   W02
 BYTE   N23
 BYTE   W32
 BYTE   W02
 BYTE   N11  Fn2
 BYTE   W24
//  #01 //091   ----------------------------------------
 BYTE   W14
 BYTE   N23
 BYTE   W32
 BYTE   W02
 BYTE   N11  Ds2
 BYTE   W36
 BYTE   W02
 BYTE   N23
 BYTE   W10
//  #01 //092   ----------------------------------------
 BYTE   PATT
  POIN2 Label_013AE187
//  #01 //093   ----------------------------------------
 BYTE   N11  Gs1  v064
 BYTE   W36
 BYTE   W02
 BYTE   N23
 BYTE   W32
 BYTE   W02
 BYTE   N11  Ds2
 BYTE   W24
//  #01 //094   ----------------------------------------
 BYTE   W14
 BYTE   N23
 BYTE   W32
 BYTE   W02
 BYTE   N11  Gs1
 BYTE   W36
 BYTE   W02
 BYTE   N23
 BYTE   W10
//  #01 //095   ----------------------------------------
 BYTE   W24
 BYTE   N11  Ds2
 BYTE   W36
 BYTE   W02
 BYTE   N23
 BYTE   W32
 BYTE   W02
//  #01 //096   ----------------------------------------
 BYTE   N11  Cn2
 BYTE   W36
 BYTE   W02
 BYTE   N23
 BYTE   W32
 BYTE   W02
 BYTE   N11  Gn2
 BYTE   W24
//  #01 //097   ----------------------------------------
 BYTE   W14
 BYTE   N23
 BYTE   W32
 BYTE   W02
 BYTE   N11  Fn2
 BYTE   W36
 BYTE   W02
 BYTE   N23
 BYTE   W10
//  #01 //098   ----------------------------------------
 BYTE   PATT
  POIN2 Label_013AE1C8
//  #01 //099   ----------------------------------------
 BYTE   PATT
  POIN2 Label_013AE1AF
//  #01 //100   ----------------------------------------
 BYTE   PATT
  POIN2 Label_013AE1F5
//  #01 //101   ----------------------------------------
 BYTE   PATT
  POIN2 Label_013AE202
//  #01 //102   ----------------------------------------
 BYTE   PATT
  POIN2 Label_013ADF83
//  #01 //103   ----------------------------------------
 BYTE   PATT
  POIN2 Label_013ADF90
//  #01 //104   ----------------------------------------
 BYTE   PATT
  POIN2 Label_013ADF9E
//  #01 //105   ----------------------------------------
 BYTE   PATT
  POIN2 Label_013ADF83
//  #01 //106   ----------------------------------------
 BYTE   PATT
  POIN2 Label_013ADF90
//  #01 //107   ----------------------------------------
 BYTE   PATT
  POIN2 Label_013ADF9E
//  #01 //108   ----------------------------------------
 BYTE   PATT
  POIN2 Label_013ADF83
//  #01 //109   ----------------------------------------
 BYTE   PATT
  POIN2 Label_013ADFBC
//  #01 //110   ----------------------------------------
 BYTE   PATT
  POIN2 Label_013ADFC7
//  #01 //111   ----------------------------------------
 BYTE   PATT
  POIN2 Label_013ADFD2
//  #01 //112   ----------------------------------------
 BYTE   PATT
  POIN2 Label_013ADFDF
//  #01 //113   ----------------------------------------
 BYTE   PATT
  POIN2 Label_013ADFED
//  #01 //114   ----------------------------------------
 BYTE   PATT
  POIN2 Label_013ADFD2
//  #01 //115   ----------------------------------------
 BYTE   PATT
  POIN2 Label_013ADFDF
//  #01 //116   ----------------------------------------
 BYTE   PATT
  POIN2 Label_013ADFED
//  #01 //117   ----------------------------------------
 BYTE   PATT
  POIN2 Label_013ADFD2
//  #01 //118   ----------------------------------------
 BYTE   PATT
  POIN2 Label_013ADFDF
//  #01 //119   ----------------------------------------
 BYTE   PATT
  POIN2 Label_013ADFED
//  #01 //120   ----------------------------------------
 BYTE   PATT
  POIN2 Label_013ADFD2
//  #01 //121   ----------------------------------------
 BYTE   PATT
  POIN2 Label_013AE01A
//  #01 //122   ----------------------------------------
 BYTE   PATT
  POIN2 Label_013AE028
//  #01 //123   ----------------------------------------
 BYTE   PATT
  POIN2 Label_013ADF83
//  #01 //124   ----------------------------------------
 BYTE   PATT
  POIN2 Label_013ADF90
//  #01 //125   ----------------------------------------
 BYTE   PATT
  POIN2 Label_013ADF9E
//  #01 //126   ----------------------------------------
 BYTE   PATT
  POIN2 Label_013ADF83
//  #01 //127   ----------------------------------------
 BYTE   PATT
  POIN2 Label_013ADF90
//  #01 //128   ----------------------------------------
 BYTE   PATT
  POIN2 Label_013ADF9E
//  #01 //129   ----------------------------------------
 BYTE   PATT
  POIN2 Label_013ADF83
//  #01 //130   ----------------------------------------
 BYTE   PATT
  POIN2 Label_013ADF90
//  #01 //131   ----------------------------------------
 BYTE   PATT
  POIN2 Label_013ADF9E
//  #01 //132   ----------------------------------------
 BYTE   PATT
  POIN2 Label_013ADF83
//  #01 //133   ----------------------------------------
 BYTE   PATT
  POIN2 Label_013AE064
//  #01 //134   ----------------------------------------
 BYTE   PATT
  POIN2 Label_013AE072
//  #01 //135   ----------------------------------------
 BYTE   PATT
  POIN2 Label_013AE07C
//  #01 //136   ----------------------------------------
 BYTE   PATT
  POIN2 Label_013AE087
//  #01 //137   ----------------------------------------
 BYTE   PATT
  POIN2 Label_013AE092
//  #01 //138   ----------------------------------------
 BYTE   PATT
  POIN2 Label_013AE09F
//  #01 //139   ----------------------------------------
 BYTE   PATT
  POIN2 Label_013AE0AC
//  #01 //140   ----------------------------------------
 BYTE   PATT
  POIN2 Label_013AE0BA
//  #01 //141   ----------------------------------------
 BYTE   PATT
  POIN2 Label_013AE0C4
//  #01 //142   ----------------------------------------
 BYTE   PATT
  POIN2 Label_013AE0D1
//  #01 //143   ----------------------------------------
 BYTE   PATT
  POIN2 Label_013AE0DF
//  #01 //144   ----------------------------------------
 BYTE   N16  Gs1  v076
 BYTE   W96
//  #01 //145   ----------------------------------------
 BYTE   W48
 BYTE   N68  Fn1  v064
 BYTE   W48
//  #01 //146   ----------------------------------------
 BYTE   W24
 BYTE   As1
 BYTE   W72
//  #01 //147   ----------------------------------------
 BYTE   PATT
  POIN2 Label_013ADF83
//  #01 //148   ----------------------------------------
 BYTE   PATT
  POIN2 Label_013ADF90
//  #01 //149   ----------------------------------------
 BYTE   PATT
  POIN2 Label_013ADF9E
//  #01 //150   ----------------------------------------
Label_013AE367:
 BYTE   N23  Cn2  v096
 BYTE   W24
 BYTE   As1
 BYTE   W24
 BYTE   Cn2
 BYTE   W24
 BYTE   Fn2
 BYTE   W24
 BYTE   PEND 
//  #01 //151   ----------------------------------------
Label_013AE372:
 BYTE   N23  Gs2  v096
 BYTE   W24
 BYTE   Cs3
 BYTE   W24
 BYTE   Ds3
 BYTE   W24
 BYTE   N23
 BYTE   W24
 BYTE   PEND 
//  #01 //152   ----------------------------------------
Label_013AE37D:
 BYTE   N23  As2  v096
 BYTE   W24
 BYTE   Gn2
 BYTE   W24
 BYTE   Ds2
 BYTE   W24
 BYTE   Gn2
 BYTE   W24
 BYTE   PEND 
//  #01 //153   ----------------------------------------
Label_013AE388:
 BYTE   N23  Gs1  v096
 BYTE   W24
 BYTE   As1
 BYTE   W24
 BYTE   Cn2
 BYTE   W24
 BYTE   Gn2
 BYTE   W24
 BYTE   PEND 
//  #01 //154   ----------------------------------------
Label_013AE393:
 BYTE   N23  Ds2  v096
 BYTE   W24
 BYTE   As1
 BYTE   W24
 BYTE   Gn2
 BYTE   W24
 BYTE   Ds2
 BYTE   W24
 BYTE   PEND 
//  #01 //155   ----------------------------------------
Label_013AE39E:
 BYTE   N23  Gn2  v096
 BYTE   W24
 BYTE   Ds2
 BYTE   W24
 BYTE   Gs1
 BYTE   W24
 BYTE   Ds2
 BYTE   W24
 BYTE   PEND 
//  #01 //156   ----------------------------------------
Label_013AE3A9:
 BYTE   N23  Ds2  v096
 BYTE   W24
 BYTE   Cn2
 BYTE   W24
 BYTE   Dn2
 BYTE   W24
 BYTE   Gn2
 BYTE   W24
 BYTE   PEND 
//  #01 //157   ----------------------------------------
Label_013AE3B4:
 BYTE   N23  Fn2  v096
 BYTE   W24
 BYTE   Ds2
 BYTE   W24
 BYTE   Fn2
 BYTE   W24
 BYTE   N23
 BYTE   W24
 BYTE   PEND 
//  #01 //158   ----------------------------------------
Label_013AE3BF:
 BYTE   N23  Dn2  v096
 BYTE   W24
 BYTE   Cn2
 BYTE   W24
 BYTE   Dn2
 BYTE   W24
 BYTE   An1
 BYTE   W24
 BYTE   PEND 
//  #01 //159   ----------------------------------------
Label_013AE3CA:
 BYTE   N23  Ds2  v127
 BYTE   W24
 BYTE   Fn2  v096
 BYTE   W24
 BYTE   Gn2
 BYTE   W24
 BYTE   Dn2  v127
 BYTE   W24
 BYTE   PEND 
//  #01 //160   ----------------------------------------
Label_013AE3D7:
 BYTE   N23  Ds2  v096
 BYTE   W24
 BYTE   Fn2
 BYTE   W24
 BYTE   Cn2  v127
 BYTE   W24
 BYTE   Dn2  v096
 BYTE   W24
 BYTE   PEND 
//  #01 //161   ----------------------------------------
Label_013AE3E4:
 BYTE   N23  Ds2  v096
 BYTE   W24
 BYTE   As1  v127
 BYTE   W24
 BYTE   Gn1  v096
 BYTE   W24
 BYTE   As1
 BYTE   W24
 BYTE   PEND 
//  #01 //162   ----------------------------------------
 BYTE   PATT
  POIN2 Label_013ADF83
//  #01 //163   ----------------------------------------
 BYTE   PATT
  POIN2 Label_013ADF90
//  #01 //164   ----------------------------------------
 BYTE   PATT
  POIN2 Label_013ADF9E
//  #01 //165   ----------------------------------------
 BYTE   PATT
  POIN2 Label_013ADF83
//  #01 //166   ----------------------------------------
 BYTE   PATT
  POIN2 Label_013ADF90
//  #01 //167   ----------------------------------------
 BYTE   PATT
  POIN2 Label_013ADF9E
//  #01 //168   ----------------------------------------
 BYTE   PATT
  POIN2 Label_013ADF83
//  #01 //169   ----------------------------------------
 BYTE   PATT
  POIN2 Label_013ADFBC
//  #01 //170   ----------------------------------------
 BYTE   PATT
  POIN2 Label_013ADFC7
//  #01 //171   ----------------------------------------
 BYTE   PATT
  POIN2 Label_013ADFD2
//  #01 //172   ----------------------------------------
 BYTE   PATT
  POIN2 Label_013ADFDF
//  #01 //173   ----------------------------------------
 BYTE   PATT
  POIN2 Label_013ADFED
//  #01 //174   ----------------------------------------
 BYTE   PATT
  POIN2 Label_013ADFD2
//  #01 //175   ----------------------------------------
 BYTE   PATT
  POIN2 Label_013ADFDF
//  #01 //176   ----------------------------------------
 BYTE   PATT
  POIN2 Label_013ADFED
//  #01 //177   ----------------------------------------
 BYTE   PATT
  POIN2 Label_013ADFD2
//  #01 //178   ----------------------------------------
 BYTE   PATT
  POIN2 Label_013ADFDF
//  #01 //179   ----------------------------------------
 BYTE   PATT
  POIN2 Label_013ADFED
//  #01 //180   ----------------------------------------
 BYTE   PATT
  POIN2 Label_013ADFD2
//  #01 //181   ----------------------------------------
 BYTE   PATT
  POIN2 Label_013AE01A
//  #01 //182   ----------------------------------------
 BYTE   PATT
  POIN2 Label_013AE028
//  #01 //183   ----------------------------------------
 BYTE   PATT
  POIN2 Label_013ADF83
//  #01 //184   ----------------------------------------
 BYTE   PATT
  POIN2 Label_013ADF90
//  #01 //185   ----------------------------------------
 BYTE   PATT
  POIN2 Label_013ADF9E
//  #01 //186   ----------------------------------------
 BYTE   PATT
  POIN2 Label_013ADF83
//  #01 //187   ----------------------------------------
 BYTE   PATT
  POIN2 Label_013ADF90
//  #01 //188   ----------------------------------------
 BYTE   PATT
  POIN2 Label_013ADF9E
//  #01 //189   ----------------------------------------
 BYTE   PATT
  POIN2 Label_013ADF83
//  #01 //190   ----------------------------------------
 BYTE   PATT
  POIN2 Label_013ADF90
//  #01 //191   ----------------------------------------
 BYTE   PATT
  POIN2 Label_013ADF9E
//  #01 //192   ----------------------------------------
 BYTE   PATT
  POIN2 Label_013ADF83
//  #01 //193   ----------------------------------------
 BYTE   PATT
  POIN2 Label_013AE064
//  #01 //194   ----------------------------------------
 BYTE   PATT
  POIN2 Label_013AE072
//  #01 //195   ----------------------------------------
 BYTE   PATT
  POIN2 Label_013AE07C
//  #01 //196   ----------------------------------------
 BYTE   PATT
  POIN2 Label_013AE087
//  #01 //197   ----------------------------------------
 BYTE   PATT
  POIN2 Label_013AE092
//  #01 //198   ----------------------------------------
 BYTE   PATT
  POIN2 Label_013AE09F
//  #01 //199   ----------------------------------------
 BYTE   PATT
  POIN2 Label_013AE0AC
//  #01 //200   ----------------------------------------
 BYTE   PATT
  POIN2 Label_013AE0BA
//  #01 //201   ----------------------------------------
 BYTE   PATT
  POIN2 Label_013AE0C4
//  #01 //202   ----------------------------------------
 BYTE   PATT
  POIN2 Label_013AE0D1
//  #01 //203   ----------------------------------------
 BYTE   PATT
  POIN2 Label_013AE0DF
//  #01 //204   ----------------------------------------
 BYTE   N16  Gs1  v076
 BYTE   W96
//  #01 //205   ----------------------------------------
 BYTE   W48
 BYTE   N68  Fn1  v064
 BYTE   W48
//  #01 //206   ----------------------------------------
 BYTE   W24
 BYTE   As1
 BYTE   W72
//  #01 //207   ----------------------------------------
 BYTE   PATT
  POIN2 Label_013ADF83
//  #01 //208   ----------------------------------------
 BYTE   PATT
  POIN2 Label_013ADF90
//  #01 //209   ----------------------------------------
 BYTE   PATT
  POIN2 Label_013ADF9E
//  #01 //210   ----------------------------------------
 BYTE   PATT
  POIN2 Label_013AE367
//  #01 //211   ----------------------------------------
 BYTE   PATT
  POIN2 Label_013AE372
//  #01 //212   ----------------------------------------
 BYTE   PATT
  POIN2 Label_013AE37D
//  #01 //213   ----------------------------------------
 BYTE   PATT
  POIN2 Label_013AE388
//  #01 //214   ----------------------------------------
 BYTE   PATT
  POIN2 Label_013AE393
//  #01 //215   ----------------------------------------
 BYTE   PATT
  POIN2 Label_013AE39E
//  #01 //216   ----------------------------------------
 BYTE   PATT
  POIN2 Label_013AE3A9
//  #01 //217   ----------------------------------------
 BYTE   PATT
  POIN2 Label_013AE3B4
//  #01 //218   ----------------------------------------
 BYTE   PATT
  POIN2 Label_013AE3BF
//  #01 //219   ----------------------------------------
 BYTE   PATT
  POIN2 Label_013AE3CA
//  #01 //220   ----------------------------------------
 BYTE   PATT
  POIN2 Label_013AE3D7
//  #01 //221   ----------------------------------------
 BYTE   PATT
  POIN2 Label_013AE3E4
//  #01 //222   ----------------------------------------
Label_013AE51A:
 BYTE   N36  Ds2  v096
 BYTE   W36
 BYTE   W02
 BYTE   N32  As1
 BYTE   W32
 BYTE   W02
 BYTE   N23  Gn2
 BYTE   W24
 BYTE   PEND 
//  #01 //223   ----------------------------------------
Label_013AE527:
 BYTE   N23  Dn2  v096
 BYTE   W24
 BYTE   Gn2
 BYTE   W24
 BYTE   N36  Ds2
 BYTE   W36
 BYTE   W02
 BYTE   N32  As1
 BYTE   W10
 BYTE   PEND 
//  #01 //224   ----------------------------------------
Label_013AE535:
 BYTE   W24
 BYTE   N23  Gn2  v096
 BYTE   W24
 BYTE   Dn2
 BYTE   W24
 BYTE   Gn2
 BYTE   W24
 BYTE   PEND 
//  #01 //225   ----------------------------------------
 BYTE   PATT
  POIN2 Label_013AE51A
//  #01 //226   ----------------------------------------
 BYTE   PATT
  POIN2 Label_013AE527
//  #01 //227   ----------------------------------------
 BYTE   PATT
  POIN2 Label_013AE535
//  #01 //228   ----------------------------------------
 BYTE   PATT
  POIN2 Label_013AE51A
//  #01 //229   ----------------------------------------
 BYTE   N23  Dn2  v096
 BYTE   W24
 BYTE   Gn2
 BYTE   W24
 BYTE   Ds2
 BYTE   W24
 BYTE   Dn2
 BYTE   W24
//  #01 //230   ----------------------------------------
 BYTE   Cn2
 BYTE   W24
 BYTE   As1
 BYTE   W24
 BYTE   Cn2
 BYTE   W24
 BYTE   Dn2
 BYTE   W24
//  #01 //231   ----------------------------------------
Label_013AE565:
 BYTE   N36  Fn2  v096
 BYTE   W36
 BYTE   W02
 BYTE   N32  Cn2
 BYTE   W32
 BYTE   W02
 BYTE   N23  Gs1
 BYTE   W24
 BYTE   PEND 
//  #01 //232   ----------------------------------------
Label_013AE572:
 BYTE   N23  Gn1  v096
 BYTE   W24
 BYTE   Gs1
 BYTE   W24
 BYTE   N36  Fn2
 BYTE   W36
 BYTE   W02
 BYTE   N32  Cn2
 BYTE   W10
 BYTE   PEND 
//  #01 //233   ----------------------------------------
Label_013AE580:
 BYTE   W24
 BYTE   N23  Gs1  v096
 BYTE   W24
 BYTE   Gn1
 BYTE   W24
 BYTE   Gs1
 BYTE   W24
 BYTE   PEND 
//  #01 //234   ----------------------------------------
 BYTE   PATT
  POIN2 Label_013AE565
//  #01 //235   ----------------------------------------
 BYTE   PATT
  POIN2 Label_013AE572
//  #01 //236   ----------------------------------------
 BYTE   PATT
  POIN2 Label_013AE580
//  #01 //237   ----------------------------------------
 BYTE   PATT
  POIN2 Label_013AE565
//  #01 //238   ----------------------------------------
 BYTE   PATT
  POIN2 Label_013AE572
//  #01 //239   ----------------------------------------
 BYTE   PATT
  POIN2 Label_013AE580
//  #01 //240   ----------------------------------------
 BYTE   PATT
  POIN2 Label_013AE565
//  #01 //241   ----------------------------------------
 BYTE   N23  Gn1  v096
 BYTE   W24
 BYTE   Gs1
 BYTE   W24
 BYTE   N36  Fn2
 BYTE   W36
 BYTE   W02
 BYTE   N32  As1
 BYTE   W10
//  #01 //242   ----------------------------------------
 BYTE   W24
 BYTE   N23  Gs2
 BYTE   W24
 BYTE   As2
 BYTE   W24
 BYTE   Gs2
 BYTE   W24
//  #01 //243   ----------------------------------------
 BYTE   PATT
  POIN2 Label_013AE51A
//  #01 //244   ----------------------------------------
 BYTE   PATT
  POIN2 Label_013AE527
//  #01 //245   ----------------------------------------
 BYTE   PATT
  POIN2 Label_013AE535
//  #01 //246   ----------------------------------------
 BYTE   PATT
  POIN2 Label_013AE367
//  #01 //247   ----------------------------------------
 BYTE   PATT
  POIN2 Label_013AE372
//  #01 //248   ----------------------------------------
 BYTE   PATT
  POIN2 Label_013AE37D
//  #01 //249   ----------------------------------------
 BYTE   PATT
  POIN2 Label_013AE388
//  #01 //250   ----------------------------------------
 BYTE   PATT
  POIN2 Label_013AE393
//  #01 //251   ----------------------------------------
 BYTE   PATT
  POIN2 Label_013AE39E
//  #01 //252   ----------------------------------------
 BYTE   PATT
  POIN2 Label_013AE3A9
//  #01 //253   ----------------------------------------
 BYTE   PATT
  POIN2 Label_013AE3B4
//  #01 //254   ----------------------------------------
 BYTE   PATT
  POIN2 Label_013AE3BF
//  #01 //255   ----------------------------------------
 BYTE   PATT
  POIN2 Label_013AE3CA
//  #01 //256   ----------------------------------------
 BYTE   PATT
  POIN2 Label_013AE3D7
//  #01 //257   ----------------------------------------
 BYTE   PATT
  POIN2 Label_013AE3E4
//  #01 //258   ----------------------------------------
Label_013AE60D:
 BYTE   N11  Ds2  v096
 BYTE   W36
 BYTE   W02
 BYTE   N23
 BYTE   W32
 BYTE   W02
 BYTE   N11  As1
 BYTE   W24
 BYTE   PEND 
//  #01 //259   ----------------------------------------
Label_013AE619:
 BYTE   W14
 BYTE   N23  As1  v096
 BYTE   W32
 BYTE   W02
 BYTE   N11  Ds2
 BYTE   W36
 BYTE   W02
 BYTE   N23
 BYTE   W10
 BYTE   PEND 
//  #01 //260   ----------------------------------------
Label_013AE626:
 BYTE   W24
 BYTE   N11  As1  v096
 BYTE   W36
 BYTE   W02
 BYTE   N23
 BYTE   W32
 BYTE   W02
 BYTE   PEND 
//  #01 //261   ----------------------------------------
 BYTE   PATT
  POIN2 Label_013AE60D
//  #01 //262   ----------------------------------------
 BYTE   PATT
  POIN2 Label_013AE619
//  #01 //263   ----------------------------------------
 BYTE   PATT
  POIN2 Label_013AE626
//  #01 //264   ----------------------------------------
 BYTE   PATT
  POIN2 Label_013AE60D
//  #01 //265   ----------------------------------------
 BYTE   PATT
  POIN2 Label_013AE619
//  #01 //266   ----------------------------------------
 BYTE   PATT
  POIN2 Label_013AE626
//  #01 //267   ----------------------------------------
Label_013AE64E:
 BYTE   N11  Fn2  v096
 BYTE   W36
 BYTE   W02
 BYTE   N23
 BYTE   W32
 BYTE   W02
 BYTE   N11  Cn2
 BYTE   W24
 BYTE   PEND 
//  #01 //268   ----------------------------------------
Label_013AE65A:
 BYTE   W14
 BYTE   N23  Cn2  v096
 BYTE   W32
 BYTE   W02
 BYTE   N11  Fn2
 BYTE   W36
 BYTE   W02
 BYTE   N23
 BYTE   W10
 BYTE   PEND 
//  #01 //269   ----------------------------------------
Label_013AE667:
 BYTE   W24
 BYTE   N11  Cn2  v096
 BYTE   W36
 BYTE   W02
 BYTE   N23
 BYTE   W32
 BYTE   W02
 BYTE   PEND 
//  #01 //270   ----------------------------------------
 BYTE   PATT
  POIN2 Label_013AE64E
//  #01 //271   ----------------------------------------
 BYTE   PATT
  POIN2 Label_013AE65A
//  #01 //272   ----------------------------------------
 BYTE   PATT
  POIN2 Label_013AE667
//  #01 //273   ----------------------------------------
 BYTE   PATT
  POIN2 Label_013AE64E
//  #01 //274   ----------------------------------------
 BYTE   PATT
  POIN2 Label_013AE65A
//  #01 //275   ----------------------------------------
 BYTE   PATT
  POIN2 Label_013AE667
//  #01 //276   ----------------------------------------
 BYTE   PATT
  POIN2 Label_013AE64E
//  #01 //277   ----------------------------------------
 BYTE   W14
 BYTE   N23  Cn2  v096
 BYTE   W32
 BYTE   W02
 BYTE   N11  As1
 BYTE   W36
 BYTE   W02
 BYTE   N23
 BYTE   W10
//  #01 //278   ----------------------------------------
 BYTE   W24
 BYTE   N11  Fn2
 BYTE   W36
 BYTE   W02
 BYTE   N23
 BYTE   W32
 BYTE   W02
//  #01 //279   ----------------------------------------
 BYTE   PATT
  POIN2 Label_013AE60D
//  #01 //280   ----------------------------------------
 BYTE   PATT
  POIN2 Label_013AE619
//  #01 //281   ----------------------------------------
 BYTE   PATT
  POIN2 Label_013AE626
//  #01 //282   ----------------------------------------
 BYTE   N36  Gs1  v096
 BYTE   W36
 BYTE   W02
 BYTE   N32  Ds2
 BYTE   W32
 BYTE   W02
 BYTE   N23  Gn2
 BYTE   W24
//  #01 //283   ----------------------------------------
 BYTE   Ds2
 BYTE   W24
 BYTE   Gn2
 BYTE   W24
 BYTE   N36  Gs1
 BYTE   W36
 BYTE   W02
 BYTE   N32  Ds2
 BYTE   W10
//  #01 //284   ----------------------------------------
 BYTE   W24
 BYTE   N23  Gn2
 BYTE   W24
 BYTE   Ds2
 BYTE   W24
 BYTE   Gn2
 BYTE   W24
//  #01 //285   ----------------------------------------
 BYTE   N36  Gn1
 BYTE   W36
 BYTE   W02
 BYTE   N32  Dn2
 BYTE   W32
 BYTE   W02
 BYTE   N23  Fn2
 BYTE   W24
//  #01 //286   ----------------------------------------
 BYTE   Dn2
 BYTE   W24
 BYTE   Fn2
 BYTE   W24
 BYTE   N36  Gs1
 BYTE   W36
 BYTE   W02
 BYTE   N32  En2
 BYTE   W10
//  #01 //287   ----------------------------------------
 BYTE   W24
 BYTE   N23  As2
 BYTE   W24
 BYTE   En2
 BYTE   W24
 BYTE   As2
 BYTE   W24
//  #01 //288   ----------------------------------------
 BYTE   N16  Gs1  v116
 BYTE   W96
//  #01 //289   ----------------------------------------
 BYTE   W48
 BYTE   N68  Fn1  v096
 BYTE   W48
//  #01 //290   ----------------------------------------
 BYTE   W24
 BYTE   As1
 BYTE   W72
//  #01 //291   ----------------------------------------
 BYTE   PATT
  POIN2 Label_013AE51A
//  #01 //292   ----------------------------------------
 BYTE   PATT
  POIN2 Label_013AE527
//  #01 //293   ----------------------------------------
 BYTE   W24
 BYTE   N23  Gn2  v096
 BYTE   W24
 BYTE   As1
 BYTE   W24
 BYTE   Gn2
 BYTE   W24
//  #01 //294   ----------------------------------------
 BYTE   N36  Ds2
 BYTE   W36
 BYTE   W02
 BYTE   N32  As1
 BYTE   W32
 BYTE   W02
 BYTE   N23  As2
 BYTE   W24
//  #01 //295   ----------------------------------------
 BYTE   Dn2
 BYTE   W24
 BYTE   As2
 BYTE   W24
 BYTE   N68  Ds2
 BYTE   W48
//  #01 //296   ----------------------------------------
 BYTE   W24
 BYTE   N68
 BYTE   W68
 BYTE   W03
 BYTE   GoTo
  POIN2 Label_013ADF6A
 BYTE   FINE

//**************** Track 2 (Midi-Chn.1) ****************//

KKCafe_002:
//  #02 //000   ----------------------------------------
 BYTE   KEYSH   KKCafe_key+0
Label_013AE732:
 BYTE   VOICE   67
 BYTE   VOL   78*KKCafe_mvl/mxv
 BYTE   N11  Ds2  v080
 BYTE   W36
 BYTE   W02
 BYTE   N22
 BYTE   W32
 BYTE   W02
 BYTE   N11  As1
 BYTE   W24
//  #02 //001   ----------------------------------------
Label_013AE741:
 BYTE   W14
 BYTE   N22  As1  v080
 BYTE   W32
 BYTE   W02
 BYTE   N11  Ds2
 BYTE   W36
 BYTE   W02
 BYTE   N22
 BYTE   W10
 BYTE   PEND 
//  #02 //002   ----------------------------------------
Label_013AE74E:
 BYTE   W24
 BYTE   N11  As1  v080
 BYTE   W36
 BYTE   W02
 BYTE   N22
 BYTE   W32
 BYTE   W02
 BYTE   PEND 
//  #02 //003   ----------------------------------------
 BYTE   N11  Ds2
 BYTE   W36
 BYTE   W02
 BYTE   N22
 BYTE   W32
 BYTE   W02
 BYTE   N11  As1
 BYTE   W24
//  #02 //004   ----------------------------------------
 BYTE   PATT
  POIN2 Label_013AE741
//  #02 //005   ----------------------------------------
 BYTE   PATT
  POIN2 Label_013AE74E
//  #02 //006   ----------------------------------------
Label_013AE76C:
 BYTE   N11  Ds2  v064
 BYTE   W36
 BYTE   W02
 BYTE   N22
 BYTE   W32
 BYTE   W02
 BYTE   N11  As1
 BYTE   W24
 BYTE   PEND 
//  #02 //007   ----------------------------------------
Label_013AE778:
 BYTE   W14
 BYTE   N22  As1  v064
 BYTE   W32
 BYTE   W02
 BYTE   N11  Ds2
 BYTE   W36
 BYTE   W02
 BYTE   N22
 BYTE   W10
 BYTE   PEND 
//  #02 //008   ----------------------------------------
Label_013AE785:
 BYTE   W24
 BYTE   N11  As1  v064
 BYTE   W36
 BYTE   W02
 BYTE   N22
 BYTE   W32
 BYTE   W02
 BYTE   PEND 
//  #02 //009   ----------------------------------------
 BYTE   PATT
  POIN2 Label_013AE76C
//  #02 //010   ----------------------------------------
 BYTE   PATT
  POIN2 Label_013AE778
//  #02 //011   ----------------------------------------
 BYTE   PATT
  POIN2 Label_013AE785
//  #02 //012   ----------------------------------------
 BYTE   PATT
  POIN2 Label_013AE76C
//  #02 //013   ----------------------------------------
 BYTE   PATT
  POIN2 Label_013AE778
//  #02 //014   ----------------------------------------
 BYTE   PATT
  POIN2 Label_013AE785
//  #02 //015   ----------------------------------------
Label_013AE7AD:
 BYTE   N11  Fn2  v064
 BYTE   W36
 BYTE   W02
 BYTE   N22
 BYTE   W32
 BYTE   W02
 BYTE   N11  Cn2
 BYTE   W24
 BYTE   PEND 
//  #02 //016   ----------------------------------------
Label_013AE7B9:
 BYTE   W14
 BYTE   N22  Cn2  v064
 BYTE   W32
 BYTE   W02
 BYTE   N11  Fn2
 BYTE   W36
 BYTE   W02
 BYTE   N22
 BYTE   W10
 BYTE   PEND 
//  #02 //017   ----------------------------------------
Label_013AE7C6:
 BYTE   W24
 BYTE   N11  Cn2  v064
 BYTE   W36
 BYTE   W02
 BYTE   N22
 BYTE   W32
 BYTE   W02
 BYTE   PEND 
//  #02 //018   ----------------------------------------
 BYTE   PATT
  POIN2 Label_013AE7AD
//  #02 //019   ----------------------------------------
 BYTE   PATT
  POIN2 Label_013AE7B9
//  #02 //020   ----------------------------------------
 BYTE   PATT
  POIN2 Label_013AE7C6
//  #02 //021   ----------------------------------------
 BYTE   PATT
  POIN2 Label_013AE7AD
//  #02 //022   ----------------------------------------
 BYTE   PATT
  POIN2 Label_013AE7B9
//  #02 //023   ----------------------------------------
 BYTE   PATT
  POIN2 Label_013AE7C6
//  #02 //024   ----------------------------------------
 BYTE   PATT
  POIN2 Label_013AE7AD
//  #02 //025   ----------------------------------------
Label_013AE7F3:
 BYTE   W14
 BYTE   N22  Cn2  v064
 BYTE   W32
 BYTE   W02
 BYTE   N11  As1
 BYTE   W36
 BYTE   W02
 BYTE   N22
 BYTE   W10
 BYTE   PEND 
//  #02 //026   ----------------------------------------
Label_013AE800:
 BYTE   W24
 BYTE   N11  Fn2  v064
 BYTE   W36
 BYTE   W02
 BYTE   N09
 BYTE   W32
 BYTE   W02
 BYTE   PEND 
//  #02 //027   ----------------------------------------
 BYTE   PATT
  POIN2 Label_013AE76C
//  #02 //028   ----------------------------------------
 BYTE   PATT
  POIN2 Label_013AE778
//  #02 //029   ----------------------------------------
 BYTE   PATT
  POIN2 Label_013AE785
//  #02 //030   ----------------------------------------
 BYTE   PATT
  POIN2 Label_013AE76C
//  #02 //031   ----------------------------------------
 BYTE   PATT
  POIN2 Label_013AE778
//  #02 //032   ----------------------------------------
 BYTE   PATT
  POIN2 Label_013AE785
//  #02 //033   ----------------------------------------
 BYTE   PATT
  POIN2 Label_013AE76C
//  #02 //034   ----------------------------------------
 BYTE   PATT
  POIN2 Label_013AE778
//  #02 //035   ----------------------------------------
 BYTE   PATT
  POIN2 Label_013AE785
//  #02 //036   ----------------------------------------
 BYTE   PATT
  POIN2 Label_013AE76C
//  #02 //037   ----------------------------------------
Label_013AE83C:
 BYTE   W14
 BYTE   N22  As1  v064
 BYTE   W32
 BYTE   W02
 BYTE   N11  Cn2
 BYTE   W36
 BYTE   W02
 BYTE   N22
 BYTE   W10
 BYTE   PEND 
//  #02 //038   ----------------------------------------
 BYTE   PATT
  POIN2 Label_013AE7C6
//  #02 //039   ----------------------------------------
 BYTE   PATT
  POIN2 Label_013AE7AD
//  #02 //040   ----------------------------------------
 BYTE   PATT
  POIN2 Label_013AE7B9
//  #02 //041   ----------------------------------------
 BYTE   PATT
  POIN2 Label_013AE7C6
//  #02 //042   ----------------------------------------
Label_013AE85D:
 BYTE   N11  Gs1  v064
 BYTE   W36
 BYTE   W02
 BYTE   N22
 BYTE   W32
 BYTE   W02
 BYTE   N11  Ds2
 BYTE   W24
 BYTE   PEND 
//  #02 //043   ----------------------------------------
Label_013AE869:
 BYTE   W14
 BYTE   N09  Ds2  v064
 BYTE   W32
 BYTE   W02
 BYTE   N11  Gs1
 BYTE   W36
 BYTE   W02
 BYTE   N22
 BYTE   W10
 BYTE   PEND 
//  #02 //044   ----------------------------------------
Label_013AE876:
 BYTE   W24
 BYTE   N11  Ds2  v064
 BYTE   W36
 BYTE   W02
 BYTE   N09
 BYTE   W32
 BYTE   W02
 BYTE   PEND 
//  #02 //045   ----------------------------------------
Label_013AE880:
 BYTE   N11  Gn1  v064
 BYTE   W36
 BYTE   W02
 BYTE   N22
 BYTE   W32
 BYTE   W02
 BYTE   N11  Dn2
 BYTE   W24
 BYTE   PEND 
//  #02 //046   ----------------------------------------
Label_013AE88C:
 BYTE   W14
 BYTE   N22  Dn2  v064
 BYTE   W32
 BYTE   W02
 BYTE   N11  Cn2
 BYTE   W36
 BYTE   W02
 BYTE   N22
 BYTE   W10
 BYTE   PEND 
//  #02 //047   ----------------------------------------
 BYTE   PATT
  POIN2 Label_013AE7C6
//  #02 //048   ----------------------------------------
 BYTE   N16  Gs1  v076
 BYTE   W96
//  #02 //049   ----------------------------------------
 BYTE   W48
 BYTE   N68  Fn1  v064
 BYTE   W48
//  #02 //050   ----------------------------------------
 BYTE   W24
 BYTE   As0
 BYTE   W72
//  #02 //051   ----------------------------------------
 BYTE   PATT
  POIN2 Label_013AE76C
//  #02 //052   ----------------------------------------
 BYTE   PATT
  POIN2 Label_013AE778
//  #02 //053   ----------------------------------------
 BYTE   PATT
  POIN2 Label_013AE785
//  #02 //054   ----------------------------------------
Label_013AE8B9:
 BYTE   N11  As1  v064
 BYTE   W36
 BYTE   W02
 BYTE   N22
 BYTE   W32
 BYTE   W02
 BYTE   N11  Fn2
 BYTE   W24
 BYTE   PEND 
//  #02 //055   ----------------------------------------
Label_013AE8C5:
 BYTE   W14
 BYTE   N09  Fn2  v064
 BYTE   W32
 BYTE   W02
 BYTE   N11  Ds2
 BYTE   W36
 BYTE   W02
 BYTE   N09
 BYTE   W10
 BYTE   PEND 
//  #02 //056   ----------------------------------------
 BYTE   PATT
  POIN2 Label_013AE785
//  #02 //057   ----------------------------------------
 BYTE   PATT
  POIN2 Label_013AE85D
//  #02 //058   ----------------------------------------
 BYTE   PATT
  POIN2 Label_013AE869
//  #02 //059   ----------------------------------------
Label_013AE8E1:
 BYTE   W24
 BYTE   N11  Ds1  v064
 BYTE   W36
 BYTE   W02
 BYTE   N22
 BYTE   W32
 BYTE   W02
 BYTE   PEND 
//  #02 //060   ----------------------------------------
Label_013AE8EB:
 BYTE   N11  Cn2  v064
 BYTE   W36
 BYTE   W02
 BYTE   N22
 BYTE   W32
 BYTE   W02
 BYTE   N11  Gn2
 BYTE   W24
 BYTE   PEND 
//  #02 //061   ----------------------------------------
Label_013AE8F7:
 BYTE   W14
 BYTE   N09  Gn2  v064
 BYTE   W32
 BYTE   W02
 BYTE   N11  Fn2
 BYTE   W36
 BYTE   W02
 BYTE   N22
 BYTE   W10
 BYTE   PEND 
//  #02 //062   ----------------------------------------
 BYTE   PATT
  POIN2 Label_013AE7C6
//  #02 //063   ----------------------------------------
 BYTE   PATT
  POIN2 Label_013AE7AD
//  #02 //064   ----------------------------------------
 BYTE   PATT
  POIN2 Label_013AE7F3
//  #02 //065   ----------------------------------------
 BYTE   PATT
  POIN2 Label_013AE800
//  #02 //066   ----------------------------------------
Label_013AE918:
 BYTE   W14
 BYTE   N09  Gn2  v064
 BYTE   N09  As2
 BYTE   N09  Dn3
 BYTE   W32
 BYTE   W02
 BYTE   N22  Gn2
 BYTE   N22  As2
 BYTE   N22  Dn3
 BYTE   W36
 BYTE   W02
 BYTE   N09  Gn2
 BYTE   N09  As2
 BYTE   N09  Dn3
 BYTE   W10
 BYTE   PEND 
//  #02 //067   ----------------------------------------
Label_013AE932:
 BYTE   W24
 BYTE   N22  Gn2  v064
 BYTE   N22  As2
 BYTE   N22  Dn3
 BYTE   W36
 BYTE   W02
 BYTE   N09  Gn2
 BYTE   N09  As2
 BYTE   N09  Dn3
 BYTE   W32
 BYTE   W02
 BYTE   PEND 
//  #02 //068   ----------------------------------------
Label_013AE945:
 BYTE   N22  Gn2  v064
 BYTE   N22  As2
 BYTE   N22  Dn3
 BYTE   W36
 BYTE   W02
 BYTE   N09  Gn2
 BYTE   N09  As2
 BYTE   N09  Dn3
 BYTE   W32
 BYTE   W02
 BYTE   N22  Gn2
 BYTE   N22  As2
 BYTE   N22  Dn3
 BYTE   W24
 BYTE   PEND 
//  #02 //069   ----------------------------------------
 BYTE   PATT
  POIN2 Label_013AE918
//  #02 //070   ----------------------------------------
 BYTE   PATT
  POIN2 Label_013AE932
//  #02 //071   ----------------------------------------
 BYTE   PATT
  POIN2 Label_013AE945
//  #02 //072   ----------------------------------------
 BYTE   PATT
  POIN2 Label_013AE918
//  #02 //073   ----------------------------------------
 BYTE   PATT
  POIN2 Label_013AE932
//  #02 //074   ----------------------------------------
 BYTE   PATT
  POIN2 Label_013AE945
//  #02 //075   ----------------------------------------
Label_013AE97C:
 BYTE   W14
 BYTE   N09  Gs2  v064
 BYTE   N09  Cn3
 BYTE   N09  Ds3
 BYTE   W32
 BYTE   W02
 BYTE   N22  Gs2
 BYTE   N22  Cn3
 BYTE   N22  Ds3
 BYTE   W36
 BYTE   W02
 BYTE   N09  Gs2
 BYTE   N09  Cn3
 BYTE   N09  Ds3
 BYTE   W10
 BYTE   PEND 
//  #02 //076   ----------------------------------------
Label_013AE996:
 BYTE   W24
 BYTE   N22  Gs2  v064
 BYTE   N22  Cn3
 BYTE   N22  Ds3
 BYTE   W36
 BYTE   W02
 BYTE   N09  Gs2
 BYTE   N09  Cn3
 BYTE   N09  Ds3
 BYTE   W32
 BYTE   W02
 BYTE   PEND 
//  #02 //077   ----------------------------------------
Label_013AE9A9:
 BYTE   N22  Gs2  v064
 BYTE   N22  Cn3
 BYTE   N22  Ds3
 BYTE   W36
 BYTE   W02
 BYTE   N09  Gs2
 BYTE   N09  Cn3
 BYTE   N09  Ds3
 BYTE   W32
 BYTE   W02
 BYTE   N13  Gs2
 BYTE   N13  Cn3
 BYTE   N13  Ds3
 BYTE   W24
 BYTE   PEND 
//  #02 //078   ----------------------------------------
 BYTE   PATT
  POIN2 Label_013AE97C
//  #02 //079   ----------------------------------------
 BYTE   PATT
  POIN2 Label_013AE996
//  #02 //080   ----------------------------------------
Label_013AE9CC:
 BYTE   N22  Gs2  v064
 BYTE   N22  Cn3
 BYTE   N22  Ds3
 BYTE   W36
 BYTE   W02
 BYTE   N09  Gs2
 BYTE   N09  Cn3
 BYTE   N09  Ds3
 BYTE   W32
 BYTE   W02
 BYTE   N22  Gs2
 BYTE   N22  Cn3
 BYTE   N22  Ds3
 BYTE   W24
 BYTE   PEND 
//  #02 //081   ----------------------------------------
 BYTE   PATT
  POIN2 Label_013AE97C
//  #02 //082   ----------------------------------------
 BYTE   PATT
  POIN2 Label_013AE996
//  #02 //083   ----------------------------------------
 BYTE   PATT
  POIN2 Label_013AE9CC
//  #02 //084   ----------------------------------------
 BYTE   PATT
  POIN2 Label_013AE97C
//  #02 //085   ----------------------------------------
Label_013AE9F9:
 BYTE   W24
 BYTE   N22  Gs2  v064
 BYTE   N22  Cn3
 BYTE   N22  Ds3
 BYTE   W36
 BYTE   W02
 BYTE   N09  Fn2
 BYTE   N09  Gs2
 BYTE   N09  Dn3
 BYTE   W32
 BYTE   W02
 BYTE   PEND 
//  #02 //086   ----------------------------------------
Label_013AEA0C:
 BYTE   N22  Fn2  v064
 BYTE   N22  Gs2
 BYTE   N22  Dn3
 BYTE   W36
 BYTE   W02
 BYTE   N09  Fn2
 BYTE   N09  Gs2
 BYTE   N09  Dn3
 BYTE   W32
 BYTE   W02
 BYTE   N22  Fn2
 BYTE   N22  Gs2
 BYTE   N22  Dn3
 BYTE   W24
 BYTE   PEND 
//  #02 //087   ----------------------------------------
 BYTE   PATT
  POIN2 Label_013AE918
//  #02 //088   ----------------------------------------
 BYTE   PATT
  POIN2 Label_013AE932
//  #02 //089   ----------------------------------------
 BYTE   PATT
  POIN2 Label_013AE945
//  #02 //090   ----------------------------------------
 BYTE   W14
 BYTE   N09  Fn2  v064
 BYTE   N09  Gs2
 BYTE   N09  Cs3
 BYTE   W32
 BYTE   W02
 BYTE   N22  Fn2
 BYTE   N22  Gs2
 BYTE   N22  Cs3
 BYTE   W36
 BYTE   W02
 BYTE   N09  Fn2
 BYTE   N09  Gs2
 BYTE   N09  Cs3
 BYTE   W10
//  #02 //091   ----------------------------------------
 BYTE   W24
 BYTE   N22  Fn2
 BYTE   N22  Gs2
 BYTE   N22  Cs3
 BYTE   W36
 BYTE   W02
 BYTE   N09  Ds2
 BYTE   N09  Gn2
 BYTE   N09  Cs3
 BYTE   W32
 BYTE   W02
//  #02 //092   ----------------------------------------
 BYTE   N22  Ds2
 BYTE   N22  Gn2
 BYTE   N22  Cs3
 BYTE   W36
 BYTE   W02
 BYTE   N09  Ds2
 BYTE   N09  Gn2
 BYTE   N09  Cs3
 BYTE   W32
 BYTE   W02
 BYTE   N22  Ds2
 BYTE   N22  Gn2
 BYTE   N22  Cs3
 BYTE   W24
//  #02 //093   ----------------------------------------
 BYTE   W14
 BYTE   N09  Ds2
 BYTE   N09  Gn2
 BYTE   N09  Cn3
 BYTE   W32
 BYTE   W02
 BYTE   N22  Ds2
 BYTE   N22  Gn2
 BYTE   N22  Cn3
 BYTE   W36
 BYTE   W02
 BYTE   N09  Ds2
 BYTE   N09  Gn2
 BYTE   N09  Cn3
 BYTE   W10
//  #02 //094   ----------------------------------------
 BYTE   W24
 BYTE   N22  Ds2
 BYTE   N22  Gn2
 BYTE   N22  Cn3
 BYTE   W36
 BYTE   W02
 BYTE   N09  Ds2
 BYTE   N09  Gn2
 BYTE   N09  Cn3
 BYTE   W32
 BYTE   W02
//  #02 //095   ----------------------------------------
 BYTE   N22  Ds2
 BYTE   N22  Gn2
 BYTE   N22  Cn3
 BYTE   W36
 BYTE   W02
 BYTE   N09  Ds2
 BYTE   N09  Gn2
 BYTE   N09  Cn3
 BYTE   W32
 BYTE   W02
 BYTE   N22  Ds2
 BYTE   N22  Gn2
 BYTE   N22  Cn3
 BYTE   W24
//  #02 //096   ----------------------------------------
 BYTE   W14
 BYTE   N09  Gn2
 BYTE   N09  As2
 BYTE   N09  Ds3
 BYTE   W32
 BYTE   W02
 BYTE   N22  Gn2
 BYTE   N22  As2
 BYTE   N22  Ds3
 BYTE   W36
 BYTE   W02
 BYTE   N09  Gn2
 BYTE   N09  As2
 BYTE   N09  Ds3
 BYTE   W10
//  #02 //097   ----------------------------------------
 BYTE   W24
 BYTE   N22  Gn2
 BYTE   N22  As2
 BYTE   N22  Ds3
 BYTE   W36
 BYTE   W02
 BYTE   N09  An2
 BYTE   N09  Cn3
 BYTE   N09  Ds3
 BYTE   W32
 BYTE   W02
//  #02 //098   ----------------------------------------
 BYTE   N22  An2
 BYTE   N22  Cn3
 BYTE   N22  Ds3
 BYTE   W36
 BYTE   W02
 BYTE   N09  An2
 BYTE   N09  Cn3
 BYTE   N09  Ds3
 BYTE   W32
 BYTE   W02
 BYTE   N22  An2
 BYTE   N22  Cn3
 BYTE   N22  Ds3
 BYTE   W24
//  #02 //099   ----------------------------------------
 BYTE   PATT
  POIN2 Label_013AE97C
//  #02 //100   ----------------------------------------
 BYTE   W24
 BYTE   N22  Gs2  v064
 BYTE   N22  Cn3
 BYTE   N22  Ds3
 BYTE   W36
 BYTE   W02
 BYTE   N09  Fn2
 BYTE   N09  Gs2
 BYTE   N09  Cn3
 BYTE   W32
 BYTE   W02
//  #02 //101   ----------------------------------------
 BYTE   N22  Fn2
 BYTE   N22  Gs2
 BYTE   N22  Cn3
 BYTE   W36
 BYTE   W02
 BYTE   N09  Fn2
 BYTE   N09  Gs2
 BYTE   N09  Cn3
 BYTE   W32
 BYTE   W02
 BYTE   N22  Fn2
 BYTE   N22  Gs2
 BYTE   N22  Cn3
 BYTE   W24
//  #02 //102   ----------------------------------------
 BYTE   PATT
  POIN2 Label_013AE76C
//  #02 //103   ----------------------------------------
 BYTE   PATT
  POIN2 Label_013AE778
//  #02 //104   ----------------------------------------
 BYTE   PATT
  POIN2 Label_013AE785
//  #02 //105   ----------------------------------------
 BYTE   PATT
  POIN2 Label_013AE76C
//  #02 //106   ----------------------------------------
 BYTE   PATT
  POIN2 Label_013AE778
//  #02 //107   ----------------------------------------
 BYTE   PATT
  POIN2 Label_013AE785
//  #02 //108   ----------------------------------------
 BYTE   PATT
  POIN2 Label_013AE76C
//  #02 //109   ----------------------------------------
 BYTE   PATT
  POIN2 Label_013AE778
//  #02 //110   ----------------------------------------
 BYTE   PATT
  POIN2 Label_013AE785
//  #02 //111   ----------------------------------------
 BYTE   PATT
  POIN2 Label_013AE7AD
//  #02 //112   ----------------------------------------
 BYTE   PATT
  POIN2 Label_013AE7B9
//  #02 //113   ----------------------------------------
 BYTE   PATT
  POIN2 Label_013AE7C6
//  #02 //114   ----------------------------------------
 BYTE   PATT
  POIN2 Label_013AE7AD
//  #02 //115   ----------------------------------------
 BYTE   PATT
  POIN2 Label_013AE7B9
//  #02 //116   ----------------------------------------
 BYTE   PATT
  POIN2 Label_013AE7C6
//  #02 //117   ----------------------------------------
 BYTE   PATT
  POIN2 Label_013AE7AD
//  #02 //118   ----------------------------------------
 BYTE   PATT
  POIN2 Label_013AE7B9
//  #02 //119   ----------------------------------------
 BYTE   PATT
  POIN2 Label_013AE7C6
//  #02 //120   ----------------------------------------
 BYTE   PATT
  POIN2 Label_013AE7AD
//  #02 //121   ----------------------------------------
 BYTE   PATT
  POIN2 Label_013AE7F3
//  #02 //122   ----------------------------------------
 BYTE   PATT
  POIN2 Label_013AE800
//  #02 //123   ----------------------------------------
 BYTE   PATT
  POIN2 Label_013AE76C
//  #02 //124   ----------------------------------------
 BYTE   PATT
  POIN2 Label_013AE778
//  #02 //125   ----------------------------------------
 BYTE   PATT
  POIN2 Label_013AE785
//  #02 //126   ----------------------------------------
 BYTE   PATT
  POIN2 Label_013AE76C
//  #02 //127   ----------------------------------------
 BYTE   PATT
  POIN2 Label_013AE778
//  #02 //128   ----------------------------------------
 BYTE   PATT
  POIN2 Label_013AE785
//  #02 //129   ----------------------------------------
 BYTE   PATT
  POIN2 Label_013AE76C
//  #02 //130   ----------------------------------------
 BYTE   PATT
  POIN2 Label_013AE778
//  #02 //131   ----------------------------------------
 BYTE   PATT
  POIN2 Label_013AE785
//  #02 //132   ----------------------------------------
 BYTE   PATT
  POIN2 Label_013AE76C
//  #02 //133   ----------------------------------------
 BYTE   PATT
  POIN2 Label_013AE83C
//  #02 //134   ----------------------------------------
 BYTE   PATT
  POIN2 Label_013AE7C6
//  #02 //135   ----------------------------------------
 BYTE   PATT
  POIN2 Label_013AE7AD
//  #02 //136   ----------------------------------------
 BYTE   PATT
  POIN2 Label_013AE7B9
//  #02 //137   ----------------------------------------
 BYTE   PATT
  POIN2 Label_013AE7C6
//  #02 //138   ----------------------------------------
 BYTE   PATT
  POIN2 Label_013AE85D
//  #02 //139   ----------------------------------------
 BYTE   PATT
  POIN2 Label_013AE869
//  #02 //140   ----------------------------------------
 BYTE   PATT
  POIN2 Label_013AE876
//  #02 //141   ----------------------------------------
 BYTE   PATT
  POIN2 Label_013AE880
//  #02 //142   ----------------------------------------
 BYTE   PATT
  POIN2 Label_013AE88C
//  #02 //143   ----------------------------------------
 BYTE   PATT
  POIN2 Label_013AE7C6
//  #02 //144   ----------------------------------------
 BYTE   N16  Gs1  v076
 BYTE   W96
//  #02 //145   ----------------------------------------
 BYTE   W48
 BYTE   N68  Fn1  v064
 BYTE   W48
//  #02 //146   ----------------------------------------
 BYTE   W24
 BYTE   As0
 BYTE   W72
//  #02 //147   ----------------------------------------
 BYTE   PATT
  POIN2 Label_013AE76C
//  #02 //148   ----------------------------------------
 BYTE   PATT
  POIN2 Label_013AE778
//  #02 //149   ----------------------------------------
 BYTE   PATT
  POIN2 Label_013AE785
//  #02 //150   ----------------------------------------
 BYTE   PATT
  POIN2 Label_013AE8B9
//  #02 //151   ----------------------------------------
 BYTE   PATT
  POIN2 Label_013AE8C5
//  #02 //152   ----------------------------------------
 BYTE   PATT
  POIN2 Label_013AE785
//  #02 //153   ----------------------------------------
 BYTE   PATT
  POIN2 Label_013AE85D
//  #02 //154   ----------------------------------------
 BYTE   PATT
  POIN2 Label_013AE869
//  #02 //155   ----------------------------------------
 BYTE   PATT
  POIN2 Label_013AE8E1
//  #02 //156   ----------------------------------------
 BYTE   PATT
  POIN2 Label_013AE8EB
//  #02 //157   ----------------------------------------
 BYTE   PATT
  POIN2 Label_013AE8F7
//  #02 //158   ----------------------------------------
 BYTE   PATT
  POIN2 Label_013AE7C6
//  #02 //159   ----------------------------------------
 BYTE   PATT
  POIN2 Label_013AE7AD
//  #02 //160   ----------------------------------------
 BYTE   PATT
  POIN2 Label_013AE7F3
//  #02 //161   ----------------------------------------
 BYTE   PATT
  POIN2 Label_013AE800
//  #02 //162   ----------------------------------------
 BYTE   PATT
  POIN2 Label_013AE76C
//  #02 //163   ----------------------------------------
 BYTE   PATT
  POIN2 Label_013AE778
//  #02 //164   ----------------------------------------
 BYTE   PATT
  POIN2 Label_013AE785
//  #02 //165   ----------------------------------------
 BYTE   PATT
  POIN2 Label_013AE76C
//  #02 //166   ----------------------------------------
 BYTE   PATT
  POIN2 Label_013AE778
//  #02 //167   ----------------------------------------
 BYTE   PATT
  POIN2 Label_013AE785
//  #02 //168   ----------------------------------------
 BYTE   PATT
  POIN2 Label_013AE76C
//  #02 //169   ----------------------------------------
 BYTE   PATT
  POIN2 Label_013AE778
//  #02 //170   ----------------------------------------
 BYTE   PATT
  POIN2 Label_013AE785
//  #02 //171   ----------------------------------------
 BYTE   PATT
  POIN2 Label_013AE7AD
//  #02 //172   ----------------------------------------
 BYTE   PATT
  POIN2 Label_013AE7B9
//  #02 //173   ----------------------------------------
 BYTE   PATT
  POIN2 Label_013AE7C6
//  #02 //174   ----------------------------------------
 BYTE   PATT
  POIN2 Label_013AE7AD
//  #02 //175   ----------------------------------------
 BYTE   PATT
  POIN2 Label_013AE7B9
//  #02 //176   ----------------------------------------
 BYTE   PATT
  POIN2 Label_013AE7C6
//  #02 //177   ----------------------------------------
 BYTE   PATT
  POIN2 Label_013AE7AD
//  #02 //178   ----------------------------------------
 BYTE   PATT
  POIN2 Label_013AE7B9
//  #02 //179   ----------------------------------------
 BYTE   PATT
  POIN2 Label_013AE7C6
//  #02 //180   ----------------------------------------
 BYTE   PATT
  POIN2 Label_013AE7AD
//  #02 //181   ----------------------------------------
 BYTE   PATT
  POIN2 Label_013AE7F3
//  #02 //182   ----------------------------------------
 BYTE   PATT
  POIN2 Label_013AE800
//  #02 //183   ----------------------------------------
 BYTE   PATT
  POIN2 Label_013AE76C
//  #02 //184   ----------------------------------------
 BYTE   PATT
  POIN2 Label_013AE778
//  #02 //185   ----------------------------------------
 BYTE   PATT
  POIN2 Label_013AE785
//  #02 //186   ----------------------------------------
 BYTE   PATT
  POIN2 Label_013AE76C
//  #02 //187   ----------------------------------------
 BYTE   PATT
  POIN2 Label_013AE778
//  #02 //188   ----------------------------------------
 BYTE   PATT
  POIN2 Label_013AE785
//  #02 //189   ----------------------------------------
 BYTE   PATT
  POIN2 Label_013AE76C
//  #02 //190   ----------------------------------------
 BYTE   PATT
  POIN2 Label_013AE778
//  #02 //191   ----------------------------------------
 BYTE   PATT
  POIN2 Label_013AE785
//  #02 //192   ----------------------------------------
 BYTE   PATT
  POIN2 Label_013AE76C
//  #02 //193   ----------------------------------------
 BYTE   PATT
  POIN2 Label_013AE83C
//  #02 //194   ----------------------------------------
 BYTE   PATT
  POIN2 Label_013AE7C6
//  #02 //195   ----------------------------------------
 BYTE   PATT
  POIN2 Label_013AE7AD
//  #02 //196   ----------------------------------------
 BYTE   PATT
  POIN2 Label_013AE7B9
//  #02 //197   ----------------------------------------
 BYTE   PATT
  POIN2 Label_013AE7C6
//  #02 //198   ----------------------------------------
 BYTE   PATT
  POIN2 Label_013AE85D
//  #02 //199   ----------------------------------------
 BYTE   PATT
  POIN2 Label_013AE869
//  #02 //200   ----------------------------------------
 BYTE   PATT
  POIN2 Label_013AE876
//  #02 //201   ----------------------------------------
 BYTE   PATT
  POIN2 Label_013AE880
//  #02 //202   ----------------------------------------
 BYTE   PATT
  POIN2 Label_013AE88C
//  #02 //203   ----------------------------------------
 BYTE   PATT
  POIN2 Label_013AE7C6
//  #02 //204   ----------------------------------------
 BYTE   N16  Gs1  v076
 BYTE   W96
//  #02 //205   ----------------------------------------
 BYTE   W48
 BYTE   N68  Fn1  v064
 BYTE   W48
//  #02 //206   ----------------------------------------
 BYTE   W24
 BYTE   As0
 BYTE   W72
//  #02 //207   ----------------------------------------
 BYTE   PATT
  POIN2 Label_013AE76C
//  #02 //208   ----------------------------------------
 BYTE   PATT
  POIN2 Label_013AE778
//  #02 //209   ----------------------------------------
 BYTE   PATT
  POIN2 Label_013AE785
//  #02 //210   ----------------------------------------
 BYTE   PATT
  POIN2 Label_013AE8B9
//  #02 //211   ----------------------------------------
 BYTE   PATT
  POIN2 Label_013AE8C5
//  #02 //212   ----------------------------------------
 BYTE   PATT
  POIN2 Label_013AE785
//  #02 //213   ----------------------------------------
 BYTE   PATT
  POIN2 Label_013AE85D
//  #02 //214   ----------------------------------------
 BYTE   PATT
  POIN2 Label_013AE869
//  #02 //215   ----------------------------------------
 BYTE   PATT
  POIN2 Label_013AE8E1
//  #02 //216   ----------------------------------------
 BYTE   PATT
  POIN2 Label_013AE8EB
//  #02 //217   ----------------------------------------
 BYTE   PATT
  POIN2 Label_013AE8F7
//  #02 //218   ----------------------------------------
 BYTE   PATT
  POIN2 Label_013AE7C6
//  #02 //219   ----------------------------------------
 BYTE   PATT
  POIN2 Label_013AE7AD
//  #02 //220   ----------------------------------------
 BYTE   PATT
  POIN2 Label_013AE7F3
//  #02 //221   ----------------------------------------
 BYTE   PATT
  POIN2 Label_013AE800
//  #02 //222   ----------------------------------------
 BYTE   PATT
  POIN2 Label_013AE76C
//  #02 //223   ----------------------------------------
 BYTE   PATT
  POIN2 Label_013AE778
//  #02 //224   ----------------------------------------
 BYTE   PATT
  POIN2 Label_013AE785
//  #02 //225   ----------------------------------------
 BYTE   PATT
  POIN2 Label_013AE76C
//  #02 //226   ----------------------------------------
 BYTE   PATT
  POIN2 Label_013AE778
//  #02 //227   ----------------------------------------
 BYTE   PATT
  POIN2 Label_013AE785
//  #02 //228   ----------------------------------------
 BYTE   PATT
  POIN2 Label_013AE76C
//  #02 //229   ----------------------------------------
 BYTE   PATT
  POIN2 Label_013AE778
//  #02 //230   ----------------------------------------
 BYTE   PATT
  POIN2 Label_013AE785
//  #02 //231   ----------------------------------------
 BYTE   PATT
  POIN2 Label_013AE7AD
//  #02 //232   ----------------------------------------
 BYTE   PATT
  POIN2 Label_013AE7B9
//  #02 //233   ----------------------------------------
 BYTE   PATT
  POIN2 Label_013AE7C6
//  #02 //234   ----------------------------------------
 BYTE   PATT
  POIN2 Label_013AE7AD
//  #02 //235   ----------------------------------------
 BYTE   PATT
  POIN2 Label_013AE7B9
//  #02 //236   ----------------------------------------
 BYTE   PATT
  POIN2 Label_013AE7C6
//  #02 //237   ----------------------------------------
 BYTE   PATT
  POIN2 Label_013AE7AD
//  #02 //238   ----------------------------------------
 BYTE   PATT
  POIN2 Label_013AE7B9
//  #02 //239   ----------------------------------------
 BYTE   PATT
  POIN2 Label_013AE7C6
//  #02 //240   ----------------------------------------
 BYTE   PATT
  POIN2 Label_013AE7AD
//  #02 //241   ----------------------------------------
 BYTE   PATT
  POIN2 Label_013AE7F3
//  #02 //242   ----------------------------------------
 BYTE   PATT
  POIN2 Label_013AE800
//  #02 //243   ----------------------------------------
 BYTE   PATT
  POIN2 Label_013AE76C
//  #02 //244   ----------------------------------------
 BYTE   PATT
  POIN2 Label_013AE778
//  #02 //245   ----------------------------------------
 BYTE   PATT
  POIN2 Label_013AE785
//  #02 //246   ----------------------------------------
 BYTE   PATT
  POIN2 Label_013AE8B9
//  #02 //247   ----------------------------------------
 BYTE   PATT
  POIN2 Label_013AE8C5
//  #02 //248   ----------------------------------------
 BYTE   PATT
  POIN2 Label_013AE785
//  #02 //249   ----------------------------------------
 BYTE   PATT
  POIN2 Label_013AE85D
//  #02 //250   ----------------------------------------
 BYTE   PATT
  POIN2 Label_013AE869
//  #02 //251   ----------------------------------------
 BYTE   PATT
  POIN2 Label_013AE8E1
//  #02 //252   ----------------------------------------
 BYTE   PATT
  POIN2 Label_013AE8EB
//  #02 //253   ----------------------------------------
 BYTE   PATT
  POIN2 Label_013AE8F7
//  #02 //254   ----------------------------------------
 BYTE   PATT
  POIN2 Label_013AE7C6
//  #02 //255   ----------------------------------------
 BYTE   PATT
  POIN2 Label_013AE7AD
//  #02 //256   ----------------------------------------
 BYTE   PATT
  POIN2 Label_013AE7F3
//  #02 //257   ----------------------------------------
 BYTE   PATT
  POIN2 Label_013AE800
//  #02 //258   ----------------------------------------
 BYTE   PATT
  POIN2 Label_013AE918
//  #02 //259   ----------------------------------------
 BYTE   PATT
  POIN2 Label_013AE932
//  #02 //260   ----------------------------------------
 BYTE   PATT
  POIN2 Label_013AE945
//  #02 //261   ----------------------------------------
 BYTE   PATT
  POIN2 Label_013AE918
//  #02 //262   ----------------------------------------
 BYTE   PATT
  POIN2 Label_013AE932
//  #02 //263   ----------------------------------------
 BYTE   PATT
  POIN2 Label_013AE945
//  #02 //264   ----------------------------------------
 BYTE   PATT
  POIN2 Label_013AE918
//  #02 //265   ----------------------------------------
 BYTE   PATT
  POIN2 Label_013AE932
//  #02 //266   ----------------------------------------
 BYTE   PATT
  POIN2 Label_013AE945
//  #02 //267   ----------------------------------------
 BYTE   PATT
  POIN2 Label_013AE97C
//  #02 //268   ----------------------------------------
 BYTE   PATT
  POIN2 Label_013AE996
//  #02 //269   ----------------------------------------
 BYTE   PATT
  POIN2 Label_013AE9A9
//  #02 //270   ----------------------------------------
 BYTE   PATT
  POIN2 Label_013AE97C
//  #02 //271   ----------------------------------------
 BYTE   PATT
  POIN2 Label_013AE996
//  #02 //272   ----------------------------------------
 BYTE   PATT
  POIN2 Label_013AE9CC
//  #02 //273   ----------------------------------------
 BYTE   PATT
  POIN2 Label_013AE97C
//  #02 //274   ----------------------------------------
 BYTE   PATT
  POIN2 Label_013AE996
//  #02 //275   ----------------------------------------
 BYTE   PATT
  POIN2 Label_013AE9CC
//  #02 //276   ----------------------------------------
 BYTE   PATT
  POIN2 Label_013AE97C
//  #02 //277   ----------------------------------------
 BYTE   PATT
  POIN2 Label_013AE9F9
//  #02 //278   ----------------------------------------
 BYTE   PATT
  POIN2 Label_013AEA0C
//  #02 //279   ----------------------------------------
 BYTE   PATT
  POIN2 Label_013AE918
//  #02 //280   ----------------------------------------
 BYTE   PATT
  POIN2 Label_013AE932
//  #02 //281   ----------------------------------------
 BYTE   PATT
  POIN2 Label_013AE945
//  #02 //282   ----------------------------------------
 BYTE   PATT
  POIN2 Label_013AE85D
//  #02 //283   ----------------------------------------
 BYTE   PATT
  POIN2 Label_013AE869
//  #02 //284   ----------------------------------------
 BYTE   PATT
  POIN2 Label_013AE876
//  #02 //285   ----------------------------------------
 BYTE   PATT
  POIN2 Label_013AE880
//  #02 //286   ----------------------------------------
 BYTE   PATT
  POIN2 Label_013AE88C
//  #02 //287   ----------------------------------------
 BYTE   PATT
  POIN2 Label_013AE7C6
//  #02 //288   ----------------------------------------
 BYTE   N16  Fn1  v076
 BYTE   W96
//  #02 //289   ----------------------------------------
 BYTE   W48
 BYTE   N68  Fn1  v064
 BYTE   W48
//  #02 //290   ----------------------------------------
 BYTE   W24
 BYTE   As0
 BYTE   W72
//  #02 //291   ----------------------------------------
 BYTE   PATT
  POIN2 Label_013AE76C
//  #02 //292   ----------------------------------------
 BYTE   PATT
  POIN2 Label_013AE778
//  #02 //293   ----------------------------------------
 BYTE   PATT
  POIN2 Label_013AE785
//  #02 //294   ----------------------------------------
 BYTE   PATT
  POIN2 Label_013AE76C
//  #02 //295   ----------------------------------------
 BYTE   PATT
  POIN2 Label_013AE778
//  #02 //296   ----------------------------------------
 BYTE   W24
 BYTE   N68  Ds1  v064
 BYTE   W68
 BYTE   W03
 BYTE   GoTo
  POIN2 Label_013AE732
 BYTE   FINE

//**************** Track 3 (Midi-Chn.2) ****************//

KKCafe_003:
//  #03 //000   ----------------------------------------
 BYTE   KEYSH   KKCafe_key+0
Label_013AEEF2:
 BYTE   VOICE   68
 BYTE   VOL   67*KKCafe_mvl/mxv
 BYTE   PAN   c_v+0
 BYTE   W96
//  #03 //001   ----------------------------------------
 BYTE   W96
//  #03 //002   ----------------------------------------
 BYTE   W96
//  #03 //003   ----------------------------------------
 BYTE   W96
//  #03 //004   ----------------------------------------
 BYTE   W96
//  #03 //005   ----------------------------------------
 BYTE   W96
//  #03 //006   ----------------------------------------
Label_013AEEFE:
 BYTE   N23  Ds3  v080
 BYTE   W24
 BYTE   Fn3
 BYTE   W24
 BYTE   Gn3
 BYTE   W24
 BYTE   N68  Dn3
 BYTE   W24
 BYTE   PEND 
//  #03 //007   ----------------------------------------
 BYTE   W72
 BYTE   N23
 BYTE   W24
//  #03 //008   ----------------------------------------
Label_013AEF0D:
 BYTE   N23  Ds3  v080
 BYTE   W24
 BYTE   Dn3
 BYTE   W24
 BYTE   Cn3
 BYTE   W24
 BYTE   As2
 BYTE   W24
 BYTE   PEND 
//  #03 //009   ----------------------------------------
Label_013AEF18:
 BYTE   N23  Dn3  v080
 BYTE   W24
 BYTE   Ds3
 BYTE   W24
 BYTE   Fn3
 BYTE   W24
 BYTE   N68  Cn3
 BYTE   W24
 BYTE   PEND 
//  #03 //010   ----------------------------------------
 BYTE   W72
 BYTE   N23
 BYTE   W24
//  #03 //011   ----------------------------------------
Label_013AEF27:
 BYTE   N23  Dn3  v080
 BYTE   W24
 BYTE   Cn3
 BYTE   W24
 BYTE   As2
 BYTE   W24
 BYTE   Gn2
 BYTE   W24
 BYTE   PEND 
//  #03 //012   ----------------------------------------
Label_013AEF32:
 BYTE   N23  Cn3  v080
 BYTE   W24
 BYTE   As2
 BYTE   W36
 BYTE   W02
 BYTE   N09  Gn2
 BYTE   W10
 BYTE   N68  Cn3
 BYTE   W24
 BYTE   PEND 
//  #03 //013   ----------------------------------------
 BYTE   W72
 BYTE   N23  As2
 BYTE   W24
//  #03 //014   ----------------------------------------
Label_013AEF44:
 BYTE   N23  Gn2  v080
 BYTE   W24
 BYTE   Cn3
 BYTE   W24
 BYTE   As2
 BYTE   W24
 BYTE   Gn2
 BYTE   W24
 BYTE   PEND 
//  #03 //015   ----------------------------------------
 BYTE   TIE  Gs2
 BYTE   W96
//  #03 //016   ----------------------------------------
 BYTE   W44
 BYTE   W03
 BYTE   EOT
 BYTE   W48
 BYTE   W01
//  #03 //017   ----------------------------------------
 BYTE   W96
//  #03 //018   ----------------------------------------
Label_013AEF58:
 BYTE   N23  Fn3  v080
 BYTE   W24
 BYTE   Gn3
 BYTE   W24
 BYTE   Gs3
 BYTE   W24
 BYTE   N68  Ds3
 BYTE   W24
 BYTE   PEND 
//  #03 //019   ----------------------------------------
 BYTE   W72
 BYTE   N23
 BYTE   W24
//  #03 //020   ----------------------------------------
Label_013AEF67:
 BYTE   N23  Fn3  v080
 BYTE   W24
 BYTE   Ds3
 BYTE   W24
 BYTE   Dn3
 BYTE   W24
 BYTE   Cn3
 BYTE   W24
 BYTE   PEND 
//  #03 //021   ----------------------------------------
Label_013AEF72:
 BYTE   N23  Dn3  v080
 BYTE   W24
 BYTE   Ds3
 BYTE   W24
 BYTE   Fn3
 BYTE   W24
 BYTE   N68  Dn3
 BYTE   W24
 BYTE   PEND 
//  #03 //022   ----------------------------------------
 BYTE   W72
 BYTE   N23
 BYTE   W24
//  #03 //023   ----------------------------------------
Label_013AEF81:
 BYTE   N23  Ds3  v080
 BYTE   W24
 BYTE   Dn3
 BYTE   W24
 BYTE   Cn3
 BYTE   W24
 BYTE   Gs2
 BYTE   W24
 BYTE   PEND 
//  #03 //024   ----------------------------------------
Label_013AEF8C:
 BYTE   N23  Dn3  v080
 BYTE   W24
 BYTE   Cn3
 BYTE   W36
 BYTE   W02
 BYTE   N09  Gs2
 BYTE   W10
 BYTE   N68  Dn3
 BYTE   W24
 BYTE   PEND 
//  #03 //025   ----------------------------------------
 BYTE   W72
 BYTE   N23  Cn3
 BYTE   W24
//  #03 //026   ----------------------------------------
Label_013AEF9E:
 BYTE   N23  Gs2  v080
 BYTE   W24
 BYTE   Dn3
 BYTE   W24
 BYTE   Cn3
 BYTE   W24
 BYTE   Gn2
 BYTE   W24
 BYTE   PEND 
//  #03 //027   ----------------------------------------
 BYTE   TIE  As2
 BYTE   W96
//  #03 //028   ----------------------------------------
 BYTE   W44
 BYTE   W03
 BYTE   EOT
 BYTE   W48
 BYTE   W01
//  #03 //029   ----------------------------------------
 BYTE   W96
//  #03 //030   ----------------------------------------
 BYTE   PATT
  POIN2 Label_013AEEFE
//  #03 //031   ----------------------------------------
 BYTE   W72
 BYTE   N23  Dn3  v080
 BYTE   W24
//  #03 //032   ----------------------------------------
 BYTE   PATT
  POIN2 Label_013AEF0D
//  #03 //033   ----------------------------------------
 BYTE   PATT
  POIN2 Label_013AEF18
//  #03 //034   ----------------------------------------
 BYTE   W72
 BYTE   N23  Cn3  v080
 BYTE   W24
//  #03 //035   ----------------------------------------
 BYTE   PATT
  POIN2 Label_013AEF27
//  #03 //036   ----------------------------------------
 BYTE   PATT
  POIN2 Label_013AEF32
//  #03 //037   ----------------------------------------
 BYTE   W72
 BYTE   N23  Cn3  v080
 BYTE   W24
//  #03 //038   ----------------------------------------
 BYTE   Dn3
 BYTE   W24
 BYTE   En3
 BYTE   W24
 BYTE   Fn3
 BYTE   W24
 BYTE   Gn3
 BYTE   W24
//  #03 //039   ----------------------------------------
 BYTE   TIE  Gs3
 BYTE   W96
//  #03 //040   ----------------------------------------
 BYTE   W44
 BYTE   W03
 BYTE   EOT
 BYTE   W01
 BYTE   N16  Gs3  v096
 BYTE   W48
//  #03 //041   ----------------------------------------
 BYTE   W96
//  #03 //042   ----------------------------------------
Label_013AEFEE:
 BYTE   N23  Gs3  v080
 BYTE   W24
 BYTE   As3
 BYTE   W24
 BYTE   Cn4
 BYTE   W24
 BYTE   N68  Gs3
 BYTE   W24
 BYTE   PEND 
//  #03 //043   ----------------------------------------
 BYTE   W72
 BYTE   N23
 BYTE   W24
//  #03 //044   ----------------------------------------
Label_013AEFFD:
 BYTE   N23  As3  v080
 BYTE   W24
 BYTE   Gs3
 BYTE   W24
 BYTE   Gn3
 BYTE   W24
 BYTE   Fn3
 BYTE   W24
 BYTE   PEND 
//  #03 //045   ----------------------------------------
Label_013AF008:
 BYTE   N23  Gn3  v080
 BYTE   W24
 BYTE   Gs3
 BYTE   W24
 BYTE   As3
 BYTE   W24
 BYTE   N68  Gn3
 BYTE   W24
 BYTE   PEND 
//  #03 //046   ----------------------------------------
 BYTE   W72
 BYTE   N23
 BYTE   W24
//  #03 //047   ----------------------------------------
Label_013AF017:
 BYTE   N23  Gs3  v080
 BYTE   W24
 BYTE   Gn3
 BYTE   W24
 BYTE   Fn3
 BYTE   W24
 BYTE   Gn3
 BYTE   W24
 BYTE   PEND 
//  #03 //048   ----------------------------------------
Label_013AF022:
 BYTE   N16  Gs3  v096
 BYTE   W24
 BYTE   N23  Gs2  v080
 BYTE   W24
 BYTE   As2
 BYTE   W24
 BYTE   Cn3
 BYTE   W24
 BYTE   PEND 
//  #03 //049   ----------------------------------------
Label_013AF02F:
 BYTE   N23  Dn3  v080
 BYTE   W24
 BYTE   Ds3
 BYTE   W24
 BYTE   N68  Dn3
 BYTE   W48
 BYTE   PEND 
//  #03 //050   ----------------------------------------
 BYTE   W24
 BYTE   As2
 BYTE   W72
//  #03 //051   ----------------------------------------
 BYTE   TIE  Ds3
 BYTE   W96
//  #03 //052   ----------------------------------------
 BYTE   W44
 BYTE   W03
 BYTE   EOT
 BYTE   W48
 BYTE   W01
//  #03 //053   ----------------------------------------
 BYTE   W96
//  #03 //054   ----------------------------------------
 BYTE   N92  Cn3  v064
 BYTE   W96
//  #03 //055   ----------------------------------------
 BYTE   N23  As2
 BYTE   W24
 BYTE   Gn2
 BYTE   W24
 BYTE   N92  Cn3
 BYTE   W48
//  #03 //056   ----------------------------------------
 BYTE   W48
 BYTE   N23  As2
 BYTE   W24
 BYTE   Gn2
 BYTE   W24
//  #03 //057   ----------------------------------------
 BYTE   TIE  Cn3
 BYTE   W96
//  #03 //058   ----------------------------------------
 BYTE   W96
//  #03 //059   ----------------------------------------
 BYTE   W23
 BYTE   EOT
 BYTE   W72
 BYTE   W01
//  #03 //060   ----------------------------------------
 BYTE   N92  Dn3
 BYTE   W96
//  #03 //061   ----------------------------------------
 BYTE   N23  Cn3
 BYTE   W24
 BYTE   Gn3
 BYTE   W24
 BYTE   N92  Dn3
 BYTE   W48
//  #03 //062   ----------------------------------------
 BYTE   W48
 BYTE   N23  Cn3
 BYTE   W24
 BYTE   Dn3
 BYTE   W24
//  #03 //063   ----------------------------------------
 BYTE   N68  Ds3
 BYTE   W72
 BYTE   Dn3
 BYTE   W24
//  #03 //064   ----------------------------------------
 BYTE   W48
 BYTE   Cn3
 BYTE   W48
//  #03 //065   ----------------------------------------
 BYTE   W24
 BYTE   As2
 BYTE   W72
//  #03 //066   ----------------------------------------
 BYTE   W96
//  #03 //067   ----------------------------------------
 BYTE   W96
//  #03 //068   ----------------------------------------
 BYTE   W96
//  #03 //069   ----------------------------------------
 BYTE   W96
//  #03 //070   ----------------------------------------
 BYTE   W96
//  #03 //071   ----------------------------------------
 BYTE   W96
//  #03 //072   ----------------------------------------
 BYTE   W96
//  #03 //073   ----------------------------------------
 BYTE   W96
//  #03 //074   ----------------------------------------
 BYTE   W96
//  #03 //075   ----------------------------------------
 BYTE   W96
//  #03 //076   ----------------------------------------
 BYTE   W96
//  #03 //077   ----------------------------------------
 BYTE   W96
//  #03 //078   ----------------------------------------
 BYTE   W96
//  #03 //079   ----------------------------------------
 BYTE   W96
//  #03 //080   ----------------------------------------
 BYTE   W96
//  #03 //081   ----------------------------------------
 BYTE   W96
//  #03 //082   ----------------------------------------
 BYTE   W96
//  #03 //083   ----------------------------------------
 BYTE   W96
//  #03 //084   ----------------------------------------
 BYTE   W96
//  #03 //085   ----------------------------------------
 BYTE   W96
//  #03 //086   ----------------------------------------
 BYTE   W96
//  #03 //087   ----------------------------------------
 BYTE   W96
//  #03 //088   ----------------------------------------
 BYTE   W96
//  #03 //089   ----------------------------------------
 BYTE   W96
//  #03 //090   ----------------------------------------
 BYTE   W96
//  #03 //091   ----------------------------------------
 BYTE   W96
//  #03 //092   ----------------------------------------
 BYTE   W96
//  #03 //093   ----------------------------------------
 BYTE   W96
//  #03 //094   ----------------------------------------
 BYTE   W96
//  #03 //095   ----------------------------------------
 BYTE   W96
//  #03 //096   ----------------------------------------
 BYTE   W96
//  #03 //097   ----------------------------------------
 BYTE   W96
//  #03 //098   ----------------------------------------
 BYTE   W96
//  #03 //099   ----------------------------------------
 BYTE   W96
//  #03 //100   ----------------------------------------
 BYTE   W96
//  #03 //101   ----------------------------------------
 BYTE   W96
//  #03 //102   ----------------------------------------
 BYTE   W96
//  #03 //103   ----------------------------------------
 BYTE   W96
//  #03 //104   ----------------------------------------
 BYTE   W96
//  #03 //105   ----------------------------------------
 BYTE   W96
//  #03 //106   ----------------------------------------
 BYTE   W96
//  #03 //107   ----------------------------------------
 BYTE   W96
//  #03 //108   ----------------------------------------
 BYTE   W96
//  #03 //109   ----------------------------------------
 BYTE   W96
//  #03 //110   ----------------------------------------
 BYTE   W96
//  #03 //111   ----------------------------------------
 BYTE   W96
//  #03 //112   ----------------------------------------
 BYTE   W96
//  #03 //113   ----------------------------------------
 BYTE   W96
//  #03 //114   ----------------------------------------
 BYTE   W96
//  #03 //115   ----------------------------------------
 BYTE   W96
//  #03 //116   ----------------------------------------
 BYTE   W96
//  #03 //117   ----------------------------------------
 BYTE   W96
//  #03 //118   ----------------------------------------
 BYTE   W96
//  #03 //119   ----------------------------------------
 BYTE   W96
//  #03 //120   ----------------------------------------
 BYTE   W96
//  #03 //121   ----------------------------------------
 BYTE   W96
//  #03 //122   ----------------------------------------
 BYTE   W96
//  #03 //123   ----------------------------------------
 BYTE   W96
//  #03 //124   ----------------------------------------
 BYTE   W96
//  #03 //125   ----------------------------------------
 BYTE   W96
//  #03 //126   ----------------------------------------
 BYTE   W96
//  #03 //127   ----------------------------------------
 BYTE   W96
//  #03 //128   ----------------------------------------
 BYTE   W96
//  #03 //129   ----------------------------------------
 BYTE   W96
//  #03 //130   ----------------------------------------
 BYTE   W96
//  #03 //131   ----------------------------------------
 BYTE   W96
//  #03 //132   ----------------------------------------
 BYTE   W96
//  #03 //133   ----------------------------------------
 BYTE   W96
//  #03 //134   ----------------------------------------
 BYTE   W96
//  #03 //135   ----------------------------------------
 BYTE   W96
//  #03 //136   ----------------------------------------
 BYTE   W96
//  #03 //137   ----------------------------------------
 BYTE   W96
//  #03 //138   ----------------------------------------
 BYTE   W96
//  #03 //139   ----------------------------------------
 BYTE   W96
//  #03 //140   ----------------------------------------
 BYTE   W96
//  #03 //141   ----------------------------------------
 BYTE   W96
//  #03 //142   ----------------------------------------
 BYTE   W96
//  #03 //143   ----------------------------------------
 BYTE   W96
//  #03 //144   ----------------------------------------
 BYTE   W96
//  #03 //145   ----------------------------------------
 BYTE   W96
//  #03 //146   ----------------------------------------
 BYTE   W96
//  #03 //147   ----------------------------------------
 BYTE   W96
//  #03 //148   ----------------------------------------
 BYTE   W96
//  #03 //149   ----------------------------------------
 BYTE   W96
//  #03 //150   ----------------------------------------
 BYTE   W96
//  #03 //151   ----------------------------------------
 BYTE   W96
//  #03 //152   ----------------------------------------
 BYTE   W96
//  #03 //153   ----------------------------------------
 BYTE   W96
//  #03 //154   ----------------------------------------
 BYTE   W96
//  #03 //155   ----------------------------------------
 BYTE   W96
//  #03 //156   ----------------------------------------
 BYTE   W96
//  #03 //157   ----------------------------------------
 BYTE   W96
//  #03 //158   ----------------------------------------
 BYTE   W96
//  #03 //159   ----------------------------------------
 BYTE   W96
//  #03 //160   ----------------------------------------
 BYTE   W96
//  #03 //161   ----------------------------------------
 BYTE   W96
//  #03 //162   ----------------------------------------
 BYTE   W96
//  #03 //163   ----------------------------------------
 BYTE   W96
//  #03 //164   ----------------------------------------
 BYTE   W96
//  #03 //165   ----------------------------------------
 BYTE   W96
//  #03 //166   ----------------------------------------
 BYTE   W96
//  #03 //167   ----------------------------------------
 BYTE   W96
//  #03 //168   ----------------------------------------
 BYTE   W96
//  #03 //169   ----------------------------------------
 BYTE   W96
//  #03 //170   ----------------------------------------
 BYTE   W96
//  #03 //171   ----------------------------------------
 BYTE   W96
//  #03 //172   ----------------------------------------
 BYTE   W96
//  #03 //173   ----------------------------------------
 BYTE   W96
//  #03 //174   ----------------------------------------
 BYTE   W96
//  #03 //175   ----------------------------------------
 BYTE   W96
//  #03 //176   ----------------------------------------
 BYTE   W96
//  #03 //177   ----------------------------------------
 BYTE   W96
//  #03 //178   ----------------------------------------
 BYTE   W96
//  #03 //179   ----------------------------------------
 BYTE   W96
//  #03 //180   ----------------------------------------
 BYTE   W96
//  #03 //181   ----------------------------------------
 BYTE   W96
//  #03 //182   ----------------------------------------
 BYTE   W96
//  #03 //183   ----------------------------------------
 BYTE   W96
//  #03 //184   ----------------------------------------
 BYTE   W96
//  #03 //185   ----------------------------------------
 BYTE   W96
//  #03 //186   ----------------------------------------
 BYTE   W96
//  #03 //187   ----------------------------------------
 BYTE   W96
//  #03 //188   ----------------------------------------
 BYTE   W96
//  #03 //189   ----------------------------------------
 BYTE   W96
//  #03 //190   ----------------------------------------
 BYTE   W96
//  #03 //191   ----------------------------------------
 BYTE   W96
//  #03 //192   ----------------------------------------
 BYTE   W96
//  #03 //193   ----------------------------------------
 BYTE   W96
//  #03 //194   ----------------------------------------
 BYTE   W96
//  #03 //195   ----------------------------------------
 BYTE   W96
//  #03 //196   ----------------------------------------
 BYTE   W96
//  #03 //197   ----------------------------------------
 BYTE   W96
//  #03 //198   ----------------------------------------
 BYTE   W96
//  #03 //199   ----------------------------------------
 BYTE   W96
//  #03 //200   ----------------------------------------
 BYTE   W96
//  #03 //201   ----------------------------------------
 BYTE   W96
//  #03 //202   ----------------------------------------
 BYTE   W96
//  #03 //203   ----------------------------------------
 BYTE   W96
//  #03 //204   ----------------------------------------
 BYTE   W96
//  #03 //205   ----------------------------------------
 BYTE   W96
//  #03 //206   ----------------------------------------
 BYTE   W96
//  #03 //207   ----------------------------------------
 BYTE   W96
//  #03 //208   ----------------------------------------
 BYTE   W96
//  #03 //209   ----------------------------------------
 BYTE   W96
//  #03 //210   ----------------------------------------
 BYTE   W96
//  #03 //211   ----------------------------------------
 BYTE   W96
//  #03 //212   ----------------------------------------
 BYTE   W96
//  #03 //213   ----------------------------------------
 BYTE   W96
//  #03 //214   ----------------------------------------
 BYTE   W96
//  #03 //215   ----------------------------------------
 BYTE   W96
//  #03 //216   ----------------------------------------
 BYTE   W96
//  #03 //217   ----------------------------------------
 BYTE   W96
//  #03 //218   ----------------------------------------
 BYTE   W96
//  #03 //219   ----------------------------------------
 BYTE   W96
//  #03 //220   ----------------------------------------
 BYTE   W96
//  #03 //221   ----------------------------------------
 BYTE   W96
//  #03 //222   ----------------------------------------
 BYTE   PATT
  POIN2 Label_013AEEFE
//  #03 //223   ----------------------------------------
 BYTE   W72
 BYTE   N23  Dn3  v080
 BYTE   W24
//  #03 //224   ----------------------------------------
 BYTE   PATT
  POIN2 Label_013AEF0D
//  #03 //225   ----------------------------------------
 BYTE   PATT
  POIN2 Label_013AEF18
//  #03 //226   ----------------------------------------
 BYTE   W72
 BYTE   N23  Cn3  v080
 BYTE   W24
//  #03 //227   ----------------------------------------
 BYTE   PATT
  POIN2 Label_013AEF27
//  #03 //228   ----------------------------------------
 BYTE   PATT
  POIN2 Label_013AEF32
//  #03 //229   ----------------------------------------
 BYTE   W72
 BYTE   N23  As2  v080
 BYTE   W24
//  #03 //230   ----------------------------------------
 BYTE   PATT
  POIN2 Label_013AEF44
//  #03 //231   ----------------------------------------
 BYTE   TIE  Gs2  v080
 BYTE   W96
//  #03 //232   ----------------------------------------
 BYTE   W44
 BYTE   W03
 BYTE   EOT
 BYTE   W48
 BYTE   W01
//  #03 //233   ----------------------------------------
 BYTE   W96
//  #03 //234   ----------------------------------------
 BYTE   PATT
  POIN2 Label_013AEF58
//  #03 //235   ----------------------------------------
 BYTE   W72
 BYTE   N23  Ds3  v080
 BYTE   W24
//  #03 //236   ----------------------------------------
 BYTE   PATT
  POIN2 Label_013AEF67
//  #03 //237   ----------------------------------------
 BYTE   PATT
  POIN2 Label_013AEF72
//  #03 //238   ----------------------------------------
 BYTE   W72
 BYTE   N23  Dn3  v080
 BYTE   W24
//  #03 //239   ----------------------------------------
 BYTE   PATT
  POIN2 Label_013AEF81
//  #03 //240   ----------------------------------------
 BYTE   PATT
  POIN2 Label_013AEF8C
//  #03 //241   ----------------------------------------
 BYTE   W72
 BYTE   N23  Cn3  v080
 BYTE   W24
//  #03 //242   ----------------------------------------
 BYTE   PATT
  POIN2 Label_013AEF9E
//  #03 //243   ----------------------------------------
 BYTE   TIE  As2  v080
 BYTE   W96
//  #03 //244   ----------------------------------------
 BYTE   W44
 BYTE   W03
 BYTE   EOT
 BYTE   W48
 BYTE   W01
//  #03 //245   ----------------------------------------
 BYTE   W96
//  #03 //246   ----------------------------------------
 BYTE   N68  Cn3
 BYTE   W96
//  #03 //247   ----------------------------------------
 BYTE   N23  As2
 BYTE   W24
 BYTE   Gn2
 BYTE   W24
 BYTE   N68  Cn3
 BYTE   W48
//  #03 //248   ----------------------------------------
 BYTE   W48
 BYTE   N23  As2
 BYTE   W24
 BYTE   Gn2
 BYTE   W24
//  #03 //249   ----------------------------------------
 BYTE   TIE  Cn3
 BYTE   W96
//  #03 //250   ----------------------------------------
 BYTE   W44
 BYTE   W03
 BYTE   EOT
 BYTE   W48
 BYTE   W01
//  #03 //251   ----------------------------------------
 BYTE   W96
//  #03 //252   ----------------------------------------
 BYTE   N68  Dn3
 BYTE   W96
//  #03 //253   ----------------------------------------
 BYTE   N23  Cn3
 BYTE   W24
 BYTE   Gn3
 BYTE   W24
 BYTE   N68  Dn3
 BYTE   W48
//  #03 //254   ----------------------------------------
 BYTE   W48
 BYTE   N23  Cn3
 BYTE   W24
 BYTE   Dn3
 BYTE   W24
//  #03 //255   ----------------------------------------
 BYTE   N68  Ds3
 BYTE   W72
 BYTE   Dn3
 BYTE   W24
//  #03 //256   ----------------------------------------
 BYTE   W48
 BYTE   Cn3
 BYTE   W48
//  #03 //257   ----------------------------------------
 BYTE   W24
 BYTE   As2
 BYTE   W72
//  #03 //258   ----------------------------------------
 BYTE   W96
//  #03 //259   ----------------------------------------
 BYTE   W96
//  #03 //260   ----------------------------------------
 BYTE   W96
//  #03 //261   ----------------------------------------
 BYTE   W96
//  #03 //262   ----------------------------------------
 BYTE   W96
//  #03 //263   ----------------------------------------
 BYTE   W96
//  #03 //264   ----------------------------------------
 BYTE   W96
//  #03 //265   ----------------------------------------
 BYTE   W96
//  #03 //266   ----------------------------------------
 BYTE   W96
//  #03 //267   ----------------------------------------
 BYTE   W96
//  #03 //268   ----------------------------------------
 BYTE   W96
//  #03 //269   ----------------------------------------
 BYTE   W96
//  #03 //270   ----------------------------------------
 BYTE   W96
//  #03 //271   ----------------------------------------
 BYTE   W96
//  #03 //272   ----------------------------------------
 BYTE   W96
//  #03 //273   ----------------------------------------
 BYTE   W96
//  #03 //274   ----------------------------------------
 BYTE   W96
//  #03 //275   ----------------------------------------
 BYTE   W96
//  #03 //276   ----------------------------------------
 BYTE   W96
//  #03 //277   ----------------------------------------
 BYTE   W96
//  #03 //278   ----------------------------------------
 BYTE   W96
//  #03 //279   ----------------------------------------
 BYTE   W96
//  #03 //280   ----------------------------------------
 BYTE   W96
//  #03 //281   ----------------------------------------
 BYTE   W96
//  #03 //282   ----------------------------------------
 BYTE   PATT
  POIN2 Label_013AEFEE
//  #03 //283   ----------------------------------------
 BYTE   W72
 BYTE   N23  Gs3  v080
 BYTE   W24
//  #03 //284   ----------------------------------------
 BYTE   PATT
  POIN2 Label_013AEFFD
//  #03 //285   ----------------------------------------
 BYTE   PATT
  POIN2 Label_013AF008
//  #03 //286   ----------------------------------------
 BYTE   W72
 BYTE   N23  Gn3  v080
 BYTE   W24
//  #03 //287   ----------------------------------------
 BYTE   PATT
  POIN2 Label_013AF017
//  #03 //288   ----------------------------------------
 BYTE   PATT
  POIN2 Label_013AF022
//  #03 //289   ----------------------------------------
 BYTE   PATT
  POIN2 Label_013AF02F
//  #03 //290   ----------------------------------------
 BYTE   W24
 BYTE   N68  As2  v080
 BYTE   W72
//  #03 //291   ----------------------------------------
 BYTE   TIE  Ds3
 BYTE   W96
//  #03 //292   ----------------------------------------
 BYTE   W44
 BYTE   W03
 BYTE   EOT
 BYTE   W48
 BYTE   W01
//  #03 //293   ----------------------------------------
 BYTE   W96
//  #03 //294   ----------------------------------------
 BYTE   W96
//  #03 //295   ----------------------------------------
 BYTE   W96
//  #03 //296   ----------------------------------------
 BYTE   W92
 BYTE   W03
 BYTE   GoTo
  POIN2 Label_013AEEF2
 BYTE   FINE

//**************** Track 4 (Midi-Chn.3) ****************//

KKCafe_004:
//  #04 //000   ----------------------------------------
 BYTE   KEYSH   KKCafe_key+0
Label_013AF216:
 BYTE   VOICE   0
 BYTE   VOL   57*KKCafe_mvl/mxv
 BYTE   PAN   c_v+0
 BYTE   W14
 BYTE   N09  Gn2  v080
 BYTE   N09  As2
 BYTE   N09  Dn3
 BYTE   W32
 BYTE   W02
 BYTE   N22  Gn2
 BYTE   N22  As2
 BYTE   N22  Dn3
 BYTE   W36
 BYTE   W02
 BYTE   N09  Gn2
 BYTE   N09  As2
 BYTE   N09  Dn3
 BYTE   W10
//  #04 //001   ----------------------------------------
Label_013AF235:
 BYTE   W24
 BYTE   N22  Gn2  v080
 BYTE   N22  As2
 BYTE   N22  Dn3
 BYTE   W36
 BYTE   W02
 BYTE   N09  Gn2
 BYTE   N09  As2
 BYTE   N09  Dn3
 BYTE   W32
 BYTE   W02
 BYTE   PEND 
//  #04 //002   ----------------------------------------
Label_013AF248:
 BYTE   N22  Gn2  v080
 BYTE   N22  As2
 BYTE   N22  Dn3
 BYTE   W36
 BYTE   W02
 BYTE   N09  Gn2
 BYTE   N09  As2
 BYTE   N09  Dn3
 BYTE   W32
 BYTE   W02
 BYTE   N22  Gn2
 BYTE   N22  As2
 BYTE   N22  Dn3
 BYTE   W24
 BYTE   PEND 
//  #04 //003   ----------------------------------------
 BYTE   W14
 BYTE   N09  Gn2
 BYTE   N09  As2
 BYTE   N09  Dn3
 BYTE   W32
 BYTE   W02
 BYTE   N22  Gn2
 BYTE   N22  As2
 BYTE   N22  Dn3
 BYTE   W36
 BYTE   W02
 BYTE   N09  Gn2
 BYTE   N09  As2
 BYTE   N09  Dn3
 BYTE   W10
//  #04 //004   ----------------------------------------
 BYTE   PATT
  POIN2 Label_013AF235
//  #04 //005   ----------------------------------------
 BYTE   PATT
  POIN2 Label_013AF248
//  #04 //006   ----------------------------------------
Label_013AF283:
 BYTE   W14
 BYTE   N09  Gn2  v064
 BYTE   N09  As2
 BYTE   N09  Dn3
 BYTE   W32
 BYTE   W02
 BYTE   N22  Gn2
 BYTE   N22  As2
 BYTE   N22  Dn3
 BYTE   W36
 BYTE   W02
 BYTE   N09  Gn2
 BYTE   N09  As2
 BYTE   N09  Dn3
 BYTE   W10
 BYTE   PEND 
//  #04 //007   ----------------------------------------
Label_013AF29D:
 BYTE   W24
 BYTE   N22  Gn2  v064
 BYTE   N22  As2
 BYTE   N22  Dn3
 BYTE   W36
 BYTE   W02
 BYTE   N09  Gn2
 BYTE   N09  As2
 BYTE   N09  Dn3
 BYTE   W32
 BYTE   W02
 BYTE   PEND 
//  #04 //008   ----------------------------------------
Label_013AF2B0:
 BYTE   N22  Gn2  v064
 BYTE   N22  As2
 BYTE   N22  Dn3
 BYTE   W36
 BYTE   W02
 BYTE   N09  Gn2
 BYTE   N09  As2
 BYTE   N09  Dn3
 BYTE   W32
 BYTE   W02
 BYTE   N22  Gn2
 BYTE   N22  As2
 BYTE   N22  Dn3
 BYTE   W24
 BYTE   PEND 
//  #04 //009   ----------------------------------------
 BYTE   PATT
  POIN2 Label_013AF283
//  #04 //010   ----------------------------------------
 BYTE   PATT
  POIN2 Label_013AF29D
//  #04 //011   ----------------------------------------
 BYTE   PATT
  POIN2 Label_013AF2B0
//  #04 //012   ----------------------------------------
 BYTE   PATT
  POIN2 Label_013AF283
//  #04 //013   ----------------------------------------
 BYTE   PATT
  POIN2 Label_013AF29D
//  #04 //014   ----------------------------------------
 BYTE   PATT
  POIN2 Label_013AF2B0
//  #04 //015   ----------------------------------------
Label_013AF2E7:
 BYTE   W14
 BYTE   N09  Gs2  v064
 BYTE   N09  Cn3
 BYTE   N09  Ds3
 BYTE   W32
 BYTE   W02
 BYTE   N22  Gs2
 BYTE   N22  Cn3
 BYTE   N22  Ds3
 BYTE   W36
 BYTE   W02
 BYTE   N09  Gs2
 BYTE   N09  Cn3
 BYTE   N09  Ds3
 BYTE   W10
 BYTE   PEND 
//  #04 //016   ----------------------------------------
Label_013AF301:
 BYTE   W24
 BYTE   N22  Gs2  v064
 BYTE   N22  Cn3
 BYTE   N22  Ds3
 BYTE   W36
 BYTE   W02
 BYTE   N09  Gs2
 BYTE   N09  Cn3
 BYTE   N09  Ds3
 BYTE   W32
 BYTE   W02
 BYTE   PEND 
//  #04 //017   ----------------------------------------
Label_013AF314:
 BYTE   N22  Gs2  v064
 BYTE   N22  Cn3
 BYTE   N22  Ds3
 BYTE   W36
 BYTE   W02
 BYTE   N09  Gs2
 BYTE   N09  Cn3
 BYTE   N09  Ds3
 BYTE   W32
 BYTE   W02
 BYTE   N22  Gs2
 BYTE   N22  Cn3
 BYTE   N22  Ds3
 BYTE   W24
 BYTE   PEND 
//  #04 //018   ----------------------------------------
 BYTE   PATT
  POIN2 Label_013AF2E7
//  #04 //019   ----------------------------------------
 BYTE   PATT
  POIN2 Label_013AF301
//  #04 //020   ----------------------------------------
 BYTE   PATT
  POIN2 Label_013AF314
//  #04 //021   ----------------------------------------
 BYTE   PATT
  POIN2 Label_013AF2E7
//  #04 //022   ----------------------------------------
 BYTE   PATT
  POIN2 Label_013AF301
//  #04 //023   ----------------------------------------
 BYTE   PATT
  POIN2 Label_013AF314
//  #04 //024   ----------------------------------------
 BYTE   PATT
  POIN2 Label_013AF2E7
//  #04 //025   ----------------------------------------
Label_013AF350:
 BYTE   W24
 BYTE   N22  Gs2  v064
 BYTE   N22  Cn3
 BYTE   N22  Ds3
 BYTE   W36
 BYTE   W02
 BYTE   N09  Fn2
 BYTE   N09  Gs2
 BYTE   N09  Dn3
 BYTE   W32
 BYTE   W02
 BYTE   PEND 
//  #04 //026   ----------------------------------------
Label_013AF363:
 BYTE   N22  Fn2  v064
 BYTE   N22  Gs2
 BYTE   N22  Dn3
 BYTE   W36
 BYTE   W02
 BYTE   N09  Fn2
 BYTE   N09  Gs2
 BYTE   N09  Dn3
 BYTE   W32
 BYTE   W02
 BYTE   N22  Fn2
 BYTE   N22  Gs2
 BYTE   N22  Dn3
 BYTE   W24
 BYTE   PEND 
//  #04 //027   ----------------------------------------
 BYTE   PATT
  POIN2 Label_013AF283
//  #04 //028   ----------------------------------------
 BYTE   PATT
  POIN2 Label_013AF29D
//  #04 //029   ----------------------------------------
 BYTE   PATT
  POIN2 Label_013AF2B0
//  #04 //030   ----------------------------------------
 BYTE   PATT
  POIN2 Label_013AF283
//  #04 //031   ----------------------------------------
 BYTE   PATT
  POIN2 Label_013AF29D
//  #04 //032   ----------------------------------------
 BYTE   PATT
  POIN2 Label_013AF2B0
//  #04 //033   ----------------------------------------
 BYTE   PATT
  POIN2 Label_013AF283
//  #04 //034   ----------------------------------------
 BYTE   PATT
  POIN2 Label_013AF29D
//  #04 //035   ----------------------------------------
 BYTE   PATT
  POIN2 Label_013AF2B0
//  #04 //036   ----------------------------------------
 BYTE   PATT
  POIN2 Label_013AF283
//  #04 //037   ----------------------------------------
Label_013AF3AE:
 BYTE   W24
 BYTE   N22  Gn2  v064
 BYTE   N22  As2
 BYTE   N22  Dn3
 BYTE   W36
 BYTE   W02
 BYTE   N09  En2
 BYTE   N09  As2
 BYTE   N09  Cn3
 BYTE   W32
 BYTE   W02
 BYTE   PEND 
//  #04 //038   ----------------------------------------
Label_013AF3C1:
 BYTE   N22  En2  v064
 BYTE   N22  As2
 BYTE   N22  Cn3
 BYTE   W36
 BYTE   W02
 BYTE   N09  En2
 BYTE   N09  As2
 BYTE   N09  Cn3
 BYTE   W32
 BYTE   W02
 BYTE   N22  En2
 BYTE   N22  As2
 BYTE   N22  Cn3
 BYTE   W24
 BYTE   PEND 
//  #04 //039   ----------------------------------------
 BYTE   PATT
  POIN2 Label_013AF2E7
//  #04 //040   ----------------------------------------
 BYTE   PATT
  POIN2 Label_013AF301
//  #04 //041   ----------------------------------------
 BYTE   PATT
  POIN2 Label_013AF314
//  #04 //042   ----------------------------------------
Label_013AF3E9:
 BYTE   W14
 BYTE   N09  Ds2  v064
 BYTE   N09  Gn2
 BYTE   N09  Cn3
 BYTE   W32
 BYTE   W02
 BYTE   N22  Ds2
 BYTE   N22  Gn2
 BYTE   N22  Cn3
 BYTE   W36
 BYTE   W02
 BYTE   N09  Ds2
 BYTE   N09  Gn2
 BYTE   N09  Cn3
 BYTE   W10
 BYTE   PEND 
//  #04 //043   ----------------------------------------
Label_013AF403:
 BYTE   W24
 BYTE   N22  Ds2  v064
 BYTE   N22  Gn2
 BYTE   N22  Cn3
 BYTE   W36
 BYTE   W02
 BYTE   N09  Ds2
 BYTE   N09  Gn2
 BYTE   N09  Bn2
 BYTE   W32
 BYTE   W02
 BYTE   PEND 
//  #04 //044   ----------------------------------------
Label_013AF416:
 BYTE   N22  Ds2  v064
 BYTE   N22  Gn2
 BYTE   N22  Bn2
 BYTE   W36
 BYTE   W02
 BYTE   N09  Ds2
 BYTE   N09  Gn2
 BYTE   N09  Bn2
 BYTE   W32
 BYTE   W02
 BYTE   N22  Ds2
 BYTE   N22  Gn2
 BYTE   N22  Bn2
 BYTE   W24
 BYTE   PEND 
//  #04 //045   ----------------------------------------
Label_013AF42F:
 BYTE   W14
 BYTE   N09  Fn2  v064
 BYTE   N09  As2
 BYTE   N09  Dn3
 BYTE   W32
 BYTE   W02
 BYTE   N22  Fn2
 BYTE   N22  As2
 BYTE   N22  Dn3
 BYTE   W36
 BYTE   W02
 BYTE   N09  Fn2
 BYTE   N09  As2
 BYTE   N09  Dn3
 BYTE   W10
 BYTE   PEND 
//  #04 //046   ----------------------------------------
Label_013AF449:
 BYTE   W24
 BYTE   N22  Fn2  v064
 BYTE   N22  As2
 BYTE   N22  Dn3
 BYTE   W36
 BYTE   W02
 BYTE   N09  As2
 BYTE   N09  Cn3
 BYTE   N09  En3
 BYTE   W32
 BYTE   W02
 BYTE   PEND 
//  #04 //047   ----------------------------------------
Label_013AF45C:
 BYTE   N22  As2  v064
 BYTE   N22  Cn3
 BYTE   N22  En3
 BYTE   W36
 BYTE   W02
 BYTE   N09  As2
 BYTE   N09  Cn3
 BYTE   N09  En3
 BYTE   W32
 BYTE   W02
 BYTE   N22  As2
 BYTE   N22  Cn3
 BYTE   N22  En3
 BYTE   W24
 BYTE   PEND 
//  #04 //048   ----------------------------------------
Label_013AF475:
 BYTE   N16  Cn3  v076
 BYTE   N16  Ds3
 BYTE   N16  Gn3
 BYTE   W96
 BYTE   PEND 
//  #04 //049   ----------------------------------------
Label_013AF47E:
 BYTE   W48
 BYTE   N68  Gs2  v064
 BYTE   N68  As2
 BYTE   N68  Dn3
 BYTE   W48
 BYTE   PEND 
//  #04 //050   ----------------------------------------
Label_013AF488:
 BYTE   W24
 BYTE   N68  Gs2  v064
 BYTE   N68  As2
 BYTE   N68  Dn3
 BYTE   W72
 BYTE   PEND 
//  #04 //051   ----------------------------------------
 BYTE   PATT
  POIN2 Label_013AF283
//  #04 //052   ----------------------------------------
 BYTE   PATT
  POIN2 Label_013AF29D
//  #04 //053   ----------------------------------------
 BYTE   PATT
  POIN2 Label_013AF2B0
//  #04 //054   ----------------------------------------
Label_013AF4A1:
 BYTE   W14
 BYTE   N09  Fn2  v064
 BYTE   N09  Gs2
 BYTE   N09  Cs3
 BYTE   W32
 BYTE   W02
 BYTE   N22  Fn2
 BYTE   N22  Gs2
 BYTE   N22  Cs3
 BYTE   W36
 BYTE   W02
 BYTE   N09  Fn2
 BYTE   N09  Gs2
 BYTE   N09  Cs3
 BYTE   W10
 BYTE   PEND 
//  #04 //055   ----------------------------------------
Label_013AF4BB:
 BYTE   W24
 BYTE   N22  Fn2  v064
 BYTE   N22  Gs2
 BYTE   N22  Cs3
 BYTE   W36
 BYTE   W02
 BYTE   N09  Ds2
 BYTE   N09  Gn2
 BYTE   N09  Cs3
 BYTE   W32
 BYTE   W02
 BYTE   PEND 
//  #04 //056   ----------------------------------------
Label_013AF4CE:
 BYTE   N22  Ds2  v064
 BYTE   N22  Gn2
 BYTE   N22  Cs3
 BYTE   W36
 BYTE   W02
 BYTE   N09  Ds2
 BYTE   N09  Gn2
 BYTE   N09  Cs3
 BYTE   W32
 BYTE   W02
 BYTE   N22  Ds2
 BYTE   N22  Gn2
 BYTE   N22  Cs3
 BYTE   W24
 BYTE   PEND 
//  #04 //057   ----------------------------------------
 BYTE   PATT
  POIN2 Label_013AF3E9
//  #04 //058   ----------------------------------------
Label_013AF4EC:
 BYTE   W24
 BYTE   N22  Ds2  v064
 BYTE   N22  Gn2
 BYTE   N22  Cn3
 BYTE   W36
 BYTE   W02
 BYTE   N09  Ds2
 BYTE   N09  Gn2
 BYTE   N09  Cn3
 BYTE   W32
 BYTE   W02
 BYTE   PEND 
//  #04 //059   ----------------------------------------
Label_013AF4FF:
 BYTE   N22  Ds2  v064
 BYTE   N22  Gn2
 BYTE   N22  Cn3
 BYTE   W36
 BYTE   W02
 BYTE   N09  Ds2
 BYTE   N09  Gn2
 BYTE   N09  Cn3
 BYTE   W32
 BYTE   W02
 BYTE   N22  Ds2
 BYTE   N22  Gn2
 BYTE   N22  Cn3
 BYTE   W24
 BYTE   PEND 
//  #04 //060   ----------------------------------------
Label_013AF518:
 BYTE   W14
 BYTE   N09  Gn2  v064
 BYTE   N09  As2
 BYTE   N09  Ds3
 BYTE   W32
 BYTE   W02
 BYTE   N22  Gn2
 BYTE   N22  As2
 BYTE   N22  Ds3
 BYTE   W36
 BYTE   W02
 BYTE   N09  Gn2
 BYTE   N09  As2
 BYTE   N09  Ds3
 BYTE   W10
 BYTE   PEND 
//  #04 //061   ----------------------------------------
Label_013AF532:
 BYTE   W24
 BYTE   N22  Gn2  v064
 BYTE   N22  As2
 BYTE   N22  Ds3
 BYTE   W36
 BYTE   W02
 BYTE   N09  An2
 BYTE   N09  Cn3
 BYTE   N09  Ds3
 BYTE   W32
 BYTE   W02
 BYTE   PEND 
//  #04 //062   ----------------------------------------
Label_013AF545:
 BYTE   N22  An2  v064
 BYTE   N22  Cn3
 BYTE   N22  Ds3
 BYTE   W36
 BYTE   W02
 BYTE   N09  An2
 BYTE   N09  Cn3
 BYTE   N09  Ds3
 BYTE   W32
 BYTE   W02
 BYTE   N22  An2
 BYTE   N22  Cn3
 BYTE   N22  Ds3
 BYTE   W24
 BYTE   PEND 
//  #04 //063   ----------------------------------------
 BYTE   PATT
  POIN2 Label_013AF2E7
//  #04 //064   ----------------------------------------
Label_013AF563:
 BYTE   W24
 BYTE   N22  Gs2  v064
 BYTE   N22  Cn3
 BYTE   N22  Ds3
 BYTE   W36
 BYTE   W02
 BYTE   N09  Fn2
 BYTE   N09  Gs2
 BYTE   N09  Cn3
 BYTE   W32
 BYTE   W02
 BYTE   PEND 
//  #04 //065   ----------------------------------------
Label_013AF576:
 BYTE   N22  Fn2  v064
 BYTE   N22  Gs2
 BYTE   N22  Cn3
 BYTE   W36
 BYTE   W02
 BYTE   N09  Fn2
 BYTE   N09  Gs2
 BYTE   N09  Cn3
 BYTE   W32
 BYTE   W02
 BYTE   N22  Fn2
 BYTE   N22  Gs2
 BYTE   N22  Cn3
 BYTE   W24
 BYTE   PEND 
//  #04 //066   ----------------------------------------
Label_013AF58F:
 BYTE   N22  Ds4  v064
 BYTE   W24
 BYTE   Fn4
 BYTE   W24
 BYTE   Gn4
 BYTE   W24
 BYTE   N68  Dn4
 BYTE   W24
 BYTE   PEND 
//  #04 //067   ----------------------------------------
 BYTE   W72
 BYTE   N22
 BYTE   W24
//  #04 //068   ----------------------------------------
Label_013AF59E:
 BYTE   N22  Ds4  v064
 BYTE   W24
 BYTE   Dn4
 BYTE   W24
 BYTE   Cn4
 BYTE   W24
 BYTE   As3
 BYTE   W24
 BYTE   PEND 
//  #04 //069   ----------------------------------------
Label_013AF5A9:
 BYTE   N22  Dn4  v064
 BYTE   W24
 BYTE   Ds4
 BYTE   W24
 BYTE   Fn4
 BYTE   W24
 BYTE   N68  Cn4
 BYTE   W24
 BYTE   PEND 
//  #04 //070   ----------------------------------------
 BYTE   W72
 BYTE   N22
 BYTE   W24
//  #04 //071   ----------------------------------------
Label_013AF5B8:
 BYTE   N22  Dn4  v064
 BYTE   W24
 BYTE   Cn4
 BYTE   W24
 BYTE   As3
 BYTE   W24
 BYTE   Gn3
 BYTE   W24
 BYTE   PEND 
//  #04 //072   ----------------------------------------
Label_013AF5C3:
 BYTE   N22  Cn4  v064
 BYTE   W24
 BYTE   As3
 BYTE   W36
 BYTE   W02
 BYTE   N09  Gn3
 BYTE   W10
 BYTE   N68  Cn4
 BYTE   W24
 BYTE   PEND 
//  #04 //073   ----------------------------------------
 BYTE   W72
 BYTE   N22  As3
 BYTE   W24
//  #04 //074   ----------------------------------------
Label_013AF5D5:
 BYTE   N22  Gn3  v064
 BYTE   W24
 BYTE   Cn4
 BYTE   W24
 BYTE   As3
 BYTE   W24
 BYTE   Gn3
 BYTE   W24
 BYTE   PEND 
//  #04 //075   ----------------------------------------
 BYTE   TIE  Gs3
 BYTE   W96
//  #04 //076   ----------------------------------------
 BYTE   W40
 BYTE   EOT
 BYTE   W56
//  #04 //077   ----------------------------------------
 BYTE   W96
//  #04 //078   ----------------------------------------
Label_013AF5E7:
 BYTE   N22  Fn4  v064
 BYTE   W24
 BYTE   Gn4
 BYTE   W24
 BYTE   Gs4
 BYTE   W24
 BYTE   N68  Ds4
 BYTE   W24
 BYTE   PEND 
//  #04 //079   ----------------------------------------
 BYTE   W72
 BYTE   N22
 BYTE   W24
//  #04 //080   ----------------------------------------
Label_013AF5F6:
 BYTE   N22  Fn4  v064
 BYTE   W24
 BYTE   Ds4
 BYTE   W24
 BYTE   Dn4
 BYTE   W24
 BYTE   Cn4
 BYTE   W24
 BYTE   PEND 
//  #04 //081   ----------------------------------------
Label_013AF601:
 BYTE   N22  Dn4  v064
 BYTE   W24
 BYTE   Ds4
 BYTE   W24
 BYTE   Fn4
 BYTE   W24
 BYTE   N68  Dn4
 BYTE   W24
 BYTE   PEND 
//  #04 //082   ----------------------------------------
 BYTE   W72
 BYTE   N22
 BYTE   W24
//  #04 //083   ----------------------------------------
Label_013AF610:
 BYTE   N22  Ds4  v064
 BYTE   W24
 BYTE   Dn4
 BYTE   W24
 BYTE   Cn4
 BYTE   W24
 BYTE   Gs3
 BYTE   W24
 BYTE   PEND 
//  #04 //084   ----------------------------------------
Label_013AF61B:
 BYTE   N22  Dn4  v064
 BYTE   W24
 BYTE   Cn4
 BYTE   W36
 BYTE   W02
 BYTE   N09  Gs3
 BYTE   W10
 BYTE   N68  Dn4
 BYTE   W24
 BYTE   PEND 
//  #04 //085   ----------------------------------------
 BYTE   W72
 BYTE   N22  Cn4
 BYTE   W24
//  #04 //086   ----------------------------------------
Label_013AF62D:
 BYTE   N22  Gs3  v064
 BYTE   W24
 BYTE   Dn4
 BYTE   W24
 BYTE   Cn4
 BYTE   W24
 BYTE   Gn3
 BYTE   W24
 BYTE   PEND 
//  #04 //087   ----------------------------------------
 BYTE   TIE  As3
 BYTE   W96
//  #04 //088   ----------------------------------------
 BYTE   W40
 BYTE   EOT
 BYTE   W56
//  #04 //089   ----------------------------------------
 BYTE   W96
//  #04 //090   ----------------------------------------
 BYTE   N90  Cn4
 BYTE   W96
//  #04 //091   ----------------------------------------
 BYTE   N22  As3
 BYTE   W24
 BYTE   Gn3
 BYTE   W24
 BYTE   N90  Cn4
 BYTE   W48
//  #04 //092   ----------------------------------------
 BYTE   W48
 BYTE   N22  As3
 BYTE   W24
 BYTE   Gn3
 BYTE   W24
//  #04 //093   ----------------------------------------
 BYTE   TIE  Cn4
 BYTE   W96
//  #04 //094   ----------------------------------------
 BYTE   W96
//  #04 //095   ----------------------------------------
 BYTE   W13
 BYTE   EOT
 BYTE   W80
 BYTE   W03
//  #04 //096   ----------------------------------------
 BYTE   N90  Dn4
 BYTE   W96
//  #04 //097   ----------------------------------------
 BYTE   N22  Cn4
 BYTE   W24
 BYTE   Gn4
 BYTE   W24
 BYTE   N90  Dn4
 BYTE   W48
//  #04 //098   ----------------------------------------
 BYTE   W48
 BYTE   N22  Cn4
 BYTE   W24
 BYTE   Dn4
 BYTE   W24
//  #04 //099   ----------------------------------------
 BYTE   N68  Ds4
 BYTE   W72
 BYTE   Dn4
 BYTE   W24
//  #04 //100   ----------------------------------------
 BYTE   W48
 BYTE   Cn4
 BYTE   W48
//  #04 //101   ----------------------------------------
 BYTE   W24
 BYTE   As3
 BYTE   W72
//  #04 //102   ----------------------------------------
 BYTE   PATT
  POIN2 Label_013AF283
//  #04 //103   ----------------------------------------
 BYTE   PATT
  POIN2 Label_013AF29D
//  #04 //104   ----------------------------------------
 BYTE   PATT
  POIN2 Label_013AF2B0
//  #04 //105   ----------------------------------------
 BYTE   PATT
  POIN2 Label_013AF283
//  #04 //106   ----------------------------------------
 BYTE   PATT
  POIN2 Label_013AF29D
//  #04 //107   ----------------------------------------
 BYTE   PATT
  POIN2 Label_013AF2B0
//  #04 //108   ----------------------------------------
 BYTE   PATT
  POIN2 Label_013AF283
//  #04 //109   ----------------------------------------
 BYTE   PATT
  POIN2 Label_013AF29D
//  #04 //110   ----------------------------------------
 BYTE   PATT
  POIN2 Label_013AF2B0
//  #04 //111   ----------------------------------------
 BYTE   PATT
  POIN2 Label_013AF2E7
//  #04 //112   ----------------------------------------
 BYTE   PATT
  POIN2 Label_013AF301
//  #04 //113   ----------------------------------------
 BYTE   PATT
  POIN2 Label_013AF314
//  #04 //114   ----------------------------------------
 BYTE   PATT
  POIN2 Label_013AF2E7
//  #04 //115   ----------------------------------------
 BYTE   PATT
  POIN2 Label_013AF301
//  #04 //116   ----------------------------------------
 BYTE   PATT
  POIN2 Label_013AF314
//  #04 //117   ----------------------------------------
 BYTE   PATT
  POIN2 Label_013AF2E7
//  #04 //118   ----------------------------------------
 BYTE   PATT
  POIN2 Label_013AF301
//  #04 //119   ----------------------------------------
 BYTE   PATT
  POIN2 Label_013AF314
//  #04 //120   ----------------------------------------
 BYTE   PATT
  POIN2 Label_013AF2E7
//  #04 //121   ----------------------------------------
 BYTE   PATT
  POIN2 Label_013AF350
//  #04 //122   ----------------------------------------
 BYTE   PATT
  POIN2 Label_013AF363
//  #04 //123   ----------------------------------------
 BYTE   PATT
  POIN2 Label_013AF283
//  #04 //124   ----------------------------------------
 BYTE   PATT
  POIN2 Label_013AF29D
//  #04 //125   ----------------------------------------
 BYTE   PATT
  POIN2 Label_013AF2B0
//  #04 //126   ----------------------------------------
 BYTE   PATT
  POIN2 Label_013AF283
//  #04 //127   ----------------------------------------
 BYTE   PATT
  POIN2 Label_013AF29D
//  #04 //128   ----------------------------------------
 BYTE   PATT
  POIN2 Label_013AF2B0
//  #04 //129   ----------------------------------------
 BYTE   PATT
  POIN2 Label_013AF283
//  #04 //130   ----------------------------------------
 BYTE   PATT
  POIN2 Label_013AF29D
//  #04 //131   ----------------------------------------
 BYTE   PATT
  POIN2 Label_013AF2B0
//  #04 //132   ----------------------------------------
 BYTE   PATT
  POIN2 Label_013AF283
//  #04 //133   ----------------------------------------
 BYTE   PATT
  POIN2 Label_013AF3AE
//  #04 //134   ----------------------------------------
 BYTE   PATT
  POIN2 Label_013AF3C1
//  #04 //135   ----------------------------------------
 BYTE   PATT
  POIN2 Label_013AF2E7
//  #04 //136   ----------------------------------------
 BYTE   PATT
  POIN2 Label_013AF301
//  #04 //137   ----------------------------------------
 BYTE   PATT
  POIN2 Label_013AF314
//  #04 //138   ----------------------------------------
 BYTE   PATT
  POIN2 Label_013AF3E9
//  #04 //139   ----------------------------------------
 BYTE   PATT
  POIN2 Label_013AF403
//  #04 //140   ----------------------------------------
 BYTE   PATT
  POIN2 Label_013AF416
//  #04 //141   ----------------------------------------
 BYTE   PATT
  POIN2 Label_013AF42F
//  #04 //142   ----------------------------------------
 BYTE   PATT
  POIN2 Label_013AF449
//  #04 //143   ----------------------------------------
 BYTE   PATT
  POIN2 Label_013AF45C
//  #04 //144   ----------------------------------------
 BYTE   PATT
  POIN2 Label_013AF475
//  #04 //145   ----------------------------------------
 BYTE   PATT
  POIN2 Label_013AF47E
//  #04 //146   ----------------------------------------
 BYTE   PATT
  POIN2 Label_013AF488
//  #04 //147   ----------------------------------------
 BYTE   PATT
  POIN2 Label_013AF283
//  #04 //148   ----------------------------------------
 BYTE   PATT
  POIN2 Label_013AF29D
//  #04 //149   ----------------------------------------
 BYTE   PATT
  POIN2 Label_013AF2B0
//  #04 //150   ----------------------------------------
 BYTE   PATT
  POIN2 Label_013AF4A1
//  #04 //151   ----------------------------------------
 BYTE   PATT
  POIN2 Label_013AF4BB
//  #04 //152   ----------------------------------------
 BYTE   PATT
  POIN2 Label_013AF4CE
//  #04 //153   ----------------------------------------
 BYTE   PATT
  POIN2 Label_013AF3E9
//  #04 //154   ----------------------------------------
 BYTE   PATT
  POIN2 Label_013AF4EC
//  #04 //155   ----------------------------------------
 BYTE   PATT
  POIN2 Label_013AF4FF
//  #04 //156   ----------------------------------------
 BYTE   PATT
  POIN2 Label_013AF518
//  #04 //157   ----------------------------------------
 BYTE   PATT
  POIN2 Label_013AF532
//  #04 //158   ----------------------------------------
 BYTE   PATT
  POIN2 Label_013AF545
//  #04 //159   ----------------------------------------
 BYTE   PATT
  POIN2 Label_013AF2E7
//  #04 //160   ----------------------------------------
 BYTE   PATT
  POIN2 Label_013AF563
//  #04 //161   ----------------------------------------
 BYTE   PATT
  POIN2 Label_013AF576
//  #04 //162   ----------------------------------------
 BYTE   PATT
  POIN2 Label_013AF283
//  #04 //163   ----------------------------------------
 BYTE   PATT
  POIN2 Label_013AF29D
//  #04 //164   ----------------------------------------
 BYTE   PATT
  POIN2 Label_013AF2B0
//  #04 //165   ----------------------------------------
 BYTE   PATT
  POIN2 Label_013AF283
//  #04 //166   ----------------------------------------
 BYTE   PATT
  POIN2 Label_013AF29D
//  #04 //167   ----------------------------------------
 BYTE   PATT
  POIN2 Label_013AF2B0
//  #04 //168   ----------------------------------------
 BYTE   PATT
  POIN2 Label_013AF283
//  #04 //169   ----------------------------------------
 BYTE   PATT
  POIN2 Label_013AF29D
//  #04 //170   ----------------------------------------
 BYTE   PATT
  POIN2 Label_013AF2B0
//  #04 //171   ----------------------------------------
 BYTE   PATT
  POIN2 Label_013AF2E7
//  #04 //172   ----------------------------------------
 BYTE   PATT
  POIN2 Label_013AF301
//  #04 //173   ----------------------------------------
 BYTE   PATT
  POIN2 Label_013AF314
//  #04 //174   ----------------------------------------
 BYTE   PATT
  POIN2 Label_013AF2E7
//  #04 //175   ----------------------------------------
 BYTE   PATT
  POIN2 Label_013AF301
//  #04 //176   ----------------------------------------
 BYTE   PATT
  POIN2 Label_013AF314
//  #04 //177   ----------------------------------------
 BYTE   PATT
  POIN2 Label_013AF2E7
//  #04 //178   ----------------------------------------
 BYTE   PATT
  POIN2 Label_013AF301
//  #04 //179   ----------------------------------------
 BYTE   PATT
  POIN2 Label_013AF314
//  #04 //180   ----------------------------------------
 BYTE   PATT
  POIN2 Label_013AF2E7
//  #04 //181   ----------------------------------------
 BYTE   PATT
  POIN2 Label_013AF350
//  #04 //182   ----------------------------------------
 BYTE   PATT
  POIN2 Label_013AF363
//  #04 //183   ----------------------------------------
 BYTE   PATT
  POIN2 Label_013AF283
//  #04 //184   ----------------------------------------
 BYTE   PATT
  POIN2 Label_013AF29D
//  #04 //185   ----------------------------------------
 BYTE   PATT
  POIN2 Label_013AF2B0
//  #04 //186   ----------------------------------------
 BYTE   PATT
  POIN2 Label_013AF283
//  #04 //187   ----------------------------------------
 BYTE   PATT
  POIN2 Label_013AF29D
//  #04 //188   ----------------------------------------
 BYTE   PATT
  POIN2 Label_013AF2B0
//  #04 //189   ----------------------------------------
 BYTE   PATT
  POIN2 Label_013AF283
//  #04 //190   ----------------------------------------
 BYTE   PATT
  POIN2 Label_013AF29D
//  #04 //191   ----------------------------------------
 BYTE   PATT
  POIN2 Label_013AF2B0
//  #04 //192   ----------------------------------------
 BYTE   PATT
  POIN2 Label_013AF283
//  #04 //193   ----------------------------------------
 BYTE   PATT
  POIN2 Label_013AF3AE
//  #04 //194   ----------------------------------------
 BYTE   PATT
  POIN2 Label_013AF3C1
//  #04 //195   ----------------------------------------
 BYTE   PATT
  POIN2 Label_013AF2E7
//  #04 //196   ----------------------------------------
 BYTE   PATT
  POIN2 Label_013AF301
//  #04 //197   ----------------------------------------
 BYTE   PATT
  POIN2 Label_013AF314
//  #04 //198   ----------------------------------------
 BYTE   PATT
  POIN2 Label_013AF3E9
//  #04 //199   ----------------------------------------
 BYTE   PATT
  POIN2 Label_013AF403
//  #04 //200   ----------------------------------------
 BYTE   PATT
  POIN2 Label_013AF416
//  #04 //201   ----------------------------------------
 BYTE   PATT
  POIN2 Label_013AF42F
//  #04 //202   ----------------------------------------
 BYTE   PATT
  POIN2 Label_013AF449
//  #04 //203   ----------------------------------------
 BYTE   PATT
  POIN2 Label_013AF45C
//  #04 //204   ----------------------------------------
 BYTE   PATT
  POIN2 Label_013AF475
//  #04 //205   ----------------------------------------
 BYTE   PATT
  POIN2 Label_013AF47E
//  #04 //206   ----------------------------------------
 BYTE   PATT
  POIN2 Label_013AF488
//  #04 //207   ----------------------------------------
 BYTE   PATT
  POIN2 Label_013AF283
//  #04 //208   ----------------------------------------
 BYTE   PATT
  POIN2 Label_013AF29D
//  #04 //209   ----------------------------------------
 BYTE   PATT
  POIN2 Label_013AF2B0
//  #04 //210   ----------------------------------------
 BYTE   PATT
  POIN2 Label_013AF4A1
//  #04 //211   ----------------------------------------
 BYTE   PATT
  POIN2 Label_013AF4BB
//  #04 //212   ----------------------------------------
 BYTE   PATT
  POIN2 Label_013AF4CE
//  #04 //213   ----------------------------------------
 BYTE   PATT
  POIN2 Label_013AF3E9
//  #04 //214   ----------------------------------------
 BYTE   PATT
  POIN2 Label_013AF4EC
//  #04 //215   ----------------------------------------
 BYTE   PATT
  POIN2 Label_013AF4FF
//  #04 //216   ----------------------------------------
 BYTE   PATT
  POIN2 Label_013AF518
//  #04 //217   ----------------------------------------
 BYTE   PATT
  POIN2 Label_013AF532
//  #04 //218   ----------------------------------------
 BYTE   PATT
  POIN2 Label_013AF545
//  #04 //219   ----------------------------------------
 BYTE   PATT
  POIN2 Label_013AF2E7
//  #04 //220   ----------------------------------------
 BYTE   PATT
  POIN2 Label_013AF563
//  #04 //221   ----------------------------------------
 BYTE   PATT
  POIN2 Label_013AF576
//  #04 //222   ----------------------------------------
 BYTE   PATT
  POIN2 Label_013AF283
//  #04 //223   ----------------------------------------
 BYTE   PATT
  POIN2 Label_013AF29D
//  #04 //224   ----------------------------------------
 BYTE   PATT
  POIN2 Label_013AF2B0
//  #04 //225   ----------------------------------------
 BYTE   PATT
  POIN2 Label_013AF283
//  #04 //226   ----------------------------------------
 BYTE   PATT
  POIN2 Label_013AF29D
//  #04 //227   ----------------------------------------
 BYTE   PATT
  POIN2 Label_013AF2B0
//  #04 //228   ----------------------------------------
 BYTE   PATT
  POIN2 Label_013AF283
//  #04 //229   ----------------------------------------
 BYTE   PATT
  POIN2 Label_013AF29D
//  #04 //230   ----------------------------------------
 BYTE   PATT
  POIN2 Label_013AF2B0
//  #04 //231   ----------------------------------------
 BYTE   PATT
  POIN2 Label_013AF2E7
//  #04 //232   ----------------------------------------
 BYTE   PATT
  POIN2 Label_013AF301
//  #04 //233   ----------------------------------------
 BYTE   PATT
  POIN2 Label_013AF314
//  #04 //234   ----------------------------------------
 BYTE   PATT
  POIN2 Label_013AF2E7
//  #04 //235   ----------------------------------------
 BYTE   PATT
  POIN2 Label_013AF301
//  #04 //236   ----------------------------------------
 BYTE   PATT
  POIN2 Label_013AF314
//  #04 //237   ----------------------------------------
 BYTE   PATT
  POIN2 Label_013AF2E7
//  #04 //238   ----------------------------------------
 BYTE   PATT
  POIN2 Label_013AF301
//  #04 //239   ----------------------------------------
 BYTE   PATT
  POIN2 Label_013AF314
//  #04 //240   ----------------------------------------
 BYTE   PATT
  POIN2 Label_013AF2E7
//  #04 //241   ----------------------------------------
 BYTE   PATT
  POIN2 Label_013AF350
//  #04 //242   ----------------------------------------
 BYTE   PATT
  POIN2 Label_013AF363
//  #04 //243   ----------------------------------------
 BYTE   PATT
  POIN2 Label_013AF283
//  #04 //244   ----------------------------------------
 BYTE   PATT
  POIN2 Label_013AF29D
//  #04 //245   ----------------------------------------
 BYTE   PATT
  POIN2 Label_013AF2B0
//  #04 //246   ----------------------------------------
 BYTE   PATT
  POIN2 Label_013AF4A1
//  #04 //247   ----------------------------------------
 BYTE   PATT
  POIN2 Label_013AF4BB
//  #04 //248   ----------------------------------------
 BYTE   PATT
  POIN2 Label_013AF4CE
//  #04 //249   ----------------------------------------
 BYTE   PATT
  POIN2 Label_013AF3E9
//  #04 //250   ----------------------------------------
 BYTE   PATT
  POIN2 Label_013AF4EC
//  #04 //251   ----------------------------------------
 BYTE   PATT
  POIN2 Label_013AF4FF
//  #04 //252   ----------------------------------------
 BYTE   PATT
  POIN2 Label_013AF518
//  #04 //253   ----------------------------------------
 BYTE   PATT
  POIN2 Label_013AF532
//  #04 //254   ----------------------------------------
 BYTE   PATT
  POIN2 Label_013AF545
//  #04 //255   ----------------------------------------
 BYTE   PATT
  POIN2 Label_013AF2E7
//  #04 //256   ----------------------------------------
 BYTE   PATT
  POIN2 Label_013AF563
//  #04 //257   ----------------------------------------
 BYTE   PATT
  POIN2 Label_013AF576
//  #04 //258   ----------------------------------------
 BYTE   PATT
  POIN2 Label_013AF58F
//  #04 //259   ----------------------------------------
 BYTE   W72
 BYTE   N22  Dn4  v064
 BYTE   W24
//  #04 //260   ----------------------------------------
 BYTE   PATT
  POIN2 Label_013AF59E
//  #04 //261   ----------------------------------------
 BYTE   PATT
  POIN2 Label_013AF5A9
//  #04 //262   ----------------------------------------
 BYTE   W72
 BYTE   N22  Cn4  v064
 BYTE   W24
//  #04 //263   ----------------------------------------
 BYTE   PATT
  POIN2 Label_013AF5B8
//  #04 //264   ----------------------------------------
 BYTE   PATT
  POIN2 Label_013AF5C3
//  #04 //265   ----------------------------------------
 BYTE   W72
 BYTE   N22  As3  v064
 BYTE   W24
//  #04 //266   ----------------------------------------
 BYTE   PATT
  POIN2 Label_013AF5D5
//  #04 //267   ----------------------------------------
 BYTE   TIE  Gs3  v064
 BYTE   W96
//  #04 //268   ----------------------------------------
 BYTE   W40
 BYTE   EOT
 BYTE   W56
//  #04 //269   ----------------------------------------
 BYTE   W96
//  #04 //270   ----------------------------------------
 BYTE   PATT
  POIN2 Label_013AF5E7
//  #04 //271   ----------------------------------------
 BYTE   W72
 BYTE   N22  Ds4  v064
 BYTE   W24
//  #04 //272   ----------------------------------------
 BYTE   PATT
  POIN2 Label_013AF5F6
//  #04 //273   ----------------------------------------
 BYTE   PATT
  POIN2 Label_013AF601
//  #04 //274   ----------------------------------------
 BYTE   W72
 BYTE   N22  Dn4  v064
 BYTE   W24
//  #04 //275   ----------------------------------------
 BYTE   PATT
  POIN2 Label_013AF610
//  #04 //276   ----------------------------------------
 BYTE   PATT
  POIN2 Label_013AF61B
//  #04 //277   ----------------------------------------
 BYTE   W72
 BYTE   N22  Cn4  v064
 BYTE   W24
//  #04 //278   ----------------------------------------
 BYTE   PATT
  POIN2 Label_013AF62D
//  #04 //279   ----------------------------------------
 BYTE   TIE  As3  v064
 BYTE   W96
//  #04 //280   ----------------------------------------
 BYTE   W40
 BYTE   EOT
 BYTE   W56
//  #04 //281   ----------------------------------------
 BYTE   W96
//  #04 //282   ----------------------------------------
 BYTE   PATT
  POIN2 Label_013AF3E9
//  #04 //283   ----------------------------------------
 BYTE   PATT
  POIN2 Label_013AF403
//  #04 //284   ----------------------------------------
 BYTE   PATT
  POIN2 Label_013AF416
//  #04 //285   ----------------------------------------
 BYTE   PATT
  POIN2 Label_013AF42F
//  #04 //286   ----------------------------------------
 BYTE   PATT
  POIN2 Label_013AF449
//  #04 //287   ----------------------------------------
 BYTE   PATT
  POIN2 Label_013AF45C
//  #04 //288   ----------------------------------------
 BYTE   N16  Gs2  v076
 BYTE   N16  Cn3
 BYTE   N16  Ds3
 BYTE   N16  Gn3
 BYTE   W96
//  #04 //289   ----------------------------------------
 BYTE   PATT
  POIN2 Label_013AF47E
//  #04 //290   ----------------------------------------
 BYTE   PATT
  POIN2 Label_013AF488
//  #04 //291   ----------------------------------------
 BYTE   PATT
  POIN2 Label_013AF283
//  #04 //292   ----------------------------------------
 BYTE   PATT
  POIN2 Label_013AF29D
//  #04 //293   ----------------------------------------
 BYTE   PATT
  POIN2 Label_013AF2B0
//  #04 //294   ----------------------------------------
 BYTE   PATT
  POIN2 Label_013AF283
//  #04 //295   ----------------------------------------
 BYTE   W24
 BYTE   N22  Gn2  v064
 BYTE   N22  As2
 BYTE   N22  Dn3
 BYTE   W24
 BYTE   TIE  Gn2
 BYTE   TIE  As2
 BYTE   TIE  Dn3
 BYTE   W48
//  #04 //296   ----------------------------------------
 BYTE   W88
 BYTE   EOT
 BYTE   Gn2  v058
 BYTE   Dn3
 BYTE   W07
 BYTE   GoTo
  POIN2 Label_013AF216
 BYTE   FINE

//**************** Track 5 (Midi-Chn.4) ****************//

KKCafe_005:
//  #05 //000   ----------------------------------------
 BYTE   KEYSH   KKCafe_key+0
Label_013AFA4E:
 BYTE   VOICE   124
 BYTE   VOL   69*KKCafe_mvl/mxv
 BYTE   PAN   c_v+0
 BYTE   N23  As1  v080
 BYTE   W24
 BYTE   Fs1
 BYTE   N14  As1
 BYTE   W14
 BYTE   N09
 BYTE   W10
 BYTE   N23  Fs1
 BYTE   N23  As1
 BYTE   W24
 BYTE   N23
 BYTE   W24
//  #05 //001   ----------------------------------------
 BYTE   Fs1
 BYTE   N14  As1
 BYTE   W14
 BYTE   N09
 BYTE   W10
 BYTE   N23  Fs1
 BYTE   N23  As1
 BYTE   W24
 BYTE   N23
 BYTE   W24
 BYTE   Fs1
 BYTE   N14  As1
 BYTE   W14
 BYTE   N09
 BYTE   W10
//  #05 //002   ----------------------------------------
 BYTE   N23  Fs1
 BYTE   N23  As1
 BYTE   W24
 BYTE   N23
 BYTE   W24
 BYTE   Fs1
 BYTE   N14  As1
 BYTE   W14
 BYTE   N09
 BYTE   W10
 BYTE   N23  Fs1
 BYTE   N23  As1
 BYTE   W24
//  #05 //003   ----------------------------------------
 BYTE   N23
 BYTE   W24
 BYTE   N14  Cn1
 BYTE   N14  Fs1
 BYTE   N14  As1
 BYTE   W14
 BYTE   N09  Cn1
 BYTE   N09  As1
 BYTE   W10
 BYTE   N14  Cn1
 BYTE   N23  Fs1
 BYTE   N23  As1
 BYTE   W14
 BYTE   N09  Cn1
 BYTE   W10
 BYTE   N23  As1
 BYTE   W24
//  #05 //004   ----------------------------------------
 BYTE   N14  Cn1
 BYTE   N14  Fs1
 BYTE   N14  As1
 BYTE   W14
 BYTE   N09  Cn1
 BYTE   N09  As1
 BYTE   W10
 BYTE   N14  Cn1
 BYTE   N23  Fs1
 BYTE   N23  As1
 BYTE   W14
 BYTE   N09  Cn1
 BYTE   W10
 BYTE   N23  As1
 BYTE   W24
 BYTE   N14  Cn1
 BYTE   N14  Fs1
 BYTE   N14  As1
 BYTE   W14
 BYTE   N09  Cn1
 BYTE   N09  As1
 BYTE   W10
//  #05 //005   ----------------------------------------
 BYTE   N14  Cn1
 BYTE   N23  Fs1
 BYTE   N23  As1
 BYTE   W14
 BYTE   N09  Cn1
 BYTE   W10
 BYTE   N23  As1
 BYTE   W24
 BYTE   N14  Cn1
 BYTE   N14  Fs1
 BYTE   N14  As1
 BYTE   W14
 BYTE   N09  Cn1
 BYTE   N09  As1
 BYTE   W10
 BYTE   N14  Cn1
 BYTE   N23  Fs1
 BYTE   N23  As1
 BYTE   W14
 BYTE   N09  Cn1
 BYTE   W10
//  #05 //006   ----------------------------------------
Label_013AFAED:
 BYTE   N23  As1  v052
 BYTE   W24
 BYTE   Fs1
 BYTE   N14  As1
 BYTE   W14
 BYTE   N09
 BYTE   W10
 BYTE   N23  Fs1
 BYTE   N23  As1
 BYTE   W24
 BYTE   N23
 BYTE   W24
 BYTE   PEND 
//  #05 //007   ----------------------------------------
Label_013AFAFF:
 BYTE   N23  Fs1  v052
 BYTE   N14  As1
 BYTE   W14
 BYTE   N09
 BYTE   W10
 BYTE   N23  Fs1
 BYTE   N23  As1
 BYTE   W24
 BYTE   N23
 BYTE   W24
 BYTE   Fs1
 BYTE   N14  As1
 BYTE   W14
 BYTE   N09
 BYTE   W10
 BYTE   PEND 
//  #05 //008   ----------------------------------------
Label_013AFB15:
 BYTE   N23  Fs1  v052
 BYTE   N23  As1
 BYTE   W24
 BYTE   N23
 BYTE   W24
 BYTE   Fs1
 BYTE   N14  As1
 BYTE   W14
 BYTE   N09
 BYTE   W10
 BYTE   N23  Fs1
 BYTE   N23  As1
 BYTE   W24
 BYTE   PEND 
//  #05 //009   ----------------------------------------
 BYTE   PATT
  POIN2 Label_013AFAED
//  #05 //010   ----------------------------------------
 BYTE   PATT
  POIN2 Label_013AFAFF
//  #05 //011   ----------------------------------------
 BYTE   PATT
  POIN2 Label_013AFB15
//  #05 //012   ----------------------------------------
 BYTE   PATT
  POIN2 Label_013AFAED
//  #05 //013   ----------------------------------------
 BYTE   PATT
  POIN2 Label_013AFAFF
//  #05 //014   ----------------------------------------
 BYTE   PATT
  POIN2 Label_013AFB15
//  #05 //015   ----------------------------------------
Label_013AFB47:
 BYTE   N23  As1  v052
 BYTE   W24
 BYTE   N14  Cn1
 BYTE   N14  Fs1
 BYTE   N14  As1
 BYTE   W14
 BYTE   N09  Cn1
 BYTE   N09  As1
 BYTE   W10
 BYTE   N14  Cn1
 BYTE   N23  Fs1
 BYTE   N23  As1
 BYTE   W14
 BYTE   N09  Cn1
 BYTE   W10
 BYTE   N23  As1
 BYTE   W24
 BYTE   PEND 
//  #05 //016   ----------------------------------------
Label_013AFB65:
 BYTE   N14  Cn1  v052
 BYTE   N14  Fs1
 BYTE   N14  As1
 BYTE   W14
 BYTE   N09  Cn1
 BYTE   N09  As1
 BYTE   W10
 BYTE   N14  Cn1
 BYTE   N23  Fs1
 BYTE   N23  As1
 BYTE   W14
 BYTE   N09  Cn1
 BYTE   W10
 BYTE   N23  As1
 BYTE   W24
 BYTE   N14  Cn1
 BYTE   N14  Fs1
 BYTE   N14  As1
 BYTE   W14
 BYTE   N09  Cn1
 BYTE   N09  As1
 BYTE   W10
 BYTE   PEND 
//  #05 //017   ----------------------------------------
Label_013AFB8C:
 BYTE   N14  Cn1  v052
 BYTE   N23  Fs1
 BYTE   N23  As1
 BYTE   W14
 BYTE   N09  Cn1
 BYTE   W10
 BYTE   N23  As1
 BYTE   W24
 BYTE   N14  Cn1
 BYTE   N14  Fs1
 BYTE   N14  As1
 BYTE   W14
 BYTE   N09  Cn1
 BYTE   N09  As1
 BYTE   W10
 BYTE   N14  Cn1
 BYTE   N23  Fs1
 BYTE   N23  As1
 BYTE   W14
 BYTE   N09  Cn1
 BYTE   W10
 BYTE   PEND 
//  #05 //018   ----------------------------------------
 BYTE   PATT
  POIN2 Label_013AFAED
//  #05 //019   ----------------------------------------
 BYTE   PATT
  POIN2 Label_013AFAFF
//  #05 //020   ----------------------------------------
 BYTE   PATT
  POIN2 Label_013AFB15
//  #05 //021   ----------------------------------------
 BYTE   PATT
  POIN2 Label_013AFAED
//  #05 //022   ----------------------------------------
 BYTE   PATT
  POIN2 Label_013AFAFF
//  #05 //023   ----------------------------------------
 BYTE   PATT
  POIN2 Label_013AFB15
//  #05 //024   ----------------------------------------
 BYTE   PATT
  POIN2 Label_013AFAED
//  #05 //025   ----------------------------------------
 BYTE   PATT
  POIN2 Label_013AFAFF
//  #05 //026   ----------------------------------------
 BYTE   PATT
  POIN2 Label_013AFB15
//  #05 //027   ----------------------------------------
 BYTE   PATT
  POIN2 Label_013AFB47
//  #05 //028   ----------------------------------------
 BYTE   PATT
  POIN2 Label_013AFB65
//  #05 //029   ----------------------------------------
 BYTE   PATT
  POIN2 Label_013AFB8C
//  #05 //030   ----------------------------------------
 BYTE   PATT
  POIN2 Label_013AFAED
//  #05 //031   ----------------------------------------
 BYTE   PATT
  POIN2 Label_013AFAFF
//  #05 //032   ----------------------------------------
 BYTE   PATT
  POIN2 Label_013AFB15
//  #05 //033   ----------------------------------------
 BYTE   PATT
  POIN2 Label_013AFAED
//  #05 //034   ----------------------------------------
 BYTE   PATT
  POIN2 Label_013AFAFF
//  #05 //035   ----------------------------------------
 BYTE   PATT
  POIN2 Label_013AFB15
//  #05 //036   ----------------------------------------
 BYTE   PATT
  POIN2 Label_013AFAED
//  #05 //037   ----------------------------------------
 BYTE   PATT
  POIN2 Label_013AFAFF
//  #05 //038   ----------------------------------------
 BYTE   PATT
  POIN2 Label_013AFB15
//  #05 //039   ----------------------------------------
 BYTE   PATT
  POIN2 Label_013AFB47
//  #05 //040   ----------------------------------------
 BYTE   PATT
  POIN2 Label_013AFB65
//  #05 //041   ----------------------------------------
 BYTE   PATT
  POIN2 Label_013AFB8C
//  #05 //042   ----------------------------------------
 BYTE   PATT
  POIN2 Label_013AFAED
//  #05 //043   ----------------------------------------
 BYTE   PATT
  POIN2 Label_013AFAFF
//  #05 //044   ----------------------------------------
 BYTE   PATT
  POIN2 Label_013AFB15
//  #05 //045   ----------------------------------------
 BYTE   PATT
  POIN2 Label_013AFAED
//  #05 //046   ----------------------------------------
 BYTE   PATT
  POIN2 Label_013AFAFF
//  #05 //047   ----------------------------------------
 BYTE   PATT
  POIN2 Label_013AFB15
//  #05 //048   ----------------------------------------
Label_013AFC47:
 BYTE   N23  Cn1  v052
 BYTE   N32  Fs1  v060
 BYTE   N23  As1  v052
 BYTE   W96
 BYTE   PEND 
//  #05 //049   ----------------------------------------
Label_013AFC52:
 BYTE   W48
 BYTE   N23  Cn1  v052
 BYTE   N23  Fs1
 BYTE   N23  As1
 BYTE   W48
 BYTE   PEND 
//  #05 //050   ----------------------------------------
Label_013AFC5C:
 BYTE   W24
 BYTE   N23  Cn1  v052
 BYTE   N23  Fs1
 BYTE   N23  As1
 BYTE   W72
 BYTE   PEND 
//  #05 //051   ----------------------------------------
 BYTE   PATT
  POIN2 Label_013AFB47
//  #05 //052   ----------------------------------------
 BYTE   PATT
  POIN2 Label_013AFB65
//  #05 //053   ----------------------------------------
 BYTE   PATT
  POIN2 Label_013AFB8C
//  #05 //054   ----------------------------------------
 BYTE   PATT
  POIN2 Label_013AFAED
//  #05 //055   ----------------------------------------
 BYTE   PATT
  POIN2 Label_013AFAFF
//  #05 //056   ----------------------------------------
 BYTE   PATT
  POIN2 Label_013AFB15
//  #05 //057   ----------------------------------------
Label_013AFC84:
 BYTE   N23  As1  v052
 BYTE   W24
 BYTE   N14  Cn1
 BYTE   N14  Fs1
 BYTE   N14  As1
 BYTE   W14
 BYTE   N09  Cn1
 BYTE   N09  As1
 BYTE   W10
 BYTE   N14  Cn1
 BYTE   N23  Fs1
 BYTE   N23  As1
 BYTE   W24
 BYTE   N23
 BYTE   W24
 BYTE   PEND 
//  #05 //058   ----------------------------------------
Label_013AFC9E:
 BYTE   N14  Cn1  v052
 BYTE   N14  Fs1
 BYTE   N14  As1
 BYTE   W14
 BYTE   N09  Cn1
 BYTE   N09  As1
 BYTE   W10
 BYTE   N14  Cn1
 BYTE   N23  Fs1
 BYTE   N23  As1
 BYTE   W24
 BYTE   N23
 BYTE   W24
 BYTE   N14  Cn1
 BYTE   N14  Fs1
 BYTE   N14  As1
 BYTE   W14
 BYTE   N09  Cn1
 BYTE   N09  As1
 BYTE   W10
 BYTE   PEND 
//  #05 //059   ----------------------------------------
Label_013AFCC1:
 BYTE   N14  Cn1  v052
 BYTE   N23  Fs1
 BYTE   N23  As1
 BYTE   W24
 BYTE   N23
 BYTE   W24
 BYTE   N14  Cn1
 BYTE   N14  Fs1
 BYTE   N14  As1
 BYTE   W14
 BYTE   N09
 BYTE   W10
 BYTE   N14  Cn1
 BYTE   N23  Fs1
 BYTE   N23  As1
 BYTE   W24
 BYTE   PEND 
//  #05 //060   ----------------------------------------
 BYTE   PATT
  POIN2 Label_013AFAED
//  #05 //061   ----------------------------------------
 BYTE   PATT
  POIN2 Label_013AFAFF
//  #05 //062   ----------------------------------------
 BYTE   PATT
  POIN2 Label_013AFB15
//  #05 //063   ----------------------------------------
 BYTE   PATT
  POIN2 Label_013AFB47
//  #05 //064   ----------------------------------------
 BYTE   PATT
  POIN2 Label_013AFB65
//  #05 //065   ----------------------------------------
 BYTE   PATT
  POIN2 Label_013AFB8C
//  #05 //066   ----------------------------------------
 BYTE   PATT
  POIN2 Label_013AFAED
//  #05 //067   ----------------------------------------
 BYTE   PATT
  POIN2 Label_013AFAFF
//  #05 //068   ----------------------------------------
 BYTE   PATT
  POIN2 Label_013AFB15
//  #05 //069   ----------------------------------------
 BYTE   PATT
  POIN2 Label_013AFAED
//  #05 //070   ----------------------------------------
 BYTE   PATT
  POIN2 Label_013AFAFF
//  #05 //071   ----------------------------------------
 BYTE   PATT
  POIN2 Label_013AFB15
//  #05 //072   ----------------------------------------
 BYTE   PATT
  POIN2 Label_013AFAED
//  #05 //073   ----------------------------------------
 BYTE   PATT
  POIN2 Label_013AFAFF
//  #05 //074   ----------------------------------------
 BYTE   PATT
  POIN2 Label_013AFB15
//  #05 //075   ----------------------------------------
 BYTE   PATT
  POIN2 Label_013AFB47
//  #05 //076   ----------------------------------------
 BYTE   PATT
  POIN2 Label_013AFB65
//  #05 //077   ----------------------------------------
 BYTE   PATT
  POIN2 Label_013AFB8C
//  #05 //078   ----------------------------------------
 BYTE   PATT
  POIN2 Label_013AFAED
//  #05 //079   ----------------------------------------
 BYTE   PATT
  POIN2 Label_013AFAFF
//  #05 //080   ----------------------------------------
 BYTE   PATT
  POIN2 Label_013AFB15
//  #05 //081   ----------------------------------------
 BYTE   PATT
  POIN2 Label_013AFAED
//  #05 //082   ----------------------------------------
 BYTE   PATT
  POIN2 Label_013AFAFF
//  #05 //083   ----------------------------------------
 BYTE   PATT
  POIN2 Label_013AFB15
//  #05 //084   ----------------------------------------
 BYTE   PATT
  POIN2 Label_013AFAED
//  #05 //085   ----------------------------------------
 BYTE   PATT
  POIN2 Label_013AFAFF
//  #05 //086   ----------------------------------------
 BYTE   PATT
  POIN2 Label_013AFB15
//  #05 //087   ----------------------------------------
 BYTE   PATT
  POIN2 Label_013AFB47
//  #05 //088   ----------------------------------------
 BYTE   PATT
  POIN2 Label_013AFB65
//  #05 //089   ----------------------------------------
 BYTE   PATT
  POIN2 Label_013AFB8C
//  #05 //090   ----------------------------------------
 BYTE   PATT
  POIN2 Label_013AFAED
//  #05 //091   ----------------------------------------
 BYTE   PATT
  POIN2 Label_013AFAFF
//  #05 //092   ----------------------------------------
 BYTE   PATT
  POIN2 Label_013AFB15
//  #05 //093   ----------------------------------------
 BYTE   PATT
  POIN2 Label_013AFC84
//  #05 //094   ----------------------------------------
 BYTE   PATT
  POIN2 Label_013AFC9E
//  #05 //095   ----------------------------------------
 BYTE   PATT
  POIN2 Label_013AFCC1
//  #05 //096   ----------------------------------------
 BYTE   PATT
  POIN2 Label_013AFAED
//  #05 //097   ----------------------------------------
 BYTE   PATT
  POIN2 Label_013AFAFF
//  #05 //098   ----------------------------------------
 BYTE   PATT
  POIN2 Label_013AFB15
//  #05 //099   ----------------------------------------
 BYTE   N23  As1  v052
 BYTE   W24
 BYTE   N14  Cn1
 BYTE   N14  Fs1
 BYTE   N14  As1
 BYTE   W14
 BYTE   N09  Cn1
 BYTE   N09  As1
 BYTE   W10
 BYTE   N14  Cn1
 BYTE   N23  Fs1
 BYTE   N23  As1
 BYTE   W14
 BYTE   N09  Cn1
 BYTE   W10
 BYTE   N14
 BYTE   N23  As1
 BYTE   W14
 BYTE   N09  Cn1
 BYTE   W10
//  #05 //100   ----------------------------------------
 BYTE   N14
 BYTE   N14  Fs1
 BYTE   N14  As1
 BYTE   W14
 BYTE   N09  Cn1
 BYTE   N09  As1
 BYTE   W10
 BYTE   N14  Cn1
 BYTE   N23  Fs1
 BYTE   N23  As1
 BYTE   W14
 BYTE   N09  Cn1
 BYTE   W10
 BYTE   N14
 BYTE   N23  As1
 BYTE   W14
 BYTE   N09  Cn1
 BYTE   W10
 BYTE   N14
 BYTE   N14  Fs1
 BYTE   N14  As1
 BYTE   W14
 BYTE   N09  Cn1
 BYTE   N09  As1
 BYTE   W10
//  #05 //101   ----------------------------------------
 BYTE   N14  Cn1
 BYTE   N23  Fs1
 BYTE   N23  As1
 BYTE   W14
 BYTE   N09  Cn1
 BYTE   W10
 BYTE   N14
 BYTE   N23  As1
 BYTE   W14
 BYTE   N09  Cn1
 BYTE   W10
 BYTE   N14
 BYTE   N14  Fs1
 BYTE   N14  As1
 BYTE   W14
 BYTE   N09  Cn1
 BYTE   N09  As1
 BYTE   W10
 BYTE   N14  Cn1
 BYTE   N23  Fs1
 BYTE   N23  As1
 BYTE   W14
 BYTE   N09  Cn1
 BYTE   W10
//  #05 //102   ----------------------------------------
 BYTE   PATT
  POIN2 Label_013AFAED
//  #05 //103   ----------------------------------------
 BYTE   PATT
  POIN2 Label_013AFAFF
//  #05 //104   ----------------------------------------
 BYTE   PATT
  POIN2 Label_013AFB15
//  #05 //105   ----------------------------------------
 BYTE   PATT
  POIN2 Label_013AFAED
//  #05 //106   ----------------------------------------
 BYTE   PATT
  POIN2 Label_013AFAFF
//  #05 //107   ----------------------------------------
 BYTE   PATT
  POIN2 Label_013AFB15
//  #05 //108   ----------------------------------------
 BYTE   PATT
  POIN2 Label_013AFAED
//  #05 //109   ----------------------------------------
 BYTE   PATT
  POIN2 Label_013AFAFF
//  #05 //110   ----------------------------------------
 BYTE   PATT
  POIN2 Label_013AFB15
//  #05 //111   ----------------------------------------
 BYTE   PATT
  POIN2 Label_013AFB47
//  #05 //112   ----------------------------------------
 BYTE   PATT
  POIN2 Label_013AFB65
//  #05 //113   ----------------------------------------
 BYTE   PATT
  POIN2 Label_013AFB8C
//  #05 //114   ----------------------------------------
 BYTE   PATT
  POIN2 Label_013AFAED
//  #05 //115   ----------------------------------------
 BYTE   PATT
  POIN2 Label_013AFAFF
//  #05 //116   ----------------------------------------
 BYTE   PATT
  POIN2 Label_013AFB15
//  #05 //117   ----------------------------------------
 BYTE   PATT
  POIN2 Label_013AFAED
//  #05 //118   ----------------------------------------
 BYTE   PATT
  POIN2 Label_013AFAFF
//  #05 //119   ----------------------------------------
 BYTE   PATT
  POIN2 Label_013AFB15
//  #05 //120   ----------------------------------------
 BYTE   PATT
  POIN2 Label_013AFAED
//  #05 //121   ----------------------------------------
 BYTE   PATT
  POIN2 Label_013AFAFF
//  #05 //122   ----------------------------------------
 BYTE   PATT
  POIN2 Label_013AFB15
//  #05 //123   ----------------------------------------
 BYTE   PATT
  POIN2 Label_013AFB47
//  #05 //124   ----------------------------------------
 BYTE   PATT
  POIN2 Label_013AFB65
//  #05 //125   ----------------------------------------
 BYTE   PATT
  POIN2 Label_013AFB8C
//  #05 //126   ----------------------------------------
 BYTE   PATT
  POIN2 Label_013AFAED
//  #05 //127   ----------------------------------------
 BYTE   PATT
  POIN2 Label_013AFAFF
//  #05 //128   ----------------------------------------
 BYTE   PATT
  POIN2 Label_013AFB15
//  #05 //129   ----------------------------------------
 BYTE   PATT
  POIN2 Label_013AFAED
//  #05 //130   ----------------------------------------
 BYTE   PATT
  POIN2 Label_013AFAFF
//  #05 //131   ----------------------------------------
 BYTE   PATT
  POIN2 Label_013AFB15
//  #05 //132   ----------------------------------------
 BYTE   PATT
  POIN2 Label_013AFAED
//  #05 //133   ----------------------------------------
 BYTE   PATT
  POIN2 Label_013AFAFF
//  #05 //134   ----------------------------------------
 BYTE   PATT
  POIN2 Label_013AFB15
//  #05 //135   ----------------------------------------
 BYTE   PATT
  POIN2 Label_013AFB47
//  #05 //136   ----------------------------------------
 BYTE   PATT
  POIN2 Label_013AFB65
//  #05 //137   ----------------------------------------
 BYTE   PATT
  POIN2 Label_013AFB8C
//  #05 //138   ----------------------------------------
 BYTE   PATT
  POIN2 Label_013AFAED
//  #05 //139   ----------------------------------------
 BYTE   PATT
  POIN2 Label_013AFAFF
//  #05 //140   ----------------------------------------
 BYTE   PATT
  POIN2 Label_013AFB15
//  #05 //141   ----------------------------------------
 BYTE   PATT
  POIN2 Label_013AFAED
//  #05 //142   ----------------------------------------
 BYTE   PATT
  POIN2 Label_013AFAFF
//  #05 //143   ----------------------------------------
 BYTE   PATT
  POIN2 Label_013AFB15
//  #05 //144   ----------------------------------------
 BYTE   PATT
  POIN2 Label_013AFC47
//  #05 //145   ----------------------------------------
 BYTE   PATT
  POIN2 Label_013AFC52
//  #05 //146   ----------------------------------------
 BYTE   PATT
  POIN2 Label_013AFC5C
//  #05 //147   ----------------------------------------
 BYTE   PATT
  POIN2 Label_013AFB47
//  #05 //148   ----------------------------------------
 BYTE   PATT
  POIN2 Label_013AFB65
//  #05 //149   ----------------------------------------
 BYTE   PATT
  POIN2 Label_013AFB8C
//  #05 //150   ----------------------------------------
 BYTE   PATT
  POIN2 Label_013AFAED
//  #05 //151   ----------------------------------------
 BYTE   PATT
  POIN2 Label_013AFAFF
//  #05 //152   ----------------------------------------
 BYTE   PATT
  POIN2 Label_013AFB15
//  #05 //153   ----------------------------------------
 BYTE   PATT
  POIN2 Label_013AFC84
//  #05 //154   ----------------------------------------
 BYTE   PATT
  POIN2 Label_013AFC9E
//  #05 //155   ----------------------------------------
 BYTE   PATT
  POIN2 Label_013AFCC1
//  #05 //156   ----------------------------------------
 BYTE   PATT
  POIN2 Label_013AFAED
//  #05 //157   ----------------------------------------
 BYTE   PATT
  POIN2 Label_013AFAFF
//  #05 //158   ----------------------------------------
 BYTE   PATT
  POIN2 Label_013AFB15
//  #05 //159   ----------------------------------------
 BYTE   PATT
  POIN2 Label_013AFB47
//  #05 //160   ----------------------------------------
 BYTE   PATT
  POIN2 Label_013AFB65
//  #05 //161   ----------------------------------------
 BYTE   PATT
  POIN2 Label_013AFB8C
//  #05 //162   ----------------------------------------
 BYTE   PATT
  POIN2 Label_013AFAED
//  #05 //163   ----------------------------------------
 BYTE   PATT
  POIN2 Label_013AFAFF
//  #05 //164   ----------------------------------------
 BYTE   PATT
  POIN2 Label_013AFB15
//  #05 //165   ----------------------------------------
 BYTE   PATT
  POIN2 Label_013AFAED
//  #05 //166   ----------------------------------------
 BYTE   PATT
  POIN2 Label_013AFAFF
//  #05 //167   ----------------------------------------
 BYTE   PATT
  POIN2 Label_013AFB15
//  #05 //168   ----------------------------------------
 BYTE   PATT
  POIN2 Label_013AFAED
//  #05 //169   ----------------------------------------
 BYTE   PATT
  POIN2 Label_013AFAFF
//  #05 //170   ----------------------------------------
 BYTE   PATT
  POIN2 Label_013AFB15
//  #05 //171   ----------------------------------------
 BYTE   PATT
  POIN2 Label_013AFB47
//  #05 //172   ----------------------------------------
 BYTE   PATT
  POIN2 Label_013AFB65
//  #05 //173   ----------------------------------------
 BYTE   PATT
  POIN2 Label_013AFB8C
//  #05 //174   ----------------------------------------
 BYTE   PATT
  POIN2 Label_013AFAED
//  #05 //175   ----------------------------------------
 BYTE   PATT
  POIN2 Label_013AFAFF
//  #05 //176   ----------------------------------------
 BYTE   PATT
  POIN2 Label_013AFB15
//  #05 //177   ----------------------------------------
 BYTE   PATT
  POIN2 Label_013AFAED
//  #05 //178   ----------------------------------------
 BYTE   PATT
  POIN2 Label_013AFAFF
//  #05 //179   ----------------------------------------
 BYTE   PATT
  POIN2 Label_013AFB15
//  #05 //180   ----------------------------------------
 BYTE   PATT
  POIN2 Label_013AFAED
//  #05 //181   ----------------------------------------
 BYTE   PATT
  POIN2 Label_013AFAFF
//  #05 //182   ----------------------------------------
 BYTE   PATT
  POIN2 Label_013AFB15
//  #05 //183   ----------------------------------------
 BYTE   PATT
  POIN2 Label_013AFB47
//  #05 //184   ----------------------------------------
 BYTE   PATT
  POIN2 Label_013AFB65
//  #05 //185   ----------------------------------------
 BYTE   PATT
  POIN2 Label_013AFB8C
//  #05 //186   ----------------------------------------
 BYTE   PATT
  POIN2 Label_013AFAED
//  #05 //187   ----------------------------------------
 BYTE   PATT
  POIN2 Label_013AFAFF
//  #05 //188   ----------------------------------------
 BYTE   PATT
  POIN2 Label_013AFB15
//  #05 //189   ----------------------------------------
 BYTE   PATT
  POIN2 Label_013AFAED
//  #05 //190   ----------------------------------------
 BYTE   PATT
  POIN2 Label_013AFAFF
//  #05 //191   ----------------------------------------
 BYTE   PATT
  POIN2 Label_013AFB15
//  #05 //192   ----------------------------------------
 BYTE   PATT
  POIN2 Label_013AFAED
//  #05 //193   ----------------------------------------
 BYTE   PATT
  POIN2 Label_013AFAFF
//  #05 //194   ----------------------------------------
 BYTE   PATT
  POIN2 Label_013AFB15
//  #05 //195   ----------------------------------------
 BYTE   PATT
  POIN2 Label_013AFB47
//  #05 //196   ----------------------------------------
 BYTE   PATT
  POIN2 Label_013AFB65
//  #05 //197   ----------------------------------------
 BYTE   PATT
  POIN2 Label_013AFB8C
//  #05 //198   ----------------------------------------
 BYTE   PATT
  POIN2 Label_013AFAED
//  #05 //199   ----------------------------------------
 BYTE   PATT
  POIN2 Label_013AFAFF
//  #05 //200   ----------------------------------------
 BYTE   PATT
  POIN2 Label_013AFB15
//  #05 //201   ----------------------------------------
 BYTE   PATT
  POIN2 Label_013AFAED
//  #05 //202   ----------------------------------------
 BYTE   PATT
  POIN2 Label_013AFAFF
//  #05 //203   ----------------------------------------
 BYTE   PATT
  POIN2 Label_013AFB15
//  #05 //204   ----------------------------------------
 BYTE   PATT
  POIN2 Label_013AFC47
//  #05 //205   ----------------------------------------
 BYTE   PATT
  POIN2 Label_013AFC52
//  #05 //206   ----------------------------------------
 BYTE   PATT
  POIN2 Label_013AFC5C
//  #05 //207   ----------------------------------------
 BYTE   PATT
  POIN2 Label_013AFB47
//  #05 //208   ----------------------------------------
 BYTE   PATT
  POIN2 Label_013AFB65
//  #05 //209   ----------------------------------------
 BYTE   PATT
  POIN2 Label_013AFB8C
//  #05 //210   ----------------------------------------
 BYTE   PATT
  POIN2 Label_013AFAED
//  #05 //211   ----------------------------------------
 BYTE   PATT
  POIN2 Label_013AFAFF
//  #05 //212   ----------------------------------------
 BYTE   PATT
  POIN2 Label_013AFB15
//  #05 //213   ----------------------------------------
 BYTE   PATT
  POIN2 Label_013AFC84
//  #05 //214   ----------------------------------------
 BYTE   PATT
  POIN2 Label_013AFC9E
//  #05 //215   ----------------------------------------
 BYTE   PATT
  POIN2 Label_013AFCC1
//  #05 //216   ----------------------------------------
 BYTE   PATT
  POIN2 Label_013AFAED
//  #05 //217   ----------------------------------------
 BYTE   PATT
  POIN2 Label_013AFAFF
//  #05 //218   ----------------------------------------
 BYTE   PATT
  POIN2 Label_013AFB15
//  #05 //219   ----------------------------------------
 BYTE   PATT
  POIN2 Label_013AFB47
//  #05 //220   ----------------------------------------
 BYTE   PATT
  POIN2 Label_013AFB65
//  #05 //221   ----------------------------------------
 BYTE   PATT
  POIN2 Label_013AFB8C
//  #05 //222   ----------------------------------------
 BYTE   PATT
  POIN2 Label_013AFAED
//  #05 //223   ----------------------------------------
 BYTE   PATT
  POIN2 Label_013AFAFF
//  #05 //224   ----------------------------------------
 BYTE   PATT
  POIN2 Label_013AFB15
//  #05 //225   ----------------------------------------
 BYTE   PATT
  POIN2 Label_013AFAED
//  #05 //226   ----------------------------------------
 BYTE   PATT
  POIN2 Label_013AFAFF
//  #05 //227   ----------------------------------------
 BYTE   PATT
  POIN2 Label_013AFB15
//  #05 //228   ----------------------------------------
 BYTE   PATT
  POIN2 Label_013AFAED
//  #05 //229   ----------------------------------------
 BYTE   PATT
  POIN2 Label_013AFAFF
//  #05 //230   ----------------------------------------
 BYTE   PATT
  POIN2 Label_013AFB15
//  #05 //231   ----------------------------------------
 BYTE   PATT
  POIN2 Label_013AFB47
//  #05 //232   ----------------------------------------
 BYTE   PATT
  POIN2 Label_013AFB65
//  #05 //233   ----------------------------------------
 BYTE   PATT
  POIN2 Label_013AFB8C
//  #05 //234   ----------------------------------------
 BYTE   PATT
  POIN2 Label_013AFAED
//  #05 //235   ----------------------------------------
 BYTE   PATT
  POIN2 Label_013AFAFF
//  #05 //236   ----------------------------------------
 BYTE   PATT
  POIN2 Label_013AFB15
//  #05 //237   ----------------------------------------
 BYTE   PATT
  POIN2 Label_013AFAED
//  #05 //238   ----------------------------------------
 BYTE   PATT
  POIN2 Label_013AFAFF
//  #05 //239   ----------------------------------------
 BYTE   PATT
  POIN2 Label_013AFB15
//  #05 //240   ----------------------------------------
 BYTE   PATT
  POIN2 Label_013AFAED
//  #05 //241   ----------------------------------------
 BYTE   PATT
  POIN2 Label_013AFAFF
//  #05 //242   ----------------------------------------
 BYTE   PATT
  POIN2 Label_013AFB15
//  #05 //243   ----------------------------------------
 BYTE   PATT
  POIN2 Label_013AFB47
//  #05 //244   ----------------------------------------
 BYTE   PATT
  POIN2 Label_013AFB65
//  #05 //245   ----------------------------------------
 BYTE   PATT
  POIN2 Label_013AFB8C
//  #05 //246   ----------------------------------------
 BYTE   PATT
  POIN2 Label_013AFAED
//  #05 //247   ----------------------------------------
 BYTE   PATT
  POIN2 Label_013AFAFF
//  #05 //248   ----------------------------------------
 BYTE   PATT
  POIN2 Label_013AFB15
//  #05 //249   ----------------------------------------
 BYTE   PATT
  POIN2 Label_013AFC84
//  #05 //250   ----------------------------------------
 BYTE   PATT
  POIN2 Label_013AFC9E
//  #05 //251   ----------------------------------------
 BYTE   PATT
  POIN2 Label_013AFCC1
//  #05 //252   ----------------------------------------
 BYTE   PATT
  POIN2 Label_013AFAED
//  #05 //253   ----------------------------------------
 BYTE   PATT
  POIN2 Label_013AFAFF
//  #05 //254   ----------------------------------------
 BYTE   PATT
  POIN2 Label_013AFB15
//  #05 //255   ----------------------------------------
 BYTE   PATT
  POIN2 Label_013AFB47
//  #05 //256   ----------------------------------------
 BYTE   PATT
  POIN2 Label_013AFB65
//  #05 //257   ----------------------------------------
 BYTE   PATT
  POIN2 Label_013AFB8C
//  #05 //258   ----------------------------------------
 BYTE   PATT
  POIN2 Label_013AFAED
//  #05 //259   ----------------------------------------
 BYTE   PATT
  POIN2 Label_013AFAFF
//  #05 //260   ----------------------------------------
 BYTE   PATT
  POIN2 Label_013AFB15
//  #05 //261   ----------------------------------------
 BYTE   PATT
  POIN2 Label_013AFAED
//  #05 //262   ----------------------------------------
 BYTE   PATT
  POIN2 Label_013AFAFF
//  #05 //263   ----------------------------------------
 BYTE   PATT
  POIN2 Label_013AFB15
//  #05 //264   ----------------------------------------
 BYTE   PATT
  POIN2 Label_013AFAED
//  #05 //265   ----------------------------------------
 BYTE   PATT
  POIN2 Label_013AFAFF
//  #05 //266   ----------------------------------------
 BYTE   PATT
  POIN2 Label_013AFB15
//  #05 //267   ----------------------------------------
 BYTE   PATT
  POIN2 Label_013AFB47
//  #05 //268   ----------------------------------------
 BYTE   PATT
  POIN2 Label_013AFB65
//  #05 //269   ----------------------------------------
 BYTE   PATT
  POIN2 Label_013AFB8C
//  #05 //270   ----------------------------------------
 BYTE   PATT
  POIN2 Label_013AFAED
//  #05 //271   ----------------------------------------
 BYTE   PATT
  POIN2 Label_013AFAFF
//  #05 //272   ----------------------------------------
 BYTE   PATT
  POIN2 Label_013AFB15
//  #05 //273   ----------------------------------------
 BYTE   PATT
  POIN2 Label_013AFAED
//  #05 //274   ----------------------------------------
 BYTE   PATT
  POIN2 Label_013AFAFF
//  #05 //275   ----------------------------------------
 BYTE   PATT
  POIN2 Label_013AFB15
//  #05 //276   ----------------------------------------
 BYTE   PATT
  POIN2 Label_013AFAED
//  #05 //277   ----------------------------------------
 BYTE   PATT
  POIN2 Label_013AFAFF
//  #05 //278   ----------------------------------------
 BYTE   PATT
  POIN2 Label_013AFB15
//  #05 //279   ----------------------------------------
 BYTE   PATT
  POIN2 Label_013AFB47
//  #05 //280   ----------------------------------------
 BYTE   PATT
  POIN2 Label_013AFB65
//  #05 //281   ----------------------------------------
 BYTE   PATT
  POIN2 Label_013AFB8C
//  #05 //282   ----------------------------------------
 BYTE   PATT
  POIN2 Label_013AFAED
//  #05 //283   ----------------------------------------
 BYTE   PATT
  POIN2 Label_013AFAFF
//  #05 //284   ----------------------------------------
 BYTE   PATT
  POIN2 Label_013AFB15
//  #05 //285   ----------------------------------------
 BYTE   PATT
  POIN2 Label_013AFAED
//  #05 //286   ----------------------------------------
 BYTE   PATT
  POIN2 Label_013AFAFF
//  #05 //287   ----------------------------------------
 BYTE   PATT
  POIN2 Label_013AFB15
//  #05 //288   ----------------------------------------
 BYTE   PATT
  POIN2 Label_013AFC47
//  #05 //289   ----------------------------------------
 BYTE   PATT
  POIN2 Label_013AFC52
//  #05 //290   ----------------------------------------
 BYTE   PATT
  POIN2 Label_013AFC5C
//  #05 //291   ----------------------------------------
 BYTE   PATT
  POIN2 Label_013AFB47
//  #05 //292   ----------------------------------------
 BYTE   PATT
  POIN2 Label_013AFB65
//  #05 //293   ----------------------------------------
 BYTE   PATT
  POIN2 Label_013AFB8C
//  #05 //294   ----------------------------------------
 BYTE   PATT
  POIN2 Label_013AFB47
//  #05 //295   ----------------------------------------
 BYTE   PATT
  POIN2 Label_013AFB65
//  #05 //296   ----------------------------------------
 BYTE   N14  Cn1  v052
 BYTE   N23  Fs1
 BYTE   N23  As1
 BYTE   W14
 BYTE   N09  Cn1
 BYTE   W10
 BYTE   N68
 BYTE   N68  Fs1
 BYTE   N68  As1
 BYTE   W68
 BYTE   W03
 BYTE   GoTo
  POIN2 Label_013AFA4E
 BYTE   FINE

//******************************************************//
	ALIGN 4

KKCafe:
	BYTE	5	// NumTrks
	BYTE	0	// NumBlks
	BYTE	KKCafe_pri	// Priority
	BYTE	KKCafe_rev	// Reverb.
    
	POIN2	KKCafe_grp
    
	POIN2	KKCafe_001
	POIN2	KKCafe_002
	POIN2	KKCafe_003
	POIN2	KKCafe_004
	POIN2	KKCafe_005

	
