	.include "MPlayDef.s"

	.equ	Leon_grp, voicegroup000
	.equ	Leon_pri, 0
	.equ	Leon_rev, 0
	.equ	Leon_mvl, 50
	.equ	Leon_key, 0
	.equ	Leon_tbs, 1
	.equ	Leon_exg, 0
	.equ	Leon_cmp, 1

	.section .rodata
	.global	Leon
	.align	2

@**************** Track 1 (Midi-Chn.1) ****************@

Leon_1:
	.byte	KEYSH , Leon_key+0
@ 000   ----------------------------------------
	.byte	TEMPO , 118*Leon_tbs/2
	.byte		VOICE , 30
	.byte		VOL   , 127*Leon_mvl/mxv
	.byte	W09
	.byte		PAN   , c_v+0
	.byte	W15
@ 001   ----------------------------------------
	.byte	W24
@ 002   ----------------------------------------
	.byte	W24
@ 003   ----------------------------------------
	.byte	W24
@ 004   ----------------------------------------
	.byte	W24
@ 005   ----------------------------------------
	.byte	W24
@ 006   ----------------------------------------
	.byte	W24
@ 007   ----------------------------------------
	.byte	W24
@ 008   ----------------------------------------
	.byte	W24
@ 009   ----------------------------------------
	.byte	W24
@ 010   ----------------------------------------
	.byte	W24
@ 011   ----------------------------------------
	.byte	W24
@ 012   ----------------------------------------
	.byte	W24
@ 013   ----------------------------------------
	.byte	W24
@ 014   ----------------------------------------
	.byte	W24
@ 015   ----------------------------------------
	.byte	W24
@ 016   ----------------------------------------
	.byte	W24
@ 017   ----------------------------------------
	.byte		TIE   , Cn3 , v088
	.byte	W24
@ 018   ----------------------------------------
	.byte	W24
@ 019   ----------------------------------------
	.byte	W24
@ 020   ----------------------------------------
	.byte	W24
@ 021   ----------------------------------------
	.byte	W24
@ 022   ----------------------------------------
	.byte	W24
@ 023   ----------------------------------------
	.byte	W24
	.byte		EOT   
@ 024   ----------------------------------------
Leon_1_024:
	.byte	W08
	.byte		N07   , As2 , v088
	.byte	W08
	.byte		        Cn3 
	.byte	W08
	.byte	PEND
@ 025   ----------------------------------------
	.byte		TIE   , Dn3 
	.byte	W24
@ 026   ----------------------------------------
	.byte	W24
@ 027   ----------------------------------------
	.byte	W24
@ 028   ----------------------------------------
	.byte	W24
@ 029   ----------------------------------------
	.byte	W24
@ 030   ----------------------------------------
	.byte	W24
@ 031   ----------------------------------------
	.byte	W24
	.byte		EOT   
@ 032   ----------------------------------------
Leon_1_032:
	.byte	W08
	.byte		N07   , Cn3 , v088
	.byte	W08
	.byte		        Dn3 
	.byte	W08
	.byte	PEND
@ 033   ----------------------------------------
	.byte		N78   , Ds3 
	.byte	W24
@ 034   ----------------------------------------
	.byte	W24
@ 035   ----------------------------------------
	.byte	W24
@ 036   ----------------------------------------
Leon_1_036:
	.byte	W08
	.byte		N07   , Dn3 , v088
	.byte	W08
	.byte		        Ds3 
	.byte	W08
	.byte	PEND
@ 037   ----------------------------------------
	.byte		N44   , Fn3 
	.byte	W24
@ 038   ----------------------------------------
	.byte	W24
@ 039   ----------------------------------------
	.byte		N42   , As3 
	.byte	W24
@ 040   ----------------------------------------
Leon_1_040:
	.byte	W18
	.byte		N03   , An3 , v088
	.byte	W03
	.byte		        Gs3 
	.byte	W03
	.byte	PEND
@ 041   ----------------------------------------
	.byte		TIE   , Gn3 
	.byte	W24
@ 042   ----------------------------------------
	.byte	W24
@ 043   ----------------------------------------
	.byte	W24
@ 044   ----------------------------------------
	.byte	W24
@ 045   ----------------------------------------
	.byte	W24
@ 046   ----------------------------------------
	.byte	W24
@ 047   ----------------------------------------
	.byte	W23
	.byte		EOT   
	.byte	W01
@ 048   ----------------------------------------
	.byte	W08
	.byte		N07   , Gn2 
	.byte	W08
	.byte		N07   
	.byte	W02
Leon_1_B1:
	.byte	W06
@ 049   ----------------------------------------
	.byte		TIE   , Cn3 , v088
	.byte	W24
@ 050   ----------------------------------------
	.byte	W24
@ 051   ----------------------------------------
	.byte	W24
@ 052   ----------------------------------------
	.byte	W24
@ 053   ----------------------------------------
	.byte	W24
@ 054   ----------------------------------------
	.byte	W24
@ 055   ----------------------------------------
	.byte	W24
	.byte		EOT   
@ 056   ----------------------------------------
	.byte	PATT
	 .word	Leon_1_024
@ 057   ----------------------------------------
	.byte		TIE   , Dn3 , v088
	.byte	W24
@ 058   ----------------------------------------
	.byte	W24
@ 059   ----------------------------------------
	.byte	W24
@ 060   ----------------------------------------
	.byte	W24
@ 061   ----------------------------------------
	.byte	W24
@ 062   ----------------------------------------
	.byte	W24
@ 063   ----------------------------------------
	.byte	W24
	.byte		EOT   
@ 064   ----------------------------------------
	.byte	PATT
	 .word	Leon_1_032
@ 065   ----------------------------------------
	.byte		N78   , Ds3 , v088
	.byte	W24
@ 066   ----------------------------------------
	.byte	W24
@ 067   ----------------------------------------
	.byte	W24
@ 068   ----------------------------------------
	.byte	PATT
	 .word	Leon_1_036
@ 069   ----------------------------------------
	.byte		N44   , Fn3 , v088
	.byte	W24
@ 070   ----------------------------------------
	.byte	W24
@ 071   ----------------------------------------
Leon_1_071:
	.byte		BEND  , c_v-33
	.byte		N42   , As3 , v088
	.byte	W01
	.byte		BEND  , c_v-26
	.byte	W01
	.byte		        c_v-21
	.byte	W01
	.byte		        c_v-16
	.byte	W01
	.byte		        c_v-13
	.byte	W01
	.byte		        c_v-10
	.byte	W01
	.byte		        c_v-8
	.byte	W01
	.byte		        c_v-6
	.byte	W01
	.byte		        c_v-5
	.byte	W01
	.byte		        c_v-4
	.byte	W01
	.byte		        c_v-3
	.byte	W01
	.byte		        c_v-2
	.byte	W02
	.byte		        c_v-1
	.byte	W03
	.byte		        c_v+0
	.byte	W08
	.byte	PEND
@ 072   ----------------------------------------
	.byte	W18
	.byte		N03   , An3 , v084
	.byte	W03
	.byte		        Gs3 
	.byte	W03
@ 073   ----------------------------------------
	.byte		TIE   , Gn3 , v080
	.byte	W24
@ 074   ----------------------------------------
	.byte	W24
@ 075   ----------------------------------------
	.byte	W24
@ 076   ----------------------------------------
	.byte	W24
@ 077   ----------------------------------------
	.byte	W24
@ 078   ----------------------------------------
	.byte	W24
@ 079   ----------------------------------------
	.byte	W23
	.byte		EOT   
	.byte	W01
@ 080   ----------------------------------------
	.byte		N08   , Cn3 , v088
	.byte	W08
	.byte		N07   , As2 
	.byte	W08
	.byte		        Cn3 
	.byte	W08
@ 081   ----------------------------------------
	.byte		N06   , Gs2 , v080
	.byte	W08
	.byte		        Cn3 
	.byte	W08
	.byte		N30   , As3 
	.byte	W08
@ 082   ----------------------------------------
	.byte	W24
@ 083   ----------------------------------------
	.byte		        Gs3 
	.byte	W24
@ 084   ----------------------------------------
	.byte	W08
	.byte		N07   , Gn3 
	.byte	W08
	.byte		        Fn3 
	.byte	W08
@ 085   ----------------------------------------
	.byte		N07   
	.byte	W08
	.byte		        Ds3 
	.byte	W08
	.byte		        Fn3 
	.byte	W08
@ 086   ----------------------------------------
	.byte		N44   , Gn3 
	.byte	W24
@ 087   ----------------------------------------
	.byte	W24
@ 088   ----------------------------------------
	.byte		N07   , Cn3 
	.byte	W08
	.byte		        As2 
	.byte	W08
	.byte		        Cn3 
	.byte	W08
@ 089   ----------------------------------------
	.byte		        Gs2 
	.byte	W08
	.byte		        Cn3 
	.byte	W08
	.byte		N30   , As3 
	.byte	W08
@ 090   ----------------------------------------
	.byte	W24
@ 091   ----------------------------------------
	.byte		N23   , Gs3 
	.byte	W24
@ 092   ----------------------------------------
	.byte		N07   , Fn3 
	.byte	W08
	.byte		        Gn3 
	.byte	W08
	.byte		N23   , Gs3 
	.byte	W08
@ 093   ----------------------------------------
	.byte	W16
	.byte		TIE   , Gn3 
	.byte	W08
@ 094   ----------------------------------------
	.byte	W24
@ 095   ----------------------------------------
	.byte	W24
@ 096   ----------------------------------------
	.byte	W24
@ 097   ----------------------------------------
	.byte	W23
	.byte		EOT   
	.byte	W01
@ 098   ----------------------------------------
	.byte	W24
@ 099   ----------------------------------------
	.byte	W24
@ 100   ----------------------------------------
	.byte		N07   , Gn2 
	.byte	W08
	.byte		N07   
	.byte	W08
	.byte		N07   
	.byte	W08
@ 101   ----------------------------------------
	.byte		TIE   , Cn3 , v088
	.byte	W24
@ 102   ----------------------------------------
	.byte	W24
@ 103   ----------------------------------------
	.byte	W24
@ 104   ----------------------------------------
	.byte	W24
@ 105   ----------------------------------------
	.byte	W24
@ 106   ----------------------------------------
	.byte	W24
@ 107   ----------------------------------------
	.byte	W24
	.byte		EOT   
@ 108   ----------------------------------------
	.byte	PATT
	 .word	Leon_1_024
@ 109   ----------------------------------------
	.byte		TIE   , Dn3 , v088
	.byte	W24
@ 110   ----------------------------------------
	.byte	W24
@ 111   ----------------------------------------
	.byte	W24
@ 112   ----------------------------------------
	.byte	W24
@ 113   ----------------------------------------
	.byte	W24
@ 114   ----------------------------------------
	.byte	W24
@ 115   ----------------------------------------
	.byte	W24
	.byte		EOT   
@ 116   ----------------------------------------
	.byte	PATT
	 .word	Leon_1_032
@ 117   ----------------------------------------
	.byte		N78   , Ds3 , v088
	.byte	W24
@ 118   ----------------------------------------
	.byte	W24
@ 119   ----------------------------------------
	.byte	W24
@ 120   ----------------------------------------
	.byte	PATT
	 .word	Leon_1_036
@ 121   ----------------------------------------
	.byte		N44   , Fn3 , v088
	.byte	W24
@ 122   ----------------------------------------
	.byte	W24
@ 123   ----------------------------------------
	.byte	PATT
	 .word	Leon_1_071
@ 124   ----------------------------------------
	.byte	PATT
	 .word	Leon_1_040
@ 125   ----------------------------------------
	.byte		TIE   , Gn3 , v088
	.byte	W24
@ 126   ----------------------------------------
	.byte	W24
@ 127   ----------------------------------------
	.byte	W24
@ 128   ----------------------------------------
	.byte	W24
@ 129   ----------------------------------------
	.byte	W24
@ 130   ----------------------------------------
	.byte	W24
@ 131   ----------------------------------------
	.byte	W23
	.byte		EOT   
	.byte	W01
@ 132   ----------------------------------------
	.byte	W08
	.byte		N07   , Gn2 
	.byte	W08
	.byte		N07   
	.byte	W08
@ 133   ----------------------------------------
	.byte		TIE   , Cn3 
	.byte	W24
@ 134   ----------------------------------------
	.byte	W24
@ 135   ----------------------------------------
	.byte	W24
@ 136   ----------------------------------------
	.byte	W24
@ 137   ----------------------------------------
	.byte	W24
@ 138   ----------------------------------------
	.byte	W24
@ 139   ----------------------------------------
	.byte	W24
	.byte		EOT   
@ 140   ----------------------------------------
	.byte	PATT
	 .word	Leon_1_024
@ 141   ----------------------------------------
	.byte		TIE   , Dn3 , v088
	.byte	W24
@ 142   ----------------------------------------
	.byte	W24
@ 143   ----------------------------------------
	.byte	W24
@ 144   ----------------------------------------
	.byte	W24
@ 145   ----------------------------------------
	.byte	W24
@ 146   ----------------------------------------
	.byte	W24
@ 147   ----------------------------------------
	.byte	W24
	.byte		EOT   
@ 148   ----------------------------------------
	.byte	PATT
	 .word	Leon_1_032
@ 149   ----------------------------------------
	.byte		N78   , Ds3 , v088
	.byte	W24
@ 150   ----------------------------------------
	.byte	W24
@ 151   ----------------------------------------
	.byte	W24
@ 152   ----------------------------------------
	.byte	PATT
	 .word	Leon_1_036
@ 153   ----------------------------------------
	.byte		N44   , Fn3 , v088
	.byte	W24
@ 154   ----------------------------------------
	.byte	W24
@ 155   ----------------------------------------
	.byte		BEND  , c_v-33
	.byte		N44   , As3 
	.byte	W01
	.byte		BEND  , c_v-26
	.byte	W01
	.byte		        c_v-21
	.byte	W01
	.byte		        c_v-16
	.byte	W01
	.byte		        c_v-13
	.byte	W01
	.byte		        c_v-10
	.byte	W01
	.byte		        c_v-8
	.byte	W01
	.byte		        c_v-6
	.byte	W01
	.byte		        c_v-5
	.byte	W01
	.byte		        c_v-4
	.byte	W01
	.byte		        c_v-3
	.byte	W01
	.byte		        c_v-2
	.byte	W02
	.byte		        c_v-1
	.byte	W03
	.byte		        c_v+0
	.byte	W08
@ 156   ----------------------------------------
	.byte	W24
@ 157   ----------------------------------------
	.byte		TIE   , Cn4 
	.byte	W24
@ 158   ----------------------------------------
	.byte	W24
@ 159   ----------------------------------------
	.byte	W24
@ 160   ----------------------------------------
	.byte	W24
@ 161   ----------------------------------------
	.byte	W24
@ 162   ----------------------------------------
	.byte	W24
@ 163   ----------------------------------------
	.byte	W24
	.byte		EOT   
@ 164   ----------------------------------------
Leon_1_164:
	.byte		N08   , Gn3 , v088
	.byte	W08
	.byte		        As3 
	.byte	W08
	.byte		        Gn3 
	.byte	W08
	.byte	PEND
@ 165   ----------------------------------------
	.byte		TIE   , Cn4 
	.byte	W24
@ 166   ----------------------------------------
	.byte	W24
@ 167   ----------------------------------------
	.byte	W24
@ 168   ----------------------------------------
	.byte	W24
@ 169   ----------------------------------------
	.byte	W24
@ 170   ----------------------------------------
	.byte	W24
@ 171   ----------------------------------------
	.byte	W24
	.byte		EOT   
@ 172   ----------------------------------------
	.byte		N08   , Ds4 
	.byte	W08
	.byte		        Dn4 
	.byte	W08
	.byte		        As3 
	.byte	W08
@ 173   ----------------------------------------
	.byte		TIE   , Cn4 
	.byte	W24
@ 174   ----------------------------------------
	.byte	W24
@ 175   ----------------------------------------
	.byte	W24
@ 176   ----------------------------------------
	.byte	W24
@ 177   ----------------------------------------
	.byte	W24
@ 178   ----------------------------------------
	.byte	W24
@ 179   ----------------------------------------
	.byte	W24
	.byte		EOT   
@ 180   ----------------------------------------
	.byte	PATT
	 .word	Leon_1_164
@ 181   ----------------------------------------
	.byte		TIE   , Cn4 , v088
	.byte	W24
@ 182   ----------------------------------------
	.byte	W24
@ 183   ----------------------------------------
	.byte	W24
@ 184   ----------------------------------------
	.byte	W24
@ 185   ----------------------------------------
	.byte	W24
@ 186   ----------------------------------------
	.byte	W24
@ 187   ----------------------------------------
	.byte	W23
	.byte		EOT   
	.byte	W01
@ 188   ----------------------------------------
	.byte	W16
	.byte	GOTO
	 .word	Leon_1_B1
Leon_1_B2:
	.byte	W07
	.byte	FINE

@**************** Track 2 (Midi-Chn.2) ****************@

Leon_2:
	.byte	KEYSH , Leon_key+0
@ 000   ----------------------------------------
	.byte		VOICE , 32
	.byte		VOL   , 67*Leon_mvl/mxv
	.byte		PAN   , c_v+0
	.byte	W24
@ 001   ----------------------------------------
	.byte	W24
@ 002   ----------------------------------------
	.byte	W24
@ 003   ----------------------------------------
	.byte	W24
@ 004   ----------------------------------------
	.byte	W24
@ 005   ----------------------------------------
	.byte	W24
@ 006   ----------------------------------------
	.byte	W24
@ 007   ----------------------------------------
	.byte	W24
@ 008   ----------------------------------------
	.byte	W24
@ 009   ----------------------------------------
	.byte	W24
@ 010   ----------------------------------------
	.byte	W24
@ 011   ----------------------------------------
	.byte	W24
@ 012   ----------------------------------------
	.byte	W24
@ 013   ----------------------------------------
	.byte	W24
@ 014   ----------------------------------------
	.byte	W24
@ 015   ----------------------------------------
	.byte	W24
@ 016   ----------------------------------------
	.byte	W24
@ 017   ----------------------------------------
	.byte		N03   , Cn3 , v080
	.byte	W24
@ 018   ----------------------------------------
Leon_2_018:
	.byte		N08   , Gn3 , v080
	.byte		N08   , Cn4 , v072
	.byte	W08
	.byte		N01   , Gn3 , v080
	.byte		N01   , Cn4 , v072
	.byte	W08
	.byte		N16   , Gn3 , v080
	.byte		N16   , Cn4 , v072
	.byte	W08
	.byte	PEND
@ 019   ----------------------------------------
Leon_2_019:
	.byte	W08
	.byte		N08   , Gn3 , v080
	.byte		N08   , Cn4 , v072
	.byte	W08
	.byte		N01   , Gn3 , v080
	.byte		N01   , Cn4 , v072
	.byte	W08
	.byte	PEND
@ 020   ----------------------------------------
Leon_2_020:
	.byte		N08   , Gn3 , v080
	.byte		N08   , Cn4 , v072
	.byte	W24
	.byte	PEND
@ 021   ----------------------------------------
	.byte		N03   , Cn3 , v080
	.byte	W24
@ 022   ----------------------------------------
	.byte	PATT
	 .word	Leon_2_018
@ 023   ----------------------------------------
	.byte	PATT
	 .word	Leon_2_019
@ 024   ----------------------------------------
	.byte	PATT
	 .word	Leon_2_020
@ 025   ----------------------------------------
	.byte	W24
@ 026   ----------------------------------------
Leon_2_026:
	.byte		N08   , Ds3 , v080
	.byte		N08   , As3 , v072
	.byte	W08
	.byte		N01   , Ds3 , v080
	.byte		N01   , As3 , v072
	.byte	W08
	.byte		N16   , Ds3 , v080
	.byte		N16   , As3 , v072
	.byte	W08
	.byte	PEND
@ 027   ----------------------------------------
Leon_2_027:
	.byte	W08
	.byte		N08   , Ds3 , v080
	.byte		N08   , As3 , v072
	.byte	W08
	.byte		N01   , Ds3 , v080
	.byte		N01   , As3 , v072
	.byte	W08
	.byte	PEND
@ 028   ----------------------------------------
Leon_2_028:
	.byte		N08   , Ds3 , v080
	.byte		N08   , As3 , v072
	.byte	W24
	.byte	PEND
@ 029   ----------------------------------------
	.byte	W24
@ 030   ----------------------------------------
	.byte	PATT
	 .word	Leon_2_026
@ 031   ----------------------------------------
	.byte	PATT
	 .word	Leon_2_027
@ 032   ----------------------------------------
	.byte	PATT
	 .word	Leon_2_028
@ 033   ----------------------------------------
	.byte	W24
@ 034   ----------------------------------------
Leon_2_034:
	.byte		N08   , Gs3 , v080
	.byte		N08   , Cn4 , v072
	.byte	W08
	.byte		N01   , Gs3 , v080
	.byte		N01   , Cn4 , v072
	.byte	W08
	.byte		N16   , Gs3 , v080
	.byte		N16   , Cn4 , v072
	.byte	W08
	.byte	PEND
@ 035   ----------------------------------------
Leon_2_035:
	.byte	W08
	.byte		N08   , Gs3 , v080
	.byte		N08   , Cn4 , v072
	.byte	W08
	.byte		N01   , Gs3 , v080
	.byte		N01   , Cn4 , v072
	.byte	W08
	.byte	PEND
@ 036   ----------------------------------------
Leon_2_036:
	.byte		N08   , Gs3 , v080
	.byte		N08   , Cn4 , v072
	.byte	W24
	.byte	PEND
@ 037   ----------------------------------------
	.byte	W24
@ 038   ----------------------------------------
	.byte	PATT
	 .word	Leon_2_026
@ 039   ----------------------------------------
	.byte	PATT
	 .word	Leon_2_027
@ 040   ----------------------------------------
	.byte	PATT
	 .word	Leon_2_028
@ 041   ----------------------------------------
	.byte	W24
@ 042   ----------------------------------------
Leon_2_042:
	.byte		N08   , Cn4 , v072
	.byte	W08
	.byte		N01   
	.byte	W08
	.byte		N16   
	.byte	W08
	.byte	PEND
@ 043   ----------------------------------------
Leon_2_043:
	.byte	W08
	.byte		N08   , Cn4 , v072
	.byte	W08
	.byte		N01   
	.byte	W08
	.byte	PEND
@ 044   ----------------------------------------
	.byte		N08   
	.byte	W24
@ 045   ----------------------------------------
	.byte	W24
@ 046   ----------------------------------------
	.byte	PATT
	 .word	Leon_2_042
@ 047   ----------------------------------------
	.byte	PATT
	 .word	Leon_2_043
@ 048   ----------------------------------------
	.byte		N08   , Cn4 , v072
	.byte	W18
Leon_2_B1:
	.byte	W06
@ 049   ----------------------------------------
	.byte	W24
@ 050   ----------------------------------------
	.byte	PATT
	 .word	Leon_2_042
@ 051   ----------------------------------------
	.byte	PATT
	 .word	Leon_2_043
@ 052   ----------------------------------------
	.byte		N08   , Cn4 , v072
	.byte	W24
@ 053   ----------------------------------------
	.byte	W24
@ 054   ----------------------------------------
	.byte	PATT
	 .word	Leon_2_042
@ 055   ----------------------------------------
	.byte	PATT
	 .word	Leon_2_043
@ 056   ----------------------------------------
	.byte		N08   , Cn4 , v072
	.byte	W24
@ 057   ----------------------------------------
	.byte	W24
@ 058   ----------------------------------------
	.byte	PATT
	 .word	Leon_2_026
@ 059   ----------------------------------------
	.byte	PATT
	 .word	Leon_2_027
@ 060   ----------------------------------------
	.byte	PATT
	 .word	Leon_2_028
@ 061   ----------------------------------------
	.byte	W24
@ 062   ----------------------------------------
	.byte	PATT
	 .word	Leon_2_026
@ 063   ----------------------------------------
	.byte	PATT
	 .word	Leon_2_027
@ 064   ----------------------------------------
	.byte	PATT
	 .word	Leon_2_028
@ 065   ----------------------------------------
	.byte	W24
@ 066   ----------------------------------------
	.byte	PATT
	 .word	Leon_2_034
@ 067   ----------------------------------------
	.byte	PATT
	 .word	Leon_2_035
@ 068   ----------------------------------------
	.byte	PATT
	 .word	Leon_2_036
@ 069   ----------------------------------------
	.byte	W24
@ 070   ----------------------------------------
	.byte	PATT
	 .word	Leon_2_026
@ 071   ----------------------------------------
	.byte	PATT
	 .word	Leon_2_027
@ 072   ----------------------------------------
	.byte	PATT
	 .word	Leon_2_028
@ 073   ----------------------------------------
	.byte	W24
@ 074   ----------------------------------------
	.byte	PATT
	 .word	Leon_2_018
@ 075   ----------------------------------------
	.byte	PATT
	 .word	Leon_2_019
@ 076   ----------------------------------------
	.byte	PATT
	 .word	Leon_2_020
@ 077   ----------------------------------------
	.byte	W24
@ 078   ----------------------------------------
	.byte	PATT
	 .word	Leon_2_018
@ 079   ----------------------------------------
	.byte	PATT
	 .word	Leon_2_019
@ 080   ----------------------------------------
	.byte	PATT
	 .word	Leon_2_020
@ 081   ----------------------------------------
	.byte	W08
	.byte		N08   , Gs3 , v072
	.byte		N08   , Ds4 , v060
	.byte	W08
	.byte		        Gs3 , v072
	.byte		N08   , Ds4 , v060
	.byte	W08
@ 082   ----------------------------------------
Leon_2_082:
	.byte		N01   , Gs3 , v072
	.byte		N01   , Ds4 , v060
	.byte	W08
	.byte		N08   , Gs3 , v072
	.byte		N08   , Ds4 , v060
	.byte	W08
	.byte		N01   , Gs3 , v072
	.byte		N01   , Ds4 , v060
	.byte	W08
	.byte	PEND
@ 083   ----------------------------------------
Leon_2_083:
	.byte		N24   , Gs3 , v072
	.byte		N24   , Ds4 , v060
	.byte	W24
	.byte	PEND
@ 084   ----------------------------------------
Leon_2_084:
	.byte		N01   , Gs3 , v072
	.byte		N01   , Ds4 , v060
	.byte	W08
	.byte		N08   , Gs3 , v072
	.byte		N08   , Ds4 , v060
	.byte	W08
	.byte		        Gs3 , v072
	.byte		N08   , Ds4 , v060
	.byte	W08
	.byte	PEND
@ 085   ----------------------------------------
Leon_2_085:
	.byte		N01   , Cn4 , v060
	.byte	W08
	.byte		N08   
	.byte	W08
	.byte		N08   
	.byte	W08
	.byte	PEND
@ 086   ----------------------------------------
	.byte		N01   
	.byte	W08
	.byte		N08   
	.byte	W08
	.byte		N01   
	.byte	W08
@ 087   ----------------------------------------
	.byte		N24   
	.byte	W24
@ 088   ----------------------------------------
	.byte	PATT
	 .word	Leon_2_085
@ 089   ----------------------------------------
	.byte	PATT
	 .word	Leon_2_084
@ 090   ----------------------------------------
	.byte	PATT
	 .word	Leon_2_082
@ 091   ----------------------------------------
	.byte	PATT
	 .word	Leon_2_083
@ 092   ----------------------------------------
	.byte	PATT
	 .word	Leon_2_084
@ 093   ----------------------------------------
Leon_2_093:
	.byte		N01   , Gn3 , v072
	.byte		N01   , Dn4 , v060
	.byte	W08
	.byte		N08   , Gn3 , v072
	.byte		N08   , Dn4 , v060
	.byte	W08
	.byte		        Gn3 , v072
	.byte		N08   , Dn4 , v060
	.byte	W08
	.byte	PEND
@ 094   ----------------------------------------
	.byte		N01   , Gn3 , v072
	.byte		N01   , Dn4 , v060
	.byte	W08
	.byte		N08   , Gn3 , v072
	.byte		N08   , Dn4 , v060
	.byte	W08
	.byte		N01   , Gn3 , v072
	.byte		N01   , Dn4 , v060
	.byte	W08
@ 095   ----------------------------------------
	.byte		N24   , Gn3 , v072
	.byte		N24   , Dn4 , v060
	.byte	W24
@ 096   ----------------------------------------
	.byte	PATT
	 .word	Leon_2_093
@ 097   ----------------------------------------
	.byte		N01   , Gn3 , v080
	.byte		N01   , Dn4 , v072
	.byte	W08
	.byte		N08   , Gn3 , v080
	.byte		N08   , Dn4 , v072
	.byte	W08
	.byte		        Gn3 , v080
	.byte		N08   , Dn4 , v072
	.byte	W08
@ 098   ----------------------------------------
	.byte		N01   , Gn3 , v080
	.byte		N01   , Dn4 , v072
	.byte	W08
	.byte		N07   , Gn3 , v092
	.byte		N07   , Dn4 , v080
	.byte	W16
@ 099   ----------------------------------------
	.byte		        Gn3 , v092
	.byte		N07   , Dn4 , v080
	.byte	W16
	.byte		        Gn3 , v092
	.byte		N07   , Dn4 , v080
	.byte	W08
@ 100   ----------------------------------------
	.byte	W08
	.byte		N08   , Gn3 , v040
	.byte		N08   , Dn4 , v032
	.byte	W08
	.byte		N07   , Gn3 , v060
	.byte		N07   , Dn4 , v052
	.byte	W08
@ 101   ----------------------------------------
	.byte		N23   , Gn3 , v080
	.byte		N23   , Cn4 , v072
	.byte	W24
@ 102   ----------------------------------------
	.byte	W24
@ 103   ----------------------------------------
	.byte	W24
@ 104   ----------------------------------------
	.byte	W24
@ 105   ----------------------------------------
	.byte	W24
@ 106   ----------------------------------------
	.byte	PATT
	 .word	Leon_2_042
@ 107   ----------------------------------------
	.byte	PATT
	 .word	Leon_2_043
@ 108   ----------------------------------------
	.byte		N08   , Cn4 , v072
	.byte	W24
@ 109   ----------------------------------------
	.byte	W24
@ 110   ----------------------------------------
	.byte	PATT
	 .word	Leon_2_026
@ 111   ----------------------------------------
	.byte	PATT
	 .word	Leon_2_027
@ 112   ----------------------------------------
	.byte	PATT
	 .word	Leon_2_028
@ 113   ----------------------------------------
	.byte	W24
@ 114   ----------------------------------------
	.byte	PATT
	 .word	Leon_2_026
@ 115   ----------------------------------------
	.byte	PATT
	 .word	Leon_2_027
@ 116   ----------------------------------------
	.byte	PATT
	 .word	Leon_2_028
@ 117   ----------------------------------------
	.byte	W24
@ 118   ----------------------------------------
	.byte	PATT
	 .word	Leon_2_034
@ 119   ----------------------------------------
	.byte	PATT
	 .word	Leon_2_035
@ 120   ----------------------------------------
	.byte	PATT
	 .word	Leon_2_036
@ 121   ----------------------------------------
	.byte	W24
@ 122   ----------------------------------------
	.byte	PATT
	 .word	Leon_2_026
@ 123   ----------------------------------------
	.byte	PATT
	 .word	Leon_2_027
@ 124   ----------------------------------------
	.byte	PATT
	 .word	Leon_2_028
@ 125   ----------------------------------------
	.byte	W24
@ 126   ----------------------------------------
	.byte	PATT
	 .word	Leon_2_042
@ 127   ----------------------------------------
Leon_2_127:
	.byte	W08
	.byte		N08   , Cn4 , v072
	.byte	W08
	.byte		        Cn4 , v012
	.byte	W08
	.byte	PEND
@ 128   ----------------------------------------
	.byte		        Cn4 , v072
	.byte	W24
@ 129   ----------------------------------------
	.byte	W24
@ 130   ----------------------------------------
	.byte	PATT
	 .word	Leon_2_042
@ 131   ----------------------------------------
	.byte	PATT
	 .word	Leon_2_127
@ 132   ----------------------------------------
	.byte		N08   , Cn4 , v072
	.byte	W24
@ 133   ----------------------------------------
	.byte	W24
@ 134   ----------------------------------------
	.byte	PATT
	 .word	Leon_2_042
@ 135   ----------------------------------------
	.byte	PATT
	 .word	Leon_2_127
@ 136   ----------------------------------------
	.byte		N08   , Cn4 , v072
	.byte	W24
@ 137   ----------------------------------------
	.byte	W24
@ 138   ----------------------------------------
	.byte	PATT
	 .word	Leon_2_042
@ 139   ----------------------------------------
	.byte	PATT
	 .word	Leon_2_127
@ 140   ----------------------------------------
	.byte		N08   , Cn4 , v072
	.byte	W24
@ 141   ----------------------------------------
	.byte	W24
@ 142   ----------------------------------------
	.byte	PATT
	 .word	Leon_2_026
@ 143   ----------------------------------------
	.byte	PATT
	 .word	Leon_2_027
@ 144   ----------------------------------------
	.byte	PATT
	 .word	Leon_2_028
@ 145   ----------------------------------------
	.byte	W24
@ 146   ----------------------------------------
	.byte	PATT
	 .word	Leon_2_026
@ 147   ----------------------------------------
	.byte	PATT
	 .word	Leon_2_027
@ 148   ----------------------------------------
	.byte	PATT
	 .word	Leon_2_028
@ 149   ----------------------------------------
	.byte	W24
@ 150   ----------------------------------------
	.byte	PATT
	 .word	Leon_2_034
@ 151   ----------------------------------------
	.byte	PATT
	 .word	Leon_2_035
@ 152   ----------------------------------------
	.byte	PATT
	 .word	Leon_2_036
@ 153   ----------------------------------------
	.byte	W24
@ 154   ----------------------------------------
	.byte	PATT
	 .word	Leon_2_026
@ 155   ----------------------------------------
	.byte	W08
	.byte		N08   , Gn2 , v040
	.byte		N08   , Dn3 
	.byte	W08
	.byte		        Gn2 , v052
	.byte		N08   , Dn3 
	.byte	W08
@ 156   ----------------------------------------
	.byte		        Gn2 , v060
	.byte		N08   , Dn3 
	.byte	W08
	.byte		        Gn2 , v072
	.byte		N08   , Dn3 
	.byte	W08
	.byte		        Gn2 , v080
	.byte		N08   , Dn3 
	.byte	W08
@ 157   ----------------------------------------
	.byte		N72   , Cn3 , v092
	.byte		N72   , Gn3 
	.byte	W24
@ 158   ----------------------------------------
	.byte	W24
@ 159   ----------------------------------------
	.byte	W24
@ 160   ----------------------------------------
	.byte		N08   , Cn3 , v052
	.byte		N08   , Gn3 
	.byte	W08
	.byte		        Cn3 , v072
	.byte		N08   , Gn3 
	.byte	W08
	.byte		        Cn3 , v092
	.byte		N08   , Gn3 
	.byte	W08
@ 161   ----------------------------------------
	.byte		N72   , As2 
	.byte		N72   , Fn3 
	.byte	W24
@ 162   ----------------------------------------
	.byte	W24
@ 163   ----------------------------------------
	.byte	W24
@ 164   ----------------------------------------
Leon_2_164:
	.byte		N08   , As2 , v052
	.byte		N08   , Fn3 
	.byte	W08
	.byte		        As2 , v072
	.byte		N08   , Fn3 
	.byte	W08
	.byte		        As2 , v092
	.byte		N08   , Fn3 
	.byte	W08
	.byte	PEND
@ 165   ----------------------------------------
	.byte		N72   , Gs2 
	.byte		N72   , Ds3 
	.byte	W24
@ 166   ----------------------------------------
	.byte	W24
@ 167   ----------------------------------------
	.byte	W24
@ 168   ----------------------------------------
	.byte		N08   , Gs2 , v052
	.byte		N08   , Ds3 
	.byte	W08
	.byte		        Gs2 , v072
	.byte		N08   , Ds3 
	.byte	W08
	.byte		        Gs2 , v092
	.byte		N08   , Ds3 
	.byte	W08
@ 169   ----------------------------------------
	.byte		N72   , As2 
	.byte		N72   , Fn3 
	.byte	W24
@ 170   ----------------------------------------
	.byte	W24
@ 171   ----------------------------------------
	.byte	W24
@ 172   ----------------------------------------
	.byte	PATT
	 .word	Leon_2_164
@ 173   ----------------------------------------
	.byte		N48   , Cn3 , v092
	.byte		N48   , Gn3 
	.byte	W24
@ 174   ----------------------------------------
	.byte	W24
@ 175   ----------------------------------------
	.byte		N08   , Cn3 , v052
	.byte	W08
	.byte		        Cn3 , v060
	.byte		N08   , Gn3 
	.byte	W08
	.byte		        Cn3 , v072
	.byte		N08   , Gn3 
	.byte	W08
@ 176   ----------------------------------------
	.byte		        Cn3 , v080
	.byte		N08   , Gn3 
	.byte	W08
	.byte		        Cn3 , v092
	.byte		N08   , Gn3 
	.byte	W08
	.byte		        Cn3 , v100
	.byte		N08   , Gn3 
	.byte	W08
@ 177   ----------------------------------------
	.byte		N48   , As2 , v092
	.byte		N48   , Fn3 
	.byte	W24
@ 178   ----------------------------------------
	.byte	W24
@ 179   ----------------------------------------
	.byte		N08   , As2 , v052
	.byte	W08
	.byte		        As2 , v060
	.byte		N08   , Fn3 
	.byte	W08
	.byte		        As2 , v072
	.byte		N08   , Fn3 
	.byte	W08
@ 180   ----------------------------------------
	.byte		        As2 , v080
	.byte		N08   , Fn3 
	.byte	W08
	.byte		        As2 , v092
	.byte		N08   , Fn3 
	.byte	W08
	.byte		        As2 , v100
	.byte		N08   , Fn3 
	.byte	W08
@ 181   ----------------------------------------
	.byte		N48   , Gs2 , v092
	.byte		N48   , Ds3 
	.byte	W24
@ 182   ----------------------------------------
	.byte	W24
@ 183   ----------------------------------------
	.byte		N08   , Gs2 , v052
	.byte	W08
	.byte		        Gs2 , v060
	.byte		N08   , Ds3 
	.byte	W08
	.byte		        Gs2 , v072
	.byte		N08   , Ds3 
	.byte	W08
@ 184   ----------------------------------------
	.byte		        Gs2 , v080
	.byte		N08   , Ds3 
	.byte	W08
	.byte		        Gs2 , v092
	.byte		N08   , Ds3 
	.byte	W08
	.byte		        Gs2 , v100
	.byte		N08   , Ds3 
	.byte	W08
@ 185   ----------------------------------------
	.byte		N56   , As2 , v092
	.byte		N56   , Fn3 
	.byte	W24
@ 186   ----------------------------------------
	.byte	W24
@ 187   ----------------------------------------
	.byte	W08
	.byte		N08   , As2 , v072
	.byte	W08
	.byte		        As2 , v076
	.byte		N08   , Fn3 
	.byte	W08
@ 188   ----------------------------------------
	.byte		        As2 , v080
	.byte		N08   , Fn3 
	.byte	W08
	.byte		        As2 , v088
	.byte		N08   , Fn3 
	.byte	W08
	.byte	GOTO
	 .word	Leon_2_B1
Leon_2_B2:
	.byte	W07
	.byte	FINE

@**************** Track 3 (Midi-Chn.3) ****************@

Leon_3:
	.byte	KEYSH , Leon_key+0
@ 000   ----------------------------------------
	.byte		VOICE , 56
	.byte		VOL   , 69*Leon_mvl/mxv
	.byte		PAN   , c_v+0
	.byte	W24
@ 001   ----------------------------------------
	.byte	W24
@ 002   ----------------------------------------
	.byte	W24
@ 003   ----------------------------------------
	.byte	W24
@ 004   ----------------------------------------
	.byte	W24
@ 005   ----------------------------------------
	.byte	W24
@ 006   ----------------------------------------
	.byte	W24
@ 007   ----------------------------------------
	.byte	W24
@ 008   ----------------------------------------
	.byte	W24
@ 009   ----------------------------------------
	.byte	W24
@ 010   ----------------------------------------
	.byte	W24
@ 011   ----------------------------------------
	.byte	W24
@ 012   ----------------------------------------
	.byte	W24
@ 013   ----------------------------------------
	.byte	W24
@ 014   ----------------------------------------
	.byte		N44   , Gn2 , v096
	.byte	W24
@ 015   ----------------------------------------
	.byte	W24
@ 016   ----------------------------------------
	.byte		N23   , Gn3 
	.byte	W24
@ 017   ----------------------------------------
	.byte		N44   , Cn4 
	.byte	W24
@ 018   ----------------------------------------
	.byte	W24
@ 019   ----------------------------------------
	.byte		N23   , Gn3 , v088
	.byte	W24
@ 020   ----------------------------------------
Leon_3_020:
	.byte		N07   , Cn4 , v088
	.byte	W08
	.byte		N07   
	.byte	W08
	.byte		N07   
	.byte	W08
	.byte	PEND
@ 021   ----------------------------------------
	.byte		N78   , Gn4 
	.byte	W24
@ 022   ----------------------------------------
	.byte	W24
@ 023   ----------------------------------------
	.byte	W24
@ 024   ----------------------------------------
Leon_3_024:
	.byte	W08
	.byte		N07   , Gn4 , v088
	.byte	W08
	.byte		        Gs4 
	.byte	W08
	.byte	PEND
@ 025   ----------------------------------------
	.byte		N60   , As4 
	.byte	W24
@ 026   ----------------------------------------
	.byte	W24
@ 027   ----------------------------------------
	.byte	W16
	.byte		N07   , As3 
	.byte	W08
@ 028   ----------------------------------------
	.byte		N48   
	.byte	W24
@ 029   ----------------------------------------
	.byte	W24
@ 030   ----------------------------------------
Leon_3_030:
	.byte	W04
	.byte		N03   , Cn4 , v088
	.byte	W04
	.byte		        Dn4 
	.byte	W04
	.byte		        Ds4 
	.byte	W04
	.byte		        Fn4 
	.byte	W04
	.byte		        Dn4 
	.byte	W04
	.byte	PEND
@ 031   ----------------------------------------
	.byte		N30   , As4 
	.byte	W24
@ 032   ----------------------------------------
Leon_3_032:
	.byte	W08
	.byte		N07   , Gs4 , v088
	.byte	W08
	.byte		        As4 
	.byte	W08
	.byte	PEND
@ 033   ----------------------------------------
	.byte		N78   , Cn5 
	.byte	W24
@ 034   ----------------------------------------
	.byte	W24
@ 035   ----------------------------------------
	.byte	W24
@ 036   ----------------------------------------
Leon_3_036:
	.byte	W08
	.byte		N07   , As4 , v088
	.byte	W08
	.byte		        Cn5 
	.byte	W08
	.byte	PEND
@ 037   ----------------------------------------
	.byte		N44   , Dn5 
	.byte	W24
@ 038   ----------------------------------------
	.byte	W24
@ 039   ----------------------------------------
	.byte		        Fn5 
	.byte	W24
@ 040   ----------------------------------------
	.byte	W24
@ 041   ----------------------------------------
	.byte		TIE   , Ds5 
	.byte	W24
@ 042   ----------------------------------------
	.byte	W24
@ 043   ----------------------------------------
	.byte	W24
@ 044   ----------------------------------------
	.byte	W24
@ 045   ----------------------------------------
	.byte	W24
@ 046   ----------------------------------------
	.byte	W24
@ 047   ----------------------------------------
	.byte	W23
	.byte		EOT   
	.byte	W01
@ 048   ----------------------------------------
	.byte		N23   , Dn5 
	.byte	W18
Leon_3_B1:
	.byte	W06
@ 049   ----------------------------------------
	.byte		N44   , Cn5 , v096
	.byte	W24
@ 050   ----------------------------------------
	.byte	W24
@ 051   ----------------------------------------
	.byte		N23   , Gn3 , v088
	.byte	W24
@ 052   ----------------------------------------
	.byte	PATT
	 .word	Leon_3_020
@ 053   ----------------------------------------
	.byte		N78   , Gn4 , v088
	.byte	W24
@ 054   ----------------------------------------
	.byte	W24
@ 055   ----------------------------------------
	.byte	W24
@ 056   ----------------------------------------
	.byte	PATT
	 .word	Leon_3_024
@ 057   ----------------------------------------
	.byte		N60   , As4 , v088
	.byte	W24
@ 058   ----------------------------------------
	.byte	W24
@ 059   ----------------------------------------
	.byte	W16
	.byte		N07   , As3 
	.byte	W08
@ 060   ----------------------------------------
	.byte		N48   
	.byte	W24
@ 061   ----------------------------------------
	.byte	W24
@ 062   ----------------------------------------
	.byte	PATT
	 .word	Leon_3_030
@ 063   ----------------------------------------
	.byte		N30   , As4 , v088
	.byte	W24
@ 064   ----------------------------------------
	.byte	PATT
	 .word	Leon_3_032
@ 065   ----------------------------------------
	.byte		N78   , Cn5 , v088
	.byte	W24
@ 066   ----------------------------------------
	.byte	W24
@ 067   ----------------------------------------
	.byte	W24
@ 068   ----------------------------------------
	.byte	PATT
	 .word	Leon_3_036
@ 069   ----------------------------------------
	.byte		N44   , Dn5 , v088
	.byte	W24
@ 070   ----------------------------------------
	.byte	W24
@ 071   ----------------------------------------
	.byte		        Fn5 
	.byte	W24
@ 072   ----------------------------------------
	.byte	W24
@ 073   ----------------------------------------
	.byte		TIE   , Ds5 
	.byte	W24
@ 074   ----------------------------------------
	.byte	W24
@ 075   ----------------------------------------
	.byte	W24
@ 076   ----------------------------------------
	.byte	W24
@ 077   ----------------------------------------
	.byte	W24
@ 078   ----------------------------------------
	.byte	W24
@ 079   ----------------------------------------
	.byte	W23
	.byte		EOT   
	.byte	W01
@ 080   ----------------------------------------
	.byte		N23   , Gn3 
	.byte	W24
@ 081   ----------------------------------------
	.byte		TIE   , Gs3 
	.byte	W24
@ 082   ----------------------------------------
	.byte	W24
@ 083   ----------------------------------------
	.byte	W24
@ 084   ----------------------------------------
	.byte	W24
@ 085   ----------------------------------------
	.byte	W24
@ 086   ----------------------------------------
	.byte	W15
	.byte		EOT   
	.byte	W09
@ 087   ----------------------------------------
	.byte		N23   , Cn5 
	.byte	W24
@ 088   ----------------------------------------
	.byte		        As4 
	.byte	W24
@ 089   ----------------------------------------
	.byte		N92   , Gs4 
	.byte	W24
@ 090   ----------------------------------------
	.byte	W24
@ 091   ----------------------------------------
	.byte	W24
@ 092   ----------------------------------------
	.byte	W24
@ 093   ----------------------------------------
	.byte		        Gn4 
	.byte	W24
@ 094   ----------------------------------------
	.byte	W24
@ 095   ----------------------------------------
	.byte	W24
@ 096   ----------------------------------------
	.byte	W24
@ 097   ----------------------------------------
	.byte		N24   
	.byte	W24
@ 098   ----------------------------------------
	.byte	W08
	.byte		N08   , Bn4 
	.byte		N08   , Gn5 , v096
	.byte	W16
@ 099   ----------------------------------------
	.byte		        Bn4 , v088
	.byte		N08   , Gn5 , v096
	.byte	W16
	.byte		        Bn4 , v088
	.byte		N08   , Gn5 , v096
	.byte	W08
@ 100   ----------------------------------------
	.byte	W24
@ 101   ----------------------------------------
	.byte	W24
@ 102   ----------------------------------------
	.byte	W24
@ 103   ----------------------------------------
	.byte	W24
@ 104   ----------------------------------------
	.byte	PATT
	 .word	Leon_3_020
@ 105   ----------------------------------------
	.byte		N78   , Gn4 , v088
	.byte	W24
@ 106   ----------------------------------------
	.byte	W24
@ 107   ----------------------------------------
	.byte	W24
@ 108   ----------------------------------------
	.byte	PATT
	 .word	Leon_3_024
@ 109   ----------------------------------------
	.byte		N60   , As4 , v088
	.byte	W24
@ 110   ----------------------------------------
	.byte	W24
@ 111   ----------------------------------------
	.byte	W16
	.byte		N07   , As3 
	.byte	W08
@ 112   ----------------------------------------
	.byte		N48   
	.byte	W24
@ 113   ----------------------------------------
	.byte	W24
@ 114   ----------------------------------------
	.byte	PATT
	 .word	Leon_3_030
@ 115   ----------------------------------------
	.byte		N30   , As4 , v088
	.byte	W24
@ 116   ----------------------------------------
	.byte	PATT
	 .word	Leon_3_032
@ 117   ----------------------------------------
	.byte		N78   , Cn5 , v088
	.byte	W24
@ 118   ----------------------------------------
	.byte	W24
@ 119   ----------------------------------------
	.byte	W24
@ 120   ----------------------------------------
	.byte	PATT
	 .word	Leon_3_036
@ 121   ----------------------------------------
	.byte		N44   , Dn5 , v088
	.byte	W24
@ 122   ----------------------------------------
	.byte	W24
@ 123   ----------------------------------------
	.byte		        Fn5 
	.byte	W24
@ 124   ----------------------------------------
	.byte	W24
@ 125   ----------------------------------------
	.byte		TIE   , Ds5 
	.byte	W24
@ 126   ----------------------------------------
	.byte	W24
@ 127   ----------------------------------------
	.byte	W24
@ 128   ----------------------------------------
	.byte	W24
@ 129   ----------------------------------------
	.byte	W24
@ 130   ----------------------------------------
	.byte	W24
@ 131   ----------------------------------------
	.byte	W23
	.byte		EOT   
	.byte	W01
@ 132   ----------------------------------------
	.byte		N23   , Dn5 
	.byte	W24
@ 133   ----------------------------------------
	.byte		        Cn4 , v096
	.byte		N23   , Cn5 
	.byte	W24
@ 134   ----------------------------------------
	.byte	W24
@ 135   ----------------------------------------
	.byte		        Gn3 , v088
	.byte	W24
@ 136   ----------------------------------------
	.byte	PATT
	 .word	Leon_3_020
@ 137   ----------------------------------------
	.byte		N78   , Gn4 , v088
	.byte	W24
@ 138   ----------------------------------------
	.byte	W24
@ 139   ----------------------------------------
	.byte	W24
@ 140   ----------------------------------------
	.byte	PATT
	 .word	Leon_3_024
@ 141   ----------------------------------------
	.byte		N60   , As4 , v088
	.byte	W24
@ 142   ----------------------------------------
	.byte	W24
@ 143   ----------------------------------------
	.byte	W16
	.byte		N07   , As3 
	.byte	W08
@ 144   ----------------------------------------
	.byte		N48   
	.byte	W24
@ 145   ----------------------------------------
	.byte	W24
@ 146   ----------------------------------------
	.byte	PATT
	 .word	Leon_3_030
@ 147   ----------------------------------------
	.byte		N30   , As4 , v088
	.byte	W24
@ 148   ----------------------------------------
	.byte	PATT
	 .word	Leon_3_032
@ 149   ----------------------------------------
	.byte		N78   , Cn5 , v088
	.byte	W24
@ 150   ----------------------------------------
	.byte	W24
@ 151   ----------------------------------------
	.byte	W24
@ 152   ----------------------------------------
	.byte	PATT
	 .word	Leon_3_036
@ 153   ----------------------------------------
	.byte		N44   , Dn5 , v088
	.byte	W24
@ 154   ----------------------------------------
	.byte	W24
@ 155   ----------------------------------------
	.byte		N32   , Fn5 
	.byte	W24
@ 156   ----------------------------------------
	.byte	W12
	.byte		N02   , En5 
	.byte	W03
	.byte		        Ds5 
	.byte	W03
	.byte		        Dn5 
	.byte	W03
	.byte		        Cs5 
	.byte	W03
@ 157   ----------------------------------------
	.byte		N92   , Cn5 
	.byte	W24
@ 158   ----------------------------------------
	.byte	W24
@ 159   ----------------------------------------
	.byte	W24
@ 160   ----------------------------------------
	.byte	W24
@ 161   ----------------------------------------
	.byte		        As4 
	.byte	W24
@ 162   ----------------------------------------
	.byte	W24
@ 163   ----------------------------------------
	.byte	W24
@ 164   ----------------------------------------
	.byte	W24
@ 165   ----------------------------------------
	.byte		        Gs4 
	.byte	W24
@ 166   ----------------------------------------
	.byte	W24
@ 167   ----------------------------------------
	.byte	W24
@ 168   ----------------------------------------
	.byte	W24
@ 169   ----------------------------------------
	.byte		        As4 
	.byte	W24
@ 170   ----------------------------------------
	.byte	W24
@ 171   ----------------------------------------
	.byte	W24
@ 172   ----------------------------------------
	.byte	W24
@ 173   ----------------------------------------
	.byte		        Cn5 
	.byte	W24
@ 174   ----------------------------------------
	.byte	W24
@ 175   ----------------------------------------
	.byte	W24
@ 176   ----------------------------------------
	.byte	W24
@ 177   ----------------------------------------
	.byte		        As4 
	.byte	W24
@ 178   ----------------------------------------
	.byte	W24
@ 179   ----------------------------------------
	.byte	W24
@ 180   ----------------------------------------
	.byte	W24
@ 181   ----------------------------------------
	.byte		        Gs4 
	.byte	W24
@ 182   ----------------------------------------
	.byte	W24
@ 183   ----------------------------------------
	.byte	W24
@ 184   ----------------------------------------
	.byte	W24
@ 185   ----------------------------------------
	.byte		N68   , As4 
	.byte	W24
@ 186   ----------------------------------------
	.byte	W24
@ 187   ----------------------------------------
	.byte	W24
@ 188   ----------------------------------------
	.byte	W16
	.byte	GOTO
	 .word	Leon_3_B1
Leon_3_B2:
	.byte	W07
	.byte	FINE

@**************** Track 4 (Midi-Chn.4) ****************@

Leon_4:
	.byte	KEYSH , Leon_key+0
@ 000   ----------------------------------------
	.byte		VOICE , 62
	.byte		VOL   , 87*Leon_mvl/mxv
	.byte		PAN   , c_v-1
	.byte	W24
@ 001   ----------------------------------------
	.byte		TIE   , Gn2 , v088
	.byte	W24
@ 002   ----------------------------------------
	.byte	W24
@ 003   ----------------------------------------
	.byte	W24
@ 004   ----------------------------------------
	.byte	W24
@ 005   ----------------------------------------
	.byte	W24
@ 006   ----------------------------------------
	.byte	W24
@ 007   ----------------------------------------
	.byte	W24
@ 008   ----------------------------------------
	.byte	W24
@ 009   ----------------------------------------
	.byte	W24
@ 010   ----------------------------------------
	.byte	W24
@ 011   ----------------------------------------
	.byte	W24
@ 012   ----------------------------------------
	.byte	W24
@ 013   ----------------------------------------
	.byte	W24
@ 014   ----------------------------------------
	.byte	W24
@ 015   ----------------------------------------
	.byte	W24
@ 016   ----------------------------------------
	.byte	W23
	.byte		EOT   
	.byte	W01
@ 017   ----------------------------------------
	.byte	W24
@ 018   ----------------------------------------
	.byte	W24
@ 019   ----------------------------------------
	.byte	W24
@ 020   ----------------------------------------
	.byte	W24
@ 021   ----------------------------------------
	.byte	W24
@ 022   ----------------------------------------
	.byte	W24
@ 023   ----------------------------------------
	.byte	W24
@ 024   ----------------------------------------
	.byte	W24
@ 025   ----------------------------------------
	.byte	W24
@ 026   ----------------------------------------
	.byte	W24
@ 027   ----------------------------------------
	.byte	W24
@ 028   ----------------------------------------
	.byte	W24
@ 029   ----------------------------------------
	.byte	W24
@ 030   ----------------------------------------
	.byte	W24
@ 031   ----------------------------------------
	.byte	W24
@ 032   ----------------------------------------
	.byte	W24
@ 033   ----------------------------------------
	.byte	W24
@ 034   ----------------------------------------
	.byte	W24
@ 035   ----------------------------------------
	.byte	W24
@ 036   ----------------------------------------
	.byte	W24
@ 037   ----------------------------------------
	.byte	W24
@ 038   ----------------------------------------
	.byte	W24
@ 039   ----------------------------------------
	.byte	W24
@ 040   ----------------------------------------
	.byte	W24
@ 041   ----------------------------------------
	.byte	W24
@ 042   ----------------------------------------
	.byte	W24
@ 043   ----------------------------------------
	.byte	W24
@ 044   ----------------------------------------
	.byte	W24
@ 045   ----------------------------------------
	.byte	W24
@ 046   ----------------------------------------
	.byte	W24
@ 047   ----------------------------------------
	.byte	W24
@ 048   ----------------------------------------
	.byte	W18
Leon_4_B1:
	.byte	W06
@ 049   ----------------------------------------
	.byte		N92   , Cn3 , v068
	.byte	W24
@ 050   ----------------------------------------
	.byte	W24
@ 051   ----------------------------------------
	.byte	W24
@ 052   ----------------------------------------
	.byte	W24
@ 053   ----------------------------------------
	.byte		N78   , Gn3 
	.byte	W24
@ 054   ----------------------------------------
	.byte	W24
@ 055   ----------------------------------------
	.byte	W24
@ 056   ----------------------------------------
Leon_4_056:
	.byte	W08
	.byte		N07   , Gn3 , v068
	.byte	W08
	.byte		        Gs3 
	.byte	W08
	.byte	PEND
@ 057   ----------------------------------------
	.byte		TIE   , As3 
	.byte	W24
@ 058   ----------------------------------------
	.byte	W24
@ 059   ----------------------------------------
	.byte	W24
@ 060   ----------------------------------------
	.byte	W24
@ 061   ----------------------------------------
	.byte	W24
@ 062   ----------------------------------------
	.byte	W24
@ 063   ----------------------------------------
	.byte	W24
@ 064   ----------------------------------------
	.byte	W07
	.byte		EOT   
	.byte	W01
	.byte		N07   , Cn4 
	.byte	W08
	.byte		        Dn4 
	.byte	W08
@ 065   ----------------------------------------
	.byte		N78   , Ds4 
	.byte	W24
@ 066   ----------------------------------------
	.byte	W24
@ 067   ----------------------------------------
	.byte	W24
@ 068   ----------------------------------------
Leon_4_068:
	.byte	W08
	.byte		N07   , Dn4 , v068
	.byte	W08
	.byte		        Ds4 
	.byte	W08
	.byte	PEND
@ 069   ----------------------------------------
	.byte		N44   , Fn4 
	.byte	W24
@ 070   ----------------------------------------
	.byte	W24
@ 071   ----------------------------------------
	.byte		        As3 
	.byte	W24
@ 072   ----------------------------------------
	.byte	W24
@ 073   ----------------------------------------
	.byte		TIE   , Cn4 
	.byte	W24
@ 074   ----------------------------------------
	.byte	W24
@ 075   ----------------------------------------
	.byte	W24
@ 076   ----------------------------------------
	.byte	W24
@ 077   ----------------------------------------
	.byte	W24
@ 078   ----------------------------------------
	.byte	W24
@ 079   ----------------------------------------
	.byte	W23
	.byte		EOT   
	.byte	W01
@ 080   ----------------------------------------
	.byte		N23   , Ds3 
	.byte	W24
@ 081   ----------------------------------------
	.byte		N23   
	.byte	W24
@ 082   ----------------------------------------
	.byte		N07   , Cn3 
	.byte	W08
	.byte		        Dn3 
	.byte	W08
	.byte		N36   , Cn4 
	.byte	W08
@ 083   ----------------------------------------
	.byte	W24
@ 084   ----------------------------------------
	.byte	W08
	.byte		N07   , As3 
	.byte	W08
	.byte		        Gs3 
	.byte	W08
@ 085   ----------------------------------------
	.byte		N07   
	.byte	W08
	.byte		        Gn3 
	.byte	W08
	.byte		        Gs3 
	.byte	W08
@ 086   ----------------------------------------
	.byte		N68   , Gn3 
	.byte	W24
@ 087   ----------------------------------------
	.byte	W24
@ 088   ----------------------------------------
	.byte	W24
@ 089   ----------------------------------------
	.byte		N92   , Cn4 
	.byte	W24
@ 090   ----------------------------------------
	.byte	W24
@ 091   ----------------------------------------
	.byte	W24
@ 092   ----------------------------------------
	.byte	W24
@ 093   ----------------------------------------
	.byte		N92   
	.byte	W24
@ 094   ----------------------------------------
	.byte	W24
@ 095   ----------------------------------------
	.byte	W24
@ 096   ----------------------------------------
	.byte	W24
@ 097   ----------------------------------------
	.byte		        Dn4 
	.byte	W24
@ 098   ----------------------------------------
	.byte	W24
@ 099   ----------------------------------------
	.byte	W24
@ 100   ----------------------------------------
	.byte	W24
@ 101   ----------------------------------------
	.byte	W24
@ 102   ----------------------------------------
	.byte	W24
@ 103   ----------------------------------------
	.byte	W24
@ 104   ----------------------------------------
	.byte	W24
@ 105   ----------------------------------------
	.byte	W24
@ 106   ----------------------------------------
	.byte	W24
@ 107   ----------------------------------------
	.byte	W24
@ 108   ----------------------------------------
	.byte	W24
@ 109   ----------------------------------------
	.byte	W24
@ 110   ----------------------------------------
	.byte	W24
@ 111   ----------------------------------------
	.byte	W24
@ 112   ----------------------------------------
	.byte	W24
@ 113   ----------------------------------------
	.byte	W24
@ 114   ----------------------------------------
	.byte	W24
@ 115   ----------------------------------------
	.byte	W24
@ 116   ----------------------------------------
	.byte	W24
@ 117   ----------------------------------------
	.byte	W24
@ 118   ----------------------------------------
	.byte	W24
@ 119   ----------------------------------------
	.byte	W24
@ 120   ----------------------------------------
	.byte	W24
@ 121   ----------------------------------------
	.byte	W24
@ 122   ----------------------------------------
	.byte	W24
@ 123   ----------------------------------------
	.byte	W24
@ 124   ----------------------------------------
	.byte	W24
@ 125   ----------------------------------------
	.byte	W24
@ 126   ----------------------------------------
	.byte	W24
@ 127   ----------------------------------------
	.byte	W24
@ 128   ----------------------------------------
	.byte	W24
@ 129   ----------------------------------------
	.byte	W24
@ 130   ----------------------------------------
	.byte	W24
@ 131   ----------------------------------------
	.byte	W24
@ 132   ----------------------------------------
	.byte	W24
@ 133   ----------------------------------------
	.byte		        Cn3 , v080
	.byte	W24
@ 134   ----------------------------------------
	.byte	W24
@ 135   ----------------------------------------
	.byte	W24
@ 136   ----------------------------------------
	.byte	W24
@ 137   ----------------------------------------
	.byte		N78   , Gn3 , v068
	.byte	W24
@ 138   ----------------------------------------
	.byte	W24
@ 139   ----------------------------------------
	.byte	W24
@ 140   ----------------------------------------
	.byte	PATT
	 .word	Leon_4_056
@ 141   ----------------------------------------
	.byte		TIE   , As3 , v068
	.byte	W24
@ 142   ----------------------------------------
	.byte	W24
@ 143   ----------------------------------------
	.byte	W24
@ 144   ----------------------------------------
	.byte	W24
@ 145   ----------------------------------------
	.byte	W24
@ 146   ----------------------------------------
	.byte	W24
@ 147   ----------------------------------------
	.byte	W24
@ 148   ----------------------------------------
	.byte	W07
	.byte		EOT   
	.byte	W01
	.byte		N07   , Cn4 
	.byte	W08
	.byte		        Dn4 
	.byte	W08
@ 149   ----------------------------------------
	.byte		N78   , Ds4 
	.byte	W24
@ 150   ----------------------------------------
	.byte	W24
@ 151   ----------------------------------------
	.byte	W24
@ 152   ----------------------------------------
	.byte	PATT
	 .word	Leon_4_068
@ 153   ----------------------------------------
	.byte		N44   , Fn4 , v068
	.byte	W24
@ 154   ----------------------------------------
	.byte	W24
@ 155   ----------------------------------------
	.byte		        As3 
	.byte	W24
@ 156   ----------------------------------------
	.byte	W24
@ 157   ----------------------------------------
	.byte		N96   , Gn4 
	.byte	W24
@ 158   ----------------------------------------
	.byte	W24
@ 159   ----------------------------------------
	.byte	W24
@ 160   ----------------------------------------
	.byte	W24
@ 161   ----------------------------------------
	.byte		N48   
	.byte	W24
@ 162   ----------------------------------------
	.byte	W24
@ 163   ----------------------------------------
	.byte		        Fn4 
	.byte	W24
@ 164   ----------------------------------------
	.byte	W24
@ 165   ----------------------------------------
	.byte		TIE   , Ds4 
	.byte	W24
@ 166   ----------------------------------------
	.byte	W24
@ 167   ----------------------------------------
	.byte	W24
@ 168   ----------------------------------------
	.byte	W24
@ 169   ----------------------------------------
	.byte	W24
@ 170   ----------------------------------------
	.byte	W24
	.byte		EOT   
@ 171   ----------------------------------------
	.byte		N48   , Fn4 
	.byte	W24
@ 172   ----------------------------------------
	.byte	W24
@ 173   ----------------------------------------
	.byte		TIE   , Gn4 
	.byte	W24
@ 174   ----------------------------------------
	.byte	W24
@ 175   ----------------------------------------
	.byte	W24
@ 176   ----------------------------------------
	.byte	W24
@ 177   ----------------------------------------
	.byte	W24
@ 178   ----------------------------------------
	.byte	W24
	.byte		EOT   
@ 179   ----------------------------------------
	.byte		N48   , Fn4 
	.byte	W24
@ 180   ----------------------------------------
	.byte	W24
@ 181   ----------------------------------------
	.byte		TIE   , Ds4 
	.byte	W24
@ 182   ----------------------------------------
	.byte	W24
@ 183   ----------------------------------------
	.byte	W24
@ 184   ----------------------------------------
	.byte	W24
@ 185   ----------------------------------------
	.byte	W24
@ 186   ----------------------------------------
	.byte	W24
@ 187   ----------------------------------------
	.byte	W23
	.byte		EOT   
	.byte	W01
@ 188   ----------------------------------------
	.byte	W16
	.byte	GOTO
	 .word	Leon_4_B1
Leon_4_B2:
	.byte	W07
	.byte	FINE

@**************** Track 5 (Midi-Chn.5) ****************@

Leon_5:
	.byte	KEYSH , Leon_key+0
@ 000   ----------------------------------------
	.byte		VOICE , 56
	.byte		VOL   , 62*Leon_mvl/mxv
	.byte		PAN   , c_v-1
	.byte	W24
@ 001   ----------------------------------------
	.byte	W24
@ 002   ----------------------------------------
	.byte	W24
@ 003   ----------------------------------------
	.byte	W24
@ 004   ----------------------------------------
	.byte	W24
@ 005   ----------------------------------------
	.byte	W24
@ 006   ----------------------------------------
	.byte	W24
@ 007   ----------------------------------------
	.byte	W24
@ 008   ----------------------------------------
	.byte	W24
@ 009   ----------------------------------------
	.byte	W24
@ 010   ----------------------------------------
	.byte	W24
@ 011   ----------------------------------------
	.byte	W24
@ 012   ----------------------------------------
	.byte	W24
@ 013   ----------------------------------------
	.byte	W24
@ 014   ----------------------------------------
	.byte	W24
@ 015   ----------------------------------------
	.byte	W24
@ 016   ----------------------------------------
	.byte	W24
@ 017   ----------------------------------------
	.byte	W24
@ 018   ----------------------------------------
	.byte	W24
@ 019   ----------------------------------------
	.byte	W24
@ 020   ----------------------------------------
	.byte	W24
@ 021   ----------------------------------------
	.byte	W24
@ 022   ----------------------------------------
	.byte	W24
@ 023   ----------------------------------------
	.byte	W24
@ 024   ----------------------------------------
	.byte	W24
@ 025   ----------------------------------------
Leon_5_025:
	.byte	W08
	.byte		N07   , Fn3 , v060
	.byte	W08
	.byte		N07   
	.byte	W08
	.byte	PEND
@ 026   ----------------------------------------
Leon_5_026:
	.byte		N15   , Fn3 , v060
	.byte	W16
	.byte		N15   
	.byte	W08
	.byte	PEND
@ 027   ----------------------------------------
	.byte	PATT
	 .word	Leon_5_025
@ 028   ----------------------------------------
	.byte	PATT
	 .word	Leon_5_025
@ 029   ----------------------------------------
	.byte	PATT
	 .word	Leon_5_025
@ 030   ----------------------------------------
	.byte	PATT
	 .word	Leon_5_026
@ 031   ----------------------------------------
	.byte	PATT
	 .word	Leon_5_025
@ 032   ----------------------------------------
	.byte	PATT
	 .word	Leon_5_025
@ 033   ----------------------------------------
Leon_5_033:
	.byte		N05   , Gs4 , v060
	.byte	W06
	.byte		        Ds4 
	.byte	W06
	.byte		        Cn4 
	.byte	W06
	.byte		        Gs3 
	.byte	W06
	.byte	PEND
@ 034   ----------------------------------------
Leon_5_034:
	.byte		N05   , Ds3 , v060
	.byte	W06
	.byte		        Cn3 
	.byte	W06
	.byte		        Gs4 
	.byte	W06
	.byte		        Ds4 
	.byte	W06
	.byte	PEND
@ 035   ----------------------------------------
Leon_5_035:
	.byte		N05   , Cn4 , v060
	.byte	W06
	.byte		        Gs3 
	.byte	W06
	.byte		        Ds3 
	.byte	W06
	.byte		        Cn3 
	.byte	W06
	.byte	PEND
@ 036   ----------------------------------------
	.byte		N23   , Gs4 
	.byte	W24
@ 037   ----------------------------------------
Leon_5_037:
	.byte		N05   , As4 , v060
	.byte	W06
	.byte		        Fn4 
	.byte	W06
	.byte		        Dn4 
	.byte	W06
	.byte		        As3 
	.byte	W06
	.byte	PEND
@ 038   ----------------------------------------
Leon_5_038:
	.byte		N05   , Fn3 , v060
	.byte	W06
	.byte		        Dn3 
	.byte	W06
	.byte		        As4 
	.byte	W06
	.byte		        Fn4 
	.byte	W06
	.byte	PEND
@ 039   ----------------------------------------
Leon_5_039:
	.byte		N05   , Dn4 , v060
	.byte	W06
	.byte		        As3 
	.byte	W06
	.byte		        Fn3 
	.byte	W06
	.byte		        Dn3 
	.byte	W06
	.byte	PEND
@ 040   ----------------------------------------
	.byte		N23   , As4 
	.byte	W24
@ 041   ----------------------------------------
Leon_5_041:
	.byte	W08
	.byte		N07   , Ds3 , v060
	.byte	W08
	.byte		N07   
	.byte	W08
	.byte	PEND
@ 042   ----------------------------------------
Leon_5_042:
	.byte		N15   , Ds3 , v060
	.byte	W16
	.byte		N15   
	.byte	W08
	.byte	PEND
@ 043   ----------------------------------------
	.byte	PATT
	 .word	Leon_5_041
@ 044   ----------------------------------------
	.byte	PATT
	 .word	Leon_5_041
@ 045   ----------------------------------------
	.byte	PATT
	 .word	Leon_5_041
@ 046   ----------------------------------------
	.byte	PATT
	 .word	Leon_5_042
@ 047   ----------------------------------------
Leon_5_047:
	.byte	W08
	.byte		N07   , Dn4 , v060
	.byte	W08
	.byte		        As3 
	.byte	W08
	.byte	PEND
@ 048   ----------------------------------------
	.byte		        Fn3 
	.byte	W08
	.byte		        Dn3 
	.byte	W08
	.byte		        As2 
	.byte	W02
Leon_5_B1:
	.byte	W06
@ 049   ----------------------------------------
	.byte	W24
@ 050   ----------------------------------------
	.byte	W24
@ 051   ----------------------------------------
	.byte	W24
@ 052   ----------------------------------------
	.byte	W24
@ 053   ----------------------------------------
	.byte	W24
@ 054   ----------------------------------------
	.byte	W24
@ 055   ----------------------------------------
	.byte	W24
@ 056   ----------------------------------------
	.byte	W24
@ 057   ----------------------------------------
	.byte	PATT
	 .word	Leon_5_025
@ 058   ----------------------------------------
	.byte	PATT
	 .word	Leon_5_026
@ 059   ----------------------------------------
	.byte	PATT
	 .word	Leon_5_025
@ 060   ----------------------------------------
	.byte	PATT
	 .word	Leon_5_025
@ 061   ----------------------------------------
	.byte	PATT
	 .word	Leon_5_025
@ 062   ----------------------------------------
	.byte	PATT
	 .word	Leon_5_026
@ 063   ----------------------------------------
	.byte	PATT
	 .word	Leon_5_025
@ 064   ----------------------------------------
	.byte	PATT
	 .word	Leon_5_025
@ 065   ----------------------------------------
	.byte	PATT
	 .word	Leon_5_033
@ 066   ----------------------------------------
	.byte	PATT
	 .word	Leon_5_034
@ 067   ----------------------------------------
	.byte	PATT
	 .word	Leon_5_035
@ 068   ----------------------------------------
	.byte		N23   , Gs4 , v060
	.byte	W24
@ 069   ----------------------------------------
	.byte	PATT
	 .word	Leon_5_037
@ 070   ----------------------------------------
	.byte	PATT
	 .word	Leon_5_038
@ 071   ----------------------------------------
	.byte	PATT
	 .word	Leon_5_039
@ 072   ----------------------------------------
	.byte		N23   , As4 , v060
	.byte	W24
@ 073   ----------------------------------------
	.byte	PATT
	 .word	Leon_5_041
@ 074   ----------------------------------------
	.byte	PATT
	 .word	Leon_5_042
@ 075   ----------------------------------------
	.byte	PATT
	 .word	Leon_5_041
@ 076   ----------------------------------------
	.byte	PATT
	 .word	Leon_5_041
@ 077   ----------------------------------------
	.byte	PATT
	 .word	Leon_5_041
@ 078   ----------------------------------------
	.byte	PATT
	 .word	Leon_5_042
@ 079   ----------------------------------------
	.byte	PATT
	 .word	Leon_5_041
@ 080   ----------------------------------------
	.byte	PATT
	 .word	Leon_5_041
@ 081   ----------------------------------------
Leon_5_081:
	.byte	W08
	.byte		N07   , Cn2 , v060
	.byte	W08
	.byte		N07   
	.byte	W08
	.byte	PEND
@ 082   ----------------------------------------
Leon_5_082:
	.byte		N15   , Cn2 , v060
	.byte	W16
	.byte		N15   
	.byte	W08
	.byte	PEND
@ 083   ----------------------------------------
	.byte	PATT
	 .word	Leon_5_081
@ 084   ----------------------------------------
	.byte	W08
	.byte		N07   , Ds2 , v060
	.byte	W08
	.byte		        Dn2 
	.byte	W08
@ 085   ----------------------------------------
	.byte	PATT
	 .word	Leon_5_081
@ 086   ----------------------------------------
	.byte	PATT
	 .word	Leon_5_082
@ 087   ----------------------------------------
	.byte	PATT
	 .word	Leon_5_081
@ 088   ----------------------------------------
	.byte	PATT
	 .word	Leon_5_081
@ 089   ----------------------------------------
	.byte	PATT
	 .word	Leon_5_081
@ 090   ----------------------------------------
	.byte	PATT
	 .word	Leon_5_082
@ 091   ----------------------------------------
	.byte	PATT
	 .word	Leon_5_081
@ 092   ----------------------------------------
	.byte	PATT
	 .word	Leon_5_081
@ 093   ----------------------------------------
	.byte	PATT
	 .word	Leon_5_081
@ 094   ----------------------------------------
	.byte	PATT
	 .word	Leon_5_082
@ 095   ----------------------------------------
	.byte	PATT
	 .word	Leon_5_081
@ 096   ----------------------------------------
	.byte	PATT
	 .word	Leon_5_081
@ 097   ----------------------------------------
	.byte	W08
	.byte		N07   , Bn1 , v072
	.byte	W08
	.byte		N07   
	.byte	W08
@ 098   ----------------------------------------
	.byte	W08
	.byte		N07   
	.byte	W16
@ 099   ----------------------------------------
	.byte		N07   
	.byte	W16
	.byte		N07   
	.byte	W08
@ 100   ----------------------------------------
	.byte	W08
	.byte		        Bn1 , v060
	.byte	W08
	.byte		N07   
	.byte	W08
@ 101   ----------------------------------------
	.byte	W24
@ 102   ----------------------------------------
	.byte	W24
@ 103   ----------------------------------------
	.byte	W24
@ 104   ----------------------------------------
	.byte	W24
@ 105   ----------------------------------------
	.byte	W24
@ 106   ----------------------------------------
	.byte	W24
@ 107   ----------------------------------------
	.byte	W24
@ 108   ----------------------------------------
	.byte	W24
@ 109   ----------------------------------------
	.byte	PATT
	 .word	Leon_5_025
@ 110   ----------------------------------------
	.byte	PATT
	 .word	Leon_5_026
@ 111   ----------------------------------------
	.byte	PATT
	 .word	Leon_5_025
@ 112   ----------------------------------------
	.byte	PATT
	 .word	Leon_5_025
@ 113   ----------------------------------------
	.byte	PATT
	 .word	Leon_5_025
@ 114   ----------------------------------------
	.byte	PATT
	 .word	Leon_5_026
@ 115   ----------------------------------------
	.byte	PATT
	 .word	Leon_5_025
@ 116   ----------------------------------------
	.byte	PATT
	 .word	Leon_5_025
@ 117   ----------------------------------------
	.byte	PATT
	 .word	Leon_5_033
@ 118   ----------------------------------------
	.byte	PATT
	 .word	Leon_5_034
@ 119   ----------------------------------------
	.byte	PATT
	 .word	Leon_5_035
@ 120   ----------------------------------------
	.byte		N23   , Gs4 , v060
	.byte	W24
@ 121   ----------------------------------------
	.byte	PATT
	 .word	Leon_5_037
@ 122   ----------------------------------------
	.byte	PATT
	 .word	Leon_5_038
@ 123   ----------------------------------------
	.byte	PATT
	 .word	Leon_5_039
@ 124   ----------------------------------------
	.byte		N23   , As4 , v060
	.byte	W24
@ 125   ----------------------------------------
	.byte	PATT
	 .word	Leon_5_041
@ 126   ----------------------------------------
	.byte	PATT
	 .word	Leon_5_042
@ 127   ----------------------------------------
	.byte	PATT
	 .word	Leon_5_041
@ 128   ----------------------------------------
	.byte	PATT
	 .word	Leon_5_041
@ 129   ----------------------------------------
	.byte	PATT
	 .word	Leon_5_041
@ 130   ----------------------------------------
	.byte	PATT
	 .word	Leon_5_042
@ 131   ----------------------------------------
	.byte	PATT
	 .word	Leon_5_047
@ 132   ----------------------------------------
Leon_5_132:
	.byte		N07   , Fn3 , v060
	.byte	W08
	.byte		        Dn3 
	.byte	W08
	.byte		        As2 
	.byte	W08
	.byte	PEND
@ 133   ----------------------------------------
	.byte	W24
@ 134   ----------------------------------------
	.byte	W24
@ 135   ----------------------------------------
	.byte	W24
@ 136   ----------------------------------------
	.byte	W24
@ 137   ----------------------------------------
	.byte	W24
@ 138   ----------------------------------------
	.byte	W24
@ 139   ----------------------------------------
	.byte	W24
@ 140   ----------------------------------------
	.byte	W24
@ 141   ----------------------------------------
	.byte	PATT
	 .word	Leon_5_025
@ 142   ----------------------------------------
	.byte	PATT
	 .word	Leon_5_026
@ 143   ----------------------------------------
	.byte	PATT
	 .word	Leon_5_025
@ 144   ----------------------------------------
	.byte	PATT
	 .word	Leon_5_025
@ 145   ----------------------------------------
	.byte	PATT
	 .word	Leon_5_025
@ 146   ----------------------------------------
	.byte	PATT
	 .word	Leon_5_026
@ 147   ----------------------------------------
	.byte	PATT
	 .word	Leon_5_025
@ 148   ----------------------------------------
	.byte	PATT
	 .word	Leon_5_025
@ 149   ----------------------------------------
	.byte	PATT
	 .word	Leon_5_033
@ 150   ----------------------------------------
	.byte	PATT
	 .word	Leon_5_034
@ 151   ----------------------------------------
	.byte	PATT
	 .word	Leon_5_035
@ 152   ----------------------------------------
	.byte		N23   , Gs4 , v060
	.byte	W24
@ 153   ----------------------------------------
	.byte	PATT
	 .word	Leon_5_037
@ 154   ----------------------------------------
	.byte		N05   , Fn3 , v060
	.byte	W06
	.byte		        Dn3 
	.byte	W06
	.byte		        As2 
	.byte	W06
	.byte		        Fn2 
	.byte	W06
@ 155   ----------------------------------------
	.byte		N48   , Dn2 
	.byte	W24
@ 156   ----------------------------------------
	.byte	W24
@ 157   ----------------------------------------
	.byte	PATT
	 .word	Leon_5_041
@ 158   ----------------------------------------
	.byte	PATT
	 .word	Leon_5_042
@ 159   ----------------------------------------
	.byte	PATT
	 .word	Leon_5_041
@ 160   ----------------------------------------
	.byte	PATT
	 .word	Leon_5_041
@ 161   ----------------------------------------
	.byte	PATT
	 .word	Leon_5_041
@ 162   ----------------------------------------
	.byte	PATT
	 .word	Leon_5_042
@ 163   ----------------------------------------
	.byte	PATT
	 .word	Leon_5_047
@ 164   ----------------------------------------
	.byte	PATT
	 .word	Leon_5_132
@ 165   ----------------------------------------
	.byte	PATT
	 .word	Leon_5_041
@ 166   ----------------------------------------
	.byte	PATT
	 .word	Leon_5_042
@ 167   ----------------------------------------
	.byte	PATT
	 .word	Leon_5_041
@ 168   ----------------------------------------
	.byte	PATT
	 .word	Leon_5_041
@ 169   ----------------------------------------
	.byte	PATT
	 .word	Leon_5_041
@ 170   ----------------------------------------
	.byte	PATT
	 .word	Leon_5_042
@ 171   ----------------------------------------
	.byte	PATT
	 .word	Leon_5_047
@ 172   ----------------------------------------
	.byte	PATT
	 .word	Leon_5_132
@ 173   ----------------------------------------
	.byte	PATT
	 .word	Leon_5_041
@ 174   ----------------------------------------
	.byte	PATT
	 .word	Leon_5_042
@ 175   ----------------------------------------
	.byte	PATT
	 .word	Leon_5_041
@ 176   ----------------------------------------
	.byte	PATT
	 .word	Leon_5_041
@ 177   ----------------------------------------
	.byte	PATT
	 .word	Leon_5_041
@ 178   ----------------------------------------
	.byte	PATT
	 .word	Leon_5_042
@ 179   ----------------------------------------
	.byte	PATT
	 .word	Leon_5_047
@ 180   ----------------------------------------
	.byte	PATT
	 .word	Leon_5_132
@ 181   ----------------------------------------
	.byte	PATT
	 .word	Leon_5_041
@ 182   ----------------------------------------
	.byte	PATT
	 .word	Leon_5_042
@ 183   ----------------------------------------
	.byte	PATT
	 .word	Leon_5_041
@ 184   ----------------------------------------
	.byte	PATT
	 .word	Leon_5_041
@ 185   ----------------------------------------
	.byte	PATT
	 .word	Leon_5_041
@ 186   ----------------------------------------
	.byte	PATT
	 .word	Leon_5_042
@ 187   ----------------------------------------
	.byte	PATT
	 .word	Leon_5_047
@ 188   ----------------------------------------
	.byte		N07   , Fn3 , v060
	.byte	W08
	.byte		        Dn3 
	.byte	W08
	.byte	GOTO
	 .word	Leon_5_B1
Leon_5_B2:
	.byte		N07   , As2 , v060
	.byte	W07
	.byte	FINE

@**************** Track 6 (Midi-Chn.6) ****************@

Leon_6:
	.byte	KEYSH , Leon_key+0
@ 000   ----------------------------------------
	.byte		VOICE , 60
	.byte		VOL   , 64*Leon_mvl/mxv
	.byte		PAN   , c_v-1
	.byte	W24
@ 001   ----------------------------------------
	.byte	W24
@ 002   ----------------------------------------
	.byte	W24
@ 003   ----------------------------------------
	.byte	W24
@ 004   ----------------------------------------
	.byte	W24
@ 005   ----------------------------------------
	.byte	W24
@ 006   ----------------------------------------
	.byte	W24
@ 007   ----------------------------------------
	.byte	W24
@ 008   ----------------------------------------
	.byte	W24
@ 009   ----------------------------------------
	.byte	W24
@ 010   ----------------------------------------
	.byte	W24
@ 011   ----------------------------------------
	.byte	W24
@ 012   ----------------------------------------
	.byte	W24
@ 013   ----------------------------------------
	.byte	W24
@ 014   ----------------------------------------
	.byte	W24
@ 015   ----------------------------------------
	.byte	W24
@ 016   ----------------------------------------
	.byte	W24
@ 017   ----------------------------------------
Leon_6_017:
	.byte	W08
	.byte		N07   , Gn3 , v056
	.byte	W08
	.byte		N07   
	.byte	W08
	.byte	PEND
@ 018   ----------------------------------------
Leon_6_018:
	.byte		N15   , Gn3 , v056
	.byte	W16
	.byte		N15   
	.byte	W08
	.byte	PEND
@ 019   ----------------------------------------
	.byte	PATT
	 .word	Leon_6_017
@ 020   ----------------------------------------
	.byte	PATT
	 .word	Leon_6_017
@ 021   ----------------------------------------
	.byte	PATT
	 .word	Leon_6_017
@ 022   ----------------------------------------
	.byte	PATT
	 .word	Leon_6_018
@ 023   ----------------------------------------
	.byte	PATT
	 .word	Leon_6_017
@ 024   ----------------------------------------
	.byte	PATT
	 .word	Leon_6_017
@ 025   ----------------------------------------
	.byte	PATT
	 .word	Leon_6_017
@ 026   ----------------------------------------
	.byte	PATT
	 .word	Leon_6_018
@ 027   ----------------------------------------
	.byte	PATT
	 .word	Leon_6_017
@ 028   ----------------------------------------
	.byte	PATT
	 .word	Leon_6_017
@ 029   ----------------------------------------
	.byte	PATT
	 .word	Leon_6_017
@ 030   ----------------------------------------
	.byte	PATT
	 .word	Leon_6_018
@ 031   ----------------------------------------
	.byte	PATT
	 .word	Leon_6_017
@ 032   ----------------------------------------
	.byte	PATT
	 .word	Leon_6_017
@ 033   ----------------------------------------
Leon_6_033:
	.byte		N05   , Cn5 , v056
	.byte	W06
	.byte		        Gs4 
	.byte	W06
	.byte		        Ds4 
	.byte	W06
	.byte		        Cn4 
	.byte	W06
	.byte	PEND
@ 034   ----------------------------------------
Leon_6_034:
	.byte		N05   , Gs3 , v056
	.byte	W06
	.byte		        Ds3 
	.byte	W06
	.byte		        Cn5 
	.byte	W06
	.byte		        Gs4 
	.byte	W06
	.byte	PEND
@ 035   ----------------------------------------
Leon_6_035:
	.byte		N05   , Ds4 , v056
	.byte	W06
	.byte		        Cn4 
	.byte	W06
	.byte		        Gs3 
	.byte	W06
	.byte		        Ds3 
	.byte	W06
	.byte	PEND
@ 036   ----------------------------------------
	.byte		N23   , Cn5 
	.byte	W24
@ 037   ----------------------------------------
Leon_6_037:
	.byte		N05   , Dn5 , v056
	.byte	W06
	.byte		        As4 
	.byte	W06
	.byte		        Fn4 
	.byte	W06
	.byte		        Dn4 
	.byte	W06
	.byte	PEND
@ 038   ----------------------------------------
Leon_6_038:
	.byte		N05   , As3 , v056
	.byte	W06
	.byte		        Fn3 
	.byte	W06
	.byte		        Dn5 
	.byte	W06
	.byte		        As4 
	.byte	W06
	.byte	PEND
@ 039   ----------------------------------------
Leon_6_039:
	.byte		N05   , Fn4 , v056
	.byte	W06
	.byte		        Dn4 
	.byte	W06
	.byte		        As3 
	.byte	W06
	.byte		        Fn3 
	.byte	W06
	.byte	PEND
@ 040   ----------------------------------------
	.byte		N23   , Dn5 
	.byte	W24
@ 041   ----------------------------------------
	.byte	PATT
	 .word	Leon_6_017
@ 042   ----------------------------------------
	.byte	PATT
	 .word	Leon_6_018
@ 043   ----------------------------------------
	.byte	PATT
	 .word	Leon_6_017
@ 044   ----------------------------------------
	.byte	PATT
	 .word	Leon_6_017
@ 045   ----------------------------------------
	.byte	PATT
	 .word	Leon_6_017
@ 046   ----------------------------------------
	.byte	PATT
	 .word	Leon_6_018
@ 047   ----------------------------------------
Leon_6_047:
	.byte	W08
	.byte		N07   , Fn4 , v056
	.byte	W08
	.byte		        Dn4 
	.byte	W08
	.byte	PEND
@ 048   ----------------------------------------
	.byte		        As3 
	.byte	W08
	.byte		        Gn3 
	.byte	W08
	.byte		        Fn3 
	.byte	W02
Leon_6_B1:
	.byte	W06
@ 049   ----------------------------------------
	.byte	PATT
	 .word	Leon_6_017
@ 050   ----------------------------------------
	.byte	PATT
	 .word	Leon_6_018
@ 051   ----------------------------------------
	.byte	PATT
	 .word	Leon_6_017
@ 052   ----------------------------------------
	.byte	PATT
	 .word	Leon_6_017
@ 053   ----------------------------------------
	.byte	PATT
	 .word	Leon_6_017
@ 054   ----------------------------------------
	.byte	PATT
	 .word	Leon_6_018
@ 055   ----------------------------------------
	.byte	PATT
	 .word	Leon_6_017
@ 056   ----------------------------------------
	.byte	PATT
	 .word	Leon_6_017
@ 057   ----------------------------------------
	.byte	PATT
	 .word	Leon_6_017
@ 058   ----------------------------------------
	.byte	PATT
	 .word	Leon_6_018
@ 059   ----------------------------------------
	.byte	PATT
	 .word	Leon_6_017
@ 060   ----------------------------------------
	.byte	PATT
	 .word	Leon_6_017
@ 061   ----------------------------------------
	.byte	PATT
	 .word	Leon_6_017
@ 062   ----------------------------------------
	.byte	PATT
	 .word	Leon_6_018
@ 063   ----------------------------------------
	.byte	PATT
	 .word	Leon_6_017
@ 064   ----------------------------------------
	.byte	PATT
	 .word	Leon_6_017
@ 065   ----------------------------------------
	.byte	PATT
	 .word	Leon_6_033
@ 066   ----------------------------------------
	.byte	PATT
	 .word	Leon_6_034
@ 067   ----------------------------------------
	.byte	PATT
	 .word	Leon_6_035
@ 068   ----------------------------------------
	.byte		N23   , Cn5 , v056
	.byte	W24
@ 069   ----------------------------------------
	.byte	PATT
	 .word	Leon_6_037
@ 070   ----------------------------------------
	.byte	PATT
	 .word	Leon_6_038
@ 071   ----------------------------------------
	.byte	PATT
	 .word	Leon_6_039
@ 072   ----------------------------------------
	.byte		N23   , Dn5 , v056
	.byte	W24
@ 073   ----------------------------------------
	.byte	PATT
	 .word	Leon_6_017
@ 074   ----------------------------------------
	.byte	PATT
	 .word	Leon_6_018
@ 075   ----------------------------------------
	.byte	PATT
	 .word	Leon_6_017
@ 076   ----------------------------------------
	.byte	PATT
	 .word	Leon_6_017
@ 077   ----------------------------------------
	.byte	PATT
	 .word	Leon_6_017
@ 078   ----------------------------------------
	.byte	PATT
	 .word	Leon_6_018
@ 079   ----------------------------------------
	.byte	PATT
	 .word	Leon_6_017
@ 080   ----------------------------------------
	.byte	PATT
	 .word	Leon_6_017
@ 081   ----------------------------------------
Leon_6_081:
	.byte	W08
	.byte		N07   , Ds2 , v056
	.byte	W08
	.byte		N07   
	.byte	W08
	.byte	PEND
@ 082   ----------------------------------------
Leon_6_082:
	.byte		N15   , Ds2 , v056
	.byte	W16
	.byte		N15   
	.byte	W08
	.byte	PEND
@ 083   ----------------------------------------
	.byte	PATT
	 .word	Leon_6_081
@ 084   ----------------------------------------
	.byte	W08
	.byte		N07   , Gn2 , v056
	.byte	W08
	.byte		        Fn2 
	.byte	W08
@ 085   ----------------------------------------
	.byte	PATT
	 .word	Leon_6_081
@ 086   ----------------------------------------
	.byte	PATT
	 .word	Leon_6_082
@ 087   ----------------------------------------
	.byte	PATT
	 .word	Leon_6_081
@ 088   ----------------------------------------
	.byte	PATT
	 .word	Leon_6_081
@ 089   ----------------------------------------
	.byte	PATT
	 .word	Leon_6_081
@ 090   ----------------------------------------
	.byte	PATT
	 .word	Leon_6_082
@ 091   ----------------------------------------
	.byte	PATT
	 .word	Leon_6_081
@ 092   ----------------------------------------
	.byte	PATT
	 .word	Leon_6_081
@ 093   ----------------------------------------
Leon_6_093:
	.byte	W08
	.byte		N07   , Dn2 , v056
	.byte	W08
	.byte		N07   
	.byte	W08
	.byte	PEND
@ 094   ----------------------------------------
	.byte		N15   
	.byte	W16
	.byte		N15   
	.byte	W08
@ 095   ----------------------------------------
	.byte	PATT
	 .word	Leon_6_093
@ 096   ----------------------------------------
	.byte	PATT
	 .word	Leon_6_093
@ 097   ----------------------------------------
	.byte	W08
	.byte		N07   , Dn2 , v068
	.byte	W08
	.byte		N07   
	.byte	W08
@ 098   ----------------------------------------
	.byte	W08
	.byte		N07   
	.byte	W16
@ 099   ----------------------------------------
	.byte		N07   
	.byte	W16
	.byte		N07   
	.byte	W08
@ 100   ----------------------------------------
	.byte	PATT
	 .word	Leon_6_093
@ 101   ----------------------------------------
	.byte	PATT
	 .word	Leon_6_017
@ 102   ----------------------------------------
	.byte	PATT
	 .word	Leon_6_018
@ 103   ----------------------------------------
	.byte	PATT
	 .word	Leon_6_017
@ 104   ----------------------------------------
	.byte	PATT
	 .word	Leon_6_017
@ 105   ----------------------------------------
	.byte	PATT
	 .word	Leon_6_017
@ 106   ----------------------------------------
	.byte	PATT
	 .word	Leon_6_018
@ 107   ----------------------------------------
	.byte	PATT
	 .word	Leon_6_017
@ 108   ----------------------------------------
	.byte	PATT
	 .word	Leon_6_017
@ 109   ----------------------------------------
	.byte	PATT
	 .word	Leon_6_017
@ 110   ----------------------------------------
	.byte	PATT
	 .word	Leon_6_018
@ 111   ----------------------------------------
	.byte	PATT
	 .word	Leon_6_017
@ 112   ----------------------------------------
	.byte	PATT
	 .word	Leon_6_017
@ 113   ----------------------------------------
	.byte	PATT
	 .word	Leon_6_017
@ 114   ----------------------------------------
	.byte	PATT
	 .word	Leon_6_018
@ 115   ----------------------------------------
	.byte	PATT
	 .word	Leon_6_017
@ 116   ----------------------------------------
	.byte	PATT
	 .word	Leon_6_017
@ 117   ----------------------------------------
	.byte	PATT
	 .word	Leon_6_033
@ 118   ----------------------------------------
	.byte	PATT
	 .word	Leon_6_034
@ 119   ----------------------------------------
	.byte	PATT
	 .word	Leon_6_035
@ 120   ----------------------------------------
	.byte		N23   , Cn5 , v056
	.byte	W24
@ 121   ----------------------------------------
	.byte	PATT
	 .word	Leon_6_037
@ 122   ----------------------------------------
	.byte	PATT
	 .word	Leon_6_038
@ 123   ----------------------------------------
	.byte	PATT
	 .word	Leon_6_039
@ 124   ----------------------------------------
	.byte		N23   , Dn5 , v056
	.byte	W24
@ 125   ----------------------------------------
	.byte	PATT
	 .word	Leon_6_017
@ 126   ----------------------------------------
	.byte	PATT
	 .word	Leon_6_018
@ 127   ----------------------------------------
	.byte	PATT
	 .word	Leon_6_017
@ 128   ----------------------------------------
	.byte	PATT
	 .word	Leon_6_017
@ 129   ----------------------------------------
	.byte	PATT
	 .word	Leon_6_017
@ 130   ----------------------------------------
	.byte	PATT
	 .word	Leon_6_018
@ 131   ----------------------------------------
	.byte	PATT
	 .word	Leon_6_047
@ 132   ----------------------------------------
Leon_6_132:
	.byte		N07   , As3 , v056
	.byte	W08
	.byte		        Gn3 
	.byte	W08
	.byte		        Fn3 
	.byte	W08
	.byte	PEND
@ 133   ----------------------------------------
	.byte	PATT
	 .word	Leon_6_017
@ 134   ----------------------------------------
	.byte	PATT
	 .word	Leon_6_018
@ 135   ----------------------------------------
	.byte	PATT
	 .word	Leon_6_017
@ 136   ----------------------------------------
	.byte	PATT
	 .word	Leon_6_017
@ 137   ----------------------------------------
	.byte	PATT
	 .word	Leon_6_017
@ 138   ----------------------------------------
	.byte	PATT
	 .word	Leon_6_018
@ 139   ----------------------------------------
	.byte	PATT
	 .word	Leon_6_017
@ 140   ----------------------------------------
	.byte	PATT
	 .word	Leon_6_017
@ 141   ----------------------------------------
	.byte	PATT
	 .word	Leon_6_017
@ 142   ----------------------------------------
	.byte	PATT
	 .word	Leon_6_018
@ 143   ----------------------------------------
	.byte	PATT
	 .word	Leon_6_017
@ 144   ----------------------------------------
	.byte	PATT
	 .word	Leon_6_017
@ 145   ----------------------------------------
	.byte	PATT
	 .word	Leon_6_017
@ 146   ----------------------------------------
	.byte	PATT
	 .word	Leon_6_018
@ 147   ----------------------------------------
	.byte	PATT
	 .word	Leon_6_017
@ 148   ----------------------------------------
	.byte	PATT
	 .word	Leon_6_017
@ 149   ----------------------------------------
	.byte	PATT
	 .word	Leon_6_033
@ 150   ----------------------------------------
	.byte	PATT
	 .word	Leon_6_034
@ 151   ----------------------------------------
	.byte	PATT
	 .word	Leon_6_035
@ 152   ----------------------------------------
	.byte		N23   , Cn5 , v056
	.byte	W24
@ 153   ----------------------------------------
	.byte	PATT
	 .word	Leon_6_037
@ 154   ----------------------------------------
	.byte		N05   , As3 , v056
	.byte	W06
	.byte		        Fn3 
	.byte	W06
	.byte		        Dn3 
	.byte	W06
	.byte		        As2 
	.byte	W06
@ 155   ----------------------------------------
	.byte		N48   , Fn2 
	.byte	W24
@ 156   ----------------------------------------
	.byte	W24
@ 157   ----------------------------------------
	.byte	PATT
	 .word	Leon_6_017
@ 158   ----------------------------------------
	.byte	PATT
	 .word	Leon_6_018
@ 159   ----------------------------------------
	.byte	PATT
	 .word	Leon_6_017
@ 160   ----------------------------------------
	.byte	PATT
	 .word	Leon_6_017
@ 161   ----------------------------------------
	.byte	PATT
	 .word	Leon_6_017
@ 162   ----------------------------------------
	.byte	PATT
	 .word	Leon_6_018
@ 163   ----------------------------------------
	.byte	PATT
	 .word	Leon_6_047
@ 164   ----------------------------------------
	.byte	PATT
	 .word	Leon_6_132
@ 165   ----------------------------------------
	.byte	PATT
	 .word	Leon_6_017
@ 166   ----------------------------------------
	.byte	PATT
	 .word	Leon_6_018
@ 167   ----------------------------------------
	.byte	PATT
	 .word	Leon_6_017
@ 168   ----------------------------------------
	.byte	PATT
	 .word	Leon_6_017
@ 169   ----------------------------------------
	.byte	PATT
	 .word	Leon_6_017
@ 170   ----------------------------------------
	.byte	PATT
	 .word	Leon_6_018
@ 171   ----------------------------------------
	.byte	PATT
	 .word	Leon_6_047
@ 172   ----------------------------------------
	.byte	PATT
	 .word	Leon_6_132
@ 173   ----------------------------------------
	.byte	PATT
	 .word	Leon_6_017
@ 174   ----------------------------------------
	.byte	PATT
	 .word	Leon_6_018
@ 175   ----------------------------------------
	.byte	PATT
	 .word	Leon_6_017
@ 176   ----------------------------------------
	.byte	PATT
	 .word	Leon_6_017
@ 177   ----------------------------------------
	.byte	PATT
	 .word	Leon_6_017
@ 178   ----------------------------------------
	.byte	PATT
	 .word	Leon_6_018
@ 179   ----------------------------------------
	.byte	PATT
	 .word	Leon_6_047
@ 180   ----------------------------------------
	.byte	PATT
	 .word	Leon_6_132
@ 181   ----------------------------------------
	.byte	PATT
	 .word	Leon_6_017
@ 182   ----------------------------------------
	.byte	PATT
	 .word	Leon_6_018
@ 183   ----------------------------------------
	.byte	PATT
	 .word	Leon_6_017
@ 184   ----------------------------------------
	.byte	PATT
	 .word	Leon_6_017
@ 185   ----------------------------------------
	.byte	PATT
	 .word	Leon_6_017
@ 186   ----------------------------------------
	.byte	PATT
	 .word	Leon_6_018
@ 187   ----------------------------------------
	.byte	PATT
	 .word	Leon_6_047
@ 188   ----------------------------------------
	.byte		N07   , As3 , v056
	.byte	W08
	.byte		        Gn3 
	.byte	W08
	.byte	GOTO
	 .word	Leon_6_B1
Leon_6_B2:
	.byte		N07   , Fn3 , v056
	.byte	W07
	.byte	FINE

@**************** Track 7 (Midi-Chn.7) ****************@

Leon_7:
	.byte	KEYSH , Leon_key+0
@ 000   ----------------------------------------
	.byte		VOICE , 46
	.byte		VOL   , 79*Leon_mvl/mxv
	.byte	W09
	.byte		PAN   , c_v+0
	.byte	W15
@ 001   ----------------------------------------
	.byte		TIE   , Gn2 , v072
	.byte	W24
@ 002   ----------------------------------------
	.byte	W24
@ 003   ----------------------------------------
	.byte	W24
@ 004   ----------------------------------------
	.byte	W24
@ 005   ----------------------------------------
	.byte	W24
@ 006   ----------------------------------------
	.byte	W24
@ 007   ----------------------------------------
	.byte	W24
@ 008   ----------------------------------------
	.byte	W24
@ 009   ----------------------------------------
	.byte	W24
@ 010   ----------------------------------------
	.byte	W24
@ 011   ----------------------------------------
	.byte	W24
@ 012   ----------------------------------------
	.byte	W24
@ 013   ----------------------------------------
	.byte	W23
	.byte		EOT   
	.byte	W01
@ 014   ----------------------------------------
	.byte		N23   , Gn3 , v060
	.byte	W24
@ 015   ----------------------------------------
	.byte		N44   , Gn4 
	.byte	W24
@ 016   ----------------------------------------
	.byte	W24
@ 017   ----------------------------------------
	.byte	W24
@ 018   ----------------------------------------
	.byte	W24
@ 019   ----------------------------------------
	.byte	W24
@ 020   ----------------------------------------
	.byte	W24
@ 021   ----------------------------------------
	.byte	W24
@ 022   ----------------------------------------
	.byte	W24
@ 023   ----------------------------------------
	.byte	W24
@ 024   ----------------------------------------
	.byte	W24
@ 025   ----------------------------------------
	.byte	W24
@ 026   ----------------------------------------
	.byte	W24
@ 027   ----------------------------------------
	.byte	W24
@ 028   ----------------------------------------
	.byte	W24
@ 029   ----------------------------------------
	.byte	W24
@ 030   ----------------------------------------
	.byte	W24
@ 031   ----------------------------------------
	.byte	W24
@ 032   ----------------------------------------
	.byte	W24
@ 033   ----------------------------------------
	.byte	W24
@ 034   ----------------------------------------
	.byte	W24
@ 035   ----------------------------------------
	.byte	W24
@ 036   ----------------------------------------
	.byte	W24
@ 037   ----------------------------------------
	.byte	W24
@ 038   ----------------------------------------
	.byte	W24
@ 039   ----------------------------------------
	.byte	W24
@ 040   ----------------------------------------
	.byte	W24
@ 041   ----------------------------------------
	.byte	W24
@ 042   ----------------------------------------
	.byte	W24
@ 043   ----------------------------------------
	.byte	W24
@ 044   ----------------------------------------
	.byte	W24
@ 045   ----------------------------------------
	.byte	W24
@ 046   ----------------------------------------
	.byte	W24
@ 047   ----------------------------------------
	.byte	W24
@ 048   ----------------------------------------
	.byte	W18
Leon_7_B1:
	.byte	W06
@ 049   ----------------------------------------
	.byte	W24
@ 050   ----------------------------------------
	.byte	W24
@ 051   ----------------------------------------
	.byte	W24
@ 052   ----------------------------------------
	.byte	W24
@ 053   ----------------------------------------
	.byte	W24
@ 054   ----------------------------------------
	.byte	W24
@ 055   ----------------------------------------
	.byte	W24
@ 056   ----------------------------------------
	.byte	W24
@ 057   ----------------------------------------
	.byte	W24
@ 058   ----------------------------------------
	.byte	W24
@ 059   ----------------------------------------
	.byte	W24
@ 060   ----------------------------------------
	.byte	W24
@ 061   ----------------------------------------
	.byte	W24
@ 062   ----------------------------------------
	.byte	W24
@ 063   ----------------------------------------
	.byte	W24
@ 064   ----------------------------------------
	.byte	W24
@ 065   ----------------------------------------
	.byte	W24
@ 066   ----------------------------------------
	.byte	W24
@ 067   ----------------------------------------
	.byte	W24
@ 068   ----------------------------------------
	.byte	W24
@ 069   ----------------------------------------
	.byte	W24
@ 070   ----------------------------------------
	.byte	W24
@ 071   ----------------------------------------
	.byte	W24
@ 072   ----------------------------------------
	.byte	W24
@ 073   ----------------------------------------
	.byte	W24
@ 074   ----------------------------------------
	.byte	W24
@ 075   ----------------------------------------
	.byte	W24
@ 076   ----------------------------------------
	.byte	W24
@ 077   ----------------------------------------
	.byte	W24
@ 078   ----------------------------------------
	.byte	W24
@ 079   ----------------------------------------
	.byte	W24
@ 080   ----------------------------------------
	.byte	W24
@ 081   ----------------------------------------
	.byte	W24
@ 082   ----------------------------------------
	.byte	W24
@ 083   ----------------------------------------
	.byte	W24
@ 084   ----------------------------------------
	.byte	W24
@ 085   ----------------------------------------
	.byte	W24
@ 086   ----------------------------------------
	.byte	W24
@ 087   ----------------------------------------
	.byte	W24
@ 088   ----------------------------------------
	.byte	W24
@ 089   ----------------------------------------
	.byte	W24
@ 090   ----------------------------------------
	.byte	W24
@ 091   ----------------------------------------
	.byte	W24
@ 092   ----------------------------------------
	.byte	W24
@ 093   ----------------------------------------
	.byte	W24
@ 094   ----------------------------------------
	.byte	W24
@ 095   ----------------------------------------
	.byte	W24
@ 096   ----------------------------------------
	.byte	W24
@ 097   ----------------------------------------
	.byte	W24
@ 098   ----------------------------------------
	.byte	W24
@ 099   ----------------------------------------
	.byte	W24
@ 100   ----------------------------------------
	.byte	W24
@ 101   ----------------------------------------
	.byte	W24
@ 102   ----------------------------------------
	.byte	W24
@ 103   ----------------------------------------
	.byte	W24
@ 104   ----------------------------------------
	.byte	W24
@ 105   ----------------------------------------
	.byte	W24
@ 106   ----------------------------------------
	.byte	W24
@ 107   ----------------------------------------
	.byte	W24
@ 108   ----------------------------------------
	.byte	W24
@ 109   ----------------------------------------
	.byte	W24
@ 110   ----------------------------------------
	.byte	W24
@ 111   ----------------------------------------
	.byte	W24
@ 112   ----------------------------------------
	.byte	W24
@ 113   ----------------------------------------
	.byte	W24
@ 114   ----------------------------------------
	.byte	W24
@ 115   ----------------------------------------
	.byte	W24
@ 116   ----------------------------------------
	.byte	W24
@ 117   ----------------------------------------
	.byte	W24
@ 118   ----------------------------------------
	.byte	W24
@ 119   ----------------------------------------
	.byte	W24
@ 120   ----------------------------------------
	.byte	W24
@ 121   ----------------------------------------
	.byte	W24
@ 122   ----------------------------------------
	.byte	W24
@ 123   ----------------------------------------
	.byte	W24
@ 124   ----------------------------------------
	.byte	W24
@ 125   ----------------------------------------
	.byte	W24
@ 126   ----------------------------------------
	.byte	W24
@ 127   ----------------------------------------
	.byte	W24
@ 128   ----------------------------------------
	.byte	W24
@ 129   ----------------------------------------
	.byte	W24
@ 130   ----------------------------------------
	.byte	W24
@ 131   ----------------------------------------
	.byte	W24
@ 132   ----------------------------------------
	.byte	W24
@ 133   ----------------------------------------
	.byte	W24
@ 134   ----------------------------------------
	.byte	W24
@ 135   ----------------------------------------
	.byte	W24
@ 136   ----------------------------------------
	.byte	W24
@ 137   ----------------------------------------
	.byte	W24
@ 138   ----------------------------------------
	.byte	W24
@ 139   ----------------------------------------
	.byte	W24
@ 140   ----------------------------------------
	.byte	W24
@ 141   ----------------------------------------
	.byte	W24
@ 142   ----------------------------------------
	.byte	W24
@ 143   ----------------------------------------
	.byte	W24
@ 144   ----------------------------------------
	.byte	W24
@ 145   ----------------------------------------
	.byte	W24
@ 146   ----------------------------------------
	.byte	W24
@ 147   ----------------------------------------
	.byte	W24
@ 148   ----------------------------------------
	.byte	W24
@ 149   ----------------------------------------
	.byte	W24
@ 150   ----------------------------------------
	.byte	W24
@ 151   ----------------------------------------
	.byte	W24
@ 152   ----------------------------------------
	.byte	W24
@ 153   ----------------------------------------
	.byte	W24
@ 154   ----------------------------------------
	.byte	W24
@ 155   ----------------------------------------
	.byte	W24
@ 156   ----------------------------------------
	.byte	W24
@ 157   ----------------------------------------
	.byte	W24
@ 158   ----------------------------------------
	.byte	W24
@ 159   ----------------------------------------
	.byte	W24
@ 160   ----------------------------------------
	.byte	W24
@ 161   ----------------------------------------
	.byte	W24
@ 162   ----------------------------------------
	.byte	W24
@ 163   ----------------------------------------
	.byte	W24
@ 164   ----------------------------------------
	.byte	W24
@ 165   ----------------------------------------
	.byte	W24
@ 166   ----------------------------------------
	.byte	W24
@ 167   ----------------------------------------
	.byte	W24
@ 168   ----------------------------------------
	.byte	W24
@ 169   ----------------------------------------
	.byte	W24
@ 170   ----------------------------------------
	.byte	W24
@ 171   ----------------------------------------
	.byte	W24
@ 172   ----------------------------------------
	.byte	W24
@ 173   ----------------------------------------
	.byte	W24
@ 174   ----------------------------------------
	.byte	W24
@ 175   ----------------------------------------
	.byte	W24
@ 176   ----------------------------------------
	.byte	W24
@ 177   ----------------------------------------
	.byte	W24
@ 178   ----------------------------------------
	.byte	W24
@ 179   ----------------------------------------
	.byte	W24
@ 180   ----------------------------------------
	.byte	W24
@ 181   ----------------------------------------
	.byte	W24
@ 182   ----------------------------------------
	.byte	W24
@ 183   ----------------------------------------
	.byte	W24
@ 184   ----------------------------------------
	.byte	W24
@ 185   ----------------------------------------
	.byte	W24
@ 186   ----------------------------------------
	.byte	W24
@ 187   ----------------------------------------
	.byte	W24
@ 188   ----------------------------------------
	.byte	W16
	.byte	GOTO
	 .word	Leon_7_B1
Leon_7_B2:
	.byte	W07
	.byte	FINE

@**************** Track 8 (Midi-Chn.8) ****************@

Leon_8:
	.byte	KEYSH , Leon_key+0
@ 000   ----------------------------------------
	.byte		VOICE , 56
	.byte		VOL   , 94*Leon_mvl/mxv
	.byte	W09
	.byte		PAN   , c_v+0
	.byte	W15
@ 001   ----------------------------------------
Leon_8_001:
	.byte	W07
	.byte		PAN   , c_v-64
	.byte	W01
	.byte		N07   , Cn3 , v060
	.byte	W07
	.byte		PAN   , c_v+63
	.byte	W01
	.byte		N07   
	.byte	W08
	.byte	PEND
@ 002   ----------------------------------------
	.byte	W24
@ 003   ----------------------------------------
	.byte	W24
@ 004   ----------------------------------------
	.byte	PATT
	 .word	Leon_8_001
@ 005   ----------------------------------------
	.byte	PATT
	 .word	Leon_8_001
@ 006   ----------------------------------------
	.byte	W24
@ 007   ----------------------------------------
	.byte	W24
@ 008   ----------------------------------------
	.byte	PATT
	 .word	Leon_8_001
@ 009   ----------------------------------------
	.byte	PATT
	 .word	Leon_8_001
@ 010   ----------------------------------------
	.byte	W24
@ 011   ----------------------------------------
	.byte	W24
@ 012   ----------------------------------------
	.byte	PATT
	 .word	Leon_8_001
@ 013   ----------------------------------------
	.byte	PATT
	 .word	Leon_8_001
@ 014   ----------------------------------------
	.byte	W24
@ 015   ----------------------------------------
	.byte	W24
@ 016   ----------------------------------------
	.byte	PATT
	 .word	Leon_8_001
@ 017   ----------------------------------------
	.byte	PATT
	 .word	Leon_8_001
@ 018   ----------------------------------------
	.byte	W24
@ 019   ----------------------------------------
	.byte	W24
@ 020   ----------------------------------------
	.byte	PATT
	 .word	Leon_8_001
@ 021   ----------------------------------------
	.byte	PATT
	 .word	Leon_8_001
@ 022   ----------------------------------------
	.byte	W24
@ 023   ----------------------------------------
	.byte	W24
@ 024   ----------------------------------------
	.byte	PATT
	 .word	Leon_8_001
@ 025   ----------------------------------------
	.byte	PATT
	 .word	Leon_8_001
@ 026   ----------------------------------------
	.byte	W24
@ 027   ----------------------------------------
	.byte	W24
@ 028   ----------------------------------------
	.byte	PATT
	 .word	Leon_8_001
@ 029   ----------------------------------------
	.byte	PATT
	 .word	Leon_8_001
@ 030   ----------------------------------------
	.byte	W24
@ 031   ----------------------------------------
	.byte	W24
@ 032   ----------------------------------------
	.byte	PATT
	 .word	Leon_8_001
@ 033   ----------------------------------------
	.byte	PATT
	 .word	Leon_8_001
@ 034   ----------------------------------------
	.byte	W24
@ 035   ----------------------------------------
	.byte	W24
@ 036   ----------------------------------------
	.byte	PATT
	 .word	Leon_8_001
@ 037   ----------------------------------------
	.byte	PATT
	 .word	Leon_8_001
@ 038   ----------------------------------------
	.byte	W24
@ 039   ----------------------------------------
	.byte	W24
@ 040   ----------------------------------------
	.byte	PATT
	 .word	Leon_8_001
@ 041   ----------------------------------------
	.byte	PATT
	 .word	Leon_8_001
@ 042   ----------------------------------------
	.byte	W24
@ 043   ----------------------------------------
	.byte	W24
@ 044   ----------------------------------------
	.byte	PATT
	 .word	Leon_8_001
@ 045   ----------------------------------------
	.byte	PATT
	 .word	Leon_8_001
@ 046   ----------------------------------------
	.byte	W24
@ 047   ----------------------------------------
	.byte	W24
@ 048   ----------------------------------------
	.byte	W07
	.byte		PAN   , c_v-64
	.byte	W01
	.byte		N07   , Cn3 , v060
	.byte	W07
	.byte		PAN   , c_v+63
	.byte	W01
	.byte		N07   
	.byte	W02
Leon_8_B1:
	.byte	W06
@ 049   ----------------------------------------
	.byte	PATT
	 .word	Leon_8_001
@ 050   ----------------------------------------
	.byte	W24
@ 051   ----------------------------------------
	.byte	W24
@ 052   ----------------------------------------
	.byte	PATT
	 .word	Leon_8_001
@ 053   ----------------------------------------
	.byte	PATT
	 .word	Leon_8_001
@ 054   ----------------------------------------
	.byte	W24
@ 055   ----------------------------------------
	.byte	W24
@ 056   ----------------------------------------
	.byte	PATT
	 .word	Leon_8_001
@ 057   ----------------------------------------
	.byte	PATT
	 .word	Leon_8_001
@ 058   ----------------------------------------
	.byte	W24
@ 059   ----------------------------------------
	.byte	W24
@ 060   ----------------------------------------
	.byte	PATT
	 .word	Leon_8_001
@ 061   ----------------------------------------
	.byte	PATT
	 .word	Leon_8_001
@ 062   ----------------------------------------
	.byte	W24
@ 063   ----------------------------------------
	.byte	W24
@ 064   ----------------------------------------
	.byte	PATT
	 .word	Leon_8_001
@ 065   ----------------------------------------
	.byte	PATT
	 .word	Leon_8_001
@ 066   ----------------------------------------
	.byte	W24
@ 067   ----------------------------------------
	.byte	W24
@ 068   ----------------------------------------
	.byte	PATT
	 .word	Leon_8_001
@ 069   ----------------------------------------
	.byte	PATT
	 .word	Leon_8_001
@ 070   ----------------------------------------
	.byte	W24
@ 071   ----------------------------------------
	.byte	W24
@ 072   ----------------------------------------
	.byte	PATT
	 .word	Leon_8_001
@ 073   ----------------------------------------
	.byte	PATT
	 .word	Leon_8_001
@ 074   ----------------------------------------
	.byte	W24
@ 075   ----------------------------------------
	.byte	W24
@ 076   ----------------------------------------
	.byte	PATT
	 .word	Leon_8_001
@ 077   ----------------------------------------
	.byte	PATT
	 .word	Leon_8_001
@ 078   ----------------------------------------
	.byte	W24
@ 079   ----------------------------------------
	.byte	W24
@ 080   ----------------------------------------
	.byte	PATT
	 .word	Leon_8_001
@ 081   ----------------------------------------
	.byte	PATT
	 .word	Leon_8_001
@ 082   ----------------------------------------
	.byte	W24
@ 083   ----------------------------------------
	.byte	W24
@ 084   ----------------------------------------
	.byte	PATT
	 .word	Leon_8_001
@ 085   ----------------------------------------
	.byte	PATT
	 .word	Leon_8_001
@ 086   ----------------------------------------
	.byte	W24
@ 087   ----------------------------------------
	.byte	W24
@ 088   ----------------------------------------
	.byte	PATT
	 .word	Leon_8_001
@ 089   ----------------------------------------
	.byte	PATT
	 .word	Leon_8_001
@ 090   ----------------------------------------
	.byte	W24
@ 091   ----------------------------------------
	.byte	W24
@ 092   ----------------------------------------
	.byte	PATT
	 .word	Leon_8_001
@ 093   ----------------------------------------
	.byte	PATT
	 .word	Leon_8_001
@ 094   ----------------------------------------
	.byte	W24
@ 095   ----------------------------------------
	.byte	W24
@ 096   ----------------------------------------
	.byte	PATT
	 .word	Leon_8_001
@ 097   ----------------------------------------
	.byte	PATT
	 .word	Leon_8_001
@ 098   ----------------------------------------
	.byte	W24
@ 099   ----------------------------------------
	.byte	W24
@ 100   ----------------------------------------
	.byte	PATT
	 .word	Leon_8_001
@ 101   ----------------------------------------
	.byte	PATT
	 .word	Leon_8_001
@ 102   ----------------------------------------
	.byte	W24
@ 103   ----------------------------------------
	.byte	W24
@ 104   ----------------------------------------
	.byte	PATT
	 .word	Leon_8_001
@ 105   ----------------------------------------
	.byte	PATT
	 .word	Leon_8_001
@ 106   ----------------------------------------
	.byte	W24
@ 107   ----------------------------------------
	.byte	W24
@ 108   ----------------------------------------
	.byte	PATT
	 .word	Leon_8_001
@ 109   ----------------------------------------
	.byte	PATT
	 .word	Leon_8_001
@ 110   ----------------------------------------
	.byte	W24
@ 111   ----------------------------------------
	.byte	W24
@ 112   ----------------------------------------
	.byte	PATT
	 .word	Leon_8_001
@ 113   ----------------------------------------
	.byte	PATT
	 .word	Leon_8_001
@ 114   ----------------------------------------
	.byte	W24
@ 115   ----------------------------------------
	.byte	W24
@ 116   ----------------------------------------
	.byte	PATT
	 .word	Leon_8_001
@ 117   ----------------------------------------
	.byte	PATT
	 .word	Leon_8_001
@ 118   ----------------------------------------
	.byte	W24
@ 119   ----------------------------------------
	.byte	W24
@ 120   ----------------------------------------
	.byte	PATT
	 .word	Leon_8_001
@ 121   ----------------------------------------
	.byte	PATT
	 .word	Leon_8_001
@ 122   ----------------------------------------
	.byte	W24
@ 123   ----------------------------------------
	.byte	W24
@ 124   ----------------------------------------
	.byte	PATT
	 .word	Leon_8_001
@ 125   ----------------------------------------
	.byte	PATT
	 .word	Leon_8_001
@ 126   ----------------------------------------
	.byte	W24
@ 127   ----------------------------------------
	.byte	W24
@ 128   ----------------------------------------
	.byte	PATT
	 .word	Leon_8_001
@ 129   ----------------------------------------
	.byte	PATT
	 .word	Leon_8_001
@ 130   ----------------------------------------
	.byte	W24
@ 131   ----------------------------------------
	.byte	W24
@ 132   ----------------------------------------
	.byte	PATT
	 .word	Leon_8_001
@ 133   ----------------------------------------
	.byte	PATT
	 .word	Leon_8_001
@ 134   ----------------------------------------
	.byte	W24
@ 135   ----------------------------------------
	.byte	W24
@ 136   ----------------------------------------
	.byte	PATT
	 .word	Leon_8_001
@ 137   ----------------------------------------
	.byte	PATT
	 .word	Leon_8_001
@ 138   ----------------------------------------
	.byte	W24
@ 139   ----------------------------------------
	.byte	W24
@ 140   ----------------------------------------
	.byte	PATT
	 .word	Leon_8_001
@ 141   ----------------------------------------
	.byte	PATT
	 .word	Leon_8_001
@ 142   ----------------------------------------
	.byte	W24
@ 143   ----------------------------------------
	.byte	W24
@ 144   ----------------------------------------
	.byte	PATT
	 .word	Leon_8_001
@ 145   ----------------------------------------
	.byte	PATT
	 .word	Leon_8_001
@ 146   ----------------------------------------
	.byte	W24
@ 147   ----------------------------------------
	.byte	W24
@ 148   ----------------------------------------
	.byte	PATT
	 .word	Leon_8_001
@ 149   ----------------------------------------
	.byte	PATT
	 .word	Leon_8_001
@ 150   ----------------------------------------
	.byte	W24
@ 151   ----------------------------------------
	.byte	W24
@ 152   ----------------------------------------
	.byte	PATT
	 .word	Leon_8_001
@ 153   ----------------------------------------
	.byte	PATT
	 .word	Leon_8_001
@ 154   ----------------------------------------
	.byte	W24
@ 155   ----------------------------------------
	.byte	W24
@ 156   ----------------------------------------
	.byte	PATT
	 .word	Leon_8_001
@ 157   ----------------------------------------
	.byte	PATT
	 .word	Leon_8_001
@ 158   ----------------------------------------
	.byte	W24
@ 159   ----------------------------------------
	.byte	W24
@ 160   ----------------------------------------
	.byte	PATT
	 .word	Leon_8_001
@ 161   ----------------------------------------
	.byte	PATT
	 .word	Leon_8_001
@ 162   ----------------------------------------
	.byte	W24
@ 163   ----------------------------------------
	.byte	W24
@ 164   ----------------------------------------
	.byte	PATT
	 .word	Leon_8_001
@ 165   ----------------------------------------
	.byte	W24
@ 166   ----------------------------------------
	.byte	W24
@ 167   ----------------------------------------
	.byte	W24
@ 168   ----------------------------------------
	.byte	W24
@ 169   ----------------------------------------
	.byte	PATT
	 .word	Leon_8_001
@ 170   ----------------------------------------
	.byte	W24
@ 171   ----------------------------------------
	.byte	W24
@ 172   ----------------------------------------
	.byte	PATT
	 .word	Leon_8_001
@ 173   ----------------------------------------
	.byte	PATT
	 .word	Leon_8_001
@ 174   ----------------------------------------
	.byte	W24
@ 175   ----------------------------------------
	.byte	W24
@ 176   ----------------------------------------
	.byte	PATT
	 .word	Leon_8_001
@ 177   ----------------------------------------
	.byte	PATT
	 .word	Leon_8_001
@ 178   ----------------------------------------
	.byte	W24
@ 179   ----------------------------------------
	.byte	W24
@ 180   ----------------------------------------
	.byte	PATT
	 .word	Leon_8_001
@ 181   ----------------------------------------
	.byte	PATT
	 .word	Leon_8_001
@ 182   ----------------------------------------
	.byte	W24
@ 183   ----------------------------------------
	.byte	W24
@ 184   ----------------------------------------
	.byte	PATT
	 .word	Leon_8_001
@ 185   ----------------------------------------
	.byte	PATT
	 .word	Leon_8_001
@ 186   ----------------------------------------
	.byte	W24
@ 187   ----------------------------------------
	.byte	W24
@ 188   ----------------------------------------
	.byte	W07
	.byte		PAN   , c_v-64
	.byte	W01
	.byte		N07   , Cn3 , v060
	.byte	W07
	.byte		PAN   , c_v+63
	.byte	W01
	.byte	GOTO
	 .word	Leon_8_B1
Leon_8_B2:
	.byte		N07   , Cn3 , v060
	.byte	W07
	.byte	FINE

@**************** Track 9 (Midi-Chn.9) ****************@

Leon_9:
	.byte	KEYSH , Leon_key+0
@ 000   ----------------------------------------
	.byte		VOICE , 58
	.byte		VOL   , 110*Leon_mvl/mxv
	.byte	W09
	.byte		PAN   , c_v+0
	.byte	W15
@ 001   ----------------------------------------
	.byte	W24
@ 002   ----------------------------------------
	.byte	W24
@ 003   ----------------------------------------
	.byte	W24
@ 004   ----------------------------------------
	.byte	W24
@ 005   ----------------------------------------
	.byte	W24
@ 006   ----------------------------------------
	.byte	W24
@ 007   ----------------------------------------
	.byte	W24
@ 008   ----------------------------------------
	.byte	W24
@ 009   ----------------------------------------
	.byte		N96   , Gn2 , v092
	.byte	W24
@ 010   ----------------------------------------
	.byte	W24
@ 011   ----------------------------------------
	.byte	W24
@ 012   ----------------------------------------
	.byte	W24
@ 013   ----------------------------------------
	.byte	W24
@ 014   ----------------------------------------
	.byte	W24
@ 015   ----------------------------------------
	.byte	W24
@ 016   ----------------------------------------
	.byte	W24
@ 017   ----------------------------------------
	.byte	W24
@ 018   ----------------------------------------
	.byte	W24
@ 019   ----------------------------------------
	.byte	W24
@ 020   ----------------------------------------
	.byte	W24
@ 021   ----------------------------------------
	.byte	W24
@ 022   ----------------------------------------
	.byte	W24
@ 023   ----------------------------------------
	.byte	W24
@ 024   ----------------------------------------
	.byte	W24
@ 025   ----------------------------------------
	.byte	W24
@ 026   ----------------------------------------
	.byte	W24
@ 027   ----------------------------------------
	.byte	W24
@ 028   ----------------------------------------
	.byte	W24
@ 029   ----------------------------------------
	.byte	W24
@ 030   ----------------------------------------
	.byte	W24
@ 031   ----------------------------------------
	.byte	W24
@ 032   ----------------------------------------
	.byte	W24
@ 033   ----------------------------------------
	.byte	W24
@ 034   ----------------------------------------
	.byte	W24
@ 035   ----------------------------------------
	.byte	W24
@ 036   ----------------------------------------
	.byte	W24
@ 037   ----------------------------------------
	.byte	W24
@ 038   ----------------------------------------
	.byte	W24
@ 039   ----------------------------------------
	.byte	W24
@ 040   ----------------------------------------
	.byte	W24
@ 041   ----------------------------------------
	.byte	W24
@ 042   ----------------------------------------
	.byte	W24
@ 043   ----------------------------------------
	.byte	W24
@ 044   ----------------------------------------
	.byte	W24
@ 045   ----------------------------------------
	.byte	W24
@ 046   ----------------------------------------
	.byte	W24
@ 047   ----------------------------------------
	.byte	W24
@ 048   ----------------------------------------
	.byte	W18
Leon_9_B1:
	.byte	W06
@ 049   ----------------------------------------
	.byte	W24
@ 050   ----------------------------------------
	.byte	W24
@ 051   ----------------------------------------
	.byte	W24
@ 052   ----------------------------------------
	.byte	W24
@ 053   ----------------------------------------
	.byte	W24
@ 054   ----------------------------------------
	.byte	W24
@ 055   ----------------------------------------
	.byte	W24
@ 056   ----------------------------------------
	.byte	W24
@ 057   ----------------------------------------
	.byte	W24
@ 058   ----------------------------------------
	.byte	W24
@ 059   ----------------------------------------
	.byte	W24
@ 060   ----------------------------------------
	.byte	W24
@ 061   ----------------------------------------
	.byte	W24
@ 062   ----------------------------------------
	.byte	W24
@ 063   ----------------------------------------
	.byte	W24
@ 064   ----------------------------------------
	.byte	W24
@ 065   ----------------------------------------
	.byte	W24
@ 066   ----------------------------------------
	.byte	W24
@ 067   ----------------------------------------
	.byte	W24
@ 068   ----------------------------------------
	.byte	W24
@ 069   ----------------------------------------
	.byte	W24
@ 070   ----------------------------------------
	.byte	W24
@ 071   ----------------------------------------
	.byte	W24
@ 072   ----------------------------------------
	.byte	W24
@ 073   ----------------------------------------
	.byte	W24
@ 074   ----------------------------------------
	.byte	W24
@ 075   ----------------------------------------
	.byte	W24
@ 076   ----------------------------------------
	.byte	W24
@ 077   ----------------------------------------
	.byte	W24
@ 078   ----------------------------------------
	.byte	W24
@ 079   ----------------------------------------
	.byte	W24
@ 080   ----------------------------------------
	.byte	W24
@ 081   ----------------------------------------
	.byte	W24
@ 082   ----------------------------------------
	.byte	W24
@ 083   ----------------------------------------
	.byte	W24
@ 084   ----------------------------------------
	.byte	W24
@ 085   ----------------------------------------
	.byte	W24
@ 086   ----------------------------------------
	.byte	W24
@ 087   ----------------------------------------
	.byte	W24
@ 088   ----------------------------------------
	.byte	W24
@ 089   ----------------------------------------
	.byte	W24
@ 090   ----------------------------------------
	.byte	W24
@ 091   ----------------------------------------
	.byte	W24
@ 092   ----------------------------------------
	.byte	W24
@ 093   ----------------------------------------
	.byte	W24
@ 094   ----------------------------------------
	.byte	W24
@ 095   ----------------------------------------
	.byte	W24
@ 096   ----------------------------------------
	.byte	W24
@ 097   ----------------------------------------
	.byte	W24
@ 098   ----------------------------------------
	.byte	W08
	.byte		N07   , Gn2 , v092
	.byte	W16
@ 099   ----------------------------------------
	.byte		N07   
	.byte	W16
	.byte		N07   
	.byte	W08
@ 100   ----------------------------------------
	.byte	W24
@ 101   ----------------------------------------
	.byte	W24
@ 102   ----------------------------------------
	.byte	W24
@ 103   ----------------------------------------
	.byte	W24
@ 104   ----------------------------------------
	.byte	W24
@ 105   ----------------------------------------
	.byte	W24
@ 106   ----------------------------------------
	.byte	W24
@ 107   ----------------------------------------
	.byte	W24
@ 108   ----------------------------------------
	.byte	W24
@ 109   ----------------------------------------
	.byte	W24
@ 110   ----------------------------------------
	.byte	W24
@ 111   ----------------------------------------
	.byte	W24
@ 112   ----------------------------------------
	.byte	W24
@ 113   ----------------------------------------
	.byte	W24
@ 114   ----------------------------------------
	.byte	W24
@ 115   ----------------------------------------
	.byte	W24
@ 116   ----------------------------------------
	.byte	W24
@ 117   ----------------------------------------
	.byte	W24
@ 118   ----------------------------------------
	.byte	W24
@ 119   ----------------------------------------
	.byte	W24
@ 120   ----------------------------------------
	.byte	W24
@ 121   ----------------------------------------
	.byte	W24
@ 122   ----------------------------------------
	.byte	W24
@ 123   ----------------------------------------
	.byte	W24
@ 124   ----------------------------------------
	.byte	W24
@ 125   ----------------------------------------
	.byte	W24
@ 126   ----------------------------------------
	.byte	W24
@ 127   ----------------------------------------
	.byte	W24
@ 128   ----------------------------------------
	.byte	W24
@ 129   ----------------------------------------
	.byte	W24
@ 130   ----------------------------------------
	.byte	W24
@ 131   ----------------------------------------
	.byte	W24
@ 132   ----------------------------------------
	.byte	W24
@ 133   ----------------------------------------
	.byte	W24
@ 134   ----------------------------------------
	.byte	W24
@ 135   ----------------------------------------
	.byte	W24
@ 136   ----------------------------------------
	.byte	W24
@ 137   ----------------------------------------
	.byte	W24
@ 138   ----------------------------------------
	.byte	W24
@ 139   ----------------------------------------
	.byte	W24
@ 140   ----------------------------------------
	.byte	W24
@ 141   ----------------------------------------
	.byte	W24
@ 142   ----------------------------------------
	.byte	W24
@ 143   ----------------------------------------
	.byte	W24
@ 144   ----------------------------------------
	.byte	W24
@ 145   ----------------------------------------
	.byte	W24
@ 146   ----------------------------------------
	.byte	W24
@ 147   ----------------------------------------
	.byte	W24
@ 148   ----------------------------------------
	.byte	W24
@ 149   ----------------------------------------
	.byte	W24
@ 150   ----------------------------------------
	.byte	W24
@ 151   ----------------------------------------
	.byte	W24
@ 152   ----------------------------------------
	.byte	W24
@ 153   ----------------------------------------
	.byte	W24
@ 154   ----------------------------------------
	.byte	W24
@ 155   ----------------------------------------
	.byte		N48   
	.byte	W24
@ 156   ----------------------------------------
	.byte	W24
@ 157   ----------------------------------------
	.byte		N96   , Cn3 
	.byte	W24
@ 158   ----------------------------------------
	.byte	W24
@ 159   ----------------------------------------
	.byte	W24
@ 160   ----------------------------------------
	.byte	W24
@ 161   ----------------------------------------
	.byte	W24
@ 162   ----------------------------------------
	.byte	W24
@ 163   ----------------------------------------
	.byte	W24
@ 164   ----------------------------------------
	.byte	W24
@ 165   ----------------------------------------
	.byte	W24
@ 166   ----------------------------------------
	.byte	W24
@ 167   ----------------------------------------
	.byte	W24
@ 168   ----------------------------------------
	.byte	W24
@ 169   ----------------------------------------
	.byte	W24
@ 170   ----------------------------------------
	.byte	W24
@ 171   ----------------------------------------
	.byte	W24
@ 172   ----------------------------------------
	.byte	W24
@ 173   ----------------------------------------
	.byte		N96   
	.byte	W24
@ 174   ----------------------------------------
	.byte	W24
@ 175   ----------------------------------------
	.byte	W24
@ 176   ----------------------------------------
	.byte	W24
@ 177   ----------------------------------------
	.byte	W24
@ 178   ----------------------------------------
	.byte	W24
@ 179   ----------------------------------------
	.byte	W24
@ 180   ----------------------------------------
	.byte	W24
@ 181   ----------------------------------------
	.byte		N72   
	.byte	W24
@ 182   ----------------------------------------
	.byte	W24
@ 183   ----------------------------------------
	.byte	W24
@ 184   ----------------------------------------
	.byte	W24
@ 185   ----------------------------------------
	.byte	W24
@ 186   ----------------------------------------
	.byte	W24
@ 187   ----------------------------------------
	.byte	W24
@ 188   ----------------------------------------
	.byte	W16
	.byte	GOTO
	 .word	Leon_9_B1
Leon_9_B2:
	.byte	W07
	.byte	FINE

@**************** Track 10 (Midi-Chn.11) ****************@

Leon_10:
	.byte	KEYSH , Leon_key+0
@ 000   ----------------------------------------
	.byte		VOICE , 63
	.byte		VOL   , 76*Leon_mvl/mxv
	.byte	W09
	.byte		PAN   , c_v+0
	.byte	W15
@ 001   ----------------------------------------
Leon_10_001:
	.byte		N07   , Gn2 , v100
	.byte	W08
	.byte		N08   , As2 
	.byte	W08
	.byte		N07   , Gn2 
	.byte	W08
	.byte	PEND
@ 002   ----------------------------------------
Leon_10_002:
	.byte		N08   , Cn3 , v100
	.byte	W08
	.byte		N07   , Gn2 
	.byte	W08
	.byte		N15   , Dn3 
	.byte	W08
	.byte	PEND
@ 003   ----------------------------------------
Leon_10_003:
	.byte	W08
	.byte		N08   , As2 , v100
	.byte	W08
	.byte		N07   , Gn2 
	.byte	W08
	.byte	PEND
@ 004   ----------------------------------------
Leon_10_004:
	.byte		N08   , Cn3 , v100
	.byte	W08
	.byte		N07   , Gn2 
	.byte	W08
	.byte		        Dn3 
	.byte	W08
	.byte	PEND
@ 005   ----------------------------------------
	.byte	PATT
	 .word	Leon_10_001
@ 006   ----------------------------------------
	.byte	PATT
	 .word	Leon_10_002
@ 007   ----------------------------------------
	.byte	PATT
	 .word	Leon_10_003
@ 008   ----------------------------------------
	.byte	PATT
	 .word	Leon_10_004
@ 009   ----------------------------------------
	.byte	PATT
	 .word	Leon_10_001
@ 010   ----------------------------------------
	.byte	PATT
	 .word	Leon_10_002
@ 011   ----------------------------------------
	.byte	PATT
	 .word	Leon_10_003
@ 012   ----------------------------------------
	.byte	PATT
	 .word	Leon_10_004
@ 013   ----------------------------------------
	.byte	PATT
	 .word	Leon_10_001
@ 014   ----------------------------------------
	.byte		N08   , Cn3 , v100
	.byte	W08
	.byte		N07   , Gn2 
	.byte	W08
	.byte		N15   
	.byte	W08
@ 015   ----------------------------------------
	.byte	W08
	.byte		N07   , Gn3 
	.byte	W08
	.byte		        Gn2 
	.byte	W08
@ 016   ----------------------------------------
	.byte		        Gn3 
	.byte	W08
	.byte		        Gn2 
	.byte	W08
	.byte		        Gn3 
	.byte	W08
@ 017   ----------------------------------------
Leon_10_017:
	.byte		N07   , Cn3 , v100
	.byte	W08
	.byte		N08   , Ds3 
	.byte	W08
	.byte		N07   , Cn3 
	.byte	W08
	.byte	PEND
@ 018   ----------------------------------------
Leon_10_018:
	.byte		N08   , Fn3 , v100
	.byte	W08
	.byte		N07   , Cn3 
	.byte	W08
	.byte		N15   , Gn3 
	.byte	W08
	.byte	PEND
@ 019   ----------------------------------------
Leon_10_019:
	.byte	W08
	.byte		N08   , Ds3 , v100
	.byte	W08
	.byte		N07   , Cn3 
	.byte	W08
	.byte	PEND
@ 020   ----------------------------------------
Leon_10_020:
	.byte		N08   , Fn3 , v100
	.byte	W08
	.byte		N07   , Cn3 
	.byte	W08
	.byte		        Gn2 
	.byte	W08
	.byte	PEND
@ 021   ----------------------------------------
	.byte	PATT
	 .word	Leon_10_017
@ 022   ----------------------------------------
	.byte	PATT
	 .word	Leon_10_018
@ 023   ----------------------------------------
	.byte	PATT
	 .word	Leon_10_019
@ 024   ----------------------------------------
	.byte	PATT
	 .word	Leon_10_020
@ 025   ----------------------------------------
	.byte	PATT
	 .word	Leon_10_017
@ 026   ----------------------------------------
	.byte	PATT
	 .word	Leon_10_018
@ 027   ----------------------------------------
	.byte	PATT
	 .word	Leon_10_019
@ 028   ----------------------------------------
	.byte	PATT
	 .word	Leon_10_020
@ 029   ----------------------------------------
	.byte	PATT
	 .word	Leon_10_017
@ 030   ----------------------------------------
	.byte	PATT
	 .word	Leon_10_018
@ 031   ----------------------------------------
	.byte	PATT
	 .word	Leon_10_019
@ 032   ----------------------------------------
	.byte	PATT
	 .word	Leon_10_020
@ 033   ----------------------------------------
Leon_10_033:
	.byte		N07   , Gs2 , v100
	.byte	W08
	.byte		N08   , Ds3 
	.byte	W08
	.byte		N07   , Cn3 
	.byte	W08
	.byte	PEND
@ 034   ----------------------------------------
Leon_10_034:
	.byte		N08   , Gs3 , v100
	.byte	W08
	.byte		N07   , Cn3 
	.byte	W08
	.byte		N15   , Cn4 
	.byte	W08
	.byte	PEND
@ 035   ----------------------------------------
	.byte	PATT
	 .word	Leon_10_019
@ 036   ----------------------------------------
Leon_10_036:
	.byte		N08   , Ds3 , v100
	.byte	W08
	.byte		N07   , Cn3 
	.byte	W08
	.byte		        Gs2 
	.byte	W08
	.byte	PEND
@ 037   ----------------------------------------
Leon_10_037:
	.byte		N07   , As2 , v100
	.byte	W08
	.byte		N08   , Fn3 
	.byte	W08
	.byte		N07   , Dn3 
	.byte	W08
	.byte	PEND
@ 038   ----------------------------------------
Leon_10_038:
	.byte		N08   , As3 , v100
	.byte	W08
	.byte		N07   , Dn3 
	.byte	W08
	.byte		N15   , Dn4 
	.byte	W08
	.byte	PEND
@ 039   ----------------------------------------
Leon_10_039:
	.byte	W08
	.byte		N08   , Fn3 , v100
	.byte	W08
	.byte		N07   , Dn3 
	.byte	W08
	.byte	PEND
@ 040   ----------------------------------------
Leon_10_040:
	.byte		N08   , Fn3 , v100
	.byte	W08
	.byte		N07   , Dn3 
	.byte	W08
	.byte		        As2 
	.byte	W08
	.byte	PEND
@ 041   ----------------------------------------
	.byte	PATT
	 .word	Leon_10_017
@ 042   ----------------------------------------
	.byte	PATT
	 .word	Leon_10_018
@ 043   ----------------------------------------
	.byte	PATT
	 .word	Leon_10_019
@ 044   ----------------------------------------
	.byte	PATT
	 .word	Leon_10_020
@ 045   ----------------------------------------
	.byte	PATT
	 .word	Leon_10_017
@ 046   ----------------------------------------
	.byte	PATT
	 .word	Leon_10_018
@ 047   ----------------------------------------
	.byte	PATT
	 .word	Leon_10_019
@ 048   ----------------------------------------
	.byte		N08   , Fn3 , v100
	.byte	W08
	.byte		N07   , Gn3 
	.byte	W08
	.byte		        Gn2 
	.byte	W02
Leon_10_B1:
	.byte	W06
@ 049   ----------------------------------------
	.byte	PATT
	 .word	Leon_10_017
@ 050   ----------------------------------------
	.byte	PATT
	 .word	Leon_10_018
@ 051   ----------------------------------------
	.byte	PATT
	 .word	Leon_10_019
@ 052   ----------------------------------------
	.byte	PATT
	 .word	Leon_10_020
@ 053   ----------------------------------------
	.byte	PATT
	 .word	Leon_10_017
@ 054   ----------------------------------------
	.byte	PATT
	 .word	Leon_10_018
@ 055   ----------------------------------------
	.byte	PATT
	 .word	Leon_10_019
@ 056   ----------------------------------------
	.byte	PATT
	 .word	Leon_10_020
@ 057   ----------------------------------------
	.byte	PATT
	 .word	Leon_10_017
@ 058   ----------------------------------------
	.byte	PATT
	 .word	Leon_10_018
@ 059   ----------------------------------------
	.byte	PATT
	 .word	Leon_10_019
@ 060   ----------------------------------------
	.byte	PATT
	 .word	Leon_10_020
@ 061   ----------------------------------------
	.byte	PATT
	 .word	Leon_10_017
@ 062   ----------------------------------------
	.byte	PATT
	 .word	Leon_10_018
@ 063   ----------------------------------------
	.byte	PATT
	 .word	Leon_10_019
@ 064   ----------------------------------------
	.byte	PATT
	 .word	Leon_10_020
@ 065   ----------------------------------------
	.byte	PATT
	 .word	Leon_10_033
@ 066   ----------------------------------------
	.byte	PATT
	 .word	Leon_10_034
@ 067   ----------------------------------------
	.byte	PATT
	 .word	Leon_10_019
@ 068   ----------------------------------------
	.byte	PATT
	 .word	Leon_10_036
@ 069   ----------------------------------------
	.byte	PATT
	 .word	Leon_10_037
@ 070   ----------------------------------------
	.byte	PATT
	 .word	Leon_10_038
@ 071   ----------------------------------------
	.byte	PATT
	 .word	Leon_10_039
@ 072   ----------------------------------------
	.byte	PATT
	 .word	Leon_10_040
@ 073   ----------------------------------------
	.byte	PATT
	 .word	Leon_10_017
@ 074   ----------------------------------------
	.byte	PATT
	 .word	Leon_10_018
@ 075   ----------------------------------------
	.byte	PATT
	 .word	Leon_10_019
@ 076   ----------------------------------------
	.byte	PATT
	 .word	Leon_10_020
@ 077   ----------------------------------------
	.byte	PATT
	 .word	Leon_10_017
@ 078   ----------------------------------------
	.byte	PATT
	 .word	Leon_10_018
@ 079   ----------------------------------------
	.byte	PATT
	 .word	Leon_10_019
@ 080   ----------------------------------------
Leon_10_080:
	.byte		N08   , Fn3 , v100
	.byte	W08
	.byte		N07   , Gn3 
	.byte	W08
	.byte		        Gn2 
	.byte	W08
	.byte	PEND
@ 081   ----------------------------------------
Leon_10_081:
	.byte		N07   , Gs2 , v100
	.byte	W08
	.byte		N08   , Cn3 
	.byte	W08
	.byte		N07   , Gs2 
	.byte	W08
	.byte	PEND
@ 082   ----------------------------------------
Leon_10_082:
	.byte		N08   , Ds3 , v100
	.byte	W08
	.byte		N07   , Gs2 
	.byte	W08
	.byte		N15   , Gs3 
	.byte	W08
	.byte	PEND
@ 083   ----------------------------------------
Leon_10_083:
	.byte	W08
	.byte		N08   , Ds3 , v100
	.byte	W08
	.byte		N07   , Gs2 
	.byte	W08
	.byte	PEND
@ 084   ----------------------------------------
	.byte		N08   , Gs3 
	.byte	W08
	.byte		N07   , Gs2 
	.byte	W08
	.byte		        As2 
	.byte	W08
@ 085   ----------------------------------------
	.byte	PATT
	 .word	Leon_10_017
@ 086   ----------------------------------------
	.byte	PATT
	 .word	Leon_10_018
@ 087   ----------------------------------------
	.byte	PATT
	 .word	Leon_10_019
@ 088   ----------------------------------------
	.byte	PATT
	 .word	Leon_10_080
@ 089   ----------------------------------------
	.byte	PATT
	 .word	Leon_10_081
@ 090   ----------------------------------------
	.byte	PATT
	 .word	Leon_10_082
@ 091   ----------------------------------------
	.byte	PATT
	 .word	Leon_10_083
@ 092   ----------------------------------------
Leon_10_092:
	.byte		N08   , Gs3 , v100
	.byte	W08
	.byte		N07   , Gs2 
	.byte	W08
	.byte		        Gs3 
	.byte	W08
	.byte	PEND
@ 093   ----------------------------------------
	.byte		        Gn2 
	.byte	W08
	.byte		N08   , Dn3 
	.byte	W08
	.byte		N07   , Cn3 
	.byte	W08
@ 094   ----------------------------------------
	.byte	PATT
	 .word	Leon_10_018
@ 095   ----------------------------------------
	.byte	W08
	.byte		N08   , Dn3 , v100
	.byte	W08
	.byte		N07   , Cn3 
	.byte	W08
@ 096   ----------------------------------------
	.byte		N08   , Fn3 
	.byte	W08
	.byte		N07   , Gn3 
	.byte	W08
	.byte		        Dn3 
	.byte	W08
@ 097   ----------------------------------------
	.byte		        Gn2 
	.byte	W08
	.byte		N08   , Dn3 
	.byte	W08
	.byte		N07   , Bn2 
	.byte	W08
@ 098   ----------------------------------------
	.byte		N08   , Fn3 
	.byte	W08
	.byte		N07   , Gn3 
	.byte	W16
@ 099   ----------------------------------------
	.byte		N07   
	.byte	W16
	.byte		N08   
	.byte	W08
@ 100   ----------------------------------------
	.byte		        Gn2 
	.byte	W08
	.byte		N07   , Gn3 
	.byte	W08
	.byte		        Gn2 
	.byte	W08
@ 101   ----------------------------------------
	.byte	PATT
	 .word	Leon_10_017
@ 102   ----------------------------------------
	.byte	PATT
	 .word	Leon_10_018
@ 103   ----------------------------------------
	.byte	PATT
	 .word	Leon_10_019
@ 104   ----------------------------------------
	.byte	PATT
	 .word	Leon_10_020
@ 105   ----------------------------------------
	.byte	PATT
	 .word	Leon_10_017
@ 106   ----------------------------------------
	.byte	PATT
	 .word	Leon_10_018
@ 107   ----------------------------------------
	.byte	PATT
	 .word	Leon_10_019
@ 108   ----------------------------------------
	.byte	PATT
	 .word	Leon_10_020
@ 109   ----------------------------------------
	.byte	PATT
	 .word	Leon_10_017
@ 110   ----------------------------------------
	.byte	PATT
	 .word	Leon_10_018
@ 111   ----------------------------------------
	.byte	PATT
	 .word	Leon_10_019
@ 112   ----------------------------------------
	.byte	PATT
	 .word	Leon_10_020
@ 113   ----------------------------------------
	.byte	PATT
	 .word	Leon_10_017
@ 114   ----------------------------------------
	.byte	PATT
	 .word	Leon_10_018
@ 115   ----------------------------------------
	.byte	PATT
	 .word	Leon_10_019
@ 116   ----------------------------------------
	.byte	PATT
	 .word	Leon_10_020
@ 117   ----------------------------------------
	.byte	PATT
	 .word	Leon_10_033
@ 118   ----------------------------------------
	.byte	PATT
	 .word	Leon_10_034
@ 119   ----------------------------------------
	.byte	PATT
	 .word	Leon_10_019
@ 120   ----------------------------------------
	.byte	PATT
	 .word	Leon_10_036
@ 121   ----------------------------------------
	.byte	PATT
	 .word	Leon_10_037
@ 122   ----------------------------------------
	.byte	PATT
	 .word	Leon_10_038
@ 123   ----------------------------------------
	.byte	PATT
	 .word	Leon_10_039
@ 124   ----------------------------------------
	.byte	PATT
	 .word	Leon_10_040
@ 125   ----------------------------------------
	.byte	PATT
	 .word	Leon_10_017
@ 126   ----------------------------------------
	.byte	PATT
	 .word	Leon_10_018
@ 127   ----------------------------------------
	.byte	PATT
	 .word	Leon_10_019
@ 128   ----------------------------------------
	.byte	PATT
	 .word	Leon_10_020
@ 129   ----------------------------------------
	.byte	PATT
	 .word	Leon_10_017
@ 130   ----------------------------------------
	.byte	PATT
	 .word	Leon_10_018
@ 131   ----------------------------------------
	.byte	PATT
	 .word	Leon_10_019
@ 132   ----------------------------------------
	.byte	PATT
	 .word	Leon_10_080
@ 133   ----------------------------------------
	.byte	PATT
	 .word	Leon_10_017
@ 134   ----------------------------------------
	.byte	PATT
	 .word	Leon_10_018
@ 135   ----------------------------------------
	.byte	PATT
	 .word	Leon_10_019
@ 136   ----------------------------------------
	.byte	PATT
	 .word	Leon_10_020
@ 137   ----------------------------------------
	.byte	PATT
	 .word	Leon_10_017
@ 138   ----------------------------------------
	.byte	PATT
	 .word	Leon_10_018
@ 139   ----------------------------------------
	.byte	PATT
	 .word	Leon_10_019
@ 140   ----------------------------------------
	.byte	PATT
	 .word	Leon_10_020
@ 141   ----------------------------------------
	.byte	PATT
	 .word	Leon_10_017
@ 142   ----------------------------------------
	.byte	PATT
	 .word	Leon_10_018
@ 143   ----------------------------------------
	.byte	PATT
	 .word	Leon_10_019
@ 144   ----------------------------------------
	.byte	PATT
	 .word	Leon_10_020
@ 145   ----------------------------------------
	.byte	PATT
	 .word	Leon_10_017
@ 146   ----------------------------------------
	.byte	PATT
	 .word	Leon_10_018
@ 147   ----------------------------------------
	.byte	PATT
	 .word	Leon_10_019
@ 148   ----------------------------------------
	.byte	PATT
	 .word	Leon_10_020
@ 149   ----------------------------------------
	.byte	PATT
	 .word	Leon_10_033
@ 150   ----------------------------------------
	.byte	PATT
	 .word	Leon_10_034
@ 151   ----------------------------------------
	.byte	PATT
	 .word	Leon_10_019
@ 152   ----------------------------------------
	.byte	PATT
	 .word	Leon_10_036
@ 153   ----------------------------------------
	.byte	PATT
	 .word	Leon_10_037
@ 154   ----------------------------------------
	.byte		N08   , As3 , v100
	.byte	W08
	.byte		N07   , Dn3 
	.byte	W08
	.byte		N08   , Dn4 
	.byte	W08
@ 155   ----------------------------------------
	.byte		N32   , Gn2 
	.byte	W24
@ 156   ----------------------------------------
	.byte	W08
	.byte		N07   , Gn2 , v072
	.byte	W08
	.byte		        Gn2 , v080
	.byte	W08
@ 157   ----------------------------------------
Leon_10_157:
	.byte		N07   , Cn3 , v100
	.byte	W08
	.byte		N08   , Cn4 
	.byte	W08
	.byte		N07   , Cn3 
	.byte	W08
	.byte	PEND
@ 158   ----------------------------------------
	.byte		N08   , Cn4 
	.byte	W08
	.byte		N07   , Cn3 
	.byte	W08
	.byte		N08   , Cn4 
	.byte	W08
@ 159   ----------------------------------------
	.byte	PATT
	 .word	Leon_10_157
@ 160   ----------------------------------------
	.byte		N08   , Cn4 , v100
	.byte	W08
	.byte		N07   , Cn3 
	.byte	W08
	.byte		        Cn4 
	.byte	W08
@ 161   ----------------------------------------
Leon_10_161:
	.byte		N08   , As2 , v100
	.byte	W08
	.byte		        As3 
	.byte	W08
	.byte		        As2 
	.byte	W08
	.byte	PEND
@ 162   ----------------------------------------
Leon_10_162:
	.byte		N08   , As3 , v100
	.byte	W08
	.byte		        As2 
	.byte	W08
	.byte		        As3 
	.byte	W08
	.byte	PEND
@ 163   ----------------------------------------
Leon_10_163:
	.byte		N08   , As2 , v100
	.byte	W08
	.byte		        As3 
	.byte	W08
	.byte		N07   , As2 
	.byte	W08
	.byte	PEND
@ 164   ----------------------------------------
Leon_10_164:
	.byte		N08   , As3 , v100
	.byte	W08
	.byte		N07   , As2 
	.byte	W08
	.byte		        As3 
	.byte	W08
	.byte	PEND
@ 165   ----------------------------------------
Leon_10_165:
	.byte		N07   , Gs2 , v100
	.byte	W08
	.byte		N08   , Gs3 
	.byte	W08
	.byte		N07   , Gs2 
	.byte	W08
	.byte	PEND
@ 166   ----------------------------------------
Leon_10_166:
	.byte		N08   , Gs3 , v100
	.byte	W08
	.byte		N07   , Gs2 
	.byte	W08
	.byte		N08   , Gs3 
	.byte	W08
	.byte	PEND
@ 167   ----------------------------------------
	.byte	PATT
	 .word	Leon_10_165
@ 168   ----------------------------------------
	.byte	PATT
	 .word	Leon_10_092
@ 169   ----------------------------------------
	.byte	PATT
	 .word	Leon_10_161
@ 170   ----------------------------------------
	.byte	PATT
	 .word	Leon_10_162
@ 171   ----------------------------------------
	.byte	PATT
	 .word	Leon_10_163
@ 172   ----------------------------------------
	.byte	PATT
	 .word	Leon_10_164
@ 173   ----------------------------------------
	.byte		N07   , Cn3 , v100
	.byte	W08
	.byte		        Cn4 
	.byte	W08
	.byte		        Cn3 
	.byte	W08
@ 174   ----------------------------------------
Leon_10_174:
	.byte		N07   , Cn4 , v100
	.byte	W08
	.byte		        Cn3 
	.byte	W08
	.byte		        Cn4 
	.byte	W08
	.byte	PEND
@ 175   ----------------------------------------
	.byte		N04   , Cn3 
	.byte	W04
	.byte		        Cn4 
	.byte	W04
	.byte		        Cn3 
	.byte	W04
	.byte		        Cn4 
	.byte	W04
	.byte		N07   , Cn3 
	.byte	W08
@ 176   ----------------------------------------
	.byte	PATT
	 .word	Leon_10_174
@ 177   ----------------------------------------
	.byte	PATT
	 .word	Leon_10_161
@ 178   ----------------------------------------
	.byte	PATT
	 .word	Leon_10_162
@ 179   ----------------------------------------
	.byte		N04   , As2 , v100
	.byte	W04
	.byte		        As3 
	.byte	W04
	.byte		        As2 
	.byte	W04
	.byte		        As3 
	.byte	W04
	.byte		N07   , As2 
	.byte	W08
@ 180   ----------------------------------------
	.byte	PATT
	 .word	Leon_10_164
@ 181   ----------------------------------------
	.byte	PATT
	 .word	Leon_10_165
@ 182   ----------------------------------------
	.byte	PATT
	 .word	Leon_10_166
@ 183   ----------------------------------------
	.byte	PATT
	 .word	Leon_10_165
@ 184   ----------------------------------------
	.byte	PATT
	 .word	Leon_10_092
@ 185   ----------------------------------------
	.byte	PATT
	 .word	Leon_10_161
@ 186   ----------------------------------------
	.byte	PATT
	 .word	Leon_10_162
@ 187   ----------------------------------------
	.byte		N07   , As2 , v100
	.byte	W08
	.byte		N07   
	.byte	W08
	.byte		N07   
	.byte	W08
@ 188   ----------------------------------------
	.byte		N07   
	.byte	W08
	.byte		N07   
	.byte	W08
	.byte	GOTO
	 .word	Leon_10_B1
Leon_10_B2:
	.byte	W07
	.byte	FINE

@**************** Track 11 (Midi-Chn.12) ****************@

Leon_11:
	.byte	KEYSH , Leon_key+0
@ 000   ----------------------------------------
	.byte		VOICE , 123
	.byte		VOL   , 91*Leon_mvl/mxv
	.byte	W09
	.byte		PAN   , c_v+0
	.byte	W15
@ 001   ----------------------------------------
	.byte	W24
@ 002   ----------------------------------------
	.byte	W24
@ 003   ----------------------------------------
	.byte	W24
@ 004   ----------------------------------------
	.byte	W24
@ 005   ----------------------------------------
	.byte	W24
@ 006   ----------------------------------------
	.byte	W24
@ 007   ----------------------------------------
	.byte	W24
@ 008   ----------------------------------------
	.byte	W24
@ 009   ----------------------------------------
Leon_11_009:
	.byte	W08
	.byte		N06   , Cn3 , v096
	.byte	W08
	.byte		N06   
	.byte	W08
	.byte	PEND
@ 010   ----------------------------------------
	.byte	W24
@ 011   ----------------------------------------
	.byte	W24
@ 012   ----------------------------------------
	.byte	PATT
	 .word	Leon_11_009
@ 013   ----------------------------------------
	.byte	W16
	.byte		N06   , Cn1 , v088
	.byte	W08
@ 014   ----------------------------------------
	.byte		        Dn1 , v100
	.byte	W16
	.byte		        Cn1 
	.byte	W08
@ 015   ----------------------------------------
	.byte	W08
	.byte		N04   , Cn2 , v080
	.byte	W04
	.byte		N02   
	.byte	W04
	.byte		N06   , An1 
	.byte	W08
@ 016   ----------------------------------------
	.byte		        Dn1 , v100
	.byte	W08
	.byte		N06   
	.byte	W08
	.byte		        Cn1 
	.byte		N06   , As1 , v060
	.byte	W08
@ 017   ----------------------------------------
	.byte		        Cn1 , v100
	.byte		N06   , Cs2 
	.byte	W08
	.byte		        Cn1 
	.byte		N06   , Fs1 , v020
	.byte	W08
	.byte		        Cn1 , v088
	.byte		N06   , Fs1 , v020
	.byte	W08
@ 018   ----------------------------------------
Leon_11_018:
	.byte		N06   , Dn1 , v100
	.byte		N06   , Fs1 , v048
	.byte	W08
	.byte		        Fs1 , v020
	.byte	W08
	.byte		        Cn1 , v100
	.byte		N06   , Fs1 , v020
	.byte	W08
	.byte	PEND
@ 019   ----------------------------------------
Leon_11_019:
	.byte		N06   , Fs1 , v048
	.byte	W08
	.byte		        Cn1 , v100
	.byte		N06   , Fs1 , v020
	.byte	W08
	.byte		N06   
	.byte	W08
	.byte	PEND
@ 020   ----------------------------------------
Leon_11_020:
	.byte		N06   , Dn1 , v100
	.byte		N06   , Fs1 , v048
	.byte	W08
	.byte		        Fs1 , v020
	.byte	W08
	.byte		        Cn1 , v088
	.byte		N06   , Fs1 , v020
	.byte	W08
	.byte	PEND
@ 021   ----------------------------------------
Leon_11_021:
	.byte		N06   , Cn1 , v100
	.byte		N06   , Fs1 , v048
	.byte	W08
	.byte		        Fs1 , v020
	.byte	W08
	.byte		        Cn1 , v088
	.byte		N06   , Fs1 , v020
	.byte	W08
	.byte	PEND
@ 022   ----------------------------------------
	.byte	PATT
	 .word	Leon_11_018
@ 023   ----------------------------------------
	.byte	PATT
	 .word	Leon_11_019
@ 024   ----------------------------------------
Leon_11_024:
	.byte		N06   , Dn1 , v100
	.byte		N06   , Fs1 , v048
	.byte	W08
	.byte		        Fs1 , v020
	.byte	W08
	.byte		        Cn1 , v088
	.byte		N06   , As1 , v040
	.byte	W08
	.byte	PEND
@ 025   ----------------------------------------
	.byte	PATT
	 .word	Leon_11_021
@ 026   ----------------------------------------
	.byte	PATT
	 .word	Leon_11_018
@ 027   ----------------------------------------
	.byte	PATT
	 .word	Leon_11_019
@ 028   ----------------------------------------
	.byte	PATT
	 .word	Leon_11_020
@ 029   ----------------------------------------
	.byte	PATT
	 .word	Leon_11_021
@ 030   ----------------------------------------
	.byte	PATT
	 .word	Leon_11_018
@ 031   ----------------------------------------
	.byte	PATT
	 .word	Leon_11_019
@ 032   ----------------------------------------
	.byte	PATT
	 .word	Leon_11_024
@ 033   ----------------------------------------
	.byte	PATT
	 .word	Leon_11_021
@ 034   ----------------------------------------
	.byte	PATT
	 .word	Leon_11_018
@ 035   ----------------------------------------
	.byte	PATT
	 .word	Leon_11_019
@ 036   ----------------------------------------
	.byte	PATT
	 .word	Leon_11_020
@ 037   ----------------------------------------
	.byte	PATT
	 .word	Leon_11_021
@ 038   ----------------------------------------
	.byte	PATT
	 .word	Leon_11_018
@ 039   ----------------------------------------
	.byte	PATT
	 .word	Leon_11_019
@ 040   ----------------------------------------
	.byte	PATT
	 .word	Leon_11_024
@ 041   ----------------------------------------
	.byte	PATT
	 .word	Leon_11_021
@ 042   ----------------------------------------
	.byte	PATT
	 .word	Leon_11_018
@ 043   ----------------------------------------
	.byte	PATT
	 .word	Leon_11_019
@ 044   ----------------------------------------
	.byte	PATT
	 .word	Leon_11_020
@ 045   ----------------------------------------
	.byte	PATT
	 .word	Leon_11_021
@ 046   ----------------------------------------
	.byte	PATT
	 .word	Leon_11_018
@ 047   ----------------------------------------
Leon_11_047:
	.byte		N06   , Fs1 , v048
	.byte	W08
	.byte		        Cn1 , v100
	.byte		N06   , As1 , v040
	.byte	W08
	.byte		        Fs1 , v020
	.byte		N04   , An1 , v080
	.byte	W04
	.byte		N02   
	.byte	W04
	.byte	PEND
@ 048   ----------------------------------------
	.byte		N06   , Dn1 , v100
	.byte		N06   , As1 , v040
	.byte	W08
	.byte		        Fn1 , v080
	.byte		N06   , Fs1 , v020
	.byte	W08
	.byte		        Cn1 , v088
	.byte		N06   , Fs1 , v020
	.byte	W02
Leon_11_B1:
	.byte	W06
@ 049   ----------------------------------------
Leon_11_049:
	.byte		N06   , Cn1 , v100
	.byte		N06   , An2 , v080
	.byte	W08
	.byte		        Fs1 , v020
	.byte	W08
	.byte		        Cn1 , v088
	.byte		N06   , Fs1 , v020
	.byte	W08
	.byte	PEND
@ 050   ----------------------------------------
	.byte	PATT
	 .word	Leon_11_018
@ 051   ----------------------------------------
	.byte	PATT
	 .word	Leon_11_019
@ 052   ----------------------------------------
	.byte	PATT
	 .word	Leon_11_020
@ 053   ----------------------------------------
	.byte	PATT
	 .word	Leon_11_021
@ 054   ----------------------------------------
	.byte	PATT
	 .word	Leon_11_018
@ 055   ----------------------------------------
	.byte	PATT
	 .word	Leon_11_019
@ 056   ----------------------------------------
	.byte	PATT
	 .word	Leon_11_024
@ 057   ----------------------------------------
	.byte	PATT
	 .word	Leon_11_021
@ 058   ----------------------------------------
	.byte	PATT
	 .word	Leon_11_018
@ 059   ----------------------------------------
	.byte	PATT
	 .word	Leon_11_019
@ 060   ----------------------------------------
	.byte	PATT
	 .word	Leon_11_020
@ 061   ----------------------------------------
	.byte	PATT
	 .word	Leon_11_021
@ 062   ----------------------------------------
	.byte	PATT
	 .word	Leon_11_018
@ 063   ----------------------------------------
	.byte	PATT
	 .word	Leon_11_019
@ 064   ----------------------------------------
	.byte	PATT
	 .word	Leon_11_024
@ 065   ----------------------------------------
	.byte	PATT
	 .word	Leon_11_021
@ 066   ----------------------------------------
	.byte	PATT
	 .word	Leon_11_018
@ 067   ----------------------------------------
	.byte	PATT
	 .word	Leon_11_019
@ 068   ----------------------------------------
	.byte	PATT
	 .word	Leon_11_020
@ 069   ----------------------------------------
	.byte	PATT
	 .word	Leon_11_021
@ 070   ----------------------------------------
	.byte	PATT
	 .word	Leon_11_018
@ 071   ----------------------------------------
	.byte	PATT
	 .word	Leon_11_019
@ 072   ----------------------------------------
	.byte	PATT
	 .word	Leon_11_024
@ 073   ----------------------------------------
	.byte	PATT
	 .word	Leon_11_021
@ 074   ----------------------------------------
	.byte	PATT
	 .word	Leon_11_018
@ 075   ----------------------------------------
	.byte	PATT
	 .word	Leon_11_019
@ 076   ----------------------------------------
	.byte	PATT
	 .word	Leon_11_020
@ 077   ----------------------------------------
	.byte		N06   , Cn1 , v100
	.byte		N06   , Fs1 , v048
	.byte	W08
	.byte		        Dn1 , v100
	.byte		N06   , Fs1 , v020
	.byte	W08
	.byte		        Cn1 , v100
	.byte		N06   , Fs1 , v020
	.byte	W08
@ 078   ----------------------------------------
	.byte		N04   , Dn1 , v108
	.byte		N06   , Fs1 , v048
	.byte	W04
	.byte		N02   , Dn1 , v072
	.byte	W04
	.byte		N06   , Cn1 , v100
	.byte		N06   , Fs1 , v020
	.byte	W08
	.byte		N06   
	.byte		N06   , Cn2 , v080
	.byte	W08
@ 079   ----------------------------------------
	.byte		        Cn1 , v100
	.byte		N06   , Fs1 , v048
	.byte	W08
	.byte		        Fs1 , v020
	.byte		N06   , An1 , v080
	.byte	W08
	.byte		        Fn1 
	.byte		N06   , Fs1 , v020
	.byte	W08
@ 080   ----------------------------------------
	.byte		        Dn1 , v100
	.byte		N06   , Fs1 , v048
	.byte	W08
	.byte		        Dn1 , v100
	.byte		N06   , Fs1 , v020
	.byte	W08
	.byte		        Fn1 , v080
	.byte		N06   , As1 , v040
	.byte	W08
@ 081   ----------------------------------------
	.byte		        Cn1 , v100
	.byte	W08
	.byte		        Fs1 , v020
	.byte	W08
	.byte		        Cn1 , v088
	.byte		N06   , Ds2 
	.byte	W08
@ 082   ----------------------------------------
Leon_11_082:
	.byte		N06   , Dn1 , v100
	.byte		N06   , Fs1 , v048
	.byte	W08
	.byte		        Fn1 , v080
	.byte		N06   , Fs1 , v020
	.byte	W08
	.byte		        Cn1 , v100
	.byte		N06   , Fs1 , v020
	.byte	W08
	.byte	PEND
@ 083   ----------------------------------------
Leon_11_083:
	.byte		N06   , Fs1 , v048
	.byte	W08
	.byte		        Cn1 , v100
	.byte		N06   , Fs1 , v020
	.byte	W08
	.byte		        Ds2 , v088
	.byte	W08
	.byte	PEND
@ 084   ----------------------------------------
Leon_11_084:
	.byte		N06   , Dn1 , v100
	.byte		N06   , Fs1 , v048
	.byte	W08
	.byte		        Fs1 , v020
	.byte		N06   , An1 , v080
	.byte	W08
	.byte		        Cn1 , v088
	.byte		N06   , Fs1 , v020
	.byte	W08
	.byte	PEND
@ 085   ----------------------------------------
Leon_11_085:
	.byte		N06   , Cn1 , v100
	.byte		N06   , Fs1 , v048
	.byte	W08
	.byte		        Fs1 , v020
	.byte	W08
	.byte		        Cn1 , v088
	.byte		N06   , Ds2 
	.byte	W08
	.byte	PEND
@ 086   ----------------------------------------
	.byte	PATT
	 .word	Leon_11_082
@ 087   ----------------------------------------
	.byte	PATT
	 .word	Leon_11_083
@ 088   ----------------------------------------
	.byte	PATT
	 .word	Leon_11_084
@ 089   ----------------------------------------
	.byte	PATT
	 .word	Leon_11_085
@ 090   ----------------------------------------
	.byte	PATT
	 .word	Leon_11_082
@ 091   ----------------------------------------
	.byte	PATT
	 .word	Leon_11_083
@ 092   ----------------------------------------
	.byte	PATT
	 .word	Leon_11_084
@ 093   ----------------------------------------
	.byte	PATT
	 .word	Leon_11_085
@ 094   ----------------------------------------
	.byte	PATT
	 .word	Leon_11_082
@ 095   ----------------------------------------
	.byte	PATT
	 .word	Leon_11_083
@ 096   ----------------------------------------
	.byte	PATT
	 .word	Leon_11_084
@ 097   ----------------------------------------
	.byte	PATT
	 .word	Leon_11_085
@ 098   ----------------------------------------
	.byte		N06   , Dn1 , v100
	.byte		N06   , Fs1 , v048
	.byte	W08
	.byte		        As1 , v040
	.byte		N06   , Cn2 , v080
	.byte	W08
	.byte		        Cn1 , v100
	.byte		N06   , Fs1 , v004
	.byte	W08
@ 099   ----------------------------------------
	.byte		        An1 , v080
	.byte		N06   , As1 , v040
	.byte	W08
	.byte		        Cn1 , v100
	.byte		N06   , Fs1 , v004
	.byte	W08
	.byte		        Fn1 , v080
	.byte		N06   , As1 , v040
	.byte	W04
	.byte		N04   , Dn1 , v060
	.byte	W04
@ 100   ----------------------------------------
	.byte		N02   , Dn1 , v100
	.byte		N06   , Fs1 , v004
	.byte	W08
	.byte		        Dn1 , v100
	.byte	W08
	.byte		N06   
	.byte	W08
@ 101   ----------------------------------------
	.byte		        Cn1 
	.byte		N06   , Cs2 , v080
	.byte	W24
@ 102   ----------------------------------------
	.byte	W24
@ 103   ----------------------------------------
	.byte	W24
@ 104   ----------------------------------------
	.byte		N04   , Dn1 , v044
	.byte	W04
	.byte		N02   , Dn1 , v056
	.byte	W04
	.byte		        Dn1 , v068
	.byte	W04
	.byte		        Dn1 , v080
	.byte	W04
	.byte		        Dn1 , v092
	.byte		N06   , As1 , v060
	.byte	W04
	.byte		N02   , Dn1 , v104
	.byte	W04
@ 105   ----------------------------------------
	.byte	PATT
	 .word	Leon_11_049
@ 106   ----------------------------------------
	.byte	PATT
	 .word	Leon_11_018
@ 107   ----------------------------------------
	.byte	PATT
	 .word	Leon_11_019
@ 108   ----------------------------------------
	.byte	PATT
	 .word	Leon_11_020
@ 109   ----------------------------------------
	.byte	PATT
	 .word	Leon_11_021
@ 110   ----------------------------------------
	.byte	PATT
	 .word	Leon_11_018
@ 111   ----------------------------------------
	.byte	PATT
	 .word	Leon_11_019
@ 112   ----------------------------------------
	.byte	PATT
	 .word	Leon_11_024
@ 113   ----------------------------------------
	.byte	PATT
	 .word	Leon_11_021
@ 114   ----------------------------------------
	.byte	PATT
	 .word	Leon_11_018
@ 115   ----------------------------------------
	.byte	PATT
	 .word	Leon_11_019
@ 116   ----------------------------------------
	.byte	PATT
	 .word	Leon_11_020
@ 117   ----------------------------------------
	.byte	PATT
	 .word	Leon_11_021
@ 118   ----------------------------------------
	.byte	PATT
	 .word	Leon_11_018
@ 119   ----------------------------------------
	.byte	PATT
	 .word	Leon_11_019
@ 120   ----------------------------------------
	.byte	PATT
	 .word	Leon_11_024
@ 121   ----------------------------------------
	.byte	PATT
	 .word	Leon_11_021
@ 122   ----------------------------------------
	.byte	PATT
	 .word	Leon_11_018
@ 123   ----------------------------------------
	.byte	PATT
	 .word	Leon_11_019
@ 124   ----------------------------------------
	.byte	PATT
	 .word	Leon_11_020
@ 125   ----------------------------------------
	.byte	PATT
	 .word	Leon_11_021
@ 126   ----------------------------------------
	.byte	PATT
	 .word	Leon_11_018
@ 127   ----------------------------------------
	.byte	PATT
	 .word	Leon_11_019
@ 128   ----------------------------------------
	.byte	PATT
	 .word	Leon_11_024
@ 129   ----------------------------------------
	.byte	PATT
	 .word	Leon_11_021
@ 130   ----------------------------------------
	.byte	PATT
	 .word	Leon_11_018
@ 131   ----------------------------------------
	.byte		N06   , Fs1 , v048
	.byte	W08
	.byte		        Cn1 , v100
	.byte		N06   , Fs1 , v020
	.byte	W08
	.byte		        Cn1 , v100
	.byte		N06   , Fs1 , v020
	.byte	W04
	.byte		N04   , Dn1 , v056
	.byte	W04
@ 132   ----------------------------------------
	.byte		N02   , Dn1 , v100
	.byte		N06   , Fs1 , v048
	.byte	W08
	.byte		        Fs1 , v020
	.byte	W08
	.byte		        Cn1 , v088
	.byte		N06   , Fs1 , v020
	.byte	W08
@ 133   ----------------------------------------
	.byte		        Cn1 , v100
	.byte		N06   , Cs2 
	.byte	W08
	.byte		        Fs1 , v020
	.byte	W08
	.byte		        Cn1 , v088
	.byte		N06   , Fs1 , v020
	.byte	W08
@ 134   ----------------------------------------
	.byte	PATT
	 .word	Leon_11_018
@ 135   ----------------------------------------
	.byte	PATT
	 .word	Leon_11_019
@ 136   ----------------------------------------
	.byte	PATT
	 .word	Leon_11_020
@ 137   ----------------------------------------
	.byte	PATT
	 .word	Leon_11_021
@ 138   ----------------------------------------
	.byte	PATT
	 .word	Leon_11_018
@ 139   ----------------------------------------
	.byte	PATT
	 .word	Leon_11_019
@ 140   ----------------------------------------
	.byte	PATT
	 .word	Leon_11_020
@ 141   ----------------------------------------
	.byte	PATT
	 .word	Leon_11_021
@ 142   ----------------------------------------
	.byte	PATT
	 .word	Leon_11_018
@ 143   ----------------------------------------
	.byte	PATT
	 .word	Leon_11_019
@ 144   ----------------------------------------
	.byte	PATT
	 .word	Leon_11_024
@ 145   ----------------------------------------
	.byte	PATT
	 .word	Leon_11_021
@ 146   ----------------------------------------
	.byte	PATT
	 .word	Leon_11_018
@ 147   ----------------------------------------
	.byte	PATT
	 .word	Leon_11_019
@ 148   ----------------------------------------
	.byte	PATT
	 .word	Leon_11_024
@ 149   ----------------------------------------
	.byte	PATT
	 .word	Leon_11_021
@ 150   ----------------------------------------
	.byte	PATT
	 .word	Leon_11_018
@ 151   ----------------------------------------
	.byte	PATT
	 .word	Leon_11_019
@ 152   ----------------------------------------
	.byte	PATT
	 .word	Leon_11_020
@ 153   ----------------------------------------
	.byte	PATT
	 .word	Leon_11_021
@ 154   ----------------------------------------
	.byte		N06   , Dn1 , v100
	.byte		N06   , Fs1 , v048
	.byte	W06
	.byte		        Cn2 , v080
	.byte	W02
	.byte		        Fs1 , v020
	.byte	W04
	.byte		        An1 , v080
	.byte	W04
	.byte		        Fs1 , v020
	.byte	W02
	.byte		        Fn1 , v080
	.byte	W06
@ 155   ----------------------------------------
	.byte		        Cn1 , v100
	.byte		N06   , Cs2 , v080
	.byte		N06   , An2 
	.byte	W08
	.byte		        Cn1 , v032
	.byte	W08
	.byte		        Cn1 , v044
	.byte	W08
@ 156   ----------------------------------------
	.byte		        Cn1 , v060
	.byte	W08
	.byte		        Cn1 , v072
	.byte	W08
	.byte		        Cn1 , v088
	.byte	W08
@ 157   ----------------------------------------
	.byte		        Cn1 , v100
	.byte		N06   , Fs1 , v048
	.byte	W08
	.byte		        Cn1 , v100
	.byte		N06   , Fs1 , v020
	.byte	W08
	.byte		        Cn1 , v088
	.byte		N06   , Fs1 , v020
	.byte	W08
@ 158   ----------------------------------------
	.byte	PATT
	 .word	Leon_11_018
@ 159   ----------------------------------------
	.byte	PATT
	 .word	Leon_11_019
@ 160   ----------------------------------------
	.byte	PATT
	 .word	Leon_11_020
@ 161   ----------------------------------------
	.byte	PATT
	 .word	Leon_11_021
@ 162   ----------------------------------------
	.byte	PATT
	 .word	Leon_11_018
@ 163   ----------------------------------------
	.byte	PATT
	 .word	Leon_11_047
@ 164   ----------------------------------------
	.byte		N06   , Dn1 , v100
	.byte		N06   , As1 , v040
	.byte	W08
	.byte		        Fn1 , v080
	.byte		N06   , Fs1 , v020
	.byte	W08
	.byte		        Cn1 , v088
	.byte		N06   , Fs1 , v020
	.byte	W08
@ 165   ----------------------------------------
	.byte	PATT
	 .word	Leon_11_021
@ 166   ----------------------------------------
	.byte	PATT
	 .word	Leon_11_018
@ 167   ----------------------------------------
	.byte	PATT
	 .word	Leon_11_019
@ 168   ----------------------------------------
	.byte	PATT
	 .word	Leon_11_020
@ 169   ----------------------------------------
	.byte	PATT
	 .word	Leon_11_021
@ 170   ----------------------------------------
	.byte		N06   , Dn1 , v100
	.byte		N06   , Fs1 , v048
	.byte	W08
	.byte		        Fs1 , v020
	.byte		N06   , Cn2 , v080
	.byte	W08
	.byte		        Cn1 , v100
	.byte		N06   , Fs1 , v020
	.byte	W08
@ 171   ----------------------------------------
	.byte		        Fs1 , v048
	.byte		N06   , An1 , v080
	.byte	W08
	.byte		        Cn1 , v100
	.byte		N06   , Fs1 , v020
	.byte	W08
	.byte		        Fn1 , v080
	.byte		N06   , Fs1 , v020
	.byte	W04
	.byte		N04   , Dn1 , v060
	.byte	W04
@ 172   ----------------------------------------
	.byte		N02   , Dn1 , v072
	.byte		N06   , Fs1 , v048
	.byte	W08
	.byte		        Dn1 , v088
	.byte		N06   , Cs2 , v080
	.byte	W08
	.byte		        Dn1 , v100
	.byte		N06   , An2 
	.byte	W08
@ 173   ----------------------------------------
	.byte		        Cn1 
	.byte	W24
@ 174   ----------------------------------------
	.byte		N06   
	.byte	W24
@ 175   ----------------------------------------
	.byte		N06   
	.byte	W24
@ 176   ----------------------------------------
	.byte		N06   
	.byte	W24
@ 177   ----------------------------------------
	.byte		N06   
	.byte	W24
@ 178   ----------------------------------------
	.byte		N06   
	.byte	W24
@ 179   ----------------------------------------
	.byte		N06   
	.byte	W24
@ 180   ----------------------------------------
	.byte		N06   
	.byte	W24
@ 181   ----------------------------------------
	.byte		N06   
	.byte	W24
@ 182   ----------------------------------------
	.byte		N06   
	.byte	W24
@ 183   ----------------------------------------
	.byte		N06   
	.byte	W24
@ 184   ----------------------------------------
	.byte		N06   
	.byte	W24
@ 185   ----------------------------------------
	.byte		        Cn1 , v036
	.byte	W08
	.byte		        Cn1 , v044
	.byte	W08
	.byte		        Cn1 , v052
	.byte	W08
@ 186   ----------------------------------------
	.byte		        Cn1 , v060
	.byte	W08
	.byte		        Cn1 , v068
	.byte	W08
	.byte		        Cn1 , v076
	.byte	W08
@ 187   ----------------------------------------
	.byte		        Cn1 , v084
	.byte	W08
	.byte		        Dn1 , v072
	.byte	W08
	.byte		        Dn1 , v080
	.byte	W08
@ 188   ----------------------------------------
	.byte		        Dn1 , v088
	.byte	W08
	.byte		        Dn1 , v096
	.byte	W08
	.byte	GOTO
	 .word	Leon_11_B1
Leon_11_B2:
	.byte		N06   , Dn1 , v104
	.byte		N06   , An2 , v100
	.byte	W07
	.byte	FINE

@**************** Track 12 (Midi-Chn.13) ****************@

Leon_12:
	.byte	KEYSH , Leon_key+0
@ 000   ----------------------------------------
	.byte		VOICE , 57
	.byte		VOL   , 118*Leon_mvl/mxv
	.byte	W09
	.byte		PAN   , c_v+0
	.byte	W15
@ 001   ----------------------------------------
	.byte	W24
@ 002   ----------------------------------------
	.byte	W24
@ 003   ----------------------------------------
	.byte	W24
@ 004   ----------------------------------------
	.byte	W24
@ 005   ----------------------------------------
	.byte	W24
@ 006   ----------------------------------------
	.byte	W24
@ 007   ----------------------------------------
	.byte	W24
@ 008   ----------------------------------------
	.byte	W24
@ 009   ----------------------------------------
	.byte	W24
@ 010   ----------------------------------------
	.byte	W24
@ 011   ----------------------------------------
	.byte	W24
@ 012   ----------------------------------------
	.byte	W24
@ 013   ----------------------------------------
	.byte	W24
@ 014   ----------------------------------------
	.byte	W24
@ 015   ----------------------------------------
	.byte	W24
@ 016   ----------------------------------------
	.byte	W24
@ 017   ----------------------------------------
	.byte		TIE   , Cn3 , v088
	.byte	W24
@ 018   ----------------------------------------
	.byte	W24
@ 019   ----------------------------------------
	.byte	W24
@ 020   ----------------------------------------
	.byte	W24
@ 021   ----------------------------------------
	.byte	W24
@ 022   ----------------------------------------
	.byte	W24
@ 023   ----------------------------------------
	.byte	W24
	.byte		EOT   
@ 024   ----------------------------------------
Leon_12_024:
	.byte	W08
	.byte		N07   , As2 , v088
	.byte	W08
	.byte		        Cn3 
	.byte	W08
	.byte	PEND
@ 025   ----------------------------------------
	.byte		TIE   , Dn3 
	.byte	W24
@ 026   ----------------------------------------
	.byte	W24
@ 027   ----------------------------------------
	.byte	W24
@ 028   ----------------------------------------
	.byte	W24
@ 029   ----------------------------------------
	.byte	W24
@ 030   ----------------------------------------
	.byte	W24
@ 031   ----------------------------------------
	.byte	W24
	.byte		EOT   
@ 032   ----------------------------------------
Leon_12_032:
	.byte	W08
	.byte		N07   , Cn3 , v088
	.byte	W08
	.byte		        Dn3 
	.byte	W08
	.byte	PEND
@ 033   ----------------------------------------
	.byte		N78   , Ds3 
	.byte	W24
@ 034   ----------------------------------------
	.byte	W24
@ 035   ----------------------------------------
	.byte	W24
@ 036   ----------------------------------------
Leon_12_036:
	.byte	W08
	.byte		N07   , Dn3 , v088
	.byte	W08
	.byte		        Ds3 
	.byte	W08
	.byte	PEND
@ 037   ----------------------------------------
	.byte		N44   , Fn3 
	.byte	W24
@ 038   ----------------------------------------
	.byte	W24
@ 039   ----------------------------------------
	.byte		N42   , As3 
	.byte	W24
@ 040   ----------------------------------------
Leon_12_040:
	.byte	W18
	.byte		N03   , An3 , v088
	.byte	W03
	.byte		        Gs3 
	.byte	W03
	.byte	PEND
@ 041   ----------------------------------------
	.byte		TIE   , Gn3 
	.byte	W24
@ 042   ----------------------------------------
	.byte	W24
@ 043   ----------------------------------------
	.byte	W24
@ 044   ----------------------------------------
	.byte	W24
@ 045   ----------------------------------------
	.byte	W24
@ 046   ----------------------------------------
	.byte	W24
@ 047   ----------------------------------------
	.byte	W23
	.byte		EOT   
	.byte	W01
@ 048   ----------------------------------------
	.byte	W08
	.byte		N07   , Gn2 
	.byte	W08
	.byte		N07   
	.byte	W02
Leon_12_B1:
	.byte	W06
@ 049   ----------------------------------------
	.byte		TIE   , Cn3 , v088
	.byte	W24
@ 050   ----------------------------------------
	.byte	W24
@ 051   ----------------------------------------
	.byte	W24
@ 052   ----------------------------------------
	.byte	W24
@ 053   ----------------------------------------
	.byte	W24
@ 054   ----------------------------------------
	.byte	W24
@ 055   ----------------------------------------
	.byte	W24
	.byte		EOT   
@ 056   ----------------------------------------
	.byte	PATT
	 .word	Leon_12_024
@ 057   ----------------------------------------
	.byte		TIE   , Dn3 , v088
	.byte	W24
@ 058   ----------------------------------------
	.byte	W24
@ 059   ----------------------------------------
	.byte	W24
@ 060   ----------------------------------------
	.byte	W24
@ 061   ----------------------------------------
	.byte	W24
@ 062   ----------------------------------------
	.byte	W24
@ 063   ----------------------------------------
	.byte	W24
	.byte		EOT   
@ 064   ----------------------------------------
	.byte	PATT
	 .word	Leon_12_032
@ 065   ----------------------------------------
	.byte		N78   , Ds3 , v088
	.byte	W24
@ 066   ----------------------------------------
	.byte	W24
@ 067   ----------------------------------------
	.byte	W24
@ 068   ----------------------------------------
	.byte	PATT
	 .word	Leon_12_036
@ 069   ----------------------------------------
	.byte		N44   , Fn3 , v088
	.byte	W24
@ 070   ----------------------------------------
	.byte	W24
@ 071   ----------------------------------------
Leon_12_071:
	.byte		BEND  , c_v-33
	.byte		N42   , As3 , v088
	.byte	W01
	.byte		BEND  , c_v-26
	.byte	W01
	.byte		        c_v-21
	.byte	W01
	.byte		        c_v-16
	.byte	W01
	.byte		        c_v-13
	.byte	W01
	.byte		        c_v-10
	.byte	W01
	.byte		        c_v-8
	.byte	W01
	.byte		        c_v-6
	.byte	W01
	.byte		        c_v-5
	.byte	W01
	.byte		        c_v-4
	.byte	W01
	.byte		        c_v-3
	.byte	W01
	.byte		        c_v-2
	.byte	W02
	.byte		        c_v-1
	.byte	W03
	.byte		        c_v+0
	.byte	W08
	.byte	PEND
@ 072   ----------------------------------------
	.byte	W18
	.byte		N03   , An3 , v084
	.byte	W03
	.byte		        Gs3 
	.byte	W03
@ 073   ----------------------------------------
	.byte		TIE   , Gn3 , v080
	.byte	W24
@ 074   ----------------------------------------
	.byte	W24
@ 075   ----------------------------------------
	.byte	W24
@ 076   ----------------------------------------
	.byte	W24
@ 077   ----------------------------------------
	.byte	W24
@ 078   ----------------------------------------
	.byte	W24
@ 079   ----------------------------------------
	.byte	W23
	.byte		EOT   
	.byte	W01
@ 080   ----------------------------------------
	.byte		N08   , Cn3 , v088
	.byte	W08
	.byte		N07   , As2 
	.byte	W08
	.byte		        Cn3 
	.byte	W08
@ 081   ----------------------------------------
	.byte		N06   , Gs2 , v080
	.byte	W08
	.byte		        Cn3 
	.byte	W08
	.byte		N30   , As3 
	.byte	W08
@ 082   ----------------------------------------
	.byte	W24
@ 083   ----------------------------------------
	.byte		        Gs3 
	.byte	W24
@ 084   ----------------------------------------
	.byte	W08
	.byte		N07   , Gn3 
	.byte	W08
	.byte		        Fn3 
	.byte	W08
@ 085   ----------------------------------------
	.byte		N07   
	.byte	W08
	.byte		        Ds3 
	.byte	W08
	.byte		        Fn3 
	.byte	W08
@ 086   ----------------------------------------
	.byte		N44   , Gn3 
	.byte	W24
@ 087   ----------------------------------------
	.byte	W24
@ 088   ----------------------------------------
	.byte		N07   , Cn3 
	.byte	W08
	.byte		        As2 
	.byte	W08
	.byte		        Cn3 
	.byte	W08
@ 089   ----------------------------------------
	.byte		        Gs2 
	.byte	W08
	.byte		        Cn3 
	.byte	W08
	.byte		N30   , As3 
	.byte	W08
@ 090   ----------------------------------------
	.byte	W24
@ 091   ----------------------------------------
	.byte		N23   , Gs3 
	.byte	W24
@ 092   ----------------------------------------
	.byte		N07   , Fn3 
	.byte	W08
	.byte		        Gn3 
	.byte	W08
	.byte		N23   , Gs3 
	.byte	W08
@ 093   ----------------------------------------
	.byte	W16
	.byte		TIE   , Gn3 
	.byte	W08
@ 094   ----------------------------------------
	.byte	W24
@ 095   ----------------------------------------
	.byte	W24
@ 096   ----------------------------------------
	.byte	W24
@ 097   ----------------------------------------
	.byte	W23
	.byte		EOT   
	.byte	W01
@ 098   ----------------------------------------
	.byte	W24
@ 099   ----------------------------------------
	.byte	W24
@ 100   ----------------------------------------
	.byte		N07   , Gn2 
	.byte	W08
	.byte		N07   
	.byte	W08
	.byte		N07   
	.byte	W08
@ 101   ----------------------------------------
	.byte		TIE   , Cn3 , v088
	.byte	W24
@ 102   ----------------------------------------
	.byte	W24
@ 103   ----------------------------------------
	.byte	W24
@ 104   ----------------------------------------
	.byte	W24
@ 105   ----------------------------------------
	.byte	W24
@ 106   ----------------------------------------
	.byte	W24
@ 107   ----------------------------------------
	.byte	W24
	.byte		EOT   
@ 108   ----------------------------------------
	.byte	PATT
	 .word	Leon_12_024
@ 109   ----------------------------------------
	.byte		TIE   , Dn3 , v088
	.byte	W24
@ 110   ----------------------------------------
	.byte	W24
@ 111   ----------------------------------------
	.byte	W24
@ 112   ----------------------------------------
	.byte	W24
@ 113   ----------------------------------------
	.byte	W24
@ 114   ----------------------------------------
	.byte	W24
@ 115   ----------------------------------------
	.byte	W24
	.byte		EOT   
@ 116   ----------------------------------------
	.byte	PATT
	 .word	Leon_12_032
@ 117   ----------------------------------------
	.byte		N78   , Ds3 , v088
	.byte	W24
@ 118   ----------------------------------------
	.byte	W24
@ 119   ----------------------------------------
	.byte	W24
@ 120   ----------------------------------------
	.byte	PATT
	 .word	Leon_12_036
@ 121   ----------------------------------------
	.byte		N44   , Fn3 , v088
	.byte	W24
@ 122   ----------------------------------------
	.byte	W24
@ 123   ----------------------------------------
	.byte	PATT
	 .word	Leon_12_071
@ 124   ----------------------------------------
	.byte	PATT
	 .word	Leon_12_040
@ 125   ----------------------------------------
	.byte		TIE   , Gn3 , v088
	.byte	W24
@ 126   ----------------------------------------
	.byte	W24
@ 127   ----------------------------------------
	.byte	W24
@ 128   ----------------------------------------
	.byte	W24
@ 129   ----------------------------------------
	.byte	W24
@ 130   ----------------------------------------
	.byte	W24
@ 131   ----------------------------------------
	.byte	W23
	.byte		EOT   
	.byte	W01
@ 132   ----------------------------------------
	.byte	W08
	.byte		N07   , Gn2 
	.byte	W08
	.byte		N07   
	.byte	W08
@ 133   ----------------------------------------
	.byte		TIE   , Cn3 
	.byte	W24
@ 134   ----------------------------------------
	.byte	W24
@ 135   ----------------------------------------
	.byte	W24
@ 136   ----------------------------------------
	.byte	W24
@ 137   ----------------------------------------
	.byte	W24
@ 138   ----------------------------------------
	.byte	W24
@ 139   ----------------------------------------
	.byte	W24
	.byte		EOT   
@ 140   ----------------------------------------
	.byte	PATT
	 .word	Leon_12_024
@ 141   ----------------------------------------
	.byte		TIE   , Dn3 , v088
	.byte	W24
@ 142   ----------------------------------------
	.byte	W24
@ 143   ----------------------------------------
	.byte	W24
@ 144   ----------------------------------------
	.byte	W24
@ 145   ----------------------------------------
	.byte	W24
@ 146   ----------------------------------------
	.byte	W24
@ 147   ----------------------------------------
	.byte	W24
	.byte		EOT   
@ 148   ----------------------------------------
	.byte	PATT
	 .word	Leon_12_032
@ 149   ----------------------------------------
	.byte		N78   , Ds3 , v088
	.byte	W24
@ 150   ----------------------------------------
	.byte	W24
@ 151   ----------------------------------------
	.byte	W24
@ 152   ----------------------------------------
	.byte	PATT
	 .word	Leon_12_036
@ 153   ----------------------------------------
	.byte		N44   , Fn3 , v088
	.byte	W24
@ 154   ----------------------------------------
	.byte	W24
@ 155   ----------------------------------------
	.byte		BEND  , c_v-33
	.byte		N44   , As3 
	.byte	W01
	.byte		BEND  , c_v-26
	.byte	W01
	.byte		        c_v-21
	.byte	W01
	.byte		        c_v-16
	.byte	W01
	.byte		        c_v-13
	.byte	W01
	.byte		        c_v-10
	.byte	W01
	.byte		        c_v-8
	.byte	W01
	.byte		        c_v-6
	.byte	W01
	.byte		        c_v-5
	.byte	W01
	.byte		        c_v-4
	.byte	W01
	.byte		        c_v-3
	.byte	W01
	.byte		        c_v-2
	.byte	W02
	.byte		        c_v-1
	.byte	W03
	.byte		        c_v+0
	.byte	W08
@ 156   ----------------------------------------
	.byte	W24
@ 157   ----------------------------------------
	.byte		TIE   , Cn4 
	.byte	W24
@ 158   ----------------------------------------
	.byte	W24
@ 159   ----------------------------------------
	.byte	W24
@ 160   ----------------------------------------
	.byte	W24
@ 161   ----------------------------------------
	.byte	W24
@ 162   ----------------------------------------
	.byte	W24
@ 163   ----------------------------------------
	.byte	W24
	.byte		EOT   
@ 164   ----------------------------------------
Leon_12_164:
	.byte		N08   , Gn3 , v088
	.byte	W08
	.byte		        As3 
	.byte	W08
	.byte		        Gn3 
	.byte	W08
	.byte	PEND
@ 165   ----------------------------------------
	.byte		TIE   , Cn4 
	.byte	W24
@ 166   ----------------------------------------
	.byte	W24
@ 167   ----------------------------------------
	.byte	W24
@ 168   ----------------------------------------
	.byte	W24
@ 169   ----------------------------------------
	.byte	W24
@ 170   ----------------------------------------
	.byte	W24
@ 171   ----------------------------------------
	.byte	W24
	.byte		EOT   
@ 172   ----------------------------------------
	.byte		N08   , Ds4 
	.byte	W08
	.byte		        Dn4 
	.byte	W08
	.byte		        As3 
	.byte	W08
@ 173   ----------------------------------------
	.byte		TIE   , Cn4 
	.byte	W24
@ 174   ----------------------------------------
	.byte	W24
@ 175   ----------------------------------------
	.byte	W24
@ 176   ----------------------------------------
	.byte	W24
@ 177   ----------------------------------------
	.byte	W24
@ 178   ----------------------------------------
	.byte	W24
@ 179   ----------------------------------------
	.byte	W24
	.byte		EOT   
@ 180   ----------------------------------------
	.byte	PATT
	 .word	Leon_12_164
@ 181   ----------------------------------------
	.byte		TIE   , Cn4 , v088
	.byte	W24
@ 182   ----------------------------------------
	.byte	W24
@ 183   ----------------------------------------
	.byte	W24
@ 184   ----------------------------------------
	.byte	W24
@ 185   ----------------------------------------
	.byte	W24
@ 186   ----------------------------------------
	.byte	W24
@ 187   ----------------------------------------
	.byte	W23
	.byte		EOT   
	.byte	W01
@ 188   ----------------------------------------
	.byte	W16
	.byte	GOTO
	 .word	Leon_12_B1
Leon_12_B2:
	.byte	W07
	.byte	FINE

@******************************************************@
	.align	2

Leon:
	.byte	12	@ NumTrks
	.byte	0	@ NumBlks
	.byte	Leon_pri	@ Priority
	.byte	Leon_rev	@ Reverb.

	.word	Leon_grp

	.word	Leon_1
	.word	Leon_2
	.word	Leon_3
	.word	Leon_4
	.word	Leon_5
	.word	Leon_6
	.word	Leon_7
	.word	Leon_8
	.word	Leon_9
	.word	Leon_10
	.word	Leon_11
	.word	Leon_12

	.end
