//Event file generated from Sappy .s format.
	

	#define	LightningSong_grp  voicegroup000
	#define	LightningSong_pri  0
	#define	LightningSong_rev  0
	#define	LightningSong_mvl  127
	#define	LightningSong_key  0
	#define	LightningSong_tbs  1
	#define	LightningSong_exg  0
	#define	LightningSong_cmp  1

	// .rodata
	//	LightningSong
	ALIGN 4


//**************** Track 1 (Midi-Chn.0) ****************//

LightningSong_001:
//  #01 //000   ----------------------------------------
 BYTE   KEYSH   LightningSong_key+0
Label_012814B6:
 BYTE   TEMPO   92*LightningSong_tbs/2
 BYTE   VOICE   28
 BYTE   VOL   40*LightningSong_mvl/mxv
 BYTE   PAN   c_v+0
 BYTE   VOL   40*LightningSong_mvl/mxv
 BYTE   PAN   c_v+0
 BYTE   N06  An3  v127
 BYTE   W06
 BYTE   En3
 BYTE   W06
 BYTE   An2
 BYTE   W06
 BYTE   An3
 BYTE   W06
 BYTE   Gs3
 BYTE   W06
 BYTE   En3
 BYTE   W06
 BYTE   An2
 BYTE   W06
 BYTE   Gs3
 BYTE   W06
 BYTE   Gn3
 BYTE   W06
 BYTE   En3
 BYTE   W06
 BYTE   An2
 BYTE   W06
 BYTE   Gn3
 BYTE   W06
 BYTE   Fs3
 BYTE   W06
 BYTE   Dn3
 BYTE   W06
 BYTE   An2
 BYTE   W06
 BYTE   Fs3
 BYTE   W06
//  #01 //001   ----------------------------------------
Label_012814E4:
 BYTE   N06  An3  v127
 BYTE   W06
 BYTE   En3
 BYTE   W06
 BYTE   An2
 BYTE   W06
 BYTE   An3
 BYTE   W06
 BYTE   Gs3
 BYTE   W06
 BYTE   En3
 BYTE   W06
 BYTE   An2
 BYTE   W06
 BYTE   Gs3
 BYTE   W06
 BYTE   Gn3
 BYTE   W06
 BYTE   En3
 BYTE   W06
 BYTE   An2
 BYTE   W06
 BYTE   Gn3
 BYTE   W06
 BYTE   Fs3
 BYTE   W06
 BYTE   Dn3
 BYTE   W06
 BYTE   An2
 BYTE   W06
 BYTE   Fs3
 BYTE   W06
 BYTE   PEND 
//  #01 //002   ----------------------------------------
 BYTE   PATT
  POIN2 Label_012814E4
//  #01 //003   ----------------------------------------
 BYTE   PATT
  POIN2 Label_012814E4
//  #01 //004   ----------------------------------------
 BYTE   W96
//  #01 //005   ----------------------------------------
 BYTE   W96
//  #01 //006   ----------------------------------------
 BYTE   W96
//  #01 //007   ----------------------------------------
 BYTE   W96
//  #01 //008   ----------------------------------------
 BYTE   W96
//  #01 //009   ----------------------------------------
 BYTE   W96
//  #01 //010   ----------------------------------------
 BYTE   W96
//  #01 //011   ----------------------------------------
 BYTE   W96
//  #01 //012   ----------------------------------------
 BYTE   W96
//  #01 //013   ----------------------------------------
 BYTE   W96
//  #01 //014   ----------------------------------------
 BYTE   W96
//  #01 //015   ----------------------------------------
 BYTE   W96
//  #01 //016   ----------------------------------------
 BYTE   W96
//  #01 //017   ----------------------------------------
 BYTE   W96
//  #01 //018   ----------------------------------------
 BYTE   W96
//  #01 //019   ----------------------------------------
 BYTE   W96
//  #01 //020   ----------------------------------------
 BYTE   W96
//  #01 //021   ----------------------------------------
 BYTE   W96
//  #01 //022   ----------------------------------------
 BYTE   PATT
  POIN2 Label_012814E4
//  #01 //023   ----------------------------------------
 BYTE   PATT
  POIN2 Label_012814E4
//  #01 //024   ----------------------------------------
 BYTE   PATT
  POIN2 Label_012814E4
//  #01 //025   ----------------------------------------
 BYTE   PATT
  POIN2 Label_012814E4
//  #01 //026   ----------------------------------------
 BYTE   W96
//  #01 //027   ----------------------------------------
 BYTE   W96
//  #01 //028   ----------------------------------------
 BYTE   W96
//  #01 //029   ----------------------------------------
 BYTE   W96
//  #01 //030   ----------------------------------------
 BYTE   W96
//  #01 //031   ----------------------------------------
 BYTE   W96
//  #01 //032   ----------------------------------------
 BYTE   W96
//  #01 //033   ----------------------------------------
 BYTE   W96
//  #01 //034   ----------------------------------------
 BYTE   W96
//  #01 //035   ----------------------------------------
 BYTE   W96
//  #01 //036   ----------------------------------------
 BYTE   W96
//  #01 //037   ----------------------------------------
 BYTE   W96
//  #01 //038   ----------------------------------------
 BYTE   W96
//  #01 //039   ----------------------------------------
 BYTE   W96
//  #01 //040   ----------------------------------------
 BYTE   W96
//  #01 //041   ----------------------------------------
 BYTE   W96
//  #01 //042   ----------------------------------------
 BYTE   W96
//  #01 //043   ----------------------------------------
 BYTE   W96
//  #01 //044   ----------------------------------------
 BYTE   PATT
  POIN2 Label_012814E4
//  #01 //045   ----------------------------------------
 BYTE   PATT
  POIN2 Label_012814E4
//  #01 //046   ----------------------------------------
 BYTE   PATT
  POIN2 Label_012814E4
//  #01 //047   ----------------------------------------
 BYTE   PATT
  POIN2 Label_012814E4
//  #01 //048   ----------------------------------------
 BYTE   W96
//  #01 //049   ----------------------------------------
 BYTE   W96
//  #01 //050   ----------------------------------------
 BYTE   W96
//  #01 //051   ----------------------------------------
 BYTE   W96
//  #01 //052   ----------------------------------------
 BYTE   W96
//  #01 //053   ----------------------------------------
 BYTE   W96
//  #01 //054   ----------------------------------------
 BYTE   W96
//  #01 //055   ----------------------------------------
 BYTE   W96
//  #01 //056   ----------------------------------------
 BYTE   W96
//  #01 //057   ----------------------------------------
 BYTE   W96
//  #01 //058   ----------------------------------------
 BYTE   W96
//  #01 //059   ----------------------------------------
 BYTE   W96
//  #01 //060   ----------------------------------------
 BYTE   W96
//  #01 //061   ----------------------------------------
 BYTE   W96
//  #01 //062   ----------------------------------------
 BYTE   W96
//  #01 //063   ----------------------------------------
 BYTE   W96
//  #01 //064   ----------------------------------------
 BYTE   W96
//  #01 //065   ----------------------------------------
 BYTE   W96
//  #01 //066   ----------------------------------------
 BYTE   PATT
  POIN2 Label_012814E4
//  #01 //067   ----------------------------------------
 BYTE   PATT
  POIN2 Label_012814E4
//  #01 //068   ----------------------------------------
 BYTE   PATT
  POIN2 Label_012814E4
//  #01 //069   ----------------------------------------
 BYTE   PATT
  POIN2 Label_012814E4
//  #01 //070   ----------------------------------------
 BYTE   W96
//  #01 //071   ----------------------------------------
 BYTE   W96
//  #01 //072   ----------------------------------------
 BYTE   W96
//  #01 //073   ----------------------------------------
 BYTE   W96
//  #01 //074   ----------------------------------------
 BYTE   W96
//  #01 //075   ----------------------------------------
 BYTE   W96
//  #01 //076   ----------------------------------------
 BYTE   W96
//  #01 //077   ----------------------------------------
 BYTE   W96
//  #01 //078   ----------------------------------------
 BYTE   W96
//  #01 //079   ----------------------------------------
 BYTE   W96
//  #01 //080   ----------------------------------------
 BYTE   W96
//  #01 //081   ----------------------------------------
 BYTE   W96
//  #01 //082   ----------------------------------------
 BYTE   W96
//  #01 //083   ----------------------------------------
 BYTE   W96
//  #01 //084   ----------------------------------------
 BYTE   W96
//  #01 //085   ----------------------------------------
 BYTE   W96
//  #01 //086   ----------------------------------------
 BYTE   W96
//  #01 //087   ----------------------------------------
 BYTE   W96
//  #01 //088   ----------------------------------------
 BYTE   GoTo
  POIN2 Label_012814B6
 BYTE   FINE

//**************** Track 2 (Midi-Chn.1) ****************//

LightningSong_002:
//  #02 //000   ----------------------------------------
 BYTE   KEYSH   LightningSong_key+0
Label_012819BE:
 BYTE   VOICE   30
 BYTE   VOL   40*LightningSong_mvl/mxv
 BYTE   PAN   c_v+0
 BYTE   N90  En2  v127
 BYTE   N90  An2
 BYTE   W90
 BYTE   N03  En2
 BYTE   N03  An2
 BYTE   W03
 BYTE   En2
 BYTE   N03  An2
 BYTE   W03
//  #02 //001   ----------------------------------------
Label_012819D3:
 BYTE   N90  En2  v127
 BYTE   N90  An2
 BYTE   W90
 BYTE   N03  En2
 BYTE   N03  An2
 BYTE   W03
 BYTE   En2
 BYTE   N03  An2
 BYTE   W03
 BYTE   PEND 
//  #02 //002   ----------------------------------------
 BYTE   PATT
  POIN2 Label_012819D3
//  #02 //003   ----------------------------------------
Label_012819E8:
 BYTE   N72  En2  v127
 BYTE   N72  An2
 BYTE   W72
 BYTE   N12  Dn2
 BYTE   N12  Gn2
 BYTE   W12
 BYTE   Dn2
 BYTE   N12  Gn2
 BYTE   W12
 BYTE   PEND 
//  #02 //004   ----------------------------------------
Label_012819F8:
 BYTE   N06  En2  v127
 BYTE   N06  An2
 BYTE   W06
 BYTE   N03  En1
 BYTE   N03  An1
 BYTE   W03
 BYTE   En1
 BYTE   N03  An1
 BYTE   W03
 BYTE   En1
 BYTE   N03  An1
 BYTE   W03
 BYTE   En1
 BYTE   N03  An1
 BYTE   W03
 BYTE   N06  En2
 BYTE   N06  An2
 BYTE   W06
 BYTE   N03  En1
 BYTE   N03  An1
 BYTE   W03
 BYTE   En1
 BYTE   N03  An1
 BYTE   W03
 BYTE   En1
 BYTE   N03  An1
 BYTE   W03
 BYTE   En1
 BYTE   N03  An1
 BYTE   W03
 BYTE   N06  En2
 BYTE   N06  An2
 BYTE   W06
 BYTE   N03  En1
 BYTE   N03  An1
 BYTE   W03
 BYTE   En1
 BYTE   N03  An1
 BYTE   W03
 BYTE   En1
 BYTE   N03  An1
 BYTE   W03
 BYTE   En1
 BYTE   N03  An1
 BYTE   W03
 BYTE   N06  En2
 BYTE   N06  An2
 BYTE   W06
 BYTE   N03  En1
 BYTE   N03  An1
 BYTE   W03
 BYTE   En1
 BYTE   N03  An1
 BYTE   W03
 BYTE   En1
 BYTE   N03  An1
 BYTE   W03
 BYTE   En1
 BYTE   N03  An1
 BYTE   W03
 BYTE   N06  Dn2
 BYTE   N06  Gn2
 BYTE   W06
 BYTE   N03  Dn1
 BYTE   N03  Gn1
 BYTE   W03
 BYTE   Dn1
 BYTE   N03  Gn1
 BYTE   W03
 BYTE   N06  Dn2
 BYTE   N06  Gn2
 BYTE   W06
 BYTE   N03  Dn1
 BYTE   N03  Gn1
 BYTE   W03
 BYTE   Dn1
 BYTE   N03  Gn1
 BYTE   W03
 BYTE   PEND 
//  #02 //005   ----------------------------------------
Label_01281A6E:
 BYTE   N06  En2  v127
 BYTE   N06  An2
 BYTE   W06
 BYTE   N03  En1
 BYTE   N03  An1
 BYTE   W03
 BYTE   En1
 BYTE   N03  An1
 BYTE   W03
 BYTE   En1
 BYTE   N03  An1
 BYTE   W03
 BYTE   En1
 BYTE   N03  An1
 BYTE   W03
 BYTE   N06  En2
 BYTE   N06  An2
 BYTE   W06
 BYTE   N03  En1
 BYTE   N03  An1
 BYTE   W03
 BYTE   En1
 BYTE   N03  An1
 BYTE   W03
 BYTE   En1
 BYTE   N03  An1
 BYTE   W03
 BYTE   En1
 BYTE   N03  An1
 BYTE   W03
 BYTE   N06  En2
 BYTE   N06  An2
 BYTE   W06
 BYTE   N03  En1
 BYTE   N03  An1
 BYTE   W03
 BYTE   En1
 BYTE   N03  An1
 BYTE   W03
 BYTE   En1
 BYTE   N03  An1
 BYTE   W03
 BYTE   En1
 BYTE   N03  An1
 BYTE   W03
 BYTE   N06  En2
 BYTE   N06  An2
 BYTE   W06
 BYTE   N03  En1
 BYTE   N03  An1
 BYTE   W03
 BYTE   En1
 BYTE   N03  An1
 BYTE   W03
 BYTE   En1
 BYTE   N03  An1
 BYTE   W03
 BYTE   En1
 BYTE   N03  An1
 BYTE   W03
 BYTE   N06  Dn2
 BYTE   N06  Gn2
 BYTE   W06
 BYTE   N03  Dn1
 BYTE   N03  Gn1
 BYTE   W03
 BYTE   Dn1
 BYTE   N03  Gn1
 BYTE   W03
 BYTE   N06  Fs2
 BYTE   N06  Bn2
 BYTE   W06
 BYTE   N03  Fs1
 BYTE   N03  Bn1
 BYTE   W03
 BYTE   Fs1
 BYTE   N03  Bn1
 BYTE   W03
 BYTE   PEND 
//  #02 //006   ----------------------------------------
Label_01281AE4:
 BYTE   N06  En2  v127
 BYTE   N06  An2
 BYTE   W06
 BYTE   N03  En1
 BYTE   N03  An1
 BYTE   W03
 BYTE   En1
 BYTE   N03  An1
 BYTE   W03
 BYTE   En1
 BYTE   N03  An1
 BYTE   W03
 BYTE   En1
 BYTE   N03  An1
 BYTE   W03
 BYTE   N06  En2
 BYTE   N06  An2
 BYTE   W06
 BYTE   N03  En1
 BYTE   N03  An1
 BYTE   W03
 BYTE   En1
 BYTE   N03  An1
 BYTE   W03
 BYTE   En1
 BYTE   N03  An1
 BYTE   W03
 BYTE   En1
 BYTE   N03  An1
 BYTE   W03
 BYTE   N06  En2
 BYTE   N06  An2
 BYTE   W06
 BYTE   N03  En1
 BYTE   N03  An1
 BYTE   W03
 BYTE   En1
 BYTE   N03  An1
 BYTE   W03
 BYTE   En1
 BYTE   N03  An1
 BYTE   W03
 BYTE   En1
 BYTE   N03  An1
 BYTE   W03
 BYTE   N06  En2
 BYTE   N06  An2
 BYTE   W06
 BYTE   N03  En1
 BYTE   N03  An1
 BYTE   W03
 BYTE   En1
 BYTE   N03  An1
 BYTE   W03
 BYTE   En1
 BYTE   N03  An1
 BYTE   W03
 BYTE   En1
 BYTE   N03  An1
 BYTE   W03
 BYTE   N06  Dn2
 BYTE   N06  Gn2
 BYTE   W06
 BYTE   N03  Dn1
 BYTE   N03  Gn1
 BYTE   W03
 BYTE   Dn1
 BYTE   N03  Gn1
 BYTE   W03
 BYTE   N06  Gn2
 BYTE   N06  Cn3
 BYTE   W06
 BYTE   N03  Gn1
 BYTE   N03  Cn2
 BYTE   W03
 BYTE   Gn1
 BYTE   N03  Cn2
 BYTE   W03
 BYTE   PEND 
//  #02 //007   ----------------------------------------
Label_01281B5A:
 BYTE   N06  En2  v127
 BYTE   N06  An2
 BYTE   W06
 BYTE   N03  En1
 BYTE   N03  An1
 BYTE   W03
 BYTE   En1
 BYTE   N03  An1
 BYTE   W03
 BYTE   En1
 BYTE   N03  An1
 BYTE   W03
 BYTE   En1
 BYTE   N03  An1
 BYTE   W03
 BYTE   N06  En2
 BYTE   N06  An2
 BYTE   W06
 BYTE   N03  En1
 BYTE   N03  An1
 BYTE   W03
 BYTE   En1
 BYTE   N03  An1
 BYTE   W03
 BYTE   En1
 BYTE   N03  An1
 BYTE   W03
 BYTE   En1
 BYTE   N03  An1
 BYTE   W03
 BYTE   N06  En2
 BYTE   N06  An2
 BYTE   W06
 BYTE   N03  En1
 BYTE   N03  An1
 BYTE   W03
 BYTE   En1
 BYTE   N03  An1
 BYTE   W03
 BYTE   En1
 BYTE   N03  An1
 BYTE   W03
 BYTE   En1
 BYTE   N03  An1
 BYTE   W03
 BYTE   N06  En2
 BYTE   N06  An2
 BYTE   W06
 BYTE   N03  En1
 BYTE   N03  An1
 BYTE   W03
 BYTE   En1
 BYTE   N03  An1
 BYTE   W03
 BYTE   En1
 BYTE   N03  An1
 BYTE   W03
 BYTE   En1
 BYTE   N03  An1
 BYTE   W03
 BYTE   N06  Cn2
 BYTE   N06  Fn2
 BYTE   W06
 BYTE   N03  Cn1
 BYTE   N03  Fn1
 BYTE   W03
 BYTE   Cn1
 BYTE   N03  Fn1
 BYTE   W03
 BYTE   N06  Dn2
 BYTE   N06  Gn2
 BYTE   W06
 BYTE   N03  Dn1
 BYTE   N03  Gn1
 BYTE   W03
 BYTE   Dn1
 BYTE   N03  Gn1
 BYTE   W03
 BYTE   PEND 
//  #02 //008   ----------------------------------------
Label_01281BD0:
 BYTE   N06  En2  v127
 BYTE   N06  An2
 BYTE   W06
 BYTE   N03  En1
 BYTE   N03  An1
 BYTE   W03
 BYTE   En1
 BYTE   N03  An1
 BYTE   W03
 BYTE   En1
 BYTE   N03  An1
 BYTE   W03
 BYTE   En1
 BYTE   N03  An1
 BYTE   W03
 BYTE   N06  En2
 BYTE   N06  An2
 BYTE   W06
 BYTE   N03  En1
 BYTE   N03  An1
 BYTE   W03
 BYTE   En1
 BYTE   N03  An1
 BYTE   W03
 BYTE   En1
 BYTE   N03  An1
 BYTE   W03
 BYTE   En1
 BYTE   N03  An1
 BYTE   W03
 BYTE   N06  En2
 BYTE   N06  An2
 BYTE   W06
 BYTE   N03  En1
 BYTE   N03  An1
 BYTE   W03
 BYTE   En1
 BYTE   N03  An1
 BYTE   W03
 BYTE   N06  Dn2
 BYTE   N06  Gn2
 BYTE   W06
 BYTE   N03  Dn1
 BYTE   N03  Gn1
 BYTE   W03
 BYTE   Dn1
 BYTE   N03  Gn1
 BYTE   W03
 BYTE   Dn1
 BYTE   N03  Gn1
 BYTE   W03
 BYTE   Dn1
 BYTE   N03  Gn1
 BYTE   W03
 BYTE   N06  Dn2
 BYTE   N06  Gn2
 BYTE   W06
 BYTE   N03  Dn1
 BYTE   N03  Gn1
 BYTE   W03
 BYTE   Dn1
 BYTE   N03  Gn1
 BYTE   W03
 BYTE   Dn1
 BYTE   N03  Gn1
 BYTE   W03
 BYTE   Dn1
 BYTE   N03  Gn1
 BYTE   W03
 BYTE   N06  Dn2
 BYTE   N06  Gn2
 BYTE   W06
 BYTE   N03  Dn1
 BYTE   N03  Gn1
 BYTE   W03
 BYTE   Dn1
 BYTE   N03  Gn1
 BYTE   W03
 BYTE   PEND 
//  #02 //009   ----------------------------------------
Label_01281C46:
 BYTE   N06  Cn2  v127
 BYTE   N06  Fn2
 BYTE   W06
 BYTE   N03  Cn1
 BYTE   N03  Fn1
 BYTE   W03
 BYTE   Cn1
 BYTE   N03  Fn1
 BYTE   W03
 BYTE   Cn1
 BYTE   N03  Fn1
 BYTE   W03
 BYTE   Cn1
 BYTE   N03  Fn1
 BYTE   W03
 BYTE   N06  Cn2
 BYTE   N06  Fn2
 BYTE   W06
 BYTE   N03  Cn1
 BYTE   N03  Fn1
 BYTE   W03
 BYTE   Cn1
 BYTE   N03  Fn1
 BYTE   W03
 BYTE   Cn1
 BYTE   N03  Fn1
 BYTE   W03
 BYTE   Cn1
 BYTE   N03  Fn1
 BYTE   W03
 BYTE   N06  Cn2
 BYTE   N06  Fn2
 BYTE   W06
 BYTE   N03  Cn1
 BYTE   N03  Fn1
 BYTE   W03
 BYTE   Cn1
 BYTE   N03  Fn1
 BYTE   W03
 BYTE   N06  Dn2
 BYTE   N06  Gn2
 BYTE   W06
 BYTE   N03  Dn1
 BYTE   N03  Gn1
 BYTE   W03
 BYTE   Dn1
 BYTE   N03  Gn1
 BYTE   W03
 BYTE   Dn1
 BYTE   N03  Gn1
 BYTE   W03
 BYTE   Dn1
 BYTE   N03  Gn1
 BYTE   W03
 BYTE   N06  Dn2
 BYTE   N06  Gn2
 BYTE   W06
 BYTE   N03  Dn1
 BYTE   N03  Gn1
 BYTE   W03
 BYTE   Dn1
 BYTE   N03  Gn1
 BYTE   W03
 BYTE   Dn1
 BYTE   N03  Gn1
 BYTE   W03
 BYTE   Dn1
 BYTE   N03  Gn1
 BYTE   W03
 BYTE   N06  Dn2
 BYTE   N06  Gn2
 BYTE   W06
 BYTE   N03  Dn1
 BYTE   N03  Gn1
 BYTE   W03
 BYTE   Dn1
 BYTE   N03  Gn1
 BYTE   W03
 BYTE   PEND 
//  #02 //010   ----------------------------------------
 BYTE   PATT
  POIN2 Label_01281BD0
//  #02 //011   ----------------------------------------
Label_01281CC1:
 BYTE   N06  Cn2  v127
 BYTE   N06  Fn2
 BYTE   W06
 BYTE   N03  Cn1
 BYTE   N03  Fn1
 BYTE   W03
 BYTE   Cn1
 BYTE   N03  Fn1
 BYTE   W03
 BYTE   Cn1
 BYTE   N03  Fn1
 BYTE   W03
 BYTE   Cn1
 BYTE   N03  Fn1
 BYTE   W03
 BYTE   N06  Cn2
 BYTE   N06  Fn2
 BYTE   W06
 BYTE   N03  Cn1
 BYTE   N03  Fn1
 BYTE   W03
 BYTE   Cn1
 BYTE   N03  Fn1
 BYTE   W03
 BYTE   Cn1
 BYTE   N03  Fn1
 BYTE   W03
 BYTE   Cn1
 BYTE   N03  Fn1
 BYTE   W03
 BYTE   N06  Cn2
 BYTE   N06  Fn2
 BYTE   W06
 BYTE   N03  Cn1
 BYTE   N03  Fn1
 BYTE   W03
 BYTE   Cn1
 BYTE   N03  Fn1
 BYTE   W03
 BYTE   N06  Bn1
 BYTE   N06  En2
 BYTE   W06
 BYTE   N03  Bn0
 BYTE   N03  En1
 BYTE   W03
 BYTE   Bn0
 BYTE   N03  En1
 BYTE   W03
 BYTE   Bn0
 BYTE   N03  En1
 BYTE   W03
 BYTE   Bn0
 BYTE   N03  En1
 BYTE   W03
 BYTE   N06  Bn1
 BYTE   N06  En2
 BYTE   W06
 BYTE   N03  Bn0
 BYTE   N03  En1
 BYTE   W03
 BYTE   Bn0
 BYTE   N03  En1
 BYTE   W03
 BYTE   Bn0
 BYTE   N03  En1
 BYTE   W03
 BYTE   Bn0
 BYTE   N03  En1
 BYTE   W03
 BYTE   N06  Bn1
 BYTE   N06  En2
 BYTE   W06
 BYTE   N03  Bn0
 BYTE   N03  En1
 BYTE   W03
 BYTE   Bn0
 BYTE   N03  En1
 BYTE   W03
 BYTE   PEND 
//  #02 //012   ----------------------------------------
 BYTE   PATT
  POIN2 Label_01281BD0
//  #02 //013   ----------------------------------------
 BYTE   PATT
  POIN2 Label_01281C46
//  #02 //014   ----------------------------------------
 BYTE   PATT
  POIN2 Label_01281BD0
//  #02 //015   ----------------------------------------
 BYTE   PATT
  POIN2 Label_01281CC1
//  #02 //016   ----------------------------------------
Label_01281D4B:
 BYTE   N30  Gn2  v127
 BYTE   N30  Cn3
 BYTE   W30
 BYTE   N03  Gn2
 BYTE   N03  Cn3
 BYTE   W03
 BYTE   Gn2
 BYTE   N03  Cn3
 BYTE   W03
 BYTE   N12  Gn2
 BYTE   N12  Cn3
 BYTE   W12
 BYTE   N30  Dn2
 BYTE   N30  Gn2
 BYTE   W30
 BYTE   N03  Dn2
 BYTE   N03  Gn2
 BYTE   W03
 BYTE   Dn2
 BYTE   N03  Gn2
 BYTE   W03
 BYTE   N12  Dn2
 BYTE   N12  Gn2
 BYTE   W12
 BYTE   PEND 
//  #02 //017   ----------------------------------------
Label_01281D73:
 BYTE   N30  Ds2  v127
 BYTE   N30  Gs2
 BYTE   W30
 BYTE   N03  Ds2
 BYTE   N03  Gs2
 BYTE   W03
 BYTE   Ds2
 BYTE   N03  Gs2
 BYTE   W03
 BYTE   N12  Ds2
 BYTE   N12  Gs2
 BYTE   W12
 BYTE   N30  Fn2
 BYTE   N30  As2
 BYTE   W30
 BYTE   N03  Fn2
 BYTE   N03  As2
 BYTE   W03
 BYTE   Fn2
 BYTE   N03  As2
 BYTE   W03
 BYTE   N12  Fn2
 BYTE   N12  As2
 BYTE   W12
 BYTE   PEND 
//  #02 //018   ----------------------------------------
 BYTE   PATT
  POIN2 Label_01281D4B
//  #02 //019   ----------------------------------------
Label_01281DA0:
 BYTE   N18  Cn2  v127
 BYTE   N18  Fn2
 BYTE   W18
 BYTE   N24  Ds2
 BYTE   N24  Gs2
 BYTE   W24
 BYTE   N18  Fn2
 BYTE   N18  As2
 BYTE   W18
 BYTE   N12  Fn2
 BYTE   N12  As2
 BYTE   W12
 BYTE   Fn2
 BYTE   N12  As2
 BYTE   W12
 BYTE   Fn2
 BYTE   N12  As2
 BYTE   W12
 BYTE   PEND 
//  #02 //020   ----------------------------------------
Label_01281DBE:
 BYTE   TIE  Gn2  v127
 BYTE   TIE  Cn3
 BYTE   W96
 BYTE   PEND 
//  #02 //021   ----------------------------------------
 BYTE   W72
 BYTE   EOT
 BYTE   Gn2  v060
 BYTE   N12  Cn2
 BYTE   N12  Fn2
 BYTE   W12
 BYTE   Dn2
 BYTE   N12  Gn2
 BYTE   W12
//  #02 //022   ----------------------------------------
 BYTE   PATT
  POIN2 Label_012819D3
//  #02 //023   ----------------------------------------
 BYTE   PATT
  POIN2 Label_012819D3
//  #02 //024   ----------------------------------------
 BYTE   PATT
  POIN2 Label_012819D3
//  #02 //025   ----------------------------------------
 BYTE   PATT
  POIN2 Label_012819E8
//  #02 //026   ----------------------------------------
 BYTE   PATT
  POIN2 Label_01281BD0
//  #02 //027   ----------------------------------------
 BYTE   PATT
  POIN2 Label_01281C46
//  #02 //028   ----------------------------------------
 BYTE   PATT
  POIN2 Label_01281BD0
//  #02 //029   ----------------------------------------
 BYTE   PATT
  POIN2 Label_01281CC1
//  #02 //030   ----------------------------------------
 BYTE   PATT
  POIN2 Label_01281BD0
//  #02 //031   ----------------------------------------
 BYTE   PATT
  POIN2 Label_01281C46
//  #02 //032   ----------------------------------------
 BYTE   PATT
  POIN2 Label_01281BD0
//  #02 //033   ----------------------------------------
 BYTE   PATT
  POIN2 Label_01281CC1
//  #02 //034   ----------------------------------------
 BYTE   PATT
  POIN2 Label_01281D4B
//  #02 //035   ----------------------------------------
 BYTE   PATT
  POIN2 Label_01281D73
//  #02 //036   ----------------------------------------
 BYTE   PATT
  POIN2 Label_01281D4B
//  #02 //037   ----------------------------------------
 BYTE   PATT
  POIN2 Label_01281DA0
//  #02 //038   ----------------------------------------
 BYTE   PATT
  POIN2 Label_01281D4B
//  #02 //039   ----------------------------------------
 BYTE   PATT
  POIN2 Label_01281D73
//  #02 //040   ----------------------------------------
 BYTE   PATT
  POIN2 Label_01281D4B
//  #02 //041   ----------------------------------------
 BYTE   PATT
  POIN2 Label_01281DA0
//  #02 //042   ----------------------------------------
 BYTE   PATT
  POIN2 Label_01281DBE
//  #02 //043   ----------------------------------------
 BYTE   W72
 BYTE   EOT
 BYTE   Gn2  v060
 BYTE   N12  Cn2  v127
 BYTE   N12  Fn2
 BYTE   W12
 BYTE   Dn2
 BYTE   N12  Gn2
 BYTE   W12
//  #02 //044   ----------------------------------------
 BYTE   PATT
  POIN2 Label_012819D3
//  #02 //045   ----------------------------------------
 BYTE   PATT
  POIN2 Label_012819D3
//  #02 //046   ----------------------------------------
 BYTE   PATT
  POIN2 Label_012819D3
//  #02 //047   ----------------------------------------
 BYTE   PATT
  POIN2 Label_012819E8
//  #02 //048   ----------------------------------------
 BYTE   PATT
  POIN2 Label_012819F8
//  #02 //049   ----------------------------------------
 BYTE   PATT
  POIN2 Label_01281A6E
//  #02 //050   ----------------------------------------
 BYTE   PATT
  POIN2 Label_01281AE4
//  #02 //051   ----------------------------------------
 BYTE   PATT
  POIN2 Label_01281B5A
//  #02 //052   ----------------------------------------
 BYTE   PATT
  POIN2 Label_01281BD0
//  #02 //053   ----------------------------------------
 BYTE   PATT
  POIN2 Label_01281C46
//  #02 //054   ----------------------------------------
 BYTE   PATT
  POIN2 Label_01281BD0
//  #02 //055   ----------------------------------------
 BYTE   PATT
  POIN2 Label_01281CC1
//  #02 //056   ----------------------------------------
 BYTE   PATT
  POIN2 Label_01281BD0
//  #02 //057   ----------------------------------------
 BYTE   PATT
  POIN2 Label_01281C46
//  #02 //058   ----------------------------------------
 BYTE   PATT
  POIN2 Label_01281BD0
//  #02 //059   ----------------------------------------
 BYTE   PATT
  POIN2 Label_01281CC1
//  #02 //060   ----------------------------------------
 BYTE   PATT
  POIN2 Label_01281D4B
//  #02 //061   ----------------------------------------
 BYTE   PATT
  POIN2 Label_01281D73
//  #02 //062   ----------------------------------------
 BYTE   PATT
  POIN2 Label_01281D4B
//  #02 //063   ----------------------------------------
 BYTE   PATT
  POIN2 Label_01281DA0
//  #02 //064   ----------------------------------------
 BYTE   PATT
  POIN2 Label_01281DBE
//  #02 //065   ----------------------------------------
 BYTE   W72
 BYTE   EOT
 BYTE   Gn2  v060
 BYTE   N12  Cn2  v127
 BYTE   N12  Fn2
 BYTE   W12
 BYTE   Dn2
 BYTE   N12  Gn2
 BYTE   W12
//  #02 //066   ----------------------------------------
 BYTE   PATT
  POIN2 Label_012819D3
//  #02 //067   ----------------------------------------
 BYTE   PATT
  POIN2 Label_012819D3
//  #02 //068   ----------------------------------------
 BYTE   PATT
  POIN2 Label_012819D3
//  #02 //069   ----------------------------------------
 BYTE   PATT
  POIN2 Label_012819E8
//  #02 //070   ----------------------------------------
 BYTE   PATT
  POIN2 Label_01281BD0
//  #02 //071   ----------------------------------------
 BYTE   PATT
  POIN2 Label_01281C46
//  #02 //072   ----------------------------------------
 BYTE   PATT
  POIN2 Label_01281BD0
//  #02 //073   ----------------------------------------
 BYTE   PATT
  POIN2 Label_01281CC1
//  #02 //074   ----------------------------------------
 BYTE   PATT
  POIN2 Label_01281BD0
//  #02 //075   ----------------------------------------
 BYTE   PATT
  POIN2 Label_01281C46
//  #02 //076   ----------------------------------------
 BYTE   PATT
  POIN2 Label_01281BD0
//  #02 //077   ----------------------------------------
 BYTE   PATT
  POIN2 Label_01281CC1
//  #02 //078   ----------------------------------------
 BYTE   PATT
  POIN2 Label_01281D4B
//  #02 //079   ----------------------------------------
 BYTE   PATT
  POIN2 Label_01281D73
//  #02 //080   ----------------------------------------
 BYTE   PATT
  POIN2 Label_01281D4B
//  #02 //081   ----------------------------------------
 BYTE   PATT
  POIN2 Label_01281DA0
//  #02 //082   ----------------------------------------
 BYTE   PATT
  POIN2 Label_01281D4B
//  #02 //083   ----------------------------------------
 BYTE   PATT
  POIN2 Label_01281D73
//  #02 //084   ----------------------------------------
 BYTE   PATT
  POIN2 Label_01281D4B
//  #02 //085   ----------------------------------------
 BYTE   PATT
  POIN2 Label_01281DA0
//  #02 //086   ----------------------------------------
 BYTE   PATT
  POIN2 Label_01281DBE
//  #02 //087   ----------------------------------------
 BYTE   W72
 BYTE   EOT
 BYTE   Gn2  v060
 BYTE   N12  Cn2  v127
 BYTE   N12  Fn2
 BYTE   W12
 BYTE   Dn2
 BYTE   N12  Gn2
 BYTE   W12
//  #02 //088   ----------------------------------------
 BYTE   GoTo
  POIN2 Label_012819BE
 BYTE   FINE

//**************** Track 3 (Midi-Chn.2) ****************//

LightningSong_003:
//  #03 //000   ----------------------------------------
 BYTE   KEYSH   LightningSong_key+0
Label_0128159E:
 BYTE   VOICE   34
 BYTE   VOL   40*LightningSong_mvl/mxv
 BYTE   PAN   c_v+0
 BYTE   N12  An0  v127
 BYTE   W12
 BYTE   N06
 BYTE   W06
 BYTE   N06
 BYTE   W06
 BYTE   N06
 BYTE   W06
 BYTE   N06
 BYTE   W06
 BYTE   N12
 BYTE   W12
 BYTE   N06
 BYTE   W06
 BYTE   N06
 BYTE   W06
 BYTE   N06
 BYTE   W06
 BYTE   N06
 BYTE   W06
 BYTE   Fn0
 BYTE   W06
 BYTE   An0
 BYTE   W06
 BYTE   En0
 BYTE   W06
 BYTE   An0
 BYTE   W06
//  #03 //001   ----------------------------------------
Label_012815C2:
 BYTE   N12  An0  v127
 BYTE   W12
 BYTE   N06
 BYTE   W06
 BYTE   N06
 BYTE   W06
 BYTE   N06
 BYTE   W06
 BYTE   N06
 BYTE   W06
 BYTE   N12
 BYTE   W12
 BYTE   N06
 BYTE   W06
 BYTE   N06
 BYTE   W06
 BYTE   N06
 BYTE   W06
 BYTE   N06
 BYTE   W06
 BYTE   Fn0
 BYTE   W06
 BYTE   An0
 BYTE   W06
 BYTE   En0
 BYTE   W06
 BYTE   An0
 BYTE   W06
 BYTE   PEND 
//  #03 //002   ----------------------------------------
 BYTE   PATT
  POIN2 Label_012815C2
//  #03 //003   ----------------------------------------
Label_012815E6:
 BYTE   N12  An0  v127
 BYTE   W12
 BYTE   N06
 BYTE   W06
 BYTE   N06
 BYTE   W06
 BYTE   N06
 BYTE   W06
 BYTE   N06
 BYTE   W06
 BYTE   N12
 BYTE   W12
 BYTE   N06
 BYTE   W06
 BYTE   N06
 BYTE   W06
 BYTE   N06
 BYTE   W06
 BYTE   N06
 BYTE   W06
 BYTE   N12  Gn0
 BYTE   W12
 BYTE   N12
 BYTE   W12
 BYTE   PEND 
//  #03 //004   ----------------------------------------
Label_01281602:
 BYTE   N12  An0  v127
 BYTE   W12
 BYTE   N06
 BYTE   W06
 BYTE   N12
 BYTE   W12
 BYTE   N06
 BYTE   W06
 BYTE   N12
 BYTE   W12
 BYTE   N06
 BYTE   W06
 BYTE   N06
 BYTE   W06
 BYTE   N06
 BYTE   W06
 BYTE   N06
 BYTE   W06
 BYTE   N12  Gn0
 BYTE   W12
 BYTE   N12
 BYTE   W12
 BYTE   PEND 
//  #03 //005   ----------------------------------------
Label_0128161C:
 BYTE   N12  An0  v127
 BYTE   W12
 BYTE   N06
 BYTE   W06
 BYTE   N12
 BYTE   W12
 BYTE   N06
 BYTE   W06
 BYTE   N12
 BYTE   W12
 BYTE   N06
 BYTE   W06
 BYTE   N06
 BYTE   W06
 BYTE   N06
 BYTE   W06
 BYTE   N06
 BYTE   W06
 BYTE   N12  Gn0
 BYTE   W12
 BYTE   Bn0
 BYTE   W12
 BYTE   PEND 
//  #03 //006   ----------------------------------------
Label_01281636:
 BYTE   N12  An0  v127
 BYTE   W12
 BYTE   N06
 BYTE   W06
 BYTE   N12
 BYTE   W12
 BYTE   N06
 BYTE   W06
 BYTE   N12
 BYTE   W12
 BYTE   N06
 BYTE   W06
 BYTE   N06
 BYTE   W06
 BYTE   N06
 BYTE   W06
 BYTE   N06
 BYTE   W06
 BYTE   N12  Gn0
 BYTE   W12
 BYTE   Cn1
 BYTE   W12
 BYTE   PEND 
//  #03 //007   ----------------------------------------
Label_01281650:
 BYTE   N12  An0  v127
 BYTE   W12
 BYTE   N06
 BYTE   W06
 BYTE   N12
 BYTE   W12
 BYTE   N06
 BYTE   W06
 BYTE   N12
 BYTE   W12
 BYTE   N06
 BYTE   W06
 BYTE   N06
 BYTE   W06
 BYTE   N06
 BYTE   W06
 BYTE   N06
 BYTE   W06
 BYTE   N12  Fn0
 BYTE   W12
 BYTE   Gn0
 BYTE   W12
 BYTE   PEND 
//  #03 //008   ----------------------------------------
Label_0128166A:
 BYTE   N12  An0  v127
 BYTE   W12
 BYTE   N06
 BYTE   W06
 BYTE   N12
 BYTE   W12
 BYTE   N06
 BYTE   W06
 BYTE   N12
 BYTE   W12
 BYTE   Gn0
 BYTE   W12
 BYTE   N06
 BYTE   W06
 BYTE   N12
 BYTE   W12
 BYTE   N06
 BYTE   W06
 BYTE   N12
 BYTE   W12
 BYTE   PEND 
//  #03 //009   ----------------------------------------
Label_01281681:
 BYTE   N12  Fn0  v127
 BYTE   W12
 BYTE   N06
 BYTE   W06
 BYTE   N12
 BYTE   W12
 BYTE   N06
 BYTE   W06
 BYTE   N12
 BYTE   W12
 BYTE   Gn0
 BYTE   W12
 BYTE   N06
 BYTE   W06
 BYTE   N12
 BYTE   W12
 BYTE   N06
 BYTE   W06
 BYTE   N12
 BYTE   W12
 BYTE   PEND 
//  #03 //010   ----------------------------------------
 BYTE   PATT
  POIN2 Label_0128166A
//  #03 //011   ----------------------------------------
Label_0128169D:
 BYTE   N12  Fn0  v127
 BYTE   W12
 BYTE   N06
 BYTE   W06
 BYTE   N12
 BYTE   W12
 BYTE   N06
 BYTE   W06
 BYTE   N12
 BYTE   W12
 BYTE   En0
 BYTE   W12
 BYTE   N06
 BYTE   W06
 BYTE   N12
 BYTE   W12
 BYTE   N06
 BYTE   W06
 BYTE   N12
 BYTE   W12
 BYTE   PEND 
//  #03 //012   ----------------------------------------
 BYTE   PATT
  POIN2 Label_0128166A
//  #03 //013   ----------------------------------------
 BYTE   PATT
  POIN2 Label_01281681
//  #03 //014   ----------------------------------------
 BYTE   PATT
  POIN2 Label_0128166A
//  #03 //015   ----------------------------------------
 BYTE   PATT
  POIN2 Label_0128169D
//  #03 //016   ----------------------------------------
Label_012816C8:
 BYTE   N12  Cn1  v127
 BYTE   W12
 BYTE   N06
 BYTE   W06
 BYTE   N12
 BYTE   W12
 BYTE   N06
 BYTE   W06
 BYTE   N12
 BYTE   W12
 BYTE   Gn0
 BYTE   W12
 BYTE   N06
 BYTE   W06
 BYTE   N12
 BYTE   W12
 BYTE   N06
 BYTE   W06
 BYTE   N12
 BYTE   W12
 BYTE   PEND 
//  #03 //017   ----------------------------------------
Label_012816DF:
 BYTE   N12  Gs0  v127
 BYTE   W12
 BYTE   N06
 BYTE   W06
 BYTE   N12
 BYTE   W12
 BYTE   N06
 BYTE   W06
 BYTE   N12
 BYTE   W12
 BYTE   As0
 BYTE   W12
 BYTE   N06
 BYTE   W06
 BYTE   N12
 BYTE   W12
 BYTE   N06
 BYTE   W06
 BYTE   N12
 BYTE   W12
 BYTE   PEND 
//  #03 //018   ----------------------------------------
 BYTE   PATT
  POIN2 Label_012816C8
//  #03 //019   ----------------------------------------
Label_012816FB:
 BYTE   N12  Fn0  v127
 BYTE   W12
 BYTE   N06
 BYTE   W06
 BYTE   N12  Gs0
 BYTE   W12
 BYTE   N06
 BYTE   W06
 BYTE   N06
 BYTE   W06
 BYTE   N12  As0
 BYTE   W12
 BYTE   N06
 BYTE   W06
 BYTE   N12
 BYTE   W12
 BYTE   N12
 BYTE   W12
 BYTE   N12
 BYTE   W12
 BYTE   PEND 
//  #03 //020   ----------------------------------------
Label_01281714:
 BYTE   N06  Cn1  v127
 BYTE   W06
 BYTE   N06
 BYTE   W06
 BYTE   N06
 BYTE   W06
 BYTE   N06
 BYTE   W06
 BYTE   N06
 BYTE   W06
 BYTE   N06
 BYTE   W06
 BYTE   N06
 BYTE   W06
 BYTE   N06
 BYTE   W06
 BYTE   N06
 BYTE   W06
 BYTE   N06
 BYTE   W06
 BYTE   N06
 BYTE   W06
 BYTE   N06
 BYTE   W06
 BYTE   N06
 BYTE   W06
 BYTE   N06
 BYTE   W06
 BYTE   N06
 BYTE   W06
 BYTE   N06
 BYTE   W06
 BYTE   PEND 
//  #03 //021   ----------------------------------------
Label_01281737:
 BYTE   N06  Cn1  v127
 BYTE   W06
 BYTE   N06
 BYTE   W06
 BYTE   N06
 BYTE   W06
 BYTE   N06
 BYTE   W06
 BYTE   N06
 BYTE   W06
 BYTE   N06
 BYTE   W06
 BYTE   N06
 BYTE   W06
 BYTE   N06
 BYTE   W06
 BYTE   N06
 BYTE   W06
 BYTE   N06
 BYTE   W06
 BYTE   N06
 BYTE   W06
 BYTE   N06
 BYTE   W06
 BYTE   Fn0
 BYTE   W06
 BYTE   N06
 BYTE   W06
 BYTE   Gn0
 BYTE   W06
 BYTE   N06
 BYTE   W06
 BYTE   PEND 
//  #03 //022   ----------------------------------------
 BYTE   PATT
  POIN2 Label_012815C2
//  #03 //023   ----------------------------------------
 BYTE   PATT
  POIN2 Label_012815C2
//  #03 //024   ----------------------------------------
 BYTE   PATT
  POIN2 Label_012815C2
//  #03 //025   ----------------------------------------
 BYTE   PATT
  POIN2 Label_012815E6
//  #03 //026   ----------------------------------------
 BYTE   PATT
  POIN2 Label_0128166A
//  #03 //027   ----------------------------------------
 BYTE   PATT
  POIN2 Label_01281681
//  #03 //028   ----------------------------------------
 BYTE   PATT
  POIN2 Label_0128166A
//  #03 //029   ----------------------------------------
 BYTE   PATT
  POIN2 Label_0128169D
//  #03 //030   ----------------------------------------
 BYTE   PATT
  POIN2 Label_0128166A
//  #03 //031   ----------------------------------------
 BYTE   PATT
  POIN2 Label_01281681
//  #03 //032   ----------------------------------------
 BYTE   PATT
  POIN2 Label_0128166A
//  #03 //033   ----------------------------------------
 BYTE   PATT
  POIN2 Label_0128169D
//  #03 //034   ----------------------------------------
 BYTE   PATT
  POIN2 Label_012816C8
//  #03 //035   ----------------------------------------
 BYTE   PATT
  POIN2 Label_012816DF
//  #03 //036   ----------------------------------------
 BYTE   PATT
  POIN2 Label_012816C8
//  #03 //037   ----------------------------------------
 BYTE   PATT
  POIN2 Label_012816FB
//  #03 //038   ----------------------------------------
 BYTE   PATT
  POIN2 Label_012816C8
//  #03 //039   ----------------------------------------
 BYTE   PATT
  POIN2 Label_012816DF
//  #03 //040   ----------------------------------------
 BYTE   PATT
  POIN2 Label_012816C8
//  #03 //041   ----------------------------------------
 BYTE   PATT
  POIN2 Label_012816FB
//  #03 //042   ----------------------------------------
 BYTE   PATT
  POIN2 Label_01281714
//  #03 //043   ----------------------------------------
 BYTE   PATT
  POIN2 Label_01281737
//  #03 //044   ----------------------------------------
 BYTE   PATT
  POIN2 Label_012815C2
//  #03 //045   ----------------------------------------
 BYTE   PATT
  POIN2 Label_012815C2
//  #03 //046   ----------------------------------------
 BYTE   PATT
  POIN2 Label_012815C2
//  #03 //047   ----------------------------------------
 BYTE   PATT
  POIN2 Label_012815E6
//  #03 //048   ----------------------------------------
 BYTE   PATT
  POIN2 Label_01281602
//  #03 //049   ----------------------------------------
 BYTE   PATT
  POIN2 Label_0128161C
//  #03 //050   ----------------------------------------
 BYTE   PATT
  POIN2 Label_01281636
//  #03 //051   ----------------------------------------
 BYTE   PATT
  POIN2 Label_01281650
//  #03 //052   ----------------------------------------
 BYTE   PATT
  POIN2 Label_0128166A
//  #03 //053   ----------------------------------------
 BYTE   PATT
  POIN2 Label_01281681
//  #03 //054   ----------------------------------------
 BYTE   PATT
  POIN2 Label_0128166A
//  #03 //055   ----------------------------------------
 BYTE   PATT
  POIN2 Label_0128169D
//  #03 //056   ----------------------------------------
 BYTE   PATT
  POIN2 Label_0128166A
//  #03 //057   ----------------------------------------
 BYTE   PATT
  POIN2 Label_01281681
//  #03 //058   ----------------------------------------
 BYTE   PATT
  POIN2 Label_0128166A
//  #03 //059   ----------------------------------------
 BYTE   PATT
  POIN2 Label_0128169D
//  #03 //060   ----------------------------------------
 BYTE   PATT
  POIN2 Label_012816C8
//  #03 //061   ----------------------------------------
 BYTE   PATT
  POIN2 Label_012816DF
//  #03 //062   ----------------------------------------
 BYTE   PATT
  POIN2 Label_012816C8
//  #03 //063   ----------------------------------------
 BYTE   PATT
  POIN2 Label_012816FB
//  #03 //064   ----------------------------------------
 BYTE   PATT
  POIN2 Label_01281714
//  #03 //065   ----------------------------------------
 BYTE   PATT
  POIN2 Label_01281737
//  #03 //066   ----------------------------------------
 BYTE   PATT
  POIN2 Label_012815C2
//  #03 //067   ----------------------------------------
 BYTE   PATT
  POIN2 Label_012815C2
//  #03 //068   ----------------------------------------
 BYTE   PATT
  POIN2 Label_012815C2
//  #03 //069   ----------------------------------------
 BYTE   PATT
  POIN2 Label_012815E6
//  #03 //070   ----------------------------------------
 BYTE   PATT
  POIN2 Label_0128166A
//  #03 //071   ----------------------------------------
 BYTE   PATT
  POIN2 Label_01281681
//  #03 //072   ----------------------------------------
 BYTE   PATT
  POIN2 Label_0128166A
//  #03 //073   ----------------------------------------
 BYTE   PATT
  POIN2 Label_0128169D
//  #03 //074   ----------------------------------------
 BYTE   PATT
  POIN2 Label_0128166A
//  #03 //075   ----------------------------------------
 BYTE   PATT
  POIN2 Label_01281681
//  #03 //076   ----------------------------------------
 BYTE   PATT
  POIN2 Label_0128166A
//  #03 //077   ----------------------------------------
 BYTE   PATT
  POIN2 Label_0128169D
//  #03 //078   ----------------------------------------
 BYTE   PATT
  POIN2 Label_012816C8
//  #03 //079   ----------------------------------------
 BYTE   PATT
  POIN2 Label_012816DF
//  #03 //080   ----------------------------------------
 BYTE   PATT
  POIN2 Label_012816C8
//  #03 //081   ----------------------------------------
 BYTE   PATT
  POIN2 Label_012816FB
//  #03 //082   ----------------------------------------
 BYTE   PATT
  POIN2 Label_012816C8
//  #03 //083   ----------------------------------------
 BYTE   PATT
  POIN2 Label_012816DF
//  #03 //084   ----------------------------------------
 BYTE   PATT
  POIN2 Label_012816C8
//  #03 //085   ----------------------------------------
 BYTE   PATT
  POIN2 Label_012816FB
//  #03 //086   ----------------------------------------
 BYTE   PATT
  POIN2 Label_01281714
//  #03 //087   ----------------------------------------
 BYTE   PATT
  POIN2 Label_01281737
//  #03 //088   ----------------------------------------
 BYTE   GoTo
  POIN2 Label_0128159E
 BYTE   FINE

//**************** Track 4 (Midi-Chn.3) ****************//

LightningSong_004:
//  #04 //000   ----------------------------------------
 BYTE   KEYSH   LightningSong_key+0
Label_012818AE:
 BYTE   VOICE   52
 BYTE   VOL   40*LightningSong_mvl/mxv
 BYTE   PAN   c_v+0
 BYTE   N24  An2  v127
 BYTE   N24  An3
 BYTE   W96
//  #04 //001   ----------------------------------------
 BYTE   W96
//  #04 //002   ----------------------------------------
 BYTE   W96
//  #04 //003   ----------------------------------------
Label_012818BC:
 BYTE   W72
 BYTE   N12  Gn2  v127
 BYTE   N12  Gn3
 BYTE   W12
 BYTE   Gn2
 BYTE   N12  Gn3
 BYTE   W12
 BYTE   PEND 
//  #04 //004   ----------------------------------------
Label_012818C8:
 BYTE   N24  An2  v127
 BYTE   N24  An3
 BYTE   W72
 BYTE   N12  Gn2
 BYTE   N12  Gn3
 BYTE   W12
 BYTE   Gn2
 BYTE   N12  Gn3
 BYTE   W12
 BYTE   PEND 
//  #04 //005   ----------------------------------------
Label_012818D8:
 BYTE   N24  An2  v127
 BYTE   N24  An3
 BYTE   W72
 BYTE   N12  Gn2
 BYTE   N12  Gn3
 BYTE   W12
 BYTE   Bn2
 BYTE   N12  Bn3
 BYTE   W12
 BYTE   PEND 
//  #04 //006   ----------------------------------------
Label_012818E8:
 BYTE   N24  An2  v127
 BYTE   N24  An3
 BYTE   W72
 BYTE   N12  Gn2
 BYTE   N12  Gn3
 BYTE   W12
 BYTE   Cn3
 BYTE   N12  Cn4
 BYTE   W12
 BYTE   PEND 
//  #04 //007   ----------------------------------------
Label_012818F8:
 BYTE   N24  An2  v127
 BYTE   N24  An3
 BYTE   W72
 BYTE   N12  Fn2
 BYTE   N12  Fn3
 BYTE   W12
 BYTE   Gn2
 BYTE   N12  Gn3
 BYTE   W12
 BYTE   PEND 
//  #04 //008   ----------------------------------------
 BYTE   W96
//  #04 //009   ----------------------------------------
 BYTE   W96
//  #04 //010   ----------------------------------------
 BYTE   W96
//  #04 //011   ----------------------------------------
 BYTE   W96
//  #04 //012   ----------------------------------------
 BYTE   W96
//  #04 //013   ----------------------------------------
 BYTE   W96
//  #04 //014   ----------------------------------------
 BYTE   W96
//  #04 //015   ----------------------------------------
 BYTE   W96
//  #04 //016   ----------------------------------------
 BYTE   W96
//  #04 //017   ----------------------------------------
 BYTE   W96
//  #04 //018   ----------------------------------------
 BYTE   W96
//  #04 //019   ----------------------------------------
 BYTE   W96
//  #04 //020   ----------------------------------------
 BYTE   W96
//  #04 //021   ----------------------------------------
Label_01281915:
 BYTE   W72
 BYTE   N12  Fn2  v127
 BYTE   N12  Fn3
 BYTE   W12
 BYTE   Gn2
 BYTE   N12  Gn3
 BYTE   W12
 BYTE   PEND 
//  #04 //022   ----------------------------------------
 BYTE   N24  An2
 BYTE   N24  An3
 BYTE   W96
//  #04 //023   ----------------------------------------
 BYTE   W96
//  #04 //024   ----------------------------------------
 BYTE   W96
//  #04 //025   ----------------------------------------
 BYTE   PATT
  POIN2 Label_012818BC
//  #04 //026   ----------------------------------------
 BYTE   W96
//  #04 //027   ----------------------------------------
 BYTE   W96
//  #04 //028   ----------------------------------------
 BYTE   W96
//  #04 //029   ----------------------------------------
 BYTE   W96
//  #04 //030   ----------------------------------------
 BYTE   W96
//  #04 //031   ----------------------------------------
 BYTE   W96
//  #04 //032   ----------------------------------------
 BYTE   W96
//  #04 //033   ----------------------------------------
 BYTE   W96
//  #04 //034   ----------------------------------------
 BYTE   W96
//  #04 //035   ----------------------------------------
 BYTE   W96
//  #04 //036   ----------------------------------------
 BYTE   W96
//  #04 //037   ----------------------------------------
 BYTE   W96
//  #04 //038   ----------------------------------------
 BYTE   W96
//  #04 //039   ----------------------------------------
 BYTE   W96
//  #04 //040   ----------------------------------------
 BYTE   W96
//  #04 //041   ----------------------------------------
 BYTE   W96
//  #04 //042   ----------------------------------------
 BYTE   W96
//  #04 //043   ----------------------------------------
 BYTE   PATT
  POIN2 Label_01281915
//  #04 //044   ----------------------------------------
 BYTE   N24  An2  v127
 BYTE   N24  An3
 BYTE   W96
//  #04 //045   ----------------------------------------
 BYTE   W96
//  #04 //046   ----------------------------------------
 BYTE   W96
//  #04 //047   ----------------------------------------
 BYTE   PATT
  POIN2 Label_012818BC
//  #04 //048   ----------------------------------------
 BYTE   PATT
  POIN2 Label_012818C8
//  #04 //049   ----------------------------------------
 BYTE   PATT
  POIN2 Label_012818D8
//  #04 //050   ----------------------------------------
 BYTE   PATT
  POIN2 Label_012818E8
//  #04 //051   ----------------------------------------
 BYTE   PATT
  POIN2 Label_012818F8
//  #04 //052   ----------------------------------------
 BYTE   W96
//  #04 //053   ----------------------------------------
 BYTE   W96
//  #04 //054   ----------------------------------------
 BYTE   W96
//  #04 //055   ----------------------------------------
 BYTE   W96
//  #04 //056   ----------------------------------------
 BYTE   W96
//  #04 //057   ----------------------------------------
 BYTE   W96
//  #04 //058   ----------------------------------------
 BYTE   W96
//  #04 //059   ----------------------------------------
 BYTE   W96
//  #04 //060   ----------------------------------------
 BYTE   W96
//  #04 //061   ----------------------------------------
 BYTE   W96
//  #04 //062   ----------------------------------------
 BYTE   W96
//  #04 //063   ----------------------------------------
 BYTE   W96
//  #04 //064   ----------------------------------------
 BYTE   W96
//  #04 //065   ----------------------------------------
 BYTE   PATT
  POIN2 Label_01281915
//  #04 //066   ----------------------------------------
 BYTE   N24  An2  v127
 BYTE   N24  An3
 BYTE   W96
//  #04 //067   ----------------------------------------
 BYTE   W96
//  #04 //068   ----------------------------------------
 BYTE   W96
//  #04 //069   ----------------------------------------
 BYTE   PATT
  POIN2 Label_012818BC
//  #04 //070   ----------------------------------------
 BYTE   W96
//  #04 //071   ----------------------------------------
 BYTE   W96
//  #04 //072   ----------------------------------------
 BYTE   W96
//  #04 //073   ----------------------------------------
 BYTE   W96
//  #04 //074   ----------------------------------------
 BYTE   W96
//  #04 //075   ----------------------------------------
 BYTE   W96
//  #04 //076   ----------------------------------------
 BYTE   W96
//  #04 //077   ----------------------------------------
 BYTE   W96
//  #04 //078   ----------------------------------------
 BYTE   W96
//  #04 //079   ----------------------------------------
 BYTE   W96
//  #04 //080   ----------------------------------------
 BYTE   W96
//  #04 //081   ----------------------------------------
 BYTE   W96
//  #04 //082   ----------------------------------------
 BYTE   W96
//  #04 //083   ----------------------------------------
 BYTE   W96
//  #04 //084   ----------------------------------------
 BYTE   W96
//  #04 //085   ----------------------------------------
 BYTE   W96
//  #04 //086   ----------------------------------------
 BYTE   W96
//  #04 //087   ----------------------------------------
 BYTE   PATT
  POIN2 Label_01281915
//  #04 //088   ----------------------------------------
 BYTE   GoTo
  POIN2 Label_012818AE
 BYTE   FINE

//**************** Track 5 (Midi-Chn.4) ****************//

LightningSong_005:
//  #05 //000   ----------------------------------------
 BYTE   KEYSH   LightningSong_key+0
Label_01281F42:
 BYTE   VOICE   28
 BYTE   VOL   40*LightningSong_mvl/mxv
 BYTE   PAN   c_v+0
 BYTE   W03
 BYTE   N06  An3  v076
 BYTE   W06
 BYTE   En3
 BYTE   W06
 BYTE   An2
 BYTE   W06
 BYTE   An3
 BYTE   W06
 BYTE   Gs3
 BYTE   W06
 BYTE   En3
 BYTE   W06
 BYTE   An2
 BYTE   W06
 BYTE   Gs3
 BYTE   W06
 BYTE   Gn3
 BYTE   W06
 BYTE   En3
 BYTE   W06
 BYTE   An2
 BYTE   W06
 BYTE   Gn3
 BYTE   W06
 BYTE   Fs3
 BYTE   W06
 BYTE   Dn3
 BYTE   W06
 BYTE   An2
 BYTE   W06
 BYTE   Fs3
 BYTE   W03
//  #05 //001   ----------------------------------------
Label_01281F6B:
 BYTE   W03
 BYTE   N06  An3  v076
 BYTE   W06
 BYTE   En3
 BYTE   W06
 BYTE   An2
 BYTE   W06
 BYTE   An3
 BYTE   W06
 BYTE   Gs3
 BYTE   W06
 BYTE   En3
 BYTE   W06
 BYTE   An2
 BYTE   W06
 BYTE   Gs3
 BYTE   W06
 BYTE   Gn3
 BYTE   W06
 BYTE   En3
 BYTE   W06
 BYTE   An2
 BYTE   W06
 BYTE   Gn3
 BYTE   W06
 BYTE   Fs3
 BYTE   W06
 BYTE   Dn3
 BYTE   W06
 BYTE   An2
 BYTE   W06
 BYTE   Fs3
 BYTE   W03
 BYTE   PEND 
//  #05 //002   ----------------------------------------
 BYTE   PATT
  POIN2 Label_01281F6B
//  #05 //003   ----------------------------------------
Label_01281F94:
 BYTE   W03
 BYTE   N06  An3  v076
 BYTE   W06
 BYTE   En3
 BYTE   W06
 BYTE   An2
 BYTE   W06
 BYTE   An3
 BYTE   W06
 BYTE   Gs3
 BYTE   W06
 BYTE   En3
 BYTE   W06
 BYTE   An2
 BYTE   W06
 BYTE   Gs3
 BYTE   W06
 BYTE   Gn3
 BYTE   W06
 BYTE   En3
 BYTE   W06
 BYTE   An2
 BYTE   W06
 BYTE   Gn3
 BYTE   W06
 BYTE   Fs3
 BYTE   W06
 BYTE   Dn3
 BYTE   W06
 BYTE   An2
 BYTE   W06
 BYTE   N24  Fs3
 BYTE   W03
 BYTE   PEND 
//  #05 //004   ----------------------------------------
 BYTE   W96
//  #05 //005   ----------------------------------------
 BYTE   W96
//  #05 //006   ----------------------------------------
 BYTE   W96
//  #05 //007   ----------------------------------------
 BYTE   W96
//  #05 //008   ----------------------------------------
 BYTE   W96
//  #05 //009   ----------------------------------------
 BYTE   W96
//  #05 //010   ----------------------------------------
 BYTE   W96
//  #05 //011   ----------------------------------------
 BYTE   W96
//  #05 //012   ----------------------------------------
 BYTE   W96
//  #05 //013   ----------------------------------------
 BYTE   W96
//  #05 //014   ----------------------------------------
 BYTE   W96
//  #05 //015   ----------------------------------------
 BYTE   W96
//  #05 //016   ----------------------------------------
 BYTE   W96
//  #05 //017   ----------------------------------------
 BYTE   W96
//  #05 //018   ----------------------------------------
 BYTE   W96
//  #05 //019   ----------------------------------------
 BYTE   W96
//  #05 //020   ----------------------------------------
 BYTE   W96
//  #05 //021   ----------------------------------------
 BYTE   W96
//  #05 //022   ----------------------------------------
 BYTE   PATT
  POIN2 Label_01281F6B
//  #05 //023   ----------------------------------------
 BYTE   PATT
  POIN2 Label_01281F6B
//  #05 //024   ----------------------------------------
 BYTE   PATT
  POIN2 Label_01281F6B
//  #05 //025   ----------------------------------------
 BYTE   PATT
  POIN2 Label_01281F94
//  #05 //026   ----------------------------------------
 BYTE   W96
//  #05 //027   ----------------------------------------
 BYTE   W96
//  #05 //028   ----------------------------------------
 BYTE   W96
//  #05 //029   ----------------------------------------
 BYTE   W96
//  #05 //030   ----------------------------------------
 BYTE   W96
//  #05 //031   ----------------------------------------
 BYTE   W96
//  #05 //032   ----------------------------------------
 BYTE   W96
//  #05 //033   ----------------------------------------
 BYTE   W96
//  #05 //034   ----------------------------------------
 BYTE   W96
//  #05 //035   ----------------------------------------
 BYTE   W96
//  #05 //036   ----------------------------------------
 BYTE   W96
//  #05 //037   ----------------------------------------
 BYTE   W96
//  #05 //038   ----------------------------------------
 BYTE   W96
//  #05 //039   ----------------------------------------
 BYTE   W96
//  #05 //040   ----------------------------------------
 BYTE   W96
//  #05 //041   ----------------------------------------
 BYTE   W96
//  #05 //042   ----------------------------------------
 BYTE   W96
//  #05 //043   ----------------------------------------
 BYTE   W96
//  #05 //044   ----------------------------------------
 BYTE   PATT
  POIN2 Label_01281F6B
//  #05 //045   ----------------------------------------
 BYTE   PATT
  POIN2 Label_01281F6B
//  #05 //046   ----------------------------------------
 BYTE   PATT
  POIN2 Label_01281F6B
//  #05 //047   ----------------------------------------
 BYTE   PATT
  POIN2 Label_01281F94
//  #05 //048   ----------------------------------------
 BYTE   W96
//  #05 //049   ----------------------------------------
 BYTE   W96
//  #05 //050   ----------------------------------------
 BYTE   W96
//  #05 //051   ----------------------------------------
 BYTE   W96
//  #05 //052   ----------------------------------------
 BYTE   W96
//  #05 //053   ----------------------------------------
 BYTE   W96
//  #05 //054   ----------------------------------------
 BYTE   W96
//  #05 //055   ----------------------------------------
 BYTE   W96
//  #05 //056   ----------------------------------------
 BYTE   W96
//  #05 //057   ----------------------------------------
 BYTE   W96
//  #05 //058   ----------------------------------------
 BYTE   W96
//  #05 //059   ----------------------------------------
 BYTE   W96
//  #05 //060   ----------------------------------------
 BYTE   W96
//  #05 //061   ----------------------------------------
 BYTE   W96
//  #05 //062   ----------------------------------------
 BYTE   W96
//  #05 //063   ----------------------------------------
 BYTE   W96
//  #05 //064   ----------------------------------------
 BYTE   W96
//  #05 //065   ----------------------------------------
 BYTE   W96
//  #05 //066   ----------------------------------------
 BYTE   PATT
  POIN2 Label_01281F6B
//  #05 //067   ----------------------------------------
 BYTE   PATT
  POIN2 Label_01281F6B
//  #05 //068   ----------------------------------------
 BYTE   PATT
  POIN2 Label_01281F6B
//  #05 //069   ----------------------------------------
 BYTE   PATT
  POIN2 Label_01281F94
//  #05 //070   ----------------------------------------
 BYTE   W96
//  #05 //071   ----------------------------------------
 BYTE   W96
//  #05 //072   ----------------------------------------
 BYTE   W96
//  #05 //073   ----------------------------------------
 BYTE   W96
//  #05 //074   ----------------------------------------
 BYTE   W96
//  #05 //075   ----------------------------------------
 BYTE   W96
//  #05 //076   ----------------------------------------
 BYTE   W96
//  #05 //077   ----------------------------------------
 BYTE   W96
//  #05 //078   ----------------------------------------
 BYTE   W96
//  #05 //079   ----------------------------------------
 BYTE   W96
//  #05 //080   ----------------------------------------
 BYTE   W96
//  #05 //081   ----------------------------------------
 BYTE   W96
//  #05 //082   ----------------------------------------
 BYTE   W96
//  #05 //083   ----------------------------------------
 BYTE   W96
//  #05 //084   ----------------------------------------
 BYTE   W96
//  #05 //085   ----------------------------------------
 BYTE   W96
//  #05 //086   ----------------------------------------
 BYTE   W96
//  #05 //087   ----------------------------------------
 BYTE   W96
//  #05 //088   ----------------------------------------
 BYTE   GoTo
  POIN2 Label_01281F42
 BYTE   FINE

//**************** Track 6 (Midi-Chn.5) ****************//

LightningSong_006:
//  #06 //000   ----------------------------------------
 BYTE   KEYSH   LightningSong_key+0
Label_0127F40E:
 BYTE   VOICE   29
 BYTE   VOL   40*LightningSong_mvl/mxv
 BYTE   PAN   c_v+0
 BYTE   VOL   40*LightningSong_mvl/mxv
 BYTE   W96
//  #06 //001   ----------------------------------------
 BYTE   W96
//  #06 //002   ----------------------------------------
 BYTE   W96
//  #06 //003   ----------------------------------------
 BYTE   W96
//  #06 //004   ----------------------------------------
 BYTE   W96
//  #06 //005   ----------------------------------------
 BYTE   W96
//  #06 //006   ----------------------------------------
 BYTE   W96
//  #06 //007   ----------------------------------------
Label_0127F41D:
 BYTE   W84
 BYTE   N03  En3  v127
 BYTE   W03
 BYTE   Fn3
 BYTE   W03
 BYTE   Gn3
 BYTE   W03
 BYTE   Gs3
 BYTE   W03
 BYTE   PEND 
//  #06 //008   ----------------------------------------
Label_0127F429:
 BYTE   N06  An3  v127
 BYTE   W06
 BYTE   En3
 BYTE   W12
 BYTE   N03  An2
 BYTE   W03
 BYTE   En3
 BYTE   W03
 BYTE   N06  An3
 BYTE   W06
 BYTE   Cn4
 BYTE   W06
 BYTE   Bn3
 BYTE   W06
 BYTE   An3
 BYTE   W06
 BYTE   Bn3
 BYTE   W06
 BYTE   Gn3
 BYTE   W12
 BYTE   N03  Dn3
 BYTE   W03
 BYTE   Gn3
 BYTE   W03
 BYTE   N06  Bn3
 BYTE   W06
 BYTE   Dn4
 BYTE   W06
 BYTE   Cn4
 BYTE   W06
 BYTE   Bn3
 BYTE   W06
 BYTE   PEND 
//  #06 //009   ----------------------------------------
Label_0127F450:
 BYTE   N06  Cn4  v127
 BYTE   W06
 BYTE   An3
 BYTE   W12
 BYTE   N03  En3
 BYTE   W03
 BYTE   An3
 BYTE   W03
 BYTE   N06  Cn4
 BYTE   W06
 BYTE   En4
 BYTE   W06
 BYTE   Dn4
 BYTE   W06
 BYTE   Cn4
 BYTE   W06
 BYTE   Dn4
 BYTE   W06
 BYTE   Bn3
 BYTE   W06
 BYTE   Dn4
 BYTE   W06
 BYTE   Fn4
 BYTE   W06
 BYTE   En4
 BYTE   W06
 BYTE   Dn4
 BYTE   W06
 BYTE   Cn4
 BYTE   W06
 BYTE   Bn3
 BYTE   W06
 BYTE   PEND 
//  #06 //010   ----------------------------------------
 BYTE   PATT
  POIN2 Label_0127F429
//  #06 //011   ----------------------------------------
Label_0127F47A:
 BYTE   N06  Cn4  v127
 BYTE   W06
 BYTE   An3
 BYTE   W12
 BYTE   N03  En3
 BYTE   W03
 BYTE   An3
 BYTE   W03
 BYTE   N06  Cn4
 BYTE   W06
 BYTE   En4
 BYTE   W06
 BYTE   Dn4
 BYTE   W06
 BYTE   Cn4
 BYTE   W06
 BYTE   Dn4
 BYTE   W06
 BYTE   N03  Bn3
 BYTE   W03
 BYTE   Cn4
 BYTE   W03
 BYTE   N06  Dn4
 BYTE   W06
 BYTE   N03  En4
 BYTE   W03
 BYTE   Fn4
 BYTE   W03
 BYTE   N06  En4
 BYTE   W06
 BYTE   Dn4
 BYTE   W06
 BYTE   Cn4
 BYTE   W06
 BYTE   Bn3
 BYTE   W06
 BYTE   PEND 
//  #06 //012   ----------------------------------------
Label_0127F4A7:
 BYTE   N06  An3  v127
 BYTE   W06
 BYTE   N03  En3
 BYTE   W06
 BYTE   N06
 BYTE   W06
 BYTE   N03  An2
 BYTE   W03
 BYTE   En3
 BYTE   W03
 BYTE   N06  An3
 BYTE   W06
 BYTE   Cn4
 BYTE   W06
 BYTE   Bn3
 BYTE   W06
 BYTE   An3
 BYTE   W06
 BYTE   Bn3
 BYTE   W06
 BYTE   N03  Gn3
 BYTE   W06
 BYTE   N06
 BYTE   W06
 BYTE   N03  Dn3
 BYTE   W03
 BYTE   Gn3
 BYTE   W03
 BYTE   N06  Bn3
 BYTE   W06
 BYTE   Dn4
 BYTE   W06
 BYTE   Cn4
 BYTE   W06
 BYTE   Bn3
 BYTE   W06
 BYTE   PEND 
//  #06 //013   ----------------------------------------
Label_0127F4D4:
 BYTE   N06  Cn4  v127
 BYTE   W06
 BYTE   N03  An3
 BYTE   W06
 BYTE   N06
 BYTE   W06
 BYTE   N03  En3
 BYTE   W03
 BYTE   An3
 BYTE   W03
 BYTE   N06  Cn4
 BYTE   W06
 BYTE   En4
 BYTE   W06
 BYTE   Dn4
 BYTE   W06
 BYTE   Cn4
 BYTE   W06
 BYTE   Dn4
 BYTE   W06
 BYTE   N03  Bn3
 BYTE   W03
 BYTE   Cn4
 BYTE   W03
 BYTE   N06  Dn4
 BYTE   W06
 BYTE   N03  En4
 BYTE   W03
 BYTE   Fn4
 BYTE   W03
 BYTE   En4
 BYTE   W03
 BYTE   Fn4
 BYTE   W03
 BYTE   En4
 BYTE   W03
 BYTE   Fn4
 BYTE   W03
 BYTE   En4
 BYTE   W03
 BYTE   Dn4
 BYTE   W03
 BYTE   Cn4
 BYTE   W03
 BYTE   Bn3
 BYTE   W03
 BYTE   PEND 
//  #06 //014   ----------------------------------------
 BYTE   PATT
  POIN2 Label_0127F4A7
//  #06 //015   ----------------------------------------
Label_0127F510:
 BYTE   N06  Cn4  v127
 BYTE   W06
 BYTE   N03  An3
 BYTE   W06
 BYTE   N06
 BYTE   W06
 BYTE   N03  En3
 BYTE   W03
 BYTE   An3
 BYTE   W03
 BYTE   N06  Cn4
 BYTE   W06
 BYTE   En4
 BYTE   W06
 BYTE   Dn4
 BYTE   W06
 BYTE   Cn4
 BYTE   W06
 BYTE   Dn4
 BYTE   W06
 BYTE   N03  Bn3
 BYTE   W03
 BYTE   Cn4
 BYTE   W03
 BYTE   N06  Dn4
 BYTE   W06
 BYTE   N03  En4
 BYTE   W03
 BYTE   Fn4
 BYTE   W03
 BYTE   N06  En4
 BYTE   W06
 BYTE   Dn4
 BYTE   W06
 BYTE   Cn4
 BYTE   W06
 BYTE   Dn4
 BYTE   W06
 BYTE   PEND 
//  #06 //016   ----------------------------------------
Label_0127F540:
 BYTE   N18  En4  v127
 BYTE   W18
 BYTE   N06  Gn3
 BYTE   W06
 BYTE   Cn4
 BYTE   W06
 BYTE   Dn4
 BYTE   W06
 BYTE   En4
 BYTE   W06
 BYTE   Fn4
 BYTE   W06
 BYTE   N18  Gn4
 BYTE   W18
 BYTE   N03  Dn4
 BYTE   W06
 BYTE   N24
 BYTE   W24
 BYTE   PEND 
//  #06 //017   ----------------------------------------
Label_0127F558:
 BYTE   N18  Cn4  v127
 BYTE   W18
 BYTE   N06  Ds3
 BYTE   W06
 BYTE   Gs3
 BYTE   W06
 BYTE   Cn4
 BYTE   W06
 BYTE   Ds4
 BYTE   W06
 BYTE   Fn4
 BYTE   W06
 BYTE   N12  Ds4
 BYTE   W12
 BYTE   Dn4
 BYTE   W12
 BYTE   Cn4
 BYTE   W12
 BYTE   Dn4
 BYTE   W12
 BYTE   PEND 
//  #06 //018   ----------------------------------------
Label_0127F571:
 BYTE   N18  En4  v127
 BYTE   W18
 BYTE   N06  Gn3
 BYTE   W06
 BYTE   Cn4
 BYTE   W06
 BYTE   Dn4
 BYTE   W06
 BYTE   En4
 BYTE   W06
 BYTE   Fn4
 BYTE   W06
 BYTE   N18  Gn4
 BYTE   W18
 BYTE   N06  An4
 BYTE   W06
 BYTE   N12  Gn4
 BYTE   W12
 BYTE   N06  Fn4
 BYTE   W06
 BYTE   En4
 BYTE   W06
 BYTE   PEND 
//  #06 //019   ----------------------------------------
Label_0127F58F:
 BYTE   N06  Fn4  v127
 BYTE   W06
 BYTE   An3
 BYTE   W06
 BYTE   Cn4
 BYTE   W06
 BYTE   N12  Fn4
 BYTE   W12
 BYTE   N06  Ds4
 BYTE   W06
 BYTE   Dn4
 BYTE   W06
 BYTE   N18  Cn4
 BYTE   W18
 BYTE   N12  Dn4
 BYTE   W12
 BYTE   Ds4
 BYTE   W12
 BYTE   Fn4
 BYTE   W12
 BYTE   PEND 
//  #06 //020   ----------------------------------------
Label_0127F5AA:
 BYTE   VOL   40*LightningSong_mvl/mxv
 BYTE   N96  En4  v127
 BYTE   W01
 BYTE   VOL   39*LightningSong_mvl/mxv
 BYTE   W01
 BYTE   VOL   78*LightningSong_mvl/mxv
 BYTE   W01
 BYTE   VOL   78*LightningSong_mvl/mxv
 BYTE   W01
 BYTE   VOL   77*LightningSong_mvl/mxv
 BYTE   W02
 BYTE   VOL   76*LightningSong_mvl/mxv
 BYTE   W01
 BYTE   VOL   76*LightningSong_mvl/mxv
 BYTE   W01
 BYTE   VOL   75*LightningSong_mvl/mxv
 BYTE   W01
 BYTE   VOL   74*LightningSong_mvl/mxv
 BYTE   W01
 BYTE   VOL   74*LightningSong_mvl/mxv
 BYTE   W02
 BYTE   VOL   73*LightningSong_mvl/mxv
 BYTE   W01
 BYTE   VOL   73*LightningSong_mvl/mxv
 BYTE   W01
 BYTE   VOL   72*LightningSong_mvl/mxv
 BYTE   W01
 BYTE   VOL   71*LightningSong_mvl/mxv
 BYTE   W02
 BYTE   VOL   71*LightningSong_mvl/mxv
 BYTE   W01
 BYTE   VOL   70*LightningSong_mvl/mxv
 BYTE   W01
 BYTE   VOL   69*LightningSong_mvl/mxv
 BYTE   W01
 BYTE   VOL   69*LightningSong_mvl/mxv
 BYTE   W01
 BYTE   VOL   68*LightningSong_mvl/mxv
 BYTE   W02
 BYTE   VOL   68*LightningSong_mvl/mxv
 BYTE   W01
 BYTE   VOL   67*LightningSong_mvl/mxv
 BYTE   W01
 BYTE   VOL   66*LightningSong_mvl/mxv
 BYTE   W01
 BYTE   VOL   66*LightningSong_mvl/mxv
 BYTE   W01
 BYTE   VOL   65*LightningSong_mvl/mxv
 BYTE   W02
 BYTE   VOL   64*LightningSong_mvl/mxv
 BYTE   W01
 BYTE   VOL   64*LightningSong_mvl/mxv
 BYTE   W01
 BYTE   VOL   63*LightningSong_mvl/mxv
 BYTE   W01
 BYTE   VOL   62*LightningSong_mvl/mxv
 BYTE   W02
 BYTE   VOL   62*LightningSong_mvl/mxv
 BYTE   W01
 BYTE   VOL   61*LightningSong_mvl/mxv
 BYTE   W01
 BYTE   VOL   61*LightningSong_mvl/mxv
 BYTE   W01
 BYTE   VOL   60*LightningSong_mvl/mxv
 BYTE   W01
 BYTE   VOL   59*LightningSong_mvl/mxv
 BYTE   W02
 BYTE   VOL   59*LightningSong_mvl/mxv
 BYTE   W01
 BYTE   VOL   58*LightningSong_mvl/mxv
 BYTE   W01
 BYTE   VOL   57*LightningSong_mvl/mxv
 BYTE   W01
 BYTE   VOL   57*LightningSong_mvl/mxv
 BYTE   W01
 BYTE   VOL   56*LightningSong_mvl/mxv
 BYTE   W02
 BYTE   VOL   56*LightningSong_mvl/mxv
 BYTE   W01
 BYTE   VOL   55*LightningSong_mvl/mxv
 BYTE   W01
 BYTE   VOL   54*LightningSong_mvl/mxv
 BYTE   W01
 BYTE   VOL   54*LightningSong_mvl/mxv
 BYTE   W02
 BYTE   VOL   53*LightningSong_mvl/mxv
 BYTE   W01
 BYTE   VOL   52*LightningSong_mvl/mxv
 BYTE   W01
 BYTE   VOL   52*LightningSong_mvl/mxv
 BYTE   W01
 BYTE   VOL   51*LightningSong_mvl/mxv
 BYTE   W01
 BYTE   VOL   51*LightningSong_mvl/mxv
 BYTE   W02
 BYTE   VOL   50*LightningSong_mvl/mxv
 BYTE   W01
 BYTE   VOL   49*LightningSong_mvl/mxv
 BYTE   W01
 BYTE   VOL   49*LightningSong_mvl/mxv
 BYTE   W01
 BYTE   VOL   48*LightningSong_mvl/mxv
 BYTE   W01
 BYTE   VOL   47*LightningSong_mvl/mxv
 BYTE   W02
 BYTE   VOL   47*LightningSong_mvl/mxv
 BYTE   W01
 BYTE   VOL   46*LightningSong_mvl/mxv
 BYTE   W01
 BYTE   VOL   45*LightningSong_mvl/mxv
 BYTE   W01
 BYTE   VOL   45*LightningSong_mvl/mxv
 BYTE   W02
 BYTE   VOL   44*LightningSong_mvl/mxv
 BYTE   W01
 BYTE   VOL   44*LightningSong_mvl/mxv
 BYTE   W01
 BYTE   VOL   43*LightningSong_mvl/mxv
 BYTE   W01
 BYTE   VOL   42*LightningSong_mvl/mxv
 BYTE   W01
 BYTE   VOL   42*LightningSong_mvl/mxv
 BYTE   W02
 BYTE   VOL   41*LightningSong_mvl/mxv
 BYTE   W01
 BYTE   VOL   40*LightningSong_mvl/mxv
 BYTE   W01
 BYTE   VOL   40*LightningSong_mvl/mxv
 BYTE   W01
 BYTE   VOL   39*LightningSong_mvl/mxv
 BYTE   W01
 BYTE   VOL   39*LightningSong_mvl/mxv
 BYTE   W02
 BYTE   VOL   38*LightningSong_mvl/mxv
 BYTE   W01
 BYTE   VOL   37*LightningSong_mvl/mxv
 BYTE   W01
 BYTE   VOL   37*LightningSong_mvl/mxv
 BYTE   W01
 BYTE   VOL   36*LightningSong_mvl/mxv
 BYTE   W02
 BYTE   VOL   35*LightningSong_mvl/mxv
 BYTE   W01
 BYTE   VOL   35*LightningSong_mvl/mxv
 BYTE   W01
 BYTE   VOL   34*LightningSong_mvl/mxv
 BYTE   W01
 BYTE   VOL   34*LightningSong_mvl/mxv
 BYTE   W01
 BYTE   VOL   33*LightningSong_mvl/mxv
 BYTE   W02
 BYTE   VOL   32*LightningSong_mvl/mxv
 BYTE   W01
 BYTE   VOL   32*LightningSong_mvl/mxv
 BYTE   W01
 BYTE   VOL   31*LightningSong_mvl/mxv
 BYTE   W01
 BYTE   VOL   30*LightningSong_mvl/mxv
 BYTE   W01
 BYTE   VOL   30*LightningSong_mvl/mxv
 BYTE   W01
 BYTE   PEND 
//  #06 //021   ----------------------------------------
 BYTE   Fs0
 BYTE   W96
//  #06 //022   ----------------------------------------
 BYTE   Gs4
 BYTE   W96
//  #06 //023   ----------------------------------------
 BYTE   W96
//  #06 //024   ----------------------------------------
 BYTE   W96
//  #06 //025   ----------------------------------------
 BYTE   PATT
  POIN2 Label_0127F41D
//  #06 //026   ----------------------------------------
 BYTE   PATT
  POIN2 Label_0127F429
//  #06 //027   ----------------------------------------
 BYTE   PATT
  POIN2 Label_0127F450
//  #06 //028   ----------------------------------------
 BYTE   PATT
  POIN2 Label_0127F429
//  #06 //029   ----------------------------------------
 BYTE   PATT
  POIN2 Label_0127F47A
//  #06 //030   ----------------------------------------
 BYTE   PATT
  POIN2 Label_0127F4A7
//  #06 //031   ----------------------------------------
 BYTE   PATT
  POIN2 Label_0127F4D4
//  #06 //032   ----------------------------------------
 BYTE   PATT
  POIN2 Label_0127F4A7
//  #06 //033   ----------------------------------------
 BYTE   PATT
  POIN2 Label_0127F510
//  #06 //034   ----------------------------------------
 BYTE   PATT
  POIN2 Label_0127F540
//  #06 //035   ----------------------------------------
 BYTE   PATT
  POIN2 Label_0127F558
//  #06 //036   ----------------------------------------
 BYTE   PATT
  POIN2 Label_0127F571
//  #06 //037   ----------------------------------------
 BYTE   PATT
  POIN2 Label_0127F58F
//  #06 //038   ----------------------------------------
 BYTE   PATT
  POIN2 Label_0127F540
//  #06 //039   ----------------------------------------
 BYTE   PATT
  POIN2 Label_0127F558
//  #06 //040   ----------------------------------------
 BYTE   PATT
  POIN2 Label_0127F571
//  #06 //041   ----------------------------------------
 BYTE   PATT
  POIN2 Label_0127F58F
//  #06 //042   ----------------------------------------
 BYTE   PATT
  POIN2 Label_0127F5AA
//  #06 //043   ----------------------------------------
 BYTE   VOL   0*LightningSong_mvl/mxv
 BYTE   W96
//  #06 //044   ----------------------------------------
 BYTE   VOL   80*LightningSong_mvl/mxv
 BYTE   W96
//  #06 //045   ----------------------------------------
 BYTE   W96
//  #06 //046   ----------------------------------------
 BYTE   W96
//  #06 //047   ----------------------------------------
 BYTE   W96
//  #06 //048   ----------------------------------------
 BYTE   W96
//  #06 //049   ----------------------------------------
 BYTE   W96
//  #06 //050   ----------------------------------------
 BYTE   W96
//  #06 //051   ----------------------------------------
 BYTE   PATT
  POIN2 Label_0127F41D
//  #06 //052   ----------------------------------------
 BYTE   PATT
  POIN2 Label_0127F429
//  #06 //053   ----------------------------------------
 BYTE   PATT
  POIN2 Label_0127F450
//  #06 //054   ----------------------------------------
 BYTE   PATT
  POIN2 Label_0127F429
//  #06 //055   ----------------------------------------
 BYTE   PATT
  POIN2 Label_0127F47A
//  #06 //056   ----------------------------------------
 BYTE   PATT
  POIN2 Label_0127F4A7
//  #06 //057   ----------------------------------------
 BYTE   PATT
  POIN2 Label_0127F4D4
//  #06 //058   ----------------------------------------
 BYTE   PATT
  POIN2 Label_0127F4A7
//  #06 //059   ----------------------------------------
 BYTE   PATT
  POIN2 Label_0127F510
//  #06 //060   ----------------------------------------
 BYTE   PATT
  POIN2 Label_0127F540
//  #06 //061   ----------------------------------------
 BYTE   PATT
  POIN2 Label_0127F558
//  #06 //062   ----------------------------------------
 BYTE   PATT
  POIN2 Label_0127F571
//  #06 //063   ----------------------------------------
 BYTE   PATT
  POIN2 Label_0127F58F
//  #06 //064   ----------------------------------------
 BYTE   PATT
  POIN2 Label_0127F5AA
//  #06 //065   ----------------------------------------
 BYTE   VOL   0*LightningSong_mvl/mxv
 BYTE   W96
//  #06 //066   ----------------------------------------
 BYTE   VOL   80*LightningSong_mvl/mxv
 BYTE   W96
//  #06 //067   ----------------------------------------
 BYTE   W96
//  #06 //068   ----------------------------------------
 BYTE   W96
//  #06 //069   ----------------------------------------
 BYTE   PATT
  POIN2 Label_0127F41D
//  #06 //070   ----------------------------------------
 BYTE   PATT
  POIN2 Label_0127F429
//  #06 //071   ----------------------------------------
 BYTE   PATT
  POIN2 Label_0127F450
//  #06 //072   ----------------------------------------
 BYTE   PATT
  POIN2 Label_0127F429
//  #06 //073   ----------------------------------------
 BYTE   PATT
  POIN2 Label_0127F47A
//  #06 //074   ----------------------------------------
 BYTE   PATT
  POIN2 Label_0127F4A7
//  #06 //075   ----------------------------------------
 BYTE   PATT
  POIN2 Label_0127F4D4
//  #06 //076   ----------------------------------------
 BYTE   PATT
  POIN2 Label_0127F4A7
//  #06 //077   ----------------------------------------
 BYTE   PATT
  POIN2 Label_0127F510
//  #06 //078   ----------------------------------------
 BYTE   PATT
  POIN2 Label_0127F540
//  #06 //079   ----------------------------------------
 BYTE   PATT
  POIN2 Label_0127F558
//  #06 //080   ----------------------------------------
 BYTE   PATT
  POIN2 Label_0127F571
//  #06 //081   ----------------------------------------
 BYTE   PATT
  POIN2 Label_0127F58F
//  #06 //082   ----------------------------------------
 BYTE   PATT
  POIN2 Label_0127F540
//  #06 //083   ----------------------------------------
 BYTE   PATT
  POIN2 Label_0127F558
//  #06 //084   ----------------------------------------
 BYTE   PATT
  POIN2 Label_0127F571
//  #06 //085   ----------------------------------------
 BYTE   PATT
  POIN2 Label_0127F58F
//  #06 //086   ----------------------------------------
 BYTE   PATT
  POIN2 Label_0127F5AA
//  #06 //087   ----------------------------------------
 BYTE   VOL   0*LightningSong_mvl/mxv
 BYTE   W96
//  #06 //088   ----------------------------------------
 BYTE   GoTo
  POIN2 Label_0127F40E
 BYTE   FINE

//**************** Track 7 (Midi-Chn.6) ****************//

LightningSong_007:
//  #07 //000   ----------------------------------------
 BYTE   KEYSH   LightningSong_key+0
Label_01282046:
 BYTE   VOICE   48
 BYTE   VOL   40*LightningSong_mvl/mxv
 BYTE   PAN   c_v+0
 BYTE   W96
//  #07 //001   ----------------------------------------
 BYTE   W96
//  #07 //002   ----------------------------------------
 BYTE   W96
//  #07 //003   ----------------------------------------
 BYTE   W96
//  #07 //004   ----------------------------------------
 BYTE   W96
//  #07 //005   ----------------------------------------
 BYTE   W96
//  #07 //006   ----------------------------------------
 BYTE   W96
//  #07 //007   ----------------------------------------
 BYTE   W96
//  #07 //008   ----------------------------------------
 BYTE   W96
//  #07 //009   ----------------------------------------
 BYTE   W96
//  #07 //010   ----------------------------------------
 BYTE   W96
//  #07 //011   ----------------------------------------
Label_01282057:
 BYTE   W72
 BYTE   N06  Gn4  v127
 BYTE   W06
 BYTE   Fn4
 BYTE   W06
 BYTE   En4
 BYTE   W06
 BYTE   Dn4
 BYTE   W06
 BYTE   PEND 
//  #07 //012   ----------------------------------------
Label_01282063:
 BYTE   N06  Cn4  v127
 BYTE   W06
 BYTE   N03  An3
 BYTE   W06
 BYTE   N06
 BYTE   W06
 BYTE   N03  En3
 BYTE   W03
 BYTE   An3
 BYTE   W03
 BYTE   N06  Cn4
 BYTE   W06
 BYTE   En4
 BYTE   W06
 BYTE   Dn4
 BYTE   W06
 BYTE   Cn4
 BYTE   W06
 BYTE   Dn4
 BYTE   W06
 BYTE   N03  Bn3
 BYTE   W06
 BYTE   N06
 BYTE   W06
 BYTE   N03  Gn3
 BYTE   W03
 BYTE   Bn3
 BYTE   W03
 BYTE   N06  Dn4
 BYTE   W06
 BYTE   Fn4
 BYTE   W06
 BYTE   En4
 BYTE   W06
 BYTE   Dn4
 BYTE   W06
 BYTE   PEND 
//  #07 //013   ----------------------------------------
Label_01282090:
 BYTE   N06  En4  v127
 BYTE   W06
 BYTE   N03  Cn4
 BYTE   W06
 BYTE   N06
 BYTE   W06
 BYTE   N03  An3
 BYTE   W03
 BYTE   Cn4
 BYTE   W03
 BYTE   N06  En4
 BYTE   W06
 BYTE   Gn4
 BYTE   W06
 BYTE   Fn4
 BYTE   W06
 BYTE   En4
 BYTE   W06
 BYTE   Fn4
 BYTE   W06
 BYTE   N03  Dn4
 BYTE   W03
 BYTE   En4
 BYTE   W03
 BYTE   N06  Fn4
 BYTE   W06
 BYTE   N03  Gn4
 BYTE   W03
 BYTE   An4
 BYTE   W03
 BYTE   Gn4
 BYTE   W03
 BYTE   An4
 BYTE   W03
 BYTE   Gn4
 BYTE   W03
 BYTE   An4
 BYTE   W03
 BYTE   Gn4
 BYTE   W03
 BYTE   Fn4
 BYTE   W03
 BYTE   En4
 BYTE   W03
 BYTE   Dn4
 BYTE   W03
 BYTE   PEND 
//  #07 //014   ----------------------------------------
Label_012820C7:
 BYTE   N06  Cn4  v127
 BYTE   W06
 BYTE   N03  An3
 BYTE   W06
 BYTE   N06
 BYTE   W06
 BYTE   N03  Cn3
 BYTE   W03
 BYTE   An3
 BYTE   W03
 BYTE   N06  Cn4
 BYTE   W06
 BYTE   En4
 BYTE   W06
 BYTE   Dn4
 BYTE   W06
 BYTE   Cn4
 BYTE   W06
 BYTE   Dn4
 BYTE   W06
 BYTE   N03  Bn3
 BYTE   W06
 BYTE   N06
 BYTE   W06
 BYTE   N03  Gn3
 BYTE   W03
 BYTE   Bn3
 BYTE   W03
 BYTE   N06  Dn4
 BYTE   W06
 BYTE   Fn4
 BYTE   W06
 BYTE   En4
 BYTE   W06
 BYTE   Dn4
 BYTE   W06
 BYTE   PEND 
//  #07 //015   ----------------------------------------
Label_012820F4:
 BYTE   N06  En4  v127
 BYTE   W06
 BYTE   N03  Cn4
 BYTE   W06
 BYTE   N06
 BYTE   W06
 BYTE   N03  An3
 BYTE   W03
 BYTE   Cn4
 BYTE   W03
 BYTE   N06  En4
 BYTE   W06
 BYTE   Gn4
 BYTE   W06
 BYTE   Fn4
 BYTE   W06
 BYTE   En4
 BYTE   W06
 BYTE   Fn4
 BYTE   W06
 BYTE   N03  Dn4
 BYTE   W03
 BYTE   En4
 BYTE   W03
 BYTE   N06  Fn4
 BYTE   W06
 BYTE   N03  Gn4
 BYTE   W03
 BYTE   An4
 BYTE   W03
 BYTE   N06  Gn4
 BYTE   W06
 BYTE   Fn4
 BYTE   W06
 BYTE   En4
 BYTE   W06
 BYTE   Fn4
 BYTE   W06
 BYTE   PEND 
//  #07 //016   ----------------------------------------
 BYTE   W96
//  #07 //017   ----------------------------------------
 BYTE   W96
//  #07 //018   ----------------------------------------
 BYTE   W96
//  #07 //019   ----------------------------------------
 BYTE   W96
//  #07 //020   ----------------------------------------
 BYTE   W96
//  #07 //021   ----------------------------------------
 BYTE   W96
//  #07 //022   ----------------------------------------
 BYTE   W96
//  #07 //023   ----------------------------------------
 BYTE   W96
//  #07 //024   ----------------------------------------
 BYTE   W96
//  #07 //025   ----------------------------------------
 BYTE   W96
//  #07 //026   ----------------------------------------
 BYTE   W96
//  #07 //027   ----------------------------------------
 BYTE   W96
//  #07 //028   ----------------------------------------
 BYTE   W96
//  #07 //029   ----------------------------------------
 BYTE   PATT
  POIN2 Label_01282057
//  #07 //030   ----------------------------------------
 BYTE   PATT
  POIN2 Label_01282063
//  #07 //031   ----------------------------------------
 BYTE   PATT
  POIN2 Label_01282090
//  #07 //032   ----------------------------------------
 BYTE   PATT
  POIN2 Label_012820C7
//  #07 //033   ----------------------------------------
 BYTE   PATT
  POIN2 Label_012820F4
//  #07 //034   ----------------------------------------
 BYTE   W96
//  #07 //035   ----------------------------------------
 BYTE   W96
//  #07 //036   ----------------------------------------
 BYTE   W96
//  #07 //037   ----------------------------------------
 BYTE   W96
//  #07 //038   ----------------------------------------
 BYTE   W96
//  #07 //039   ----------------------------------------
 BYTE   W96
//  #07 //040   ----------------------------------------
 BYTE   W96
//  #07 //041   ----------------------------------------
 BYTE   W96
//  #07 //042   ----------------------------------------
 BYTE   W96
//  #07 //043   ----------------------------------------
 BYTE   W96
//  #07 //044   ----------------------------------------
 BYTE   W96
//  #07 //045   ----------------------------------------
 BYTE   W96
//  #07 //046   ----------------------------------------
 BYTE   W96
//  #07 //047   ----------------------------------------
 BYTE   W96
//  #07 //048   ----------------------------------------
 BYTE   W96
//  #07 //049   ----------------------------------------
 BYTE   W96
//  #07 //050   ----------------------------------------
 BYTE   W96
//  #07 //051   ----------------------------------------
 BYTE   W96
//  #07 //052   ----------------------------------------
 BYTE   W96
//  #07 //053   ----------------------------------------
 BYTE   W96
//  #07 //054   ----------------------------------------
 BYTE   W96
//  #07 //055   ----------------------------------------
 BYTE   PATT
  POIN2 Label_01282057
//  #07 //056   ----------------------------------------
 BYTE   PATT
  POIN2 Label_01282063
//  #07 //057   ----------------------------------------
 BYTE   PATT
  POIN2 Label_01282090
//  #07 //058   ----------------------------------------
 BYTE   PATT
  POIN2 Label_012820C7
//  #07 //059   ----------------------------------------
 BYTE   PATT
  POIN2 Label_012820F4
//  #07 //060   ----------------------------------------
 BYTE   W96
//  #07 //061   ----------------------------------------
 BYTE   W96
//  #07 //062   ----------------------------------------
 BYTE   W96
//  #07 //063   ----------------------------------------
 BYTE   W96
//  #07 //064   ----------------------------------------
 BYTE   W96
//  #07 //065   ----------------------------------------
 BYTE   W96
//  #07 //066   ----------------------------------------
 BYTE   W96
//  #07 //067   ----------------------------------------
 BYTE   W96
//  #07 //068   ----------------------------------------
 BYTE   W96
//  #07 //069   ----------------------------------------
 BYTE   W96
//  #07 //070   ----------------------------------------
 BYTE   W96
//  #07 //071   ----------------------------------------
 BYTE   W96
//  #07 //072   ----------------------------------------
 BYTE   W96
//  #07 //073   ----------------------------------------
 BYTE   PATT
  POIN2 Label_01282057
//  #07 //074   ----------------------------------------
 BYTE   PATT
  POIN2 Label_01282063
//  #07 //075   ----------------------------------------
 BYTE   PATT
  POIN2 Label_01282090
//  #07 //076   ----------------------------------------
 BYTE   PATT
  POIN2 Label_012820C7
//  #07 //077   ----------------------------------------
 BYTE   PATT
  POIN2 Label_012820F4
//  #07 //078   ----------------------------------------
 BYTE   W96
//  #07 //079   ----------------------------------------
 BYTE   W96
//  #07 //080   ----------------------------------------
 BYTE   W96
//  #07 //081   ----------------------------------------
 BYTE   W96
//  #07 //082   ----------------------------------------
 BYTE   W96
//  #07 //083   ----------------------------------------
 BYTE   W96
//  #07 //084   ----------------------------------------
 BYTE   W96
//  #07 //085   ----------------------------------------
 BYTE   W96
//  #07 //086   ----------------------------------------
 BYTE   W96
//  #07 //087   ----------------------------------------
 BYTE   W96
//  #07 //088   ----------------------------------------
 BYTE   GoTo
  POIN2 Label_01282046
 BYTE   FINE

//**************** Track 8 (Midi-Chn.7) ****************//

LightningSong_008:
//  #08 //000   ----------------------------------------
 BYTE   KEYSH   LightningSong_key+0
Label_0127F76E:
 BYTE   VOICE   29
 BYTE   VOL   40*LightningSong_mvl/mxv
 BYTE   PAN   c_v+0
 BYTE   W03
 BYTE   VOL   7*LightningSong_mvl/mxv
 BYTE   W92
 BYTE   W01
//  #08 //001   ----------------------------------------
 BYTE   W96
//  #08 //002   ----------------------------------------
 BYTE   W96
//  #08 //003   ----------------------------------------
 BYTE   W96
//  #08 //004   ----------------------------------------
 BYTE   W96
//  #08 //005   ----------------------------------------
 BYTE   W96
//  #08 //006   ----------------------------------------
 BYTE   W96
//  #08 //007   ----------------------------------------
Label_0127F77F:
 BYTE   W84
 BYTE   W03
 BYTE   N03  En3  v127
 BYTE   W03
 BYTE   Fn3
 BYTE   W03
 BYTE   Gn3
 BYTE   W03
 BYTE   PEND 
//  #08 //008   ----------------------------------------
Label_0127F78A:
 BYTE   N03  Gs3  v127
 BYTE   W03
 BYTE   N06  An3
 BYTE   W06
 BYTE   En3
 BYTE   W12
 BYTE   N03  An2
 BYTE   W03
 BYTE   En3
 BYTE   W03
 BYTE   N06  An3
 BYTE   W06
 BYTE   Cn4
 BYTE   W06
 BYTE   Bn3
 BYTE   W06
 BYTE   An3
 BYTE   W06
 BYTE   Bn3
 BYTE   W06
 BYTE   Gn3
 BYTE   W12
 BYTE   N03  Dn3
 BYTE   W03
 BYTE   Gn3
 BYTE   W03
 BYTE   N06  Bn3
 BYTE   W06
 BYTE   Dn4
 BYTE   W06
 BYTE   Cn4
 BYTE   W06
 BYTE   Bn3
 BYTE   W03
 BYTE   PEND 
//  #08 //009   ----------------------------------------
Label_0127F7B4:
 BYTE   W03
 BYTE   N06  Cn4  v127
 BYTE   W06
 BYTE   An3
 BYTE   W12
 BYTE   N03  En3
 BYTE   W03
 BYTE   An3
 BYTE   W03
 BYTE   N06  Cn4
 BYTE   W06
 BYTE   En4
 BYTE   W06
 BYTE   Dn4
 BYTE   W06
 BYTE   Cn4
 BYTE   W06
 BYTE   Dn4
 BYTE   W06
 BYTE   Bn3
 BYTE   W06
 BYTE   Dn4
 BYTE   W06
 BYTE   Fn4
 BYTE   W06
 BYTE   En4
 BYTE   W06
 BYTE   Dn4
 BYTE   W06
 BYTE   Cn4
 BYTE   W06
 BYTE   Bn3
 BYTE   W03
 BYTE   PEND 
//  #08 //010   ----------------------------------------
Label_0127F7DA:
 BYTE   W03
 BYTE   N06  An3  v127
 BYTE   W06
 BYTE   En3
 BYTE   W12
 BYTE   N03  An2
 BYTE   W03
 BYTE   En3
 BYTE   W03
 BYTE   N06  An3
 BYTE   W06
 BYTE   Cn4
 BYTE   W06
 BYTE   Bn3
 BYTE   W06
 BYTE   An3
 BYTE   W06
 BYTE   Bn3
 BYTE   W06
 BYTE   Gn3
 BYTE   W12
 BYTE   N03  Dn3
 BYTE   W03
 BYTE   Gn3
 BYTE   W03
 BYTE   N06  Bn3
 BYTE   W06
 BYTE   Dn4
 BYTE   W06
 BYTE   Cn4
 BYTE   W06
 BYTE   Bn3
 BYTE   W03
 BYTE   PEND 
//  #08 //011   ----------------------------------------
Label_0127F802:
 BYTE   W03
 BYTE   N06  Cn4  v127
 BYTE   W06
 BYTE   An3
 BYTE   W12
 BYTE   N03  En3
 BYTE   W03
 BYTE   An3
 BYTE   W03
 BYTE   N06  Cn4
 BYTE   W06
 BYTE   En4
 BYTE   W06
 BYTE   Dn4
 BYTE   W06
 BYTE   Cn4
 BYTE   W06
 BYTE   Dn4
 BYTE   W06
 BYTE   N03  Bn3
 BYTE   W03
 BYTE   Cn4
 BYTE   W03
 BYTE   N06  Dn4
 BYTE   W06
 BYTE   N03  En4
 BYTE   W03
 BYTE   Fn4
 BYTE   W03
 BYTE   N06  En4
 BYTE   W06
 BYTE   Dn4
 BYTE   W06
 BYTE   Cn4
 BYTE   W06
 BYTE   Bn3
 BYTE   W03
 BYTE   PEND 
//  #08 //012   ----------------------------------------
Label_0127F830:
 BYTE   W03
 BYTE   N06  An3  v127
 BYTE   W06
 BYTE   N03  En3
 BYTE   W06
 BYTE   N06
 BYTE   W06
 BYTE   N03  An2
 BYTE   W03
 BYTE   En3
 BYTE   W03
 BYTE   N06  An3
 BYTE   W06
 BYTE   Cn4
 BYTE   W06
 BYTE   Bn3
 BYTE   W06
 BYTE   An3
 BYTE   W06
 BYTE   Bn3
 BYTE   W06
 BYTE   N03  Gn3
 BYTE   W06
 BYTE   N06
 BYTE   W06
 BYTE   N03  Dn3
 BYTE   W03
 BYTE   Gn3
 BYTE   W03
 BYTE   N06  Bn3
 BYTE   W06
 BYTE   Dn4
 BYTE   W06
 BYTE   Cn4
 BYTE   W06
 BYTE   Bn3
 BYTE   W03
 BYTE   PEND 
//  #08 //013   ----------------------------------------
Label_0127F85E:
 BYTE   W03
 BYTE   N06  Cn4  v127
 BYTE   W06
 BYTE   N03  An3
 BYTE   W06
 BYTE   N06
 BYTE   W06
 BYTE   N03  En3
 BYTE   W03
 BYTE   An3
 BYTE   W03
 BYTE   N06  Cn4
 BYTE   W06
 BYTE   En4
 BYTE   W06
 BYTE   Dn4
 BYTE   W06
 BYTE   Cn4
 BYTE   W06
 BYTE   Dn4
 BYTE   W06
 BYTE   N03  Bn3
 BYTE   W03
 BYTE   Cn4
 BYTE   W03
 BYTE   N06  Dn4
 BYTE   W06
 BYTE   N03  En4
 BYTE   W03
 BYTE   Fn4
 BYTE   W03
 BYTE   En4
 BYTE   W03
 BYTE   Fn4
 BYTE   W03
 BYTE   En4
 BYTE   W03
 BYTE   Fn4
 BYTE   W03
 BYTE   En4
 BYTE   W03
 BYTE   Dn4
 BYTE   W03
 BYTE   Cn4
 BYTE   W03
 BYTE   PEND 
//  #08 //014   ----------------------------------------
Label_0127F894:
 BYTE   N03  Bn3  v127
 BYTE   W03
 BYTE   N06  An3
 BYTE   W06
 BYTE   N03  En3
 BYTE   W06
 BYTE   N06
 BYTE   W06
 BYTE   N03  An2
 BYTE   W03
 BYTE   En3
 BYTE   W03
 BYTE   N06  An3
 BYTE   W06
 BYTE   Cn4
 BYTE   W06
 BYTE   Bn3
 BYTE   W06
 BYTE   An3
 BYTE   W06
 BYTE   Bn3
 BYTE   W06
 BYTE   N03  Gn3
 BYTE   W06
 BYTE   N06
 BYTE   W06
 BYTE   N03  Dn3
 BYTE   W03
 BYTE   Gn3
 BYTE   W03
 BYTE   N06  Bn3
 BYTE   W06
 BYTE   Dn4
 BYTE   W06
 BYTE   Cn4
 BYTE   W06
 BYTE   Bn3
 BYTE   W03
 BYTE   PEND 
//  #08 //015   ----------------------------------------
Label_0127F8C4:
 BYTE   W03
 BYTE   N06  Cn4  v127
 BYTE   W06
 BYTE   N03  An3
 BYTE   W06
 BYTE   N06
 BYTE   W06
 BYTE   N03  En3
 BYTE   W03
 BYTE   An3
 BYTE   W03
 BYTE   N06  Cn4
 BYTE   W06
 BYTE   En4
 BYTE   W06
 BYTE   Dn4
 BYTE   W06
 BYTE   Cn4
 BYTE   W06
 BYTE   Dn4
 BYTE   W06
 BYTE   N03  Bn3
 BYTE   W03
 BYTE   Cn4
 BYTE   W03
 BYTE   N06  Dn4
 BYTE   W06
 BYTE   N03  En4
 BYTE   W03
 BYTE   Fn4
 BYTE   W03
 BYTE   N06  En4
 BYTE   W06
 BYTE   Dn4
 BYTE   W06
 BYTE   Cn4
 BYTE   W06
 BYTE   Dn4
 BYTE   W03
 BYTE   PEND 
//  #08 //016   ----------------------------------------
Label_0127F8F5:
 BYTE   W03
 BYTE   N18  En4  v127
 BYTE   W18
 BYTE   N06  Gn3
 BYTE   W06
 BYTE   Cn4
 BYTE   W06
 BYTE   Dn4
 BYTE   W06
 BYTE   En4
 BYTE   W06
 BYTE   Fn4
 BYTE   W06
 BYTE   N18  Gn4
 BYTE   W18
 BYTE   N03  Dn4
 BYTE   W06
 BYTE   N24
 BYTE   W21
 BYTE   PEND 
//  #08 //017   ----------------------------------------
Label_0127F90E:
 BYTE   W03
 BYTE   N18  Cn4  v127
 BYTE   W18
 BYTE   N06  Ds3
 BYTE   W06
 BYTE   Gs3
 BYTE   W06
 BYTE   Cn4
 BYTE   W06
 BYTE   Ds4
 BYTE   W06
 BYTE   Fn4
 BYTE   W06
 BYTE   N12  Ds4
 BYTE   W12
 BYTE   Dn4
 BYTE   W12
 BYTE   Cn4
 BYTE   W12
 BYTE   Dn4
 BYTE   W09
 BYTE   PEND 
//  #08 //018   ----------------------------------------
Label_0127F928:
 BYTE   W03
 BYTE   N18  En4  v127
 BYTE   W18
 BYTE   N06  Gn3
 BYTE   W06
 BYTE   Cn4
 BYTE   W06
 BYTE   Dn4
 BYTE   W06
 BYTE   En4
 BYTE   W06
 BYTE   Fn4
 BYTE   W06
 BYTE   N18  Gn4
 BYTE   W18
 BYTE   N06  An4
 BYTE   W06
 BYTE   N12  Gn4
 BYTE   W12
 BYTE   N06  Fn4
 BYTE   W06
 BYTE   En4
 BYTE   W03
 BYTE   PEND 
//  #08 //019   ----------------------------------------
Label_0127F947:
 BYTE   W03
 BYTE   N06  Fn4  v127
 BYTE   W06
 BYTE   An3
 BYTE   W06
 BYTE   Cn4
 BYTE   W06
 BYTE   N12  Fn4
 BYTE   W12
 BYTE   N06  Ds4
 BYTE   W06
 BYTE   Dn4
 BYTE   W06
 BYTE   N18  Cn4
 BYTE   W18
 BYTE   N12  Dn4
 BYTE   W12
 BYTE   Ds4
 BYTE   W12
 BYTE   Fn4
 BYTE   W09
 BYTE   PEND 
//  #08 //020   ----------------------------------------
Label_0127F963:
 BYTE   W03
 BYTE   VOL   7*LightningSong_mvl/mxv
 BYTE   N96  En4  v127
 BYTE   W01
 BYTE   VOL   6*LightningSong_mvl/mxv
 BYTE   W01
 BYTE   VOL   45*LightningSong_mvl/mxv
 BYTE   W01
 BYTE   VOL   45*LightningSong_mvl/mxv
 BYTE   W02
 BYTE   VOL   44*LightningSong_mvl/mxv
 BYTE   W01
 BYTE   VOL   44*LightningSong_mvl/mxv
 BYTE   W01
 BYTE   VOL   43*LightningSong_mvl/mxv
 BYTE   W01
 BYTE   VOL   42*LightningSong_mvl/mxv
 BYTE   W02
 BYTE   VOL   42*LightningSong_mvl/mxv
 BYTE   W01
 BYTE   VOL   41*LightningSong_mvl/mxv
 BYTE   W01
 BYTE   VOL   40*LightningSong_mvl/mxv
 BYTE   W02
 BYTE   VOL   40*LightningSong_mvl/mxv
 BYTE   W01
 BYTE   VOL   39*LightningSong_mvl/mxv
 BYTE   W01
 BYTE   VOL   39*LightningSong_mvl/mxv
 BYTE   W01
 BYTE   VOL   38*LightningSong_mvl/mxv
 BYTE   W02
 BYTE   VOL   37*LightningSong_mvl/mxv
 BYTE   W01
 BYTE   VOL   37*LightningSong_mvl/mxv
 BYTE   W01
 BYTE   VOL   36*LightningSong_mvl/mxv
 BYTE   W02
 BYTE   VOL   35*LightningSong_mvl/mxv
 BYTE   W01
 BYTE   VOL   35*LightningSong_mvl/mxv
 BYTE   W01
 BYTE   VOL   34*LightningSong_mvl/mxv
 BYTE   W01
 BYTE   VOL   34*LightningSong_mvl/mxv
 BYTE   W02
 BYTE   VOL   33*LightningSong_mvl/mxv
 BYTE   W01
 BYTE   VOL   32*LightningSong_mvl/mxv
 BYTE   W01
 BYTE   VOL   32*LightningSong_mvl/mxv
 BYTE   W01
 BYTE   VOL   31*LightningSong_mvl/mxv
 BYTE   W02
 BYTE   VOL   30*LightningSong_mvl/mxv
 BYTE   W01
 BYTE   VOL   30*LightningSong_mvl/mxv
 BYTE   W01
 BYTE   VOL   29*LightningSong_mvl/mxv
 BYTE   W02
 BYTE   VOL   28*LightningSong_mvl/mxv
 BYTE   W01
 BYTE   VOL   28*LightningSong_mvl/mxv
 BYTE   W01
 BYTE   VOL   27*LightningSong_mvl/mxv
 BYTE   W01
 BYTE   VOL   27*LightningSong_mvl/mxv
 BYTE   W02
 BYTE   VOL   26*LightningSong_mvl/mxv
 BYTE   W01
 BYTE   VOL   25*LightningSong_mvl/mxv
 BYTE   W01
 BYTE   VOL   25*LightningSong_mvl/mxv
 BYTE   W02
 BYTE   VOL   24*LightningSong_mvl/mxv
 BYTE   W01
 BYTE   VOL   23*LightningSong_mvl/mxv
 BYTE   W01
 BYTE   VOL   23*LightningSong_mvl/mxv
 BYTE   W01
 BYTE   VOL   22*LightningSong_mvl/mxv
 BYTE   W02
 BYTE   VOL   22*LightningSong_mvl/mxv
 BYTE   W01
 BYTE   VOL   21*LightningSong_mvl/mxv
 BYTE   W01
 BYTE   VOL   20*LightningSong_mvl/mxv
 BYTE   W02
 BYTE   VOL   20*LightningSong_mvl/mxv
 BYTE   W01
 BYTE   VOL   19*LightningSong_mvl/mxv
 BYTE   W01
 BYTE   VOL   18*LightningSong_mvl/mxv
 BYTE   W01
 BYTE   VOL   18*LightningSong_mvl/mxv
 BYTE   W02
 BYTE   VOL   17*LightningSong_mvl/mxv
 BYTE   W01
 BYTE   VOL   17*LightningSong_mvl/mxv
 BYTE   W01
 BYTE   VOL   16*LightningSong_mvl/mxv
 BYTE   W01
 BYTE   VOL   15*LightningSong_mvl/mxv
 BYTE   W02
 BYTE   VOL   15*LightningSong_mvl/mxv
 BYTE   W01
 BYTE   VOL   14*LightningSong_mvl/mxv
 BYTE   W01
 BYTE   VOL   13*LightningSong_mvl/mxv
 BYTE   W02
 BYTE   VOL   13*LightningSong_mvl/mxv
 BYTE   W01
 BYTE   VOL   12*LightningSong_mvl/mxv
 BYTE   W01
 BYTE   VOL   11*LightningSong_mvl/mxv
 BYTE   W01
 BYTE   VOL   11*LightningSong_mvl/mxv
 BYTE   W02
 BYTE   VOL   10*LightningSong_mvl/mxv
 BYTE   W01
 BYTE   VOL   10*LightningSong_mvl/mxv
 BYTE   W01
 BYTE   VOL   9*LightningSong_mvl/mxv
 BYTE   W02
 BYTE   VOL   8*LightningSong_mvl/mxv
 BYTE   W01
 BYTE   VOL   8*LightningSong_mvl/mxv
 BYTE   W01
 BYTE   VOL   7*LightningSong_mvl/mxv
 BYTE   W01
 BYTE   VOL   6*LightningSong_mvl/mxv
 BYTE   W02
 BYTE   VOL   6*LightningSong_mvl/mxv
 BYTE   W01
 BYTE   VOL   5*LightningSong_mvl/mxv
 BYTE   W01
 BYTE   VOL   5*LightningSong_mvl/mxv
 BYTE   W02
 BYTE   VOL   4*LightningSong_mvl/mxv
 BYTE   W01
 BYTE   VOL   3*LightningSong_mvl/mxv
 BYTE   W01
 BYTE   VOL   3*LightningSong_mvl/mxv
 BYTE   W01
 BYTE   VOL   2*LightningSong_mvl/mxv
 BYTE   W02
 BYTE   VOL   1*LightningSong_mvl/mxv
 BYTE   W01
 BYTE   PEND 
//  #08 //021   ----------------------------------------
Label_0127F9FC:
 BYTE   VOL   0*LightningSong_mvl/mxv
 BYTE   W01
 BYTE   VOL   0*LightningSong_mvl/mxv
 BYTE   W01
 BYTE   VOL   0*LightningSong_mvl/mxv
 BYTE   W01
 BYTE   VOL   0*LightningSong_mvl/mxv
 BYTE   W92
 BYTE   W01
 BYTE   PEND 
//  #08 //022   ----------------------------------------
Label_0127FA07:
 BYTE   W03
 BYTE   VOL   7*LightningSong_mvl/mxv
 BYTE   W92
 BYTE   W01
 BYTE   PEND 
//  #08 //023   ----------------------------------------
 BYTE   W96
//  #08 //024   ----------------------------------------
 BYTE   W96
//  #08 //025   ----------------------------------------
 BYTE   PATT
  POIN2 Label_0127F77F
//  #08 //026   ----------------------------------------
 BYTE   PATT
  POIN2 Label_0127F78A
//  #08 //027   ----------------------------------------
 BYTE   PATT
  POIN2 Label_0127F7B4
//  #08 //028   ----------------------------------------
 BYTE   PATT
  POIN2 Label_0127F7DA
//  #08 //029   ----------------------------------------
 BYTE   PATT
  POIN2 Label_0127F802
//  #08 //030   ----------------------------------------
 BYTE   PATT
  POIN2 Label_0127F830
//  #08 //031   ----------------------------------------
 BYTE   PATT
  POIN2 Label_0127F85E
//  #08 //032   ----------------------------------------
 BYTE   PATT
  POIN2 Label_0127F894
//  #08 //033   ----------------------------------------
 BYTE   PATT
  POIN2 Label_0127F8C4
//  #08 //034   ----------------------------------------
 BYTE   PATT
  POIN2 Label_0127F8F5
//  #08 //035   ----------------------------------------
 BYTE   PATT
  POIN2 Label_0127F90E
//  #08 //036   ----------------------------------------
 BYTE   PATT
  POIN2 Label_0127F928
//  #08 //037   ----------------------------------------
 BYTE   PATT
  POIN2 Label_0127F947
//  #08 //038   ----------------------------------------
 BYTE   PATT
  POIN2 Label_0127F8F5
//  #08 //039   ----------------------------------------
 BYTE   PATT
  POIN2 Label_0127F90E
//  #08 //040   ----------------------------------------
 BYTE   PATT
  POIN2 Label_0127F928
//  #08 //041   ----------------------------------------
 BYTE   PATT
  POIN2 Label_0127F947
//  #08 //042   ----------------------------------------
 BYTE   PATT
  POIN2 Label_0127F963
//  #08 //043   ----------------------------------------
 BYTE   PATT
  POIN2 Label_0127F9FC
//  #08 //044   ----------------------------------------
 BYTE   PATT
  POIN2 Label_0127FA07
//  #08 //045   ----------------------------------------
 BYTE   W96
//  #08 //046   ----------------------------------------
 BYTE   W96
//  #08 //047   ----------------------------------------
 BYTE   W96
//  #08 //048   ----------------------------------------
 BYTE   W96
//  #08 //049   ----------------------------------------
 BYTE   W96
//  #08 //050   ----------------------------------------
 BYTE   W96
//  #08 //051   ----------------------------------------
 BYTE   PATT
  POIN2 Label_0127F77F
//  #08 //052   ----------------------------------------
 BYTE   PATT
  POIN2 Label_0127F78A
//  #08 //053   ----------------------------------------
 BYTE   PATT
  POIN2 Label_0127F7B4
//  #08 //054   ----------------------------------------
 BYTE   PATT
  POIN2 Label_0127F7DA
//  #08 //055   ----------------------------------------
 BYTE   PATT
  POIN2 Label_0127F802
//  #08 //056   ----------------------------------------
 BYTE   PATT
  POIN2 Label_0127F830
//  #08 //057   ----------------------------------------
 BYTE   PATT
  POIN2 Label_0127F85E
//  #08 //058   ----------------------------------------
 BYTE   PATT
  POIN2 Label_0127F894
//  #08 //059   ----------------------------------------
 BYTE   PATT
  POIN2 Label_0127F8C4
//  #08 //060   ----------------------------------------
 BYTE   PATT
  POIN2 Label_0127F8F5
//  #08 //061   ----------------------------------------
 BYTE   PATT
  POIN2 Label_0127F90E
//  #08 //062   ----------------------------------------
 BYTE   PATT
  POIN2 Label_0127F928
//  #08 //063   ----------------------------------------
 BYTE   PATT
  POIN2 Label_0127F947
//  #08 //064   ----------------------------------------
 BYTE   PATT
  POIN2 Label_0127F963
//  #08 //065   ----------------------------------------
 BYTE   PATT
  POIN2 Label_0127F9FC
//  #08 //066   ----------------------------------------
 BYTE   PATT
  POIN2 Label_0127FA07
//  #08 //067   ----------------------------------------
 BYTE   W96
//  #08 //068   ----------------------------------------
 BYTE   W96
//  #08 //069   ----------------------------------------
 BYTE   PATT
  POIN2 Label_0127F77F
//  #08 //070   ----------------------------------------
 BYTE   PATT
  POIN2 Label_0127F78A
//  #08 //071   ----------------------------------------
 BYTE   PATT
  POIN2 Label_0127F7B4
//  #08 //072   ----------------------------------------
 BYTE   PATT
  POIN2 Label_0127F7DA
//  #08 //073   ----------------------------------------
 BYTE   PATT
  POIN2 Label_0127F802
//  #08 //074   ----------------------------------------
 BYTE   PATT
  POIN2 Label_0127F830
//  #08 //075   ----------------------------------------
 BYTE   PATT
  POIN2 Label_0127F85E
//  #08 //076   ----------------------------------------
 BYTE   PATT
  POIN2 Label_0127F894
//  #08 //077   ----------------------------------------
 BYTE   PATT
  POIN2 Label_0127F8C4
//  #08 //078   ----------------------------------------
 BYTE   PATT
  POIN2 Label_0127F8F5
//  #08 //079   ----------------------------------------
 BYTE   PATT
  POIN2 Label_0127F90E
//  #08 //080   ----------------------------------------
 BYTE   PATT
  POIN2 Label_0127F928
//  #08 //081   ----------------------------------------
 BYTE   PATT
  POIN2 Label_0127F947
//  #08 //082   ----------------------------------------
 BYTE   PATT
  POIN2 Label_0127F8F5
//  #08 //083   ----------------------------------------
 BYTE   PATT
  POIN2 Label_0127F90E
//  #08 //084   ----------------------------------------
 BYTE   PATT
  POIN2 Label_0127F928
//  #08 //085   ----------------------------------------
 BYTE   PATT
  POIN2 Label_0127F947
//  #08 //086   ----------------------------------------
 BYTE   PATT
  POIN2 Label_0127F963
//  #08 //087   ----------------------------------------
 BYTE   PATT
  POIN2 Label_0127F9FC
//  #08 //088   ----------------------------------------
 BYTE   GoTo
  POIN2 Label_0127F76E
 BYTE   FINE

//**************** Track 9 (Midi-Chn.8) ****************//

LightningSong_009:
//  #09 //000   ----------------------------------------
 BYTE   KEYSH   LightningSong_key+0
Label_0127FE9A:
 BYTE   VOICE   121
 BYTE   VOL   40*LightningSong_mvl/mxv
 BYTE   PAN   c_v+0
 BYTE   VOL   40*LightningSong_mvl/mxv
 BYTE   PAN   c_v+0
 BYTE   VOL   40*LightningSong_mvl/mxv
 BYTE   PAN   c_v+0
 BYTE   N12  Cn1  v127
 BYTE   N12  Cs2
 BYTE   W12
 BYTE   Dn1
 BYTE   N12  As1
 BYTE   W12
 BYTE   N06  Cn1
 BYTE   N12  As1  v076
 BYTE   W06
 BYTE   N06  Cn1  v127
 BYTE   W06
 BYTE   N12  Dn1
 BYTE   N12  As1
 BYTE   W12
 BYTE   Cn1
 BYTE   N12  As1  v076
 BYTE   W12
 BYTE   Dn1  v127
 BYTE   N12  As1
 BYTE   W12
 BYTE   N06  Cn1
 BYTE   N12  As1  v076
 BYTE   W06
 BYTE   N06  Cn1  v127
 BYTE   W06
 BYTE   Dn1
 BYTE   N12  As1
 BYTE   W06
 BYTE   N06  Cn1
 BYTE   W06
//  #09 //001   ----------------------------------------
Label_0127FEDC:
 BYTE   N12  Cn1  v127
 BYTE   N12  Cs2
 BYTE   W12
 BYTE   Dn1
 BYTE   N12  As1
 BYTE   W12
 BYTE   N06  Cn1
 BYTE   N12  As1  v076
 BYTE   W06
 BYTE   N06  Cn1  v127
 BYTE   W06
 BYTE   N12  Dn1
 BYTE   N12  As1
 BYTE   W12
 BYTE   Cn1
 BYTE   N12  As1  v076
 BYTE   W12
 BYTE   Dn1  v127
 BYTE   N12  As1
 BYTE   W12
 BYTE   N06  Cn1
 BYTE   N12  As1  v076
 BYTE   W06
 BYTE   N06  Cn1  v127
 BYTE   W06
 BYTE   Dn1
 BYTE   N12  As1
 BYTE   W06
 BYTE   N06  Cn1
 BYTE   W06
 BYTE   PEND 
//  #09 //002   ----------------------------------------
 BYTE   PATT
  POIN2 Label_0127FEDC
//  #09 //003   ----------------------------------------
Label_0127FF16:
 BYTE   N12  Cn1  v127
 BYTE   N12  Cs2
 BYTE   W12
 BYTE   Dn1
 BYTE   N12  As1
 BYTE   W12
 BYTE   N06  Cn1
 BYTE   N12  As1  v076
 BYTE   W06
 BYTE   N06  Cn1  v127
 BYTE   W06
 BYTE   N12  Dn1
 BYTE   N12  As1
 BYTE   W12
 BYTE   Cn1
 BYTE   N12  As1  v076
 BYTE   W12
 BYTE   N06  Dn1  v127
 BYTE   N12  As1
 BYTE   W06
 BYTE   N06  Cn1
 BYTE   W06
 BYTE   Dn1
 BYTE   N12  Cs2
 BYTE   W06
 BYTE   N06  Dn1
 BYTE   W06
 BYTE   N03
 BYTE   N12  Cs2
 BYTE   W03
 BYTE   N03  Dn1
 BYTE   W03
 BYTE   N06
 BYTE   W06
 BYTE   PEND 
//  #09 //004   ----------------------------------------
Label_0127FF4E:
 BYTE   N12  Cn1  v127
 BYTE   N12  Cs2
 BYTE   W12
 BYTE   N06  Dn1
 BYTE   N12  As1
 BYTE   W06
 BYTE   N06  Cn1
 BYTE   W06
 BYTE   N12  As1  v076
 BYTE   W06
 BYTE   N06  Cn1  v127
 BYTE   W06
 BYTE   N12  Dn1
 BYTE   N12  As1
 BYTE   W12
 BYTE   N06  Cn1
 BYTE   N12  As1  v076
 BYTE   W06
 BYTE   N06  Cn1  v127
 BYTE   W06
 BYTE   Dn1
 BYTE   N12  As1
 BYTE   W06
 BYTE   N06  Cn1
 BYTE   W06
 BYTE   N06
 BYTE   N12  Cs2
 BYTE   W06
 BYTE   N03  Cn1
 BYTE   W03
 BYTE   N03
 BYTE   W03
 BYTE   N12  Dn1
 BYTE   N12  Cs2
 BYTE   W12
 BYTE   PEND 
//  #09 //005   ----------------------------------------
 BYTE   PATT
  POIN2 Label_0127FF4E
//  #09 //006   ----------------------------------------
 BYTE   PATT
  POIN2 Label_0127FF4E
//  #09 //007   ----------------------------------------
Label_0127FF93:
 BYTE   N12  Cn1  v127
 BYTE   N12  Cs2
 BYTE   W12
 BYTE   N06  Dn1
 BYTE   N12  As1
 BYTE   W06
 BYTE   N06  Cn1
 BYTE   W06
 BYTE   N12  As1  v076
 BYTE   W06
 BYTE   N06  Cn1  v127
 BYTE   W06
 BYTE   N12  Dn1
 BYTE   N12  As1
 BYTE   W12
 BYTE   N06  Cn1
 BYTE   N12  As1  v076
 BYTE   W06
 BYTE   N06  Cn1  v127
 BYTE   W06
 BYTE   Dn1
 BYTE   N12  As1
 BYTE   W06
 BYTE   N06  Cn1
 BYTE   W06
 BYTE   N03  Dn1
 BYTE   N12  Cs2
 BYTE   W03
 BYTE   N03  Dn1
 BYTE   W03
 BYTE   N06
 BYTE   W06
 BYTE   N03
 BYTE   N12  Cs2
 BYTE   W03
 BYTE   N03  Dn1
 BYTE   W03
 BYTE   N06
 BYTE   W06
 BYTE   PEND 
//  #09 //008   ----------------------------------------
Label_0127FFD3:
 BYTE   N12  Cn1  v127
 BYTE   N12  Cs2
 BYTE   W12
 BYTE   N06  Dn1
 BYTE   N12  As1
 BYTE   W06
 BYTE   N06  Cn1
 BYTE   W06
 BYTE   N12  As1  v076
 BYTE   W06
 BYTE   N06  Cn1  v127
 BYTE   W06
 BYTE   Dn1
 BYTE   N12  As1
 BYTE   W06
 BYTE   N06  Cn1
 BYTE   W06
 BYTE   N06
 BYTE   N12  As1  v076
 BYTE   W06
 BYTE   N06  Cn1  v127
 BYTE   W06
 BYTE   Dn1
 BYTE   N12  As1
 BYTE   W06
 BYTE   N06  Cn1
 BYTE   W06
 BYTE   N12  As1  v076
 BYTE   W06
 BYTE   N06  Cn1  v127
 BYTE   W06
 BYTE   Dn1
 BYTE   N12  As1
 BYTE   W06
 BYTE   N06  Cn1
 BYTE   W06
 BYTE   PEND 
//  #09 //009   ----------------------------------------
Label_01280010:
 BYTE   N12  Cn1  v127
 BYTE   N12  As1  v076
 BYTE   W12
 BYTE   N06  Dn1  v127
 BYTE   N12  As1
 BYTE   W06
 BYTE   N06  Cn1
 BYTE   W06
 BYTE   N12  As1  v076
 BYTE   W06
 BYTE   N06  Cn1  v127
 BYTE   W06
 BYTE   Dn1
 BYTE   N12  As1
 BYTE   W06
 BYTE   N06  Cn1
 BYTE   W06
 BYTE   N06
 BYTE   N12  As1  v076
 BYTE   W06
 BYTE   N06  Cn1  v127
 BYTE   W06
 BYTE   Dn1
 BYTE   N12  As1
 BYTE   W06
 BYTE   N06  Cn1
 BYTE   W06
 BYTE   N12  As1  v076
 BYTE   W06
 BYTE   N06  Cn1  v127
 BYTE   W06
 BYTE   Dn1
 BYTE   N12  As1
 BYTE   W06
 BYTE   N06  Cn1
 BYTE   W06
 BYTE   PEND 
//  #09 //010   ----------------------------------------
 BYTE   PATT
  POIN2 Label_01280010
//  #09 //011   ----------------------------------------
 BYTE   PATT
  POIN2 Label_01280010
//  #09 //012   ----------------------------------------
 BYTE   PATT
  POIN2 Label_0127FFD3
//  #09 //013   ----------------------------------------
 BYTE   PATT
  POIN2 Label_01280010
//  #09 //014   ----------------------------------------
 BYTE   PATT
  POIN2 Label_01280010
//  #09 //015   ----------------------------------------
Label_01280068:
 BYTE   N12  Cn1  v127
 BYTE   N12  As1  v076
 BYTE   W12
 BYTE   Dn1  v127
 BYTE   N12  As1
 BYTE   W12
 BYTE   N06  Cn1
 BYTE   N12  As1  v076
 BYTE   W06
 BYTE   N06  Cn1  v127
 BYTE   W06
 BYTE   N12  Dn1
 BYTE   N12  As1
 BYTE   W12
 BYTE   Cn1
 BYTE   N12  As1  v076
 BYTE   W12
 BYTE   N06  Dn1  v127
 BYTE   N12  As1
 BYTE   W06
 BYTE   N06  Cn1
 BYTE   W06
 BYTE   Dn1
 BYTE   N12  Cs2
 BYTE   W06
 BYTE   N06  Dn1
 BYTE   W06
 BYTE   N03
 BYTE   N12  Cs2
 BYTE   W03
 BYTE   N03  Dn1
 BYTE   W03
 BYTE   N06
 BYTE   W06
 BYTE   PEND 
//  #09 //016   ----------------------------------------
 BYTE   PATT
  POIN2 Label_0127FFD3
//  #09 //017   ----------------------------------------
Label_012800A7:
 BYTE   N12  Cn1  v127
 BYTE   N12  As1  v076
 BYTE   W12
 BYTE   N06  Dn1  v127
 BYTE   N12  As1
 BYTE   W06
 BYTE   N06  Cn1
 BYTE   W06
 BYTE   N12  As1  v076
 BYTE   W06
 BYTE   N06  Cn1  v127
 BYTE   W06
 BYTE   Dn1
 BYTE   N12  As1
 BYTE   W06
 BYTE   N06  Cn1
 BYTE   W06
 BYTE   N06
 BYTE   N12  Cs2
 BYTE   W06
 BYTE   N06  Cn1
 BYTE   W06
 BYTE   Dn1
 BYTE   N12  Cs2
 BYTE   W06
 BYTE   N06  Cn1
 BYTE   W06
 BYTE   N12  Cs2
 BYTE   W06
 BYTE   N06  Cn1
 BYTE   W06
 BYTE   Dn1
 BYTE   N12  Cs2
 BYTE   W06
 BYTE   N06  Cn1
 BYTE   W06
 BYTE   PEND 
//  #09 //018   ----------------------------------------
 BYTE   PATT
  POIN2 Label_0127FFD3
//  #09 //019   ----------------------------------------
Label_012800E7:
 BYTE   N12  Cn1  v127
 BYTE   N18  An2
 BYTE   W12
 BYTE   N06  Dn1
 BYTE   W06
 BYTE   Cn1
 BYTE   N06  An2
 BYTE   W12
 BYTE   Cn1
 BYTE   W06
 BYTE   Dn1
 BYTE   W06
 BYTE   Cn1
 BYTE   N06  Cs2
 BYTE   W06
 BYTE   Cn1
 BYTE   W06
 BYTE   N06
 BYTE   W06
 BYTE   Dn1
 BYTE   N12  As1
 BYTE   W06
 BYTE   N06  Cn1
 BYTE   W06
 BYTE   N12  As1  v076
 BYTE   W06
 BYTE   N06  Cn1  v127
 BYTE   W06
 BYTE   Dn1
 BYTE   N12  As1
 BYTE   W06
 BYTE   N06  Cn1
 BYTE   W06
 BYTE   PEND 
//  #09 //020   ----------------------------------------
 BYTE   PATT
  POIN2 Label_0127FFD3
//  #09 //021   ----------------------------------------
Label_0128011C:
 BYTE   N12  Cn1  v127
 BYTE   N12  As1  v076
 BYTE   W12
 BYTE   N06  Dn1  v127
 BYTE   N12  As1
 BYTE   W06
 BYTE   N06  Cn1
 BYTE   W06
 BYTE   N12  As1  v076
 BYTE   W06
 BYTE   N06  Cn1  v127
 BYTE   W06
 BYTE   Dn1
 BYTE   N12  As1
 BYTE   W06
 BYTE   N06  Cn1
 BYTE   W06
 BYTE   N06
 BYTE   N12  As1  v076
 BYTE   W06
 BYTE   N06  Cn1  v127
 BYTE   W06
 BYTE   Dn1
 BYTE   N12  As1
 BYTE   W06
 BYTE   N06  Cn1
 BYTE   W06
 BYTE   Dn1
 BYTE   N12  Cs2
 BYTE   W06
 BYTE   N06  Cn1
 BYTE   W06
 BYTE   N03  Dn1
 BYTE   N12  Cs2
 BYTE   W03
 BYTE   N03  Dn1
 BYTE   W03
 BYTE   N06  Cn1
 BYTE   W06
 BYTE   PEND 
//  #09 //022   ----------------------------------------
 BYTE   PATT
  POIN2 Label_0127FEDC
//  #09 //023   ----------------------------------------
 BYTE   PATT
  POIN2 Label_0127FEDC
//  #09 //024   ----------------------------------------
 BYTE   PATT
  POIN2 Label_0127FEDC
//  #09 //025   ----------------------------------------
 BYTE   PATT
  POIN2 Label_0127FF16
//  #09 //026   ----------------------------------------
 BYTE   PATT
  POIN2 Label_0127FFD3
//  #09 //027   ----------------------------------------
 BYTE   PATT
  POIN2 Label_01280010
//  #09 //028   ----------------------------------------
 BYTE   PATT
  POIN2 Label_01280010
//  #09 //029   ----------------------------------------
 BYTE   PATT
  POIN2 Label_01280010
//  #09 //030   ----------------------------------------
 BYTE   PATT
  POIN2 Label_0127FFD3
//  #09 //031   ----------------------------------------
 BYTE   PATT
  POIN2 Label_01280010
//  #09 //032   ----------------------------------------
 BYTE   PATT
  POIN2 Label_01280010
//  #09 //033   ----------------------------------------
 BYTE   PATT
  POIN2 Label_01280068
//  #09 //034   ----------------------------------------
 BYTE   PATT
  POIN2 Label_0127FFD3
//  #09 //035   ----------------------------------------
Label_0128019F:
 BYTE   N12  Cn1  v127
 BYTE   N12  As1  v076
 BYTE   W12
 BYTE   N06  Dn1  v127
 BYTE   N12  As1
 BYTE   W06
 BYTE   N06  Cn1
 BYTE   W06
 BYTE   N12  As1  v076
 BYTE   W06
 BYTE   N06  Cn1  v127
 BYTE   W06
 BYTE   Dn1
 BYTE   N12  As1
 BYTE   W06
 BYTE   N06  Cn1
 BYTE   W06
 BYTE   Dn1
 BYTE   N12  Cs2
 BYTE   W06
 BYTE   N03  Cn1
 BYTE   W03
 BYTE   Bn0
 BYTE   W03
 BYTE   N06  Dn1
 BYTE   N12  Cs2
 BYTE   W06
 BYTE   N03  Cn1
 BYTE   W03
 BYTE   Bn0
 BYTE   W03
 BYTE   N06  Dn1
 BYTE   N12  Cs2
 BYTE   W06
 BYTE   N03  Cn1
 BYTE   W03
 BYTE   Bn0
 BYTE   W03
 BYTE   N06  Dn1
 BYTE   N12  Cs2
 BYTE   W06
 BYTE   N03  Dn1
 BYTE   W03
 BYTE   N03
 BYTE   W03
 BYTE   PEND 
//  #09 //036   ----------------------------------------
 BYTE   PATT
  POIN2 Label_0127FFD3
//  #09 //037   ----------------------------------------
 BYTE   PATT
  POIN2 Label_012800E7
//  #09 //038   ----------------------------------------
Label_012801F0:
 BYTE   N06  Dn1  v127
 BYTE   N12  Cs2
 BYTE   W06
 BYTE   N03  Cn1
 BYTE   W03
 BYTE   Bn0
 BYTE   W03
 BYTE   N06  Dn1
 BYTE   N12  As1
 BYTE   W06
 BYTE   N03  Cn1
 BYTE   W03
 BYTE   Bn0
 BYTE   W03
 BYTE   N06  Dn1
 BYTE   N12  As1  v076
 BYTE   W06
 BYTE   N03  Cn1  v127
 BYTE   W03
 BYTE   Bn0
 BYTE   W03
 BYTE   N06  Dn1
 BYTE   N12  As1
 BYTE   W06
 BYTE   N03  Cn1
 BYTE   W03
 BYTE   Bn0
 BYTE   W03
 BYTE   N06  Dn1
 BYTE   N12  As1  v076
 BYTE   W06
 BYTE   N03  Cn1  v127
 BYTE   W03
 BYTE   Bn0
 BYTE   W03
 BYTE   N06  Dn1
 BYTE   N12  As1
 BYTE   W06
 BYTE   N03  Cn1
 BYTE   W03
 BYTE   Bn0
 BYTE   W03
 BYTE   N06  Dn1
 BYTE   N12  As1  v076
 BYTE   W06
 BYTE   N03  Cn1  v127
 BYTE   W03
 BYTE   Bn0
 BYTE   W03
 BYTE   N06  Dn1
 BYTE   N12  As1
 BYTE   W06
 BYTE   N03  Cn1
 BYTE   W03
 BYTE   Bn0
 BYTE   W03
 BYTE   PEND 
//  #09 //039   ----------------------------------------
Label_01280248:
 BYTE   N06  Dn1  v127
 BYTE   N12  As1  v076
 BYTE   W06
 BYTE   N03  Cn1  v127
 BYTE   W03
 BYTE   Bn0
 BYTE   W03
 BYTE   N06  Dn1
 BYTE   N12  As1
 BYTE   W06
 BYTE   N03  Cn1
 BYTE   W03
 BYTE   Bn0
 BYTE   W03
 BYTE   N06  Dn1
 BYTE   N12  As1  v076
 BYTE   W06
 BYTE   N03  Cn1  v127
 BYTE   W03
 BYTE   Bn0
 BYTE   W03
 BYTE   N06  Dn1
 BYTE   N12  As1
 BYTE   W06
 BYTE   N03  Cn1
 BYTE   W03
 BYTE   Bn0
 BYTE   W03
 BYTE   N06  Dn1
 BYTE   N12  Cs2
 BYTE   W06
 BYTE   N03  Cn1
 BYTE   W03
 BYTE   Bn0
 BYTE   W03
 BYTE   N06  Dn1
 BYTE   N12  Cs2
 BYTE   W06
 BYTE   N03  Cn1
 BYTE   W03
 BYTE   Bn0
 BYTE   W03
 BYTE   N06  Dn1
 BYTE   N12  Cs2
 BYTE   W06
 BYTE   N03  Cn1
 BYTE   W03
 BYTE   Bn0
 BYTE   W03
 BYTE   N06  Dn1
 BYTE   N12  Cs2
 BYTE   W06
 BYTE   N03  Cn1
 BYTE   W03
 BYTE   Bn0
 BYTE   W03
 BYTE   PEND 
//  #09 //040   ----------------------------------------
 BYTE   PATT
  POIN2 Label_012801F0
//  #09 //041   ----------------------------------------
Label_012802A3:
 BYTE   N06  Dn1  v127
 BYTE   N12  As1  v076
 BYTE   W06
 BYTE   N03  Cn1  v127
 BYTE   W03
 BYTE   Bn0
 BYTE   W03
 BYTE   N06  Dn1
 BYTE   N12  As1
 BYTE   W06
 BYTE   N03  Cn1
 BYTE   W03
 BYTE   Bn0
 BYTE   W03
 BYTE   N06  Dn1
 BYTE   N12  As1  v076
 BYTE   W06
 BYTE   N03  Cn1  v127
 BYTE   W03
 BYTE   Bn0
 BYTE   W03
 BYTE   N06  Dn1
 BYTE   N12  As1
 BYTE   W06
 BYTE   N03  Cn1
 BYTE   W03
 BYTE   Bn0
 BYTE   W03
 BYTE   N06  Dn1
 BYTE   N18  Cs2
 BYTE   W06
 BYTE   N06  Cn1
 BYTE   W06
 BYTE   Bn0
 BYTE   W06
 BYTE   Dn1
 BYTE   N18  Cs2
 BYTE   W06
 BYTE   N06  Cn1
 BYTE   W06
 BYTE   Bn0
 BYTE   W06
 BYTE   N03  Dn1
 BYTE   N12  Cs2
 BYTE   W03
 BYTE   N03  Dn1
 BYTE   W03
 BYTE   N06
 BYTE   W06
 BYTE   PEND 
//  #09 //042   ----------------------------------------
 BYTE   PATT
  POIN2 Label_0127FFD3
//  #09 //043   ----------------------------------------
 BYTE   PATT
  POIN2 Label_0128011C
//  #09 //044   ----------------------------------------
 BYTE   PATT
  POIN2 Label_0127FEDC
//  #09 //045   ----------------------------------------
 BYTE   PATT
  POIN2 Label_0127FEDC
//  #09 //046   ----------------------------------------
 BYTE   PATT
  POIN2 Label_0127FEDC
//  #09 //047   ----------------------------------------
 BYTE   PATT
  POIN2 Label_0127FF16
//  #09 //048   ----------------------------------------
 BYTE   PATT
  POIN2 Label_0127FF4E
//  #09 //049   ----------------------------------------
 BYTE   PATT
  POIN2 Label_0127FF4E
//  #09 //050   ----------------------------------------
 BYTE   PATT
  POIN2 Label_0127FF4E
//  #09 //051   ----------------------------------------
 BYTE   PATT
  POIN2 Label_0127FF93
//  #09 //052   ----------------------------------------
 BYTE   PATT
  POIN2 Label_0127FFD3
//  #09 //053   ----------------------------------------
 BYTE   PATT
  POIN2 Label_01280010
//  #09 //054   ----------------------------------------
 BYTE   PATT
  POIN2 Label_01280010
//  #09 //055   ----------------------------------------
 BYTE   PATT
  POIN2 Label_01280010
//  #09 //056   ----------------------------------------
 BYTE   PATT
  POIN2 Label_0127FFD3
//  #09 //057   ----------------------------------------
 BYTE   PATT
  POIN2 Label_01280010
//  #09 //058   ----------------------------------------
 BYTE   PATT
  POIN2 Label_01280010
//  #09 //059   ----------------------------------------
 BYTE   PATT
  POIN2 Label_01280068
//  #09 //060   ----------------------------------------
 BYTE   PATT
  POIN2 Label_0127FFD3
//  #09 //061   ----------------------------------------
 BYTE   PATT
  POIN2 Label_012800A7
//  #09 //062   ----------------------------------------
 BYTE   PATT
  POIN2 Label_0127FFD3
//  #09 //063   ----------------------------------------
 BYTE   PATT
  POIN2 Label_012800E7
//  #09 //064   ----------------------------------------
 BYTE   PATT
  POIN2 Label_0127FFD3
//  #09 //065   ----------------------------------------
 BYTE   PATT
  POIN2 Label_0128011C
//  #09 //066   ----------------------------------------
 BYTE   PATT
  POIN2 Label_0127FEDC
//  #09 //067   ----------------------------------------
 BYTE   PATT
  POIN2 Label_0127FEDC
//  #09 //068   ----------------------------------------
 BYTE   PATT
  POIN2 Label_0127FEDC
//  #09 //069   ----------------------------------------
 BYTE   PATT
  POIN2 Label_0127FF16
//  #09 //070   ----------------------------------------
 BYTE   PATT
  POIN2 Label_0127FFD3
//  #09 //071   ----------------------------------------
 BYTE   PATT
  POIN2 Label_01280010
//  #09 //072   ----------------------------------------
 BYTE   PATT
  POIN2 Label_01280010
//  #09 //073   ----------------------------------------
 BYTE   PATT
  POIN2 Label_01280010
//  #09 //074   ----------------------------------------
 BYTE   PATT
  POIN2 Label_0127FFD3
//  #09 //075   ----------------------------------------
 BYTE   PATT
  POIN2 Label_01280010
//  #09 //076   ----------------------------------------
 BYTE   PATT
  POIN2 Label_01280010
//  #09 //077   ----------------------------------------
 BYTE   PATT
  POIN2 Label_01280068
//  #09 //078   ----------------------------------------
 BYTE   PATT
  POIN2 Label_0127FFD3
//  #09 //079   ----------------------------------------
 BYTE   PATT
  POIN2 Label_0128019F
//  #09 //080   ----------------------------------------
 BYTE   PATT
  POIN2 Label_0127FFD3
//  #09 //081   ----------------------------------------
 BYTE   PATT
  POIN2 Label_012800E7
//  #09 //082   ----------------------------------------
 BYTE   PATT
  POIN2 Label_012801F0
//  #09 //083   ----------------------------------------
 BYTE   PATT
  POIN2 Label_01280248
//  #09 //084   ----------------------------------------
 BYTE   PATT
  POIN2 Label_012801F0
//  #09 //085   ----------------------------------------
 BYTE   PATT
  POIN2 Label_012802A3
//  #09 //086   ----------------------------------------
 BYTE   PATT
  POIN2 Label_0127FFD3
//  #09 //087   ----------------------------------------
 BYTE   PATT
  POIN2 Label_0128011C
//  #09 //088   ----------------------------------------
 BYTE   GoTo
  POIN2 Label_0127FE9A
 BYTE   FINE

//******************************************************//
	ALIGN 4

LightningSong:
	BYTE	9	// NumTrks
	BYTE	0	// NumBlks
	BYTE	LightningSong_pri	// Priority
	BYTE	LightningSong_rev	// Reverb.
    
	POIN2	LightningSong_grp
    
	POIN2	LightningSong_001
	POIN2	LightningSong_002
	POIN2	LightningSong_003
	POIN2	LightningSong_004
	POIN2	LightningSong_005
	POIN2	LightningSong_006
	POIN2	LightningSong_007
	POIN2	LightningSong_008
	POIN2	LightningSong_009

	
