	.include "MPlayDef.s"

	.equ	LoZMMStoneTowerTemple_grp, voicegroup000
	.equ	LoZMMStoneTowerTemple_pri, 10
	.equ	LoZMMStoneTowerTemple_rev, 0
	.equ	LoZMMStoneTowerTemple_mvl, 127
	.equ	LoZMMStoneTowerTemple_key, 0
	.equ	LoZMMStoneTowerTemple_tbs, 1
	.equ	LoZMMStoneTowerTemple_exg, 0
	.equ	LoZMMStoneTowerTemple_cmp, 1

	.section .rodata
	.global	LoZMMStoneTowerTemple
	.align	2


@**************** Track 1 (Midi-Chn.0) ****************@

LoZMMStoneTowerTemple_001:
@  #01 @000   ----------------------------------------
Label_01005D50:
 .byte   TEMPO , 100*LoZMMStoneTowerTemple_tbs/2
 .byte   KEYSH , LoZMMStoneTowerTemple_key+0
 .byte   VOL , 61*LoZMMStoneTowerTemple_mvl/mxv
 .byte   PAN , c_v+0
 .byte   W96
@  #01 @001   ----------------------------------------
 .byte   W96
@  #01 @002   ----------------------------------------
 .byte   VOICE , 52
 .byte   N96 ,En1 ,v096
 .byte   W96
@  #01 @003   ----------------------------------------
 .byte   N48 ,Fn1
 .byte   W48
 .byte   Dn1
 .byte   W48
@  #01 @004   ----------------------------------------
 .byte   N96 ,En1
 .byte   W96
@  #01 @005   ----------------------------------------
 .byte   N48 ,Fn1
 .byte   W48
 .byte   En1
 .byte   W48
@  #01 @006   ----------------------------------------
 .byte   N96
 .byte   W96
@  #01 @007   ----------------------------------------
 .byte   N48 ,Fn1
 .byte   W48
 .byte   Dn1
 .byte   W48
@  #01 @008   ----------------------------------------
 .byte   N96 ,En1
 .byte   W96
@  #01 @009   ----------------------------------------
 .byte   N48 ,Fn1
 .byte   W48
 .byte   Dn1
 .byte   W48
@  #01 @010   ----------------------------------------
 .byte   N96 ,En1
 .byte   W96
@  #01 @011   ----------------------------------------
 .byte   N48 ,Fn1
 .byte   W48
 .byte   En1
 .byte   W48
@  #01 @012   ----------------------------------------
 .byte   N96
 .byte   W96
@  #01 @013   ----------------------------------------
 .byte   N48 ,Fn1
 .byte   W48
 .byte   Dn1
 .byte   W48
@  #01 @014   ----------------------------------------
 .byte   N96 ,En1
 .byte   W96
@  #01 @015   ----------------------------------------
 .byte   N48 ,Fn1
 .byte   W48
 .byte   En1
 .byte   W48
@  #01 @016   ----------------------------------------
 .byte   N96
 .byte   W96
@  #01 @017   ----------------------------------------
 .byte   N48 ,Fn1
 .byte   W48
 .byte   Dn1
 .byte   W48
@  #01 @018   ----------------------------------------
 .byte   N96 ,En1
 .byte   W96
@  #01 @019   ----------------------------------------
 .byte   N48 ,Fn1
 .byte   W48
 .byte   En1
 .byte   W48
@  #01 @020   ----------------------------------------
 .byte   N96
 .byte   W96
@  #01 @021   ----------------------------------------
 .byte   N48 ,Fn1
 .byte   W48
 .byte   Dn1
 .byte   W48
@  #01 @022   ----------------------------------------
 .byte   N96 ,En1
 .byte   W96
@  #01 @023   ----------------------------------------
 .byte   N48 ,Fn1
 .byte   W48
 .byte   En1
 .byte   W48
@  #01 @024   ----------------------------------------
 .byte   N96
 .byte   W96
@  #01 @025   ----------------------------------------
 .byte   N48 ,Fn1
 .byte   W48
 .byte   Dn1
 .byte   W48
@  #01 @026   ----------------------------------------
 .byte   N96 ,En1
 .byte   W96
@  #01 @027   ----------------------------------------
 .byte   N48 ,Fn1
 .byte   W48
 .byte   En1
 .byte   W48
@  #01 @028   ----------------------------------------
 .byte   N96
 .byte   W96
@  #01 @029   ----------------------------------------
 .byte   N48 ,Fn1 ,v080
 .byte   W48
 .byte   Dn1 ,v056
 .byte   W48
@  #01 @030   ----------------------------------------
 .byte   N96 ,En1 ,v033
 .byte   W96
@  #01 @031   ----------------------------------------
 .byte   W96
@  #01 @032   ----------------------------------------
 .byte   W96
@  #01 @033   ----------------------------------------
 .byte   W96
@  #01 @034   ----------------------------------------
 .byte   En1 ,v096
 .byte   W96
@  #01 @035   ----------------------------------------
Label_01005DD3:
 .byte   N48 ,Fn1 ,v096
 .byte   W48
 .byte   Dn1
 .byte   W48
 .byte   PEND 
@  #01 @036   ----------------------------------------
 .byte   N96 ,En1 ,v096
 .byte   W96
@  #01 @037   ----------------------------------------
Label_01005DDE:
 .byte   N48 ,Fn1 ,v096
 .byte   W48
 .byte   En1
 .byte   W48
 .byte   PEND 
@  #01 @038   ----------------------------------------
 .byte   N96 ,En1 ,v096
 .byte   W96
@  #01 @039   ----------------------------------------
 .byte   PATT
  .word Label_01005DD3
@  #01 @040   ----------------------------------------
 .byte   N96 ,En1 ,v096
 .byte   W96
@  #01 @041   ----------------------------------------
 .byte   PATT
  .word Label_01005DD3
@  #01 @042   ----------------------------------------
 .byte   N96 ,En1 ,v096
 .byte   W96
@  #01 @043   ----------------------------------------
 .byte   PATT
  .word Label_01005DDE
@  #01 @044   ----------------------------------------
 .byte   N96 ,En1 ,v096
 .byte   W96
@  #01 @045   ----------------------------------------
 .byte   PATT
  .word Label_01005DD3
@  #01 @046   ----------------------------------------
 .byte   N96 ,En1 ,v096
 .byte   W96
@  #01 @047   ----------------------------------------
 .byte   PATT
  .word Label_01005DDE
@  #01 @048   ----------------------------------------
 .byte   N96 ,En1 ,v096
 .byte   W96
@  #01 @049   ----------------------------------------
 .byte   PATT
  .word Label_01005DD3
@  #01 @050   ----------------------------------------
 .byte   N96 ,En1 ,v096
 .byte   W96
@  #01 @051   ----------------------------------------
 .byte   PATT
  .word Label_01005DDE
@  #01 @052   ----------------------------------------
 .byte   N96 ,En1 ,v096
 .byte   W96
@  #01 @053   ----------------------------------------
 .byte   PATT
  .word Label_01005DD3
@  #01 @054   ----------------------------------------
 .byte   N96 ,En1 ,v096
 .byte   W96
@  #01 @055   ----------------------------------------
 .byte   PATT
  .word Label_01005DDE
@  #01 @056   ----------------------------------------
 .byte   N96 ,En1 ,v096
 .byte   W96
@  #01 @057   ----------------------------------------
 .byte   PATT
  .word Label_01005DD3
@  #01 @058   ----------------------------------------
 .byte   N96 ,En1 ,v096
 .byte   W96
@  #01 @059   ----------------------------------------
 .byte   PATT
  .word Label_01005DDE
@  #01 @060   ----------------------------------------
 .byte   N96 ,En1 ,v096
 .byte   W96
@  #01 @061   ----------------------------------------
 .byte   N48 ,Fn1 ,v080
 .byte   W48
 .byte   Dn1 ,v056
 .byte   W48
@  #01 @062   ----------------------------------------
 .byte   N96 ,En1 ,v033
 .byte   W96
@  #01 @063   ----------------------------------------
 .byte   W96
@  #01 @064   ----------------------------------------
 .byte   GOTO
  .word Label_01005D50
 .byte   FINE

@**************** Track 2 (Midi-Chn.1) ****************@

LoZMMStoneTowerTemple_002:
@  #02 @000   ----------------------------------------
Label_01005B50:
 .byte   TEMPO , 100*LoZMMStoneTowerTemple_tbs/2
 .byte   KEYSH , LoZMMStoneTowerTemple_key+0
 .byte   VOICE , 66
 .byte   VOL , 90*LoZMMStoneTowerTemple_mvl/mxv
 .byte   PAN , c_v+0
 .byte   W96
@  #02 @001   ----------------------------------------
 .byte   W96
@  #02 @002   ----------------------------------------
 .byte   W96
@  #02 @003   ----------------------------------------
 .byte   W96
@  #02 @004   ----------------------------------------
 .byte   W96
@  #02 @005   ----------------------------------------
 .byte   W96
@  #02 @006   ----------------------------------------
Label_01005B60:
 .byte   N12 ,An1 ,v096
 .byte   W12
 .byte   N06 ,En2
 .byte   W12
 .byte   An1
 .byte   W12
 .byte   En2
 .byte   W12
 .byte   N12 ,An1
 .byte   W12
 .byte   N06 ,En2
 .byte   W12
 .byte   N24 ,Fn2
 .byte   W24
 .byte   PEND 
@  #02 @007   ----------------------------------------
Label_01005B75:
 .byte   N12 ,An1 ,v096
 .byte   W12
 .byte   N06 ,En2
 .byte   W12
 .byte   An1
 .byte   W12
 .byte   En2
 .byte   W12
 .byte   N12 ,An1
 .byte   W12
 .byte   N06 ,En2
 .byte   W12
 .byte   N24 ,Dn2
 .byte   W24
 .byte   PEND 
@  #02 @008   ----------------------------------------
 .byte   PATT
  .word Label_01005B60
@  #02 @009   ----------------------------------------
 .byte   PATT
  .word Label_01005B75
@  #02 @010   ----------------------------------------
 .byte   PATT
  .word Label_01005B60
@  #02 @011   ----------------------------------------
Label_01005B99:
 .byte   N08 ,An1 ,v096
 .byte   W12
 .byte   N06 ,En2
 .byte   W12
 .byte   An1
 .byte   W12
 .byte   En2
 .byte   W12
 .byte   N12 ,An1
 .byte   W12
 .byte   N06 ,En2
 .byte   W12
 .byte   N24 ,Dn2
 .byte   W24
 .byte   PEND 
@  #02 @012   ----------------------------------------
 .byte   PATT
  .word Label_01005B60
@  #02 @013   ----------------------------------------
 .byte   PATT
  .word Label_01005B75
@  #02 @014   ----------------------------------------
 .byte   PATT
  .word Label_01005B60
@  #02 @015   ----------------------------------------
Label_01005BBD:
 .byte   N12 ,An1 ,v096
 .byte   W12
 .byte   N06 ,En2
 .byte   W12
 .byte   An1
 .byte   W12
 .byte   En2
 .byte   W12
 .byte   N12 ,An1
 .byte   W12
 .byte   N06 ,En2
 .byte   W12
 .byte   N24 ,Dn2
 .byte   W96
@  #02 @016   ----------------------------------------
 .byte   W96
@  #02 @017   ----------------------------------------
 .byte   W96
@  #02 @018   ----------------------------------------
 .byte   W96
@  #02 @019   ----------------------------------------
 .byte   W24
 .byte   PEND 
@  #02 @020   ----------------------------------------
 .byte   PATT
  .word Label_01005B60
@  #02 @021   ----------------------------------------
 .byte   PATT
  .word Label_01005B75
@  #02 @022   ----------------------------------------
 .byte   PATT
  .word Label_01005B60
@  #02 @023   ----------------------------------------
 .byte   PATT
  .word Label_01005B75
@  #02 @024   ----------------------------------------
 .byte   PATT
  .word Label_01005B60
@  #02 @025   ----------------------------------------
 .byte   PATT
  .word Label_01005B75
@  #02 @026   ----------------------------------------
 .byte   PATT
  .word Label_01005B60
@  #02 @027   ----------------------------------------
 .byte   N12 ,An1 ,v096
 .byte   W12
 .byte   N06 ,En2
 .byte   W12
 .byte   An1
 .byte   W12
 .byte   En2
 .byte   W12
 .byte   N12 ,An1
 .byte   W12
 .byte   N06 ,En2
 .byte   W12
 .byte   N24 ,Dn2
 .byte   W96
@  #02 @028   ----------------------------------------
 .byte   W96
@  #02 @029   ----------------------------------------
 .byte   W96
@  #02 @030   ----------------------------------------
 .byte   W96
@  #02 @031   ----------------------------------------
 .byte   W96
@  #02 @032   ----------------------------------------
 .byte   W96
@  #02 @033   ----------------------------------------
 .byte   W96
@  #02 @034   ----------------------------------------
 .byte   W96
@  #02 @035   ----------------------------------------
 .byte   W96
@  #02 @036   ----------------------------------------
 .byte   W96
@  #02 @037   ----------------------------------------
 .byte   W24
@  #02 @038   ----------------------------------------
 .byte   PATT
  .word Label_01005B60
@  #02 @039   ----------------------------------------
 .byte   PATT
  .word Label_01005B75
@  #02 @040   ----------------------------------------
 .byte   PATT
  .word Label_01005B60
@  #02 @041   ----------------------------------------
 .byte   PATT
  .word Label_01005B75
@  #02 @042   ----------------------------------------
 .byte   PATT
  .word Label_01005B60
@  #02 @043   ----------------------------------------
 .byte   PATT
  .word Label_01005B99
@  #02 @044   ----------------------------------------
 .byte   PATT
  .word Label_01005B60
@  #02 @045   ----------------------------------------
 .byte   PATT
  .word Label_01005B75
@  #02 @046   ----------------------------------------
 .byte   PATT
  .word Label_01005B60
@  #02 @047   ----------------------------------------
 .byte   PATT
  .word Label_01005BBD
@  #02 @048   ----------------------------------------
 .byte   PATT
  .word Label_01005B60
@  #02 @049   ----------------------------------------
 .byte   PATT
  .word Label_01005B75
@  #02 @050   ----------------------------------------
 .byte   PATT
  .word Label_01005B60
@  #02 @051   ----------------------------------------
 .byte   PATT
  .word Label_01005B75
@  #02 @052   ----------------------------------------
 .byte   PATT
  .word Label_01005B60
@  #02 @053   ----------------------------------------
 .byte   PATT
  .word Label_01005B75
@  #02 @054   ----------------------------------------
 .byte   PATT
  .word Label_01005B60
@  #02 @055   ----------------------------------------
 .byte   PATT
  .word Label_01005BBD
@  #02 @056   ----------------------------------------
 .byte   GOTO
  .word Label_01005B50
 .byte   FINE

@**************** Track 3 (Midi-Chn.2) ****************@

LoZMMStoneTowerTemple_003:
@  #03 @000   ----------------------------------------
Label_01006E98:
 .byte   TEMPO , 100*LoZMMStoneTowerTemple_tbs/2
 .byte   KEYSH , LoZMMStoneTowerTemple_key+0
 .byte   VOICE , 75
 .byte   VOL , 35*LoZMMStoneTowerTemple_mvl/mxv
 .byte   PAN , c_v+0
 .byte   W96
@  #03 @001   ----------------------------------------
 .byte   W96
@  #03 @002   ----------------------------------------
 .byte   W96
@  #03 @003   ----------------------------------------
 .byte   W96
@  #03 @004   ----------------------------------------
 .byte   W96
@  #03 @005   ----------------------------------------
 .byte   W96
@  #03 @006   ----------------------------------------
 .byte   W96
@  #03 @007   ----------------------------------------
 .byte   W96
@  #03 @008   ----------------------------------------
Label_01006EAA:
 .byte   N24 ,An4 ,v096
 .byte   W24
 .byte   Cn5
 .byte   W24
 .byte   N36 ,Bn4
 .byte   W36
 .byte   N12 ,Gn4
 .byte   W12
 .byte   PEND 
@  #03 @009   ----------------------------------------
Label_01006EB7:
 .byte   N12 ,An4 ,v096
 .byte   W12
 .byte   Cn5
 .byte   W12
 .byte   N04 ,Bn4
 .byte   W03
 .byte   Cn5
 .byte   W03
 .byte   Bn4
 .byte   W06
 .byte   N12 ,An4
 .byte   W12
 .byte   N24 ,Gn4
 .byte   W24
 .byte   En4
 .byte   W24
 .byte   PEND 
@  #03 @010   ----------------------------------------
 .byte   PATT
  .word Label_01006EAA
@  #03 @011   ----------------------------------------
Label_01006ED2:
 .byte   N12 ,An4 ,v096
 .byte   W12
 .byte   Cn5
 .byte   W12
 .byte   N04 ,Bn4
 .byte   W03
 .byte   Cn5
 .byte   W03
 .byte   Bn4
 .byte   W06
 .byte   N12 ,Gn4
 .byte   W12
 .byte   N48 ,An4
 .byte   W48
 .byte   PEND 
@  #03 @012   ----------------------------------------
 .byte   PATT
  .word Label_01006EAA
@  #03 @013   ----------------------------------------
 .byte   PATT
  .word Label_01006EB7
@  #03 @014   ----------------------------------------
 .byte   PATT
  .word Label_01006EAA
@  #03 @015   ----------------------------------------
Label_01006EF5:
 .byte   N12 ,An4 ,v096
 .byte   W12
 .byte   Cn5
 .byte   W12
 .byte   N04 ,Bn4
 .byte   W03
 .byte   Cn5
 .byte   W03
 .byte   Bn4
 .byte   W06
 .byte   N12 ,Gn4
 .byte   W12
 .byte   N48 ,An4
 .byte   W96
@  #03 @016   ----------------------------------------
 .byte   W96
@  #03 @017   ----------------------------------------
 .byte   W96
@  #03 @018   ----------------------------------------
 .byte   W96
@  #03 @019   ----------------------------------------
 .byte   W48
 .byte   PEND 
Label_01006F0D:
 .byte   N24 ,Gn4 ,v096
 .byte   N24 ,En5
 .byte   W24
 .byte   Gn4
 .byte   N24 ,En5
 .byte   W24
@  #03 @020   ----------------------------------------
 .byte   N36 ,Fn4
 .byte   N36 ,Dn5
 .byte   W36
 .byte   N06 ,Bn4
 .byte   W12
 .byte   PEND 
Label_01006F20:
 .byte   N24 ,En5 ,v096
 .byte   N24 ,Gn4
 .byte   W24
 .byte   N06 ,Fn4
 .byte   N06 ,Dn5
 .byte   W12
 .byte   En4
 .byte   N06 ,Cn5
 .byte   W12
@  #03 @021   ----------------------------------------
 .byte   N48 ,Dn4
 .byte   N48 ,Bn4
 .byte   W48
 .byte   PEND 
Label_01006F35:
 .byte   N24 ,Gn4 ,v096
 .byte   N24 ,En5
 .byte   W24
 .byte   Gn4
 .byte   N24 ,En5
 .byte   W24
@  #03 @022   ----------------------------------------
 .byte   N36 ,Fn4
 .byte   N36 ,Dn5
 .byte   W36
 .byte   N06 ,En4
 .byte   N06 ,Cn5
 .byte   W12
 .byte   PEND 
Label_01006F4A:
 .byte   N24 ,Dn4 ,v096
 .byte   N24 ,Bn4
 .byte   W24
 .byte   Dn4
 .byte   N24 ,Bn4
 .byte   W24
@  #03 @023   ----------------------------------------
 .byte   N48 ,Cn4
 .byte   N48 ,An4
 .byte   W48
 .byte   PEND 
Label_01006F5A:
 .byte   N24 ,Gn4 ,v096
 .byte   N24 ,En5
 .byte   W24
 .byte   Gn4
 .byte   N24 ,En5
 .byte   W24
@  #03 @024   ----------------------------------------
 .byte   N48 ,Fn4
 .byte   N48 ,Dn5
 .byte   W48
 .byte   PEND 
Label_01006F6A:
 .byte   N24 ,Gn4 ,v096
 .byte   N24 ,En5
 .byte   W24
 .byte   N06 ,Fn4
 .byte   N06 ,Dn5
 .byte   W12
 .byte   En4
 .byte   N06 ,Cn5
 .byte   W12
@  #03 @025   ----------------------------------------
 .byte   N48 ,Dn4
 .byte   N48 ,Bn4
 .byte   W48
 .byte   PEND 
 .byte   N12 ,Gn4 ,v080
 .byte   N12 ,En5
 .byte   W12
 .byte   N06 ,An4 ,v089
 .byte   N06 ,Fn5
 .byte   W12
 .byte   N12 ,Gn4 ,v098
 .byte   N12 ,En5
 .byte   W12
 .byte   Fn4 ,v107
 .byte   N12 ,Dn5
 .byte   W12
@  #03 @026   ----------------------------------------
 .byte   N24 ,En4 ,v116
 .byte   N24 ,Cn5
 .byte   W24
 .byte   Dn4 ,v096
 .byte   N24 ,Bn4
 .byte   W24
Label_01006FA1:
 .byte   N96 ,An4 ,v096
 .byte   N96 ,Cn4
 .byte   W96
 .byte   PEND 
@  #03 @027   ----------------------------------------
Label_01006FA8:
 .byte   N24 ,En5 ,v096
 .byte   W24
 .byte   N06 ,An5
 .byte   W12
 .byte   Cn6
 .byte   W12
 .byte   Bn5
 .byte   W03
 .byte   Cn6
 .byte   W03
 .byte   N28 ,Bn5
 .byte   W01
 .byte   N01
 .byte   W28
 .byte   N12 ,Gn5
 .byte   W24
 .byte   PEND 
@  #03 @028   ----------------------------------------
Label_01006FBE:
 .byte   N06 ,En5 ,v096
 .byte   W12
 .byte   An5
 .byte   W12
 .byte   Cn6
 .byte   W12
 .byte   Bn5
 .byte   W03
 .byte   Cn6
 .byte   W03
 .byte   N28 ,Bn5
 .byte   W01
 .byte   N01
 .byte   W40
 .byte   N24 ,En5
 .byte   W24
 .byte   PEND 
@  #03 @029   ----------------------------------------
Label_01006FD3:
 .byte   N06 ,An5 ,v096
 .byte   W12
 .byte   Cn6
 .byte   W12
 .byte   Bn5
 .byte   W03
 .byte   Cn6
 .byte   W03
 .byte   N28 ,Bn5
 .byte   W01
 .byte   N01
 .byte   W28
 .byte   N12 ,Gn5
 .byte   W24
 .byte   N06 ,En5
 .byte   W12
 .byte   PEND 
 .byte   N06 ,An5 ,v096
 .byte   W12
@  #03 @030   ----------------------------------------
 .byte   Cn6
 .byte   W12
 .byte   Bn5
 .byte   W03
 .byte   Cn6
 .byte   W03
 .byte   N36 ,Bn5
 .byte   W96
@  #03 @031   ----------------------------------------
 .byte   W96
@  #03 @032   ----------------------------------------
 .byte   W96
@  #03 @033   ----------------------------------------
 .byte   W96
@  #03 @034   ----------------------------------------
 .byte   W96
@  #03 @035   ----------------------------------------
 .byte   W96
@  #03 @036   ----------------------------------------
 .byte   W96
@  #03 @037   ----------------------------------------
 .byte   W96
@  #03 @038   ----------------------------------------
 .byte   W42
@  #03 @039   ----------------------------------------
 .byte   PATT
  .word Label_01006EAA
@  #03 @040   ----------------------------------------
 .byte   PATT
  .word Label_01006EB7
@  #03 @041   ----------------------------------------
 .byte   PATT
  .word Label_01006EAA
@  #03 @042   ----------------------------------------
 .byte   PATT
  .word Label_01006ED2
@  #03 @043   ----------------------------------------
 .byte   PATT
  .word Label_01006EAA
@  #03 @044   ----------------------------------------
 .byte   PATT
  .word Label_01006EB7
@  #03 @045   ----------------------------------------
 .byte   PATT
  .word Label_01006EAA
@  #03 @046   ----------------------------------------
 .byte   PATT
  .word Label_01006EF5
@  #03 @047   ----------------------------------------
 .byte   PATT
  .word Label_01006F0D
@  #03 @048   ----------------------------------------
 .byte   PATT
  .word Label_01006F20
@  #03 @049   ----------------------------------------
 .byte   PATT
  .word Label_01006F35
@  #03 @050   ----------------------------------------
 .byte   PATT
  .word Label_01006F4A
@  #03 @051   ----------------------------------------
 .byte   PATT
  .word Label_01006F5A
@  #03 @052   ----------------------------------------
 .byte   PATT
  .word Label_01006F6A
@  #03 @053   ----------------------------------------
 .byte   N12 ,Gn4 ,v080
 .byte   N12 ,En5
 .byte   W12
 .byte   N06 ,An4 ,v083
 .byte   N06 ,Fn5
 .byte   W12
 .byte   N12 ,Gn4 ,v087
 .byte   N12 ,En5
 .byte   W12
 .byte   Fn4 ,v090
 .byte   N12 ,Dn5
 .byte   W12
 .byte   N24 ,En4 ,v094
 .byte   N24 ,Cn5
 .byte   W24
 .byte   Dn4 ,v101
 .byte   N24 ,Bn4
 .byte   W24
@  #03 @054   ----------------------------------------
 .byte   PATT
  .word Label_01006FA1
@  #03 @055   ----------------------------------------
 .byte   PATT
  .word Label_01006FA8
@  #03 @056   ----------------------------------------
 .byte   PATT
  .word Label_01006FBE
@  #03 @057   ----------------------------------------
 .byte   PATT
  .word Label_01006FD3
@  #03 @058   ----------------------------------------
 .byte   N06 ,An5 ,v096
 .byte   W12
 .byte   Cn6
 .byte   W12
 .byte   Bn5
 .byte   W03
 .byte   Cn6
 .byte   W03
 .byte   N36 ,Bn5
 .byte   W30
 .byte   N12 ,Gn5 ,v001
 .byte   W12
 .byte   GOTO
  .word Label_01006E98
 .byte   FINE

@**************** Track 4 (Midi-Chn.3) ****************@

LoZMMStoneTowerTemple_004:
@  #04 @000   ----------------------------------------
Label_0100684C:
 .byte   TEMPO , 100*LoZMMStoneTowerTemple_tbs/2
 .byte   KEYSH , LoZMMStoneTowerTemple_key+0
 .byte   VOICE , 105
 .byte   VOL , 45*LoZMMStoneTowerTemple_mvl/mxv
 .byte   PAN , c_v+0
 .byte   W96
@  #04 @001   ----------------------------------------
 .byte   W96
@  #04 @002   ----------------------------------------
 .byte   W96
@  #04 @003   ----------------------------------------
 .byte   W96
@  #04 @004   ----------------------------------------
 .byte   W96
@  #04 @005   ----------------------------------------
 .byte   W96
@  #04 @006   ----------------------------------------
 .byte   W96
@  #04 @007   ----------------------------------------
 .byte   W96
@  #04 @008   ----------------------------------------
 .byte   W96
@  #04 @009   ----------------------------------------
 .byte   W96
@  #04 @010   ----------------------------------------
 .byte   W96
@  #04 @011   ----------------------------------------
 .byte   W96
@  #04 @012   ----------------------------------------
Label_01006862:
 .byte   N24 ,An3 ,v096
 .byte   W24
 .byte   Cn4
 .byte   W24
 .byte   N06 ,Bn3
 .byte   W03
 .byte   Cn4
 .byte   W03
 .byte   N24 ,Bn3
 .byte   W30
 .byte   N12 ,Gn3
 .byte   W12
 .byte   PEND 
@  #04 @013   ----------------------------------------
Label_01006874:
 .byte   N12 ,An3 ,v096
 .byte   W12
 .byte   Cn4
 .byte   W12
 .byte   N06 ,Bn3
 .byte   W03
 .byte   Cn4
 .byte   W03
 .byte   Bn3
 .byte   W06
 .byte   N12 ,An3
 .byte   W12
 .byte   N24 ,Gn3
 .byte   W24
 .byte   En3
 .byte   W24
 .byte   PEND 
@  #04 @014   ----------------------------------------
 .byte   PATT
  .word Label_01006862
@  #04 @015   ----------------------------------------
 .byte   N12 ,An3 ,v096
 .byte   W12
 .byte   Cn4
 .byte   W12
 .byte   N06 ,Bn3
 .byte   W03
 .byte   Cn4
 .byte   W03
 .byte   Bn3
 .byte   W06
 .byte   N12 ,Gn3
 .byte   W12
 .byte   N48 ,An3
 .byte   W96
@  #04 @016   ----------------------------------------
 .byte   W96
@  #04 @017   ----------------------------------------
 .byte   W96
@  #04 @018   ----------------------------------------
 .byte   W96
@  #04 @019   ----------------------------------------
 .byte   W96
@  #04 @020   ----------------------------------------
 .byte   W96
@  #04 @021   ----------------------------------------
 .byte   W96
@  #04 @022   ----------------------------------------
 .byte   W96
@  #04 @023   ----------------------------------------
 .byte   W96
@  #04 @024   ----------------------------------------
 .byte   W96
@  #04 @025   ----------------------------------------
 .byte   W96
@  #04 @026   ----------------------------------------
 .byte   W96
@  #04 @027   ----------------------------------------
 .byte   W96
@  #04 @028   ----------------------------------------
 .byte   W96
@  #04 @029   ----------------------------------------
 .byte   W96
@  #04 @030   ----------------------------------------
 .byte   W96
@  #04 @031   ----------------------------------------
 .byte   W96
@  #04 @032   ----------------------------------------
 .byte   W96
@  #04 @033   ----------------------------------------
 .byte   W96
@  #04 @034   ----------------------------------------
 .byte   W96
@  #04 @035   ----------------------------------------
 .byte   W96
@  #04 @036   ----------------------------------------
 .byte   W96
@  #04 @037   ----------------------------------------
 .byte   W96
@  #04 @038   ----------------------------------------
 .byte   W96
@  #04 @039   ----------------------------------------
 .byte   W96
@  #04 @040   ----------------------------------------
 .byte   W96
@  #04 @041   ----------------------------------------
 .byte   W96
@  #04 @042   ----------------------------------------
 .byte   W96
@  #04 @043   ----------------------------------------
 .byte   W48
@  #04 @044   ----------------------------------------
 .byte   PATT
  .word Label_01006862
@  #04 @045   ----------------------------------------
 .byte   PATT
  .word Label_01006874
@  #04 @046   ----------------------------------------
 .byte   PATT
  .word Label_01006862
@  #04 @047   ----------------------------------------
 .byte   N12 ,An3 ,v096
 .byte   W12
 .byte   Cn4
 .byte   W12
 .byte   N06 ,Bn3
 .byte   W03
 .byte   Cn4
 .byte   W03
 .byte   Bn3
 .byte   W06
 .byte   N12 ,Gn3
 .byte   W12
 .byte   N48 ,An3
 .byte   W96
@  #04 @048   ----------------------------------------
 .byte   W96
@  #04 @049   ----------------------------------------
 .byte   W96
@  #04 @050   ----------------------------------------
 .byte   W96
@  #04 @051   ----------------------------------------
 .byte   W96
@  #04 @052   ----------------------------------------
 .byte   W96
@  #04 @053   ----------------------------------------
 .byte   W96
@  #04 @054   ----------------------------------------
 .byte   W96
@  #04 @055   ----------------------------------------
 .byte   W96
@  #04 @056   ----------------------------------------
 .byte   W96
@  #04 @057   ----------------------------------------
 .byte   W96
@  #04 @058   ----------------------------------------
 .byte   W96
@  #04 @059   ----------------------------------------
 .byte   W96
@  #04 @060   ----------------------------------------
 .byte   W96
@  #04 @061   ----------------------------------------
 .byte   W96
@  #04 @062   ----------------------------------------
 .byte   W96
@  #04 @063   ----------------------------------------
 .byte   W48
 .byte   GOTO
  .word Label_0100684C
 .byte   FINE

@**************** Track 5 (Midi-Chn.4) ****************@

LoZMMStoneTowerTemple_005:
@  #05 @000   ----------------------------------------
Label_010068F8:
 .byte   TEMPO , 100*LoZMMStoneTowerTemple_tbs/2
 .byte   KEYSH , LoZMMStoneTowerTemple_key+0
 .byte   VOICE , 49
 .byte   VOL , 87*LoZMMStoneTowerTemple_mvl/mxv
 .byte   PAN , c_v+0
 .byte   W96
@  #05 @001   ----------------------------------------
 .byte   W96
@  #05 @002   ----------------------------------------
 .byte   N96 ,En2 ,v096
 .byte   W96
@  #05 @003   ----------------------------------------
Label_01006908:
 .byte   N48 ,Fn2 ,v096
 .byte   W48
 .byte   Dn2
 .byte   W48
 .byte   PEND 
@  #05 @004   ----------------------------------------
 .byte   N96 ,En2 ,v096
 .byte   W96
@  #05 @005   ----------------------------------------
Label_01006913:
 .byte   N48 ,Fn2 ,v096
 .byte   W48
 .byte   En2
 .byte   W48
 .byte   PEND 
@  #05 @006   ----------------------------------------
 .byte   N96 ,En2 ,v096
 .byte   W96
@  #05 @007   ----------------------------------------
 .byte   PATT
  .word Label_01006908
@  #05 @008   ----------------------------------------
 .byte   N96 ,En2 ,v096
 .byte   W96
@  #05 @009   ----------------------------------------
 .byte   PATT
  .word Label_01006908
@  #05 @010   ----------------------------------------
 .byte   N96 ,En2 ,v096
 .byte   W96
@  #05 @011   ----------------------------------------
 .byte   PATT
  .word Label_01006913
@  #05 @012   ----------------------------------------
 .byte   N96 ,En2 ,v096
 .byte   W96
@  #05 @013   ----------------------------------------
 .byte   PATT
  .word Label_01006908
@  #05 @014   ----------------------------------------
 .byte   N96 ,En2 ,v096
 .byte   W96
@  #05 @015   ----------------------------------------
 .byte   PATT
  .word Label_01006913
@  #05 @016   ----------------------------------------
 .byte   N96 ,En2 ,v096
 .byte   W96
@  #05 @017   ----------------------------------------
 .byte   PATT
  .word Label_01006908
@  #05 @018   ----------------------------------------
 .byte   N96 ,En2 ,v096
 .byte   W96
@  #05 @019   ----------------------------------------
 .byte   PATT
  .word Label_01006913
@  #05 @020   ----------------------------------------
 .byte   N96 ,En2 ,v096
 .byte   W96
@  #05 @021   ----------------------------------------
 .byte   PATT
  .word Label_01006908
@  #05 @022   ----------------------------------------
 .byte   N96 ,En2 ,v096
 .byte   W96
@  #05 @023   ----------------------------------------
 .byte   PATT
  .word Label_01006913
@  #05 @024   ----------------------------------------
 .byte   N96 ,En2 ,v096
 .byte   W96
@  #05 @025   ----------------------------------------
 .byte   PATT
  .word Label_01006908
@  #05 @026   ----------------------------------------
 .byte   N96 ,En2 ,v096
 .byte   W96
@  #05 @027   ----------------------------------------
 .byte   PATT
  .word Label_01006913
@  #05 @028   ----------------------------------------
 .byte   N96 ,En2 ,v096
 .byte   W96
@  #05 @029   ----------------------------------------
Label_01006981:
 .byte   N48 ,Fn2 ,v080
 .byte   W48
 .byte   Dn2 ,v059
 .byte   W48
 .byte   PEND 
@  #05 @030   ----------------------------------------
 .byte   N96 ,En2 ,v038
 .byte   W96
@  #05 @031   ----------------------------------------
 .byte   W96
@  #05 @032   ----------------------------------------
 .byte   W96
@  #05 @033   ----------------------------------------
 .byte   W96
@  #05 @034   ----------------------------------------
 .byte   En2 ,v096
 .byte   W96
@  #05 @035   ----------------------------------------
 .byte   PATT
  .word Label_01006908
@  #05 @036   ----------------------------------------
 .byte   N96 ,En2 ,v096
 .byte   W96
@  #05 @037   ----------------------------------------
 .byte   PATT
  .word Label_01006913
@  #05 @038   ----------------------------------------
 .byte   N96 ,En2 ,v096
 .byte   W96
@  #05 @039   ----------------------------------------
 .byte   PATT
  .word Label_01006908
@  #05 @040   ----------------------------------------
 .byte   N96 ,En2 ,v096
 .byte   W96
@  #05 @041   ----------------------------------------
 .byte   PATT
  .word Label_01006908
@  #05 @042   ----------------------------------------
 .byte   N96 ,En2 ,v096
 .byte   W96
@  #05 @043   ----------------------------------------
 .byte   PATT
  .word Label_01006913
@  #05 @044   ----------------------------------------
 .byte   N96 ,En2 ,v096
 .byte   W96
@  #05 @045   ----------------------------------------
 .byte   PATT
  .word Label_01006908
@  #05 @046   ----------------------------------------
 .byte   N96 ,En2 ,v096
 .byte   W96
@  #05 @047   ----------------------------------------
 .byte   PATT
  .word Label_01006913
@  #05 @048   ----------------------------------------
 .byte   N96 ,En2 ,v096
 .byte   W96
@  #05 @049   ----------------------------------------
 .byte   PATT
  .word Label_01006908
@  #05 @050   ----------------------------------------
 .byte   N96 ,En2 ,v096
 .byte   W96
@  #05 @051   ----------------------------------------
 .byte   PATT
  .word Label_01006913
@  #05 @052   ----------------------------------------
 .byte   N96 ,En2 ,v096
 .byte   W96
@  #05 @053   ----------------------------------------
 .byte   PATT
  .word Label_01006908
@  #05 @054   ----------------------------------------
 .byte   N96 ,En2 ,v096
 .byte   W96
@  #05 @055   ----------------------------------------
 .byte   PATT
  .word Label_01006913
@  #05 @056   ----------------------------------------
 .byte   N96 ,En2 ,v096
 .byte   W96
@  #05 @057   ----------------------------------------
 .byte   PATT
  .word Label_01006908
@  #05 @058   ----------------------------------------
 .byte   N96 ,En2 ,v096
 .byte   W96
@  #05 @059   ----------------------------------------
 .byte   PATT
  .word Label_01006913
@  #05 @060   ----------------------------------------
 .byte   N96 ,En2 ,v096
 .byte   W96
@  #05 @061   ----------------------------------------
 .byte   PATT
  .word Label_01006981
@  #05 @062   ----------------------------------------
 .byte   N96 ,En2 ,v038
 .byte   W96
@  #05 @063   ----------------------------------------
 .byte   W96
@  #05 @064   ----------------------------------------
 .byte   GOTO
  .word Label_010068F8
 .byte   FINE

@**************** Track 6 (Midi-Chn.5) ****************@

LoZMMStoneTowerTemple_006:
@  #06 @000   ----------------------------------------
Label_01006A18:
 .byte   TEMPO , 100*LoZMMStoneTowerTemple_tbs/2
 .byte   KEYSH , LoZMMStoneTowerTemple_key+0
 .byte   VOICE , 48
 .byte   VOL , 41*LoZMMStoneTowerTemple_mvl/mxv
 .byte   PAN , c_v+0
 .byte   W96
@  #06 @001   ----------------------------------------
 .byte   W96
@  #06 @002   ----------------------------------------
Label_01006A24:
 .byte   N96 ,An1 ,v096
 .byte   W06
 .byte   An1
 .byte   W96
@  #06 @003   ----------------------------------------
 .byte   W90
 .byte   PEND 
@  #06 @004   ----------------------------------------
 .byte   PATT
  .word Label_01006A24
@  #06 @005   ----------------------------------------
 .byte   PATT
  .word Label_01006A24
@  #06 @006   ----------------------------------------
 .byte   PATT
  .word Label_01006A24
@  #06 @007   ----------------------------------------
 .byte   PATT
  .word Label_01006A24
@  #06 @008   ----------------------------------------
 .byte   PATT
  .word Label_01006A24
@  #06 @009   ----------------------------------------
 .byte   PATT
  .word Label_01006A24
@  #06 @010   ----------------------------------------
 .byte   PATT
  .word Label_01006A24
@  #06 @011   ----------------------------------------
 .byte   PATT
  .word Label_01006A24
@  #06 @012   ----------------------------------------
 .byte   PATT
  .word Label_01006A24
@  #06 @013   ----------------------------------------
 .byte   PATT
  .word Label_01006A24
@  #06 @014   ----------------------------------------
 .byte   PATT
  .word Label_01006A24
@  #06 @015   ----------------------------------------
 .byte   PATT
  .word Label_01006A24
@  #06 @016   ----------------------------------------
 .byte   PATT
  .word Label_01006A24
@  #06 @017   ----------------------------------------
 .byte   N96 ,An1 ,v046
 .byte   W96
@  #06 @018   ----------------------------------------
 .byte   W96
@  #06 @019   ----------------------------------------
 .byte   W96
@  #06 @020   ----------------------------------------
 .byte   W96
@  #06 @021   ----------------------------------------
 .byte   PATT
  .word Label_01006A24
@  #06 @022   ----------------------------------------
 .byte   PATT
  .word Label_01006A24
@  #06 @023   ----------------------------------------
 .byte   PATT
  .word Label_01006A24
@  #06 @024   ----------------------------------------
 .byte   PATT
  .word Label_01006A24
@  #06 @025   ----------------------------------------
 .byte   PATT
  .word Label_01006A24
@  #06 @026   ----------------------------------------
 .byte   PATT
  .word Label_01006A24
@  #06 @027   ----------------------------------------
 .byte   PATT
  .word Label_01006A24
@  #06 @028   ----------------------------------------
 .byte   PATT
  .word Label_01006A24
@  #06 @029   ----------------------------------------
 .byte   PATT
  .word Label_01006A24
@  #06 @030   ----------------------------------------
 .byte   PATT
  .word Label_01006A24
@  #06 @031   ----------------------------------------
 .byte   PATT
  .word Label_01006A24
@  #06 @032   ----------------------------------------
 .byte   PATT
  .word Label_01006A24
@  #06 @033   ----------------------------------------
 .byte   PATT
  .word Label_01006A24
@  #06 @034   ----------------------------------------
 .byte   PATT
  .word Label_01006A24
@  #06 @035   ----------------------------------------
 .byte   N96 ,An1 ,v046
 .byte   W96
@  #06 @036   ----------------------------------------
 .byte   W96
@  #06 @037   ----------------------------------------
 .byte   GOTO
  .word Label_01006A18
 .byte   FINE

@**************** Track 7 (Midi-Chn.6) ****************@

LoZMMStoneTowerTemple_007:
@  #07 @000   ----------------------------------------
Label_01007464:
 .byte   TEMPO , 100*LoZMMStoneTowerTemple_tbs/2
 .byte   KEYSH , LoZMMStoneTowerTemple_key+0
 .byte   VOICE , 127
 .byte   VOL , 67*LoZMMStoneTowerTemple_mvl/mxv
 .byte   PAN , c_v+0
 .byte   N24 ,Cn1 ,v127
 .byte   W24
 .byte   N36
 .byte   W36
 .byte   N12 ,Cs3
 .byte   W12
 .byte   N24 ,Fs2
 .byte   W24
@  #07 @001   ----------------------------------------
Label_0100747A:
 .byte   N24 ,Cn1 ,v127
 .byte   W24
 .byte   N36
 .byte   W12
 .byte   N24 ,Cs3
 .byte   W24
 .byte   N12
 .byte   W12
 .byte   N24 ,Fs2
 .byte   W24
 .byte   PEND 
@  #07 @002   ----------------------------------------
 .byte   PATT
  .word Label_0100747A
@  #07 @003   ----------------------------------------
 .byte   PATT
  .word Label_0100747A
@  #07 @004   ----------------------------------------
 .byte   PATT
  .word Label_0100747A
@  #07 @005   ----------------------------------------
 .byte   PATT
  .word Label_0100747A
@  #07 @006   ----------------------------------------
 .byte   PATT
  .word Label_0100747A
@  #07 @007   ----------------------------------------
 .byte   PATT
  .word Label_0100747A
@  #07 @008   ----------------------------------------
 .byte   PATT
  .word Label_0100747A
@  #07 @009   ----------------------------------------
 .byte   PATT
  .word Label_0100747A
@  #07 @010   ----------------------------------------
 .byte   PATT
  .word Label_0100747A
@  #07 @011   ----------------------------------------
 .byte   PATT
  .word Label_0100747A
@  #07 @012   ----------------------------------------
 .byte   PATT
  .word Label_0100747A
@  #07 @013   ----------------------------------------
 .byte   PATT
  .word Label_0100747A
@  #07 @014   ----------------------------------------
 .byte   PATT
  .word Label_0100747A
@  #07 @015   ----------------------------------------
 .byte   PATT
  .word Label_0100747A
@  #07 @016   ----------------------------------------
 .byte   PATT
  .word Label_0100747A
@  #07 @017   ----------------------------------------
 .byte   PATT
  .word Label_0100747A
@  #07 @018   ----------------------------------------
 .byte   PATT
  .word Label_0100747A
@  #07 @019   ----------------------------------------
 .byte   PATT
  .word Label_0100747A
@  #07 @020   ----------------------------------------
 .byte   PATT
  .word Label_0100747A
@  #07 @021   ----------------------------------------
 .byte   PATT
  .word Label_0100747A
@  #07 @022   ----------------------------------------
 .byte   PATT
  .word Label_0100747A
@  #07 @023   ----------------------------------------
 .byte   N24 ,Cn1 ,v127
 .byte   W24
 .byte   N36
 .byte   W12
 .byte   N24 ,Cs3
 .byte   W24
 .byte   N12
 .byte   W12
 .byte   N24 ,Fs2
 .byte   W96
@  #07 @024   ----------------------------------------
 .byte   W96
@  #07 @025   ----------------------------------------
 .byte   W96
@  #07 @026   ----------------------------------------
 .byte   W96
@  #07 @027   ----------------------------------------
 .byte   W96
@  #07 @028   ----------------------------------------
 .byte   W96
@  #07 @029   ----------------------------------------
 .byte   W96
@  #07 @030   ----------------------------------------
 .byte   W96
@  #07 @031   ----------------------------------------
 .byte   W24
 .byte   VOL , 67*LoZMMStoneTowerTemple_mvl/mxv
 .byte   PAN , c_v+0
 .byte   N24 ,Cn1 ,v127
 .byte   W24
 .byte   N36
 .byte   W36
 .byte   N12 ,Cs3
 .byte   W12
@  #07 @032   ----------------------------------------
 .byte   N24 ,Fs2
 .byte   W24
 .byte   Cn1
 .byte   W24
 .byte   N36
 .byte   W12
 .byte   N24 ,Cs3
 .byte   W24
 .byte   N12
 .byte   W12
@  #07 @033   ----------------------------------------
 .byte   N24 ,Fs2
 .byte   W24
 .byte   Cn1
 .byte   W24
 .byte   N36
 .byte   W12
 .byte   N24 ,Cs3
 .byte   W24
 .byte   N12
 .byte   W12
@  #07 @034   ----------------------------------------
 .byte   N24 ,Fs2
 .byte   W24
 .byte   Cn1
 .byte   W24
 .byte   N36
 .byte   W12
 .byte   N24 ,Cs3
 .byte   W24
 .byte   N12
 .byte   W12
@  #07 @035   ----------------------------------------
 .byte   N24 ,Fs2
 .byte   W24
 .byte   Cn1
 .byte   W24
 .byte   N36
 .byte   W12
 .byte   N24 ,Cs3
 .byte   W24
 .byte   N12
 .byte   W12
@  #07 @036   ----------------------------------------
 .byte   N24 ,Fs2
 .byte   W24
 .byte   Cn1
 .byte   W24
 .byte   N36
 .byte   W12
 .byte   N24 ,Cs3
 .byte   W24
 .byte   N12
 .byte   W12
@  #07 @037   ----------------------------------------
 .byte   N24 ,Fs2
 .byte   W24
 .byte   Cn1
 .byte   W24
 .byte   N36
 .byte   W12
 .byte   N24 ,Cs3
 .byte   W24
 .byte   N12
 .byte   W12
@  #07 @038   ----------------------------------------
 .byte   N24 ,Fs2
 .byte   W24
 .byte   Cn1
 .byte   W24
 .byte   N36
 .byte   W12
 .byte   N24 ,Cs3
 .byte   W24
 .byte   N12
 .byte   W12
@  #07 @039   ----------------------------------------
 .byte   N24 ,Fs2
 .byte   W24
 .byte   Cn1
 .byte   W24
 .byte   N36
 .byte   W12
 .byte   N24 ,Cs3
 .byte   W24
 .byte   N12
 .byte   W12
@  #07 @040   ----------------------------------------
 .byte   N24 ,Fs2
 .byte   W24
 .byte   Cn1
 .byte   W24
 .byte   N36
 .byte   W12
 .byte   N24 ,Cs3
 .byte   W24
 .byte   N12
 .byte   W12
@  #07 @041   ----------------------------------------
 .byte   N24 ,Fs2
 .byte   W24
 .byte   Cn1
 .byte   W24
 .byte   N36
 .byte   W12
 .byte   N24 ,Cs3
 .byte   W24
 .byte   N12
 .byte   W12
@  #07 @042   ----------------------------------------
 .byte   N24 ,Fs2
 .byte   W24
 .byte   Cn1
 .byte   W24
 .byte   N36
 .byte   W12
 .byte   N24 ,Cs3
 .byte   W24
 .byte   N12
 .byte   W12
@  #07 @043   ----------------------------------------
 .byte   N24 ,Fs2
 .byte   W24
 .byte   Cn1
 .byte   W24
 .byte   N36
 .byte   W12
 .byte   N24 ,Cs3
 .byte   W24
 .byte   N12
 .byte   W12
@  #07 @044   ----------------------------------------
 .byte   N24 ,Fs2
 .byte   W24
 .byte   Cn1
 .byte   W24
 .byte   N36
 .byte   W12
 .byte   N24 ,Cs3
 .byte   W24
 .byte   N12
 .byte   W12
@  #07 @045   ----------------------------------------
 .byte   N24 ,Fs2
 .byte   W24
 .byte   Cn1
 .byte   W24
 .byte   N36
 .byte   W12
 .byte   N24 ,Cs3
 .byte   W24
 .byte   N12
 .byte   W12
@  #07 @046   ----------------------------------------
 .byte   N24 ,Fs2
 .byte   W24
 .byte   Cn1
 .byte   W24
 .byte   N36
 .byte   W12
 .byte   N24 ,Cs3
 .byte   W24
 .byte   N12
 .byte   W12
@  #07 @047   ----------------------------------------
 .byte   N24 ,Fs2
 .byte   W24
 .byte   Cn1
 .byte   W24
 .byte   N36
 .byte   W12
 .byte   N24 ,Cs3
 .byte   W24
 .byte   N12
 .byte   W12
@  #07 @048   ----------------------------------------
 .byte   N24 ,Fs2
 .byte   W24
 .byte   Cn1
 .byte   W24
 .byte   N36
 .byte   W12
 .byte   N24 ,Cs3
 .byte   W24
 .byte   N12
 .byte   W12
@  #07 @049   ----------------------------------------
 .byte   N24 ,Fs2
 .byte   W24
 .byte   Cn1
 .byte   W24
 .byte   N36
 .byte   W12
 .byte   N24 ,Cs3
 .byte   W24
 .byte   N12
 .byte   W12
@  #07 @050   ----------------------------------------
 .byte   N24 ,Fs2
 .byte   W24
 .byte   Cn1
 .byte   W24
 .byte   N36
 .byte   W12
 .byte   N24 ,Cs3
 .byte   W24
 .byte   N12
 .byte   W12
@  #07 @051   ----------------------------------------
 .byte   N24 ,Fs2
 .byte   W24
 .byte   Cn1
 .byte   W24
 .byte   N36
 .byte   W12
 .byte   N24 ,Cs3
 .byte   W24
 .byte   N12
 .byte   W12
@  #07 @052   ----------------------------------------
 .byte   N24 ,Fs2
 .byte   W24
 .byte   Cn1
 .byte   W24
 .byte   N36
 .byte   W12
 .byte   N24 ,Cs3
 .byte   W24
 .byte   N12
 .byte   W12
@  #07 @053   ----------------------------------------
 .byte   N24 ,Fs2
 .byte   W24
 .byte   Cn1
 .byte   W24
 .byte   N36
 .byte   W12
 .byte   N24 ,Cs3
 .byte   W24
 .byte   N12
 .byte   W12
@  #07 @054   ----------------------------------------
 .byte   N24 ,Fs2
 .byte   W24
 .byte   Cn1
 .byte   W24
 .byte   N36
 .byte   W12
 .byte   N24 ,Cs3
 .byte   W24
 .byte   N12
 .byte   W12
@  #07 @055   ----------------------------------------
 .byte   N24 ,Fs2
 .byte   W96
@  #07 @056   ----------------------------------------
 .byte   W96
@  #07 @057   ----------------------------------------
 .byte   W96
@  #07 @058   ----------------------------------------
 .byte   W96
@  #07 @059   ----------------------------------------
 .byte   W96
@  #07 @060   ----------------------------------------
 .byte   W96
@  #07 @061   ----------------------------------------
 .byte   W96
@  #07 @062   ----------------------------------------
 .byte   W96
@  #07 @063   ----------------------------------------
 .byte   W24
 .byte   GOTO
  .word Label_01007464
 .byte   FINE

@******************************************************@
	.align	2

LoZMMStoneTowerTemple:
	.byte	7	@ NumTrks
	.byte	0	@ NumBlks
	.byte	LoZMMStoneTowerTemple_pri	@ Priority
	.byte	LoZMMStoneTowerTemple_rev	@ Reverb.
    
	.word	LoZMMStoneTowerTemple_grp
    
	.word	LoZMMStoneTowerTemple_001
	.word	LoZMMStoneTowerTemple_002
	.word	LoZMMStoneTowerTemple_003
	.word	LoZMMStoneTowerTemple_004
	.word	LoZMMStoneTowerTemple_005
	.word	LoZMMStoneTowerTemple_006
	.word	LoZMMStoneTowerTemple_007

	.end
