//Event file generated from Sappy .s format.
	

	#define	LoZMMStoneTowerTemple_grp  voicegroup000
	#define	LoZMMStoneTowerTemple_pri  10
	#define	LoZMMStoneTowerTemple_rev  0
	#define	LoZMMStoneTowerTemple_mvl  127
	#define	LoZMMStoneTowerTemple_key  0
	#define	LoZMMStoneTowerTemple_tbs  1
	#define	LoZMMStoneTowerTemple_exg  0
	#define	LoZMMStoneTowerTemple_cmp  1

	// .rodata
	//	LoZMMStoneTowerTemple
	ALIGN 4


//**************** Track 1 (Midi-Chn.0) ****************//

LoZMMStoneTowerTemple_001:
//  #01 //000   ----------------------------------------
Label_01005D50:
 BYTE   TEMPO   100*LoZMMStoneTowerTemple_tbs/2
 BYTE   KEYSH   LoZMMStoneTowerTemple_key+0
 BYTE   VOL   61*LoZMMStoneTowerTemple_mvl/mxv
 BYTE   PAN   c_v+0
 BYTE   W96
//  #01 //001   ----------------------------------------
 BYTE   W96
//  #01 //002   ----------------------------------------
 BYTE   VOICE   52
 BYTE   N96  En1  v096
 BYTE   W96
//  #01 //003   ----------------------------------------
 BYTE   N48  Fn1
 BYTE   W48
 BYTE   Dn1
 BYTE   W48
//  #01 //004   ----------------------------------------
 BYTE   N96  En1
 BYTE   W96
//  #01 //005   ----------------------------------------
 BYTE   N48  Fn1
 BYTE   W48
 BYTE   En1
 BYTE   W48
//  #01 //006   ----------------------------------------
 BYTE   N96
 BYTE   W96
//  #01 //007   ----------------------------------------
 BYTE   N48  Fn1
 BYTE   W48
 BYTE   Dn1
 BYTE   W48
//  #01 //008   ----------------------------------------
 BYTE   N96  En1
 BYTE   W96
//  #01 //009   ----------------------------------------
 BYTE   N48  Fn1
 BYTE   W48
 BYTE   Dn1
 BYTE   W48
//  #01 //010   ----------------------------------------
 BYTE   N96  En1
 BYTE   W96
//  #01 //011   ----------------------------------------
 BYTE   N48  Fn1
 BYTE   W48
 BYTE   En1
 BYTE   W48
//  #01 //012   ----------------------------------------
 BYTE   N96
 BYTE   W96
//  #01 //013   ----------------------------------------
 BYTE   N48  Fn1
 BYTE   W48
 BYTE   Dn1
 BYTE   W48
//  #01 //014   ----------------------------------------
 BYTE   N96  En1
 BYTE   W96
//  #01 //015   ----------------------------------------
 BYTE   N48  Fn1
 BYTE   W48
 BYTE   En1
 BYTE   W48
//  #01 //016   ----------------------------------------
 BYTE   N96
 BYTE   W96
//  #01 //017   ----------------------------------------
 BYTE   N48  Fn1
 BYTE   W48
 BYTE   Dn1
 BYTE   W48
//  #01 //018   ----------------------------------------
 BYTE   N96  En1
 BYTE   W96
//  #01 //019   ----------------------------------------
 BYTE   N48  Fn1
 BYTE   W48
 BYTE   En1
 BYTE   W48
//  #01 //020   ----------------------------------------
 BYTE   N96
 BYTE   W96
//  #01 //021   ----------------------------------------
 BYTE   N48  Fn1
 BYTE   W48
 BYTE   Dn1
 BYTE   W48
//  #01 //022   ----------------------------------------
 BYTE   N96  En1
 BYTE   W96
//  #01 //023   ----------------------------------------
 BYTE   N48  Fn1
 BYTE   W48
 BYTE   En1
 BYTE   W48
//  #01 //024   ----------------------------------------
 BYTE   N96
 BYTE   W96
//  #01 //025   ----------------------------------------
 BYTE   N48  Fn1
 BYTE   W48
 BYTE   Dn1
 BYTE   W48
//  #01 //026   ----------------------------------------
 BYTE   N96  En1
 BYTE   W96
//  #01 //027   ----------------------------------------
 BYTE   N48  Fn1
 BYTE   W48
 BYTE   En1
 BYTE   W48
//  #01 //028   ----------------------------------------
 BYTE   N96
 BYTE   W96
//  #01 //029   ----------------------------------------
 BYTE   N48  Fn1  v080
 BYTE   W48
 BYTE   Dn1  v056
 BYTE   W48
//  #01 //030   ----------------------------------------
 BYTE   N96  En1  v033
 BYTE   W96
//  #01 //031   ----------------------------------------
 BYTE   W96
//  #01 //032   ----------------------------------------
 BYTE   W96
//  #01 //033   ----------------------------------------
 BYTE   W96
//  #01 //034   ----------------------------------------
 BYTE   En1  v096
 BYTE   W96
//  #01 //035   ----------------------------------------
Label_01005DD3:
 BYTE   N48  Fn1  v096
 BYTE   W48
 BYTE   Dn1
 BYTE   W48
 BYTE   PEND 
//  #01 //036   ----------------------------------------
 BYTE   N96  En1  v096
 BYTE   W96
//  #01 //037   ----------------------------------------
Label_01005DDE:
 BYTE   N48  Fn1  v096
 BYTE   W48
 BYTE   En1
 BYTE   W48
 BYTE   PEND 
//  #01 //038   ----------------------------------------
 BYTE   N96  En1  v096
 BYTE   W96
//  #01 //039   ----------------------------------------
 BYTE   PATT
  POIN2 Label_01005DD3
//  #01 //040   ----------------------------------------
 BYTE   N96  En1  v096
 BYTE   W96
//  #01 //041   ----------------------------------------
 BYTE   PATT
  POIN2 Label_01005DD3
//  #01 //042   ----------------------------------------
 BYTE   N96  En1  v096
 BYTE   W96
//  #01 //043   ----------------------------------------
 BYTE   PATT
  POIN2 Label_01005DDE
//  #01 //044   ----------------------------------------
 BYTE   N96  En1  v096
 BYTE   W96
//  #01 //045   ----------------------------------------
 BYTE   PATT
  POIN2 Label_01005DD3
//  #01 //046   ----------------------------------------
 BYTE   N96  En1  v096
 BYTE   W96
//  #01 //047   ----------------------------------------
 BYTE   PATT
  POIN2 Label_01005DDE
//  #01 //048   ----------------------------------------
 BYTE   N96  En1  v096
 BYTE   W96
//  #01 //049   ----------------------------------------
 BYTE   PATT
  POIN2 Label_01005DD3
//  #01 //050   ----------------------------------------
 BYTE   N96  En1  v096
 BYTE   W96
//  #01 //051   ----------------------------------------
 BYTE   PATT
  POIN2 Label_01005DDE
//  #01 //052   ----------------------------------------
 BYTE   N96  En1  v096
 BYTE   W96
//  #01 //053   ----------------------------------------
 BYTE   PATT
  POIN2 Label_01005DD3
//  #01 //054   ----------------------------------------
 BYTE   N96  En1  v096
 BYTE   W96
//  #01 //055   ----------------------------------------
 BYTE   PATT
  POIN2 Label_01005DDE
//  #01 //056   ----------------------------------------
 BYTE   N96  En1  v096
 BYTE   W96
//  #01 //057   ----------------------------------------
 BYTE   PATT
  POIN2 Label_01005DD3
//  #01 //058   ----------------------------------------
 BYTE   N96  En1  v096
 BYTE   W96
//  #01 //059   ----------------------------------------
 BYTE   PATT
  POIN2 Label_01005DDE
//  #01 //060   ----------------------------------------
 BYTE   N96  En1  v096
 BYTE   W96
//  #01 //061   ----------------------------------------
 BYTE   N48  Fn1  v080
 BYTE   W48
 BYTE   Dn1  v056
 BYTE   W48
//  #01 //062   ----------------------------------------
 BYTE   N96  En1  v033
 BYTE   W96
//  #01 //063   ----------------------------------------
 BYTE   W96
//  #01 //064   ----------------------------------------
 BYTE   GoTo
  POIN2 Label_01005D50
 BYTE   FINE

//**************** Track 2 (Midi-Chn.1) ****************//

LoZMMStoneTowerTemple_002:
//  #02 //000   ----------------------------------------
Label_01005B50:
 BYTE   TEMPO   100*LoZMMStoneTowerTemple_tbs/2
 BYTE   KEYSH   LoZMMStoneTowerTemple_key+0
 BYTE   VOICE   66
 BYTE   VOL   90*LoZMMStoneTowerTemple_mvl/mxv
 BYTE   PAN   c_v+0
 BYTE   W96
//  #02 //001   ----------------------------------------
 BYTE   W96
//  #02 //002   ----------------------------------------
 BYTE   W96
//  #02 //003   ----------------------------------------
 BYTE   W96
//  #02 //004   ----------------------------------------
 BYTE   W96
//  #02 //005   ----------------------------------------
 BYTE   W96
//  #02 //006   ----------------------------------------
Label_01005B60:
 BYTE   N12  An1  v096
 BYTE   W12
 BYTE   N06  En2
 BYTE   W12
 BYTE   An1
 BYTE   W12
 BYTE   En2
 BYTE   W12
 BYTE   N12  An1
 BYTE   W12
 BYTE   N06  En2
 BYTE   W12
 BYTE   N24  Fn2
 BYTE   W24
 BYTE   PEND 
//  #02 //007   ----------------------------------------
Label_01005B75:
 BYTE   N12  An1  v096
 BYTE   W12
 BYTE   N06  En2
 BYTE   W12
 BYTE   An1
 BYTE   W12
 BYTE   En2
 BYTE   W12
 BYTE   N12  An1
 BYTE   W12
 BYTE   N06  En2
 BYTE   W12
 BYTE   N24  Dn2
 BYTE   W24
 BYTE   PEND 
//  #02 //008   ----------------------------------------
 BYTE   PATT
  POIN2 Label_01005B60
//  #02 //009   ----------------------------------------
 BYTE   PATT
  POIN2 Label_01005B75
//  #02 //010   ----------------------------------------
 BYTE   PATT
  POIN2 Label_01005B60
//  #02 //011   ----------------------------------------
Label_01005B99:
 BYTE   N08  An1  v096
 BYTE   W12
 BYTE   N06  En2
 BYTE   W12
 BYTE   An1
 BYTE   W12
 BYTE   En2
 BYTE   W12
 BYTE   N12  An1
 BYTE   W12
 BYTE   N06  En2
 BYTE   W12
 BYTE   N24  Dn2
 BYTE   W24
 BYTE   PEND 
//  #02 //012   ----------------------------------------
 BYTE   PATT
  POIN2 Label_01005B60
//  #02 //013   ----------------------------------------
 BYTE   PATT
  POIN2 Label_01005B75
//  #02 //014   ----------------------------------------
 BYTE   PATT
  POIN2 Label_01005B60
//  #02 //015   ----------------------------------------
Label_01005BBD:
 BYTE   N12  An1  v096
 BYTE   W12
 BYTE   N06  En2
 BYTE   W12
 BYTE   An1
 BYTE   W12
 BYTE   En2
 BYTE   W12
 BYTE   N12  An1
 BYTE   W12
 BYTE   N06  En2
 BYTE   W12
 BYTE   N24  Dn2
 BYTE   W96
//  #02 //016   ----------------------------------------
 BYTE   W96
//  #02 //017   ----------------------------------------
 BYTE   W96
//  #02 //018   ----------------------------------------
 BYTE   W96
//  #02 //019   ----------------------------------------
 BYTE   W24
 BYTE   PEND 
//  #02 //020   ----------------------------------------
 BYTE   PATT
  POIN2 Label_01005B60
//  #02 //021   ----------------------------------------
 BYTE   PATT
  POIN2 Label_01005B75
//  #02 //022   ----------------------------------------
 BYTE   PATT
  POIN2 Label_01005B60
//  #02 //023   ----------------------------------------
 BYTE   PATT
  POIN2 Label_01005B75
//  #02 //024   ----------------------------------------
 BYTE   PATT
  POIN2 Label_01005B60
//  #02 //025   ----------------------------------------
 BYTE   PATT
  POIN2 Label_01005B75
//  #02 //026   ----------------------------------------
 BYTE   PATT
  POIN2 Label_01005B60
//  #02 //027   ----------------------------------------
 BYTE   N12  An1  v096
 BYTE   W12
 BYTE   N06  En2
 BYTE   W12
 BYTE   An1
 BYTE   W12
 BYTE   En2
 BYTE   W12
 BYTE   N12  An1
 BYTE   W12
 BYTE   N06  En2
 BYTE   W12
 BYTE   N24  Dn2
 BYTE   W96
//  #02 //028   ----------------------------------------
 BYTE   W96
//  #02 //029   ----------------------------------------
 BYTE   W96
//  #02 //030   ----------------------------------------
 BYTE   W96
//  #02 //031   ----------------------------------------
 BYTE   W96
//  #02 //032   ----------------------------------------
 BYTE   W96
//  #02 //033   ----------------------------------------
 BYTE   W96
//  #02 //034   ----------------------------------------
 BYTE   W96
//  #02 //035   ----------------------------------------
 BYTE   W96
//  #02 //036   ----------------------------------------
 BYTE   W96
//  #02 //037   ----------------------------------------
 BYTE   W24
//  #02 //038   ----------------------------------------
 BYTE   PATT
  POIN2 Label_01005B60
//  #02 //039   ----------------------------------------
 BYTE   PATT
  POIN2 Label_01005B75
//  #02 //040   ----------------------------------------
 BYTE   PATT
  POIN2 Label_01005B60
//  #02 //041   ----------------------------------------
 BYTE   PATT
  POIN2 Label_01005B75
//  #02 //042   ----------------------------------------
 BYTE   PATT
  POIN2 Label_01005B60
//  #02 //043   ----------------------------------------
 BYTE   PATT
  POIN2 Label_01005B99
//  #02 //044   ----------------------------------------
 BYTE   PATT
  POIN2 Label_01005B60
//  #02 //045   ----------------------------------------
 BYTE   PATT
  POIN2 Label_01005B75
//  #02 //046   ----------------------------------------
 BYTE   PATT
  POIN2 Label_01005B60
//  #02 //047   ----------------------------------------
 BYTE   PATT
  POIN2 Label_01005BBD
//  #02 //048   ----------------------------------------
 BYTE   PATT
  POIN2 Label_01005B60
//  #02 //049   ----------------------------------------
 BYTE   PATT
  POIN2 Label_01005B75
//  #02 //050   ----------------------------------------
 BYTE   PATT
  POIN2 Label_01005B60
//  #02 //051   ----------------------------------------
 BYTE   PATT
  POIN2 Label_01005B75
//  #02 //052   ----------------------------------------
 BYTE   PATT
  POIN2 Label_01005B60
//  #02 //053   ----------------------------------------
 BYTE   PATT
  POIN2 Label_01005B75
//  #02 //054   ----------------------------------------
 BYTE   PATT
  POIN2 Label_01005B60
//  #02 //055   ----------------------------------------
 BYTE   PATT
  POIN2 Label_01005BBD
//  #02 //056   ----------------------------------------
 BYTE   GoTo
  POIN2 Label_01005B50
 BYTE   FINE

//**************** Track 3 (Midi-Chn.2) ****************//

LoZMMStoneTowerTemple_003:
//  #03 //000   ----------------------------------------
Label_01006E98:
 BYTE   TEMPO   100*LoZMMStoneTowerTemple_tbs/2
 BYTE   KEYSH   LoZMMStoneTowerTemple_key+0
 BYTE   VOICE   75
 BYTE   VOL   35*LoZMMStoneTowerTemple_mvl/mxv
 BYTE   PAN   c_v+0
 BYTE   W96
//  #03 //001   ----------------------------------------
 BYTE   W96
//  #03 //002   ----------------------------------------
 BYTE   W96
//  #03 //003   ----------------------------------------
 BYTE   W96
//  #03 //004   ----------------------------------------
 BYTE   W96
//  #03 //005   ----------------------------------------
 BYTE   W96
//  #03 //006   ----------------------------------------
 BYTE   W96
//  #03 //007   ----------------------------------------
 BYTE   W96
//  #03 //008   ----------------------------------------
Label_01006EAA:
 BYTE   N24  An4  v096
 BYTE   W24
 BYTE   Cn5
 BYTE   W24
 BYTE   N36  Bn4
 BYTE   W36
 BYTE   N12  Gn4
 BYTE   W12
 BYTE   PEND 
//  #03 //009   ----------------------------------------
Label_01006EB7:
 BYTE   N12  An4  v096
 BYTE   W12
 BYTE   Cn5
 BYTE   W12
 BYTE   N04  Bn4
 BYTE   W03
 BYTE   Cn5
 BYTE   W03
 BYTE   Bn4
 BYTE   W06
 BYTE   N12  An4
 BYTE   W12
 BYTE   N24  Gn4
 BYTE   W24
 BYTE   En4
 BYTE   W24
 BYTE   PEND 
//  #03 //010   ----------------------------------------
 BYTE   PATT
  POIN2 Label_01006EAA
//  #03 //011   ----------------------------------------
Label_01006ED2:
 BYTE   N12  An4  v096
 BYTE   W12
 BYTE   Cn5
 BYTE   W12
 BYTE   N04  Bn4
 BYTE   W03
 BYTE   Cn5
 BYTE   W03
 BYTE   Bn4
 BYTE   W06
 BYTE   N12  Gn4
 BYTE   W12
 BYTE   N48  An4
 BYTE   W48
 BYTE   PEND 
//  #03 //012   ----------------------------------------
 BYTE   PATT
  POIN2 Label_01006EAA
//  #03 //013   ----------------------------------------
 BYTE   PATT
  POIN2 Label_01006EB7
//  #03 //014   ----------------------------------------
 BYTE   PATT
  POIN2 Label_01006EAA
//  #03 //015   ----------------------------------------
Label_01006EF5:
 BYTE   N12  An4  v096
 BYTE   W12
 BYTE   Cn5
 BYTE   W12
 BYTE   N04  Bn4
 BYTE   W03
 BYTE   Cn5
 BYTE   W03
 BYTE   Bn4
 BYTE   W06
 BYTE   N12  Gn4
 BYTE   W12
 BYTE   N48  An4
 BYTE   W96
//  #03 //016   ----------------------------------------
 BYTE   W96
//  #03 //017   ----------------------------------------
 BYTE   W96
//  #03 //018   ----------------------------------------
 BYTE   W96
//  #03 //019   ----------------------------------------
 BYTE   W48
 BYTE   PEND 
Label_01006F0D:
 BYTE   N24  Gn4  v096
 BYTE   N24  En5
 BYTE   W24
 BYTE   Gn4
 BYTE   N24  En5
 BYTE   W24
//  #03 //020   ----------------------------------------
 BYTE   N36  Fn4
 BYTE   N36  Dn5
 BYTE   W36
 BYTE   N06  Bn4
 BYTE   W12
 BYTE   PEND 
Label_01006F20:
 BYTE   N24  En5  v096
 BYTE   N24  Gn4
 BYTE   W24
 BYTE   N06  Fn4
 BYTE   N06  Dn5
 BYTE   W12
 BYTE   En4
 BYTE   N06  Cn5
 BYTE   W12
//  #03 //021   ----------------------------------------
 BYTE   N48  Dn4
 BYTE   N48  Bn4
 BYTE   W48
 BYTE   PEND 
Label_01006F35:
 BYTE   N24  Gn4  v096
 BYTE   N24  En5
 BYTE   W24
 BYTE   Gn4
 BYTE   N24  En5
 BYTE   W24
//  #03 //022   ----------------------------------------
 BYTE   N36  Fn4
 BYTE   N36  Dn5
 BYTE   W36
 BYTE   N06  En4
 BYTE   N06  Cn5
 BYTE   W12
 BYTE   PEND 
Label_01006F4A:
 BYTE   N24  Dn4  v096
 BYTE   N24  Bn4
 BYTE   W24
 BYTE   Dn4
 BYTE   N24  Bn4
 BYTE   W24
//  #03 //023   ----------------------------------------
 BYTE   N48  Cn4
 BYTE   N48  An4
 BYTE   W48
 BYTE   PEND 
Label_01006F5A:
 BYTE   N24  Gn4  v096
 BYTE   N24  En5
 BYTE   W24
 BYTE   Gn4
 BYTE   N24  En5
 BYTE   W24
//  #03 //024   ----------------------------------------
 BYTE   N48  Fn4
 BYTE   N48  Dn5
 BYTE   W48
 BYTE   PEND 
Label_01006F6A:
 BYTE   N24  Gn4  v096
 BYTE   N24  En5
 BYTE   W24
 BYTE   N06  Fn4
 BYTE   N06  Dn5
 BYTE   W12
 BYTE   En4
 BYTE   N06  Cn5
 BYTE   W12
//  #03 //025   ----------------------------------------
 BYTE   N48  Dn4
 BYTE   N48  Bn4
 BYTE   W48
 BYTE   PEND 
 BYTE   N12  Gn4  v080
 BYTE   N12  En5
 BYTE   W12
 BYTE   N06  An4  v089
 BYTE   N06  Fn5
 BYTE   W12
 BYTE   N12  Gn4  v098
 BYTE   N12  En5
 BYTE   W12
 BYTE   Fn4  v107
 BYTE   N12  Dn5
 BYTE   W12
//  #03 //026   ----------------------------------------
 BYTE   N24  En4  v116
 BYTE   N24  Cn5
 BYTE   W24
 BYTE   Dn4  v096
 BYTE   N24  Bn4
 BYTE   W24
Label_01006FA1:
 BYTE   N96  An4  v096
 BYTE   N96  Cn4
 BYTE   W96
 BYTE   PEND 
//  #03 //027   ----------------------------------------
Label_01006FA8:
 BYTE   N24  En5  v096
 BYTE   W24
 BYTE   N06  An5
 BYTE   W12
 BYTE   Cn6
 BYTE   W12
 BYTE   Bn5
 BYTE   W03
 BYTE   Cn6
 BYTE   W03
 BYTE   N28  Bn5
 BYTE   W01
 BYTE   N01
 BYTE   W28
 BYTE   N12  Gn5
 BYTE   W24
 BYTE   PEND 
//  #03 //028   ----------------------------------------
Label_01006FBE:
 BYTE   N06  En5  v096
 BYTE   W12
 BYTE   An5
 BYTE   W12
 BYTE   Cn6
 BYTE   W12
 BYTE   Bn5
 BYTE   W03
 BYTE   Cn6
 BYTE   W03
 BYTE   N28  Bn5
 BYTE   W01
 BYTE   N01
 BYTE   W40
 BYTE   N24  En5
 BYTE   W24
 BYTE   PEND 
//  #03 //029   ----------------------------------------
Label_01006FD3:
 BYTE   N06  An5  v096
 BYTE   W12
 BYTE   Cn6
 BYTE   W12
 BYTE   Bn5
 BYTE   W03
 BYTE   Cn6
 BYTE   W03
 BYTE   N28  Bn5
 BYTE   W01
 BYTE   N01
 BYTE   W28
 BYTE   N12  Gn5
 BYTE   W24
 BYTE   N06  En5
 BYTE   W12
 BYTE   PEND 
 BYTE   N06  An5  v096
 BYTE   W12
//  #03 //030   ----------------------------------------
 BYTE   Cn6
 BYTE   W12
 BYTE   Bn5
 BYTE   W03
 BYTE   Cn6
 BYTE   W03
 BYTE   N36  Bn5
 BYTE   W96
//  #03 //031   ----------------------------------------
 BYTE   W96
//  #03 //032   ----------------------------------------
 BYTE   W96
//  #03 //033   ----------------------------------------
 BYTE   W96
//  #03 //034   ----------------------------------------
 BYTE   W96
//  #03 //035   ----------------------------------------
 BYTE   W96
//  #03 //036   ----------------------------------------
 BYTE   W96
//  #03 //037   ----------------------------------------
 BYTE   W96
//  #03 //038   ----------------------------------------
 BYTE   W42
//  #03 //039   ----------------------------------------
 BYTE   PATT
  POIN2 Label_01006EAA
//  #03 //040   ----------------------------------------
 BYTE   PATT
  POIN2 Label_01006EB7
//  #03 //041   ----------------------------------------
 BYTE   PATT
  POIN2 Label_01006EAA
//  #03 //042   ----------------------------------------
 BYTE   PATT
  POIN2 Label_01006ED2
//  #03 //043   ----------------------------------------
 BYTE   PATT
  POIN2 Label_01006EAA
//  #03 //044   ----------------------------------------
 BYTE   PATT
  POIN2 Label_01006EB7
//  #03 //045   ----------------------------------------
 BYTE   PATT
  POIN2 Label_01006EAA
//  #03 //046   ----------------------------------------
 BYTE   PATT
  POIN2 Label_01006EF5
//  #03 //047   ----------------------------------------
 BYTE   PATT
  POIN2 Label_01006F0D
//  #03 //048   ----------------------------------------
 BYTE   PATT
  POIN2 Label_01006F20
//  #03 //049   ----------------------------------------
 BYTE   PATT
  POIN2 Label_01006F35
//  #03 //050   ----------------------------------------
 BYTE   PATT
  POIN2 Label_01006F4A
//  #03 //051   ----------------------------------------
 BYTE   PATT
  POIN2 Label_01006F5A
//  #03 //052   ----------------------------------------
 BYTE   PATT
  POIN2 Label_01006F6A
//  #03 //053   ----------------------------------------
 BYTE   N12  Gn4  v080
 BYTE   N12  En5
 BYTE   W12
 BYTE   N06  An4  v083
 BYTE   N06  Fn5
 BYTE   W12
 BYTE   N12  Gn4  v087
 BYTE   N12  En5
 BYTE   W12
 BYTE   Fn4  v090
 BYTE   N12  Dn5
 BYTE   W12
 BYTE   N24  En4  v094
 BYTE   N24  Cn5
 BYTE   W24
 BYTE   Dn4  v101
 BYTE   N24  Bn4
 BYTE   W24
//  #03 //054   ----------------------------------------
 BYTE   PATT
  POIN2 Label_01006FA1
//  #03 //055   ----------------------------------------
 BYTE   PATT
  POIN2 Label_01006FA8
//  #03 //056   ----------------------------------------
 BYTE   PATT
  POIN2 Label_01006FBE
//  #03 //057   ----------------------------------------
 BYTE   PATT
  POIN2 Label_01006FD3
//  #03 //058   ----------------------------------------
 BYTE   N06  An5  v096
 BYTE   W12
 BYTE   Cn6
 BYTE   W12
 BYTE   Bn5
 BYTE   W03
 BYTE   Cn6
 BYTE   W03
 BYTE   N36  Bn5
 BYTE   W30
 BYTE   N12  Gn5  v001
 BYTE   W12
 BYTE   GoTo
  POIN2 Label_01006E98
 BYTE   FINE

//**************** Track 4 (Midi-Chn.3) ****************//

LoZMMStoneTowerTemple_004:
//  #04 //000   ----------------------------------------
Label_0100684C:
 BYTE   TEMPO   100*LoZMMStoneTowerTemple_tbs/2
 BYTE   KEYSH   LoZMMStoneTowerTemple_key+0
 BYTE   VOICE   105
 BYTE   VOL   45*LoZMMStoneTowerTemple_mvl/mxv
 BYTE   PAN   c_v+0
 BYTE   W96
//  #04 //001   ----------------------------------------
 BYTE   W96
//  #04 //002   ----------------------------------------
 BYTE   W96
//  #04 //003   ----------------------------------------
 BYTE   W96
//  #04 //004   ----------------------------------------
 BYTE   W96
//  #04 //005   ----------------------------------------
 BYTE   W96
//  #04 //006   ----------------------------------------
 BYTE   W96
//  #04 //007   ----------------------------------------
 BYTE   W96
//  #04 //008   ----------------------------------------
 BYTE   W96
//  #04 //009   ----------------------------------------
 BYTE   W96
//  #04 //010   ----------------------------------------
 BYTE   W96
//  #04 //011   ----------------------------------------
 BYTE   W96
//  #04 //012   ----------------------------------------
Label_01006862:
 BYTE   N24  An3  v096
 BYTE   W24
 BYTE   Cn4
 BYTE   W24
 BYTE   N06  Bn3
 BYTE   W03
 BYTE   Cn4
 BYTE   W03
 BYTE   N24  Bn3
 BYTE   W30
 BYTE   N12  Gn3
 BYTE   W12
 BYTE   PEND 
//  #04 //013   ----------------------------------------
Label_01006874:
 BYTE   N12  An3  v096
 BYTE   W12
 BYTE   Cn4
 BYTE   W12
 BYTE   N06  Bn3
 BYTE   W03
 BYTE   Cn4
 BYTE   W03
 BYTE   Bn3
 BYTE   W06
 BYTE   N12  An3
 BYTE   W12
 BYTE   N24  Gn3
 BYTE   W24
 BYTE   En3
 BYTE   W24
 BYTE   PEND 
//  #04 //014   ----------------------------------------
 BYTE   PATT
  POIN2 Label_01006862
//  #04 //015   ----------------------------------------
 BYTE   N12  An3  v096
 BYTE   W12
 BYTE   Cn4
 BYTE   W12
 BYTE   N06  Bn3
 BYTE   W03
 BYTE   Cn4
 BYTE   W03
 BYTE   Bn3
 BYTE   W06
 BYTE   N12  Gn3
 BYTE   W12
 BYTE   N48  An3
 BYTE   W96
//  #04 //016   ----------------------------------------
 BYTE   W96
//  #04 //017   ----------------------------------------
 BYTE   W96
//  #04 //018   ----------------------------------------
 BYTE   W96
//  #04 //019   ----------------------------------------
 BYTE   W96
//  #04 //020   ----------------------------------------
 BYTE   W96
//  #04 //021   ----------------------------------------
 BYTE   W96
//  #04 //022   ----------------------------------------
 BYTE   W96
//  #04 //023   ----------------------------------------
 BYTE   W96
//  #04 //024   ----------------------------------------
 BYTE   W96
//  #04 //025   ----------------------------------------
 BYTE   W96
//  #04 //026   ----------------------------------------
 BYTE   W96
//  #04 //027   ----------------------------------------
 BYTE   W96
//  #04 //028   ----------------------------------------
 BYTE   W96
//  #04 //029   ----------------------------------------
 BYTE   W96
//  #04 //030   ----------------------------------------
 BYTE   W96
//  #04 //031   ----------------------------------------
 BYTE   W96
//  #04 //032   ----------------------------------------
 BYTE   W96
//  #04 //033   ----------------------------------------
 BYTE   W96
//  #04 //034   ----------------------------------------
 BYTE   W96
//  #04 //035   ----------------------------------------
 BYTE   W96
//  #04 //036   ----------------------------------------
 BYTE   W96
//  #04 //037   ----------------------------------------
 BYTE   W96
//  #04 //038   ----------------------------------------
 BYTE   W96
//  #04 //039   ----------------------------------------
 BYTE   W96
//  #04 //040   ----------------------------------------
 BYTE   W96
//  #04 //041   ----------------------------------------
 BYTE   W96
//  #04 //042   ----------------------------------------
 BYTE   W96
//  #04 //043   ----------------------------------------
 BYTE   W48
//  #04 //044   ----------------------------------------
 BYTE   PATT
  POIN2 Label_01006862
//  #04 //045   ----------------------------------------
 BYTE   PATT
  POIN2 Label_01006874
//  #04 //046   ----------------------------------------
 BYTE   PATT
  POIN2 Label_01006862
//  #04 //047   ----------------------------------------
 BYTE   N12  An3  v096
 BYTE   W12
 BYTE   Cn4
 BYTE   W12
 BYTE   N06  Bn3
 BYTE   W03
 BYTE   Cn4
 BYTE   W03
 BYTE   Bn3
 BYTE   W06
 BYTE   N12  Gn3
 BYTE   W12
 BYTE   N48  An3
 BYTE   W96
//  #04 //048   ----------------------------------------
 BYTE   W96
//  #04 //049   ----------------------------------------
 BYTE   W96
//  #04 //050   ----------------------------------------
 BYTE   W96
//  #04 //051   ----------------------------------------
 BYTE   W96
//  #04 //052   ----------------------------------------
 BYTE   W96
//  #04 //053   ----------------------------------------
 BYTE   W96
//  #04 //054   ----------------------------------------
 BYTE   W96
//  #04 //055   ----------------------------------------
 BYTE   W96
//  #04 //056   ----------------------------------------
 BYTE   W96
//  #04 //057   ----------------------------------------
 BYTE   W96
//  #04 //058   ----------------------------------------
 BYTE   W96
//  #04 //059   ----------------------------------------
 BYTE   W96
//  #04 //060   ----------------------------------------
 BYTE   W96
//  #04 //061   ----------------------------------------
 BYTE   W96
//  #04 //062   ----------------------------------------
 BYTE   W96
//  #04 //063   ----------------------------------------
 BYTE   W48
 BYTE   GoTo
  POIN2 Label_0100684C
 BYTE   FINE

//**************** Track 5 (Midi-Chn.4) ****************//

LoZMMStoneTowerTemple_005:
//  #05 //000   ----------------------------------------
Label_010068F8:
 BYTE   TEMPO   100*LoZMMStoneTowerTemple_tbs/2
 BYTE   KEYSH   LoZMMStoneTowerTemple_key+0
 BYTE   VOICE   49
 BYTE   VOL   87*LoZMMStoneTowerTemple_mvl/mxv
 BYTE   PAN   c_v+0
 BYTE   W96
//  #05 //001   ----------------------------------------
 BYTE   W96
//  #05 //002   ----------------------------------------
 BYTE   N96  En2  v096
 BYTE   W96
//  #05 //003   ----------------------------------------
Label_01006908:
 BYTE   N48  Fn2  v096
 BYTE   W48
 BYTE   Dn2
 BYTE   W48
 BYTE   PEND 
//  #05 //004   ----------------------------------------
 BYTE   N96  En2  v096
 BYTE   W96
//  #05 //005   ----------------------------------------
Label_01006913:
 BYTE   N48  Fn2  v096
 BYTE   W48
 BYTE   En2
 BYTE   W48
 BYTE   PEND 
//  #05 //006   ----------------------------------------
 BYTE   N96  En2  v096
 BYTE   W96
//  #05 //007   ----------------------------------------
 BYTE   PATT
  POIN2 Label_01006908
//  #05 //008   ----------------------------------------
 BYTE   N96  En2  v096
 BYTE   W96
//  #05 //009   ----------------------------------------
 BYTE   PATT
  POIN2 Label_01006908
//  #05 //010   ----------------------------------------
 BYTE   N96  En2  v096
 BYTE   W96
//  #05 //011   ----------------------------------------
 BYTE   PATT
  POIN2 Label_01006913
//  #05 //012   ----------------------------------------
 BYTE   N96  En2  v096
 BYTE   W96
//  #05 //013   ----------------------------------------
 BYTE   PATT
  POIN2 Label_01006908
//  #05 //014   ----------------------------------------
 BYTE   N96  En2  v096
 BYTE   W96
//  #05 //015   ----------------------------------------
 BYTE   PATT
  POIN2 Label_01006913
//  #05 //016   ----------------------------------------
 BYTE   N96  En2  v096
 BYTE   W96
//  #05 //017   ----------------------------------------
 BYTE   PATT
  POIN2 Label_01006908
//  #05 //018   ----------------------------------------
 BYTE   N96  En2  v096
 BYTE   W96
//  #05 //019   ----------------------------------------
 BYTE   PATT
  POIN2 Label_01006913
//  #05 //020   ----------------------------------------
 BYTE   N96  En2  v096
 BYTE   W96
//  #05 //021   ----------------------------------------
 BYTE   PATT
  POIN2 Label_01006908
//  #05 //022   ----------------------------------------
 BYTE   N96  En2  v096
 BYTE   W96
//  #05 //023   ----------------------------------------
 BYTE   PATT
  POIN2 Label_01006913
//  #05 //024   ----------------------------------------
 BYTE   N96  En2  v096
 BYTE   W96
//  #05 //025   ----------------------------------------
 BYTE   PATT
  POIN2 Label_01006908
//  #05 //026   ----------------------------------------
 BYTE   N96  En2  v096
 BYTE   W96
//  #05 //027   ----------------------------------------
 BYTE   PATT
  POIN2 Label_01006913
//  #05 //028   ----------------------------------------
 BYTE   N96  En2  v096
 BYTE   W96
//  #05 //029   ----------------------------------------
Label_01006981:
 BYTE   N48  Fn2  v080
 BYTE   W48
 BYTE   Dn2  v059
 BYTE   W48
 BYTE   PEND 
//  #05 //030   ----------------------------------------
 BYTE   N96  En2  v038
 BYTE   W96
//  #05 //031   ----------------------------------------
 BYTE   W96
//  #05 //032   ----------------------------------------
 BYTE   W96
//  #05 //033   ----------------------------------------
 BYTE   W96
//  #05 //034   ----------------------------------------
 BYTE   En2  v096
 BYTE   W96
//  #05 //035   ----------------------------------------
 BYTE   PATT
  POIN2 Label_01006908
//  #05 //036   ----------------------------------------
 BYTE   N96  En2  v096
 BYTE   W96
//  #05 //037   ----------------------------------------
 BYTE   PATT
  POIN2 Label_01006913
//  #05 //038   ----------------------------------------
 BYTE   N96  En2  v096
 BYTE   W96
//  #05 //039   ----------------------------------------
 BYTE   PATT
  POIN2 Label_01006908
//  #05 //040   ----------------------------------------
 BYTE   N96  En2  v096
 BYTE   W96
//  #05 //041   ----------------------------------------
 BYTE   PATT
  POIN2 Label_01006908
//  #05 //042   ----------------------------------------
 BYTE   N96  En2  v096
 BYTE   W96
//  #05 //043   ----------------------------------------
 BYTE   PATT
  POIN2 Label_01006913
//  #05 //044   ----------------------------------------
 BYTE   N96  En2  v096
 BYTE   W96
//  #05 //045   ----------------------------------------
 BYTE   PATT
  POIN2 Label_01006908
//  #05 //046   ----------------------------------------
 BYTE   N96  En2  v096
 BYTE   W96
//  #05 //047   ----------------------------------------
 BYTE   PATT
  POIN2 Label_01006913
//  #05 //048   ----------------------------------------
 BYTE   N96  En2  v096
 BYTE   W96
//  #05 //049   ----------------------------------------
 BYTE   PATT
  POIN2 Label_01006908
//  #05 //050   ----------------------------------------
 BYTE   N96  En2  v096
 BYTE   W96
//  #05 //051   ----------------------------------------
 BYTE   PATT
  POIN2 Label_01006913
//  #05 //052   ----------------------------------------
 BYTE   N96  En2  v096
 BYTE   W96
//  #05 //053   ----------------------------------------
 BYTE   PATT
  POIN2 Label_01006908
//  #05 //054   ----------------------------------------
 BYTE   N96  En2  v096
 BYTE   W96
//  #05 //055   ----------------------------------------
 BYTE   PATT
  POIN2 Label_01006913
//  #05 //056   ----------------------------------------
 BYTE   N96  En2  v096
 BYTE   W96
//  #05 //057   ----------------------------------------
 BYTE   PATT
  POIN2 Label_01006908
//  #05 //058   ----------------------------------------
 BYTE   N96  En2  v096
 BYTE   W96
//  #05 //059   ----------------------------------------
 BYTE   PATT
  POIN2 Label_01006913
//  #05 //060   ----------------------------------------
 BYTE   N96  En2  v096
 BYTE   W96
//  #05 //061   ----------------------------------------
 BYTE   PATT
  POIN2 Label_01006981
//  #05 //062   ----------------------------------------
 BYTE   N96  En2  v038
 BYTE   W96
//  #05 //063   ----------------------------------------
 BYTE   W96
//  #05 //064   ----------------------------------------
 BYTE   GoTo
  POIN2 Label_010068F8
 BYTE   FINE

//**************** Track 6 (Midi-Chn.5) ****************//

LoZMMStoneTowerTemple_006:
//  #06 //000   ----------------------------------------
Label_01006A18:
 BYTE   TEMPO   100*LoZMMStoneTowerTemple_tbs/2
 BYTE   KEYSH   LoZMMStoneTowerTemple_key+0
 BYTE   VOICE   48
 BYTE   VOL   41*LoZMMStoneTowerTemple_mvl/mxv
 BYTE   PAN   c_v+0
 BYTE   W96
//  #06 //001   ----------------------------------------
 BYTE   W96
//  #06 //002   ----------------------------------------
Label_01006A24:
 BYTE   N96  An1  v096
 BYTE   W06
 BYTE   An1
 BYTE   W96
//  #06 //003   ----------------------------------------
 BYTE   W90
 BYTE   PEND 
//  #06 //004   ----------------------------------------
 BYTE   PATT
  POIN2 Label_01006A24
//  #06 //005   ----------------------------------------
 BYTE   PATT
  POIN2 Label_01006A24
//  #06 //006   ----------------------------------------
 BYTE   PATT
  POIN2 Label_01006A24
//  #06 //007   ----------------------------------------
 BYTE   PATT
  POIN2 Label_01006A24
//  #06 //008   ----------------------------------------
 BYTE   PATT
  POIN2 Label_01006A24
//  #06 //009   ----------------------------------------
 BYTE   PATT
  POIN2 Label_01006A24
//  #06 //010   ----------------------------------------
 BYTE   PATT
  POIN2 Label_01006A24
//  #06 //011   ----------------------------------------
 BYTE   PATT
  POIN2 Label_01006A24
//  #06 //012   ----------------------------------------
 BYTE   PATT
  POIN2 Label_01006A24
//  #06 //013   ----------------------------------------
 BYTE   PATT
  POIN2 Label_01006A24
//  #06 //014   ----------------------------------------
 BYTE   PATT
  POIN2 Label_01006A24
//  #06 //015   ----------------------------------------
 BYTE   PATT
  POIN2 Label_01006A24
//  #06 //016   ----------------------------------------
 BYTE   PATT
  POIN2 Label_01006A24
//  #06 //017   ----------------------------------------
 BYTE   N96  An1  v046
 BYTE   W96
//  #06 //018   ----------------------------------------
 BYTE   W96
//  #06 //019   ----------------------------------------
 BYTE   W96
//  #06 //020   ----------------------------------------
 BYTE   W96
//  #06 //021   ----------------------------------------
 BYTE   PATT
  POIN2 Label_01006A24
//  #06 //022   ----------------------------------------
 BYTE   PATT
  POIN2 Label_01006A24
//  #06 //023   ----------------------------------------
 BYTE   PATT
  POIN2 Label_01006A24
//  #06 //024   ----------------------------------------
 BYTE   PATT
  POIN2 Label_01006A24
//  #06 //025   ----------------------------------------
 BYTE   PATT
  POIN2 Label_01006A24
//  #06 //026   ----------------------------------------
 BYTE   PATT
  POIN2 Label_01006A24
//  #06 //027   ----------------------------------------
 BYTE   PATT
  POIN2 Label_01006A24
//  #06 //028   ----------------------------------------
 BYTE   PATT
  POIN2 Label_01006A24
//  #06 //029   ----------------------------------------
 BYTE   PATT
  POIN2 Label_01006A24
//  #06 //030   ----------------------------------------
 BYTE   PATT
  POIN2 Label_01006A24
//  #06 //031   ----------------------------------------
 BYTE   PATT
  POIN2 Label_01006A24
//  #06 //032   ----------------------------------------
 BYTE   PATT
  POIN2 Label_01006A24
//  #06 //033   ----------------------------------------
 BYTE   PATT
  POIN2 Label_01006A24
//  #06 //034   ----------------------------------------
 BYTE   PATT
  POIN2 Label_01006A24
//  #06 //035   ----------------------------------------
 BYTE   N96  An1  v046
 BYTE   W96
//  #06 //036   ----------------------------------------
 BYTE   W96
//  #06 //037   ----------------------------------------
 BYTE   GoTo
  POIN2 Label_01006A18
 BYTE   FINE

//**************** Track 7 (Midi-Chn.6) ****************//

LoZMMStoneTowerTemple_007:
//  #07 //000   ----------------------------------------
Label_01007464:
 BYTE   TEMPO   100*LoZMMStoneTowerTemple_tbs/2
 BYTE   KEYSH   LoZMMStoneTowerTemple_key+0
 BYTE   VOICE   127
 BYTE   VOL   67*LoZMMStoneTowerTemple_mvl/mxv
 BYTE   PAN   c_v+0
 BYTE   N24  Cn1  v127
 BYTE   W24
 BYTE   N36
 BYTE   W36
 BYTE   N12  Cs3
 BYTE   W12
 BYTE   N24  Fs2
 BYTE   W24
//  #07 //001   ----------------------------------------
Label_0100747A:
 BYTE   N24  Cn1  v127
 BYTE   W24
 BYTE   N36
 BYTE   W12
 BYTE   N24  Cs3
 BYTE   W24
 BYTE   N12
 BYTE   W12
 BYTE   N24  Fs2
 BYTE   W24
 BYTE   PEND 
//  #07 //002   ----------------------------------------
 BYTE   PATT
  POIN2 Label_0100747A
//  #07 //003   ----------------------------------------
 BYTE   PATT
  POIN2 Label_0100747A
//  #07 //004   ----------------------------------------
 BYTE   PATT
  POIN2 Label_0100747A
//  #07 //005   ----------------------------------------
 BYTE   PATT
  POIN2 Label_0100747A
//  #07 //006   ----------------------------------------
 BYTE   PATT
  POIN2 Label_0100747A
//  #07 //007   ----------------------------------------
 BYTE   PATT
  POIN2 Label_0100747A
//  #07 //008   ----------------------------------------
 BYTE   PATT
  POIN2 Label_0100747A
//  #07 //009   ----------------------------------------
 BYTE   PATT
  POIN2 Label_0100747A
//  #07 //010   ----------------------------------------
 BYTE   PATT
  POIN2 Label_0100747A
//  #07 //011   ----------------------------------------
 BYTE   PATT
  POIN2 Label_0100747A
//  #07 //012   ----------------------------------------
 BYTE   PATT
  POIN2 Label_0100747A
//  #07 //013   ----------------------------------------
 BYTE   PATT
  POIN2 Label_0100747A
//  #07 //014   ----------------------------------------
 BYTE   PATT
  POIN2 Label_0100747A
//  #07 //015   ----------------------------------------
 BYTE   PATT
  POIN2 Label_0100747A
//  #07 //016   ----------------------------------------
 BYTE   PATT
  POIN2 Label_0100747A
//  #07 //017   ----------------------------------------
 BYTE   PATT
  POIN2 Label_0100747A
//  #07 //018   ----------------------------------------
 BYTE   PATT
  POIN2 Label_0100747A
//  #07 //019   ----------------------------------------
 BYTE   PATT
  POIN2 Label_0100747A
//  #07 //020   ----------------------------------------
 BYTE   PATT
  POIN2 Label_0100747A
//  #07 //021   ----------------------------------------
 BYTE   PATT
  POIN2 Label_0100747A
//  #07 //022   ----------------------------------------
 BYTE   PATT
  POIN2 Label_0100747A
//  #07 //023   ----------------------------------------
 BYTE   N24  Cn1  v127
 BYTE   W24
 BYTE   N36
 BYTE   W12
 BYTE   N24  Cs3
 BYTE   W24
 BYTE   N12
 BYTE   W12
 BYTE   N24  Fs2
 BYTE   W96
//  #07 //024   ----------------------------------------
 BYTE   W96
//  #07 //025   ----------------------------------------
 BYTE   W96
//  #07 //026   ----------------------------------------
 BYTE   W96
//  #07 //027   ----------------------------------------
 BYTE   W96
//  #07 //028   ----------------------------------------
 BYTE   W96
//  #07 //029   ----------------------------------------
 BYTE   W96
//  #07 //030   ----------------------------------------
 BYTE   W96
//  #07 //031   ----------------------------------------
 BYTE   W24
 BYTE   VOL   67*LoZMMStoneTowerTemple_mvl/mxv
 BYTE   PAN   c_v+0
 BYTE   N24  Cn1  v127
 BYTE   W24
 BYTE   N36
 BYTE   W36
 BYTE   N12  Cs3
 BYTE   W12
//  #07 //032   ----------------------------------------
 BYTE   N24  Fs2
 BYTE   W24
 BYTE   Cn1
 BYTE   W24
 BYTE   N36
 BYTE   W12
 BYTE   N24  Cs3
 BYTE   W24
 BYTE   N12
 BYTE   W12
//  #07 //033   ----------------------------------------
 BYTE   N24  Fs2
 BYTE   W24
 BYTE   Cn1
 BYTE   W24
 BYTE   N36
 BYTE   W12
 BYTE   N24  Cs3
 BYTE   W24
 BYTE   N12
 BYTE   W12
//  #07 //034   ----------------------------------------
 BYTE   N24  Fs2
 BYTE   W24
 BYTE   Cn1
 BYTE   W24
 BYTE   N36
 BYTE   W12
 BYTE   N24  Cs3
 BYTE   W24
 BYTE   N12
 BYTE   W12
//  #07 //035   ----------------------------------------
 BYTE   N24  Fs2
 BYTE   W24
 BYTE   Cn1
 BYTE   W24
 BYTE   N36
 BYTE   W12
 BYTE   N24  Cs3
 BYTE   W24
 BYTE   N12
 BYTE   W12
//  #07 //036   ----------------------------------------
 BYTE   N24  Fs2
 BYTE   W24
 BYTE   Cn1
 BYTE   W24
 BYTE   N36
 BYTE   W12
 BYTE   N24  Cs3
 BYTE   W24
 BYTE   N12
 BYTE   W12
//  #07 //037   ----------------------------------------
 BYTE   N24  Fs2
 BYTE   W24
 BYTE   Cn1
 BYTE   W24
 BYTE   N36
 BYTE   W12
 BYTE   N24  Cs3
 BYTE   W24
 BYTE   N12
 BYTE   W12
//  #07 //038   ----------------------------------------
 BYTE   N24  Fs2
 BYTE   W24
 BYTE   Cn1
 BYTE   W24
 BYTE   N36
 BYTE   W12
 BYTE   N24  Cs3
 BYTE   W24
 BYTE   N12
 BYTE   W12
//  #07 //039   ----------------------------------------
 BYTE   N24  Fs2
 BYTE   W24
 BYTE   Cn1
 BYTE   W24
 BYTE   N36
 BYTE   W12
 BYTE   N24  Cs3
 BYTE   W24
 BYTE   N12
 BYTE   W12
//  #07 //040   ----------------------------------------
 BYTE   N24  Fs2
 BYTE   W24
 BYTE   Cn1
 BYTE   W24
 BYTE   N36
 BYTE   W12
 BYTE   N24  Cs3
 BYTE   W24
 BYTE   N12
 BYTE   W12
//  #07 //041   ----------------------------------------
 BYTE   N24  Fs2
 BYTE   W24
 BYTE   Cn1
 BYTE   W24
 BYTE   N36
 BYTE   W12
 BYTE   N24  Cs3
 BYTE   W24
 BYTE   N12
 BYTE   W12
//  #07 //042   ----------------------------------------
 BYTE   N24  Fs2
 BYTE   W24
 BYTE   Cn1
 BYTE   W24
 BYTE   N36
 BYTE   W12
 BYTE   N24  Cs3
 BYTE   W24
 BYTE   N12
 BYTE   W12
//  #07 //043   ----------------------------------------
 BYTE   N24  Fs2
 BYTE   W24
 BYTE   Cn1
 BYTE   W24
 BYTE   N36
 BYTE   W12
 BYTE   N24  Cs3
 BYTE   W24
 BYTE   N12
 BYTE   W12
//  #07 //044   ----------------------------------------
 BYTE   N24  Fs2
 BYTE   W24
 BYTE   Cn1
 BYTE   W24
 BYTE   N36
 BYTE   W12
 BYTE   N24  Cs3
 BYTE   W24
 BYTE   N12
 BYTE   W12
//  #07 //045   ----------------------------------------
 BYTE   N24  Fs2
 BYTE   W24
 BYTE   Cn1
 BYTE   W24
 BYTE   N36
 BYTE   W12
 BYTE   N24  Cs3
 BYTE   W24
 BYTE   N12
 BYTE   W12
//  #07 //046   ----------------------------------------
 BYTE   N24  Fs2
 BYTE   W24
 BYTE   Cn1
 BYTE   W24
 BYTE   N36
 BYTE   W12
 BYTE   N24  Cs3
 BYTE   W24
 BYTE   N12
 BYTE   W12
//  #07 //047   ----------------------------------------
 BYTE   N24  Fs2
 BYTE   W24
 BYTE   Cn1
 BYTE   W24
 BYTE   N36
 BYTE   W12
 BYTE   N24  Cs3
 BYTE   W24
 BYTE   N12
 BYTE   W12
//  #07 //048   ----------------------------------------
 BYTE   N24  Fs2
 BYTE   W24
 BYTE   Cn1
 BYTE   W24
 BYTE   N36
 BYTE   W12
 BYTE   N24  Cs3
 BYTE   W24
 BYTE   N12
 BYTE   W12
//  #07 //049   ----------------------------------------
 BYTE   N24  Fs2
 BYTE   W24
 BYTE   Cn1
 BYTE   W24
 BYTE   N36
 BYTE   W12
 BYTE   N24  Cs3
 BYTE   W24
 BYTE   N12
 BYTE   W12
//  #07 //050   ----------------------------------------
 BYTE   N24  Fs2
 BYTE   W24
 BYTE   Cn1
 BYTE   W24
 BYTE   N36
 BYTE   W12
 BYTE   N24  Cs3
 BYTE   W24
 BYTE   N12
 BYTE   W12
//  #07 //051   ----------------------------------------
 BYTE   N24  Fs2
 BYTE   W24
 BYTE   Cn1
 BYTE   W24
 BYTE   N36
 BYTE   W12
 BYTE   N24  Cs3
 BYTE   W24
 BYTE   N12
 BYTE   W12
//  #07 //052   ----------------------------------------
 BYTE   N24  Fs2
 BYTE   W24
 BYTE   Cn1
 BYTE   W24
 BYTE   N36
 BYTE   W12
 BYTE   N24  Cs3
 BYTE   W24
 BYTE   N12
 BYTE   W12
//  #07 //053   ----------------------------------------
 BYTE   N24  Fs2
 BYTE   W24
 BYTE   Cn1
 BYTE   W24
 BYTE   N36
 BYTE   W12
 BYTE   N24  Cs3
 BYTE   W24
 BYTE   N12
 BYTE   W12
//  #07 //054   ----------------------------------------
 BYTE   N24  Fs2
 BYTE   W24
 BYTE   Cn1
 BYTE   W24
 BYTE   N36
 BYTE   W12
 BYTE   N24  Cs3
 BYTE   W24
 BYTE   N12
 BYTE   W12
//  #07 //055   ----------------------------------------
 BYTE   N24  Fs2
 BYTE   W96
//  #07 //056   ----------------------------------------
 BYTE   W96
//  #07 //057   ----------------------------------------
 BYTE   W96
//  #07 //058   ----------------------------------------
 BYTE   W96
//  #07 //059   ----------------------------------------
 BYTE   W96
//  #07 //060   ----------------------------------------
 BYTE   W96
//  #07 //061   ----------------------------------------
 BYTE   W96
//  #07 //062   ----------------------------------------
 BYTE   W96
//  #07 //063   ----------------------------------------
 BYTE   W24
 BYTE   GoTo
  POIN2 Label_01007464
 BYTE   FINE

//******************************************************//
	ALIGN 4

LoZMMStoneTowerTemple:
	BYTE	7	// NumTrks
	BYTE	0	// NumBlks
	BYTE	LoZMMStoneTowerTemple_pri	// Priority
	BYTE	LoZMMStoneTowerTemple_rev	// Reverb.
    
	POIN2	LoZMMStoneTowerTemple_grp
    
	POIN2	LoZMMStoneTowerTemple_001
	POIN2	LoZMMStoneTowerTemple_002
	POIN2	LoZMMStoneTowerTemple_003
	POIN2	LoZMMStoneTowerTemple_004
	POIN2	LoZMMStoneTowerTemple_005
	POIN2	LoZMMStoneTowerTemple_006
	POIN2	LoZMMStoneTowerTemple_007

	
