	.include "MPlayDef.s"

	.equ	LoZTPFaronWoods_grp, voicegroup000
	.equ	LoZTPFaronWoods_pri, 10
	.equ	LoZTPFaronWoods_rev, 0
	.equ	LoZTPFaronWoods_mvl, 127
	.equ	LoZTPFaronWoods_key, 0
	.equ	LoZTPFaronWoods_tbs, 1
	.equ	LoZTPFaronWoods_exg, 0
	.equ	LoZTPFaronWoods_cmp, 1

	.section .rodata
	.global	LoZTPFaronWoods
	.align	2


@**************** Track 1 (Midi-Chn.0) ****************@

LoZTPFaronWoods_001:
@  #01 @000   ----------------------------------------
Label_01005B50:
 .byte   TEMPO , 96*LoZTPFaronWoods_tbs/2
 .byte   KEYSH , LoZTPFaronWoods_key+0
 .byte   VOICE , 46
 .byte   VOL , 55*LoZTPFaronWoods_mvl/mxv
 .byte   PAN , c_v+0
 .byte   W96
@  #01 @001   ----------------------------------------
 .byte   N24 ,Gs2 ,v100
 .byte   W12
 .byte   Gs3
 .byte   W12
 .byte   Ds3
 .byte   W12
 .byte   Cs3
 .byte   W12
 .byte   Gs3
 .byte   W12
 .byte   Ds3
 .byte   W12
 .byte   Cs3
 .byte   W12
 .byte   Gs3
 .byte   W12
@  #01 @002   ----------------------------------------
Label_01005B6D:
 .byte   N24 ,Gs2 ,v100
 .byte   W12
 .byte   Gs3
 .byte   W12
 .byte   Ds3
 .byte   W12
 .byte   Cs3
 .byte   W12
 .byte   Gs3
 .byte   W12
 .byte   Ds3
 .byte   W12
 .byte   Cs3
 .byte   W12
 .byte   Gs3
 .byte   W12
 .byte   PEND 
@  #01 @003   ----------------------------------------
Label_01005B80:
 .byte   N24 ,An2 ,v100
 .byte   W12
 .byte   Gs3
 .byte   W12
 .byte   Ds3
 .byte   W12
 .byte   Cs3
 .byte   W12
 .byte   Gs3
 .byte   W12
 .byte   Ds3
 .byte   W12
 .byte   Cs3
 .byte   W12
 .byte   Gs3
 .byte   W12
 .byte   PEND 
@  #01 @004   ----------------------------------------
 .byte   PATT
  .word Label_01005B80
@  #01 @005   ----------------------------------------
 .byte   PATT
  .word Label_01005B6D
@  #01 @006   ----------------------------------------
 .byte   PATT
  .word Label_01005B6D
@  #01 @007   ----------------------------------------
 .byte   PATT
  .word Label_01005B80
@  #01 @008   ----------------------------------------
 .byte   PATT
  .word Label_01005B80
@  #01 @009   ----------------------------------------
 .byte   PATT
  .word Label_01005B6D
@  #01 @010   ----------------------------------------
 .byte   PATT
  .word Label_01005B6D
@  #01 @011   ----------------------------------------
 .byte   PATT
  .word Label_01005B80
@  #01 @012   ----------------------------------------
 .byte   PATT
  .word Label_01005B80
@  #01 @013   ----------------------------------------
 .byte   PATT
  .word Label_01005B6D
@  #01 @014   ----------------------------------------
 .byte   PATT
  .word Label_01005B6D
@  #01 @015   ----------------------------------------
 .byte   PATT
  .word Label_01005B80
@  #01 @016   ----------------------------------------
 .byte   PATT
  .word Label_01005B80
@  #01 @017   ----------------------------------------
 .byte   PATT
  .word Label_01005B6D
@  #01 @018   ----------------------------------------
 .byte   PATT
  .word Label_01005B6D
@  #01 @019   ----------------------------------------
 .byte   PATT
  .word Label_01005B80
@  #01 @020   ----------------------------------------
 .byte   PATT
  .word Label_01005B80
@  #01 @021   ----------------------------------------
 .byte   PATT
  .word Label_01005B6D
@  #01 @022   ----------------------------------------
 .byte   PATT
  .word Label_01005B6D
@  #01 @023   ----------------------------------------
 .byte   PATT
  .word Label_01005B80
@  #01 @024   ----------------------------------------
 .byte   PATT
  .word Label_01005B80
@  #01 @025   ----------------------------------------
 .byte   PATT
  .word Label_01005B6D
@  #01 @026   ----------------------------------------
 .byte   PATT
  .word Label_01005B6D
@  #01 @027   ----------------------------------------
 .byte   PATT
  .word Label_01005B80
@  #01 @028   ----------------------------------------
 .byte   PATT
  .word Label_01005B80
@  #01 @029   ----------------------------------------
 .byte   PATT
  .word Label_01005B6D
@  #01 @030   ----------------------------------------
 .byte   PATT
  .word Label_01005B6D
@  #01 @031   ----------------------------------------
 .byte   PATT
  .word Label_01005B80
@  #01 @032   ----------------------------------------
 .byte   N24 ,An2 ,v100
 .byte   W12
 .byte   Gs3
 .byte   W12
 .byte   Ds3
 .byte   W12
 .byte   Cs3
 .byte   W12
 .byte   Gs3
 .byte   W12
 .byte   Ds3
 .byte   W12
 .byte   Cs3
 .byte   W12
 .byte   N12 ,Gs3
 .byte   W12
@  #01 @033   ----------------------------------------
 .byte   GOTO
  .word Label_01005B50
 .byte   FINE

@**************** Track 2 (Midi-Chn.1) ****************@

LoZTPFaronWoods_002:
@  #02 @000   ----------------------------------------
Label_010068F8:
 .byte   TEMPO , 96*LoZTPFaronWoods_tbs/2
 .byte   KEYSH , LoZTPFaronWoods_key+0
 .byte   VOICE , 46
 .byte   VOL , 55*LoZTPFaronWoods_mvl/mxv
 .byte   PAN , c_v+0
 .byte   N12 ,Ds5 ,v100
 .byte   W02
 .byte   N24 ,En5
 .byte   W10
 .byte   N12 ,Ds5
 .byte   W12
 .byte   N24 ,Bn4
 .byte   W12
 .byte   Fs4
 .byte   W12
 .byte   N48 ,Cs4
 .byte   W48
@  #02 @001   ----------------------------------------
 .byte   W96
@  #02 @002   ----------------------------------------
 .byte   W96
@  #02 @003   ----------------------------------------
 .byte   W96
@  #02 @004   ----------------------------------------
 .byte   W96
@  #02 @005   ----------------------------------------
Label_01006918:
 .byte   N24 ,Cs5 ,v100
 .byte   W12
 .byte   Cn5
 .byte   W12
 .byte   Gs4
 .byte   W12
 .byte   N48 ,Fs4
 .byte   W60
 .byte   PEND 
@  #02 @006   ----------------------------------------
Label_01006924:
 .byte   N24 ,Fs4 ,v100
 .byte   W24
 .byte   N72 ,Ds4
 .byte   W96
@  #02 @007   ----------------------------------------
 .byte   W96
@  #02 @008   ----------------------------------------
 .byte   W72
 .byte   PEND 
Label_0100692E:
 .byte   N72 ,Ds4 ,v100
 .byte   W02
 .byte   Fs4
 .byte   W72
@  #02 @009   ----------------------------------------
 .byte   N24 ,An4
 .byte   W22
 .byte   PEND 
Label_01006938:
 .byte   N72 ,En4 ,v100
 .byte   W02
 .byte   Gs4
 .byte   W68
 .byte   W02
 .byte   N24 ,An4
 .byte   W02
@  #02 @010   ----------------------------------------
 .byte   Cs5
 .byte   W22
 .byte   PEND 
 .byte   N96 ,Gs4 ,v100
 .byte   W02
 .byte   Bn4
 .byte   W96
@  #02 @011   ----------------------------------------
 .byte   W92
 .byte   W02
@  #02 @012   ----------------------------------------
 .byte   PATT
  .word Label_01006918
@  #02 @013   ----------------------------------------
 .byte   PATT
  .word Label_01006924
@  #02 @014   ----------------------------------------
 .byte   PATT
  .word Label_0100692E
@  #02 @015   ----------------------------------------
 .byte   PATT
  .word Label_01006938
@  #02 @016   ----------------------------------------
 .byte   N96 ,Gs4 ,v100
 .byte   W02
 .byte   Bn4
 .byte   W96
@  #02 @017   ----------------------------------------
 .byte   W96
@  #02 @018   ----------------------------------------
 .byte   W96
@  #02 @019   ----------------------------------------
 .byte   W96
@  #02 @020   ----------------------------------------
 .byte   W96
@  #02 @021   ----------------------------------------
 .byte   W96
@  #02 @022   ----------------------------------------
 .byte   W96
@  #02 @023   ----------------------------------------
 .byte   W96
@  #02 @024   ----------------------------------------
 .byte   W96
@  #02 @025   ----------------------------------------
 .byte   W96
@  #02 @026   ----------------------------------------
 .byte   W96
@  #02 @027   ----------------------------------------
 .byte   W96
@  #02 @028   ----------------------------------------
 .byte   W96
@  #02 @029   ----------------------------------------
 .byte   W88
 .byte   N06 ,Fs4
 .byte   W02
 .byte   N04 ,An4
 .byte   W02
 .byte   N02 ,Cs5
 .byte   W02
 .byte   GOTO
  .word Label_010068F8
 .byte   FINE

@**************** Track 3 (Midi-Chn.2) ****************@

LoZTPFaronWoods_003:
@  #03 @000   ----------------------------------------
Label_01006984:
 .byte   TEMPO , 96*LoZTPFaronWoods_tbs/2
 .byte   KEYSH , LoZTPFaronWoods_key+0
 .byte   VOICE , 49
 .byte   VOL , 42*LoZTPFaronWoods_mvl/mxv
 .byte   PAN , c_v+0
 .byte   N96 ,Bn2 ,v080
 .byte   N96 ,Cs3
 .byte   N96 ,Gs3
 .byte   W92
 .byte   W03
 .byte   W96
@  #03 @001   ----------------------------------------
 .byte   W96
@  #03 @002   ----------------------------------------
 .byte   W96
@  #03 @003   ----------------------------------------
 .byte   W96
@  #03 @004   ----------------------------------------
 .byte   W96
@  #03 @005   ----------------------------------------
 .byte   W96
@  #03 @006   ----------------------------------------
 .byte   W96
@  #03 @007   ----------------------------------------
 .byte   W96
@  #03 @008   ----------------------------------------
 .byte   W96
@  #03 @009   ----------------------------------------
 .byte   W96
@  #03 @010   ----------------------------------------
 .byte   W96
@  #03 @011   ----------------------------------------
 .byte   W96
@  #03 @012   ----------------------------------------
 .byte   W96
@  #03 @013   ----------------------------------------
 .byte   W96
@  #03 @014   ----------------------------------------
 .byte   W96
@  #03 @015   ----------------------------------------
 .byte   W96
@  #03 @016   ----------------------------------------
 .byte   W96
@  #03 @017   ----------------------------------------
 .byte   W96
@  #03 @018   ----------------------------------------
 .byte   W96
@  #03 @019   ----------------------------------------
 .byte   W96
@  #03 @020   ----------------------------------------
 .byte   W96
@  #03 @021   ----------------------------------------
 .byte   W96
@  #03 @022   ----------------------------------------
 .byte   W96
@  #03 @023   ----------------------------------------
 .byte   W96
@  #03 @024   ----------------------------------------
 .byte   W96
@  #03 @025   ----------------------------------------
 .byte   W96
@  #03 @026   ----------------------------------------
 .byte   W96
@  #03 @027   ----------------------------------------
 .byte   W96
@  #03 @028   ----------------------------------------
 .byte   W96
@  #03 @029   ----------------------------------------
 .byte   W96
@  #03 @030   ----------------------------------------
 .byte   W96
@  #03 @031   ----------------------------------------
 .byte   W96
@  #03 @032   ----------------------------------------
 .byte   GOTO
  .word Label_01006984
 .byte   FINE

@**************** Track 4 (Midi-Chn.3) ****************@

LoZTPFaronWoods_004:
@  #04 @000   ----------------------------------------
Label_01006E98:
 .byte   TEMPO , 96*LoZTPFaronWoods_tbs/2
 .byte   KEYSH , LoZTPFaronWoods_key+0
 .byte   VOICE , 71
 .byte   VOL , 67*LoZTPFaronWoods_mvl/mxv
 .byte   PAN , c_v+0
 .byte   W96
@  #04 @001   ----------------------------------------
 .byte   W96
@  #04 @002   ----------------------------------------
 .byte   W96
@  #04 @003   ----------------------------------------
 .byte   W96
@  #04 @004   ----------------------------------------
 .byte   W96
@  #04 @005   ----------------------------------------
Label_01006EA7:
 .byte   N12 ,Cs4 ,v100
 .byte   W12
 .byte   Cn4
 .byte   W12
 .byte   Gs3
 .byte   W12
 .byte   N48 ,Fs3
 .byte   W48
 .byte   N12 ,Ds3
 .byte   W12
 .byte   PEND 
@  #04 @006   ----------------------------------------
Label_01006EB6:
 .byte   N20 ,Fs3 ,v100
 .byte   W20
 .byte   N02 ,Fn3
 .byte   W02
 .byte   En3
 .byte   W02
 .byte   N48 ,Ds3
 .byte   W48
 .byte   N12 ,Gs2
 .byte   W12
 .byte   Cs3
 .byte   W12
 .byte   PEND 
@  #04 @007   ----------------------------------------
Label_01006EC8:
 .byte   N96 ,Ds3 ,v100
 .byte   W19
 .byte   N68
 .byte   W13
 .byte   N03
 .byte   W96
@  #04 @008   ----------------------------------------
 .byte   W36
 .byte   W03
 .byte   PEND 
Label_01006ED3:
 .byte   N20 ,Bn2 ,v100
 .byte   N20 ,Ds3
 .byte   W20
 .byte   N02 ,Cs3
 .byte   N02 ,En3
 .byte   W02
 .byte   Cs3
 .byte   N02 ,Fn3
 .byte   W02
 .byte   N72 ,Ds3
 .byte   N72 ,Fs3
 .byte   W72
 .byte   PEND 
@  #04 @009   ----------------------------------------
Label_01006EE8:
 .byte   N24 ,Fs3 ,v100
 .byte   N24 ,An3
 .byte   W24
 .byte   N72 ,En3
 .byte   N72 ,Gs3
 .byte   W72
 .byte   PEND 
@  #04 @010   ----------------------------------------
 .byte   N24 ,An3 ,v100
 .byte   N24 ,Cs4
 .byte   W24
 .byte   N96 ,Gs3
 .byte   N96 ,Bn3
 .byte   W19
 .byte   N68 ,Gs3
 .byte   N68 ,Bn3
 .byte   W13
 .byte   N03 ,Gs3
 .byte   N03 ,Bn3
 .byte   W96
@  #04 @011   ----------------------------------------
 .byte   W60
 .byte   W03
@  #04 @012   ----------------------------------------
 .byte   PATT
  .word Label_01006EA7
@  #04 @013   ----------------------------------------
 .byte   PATT
  .word Label_01006EB6
@  #04 @014   ----------------------------------------
 .byte   PATT
  .word Label_01006EC8
@  #04 @015   ----------------------------------------
 .byte   PATT
  .word Label_01006ED3
@  #04 @016   ----------------------------------------
 .byte   PATT
  .word Label_01006EE8
@  #04 @017   ----------------------------------------
 .byte   N24 ,An3 ,v100
 .byte   N24 ,Cs4
 .byte   W24
 .byte   N96 ,Gs3
 .byte   N96 ,Bn3
 .byte   W19
 .byte   N68 ,Gs3
 .byte   N68 ,Bn3
 .byte   W13
 .byte   N03 ,Gs3
 .byte   N03 ,Bn3
 .byte   W96
@  #04 @018   ----------------------------------------
 .byte   W96
@  #04 @019   ----------------------------------------
 .byte   W96
@  #04 @020   ----------------------------------------
 .byte   W96
@  #04 @021   ----------------------------------------
 .byte   W96
@  #04 @022   ----------------------------------------
 .byte   W96
@  #04 @023   ----------------------------------------
 .byte   W96
@  #04 @024   ----------------------------------------
 .byte   W96
@  #04 @025   ----------------------------------------
 .byte   W96
@  #04 @026   ----------------------------------------
 .byte   W60
 .byte   W03
 .byte   N12 ,Ds3
 .byte   W12
 .byte   En3
 .byte   W12
 .byte   Fs3
 .byte   W12
@  #04 @027   ----------------------------------------
 .byte   Gs3
 .byte   W12
 .byte   N36 ,Ds3
 .byte   W36
 .byte   N12 ,Cs3
 .byte   W12
 .byte   N72 ,Ds3
 .byte   W72
@  #04 @028   ----------------------------------------
 .byte   N12 ,Gs3
 .byte   W12
 .byte   An3
 .byte   W12
 .byte   N44 ,Gs3
 .byte   W44
 .byte   N02 ,An3
 .byte   W02
 .byte   As3
 .byte   W02
 .byte   N96 ,Bn3
 .byte   W19
 .byte   N48
 .byte   W96
@  #04 @029   ----------------------------------------
 .byte   W28
 .byte   GOTO
  .word Label_01006E98
 .byte   FINE

@**************** Track 5 (Midi-Chn.4) ****************@

LoZTPFaronWoods_005:
@  #05 @000   ----------------------------------------
Label_010069C0:
 .byte   TEMPO , 96*LoZTPFaronWoods_tbs/2
 .byte   KEYSH , LoZTPFaronWoods_key+0
 .byte   VOICE , 68
 .byte   VOL , 35*LoZTPFaronWoods_mvl/mxv
 .byte   PAN , c_v+0
 .byte   W96
@  #05 @001   ----------------------------------------
 .byte   W96
@  #05 @002   ----------------------------------------
 .byte   W96
@  #05 @003   ----------------------------------------
 .byte   W96
@  #05 @004   ----------------------------------------
 .byte   W96
@  #05 @005   ----------------------------------------
 .byte   W96
@  #05 @006   ----------------------------------------
 .byte   W96
@  #05 @007   ----------------------------------------
 .byte   W96
@  #05 @008   ----------------------------------------
 .byte   W96
@  #05 @009   ----------------------------------------
 .byte   W96
@  #05 @010   ----------------------------------------
 .byte   W96
@  #05 @011   ----------------------------------------
 .byte   W96
@  #05 @012   ----------------------------------------
 .byte   W96
@  #05 @013   ----------------------------------------
 .byte   W96
@  #05 @014   ----------------------------------------
 .byte   W96
@  #05 @015   ----------------------------------------
 .byte   W96
@  #05 @016   ----------------------------------------
 .byte   W96
@  #05 @017   ----------------------------------------
 .byte   W96
@  #05 @018   ----------------------------------------
 .byte   W96
@  #05 @019   ----------------------------------------
 .byte   W96
@  #05 @020   ----------------------------------------
 .byte   W96
@  #05 @021   ----------------------------------------
 .byte   N72 ,Fs2 ,v100
 .byte   N72 ,As2
 .byte   W72
 .byte   N24 ,Ds2
 .byte   N24 ,Fs2
 .byte   W24
@  #05 @022   ----------------------------------------
 .byte   N96 ,Fn2
 .byte   N96 ,Gs2
 .byte   W96
@  #05 @023   ----------------------------------------
 .byte   N72 ,En2
 .byte   N72 ,Gs2
 .byte   W72
 .byte   N24 ,Cs2
 .byte   N24 ,En2
 .byte   W24
@  #05 @024   ----------------------------------------
 .byte   N96 ,Ds2
 .byte   N96 ,Fs2
 .byte   W96
@  #05 @025   ----------------------------------------
 .byte   W96
@  #05 @026   ----------------------------------------
 .byte   W96
@  #05 @027   ----------------------------------------
 .byte   W96
@  #05 @028   ----------------------------------------
 .byte   W96
@  #05 @029   ----------------------------------------
 .byte   W96
@  #05 @030   ----------------------------------------
 .byte   W96
@  #05 @031   ----------------------------------------
 .byte   W96
@  #05 @032   ----------------------------------------
 .byte   W96
@  #05 @033   ----------------------------------------
 .byte   GOTO
  .word Label_010069C0
 .byte   FINE

@**************** Track 6 (Midi-Chn.5) ****************@

LoZTPFaronWoods_006:
@  #06 @000   ----------------------------------------
Label_01007464:
 .byte   TEMPO , 96*LoZTPFaronWoods_tbs/2
 .byte   KEYSH , LoZTPFaronWoods_key+0
 .byte   VOICE , 62
 .byte   VOL , 55*LoZTPFaronWoods_mvl/mxv
 .byte   PAN , c_v+0
 .byte   W96
@  #06 @001   ----------------------------------------
 .byte   W96
@  #06 @002   ----------------------------------------
 .byte   W96
@  #06 @003   ----------------------------------------
 .byte   W96
@  #06 @004   ----------------------------------------
 .byte   W96
@  #06 @005   ----------------------------------------
 .byte   W96
@  #06 @006   ----------------------------------------
 .byte   W96
@  #06 @007   ----------------------------------------
 .byte   W96
@  #06 @008   ----------------------------------------
 .byte   W96
@  #06 @009   ----------------------------------------
 .byte   W96
@  #06 @010   ----------------------------------------
 .byte   W96
@  #06 @011   ----------------------------------------
 .byte   W96
@  #06 @012   ----------------------------------------
 .byte   W96
@  #06 @013   ----------------------------------------
 .byte   W96
@  #06 @014   ----------------------------------------
 .byte   W96
@  #06 @015   ----------------------------------------
 .byte   W96
@  #06 @016   ----------------------------------------
 .byte   W96
@  #06 @017   ----------------------------------------
 .byte   W96
@  #06 @018   ----------------------------------------
 .byte   W96
@  #06 @019   ----------------------------------------
 .byte   W96
@  #06 @020   ----------------------------------------
 .byte   W96
@  #06 @021   ----------------------------------------
 .byte   W96
@  #06 @022   ----------------------------------------
 .byte   W96
@  #06 @023   ----------------------------------------
 .byte   W96
@  #06 @024   ----------------------------------------
 .byte   W96
@  #06 @025   ----------------------------------------
 .byte   N12 ,Ds3 ,v100
 .byte   W12
 .byte   En3
 .byte   W12
 .byte   Fs3
 .byte   W12
 .byte   Gs3
 .byte   W12
 .byte   N36 ,Ds3
 .byte   W36
 .byte   N12 ,Cs3
 .byte   W12
@  #06 @026   ----------------------------------------
 .byte   N72 ,Ds3
 .byte   W72
 .byte   N12 ,Gs3
 .byte   W12
 .byte   An3
 .byte   W12
@  #06 @027   ----------------------------------------
 .byte   N72 ,Gs3
 .byte   W72
 .byte   N12 ,An3
 .byte   W12
 .byte   Bn3
 .byte   W12
@  #06 @028   ----------------------------------------
 .byte   N20 ,An3
 .byte   W20
 .byte   N02 ,Gs3
 .byte   W02
 .byte   Gn3
 .byte   W02
 .byte   N72 ,Fs3
 .byte   W72
@  #06 @029   ----------------------------------------
 .byte   N12 ,As2
 .byte   W12
 .byte   Bn2
 .byte   W12
 .byte   Cs3
 .byte   W12
 .byte   Ds3
 .byte   W12
 .byte   N36 ,As2
 .byte   W36
 .byte   N12 ,Gs2
 .byte   W12
@  #06 @030   ----------------------------------------
 .byte   N72 ,As2
 .byte   W72
 .byte   N12 ,Ds3
 .byte   W12
 .byte   En3
 .byte   W12
@  #06 @031   ----------------------------------------
 .byte   N44 ,Ds3
 .byte   W44
 .byte   N02 ,En3
 .byte   W02
 .byte   Fn3
 .byte   W02
 .byte   N96 ,Fs3
 .byte   W19
 .byte   N48
 .byte   W96
@  #06 @032   ----------------------------------------
 .byte   W28
 .byte   GOTO
  .word Label_01007464
 .byte   FINE

@******************************************************@
	.align	2

LoZTPFaronWoods:
	.byte	6	@ NumTrks
	.byte	0	@ NumBlks
	.byte	LoZTPFaronWoods_pri	@ Priority
	.byte	LoZTPFaronWoods_rev	@ Reverb.
    
	.word	LoZTPFaronWoods_grp
    
	.word	LoZTPFaronWoods_001
	.word	LoZTPFaronWoods_002
	.word	LoZTPFaronWoods_003
	.word	LoZTPFaronWoods_004
	.word	LoZTPFaronWoods_005
	.word	LoZTPFaronWoods_006

	.end
