//Event file generated from Sappy .s format.
	

	#define	LoZWWGreatSea_grp  voicegroup000
	#define	LoZWWGreatSea_pri  0
	#define	LoZWWGreatSea_rev  0
	#define	LoZWWGreatSea_mvl  127
	#define	LoZWWGreatSea_key  0
	#define	LoZWWGreatSea_tbs  1
	#define	LoZWWGreatSea_exg  0
	#define	LoZWWGreatSea_cmp  1

	// .rodata
	//	LoZWWGreatSea
	ALIGN 4


//**************** Track 1 (Midi-Chn.0) ****************//

LoZWWGreatSea_001:
//  #01 //000   ----------------------------------------
 BYTE   KEYSH   LoZWWGreatSea_key+0
Label_011E01A2:
 BYTE   TEMPO   140*LoZWWGreatSea_tbs/2
 BYTE   VOICE   48
 BYTE   VOL   60*LoZWWGreatSea_mvl/mxv
 BYTE   W24
Label_011E01A9:
 BYTE   N12  Dn1  v100
 BYTE   W12
 BYTE   N11  An1
 BYTE   W12
 BYTE   Dn2
 BYTE   W12
 BYTE   N24  En2
 BYTE   W24
 BYTE   N23  Dn2
 BYTE   W24
//  #01 //001   ----------------------------------------
 BYTE   N11  An1
 BYTE   W12
 BYTE   PEND 
//  #01 //002   ----------------------------------------
 BYTE   PATT
  POIN2 Label_011E01A9
//  #01 //003   ----------------------------------------
 BYTE   PATT
  POIN2 Label_011E01A9
//  #01 //004   ----------------------------------------
 BYTE   PATT
  POIN2 Label_011E01A9
//  #01 //005   ----------------------------------------
 BYTE   PATT
  POIN2 Label_011E01A9
//  #01 //006   ----------------------------------------
 BYTE   PATT
  POIN2 Label_011E01A9
//  #01 //007   ----------------------------------------
 BYTE   PATT
  POIN2 Label_011E01A9
//  #01 //008   ----------------------------------------
 BYTE   PATT
  POIN2 Label_011E01A9
//  #01 //009   ----------------------------------------
Label_011E01DF:
 BYTE   N12  Dn1  v100
 BYTE   W36
 BYTE   N12
 BYTE   W24
 BYTE   N10
 BYTE   W12
 BYTE   N10
 BYTE   W12
 BYTE   An1
 BYTE   W12
 BYTE   PEND 
//  #01 //010   ----------------------------------------
 BYTE   PATT
  POIN2 Label_011E01DF
//  #01 //011   ----------------------------------------
Label_011E01F1:
 BYTE   N12  Fs1  v100
 BYTE   W36
 BYTE   N12
 BYTE   W24
 BYTE   N10
 BYTE   W12
 BYTE   N10
 BYTE   W12
 BYTE   Dn1
 BYTE   W12
 BYTE   PEND 
//  #01 //012   ----------------------------------------
Label_011E01FE:
 BYTE   N12  Fs1  v100
 BYTE   W36
 BYTE   N12
 BYTE   W24
 BYTE   N10
 BYTE   W12
 BYTE   N10
 BYTE   W12
 BYTE   N10
 BYTE   W12
 BYTE   PEND 
//  #01 //013   ----------------------------------------
Label_011E020B:
 BYTE   N12  Gn1  v100
 BYTE   W36
 BYTE   N12
 BYTE   W24
 BYTE   N10
 BYTE   W12
 BYTE   N10
 BYTE   W12
 BYTE   Dn1
 BYTE   W12
 BYTE   PEND 
//  #01 //014   ----------------------------------------
Label_011E0218:
 BYTE   N12  Gn1  v100
 BYTE   W36
 BYTE   N12
 BYTE   W24
 BYTE   N10
 BYTE   W12
 BYTE   N10
 BYTE   W12
 BYTE   N10
 BYTE   W12
 BYTE   PEND 
//  #01 //015   ----------------------------------------
Label_011E0225:
 BYTE   N12  An1  v100
 BYTE   W36
 BYTE   N12
 BYTE   W24
 BYTE   N10
 BYTE   W12
 BYTE   N10
 BYTE   W12
 BYTE   En1
 BYTE   W12
 BYTE   PEND 
//  #01 //016   ----------------------------------------
Label_011E0232:
 BYTE   N12  An1  v100
 BYTE   W36
 BYTE   N12
 BYTE   W24
 BYTE   N10
 BYTE   W12
 BYTE   N10
 BYTE   W12
 BYTE   N10
 BYTE   W12
 BYTE   PEND 
//  #01 //017   ----------------------------------------
 BYTE   PATT
  POIN2 Label_011E020B
//  #01 //018   ----------------------------------------
 BYTE   PATT
  POIN2 Label_011E0218
//  #01 //019   ----------------------------------------
 BYTE   PATT
  POIN2 Label_011E01F1
//  #01 //020   ----------------------------------------
 BYTE   PATT
  POIN2 Label_011E01FE
//  #01 //021   ----------------------------------------
Label_011E0253:
 BYTE   N12  En1  v100
 BYTE   W36
 BYTE   N12
 BYTE   W24
 BYTE   N10
 BYTE   W12
 BYTE   N10
 BYTE   W12
 BYTE   Bn0
 BYTE   W12
 BYTE   PEND 
//  #01 //022   ----------------------------------------
Label_011E0260:
 BYTE   N12  En1  v100
 BYTE   W36
 BYTE   N12
 BYTE   W24
 BYTE   N10
 BYTE   W12
 BYTE   N10
 BYTE   W12
 BYTE   N10
 BYTE   W12
 BYTE   PEND 
//  #01 //023   ----------------------------------------
 BYTE   PATT
  POIN2 Label_011E0225
//  #01 //024   ----------------------------------------
 BYTE   PATT
  POIN2 Label_011E0232
//  #01 //025   ----------------------------------------
 BYTE   PATT
  POIN2 Label_011E01DF
//  #01 //026   ----------------------------------------
 BYTE   PATT
  POIN2 Label_011E01DF
//  #01 //027   ----------------------------------------
 BYTE   PATT
  POIN2 Label_011E01F1
//  #01 //028   ----------------------------------------
 BYTE   PATT
  POIN2 Label_011E01FE
//  #01 //029   ----------------------------------------
 BYTE   PATT
  POIN2 Label_011E020B
//  #01 //030   ----------------------------------------
 BYTE   PATT
  POIN2 Label_011E0218
//  #01 //031   ----------------------------------------
 BYTE   PATT
  POIN2 Label_011E0225
//  #01 //032   ----------------------------------------
 BYTE   PATT
  POIN2 Label_011E0232
//  #01 //033   ----------------------------------------
 BYTE   PATT
  POIN2 Label_011E020B
//  #01 //034   ----------------------------------------
 BYTE   PATT
  POIN2 Label_011E0218
//  #01 //035   ----------------------------------------
 BYTE   PATT
  POIN2 Label_011E01FE
//  #01 //036   ----------------------------------------
Label_011E02AE:
 BYTE   N12  Bn1  v100
 BYTE   W36
 BYTE   N12
 BYTE   W24
 BYTE   N10
 BYTE   W12
 BYTE   N10
 BYTE   W12
 BYTE   N10
 BYTE   W12
 BYTE   PEND 
//  #01 //037   ----------------------------------------
Label_011E02BB:
 BYTE   N12  As1  v100
 BYTE   W36
 BYTE   N12
 BYTE   W24
 BYTE   N10
 BYTE   W12
 BYTE   N10
 BYTE   W12
 BYTE   Fn1
 BYTE   W12
 BYTE   PEND 
//  #01 //038   ----------------------------------------
Label_011E02C8:
 BYTE   N12  As1  v100
 BYTE   W36
 BYTE   N12
 BYTE   W24
 BYTE   N10
 BYTE   W12
 BYTE   N10
 BYTE   W12
 BYTE   N10
 BYTE   W12
 BYTE   PEND 
//  #01 //039   ----------------------------------------
Label_011E02D5:
 BYTE   N12  Cn2  v100
 BYTE   W36
 BYTE   N12
 BYTE   W24
 BYTE   N10
 BYTE   W12
 BYTE   N10
 BYTE   W12
 BYTE   Gn1
 BYTE   W12
 BYTE   PEND 
//  #01 //040   ----------------------------------------
Label_011E02E2:
 BYTE   N12  Cn2  v100
 BYTE   W36
 BYTE   N12
 BYTE   W24
 BYTE   N10
 BYTE   W12
 BYTE   N10
 BYTE   W12
 BYTE   N10
 BYTE   W12
 BYTE   PEND 
//  #01 //041   ----------------------------------------
 BYTE   PATT
  POIN2 Label_011E01A9
//  #01 //042   ----------------------------------------
 BYTE   PATT
  POIN2 Label_011E01A9
//  #01 //043   ----------------------------------------
 BYTE   PATT
  POIN2 Label_011E01A9
//  #01 //044   ----------------------------------------
 BYTE   PATT
  POIN2 Label_011E01A9
//  #01 //045   ----------------------------------------
 BYTE   PATT
  POIN2 Label_011E01A9
//  #01 //046   ----------------------------------------
 BYTE   PATT
  POIN2 Label_011E01A9
//  #01 //047   ----------------------------------------
 BYTE   PATT
  POIN2 Label_011E01A9
//  #01 //048   ----------------------------------------
 BYTE   PATT
  POIN2 Label_011E01A9
//  #01 //049   ----------------------------------------
 BYTE   PATT
  POIN2 Label_011E01DF
//  #01 //050   ----------------------------------------
 BYTE   PATT
  POIN2 Label_011E01DF
//  #01 //051   ----------------------------------------
Label_011E0321:
 BYTE   N12  Cs1  v100
 BYTE   W36
 BYTE   N12
 BYTE   W24
 BYTE   N10
 BYTE   W12
 BYTE   N10
 BYTE   W12
 BYTE   An0
 BYTE   W12
 BYTE   PEND 
//  #01 //052   ----------------------------------------
Label_011E032E:
 BYTE   N12  Cs1  v100
 BYTE   W36
 BYTE   N12
 BYTE   W24
 BYTE   N10
 BYTE   W12
 BYTE   N10
 BYTE   W12
 BYTE   N10
 BYTE   W12
 BYTE   PEND 
//  #01 //053   ----------------------------------------
Label_011E033B:
 BYTE   N12  Cn1  v100
 BYTE   W36
 BYTE   N12
 BYTE   W24
 BYTE   N10
 BYTE   W12
 BYTE   N10
 BYTE   W12
 BYTE   Gn0
 BYTE   W12
 BYTE   PEND 
//  #01 //054   ----------------------------------------
Label_011E0348:
 BYTE   N12  Cn1  v100
 BYTE   W36
 BYTE   N12
 BYTE   W24
 BYTE   N10
 BYTE   W12
 BYTE   N10
 BYTE   W12
 BYTE   N10
 BYTE   W12
 BYTE   PEND 
//  #01 //055   ----------------------------------------
Label_011E0355:
 BYTE   N12  Bn0  v100
 BYTE   W36
 BYTE   N12
 BYTE   W24
 BYTE   N10
 BYTE   W12
 BYTE   N10
 BYTE   W12
 BYTE   Gn0
 BYTE   W12
 BYTE   PEND 
//  #01 //056   ----------------------------------------
Label_011E0362:
 BYTE   N12  Bn0  v100
 BYTE   W36
 BYTE   N12
 BYTE   W24
 BYTE   N10
 BYTE   W12
 BYTE   N10
 BYTE   W12
 BYTE   N10
 BYTE   W12
 BYTE   PEND 
//  #01 //057   ----------------------------------------
 BYTE   PATT
  POIN2 Label_011E020B
//  #01 //058   ----------------------------------------
 BYTE   PATT
  POIN2 Label_011E0218
//  #01 //059   ----------------------------------------
 BYTE   PATT
  POIN2 Label_011E01FE
//  #01 //060   ----------------------------------------
 BYTE   PATT
  POIN2 Label_011E02AE
//  #01 //061   ----------------------------------------
 BYTE   PATT
  POIN2 Label_011E0253
//  #01 //062   ----------------------------------------
 BYTE   PATT
  POIN2 Label_011E0260
//  #01 //063   ----------------------------------------
 BYTE   PATT
  POIN2 Label_011E0225
//  #01 //064   ----------------------------------------
 BYTE   PATT
  POIN2 Label_011E0232
//  #01 //065   ----------------------------------------
 BYTE   PATT
  POIN2 Label_011E01DF
//  #01 //066   ----------------------------------------
 BYTE   PATT
  POIN2 Label_011E01DF
//  #01 //067   ----------------------------------------
 BYTE   PATT
  POIN2 Label_011E0321
//  #01 //068   ----------------------------------------
 BYTE   PATT
  POIN2 Label_011E032E
//  #01 //069   ----------------------------------------
 BYTE   PATT
  POIN2 Label_011E033B
//  #01 //070   ----------------------------------------
 BYTE   PATT
  POIN2 Label_011E0348
//  #01 //071   ----------------------------------------
 BYTE   PATT
  POIN2 Label_011E0355
//  #01 //072   ----------------------------------------
 BYTE   PATT
  POIN2 Label_011E0362
//  #01 //073   ----------------------------------------
 BYTE   PATT
  POIN2 Label_011E020B
//  #01 //074   ----------------------------------------
 BYTE   PATT
  POIN2 Label_011E0218
//  #01 //075   ----------------------------------------
 BYTE   PATT
  POIN2 Label_011E01FE
//  #01 //076   ----------------------------------------
 BYTE   PATT
  POIN2 Label_011E02AE
//  #01 //077   ----------------------------------------
 BYTE   PATT
  POIN2 Label_011E02BB
//  #01 //078   ----------------------------------------
 BYTE   PATT
  POIN2 Label_011E02C8
//  #01 //079   ----------------------------------------
 BYTE   PATT
  POIN2 Label_011E02D5
//  #01 //080   ----------------------------------------
 BYTE   PATT
  POIN2 Label_011E02E2
//  #01 //081   ----------------------------------------
 BYTE   PATT
  POIN2 Label_011E01A9
//  #01 //082   ----------------------------------------
 BYTE   PATT
  POIN2 Label_011E01A9
//  #01 //083   ----------------------------------------
 BYTE   PATT
  POIN2 Label_011E01A9
//  #01 //084   ----------------------------------------
 BYTE   PATT
  POIN2 Label_011E01A9
//  #01 //085   ----------------------------------------
 BYTE   PATT
  POIN2 Label_011E01A9
//  #01 //086   ----------------------------------------
 BYTE   PATT
  POIN2 Label_011E01A9
//  #01 //087   ----------------------------------------
 BYTE   PATT
  POIN2 Label_011E01A9
//  #01 //088   ----------------------------------------
 BYTE   PATT
  POIN2 Label_011E01A9
//  #01 //089   ----------------------------------------
 BYTE   PATT
  POIN2 Label_011E01DF
//  #01 //090   ----------------------------------------
 BYTE   PATT
  POIN2 Label_011E01DF
//  #01 //091   ----------------------------------------
 BYTE   PATT
  POIN2 Label_011E01F1
//  #01 //092   ----------------------------------------
 BYTE   PATT
  POIN2 Label_011E01FE
//  #01 //093   ----------------------------------------
 BYTE   PATT
  POIN2 Label_011E020B
//  #01 //094   ----------------------------------------
 BYTE   PATT
  POIN2 Label_011E0218
//  #01 //095   ----------------------------------------
 BYTE   PATT
  POIN2 Label_011E0225
//  #01 //096   ----------------------------------------
 BYTE   PATT
  POIN2 Label_011E0232
//  #01 //097   ----------------------------------------
 BYTE   PATT
  POIN2 Label_011E020B
//  #01 //098   ----------------------------------------
 BYTE   PATT
  POIN2 Label_011E0218
//  #01 //099   ----------------------------------------
 BYTE   PATT
  POIN2 Label_011E01F1
//  #01 //100   ----------------------------------------
 BYTE   PATT
  POIN2 Label_011E01FE
//  #01 //101   ----------------------------------------
 BYTE   PATT
  POIN2 Label_011E0253
//  #01 //102   ----------------------------------------
 BYTE   PATT
  POIN2 Label_011E0260
//  #01 //103   ----------------------------------------
 BYTE   PATT
  POIN2 Label_011E0225
//  #01 //104   ----------------------------------------
 BYTE   PATT
  POIN2 Label_011E0232
//  #01 //105   ----------------------------------------
 BYTE   PATT
  POIN2 Label_011E01DF
//  #01 //106   ----------------------------------------
 BYTE   PATT
  POIN2 Label_011E01DF
//  #01 //107   ----------------------------------------
 BYTE   PATT
  POIN2 Label_011E01F1
//  #01 //108   ----------------------------------------
 BYTE   PATT
  POIN2 Label_011E01FE
//  #01 //109   ----------------------------------------
 BYTE   PATT
  POIN2 Label_011E020B
//  #01 //110   ----------------------------------------
 BYTE   PATT
  POIN2 Label_011E0218
//  #01 //111   ----------------------------------------
 BYTE   PATT
  POIN2 Label_011E0225
//  #01 //112   ----------------------------------------
 BYTE   PATT
  POIN2 Label_011E0232
//  #01 //113   ----------------------------------------
 BYTE   PATT
  POIN2 Label_011E020B
//  #01 //114   ----------------------------------------
 BYTE   PATT
  POIN2 Label_011E0218
//  #01 //115   ----------------------------------------
 BYTE   PATT
  POIN2 Label_011E01FE
//  #01 //116   ----------------------------------------
 BYTE   PATT
  POIN2 Label_011E02AE
//  #01 //117   ----------------------------------------
 BYTE   PATT
  POIN2 Label_011E02BB
//  #01 //118   ----------------------------------------
 BYTE   PATT
  POIN2 Label_011E02C8
//  #01 //119   ----------------------------------------
 BYTE   PATT
  POIN2 Label_011E02D5
//  #01 //120   ----------------------------------------
 BYTE   PATT
  POIN2 Label_011E02E2
//  #01 //121   ----------------------------------------
 BYTE   PATT
  POIN2 Label_011E01A9
//  #01 //122   ----------------------------------------
 BYTE   PATT
  POIN2 Label_011E01A9
//  #01 //123   ----------------------------------------
 BYTE   PATT
  POIN2 Label_011E01A9
//  #01 //124   ----------------------------------------
 BYTE   PATT
  POIN2 Label_011E01A9
//  #01 //125   ----------------------------------------
 BYTE   PATT
  POIN2 Label_011E01A9
//  #01 //126   ----------------------------------------
 BYTE   PATT
  POIN2 Label_011E01A9
//  #01 //127   ----------------------------------------
 BYTE   PATT
  POIN2 Label_011E01A9
//  #01 //128   ----------------------------------------
 BYTE   PATT
  POIN2 Label_011E01A9
//  #01 //129   ----------------------------------------
 BYTE   PATT
  POIN2 Label_011E01DF
//  #01 //130   ----------------------------------------
 BYTE   PATT
  POIN2 Label_011E01DF
//  #01 //131   ----------------------------------------
 BYTE   PATT
  POIN2 Label_011E0321
//  #01 //132   ----------------------------------------
 BYTE   PATT
  POIN2 Label_011E032E
//  #01 //133   ----------------------------------------
 BYTE   PATT
  POIN2 Label_011E033B
//  #01 //134   ----------------------------------------
 BYTE   PATT
  POIN2 Label_011E0348
//  #01 //135   ----------------------------------------
 BYTE   PATT
  POIN2 Label_011E0355
//  #01 //136   ----------------------------------------
 BYTE   PATT
  POIN2 Label_011E0362
//  #01 //137   ----------------------------------------
 BYTE   PATT
  POIN2 Label_011E020B
//  #01 //138   ----------------------------------------
 BYTE   PATT
  POIN2 Label_011E0218
//  #01 //139   ----------------------------------------
 BYTE   PATT
  POIN2 Label_011E01FE
//  #01 //140   ----------------------------------------
 BYTE   PATT
  POIN2 Label_011E02AE
//  #01 //141   ----------------------------------------
 BYTE   PATT
  POIN2 Label_011E0253
//  #01 //142   ----------------------------------------
 BYTE   PATT
  POIN2 Label_011E0260
//  #01 //143   ----------------------------------------
 BYTE   PATT
  POIN2 Label_011E0225
//  #01 //144   ----------------------------------------
 BYTE   PATT
  POIN2 Label_011E0232
//  #01 //145   ----------------------------------------
 BYTE   PATT
  POIN2 Label_011E01DF
//  #01 //146   ----------------------------------------
 BYTE   PATT
  POIN2 Label_011E01DF
//  #01 //147   ----------------------------------------
 BYTE   PATT
  POIN2 Label_011E0321
//  #01 //148   ----------------------------------------
 BYTE   PATT
  POIN2 Label_011E032E
//  #01 //149   ----------------------------------------
 BYTE   PATT
  POIN2 Label_011E033B
//  #01 //150   ----------------------------------------
 BYTE   PATT
  POIN2 Label_011E0348
//  #01 //151   ----------------------------------------
 BYTE   PATT
  POIN2 Label_011E0355
//  #01 //152   ----------------------------------------
 BYTE   PATT
  POIN2 Label_011E0362
//  #01 //153   ----------------------------------------
 BYTE   PATT
  POIN2 Label_011E020B
//  #01 //154   ----------------------------------------
 BYTE   PATT
  POIN2 Label_011E0218
//  #01 //155   ----------------------------------------
 BYTE   PATT
  POIN2 Label_011E01FE
//  #01 //156   ----------------------------------------
 BYTE   PATT
  POIN2 Label_011E02AE
//  #01 //157   ----------------------------------------
 BYTE   PATT
  POIN2 Label_011E02BB
//  #01 //158   ----------------------------------------
 BYTE   PATT
  POIN2 Label_011E02C8
//  #01 //159   ----------------------------------------
 BYTE   PATT
  POIN2 Label_011E02D5
//  #01 //160   ----------------------------------------
 BYTE   PATT
  POIN2 Label_011E02E2
//  #01 //161   ----------------------------------------
 BYTE   PATT
  POIN2 Label_011E01A9
//  #01 //162   ----------------------------------------
 BYTE   PATT
  POIN2 Label_011E01A9
//  #01 //163   ----------------------------------------
 BYTE   PATT
  POIN2 Label_011E01A9
//  #01 //164   ----------------------------------------
 BYTE   PATT
  POIN2 Label_011E01A9
//  #01 //165   ----------------------------------------
 BYTE   PATT
  POIN2 Label_011E01A9
//  #01 //166   ----------------------------------------
 BYTE   PATT
  POIN2 Label_011E01A9
//  #01 //167   ----------------------------------------
 BYTE   PATT
  POIN2 Label_011E01A9
//  #01 //168   ----------------------------------------
 BYTE   PATT
  POIN2 Label_011E01A9
//  #01 //169   ----------------------------------------
 BYTE   GoTo
  POIN2 Label_011E01A2
 BYTE   FINE

//**************** Track 2 (Midi-Chn.1) ****************//

LoZWWGreatSea_002:
//  #02 //000   ----------------------------------------
 BYTE   KEYSH   LoZWWGreatSea_key+0
Label_011DE80E:
 BYTE   VOICE   58
 BYTE   VOL   60*LoZWWGreatSea_mvl/mxv
 BYTE   W24
Label_011DE813:
 BYTE   N12  Dn1  v100
 BYTE   W12
 BYTE   N11  An1
 BYTE   W12
 BYTE   Dn2
 BYTE   W12
 BYTE   N24  En2
 BYTE   W24
 BYTE   N23  Dn2
 BYTE   W24
//  #02 //001   ----------------------------------------
 BYTE   N11  An1
 BYTE   W12
 BYTE   PEND 
//  #02 //002   ----------------------------------------
 BYTE   PATT
  POIN2 Label_011DE813
//  #02 //003   ----------------------------------------
 BYTE   PATT
  POIN2 Label_011DE813
//  #02 //004   ----------------------------------------
 BYTE   PATT
  POIN2 Label_011DE813
//  #02 //005   ----------------------------------------
 BYTE   PATT
  POIN2 Label_011DE813
//  #02 //006   ----------------------------------------
 BYTE   PATT
  POIN2 Label_011DE813
//  #02 //007   ----------------------------------------
 BYTE   PATT
  POIN2 Label_011DE813
//  #02 //008   ----------------------------------------
 BYTE   PATT
  POIN2 Label_011DE813
//  #02 //009   ----------------------------------------
Label_011DE849:
 BYTE   N12  Dn1  v100
 BYTE   W36
 BYTE   N12
 BYTE   W24
 BYTE   N10
 BYTE   W12
 BYTE   N10
 BYTE   W12
 BYTE   An1
 BYTE   W12
 BYTE   PEND 
//  #02 //010   ----------------------------------------
 BYTE   PATT
  POIN2 Label_011DE849
//  #02 //011   ----------------------------------------
Label_011DE85B:
 BYTE   N12  Fs1  v100
 BYTE   W36
 BYTE   N12
 BYTE   W24
 BYTE   N10
 BYTE   W12
 BYTE   N10
 BYTE   W12
 BYTE   Dn1
 BYTE   W12
 BYTE   PEND 
//  #02 //012   ----------------------------------------
Label_011DE868:
 BYTE   N12  Fs1  v100
 BYTE   W36
 BYTE   N12
 BYTE   W24
 BYTE   N10
 BYTE   W12
 BYTE   N10
 BYTE   W12
 BYTE   N10
 BYTE   W12
 BYTE   PEND 
//  #02 //013   ----------------------------------------
Label_011DE875:
 BYTE   N12  Gn1  v100
 BYTE   W36
 BYTE   N12
 BYTE   W24
 BYTE   N10
 BYTE   W12
 BYTE   N10
 BYTE   W12
 BYTE   Dn1
 BYTE   W12
 BYTE   PEND 
//  #02 //014   ----------------------------------------
Label_011DE882:
 BYTE   N12  Gn1  v100
 BYTE   W36
 BYTE   N12
 BYTE   W24
 BYTE   N10
 BYTE   W12
 BYTE   N10
 BYTE   W12
 BYTE   N10
 BYTE   W12
 BYTE   PEND 
//  #02 //015   ----------------------------------------
Label_011DE88F:
 BYTE   N12  An1  v100
 BYTE   W36
 BYTE   N12
 BYTE   W24
 BYTE   N10
 BYTE   W12
 BYTE   N10
 BYTE   W12
 BYTE   En1
 BYTE   W12
 BYTE   PEND 
//  #02 //016   ----------------------------------------
Label_011DE89C:
 BYTE   N12  An1  v100
 BYTE   W36
 BYTE   N12
 BYTE   W24
 BYTE   N10
 BYTE   W12
 BYTE   N10
 BYTE   W12
 BYTE   N10
 BYTE   W12
 BYTE   PEND 
//  #02 //017   ----------------------------------------
 BYTE   PATT
  POIN2 Label_011DE875
//  #02 //018   ----------------------------------------
 BYTE   PATT
  POIN2 Label_011DE882
//  #02 //019   ----------------------------------------
 BYTE   PATT
  POIN2 Label_011DE85B
//  #02 //020   ----------------------------------------
 BYTE   PATT
  POIN2 Label_011DE868
//  #02 //021   ----------------------------------------
Label_011DE8BD:
 BYTE   N12  En1  v100
 BYTE   W36
 BYTE   N12
 BYTE   W24
 BYTE   N10
 BYTE   W12
 BYTE   N10
 BYTE   W12
 BYTE   Bn0
 BYTE   W12
 BYTE   PEND 
//  #02 //022   ----------------------------------------
Label_011DE8CA:
 BYTE   N12  En1  v100
 BYTE   W36
 BYTE   N12
 BYTE   W24
 BYTE   N10
 BYTE   W12
 BYTE   N10
 BYTE   W12
 BYTE   N10
 BYTE   W12
 BYTE   PEND 
//  #02 //023   ----------------------------------------
 BYTE   PATT
  POIN2 Label_011DE88F
//  #02 //024   ----------------------------------------
 BYTE   PATT
  POIN2 Label_011DE89C
//  #02 //025   ----------------------------------------
 BYTE   PATT
  POIN2 Label_011DE849
//  #02 //026   ----------------------------------------
 BYTE   PATT
  POIN2 Label_011DE849
//  #02 //027   ----------------------------------------
 BYTE   PATT
  POIN2 Label_011DE85B
//  #02 //028   ----------------------------------------
 BYTE   PATT
  POIN2 Label_011DE868
//  #02 //029   ----------------------------------------
 BYTE   PATT
  POIN2 Label_011DE875
//  #02 //030   ----------------------------------------
 BYTE   PATT
  POIN2 Label_011DE882
//  #02 //031   ----------------------------------------
 BYTE   PATT
  POIN2 Label_011DE88F
//  #02 //032   ----------------------------------------
 BYTE   PATT
  POIN2 Label_011DE89C
//  #02 //033   ----------------------------------------
 BYTE   PATT
  POIN2 Label_011DE875
//  #02 //034   ----------------------------------------
 BYTE   PATT
  POIN2 Label_011DE882
//  #02 //035   ----------------------------------------
 BYTE   PATT
  POIN2 Label_011DE868
//  #02 //036   ----------------------------------------
Label_011DE918:
 BYTE   N12  Bn1  v100
 BYTE   W36
 BYTE   N12
 BYTE   W24
 BYTE   N10
 BYTE   W12
 BYTE   N10
 BYTE   W12
 BYTE   N10
 BYTE   W12
 BYTE   PEND 
//  #02 //037   ----------------------------------------
Label_011DE925:
 BYTE   N12  As1  v100
 BYTE   W36
 BYTE   N12
 BYTE   W24
 BYTE   N10
 BYTE   W12
 BYTE   N10
 BYTE   W12
 BYTE   Fn1
 BYTE   W12
 BYTE   PEND 
//  #02 //038   ----------------------------------------
Label_011DE932:
 BYTE   N12  As1  v100
 BYTE   W36
 BYTE   N12
 BYTE   W24
 BYTE   N10
 BYTE   W12
 BYTE   N10
 BYTE   W12
 BYTE   N10
 BYTE   W12
 BYTE   PEND 
//  #02 //039   ----------------------------------------
Label_011DE93F:
 BYTE   N12  Cn2  v100
 BYTE   W36
 BYTE   N12
 BYTE   W24
 BYTE   N10
 BYTE   W12
 BYTE   N10
 BYTE   W12
 BYTE   Gn1
 BYTE   W12
 BYTE   PEND 
//  #02 //040   ----------------------------------------
Label_011DE94C:
 BYTE   N12  Cn2  v100
 BYTE   W36
 BYTE   N12
 BYTE   W24
 BYTE   N10
 BYTE   W12
 BYTE   N10
 BYTE   W12
 BYTE   N10
 BYTE   W12
 BYTE   PEND 
//  #02 //041   ----------------------------------------
 BYTE   PATT
  POIN2 Label_011DE813
//  #02 //042   ----------------------------------------
 BYTE   PATT
  POIN2 Label_011DE813
//  #02 //043   ----------------------------------------
 BYTE   PATT
  POIN2 Label_011DE813
//  #02 //044   ----------------------------------------
 BYTE   PATT
  POIN2 Label_011DE813
//  #02 //045   ----------------------------------------
 BYTE   PATT
  POIN2 Label_011DE813
//  #02 //046   ----------------------------------------
 BYTE   PATT
  POIN2 Label_011DE813
//  #02 //047   ----------------------------------------
 BYTE   PATT
  POIN2 Label_011DE813
//  #02 //048   ----------------------------------------
 BYTE   PATT
  POIN2 Label_011DE813
//  #02 //049   ----------------------------------------
 BYTE   PATT
  POIN2 Label_011DE849
//  #02 //050   ----------------------------------------
 BYTE   PATT
  POIN2 Label_011DE849
//  #02 //051   ----------------------------------------
Label_011DE98B:
 BYTE   N12  Cs1  v100
 BYTE   W36
 BYTE   N12
 BYTE   W24
 BYTE   N10
 BYTE   W12
 BYTE   N10
 BYTE   W12
 BYTE   An0
 BYTE   W12
 BYTE   PEND 
//  #02 //052   ----------------------------------------
Label_011DE998:
 BYTE   N12  Cs1  v100
 BYTE   W36
 BYTE   N12
 BYTE   W24
 BYTE   N10
 BYTE   W12
 BYTE   N10
 BYTE   W12
 BYTE   N10
 BYTE   W12
 BYTE   PEND 
//  #02 //053   ----------------------------------------
Label_011DE9A5:
 BYTE   N12  Cn1  v100
 BYTE   W36
 BYTE   N12
 BYTE   W24
 BYTE   N10
 BYTE   W12
 BYTE   N10
 BYTE   W12
 BYTE   Gn0
 BYTE   W12
 BYTE   PEND 
//  #02 //054   ----------------------------------------
Label_011DE9B2:
 BYTE   N12  Cn1  v100
 BYTE   W36
 BYTE   N12
 BYTE   W24
 BYTE   N10
 BYTE   W12
 BYTE   N10
 BYTE   W12
 BYTE   N10
 BYTE   W12
 BYTE   PEND 
//  #02 //055   ----------------------------------------
Label_011DE9BF:
 BYTE   N12  Bn0  v100
 BYTE   W36
 BYTE   N12
 BYTE   W24
 BYTE   N10
 BYTE   W12
 BYTE   N10
 BYTE   W12
 BYTE   Gn0
 BYTE   W12
 BYTE   PEND 
//  #02 //056   ----------------------------------------
Label_011DE9CC:
 BYTE   N12  Bn0  v100
 BYTE   W36
 BYTE   N12
 BYTE   W24
 BYTE   N10
 BYTE   W12
 BYTE   N10
 BYTE   W12
 BYTE   N10
 BYTE   W12
 BYTE   PEND 
//  #02 //057   ----------------------------------------
 BYTE   PATT
  POIN2 Label_011DE875
//  #02 //058   ----------------------------------------
 BYTE   PATT
  POIN2 Label_011DE882
//  #02 //059   ----------------------------------------
 BYTE   PATT
  POIN2 Label_011DE868
//  #02 //060   ----------------------------------------
 BYTE   PATT
  POIN2 Label_011DE918
//  #02 //061   ----------------------------------------
 BYTE   PATT
  POIN2 Label_011DE8BD
//  #02 //062   ----------------------------------------
 BYTE   PATT
  POIN2 Label_011DE8CA
//  #02 //063   ----------------------------------------
 BYTE   PATT
  POIN2 Label_011DE88F
//  #02 //064   ----------------------------------------
 BYTE   PATT
  POIN2 Label_011DE89C
//  #02 //065   ----------------------------------------
 BYTE   PATT
  POIN2 Label_011DE849
//  #02 //066   ----------------------------------------
 BYTE   PATT
  POIN2 Label_011DE849
//  #02 //067   ----------------------------------------
 BYTE   PATT
  POIN2 Label_011DE98B
//  #02 //068   ----------------------------------------
 BYTE   PATT
  POIN2 Label_011DE998
//  #02 //069   ----------------------------------------
 BYTE   PATT
  POIN2 Label_011DE9A5
//  #02 //070   ----------------------------------------
 BYTE   PATT
  POIN2 Label_011DE9B2
//  #02 //071   ----------------------------------------
 BYTE   PATT
  POIN2 Label_011DE9BF
//  #02 //072   ----------------------------------------
 BYTE   PATT
  POIN2 Label_011DE9CC
//  #02 //073   ----------------------------------------
 BYTE   PATT
  POIN2 Label_011DE875
//  #02 //074   ----------------------------------------
 BYTE   PATT
  POIN2 Label_011DE882
//  #02 //075   ----------------------------------------
 BYTE   PATT
  POIN2 Label_011DE868
//  #02 //076   ----------------------------------------
 BYTE   PATT
  POIN2 Label_011DE918
//  #02 //077   ----------------------------------------
 BYTE   PATT
  POIN2 Label_011DE925
//  #02 //078   ----------------------------------------
 BYTE   PATT
  POIN2 Label_011DE932
//  #02 //079   ----------------------------------------
 BYTE   PATT
  POIN2 Label_011DE93F
//  #02 //080   ----------------------------------------
 BYTE   PATT
  POIN2 Label_011DE94C
//  #02 //081   ----------------------------------------
 BYTE   PATT
  POIN2 Label_011DE813
//  #02 //082   ----------------------------------------
 BYTE   PATT
  POIN2 Label_011DE813
//  #02 //083   ----------------------------------------
 BYTE   PATT
  POIN2 Label_011DE813
//  #02 //084   ----------------------------------------
 BYTE   PATT
  POIN2 Label_011DE813
//  #02 //085   ----------------------------------------
 BYTE   PATT
  POIN2 Label_011DE813
//  #02 //086   ----------------------------------------
 BYTE   PATT
  POIN2 Label_011DE813
//  #02 //087   ----------------------------------------
 BYTE   PATT
  POIN2 Label_011DE813
//  #02 //088   ----------------------------------------
 BYTE   PATT
  POIN2 Label_011DE813
//  #02 //089   ----------------------------------------
 BYTE   PATT
  POIN2 Label_011DE849
//  #02 //090   ----------------------------------------
 BYTE   PATT
  POIN2 Label_011DE849
//  #02 //091   ----------------------------------------
 BYTE   PATT
  POIN2 Label_011DE85B
//  #02 //092   ----------------------------------------
 BYTE   PATT
  POIN2 Label_011DE868
//  #02 //093   ----------------------------------------
 BYTE   PATT
  POIN2 Label_011DE875
//  #02 //094   ----------------------------------------
 BYTE   PATT
  POIN2 Label_011DE882
//  #02 //095   ----------------------------------------
 BYTE   PATT
  POIN2 Label_011DE88F
//  #02 //096   ----------------------------------------
 BYTE   PATT
  POIN2 Label_011DE89C
//  #02 //097   ----------------------------------------
 BYTE   PATT
  POIN2 Label_011DE875
//  #02 //098   ----------------------------------------
 BYTE   PATT
  POIN2 Label_011DE882
//  #02 //099   ----------------------------------------
 BYTE   PATT
  POIN2 Label_011DE85B
//  #02 //100   ----------------------------------------
 BYTE   PATT
  POIN2 Label_011DE868
//  #02 //101   ----------------------------------------
 BYTE   PATT
  POIN2 Label_011DE8BD
//  #02 //102   ----------------------------------------
 BYTE   PATT
  POIN2 Label_011DE8CA
//  #02 //103   ----------------------------------------
 BYTE   PATT
  POIN2 Label_011DE88F
//  #02 //104   ----------------------------------------
 BYTE   PATT
  POIN2 Label_011DE89C
//  #02 //105   ----------------------------------------
 BYTE   PATT
  POIN2 Label_011DE849
//  #02 //106   ----------------------------------------
 BYTE   PATT
  POIN2 Label_011DE849
//  #02 //107   ----------------------------------------
 BYTE   PATT
  POIN2 Label_011DE85B
//  #02 //108   ----------------------------------------
 BYTE   PATT
  POIN2 Label_011DE868
//  #02 //109   ----------------------------------------
 BYTE   PATT
  POIN2 Label_011DE875
//  #02 //110   ----------------------------------------
 BYTE   PATT
  POIN2 Label_011DE882
//  #02 //111   ----------------------------------------
 BYTE   PATT
  POIN2 Label_011DE88F
//  #02 //112   ----------------------------------------
 BYTE   PATT
  POIN2 Label_011DE89C
//  #02 //113   ----------------------------------------
 BYTE   PATT
  POIN2 Label_011DE875
//  #02 //114   ----------------------------------------
 BYTE   PATT
  POIN2 Label_011DE882
//  #02 //115   ----------------------------------------
 BYTE   PATT
  POIN2 Label_011DE868
//  #02 //116   ----------------------------------------
 BYTE   PATT
  POIN2 Label_011DE918
//  #02 //117   ----------------------------------------
 BYTE   PATT
  POIN2 Label_011DE925
//  #02 //118   ----------------------------------------
 BYTE   PATT
  POIN2 Label_011DE932
//  #02 //119   ----------------------------------------
 BYTE   PATT
  POIN2 Label_011DE93F
//  #02 //120   ----------------------------------------
 BYTE   PATT
  POIN2 Label_011DE94C
//  #02 //121   ----------------------------------------
 BYTE   PATT
  POIN2 Label_011DE813
//  #02 //122   ----------------------------------------
 BYTE   PATT
  POIN2 Label_011DE813
//  #02 //123   ----------------------------------------
 BYTE   PATT
  POIN2 Label_011DE813
//  #02 //124   ----------------------------------------
 BYTE   PATT
  POIN2 Label_011DE813
//  #02 //125   ----------------------------------------
 BYTE   PATT
  POIN2 Label_011DE813
//  #02 //126   ----------------------------------------
 BYTE   PATT
  POIN2 Label_011DE813
//  #02 //127   ----------------------------------------
 BYTE   PATT
  POIN2 Label_011DE813
//  #02 //128   ----------------------------------------
 BYTE   PATT
  POIN2 Label_011DE813
//  #02 //129   ----------------------------------------
 BYTE   PATT
  POIN2 Label_011DE849
//  #02 //130   ----------------------------------------
 BYTE   PATT
  POIN2 Label_011DE849
//  #02 //131   ----------------------------------------
 BYTE   PATT
  POIN2 Label_011DE98B
//  #02 //132   ----------------------------------------
 BYTE   PATT
  POIN2 Label_011DE998
//  #02 //133   ----------------------------------------
 BYTE   PATT
  POIN2 Label_011DE9A5
//  #02 //134   ----------------------------------------
 BYTE   PATT
  POIN2 Label_011DE9B2
//  #02 //135   ----------------------------------------
 BYTE   PATT
  POIN2 Label_011DE9BF
//  #02 //136   ----------------------------------------
 BYTE   PATT
  POIN2 Label_011DE9CC
//  #02 //137   ----------------------------------------
 BYTE   PATT
  POIN2 Label_011DE875
//  #02 //138   ----------------------------------------
 BYTE   PATT
  POIN2 Label_011DE882
//  #02 //139   ----------------------------------------
 BYTE   PATT
  POIN2 Label_011DE868
//  #02 //140   ----------------------------------------
 BYTE   PATT
  POIN2 Label_011DE918
//  #02 //141   ----------------------------------------
 BYTE   PATT
  POIN2 Label_011DE8BD
//  #02 //142   ----------------------------------------
 BYTE   PATT
  POIN2 Label_011DE8CA
//  #02 //143   ----------------------------------------
 BYTE   PATT
  POIN2 Label_011DE88F
//  #02 //144   ----------------------------------------
 BYTE   PATT
  POIN2 Label_011DE89C
//  #02 //145   ----------------------------------------
 BYTE   PATT
  POIN2 Label_011DE849
//  #02 //146   ----------------------------------------
 BYTE   PATT
  POIN2 Label_011DE849
//  #02 //147   ----------------------------------------
 BYTE   PATT
  POIN2 Label_011DE98B
//  #02 //148   ----------------------------------------
 BYTE   PATT
  POIN2 Label_011DE998
//  #02 //149   ----------------------------------------
 BYTE   PATT
  POIN2 Label_011DE9A5
//  #02 //150   ----------------------------------------
 BYTE   PATT
  POIN2 Label_011DE9B2
//  #02 //151   ----------------------------------------
 BYTE   PATT
  POIN2 Label_011DE9BF
//  #02 //152   ----------------------------------------
 BYTE   PATT
  POIN2 Label_011DE9CC
//  #02 //153   ----------------------------------------
 BYTE   PATT
  POIN2 Label_011DE875
//  #02 //154   ----------------------------------------
 BYTE   PATT
  POIN2 Label_011DE882
//  #02 //155   ----------------------------------------
 BYTE   PATT
  POIN2 Label_011DE868
//  #02 //156   ----------------------------------------
 BYTE   PATT
  POIN2 Label_011DE918
//  #02 //157   ----------------------------------------
 BYTE   PATT
  POIN2 Label_011DE925
//  #02 //158   ----------------------------------------
 BYTE   PATT
  POIN2 Label_011DE932
//  #02 //159   ----------------------------------------
 BYTE   PATT
  POIN2 Label_011DE93F
//  #02 //160   ----------------------------------------
 BYTE   PATT
  POIN2 Label_011DE94C
//  #02 //161   ----------------------------------------
 BYTE   PATT
  POIN2 Label_011DE813
//  #02 //162   ----------------------------------------
 BYTE   PATT
  POIN2 Label_011DE813
//  #02 //163   ----------------------------------------
 BYTE   PATT
  POIN2 Label_011DE813
//  #02 //164   ----------------------------------------
 BYTE   PATT
  POIN2 Label_011DE813
//  #02 //165   ----------------------------------------
 BYTE   PATT
  POIN2 Label_011DE813
//  #02 //166   ----------------------------------------
 BYTE   PATT
  POIN2 Label_011DE813
//  #02 //167   ----------------------------------------
 BYTE   PATT
  POIN2 Label_011DE813
//  #02 //168   ----------------------------------------
 BYTE   PATT
  POIN2 Label_011DE813
//  #02 //169   ----------------------------------------
 BYTE   GoTo
  POIN2 Label_011DE80E
 BYTE   FINE

//**************** Track 3 (Midi-Chn.2) ****************//

LoZWWGreatSea_003:
//  #03 //000   ----------------------------------------
 BYTE   KEYSH   LoZWWGreatSea_key+0
Label_011DE4EE:
 BYTE   VOICE   57
 BYTE   VOL   60*LoZWWGreatSea_mvl/mxv
 BYTE   W24
 BYTE   W96
//  #03 //001   ----------------------------------------
 BYTE   W96
//  #03 //002   ----------------------------------------
 BYTE   W96
//  #03 //003   ----------------------------------------
 BYTE   W96
//  #03 //004   ----------------------------------------
 BYTE   W96
//  #03 //005   ----------------------------------------
 BYTE   W96
//  #03 //006   ----------------------------------------
 BYTE   W96
//  #03 //007   ----------------------------------------
 BYTE   W96
//  #03 //008   ----------------------------------------
Label_011DE4FB:
 BYTE   N04  Fs3  v116
 BYTE   W18
 BYTE   N02  Dn3
 BYTE   W06
 BYTE   TIE  An2
 BYTE   W72
 BYTE   PEND 
//  #03 //009   ----------------------------------------
 BYTE   W66
 BYTE   EOT
 BYTE   W06
 BYTE   N02  Dn3
 BYTE   W06
 BYTE   An2
 BYTE   W06
 BYTE   Dn3
 BYTE   W06
 BYTE   Fs3
 BYTE   W06
//  #03 //010   ----------------------------------------
 BYTE   TIE  An3
 BYTE   W96
//  #03 //011   ----------------------------------------
 BYTE   W66
 BYTE   EOT
 BYTE   W06
 BYTE   N08
 BYTE   W12
 BYTE   N02  Gn3
 BYTE   W06
 BYTE   Fs3
 BYTE   W06
//  #03 //012   ----------------------------------------
 BYTE   TIE  Gn3
 BYTE   W96
//  #03 //013   ----------------------------------------
 BYTE   W92
 BYTE   W02
 BYTE   EOT
 BYTE   W02
//  #03 //014   ----------------------------------------
 BYTE   TIE  En3
 BYTE   W96
//  #03 //015   ----------------------------------------
 BYTE   W90
 BYTE   EOT
 BYTE   W06
//  #03 //016   ----------------------------------------
Label_011DE52C:
 BYTE   N06  Bn2  v116
 BYTE   W12
 BYTE   N03
 BYTE   W06
 BYTE   Cs3
 BYTE   W06
 BYTE   TIE  Dn3
 BYTE   W72
 BYTE   PEND 
//  #03 //017   ----------------------------------------
 BYTE   W68
 BYTE   EOT
 BYTE   W04
 BYTE   N23  En3
 BYTE   W24
//  #03 //018   ----------------------------------------
 BYTE   N92  Dn3
 BYTE   W96
//  #03 //019   ----------------------------------------
 BYTE   An2
 BYTE   W96
//  #03 //020   ----------------------------------------
 BYTE   PATT
  POIN2 Label_011DE52C
//  #03 //021   ----------------------------------------
 BYTE   W68
 BYTE   EOT
 BYTE   Dn3
 BYTE   W04
 BYTE   N23  En3  v116
 BYTE   W24
//  #03 //022   ----------------------------------------
 BYTE   N92  Dn3
 BYTE   W96
//  #03 //023   ----------------------------------------
 BYTE   En3
 BYTE   W96
//  #03 //024   ----------------------------------------
 BYTE   PATT
  POIN2 Label_011DE4FB
//  #03 //025   ----------------------------------------
 BYTE   W66
 BYTE   EOT
 BYTE   An2
 BYTE   W06
 BYTE   N02  Dn3  v116
 BYTE   W06
 BYTE   An2
 BYTE   W06
 BYTE   Dn3
 BYTE   W06
 BYTE   Fs3
 BYTE   W06
//  #03 //026   ----------------------------------------
 BYTE   TIE  An3
 BYTE   W96
//  #03 //027   ----------------------------------------
 BYTE   W66
 BYTE   EOT
 BYTE   W06
 BYTE   N08
 BYTE   W12
 BYTE   N02  Gn3
 BYTE   W06
 BYTE   Fs3
 BYTE   W06
//  #03 //028   ----------------------------------------
 BYTE   TIE  Gn3
 BYTE   W96
//  #03 //029   ----------------------------------------
 BYTE   W92
 BYTE   W02
 BYTE   EOT
 BYTE   W02
//  #03 //030   ----------------------------------------
 BYTE   TIE  En3
 BYTE   W96
//  #03 //031   ----------------------------------------
 BYTE   W90
 BYTE   EOT
 BYTE   W06
//  #03 //032   ----------------------------------------
 BYTE   PATT
  POIN2 Label_011DE52C
//  #03 //033   ----------------------------------------
 BYTE   W68
 BYTE   EOT
 BYTE   Dn3
 BYTE   W04
 BYTE   N23  En3  v116
 BYTE   W24
//  #03 //034   ----------------------------------------
Label_011DE58F:
 BYTE   N48  Dn3  v116
 BYTE   W48
 BYTE   TIE  Fs3
 BYTE   W48
 BYTE   PEND 
//  #03 //035   ----------------------------------------
 BYTE   W96
//  #03 //036   ----------------------------------------
 BYTE   EOT
Label_011DE599:
 BYTE   N06  Dn3  v116
 BYTE   W12
 BYTE   N03
 BYTE   W06
 BYTE   En3
 BYTE   W06
 BYTE   TIE  Fn3
 BYTE   W72
 BYTE   PEND 
//  #03 //037   ----------------------------------------
 BYTE   W68
 BYTE   EOT
 BYTE   W28
//  #03 //038   ----------------------------------------
Label_011DE5A8:
 BYTE   N06  Dn3  v116
 BYTE   W12
 BYTE   N03
 BYTE   W06
 BYTE   En3
 BYTE   W06
 BYTE   N72  Fn3
 BYTE   W72
 BYTE   PEND 
//  #03 //039   ----------------------------------------
 BYTE   N92  Gn3
 BYTE   W96
//  #03 //040   ----------------------------------------
 BYTE   W96
//  #03 //041   ----------------------------------------
 BYTE   W96
//  #03 //042   ----------------------------------------
 BYTE   W96
//  #03 //043   ----------------------------------------
 BYTE   W96
//  #03 //044   ----------------------------------------
 BYTE   W96
//  #03 //045   ----------------------------------------
 BYTE   W96
//  #03 //046   ----------------------------------------
 BYTE   W96
//  #03 //047   ----------------------------------------
 BYTE   W96
//  #03 //048   ----------------------------------------
 BYTE   W96
//  #03 //049   ----------------------------------------
Label_011DE5C0:
 BYTE   N04  Fs3  v084
 BYTE   W18
 BYTE   N03  Dn3
 BYTE   W06
 BYTE   TIE  An2
 BYTE   W72
 BYTE   PEND 
//  #03 //050   ----------------------------------------
 BYTE   W66
 BYTE   EOT
 BYTE   W06
 BYTE   N10  Dn3
 BYTE   W12
 BYTE   N08  Fs3
 BYTE   W12
//  #03 //051   ----------------------------------------
Label_011DE5D4:
 BYTE   N11  Fs3  v084
 BYTE   W12
 BYTE   N04  En3
 BYTE   W06
 BYTE   Ds3
 BYTE   W06
 BYTE   TIE  En3
 BYTE   W72
 BYTE   PEND 
//  #03 //052   ----------------------------------------
 BYTE   W68
 BYTE   W03
 BYTE   EOT
 BYTE   W24
 BYTE   W01
//  #03 //053   ----------------------------------------
Label_011DE5E6:
 BYTE   N04  Fs3  v084
 BYTE   W18
 BYTE   N02  Dn3
 BYTE   W06
 BYTE   TIE  An2
 BYTE   W72
 BYTE   PEND 
//  #03 //054   ----------------------------------------
 BYTE   W56
 BYTE   EOT
 BYTE   W04
 BYTE   N06  Dn3
 BYTE   W12
 BYTE   N06
 BYTE   W06
 BYTE   N04  En3
 BYTE   W06
 BYTE   Fs3
 BYTE   W06
 BYTE   Gn3
 BYTE   W06
//  #03 //055   ----------------------------------------
Label_011DE600:
 BYTE   N32  An3  v084
 BYTE   W36
 BYTE   N05  Gn3
 BYTE   W06
 BYTE   Fs3
 BYTE   W06
 BYTE   TIE  Gn3
 BYTE   W48
 BYTE   PEND 
//  #03 //056   ----------------------------------------
 BYTE   W80
 BYTE   W02
 BYTE   EOT
 BYTE   W14
//  #03 //057   ----------------------------------------
Label_011DE611:
 BYTE   N04  Bn3  v084
 BYTE   W18
 BYTE   N03  Gn3
 BYTE   W06
 BYTE   N72  Dn3
 BYTE   W72
 BYTE   PEND 
//  #03 //058   ----------------------------------------
 BYTE   W96
//  #03 //059   ----------------------------------------
 BYTE   W96
//  #03 //060   ----------------------------------------
 BYTE   W96
//  #03 //061   ----------------------------------------
Label_011DE61F:
 BYTE   N04  Bn2  v084
 BYTE   W12
 BYTE   N02
 BYTE   W06
 BYTE   Cs3
 BYTE   W06
 BYTE   N66  Dn3
 BYTE   W72
 BYTE   PEND 
//  #03 //062   ----------------------------------------
 BYTE   PATT
  POIN2 Label_011DE61F
//  #03 //063   ----------------------------------------
 BYTE   N96  Cs3  v084
 BYTE   W96
//  #03 //064   ----------------------------------------
 BYTE   W96
//  #03 //065   ----------------------------------------
 BYTE   PATT
  POIN2 Label_011DE5C0
//  #03 //066   ----------------------------------------
 BYTE   W66
 BYTE   EOT
 BYTE   An2
 BYTE   W06
 BYTE   N10  Dn3  v084
 BYTE   W12
 BYTE   N08  Fs3
 BYTE   W12
//  #03 //067   ----------------------------------------
 BYTE   PATT
  POIN2 Label_011DE5D4
//  #03 //068   ----------------------------------------
 BYTE   W68
 BYTE   W03
 BYTE   EOT
 BYTE   En3
 BYTE   W24
 BYTE   W01
//  #03 //069   ----------------------------------------
 BYTE   PATT
  POIN2 Label_011DE5E6
//  #03 //070   ----------------------------------------
 BYTE   W56
 BYTE   EOT
 BYTE   An2
 BYTE   W04
 BYTE   N06  Dn3  v084
 BYTE   W12
 BYTE   N06
 BYTE   W06
 BYTE   N04  En3
 BYTE   W06
 BYTE   Fs3
 BYTE   W06
 BYTE   Gn3
 BYTE   W06
//  #03 //071   ----------------------------------------
 BYTE   PATT
  POIN2 Label_011DE600
//  #03 //072   ----------------------------------------
 BYTE   W80
 BYTE   W02
 BYTE   EOT
 BYTE   Gn3
 BYTE   W14
//  #03 //073   ----------------------------------------
 BYTE   PATT
  POIN2 Label_011DE611
//  #03 //074   ----------------------------------------
 BYTE   W96
//  #03 //075   ----------------------------------------
 BYTE   W96
//  #03 //076   ----------------------------------------
 BYTE   W96
//  #03 //077   ----------------------------------------
Label_011DE678:
 BYTE   N04  As2  v084
 BYTE   W12
 BYTE   N02
 BYTE   W06
 BYTE   Cn3
 BYTE   W06
 BYTE   N66  Dn3
 BYTE   W72
 BYTE   PEND 
//  #03 //078   ----------------------------------------
 BYTE   PATT
  POIN2 Label_011DE678
//  #03 //079   ----------------------------------------
 BYTE   N96  En3  v084
 BYTE   W96
//  #03 //080   ----------------------------------------
 BYTE   W96
//  #03 //081   ----------------------------------------
 BYTE   W96
//  #03 //082   ----------------------------------------
 BYTE   W96
//  #03 //083   ----------------------------------------
 BYTE   W96
//  #03 //084   ----------------------------------------
 BYTE   W96
//  #03 //085   ----------------------------------------
 BYTE   W96
//  #03 //086   ----------------------------------------
 BYTE   W96
//  #03 //087   ----------------------------------------
 BYTE   W96
//  #03 //088   ----------------------------------------
 BYTE   PATT
  POIN2 Label_011DE4FB
//  #03 //089   ----------------------------------------
 BYTE   W66
 BYTE   EOT
 BYTE   An2
 BYTE   W06
 BYTE   N02  Dn3  v116
 BYTE   W06
 BYTE   An2
 BYTE   W06
 BYTE   Dn3
 BYTE   W06
 BYTE   Fs3
 BYTE   W06
//  #03 //090   ----------------------------------------
 BYTE   TIE  An3
 BYTE   W96
//  #03 //091   ----------------------------------------
 BYTE   W66
 BYTE   EOT
 BYTE   W06
 BYTE   N08
 BYTE   W12
 BYTE   N02  Gn3
 BYTE   W06
 BYTE   Fs3
 BYTE   W06
//  #03 //092   ----------------------------------------
 BYTE   TIE  Gn3
 BYTE   W96
//  #03 //093   ----------------------------------------
 BYTE   W92
 BYTE   W02
 BYTE   EOT
 BYTE   W02
//  #03 //094   ----------------------------------------
 BYTE   TIE  En3
 BYTE   W96
//  #03 //095   ----------------------------------------
 BYTE   W90
 BYTE   EOT
 BYTE   W06
//  #03 //096   ----------------------------------------
 BYTE   PATT
  POIN2 Label_011DE52C
//  #03 //097   ----------------------------------------
 BYTE   W68
 BYTE   EOT
 BYTE   Dn3
 BYTE   W04
 BYTE   N23  En3  v116
 BYTE   W24
//  #03 //098   ----------------------------------------
 BYTE   N92  Dn3
 BYTE   W96
//  #03 //099   ----------------------------------------
 BYTE   An2
 BYTE   W96
//  #03 //100   ----------------------------------------
 BYTE   PATT
  POIN2 Label_011DE52C
//  #03 //101   ----------------------------------------
 BYTE   W68
 BYTE   EOT
 BYTE   Dn3
 BYTE   W04
 BYTE   N23  En3  v116
 BYTE   W24
//  #03 //102   ----------------------------------------
 BYTE   N92  Dn3
 BYTE   W96
//  #03 //103   ----------------------------------------
 BYTE   En3
 BYTE   W96
//  #03 //104   ----------------------------------------
 BYTE   PATT
  POIN2 Label_011DE4FB
//  #03 //105   ----------------------------------------
 BYTE   W66
 BYTE   EOT
 BYTE   An2
 BYTE   W06
 BYTE   N02  Dn3  v116
 BYTE   W06
 BYTE   An2
 BYTE   W06
 BYTE   Dn3
 BYTE   W06
 BYTE   Fs3
 BYTE   W06
//  #03 //106   ----------------------------------------
 BYTE   TIE  An3
 BYTE   W96
//  #03 //107   ----------------------------------------
 BYTE   W66
 BYTE   EOT
 BYTE   W06
 BYTE   N08
 BYTE   W12
 BYTE   N02  Gn3
 BYTE   W06
 BYTE   Fs3
 BYTE   W06
//  #03 //108   ----------------------------------------
 BYTE   TIE  Gn3
 BYTE   W96
//  #03 //109   ----------------------------------------
 BYTE   W92
 BYTE   W02
 BYTE   EOT
 BYTE   W02
//  #03 //110   ----------------------------------------
 BYTE   TIE  En3
 BYTE   W96
//  #03 //111   ----------------------------------------
 BYTE   W90
 BYTE   EOT
 BYTE   W06
//  #03 //112   ----------------------------------------
 BYTE   PATT
  POIN2 Label_011DE52C
//  #03 //113   ----------------------------------------
 BYTE   W68
 BYTE   EOT
 BYTE   Dn3
 BYTE   W04
 BYTE   N23  En3  v116
 BYTE   W24
//  #03 //114   ----------------------------------------
 BYTE   PATT
  POIN2 Label_011DE58F
//  #03 //115   ----------------------------------------
 BYTE   W96
//  #03 //116   ----------------------------------------
 BYTE   EOT
 BYTE   Fs3
//  #03 //117   ----------------------------------------
 BYTE   PATT
  POIN2 Label_011DE599
//  #03 //118   ----------------------------------------
 BYTE   W68
 BYTE   EOT
 BYTE   Fn3
 BYTE   W28
//  #03 //119   ----------------------------------------
 BYTE   PATT
  POIN2 Label_011DE5A8
//  #03 //120   ----------------------------------------
 BYTE   N92  Gn3  v116
 BYTE   W96
//  #03 //121   ----------------------------------------
 BYTE   W96
//  #03 //122   ----------------------------------------
 BYTE   W96
//  #03 //123   ----------------------------------------
 BYTE   W96
//  #03 //124   ----------------------------------------
 BYTE   W96
//  #03 //125   ----------------------------------------
 BYTE   W96
//  #03 //126   ----------------------------------------
 BYTE   W96
//  #03 //127   ----------------------------------------
 BYTE   W96
//  #03 //128   ----------------------------------------
 BYTE   W96
//  #03 //129   ----------------------------------------
 BYTE   W96
//  #03 //130   ----------------------------------------
 BYTE   PATT
  POIN2 Label_011DE5C0
//  #03 //131   ----------------------------------------
 BYTE   W66
 BYTE   EOT
 BYTE   An2
 BYTE   W06
 BYTE   N10  Dn3  v084
 BYTE   W12
 BYTE   N08  Fs3
 BYTE   W12
//  #03 //132   ----------------------------------------
 BYTE   PATT
  POIN2 Label_011DE5D4
//  #03 //133   ----------------------------------------
 BYTE   W68
 BYTE   W03
 BYTE   EOT
 BYTE   En3
 BYTE   W24
 BYTE   W01
//  #03 //134   ----------------------------------------
 BYTE   PATT
  POIN2 Label_011DE5E6
//  #03 //135   ----------------------------------------
 BYTE   W56
 BYTE   EOT
 BYTE   An2
 BYTE   W04
 BYTE   N06  Dn3  v084
 BYTE   W12
 BYTE   N06
 BYTE   W06
 BYTE   N04  En3
 BYTE   W06
 BYTE   Fs3
 BYTE   W06
 BYTE   Gn3
 BYTE   W06
//  #03 //136   ----------------------------------------
 BYTE   PATT
  POIN2 Label_011DE600
//  #03 //137   ----------------------------------------
 BYTE   W80
 BYTE   W02
 BYTE   EOT
 BYTE   Gn3
 BYTE   W14
//  #03 //138   ----------------------------------------
 BYTE   PATT
  POIN2 Label_011DE611
//  #03 //139   ----------------------------------------
 BYTE   W96
//  #03 //140   ----------------------------------------
 BYTE   W96
//  #03 //141   ----------------------------------------
 BYTE   W96
//  #03 //142   ----------------------------------------
 BYTE   PATT
  POIN2 Label_011DE61F
//  #03 //143   ----------------------------------------
 BYTE   PATT
  POIN2 Label_011DE61F
//  #03 //144   ----------------------------------------
 BYTE   N96  Cs3  v084
 BYTE   W96
//  #03 //145   ----------------------------------------
 BYTE   W96
//  #03 //146   ----------------------------------------
 BYTE   PATT
  POIN2 Label_011DE5C0
//  #03 //147   ----------------------------------------
 BYTE   W66
 BYTE   EOT
 BYTE   An2
 BYTE   W06
 BYTE   N10  Dn3  v084
 BYTE   W12
 BYTE   N08  Fs3
 BYTE   W12
//  #03 //148   ----------------------------------------
 BYTE   PATT
  POIN2 Label_011DE5D4
//  #03 //149   ----------------------------------------
 BYTE   W68
 BYTE   W03
 BYTE   EOT
 BYTE   En3
 BYTE   W24
 BYTE   W01
//  #03 //150   ----------------------------------------
 BYTE   PATT
  POIN2 Label_011DE5E6
//  #03 //151   ----------------------------------------
 BYTE   W56
 BYTE   EOT
 BYTE   An2
 BYTE   W04
 BYTE   N06  Dn3  v084
 BYTE   W12
 BYTE   N06
 BYTE   W06
 BYTE   N04  En3
 BYTE   W06
 BYTE   Fs3
 BYTE   W06
 BYTE   Gn3
 BYTE   W06
//  #03 //152   ----------------------------------------
 BYTE   PATT
  POIN2 Label_011DE600
//  #03 //153   ----------------------------------------
 BYTE   W80
 BYTE   W02
 BYTE   EOT
 BYTE   Gn3
 BYTE   W14
//  #03 //154   ----------------------------------------
 BYTE   PATT
  POIN2 Label_011DE611
//  #03 //155   ----------------------------------------
 BYTE   W96
//  #03 //156   ----------------------------------------
 BYTE   W96
//  #03 //157   ----------------------------------------
 BYTE   W96
//  #03 //158   ----------------------------------------
 BYTE   PATT
  POIN2 Label_011DE678
//  #03 //159   ----------------------------------------
 BYTE   PATT
  POIN2 Label_011DE678
//  #03 //160   ----------------------------------------
 BYTE   N96  En3  v084
 BYTE   W96
//  #03 //161   ----------------------------------------
 BYTE   W96
//  #03 //162   ----------------------------------------
 BYTE   W96
//  #03 //163   ----------------------------------------
 BYTE   W96
//  #03 //164   ----------------------------------------
 BYTE   W96
//  #03 //165   ----------------------------------------
 BYTE   W96
//  #03 //166   ----------------------------------------
 BYTE   W96
//  #03 //167   ----------------------------------------
 BYTE   W96
//  #03 //168   ----------------------------------------
 BYTE   W96
//  #03 //169   ----------------------------------------
 BYTE   GoTo
  POIN2 Label_011DE4EE
 BYTE   FINE

//**************** Track 4 (Midi-Chn.3) ****************//

LoZWWGreatSea_004:
//  #04 //000   ----------------------------------------
 BYTE   KEYSH   LoZWWGreatSea_key+0
Label_011DFF0A:
 BYTE   VOICE   51
 BYTE   VOL   60*LoZWWGreatSea_mvl/mxv
 BYTE   W24
 BYTE   W96
//  #04 //001   ----------------------------------------
 BYTE   W96
//  #04 //002   ----------------------------------------
 BYTE   W96
//  #04 //003   ----------------------------------------
 BYTE   W96
//  #04 //004   ----------------------------------------
 BYTE   W96
//  #04 //005   ----------------------------------------
 BYTE   W96
//  #04 //006   ----------------------------------------
 BYTE   W96
//  #04 //007   ----------------------------------------
 BYTE   W96
//  #04 //008   ----------------------------------------
 BYTE   W96
//  #04 //009   ----------------------------------------
 BYTE   W96
//  #04 //010   ----------------------------------------
 BYTE   W96
//  #04 //011   ----------------------------------------
 BYTE   W96
//  #04 //012   ----------------------------------------
 BYTE   W96
//  #04 //013   ----------------------------------------
 BYTE   W96
//  #04 //014   ----------------------------------------
 BYTE   W96
//  #04 //015   ----------------------------------------
 BYTE   W96
//  #04 //016   ----------------------------------------
 BYTE   W96
//  #04 //017   ----------------------------------------
 BYTE   W96
//  #04 //018   ----------------------------------------
 BYTE   W96
//  #04 //019   ----------------------------------------
 BYTE   W96
//  #04 //020   ----------------------------------------
 BYTE   W96
//  #04 //021   ----------------------------------------
 BYTE   W96
//  #04 //022   ----------------------------------------
 BYTE   W96
//  #04 //023   ----------------------------------------
 BYTE   W96
//  #04 //024   ----------------------------------------
 BYTE   W96
//  #04 //025   ----------------------------------------
 BYTE   W96
//  #04 //026   ----------------------------------------
 BYTE   W96
//  #04 //027   ----------------------------------------
 BYTE   W96
//  #04 //028   ----------------------------------------
 BYTE   W96
//  #04 //029   ----------------------------------------
 BYTE   W96
//  #04 //030   ----------------------------------------
 BYTE   W96
//  #04 //031   ----------------------------------------
 BYTE   W96
//  #04 //032   ----------------------------------------
 BYTE   W96
//  #04 //033   ----------------------------------------
 BYTE   W96
//  #04 //034   ----------------------------------------
 BYTE   W96
//  #04 //035   ----------------------------------------
 BYTE   W96
//  #04 //036   ----------------------------------------
 BYTE   W96
//  #04 //037   ----------------------------------------
 BYTE   W96
//  #04 //038   ----------------------------------------
 BYTE   W96
//  #04 //039   ----------------------------------------
 BYTE   W96
//  #04 //040   ----------------------------------------
 BYTE   W96
//  #04 //041   ----------------------------------------
 BYTE   W96
//  #04 //042   ----------------------------------------
 BYTE   W96
//  #04 //043   ----------------------------------------
 BYTE   W96
//  #04 //044   ----------------------------------------
 BYTE   W96
//  #04 //045   ----------------------------------------
 BYTE   W96
//  #04 //046   ----------------------------------------
 BYTE   W96
//  #04 //047   ----------------------------------------
 BYTE   W96
//  #04 //048   ----------------------------------------
Label_011DFF3F:
 BYTE   N04  Fs3  v100
 BYTE   W18
 BYTE   N03  Dn3
 BYTE   W06
 BYTE   TIE  An2
 BYTE   W72
 BYTE   PEND 
//  #04 //049   ----------------------------------------
 BYTE   W66
 BYTE   EOT
 BYTE   W06
 BYTE   N10  Dn3
 BYTE   W12
 BYTE   N08  Fs3
 BYTE   W12
//  #04 //050   ----------------------------------------
Label_011DFF53:
 BYTE   N11  Fs3  v100
 BYTE   W12
 BYTE   N04  En3
 BYTE   W06
 BYTE   Ds3
 BYTE   W06
 BYTE   TIE  En3
 BYTE   W72
 BYTE   PEND 
//  #04 //051   ----------------------------------------
 BYTE   W68
 BYTE   W03
 BYTE   EOT
 BYTE   W13
 BYTE   N09  Dn3
 BYTE   W12
//  #04 //052   ----------------------------------------
Label_011DFF67:
 BYTE   N10  Fs3  v100
 BYTE   W12
 BYTE   N04  En3
 BYTE   W06
 BYTE   Dn3
 BYTE   W06
 BYTE   TIE  An2
 BYTE   W72
 BYTE   PEND 
//  #04 //053   ----------------------------------------
 BYTE   W54
 BYTE   W01
 BYTE   EOT
 BYTE   W05
 BYTE   N06  Dn3
 BYTE   W12
 BYTE   N06
 BYTE   W06
 BYTE   N04  En3
 BYTE   W06
 BYTE   Fs3
 BYTE   W06
 BYTE   Gn3
 BYTE   W06
//  #04 //054   ----------------------------------------
Label_011DFF84:
 BYTE   N32  An3  v100
 BYTE   W36
 BYTE   N05  Gn3
 BYTE   W06
 BYTE   Fs3
 BYTE   W06
 BYTE   TIE  Gn3
 BYTE   W48
 BYTE   PEND 
//  #04 //055   ----------------------------------------
 BYTE   W80
 BYTE   W02
 BYTE   EOT
 BYTE   W14
//  #04 //056   ----------------------------------------
Label_011DFF95:
 BYTE   N04  Bn3  v100
 BYTE   W18
 BYTE   N03  Gn3
 BYTE   W06
 BYTE   TIE  Dn3
 BYTE   W72
 BYTE   PEND 
//  #04 //057   ----------------------------------------
 BYTE   W66
 BYTE   EOT
 BYTE   W06
 BYTE   N10  Gn3
 BYTE   W12
 BYTE   N08  Bn3
 BYTE   W12
//  #04 //058   ----------------------------------------
Label_011DFFA9:
 BYTE   N11  Bn3  v100
 BYTE   W12
 BYTE   N04  An3
 BYTE   W06
 BYTE   Gs3
 BYTE   W06
 BYTE   N56  An3
 BYTE   W60
 BYTE   N12  Fs3
 BYTE   W12
 BYTE   PEND 
//  #04 //059   ----------------------------------------
 BYTE   N84  Dn3
 BYTE   W96
//  #04 //060   ----------------------------------------
Label_011DFFBC:
 BYTE   N10  Dn3  v100
 BYTE   W12
 BYTE   N04
 BYTE   W06
 BYTE   En3
 BYTE   W06
 BYTE   TIE  Fs3
 BYTE   W72
 BYTE   PEND 
//  #04 //061   ----------------------------------------
 BYTE   W88
 BYTE   W01
 BYTE   EOT
 BYTE   W07
//  #04 //062   ----------------------------------------
Label_011DFFCC:
 BYTE   N10  Dn3  v100
 BYTE   W12
 BYTE   N04
 BYTE   W06
 BYTE   En3
 BYTE   W06
 BYTE   N68  Fs3
 BYTE   W72
 BYTE   PEND 
//  #04 //063   ----------------------------------------
 BYTE   N96  En3
 BYTE   W96
//  #04 //064   ----------------------------------------
 BYTE   PATT
  POIN2 Label_011DFF3F
//  #04 //065   ----------------------------------------
 BYTE   W66
 BYTE   EOT
 BYTE   An2
 BYTE   W06
 BYTE   N10  Dn3  v100
 BYTE   W12
 BYTE   N08  Fs3
 BYTE   W12
//  #04 //066   ----------------------------------------
 BYTE   PATT
  POIN2 Label_011DFF53
//  #04 //067   ----------------------------------------
 BYTE   W68
 BYTE   W03
 BYTE   EOT
 BYTE   En3
 BYTE   W13
 BYTE   N09  Dn3  v100
 BYTE   W12
//  #04 //068   ----------------------------------------
 BYTE   PATT
  POIN2 Label_011DFF67
//  #04 //069   ----------------------------------------
 BYTE   W54
 BYTE   W01
 BYTE   EOT
 BYTE   An2
 BYTE   W05
 BYTE   N06  Dn3  v100
 BYTE   W12
 BYTE   N06
 BYTE   W06
 BYTE   N04  En3
 BYTE   W06
 BYTE   Fs3
 BYTE   W06
 BYTE   Gn3
 BYTE   W06
//  #04 //070   ----------------------------------------
 BYTE   PATT
  POIN2 Label_011DFF84
//  #04 //071   ----------------------------------------
 BYTE   W80
 BYTE   W02
 BYTE   EOT
 BYTE   Gn3
 BYTE   W14
//  #04 //072   ----------------------------------------
 BYTE   PATT
  POIN2 Label_011DFF95
//  #04 //073   ----------------------------------------
 BYTE   W66
 BYTE   EOT
 BYTE   Dn3
 BYTE   W06
 BYTE   N10  Gn3  v100
 BYTE   W12
 BYTE   N08  Bn3
 BYTE   W12
//  #04 //074   ----------------------------------------
Label_011E002A:
 BYTE   N11  Bn3  v100
 BYTE   W12
 BYTE   N04  An3
 BYTE   W06
 BYTE   Gs3
 BYTE   W06
 BYTE   N56  An3
 BYTE   W60
 BYTE   N08  Dn4
 BYTE   W12
 BYTE   PEND 
//  #04 //075   ----------------------------------------
 BYTE   N84  Dn3
 BYTE   W96
//  #04 //076   ----------------------------------------
Label_011E003D:
 BYTE   N10  Dn3  v100
 BYTE   W12
 BYTE   N04
 BYTE   W06
 BYTE   En3
 BYTE   W06
 BYTE   TIE  Fn3
 BYTE   W72
 BYTE   PEND 
//  #04 //077   ----------------------------------------
 BYTE   W88
 BYTE   W01
 BYTE   EOT
 BYTE   W07
//  #04 //078   ----------------------------------------
Label_011E004D:
 BYTE   N10  Dn3  v100
 BYTE   W12
 BYTE   N04
 BYTE   W06
 BYTE   En3
 BYTE   W06
 BYTE   N68  Fn3
 BYTE   W72
 BYTE   PEND 
//  #04 //079   ----------------------------------------
 BYTE   N96  Gn3
 BYTE   W96
//  #04 //080   ----------------------------------------
 BYTE   W96
//  #04 //081   ----------------------------------------
 BYTE   W96
//  #04 //082   ----------------------------------------
 BYTE   W96
//  #04 //083   ----------------------------------------
 BYTE   W96
//  #04 //084   ----------------------------------------
 BYTE   W96
//  #04 //085   ----------------------------------------
 BYTE   W96
//  #04 //086   ----------------------------------------
 BYTE   W96
//  #04 //087   ----------------------------------------
 BYTE   W96
//  #04 //088   ----------------------------------------
 BYTE   W96
//  #04 //089   ----------------------------------------
 BYTE   W96
//  #04 //090   ----------------------------------------
 BYTE   W96
//  #04 //091   ----------------------------------------
 BYTE   W96
//  #04 //092   ----------------------------------------
 BYTE   W96
//  #04 //093   ----------------------------------------
 BYTE   W96
//  #04 //094   ----------------------------------------
 BYTE   W96
//  #04 //095   ----------------------------------------
 BYTE   W96
//  #04 //096   ----------------------------------------
 BYTE   W96
//  #04 //097   ----------------------------------------
 BYTE   W96
//  #04 //098   ----------------------------------------
 BYTE   W96
//  #04 //099   ----------------------------------------
 BYTE   W96
//  #04 //100   ----------------------------------------
 BYTE   W96
//  #04 //101   ----------------------------------------
 BYTE   W96
//  #04 //102   ----------------------------------------
 BYTE   W96
//  #04 //103   ----------------------------------------
 BYTE   W96
//  #04 //104   ----------------------------------------
 BYTE   W96
//  #04 //105   ----------------------------------------
 BYTE   W96
//  #04 //106   ----------------------------------------
 BYTE   W96
//  #04 //107   ----------------------------------------
 BYTE   W96
//  #04 //108   ----------------------------------------
 BYTE   W96
//  #04 //109   ----------------------------------------
 BYTE   W96
//  #04 //110   ----------------------------------------
 BYTE   W96
//  #04 //111   ----------------------------------------
 BYTE   W96
//  #04 //112   ----------------------------------------
 BYTE   W96
//  #04 //113   ----------------------------------------
 BYTE   W96
//  #04 //114   ----------------------------------------
 BYTE   W96
//  #04 //115   ----------------------------------------
 BYTE   W96
//  #04 //116   ----------------------------------------
 BYTE   W96
//  #04 //117   ----------------------------------------
 BYTE   W96
//  #04 //118   ----------------------------------------
 BYTE   W96
//  #04 //119   ----------------------------------------
 BYTE   W96
//  #04 //120   ----------------------------------------
 BYTE   W96
//  #04 //121   ----------------------------------------
 BYTE   W96
//  #04 //122   ----------------------------------------
 BYTE   W96
//  #04 //123   ----------------------------------------
 BYTE   W96
//  #04 //124   ----------------------------------------
 BYTE   W96
//  #04 //125   ----------------------------------------
 BYTE   W96
//  #04 //126   ----------------------------------------
 BYTE   W96
//  #04 //127   ----------------------------------------
 BYTE   W96
//  #04 //128   ----------------------------------------
 BYTE   PATT
  POIN2 Label_011DFF3F
//  #04 //129   ----------------------------------------
 BYTE   W66
 BYTE   EOT
 BYTE   An2
 BYTE   W06
 BYTE   N10  Dn3  v100
 BYTE   W12
 BYTE   N08  Fs3
 BYTE   W12
//  #04 //130   ----------------------------------------
 BYTE   PATT
  POIN2 Label_011DFF53
//  #04 //131   ----------------------------------------
 BYTE   W68
 BYTE   W03
 BYTE   EOT
 BYTE   En3
 BYTE   W13
 BYTE   N09  Dn3  v100
 BYTE   W12
//  #04 //132   ----------------------------------------
 BYTE   PATT
  POIN2 Label_011DFF67
//  #04 //133   ----------------------------------------
 BYTE   W54
 BYTE   W01
 BYTE   EOT
 BYTE   An2
 BYTE   W05
 BYTE   N06  Dn3  v100
 BYTE   W12
 BYTE   N06
 BYTE   W06
 BYTE   N04  En3
 BYTE   W06
 BYTE   Fs3
 BYTE   W06
 BYTE   Gn3
 BYTE   W06
//  #04 //134   ----------------------------------------
 BYTE   PATT
  POIN2 Label_011DFF84
//  #04 //135   ----------------------------------------
 BYTE   W80
 BYTE   W02
 BYTE   EOT
 BYTE   Gn3
 BYTE   W14
//  #04 //136   ----------------------------------------
 BYTE   PATT
  POIN2 Label_011DFF95
//  #04 //137   ----------------------------------------
 BYTE   W66
 BYTE   EOT
 BYTE   Dn3
 BYTE   W06
 BYTE   N10  Gn3  v100
 BYTE   W12
 BYTE   N08  Bn3
 BYTE   W12
//  #04 //138   ----------------------------------------
 BYTE   PATT
  POIN2 Label_011DFFA9
//  #04 //139   ----------------------------------------
 BYTE   N84  Dn3  v100
 BYTE   W96
//  #04 //140   ----------------------------------------
 BYTE   PATT
  POIN2 Label_011DFFBC
//  #04 //141   ----------------------------------------
 BYTE   W88
 BYTE   W01
 BYTE   EOT
 BYTE   Fs3
 BYTE   W07
//  #04 //142   ----------------------------------------
 BYTE   PATT
  POIN2 Label_011DFFCC
//  #04 //143   ----------------------------------------
 BYTE   N96  En3  v100
 BYTE   W96
//  #04 //144   ----------------------------------------
 BYTE   PATT
  POIN2 Label_011DFF3F
//  #04 //145   ----------------------------------------
 BYTE   W66
 BYTE   EOT
 BYTE   An2
 BYTE   W06
 BYTE   N10  Dn3  v100
 BYTE   W12
 BYTE   N08  Fs3
 BYTE   W12
//  #04 //146   ----------------------------------------
 BYTE   PATT
  POIN2 Label_011DFF53
//  #04 //147   ----------------------------------------
 BYTE   W68
 BYTE   W03
 BYTE   EOT
 BYTE   En3
 BYTE   W13
 BYTE   N09  Dn3  v100
 BYTE   W12
//  #04 //148   ----------------------------------------
 BYTE   PATT
  POIN2 Label_011DFF67
//  #04 //149   ----------------------------------------
 BYTE   W54
 BYTE   W01
 BYTE   EOT
 BYTE   An2
 BYTE   W05
 BYTE   N06  Dn3  v100
 BYTE   W12
 BYTE   N06
 BYTE   W06
 BYTE   N04  En3
 BYTE   W06
 BYTE   Fs3
 BYTE   W06
 BYTE   Gn3
 BYTE   W06
//  #04 //150   ----------------------------------------
 BYTE   PATT
  POIN2 Label_011DFF84
//  #04 //151   ----------------------------------------
 BYTE   W80
 BYTE   W02
 BYTE   EOT
 BYTE   Gn3
 BYTE   W14
//  #04 //152   ----------------------------------------
 BYTE   PATT
  POIN2 Label_011DFF95
//  #04 //153   ----------------------------------------
 BYTE   W66
 BYTE   EOT
 BYTE   Dn3
 BYTE   W06
 BYTE   N10  Gn3  v100
 BYTE   W12
 BYTE   N08  Bn3
 BYTE   W12
//  #04 //154   ----------------------------------------
 BYTE   PATT
  POIN2 Label_011E002A
//  #04 //155   ----------------------------------------
 BYTE   N84  Dn3  v100
 BYTE   W96
//  #04 //156   ----------------------------------------
 BYTE   PATT
  POIN2 Label_011E003D
//  #04 //157   ----------------------------------------
 BYTE   W88
 BYTE   W01
 BYTE   EOT
 BYTE   Fn3
 BYTE   W07
//  #04 //158   ----------------------------------------
 BYTE   PATT
  POIN2 Label_011E004D
//  #04 //159   ----------------------------------------
 BYTE   N96  Gn3  v100
 BYTE   W96
//  #04 //160   ----------------------------------------
 BYTE   W96
//  #04 //161   ----------------------------------------
 BYTE   W96
//  #04 //162   ----------------------------------------
 BYTE   W96
//  #04 //163   ----------------------------------------
 BYTE   W96
//  #04 //164   ----------------------------------------
 BYTE   W96
//  #04 //165   ----------------------------------------
 BYTE   W96
//  #04 //166   ----------------------------------------
 BYTE   W96
//  #04 //167   ----------------------------------------
 BYTE   W96
//  #04 //168   ----------------------------------------
 BYTE   GoTo
  POIN2 Label_011DFF0A
 BYTE   FINE

//**************** Track 5 (Midi-Chn.4) ****************//

LoZWWGreatSea_005:
//  #05 //000   ----------------------------------------
 BYTE   KEYSH   LoZWWGreatSea_key+0
Label_011DF6D2:
 BYTE   VOICE   48
 BYTE   VOL   60*LoZWWGreatSea_mvl/mxv
 BYTE   W24
 BYTE   N96  Dn3  v100
 BYTE   N96  Fs3
 BYTE   N96  An3
 BYTE   W96
//  #05 //001   ----------------------------------------
Label_011DF6DF:
 BYTE   N96  Cs3  v100
 BYTE   N96  En3
 BYTE   N96  An3
 BYTE   W96
 BYTE   PEND 
//  #05 //002   ----------------------------------------
 BYTE   Cn3
 BYTE   N96  En3
 BYTE   N96  An3
 BYTE   W96
//  #05 //003   ----------------------------------------
 BYTE   Bn2
 BYTE   N96  Dn3
 BYTE   N96  Gn3
 BYTE   W96
//  #05 //004   ----------------------------------------
Label_011DF6F4:
 BYTE   N96  An2  v100
 BYTE   N96  Dn3
 BYTE   N96  Fs3
 BYTE   W96
 BYTE   PEND 
//  #05 //005   ----------------------------------------
 BYTE   An2
 BYTE   N96  Cs3
 BYTE   N96  En3
 BYTE   W96
//  #05 //006   ----------------------------------------
 BYTE   Gn2
 BYTE   N96  As2
 BYTE   N96  En3
 BYTE   W96
//  #05 //007   ----------------------------------------
 BYTE   Cn3
 BYTE   N96  En3
 BYTE   N96  Gn3
 BYTE   W96
//  #05 //008   ----------------------------------------
Label_011DF70F:
 BYTE   N06  An2  v112
 BYTE   N06  Dn3
 BYTE   N06  Fs3
 BYTE   W12
 BYTE   An2  v072
 BYTE   N06  Dn3
 BYTE   N06  Fs3
 BYTE   W12
 BYTE   An2  v044
 BYTE   N06  Dn3
 BYTE   N06  Fs3
 BYTE   W12
 BYTE   An2  v100
 BYTE   N06  Dn3
 BYTE   N06  Fs3
 BYTE   W12
 BYTE   An2  v044
 BYTE   N06  Dn3
 BYTE   N06  Fs3
 BYTE   W12
 BYTE   An2  v080
 BYTE   N06  Dn3
 BYTE   N06  Fs3
 BYTE   W12
 BYTE   An2  v112
 BYTE   N06  Dn3
 BYTE   N06  Fs3
 BYTE   W12
 BYTE   An2  v060
 BYTE   N06  Dn3
 BYTE   N06  Fs3
 BYTE   W12
 BYTE   PEND 
//  #05 //009   ----------------------------------------
 BYTE   PATT
  POIN2 Label_011DF70F
//  #05 //010   ----------------------------------------
Label_011DF74E:
 BYTE   N06  Cs3  v112
 BYTE   N06  Fs3
 BYTE   N06  An3
 BYTE   W12
 BYTE   Cs3  v072
 BYTE   N06  Fs3
 BYTE   N06  An3
 BYTE   W12
 BYTE   Cs3  v044
 BYTE   N06  Fs3
 BYTE   N06  An3
 BYTE   W12
 BYTE   Cs3  v100
 BYTE   N06  Fs3
 BYTE   N06  An3
 BYTE   W12
 BYTE   Cs3  v044
 BYTE   N06  Fs3
 BYTE   N06  An3
 BYTE   W12
 BYTE   Cs3  v080
 BYTE   N06  Fs3
 BYTE   N06  An3
 BYTE   W12
 BYTE   Cs3  v112
 BYTE   N06  Fs3
 BYTE   N06  An3
 BYTE   W12
 BYTE   Cs3  v060
 BYTE   N06  Fs3
 BYTE   N06  An3
 BYTE   W12
 BYTE   PEND 
//  #05 //011   ----------------------------------------
 BYTE   PATT
  POIN2 Label_011DF74E
//  #05 //012   ----------------------------------------
Label_011DF78D:
 BYTE   N06  Bn2  v112
 BYTE   N06  Dn3
 BYTE   N06  Gn3
 BYTE   W12
 BYTE   Bn2  v072
 BYTE   N06  Dn3
 BYTE   N06  Gn3
 BYTE   W12
 BYTE   Bn2  v044
 BYTE   N06  Dn3
 BYTE   N06  Gn3
 BYTE   W12
 BYTE   Bn2  v100
 BYTE   N06  Dn3
 BYTE   N06  Gn3
 BYTE   W12
 BYTE   Bn2  v044
 BYTE   N06  Dn3
 BYTE   N06  Gn3
 BYTE   W12
 BYTE   Bn2  v080
 BYTE   N06  Dn3
 BYTE   N06  Gn3
 BYTE   W12
 BYTE   Bn2  v112
 BYTE   N06  Dn3
 BYTE   N06  Gn3
 BYTE   W12
 BYTE   Bn2  v060
 BYTE   N06  Dn3
 BYTE   N06  Gn3
 BYTE   W12
 BYTE   PEND 
//  #05 //013   ----------------------------------------
 BYTE   PATT
  POIN2 Label_011DF78D
//  #05 //014   ----------------------------------------
Label_011DF7CC:
 BYTE   N06  An2  v112
 BYTE   N06  Cs3
 BYTE   N06  En3
 BYTE   W12
 BYTE   An2  v072
 BYTE   N06  Cs3
 BYTE   N06  En3
 BYTE   W12
 BYTE   An2  v044
 BYTE   N06  Cs3
 BYTE   N06  En3
 BYTE   W12
 BYTE   An2  v100
 BYTE   N06  Cs3
 BYTE   N06  En3
 BYTE   W12
 BYTE   An2  v044
 BYTE   N06  Cs3
 BYTE   N06  En3
 BYTE   W12
 BYTE   An2  v080
 BYTE   N06  Cs3
 BYTE   N06  En3
 BYTE   W12
 BYTE   An2  v112
 BYTE   N06  Cs3
 BYTE   N06  En3
 BYTE   W12
 BYTE   An2  v060
 BYTE   N06  Cs3
 BYTE   N06  En3
 BYTE   W12
 BYTE   PEND 
//  #05 //015   ----------------------------------------
 BYTE   PATT
  POIN2 Label_011DF7CC
//  #05 //016   ----------------------------------------
 BYTE   PATT
  POIN2 Label_011DF78D
//  #05 //017   ----------------------------------------
 BYTE   PATT
  POIN2 Label_011DF78D
//  #05 //018   ----------------------------------------
Label_011DF815:
 BYTE   N06  Dn3  v112
 BYTE   N06  Fs3
 BYTE   N06  An3
 BYTE   W12
 BYTE   Dn3  v072
 BYTE   N06  Fs3
 BYTE   N06  An3
 BYTE   W12
 BYTE   Dn3  v044
 BYTE   N06  Fs3
 BYTE   N06  An3
 BYTE   W12
 BYTE   Dn3  v100
 BYTE   N06  Fs3
 BYTE   N06  An3
 BYTE   W12
 BYTE   Dn3  v044
 BYTE   N06  Fs3
 BYTE   N06  An3
 BYTE   W12
 BYTE   Dn3  v080
 BYTE   N06  Fs3
 BYTE   N06  An3
 BYTE   W12
 BYTE   Dn3  v112
 BYTE   N06  Fs3
 BYTE   N06  An3
 BYTE   W12
 BYTE   Dn3  v060
 BYTE   N06  Fs3
 BYTE   N06  An3
 BYTE   W12
 BYTE   PEND 
//  #05 //019   ----------------------------------------
 BYTE   PATT
  POIN2 Label_011DF815
//  #05 //020   ----------------------------------------
 BYTE   PATT
  POIN2 Label_011DF78D
//  #05 //021   ----------------------------------------
 BYTE   PATT
  POIN2 Label_011DF78D
//  #05 //022   ----------------------------------------
Label_011DF85E:
 BYTE   N06  An2  v112
 BYTE   N06  Bn2
 BYTE   N06  En3
 BYTE   N06  Gn3
 BYTE   W12
 BYTE   An2  v072
 BYTE   N06  Bn2
 BYTE   N06  En3
 BYTE   N06  Gn3
 BYTE   W12
 BYTE   An2  v044
 BYTE   N06  Bn2
 BYTE   N06  En3
 BYTE   N06  Gn3
 BYTE   W12
 BYTE   An2  v100
 BYTE   N06  Bn2
 BYTE   N06  En3
 BYTE   N06  Gn3
 BYTE   W12
 BYTE   An2  v044
 BYTE   N06  Bn2
 BYTE   N06  En3
 BYTE   N06  Gn3
 BYTE   W12
 BYTE   An2  v080
 BYTE   N06  Bn2
 BYTE   N06  En3
 BYTE   N06  Gn3
 BYTE   W12
 BYTE   An2  v112
 BYTE   N06  Bn2
 BYTE   N06  En3
 BYTE   N06  Gn3
 BYTE   W12
 BYTE   An2  v060
 BYTE   N06  Bn2
 BYTE   N06  En3
 BYTE   N06  Gn3
 BYTE   W12
 BYTE   PEND 
//  #05 //023   ----------------------------------------
Label_011DF8A8:
 BYTE   N06  An2  v112
 BYTE   N06  Cs3
 BYTE   N06  En3
 BYTE   N06  Gn3
 BYTE   W12
 BYTE   An2  v072
 BYTE   N06  Cs3
 BYTE   N06  En3
 BYTE   N06  Gn3
 BYTE   W12
 BYTE   An2  v044
 BYTE   N06  Cs3
 BYTE   N06  En3
 BYTE   N06  Gn3
 BYTE   W12
 BYTE   An2  v100
 BYTE   N06  Cs3
 BYTE   N06  En3
 BYTE   N06  Gn3
 BYTE   W12
 BYTE   An2  v044
 BYTE   N06  Cs3
 BYTE   N06  En3
 BYTE   N06  Gn3
 BYTE   W12
 BYTE   An2  v080
 BYTE   N06  Cs3
 BYTE   N06  En3
 BYTE   N06  Gn3
 BYTE   W12
 BYTE   An2  v112
 BYTE   N06  Cs3
 BYTE   N06  En3
 BYTE   N06  Gn3
 BYTE   W12
 BYTE   An2  v060
 BYTE   N06  Cs3
 BYTE   N06  En3
 BYTE   N06  Gn3
 BYTE   W12
 BYTE   PEND 
//  #05 //024   ----------------------------------------
 BYTE   PATT
  POIN2 Label_011DF70F
//  #05 //025   ----------------------------------------
 BYTE   PATT
  POIN2 Label_011DF70F
//  #05 //026   ----------------------------------------
 BYTE   PATT
  POIN2 Label_011DF74E
//  #05 //027   ----------------------------------------
 BYTE   PATT
  POIN2 Label_011DF74E
//  #05 //028   ----------------------------------------
 BYTE   PATT
  POIN2 Label_011DF78D
//  #05 //029   ----------------------------------------
 BYTE   PATT
  POIN2 Label_011DF78D
//  #05 //030   ----------------------------------------
 BYTE   PATT
  POIN2 Label_011DF7CC
//  #05 //031   ----------------------------------------
 BYTE   PATT
  POIN2 Label_011DF7CC
//  #05 //032   ----------------------------------------
 BYTE   PATT
  POIN2 Label_011DF78D
//  #05 //033   ----------------------------------------
 BYTE   PATT
  POIN2 Label_011DF78D
//  #05 //034   ----------------------------------------
 BYTE   PATT
  POIN2 Label_011DF815
//  #05 //035   ----------------------------------------
 BYTE   PATT
  POIN2 Label_011DF815
//  #05 //036   ----------------------------------------
Label_011DF92E:
 BYTE   N06  Dn3  v112
 BYTE   N06  Fn3
 BYTE   N06  As3
 BYTE   W12
 BYTE   Dn3  v072
 BYTE   N06  Fn3
 BYTE   N06  As3
 BYTE   W12
 BYTE   Dn3  v044
 BYTE   N06  Fn3
 BYTE   N06  As3
 BYTE   W12
 BYTE   Dn3  v100
 BYTE   N06  Fn3
 BYTE   N06  As3
 BYTE   W12
 BYTE   Dn3  v044
 BYTE   N06  Fn3
 BYTE   N06  As3
 BYTE   W12
 BYTE   Dn3  v080
 BYTE   N06  Fn3
 BYTE   N06  As3
 BYTE   W12
 BYTE   Dn3  v112
 BYTE   N06  Fn3
 BYTE   N06  As3
 BYTE   W12
 BYTE   Dn3  v060
 BYTE   N06  Fn3
 BYTE   N06  As3
 BYTE   W12
 BYTE   PEND 
//  #05 //037   ----------------------------------------
 BYTE   PATT
  POIN2 Label_011DF92E
//  #05 //038   ----------------------------------------
 BYTE   PATT
  POIN2 Label_011DF92E
//  #05 //039   ----------------------------------------
Label_011DF972:
 BYTE   N06  En3  v112
 BYTE   N06  Gn3
 BYTE   N06  Cn4
 BYTE   W12
 BYTE   En3  v072
 BYTE   N06  Gn3
 BYTE   N06  Cn4
 BYTE   W12
 BYTE   En3  v044
 BYTE   N06  Gn3
 BYTE   N06  Cn4
 BYTE   W12
 BYTE   En3  v100
 BYTE   N06  Gn3
 BYTE   N06  Cn4
 BYTE   W12
 BYTE   En3  v044
 BYTE   N06  Gn3
 BYTE   N06  Cn4
 BYTE   W12
 BYTE   En3  v080
 BYTE   N06  Gn3
 BYTE   N06  Cn4
 BYTE   W12
 BYTE   En3  v112
 BYTE   N06  Gn3
 BYTE   N06  Cn4
 BYTE   W12
 BYTE   En3  v060
 BYTE   N06  Gn3
 BYTE   N06  Cn4
 BYTE   W12
 BYTE   PEND 
//  #05 //040   ----------------------------------------
 BYTE   PATT
  POIN2 Label_011DF6F4
//  #05 //041   ----------------------------------------
Label_011DF9B1:
 BYTE   N96  Bn2  v100
 BYTE   N96  En3
 BYTE   N96  Gs3
 BYTE   W96
 BYTE   PEND 
//  #05 //042   ----------------------------------------
 BYTE   PATT
  POIN2 Label_011DF6F4
//  #05 //043   ----------------------------------------
Label_011DF9BF:
 BYTE   N96  Cs3  v100
 BYTE   N96  Dn3
 BYTE   N96  An3
 BYTE   W96
 BYTE   PEND 
//  #05 //044   ----------------------------------------
 BYTE   PATT
  POIN2 Label_011DF6F4
//  #05 //045   ----------------------------------------
 BYTE   PATT
  POIN2 Label_011DF9B1
//  #05 //046   ----------------------------------------
 BYTE   PATT
  POIN2 Label_011DF6F4
//  #05 //047   ----------------------------------------
 BYTE   PATT
  POIN2 Label_011DF6DF
//  #05 //048   ----------------------------------------
 BYTE   PATT
  POIN2 Label_011DF70F
//  #05 //049   ----------------------------------------
 BYTE   PATT
  POIN2 Label_011DF70F
//  #05 //050   ----------------------------------------
Label_011DF9E6:
 BYTE   N06  An2  v112
 BYTE   N06  Cs3
 BYTE   N06  Fs3
 BYTE   W12
 BYTE   An2  v072
 BYTE   N06  Cs3
 BYTE   N06  Fs3
 BYTE   W12
 BYTE   An2  v044
 BYTE   N06  Cs3
 BYTE   N06  Fs3
 BYTE   W12
 BYTE   An2  v100
 BYTE   N06  Cs3
 BYTE   N06  Fs3
 BYTE   W12
 BYTE   An2  v044
 BYTE   N06  Cs3
 BYTE   N06  Fs3
 BYTE   W12
 BYTE   An2  v080
 BYTE   N06  Cs3
 BYTE   N06  Fs3
 BYTE   W12
 BYTE   An2  v112
 BYTE   N06  Cs3
 BYTE   N06  Fs3
 BYTE   W12
 BYTE   An2  v060
 BYTE   N06  Cs3
 BYTE   N06  Fs3
 BYTE   W12
 BYTE   PEND 
//  #05 //051   ----------------------------------------
 BYTE   PATT
  POIN2 Label_011DF9E6
//  #05 //052   ----------------------------------------
Label_011DFA25:
 BYTE   N06  An2  v112
 BYTE   N06  Cn3
 BYTE   N06  Fs3
 BYTE   W12
 BYTE   An2  v072
 BYTE   N06  Cn3
 BYTE   N06  Fs3
 BYTE   W12
 BYTE   An2  v044
 BYTE   N06  Cn3
 BYTE   N06  Fs3
 BYTE   W12
 BYTE   An2  v100
 BYTE   N06  Cn3
 BYTE   N06  Fs3
 BYTE   W12
 BYTE   An2  v044
 BYTE   N06  Cn3
 BYTE   N06  Fs3
 BYTE   W12
 BYTE   An2  v080
 BYTE   N06  Cn3
 BYTE   N06  Fs3
 BYTE   W12
 BYTE   An2  v112
 BYTE   N06  Cn3
 BYTE   N06  Fs3
 BYTE   W12
 BYTE   An2  v060
 BYTE   N06  Cn3
 BYTE   N06  Fs3
 BYTE   W12
 BYTE   PEND 
//  #05 //053   ----------------------------------------
 BYTE   PATT
  POIN2 Label_011DFA25
//  #05 //054   ----------------------------------------
 BYTE   PATT
  POIN2 Label_011DF78D
//  #05 //055   ----------------------------------------
 BYTE   PATT
  POIN2 Label_011DF78D
//  #05 //056   ----------------------------------------
 BYTE   PATT
  POIN2 Label_011DF78D
//  #05 //057   ----------------------------------------
 BYTE   PATT
  POIN2 Label_011DF78D
//  #05 //058   ----------------------------------------
 BYTE   PATT
  POIN2 Label_011DF9E6
//  #05 //059   ----------------------------------------
Label_011DFA7D:
 BYTE   N06  Bn2  v112
 BYTE   N06  Dn3
 BYTE   N06  Fs3
 BYTE   W12
 BYTE   Bn2  v072
 BYTE   N06  Dn3
 BYTE   N06  Fs3
 BYTE   W12
 BYTE   Bn2  v044
 BYTE   N06  Dn3
 BYTE   N06  Fs3
 BYTE   W12
 BYTE   Bn2  v100
 BYTE   N06  Dn3
 BYTE   N06  Fs3
 BYTE   W12
 BYTE   Bn2  v044
 BYTE   N06  Dn3
 BYTE   N06  Fs3
 BYTE   W12
 BYTE   Bn2  v080
 BYTE   N06  Dn3
 BYTE   N06  Fs3
 BYTE   W12
 BYTE   Bn2  v112
 BYTE   N06  Dn3
 BYTE   N06  Fs3
 BYTE   W12
 BYTE   Bn2  v060
 BYTE   N06  Dn3
 BYTE   N06  Fs3
 BYTE   W12
 BYTE   PEND 
//  #05 //060   ----------------------------------------
Label_011DFAB7:
 BYTE   N06  Bn2  v112
 BYTE   N06  En3
 BYTE   N06  Gn3
 BYTE   W12
 BYTE   Bn2  v072
 BYTE   N06  En3
 BYTE   N06  Gn3
 BYTE   W12
 BYTE   Bn2  v044
 BYTE   N06  En3
 BYTE   N06  Gn3
 BYTE   W12
 BYTE   Bn2  v100
 BYTE   N06  En3
 BYTE   N06  Gn3
 BYTE   W12
 BYTE   Bn2  v044
 BYTE   N06  En3
 BYTE   N06  Gn3
 BYTE   W12
 BYTE   Bn2  v080
 BYTE   N06  En3
 BYTE   N06  Gn3
 BYTE   W12
 BYTE   Bn2  v112
 BYTE   N06  En3
 BYTE   N06  Gn3
 BYTE   W12
 BYTE   Bn2  v060
 BYTE   N06  En3
 BYTE   N06  Gn3
 BYTE   W12
 BYTE   PEND 
//  #05 //061   ----------------------------------------
 BYTE   PATT
  POIN2 Label_011DFAB7
//  #05 //062   ----------------------------------------
 BYTE   PATT
  POIN2 Label_011DF85E
//  #05 //063   ----------------------------------------
Label_011DFAFB:
 BYTE   N06  An2  v112
 BYTE   N06  Cs3
 BYTE   N06  En3
 BYTE   N06  An3
 BYTE   W12
 BYTE   An2  v072
 BYTE   N06  Cs3
 BYTE   N06  En3
 BYTE   N06  An3
 BYTE   W12
 BYTE   An2  v044
 BYTE   N06  Cs3
 BYTE   N06  En3
 BYTE   N06  An3
 BYTE   W12
 BYTE   An2  v100
 BYTE   N06  Cs3
 BYTE   N06  En3
 BYTE   N06  An3
 BYTE   W12
 BYTE   An2  v044
 BYTE   N06  Cs3
 BYTE   N06  En3
 BYTE   N06  An3
 BYTE   W12
 BYTE   An2  v080
 BYTE   N06  Cs3
 BYTE   N06  En3
 BYTE   N06  An3
 BYTE   W12
 BYTE   An2  v112
 BYTE   N06  Cs3
 BYTE   N06  En3
 BYTE   N06  An3
 BYTE   W12
 BYTE   An2  v060
 BYTE   N06  Cs3
 BYTE   N06  En3
 BYTE   N06  An3
 BYTE   W12
 BYTE   PEND 
//  #05 //064   ----------------------------------------
 BYTE   PATT
  POIN2 Label_011DF70F
//  #05 //065   ----------------------------------------
 BYTE   PATT
  POIN2 Label_011DF70F
//  #05 //066   ----------------------------------------
 BYTE   PATT
  POIN2 Label_011DF9E6
//  #05 //067   ----------------------------------------
 BYTE   PATT
  POIN2 Label_011DF9E6
//  #05 //068   ----------------------------------------
 BYTE   PATT
  POIN2 Label_011DFA25
//  #05 //069   ----------------------------------------
 BYTE   PATT
  POIN2 Label_011DFA25
//  #05 //070   ----------------------------------------
 BYTE   PATT
  POIN2 Label_011DFA7D
//  #05 //071   ----------------------------------------
 BYTE   PATT
  POIN2 Label_011DFA7D
//  #05 //072   ----------------------------------------
 BYTE   PATT
  POIN2 Label_011DF78D
//  #05 //073   ----------------------------------------
 BYTE   PATT
  POIN2 Label_011DF78D
//  #05 //074   ----------------------------------------
 BYTE   PATT
  POIN2 Label_011DF9E6
//  #05 //075   ----------------------------------------
Label_011DFB7C:
 BYTE   N06  Dn3  v112
 BYTE   N06  Fs3
 BYTE   N06  Bn3
 BYTE   W12
 BYTE   Dn3  v072
 BYTE   N06  Fs3
 BYTE   N06  Bn3
 BYTE   W12
 BYTE   Dn3  v044
 BYTE   N06  Fs3
 BYTE   N06  Bn3
 BYTE   W12
 BYTE   Dn3  v100
 BYTE   N06  Fs3
 BYTE   N06  Bn3
 BYTE   W12
 BYTE   Dn3  v044
 BYTE   N06  Fs3
 BYTE   N06  Bn3
 BYTE   W12
 BYTE   Dn3  v080
 BYTE   N06  Fs3
 BYTE   N06  Bn3
 BYTE   W12
 BYTE   Dn3  v112
 BYTE   N06  Fs3
 BYTE   N06  Bn3
 BYTE   W12
 BYTE   Dn3  v060
 BYTE   N06  Fs3
 BYTE   N06  Bn3
 BYTE   W12
 BYTE   PEND 
//  #05 //076   ----------------------------------------
 BYTE   PATT
  POIN2 Label_011DF92E
//  #05 //077   ----------------------------------------
 BYTE   PATT
  POIN2 Label_011DF92E
//  #05 //078   ----------------------------------------
 BYTE   PATT
  POIN2 Label_011DF92E
//  #05 //079   ----------------------------------------
 BYTE   PATT
  POIN2 Label_011DF972
//  #05 //080   ----------------------------------------
 BYTE   PATT
  POIN2 Label_011DF6F4
//  #05 //081   ----------------------------------------
 BYTE   PATT
  POIN2 Label_011DF9B1
//  #05 //082   ----------------------------------------
 BYTE   PATT
  POIN2 Label_011DF6F4
//  #05 //083   ----------------------------------------
 BYTE   PATT
  POIN2 Label_011DF9BF
//  #05 //084   ----------------------------------------
 BYTE   PATT
  POIN2 Label_011DF6F4
//  #05 //085   ----------------------------------------
 BYTE   PATT
  POIN2 Label_011DF9B1
//  #05 //086   ----------------------------------------
 BYTE   PATT
  POIN2 Label_011DF6F4
//  #05 //087   ----------------------------------------
 BYTE   PATT
  POIN2 Label_011DF6DF
//  #05 //088   ----------------------------------------
 BYTE   PATT
  POIN2 Label_011DF70F
//  #05 //089   ----------------------------------------
 BYTE   PATT
  POIN2 Label_011DF70F
//  #05 //090   ----------------------------------------
 BYTE   PATT
  POIN2 Label_011DF74E
//  #05 //091   ----------------------------------------
 BYTE   PATT
  POIN2 Label_011DF74E
//  #05 //092   ----------------------------------------
 BYTE   PATT
  POIN2 Label_011DF78D
//  #05 //093   ----------------------------------------
 BYTE   PATT
  POIN2 Label_011DF78D
//  #05 //094   ----------------------------------------
 BYTE   PATT
  POIN2 Label_011DF7CC
//  #05 //095   ----------------------------------------
 BYTE   PATT
  POIN2 Label_011DF7CC
//  #05 //096   ----------------------------------------
 BYTE   PATT
  POIN2 Label_011DF78D
//  #05 //097   ----------------------------------------
 BYTE   PATT
  POIN2 Label_011DF78D
//  #05 //098   ----------------------------------------
 BYTE   PATT
  POIN2 Label_011DF815
//  #05 //099   ----------------------------------------
 BYTE   PATT
  POIN2 Label_011DF815
//  #05 //100   ----------------------------------------
 BYTE   PATT
  POIN2 Label_011DF78D
//  #05 //101   ----------------------------------------
 BYTE   PATT
  POIN2 Label_011DF78D
//  #05 //102   ----------------------------------------
 BYTE   PATT
  POIN2 Label_011DF85E
//  #05 //103   ----------------------------------------
 BYTE   PATT
  POIN2 Label_011DF8A8
//  #05 //104   ----------------------------------------
 BYTE   PATT
  POIN2 Label_011DF70F
//  #05 //105   ----------------------------------------
 BYTE   PATT
  POIN2 Label_011DF70F
//  #05 //106   ----------------------------------------
 BYTE   PATT
  POIN2 Label_011DF74E
//  #05 //107   ----------------------------------------
 BYTE   PATT
  POIN2 Label_011DF74E
//  #05 //108   ----------------------------------------
 BYTE   PATT
  POIN2 Label_011DF78D
//  #05 //109   ----------------------------------------
 BYTE   PATT
  POIN2 Label_011DF78D
//  #05 //110   ----------------------------------------
 BYTE   PATT
  POIN2 Label_011DF7CC
//  #05 //111   ----------------------------------------
 BYTE   PATT
  POIN2 Label_011DF7CC
//  #05 //112   ----------------------------------------
 BYTE   PATT
  POIN2 Label_011DF78D
//  #05 //113   ----------------------------------------
 BYTE   PATT
  POIN2 Label_011DF78D
//  #05 //114   ----------------------------------------
 BYTE   PATT
  POIN2 Label_011DF815
//  #05 //115   ----------------------------------------
 BYTE   PATT
  POIN2 Label_011DF815
//  #05 //116   ----------------------------------------
 BYTE   PATT
  POIN2 Label_011DF92E
//  #05 //117   ----------------------------------------
 BYTE   PATT
  POIN2 Label_011DF92E
//  #05 //118   ----------------------------------------
 BYTE   PATT
  POIN2 Label_011DF92E
//  #05 //119   ----------------------------------------
 BYTE   PATT
  POIN2 Label_011DF972
//  #05 //120   ----------------------------------------
 BYTE   PATT
  POIN2 Label_011DF6F4
//  #05 //121   ----------------------------------------
 BYTE   PATT
  POIN2 Label_011DF9B1
//  #05 //122   ----------------------------------------
 BYTE   PATT
  POIN2 Label_011DF6F4
//  #05 //123   ----------------------------------------
 BYTE   PATT
  POIN2 Label_011DF9BF
//  #05 //124   ----------------------------------------
 BYTE   PATT
  POIN2 Label_011DF6F4
//  #05 //125   ----------------------------------------
 BYTE   PATT
  POIN2 Label_011DF9B1
//  #05 //126   ----------------------------------------
 BYTE   PATT
  POIN2 Label_011DF6F4
//  #05 //127   ----------------------------------------
 BYTE   PATT
  POIN2 Label_011DF6DF
//  #05 //128   ----------------------------------------
 BYTE   PATT
  POIN2 Label_011DF70F
//  #05 //129   ----------------------------------------
 BYTE   PATT
  POIN2 Label_011DF70F
//  #05 //130   ----------------------------------------
 BYTE   PATT
  POIN2 Label_011DF9E6
//  #05 //131   ----------------------------------------
 BYTE   PATT
  POIN2 Label_011DF9E6
//  #05 //132   ----------------------------------------
 BYTE   PATT
  POIN2 Label_011DFA25
//  #05 //133   ----------------------------------------
 BYTE   PATT
  POIN2 Label_011DFA25
//  #05 //134   ----------------------------------------
 BYTE   PATT
  POIN2 Label_011DF78D
//  #05 //135   ----------------------------------------
 BYTE   PATT
  POIN2 Label_011DF78D
//  #05 //136   ----------------------------------------
 BYTE   PATT
  POIN2 Label_011DF78D
//  #05 //137   ----------------------------------------
 BYTE   PATT
  POIN2 Label_011DF78D
//  #05 //138   ----------------------------------------
 BYTE   PATT
  POIN2 Label_011DF9E6
//  #05 //139   ----------------------------------------
 BYTE   PATT
  POIN2 Label_011DFA7D
//  #05 //140   ----------------------------------------
 BYTE   PATT
  POIN2 Label_011DFAB7
//  #05 //141   ----------------------------------------
 BYTE   PATT
  POIN2 Label_011DFAB7
//  #05 //142   ----------------------------------------
 BYTE   PATT
  POIN2 Label_011DF85E
//  #05 //143   ----------------------------------------
 BYTE   PATT
  POIN2 Label_011DFAFB
//  #05 //144   ----------------------------------------
 BYTE   PATT
  POIN2 Label_011DF70F
//  #05 //145   ----------------------------------------
 BYTE   PATT
  POIN2 Label_011DF70F
//  #05 //146   ----------------------------------------
 BYTE   PATT
  POIN2 Label_011DF9E6
//  #05 //147   ----------------------------------------
 BYTE   PATT
  POIN2 Label_011DF9E6
//  #05 //148   ----------------------------------------
 BYTE   PATT
  POIN2 Label_011DFA25
//  #05 //149   ----------------------------------------
 BYTE   PATT
  POIN2 Label_011DFA25
//  #05 //150   ----------------------------------------
 BYTE   PATT
  POIN2 Label_011DFA7D
//  #05 //151   ----------------------------------------
 BYTE   PATT
  POIN2 Label_011DFA7D
//  #05 //152   ----------------------------------------
 BYTE   PATT
  POIN2 Label_011DF78D
//  #05 //153   ----------------------------------------
 BYTE   PATT
  POIN2 Label_011DF78D
//  #05 //154   ----------------------------------------
 BYTE   PATT
  POIN2 Label_011DF9E6
//  #05 //155   ----------------------------------------
 BYTE   PATT
  POIN2 Label_011DFB7C
//  #05 //156   ----------------------------------------
 BYTE   PATT
  POIN2 Label_011DF92E
//  #05 //157   ----------------------------------------
 BYTE   PATT
  POIN2 Label_011DF92E
//  #05 //158   ----------------------------------------
 BYTE   PATT
  POIN2 Label_011DF92E
//  #05 //159   ----------------------------------------
 BYTE   PATT
  POIN2 Label_011DF972
//  #05 //160   ----------------------------------------
 BYTE   PATT
  POIN2 Label_011DF6F4
//  #05 //161   ----------------------------------------
 BYTE   PATT
  POIN2 Label_011DF9B1
//  #05 //162   ----------------------------------------
 BYTE   PATT
  POIN2 Label_011DF6F4
//  #05 //163   ----------------------------------------
 BYTE   PATT
  POIN2 Label_011DF9BF
//  #05 //164   ----------------------------------------
 BYTE   PATT
  POIN2 Label_011DF6F4
//  #05 //165   ----------------------------------------
 BYTE   PATT
  POIN2 Label_011DF9B1
//  #05 //166   ----------------------------------------
 BYTE   PATT
  POIN2 Label_011DF6F4
//  #05 //167   ----------------------------------------
 BYTE   PATT
  POIN2 Label_011DF6DF
//  #05 //168   ----------------------------------------
 BYTE   GoTo
  POIN2 Label_011DF6D2
 BYTE   FINE

//**************** Track 6 (Midi-Chn.5) ****************//

LoZWWGreatSea_006:
//  #06 //000   ----------------------------------------
 BYTE   KEYSH   LoZWWGreatSea_key+0
Label_011E05CA:
 BYTE   VOICE   56
 BYTE   VOL   60*LoZWWGreatSea_mvl/mxv
 BYTE   W24
 BYTE   W96
//  #06 //001   ----------------------------------------
 BYTE   W96
//  #06 //002   ----------------------------------------
 BYTE   W96
//  #06 //003   ----------------------------------------
 BYTE   W96
//  #06 //004   ----------------------------------------
 BYTE   W96
//  #06 //005   ----------------------------------------
 BYTE   W96
//  #06 //006   ----------------------------------------
 BYTE   W96
//  #06 //007   ----------------------------------------
 BYTE   W96
//  #06 //008   ----------------------------------------
 BYTE   W96
//  #06 //009   ----------------------------------------
 BYTE   W96
//  #06 //010   ----------------------------------------
 BYTE   W96
//  #06 //011   ----------------------------------------
 BYTE   W96
//  #06 //012   ----------------------------------------
 BYTE   W96
//  #06 //013   ----------------------------------------
 BYTE   W96
//  #06 //014   ----------------------------------------
Label_011E05DD:
 BYTE   W72
 BYTE   N04  An3  v100
 BYTE   W08
 BYTE   N04
 BYTE   W08
 BYTE   N04
 BYTE   W08
 BYTE   PEND 
//  #06 //015   ----------------------------------------
Label_011E05E7:
 BYTE   N92  An3  v100
 BYTE   W36
 BYTE   VOL   56*LoZWWGreatSea_mvl/mxv
 BYTE   W12
 BYTE   VOL   53*LoZWWGreatSea_mvl/mxv
 BYTE   W12
 BYTE   VOL   49*LoZWWGreatSea_mvl/mxv
 BYTE   W12
 BYTE   VOL   46*LoZWWGreatSea_mvl/mxv
 BYTE   W06
 BYTE   VOL   41*LoZWWGreatSea_mvl/mxv
 BYTE   W06
 BYTE   VOL   36*LoZWWGreatSea_mvl/mxv
 BYTE   W06
 BYTE   VOL   30*LoZWWGreatSea_mvl/mxv
 BYTE   W06
 BYTE   PEND 
//  #06 //016   ----------------------------------------
 BYTE   Gs4
 BYTE   W96
//  #06 //017   ----------------------------------------
 BYTE   W96
//  #06 //018   ----------------------------------------
 BYTE   W96
//  #06 //019   ----------------------------------------
 BYTE   W96
//  #06 //020   ----------------------------------------
 BYTE   W96
//  #06 //021   ----------------------------------------
 BYTE   W96
//  #06 //022   ----------------------------------------
 BYTE   W96
//  #06 //023   ----------------------------------------
 BYTE   W96
//  #06 //024   ----------------------------------------
 BYTE   W96
//  #06 //025   ----------------------------------------
 BYTE   W96
//  #06 //026   ----------------------------------------
 BYTE   W96
//  #06 //027   ----------------------------------------
 BYTE   W96
//  #06 //028   ----------------------------------------
 BYTE   W96
//  #06 //029   ----------------------------------------
 BYTE   W96
//  #06 //030   ----------------------------------------
 BYTE   PATT
  POIN2 Label_011E05DD
//  #06 //031   ----------------------------------------
 BYTE   PATT
  POIN2 Label_011E05E7
//  #06 //032   ----------------------------------------
 BYTE   VOL   60*LoZWWGreatSea_mvl/mxv
 BYTE   W96
//  #06 //033   ----------------------------------------
 BYTE   W96
//  #06 //034   ----------------------------------------
 BYTE   W96
//  #06 //035   ----------------------------------------
 BYTE   W96
//  #06 //036   ----------------------------------------
 BYTE   W96
//  #06 //037   ----------------------------------------
 BYTE   W96
//  #06 //038   ----------------------------------------
 BYTE   W96
//  #06 //039   ----------------------------------------
 BYTE   W96
//  #06 //040   ----------------------------------------
 BYTE   W96
//  #06 //041   ----------------------------------------
 BYTE   W96
//  #06 //042   ----------------------------------------
 BYTE   W96
//  #06 //043   ----------------------------------------
 BYTE   W96
//  #06 //044   ----------------------------------------
 BYTE   W96
//  #06 //045   ----------------------------------------
 BYTE   W96
//  #06 //046   ----------------------------------------
 BYTE   W96
//  #06 //047   ----------------------------------------
 BYTE   W96
//  #06 //048   ----------------------------------------
 BYTE   W96
//  #06 //049   ----------------------------------------
 BYTE   W96
//  #06 //050   ----------------------------------------
 BYTE   W96
//  #06 //051   ----------------------------------------
 BYTE   W96
//  #06 //052   ----------------------------------------
 BYTE   W96
//  #06 //053   ----------------------------------------
 BYTE   W96
//  #06 //054   ----------------------------------------
 BYTE   W96
//  #06 //055   ----------------------------------------
 BYTE   W96
//  #06 //056   ----------------------------------------
 BYTE   W96
//  #06 //057   ----------------------------------------
 BYTE   W96
//  #06 //058   ----------------------------------------
 BYTE   W96
//  #06 //059   ----------------------------------------
 BYTE   W96
//  #06 //060   ----------------------------------------
 BYTE   W96
//  #06 //061   ----------------------------------------
 BYTE   W96
//  #06 //062   ----------------------------------------
 BYTE   W96
//  #06 //063   ----------------------------------------
 BYTE   W96
//  #06 //064   ----------------------------------------
 BYTE   W96
//  #06 //065   ----------------------------------------
 BYTE   W96
//  #06 //066   ----------------------------------------
 BYTE   W96
//  #06 //067   ----------------------------------------
 BYTE   W96
//  #06 //068   ----------------------------------------
 BYTE   W96
//  #06 //069   ----------------------------------------
 BYTE   W96
//  #06 //070   ----------------------------------------
 BYTE   W96
//  #06 //071   ----------------------------------------
 BYTE   W96
//  #06 //072   ----------------------------------------
 BYTE   W96
//  #06 //073   ----------------------------------------
 BYTE   W96
//  #06 //074   ----------------------------------------
 BYTE   W96
//  #06 //075   ----------------------------------------
 BYTE   W96
//  #06 //076   ----------------------------------------
 BYTE   W96
//  #06 //077   ----------------------------------------
 BYTE   W96
//  #06 //078   ----------------------------------------
 BYTE   W96
//  #06 //079   ----------------------------------------
 BYTE   W96
//  #06 //080   ----------------------------------------
 BYTE   W96
//  #06 //081   ----------------------------------------
 BYTE   W96
//  #06 //082   ----------------------------------------
 BYTE   W96
//  #06 //083   ----------------------------------------
 BYTE   W96
//  #06 //084   ----------------------------------------
 BYTE   W96
//  #06 //085   ----------------------------------------
 BYTE   W96
//  #06 //086   ----------------------------------------
 BYTE   W96
//  #06 //087   ----------------------------------------
 BYTE   W96
//  #06 //088   ----------------------------------------
 BYTE   W96
//  #06 //089   ----------------------------------------
 BYTE   W96
//  #06 //090   ----------------------------------------
 BYTE   W96
//  #06 //091   ----------------------------------------
 BYTE   W96
//  #06 //092   ----------------------------------------
 BYTE   W96
//  #06 //093   ----------------------------------------
 BYTE   W96
//  #06 //094   ----------------------------------------
 BYTE   PATT
  POIN2 Label_011E05DD
//  #06 //095   ----------------------------------------
 BYTE   PATT
  POIN2 Label_011E05E7
//  #06 //096   ----------------------------------------
 BYTE   VOL   60*LoZWWGreatSea_mvl/mxv
 BYTE   W96
//  #06 //097   ----------------------------------------
 BYTE   W96
//  #06 //098   ----------------------------------------
 BYTE   W96
//  #06 //099   ----------------------------------------
 BYTE   W96
//  #06 //100   ----------------------------------------
 BYTE   W96
//  #06 //101   ----------------------------------------
 BYTE   W96
//  #06 //102   ----------------------------------------
 BYTE   W96
//  #06 //103   ----------------------------------------
 BYTE   W96
//  #06 //104   ----------------------------------------
 BYTE   W96
//  #06 //105   ----------------------------------------
 BYTE   W96
//  #06 //106   ----------------------------------------
 BYTE   W96
//  #06 //107   ----------------------------------------
 BYTE   W96
//  #06 //108   ----------------------------------------
 BYTE   W96
//  #06 //109   ----------------------------------------
 BYTE   W96
//  #06 //110   ----------------------------------------
 BYTE   PATT
  POIN2 Label_011E05DD
//  #06 //111   ----------------------------------------
 BYTE   PATT
  POIN2 Label_011E05E7
//  #06 //112   ----------------------------------------
 BYTE   VOL   60*LoZWWGreatSea_mvl/mxv
 BYTE   W96
//  #06 //113   ----------------------------------------
 BYTE   W96
//  #06 //114   ----------------------------------------
 BYTE   W96
//  #06 //115   ----------------------------------------
 BYTE   W96
//  #06 //116   ----------------------------------------
 BYTE   W96
//  #06 //117   ----------------------------------------
 BYTE   W96
//  #06 //118   ----------------------------------------
 BYTE   W96
//  #06 //119   ----------------------------------------
 BYTE   W96
//  #06 //120   ----------------------------------------
 BYTE   W96
//  #06 //121   ----------------------------------------
 BYTE   W96
//  #06 //122   ----------------------------------------
 BYTE   W96
//  #06 //123   ----------------------------------------
 BYTE   W96
//  #06 //124   ----------------------------------------
 BYTE   W96
//  #06 //125   ----------------------------------------
 BYTE   W96
//  #06 //126   ----------------------------------------
 BYTE   W96
//  #06 //127   ----------------------------------------
 BYTE   W96
//  #06 //128   ----------------------------------------
 BYTE   W96
//  #06 //129   ----------------------------------------
 BYTE   W96
//  #06 //130   ----------------------------------------
 BYTE   W96
//  #06 //131   ----------------------------------------
 BYTE   W96
//  #06 //132   ----------------------------------------
 BYTE   W96
//  #06 //133   ----------------------------------------
 BYTE   W96
//  #06 //134   ----------------------------------------
 BYTE   W96
//  #06 //135   ----------------------------------------
 BYTE   W96
//  #06 //136   ----------------------------------------
 BYTE   W96
//  #06 //137   ----------------------------------------
 BYTE   W96
//  #06 //138   ----------------------------------------
 BYTE   W96
//  #06 //139   ----------------------------------------
 BYTE   W96
//  #06 //140   ----------------------------------------
 BYTE   W96
//  #06 //141   ----------------------------------------
 BYTE   W96
//  #06 //142   ----------------------------------------
 BYTE   W96
//  #06 //143   ----------------------------------------
 BYTE   W96
//  #06 //144   ----------------------------------------
 BYTE   W96
//  #06 //145   ----------------------------------------
 BYTE   W96
//  #06 //146   ----------------------------------------
 BYTE   W96
//  #06 //147   ----------------------------------------
 BYTE   W96
//  #06 //148   ----------------------------------------
 BYTE   W96
//  #06 //149   ----------------------------------------
 BYTE   W96
//  #06 //150   ----------------------------------------
 BYTE   W96
//  #06 //151   ----------------------------------------
 BYTE   W96
//  #06 //152   ----------------------------------------
 BYTE   W96
//  #06 //153   ----------------------------------------
 BYTE   W96
//  #06 //154   ----------------------------------------
 BYTE   W96
//  #06 //155   ----------------------------------------
 BYTE   W96
//  #06 //156   ----------------------------------------
 BYTE   W96
//  #06 //157   ----------------------------------------
 BYTE   W96
//  #06 //158   ----------------------------------------
 BYTE   W96
//  #06 //159   ----------------------------------------
 BYTE   W96
//  #06 //160   ----------------------------------------
 BYTE   W96
//  #06 //161   ----------------------------------------
 BYTE   W96
//  #06 //162   ----------------------------------------
 BYTE   W96
//  #06 //163   ----------------------------------------
 BYTE   W96
//  #06 //164   ----------------------------------------
 BYTE   W96
//  #06 //165   ----------------------------------------
 BYTE   W96
//  #06 //166   ----------------------------------------
 BYTE   W96
//  #06 //167   ----------------------------------------
 BYTE   W96
//  #06 //168   ----------------------------------------
 BYTE   GoTo
  POIN2 Label_011E05CA
 BYTE   FINE

//**************** Track 7 (Midi-Chn.6) ****************//

LoZWWGreatSea_007:
//  #07 //000   ----------------------------------------
 BYTE   KEYSH   LoZWWGreatSea_key+0
Label_011E06BA:
 BYTE   VOICE   47
 BYTE   VOL   60*LoZWWGreatSea_mvl/mxv
 BYTE   W24
 BYTE   N96  Dn1  v100
 BYTE   W96
//  #07 //001   ----------------------------------------
Label_011E06C3:
 BYTE   N72  Dn1  v100
 BYTE   W84
 BYTE   N12  An1
 BYTE   W12
 BYTE   PEND 
//  #07 //002   ----------------------------------------
 BYTE   N96  Dn1
 BYTE   W96
//  #07 //003   ----------------------------------------
 BYTE   PATT
  POIN2 Label_011E06C3
//  #07 //004   ----------------------------------------
 BYTE   N96  Dn1  v100
 BYTE   W96
//  #07 //005   ----------------------------------------
 BYTE   PATT
  POIN2 Label_011E06C3
//  #07 //006   ----------------------------------------
 BYTE   N96  Dn1  v100
 BYTE   W96
//  #07 //007   ----------------------------------------
 BYTE   PATT
  POIN2 Label_011E06C3
//  #07 //008   ----------------------------------------
 BYTE   N96  Dn1  v100
 BYTE   W96
//  #07 //009   ----------------------------------------
 BYTE   W96
//  #07 //010   ----------------------------------------
 BYTE   W96
//  #07 //011   ----------------------------------------
 BYTE   W96
//  #07 //012   ----------------------------------------
 BYTE   W96
//  #07 //013   ----------------------------------------
 BYTE   W96
//  #07 //014   ----------------------------------------
 BYTE   W96
//  #07 //015   ----------------------------------------
 BYTE   W96
//  #07 //016   ----------------------------------------
 BYTE   W96
//  #07 //017   ----------------------------------------
 BYTE   W96
//  #07 //018   ----------------------------------------
 BYTE   W96
//  #07 //019   ----------------------------------------
 BYTE   W96
//  #07 //020   ----------------------------------------
 BYTE   W96
//  #07 //021   ----------------------------------------
 BYTE   W96
//  #07 //022   ----------------------------------------
 BYTE   W96
//  #07 //023   ----------------------------------------
 BYTE   W96
//  #07 //024   ----------------------------------------
 BYTE   N96
 BYTE   W96
//  #07 //025   ----------------------------------------
 BYTE   W96
//  #07 //026   ----------------------------------------
 BYTE   W96
//  #07 //027   ----------------------------------------
 BYTE   W96
//  #07 //028   ----------------------------------------
 BYTE   W96
//  #07 //029   ----------------------------------------
 BYTE   W96
//  #07 //030   ----------------------------------------
 BYTE   W96
//  #07 //031   ----------------------------------------
 BYTE   W96
//  #07 //032   ----------------------------------------
 BYTE   W96
//  #07 //033   ----------------------------------------
 BYTE   W96
//  #07 //034   ----------------------------------------
 BYTE   W96
//  #07 //035   ----------------------------------------
 BYTE   W96
//  #07 //036   ----------------------------------------
 BYTE   W96
//  #07 //037   ----------------------------------------
 BYTE   W96
//  #07 //038   ----------------------------------------
 BYTE   W96
//  #07 //039   ----------------------------------------
 BYTE   W96
//  #07 //040   ----------------------------------------
 BYTE   N96
 BYTE   W96
//  #07 //041   ----------------------------------------
 BYTE   PATT
  POIN2 Label_011E06C3
//  #07 //042   ----------------------------------------
 BYTE   N96  Dn1  v100
 BYTE   W96
//  #07 //043   ----------------------------------------
 BYTE   PATT
  POIN2 Label_011E06C3
//  #07 //044   ----------------------------------------
 BYTE   N96  Dn1  v100
 BYTE   W96
//  #07 //045   ----------------------------------------
 BYTE   PATT
  POIN2 Label_011E06C3
//  #07 //046   ----------------------------------------
 BYTE   N96  Dn1  v100
 BYTE   W96
//  #07 //047   ----------------------------------------
 BYTE   PATT
  POIN2 Label_011E06C3
//  #07 //048   ----------------------------------------
 BYTE   N96  Dn1  v100
 BYTE   W96
//  #07 //049   ----------------------------------------
 BYTE   W96
//  #07 //050   ----------------------------------------
 BYTE   W96
//  #07 //051   ----------------------------------------
 BYTE   W96
//  #07 //052   ----------------------------------------
 BYTE   W96
//  #07 //053   ----------------------------------------
 BYTE   W96
//  #07 //054   ----------------------------------------
 BYTE   W96
//  #07 //055   ----------------------------------------
 BYTE   W96
//  #07 //056   ----------------------------------------
 BYTE   W96
//  #07 //057   ----------------------------------------
 BYTE   W96
//  #07 //058   ----------------------------------------
 BYTE   W96
//  #07 //059   ----------------------------------------
 BYTE   W96
//  #07 //060   ----------------------------------------
 BYTE   W96
//  #07 //061   ----------------------------------------
 BYTE   W96
//  #07 //062   ----------------------------------------
 BYTE   W96
//  #07 //063   ----------------------------------------
 BYTE   W96
//  #07 //064   ----------------------------------------
 BYTE   W96
//  #07 //065   ----------------------------------------
 BYTE   W96
//  #07 //066   ----------------------------------------
 BYTE   W96
//  #07 //067   ----------------------------------------
 BYTE   W96
//  #07 //068   ----------------------------------------
 BYTE   W96
//  #07 //069   ----------------------------------------
 BYTE   W96
//  #07 //070   ----------------------------------------
 BYTE   W96
//  #07 //071   ----------------------------------------
 BYTE   W96
//  #07 //072   ----------------------------------------
 BYTE   W96
//  #07 //073   ----------------------------------------
 BYTE   W96
//  #07 //074   ----------------------------------------
 BYTE   W96
//  #07 //075   ----------------------------------------
 BYTE   W96
//  #07 //076   ----------------------------------------
 BYTE   W96
//  #07 //077   ----------------------------------------
 BYTE   W96
//  #07 //078   ----------------------------------------
 BYTE   W96
//  #07 //079   ----------------------------------------
 BYTE   W84
 BYTE   N12  Gn1
 BYTE   W12
//  #07 //080   ----------------------------------------
 BYTE   N96  Dn1
 BYTE   W96
//  #07 //081   ----------------------------------------
 BYTE   PATT
  POIN2 Label_011E06C3
//  #07 //082   ----------------------------------------
 BYTE   N96  Dn1  v100
 BYTE   W96
//  #07 //083   ----------------------------------------
 BYTE   PATT
  POIN2 Label_011E06C3
//  #07 //084   ----------------------------------------
 BYTE   N96  Dn1  v100
 BYTE   W96
//  #07 //085   ----------------------------------------
 BYTE   PATT
  POIN2 Label_011E06C3
//  #07 //086   ----------------------------------------
 BYTE   N96  Dn1  v100
 BYTE   W96
//  #07 //087   ----------------------------------------
 BYTE   PATT
  POIN2 Label_011E06C3
//  #07 //088   ----------------------------------------
 BYTE   N96  Dn1  v100
 BYTE   W96
//  #07 //089   ----------------------------------------
 BYTE   W96
//  #07 //090   ----------------------------------------
 BYTE   W96
//  #07 //091   ----------------------------------------
 BYTE   W96
//  #07 //092   ----------------------------------------
 BYTE   W96
//  #07 //093   ----------------------------------------
 BYTE   W96
//  #07 //094   ----------------------------------------
 BYTE   W96
//  #07 //095   ----------------------------------------
 BYTE   W96
//  #07 //096   ----------------------------------------
 BYTE   W96
//  #07 //097   ----------------------------------------
 BYTE   W96
//  #07 //098   ----------------------------------------
 BYTE   W96
//  #07 //099   ----------------------------------------
 BYTE   W96
//  #07 //100   ----------------------------------------
 BYTE   W96
//  #07 //101   ----------------------------------------
 BYTE   W96
//  #07 //102   ----------------------------------------
 BYTE   W96
//  #07 //103   ----------------------------------------
 BYTE   W96
//  #07 //104   ----------------------------------------
 BYTE   N96
 BYTE   W96
//  #07 //105   ----------------------------------------
 BYTE   W96
//  #07 //106   ----------------------------------------
 BYTE   W96
//  #07 //107   ----------------------------------------
 BYTE   W96
//  #07 //108   ----------------------------------------
 BYTE   W96
//  #07 //109   ----------------------------------------
 BYTE   W96
//  #07 //110   ----------------------------------------
 BYTE   W96
//  #07 //111   ----------------------------------------
 BYTE   W96
//  #07 //112   ----------------------------------------
 BYTE   W96
//  #07 //113   ----------------------------------------
 BYTE   W96
//  #07 //114   ----------------------------------------
 BYTE   W96
//  #07 //115   ----------------------------------------
 BYTE   W96
//  #07 //116   ----------------------------------------
 BYTE   W96
//  #07 //117   ----------------------------------------
 BYTE   W96
//  #07 //118   ----------------------------------------
 BYTE   W96
//  #07 //119   ----------------------------------------
 BYTE   W96
//  #07 //120   ----------------------------------------
 BYTE   N96
 BYTE   W96
//  #07 //121   ----------------------------------------
 BYTE   PATT
  POIN2 Label_011E06C3
//  #07 //122   ----------------------------------------
 BYTE   N96  Dn1  v100
 BYTE   W96
//  #07 //123   ----------------------------------------
 BYTE   PATT
  POIN2 Label_011E06C3
//  #07 //124   ----------------------------------------
 BYTE   N96  Dn1  v100
 BYTE   W96
//  #07 //125   ----------------------------------------
 BYTE   PATT
  POIN2 Label_011E06C3
//  #07 //126   ----------------------------------------
 BYTE   N96  Dn1  v100
 BYTE   W96
//  #07 //127   ----------------------------------------
 BYTE   PATT
  POIN2 Label_011E06C3
//  #07 //128   ----------------------------------------
 BYTE   N96  Dn1  v100
 BYTE   W96
//  #07 //129   ----------------------------------------
 BYTE   W96
//  #07 //130   ----------------------------------------
 BYTE   W96
//  #07 //131   ----------------------------------------
 BYTE   W96
//  #07 //132   ----------------------------------------
 BYTE   W96
//  #07 //133   ----------------------------------------
 BYTE   W96
//  #07 //134   ----------------------------------------
 BYTE   W96
//  #07 //135   ----------------------------------------
 BYTE   W96
//  #07 //136   ----------------------------------------
 BYTE   W96
//  #07 //137   ----------------------------------------
 BYTE   W96
//  #07 //138   ----------------------------------------
 BYTE   W96
//  #07 //139   ----------------------------------------
 BYTE   W96
//  #07 //140   ----------------------------------------
 BYTE   W96
//  #07 //141   ----------------------------------------
 BYTE   W96
//  #07 //142   ----------------------------------------
 BYTE   W96
//  #07 //143   ----------------------------------------
 BYTE   W96
//  #07 //144   ----------------------------------------
 BYTE   W96
//  #07 //145   ----------------------------------------
 BYTE   W96
//  #07 //146   ----------------------------------------
 BYTE   W96
//  #07 //147   ----------------------------------------
 BYTE   W96
//  #07 //148   ----------------------------------------
 BYTE   W96
//  #07 //149   ----------------------------------------
 BYTE   W96
//  #07 //150   ----------------------------------------
 BYTE   W96
//  #07 //151   ----------------------------------------
 BYTE   W96
//  #07 //152   ----------------------------------------
 BYTE   W96
//  #07 //153   ----------------------------------------
 BYTE   W96
//  #07 //154   ----------------------------------------
 BYTE   W96
//  #07 //155   ----------------------------------------
 BYTE   W96
//  #07 //156   ----------------------------------------
 BYTE   W96
//  #07 //157   ----------------------------------------
 BYTE   W96
//  #07 //158   ----------------------------------------
 BYTE   W96
//  #07 //159   ----------------------------------------
 BYTE   W84
 BYTE   N12  Gn1
 BYTE   W12
//  #07 //160   ----------------------------------------
 BYTE   N96  Dn1
 BYTE   W96
//  #07 //161   ----------------------------------------
 BYTE   PATT
  POIN2 Label_011E06C3
//  #07 //162   ----------------------------------------
 BYTE   N96  Dn1  v100
 BYTE   W96
//  #07 //163   ----------------------------------------
 BYTE   PATT
  POIN2 Label_011E06C3
//  #07 //164   ----------------------------------------
 BYTE   N96  Dn1  v100
 BYTE   W96
//  #07 //165   ----------------------------------------
 BYTE   PATT
  POIN2 Label_011E06C3
//  #07 //166   ----------------------------------------
 BYTE   N96  Dn1  v100
 BYTE   W96
//  #07 //167   ----------------------------------------
 BYTE   PATT
  POIN2 Label_011E06C3
//  #07 //168   ----------------------------------------
 BYTE   GoTo
  POIN2 Label_011E06BA
 BYTE   FINE

//**************** Track 8 (Midi-Chn.7) ****************//

LoZWWGreatSea_008:
//  #08 //000   ----------------------------------------
 BYTE   KEYSH   LoZWWGreatSea_key+0
Label_011DF252:
 BYTE   VOICE   45
 BYTE   VOL   60*LoZWWGreatSea_mvl/mxv
 BYTE   W24
 BYTE   W96
//  #08 //001   ----------------------------------------
 BYTE   W96
//  #08 //002   ----------------------------------------
 BYTE   W96
//  #08 //003   ----------------------------------------
 BYTE   W96
//  #08 //004   ----------------------------------------
 BYTE   W96
//  #08 //005   ----------------------------------------
 BYTE   W96
//  #08 //006   ----------------------------------------
 BYTE   W96
//  #08 //007   ----------------------------------------
 BYTE   W96
//  #08 //008   ----------------------------------------
Label_011DF25F:
 BYTE   N12  Dn1  v100
 BYTE   W84
 BYTE   N10  An1
 BYTE   W12
 BYTE   PEND 
//  #08 //009   ----------------------------------------
 BYTE   PATT
  POIN2 Label_011DF25F
//  #08 //010   ----------------------------------------
Label_011DF26C:
 BYTE   N12  Fs1  v100
 BYTE   W84
 BYTE   N10  Dn1
 BYTE   W12
 BYTE   PEND 
//  #08 //011   ----------------------------------------
Label_011DF274:
 BYTE   N12  Fs1  v100
 BYTE   W84
 BYTE   N10
 BYTE   W12
 BYTE   PEND 
//  #08 //012   ----------------------------------------
Label_011DF27B:
 BYTE   N12  Gn1  v100
 BYTE   W84
 BYTE   N10  Dn1
 BYTE   W12
 BYTE   PEND 
//  #08 //013   ----------------------------------------
Label_011DF283:
 BYTE   N12  Gn1  v100
 BYTE   W84
 BYTE   N10
 BYTE   W12
 BYTE   PEND 
//  #08 //014   ----------------------------------------
Label_011DF28A:
 BYTE   N12  An1  v100
 BYTE   W84
 BYTE   N10  En1
 BYTE   W12
 BYTE   PEND 
//  #08 //015   ----------------------------------------
Label_011DF292:
 BYTE   N12  An1  v100
 BYTE   W84
 BYTE   N10
 BYTE   W12
 BYTE   PEND 
//  #08 //016   ----------------------------------------
 BYTE   PATT
  POIN2 Label_011DF27B
//  #08 //017   ----------------------------------------
 BYTE   PATT
  POIN2 Label_011DF283
//  #08 //018   ----------------------------------------
 BYTE   PATT
  POIN2 Label_011DF26C
//  #08 //019   ----------------------------------------
 BYTE   PATT
  POIN2 Label_011DF274
//  #08 //020   ----------------------------------------
Label_011DF2AD:
 BYTE   N12  En1  v100
 BYTE   W84
 BYTE   N10  Bn0
 BYTE   W12
 BYTE   PEND 
//  #08 //021   ----------------------------------------
Label_011DF2B5:
 BYTE   N12  En1  v100
 BYTE   W84
 BYTE   N10
 BYTE   W12
 BYTE   PEND 
//  #08 //022   ----------------------------------------
 BYTE   PATT
  POIN2 Label_011DF28A
//  #08 //023   ----------------------------------------
 BYTE   PATT
  POIN2 Label_011DF292
//  #08 //024   ----------------------------------------
 BYTE   PATT
  POIN2 Label_011DF25F
//  #08 //025   ----------------------------------------
 BYTE   PATT
  POIN2 Label_011DF25F
//  #08 //026   ----------------------------------------
 BYTE   PATT
  POIN2 Label_011DF26C
//  #08 //027   ----------------------------------------
 BYTE   PATT
  POIN2 Label_011DF274
//  #08 //028   ----------------------------------------
 BYTE   PATT
  POIN2 Label_011DF27B
//  #08 //029   ----------------------------------------
 BYTE   PATT
  POIN2 Label_011DF283
//  #08 //030   ----------------------------------------
 BYTE   PATT
  POIN2 Label_011DF28A
//  #08 //031   ----------------------------------------
 BYTE   PATT
  POIN2 Label_011DF292
//  #08 //032   ----------------------------------------
 BYTE   PATT
  POIN2 Label_011DF27B
//  #08 //033   ----------------------------------------
 BYTE   PATT
  POIN2 Label_011DF283
//  #08 //034   ----------------------------------------
 BYTE   PATT
  POIN2 Label_011DF274
//  #08 //035   ----------------------------------------
Label_011DF2FD:
 BYTE   N12  Bn1  v100
 BYTE   W84
 BYTE   N10  Fs1
 BYTE   W12
 BYTE   PEND 
//  #08 //036   ----------------------------------------
Label_011DF305:
 BYTE   N12  As1  v100
 BYTE   W84
 BYTE   N10  Fn1
 BYTE   W12
 BYTE   PEND 
//  #08 //037   ----------------------------------------
Label_011DF30D:
 BYTE   N12  As1  v100
 BYTE   W84
 BYTE   N10
 BYTE   W12
 BYTE   PEND 
//  #08 //038   ----------------------------------------
Label_011DF314:
 BYTE   N12  Cn2  v100
 BYTE   W84
 BYTE   N10  Gn1
 BYTE   W12
 BYTE   PEND 
//  #08 //039   ----------------------------------------
 BYTE   PATT
  POIN2 Label_011DF314
//  #08 //040   ----------------------------------------
 BYTE   W96
//  #08 //041   ----------------------------------------
 BYTE   W96
//  #08 //042   ----------------------------------------
 BYTE   W96
//  #08 //043   ----------------------------------------
 BYTE   W96
//  #08 //044   ----------------------------------------
 BYTE   W96
//  #08 //045   ----------------------------------------
 BYTE   W96
//  #08 //046   ----------------------------------------
 BYTE   W96
//  #08 //047   ----------------------------------------
 BYTE   W96
//  #08 //048   ----------------------------------------
 BYTE   PATT
  POIN2 Label_011DF25F
//  #08 //049   ----------------------------------------
 BYTE   PATT
  POIN2 Label_011DF25F
//  #08 //050   ----------------------------------------
Label_011DF333:
 BYTE   N12  Cs2  v100
 BYTE   W84
 BYTE   N10  An1
 BYTE   W12
 BYTE   PEND 
//  #08 //051   ----------------------------------------
 BYTE   PATT
  POIN2 Label_011DF333
//  #08 //052   ----------------------------------------
 BYTE   PATT
  POIN2 Label_011DF314
//  #08 //053   ----------------------------------------
 BYTE   PATT
  POIN2 Label_011DF314
//  #08 //054   ----------------------------------------
Label_011DF34A:
 BYTE   N12  Bn1  v100
 BYTE   W84
 BYTE   N10  Gn1
 BYTE   W12
 BYTE   PEND 
//  #08 //055   ----------------------------------------
Label_011DF352:
 BYTE   N12  Bn1  v100
 BYTE   W84
 BYTE   N10
 BYTE   W12
 BYTE   PEND 
//  #08 //056   ----------------------------------------
 BYTE   PATT
  POIN2 Label_011DF27B
//  #08 //057   ----------------------------------------
 BYTE   PATT
  POIN2 Label_011DF27B
//  #08 //058   ----------------------------------------
 BYTE   PATT
  POIN2 Label_011DF274
//  #08 //059   ----------------------------------------
Label_011DF368:
 BYTE   N12  Bn0  v100
 BYTE   W84
 BYTE   N10  Fs1
 BYTE   W12
 BYTE   PEND 
//  #08 //060   ----------------------------------------
 BYTE   PATT
  POIN2 Label_011DF2AD
//  #08 //061   ----------------------------------------
 BYTE   PATT
  POIN2 Label_011DF2B5
//  #08 //062   ----------------------------------------
 BYTE   PATT
  POIN2 Label_011DF28A
//  #08 //063   ----------------------------------------
 BYTE   PATT
  POIN2 Label_011DF292
//  #08 //064   ----------------------------------------
 BYTE   PATT
  POIN2 Label_011DF25F
//  #08 //065   ----------------------------------------
 BYTE   PATT
  POIN2 Label_011DF25F
//  #08 //066   ----------------------------------------
 BYTE   PATT
  POIN2 Label_011DF333
//  #08 //067   ----------------------------------------
 BYTE   PATT
  POIN2 Label_011DF333
//  #08 //068   ----------------------------------------
 BYTE   PATT
  POIN2 Label_011DF314
//  #08 //069   ----------------------------------------
 BYTE   PATT
  POIN2 Label_011DF314
//  #08 //070   ----------------------------------------
 BYTE   PATT
  POIN2 Label_011DF34A
//  #08 //071   ----------------------------------------
 BYTE   PATT
  POIN2 Label_011DF352
//  #08 //072   ----------------------------------------
 BYTE   PATT
  POIN2 Label_011DF27B
//  #08 //073   ----------------------------------------
 BYTE   PATT
  POIN2 Label_011DF27B
//  #08 //074   ----------------------------------------
 BYTE   PATT
  POIN2 Label_011DF26C
//  #08 //075   ----------------------------------------
 BYTE   PATT
  POIN2 Label_011DF2FD
//  #08 //076   ----------------------------------------
 BYTE   PATT
  POIN2 Label_011DF305
//  #08 //077   ----------------------------------------
 BYTE   PATT
  POIN2 Label_011DF30D
//  #08 //078   ----------------------------------------
 BYTE   PATT
  POIN2 Label_011DF314
//  #08 //079   ----------------------------------------
 BYTE   PATT
  POIN2 Label_011DF314
//  #08 //080   ----------------------------------------
 BYTE   W96
//  #08 //081   ----------------------------------------
 BYTE   W96
//  #08 //082   ----------------------------------------
 BYTE   W96
//  #08 //083   ----------------------------------------
 BYTE   W96
//  #08 //084   ----------------------------------------
 BYTE   W96
//  #08 //085   ----------------------------------------
 BYTE   W96
//  #08 //086   ----------------------------------------
 BYTE   W96
//  #08 //087   ----------------------------------------
 BYTE   W96
//  #08 //088   ----------------------------------------
 BYTE   PATT
  POIN2 Label_011DF25F
//  #08 //089   ----------------------------------------
 BYTE   PATT
  POIN2 Label_011DF25F
//  #08 //090   ----------------------------------------
 BYTE   PATT
  POIN2 Label_011DF26C
//  #08 //091   ----------------------------------------
 BYTE   PATT
  POIN2 Label_011DF274
//  #08 //092   ----------------------------------------
 BYTE   PATT
  POIN2 Label_011DF27B
//  #08 //093   ----------------------------------------
 BYTE   PATT
  POIN2 Label_011DF283
//  #08 //094   ----------------------------------------
 BYTE   PATT
  POIN2 Label_011DF28A
//  #08 //095   ----------------------------------------
 BYTE   PATT
  POIN2 Label_011DF292
//  #08 //096   ----------------------------------------
 BYTE   PATT
  POIN2 Label_011DF27B
//  #08 //097   ----------------------------------------
 BYTE   PATT
  POIN2 Label_011DF283
//  #08 //098   ----------------------------------------
 BYTE   PATT
  POIN2 Label_011DF26C
//  #08 //099   ----------------------------------------
 BYTE   PATT
  POIN2 Label_011DF274
//  #08 //100   ----------------------------------------
 BYTE   PATT
  POIN2 Label_011DF2AD
//  #08 //101   ----------------------------------------
 BYTE   PATT
  POIN2 Label_011DF2B5
//  #08 //102   ----------------------------------------
 BYTE   PATT
  POIN2 Label_011DF28A
//  #08 //103   ----------------------------------------
 BYTE   PATT
  POIN2 Label_011DF292
//  #08 //104   ----------------------------------------
 BYTE   PATT
  POIN2 Label_011DF25F
//  #08 //105   ----------------------------------------
 BYTE   PATT
  POIN2 Label_011DF25F
//  #08 //106   ----------------------------------------
 BYTE   PATT
  POIN2 Label_011DF26C
//  #08 //107   ----------------------------------------
 BYTE   PATT
  POIN2 Label_011DF274
//  #08 //108   ----------------------------------------
 BYTE   PATT
  POIN2 Label_011DF27B
//  #08 //109   ----------------------------------------
 BYTE   PATT
  POIN2 Label_011DF283
//  #08 //110   ----------------------------------------
 BYTE   PATT
  POIN2 Label_011DF28A
//  #08 //111   ----------------------------------------
 BYTE   PATT
  POIN2 Label_011DF292
//  #08 //112   ----------------------------------------
 BYTE   PATT
  POIN2 Label_011DF27B
//  #08 //113   ----------------------------------------
 BYTE   PATT
  POIN2 Label_011DF283
//  #08 //114   ----------------------------------------
 BYTE   PATT
  POIN2 Label_011DF274
//  #08 //115   ----------------------------------------
 BYTE   PATT
  POIN2 Label_011DF2FD
//  #08 //116   ----------------------------------------
 BYTE   PATT
  POIN2 Label_011DF305
//  #08 //117   ----------------------------------------
 BYTE   PATT
  POIN2 Label_011DF30D
//  #08 //118   ----------------------------------------
 BYTE   PATT
  POIN2 Label_011DF314
//  #08 //119   ----------------------------------------
 BYTE   PATT
  POIN2 Label_011DF314
//  #08 //120   ----------------------------------------
 BYTE   W96
//  #08 //121   ----------------------------------------
 BYTE   W96
//  #08 //122   ----------------------------------------
 BYTE   W96
//  #08 //123   ----------------------------------------
 BYTE   W96
//  #08 //124   ----------------------------------------
 BYTE   W96
//  #08 //125   ----------------------------------------
 BYTE   W96
//  #08 //126   ----------------------------------------
 BYTE   W96
//  #08 //127   ----------------------------------------
 BYTE   W96
//  #08 //128   ----------------------------------------
 BYTE   PATT
  POIN2 Label_011DF25F
//  #08 //129   ----------------------------------------
 BYTE   PATT
  POIN2 Label_011DF25F
//  #08 //130   ----------------------------------------
 BYTE   PATT
  POIN2 Label_011DF333
//  #08 //131   ----------------------------------------
 BYTE   PATT
  POIN2 Label_011DF333
//  #08 //132   ----------------------------------------
 BYTE   PATT
  POIN2 Label_011DF314
//  #08 //133   ----------------------------------------
 BYTE   PATT
  POIN2 Label_011DF314
//  #08 //134   ----------------------------------------
 BYTE   PATT
  POIN2 Label_011DF34A
//  #08 //135   ----------------------------------------
 BYTE   PATT
  POIN2 Label_011DF352
//  #08 //136   ----------------------------------------
 BYTE   PATT
  POIN2 Label_011DF27B
//  #08 //137   ----------------------------------------
 BYTE   PATT
  POIN2 Label_011DF27B
//  #08 //138   ----------------------------------------
 BYTE   PATT
  POIN2 Label_011DF274
//  #08 //139   ----------------------------------------
 BYTE   PATT
  POIN2 Label_011DF368
//  #08 //140   ----------------------------------------
 BYTE   PATT
  POIN2 Label_011DF2AD
//  #08 //141   ----------------------------------------
 BYTE   PATT
  POIN2 Label_011DF2B5
//  #08 //142   ----------------------------------------
 BYTE   PATT
  POIN2 Label_011DF28A
//  #08 //143   ----------------------------------------
 BYTE   PATT
  POIN2 Label_011DF292
//  #08 //144   ----------------------------------------
 BYTE   PATT
  POIN2 Label_011DF25F
//  #08 //145   ----------------------------------------
 BYTE   PATT
  POIN2 Label_011DF25F
//  #08 //146   ----------------------------------------
 BYTE   PATT
  POIN2 Label_011DF333
//  #08 //147   ----------------------------------------
 BYTE   PATT
  POIN2 Label_011DF333
//  #08 //148   ----------------------------------------
 BYTE   PATT
  POIN2 Label_011DF314
//  #08 //149   ----------------------------------------
 BYTE   PATT
  POIN2 Label_011DF314
//  #08 //150   ----------------------------------------
 BYTE   PATT
  POIN2 Label_011DF34A
//  #08 //151   ----------------------------------------
 BYTE   PATT
  POIN2 Label_011DF352
//  #08 //152   ----------------------------------------
 BYTE   PATT
  POIN2 Label_011DF27B
//  #08 //153   ----------------------------------------
 BYTE   PATT
  POIN2 Label_011DF27B
//  #08 //154   ----------------------------------------
 BYTE   PATT
  POIN2 Label_011DF26C
//  #08 //155   ----------------------------------------
 BYTE   PATT
  POIN2 Label_011DF2FD
//  #08 //156   ----------------------------------------
 BYTE   PATT
  POIN2 Label_011DF305
//  #08 //157   ----------------------------------------
 BYTE   PATT
  POIN2 Label_011DF30D
//  #08 //158   ----------------------------------------
 BYTE   PATT
  POIN2 Label_011DF314
//  #08 //159   ----------------------------------------
 BYTE   PATT
  POIN2 Label_011DF314
//  #08 //160   ----------------------------------------
 BYTE   W96
//  #08 //161   ----------------------------------------
 BYTE   W96
//  #08 //162   ----------------------------------------
 BYTE   W96
//  #08 //163   ----------------------------------------
 BYTE   W96
//  #08 //164   ----------------------------------------
 BYTE   W96
//  #08 //165   ----------------------------------------
 BYTE   W96
//  #08 //166   ----------------------------------------
 BYTE   W96
//  #08 //167   ----------------------------------------
 BYTE   W96
//  #08 //168   ----------------------------------------
 BYTE   GoTo
  POIN2 Label_011DF252
 BYTE   FINE

//**************** Track 9 (Midi-Chn.8) ****************//

LoZWWGreatSea_009:
//  #09 //000   ----------------------------------------
 BYTE   KEYSH   LoZWWGreatSea_key+0
Label_011DEC36:
 BYTE   VOICE   48
 BYTE   VOL   60*LoZWWGreatSea_mvl/mxv
 BYTE   W24
 BYTE   W96
//  #09 //001   ----------------------------------------
 BYTE   W96
//  #09 //002   ----------------------------------------
 BYTE   W96
//  #09 //003   ----------------------------------------
 BYTE   W96
//  #09 //004   ----------------------------------------
 BYTE   W96
//  #09 //005   ----------------------------------------
 BYTE   W96
//  #09 //006   ----------------------------------------
 BYTE   W96
//  #09 //007   ----------------------------------------
 BYTE   W96
//  #09 //008   ----------------------------------------
 BYTE   W96
//  #09 //009   ----------------------------------------
 BYTE   W96
//  #09 //010   ----------------------------------------
 BYTE   W96
//  #09 //011   ----------------------------------------
 BYTE   W96
//  #09 //012   ----------------------------------------
 BYTE   W96
//  #09 //013   ----------------------------------------
 BYTE   W96
//  #09 //014   ----------------------------------------
 BYTE   W96
//  #09 //015   ----------------------------------------
 BYTE   W96
//  #09 //016   ----------------------------------------
 BYTE   W96
//  #09 //017   ----------------------------------------
 BYTE   W96
//  #09 //018   ----------------------------------------
 BYTE   W96
//  #09 //019   ----------------------------------------
 BYTE   W96
//  #09 //020   ----------------------------------------
 BYTE   W96
//  #09 //021   ----------------------------------------
 BYTE   W96
//  #09 //022   ----------------------------------------
 BYTE   W96
//  #09 //023   ----------------------------------------
 BYTE   W96
//  #09 //024   ----------------------------------------
 BYTE   W96
//  #09 //025   ----------------------------------------
Label_011DEC54:
 BYTE   N04  Fs3  v116
 BYTE   W18
 BYTE   N02  Dn3
 BYTE   W06
 BYTE   TIE  An2
 BYTE   W36
 BYTE   VOL   56*LoZWWGreatSea_mvl/mxv
 BYTE   W12
 BYTE   VOL   53*LoZWWGreatSea_mvl/mxv
 BYTE   W12
 BYTE   VOL   49*LoZWWGreatSea_mvl/mxv
 BYTE   W12
 BYTE   PEND 
//  #09 //026   ----------------------------------------
Label_011DEC66:
 BYTE   VOL   46*LoZWWGreatSea_mvl/mxv
 BYTE   W06
 BYTE   VOL   41*LoZWWGreatSea_mvl/mxv
 BYTE   W06
 BYTE   VOL   36*LoZWWGreatSea_mvl/mxv
 BYTE   W06
 BYTE   VOL   30*LoZWWGreatSea_mvl/mxv
 BYTE   W06
 BYTE   VOL   24*LoZWWGreatSea_mvl/mxv
 BYTE   W06
 BYTE   VOL   11*LoZWWGreatSea_mvl/mxv
 BYTE   W06
 BYTE   VOL   5*LoZWWGreatSea_mvl/mxv
 BYTE   W06
 BYTE   VOL   0*LoZWWGreatSea_mvl/mxv
 BYTE   W06
 BYTE   VOL   0*LoZWWGreatSea_mvl/mxv
 BYTE   W12
 BYTE   PEND 
 BYTE   EOT
 BYTE   An2
 BYTE   W12
 BYTE   VOL   60*LoZWWGreatSea_mvl/mxv
 BYTE   W24
//  #09 //027   ----------------------------------------
 BYTE   W96
//  #09 //028   ----------------------------------------
Label_011DEC81:
 BYTE   W72
 BYTE   N08  An3  v116
 BYTE   W12
 BYTE   N02  Gn3
 BYTE   W06
 BYTE   Fs3
 BYTE   W06
 BYTE   PEND 
//  #09 //029   ----------------------------------------
Label_011DEC8C:
 BYTE   TIE  Gn3  v116
 BYTE   W48
 BYTE   VOL   56*LoZWWGreatSea_mvl/mxv
 BYTE   W12
 BYTE   VOL   50*LoZWWGreatSea_mvl/mxv
 BYTE   W12
 BYTE   VOL   44*LoZWWGreatSea_mvl/mxv
 BYTE   W12
 BYTE   VOL   37*LoZWWGreatSea_mvl/mxv
 BYTE   W06
 BYTE   VOL   31*LoZWWGreatSea_mvl/mxv
 BYTE   W06
 BYTE   PEND 
//  #09 //030   ----------------------------------------
Label_011DEC9C:
 BYTE   VOL   25*LoZWWGreatSea_mvl/mxv
 BYTE   W06
 BYTE   VOL   19*LoZWWGreatSea_mvl/mxv
 BYTE   W06
 BYTE   VOL   12*LoZWWGreatSea_mvl/mxv
 BYTE   W06
 BYTE   VOL   0*LoZWWGreatSea_mvl/mxv
 BYTE   W06
 BYTE   VOL   0*LoZWWGreatSea_mvl/mxv
 BYTE   W06
 BYTE   VOL   0*LoZWWGreatSea_mvl/mxv
 BYTE   W06
 BYTE   VOL   0*LoZWWGreatSea_mvl/mxv
 BYTE   W12
 BYTE   PEND 
 BYTE   EOT
 BYTE   Gn3
 BYTE   W24
 BYTE   VOL   60*LoZWWGreatSea_mvl/mxv
 BYTE   W24
//  #09 //031   ----------------------------------------
 BYTE   W96
//  #09 //032   ----------------------------------------
 BYTE   W96
//  #09 //033   ----------------------------------------
Label_011DECB4:
 BYTE   N06  Bn2  v104
 BYTE   W12
 BYTE   N03
 BYTE   W06
 BYTE   Cs3
 BYTE   W06
 BYTE   TIE  Dn3
 BYTE   W72
 BYTE   PEND 
//  #09 //034   ----------------------------------------
 BYTE   W68
 BYTE   EOT
 BYTE   W04
 BYTE   N23  En3
 BYTE   W24
//  #09 //035   ----------------------------------------
 BYTE   N92  Dn3
 BYTE   W96
//  #09 //036   ----------------------------------------
 BYTE   N96  As2
 BYTE   W96
//  #09 //037   ----------------------------------------
Label_011DECCC:
 BYTE   N06  As2  v104
 BYTE   W12
 BYTE   N03
 BYTE   W06
 BYTE   Cn3
 BYTE   W06
 BYTE   N72  Dn3
 BYTE   W72
 BYTE   PEND 
//  #09 //038   ----------------------------------------
 BYTE   PATT
  POIN2 Label_011DECCC
//  #09 //039   ----------------------------------------
 BYTE   N96  En3  v104
 BYTE   W96
//  #09 //040   ----------------------------------------
 BYTE   W96
//  #09 //041   ----------------------------------------
 BYTE   W96
//  #09 //042   ----------------------------------------
 BYTE   W96
//  #09 //043   ----------------------------------------
 BYTE   W96
//  #09 //044   ----------------------------------------
 BYTE   W96
//  #09 //045   ----------------------------------------
 BYTE   W96
//  #09 //046   ----------------------------------------
 BYTE   W96
//  #09 //047   ----------------------------------------
 BYTE   W96
//  #09 //048   ----------------------------------------
Label_011DECE9:
 BYTE   N04  Fs3  v124
 BYTE   W18
 BYTE   N03  Dn3
 BYTE   W06
 BYTE   TIE  An2
 BYTE   W72
 BYTE   PEND 
//  #09 //049   ----------------------------------------
 BYTE   W66
 BYTE   EOT
 BYTE   W06
 BYTE   N10  Dn3
 BYTE   W12
 BYTE   N08  Fs3
 BYTE   W12
//  #09 //050   ----------------------------------------
Label_011DECFD:
 BYTE   N11  Fs3  v124
 BYTE   W12
 BYTE   N04  En3
 BYTE   W06
 BYTE   Ds3
 BYTE   W06
 BYTE   TIE  En3
 BYTE   W72
 BYTE   PEND 
//  #09 //051   ----------------------------------------
 BYTE   W68
 BYTE   W03
 BYTE   EOT
 BYTE   W13
 BYTE   N09  Dn3
 BYTE   W12
//  #09 //052   ----------------------------------------
Label_011DED11:
 BYTE   N10  Fs3  v124
 BYTE   W12
 BYTE   N04  En3
 BYTE   W06
 BYTE   Dn3
 BYTE   W06
 BYTE   TIE  An2
 BYTE   W72
 BYTE   PEND 
//  #09 //053   ----------------------------------------
 BYTE   W54
 BYTE   W01
 BYTE   EOT
 BYTE   W05
 BYTE   N06  Dn3
 BYTE   W12
 BYTE   N06
 BYTE   W06
 BYTE   N04  En3
 BYTE   W06
 BYTE   Fs3
 BYTE   W06
 BYTE   Gn3
 BYTE   W06
//  #09 //054   ----------------------------------------
Label_011DED2E:
 BYTE   N32  An3  v124
 BYTE   W36
 BYTE   N05  Gn3
 BYTE   W06
 BYTE   Fs3
 BYTE   W06
 BYTE   TIE  Gn3
 BYTE   W48
 BYTE   PEND 
//  #09 //055   ----------------------------------------
 BYTE   W80
 BYTE   W02
 BYTE   EOT
 BYTE   W14
//  #09 //056   ----------------------------------------
Label_011DED3F:
 BYTE   N04  Bn3  v124
 BYTE   W18
 BYTE   N03  Gn3
 BYTE   W06
 BYTE   TIE  Dn3
 BYTE   W72
 BYTE   PEND 
//  #09 //057   ----------------------------------------
 BYTE   W66
 BYTE   EOT
 BYTE   W06
 BYTE   N10  Gn3
 BYTE   W12
 BYTE   N08  Bn3
 BYTE   W12
//  #09 //058   ----------------------------------------
Label_011DED53:
 BYTE   N11  Bn3  v124
 BYTE   W12
 BYTE   N04  An3
 BYTE   W06
 BYTE   Gs3
 BYTE   W06
 BYTE   N56  An3
 BYTE   W60
 BYTE   N12  Fs3
 BYTE   W12
 BYTE   PEND 
//  #09 //059   ----------------------------------------
 BYTE   N84  Dn3
 BYTE   W96
//  #09 //060   ----------------------------------------
Label_011DED66:
 BYTE   N10  Dn3  v124
 BYTE   W12
 BYTE   N04
 BYTE   W06
 BYTE   En3
 BYTE   W06
 BYTE   TIE  Fs3
 BYTE   W72
 BYTE   PEND 
//  #09 //061   ----------------------------------------
 BYTE   W88
 BYTE   W01
 BYTE   EOT
 BYTE   W07
//  #09 //062   ----------------------------------------
Label_011DED76:
 BYTE   N10  Dn3  v124
 BYTE   W12
 BYTE   N04
 BYTE   W06
 BYTE   En3
 BYTE   W06
 BYTE   N68  Fs3
 BYTE   W72
 BYTE   PEND 
//  #09 //063   ----------------------------------------
 BYTE   N96  En3
 BYTE   W96
//  #09 //064   ----------------------------------------
 BYTE   PATT
  POIN2 Label_011DECE9
//  #09 //065   ----------------------------------------
 BYTE   W66
 BYTE   EOT
 BYTE   An2
 BYTE   W06
 BYTE   N10  Dn3  v124
 BYTE   W12
 BYTE   N08  Fs3
 BYTE   W12
//  #09 //066   ----------------------------------------
 BYTE   PATT
  POIN2 Label_011DECFD
//  #09 //067   ----------------------------------------
 BYTE   W68
 BYTE   W03
 BYTE   EOT
 BYTE   En3
 BYTE   W13
 BYTE   N09  Dn3  v124
 BYTE   W12
//  #09 //068   ----------------------------------------
 BYTE   PATT
  POIN2 Label_011DED11
//  #09 //069   ----------------------------------------
 BYTE   W54
 BYTE   W01
 BYTE   EOT
 BYTE   An2
 BYTE   W05
 BYTE   N06  Dn3  v124
 BYTE   W12
 BYTE   N06
 BYTE   W06
 BYTE   N04  En3
 BYTE   W06
 BYTE   Fs3
 BYTE   W06
 BYTE   Gn3
 BYTE   W06
//  #09 //070   ----------------------------------------
 BYTE   PATT
  POIN2 Label_011DED2E
//  #09 //071   ----------------------------------------
 BYTE   W80
 BYTE   W02
 BYTE   EOT
 BYTE   Gn3
 BYTE   W14
//  #09 //072   ----------------------------------------
 BYTE   PATT
  POIN2 Label_011DED3F
//  #09 //073   ----------------------------------------
 BYTE   W66
 BYTE   EOT
 BYTE   Dn3
 BYTE   W06
 BYTE   N10  Gn3  v124
 BYTE   W12
 BYTE   N08  Bn3
 BYTE   W12
//  #09 //074   ----------------------------------------
Label_011DEDD4:
 BYTE   N11  Bn3  v124
 BYTE   W12
 BYTE   N04  An3
 BYTE   W06
 BYTE   Gs3
 BYTE   W06
 BYTE   N56  An3
 BYTE   W60
 BYTE   N08  Dn4
 BYTE   W12
 BYTE   PEND 
//  #09 //075   ----------------------------------------
 BYTE   N84  Dn3
 BYTE   W96
//  #09 //076   ----------------------------------------
Label_011DEDE7:
 BYTE   N10  Dn3  v124
 BYTE   W12
 BYTE   N04
 BYTE   W06
 BYTE   En3
 BYTE   W06
 BYTE   TIE  Fn3
 BYTE   W72
 BYTE   PEND 
//  #09 //077   ----------------------------------------
 BYTE   W88
 BYTE   W01
 BYTE   EOT
 BYTE   W07
//  #09 //078   ----------------------------------------
Label_011DEDF7:
 BYTE   N10  Dn3  v124
 BYTE   W12
 BYTE   N04
 BYTE   W06
 BYTE   En3
 BYTE   W06
 BYTE   N68  Fn3
 BYTE   W72
 BYTE   PEND 
//  #09 //079   ----------------------------------------
 BYTE   N96  Gn3
 BYTE   W96
//  #09 //080   ----------------------------------------
 BYTE   W96
//  #09 //081   ----------------------------------------
 BYTE   W96
//  #09 //082   ----------------------------------------
 BYTE   W96
//  #09 //083   ----------------------------------------
 BYTE   W96
//  #09 //084   ----------------------------------------
 BYTE   W96
//  #09 //085   ----------------------------------------
 BYTE   W96
//  #09 //086   ----------------------------------------
 BYTE   W96
//  #09 //087   ----------------------------------------
 BYTE   W96
//  #09 //088   ----------------------------------------
 BYTE   W96
//  #09 //089   ----------------------------------------
 BYTE   W96
//  #09 //090   ----------------------------------------
 BYTE   W96
//  #09 //091   ----------------------------------------
 BYTE   W96
//  #09 //092   ----------------------------------------
 BYTE   W96
//  #09 //093   ----------------------------------------
 BYTE   W96
//  #09 //094   ----------------------------------------
 BYTE   W96
//  #09 //095   ----------------------------------------
 BYTE   W96
//  #09 //096   ----------------------------------------
 BYTE   W96
//  #09 //097   ----------------------------------------
 BYTE   W96
//  #09 //098   ----------------------------------------
 BYTE   W96
//  #09 //099   ----------------------------------------
 BYTE   W96
//  #09 //100   ----------------------------------------
 BYTE   W96
//  #09 //101   ----------------------------------------
 BYTE   W96
//  #09 //102   ----------------------------------------
 BYTE   W96
//  #09 //103   ----------------------------------------
 BYTE   W96
//  #09 //104   ----------------------------------------
 BYTE   W96
//  #09 //105   ----------------------------------------
 BYTE   PATT
  POIN2 Label_011DEC54
//  #09 //106   ----------------------------------------
 BYTE   PATT
  POIN2 Label_011DEC66
//  #09 //107   ----------------------------------------
 BYTE   EOT
 BYTE   An2
 BYTE   W12
 BYTE   VOL   60*LoZWWGreatSea_mvl/mxv
 BYTE   W24
 BYTE   W96
//  #09 //108   ----------------------------------------
 BYTE   PATT
  POIN2 Label_011DEC81
//  #09 //109   ----------------------------------------
 BYTE   PATT
  POIN2 Label_011DEC8C
//  #09 //110   ----------------------------------------
 BYTE   PATT
  POIN2 Label_011DEC9C
//  #09 //111   ----------------------------------------
 BYTE   EOT
 BYTE   Gn3
 BYTE   W24
 BYTE   VOL   60*LoZWWGreatSea_mvl/mxv
 BYTE   W24
 BYTE   W96
//  #09 //112   ----------------------------------------
 BYTE   W96
//  #09 //113   ----------------------------------------
 BYTE   PATT
  POIN2 Label_011DECB4
//  #09 //114   ----------------------------------------
 BYTE   W68
 BYTE   EOT
 BYTE   Dn3
 BYTE   W04
 BYTE   N23  En3  v104
 BYTE   W24
//  #09 //115   ----------------------------------------
 BYTE   N92  Dn3
 BYTE   W96
//  #09 //116   ----------------------------------------
 BYTE   N96  As2
 BYTE   W96
//  #09 //117   ----------------------------------------
 BYTE   PATT
  POIN2 Label_011DECCC
//  #09 //118   ----------------------------------------
 BYTE   PATT
  POIN2 Label_011DECCC
//  #09 //119   ----------------------------------------
 BYTE   N96  En3  v104
 BYTE   W96
//  #09 //120   ----------------------------------------
 BYTE   W96
//  #09 //121   ----------------------------------------
 BYTE   W96
//  #09 //122   ----------------------------------------
 BYTE   W96
//  #09 //123   ----------------------------------------
 BYTE   W96
//  #09 //124   ----------------------------------------
 BYTE   W96
//  #09 //125   ----------------------------------------
 BYTE   W96
//  #09 //126   ----------------------------------------
 BYTE   W96
//  #09 //127   ----------------------------------------
 BYTE   W96
//  #09 //128   ----------------------------------------
 BYTE   PATT
  POIN2 Label_011DECE9
//  #09 //129   ----------------------------------------
 BYTE   W66
 BYTE   EOT
 BYTE   An2
 BYTE   W06
 BYTE   N10  Dn3  v124
 BYTE   W12
 BYTE   N08  Fs3
 BYTE   W12
//  #09 //130   ----------------------------------------
 BYTE   PATT
  POIN2 Label_011DECFD
//  #09 //131   ----------------------------------------
 BYTE   W68
 BYTE   W03
 BYTE   EOT
 BYTE   En3
 BYTE   W13
 BYTE   N09  Dn3  v124
 BYTE   W12
//  #09 //132   ----------------------------------------
 BYTE   PATT
  POIN2 Label_011DED11
//  #09 //133   ----------------------------------------
 BYTE   W54
 BYTE   W01
 BYTE   EOT
 BYTE   An2
 BYTE   W05
 BYTE   N06  Dn3  v124
 BYTE   W12
 BYTE   N06
 BYTE   W06
 BYTE   N04  En3
 BYTE   W06
 BYTE   Fs3
 BYTE   W06
 BYTE   Gn3
 BYTE   W06
//  #09 //134   ----------------------------------------
 BYTE   PATT
  POIN2 Label_011DED2E
//  #09 //135   ----------------------------------------
 BYTE   W80
 BYTE   W02
 BYTE   EOT
 BYTE   Gn3
 BYTE   W14
//  #09 //136   ----------------------------------------
 BYTE   PATT
  POIN2 Label_011DED3F
//  #09 //137   ----------------------------------------
 BYTE   W66
 BYTE   EOT
 BYTE   Dn3
 BYTE   W06
 BYTE   N10  Gn3  v124
 BYTE   W12
 BYTE   N08  Bn3
 BYTE   W12
//  #09 //138   ----------------------------------------
 BYTE   PATT
  POIN2 Label_011DED53
//  #09 //139   ----------------------------------------
 BYTE   N84  Dn3  v124
 BYTE   W96
//  #09 //140   ----------------------------------------
 BYTE   PATT
  POIN2 Label_011DED66
//  #09 //141   ----------------------------------------
 BYTE   W88
 BYTE   W01
 BYTE   EOT
 BYTE   Fs3
 BYTE   W07
//  #09 //142   ----------------------------------------
 BYTE   PATT
  POIN2 Label_011DED76
//  #09 //143   ----------------------------------------
 BYTE   N96  En3  v124
 BYTE   W96
//  #09 //144   ----------------------------------------
 BYTE   PATT
  POIN2 Label_011DECE9
//  #09 //145   ----------------------------------------
 BYTE   W66
 BYTE   EOT
 BYTE   An2
 BYTE   W06
 BYTE   N10  Dn3  v124
 BYTE   W12
 BYTE   N08  Fs3
 BYTE   W12
//  #09 //146   ----------------------------------------
 BYTE   PATT
  POIN2 Label_011DECFD
//  #09 //147   ----------------------------------------
 BYTE   W68
 BYTE   W03
 BYTE   EOT
 BYTE   En3
 BYTE   W13
 BYTE   N09  Dn3  v124
 BYTE   W12
//  #09 //148   ----------------------------------------
 BYTE   PATT
  POIN2 Label_011DED11
//  #09 //149   ----------------------------------------
 BYTE   W54
 BYTE   W01
 BYTE   EOT
 BYTE   An2
 BYTE   W05
 BYTE   N06  Dn3  v124
 BYTE   W12
 BYTE   N06
 BYTE   W06
 BYTE   N04  En3
 BYTE   W06
 BYTE   Fs3
 BYTE   W06
 BYTE   Gn3
 BYTE   W06
//  #09 //150   ----------------------------------------
 BYTE   PATT
  POIN2 Label_011DED2E
//  #09 //151   ----------------------------------------
 BYTE   W80
 BYTE   W02
 BYTE   EOT
 BYTE   Gn3
 BYTE   W14
//  #09 //152   ----------------------------------------
 BYTE   PATT
  POIN2 Label_011DED3F
//  #09 //153   ----------------------------------------
 BYTE   W66
 BYTE   EOT
 BYTE   Dn3
 BYTE   W06
 BYTE   N10  Gn3  v124
 BYTE   W12
 BYTE   N08  Bn3
 BYTE   W12
//  #09 //154   ----------------------------------------
 BYTE   PATT
  POIN2 Label_011DEDD4
//  #09 //155   ----------------------------------------
 BYTE   N84  Dn3  v124
 BYTE   W96
//  #09 //156   ----------------------------------------
 BYTE   PATT
  POIN2 Label_011DEDE7
//  #09 //157   ----------------------------------------
 BYTE   W88
 BYTE   W01
 BYTE   EOT
 BYTE   Fn3
 BYTE   W07
//  #09 //158   ----------------------------------------
 BYTE   PATT
  POIN2 Label_011DEDF7
//  #09 //159   ----------------------------------------
 BYTE   N96  Gn3  v124
 BYTE   W96
//  #09 //160   ----------------------------------------
 BYTE   W96
//  #09 //161   ----------------------------------------
 BYTE   W96
//  #09 //162   ----------------------------------------
 BYTE   W96
//  #09 //163   ----------------------------------------
 BYTE   W96
//  #09 //164   ----------------------------------------
 BYTE   W96
//  #09 //165   ----------------------------------------
 BYTE   W96
//  #09 //166   ----------------------------------------
 BYTE   W96
//  #09 //167   ----------------------------------------
 BYTE   W96
//  #09 //168   ----------------------------------------
 BYTE   GoTo
  POIN2 Label_011DEC36
 BYTE   FINE

//**************** Track 10 (Midi-Chn.9) ****************//

LoZWWGreatSea_010:
//  #10 //000   ----------------------------------------
 BYTE   KEYSH   LoZWWGreatSea_key+0
Label_010CD686:
 BYTE   VOICE   127
 BYTE   VOL   60*LoZWWGreatSea_mvl/mxv
 BYTE   W24
Label_010CD68B:
 BYTE   N72  Cn1  v092
 BYTE   N06  Dn1  v100
 BYTE   N96  Cs2
 BYTE   W24
 BYTE   N06  Dn1  v080
 BYTE   W12
 BYTE   Dn1  v100
 BYTE   W24
 BYTE   Dn1  v072
 BYTE   W12
//  #10 //001   ----------------------------------------
 BYTE   Dn1  v100
 BYTE   W06
 BYTE   Dn1  v080
 BYTE   W06
 BYTE   Dn1  v052
 BYTE   W06
 BYTE   Dn1  v100
 BYTE   W06
 BYTE   PEND 
Label_010CD6AB:
 BYTE   N72  Cn1  v092
 BYTE   N06  Dn1  v100
 BYTE   W24
 BYTE   Dn1  v080
 BYTE   W12
 BYTE   Dn1  v100
 BYTE   W24
 BYTE   Dn1  v072
 BYTE   W12
//  #10 //002   ----------------------------------------
 BYTE   Dn1  v100
 BYTE   W06
 BYTE   Dn1  v080
 BYTE   W06
 BYTE   Dn1  v052
 BYTE   W06
 BYTE   Dn1  v100
 BYTE   W06
 BYTE   PEND 
//  #10 //003   ----------------------------------------
 BYTE   PATT
  POIN2 Label_010CD6AB
//  #10 //004   ----------------------------------------
 BYTE   PATT
  POIN2 Label_010CD6AB
//  #10 //005   ----------------------------------------
 BYTE   PATT
  POIN2 Label_010CD6AB
//  #10 //006   ----------------------------------------
 BYTE   PATT
  POIN2 Label_010CD6AB
//  #10 //007   ----------------------------------------
 BYTE   PATT
  POIN2 Label_010CD6AB
//  #10 //008   ----------------------------------------
Label_010CD6E1:
 BYTE   N72  Cn1  v092
 BYTE   N06  Dn1  v100
 BYTE   W24
 BYTE   Dn1  v080
 BYTE   W12
 BYTE   Dn1  v100
 BYTE   W24
 BYTE   Dn1  v072
 BYTE   W12
 BYTE   Dn1  v100
 BYTE   W06
 BYTE   Dn1  v080
 BYTE   W06
 BYTE   Dn1  v092
 BYTE   W06
 BYTE   Dn1  v100
 BYTE   W06
 BYTE   PEND 
//  #10 //009   ----------------------------------------
Label_010CD6FE:
 BYTE   N72  Cn1  v080
 BYTE   N06  Dn1  v100
 BYTE   N96  Cs2  v092
 BYTE   W12
 BYTE   N06  Dn1  v072
 BYTE   W06
 BYTE   Dn1  v080
 BYTE   W06
 BYTE   Dn1  v092
 BYTE   W12
 BYTE   N03  Dn1  v100
 BYTE   W03
 BYTE   Dn1  v092
 BYTE   W03
 BYTE   Dn1  v080
 BYTE   W03
 BYTE   Dn1  v072
 BYTE   W03
 BYTE   Dn1  v060
 BYTE   W03
 BYTE   Dn1  v052
 BYTE   W03
 BYTE   Dn1  v040
 BYTE   W06
 BYTE   N06  Dn1  v092
 BYTE   W12
 BYTE   Dn1  v100
 BYTE   W12
 BYTE   Dn1  v068
 BYTE   W12
 BYTE   PEND 
//  #10 //010   ----------------------------------------
Label_010CD733:
 BYTE   N72  Cn1  v080
 BYTE   N06  Dn1  v100
 BYTE   W12
 BYTE   Dn1  v072
 BYTE   W06
 BYTE   Dn1  v080
 BYTE   W06
 BYTE   Dn1  v092
 BYTE   W12
 BYTE   N03  Dn1  v100
 BYTE   W03
 BYTE   Dn1  v092
 BYTE   W03
 BYTE   Dn1  v080
 BYTE   W03
 BYTE   Dn1  v072
 BYTE   W03
 BYTE   Dn1  v060
 BYTE   W03
 BYTE   Dn1  v052
 BYTE   W03
 BYTE   Dn1  v040
 BYTE   W06
 BYTE   N06  Dn1  v092
 BYTE   W12
 BYTE   Dn1  v100
 BYTE   W12
 BYTE   Dn1  v068
 BYTE   W12
 BYTE   PEND 
//  #10 //011   ----------------------------------------
 BYTE   PATT
  POIN2 Label_010CD733
//  #10 //012   ----------------------------------------
Label_010CD769:
 BYTE   N72  Cn1  v080
 BYTE   N06  Dn1  v100
 BYTE   W12
 BYTE   Dn1  v072
 BYTE   W06
 BYTE   Dn1  v080
 BYTE   W06
 BYTE   Dn1  v072
 BYTE   W06
 BYTE   Dn1  v084
 BYTE   W06
 BYTE   Dn1  v096
 BYTE   W12
 BYTE   Dn1  v072
 BYTE   W06
 BYTE   Dn1  v080
 BYTE   W06
 BYTE   Dn1  v092
 BYTE   W12
 BYTE   N03  Dn1  v100
 BYTE   W03
 BYTE   Dn1  v092
 BYTE   W03
 BYTE   Dn1  v080
 BYTE   W03
 BYTE   Dn1  v072
 BYTE   W03
 BYTE   Dn1  v060
 BYTE   W03
 BYTE   Dn1  v052
 BYTE   W03
 BYTE   Dn1  v040
 BYTE   W06
 BYTE   PEND 
//  #10 //013   ----------------------------------------
 BYTE   PATT
  POIN2 Label_010CD733
//  #10 //014   ----------------------------------------
 BYTE   PATT
  POIN2 Label_010CD733
//  #10 //015   ----------------------------------------
 BYTE   PATT
  POIN2 Label_010CD733
//  #10 //016   ----------------------------------------
Label_010CD7AE:
 BYTE   N72  Cn1  v080
 BYTE   N06  Dn1  v100
 BYTE   W12
 BYTE   Dn1  v072
 BYTE   W12
 BYTE   Dn1  v092
 BYTE   W06
 BYTE   Dn1  v068
 BYTE   W06
 BYTE   Dn1  v076
 BYTE   W06
 BYTE   Dn1  v088
 BYTE   W06
 BYTE   Dn1  v100
 BYTE   W06
 BYTE   Dn1  v068
 BYTE   W06
 BYTE   Dn1  v080
 BYTE   W06
 BYTE   Dn1  v092
 BYTE   W06
 BYTE   Dn1  v100
 BYTE   W12
 BYTE   Dn1  v080
 BYTE   W06
 BYTE   Dn1  v092
 BYTE   W06
 BYTE   PEND 
//  #10 //017   ----------------------------------------
 BYTE   PATT
  POIN2 Label_010CD6FE
//  #10 //018   ----------------------------------------
 BYTE   PATT
  POIN2 Label_010CD733
//  #10 //019   ----------------------------------------
 BYTE   PATT
  POIN2 Label_010CD733
//  #10 //020   ----------------------------------------
Label_010CD7E9:
 BYTE   N72  Cn1  v080
 BYTE   N06  Dn1  v100
 BYTE   W12
 BYTE   Dn1  v072
 BYTE   W06
 BYTE   Dn1  v080
 BYTE   W06
 BYTE   Dn1  v060
 BYTE   W06
 BYTE   Dn1  v076
 BYTE   W06
 BYTE   Dn1  v096
 BYTE   W12
 BYTE   Dn1  v072
 BYTE   W06
 BYTE   Dn1  v080
 BYTE   W06
 BYTE   Dn1  v092
 BYTE   W12
 BYTE   N03  Dn1  v100
 BYTE   W03
 BYTE   Dn1  v092
 BYTE   W03
 BYTE   Dn1  v080
 BYTE   W03
 BYTE   Dn1  v072
 BYTE   W03
 BYTE   Dn1  v060
 BYTE   W03
 BYTE   Dn1  v052
 BYTE   W03
 BYTE   Dn1  v040
 BYTE   W06
 BYTE   PEND 
//  #10 //021   ----------------------------------------
 BYTE   PATT
  POIN2 Label_010CD733
//  #10 //022   ----------------------------------------
 BYTE   PATT
  POIN2 Label_010CD733
//  #10 //023   ----------------------------------------
 BYTE   PATT
  POIN2 Label_010CD733
//  #10 //024   ----------------------------------------
Label_010CD82E:
 BYTE   N72  Cn1  v080
 BYTE   N06  Dn1  v100
 BYTE   W12
 BYTE   Dn1  v052
 BYTE   W06
 BYTE   Dn1  v080
 BYTE   W06
 BYTE   Dn1  v092
 BYTE   W12
 BYTE   Dn1  v068
 BYTE   W06
 BYTE   Dn1  v080
 BYTE   W06
 BYTE   N06
 BYTE   W06
 BYTE   Dn1  v056
 BYTE   W06
 BYTE   Dn1  v080
 BYTE   W06
 BYTE   Dn1  v092
 BYTE   W06
 BYTE   Dn1  v100
 BYTE   W12
 BYTE   Dn1  v080
 BYTE   W06
 BYTE   Dn1  v092
 BYTE   W06
 BYTE   PEND 
//  #10 //025   ----------------------------------------
 BYTE   PATT
  POIN2 Label_010CD6FE
//  #10 //026   ----------------------------------------
 BYTE   PATT
  POIN2 Label_010CD733
//  #10 //027   ----------------------------------------
 BYTE   PATT
  POIN2 Label_010CD733
//  #10 //028   ----------------------------------------
 BYTE   PATT
  POIN2 Label_010CD769
//  #10 //029   ----------------------------------------
 BYTE   PATT
  POIN2 Label_010CD733
//  #10 //030   ----------------------------------------
 BYTE   PATT
  POIN2 Label_010CD733
//  #10 //031   ----------------------------------------
 BYTE   PATT
  POIN2 Label_010CD733
//  #10 //032   ----------------------------------------
 BYTE   PATT
  POIN2 Label_010CD7AE
//  #10 //033   ----------------------------------------
 BYTE   PATT
  POIN2 Label_010CD6FE
//  #10 //034   ----------------------------------------
 BYTE   PATT
  POIN2 Label_010CD733
//  #10 //035   ----------------------------------------
 BYTE   PATT
  POIN2 Label_010CD733
//  #10 //036   ----------------------------------------
 BYTE   PATT
  POIN2 Label_010CD7E9
//  #10 //037   ----------------------------------------
 BYTE   PATT
  POIN2 Label_010CD733
//  #10 //038   ----------------------------------------
 BYTE   PATT
  POIN2 Label_010CD733
//  #10 //039   ----------------------------------------
 BYTE   PATT
  POIN2 Label_010CD733
//  #10 //040   ----------------------------------------
 BYTE   PATT
  POIN2 Label_010CD82E
//  #10 //041   ----------------------------------------
 BYTE   PATT
  POIN2 Label_010CD68B
//  #10 //042   ----------------------------------------
 BYTE   PATT
  POIN2 Label_010CD6AB
//  #10 //043   ----------------------------------------
 BYTE   PATT
  POIN2 Label_010CD6AB
//  #10 //044   ----------------------------------------
 BYTE   PATT
  POIN2 Label_010CD6AB
//  #10 //045   ----------------------------------------
 BYTE   PATT
  POIN2 Label_010CD6AB
//  #10 //046   ----------------------------------------
 BYTE   PATT
  POIN2 Label_010CD6AB
//  #10 //047   ----------------------------------------
 BYTE   PATT
  POIN2 Label_010CD6AB
//  #10 //048   ----------------------------------------
 BYTE   PATT
  POIN2 Label_010CD6E1
//  #10 //049   ----------------------------------------
 BYTE   PATT
  POIN2 Label_010CD6FE
//  #10 //050   ----------------------------------------
 BYTE   PATT
  POIN2 Label_010CD733
//  #10 //051   ----------------------------------------
 BYTE   PATT
  POIN2 Label_010CD733
//  #10 //052   ----------------------------------------
 BYTE   PATT
  POIN2 Label_010CD769
//  #10 //053   ----------------------------------------
 BYTE   PATT
  POIN2 Label_010CD733
//  #10 //054   ----------------------------------------
 BYTE   PATT
  POIN2 Label_010CD733
//  #10 //055   ----------------------------------------
 BYTE   PATT
  POIN2 Label_010CD733
//  #10 //056   ----------------------------------------
 BYTE   PATT
  POIN2 Label_010CD7AE
//  #10 //057   ----------------------------------------
 BYTE   PATT
  POIN2 Label_010CD6FE
//  #10 //058   ----------------------------------------
 BYTE   PATT
  POIN2 Label_010CD733
//  #10 //059   ----------------------------------------
 BYTE   PATT
  POIN2 Label_010CD733
//  #10 //060   ----------------------------------------
 BYTE   PATT
  POIN2 Label_010CD7E9
//  #10 //061   ----------------------------------------
 BYTE   PATT
  POIN2 Label_010CD733
//  #10 //062   ----------------------------------------
 BYTE   PATT
  POIN2 Label_010CD733
//  #10 //063   ----------------------------------------
 BYTE   PATT
  POIN2 Label_010CD733
//  #10 //064   ----------------------------------------
 BYTE   PATT
  POIN2 Label_010CD82E
//  #10 //065   ----------------------------------------
 BYTE   PATT
  POIN2 Label_010CD6FE
//  #10 //066   ----------------------------------------
 BYTE   PATT
  POIN2 Label_010CD733
//  #10 //067   ----------------------------------------
 BYTE   PATT
  POIN2 Label_010CD733
//  #10 //068   ----------------------------------------
 BYTE   PATT
  POIN2 Label_010CD769
//  #10 //069   ----------------------------------------
 BYTE   PATT
  POIN2 Label_010CD733
//  #10 //070   ----------------------------------------
 BYTE   PATT
  POIN2 Label_010CD733
//  #10 //071   ----------------------------------------
 BYTE   PATT
  POIN2 Label_010CD733
//  #10 //072   ----------------------------------------
 BYTE   PATT
  POIN2 Label_010CD7AE
//  #10 //073   ----------------------------------------
 BYTE   PATT
  POIN2 Label_010CD6FE
//  #10 //074   ----------------------------------------
 BYTE   PATT
  POIN2 Label_010CD733
//  #10 //075   ----------------------------------------
 BYTE   PATT
  POIN2 Label_010CD733
//  #10 //076   ----------------------------------------
 BYTE   PATT
  POIN2 Label_010CD7E9
//  #10 //077   ----------------------------------------
 BYTE   PATT
  POIN2 Label_010CD733
//  #10 //078   ----------------------------------------
 BYTE   PATT
  POIN2 Label_010CD733
//  #10 //079   ----------------------------------------
 BYTE   PATT
  POIN2 Label_010CD733
//  #10 //080   ----------------------------------------
 BYTE   PATT
  POIN2 Label_010CD82E
//  #10 //081   ----------------------------------------
 BYTE   PATT
  POIN2 Label_010CD68B
//  #10 //082   ----------------------------------------
 BYTE   PATT
  POIN2 Label_010CD6AB
//  #10 //083   ----------------------------------------
 BYTE   PATT
  POIN2 Label_010CD6AB
//  #10 //084   ----------------------------------------
 BYTE   PATT
  POIN2 Label_010CD6AB
//  #10 //085   ----------------------------------------
 BYTE   PATT
  POIN2 Label_010CD6AB
//  #10 //086   ----------------------------------------
 BYTE   PATT
  POIN2 Label_010CD6AB
//  #10 //087   ----------------------------------------
 BYTE   PATT
  POIN2 Label_010CD6AB
//  #10 //088   ----------------------------------------
 BYTE   PATT
  POIN2 Label_010CD6E1
//  #10 //089   ----------------------------------------
 BYTE   PATT
  POIN2 Label_010CD6FE
//  #10 //090   ----------------------------------------
 BYTE   PATT
  POIN2 Label_010CD733
//  #10 //091   ----------------------------------------
 BYTE   PATT
  POIN2 Label_010CD733
//  #10 //092   ----------------------------------------
 BYTE   PATT
  POIN2 Label_010CD769
//  #10 //093   ----------------------------------------
 BYTE   PATT
  POIN2 Label_010CD733
//  #10 //094   ----------------------------------------
 BYTE   PATT
  POIN2 Label_010CD733
//  #10 //095   ----------------------------------------
 BYTE   PATT
  POIN2 Label_010CD733
//  #10 //096   ----------------------------------------
 BYTE   PATT
  POIN2 Label_010CD7AE
//  #10 //097   ----------------------------------------
 BYTE   PATT
  POIN2 Label_010CD6FE
//  #10 //098   ----------------------------------------
 BYTE   PATT
  POIN2 Label_010CD733
//  #10 //099   ----------------------------------------
 BYTE   PATT
  POIN2 Label_010CD733
//  #10 //100   ----------------------------------------
 BYTE   PATT
  POIN2 Label_010CD7E9
//  #10 //101   ----------------------------------------
 BYTE   PATT
  POIN2 Label_010CD733
//  #10 //102   ----------------------------------------
 BYTE   PATT
  POIN2 Label_010CD733
//  #10 //103   ----------------------------------------
 BYTE   PATT
  POIN2 Label_010CD733
//  #10 //104   ----------------------------------------
 BYTE   PATT
  POIN2 Label_010CD82E
//  #10 //105   ----------------------------------------
 BYTE   PATT
  POIN2 Label_010CD6FE
//  #10 //106   ----------------------------------------
 BYTE   PATT
  POIN2 Label_010CD733
//  #10 //107   ----------------------------------------
 BYTE   PATT
  POIN2 Label_010CD733
//  #10 //108   ----------------------------------------
 BYTE   PATT
  POIN2 Label_010CD769
//  #10 //109   ----------------------------------------
 BYTE   PATT
  POIN2 Label_010CD733
//  #10 //110   ----------------------------------------
 BYTE   PATT
  POIN2 Label_010CD733
//  #10 //111   ----------------------------------------
 BYTE   PATT
  POIN2 Label_010CD733
//  #10 //112   ----------------------------------------
 BYTE   PATT
  POIN2 Label_010CD7AE
//  #10 //113   ----------------------------------------
 BYTE   PATT
  POIN2 Label_010CD6FE
//  #10 //114   ----------------------------------------
 BYTE   PATT
  POIN2 Label_010CD733
//  #10 //115   ----------------------------------------
 BYTE   PATT
  POIN2 Label_010CD733
//  #10 //116   ----------------------------------------
 BYTE   PATT
  POIN2 Label_010CD7E9
//  #10 //117   ----------------------------------------
 BYTE   PATT
  POIN2 Label_010CD733
//  #10 //118   ----------------------------------------
 BYTE   PATT
  POIN2 Label_010CD733
//  #10 //119   ----------------------------------------
 BYTE   PATT
  POIN2 Label_010CD733
//  #10 //120   ----------------------------------------
 BYTE   PATT
  POIN2 Label_010CD82E
//  #10 //121   ----------------------------------------
 BYTE   PATT
  POIN2 Label_010CD68B
//  #10 //122   ----------------------------------------
 BYTE   PATT
  POIN2 Label_010CD6AB
//  #10 //123   ----------------------------------------
 BYTE   PATT
  POIN2 Label_010CD6AB
//  #10 //124   ----------------------------------------
 BYTE   PATT
  POIN2 Label_010CD6AB
//  #10 //125   ----------------------------------------
 BYTE   PATT
  POIN2 Label_010CD6AB
//  #10 //126   ----------------------------------------
 BYTE   PATT
  POIN2 Label_010CD6AB
//  #10 //127   ----------------------------------------
 BYTE   PATT
  POIN2 Label_010CD6AB
//  #10 //128   ----------------------------------------
 BYTE   PATT
  POIN2 Label_010CD6E1
//  #10 //129   ----------------------------------------
 BYTE   PATT
  POIN2 Label_010CD6FE
//  #10 //130   ----------------------------------------
 BYTE   PATT
  POIN2 Label_010CD733
//  #10 //131   ----------------------------------------
 BYTE   PATT
  POIN2 Label_010CD733
//  #10 //132   ----------------------------------------
 BYTE   PATT
  POIN2 Label_010CD769
//  #10 //133   ----------------------------------------
 BYTE   PATT
  POIN2 Label_010CD733
//  #10 //134   ----------------------------------------
 BYTE   PATT
  POIN2 Label_010CD733
//  #10 //135   ----------------------------------------
 BYTE   PATT
  POIN2 Label_010CD733
//  #10 //136   ----------------------------------------
 BYTE   PATT
  POIN2 Label_010CD7AE
//  #10 //137   ----------------------------------------
 BYTE   PATT
  POIN2 Label_010CD6FE
//  #10 //138   ----------------------------------------
 BYTE   PATT
  POIN2 Label_010CD733
//  #10 //139   ----------------------------------------
 BYTE   PATT
  POIN2 Label_010CD733
//  #10 //140   ----------------------------------------
 BYTE   PATT
  POIN2 Label_010CD7E9
//  #10 //141   ----------------------------------------
 BYTE   PATT
  POIN2 Label_010CD733
//  #10 //142   ----------------------------------------
 BYTE   PATT
  POIN2 Label_010CD733
//  #10 //143   ----------------------------------------
 BYTE   PATT
  POIN2 Label_010CD733
//  #10 //144   ----------------------------------------
 BYTE   PATT
  POIN2 Label_010CD82E
//  #10 //145   ----------------------------------------
 BYTE   PATT
  POIN2 Label_010CD6FE
//  #10 //146   ----------------------------------------
 BYTE   PATT
  POIN2 Label_010CD733
//  #10 //147   ----------------------------------------
 BYTE   PATT
  POIN2 Label_010CD733
//  #10 //148   ----------------------------------------
 BYTE   PATT
  POIN2 Label_010CD769
//  #10 //149   ----------------------------------------
 BYTE   PATT
  POIN2 Label_010CD733
//  #10 //150   ----------------------------------------
 BYTE   PATT
  POIN2 Label_010CD733
//  #10 //151   ----------------------------------------
 BYTE   PATT
  POIN2 Label_010CD733
//  #10 //152   ----------------------------------------
 BYTE   PATT
  POIN2 Label_010CD7AE
//  #10 //153   ----------------------------------------
 BYTE   PATT
  POIN2 Label_010CD6FE
//  #10 //154   ----------------------------------------
 BYTE   PATT
  POIN2 Label_010CD733
//  #10 //155   ----------------------------------------
 BYTE   PATT
  POIN2 Label_010CD733
//  #10 //156   ----------------------------------------
 BYTE   PATT
  POIN2 Label_010CD7E9
//  #10 //157   ----------------------------------------
 BYTE   PATT
  POIN2 Label_010CD733
//  #10 //158   ----------------------------------------
 BYTE   PATT
  POIN2 Label_010CD733
//  #10 //159   ----------------------------------------
 BYTE   PATT
  POIN2 Label_010CD733
//  #10 //160   ----------------------------------------
 BYTE   PATT
  POIN2 Label_010CD82E
//  #10 //161   ----------------------------------------
 BYTE   PATT
  POIN2 Label_010CD68B
//  #10 //162   ----------------------------------------
 BYTE   PATT
  POIN2 Label_010CD6AB
//  #10 //163   ----------------------------------------
 BYTE   PATT
  POIN2 Label_010CD6AB
//  #10 //164   ----------------------------------------
 BYTE   PATT
  POIN2 Label_010CD6AB
//  #10 //165   ----------------------------------------
 BYTE   PATT
  POIN2 Label_010CD6AB
//  #10 //166   ----------------------------------------
 BYTE   PATT
  POIN2 Label_010CD6AB
//  #10 //167   ----------------------------------------
 BYTE   PATT
  POIN2 Label_010CD6AB
//  #10 //168   ----------------------------------------
 BYTE   PATT
  POIN2 Label_010CD6E1
//  #10 //169   ----------------------------------------
 BYTE   GoTo
  POIN2 Label_010CD686
 BYTE   FINE

//******************************************************//
	ALIGN 4

LoZWWGreatSea:
	BYTE	10	// NumTrks
	BYTE	0	// NumBlks
	BYTE	LoZWWGreatSea_pri	// Priority
	BYTE	LoZWWGreatSea_rev	// Reverb.
    
	POIN2	LoZWWGreatSea_grp
    
	POIN2	LoZWWGreatSea_001
	POIN2	LoZWWGreatSea_002
	POIN2	LoZWWGreatSea_003
	POIN2	LoZWWGreatSea_004
	POIN2	LoZWWGreatSea_005
	POIN2	LoZWWGreatSea_006
	POIN2	LoZWWGreatSea_007
	POIN2	LoZWWGreatSea_008
	POIN2	LoZWWGreatSea_009
	POIN2	LoZWWGreatSea_010

	
