//Event file generated from Sappy .s format.
	

	#define	LuigisMansionTheme_grp  voicegroup000
	#define	LuigisMansionTheme_pri  10
	#define	LuigisMansionTheme_rev  0
	#define	LuigisMansionTheme_mvl  127
	#define	LuigisMansionTheme_key  0
	#define	LuigisMansionTheme_tbs  1
	#define	LuigisMansionTheme_exg  0
	#define	LuigisMansionTheme_cmp  1

	// .rodata
	//	LuigisMansionTheme
	ALIGN 4


//**************** Track 1 (Midi-Chn.0) ****************//

LuigisMansionTheme_001:
//  #01 //000   ----------------------------------------
Label_01000BD8:
 BYTE   TEMPO   110*LuigisMansionTheme_tbs/2
 BYTE   KEYSH   LuigisMansionTheme_key+0
 BYTE   VOICE   36
 BYTE   VOL   77*LuigisMansionTheme_mvl/mxv
 BYTE   PAN   c_v+0
 BYTE   N20  An0  v110
 BYTE   W96
//  #01 //001   ----------------------------------------
Label_01000BE6:
 BYTE   N20  An0  v110
 BYTE   W36
 BYTE   N11  En1
 BYTE   W12
 BYTE   N20  Ds1
 BYTE   W24
 BYTE   En1
 BYTE   W24
 BYTE   PEND 
//  #01 //002   ----------------------------------------
 BYTE   N20  An0  v110
 BYTE   W96
//  #01 //003   ----------------------------------------
 BYTE   PATT
  POIN2 Label_01000BE6
//  #01 //004   ----------------------------------------
 BYTE   N20  An0  v110
 BYTE   W96
//  #01 //005   ----------------------------------------
 BYTE   PATT
  POIN2 Label_01000BE6
//  #01 //006   ----------------------------------------
 BYTE   N20  Bn0  v110
 BYTE   W96
//  #01 //007   ----------------------------------------
Label_01000C09:
 BYTE   N20  An0  v110
 BYTE   W36
 BYTE   N11  As0
 BYTE   W12
 BYTE   N20  Bn0
 BYTE   W24
 BYTE   En0
 BYTE   W24
 BYTE   PEND 
//  #01 //008   ----------------------------------------
 BYTE   N20  An0  v110
 BYTE   W96
//  #01 //009   ----------------------------------------
 BYTE   PATT
  POIN2 Label_01000BE6
//  #01 //010   ----------------------------------------
Label_01000C1F:
 BYTE   N20  An0  v110
 BYTE   W48
 BYTE   Bn0
 BYTE   W48
 BYTE   PEND 
//  #01 //011   ----------------------------------------
Label_01000C26:
 BYTE   N11  En1  v110
 BYTE   W12
 BYTE   Dn1
 BYTE   W12
 BYTE   Cn1
 BYTE   W12
 BYTE   Bn0
 BYTE   W12
 BYTE   N20  An0
 BYTE   W48
 BYTE   PEND 
//  #01 //012   ----------------------------------------
 BYTE   N20  An0  v110
 BYTE   W96
//  #01 //013   ----------------------------------------
 BYTE   PATT
  POIN2 Label_01000BE6
//  #01 //014   ----------------------------------------
 BYTE   N20  An0  v110
 BYTE   W96
//  #01 //015   ----------------------------------------
 BYTE   PATT
  POIN2 Label_01000BE6
//  #01 //016   ----------------------------------------
 BYTE   N20  An0  v110
 BYTE   W96
//  #01 //017   ----------------------------------------
 BYTE   PATT
  POIN2 Label_01000BE6
//  #01 //018   ----------------------------------------
 BYTE   N20  Bn0  v110
 BYTE   W96
//  #01 //019   ----------------------------------------
 BYTE   PATT
  POIN2 Label_01000C09
//  #01 //020   ----------------------------------------
 BYTE   N20  An0  v110
 BYTE   W96
//  #01 //021   ----------------------------------------
 BYTE   PATT
  POIN2 Label_01000BE6
//  #01 //022   ----------------------------------------
 BYTE   PATT
  POIN2 Label_01000C1F
//  #01 //023   ----------------------------------------
 BYTE   PATT
  POIN2 Label_01000C26
//  #01 //024   ----------------------------------------
Label_01000C6B:
 BYTE   N11  An0  v110
 BYTE   W12
 BYTE   En1
 BYTE   W12
 BYTE   Cn1
 BYTE   W12
 BYTE   Bn0
 BYTE   W12
 BYTE   N20  An0
 BYTE   W24
 BYTE   Cn1
 BYTE   W24
 BYTE   PEND 
//  #01 //025   ----------------------------------------
Label_01000C7B:
 BYTE   N42  Ds1  v110
 BYTE   W48
 BYTE   N20  En1
 BYTE   W48
 BYTE   PEND 
//  #01 //026   ----------------------------------------
Label_01000C83:
 BYTE   N42  Ds1  v110
 BYTE   W48
 BYTE   Dn1
 BYTE   W48
 BYTE   PEND 
//  #01 //027   ----------------------------------------
Label_01000C8A:
 BYTE   N42  Cs1  v110
 BYTE   W48
 BYTE   Cn1
 BYTE   W48
 BYTE   PEND 
//  #01 //028   ----------------------------------------
Label_01000C91:
 BYTE   N42  Bn0  v110
 BYTE   W48
 BYTE   N32  As0
 BYTE   W36
 BYTE   N11  Ds1
 BYTE   W12
 BYTE   PEND 
//  #01 //029   ----------------------------------------
 BYTE   N11  En1  v110
 BYTE   W12
 BYTE   Bn0
 BYTE   W12
 BYTE   As0
 BYTE   W12
 BYTE   Bn0
 BYTE   W12
 BYTE   N32  En0
 BYTE   W36
 BYTE   N11  AsM1
 BYTE   W12
//  #01 //030   ----------------------------------------
 BYTE   N20  An0
 BYTE   W96
//  #01 //031   ----------------------------------------
 BYTE   PATT
  POIN2 Label_01000BE6
//  #01 //032   ----------------------------------------
Label_01000CB4:
 BYTE   N20  An0  v110
 BYTE   W48
 BYTE   An0
 BYTE   W48
 BYTE   PEND 
//  #01 //033   ----------------------------------------
 BYTE   PATT
  POIN2 Label_01000BE6
//  #01 //034   ----------------------------------------
 BYTE   N20  An0  v110
 BYTE   W96
//  #01 //035   ----------------------------------------
 BYTE   PATT
  POIN2 Label_01000BE6
//  #01 //036   ----------------------------------------
 BYTE   N20  Bn0  v110
 BYTE   W96
//  #01 //037   ----------------------------------------
 BYTE   PATT
  POIN2 Label_01000C09
//  #01 //038   ----------------------------------------
 BYTE   N20  An0  v110
 BYTE   W96
//  #01 //039   ----------------------------------------
 BYTE   PATT
  POIN2 Label_01000BE6
//  #01 //040   ----------------------------------------
 BYTE   PATT
  POIN2 Label_01000C1F
//  #01 //041   ----------------------------------------
 BYTE   PATT
  POIN2 Label_01000C26
//  #01 //042   ----------------------------------------
 BYTE   N20  An0  v110
 BYTE   W96
//  #01 //043   ----------------------------------------
 BYTE   PATT
  POIN2 Label_01000BE6
//  #01 //044   ----------------------------------------
 BYTE   PATT
  POIN2 Label_01000CB4
//  #01 //045   ----------------------------------------
 BYTE   PATT
  POIN2 Label_01000BE6
//  #01 //046   ----------------------------------------
 BYTE   N20  An0  v110
 BYTE   W96
//  #01 //047   ----------------------------------------
 BYTE   PATT
  POIN2 Label_01000BE6
//  #01 //048   ----------------------------------------
 BYTE   N20  Bn0  v110
 BYTE   W96
//  #01 //049   ----------------------------------------
 BYTE   PATT
  POIN2 Label_01000C09
//  #01 //050   ----------------------------------------
 BYTE   N20  An0  v110
 BYTE   W96
//  #01 //051   ----------------------------------------
 BYTE   PATT
  POIN2 Label_01000BE6
//  #01 //052   ----------------------------------------
 BYTE   PATT
  POIN2 Label_01000C1F
//  #01 //053   ----------------------------------------
 BYTE   PATT
  POIN2 Label_01000C26
//  #01 //054   ----------------------------------------
 BYTE   PATT
  POIN2 Label_01000C6B
//  #01 //055   ----------------------------------------
 BYTE   PATT
  POIN2 Label_01000C7B
//  #01 //056   ----------------------------------------
 BYTE   PATT
  POIN2 Label_01000C83
//  #01 //057   ----------------------------------------
 BYTE   PATT
  POIN2 Label_01000C8A
//  #01 //058   ----------------------------------------
 BYTE   PATT
  POIN2 Label_01000C91
//  #01 //059   ----------------------------------------
 BYTE   N11  En1  v110
 BYTE   W12
 BYTE   Bn0
 BYTE   W12
 BYTE   As0
 BYTE   W12
 BYTE   Bn0
 BYTE   W12
 BYTE   N42  En0
 BYTE   W42
 BYTE   GoTo
  POIN2 Label_01000BD8
 BYTE   FINE

//**************** Track 2 (Midi-Chn.1) ****************//

LuigisMansionTheme_002:
//  #02 //000   ----------------------------------------
Label_010008D8:
 BYTE   TEMPO   110*LuigisMansionTheme_tbs/2
 BYTE   KEYSH   LuigisMansionTheme_key+0
 BYTE   VOICE   36
 BYTE   VOL   77*LuigisMansionTheme_mvl/mxv
 BYTE   PAN   c_v+0
 BYTE   N20  An1  v110
 BYTE   W96
//  #02 //001   ----------------------------------------
Label_010008E6:
 BYTE   N20  An1  v110
 BYTE   W36
 BYTE   N11  En2
 BYTE   W12
 BYTE   N20  Ds2
 BYTE   W24
 BYTE   En2
 BYTE   W24
 BYTE   PEND 
//  #02 //002   ----------------------------------------
 BYTE   N20  An1  v110
 BYTE   W96
//  #02 //003   ----------------------------------------
 BYTE   PATT
  POIN2 Label_010008E6
//  #02 //004   ----------------------------------------
 BYTE   N20  An1  v110
 BYTE   W96
//  #02 //005   ----------------------------------------
 BYTE   PATT
  POIN2 Label_010008E6
//  #02 //006   ----------------------------------------
 BYTE   N20  Bn1  v110
 BYTE   W96
//  #02 //007   ----------------------------------------
Label_01000909:
 BYTE   N20  An1  v110
 BYTE   W36
 BYTE   N11  As1
 BYTE   W12
 BYTE   N20  Bn1
 BYTE   W24
 BYTE   En1
 BYTE   W24
 BYTE   PEND 
//  #02 //008   ----------------------------------------
 BYTE   N20  An1  v110
 BYTE   W96
//  #02 //009   ----------------------------------------
 BYTE   PATT
  POIN2 Label_010008E6
//  #02 //010   ----------------------------------------
Label_0100091F:
 BYTE   N20  An1  v110
 BYTE   W48
 BYTE   Bn1
 BYTE   W48
 BYTE   PEND 
//  #02 //011   ----------------------------------------
Label_01000926:
 BYTE   N11  En2  v110
 BYTE   W12
 BYTE   Dn2
 BYTE   W12
 BYTE   Cn2
 BYTE   W12
 BYTE   Bn1
 BYTE   W12
 BYTE   N20  An1
 BYTE   W48
 BYTE   PEND 
//  #02 //012   ----------------------------------------
 BYTE   N20  An1  v110
 BYTE   W96
//  #02 //013   ----------------------------------------
 BYTE   PATT
  POIN2 Label_010008E6
//  #02 //014   ----------------------------------------
 BYTE   N20  An1  v110
 BYTE   W96
//  #02 //015   ----------------------------------------
 BYTE   PATT
  POIN2 Label_010008E6
//  #02 //016   ----------------------------------------
 BYTE   N20  An1  v110
 BYTE   W96
//  #02 //017   ----------------------------------------
 BYTE   PATT
  POIN2 Label_010008E6
//  #02 //018   ----------------------------------------
 BYTE   N20  Bn1  v110
 BYTE   W96
//  #02 //019   ----------------------------------------
 BYTE   PATT
  POIN2 Label_01000909
//  #02 //020   ----------------------------------------
 BYTE   N20  An1  v110
 BYTE   W96
//  #02 //021   ----------------------------------------
 BYTE   PATT
  POIN2 Label_010008E6
//  #02 //022   ----------------------------------------
 BYTE   PATT
  POIN2 Label_0100091F
//  #02 //023   ----------------------------------------
 BYTE   PATT
  POIN2 Label_01000926
//  #02 //024   ----------------------------------------
Label_0100096B:
 BYTE   N11  An1  v110
 BYTE   W12
 BYTE   En2
 BYTE   W12
 BYTE   Cn2
 BYTE   W12
 BYTE   Bn1
 BYTE   W12
 BYTE   N20  An1
 BYTE   W24
 BYTE   Cn2
 BYTE   W24
 BYTE   PEND 
//  #02 //025   ----------------------------------------
Label_0100097B:
 BYTE   N42  Ds2  v110
 BYTE   W48
 BYTE   N20  En2
 BYTE   W48
 BYTE   PEND 
//  #02 //026   ----------------------------------------
Label_01000983:
 BYTE   N42  Ds2  v110
 BYTE   W48
 BYTE   Dn2
 BYTE   W48
 BYTE   PEND 
//  #02 //027   ----------------------------------------
Label_0100098A:
 BYTE   N42  Cs2  v110
 BYTE   W48
 BYTE   Cn2
 BYTE   W48
 BYTE   PEND 
//  #02 //028   ----------------------------------------
Label_01000991:
 BYTE   N42  Bn1  v110
 BYTE   W48
 BYTE   N32  As1
 BYTE   W36
 BYTE   N11  Ds2
 BYTE   W12
 BYTE   PEND 
//  #02 //029   ----------------------------------------
 BYTE   N11  En2  v110
 BYTE   W12
 BYTE   Bn1
 BYTE   W12
 BYTE   As1
 BYTE   W12
 BYTE   Bn1
 BYTE   W12
 BYTE   N32  En1
 BYTE   W36
 BYTE   N11  As0
 BYTE   W12
//  #02 //030   ----------------------------------------
 BYTE   N20  An1
 BYTE   W96
//  #02 //031   ----------------------------------------
 BYTE   PATT
  POIN2 Label_010008E6
//  #02 //032   ----------------------------------------
 BYTE   N20  An1  v110
 BYTE   W96
//  #02 //033   ----------------------------------------
 BYTE   PATT
  POIN2 Label_010008E6
//  #02 //034   ----------------------------------------
 BYTE   N20  An1  v110
 BYTE   W96
//  #02 //035   ----------------------------------------
 BYTE   PATT
  POIN2 Label_010008E6
//  #02 //036   ----------------------------------------
 BYTE   N20  Bn1  v110
 BYTE   W96
//  #02 //037   ----------------------------------------
 BYTE   PATT
  POIN2 Label_01000909
//  #02 //038   ----------------------------------------
 BYTE   N20  An1  v110
 BYTE   W96
//  #02 //039   ----------------------------------------
 BYTE   PATT
  POIN2 Label_010008E6
//  #02 //040   ----------------------------------------
 BYTE   PATT
  POIN2 Label_0100091F
//  #02 //041   ----------------------------------------
 BYTE   PATT
  POIN2 Label_01000926
//  #02 //042   ----------------------------------------
 BYTE   N20  An1  v110
 BYTE   W96
//  #02 //043   ----------------------------------------
 BYTE   PATT
  POIN2 Label_010008E6
//  #02 //044   ----------------------------------------
 BYTE   N20  An1  v110
 BYTE   W96
//  #02 //045   ----------------------------------------
 BYTE   PATT
  POIN2 Label_010008E6
//  #02 //046   ----------------------------------------
 BYTE   N20  An1  v110
 BYTE   W96
//  #02 //047   ----------------------------------------
 BYTE   PATT
  POIN2 Label_010008E6
//  #02 //048   ----------------------------------------
 BYTE   N20  Bn1  v110
 BYTE   W96
//  #02 //049   ----------------------------------------
 BYTE   PATT
  POIN2 Label_01000909
//  #02 //050   ----------------------------------------
 BYTE   N20  An1  v110
 BYTE   W96
//  #02 //051   ----------------------------------------
 BYTE   PATT
  POIN2 Label_010008E6
//  #02 //052   ----------------------------------------
 BYTE   PATT
  POIN2 Label_0100091F
//  #02 //053   ----------------------------------------
 BYTE   PATT
  POIN2 Label_01000926
//  #02 //054   ----------------------------------------
 BYTE   PATT
  POIN2 Label_0100096B
//  #02 //055   ----------------------------------------
 BYTE   PATT
  POIN2 Label_0100097B
//  #02 //056   ----------------------------------------
 BYTE   PATT
  POIN2 Label_01000983
//  #02 //057   ----------------------------------------
 BYTE   PATT
  POIN2 Label_0100098A
//  #02 //058   ----------------------------------------
 BYTE   PATT
  POIN2 Label_01000991
//  #02 //059   ----------------------------------------
 BYTE   N11  En2  v110
 BYTE   W12
 BYTE   Bn1
 BYTE   W12
 BYTE   As1
 BYTE   W12
 BYTE   Bn1
 BYTE   W12
 BYTE   N42  En1
 BYTE   W42
 BYTE   GoTo
  POIN2 Label_010008D8
 BYTE   FINE

//**************** Track 3 (Midi-Chn.2) ****************//

LuigisMansionTheme_003:
//  #03 //000   ----------------------------------------
Label_01000A48:
 BYTE   TEMPO   110*LuigisMansionTheme_tbs/2
 BYTE   KEYSH   LuigisMansionTheme_key+0
 BYTE   VOICE   106
 BYTE   VOL   77*LuigisMansionTheme_mvl/mxv
 BYTE   PAN   c_v+0
 BYTE   N06  AnM1  v110
 BYTE   W96
//  #03 //001   ----------------------------------------
Label_01000A56:
 BYTE   N06  AnM1  v110
 BYTE   W36
 BYTE   N04  En0
 BYTE   W12
 BYTE   N06  Ds0
 BYTE   W24
 BYTE   En0
 BYTE   W24
 BYTE   PEND 
//  #03 //002   ----------------------------------------
 BYTE   N06  AnM1  v110
 BYTE   W96
//  #03 //003   ----------------------------------------
 BYTE   PATT
  POIN2 Label_01000A56
//  #03 //004   ----------------------------------------
 BYTE   N06  AnM1  v110
 BYTE   W96
//  #03 //005   ----------------------------------------
 BYTE   PATT
  POIN2 Label_01000A56
//  #03 //006   ----------------------------------------
 BYTE   N06  BnM1  v110
 BYTE   W96
//  #03 //007   ----------------------------------------
Label_01000A79:
 BYTE   N06  AnM1  v110
 BYTE   W36
 BYTE   N04  AsM1
 BYTE   W12
 BYTE   N06  BnM1
 BYTE   W24
 BYTE   EnM1
 BYTE   W24
 BYTE   PEND 
//  #03 //008   ----------------------------------------
 BYTE   N06  AnM1  v110
 BYTE   W96
//  #03 //009   ----------------------------------------
 BYTE   PATT
  POIN2 Label_01000A56
//  #03 //010   ----------------------------------------
Label_01000A8F:
 BYTE   N06  AnM1  v110
 BYTE   W48
 BYTE   BnM1
 BYTE   W48
 BYTE   PEND 
//  #03 //011   ----------------------------------------
Label_01000A96:
 BYTE   N04  En0  v110
 BYTE   W12
 BYTE   Dn0
 BYTE   W12
 BYTE   Cn0
 BYTE   W12
 BYTE   BnM1
 BYTE   W12
 BYTE   N06  AnM1
 BYTE   W48
 BYTE   PEND 
//  #03 //012   ----------------------------------------
 BYTE   N06  AnM1  v110
 BYTE   W96
//  #03 //013   ----------------------------------------
 BYTE   PATT
  POIN2 Label_01000A56
//  #03 //014   ----------------------------------------
 BYTE   N06  AnM1  v110
 BYTE   W96
//  #03 //015   ----------------------------------------
 BYTE   PATT
  POIN2 Label_01000A56
//  #03 //016   ----------------------------------------
 BYTE   N06  AnM1  v110
 BYTE   W96
//  #03 //017   ----------------------------------------
 BYTE   PATT
  POIN2 Label_01000A56
//  #03 //018   ----------------------------------------
 BYTE   N06  BnM1  v110
 BYTE   W96
//  #03 //019   ----------------------------------------
 BYTE   PATT
  POIN2 Label_01000A79
//  #03 //020   ----------------------------------------
 BYTE   N06  AnM1  v110
 BYTE   W96
//  #03 //021   ----------------------------------------
 BYTE   PATT
  POIN2 Label_01000A56
//  #03 //022   ----------------------------------------
 BYTE   PATT
  POIN2 Label_01000A8F
//  #03 //023   ----------------------------------------
 BYTE   PATT
  POIN2 Label_01000A96
//  #03 //024   ----------------------------------------
Label_01000ADB:
 BYTE   N04  AnM1  v110
 BYTE   W12
 BYTE   En0
 BYTE   W12
 BYTE   Cn0
 BYTE   W12
 BYTE   BnM1
 BYTE   W12
 BYTE   N06  AnM1
 BYTE   W24
 BYTE   Cn0
 BYTE   W24
 BYTE   PEND 
//  #03 //025   ----------------------------------------
Label_01000AEB:
 BYTE   N12  Ds0  v110
 BYTE   W48
 BYTE   N06  En0
 BYTE   W48
 BYTE   PEND 
//  #03 //026   ----------------------------------------
Label_01000AF3:
 BYTE   N12  Ds0  v110
 BYTE   W48
 BYTE   Dn0
 BYTE   W48
 BYTE   PEND 
//  #03 //027   ----------------------------------------
Label_01000AFA:
 BYTE   N12  Cs0  v110
 BYTE   W48
 BYTE   Cn0
 BYTE   W48
 BYTE   PEND 
//  #03 //028   ----------------------------------------
Label_01000B01:
 BYTE   N12  BnM1  v110
 BYTE   W48
 BYTE   N09  AsM1
 BYTE   W36
 BYTE   N04  Ds0
 BYTE   W12
 BYTE   PEND 
//  #03 //029   ----------------------------------------
 BYTE   N04  En0  v110
 BYTE   W12
 BYTE   BnM1
 BYTE   W12
 BYTE   AsM1
 BYTE   W12
 BYTE   BnM1
 BYTE   W12
 BYTE   N09  EnM1
 BYTE   W36
 BYTE   N04  AsM2
 BYTE   W12
//  #03 //030   ----------------------------------------
 BYTE   N06  AnM1
 BYTE   W96
//  #03 //031   ----------------------------------------
 BYTE   PATT
  POIN2 Label_01000A56
//  #03 //032   ----------------------------------------
Label_01000B24:
 BYTE   N06  AnM1  v110
 BYTE   W48
 BYTE   AnM1
 BYTE   W48
 BYTE   PEND 
//  #03 //033   ----------------------------------------
 BYTE   PATT
  POIN2 Label_01000A56
//  #03 //034   ----------------------------------------
 BYTE   N06  AnM1  v110
 BYTE   W96
//  #03 //035   ----------------------------------------
 BYTE   PATT
  POIN2 Label_01000A56
//  #03 //036   ----------------------------------------
 BYTE   N06  BnM1  v110
 BYTE   W96
//  #03 //037   ----------------------------------------
 BYTE   PATT
  POIN2 Label_01000A79
//  #03 //038   ----------------------------------------
 BYTE   N06  AnM1  v110
 BYTE   W96
//  #03 //039   ----------------------------------------
 BYTE   PATT
  POIN2 Label_01000A56
//  #03 //040   ----------------------------------------
 BYTE   PATT
  POIN2 Label_01000A8F
//  #03 //041   ----------------------------------------
 BYTE   PATT
  POIN2 Label_01000A96
//  #03 //042   ----------------------------------------
 BYTE   N06  AnM1  v110
 BYTE   W96
//  #03 //043   ----------------------------------------
 BYTE   PATT
  POIN2 Label_01000A56
//  #03 //044   ----------------------------------------
 BYTE   PATT
  POIN2 Label_01000B24
//  #03 //045   ----------------------------------------
 BYTE   PATT
  POIN2 Label_01000A56
//  #03 //046   ----------------------------------------
 BYTE   N06  AnM1  v110
 BYTE   W96
//  #03 //047   ----------------------------------------
 BYTE   PATT
  POIN2 Label_01000A56
//  #03 //048   ----------------------------------------
 BYTE   N06  BnM1  v110
 BYTE   W96
//  #03 //049   ----------------------------------------
 BYTE   PATT
  POIN2 Label_01000A79
//  #03 //050   ----------------------------------------
 BYTE   N06  AnM1  v110
 BYTE   W96
//  #03 //051   ----------------------------------------
 BYTE   PATT
  POIN2 Label_01000A56
//  #03 //052   ----------------------------------------
 BYTE   PATT
  POIN2 Label_01000A8F
//  #03 //053   ----------------------------------------
 BYTE   PATT
  POIN2 Label_01000A96
//  #03 //054   ----------------------------------------
 BYTE   PATT
  POIN2 Label_01000ADB
//  #03 //055   ----------------------------------------
 BYTE   PATT
  POIN2 Label_01000AEB
//  #03 //056   ----------------------------------------
 BYTE   PATT
  POIN2 Label_01000AF3
//  #03 //057   ----------------------------------------
 BYTE   PATT
  POIN2 Label_01000AFA
//  #03 //058   ----------------------------------------
 BYTE   PATT
  POIN2 Label_01000B01
//  #03 //059   ----------------------------------------
 BYTE   N04  En0  v110
 BYTE   W12
 BYTE   BnM1
 BYTE   W12
 BYTE   AsM1
 BYTE   W12
 BYTE   BnM1
 BYTE   W12
 BYTE   N12  EnM1
 BYTE   W42
 BYTE   GoTo
  POIN2 Label_01000A48
 BYTE   FINE

//**************** Track 4 (Midi-Chn.3) ****************//

LuigisMansionTheme_004:
//  #04 //000   ----------------------------------------
Label_01000420:
 BYTE   TEMPO   110*LuigisMansionTheme_tbs/2
 BYTE   KEYSH   LuigisMansionTheme_key+0
 BYTE   VOICE   71
 BYTE   VOL   77*LuigisMansionTheme_mvl/mxv
 BYTE   PAN   c_v+0
 BYTE   W96
//  #04 //001   ----------------------------------------
 BYTE   W96
//  #04 //002   ----------------------------------------
 BYTE   W96
//  #04 //003   ----------------------------------------
 BYTE   W96
//  #04 //004   ----------------------------------------
 BYTE   W12
Label_0100042F:
 BYTE   N11  En3  v110
 BYTE   W12
 BYTE   En3
 BYTE   W12
 BYTE   En3
 BYTE   W12
 BYTE   N20
 BYTE   W24
 BYTE   N11  Cn3
 BYTE   W12
 BYTE   En3
 BYTE   W12
//  #04 //005   ----------------------------------------
 BYTE   N20  Ds3
 BYTE   W24
 BYTE   PEND 
Label_01000442:
 BYTE   N20  Bn2  v110
 BYTE   W84
//  #04 //006   ----------------------------------------
 BYTE   N11  Dn3
 BYTE   W12
 BYTE   PEND 
Label_0100044A:
 BYTE   N11  Dn3  v110
 BYTE   W12
 BYTE   Dn3
 BYTE   W12
 BYTE   N20
 BYTE   W24
 BYTE   N11  Bn2
 BYTE   W12
 BYTE   Dn3
 BYTE   W12
 BYTE   N20  Cn3
 BYTE   W36
 BYTE   PEND 
//  #04 //007   ----------------------------------------
Label_0100045B:
 BYTE   N11  As2  v110
 BYTE   W12
 BYTE   N20  Bn2
 BYTE   W60
 BYTE   N11  En3
 BYTE   W12
 BYTE   En3
 BYTE   W12
 BYTE   PEND 
//  #04 //008   ----------------------------------------
Label_01000468:
 BYTE   N11  En3  v110
 BYTE   W12
 BYTE   N20
 BYTE   W24
 BYTE   N11  Cn3
 BYTE   W12
 BYTE   En3
 BYTE   W12
 BYTE   N20  Ds3
 BYTE   W24
 BYTE   Bn2
 BYTE   W84
 BYTE   PEND 
//  #04 //009   ----------------------------------------
Label_01000479:
 BYTE   N11  Dn3  v110
 BYTE   W12
 BYTE   Dn3
 BYTE   W12
 BYTE   Dn3
 BYTE   W12
 BYTE   N20
 BYTE   W24
 BYTE   N11  Bn2
 BYTE   W12
 BYTE   Dn3
 BYTE   W12
 BYTE   En3
 BYTE   W12
 BYTE   PEND 
//  #04 //010   ----------------------------------------
Label_0100048B:
 BYTE   N11  Dn3  v110
 BYTE   W12
 BYTE   Cn3
 BYTE   W12
 BYTE   Bn2
 BYTE   W12
 BYTE   N20  An2
 BYTE   W96
//  #04 //011   ----------------------------------------
 BYTE   W96
//  #04 //012   ----------------------------------------
 BYTE   W96
//  #04 //013   ----------------------------------------
 BYTE   W96
//  #04 //014   ----------------------------------------
 BYTE   W60
 BYTE   PEND 
//  #04 //015   ----------------------------------------
 BYTE   PATT
  POIN2 Label_0100042F
//  #04 //016   ----------------------------------------
 BYTE   PATT
  POIN2 Label_01000442
//  #04 //017   ----------------------------------------
 BYTE   PATT
  POIN2 Label_0100044A
//  #04 //018   ----------------------------------------
 BYTE   PATT
  POIN2 Label_0100045B
//  #04 //019   ----------------------------------------
 BYTE   PATT
  POIN2 Label_01000468
//  #04 //020   ----------------------------------------
 BYTE   PATT
  POIN2 Label_01000479
//  #04 //021   ----------------------------------------
Label_010004B9:
 BYTE   N11  Dn3  v110
 BYTE   W12
 BYTE   Cn3
 BYTE   W12
 BYTE   Bn2
 BYTE   W12
 BYTE   N20  An2
 BYTE   W36
 BYTE   N11  En2
 BYTE   W12
 BYTE   An2
 BYTE   W12
 BYTE   PEND 
//  #04 //022   ----------------------------------------
Label_010004CA:
 BYTE   N11  Bn2  v110
 BYTE   W12
 BYTE   Cn3
 BYTE   W12
 BYTE   Dn3
 BYTE   W12
 BYTE   N20  En3
 BYTE   W24
 BYTE   An3
 BYTE   W24
 BYTE   N42  Cn4
 BYTE   W48
 BYTE   PEND 
//  #04 //023   ----------------------------------------
Label_010004DB:
 BYTE   N20  Bn3  v110
 BYTE   W24
 BYTE   N11  Ds4
 BYTE   W12
 BYTE   En4
 BYTE   W12
 BYTE   N20  Ds4
 BYTE   W24
 BYTE   Dn4
 BYTE   W48
 BYTE   PEND 
//  #04 //024   ----------------------------------------
Label_010004EA:
 BYTE   N11  Cs4  v110
 BYTE   W12
 BYTE   Dn4
 BYTE   W12
 BYTE   N20  Cs4
 BYTE   W24
 BYTE   Cn4
 BYTE   W48
 BYTE   PEND 
//  #04 //025   ----------------------------------------
Label_010004F6:
 BYTE   N11  Bn3  v110
 BYTE   W12
 BYTE   Cn4
 BYTE   W12
 BYTE   N42  Bn3
 BYTE   W48
 BYTE   N32  As3
 BYTE   W36
 BYTE   PEND 
//  #04 //026   ----------------------------------------
 BYTE   N11  Ds4  v110
 BYTE   W12
 BYTE   En4
 BYTE   W12
 BYTE   Bn3
 BYTE   W12
 BYTE   As3
 BYTE   W12
 BYTE   Bn3
 BYTE   W12
 BYTE   N42  En3
 BYTE   W96
//  #04 //027   ----------------------------------------
 BYTE   W96
//  #04 //028   ----------------------------------------
 BYTE   W96
//  #04 //029   ----------------------------------------
 BYTE   W96
//  #04 //030   ----------------------------------------
 BYTE   W60
//  #04 //031   ----------------------------------------
 BYTE   PATT
  POIN2 Label_0100042F
//  #04 //032   ----------------------------------------
 BYTE   PATT
  POIN2 Label_01000442
//  #04 //033   ----------------------------------------
 BYTE   PATT
  POIN2 Label_0100044A
//  #04 //034   ----------------------------------------
 BYTE   PATT
  POIN2 Label_0100045B
//  #04 //035   ----------------------------------------
 BYTE   PATT
  POIN2 Label_01000468
//  #04 //036   ----------------------------------------
 BYTE   PATT
  POIN2 Label_01000479
//  #04 //037   ----------------------------------------
 BYTE   PATT
  POIN2 Label_0100048B
//  #04 //038   ----------------------------------------
 BYTE   PATT
  POIN2 Label_0100042F
//  #04 //039   ----------------------------------------
 BYTE   PATT
  POIN2 Label_01000442
//  #04 //040   ----------------------------------------
 BYTE   PATT
  POIN2 Label_0100044A
//  #04 //041   ----------------------------------------
 BYTE   PATT
  POIN2 Label_0100045B
//  #04 //042   ----------------------------------------
 BYTE   PATT
  POIN2 Label_01000468
//  #04 //043   ----------------------------------------
 BYTE   PATT
  POIN2 Label_01000479
//  #04 //044   ----------------------------------------
 BYTE   PATT
  POIN2 Label_010004B9
//  #04 //045   ----------------------------------------
 BYTE   PATT
  POIN2 Label_010004CA
//  #04 //046   ----------------------------------------
 BYTE   PATT
  POIN2 Label_010004DB
//  #04 //047   ----------------------------------------
 BYTE   PATT
  POIN2 Label_010004EA
//  #04 //048   ----------------------------------------
 BYTE   PATT
  POIN2 Label_010004F6
//  #04 //049   ----------------------------------------
 BYTE   N11  Ds4  v110
 BYTE   W12
 BYTE   En4
 BYTE   W12
 BYTE   Bn3
 BYTE   W12
 BYTE   As3
 BYTE   W12
 BYTE   Bn3
 BYTE   W12
 BYTE   N42  En4
 BYTE   W42
//  #04 //050   ----------------------------------------
 BYTE   GoTo
  POIN2 Label_01000420
 BYTE   FINE

//******************************************************//
	ALIGN 4

LuigisMansionTheme:
	BYTE	4	// NumTrks
	BYTE	0	// NumBlks
	BYTE	LuigisMansionTheme_pri	// Priority
	BYTE	LuigisMansionTheme_rev	// Reverb.
    
	POIN2	LuigisMansionTheme_grp
    
	POIN2	LuigisMansionTheme_001
	POIN2	LuigisMansionTheme_002
	POIN2	LuigisMansionTheme_003
	POIN2	LuigisMansionTheme_004

	
