//Event file generated from Sappy .s format.
	

	#define	MarionCourse_grp  voicegroup000
	#define	MarionCourse_pri  0
	#define	MarionCourse_rev  0
	#define	MarionCourse_mvl  127
	#define	MarionCourse_key  0
	#define	MarionCourse_tbs  1
	#define	MarionCourse_exg  0
	#define	MarionCourse_cmp  1

	// .rodata
	//	MarionCourse
	ALIGN 4


//**************** Track 1 (Midi-Chn.0) ****************//

MarionCourse_001:
//  #01 //000   ----------------------------------------
 BYTE   KEYSH   MarionCourse_key+0
Label_012C69F6:
 BYTE   TEMPO   92*MarionCourse_tbs/2
 BYTE   VOICE   68
 BYTE   PAN   c_v+10
 BYTE   VOL   41*MarionCourse_mvl/mxv
 BYTE   N24  Cn4  v076
 BYTE   W24
 BYTE   N06  Bn3  v080
 BYTE   W06
 BYTE   An3
 BYTE   W06
 BYTE   N12  Gn3
 BYTE   W12
 BYTE   Fn3  v076
 BYTE   W12
 BYTE   En3  v084
 BYTE   W12
 BYTE   Dn3  v080
 BYTE   W12
 BYTE   En3  v092
 BYTE   W12
//  #01 //001   ----------------------------------------
 BYTE   Fn3
 BYTE   W12
 BYTE   N24  Gn3  v088
 BYTE   W24
 BYTE   N12  Bn2  v076
 BYTE   W12
 BYTE   N06  Cn3  v088
 BYTE   W06
 BYTE   Dn3
 BYTE   W06
 BYTE   En3  v084
 BYTE   W06
 BYTE   Fn3
 BYTE   W06
 BYTE   Gn3  v092
 BYTE   W06
 BYTE   An3
 BYTE   W06
 BYTE   N24  Gn3  v084
 BYTE   W24
//  #01 //002   ----------------------------------------
 BYTE   N12  Cn4  v100
 BYTE   W12
Label_012C6A39:
 BYTE   N36  Bn3  v080
 BYTE   W36
 BYTE   Gn3  v072
 BYTE   W36
 BYTE   PEND 
 BYTE   N24  Cn4  v092
 BYTE   W24
//  #01 //003   ----------------------------------------
 BYTE   N06  Bn3  v080
 BYTE   W06
 BYTE   An3
 BYTE   W06
 BYTE   N12  Gn3  v076
 BYTE   W12
 BYTE   Fn3  v080
 BYTE   W12
 BYTE   En3  v084
 BYTE   W12
 BYTE   Dn3  v080
 BYTE   W12
 BYTE   En3  v092
 BYTE   W12
 BYTE   Fn3  v084
 BYTE   W12
 BYTE   N24  Gn3  v088
 BYTE   W24
//  #01 //004   ----------------------------------------
 BYTE   N12  Dn3  v080
 BYTE   W12
 BYTE   N06  An3  v100
 BYTE   W06
 BYTE   Gn3  v084
 BYTE   W06
 BYTE   Fn3  v080
 BYTE   W06
 BYTE   Gn3  v092
 BYTE   W06
 BYTE   En3  v084
 BYTE   W06
 BYTE   Fn3  v088
 BYTE   W06
 BYTE   N12  Cn3  v076
 BYTE   W12
 BYTE   Cn4  v104
 BYTE   W12
 BYTE   Cn3  v064
 BYTE   W12
 BYTE   Bn3  v108
 BYTE   W12
//  #01 //005   ----------------------------------------
 BYTE   An3  v084
 BYTE   W12
 BYTE   Gn3  v080
 BYTE   W12
 BYTE   Fn3  v076
 BYTE   W12
 BYTE   En3  v080
 BYTE   W12
 BYTE   Dn3
 BYTE   W12
 BYTE   N09  Cn4  v104
 BYTE   W12
 BYTE   Cn4  v076
 BYTE   W12
 BYTE   N06  Bn3  v080
 BYTE   W06
 BYTE   Cn4  v088
 BYTE   W06
//  #01 //006   ----------------------------------------
 BYTE   N36  Dn4
 BYTE   W30
 BYTE   W06
 BYTE   CnM2
 BYTE   N09  En4  v092
 BYTE   W12
 BYTE   En4  v076
 BYTE   W12
 BYTE   N06  Dn4
 BYTE   W06
 BYTE   En4  v084
 BYTE   W06
 BYTE   N36  Fn4  v088
 BYTE   W30
//  #01 //007   ----------------------------------------
 BYTE   W06
 BYTE   CnM2
 BYTE   N09  Cn4  v076
 BYTE   W12
 BYTE   N09
 BYTE   W12
 BYTE   N06  Bn3
 BYTE   W06
 BYTE   Cn4  v084
 BYTE   W06
 BYTE   N12  Dn4  v088
 BYTE   W12
 BYTE   Gn3  v068
 BYTE   W12
 BYTE   Dn4  v096
 BYTE   W12
 BYTE   N24  En4  v092
 BYTE   W24
//  #01 //008   ----------------------------------------
 BYTE   N12  Fn4
 BYTE   W12
 BYTE   N36  Dn4  v076
 BYTE   W30
 BYTE   W06
 BYTE   CnM2
 BYTE   N09  Cn4
 BYTE   W12
 BYTE   Cn4  v080
 BYTE   W12
 BYTE   N06  Bn3  v072
 BYTE   W06
 BYTE   Cn4  v088
 BYTE   W06
 BYTE   N36  Dn4  v092
 BYTE   W30
//  #01 //009   ----------------------------------------
 BYTE   W06
 BYTE   CnM2
 BYTE   N09  En4
 BYTE   W12
 BYTE   En4  v072
 BYTE   W12
 BYTE   N06  Dn4  v076
 BYTE   W06
 BYTE   En4  v088
 BYTE   W06
 BYTE   N36  Fn4  v092
 BYTE   W30
 BYTE   W06
 BYTE   CnM2
 BYTE   N07  Cn4  v088
 BYTE   W12
 BYTE   N07
 BYTE   W12
//  #01 //010   ----------------------------------------
 BYTE   N06  Bn3  v076
 BYTE   W06
 BYTE   Cn4  v088
 BYTE   W06
 BYTE   N12  Dn4  v092
 BYTE   W12
 BYTE   Gn3  v064
 BYTE   W12
 BYTE   Dn4  v100
 BYTE   W12
 BYTE   N72  Cn4  v084
 BYTE   W72
//  #01 //011   ----------------------------------------
 BYTE   N24
 BYTE   W24
 BYTE   N06  Bn3  v076
 BYTE   W06
 BYTE   An3  v080
 BYTE   W06
 BYTE   N12  Gn3
 BYTE   W12
 BYTE   Fn3  v072
 BYTE   W12
 BYTE   En3  v088
 BYTE   W12
 BYTE   Dn3  v084
 BYTE   W12
 BYTE   En3
 BYTE   W12
//  #01 //012   ----------------------------------------
 BYTE   Fn3  v088
 BYTE   W12
 BYTE   N24  Gn3  v096
 BYTE   W24
 BYTE   N12  Bn2  v080
 BYTE   W12
 BYTE   N06  Cn3  v088
 BYTE   W06
 BYTE   Dn3  v092
 BYTE   W06
 BYTE   En3
 BYTE   W06
 BYTE   Fn3  v088
 BYTE   W06
 BYTE   Gn3
 BYTE   W06
 BYTE   An3  v092
 BYTE   W06
 BYTE   N24  Gn3  v084
 BYTE   W24
//  #01 //013   ----------------------------------------
 BYTE   N12  Cn4  v092
 BYTE   W12
 BYTE   N36  Bn3  v084
 BYTE   W36
 BYTE   Gn3  v072
 BYTE   W36
 BYTE   N24  Cn4  v096
 BYTE   W24
//  #01 //014   ----------------------------------------
 BYTE   N06  Bn3  v080
 BYTE   W06
 BYTE   An3  v084
 BYTE   W06
 BYTE   N12  Gn3  v080
 BYTE   W12
 BYTE   Fn3  v072
 BYTE   W12
 BYTE   En3  v080
 BYTE   W12
 BYTE   Dn3
 BYTE   W12
 BYTE   En3  v088
 BYTE   W12
 BYTE   Fn3
 BYTE   W12
 BYTE   N24  Gn3
 BYTE   W24
//  #01 //015   ----------------------------------------
 BYTE   N12  Dn3  v080
 BYTE   W12
 BYTE   N06  An3  v096
 BYTE   W06
 BYTE   Gn3  v080
 BYTE   W06
 BYTE   Fn3
 BYTE   W06
 BYTE   Gn3  v092
 BYTE   W06
 BYTE   En3  v080
 BYTE   W06
 BYTE   Fn3  v092
 BYTE   W06
 BYTE   N12  Cn3  v076
 BYTE   W12
 BYTE   Cn4  v104
 BYTE   W12
 BYTE   Cn3  v072
 BYTE   W12
 BYTE   Bn3  v104
 BYTE   W12
//  #01 //016   ----------------------------------------
 BYTE   An3  v080
 BYTE   W12
 BYTE   Gn3  v084
 BYTE   W12
 BYTE   Fn3
 BYTE   W12
 BYTE   En3  v076
 BYTE   W12
 BYTE   Dn3
 BYTE   W12
 BYTE   N06  Cn4  v108
 BYTE   W06
 BYTE   Gn3  v080
 BYTE   W06
 BYTE   Cn4  v096
 BYTE   W06
 BYTE   Dn4  v088
 BYTE   W06
 BYTE   Gn3  v068
 BYTE   W06
 BYTE   Dn4  v100
 BYTE   W06
//  #01 //017   ----------------------------------------
 BYTE   En4  v096
 BYTE   W06
 BYTE   Gn3  v076
 BYTE   W06
 BYTE   En4  v096
 BYTE   W06
 BYTE   Fn4  v092
 BYTE   W06
 BYTE   En4  v080
 BYTE   W06
 BYTE   Dn4  v076
 BYTE   W06
 BYTE   En4  v088
 BYTE   W06
 BYTE   Gn3  v064
 BYTE   W06
 BYTE   Gn3  v084
 BYTE   W06
 BYTE   Dn4  v100
 BYTE   W06
 BYTE   Cn4  v080
 BYTE   W06
 BYTE   Bn3
 BYTE   W06
 BYTE   Cn4  v092
 BYTE   W06
 BYTE   Gn3  v076
 BYTE   W06
 BYTE   En3  v072
 BYTE   W06
 BYTE   Gn3  v092
 BYTE   W06
//  #01 //018   ----------------------------------------
 BYTE   Cn3  v068
 BYTE   W06
 BYTE   Gn3  v096
 BYTE   W06
 BYTE   Cn4  v100
 BYTE   W06
 BYTE   Gn3  v072
 BYTE   W06
 BYTE   Gn3  v084
 BYTE   W06
 BYTE   Dn4  v100
 BYTE   W06
 BYTE   Gn3  v068
 BYTE   W06
 BYTE   Gn3  v084
 BYTE   W06
 BYTE   En4  v104
 BYTE   W06
 BYTE   Dn4  v084
 BYTE   W06
 BYTE   Cn4  v080
 BYTE   W06
 BYTE   Fn4  v092
 BYTE   W06
 BYTE   En4  v084
 BYTE   W06
 BYTE   Dn4  v080
 BYTE   W06
 BYTE   Bn3  v076
 BYTE   W06
 BYTE   Cn4  v088
 BYTE   W06
//  #01 //019   ----------------------------------------
 BYTE   Dn4  v092
 BYTE   W06
 BYTE   Cn4  v080
 BYTE   W06
 BYTE   Gn3  v068
 BYTE   W06
 BYTE   Cn4  v088
 BYTE   W06
 BYTE   N12  Gn3  v072
 BYTE   W12
 BYTE   Cn4  v100
 BYTE   W12
 BYTE   Cn3  v068
 BYTE   W12
 BYTE   N06  Cn4  v104
 BYTE   W06
 BYTE   Gn3  v072
 BYTE   W06
 BYTE   Cn4  v096
 BYTE   W06
 BYTE   Dn4  v092
 BYTE   W06
 BYTE   Gn3  v072
 BYTE   W06
 BYTE   Dn4  v096
 BYTE   W06
//  #01 //020   ----------------------------------------
 BYTE   En4  v092
 BYTE   W06
 BYTE   Gn3  v068
 BYTE   W06
 BYTE   En4  v100
 BYTE   W06
 BYTE   Fn4  v092
 BYTE   W06
 BYTE   En4  v084
 BYTE   W06
 BYTE   Dn4  v080
 BYTE   W06
 BYTE   En4  v084
 BYTE   W06
 BYTE   Gn3  v068
 BYTE   W06
 BYTE   Gn3  v080
 BYTE   W06
 BYTE   Dn4  v100
 BYTE   W06
 BYTE   Cn4  v080
 BYTE   W06
 BYTE   Bn3  v088
 BYTE   W06
 BYTE   Cn4
 BYTE   W06
 BYTE   Gn3  v076
 BYTE   W06
 BYTE   En3  v080
 BYTE   W06
 BYTE   Gn3  v092
 BYTE   W06
//  #01 //021   ----------------------------------------
 BYTE   Cn3  v076
 BYTE   W06
 BYTE   Gn3  v096
 BYTE   W06
 BYTE   Cn4  v100
 BYTE   W06
 BYTE   Gn3  v076
 BYTE   W06
 BYTE   Gn3  v084
 BYTE   W06
 BYTE   Dn4  v100
 BYTE   W06
 BYTE   Gn3  v076
 BYTE   W06
 BYTE   Gn3  v084
 BYTE   W06
 BYTE   En4  v100
 BYTE   W06
 BYTE   Dn4  v080
 BYTE   W06
 BYTE   Cn4
 BYTE   W06
 BYTE   Fn4  v100
 BYTE   W06
 BYTE   En4  v080
 BYTE   W06
 BYTE   Dn4
 BYTE   W06
 BYTE   Bn3  v076
 BYTE   W06
 BYTE   Cn4  v092
 BYTE   W06
//  #01 //022   ----------------------------------------
 BYTE   Dn4  v088
 BYTE   W06
 BYTE   Cn4  v080
 BYTE   W06
 BYTE   Gn3  v072
 BYTE   W06
 BYTE   Cn4  v096
 BYTE   W06
 BYTE   N12  Gn3  v076
 BYTE   W12
 BYTE   Cn4  v092
 BYTE   W12
 BYTE   Cn3  v064
 BYTE   W12
 BYTE   N09  Cn4  v104
 BYTE   W12
 BYTE   Cn4  v080
 BYTE   W12
 BYTE   N06  Bn3  v076
 BYTE   W06
 BYTE   Cn4  v084
 BYTE   W06
//  #01 //023   ----------------------------------------
 BYTE   N36  Dn4  v092
 BYTE   W30
 BYTE   W06
 BYTE   CnM2
 BYTE   N09  En4
 BYTE   W12
 BYTE   En4  v072
 BYTE   W12
 BYTE   N06  Dn4  v080
 BYTE   W06
 BYTE   En4  v084
 BYTE   W06
 BYTE   N36  Fn4  v088
 BYTE   W30
//  #01 //024   ----------------------------------------
 BYTE   W06
 BYTE   CnM2
 BYTE   N09  Cn4  v072
 BYTE   W12
 BYTE   Cn4  v076
 BYTE   W12
 BYTE   N06  Bn3  v080
 BYTE   W06
 BYTE   Cn4  v088
 BYTE   W06
 BYTE   N12  Dn4
 BYTE   W12
 BYTE   Gn3  v072
 BYTE   W12
 BYTE   Dn4  v096
 BYTE   W12
 BYTE   N24  En4  v092
 BYTE   W24
//  #01 //025   ----------------------------------------
 BYTE   N12  Fn4  v088
 BYTE   W12
 BYTE   N36  Dn4  v076
 BYTE   W30
 BYTE   W06
 BYTE   CnM2
 BYTE   N09  Cn4
 BYTE   W12
 BYTE   N09
 BYTE   W12
 BYTE   N06  Bn3
 BYTE   W06
 BYTE   Cn4  v084
 BYTE   W06
 BYTE   N36  Dn4  v092
 BYTE   W30
//  #01 //026   ----------------------------------------
 BYTE   W06
 BYTE   CnM2
 BYTE   N09  En4
 BYTE   W12
 BYTE   En4  v080
 BYTE   W12
 BYTE   N06  Dn4  v072
 BYTE   W06
 BYTE   En4  v092
 BYTE   W06
 BYTE   N36  Fn4
 BYTE   W30
 BYTE   W06
 BYTE   CnM2
 BYTE   N07  Cn4  v084
 BYTE   W12
 BYTE   Cn4  v096
 BYTE   W12
//  #01 //027   ----------------------------------------
 BYTE   N06  Bn3  v076
 BYTE   W06
 BYTE   Cn4  v088
 BYTE   W06
 BYTE   N12  Dn4
 BYTE   W12
 BYTE   Gn3  v072
 BYTE   W12
 BYTE   Dn4  v096
 BYTE   W12
 BYTE   N72  Cn4  v076
 BYTE   W72
//  #01 //028   ----------------------------------------
 BYTE   TEMPO   92*MarionCourse_tbs/2
 BYTE   N24  Cn4  v084
 BYTE   W24
 BYTE   N06  Bn3  v080
 BYTE   W06
 BYTE   An3  v076
 BYTE   W06
 BYTE   N12  Gn3  v080
 BYTE   W12
 BYTE   Fn3
 BYTE   W12
 BYTE   En3  v084
 BYTE   W12
 BYTE   Dn3  v080
 BYTE   W12
 BYTE   En3  v092
 BYTE   W12
//  #01 //029   ----------------------------------------
 BYTE   Fn3  v088
 BYTE   W12
 BYTE   N24  Gn3
 BYTE   W24
 BYTE   N12  Bn2  v080
 BYTE   W12
 BYTE   N06  Cn3  v088
 BYTE   W06
 BYTE   Dn3  v092
 BYTE   W06
 BYTE   En3
 BYTE   W06
 BYTE   Fn3
 BYTE   W06
 BYTE   Gn3
 BYTE   W06
 BYTE   An3  v096
 BYTE   W06
 BYTE   N24  Gn3  v080
 BYTE   W24
//  #01 //030   ----------------------------------------
 BYTE   N12  Cn4  v096
 BYTE   W12
 BYTE   N36  Bn3  v088
 BYTE   W36
 BYTE   Gn3  v076
 BYTE   W36
 BYTE   N24  Cn4  v092
 BYTE   W24
//  #01 //031   ----------------------------------------
 BYTE   N06  Bn3  v084
 BYTE   W06
 BYTE   An3
 BYTE   W06
 BYTE   N12  Gn3
 BYTE   W12
 BYTE   Fn3  v080
 BYTE   W12
 BYTE   En3
 BYTE   W12
 BYTE   Dn3  v076
 BYTE   W12
 BYTE   En3  v088
 BYTE   W12
 BYTE   Fn3  v092
 BYTE   W12
 BYTE   N24  Gn3
 BYTE   W24
//  #01 //032   ----------------------------------------
 BYTE   N12  Dn3  v072
 BYTE   W12
 BYTE   N06  An3  v096
 BYTE   W06
 BYTE   Gn3  v080
 BYTE   W06
 BYTE   Fn3  v084
 BYTE   W06
 BYTE   Gn3  v092
 BYTE   W06
 BYTE   En3  v076
 BYTE   W06
 BYTE   Fn3  v084
 BYTE   W06
 BYTE   N12  Cn3  v072
 BYTE   W12
 BYTE   Cn4  v104
 BYTE   W12
 BYTE   Cn3  v068
 BYTE   W12
 BYTE   Bn3  v100
 BYTE   W12
//  #01 //033   ----------------------------------------
 BYTE   An3  v084
 BYTE   W12
 BYTE   Gn3  v080
 BYTE   W12
 BYTE   Fn3  v076
 BYTE   W12
 BYTE   En3  v084
 BYTE   W12
 BYTE   Dn3  v080
 BYTE   W12
 BYTE   N09  Cn4  v108
 BYTE   W12
 BYTE   Cn4  v076
 BYTE   W12
 BYTE   N06  Bn3  v072
 BYTE   W06
 BYTE   Cn4  v084
 BYTE   W06
//  #01 //034   ----------------------------------------
 BYTE   N36  Dn4  v092
 BYTE   W30
 BYTE   W06
 BYTE   CnM2
 BYTE   N09  En4
 BYTE   W12
 BYTE   En4  v076
 BYTE   W12
 BYTE   N06  Dn4
 BYTE   W06
 BYTE   En4  v088
 BYTE   W06
 BYTE   N36  Fn4  v092
 BYTE   W30
//  #01 //035   ----------------------------------------
 BYTE   W06
 BYTE   CnM2
 BYTE   N09  Cn4  v076
 BYTE   W12
 BYTE   Cn4  v080
 BYTE   W12
 BYTE   N06  Bn3
 BYTE   W06
 BYTE   Cn4  v088
 BYTE   W06
 BYTE   N12  Dn4  v092
 BYTE   W12
 BYTE   Gn3  v072
 BYTE   W12
 BYTE   Dn4  v092
 BYTE   W12
 BYTE   N24  En4
 BYTE   W24
//  #01 //036   ----------------------------------------
 BYTE   N12  Fn4
 BYTE   W12
 BYTE   N36  Dn4  v080
 BYTE   W30
 BYTE   W06
 BYTE   CnM2
 BYTE   N09  Cn4  v076
 BYTE   W12
 BYTE   N09
 BYTE   W12
 BYTE   N06  Bn3
 BYTE   W06
 BYTE   Cn4  v088
 BYTE   W06
 BYTE   N36  Dn4  v084
 BYTE   W30
//  #01 //037   ----------------------------------------
 BYTE   W06
 BYTE   CnM2
 BYTE   N09  En4  v088
 BYTE   W12
 BYTE   En4  v076
 BYTE   W12
 BYTE   N06  Dn4
 BYTE   W06
 BYTE   En4  v088
 BYTE   W06
 BYTE   N36  Fn4
 BYTE   W30
 BYTE   W06
 BYTE   CnM2
 BYTE   N07  Cn4  v084
 BYTE   W12
 BYTE   Cn4  v088
 BYTE   W12
//  #01 //038   ----------------------------------------
 BYTE   N06  Bn3  v076
 BYTE   W06
 BYTE   Cn4  v092
 BYTE   W06
 BYTE   N12  Dn4
 BYTE   W12
 BYTE   Gn3  v068
 BYTE   W12
 BYTE   Dn4  v092
 BYTE   W12
 BYTE   N72  Cn4  v080
 BYTE   W72
//  #01 //039   ----------------------------------------
 BYTE   N24  Cn4  v084
 BYTE   W24
 BYTE   N06  Bn3  v080
 BYTE   W06
 BYTE   An3
 BYTE   W06
 BYTE   N12  Gn3
 BYTE   W12
 BYTE   Fn3  v084
 BYTE   W12
 BYTE   En3  v076
 BYTE   W12
 BYTE   Dn3  v080
 BYTE   W12
 BYTE   En3  v088
 BYTE   W12
//  #01 //040   ----------------------------------------
 BYTE   Fn3  v092
 BYTE   W12
 BYTE   N24  Gn3  v088
 BYTE   W24
 BYTE   N12  Bn2  v080
 BYTE   W12
 BYTE   N06  Cn3  v092
 BYTE   W06
 BYTE   Dn3
 BYTE   W06
 BYTE   En3
 BYTE   W06
 BYTE   Fn3  v088
 BYTE   W06
 BYTE   Gn3  v092
 BYTE   W06
 BYTE   An3
 BYTE   W06
 BYTE   N24  Gn3  v084
 BYTE   W24
//  #01 //041   ----------------------------------------
 BYTE   N12  Cn4  v096
 BYTE   W12
//  #01 //042   ----------------------------------------
 BYTE   PATT
  POIN2 Label_012C6A39
//  #01 //043   ----------------------------------------
 BYTE   N24  Cn4  v100
 BYTE   W24
 BYTE   N06  Bn3  v084
 BYTE   W06
 BYTE   An3  v080
 BYTE   W06
 BYTE   N12  Gn3  v076
 BYTE   W12
 BYTE   Fn3
 BYTE   W12
 BYTE   En3  v080
 BYTE   W12
 BYTE   Dn3
 BYTE   W12
 BYTE   En3  v088
 BYTE   W12
//  #01 //044   ----------------------------------------
 BYTE   Fn3
 BYTE   W12
 BYTE   N24  Gn3  v092
 BYTE   W24
 BYTE   N12  Dn3  v072
 BYTE   W12
 BYTE   N06  An3  v104
 BYTE   W06
 BYTE   Gn3  v084
 BYTE   W06
 BYTE   Fn3  v076
 BYTE   W06
 BYTE   Gn3  v092
 BYTE   W06
 BYTE   En3  v076
 BYTE   W06
 BYTE   Fn3  v088
 BYTE   W06
 BYTE   N12  Cn3  v072
 BYTE   W12
//  #01 //045   ----------------------------------------
 BYTE   Cn4  v104
 BYTE   W12
 BYTE   Cn3  v068
 BYTE   W12
 BYTE   Bn3  v100
 BYTE   W12
 BYTE   An3  v080
 BYTE   W12
 BYTE   Gn3
 BYTE   W12
 BYTE   Fn3  v076
 BYTE   W12
 BYTE   En3  v080
 BYTE   W12
 BYTE   Dn3  v076
 BYTE   W12
//  #01 //046   ----------------------------------------
 BYTE   N06  Cn4  v104
 BYTE   W06
 BYTE   Gn3  v076
 BYTE   W06
 BYTE   Cn4  v096
 BYTE   W06
 BYTE   Dn4  v092
 BYTE   W06
 BYTE   Gn3  v068
 BYTE   W06
 BYTE   Dn4  v100
 BYTE   W06
 BYTE   En4  v092
 BYTE   W06
 BYTE   Gn3  v064
 BYTE   W06
 BYTE   En4  v104
 BYTE   W06
 BYTE   Fn4  v088
 BYTE   W06
 BYTE   En4  v084
 BYTE   W06
 BYTE   Dn4  v076
 BYTE   W06
 BYTE   En4  v088
 BYTE   W06
 BYTE   Gn3  v064
 BYTE   W06
 BYTE   Gn3  v080
 BYTE   W06
 BYTE   Dn4  v100
 BYTE   W06
//  #01 //047   ----------------------------------------
 BYTE   Cn4  v084
 BYTE   W06
 BYTE   Bn3
 BYTE   W06
 BYTE   Cn4  v088
 BYTE   W06
 BYTE   Gn3  v076
 BYTE   W06
 BYTE   En3
 BYTE   W06
 BYTE   Gn3  v092
 BYTE   W06
 BYTE   Cn3  v072
 BYTE   W06
 BYTE   Gn3  v096
 BYTE   W06
 BYTE   Cn4
 BYTE   W06
 BYTE   Gn3  v076
 BYTE   W06
 BYTE   Gn3  v088
 BYTE   W06
 BYTE   Dn4  v104
 BYTE   W06
 BYTE   Gn3  v072
 BYTE   W06
 BYTE   Gn3  v088
 BYTE   W06
 BYTE   En4  v104
 BYTE   W06
 BYTE   Dn4  v084
 BYTE   W06
//  #01 //048   ----------------------------------------
 BYTE   Cn4  v072
 BYTE   W06
 BYTE   Fn4  v100
 BYTE   W06
 BYTE   En4  v080
 BYTE   W06
 BYTE   Dn4
 BYTE   W06
 BYTE   Bn3  v076
 BYTE   W06
 BYTE   Cn4  v088
 BYTE   W06
 BYTE   Dn4  v092
 BYTE   W06
 BYTE   Cn4  v080
 BYTE   W06
 BYTE   Gn3  v076
 BYTE   W06
 BYTE   Cn4  v092
 BYTE   W06
 BYTE   N12  Gn3  v076
 BYTE   W12
 BYTE   Cn4  v096
 BYTE   W12
 BYTE   Cn3  v064
 BYTE   W12
//  #01 //049   ----------------------------------------
 BYTE   N06  Cn4  v108
 BYTE   W06
 BYTE   Gn3  v076
 BYTE   W06
 BYTE   Cn4  v088
 BYTE   W06
 BYTE   Dn4  v092
 BYTE   W06
 BYTE   Gn3  v068
 BYTE   W06
 BYTE   Dn4  v096
 BYTE   W06
 BYTE   En4  v092
 BYTE   W06
 BYTE   Gn3  v072
 BYTE   W06
 BYTE   En4  v100
 BYTE   W06
 BYTE   Fn4  v092
 BYTE   W06
 BYTE   En4  v084
 BYTE   W06
 BYTE   Dn4  v080
 BYTE   W06
 BYTE   En4  v088
 BYTE   W06
 BYTE   Gn3  v072
 BYTE   W06
 BYTE   Gn3  v076
 BYTE   W06
 BYTE   Dn4  v100
 BYTE   W06
//  #01 //050   ----------------------------------------
 BYTE   Cn4  v084
 BYTE   W06
 BYTE   Bn3  v080
 BYTE   W06
 BYTE   Cn4  v084
 BYTE   W06
 BYTE   Gn3  v072
 BYTE   W06
 BYTE   En3  v076
 BYTE   W06
 BYTE   Gn3  v092
 BYTE   W06
 BYTE   Cn3  v068
 BYTE   W06
 BYTE   Gn3  v100
 BYTE   W06
 BYTE   Cn4  v096
 BYTE   W06
 BYTE   Gn3  v076
 BYTE   W06
 BYTE   Gn3  v080
 BYTE   W06
 BYTE   Dn4  v100
 BYTE   W06
 BYTE   Gn3  v072
 BYTE   W06
 BYTE   Gn3  v080
 BYTE   W06
 BYTE   En4  v100
 BYTE   W06
 BYTE   Dn4  v084
 BYTE   W06
//  #01 //051   ----------------------------------------
 BYTE   Cn4
 BYTE   W06
 BYTE   Fn4  v100
 BYTE   W06
 BYTE   En4  v084
 BYTE   W06
 BYTE   Dn4
 BYTE   W06
 BYTE   Bn3  v080
 BYTE   W06
 BYTE   Cn4  v088
 BYTE   W06
 BYTE   Dn4  v092
 BYTE   W06
 BYTE   Cn4  v076
 BYTE   W06
 BYTE   Gn3  v072
 BYTE   W06
 BYTE   Cn4  v096
 BYTE   W06
 BYTE   N12  Gn3  v076
 BYTE   W12
 BYTE   Cn4  v096
 BYTE   W12
 BYTE   Cn3  v064
 BYTE   W12
//  #01 //052   ----------------------------------------
 BYTE   N09  Cn4  v104
 BYTE   W12
 BYTE   Cn4  v076
 BYTE   W12
 BYTE   N06  Bn3
 BYTE   W06
 BYTE   Cn4  v084
 BYTE   W06
 BYTE   N36  Dn4  v088
 BYTE   W30
 BYTE   W06
 BYTE   CnM2
 BYTE   N09  En4  v092
 BYTE   W12
 BYTE   En4  v076
 BYTE   W12
//  #01 //053   ----------------------------------------
 BYTE   N06  Dn4
 BYTE   W06
 BYTE   En4  v088
 BYTE   W06
 BYTE   N36  Fn4
 BYTE   W30
 BYTE   W06
 BYTE   CnM2
 BYTE   N09  Cn4  v076
 BYTE   W12
 BYTE   Cn4  v080
 BYTE   W12
 BYTE   N06  Bn3  v076
 BYTE   W06
 BYTE   Cn4  v088
 BYTE   W06
 BYTE   N12  Dn4  v092
 BYTE   W12
//  #01 //054   ----------------------------------------
 BYTE   Gn3  v072
 BYTE   W12
 BYTE   Dn4  v096
 BYTE   W12
 BYTE   N24  En4  v092
 BYTE   W24
 BYTE   N12  Fn4  v096
 BYTE   W12
 BYTE   N36  Dn4  v076
 BYTE   W30
 BYTE   W06
//  #01 //055   ----------------------------------------
 BYTE   CnM2
 BYTE   N09  Cn4  v080
 BYTE   W12
 BYTE   Cn4  v076
 BYTE   W12
 BYTE   N06  Bn3  v084
 BYTE   W06
 BYTE   Cn4
 BYTE   W06
 BYTE   N36  Dn4  v088
 BYTE   W30
 BYTE   W06
 BYTE   CnM2
 BYTE   N09  En4  v092
 BYTE   W12
 BYTE   En4  v076
 BYTE   W12
//  #01 //056   ----------------------------------------
 BYTE   N06  Dn4  v080
 BYTE   W06
 BYTE   En4  v084
 BYTE   W06
 BYTE   N36  Fn4
 BYTE   W30
 BYTE   W06
 BYTE   CnM2
 BYTE   N07  Cn4
 BYTE   W12
 BYTE   Cn4  v092
 BYTE   W12
 BYTE   N06  Bn3  v080
 BYTE   W06
 BYTE   Cn4  v084
 BYTE   W06
 BYTE   N12  Dn4  v092
 BYTE   W12
//  #01 //057   ----------------------------------------
 BYTE   Gn3  v076
 BYTE   W12
 BYTE   Dn4  v096
 BYTE   W12
 BYTE   N72  Cn4  v084
 BYTE   W72
//  #01 //058   ----------------------------------------
 BYTE   GoTo
  POIN2 Label_012C69F6
 BYTE   FINE

//**************** Track 2 (Midi-Chn.1) ****************//

MarionCourse_002:
//  #02 //000   ----------------------------------------
 BYTE   KEYSH   MarionCourse_key+0
Label_012C70C2:
 BYTE   VOICE   68
 BYTE   PAN   c_v-10
 BYTE   VOL   38*MarionCourse_mvl/mxv
 BYTE   N24  En3  v080
 BYTE   W24
 BYTE   N06  Dn3
 BYTE   W06
 BYTE   Cn3
 BYTE   W06
 BYTE   N12  Cn3  v088
 BYTE   W12
 BYTE   An2  v080
 BYTE   W12
 BYTE   Gn2
 BYTE   W12
 BYTE   Bn2  v092
 BYTE   W12
 BYTE   Cn3
 BYTE   W12
//  #02 //001   ----------------------------------------
 BYTE   Dn3
 BYTE   W12
 BYTE   N24  Dn3  v084
 BYTE   W24
 BYTE   N12  Gn2  v080
 BYTE   W12
 BYTE   N06  Gn2  v088
 BYTE   W06
 BYTE   Bn2  v092
 BYTE   W06
 BYTE   Cn3  v088
 BYTE   W06
 BYTE   Dn3
 BYTE   W06
 BYTE   En3
 BYTE   W06
 BYTE   Fn3
 BYTE   W06
 BYTE   N24  En3  v084
 BYTE   W24
//  #02 //002   ----------------------------------------
 BYTE   N12  Gn3  v096
 BYTE   W12
Label_012C7101:
 BYTE   N36  Gn3  v088
 BYTE   W36
 BYTE   Dn3  v076
 BYTE   W36
 BYTE   PEND 
 BYTE   N24  En3  v088
 BYTE   W24
//  #02 //003   ----------------------------------------
 BYTE   N06  Dn3  v080
 BYTE   W06
 BYTE   Cn3
 BYTE   W06
 BYTE   N12  Cn3  v088
 BYTE   W12
 BYTE   An2  v080
 BYTE   W12
 BYTE   Gn2  v084
 BYTE   W12
 BYTE   Bn2  v092
 BYTE   W12
 BYTE   Cn3  v084
 BYTE   W12
 BYTE   Dn3  v092
 BYTE   W12
 BYTE   N24  Dn3  v088
 BYTE   W24
//  #02 //004   ----------------------------------------
 BYTE   N12  Gn2  v076
 BYTE   W12
 BYTE   N06  Fn3  v100
 BYTE   W06
 BYTE   En3  v080
 BYTE   W06
 BYTE   Dn3
 BYTE   W06
 BYTE   En3  v084
 BYTE   W06
 BYTE   Cn3  v076
 BYTE   W06
 BYTE   Dn3  v088
 BYTE   W06
 BYTE   N12  Fn2  v072
 BYTE   W12
 BYTE   Fn3  v108
 BYTE   W12
 BYTE   Fn2  v072
 BYTE   W12
 BYTE   Gn3  v108
 BYTE   W12
//  #02 //005   ----------------------------------------
 BYTE   Fn3  v084
 BYTE   W12
 BYTE   En3  v080
 BYTE   W12
 BYTE   Dn3  v084
 BYTE   W12
 BYTE   Cn3  v080
 BYTE   W12
 BYTE   Bn2
 BYTE   W12
 BYTE   N06  Cn3  v088
 BYTE   W06
 BYTE   Gn2  v076
 BYTE   W06
 BYTE   En2  v080
 BYTE   W06
 BYTE   Gn2  v088
 BYTE   W06
 BYTE   Cn2  v076
 BYTE   W06
 BYTE   En2  v084
 BYTE   W06
//  #02 //006   ----------------------------------------
 BYTE   Gn2
 BYTE   W06
 BYTE   Dn2  v080
 BYTE   W06
 BYTE   Bn2  v092
 BYTE   W06
 BYTE   Gn2  v084
 BYTE   W06
 BYTE   Dn3  v100
 BYTE   W06
 BYTE   Gn2  v076
 BYTE   W06
 BYTE   Cn3  v092
 BYTE   W06
 BYTE   Gn2  v084
 BYTE   W06
 BYTE   Dn2
 BYTE   W06
 BYTE   En3  v104
 BYTE   W06
 BYTE   Cn3  v080
 BYTE   W06
 BYTE   Gn2  v076
 BYTE   W06
 BYTE   An2  v088
 BYTE   W06
 BYTE   Fn2  v084
 BYTE   W06
 BYTE   Cn3  v100
 BYTE   W06
 BYTE   An2  v084
 BYTE   W06
//  #02 //007   ----------------------------------------
 BYTE   Fn3  v100
 BYTE   W06
 BYTE   Cn3  v076
 BYTE   W06
 BYTE   Gn2  v080
 BYTE   W06
 BYTE   Dn2
 BYTE   W06
 BYTE   Cn3  v104
 BYTE   W06
 BYTE   Gn2  v084
 BYTE   W06
 BYTE   En3  v104
 BYTE   W06
 BYTE   Cn3  v076
 BYTE   W06
 BYTE   Gn2  v080
 BYTE   W06
 BYTE   Dn2
 BYTE   W06
 BYTE   Bn2  v096
 BYTE   W06
 BYTE   Gn2  v084
 BYTE   W06
 BYTE   Dn3  v104
 BYTE   W06
 BYTE   Bn2  v084
 BYTE   W06
 BYTE   Fn2  v076
 BYTE   W06
 BYTE   Dn2  v080
 BYTE   W06
//  #02 //008   ----------------------------------------
 BYTE   An2  v096
 BYTE   W06
 BYTE   Fn2  v080
 BYTE   W06
 BYTE   Cn3  v096
 BYTE   W06
 BYTE   An2  v084
 BYTE   W06
 BYTE   Bn2
 BYTE   W06
 BYTE   Dn2  v076
 BYTE   W06
 BYTE   Gn2  v092
 BYTE   W06
 BYTE   Bn2
 BYTE   W06
 BYTE   Dn3
 BYTE   W06
 BYTE   Bn2  v080
 BYTE   W06
 BYTE   Gn2
 BYTE   W06
 BYTE   En2
 BYTE   W06
 BYTE   Cn3  v104
 BYTE   W06
 BYTE   Gn2  v076
 BYTE   W06
 BYTE   En3  v104
 BYTE   W06
 BYTE   Cn3  v080
 BYTE   W06
//  #02 //009   ----------------------------------------
 BYTE   Bn2  v088
 BYTE   W06
 BYTE   Gn2  v080
 BYTE   W06
 BYTE   Dn2  v076
 BYTE   W06
 BYTE   Dn3  v108
 BYTE   W06
 BYTE   Bn2  v080
 BYTE   W06
 BYTE   Gn2  v084
 BYTE   W06
 BYTE   N06
 BYTE   W06
 BYTE   En2
 BYTE   W06
 BYTE   Cn3  v104
 BYTE   W06
 BYTE   Gn2  v080
 BYTE   W06
 BYTE   En3  v104
 BYTE   W06
 BYTE   Cn3  v080
 BYTE   W06
 BYTE   An2
 BYTE   W06
 BYTE   Fn2
 BYTE   W06
 BYTE   Cn3  v096
 BYTE   W06
 BYTE   An2  v092
 BYTE   W06
//  #02 //010   ----------------------------------------
 BYTE   Fn2  v080
 BYTE   W06
 BYTE   Cn2  v076
 BYTE   W06
 BYTE   Gn2  v088
 BYTE   W06
 BYTE   En2  v084
 BYTE   W06
 BYTE   Cn3  v104
 BYTE   W06
 BYTE   Gn2  v084
 BYTE   W06
 BYTE   En3  v108
 BYTE   W06
 BYTE   Cn3  v080
 BYTE   W06
 BYTE   Bn2  v084
 BYTE   W06
 BYTE   Gn2  v080
 BYTE   W06
 BYTE   Dn2  v076
 BYTE   W06
 BYTE   Dn3  v104
 BYTE   W06
 BYTE   Bn2  v092
 BYTE   W06
 BYTE   Gn2  v076
 BYTE   W06
 BYTE   Cn2
 BYTE   W06
 BYTE   Cn2  v088
 BYTE   W06
//  #02 //011   ----------------------------------------
 BYTE   En2
 BYTE   W06
 BYTE   Gn2
 BYTE   W06
 BYTE   Cn3  v096
 BYTE   W06
 BYTE   En2  v076
 BYTE   W06
 BYTE   En3  v104
 BYTE   W06
 BYTE   Cn3  v076
 BYTE   W06
 BYTE   Gn2  v080
 BYTE   W06
 BYTE   Cn3  v100
 BYTE   W06
 BYTE   En2  v076
 BYTE   W06
 BYTE   Gn3  v104
 BYTE   W06
 BYTE   N24  En3  v076
 BYTE   W24
 BYTE   N06  Dn3
 BYTE   W06
 BYTE   Cn3  v084
 BYTE   W06
//  #02 //012   ----------------------------------------
 BYTE   N12  Cn3  v080
 BYTE   W12
 BYTE   An2  v084
 BYTE   W12
 BYTE   Gn2
 BYTE   W12
 BYTE   Bn2  v088
 BYTE   W12
 BYTE   Cn3
 BYTE   W12
 BYTE   Dn3
 BYTE   W12
 BYTE   N24  Dn3  v084
 BYTE   W24
//  #02 //013   ----------------------------------------
 BYTE   N12  Gn2  v076
 BYTE   W12
 BYTE   N06  Gn2  v084
 BYTE   W06
 BYTE   Bn2  v088
 BYTE   W06
 BYTE   Cn3
 BYTE   W06
 BYTE   Dn3  v092
 BYTE   W06
 BYTE   En3  v088
 BYTE   W06
 BYTE   Fn3  v096
 BYTE   W06
 BYTE   N24  En3  v080
 BYTE   W24
 BYTE   N12  Gn3  v092
 BYTE   W12
//  #02 //014   ----------------------------------------
 BYTE   PATT
  POIN2 Label_012C7101
//  #02 //015   ----------------------------------------
 BYTE   N24  En3  v088
 BYTE   W24
 BYTE   N06  Dn3  v080
 BYTE   W06
 BYTE   Cn3  v076
 BYTE   W06
 BYTE   N12  Cn3  v084
 BYTE   W12
 BYTE   An2
 BYTE   W12
 BYTE   Gn2
 BYTE   W12
 BYTE   Bn2  v088
 BYTE   W12
 BYTE   Cn3  v092
 BYTE   W12
//  #02 //016   ----------------------------------------
 BYTE   Dn3
 BYTE   W12
 BYTE   N24  Dn3  v084
 BYTE   W24
 BYTE   N12  Gn2  v076
 BYTE   W12
 BYTE   N06  Fn3  v104
 BYTE   W06
 BYTE   En3  v084
 BYTE   W06
 BYTE   Dn3
 BYTE   W06
 BYTE   En3  v092
 BYTE   W06
 BYTE   Cn3  v076
 BYTE   W06
 BYTE   Dn3  v088
 BYTE   W06
 BYTE   N12  Fn2  v080
 BYTE   W12
//  #02 //017   ----------------------------------------
 BYTE   Fn3  v100
 BYTE   W12
 BYTE   Fn2  v076
 BYTE   W12
 BYTE   Gn3  v104
 BYTE   W12
 BYTE   Fn3  v084
 BYTE   W12
 BYTE   En3  v080
 BYTE   W12
 BYTE   Dn3
 BYTE   W12
 BYTE   Cn3
 BYTE   W12
 BYTE   Bn2  v084
 BYTE   W12
//  #02 //018   ----------------------------------------
 BYTE   W06
 BYTE   N06  Cn4  v060
 BYTE   W06
 BYTE   Gn3  v052
 BYTE   W06
 BYTE   Cn4  v072
 BYTE   W06
 BYTE   Dn4  v068
 BYTE   W06
 BYTE   Gn3  v048
 BYTE   W06
 BYTE   Dn4  v076
 BYTE   W06
 BYTE   En4  v068
 BYTE   W06
 BYTE   Gn3  v048
 BYTE   W06
 BYTE   En4  v072
 BYTE   W06
 BYTE   Fn4  v076
 BYTE   W06
 BYTE   En4  v064
 BYTE   W06
 BYTE   Dn4  v056
 BYTE   W06
 BYTE   En4  v064
 BYTE   W06
 BYTE   Gn3  v044
 BYTE   W06
 BYTE   Gn3  v060
 BYTE   W06
//  #02 //019   ----------------------------------------
 BYTE   Dn4  v072
 BYTE   W06
 BYTE   Cn4  v060
 BYTE   W06
 BYTE   Bn3  v056
 BYTE   W06
 BYTE   Cn4  v060
 BYTE   W06
 BYTE   Gn3  v052
 BYTE   W06
 BYTE   En3  v056
 BYTE   W06
 BYTE   Gn3  v064
 BYTE   W06
 BYTE   Cn3  v052
 BYTE   W06
 BYTE   Gn3  v072
 BYTE   W06
 BYTE   Cn4
 BYTE   W06
 BYTE   Gn3  v056
 BYTE   W06
 BYTE   Gn3  v060
 BYTE   W06
 BYTE   Dn4  v068
 BYTE   W06
 BYTE   Gn3  v056
 BYTE   W06
 BYTE   Gn3  v060
 BYTE   W06
 BYTE   En4  v072
 BYTE   W06
//  #02 //020   ----------------------------------------
 BYTE   Dn4  v060
 BYTE   W06
 BYTE   Cn4  v056
 BYTE   W06
 BYTE   Fn4  v076
 BYTE   W06
 BYTE   En4  v060
 BYTE   W06
 BYTE   Dn4  v056
 BYTE   W06
 BYTE   Gn3  v048
 BYTE   W06
 BYTE   Cn4  v072
 BYTE   W06
 BYTE   Dn4  v064
 BYTE   W06
 BYTE   Cn4  v056
 BYTE   W06
 BYTE   Gn3  v052
 BYTE   W06
 BYTE   Cn4  v068
 BYTE   W06
 BYTE   N12  Gn3  v052
 BYTE   W12
 BYTE   Cn4  v068
 BYTE   W12
 BYTE   N06  Cn3  v048
 BYTE   W06
//  #02 //021   ----------------------------------------
 BYTE   N10  Cn3  v092
 BYTE   W12
 BYTE   Gn2  v088
 BYTE   W12
 BYTE   Cn2  v092
 BYTE   W12
 BYTE   Cn3  v120
 BYTE   W12
 BYTE   Gn2  v096
 BYTE   W12
 BYTE   Cn2  v092
 BYTE   W12
 BYTE   Cn3  v112
 BYTE   W12
 BYTE   Gn2  v096
 BYTE   W12
//  #02 //022   ----------------------------------------
 BYTE   Cn2  v084
 BYTE   W12
 BYTE   Cn3  v120
 BYTE   W12
 BYTE   Gn2  v092
 BYTE   W12
 BYTE   Cn2
 BYTE   W12
 BYTE   Cn3  v120
 BYTE   W12
 BYTE   Gn2  v096
 BYTE   W12
 BYTE   Cn2  v088
 BYTE   W12
 BYTE   Cn3  v116
 BYTE   W12
//  #02 //023   ----------------------------------------
 BYTE   Gn2  v088
 BYTE   W12
 BYTE   Cn2
 BYTE   W12
 BYTE   Cn3  v120
 BYTE   W12
 BYTE   Gn2  v096
 BYTE   W12
 BYTE   Cn2  v088
 BYTE   W12
 BYTE   Cn3  v120
 BYTE   W12
 BYTE   Gn2  v100
 BYTE   W12
 BYTE   Cn2  v088
 BYTE   W12
//  #02 //024   ----------------------------------------
 BYTE   N06  Cn3  v104
 BYTE   W06
 BYTE   Gn2  v080
 BYTE   W06
 BYTE   En2  v084
 BYTE   W06
 BYTE   Gn2  v088
 BYTE   W06
 BYTE   Cn2  v076
 BYTE   W06
 BYTE   En2  v088
 BYTE   W06
 BYTE   Gn2
 BYTE   W06
 BYTE   Dn2  v080
 BYTE   W06
 BYTE   Bn2  v092
 BYTE   W06
 BYTE   Gn2  v080
 BYTE   W06
 BYTE   Dn3  v104
 BYTE   W06
 BYTE   Gn2  v080
 BYTE   W06
 BYTE   Cn3  v100
 BYTE   W06
 BYTE   Gn2  v080
 BYTE   W06
 BYTE   Dn2  v084
 BYTE   W06
 BYTE   En3  v108
 BYTE   W06
//  #02 //025   ----------------------------------------
 BYTE   Cn3  v080
 BYTE   W06
 BYTE   Gn2  v076
 BYTE   W06
 BYTE   An2  v080
 BYTE   W06
 BYTE   Fn2
 BYTE   W06
 BYTE   Cn3  v100
 BYTE   W06
 BYTE   An2  v088
 BYTE   W06
 BYTE   Fn3  v104
 BYTE   W06
 BYTE   Cn3  v076
 BYTE   W06
 BYTE   Gn2
 BYTE   W06
 BYTE   Dn2
 BYTE   W06
 BYTE   Cn3  v104
 BYTE   W06
 BYTE   Gn2  v084
 BYTE   W06
 BYTE   En3  v104
 BYTE   W06
 BYTE   Cn3  v080
 BYTE   W06
 BYTE   Gn2  v084
 BYTE   W06
 BYTE   Dn2  v076
 BYTE   W06
//  #02 //026   ----------------------------------------
 BYTE   Bn2  v092
 BYTE   W06
 BYTE   Gn2  v080
 BYTE   W06
 BYTE   Dn3  v092
 BYTE   W06
 BYTE   Bn2  v084
 BYTE   W06
 BYTE   Fn2  v080
 BYTE   W06
 BYTE   Dn2
 BYTE   W06
 BYTE   An2  v084
 BYTE   W06
 BYTE   Fn2  v076
 BYTE   W06
 BYTE   Cn3  v096
 BYTE   W06
 BYTE   An2  v084
 BYTE   W06
 BYTE   Bn2
 BYTE   W06
 BYTE   Dn2  v076
 BYTE   W06
 BYTE   Gn2  v088
 BYTE   W06
 BYTE   Bn2
 BYTE   W06
 BYTE   Dn3  v092
 BYTE   W06
 BYTE   Bn2  v084
 BYTE   W06
//  #02 //027   ----------------------------------------
 BYTE   Gn2  v080
 BYTE   W06
 BYTE   En2
 BYTE   W06
 BYTE   Cn3  v104
 BYTE   W06
 BYTE   Gn2  v084
 BYTE   W06
 BYTE   En3  v104
 BYTE   W06
 BYTE   Cn3  v080
 BYTE   W06
 BYTE   Bn2  v084
 BYTE   W06
 BYTE   Gn2  v080
 BYTE   W06
 BYTE   Dn2
 BYTE   W06
 BYTE   Dn3  v104
 BYTE   W06
 BYTE   Bn2  v088
 BYTE   W06
 BYTE   Gn2  v080
 BYTE   W06
 BYTE   Gn2  v084
 BYTE   W06
 BYTE   En2
 BYTE   W06
 BYTE   Cn3  v104
 BYTE   W06
 BYTE   Gn2  v080
 BYTE   W06
//  #02 //028   ----------------------------------------
 BYTE   En3  v100
 BYTE   W06
 BYTE   Cn3  v076
 BYTE   W06
 BYTE   An2  v080
 BYTE   W06
 BYTE   Fn2  v076
 BYTE   W06
 BYTE   Cn3  v100
 BYTE   W06
 BYTE   An2  v084
 BYTE   W06
 BYTE   Fn2
 BYTE   W06
 BYTE   Cn2  v080
 BYTE   W06
 BYTE   Gn2  v088
 BYTE   W06
 BYTE   En2  v080
 BYTE   W06
 BYTE   Cn3  v096
 BYTE   W06
 BYTE   Gn2  v080
 BYTE   W06
 BYTE   En3  v104
 BYTE   W06
 BYTE   Cn3  v080
 BYTE   W06
 BYTE   Bn2
 BYTE   W06
 BYTE   Gn2
 BYTE   W06
//  #02 //029   ----------------------------------------
 BYTE   Dn2
 BYTE   W06
 BYTE   Dn3  v108
 BYTE   W06
 BYTE   Bn2  v088
 BYTE   W06
 BYTE   Gn2  v084
 BYTE   W06
 BYTE   Cn2  v076
 BYTE   W06
 BYTE   Cn2  v080
 BYTE   W06
 BYTE   En2  v088
 BYTE   W06
 BYTE   Gn2  v092
 BYTE   W06
 BYTE   Cn3  v100
 BYTE   W06
 BYTE   En2  v076
 BYTE   W06
 BYTE   En3  v104
 BYTE   W06
 BYTE   Cn3  v076
 BYTE   W06
 BYTE   Gn2  v080
 BYTE   W06
 BYTE   Cn3  v088
 BYTE   W06
 BYTE   En2  v080
 BYTE   W06
 BYTE   Gn3  v108
 BYTE   W06
//  #02 //030   ----------------------------------------
 BYTE   N24  En3  v084
 BYTE   W24
 BYTE   N06  Dn3  v080
 BYTE   W06
 BYTE   Cn3
 BYTE   W06
 BYTE   N12
 BYTE   W12
 BYTE   An2  v084
 BYTE   W12
 BYTE   Gn2
 BYTE   W12
 BYTE   Bn2  v088
 BYTE   W12
 BYTE   Cn3
 BYTE   W12
//  #02 //031   ----------------------------------------
 BYTE   Dn3  v096
 BYTE   W12
 BYTE   N24  Dn3  v084
 BYTE   W24
 BYTE   N12  Gn2  v076
 BYTE   W12
 BYTE   N06  Gn2  v088
 BYTE   W06
 BYTE   Bn2  v092
 BYTE   W06
 BYTE   Cn3
 BYTE   W06
 BYTE   Dn3
 BYTE   W06
 BYTE   En3  v084
 BYTE   W06
 BYTE   Fn3
 BYTE   W06
 BYTE   N24  En3
 BYTE   W24
//  #02 //032   ----------------------------------------
 BYTE   N12  Gn3  v096
 BYTE   W12
 BYTE   N36  Gn3  v092
 BYTE   W36
 BYTE   Dn3  v072
 BYTE   W36
 BYTE   N24  En3  v084
 BYTE   W24
//  #02 //033   ----------------------------------------
 BYTE   N06  Dn3  v072
 BYTE   W06
 BYTE   Cn3  v076
 BYTE   W06
 BYTE   N12  Cn3  v080
 BYTE   W12
 BYTE   An2
 BYTE   W12
 BYTE   Gn2  v084
 BYTE   W12
 BYTE   Bn2  v088
 BYTE   W12
 BYTE   Cn3  v092
 BYTE   W12
 BYTE   Dn3
 BYTE   W12
 BYTE   N24  Dn3  v084
 BYTE   W24
//  #02 //034   ----------------------------------------
 BYTE   N12  Gn2  v080
 BYTE   W12
 BYTE   N06  Fn3  v108
 BYTE   W06
 BYTE   En3  v084
 BYTE   W06
 BYTE   Dn3
 BYTE   W06
 BYTE   En3  v080
 BYTE   W06
 BYTE   Cn3  v076
 BYTE   W06
 BYTE   Dn3  v088
 BYTE   W06
 BYTE   N12  Fn2  v076
 BYTE   W12
 BYTE   Fn3  v108
 BYTE   W12
 BYTE   Fn2  v076
 BYTE   W12
 BYTE   Gn3  v104
 BYTE   W12
//  #02 //035   ----------------------------------------
 BYTE   Fn3  v084
 BYTE   W12
 BYTE   En3  v080
 BYTE   W12
 BYTE   Dn3  v084
 BYTE   W12
 BYTE   Cn3  v076
 BYTE   W12
 BYTE   Bn2  v084
 BYTE   W12
 BYTE   N06  Cn3  v088
 BYTE   W06
 BYTE   Gn2  v080
 BYTE   W06
 BYTE   En2  v084
 BYTE   W06
 BYTE   Gn2  v088
 BYTE   W06
 BYTE   Cn2  v076
 BYTE   W06
 BYTE   En2  v088
 BYTE   W06
//  #02 //036   ----------------------------------------
 BYTE   Gn2
 BYTE   W06
 BYTE   Dn2  v084
 BYTE   W06
 BYTE   Bn2  v096
 BYTE   W06
 BYTE   Gn2  v080
 BYTE   W06
 BYTE   Dn3  v100
 BYTE   W06
 BYTE   Gn2  v084
 BYTE   W06
 BYTE   Cn3  v096
 BYTE   W06
 BYTE   Gn2  v080
 BYTE   W06
 BYTE   Dn2  v076
 BYTE   W06
 BYTE   En3  v112
 BYTE   W06
 BYTE   Cn3  v080
 BYTE   W06
 BYTE   Gn2  v084
 BYTE   W06
 BYTE   An2  v088
 BYTE   W06
 BYTE   Fn2  v080
 BYTE   W06
 BYTE   Cn3  v096
 BYTE   W06
 BYTE   An2  v088
 BYTE   W06
//  #02 //037   ----------------------------------------
 BYTE   Fn3  v104
 BYTE   W06
 BYTE   Cn3  v072
 BYTE   W06
 BYTE   Gn2  v076
 BYTE   W06
 BYTE   Dn2  v080
 BYTE   W06
 BYTE   Cn3  v104
 BYTE   W06
 BYTE   Gn2  v084
 BYTE   W06
 BYTE   En3  v100
 BYTE   W06
 BYTE   Cn3  v080
 BYTE   W06
 BYTE   Gn2  v076
 BYTE   W06
 BYTE   Dn2  v072
 BYTE   W06
 BYTE   Bn2  v092
 BYTE   W06
 BYTE   Gn2  v080
 BYTE   W06
 BYTE   Dn3  v096
 BYTE   W06
 BYTE   Bn2  v084
 BYTE   W06
 BYTE   Fn2  v080
 BYTE   W06
 BYTE   Dn2
 BYTE   W06
//  #02 //038   ----------------------------------------
 BYTE   An2  v088
 BYTE   W06
 BYTE   Fn2  v080
 BYTE   W06
 BYTE   Cn3  v100
 BYTE   W06
 BYTE   An2  v080
 BYTE   W06
 BYTE   Bn2  v088
 BYTE   W06
 BYTE   Dn2  v076
 BYTE   W06
 BYTE   Gn2  v092
 BYTE   W06
 BYTE   Bn2  v088
 BYTE   W06
 BYTE   Dn3  v096
 BYTE   W06
 BYTE   Bn2  v080
 BYTE   W06
 BYTE   Gn2
 BYTE   W06
 BYTE   En2  v076
 BYTE   W06
 BYTE   Cn3  v100
 BYTE   W06
 BYTE   Gn2  v084
 BYTE   W06
 BYTE   En3  v104
 BYTE   W06
 BYTE   Cn3  v080
 BYTE   W06
//  #02 //039   ----------------------------------------
 BYTE   Bn2  v084
 BYTE   W06
 BYTE   Gn2  v076
 BYTE   W06
 BYTE   Dn2  v080
 BYTE   W06
 BYTE   Dn3  v108
 BYTE   W06
 BYTE   Bn2  v088
 BYTE   W06
 BYTE   Gn2  v084
 BYTE   W06
 BYTE   Gn2  v080
 BYTE   W06
 BYTE   En2  v084
 BYTE   W06
 BYTE   Cn3  v096
 BYTE   W06
 BYTE   Gn2  v080
 BYTE   W06
 BYTE   En3  v108
 BYTE   W06
 BYTE   Cn3  v080
 BYTE   W06
 BYTE   An2  v076
 BYTE   W06
 BYTE   Fn2
 BYTE   W06
 BYTE   Cn3  v100
 BYTE   W06
 BYTE   An2  v084
 BYTE   W06
//  #02 //040   ----------------------------------------
 BYTE   Fn2
 BYTE   W06
 BYTE   Cn2  v076
 BYTE   W06
 BYTE   Gn2  v092
 BYTE   W06
 BYTE   En2  v084
 BYTE   W06
 BYTE   Cn3  v100
 BYTE   W06
 BYTE   Gn2  v076
 BYTE   W06
 BYTE   En3  v108
 BYTE   W06
 BYTE   Cn3  v080
 BYTE   W06
 BYTE   Bn2
 BYTE   W06
 BYTE   Gn2  v076
 BYTE   W06
 BYTE   Dn2  v080
 BYTE   W06
 BYTE   Dn3  v104
 BYTE   W06
 BYTE   Bn2  v084
 BYTE   W06
 BYTE   Gn2
 BYTE   W06
 BYTE   Cn2  v072
 BYTE   W06
 BYTE   Cn2  v080
 BYTE   W06
//  #02 //041   ----------------------------------------
 BYTE   En2  v088
 BYTE   W06
 BYTE   Gn2
 BYTE   W06
 BYTE   Cn3  v096
 BYTE   W06
 BYTE   En2  v076
 BYTE   W06
 BYTE   En3  v104
 BYTE   W06
 BYTE   Cn3  v080
 BYTE   W06
 BYTE   Gn2
 BYTE   W06
 BYTE   Cn3  v096
 BYTE   W06
 BYTE   En2  v076
 BYTE   W06
 BYTE   Gn3  v108
 BYTE   W06
 BYTE   N24  En3  v080
 BYTE   W24
 BYTE   N06  Dn3  v076
 BYTE   W06
 BYTE   Cn3
 BYTE   W06
//  #02 //042   ----------------------------------------
 BYTE   N12  Cn3  v084
 BYTE   W12
 BYTE   An2
 BYTE   W12
 BYTE   Gn2
 BYTE   W12
 BYTE   Bn2  v088
 BYTE   W12
 BYTE   Cn3
 BYTE   W12
 BYTE   Dn3
 BYTE   W12
 BYTE   N24  Dn3  v084
 BYTE   W24
//  #02 //043   ----------------------------------------
 BYTE   N12  Gn2  v080
 BYTE   W12
 BYTE   N06
 BYTE   W06
 BYTE   Bn2  v092
 BYTE   W06
 BYTE   Cn3
 BYTE   W06
 BYTE   Dn3
 BYTE   W06
 BYTE   En3
 BYTE   W06
 BYTE   Fn3  v088
 BYTE   W06
 BYTE   N24  En3  v084
 BYTE   W24
 BYTE   N12  Gn3  v096
 BYTE   W12
 BYTE   N36  Gn3  v092
 BYTE   W36
//  #02 //044   ----------------------------------------
 BYTE   Dn3  v068
 BYTE   W36
 BYTE   N24  En3  v088
 BYTE   W24
 BYTE   N06  Dn3  v084
 BYTE   W06
 BYTE   Cn3
 BYTE   W06
 BYTE   N12  Cn3  v080
 BYTE   W12
 BYTE   An2  v084
 BYTE   W12
//  #02 //045   ----------------------------------------
 BYTE   Gn2  v076
 BYTE   W12
 BYTE   Bn2  v084
 BYTE   W12
 BYTE   Cn3  v088
 BYTE   W12
 BYTE   Dn3  v092
 BYTE   W12
 BYTE   N24  Dn3  v084
 BYTE   W24
 BYTE   N12  Gn2  v076
 BYTE   W12
 BYTE   N06  Fn3  v100
 BYTE   W06
 BYTE   En3  v088
 BYTE   W06
//  #02 //046   ----------------------------------------
 BYTE   Dn3  v080
 BYTE   W06
 BYTE   En3  v088
 BYTE   W06
 BYTE   Cn3  v080
 BYTE   W06
 BYTE   Dn3  v084
 BYTE   W06
 BYTE   N12  Fn2  v076
 BYTE   W12
 BYTE   Fn3  v100
 BYTE   W12
 BYTE   Fn2  v080
 BYTE   W12
 BYTE   Gn3  v100
 BYTE   W12
 BYTE   Fn3  v088
 BYTE   W12
 BYTE   En3  v084
 BYTE   W12
//  #02 //047   ----------------------------------------
 BYTE   Dn3
 BYTE   W12
 BYTE   Cn3  v080
 BYTE   W12
 BYTE   Bn2
 BYTE   W12
 BYTE   W06
 BYTE   N06  Cn4  v056
 BYTE   W06
 BYTE   Gn3
 BYTE   W06
 BYTE   Cn4  v068
 BYTE   W06
 BYTE   Dn4
 BYTE   W06
 BYTE   Gn3  v052
 BYTE   W06
 BYTE   Dn4  v068
 BYTE   W06
 BYTE   En4  v072
 BYTE   W06
 BYTE   Gn3  v052
 BYTE   W06
 BYTE   En4  v080
 BYTE   W06
//  #02 //048   ----------------------------------------
 BYTE   Fn4  v068
 BYTE   W06
 BYTE   En4  v060
 BYTE   W06
 BYTE   Dn4  v056
 BYTE   W06
 BYTE   En4  v068
 BYTE   W06
 BYTE   Gn3  v044
 BYTE   W06
 BYTE   Gn3  v060
 BYTE   W06
 BYTE   Dn4  v080
 BYTE   W06
 BYTE   Cn4  v060
 BYTE   W06
 BYTE   Bn3  v064
 BYTE   W06
 BYTE   Cn4
 BYTE   W06
 BYTE   Gn3  v056
 BYTE   W06
 BYTE   En3
 BYTE   W06
 BYTE   Gn3  v068
 BYTE   W06
 BYTE   Cn3  v056
 BYTE   W06
 BYTE   Gn3  v068
 BYTE   W06
 BYTE   Cn4  v072
 BYTE   W06
//  #02 //049   ----------------------------------------
 BYTE   Gn3  v052
 BYTE   W06
 BYTE   Gn3  v060
 BYTE   W06
 BYTE   Dn4  v076
 BYTE   W06
 BYTE   Gn3  v060
 BYTE   W06
 BYTE   N06
 BYTE   W06
 BYTE   En4  v076
 BYTE   W06
 BYTE   Dn4  v060
 BYTE   W06
 BYTE   Cn4  v056
 BYTE   W06
 BYTE   Fn4  v072
 BYTE   W06
 BYTE   En4  v056
 BYTE   W06
 BYTE   Dn4  v060
 BYTE   W06
 BYTE   Gn3  v056
 BYTE   W06
 BYTE   Cn4  v068
 BYTE   W06
 BYTE   Dn4  v064
 BYTE   W06
 BYTE   Cn4  v060
 BYTE   W06
 BYTE   Gn3  v056
 BYTE   W06
//  #02 //050   ----------------------------------------
 BYTE   Cn4  v068
 BYTE   W06
 BYTE   N12  Gn3  v056
 BYTE   W12
 BYTE   Cn4  v072
 BYTE   W12
 BYTE   N06  Cn3  v048
 BYTE   W06
 BYTE   N10  Cn3  v096
 BYTE   W12
 BYTE   Gn2  v092
 BYTE   W12
 BYTE   Cn2  v088
 BYTE   W12
 BYTE   Cn3  v116
 BYTE   W12
 BYTE   Gn2  v096
 BYTE   W12
//  #02 //051   ----------------------------------------
 BYTE   Cn2  v092
 BYTE   W12
 BYTE   Cn3  v120
 BYTE   W12
 BYTE   Gn2  v096
 BYTE   W12
 BYTE   Cn2  v084
 BYTE   W12
 BYTE   Cn3  v116
 BYTE   W12
 BYTE   Gn2  v092
 BYTE   W12
 BYTE   Cn2
 BYTE   W12
 BYTE   Cn3  v112
 BYTE   W12
//  #02 //052   ----------------------------------------
 BYTE   Gn2  v100
 BYTE   W12
 BYTE   Cn2  v088
 BYTE   W12
 BYTE   Cn3  v112
 BYTE   W12
 BYTE   Gn2  v100
 BYTE   W12
 BYTE   Cn2  v088
 BYTE   W12
 BYTE   Cn3  v120
 BYTE   W12
 BYTE   Gn2  v096
 BYTE   W12
 BYTE   Cn2  v088
 BYTE   W12
//  #02 //053   ----------------------------------------
 BYTE   Cn3  v120
 BYTE   W12
 BYTE   Gn2  v096
 BYTE   W12
 BYTE   Cn2  v084
 BYTE   W12
 BYTE   N06  Cn3  v108
 BYTE   W06
 BYTE   Gn2  v080
 BYTE   W06
 BYTE   En2  v084
 BYTE   W06
 BYTE   Gn2  v092
 BYTE   W06
 BYTE   Cn2  v072
 BYTE   W06
 BYTE   En2  v088
 BYTE   W06
 BYTE   Gn2
 BYTE   W06
 BYTE   Dn2  v076
 BYTE   W06
 BYTE   Bn2  v096
 BYTE   W06
 BYTE   Gn2  v080
 BYTE   W06
//  #02 //054   ----------------------------------------
 BYTE   Dn3  v104
 BYTE   W06
 BYTE   Gn2  v076
 BYTE   W06
 BYTE   Cn3  v092
 BYTE   W06
 BYTE   Gn2  v084
 BYTE   W06
 BYTE   Dn2
 BYTE   W06
 BYTE   En3  v108
 BYTE   W06
 BYTE   Cn3  v084
 BYTE   W06
 BYTE   Gn2  v080
 BYTE   W06
 BYTE   An2  v088
 BYTE   W06
 BYTE   Fn2  v080
 BYTE   W06
 BYTE   Cn3  v100
 BYTE   W06
 BYTE   An2  v084
 BYTE   W06
 BYTE   Fn3  v100
 BYTE   W06
 BYTE   Cn3  v080
 BYTE   W06
 BYTE   Gn2
 BYTE   W06
 BYTE   Dn2
 BYTE   W06
//  #02 //055   ----------------------------------------
 BYTE   Cn3  v104
 BYTE   W06
 BYTE   Gn2  v084
 BYTE   W06
 BYTE   En3  v100
 BYTE   W06
 BYTE   Cn3  v076
 BYTE   W06
 BYTE   Gn2  v080
 BYTE   W06
 BYTE   Dn2
 BYTE   W06
 BYTE   Bn2  v096
 BYTE   W06
 BYTE   Gn2  v084
 BYTE   W06
 BYTE   Dn3  v096
 BYTE   W06
 BYTE   Bn2  v084
 BYTE   W06
 BYTE   Fn2  v080
 BYTE   W06
 BYTE   Dn2  v084
 BYTE   W06
 BYTE   An2  v092
 BYTE   W06
 BYTE   Fn2  v080
 BYTE   W06
 BYTE   Cn3  v100
 BYTE   W06
 BYTE   An2  v084
 BYTE   W06
//  #02 //056   ----------------------------------------
 BYTE   Bn2  v088
 BYTE   W06
 BYTE   Dn2  v072
 BYTE   W06
 BYTE   Gn2  v088
 BYTE   W06
 BYTE   Bn2  v084
 BYTE   W06
 BYTE   Dn3  v096
 BYTE   W06
 BYTE   Bn2  v080
 BYTE   W06
 BYTE   Gn2
 BYTE   W06
 BYTE   En2  v084
 BYTE   W06
 BYTE   Cn3  v104
 BYTE   W06
 BYTE   Gn2  v080
 BYTE   W06
 BYTE   En3  v100
 BYTE   W06
 BYTE   Cn3  v076
 BYTE   W06
 BYTE   Bn2
 BYTE   W06
 BYTE   Gn2  v080
 BYTE   W06
 BYTE   Dn2  v076
 BYTE   W06
 BYTE   Dn3  v108
 BYTE   W06
//  #02 //057   ----------------------------------------
 BYTE   Bn2  v092
 BYTE   W06
 BYTE   Gn2  v076
 BYTE   W06
 BYTE   Gn2  v088
 BYTE   W06
 BYTE   En2  v084
 BYTE   W06
 BYTE   Cn3  v104
 BYTE   W06
 BYTE   Gn2  v080
 BYTE   W06
 BYTE   En3  v104
 BYTE   W06
 BYTE   Cn3  v080
 BYTE   W06
 BYTE   An2
 BYTE   W06
 BYTE   Fn2  v072
 BYTE   W06
 BYTE   Cn3  v100
 BYTE   W06
 BYTE   An2  v088
 BYTE   W06
 BYTE   Fn2  v076
 BYTE   W06
 BYTE   Cn2  v080
 BYTE   W06
 BYTE   Gn2  v088
 BYTE   W06
 BYTE   En2  v080
 BYTE   W06
//  #02 //058   ----------------------------------------
 BYTE   Cn3  v104
 BYTE   W06
 BYTE   Gn2  v084
 BYTE   W06
 BYTE   En3  v104
 BYTE   W06
 BYTE   Cn3  v080
 BYTE   W06
 BYTE   Bn2  v084
 BYTE   W06
 BYTE   Gn2
 BYTE   W06
 BYTE   Dn2  v080
 BYTE   W06
 BYTE   Dn3  v108
 BYTE   W06
 BYTE   Bn2  v088
 BYTE   W06
 BYTE   Gn2  v080
 BYTE   W06
 BYTE   Cn2
 BYTE   W06
 BYTE   Cn2  v084
 BYTE   W06
 BYTE   En2  v088
 BYTE   W06
 BYTE   Gn2  v092
 BYTE   W06
 BYTE   Cn3  v100
 BYTE   W06
 BYTE   En2  v076
 BYTE   W06
//  #02 //059   ----------------------------------------
 BYTE   En3  v108
 BYTE   W06
 BYTE   Cn3  v084
 BYTE   W06
 BYTE   Gn2  v080
 BYTE   W06
 BYTE   Cn3  v096
 BYTE   W06
 BYTE   En2  v080
 BYTE   W06
 BYTE   Gn3  v108
 BYTE   W06
 BYTE   GoTo
  POIN2 Label_012C70C2
 BYTE   FINE

//**************** Track 3 (Midi-Chn.2) ****************//

MarionCourse_003:
//  #03 //000   ----------------------------------------
 BYTE   KEYSH   MarionCourse_key+0
Label_012BCD0E:
 BYTE   VOICE   36
 BYTE   PAN   c_v+0
 BYTE   VOL   41*MarionCourse_mvl/mxv
 BYTE   N15  Cn2  v116
 BYTE   W18
 BYTE   Gn1
 BYTE   W18
 BYTE   N10  Cn2  v127
 BYTE   W12
 BYTE   Gn1  v124
 BYTE   W12
 BYTE   Cn2  v127
 BYTE   W12
Label_012BCD24:
 BYTE   N15  Dn2  v127
 BYTE   W18
 BYTE   N15
 BYTE   W18
//  #03 //001   ----------------------------------------
 BYTE   N10  Gn2
 BYTE   W12
 BYTE   Gn1  v112
 BYTE   W12
 BYTE   Gn2  v127
 BYTE   W12
 BYTE   PEND 
 BYTE   N15  Cn2  v116
 BYTE   W18
 BYTE   Gn1  v120
 BYTE   W18
 BYTE   N10  Cn2  v127
 BYTE   W12
 BYTE   Gn1  v124
 BYTE   W12
//  #03 //002   ----------------------------------------
 BYTE   Cn2  v127
 BYTE   W12
Label_012BCD45:
 BYTE   N15  Gn2  v127
 BYTE   W18
 BYTE   N15
 BYTE   W18
 BYTE   N10  Dn2  v116
 BYTE   W12
 BYTE   Gn2  v127
 BYTE   W12
 BYTE   Gn1  v112
 BYTE   W12
 BYTE   PEND 
Label_012BCD56:
 BYTE   N15  Cn2  v127
 BYTE   W18
//  #03 //003   ----------------------------------------
 BYTE   Gn1  v120
 BYTE   W18
 BYTE   N10  Cn2  v127
 BYTE   W12
 BYTE   Gn1  v120
 BYTE   W12
 BYTE   Cn2  v127
 BYTE   W12
 BYTE   PEND 
Label_012BCD68:
 BYTE   N15  Dn2  v127
 BYTE   W18
 BYTE   Dn2  v124
 BYTE   W18
 BYTE   N10  Gn2  v127
 BYTE   W12
//  #03 //004   ----------------------------------------
 BYTE   Gn1  v112
 BYTE   W12
 BYTE   Gn2  v127
 BYTE   W12
 BYTE   PEND 
 BYTE   N15  Fn2
 BYTE   W18
 BYTE   Cn2  v120
 BYTE   W18
 BYTE   N10  Fn2  v127
 BYTE   W12
 BYTE   Fn1  v112
 BYTE   W12
 BYTE   Cn2  v127
 BYTE   W12
//  #03 //005   ----------------------------------------
 BYTE   N15  Gn2
 BYTE   W18
 BYTE   N15
 BYTE   W18
 BYTE   N10  Dn2  v116
 BYTE   W12
 BYTE   Gn2  v127
 BYTE   W12
 BYTE   Gn1  v116
 BYTE   W12
Label_012BCD99:
 BYTE   N30  Cn2  v127
 BYTE   W36
//  #03 //006   ----------------------------------------
 BYTE   Gn1  v120
 BYTE   W36
 BYTE   PEND 
Label_012BCDA1:
 BYTE   N30  Cn2  v127
 BYTE   W36
 BYTE   Fn2
 BYTE   W36
 BYTE   PEND 
//  #03 //007   ----------------------------------------
 BYTE   N15  Cn2  v116
 BYTE   W18
 BYTE   Cn2  v124
 BYTE   W18
 BYTE   N21  Gn1  v116
 BYTE   W24
 BYTE   N10  Gn2  v127
 BYTE   W12
 BYTE   N15  Fn1  v116
 BYTE   W18
 BYTE   Fn1  v124
 BYTE   W18
//  #03 //008   ----------------------------------------
 BYTE   N21  Gn1  v127
 BYTE   W24
 BYTE   N10  Gn2
 BYTE   W12
 BYTE   N15  Cn2  v120
 BYTE   W18
 BYTE   N15
 BYTE   W18
 BYTE   N21  Gn1
 BYTE   W24
//  #03 //009   ----------------------------------------
 BYTE   N10  Gn2  v127
 BYTE   W12
 BYTE   N15  Cn2  v120
 BYTE   W18
 BYTE   Cn2  v124
 BYTE   W18
 BYTE   N21  Fn1  v116
 BYTE   W24
 BYTE   N10  Fn2  v127
 BYTE   W12
Label_012BCDE1:
 BYTE   N15  Cn2  v120
 BYTE   W18
//  #03 //010   ----------------------------------------
 BYTE   Cn2  v124
 BYTE   W18
 BYTE   N21  Gn1  v116
 BYTE   W24
 BYTE   N10  Gn2  v127
 BYTE   W12
 BYTE   PEND 
 BYTE   N15  Cn2  v120
 BYTE   W18
 BYTE   N15
 BYTE   W18
 BYTE   N21  Gn1
 BYTE   W24
//  #03 //011   ----------------------------------------
 BYTE   N10  Cn2  v127
 BYTE   W12
 BYTE   N15
 BYTE   W18
 BYTE   Gn1  v116
 BYTE   W18
 BYTE   N10  Cn2  v127
 BYTE   W12
 BYTE   Gn1  v120
 BYTE   W12
 BYTE   Cn2  v127
 BYTE   W12
//  #03 //012   ----------------------------------------
 BYTE   PATT
  POIN2 Label_012BCD24
//  #03 //013   ----------------------------------------
 BYTE   N15  Cn2  v116
 BYTE   W18
 BYTE   Gn1
 BYTE   W18
 BYTE   N10  Cn2  v127
 BYTE   W12
 BYTE   Gn1  v120
 BYTE   W12
 BYTE   Cn2  v127
 BYTE   W12
 BYTE   N15  Gn2
 BYTE   W18
 BYTE   Gn2  v124
 BYTE   W18
//  #03 //014   ----------------------------------------
 BYTE   N10  Dn2  v120
 BYTE   W12
 BYTE   Gn2  v127
 BYTE   W12
 BYTE   Gn1  v116
 BYTE   W12
//  #03 //015   ----------------------------------------
 BYTE   PATT
  POIN2 Label_012BCD56
//  #03 //016   ----------------------------------------
 BYTE   N15  Dn2  v127
 BYTE   W18
 BYTE   Dn2  v124
 BYTE   W18
 BYTE   N10  Gn2  v127
 BYTE   W12
 BYTE   Gn1  v108
 BYTE   W12
 BYTE   Gn2  v127
 BYTE   W12
Label_012BCE48:
 BYTE   N15  Fn2  v124
 BYTE   W18
 BYTE   Cn2  v116
 BYTE   W18
//  #03 //017   ----------------------------------------
 BYTE   N10  Fn2  v127
 BYTE   W12
 BYTE   Fn1  v112
 BYTE   W12
 BYTE   Cn2  v127
 BYTE   W12
 BYTE   PEND 
Label_012BCE5A:
 BYTE   N15  Gn2  v127
 BYTE   W18
 BYTE   N15
 BYTE   W18
 BYTE   N10  Dn2  v120
 BYTE   W12
 BYTE   Gn2  v127
 BYTE   W12
//  #03 //018   ----------------------------------------
 BYTE   Gn1  v112
 BYTE   W12
 BYTE   PEND 
 BYTE   N15  Cn2  v127
 BYTE   W18
 BYTE   N05
 BYTE   W18
 BYTE   N10  Cn2  v112
 BYTE   W12
 BYTE   Gn1  v116
 BYTE   W12
 BYTE   Cn2  v127
 BYTE   W12
 BYTE   N15
 BYTE   W18
//  #03 //019   ----------------------------------------
 BYTE   N05
 BYTE   W18
 BYTE   N10  Cn2  v116
 BYTE   W12
 BYTE   Gn1  v120
 BYTE   W12
 BYTE   Cn2  v127
 BYTE   W12
 BYTE   N15
 BYTE   W18
 BYTE   N05  Cn2  v120
 BYTE   W18
 BYTE   N10  Cn2  v112
 BYTE   W12
//  #03 //020   ----------------------------------------
 BYTE   Gn1  v116
 BYTE   W12
 BYTE   Cn2  v127
 BYTE   W12
 BYTE   N15  Cn2  v124
 BYTE   W18
 BYTE   N05
 BYTE   W18
 BYTE   N10  Cn2  v112
 BYTE   W12
 BYTE   Gn1  v116
 BYTE   W12
 BYTE   Cn2  v127
 BYTE   W12
//  #03 //021   ----------------------------------------
Label_012BCEA9:
 BYTE   N15  Cn2  v127
 BYTE   W18
 BYTE   N15
 BYTE   W18
 BYTE   N10  Cn2  v124
 BYTE   W12
 BYTE   Gn1  v120
 BYTE   W12
 BYTE   Cn2  v127
 BYTE   W12
 BYTE   PEND 
 BYTE   N15
 BYTE   W18
 BYTE   Cn2  v124
 BYTE   W18
//  #03 //022   ----------------------------------------
 BYTE   N10  Cn2  v127
 BYTE   W12
 BYTE   Gn1  v116
 BYTE   W12
 BYTE   Cn2  v127
 BYTE   W12
 BYTE   N15
 BYTE   W18
 BYTE   N15
 BYTE   W18
 BYTE   N10  Cn2  v124
 BYTE   W12
 BYTE   Gn1  v116
 BYTE   W12
//  #03 //023   ----------------------------------------
 BYTE   Cn2  v127
 BYTE   W12
Label_012BCED7:
 BYTE   N15  Cn2  v127
 BYTE   W18
 BYTE   Cn2  v124
 BYTE   W18
 BYTE   N10
 BYTE   W12
 BYTE   Gn1  v120
 BYTE   W12
 BYTE   Cn2  v127
 BYTE   W12
 BYTE   PEND 
//  #03 //024   ----------------------------------------
 BYTE   PATT
  POIN2 Label_012BCD99
//  #03 //025   ----------------------------------------
 BYTE   PATT
  POIN2 Label_012BCDA1
//  #03 //026   ----------------------------------------
 BYTE   N15  Cn2  v124
 BYTE   W18
 BYTE   N15
 BYTE   W18
 BYTE   N21  Gn1  v120
 BYTE   W24
 BYTE   N10  Gn2  v127
 BYTE   W12
Label_012BCEFF:
 BYTE   N15  Fn1  v112
 BYTE   W18
 BYTE   Fn1  v124
 BYTE   W18
//  #03 //027   ----------------------------------------
 BYTE   N21  Gn1  v127
 BYTE   W24
 BYTE   N10  Gn2
 BYTE   W12
 BYTE   PEND 
//  #03 //028   ----------------------------------------
 BYTE   PATT
  POIN2 Label_012BCDE1
//  #03 //029   ----------------------------------------
 BYTE   N15  Cn2  v120
 BYTE   W18
 BYTE   Cn2  v127
 BYTE   W18
 BYTE   N21  Fn1  v116
 BYTE   W24
 BYTE   N10  Fn2  v127
 BYTE   W12
Label_012BCF22:
 BYTE   N15  Cn2  v120
 BYTE   W18
 BYTE   Cn2  v127
 BYTE   W18
//  #03 //030   ----------------------------------------
 BYTE   N21  Gn1  v120
 BYTE   W24
 BYTE   N10  Gn2  v127
 BYTE   W12
 BYTE   PEND 
 BYTE   N15  Cn2  v116
 BYTE   W18
 BYTE   Cn2  v124
 BYTE   W18
 BYTE   N21  Gn1  v120
 BYTE   W24
//  #03 //031   ----------------------------------------
 BYTE   N10  Cn2  v127
 BYTE   W12
 BYTE   N15
 BYTE   W18
 BYTE   Gn1  v116
 BYTE   W18
 BYTE   N10  Cn2  v127
 BYTE   W12
 BYTE   Gn1
 BYTE   W12
 BYTE   Cn2
 BYTE   W12
//  #03 //032   ----------------------------------------
 BYTE   PATT
  POIN2 Label_012BCD24
//  #03 //033   ----------------------------------------
 BYTE   N15  Cn2  v120
 BYTE   W18
 BYTE   Gn1
 BYTE   W18
 BYTE   N10  Cn2  v127
 BYTE   W12
 BYTE   Gn1  v116
 BYTE   W12
 BYTE   Cn2  v127
 BYTE   W12
//  #03 //034   ----------------------------------------
 BYTE   PATT
  POIN2 Label_012BCD45
//  #03 //035   ----------------------------------------
 BYTE   N15  Cn2  v127
 BYTE   W18
 BYTE   Gn1  v116
 BYTE   W18
 BYTE   N10  Cn2  v127
 BYTE   W12
 BYTE   Gn1  v116
 BYTE   W12
 BYTE   Cn2  v127
 BYTE   W12
 BYTE   N15  Dn2
 BYTE   W18
 BYTE   Dn2  v120
 BYTE   W18
//  #03 //036   ----------------------------------------
 BYTE   N10  Gn2  v127
 BYTE   W12
 BYTE   Gn1  v116
 BYTE   W12
 BYTE   Gn2  v127
 BYTE   W12
//  #03 //037   ----------------------------------------
 BYTE   PATT
  POIN2 Label_012BCE48
//  #03 //038   ----------------------------------------
 BYTE   PATT
  POIN2 Label_012BCE5A
//  #03 //039   ----------------------------------------
 BYTE   N30  Cn2  v127
 BYTE   W36
 BYTE   Gn1  v116
 BYTE   W36
//  #03 //040   ----------------------------------------
 BYTE   PATT
  POIN2 Label_012BCDA1
//  #03 //041   ----------------------------------------
Label_012BCF9F:
 BYTE   N15  Cn2  v120
 BYTE   W18
 BYTE   Cn2  v124
 BYTE   W18
 BYTE   N21  Gn1
 BYTE   W24
 BYTE   N10  Gn2  v127
 BYTE   W12
 BYTE   PEND 
 BYTE   N15  Fn1  v116
 BYTE   W18
 BYTE   Fn1  v124
 BYTE   W18
//  #03 //042   ----------------------------------------
 BYTE   N21  Gn1
 BYTE   W24
 BYTE   N10  Gn2  v127
 BYTE   W12
 BYTE   N15  Cn2  v124
 BYTE   W18
 BYTE   Cn2  v127
 BYTE   W18
 BYTE   N21  Gn1  v124
 BYTE   W24
//  #03 //043   ----------------------------------------
 BYTE   N10  Gn2  v127
 BYTE   W12
 BYTE   N15  Cn2  v116
 BYTE   W18
 BYTE   Cn2  v127
 BYTE   W18
 BYTE   N21  Fn1  v116
 BYTE   W24
 BYTE   N10  Fn2  v127
 BYTE   W12
 BYTE   N15  Cn2  v116
 BYTE   W18
//  #03 //044   ----------------------------------------
 BYTE   Cn2  v124
 BYTE   W18
 BYTE   N21  Gn1  v120
 BYTE   W24
 BYTE   N10  Gn2  v127
 BYTE   W12
Label_012BCFE9:
 BYTE   N15  Cn2  v116
 BYTE   W18
 BYTE   Cn2  v124
 BYTE   W18
 BYTE   N21  Gn1  v116
 BYTE   W24
//  #03 //045   ----------------------------------------
 BYTE   N10  Cn2  v127
 BYTE   W12
 BYTE   PEND 
 BYTE   N15
 BYTE   W18
 BYTE   Gn1  v120
 BYTE   W18
 BYTE   N10  Cn2  v127
 BYTE   W12
 BYTE   Gn1  v116
 BYTE   W12
 BYTE   Cn2  v127
 BYTE   W12
 BYTE   N15  Dn2  v124
 BYTE   W18
//  #03 //046   ----------------------------------------
 BYTE   Dn2  v127
 BYTE   W18
 BYTE   N10  Gn2
 BYTE   W12
 BYTE   Gn1  v108
 BYTE   W12
 BYTE   Gn2  v127
 BYTE   W12
 BYTE   N15  Cn2  v112
 BYTE   W18
 BYTE   Gn1  v120
 BYTE   W18
 BYTE   N10  Cn2  v127
 BYTE   W12
//  #03 //047   ----------------------------------------
 BYTE   Gn1  v124
 BYTE   W12
 BYTE   Cn2
 BYTE   W12
 BYTE   N15  Gn2  v127
 BYTE   W18
 BYTE   Gn2  v124
 BYTE   W18
 BYTE   N10  Dn2
 BYTE   W12
 BYTE   Gn2  v127
 BYTE   W12
 BYTE   Gn1  v112
 BYTE   W12
//  #03 //048   ----------------------------------------
 BYTE   N15  Cn2  v127
 BYTE   W18
 BYTE   Gn1  v120
 BYTE   W18
 BYTE   N10  Cn2  v127
 BYTE   W12
 BYTE   Gn1  v124
 BYTE   W12
 BYTE   Cn2  v127
 BYTE   W12
//  #03 //049   ----------------------------------------
 BYTE   PATT
  POIN2 Label_012BCD68
//  #03 //050   ----------------------------------------
 BYTE   N15  Fn2  v120
 BYTE   W18
 BYTE   Cn2
 BYTE   W18
 BYTE   N10  Fn2  v127
 BYTE   W12
 BYTE   Fn1  v112
 BYTE   W12
 BYTE   Cn2  v127
 BYTE   W12
 BYTE   N15  Gn2
 BYTE   W18
 BYTE   N15
 BYTE   W18
//  #03 //051   ----------------------------------------
 BYTE   N10  Dn2  v116
 BYTE   W12
 BYTE   Gn2  v124
 BYTE   W12
 BYTE   Gn1  v112
 BYTE   W12
 BYTE   N15  Cn2  v127
 BYTE   W18
 BYTE   N05  Cn2  v124
 BYTE   W18
 BYTE   N10  Cn2  v116
 BYTE   W12
 BYTE   Gn1
 BYTE   W12
//  #03 //052   ----------------------------------------
 BYTE   Cn2  v127
 BYTE   W12
 BYTE   N15  Cn2  v124
 BYTE   W18
 BYTE   N05  Cn2  v127
 BYTE   W18
 BYTE   N10  Cn2  v112
 BYTE   W12
 BYTE   Gn1  v116
 BYTE   W12
 BYTE   Cn2  v127
 BYTE   W12
 BYTE   N15
 BYTE   W18
//  #03 //053   ----------------------------------------
 BYTE   N05  Cn2  v124
 BYTE   W18
 BYTE   N10  Cn2  v120
 BYTE   W12
 BYTE   Gn1  v116
 BYTE   W12
 BYTE   Cn2  v127
 BYTE   W12
 BYTE   N15  Cn2  v124
 BYTE   W18
 BYTE   N05  Cn2  v127
 BYTE   W18
 BYTE   N10  Cn2  v116
 BYTE   W12
//  #03 //054   ----------------------------------------
 BYTE   Gn1  v120
 BYTE   W12
 BYTE   Cn2  v127
 BYTE   W12
//  #03 //055   ----------------------------------------
 BYTE   PATT
  POIN2 Label_012BCED7
//  #03 //056   ----------------------------------------
 BYTE   N15  Cn2  v127
 BYTE   W18
 BYTE   N15
 BYTE   W18
 BYTE   N10
 BYTE   W12
 BYTE   Gn1  v120
 BYTE   W12
 BYTE   Cn2  v127
 BYTE   W12
 BYTE   N15
 BYTE   W18
 BYTE   Cn2  v124
 BYTE   W18
//  #03 //057   ----------------------------------------
 BYTE   N10
 BYTE   W12
 BYTE   Gn1  v116
 BYTE   W12
 BYTE   Cn2  v127
 BYTE   W12
//  #03 //058   ----------------------------------------
 BYTE   PATT
  POIN2 Label_012BCEA9
//  #03 //059   ----------------------------------------
 BYTE   N30  Cn2  v120
 BYTE   W36
 BYTE   Gn1
 BYTE   W36
//  #03 //060   ----------------------------------------
 BYTE   PATT
  POIN2 Label_012BCDA1
//  #03 //061   ----------------------------------------
 BYTE   PATT
  POIN2 Label_012BCF9F
//  #03 //062   ----------------------------------------
 BYTE   PATT
  POIN2 Label_012BCEFF
//  #03 //063   ----------------------------------------
 BYTE   PATT
  POIN2 Label_012BCF22
//  #03 //064   ----------------------------------------
 BYTE   N15  Cn2  v124
 BYTE   W18
 BYTE   N15
 BYTE   W18
 BYTE   N21  Fn1  v116
 BYTE   W24
 BYTE   N10  Fn2  v127
 BYTE   W12
//  #03 //065   ----------------------------------------
 BYTE   PATT
  POIN2 Label_012BCF22
//  #03 //066   ----------------------------------------
 BYTE   PATT
  POIN2 Label_012BCFE9
//  #03 //067   ----------------------------------------
 BYTE   GoTo
  POIN2 Label_012BCD0E
 BYTE   FINE

//**************** Track 4 (Midi-Chn.3) ****************//

MarionCourse_004:
//  #04 //000   ----------------------------------------
 BYTE   KEYSH   MarionCourse_key+0
Label_012C7906:
 BYTE   VOICE   7
 BYTE   PAN   c_v-10
 BYTE   VOL   54*MarionCourse_mvl/mxv
 BYTE   N21  Cn4  v112
 BYTE   W24
 BYTE   N05  Bn3  v116
 BYTE   W06
 BYTE   An3  v120
 BYTE   W06
 BYTE   N10  Gn3
 BYTE   W12
 BYTE   Fn3
 BYTE   W12
 BYTE   En3  v116
 BYTE   W12
 BYTE   Dn3  v120
 BYTE   W12
 BYTE   En3  v127
 BYTE   W12
//  #04 //001   ----------------------------------------
 BYTE   Fn3
 BYTE   W12
 BYTE   N21  Gn3
 BYTE   W24
 BYTE   N10  Bn2  v116
 BYTE   W12
Label_012C792E:
 BYTE   N05  Cn3  v127
 BYTE   W06
 BYTE   Dn3
 BYTE   W06
 BYTE   En3
 BYTE   W06
 BYTE   Fn3
 BYTE   W06
 BYTE   Gn3
 BYTE   W06
 BYTE   An3
 BYTE   W06
 BYTE   N21  Gn3  v120
 BYTE   W24
//  #04 //002   ----------------------------------------
 BYTE   N10  Cn4  v127
 BYTE   W12
 BYTE   PEND 
Label_012C7945:
 BYTE   N30  Bn3  v124
 BYTE   W36
 BYTE   Gn3  v112
 BYTE   W36
 BYTE   PEND 
 BYTE   N21  Cn4  v127
 BYTE   W24
//  #04 //003   ----------------------------------------
 BYTE   N05  Bn3  v124
 BYTE   W06
 BYTE   An3  v120
 BYTE   W06
 BYTE   N10  Gn3  v116
 BYTE   W12
 BYTE   Fn3  v120
 BYTE   W12
 BYTE   En3  v116
 BYTE   W12
 BYTE   Dn3
 BYTE   W12
 BYTE   En3  v127
 BYTE   W12
 BYTE   Fn3
 BYTE   W12
 BYTE   N21  Gn3
 BYTE   W24
//  #04 //004   ----------------------------------------
 BYTE   N10  Dn3  v112
 BYTE   W12
 BYTE   N05  An3  v127
 BYTE   W06
 BYTE   Gn3  v124
 BYTE   W06
 BYTE   Fn3  v116
 BYTE   W06
 BYTE   Gn3  v127
 BYTE   W06
 BYTE   En3  v116
 BYTE   W06
 BYTE   Fn3  v127
 BYTE   W06
 BYTE   N10  Cn3  v112
 BYTE   W12
 BYTE   Cn4  v127
 BYTE   W12
 BYTE   Cn3  v100
 BYTE   W12
 BYTE   Bn3  v127
 BYTE   W12
//  #04 //005   ----------------------------------------
 BYTE   An3  v124
 BYTE   W12
 BYTE   Gn3  v120
 BYTE   W12
 BYTE   Fn3  v124
 BYTE   W12
 BYTE   En3  v120
 BYTE   W12
 BYTE   Dn3
 BYTE   W12
Label_012C799E:
 BYTE   N07  Cn4  v127
 BYTE   W12
 BYTE   Cn4  v116
 BYTE   W12
 BYTE   N05  Bn3
 BYTE   W06
 BYTE   Cn4  v127
 BYTE   W06
//  #04 //006   ----------------------------------------
 BYTE   N30  Dn4
 BYTE   W30
 BYTE   W06
 BYTE   PEND 
Label_012C79B0:
 BYTE   N07  En4  v127
 BYTE   W12
 BYTE   En4  v108
 BYTE   W12
 BYTE   N05  Dn4  v120
 BYTE   W06
 BYTE   En4  v127
 BYTE   W06
 BYTE   N30  Fn4
 BYTE   W30
//  #04 //007   ----------------------------------------
 BYTE   W06
 BYTE   PEND 
 BYTE   CnM2
 BYTE   N07  Cn4  v108
 BYTE   W12
 BYTE   Cn4  v112
 BYTE   W12
 BYTE   N05  Bn3  v116
 BYTE   W06
 BYTE   Cn4  v127
 BYTE   W06
 BYTE   N10  Dn4
 BYTE   W12
 BYTE   Gn3  v100
 BYTE   W12
 BYTE   Dn4  v127
 BYTE   W12
Label_012C79DB:
 BYTE   N24  En4  v127
 BYTE   W24
//  #04 //008   ----------------------------------------
 BYTE   N10  Fn4
 BYTE   W12
 BYTE   N30  Dn4  v116
 BYTE   W30
 BYTE   W06
 BYTE   PEND 
 BYTE   CnM2
 BYTE   N07  Cn4  v124
 BYTE   W12
 BYTE   Cn4  v112
 BYTE   W12
 BYTE   N05  Bn3  v116
 BYTE   W06
 BYTE   Cn4  v127
 BYTE   W06
 BYTE   N30  Dn4
 BYTE   W30
//  #04 //009   ----------------------------------------
 BYTE   W06
//  #04 //010   ----------------------------------------
 BYTE   PATT
  POIN2 Label_012C79B0
//  #04 //011   ----------------------------------------
 BYTE   N07  Cn4  v112
 BYTE   W12
 BYTE   Cn4  v116
 BYTE   W12
 BYTE   N05  Bn3  v112
 BYTE   W06
 BYTE   Cn4  v127
 BYTE   W06
 BYTE   N10  Dn4
 BYTE   W12
 BYTE   Gn3  v108
 BYTE   W12
 BYTE   Dn4  v127
 BYTE   W12
 BYTE   N60  Cn4
 BYTE   W72
//  #04 //012   ----------------------------------------
 BYTE   N21  Cn4  v124
 BYTE   W24
 BYTE   N05  Bn3  v120
 BYTE   W06
 BYTE   An3  v116
 BYTE   W06
 BYTE   N10  Gn3
 BYTE   W12
 BYTE   Fn3
 BYTE   W12
 BYTE   En3  v120
 BYTE   W12
 BYTE   Dn3  v124
 BYTE   W12
 BYTE   En3  v127
 BYTE   W12
//  #04 //013   ----------------------------------------
 BYTE   Fn3
 BYTE   W12
 BYTE   N21  Gn3
 BYTE   W24
 BYTE   N10  Bn2  v116
 BYTE   W12
//  #04 //014   ----------------------------------------
 BYTE   PATT
  POIN2 Label_012C792E
//  #04 //015   ----------------------------------------
 BYTE   PATT
  POIN2 Label_012C7945
//  #04 //016   ----------------------------------------
 BYTE   N21  Cn4  v127
 BYTE   W24
 BYTE   N05  Bn3  v120
 BYTE   W06
 BYTE   An3
 BYTE   W06
 BYTE   N10  Gn3
 BYTE   W12
 BYTE   Fn3
 BYTE   W12
 BYTE   En3
 BYTE   W12
Label_012C7A57:
 BYTE   N10  Dn3  v116
 BYTE   W12
 BYTE   En3  v127
 BYTE   W12
//  #04 //017   ----------------------------------------
 BYTE   Fn3
 BYTE   W12
 BYTE   N21  Gn3
 BYTE   W24
 BYTE   N10  Dn3  v116
 BYTE   W12
 BYTE   PEND 
 BYTE   N05  An3  v127
 BYTE   W06
 BYTE   Gn3  v120
 BYTE   W06
 BYTE   Fn3  v116
 BYTE   W06
 BYTE   Gn3  v127
 BYTE   W06
 BYTE   En3  v120
 BYTE   W06
 BYTE   Fn3  v127
 BYTE   W06
 BYTE   N10  Cn3  v112
 BYTE   W12
//  #04 //018   ----------------------------------------
 BYTE   Cn4  v127
 BYTE   W12
 BYTE   Cn3  v100
 BYTE   W12
 BYTE   Bn3  v127
 BYTE   W12
 BYTE   An3  v120
 BYTE   W12
 BYTE   Gn3
 BYTE   W12
 BYTE   Fn3  v116
 BYTE   W12
 BYTE   En3
 BYTE   W12
 BYTE   Dn3
 BYTE   W12
//  #04 //019   ----------------------------------------
 BYTE   N05  Cn4  v127
 BYTE   W06
 BYTE   Gn3  v116
 BYTE   W06
 BYTE   Cn4  v127
 BYTE   W06
 BYTE   Dn4
 BYTE   W06
 BYTE   Gn3  v112
 BYTE   W06
 BYTE   Dn4  v127
 BYTE   W06
 BYTE   En4
 BYTE   W06
 BYTE   Gn3  v104
 BYTE   W06
 BYTE   En4  v127
 BYTE   W06
 BYTE   Fn4
 BYTE   W06
 BYTE   En4  v120
 BYTE   W06
 BYTE   Dn4
 BYTE   W06
 BYTE   En4  v127
 BYTE   W06
 BYTE   Gn3  v100
 BYTE   W06
 BYTE   Gn3  v127
 BYTE   W06
 BYTE   Dn4
 BYTE   W06
//  #04 //020   ----------------------------------------
 BYTE   Cn4  v124
 BYTE   W06
 BYTE   Bn3  v120
 BYTE   W06
 BYTE   Cn4  v127
 BYTE   W06
 BYTE   Gn3  v112
 BYTE   W06
 BYTE   En3
 BYTE   W06
 BYTE   Gn3  v127
 BYTE   W06
 BYTE   Cn3  v112
 BYTE   W06
 BYTE   Gn3  v127
 BYTE   W06
 BYTE   Cn4
 BYTE   W06
 BYTE   Gn3  v112
 BYTE   W06
 BYTE   Gn3  v124
 BYTE   W06
 BYTE   Dn4  v127
 BYTE   W06
 BYTE   Gn3  v100
 BYTE   W06
 BYTE   Gn3  v127
 BYTE   W06
 BYTE   En4
 BYTE   W06
 BYTE   Dn4  v124
 BYTE   W06
//  #04 //021   ----------------------------------------
 BYTE   Cn4  v120
 BYTE   W06
 BYTE   Fn4  v127
 BYTE   W06
 BYTE   En4  v124
 BYTE   W06
 BYTE   Dn4  v120
 BYTE   W06
 BYTE   Bn3  v112
 BYTE   W06
 BYTE   Cn4  v127
 BYTE   W06
 BYTE   Dn4
 BYTE   W06
 BYTE   Cn4  v116
 BYTE   W06
 BYTE   Gn3  v112
 BYTE   W06
 BYTE   Cn4  v127
 BYTE   W06
 BYTE   N10  Gn3  v112
 BYTE   W12
 BYTE   Cn4  v127
 BYTE   W12
 BYTE   Cn3  v096
 BYTE   W12
//  #04 //022   ----------------------------------------
 BYTE   N05  Cn4  v127
 BYTE   W06
 BYTE   Gn3  v116
 BYTE   W06
 BYTE   Cn4  v127
 BYTE   W06
 BYTE   Dn4
 BYTE   W06
 BYTE   Gn3  v108
 BYTE   W06
 BYTE   Dn4  v127
 BYTE   W06
 BYTE   En4
 BYTE   W06
 BYTE   Gn3  v104
 BYTE   W06
 BYTE   En4  v127
 BYTE   W06
 BYTE   Fn4
 BYTE   W06
 BYTE   En4  v124
 BYTE   W06
 BYTE   Dn4  v112
 BYTE   W06
 BYTE   En4  v127
 BYTE   W06
 BYTE   Gn3  v104
 BYTE   W06
 BYTE   Gn3  v120
 BYTE   W06
 BYTE   Dn4  v127
 BYTE   W06
//  #04 //023   ----------------------------------------
 BYTE   Cn4  v124
 BYTE   W06
 BYTE   Bn3  v120
 BYTE   W06
 BYTE   Cn4  v127
 BYTE   W06
 BYTE   Gn3  v108
 BYTE   W06
 BYTE   En3  v116
 BYTE   W06
 BYTE   Gn3  v127
 BYTE   W06
 BYTE   Cn3  v104
 BYTE   W06
 BYTE   Gn3  v127
 BYTE   W06
 BYTE   Cn4
 BYTE   W06
 BYTE   Gn3  v112
 BYTE   W06
 BYTE   Gn3  v124
 BYTE   W06
 BYTE   Dn4  v127
 BYTE   W06
 BYTE   Gn3  v112
 BYTE   W06
 BYTE   Gn3  v120
 BYTE   W06
 BYTE   En4  v127
 BYTE   W06
 BYTE   Dn4  v124
 BYTE   W06
//  #04 //024   ----------------------------------------
 BYTE   Cn4  v116
 BYTE   W06
 BYTE   Fn4  v127
 BYTE   W06
 BYTE   En4  v124
 BYTE   W06
 BYTE   Dn4  v116
 BYTE   W06
 BYTE   Bn3
 BYTE   W06
 BYTE   Cn4  v127
 BYTE   W06
 BYTE   Dn4
 BYTE   W06
 BYTE   Cn4  v120
 BYTE   W06
 BYTE   Gn3  v112
 BYTE   W06
 BYTE   Cn4  v127
 BYTE   W06
 BYTE   N10  Gn3  v108
 BYTE   W12
 BYTE   Cn4  v127
 BYTE   W12
 BYTE   Cn3  v096
 BYTE   W12
//  #04 //025   ----------------------------------------
 BYTE   N07  Cn4  v127
 BYTE   W12
 BYTE   Cn4  v116
 BYTE   W12
 BYTE   N05  Bn3  v112
 BYTE   W06
 BYTE   Cn4  v127
 BYTE   W06
 BYTE   N30  Dn4
 BYTE   W30
 BYTE   W06
Label_012C7BA9:
 BYTE   N07  En4  v127
 BYTE   W12
 BYTE   En4  v120
 BYTE   W12
//  #04 //026   ----------------------------------------
 BYTE   N05  Dn4  v116
 BYTE   W06
 BYTE   En4  v127
 BYTE   W06
 BYTE   N30  Fn4
 BYTE   W30
 BYTE   W06
 BYTE   PEND 
 BYTE   CnM2
 BYTE   N07  Cn4  v112
 BYTE   W12
 BYTE   Cn4  v116
 BYTE   W12
 BYTE   N05  Bn3
 BYTE   W06
 BYTE   Cn4  v127
 BYTE   W06
 BYTE   N10  Dn4
 BYTE   W12
//  #04 //027   ----------------------------------------
 BYTE   Gn3  v104
 BYTE   W12
 BYTE   Dn4  v127
 BYTE   W12
 BYTE   N24  En4
 BYTE   W24
 BYTE   N10  Fn4
 BYTE   W12
 BYTE   N30  Dn4  v120
 BYTE   W30
 BYTE   W06
//  #04 //028   ----------------------------------------
 BYTE   CnM2
 BYTE   N07  Cn4  v116
 BYTE   W12
 BYTE   Cn4  v112
 BYTE   W12
 BYTE   N05  Bn3  v120
 BYTE   W06
 BYTE   Cn4  v124
 BYTE   W06
 BYTE   N30  Dn4  v127
 BYTE   W30
 BYTE   W06
 BYTE   CnM2
 BYTE   N07  En4
 BYTE   W12
 BYTE   En4  v112
 BYTE   W12
//  #04 //029   ----------------------------------------
 BYTE   N05  Dn4
 BYTE   W06
 BYTE   En4  v127
 BYTE   W06
 BYTE   N30  Fn4
 BYTE   W30
 BYTE   W06
 BYTE   CnM2
 BYTE   N07  Cn4  v108
 BYTE   W12
 BYTE   Cn4  v112
 BYTE   W12
 BYTE   N05  Bn3  v116
 BYTE   W06
 BYTE   Cn4  v127
 BYTE   W06
 BYTE   N10  Dn4
 BYTE   W12
//  #04 //030   ----------------------------------------
 BYTE   Gn3  v116
 BYTE   W12
 BYTE   Dn4  v127
 BYTE   W12
 BYTE   N60  Cn4  v120
 BYTE   W72
//  #04 //031   ----------------------------------------
 BYTE   N21  Cn4  v127
 BYTE   W24
 BYTE   N05  Bn3  v120
 BYTE   W06
 BYTE   An3
 BYTE   W06
 BYTE   N10  Gn3
 BYTE   W12
 BYTE   Fn3  v116
 BYTE   W12
 BYTE   En3
 BYTE   W12
 BYTE   Dn3
 BYTE   W12
 BYTE   En3  v127
 BYTE   W12
//  #04 //032   ----------------------------------------
 BYTE   Fn3
 BYTE   W12
 BYTE   N21  Gn3
 BYTE   W24
 BYTE   N10  Bn2  v116
 BYTE   W12
 BYTE   N05  Cn3  v124
 BYTE   W06
 BYTE   Dn3  v127
 BYTE   W06
 BYTE   En3
 BYTE   W06
 BYTE   Fn3
 BYTE   W06
 BYTE   Gn3
 BYTE   W06
 BYTE   An3
 BYTE   W06
 BYTE   N21  Gn3  v120
 BYTE   W24
//  #04 //033   ----------------------------------------
 BYTE   N10  Cn4  v127
 BYTE   W12
//  #04 //034   ----------------------------------------
 BYTE   PATT
  POIN2 Label_012C7945
//  #04 //035   ----------------------------------------
 BYTE   N21  Cn4  v127
 BYTE   W24
 BYTE   N05  Bn3  v124
 BYTE   W06
 BYTE   An3  v116
 BYTE   W06
 BYTE   N10  Gn3
 BYTE   W12
 BYTE   Fn3  v120
 BYTE   W12
 BYTE   En3
 BYTE   W12
//  #04 //036   ----------------------------------------
 BYTE   PATT
  POIN2 Label_012C7A57
//  #04 //037   ----------------------------------------
 BYTE   N05  An3  v127
 BYTE   W06
 BYTE   Gn3  v116
 BYTE   W06
 BYTE   Fn3  v120
 BYTE   W06
 BYTE   Gn3  v127
 BYTE   W06
 BYTE   En3  v120
 BYTE   W06
 BYTE   Fn3  v127
 BYTE   W06
 BYTE   N10  Cn3  v112
 BYTE   W12
 BYTE   Cn4  v127
 BYTE   W12
 BYTE   Cn3  v100
 BYTE   W12
 BYTE   Bn3  v127
 BYTE   W12
 BYTE   An3  v124
 BYTE   W12
//  #04 //038   ----------------------------------------
 BYTE   Gn3  v116
 BYTE   W12
 BYTE   Fn3
 BYTE   W12
 BYTE   En3
 BYTE   W12
 BYTE   Dn3  v124
 BYTE   W12
//  #04 //039   ----------------------------------------
 BYTE   PATT
  POIN2 Label_012C799E
//  #04 //040   ----------------------------------------
 BYTE   N07  En4  v127
 BYTE   W12
 BYTE   En4  v116
 BYTE   W12
 BYTE   N05  Dn4
 BYTE   W06
 BYTE   En4  v124
 BYTE   W06
 BYTE   N30  Fn4  v127
 BYTE   W30
 BYTE   W06
 BYTE   CnM2
 BYTE   N07  Cn4  v112
 BYTE   W12
 BYTE   Cn4  v120
 BYTE   W12
//  #04 //041   ----------------------------------------
 BYTE   N05  Bn3  v116
 BYTE   W06
 BYTE   Cn4  v127
 BYTE   W06
 BYTE   N10  Dn4
 BYTE   W12
 BYTE   Gn3  v104
 BYTE   W12
 BYTE   Dn4  v127
 BYTE   W12
//  #04 //042   ----------------------------------------
 BYTE   PATT
  POIN2 Label_012C79DB
//  #04 //043   ----------------------------------------
 BYTE   N07  Cn4  v120
 BYTE   W12
 BYTE   Cn4  v116
 BYTE   W12
 BYTE   N05  Bn3
 BYTE   W06
 BYTE   Cn4  v127
 BYTE   W06
 BYTE   N30  Dn4
 BYTE   W30
 BYTE   W06
 BYTE   CnM2
 BYTE   N07  En4
 BYTE   W12
 BYTE   En4  v112
 BYTE   W12
//  #04 //044   ----------------------------------------
 BYTE   N05  Dn4  v116
 BYTE   W06
 BYTE   En4  v127
 BYTE   W06
 BYTE   N30  Fn4
 BYTE   W30
 BYTE   W06
 BYTE   CnM2
 BYTE   N07  Cn4  v112
 BYTE   W12
 BYTE   N07
 BYTE   W12
 BYTE   N05  Bn3  v116
 BYTE   W06
 BYTE   Cn4  v124
 BYTE   W06
 BYTE   N10  Dn4  v127
 BYTE   W12
//  #04 //045   ----------------------------------------
 BYTE   Gn3  v104
 BYTE   W12
 BYTE   Dn4  v127
 BYTE   W12
 BYTE   N60  Cn4  v124
 BYTE   W72
//  #04 //046   ----------------------------------------
 BYTE   N21
 BYTE   W24
 BYTE   N05  Bn3  v127
 BYTE   W06
 BYTE   An3  v120
 BYTE   W06
 BYTE   N10  Gn3
 BYTE   W12
 BYTE   Fn3  v116
 BYTE   W12
 BYTE   En3
 BYTE   W12
 BYTE   Dn3  v124
 BYTE   W12
 BYTE   En3  v127
 BYTE   W12
//  #04 //047   ----------------------------------------
 BYTE   Fn3
 BYTE   W12
 BYTE   N21  Gn3
 BYTE   W24
 BYTE   N10  Bn2  v112
 BYTE   W12
//  #04 //048   ----------------------------------------
 BYTE   PATT
  POIN2 Label_012C792E
//  #04 //049   ----------------------------------------
 BYTE   N30  Bn3  v124
 BYTE   W36
 BYTE   Gn3  v116
 BYTE   W36
 BYTE   N21  Cn4  v127
 BYTE   W24
//  #04 //050   ----------------------------------------
 BYTE   N05  Bn3  v120
 BYTE   W06
 BYTE   An3  v124
 BYTE   W06
 BYTE   N10  Gn3  v120
 BYTE   W12
 BYTE   Fn3
 BYTE   W12
 BYTE   En3  v116
 BYTE   W12
 BYTE   Dn3
 BYTE   W12
 BYTE   En3  v127
 BYTE   W12
 BYTE   Fn3
 BYTE   W12
 BYTE   N21  Gn3
 BYTE   W24
//  #04 //051   ----------------------------------------
 BYTE   N10  Dn3  v108
 BYTE   W12
 BYTE   N05  An3  v127
 BYTE   W06
 BYTE   Gn3  v124
 BYTE   W06
 BYTE   Fn3
 BYTE   W06
 BYTE   Gn3  v127
 BYTE   W06
 BYTE   En3  v116
 BYTE   W06
 BYTE   Fn3  v127
 BYTE   W06
 BYTE   N10  Cn3  v116
 BYTE   W12
 BYTE   Cn4  v127
 BYTE   W12
 BYTE   Cn3  v100
 BYTE   W12
 BYTE   Bn3  v127
 BYTE   W12
//  #04 //052   ----------------------------------------
 BYTE   An3  v124
 BYTE   W12
 BYTE   Gn3  v116
 BYTE   W12
 BYTE   Fn3
 BYTE   W12
 BYTE   En3
 BYTE   W12
 BYTE   Dn3  v120
 BYTE   W12
 BYTE   N05  Cn4  v127
 BYTE   W06
 BYTE   Gn3  v112
 BYTE   W06
 BYTE   Cn4  v127
 BYTE   W06
 BYTE   Dn4
 BYTE   W06
 BYTE   Gn3  v108
 BYTE   W06
 BYTE   Dn4  v127
 BYTE   W06
//  #04 //053   ----------------------------------------
 BYTE   En4
 BYTE   W06
 BYTE   Gn3  v108
 BYTE   W06
 BYTE   En4  v127
 BYTE   W06
 BYTE   Fn4
 BYTE   W06
 BYTE   En4  v120
 BYTE   W06
 BYTE   Dn4
 BYTE   W06
 BYTE   En4  v127
 BYTE   W06
 BYTE   Gn3  v096
 BYTE   W06
 BYTE   Gn3  v124
 BYTE   W06
 BYTE   Dn4  v127
 BYTE   W06
 BYTE   Cn4  v124
 BYTE   W06
 BYTE   Bn3  v120
 BYTE   W06
 BYTE   Cn4  v127
 BYTE   W06
 BYTE   Gn3  v112
 BYTE   W06
 BYTE   En3  v116
 BYTE   W06
 BYTE   Gn3  v127
 BYTE   W06
//  #04 //054   ----------------------------------------
 BYTE   Cn3  v108
 BYTE   W06
 BYTE   Gn3  v127
 BYTE   W06
 BYTE   Cn4
 BYTE   W06
 BYTE   Gn3  v108
 BYTE   W06
 BYTE   Gn3  v127
 BYTE   W06
 BYTE   Dn4
 BYTE   W06
 BYTE   Gn3  v112
 BYTE   W06
 BYTE   Gn3  v120
 BYTE   W06
 BYTE   En4  v127
 BYTE   W06
 BYTE   Dn4  v124
 BYTE   W06
 BYTE   Cn4  v120
 BYTE   W06
 BYTE   Fn4  v127
 BYTE   W06
 BYTE   En4  v124
 BYTE   W06
 BYTE   Dn4  v116
 BYTE   W06
 BYTE   Bn3  v112
 BYTE   W06
 BYTE   Cn4  v127
 BYTE   W06
//  #04 //055   ----------------------------------------
 BYTE   Dn4
 BYTE   W06
 BYTE   Cn4  v116
 BYTE   W06
 BYTE   Gn3  v108
 BYTE   W06
 BYTE   Cn4  v127
 BYTE   W06
 BYTE   N10  Gn3  v108
 BYTE   W12
 BYTE   Cn4  v127
 BYTE   W12
 BYTE   Cn3  v096
 BYTE   W12
 BYTE   N05  Cn4  v127
 BYTE   W06
 BYTE   Gn3  v112
 BYTE   W06
 BYTE   Cn4  v127
 BYTE   W06
 BYTE   Dn4
 BYTE   W06
 BYTE   Gn3  v112
 BYTE   W06
 BYTE   Dn4  v127
 BYTE   W06
//  #04 //056   ----------------------------------------
 BYTE   En4
 BYTE   W06
 BYTE   Gn3  v100
 BYTE   W06
 BYTE   En4  v127
 BYTE   W06
 BYTE   Fn4
 BYTE   W06
 BYTE   En4  v120
 BYTE   W06
 BYTE   Dn4  v124
 BYTE   W06
 BYTE   En4  v127
 BYTE   W06
 BYTE   Gn3  v108
 BYTE   W06
 BYTE   Gn3  v124
 BYTE   W06
 BYTE   Dn4  v127
 BYTE   W06
 BYTE   Cn4  v124
 BYTE   W06
 BYTE   Bn3
 BYTE   W06
 BYTE   Cn4  v127
 BYTE   W06
 BYTE   Gn3  v108
 BYTE   W06
 BYTE   En3  v112
 BYTE   W06
 BYTE   Gn3  v127
 BYTE   W06
//  #04 //057   ----------------------------------------
 BYTE   Cn3  v108
 BYTE   W06
 BYTE   Gn3  v127
 BYTE   W06
 BYTE   Cn4
 BYTE   W06
 BYTE   Gn3  v112
 BYTE   W06
 BYTE   Gn3  v127
 BYTE   W06
 BYTE   Dn4
 BYTE   W06
 BYTE   Gn3  v112
 BYTE   W06
 BYTE   Gn3  v124
 BYTE   W06
 BYTE   En4  v127
 BYTE   W06
 BYTE   Dn4  v124
 BYTE   W06
 BYTE   Cn4  v112
 BYTE   W06
 BYTE   Fn4  v127
 BYTE   W06
 BYTE   En4  v124
 BYTE   W06
 BYTE   Dn4  v120
 BYTE   W06
 BYTE   Bn3
 BYTE   W06
 BYTE   Cn4  v127
 BYTE   W06
//  #04 //058   ----------------------------------------
 BYTE   Dn4
 BYTE   W06
 BYTE   Cn4  v124
 BYTE   W06
 BYTE   Gn3  v108
 BYTE   W06
 BYTE   Cn4  v127
 BYTE   W06
 BYTE   N10  Gn3  v116
 BYTE   W12
 BYTE   Cn4  v127
 BYTE   W12
 BYTE   Cn3  v100
 BYTE   W12
 BYTE   N07  Cn4  v127
 BYTE   W12
 BYTE   Cn4  v112
 BYTE   W12
 BYTE   N05  Bn3  v116
 BYTE   W06
 BYTE   Cn4  v124
 BYTE   W06
//  #04 //059   ----------------------------------------
 BYTE   N30  Dn4  v127
 BYTE   W30
 BYTE   W06
//  #04 //060   ----------------------------------------
 BYTE   PATT
  POIN2 Label_012C7BA9
//  #04 //061   ----------------------------------------
 BYTE   N07  Cn4  v108
 BYTE   W12
 BYTE   Cn4  v112
 BYTE   W12
 BYTE   N05  Bn3
 BYTE   W06
 BYTE   Cn4  v127
 BYTE   W06
 BYTE   N10  Dn4
 BYTE   W12
 BYTE   Gn3  v108
 BYTE   W12
 BYTE   Dn4  v127
 BYTE   W12
//  #04 //062   ----------------------------------------
 BYTE   PATT
  POIN2 Label_012C79DB
//  #04 //063   ----------------------------------------
 BYTE   N07  Cn4  v120
 BYTE   W12
 BYTE   Cn4  v112
 BYTE   W12
 BYTE   N05  Bn3  v116
 BYTE   W06
 BYTE   Cn4  v127
 BYTE   W06
 BYTE   N30  Dn4
 BYTE   W30
 BYTE   W06
 BYTE   CnM2
 BYTE   N07  En4
 BYTE   W12
 BYTE   En4  v116
 BYTE   W12
//  #04 //064   ----------------------------------------
 BYTE   N05  Dn4  v112
 BYTE   W06
 BYTE   En4  v127
 BYTE   W06
 BYTE   N30  Fn4
 BYTE   W30
 BYTE   W06
 BYTE   CnM2
 BYTE   N07  Cn4  v116
 BYTE   W12
 BYTE   N07
 BYTE   W12
 BYTE   N05  Bn3
 BYTE   W06
 BYTE   Cn4  v127
 BYTE   W06
 BYTE   N10  Dn4
 BYTE   W12
//  #04 //065   ----------------------------------------
 BYTE   Gn3  v108
 BYTE   W12
 BYTE   Dn4  v127
 BYTE   W12
 BYTE   N60  Cn4  v120
 BYTE   W72
//  #04 //066   ----------------------------------------
 BYTE   GoTo
  POIN2 Label_012C7906
 BYTE   FINE

//**************** Track 5 (Midi-Chn.4) ****************//

MarionCourse_005:
//  #05 //000   ----------------------------------------
 BYTE   KEYSH   MarionCourse_key+0
Label_012C7F36:
 BYTE   VOICE   7
 BYTE   PAN   c_v+10
 BYTE   VOL   57*MarionCourse_mvl/mxv
 BYTE   N21  En3  v112
 BYTE   W24
 BYTE   N05  Dn3
 BYTE   W06
 BYTE   Cn3  v116
 BYTE   W06
 BYTE   N10  Cn3  v124
 BYTE   W12
 BYTE   An2  v127
 BYTE   W12
 BYTE   Gn2  v124
 BYTE   W12
Label_012C7F50:
 BYTE   N10  Bn2  v127
 BYTE   W12
 BYTE   Cn3
 BYTE   W12
//  #05 //001   ----------------------------------------
 BYTE   Dn3
 BYTE   W12
 BYTE   N21
 BYTE   W24
 BYTE   N10  Gn2  v116
 BYTE   W12
 BYTE   PEND 
 BYTE   N05  Gn2  v120
 BYTE   W06
 BYTE   Bn2  v127
 BYTE   W06
 BYTE   Cn3
 BYTE   W06
 BYTE   Dn3
 BYTE   W06
 BYTE   En3
 BYTE   W06
 BYTE   Fn3
 BYTE   W06
 BYTE   N21  En3  v120
 BYTE   W24
//  #05 //002   ----------------------------------------
 BYTE   N10  Gn3  v127
 BYTE   W12
Label_012C7F76:
 BYTE   N30  Gn3  v127
 BYTE   W36
 BYTE   Dn3  v112
 BYTE   W36
 BYTE   PEND 
 BYTE   N21  En3  v127
 BYTE   W24
//  #05 //003   ----------------------------------------
 BYTE   N05  Dn3  v116
 BYTE   W06
 BYTE   Cn3
 BYTE   W06
 BYTE   N10  Cn3  v124
 BYTE   W12
 BYTE   An2
 BYTE   W12
 BYTE   Gn2  v120
 BYTE   W12
Label_012C7F91:
 BYTE   N10  Bn2  v127
 BYTE   W12
 BYTE   Cn3
 BYTE   W12
 BYTE   Dn3
 BYTE   W12
 BYTE   N21  Dn3  v124
 BYTE   W24
//  #05 //004   ----------------------------------------
 BYTE   N10  Gn2  v116
 BYTE   W12
 BYTE   PEND 
 BYTE   N05  Fn3  v127
 BYTE   W06
 BYTE   En3
 BYTE   W06
 BYTE   Dn3  v120
 BYTE   W06
 BYTE   En3  v127
 BYTE   W06
 BYTE   Cn3  v108
 BYTE   W06
 BYTE   Dn3  v127
 BYTE   W06
 BYTE   N10  Fn2  v112
 BYTE   W12
 BYTE   Fn3  v127
 BYTE   W12
 BYTE   Fn2  v116
 BYTE   W12
 BYTE   Gn3  v127
 BYTE   W12
//  #05 //005   ----------------------------------------
 BYTE   Fn3
 BYTE   W12
 BYTE   En3  v120
 BYTE   W12
 BYTE   Dn3  v124
 BYTE   W12
 BYTE   Cn3  v120
 BYTE   W12
 BYTE   Bn2  v124
 BYTE   W12
 BYTE   N05  Cn3  v127
 BYTE   W06
 BYTE   Gn2  v120
 BYTE   W06
 BYTE   En2
 BYTE   W06
 BYTE   Gn2  v124
 BYTE   W06
 BYTE   Cn2  v116
 BYTE   W06
 BYTE   En2  v127
 BYTE   W06
//  #05 //006   ----------------------------------------
 BYTE   Gn2
 BYTE   W06
 BYTE   Dn2  v116
 BYTE   W06
 BYTE   Bn2  v127
 BYTE   W06
 BYTE   Gn2  v124
 BYTE   W06
 BYTE   Dn3  v127
 BYTE   W06
 BYTE   Gn2  v120
 BYTE   W06
 BYTE   Cn3  v127
 BYTE   W06
 BYTE   Gn2  v120
 BYTE   W06
 BYTE   Dn2  v116
 BYTE   W06
 BYTE   En3  v127
 BYTE   W06
 BYTE   Cn3  v120
 BYTE   W06
 BYTE   Gn2  v116
 BYTE   W06
 BYTE   An2  v127
 BYTE   W06
 BYTE   Fn2  v124
 BYTE   W06
 BYTE   Cn3  v127
 BYTE   W06
 BYTE   An2  v124
 BYTE   W06
//  #05 //007   ----------------------------------------
 BYTE   Fn3  v127
 BYTE   W06
 BYTE   Cn3  v116
 BYTE   W06
 BYTE   Gn2  v112
 BYTE   W06
 BYTE   Dn2  v120
 BYTE   W06
 BYTE   Cn3  v127
 BYTE   W06
 BYTE   Gn2  v124
 BYTE   W06
 BYTE   En3  v127
 BYTE   W06
 BYTE   Cn3  v116
 BYTE   W06
 BYTE   Gn2  v120
 BYTE   W06
 BYTE   Dn2
 BYTE   W06
 BYTE   Bn2  v127
 BYTE   W06
 BYTE   Gn2  v120
 BYTE   W06
 BYTE   Dn3  v127
 BYTE   W06
 BYTE   Bn2
 BYTE   W06
 BYTE   Fn2  v120
 BYTE   W06
 BYTE   Dn2
 BYTE   W06
//  #05 //008   ----------------------------------------
 BYTE   An2  v127
 BYTE   W06
 BYTE   Fn2  v120
 BYTE   W06
 BYTE   Cn3  v127
 BYTE   W06
 BYTE   An2  v124
 BYTE   W06
 BYTE   Bn2  v127
 BYTE   W06
 BYTE   Dn2  v112
 BYTE   W06
 BYTE   Gn2  v127
 BYTE   W06
 BYTE   Bn2
 BYTE   W06
 BYTE   Dn3
 BYTE   W06
 BYTE   Bn2  v124
 BYTE   W06
 BYTE   Gn2  v116
 BYTE   W06
 BYTE   En2  v120
 BYTE   W06
 BYTE   Cn3  v127
 BYTE   W06
 BYTE   Gn2  v120
 BYTE   W06
 BYTE   En3  v127
 BYTE   W06
 BYTE   Cn3  v116
 BYTE   W06
//  #05 //009   ----------------------------------------
 BYTE   Bn2  v124
 BYTE   W06
 BYTE   Gn2  v116
 BYTE   W06
 BYTE   Dn2  v120
 BYTE   W06
 BYTE   Dn3  v127
 BYTE   W06
 BYTE   Bn2
 BYTE   W06
 BYTE   Gn2  v124
 BYTE   W06
 BYTE   Gn2  v127
 BYTE   W06
 BYTE   En2  v124
 BYTE   W06
 BYTE   Cn3  v127
 BYTE   W06
 BYTE   Gn2  v120
 BYTE   W06
 BYTE   En3  v127
 BYTE   W06
 BYTE   Cn3  v120
 BYTE   W06
 BYTE   An2  v127
 BYTE   W06
 BYTE   Fn2  v120
 BYTE   W06
 BYTE   Cn3  v127
 BYTE   W06
 BYTE   An2
 BYTE   W06
//  #05 //010   ----------------------------------------
 BYTE   Fn2  v120
 BYTE   W06
 BYTE   Cn2  v116
 BYTE   W06
 BYTE   Gn2  v127
 BYTE   W06
 BYTE   En2
 BYTE   W06
 BYTE   Cn3
 BYTE   W06
 BYTE   Gn2  v120
 BYTE   W06
 BYTE   En3  v127
 BYTE   W06
 BYTE   Cn3  v116
 BYTE   W06
 BYTE   Bn2  v127
 BYTE   W06
 BYTE   Gn2  v116
 BYTE   W06
 BYTE   Dn2  v120
 BYTE   W06
 BYTE   Dn3  v127
 BYTE   W06
 BYTE   Bn2
 BYTE   W06
 BYTE   Gn2  v120
 BYTE   W06
Label_012C80C0:
 BYTE   N05  Cn2  v112
 BYTE   W06
 BYTE   Cn2  v127
 BYTE   W06
//  #05 //011   ----------------------------------------
 BYTE   En2
 BYTE   W06
 BYTE   Gn2
 BYTE   W06
 BYTE   Cn3
 BYTE   W06
 BYTE   En2  v120
 BYTE   W06
 BYTE   En3  v127
 BYTE   W06
 BYTE   Cn3  v120
 BYTE   W06
 BYTE   Gn2  v116
 BYTE   W06
 BYTE   Cn3  v127
 BYTE   W06
 BYTE   En2  v120
 BYTE   W06
 BYTE   Gn3  v127
 BYTE   W06
 BYTE   PEND 
 BYTE   N21  En3  v120
 BYTE   W24
 BYTE   N05  Dn3
 BYTE   W06
 BYTE   Cn3
 BYTE   W06
//  #05 //012   ----------------------------------------
 BYTE   N10  Cn3  v124
 BYTE   W12
 BYTE   An2
 BYTE   W12
 BYTE   Gn2
 BYTE   W12
 BYTE   Bn2  v127
 BYTE   W12
 BYTE   Cn3
 BYTE   W12
 BYTE   Dn3
 BYTE   W12
 BYTE   N21  Dn3  v124
 BYTE   W24
//  #05 //013   ----------------------------------------
 BYTE   N10  Gn2  v112
 BYTE   W12
 BYTE   N05  Gn2  v124
 BYTE   W06
 BYTE   Bn2  v127
 BYTE   W06
 BYTE   Cn3
 BYTE   W06
 BYTE   Dn3
 BYTE   W06
 BYTE   En3
 BYTE   W06
 BYTE   Fn3
 BYTE   W06
 BYTE   N21  En3  v124
 BYTE   W24
 BYTE   N10  Gn3  v127
 BYTE   W12
Label_012C811A:
 BYTE   N30  Gn3  v127
 BYTE   W36
//  #05 //014   ----------------------------------------
 BYTE   Dn3  v108
 BYTE   W36
 BYTE   PEND 
 BYTE   N21  En3  v127
 BYTE   W24
 BYTE   N05  Dn3  v116
 BYTE   W06
 BYTE   Cn3
 BYTE   W06
 BYTE   N10  Cn3  v127
 BYTE   W12
 BYTE   An2  v120
 BYTE   W12
//  #05 //015   ----------------------------------------
 BYTE   Gn2  v116
 BYTE   W12
 BYTE   Bn2  v127
 BYTE   W12
 BYTE   Cn3
 BYTE   W12
 BYTE   Dn3
 BYTE   W12
 BYTE   N21
 BYTE   W24
 BYTE   N10  Gn2  v120
 BYTE   W12
 BYTE   N05  Fn3  v127
 BYTE   W06
 BYTE   En3  v120
 BYTE   W06
//  #05 //016   ----------------------------------------
 BYTE   Dn3
 BYTE   W06
 BYTE   En3  v127
 BYTE   W06
 BYTE   Cn3  v124
 BYTE   W06
 BYTE   Dn3  v127
 BYTE   W06
 BYTE   N10  Fn2  v108
 BYTE   W12
 BYTE   Fn3  v127
 BYTE   W12
 BYTE   Fn2  v120
 BYTE   W12
 BYTE   Gn3  v127
 BYTE   W12
 BYTE   Fn3  v120
 BYTE   W12
 BYTE   En3  v124
 BYTE   W12
//  #05 //017   ----------------------------------------
 BYTE   Dn3  v120
 BYTE   W12
 BYTE   Cn3
 BYTE   W12
 BYTE   Bn2
 BYTE   W12
 BYTE   W06
 BYTE   N06  Cn4  v080
 BYTE   W06
 BYTE   Gn3  v072
 BYTE   W06
 BYTE   Cn4  v092
 BYTE   W06
 BYTE   Dn4
 BYTE   W06
 BYTE   Gn3  v076
 BYTE   W06
 BYTE   Dn4  v100
 BYTE   W06
 BYTE   En4  v092
 BYTE   W06
 BYTE   Gn3  v068
 BYTE   W06
 BYTE   En4  v104
 BYTE   W06
//  #05 //018   ----------------------------------------
 BYTE   Fn4  v092
 BYTE   W06
 BYTE   En4  v080
 BYTE   W06
 BYTE   Dn4  v076
 BYTE   W06
 BYTE   En4  v092
 BYTE   W06
 BYTE   Gn3  v064
 BYTE   W06
 BYTE   Gn3  v080
 BYTE   W06
 BYTE   Dn4  v104
 BYTE   W06
 BYTE   Cn4  v084
 BYTE   W06
 BYTE   Bn3  v080
 BYTE   W06
 BYTE   Cn4  v092
 BYTE   W06
 BYTE   Gn3  v072
 BYTE   W06
 BYTE   En3  v068
 BYTE   W06
 BYTE   Gn3  v092
 BYTE   W06
 BYTE   Cn3  v072
 BYTE   W06
 BYTE   Gn3  v096
 BYTE   W06
 BYTE   Cn4
 BYTE   W06
//  #05 //019   ----------------------------------------
 BYTE   Gn3  v076
 BYTE   W06
 BYTE   Gn3  v084
 BYTE   W06
 BYTE   Dn4  v100
 BYTE   W06
 BYTE   Gn3  v076
 BYTE   W06
 BYTE   Gn3  v080
 BYTE   W06
 BYTE   En4  v100
 BYTE   W06
 BYTE   Dn4  v080
 BYTE   W06
 BYTE   Cn4  v076
 BYTE   W06
 BYTE   Fn4  v096
 BYTE   W06
 BYTE   En4  v080
 BYTE   W06
 BYTE   Dn4
 BYTE   W06
 BYTE   Gn3  v072
 BYTE   W06
 BYTE   Cn4  v092
 BYTE   W06
 BYTE   Dn4
 BYTE   W06
 BYTE   Cn4  v080
 BYTE   W06
 BYTE   Gn3  v072
 BYTE   W06
//  #05 //020   ----------------------------------------
 BYTE   Cn4  v092
 BYTE   W06
 BYTE   N12  Gn3  v076
 BYTE   W12
 BYTE   Cn4  v100
 BYTE   W12
 BYTE   N06  Cn3  v064
 BYTE   W06
Label_012C81F6:
 BYTE   N12  Cn3  v127
 BYTE   W12
 BYTE   Gn2
 BYTE   W12
 BYTE   Cn2
 BYTE   W12
 BYTE   Cn3
 BYTE   W12
 BYTE   Gn2
 BYTE   W12
//  #05 //021   ----------------------------------------
 BYTE   Cn2
 BYTE   W12
 BYTE   PEND 
//  #05 //022   ----------------------------------------
 BYTE   PATT
  POIN2 Label_012C81F6
//  #05 //023   ----------------------------------------
 BYTE   PATT
  POIN2 Label_012C81F6
//  #05 //024   ----------------------------------------
 BYTE   PATT
  POIN2 Label_012C81F6
//  #05 //025   ----------------------------------------
 BYTE   N05  Cn3  v127
 BYTE   W06
 BYTE   Gn2
 BYTE   W06
 BYTE   En2  v124
 BYTE   W06
 BYTE   Gn2  v127
 BYTE   W06
 BYTE   Cn2  v116
 BYTE   W06
 BYTE   En2  v127
 BYTE   W06
 BYTE   Gn2
 BYTE   W06
 BYTE   Dn2  v120
 BYTE   W06
 BYTE   Bn2  v127
 BYTE   W06
 BYTE   Gn2  v120
 BYTE   W06
 BYTE   Dn3  v127
 BYTE   W06
 BYTE   Gn2  v116
 BYTE   W06
 BYTE   Cn3  v127
 BYTE   W06
 BYTE   Gn2  v120
 BYTE   W06
 BYTE   Dn2
 BYTE   W06
 BYTE   En3  v127
 BYTE   W06
//  #05 //026   ----------------------------------------
 BYTE   Cn3  v120
 BYTE   W06
 BYTE   Gn2
 BYTE   W06
 BYTE   An2  v124
 BYTE   W06
 BYTE   Fn2  v116
 BYTE   W06
 BYTE   Cn3  v127
 BYTE   W06
 BYTE   An2  v120
 BYTE   W06
 BYTE   Fn3  v127
 BYTE   W06
 BYTE   Cn3  v112
 BYTE   W06
 BYTE   Gn2  v116
 BYTE   W06
 BYTE   Dn2
 BYTE   W06
 BYTE   Cn3  v127
 BYTE   W06
 BYTE   Gn2  v120
 BYTE   W06
 BYTE   En3  v127
 BYTE   W06
 BYTE   Cn3  v116
 BYTE   W06
 BYTE   Gn2  v120
 BYTE   W06
 BYTE   Dn2  v116
 BYTE   W06
//  #05 //027   ----------------------------------------
 BYTE   Bn2  v127
 BYTE   W06
 BYTE   Gn2  v120
 BYTE   W06
 BYTE   Dn3  v127
 BYTE   W06
 BYTE   Bn2  v124
 BYTE   W06
 BYTE   Fn2  v116
 BYTE   W06
 BYTE   Dn2  v120
 BYTE   W06
 BYTE   An2  v127
 BYTE   W06
 BYTE   Fn2  v124
 BYTE   W06
 BYTE   Cn3  v127
 BYTE   W06
 BYTE   An2
 BYTE   W06
 BYTE   Bn2  v124
 BYTE   W06
 BYTE   Dn2  v112
 BYTE   W06
 BYTE   Gn2  v127
 BYTE   W06
 BYTE   Bn2
 BYTE   W06
 BYTE   Dn3
 BYTE   W06
 BYTE   Bn2
 BYTE   W06
//  #05 //028   ----------------------------------------
 BYTE   Gn2  v120
 BYTE   W06
 BYTE   En2  v124
 BYTE   W06
 BYTE   Cn3  v127
 BYTE   W06
 BYTE   Gn2  v124
 BYTE   W06
 BYTE   En3  v127
 BYTE   W06
 BYTE   Cn3  v116
 BYTE   W06
 BYTE   Bn2  v124
 BYTE   W06
 BYTE   Gn2
 BYTE   W06
 BYTE   Dn2  v116
 BYTE   W06
 BYTE   Dn3  v127
 BYTE   W06
 BYTE   Bn2
 BYTE   W06
 BYTE   Gn2  v116
 BYTE   W06
 BYTE   Gn2  v124
 BYTE   W06
 BYTE   En2  v120
 BYTE   W06
 BYTE   Cn3  v127
 BYTE   W06
 BYTE   Gn2  v120
 BYTE   W06
//  #05 //029   ----------------------------------------
 BYTE   En3  v127
 BYTE   W06
 BYTE   Cn3  v124
 BYTE   W06
 BYTE   An2
 BYTE   W06
 BYTE   Fn2  v120
 BYTE   W06
 BYTE   Cn3  v127
 BYTE   W06
 BYTE   An2
 BYTE   W06
 BYTE   Fn2  v120
 BYTE   W06
 BYTE   Cn2  v116
 BYTE   W06
 BYTE   Gn2  v127
 BYTE   W06
 BYTE   En2  v120
 BYTE   W06
 BYTE   Cn3  v127
 BYTE   W06
 BYTE   Gn2  v120
 BYTE   W06
 BYTE   En3  v127
 BYTE   W06
 BYTE   Cn3  v116
 BYTE   W06
 BYTE   Bn2  v127
 BYTE   W06
 BYTE   Gn2  v120
 BYTE   W06
//  #05 //030   ----------------------------------------
 BYTE   Dn2  v116
 BYTE   W06
 BYTE   Dn3  v127
 BYTE   W06
 BYTE   Bn2
 BYTE   W06
 BYTE   Gn2  v124
 BYTE   W06
 BYTE   Cn2  v112
 BYTE   W06
 BYTE   Cn2  v124
 BYTE   W06
 BYTE   En2  v127
 BYTE   W06
 BYTE   Gn2
 BYTE   W06
 BYTE   Cn3
 BYTE   W06
 BYTE   En2  v116
 BYTE   W06
 BYTE   En3  v127
 BYTE   W06
 BYTE   Cn3  v124
 BYTE   W06
 BYTE   Gn2  v116
 BYTE   W06
 BYTE   Cn3  v127
 BYTE   W06
 BYTE   En2  v120
 BYTE   W06
 BYTE   Gn3  v127
 BYTE   W06
//  #05 //031   ----------------------------------------
 BYTE   N21  En3  v124
 BYTE   W24
 BYTE   N05  Dn3  v120
 BYTE   W06
 BYTE   Cn3
 BYTE   W06
 BYTE   N10  Cn3  v124
 BYTE   W12
 BYTE   An2  v127
 BYTE   W12
 BYTE   Gn2  v124
 BYTE   W12
//  #05 //032   ----------------------------------------
 BYTE   PATT
  POIN2 Label_012C7F50
//  #05 //033   ----------------------------------------
 BYTE   N05  Gn2  v124
 BYTE   W06
 BYTE   Bn2  v127
 BYTE   W06
 BYTE   Cn3
 BYTE   W06
 BYTE   Dn3
 BYTE   W06
 BYTE   En3
 BYTE   W06
 BYTE   Fn3
 BYTE   W06
 BYTE   N21  En3
 BYTE   W24
 BYTE   N10  Gn3
 BYTE   W12
//  #05 //034   ----------------------------------------
 BYTE   PATT
  POIN2 Label_012C811A
//  #05 //035   ----------------------------------------
 BYTE   N21  En3  v127
 BYTE   W24
 BYTE   N05  Dn3  v116
 BYTE   W06
 BYTE   Cn3
 BYTE   W06
 BYTE   N10  Cn3  v127
 BYTE   W12
 BYTE   An2  v120
 BYTE   W12
 BYTE   Gn2
 BYTE   W12
//  #05 //036   ----------------------------------------
 BYTE   PATT
  POIN2 Label_012C7F91
//  #05 //037   ----------------------------------------
 BYTE   N05  Fn3  v127
 BYTE   W06
 BYTE   En3  v124
 BYTE   W06
 BYTE   Dn3  v120
 BYTE   W06
 BYTE   En3  v127
 BYTE   W06
 BYTE   Cn3  v116
 BYTE   W06
 BYTE   Dn3  v127
 BYTE   W06
 BYTE   N10  Fn2  v116
 BYTE   W12
 BYTE   Fn3  v127
 BYTE   W12
 BYTE   Fn2  v116
 BYTE   W12
 BYTE   Gn3  v127
 BYTE   W12
 BYTE   Fn3
 BYTE   W12
//  #05 //038   ----------------------------------------
 BYTE   En3  v116
 BYTE   W12
 BYTE   Dn3  v120
 BYTE   W12
 BYTE   Cn3  v116
 BYTE   W12
 BYTE   Bn2  v124
 BYTE   W12
 BYTE   N05  Cn3  v127
 BYTE   W06
 BYTE   Gn2  v120
 BYTE   W06
 BYTE   En2  v124
 BYTE   W06
 BYTE   Gn2  v127
 BYTE   W06
 BYTE   Cn2  v116
 BYTE   W06
 BYTE   En2  v127
 BYTE   W06
 BYTE   Gn2
 BYTE   W06
 BYTE   Dn2  v116
 BYTE   W06
//  #05 //039   ----------------------------------------
 BYTE   Bn2  v127
 BYTE   W06
 BYTE   Gn2  v124
 BYTE   W06
 BYTE   Dn3  v127
 BYTE   W06
 BYTE   Gn2  v120
 BYTE   W06
 BYTE   Cn3  v127
 BYTE   W06
 BYTE   Gn2
 BYTE   W06
 BYTE   Dn2  v120
 BYTE   W06
 BYTE   En3  v127
 BYTE   W06
 BYTE   Cn3  v120
 BYTE   W06
 BYTE   Gn2
 BYTE   W06
 BYTE   An2  v127
 BYTE   W06
 BYTE   Fn2  v120
 BYTE   W06
 BYTE   Cn3  v127
 BYTE   W06
 BYTE   An2
 BYTE   W06
 BYTE   Fn3
 BYTE   W06
 BYTE   Cn3  v116
 BYTE   W06
//  #05 //040   ----------------------------------------
 BYTE   Gn2  v120
 BYTE   W06
 BYTE   Dn2
 BYTE   W06
 BYTE   Cn3  v127
 BYTE   W06
 BYTE   Gn2  v124
 BYTE   W06
 BYTE   En3  v127
 BYTE   W06
 BYTE   Cn3  v112
 BYTE   W06
 BYTE   Gn2  v120
 BYTE   W06
 BYTE   Dn2  v116
 BYTE   W06
 BYTE   Bn2  v127
 BYTE   W06
 BYTE   Gn2  v120
 BYTE   W06
 BYTE   Dn3  v127
 BYTE   W06
 BYTE   Bn2
 BYTE   W06
 BYTE   Fn2  v120
 BYTE   W06
 BYTE   Dn2
 BYTE   W06
 BYTE   An2  v127
 BYTE   W06
 BYTE   Fn2  v120
 BYTE   W06
//  #05 //041   ----------------------------------------
 BYTE   Cn3  v127
 BYTE   W06
 BYTE   An2
 BYTE   W06
 BYTE   Bn2
 BYTE   W06
 BYTE   Dn2  v108
 BYTE   W06
 BYTE   Gn2  v127
 BYTE   W06
 BYTE   Bn2
 BYTE   W06
 BYTE   Dn3
 BYTE   W06
 BYTE   Bn2  v120
 BYTE   W06
 BYTE   Gn2  v124
 BYTE   W06
 BYTE   En2  v120
 BYTE   W06
 BYTE   Cn3  v127
 BYTE   W06
 BYTE   Gn2  v120
 BYTE   W06
 BYTE   En3  v127
 BYTE   W06
 BYTE   Cn3  v124
 BYTE   W06
 BYTE   Bn2
 BYTE   W06
 BYTE   Gn2  v116
 BYTE   W06
//  #05 //042   ----------------------------------------
 BYTE   Dn2  v120
 BYTE   W06
 BYTE   Dn3  v127
 BYTE   W06
 BYTE   Bn2  v120
 BYTE   W06
 BYTE   Gn2
 BYTE   W06
 BYTE   Gn2  v127
 BYTE   W06
 BYTE   En2  v120
 BYTE   W06
 BYTE   Cn3  v127
 BYTE   W06
 BYTE   Gn2  v120
 BYTE   W06
 BYTE   En3  v127
 BYTE   W06
 BYTE   Cn3  v116
 BYTE   W06
 BYTE   An2  v120
 BYTE   W06
 BYTE   Fn2  v116
 BYTE   W06
 BYTE   Cn3  v127
 BYTE   W06
 BYTE   An2  v124
 BYTE   W06
 BYTE   Fn2  v116
 BYTE   W06
 BYTE   Cn2
 BYTE   W06
//  #05 //043   ----------------------------------------
 BYTE   Gn2  v127
 BYTE   W06
 BYTE   En2  v124
 BYTE   W06
 BYTE   Cn3  v127
 BYTE   W06
 BYTE   Gn2  v124
 BYTE   W06
 BYTE   En3  v127
 BYTE   W06
 BYTE   Cn3  v120
 BYTE   W06
 BYTE   Bn2
 BYTE   W06
 BYTE   Gn2
 BYTE   W06
 BYTE   Dn2  v116
 BYTE   W06
 BYTE   Dn3  v127
 BYTE   W06
 BYTE   Bn2  v124
 BYTE   W06
 BYTE   Gn2  v120
 BYTE   W06
//  #05 //044   ----------------------------------------
 BYTE   PATT
  POIN2 Label_012C80C0
//  #05 //045   ----------------------------------------
 BYTE   N21  En3  v124
 BYTE   W24
 BYTE   N05  Dn3  v120
 BYTE   W06
 BYTE   Cn3  v116
 BYTE   W06
 BYTE   N10  Cn3  v127
 BYTE   W12
 BYTE   An2  v120
 BYTE   W12
 BYTE   Gn2  v124
 BYTE   W12
 BYTE   Bn2  v127
 BYTE   W12
 BYTE   Cn3
 BYTE   W12
//  #05 //046   ----------------------------------------
 BYTE   Dn3
 BYTE   W12
 BYTE   N21
 BYTE   W24
 BYTE   N10  Gn2  v112
 BYTE   W12
 BYTE   N05  Gn2  v124
 BYTE   W06
 BYTE   Bn2  v127
 BYTE   W06
 BYTE   Cn3
 BYTE   W06
 BYTE   Dn3
 BYTE   W06
 BYTE   En3
 BYTE   W06
 BYTE   Fn3  v124
 BYTE   W06
 BYTE   N21  En3  v120
 BYTE   W24
//  #05 //047   ----------------------------------------
 BYTE   N10  Gn3  v127
 BYTE   W12
//  #05 //048   ----------------------------------------
 BYTE   PATT
  POIN2 Label_012C7F76
//  #05 //049   ----------------------------------------
 BYTE   N21  En3  v127
 BYTE   W24
 BYTE   N05  Dn3  v116
 BYTE   W06
 BYTE   Cn3  v124
 BYTE   W06
 BYTE   N10
 BYTE   W12
 BYTE   An2
 BYTE   W12
 BYTE   Gn2
 BYTE   W12
//  #05 //050   ----------------------------------------
 BYTE   PATT
  POIN2 Label_012C7F50
//  #05 //051   ----------------------------------------
 BYTE   N05  Fn3  v127
 BYTE   W06
 BYTE   En3  v124
 BYTE   W06
 BYTE   Dn3  v116
 BYTE   W06
 BYTE   En3  v127
 BYTE   W06
 BYTE   Cn3  v116
 BYTE   W06
 BYTE   Dn3  v127
 BYTE   W06
 BYTE   N10  Fn2  v112
 BYTE   W12
 BYTE   Fn3  v127
 BYTE   W12
 BYTE   Fn2  v120
 BYTE   W12
 BYTE   Gn3  v127
 BYTE   W12
 BYTE   Fn3  v124
 BYTE   W12
//  #05 //052   ----------------------------------------
 BYTE   En3  v120
 BYTE   W12
 BYTE   Dn3
 BYTE   W12
 BYTE   Cn3  v112
 BYTE   W12
 BYTE   Bn2  v120
 BYTE   W12
 BYTE   W06
 BYTE   N06  Cn4  v076
 BYTE   W06
 BYTE   Gn3  v072
 BYTE   W06
 BYTE   Cn4  v096
 BYTE   W06
 BYTE   Dn4  v084
 BYTE   W06
 BYTE   Gn3  v072
 BYTE   W06
 BYTE   Dn4  v100
 BYTE   W06
 BYTE   En4  v088
 BYTE   W06
//  #05 //053   ----------------------------------------
 BYTE   Gn3  v072
 BYTE   W06
 BYTE   En4  v096
 BYTE   W06
 BYTE   Fn4  v100
 BYTE   W06
 BYTE   En4  v080
 BYTE   W06
 BYTE   Dn4
 BYTE   W06
 BYTE   En4  v092
 BYTE   W06
 BYTE   Gn3  v068
 BYTE   W06
 BYTE   Gn3  v080
 BYTE   W06
 BYTE   Dn4  v096
 BYTE   W06
 BYTE   Cn4  v084
 BYTE   W06
 BYTE   Bn3  v080
 BYTE   W06
 BYTE   Cn4  v092
 BYTE   W06
 BYTE   Gn3  v076
 BYTE   W06
 BYTE   En3  v072
 BYTE   W06
 BYTE   Gn3  v092
 BYTE   W06
 BYTE   Cn3  v072
 BYTE   W06
//  #05 //054   ----------------------------------------
 BYTE   Gn3  v100
 BYTE   W06
 BYTE   Cn4
 BYTE   W06
 BYTE   Gn3  v076
 BYTE   W06
 BYTE   Gn3  v084
 BYTE   W06
 BYTE   Dn4  v100
 BYTE   W06
 BYTE   Gn3  v072
 BYTE   W06
 BYTE   Gn3  v084
 BYTE   W06
 BYTE   En4  v104
 BYTE   W06
 BYTE   Dn4  v080
 BYTE   W06
 BYTE   Cn4
 BYTE   W06
 BYTE   Fn4  v100
 BYTE   W06
 BYTE   En4  v076
 BYTE   W06
 BYTE   Dn4  v084
 BYTE   W06
 BYTE   Gn3  v068
 BYTE   W06
 BYTE   Cn4  v096
 BYTE   W06
 BYTE   Dn4  v088
 BYTE   W06
//  #05 //055   ----------------------------------------
 BYTE   Cn4  v076
 BYTE   W06
 BYTE   Gn3  v072
 BYTE   W06
 BYTE   Cn4  v096
 BYTE   W06
 BYTE   N12  Gn3  v072
 BYTE   W12
 BYTE   Cn4  v092
 BYTE   W12
 BYTE   N06  Cn3  v064
 BYTE   W06
//  #05 //056   ----------------------------------------
 BYTE   PATT
  POIN2 Label_012C81F6
//  #05 //057   ----------------------------------------
 BYTE   PATT
  POIN2 Label_012C81F6
//  #05 //058   ----------------------------------------
 BYTE   PATT
  POIN2 Label_012C81F6
//  #05 //059   ----------------------------------------
 BYTE   PATT
  POIN2 Label_012C81F6
//  #05 //060   ----------------------------------------
 BYTE   N05  Cn3  v127
 BYTE   W06
 BYTE   Gn2  v124
 BYTE   W06
 BYTE   En2  v120
 BYTE   W06
 BYTE   Gn2  v127
 BYTE   W06
 BYTE   Cn2  v112
 BYTE   W06
 BYTE   En2  v127
 BYTE   W06
 BYTE   Gn2
 BYTE   W06
 BYTE   Dn2  v124
 BYTE   W06
 BYTE   Bn2  v127
 BYTE   W06
 BYTE   Gn2  v120
 BYTE   W06
 BYTE   Dn3  v127
 BYTE   W06
 BYTE   Gn2  v124
 BYTE   W06
 BYTE   Cn3  v127
 BYTE   W06
 BYTE   Gn2  v124
 BYTE   W06
 BYTE   Dn2  v120
 BYTE   W06
 BYTE   En3  v127
 BYTE   W06
//  #05 //061   ----------------------------------------
 BYTE   Cn3  v124
 BYTE   W06
 BYTE   Gn2  v120
 BYTE   W06
 BYTE   An2  v127
 BYTE   W06
 BYTE   Fn2  v124
 BYTE   W06
 BYTE   Cn3  v127
 BYTE   W06
 BYTE   An2
 BYTE   W06
 BYTE   Fn3
 BYTE   W06
 BYTE   Cn3  v112
 BYTE   W06
 BYTE   Gn2  v120
 BYTE   W06
 BYTE   Dn2  v124
 BYTE   W06
 BYTE   Cn3  v127
 BYTE   W06
 BYTE   Gn2  v120
 BYTE   W06
 BYTE   En3  v127
 BYTE   W06
 BYTE   Cn3  v120
 BYTE   W06
 BYTE   Gn2
 BYTE   W06
 BYTE   Dn2  v116
 BYTE   W06
//  #05 //062   ----------------------------------------
 BYTE   Bn2  v127
 BYTE   W06
 BYTE   Gn2  v120
 BYTE   W06
 BYTE   Dn3  v127
 BYTE   W06
 BYTE   Bn2  v124
 BYTE   W06
 BYTE   Fn2  v116
 BYTE   W06
 BYTE   Dn2  v124
 BYTE   W06
 BYTE   An2  v127
 BYTE   W06
 BYTE   Fn2  v120
 BYTE   W06
 BYTE   Cn3  v127
 BYTE   W06
 BYTE   An2  v124
 BYTE   W06
 BYTE   Bn2  v127
 BYTE   W06
 BYTE   Dn2  v108
 BYTE   W06
 BYTE   Gn2  v127
 BYTE   W06
 BYTE   Bn2
 BYTE   W06
 BYTE   Dn3
 BYTE   W06
 BYTE   Bn2
 BYTE   W06
//  #05 //063   ----------------------------------------
 BYTE   Gn2  v120
 BYTE   W06
 BYTE   En2
 BYTE   W06
 BYTE   Cn3  v127
 BYTE   W06
 BYTE   Gn2  v120
 BYTE   W06
 BYTE   En3  v127
 BYTE   W06
 BYTE   Cn3  v112
 BYTE   W06
 BYTE   Bn2  v124
 BYTE   W06
 BYTE   Gn2  v116
 BYTE   W06
 BYTE   Dn2  v120
 BYTE   W06
 BYTE   Dn3  v127
 BYTE   W06
 BYTE   Bn2  v124
 BYTE   W06
 BYTE   Gn2  v116
 BYTE   W06
 BYTE   Gn2  v127
 BYTE   W06
 BYTE   En2  v120
 BYTE   W06
 BYTE   Cn3  v127
 BYTE   W06
 BYTE   Gn2  v124
 BYTE   W06
//  #05 //064   ----------------------------------------
 BYTE   En3  v127
 BYTE   W06
 BYTE   Cn3  v124
 BYTE   W06
 BYTE   An2
 BYTE   W06
 BYTE   Fn2  v116
 BYTE   W06
 BYTE   Cn3  v127
 BYTE   W06
 BYTE   An2  v124
 BYTE   W06
 BYTE   Fn2
 BYTE   W06
 BYTE   Cn2  v120
 BYTE   W06
 BYTE   Gn2  v127
 BYTE   W06
 BYTE   En2  v120
 BYTE   W06
 BYTE   Cn3  v127
 BYTE   W06
 BYTE   Gn2  v124
 BYTE   W06
 BYTE   En3  v127
 BYTE   W06
 BYTE   Cn3  v116
 BYTE   W06
 BYTE   Bn2  v124
 BYTE   W06
 BYTE   Gn2  v116
 BYTE   W06
//  #05 //065   ----------------------------------------
 BYTE   Dn2  v120
 BYTE   W06
 BYTE   Dn3  v127
 BYTE   W06
 BYTE   Bn2  v124
 BYTE   W06
 BYTE   Gn2  v120
 BYTE   W06
 BYTE   Cn2  v116
 BYTE   W06
 BYTE   Cn2  v120
 BYTE   W06
 BYTE   En2  v127
 BYTE   W06
 BYTE   Gn2
 BYTE   W06
 BYTE   Cn3
 BYTE   W06
 BYTE   En2  v116
 BYTE   W06
 BYTE   En3  v127
 BYTE   W06
 BYTE   Cn3  v120
 BYTE   W06
 BYTE   Gn2  v116
 BYTE   W06
 BYTE   Cn3  v127
 BYTE   W06
 BYTE   En2  v116
 BYTE   W06
 BYTE   Gn3  v127
 BYTE   W06
//  #05 //066   ----------------------------------------
 BYTE   GoTo
  POIN2 Label_012C7F36
 BYTE   FINE

//**************** Track 6 (Midi-Chn.5) ****************//

MarionCourse_006:
//  #06 //000   ----------------------------------------
 BYTE   KEYSH   MarionCourse_key+0
Label_012C86CE:
 BYTE   VOICE   121
 BYTE   PAN   c_v+6
 BYTE   VOL   65*MarionCourse_mvl/mxv
 BYTE   N06  Cn1  v076
 BYTE   N06  Dn1
 BYTE   W06
 BYTE   Fs1  v072
 BYTE   W12
 BYTE   Cn1  v076
 BYTE   N06  Dn1
 BYTE   W06
 BYTE   Fs1  v072
 BYTE   W12
 BYTE   Fs1  v076
 BYTE   N06  Ds2
 BYTE   W06
 BYTE   Cn1  v108
 BYTE   N06  Dn1
 BYTE   W06
 BYTE   N12  Fs1  v080
 BYTE   W12
 BYTE   N12
 BYTE   W12
 BYTE   N06  Cn1  v104
 BYTE   N06  Dn1
 BYTE   W06
 BYTE   Fs1  v076
 BYTE   W12
 BYTE   Cn1
 BYTE   N06  Dn1
 BYTE   W06
//  #06 //001   ----------------------------------------
 BYTE   Fs1  v068
 BYTE   W12
 BYTE   Fs1  v076
 BYTE   N06  Ds2
 BYTE   W06
 BYTE   Cn1  v112
 BYTE   N06  Dn1
 BYTE   W06
 BYTE   N12  Fs1  v076
 BYTE   W12
 BYTE   Fs1  v084
 BYTE   W12
 BYTE   N06  Cn1  v104
 BYTE   N06  Dn1
 BYTE   W06
 BYTE   Fs1  v080
 BYTE   N06  An3  v127
 BYTE   W06
 BYTE   N12  Gs1  v120
 BYTE   W06
 BYTE   N06  Cn1  v076
 BYTE   N06  Dn1
 BYTE   W06
 BYTE   Fs1
 BYTE   N06  Gs1  v127
 BYTE   W06
 BYTE   N12  An3
 BYTE   W06
 BYTE   N06  Fs1  v076
 BYTE   N06  Ds2
 BYTE   W06
 BYTE   Cn1  v108
 BYTE   N06  Dn1
 BYTE   W06
//  #06 //002   ----------------------------------------
 BYTE   N12  Fs1  v076
 BYTE   W12
 BYTE   N06  Fs1  v084
 BYTE   W06
 BYTE   Fs1  v088
 BYTE   N06  Ds2
 BYTE   W06
 BYTE   Cn1  v108
 BYTE   N06  Dn1
 BYTE   W06
 BYTE   Fs1  v076
 BYTE   N06  An3  v127
 BYTE   W06
 BYTE   N12  Gs1  v120
 BYTE   W06
 BYTE   N06  Cn1  v076
 BYTE   N06  Dn1
 BYTE   W06
 BYTE   Fs1
 BYTE   N06  Gs1  v127
 BYTE   W06
 BYTE   N12  An3
 BYTE   W06
 BYTE   N06  Fs1  v076
 BYTE   N06  Ds2
 BYTE   W06
 BYTE   Cn1  v108
 BYTE   N06  Dn1
 BYTE   W06
 BYTE   Fs1  v076
 BYTE   W06
 BYTE   Cn1  v108
 BYTE   N06  Dn1
 BYTE   W06
 BYTE   Fs1  v080
 BYTE   W06
 BYTE   Cn1  v112
 BYTE   N06  Dn1
 BYTE   W06
//  #06 //003   ----------------------------------------
 BYTE   Cn1  v092
 BYTE   N06  Dn1
 BYTE   W06
 BYTE   Fs1  v080
 BYTE   W12
 BYTE   Cn1  v076
 BYTE   N06  Dn1
 BYTE   W06
 BYTE   Fs1
 BYTE   W12
 BYTE   N06
 BYTE   N06  Ds2
 BYTE   W06
 BYTE   Cn1  v104
 BYTE   N06  Dn1
 BYTE   W06
 BYTE   N12  Fs1  v076
 BYTE   W12
 BYTE   Fs1  v084
 BYTE   W12
 BYTE   N06  Cn1  v108
 BYTE   N06  Dn1
 BYTE   W06
 BYTE   Fs1  v076
 BYTE   W12
 BYTE   Cn1
 BYTE   N06  Dn1
 BYTE   W06
//  #06 //004   ----------------------------------------
 BYTE   Fs1
 BYTE   W12
 BYTE   Fs1  v080
 BYTE   N06  Ds2
 BYTE   W06
 BYTE   Cn1  v104
 BYTE   N06  Dn1
 BYTE   W06
 BYTE   N12  Fs1  v080
 BYTE   W12
 BYTE   N12
 BYTE   W12
 BYTE   N06  Cn1  v108
 BYTE   N06  Dn1
 BYTE   W06
 BYTE   Fs1  v076
 BYTE   N06  An3  v127
 BYTE   W06
 BYTE   N12  Gs1  v120
 BYTE   W06
 BYTE   N06  Cn1  v076
 BYTE   N06  Dn1
 BYTE   W06
 BYTE   Fs1  v072
 BYTE   N06  Gs1  v127
 BYTE   W06
 BYTE   N12  An3
 BYTE   W06
 BYTE   N06  Fs1  v076
 BYTE   N06  Ds2
 BYTE   W06
 BYTE   Cn1  v108
 BYTE   N06  Dn1
 BYTE   W06
//  #06 //005   ----------------------------------------
 BYTE   N12  Fs1  v080
 BYTE   W12
 BYTE   N06  Fs1  v088
 BYTE   W06
 BYTE   Fs1  v084
 BYTE   N06  Ds2
 BYTE   W06
 BYTE   Cn1  v112
 BYTE   N06  Dn1
 BYTE   W06
 BYTE   Fs1  v076
 BYTE   N06  An3  v127
 BYTE   W06
 BYTE   N12  Gs1  v124
 BYTE   W06
 BYTE   N06  Cn1  v076
 BYTE   N06  Dn1
 BYTE   W06
 BYTE   Fs1  v072
 BYTE   N06  Gs1  v127
 BYTE   W06
 BYTE   N12  An3
 BYTE   W06
 BYTE   N06  Fs1  v080
 BYTE   N06  Ds2
 BYTE   W06
 BYTE   Cn1  v104
 BYTE   N06  Dn1
 BYTE   W06
 BYTE   Fs1  v072
 BYTE   W06
 BYTE   Cn1  v108
 BYTE   N06  Dn1
 BYTE   W06
 BYTE   Fs1  v080
 BYTE   W06
 BYTE   Cn1  v100
 BYTE   N06  Dn1
 BYTE   W06
//  #06 //006   ----------------------------------------
 BYTE   N36  Gn2  v080
 BYTE   W36
 BYTE   N18  Fs1  v076
 BYTE   W18
 BYTE   N06  Fs1  v084
 BYTE   N06  Ds2
 BYTE   W06
 BYTE   Fs1  v088
 BYTE   N06  Ds2
 BYTE   W06
 BYTE   Fs1
 BYTE   N06  Ds2
 BYTE   W06
 BYTE   N36  Gn2  v100
 BYTE   W36
//  #06 //007   ----------------------------------------
 BYTE   N18  Fs1  v076
 BYTE   W18
 BYTE   N06  Fs1  v080
 BYTE   N06  Ds2
 BYTE   W06
 BYTE   Fs1  v084
 BYTE   N06  Ds2
 BYTE   W06
 BYTE   Fs1  v092
 BYTE   N06  Ds2
 BYTE   W06
 BYTE   N18  Cn1  v108
 BYTE   N18  Dn1
 BYTE   W06
 BYTE   N06  An3  v127
 BYTE   W06
 BYTE   N12  Gs1  v124
 BYTE   W06
 BYTE   N06  Fs1  v076
 BYTE   N06  Ds2
 BYTE   W12
 BYTE   Cn1
 BYTE   N06  Dn1
 BYTE   W06
 BYTE   Cn1  v084
 BYTE   N06  Dn1
 BYTE   W06
 BYTE   Fs1  v076
 BYTE   W06
 BYTE   N12  Fs1  v080
 BYTE   N12  Ds2
 BYTE   W12
//  #06 //008   ----------------------------------------
 BYTE   Cn1  v112
 BYTE   N12  Dn1
 BYTE   W12
 BYTE   N18  Cn1  v088
 BYTE   N18  Dn1
 BYTE   W06
 BYTE   N06  An3  v124
 BYTE   W06
 BYTE   N12  Gs1
 BYTE   W06
 BYTE   N06  Fs1  v080
 BYTE   N06  Ds2
 BYTE   W12
 BYTE   Cn1
 BYTE   N06  Dn1
 BYTE   W06
 BYTE   Cn1
 BYTE   N06  Dn1
 BYTE   W06
 BYTE   Fs1  v072
 BYTE   W06
 BYTE   N12  Fs1  v084
 BYTE   N12  Ds2
 BYTE   W12
 BYTE   Cn1  v108
 BYTE   N12  Dn1
 BYTE   W12
 BYTE   N18  Cn1  v092
 BYTE   N18  Dn1
 BYTE   W06
 BYTE   N06  Gs1  v127
 BYTE   W06
//  #06 //009   ----------------------------------------
 BYTE   N12  An3
 BYTE   W06
 BYTE   N06  Fs1  v076
 BYTE   N06  Ds2
 BYTE   W12
 BYTE   Cn1
 BYTE   N06  Dn1
 BYTE   W06
 BYTE   Cn1  v084
 BYTE   N06  Dn1
 BYTE   W06
 BYTE   Fs1  v076
 BYTE   W06
 BYTE   N12  Fs1  v080
 BYTE   N12  Ds2
 BYTE   W12
 BYTE   N06  Cn1  v108
 BYTE   N06  Dn1
 BYTE   W06
 BYTE   Dn1  v084
 BYTE   N06  Ds2
 BYTE   W06
 BYTE   N18  Cn1  v104
 BYTE   N18  Dn1
 BYTE   W06
 BYTE   N06  Gs1  v120
 BYTE   W06
 BYTE   N12  An3  v127
 BYTE   W06
 BYTE   N06  Fs1  v080
 BYTE   N06  Ds2
 BYTE   W12
 BYTE   Cn1  v076
 BYTE   N06  Dn1
 BYTE   W06
//  #06 //010   ----------------------------------------
 BYTE   Cn1  v088
 BYTE   N06  Dn1
 BYTE   W06
 BYTE   Fs1  v072
 BYTE   W06
 BYTE   N12  Fs1  v080
 BYTE   N12  Ds2
 BYTE   W12
 BYTE   N06  Cn1  v108
 BYTE   N06  Dn1
 BYTE   W06
 BYTE   Dn1  v080
 BYTE   N06  Ds2
 BYTE   W06
 BYTE   N18  Cn1  v104
 BYTE   N18  Dn1
 BYTE   W06
 BYTE   N06  Gs1  v127
 BYTE   W06
 BYTE   N12  An3
 BYTE   W06
 BYTE   N06  Fs1  v076
 BYTE   N06  Ds2
 BYTE   W12
 BYTE   Cn1
 BYTE   N06  Dn1
 BYTE   W06
 BYTE   Cn1  v084
 BYTE   N06  Dn1
 BYTE   W06
 BYTE   Fs1  v080
 BYTE   W06
 BYTE   N12  Fs1  v084
 BYTE   N12  Ds2
 BYTE   W12
//  #06 //011   ----------------------------------------
 BYTE   N06  Cn1  v112
 BYTE   N06  Dn1
 BYTE   W06
 BYTE   Dn1  v080
 BYTE   N06  Ds2
 BYTE   W06
 BYTE   N18  Cn1  v104
 BYTE   N18  Dn1
 BYTE   W06
 BYTE   N06  Gs1  v127
 BYTE   W06
 BYTE   N12  An3
 BYTE   W06
 BYTE   N06  Fs1  v076
 BYTE   N06  Ds2
 BYTE   W12
 BYTE   Cn1  v072
 BYTE   N06  Dn1
 BYTE   W06
 BYTE   Cn1  v084
 BYTE   N06  Dn1
 BYTE   W06
 BYTE   Fs1  v072
 BYTE   W06
 BYTE   Fs1  v084
 BYTE   N06  Ds2
 BYTE   W06
 BYTE   Fs1
 BYTE   N06  Ds2
 BYTE   W06
 BYTE   Fs1
 BYTE   N06  Ds2
 BYTE   W06
 BYTE   Fs1
 BYTE   N06  Ds2
 BYTE   W06
 BYTE   Cn1  v104
 BYTE   N06  Dn1
 BYTE   W06
 BYTE   Fs1  v072
 BYTE   W12
//  #06 //012   ----------------------------------------
 BYTE   Cn1  v076
 BYTE   N06  Dn1
 BYTE   W06
 BYTE   Fs1
 BYTE   W12
 BYTE   N06
 BYTE   N06  Ds2
 BYTE   W06
 BYTE   Cn1  v108
 BYTE   N06  Dn1
 BYTE   W06
 BYTE   N12  Fs1  v080
 BYTE   W12
 BYTE   Fs1  v084
 BYTE   W12
 BYTE   N06  Cn1  v104
 BYTE   N06  Dn1
 BYTE   W06
 BYTE   Fs1  v076
 BYTE   W12
 BYTE   Cn1
 BYTE   N06  Dn1
 BYTE   W06
 BYTE   Fs1
 BYTE   W12
 BYTE   N06
 BYTE   N06  Ds2
 BYTE   W06
//  #06 //013   ----------------------------------------
 BYTE   Cn1  v108
 BYTE   N06  Dn1
 BYTE   W06
 BYTE   N12  Fs1  v084
 BYTE   W12
 BYTE   N12
 BYTE   W12
 BYTE   N06  Cn1  v108
 BYTE   N06  Dn1
 BYTE   W06
 BYTE   Fs1  v084
 BYTE   N06  An3  v127
 BYTE   W06
 BYTE   N12  Gs1  v120
 BYTE   W06
 BYTE   N06  Cn1  v072
 BYTE   N06  Dn1
 BYTE   W06
 BYTE   Fs1
 BYTE   N06  Gs1  v127
 BYTE   W06
 BYTE   N12  An3
 BYTE   W06
 BYTE   N06  Fs1  v076
 BYTE   N06  Ds2
 BYTE   W06
 BYTE   Cn1  v104
 BYTE   N06  Dn1
 BYTE   W06
 BYTE   N12  Fs1  v076
 BYTE   W12
 BYTE   N06  Fs1  v084
 BYTE   W06
//  #06 //014   ----------------------------------------
 BYTE   N06
 BYTE   N06  Ds2
 BYTE   W06
 BYTE   Cn1  v108
 BYTE   N06  Dn1
 BYTE   W06
 BYTE   Fs1  v080
 BYTE   N06  An3  v127
 BYTE   W06
 BYTE   N12  Gs1  v120
 BYTE   W06
 BYTE   N06  Cn1  v072
 BYTE   N06  Dn1
 BYTE   W06
 BYTE   Fs1
 BYTE   N06  Gs1  v127
 BYTE   W06
 BYTE   N12  An3
 BYTE   W06
 BYTE   N06  Fs1  v080
 BYTE   N06  Ds2
 BYTE   W06
 BYTE   Cn1  v108
 BYTE   N06  Dn1
 BYTE   W06
 BYTE   Fs1  v076
 BYTE   W06
 BYTE   Cn1  v104
 BYTE   N06  Dn1
 BYTE   W06
 BYTE   Fs1  v080
 BYTE   W06
 BYTE   Cn1  v104
 BYTE   N06  Dn1
 BYTE   W06
 BYTE   Cn1  v088
 BYTE   N06  Dn1
 BYTE   W06
 BYTE   Fs1  v076
 BYTE   W12
//  #06 //015   ----------------------------------------
 BYTE   Cn1
 BYTE   N06  Dn1
 BYTE   W06
 BYTE   Fs1
 BYTE   W12
 BYTE   N06
 BYTE   N06  Ds2
 BYTE   W06
 BYTE   Cn1  v104
 BYTE   N06  Dn1
 BYTE   W06
 BYTE   N12  Fs1  v076
 BYTE   W12
 BYTE   Fs1  v088
 BYTE   W12
 BYTE   N06  Cn1  v108
 BYTE   N06  Dn1
 BYTE   W06
 BYTE   Fs1  v076
 BYTE   W12
 BYTE   Cn1  v080
 BYTE   N06  Dn1
 BYTE   W06
 BYTE   Fs1  v072
 BYTE   W12
 BYTE   Fs1  v080
 BYTE   N06  Ds2
 BYTE   W06
//  #06 //016   ----------------------------------------
 BYTE   Cn1  v104
 BYTE   N06  Dn1
 BYTE   W06
 BYTE   N12  Fs1  v080
 BYTE   W12
 BYTE   Fs1  v076
 BYTE   W12
 BYTE   N06  Cn1  v112
 BYTE   N06  Dn1
 BYTE   W06
 BYTE   Fs1  v080
 BYTE   N06  An3  v127
 BYTE   W06
 BYTE   N12  Gs1  v124
 BYTE   W06
 BYTE   N06  Cn1  v076
 BYTE   N06  Dn1
 BYTE   W06
 BYTE   Fs1  v072
 BYTE   N06  Gs1  v127
 BYTE   W06
 BYTE   N12  An3
 BYTE   W06
 BYTE   N06  Fs1  v080
 BYTE   N06  Ds2
 BYTE   W06
 BYTE   Cn1  v100
 BYTE   N06  Dn1
 BYTE   W06
 BYTE   N12  Fs1  v080
 BYTE   W12
 BYTE   N06  Fs1  v084
 BYTE   W06
//  #06 //017   ----------------------------------------
 BYTE   N06
 BYTE   N06  Ds2
 BYTE   W06
 BYTE   Cn1  v108
 BYTE   N06  Dn1
 BYTE   W06
 BYTE   Fs1  v072
 BYTE   N06  An3  v124
 BYTE   W06
 BYTE   N12  Gs1
 BYTE   W06
 BYTE   N06  Cn1  v080
 BYTE   N06  Dn1
 BYTE   W06
 BYTE   Fs1  v068
 BYTE   N06  Gs1  v127
 BYTE   W06
 BYTE   N12  An3
 BYTE   W06
 BYTE   N06  Fs1  v076
 BYTE   N06  Ds2
 BYTE   W06
 BYTE   Cn1  v108
 BYTE   N06  Dn1
 BYTE   W06
 BYTE   Fs1  v072
 BYTE   W06
 BYTE   Cn1  v104
 BYTE   N06  Dn1
 BYTE   W06
 BYTE   Fs1  v080
 BYTE   W06
 BYTE   Cn1  v108
 BYTE   N06  Dn1
 BYTE   W06
 BYTE   N36  Gn2  v076
 BYTE   W36
//  #06 //018   ----------------------------------------
 BYTE   N18  Fs1  v072
 BYTE   W18
 BYTE   N06  Fs1  v080
 BYTE   N06  Ds2
 BYTE   W06
 BYTE   Fs1  v084
 BYTE   N06  Ds2
 BYTE   W06
 BYTE   Fs1
 BYTE   N06  Ds2
 BYTE   W06
 BYTE   N36  Gn2  v092
 BYTE   W36
 BYTE   N18  Fs1  v080
 BYTE   W18
 BYTE   N06
 BYTE   N06  Ds2
 BYTE   W06
//  #06 //019   ----------------------------------------
 BYTE   Fs1  v084
 BYTE   N06  Ds2
 BYTE   W06
 BYTE   Fs1  v088
 BYTE   N06  Ds2
 BYTE   W06
 BYTE   N18  Cn1  v108
 BYTE   N18  Dn1
 BYTE   W06
 BYTE   N06  An3  v127
 BYTE   W06
 BYTE   N12  Gs1  v120
 BYTE   W06
 BYTE   N06  Fs1  v080
 BYTE   N06  Ds2
 BYTE   W12
 BYTE   Cn1  v076
 BYTE   N06  Dn1
 BYTE   W06
 BYTE   Cn1  v084
 BYTE   N06  Dn1
 BYTE   W06
 BYTE   Fs1  v076
 BYTE   W06
 BYTE   N12  Fs1  v084
 BYTE   N12  Ds2
 BYTE   W12
 BYTE   Cn1  v108
 BYTE   N12  Dn1
 BYTE   W12
 BYTE   N18  Cn1  v084
 BYTE   N18  Dn1
 BYTE   W06
 BYTE   N06  An3  v127
 BYTE   W06
//  #06 //020   ----------------------------------------
 BYTE   N12  Gs1  v124
 BYTE   W06
 BYTE   N06  Fs1  v080
 BYTE   N06  Ds2
 BYTE   W12
 BYTE   Cn1  v072
 BYTE   N06  Dn1
 BYTE   W06
 BYTE   Cn1  v080
 BYTE   N06  Dn1
 BYTE   W06
 BYTE   Fs1
 BYTE   W06
 BYTE   N12  Fs1  v084
 BYTE   N12  Ds2
 BYTE   W12
 BYTE   Cn1  v112
 BYTE   N12  Dn1
 BYTE   W12
 BYTE   N18  Cn1  v084
 BYTE   N18  Dn1
 BYTE   W06
 BYTE   N06  Gs1  v127
 BYTE   W06
 BYTE   N12  An3
 BYTE   W06
 BYTE   N06  Fs1  v076
 BYTE   N06  Ds2
 BYTE   W12
 BYTE   Cn1
 BYTE   N06  Dn1
 BYTE   W06
//  #06 //021   ----------------------------------------
 BYTE   Cn1  v080
 BYTE   N06  Dn1
 BYTE   W06
 BYTE   Fs1  v072
 BYTE   W06
 BYTE   N12  Fs1  v088
 BYTE   N12  Ds2
 BYTE   W12
 BYTE   N06  Cn1  v108
 BYTE   N06  Dn1
 BYTE   W06
 BYTE   Dn1  v072
 BYTE   N06  Ds2
 BYTE   W06
 BYTE   N18  Cn1  v108
 BYTE   N18  Dn1
 BYTE   W06
 BYTE   N06  Gs1  v127
 BYTE   W06
 BYTE   N12  An3
 BYTE   W06
 BYTE   N06  Fs1  v080
 BYTE   N06  Ds2
 BYTE   W12
 BYTE   Cn1  v076
 BYTE   N06  Dn1
 BYTE   W06
 BYTE   Cn1  v080
 BYTE   N06  Dn1
 BYTE   W06
 BYTE   Fs1  v072
 BYTE   W06
 BYTE   N12  Fs1  v084
 BYTE   N12  Ds2
 BYTE   W12
//  #06 //022   ----------------------------------------
 BYTE   N06  Cn1  v108
 BYTE   N06  Dn1
 BYTE   W06
 BYTE   Dn1  v076
 BYTE   N06  Ds2
 BYTE   W06
 BYTE   N18  Cn1  v108
 BYTE   N18  Dn1
 BYTE   W06
 BYTE   N06  Gs1  v127
 BYTE   W06
 BYTE   N12  An3
 BYTE   W06
 BYTE   N06  Fs1  v076
 BYTE   N06  Ds2
 BYTE   W12
 BYTE   Cn1  v080
 BYTE   N06  Dn1
 BYTE   W06
 BYTE   Cn1
 BYTE   N06  Dn1
 BYTE   W06
 BYTE   Fs1  v076
 BYTE   W06
 BYTE   N12  Fs1  v080
 BYTE   N12  Ds2
 BYTE   W12
 BYTE   N06  Cn1  v108
 BYTE   N06  Dn1
 BYTE   W06
 BYTE   Dn1  v080
 BYTE   N06  Ds2
 BYTE   W06
 BYTE   N18  Cn1  v108
 BYTE   N18  Dn1
 BYTE   W06
 BYTE   N06  Gs1  v127
 BYTE   W06
//  #06 //023   ----------------------------------------
 BYTE   N12  An3
 BYTE   W06
 BYTE   N06  Fs1  v080
 BYTE   N06  Ds2
 BYTE   W12
 BYTE   Cn1
 BYTE   N06  Dn1
 BYTE   W06
 BYTE   Cn1  v088
 BYTE   N06  Dn1
 BYTE   W06
 BYTE   Fs1  v076
 BYTE   W06
 BYTE   Fs1  v084
 BYTE   N06  Ds2
 BYTE   W06
 BYTE   Fs1
 BYTE   N06  Ds2
 BYTE   W06
 BYTE   Fs1
 BYTE   N06  Ds2
 BYTE   W06
 BYTE   Fs1  v088
 BYTE   N06  Ds2
 BYTE   W06
 BYTE   N12  Gn2  v100
 BYTE   W12
 BYTE   N06  Fs1  v072
 BYTE   W06
 BYTE   Cn1  v104
 BYTE   N06  Dn1
 BYTE   W06
 BYTE   N12  Fs1  v080
 BYTE   W12
//  #06 //024   ----------------------------------------
 BYTE   Fs1  v084
 BYTE   W12
 BYTE   N06  Fs1  v092
 BYTE   W06
 BYTE   Cn1  v108
 BYTE   N06  Dn1
 BYTE   W06
 BYTE   N12  Fs1  v076
 BYTE   W12
 BYTE   N12
 BYTE   W12
 BYTE   N06  Fs1  v088
 BYTE   W06
 BYTE   Cn1  v108
 BYTE   N06  Dn1
 BYTE   W06
 BYTE   N12  Fs1  v076
 BYTE   W12
 BYTE   Fs1  v084
 BYTE   W12
 BYTE   N06  Fs1  v088
 BYTE   W06
 BYTE   Cn1  v108
 BYTE   N06  Dn1
 BYTE   W06
//  #06 //025   ----------------------------------------
 BYTE   N12  Fs1  v076
 BYTE   W12
 BYTE   Gn2  v092
 BYTE   W12
 BYTE   N06  Fs1  v076
 BYTE   W06
 BYTE   Cn1  v108
 BYTE   N06  Dn1
 BYTE   W06
 BYTE   N12  Fs1  v076
 BYTE   W12
 BYTE   Fs1  v080
 BYTE   W12
 BYTE   N06  Fs1  v088
 BYTE   W06
 BYTE   Cn1  v104
 BYTE   N06  Dn1
 BYTE   W06
 BYTE   N12  Fs1  v080
 BYTE   W12
 BYTE   N12
 BYTE   W12
//  #06 //026   ----------------------------------------
 BYTE   N06  Fs1  v092
 BYTE   W06
 BYTE   Cn1  v108
 BYTE   N06  Dn1
 BYTE   W06
 BYTE   N12  Fs1  v076
 BYTE   W12
 BYTE   Fs1  v088
 BYTE   W12
 BYTE   N06  Fs1  v084
 BYTE   N06  Ds2
 BYTE   W06
 BYTE   Fs1  v088
 BYTE   N06  Ds2
 BYTE   W06
 BYTE   Fs1  v084
 BYTE   N06  Ds2
 BYTE   W06
 BYTE   Fs1  v088
 BYTE   N06  Ds2
 BYTE   W06
 BYTE   N18  Cn1  v108
 BYTE   N18  Dn1
 BYTE   W06
 BYTE   N06  An3  v127
 BYTE   W06
 BYTE   N12  Gs1  v124
 BYTE   W06
 BYTE   N06  Fs1  v076
 BYTE   N06  Ds2
 BYTE   W06
 BYTE   Gs1  v127
 BYTE   W06
 BYTE   Cn1  v072
 BYTE   N06  Dn1
 BYTE   N12  An3  v127
 BYTE   W06
//  #06 //027   ----------------------------------------
 BYTE   N06  Cn1  v084
 BYTE   N06  Dn1
 BYTE   W06
 BYTE   Fs1  v076
 BYTE   W06
 BYTE   N12  Fs1  v080
 BYTE   N12  Ds2
 BYTE   W12
 BYTE   Cn1  v108
 BYTE   N12  Dn1
 BYTE   W12
 BYTE   N18  Cn1  v088
 BYTE   N18  Dn1
 BYTE   W06
 BYTE   N06  An3  v124
 BYTE   W06
 BYTE   N12  Gs1
 BYTE   W06
 BYTE   N06  Fs1  v076
 BYTE   N06  Ds2
 BYTE   W06
 BYTE   Gs1  v127
 BYTE   W06
 BYTE   Cn1  v072
 BYTE   N06  Dn1
 BYTE   N12  An3  v127
 BYTE   W06
 BYTE   N06  Cn1  v084
 BYTE   N06  Dn1
 BYTE   W06
 BYTE   Fs1  v076
 BYTE   W06
 BYTE   N12  Fs1  v080
 BYTE   N12  Ds2
 BYTE   W12
//  #06 //028   ----------------------------------------
 BYTE   Cn1  v108
 BYTE   N12  Dn1
 BYTE   W12
 BYTE   N18  Cn1  v092
 BYTE   N18  Dn1
 BYTE   W06
 BYTE   N06  An3  v124
 BYTE   W06
 BYTE   N12  Gs1
 BYTE   W06
 BYTE   N06  Fs1  v072
 BYTE   N06  Ds2
 BYTE   W12
 BYTE   Cn1  v076
 BYTE   N06  Dn1
 BYTE   W06
 BYTE   Cn1  v084
 BYTE   N06  Dn1
 BYTE   W06
 BYTE   Fs1  v076
 BYTE   W06
 BYTE   N12  Fs1  v084
 BYTE   N12  Ds2
 BYTE   W12
 BYTE   N06  Cn1  v104
 BYTE   N06  Dn1
 BYTE   W06
 BYTE   Dn1  v080
 BYTE   N06  Ds2
 BYTE   W06
 BYTE   N18  Cn1  v108
 BYTE   N18  Dn1
 BYTE   W06
 BYTE   N06  An3  v124
 BYTE   W06
//  #06 //029   ----------------------------------------
 BYTE   N12  Gs1  v127
 BYTE   W06
 BYTE   N06  Fs1  v080
 BYTE   N06  Ds2
 BYTE   W12
 BYTE   Cn1  v076
 BYTE   N06  Dn1
 BYTE   W06
 BYTE   Cn1  v080
 BYTE   N06  Dn1
 BYTE   W06
 BYTE   Fs1  v072
 BYTE   W06
 BYTE   N12  Fs1  v084
 BYTE   N12  Ds2
 BYTE   W12
 BYTE   N06  Cn1  v108
 BYTE   N06  Dn1
 BYTE   W06
 BYTE   Dn1  v080
 BYTE   N06  Ds2
 BYTE   W06
 BYTE   Cn1  v108
 BYTE   N06  Dn1
 BYTE   W06
 BYTE   Fs1  v076
 BYTE   W12
 BYTE   Cn1
 BYTE   N06  Dn1
 BYTE   W06
 BYTE   Fs1  v072
 BYTE   W12
//  #06 //030   ----------------------------------------
 BYTE   Fs1  v076
 BYTE   N06  Ds2
 BYTE   W06
 BYTE   Cn1  v108
 BYTE   N06  Dn1
 BYTE   W06
 BYTE   N12  Fs1  v080
 BYTE   W12
 BYTE   Fs1  v084
 BYTE   W12
 BYTE   N06  Cn1  v112
 BYTE   N06  Dn1
 BYTE   W06
 BYTE   Fs1  v072
 BYTE   W12
 BYTE   Cn1  v076
 BYTE   N06  Dn1
 BYTE   W06
 BYTE   Fs1
 BYTE   W12
 BYTE   Fs1  v080
 BYTE   N06  Ds2
 BYTE   W06
 BYTE   Cn1  v104
 BYTE   N06  Dn1
 BYTE   W06
 BYTE   N12  Fs1  v076
 BYTE   W12
//  #06 //031   ----------------------------------------
 BYTE   Fs1  v084
 BYTE   W12
 BYTE   N06  Cn1  v104
 BYTE   N06  Dn1
 BYTE   W06
 BYTE   Fs1  v080
 BYTE   N06  An3  v127
 BYTE   W06
 BYTE   N12  Gs1  v124
 BYTE   W06
 BYTE   N06  Cn1  v072
 BYTE   N06  Dn1
 BYTE   W06
 BYTE   Fs1  v076
 BYTE   N06  Gs1  v127
 BYTE   W06
 BYTE   N12  An3
 BYTE   W06
 BYTE   N06  Fs1  v076
 BYTE   N06  Ds2
 BYTE   W06
 BYTE   Cn1  v108
 BYTE   N06  Dn1
 BYTE   W06
 BYTE   N12  Fs1  v080
 BYTE   W12
 BYTE   N06  Fs1  v084
 BYTE   W06
 BYTE   Fs1  v088
 BYTE   N06  Ds2
 BYTE   W06
 BYTE   Cn1  v104
 BYTE   N06  Dn1
 BYTE   W06
 BYTE   Fs1  v076
 BYTE   N06  An3  v124
 BYTE   W06
//  #06 //032   ----------------------------------------
 BYTE   N12  Gs1  v120
 BYTE   W06
 BYTE   N06  Cn1  v076
 BYTE   N06  Dn1
 BYTE   W06
 BYTE   Fs1  v072
 BYTE   N06  Gs1  v127
 BYTE   W06
 BYTE   N12  An3
 BYTE   W06
 BYTE   N06  Fs1  v076
 BYTE   N06  Ds2
 BYTE   W06
 BYTE   Cn1  v112
 BYTE   N06  Dn1
 BYTE   W06
 BYTE   Fs1  v076
 BYTE   W06
 BYTE   Cn1  v104
 BYTE   N06  Dn1
 BYTE   W06
 BYTE   Fs1  v080
 BYTE   W06
 BYTE   Cn1  v104
 BYTE   N06  Dn1
 BYTE   W06
 BYTE   Cn1  v088
 BYTE   N06  Dn1
 BYTE   W06
 BYTE   Fs1  v072
 BYTE   W12
 BYTE   Cn1  v076
 BYTE   N06  Dn1
 BYTE   W06
 BYTE   Fs1  v072
 BYTE   W12
//  #06 //033   ----------------------------------------
 BYTE   Fs1  v076
 BYTE   N06  Ds2
 BYTE   W06
 BYTE   Cn1  v108
 BYTE   N06  Dn1
 BYTE   W06
 BYTE   N12  Fs1  v080
 BYTE   W12
 BYTE   Fs1  v084
 BYTE   W12
 BYTE   N06  Cn1  v108
 BYTE   N06  Dn1
 BYTE   W06
 BYTE   Fs1  v076
 BYTE   W12
 BYTE   Cn1
 BYTE   N06  Dn1
 BYTE   W06
 BYTE   Fs1
 BYTE   W12
 BYTE   N06
 BYTE   N06  Ds2
 BYTE   W06
 BYTE   Cn1  v104
 BYTE   N06  Dn1
 BYTE   W06
 BYTE   N12  Fs1  v080
 BYTE   W12
//  #06 //034   ----------------------------------------
 BYTE   Fs1  v076
 BYTE   W12
 BYTE   N06  Cn1  v104
 BYTE   N06  Dn1
 BYTE   W06
 BYTE   Fs1  v080
 BYTE   N06  An3  v124
 BYTE   W06
 BYTE   N12  Gs1  v127
 BYTE   W06
 BYTE   N06  Cn1  v072
 BYTE   N06  Dn1
 BYTE   W06
 BYTE   Fs1
 BYTE   N06  Gs1  v127
 BYTE   W06
 BYTE   N12  An3
 BYTE   W06
 BYTE   N06  Fs1  v076
 BYTE   N06  Ds2
 BYTE   W06
 BYTE   Cn1  v108
 BYTE   N06  Dn1
 BYTE   W06
 BYTE   N12  Fs1  v076
 BYTE   W12
 BYTE   N06  Fs1  v084
 BYTE   W06
 BYTE   N06
 BYTE   N06  Ds2
 BYTE   W06
 BYTE   Cn1  v108
 BYTE   N06  Dn1
 BYTE   W06
 BYTE   Fs1  v076
 BYTE   N06  An3  v124
 BYTE   W06
//  #06 //035   ----------------------------------------
 BYTE   N12  Gs1
 BYTE   W06
 BYTE   N06  Cn1  v076
 BYTE   N06  Dn1
 BYTE   W06
 BYTE   Fs1  v072
 BYTE   N06  Gs1  v127
 BYTE   W06
 BYTE   N12  An3
 BYTE   W06
 BYTE   N06  Fs1  v076
 BYTE   N06  Ds2
 BYTE   W06
 BYTE   Cn1  v112
 BYTE   N06  Dn1
 BYTE   W06
 BYTE   Fs1  v080
 BYTE   W06
 BYTE   Cn1  v108
 BYTE   N06  Dn1
 BYTE   W06
 BYTE   Fs1  v080
 BYTE   W06
 BYTE   Cn1  v104
 BYTE   N06  Dn1
 BYTE   W06
 BYTE   N36  Gn2  v080
 BYTE   W36
//  #06 //036   ----------------------------------------
 BYTE   N18  Fs1  v076
 BYTE   W18
 BYTE   N06  Fs1  v084
 BYTE   N06  Ds2
 BYTE   W06
 BYTE   Fs1  v088
 BYTE   N06  Ds2
 BYTE   W06
 BYTE   Fs1  v084
 BYTE   N06  Ds2
 BYTE   W06
 BYTE   N36  Gn2  v092
 BYTE   W36
 BYTE   N18  Fs1  v076
 BYTE   W18
 BYTE   N06  Fs1  v080
 BYTE   N06  Ds2
 BYTE   W06
//  #06 //037   ----------------------------------------
 BYTE   Fs1  v092
 BYTE   N06  Ds2
 BYTE   W06
 BYTE   Fs1  v084
 BYTE   N06  Ds2
 BYTE   W06
 BYTE   N18  Cn1  v112
 BYTE   N18  Dn1
 BYTE   W06
 BYTE   N06  An3  v127
 BYTE   W06
 BYTE   N12  Gs1  v124
 BYTE   W06
 BYTE   N06  Fs1  v076
 BYTE   N06  Ds2
 BYTE   W12
 BYTE   Cn1
 BYTE   N06  Dn1
 BYTE   W06
 BYTE   Cn1
 BYTE   N06  Dn1
 BYTE   W06
 BYTE   Fs1  v080
 BYTE   W06
 BYTE   N12  Fs1  v084
 BYTE   N12  Ds2
 BYTE   W12
 BYTE   Cn1  v104
 BYTE   N12  Dn1
 BYTE   W12
 BYTE   N18  Cn1  v088
 BYTE   N18  Dn1
 BYTE   W06
 BYTE   N06  An3  v127
 BYTE   W06
//  #06 //038   ----------------------------------------
 BYTE   N12  Gs1  v120
 BYTE   W06
 BYTE   N06  Fs1  v076
 BYTE   N06  Ds2
 BYTE   W12
 BYTE   Cn1
 BYTE   N06  Dn1
 BYTE   W06
 BYTE   Cn1  v080
 BYTE   N06  Dn1
 BYTE   W06
 BYTE   Fs1  v068
 BYTE   W06
 BYTE   N12  Fs1  v088
 BYTE   N12  Ds2
 BYTE   W12
 BYTE   Cn1  v112
 BYTE   N12  Dn1
 BYTE   W12
 BYTE   N18  Cn1  v088
 BYTE   N18  Dn1
 BYTE   W06
 BYTE   N06  Gs1  v124
 BYTE   W06
 BYTE   N12  An3  v127
 BYTE   W06
 BYTE   N06  Fs1  v068
 BYTE   N06  Ds2
 BYTE   W12
 BYTE   Cn1  v080
 BYTE   N06  Dn1
 BYTE   W06
//  #06 //039   ----------------------------------------
 BYTE   Cn1  v084
 BYTE   N06  Dn1
 BYTE   W06
 BYTE   Fs1  v076
 BYTE   W06
 BYTE   N12  Fs1  v084
 BYTE   N12  Ds2
 BYTE   W12
 BYTE   N06  Cn1  v108
 BYTE   N06  Dn1
 BYTE   W06
 BYTE   Dn1  v080
 BYTE   N06  Ds2
 BYTE   W06
 BYTE   N18  Cn1  v108
 BYTE   N18  Dn1
 BYTE   W06
 BYTE   N06  Gs1  v127
 BYTE   W06
 BYTE   N12  An3
 BYTE   W06
 BYTE   N06  Fs1  v076
 BYTE   N06  Ds2
 BYTE   W12
 BYTE   Cn1
 BYTE   N06  Dn1
 BYTE   W06
 BYTE   Cn1  v084
 BYTE   N06  Dn1
 BYTE   W06
 BYTE   Fs1  v072
 BYTE   W06
 BYTE   N12  Fs1  v084
 BYTE   N12  Ds2
 BYTE   W12
//  #06 //040   ----------------------------------------
 BYTE   N06  Cn1  v108
 BYTE   N06  Dn1
 BYTE   W06
 BYTE   Dn1  v076
 BYTE   N06  Ds2
 BYTE   W06
 BYTE   N18  Cn1  v108
 BYTE   N18  Dn1
 BYTE   W06
 BYTE   N06  Gs1  v124
 BYTE   W06
 BYTE   N12  An3  v127
 BYTE   W06
 BYTE   N06  Fs1  v076
 BYTE   N06  Ds2
 BYTE   W12
 BYTE   Cn1  v072
 BYTE   N06  Dn1
 BYTE   W06
 BYTE   Cn1  v080
 BYTE   N06  Dn1
 BYTE   W06
 BYTE   Fs1  v072
 BYTE   W06
 BYTE   N12  Fs1  v084
 BYTE   N12  Ds2
 BYTE   W12
 BYTE   N06  Cn1  v108
 BYTE   N06  Dn1
 BYTE   W06
 BYTE   Dn1  v080
 BYTE   N06  Ds2
 BYTE   W06
 BYTE   N18  Cn1  v108
 BYTE   N18  Dn1
 BYTE   W06
 BYTE   N06  Gs1  v124
 BYTE   W06
//  #06 //041   ----------------------------------------
 BYTE   N12  An3  v127
 BYTE   W06
 BYTE   N06  Fs1  v080
 BYTE   N06  Ds2
 BYTE   W12
 BYTE   Cn1
 BYTE   N06  Dn1
 BYTE   W06
 BYTE   Cn1  v088
 BYTE   N06  Dn1
 BYTE   W06
 BYTE   Fs1  v076
 BYTE   W06
 BYTE   Fs1  v088
 BYTE   N06  Ds2
 BYTE   W06
 BYTE   Fs1  v084
 BYTE   N06  Ds2
 BYTE   W06
 BYTE   Fs1
 BYTE   N06  Ds2
 BYTE   W06
 BYTE   Fs1
 BYTE   N06  Ds2
 BYTE   W06
 BYTE   Cn1  v100
 BYTE   N06  Dn1
 BYTE   W06
 BYTE   Fs1  v080
 BYTE   W12
 BYTE   Cn1  v076
 BYTE   N06  Dn1
 BYTE   W06
 BYTE   Fs1  v072
 BYTE   W12
//  #06 //042   ----------------------------------------
 BYTE   N06
 BYTE   N06  Ds2
 BYTE   W06
 BYTE   Cn1  v104
 BYTE   N06  Dn1
 BYTE   W06
 BYTE   N12  Fs1  v076
 BYTE   W12
 BYTE   Fs1  v084
 BYTE   W12
 BYTE   N06  Cn1  v108
 BYTE   N06  Dn1
 BYTE   W06
 BYTE   Fs1  v080
 BYTE   W12
 BYTE   Cn1  v076
 BYTE   N06  Dn1
 BYTE   W06
 BYTE   Fs1  v072
 BYTE   W12
 BYTE   Fs1  v076
 BYTE   N06  Ds2
 BYTE   W06
 BYTE   Cn1  v108
 BYTE   N06  Dn1
 BYTE   W06
 BYTE   N12  Fs1  v076
 BYTE   W12
//  #06 //043   ----------------------------------------
 BYTE   Fs1  v080
 BYTE   W12
 BYTE   N06  Cn1  v108
 BYTE   N06  Dn1
 BYTE   W06
 BYTE   Fs1  v072
 BYTE   N06  An3  v127
 BYTE   W06
 BYTE   N12  Gs1  v124
 BYTE   W06
 BYTE   N06  Cn1  v076
 BYTE   N06  Dn1
 BYTE   W06
 BYTE   Fs1  v068
 BYTE   N06  Gs1  v127
 BYTE   W06
 BYTE   N12  An3
 BYTE   W06
 BYTE   N06  Fs1  v072
 BYTE   N06  Ds2
 BYTE   W06
 BYTE   Cn1  v108
 BYTE   N06  Dn1
 BYTE   W06
 BYTE   N12  Fs1  v072
 BYTE   W12
 BYTE   N06  Fs1  v080
 BYTE   W06
 BYTE   Fs1  v088
 BYTE   N06  Ds2
 BYTE   W06
 BYTE   Cn1  v112
 BYTE   N06  Dn1
 BYTE   W06
 BYTE   Fs1  v076
 BYTE   N06  An3  v127
 BYTE   W06
//  #06 //044   ----------------------------------------
 BYTE   N12  Gs1  v120
 BYTE   W06
 BYTE   N06  Cn1  v076
 BYTE   N06  Dn1
 BYTE   W06
 BYTE   Fs1  v072
 BYTE   N06  Gs1  v127
 BYTE   W06
 BYTE   N12  An3
 BYTE   W06
 BYTE   N06  Fs1  v076
 BYTE   N06  Ds2
 BYTE   W06
 BYTE   Cn1  v112
 BYTE   N06  Dn1
 BYTE   W06
 BYTE   Fs1  v076
 BYTE   W06
 BYTE   Cn1  v108
 BYTE   N06  Dn1
 BYTE   W06
 BYTE   Fs1  v076
 BYTE   W06
 BYTE   Cn1  v104
 BYTE   N06  Dn1
 BYTE   W06
 BYTE   Cn1  v088
 BYTE   N06  Dn1
 BYTE   W06
 BYTE   Fs1  v072
 BYTE   W12
 BYTE   Cn1  v076
 BYTE   N06  Dn1
 BYTE   W06
 BYTE   Fs1  v072
 BYTE   W12
//  #06 //045   ----------------------------------------
 BYTE   Fs1  v076
 BYTE   N06  Ds2
 BYTE   W06
 BYTE   Cn1  v104
 BYTE   N06  Dn1
 BYTE   W06
 BYTE   N12  Fs1  v076
 BYTE   W12
 BYTE   Fs1  v088
 BYTE   W12
 BYTE   N06  Cn1  v104
 BYTE   N06  Dn1
 BYTE   W06
 BYTE   Fs1  v076
 BYTE   W12
 BYTE   Cn1  v084
 BYTE   N06  Dn1
 BYTE   W06
 BYTE   Fs1  v076
 BYTE   W12
 BYTE   N06
 BYTE   N06  Ds2
 BYTE   W06
 BYTE   Cn1  v108
 BYTE   N06  Dn1
 BYTE   W06
 BYTE   N12  Fs1  v080
 BYTE   W12
//  #06 //046   ----------------------------------------
 BYTE   Fs1  v084
 BYTE   W12
 BYTE   N06  Cn1  v108
 BYTE   N06  Dn1
 BYTE   W06
 BYTE   Fs1  v084
 BYTE   N06  An3  v127
 BYTE   W06
 BYTE   N12  Gs1  v120
 BYTE   W06
 BYTE   N06  Cn1  v072
 BYTE   N06  Dn1
 BYTE   W06
 BYTE   Fs1
 BYTE   N06  Gs1  v127
 BYTE   W06
 BYTE   N12  An3
 BYTE   W06
 BYTE   N06  Fs1  v072
 BYTE   N06  Ds2
 BYTE   W06
 BYTE   Cn1  v108
 BYTE   N06  Dn1
 BYTE   W06
 BYTE   N12  Fs1  v076
 BYTE   W12
 BYTE   N06  Fs1  v084
 BYTE   W06
 BYTE   N06
 BYTE   N06  Ds2
 BYTE   W06
 BYTE   Cn1  v112
 BYTE   N06  Dn1
 BYTE   W06
 BYTE   Fs1  v076
 BYTE   N06  An3  v127
 BYTE   W06
//  #06 //047   ----------------------------------------
 BYTE   N12  Gs1  v120
 BYTE   W06
 BYTE   N06  Cn1  v080
 BYTE   N06  Dn1
 BYTE   W06
 BYTE   Fs1  v072
 BYTE   N06  Gs1  v127
 BYTE   W06
 BYTE   N12  An3
 BYTE   W06
 BYTE   N06  Fs1  v076
 BYTE   N06  Ds2
 BYTE   W06
 BYTE   Cn1  v108
 BYTE   N06  Dn1
 BYTE   W06
 BYTE   Fs1  v076
 BYTE   W06
 BYTE   Cn1  v104
 BYTE   N06  Dn1
 BYTE   W06
 BYTE   Fs1  v076
 BYTE   W06
 BYTE   Cn1  v108
 BYTE   N06  Dn1
 BYTE   W06
 BYTE   N36  Gn2  v076
 BYTE   W36
//  #06 //048   ----------------------------------------
 BYTE   N18  Fs1  v068
 BYTE   W18
 BYTE   N06  Fs1  v076
 BYTE   N06  Ds2
 BYTE   W06
 BYTE   Fs1  v084
 BYTE   N06  Ds2
 BYTE   W06
 BYTE   Fs1  v088
 BYTE   N06  Ds2
 BYTE   W06
 BYTE   N36  Gn2  v092
 BYTE   W36
 BYTE   N18  Fs1  v072
 BYTE   W18
 BYTE   N06  Fs1  v080
 BYTE   N06  Ds2
 BYTE   W06
//  #06 //049   ----------------------------------------
 BYTE   Fs1
 BYTE   N06  Ds2
 BYTE   W06
 BYTE   Fs1  v084
 BYTE   N06  Ds2
 BYTE   W06
 BYTE   N18  Cn1  v108
 BYTE   N18  Dn1
 BYTE   W06
 BYTE   N06  An3  v124
 BYTE   W06
 BYTE   N12  Gs1
 BYTE   W06
 BYTE   N06  Fs1  v080
 BYTE   N06  Ds2
 BYTE   W12
 BYTE   Cn1  v084
 BYTE   N06  Dn1
 BYTE   W06
 BYTE   Cn1
 BYTE   N06  Dn1
 BYTE   W06
 BYTE   Fs1  v072
 BYTE   W06
 BYTE   N12  Fs1  v088
 BYTE   N12  Ds2
 BYTE   W12
 BYTE   Cn1  v108
 BYTE   N12  Dn1
 BYTE   W12
 BYTE   N18  Cn1  v092
 BYTE   N18  Dn1
 BYTE   W06
 BYTE   N06  An3  v127
 BYTE   W06
//  #06 //050   ----------------------------------------
 BYTE   N12  Gs1  v124
 BYTE   W06
 BYTE   N06  Fs1  v072
 BYTE   N06  Ds2
 BYTE   W12
 BYTE   Cn1  v076
 BYTE   N06  Dn1
 BYTE   W06
 BYTE   Cn1  v088
 BYTE   N06  Dn1
 BYTE   W06
 BYTE   Fs1  v076
 BYTE   W06
 BYTE   N12
 BYTE   N12  Ds2
 BYTE   W12
 BYTE   Cn1  v108
 BYTE   N12  Dn1
 BYTE   W12
 BYTE   N18  Cn1  v088
 BYTE   N18  Dn1
 BYTE   W06
 BYTE   N06  Gs1  v127
 BYTE   W06
 BYTE   N12  An3
 BYTE   W06
 BYTE   N06  Fs1  v072
 BYTE   N06  Ds2
 BYTE   W12
 BYTE   Cn1  v076
 BYTE   N06  Dn1
 BYTE   W06
//  #06 //051   ----------------------------------------
 BYTE   Cn1  v080
 BYTE   N06  Dn1
 BYTE   W06
 BYTE   Fs1  v076
 BYTE   W06
 BYTE   N12  Fs1  v088
 BYTE   N12  Ds2
 BYTE   W12
 BYTE   N06  Cn1  v100
 BYTE   N06  Dn1
 BYTE   W06
 BYTE   Dn1  v076
 BYTE   N06  Ds2
 BYTE   W06
 BYTE   N18  Cn1  v100
 BYTE   N18  Dn1
 BYTE   W06
 BYTE   N06  Gs1  v127
 BYTE   W06
 BYTE   N12  An3
 BYTE   W06
 BYTE   N06  Fs1  v080
 BYTE   N06  Ds2
 BYTE   W12
 BYTE   Cn1  v076
 BYTE   N06  Dn1
 BYTE   W06
 BYTE   Cn1  v080
 BYTE   N06  Dn1
 BYTE   W06
 BYTE   Fs1  v068
 BYTE   W06
 BYTE   N12  Fs1  v080
 BYTE   N12  Ds2
 BYTE   W12
//  #06 //052   ----------------------------------------
 BYTE   N06  Cn1  v108
 BYTE   N06  Dn1
 BYTE   W06
 BYTE   Dn1  v080
 BYTE   N06  Ds2
 BYTE   W06
 BYTE   N18  Cn1  v108
 BYTE   N18  Dn1
 BYTE   W06
 BYTE   N06  Gs1  v127
 BYTE   W06
 BYTE   N12  An3
 BYTE   W06
 BYTE   N06  Fs1  v072
 BYTE   N06  Ds2
 BYTE   W12
 BYTE   Cn1  v076
 BYTE   N06  Dn1
 BYTE   W06
 BYTE   Cn1  v080
 BYTE   N06  Dn1
 BYTE   W06
 BYTE   Fs1  v076
 BYTE   W06
 BYTE   N12  Fs1  v084
 BYTE   N12  Ds2
 BYTE   W12
 BYTE   N06  Cn1  v108
 BYTE   N06  Dn1
 BYTE   W06
 BYTE   Dn1  v076
 BYTE   N06  Ds2
 BYTE   W06
 BYTE   N18  Cn1  v100
 BYTE   N18  Dn1
 BYTE   W06
 BYTE   N06  Gs1  v124
 BYTE   W06
//  #06 //053   ----------------------------------------
 BYTE   N12  An3  v127
 BYTE   W06
 BYTE   N06  Fs1  v080
 BYTE   N06  Ds2
 BYTE   W12
 BYTE   Cn1
 BYTE   N06  Dn1
 BYTE   W06
 BYTE   Cn1  v084
 BYTE   N06  Dn1
 BYTE   W06
 BYTE   Fs1  v072
 BYTE   W06
 BYTE   Fs1  v088
 BYTE   N06  Ds2
 BYTE   W06
 BYTE   Fs1  v080
 BYTE   N06  Ds2
 BYTE   W06
 BYTE   Fs1  v088
 BYTE   N06  Ds2
 BYTE   W06
 BYTE   Fs1  v080
 BYTE   N06  Ds2
 BYTE   W06
 BYTE   N12  Gn2  v096
 BYTE   W12
 BYTE   N06  Fs1  v076
 BYTE   W06
 BYTE   Cn1  v108
 BYTE   N06  Dn1
 BYTE   W06
 BYTE   N12  Fs1  v080
 BYTE   W12
//  #06 //054   ----------------------------------------
 BYTE   Fs1  v084
 BYTE   W12
 BYTE   N06  Fs1  v088
 BYTE   W06
 BYTE   Cn1  v108
 BYTE   N06  Dn1
 BYTE   W06
 BYTE   N12  Fs1  v076
 BYTE   W12
 BYTE   Fs1  v088
 BYTE   W12
 BYTE   N06
 BYTE   W06
 BYTE   Cn1  v108
 BYTE   N06  Dn1
 BYTE   W06
 BYTE   N12  Fs1  v076
 BYTE   W12
 BYTE   Fs1  v084
 BYTE   W12
 BYTE   N06
 BYTE   W06
 BYTE   Cn1  v108
 BYTE   N06  Dn1
 BYTE   W06
//  #06 //055   ----------------------------------------
 BYTE   N12  Fs1  v080
 BYTE   W12
 BYTE   Gn2  v096
 BYTE   W12
 BYTE   N06  Fs1  v076
 BYTE   W06
 BYTE   Cn1  v112
 BYTE   N06  Dn1
 BYTE   W06
 BYTE   N12  Fs1  v076
 BYTE   W12
 BYTE   Fs1  v084
 BYTE   W12
 BYTE   N06
 BYTE   W06
 BYTE   Cn1  v108
 BYTE   N06  Dn1
 BYTE   W06
 BYTE   N12  Fs1  v076
 BYTE   W12
 BYTE   Fs1  v080
 BYTE   W12
//  #06 //056   ----------------------------------------
 BYTE   N06  Fs1  v084
 BYTE   W06
 BYTE   Cn1  v108
 BYTE   N06  Dn1
 BYTE   W06
 BYTE   N12  Fs1  v076
 BYTE   W12
 BYTE   Fs1  v088
 BYTE   W12
 BYTE   N06
 BYTE   N06  Ds2
 BYTE   W06
 BYTE   Fs1  v084
 BYTE   N06  Ds2
 BYTE   W06
 BYTE   Fs1
 BYTE   N06  Ds2
 BYTE   W06
 BYTE   Fs1
 BYTE   N06  Ds2
 BYTE   W06
 BYTE   N18  Cn1  v108
 BYTE   N18  Dn1
 BYTE   W06
 BYTE   N06  An3  v127
 BYTE   W06
 BYTE   N12  Gs1  v120
 BYTE   W06
 BYTE   N06  Fs1  v080
 BYTE   N06  Ds2
 BYTE   W06
 BYTE   Gs1  v127
 BYTE   W06
 BYTE   Cn1  v080
 BYTE   N06  Dn1
 BYTE   N12  An3  v127
 BYTE   W06
//  #06 //057   ----------------------------------------
 BYTE   N06  Cn1  v084
 BYTE   N06  Dn1
 BYTE   W06
 BYTE   Fs1  v068
 BYTE   W06
 BYTE   N12  Fs1  v084
 BYTE   N12  Ds2
 BYTE   W12
 BYTE   Cn1  v104
 BYTE   N12  Dn1
 BYTE   W12
 BYTE   N18  Cn1  v088
 BYTE   N18  Dn1
 BYTE   W06
 BYTE   N06  An3  v127
 BYTE   W06
 BYTE   N12  Gs1  v124
 BYTE   W06
 BYTE   N06  Fs1  v080
 BYTE   N06  Ds2
 BYTE   W06
 BYTE   Gs1  v127
 BYTE   W06
 BYTE   Cn1  v080
 BYTE   N06  Dn1
 BYTE   N12  An3  v127
 BYTE   W06
 BYTE   N06  Cn1  v084
 BYTE   N06  Dn1
 BYTE   W06
 BYTE   Fs1  v068
 BYTE   W06
 BYTE   N12  Fs1  v080
 BYTE   N12  Ds2
 BYTE   W12
//  #06 //058   ----------------------------------------
 BYTE   Cn1  v112
 BYTE   N12  Dn1
 BYTE   W12
 BYTE   N18  Cn1  v092
 BYTE   N18  Dn1
 BYTE   W06
 BYTE   N06  An3  v127
 BYTE   W06
 BYTE   N12  Gs1  v120
 BYTE   W06
 BYTE   N06  Fs1  v072
 BYTE   N06  Ds2
 BYTE   W12
 BYTE   Cn1  v076
 BYTE   N06  Dn1
 BYTE   W06
 BYTE   Cn1  v080
 BYTE   N06  Dn1
 BYTE   W06
 BYTE   Fs1  v072
 BYTE   W06
 BYTE   N12  Fs1  v080
 BYTE   N12  Ds2
 BYTE   W12
 BYTE   N06  Cn1  v108
 BYTE   N06  Dn1
 BYTE   W06
 BYTE   Dn1  v076
 BYTE   N06  Ds2
 BYTE   W06
 BYTE   N18  Cn1  v104
 BYTE   N18  Dn1
 BYTE   W06
 BYTE   N06  An3  v127
 BYTE   W06
//  #06 //059   ----------------------------------------
 BYTE   N12  Gs1  v124
 BYTE   W06
 BYTE   N06  Fs1  v072
 BYTE   N06  Ds2
 BYTE   W12
 BYTE   Cn1  v080
 BYTE   N06  Dn1
 BYTE   W06
 BYTE   Cn1  v088
 BYTE   N06  Dn1
 BYTE   W06
 BYTE   Fs1  v080
 BYTE   W06
 BYTE   N12  Fs1  v084
 BYTE   N12  Ds2
 BYTE   W12
 BYTE   N06  Cn1  v108
 BYTE   N06  Dn1
 BYTE   W06
 BYTE   Dn1  v080
 BYTE   N06  Ds2
 BYTE   W06
 BYTE   GoTo
  POIN2 Label_012C86CE
 BYTE   FINE

//******************************************************//
	ALIGN 4

MarionCourse:
	BYTE	6	// NumTrks
	BYTE	0	// NumBlks
	BYTE	MarionCourse_pri	// Priority
	BYTE	MarionCourse_rev	// Reverb.
    
	POIN2	MarionCourse_grp
    
	POIN2	MarionCourse_001
	POIN2	MarionCourse_002
	POIN2	MarionCourse_003
	POIN2	MarionCourse_004
	POIN2	MarionCourse_005
	POIN2	MarionCourse_006

	
