	.include "MPlayDef.s"

	.equ	MissionStreet_grp, voicegroup000
	.equ	MissionStreet_pri, 0
	.equ	MissionStreet_rev, 0
	.equ	MissionStreet_mvl, 127
	.equ	MissionStreet_key, 0
	.equ	MissionStreet_tbs, 1
	.equ	MissionStreet_exg, 0
	.equ	MissionStreet_cmp, 1

	.section .rodata
	.global	MissionStreet
	.align	2


@**************** Track 1 (Midi-Chn.0) ****************@

MissionStreet_001:
@  #01 @000   ----------------------------------------
 .byte   KEYSH , MissionStreet_key+0
Label_0149706A:
 .byte   TEMPO , 178*MissionStreet_tbs/2
 .byte   VOICE , 30
 .byte   MODT 0
 .byte   LFOS 44
 .byte   VOL , 127*MissionStreet_mvl/mxv
 .byte   W96
@  #01 @001   ----------------------------------------
Label_01497075:
 .byte   W72
 .byte   N06 ,Fn2 ,v044
 .byte   N06 ,An2
 .byte   W06
 .byte   Gn2
 .byte   N06 ,Bn2
 .byte   W06
 .byte   An2
 .byte   N06 ,Cn3
 .byte   W06
 .byte   Bn2
 .byte   N06 ,Dn3
 .byte   W06
 .byte   PEND 
@  #01 @002   ----------------------------------------
Label_01497089:
 .byte   N36 ,Cn3 ,v044
 .byte   N36 ,En3
 .byte   W36
 .byte   Dn3
 .byte   N36 ,Fn3
 .byte   W36
 .byte   N24 ,Cn3
 .byte   N24 ,En3
 .byte   W24
 .byte   PEND 
@  #01 @003   ----------------------------------------
Label_01497099:
 .byte   N72 ,Bn2 ,v044
 .byte   N72 ,Dn3
 .byte   W72
 .byte   N06 ,An2
 .byte   N06 ,Cn3
 .byte   W06
 .byte   Bn2
 .byte   N06 ,Dn3
 .byte   W06
 .byte   Cn3
 .byte   N06 ,En3
 .byte   W06
 .byte   Dn3
 .byte   N06 ,Fn3
 .byte   W06
 .byte   PEND 
@  #01 @004   ----------------------------------------
Label_014970B1:
 .byte   N36 ,En3 ,v044
 .byte   N36 ,Gn3
 .byte   W36
 .byte   Dn3
 .byte   N36 ,Fn3
 .byte   W36
 .byte   N24 ,Cn3
 .byte   N24 ,En3
 .byte   W24
 .byte   PEND 
@  #01 @005   ----------------------------------------
 .byte   PATT
  .word Label_01497099
@  #01 @006   ----------------------------------------
 .byte   PATT
  .word Label_014970B1
@  #01 @007   ----------------------------------------
 .byte   PATT
  .word Label_01497099
@  #01 @008   ----------------------------------------
Label_014970D0:
 .byte   N36 ,En3 ,v044
 .byte   N36 ,Gn3
 .byte   W36
 .byte   Fn3
 .byte   N36 ,An3
 .byte   W36
 .byte   N24 ,Cn3
 .byte   N24 ,En3
 .byte   W24
 .byte   PEND 
@  #01 @009   ----------------------------------------
 .byte   N96 ,Bn2
 .byte   N96 ,Dn3
 .byte   W96
@  #01 @010   ----------------------------------------
 .byte   W96
@  #01 @011   ----------------------------------------
 .byte   W96
@  #01 @012   ----------------------------------------
 .byte   W96
@  #01 @013   ----------------------------------------
 .byte   W96
@  #01 @014   ----------------------------------------
 .byte   W96
@  #01 @015   ----------------------------------------
 .byte   W96
@  #01 @016   ----------------------------------------
 .byte   W96
@  #01 @017   ----------------------------------------
 .byte   W96
@  #01 @018   ----------------------------------------
 .byte   W96
@  #01 @019   ----------------------------------------
 .byte   W96
@  #01 @020   ----------------------------------------
 .byte   W96
@  #01 @021   ----------------------------------------
 .byte   W96
@  #01 @022   ----------------------------------------
 .byte   W96
@  #01 @023   ----------------------------------------
 .byte   W96
@  #01 @024   ----------------------------------------
 .byte   W96
@  #01 @025   ----------------------------------------
 .byte   W96
@  #01 @026   ----------------------------------------
 .byte   W96
@  #01 @027   ----------------------------------------
 .byte   W96
@  #01 @028   ----------------------------------------
 .byte   W96
@  #01 @029   ----------------------------------------
 .byte   W96
@  #01 @030   ----------------------------------------
 .byte   W96
@  #01 @031   ----------------------------------------
 .byte   W96
@  #01 @032   ----------------------------------------
 .byte   W96
@  #01 @033   ----------------------------------------
 .byte   W96
@  #01 @034   ----------------------------------------
 .byte   W96
@  #01 @035   ----------------------------------------
 .byte   W96
@  #01 @036   ----------------------------------------
 .byte   W96
@  #01 @037   ----------------------------------------
 .byte   W96
@  #01 @038   ----------------------------------------
 .byte   W96
@  #01 @039   ----------------------------------------
 .byte   W96
@  #01 @040   ----------------------------------------
 .byte   W96
@  #01 @041   ----------------------------------------
 .byte   W96
@  #01 @042   ----------------------------------------
 .byte   W96
@  #01 @043   ----------------------------------------
 .byte   W96
@  #01 @044   ----------------------------------------
 .byte   W96
@  #01 @045   ----------------------------------------
 .byte   W96
@  #01 @046   ----------------------------------------
 .byte   W96
@  #01 @047   ----------------------------------------
 .byte   W96
@  #01 @048   ----------------------------------------
 .byte   W96
@  #01 @049   ----------------------------------------
 .byte   W96
@  #01 @050   ----------------------------------------
 .byte   W96
@  #01 @051   ----------------------------------------
 .byte   W96
@  #01 @052   ----------------------------------------
 .byte   W96
@  #01 @053   ----------------------------------------
 .byte   W96
@  #01 @054   ----------------------------------------
 .byte   W96
@  #01 @055   ----------------------------------------
 .byte   W96
@  #01 @056   ----------------------------------------
 .byte   W96
@  #01 @057   ----------------------------------------
 .byte   W96
@  #01 @058   ----------------------------------------
 .byte   W96
@  #01 @059   ----------------------------------------
 .byte   W96
@  #01 @060   ----------------------------------------
 .byte   W96
@  #01 @061   ----------------------------------------
 .byte   W96
@  #01 @062   ----------------------------------------
 .byte   W96
@  #01 @063   ----------------------------------------
 .byte   W96
@  #01 @064   ----------------------------------------
 .byte   W96
@  #01 @065   ----------------------------------------
 .byte   W96
@  #01 @066   ----------------------------------------
 .byte   W96
@  #01 @067   ----------------------------------------
 .byte   W96
@  #01 @068   ----------------------------------------
 .byte   W96
@  #01 @069   ----------------------------------------
 .byte   W96
@  #01 @070   ----------------------------------------
 .byte   W96
@  #01 @071   ----------------------------------------
 .byte   W96
@  #01 @072   ----------------------------------------
 .byte   W96
@  #01 @073   ----------------------------------------
 .byte   W96
@  #01 @074   ----------------------------------------
 .byte   W96
@  #01 @075   ----------------------------------------
 .byte   W96
@  #01 @076   ----------------------------------------
 .byte   W96
@  #01 @077   ----------------------------------------
 .byte   W96
@  #01 @078   ----------------------------------------
 .byte   W96
@  #01 @079   ----------------------------------------
 .byte   W96
@  #01 @080   ----------------------------------------
 .byte   W96
@  #01 @081   ----------------------------------------
 .byte   W96
@  #01 @082   ----------------------------------------
 .byte   W96
@  #01 @083   ----------------------------------------
 .byte   W96
@  #01 @084   ----------------------------------------
 .byte   W96
@  #01 @085   ----------------------------------------
 .byte   W96
@  #01 @086   ----------------------------------------
 .byte   W96
@  #01 @087   ----------------------------------------
 .byte   W96
@  #01 @088   ----------------------------------------
 .byte   W96
@  #01 @089   ----------------------------------------
 .byte   W96
@  #01 @090   ----------------------------------------
 .byte   W96
@  #01 @091   ----------------------------------------
 .byte   W96
@  #01 @092   ----------------------------------------
 .byte   W96
@  #01 @093   ----------------------------------------
 .byte   W96
@  #01 @094   ----------------------------------------
 .byte   W96
@  #01 @095   ----------------------------------------
 .byte   W96
@  #01 @096   ----------------------------------------
 .byte   W96
@  #01 @097   ----------------------------------------
 .byte   W96
@  #01 @098   ----------------------------------------
 .byte   W96
@  #01 @099   ----------------------------------------
 .byte   W96
@  #01 @100   ----------------------------------------
 .byte   W96
@  #01 @101   ----------------------------------------
 .byte   W96
@  #01 @102   ----------------------------------------
 .byte   W96
@  #01 @103   ----------------------------------------
 .byte   W96
@  #01 @104   ----------------------------------------
 .byte   W96
@  #01 @105   ----------------------------------------
 .byte   W96
@  #01 @106   ----------------------------------------
 .byte   W96
@  #01 @107   ----------------------------------------
 .byte   W96
@  #01 @108   ----------------------------------------
 .byte   PATT
  .word Label_01497075
@  #01 @109   ----------------------------------------
 .byte   PATT
  .word Label_01497089
@  #01 @110   ----------------------------------------
 .byte   PATT
  .word Label_01497099
@  #01 @111   ----------------------------------------
 .byte   PATT
  .word Label_014970B1
@  #01 @112   ----------------------------------------
 .byte   PATT
  .word Label_01497099
@  #01 @113   ----------------------------------------
 .byte   PATT
  .word Label_014970B1
@  #01 @114   ----------------------------------------
 .byte   PATT
  .word Label_01497099
@  #01 @115   ----------------------------------------
 .byte   PATT
  .word Label_014970D0
@  #01 @116   ----------------------------------------
 .byte   N96 ,Bn2 ,v044
 .byte   N96 ,Dn3
 .byte   W96
@  #01 @117   ----------------------------------------
 .byte   W96
@  #01 @118   ----------------------------------------
 .byte   W96
@  #01 @119   ----------------------------------------
 .byte   W96
@  #01 @120   ----------------------------------------
 .byte   W96
@  #01 @121   ----------------------------------------
 .byte   W96
@  #01 @122   ----------------------------------------
 .byte   W96
@  #01 @123   ----------------------------------------
 .byte   W96
@  #01 @124   ----------------------------------------
 .byte   W96
@  #01 @125   ----------------------------------------
 .byte   W96
@  #01 @126   ----------------------------------------
 .byte   W96
@  #01 @127   ----------------------------------------
 .byte   W96
@  #01 @128   ----------------------------------------
 .byte   W96
@  #01 @129   ----------------------------------------
 .byte   W96
@  #01 @130   ----------------------------------------
 .byte   W96
@  #01 @131   ----------------------------------------
 .byte   W96
@  #01 @132   ----------------------------------------
 .byte   W96
@  #01 @133   ----------------------------------------
 .byte   W96
@  #01 @134   ----------------------------------------
 .byte   W96
@  #01 @135   ----------------------------------------
 .byte   W96
@  #01 @136   ----------------------------------------
 .byte   W96
@  #01 @137   ----------------------------------------
 .byte   W96
@  #01 @138   ----------------------------------------
 .byte   W96
@  #01 @139   ----------------------------------------
 .byte   W96
@  #01 @140   ----------------------------------------
 .byte   W96
@  #01 @141   ----------------------------------------
 .byte   W96
@  #01 @142   ----------------------------------------
 .byte   W96
@  #01 @143   ----------------------------------------
 .byte   W96
@  #01 @144   ----------------------------------------
 .byte   W96
@  #01 @145   ----------------------------------------
 .byte   W96
@  #01 @146   ----------------------------------------
 .byte   W96
@  #01 @147   ----------------------------------------
 .byte   W96
@  #01 @148   ----------------------------------------
 .byte   W96
@  #01 @149   ----------------------------------------
 .byte   W96
@  #01 @150   ----------------------------------------
 .byte   W96
@  #01 @151   ----------------------------------------
 .byte   W96
@  #01 @152   ----------------------------------------
 .byte   W96
@  #01 @153   ----------------------------------------
 .byte   W96
@  #01 @154   ----------------------------------------
 .byte   W96
@  #01 @155   ----------------------------------------
 .byte   W96
@  #01 @156   ----------------------------------------
 .byte   W96
@  #01 @157   ----------------------------------------
 .byte   W96
@  #01 @158   ----------------------------------------
 .byte   W96
@  #01 @159   ----------------------------------------
 .byte   W96
@  #01 @160   ----------------------------------------
 .byte   W96
@  #01 @161   ----------------------------------------
 .byte   W96
@  #01 @162   ----------------------------------------
 .byte   W96
@  #01 @163   ----------------------------------------
 .byte   W96
@  #01 @164   ----------------------------------------
 .byte   W96
@  #01 @165   ----------------------------------------
 .byte   W96
@  #01 @166   ----------------------------------------
 .byte   W96
@  #01 @167   ----------------------------------------
 .byte   W96
@  #01 @168   ----------------------------------------
 .byte   W96
@  #01 @169   ----------------------------------------
 .byte   W96
@  #01 @170   ----------------------------------------
 .byte   W96
@  #01 @171   ----------------------------------------
 .byte   W96
@  #01 @172   ----------------------------------------
 .byte   W96
@  #01 @173   ----------------------------------------
 .byte   W96
@  #01 @174   ----------------------------------------
 .byte   W96
@  #01 @175   ----------------------------------------
 .byte   W96
@  #01 @176   ----------------------------------------
 .byte   W96
@  #01 @177   ----------------------------------------
 .byte   W96
@  #01 @178   ----------------------------------------
 .byte   W96
@  #01 @179   ----------------------------------------
 .byte   W96
@  #01 @180   ----------------------------------------
 .byte   W96
@  #01 @181   ----------------------------------------
 .byte   W96
@  #01 @182   ----------------------------------------
 .byte   W96
@  #01 @183   ----------------------------------------
 .byte   W96
@  #01 @184   ----------------------------------------
 .byte   W96
@  #01 @185   ----------------------------------------
 .byte   W96
@  #01 @186   ----------------------------------------
 .byte   W96
@  #01 @187   ----------------------------------------
 .byte   W96
@  #01 @188   ----------------------------------------
 .byte   W96
@  #01 @189   ----------------------------------------
 .byte   W96
@  #01 @190   ----------------------------------------
 .byte   W96
@  #01 @191   ----------------------------------------
 .byte   W96
@  #01 @192   ----------------------------------------
 .byte   W96
@  #01 @193   ----------------------------------------
 .byte   W96
@  #01 @194   ----------------------------------------
 .byte   W96
@  #01 @195   ----------------------------------------
 .byte   W96
@  #01 @196   ----------------------------------------
 .byte   W96
@  #01 @197   ----------------------------------------
 .byte   W96
@  #01 @198   ----------------------------------------
 .byte   W96
@  #01 @199   ----------------------------------------
 .byte   W96
@  #01 @200   ----------------------------------------
 .byte   W96
@  #01 @201   ----------------------------------------
 .byte   W96
@  #01 @202   ----------------------------------------
 .byte   W96
@  #01 @203   ----------------------------------------
 .byte   W96
@  #01 @204   ----------------------------------------
 .byte   W96
@  #01 @205   ----------------------------------------
 .byte   W96
@  #01 @206   ----------------------------------------
 .byte   W96
@  #01 @207   ----------------------------------------
 .byte   W96
@  #01 @208   ----------------------------------------
 .byte   W96
@  #01 @209   ----------------------------------------
 .byte   W96
@  #01 @210   ----------------------------------------
 .byte   W96
@  #01 @211   ----------------------------------------
 .byte   W96
@  #01 @212   ----------------------------------------
 .byte   W96
@  #01 @213   ----------------------------------------
 .byte   W96
@  #01 @214   ----------------------------------------
 .byte   W96
@  #01 @215   ----------------------------------------
 .byte   W96
@  #01 @216   ----------------------------------------
 .byte   GOTO
  .word Label_0149706A
 .byte   FINE

@**************** Track 2 (Midi-Chn.1) ****************@

MissionStreet_002:
@  #02 @000   ----------------------------------------
 .byte   KEYSH , MissionStreet_key+0
Label_014971E2:
 .byte   VOICE , 34
 .byte   MODT 0
 .byte   LFOS 44
 .byte   VOL , 127*MissionStreet_mvl/mxv
 .byte   W96
@  #02 @001   ----------------------------------------
 .byte   W96
@  #02 @002   ----------------------------------------
Label_014971EC:
 .byte   N12 ,Cn1 ,v044
 .byte   W12
 .byte   N12
 .byte   W12
 .byte   N12
 .byte   W12
 .byte   Bn0
 .byte   W12
 .byte   Cn1
 .byte   W12
 .byte   N12
 .byte   W12
 .byte   Bn0
 .byte   W12
 .byte   Cn1
 .byte   W12
 .byte   PEND 
@  #02 @003   ----------------------------------------
Label_014971FF:
 .byte   W12
 .byte   N12 ,Fn0 ,v044
 .byte   W12
 .byte   N12
 .byte   W12
 .byte   N12
 .byte   W12
 .byte   N12
 .byte   W12
 .byte   N12
 .byte   W12
 .byte   Gn0
 .byte   W12
 .byte   N12
 .byte   W12
 .byte   PEND 
@  #02 @004   ----------------------------------------
Label_01497211:
 .byte   N12 ,An0 ,v044
 .byte   W12
 .byte   N12
 .byte   W12
 .byte   N12
 .byte   W12
 .byte   Gn0
 .byte   W12
 .byte   An0
 .byte   W12
 .byte   N12
 .byte   W12
 .byte   Gn0
 .byte   W12
 .byte   An0
 .byte   W12
 .byte   PEND 
@  #02 @005   ----------------------------------------
Label_01497224:
 .byte   W12
 .byte   N12 ,Gn0 ,v044
 .byte   W12
 .byte   N12
 .byte   W12
 .byte   N12
 .byte   W12
 .byte   N12
 .byte   W12
 .byte   N12
 .byte   W12
 .byte   N12
 .byte   W12
 .byte   N12
 .byte   W12
 .byte   PEND 
@  #02 @006   ----------------------------------------
 .byte   PATT
  .word Label_014971EC
@  #02 @007   ----------------------------------------
 .byte   PATT
  .word Label_014971FF
@  #02 @008   ----------------------------------------
 .byte   PATT
  .word Label_01497211
@  #02 @009   ----------------------------------------
 .byte   PATT
  .word Label_01497224
@  #02 @010   ----------------------------------------
Label_0149724A:
 .byte   N36 ,Cn1 ,v044
 .byte   W36
 .byte   N12
 .byte   W24
 .byte   N24
 .byte   W24
 .byte   N12 ,Gn0
 .byte   W12
 .byte   PEND 
@  #02 @011   ----------------------------------------
Label_01497256:
 .byte   N12 ,Cn1 ,v044
 .byte   W12
 .byte   N12
 .byte   W24
 .byte   N24
 .byte   W24
 .byte   N12
 .byte   W12
 .byte   Gn0
 .byte   W12
 .byte   Cn1
 .byte   W12
 .byte   PEND 
@  #02 @012   ----------------------------------------
Label_01497265:
 .byte   N36 ,En0 ,v044
 .byte   W36
 .byte   N12
 .byte   W24
 .byte   N24
 .byte   W24
 .byte   N12 ,Bn0
 .byte   W12
 .byte   PEND 
@  #02 @013   ----------------------------------------
Label_01497271:
 .byte   N12 ,En0 ,v044
 .byte   W12
 .byte   N12
 .byte   W24
 .byte   N24
 .byte   W24
 .byte   N12
 .byte   W12
 .byte   Bn0
 .byte   W12
 .byte   En0
 .byte   W12
 .byte   PEND 
@  #02 @014   ----------------------------------------
Label_01497280:
 .byte   N36 ,Fn0 ,v044
 .byte   W36
 .byte   N12
 .byte   W24
 .byte   N12
 .byte   W24
 .byte   Cn1
 .byte   W12
 .byte   PEND 
@  #02 @015   ----------------------------------------
Label_0149728B:
 .byte   N12 ,Fn0 ,v044
 .byte   W12
 .byte   N12
 .byte   W24
 .byte   N12
 .byte   W24
 .byte   N12
 .byte   W12
 .byte   Cn1
 .byte   W12
 .byte   Fn0
 .byte   W12
 .byte   PEND 
@  #02 @016   ----------------------------------------
 .byte   PATT
  .word Label_01497280
@  #02 @017   ----------------------------------------
Label_0149729F:
 .byte   N12 ,Fn0 ,v044
 .byte   W12
 .byte   N12
 .byte   W24
 .byte   N12
 .byte   W24
 .byte   Gn0
 .byte   W12
 .byte   N12
 .byte   W12
 .byte   N12
 .byte   W12
 .byte   PEND 
@  #02 @018   ----------------------------------------
 .byte   PATT
  .word Label_0149724A
@  #02 @019   ----------------------------------------
 .byte   PATT
  .word Label_01497256
@  #02 @020   ----------------------------------------
 .byte   PATT
  .word Label_01497265
@  #02 @021   ----------------------------------------
 .byte   PATT
  .word Label_01497271
@  #02 @022   ----------------------------------------
 .byte   PATT
  .word Label_01497280
@  #02 @023   ----------------------------------------
 .byte   PATT
  .word Label_0149728B
@  #02 @024   ----------------------------------------
 .byte   PATT
  .word Label_01497280
@  #02 @025   ----------------------------------------
 .byte   PATT
  .word Label_0149729F
@  #02 @026   ----------------------------------------
Label_014972D6:
 .byte   N12 ,Fn0 ,v044
 .byte   W12
 .byte   N12
 .byte   W12
 .byte   N12
 .byte   W12
 .byte   N12
 .byte   W12
 .byte   N12
 .byte   W12
 .byte   Fn1
 .byte   W12
 .byte   N12
 .byte   W12
 .byte   N24
 .byte   W12
 .byte   PEND 
@  #02 @027   ----------------------------------------
Label_014972E9:
 .byte   W12
 .byte   N24 ,En1 ,v044
 .byte   W24
 .byte   Dn1
 .byte   W24
 .byte   N12 ,Cn1
 .byte   W12
 .byte   Gn0
 .byte   W12
 .byte   Fn0
 .byte   W12
 .byte   PEND 
@  #02 @028   ----------------------------------------
Label_014972F8:
 .byte   N12 ,En0 ,v044
 .byte   W12
 .byte   N12
 .byte   W12
 .byte   N12
 .byte   W12
 .byte   Dn1
 .byte   W12
 .byte   En1
 .byte   W12
 .byte   En0
 .byte   W12
 .byte   Gn0
 .byte   W12
 .byte   N24 ,An0
 .byte   W12
 .byte   PEND 
@  #02 @029   ----------------------------------------
Label_0149730C:
 .byte   W12
 .byte   N24 ,Cs1 ,v044
 .byte   W24
 .byte   Dn1
 .byte   W24
 .byte   N12 ,Ds1
 .byte   W12
 .byte   En1
 .byte   W12
 .byte   An0
 .byte   W12
 .byte   PEND 
@  #02 @030   ----------------------------------------
Label_0149731B:
 .byte   N12 ,Dn1 ,v044
 .byte   W12
 .byte   N12
 .byte   W12
 .byte   N12
 .byte   W12
 .byte   N12
 .byte   W12
 .byte   N12
 .byte   W12
 .byte   N12
 .byte   W12
 .byte   N12
 .byte   W12
 .byte   N12
 .byte   W12
 .byte   PEND 
@  #02 @031   ----------------------------------------
Label_0149732E:
 .byte   N12 ,En1 ,v044
 .byte   W12
 .byte   N24 ,Bn0
 .byte   W24
 .byte   En0
 .byte   W24
 .byte   N12 ,Bn0
 .byte   W12
 .byte   En1
 .byte   W12
 .byte   En0
 .byte   W12
 .byte   PEND 
@  #02 @032   ----------------------------------------
Label_0149733F:
 .byte   N12 ,Fn1 ,v044
 .byte   W12
 .byte   N24 ,Cn1
 .byte   W24
 .byte   Fn0
 .byte   W24
 .byte   N12 ,Cn1
 .byte   W12
 .byte   Fn1
 .byte   W12
 .byte   Cn1
 .byte   W12
 .byte   PEND 
@  #02 @033   ----------------------------------------
Label_01497350:
 .byte   N12 ,Gn1 ,v044
 .byte   W12
 .byte   N12
 .byte   W12
 .byte   Dn1
 .byte   W12
 .byte   Gn0
 .byte   W12
 .byte   N12
 .byte   W12
 .byte   Dn1
 .byte   W12
 .byte   Gn1
 .byte   W12
 .byte   Gn0
 .byte   W12
 .byte   PEND 
@  #02 @034   ----------------------------------------
 .byte   PATT
  .word Label_014972D6
@  #02 @035   ----------------------------------------
 .byte   PATT
  .word Label_014972E9
@  #02 @036   ----------------------------------------
 .byte   PATT
  .word Label_014972F8
@  #02 @037   ----------------------------------------
 .byte   PATT
  .word Label_0149730C
@  #02 @038   ----------------------------------------
 .byte   PATT
  .word Label_0149731B
@  #02 @039   ----------------------------------------
 .byte   PATT
  .word Label_0149732E
@  #02 @040   ----------------------------------------
 .byte   PATT
  .word Label_0149733F
@  #02 @041   ----------------------------------------
Label_01497386:
 .byte   N12 ,Cn1 ,v044
 .byte   W12
 .byte   N24
 .byte   W24
 .byte   Fn1
 .byte   W24
 .byte   N12 ,Cn1
 .byte   W12
 .byte   Fn0
 .byte   W12
 .byte   Cn1
 .byte   W12
 .byte   PEND 
@  #02 @042   ----------------------------------------
Label_01497396:
 .byte   N12 ,Gn0 ,v044
 .byte   W12
 .byte   N12
 .byte   W12
 .byte   N12
 .byte   W12
 .byte   N12
 .byte   W12
 .byte   N12
 .byte   W12
 .byte   N12
 .byte   W12
 .byte   N12
 .byte   W12
 .byte   N12
 .byte   W12
 .byte   PEND 
@  #02 @043   ----------------------------------------
 .byte   PATT
  .word Label_01497396
@  #02 @044   ----------------------------------------
Label_014973AE:
 .byte   N12 ,Gn0 ,v044
 .byte   W12
 .byte   N24 ,Bn0
 .byte   W24
 .byte   Cn1
 .byte   W24
 .byte   Cs1
 .byte   W24
 .byte   N12 ,Dn1
 .byte   W12
 .byte   PEND 
@  #02 @045   ----------------------------------------
Label_014973BD:
 .byte   N12 ,Cn1 ,v044
 .byte   W12
 .byte   N12
 .byte   W12
 .byte   N12
 .byte   W12
 .byte   N12
 .byte   W12
 .byte   N12
 .byte   W12
 .byte   Gn0
 .byte   W12
 .byte   An0
 .byte   W12
 .byte   N24 ,Cn1
 .byte   W12
 .byte   PEND 
@  #02 @046   ----------------------------------------
Label_014973D1:
 .byte   W12
 .byte   N12 ,Cn1 ,v044
 .byte   W12
 .byte   N12
 .byte   W12
 .byte   N12
 .byte   W12
 .byte   N12
 .byte   W12
 .byte   Gn0
 .byte   W12
 .byte   An0
 .byte   W12
 .byte   Cn1
 .byte   W12
 .byte   PEND 
@  #02 @047   ----------------------------------------
Label_014973E3:
 .byte   N12 ,As0 ,v044
 .byte   W12
 .byte   N12
 .byte   W12
 .byte   N12
 .byte   W12
 .byte   N12
 .byte   W12
 .byte   N12
 .byte   W12
 .byte   Fn0
 .byte   W12
 .byte   Gn0
 .byte   W12
 .byte   N24 ,As0
 .byte   W12
 .byte   PEND 
@  #02 @048   ----------------------------------------
Label_014973F7:
 .byte   W12
 .byte   N12 ,As0 ,v044
 .byte   W12
 .byte   N12
 .byte   W12
 .byte   Gn0
 .byte   W12
 .byte   As0
 .byte   W12
 .byte   N12
 .byte   W12
 .byte   Cn1
 .byte   W12
 .byte   As0
 .byte   W12
 .byte   PEND 
@  #02 @049   ----------------------------------------
Label_01497409:
 .byte   N12 ,An0 ,v044
 .byte   W12
 .byte   N12
 .byte   W12
 .byte   N12
 .byte   W12
 .byte   N12
 .byte   W12
 .byte   N12
 .byte   W12
 .byte   En0
 .byte   W12
 .byte   Gn0
 .byte   W12
 .byte   N24 ,An0
 .byte   W12
 .byte   PEND 
@  #02 @050   ----------------------------------------
Label_0149741D:
 .byte   W12
 .byte   N12 ,An0 ,v044
 .byte   W12
 .byte   N12
 .byte   W12
 .byte   Gn0
 .byte   W12
 .byte   An0
 .byte   W12
 .byte   N12
 .byte   W12
 .byte   Cn1
 .byte   W12
 .byte   An0
 .byte   W12
 .byte   PEND 
@  #02 @051   ----------------------------------------
Label_0149742F:
 .byte   N12 ,As0 ,v044
 .byte   W12
 .byte   N12
 .byte   W12
 .byte   N12
 .byte   W12
 .byte   An0
 .byte   W12
 .byte   As0
 .byte   W12
 .byte   Cn1
 .byte   W12
 .byte   As0
 .byte   W12
 .byte   N24 ,An0
 .byte   W12
 .byte   PEND 
@  #02 @052   ----------------------------------------
Label_01497443:
 .byte   W12
 .byte   N12 ,An0 ,v044
 .byte   W12
 .byte   Bn0
 .byte   W12
 .byte   N12
 .byte   W12
 .byte   Cn1
 .byte   W12
 .byte   N12
 .byte   W12
 .byte   Cs1
 .byte   W12
 .byte   N12
 .byte   W12
 .byte   PEND 
@  #02 @053   ----------------------------------------
Label_01497455:
 .byte   N12 ,Fn0 ,v044
 .byte   W12
 .byte   N12
 .byte   W12
 .byte   N12
 .byte   W12
 .byte   En0
 .byte   W12
 .byte   Fn0
 .byte   W12
 .byte   N12
 .byte   W12
 .byte   En0
 .byte   W12
 .byte   N24 ,Fn0
 .byte   W12
 .byte   PEND 
@  #02 @054   ----------------------------------------
Label_01497469:
 .byte   W12
 .byte   N12 ,Fn0 ,v044
 .byte   W12
 .byte   N12
 .byte   W12
 .byte   En0
 .byte   W12
 .byte   Fn0
 .byte   W12
 .byte   N12
 .byte   W12
 .byte   N12
 .byte   W12
 .byte   Gn0
 .byte   W12
 .byte   PEND 
@  #02 @055   ----------------------------------------
Label_0149747B:
 .byte   N12 ,Gs0 ,v044
 .byte   W12
 .byte   N12
 .byte   W12
 .byte   N12
 .byte   W12
 .byte   Gn0
 .byte   W12
 .byte   Gs0
 .byte   W12
 .byte   N12
 .byte   W12
 .byte   Cn1
 .byte   W12
 .byte   N24 ,As0
 .byte   W12
 .byte   PEND 
@  #02 @056   ----------------------------------------
Label_0149748F:
 .byte   W12
 .byte   N12 ,As0 ,v044
 .byte   W12
 .byte   N12
 .byte   W12
 .byte   Gs0
 .byte   W12
 .byte   As0
 .byte   W12
 .byte   N12
 .byte   W12
 .byte   Gs0
 .byte   W12
 .byte   As0
 .byte   W12
 .byte   PEND 
@  #02 @057   ----------------------------------------
Label_014974A1:
 .byte   N12 ,Cn1 ,v044
 .byte   W12
 .byte   N12
 .byte   W12
 .byte   N12
 .byte   W12
 .byte   N12
 .byte   W12
 .byte   N12
 .byte   W12
 .byte   N12
 .byte   W12
 .byte   N12
 .byte   W12
 .byte   TIE
 .byte   W12
 .byte   PEND 
@  #02 @058   ----------------------------------------
 .byte   W96
@  #02 @059   ----------------------------------------
 .byte   EOT
Label_014974B6:
 .byte   W36
 .byte   N12 ,Cn1 ,v044
 .byte   W24
 .byte   N24
 .byte   W24
 .byte   N12 ,Gn0
 .byte   W12
 .byte   PEND 
@  #02 @060   ----------------------------------------
 .byte   PATT
  .word Label_01497256
@  #02 @061   ----------------------------------------
 .byte   PATT
  .word Label_01497265
@  #02 @062   ----------------------------------------
 .byte   PATT
  .word Label_01497271
@  #02 @063   ----------------------------------------
 .byte   PATT
  .word Label_01497280
@  #02 @064   ----------------------------------------
 .byte   PATT
  .word Label_0149728B
@  #02 @065   ----------------------------------------
 .byte   PATT
  .word Label_01497280
@  #02 @066   ----------------------------------------
 .byte   PATT
  .word Label_0149729F
@  #02 @067   ----------------------------------------
 .byte   PATT
  .word Label_0149724A
@  #02 @068   ----------------------------------------
 .byte   PATT
  .word Label_01497256
@  #02 @069   ----------------------------------------
 .byte   PATT
  .word Label_01497265
@  #02 @070   ----------------------------------------
 .byte   PATT
  .word Label_01497271
@  #02 @071   ----------------------------------------
 .byte   PATT
  .word Label_01497280
@  #02 @072   ----------------------------------------
 .byte   PATT
  .word Label_0149728B
@  #02 @073   ----------------------------------------
 .byte   PATT
  .word Label_01497280
@  #02 @074   ----------------------------------------
 .byte   PATT
  .word Label_0149729F
@  #02 @075   ----------------------------------------
 .byte   PATT
  .word Label_014972D6
@  #02 @076   ----------------------------------------
 .byte   PATT
  .word Label_014972E9
@  #02 @077   ----------------------------------------
 .byte   PATT
  .word Label_014972F8
@  #02 @078   ----------------------------------------
 .byte   PATT
  .word Label_0149730C
@  #02 @079   ----------------------------------------
 .byte   PATT
  .word Label_0149731B
@  #02 @080   ----------------------------------------
 .byte   PATT
  .word Label_0149732E
@  #02 @081   ----------------------------------------
 .byte   PATT
  .word Label_0149733F
@  #02 @082   ----------------------------------------
 .byte   PATT
  .word Label_01497350
@  #02 @083   ----------------------------------------
 .byte   PATT
  .word Label_014972D6
@  #02 @084   ----------------------------------------
 .byte   PATT
  .word Label_014972E9
@  #02 @085   ----------------------------------------
 .byte   PATT
  .word Label_014972F8
@  #02 @086   ----------------------------------------
 .byte   PATT
  .word Label_0149730C
@  #02 @087   ----------------------------------------
 .byte   PATT
  .word Label_0149731B
@  #02 @088   ----------------------------------------
 .byte   PATT
  .word Label_0149732E
@  #02 @089   ----------------------------------------
 .byte   PATT
  .word Label_0149733F
@  #02 @090   ----------------------------------------
 .byte   PATT
  .word Label_01497386
@  #02 @091   ----------------------------------------
 .byte   PATT
  .word Label_01497396
@  #02 @092   ----------------------------------------
 .byte   PATT
  .word Label_01497396
@  #02 @093   ----------------------------------------
 .byte   PATT
  .word Label_014973AE
@  #02 @094   ----------------------------------------
Label_0149756B:
 .byte   N12 ,Gn1 ,v044
 .byte   W12
 .byte   N24
 .byte   W24
 .byte   N24
 .byte   W24
 .byte   N12 ,Gn0
 .byte   W12
 .byte   Gn1
 .byte   W12
 .byte   Gn0
 .byte   W12
 .byte   PEND 
@  #02 @095   ----------------------------------------
 .byte   PATT
  .word Label_014973BD
@  #02 @096   ----------------------------------------
 .byte   PATT
  .word Label_014973D1
@  #02 @097   ----------------------------------------
 .byte   PATT
  .word Label_014973E3
@  #02 @098   ----------------------------------------
 .byte   PATT
  .word Label_014973F7
@  #02 @099   ----------------------------------------
 .byte   PATT
  .word Label_01497409
@  #02 @100   ----------------------------------------
 .byte   PATT
  .word Label_0149741D
@  #02 @101   ----------------------------------------
 .byte   PATT
  .word Label_0149742F
@  #02 @102   ----------------------------------------
 .byte   PATT
  .word Label_01497443
@  #02 @103   ----------------------------------------
 .byte   PATT
  .word Label_01497455
@  #02 @104   ----------------------------------------
 .byte   PATT
  .word Label_01497469
@  #02 @105   ----------------------------------------
 .byte   PATT
  .word Label_0149747B
@  #02 @106   ----------------------------------------
 .byte   PATT
  .word Label_0149748F
@  #02 @107   ----------------------------------------
Label_014975B7:
 .byte   N12 ,Cn1 ,v044
 .byte   W12
 .byte   N12
 .byte   W12
 .byte   N12
 .byte   W12
 .byte   N12
 .byte   W12
 .byte   N12
 .byte   W12
 .byte   N12
 .byte   W12
 .byte   N12
 .byte   W24
 .byte   PEND 
@  #02 @108   ----------------------------------------
 .byte   W96
@  #02 @109   ----------------------------------------
 .byte   PATT
  .word Label_014971EC
@  #02 @110   ----------------------------------------
 .byte   PATT
  .word Label_014971FF
@  #02 @111   ----------------------------------------
 .byte   PATT
  .word Label_01497211
@  #02 @112   ----------------------------------------
 .byte   PATT
  .word Label_01497224
@  #02 @113   ----------------------------------------
 .byte   PATT
  .word Label_014971EC
@  #02 @114   ----------------------------------------
 .byte   PATT
  .word Label_014971FF
@  #02 @115   ----------------------------------------
 .byte   PATT
  .word Label_01497211
@  #02 @116   ----------------------------------------
 .byte   PATT
  .word Label_01497224
@  #02 @117   ----------------------------------------
 .byte   PATT
  .word Label_0149724A
@  #02 @118   ----------------------------------------
 .byte   PATT
  .word Label_01497256
@  #02 @119   ----------------------------------------
 .byte   PATT
  .word Label_01497265
@  #02 @120   ----------------------------------------
 .byte   PATT
  .word Label_01497271
@  #02 @121   ----------------------------------------
 .byte   PATT
  .word Label_01497280
@  #02 @122   ----------------------------------------
 .byte   PATT
  .word Label_0149728B
@  #02 @123   ----------------------------------------
 .byte   PATT
  .word Label_01497280
@  #02 @124   ----------------------------------------
 .byte   PATT
  .word Label_0149729F
@  #02 @125   ----------------------------------------
 .byte   PATT
  .word Label_0149724A
@  #02 @126   ----------------------------------------
 .byte   PATT
  .word Label_01497256
@  #02 @127   ----------------------------------------
 .byte   PATT
  .word Label_01497265
@  #02 @128   ----------------------------------------
 .byte   PATT
  .word Label_01497271
@  #02 @129   ----------------------------------------
 .byte   PATT
  .word Label_01497280
@  #02 @130   ----------------------------------------
 .byte   PATT
  .word Label_0149728B
@  #02 @131   ----------------------------------------
 .byte   PATT
  .word Label_01497280
@  #02 @132   ----------------------------------------
 .byte   PATT
  .word Label_0149729F
@  #02 @133   ----------------------------------------
 .byte   PATT
  .word Label_014972D6
@  #02 @134   ----------------------------------------
 .byte   PATT
  .word Label_014972E9
@  #02 @135   ----------------------------------------
 .byte   PATT
  .word Label_014972F8
@  #02 @136   ----------------------------------------
 .byte   PATT
  .word Label_0149730C
@  #02 @137   ----------------------------------------
 .byte   PATT
  .word Label_0149731B
@  #02 @138   ----------------------------------------
 .byte   PATT
  .word Label_0149732E
@  #02 @139   ----------------------------------------
 .byte   PATT
  .word Label_0149733F
@  #02 @140   ----------------------------------------
 .byte   PATT
  .word Label_01497350
@  #02 @141   ----------------------------------------
 .byte   PATT
  .word Label_014972D6
@  #02 @142   ----------------------------------------
 .byte   PATT
  .word Label_014972E9
@  #02 @143   ----------------------------------------
 .byte   PATT
  .word Label_014972F8
@  #02 @144   ----------------------------------------
 .byte   PATT
  .word Label_0149730C
@  #02 @145   ----------------------------------------
 .byte   PATT
  .word Label_0149731B
@  #02 @146   ----------------------------------------
 .byte   PATT
  .word Label_0149732E
@  #02 @147   ----------------------------------------
 .byte   PATT
  .word Label_0149733F
@  #02 @148   ----------------------------------------
 .byte   PATT
  .word Label_01497386
@  #02 @149   ----------------------------------------
 .byte   PATT
  .word Label_01497396
@  #02 @150   ----------------------------------------
 .byte   PATT
  .word Label_01497396
@  #02 @151   ----------------------------------------
 .byte   PATT
  .word Label_014973AE
@  #02 @152   ----------------------------------------
 .byte   PATT
  .word Label_014973BD
@  #02 @153   ----------------------------------------
 .byte   PATT
  .word Label_014973D1
@  #02 @154   ----------------------------------------
 .byte   PATT
  .word Label_014973E3
@  #02 @155   ----------------------------------------
 .byte   PATT
  .word Label_014973F7
@  #02 @156   ----------------------------------------
 .byte   PATT
  .word Label_01497409
@  #02 @157   ----------------------------------------
 .byte   PATT
  .word Label_0149741D
@  #02 @158   ----------------------------------------
 .byte   PATT
  .word Label_0149742F
@  #02 @159   ----------------------------------------
 .byte   PATT
  .word Label_01497443
@  #02 @160   ----------------------------------------
 .byte   PATT
  .word Label_01497455
@  #02 @161   ----------------------------------------
 .byte   PATT
  .word Label_01497469
@  #02 @162   ----------------------------------------
 .byte   PATT
  .word Label_0149747B
@  #02 @163   ----------------------------------------
 .byte   PATT
  .word Label_0149748F
@  #02 @164   ----------------------------------------
 .byte   PATT
  .word Label_014974A1
@  #02 @165   ----------------------------------------
 .byte   W96
@  #02 @166   ----------------------------------------
 .byte   EOT
 .byte   Cn1
@  #02 @167   ----------------------------------------
 .byte   PATT
  .word Label_014974B6
@  #02 @168   ----------------------------------------
 .byte   PATT
  .word Label_01497256
@  #02 @169   ----------------------------------------
 .byte   PATT
  .word Label_01497265
@  #02 @170   ----------------------------------------
 .byte   PATT
  .word Label_01497271
@  #02 @171   ----------------------------------------
 .byte   PATT
  .word Label_01497280
@  #02 @172   ----------------------------------------
 .byte   PATT
  .word Label_0149728B
@  #02 @173   ----------------------------------------
 .byte   PATT
  .word Label_01497280
@  #02 @174   ----------------------------------------
 .byte   PATT
  .word Label_0149729F
@  #02 @175   ----------------------------------------
 .byte   PATT
  .word Label_0149724A
@  #02 @176   ----------------------------------------
 .byte   PATT
  .word Label_01497256
@  #02 @177   ----------------------------------------
 .byte   PATT
  .word Label_01497265
@  #02 @178   ----------------------------------------
 .byte   PATT
  .word Label_01497271
@  #02 @179   ----------------------------------------
 .byte   PATT
  .word Label_01497280
@  #02 @180   ----------------------------------------
 .byte   PATT
  .word Label_0149728B
@  #02 @181   ----------------------------------------
 .byte   PATT
  .word Label_01497280
@  #02 @182   ----------------------------------------
 .byte   PATT
  .word Label_0149729F
@  #02 @183   ----------------------------------------
 .byte   PATT
  .word Label_014972D6
@  #02 @184   ----------------------------------------
 .byte   PATT
  .word Label_014972E9
@  #02 @185   ----------------------------------------
 .byte   PATT
  .word Label_014972F8
@  #02 @186   ----------------------------------------
 .byte   PATT
  .word Label_0149730C
@  #02 @187   ----------------------------------------
 .byte   PATT
  .word Label_0149731B
@  #02 @188   ----------------------------------------
 .byte   PATT
  .word Label_0149732E
@  #02 @189   ----------------------------------------
 .byte   PATT
  .word Label_0149733F
@  #02 @190   ----------------------------------------
 .byte   PATT
  .word Label_01497350
@  #02 @191   ----------------------------------------
 .byte   PATT
  .word Label_014972D6
@  #02 @192   ----------------------------------------
 .byte   PATT
  .word Label_014972E9
@  #02 @193   ----------------------------------------
 .byte   PATT
  .word Label_014972F8
@  #02 @194   ----------------------------------------
 .byte   PATT
  .word Label_0149730C
@  #02 @195   ----------------------------------------
 .byte   PATT
  .word Label_0149731B
@  #02 @196   ----------------------------------------
 .byte   PATT
  .word Label_0149732E
@  #02 @197   ----------------------------------------
 .byte   PATT
  .word Label_0149733F
@  #02 @198   ----------------------------------------
 .byte   PATT
  .word Label_01497386
@  #02 @199   ----------------------------------------
 .byte   PATT
  .word Label_01497396
@  #02 @200   ----------------------------------------
 .byte   PATT
  .word Label_01497396
@  #02 @201   ----------------------------------------
 .byte   PATT
  .word Label_014973AE
@  #02 @202   ----------------------------------------
 .byte   PATT
  .word Label_0149756B
@  #02 @203   ----------------------------------------
 .byte   PATT
  .word Label_014973BD
@  #02 @204   ----------------------------------------
 .byte   PATT
  .word Label_014973D1
@  #02 @205   ----------------------------------------
 .byte   PATT
  .word Label_014973E3
@  #02 @206   ----------------------------------------
 .byte   PATT
  .word Label_014973F7
@  #02 @207   ----------------------------------------
 .byte   PATT
  .word Label_01497409
@  #02 @208   ----------------------------------------
 .byte   PATT
  .word Label_0149741D
@  #02 @209   ----------------------------------------
 .byte   PATT
  .word Label_0149742F
@  #02 @210   ----------------------------------------
 .byte   PATT
  .word Label_01497443
@  #02 @211   ----------------------------------------
 .byte   PATT
  .word Label_01497455
@  #02 @212   ----------------------------------------
 .byte   PATT
  .word Label_01497469
@  #02 @213   ----------------------------------------
 .byte   PATT
  .word Label_0149747B
@  #02 @214   ----------------------------------------
 .byte   PATT
  .word Label_0149748F
@  #02 @215   ----------------------------------------
 .byte   PATT
  .word Label_014975B7
@  #02 @216   ----------------------------------------
 .byte   W96
@  #02 @217   ----------------------------------------
 .byte   GOTO
  .word Label_014971E2
 .byte   FINE

@**************** Track 3 (Midi-Chn.2) ****************@

MissionStreet_003:
@  #03 @000   ----------------------------------------
 .byte   KEYSH , MissionStreet_key+0
Label_014977E2:
 .byte   VOICE , 29
 .byte   MODT 0
 .byte   LFOS 44
 .byte   VOL , 127*MissionStreet_mvl/mxv
 .byte   W96
@  #03 @001   ----------------------------------------
 .byte   W96
@  #03 @002   ----------------------------------------
 .byte   W96
@  #03 @003   ----------------------------------------
 .byte   W96
@  #03 @004   ----------------------------------------
 .byte   W96
@  #03 @005   ----------------------------------------
 .byte   W96
@  #03 @006   ----------------------------------------
 .byte   W96
@  #03 @007   ----------------------------------------
 .byte   W96
@  #03 @008   ----------------------------------------
 .byte   W96
@  #03 @009   ----------------------------------------
 .byte   W96
@  #03 @010   ----------------------------------------
Label_014977F4:
 .byte   N36 ,En3 ,v044
 .byte   W36
 .byte   N12 ,Dn3
 .byte   W12
 .byte   N48 ,Cn3
 .byte   W48
 .byte   PEND 
@  #03 @011   ----------------------------------------
Label_014977FF:
 .byte   N12 ,Dn3 ,v044
 .byte   W12
 .byte   Cn3
 .byte   W24
 .byte   En3
 .byte   W24
 .byte   Dn3
 .byte   W24
 .byte   Cn3
 .byte   W12
 .byte   PEND 
@  #03 @012   ----------------------------------------
Label_0149780C:
 .byte   N36 ,Dn3 ,v044
 .byte   W36
 .byte   N06 ,Cs3
 .byte   W06
 .byte   Cn3
 .byte   W06
 .byte   N48 ,Bn2
 .byte   W48
 .byte   PEND 
@  #03 @013   ----------------------------------------
Label_01497819:
 .byte   N12 ,Gs2 ,v044
 .byte   W12
 .byte   N12
 .byte   W24
 .byte   N12
 .byte   W24
 .byte   An2
 .byte   W24
 .byte   Bn2
 .byte   W12
 .byte   PEND 
@  #03 @014   ----------------------------------------
 .byte   N96 ,Cn3
 .byte   W96
@  #03 @015   ----------------------------------------
Label_01497829:
 .byte   N12 ,An2 ,v044
 .byte   W12
 .byte   N12
 .byte   W12
 .byte   N12
 .byte   W12
 .byte   N12
 .byte   W12
 .byte   N24
 .byte   W24
 .byte   Bn2
 .byte   W24
 .byte   PEND 
@  #03 @016   ----------------------------------------
Label_01497838:
 .byte   N48 ,Cn3 ,v044
 .byte   W48
 .byte   Gs2
 .byte   W48
 .byte   PEND 
@  #03 @017   ----------------------------------------
Label_0149783F:
 .byte   N36 ,Gn2 ,v044
 .byte   W36
 .byte   N60 ,Fn2
 .byte   W60
 .byte   PEND 
@  #03 @018   ----------------------------------------
 .byte   PATT
  .word Label_014977F4
@  #03 @019   ----------------------------------------
 .byte   PATT
  .word Label_014977FF
@  #03 @020   ----------------------------------------
 .byte   PATT
  .word Label_0149780C
@  #03 @021   ----------------------------------------
 .byte   PATT
  .word Label_01497819
@  #03 @022   ----------------------------------------
 .byte   N96 ,Cn3 ,v044
 .byte   W96
@  #03 @023   ----------------------------------------
 .byte   PATT
  .word Label_01497829
@  #03 @024   ----------------------------------------
Label_01497864:
 .byte   N72 ,Cn3 ,v044
 .byte   W72
 .byte   N24 ,Fn3
 .byte   N24 ,Gs3
 .byte   W24
 .byte   PEND 
@  #03 @025   ----------------------------------------
Label_0149786E:
 .byte   N24 ,En3 ,v044
 .byte   N24 ,Gn3
 .byte   W24
 .byte   N72 ,Dn3
 .byte   N72 ,Fn3
 .byte   W72
 .byte   PEND 
@  #03 @026   ----------------------------------------
Label_0149787A:
 .byte   W36
 .byte   N06 ,En3 ,v044
 .byte   W06
 .byte   Fn3
 .byte   W06
 .byte   N12 ,En3
 .byte   W12
 .byte   Cn3
 .byte   W12
 .byte   An2
 .byte   W12
 .byte   Gn2
 .byte   W12
 .byte   PEND 
@  #03 @027   ----------------------------------------
Label_0149788B:
 .byte   N12 ,Gs2 ,v044
 .byte   W12
 .byte   An2
 .byte   W12
 .byte   Gn2
 .byte   W12
 .byte   N24 ,Cn3
 .byte   W24
 .byte   N12 ,An2
 .byte   W12
 .byte   Dn3
 .byte   W12
 .byte   En3
 .byte   W12
 .byte   PEND 
@  #03 @028   ----------------------------------------
Label_0149789E:
 .byte   N12 ,Dn3 ,v044
 .byte   W12
 .byte   Cs3
 .byte   W12
 .byte   Dn3
 .byte   W12
 .byte   N36 ,Gn3
 .byte   W36
 .byte   N24 ,Fn3
 .byte   W24
 .byte   PEND 
@  #03 @029   ----------------------------------------
Label_014978AD:
 .byte   N12 ,En3 ,v044
 .byte   W12
 .byte   N24
 .byte   W24
 .byte   N24
 .byte   W24
 .byte   Fn3
 .byte   W24
 .byte   N12 ,Gn3
 .byte   W12
 .byte   PEND 
@  #03 @030   ----------------------------------------
Label_014978BB:
 .byte   N36 ,Fn3 ,v044
 .byte   W36
 .byte   Cn3
 .byte   W36
 .byte   N12 ,Bn2
 .byte   W12
 .byte   Cn3
 .byte   W12
 .byte   PEND 
@  #03 @031   ----------------------------------------
Label_014978C7:
 .byte   N12 ,Dn3 ,v044
 .byte   W12
 .byte   Cs3
 .byte   W12
 .byte   Dn3
 .byte   W12
 .byte   N60 ,Gn3
 .byte   W60
 .byte   PEND 
@  #03 @032   ----------------------------------------
Label_014978D3:
 .byte   N12 ,An3 ,v044
 .byte   W12
 .byte   Cn3
 .byte   W12
 .byte   En3
 .byte   W12
 .byte   N24 ,Fn3
 .byte   W24
 .byte   N12 ,An3
 .byte   W12
 .byte   Bn3
 .byte   W12
 .byte   Cn4
 .byte   W12
 .byte   PEND 
@  #03 @033   ----------------------------------------
Label_014978E6:
 .byte   N48 ,Cn4 ,v044
 .byte   N48 ,En4
 .byte   W48
 .byte   Bn3
 .byte   N48 ,Dn4
 .byte   W48
 .byte   PEND 
@  #03 @034   ----------------------------------------
Label_014978F1:
 .byte   W36
 .byte   N06 ,En3 ,v044
 .byte   W06
 .byte   Fn3
 .byte   W06
 .byte   N12 ,En3
 .byte   W12
 .byte   Gn3
 .byte   W12
 .byte   An3
 .byte   W12
 .byte   Cn4
 .byte   W12
 .byte   PEND 
@  #03 @035   ----------------------------------------
Label_01497902:
 .byte   W12
 .byte   N36 ,En4 ,v044
 .byte   W36
 .byte   N24 ,Dn4
 .byte   W24
 .byte   Cn4
 .byte   W24
 .byte   PEND 
@  #03 @036   ----------------------------------------
Label_0149790D:
 .byte   N36 ,Dn4 ,v044
 .byte   W36
 .byte   N12 ,Cn4
 .byte   W12
 .byte   Bn3
 .byte   W12
 .byte   N36 ,Gn4
 .byte   W36
 .byte   PEND 
@  #03 @037   ----------------------------------------
Label_0149791A:
 .byte   N24 ,Fn4 ,v044
 .byte   W24
 .byte   N12 ,En4
 .byte   W12
 .byte   N60
 .byte   W60
 .byte   PEND 
@  #03 @038   ----------------------------------------
Label_01497924:
 .byte   N48 ,An3 ,v044
 .byte   N48 ,Cn4
 .byte   W48
 .byte   Fn3
 .byte   N48 ,An3
 .byte   W48
 .byte   PEND 
@  #03 @039   ----------------------------------------
Label_0149792F:
 .byte   N48 ,Gn3 ,v044
 .byte   N48 ,Bn3
 .byte   W48
 .byte   N48
 .byte   N48 ,Dn4
 .byte   W48
 .byte   PEND 
@  #03 @040   ----------------------------------------
 .byte   N96 ,Fn3
 .byte   N96 ,An3
 .byte   W96
@  #03 @041   ----------------------------------------
Label_0149793F:
 .byte   N36 ,Fn3 ,v044
 .byte   N36 ,An3
 .byte   W36
 .byte   Gn3
 .byte   N36 ,Bn3
 .byte   W36
 .byte   N24 ,An3
 .byte   N24 ,Cn4
 .byte   W24
 .byte   PEND 
@  #03 @042   ----------------------------------------
Label_0149794F:
 .byte   N60 ,Bn3 ,v044
 .byte   N60 ,Dn4
 .byte   W60
 .byte   N06 ,Bn3
 .byte   N06 ,Dn4
 .byte   W06
 .byte   Cn4
 .byte   N06 ,En4
 .byte   W06
 .byte   N12 ,Bn3
 .byte   N12 ,Dn4
 .byte   W12
 .byte   As3
 .byte   N12 ,Cs4
 .byte   W12
 .byte   PEND 
@  #03 @043   ----------------------------------------
Label_01497968:
 .byte   N12 ,Bn3 ,v044
 .byte   N12 ,Dn4
 .byte   W12
 .byte   An3
 .byte   N12 ,Cn4
 .byte   W12
 .byte   Bn3
 .byte   N12 ,Dn4
 .byte   W12
 .byte   N60
 .byte   N60 ,Gn4
 .byte   W60
 .byte   PEND 
@  #03 @044   ----------------------------------------
Label_0149797B:
 .byte   N06 ,Cs4 ,v044
 .byte   N06 ,Fs4
 .byte   W06
 .byte   Cn4
 .byte   N06 ,Fn4
 .byte   W06
 .byte   Bn3
 .byte   N06 ,En4
 .byte   W06
 .byte   As3
 .byte   N06 ,Ds4
 .byte   W78
 .byte   PEND 
@  #03 @045   ----------------------------------------
Label_0149798E:
 .byte   N36 ,Cn3 ,v044
 .byte   N36 ,En3
 .byte   W36
 .byte   Dn3
 .byte   N36 ,Fn3
 .byte   W36
 .byte   N12 ,Dn3
 .byte   N12 ,Fn3
 .byte   W12
 .byte   En3
 .byte   N12 ,Gn3
 .byte   W12
 .byte   PEND 
@  #03 @046   ----------------------------------------
Label_014979A2:
 .byte   N48 ,An3 ,v044
 .byte   N48 ,Dn4
 .byte   W48
 .byte   Gn3
 .byte   N48 ,Cn4
 .byte   W48
 .byte   PEND 
@  #03 @047   ----------------------------------------
Label_014979AD:
 .byte   N24 ,As2 ,v044
 .byte   N24 ,En3
 .byte   W24
 .byte   N12 ,Cn3
 .byte   N12 ,Fn3
 .byte   W12
 .byte   N36 ,Dn3
 .byte   N36 ,Gn3
 .byte   W36
 .byte   N12
 .byte   N12 ,Cn4
 .byte   W24
 .byte   PEND 
@  #03 @048   ----------------------------------------
Label_014979C2:
 .byte   N24 ,Cn4 ,v044
 .byte   N24 ,En4
 .byte   W24
 .byte   N12 ,As3
 .byte   N12 ,Dn4
 .byte   W12
 .byte   N60 ,Fn3
 .byte   N60 ,Cn4
 .byte   W60
 .byte   PEND 
@  #03 @049   ----------------------------------------
Label_014979D3:
 .byte   N12 ,Cn3 ,v044
 .byte   N12 ,En3
 .byte   W12
 .byte   Dn3
 .byte   N12 ,Fn3
 .byte   W12
 .byte   En3
 .byte   N12 ,Gn3
 .byte   W12
 .byte   N24 ,An3
 .byte   N24 ,Cn4
 .byte   W24
 .byte   N12 ,Bn3
 .byte   N12 ,Dn4
 .byte   W12
 .byte   N24 ,Cn4
 .byte   N24 ,En4
 .byte   W24
 .byte   PEND 
@  #03 @050   ----------------------------------------
Label_014979F1:
 .byte   N36 ,En4 ,v044
 .byte   N36 ,Gn4
 .byte   W36
 .byte   Dn4
 .byte   N36 ,Fn4
 .byte   W36
 .byte   N24 ,Cn4
 .byte   N24 ,En4
 .byte   W24
 .byte   PEND 
@  #03 @051   ----------------------------------------
Label_01497A01:
 .byte   N72 ,As3 ,v044
 .byte   N72 ,Dn4
 .byte   W72
 .byte   N12 ,Cn4
 .byte   N12 ,En4
 .byte   W12
 .byte   As3
 .byte   N12 ,Dn4
 .byte   W12
 .byte   PEND 
@  #03 @052   ----------------------------------------
Label_01497A11:
 .byte   N48 ,An3 ,v044
 .byte   N48 ,Cs4
 .byte   W48
 .byte   Gn4
 .byte   W48
 .byte   PEND 
@  #03 @053   ----------------------------------------
Label_01497A1A:
 .byte   N24 ,Fn4 ,v044
 .byte   W24
 .byte   N12 ,En4
 .byte   W12
 .byte   N36 ,Cn4
 .byte   W36
 .byte   N24 ,An3
 .byte   W24
 .byte   PEND 
@  #03 @054   ----------------------------------------
Label_01497A28:
 .byte   N48 ,Cn4 ,v044
 .byte   W48
 .byte   N24 ,An3
 .byte   W24
 .byte   Cn4
 .byte   W24
 .byte   PEND 
@  #03 @055   ----------------------------------------
 .byte   N96 ,Ds4
 .byte   W96
@  #03 @056   ----------------------------------------
Label_01497A35:
 .byte   N72 ,Dn4 ,v044
 .byte   W72
 .byte   N12 ,Cn4
 .byte   W12
 .byte   Dn4
 .byte   W12
 .byte   PEND 
@  #03 @057   ----------------------------------------
 .byte   N96 ,Cn4
 .byte   W96
@  #03 @058   ----------------------------------------
Label_01497A42:
 .byte   N06 ,Bn3 ,v044
 .byte   W06
 .byte   As3
 .byte   W06
 .byte   An3
 .byte   W06
 .byte   Gs3
 .byte   W78
 .byte   PEND 
@  #03 @059   ----------------------------------------
 .byte   PATT
  .word Label_014977F4
@  #03 @060   ----------------------------------------
 .byte   PATT
  .word Label_014977FF
@  #03 @061   ----------------------------------------
 .byte   PATT
  .word Label_0149780C
@  #03 @062   ----------------------------------------
 .byte   PATT
  .word Label_01497819
@  #03 @063   ----------------------------------------
 .byte   N96 ,Cn3 ,v044
 .byte   W96
@  #03 @064   ----------------------------------------
 .byte   PATT
  .word Label_01497829
@  #03 @065   ----------------------------------------
 .byte   PATT
  .word Label_01497838
@  #03 @066   ----------------------------------------
 .byte   PATT
  .word Label_0149783F
@  #03 @067   ----------------------------------------
 .byte   PATT
  .word Label_014977F4
@  #03 @068   ----------------------------------------
 .byte   PATT
  .word Label_014977FF
@  #03 @069   ----------------------------------------
 .byte   PATT
  .word Label_0149780C
@  #03 @070   ----------------------------------------
 .byte   PATT
  .word Label_01497819
@  #03 @071   ----------------------------------------
 .byte   N96 ,Cn3 ,v044
 .byte   W96
@  #03 @072   ----------------------------------------
 .byte   PATT
  .word Label_01497829
@  #03 @073   ----------------------------------------
 .byte   PATT
  .word Label_01497864
@  #03 @074   ----------------------------------------
 .byte   PATT
  .word Label_0149786E
@  #03 @075   ----------------------------------------
 .byte   PATT
  .word Label_0149787A
@  #03 @076   ----------------------------------------
 .byte   PATT
  .word Label_0149788B
@  #03 @077   ----------------------------------------
 .byte   PATT
  .word Label_0149789E
@  #03 @078   ----------------------------------------
 .byte   PATT
  .word Label_014978AD
@  #03 @079   ----------------------------------------
 .byte   PATT
  .word Label_014978BB
@  #03 @080   ----------------------------------------
 .byte   PATT
  .word Label_014978C7
@  #03 @081   ----------------------------------------
 .byte   PATT
  .word Label_014978D3
@  #03 @082   ----------------------------------------
 .byte   PATT
  .word Label_014978E6
@  #03 @083   ----------------------------------------
 .byte   PATT
  .word Label_014978F1
@  #03 @084   ----------------------------------------
 .byte   PATT
  .word Label_01497902
@  #03 @085   ----------------------------------------
 .byte   PATT
  .word Label_0149790D
@  #03 @086   ----------------------------------------
 .byte   PATT
  .word Label_0149791A
@  #03 @087   ----------------------------------------
 .byte   PATT
  .word Label_01497924
@  #03 @088   ----------------------------------------
 .byte   PATT
  .word Label_0149792F
@  #03 @089   ----------------------------------------
 .byte   N96 ,Fn3 ,v044
 .byte   N96 ,An3
 .byte   W96
@  #03 @090   ----------------------------------------
 .byte   PATT
  .word Label_0149793F
@  #03 @091   ----------------------------------------
 .byte   PATT
  .word Label_0149794F
@  #03 @092   ----------------------------------------
 .byte   PATT
  .word Label_01497968
@  #03 @093   ----------------------------------------
Label_01497AF6:
 .byte   N36 ,En4 ,v044
 .byte   N36 ,An4
 .byte   W36
 .byte   N06 ,Ds4
 .byte   N06 ,Gs4
 .byte   W06
 .byte   N30 ,En4
 .byte   N30 ,An4
 .byte   W30
 .byte   N06 ,Ds4
 .byte   N06 ,Gs4
 .byte   W06
 .byte   N18 ,En4
 .byte   N18 ,An4
 .byte   W18
 .byte   PEND 
@  #03 @094   ----------------------------------------
 .byte   N96 ,Dn4
 .byte   N96 ,Gn4
 .byte   W96
@  #03 @095   ----------------------------------------
 .byte   PATT
  .word Label_0149798E
@  #03 @096   ----------------------------------------
 .byte   PATT
  .word Label_014979A2
@  #03 @097   ----------------------------------------
 .byte   PATT
  .word Label_014979AD
@  #03 @098   ----------------------------------------
 .byte   PATT
  .word Label_014979C2
@  #03 @099   ----------------------------------------
 .byte   PATT
  .word Label_014979D3
@  #03 @100   ----------------------------------------
 .byte   PATT
  .word Label_014979F1
@  #03 @101   ----------------------------------------
 .byte   PATT
  .word Label_01497A01
@  #03 @102   ----------------------------------------
 .byte   PATT
  .word Label_01497A11
@  #03 @103   ----------------------------------------
 .byte   PATT
  .word Label_01497A1A
@  #03 @104   ----------------------------------------
 .byte   PATT
  .word Label_01497A28
@  #03 @105   ----------------------------------------
 .byte   N96 ,Ds4 ,v044
 .byte   W96
@  #03 @106   ----------------------------------------
 .byte   PATT
  .word Label_01497A35
@  #03 @107   ----------------------------------------
 .byte   N96 ,Cn4 ,v044
 .byte   W96
@  #03 @108   ----------------------------------------
 .byte   PATT
  .word Label_01497A42
@  #03 @109   ----------------------------------------
 .byte   W96
@  #03 @110   ----------------------------------------
 .byte   W96
@  #03 @111   ----------------------------------------
 .byte   W96
@  #03 @112   ----------------------------------------
 .byte   W96
@  #03 @113   ----------------------------------------
 .byte   W96
@  #03 @114   ----------------------------------------
 .byte   W96
@  #03 @115   ----------------------------------------
 .byte   W96
@  #03 @116   ----------------------------------------
 .byte   W96
@  #03 @117   ----------------------------------------
 .byte   PATT
  .word Label_014977F4
@  #03 @118   ----------------------------------------
 .byte   PATT
  .word Label_014977FF
@  #03 @119   ----------------------------------------
 .byte   PATT
  .word Label_0149780C
@  #03 @120   ----------------------------------------
 .byte   PATT
  .word Label_01497819
@  #03 @121   ----------------------------------------
 .byte   N96 ,Cn3 ,v044
 .byte   W96
@  #03 @122   ----------------------------------------
 .byte   PATT
  .word Label_01497829
@  #03 @123   ----------------------------------------
 .byte   PATT
  .word Label_01497838
@  #03 @124   ----------------------------------------
 .byte   PATT
  .word Label_0149783F
@  #03 @125   ----------------------------------------
 .byte   PATT
  .word Label_014977F4
@  #03 @126   ----------------------------------------
 .byte   PATT
  .word Label_014977FF
@  #03 @127   ----------------------------------------
 .byte   PATT
  .word Label_0149780C
@  #03 @128   ----------------------------------------
 .byte   PATT
  .word Label_01497819
@  #03 @129   ----------------------------------------
 .byte   N96 ,Cn3 ,v044
 .byte   W96
@  #03 @130   ----------------------------------------
 .byte   PATT
  .word Label_01497829
@  #03 @131   ----------------------------------------
 .byte   PATT
  .word Label_01497864
@  #03 @132   ----------------------------------------
 .byte   PATT
  .word Label_0149786E
@  #03 @133   ----------------------------------------
 .byte   PATT
  .word Label_0149787A
@  #03 @134   ----------------------------------------
 .byte   PATT
  .word Label_0149788B
@  #03 @135   ----------------------------------------
 .byte   PATT
  .word Label_0149789E
@  #03 @136   ----------------------------------------
 .byte   PATT
  .word Label_014978AD
@  #03 @137   ----------------------------------------
 .byte   PATT
  .word Label_014978BB
@  #03 @138   ----------------------------------------
 .byte   PATT
  .word Label_014978C7
@  #03 @139   ----------------------------------------
 .byte   PATT
  .word Label_014978D3
@  #03 @140   ----------------------------------------
 .byte   PATT
  .word Label_014978E6
@  #03 @141   ----------------------------------------
 .byte   PATT
  .word Label_014978F1
@  #03 @142   ----------------------------------------
 .byte   PATT
  .word Label_01497902
@  #03 @143   ----------------------------------------
 .byte   PATT
  .word Label_0149790D
@  #03 @144   ----------------------------------------
 .byte   PATT
  .word Label_0149791A
@  #03 @145   ----------------------------------------
 .byte   PATT
  .word Label_01497924
@  #03 @146   ----------------------------------------
 .byte   PATT
  .word Label_0149792F
@  #03 @147   ----------------------------------------
 .byte   N96 ,Fn3 ,v044
 .byte   N96 ,An3
 .byte   W96
@  #03 @148   ----------------------------------------
 .byte   PATT
  .word Label_0149793F
@  #03 @149   ----------------------------------------
 .byte   PATT
  .word Label_0149794F
@  #03 @150   ----------------------------------------
 .byte   PATT
  .word Label_01497968
@  #03 @151   ----------------------------------------
 .byte   PATT
  .word Label_0149797B
@  #03 @152   ----------------------------------------
 .byte   PATT
  .word Label_0149798E
@  #03 @153   ----------------------------------------
 .byte   PATT
  .word Label_014979A2
@  #03 @154   ----------------------------------------
 .byte   PATT
  .word Label_014979AD
@  #03 @155   ----------------------------------------
 .byte   PATT
  .word Label_014979C2
@  #03 @156   ----------------------------------------
 .byte   PATT
  .word Label_014979D3
@  #03 @157   ----------------------------------------
 .byte   PATT
  .word Label_014979F1
@  #03 @158   ----------------------------------------
 .byte   PATT
  .word Label_01497A01
@  #03 @159   ----------------------------------------
 .byte   PATT
  .word Label_01497A11
@  #03 @160   ----------------------------------------
 .byte   PATT
  .word Label_01497A1A
@  #03 @161   ----------------------------------------
 .byte   PATT
  .word Label_01497A28
@  #03 @162   ----------------------------------------
 .byte   N96 ,Ds4 ,v044
 .byte   W96
@  #03 @163   ----------------------------------------
 .byte   PATT
  .word Label_01497A35
@  #03 @164   ----------------------------------------
 .byte   N96 ,Cn4 ,v044
 .byte   W96
@  #03 @165   ----------------------------------------
 .byte   PATT
  .word Label_01497A42
@  #03 @166   ----------------------------------------
 .byte   PATT
  .word Label_014977F4
@  #03 @167   ----------------------------------------
 .byte   PATT
  .word Label_014977FF
@  #03 @168   ----------------------------------------
 .byte   PATT
  .word Label_0149780C
@  #03 @169   ----------------------------------------
 .byte   PATT
  .word Label_01497819
@  #03 @170   ----------------------------------------
 .byte   N96 ,Cn3 ,v044
 .byte   W96
@  #03 @171   ----------------------------------------
 .byte   PATT
  .word Label_01497829
@  #03 @172   ----------------------------------------
 .byte   PATT
  .word Label_01497838
@  #03 @173   ----------------------------------------
 .byte   PATT
  .word Label_0149783F
@  #03 @174   ----------------------------------------
 .byte   PATT
  .word Label_014977F4
@  #03 @175   ----------------------------------------
 .byte   PATT
  .word Label_014977FF
@  #03 @176   ----------------------------------------
 .byte   PATT
  .word Label_0149780C
@  #03 @177   ----------------------------------------
 .byte   PATT
  .word Label_01497819
@  #03 @178   ----------------------------------------
 .byte   N96 ,Cn3 ,v044
 .byte   W96
@  #03 @179   ----------------------------------------
 .byte   PATT
  .word Label_01497829
@  #03 @180   ----------------------------------------
 .byte   PATT
  .word Label_01497864
@  #03 @181   ----------------------------------------
 .byte   PATT
  .word Label_0149786E
@  #03 @182   ----------------------------------------
 .byte   PATT
  .word Label_0149787A
@  #03 @183   ----------------------------------------
 .byte   PATT
  .word Label_0149788B
@  #03 @184   ----------------------------------------
 .byte   PATT
  .word Label_0149789E
@  #03 @185   ----------------------------------------
 .byte   PATT
  .word Label_014978AD
@  #03 @186   ----------------------------------------
 .byte   PATT
  .word Label_014978BB
@  #03 @187   ----------------------------------------
 .byte   PATT
  .word Label_014978C7
@  #03 @188   ----------------------------------------
 .byte   PATT
  .word Label_014978D3
@  #03 @189   ----------------------------------------
 .byte   PATT
  .word Label_014978E6
@  #03 @190   ----------------------------------------
 .byte   PATT
  .word Label_014978F1
@  #03 @191   ----------------------------------------
 .byte   PATT
  .word Label_01497902
@  #03 @192   ----------------------------------------
 .byte   PATT
  .word Label_0149790D
@  #03 @193   ----------------------------------------
 .byte   PATT
  .word Label_0149791A
@  #03 @194   ----------------------------------------
 .byte   PATT
  .word Label_01497924
@  #03 @195   ----------------------------------------
 .byte   PATT
  .word Label_0149792F
@  #03 @196   ----------------------------------------
 .byte   N96 ,Fn3 ,v044
 .byte   N96 ,An3
 .byte   W96
@  #03 @197   ----------------------------------------
 .byte   PATT
  .word Label_0149793F
@  #03 @198   ----------------------------------------
 .byte   PATT
  .word Label_0149794F
@  #03 @199   ----------------------------------------
 .byte   PATT
  .word Label_01497968
@  #03 @200   ----------------------------------------
 .byte   PATT
  .word Label_01497AF6
@  #03 @201   ----------------------------------------
 .byte   N96 ,Dn4 ,v044
 .byte   N96 ,Gn4
 .byte   W96
@  #03 @202   ----------------------------------------
 .byte   PATT
  .word Label_0149798E
@  #03 @203   ----------------------------------------
 .byte   PATT
  .word Label_014979A2
@  #03 @204   ----------------------------------------
 .byte   PATT
  .word Label_014979AD
@  #03 @205   ----------------------------------------
 .byte   PATT
  .word Label_014979C2
@  #03 @206   ----------------------------------------
 .byte   PATT
  .word Label_014979D3
@  #03 @207   ----------------------------------------
 .byte   PATT
  .word Label_014979F1
@  #03 @208   ----------------------------------------
 .byte   PATT
  .word Label_01497A01
@  #03 @209   ----------------------------------------
 .byte   PATT
  .word Label_01497A11
@  #03 @210   ----------------------------------------
 .byte   PATT
  .word Label_01497A1A
@  #03 @211   ----------------------------------------
 .byte   PATT
  .word Label_01497A28
@  #03 @212   ----------------------------------------
 .byte   N96 ,Ds4 ,v044
 .byte   W96
@  #03 @213   ----------------------------------------
 .byte   PATT
  .word Label_01497A35
@  #03 @214   ----------------------------------------
 .byte   N96 ,Cn4 ,v044
 .byte   W96
@  #03 @215   ----------------------------------------
 .byte   PATT
  .word Label_01497A42
@  #03 @216   ----------------------------------------
 .byte   GOTO
  .word Label_014977E2
 .byte   FINE

@**************** Track 4 (Midi-Chn.3) ****************@

MissionStreet_004:
@  #04 @000   ----------------------------------------
 .byte   KEYSH , MissionStreet_key+0
Label_01497D56:
 .byte   VOICE , 4
 .byte   MODT 0
 .byte   LFOS 44
 .byte   VOL , 127*MissionStreet_mvl/mxv
 .byte   W96
@  #04 @001   ----------------------------------------
 .byte   W96
@  #04 @002   ----------------------------------------
 .byte   N96 ,Cn3 ,v044
 .byte   N96 ,En3
 .byte   W96
@  #04 @003   ----------------------------------------
 .byte   Dn3
 .byte   N96 ,Fn3
 .byte   W96
@  #04 @004   ----------------------------------------
 .byte   Cn3
 .byte   N96 ,En3
 .byte   W96
@  #04 @005   ----------------------------------------
 .byte   Bn2
 .byte   N96 ,Dn3
 .byte   W96
@  #04 @006   ----------------------------------------
 .byte   Cn3
 .byte   N96 ,En3
 .byte   W96
@  #04 @007   ----------------------------------------
 .byte   Dn3
 .byte   N96 ,Fn3
 .byte   W96
@  #04 @008   ----------------------------------------
 .byte   Cn3
 .byte   N96 ,En3
 .byte   W96
@  #04 @009   ----------------------------------------
 .byte   Bn2
 .byte   N96 ,Dn3
 .byte   W96
@  #04 @010   ----------------------------------------
Label_01497D82:
 .byte   TIE ,Cn3 ,v044
 .byte   TIE ,En3
 .byte   W96
 .byte   PEND 
@  #04 @011   ----------------------------------------
 .byte   W12
 .byte   N12 ,Gn2
 .byte   W12
 .byte   EOT
 .byte   Cn3
 .byte   N36
 .byte   W12
 .byte   EOT
 .byte   En3
 .byte   N60
 .byte   W24
 .byte   N36 ,Cn3
 .byte   W36
@  #04 @012   ----------------------------------------
Label_01497D98:
 .byte   TIE ,Bn2 ,v044
 .byte   TIE ,Dn3
 .byte   W96
 .byte   PEND 
@  #04 @013   ----------------------------------------
 .byte   W12
 .byte   N12 ,Gs2
 .byte   W12
 .byte   EOT
 .byte   Bn2
 .byte   N48
 .byte   W12
 .byte   EOT
 .byte   Dn3
 .byte   N24
 .byte   W24
 .byte   N36
 .byte   W12
 .byte   N24 ,Bn2
 .byte   W12
 .byte   N12 ,Gs2
 .byte   W12
@  #04 @014   ----------------------------------------
Label_01497DB3:
 .byte   TIE ,An2 ,v044
 .byte   N96 ,Dn3
 .byte   W36
 .byte   N60 ,Fn3
 .byte   W60
 .byte   PEND 
@  #04 @015   ----------------------------------------
 .byte   N72 ,Cn3
 .byte   W24
 .byte   EOT
 .byte   An2
 .byte   N72
 .byte   W48
 .byte   N24 ,Cn3
 .byte   W12
 .byte   N12 ,Fn3
 .byte   W12
@  #04 @016   ----------------------------------------
Label_01497DCA:
 .byte   TIE ,Gs2 ,v044
 .byte   N36 ,Cn3
 .byte   W36
 .byte   N60
 .byte   N60 ,Fn3
 .byte   W60
 .byte   PEND 
@  #04 @017   ----------------------------------------
 .byte   N24 ,Cn3
 .byte   W12
 .byte   EOT
 .byte   Gs2
 .byte   N36
 .byte   W12
 .byte   N24 ,Cn3
 .byte   W24
 .byte   N48 ,Bn2
 .byte   N24 ,Dn3
 .byte   W24
 .byte   N24
 .byte   W12
 .byte   N12 ,Fn3
 .byte   W12
@  #04 @018   ----------------------------------------
 .byte   PATT
  .word Label_01497D82
@  #04 @019   ----------------------------------------
 .byte   W12
 .byte   N12 ,Gn2 ,v044
 .byte   W12
 .byte   EOT
 .byte   Cn3
 .byte   N36
 .byte   W12
 .byte   EOT
 .byte   En3
 .byte   N60
 .byte   W24
 .byte   N36 ,Cn3
 .byte   W36
@  #04 @020   ----------------------------------------
 .byte   PATT
  .word Label_01497D98
@  #04 @021   ----------------------------------------
 .byte   W12
 .byte   N12 ,Gs2 ,v044
 .byte   W12
 .byte   EOT
 .byte   Bn2
 .byte   N48
 .byte   W12
 .byte   EOT
 .byte   Dn3
 .byte   N24
 .byte   W24
 .byte   N36
 .byte   W12
 .byte   N24 ,Bn2
 .byte   W12
 .byte   N12 ,Gs2
 .byte   W12
@  #04 @022   ----------------------------------------
 .byte   PATT
  .word Label_01497DB3
@  #04 @023   ----------------------------------------
 .byte   N72 ,Cn3 ,v044
 .byte   W24
 .byte   EOT
 .byte   An2
 .byte   N72
 .byte   W48
 .byte   N24 ,Cn3
 .byte   W12
 .byte   N12 ,Fn3
 .byte   W12
@  #04 @024   ----------------------------------------
 .byte   PATT
  .word Label_01497DCA
@  #04 @025   ----------------------------------------
 .byte   N24 ,Cn3 ,v044
 .byte   W12
 .byte   EOT
 .byte   Gs2
 .byte   N36
 .byte   W12
 .byte   N24 ,Cn3
 .byte   W24
 .byte   N48 ,Bn2
 .byte   N24 ,Dn3
 .byte   W24
 .byte   N24
 .byte   W12
 .byte   N12 ,Fn3
 .byte   W12
@  #04 @026   ----------------------------------------
 .byte   N96 ,Cn3
 .byte   N96 ,En3
 .byte   W96
@  #04 @027   ----------------------------------------
 .byte   An2
 .byte   N96 ,Cn3
 .byte   W96
@  #04 @028   ----------------------------------------
 .byte   Bn2
 .byte   N96 ,Dn3
 .byte   W96
@  #04 @029   ----------------------------------------
 .byte   Cs3
 .byte   N96 ,En3
 .byte   W96
@  #04 @030   ----------------------------------------
 .byte   Cn3
 .byte   N96 ,En3
 .byte   W96
@  #04 @031   ----------------------------------------
 .byte   Bn2
 .byte   N96 ,Dn3
 .byte   W96
@  #04 @032   ----------------------------------------
 .byte   An2
 .byte   N96 ,Cn3
 .byte   W96
@  #04 @033   ----------------------------------------
 .byte   Bn2
 .byte   N96 ,Dn3
 .byte   W96
@  #04 @034   ----------------------------------------
 .byte   Cn3
 .byte   N96 ,En3
 .byte   W96
@  #04 @035   ----------------------------------------
 .byte   An2
 .byte   N96 ,Cn3
 .byte   W96
@  #04 @036   ----------------------------------------
 .byte   Bn2
 .byte   N96 ,Dn3
 .byte   W96
@  #04 @037   ----------------------------------------
 .byte   Cs3
 .byte   N96 ,En3
 .byte   W96
@  #04 @038   ----------------------------------------
 .byte   Cn3
 .byte   N96 ,En3
 .byte   W96
@  #04 @039   ----------------------------------------
 .byte   Bn2
 .byte   N96 ,Dn3
 .byte   W96
@  #04 @040   ----------------------------------------
 .byte   An2
 .byte   N96 ,Cn3
 .byte   W96
@  #04 @041   ----------------------------------------
 .byte   An2
 .byte   N96 ,Cn3
 .byte   W96
@  #04 @042   ----------------------------------------
 .byte   Bn2
 .byte   N96 ,Dn3
 .byte   W96
@  #04 @043   ----------------------------------------
 .byte   Bn2
 .byte   N96 ,Dn3
 .byte   W96
@  #04 @044   ----------------------------------------
 .byte   W96
@  #04 @045   ----------------------------------------
 .byte   Cn3
 .byte   N96 ,En3
 .byte   W96
@  #04 @046   ----------------------------------------
 .byte   Cn3
 .byte   N96 ,En3
 .byte   W96
@  #04 @047   ----------------------------------------
 .byte   As2
 .byte   N96 ,Dn3
 .byte   W96
@  #04 @048   ----------------------------------------
 .byte   As2
 .byte   N96 ,Dn3
 .byte   W96
@  #04 @049   ----------------------------------------
 .byte   Cn3
 .byte   N96 ,En3
 .byte   W96
@  #04 @050   ----------------------------------------
 .byte   Cn3
 .byte   N96 ,En3
 .byte   W96
@  #04 @051   ----------------------------------------
 .byte   As2
 .byte   N96 ,Dn3
 .byte   W96
@  #04 @052   ----------------------------------------
 .byte   Cs3
 .byte   N96 ,En3
 .byte   W96
@  #04 @053   ----------------------------------------
 .byte   Cn3
 .byte   N96 ,En3
 .byte   W96
@  #04 @054   ----------------------------------------
 .byte   Cn3
 .byte   N96 ,En3
 .byte   W96
@  #04 @055   ----------------------------------------
 .byte   Cn3
 .byte   N96 ,Ds3
 .byte   W96
@  #04 @056   ----------------------------------------
 .byte   Dn3
 .byte   N96 ,Fn3
 .byte   W96
@  #04 @057   ----------------------------------------
 .byte   Cn3
 .byte   N96 ,En3
 .byte   W96
@  #04 @058   ----------------------------------------
 .byte   W96
@  #04 @059   ----------------------------------------
 .byte   PATT
  .word Label_01497D82
@  #04 @060   ----------------------------------------
 .byte   W12
 .byte   N12 ,Gn2 ,v044
 .byte   W12
 .byte   EOT
 .byte   Cn3
 .byte   N36
 .byte   W12
 .byte   EOT
 .byte   En3
 .byte   N60
 .byte   W24
 .byte   N36 ,Cn3
 .byte   W36
@  #04 @061   ----------------------------------------
 .byte   PATT
  .word Label_01497D98
@  #04 @062   ----------------------------------------
 .byte   W12
 .byte   N12 ,Gs2 ,v044
 .byte   W12
 .byte   EOT
 .byte   Bn2
 .byte   N48
 .byte   W12
 .byte   EOT
 .byte   Dn3
 .byte   N24
 .byte   W24
 .byte   N36
 .byte   W12
 .byte   N24 ,Bn2
 .byte   W12
 .byte   N12 ,Gs2
 .byte   W12
@  #04 @063   ----------------------------------------
 .byte   PATT
  .word Label_01497DB3
@  #04 @064   ----------------------------------------
 .byte   N72 ,Cn3 ,v044
 .byte   W24
 .byte   EOT
 .byte   An2
 .byte   N72
 .byte   W48
 .byte   N24 ,Cn3
 .byte   W12
 .byte   N12 ,Fn3
 .byte   W12
@  #04 @065   ----------------------------------------
 .byte   PATT
  .word Label_01497DCA
@  #04 @066   ----------------------------------------
 .byte   N24 ,Cn3 ,v044
 .byte   W12
 .byte   EOT
 .byte   Gs2
 .byte   N36
 .byte   W12
 .byte   N24 ,Cn3
 .byte   W24
 .byte   N48 ,Bn2
 .byte   N24 ,Dn3
 .byte   W24
 .byte   N24
 .byte   W12
 .byte   N12 ,Fn3
 .byte   W12
@  #04 @067   ----------------------------------------
 .byte   PATT
  .word Label_01497D82
@  #04 @068   ----------------------------------------
 .byte   W12
 .byte   N12 ,Gn2 ,v044
 .byte   W12
 .byte   EOT
 .byte   Cn3
 .byte   N36
 .byte   W12
 .byte   EOT
 .byte   En3
 .byte   N60
 .byte   W24
 .byte   N36 ,Cn3
 .byte   W36
@  #04 @069   ----------------------------------------
 .byte   PATT
  .word Label_01497D98
@  #04 @070   ----------------------------------------
 .byte   W12
 .byte   N12 ,Gs2 ,v044
 .byte   W12
 .byte   EOT
 .byte   Bn2
 .byte   N48
 .byte   W12
 .byte   EOT
 .byte   Dn3
 .byte   N24
 .byte   W24
 .byte   N36
 .byte   W12
 .byte   N24 ,Bn2
 .byte   W12
 .byte   N12 ,Gs2
 .byte   W12
@  #04 @071   ----------------------------------------
 .byte   PATT
  .word Label_01497DB3
@  #04 @072   ----------------------------------------
 .byte   N72 ,Cn3 ,v044
 .byte   W24
 .byte   EOT
 .byte   An2
 .byte   N72
 .byte   W48
 .byte   N24 ,Cn3
 .byte   W12
 .byte   N12 ,Fn3
 .byte   W12
@  #04 @073   ----------------------------------------
 .byte   PATT
  .word Label_01497DCA
@  #04 @074   ----------------------------------------
 .byte   N24 ,Cn3 ,v044
 .byte   W12
 .byte   EOT
 .byte   Gs2
 .byte   N36
 .byte   W12
 .byte   N24 ,Cn3
 .byte   W24
 .byte   N48 ,Bn2
 .byte   N24 ,Dn3
 .byte   W24
 .byte   N24
 .byte   W12
 .byte   N12 ,Fn3
 .byte   W12
@  #04 @075   ----------------------------------------
 .byte   N96 ,Cn3
 .byte   N96 ,En3
 .byte   W96
@  #04 @076   ----------------------------------------
 .byte   An2
 .byte   N96 ,Cn3
 .byte   W96
@  #04 @077   ----------------------------------------
 .byte   Bn2
 .byte   N96 ,Dn3
 .byte   W96
@  #04 @078   ----------------------------------------
 .byte   Cs3
 .byte   N96 ,En3
 .byte   W96
@  #04 @079   ----------------------------------------
 .byte   Cn3
 .byte   N96 ,En3
 .byte   W96
@  #04 @080   ----------------------------------------
 .byte   Bn2
 .byte   N96 ,Dn3
 .byte   W96
@  #04 @081   ----------------------------------------
 .byte   An2
 .byte   N96 ,Cn3
 .byte   W96
@  #04 @082   ----------------------------------------
 .byte   Bn2
 .byte   N96 ,Dn3
 .byte   W96
@  #04 @083   ----------------------------------------
 .byte   Cn3
 .byte   N96 ,En3
 .byte   W96
@  #04 @084   ----------------------------------------
 .byte   An2
 .byte   N96 ,Cn3
 .byte   W96
@  #04 @085   ----------------------------------------
 .byte   Bn2
 .byte   N96 ,Dn3
 .byte   W96
@  #04 @086   ----------------------------------------
 .byte   Cs3
 .byte   N96 ,En3
 .byte   W96
@  #04 @087   ----------------------------------------
 .byte   Cn3
 .byte   N96 ,En3
 .byte   W96
@  #04 @088   ----------------------------------------
 .byte   Bn2
 .byte   N96 ,Dn3
 .byte   W96
@  #04 @089   ----------------------------------------
 .byte   An2
 .byte   N96 ,Cn3
 .byte   W96
@  #04 @090   ----------------------------------------
 .byte   An2
 .byte   N96 ,Cn3
 .byte   W96
@  #04 @091   ----------------------------------------
 .byte   Bn2
 .byte   N96 ,Dn3
 .byte   W96
@  #04 @092   ----------------------------------------
 .byte   Bn2
 .byte   N96 ,Dn3
 .byte   W96
@  #04 @093   ----------------------------------------
 .byte   W96
@  #04 @094   ----------------------------------------
 .byte   W96
@  #04 @095   ----------------------------------------
 .byte   Cn3
 .byte   N96 ,En3
 .byte   W96
@  #04 @096   ----------------------------------------
 .byte   Cn3
 .byte   N96 ,En3
 .byte   W96
@  #04 @097   ----------------------------------------
 .byte   As2
 .byte   N96 ,Dn3
 .byte   W96
@  #04 @098   ----------------------------------------
 .byte   As2
 .byte   N96 ,Dn3
 .byte   W96
@  #04 @099   ----------------------------------------
 .byte   Cn3
 .byte   N96 ,En3
 .byte   W96
@  #04 @100   ----------------------------------------
 .byte   Cn3
 .byte   N96 ,En3
 .byte   W96
@  #04 @101   ----------------------------------------
 .byte   As2
 .byte   N96 ,Dn3
 .byte   W96
@  #04 @102   ----------------------------------------
 .byte   Cs3
 .byte   N96 ,En3
 .byte   W96
@  #04 @103   ----------------------------------------
 .byte   Cn3
 .byte   N96 ,En3
 .byte   W96
@  #04 @104   ----------------------------------------
 .byte   Cn3
 .byte   N96 ,En3
 .byte   W96
@  #04 @105   ----------------------------------------
 .byte   Cn3
 .byte   N96 ,Ds3
 .byte   W96
@  #04 @106   ----------------------------------------
 .byte   Dn3
 .byte   N96 ,Fn3
 .byte   W96
@  #04 @107   ----------------------------------------
 .byte   Cn3
 .byte   N96 ,En3
 .byte   W96
@  #04 @108   ----------------------------------------
 .byte   W96
@  #04 @109   ----------------------------------------
 .byte   Cn3
 .byte   N96 ,En3
 .byte   W96
@  #04 @110   ----------------------------------------
 .byte   Dn3
 .byte   N96 ,Fn3
 .byte   W96
@  #04 @111   ----------------------------------------
 .byte   Cn3
 .byte   N96 ,En3
 .byte   W96
@  #04 @112   ----------------------------------------
 .byte   Bn2
 .byte   N96 ,Dn3
 .byte   W96
@  #04 @113   ----------------------------------------
 .byte   Cn3
 .byte   N96 ,En3
 .byte   W96
@  #04 @114   ----------------------------------------
 .byte   Dn3
 .byte   N96 ,Fn3
 .byte   W96
@  #04 @115   ----------------------------------------
 .byte   Cn3
 .byte   N96 ,En3
 .byte   W96
@  #04 @116   ----------------------------------------
 .byte   Bn2
 .byte   N96 ,Dn3
 .byte   W96
@  #04 @117   ----------------------------------------
 .byte   PATT
  .word Label_01497D82
@  #04 @118   ----------------------------------------
 .byte   W12
 .byte   N12 ,Gn2 ,v044
 .byte   W12
 .byte   EOT
 .byte   Cn3
 .byte   N36
 .byte   W12
 .byte   EOT
 .byte   En3
 .byte   N60
 .byte   W24
 .byte   N36 ,Cn3
 .byte   W36
@  #04 @119   ----------------------------------------
 .byte   PATT
  .word Label_01497D98
@  #04 @120   ----------------------------------------
 .byte   W12
 .byte   N12 ,Gs2 ,v044
 .byte   W12
 .byte   EOT
 .byte   Bn2
 .byte   N48
 .byte   W12
 .byte   EOT
 .byte   Dn3
 .byte   N24
 .byte   W24
 .byte   N36
 .byte   W12
 .byte   N24 ,Bn2
 .byte   W12
 .byte   N12 ,Gs2
 .byte   W12
@  #04 @121   ----------------------------------------
 .byte   PATT
  .word Label_01497DB3
@  #04 @122   ----------------------------------------
 .byte   N72 ,Cn3 ,v044
 .byte   W24
 .byte   EOT
 .byte   An2
 .byte   N72
 .byte   W48
 .byte   N24 ,Cn3
 .byte   W12
 .byte   N12 ,Fn3
 .byte   W12
@  #04 @123   ----------------------------------------
 .byte   PATT
  .word Label_01497DCA
@  #04 @124   ----------------------------------------
 .byte   N24 ,Cn3 ,v044
 .byte   W12
 .byte   EOT
 .byte   Gs2
 .byte   N36
 .byte   W12
 .byte   N24 ,Cn3
 .byte   W24
 .byte   N48 ,Bn2
 .byte   N24 ,Dn3
 .byte   W24
 .byte   N24
 .byte   W12
 .byte   N12 ,Fn3
 .byte   W12
@  #04 @125   ----------------------------------------
 .byte   PATT
  .word Label_01497D82
@  #04 @126   ----------------------------------------
 .byte   W12
 .byte   N12 ,Gn2 ,v044
 .byte   W12
 .byte   EOT
 .byte   Cn3
 .byte   N36
 .byte   W12
 .byte   EOT
 .byte   En3
 .byte   N60
 .byte   W24
 .byte   N36 ,Cn3
 .byte   W36
@  #04 @127   ----------------------------------------
 .byte   PATT
  .word Label_01497D98
@  #04 @128   ----------------------------------------
 .byte   W12
 .byte   N12 ,Gs2 ,v044
 .byte   W12
 .byte   EOT
 .byte   Bn2
 .byte   N48
 .byte   W12
 .byte   EOT
 .byte   Dn3
 .byte   N24
 .byte   W24
 .byte   N36
 .byte   W12
 .byte   N24 ,Bn2
 .byte   W12
 .byte   N12 ,Gs2
 .byte   W12
@  #04 @129   ----------------------------------------
 .byte   PATT
  .word Label_01497DB3
@  #04 @130   ----------------------------------------
 .byte   N72 ,Cn3 ,v044
 .byte   W24
 .byte   EOT
 .byte   An2
 .byte   N72
 .byte   W48
 .byte   N24 ,Cn3
 .byte   W12
 .byte   N12 ,Fn3
 .byte   W12
@  #04 @131   ----------------------------------------
 .byte   PATT
  .word Label_01497DCA
@  #04 @132   ----------------------------------------
 .byte   N24 ,Cn3 ,v044
 .byte   W12
 .byte   EOT
 .byte   Gs2
 .byte   N36
 .byte   W12
 .byte   N24 ,Cn3
 .byte   W24
 .byte   N48 ,Bn2
 .byte   N24 ,Dn3
 .byte   W24
 .byte   N24
 .byte   W12
 .byte   N12 ,Fn3
 .byte   W12
@  #04 @133   ----------------------------------------
 .byte   N96 ,Cn3
 .byte   N96 ,En3
 .byte   W96
@  #04 @134   ----------------------------------------
 .byte   An2
 .byte   N96 ,Cn3
 .byte   W96
@  #04 @135   ----------------------------------------
 .byte   Bn2
 .byte   N96 ,Dn3
 .byte   W96
@  #04 @136   ----------------------------------------
 .byte   Cs3
 .byte   N96 ,En3
 .byte   W96
@  #04 @137   ----------------------------------------
 .byte   Cn3
 .byte   N96 ,En3
 .byte   W96
@  #04 @138   ----------------------------------------
 .byte   Bn2
 .byte   N96 ,Dn3
 .byte   W96
@  #04 @139   ----------------------------------------
 .byte   An2
 .byte   N96 ,Cn3
 .byte   W96
@  #04 @140   ----------------------------------------
 .byte   Bn2
 .byte   N96 ,Dn3
 .byte   W96
@  #04 @141   ----------------------------------------
 .byte   Cn3
 .byte   N96 ,En3
 .byte   W96
@  #04 @142   ----------------------------------------
 .byte   An2
 .byte   N96 ,Cn3
 .byte   W96
@  #04 @143   ----------------------------------------
 .byte   Bn2
 .byte   N96 ,Dn3
 .byte   W96
@  #04 @144   ----------------------------------------
 .byte   Cs3
 .byte   N96 ,En3
 .byte   W96
@  #04 @145   ----------------------------------------
 .byte   Cn3
 .byte   N96 ,En3
 .byte   W96
@  #04 @146   ----------------------------------------
 .byte   Bn2
 .byte   N96 ,Dn3
 .byte   W96
@  #04 @147   ----------------------------------------
 .byte   An2
 .byte   N96 ,Cn3
 .byte   W96
@  #04 @148   ----------------------------------------
 .byte   An2
 .byte   N96 ,Cn3
 .byte   W96
@  #04 @149   ----------------------------------------
 .byte   Bn2
 .byte   N96 ,Dn3
 .byte   W96
@  #04 @150   ----------------------------------------
 .byte   Bn2
 .byte   N96 ,Dn3
 .byte   W96
@  #04 @151   ----------------------------------------
 .byte   W96
@  #04 @152   ----------------------------------------
 .byte   Cn3
 .byte   N96 ,En3
 .byte   W96
@  #04 @153   ----------------------------------------
 .byte   Cn3
 .byte   N96 ,En3
 .byte   W96
@  #04 @154   ----------------------------------------
 .byte   As2
 .byte   N96 ,Dn3
 .byte   W96
@  #04 @155   ----------------------------------------
 .byte   As2
 .byte   N96 ,Dn3
 .byte   W96
@  #04 @156   ----------------------------------------
 .byte   Cn3
 .byte   N96 ,En3
 .byte   W96
@  #04 @157   ----------------------------------------
 .byte   Cn3
 .byte   N96 ,En3
 .byte   W96
@  #04 @158   ----------------------------------------
 .byte   As2
 .byte   N96 ,Dn3
 .byte   W96
@  #04 @159   ----------------------------------------
 .byte   Cs3
 .byte   N96 ,En3
 .byte   W96
@  #04 @160   ----------------------------------------
 .byte   Cn3
 .byte   N96 ,En3
 .byte   W96
@  #04 @161   ----------------------------------------
 .byte   Cn3
 .byte   N96 ,En3
 .byte   W96
@  #04 @162   ----------------------------------------
 .byte   Cn3
 .byte   N96 ,Ds3
 .byte   W96
@  #04 @163   ----------------------------------------
 .byte   Dn3
 .byte   N96 ,Fn3
 .byte   W96
@  #04 @164   ----------------------------------------
 .byte   Cn3
 .byte   N96 ,En3
 .byte   W96
@  #04 @165   ----------------------------------------
 .byte   W96
@  #04 @166   ----------------------------------------
 .byte   PATT
  .word Label_01497D82
@  #04 @167   ----------------------------------------
 .byte   W12
 .byte   N12 ,Gn2 ,v044
 .byte   W12
 .byte   EOT
 .byte   Cn3
 .byte   N36
 .byte   W12
 .byte   EOT
 .byte   En3
 .byte   N60
 .byte   W24
 .byte   N36 ,Cn3
 .byte   W36
@  #04 @168   ----------------------------------------
 .byte   PATT
  .word Label_01497D98
@  #04 @169   ----------------------------------------
 .byte   W12
 .byte   N12 ,Gs2 ,v044
 .byte   W12
 .byte   EOT
 .byte   Bn2
 .byte   N48
 .byte   W12
 .byte   EOT
 .byte   Dn3
 .byte   N24
 .byte   W24
 .byte   N36
 .byte   W12
 .byte   N24 ,Bn2
 .byte   W12
 .byte   N12 ,Gs2
 .byte   W12
@  #04 @170   ----------------------------------------
 .byte   PATT
  .word Label_01497DB3
@  #04 @171   ----------------------------------------
 .byte   N72 ,Cn3 ,v044
 .byte   W24
 .byte   EOT
 .byte   An2
 .byte   N72
 .byte   W48
 .byte   N24 ,Cn3
 .byte   W12
 .byte   N12 ,Fn3
 .byte   W12
@  #04 @172   ----------------------------------------
 .byte   PATT
  .word Label_01497DCA
@  #04 @173   ----------------------------------------
 .byte   N24 ,Cn3 ,v044
 .byte   W12
 .byte   EOT
 .byte   Gs2
 .byte   N36
 .byte   W12
 .byte   N24 ,Cn3
 .byte   W24
 .byte   N48 ,Bn2
 .byte   N24 ,Dn3
 .byte   W24
 .byte   N24
 .byte   W12
 .byte   N12 ,Fn3
 .byte   W12
@  #04 @174   ----------------------------------------
 .byte   PATT
  .word Label_01497D82
@  #04 @175   ----------------------------------------
 .byte   W12
 .byte   N12 ,Gn2 ,v044
 .byte   W12
 .byte   EOT
 .byte   Cn3
 .byte   N36
 .byte   W12
 .byte   EOT
 .byte   En3
 .byte   N60
 .byte   W24
 .byte   N36 ,Cn3
 .byte   W36
@  #04 @176   ----------------------------------------
 .byte   PATT
  .word Label_01497D98
@  #04 @177   ----------------------------------------
 .byte   W12
 .byte   N12 ,Gs2 ,v044
 .byte   W12
 .byte   EOT
 .byte   Bn2
 .byte   N48
 .byte   W12
 .byte   EOT
 .byte   Dn3
 .byte   N24
 .byte   W24
 .byte   N36
 .byte   W12
 .byte   N24 ,Bn2
 .byte   W12
 .byte   N12 ,Gs2
 .byte   W12
@  #04 @178   ----------------------------------------
 .byte   PATT
  .word Label_01497DB3
@  #04 @179   ----------------------------------------
 .byte   N72 ,Cn3 ,v044
 .byte   W24
 .byte   EOT
 .byte   An2
 .byte   N72
 .byte   W48
 .byte   N24 ,Cn3
 .byte   W12
 .byte   N12 ,Fn3
 .byte   W12
@  #04 @180   ----------------------------------------
 .byte   PATT
  .word Label_01497DCA
@  #04 @181   ----------------------------------------
 .byte   N24 ,Cn3 ,v044
 .byte   W12
 .byte   EOT
 .byte   Gs2
 .byte   N36
 .byte   W12
 .byte   N24 ,Cn3
 .byte   W24
 .byte   N48 ,Bn2
 .byte   N24 ,Dn3
 .byte   W24
 .byte   N24
 .byte   W12
 .byte   N12 ,Fn3
 .byte   W12
@  #04 @182   ----------------------------------------
 .byte   N96 ,Cn3
 .byte   N96 ,En3
 .byte   W96
@  #04 @183   ----------------------------------------
 .byte   An2
 .byte   N96 ,Cn3
 .byte   W96
@  #04 @184   ----------------------------------------
 .byte   Bn2
 .byte   N96 ,Dn3
 .byte   W96
@  #04 @185   ----------------------------------------
 .byte   Cs3
 .byte   N96 ,En3
 .byte   W96
@  #04 @186   ----------------------------------------
 .byte   Cn3
 .byte   N96 ,En3
 .byte   W96
@  #04 @187   ----------------------------------------
 .byte   Bn2
 .byte   N96 ,Dn3
 .byte   W96
@  #04 @188   ----------------------------------------
 .byte   An2
 .byte   N96 ,Cn3
 .byte   W96
@  #04 @189   ----------------------------------------
 .byte   Bn2
 .byte   N96 ,Dn3
 .byte   W96
@  #04 @190   ----------------------------------------
 .byte   Cn3
 .byte   N96 ,En3
 .byte   W96
@  #04 @191   ----------------------------------------
 .byte   An2
 .byte   N96 ,Cn3
 .byte   W96
@  #04 @192   ----------------------------------------
 .byte   Bn2
 .byte   N96 ,Dn3
 .byte   W96
@  #04 @193   ----------------------------------------
 .byte   Cs3
 .byte   N96 ,En3
 .byte   W96
@  #04 @194   ----------------------------------------
 .byte   Cn3
 .byte   N96 ,En3
 .byte   W96
@  #04 @195   ----------------------------------------
 .byte   Bn2
 .byte   N96 ,Dn3
 .byte   W96
@  #04 @196   ----------------------------------------
 .byte   An2
 .byte   N96 ,Cn3
 .byte   W96
@  #04 @197   ----------------------------------------
 .byte   An2
 .byte   N96 ,Cn3
 .byte   W96
@  #04 @198   ----------------------------------------
 .byte   Bn2
 .byte   N96 ,Dn3
 .byte   W96
@  #04 @199   ----------------------------------------
 .byte   Bn2
 .byte   N96 ,Dn3
 .byte   W96
@  #04 @200   ----------------------------------------
 .byte   W96
@  #04 @201   ----------------------------------------
 .byte   W96
@  #04 @202   ----------------------------------------
 .byte   Cn3
 .byte   N96 ,En3
 .byte   W96
@  #04 @203   ----------------------------------------
 .byte   Cn3
 .byte   N96 ,En3
 .byte   W96
@  #04 @204   ----------------------------------------
 .byte   As2
 .byte   N96 ,Dn3
 .byte   W96
@  #04 @205   ----------------------------------------
 .byte   As2
 .byte   N96 ,Dn3
 .byte   W96
@  #04 @206   ----------------------------------------
 .byte   Cn3
 .byte   N96 ,En3
 .byte   W96
@  #04 @207   ----------------------------------------
 .byte   Cn3
 .byte   N96 ,En3
 .byte   W96
@  #04 @208   ----------------------------------------
 .byte   As2
 .byte   N96 ,Dn3
 .byte   W96
@  #04 @209   ----------------------------------------
 .byte   Cs3
 .byte   N96 ,En3
 .byte   W96
@  #04 @210   ----------------------------------------
 .byte   Cn3
 .byte   N96 ,En3
 .byte   W96
@  #04 @211   ----------------------------------------
 .byte   Cn3
 .byte   N96 ,En3
 .byte   W96
@  #04 @212   ----------------------------------------
 .byte   Cn3
 .byte   N96 ,Ds3
 .byte   W96
@  #04 @213   ----------------------------------------
 .byte   Dn3
 .byte   N96 ,Fn3
 .byte   W96
@  #04 @214   ----------------------------------------
 .byte   Cn3
 .byte   N96 ,En3
 .byte   W96
@  #04 @215   ----------------------------------------
 .byte   W96
@  #04 @216   ----------------------------------------
 .byte   GOTO
  .word Label_01497D56
 .byte   FINE

@**************** Track 5 (Midi-Chn.4) ****************@

MissionStreet_005:
@  #05 @000   ----------------------------------------
 .byte   KEYSH , MissionStreet_key+0
Label_01498296:
 .byte   VOICE , 18
 .byte   MODT 0
 .byte   LFOS 44
 .byte   VOL , 117*MissionStreet_mvl/mxv
 .byte   W96
@  #05 @001   ----------------------------------------
 .byte   W96
@  #05 @002   ----------------------------------------
 .byte   W96
@  #05 @003   ----------------------------------------
 .byte   W96
@  #05 @004   ----------------------------------------
 .byte   W96
@  #05 @005   ----------------------------------------
 .byte   W96
@  #05 @006   ----------------------------------------
 .byte   W96
@  #05 @007   ----------------------------------------
 .byte   W96
@  #05 @008   ----------------------------------------
 .byte   W96
@  #05 @009   ----------------------------------------
 .byte   W96
@  #05 @010   ----------------------------------------
 .byte   W96
@  #05 @011   ----------------------------------------
 .byte   W96
@  #05 @012   ----------------------------------------
 .byte   W96
@  #05 @013   ----------------------------------------
 .byte   W96
@  #05 @014   ----------------------------------------
 .byte   W96
@  #05 @015   ----------------------------------------
 .byte   W96
@  #05 @016   ----------------------------------------
 .byte   W96
@  #05 @017   ----------------------------------------
 .byte   W96
@  #05 @018   ----------------------------------------
 .byte   W96
@  #05 @019   ----------------------------------------
 .byte   W96
@  #05 @020   ----------------------------------------
 .byte   W96
@  #05 @021   ----------------------------------------
 .byte   W96
@  #05 @022   ----------------------------------------
 .byte   W96
@  #05 @023   ----------------------------------------
 .byte   W96
@  #05 @024   ----------------------------------------
 .byte   W96
@  #05 @025   ----------------------------------------
 .byte   W96
@  #05 @026   ----------------------------------------
 .byte   N96 ,En4 ,v044
 .byte   W96
@  #05 @027   ----------------------------------------
Label_014982BC:
 .byte   N36 ,Cn4 ,v044
 .byte   W36
 .byte   Bn3
 .byte   W36
 .byte   N24 ,An3
 .byte   W24
 .byte   PEND 
@  #05 @028   ----------------------------------------
 .byte   N96 ,En4
 .byte   W96
@  #05 @029   ----------------------------------------
 .byte   Cs4
 .byte   W96
@  #05 @030   ----------------------------------------
Label_014982CB:
 .byte   N48 ,An3 ,v044
 .byte   W48
 .byte   Cn4
 .byte   W48
 .byte   PEND 
@  #05 @031   ----------------------------------------
Label_014982D2:
 .byte   N48 ,Bn3 ,v044
 .byte   W48
 .byte   Dn4
 .byte   W48
 .byte   PEND 
@  #05 @032   ----------------------------------------
 .byte   N96 ,En4
 .byte   W96
@  #05 @033   ----------------------------------------
 .byte   Dn4
 .byte   W96
@  #05 @034   ----------------------------------------
 .byte   En4
 .byte   W96
@  #05 @035   ----------------------------------------
 .byte   PATT
  .word Label_014982BC
@  #05 @036   ----------------------------------------
 .byte   N96 ,En4 ,v044
 .byte   W96
@  #05 @037   ----------------------------------------
 .byte   Cs4
 .byte   W96
@  #05 @038   ----------------------------------------
 .byte   PATT
  .word Label_014982CB
@  #05 @039   ----------------------------------------
 .byte   PATT
  .word Label_014982D2
@  #05 @040   ----------------------------------------
 .byte   N96 ,En4 ,v044
 .byte   W96
@  #05 @041   ----------------------------------------
 .byte   PATT
  .word Label_014982BC
@  #05 @042   ----------------------------------------
 .byte   N96 ,Dn4 ,v044
 .byte   W96
@  #05 @043   ----------------------------------------
 .byte   Bn3
 .byte   W96
@  #05 @044   ----------------------------------------
 .byte   W96
@  #05 @045   ----------------------------------------
 .byte   W96
@  #05 @046   ----------------------------------------
 .byte   W96
@  #05 @047   ----------------------------------------
 .byte   W96
@  #05 @048   ----------------------------------------
 .byte   W96
@  #05 @049   ----------------------------------------
 .byte   W96
@  #05 @050   ----------------------------------------
 .byte   W96
@  #05 @051   ----------------------------------------
 .byte   W96
@  #05 @052   ----------------------------------------
 .byte   W96
@  #05 @053   ----------------------------------------
 .byte   W96
@  #05 @054   ----------------------------------------
 .byte   W96
@  #05 @055   ----------------------------------------
 .byte   W96
@  #05 @056   ----------------------------------------
 .byte   W96
@  #05 @057   ----------------------------------------
 .byte   W96
@  #05 @058   ----------------------------------------
 .byte   W96
@  #05 @059   ----------------------------------------
 .byte   W96
@  #05 @060   ----------------------------------------
 .byte   W96
@  #05 @061   ----------------------------------------
 .byte   W96
@  #05 @062   ----------------------------------------
 .byte   W96
@  #05 @063   ----------------------------------------
 .byte   W96
@  #05 @064   ----------------------------------------
 .byte   W96
@  #05 @065   ----------------------------------------
 .byte   W96
@  #05 @066   ----------------------------------------
 .byte   W96
@  #05 @067   ----------------------------------------
 .byte   W96
@  #05 @068   ----------------------------------------
 .byte   W96
@  #05 @069   ----------------------------------------
 .byte   W96
@  #05 @070   ----------------------------------------
 .byte   W96
@  #05 @071   ----------------------------------------
 .byte   W96
@  #05 @072   ----------------------------------------
 .byte   W96
@  #05 @073   ----------------------------------------
 .byte   W96
@  #05 @074   ----------------------------------------
 .byte   W96
@  #05 @075   ----------------------------------------
 .byte   En4
 .byte   W96
@  #05 @076   ----------------------------------------
 .byte   PATT
  .word Label_014982BC
@  #05 @077   ----------------------------------------
 .byte   N96 ,En4 ,v044
 .byte   W96
@  #05 @078   ----------------------------------------
 .byte   Cs4
 .byte   W96
@  #05 @079   ----------------------------------------
 .byte   PATT
  .word Label_014982CB
@  #05 @080   ----------------------------------------
 .byte   PATT
  .word Label_014982D2
@  #05 @081   ----------------------------------------
 .byte   N96 ,En4 ,v044
 .byte   W96
@  #05 @082   ----------------------------------------
 .byte   Dn4
 .byte   W96
@  #05 @083   ----------------------------------------
 .byte   En4
 .byte   W96
@  #05 @084   ----------------------------------------
 .byte   PATT
  .word Label_014982BC
@  #05 @085   ----------------------------------------
 .byte   N96 ,En4 ,v044
 .byte   W96
@  #05 @086   ----------------------------------------
 .byte   Cs4
 .byte   W96
@  #05 @087   ----------------------------------------
 .byte   PATT
  .word Label_014982CB
@  #05 @088   ----------------------------------------
 .byte   PATT
  .word Label_014982D2
@  #05 @089   ----------------------------------------
 .byte   N96 ,En4 ,v044
 .byte   W96
@  #05 @090   ----------------------------------------
 .byte   PATT
  .word Label_014982BC
@  #05 @091   ----------------------------------------
 .byte   N96 ,Dn4 ,v044
 .byte   W96
@  #05 @092   ----------------------------------------
 .byte   Bn3
 .byte   W96
@  #05 @093   ----------------------------------------
 .byte   W96
@  #05 @094   ----------------------------------------
 .byte   W96
@  #05 @095   ----------------------------------------
 .byte   W96
@  #05 @096   ----------------------------------------
 .byte   W96
@  #05 @097   ----------------------------------------
 .byte   W96
@  #05 @098   ----------------------------------------
 .byte   W96
@  #05 @099   ----------------------------------------
 .byte   W96
@  #05 @100   ----------------------------------------
 .byte   W96
@  #05 @101   ----------------------------------------
 .byte   W96
@  #05 @102   ----------------------------------------
 .byte   W96
@  #05 @103   ----------------------------------------
 .byte   W96
@  #05 @104   ----------------------------------------
 .byte   W96
@  #05 @105   ----------------------------------------
 .byte   W96
@  #05 @106   ----------------------------------------
 .byte   W96
@  #05 @107   ----------------------------------------
 .byte   W96
@  #05 @108   ----------------------------------------
 .byte   W96
@  #05 @109   ----------------------------------------
 .byte   W96
@  #05 @110   ----------------------------------------
 .byte   W96
@  #05 @111   ----------------------------------------
 .byte   W96
@  #05 @112   ----------------------------------------
 .byte   W96
@  #05 @113   ----------------------------------------
 .byte   W96
@  #05 @114   ----------------------------------------
 .byte   W96
@  #05 @115   ----------------------------------------
 .byte   W96
@  #05 @116   ----------------------------------------
 .byte   W96
@  #05 @117   ----------------------------------------
 .byte   W96
@  #05 @118   ----------------------------------------
 .byte   W96
@  #05 @119   ----------------------------------------
 .byte   W96
@  #05 @120   ----------------------------------------
 .byte   W96
@  #05 @121   ----------------------------------------
 .byte   W96
@  #05 @122   ----------------------------------------
 .byte   W96
@  #05 @123   ----------------------------------------
 .byte   W96
@  #05 @124   ----------------------------------------
 .byte   W96
@  #05 @125   ----------------------------------------
 .byte   W96
@  #05 @126   ----------------------------------------
 .byte   W96
@  #05 @127   ----------------------------------------
 .byte   W96
@  #05 @128   ----------------------------------------
 .byte   W96
@  #05 @129   ----------------------------------------
 .byte   W96
@  #05 @130   ----------------------------------------
 .byte   W96
@  #05 @131   ----------------------------------------
 .byte   W96
@  #05 @132   ----------------------------------------
 .byte   W96
@  #05 @133   ----------------------------------------
 .byte   En4
 .byte   W96
@  #05 @134   ----------------------------------------
 .byte   PATT
  .word Label_014982BC
@  #05 @135   ----------------------------------------
 .byte   N96 ,En4 ,v044
 .byte   W96
@  #05 @136   ----------------------------------------
 .byte   Cs4
 .byte   W96
@  #05 @137   ----------------------------------------
 .byte   PATT
  .word Label_014982CB
@  #05 @138   ----------------------------------------
 .byte   PATT
  .word Label_014982D2
@  #05 @139   ----------------------------------------
 .byte   N96 ,En4 ,v044
 .byte   W96
@  #05 @140   ----------------------------------------
 .byte   Dn4
 .byte   W96
@  #05 @141   ----------------------------------------
 .byte   En4
 .byte   W96
@  #05 @142   ----------------------------------------
 .byte   PATT
  .word Label_014982BC
@  #05 @143   ----------------------------------------
 .byte   N96 ,En4 ,v044
 .byte   W96
@  #05 @144   ----------------------------------------
 .byte   Cs4
 .byte   W96
@  #05 @145   ----------------------------------------
 .byte   PATT
  .word Label_014982CB
@  #05 @146   ----------------------------------------
 .byte   PATT
  .word Label_014982D2
@  #05 @147   ----------------------------------------
 .byte   N96 ,En4 ,v044
 .byte   W96
@  #05 @148   ----------------------------------------
 .byte   PATT
  .word Label_014982BC
@  #05 @149   ----------------------------------------
 .byte   N96 ,Dn4 ,v044
 .byte   W96
@  #05 @150   ----------------------------------------
 .byte   Bn3
 .byte   W96
@  #05 @151   ----------------------------------------
 .byte   W96
@  #05 @152   ----------------------------------------
 .byte   W96
@  #05 @153   ----------------------------------------
 .byte   W96
@  #05 @154   ----------------------------------------
 .byte   W96
@  #05 @155   ----------------------------------------
 .byte   W96
@  #05 @156   ----------------------------------------
 .byte   W96
@  #05 @157   ----------------------------------------
 .byte   W96
@  #05 @158   ----------------------------------------
 .byte   W96
@  #05 @159   ----------------------------------------
 .byte   W96
@  #05 @160   ----------------------------------------
 .byte   W96
@  #05 @161   ----------------------------------------
 .byte   W96
@  #05 @162   ----------------------------------------
 .byte   W96
@  #05 @163   ----------------------------------------
 .byte   W96
@  #05 @164   ----------------------------------------
 .byte   W96
@  #05 @165   ----------------------------------------
 .byte   W96
@  #05 @166   ----------------------------------------
 .byte   W96
@  #05 @167   ----------------------------------------
 .byte   W96
@  #05 @168   ----------------------------------------
 .byte   W96
@  #05 @169   ----------------------------------------
 .byte   W96
@  #05 @170   ----------------------------------------
 .byte   W96
@  #05 @171   ----------------------------------------
 .byte   W96
@  #05 @172   ----------------------------------------
 .byte   W96
@  #05 @173   ----------------------------------------
 .byte   W96
@  #05 @174   ----------------------------------------
 .byte   W96
@  #05 @175   ----------------------------------------
 .byte   W96
@  #05 @176   ----------------------------------------
 .byte   W96
@  #05 @177   ----------------------------------------
 .byte   W96
@  #05 @178   ----------------------------------------
 .byte   W96
@  #05 @179   ----------------------------------------
 .byte   W96
@  #05 @180   ----------------------------------------
 .byte   W96
@  #05 @181   ----------------------------------------
 .byte   W96
@  #05 @182   ----------------------------------------
 .byte   En4
 .byte   W96
@  #05 @183   ----------------------------------------
 .byte   PATT
  .word Label_014982BC
@  #05 @184   ----------------------------------------
 .byte   N96 ,En4 ,v044
 .byte   W96
@  #05 @185   ----------------------------------------
 .byte   Cs4
 .byte   W96
@  #05 @186   ----------------------------------------
 .byte   PATT
  .word Label_014982CB
@  #05 @187   ----------------------------------------
 .byte   PATT
  .word Label_014982D2
@  #05 @188   ----------------------------------------
 .byte   N96 ,En4 ,v044
 .byte   W96
@  #05 @189   ----------------------------------------
 .byte   Dn4
 .byte   W96
@  #05 @190   ----------------------------------------
 .byte   En4
 .byte   W96
@  #05 @191   ----------------------------------------
 .byte   PATT
  .word Label_014982BC
@  #05 @192   ----------------------------------------
 .byte   N96 ,En4 ,v044
 .byte   W96
@  #05 @193   ----------------------------------------
 .byte   Cs4
 .byte   W96
@  #05 @194   ----------------------------------------
 .byte   PATT
  .word Label_014982CB
@  #05 @195   ----------------------------------------
 .byte   PATT
  .word Label_014982D2
@  #05 @196   ----------------------------------------
 .byte   N96 ,En4 ,v044
 .byte   W96
@  #05 @197   ----------------------------------------
 .byte   PATT
  .word Label_014982BC
@  #05 @198   ----------------------------------------
 .byte   N96 ,Dn4 ,v044
 .byte   W96
@  #05 @199   ----------------------------------------
 .byte   Bn3
 .byte   W96
@  #05 @200   ----------------------------------------
 .byte   W96
@  #05 @201   ----------------------------------------
 .byte   W96
@  #05 @202   ----------------------------------------
 .byte   W96
@  #05 @203   ----------------------------------------
 .byte   W96
@  #05 @204   ----------------------------------------
 .byte   W96
@  #05 @205   ----------------------------------------
 .byte   W96
@  #05 @206   ----------------------------------------
 .byte   W96
@  #05 @207   ----------------------------------------
 .byte   W96
@  #05 @208   ----------------------------------------
 .byte   W96
@  #05 @209   ----------------------------------------
 .byte   W96
@  #05 @210   ----------------------------------------
 .byte   W96
@  #05 @211   ----------------------------------------
 .byte   W96
@  #05 @212   ----------------------------------------
 .byte   W96
@  #05 @213   ----------------------------------------
 .byte   W96
@  #05 @214   ----------------------------------------
 .byte   W96
@  #05 @215   ----------------------------------------
 .byte   W96
@  #05 @216   ----------------------------------------
 .byte   GOTO
  .word Label_01498296
 .byte   FINE

@**************** Track 6 (Midi-Chn.5) ****************@

MissionStreet_006:
@  #06 @000   ----------------------------------------
 .byte   KEYSH , MissionStreet_key+0
Label_0149844E:
 .byte   VOICE , 52
 .byte   MODT 0
 .byte   LFOS 44
 .byte   VOL , 78*MissionStreet_mvl/mxv
 .byte   W96
@  #06 @001   ----------------------------------------
 .byte   W96
@  #06 @002   ----------------------------------------
 .byte   W96
@  #06 @003   ----------------------------------------
 .byte   W96
@  #06 @004   ----------------------------------------
 .byte   W96
@  #06 @005   ----------------------------------------
 .byte   W96
@  #06 @006   ----------------------------------------
 .byte   W96
@  #06 @007   ----------------------------------------
 .byte   W96
@  #06 @008   ----------------------------------------
 .byte   W96
@  #06 @009   ----------------------------------------
 .byte   W96
@  #06 @010   ----------------------------------------
 .byte   W96
@  #06 @011   ----------------------------------------
 .byte   W96
@  #06 @012   ----------------------------------------
 .byte   W96
@  #06 @013   ----------------------------------------
 .byte   W96
@  #06 @014   ----------------------------------------
 .byte   W96
@  #06 @015   ----------------------------------------
 .byte   W96
@  #06 @016   ----------------------------------------
 .byte   W96
@  #06 @017   ----------------------------------------
 .byte   W96
@  #06 @018   ----------------------------------------
 .byte   W96
@  #06 @019   ----------------------------------------
 .byte   W96
@  #06 @020   ----------------------------------------
 .byte   W96
@  #06 @021   ----------------------------------------
 .byte   W96
@  #06 @022   ----------------------------------------
 .byte   W96
@  #06 @023   ----------------------------------------
 .byte   W96
@  #06 @024   ----------------------------------------
 .byte   W96
@  #06 @025   ----------------------------------------
 .byte   W96
@  #06 @026   ----------------------------------------
 .byte   N96 ,En4 ,v044
 .byte   W96
@  #06 @027   ----------------------------------------
Label_01498474:
 .byte   N36 ,Cn4 ,v044
 .byte   W36
 .byte   Bn3
 .byte   W36
 .byte   N24 ,An3
 .byte   W24
 .byte   PEND 
@  #06 @028   ----------------------------------------
 .byte   N96 ,En4
 .byte   W96
@  #06 @029   ----------------------------------------
 .byte   Cs4
 .byte   W96
@  #06 @030   ----------------------------------------
Label_01498483:
 .byte   N48 ,An3 ,v044
 .byte   W48
 .byte   Cn4
 .byte   W48
 .byte   PEND 
@  #06 @031   ----------------------------------------
Label_0149848A:
 .byte   N48 ,Bn3 ,v044
 .byte   W48
 .byte   Dn4
 .byte   W48
 .byte   PEND 
@  #06 @032   ----------------------------------------
 .byte   N96 ,En4
 .byte   W96
@  #06 @033   ----------------------------------------
 .byte   Dn4
 .byte   W96
@  #06 @034   ----------------------------------------
 .byte   En4
 .byte   W96
@  #06 @035   ----------------------------------------
 .byte   PATT
  .word Label_01498474
@  #06 @036   ----------------------------------------
 .byte   N96 ,En4 ,v044
 .byte   W96
@  #06 @037   ----------------------------------------
 .byte   Cs4
 .byte   W96
@  #06 @038   ----------------------------------------
 .byte   PATT
  .word Label_01498483
@  #06 @039   ----------------------------------------
 .byte   PATT
  .word Label_0149848A
@  #06 @040   ----------------------------------------
 .byte   N96 ,En4 ,v044
 .byte   W96
@  #06 @041   ----------------------------------------
 .byte   W96
@  #06 @042   ----------------------------------------
 .byte   Dn4
 .byte   W96
@  #06 @043   ----------------------------------------
 .byte   Bn3
 .byte   W96
@  #06 @044   ----------------------------------------
 .byte   W96
@  #06 @045   ----------------------------------------
 .byte   W96
@  #06 @046   ----------------------------------------
 .byte   W96
@  #06 @047   ----------------------------------------
 .byte   W96
@  #06 @048   ----------------------------------------
 .byte   W96
@  #06 @049   ----------------------------------------
 .byte   W96
@  #06 @050   ----------------------------------------
 .byte   W96
@  #06 @051   ----------------------------------------
 .byte   W96
@  #06 @052   ----------------------------------------
 .byte   W96
@  #06 @053   ----------------------------------------
 .byte   W96
@  #06 @054   ----------------------------------------
 .byte   W96
@  #06 @055   ----------------------------------------
 .byte   W96
@  #06 @056   ----------------------------------------
 .byte   W96
@  #06 @057   ----------------------------------------
 .byte   W96
@  #06 @058   ----------------------------------------
 .byte   W96
@  #06 @059   ----------------------------------------
 .byte   W96
@  #06 @060   ----------------------------------------
 .byte   W96
@  #06 @061   ----------------------------------------
 .byte   W96
@  #06 @062   ----------------------------------------
 .byte   W96
@  #06 @063   ----------------------------------------
 .byte   W96
@  #06 @064   ----------------------------------------
 .byte   W96
@  #06 @065   ----------------------------------------
 .byte   W96
@  #06 @066   ----------------------------------------
 .byte   W96
@  #06 @067   ----------------------------------------
 .byte   W96
@  #06 @068   ----------------------------------------
 .byte   W96
@  #06 @069   ----------------------------------------
 .byte   W96
@  #06 @070   ----------------------------------------
 .byte   W96
@  #06 @071   ----------------------------------------
 .byte   W96
@  #06 @072   ----------------------------------------
 .byte   W96
@  #06 @073   ----------------------------------------
 .byte   W96
@  #06 @074   ----------------------------------------
 .byte   W96
@  #06 @075   ----------------------------------------
 .byte   En4
 .byte   W96
@  #06 @076   ----------------------------------------
 .byte   PATT
  .word Label_01498474
@  #06 @077   ----------------------------------------
 .byte   N96 ,En4 ,v044
 .byte   W96
@  #06 @078   ----------------------------------------
 .byte   Cs4
 .byte   W96
@  #06 @079   ----------------------------------------
 .byte   PATT
  .word Label_01498483
@  #06 @080   ----------------------------------------
 .byte   PATT
  .word Label_0149848A
@  #06 @081   ----------------------------------------
 .byte   N96 ,En4 ,v044
 .byte   W96
@  #06 @082   ----------------------------------------
 .byte   Dn4
 .byte   W96
@  #06 @083   ----------------------------------------
 .byte   En4
 .byte   W96
@  #06 @084   ----------------------------------------
 .byte   PATT
  .word Label_01498474
@  #06 @085   ----------------------------------------
 .byte   N96 ,En4 ,v044
 .byte   W96
@  #06 @086   ----------------------------------------
 .byte   Cs4
 .byte   W96
@  #06 @087   ----------------------------------------
 .byte   PATT
  .word Label_01498483
@  #06 @088   ----------------------------------------
 .byte   PATT
  .word Label_0149848A
@  #06 @089   ----------------------------------------
 .byte   N96 ,En4 ,v044
 .byte   W96
@  #06 @090   ----------------------------------------
 .byte   W96
@  #06 @091   ----------------------------------------
 .byte   Dn4
 .byte   W96
@  #06 @092   ----------------------------------------
 .byte   Bn3
 .byte   W96
@  #06 @093   ----------------------------------------
 .byte   W96
@  #06 @094   ----------------------------------------
 .byte   W96
@  #06 @095   ----------------------------------------
 .byte   W96
@  #06 @096   ----------------------------------------
 .byte   W96
@  #06 @097   ----------------------------------------
 .byte   W96
@  #06 @098   ----------------------------------------
 .byte   W96
@  #06 @099   ----------------------------------------
 .byte   W96
@  #06 @100   ----------------------------------------
 .byte   W96
@  #06 @101   ----------------------------------------
 .byte   W96
@  #06 @102   ----------------------------------------
 .byte   W96
@  #06 @103   ----------------------------------------
 .byte   W96
@  #06 @104   ----------------------------------------
 .byte   W96
@  #06 @105   ----------------------------------------
 .byte   W96
@  #06 @106   ----------------------------------------
 .byte   W96
@  #06 @107   ----------------------------------------
 .byte   W96
@  #06 @108   ----------------------------------------
 .byte   W96
@  #06 @109   ----------------------------------------
 .byte   W96
@  #06 @110   ----------------------------------------
 .byte   W96
@  #06 @111   ----------------------------------------
 .byte   W96
@  #06 @112   ----------------------------------------
 .byte   W96
@  #06 @113   ----------------------------------------
 .byte   W96
@  #06 @114   ----------------------------------------
 .byte   W96
@  #06 @115   ----------------------------------------
 .byte   W96
@  #06 @116   ----------------------------------------
 .byte   W96
@  #06 @117   ----------------------------------------
 .byte   W96
@  #06 @118   ----------------------------------------
 .byte   W96
@  #06 @119   ----------------------------------------
 .byte   W96
@  #06 @120   ----------------------------------------
 .byte   W96
@  #06 @121   ----------------------------------------
 .byte   W96
@  #06 @122   ----------------------------------------
 .byte   W96
@  #06 @123   ----------------------------------------
 .byte   W96
@  #06 @124   ----------------------------------------
 .byte   W96
@  #06 @125   ----------------------------------------
 .byte   W96
@  #06 @126   ----------------------------------------
 .byte   W96
@  #06 @127   ----------------------------------------
 .byte   W96
@  #06 @128   ----------------------------------------
 .byte   W96
@  #06 @129   ----------------------------------------
 .byte   W96
@  #06 @130   ----------------------------------------
 .byte   W96
@  #06 @131   ----------------------------------------
 .byte   W96
@  #06 @132   ----------------------------------------
 .byte   W96
@  #06 @133   ----------------------------------------
 .byte   En4
 .byte   W96
@  #06 @134   ----------------------------------------
 .byte   PATT
  .word Label_01498474
@  #06 @135   ----------------------------------------
 .byte   N96 ,En4 ,v044
 .byte   W96
@  #06 @136   ----------------------------------------
 .byte   Cs4
 .byte   W96
@  #06 @137   ----------------------------------------
 .byte   PATT
  .word Label_01498483
@  #06 @138   ----------------------------------------
 .byte   PATT
  .word Label_0149848A
@  #06 @139   ----------------------------------------
 .byte   N96 ,En4 ,v044
 .byte   W96
@  #06 @140   ----------------------------------------
 .byte   Dn4
 .byte   W96
@  #06 @141   ----------------------------------------
 .byte   En4
 .byte   W96
@  #06 @142   ----------------------------------------
 .byte   PATT
  .word Label_01498474
@  #06 @143   ----------------------------------------
 .byte   N96 ,En4 ,v044
 .byte   W96
@  #06 @144   ----------------------------------------
 .byte   Cs4
 .byte   W96
@  #06 @145   ----------------------------------------
 .byte   PATT
  .word Label_01498483
@  #06 @146   ----------------------------------------
 .byte   PATT
  .word Label_0149848A
@  #06 @147   ----------------------------------------
 .byte   N96 ,En4 ,v044
 .byte   W96
@  #06 @148   ----------------------------------------
 .byte   W96
@  #06 @149   ----------------------------------------
 .byte   Dn4
 .byte   W96
@  #06 @150   ----------------------------------------
 .byte   Bn3
 .byte   W96
@  #06 @151   ----------------------------------------
 .byte   W96
@  #06 @152   ----------------------------------------
 .byte   W96
@  #06 @153   ----------------------------------------
 .byte   W96
@  #06 @154   ----------------------------------------
 .byte   W96
@  #06 @155   ----------------------------------------
 .byte   W96
@  #06 @156   ----------------------------------------
 .byte   W96
@  #06 @157   ----------------------------------------
 .byte   W96
@  #06 @158   ----------------------------------------
 .byte   W96
@  #06 @159   ----------------------------------------
 .byte   W96
@  #06 @160   ----------------------------------------
 .byte   W96
@  #06 @161   ----------------------------------------
 .byte   W96
@  #06 @162   ----------------------------------------
 .byte   W96
@  #06 @163   ----------------------------------------
 .byte   W96
@  #06 @164   ----------------------------------------
 .byte   W96
@  #06 @165   ----------------------------------------
 .byte   W96
@  #06 @166   ----------------------------------------
 .byte   W96
@  #06 @167   ----------------------------------------
 .byte   W96
@  #06 @168   ----------------------------------------
 .byte   W96
@  #06 @169   ----------------------------------------
 .byte   W96
@  #06 @170   ----------------------------------------
 .byte   W96
@  #06 @171   ----------------------------------------
 .byte   W96
@  #06 @172   ----------------------------------------
 .byte   W96
@  #06 @173   ----------------------------------------
 .byte   W96
@  #06 @174   ----------------------------------------
 .byte   W96
@  #06 @175   ----------------------------------------
 .byte   W96
@  #06 @176   ----------------------------------------
 .byte   W96
@  #06 @177   ----------------------------------------
 .byte   W96
@  #06 @178   ----------------------------------------
 .byte   W96
@  #06 @179   ----------------------------------------
 .byte   W96
@  #06 @180   ----------------------------------------
 .byte   W96
@  #06 @181   ----------------------------------------
 .byte   W96
@  #06 @182   ----------------------------------------
 .byte   En4
 .byte   W96
@  #06 @183   ----------------------------------------
 .byte   PATT
  .word Label_01498474
@  #06 @184   ----------------------------------------
 .byte   N96 ,En4 ,v044
 .byte   W96
@  #06 @185   ----------------------------------------
 .byte   Cs4
 .byte   W96
@  #06 @186   ----------------------------------------
 .byte   PATT
  .word Label_01498483
@  #06 @187   ----------------------------------------
 .byte   PATT
  .word Label_0149848A
@  #06 @188   ----------------------------------------
 .byte   N96 ,En4 ,v044
 .byte   W96
@  #06 @189   ----------------------------------------
 .byte   Dn4
 .byte   W96
@  #06 @190   ----------------------------------------
 .byte   En4
 .byte   W96
@  #06 @191   ----------------------------------------
 .byte   PATT
  .word Label_01498474
@  #06 @192   ----------------------------------------
 .byte   N96 ,En4 ,v044
 .byte   W96
@  #06 @193   ----------------------------------------
 .byte   Cs4
 .byte   W96
@  #06 @194   ----------------------------------------
 .byte   PATT
  .word Label_01498483
@  #06 @195   ----------------------------------------
 .byte   PATT
  .word Label_0149848A
@  #06 @196   ----------------------------------------
 .byte   N96 ,En4 ,v044
 .byte   W96
@  #06 @197   ----------------------------------------
 .byte   W96
@  #06 @198   ----------------------------------------
 .byte   Dn4
 .byte   W96
@  #06 @199   ----------------------------------------
 .byte   Bn3
 .byte   W96
@  #06 @200   ----------------------------------------
 .byte   W96
@  #06 @201   ----------------------------------------
 .byte   W96
@  #06 @202   ----------------------------------------
 .byte   W96
@  #06 @203   ----------------------------------------
 .byte   W96
@  #06 @204   ----------------------------------------
 .byte   W96
@  #06 @205   ----------------------------------------
 .byte   W96
@  #06 @206   ----------------------------------------
 .byte   W96
@  #06 @207   ----------------------------------------
 .byte   W96
@  #06 @208   ----------------------------------------
 .byte   W96
@  #06 @209   ----------------------------------------
 .byte   W96
@  #06 @210   ----------------------------------------
 .byte   W96
@  #06 @211   ----------------------------------------
 .byte   W96
@  #06 @212   ----------------------------------------
 .byte   W96
@  #06 @213   ----------------------------------------
 .byte   W96
@  #06 @214   ----------------------------------------
 .byte   W96
@  #06 @215   ----------------------------------------
 .byte   W96
@  #06 @216   ----------------------------------------
 .byte   GOTO
  .word Label_0149844E
 .byte   FINE

@**************** Track 7 (Midi-Chn.6) ****************@

MissionStreet_007:
@  #07 @000   ----------------------------------------
 .byte   KEYSH , MissionStreet_key+0
Label_014985EE:
 .byte   VOICE , 14
 .byte   MODT 0
 .byte   LFOS 44
 .byte   VOL , 127*MissionStreet_mvl/mxv
 .byte   W96
@  #07 @001   ----------------------------------------
 .byte   W96
@  #07 @002   ----------------------------------------
 .byte   W96
@  #07 @003   ----------------------------------------
 .byte   W96
@  #07 @004   ----------------------------------------
 .byte   W96
@  #07 @005   ----------------------------------------
 .byte   W96
@  #07 @006   ----------------------------------------
 .byte   W96
@  #07 @007   ----------------------------------------
 .byte   W96
@  #07 @008   ----------------------------------------
 .byte   W96
@  #07 @009   ----------------------------------------
 .byte   W96
@  #07 @010   ----------------------------------------
 .byte   W96
@  #07 @011   ----------------------------------------
 .byte   W96
@  #07 @012   ----------------------------------------
 .byte   W96
@  #07 @013   ----------------------------------------
 .byte   W96
@  #07 @014   ----------------------------------------
 .byte   W96
@  #07 @015   ----------------------------------------
 .byte   W96
@  #07 @016   ----------------------------------------
 .byte   W96
@  #07 @017   ----------------------------------------
 .byte   W96
@  #07 @018   ----------------------------------------
 .byte   W96
@  #07 @019   ----------------------------------------
 .byte   W96
@  #07 @020   ----------------------------------------
 .byte   W96
@  #07 @021   ----------------------------------------
 .byte   W96
@  #07 @022   ----------------------------------------
 .byte   W96
@  #07 @023   ----------------------------------------
 .byte   W96
@  #07 @024   ----------------------------------------
 .byte   W96
@  #07 @025   ----------------------------------------
 .byte   W96
@  #07 @026   ----------------------------------------
 .byte   W96
@  #07 @027   ----------------------------------------
 .byte   W96
@  #07 @028   ----------------------------------------
 .byte   W96
@  #07 @029   ----------------------------------------
 .byte   W96
@  #07 @030   ----------------------------------------
Label_01498614:
 .byte   N48 ,An3 ,v044
 .byte   W48
 .byte   Cn4
 .byte   W48
 .byte   PEND 
@  #07 @031   ----------------------------------------
Label_0149861B:
 .byte   N48 ,Bn3 ,v044
 .byte   W48
 .byte   Dn4
 .byte   W48
 .byte   PEND 
@  #07 @032   ----------------------------------------
 .byte   En4
 .byte   W96
@  #07 @033   ----------------------------------------
 .byte   W96
@  #07 @034   ----------------------------------------
 .byte   W96
@  #07 @035   ----------------------------------------
 .byte   W96
@  #07 @036   ----------------------------------------
 .byte   W96
@  #07 @037   ----------------------------------------
 .byte   W96
@  #07 @038   ----------------------------------------
 .byte   PATT
  .word Label_01498614
@  #07 @039   ----------------------------------------
 .byte   PATT
  .word Label_0149861B
@  #07 @040   ----------------------------------------
 .byte   N48 ,En4 ,v044
 .byte   W96
@  #07 @041   ----------------------------------------
 .byte   W96
@  #07 @042   ----------------------------------------
 .byte   W96
@  #07 @043   ----------------------------------------
 .byte   W96
@  #07 @044   ----------------------------------------
 .byte   W96
@  #07 @045   ----------------------------------------
 .byte   W96
@  #07 @046   ----------------------------------------
Label_0149863C:
 .byte   N36 ,En4 ,v044
 .byte   W36
 .byte   Fn4
 .byte   W36
 .byte   N24 ,Gn4
 .byte   W24
 .byte   PEND 
@  #07 @047   ----------------------------------------
 .byte   W96
@  #07 @048   ----------------------------------------
 .byte   PATT
  .word Label_0149863C
@  #07 @049   ----------------------------------------
 .byte   W96
@  #07 @050   ----------------------------------------
 .byte   PATT
  .word Label_0149863C
@  #07 @051   ----------------------------------------
 .byte   W96
@  #07 @052   ----------------------------------------
 .byte   W96
@  #07 @053   ----------------------------------------
 .byte   W96
@  #07 @054   ----------------------------------------
 .byte   W96
@  #07 @055   ----------------------------------------
Label_01498656:
 .byte   N48 ,Cn4 ,v044
 .byte   W48
 .byte   Ds4
 .byte   W48
 .byte   PEND 
@  #07 @056   ----------------------------------------
Label_0149865D:
 .byte   N48 ,Dn4 ,v044
 .byte   W48
 .byte   Fn4
 .byte   W48
 .byte   PEND 
@  #07 @057   ----------------------------------------
 .byte   N96 ,En4
 .byte   W96
@  #07 @058   ----------------------------------------
 .byte   W96
@  #07 @059   ----------------------------------------
 .byte   W96
@  #07 @060   ----------------------------------------
 .byte   W96
@  #07 @061   ----------------------------------------
 .byte   W96
@  #07 @062   ----------------------------------------
 .byte   W96
@  #07 @063   ----------------------------------------
 .byte   W96
@  #07 @064   ----------------------------------------
 .byte   W96
@  #07 @065   ----------------------------------------
 .byte   W96
@  #07 @066   ----------------------------------------
 .byte   W96
@  #07 @067   ----------------------------------------
 .byte   W96
@  #07 @068   ----------------------------------------
 .byte   W96
@  #07 @069   ----------------------------------------
 .byte   W96
@  #07 @070   ----------------------------------------
 .byte   W96
@  #07 @071   ----------------------------------------
 .byte   W96
@  #07 @072   ----------------------------------------
 .byte   W96
@  #07 @073   ----------------------------------------
 .byte   W96
@  #07 @074   ----------------------------------------
 .byte   W96
@  #07 @075   ----------------------------------------
 .byte   W96
@  #07 @076   ----------------------------------------
 .byte   W96
@  #07 @077   ----------------------------------------
 .byte   W96
@  #07 @078   ----------------------------------------
 .byte   W96
@  #07 @079   ----------------------------------------
 .byte   PATT
  .word Label_01498614
@  #07 @080   ----------------------------------------
 .byte   PATT
  .word Label_0149861B
@  #07 @081   ----------------------------------------
 .byte   N48 ,En4 ,v044
 .byte   W96
@  #07 @082   ----------------------------------------
 .byte   W96
@  #07 @083   ----------------------------------------
 .byte   W96
@  #07 @084   ----------------------------------------
 .byte   W96
@  #07 @085   ----------------------------------------
 .byte   W96
@  #07 @086   ----------------------------------------
 .byte   W96
@  #07 @087   ----------------------------------------
 .byte   PATT
  .word Label_01498614
@  #07 @088   ----------------------------------------
 .byte   PATT
  .word Label_0149861B
@  #07 @089   ----------------------------------------
 .byte   N48 ,En4 ,v044
 .byte   W96
@  #07 @090   ----------------------------------------
 .byte   W96
@  #07 @091   ----------------------------------------
 .byte   W96
@  #07 @092   ----------------------------------------
 .byte   W96
@  #07 @093   ----------------------------------------
 .byte   W96
@  #07 @094   ----------------------------------------
 .byte   W96
@  #07 @095   ----------------------------------------
 .byte   W96
@  #07 @096   ----------------------------------------
 .byte   PATT
  .word Label_0149863C
@  #07 @097   ----------------------------------------
 .byte   W96
@  #07 @098   ----------------------------------------
 .byte   PATT
  .word Label_0149863C
@  #07 @099   ----------------------------------------
 .byte   W96
@  #07 @100   ----------------------------------------
 .byte   PATT
  .word Label_0149863C
@  #07 @101   ----------------------------------------
 .byte   W96
@  #07 @102   ----------------------------------------
 .byte   W96
@  #07 @103   ----------------------------------------
 .byte   W96
@  #07 @104   ----------------------------------------
 .byte   W96
@  #07 @105   ----------------------------------------
 .byte   PATT
  .word Label_01498656
@  #07 @106   ----------------------------------------
 .byte   PATT
  .word Label_0149865D
@  #07 @107   ----------------------------------------
 .byte   N96 ,En4 ,v044
 .byte   W96
@  #07 @108   ----------------------------------------
 .byte   W96
@  #07 @109   ----------------------------------------
 .byte   W96
@  #07 @110   ----------------------------------------
 .byte   W96
@  #07 @111   ----------------------------------------
 .byte   W96
@  #07 @112   ----------------------------------------
 .byte   W96
@  #07 @113   ----------------------------------------
 .byte   W96
@  #07 @114   ----------------------------------------
 .byte   W96
@  #07 @115   ----------------------------------------
 .byte   W96
@  #07 @116   ----------------------------------------
 .byte   W96
@  #07 @117   ----------------------------------------
 .byte   W96
@  #07 @118   ----------------------------------------
 .byte   W96
@  #07 @119   ----------------------------------------
 .byte   W96
@  #07 @120   ----------------------------------------
 .byte   W96
@  #07 @121   ----------------------------------------
 .byte   W96
@  #07 @122   ----------------------------------------
 .byte   W96
@  #07 @123   ----------------------------------------
 .byte   W96
@  #07 @124   ----------------------------------------
 .byte   W96
@  #07 @125   ----------------------------------------
 .byte   W96
@  #07 @126   ----------------------------------------
 .byte   W96
@  #07 @127   ----------------------------------------
 .byte   W96
@  #07 @128   ----------------------------------------
 .byte   W96
@  #07 @129   ----------------------------------------
 .byte   W96
@  #07 @130   ----------------------------------------
 .byte   W96
@  #07 @131   ----------------------------------------
 .byte   W96
@  #07 @132   ----------------------------------------
 .byte   W96
@  #07 @133   ----------------------------------------
 .byte   W96
@  #07 @134   ----------------------------------------
 .byte   W96
@  #07 @135   ----------------------------------------
 .byte   W96
@  #07 @136   ----------------------------------------
 .byte   W96
@  #07 @137   ----------------------------------------
 .byte   PATT
  .word Label_01498614
@  #07 @138   ----------------------------------------
 .byte   PATT
  .word Label_0149861B
@  #07 @139   ----------------------------------------
 .byte   N48 ,En4 ,v044
 .byte   W96
@  #07 @140   ----------------------------------------
 .byte   W96
@  #07 @141   ----------------------------------------
 .byte   W96
@  #07 @142   ----------------------------------------
 .byte   W96
@  #07 @143   ----------------------------------------
 .byte   W96
@  #07 @144   ----------------------------------------
 .byte   W96
@  #07 @145   ----------------------------------------
 .byte   PATT
  .word Label_01498614
@  #07 @146   ----------------------------------------
 .byte   PATT
  .word Label_0149861B
@  #07 @147   ----------------------------------------
 .byte   N48 ,En4 ,v044
 .byte   W96
@  #07 @148   ----------------------------------------
 .byte   W96
@  #07 @149   ----------------------------------------
 .byte   W96
@  #07 @150   ----------------------------------------
 .byte   W96
@  #07 @151   ----------------------------------------
 .byte   W96
@  #07 @152   ----------------------------------------
 .byte   W96
@  #07 @153   ----------------------------------------
 .byte   PATT
  .word Label_0149863C
@  #07 @154   ----------------------------------------
 .byte   W96
@  #07 @155   ----------------------------------------
 .byte   PATT
  .word Label_0149863C
@  #07 @156   ----------------------------------------
 .byte   W96
@  #07 @157   ----------------------------------------
 .byte   PATT
  .word Label_0149863C
@  #07 @158   ----------------------------------------
 .byte   W96
@  #07 @159   ----------------------------------------
 .byte   W96
@  #07 @160   ----------------------------------------
 .byte   W96
@  #07 @161   ----------------------------------------
 .byte   W96
@  #07 @162   ----------------------------------------
 .byte   PATT
  .word Label_01498656
@  #07 @163   ----------------------------------------
 .byte   PATT
  .word Label_0149865D
@  #07 @164   ----------------------------------------
 .byte   N96 ,En4 ,v044
 .byte   W96
@  #07 @165   ----------------------------------------
 .byte   W96
@  #07 @166   ----------------------------------------
 .byte   W96
@  #07 @167   ----------------------------------------
 .byte   W96
@  #07 @168   ----------------------------------------
 .byte   W96
@  #07 @169   ----------------------------------------
 .byte   W96
@  #07 @170   ----------------------------------------
 .byte   W96
@  #07 @171   ----------------------------------------
 .byte   W96
@  #07 @172   ----------------------------------------
 .byte   W96
@  #07 @173   ----------------------------------------
 .byte   W96
@  #07 @174   ----------------------------------------
 .byte   W96
@  #07 @175   ----------------------------------------
 .byte   W96
@  #07 @176   ----------------------------------------
 .byte   W96
@  #07 @177   ----------------------------------------
 .byte   W96
@  #07 @178   ----------------------------------------
 .byte   W96
@  #07 @179   ----------------------------------------
 .byte   W96
@  #07 @180   ----------------------------------------
 .byte   W96
@  #07 @181   ----------------------------------------
 .byte   W96
@  #07 @182   ----------------------------------------
 .byte   W96
@  #07 @183   ----------------------------------------
 .byte   W96
@  #07 @184   ----------------------------------------
 .byte   W96
@  #07 @185   ----------------------------------------
 .byte   W96
@  #07 @186   ----------------------------------------
 .byte   PATT
  .word Label_01498614
@  #07 @187   ----------------------------------------
 .byte   PATT
  .word Label_0149861B
@  #07 @188   ----------------------------------------
 .byte   N48 ,En4 ,v044
 .byte   W96
@  #07 @189   ----------------------------------------
 .byte   W96
@  #07 @190   ----------------------------------------
 .byte   W96
@  #07 @191   ----------------------------------------
 .byte   W96
@  #07 @192   ----------------------------------------
 .byte   W96
@  #07 @193   ----------------------------------------
 .byte   W96
@  #07 @194   ----------------------------------------
 .byte   PATT
  .word Label_01498614
@  #07 @195   ----------------------------------------
 .byte   PATT
  .word Label_0149861B
@  #07 @196   ----------------------------------------
 .byte   N48 ,En4 ,v044
 .byte   W96
@  #07 @197   ----------------------------------------
 .byte   W96
@  #07 @198   ----------------------------------------
 .byte   W96
@  #07 @199   ----------------------------------------
 .byte   W96
@  #07 @200   ----------------------------------------
 .byte   W96
@  #07 @201   ----------------------------------------
 .byte   W96
@  #07 @202   ----------------------------------------
 .byte   W96
@  #07 @203   ----------------------------------------
 .byte   PATT
  .word Label_0149863C
@  #07 @204   ----------------------------------------
 .byte   W96
@  #07 @205   ----------------------------------------
 .byte   PATT
  .word Label_0149863C
@  #07 @206   ----------------------------------------
 .byte   W96
@  #07 @207   ----------------------------------------
 .byte   PATT
  .word Label_0149863C
@  #07 @208   ----------------------------------------
 .byte   W96
@  #07 @209   ----------------------------------------
 .byte   W96
@  #07 @210   ----------------------------------------
 .byte   W96
@  #07 @211   ----------------------------------------
 .byte   W96
@  #07 @212   ----------------------------------------
 .byte   PATT
  .word Label_01498656
@  #07 @213   ----------------------------------------
 .byte   PATT
  .word Label_0149865D
@  #07 @214   ----------------------------------------
 .byte   N96 ,En4 ,v044
 .byte   W96
@  #07 @215   ----------------------------------------
 .byte   W96
@  #07 @216   ----------------------------------------
 .byte   GOTO
  .word Label_014985EE
 .byte   FINE

@**************** Track 8 (Midi-Chn.7) ****************@

MissionStreet_008:
@  #08 @000   ----------------------------------------
 .byte   KEYSH , MissionStreet_key+0
Label_01498796:
 .byte   VOICE , 127
 .byte   MODT 0
 .byte   LFOS 44
 .byte   VOL , 85*MissionStreet_mvl/mxv
 .byte   N06 ,Cn1 ,v044
 .byte   W24
 .byte   N06
 .byte   W24
 .byte   N06
 .byte   W24
 .byte   N06
 .byte   W24
@  #08 @001   ----------------------------------------
 .byte   N06
 .byte   N06 ,Dn1
 .byte   N06 ,En1
 .byte   N06 ,Dn2
 .byte   W12
 .byte   Dn1
 .byte   N06 ,En1
 .byte   N06 ,Dn2
 .byte   W06
 .byte   Dn1
 .byte   N06 ,En1
 .byte   N06 ,Dn2
 .byte   W06
 .byte   Cn1
 .byte   N06 ,Dn1
 .byte   N06 ,En1
 .byte   N06 ,Cn2
 .byte   W12
 .byte   Dn1
 .byte   N06 ,En1
 .byte   N06 ,Cn2
 .byte   W12
 .byte   Cn1
 .byte   N06 ,Dn1
 .byte   N06 ,En1
 .byte   N06 ,An1
 .byte   W12
 .byte   Dn1
 .byte   N06 ,En1
 .byte   N06 ,An1
 .byte   W12
 .byte   Cn1
 .byte   N06 ,Dn1
 .byte   N06 ,En1
 .byte   N06 ,Dn2
 .byte   W12
 .byte   An1
 .byte   W12
@  #08 @002   ----------------------------------------
Label_014987E2:
 .byte   N06 ,Cn1 ,v044
 .byte   N24 ,As1
 .byte   N24 ,Cs2
 .byte   W24
 .byte   N06 ,Dn1
 .byte   N06 ,En1
 .byte   N24 ,As1
 .byte   W12
 .byte   N06 ,Cn1
 .byte   W12
 .byte   N06
 .byte   N24 ,As1
 .byte   W12
 .byte   N06 ,Cn1
 .byte   W12
 .byte   Dn1
 .byte   N06 ,En1
 .byte   N24 ,As1
 .byte   W12
 .byte   N06 ,Cn1
 .byte   W12
 .byte   PEND 
@  #08 @003   ----------------------------------------
Label_01498805:
 .byte   N24 ,As1 ,v044
 .byte   W12
 .byte   N06 ,Cn1
 .byte   W12
 .byte   Dn1
 .byte   N06 ,En1
 .byte   N24 ,As1
 .byte   W12
 .byte   N06 ,Cn1
 .byte   W12
 .byte   N06
 .byte   N24 ,As1
 .byte   W24
 .byte   N06 ,Dn1
 .byte   N06 ,En1
 .byte   N24 ,As1
 .byte   W12
 .byte   N06 ,Cn1
 .byte   W12
 .byte   PEND 
@  #08 @004   ----------------------------------------
Label_01498824:
 .byte   N06 ,Cn1 ,v044
 .byte   N24 ,As1
 .byte   W24
 .byte   N06 ,Dn1
 .byte   N06 ,En1
 .byte   N24 ,As1
 .byte   W12
 .byte   N06 ,Cn1
 .byte   W12
 .byte   N06
 .byte   N24 ,As1
 .byte   W12
 .byte   N06 ,Cn1
 .byte   W12
 .byte   Dn1
 .byte   N06 ,En1
 .byte   N24 ,As1
 .byte   W12
 .byte   N06 ,Cn1
 .byte   W12
 .byte   PEND 
@  #08 @005   ----------------------------------------
Label_01498845:
 .byte   N24 ,As1 ,v044
 .byte   W12
 .byte   N06 ,Cn1
 .byte   W12
 .byte   Dn1
 .byte   N06 ,En1
 .byte   N24 ,As1
 .byte   W12
 .byte   N06 ,Cn1
 .byte   W12
 .byte   N06
 .byte   N24 ,As1
 .byte   W12
 .byte   N06 ,Cn1
 .byte   W12
 .byte   Dn1
 .byte   N06 ,En1
 .byte   N24 ,As1
 .byte   W12
 .byte   N06 ,Cn1
 .byte   W12
 .byte   PEND 
@  #08 @006   ----------------------------------------
 .byte   PATT
  .word Label_014987E2
@  #08 @007   ----------------------------------------
 .byte   PATT
  .word Label_01498805
@  #08 @008   ----------------------------------------
 .byte   PATT
  .word Label_01498824
@  #08 @009   ----------------------------------------
Label_01498875:
 .byte   N24 ,As1 ,v044
 .byte   W12
 .byte   N06 ,Cn1
 .byte   W12
 .byte   Dn1
 .byte   N06 ,En1
 .byte   N24 ,As1
 .byte   W12
 .byte   N06 ,Cn1
 .byte   W12
 .byte   N06
 .byte   N24 ,As1
 .byte   W12
 .byte   N06 ,Dn1
 .byte   N06 ,En1
 .byte   W12
 .byte   Dn1
 .byte   N06 ,En1
 .byte   N24 ,As1
 .byte   W12
 .byte   N06 ,Dn1
 .byte   N06 ,En1
 .byte   W12
 .byte   PEND 
@  #08 @010   ----------------------------------------
Label_0149889A:
 .byte   N06 ,Cn1 ,v044
 .byte   N12 ,Fs1
 .byte   N12 ,Gs1
 .byte   N24 ,Cs2
 .byte   W12
 .byte   N12 ,Fs1
 .byte   N12 ,Gs1
 .byte   W12
 .byte   N06 ,Dn1
 .byte   N06 ,En1
 .byte   N12 ,Fs1
 .byte   N12 ,Gs1
 .byte   W12
 .byte   N06 ,Cn1
 .byte   N12 ,Fs1
 .byte   N12 ,Gs1
 .byte   W12
 .byte   N06 ,Cn1
 .byte   N12 ,Fs1
 .byte   N12 ,Gs1
 .byte   W12
 .byte   N06 ,Cn1
 .byte   N12 ,Fs1
 .byte   N12 ,Gs1
 .byte   W12
 .byte   N06 ,Dn1
 .byte   N06 ,En1
 .byte   N12 ,Fs1
 .byte   N12 ,Gs1
 .byte   W12
 .byte   N06 ,Cn1
 .byte   N12 ,Fs1
 .byte   N12 ,Gs1
 .byte   W12
 .byte   PEND 
@  #08 @011   ----------------------------------------
Label_014988D8:
 .byte   N12 ,Fs1 ,v044
 .byte   N12 ,Gs1
 .byte   W12
 .byte   N06 ,Cn1
 .byte   N12 ,Fs1
 .byte   N12 ,Gs1
 .byte   W12
 .byte   N06 ,Dn1
 .byte   N06 ,En1
 .byte   N12 ,Fs1
 .byte   N12 ,Gs1
 .byte   W12
 .byte   N06 ,Cn1
 .byte   N12 ,Fs1
 .byte   N12 ,Gs1
 .byte   W12
 .byte   N06 ,Cn1
 .byte   N12 ,Fs1
 .byte   N12 ,Gs1
 .byte   W12
 .byte   Fs1
 .byte   N12 ,Gs1
 .byte   W12
 .byte   N06 ,Dn1
 .byte   N06 ,En1
 .byte   N12 ,Fs1
 .byte   N12 ,Gs1
 .byte   W12
 .byte   N06 ,Cn1
 .byte   N12 ,Fs1
 .byte   N12 ,Gs1
 .byte   W12
 .byte   PEND 
@  #08 @012   ----------------------------------------
Label_01498911:
 .byte   N06 ,Cn1 ,v044
 .byte   N12 ,Fs1
 .byte   N12 ,Gs1
 .byte   W12
 .byte   Fs1
 .byte   N12 ,Gs1
 .byte   W12
 .byte   N06 ,Dn1
 .byte   N06 ,En1
 .byte   N12 ,Fs1
 .byte   N12 ,Gs1
 .byte   W12
 .byte   N06 ,Cn1
 .byte   N12 ,Fs1
 .byte   N12 ,Gs1
 .byte   W12
 .byte   N06 ,Cn1
 .byte   N12 ,Fs1
 .byte   N12 ,Gs1
 .byte   W12
 .byte   N06 ,Cn1
 .byte   N12 ,Fs1
 .byte   N12 ,Gs1
 .byte   W12
 .byte   N06 ,Dn1
 .byte   N06 ,En1
 .byte   N12 ,Fs1
 .byte   N12 ,Gs1
 .byte   W12
 .byte   N06 ,Cn1
 .byte   N12 ,Fs1
 .byte   N12 ,Gs1
 .byte   W12
 .byte   PEND 
@  #08 @013   ----------------------------------------
 .byte   PATT
  .word Label_014988D8
@  #08 @014   ----------------------------------------
 .byte   PATT
  .word Label_0149889A
@  #08 @015   ----------------------------------------
 .byte   PATT
  .word Label_014988D8
@  #08 @016   ----------------------------------------
 .byte   PATT
  .word Label_01498911
@  #08 @017   ----------------------------------------
Label_01498960:
 .byte   N12 ,Fs1 ,v044
 .byte   N12 ,Gs1
 .byte   W12
 .byte   N06 ,Cn1
 .byte   N12 ,Fs1
 .byte   N12 ,Gs1
 .byte   W12
 .byte   N06 ,Dn1
 .byte   N06 ,En1
 .byte   N12 ,Fs1
 .byte   N12 ,Gs1
 .byte   W12
 .byte   N06 ,Cn1
 .byte   N12 ,Fs1
 .byte   N12 ,Gs1
 .byte   W12
 .byte   N06 ,Cn1
 .byte   N12 ,Fs1
 .byte   N12 ,Gs1
 .byte   W12
 .byte   N06 ,Dn1
 .byte   N06 ,En1
 .byte   N12 ,Fs1
 .byte   N12 ,Gs1
 .byte   W12
 .byte   N06 ,Dn1
 .byte   N06 ,En1
 .byte   N12 ,Fs1
 .byte   N12 ,Gs1
 .byte   W12
 .byte   N06 ,Dn1
 .byte   N06 ,En1
 .byte   N12 ,Fs1
 .byte   N12 ,Gs1
 .byte   W12
 .byte   PEND 
@  #08 @018   ----------------------------------------
 .byte   PATT
  .word Label_0149889A
@  #08 @019   ----------------------------------------
 .byte   PATT
  .word Label_014988D8
@  #08 @020   ----------------------------------------
 .byte   PATT
  .word Label_01498911
@  #08 @021   ----------------------------------------
 .byte   PATT
  .word Label_014988D8
@  #08 @022   ----------------------------------------
 .byte   PATT
  .word Label_0149889A
@  #08 @023   ----------------------------------------
 .byte   PATT
  .word Label_014988D8
@  #08 @024   ----------------------------------------
 .byte   PATT
  .word Label_01498911
@  #08 @025   ----------------------------------------
 .byte   PATT
  .word Label_01498960
@  #08 @026   ----------------------------------------
 .byte   PATT
  .word Label_0149889A
@  #08 @027   ----------------------------------------
 .byte   PATT
  .word Label_014988D8
@  #08 @028   ----------------------------------------
 .byte   PATT
  .word Label_01498911
@  #08 @029   ----------------------------------------
 .byte   PATT
  .word Label_014988D8
@  #08 @030   ----------------------------------------
 .byte   PATT
  .word Label_0149889A
@  #08 @031   ----------------------------------------
 .byte   PATT
  .word Label_014988D8
@  #08 @032   ----------------------------------------
 .byte   PATT
  .word Label_01498911
@  #08 @033   ----------------------------------------
Label_014989EB:
 .byte   N12 ,Fs1 ,v044
 .byte   N12 ,Gs1
 .byte   N24 ,As1
 .byte   W12
 .byte   N06 ,Cn1
 .byte   N12 ,Fs1
 .byte   N12 ,Gs1
 .byte   W12
 .byte   N06 ,Dn1
 .byte   N06 ,En1
 .byte   N12 ,Fs1
 .byte   N12 ,Gs1
 .byte   N24 ,As1
 .byte   W12
 .byte   N06 ,Cn1
 .byte   N12 ,Fs1
 .byte   N12 ,Gs1
 .byte   W12
 .byte   N06 ,Cn1
 .byte   N12 ,Fs1
 .byte   N12 ,Gs1
 .byte   N24 ,As1
 .byte   N24 ,Cs2
 .byte   W12
 .byte   N06 ,Dn1
 .byte   N06 ,En1
 .byte   N12 ,Fs1
 .byte   N12 ,Gs1
 .byte   W12
 .byte   N06 ,Dn1
 .byte   N06 ,En1
 .byte   N12 ,Fs1
 .byte   N12 ,Gs1
 .byte   N24 ,As1
 .byte   N24 ,Cs2
 .byte   W12
 .byte   N06 ,Dn1
 .byte   N06 ,En1
 .byte   N12 ,Fs1
 .byte   N12 ,Gs1
 .byte   W12
 .byte   PEND 
@  #08 @034   ----------------------------------------
 .byte   PATT
  .word Label_0149889A
@  #08 @035   ----------------------------------------
 .byte   PATT
  .word Label_014988D8
@  #08 @036   ----------------------------------------
 .byte   PATT
  .word Label_01498911
@  #08 @037   ----------------------------------------
 .byte   PATT
  .word Label_014988D8
@  #08 @038   ----------------------------------------
 .byte   PATT
  .word Label_0149889A
@  #08 @039   ----------------------------------------
 .byte   PATT
  .word Label_014988D8
@  #08 @040   ----------------------------------------
Label_01498A55:
 .byte   N06 ,Cn1 ,v044
 .byte   N12 ,Fs1
 .byte   N12 ,Gs1
 .byte   N24 ,As1
 .byte   W12
 .byte   N12 ,Fs1
 .byte   N12 ,Gs1
 .byte   W12
 .byte   N06 ,Dn1
 .byte   N06 ,En1
 .byte   N12 ,Fs1
 .byte   N12 ,Gs1
 .byte   N24 ,As1
 .byte   W12
 .byte   N06 ,Cn1
 .byte   N12 ,Fs1
 .byte   N12 ,Gs1
 .byte   W12
 .byte   N06 ,Cn1
 .byte   N12 ,Fs1
 .byte   N12 ,Gs1
 .byte   N24 ,As1
 .byte   W12
 .byte   N06 ,Cn1
 .byte   N12 ,Fs1
 .byte   N12 ,Gs1
 .byte   W12
 .byte   N06 ,Dn1
 .byte   N06 ,En1
 .byte   N12 ,Fs1
 .byte   N12 ,Gs1
 .byte   N24 ,As1
 .byte   W12
 .byte   N06 ,Cn1
 .byte   N12 ,Fs1
 .byte   N12 ,Gs1
 .byte   W12
 .byte   PEND 
@  #08 @041   ----------------------------------------
Label_01498A99:
 .byte   N12 ,Fs1 ,v044
 .byte   N12 ,Gs1
 .byte   N24 ,As1
 .byte   W12
 .byte   N06 ,Cn1
 .byte   N12 ,Fs1
 .byte   N12 ,Gs1
 .byte   W12
 .byte   N06 ,Dn1
 .byte   N06 ,En1
 .byte   N12 ,Fs1
 .byte   N12 ,Gs1
 .byte   N24 ,As1
 .byte   W12
 .byte   N06 ,Cn1
 .byte   N12 ,Fs1
 .byte   N12 ,Gs1
 .byte   W12
 .byte   N06 ,Cn1
 .byte   N12 ,Fs1
 .byte   N12 ,Gs1
 .byte   N24 ,As1
 .byte   W12
 .byte   N12 ,Fs1
 .byte   N12 ,Gs1
 .byte   W12
 .byte   N06 ,Dn1
 .byte   N06 ,En1
 .byte   N12 ,Fs1
 .byte   N12 ,Gs1
 .byte   N24 ,As1
 .byte   W12
 .byte   N06 ,Cn1
 .byte   N12 ,Fs1
 .byte   N12 ,Gs1
 .byte   W12
 .byte   PEND 
@  #08 @042   ----------------------------------------
 .byte   PATT
  .word Label_01498A55
@  #08 @043   ----------------------------------------
 .byte   PATT
  .word Label_01498A99
@  #08 @044   ----------------------------------------
Label_01498AE5:
 .byte   N06 ,Cn1 ,v044
 .byte   N12 ,Fs1
 .byte   N12 ,Gs1
 .byte   N96 ,Cs2
 .byte   W12
 .byte   N12 ,Fs1
 .byte   N12 ,Gs1
 .byte   W12
 .byte   N24 ,Fs1
 .byte   N24 ,Gs1
 .byte   N24 ,As1
 .byte   W24
 .byte   N12 ,Fs1
 .byte   N12 ,Gs1
 .byte   W12
 .byte   Fs1
 .byte   N12 ,Gs1
 .byte   W12
 .byte   N24 ,Fs1
 .byte   N24 ,Gs1
 .byte   N24 ,As1
 .byte   W24
 .byte   PEND 
@  #08 @045   ----------------------------------------
Label_01498B0C:
 .byte   N06 ,Cn1 ,v044
 .byte   N12 ,Fs1
 .byte   N12 ,Gs1
 .byte   N24 ,As1
 .byte   N24 ,Cs2
 .byte   W12
 .byte   N12 ,Fs1
 .byte   N12 ,Gs1
 .byte   W12
 .byte   N06 ,Dn1
 .byte   N06 ,En1
 .byte   N12 ,Fs1
 .byte   N12 ,Gs1
 .byte   N24 ,As1
 .byte   W12
 .byte   N06 ,Cn1
 .byte   N12 ,Fs1
 .byte   N12 ,Gs1
 .byte   W12
 .byte   N06 ,Cn1
 .byte   N12 ,Fs1
 .byte   N12 ,Gs1
 .byte   N24 ,As1
 .byte   W12
 .byte   N06 ,Cn1
 .byte   N12 ,Fs1
 .byte   N12 ,Gs1
 .byte   W12
 .byte   N06 ,Dn1
 .byte   N06 ,En1
 .byte   N12 ,Fs1
 .byte   N12 ,Gs1
 .byte   N24 ,As1
 .byte   W12
 .byte   N06 ,Cn1
 .byte   N12 ,Fs1
 .byte   N12 ,Gs1
 .byte   W12
 .byte   PEND 
@  #08 @046   ----------------------------------------
 .byte   PATT
  .word Label_01498A99
@  #08 @047   ----------------------------------------
 .byte   PATT
  .word Label_01498A55
@  #08 @048   ----------------------------------------
 .byte   PATT
  .word Label_01498A99
@  #08 @049   ----------------------------------------
 .byte   PATT
  .word Label_01498B0C
@  #08 @050   ----------------------------------------
 .byte   PATT
  .word Label_01498A99
@  #08 @051   ----------------------------------------
 .byte   PATT
  .word Label_01498A55
@  #08 @052   ----------------------------------------
Label_01498B70:
 .byte   N12 ,Fs1 ,v044
 .byte   N12 ,Gs1
 .byte   N24 ,As1
 .byte   W12
 .byte   N06 ,Cn1
 .byte   N12 ,Fs1
 .byte   N12 ,Gs1
 .byte   W12
 .byte   N06 ,Dn1
 .byte   N06 ,En1
 .byte   N12 ,Fs1
 .byte   N12 ,Gs1
 .byte   N24 ,As1
 .byte   W12
 .byte   N06 ,Dn1
 .byte   N06 ,En1
 .byte   N12 ,Fs1
 .byte   N12 ,Gs1
 .byte   W12
 .byte   N06 ,Cn1
 .byte   N12 ,Fs1
 .byte   N12 ,Gs1
 .byte   N24 ,As1
 .byte   W12
 .byte   N06 ,Cn1
 .byte   N12 ,Fs1
 .byte   N12 ,Gs1
 .byte   W12
 .byte   N06 ,Dn1
 .byte   N06 ,En1
 .byte   N12 ,Fs1
 .byte   N12 ,Gs1
 .byte   N24 ,As1
 .byte   W12
 .byte   N06 ,Cn1
 .byte   N12 ,Fs1
 .byte   N12 ,Gs1
 .byte   W12
 .byte   PEND 
@  #08 @053   ----------------------------------------
 .byte   PATT
  .word Label_01498B0C
@  #08 @054   ----------------------------------------
 .byte   PATT
  .word Label_01498A99
@  #08 @055   ----------------------------------------
 .byte   PATT
  .word Label_01498A55
@  #08 @056   ----------------------------------------
 .byte   PATT
  .word Label_01498A99
@  #08 @057   ----------------------------------------
 .byte   PATT
  .word Label_01498B0C
@  #08 @058   ----------------------------------------
Label_01498BCF:
 .byte   N06 ,Dn1 ,v044
 .byte   N06 ,En1
 .byte   N12 ,Fs1
 .byte   N12 ,Gs1
 .byte   N24 ,As1
 .byte   W12
 .byte   N06 ,Cn1
 .byte   W12
 .byte   Dn1
 .byte   N06 ,En1
 .byte   W12
 .byte   Cn1
 .byte   N06 ,Dn2
 .byte   W06
 .byte   Cn1
 .byte   N06 ,Cn2
 .byte   W06
 .byte   Cn1
 .byte   N06 ,An1
 .byte   W12
 .byte   Cn1
 .byte   W12
 .byte   Dn1
 .byte   N06 ,En1
 .byte   N24 ,As1
 .byte   W12
 .byte   N06 ,Cn1
 .byte   W12
 .byte   PEND 
@  #08 @059   ----------------------------------------
 .byte   PATT
  .word Label_0149889A
@  #08 @060   ----------------------------------------
 .byte   PATT
  .word Label_014988D8
@  #08 @061   ----------------------------------------
 .byte   PATT
  .word Label_01498911
@  #08 @062   ----------------------------------------
 .byte   PATT
  .word Label_014988D8
@  #08 @063   ----------------------------------------
 .byte   PATT
  .word Label_0149889A
@  #08 @064   ----------------------------------------
 .byte   PATT
  .word Label_014988D8
@  #08 @065   ----------------------------------------
 .byte   PATT
  .word Label_01498911
@  #08 @066   ----------------------------------------
 .byte   PATT
  .word Label_01498960
@  #08 @067   ----------------------------------------
 .byte   PATT
  .word Label_0149889A
@  #08 @068   ----------------------------------------
 .byte   PATT
  .word Label_014988D8
@  #08 @069   ----------------------------------------
 .byte   PATT
  .word Label_01498911
@  #08 @070   ----------------------------------------
 .byte   PATT
  .word Label_014988D8
@  #08 @071   ----------------------------------------
 .byte   PATT
  .word Label_0149889A
@  #08 @072   ----------------------------------------
 .byte   PATT
  .word Label_014988D8
@  #08 @073   ----------------------------------------
 .byte   PATT
  .word Label_01498911
@  #08 @074   ----------------------------------------
 .byte   PATT
  .word Label_01498960
@  #08 @075   ----------------------------------------
 .byte   PATT
  .word Label_0149889A
@  #08 @076   ----------------------------------------
 .byte   PATT
  .word Label_014988D8
@  #08 @077   ----------------------------------------
 .byte   PATT
  .word Label_01498911
@  #08 @078   ----------------------------------------
 .byte   PATT
  .word Label_014988D8
@  #08 @079   ----------------------------------------
 .byte   PATT
  .word Label_0149889A
@  #08 @080   ----------------------------------------
 .byte   PATT
  .word Label_014988D8
@  #08 @081   ----------------------------------------
 .byte   PATT
  .word Label_01498911
@  #08 @082   ----------------------------------------
 .byte   PATT
  .word Label_014989EB
@  #08 @083   ----------------------------------------
 .byte   PATT
  .word Label_0149889A
@  #08 @084   ----------------------------------------
 .byte   PATT
  .word Label_014988D8
@  #08 @085   ----------------------------------------
 .byte   PATT
  .word Label_01498911
@  #08 @086   ----------------------------------------
 .byte   PATT
  .word Label_014988D8
@  #08 @087   ----------------------------------------
 .byte   PATT
  .word Label_0149889A
@  #08 @088   ----------------------------------------
 .byte   PATT
  .word Label_014988D8
@  #08 @089   ----------------------------------------
 .byte   PATT
  .word Label_01498A55
@  #08 @090   ----------------------------------------
 .byte   PATT
  .word Label_01498A99
@  #08 @091   ----------------------------------------
 .byte   PATT
  .word Label_01498A55
@  #08 @092   ----------------------------------------
 .byte   PATT
  .word Label_01498A99
@  #08 @093   ----------------------------------------
 .byte   PATT
  .word Label_01498AE5
@  #08 @094   ----------------------------------------
Label_01498CA9:
 .byte   N06 ,Dn1 ,v044
 .byte   N06 ,En1
 .byte   N24 ,Fs1
 .byte   N24 ,Gs1
 .byte   N96 ,Cs2
 .byte   W12
 .byte   N06 ,Cn1
 .byte   W12
 .byte   N24 ,Fs1
 .byte   N24 ,Gs1
 .byte   N24 ,As1
 .byte   W12
 .byte   N06 ,Cn1
 .byte   W12
 .byte   N24 ,Fs1
 .byte   N24 ,Gs1
 .byte   N24 ,As1
 .byte   W12
 .byte   N06 ,Cn1
 .byte   W06
 .byte   N06
 .byte   W06
 .byte   Dn1
 .byte   N06 ,En1
 .byte   N24 ,Fs1
 .byte   N24 ,Gs1
 .byte   N24 ,As1
 .byte   W12
 .byte   N06 ,Cn1
 .byte   W12
 .byte   PEND 
@  #08 @095   ----------------------------------------
 .byte   PATT
  .word Label_01498B0C
@  #08 @096   ----------------------------------------
 .byte   PATT
  .word Label_01498A99
@  #08 @097   ----------------------------------------
 .byte   PATT
  .word Label_01498A55
@  #08 @098   ----------------------------------------
 .byte   PATT
  .word Label_01498A99
@  #08 @099   ----------------------------------------
 .byte   PATT
  .word Label_01498B0C
@  #08 @100   ----------------------------------------
 .byte   PATT
  .word Label_01498A99
@  #08 @101   ----------------------------------------
 .byte   PATT
  .word Label_01498A55
@  #08 @102   ----------------------------------------
 .byte   PATT
  .word Label_01498B70
@  #08 @103   ----------------------------------------
 .byte   PATT
  .word Label_01498B0C
@  #08 @104   ----------------------------------------
 .byte   PATT
  .word Label_01498A99
@  #08 @105   ----------------------------------------
 .byte   PATT
  .word Label_01498A55
@  #08 @106   ----------------------------------------
 .byte   PATT
  .word Label_01498A99
@  #08 @107   ----------------------------------------
 .byte   PATT
  .word Label_01498B0C
@  #08 @108   ----------------------------------------
 .byte   PATT
  .word Label_01498BCF
@  #08 @109   ----------------------------------------
 .byte   N06 ,Cn1 ,v044
 .byte   N24 ,Cs2
 .byte   W24
 .byte   N06 ,Dn1
 .byte   N06 ,En1
 .byte   N24 ,As1
 .byte   W12
 .byte   N06 ,Cn1
 .byte   W12
 .byte   N06
 .byte   N24 ,As1
 .byte   W12
 .byte   N06 ,Cn1
 .byte   W12
 .byte   Dn1
 .byte   N06 ,En1
 .byte   N24 ,As1
 .byte   W12
 .byte   N06 ,Cn1
 .byte   W12
@  #08 @110   ----------------------------------------
 .byte   PATT
  .word Label_01498805
@  #08 @111   ----------------------------------------
 .byte   PATT
  .word Label_01498824
@  #08 @112   ----------------------------------------
 .byte   PATT
  .word Label_01498845
@  #08 @113   ----------------------------------------
 .byte   PATT
  .word Label_014987E2
@  #08 @114   ----------------------------------------
 .byte   PATT
  .word Label_01498805
@  #08 @115   ----------------------------------------
 .byte   PATT
  .word Label_01498824
@  #08 @116   ----------------------------------------
 .byte   PATT
  .word Label_01498875
@  #08 @117   ----------------------------------------
 .byte   PATT
  .word Label_0149889A
@  #08 @118   ----------------------------------------
 .byte   PATT
  .word Label_014988D8
@  #08 @119   ----------------------------------------
 .byte   PATT
  .word Label_01498911
@  #08 @120   ----------------------------------------
 .byte   PATT
  .word Label_014988D8
@  #08 @121   ----------------------------------------
 .byte   PATT
  .word Label_0149889A
@  #08 @122   ----------------------------------------
 .byte   PATT
  .word Label_014988D8
@  #08 @123   ----------------------------------------
 .byte   PATT
  .word Label_01498911
@  #08 @124   ----------------------------------------
 .byte   PATT
  .word Label_01498960
@  #08 @125   ----------------------------------------
 .byte   PATT
  .word Label_0149889A
@  #08 @126   ----------------------------------------
 .byte   PATT
  .word Label_014988D8
@  #08 @127   ----------------------------------------
 .byte   PATT
  .word Label_01498911
@  #08 @128   ----------------------------------------
 .byte   PATT
  .word Label_014988D8
@  #08 @129   ----------------------------------------
 .byte   PATT
  .word Label_0149889A
@  #08 @130   ----------------------------------------
 .byte   PATT
  .word Label_014988D8
@  #08 @131   ----------------------------------------
 .byte   PATT
  .word Label_01498911
@  #08 @132   ----------------------------------------
 .byte   PATT
  .word Label_01498960
@  #08 @133   ----------------------------------------
 .byte   PATT
  .word Label_0149889A
@  #08 @134   ----------------------------------------
 .byte   PATT
  .word Label_014988D8
@  #08 @135   ----------------------------------------
 .byte   PATT
  .word Label_01498911
@  #08 @136   ----------------------------------------
 .byte   PATT
  .word Label_014988D8
@  #08 @137   ----------------------------------------
 .byte   PATT
  .word Label_0149889A
@  #08 @138   ----------------------------------------
 .byte   PATT
  .word Label_014988D8
@  #08 @139   ----------------------------------------
 .byte   PATT
  .word Label_01498911
@  #08 @140   ----------------------------------------
 .byte   PATT
  .word Label_014989EB
@  #08 @141   ----------------------------------------
 .byte   PATT
  .word Label_0149889A
@  #08 @142   ----------------------------------------
 .byte   PATT
  .word Label_014988D8
@  #08 @143   ----------------------------------------
 .byte   PATT
  .word Label_01498911
@  #08 @144   ----------------------------------------
 .byte   PATT
  .word Label_014988D8
@  #08 @145   ----------------------------------------
 .byte   PATT
  .word Label_0149889A
@  #08 @146   ----------------------------------------
 .byte   PATT
  .word Label_014988D8
@  #08 @147   ----------------------------------------
 .byte   PATT
  .word Label_01498A55
@  #08 @148   ----------------------------------------
 .byte   PATT
  .word Label_01498A99
@  #08 @149   ----------------------------------------
 .byte   PATT
  .word Label_01498A55
@  #08 @150   ----------------------------------------
 .byte   PATT
  .word Label_01498A99
@  #08 @151   ----------------------------------------
 .byte   PATT
  .word Label_01498AE5
@  #08 @152   ----------------------------------------
 .byte   PATT
  .word Label_01498B0C
@  #08 @153   ----------------------------------------
 .byte   PATT
  .word Label_01498A99
@  #08 @154   ----------------------------------------
 .byte   PATT
  .word Label_01498A55
@  #08 @155   ----------------------------------------
 .byte   PATT
  .word Label_01498A99
@  #08 @156   ----------------------------------------
 .byte   PATT
  .word Label_01498B0C
@  #08 @157   ----------------------------------------
 .byte   PATT
  .word Label_01498A99
@  #08 @158   ----------------------------------------
 .byte   PATT
  .word Label_01498A55
@  #08 @159   ----------------------------------------
 .byte   PATT
  .word Label_01498B70
@  #08 @160   ----------------------------------------
 .byte   PATT
  .word Label_01498B0C
@  #08 @161   ----------------------------------------
 .byte   PATT
  .word Label_01498A99
@  #08 @162   ----------------------------------------
 .byte   PATT
  .word Label_01498A55
@  #08 @163   ----------------------------------------
 .byte   PATT
  .word Label_01498A99
@  #08 @164   ----------------------------------------
 .byte   PATT
  .word Label_01498B0C
@  #08 @165   ----------------------------------------
 .byte   PATT
  .word Label_01498BCF
@  #08 @166   ----------------------------------------
 .byte   PATT
  .word Label_0149889A
@  #08 @167   ----------------------------------------
 .byte   PATT
  .word Label_014988D8
@  #08 @168   ----------------------------------------
 .byte   PATT
  .word Label_01498911
@  #08 @169   ----------------------------------------
 .byte   PATT
  .word Label_014988D8
@  #08 @170   ----------------------------------------
 .byte   PATT
  .word Label_0149889A
@  #08 @171   ----------------------------------------
 .byte   PATT
  .word Label_014988D8
@  #08 @172   ----------------------------------------
 .byte   PATT
  .word Label_01498911
@  #08 @173   ----------------------------------------
 .byte   PATT
  .word Label_01498960
@  #08 @174   ----------------------------------------
 .byte   PATT
  .word Label_0149889A
@  #08 @175   ----------------------------------------
 .byte   PATT
  .word Label_014988D8
@  #08 @176   ----------------------------------------
 .byte   PATT
  .word Label_01498911
@  #08 @177   ----------------------------------------
 .byte   PATT
  .word Label_014988D8
@  #08 @178   ----------------------------------------
 .byte   PATT
  .word Label_0149889A
@  #08 @179   ----------------------------------------
 .byte   PATT
  .word Label_014988D8
@  #08 @180   ----------------------------------------
 .byte   PATT
  .word Label_01498911
@  #08 @181   ----------------------------------------
 .byte   PATT
  .word Label_01498960
@  #08 @182   ----------------------------------------
 .byte   PATT
  .word Label_0149889A
@  #08 @183   ----------------------------------------
 .byte   PATT
  .word Label_014988D8
@  #08 @184   ----------------------------------------
 .byte   PATT
  .word Label_01498911
@  #08 @185   ----------------------------------------
 .byte   PATT
  .word Label_014988D8
@  #08 @186   ----------------------------------------
 .byte   PATT
  .word Label_0149889A
@  #08 @187   ----------------------------------------
 .byte   PATT
  .word Label_014988D8
@  #08 @188   ----------------------------------------
 .byte   PATT
  .word Label_01498911
@  #08 @189   ----------------------------------------
 .byte   PATT
  .word Label_014989EB
@  #08 @190   ----------------------------------------
 .byte   PATT
  .word Label_0149889A
@  #08 @191   ----------------------------------------
 .byte   PATT
  .word Label_014988D8
@  #08 @192   ----------------------------------------
 .byte   PATT
  .word Label_01498911
@  #08 @193   ----------------------------------------
 .byte   PATT
  .word Label_014988D8
@  #08 @194   ----------------------------------------
 .byte   PATT
  .word Label_0149889A
@  #08 @195   ----------------------------------------
 .byte   PATT
  .word Label_014988D8
@  #08 @196   ----------------------------------------
 .byte   PATT
  .word Label_01498A55
@  #08 @197   ----------------------------------------
 .byte   PATT
  .word Label_01498A99
@  #08 @198   ----------------------------------------
 .byte   PATT
  .word Label_01498A55
@  #08 @199   ----------------------------------------
 .byte   PATT
  .word Label_01498A99
@  #08 @200   ----------------------------------------
 .byte   PATT
  .word Label_01498AE5
@  #08 @201   ----------------------------------------
 .byte   PATT
  .word Label_01498CA9
@  #08 @202   ----------------------------------------
 .byte   PATT
  .word Label_01498B0C
@  #08 @203   ----------------------------------------
 .byte   PATT
  .word Label_01498A99
@  #08 @204   ----------------------------------------
 .byte   PATT
  .word Label_01498A55
@  #08 @205   ----------------------------------------
 .byte   PATT
  .word Label_01498A99
@  #08 @206   ----------------------------------------
 .byte   PATT
  .word Label_01498B0C
@  #08 @207   ----------------------------------------
 .byte   PATT
  .word Label_01498A99
@  #08 @208   ----------------------------------------
 .byte   PATT
  .word Label_01498A55
@  #08 @209   ----------------------------------------
 .byte   PATT
  .word Label_01498B70
@  #08 @210   ----------------------------------------
 .byte   PATT
  .word Label_01498B0C
@  #08 @211   ----------------------------------------
 .byte   PATT
  .word Label_01498A99
@  #08 @212   ----------------------------------------
 .byte   PATT
  .word Label_01498A55
@  #08 @213   ----------------------------------------
 .byte   PATT
  .word Label_01498A99
@  #08 @214   ----------------------------------------
 .byte   PATT
  .word Label_01498B0C
@  #08 @215   ----------------------------------------
 .byte   PATT
  .word Label_01498BCF
@  #08 @216   ----------------------------------------
 .byte   GOTO
  .word Label_01498796
 .byte   FINE

@******************************************************@
	.align	2

MissionStreet:
	.byte	8	@ NumTrks
	.byte	0	@ NumBlks
	.byte	MissionStreet_pri	@ Priority
	.byte	MissionStreet_rev	@ Reverb.
    
	.word	MissionStreet_grp
    
	.word	MissionStreet_001
	.word	MissionStreet_002
	.word	MissionStreet_003
	.word	MissionStreet_004
	.word	MissionStreet_005
	.word	MissionStreet_006
	.word	MissionStreet_007
	.word	MissionStreet_008

	.end
