//Event file generated from Sappy .s format.
	

	#define	MissionStreet_grp  voicegroup000
	#define	MissionStreet_pri  0
	#define	MissionStreet_rev  0
	#define	MissionStreet_mvl  127
	#define	MissionStreet_key  0
	#define	MissionStreet_tbs  1
	#define	MissionStreet_exg  0
	#define	MissionStreet_cmp  1

	// .rodata
	//	MissionStreet
	ALIGN 4


//**************** Track 1 (Midi-Chn.0) ****************//

MissionStreet_001:
//  #01 //000   ----------------------------------------
 BYTE   KEYSH   MissionStreet_key+0
Label_0149706A:
 BYTE   TEMPO   178*MissionStreet_tbs/2
 BYTE   VOICE   30
 BYTE   MODT 0
 BYTE   LFOS 44
 BYTE   VOL   127*MissionStreet_mvl/mxv
 BYTE   W96
//  #01 //001   ----------------------------------------
Label_01497075:
 BYTE   W72
 BYTE   N06  Fn2  v044
 BYTE   N06  An2
 BYTE   W06
 BYTE   Gn2
 BYTE   N06  Bn2
 BYTE   W06
 BYTE   An2
 BYTE   N06  Cn3
 BYTE   W06
 BYTE   Bn2
 BYTE   N06  Dn3
 BYTE   W06
 BYTE   PEND 
//  #01 //002   ----------------------------------------
Label_01497089:
 BYTE   N36  Cn3  v044
 BYTE   N36  En3
 BYTE   W36
 BYTE   Dn3
 BYTE   N36  Fn3
 BYTE   W36
 BYTE   N24  Cn3
 BYTE   N24  En3
 BYTE   W24
 BYTE   PEND 
//  #01 //003   ----------------------------------------
Label_01497099:
 BYTE   N72  Bn2  v044
 BYTE   N72  Dn3
 BYTE   W72
 BYTE   N06  An2
 BYTE   N06  Cn3
 BYTE   W06
 BYTE   Bn2
 BYTE   N06  Dn3
 BYTE   W06
 BYTE   Cn3
 BYTE   N06  En3
 BYTE   W06
 BYTE   Dn3
 BYTE   N06  Fn3
 BYTE   W06
 BYTE   PEND 
//  #01 //004   ----------------------------------------
Label_014970B1:
 BYTE   N36  En3  v044
 BYTE   N36  Gn3
 BYTE   W36
 BYTE   Dn3
 BYTE   N36  Fn3
 BYTE   W36
 BYTE   N24  Cn3
 BYTE   N24  En3
 BYTE   W24
 BYTE   PEND 
//  #01 //005   ----------------------------------------
 BYTE   PATT
  POIN2 Label_01497099
//  #01 //006   ----------------------------------------
 BYTE   PATT
  POIN2 Label_014970B1
//  #01 //007   ----------------------------------------
 BYTE   PATT
  POIN2 Label_01497099
//  #01 //008   ----------------------------------------
Label_014970D0:
 BYTE   N36  En3  v044
 BYTE   N36  Gn3
 BYTE   W36
 BYTE   Fn3
 BYTE   N36  An3
 BYTE   W36
 BYTE   N24  Cn3
 BYTE   N24  En3
 BYTE   W24
 BYTE   PEND 
//  #01 //009   ----------------------------------------
 BYTE   N96  Bn2
 BYTE   N96  Dn3
 BYTE   W96
//  #01 //010   ----------------------------------------
 BYTE   W96
//  #01 //011   ----------------------------------------
 BYTE   W96
//  #01 //012   ----------------------------------------
 BYTE   W96
//  #01 //013   ----------------------------------------
 BYTE   W96
//  #01 //014   ----------------------------------------
 BYTE   W96
//  #01 //015   ----------------------------------------
 BYTE   W96
//  #01 //016   ----------------------------------------
 BYTE   W96
//  #01 //017   ----------------------------------------
 BYTE   W96
//  #01 //018   ----------------------------------------
 BYTE   W96
//  #01 //019   ----------------------------------------
 BYTE   W96
//  #01 //020   ----------------------------------------
 BYTE   W96
//  #01 //021   ----------------------------------------
 BYTE   W96
//  #01 //022   ----------------------------------------
 BYTE   W96
//  #01 //023   ----------------------------------------
 BYTE   W96
//  #01 //024   ----------------------------------------
 BYTE   W96
//  #01 //025   ----------------------------------------
 BYTE   W96
//  #01 //026   ----------------------------------------
 BYTE   W96
//  #01 //027   ----------------------------------------
 BYTE   W96
//  #01 //028   ----------------------------------------
 BYTE   W96
//  #01 //029   ----------------------------------------
 BYTE   W96
//  #01 //030   ----------------------------------------
 BYTE   W96
//  #01 //031   ----------------------------------------
 BYTE   W96
//  #01 //032   ----------------------------------------
 BYTE   W96
//  #01 //033   ----------------------------------------
 BYTE   W96
//  #01 //034   ----------------------------------------
 BYTE   W96
//  #01 //035   ----------------------------------------
 BYTE   W96
//  #01 //036   ----------------------------------------
 BYTE   W96
//  #01 //037   ----------------------------------------
 BYTE   W96
//  #01 //038   ----------------------------------------
 BYTE   W96
//  #01 //039   ----------------------------------------
 BYTE   W96
//  #01 //040   ----------------------------------------
 BYTE   W96
//  #01 //041   ----------------------------------------
 BYTE   W96
//  #01 //042   ----------------------------------------
 BYTE   W96
//  #01 //043   ----------------------------------------
 BYTE   W96
//  #01 //044   ----------------------------------------
 BYTE   W96
//  #01 //045   ----------------------------------------
 BYTE   W96
//  #01 //046   ----------------------------------------
 BYTE   W96
//  #01 //047   ----------------------------------------
 BYTE   W96
//  #01 //048   ----------------------------------------
 BYTE   W96
//  #01 //049   ----------------------------------------
 BYTE   W96
//  #01 //050   ----------------------------------------
 BYTE   W96
//  #01 //051   ----------------------------------------
 BYTE   W96
//  #01 //052   ----------------------------------------
 BYTE   W96
//  #01 //053   ----------------------------------------
 BYTE   W96
//  #01 //054   ----------------------------------------
 BYTE   W96
//  #01 //055   ----------------------------------------
 BYTE   W96
//  #01 //056   ----------------------------------------
 BYTE   W96
//  #01 //057   ----------------------------------------
 BYTE   W96
//  #01 //058   ----------------------------------------
 BYTE   W96
//  #01 //059   ----------------------------------------
 BYTE   W96
//  #01 //060   ----------------------------------------
 BYTE   W96
//  #01 //061   ----------------------------------------
 BYTE   W96
//  #01 //062   ----------------------------------------
 BYTE   W96
//  #01 //063   ----------------------------------------
 BYTE   W96
//  #01 //064   ----------------------------------------
 BYTE   W96
//  #01 //065   ----------------------------------------
 BYTE   W96
//  #01 //066   ----------------------------------------
 BYTE   W96
//  #01 //067   ----------------------------------------
 BYTE   W96
//  #01 //068   ----------------------------------------
 BYTE   W96
//  #01 //069   ----------------------------------------
 BYTE   W96
//  #01 //070   ----------------------------------------
 BYTE   W96
//  #01 //071   ----------------------------------------
 BYTE   W96
//  #01 //072   ----------------------------------------
 BYTE   W96
//  #01 //073   ----------------------------------------
 BYTE   W96
//  #01 //074   ----------------------------------------
 BYTE   W96
//  #01 //075   ----------------------------------------
 BYTE   W96
//  #01 //076   ----------------------------------------
 BYTE   W96
//  #01 //077   ----------------------------------------
 BYTE   W96
//  #01 //078   ----------------------------------------
 BYTE   W96
//  #01 //079   ----------------------------------------
 BYTE   W96
//  #01 //080   ----------------------------------------
 BYTE   W96
//  #01 //081   ----------------------------------------
 BYTE   W96
//  #01 //082   ----------------------------------------
 BYTE   W96
//  #01 //083   ----------------------------------------
 BYTE   W96
//  #01 //084   ----------------------------------------
 BYTE   W96
//  #01 //085   ----------------------------------------
 BYTE   W96
//  #01 //086   ----------------------------------------
 BYTE   W96
//  #01 //087   ----------------------------------------
 BYTE   W96
//  #01 //088   ----------------------------------------
 BYTE   W96
//  #01 //089   ----------------------------------------
 BYTE   W96
//  #01 //090   ----------------------------------------
 BYTE   W96
//  #01 //091   ----------------------------------------
 BYTE   W96
//  #01 //092   ----------------------------------------
 BYTE   W96
//  #01 //093   ----------------------------------------
 BYTE   W96
//  #01 //094   ----------------------------------------
 BYTE   W96
//  #01 //095   ----------------------------------------
 BYTE   W96
//  #01 //096   ----------------------------------------
 BYTE   W96
//  #01 //097   ----------------------------------------
 BYTE   W96
//  #01 //098   ----------------------------------------
 BYTE   W96
//  #01 //099   ----------------------------------------
 BYTE   W96
//  #01 //100   ----------------------------------------
 BYTE   W96
//  #01 //101   ----------------------------------------
 BYTE   W96
//  #01 //102   ----------------------------------------
 BYTE   W96
//  #01 //103   ----------------------------------------
 BYTE   W96
//  #01 //104   ----------------------------------------
 BYTE   W96
//  #01 //105   ----------------------------------------
 BYTE   W96
//  #01 //106   ----------------------------------------
 BYTE   W96
//  #01 //107   ----------------------------------------
 BYTE   W96
//  #01 //108   ----------------------------------------
 BYTE   PATT
  POIN2 Label_01497075
//  #01 //109   ----------------------------------------
 BYTE   PATT
  POIN2 Label_01497089
//  #01 //110   ----------------------------------------
 BYTE   PATT
  POIN2 Label_01497099
//  #01 //111   ----------------------------------------
 BYTE   PATT
  POIN2 Label_014970B1
//  #01 //112   ----------------------------------------
 BYTE   PATT
  POIN2 Label_01497099
//  #01 //113   ----------------------------------------
 BYTE   PATT
  POIN2 Label_014970B1
//  #01 //114   ----------------------------------------
 BYTE   PATT
  POIN2 Label_01497099
//  #01 //115   ----------------------------------------
 BYTE   PATT
  POIN2 Label_014970D0
//  #01 //116   ----------------------------------------
 BYTE   N96  Bn2  v044
 BYTE   N96  Dn3
 BYTE   W96
//  #01 //117   ----------------------------------------
 BYTE   W96
//  #01 //118   ----------------------------------------
 BYTE   W96
//  #01 //119   ----------------------------------------
 BYTE   W96
//  #01 //120   ----------------------------------------
 BYTE   W96
//  #01 //121   ----------------------------------------
 BYTE   W96
//  #01 //122   ----------------------------------------
 BYTE   W96
//  #01 //123   ----------------------------------------
 BYTE   W96
//  #01 //124   ----------------------------------------
 BYTE   W96
//  #01 //125   ----------------------------------------
 BYTE   W96
//  #01 //126   ----------------------------------------
 BYTE   W96
//  #01 //127   ----------------------------------------
 BYTE   W96
//  #01 //128   ----------------------------------------
 BYTE   W96
//  #01 //129   ----------------------------------------
 BYTE   W96
//  #01 //130   ----------------------------------------
 BYTE   W96
//  #01 //131   ----------------------------------------
 BYTE   W96
//  #01 //132   ----------------------------------------
 BYTE   W96
//  #01 //133   ----------------------------------------
 BYTE   W96
//  #01 //134   ----------------------------------------
 BYTE   W96
//  #01 //135   ----------------------------------------
 BYTE   W96
//  #01 //136   ----------------------------------------
 BYTE   W96
//  #01 //137   ----------------------------------------
 BYTE   W96
//  #01 //138   ----------------------------------------
 BYTE   W96
//  #01 //139   ----------------------------------------
 BYTE   W96
//  #01 //140   ----------------------------------------
 BYTE   W96
//  #01 //141   ----------------------------------------
 BYTE   W96
//  #01 //142   ----------------------------------------
 BYTE   W96
//  #01 //143   ----------------------------------------
 BYTE   W96
//  #01 //144   ----------------------------------------
 BYTE   W96
//  #01 //145   ----------------------------------------
 BYTE   W96
//  #01 //146   ----------------------------------------
 BYTE   W96
//  #01 //147   ----------------------------------------
 BYTE   W96
//  #01 //148   ----------------------------------------
 BYTE   W96
//  #01 //149   ----------------------------------------
 BYTE   W96
//  #01 //150   ----------------------------------------
 BYTE   W96
//  #01 //151   ----------------------------------------
 BYTE   W96
//  #01 //152   ----------------------------------------
 BYTE   W96
//  #01 //153   ----------------------------------------
 BYTE   W96
//  #01 //154   ----------------------------------------
 BYTE   W96
//  #01 //155   ----------------------------------------
 BYTE   W96
//  #01 //156   ----------------------------------------
 BYTE   W96
//  #01 //157   ----------------------------------------
 BYTE   W96
//  #01 //158   ----------------------------------------
 BYTE   W96
//  #01 //159   ----------------------------------------
 BYTE   W96
//  #01 //160   ----------------------------------------
 BYTE   W96
//  #01 //161   ----------------------------------------
 BYTE   W96
//  #01 //162   ----------------------------------------
 BYTE   W96
//  #01 //163   ----------------------------------------
 BYTE   W96
//  #01 //164   ----------------------------------------
 BYTE   W96
//  #01 //165   ----------------------------------------
 BYTE   W96
//  #01 //166   ----------------------------------------
 BYTE   W96
//  #01 //167   ----------------------------------------
 BYTE   W96
//  #01 //168   ----------------------------------------
 BYTE   W96
//  #01 //169   ----------------------------------------
 BYTE   W96
//  #01 //170   ----------------------------------------
 BYTE   W96
//  #01 //171   ----------------------------------------
 BYTE   W96
//  #01 //172   ----------------------------------------
 BYTE   W96
//  #01 //173   ----------------------------------------
 BYTE   W96
//  #01 //174   ----------------------------------------
 BYTE   W96
//  #01 //175   ----------------------------------------
 BYTE   W96
//  #01 //176   ----------------------------------------
 BYTE   W96
//  #01 //177   ----------------------------------------
 BYTE   W96
//  #01 //178   ----------------------------------------
 BYTE   W96
//  #01 //179   ----------------------------------------
 BYTE   W96
//  #01 //180   ----------------------------------------
 BYTE   W96
//  #01 //181   ----------------------------------------
 BYTE   W96
//  #01 //182   ----------------------------------------
 BYTE   W96
//  #01 //183   ----------------------------------------
 BYTE   W96
//  #01 //184   ----------------------------------------
 BYTE   W96
//  #01 //185   ----------------------------------------
 BYTE   W96
//  #01 //186   ----------------------------------------
 BYTE   W96
//  #01 //187   ----------------------------------------
 BYTE   W96
//  #01 //188   ----------------------------------------
 BYTE   W96
//  #01 //189   ----------------------------------------
 BYTE   W96
//  #01 //190   ----------------------------------------
 BYTE   W96
//  #01 //191   ----------------------------------------
 BYTE   W96
//  #01 //192   ----------------------------------------
 BYTE   W96
//  #01 //193   ----------------------------------------
 BYTE   W96
//  #01 //194   ----------------------------------------
 BYTE   W96
//  #01 //195   ----------------------------------------
 BYTE   W96
//  #01 //196   ----------------------------------------
 BYTE   W96
//  #01 //197   ----------------------------------------
 BYTE   W96
//  #01 //198   ----------------------------------------
 BYTE   W96
//  #01 //199   ----------------------------------------
 BYTE   W96
//  #01 //200   ----------------------------------------
 BYTE   W96
//  #01 //201   ----------------------------------------
 BYTE   W96
//  #01 //202   ----------------------------------------
 BYTE   W96
//  #01 //203   ----------------------------------------
 BYTE   W96
//  #01 //204   ----------------------------------------
 BYTE   W96
//  #01 //205   ----------------------------------------
 BYTE   W96
//  #01 //206   ----------------------------------------
 BYTE   W96
//  #01 //207   ----------------------------------------
 BYTE   W96
//  #01 //208   ----------------------------------------
 BYTE   W96
//  #01 //209   ----------------------------------------
 BYTE   W96
//  #01 //210   ----------------------------------------
 BYTE   W96
//  #01 //211   ----------------------------------------
 BYTE   W96
//  #01 //212   ----------------------------------------
 BYTE   W96
//  #01 //213   ----------------------------------------
 BYTE   W96
//  #01 //214   ----------------------------------------
 BYTE   W96
//  #01 //215   ----------------------------------------
 BYTE   W96
//  #01 //216   ----------------------------------------
 BYTE   GoTo
  POIN2 Label_0149706A
 BYTE   FINE

//**************** Track 2 (Midi-Chn.1) ****************//

MissionStreet_002:
//  #02 //000   ----------------------------------------
 BYTE   KEYSH   MissionStreet_key+0
Label_014971E2:
 BYTE   VOICE   34
 BYTE   MODT 0
 BYTE   LFOS 44
 BYTE   VOL   127*MissionStreet_mvl/mxv
 BYTE   W96
//  #02 //001   ----------------------------------------
 BYTE   W96
//  #02 //002   ----------------------------------------
Label_014971EC:
 BYTE   N12  Cn1  v044
 BYTE   W12
 BYTE   N12
 BYTE   W12
 BYTE   N12
 BYTE   W12
 BYTE   Bn0
 BYTE   W12
 BYTE   Cn1
 BYTE   W12
 BYTE   N12
 BYTE   W12
 BYTE   Bn0
 BYTE   W12
 BYTE   Cn1
 BYTE   W12
 BYTE   PEND 
//  #02 //003   ----------------------------------------
Label_014971FF:
 BYTE   W12
 BYTE   N12  Fn0  v044
 BYTE   W12
 BYTE   N12
 BYTE   W12
 BYTE   N12
 BYTE   W12
 BYTE   N12
 BYTE   W12
 BYTE   N12
 BYTE   W12
 BYTE   Gn0
 BYTE   W12
 BYTE   N12
 BYTE   W12
 BYTE   PEND 
//  #02 //004   ----------------------------------------
Label_01497211:
 BYTE   N12  An0  v044
 BYTE   W12
 BYTE   N12
 BYTE   W12
 BYTE   N12
 BYTE   W12
 BYTE   Gn0
 BYTE   W12
 BYTE   An0
 BYTE   W12
 BYTE   N12
 BYTE   W12
 BYTE   Gn0
 BYTE   W12
 BYTE   An0
 BYTE   W12
 BYTE   PEND 
//  #02 //005   ----------------------------------------
Label_01497224:
 BYTE   W12
 BYTE   N12  Gn0  v044
 BYTE   W12
 BYTE   N12
 BYTE   W12
 BYTE   N12
 BYTE   W12
 BYTE   N12
 BYTE   W12
 BYTE   N12
 BYTE   W12
 BYTE   N12
 BYTE   W12
 BYTE   N12
 BYTE   W12
 BYTE   PEND 
//  #02 //006   ----------------------------------------
 BYTE   PATT
  POIN2 Label_014971EC
//  #02 //007   ----------------------------------------
 BYTE   PATT
  POIN2 Label_014971FF
//  #02 //008   ----------------------------------------
 BYTE   PATT
  POIN2 Label_01497211
//  #02 //009   ----------------------------------------
 BYTE   PATT
  POIN2 Label_01497224
//  #02 //010   ----------------------------------------
Label_0149724A:
 BYTE   N36  Cn1  v044
 BYTE   W36
 BYTE   N12
 BYTE   W24
 BYTE   N24
 BYTE   W24
 BYTE   N12  Gn0
 BYTE   W12
 BYTE   PEND 
//  #02 //011   ----------------------------------------
Label_01497256:
 BYTE   N12  Cn1  v044
 BYTE   W12
 BYTE   N12
 BYTE   W24
 BYTE   N24
 BYTE   W24
 BYTE   N12
 BYTE   W12
 BYTE   Gn0
 BYTE   W12
 BYTE   Cn1
 BYTE   W12
 BYTE   PEND 
//  #02 //012   ----------------------------------------
Label_01497265:
 BYTE   N36  En0  v044
 BYTE   W36
 BYTE   N12
 BYTE   W24
 BYTE   N24
 BYTE   W24
 BYTE   N12  Bn0
 BYTE   W12
 BYTE   PEND 
//  #02 //013   ----------------------------------------
Label_01497271:
 BYTE   N12  En0  v044
 BYTE   W12
 BYTE   N12
 BYTE   W24
 BYTE   N24
 BYTE   W24
 BYTE   N12
 BYTE   W12
 BYTE   Bn0
 BYTE   W12
 BYTE   En0
 BYTE   W12
 BYTE   PEND 
//  #02 //014   ----------------------------------------
Label_01497280:
 BYTE   N36  Fn0  v044
 BYTE   W36
 BYTE   N12
 BYTE   W24
 BYTE   N12
 BYTE   W24
 BYTE   Cn1
 BYTE   W12
 BYTE   PEND 
//  #02 //015   ----------------------------------------
Label_0149728B:
 BYTE   N12  Fn0  v044
 BYTE   W12
 BYTE   N12
 BYTE   W24
 BYTE   N12
 BYTE   W24
 BYTE   N12
 BYTE   W12
 BYTE   Cn1
 BYTE   W12
 BYTE   Fn0
 BYTE   W12
 BYTE   PEND 
//  #02 //016   ----------------------------------------
 BYTE   PATT
  POIN2 Label_01497280
//  #02 //017   ----------------------------------------
Label_0149729F:
 BYTE   N12  Fn0  v044
 BYTE   W12
 BYTE   N12
 BYTE   W24
 BYTE   N12
 BYTE   W24
 BYTE   Gn0
 BYTE   W12
 BYTE   N12
 BYTE   W12
 BYTE   N12
 BYTE   W12
 BYTE   PEND 
//  #02 //018   ----------------------------------------
 BYTE   PATT
  POIN2 Label_0149724A
//  #02 //019   ----------------------------------------
 BYTE   PATT
  POIN2 Label_01497256
//  #02 //020   ----------------------------------------
 BYTE   PATT
  POIN2 Label_01497265
//  #02 //021   ----------------------------------------
 BYTE   PATT
  POIN2 Label_01497271
//  #02 //022   ----------------------------------------
 BYTE   PATT
  POIN2 Label_01497280
//  #02 //023   ----------------------------------------
 BYTE   PATT
  POIN2 Label_0149728B
//  #02 //024   ----------------------------------------
 BYTE   PATT
  POIN2 Label_01497280
//  #02 //025   ----------------------------------------
 BYTE   PATT
  POIN2 Label_0149729F
//  #02 //026   ----------------------------------------
Label_014972D6:
 BYTE   N12  Fn0  v044
 BYTE   W12
 BYTE   N12
 BYTE   W12
 BYTE   N12
 BYTE   W12
 BYTE   N12
 BYTE   W12
 BYTE   N12
 BYTE   W12
 BYTE   Fn1
 BYTE   W12
 BYTE   N12
 BYTE   W12
 BYTE   N24
 BYTE   W12
 BYTE   PEND 
//  #02 //027   ----------------------------------------
Label_014972E9:
 BYTE   W12
 BYTE   N24  En1  v044
 BYTE   W24
 BYTE   Dn1
 BYTE   W24
 BYTE   N12  Cn1
 BYTE   W12
 BYTE   Gn0
 BYTE   W12
 BYTE   Fn0
 BYTE   W12
 BYTE   PEND 
//  #02 //028   ----------------------------------------
Label_014972F8:
 BYTE   N12  En0  v044
 BYTE   W12
 BYTE   N12
 BYTE   W12
 BYTE   N12
 BYTE   W12
 BYTE   Dn1
 BYTE   W12
 BYTE   En1
 BYTE   W12
 BYTE   En0
 BYTE   W12
 BYTE   Gn0
 BYTE   W12
 BYTE   N24  An0
 BYTE   W12
 BYTE   PEND 
//  #02 //029   ----------------------------------------
Label_0149730C:
 BYTE   W12
 BYTE   N24  Cs1  v044
 BYTE   W24
 BYTE   Dn1
 BYTE   W24
 BYTE   N12  Ds1
 BYTE   W12
 BYTE   En1
 BYTE   W12
 BYTE   An0
 BYTE   W12
 BYTE   PEND 
//  #02 //030   ----------------------------------------
Label_0149731B:
 BYTE   N12  Dn1  v044
 BYTE   W12
 BYTE   N12
 BYTE   W12
 BYTE   N12
 BYTE   W12
 BYTE   N12
 BYTE   W12
 BYTE   N12
 BYTE   W12
 BYTE   N12
 BYTE   W12
 BYTE   N12
 BYTE   W12
 BYTE   N12
 BYTE   W12
 BYTE   PEND 
//  #02 //031   ----------------------------------------
Label_0149732E:
 BYTE   N12  En1  v044
 BYTE   W12
 BYTE   N24  Bn0
 BYTE   W24
 BYTE   En0
 BYTE   W24
 BYTE   N12  Bn0
 BYTE   W12
 BYTE   En1
 BYTE   W12
 BYTE   En0
 BYTE   W12
 BYTE   PEND 
//  #02 //032   ----------------------------------------
Label_0149733F:
 BYTE   N12  Fn1  v044
 BYTE   W12
 BYTE   N24  Cn1
 BYTE   W24
 BYTE   Fn0
 BYTE   W24
 BYTE   N12  Cn1
 BYTE   W12
 BYTE   Fn1
 BYTE   W12
 BYTE   Cn1
 BYTE   W12
 BYTE   PEND 
//  #02 //033   ----------------------------------------
Label_01497350:
 BYTE   N12  Gn1  v044
 BYTE   W12
 BYTE   N12
 BYTE   W12
 BYTE   Dn1
 BYTE   W12
 BYTE   Gn0
 BYTE   W12
 BYTE   N12
 BYTE   W12
 BYTE   Dn1
 BYTE   W12
 BYTE   Gn1
 BYTE   W12
 BYTE   Gn0
 BYTE   W12
 BYTE   PEND 
//  #02 //034   ----------------------------------------
 BYTE   PATT
  POIN2 Label_014972D6
//  #02 //035   ----------------------------------------
 BYTE   PATT
  POIN2 Label_014972E9
//  #02 //036   ----------------------------------------
 BYTE   PATT
  POIN2 Label_014972F8
//  #02 //037   ----------------------------------------
 BYTE   PATT
  POIN2 Label_0149730C
//  #02 //038   ----------------------------------------
 BYTE   PATT
  POIN2 Label_0149731B
//  #02 //039   ----------------------------------------
 BYTE   PATT
  POIN2 Label_0149732E
//  #02 //040   ----------------------------------------
 BYTE   PATT
  POIN2 Label_0149733F
//  #02 //041   ----------------------------------------
Label_01497386:
 BYTE   N12  Cn1  v044
 BYTE   W12
 BYTE   N24
 BYTE   W24
 BYTE   Fn1
 BYTE   W24
 BYTE   N12  Cn1
 BYTE   W12
 BYTE   Fn0
 BYTE   W12
 BYTE   Cn1
 BYTE   W12
 BYTE   PEND 
//  #02 //042   ----------------------------------------
Label_01497396:
 BYTE   N12  Gn0  v044
 BYTE   W12
 BYTE   N12
 BYTE   W12
 BYTE   N12
 BYTE   W12
 BYTE   N12
 BYTE   W12
 BYTE   N12
 BYTE   W12
 BYTE   N12
 BYTE   W12
 BYTE   N12
 BYTE   W12
 BYTE   N12
 BYTE   W12
 BYTE   PEND 
//  #02 //043   ----------------------------------------
 BYTE   PATT
  POIN2 Label_01497396
//  #02 //044   ----------------------------------------
Label_014973AE:
 BYTE   N12  Gn0  v044
 BYTE   W12
 BYTE   N24  Bn0
 BYTE   W24
 BYTE   Cn1
 BYTE   W24
 BYTE   Cs1
 BYTE   W24
 BYTE   N12  Dn1
 BYTE   W12
 BYTE   PEND 
//  #02 //045   ----------------------------------------
Label_014973BD:
 BYTE   N12  Cn1  v044
 BYTE   W12
 BYTE   N12
 BYTE   W12
 BYTE   N12
 BYTE   W12
 BYTE   N12
 BYTE   W12
 BYTE   N12
 BYTE   W12
 BYTE   Gn0
 BYTE   W12
 BYTE   An0
 BYTE   W12
 BYTE   N24  Cn1
 BYTE   W12
 BYTE   PEND 
//  #02 //046   ----------------------------------------
Label_014973D1:
 BYTE   W12
 BYTE   N12  Cn1  v044
 BYTE   W12
 BYTE   N12
 BYTE   W12
 BYTE   N12
 BYTE   W12
 BYTE   N12
 BYTE   W12
 BYTE   Gn0
 BYTE   W12
 BYTE   An0
 BYTE   W12
 BYTE   Cn1
 BYTE   W12
 BYTE   PEND 
//  #02 //047   ----------------------------------------
Label_014973E3:
 BYTE   N12  As0  v044
 BYTE   W12
 BYTE   N12
 BYTE   W12
 BYTE   N12
 BYTE   W12
 BYTE   N12
 BYTE   W12
 BYTE   N12
 BYTE   W12
 BYTE   Fn0
 BYTE   W12
 BYTE   Gn0
 BYTE   W12
 BYTE   N24  As0
 BYTE   W12
 BYTE   PEND 
//  #02 //048   ----------------------------------------
Label_014973F7:
 BYTE   W12
 BYTE   N12  As0  v044
 BYTE   W12
 BYTE   N12
 BYTE   W12
 BYTE   Gn0
 BYTE   W12
 BYTE   As0
 BYTE   W12
 BYTE   N12
 BYTE   W12
 BYTE   Cn1
 BYTE   W12
 BYTE   As0
 BYTE   W12
 BYTE   PEND 
//  #02 //049   ----------------------------------------
Label_01497409:
 BYTE   N12  An0  v044
 BYTE   W12
 BYTE   N12
 BYTE   W12
 BYTE   N12
 BYTE   W12
 BYTE   N12
 BYTE   W12
 BYTE   N12
 BYTE   W12
 BYTE   En0
 BYTE   W12
 BYTE   Gn0
 BYTE   W12
 BYTE   N24  An0
 BYTE   W12
 BYTE   PEND 
//  #02 //050   ----------------------------------------
Label_0149741D:
 BYTE   W12
 BYTE   N12  An0  v044
 BYTE   W12
 BYTE   N12
 BYTE   W12
 BYTE   Gn0
 BYTE   W12
 BYTE   An0
 BYTE   W12
 BYTE   N12
 BYTE   W12
 BYTE   Cn1
 BYTE   W12
 BYTE   An0
 BYTE   W12
 BYTE   PEND 
//  #02 //051   ----------------------------------------
Label_0149742F:
 BYTE   N12  As0  v044
 BYTE   W12
 BYTE   N12
 BYTE   W12
 BYTE   N12
 BYTE   W12
 BYTE   An0
 BYTE   W12
 BYTE   As0
 BYTE   W12
 BYTE   Cn1
 BYTE   W12
 BYTE   As0
 BYTE   W12
 BYTE   N24  An0
 BYTE   W12
 BYTE   PEND 
//  #02 //052   ----------------------------------------
Label_01497443:
 BYTE   W12
 BYTE   N12  An0  v044
 BYTE   W12
 BYTE   Bn0
 BYTE   W12
 BYTE   N12
 BYTE   W12
 BYTE   Cn1
 BYTE   W12
 BYTE   N12
 BYTE   W12
 BYTE   Cs1
 BYTE   W12
 BYTE   N12
 BYTE   W12
 BYTE   PEND 
//  #02 //053   ----------------------------------------
Label_01497455:
 BYTE   N12  Fn0  v044
 BYTE   W12
 BYTE   N12
 BYTE   W12
 BYTE   N12
 BYTE   W12
 BYTE   En0
 BYTE   W12
 BYTE   Fn0
 BYTE   W12
 BYTE   N12
 BYTE   W12
 BYTE   En0
 BYTE   W12
 BYTE   N24  Fn0
 BYTE   W12
 BYTE   PEND 
//  #02 //054   ----------------------------------------
Label_01497469:
 BYTE   W12
 BYTE   N12  Fn0  v044
 BYTE   W12
 BYTE   N12
 BYTE   W12
 BYTE   En0
 BYTE   W12
 BYTE   Fn0
 BYTE   W12
 BYTE   N12
 BYTE   W12
 BYTE   N12
 BYTE   W12
 BYTE   Gn0
 BYTE   W12
 BYTE   PEND 
//  #02 //055   ----------------------------------------
Label_0149747B:
 BYTE   N12  Gs0  v044
 BYTE   W12
 BYTE   N12
 BYTE   W12
 BYTE   N12
 BYTE   W12
 BYTE   Gn0
 BYTE   W12
 BYTE   Gs0
 BYTE   W12
 BYTE   N12
 BYTE   W12
 BYTE   Cn1
 BYTE   W12
 BYTE   N24  As0
 BYTE   W12
 BYTE   PEND 
//  #02 //056   ----------------------------------------
Label_0149748F:
 BYTE   W12
 BYTE   N12  As0  v044
 BYTE   W12
 BYTE   N12
 BYTE   W12
 BYTE   Gs0
 BYTE   W12
 BYTE   As0
 BYTE   W12
 BYTE   N12
 BYTE   W12
 BYTE   Gs0
 BYTE   W12
 BYTE   As0
 BYTE   W12
 BYTE   PEND 
//  #02 //057   ----------------------------------------
Label_014974A1:
 BYTE   N12  Cn1  v044
 BYTE   W12
 BYTE   N12
 BYTE   W12
 BYTE   N12
 BYTE   W12
 BYTE   N12
 BYTE   W12
 BYTE   N12
 BYTE   W12
 BYTE   N12
 BYTE   W12
 BYTE   N12
 BYTE   W12
 BYTE   TIE
 BYTE   W12
 BYTE   PEND 
//  #02 //058   ----------------------------------------
 BYTE   W96
//  #02 //059   ----------------------------------------
 BYTE   EOT
Label_014974B6:
 BYTE   W36
 BYTE   N12  Cn1  v044
 BYTE   W24
 BYTE   N24
 BYTE   W24
 BYTE   N12  Gn0
 BYTE   W12
 BYTE   PEND 
//  #02 //060   ----------------------------------------
 BYTE   PATT
  POIN2 Label_01497256
//  #02 //061   ----------------------------------------
 BYTE   PATT
  POIN2 Label_01497265
//  #02 //062   ----------------------------------------
 BYTE   PATT
  POIN2 Label_01497271
//  #02 //063   ----------------------------------------
 BYTE   PATT
  POIN2 Label_01497280
//  #02 //064   ----------------------------------------
 BYTE   PATT
  POIN2 Label_0149728B
//  #02 //065   ----------------------------------------
 BYTE   PATT
  POIN2 Label_01497280
//  #02 //066   ----------------------------------------
 BYTE   PATT
  POIN2 Label_0149729F
//  #02 //067   ----------------------------------------
 BYTE   PATT
  POIN2 Label_0149724A
//  #02 //068   ----------------------------------------
 BYTE   PATT
  POIN2 Label_01497256
//  #02 //069   ----------------------------------------
 BYTE   PATT
  POIN2 Label_01497265
//  #02 //070   ----------------------------------------
 BYTE   PATT
  POIN2 Label_01497271
//  #02 //071   ----------------------------------------
 BYTE   PATT
  POIN2 Label_01497280
//  #02 //072   ----------------------------------------
 BYTE   PATT
  POIN2 Label_0149728B
//  #02 //073   ----------------------------------------
 BYTE   PATT
  POIN2 Label_01497280
//  #02 //074   ----------------------------------------
 BYTE   PATT
  POIN2 Label_0149729F
//  #02 //075   ----------------------------------------
 BYTE   PATT
  POIN2 Label_014972D6
//  #02 //076   ----------------------------------------
 BYTE   PATT
  POIN2 Label_014972E9
//  #02 //077   ----------------------------------------
 BYTE   PATT
  POIN2 Label_014972F8
//  #02 //078   ----------------------------------------
 BYTE   PATT
  POIN2 Label_0149730C
//  #02 //079   ----------------------------------------
 BYTE   PATT
  POIN2 Label_0149731B
//  #02 //080   ----------------------------------------
 BYTE   PATT
  POIN2 Label_0149732E
//  #02 //081   ----------------------------------------
 BYTE   PATT
  POIN2 Label_0149733F
//  #02 //082   ----------------------------------------
 BYTE   PATT
  POIN2 Label_01497350
//  #02 //083   ----------------------------------------
 BYTE   PATT
  POIN2 Label_014972D6
//  #02 //084   ----------------------------------------
 BYTE   PATT
  POIN2 Label_014972E9
//  #02 //085   ----------------------------------------
 BYTE   PATT
  POIN2 Label_014972F8
//  #02 //086   ----------------------------------------
 BYTE   PATT
  POIN2 Label_0149730C
//  #02 //087   ----------------------------------------
 BYTE   PATT
  POIN2 Label_0149731B
//  #02 //088   ----------------------------------------
 BYTE   PATT
  POIN2 Label_0149732E
//  #02 //089   ----------------------------------------
 BYTE   PATT
  POIN2 Label_0149733F
//  #02 //090   ----------------------------------------
 BYTE   PATT
  POIN2 Label_01497386
//  #02 //091   ----------------------------------------
 BYTE   PATT
  POIN2 Label_01497396
//  #02 //092   ----------------------------------------
 BYTE   PATT
  POIN2 Label_01497396
//  #02 //093   ----------------------------------------
 BYTE   PATT
  POIN2 Label_014973AE
//  #02 //094   ----------------------------------------
Label_0149756B:
 BYTE   N12  Gn1  v044
 BYTE   W12
 BYTE   N24
 BYTE   W24
 BYTE   N24
 BYTE   W24
 BYTE   N12  Gn0
 BYTE   W12
 BYTE   Gn1
 BYTE   W12
 BYTE   Gn0
 BYTE   W12
 BYTE   PEND 
//  #02 //095   ----------------------------------------
 BYTE   PATT
  POIN2 Label_014973BD
//  #02 //096   ----------------------------------------
 BYTE   PATT
  POIN2 Label_014973D1
//  #02 //097   ----------------------------------------
 BYTE   PATT
  POIN2 Label_014973E3
//  #02 //098   ----------------------------------------
 BYTE   PATT
  POIN2 Label_014973F7
//  #02 //099   ----------------------------------------
 BYTE   PATT
  POIN2 Label_01497409
//  #02 //100   ----------------------------------------
 BYTE   PATT
  POIN2 Label_0149741D
//  #02 //101   ----------------------------------------
 BYTE   PATT
  POIN2 Label_0149742F
//  #02 //102   ----------------------------------------
 BYTE   PATT
  POIN2 Label_01497443
//  #02 //103   ----------------------------------------
 BYTE   PATT
  POIN2 Label_01497455
//  #02 //104   ----------------------------------------
 BYTE   PATT
  POIN2 Label_01497469
//  #02 //105   ----------------------------------------
 BYTE   PATT
  POIN2 Label_0149747B
//  #02 //106   ----------------------------------------
 BYTE   PATT
  POIN2 Label_0149748F
//  #02 //107   ----------------------------------------
Label_014975B7:
 BYTE   N12  Cn1  v044
 BYTE   W12
 BYTE   N12
 BYTE   W12
 BYTE   N12
 BYTE   W12
 BYTE   N12
 BYTE   W12
 BYTE   N12
 BYTE   W12
 BYTE   N12
 BYTE   W12
 BYTE   N12
 BYTE   W24
 BYTE   PEND 
//  #02 //108   ----------------------------------------
 BYTE   W96
//  #02 //109   ----------------------------------------
 BYTE   PATT
  POIN2 Label_014971EC
//  #02 //110   ----------------------------------------
 BYTE   PATT
  POIN2 Label_014971FF
//  #02 //111   ----------------------------------------
 BYTE   PATT
  POIN2 Label_01497211
//  #02 //112   ----------------------------------------
 BYTE   PATT
  POIN2 Label_01497224
//  #02 //113   ----------------------------------------
 BYTE   PATT
  POIN2 Label_014971EC
//  #02 //114   ----------------------------------------
 BYTE   PATT
  POIN2 Label_014971FF
//  #02 //115   ----------------------------------------
 BYTE   PATT
  POIN2 Label_01497211
//  #02 //116   ----------------------------------------
 BYTE   PATT
  POIN2 Label_01497224
//  #02 //117   ----------------------------------------
 BYTE   PATT
  POIN2 Label_0149724A
//  #02 //118   ----------------------------------------
 BYTE   PATT
  POIN2 Label_01497256
//  #02 //119   ----------------------------------------
 BYTE   PATT
  POIN2 Label_01497265
//  #02 //120   ----------------------------------------
 BYTE   PATT
  POIN2 Label_01497271
//  #02 //121   ----------------------------------------
 BYTE   PATT
  POIN2 Label_01497280
//  #02 //122   ----------------------------------------
 BYTE   PATT
  POIN2 Label_0149728B
//  #02 //123   ----------------------------------------
 BYTE   PATT
  POIN2 Label_01497280
//  #02 //124   ----------------------------------------
 BYTE   PATT
  POIN2 Label_0149729F
//  #02 //125   ----------------------------------------
 BYTE   PATT
  POIN2 Label_0149724A
//  #02 //126   ----------------------------------------
 BYTE   PATT
  POIN2 Label_01497256
//  #02 //127   ----------------------------------------
 BYTE   PATT
  POIN2 Label_01497265
//  #02 //128   ----------------------------------------
 BYTE   PATT
  POIN2 Label_01497271
//  #02 //129   ----------------------------------------
 BYTE   PATT
  POIN2 Label_01497280
//  #02 //130   ----------------------------------------
 BYTE   PATT
  POIN2 Label_0149728B
//  #02 //131   ----------------------------------------
 BYTE   PATT
  POIN2 Label_01497280
//  #02 //132   ----------------------------------------
 BYTE   PATT
  POIN2 Label_0149729F
//  #02 //133   ----------------------------------------
 BYTE   PATT
  POIN2 Label_014972D6
//  #02 //134   ----------------------------------------
 BYTE   PATT
  POIN2 Label_014972E9
//  #02 //135   ----------------------------------------
 BYTE   PATT
  POIN2 Label_014972F8
//  #02 //136   ----------------------------------------
 BYTE   PATT
  POIN2 Label_0149730C
//  #02 //137   ----------------------------------------
 BYTE   PATT
  POIN2 Label_0149731B
//  #02 //138   ----------------------------------------
 BYTE   PATT
  POIN2 Label_0149732E
//  #02 //139   ----------------------------------------
 BYTE   PATT
  POIN2 Label_0149733F
//  #02 //140   ----------------------------------------
 BYTE   PATT
  POIN2 Label_01497350
//  #02 //141   ----------------------------------------
 BYTE   PATT
  POIN2 Label_014972D6
//  #02 //142   ----------------------------------------
 BYTE   PATT
  POIN2 Label_014972E9
//  #02 //143   ----------------------------------------
 BYTE   PATT
  POIN2 Label_014972F8
//  #02 //144   ----------------------------------------
 BYTE   PATT
  POIN2 Label_0149730C
//  #02 //145   ----------------------------------------
 BYTE   PATT
  POIN2 Label_0149731B
//  #02 //146   ----------------------------------------
 BYTE   PATT
  POIN2 Label_0149732E
//  #02 //147   ----------------------------------------
 BYTE   PATT
  POIN2 Label_0149733F
//  #02 //148   ----------------------------------------
 BYTE   PATT
  POIN2 Label_01497386
//  #02 //149   ----------------------------------------
 BYTE   PATT
  POIN2 Label_01497396
//  #02 //150   ----------------------------------------
 BYTE   PATT
  POIN2 Label_01497396
//  #02 //151   ----------------------------------------
 BYTE   PATT
  POIN2 Label_014973AE
//  #02 //152   ----------------------------------------
 BYTE   PATT
  POIN2 Label_014973BD
//  #02 //153   ----------------------------------------
 BYTE   PATT
  POIN2 Label_014973D1
//  #02 //154   ----------------------------------------
 BYTE   PATT
  POIN2 Label_014973E3
//  #02 //155   ----------------------------------------
 BYTE   PATT
  POIN2 Label_014973F7
//  #02 //156   ----------------------------------------
 BYTE   PATT
  POIN2 Label_01497409
//  #02 //157   ----------------------------------------
 BYTE   PATT
  POIN2 Label_0149741D
//  #02 //158   ----------------------------------------
 BYTE   PATT
  POIN2 Label_0149742F
//  #02 //159   ----------------------------------------
 BYTE   PATT
  POIN2 Label_01497443
//  #02 //160   ----------------------------------------
 BYTE   PATT
  POIN2 Label_01497455
//  #02 //161   ----------------------------------------
 BYTE   PATT
  POIN2 Label_01497469
//  #02 //162   ----------------------------------------
 BYTE   PATT
  POIN2 Label_0149747B
//  #02 //163   ----------------------------------------
 BYTE   PATT
  POIN2 Label_0149748F
//  #02 //164   ----------------------------------------
 BYTE   PATT
  POIN2 Label_014974A1
//  #02 //165   ----------------------------------------
 BYTE   W96
//  #02 //166   ----------------------------------------
 BYTE   EOT
 BYTE   Cn1
//  #02 //167   ----------------------------------------
 BYTE   PATT
  POIN2 Label_014974B6
//  #02 //168   ----------------------------------------
 BYTE   PATT
  POIN2 Label_01497256
//  #02 //169   ----------------------------------------
 BYTE   PATT
  POIN2 Label_01497265
//  #02 //170   ----------------------------------------
 BYTE   PATT
  POIN2 Label_01497271
//  #02 //171   ----------------------------------------
 BYTE   PATT
  POIN2 Label_01497280
//  #02 //172   ----------------------------------------
 BYTE   PATT
  POIN2 Label_0149728B
//  #02 //173   ----------------------------------------
 BYTE   PATT
  POIN2 Label_01497280
//  #02 //174   ----------------------------------------
 BYTE   PATT
  POIN2 Label_0149729F
//  #02 //175   ----------------------------------------
 BYTE   PATT
  POIN2 Label_0149724A
//  #02 //176   ----------------------------------------
 BYTE   PATT
  POIN2 Label_01497256
//  #02 //177   ----------------------------------------
 BYTE   PATT
  POIN2 Label_01497265
//  #02 //178   ----------------------------------------
 BYTE   PATT
  POIN2 Label_01497271
//  #02 //179   ----------------------------------------
 BYTE   PATT
  POIN2 Label_01497280
//  #02 //180   ----------------------------------------
 BYTE   PATT
  POIN2 Label_0149728B
//  #02 //181   ----------------------------------------
 BYTE   PATT
  POIN2 Label_01497280
//  #02 //182   ----------------------------------------
 BYTE   PATT
  POIN2 Label_0149729F
//  #02 //183   ----------------------------------------
 BYTE   PATT
  POIN2 Label_014972D6
//  #02 //184   ----------------------------------------
 BYTE   PATT
  POIN2 Label_014972E9
//  #02 //185   ----------------------------------------
 BYTE   PATT
  POIN2 Label_014972F8
//  #02 //186   ----------------------------------------
 BYTE   PATT
  POIN2 Label_0149730C
//  #02 //187   ----------------------------------------
 BYTE   PATT
  POIN2 Label_0149731B
//  #02 //188   ----------------------------------------
 BYTE   PATT
  POIN2 Label_0149732E
//  #02 //189   ----------------------------------------
 BYTE   PATT
  POIN2 Label_0149733F
//  #02 //190   ----------------------------------------
 BYTE   PATT
  POIN2 Label_01497350
//  #02 //191   ----------------------------------------
 BYTE   PATT
  POIN2 Label_014972D6
//  #02 //192   ----------------------------------------
 BYTE   PATT
  POIN2 Label_014972E9
//  #02 //193   ----------------------------------------
 BYTE   PATT
  POIN2 Label_014972F8
//  #02 //194   ----------------------------------------
 BYTE   PATT
  POIN2 Label_0149730C
//  #02 //195   ----------------------------------------
 BYTE   PATT
  POIN2 Label_0149731B
//  #02 //196   ----------------------------------------
 BYTE   PATT
  POIN2 Label_0149732E
//  #02 //197   ----------------------------------------
 BYTE   PATT
  POIN2 Label_0149733F
//  #02 //198   ----------------------------------------
 BYTE   PATT
  POIN2 Label_01497386
//  #02 //199   ----------------------------------------
 BYTE   PATT
  POIN2 Label_01497396
//  #02 //200   ----------------------------------------
 BYTE   PATT
  POIN2 Label_01497396
//  #02 //201   ----------------------------------------
 BYTE   PATT
  POIN2 Label_014973AE
//  #02 //202   ----------------------------------------
 BYTE   PATT
  POIN2 Label_0149756B
//  #02 //203   ----------------------------------------
 BYTE   PATT
  POIN2 Label_014973BD
//  #02 //204   ----------------------------------------
 BYTE   PATT
  POIN2 Label_014973D1
//  #02 //205   ----------------------------------------
 BYTE   PATT
  POIN2 Label_014973E3
//  #02 //206   ----------------------------------------
 BYTE   PATT
  POIN2 Label_014973F7
//  #02 //207   ----------------------------------------
 BYTE   PATT
  POIN2 Label_01497409
//  #02 //208   ----------------------------------------
 BYTE   PATT
  POIN2 Label_0149741D
//  #02 //209   ----------------------------------------
 BYTE   PATT
  POIN2 Label_0149742F
//  #02 //210   ----------------------------------------
 BYTE   PATT
  POIN2 Label_01497443
//  #02 //211   ----------------------------------------
 BYTE   PATT
  POIN2 Label_01497455
//  #02 //212   ----------------------------------------
 BYTE   PATT
  POIN2 Label_01497469
//  #02 //213   ----------------------------------------
 BYTE   PATT
  POIN2 Label_0149747B
//  #02 //214   ----------------------------------------
 BYTE   PATT
  POIN2 Label_0149748F
//  #02 //215   ----------------------------------------
 BYTE   PATT
  POIN2 Label_014975B7
//  #02 //216   ----------------------------------------
 BYTE   W96
//  #02 //217   ----------------------------------------
 BYTE   GoTo
  POIN2 Label_014971E2
 BYTE   FINE

//**************** Track 3 (Midi-Chn.2) ****************//

MissionStreet_003:
//  #03 //000   ----------------------------------------
 BYTE   KEYSH   MissionStreet_key+0
Label_014977E2:
 BYTE   VOICE   29
 BYTE   MODT 0
 BYTE   LFOS 44
 BYTE   VOL   127*MissionStreet_mvl/mxv
 BYTE   W96
//  #03 //001   ----------------------------------------
 BYTE   W96
//  #03 //002   ----------------------------------------
 BYTE   W96
//  #03 //003   ----------------------------------------
 BYTE   W96
//  #03 //004   ----------------------------------------
 BYTE   W96
//  #03 //005   ----------------------------------------
 BYTE   W96
//  #03 //006   ----------------------------------------
 BYTE   W96
//  #03 //007   ----------------------------------------
 BYTE   W96
//  #03 //008   ----------------------------------------
 BYTE   W96
//  #03 //009   ----------------------------------------
 BYTE   W96
//  #03 //010   ----------------------------------------
Label_014977F4:
 BYTE   N36  En3  v044
 BYTE   W36
 BYTE   N12  Dn3
 BYTE   W12
 BYTE   N48  Cn3
 BYTE   W48
 BYTE   PEND 
//  #03 //011   ----------------------------------------
Label_014977FF:
 BYTE   N12  Dn3  v044
 BYTE   W12
 BYTE   Cn3
 BYTE   W24
 BYTE   En3
 BYTE   W24
 BYTE   Dn3
 BYTE   W24
 BYTE   Cn3
 BYTE   W12
 BYTE   PEND 
//  #03 //012   ----------------------------------------
Label_0149780C:
 BYTE   N36  Dn3  v044
 BYTE   W36
 BYTE   N06  Cs3
 BYTE   W06
 BYTE   Cn3
 BYTE   W06
 BYTE   N48  Bn2
 BYTE   W48
 BYTE   PEND 
//  #03 //013   ----------------------------------------
Label_01497819:
 BYTE   N12  Gs2  v044
 BYTE   W12
 BYTE   N12
 BYTE   W24
 BYTE   N12
 BYTE   W24
 BYTE   An2
 BYTE   W24
 BYTE   Bn2
 BYTE   W12
 BYTE   PEND 
//  #03 //014   ----------------------------------------
 BYTE   N96  Cn3
 BYTE   W96
//  #03 //015   ----------------------------------------
Label_01497829:
 BYTE   N12  An2  v044
 BYTE   W12
 BYTE   N12
 BYTE   W12
 BYTE   N12
 BYTE   W12
 BYTE   N12
 BYTE   W12
 BYTE   N24
 BYTE   W24
 BYTE   Bn2
 BYTE   W24
 BYTE   PEND 
//  #03 //016   ----------------------------------------
Label_01497838:
 BYTE   N48  Cn3  v044
 BYTE   W48
 BYTE   Gs2
 BYTE   W48
 BYTE   PEND 
//  #03 //017   ----------------------------------------
Label_0149783F:
 BYTE   N36  Gn2  v044
 BYTE   W36
 BYTE   N60  Fn2
 BYTE   W60
 BYTE   PEND 
//  #03 //018   ----------------------------------------
 BYTE   PATT
  POIN2 Label_014977F4
//  #03 //019   ----------------------------------------
 BYTE   PATT
  POIN2 Label_014977FF
//  #03 //020   ----------------------------------------
 BYTE   PATT
  POIN2 Label_0149780C
//  #03 //021   ----------------------------------------
 BYTE   PATT
  POIN2 Label_01497819
//  #03 //022   ----------------------------------------
 BYTE   N96  Cn3  v044
 BYTE   W96
//  #03 //023   ----------------------------------------
 BYTE   PATT
  POIN2 Label_01497829
//  #03 //024   ----------------------------------------
Label_01497864:
 BYTE   N72  Cn3  v044
 BYTE   W72
 BYTE   N24  Fn3
 BYTE   N24  Gs3
 BYTE   W24
 BYTE   PEND 
//  #03 //025   ----------------------------------------
Label_0149786E:
 BYTE   N24  En3  v044
 BYTE   N24  Gn3
 BYTE   W24
 BYTE   N72  Dn3
 BYTE   N72  Fn3
 BYTE   W72
 BYTE   PEND 
//  #03 //026   ----------------------------------------
Label_0149787A:
 BYTE   W36
 BYTE   N06  En3  v044
 BYTE   W06
 BYTE   Fn3
 BYTE   W06
 BYTE   N12  En3
 BYTE   W12
 BYTE   Cn3
 BYTE   W12
 BYTE   An2
 BYTE   W12
 BYTE   Gn2
 BYTE   W12
 BYTE   PEND 
//  #03 //027   ----------------------------------------
Label_0149788B:
 BYTE   N12  Gs2  v044
 BYTE   W12
 BYTE   An2
 BYTE   W12
 BYTE   Gn2
 BYTE   W12
 BYTE   N24  Cn3
 BYTE   W24
 BYTE   N12  An2
 BYTE   W12
 BYTE   Dn3
 BYTE   W12
 BYTE   En3
 BYTE   W12
 BYTE   PEND 
//  #03 //028   ----------------------------------------
Label_0149789E:
 BYTE   N12  Dn3  v044
 BYTE   W12
 BYTE   Cs3
 BYTE   W12
 BYTE   Dn3
 BYTE   W12
 BYTE   N36  Gn3
 BYTE   W36
 BYTE   N24  Fn3
 BYTE   W24
 BYTE   PEND 
//  #03 //029   ----------------------------------------
Label_014978AD:
 BYTE   N12  En3  v044
 BYTE   W12
 BYTE   N24
 BYTE   W24
 BYTE   N24
 BYTE   W24
 BYTE   Fn3
 BYTE   W24
 BYTE   N12  Gn3
 BYTE   W12
 BYTE   PEND 
//  #03 //030   ----------------------------------------
Label_014978BB:
 BYTE   N36  Fn3  v044
 BYTE   W36
 BYTE   Cn3
 BYTE   W36
 BYTE   N12  Bn2
 BYTE   W12
 BYTE   Cn3
 BYTE   W12
 BYTE   PEND 
//  #03 //031   ----------------------------------------
Label_014978C7:
 BYTE   N12  Dn3  v044
 BYTE   W12
 BYTE   Cs3
 BYTE   W12
 BYTE   Dn3
 BYTE   W12
 BYTE   N60  Gn3
 BYTE   W60
 BYTE   PEND 
//  #03 //032   ----------------------------------------
Label_014978D3:
 BYTE   N12  An3  v044
 BYTE   W12
 BYTE   Cn3
 BYTE   W12
 BYTE   En3
 BYTE   W12
 BYTE   N24  Fn3
 BYTE   W24
 BYTE   N12  An3
 BYTE   W12
 BYTE   Bn3
 BYTE   W12
 BYTE   Cn4
 BYTE   W12
 BYTE   PEND 
//  #03 //033   ----------------------------------------
Label_014978E6:
 BYTE   N48  Cn4  v044
 BYTE   N48  En4
 BYTE   W48
 BYTE   Bn3
 BYTE   N48  Dn4
 BYTE   W48
 BYTE   PEND 
//  #03 //034   ----------------------------------------
Label_014978F1:
 BYTE   W36
 BYTE   N06  En3  v044
 BYTE   W06
 BYTE   Fn3
 BYTE   W06
 BYTE   N12  En3
 BYTE   W12
 BYTE   Gn3
 BYTE   W12
 BYTE   An3
 BYTE   W12
 BYTE   Cn4
 BYTE   W12
 BYTE   PEND 
//  #03 //035   ----------------------------------------
Label_01497902:
 BYTE   W12
 BYTE   N36  En4  v044
 BYTE   W36
 BYTE   N24  Dn4
 BYTE   W24
 BYTE   Cn4
 BYTE   W24
 BYTE   PEND 
//  #03 //036   ----------------------------------------
Label_0149790D:
 BYTE   N36  Dn4  v044
 BYTE   W36
 BYTE   N12  Cn4
 BYTE   W12
 BYTE   Bn3
 BYTE   W12
 BYTE   N36  Gn4
 BYTE   W36
 BYTE   PEND 
//  #03 //037   ----------------------------------------
Label_0149791A:
 BYTE   N24  Fn4  v044
 BYTE   W24
 BYTE   N12  En4
 BYTE   W12
 BYTE   N60
 BYTE   W60
 BYTE   PEND 
//  #03 //038   ----------------------------------------
Label_01497924:
 BYTE   N48  An3  v044
 BYTE   N48  Cn4
 BYTE   W48
 BYTE   Fn3
 BYTE   N48  An3
 BYTE   W48
 BYTE   PEND 
//  #03 //039   ----------------------------------------
Label_0149792F:
 BYTE   N48  Gn3  v044
 BYTE   N48  Bn3
 BYTE   W48
 BYTE   N48
 BYTE   N48  Dn4
 BYTE   W48
 BYTE   PEND 
//  #03 //040   ----------------------------------------
 BYTE   N96  Fn3
 BYTE   N96  An3
 BYTE   W96
//  #03 //041   ----------------------------------------
Label_0149793F:
 BYTE   N36  Fn3  v044
 BYTE   N36  An3
 BYTE   W36
 BYTE   Gn3
 BYTE   N36  Bn3
 BYTE   W36
 BYTE   N24  An3
 BYTE   N24  Cn4
 BYTE   W24
 BYTE   PEND 
//  #03 //042   ----------------------------------------
Label_0149794F:
 BYTE   N60  Bn3  v044
 BYTE   N60  Dn4
 BYTE   W60
 BYTE   N06  Bn3
 BYTE   N06  Dn4
 BYTE   W06
 BYTE   Cn4
 BYTE   N06  En4
 BYTE   W06
 BYTE   N12  Bn3
 BYTE   N12  Dn4
 BYTE   W12
 BYTE   As3
 BYTE   N12  Cs4
 BYTE   W12
 BYTE   PEND 
//  #03 //043   ----------------------------------------
Label_01497968:
 BYTE   N12  Bn3  v044
 BYTE   N12  Dn4
 BYTE   W12
 BYTE   An3
 BYTE   N12  Cn4
 BYTE   W12
 BYTE   Bn3
 BYTE   N12  Dn4
 BYTE   W12
 BYTE   N60
 BYTE   N60  Gn4
 BYTE   W60
 BYTE   PEND 
//  #03 //044   ----------------------------------------
Label_0149797B:
 BYTE   N06  Cs4  v044
 BYTE   N06  Fs4
 BYTE   W06
 BYTE   Cn4
 BYTE   N06  Fn4
 BYTE   W06
 BYTE   Bn3
 BYTE   N06  En4
 BYTE   W06
 BYTE   As3
 BYTE   N06  Ds4
 BYTE   W78
 BYTE   PEND 
//  #03 //045   ----------------------------------------
Label_0149798E:
 BYTE   N36  Cn3  v044
 BYTE   N36  En3
 BYTE   W36
 BYTE   Dn3
 BYTE   N36  Fn3
 BYTE   W36
 BYTE   N12  Dn3
 BYTE   N12  Fn3
 BYTE   W12
 BYTE   En3
 BYTE   N12  Gn3
 BYTE   W12
 BYTE   PEND 
//  #03 //046   ----------------------------------------
Label_014979A2:
 BYTE   N48  An3  v044
 BYTE   N48  Dn4
 BYTE   W48
 BYTE   Gn3
 BYTE   N48  Cn4
 BYTE   W48
 BYTE   PEND 
//  #03 //047   ----------------------------------------
Label_014979AD:
 BYTE   N24  As2  v044
 BYTE   N24  En3
 BYTE   W24
 BYTE   N12  Cn3
 BYTE   N12  Fn3
 BYTE   W12
 BYTE   N36  Dn3
 BYTE   N36  Gn3
 BYTE   W36
 BYTE   N12
 BYTE   N12  Cn4
 BYTE   W24
 BYTE   PEND 
//  #03 //048   ----------------------------------------
Label_014979C2:
 BYTE   N24  Cn4  v044
 BYTE   N24  En4
 BYTE   W24
 BYTE   N12  As3
 BYTE   N12  Dn4
 BYTE   W12
 BYTE   N60  Fn3
 BYTE   N60  Cn4
 BYTE   W60
 BYTE   PEND 
//  #03 //049   ----------------------------------------
Label_014979D3:
 BYTE   N12  Cn3  v044
 BYTE   N12  En3
 BYTE   W12
 BYTE   Dn3
 BYTE   N12  Fn3
 BYTE   W12
 BYTE   En3
 BYTE   N12  Gn3
 BYTE   W12
 BYTE   N24  An3
 BYTE   N24  Cn4
 BYTE   W24
 BYTE   N12  Bn3
 BYTE   N12  Dn4
 BYTE   W12
 BYTE   N24  Cn4
 BYTE   N24  En4
 BYTE   W24
 BYTE   PEND 
//  #03 //050   ----------------------------------------
Label_014979F1:
 BYTE   N36  En4  v044
 BYTE   N36  Gn4
 BYTE   W36
 BYTE   Dn4
 BYTE   N36  Fn4
 BYTE   W36
 BYTE   N24  Cn4
 BYTE   N24  En4
 BYTE   W24
 BYTE   PEND 
//  #03 //051   ----------------------------------------
Label_01497A01:
 BYTE   N72  As3  v044
 BYTE   N72  Dn4
 BYTE   W72
 BYTE   N12  Cn4
 BYTE   N12  En4
 BYTE   W12
 BYTE   As3
 BYTE   N12  Dn4
 BYTE   W12
 BYTE   PEND 
//  #03 //052   ----------------------------------------
Label_01497A11:
 BYTE   N48  An3  v044
 BYTE   N48  Cs4
 BYTE   W48
 BYTE   Gn4
 BYTE   W48
 BYTE   PEND 
//  #03 //053   ----------------------------------------
Label_01497A1A:
 BYTE   N24  Fn4  v044
 BYTE   W24
 BYTE   N12  En4
 BYTE   W12
 BYTE   N36  Cn4
 BYTE   W36
 BYTE   N24  An3
 BYTE   W24
 BYTE   PEND 
//  #03 //054   ----------------------------------------
Label_01497A28:
 BYTE   N48  Cn4  v044
 BYTE   W48
 BYTE   N24  An3
 BYTE   W24
 BYTE   Cn4
 BYTE   W24
 BYTE   PEND 
//  #03 //055   ----------------------------------------
 BYTE   N96  Ds4
 BYTE   W96
//  #03 //056   ----------------------------------------
Label_01497A35:
 BYTE   N72  Dn4  v044
 BYTE   W72
 BYTE   N12  Cn4
 BYTE   W12
 BYTE   Dn4
 BYTE   W12
 BYTE   PEND 
//  #03 //057   ----------------------------------------
 BYTE   N96  Cn4
 BYTE   W96
//  #03 //058   ----------------------------------------
Label_01497A42:
 BYTE   N06  Bn3  v044
 BYTE   W06
 BYTE   As3
 BYTE   W06
 BYTE   An3
 BYTE   W06
 BYTE   Gs3
 BYTE   W78
 BYTE   PEND 
//  #03 //059   ----------------------------------------
 BYTE   PATT
  POIN2 Label_014977F4
//  #03 //060   ----------------------------------------
 BYTE   PATT
  POIN2 Label_014977FF
//  #03 //061   ----------------------------------------
 BYTE   PATT
  POIN2 Label_0149780C
//  #03 //062   ----------------------------------------
 BYTE   PATT
  POIN2 Label_01497819
//  #03 //063   ----------------------------------------
 BYTE   N96  Cn3  v044
 BYTE   W96
//  #03 //064   ----------------------------------------
 BYTE   PATT
  POIN2 Label_01497829
//  #03 //065   ----------------------------------------
 BYTE   PATT
  POIN2 Label_01497838
//  #03 //066   ----------------------------------------
 BYTE   PATT
  POIN2 Label_0149783F
//  #03 //067   ----------------------------------------
 BYTE   PATT
  POIN2 Label_014977F4
//  #03 //068   ----------------------------------------
 BYTE   PATT
  POIN2 Label_014977FF
//  #03 //069   ----------------------------------------
 BYTE   PATT
  POIN2 Label_0149780C
//  #03 //070   ----------------------------------------
 BYTE   PATT
  POIN2 Label_01497819
//  #03 //071   ----------------------------------------
 BYTE   N96  Cn3  v044
 BYTE   W96
//  #03 //072   ----------------------------------------
 BYTE   PATT
  POIN2 Label_01497829
//  #03 //073   ----------------------------------------
 BYTE   PATT
  POIN2 Label_01497864
//  #03 //074   ----------------------------------------
 BYTE   PATT
  POIN2 Label_0149786E
//  #03 //075   ----------------------------------------
 BYTE   PATT
  POIN2 Label_0149787A
//  #03 //076   ----------------------------------------
 BYTE   PATT
  POIN2 Label_0149788B
//  #03 //077   ----------------------------------------
 BYTE   PATT
  POIN2 Label_0149789E
//  #03 //078   ----------------------------------------
 BYTE   PATT
  POIN2 Label_014978AD
//  #03 //079   ----------------------------------------
 BYTE   PATT
  POIN2 Label_014978BB
//  #03 //080   ----------------------------------------
 BYTE   PATT
  POIN2 Label_014978C7
//  #03 //081   ----------------------------------------
 BYTE   PATT
  POIN2 Label_014978D3
//  #03 //082   ----------------------------------------
 BYTE   PATT
  POIN2 Label_014978E6
//  #03 //083   ----------------------------------------
 BYTE   PATT
  POIN2 Label_014978F1
//  #03 //084   ----------------------------------------
 BYTE   PATT
  POIN2 Label_01497902
//  #03 //085   ----------------------------------------
 BYTE   PATT
  POIN2 Label_0149790D
//  #03 //086   ----------------------------------------
 BYTE   PATT
  POIN2 Label_0149791A
//  #03 //087   ----------------------------------------
 BYTE   PATT
  POIN2 Label_01497924
//  #03 //088   ----------------------------------------
 BYTE   PATT
  POIN2 Label_0149792F
//  #03 //089   ----------------------------------------
 BYTE   N96  Fn3  v044
 BYTE   N96  An3
 BYTE   W96
//  #03 //090   ----------------------------------------
 BYTE   PATT
  POIN2 Label_0149793F
//  #03 //091   ----------------------------------------
 BYTE   PATT
  POIN2 Label_0149794F
//  #03 //092   ----------------------------------------
 BYTE   PATT
  POIN2 Label_01497968
//  #03 //093   ----------------------------------------
Label_01497AF6:
 BYTE   N36  En4  v044
 BYTE   N36  An4
 BYTE   W36
 BYTE   N06  Ds4
 BYTE   N06  Gs4
 BYTE   W06
 BYTE   N30  En4
 BYTE   N30  An4
 BYTE   W30
 BYTE   N06  Ds4
 BYTE   N06  Gs4
 BYTE   W06
 BYTE   N18  En4
 BYTE   N18  An4
 BYTE   W18
 BYTE   PEND 
//  #03 //094   ----------------------------------------
 BYTE   N96  Dn4
 BYTE   N96  Gn4
 BYTE   W96
//  #03 //095   ----------------------------------------
 BYTE   PATT
  POIN2 Label_0149798E
//  #03 //096   ----------------------------------------
 BYTE   PATT
  POIN2 Label_014979A2
//  #03 //097   ----------------------------------------
 BYTE   PATT
  POIN2 Label_014979AD
//  #03 //098   ----------------------------------------
 BYTE   PATT
  POIN2 Label_014979C2
//  #03 //099   ----------------------------------------
 BYTE   PATT
  POIN2 Label_014979D3
//  #03 //100   ----------------------------------------
 BYTE   PATT
  POIN2 Label_014979F1
//  #03 //101   ----------------------------------------
 BYTE   PATT
  POIN2 Label_01497A01
//  #03 //102   ----------------------------------------
 BYTE   PATT
  POIN2 Label_01497A11
//  #03 //103   ----------------------------------------
 BYTE   PATT
  POIN2 Label_01497A1A
//  #03 //104   ----------------------------------------
 BYTE   PATT
  POIN2 Label_01497A28
//  #03 //105   ----------------------------------------
 BYTE   N96  Ds4  v044
 BYTE   W96
//  #03 //106   ----------------------------------------
 BYTE   PATT
  POIN2 Label_01497A35
//  #03 //107   ----------------------------------------
 BYTE   N96  Cn4  v044
 BYTE   W96
//  #03 //108   ----------------------------------------
 BYTE   PATT
  POIN2 Label_01497A42
//  #03 //109   ----------------------------------------
 BYTE   W96
//  #03 //110   ----------------------------------------
 BYTE   W96
//  #03 //111   ----------------------------------------
 BYTE   W96
//  #03 //112   ----------------------------------------
 BYTE   W96
//  #03 //113   ----------------------------------------
 BYTE   W96
//  #03 //114   ----------------------------------------
 BYTE   W96
//  #03 //115   ----------------------------------------
 BYTE   W96
//  #03 //116   ----------------------------------------
 BYTE   W96
//  #03 //117   ----------------------------------------
 BYTE   PATT
  POIN2 Label_014977F4
//  #03 //118   ----------------------------------------
 BYTE   PATT
  POIN2 Label_014977FF
//  #03 //119   ----------------------------------------
 BYTE   PATT
  POIN2 Label_0149780C
//  #03 //120   ----------------------------------------
 BYTE   PATT
  POIN2 Label_01497819
//  #03 //121   ----------------------------------------
 BYTE   N96  Cn3  v044
 BYTE   W96
//  #03 //122   ----------------------------------------
 BYTE   PATT
  POIN2 Label_01497829
//  #03 //123   ----------------------------------------
 BYTE   PATT
  POIN2 Label_01497838
//  #03 //124   ----------------------------------------
 BYTE   PATT
  POIN2 Label_0149783F
//  #03 //125   ----------------------------------------
 BYTE   PATT
  POIN2 Label_014977F4
//  #03 //126   ----------------------------------------
 BYTE   PATT
  POIN2 Label_014977FF
//  #03 //127   ----------------------------------------
 BYTE   PATT
  POIN2 Label_0149780C
//  #03 //128   ----------------------------------------
 BYTE   PATT
  POIN2 Label_01497819
//  #03 //129   ----------------------------------------
 BYTE   N96  Cn3  v044
 BYTE   W96
//  #03 //130   ----------------------------------------
 BYTE   PATT
  POIN2 Label_01497829
//  #03 //131   ----------------------------------------
 BYTE   PATT
  POIN2 Label_01497864
//  #03 //132   ----------------------------------------
 BYTE   PATT
  POIN2 Label_0149786E
//  #03 //133   ----------------------------------------
 BYTE   PATT
  POIN2 Label_0149787A
//  #03 //134   ----------------------------------------
 BYTE   PATT
  POIN2 Label_0149788B
//  #03 //135   ----------------------------------------
 BYTE   PATT
  POIN2 Label_0149789E
//  #03 //136   ----------------------------------------
 BYTE   PATT
  POIN2 Label_014978AD
//  #03 //137   ----------------------------------------
 BYTE   PATT
  POIN2 Label_014978BB
//  #03 //138   ----------------------------------------
 BYTE   PATT
  POIN2 Label_014978C7
//  #03 //139   ----------------------------------------
 BYTE   PATT
  POIN2 Label_014978D3
//  #03 //140   ----------------------------------------
 BYTE   PATT
  POIN2 Label_014978E6
//  #03 //141   ----------------------------------------
 BYTE   PATT
  POIN2 Label_014978F1
//  #03 //142   ----------------------------------------
 BYTE   PATT
  POIN2 Label_01497902
//  #03 //143   ----------------------------------------
 BYTE   PATT
  POIN2 Label_0149790D
//  #03 //144   ----------------------------------------
 BYTE   PATT
  POIN2 Label_0149791A
//  #03 //145   ----------------------------------------
 BYTE   PATT
  POIN2 Label_01497924
//  #03 //146   ----------------------------------------
 BYTE   PATT
  POIN2 Label_0149792F
//  #03 //147   ----------------------------------------
 BYTE   N96  Fn3  v044
 BYTE   N96  An3
 BYTE   W96
//  #03 //148   ----------------------------------------
 BYTE   PATT
  POIN2 Label_0149793F
//  #03 //149   ----------------------------------------
 BYTE   PATT
  POIN2 Label_0149794F
//  #03 //150   ----------------------------------------
 BYTE   PATT
  POIN2 Label_01497968
//  #03 //151   ----------------------------------------
 BYTE   PATT
  POIN2 Label_0149797B
//  #03 //152   ----------------------------------------
 BYTE   PATT
  POIN2 Label_0149798E
//  #03 //153   ----------------------------------------
 BYTE   PATT
  POIN2 Label_014979A2
//  #03 //154   ----------------------------------------
 BYTE   PATT
  POIN2 Label_014979AD
//  #03 //155   ----------------------------------------
 BYTE   PATT
  POIN2 Label_014979C2
//  #03 //156   ----------------------------------------
 BYTE   PATT
  POIN2 Label_014979D3
//  #03 //157   ----------------------------------------
 BYTE   PATT
  POIN2 Label_014979F1
//  #03 //158   ----------------------------------------
 BYTE   PATT
  POIN2 Label_01497A01
//  #03 //159   ----------------------------------------
 BYTE   PATT
  POIN2 Label_01497A11
//  #03 //160   ----------------------------------------
 BYTE   PATT
  POIN2 Label_01497A1A
//  #03 //161   ----------------------------------------
 BYTE   PATT
  POIN2 Label_01497A28
//  #03 //162   ----------------------------------------
 BYTE   N96  Ds4  v044
 BYTE   W96
//  #03 //163   ----------------------------------------
 BYTE   PATT
  POIN2 Label_01497A35
//  #03 //164   ----------------------------------------
 BYTE   N96  Cn4  v044
 BYTE   W96
//  #03 //165   ----------------------------------------
 BYTE   PATT
  POIN2 Label_01497A42
//  #03 //166   ----------------------------------------
 BYTE   PATT
  POIN2 Label_014977F4
//  #03 //167   ----------------------------------------
 BYTE   PATT
  POIN2 Label_014977FF
//  #03 //168   ----------------------------------------
 BYTE   PATT
  POIN2 Label_0149780C
//  #03 //169   ----------------------------------------
 BYTE   PATT
  POIN2 Label_01497819
//  #03 //170   ----------------------------------------
 BYTE   N96  Cn3  v044
 BYTE   W96
//  #03 //171   ----------------------------------------
 BYTE   PATT
  POIN2 Label_01497829
//  #03 //172   ----------------------------------------
 BYTE   PATT
  POIN2 Label_01497838
//  #03 //173   ----------------------------------------
 BYTE   PATT
  POIN2 Label_0149783F
//  #03 //174   ----------------------------------------
 BYTE   PATT
  POIN2 Label_014977F4
//  #03 //175   ----------------------------------------
 BYTE   PATT
  POIN2 Label_014977FF
//  #03 //176   ----------------------------------------
 BYTE   PATT
  POIN2 Label_0149780C
//  #03 //177   ----------------------------------------
 BYTE   PATT
  POIN2 Label_01497819
//  #03 //178   ----------------------------------------
 BYTE   N96  Cn3  v044
 BYTE   W96
//  #03 //179   ----------------------------------------
 BYTE   PATT
  POIN2 Label_01497829
//  #03 //180   ----------------------------------------
 BYTE   PATT
  POIN2 Label_01497864
//  #03 //181   ----------------------------------------
 BYTE   PATT
  POIN2 Label_0149786E
//  #03 //182   ----------------------------------------
 BYTE   PATT
  POIN2 Label_0149787A
//  #03 //183   ----------------------------------------
 BYTE   PATT
  POIN2 Label_0149788B
//  #03 //184   ----------------------------------------
 BYTE   PATT
  POIN2 Label_0149789E
//  #03 //185   ----------------------------------------
 BYTE   PATT
  POIN2 Label_014978AD
//  #03 //186   ----------------------------------------
 BYTE   PATT
  POIN2 Label_014978BB
//  #03 //187   ----------------------------------------
 BYTE   PATT
  POIN2 Label_014978C7
//  #03 //188   ----------------------------------------
 BYTE   PATT
  POIN2 Label_014978D3
//  #03 //189   ----------------------------------------
 BYTE   PATT
  POIN2 Label_014978E6
//  #03 //190   ----------------------------------------
 BYTE   PATT
  POIN2 Label_014978F1
//  #03 //191   ----------------------------------------
 BYTE   PATT
  POIN2 Label_01497902
//  #03 //192   ----------------------------------------
 BYTE   PATT
  POIN2 Label_0149790D
//  #03 //193   ----------------------------------------
 BYTE   PATT
  POIN2 Label_0149791A
//  #03 //194   ----------------------------------------
 BYTE   PATT
  POIN2 Label_01497924
//  #03 //195   ----------------------------------------
 BYTE   PATT
  POIN2 Label_0149792F
//  #03 //196   ----------------------------------------
 BYTE   N96  Fn3  v044
 BYTE   N96  An3
 BYTE   W96
//  #03 //197   ----------------------------------------
 BYTE   PATT
  POIN2 Label_0149793F
//  #03 //198   ----------------------------------------
 BYTE   PATT
  POIN2 Label_0149794F
//  #03 //199   ----------------------------------------
 BYTE   PATT
  POIN2 Label_01497968
//  #03 //200   ----------------------------------------
 BYTE   PATT
  POIN2 Label_01497AF6
//  #03 //201   ----------------------------------------
 BYTE   N96  Dn4  v044
 BYTE   N96  Gn4
 BYTE   W96
//  #03 //202   ----------------------------------------
 BYTE   PATT
  POIN2 Label_0149798E
//  #03 //203   ----------------------------------------
 BYTE   PATT
  POIN2 Label_014979A2
//  #03 //204   ----------------------------------------
 BYTE   PATT
  POIN2 Label_014979AD
//  #03 //205   ----------------------------------------
 BYTE   PATT
  POIN2 Label_014979C2
//  #03 //206   ----------------------------------------
 BYTE   PATT
  POIN2 Label_014979D3
//  #03 //207   ----------------------------------------
 BYTE   PATT
  POIN2 Label_014979F1
//  #03 //208   ----------------------------------------
 BYTE   PATT
  POIN2 Label_01497A01
//  #03 //209   ----------------------------------------
 BYTE   PATT
  POIN2 Label_01497A11
//  #03 //210   ----------------------------------------
 BYTE   PATT
  POIN2 Label_01497A1A
//  #03 //211   ----------------------------------------
 BYTE   PATT
  POIN2 Label_01497A28
//  #03 //212   ----------------------------------------
 BYTE   N96  Ds4  v044
 BYTE   W96
//  #03 //213   ----------------------------------------
 BYTE   PATT
  POIN2 Label_01497A35
//  #03 //214   ----------------------------------------
 BYTE   N96  Cn4  v044
 BYTE   W96
//  #03 //215   ----------------------------------------
 BYTE   PATT
  POIN2 Label_01497A42
//  #03 //216   ----------------------------------------
 BYTE   GoTo
  POIN2 Label_014977E2
 BYTE   FINE

//**************** Track 4 (Midi-Chn.3) ****************//

MissionStreet_004:
//  #04 //000   ----------------------------------------
 BYTE   KEYSH   MissionStreet_key+0
Label_01497D56:
 BYTE   VOICE   4
 BYTE   MODT 0
 BYTE   LFOS 44
 BYTE   VOL   127*MissionStreet_mvl/mxv
 BYTE   W96
//  #04 //001   ----------------------------------------
 BYTE   W96
//  #04 //002   ----------------------------------------
 BYTE   N96  Cn3  v044
 BYTE   N96  En3
 BYTE   W96
//  #04 //003   ----------------------------------------
 BYTE   Dn3
 BYTE   N96  Fn3
 BYTE   W96
//  #04 //004   ----------------------------------------
 BYTE   Cn3
 BYTE   N96  En3
 BYTE   W96
//  #04 //005   ----------------------------------------
 BYTE   Bn2
 BYTE   N96  Dn3
 BYTE   W96
//  #04 //006   ----------------------------------------
 BYTE   Cn3
 BYTE   N96  En3
 BYTE   W96
//  #04 //007   ----------------------------------------
 BYTE   Dn3
 BYTE   N96  Fn3
 BYTE   W96
//  #04 //008   ----------------------------------------
 BYTE   Cn3
 BYTE   N96  En3
 BYTE   W96
//  #04 //009   ----------------------------------------
 BYTE   Bn2
 BYTE   N96  Dn3
 BYTE   W96
//  #04 //010   ----------------------------------------
Label_01497D82:
 BYTE   TIE  Cn3  v044
 BYTE   TIE  En3
 BYTE   W96
 BYTE   PEND 
//  #04 //011   ----------------------------------------
 BYTE   W12
 BYTE   N12  Gn2
 BYTE   W12
 BYTE   EOT
 BYTE   Cn3
 BYTE   N36
 BYTE   W12
 BYTE   EOT
 BYTE   En3
 BYTE   N60
 BYTE   W24
 BYTE   N36  Cn3
 BYTE   W36
//  #04 //012   ----------------------------------------
Label_01497D98:
 BYTE   TIE  Bn2  v044
 BYTE   TIE  Dn3
 BYTE   W96
 BYTE   PEND 
//  #04 //013   ----------------------------------------
 BYTE   W12
 BYTE   N12  Gs2
 BYTE   W12
 BYTE   EOT
 BYTE   Bn2
 BYTE   N48
 BYTE   W12
 BYTE   EOT
 BYTE   Dn3
 BYTE   N24
 BYTE   W24
 BYTE   N36
 BYTE   W12
 BYTE   N24  Bn2
 BYTE   W12
 BYTE   N12  Gs2
 BYTE   W12
//  #04 //014   ----------------------------------------
Label_01497DB3:
 BYTE   TIE  An2  v044
 BYTE   N96  Dn3
 BYTE   W36
 BYTE   N60  Fn3
 BYTE   W60
 BYTE   PEND 
//  #04 //015   ----------------------------------------
 BYTE   N72  Cn3
 BYTE   W24
 BYTE   EOT
 BYTE   An2
 BYTE   N72
 BYTE   W48
 BYTE   N24  Cn3
 BYTE   W12
 BYTE   N12  Fn3
 BYTE   W12
//  #04 //016   ----------------------------------------
Label_01497DCA:
 BYTE   TIE  Gs2  v044
 BYTE   N36  Cn3
 BYTE   W36
 BYTE   N60
 BYTE   N60  Fn3
 BYTE   W60
 BYTE   PEND 
//  #04 //017   ----------------------------------------
 BYTE   N24  Cn3
 BYTE   W12
 BYTE   EOT
 BYTE   Gs2
 BYTE   N36
 BYTE   W12
 BYTE   N24  Cn3
 BYTE   W24
 BYTE   N48  Bn2
 BYTE   N24  Dn3
 BYTE   W24
 BYTE   N24
 BYTE   W12
 BYTE   N12  Fn3
 BYTE   W12
//  #04 //018   ----------------------------------------
 BYTE   PATT
  POIN2 Label_01497D82
//  #04 //019   ----------------------------------------
 BYTE   W12
 BYTE   N12  Gn2  v044
 BYTE   W12
 BYTE   EOT
 BYTE   Cn3
 BYTE   N36
 BYTE   W12
 BYTE   EOT
 BYTE   En3
 BYTE   N60
 BYTE   W24
 BYTE   N36  Cn3
 BYTE   W36
//  #04 //020   ----------------------------------------
 BYTE   PATT
  POIN2 Label_01497D98
//  #04 //021   ----------------------------------------
 BYTE   W12
 BYTE   N12  Gs2  v044
 BYTE   W12
 BYTE   EOT
 BYTE   Bn2
 BYTE   N48
 BYTE   W12
 BYTE   EOT
 BYTE   Dn3
 BYTE   N24
 BYTE   W24
 BYTE   N36
 BYTE   W12
 BYTE   N24  Bn2
 BYTE   W12
 BYTE   N12  Gs2
 BYTE   W12
//  #04 //022   ----------------------------------------
 BYTE   PATT
  POIN2 Label_01497DB3
//  #04 //023   ----------------------------------------
 BYTE   N72  Cn3  v044
 BYTE   W24
 BYTE   EOT
 BYTE   An2
 BYTE   N72
 BYTE   W48
 BYTE   N24  Cn3
 BYTE   W12
 BYTE   N12  Fn3
 BYTE   W12
//  #04 //024   ----------------------------------------
 BYTE   PATT
  POIN2 Label_01497DCA
//  #04 //025   ----------------------------------------
 BYTE   N24  Cn3  v044
 BYTE   W12
 BYTE   EOT
 BYTE   Gs2
 BYTE   N36
 BYTE   W12
 BYTE   N24  Cn3
 BYTE   W24
 BYTE   N48  Bn2
 BYTE   N24  Dn3
 BYTE   W24
 BYTE   N24
 BYTE   W12
 BYTE   N12  Fn3
 BYTE   W12
//  #04 //026   ----------------------------------------
 BYTE   N96  Cn3
 BYTE   N96  En3
 BYTE   W96
//  #04 //027   ----------------------------------------
 BYTE   An2
 BYTE   N96  Cn3
 BYTE   W96
//  #04 //028   ----------------------------------------
 BYTE   Bn2
 BYTE   N96  Dn3
 BYTE   W96
//  #04 //029   ----------------------------------------
 BYTE   Cs3
 BYTE   N96  En3
 BYTE   W96
//  #04 //030   ----------------------------------------
 BYTE   Cn3
 BYTE   N96  En3
 BYTE   W96
//  #04 //031   ----------------------------------------
 BYTE   Bn2
 BYTE   N96  Dn3
 BYTE   W96
//  #04 //032   ----------------------------------------
 BYTE   An2
 BYTE   N96  Cn3
 BYTE   W96
//  #04 //033   ----------------------------------------
 BYTE   Bn2
 BYTE   N96  Dn3
 BYTE   W96
//  #04 //034   ----------------------------------------
 BYTE   Cn3
 BYTE   N96  En3
 BYTE   W96
//  #04 //035   ----------------------------------------
 BYTE   An2
 BYTE   N96  Cn3
 BYTE   W96
//  #04 //036   ----------------------------------------
 BYTE   Bn2
 BYTE   N96  Dn3
 BYTE   W96
//  #04 //037   ----------------------------------------
 BYTE   Cs3
 BYTE   N96  En3
 BYTE   W96
//  #04 //038   ----------------------------------------
 BYTE   Cn3
 BYTE   N96  En3
 BYTE   W96
//  #04 //039   ----------------------------------------
 BYTE   Bn2
 BYTE   N96  Dn3
 BYTE   W96
//  #04 //040   ----------------------------------------
 BYTE   An2
 BYTE   N96  Cn3
 BYTE   W96
//  #04 //041   ----------------------------------------
 BYTE   An2
 BYTE   N96  Cn3
 BYTE   W96
//  #04 //042   ----------------------------------------
 BYTE   Bn2
 BYTE   N96  Dn3
 BYTE   W96
//  #04 //043   ----------------------------------------
 BYTE   Bn2
 BYTE   N96  Dn3
 BYTE   W96
//  #04 //044   ----------------------------------------
 BYTE   W96
//  #04 //045   ----------------------------------------
 BYTE   Cn3
 BYTE   N96  En3
 BYTE   W96
//  #04 //046   ----------------------------------------
 BYTE   Cn3
 BYTE   N96  En3
 BYTE   W96
//  #04 //047   ----------------------------------------
 BYTE   As2
 BYTE   N96  Dn3
 BYTE   W96
//  #04 //048   ----------------------------------------
 BYTE   As2
 BYTE   N96  Dn3
 BYTE   W96
//  #04 //049   ----------------------------------------
 BYTE   Cn3
 BYTE   N96  En3
 BYTE   W96
//  #04 //050   ----------------------------------------
 BYTE   Cn3
 BYTE   N96  En3
 BYTE   W96
//  #04 //051   ----------------------------------------
 BYTE   As2
 BYTE   N96  Dn3
 BYTE   W96
//  #04 //052   ----------------------------------------
 BYTE   Cs3
 BYTE   N96  En3
 BYTE   W96
//  #04 //053   ----------------------------------------
 BYTE   Cn3
 BYTE   N96  En3
 BYTE   W96
//  #04 //054   ----------------------------------------
 BYTE   Cn3
 BYTE   N96  En3
 BYTE   W96
//  #04 //055   ----------------------------------------
 BYTE   Cn3
 BYTE   N96  Ds3
 BYTE   W96
//  #04 //056   ----------------------------------------
 BYTE   Dn3
 BYTE   N96  Fn3
 BYTE   W96
//  #04 //057   ----------------------------------------
 BYTE   Cn3
 BYTE   N96  En3
 BYTE   W96
//  #04 //058   ----------------------------------------
 BYTE   W96
//  #04 //059   ----------------------------------------
 BYTE   PATT
  POIN2 Label_01497D82
//  #04 //060   ----------------------------------------
 BYTE   W12
 BYTE   N12  Gn2  v044
 BYTE   W12
 BYTE   EOT
 BYTE   Cn3
 BYTE   N36
 BYTE   W12
 BYTE   EOT
 BYTE   En3
 BYTE   N60
 BYTE   W24
 BYTE   N36  Cn3
 BYTE   W36
//  #04 //061   ----------------------------------------
 BYTE   PATT
  POIN2 Label_01497D98
//  #04 //062   ----------------------------------------
 BYTE   W12
 BYTE   N12  Gs2  v044
 BYTE   W12
 BYTE   EOT
 BYTE   Bn2
 BYTE   N48
 BYTE   W12
 BYTE   EOT
 BYTE   Dn3
 BYTE   N24
 BYTE   W24
 BYTE   N36
 BYTE   W12
 BYTE   N24  Bn2
 BYTE   W12
 BYTE   N12  Gs2
 BYTE   W12
//  #04 //063   ----------------------------------------
 BYTE   PATT
  POIN2 Label_01497DB3
//  #04 //064   ----------------------------------------
 BYTE   N72  Cn3  v044
 BYTE   W24
 BYTE   EOT
 BYTE   An2
 BYTE   N72
 BYTE   W48
 BYTE   N24  Cn3
 BYTE   W12
 BYTE   N12  Fn3
 BYTE   W12
//  #04 //065   ----------------------------------------
 BYTE   PATT
  POIN2 Label_01497DCA
//  #04 //066   ----------------------------------------
 BYTE   N24  Cn3  v044
 BYTE   W12
 BYTE   EOT
 BYTE   Gs2
 BYTE   N36
 BYTE   W12
 BYTE   N24  Cn3
 BYTE   W24
 BYTE   N48  Bn2
 BYTE   N24  Dn3
 BYTE   W24
 BYTE   N24
 BYTE   W12
 BYTE   N12  Fn3
 BYTE   W12
//  #04 //067   ----------------------------------------
 BYTE   PATT
  POIN2 Label_01497D82
//  #04 //068   ----------------------------------------
 BYTE   W12
 BYTE   N12  Gn2  v044
 BYTE   W12
 BYTE   EOT
 BYTE   Cn3
 BYTE   N36
 BYTE   W12
 BYTE   EOT
 BYTE   En3
 BYTE   N60
 BYTE   W24
 BYTE   N36  Cn3
 BYTE   W36
//  #04 //069   ----------------------------------------
 BYTE   PATT
  POIN2 Label_01497D98
//  #04 //070   ----------------------------------------
 BYTE   W12
 BYTE   N12  Gs2  v044
 BYTE   W12
 BYTE   EOT
 BYTE   Bn2
 BYTE   N48
 BYTE   W12
 BYTE   EOT
 BYTE   Dn3
 BYTE   N24
 BYTE   W24
 BYTE   N36
 BYTE   W12
 BYTE   N24  Bn2
 BYTE   W12
 BYTE   N12  Gs2
 BYTE   W12
//  #04 //071   ----------------------------------------
 BYTE   PATT
  POIN2 Label_01497DB3
//  #04 //072   ----------------------------------------
 BYTE   N72  Cn3  v044
 BYTE   W24
 BYTE   EOT
 BYTE   An2
 BYTE   N72
 BYTE   W48
 BYTE   N24  Cn3
 BYTE   W12
 BYTE   N12  Fn3
 BYTE   W12
//  #04 //073   ----------------------------------------
 BYTE   PATT
  POIN2 Label_01497DCA
//  #04 //074   ----------------------------------------
 BYTE   N24  Cn3  v044
 BYTE   W12
 BYTE   EOT
 BYTE   Gs2
 BYTE   N36
 BYTE   W12
 BYTE   N24  Cn3
 BYTE   W24
 BYTE   N48  Bn2
 BYTE   N24  Dn3
 BYTE   W24
 BYTE   N24
 BYTE   W12
 BYTE   N12  Fn3
 BYTE   W12
//  #04 //075   ----------------------------------------
 BYTE   N96  Cn3
 BYTE   N96  En3
 BYTE   W96
//  #04 //076   ----------------------------------------
 BYTE   An2
 BYTE   N96  Cn3
 BYTE   W96
//  #04 //077   ----------------------------------------
 BYTE   Bn2
 BYTE   N96  Dn3
 BYTE   W96
//  #04 //078   ----------------------------------------
 BYTE   Cs3
 BYTE   N96  En3
 BYTE   W96
//  #04 //079   ----------------------------------------
 BYTE   Cn3
 BYTE   N96  En3
 BYTE   W96
//  #04 //080   ----------------------------------------
 BYTE   Bn2
 BYTE   N96  Dn3
 BYTE   W96
//  #04 //081   ----------------------------------------
 BYTE   An2
 BYTE   N96  Cn3
 BYTE   W96
//  #04 //082   ----------------------------------------
 BYTE   Bn2
 BYTE   N96  Dn3
 BYTE   W96
//  #04 //083   ----------------------------------------
 BYTE   Cn3
 BYTE   N96  En3
 BYTE   W96
//  #04 //084   ----------------------------------------
 BYTE   An2
 BYTE   N96  Cn3
 BYTE   W96
//  #04 //085   ----------------------------------------
 BYTE   Bn2
 BYTE   N96  Dn3
 BYTE   W96
//  #04 //086   ----------------------------------------
 BYTE   Cs3
 BYTE   N96  En3
 BYTE   W96
//  #04 //087   ----------------------------------------
 BYTE   Cn3
 BYTE   N96  En3
 BYTE   W96
//  #04 //088   ----------------------------------------
 BYTE   Bn2
 BYTE   N96  Dn3
 BYTE   W96
//  #04 //089   ----------------------------------------
 BYTE   An2
 BYTE   N96  Cn3
 BYTE   W96
//  #04 //090   ----------------------------------------
 BYTE   An2
 BYTE   N96  Cn3
 BYTE   W96
//  #04 //091   ----------------------------------------
 BYTE   Bn2
 BYTE   N96  Dn3
 BYTE   W96
//  #04 //092   ----------------------------------------
 BYTE   Bn2
 BYTE   N96  Dn3
 BYTE   W96
//  #04 //093   ----------------------------------------
 BYTE   W96
//  #04 //094   ----------------------------------------
 BYTE   W96
//  #04 //095   ----------------------------------------
 BYTE   Cn3
 BYTE   N96  En3
 BYTE   W96
//  #04 //096   ----------------------------------------
 BYTE   Cn3
 BYTE   N96  En3
 BYTE   W96
//  #04 //097   ----------------------------------------
 BYTE   As2
 BYTE   N96  Dn3
 BYTE   W96
//  #04 //098   ----------------------------------------
 BYTE   As2
 BYTE   N96  Dn3
 BYTE   W96
//  #04 //099   ----------------------------------------
 BYTE   Cn3
 BYTE   N96  En3
 BYTE   W96
//  #04 //100   ----------------------------------------
 BYTE   Cn3
 BYTE   N96  En3
 BYTE   W96
//  #04 //101   ----------------------------------------
 BYTE   As2
 BYTE   N96  Dn3
 BYTE   W96
//  #04 //102   ----------------------------------------
 BYTE   Cs3
 BYTE   N96  En3
 BYTE   W96
//  #04 //103   ----------------------------------------
 BYTE   Cn3
 BYTE   N96  En3
 BYTE   W96
//  #04 //104   ----------------------------------------
 BYTE   Cn3
 BYTE   N96  En3
 BYTE   W96
//  #04 //105   ----------------------------------------
 BYTE   Cn3
 BYTE   N96  Ds3
 BYTE   W96
//  #04 //106   ----------------------------------------
 BYTE   Dn3
 BYTE   N96  Fn3
 BYTE   W96
//  #04 //107   ----------------------------------------
 BYTE   Cn3
 BYTE   N96  En3
 BYTE   W96
//  #04 //108   ----------------------------------------
 BYTE   W96
//  #04 //109   ----------------------------------------
 BYTE   Cn3
 BYTE   N96  En3
 BYTE   W96
//  #04 //110   ----------------------------------------
 BYTE   Dn3
 BYTE   N96  Fn3
 BYTE   W96
//  #04 //111   ----------------------------------------
 BYTE   Cn3
 BYTE   N96  En3
 BYTE   W96
//  #04 //112   ----------------------------------------
 BYTE   Bn2
 BYTE   N96  Dn3
 BYTE   W96
//  #04 //113   ----------------------------------------
 BYTE   Cn3
 BYTE   N96  En3
 BYTE   W96
//  #04 //114   ----------------------------------------
 BYTE   Dn3
 BYTE   N96  Fn3
 BYTE   W96
//  #04 //115   ----------------------------------------
 BYTE   Cn3
 BYTE   N96  En3
 BYTE   W96
//  #04 //116   ----------------------------------------
 BYTE   Bn2
 BYTE   N96  Dn3
 BYTE   W96
//  #04 //117   ----------------------------------------
 BYTE   PATT
  POIN2 Label_01497D82
//  #04 //118   ----------------------------------------
 BYTE   W12
 BYTE   N12  Gn2  v044
 BYTE   W12
 BYTE   EOT
 BYTE   Cn3
 BYTE   N36
 BYTE   W12
 BYTE   EOT
 BYTE   En3
 BYTE   N60
 BYTE   W24
 BYTE   N36  Cn3
 BYTE   W36
//  #04 //119   ----------------------------------------
 BYTE   PATT
  POIN2 Label_01497D98
//  #04 //120   ----------------------------------------
 BYTE   W12
 BYTE   N12  Gs2  v044
 BYTE   W12
 BYTE   EOT
 BYTE   Bn2
 BYTE   N48
 BYTE   W12
 BYTE   EOT
 BYTE   Dn3
 BYTE   N24
 BYTE   W24
 BYTE   N36
 BYTE   W12
 BYTE   N24  Bn2
 BYTE   W12
 BYTE   N12  Gs2
 BYTE   W12
//  #04 //121   ----------------------------------------
 BYTE   PATT
  POIN2 Label_01497DB3
//  #04 //122   ----------------------------------------
 BYTE   N72  Cn3  v044
 BYTE   W24
 BYTE   EOT
 BYTE   An2
 BYTE   N72
 BYTE   W48
 BYTE   N24  Cn3
 BYTE   W12
 BYTE   N12  Fn3
 BYTE   W12
//  #04 //123   ----------------------------------------
 BYTE   PATT
  POIN2 Label_01497DCA
//  #04 //124   ----------------------------------------
 BYTE   N24  Cn3  v044
 BYTE   W12
 BYTE   EOT
 BYTE   Gs2
 BYTE   N36
 BYTE   W12
 BYTE   N24  Cn3
 BYTE   W24
 BYTE   N48  Bn2
 BYTE   N24  Dn3
 BYTE   W24
 BYTE   N24
 BYTE   W12
 BYTE   N12  Fn3
 BYTE   W12
//  #04 //125   ----------------------------------------
 BYTE   PATT
  POIN2 Label_01497D82
//  #04 //126   ----------------------------------------
 BYTE   W12
 BYTE   N12  Gn2  v044
 BYTE   W12
 BYTE   EOT
 BYTE   Cn3
 BYTE   N36
 BYTE   W12
 BYTE   EOT
 BYTE   En3
 BYTE   N60
 BYTE   W24
 BYTE   N36  Cn3
 BYTE   W36
//  #04 //127   ----------------------------------------
 BYTE   PATT
  POIN2 Label_01497D98
//  #04 //128   ----------------------------------------
 BYTE   W12
 BYTE   N12  Gs2  v044
 BYTE   W12
 BYTE   EOT
 BYTE   Bn2
 BYTE   N48
 BYTE   W12
 BYTE   EOT
 BYTE   Dn3
 BYTE   N24
 BYTE   W24
 BYTE   N36
 BYTE   W12
 BYTE   N24  Bn2
 BYTE   W12
 BYTE   N12  Gs2
 BYTE   W12
//  #04 //129   ----------------------------------------
 BYTE   PATT
  POIN2 Label_01497DB3
//  #04 //130   ----------------------------------------
 BYTE   N72  Cn3  v044
 BYTE   W24
 BYTE   EOT
 BYTE   An2
 BYTE   N72
 BYTE   W48
 BYTE   N24  Cn3
 BYTE   W12
 BYTE   N12  Fn3
 BYTE   W12
//  #04 //131   ----------------------------------------
 BYTE   PATT
  POIN2 Label_01497DCA
//  #04 //132   ----------------------------------------
 BYTE   N24  Cn3  v044
 BYTE   W12
 BYTE   EOT
 BYTE   Gs2
 BYTE   N36
 BYTE   W12
 BYTE   N24  Cn3
 BYTE   W24
 BYTE   N48  Bn2
 BYTE   N24  Dn3
 BYTE   W24
 BYTE   N24
 BYTE   W12
 BYTE   N12  Fn3
 BYTE   W12
//  #04 //133   ----------------------------------------
 BYTE   N96  Cn3
 BYTE   N96  En3
 BYTE   W96
//  #04 //134   ----------------------------------------
 BYTE   An2
 BYTE   N96  Cn3
 BYTE   W96
//  #04 //135   ----------------------------------------
 BYTE   Bn2
 BYTE   N96  Dn3
 BYTE   W96
//  #04 //136   ----------------------------------------
 BYTE   Cs3
 BYTE   N96  En3
 BYTE   W96
//  #04 //137   ----------------------------------------
 BYTE   Cn3
 BYTE   N96  En3
 BYTE   W96
//  #04 //138   ----------------------------------------
 BYTE   Bn2
 BYTE   N96  Dn3
 BYTE   W96
//  #04 //139   ----------------------------------------
 BYTE   An2
 BYTE   N96  Cn3
 BYTE   W96
//  #04 //140   ----------------------------------------
 BYTE   Bn2
 BYTE   N96  Dn3
 BYTE   W96
//  #04 //141   ----------------------------------------
 BYTE   Cn3
 BYTE   N96  En3
 BYTE   W96
//  #04 //142   ----------------------------------------
 BYTE   An2
 BYTE   N96  Cn3
 BYTE   W96
//  #04 //143   ----------------------------------------
 BYTE   Bn2
 BYTE   N96  Dn3
 BYTE   W96
//  #04 //144   ----------------------------------------
 BYTE   Cs3
 BYTE   N96  En3
 BYTE   W96
//  #04 //145   ----------------------------------------
 BYTE   Cn3
 BYTE   N96  En3
 BYTE   W96
//  #04 //146   ----------------------------------------
 BYTE   Bn2
 BYTE   N96  Dn3
 BYTE   W96
//  #04 //147   ----------------------------------------
 BYTE   An2
 BYTE   N96  Cn3
 BYTE   W96
//  #04 //148   ----------------------------------------
 BYTE   An2
 BYTE   N96  Cn3
 BYTE   W96
//  #04 //149   ----------------------------------------
 BYTE   Bn2
 BYTE   N96  Dn3
 BYTE   W96
//  #04 //150   ----------------------------------------
 BYTE   Bn2
 BYTE   N96  Dn3
 BYTE   W96
//  #04 //151   ----------------------------------------
 BYTE   W96
//  #04 //152   ----------------------------------------
 BYTE   Cn3
 BYTE   N96  En3
 BYTE   W96
//  #04 //153   ----------------------------------------
 BYTE   Cn3
 BYTE   N96  En3
 BYTE   W96
//  #04 //154   ----------------------------------------
 BYTE   As2
 BYTE   N96  Dn3
 BYTE   W96
//  #04 //155   ----------------------------------------
 BYTE   As2
 BYTE   N96  Dn3
 BYTE   W96
//  #04 //156   ----------------------------------------
 BYTE   Cn3
 BYTE   N96  En3
 BYTE   W96
//  #04 //157   ----------------------------------------
 BYTE   Cn3
 BYTE   N96  En3
 BYTE   W96
//  #04 //158   ----------------------------------------
 BYTE   As2
 BYTE   N96  Dn3
 BYTE   W96
//  #04 //159   ----------------------------------------
 BYTE   Cs3
 BYTE   N96  En3
 BYTE   W96
//  #04 //160   ----------------------------------------
 BYTE   Cn3
 BYTE   N96  En3
 BYTE   W96
//  #04 //161   ----------------------------------------
 BYTE   Cn3
 BYTE   N96  En3
 BYTE   W96
//  #04 //162   ----------------------------------------
 BYTE   Cn3
 BYTE   N96  Ds3
 BYTE   W96
//  #04 //163   ----------------------------------------
 BYTE   Dn3
 BYTE   N96  Fn3
 BYTE   W96
//  #04 //164   ----------------------------------------
 BYTE   Cn3
 BYTE   N96  En3
 BYTE   W96
//  #04 //165   ----------------------------------------
 BYTE   W96
//  #04 //166   ----------------------------------------
 BYTE   PATT
  POIN2 Label_01497D82
//  #04 //167   ----------------------------------------
 BYTE   W12
 BYTE   N12  Gn2  v044
 BYTE   W12
 BYTE   EOT
 BYTE   Cn3
 BYTE   N36
 BYTE   W12
 BYTE   EOT
 BYTE   En3
 BYTE   N60
 BYTE   W24
 BYTE   N36  Cn3
 BYTE   W36
//  #04 //168   ----------------------------------------
 BYTE   PATT
  POIN2 Label_01497D98
//  #04 //169   ----------------------------------------
 BYTE   W12
 BYTE   N12  Gs2  v044
 BYTE   W12
 BYTE   EOT
 BYTE   Bn2
 BYTE   N48
 BYTE   W12
 BYTE   EOT
 BYTE   Dn3
 BYTE   N24
 BYTE   W24
 BYTE   N36
 BYTE   W12
 BYTE   N24  Bn2
 BYTE   W12
 BYTE   N12  Gs2
 BYTE   W12
//  #04 //170   ----------------------------------------
 BYTE   PATT
  POIN2 Label_01497DB3
//  #04 //171   ----------------------------------------
 BYTE   N72  Cn3  v044
 BYTE   W24
 BYTE   EOT
 BYTE   An2
 BYTE   N72
 BYTE   W48
 BYTE   N24  Cn3
 BYTE   W12
 BYTE   N12  Fn3
 BYTE   W12
//  #04 //172   ----------------------------------------
 BYTE   PATT
  POIN2 Label_01497DCA
//  #04 //173   ----------------------------------------
 BYTE   N24  Cn3  v044
 BYTE   W12
 BYTE   EOT
 BYTE   Gs2
 BYTE   N36
 BYTE   W12
 BYTE   N24  Cn3
 BYTE   W24
 BYTE   N48  Bn2
 BYTE   N24  Dn3
 BYTE   W24
 BYTE   N24
 BYTE   W12
 BYTE   N12  Fn3
 BYTE   W12
//  #04 //174   ----------------------------------------
 BYTE   PATT
  POIN2 Label_01497D82
//  #04 //175   ----------------------------------------
 BYTE   W12
 BYTE   N12  Gn2  v044
 BYTE   W12
 BYTE   EOT
 BYTE   Cn3
 BYTE   N36
 BYTE   W12
 BYTE   EOT
 BYTE   En3
 BYTE   N60
 BYTE   W24
 BYTE   N36  Cn3
 BYTE   W36
//  #04 //176   ----------------------------------------
 BYTE   PATT
  POIN2 Label_01497D98
//  #04 //177   ----------------------------------------
 BYTE   W12
 BYTE   N12  Gs2  v044
 BYTE   W12
 BYTE   EOT
 BYTE   Bn2
 BYTE   N48
 BYTE   W12
 BYTE   EOT
 BYTE   Dn3
 BYTE   N24
 BYTE   W24
 BYTE   N36
 BYTE   W12
 BYTE   N24  Bn2
 BYTE   W12
 BYTE   N12  Gs2
 BYTE   W12
//  #04 //178   ----------------------------------------
 BYTE   PATT
  POIN2 Label_01497DB3
//  #04 //179   ----------------------------------------
 BYTE   N72  Cn3  v044
 BYTE   W24
 BYTE   EOT
 BYTE   An2
 BYTE   N72
 BYTE   W48
 BYTE   N24  Cn3
 BYTE   W12
 BYTE   N12  Fn3
 BYTE   W12
//  #04 //180   ----------------------------------------
 BYTE   PATT
  POIN2 Label_01497DCA
//  #04 //181   ----------------------------------------
 BYTE   N24  Cn3  v044
 BYTE   W12
 BYTE   EOT
 BYTE   Gs2
 BYTE   N36
 BYTE   W12
 BYTE   N24  Cn3
 BYTE   W24
 BYTE   N48  Bn2
 BYTE   N24  Dn3
 BYTE   W24
 BYTE   N24
 BYTE   W12
 BYTE   N12  Fn3
 BYTE   W12
//  #04 //182   ----------------------------------------
 BYTE   N96  Cn3
 BYTE   N96  En3
 BYTE   W96
//  #04 //183   ----------------------------------------
 BYTE   An2
 BYTE   N96  Cn3
 BYTE   W96
//  #04 //184   ----------------------------------------
 BYTE   Bn2
 BYTE   N96  Dn3
 BYTE   W96
//  #04 //185   ----------------------------------------
 BYTE   Cs3
 BYTE   N96  En3
 BYTE   W96
//  #04 //186   ----------------------------------------
 BYTE   Cn3
 BYTE   N96  En3
 BYTE   W96
//  #04 //187   ----------------------------------------
 BYTE   Bn2
 BYTE   N96  Dn3
 BYTE   W96
//  #04 //188   ----------------------------------------
 BYTE   An2
 BYTE   N96  Cn3
 BYTE   W96
//  #04 //189   ----------------------------------------
 BYTE   Bn2
 BYTE   N96  Dn3
 BYTE   W96
//  #04 //190   ----------------------------------------
 BYTE   Cn3
 BYTE   N96  En3
 BYTE   W96
//  #04 //191   ----------------------------------------
 BYTE   An2
 BYTE   N96  Cn3
 BYTE   W96
//  #04 //192   ----------------------------------------
 BYTE   Bn2
 BYTE   N96  Dn3
 BYTE   W96
//  #04 //193   ----------------------------------------
 BYTE   Cs3
 BYTE   N96  En3
 BYTE   W96
//  #04 //194   ----------------------------------------
 BYTE   Cn3
 BYTE   N96  En3
 BYTE   W96
//  #04 //195   ----------------------------------------
 BYTE   Bn2
 BYTE   N96  Dn3
 BYTE   W96
//  #04 //196   ----------------------------------------
 BYTE   An2
 BYTE   N96  Cn3
 BYTE   W96
//  #04 //197   ----------------------------------------
 BYTE   An2
 BYTE   N96  Cn3
 BYTE   W96
//  #04 //198   ----------------------------------------
 BYTE   Bn2
 BYTE   N96  Dn3
 BYTE   W96
//  #04 //199   ----------------------------------------
 BYTE   Bn2
 BYTE   N96  Dn3
 BYTE   W96
//  #04 //200   ----------------------------------------
 BYTE   W96
//  #04 //201   ----------------------------------------
 BYTE   W96
//  #04 //202   ----------------------------------------
 BYTE   Cn3
 BYTE   N96  En3
 BYTE   W96
//  #04 //203   ----------------------------------------
 BYTE   Cn3
 BYTE   N96  En3
 BYTE   W96
//  #04 //204   ----------------------------------------
 BYTE   As2
 BYTE   N96  Dn3
 BYTE   W96
//  #04 //205   ----------------------------------------
 BYTE   As2
 BYTE   N96  Dn3
 BYTE   W96
//  #04 //206   ----------------------------------------
 BYTE   Cn3
 BYTE   N96  En3
 BYTE   W96
//  #04 //207   ----------------------------------------
 BYTE   Cn3
 BYTE   N96  En3
 BYTE   W96
//  #04 //208   ----------------------------------------
 BYTE   As2
 BYTE   N96  Dn3
 BYTE   W96
//  #04 //209   ----------------------------------------
 BYTE   Cs3
 BYTE   N96  En3
 BYTE   W96
//  #04 //210   ----------------------------------------
 BYTE   Cn3
 BYTE   N96  En3
 BYTE   W96
//  #04 //211   ----------------------------------------
 BYTE   Cn3
 BYTE   N96  En3
 BYTE   W96
//  #04 //212   ----------------------------------------
 BYTE   Cn3
 BYTE   N96  Ds3
 BYTE   W96
//  #04 //213   ----------------------------------------
 BYTE   Dn3
 BYTE   N96  Fn3
 BYTE   W96
//  #04 //214   ----------------------------------------
 BYTE   Cn3
 BYTE   N96  En3
 BYTE   W96
//  #04 //215   ----------------------------------------
 BYTE   W96
//  #04 //216   ----------------------------------------
 BYTE   GoTo
  POIN2 Label_01497D56
 BYTE   FINE

//**************** Track 5 (Midi-Chn.4) ****************//

MissionStreet_005:
//  #05 //000   ----------------------------------------
 BYTE   KEYSH   MissionStreet_key+0
Label_01498296:
 BYTE   VOICE   18
 BYTE   MODT 0
 BYTE   LFOS 44
 BYTE   VOL   117*MissionStreet_mvl/mxv
 BYTE   W96
//  #05 //001   ----------------------------------------
 BYTE   W96
//  #05 //002   ----------------------------------------
 BYTE   W96
//  #05 //003   ----------------------------------------
 BYTE   W96
//  #05 //004   ----------------------------------------
 BYTE   W96
//  #05 //005   ----------------------------------------
 BYTE   W96
//  #05 //006   ----------------------------------------
 BYTE   W96
//  #05 //007   ----------------------------------------
 BYTE   W96
//  #05 //008   ----------------------------------------
 BYTE   W96
//  #05 //009   ----------------------------------------
 BYTE   W96
//  #05 //010   ----------------------------------------
 BYTE   W96
//  #05 //011   ----------------------------------------
 BYTE   W96
//  #05 //012   ----------------------------------------
 BYTE   W96
//  #05 //013   ----------------------------------------
 BYTE   W96
//  #05 //014   ----------------------------------------
 BYTE   W96
//  #05 //015   ----------------------------------------
 BYTE   W96
//  #05 //016   ----------------------------------------
 BYTE   W96
//  #05 //017   ----------------------------------------
 BYTE   W96
//  #05 //018   ----------------------------------------
 BYTE   W96
//  #05 //019   ----------------------------------------
 BYTE   W96
//  #05 //020   ----------------------------------------
 BYTE   W96
//  #05 //021   ----------------------------------------
 BYTE   W96
//  #05 //022   ----------------------------------------
 BYTE   W96
//  #05 //023   ----------------------------------------
 BYTE   W96
//  #05 //024   ----------------------------------------
 BYTE   W96
//  #05 //025   ----------------------------------------
 BYTE   W96
//  #05 //026   ----------------------------------------
 BYTE   N96  En4  v044
 BYTE   W96
//  #05 //027   ----------------------------------------
Label_014982BC:
 BYTE   N36  Cn4  v044
 BYTE   W36
 BYTE   Bn3
 BYTE   W36
 BYTE   N24  An3
 BYTE   W24
 BYTE   PEND 
//  #05 //028   ----------------------------------------
 BYTE   N96  En4
 BYTE   W96
//  #05 //029   ----------------------------------------
 BYTE   Cs4
 BYTE   W96
//  #05 //030   ----------------------------------------
Label_014982CB:
 BYTE   N48  An3  v044
 BYTE   W48
 BYTE   Cn4
 BYTE   W48
 BYTE   PEND 
//  #05 //031   ----------------------------------------
Label_014982D2:
 BYTE   N48  Bn3  v044
 BYTE   W48
 BYTE   Dn4
 BYTE   W48
 BYTE   PEND 
//  #05 //032   ----------------------------------------
 BYTE   N96  En4
 BYTE   W96
//  #05 //033   ----------------------------------------
 BYTE   Dn4
 BYTE   W96
//  #05 //034   ----------------------------------------
 BYTE   En4
 BYTE   W96
//  #05 //035   ----------------------------------------
 BYTE   PATT
  POIN2 Label_014982BC
//  #05 //036   ----------------------------------------
 BYTE   N96  En4  v044
 BYTE   W96
//  #05 //037   ----------------------------------------
 BYTE   Cs4
 BYTE   W96
//  #05 //038   ----------------------------------------
 BYTE   PATT
  POIN2 Label_014982CB
//  #05 //039   ----------------------------------------
 BYTE   PATT
  POIN2 Label_014982D2
//  #05 //040   ----------------------------------------
 BYTE   N96  En4  v044
 BYTE   W96
//  #05 //041   ----------------------------------------
 BYTE   PATT
  POIN2 Label_014982BC
//  #05 //042   ----------------------------------------
 BYTE   N96  Dn4  v044
 BYTE   W96
//  #05 //043   ----------------------------------------
 BYTE   Bn3
 BYTE   W96
//  #05 //044   ----------------------------------------
 BYTE   W96
//  #05 //045   ----------------------------------------
 BYTE   W96
//  #05 //046   ----------------------------------------
 BYTE   W96
//  #05 //047   ----------------------------------------
 BYTE   W96
//  #05 //048   ----------------------------------------
 BYTE   W96
//  #05 //049   ----------------------------------------
 BYTE   W96
//  #05 //050   ----------------------------------------
 BYTE   W96
//  #05 //051   ----------------------------------------
 BYTE   W96
//  #05 //052   ----------------------------------------
 BYTE   W96
//  #05 //053   ----------------------------------------
 BYTE   W96
//  #05 //054   ----------------------------------------
 BYTE   W96
//  #05 //055   ----------------------------------------
 BYTE   W96
//  #05 //056   ----------------------------------------
 BYTE   W96
//  #05 //057   ----------------------------------------
 BYTE   W96
//  #05 //058   ----------------------------------------
 BYTE   W96
//  #05 //059   ----------------------------------------
 BYTE   W96
//  #05 //060   ----------------------------------------
 BYTE   W96
//  #05 //061   ----------------------------------------
 BYTE   W96
//  #05 //062   ----------------------------------------
 BYTE   W96
//  #05 //063   ----------------------------------------
 BYTE   W96
//  #05 //064   ----------------------------------------
 BYTE   W96
//  #05 //065   ----------------------------------------
 BYTE   W96
//  #05 //066   ----------------------------------------
 BYTE   W96
//  #05 //067   ----------------------------------------
 BYTE   W96
//  #05 //068   ----------------------------------------
 BYTE   W96
//  #05 //069   ----------------------------------------
 BYTE   W96
//  #05 //070   ----------------------------------------
 BYTE   W96
//  #05 //071   ----------------------------------------
 BYTE   W96
//  #05 //072   ----------------------------------------
 BYTE   W96
//  #05 //073   ----------------------------------------
 BYTE   W96
//  #05 //074   ----------------------------------------
 BYTE   W96
//  #05 //075   ----------------------------------------
 BYTE   En4
 BYTE   W96
//  #05 //076   ----------------------------------------
 BYTE   PATT
  POIN2 Label_014982BC
//  #05 //077   ----------------------------------------
 BYTE   N96  En4  v044
 BYTE   W96
//  #05 //078   ----------------------------------------
 BYTE   Cs4
 BYTE   W96
//  #05 //079   ----------------------------------------
 BYTE   PATT
  POIN2 Label_014982CB
//  #05 //080   ----------------------------------------
 BYTE   PATT
  POIN2 Label_014982D2
//  #05 //081   ----------------------------------------
 BYTE   N96  En4  v044
 BYTE   W96
//  #05 //082   ----------------------------------------
 BYTE   Dn4
 BYTE   W96
//  #05 //083   ----------------------------------------
 BYTE   En4
 BYTE   W96
//  #05 //084   ----------------------------------------
 BYTE   PATT
  POIN2 Label_014982BC
//  #05 //085   ----------------------------------------
 BYTE   N96  En4  v044
 BYTE   W96
//  #05 //086   ----------------------------------------
 BYTE   Cs4
 BYTE   W96
//  #05 //087   ----------------------------------------
 BYTE   PATT
  POIN2 Label_014982CB
//  #05 //088   ----------------------------------------
 BYTE   PATT
  POIN2 Label_014982D2
//  #05 //089   ----------------------------------------
 BYTE   N96  En4  v044
 BYTE   W96
//  #05 //090   ----------------------------------------
 BYTE   PATT
  POIN2 Label_014982BC
//  #05 //091   ----------------------------------------
 BYTE   N96  Dn4  v044
 BYTE   W96
//  #05 //092   ----------------------------------------
 BYTE   Bn3
 BYTE   W96
//  #05 //093   ----------------------------------------
 BYTE   W96
//  #05 //094   ----------------------------------------
 BYTE   W96
//  #05 //095   ----------------------------------------
 BYTE   W96
//  #05 //096   ----------------------------------------
 BYTE   W96
//  #05 //097   ----------------------------------------
 BYTE   W96
//  #05 //098   ----------------------------------------
 BYTE   W96
//  #05 //099   ----------------------------------------
 BYTE   W96
//  #05 //100   ----------------------------------------
 BYTE   W96
//  #05 //101   ----------------------------------------
 BYTE   W96
//  #05 //102   ----------------------------------------
 BYTE   W96
//  #05 //103   ----------------------------------------
 BYTE   W96
//  #05 //104   ----------------------------------------
 BYTE   W96
//  #05 //105   ----------------------------------------
 BYTE   W96
//  #05 //106   ----------------------------------------
 BYTE   W96
//  #05 //107   ----------------------------------------
 BYTE   W96
//  #05 //108   ----------------------------------------
 BYTE   W96
//  #05 //109   ----------------------------------------
 BYTE   W96
//  #05 //110   ----------------------------------------
 BYTE   W96
//  #05 //111   ----------------------------------------
 BYTE   W96
//  #05 //112   ----------------------------------------
 BYTE   W96
//  #05 //113   ----------------------------------------
 BYTE   W96
//  #05 //114   ----------------------------------------
 BYTE   W96
//  #05 //115   ----------------------------------------
 BYTE   W96
//  #05 //116   ----------------------------------------
 BYTE   W96
//  #05 //117   ----------------------------------------
 BYTE   W96
//  #05 //118   ----------------------------------------
 BYTE   W96
//  #05 //119   ----------------------------------------
 BYTE   W96
//  #05 //120   ----------------------------------------
 BYTE   W96
//  #05 //121   ----------------------------------------
 BYTE   W96
//  #05 //122   ----------------------------------------
 BYTE   W96
//  #05 //123   ----------------------------------------
 BYTE   W96
//  #05 //124   ----------------------------------------
 BYTE   W96
//  #05 //125   ----------------------------------------
 BYTE   W96
//  #05 //126   ----------------------------------------
 BYTE   W96
//  #05 //127   ----------------------------------------
 BYTE   W96
//  #05 //128   ----------------------------------------
 BYTE   W96
//  #05 //129   ----------------------------------------
 BYTE   W96
//  #05 //130   ----------------------------------------
 BYTE   W96
//  #05 //131   ----------------------------------------
 BYTE   W96
//  #05 //132   ----------------------------------------
 BYTE   W96
//  #05 //133   ----------------------------------------
 BYTE   En4
 BYTE   W96
//  #05 //134   ----------------------------------------
 BYTE   PATT
  POIN2 Label_014982BC
//  #05 //135   ----------------------------------------
 BYTE   N96  En4  v044
 BYTE   W96
//  #05 //136   ----------------------------------------
 BYTE   Cs4
 BYTE   W96
//  #05 //137   ----------------------------------------
 BYTE   PATT
  POIN2 Label_014982CB
//  #05 //138   ----------------------------------------
 BYTE   PATT
  POIN2 Label_014982D2
//  #05 //139   ----------------------------------------
 BYTE   N96  En4  v044
 BYTE   W96
//  #05 //140   ----------------------------------------
 BYTE   Dn4
 BYTE   W96
//  #05 //141   ----------------------------------------
 BYTE   En4
 BYTE   W96
//  #05 //142   ----------------------------------------
 BYTE   PATT
  POIN2 Label_014982BC
//  #05 //143   ----------------------------------------
 BYTE   N96  En4  v044
 BYTE   W96
//  #05 //144   ----------------------------------------
 BYTE   Cs4
 BYTE   W96
//  #05 //145   ----------------------------------------
 BYTE   PATT
  POIN2 Label_014982CB
//  #05 //146   ----------------------------------------
 BYTE   PATT
  POIN2 Label_014982D2
//  #05 //147   ----------------------------------------
 BYTE   N96  En4  v044
 BYTE   W96
//  #05 //148   ----------------------------------------
 BYTE   PATT
  POIN2 Label_014982BC
//  #05 //149   ----------------------------------------
 BYTE   N96  Dn4  v044
 BYTE   W96
//  #05 //150   ----------------------------------------
 BYTE   Bn3
 BYTE   W96
//  #05 //151   ----------------------------------------
 BYTE   W96
//  #05 //152   ----------------------------------------
 BYTE   W96
//  #05 //153   ----------------------------------------
 BYTE   W96
//  #05 //154   ----------------------------------------
 BYTE   W96
//  #05 //155   ----------------------------------------
 BYTE   W96
//  #05 //156   ----------------------------------------
 BYTE   W96
//  #05 //157   ----------------------------------------
 BYTE   W96
//  #05 //158   ----------------------------------------
 BYTE   W96
//  #05 //159   ----------------------------------------
 BYTE   W96
//  #05 //160   ----------------------------------------
 BYTE   W96
//  #05 //161   ----------------------------------------
 BYTE   W96
//  #05 //162   ----------------------------------------
 BYTE   W96
//  #05 //163   ----------------------------------------
 BYTE   W96
//  #05 //164   ----------------------------------------
 BYTE   W96
//  #05 //165   ----------------------------------------
 BYTE   W96
//  #05 //166   ----------------------------------------
 BYTE   W96
//  #05 //167   ----------------------------------------
 BYTE   W96
//  #05 //168   ----------------------------------------
 BYTE   W96
//  #05 //169   ----------------------------------------
 BYTE   W96
//  #05 //170   ----------------------------------------
 BYTE   W96
//  #05 //171   ----------------------------------------
 BYTE   W96
//  #05 //172   ----------------------------------------
 BYTE   W96
//  #05 //173   ----------------------------------------
 BYTE   W96
//  #05 //174   ----------------------------------------
 BYTE   W96
//  #05 //175   ----------------------------------------
 BYTE   W96
//  #05 //176   ----------------------------------------
 BYTE   W96
//  #05 //177   ----------------------------------------
 BYTE   W96
//  #05 //178   ----------------------------------------
 BYTE   W96
//  #05 //179   ----------------------------------------
 BYTE   W96
//  #05 //180   ----------------------------------------
 BYTE   W96
//  #05 //181   ----------------------------------------
 BYTE   W96
//  #05 //182   ----------------------------------------
 BYTE   En4
 BYTE   W96
//  #05 //183   ----------------------------------------
 BYTE   PATT
  POIN2 Label_014982BC
//  #05 //184   ----------------------------------------
 BYTE   N96  En4  v044
 BYTE   W96
//  #05 //185   ----------------------------------------
 BYTE   Cs4
 BYTE   W96
//  #05 //186   ----------------------------------------
 BYTE   PATT
  POIN2 Label_014982CB
//  #05 //187   ----------------------------------------
 BYTE   PATT
  POIN2 Label_014982D2
//  #05 //188   ----------------------------------------
 BYTE   N96  En4  v044
 BYTE   W96
//  #05 //189   ----------------------------------------
 BYTE   Dn4
 BYTE   W96
//  #05 //190   ----------------------------------------
 BYTE   En4
 BYTE   W96
//  #05 //191   ----------------------------------------
 BYTE   PATT
  POIN2 Label_014982BC
//  #05 //192   ----------------------------------------
 BYTE   N96  En4  v044
 BYTE   W96
//  #05 //193   ----------------------------------------
 BYTE   Cs4
 BYTE   W96
//  #05 //194   ----------------------------------------
 BYTE   PATT
  POIN2 Label_014982CB
//  #05 //195   ----------------------------------------
 BYTE   PATT
  POIN2 Label_014982D2
//  #05 //196   ----------------------------------------
 BYTE   N96  En4  v044
 BYTE   W96
//  #05 //197   ----------------------------------------
 BYTE   PATT
  POIN2 Label_014982BC
//  #05 //198   ----------------------------------------
 BYTE   N96  Dn4  v044
 BYTE   W96
//  #05 //199   ----------------------------------------
 BYTE   Bn3
 BYTE   W96
//  #05 //200   ----------------------------------------
 BYTE   W96
//  #05 //201   ----------------------------------------
 BYTE   W96
//  #05 //202   ----------------------------------------
 BYTE   W96
//  #05 //203   ----------------------------------------
 BYTE   W96
//  #05 //204   ----------------------------------------
 BYTE   W96
//  #05 //205   ----------------------------------------
 BYTE   W96
//  #05 //206   ----------------------------------------
 BYTE   W96
//  #05 //207   ----------------------------------------
 BYTE   W96
//  #05 //208   ----------------------------------------
 BYTE   W96
//  #05 //209   ----------------------------------------
 BYTE   W96
//  #05 //210   ----------------------------------------
 BYTE   W96
//  #05 //211   ----------------------------------------
 BYTE   W96
//  #05 //212   ----------------------------------------
 BYTE   W96
//  #05 //213   ----------------------------------------
 BYTE   W96
//  #05 //214   ----------------------------------------
 BYTE   W96
//  #05 //215   ----------------------------------------
 BYTE   W96
//  #05 //216   ----------------------------------------
 BYTE   GoTo
  POIN2 Label_01498296
 BYTE   FINE

//**************** Track 6 (Midi-Chn.5) ****************//

MissionStreet_006:
//  #06 //000   ----------------------------------------
 BYTE   KEYSH   MissionStreet_key+0
Label_0149844E:
 BYTE   VOICE   52
 BYTE   MODT 0
 BYTE   LFOS 44
 BYTE   VOL   78*MissionStreet_mvl/mxv
 BYTE   W96
//  #06 //001   ----------------------------------------
 BYTE   W96
//  #06 //002   ----------------------------------------
 BYTE   W96
//  #06 //003   ----------------------------------------
 BYTE   W96
//  #06 //004   ----------------------------------------
 BYTE   W96
//  #06 //005   ----------------------------------------
 BYTE   W96
//  #06 //006   ----------------------------------------
 BYTE   W96
//  #06 //007   ----------------------------------------
 BYTE   W96
//  #06 //008   ----------------------------------------
 BYTE   W96
//  #06 //009   ----------------------------------------
 BYTE   W96
//  #06 //010   ----------------------------------------
 BYTE   W96
//  #06 //011   ----------------------------------------
 BYTE   W96
//  #06 //012   ----------------------------------------
 BYTE   W96
//  #06 //013   ----------------------------------------
 BYTE   W96
//  #06 //014   ----------------------------------------
 BYTE   W96
//  #06 //015   ----------------------------------------
 BYTE   W96
//  #06 //016   ----------------------------------------
 BYTE   W96
//  #06 //017   ----------------------------------------
 BYTE   W96
//  #06 //018   ----------------------------------------
 BYTE   W96
//  #06 //019   ----------------------------------------
 BYTE   W96
//  #06 //020   ----------------------------------------
 BYTE   W96
//  #06 //021   ----------------------------------------
 BYTE   W96
//  #06 //022   ----------------------------------------
 BYTE   W96
//  #06 //023   ----------------------------------------
 BYTE   W96
//  #06 //024   ----------------------------------------
 BYTE   W96
//  #06 //025   ----------------------------------------
 BYTE   W96
//  #06 //026   ----------------------------------------
 BYTE   N96  En4  v044
 BYTE   W96
//  #06 //027   ----------------------------------------
Label_01498474:
 BYTE   N36  Cn4  v044
 BYTE   W36
 BYTE   Bn3
 BYTE   W36
 BYTE   N24  An3
 BYTE   W24
 BYTE   PEND 
//  #06 //028   ----------------------------------------
 BYTE   N96  En4
 BYTE   W96
//  #06 //029   ----------------------------------------
 BYTE   Cs4
 BYTE   W96
//  #06 //030   ----------------------------------------
Label_01498483:
 BYTE   N48  An3  v044
 BYTE   W48
 BYTE   Cn4
 BYTE   W48
 BYTE   PEND 
//  #06 //031   ----------------------------------------
Label_0149848A:
 BYTE   N48  Bn3  v044
 BYTE   W48
 BYTE   Dn4
 BYTE   W48
 BYTE   PEND 
//  #06 //032   ----------------------------------------
 BYTE   N96  En4
 BYTE   W96
//  #06 //033   ----------------------------------------
 BYTE   Dn4
 BYTE   W96
//  #06 //034   ----------------------------------------
 BYTE   En4
 BYTE   W96
//  #06 //035   ----------------------------------------
 BYTE   PATT
  POIN2 Label_01498474
//  #06 //036   ----------------------------------------
 BYTE   N96  En4  v044
 BYTE   W96
//  #06 //037   ----------------------------------------
 BYTE   Cs4
 BYTE   W96
//  #06 //038   ----------------------------------------
 BYTE   PATT
  POIN2 Label_01498483
//  #06 //039   ----------------------------------------
 BYTE   PATT
  POIN2 Label_0149848A
//  #06 //040   ----------------------------------------
 BYTE   N96  En4  v044
 BYTE   W96
//  #06 //041   ----------------------------------------
 BYTE   W96
//  #06 //042   ----------------------------------------
 BYTE   Dn4
 BYTE   W96
//  #06 //043   ----------------------------------------
 BYTE   Bn3
 BYTE   W96
//  #06 //044   ----------------------------------------
 BYTE   W96
//  #06 //045   ----------------------------------------
 BYTE   W96
//  #06 //046   ----------------------------------------
 BYTE   W96
//  #06 //047   ----------------------------------------
 BYTE   W96
//  #06 //048   ----------------------------------------
 BYTE   W96
//  #06 //049   ----------------------------------------
 BYTE   W96
//  #06 //050   ----------------------------------------
 BYTE   W96
//  #06 //051   ----------------------------------------
 BYTE   W96
//  #06 //052   ----------------------------------------
 BYTE   W96
//  #06 //053   ----------------------------------------
 BYTE   W96
//  #06 //054   ----------------------------------------
 BYTE   W96
//  #06 //055   ----------------------------------------
 BYTE   W96
//  #06 //056   ----------------------------------------
 BYTE   W96
//  #06 //057   ----------------------------------------
 BYTE   W96
//  #06 //058   ----------------------------------------
 BYTE   W96
//  #06 //059   ----------------------------------------
 BYTE   W96
//  #06 //060   ----------------------------------------
 BYTE   W96
//  #06 //061   ----------------------------------------
 BYTE   W96
//  #06 //062   ----------------------------------------
 BYTE   W96
//  #06 //063   ----------------------------------------
 BYTE   W96
//  #06 //064   ----------------------------------------
 BYTE   W96
//  #06 //065   ----------------------------------------
 BYTE   W96
//  #06 //066   ----------------------------------------
 BYTE   W96
//  #06 //067   ----------------------------------------
 BYTE   W96
//  #06 //068   ----------------------------------------
 BYTE   W96
//  #06 //069   ----------------------------------------
 BYTE   W96
//  #06 //070   ----------------------------------------
 BYTE   W96
//  #06 //071   ----------------------------------------
 BYTE   W96
//  #06 //072   ----------------------------------------
 BYTE   W96
//  #06 //073   ----------------------------------------
 BYTE   W96
//  #06 //074   ----------------------------------------
 BYTE   W96
//  #06 //075   ----------------------------------------
 BYTE   En4
 BYTE   W96
//  #06 //076   ----------------------------------------
 BYTE   PATT
  POIN2 Label_01498474
//  #06 //077   ----------------------------------------
 BYTE   N96  En4  v044
 BYTE   W96
//  #06 //078   ----------------------------------------
 BYTE   Cs4
 BYTE   W96
//  #06 //079   ----------------------------------------
 BYTE   PATT
  POIN2 Label_01498483
//  #06 //080   ----------------------------------------
 BYTE   PATT
  POIN2 Label_0149848A
//  #06 //081   ----------------------------------------
 BYTE   N96  En4  v044
 BYTE   W96
//  #06 //082   ----------------------------------------
 BYTE   Dn4
 BYTE   W96
//  #06 //083   ----------------------------------------
 BYTE   En4
 BYTE   W96
//  #06 //084   ----------------------------------------
 BYTE   PATT
  POIN2 Label_01498474
//  #06 //085   ----------------------------------------
 BYTE   N96  En4  v044
 BYTE   W96
//  #06 //086   ----------------------------------------
 BYTE   Cs4
 BYTE   W96
//  #06 //087   ----------------------------------------
 BYTE   PATT
  POIN2 Label_01498483
//  #06 //088   ----------------------------------------
 BYTE   PATT
  POIN2 Label_0149848A
//  #06 //089   ----------------------------------------
 BYTE   N96  En4  v044
 BYTE   W96
//  #06 //090   ----------------------------------------
 BYTE   W96
//  #06 //091   ----------------------------------------
 BYTE   Dn4
 BYTE   W96
//  #06 //092   ----------------------------------------
 BYTE   Bn3
 BYTE   W96
//  #06 //093   ----------------------------------------
 BYTE   W96
//  #06 //094   ----------------------------------------
 BYTE   W96
//  #06 //095   ----------------------------------------
 BYTE   W96
//  #06 //096   ----------------------------------------
 BYTE   W96
//  #06 //097   ----------------------------------------
 BYTE   W96
//  #06 //098   ----------------------------------------
 BYTE   W96
//  #06 //099   ----------------------------------------
 BYTE   W96
//  #06 //100   ----------------------------------------
 BYTE   W96
//  #06 //101   ----------------------------------------
 BYTE   W96
//  #06 //102   ----------------------------------------
 BYTE   W96
//  #06 //103   ----------------------------------------
 BYTE   W96
//  #06 //104   ----------------------------------------
 BYTE   W96
//  #06 //105   ----------------------------------------
 BYTE   W96
//  #06 //106   ----------------------------------------
 BYTE   W96
//  #06 //107   ----------------------------------------
 BYTE   W96
//  #06 //108   ----------------------------------------
 BYTE   W96
//  #06 //109   ----------------------------------------
 BYTE   W96
//  #06 //110   ----------------------------------------
 BYTE   W96
//  #06 //111   ----------------------------------------
 BYTE   W96
//  #06 //112   ----------------------------------------
 BYTE   W96
//  #06 //113   ----------------------------------------
 BYTE   W96
//  #06 //114   ----------------------------------------
 BYTE   W96
//  #06 //115   ----------------------------------------
 BYTE   W96
//  #06 //116   ----------------------------------------
 BYTE   W96
//  #06 //117   ----------------------------------------
 BYTE   W96
//  #06 //118   ----------------------------------------
 BYTE   W96
//  #06 //119   ----------------------------------------
 BYTE   W96
//  #06 //120   ----------------------------------------
 BYTE   W96
//  #06 //121   ----------------------------------------
 BYTE   W96
//  #06 //122   ----------------------------------------
 BYTE   W96
//  #06 //123   ----------------------------------------
 BYTE   W96
//  #06 //124   ----------------------------------------
 BYTE   W96
//  #06 //125   ----------------------------------------
 BYTE   W96
//  #06 //126   ----------------------------------------
 BYTE   W96
//  #06 //127   ----------------------------------------
 BYTE   W96
//  #06 //128   ----------------------------------------
 BYTE   W96
//  #06 //129   ----------------------------------------
 BYTE   W96
//  #06 //130   ----------------------------------------
 BYTE   W96
//  #06 //131   ----------------------------------------
 BYTE   W96
//  #06 //132   ----------------------------------------
 BYTE   W96
//  #06 //133   ----------------------------------------
 BYTE   En4
 BYTE   W96
//  #06 //134   ----------------------------------------
 BYTE   PATT
  POIN2 Label_01498474
//  #06 //135   ----------------------------------------
 BYTE   N96  En4  v044
 BYTE   W96
//  #06 //136   ----------------------------------------
 BYTE   Cs4
 BYTE   W96
//  #06 //137   ----------------------------------------
 BYTE   PATT
  POIN2 Label_01498483
//  #06 //138   ----------------------------------------
 BYTE   PATT
  POIN2 Label_0149848A
//  #06 //139   ----------------------------------------
 BYTE   N96  En4  v044
 BYTE   W96
//  #06 //140   ----------------------------------------
 BYTE   Dn4
 BYTE   W96
//  #06 //141   ----------------------------------------
 BYTE   En4
 BYTE   W96
//  #06 //142   ----------------------------------------
 BYTE   PATT
  POIN2 Label_01498474
//  #06 //143   ----------------------------------------
 BYTE   N96  En4  v044
 BYTE   W96
//  #06 //144   ----------------------------------------
 BYTE   Cs4
 BYTE   W96
//  #06 //145   ----------------------------------------
 BYTE   PATT
  POIN2 Label_01498483
//  #06 //146   ----------------------------------------
 BYTE   PATT
  POIN2 Label_0149848A
//  #06 //147   ----------------------------------------
 BYTE   N96  En4  v044
 BYTE   W96
//  #06 //148   ----------------------------------------
 BYTE   W96
//  #06 //149   ----------------------------------------
 BYTE   Dn4
 BYTE   W96
//  #06 //150   ----------------------------------------
 BYTE   Bn3
 BYTE   W96
//  #06 //151   ----------------------------------------
 BYTE   W96
//  #06 //152   ----------------------------------------
 BYTE   W96
//  #06 //153   ----------------------------------------
 BYTE   W96
//  #06 //154   ----------------------------------------
 BYTE   W96
//  #06 //155   ----------------------------------------
 BYTE   W96
//  #06 //156   ----------------------------------------
 BYTE   W96
//  #06 //157   ----------------------------------------
 BYTE   W96
//  #06 //158   ----------------------------------------
 BYTE   W96
//  #06 //159   ----------------------------------------
 BYTE   W96
//  #06 //160   ----------------------------------------
 BYTE   W96
//  #06 //161   ----------------------------------------
 BYTE   W96
//  #06 //162   ----------------------------------------
 BYTE   W96
//  #06 //163   ----------------------------------------
 BYTE   W96
//  #06 //164   ----------------------------------------
 BYTE   W96
//  #06 //165   ----------------------------------------
 BYTE   W96
//  #06 //166   ----------------------------------------
 BYTE   W96
//  #06 //167   ----------------------------------------
 BYTE   W96
//  #06 //168   ----------------------------------------
 BYTE   W96
//  #06 //169   ----------------------------------------
 BYTE   W96
//  #06 //170   ----------------------------------------
 BYTE   W96
//  #06 //171   ----------------------------------------
 BYTE   W96
//  #06 //172   ----------------------------------------
 BYTE   W96
//  #06 //173   ----------------------------------------
 BYTE   W96
//  #06 //174   ----------------------------------------
 BYTE   W96
//  #06 //175   ----------------------------------------
 BYTE   W96
//  #06 //176   ----------------------------------------
 BYTE   W96
//  #06 //177   ----------------------------------------
 BYTE   W96
//  #06 //178   ----------------------------------------
 BYTE   W96
//  #06 //179   ----------------------------------------
 BYTE   W96
//  #06 //180   ----------------------------------------
 BYTE   W96
//  #06 //181   ----------------------------------------
 BYTE   W96
//  #06 //182   ----------------------------------------
 BYTE   En4
 BYTE   W96
//  #06 //183   ----------------------------------------
 BYTE   PATT
  POIN2 Label_01498474
//  #06 //184   ----------------------------------------
 BYTE   N96  En4  v044
 BYTE   W96
//  #06 //185   ----------------------------------------
 BYTE   Cs4
 BYTE   W96
//  #06 //186   ----------------------------------------
 BYTE   PATT
  POIN2 Label_01498483
//  #06 //187   ----------------------------------------
 BYTE   PATT
  POIN2 Label_0149848A
//  #06 //188   ----------------------------------------
 BYTE   N96  En4  v044
 BYTE   W96
//  #06 //189   ----------------------------------------
 BYTE   Dn4
 BYTE   W96
//  #06 //190   ----------------------------------------
 BYTE   En4
 BYTE   W96
//  #06 //191   ----------------------------------------
 BYTE   PATT
  POIN2 Label_01498474
//  #06 //192   ----------------------------------------
 BYTE   N96  En4  v044
 BYTE   W96
//  #06 //193   ----------------------------------------
 BYTE   Cs4
 BYTE   W96
//  #06 //194   ----------------------------------------
 BYTE   PATT
  POIN2 Label_01498483
//  #06 //195   ----------------------------------------
 BYTE   PATT
  POIN2 Label_0149848A
//  #06 //196   ----------------------------------------
 BYTE   N96  En4  v044
 BYTE   W96
//  #06 //197   ----------------------------------------
 BYTE   W96
//  #06 //198   ----------------------------------------
 BYTE   Dn4
 BYTE   W96
//  #06 //199   ----------------------------------------
 BYTE   Bn3
 BYTE   W96
//  #06 //200   ----------------------------------------
 BYTE   W96
//  #06 //201   ----------------------------------------
 BYTE   W96
//  #06 //202   ----------------------------------------
 BYTE   W96
//  #06 //203   ----------------------------------------
 BYTE   W96
//  #06 //204   ----------------------------------------
 BYTE   W96
//  #06 //205   ----------------------------------------
 BYTE   W96
//  #06 //206   ----------------------------------------
 BYTE   W96
//  #06 //207   ----------------------------------------
 BYTE   W96
//  #06 //208   ----------------------------------------
 BYTE   W96
//  #06 //209   ----------------------------------------
 BYTE   W96
//  #06 //210   ----------------------------------------
 BYTE   W96
//  #06 //211   ----------------------------------------
 BYTE   W96
//  #06 //212   ----------------------------------------
 BYTE   W96
//  #06 //213   ----------------------------------------
 BYTE   W96
//  #06 //214   ----------------------------------------
 BYTE   W96
//  #06 //215   ----------------------------------------
 BYTE   W96
//  #06 //216   ----------------------------------------
 BYTE   GoTo
  POIN2 Label_0149844E
 BYTE   FINE

//**************** Track 7 (Midi-Chn.6) ****************//

MissionStreet_007:
//  #07 //000   ----------------------------------------
 BYTE   KEYSH   MissionStreet_key+0
Label_014985EE:
 BYTE   VOICE   14
 BYTE   MODT 0
 BYTE   LFOS 44
 BYTE   VOL   127*MissionStreet_mvl/mxv
 BYTE   W96
//  #07 //001   ----------------------------------------
 BYTE   W96
//  #07 //002   ----------------------------------------
 BYTE   W96
//  #07 //003   ----------------------------------------
 BYTE   W96
//  #07 //004   ----------------------------------------
 BYTE   W96
//  #07 //005   ----------------------------------------
 BYTE   W96
//  #07 //006   ----------------------------------------
 BYTE   W96
//  #07 //007   ----------------------------------------
 BYTE   W96
//  #07 //008   ----------------------------------------
 BYTE   W96
//  #07 //009   ----------------------------------------
 BYTE   W96
//  #07 //010   ----------------------------------------
 BYTE   W96
//  #07 //011   ----------------------------------------
 BYTE   W96
//  #07 //012   ----------------------------------------
 BYTE   W96
//  #07 //013   ----------------------------------------
 BYTE   W96
//  #07 //014   ----------------------------------------
 BYTE   W96
//  #07 //015   ----------------------------------------
 BYTE   W96
//  #07 //016   ----------------------------------------
 BYTE   W96
//  #07 //017   ----------------------------------------
 BYTE   W96
//  #07 //018   ----------------------------------------
 BYTE   W96
//  #07 //019   ----------------------------------------
 BYTE   W96
//  #07 //020   ----------------------------------------
 BYTE   W96
//  #07 //021   ----------------------------------------
 BYTE   W96
//  #07 //022   ----------------------------------------
 BYTE   W96
//  #07 //023   ----------------------------------------
 BYTE   W96
//  #07 //024   ----------------------------------------
 BYTE   W96
//  #07 //025   ----------------------------------------
 BYTE   W96
//  #07 //026   ----------------------------------------
 BYTE   W96
//  #07 //027   ----------------------------------------
 BYTE   W96
//  #07 //028   ----------------------------------------
 BYTE   W96
//  #07 //029   ----------------------------------------
 BYTE   W96
//  #07 //030   ----------------------------------------
Label_01498614:
 BYTE   N48  An3  v044
 BYTE   W48
 BYTE   Cn4
 BYTE   W48
 BYTE   PEND 
//  #07 //031   ----------------------------------------
Label_0149861B:
 BYTE   N48  Bn3  v044
 BYTE   W48
 BYTE   Dn4
 BYTE   W48
 BYTE   PEND 
//  #07 //032   ----------------------------------------
 BYTE   En4
 BYTE   W96
//  #07 //033   ----------------------------------------
 BYTE   W96
//  #07 //034   ----------------------------------------
 BYTE   W96
//  #07 //035   ----------------------------------------
 BYTE   W96
//  #07 //036   ----------------------------------------
 BYTE   W96
//  #07 //037   ----------------------------------------
 BYTE   W96
//  #07 //038   ----------------------------------------
 BYTE   PATT
  POIN2 Label_01498614
//  #07 //039   ----------------------------------------
 BYTE   PATT
  POIN2 Label_0149861B
//  #07 //040   ----------------------------------------
 BYTE   N48  En4  v044
 BYTE   W96
//  #07 //041   ----------------------------------------
 BYTE   W96
//  #07 //042   ----------------------------------------
 BYTE   W96
//  #07 //043   ----------------------------------------
 BYTE   W96
//  #07 //044   ----------------------------------------
 BYTE   W96
//  #07 //045   ----------------------------------------
 BYTE   W96
//  #07 //046   ----------------------------------------
Label_0149863C:
 BYTE   N36  En4  v044
 BYTE   W36
 BYTE   Fn4
 BYTE   W36
 BYTE   N24  Gn4
 BYTE   W24
 BYTE   PEND 
//  #07 //047   ----------------------------------------
 BYTE   W96
//  #07 //048   ----------------------------------------
 BYTE   PATT
  POIN2 Label_0149863C
//  #07 //049   ----------------------------------------
 BYTE   W96
//  #07 //050   ----------------------------------------
 BYTE   PATT
  POIN2 Label_0149863C
//  #07 //051   ----------------------------------------
 BYTE   W96
//  #07 //052   ----------------------------------------
 BYTE   W96
//  #07 //053   ----------------------------------------
 BYTE   W96
//  #07 //054   ----------------------------------------
 BYTE   W96
//  #07 //055   ----------------------------------------
Label_01498656:
 BYTE   N48  Cn4  v044
 BYTE   W48
 BYTE   Ds4
 BYTE   W48
 BYTE   PEND 
//  #07 //056   ----------------------------------------
Label_0149865D:
 BYTE   N48  Dn4  v044
 BYTE   W48
 BYTE   Fn4
 BYTE   W48
 BYTE   PEND 
//  #07 //057   ----------------------------------------
 BYTE   N96  En4
 BYTE   W96
//  #07 //058   ----------------------------------------
 BYTE   W96
//  #07 //059   ----------------------------------------
 BYTE   W96
//  #07 //060   ----------------------------------------
 BYTE   W96
//  #07 //061   ----------------------------------------
 BYTE   W96
//  #07 //062   ----------------------------------------
 BYTE   W96
//  #07 //063   ----------------------------------------
 BYTE   W96
//  #07 //064   ----------------------------------------
 BYTE   W96
//  #07 //065   ----------------------------------------
 BYTE   W96
//  #07 //066   ----------------------------------------
 BYTE   W96
//  #07 //067   ----------------------------------------
 BYTE   W96
//  #07 //068   ----------------------------------------
 BYTE   W96
//  #07 //069   ----------------------------------------
 BYTE   W96
//  #07 //070   ----------------------------------------
 BYTE   W96
//  #07 //071   ----------------------------------------
 BYTE   W96
//  #07 //072   ----------------------------------------
 BYTE   W96
//  #07 //073   ----------------------------------------
 BYTE   W96
//  #07 //074   ----------------------------------------
 BYTE   W96
//  #07 //075   ----------------------------------------
 BYTE   W96
//  #07 //076   ----------------------------------------
 BYTE   W96
//  #07 //077   ----------------------------------------
 BYTE   W96
//  #07 //078   ----------------------------------------
 BYTE   W96
//  #07 //079   ----------------------------------------
 BYTE   PATT
  POIN2 Label_01498614
//  #07 //080   ----------------------------------------
 BYTE   PATT
  POIN2 Label_0149861B
//  #07 //081   ----------------------------------------
 BYTE   N48  En4  v044
 BYTE   W96
//  #07 //082   ----------------------------------------
 BYTE   W96
//  #07 //083   ----------------------------------------
 BYTE   W96
//  #07 //084   ----------------------------------------
 BYTE   W96
//  #07 //085   ----------------------------------------
 BYTE   W96
//  #07 //086   ----------------------------------------
 BYTE   W96
//  #07 //087   ----------------------------------------
 BYTE   PATT
  POIN2 Label_01498614
//  #07 //088   ----------------------------------------
 BYTE   PATT
  POIN2 Label_0149861B
//  #07 //089   ----------------------------------------
 BYTE   N48  En4  v044
 BYTE   W96
//  #07 //090   ----------------------------------------
 BYTE   W96
//  #07 //091   ----------------------------------------
 BYTE   W96
//  #07 //092   ----------------------------------------
 BYTE   W96
//  #07 //093   ----------------------------------------
 BYTE   W96
//  #07 //094   ----------------------------------------
 BYTE   W96
//  #07 //095   ----------------------------------------
 BYTE   W96
//  #07 //096   ----------------------------------------
 BYTE   PATT
  POIN2 Label_0149863C
//  #07 //097   ----------------------------------------
 BYTE   W96
//  #07 //098   ----------------------------------------
 BYTE   PATT
  POIN2 Label_0149863C
//  #07 //099   ----------------------------------------
 BYTE   W96
//  #07 //100   ----------------------------------------
 BYTE   PATT
  POIN2 Label_0149863C
//  #07 //101   ----------------------------------------
 BYTE   W96
//  #07 //102   ----------------------------------------
 BYTE   W96
//  #07 //103   ----------------------------------------
 BYTE   W96
//  #07 //104   ----------------------------------------
 BYTE   W96
//  #07 //105   ----------------------------------------
 BYTE   PATT
  POIN2 Label_01498656
//  #07 //106   ----------------------------------------
 BYTE   PATT
  POIN2 Label_0149865D
//  #07 //107   ----------------------------------------
 BYTE   N96  En4  v044
 BYTE   W96
//  #07 //108   ----------------------------------------
 BYTE   W96
//  #07 //109   ----------------------------------------
 BYTE   W96
//  #07 //110   ----------------------------------------
 BYTE   W96
//  #07 //111   ----------------------------------------
 BYTE   W96
//  #07 //112   ----------------------------------------
 BYTE   W96
//  #07 //113   ----------------------------------------
 BYTE   W96
//  #07 //114   ----------------------------------------
 BYTE   W96
//  #07 //115   ----------------------------------------
 BYTE   W96
//  #07 //116   ----------------------------------------
 BYTE   W96
//  #07 //117   ----------------------------------------
 BYTE   W96
//  #07 //118   ----------------------------------------
 BYTE   W96
//  #07 //119   ----------------------------------------
 BYTE   W96
//  #07 //120   ----------------------------------------
 BYTE   W96
//  #07 //121   ----------------------------------------
 BYTE   W96
//  #07 //122   ----------------------------------------
 BYTE   W96
//  #07 //123   ----------------------------------------
 BYTE   W96
//  #07 //124   ----------------------------------------
 BYTE   W96
//  #07 //125   ----------------------------------------
 BYTE   W96
//  #07 //126   ----------------------------------------
 BYTE   W96
//  #07 //127   ----------------------------------------
 BYTE   W96
//  #07 //128   ----------------------------------------
 BYTE   W96
//  #07 //129   ----------------------------------------
 BYTE   W96
//  #07 //130   ----------------------------------------
 BYTE   W96
//  #07 //131   ----------------------------------------
 BYTE   W96
//  #07 //132   ----------------------------------------
 BYTE   W96
//  #07 //133   ----------------------------------------
 BYTE   W96
//  #07 //134   ----------------------------------------
 BYTE   W96
//  #07 //135   ----------------------------------------
 BYTE   W96
//  #07 //136   ----------------------------------------
 BYTE   W96
//  #07 //137   ----------------------------------------
 BYTE   PATT
  POIN2 Label_01498614
//  #07 //138   ----------------------------------------
 BYTE   PATT
  POIN2 Label_0149861B
//  #07 //139   ----------------------------------------
 BYTE   N48  En4  v044
 BYTE   W96
//  #07 //140   ----------------------------------------
 BYTE   W96
//  #07 //141   ----------------------------------------
 BYTE   W96
//  #07 //142   ----------------------------------------
 BYTE   W96
//  #07 //143   ----------------------------------------
 BYTE   W96
//  #07 //144   ----------------------------------------
 BYTE   W96
//  #07 //145   ----------------------------------------
 BYTE   PATT
  POIN2 Label_01498614
//  #07 //146   ----------------------------------------
 BYTE   PATT
  POIN2 Label_0149861B
//  #07 //147   ----------------------------------------
 BYTE   N48  En4  v044
 BYTE   W96
//  #07 //148   ----------------------------------------
 BYTE   W96
//  #07 //149   ----------------------------------------
 BYTE   W96
//  #07 //150   ----------------------------------------
 BYTE   W96
//  #07 //151   ----------------------------------------
 BYTE   W96
//  #07 //152   ----------------------------------------
 BYTE   W96
//  #07 //153   ----------------------------------------
 BYTE   PATT
  POIN2 Label_0149863C
//  #07 //154   ----------------------------------------
 BYTE   W96
//  #07 //155   ----------------------------------------
 BYTE   PATT
  POIN2 Label_0149863C
//  #07 //156   ----------------------------------------
 BYTE   W96
//  #07 //157   ----------------------------------------
 BYTE   PATT
  POIN2 Label_0149863C
//  #07 //158   ----------------------------------------
 BYTE   W96
//  #07 //159   ----------------------------------------
 BYTE   W96
//  #07 //160   ----------------------------------------
 BYTE   W96
//  #07 //161   ----------------------------------------
 BYTE   W96
//  #07 //162   ----------------------------------------
 BYTE   PATT
  POIN2 Label_01498656
//  #07 //163   ----------------------------------------
 BYTE   PATT
  POIN2 Label_0149865D
//  #07 //164   ----------------------------------------
 BYTE   N96  En4  v044
 BYTE   W96
//  #07 //165   ----------------------------------------
 BYTE   W96
//  #07 //166   ----------------------------------------
 BYTE   W96
//  #07 //167   ----------------------------------------
 BYTE   W96
//  #07 //168   ----------------------------------------
 BYTE   W96
//  #07 //169   ----------------------------------------
 BYTE   W96
//  #07 //170   ----------------------------------------
 BYTE   W96
//  #07 //171   ----------------------------------------
 BYTE   W96
//  #07 //172   ----------------------------------------
 BYTE   W96
//  #07 //173   ----------------------------------------
 BYTE   W96
//  #07 //174   ----------------------------------------
 BYTE   W96
//  #07 //175   ----------------------------------------
 BYTE   W96
//  #07 //176   ----------------------------------------
 BYTE   W96
//  #07 //177   ----------------------------------------
 BYTE   W96
//  #07 //178   ----------------------------------------
 BYTE   W96
//  #07 //179   ----------------------------------------
 BYTE   W96
//  #07 //180   ----------------------------------------
 BYTE   W96
//  #07 //181   ----------------------------------------
 BYTE   W96
//  #07 //182   ----------------------------------------
 BYTE   W96
//  #07 //183   ----------------------------------------
 BYTE   W96
//  #07 //184   ----------------------------------------
 BYTE   W96
//  #07 //185   ----------------------------------------
 BYTE   W96
//  #07 //186   ----------------------------------------
 BYTE   PATT
  POIN2 Label_01498614
//  #07 //187   ----------------------------------------
 BYTE   PATT
  POIN2 Label_0149861B
//  #07 //188   ----------------------------------------
 BYTE   N48  En4  v044
 BYTE   W96
//  #07 //189   ----------------------------------------
 BYTE   W96
//  #07 //190   ----------------------------------------
 BYTE   W96
//  #07 //191   ----------------------------------------
 BYTE   W96
//  #07 //192   ----------------------------------------
 BYTE   W96
//  #07 //193   ----------------------------------------
 BYTE   W96
//  #07 //194   ----------------------------------------
 BYTE   PATT
  POIN2 Label_01498614
//  #07 //195   ----------------------------------------
 BYTE   PATT
  POIN2 Label_0149861B
//  #07 //196   ----------------------------------------
 BYTE   N48  En4  v044
 BYTE   W96
//  #07 //197   ----------------------------------------
 BYTE   W96
//  #07 //198   ----------------------------------------
 BYTE   W96
//  #07 //199   ----------------------------------------
 BYTE   W96
//  #07 //200   ----------------------------------------
 BYTE   W96
//  #07 //201   ----------------------------------------
 BYTE   W96
//  #07 //202   ----------------------------------------
 BYTE   W96
//  #07 //203   ----------------------------------------
 BYTE   PATT
  POIN2 Label_0149863C
//  #07 //204   ----------------------------------------
 BYTE   W96
//  #07 //205   ----------------------------------------
 BYTE   PATT
  POIN2 Label_0149863C
//  #07 //206   ----------------------------------------
 BYTE   W96
//  #07 //207   ----------------------------------------
 BYTE   PATT
  POIN2 Label_0149863C
//  #07 //208   ----------------------------------------
 BYTE   W96
//  #07 //209   ----------------------------------------
 BYTE   W96
//  #07 //210   ----------------------------------------
 BYTE   W96
//  #07 //211   ----------------------------------------
 BYTE   W96
//  #07 //212   ----------------------------------------
 BYTE   PATT
  POIN2 Label_01498656
//  #07 //213   ----------------------------------------
 BYTE   PATT
  POIN2 Label_0149865D
//  #07 //214   ----------------------------------------
 BYTE   N96  En4  v044
 BYTE   W96
//  #07 //215   ----------------------------------------
 BYTE   W96
//  #07 //216   ----------------------------------------
 BYTE   GoTo
  POIN2 Label_014985EE
 BYTE   FINE

//**************** Track 8 (Midi-Chn.7) ****************//

MissionStreet_008:
//  #08 //000   ----------------------------------------
 BYTE   KEYSH   MissionStreet_key+0
Label_01498796:
 BYTE   VOICE   127
 BYTE   MODT 0
 BYTE   LFOS 44
 BYTE   VOL   85*MissionStreet_mvl/mxv
 BYTE   N06  Cn1  v044
 BYTE   W24
 BYTE   N06
 BYTE   W24
 BYTE   N06
 BYTE   W24
 BYTE   N06
 BYTE   W24
//  #08 //001   ----------------------------------------
 BYTE   N06
 BYTE   N06  Dn1
 BYTE   N06  En1
 BYTE   N06  Dn2
 BYTE   W12
 BYTE   Dn1
 BYTE   N06  En1
 BYTE   N06  Dn2
 BYTE   W06
 BYTE   Dn1
 BYTE   N06  En1
 BYTE   N06  Dn2
 BYTE   W06
 BYTE   Cn1
 BYTE   N06  Dn1
 BYTE   N06  En1
 BYTE   N06  Cn2
 BYTE   W12
 BYTE   Dn1
 BYTE   N06  En1
 BYTE   N06  Cn2
 BYTE   W12
 BYTE   Cn1
 BYTE   N06  Dn1
 BYTE   N06  En1
 BYTE   N06  An1
 BYTE   W12
 BYTE   Dn1
 BYTE   N06  En1
 BYTE   N06  An1
 BYTE   W12
 BYTE   Cn1
 BYTE   N06  Dn1
 BYTE   N06  En1
 BYTE   N06  Dn2
 BYTE   W12
 BYTE   An1
 BYTE   W12
//  #08 //002   ----------------------------------------
Label_014987E2:
 BYTE   N06  Cn1  v044
 BYTE   N24  As1
 BYTE   N24  Cs2
 BYTE   W24
 BYTE   N06  Dn1
 BYTE   N06  En1
 BYTE   N24  As1
 BYTE   W12
 BYTE   N06  Cn1
 BYTE   W12
 BYTE   N06
 BYTE   N24  As1
 BYTE   W12
 BYTE   N06  Cn1
 BYTE   W12
 BYTE   Dn1
 BYTE   N06  En1
 BYTE   N24  As1
 BYTE   W12
 BYTE   N06  Cn1
 BYTE   W12
 BYTE   PEND 
//  #08 //003   ----------------------------------------
Label_01498805:
 BYTE   N24  As1  v044
 BYTE   W12
 BYTE   N06  Cn1
 BYTE   W12
 BYTE   Dn1
 BYTE   N06  En1
 BYTE   N24  As1
 BYTE   W12
 BYTE   N06  Cn1
 BYTE   W12
 BYTE   N06
 BYTE   N24  As1
 BYTE   W24
 BYTE   N06  Dn1
 BYTE   N06  En1
 BYTE   N24  As1
 BYTE   W12
 BYTE   N06  Cn1
 BYTE   W12
 BYTE   PEND 
//  #08 //004   ----------------------------------------
Label_01498824:
 BYTE   N06  Cn1  v044
 BYTE   N24  As1
 BYTE   W24
 BYTE   N06  Dn1
 BYTE   N06  En1
 BYTE   N24  As1
 BYTE   W12
 BYTE   N06  Cn1
 BYTE   W12
 BYTE   N06
 BYTE   N24  As1
 BYTE   W12
 BYTE   N06  Cn1
 BYTE   W12
 BYTE   Dn1
 BYTE   N06  En1
 BYTE   N24  As1
 BYTE   W12
 BYTE   N06  Cn1
 BYTE   W12
 BYTE   PEND 
//  #08 //005   ----------------------------------------
Label_01498845:
 BYTE   N24  As1  v044
 BYTE   W12
 BYTE   N06  Cn1
 BYTE   W12
 BYTE   Dn1
 BYTE   N06  En1
 BYTE   N24  As1
 BYTE   W12
 BYTE   N06  Cn1
 BYTE   W12
 BYTE   N06
 BYTE   N24  As1
 BYTE   W12
 BYTE   N06  Cn1
 BYTE   W12
 BYTE   Dn1
 BYTE   N06  En1
 BYTE   N24  As1
 BYTE   W12
 BYTE   N06  Cn1
 BYTE   W12
 BYTE   PEND 
//  #08 //006   ----------------------------------------
 BYTE   PATT
  POIN2 Label_014987E2
//  #08 //007   ----------------------------------------
 BYTE   PATT
  POIN2 Label_01498805
//  #08 //008   ----------------------------------------
 BYTE   PATT
  POIN2 Label_01498824
//  #08 //009   ----------------------------------------
Label_01498875:
 BYTE   N24  As1  v044
 BYTE   W12
 BYTE   N06  Cn1
 BYTE   W12
 BYTE   Dn1
 BYTE   N06  En1
 BYTE   N24  As1
 BYTE   W12
 BYTE   N06  Cn1
 BYTE   W12
 BYTE   N06
 BYTE   N24  As1
 BYTE   W12
 BYTE   N06  Dn1
 BYTE   N06  En1
 BYTE   W12
 BYTE   Dn1
 BYTE   N06  En1
 BYTE   N24  As1
 BYTE   W12
 BYTE   N06  Dn1
 BYTE   N06  En1
 BYTE   W12
 BYTE   PEND 
//  #08 //010   ----------------------------------------
Label_0149889A:
 BYTE   N06  Cn1  v044
 BYTE   N12  Fs1
 BYTE   N12  Gs1
 BYTE   N24  Cs2
 BYTE   W12
 BYTE   N12  Fs1
 BYTE   N12  Gs1
 BYTE   W12
 BYTE   N06  Dn1
 BYTE   N06  En1
 BYTE   N12  Fs1
 BYTE   N12  Gs1
 BYTE   W12
 BYTE   N06  Cn1
 BYTE   N12  Fs1
 BYTE   N12  Gs1
 BYTE   W12
 BYTE   N06  Cn1
 BYTE   N12  Fs1
 BYTE   N12  Gs1
 BYTE   W12
 BYTE   N06  Cn1
 BYTE   N12  Fs1
 BYTE   N12  Gs1
 BYTE   W12
 BYTE   N06  Dn1
 BYTE   N06  En1
 BYTE   N12  Fs1
 BYTE   N12  Gs1
 BYTE   W12
 BYTE   N06  Cn1
 BYTE   N12  Fs1
 BYTE   N12  Gs1
 BYTE   W12
 BYTE   PEND 
//  #08 //011   ----------------------------------------
Label_014988D8:
 BYTE   N12  Fs1  v044
 BYTE   N12  Gs1
 BYTE   W12
 BYTE   N06  Cn1
 BYTE   N12  Fs1
 BYTE   N12  Gs1
 BYTE   W12
 BYTE   N06  Dn1
 BYTE   N06  En1
 BYTE   N12  Fs1
 BYTE   N12  Gs1
 BYTE   W12
 BYTE   N06  Cn1
 BYTE   N12  Fs1
 BYTE   N12  Gs1
 BYTE   W12
 BYTE   N06  Cn1
 BYTE   N12  Fs1
 BYTE   N12  Gs1
 BYTE   W12
 BYTE   Fs1
 BYTE   N12  Gs1
 BYTE   W12
 BYTE   N06  Dn1
 BYTE   N06  En1
 BYTE   N12  Fs1
 BYTE   N12  Gs1
 BYTE   W12
 BYTE   N06  Cn1
 BYTE   N12  Fs1
 BYTE   N12  Gs1
 BYTE   W12
 BYTE   PEND 
//  #08 //012   ----------------------------------------
Label_01498911:
 BYTE   N06  Cn1  v044
 BYTE   N12  Fs1
 BYTE   N12  Gs1
 BYTE   W12
 BYTE   Fs1
 BYTE   N12  Gs1
 BYTE   W12
 BYTE   N06  Dn1
 BYTE   N06  En1
 BYTE   N12  Fs1
 BYTE   N12  Gs1
 BYTE   W12
 BYTE   N06  Cn1
 BYTE   N12  Fs1
 BYTE   N12  Gs1
 BYTE   W12
 BYTE   N06  Cn1
 BYTE   N12  Fs1
 BYTE   N12  Gs1
 BYTE   W12
 BYTE   N06  Cn1
 BYTE   N12  Fs1
 BYTE   N12  Gs1
 BYTE   W12
 BYTE   N06  Dn1
 BYTE   N06  En1
 BYTE   N12  Fs1
 BYTE   N12  Gs1
 BYTE   W12
 BYTE   N06  Cn1
 BYTE   N12  Fs1
 BYTE   N12  Gs1
 BYTE   W12
 BYTE   PEND 
//  #08 //013   ----------------------------------------
 BYTE   PATT
  POIN2 Label_014988D8
//  #08 //014   ----------------------------------------
 BYTE   PATT
  POIN2 Label_0149889A
//  #08 //015   ----------------------------------------
 BYTE   PATT
  POIN2 Label_014988D8
//  #08 //016   ----------------------------------------
 BYTE   PATT
  POIN2 Label_01498911
//  #08 //017   ----------------------------------------
Label_01498960:
 BYTE   N12  Fs1  v044
 BYTE   N12  Gs1
 BYTE   W12
 BYTE   N06  Cn1
 BYTE   N12  Fs1
 BYTE   N12  Gs1
 BYTE   W12
 BYTE   N06  Dn1
 BYTE   N06  En1
 BYTE   N12  Fs1
 BYTE   N12  Gs1
 BYTE   W12
 BYTE   N06  Cn1
 BYTE   N12  Fs1
 BYTE   N12  Gs1
 BYTE   W12
 BYTE   N06  Cn1
 BYTE   N12  Fs1
 BYTE   N12  Gs1
 BYTE   W12
 BYTE   N06  Dn1
 BYTE   N06  En1
 BYTE   N12  Fs1
 BYTE   N12  Gs1
 BYTE   W12
 BYTE   N06  Dn1
 BYTE   N06  En1
 BYTE   N12  Fs1
 BYTE   N12  Gs1
 BYTE   W12
 BYTE   N06  Dn1
 BYTE   N06  En1
 BYTE   N12  Fs1
 BYTE   N12  Gs1
 BYTE   W12
 BYTE   PEND 
//  #08 //018   ----------------------------------------
 BYTE   PATT
  POIN2 Label_0149889A
//  #08 //019   ----------------------------------------
 BYTE   PATT
  POIN2 Label_014988D8
//  #08 //020   ----------------------------------------
 BYTE   PATT
  POIN2 Label_01498911
//  #08 //021   ----------------------------------------
 BYTE   PATT
  POIN2 Label_014988D8
//  #08 //022   ----------------------------------------
 BYTE   PATT
  POIN2 Label_0149889A
//  #08 //023   ----------------------------------------
 BYTE   PATT
  POIN2 Label_014988D8
//  #08 //024   ----------------------------------------
 BYTE   PATT
  POIN2 Label_01498911
//  #08 //025   ----------------------------------------
 BYTE   PATT
  POIN2 Label_01498960
//  #08 //026   ----------------------------------------
 BYTE   PATT
  POIN2 Label_0149889A
//  #08 //027   ----------------------------------------
 BYTE   PATT
  POIN2 Label_014988D8
//  #08 //028   ----------------------------------------
 BYTE   PATT
  POIN2 Label_01498911
//  #08 //029   ----------------------------------------
 BYTE   PATT
  POIN2 Label_014988D8
//  #08 //030   ----------------------------------------
 BYTE   PATT
  POIN2 Label_0149889A
//  #08 //031   ----------------------------------------
 BYTE   PATT
  POIN2 Label_014988D8
//  #08 //032   ----------------------------------------
 BYTE   PATT
  POIN2 Label_01498911
//  #08 //033   ----------------------------------------
Label_014989EB:
 BYTE   N12  Fs1  v044
 BYTE   N12  Gs1
 BYTE   N24  As1
 BYTE   W12
 BYTE   N06  Cn1
 BYTE   N12  Fs1
 BYTE   N12  Gs1
 BYTE   W12
 BYTE   N06  Dn1
 BYTE   N06  En1
 BYTE   N12  Fs1
 BYTE   N12  Gs1
 BYTE   N24  As1
 BYTE   W12
 BYTE   N06  Cn1
 BYTE   N12  Fs1
 BYTE   N12  Gs1
 BYTE   W12
 BYTE   N06  Cn1
 BYTE   N12  Fs1
 BYTE   N12  Gs1
 BYTE   N24  As1
 BYTE   N24  Cs2
 BYTE   W12
 BYTE   N06  Dn1
 BYTE   N06  En1
 BYTE   N12  Fs1
 BYTE   N12  Gs1
 BYTE   W12
 BYTE   N06  Dn1
 BYTE   N06  En1
 BYTE   N12  Fs1
 BYTE   N12  Gs1
 BYTE   N24  As1
 BYTE   N24  Cs2
 BYTE   W12
 BYTE   N06  Dn1
 BYTE   N06  En1
 BYTE   N12  Fs1
 BYTE   N12  Gs1
 BYTE   W12
 BYTE   PEND 
//  #08 //034   ----------------------------------------
 BYTE   PATT
  POIN2 Label_0149889A
//  #08 //035   ----------------------------------------
 BYTE   PATT
  POIN2 Label_014988D8
//  #08 //036   ----------------------------------------
 BYTE   PATT
  POIN2 Label_01498911
//  #08 //037   ----------------------------------------
 BYTE   PATT
  POIN2 Label_014988D8
//  #08 //038   ----------------------------------------
 BYTE   PATT
  POIN2 Label_0149889A
//  #08 //039   ----------------------------------------
 BYTE   PATT
  POIN2 Label_014988D8
//  #08 //040   ----------------------------------------
Label_01498A55:
 BYTE   N06  Cn1  v044
 BYTE   N12  Fs1
 BYTE   N12  Gs1
 BYTE   N24  As1
 BYTE   W12
 BYTE   N12  Fs1
 BYTE   N12  Gs1
 BYTE   W12
 BYTE   N06  Dn1
 BYTE   N06  En1
 BYTE   N12  Fs1
 BYTE   N12  Gs1
 BYTE   N24  As1
 BYTE   W12
 BYTE   N06  Cn1
 BYTE   N12  Fs1
 BYTE   N12  Gs1
 BYTE   W12
 BYTE   N06  Cn1
 BYTE   N12  Fs1
 BYTE   N12  Gs1
 BYTE   N24  As1
 BYTE   W12
 BYTE   N06  Cn1
 BYTE   N12  Fs1
 BYTE   N12  Gs1
 BYTE   W12
 BYTE   N06  Dn1
 BYTE   N06  En1
 BYTE   N12  Fs1
 BYTE   N12  Gs1
 BYTE   N24  As1
 BYTE   W12
 BYTE   N06  Cn1
 BYTE   N12  Fs1
 BYTE   N12  Gs1
 BYTE   W12
 BYTE   PEND 
//  #08 //041   ----------------------------------------
Label_01498A99:
 BYTE   N12  Fs1  v044
 BYTE   N12  Gs1
 BYTE   N24  As1
 BYTE   W12
 BYTE   N06  Cn1
 BYTE   N12  Fs1
 BYTE   N12  Gs1
 BYTE   W12
 BYTE   N06  Dn1
 BYTE   N06  En1
 BYTE   N12  Fs1
 BYTE   N12  Gs1
 BYTE   N24  As1
 BYTE   W12
 BYTE   N06  Cn1
 BYTE   N12  Fs1
 BYTE   N12  Gs1
 BYTE   W12
 BYTE   N06  Cn1
 BYTE   N12  Fs1
 BYTE   N12  Gs1
 BYTE   N24  As1
 BYTE   W12
 BYTE   N12  Fs1
 BYTE   N12  Gs1
 BYTE   W12
 BYTE   N06  Dn1
 BYTE   N06  En1
 BYTE   N12  Fs1
 BYTE   N12  Gs1
 BYTE   N24  As1
 BYTE   W12
 BYTE   N06  Cn1
 BYTE   N12  Fs1
 BYTE   N12  Gs1
 BYTE   W12
 BYTE   PEND 
//  #08 //042   ----------------------------------------
 BYTE   PATT
  POIN2 Label_01498A55
//  #08 //043   ----------------------------------------
 BYTE   PATT
  POIN2 Label_01498A99
//  #08 //044   ----------------------------------------
Label_01498AE5:
 BYTE   N06  Cn1  v044
 BYTE   N12  Fs1
 BYTE   N12  Gs1
 BYTE   N96  Cs2
 BYTE   W12
 BYTE   N12  Fs1
 BYTE   N12  Gs1
 BYTE   W12
 BYTE   N24  Fs1
 BYTE   N24  Gs1
 BYTE   N24  As1
 BYTE   W24
 BYTE   N12  Fs1
 BYTE   N12  Gs1
 BYTE   W12
 BYTE   Fs1
 BYTE   N12  Gs1
 BYTE   W12
 BYTE   N24  Fs1
 BYTE   N24  Gs1
 BYTE   N24  As1
 BYTE   W24
 BYTE   PEND 
//  #08 //045   ----------------------------------------
Label_01498B0C:
 BYTE   N06  Cn1  v044
 BYTE   N12  Fs1
 BYTE   N12  Gs1
 BYTE   N24  As1
 BYTE   N24  Cs2
 BYTE   W12
 BYTE   N12  Fs1
 BYTE   N12  Gs1
 BYTE   W12
 BYTE   N06  Dn1
 BYTE   N06  En1
 BYTE   N12  Fs1
 BYTE   N12  Gs1
 BYTE   N24  As1
 BYTE   W12
 BYTE   N06  Cn1
 BYTE   N12  Fs1
 BYTE   N12  Gs1
 BYTE   W12
 BYTE   N06  Cn1
 BYTE   N12  Fs1
 BYTE   N12  Gs1
 BYTE   N24  As1
 BYTE   W12
 BYTE   N06  Cn1
 BYTE   N12  Fs1
 BYTE   N12  Gs1
 BYTE   W12
 BYTE   N06  Dn1
 BYTE   N06  En1
 BYTE   N12  Fs1
 BYTE   N12  Gs1
 BYTE   N24  As1
 BYTE   W12
 BYTE   N06  Cn1
 BYTE   N12  Fs1
 BYTE   N12  Gs1
 BYTE   W12
 BYTE   PEND 
//  #08 //046   ----------------------------------------
 BYTE   PATT
  POIN2 Label_01498A99
//  #08 //047   ----------------------------------------
 BYTE   PATT
  POIN2 Label_01498A55
//  #08 //048   ----------------------------------------
 BYTE   PATT
  POIN2 Label_01498A99
//  #08 //049   ----------------------------------------
 BYTE   PATT
  POIN2 Label_01498B0C
//  #08 //050   ----------------------------------------
 BYTE   PATT
  POIN2 Label_01498A99
//  #08 //051   ----------------------------------------
 BYTE   PATT
  POIN2 Label_01498A55
//  #08 //052   ----------------------------------------
Label_01498B70:
 BYTE   N12  Fs1  v044
 BYTE   N12  Gs1
 BYTE   N24  As1
 BYTE   W12
 BYTE   N06  Cn1
 BYTE   N12  Fs1
 BYTE   N12  Gs1
 BYTE   W12
 BYTE   N06  Dn1
 BYTE   N06  En1
 BYTE   N12  Fs1
 BYTE   N12  Gs1
 BYTE   N24  As1
 BYTE   W12
 BYTE   N06  Dn1
 BYTE   N06  En1
 BYTE   N12  Fs1
 BYTE   N12  Gs1
 BYTE   W12
 BYTE   N06  Cn1
 BYTE   N12  Fs1
 BYTE   N12  Gs1
 BYTE   N24  As1
 BYTE   W12
 BYTE   N06  Cn1
 BYTE   N12  Fs1
 BYTE   N12  Gs1
 BYTE   W12
 BYTE   N06  Dn1
 BYTE   N06  En1
 BYTE   N12  Fs1
 BYTE   N12  Gs1
 BYTE   N24  As1
 BYTE   W12
 BYTE   N06  Cn1
 BYTE   N12  Fs1
 BYTE   N12  Gs1
 BYTE   W12
 BYTE   PEND 
//  #08 //053   ----------------------------------------
 BYTE   PATT
  POIN2 Label_01498B0C
//  #08 //054   ----------------------------------------
 BYTE   PATT
  POIN2 Label_01498A99
//  #08 //055   ----------------------------------------
 BYTE   PATT
  POIN2 Label_01498A55
//  #08 //056   ----------------------------------------
 BYTE   PATT
  POIN2 Label_01498A99
//  #08 //057   ----------------------------------------
 BYTE   PATT
  POIN2 Label_01498B0C
//  #08 //058   ----------------------------------------
Label_01498BCF:
 BYTE   N06  Dn1  v044
 BYTE   N06  En1
 BYTE   N12  Fs1
 BYTE   N12  Gs1
 BYTE   N24  As1
 BYTE   W12
 BYTE   N06  Cn1
 BYTE   W12
 BYTE   Dn1
 BYTE   N06  En1
 BYTE   W12
 BYTE   Cn1
 BYTE   N06  Dn2
 BYTE   W06
 BYTE   Cn1
 BYTE   N06  Cn2
 BYTE   W06
 BYTE   Cn1
 BYTE   N06  An1
 BYTE   W12
 BYTE   Cn1
 BYTE   W12
 BYTE   Dn1
 BYTE   N06  En1
 BYTE   N24  As1
 BYTE   W12
 BYTE   N06  Cn1
 BYTE   W12
 BYTE   PEND 
//  #08 //059   ----------------------------------------
 BYTE   PATT
  POIN2 Label_0149889A
//  #08 //060   ----------------------------------------
 BYTE   PATT
  POIN2 Label_014988D8
//  #08 //061   ----------------------------------------
 BYTE   PATT
  POIN2 Label_01498911
//  #08 //062   ----------------------------------------
 BYTE   PATT
  POIN2 Label_014988D8
//  #08 //063   ----------------------------------------
 BYTE   PATT
  POIN2 Label_0149889A
//  #08 //064   ----------------------------------------
 BYTE   PATT
  POIN2 Label_014988D8
//  #08 //065   ----------------------------------------
 BYTE   PATT
  POIN2 Label_01498911
//  #08 //066   ----------------------------------------
 BYTE   PATT
  POIN2 Label_01498960
//  #08 //067   ----------------------------------------
 BYTE   PATT
  POIN2 Label_0149889A
//  #08 //068   ----------------------------------------
 BYTE   PATT
  POIN2 Label_014988D8
//  #08 //069   ----------------------------------------
 BYTE   PATT
  POIN2 Label_01498911
//  #08 //070   ----------------------------------------
 BYTE   PATT
  POIN2 Label_014988D8
//  #08 //071   ----------------------------------------
 BYTE   PATT
  POIN2 Label_0149889A
//  #08 //072   ----------------------------------------
 BYTE   PATT
  POIN2 Label_014988D8
//  #08 //073   ----------------------------------------
 BYTE   PATT
  POIN2 Label_01498911
//  #08 //074   ----------------------------------------
 BYTE   PATT
  POIN2 Label_01498960
//  #08 //075   ----------------------------------------
 BYTE   PATT
  POIN2 Label_0149889A
//  #08 //076   ----------------------------------------
 BYTE   PATT
  POIN2 Label_014988D8
//  #08 //077   ----------------------------------------
 BYTE   PATT
  POIN2 Label_01498911
//  #08 //078   ----------------------------------------
 BYTE   PATT
  POIN2 Label_014988D8
//  #08 //079   ----------------------------------------
 BYTE   PATT
  POIN2 Label_0149889A
//  #08 //080   ----------------------------------------
 BYTE   PATT
  POIN2 Label_014988D8
//  #08 //081   ----------------------------------------
 BYTE   PATT
  POIN2 Label_01498911
//  #08 //082   ----------------------------------------
 BYTE   PATT
  POIN2 Label_014989EB
//  #08 //083   ----------------------------------------
 BYTE   PATT
  POIN2 Label_0149889A
//  #08 //084   ----------------------------------------
 BYTE   PATT
  POIN2 Label_014988D8
//  #08 //085   ----------------------------------------
 BYTE   PATT
  POIN2 Label_01498911
//  #08 //086   ----------------------------------------
 BYTE   PATT
  POIN2 Label_014988D8
//  #08 //087   ----------------------------------------
 BYTE   PATT
  POIN2 Label_0149889A
//  #08 //088   ----------------------------------------
 BYTE   PATT
  POIN2 Label_014988D8
//  #08 //089   ----------------------------------------
 BYTE   PATT
  POIN2 Label_01498A55
//  #08 //090   ----------------------------------------
 BYTE   PATT
  POIN2 Label_01498A99
//  #08 //091   ----------------------------------------
 BYTE   PATT
  POIN2 Label_01498A55
//  #08 //092   ----------------------------------------
 BYTE   PATT
  POIN2 Label_01498A99
//  #08 //093   ----------------------------------------
 BYTE   PATT
  POIN2 Label_01498AE5
//  #08 //094   ----------------------------------------
Label_01498CA9:
 BYTE   N06  Dn1  v044
 BYTE   N06  En1
 BYTE   N24  Fs1
 BYTE   N24  Gs1
 BYTE   N96  Cs2
 BYTE   W12
 BYTE   N06  Cn1
 BYTE   W12
 BYTE   N24  Fs1
 BYTE   N24  Gs1
 BYTE   N24  As1
 BYTE   W12
 BYTE   N06  Cn1
 BYTE   W12
 BYTE   N24  Fs1
 BYTE   N24  Gs1
 BYTE   N24  As1
 BYTE   W12
 BYTE   N06  Cn1
 BYTE   W06
 BYTE   N06
 BYTE   W06
 BYTE   Dn1
 BYTE   N06  En1
 BYTE   N24  Fs1
 BYTE   N24  Gs1
 BYTE   N24  As1
 BYTE   W12
 BYTE   N06  Cn1
 BYTE   W12
 BYTE   PEND 
//  #08 //095   ----------------------------------------
 BYTE   PATT
  POIN2 Label_01498B0C
//  #08 //096   ----------------------------------------
 BYTE   PATT
  POIN2 Label_01498A99
//  #08 //097   ----------------------------------------
 BYTE   PATT
  POIN2 Label_01498A55
//  #08 //098   ----------------------------------------
 BYTE   PATT
  POIN2 Label_01498A99
//  #08 //099   ----------------------------------------
 BYTE   PATT
  POIN2 Label_01498B0C
//  #08 //100   ----------------------------------------
 BYTE   PATT
  POIN2 Label_01498A99
//  #08 //101   ----------------------------------------
 BYTE   PATT
  POIN2 Label_01498A55
//  #08 //102   ----------------------------------------
 BYTE   PATT
  POIN2 Label_01498B70
//  #08 //103   ----------------------------------------
 BYTE   PATT
  POIN2 Label_01498B0C
//  #08 //104   ----------------------------------------
 BYTE   PATT
  POIN2 Label_01498A99
//  #08 //105   ----------------------------------------
 BYTE   PATT
  POIN2 Label_01498A55
//  #08 //106   ----------------------------------------
 BYTE   PATT
  POIN2 Label_01498A99
//  #08 //107   ----------------------------------------
 BYTE   PATT
  POIN2 Label_01498B0C
//  #08 //108   ----------------------------------------
 BYTE   PATT
  POIN2 Label_01498BCF
//  #08 //109   ----------------------------------------
 BYTE   N06  Cn1  v044
 BYTE   N24  Cs2
 BYTE   W24
 BYTE   N06  Dn1
 BYTE   N06  En1
 BYTE   N24  As1
 BYTE   W12
 BYTE   N06  Cn1
 BYTE   W12
 BYTE   N06
 BYTE   N24  As1
 BYTE   W12
 BYTE   N06  Cn1
 BYTE   W12
 BYTE   Dn1
 BYTE   N06  En1
 BYTE   N24  As1
 BYTE   W12
 BYTE   N06  Cn1
 BYTE   W12
//  #08 //110   ----------------------------------------
 BYTE   PATT
  POIN2 Label_01498805
//  #08 //111   ----------------------------------------
 BYTE   PATT
  POIN2 Label_01498824
//  #08 //112   ----------------------------------------
 BYTE   PATT
  POIN2 Label_01498845
//  #08 //113   ----------------------------------------
 BYTE   PATT
  POIN2 Label_014987E2
//  #08 //114   ----------------------------------------
 BYTE   PATT
  POIN2 Label_01498805
//  #08 //115   ----------------------------------------
 BYTE   PATT
  POIN2 Label_01498824
//  #08 //116   ----------------------------------------
 BYTE   PATT
  POIN2 Label_01498875
//  #08 //117   ----------------------------------------
 BYTE   PATT
  POIN2 Label_0149889A
//  #08 //118   ----------------------------------------
 BYTE   PATT
  POIN2 Label_014988D8
//  #08 //119   ----------------------------------------
 BYTE   PATT
  POIN2 Label_01498911
//  #08 //120   ----------------------------------------
 BYTE   PATT
  POIN2 Label_014988D8
//  #08 //121   ----------------------------------------
 BYTE   PATT
  POIN2 Label_0149889A
//  #08 //122   ----------------------------------------
 BYTE   PATT
  POIN2 Label_014988D8
//  #08 //123   ----------------------------------------
 BYTE   PATT
  POIN2 Label_01498911
//  #08 //124   ----------------------------------------
 BYTE   PATT
  POIN2 Label_01498960
//  #08 //125   ----------------------------------------
 BYTE   PATT
  POIN2 Label_0149889A
//  #08 //126   ----------------------------------------
 BYTE   PATT
  POIN2 Label_014988D8
//  #08 //127   ----------------------------------------
 BYTE   PATT
  POIN2 Label_01498911
//  #08 //128   ----------------------------------------
 BYTE   PATT
  POIN2 Label_014988D8
//  #08 //129   ----------------------------------------
 BYTE   PATT
  POIN2 Label_0149889A
//  #08 //130   ----------------------------------------
 BYTE   PATT
  POIN2 Label_014988D8
//  #08 //131   ----------------------------------------
 BYTE   PATT
  POIN2 Label_01498911
//  #08 //132   ----------------------------------------
 BYTE   PATT
  POIN2 Label_01498960
//  #08 //133   ----------------------------------------
 BYTE   PATT
  POIN2 Label_0149889A
//  #08 //134   ----------------------------------------
 BYTE   PATT
  POIN2 Label_014988D8
//  #08 //135   ----------------------------------------
 BYTE   PATT
  POIN2 Label_01498911
//  #08 //136   ----------------------------------------
 BYTE   PATT
  POIN2 Label_014988D8
//  #08 //137   ----------------------------------------
 BYTE   PATT
  POIN2 Label_0149889A
//  #08 //138   ----------------------------------------
 BYTE   PATT
  POIN2 Label_014988D8
//  #08 //139   ----------------------------------------
 BYTE   PATT
  POIN2 Label_01498911
//  #08 //140   ----------------------------------------
 BYTE   PATT
  POIN2 Label_014989EB
//  #08 //141   ----------------------------------------
 BYTE   PATT
  POIN2 Label_0149889A
//  #08 //142   ----------------------------------------
 BYTE   PATT
  POIN2 Label_014988D8
//  #08 //143   ----------------------------------------
 BYTE   PATT
  POIN2 Label_01498911
//  #08 //144   ----------------------------------------
 BYTE   PATT
  POIN2 Label_014988D8
//  #08 //145   ----------------------------------------
 BYTE   PATT
  POIN2 Label_0149889A
//  #08 //146   ----------------------------------------
 BYTE   PATT
  POIN2 Label_014988D8
//  #08 //147   ----------------------------------------
 BYTE   PATT
  POIN2 Label_01498A55
//  #08 //148   ----------------------------------------
 BYTE   PATT
  POIN2 Label_01498A99
//  #08 //149   ----------------------------------------
 BYTE   PATT
  POIN2 Label_01498A55
//  #08 //150   ----------------------------------------
 BYTE   PATT
  POIN2 Label_01498A99
//  #08 //151   ----------------------------------------
 BYTE   PATT
  POIN2 Label_01498AE5
//  #08 //152   ----------------------------------------
 BYTE   PATT
  POIN2 Label_01498B0C
//  #08 //153   ----------------------------------------
 BYTE   PATT
  POIN2 Label_01498A99
//  #08 //154   ----------------------------------------
 BYTE   PATT
  POIN2 Label_01498A55
//  #08 //155   ----------------------------------------
 BYTE   PATT
  POIN2 Label_01498A99
//  #08 //156   ----------------------------------------
 BYTE   PATT
  POIN2 Label_01498B0C
//  #08 //157   ----------------------------------------
 BYTE   PATT
  POIN2 Label_01498A99
//  #08 //158   ----------------------------------------
 BYTE   PATT
  POIN2 Label_01498A55
//  #08 //159   ----------------------------------------
 BYTE   PATT
  POIN2 Label_01498B70
//  #08 //160   ----------------------------------------
 BYTE   PATT
  POIN2 Label_01498B0C
//  #08 //161   ----------------------------------------
 BYTE   PATT
  POIN2 Label_01498A99
//  #08 //162   ----------------------------------------
 BYTE   PATT
  POIN2 Label_01498A55
//  #08 //163   ----------------------------------------
 BYTE   PATT
  POIN2 Label_01498A99
//  #08 //164   ----------------------------------------
 BYTE   PATT
  POIN2 Label_01498B0C
//  #08 //165   ----------------------------------------
 BYTE   PATT
  POIN2 Label_01498BCF
//  #08 //166   ----------------------------------------
 BYTE   PATT
  POIN2 Label_0149889A
//  #08 //167   ----------------------------------------
 BYTE   PATT
  POIN2 Label_014988D8
//  #08 //168   ----------------------------------------
 BYTE   PATT
  POIN2 Label_01498911
//  #08 //169   ----------------------------------------
 BYTE   PATT
  POIN2 Label_014988D8
//  #08 //170   ----------------------------------------
 BYTE   PATT
  POIN2 Label_0149889A
//  #08 //171   ----------------------------------------
 BYTE   PATT
  POIN2 Label_014988D8
//  #08 //172   ----------------------------------------
 BYTE   PATT
  POIN2 Label_01498911
//  #08 //173   ----------------------------------------
 BYTE   PATT
  POIN2 Label_01498960
//  #08 //174   ----------------------------------------
 BYTE   PATT
  POIN2 Label_0149889A
//  #08 //175   ----------------------------------------
 BYTE   PATT
  POIN2 Label_014988D8
//  #08 //176   ----------------------------------------
 BYTE   PATT
  POIN2 Label_01498911
//  #08 //177   ----------------------------------------
 BYTE   PATT
  POIN2 Label_014988D8
//  #08 //178   ----------------------------------------
 BYTE   PATT
  POIN2 Label_0149889A
//  #08 //179   ----------------------------------------
 BYTE   PATT
  POIN2 Label_014988D8
//  #08 //180   ----------------------------------------
 BYTE   PATT
  POIN2 Label_01498911
//  #08 //181   ----------------------------------------
 BYTE   PATT
  POIN2 Label_01498960
//  #08 //182   ----------------------------------------
 BYTE   PATT
  POIN2 Label_0149889A
//  #08 //183   ----------------------------------------
 BYTE   PATT
  POIN2 Label_014988D8
//  #08 //184   ----------------------------------------
 BYTE   PATT
  POIN2 Label_01498911
//  #08 //185   ----------------------------------------
 BYTE   PATT
  POIN2 Label_014988D8
//  #08 //186   ----------------------------------------
 BYTE   PATT
  POIN2 Label_0149889A
//  #08 //187   ----------------------------------------
 BYTE   PATT
  POIN2 Label_014988D8
//  #08 //188   ----------------------------------------
 BYTE   PATT
  POIN2 Label_01498911
//  #08 //189   ----------------------------------------
 BYTE   PATT
  POIN2 Label_014989EB
//  #08 //190   ----------------------------------------
 BYTE   PATT
  POIN2 Label_0149889A
//  #08 //191   ----------------------------------------
 BYTE   PATT
  POIN2 Label_014988D8
//  #08 //192   ----------------------------------------
 BYTE   PATT
  POIN2 Label_01498911
//  #08 //193   ----------------------------------------
 BYTE   PATT
  POIN2 Label_014988D8
//  #08 //194   ----------------------------------------
 BYTE   PATT
  POIN2 Label_0149889A
//  #08 //195   ----------------------------------------
 BYTE   PATT
  POIN2 Label_014988D8
//  #08 //196   ----------------------------------------
 BYTE   PATT
  POIN2 Label_01498A55
//  #08 //197   ----------------------------------------
 BYTE   PATT
  POIN2 Label_01498A99
//  #08 //198   ----------------------------------------
 BYTE   PATT
  POIN2 Label_01498A55
//  #08 //199   ----------------------------------------
 BYTE   PATT
  POIN2 Label_01498A99
//  #08 //200   ----------------------------------------
 BYTE   PATT
  POIN2 Label_01498AE5
//  #08 //201   ----------------------------------------
 BYTE   PATT
  POIN2 Label_01498CA9
//  #08 //202   ----------------------------------------
 BYTE   PATT
  POIN2 Label_01498B0C
//  #08 //203   ----------------------------------------
 BYTE   PATT
  POIN2 Label_01498A99
//  #08 //204   ----------------------------------------
 BYTE   PATT
  POIN2 Label_01498A55
//  #08 //205   ----------------------------------------
 BYTE   PATT
  POIN2 Label_01498A99
//  #08 //206   ----------------------------------------
 BYTE   PATT
  POIN2 Label_01498B0C
//  #08 //207   ----------------------------------------
 BYTE   PATT
  POIN2 Label_01498A99
//  #08 //208   ----------------------------------------
 BYTE   PATT
  POIN2 Label_01498A55
//  #08 //209   ----------------------------------------
 BYTE   PATT
  POIN2 Label_01498B70
//  #08 //210   ----------------------------------------
 BYTE   PATT
  POIN2 Label_01498B0C
//  #08 //211   ----------------------------------------
 BYTE   PATT
  POIN2 Label_01498A99
//  #08 //212   ----------------------------------------
 BYTE   PATT
  POIN2 Label_01498A55
//  #08 //213   ----------------------------------------
 BYTE   PATT
  POIN2 Label_01498A99
//  #08 //214   ----------------------------------------
 BYTE   PATT
  POIN2 Label_01498B0C
//  #08 //215   ----------------------------------------
 BYTE   PATT
  POIN2 Label_01498BCF
//  #08 //216   ----------------------------------------
 BYTE   GoTo
  POIN2 Label_01498796
 BYTE   FINE

//******************************************************//
	ALIGN 4

MissionStreet:
	BYTE	8	// NumTrks
	BYTE	0	// NumBlks
	BYTE	MissionStreet_pri	// Priority
	BYTE	MissionStreet_rev	// Reverb.
    
	POIN2	MissionStreet_grp
    
	POIN2	MissionStreet_001
	POIN2	MissionStreet_002
	POIN2	MissionStreet_003
	POIN2	MissionStreet_004
	POIN2	MissionStreet_005
	POIN2	MissionStreet_006
	POIN2	MissionStreet_007
	POIN2	MissionStreet_008

	
