//Event file generated from Sappy .s format.
	

	#define	OmoriForestFrenzy_grp  voicegroup000
	#define	OmoriForestFrenzy_pri  0
	#define	OmoriForestFrenzy_rev  0
	#define	OmoriForestFrenzy_mvl  127
	#define	OmoriForestFrenzy_key  0
	#define	OmoriForestFrenzy_tbs  1
	#define	OmoriForestFrenzy_exg  0
	#define	OmoriForestFrenzy_cmp  1

	// .rodata
	//	OmoriForestFrenzy
	ALIGN 4


//**************** Track 1 (Midi-Chn.0) ****************//

OmoriForestFrenzy_001:
//  #01 //000   ----------------------------------------
 BYTE   VOL   60*OmoriForestFrenzy_mvl/mxv
 BYTE   KEYSH   OmoriForestFrenzy_key+0
Label_547848:
 BYTE   TEMPO   142*OmoriForestFrenzy_tbs/2
 BYTE   VOICE   4
 BYTE   MODT 0
 BYTE   LFOS 44
 BYTE   N18  Fs4  v060
 BYTE   W18
 BYTE   Bn3
 BYTE   W18
 BYTE   Fs4
 BYTE   W18
 BYTE   N06  En4
 BYTE   W06
 BYTE   N12  Gn4
 BYTE   W12
 BYTE   An4
 BYTE   W12
 BYTE   Bn3
 BYTE   W12
//  #01 //001   ----------------------------------------
Label_547862:
 BYTE   N18  Fs4  v060
 BYTE   W18
 BYTE   N12  Bn3
 BYTE   W12
 BYTE   N06  En4
 BYTE   W06
 BYTE   N12  Fs4
 BYTE   W12
 BYTE   An4
 BYTE   W12
 BYTE   Gn4
 BYTE   W12
 BYTE   En4
 BYTE   W12
 BYTE   Bn3
 BYTE   W12
 BYTE   PEND 
//  #01 //002   ----------------------------------------
Label_547878:
 BYTE   N18  En4  v060
 BYTE   W18
 BYTE   An3
 BYTE   W18
 BYTE   N60  Cn4
 BYTE   W60
 BYTE   PEND 
//  #01 //003   ----------------------------------------
 BYTE   N18  En4
 BYTE   W18
 BYTE   Bn3
 BYTE   W18
 BYTE   N36  En4
 BYTE   W60
//  #01 //004   ----------------------------------------
Label_54788A:
 BYTE   N18  Fs4  v060
 BYTE   W18
 BYTE   Bn3
 BYTE   W18
 BYTE   Fs4
 BYTE   W18
 BYTE   N06  En4
 BYTE   W06
 BYTE   N12  Gn4
 BYTE   W12
 BYTE   An4
 BYTE   W12
 BYTE   Bn3
 BYTE   W12
 BYTE   PEND 
//  #01 //005   ----------------------------------------
 BYTE   PATT
  POIN2 Label_547862
//  #01 //006   ----------------------------------------
 BYTE   PATT
  POIN2 Label_547878
//  #01 //007   ----------------------------------------
Label_5478A7:
 BYTE   N18  En4  v060
 BYTE   W18
 BYTE   Bn3
 BYTE   W18
 BYTE   N12  En4
 BYTE   W60
 BYTE   PEND 
//  #01 //008   ----------------------------------------
 BYTE   W96
//  #01 //009   ----------------------------------------
 BYTE   W96
//  #01 //010   ----------------------------------------
 BYTE   W96
//  #01 //011   ----------------------------------------
 BYTE   W96
//  #01 //012   ----------------------------------------
 BYTE   W96
//  #01 //013   ----------------------------------------
 BYTE   W96
//  #01 //014   ----------------------------------------
 BYTE   W96
//  #01 //015   ----------------------------------------
 BYTE   W96
//  #01 //016   ----------------------------------------
 BYTE   W96
//  #01 //017   ----------------------------------------
 BYTE   W96
//  #01 //018   ----------------------------------------
 BYTE   W96
//  #01 //019   ----------------------------------------
 BYTE   W96
//  #01 //020   ----------------------------------------
 BYTE   W96
//  #01 //021   ----------------------------------------
 BYTE   W96
//  #01 //022   ----------------------------------------
 BYTE   W96
//  #01 //023   ----------------------------------------
 BYTE   W96
//  #01 //024   ----------------------------------------
 BYTE   W96
//  #01 //025   ----------------------------------------
 BYTE   W96
//  #01 //026   ----------------------------------------
 BYTE   W96
//  #01 //027   ----------------------------------------
 BYTE   W96
//  #01 //028   ----------------------------------------
 BYTE   W96
//  #01 //029   ----------------------------------------
 BYTE   W96
//  #01 //030   ----------------------------------------
 BYTE   W96
//  #01 //031   ----------------------------------------
 BYTE   W96
//  #01 //032   ----------------------------------------
 BYTE   W48
//  #01 //033   ----------------------------------------
 BYTE   PATT
  POIN2 Label_54788A
//  #01 //034   ----------------------------------------
 BYTE   PATT
  POIN2 Label_547862
//  #01 //035   ----------------------------------------
 BYTE   N18  En4  v060
 BYTE   W18
 BYTE   An3
 BYTE   W18
 BYTE   N12  Cn4
 BYTE   W12
 BYTE   An3
 BYTE   W12
 BYTE   Cn4
 BYTE   W12
 BYTE   Bn4
 BYTE   W12
 BYTE   An4
 BYTE   W12
//  #01 //036   ----------------------------------------
 BYTE   PATT
  POIN2 Label_5478A7
//  #01 //037   ----------------------------------------
 BYTE   W96
//  #01 //038   ----------------------------------------
 BYTE   W96
//  #01 //039   ----------------------------------------
 BYTE   W96
//  #01 //040   ----------------------------------------
 BYTE   W96
//  #01 //041   ----------------------------------------
 BYTE   W96
//  #01 //042   ----------------------------------------
 BYTE   W96
//  #01 //043   ----------------------------------------
 BYTE   W96
//  #01 //044   ----------------------------------------
 BYTE   W96
//  #01 //045   ----------------------------------------
 BYTE   W96
//  #01 //046   ----------------------------------------
 BYTE   W96
//  #01 //047   ----------------------------------------
 BYTE   W96
//  #01 //048   ----------------------------------------
 BYTE   W96
//  #01 //049   ----------------------------------------
 BYTE   W96
//  #01 //050   ----------------------------------------
 BYTE   W96
//  #01 //051   ----------------------------------------
 BYTE   W96
//  #01 //052   ----------------------------------------
 BYTE   W96
//  #01 //053   ----------------------------------------
 BYTE   W96
//  #01 //054   ----------------------------------------
 BYTE   W96
//  #01 //055   ----------------------------------------
 BYTE   W96
//  #01 //056   ----------------------------------------
 BYTE   W96
//  #01 //057   ----------------------------------------
 BYTE   W96
//  #01 //058   ----------------------------------------
 BYTE   W96
//  #01 //059   ----------------------------------------
 BYTE   W96
//  #01 //060   ----------------------------------------
 BYTE   W96
//  #01 //061   ----------------------------------------
 BYTE   W96
//  #01 //062   ----------------------------------------
 BYTE   W96
//  #01 //063   ----------------------------------------
 BYTE   W96
//  #01 //064   ----------------------------------------
 BYTE   W96
//  #01 //065   ----------------------------------------
 BYTE   W96
//  #01 //066   ----------------------------------------
 BYTE   W96
//  #01 //067   ----------------------------------------
 BYTE   W96
//  #01 //068   ----------------------------------------
 BYTE   W96
//  #01 //069   ----------------------------------------
 BYTE   GoTo
  POIN2 Label_547848
 BYTE   FINE

//**************** Track 2 (Midi-Chn.1) ****************//

OmoriForestFrenzy_002:
//  #02 //000   ----------------------------------------
 BYTE   VOL   60*OmoriForestFrenzy_mvl/mxv
 BYTE   KEYSH   OmoriForestFrenzy_key+0
Label_01006A28:
 BYTE   VOICE   4
 BYTE   MODT 0
 BYTE   LFOS 44
 BYTE   W96
//  #02 //001   ----------------------------------------
 BYTE   N48  An5  v060
 BYTE   W48
 BYTE   Dn5
 BYTE   W48
//  #02 //002   ----------------------------------------
Label_01006A35:
 BYTE   N72  En5  v060
 BYTE   W72
 BYTE   N12  Bn4
 BYTE   W12
 BYTE   An4
 BYTE   W12
 BYTE   PEND 
//  #02 //003   ----------------------------------------
 BYTE   N96  Bn4
 BYTE   W96
//  #02 //004   ----------------------------------------
 BYTE   Dn5
 BYTE   W96
//  #02 //005   ----------------------------------------
 BYTE   N30  An5
 BYTE   W30
 BYTE   N06  Gs5
 BYTE   W06
 BYTE   Gn5
 BYTE   W06
 BYTE   Fs5
 BYTE   W06
 BYTE   N24
 BYTE   W24
 BYTE   Gn5
 BYTE   W24
//  #02 //006   ----------------------------------------
 BYTE   PATT
  POIN2 Label_01006A35
//  #02 //007   ----------------------------------------
 BYTE   N48  Bn4  v060
 BYTE   W54
 BYTE   N06  Dn4
 BYTE   W06
 BYTE   N12  Cn4
 BYTE   W12
 BYTE   Bn3
 BYTE   W12
 BYTE   Cn4
 BYTE   W12
//  #02 //008   ----------------------------------------
Label_01006A65:
 BYTE   N36  Gn3  v060
 BYTE   N36  Bn3
 BYTE   W36
 BYTE   TIE  Dn3
 BYTE   TIE  Dn4
 BYTE   W60
 BYTE   PEND 
//  #02 //009   ----------------------------------------
 BYTE   W84
 BYTE   EOT
 BYTE   Dn3  v074
 BYTE   N12  Gn2
 BYTE   N12  Gn3
 BYTE   W12
//  #02 //010   ----------------------------------------
Label_01006A7A:
 BYTE   N18  An2  v060
 BYTE   N18  An3
 BYTE   W18
 BYTE   Fs3
 BYTE   N18  Fs4
 BYTE   W18
 BYTE   N06  En3
 BYTE   N06  En4
 BYTE   W06
 BYTE   Ds3
 BYTE   N06  Ds4
 BYTE   W06
 BYTE   TIE  Dn3
 BYTE   TIE  Dn4
 BYTE   W48
 BYTE   PEND 
//  #02 //011   ----------------------------------------
 BYTE   W72
 BYTE   EOT
 BYTE   Dn3  v074
 BYTE   N24  En3
 BYTE   N24  En4
 BYTE   W24
//  #02 //012   ----------------------------------------
Label_01006A9C:
 BYTE   N36  Gn3  v060
 BYTE   N36  Bn3
 BYTE   W36
 BYTE   Dn3
 BYTE   N36  Dn4
 BYTE   W36
 BYTE   TIE  An3
 BYTE   TIE  An4
 BYTE   W24
 BYTE   PEND 
//  #02 //013   ----------------------------------------
 BYTE   W96
//  #02 //014   ----------------------------------------
 BYTE   EOT
 BYTE   An3  v081
Label_01006AB0:
 BYTE   N36  Fn3  v060
 BYTE   N36  Fn4
 BYTE   W36
 BYTE   En3
 BYTE   N36  En4
 BYTE   W36
 BYTE   TIE  Bn2
 BYTE   TIE  Bn3
 BYTE   W24
 BYTE   PEND 
//  #02 //015   ----------------------------------------
 BYTE   W96
//  #02 //016   ----------------------------------------
 BYTE   EOT
 BYTE   Bn2  v071
Label_01006AC4:
 BYTE   N36  Dn3  v060
 BYTE   N36  Dn4
 BYTE   W36
 BYTE   TIE  En3
 BYTE   TIE  En4
 BYTE   W60
 BYTE   PEND 
//  #02 //017   ----------------------------------------
 BYTE   W72
 BYTE   EOT
 BYTE   En3  v076
 BYTE   N24  Cn4
 BYTE   W24
//  #02 //018   ----------------------------------------
Label_01006AD7:
 BYTE   TIE  Dn3  v060
 BYTE   TIE  Dn4
 BYTE   W96
 BYTE   PEND 
//  #02 //019   ----------------------------------------
 BYTE   W48
 BYTE   EOT
 BYTE   Dn3  v074
 BYTE   N18  An3
 BYTE   N18  An4
 BYTE   W18
 BYTE   Cn4
 BYTE   N18  Cn5
 BYTE   W18
 BYTE   N12  Dn4
 BYTE   N12  Dn5
 BYTE   W12
//  #02 //020   ----------------------------------------
 BYTE   N36  En4
 BYTE   N36  En5
 BYTE   W36
 BYTE   N60  Dn4
 BYTE   N60  Dn5
 BYTE   W60
//  #02 //021   ----------------------------------------
Label_01006AFA:
 BYTE   N36  En4  v060
 BYTE   N36  En5
 BYTE   W36
 BYTE   Dn4
 BYTE   N36  Dn5
 BYTE   W36
 BYTE   N24  Fn4
 BYTE   N24  Fn5
 BYTE   W24
 BYTE   PEND 
//  #02 //022   ----------------------------------------
Label_01006B0A:
 BYTE   N36  An4  v060
 BYTE   N36  An5
 BYTE   W36
 BYTE   N24  En4
 BYTE   N24  En5
 BYTE   W24
 BYTE   N12  Gn4
 BYTE   N12  Gn5
 BYTE   W12
 BYTE   N24  En4
 BYTE   N24  En5
 BYTE   W24
 BYTE   PEND 
//  #02 //023   ----------------------------------------
 BYTE   N18  An3
 BYTE   N18  An4
 BYTE   W18
 BYTE   Bn3
 BYTE   N18  Bn4
 BYTE   W18
 BYTE   N24  Cn4
 BYTE   N24  Cn5
 BYTE   W24
 BYTE   N12  En4
 BYTE   N12  En5
 BYTE   W12
 BYTE   N24  Dn4
 BYTE   N24  Dn5
 BYTE   W24
//  #02 //024   ----------------------------------------
Label_01006B38:
 BYTE   N18  An3  v060
 BYTE   N18  An4
 BYTE   W18
 BYTE   As3
 BYTE   N18  As4
 BYTE   W18
 BYTE   N36  Fn4
 BYTE   N36  Fn5
 BYTE   W36
 BYTE   N24  An3
 BYTE   N24  An4
 BYTE   W24
 BYTE   PEND 
//  #02 //025   ----------------------------------------
Label_01006B4D:
 BYTE   N18  As3  v060
 BYTE   N18  As4
 BYTE   W18
 BYTE   An3
 BYTE   N18  An4
 BYTE   W18
 BYTE   N36  Fn4
 BYTE   N36  Fn5
 BYTE   W36
 BYTE   N24  Gn4
 BYTE   N24  Gn5
 BYTE   W24
 BYTE   PEND 
//  #02 //026   ----------------------------------------
 BYTE   N18  An3
 BYTE   N18  An4
 BYTE   W18
 BYTE   Gn3
 BYTE   N18  Gn4
 BYTE   W18
 BYTE   N36  En4
 BYTE   N36  En5
 BYTE   W36
 BYTE   N24  Gn3
 BYTE   N24  Gn4
 BYTE   W24
//  #02 //027   ----------------------------------------
 BYTE   N18  En3
 BYTE   N18  En4
 BYTE   W18
 BYTE   Gn3
 BYTE   N18  Gn4
 BYTE   W18
 BYTE   N36  Dn4
 BYTE   N36  Dn5
 BYTE   W36
 BYTE   N12  En4
 BYTE   N12  En5
 BYTE   W12
 BYTE   N06  Bn3
 BYTE   N06  Bn4
 BYTE   W06
 BYTE   As3
 BYTE   N06  As4
 BYTE   W06
//  #02 //028   ----------------------------------------
 BYTE   PATT
  POIN2 Label_01006B38
//  #02 //029   ----------------------------------------
 BYTE   PATT
  POIN2 Label_01006B4D
//  #02 //030   ----------------------------------------
 BYTE   N18  An3  v060
 BYTE   N18  An4
 BYTE   W18
 BYTE   Gn3
 BYTE   N18  Gn4
 BYTE   W18
 BYTE   N12  En4
 BYTE   N12  En5
 BYTE   W12
 BYTE   N24  Dn4
 BYTE   N24  Dn5
 BYTE   W24
 BYTE   Cn4
 BYTE   N24  Cn5
 BYTE   W24
//  #02 //031   ----------------------------------------
 BYTE   N18  Gn3
 BYTE   N18  Gn4
 BYTE   W18
 BYTE   An3
 BYTE   N18  An4
 BYTE   W18
 BYTE   N12  En3
 BYTE   N12  En4
 BYTE   W12
 BYTE   N18  Gn3
 BYTE   N18  Gn4
 BYTE   W18
 BYTE   An3
 BYTE   N18  An4
 BYTE   W18
 BYTE   N12  An3
 BYTE   N12  An4
 BYTE   W60
//  #02 //032   ----------------------------------------
 BYTE   W96
//  #02 //033   ----------------------------------------
 BYTE   W48
 BYTE   N06  An3
 BYTE   N06  An4
 BYTE   W06
 BYTE   Fs3
 BYTE   N06  Fs4
 BYTE   W06
 BYTE   An3
 BYTE   N06  An4
 BYTE   W06
 BYTE   Bn3
 BYTE   N06  Bn4
 BYTE   W06
 BYTE   Cn4
 BYTE   N06  Cn5
 BYTE   W06
 BYTE   En4
 BYTE   N06  En5
 BYTE   W06
 BYTE   Fs4
 BYTE   N06  Fs5
 BYTE   W06
 BYTE   An4
 BYTE   N06  An5
 BYTE   W06
//  #02 //034   ----------------------------------------
 BYTE   N96  Gn4
 BYTE   N96  Gn5
 BYTE   W96
//  #02 //035   ----------------------------------------
 BYTE   W54
 BYTE   N06  Dn3
 BYTE   N06  Dn4
 BYTE   W06
 BYTE   N12  Cn3
 BYTE   N12  Cn4
 BYTE   W12
 BYTE   Bn2
 BYTE   N12  Bn3
 BYTE   W12
 BYTE   Cn3
 BYTE   N12  Cn4
 BYTE   W12
//  #02 //036   ----------------------------------------
 BYTE   PATT
  POIN2 Label_01006A65
//  #02 //037   ----------------------------------------
 BYTE   W84
 BYTE   EOT
 BYTE   Dn3  v074
 BYTE   N12  Gn2  v060
 BYTE   N12  Gn3
 BYTE   W12
//  #02 //038   ----------------------------------------
 BYTE   PATT
  POIN2 Label_01006A7A
//  #02 //039   ----------------------------------------
 BYTE   W72
 BYTE   EOT
 BYTE   Dn3  v074
 BYTE   N24  En3  v060
 BYTE   N24  En4
 BYTE   W24
//  #02 //040   ----------------------------------------
 BYTE   PATT
  POIN2 Label_01006A9C
//  #02 //041   ----------------------------------------
 BYTE   W96
//  #02 //042   ----------------------------------------
 BYTE   EOT
 BYTE   An3  v081
//  #02 //043   ----------------------------------------
 BYTE   PATT
  POIN2 Label_01006AB0
//  #02 //044   ----------------------------------------
 BYTE   W96
//  #02 //045   ----------------------------------------
 BYTE   EOT
 BYTE   Bn2  v071
//  #02 //046   ----------------------------------------
 BYTE   PATT
  POIN2 Label_01006AC4
//  #02 //047   ----------------------------------------
 BYTE   W72
 BYTE   EOT
 BYTE   En3  v076
 BYTE   N24  Cn4  v060
 BYTE   W24
//  #02 //048   ----------------------------------------
 BYTE   PATT
  POIN2 Label_01006AD7
//  #02 //049   ----------------------------------------
 BYTE   W48
 BYTE   EOT
 BYTE   Dn3  v074
 BYTE   N18  An3  v060
 BYTE   N18  An4
 BYTE   W18
 BYTE   Cn4
 BYTE   N18  Cn5
 BYTE   W18
 BYTE   N12  Dn4
 BYTE   N12  Dn5
 BYTE   W12
//  #02 //050   ----------------------------------------
 BYTE   N36  En4
 BYTE   N36  En5
 BYTE   W36
 BYTE   Dn4
 BYTE   N36  Dn5
 BYTE   W36
 BYTE   N24  Gn4
 BYTE   N24  Gn5
 BYTE   W24
//  #02 //051   ----------------------------------------
 BYTE   PATT
  POIN2 Label_01006AFA
//  #02 //052   ----------------------------------------
 BYTE   PATT
  POIN2 Label_01006B0A
//  #02 //053   ----------------------------------------
 BYTE   N18  An3  v060
 BYTE   N18  An4
 BYTE   W18
 BYTE   Bn3
 BYTE   N18  Bn4
 BYTE   W18
 BYTE   N24  Cn4
 BYTE   N24  Cn5
 BYTE   W24
 BYTE   N12  En4
 BYTE   N12  En5
 BYTE   W12
 BYTE   Dn4
 BYTE   N12  Dn5
 BYTE   W12
 BYTE   Cn4
 BYTE   N12  Cn5
 BYTE   W12
//  #02 //054   ----------------------------------------
 BYTE   N06  An3
 BYTE   N06  An4
 BYTE   W06
 BYTE   N12  Gn3
 BYTE   N12  Gn4
 BYTE   W12
 BYTE   As3
 BYTE   N12  As4
 BYTE   W12
 BYTE   N06  Gn4
 BYTE   N06  Gn5
 BYTE   W06
 BYTE   N24  Fn4
 BYTE   N24  Fn5
 BYTE   W24
 BYTE   N06  Fn4
 BYTE   N06  Fn5
 BYTE   W06
 BYTE   Dn4
 BYTE   N06  Dn5
 BYTE   W06
 BYTE   N12  An3
 BYTE   N12  An4
 BYTE   W12
 BYTE   Gn3
 BYTE   N12  Gn4
 BYTE   W12
//  #02 //055   ----------------------------------------
 BYTE   N06  As3
 BYTE   N06  As4
 BYTE   W06
 BYTE   Cn4
 BYTE   N06  Cn5
 BYTE   W06
 BYTE   Dn4
 BYTE   N06  Dn5
 BYTE   W06
 BYTE   N12  As3
 BYTE   N12  As4
 BYTE   W12
 BYTE   N06  Cn4
 BYTE   N06  Cn5
 BYTE   W06
 BYTE   N12  Fn4
 BYTE   N12  Fn5
 BYTE   W12
 BYTE   Gn4
 BYTE   N12  Gn5
 BYTE   W12
 BYTE   An4
 BYTE   N12  An5
 BYTE   W12
 BYTE   Gn4
 BYTE   N12  Gn5
 BYTE   W12
 BYTE   En4
 BYTE   N12  En5
 BYTE   W12
//  #02 //056   ----------------------------------------
 BYTE   An3
 BYTE   N12  An4
 BYTE   W12
 BYTE   N06  An3
 BYTE   N06  An4
 BYTE   W06
 BYTE   N12  Gn3
 BYTE   N12  Gn4
 BYTE   W12
 BYTE   N06  Gn3
 BYTE   N06  Gn4
 BYTE   W06
 BYTE   An3
 BYTE   N06  An4
 BYTE   W06
 BYTE   Bn3
 BYTE   N06  Bn4
 BYTE   W06
 BYTE   Cn4
 BYTE   N06  Cn5
 BYTE   W06
 BYTE   An3
 BYTE   N06  An4
 BYTE   W06
 BYTE   Bn3
 BYTE   N06  Bn4
 BYTE   W06
 BYTE   An3
 BYTE   N06  An4
 BYTE   W06
 BYTE   N12  Bn3
 BYTE   N12  Bn4
 BYTE   W12
 BYTE   Cn4
 BYTE   N12  Cn5
 BYTE   W12
//  #02 //057   ----------------------------------------
 BYTE   N18  An3
 BYTE   N18  An4
 BYTE   W18
 BYTE   N12  An3
 BYTE   N12  An4
 BYTE   W12
 BYTE   N06  Gn3
 BYTE   N06  Gn4
 BYTE   W06
 BYTE   N24  Dn4
 BYTE   N24  Dn5
 BYTE   W24
 BYTE   N12  Gn4
 BYTE   N12  Gn5
 BYTE   W12
 BYTE   N06  En4
 BYTE   N06  En5
 BYTE   W06
 BYTE   Gn4
 BYTE   N06  Gn5
 BYTE   W06
 BYTE   Bn3
 BYTE   N06  Bn4
 BYTE   W06
 BYTE   As3
 BYTE   N06  As4
 BYTE   W06
//  #02 //058   ----------------------------------------
 BYTE   N12  An3
 BYTE   N12  An4
 BYTE   W12
 BYTE   N06  An3
 BYTE   N06  An4
 BYTE   W06
 BYTE   N12  As3
 BYTE   N12  As4
 BYTE   W12
 BYTE   N06  As3
 BYTE   N06  As4
 BYTE   W06
 BYTE   N24  Fn4
 BYTE   N24  Fn5
 BYTE   W24
 BYTE   N06  An4
 BYTE   N06  An5
 BYTE   W06
 BYTE   Gn4
 BYTE   N06  Gn5
 BYTE   W06
 BYTE   N12  En4
 BYTE   N12  En5
 BYTE   W12
 BYTE   An3
 BYTE   N12  An4
 BYTE   W12
//  #02 //059   ----------------------------------------
 BYTE   N06  As3
 BYTE   N06  As4
 BYTE   W06
 BYTE   Cn4
 BYTE   N06  Cn5
 BYTE   W06
 BYTE   As3
 BYTE   N06  As4
 BYTE   W06
 BYTE   N12  An3
 BYTE   N12  An4
 BYTE   W12
 BYTE   N06  An3
 BYTE   N06  An4
 BYTE   W06
 BYTE   N24  Fn4
 BYTE   N24  Fn5
 BYTE   W24
 BYTE   N06  Gn4
 BYTE   N06  Gn5
 BYTE   W06
 BYTE   Gn4
 BYTE   N06  Gn5
 BYTE   W06
 BYTE   N12  En4
 BYTE   N12  En5
 BYTE   W12
 BYTE   Fn4
 BYTE   N12  Fn5
 BYTE   W12
//  #02 //060   ----------------------------------------
 BYTE   An3
 BYTE   N12  An4
 BYTE   W12
 BYTE   N06  An3
 BYTE   N06  An4
 BYTE   W06
 BYTE   N12  Gn3
 BYTE   N12  Gn4
 BYTE   W12
 BYTE   N06  Gn3
 BYTE   N06  Gn4
 BYTE   W06
 BYTE   N12  En4
 BYTE   N12  En5
 BYTE   W12
 BYTE   Dn4
 BYTE   N12  Dn5
 BYTE   W12
 BYTE   Dn4
 BYTE   N12  Dn5
 BYTE   W12
 BYTE   N06  Cn4
 BYTE   N06  Cn5
 BYTE   W06
 BYTE   En4
 BYTE   N06  En5
 BYTE   W06
 BYTE   Dn4
 BYTE   N06  Dn5
 BYTE   W06
 BYTE   An3
 BYTE   N06  An4
 BYTE   W06
//  #02 //061   ----------------------------------------
 BYTE   N18  Gn2
 BYTE   N18  Gn3
 BYTE   N18  Gn4
 BYTE   W18
 BYTE   An2
 BYTE   N18  An3
 BYTE   N18  An4
 BYTE   W18
 BYTE   N12  En2
 BYTE   N12  En3
 BYTE   N12  En4
 BYTE   W12
 BYTE   Fn2
 BYTE   N12  Fn3
 BYTE   N12  Fn4
 BYTE   W12
 BYTE   Cn3
 BYTE   N12  Cn4
 BYTE   N12  Cn5
 BYTE   W12
 BYTE   An2
 BYTE   N12  An3
 BYTE   N12  An4
 BYTE   W12
 BYTE   Gn2
 BYTE   N12  Gn3
 BYTE   N12  Gn4
 BYTE   W12
//  #02 //062   ----------------------------------------
 BYTE   TIE  An2
 BYTE   TIE  An3
 BYTE   TIE  An4
 BYTE   W96
//  #02 //063   ----------------------------------------
 BYTE   W72
 BYTE   EOT
 BYTE   An2  v069
 BYTE   An4
 BYTE   W24
//  #02 //064   ----------------------------------------
 BYTE   W96
//  #02 //065   ----------------------------------------
 BYTE   W96
//  #02 //066   ----------------------------------------
 BYTE   W96
//  #02 //067   ----------------------------------------
 BYTE   W96
//  #02 //068   ----------------------------------------
 BYTE   W96
//  #02 //069   ----------------------------------------
 BYTE   W96
//  #02 //070   ----------------------------------------
 BYTE   GoTo
  POIN2 Label_01006A28
 BYTE   FINE

//**************** Track 3 (Midi-Chn.2) ****************//

OmoriForestFrenzy_003:
//  #03 //000   ----------------------------------------
 BYTE   VOL   60*OmoriForestFrenzy_mvl/mxv
 BYTE   KEYSH   OmoriForestFrenzy_key+0
Label_01006E1C:
 BYTE   VOICE   4
 BYTE   MODT 0
 BYTE   LFOS 44
 BYTE   N12  Gn2  v060
 BYTE   N12  Bn2
 BYTE   N12  Dn3
 BYTE   N12  Fs3
 BYTE   W18
 BYTE   N06  Gn2
 BYTE   N06  Bn2
 BYTE   N06  Dn3
 BYTE   N06  Fs3
 BYTE   W18
 BYTE   N18  Gn2
 BYTE   N18  Bn2
 BYTE   N18  Dn3
 BYTE   N18  Fs3
 BYTE   W24
 BYTE   N06  Gn2
 BYTE   N06  Bn2
 BYTE   N06  Dn3
 BYTE   N06  Fs3
 BYTE   W18
 BYTE   N12  Gn2
 BYTE   N12  Bn2
 BYTE   N12  Dn3
 BYTE   N12  Fs3
 BYTE   W18
//  #03 //001   ----------------------------------------
Label_01006E50:
 BYTE   N12  Gn2  v060
 BYTE   N12  Bn2
 BYTE   N12  Dn3
 BYTE   N12  Fs3
 BYTE   W18
 BYTE   N06  Gn2
 BYTE   N06  Bn2
 BYTE   N06  Dn3
 BYTE   N06  Fs3
 BYTE   W18
 BYTE   Gn2
 BYTE   N06  Bn2
 BYTE   N06  Dn3
 BYTE   N06  Fs3
 BYTE   W12
 BYTE   N12  Gn2
 BYTE   N12  Bn2
 BYTE   N12  Dn3
 BYTE   N12  Fs3
 BYTE   W18
 BYTE   N06  Gn2
 BYTE   N06  Bn2
 BYTE   N06  Dn3
 BYTE   N06  Fs3
 BYTE   W18
 BYTE   Gn2
 BYTE   N06  Bn2
 BYTE   N06  Dn3
 BYTE   N06  Fs3
 BYTE   W12
 BYTE   PEND 
//  #03 //002   ----------------------------------------
Label_01006E86:
 BYTE   N12  Fn2  v060
 BYTE   N12  An2
 BYTE   N12  Bn2
 BYTE   N12  En3
 BYTE   W18
 BYTE   N06  Fn2
 BYTE   N06  An2
 BYTE   N06  Bn2
 BYTE   N06  En3
 BYTE   W18
 BYTE   N18  Fn2
 BYTE   N18  An2
 BYTE   N18  Bn2
 BYTE   N18  En3
 BYTE   W24
 BYTE   N06  Fn2
 BYTE   N06  An2
 BYTE   N06  Bn2
 BYTE   N06  En3
 BYTE   W12
 BYTE   Fn2
 BYTE   N06  An2
 BYTE   N06  Bn2
 BYTE   N06  An3
 BYTE   W12
 BYTE   Fn2
 BYTE   N06  An2
 BYTE   N06  Bn2
 BYTE   N06  Gn3
 BYTE   W12
 BYTE   PEND 
//  #03 //003   ----------------------------------------
 BYTE   N12  Fn2
 BYTE   N12  An2
 BYTE   N12  Bn2
 BYTE   N12  En3
 BYTE   W18
 BYTE   N06  Fn2
 BYTE   N06  An2
 BYTE   N06  Bn2
 BYTE   W18
 BYTE   N12  Fn2
 BYTE   N12  An2
 BYTE   N12  Bn2
 BYTE   N12  En3
 BYTE   W24
 BYTE   N18  Fn2
 BYTE   N18  An2
 BYTE   N18  Bn2
 BYTE   N18  En3
 BYTE   W18
 BYTE   Fn2
 BYTE   N18  An2
 BYTE   N18  Bn2
 BYTE   N18  En3
 BYTE   W18
//  #03 //004   ----------------------------------------
Label_01006EE6:
 BYTE   N12  Gn2  v060
 BYTE   N12  Bn2
 BYTE   N12  Dn3
 BYTE   N12  Fs3
 BYTE   W18
 BYTE   N06  Gn2
 BYTE   N06  Bn2
 BYTE   N06  Dn3
 BYTE   N06  Fs3
 BYTE   W18
 BYTE   N18  Gn2
 BYTE   N18  Bn2
 BYTE   N18  Dn3
 BYTE   N18  Fs3
 BYTE   W24
 BYTE   N06  Gn2
 BYTE   N06  Bn2
 BYTE   N06  Dn3
 BYTE   N06  Fs3
 BYTE   W18
 BYTE   N12  Gn2
 BYTE   N12  Bn2
 BYTE   N12  Dn3
 BYTE   N12  Fs3
 BYTE   W18
 BYTE   PEND 
//  #03 //005   ----------------------------------------
 BYTE   PATT
  POIN2 Label_01006E50
//  #03 //006   ----------------------------------------
 BYTE   PATT
  POIN2 Label_01006E86
//  #03 //007   ----------------------------------------
 BYTE   N12  Fn2  v060
 BYTE   N12  An2
 BYTE   N12  Bn2
 BYTE   N12  En3
 BYTE   W18
 BYTE   N06  Fn2
 BYTE   N06  An2
 BYTE   N06  Bn2
 BYTE   W18
 BYTE   N12  Fn2
 BYTE   N12  An2
 BYTE   N12  Bn2
 BYTE   N12  En3
 BYTE   W60
//  #03 //008   ----------------------------------------
Label_01006F39:
 BYTE   N12  Gn2  v060
 BYTE   N12  Bn2
 BYTE   N12  Dn3
 BYTE   N12  Gn3
 BYTE   W18
 BYTE   N06  Gn2
 BYTE   N06  Bn2
 BYTE   N06  Dn3
 BYTE   N06  Gn3
 BYTE   W18
 BYTE   N18  Gn2
 BYTE   N18  Bn2
 BYTE   N18  Dn3
 BYTE   N18  Gn3
 BYTE   N18  Bn3
 BYTE   W24
 BYTE   N12  Gn2
 BYTE   N12  Bn2
 BYTE   N12  Dn3
 BYTE   N12  Gn3
 BYTE   N12  Bn3
 BYTE   W24
 BYTE   N06  Gn2
 BYTE   N06  Bn2
 BYTE   N06  Dn3
 BYTE   N06  Gn3
 BYTE   N06  Bn3
 BYTE   W12
 BYTE   PEND 
//  #03 //009   ----------------------------------------
 BYTE   PATT
  POIN2 Label_01006F39
//  #03 //010   ----------------------------------------
Label_01006F73:
 BYTE   N12  Dn2  v060
 BYTE   N12  Fn2
 BYTE   N12  An2
 BYTE   W18
 BYTE   N06  Dn2
 BYTE   N06  Fn2
 BYTE   N06  An2
 BYTE   W18
 BYTE   N18  Dn2
 BYTE   N18  Fn2
 BYTE   N18  An2
 BYTE   W24
 BYTE   N12  Dn2
 BYTE   N12  Fn2
 BYTE   N12  An2
 BYTE   N12  Bn2
 BYTE   W24
 BYTE   N06  Dn2
 BYTE   N06  Fn2
 BYTE   N06  An2
 BYTE   N06  Bn2
 BYTE   W12
 BYTE   PEND 
//  #03 //011   ----------------------------------------
 BYTE   PATT
  POIN2 Label_01006F73
//  #03 //012   ----------------------------------------
 BYTE   PATT
  POIN2 Label_01006F39
//  #03 //013   ----------------------------------------
 BYTE   PATT
  POIN2 Label_01006F39
//  #03 //014   ----------------------------------------
 BYTE   PATT
  POIN2 Label_01006F73
//  #03 //015   ----------------------------------------
 BYTE   PATT
  POIN2 Label_01006F73
//  #03 //016   ----------------------------------------
Label_01006FB5:
 BYTE   N12  Dn2  v060
 BYTE   N12  Fn2
 BYTE   N12  An2
 BYTE   N12  Dn3
 BYTE   W18
 BYTE   Dn2
 BYTE   N12  Fn2
 BYTE   N12  An2
 BYTE   N12  Dn3
 BYTE   W18
 BYTE   N06  Dn2
 BYTE   N06  Fn2
 BYTE   N06  An2
 BYTE   N06  Dn3
 BYTE   W12
 BYTE   N12  Dn2
 BYTE   N12  Fn2
 BYTE   N12  An2
 BYTE   N12  Dn3
 BYTE   W18
 BYTE   Dn2
 BYTE   N12  Fn2
 BYTE   N12  An2
 BYTE   N12  Dn3
 BYTE   W18
 BYTE   N06  Dn2
 BYTE   N06  Fn2
 BYTE   N06  An2
 BYTE   N06  Dn3
 BYTE   W12
 BYTE   PEND 
//  #03 //017   ----------------------------------------
Label_01006FEB:
 BYTE   N12  Dn2  v060
 BYTE   N12  Fn2
 BYTE   N12  An2
 BYTE   N12  Dn3
 BYTE   W18
 BYTE   N06  Dn2
 BYTE   N06  Fn2
 BYTE   N06  An2
 BYTE   N06  Dn3
 BYTE   W18
 BYTE   N12  Dn2
 BYTE   N12  Fn2
 BYTE   N12  An2
 BYTE   N12  Dn3
 BYTE   W24
 BYTE   Dn2
 BYTE   N12  Fn2
 BYTE   N12  An2
 BYTE   N12  Dn3
 BYTE   W24
 BYTE   N06  Dn2
 BYTE   N06  Fn2
 BYTE   N06  An2
 BYTE   N06  Dn3
 BYTE   W12
 BYTE   PEND 
//  #03 //018   ----------------------------------------
Label_01007019:
 BYTE   N12  Dn2  v060
 BYTE   N12  Gn2
 BYTE   N12  Bn2
 BYTE   N12  Dn3
 BYTE   W18
 BYTE   N06  Dn2
 BYTE   N06  Gn2
 BYTE   N06  Bn2
 BYTE   N06  Dn3
 BYTE   W18
 BYTE   N12  Dn2
 BYTE   N12  Gn2
 BYTE   N12  Bn2
 BYTE   N12  Dn3
 BYTE   W24
 BYTE   Dn2
 BYTE   N12  Gn2
 BYTE   N12  Bn2
 BYTE   N12  Dn3
 BYTE   W24
 BYTE   N06  Dn2
 BYTE   N06  Gn2
 BYTE   N06  Bn2
 BYTE   N06  Dn3
 BYTE   W12
 BYTE   PEND 
//  #03 //019   ----------------------------------------
Label_01007047:
 BYTE   N12  Dn2  v060
 BYTE   N12  Gn2
 BYTE   N12  Bn2
 BYTE   N12  Dn3
 BYTE   W18
 BYTE   Dn2
 BYTE   N12  Gn2
 BYTE   N12  Bn2
 BYTE   N12  Dn3
 BYTE   W18
 BYTE   N06  Dn2
 BYTE   N06  Gn2
 BYTE   N06  Bn2
 BYTE   N06  Dn3
 BYTE   W12
 BYTE   N12  Dn2
 BYTE   N12  Gn2
 BYTE   N12  Bn2
 BYTE   N12  Dn3
 BYTE   W18
 BYTE   Dn2
 BYTE   N12  Fn2
 BYTE   N12  An2
 BYTE   N12  Dn3
 BYTE   W18
 BYTE   N06  Fn2
 BYTE   N06  An2
 BYTE   N06  Cn3
 BYTE   N06  En3
 BYTE   W12
 BYTE   PEND 
//  #03 //020   ----------------------------------------
 BYTE   PATT
  POIN2 Label_01006FB5
//  #03 //021   ----------------------------------------
 BYTE   PATT
  POIN2 Label_01006FB5
//  #03 //022   ----------------------------------------
Label_01007087:
 BYTE   N12  Cn2  v060
 BYTE   N12  En2
 BYTE   N12  An2
 BYTE   N12  Cn3
 BYTE   W18
 BYTE   Cn2
 BYTE   N12  En2
 BYTE   N12  An2
 BYTE   N12  Cn3
 BYTE   W18
 BYTE   N06  Cn2
 BYTE   N06  En2
 BYTE   N06  An2
 BYTE   N06  Cn3
 BYTE   W12
 BYTE   N12  Cn2
 BYTE   N12  En2
 BYTE   N12  An2
 BYTE   N12  Cn3
 BYTE   W18
 BYTE   Cn2
 BYTE   N12  En2
 BYTE   N12  An2
 BYTE   N12  Cn3
 BYTE   W18
 BYTE   N06  Cn2
 BYTE   N06  En2
 BYTE   N06  An2
 BYTE   N06  Cn3
 BYTE   W12
 BYTE   PEND 
//  #03 //023   ----------------------------------------
 BYTE   PATT
  POIN2 Label_01007087
//  #03 //024   ----------------------------------------
 BYTE   PATT
  POIN2 Label_01006FB5
//  #03 //025   ----------------------------------------
 BYTE   PATT
  POIN2 Label_01006FB5
//  #03 //026   ----------------------------------------
 BYTE   PATT
  POIN2 Label_01007087
//  #03 //027   ----------------------------------------
 BYTE   PATT
  POIN2 Label_01007087
//  #03 //028   ----------------------------------------
 BYTE   PATT
  POIN2 Label_01006FB5
//  #03 //029   ----------------------------------------
 BYTE   PATT
  POIN2 Label_01006FB5
//  #03 //030   ----------------------------------------
 BYTE   PATT
  POIN2 Label_01007087
//  #03 //031   ----------------------------------------
 BYTE   N12  Cn2  v060
 BYTE   N12  En2
 BYTE   N12  Gn2
 BYTE   W18
 BYTE   Cn2
 BYTE   N12  En2
 BYTE   N12  Gn2
 BYTE   W18
 BYTE   N06  Cn2
 BYTE   N06  En2
 BYTE   N06  Gn2
 BYTE   W12
 BYTE   N12  Cn2
 BYTE   N12  En2
 BYTE   N12  An2
 BYTE   N12  Cn3
 BYTE   W18
 BYTE   Cn2
 BYTE   N12  En2
 BYTE   N12  An2
 BYTE   N12  Cn3
 BYTE   W18
 BYTE   N06  Cn2
 BYTE   N06  En2
 BYTE   N06  An2
 BYTE   N06  Cn3
 BYTE   W60
//  #03 //032   ----------------------------------------
 BYTE   W96
//  #03 //033   ----------------------------------------
 BYTE   W96
//  #03 //034   ----------------------------------------
 BYTE   W96
//  #03 //035   ----------------------------------------
 BYTE   W96
//  #03 //036   ----------------------------------------
 BYTE   PATT
  POIN2 Label_01006F39
//  #03 //037   ----------------------------------------
 BYTE   PATT
  POIN2 Label_01006F39
//  #03 //038   ----------------------------------------
 BYTE   PATT
  POIN2 Label_01006F73
//  #03 //039   ----------------------------------------
 BYTE   PATT
  POIN2 Label_01006F73
//  #03 //040   ----------------------------------------
 BYTE   PATT
  POIN2 Label_01006F39
//  #03 //041   ----------------------------------------
 BYTE   PATT
  POIN2 Label_01006F39
//  #03 //042   ----------------------------------------
 BYTE   PATT
  POIN2 Label_01006F73
//  #03 //043   ----------------------------------------
 BYTE   PATT
  POIN2 Label_01006F73
//  #03 //044   ----------------------------------------
 BYTE   PATT
  POIN2 Label_01006FB5
//  #03 //045   ----------------------------------------
 BYTE   PATT
  POIN2 Label_01006FEB
//  #03 //046   ----------------------------------------
 BYTE   PATT
  POIN2 Label_01007019
//  #03 //047   ----------------------------------------
 BYTE   PATT
  POIN2 Label_01007047
//  #03 //048   ----------------------------------------
 BYTE   PATT
  POIN2 Label_01006FB5
//  #03 //049   ----------------------------------------
 BYTE   PATT
  POIN2 Label_01006FB5
//  #03 //050   ----------------------------------------
 BYTE   PATT
  POIN2 Label_01007087
//  #03 //051   ----------------------------------------
 BYTE   PATT
  POIN2 Label_01007087
//  #03 //052   ----------------------------------------
 BYTE   PATT
  POIN2 Label_01006FB5
//  #03 //053   ----------------------------------------
 BYTE   PATT
  POIN2 Label_01006FB5
//  #03 //054   ----------------------------------------
 BYTE   PATT
  POIN2 Label_01007087
//  #03 //055   ----------------------------------------
 BYTE   PATT
  POIN2 Label_01007087
//  #03 //056   ----------------------------------------
 BYTE   PATT
  POIN2 Label_01006FB5
//  #03 //057   ----------------------------------------
 BYTE   PATT
  POIN2 Label_01006FB5
//  #03 //058   ----------------------------------------
 BYTE   PATT
  POIN2 Label_01007087
//  #03 //059   ----------------------------------------
 BYTE   W96
//  #03 //060   ----------------------------------------
 BYTE   PATT
  POIN2 Label_01006EE6
//  #03 //061   ----------------------------------------
 BYTE   PATT
  POIN2 Label_01006E50
//  #03 //062   ----------------------------------------
Label_01007196:
 BYTE   N12  Fn2  v060
 BYTE   N12  An2
 BYTE   N12  Bn2
 BYTE   N12  En3
 BYTE   W18
 BYTE   N06  Fn2
 BYTE   N06  An2
 BYTE   N06  Bn2
 BYTE   N06  En3
 BYTE   W18
 BYTE   N18  Fn2
 BYTE   N18  An2
 BYTE   N18  Bn2
 BYTE   N18  En3
 BYTE   W24
 BYTE   N06  Fn2
 BYTE   N06  An2
 BYTE   N06  Bn2
 BYTE   N06  En3
 BYTE   W24
 BYTE   Fn2
 BYTE   N06  An2
 BYTE   N06  Bn2
 BYTE   N06  En3
 BYTE   W12
 BYTE   PEND 
//  #03 //063   ----------------------------------------
 BYTE   PATT
  POIN2 Label_01007196
//  #03 //064   ----------------------------------------
 BYTE   PATT
  POIN2 Label_01006EE6
//  #03 //065   ----------------------------------------
 BYTE   PATT
  POIN2 Label_01006E50
//  #03 //066   ----------------------------------------
 BYTE   PATT
  POIN2 Label_01007196
//  #03 //067   ----------------------------------------
 BYTE   N12  Fn2  v060
 BYTE   N12  An2
 BYTE   N12  Bn2
 BYTE   N12  En3
 BYTE   W18
 BYTE   N06  Fn2
 BYTE   N06  An2
 BYTE   N06  Bn2
 BYTE   N06  En3
 BYTE   W18
 BYTE   N12  Fn2
 BYTE   N12  An2
 BYTE   N12  Bn2
 BYTE   N12  En3
 BYTE   W60
//  #03 //068   ----------------------------------------
 BYTE   GoTo
  POIN2 Label_01006E1C
 BYTE   FINE

//**************** Track 4 (Midi-Chn.3) ****************//

OmoriForestFrenzy_004:
//  #04 //000   ----------------------------------------
 BYTE   VOL   60*OmoriForestFrenzy_mvl/mxv
 BYTE   KEYSH   OmoriForestFrenzy_key+0
Label_547724:
 BYTE   VOICE   73
 BYTE   MODT 0
 BYTE   LFOS 44
 BYTE   W96
//  #04 //001   ----------------------------------------
 BYTE   W96
//  #04 //002   ----------------------------------------
 BYTE   W96
//  #04 //003   ----------------------------------------
 BYTE   W96
//  #04 //004   ----------------------------------------
 BYTE   W96
//  #04 //005   ----------------------------------------
 BYTE   W96
//  #04 //006   ----------------------------------------
 BYTE   W96
//  #04 //007   ----------------------------------------
 BYTE   W96
//  #04 //008   ----------------------------------------
 BYTE   TIE  Fs5  v060
 BYTE   W96
//  #04 //009   ----------------------------------------
 BYTE   W96
//  #04 //010   ----------------------------------------
 BYTE   EOT
 BYTE   TIE  En5
 BYTE   W96
//  #04 //011   ----------------------------------------
 BYTE   W96
//  #04 //012   ----------------------------------------
 BYTE   EOT
 BYTE   TIE  Fs5
 BYTE   W96
//  #04 //013   ----------------------------------------
 BYTE   W96
//  #04 //014   ----------------------------------------
 BYTE   EOT
 BYTE   TIE  En5
 BYTE   W96
//  #04 //015   ----------------------------------------
 BYTE   W96
//  #04 //016   ----------------------------------------
 BYTE   EOT
 BYTE   TIE  Dn5
 BYTE   W96
//  #04 //017   ----------------------------------------
 BYTE   W96
//  #04 //018   ----------------------------------------
 BYTE   EOT
 BYTE   TIE  Fs5
 BYTE   W96
//  #04 //019   ----------------------------------------
 BYTE   W96
//  #04 //020   ----------------------------------------
 BYTE   EOT
 BYTE   N96  An4
 BYTE   W96
//  #04 //021   ----------------------------------------
 BYTE   As4
 BYTE   W96
//  #04 //022   ----------------------------------------
 BYTE   An4
 BYTE   W96
//  #04 //023   ----------------------------------------
 BYTE   En4
 BYTE   W96
//  #04 //024   ----------------------------------------
 BYTE   An4
 BYTE   W96
//  #04 //025   ----------------------------------------
 BYTE   As4
 BYTE   W96
//  #04 //026   ----------------------------------------
 BYTE   An4
 BYTE   W96
//  #04 //027   ----------------------------------------
 BYTE   En4
 BYTE   W96
//  #04 //028   ----------------------------------------
 BYTE   An4
 BYTE   W96
//  #04 //029   ----------------------------------------
 BYTE   As4
 BYTE   W96
//  #04 //030   ----------------------------------------
 BYTE   An4
 BYTE   W96
//  #04 //031   ----------------------------------------
 BYTE   Gn4
 BYTE   W96
//  #04 //032   ----------------------------------------
 BYTE   W48
 BYTE   W96
//  #04 //033   ----------------------------------------
 BYTE   W96
//  #04 //034   ----------------------------------------
 BYTE   Gn5
 BYTE   W96
//  #04 //035   ----------------------------------------
 BYTE   W96
//  #04 //036   ----------------------------------------
 BYTE   TIE  Fs5
 BYTE   W96
//  #04 //037   ----------------------------------------
 BYTE   W96
//  #04 //038   ----------------------------------------
 BYTE   EOT
 BYTE   TIE  En5
 BYTE   W96
//  #04 //039   ----------------------------------------
 BYTE   W96
//  #04 //040   ----------------------------------------
 BYTE   EOT
 BYTE   TIE  Fs5
 BYTE   W96
//  #04 //041   ----------------------------------------
 BYTE   W96
//  #04 //042   ----------------------------------------
 BYTE   EOT
 BYTE   TIE  En5
 BYTE   W96
//  #04 //043   ----------------------------------------
 BYTE   W96
//  #04 //044   ----------------------------------------
 BYTE   EOT
 BYTE   TIE  Dn5
 BYTE   W96
//  #04 //045   ----------------------------------------
 BYTE   W96
//  #04 //046   ----------------------------------------
 BYTE   EOT
 BYTE   TIE  Fs5
 BYTE   W96
//  #04 //047   ----------------------------------------
 BYTE   W96
//  #04 //048   ----------------------------------------
 BYTE   EOT
 BYTE   N96  An4
 BYTE   W96
//  #04 //049   ----------------------------------------
 BYTE   As4
 BYTE   W96
//  #04 //050   ----------------------------------------
 BYTE   An4
 BYTE   W96
//  #04 //051   ----------------------------------------
 BYTE   En4
 BYTE   W96
//  #04 //052   ----------------------------------------
 BYTE   An4
 BYTE   W96
//  #04 //053   ----------------------------------------
 BYTE   As4
 BYTE   W96
//  #04 //054   ----------------------------------------
 BYTE   An4
 BYTE   W96
//  #04 //055   ----------------------------------------
 BYTE   En4
 BYTE   W96
//  #04 //056   ----------------------------------------
 BYTE   An4
 BYTE   W96
//  #04 //057   ----------------------------------------
 BYTE   As4
 BYTE   W96
//  #04 //058   ----------------------------------------
 BYTE   An4
 BYTE   W96
//  #04 //059   ----------------------------------------
 BYTE   Gn4
 BYTE   W96
//  #04 //060   ----------------------------------------
 BYTE   TIE  Fs5
 BYTE   W96
//  #04 //061   ----------------------------------------
 BYTE   W96
//  #04 //062   ----------------------------------------
 BYTE   EOT
 BYTE   TIE  En5
 BYTE   W96
//  #04 //063   ----------------------------------------
 BYTE   W96
//  #04 //064   ----------------------------------------
 BYTE   EOT
 BYTE   TIE  Fs5
 BYTE   W96
//  #04 //065   ----------------------------------------
 BYTE   W96
//  #04 //066   ----------------------------------------
 BYTE   EOT
 BYTE   TIE  En5
 BYTE   W96
//  #04 //067   ----------------------------------------
 BYTE   W96
//  #04 //068   ----------------------------------------
 BYTE   EOT
 BYTE   GoTo
  POIN2 Label_547724
 BYTE   FINE

//**************** Track 5 (Midi-Chn.4) ****************//

OmoriForestFrenzy_005:
//  #05 //000   ----------------------------------------
 BYTE   VOL   60*OmoriForestFrenzy_mvl/mxv
 BYTE   KEYSH   OmoriForestFrenzy_key+0
Label_01007200:
 BYTE   VOICE   71
 BYTE   MODT 0
 BYTE   LFOS 44
 BYTE   W96
//  #05 //001   ----------------------------------------
 BYTE   W96
//  #05 //002   ----------------------------------------
 BYTE   W96
//  #05 //003   ----------------------------------------
 BYTE   W96
//  #05 //004   ----------------------------------------
 BYTE   W96
//  #05 //005   ----------------------------------------
 BYTE   W96
//  #05 //006   ----------------------------------------
 BYTE   W96
//  #05 //007   ----------------------------------------
 BYTE   W96
//  #05 //008   ----------------------------------------
Label_0100720E:
 BYTE   N18  Fs4  v060
 BYTE   W18
 BYTE   Bn3
 BYTE   W18
 BYTE   Fs4
 BYTE   W18
 BYTE   N06  En4
 BYTE   W06
 BYTE   N12  Gn4
 BYTE   W12
 BYTE   An4
 BYTE   W12
 BYTE   Bn3
 BYTE   W12
 BYTE   PEND 
//  #05 //009   ----------------------------------------
Label_01007221:
 BYTE   N18  Fs4  v060
 BYTE   W18
 BYTE   N12  Bn3
 BYTE   W12
 BYTE   N06  En4
 BYTE   W06
 BYTE   N12  Fs4
 BYTE   W12
 BYTE   An4
 BYTE   W12
 BYTE   Gn4
 BYTE   W12
 BYTE   En4
 BYTE   W12
 BYTE   Bn3
 BYTE   W12
 BYTE   PEND 
//  #05 //010   ----------------------------------------
 BYTE   N18  Fn3
 BYTE   W18
 BYTE   N12  An3
 BYTE   W18
 BYTE   Bn3
 BYTE   W12
 BYTE   An3
 BYTE   W12
 BYTE   Dn4
 BYTE   W12
 BYTE   Bn4
 BYTE   W12
 BYTE   An4
 BYTE   W12
//  #05 //011   ----------------------------------------
 BYTE   N18  Fn3
 BYTE   W18
 BYTE   Bn3
 BYTE   W18
 BYTE   Fn3
 BYTE   W18
 BYTE   N06  An4
 BYTE   W06
 BYTE   N12  Gn4
 BYTE   W12
 BYTE   Fn4
 BYTE   W12
 BYTE   Gn4
 BYTE   W12
//  #05 //012   ----------------------------------------
 BYTE   PATT
  POIN2 Label_0100720E
//  #05 //013   ----------------------------------------
 BYTE   PATT
  POIN2 Label_01007221
//  #05 //014   ----------------------------------------
 BYTE   N18  Fn3  v060
 BYTE   W18
 BYTE   An3
 BYTE   W18
 BYTE   N12  Cn4
 BYTE   W12
 BYTE   An3
 BYTE   W12
 BYTE   Cn4
 BYTE   W12
 BYTE   An3
 BYTE   W12
 BYTE   An4
 BYTE   W12
//  #05 //015   ----------------------------------------
 BYTE   N18  En4
 BYTE   W18
 BYTE   N06  Bn3
 BYTE   W18
 BYTE   N18  En4
 BYTE   W24
 BYTE   N12  Gn4
 BYTE   W12
 BYTE   Fs4
 BYTE   W12
 BYTE   Gn4
 BYTE   W12
//  #05 //016   ----------------------------------------
 BYTE   Bn3
 BYTE   W18
 BYTE   Fn3
 BYTE   W18
 BYTE   An3
 BYTE   W12
 BYTE   Fn3
 BYTE   W12
 BYTE   An3
 BYTE   W12
 BYTE   Gn3
 BYTE   W12
 BYTE   Bn3
 BYTE   W12
//  #05 //017   ----------------------------------------
 BYTE   N18  Dn3
 BYTE   W18
 BYTE   N12  Fn3
 BYTE   W12
 BYTE   N06  An3
 BYTE   W06
 BYTE   N24  Dn3
 BYTE   W24
 BYTE   N12  Fn3
 BYTE   W12
 BYTE   En4
 BYTE   W12
 BYTE   Fn4
 BYTE   W12
//  #05 //018   ----------------------------------------
 BYTE   N18  Gn3
 BYTE   W18
 BYTE   Bn3
 BYTE   W18
 BYTE   N24  Gn3
 BYTE   W24
 BYTE   Bn3
 BYTE   W24
 BYTE   N12  Fs4
 BYTE   W12
//  #05 //019   ----------------------------------------
 BYTE   Gn3
 BYTE   W18
 BYTE   Bn3
 BYTE   W18
 BYTE   Gn3
 BYTE   W12
 BYTE   N06  Fn4
 BYTE   W18
 BYTE   En4
 BYTE   W18
 BYTE   N06
 BYTE   W12
//  #05 //020   ----------------------------------------
 BYTE   N18  Dn3
 BYTE   W18
 BYTE   N06  Fn3
 BYTE   W18
 BYTE   N12
 BYTE   W12
 BYTE   N18  Cn4
 BYTE   W18
 BYTE   Fn3
 BYTE   W18
 BYTE   N06  Dn3
 BYTE   W12
//  #05 //021   ----------------------------------------
 BYTE   N12  Cn4
 BYTE   W18
 BYTE   An3
 BYTE   W18
 BYTE   Cn4
 BYTE   W12
 BYTE   N12
 BYTE   W18
 BYTE   Gn3
 BYTE   W18
 BYTE   An3
 BYTE   W12
//  #05 //022   ----------------------------------------
 BYTE   N12
 BYTE   W18
 BYTE   En3
 BYTE   W18
 BYTE   Cn3
 BYTE   W12
 BYTE   An3
 BYTE   W18
 BYTE   N06  En3
 BYTE   W18
 BYTE   Dn3
 BYTE   W12
//  #05 //023   ----------------------------------------
 BYTE   N12  An3
 BYTE   W18
 BYTE   N06  En3
 BYTE   W18
 BYTE   Dn3
 BYTE   W12
 BYTE   N12  En3
 BYTE   W18
 BYTE   Gn3
 BYTE   W18
 BYTE   An3
 BYTE   W12
//  #05 //024   ----------------------------------------
 BYTE   N12
 BYTE   W18
 BYTE   N06  Dn3
 BYTE   W18
 BYTE   N12  Fn3
 BYTE   W12
 BYTE   N18  Cn4
 BYTE   W18
 BYTE   Fn3
 BYTE   W18
 BYTE   N06  Dn3
 BYTE   W12
//  #05 //025   ----------------------------------------
 BYTE   N12  As3
 BYTE   W18
 BYTE   An3
 BYTE   W18
 BYTE   Dn3
 BYTE   W12
 BYTE   Cn4
 BYTE   W18
 BYTE   Gn3
 BYTE   W18
 BYTE   An3
 BYTE   W12
//  #05 //026   ----------------------------------------
 BYTE   N12
 BYTE   W18
 BYTE   En3
 BYTE   W18
 BYTE   N06  Cn3
 BYTE   W12
 BYTE   N12  An3
 BYTE   W18
 BYTE   En3
 BYTE   W18
 BYTE   N06  Dn3
 BYTE   W12
//  #05 //027   ----------------------------------------
 BYTE   N12  An3
 BYTE   W18
 BYTE   En3
 BYTE   W18
 BYTE   N06  Dn3
 BYTE   W12
 BYTE   N12  En3
 BYTE   W18
 BYTE   N06  Gn3
 BYTE   W18
 BYTE   N12  An3
 BYTE   W12
//  #05 //028   ----------------------------------------
 BYTE   N12
 BYTE   W18
 BYTE   N06  Fn3
 BYTE   W18
 BYTE   Dn3
 BYTE   W12
 BYTE   N12  Cn4
 BYTE   W18
 BYTE   Fn3
 BYTE   W18
 BYTE   N06
 BYTE   W12
//  #05 //029   ----------------------------------------
 BYTE   N12  As3
 BYTE   W18
 BYTE   An3
 BYTE   W18
 BYTE   N06  Dn4
 BYTE   W12
 BYTE   N12  Cn4
 BYTE   W18
 BYTE   Gn3
 BYTE   W18
 BYTE   N06  An3
 BYTE   W12
//  #05 //030   ----------------------------------------
 BYTE   N12
 BYTE   W18
 BYTE   Gn3
 BYTE   W18
 BYTE   N06  An3
 BYTE   W12
 BYTE   N12  Gn3
 BYTE   W18
 BYTE   N06  Dn4
 BYTE   W06
 BYTE   Cn4
 BYTE   W12
 BYTE   En4
 BYTE   W12
//  #05 //031   ----------------------------------------
 BYTE   Cn4
 BYTE   W18
 BYTE   An3
 BYTE   W18
 BYTE   N06
 BYTE   W12
 BYTE   Cn4
 BYTE   W18
 BYTE   En4
 BYTE   W18
 BYTE   N06
 BYTE   W60
//  #05 //032   ----------------------------------------
Label_0100736F:
 BYTE   N18  Gn3  v060
 BYTE   W18
 BYTE   Bn3
 BYTE   W18
 BYTE   N12  Gn3
 BYTE   W60
 BYTE   PEND 
//  #05 //033   ----------------------------------------
 BYTE   PATT
  POIN2 Label_0100736F
//  #05 //034   ----------------------------------------
 BYTE   N18  Fn3  v060
 BYTE   W18
 BYTE   N12  An3
 BYTE   W18
 BYTE   Cn4
 BYTE   W12
 BYTE   An3
 BYTE   W12
 BYTE   Cn4
 BYTE   W12
 BYTE   N24  An3
 BYTE   W24
//  #05 //035   ----------------------------------------
 BYTE   N18  Fn3
 BYTE   W18
 BYTE   Bn3
 BYTE   W18
 BYTE   N12  Fn3
 BYTE   W60
//  #05 //036   ----------------------------------------
 BYTE   W96
//  #05 //037   ----------------------------------------
 BYTE   W96
//  #05 //038   ----------------------------------------
 BYTE   W96
//  #05 //039   ----------------------------------------
 BYTE   W96
//  #05 //040   ----------------------------------------
 BYTE   W96
//  #05 //041   ----------------------------------------
 BYTE   W96
//  #05 //042   ----------------------------------------
 BYTE   W96
//  #05 //043   ----------------------------------------
 BYTE   W96
//  #05 //044   ----------------------------------------
 BYTE   W96
//  #05 //045   ----------------------------------------
 BYTE   W96
//  #05 //046   ----------------------------------------
 BYTE   W96
//  #05 //047   ----------------------------------------
 BYTE   W96
//  #05 //048   ----------------------------------------
 BYTE   W96
//  #05 //049   ----------------------------------------
 BYTE   W96
//  #05 //050   ----------------------------------------
 BYTE   W96
//  #05 //051   ----------------------------------------
 BYTE   W96
//  #05 //052   ----------------------------------------
 BYTE   W96
//  #05 //053   ----------------------------------------
 BYTE   W96
//  #05 //054   ----------------------------------------
 BYTE   W96
//  #05 //055   ----------------------------------------
 BYTE   W96
//  #05 //056   ----------------------------------------
 BYTE   W96
//  #05 //057   ----------------------------------------
 BYTE   W96
//  #05 //058   ----------------------------------------
 BYTE   W96
//  #05 //059   ----------------------------------------
 BYTE   W96
//  #05 //060   ----------------------------------------
Label_010073AE:
 BYTE   N18  Fs4  v060
 BYTE   W18
 BYTE   Bn3
 BYTE   W18
 BYTE   Fs4
 BYTE   W18
 BYTE   N06  En4
 BYTE   W06
 BYTE   N12  Gn4
 BYTE   W12
 BYTE   N24  An4
 BYTE   W24
 BYTE   PEND 
//  #05 //061   ----------------------------------------
Label_010073C0:
 BYTE   N18  Fs4  v060
 BYTE   W18
 BYTE   N12  Bn3
 BYTE   W12
 BYTE   N06  En4
 BYTE   W06
 BYTE   N12  Fs4
 BYTE   W12
 BYTE   An4
 BYTE   W12
 BYTE   Gn4
 BYTE   W12
 BYTE   N24  En4
 BYTE   W24
 BYTE   PEND 
//  #05 //062   ----------------------------------------
Label_010073D5:
 BYTE   N18  En4  v060
 BYTE   W18
 BYTE   An3
 BYTE   W18
 BYTE   N12  Cn4
 BYTE   W12
 BYTE   An3
 BYTE   W12
 BYTE   Cn4
 BYTE   W12
 BYTE   Bn4
 BYTE   W12
 BYTE   An4
 BYTE   W12
 BYTE   PEND 
//  #05 //063   ----------------------------------------
 BYTE   N18  En4
 BYTE   W18
 BYTE   Bn3
 BYTE   W18
 BYTE   En4
 BYTE   W18
 BYTE   N06  An4
 BYTE   W06
 BYTE   N12  Gn4
 BYTE   W12
 BYTE   Fs4
 BYTE   W12
 BYTE   Gn4
 BYTE   W12
//  #05 //064   ----------------------------------------
 BYTE   PATT
  POIN2 Label_010073AE
//  #05 //065   ----------------------------------------
 BYTE   PATT
  POIN2 Label_010073C0
//  #05 //066   ----------------------------------------
 BYTE   PATT
  POIN2 Label_010073D5
//  #05 //067   ----------------------------------------
 BYTE   N12  Bn3  v060
 BYTE   W96
//  #05 //068   ----------------------------------------
 BYTE   GoTo
  POIN2 Label_01007200
 BYTE   FINE

//**************** Track 6 (Midi-Chn.5) ****************//

OmoriForestFrenzy_006:
//  #06 //000   ----------------------------------------
 BYTE   VOL   60*OmoriForestFrenzy_mvl/mxv
 BYTE   KEYSH   OmoriForestFrenzy_key+0
Label_01007418:
 BYTE   VOICE   36
 BYTE   MODT 0
 BYTE   LFOS 44
 BYTE   N18  Gn0  v060
 BYTE   W18
 BYTE   Dn1
 BYTE   W18
 BYTE   TIE  An1
 BYTE   W60
//  #06 //001   ----------------------------------------
 BYTE   W72
 BYTE   EOT
 BYTE   N24  Fn1
 BYTE   W24
//  #06 //002   ----------------------------------------
 BYTE   N18  Fn0
 BYTE   W18
 BYTE   Dn1
 BYTE   W18
 BYTE   TIE  Gn1
 BYTE   W60
//  #06 //003   ----------------------------------------
 BYTE   W72
 BYTE   EOT
 BYTE   N24  An1
 BYTE   W24
//  #06 //004   ----------------------------------------
 BYTE   N18  Gn0
 BYTE   W18
 BYTE   Dn1
 BYTE   W18
 BYTE   TIE  An1
 BYTE   W60
//  #06 //005   ----------------------------------------
 BYTE   W72
 BYTE   EOT
 BYTE   N24  Fn1
 BYTE   W24
//  #06 //006   ----------------------------------------
 BYTE   N18  Fn0
 BYTE   W18
 BYTE   Dn1
 BYTE   W18
 BYTE   N48  Gn1
 BYTE   W48
 BYTE   N06  Fs1
 BYTE   W06
 BYTE   Fn1
 BYTE   W06
//  #06 //007   ----------------------------------------
Label_01007453:
 BYTE   N04  En1  v060
 BYTE   W04
 BYTE   Ds1
 BYTE   W05
 BYTE   Dn1
 BYTE   W05
 BYTE   Cs1
 BYTE   W05
 BYTE   Cn1
 BYTE   W05
 BYTE   Bn0
 BYTE   W04
 BYTE   As0
 BYTE   W05
 BYTE   An0
 BYTE   W05
 BYTE   Gs0
 BYTE   W05
 BYTE   Gn0
 BYTE   W52
 BYTE   W01
 BYTE   PEND 
//  #06 //008   ----------------------------------------
Label_0100746B:
 BYTE   N03  Gn1  v060
 BYTE   W12
 BYTE   N03
 BYTE   W06
 BYTE   Gn2
 BYTE   W06
 BYTE   Gn1
 BYTE   W06
 BYTE   N03
 BYTE   W06
 BYTE   N06
 BYTE   W18
 BYTE   N03
 BYTE   W06
 BYTE   N03
 BYTE   W06
 BYTE   N03
 BYTE   W06
 BYTE   N12
 BYTE   W12
 BYTE   Dn1
 BYTE   W12
 BYTE   PEND 
//  #06 //009   ----------------------------------------
Label_01007484:
 BYTE   N18  Gn0  v060
 BYTE   W18
 BYTE   N06  Dn1
 BYTE   W06
 BYTE   N03  Gn1
 BYTE   W06
 BYTE   N03
 BYTE   W06
 BYTE   N06
 BYTE   W24
 BYTE   N12
 BYTE   W24
 BYTE   Fs1
 BYTE   W12
 BYTE   PEND 
//  #06 //010   ----------------------------------------
Label_01007497:
 BYTE   W18
 BYTE   N03  Fn1  v060
 BYTE   W06
 BYTE   N03
 BYTE   W06
 BYTE   N03
 BYTE   W06
 BYTE   N12  Gn1
 BYTE   W24
 BYTE   Fn1
 BYTE   W24
 BYTE   Cn1
 BYTE   W12
 BYTE   PEND 
//  #06 //011   ----------------------------------------
Label_010074A8:
 BYTE   N24  Fn1  v060
 BYTE   W36
 BYTE   N06
 BYTE   W24
 BYTE   N12
 BYTE   W24
 BYTE   Cn1
 BYTE   W12
 BYTE   PEND 
//  #06 //012   ----------------------------------------
Label_010074B3:
 BYTE   W12
 BYTE   N06  An1  v060
 BYTE   W06
 BYTE   N03  Gn1
 BYTE   W06
 BYTE   N03
 BYTE   W06
 BYTE   N03
 BYTE   W06
 BYTE   N12
 BYTE   W24
 BYTE   N12
 BYTE   W12
 BYTE   Cs1
 BYTE   W12
 BYTE   Dn1
 BYTE   W12
 BYTE   PEND 
//  #06 //013   ----------------------------------------
Label_010074C8:
 BYTE   N18  Gn0  v060
 BYTE   W18
 BYTE   N03  Gn1
 BYTE   W06
 BYTE   N06
 BYTE   W12
 BYTE   Cn1
 BYTE   W06
 BYTE   Gn1
 BYTE   W18
 BYTE   N12
 BYTE   W12
 BYTE   Gn0
 BYTE   W12
 BYTE   An1
 BYTE   W12
 BYTE   PEND 
//  #06 //014   ----------------------------------------
Label_010074DC:
 BYTE   N15  Fn1  v060
 BYTE   W18
 BYTE   N03
 BYTE   W06
 BYTE   N09
 BYTE   W12
 BYTE   N09
 BYTE   W24
 BYTE   N09
 BYTE   W24
 BYTE   N12  Cs1
 BYTE   W12
 BYTE   PEND 
//  #06 //015   ----------------------------------------
Label_010074EC:
 BYTE   N09  Fn1  v060
 BYTE   W12
 BYTE   N03
 BYTE   W06
 BYTE   N03
 BYTE   W06
 BYTE   N03
 BYTE   W06
 BYTE   N03
 BYTE   W06
 BYTE   N09
 BYTE   W24
 BYTE   N18
 BYTE   W24
 BYTE   N09  Dn1
 BYTE   W12
 BYTE   PEND 
//  #06 //016   ----------------------------------------
Label_01007500:
 BYTE   N06  Dn1  v060
 BYTE   W12
 BYTE   N12  An1
 BYTE   W12
 BYTE   N03  Dn1
 BYTE   W06
 BYTE   N03
 BYTE   W06
 BYTE   N09
 BYTE   W24
 BYTE   N09
 BYTE   W24
 BYTE   N09
 BYTE   W12
 BYTE   PEND 
//  #06 //017   ----------------------------------------
Label_01007513:
 BYTE   N09  Dn1  v060
 BYTE   W18
 BYTE   N03
 BYTE   W06
 BYTE   N03
 BYTE   W06
 BYTE   N03
 BYTE   W06
 BYTE   N06  Dn2
 BYTE   W06
 BYTE   Dn1
 BYTE   W24
 BYTE   N09
 BYTE   W18
 BYTE   En1
 BYTE   W12
 BYTE   PEND 
//  #06 //018   ----------------------------------------
Label_01007527:
 BYTE   N18  Fs0  v060
 BYTE   W18
 BYTE   N06  Fs1
 BYTE   W06
 BYTE   N06
 BYTE   W06
 BYTE   Cs1
 BYTE   W06
 BYTE   Fs1
 BYTE   W06
 BYTE   N06
 BYTE   W18
 BYTE   N09
 BYTE   W12
 BYTE   Fs0
 BYTE   W12
 BYTE   Fs1
 BYTE   W12
 BYTE   PEND 
//  #06 //019   ----------------------------------------
Label_0100753D:
 BYTE   N12  As0  v060
 BYTE   W12
 BYTE   N03  Fs1
 BYTE   W06
 BYTE   N03
 BYTE   W06
 BYTE   N06  Fs2
 BYTE   W06
 BYTE   Fs1
 BYTE   W18
 BYTE   N09  Gn0
 BYTE   W18
 BYTE   An1
 BYTE   W18
 BYTE   N09
 BYTE   W12
 BYTE   PEND 
//  #06 //020   ----------------------------------------
Label_01007553:
 BYTE   N18  As0  v060
 BYTE   W18
 BYTE   N09  As1
 BYTE   W18
 BYTE   Cn2
 BYTE   W12
 BYTE   N18
 BYTE   W18
 BYTE   As0
 BYTE   W18
 BYTE   N09  As1
 BYTE   W12
 BYTE   PEND 
//  #06 //021   ----------------------------------------
Label_01007564:
 BYTE   N18  As0  v060
 BYTE   W18
 BYTE   N09  As1
 BYTE   W18
 BYTE   Cn2
 BYTE   W12
 BYTE   N12
 BYTE   W12
 BYTE   N03  Dn2
 BYTE   W06
 BYTE   N03
 BYTE   W06
 BYTE   N09  As0
 BYTE   W12
 BYTE   As1
 BYTE   W12
 BYTE   PEND 
//  #06 //022   ----------------------------------------
Label_0100757A:
 BYTE   N18  An0  v060
 BYTE   W18
 BYTE   N09  An1
 BYTE   W18
 BYTE   En1
 BYTE   W12
 BYTE   N09
 BYTE   W12
 BYTE   An1
 BYTE   W12
 BYTE   N12  Dn1
 BYTE   W12
 BYTE   En1
 BYTE   W12
 BYTE   PEND 
//  #06 //023   ----------------------------------------
Label_0100758D:
 BYTE   N18  An0  v060
 BYTE   W18
 BYTE   N09  An1
 BYTE   W18
 BYTE   En1
 BYTE   W12
 BYTE   N09
 BYTE   W24
 BYTE   Ds1
 BYTE   W24
 BYTE   PEND 
//  #06 //024   ----------------------------------------
 BYTE   PATT
  POIN2 Label_01007553
//  #06 //025   ----------------------------------------
 BYTE   PATT
  POIN2 Label_01007564
//  #06 //026   ----------------------------------------
 BYTE   PATT
  POIN2 Label_0100757A
//  #06 //027   ----------------------------------------
 BYTE   PATT
  POIN2 Label_0100758D
//  #06 //028   ----------------------------------------
 BYTE   PATT
  POIN2 Label_01007553
//  #06 //029   ----------------------------------------
 BYTE   PATT
  POIN2 Label_01007564
//  #06 //030   ----------------------------------------
 BYTE   PATT
  POIN2 Label_0100757A
//  #06 //031   ----------------------------------------
 BYTE   N18  Cn1  v060
 BYTE   W18
 BYTE   N09  Cn2
 BYTE   W18
 BYTE   Cn1
 BYTE   W12
 BYTE   Cn2
 BYTE   W24
 BYTE   N09
 BYTE   W72
//  #06 //032   ----------------------------------------
 BYTE   N18  Gn0
 BYTE   W18
 BYTE   N09  Gn1
 BYTE   W18
 BYTE   Dn1
 BYTE   W24
 BYTE   N12
 BYTE   W12
 BYTE   Gn0
 BYTE   W12
 BYTE   En1
 BYTE   W12
//  #06 //033   ----------------------------------------
 BYTE   N18  Gn0
 BYTE   W18
 BYTE   N09  Gn1
 BYTE   W12
 BYTE   N03  Gn0
 BYTE   W06
 BYTE   N09  Dn1
 BYTE   W24
 BYTE   N12
 BYTE   W12
 BYTE   Gn0
 BYTE   W12
 BYTE   En1
 BYTE   W12
//  #06 //034   ----------------------------------------
 BYTE   N18  Fn0
 BYTE   W18
 BYTE   N09  Fn1
 BYTE   W12
 BYTE   N03  Fn0
 BYTE   W06
 BYTE   N18  En1
 BYTE   W24
 BYTE   N12
 BYTE   W12
 BYTE   Gn0
 BYTE   W12
 BYTE   Cn1
 BYTE   W12
//  #06 //035   ----------------------------------------
 BYTE   N18  Fn0
 BYTE   W18
 BYTE   N09  Fn1
 BYTE   W12
 BYTE   N03  Fn0
 BYTE   W06
 BYTE   N10  En1
 BYTE   W36
 BYTE   N24
 BYTE   W24
//  #06 //036   ----------------------------------------
 BYTE   PATT
  POIN2 Label_0100746B
//  #06 //037   ----------------------------------------
 BYTE   PATT
  POIN2 Label_01007484
//  #06 //038   ----------------------------------------
 BYTE   PATT
  POIN2 Label_01007497
//  #06 //039   ----------------------------------------
 BYTE   PATT
  POIN2 Label_010074A8
//  #06 //040   ----------------------------------------
 BYTE   PATT
  POIN2 Label_010074B3
//  #06 //041   ----------------------------------------
 BYTE   PATT
  POIN2 Label_010074C8
//  #06 //042   ----------------------------------------
 BYTE   PATT
  POIN2 Label_010074DC
//  #06 //043   ----------------------------------------
 BYTE   PATT
  POIN2 Label_010074EC
//  #06 //044   ----------------------------------------
 BYTE   PATT
  POIN2 Label_01007500
//  #06 //045   ----------------------------------------
 BYTE   PATT
  POIN2 Label_01007513
//  #06 //046   ----------------------------------------
 BYTE   PATT
  POIN2 Label_01007527
//  #06 //047   ----------------------------------------
 BYTE   PATT
  POIN2 Label_0100753D
//  #06 //048   ----------------------------------------
 BYTE   PATT
  POIN2 Label_01007553
//  #06 //049   ----------------------------------------
 BYTE   PATT
  POIN2 Label_01007564
//  #06 //050   ----------------------------------------
 BYTE   PATT
  POIN2 Label_0100757A
//  #06 //051   ----------------------------------------
 BYTE   PATT
  POIN2 Label_0100758D
//  #06 //052   ----------------------------------------
 BYTE   PATT
  POIN2 Label_01007553
//  #06 //053   ----------------------------------------
 BYTE   PATT
  POIN2 Label_01007564
//  #06 //054   ----------------------------------------
 BYTE   PATT
  POIN2 Label_0100757A
//  #06 //055   ----------------------------------------
 BYTE   PATT
  POIN2 Label_0100758D
//  #06 //056   ----------------------------------------
 BYTE   PATT
  POIN2 Label_01007553
//  #06 //057   ----------------------------------------
 BYTE   PATT
  POIN2 Label_01007564
//  #06 //058   ----------------------------------------
 BYTE   PATT
  POIN2 Label_0100757A
//  #06 //059   ----------------------------------------
 BYTE   N18  Cn1  v060
 BYTE   W18
 BYTE   N03  Cn2
 BYTE   W06
 BYTE   N03
 BYTE   W06
 BYTE   N03
 BYTE   W06
 BYTE   N12  Cn1
 BYTE   W12
 BYTE   N09  Cn2
 BYTE   W24
 BYTE   N09
 BYTE   W12
 BYTE   N03
 BYTE   W06
 BYTE   N03
 BYTE   W06
//  #06 //060   ----------------------------------------
Label_01007695:
 BYTE   N12  Gn0  v060
 BYTE   W12
 BYTE   N06  An1
 BYTE   W06
 BYTE   Gn1
 BYTE   W12
 BYTE   N03  Dn1
 BYTE   W06
 BYTE   N09
 BYTE   W24
 BYTE   N12
 BYTE   W12
 BYTE   Gn0
 BYTE   W12
 BYTE   En1
 BYTE   W12
 BYTE   PEND 
//  #06 //061   ----------------------------------------
Label_010076AA:
 BYTE   N18  Gn0  v060
 BYTE   W18
 BYTE   N12  Gn1
 BYTE   W18
 BYTE   Dn1
 BYTE   W24
 BYTE   N12
 BYTE   W12
 BYTE   Gn0
 BYTE   W12
 BYTE   En1
 BYTE   W12
 BYTE   PEND 
//  #06 //062   ----------------------------------------
Label_010076BA:
 BYTE   N18  Gn0  v060
 BYTE   W18
 BYTE   N06  Fn1
 BYTE   W18
 BYTE   N12  En1
 BYTE   W24
 BYTE   N12
 BYTE   W24
 BYTE   Cn1
 BYTE   W12
 BYTE   PEND 
//  #06 //063   ----------------------------------------
 BYTE   Gn0
 BYTE   W12
 BYTE   N06  An1
 BYTE   W06
 BYTE   N09  En1
 BYTE   W18
 BYTE   N09
 BYTE   W24
 BYTE   N06
 BYTE   W12
 BYTE   N18
 BYTE   W24
//  #06 //064   ----------------------------------------
 BYTE   PATT
  POIN2 Label_01007695
//  #06 //065   ----------------------------------------
 BYTE   PATT
  POIN2 Label_010076AA
//  #06 //066   ----------------------------------------
 BYTE   PATT
  POIN2 Label_010076BA
//  #06 //067   ----------------------------------------
 BYTE   PATT
  POIN2 Label_01007453
//  #06 //068   ----------------------------------------
 BYTE   GoTo
  POIN2 Label_01007418
 BYTE   FINE

//******************************************************//
	ALIGN 4

OmoriForestFrenzy:
	BYTE	6	// NumTrks
	BYTE	0	// NumBlks
	BYTE	OmoriForestFrenzy_pri	// Priority
	BYTE	OmoriForestFrenzy_rev	// Reverb.
    
	POIN2	OmoriForestFrenzy_grp
    
	POIN2	OmoriForestFrenzy_001
	POIN2	OmoriForestFrenzy_002
	POIN2	OmoriForestFrenzy_003
	POIN2	OmoriForestFrenzy_004
	POIN2	OmoriForestFrenzy_005
	POIN2	OmoriForestFrenzy_006

	
