//Event file generated from Sappy .s format.
	

	#define	OssaTrail_grp  voicegroup000
	#define	OssaTrail_pri  0
	#define	OssaTrail_rev  0
	#define	OssaTrail_mvl  127
	#define	OssaTrail_key  0
	#define	OssaTrail_tbs  1
	#define	OssaTrail_exg  0
	#define	OssaTrail_cmp  1

	// .rodata
	//	OssaTrail
	ALIGN 4


//**************** Track 1 (Midi-Chn.0) ****************//

OssaTrail_001:
//  #01 //000   ----------------------------------------
 BYTE   KEYSH   OssaTrail_key+0
Label_0131383E:
 BYTE   TEMPO   134*OssaTrail_tbs/2
 BYTE   VOICE   52
 BYTE   VOL   12*OssaTrail_mvl/mxv
 BYTE   PAN   c_v+15
 BYTE   TIE  An3  v100
 BYTE   TIE  Cn4
 BYTE   TIE  En4
 BYTE   TIE  An4
 BYTE   W96
//  #01 //001   ----------------------------------------
 BYTE   W96
//  #01 //002   ----------------------------------------
 BYTE   W96
//  #01 //003   ----------------------------------------
 BYTE   EOT
 BYTE   An3  v072
 BYTE   En4  v081
Label_01313857:
 BYTE   N96  Gn3  v100
 BYTE   N96  Bn3
 BYTE   N96  Dn4
 BYTE   N96  Gn4
 BYTE   W96
 BYTE   PEND 
//  #01 //004   ----------------------------------------
Label_01313862:
 BYTE   TIE  An3  v100
 BYTE   TIE  Cn4
 BYTE   TIE  En4
 BYTE   TIE  An4  v080
 BYTE   W96
 BYTE   PEND 
//  #01 //005   ----------------------------------------
 BYTE   W96
//  #01 //006   ----------------------------------------
 BYTE   W96
//  #01 //007   ----------------------------------------
 BYTE   EOT
 BYTE   An3  v072
 BYTE   En4  v081
Label_01313875:
 BYTE   N96  Gn3  v100
 BYTE   N96  Bn3
 BYTE   N96  Dn4
 BYTE   N96  Gn4  v080
 BYTE   W96
 BYTE   PEND 
//  #01 //008   ----------------------------------------
Label_01313881:
 BYTE   TIE  Fs3  v100
 BYTE   TIE  An3
 BYTE   TIE  Cs4
 BYTE   TIE  Fs4
 BYTE   W96
 BYTE   PEND 
//  #01 //009   ----------------------------------------
 BYTE   W96
//  #01 //010   ----------------------------------------
 BYTE   W96
//  #01 //011   ----------------------------------------
 BYTE   EOT
 BYTE   Fs3  v069
 BYTE   Cs4  v078
Label_01313893:
 BYTE   N96  En3  v100
 BYTE   N96  Gs3
 BYTE   N96  Bn3
 BYTE   N96  En4
 BYTE   W96
 BYTE   PEND 
//  #01 //012   ----------------------------------------
Label_0131389E:
 BYTE   TIE  Fs3  v100
 BYTE   TIE  An3
 BYTE   TIE  Bn3
 BYTE   TIE  Cs4
 BYTE   TIE  Fs4  v080
 BYTE   W96
 BYTE   PEND 
//  #01 //013   ----------------------------------------
 BYTE   W96
//  #01 //014   ----------------------------------------
 BYTE   W96
//  #01 //015   ----------------------------------------
 BYTE   EOT
 BYTE   Fs3  v069
 BYTE   Bn3  v073
 BYTE   Fs4
Label_013138B4:
 BYTE   N96  En3  v100
 BYTE   N96  Gs3
 BYTE   N96  Bn3
 BYTE   N96  Cs4
 BYTE   N96  En4  v080
 BYTE   W96
 BYTE   PEND 
//  #01 //016   ----------------------------------------
Label_013138C2:
 BYTE   TIE  An3  v100
 BYTE   TIE  Cn4
 BYTE   TIE  En4
 BYTE   TIE  An4
 BYTE   W96
 BYTE   PEND 
//  #01 //017   ----------------------------------------
 BYTE   W96
//  #01 //018   ----------------------------------------
 BYTE   W96
//  #01 //019   ----------------------------------------
 BYTE   EOT
 BYTE   An3  v072
 BYTE   En4  v081
//  #01 //020   ----------------------------------------
 BYTE   PATT
  POIN2 Label_01313857
//  #01 //021   ----------------------------------------
 BYTE   PATT
  POIN2 Label_01313862
//  #01 //022   ----------------------------------------
 BYTE   W96
//  #01 //023   ----------------------------------------
 BYTE   W96
//  #01 //024   ----------------------------------------
 BYTE   EOT
 BYTE   An3  v072
 BYTE   En4  v081
//  #01 //025   ----------------------------------------
 BYTE   PATT
  POIN2 Label_01313875
//  #01 //026   ----------------------------------------
 BYTE   PATT
  POIN2 Label_01313881
//  #01 //027   ----------------------------------------
 BYTE   W96
//  #01 //028   ----------------------------------------
 BYTE   W96
//  #01 //029   ----------------------------------------
 BYTE   EOT
 BYTE   Fs3  v069
 BYTE   Cs4  v078
//  #01 //030   ----------------------------------------
 BYTE   PATT
  POIN2 Label_01313893
//  #01 //031   ----------------------------------------
 BYTE   PATT
  POIN2 Label_0131389E
//  #01 //032   ----------------------------------------
 BYTE   W96
//  #01 //033   ----------------------------------------
 BYTE   W96
//  #01 //034   ----------------------------------------
 BYTE   EOT
 BYTE   Fs3  v069
 BYTE   Bn3  v073
 BYTE   Fs4
//  #01 //035   ----------------------------------------
 BYTE   PATT
  POIN2 Label_013138B4
//  #01 //036   ----------------------------------------
 BYTE   PATT
  POIN2 Label_013138C2
//  #01 //037   ----------------------------------------
 BYTE   W96
//  #01 //038   ----------------------------------------
 BYTE   W96
//  #01 //039   ----------------------------------------
 BYTE   EOT
 BYTE   An3  v072
 BYTE   En4  v081
//  #01 //040   ----------------------------------------
 BYTE   PATT
  POIN2 Label_01313857
//  #01 //041   ----------------------------------------
 BYTE   PATT
  POIN2 Label_01313862
//  #01 //042   ----------------------------------------
 BYTE   W96
//  #01 //043   ----------------------------------------
 BYTE   W96
//  #01 //044   ----------------------------------------
 BYTE   EOT
 BYTE   An3  v072
 BYTE   En4  v081
//  #01 //045   ----------------------------------------
 BYTE   PATT
  POIN2 Label_01313875
//  #01 //046   ----------------------------------------
 BYTE   PATT
  POIN2 Label_01313881
//  #01 //047   ----------------------------------------
 BYTE   W96
//  #01 //048   ----------------------------------------
 BYTE   W96
//  #01 //049   ----------------------------------------
 BYTE   EOT
 BYTE   Fs3  v069
 BYTE   Cs4  v078
//  #01 //050   ----------------------------------------
 BYTE   PATT
  POIN2 Label_01313893
//  #01 //051   ----------------------------------------
 BYTE   PATT
  POIN2 Label_0131389E
//  #01 //052   ----------------------------------------
 BYTE   W96
//  #01 //053   ----------------------------------------
 BYTE   W96
//  #01 //054   ----------------------------------------
 BYTE   EOT
 BYTE   Fs3  v069
 BYTE   Bn3  v073
 BYTE   Fs4
//  #01 //055   ----------------------------------------
 BYTE   PATT
  POIN2 Label_013138B4
//  #01 //056   ----------------------------------------
 BYTE   PATT
  POIN2 Label_013138C2
//  #01 //057   ----------------------------------------
 BYTE   W96
//  #01 //058   ----------------------------------------
 BYTE   W96
//  #01 //059   ----------------------------------------
 BYTE   EOT
 BYTE   An3  v072
 BYTE   En4  v081
//  #01 //060   ----------------------------------------
 BYTE   PATT
  POIN2 Label_01313857
//  #01 //061   ----------------------------------------
 BYTE   PATT
  POIN2 Label_01313862
//  #01 //062   ----------------------------------------
 BYTE   W96
//  #01 //063   ----------------------------------------
 BYTE   W96
//  #01 //064   ----------------------------------------
 BYTE   EOT
 BYTE   An3  v072
 BYTE   En4  v081
//  #01 //065   ----------------------------------------
 BYTE   PATT
  POIN2 Label_01313875
//  #01 //066   ----------------------------------------
 BYTE   PATT
  POIN2 Label_01313881
//  #01 //067   ----------------------------------------
 BYTE   W96
//  #01 //068   ----------------------------------------
 BYTE   W96
//  #01 //069   ----------------------------------------
 BYTE   EOT
 BYTE   Fs3  v069
 BYTE   Cs4  v078
//  #01 //070   ----------------------------------------
 BYTE   PATT
  POIN2 Label_01313893
//  #01 //071   ----------------------------------------
 BYTE   PATT
  POIN2 Label_0131389E
//  #01 //072   ----------------------------------------
 BYTE   W96
//  #01 //073   ----------------------------------------
 BYTE   W96
//  #01 //074   ----------------------------------------
 BYTE   EOT
 BYTE   Fs3  v069
 BYTE   Bn3  v073
 BYTE   Fs4
//  #01 //075   ----------------------------------------
 BYTE   PATT
  POIN2 Label_013138B4
//  #01 //076   ----------------------------------------
 BYTE   GoTo
  POIN2 Label_0131383E
 BYTE   FINE

//**************** Track 2 (Midi-Chn.1) ****************//

OssaTrail_002:
//  #02 //000   ----------------------------------------
 BYTE   KEYSH   OssaTrail_key+0
Label_013139A2:
 BYTE   VOICE   52
 BYTE   VOL   12*OssaTrail_mvl/mxv
 BYTE   PAN   c_v-13
 BYTE   TIE  An3  v100
 BYTE   TIE  Cn4
 BYTE   TIE  En4
 BYTE   TIE  An4
 BYTE   W96
//  #02 //001   ----------------------------------------
 BYTE   W96
//  #02 //002   ----------------------------------------
 BYTE   W96
//  #02 //003   ----------------------------------------
 BYTE   EOT
 BYTE   An3  v072
 BYTE   En4  v081
Label_013139B9:
 BYTE   N96  Gn3  v100
 BYTE   N96  Bn3
 BYTE   N96  Dn4
 BYTE   N96  Gn4
 BYTE   W96
 BYTE   PEND 
//  #02 //004   ----------------------------------------
Label_013139C4:
 BYTE   TIE  An3  v100
 BYTE   TIE  Cn4
 BYTE   TIE  En4
 BYTE   TIE  An4  v080
 BYTE   W96
 BYTE   PEND 
//  #02 //005   ----------------------------------------
 BYTE   W96
//  #02 //006   ----------------------------------------
 BYTE   W96
//  #02 //007   ----------------------------------------
 BYTE   EOT
 BYTE   An3  v072
 BYTE   En4  v081
Label_013139D7:
 BYTE   N96  Gn3  v100
 BYTE   N96  Bn3
 BYTE   N96  Dn4
 BYTE   N96  Gn4  v080
 BYTE   W96
 BYTE   PEND 
//  #02 //008   ----------------------------------------
Label_013139E3:
 BYTE   TIE  Fs3  v100
 BYTE   TIE  An3
 BYTE   TIE  Cs4
 BYTE   TIE  Fs4
 BYTE   W96
 BYTE   PEND 
//  #02 //009   ----------------------------------------
 BYTE   W96
//  #02 //010   ----------------------------------------
 BYTE   W96
//  #02 //011   ----------------------------------------
 BYTE   EOT
 BYTE   Fs3  v069
 BYTE   Cs4  v078
Label_013139F5:
 BYTE   N96  En3  v100
 BYTE   N96  Gs3
 BYTE   N96  Bn3
 BYTE   N96  En4
 BYTE   W96
 BYTE   PEND 
//  #02 //012   ----------------------------------------
Label_01313A00:
 BYTE   TIE  Fs3  v100
 BYTE   TIE  An3
 BYTE   TIE  Bn3
 BYTE   TIE  Cs4
 BYTE   TIE  Fs4  v080
 BYTE   W96
 BYTE   PEND 
//  #02 //013   ----------------------------------------
 BYTE   W96
//  #02 //014   ----------------------------------------
 BYTE   W96
//  #02 //015   ----------------------------------------
 BYTE   EOT
 BYTE   Fs3  v069
 BYTE   Bn3  v073
 BYTE   Fs4
Label_01313A16:
 BYTE   N96  En3  v100
 BYTE   N96  Gs3
 BYTE   N96  Bn3
 BYTE   N96  Cs4
 BYTE   N96  En4  v080
 BYTE   W96
 BYTE   PEND 
//  #02 //016   ----------------------------------------
Label_01313A24:
 BYTE   TIE  An3  v100
 BYTE   TIE  Cn4
 BYTE   TIE  En4
 BYTE   TIE  An4
 BYTE   W96
 BYTE   PEND 
//  #02 //017   ----------------------------------------
 BYTE   W96
//  #02 //018   ----------------------------------------
 BYTE   W96
//  #02 //019   ----------------------------------------
 BYTE   EOT
 BYTE   An3  v072
 BYTE   En4  v081
//  #02 //020   ----------------------------------------
 BYTE   PATT
  POIN2 Label_013139B9
//  #02 //021   ----------------------------------------
 BYTE   PATT
  POIN2 Label_013139C4
//  #02 //022   ----------------------------------------
 BYTE   W96
//  #02 //023   ----------------------------------------
 BYTE   W96
//  #02 //024   ----------------------------------------
 BYTE   EOT
 BYTE   An3  v072
 BYTE   En4  v081
//  #02 //025   ----------------------------------------
 BYTE   PATT
  POIN2 Label_013139D7
//  #02 //026   ----------------------------------------
 BYTE   PATT
  POIN2 Label_013139E3
//  #02 //027   ----------------------------------------
 BYTE   W96
//  #02 //028   ----------------------------------------
 BYTE   W96
//  #02 //029   ----------------------------------------
 BYTE   EOT
 BYTE   Fs3  v069
 BYTE   Cs4  v078
//  #02 //030   ----------------------------------------
 BYTE   PATT
  POIN2 Label_013139F5
//  #02 //031   ----------------------------------------
 BYTE   PATT
  POIN2 Label_01313A00
//  #02 //032   ----------------------------------------
 BYTE   W96
//  #02 //033   ----------------------------------------
 BYTE   W96
//  #02 //034   ----------------------------------------
 BYTE   EOT
 BYTE   Fs3  v069
 BYTE   Bn3  v073
 BYTE   Fs4
//  #02 //035   ----------------------------------------
 BYTE   PATT
  POIN2 Label_01313A16
//  #02 //036   ----------------------------------------
 BYTE   PATT
  POIN2 Label_01313A24
//  #02 //037   ----------------------------------------
 BYTE   W96
//  #02 //038   ----------------------------------------
 BYTE   W96
//  #02 //039   ----------------------------------------
 BYTE   EOT
 BYTE   An3  v072
 BYTE   En4  v081
//  #02 //040   ----------------------------------------
 BYTE   PATT
  POIN2 Label_013139B9
//  #02 //041   ----------------------------------------
 BYTE   PATT
  POIN2 Label_013139C4
//  #02 //042   ----------------------------------------
 BYTE   W96
//  #02 //043   ----------------------------------------
 BYTE   W96
//  #02 //044   ----------------------------------------
 BYTE   EOT
 BYTE   An3  v072
 BYTE   En4  v081
//  #02 //045   ----------------------------------------
 BYTE   PATT
  POIN2 Label_013139D7
//  #02 //046   ----------------------------------------
 BYTE   PATT
  POIN2 Label_013139E3
//  #02 //047   ----------------------------------------
 BYTE   W96
//  #02 //048   ----------------------------------------
 BYTE   W96
//  #02 //049   ----------------------------------------
 BYTE   EOT
 BYTE   Fs3  v069
 BYTE   Cs4  v078
//  #02 //050   ----------------------------------------
 BYTE   PATT
  POIN2 Label_013139F5
//  #02 //051   ----------------------------------------
 BYTE   PATT
  POIN2 Label_01313A00
//  #02 //052   ----------------------------------------
 BYTE   W96
//  #02 //053   ----------------------------------------
 BYTE   W96
//  #02 //054   ----------------------------------------
 BYTE   EOT
 BYTE   Fs3  v069
 BYTE   Bn3  v073
 BYTE   Fs4
//  #02 //055   ----------------------------------------
 BYTE   PATT
  POIN2 Label_01313A16
//  #02 //056   ----------------------------------------
 BYTE   PATT
  POIN2 Label_01313A24
//  #02 //057   ----------------------------------------
 BYTE   W96
//  #02 //058   ----------------------------------------
 BYTE   W96
//  #02 //059   ----------------------------------------
 BYTE   EOT
 BYTE   An3  v072
 BYTE   En4  v081
//  #02 //060   ----------------------------------------
 BYTE   PATT
  POIN2 Label_013139B9
//  #02 //061   ----------------------------------------
 BYTE   PATT
  POIN2 Label_013139C4
//  #02 //062   ----------------------------------------
 BYTE   W96
//  #02 //063   ----------------------------------------
 BYTE   W96
//  #02 //064   ----------------------------------------
 BYTE   EOT
 BYTE   An3  v072
 BYTE   En4  v081
//  #02 //065   ----------------------------------------
 BYTE   PATT
  POIN2 Label_013139D7
//  #02 //066   ----------------------------------------
 BYTE   PATT
  POIN2 Label_013139E3
//  #02 //067   ----------------------------------------
 BYTE   W96
//  #02 //068   ----------------------------------------
 BYTE   W96
//  #02 //069   ----------------------------------------
 BYTE   EOT
 BYTE   Fs3  v069
 BYTE   Cs4  v078
//  #02 //070   ----------------------------------------
 BYTE   PATT
  POIN2 Label_013139F5
//  #02 //071   ----------------------------------------
 BYTE   PATT
  POIN2 Label_01313A00
//  #02 //072   ----------------------------------------
 BYTE   W96
//  #02 //073   ----------------------------------------
 BYTE   W96
//  #02 //074   ----------------------------------------
 BYTE   EOT
 BYTE   Fs3  v069
 BYTE   Bn3  v073
 BYTE   Fs4
//  #02 //075   ----------------------------------------
 BYTE   PATT
  POIN2 Label_01313A16
//  #02 //076   ----------------------------------------
 BYTE   GoTo
  POIN2 Label_013139A2
 BYTE   FINE

//**************** Track 3 (Midi-Chn.2) ****************//

OssaTrail_003:
//  #03 //000   ----------------------------------------
 BYTE   KEYSH   OssaTrail_key+0
Label_01313B02:
 BYTE   VOICE   46
 BYTE   VOL   34*OssaTrail_mvl/mxv
 BYTE   PAN   c_v-16
 BYTE   N08  An2  v100
 BYTE   W16
 BYTE   An3
 BYTE   W16
 BYTE   Dn4
 BYTE   W16
 BYTE   En4
 BYTE   W16
 BYTE   Cn4
 BYTE   W16
 BYTE   Bn3
 BYTE   W16
//  #03 //001   ----------------------------------------
Label_01313B16:
 BYTE   N08  An2  v100
 BYTE   W16
 BYTE   An3
 BYTE   W16
 BYTE   Dn4
 BYTE   W16
 BYTE   En4
 BYTE   W16
 BYTE   Cn4
 BYTE   W16
 BYTE   Bn3
 BYTE   W16
 BYTE   PEND 
//  #03 //002   ----------------------------------------
Label_01313B25:
 BYTE   N08  An2  v100
 BYTE   W16
 BYTE   An3
 BYTE   W16
 BYTE   Dn4
 BYTE   W16
 BYTE   En4
 BYTE   W16
 BYTE   Cn4
 BYTE   W16
 BYTE   Dn4
 BYTE   W16
 BYTE   PEND 
//  #03 //003   ----------------------------------------
Label_01313B34:
 BYTE   N08  Bn3  v100
 BYTE   W16
 BYTE   Cn4
 BYTE   W16
 BYTE   An3
 BYTE   W16
 BYTE   Gn2
 BYTE   N08  Bn3
 BYTE   W16
 BYTE   Gn3
 BYTE   W16
 BYTE   An3
 BYTE   W16
 BYTE   PEND 
//  #03 //004   ----------------------------------------
 BYTE   PATT
  POIN2 Label_01313B16
//  #03 //005   ----------------------------------------
 BYTE   PATT
  POIN2 Label_01313B16
//  #03 //006   ----------------------------------------
 BYTE   PATT
  POIN2 Label_01313B25
//  #03 //007   ----------------------------------------
 BYTE   PATT
  POIN2 Label_01313B34
//  #03 //008   ----------------------------------------
Label_01313B59:
 BYTE   N08  Fs2  v100
 BYTE   W16
 BYTE   Fs3
 BYTE   W16
 BYTE   Bn3
 BYTE   W16
 BYTE   Cs4
 BYTE   W16
 BYTE   An3
 BYTE   W16
 BYTE   Gs3
 BYTE   W16
 BYTE   PEND 
//  #03 //009   ----------------------------------------
 BYTE   PATT
  POIN2 Label_01313B59
//  #03 //010   ----------------------------------------
Label_01313B6D:
 BYTE   N08  Fs2  v100
 BYTE   W16
 BYTE   Fs3
 BYTE   W16
 BYTE   Bn3
 BYTE   W16
 BYTE   Cs4
 BYTE   W16
 BYTE   An3
 BYTE   W16
 BYTE   Bn3
 BYTE   W16
 BYTE   PEND 
//  #03 //011   ----------------------------------------
Label_01313B7C:
 BYTE   N08  Gs3  v100
 BYTE   W16
 BYTE   An3
 BYTE   W16
 BYTE   Fs3
 BYTE   W16
 BYTE   En2
 BYTE   N08  Gs3
 BYTE   W16
 BYTE   En3
 BYTE   W16
 BYTE   Fs3
 BYTE   W16
 BYTE   PEND 
//  #03 //012   ----------------------------------------
 BYTE   PATT
  POIN2 Label_01313B59
//  #03 //013   ----------------------------------------
 BYTE   PATT
  POIN2 Label_01313B59
//  #03 //014   ----------------------------------------
 BYTE   PATT
  POIN2 Label_01313B6D
//  #03 //015   ----------------------------------------
 BYTE   PATT
  POIN2 Label_01313B7C
//  #03 //016   ----------------------------------------
 BYTE   PATT
  POIN2 Label_01313B16
//  #03 //017   ----------------------------------------
 BYTE   PATT
  POIN2 Label_01313B16
//  #03 //018   ----------------------------------------
 BYTE   PATT
  POIN2 Label_01313B25
//  #03 //019   ----------------------------------------
 BYTE   PATT
  POIN2 Label_01313B34
//  #03 //020   ----------------------------------------
 BYTE   PATT
  POIN2 Label_01313B16
//  #03 //021   ----------------------------------------
 BYTE   PATT
  POIN2 Label_01313B16
//  #03 //022   ----------------------------------------
 BYTE   PATT
  POIN2 Label_01313B25
//  #03 //023   ----------------------------------------
 BYTE   PATT
  POIN2 Label_01313B34
//  #03 //024   ----------------------------------------
 BYTE   PATT
  POIN2 Label_01313B59
//  #03 //025   ----------------------------------------
 BYTE   PATT
  POIN2 Label_01313B59
//  #03 //026   ----------------------------------------
 BYTE   PATT
  POIN2 Label_01313B6D
//  #03 //027   ----------------------------------------
 BYTE   PATT
  POIN2 Label_01313B7C
//  #03 //028   ----------------------------------------
 BYTE   PATT
  POIN2 Label_01313B59
//  #03 //029   ----------------------------------------
 BYTE   PATT
  POIN2 Label_01313B59
//  #03 //030   ----------------------------------------
 BYTE   PATT
  POIN2 Label_01313B6D
//  #03 //031   ----------------------------------------
 BYTE   PATT
  POIN2 Label_01313B7C
//  #03 //032   ----------------------------------------
 BYTE   PATT
  POIN2 Label_01313B16
//  #03 //033   ----------------------------------------
 BYTE   PATT
  POIN2 Label_01313B16
//  #03 //034   ----------------------------------------
 BYTE   PATT
  POIN2 Label_01313B25
//  #03 //035   ----------------------------------------
 BYTE   PATT
  POIN2 Label_01313B34
//  #03 //036   ----------------------------------------
 BYTE   PATT
  POIN2 Label_01313B16
//  #03 //037   ----------------------------------------
 BYTE   PATT
  POIN2 Label_01313B16
//  #03 //038   ----------------------------------------
 BYTE   PATT
  POIN2 Label_01313B25
//  #03 //039   ----------------------------------------
 BYTE   PATT
  POIN2 Label_01313B34
//  #03 //040   ----------------------------------------
 BYTE   PATT
  POIN2 Label_01313B59
//  #03 //041   ----------------------------------------
 BYTE   PATT
  POIN2 Label_01313B59
//  #03 //042   ----------------------------------------
 BYTE   PATT
  POIN2 Label_01313B6D
//  #03 //043   ----------------------------------------
 BYTE   PATT
  POIN2 Label_01313B7C
//  #03 //044   ----------------------------------------
 BYTE   PATT
  POIN2 Label_01313B59
//  #03 //045   ----------------------------------------
 BYTE   PATT
  POIN2 Label_01313B59
//  #03 //046   ----------------------------------------
 BYTE   PATT
  POIN2 Label_01313B6D
//  #03 //047   ----------------------------------------
 BYTE   PATT
  POIN2 Label_01313B7C
//  #03 //048   ----------------------------------------
 BYTE   PATT
  POIN2 Label_01313B16
//  #03 //049   ----------------------------------------
 BYTE   PATT
  POIN2 Label_01313B16
//  #03 //050   ----------------------------------------
 BYTE   PATT
  POIN2 Label_01313B25
//  #03 //051   ----------------------------------------
 BYTE   PATT
  POIN2 Label_01313B34
//  #03 //052   ----------------------------------------
 BYTE   PATT
  POIN2 Label_01313B16
//  #03 //053   ----------------------------------------
 BYTE   PATT
  POIN2 Label_01313B16
//  #03 //054   ----------------------------------------
 BYTE   PATT
  POIN2 Label_01313B25
//  #03 //055   ----------------------------------------
 BYTE   PATT
  POIN2 Label_01313B34
//  #03 //056   ----------------------------------------
 BYTE   PATT
  POIN2 Label_01313B59
//  #03 //057   ----------------------------------------
 BYTE   PATT
  POIN2 Label_01313B59
//  #03 //058   ----------------------------------------
 BYTE   PATT
  POIN2 Label_01313B6D
//  #03 //059   ----------------------------------------
 BYTE   PATT
  POIN2 Label_01313B7C
//  #03 //060   ----------------------------------------
 BYTE   PATT
  POIN2 Label_01313B59
//  #03 //061   ----------------------------------------
 BYTE   PATT
  POIN2 Label_01313B59
//  #03 //062   ----------------------------------------
 BYTE   PATT
  POIN2 Label_01313B6D
//  #03 //063   ----------------------------------------
 BYTE   PATT
  POIN2 Label_01313B7C
//  #03 //064   ----------------------------------------
 BYTE   GoTo
  POIN2 Label_01313B02
 BYTE   FINE

//**************** Track 4 (Midi-Chn.3) ****************//

OssaTrail_004:
//  #04 //000   ----------------------------------------
 BYTE   KEYSH   OssaTrail_key+0
Label_01313C9A:
 BYTE   VOICE   46
 BYTE   VOL   34*OssaTrail_mvl/mxv
 BYTE   PAN   c_v+21
 BYTE   N08  An2  v100
 BYTE   W16
 BYTE   An3
 BYTE   W16
 BYTE   Dn4
 BYTE   W16
 BYTE   En4
 BYTE   W16
 BYTE   Cn4
 BYTE   W16
 BYTE   Bn3
 BYTE   W16
//  #04 //001   ----------------------------------------
Label_01313CAE:
 BYTE   N08  An2  v100
 BYTE   W16
 BYTE   An3
 BYTE   W16
 BYTE   Dn4
 BYTE   W16
 BYTE   En4
 BYTE   W16
 BYTE   Cn4
 BYTE   W16
 BYTE   Bn3
 BYTE   W16
 BYTE   PEND 
//  #04 //002   ----------------------------------------
Label_01313CBD:
 BYTE   N08  An2  v100
 BYTE   W16
 BYTE   An3
 BYTE   W16
 BYTE   Dn4
 BYTE   W16
 BYTE   En4
 BYTE   W16
 BYTE   Cn4
 BYTE   W16
 BYTE   Dn4
 BYTE   W16
 BYTE   PEND 
//  #04 //003   ----------------------------------------
Label_01313CCC:
 BYTE   N08  Bn3  v100
 BYTE   W16
 BYTE   Cn4
 BYTE   W16
 BYTE   An3
 BYTE   W16
 BYTE   Gn2
 BYTE   N08  Bn3
 BYTE   W16
 BYTE   Gn3
 BYTE   W16
 BYTE   An3
 BYTE   W16
 BYTE   PEND 
//  #04 //004   ----------------------------------------
 BYTE   PATT
  POIN2 Label_01313CAE
//  #04 //005   ----------------------------------------
 BYTE   PATT
  POIN2 Label_01313CAE
//  #04 //006   ----------------------------------------
 BYTE   PATT
  POIN2 Label_01313CBD
//  #04 //007   ----------------------------------------
 BYTE   PATT
  POIN2 Label_01313CCC
//  #04 //008   ----------------------------------------
Label_01313CF1:
 BYTE   N08  Fs2  v100
 BYTE   W16
 BYTE   Fs3
 BYTE   W16
 BYTE   Bn3
 BYTE   W16
 BYTE   Cs4
 BYTE   W16
 BYTE   An3
 BYTE   W16
 BYTE   Gs3
 BYTE   W16
 BYTE   PEND 
//  #04 //009   ----------------------------------------
 BYTE   PATT
  POIN2 Label_01313CF1
//  #04 //010   ----------------------------------------
Label_01313D05:
 BYTE   N08  Fs2  v100
 BYTE   W16
 BYTE   Fs3
 BYTE   W16
 BYTE   Bn3
 BYTE   W16
 BYTE   Cs4
 BYTE   W16
 BYTE   An3
 BYTE   W16
 BYTE   Bn3
 BYTE   W16
 BYTE   PEND 
//  #04 //011   ----------------------------------------
Label_01313D14:
 BYTE   N08  Gs3  v100
 BYTE   W16
 BYTE   An3
 BYTE   W16
 BYTE   Fs3
 BYTE   W16
 BYTE   En2
 BYTE   N08  Gs3
 BYTE   W16
 BYTE   En3
 BYTE   W16
 BYTE   Fs3
 BYTE   W16
 BYTE   PEND 
//  #04 //012   ----------------------------------------
 BYTE   PATT
  POIN2 Label_01313CF1
//  #04 //013   ----------------------------------------
 BYTE   PATT
  POIN2 Label_01313CF1
//  #04 //014   ----------------------------------------
 BYTE   PATT
  POIN2 Label_01313D05
//  #04 //015   ----------------------------------------
 BYTE   PATT
  POIN2 Label_01313D14
//  #04 //016   ----------------------------------------
 BYTE   PATT
  POIN2 Label_01313CAE
//  #04 //017   ----------------------------------------
 BYTE   PATT
  POIN2 Label_01313CAE
//  #04 //018   ----------------------------------------
 BYTE   PATT
  POIN2 Label_01313CBD
//  #04 //019   ----------------------------------------
 BYTE   PATT
  POIN2 Label_01313CCC
//  #04 //020   ----------------------------------------
 BYTE   PATT
  POIN2 Label_01313CAE
//  #04 //021   ----------------------------------------
 BYTE   PATT
  POIN2 Label_01313CAE
//  #04 //022   ----------------------------------------
 BYTE   PATT
  POIN2 Label_01313CBD
//  #04 //023   ----------------------------------------
 BYTE   PATT
  POIN2 Label_01313CCC
//  #04 //024   ----------------------------------------
 BYTE   PATT
  POIN2 Label_01313CF1
//  #04 //025   ----------------------------------------
 BYTE   PATT
  POIN2 Label_01313CF1
//  #04 //026   ----------------------------------------
 BYTE   PATT
  POIN2 Label_01313D05
//  #04 //027   ----------------------------------------
 BYTE   PATT
  POIN2 Label_01313D14
//  #04 //028   ----------------------------------------
 BYTE   PATT
  POIN2 Label_01313CF1
//  #04 //029   ----------------------------------------
 BYTE   PATT
  POIN2 Label_01313CF1
//  #04 //030   ----------------------------------------
 BYTE   PATT
  POIN2 Label_01313D05
//  #04 //031   ----------------------------------------
 BYTE   PATT
  POIN2 Label_01313D14
//  #04 //032   ----------------------------------------
 BYTE   PATT
  POIN2 Label_01313CAE
//  #04 //033   ----------------------------------------
 BYTE   PATT
  POIN2 Label_01313CAE
//  #04 //034   ----------------------------------------
 BYTE   PATT
  POIN2 Label_01313CBD
//  #04 //035   ----------------------------------------
 BYTE   PATT
  POIN2 Label_01313CCC
//  #04 //036   ----------------------------------------
 BYTE   PATT
  POIN2 Label_01313CAE
//  #04 //037   ----------------------------------------
 BYTE   PATT
  POIN2 Label_01313CAE
//  #04 //038   ----------------------------------------
 BYTE   PATT
  POIN2 Label_01313CBD
//  #04 //039   ----------------------------------------
 BYTE   PATT
  POIN2 Label_01313CCC
//  #04 //040   ----------------------------------------
 BYTE   PATT
  POIN2 Label_01313CF1
//  #04 //041   ----------------------------------------
 BYTE   PATT
  POIN2 Label_01313CF1
//  #04 //042   ----------------------------------------
 BYTE   PATT
  POIN2 Label_01313D05
//  #04 //043   ----------------------------------------
 BYTE   PATT
  POIN2 Label_01313D14
//  #04 //044   ----------------------------------------
 BYTE   PATT
  POIN2 Label_01313CF1
//  #04 //045   ----------------------------------------
 BYTE   PATT
  POIN2 Label_01313CF1
//  #04 //046   ----------------------------------------
 BYTE   PATT
  POIN2 Label_01313D05
//  #04 //047   ----------------------------------------
 BYTE   PATT
  POIN2 Label_01313D14
//  #04 //048   ----------------------------------------
 BYTE   PATT
  POIN2 Label_01313CAE
//  #04 //049   ----------------------------------------
 BYTE   PATT
  POIN2 Label_01313CAE
//  #04 //050   ----------------------------------------
 BYTE   PATT
  POIN2 Label_01313CBD
//  #04 //051   ----------------------------------------
 BYTE   PATT
  POIN2 Label_01313CCC
//  #04 //052   ----------------------------------------
 BYTE   PATT
  POIN2 Label_01313CAE
//  #04 //053   ----------------------------------------
 BYTE   PATT
  POIN2 Label_01313CAE
//  #04 //054   ----------------------------------------
 BYTE   PATT
  POIN2 Label_01313CBD
//  #04 //055   ----------------------------------------
 BYTE   PATT
  POIN2 Label_01313CCC
//  #04 //056   ----------------------------------------
 BYTE   PATT
  POIN2 Label_01313CF1
//  #04 //057   ----------------------------------------
 BYTE   PATT
  POIN2 Label_01313CF1
//  #04 //058   ----------------------------------------
 BYTE   PATT
  POIN2 Label_01313D05
//  #04 //059   ----------------------------------------
 BYTE   PATT
  POIN2 Label_01313D14
//  #04 //060   ----------------------------------------
 BYTE   PATT
  POIN2 Label_01313CF1
//  #04 //061   ----------------------------------------
 BYTE   PATT
  POIN2 Label_01313CF1
//  #04 //062   ----------------------------------------
 BYTE   PATT
  POIN2 Label_01313D05
//  #04 //063   ----------------------------------------
 BYTE   PATT
  POIN2 Label_01313D14
//  #04 //064   ----------------------------------------
 BYTE   GoTo
  POIN2 Label_01313C9A
 BYTE   FINE

//**************** Track 5 (Midi-Chn.4) ****************//

OssaTrail_005:
//  #05 //000   ----------------------------------------
 BYTE   KEYSH   OssaTrail_key+0
Label_01313E32:
 BYTE   VOICE   11
 BYTE   VOL   39*OssaTrail_mvl/mxv
 BYTE   PAN   c_v-19
 BYTE   W96
//  #05 //001   ----------------------------------------
 BYTE   W96
//  #05 //002   ----------------------------------------
Label_01313E3A:
 BYTE   N08  En6  v040
 BYTE   W32
 BYTE   Cn6  v056
 BYTE   W24
 BYTE   Dn6  v040
 BYTE   W24
 BYTE   Bn5  v060
 BYTE   W16
 BYTE   PEND 
//  #05 //003   ----------------------------------------
Label_01313E48:
 BYTE   N08  Cn6  v076
 BYTE   W20
 BYTE   An5  v100
 BYTE   W16
 BYTE   Bn5
 BYTE   W16
 BYTE   Gn5
 BYTE   W16
 BYTE   An5
 BYTE   W16
 BYTE   N04  En5
 BYTE   W12
 BYTE   PEND 
//  #05 //004   ----------------------------------------
 BYTE   W96
//  #05 //005   ----------------------------------------
 BYTE   W96
//  #05 //006   ----------------------------------------
 BYTE   W96
//  #05 //007   ----------------------------------------
 BYTE   W96
//  #05 //008   ----------------------------------------
 BYTE   W96
//  #05 //009   ----------------------------------------
 BYTE   W96
//  #05 //010   ----------------------------------------
Label_01313E5F:
 BYTE   N08  Cs6  v040
 BYTE   W32
 BYTE   An5  v056
 BYTE   W24
 BYTE   Bn5  v040
 BYTE   W24
 BYTE   Gs5  v060
 BYTE   W16
 BYTE   PEND 
//  #05 //011   ----------------------------------------
Label_01313E6D:
 BYTE   N08  An5  v076
 BYTE   W20
 BYTE   Fs5  v100
 BYTE   W16
 BYTE   Gs5
 BYTE   W16
 BYTE   En5
 BYTE   W16
 BYTE   Fs5
 BYTE   W16
 BYTE   N04  Cs5
 BYTE   W12
 BYTE   PEND 
//  #05 //012   ----------------------------------------
 BYTE   W96
//  #05 //013   ----------------------------------------
 BYTE   W96
//  #05 //014   ----------------------------------------
 BYTE   W96
//  #05 //015   ----------------------------------------
 BYTE   W96
//  #05 //016   ----------------------------------------
 BYTE   W96
//  #05 //017   ----------------------------------------
 BYTE   W96
//  #05 //018   ----------------------------------------
 BYTE   PATT
  POIN2 Label_01313E3A
//  #05 //019   ----------------------------------------
 BYTE   PATT
  POIN2 Label_01313E48
//  #05 //020   ----------------------------------------
 BYTE   W96
//  #05 //021   ----------------------------------------
 BYTE   W96
//  #05 //022   ----------------------------------------
 BYTE   W96
//  #05 //023   ----------------------------------------
 BYTE   W96
//  #05 //024   ----------------------------------------
 BYTE   W96
//  #05 //025   ----------------------------------------
 BYTE   W96
//  #05 //026   ----------------------------------------
 BYTE   PATT
  POIN2 Label_01313E5F
//  #05 //027   ----------------------------------------
Label_01313E99:
 BYTE   N08  An5  v076
 BYTE   W20
 BYTE   Fs5  v100
 BYTE   W16
 BYTE   Gs5
 BYTE   W16
 BYTE   En5
 BYTE   W16
 BYTE   Fs5
 BYTE   W16
 BYTE   N04  Cs5
 BYTE   W04
 BYTE   W08
 BYTE   PEND 
//  #05 //028   ----------------------------------------
 BYTE   W96
//  #05 //029   ----------------------------------------
 BYTE   W96
//  #05 //030   ----------------------------------------
 BYTE   W96
//  #05 //031   ----------------------------------------
 BYTE   W96
//  #05 //032   ----------------------------------------
 BYTE   W96
//  #05 //033   ----------------------------------------
 BYTE   W96
//  #05 //034   ----------------------------------------
 BYTE   PATT
  POIN2 Label_01313E3A
//  #05 //035   ----------------------------------------
 BYTE   PATT
  POIN2 Label_01313E48
//  #05 //036   ----------------------------------------
 BYTE   W96
//  #05 //037   ----------------------------------------
 BYTE   W96
//  #05 //038   ----------------------------------------
 BYTE   W96
//  #05 //039   ----------------------------------------
 BYTE   W96
//  #05 //040   ----------------------------------------
 BYTE   W96
//  #05 //041   ----------------------------------------
 BYTE   W96
//  #05 //042   ----------------------------------------
 BYTE   PATT
  POIN2 Label_01313E5F
//  #05 //043   ----------------------------------------
 BYTE   PATT
  POIN2 Label_01313E6D
//  #05 //044   ----------------------------------------
 BYTE   W96
//  #05 //045   ----------------------------------------
 BYTE   W96
//  #05 //046   ----------------------------------------
 BYTE   W96
//  #05 //047   ----------------------------------------
 BYTE   W96
//  #05 //048   ----------------------------------------
 BYTE   W96
//  #05 //049   ----------------------------------------
 BYTE   W96
//  #05 //050   ----------------------------------------
 BYTE   PATT
  POIN2 Label_01313E3A
//  #05 //051   ----------------------------------------
 BYTE   PATT
  POIN2 Label_01313E48
//  #05 //052   ----------------------------------------
 BYTE   W96
//  #05 //053   ----------------------------------------
 BYTE   W96
//  #05 //054   ----------------------------------------
 BYTE   W96
//  #05 //055   ----------------------------------------
 BYTE   W96
//  #05 //056   ----------------------------------------
 BYTE   W96
//  #05 //057   ----------------------------------------
 BYTE   W96
//  #05 //058   ----------------------------------------
 BYTE   PATT
  POIN2 Label_01313E5F
//  #05 //059   ----------------------------------------
 BYTE   PATT
  POIN2 Label_01313E99
//  #05 //060   ----------------------------------------
 BYTE   W96
//  #05 //061   ----------------------------------------
 BYTE   W96
//  #05 //062   ----------------------------------------
 BYTE   W96
//  #05 //063   ----------------------------------------
 BYTE   W96
//  #05 //064   ----------------------------------------
 BYTE   GoTo
  POIN2 Label_01313E32
 BYTE   FINE

//**************** Track 6 (Midi-Chn.5) ****************//

OssaTrail_006:
//  #06 //000   ----------------------------------------
 BYTE   KEYSH   OssaTrail_key+0
Label_01313EFA:
 BYTE   VOICE   11
 BYTE   VOL   41*OssaTrail_mvl/mxv
 BYTE   PAN   c_v+22
 BYTE   W96
//  #06 //001   ----------------------------------------
 BYTE   W96
//  #06 //002   ----------------------------------------
Label_01313F02:
 BYTE   N08  En6  v040
 BYTE   W32
 BYTE   Cn6  v056
 BYTE   W24
 BYTE   Dn6  v040
 BYTE   W24
 BYTE   Bn5  v060
 BYTE   W16
 BYTE   PEND 
//  #06 //003   ----------------------------------------
Label_01313F10:
 BYTE   N08  Cn6  v076
 BYTE   W20
 BYTE   An5  v100
 BYTE   W16
 BYTE   Bn5
 BYTE   W16
 BYTE   Gn5
 BYTE   W16
 BYTE   An5
 BYTE   W16
 BYTE   N04  En5
 BYTE   W12
 BYTE   PEND 
//  #06 //004   ----------------------------------------
 BYTE   W96
//  #06 //005   ----------------------------------------
 BYTE   W96
//  #06 //006   ----------------------------------------
 BYTE   W96
//  #06 //007   ----------------------------------------
 BYTE   W96
//  #06 //008   ----------------------------------------
 BYTE   W96
//  #06 //009   ----------------------------------------
 BYTE   W96
//  #06 //010   ----------------------------------------
Label_01313F27:
 BYTE   N08  Cs6  v040
 BYTE   W32
 BYTE   An5  v056
 BYTE   W24
 BYTE   Bn5  v040
 BYTE   W24
 BYTE   Gs5  v060
 BYTE   W16
 BYTE   PEND 
//  #06 //011   ----------------------------------------
Label_01313F35:
 BYTE   N08  An5  v076
 BYTE   W20
 BYTE   Fs5  v100
 BYTE   W16
 BYTE   Gs5
 BYTE   W16
 BYTE   En5
 BYTE   W16
 BYTE   Fs5
 BYTE   W16
 BYTE   N04  Cs5
 BYTE   W12
 BYTE   PEND 
//  #06 //012   ----------------------------------------
 BYTE   W96
//  #06 //013   ----------------------------------------
 BYTE   W96
//  #06 //014   ----------------------------------------
 BYTE   W96
//  #06 //015   ----------------------------------------
 BYTE   W96
//  #06 //016   ----------------------------------------
 BYTE   W96
//  #06 //017   ----------------------------------------
 BYTE   W96
//  #06 //018   ----------------------------------------
 BYTE   PATT
  POIN2 Label_01313F02
//  #06 //019   ----------------------------------------
 BYTE   PATT
  POIN2 Label_01313F10
//  #06 //020   ----------------------------------------
 BYTE   W96
//  #06 //021   ----------------------------------------
 BYTE   W96
//  #06 //022   ----------------------------------------
 BYTE   W96
//  #06 //023   ----------------------------------------
 BYTE   W96
//  #06 //024   ----------------------------------------
 BYTE   W96
//  #06 //025   ----------------------------------------
 BYTE   W96
//  #06 //026   ----------------------------------------
 BYTE   PATT
  POIN2 Label_01313F27
//  #06 //027   ----------------------------------------
Label_01313F61:
 BYTE   N08  An5  v076
 BYTE   W20
 BYTE   Fs5  v100
 BYTE   W16
 BYTE   Gs5
 BYTE   W16
 BYTE   En5
 BYTE   W16
 BYTE   Fs5
 BYTE   W16
 BYTE   N04  Cs5
 BYTE   W04
 BYTE   W08
 BYTE   PEND 
//  #06 //028   ----------------------------------------
 BYTE   W96
//  #06 //029   ----------------------------------------
 BYTE   W96
//  #06 //030   ----------------------------------------
 BYTE   W96
//  #06 //031   ----------------------------------------
 BYTE   W96
//  #06 //032   ----------------------------------------
 BYTE   W96
//  #06 //033   ----------------------------------------
 BYTE   W96
//  #06 //034   ----------------------------------------
 BYTE   PATT
  POIN2 Label_01313F02
//  #06 //035   ----------------------------------------
 BYTE   PATT
  POIN2 Label_01313F10
//  #06 //036   ----------------------------------------
 BYTE   W96
//  #06 //037   ----------------------------------------
 BYTE   W96
//  #06 //038   ----------------------------------------
 BYTE   W96
//  #06 //039   ----------------------------------------
 BYTE   W96
//  #06 //040   ----------------------------------------
 BYTE   W96
//  #06 //041   ----------------------------------------
 BYTE   W96
//  #06 //042   ----------------------------------------
 BYTE   PATT
  POIN2 Label_01313F27
//  #06 //043   ----------------------------------------
 BYTE   PATT
  POIN2 Label_01313F35
//  #06 //044   ----------------------------------------
 BYTE   W96
//  #06 //045   ----------------------------------------
 BYTE   W96
//  #06 //046   ----------------------------------------
 BYTE   W96
//  #06 //047   ----------------------------------------
 BYTE   W96
//  #06 //048   ----------------------------------------
 BYTE   W96
//  #06 //049   ----------------------------------------
 BYTE   W96
//  #06 //050   ----------------------------------------
 BYTE   PATT
  POIN2 Label_01313F02
//  #06 //051   ----------------------------------------
 BYTE   PATT
  POIN2 Label_01313F10
//  #06 //052   ----------------------------------------
 BYTE   W96
//  #06 //053   ----------------------------------------
 BYTE   W96
//  #06 //054   ----------------------------------------
 BYTE   W96
//  #06 //055   ----------------------------------------
 BYTE   W96
//  #06 //056   ----------------------------------------
 BYTE   W96
//  #06 //057   ----------------------------------------
 BYTE   W96
//  #06 //058   ----------------------------------------
 BYTE   PATT
  POIN2 Label_01313F27
//  #06 //059   ----------------------------------------
 BYTE   PATT
  POIN2 Label_01313F61
//  #06 //060   ----------------------------------------
 BYTE   W96
//  #06 //061   ----------------------------------------
 BYTE   W96
//  #06 //062   ----------------------------------------
 BYTE   W96
//  #06 //063   ----------------------------------------
 BYTE   W96
//  #06 //064   ----------------------------------------
 BYTE   GoTo
  POIN2 Label_01313EFA
 BYTE   FINE

//**************** Track 7 (Midi-Chn.6) ****************//

OssaTrail_007:
//  #07 //000   ----------------------------------------
 BYTE   KEYSH   OssaTrail_key+0
Label_01313FC2:
 BYTE   VOICE   11
 BYTE   PAN   c_v+8
 BYTE   VOL   48*OssaTrail_mvl/mxv
 BYTE   W96
//  #07 //001   ----------------------------------------
 BYTE   W96
//  #07 //002   ----------------------------------------
Label_01313FCA:
 BYTE   N08  En6  v040
 BYTE   W32
 BYTE   Cn6  v056
 BYTE   W24
 BYTE   Dn6  v040
 BYTE   W24
 BYTE   Bn5  v060
 BYTE   W16
 BYTE   PEND 
//  #07 //003   ----------------------------------------
Label_01313FD8:
 BYTE   N08  Cn6  v076
 BYTE   W20
 BYTE   An5  v100
 BYTE   W16
 BYTE   Bn5
 BYTE   W16
 BYTE   Gn5
 BYTE   W16
 BYTE   An5
 BYTE   W16
 BYTE   N04  En5
 BYTE   W12
 BYTE   PEND 
//  #07 //004   ----------------------------------------
 BYTE   W96
//  #07 //005   ----------------------------------------
 BYTE   W96
//  #07 //006   ----------------------------------------
 BYTE   W96
//  #07 //007   ----------------------------------------
 BYTE   W96
//  #07 //008   ----------------------------------------
 BYTE   W96
//  #07 //009   ----------------------------------------
 BYTE   W96
//  #07 //010   ----------------------------------------
Label_01313FEF:
 BYTE   N08  Cs6  v040
 BYTE   W32
 BYTE   An5  v056
 BYTE   W24
 BYTE   Bn5  v040
 BYTE   W24
 BYTE   Gs5  v060
 BYTE   W16
 BYTE   PEND 
//  #07 //011   ----------------------------------------
Label_01313FFD:
 BYTE   N08  An5  v076
 BYTE   W20
 BYTE   Fs5  v100
 BYTE   W16
 BYTE   Gs5
 BYTE   W16
 BYTE   En5
 BYTE   W16
 BYTE   Fs5
 BYTE   W16
 BYTE   N04  Cs5
 BYTE   W12
 BYTE   PEND 
//  #07 //012   ----------------------------------------
 BYTE   W96
//  #07 //013   ----------------------------------------
 BYTE   W96
//  #07 //014   ----------------------------------------
 BYTE   W96
//  #07 //015   ----------------------------------------
 BYTE   W96
//  #07 //016   ----------------------------------------
 BYTE   W96
//  #07 //017   ----------------------------------------
 BYTE   W96
//  #07 //018   ----------------------------------------
 BYTE   PATT
  POIN2 Label_01313FCA
//  #07 //019   ----------------------------------------
 BYTE   PATT
  POIN2 Label_01313FD8
//  #07 //020   ----------------------------------------
 BYTE   W96
//  #07 //021   ----------------------------------------
 BYTE   W96
//  #07 //022   ----------------------------------------
 BYTE   W96
//  #07 //023   ----------------------------------------
 BYTE   W96
//  #07 //024   ----------------------------------------
 BYTE   W96
//  #07 //025   ----------------------------------------
 BYTE   W96
//  #07 //026   ----------------------------------------
 BYTE   PATT
  POIN2 Label_01313FEF
//  #07 //027   ----------------------------------------
Label_01314029:
 BYTE   N08  An5  v076
 BYTE   W20
 BYTE   Fs5  v100
 BYTE   W16
 BYTE   Gs5
 BYTE   W16
 BYTE   En5
 BYTE   W16
 BYTE   Fs5
 BYTE   W16
 BYTE   N04  Cs5
 BYTE   W04
 BYTE   W08
 BYTE   PEND 
//  #07 //028   ----------------------------------------
 BYTE   W96
//  #07 //029   ----------------------------------------
 BYTE   W96
//  #07 //030   ----------------------------------------
 BYTE   W96
//  #07 //031   ----------------------------------------
 BYTE   W96
//  #07 //032   ----------------------------------------
 BYTE   W96
//  #07 //033   ----------------------------------------
 BYTE   W96
//  #07 //034   ----------------------------------------
 BYTE   PATT
  POIN2 Label_01313FCA
//  #07 //035   ----------------------------------------
 BYTE   PATT
  POIN2 Label_01313FD8
//  #07 //036   ----------------------------------------
 BYTE   W96
//  #07 //037   ----------------------------------------
 BYTE   W96
//  #07 //038   ----------------------------------------
 BYTE   W96
//  #07 //039   ----------------------------------------
 BYTE   W96
//  #07 //040   ----------------------------------------
 BYTE   W96
//  #07 //041   ----------------------------------------
 BYTE   W96
//  #07 //042   ----------------------------------------
 BYTE   PATT
  POIN2 Label_01313FEF
//  #07 //043   ----------------------------------------
 BYTE   PATT
  POIN2 Label_01313FFD
//  #07 //044   ----------------------------------------
 BYTE   W96
//  #07 //045   ----------------------------------------
 BYTE   W96
//  #07 //046   ----------------------------------------
 BYTE   W96
//  #07 //047   ----------------------------------------
 BYTE   W96
//  #07 //048   ----------------------------------------
 BYTE   W96
//  #07 //049   ----------------------------------------
 BYTE   W96
//  #07 //050   ----------------------------------------
 BYTE   PATT
  POIN2 Label_01313FCA
//  #07 //051   ----------------------------------------
 BYTE   PATT
  POIN2 Label_01313FD8
//  #07 //052   ----------------------------------------
 BYTE   W96
//  #07 //053   ----------------------------------------
 BYTE   W96
//  #07 //054   ----------------------------------------
 BYTE   W96
//  #07 //055   ----------------------------------------
 BYTE   W96
//  #07 //056   ----------------------------------------
 BYTE   W96
//  #07 //057   ----------------------------------------
 BYTE   W96
//  #07 //058   ----------------------------------------
 BYTE   PATT
  POIN2 Label_01313FEF
//  #07 //059   ----------------------------------------
 BYTE   PATT
  POIN2 Label_01314029
//  #07 //060   ----------------------------------------
 BYTE   W96
//  #07 //061   ----------------------------------------
 BYTE   W96
//  #07 //062   ----------------------------------------
 BYTE   W96
//  #07 //063   ----------------------------------------
 BYTE   W96
//  #07 //064   ----------------------------------------
 BYTE   GoTo
  POIN2 Label_01313FC2
 BYTE   FINE

//**************** Track 8 (Midi-Chn.7) ****************//

OssaTrail_008:
//  #08 //000   ----------------------------------------
 BYTE   KEYSH   OssaTrail_key+0
Label_0131408A:
 BYTE   VOICE   73
 BYTE   VOL   53*OssaTrail_mvl/mxv
 BYTE   PAN   c_v-21
 BYTE   W96
//  #08 //001   ----------------------------------------
 BYTE   W96
//  #08 //002   ----------------------------------------
 BYTE   W96
//  #08 //003   ----------------------------------------
 BYTE   W96
//  #08 //004   ----------------------------------------
 BYTE   W96
//  #08 //005   ----------------------------------------
 BYTE   W96
//  #08 //006   ----------------------------------------
 BYTE   W96
//  #08 //007   ----------------------------------------
 BYTE   W96
//  #08 //008   ----------------------------------------
 BYTE   W96
//  #08 //009   ----------------------------------------
 BYTE   W96
//  #08 //010   ----------------------------------------
 BYTE   W96
//  #08 //011   ----------------------------------------
 BYTE   W96
//  #08 //012   ----------------------------------------
 BYTE   W96
//  #08 //013   ----------------------------------------
 BYTE   W96
//  #08 //014   ----------------------------------------
 BYTE   W96
//  #08 //015   ----------------------------------------
 BYTE   W96
//  #08 //016   ----------------------------------------
Label_013140A0:
 BYTE   N60  En5  v100
 BYTE   W64
 BYTE   N16  Cn5
 BYTE   W16
 BYTE   Dn5
 BYTE   W16
 BYTE   PEND 
//  #08 //017   ----------------------------------------
Label_013140AA:
 BYTE   N16  Bn4  v100
 BYTE   W16
 BYTE   Cn5
 BYTE   W16
 BYTE   An4
 BYTE   W16
 BYTE   Bn4
 BYTE   W16
 BYTE   Gn4
 BYTE   W16
 BYTE   An4
 BYTE   W16
 BYTE   PEND 
//  #08 //018   ----------------------------------------
 BYTE   TIE  En4
 BYTE   W96
//  #08 //019   ----------------------------------------
 BYTE   W96
//  #08 //020   ----------------------------------------
 BYTE   W96
//  #08 //021   ----------------------------------------
 BYTE   N96  Cn4
 BYTE   W96
//  #08 //022   ----------------------------------------
 BYTE   EOT
 BYTE   En4
Label_013140C3:
 BYTE   N64  Cn4  v100
 BYTE   W64
 BYTE   N16  Bn3
 BYTE   W16
 BYTE   Cn4
 BYTE   W16
 BYTE   PEND 
//  #08 //023   ----------------------------------------
Label_013140CD:
 BYTE   N64  Dn4  v100
 BYTE   W64
 BYTE   N16
 BYTE   W16
 BYTE   En4
 BYTE   W16
 BYTE   PEND 
//  #08 //024   ----------------------------------------
 BYTE   N96  Fs4
 BYTE   W96
//  #08 //025   ----------------------------------------
Label_013140D9:
 BYTE   N64  Cs4  v100
 BYTE   W64
 BYTE   N16  Bn3
 BYTE   W16
 BYTE   An3
 BYTE   W16
 BYTE   PEND 
//  #08 //026   ----------------------------------------
 BYTE   TIE  Bn3
 BYTE   W96
//  #08 //027   ----------------------------------------
 BYTE   W48
 BYTE   EOT
 BYTE   N48  En4
 BYTE   W48
//  #08 //028   ----------------------------------------
 BYTE   TIE  Fs4
 BYTE   W96
//  #08 //029   ----------------------------------------
 BYTE   W64
 BYTE   EOT
 BYTE   N16  Gs4
 BYTE   W16
 BYTE   An4
 BYTE   W16
//  #08 //030   ----------------------------------------
 BYTE   N96  Fs4
 BYTE   W96
//  #08 //031   ----------------------------------------
 BYTE   En4
 BYTE   W96
//  #08 //032   ----------------------------------------
 BYTE   W96
//  #08 //033   ----------------------------------------
 BYTE   W96
//  #08 //034   ----------------------------------------
 BYTE   W96
//  #08 //035   ----------------------------------------
 BYTE   W96
//  #08 //036   ----------------------------------------
 BYTE   W96
//  #08 //037   ----------------------------------------
 BYTE   W96
//  #08 //038   ----------------------------------------
 BYTE   W96
//  #08 //039   ----------------------------------------
 BYTE   W96
//  #08 //040   ----------------------------------------
 BYTE   W96
//  #08 //041   ----------------------------------------
 BYTE   W96
//  #08 //042   ----------------------------------------
 BYTE   W96
//  #08 //043   ----------------------------------------
 BYTE   W96
//  #08 //044   ----------------------------------------
 BYTE   W96
//  #08 //045   ----------------------------------------
 BYTE   W96
//  #08 //046   ----------------------------------------
 BYTE   W96
//  #08 //047   ----------------------------------------
 BYTE   W96
//  #08 //048   ----------------------------------------
 BYTE   PATT
  POIN2 Label_013140A0
//  #08 //049   ----------------------------------------
 BYTE   PATT
  POIN2 Label_013140AA
//  #08 //050   ----------------------------------------
 BYTE   TIE  En4  v100
 BYTE   W96
//  #08 //051   ----------------------------------------
 BYTE   W96
//  #08 //052   ----------------------------------------
 BYTE   W96
//  #08 //053   ----------------------------------------
 BYTE   N96  Cn4
 BYTE   W96
//  #08 //054   ----------------------------------------
 BYTE   EOT
 BYTE   En4
//  #08 //055   ----------------------------------------
 BYTE   PATT
  POIN2 Label_013140C3
//  #08 //056   ----------------------------------------
 BYTE   PATT
  POIN2 Label_013140CD
//  #08 //057   ----------------------------------------
 BYTE   N96  Fs4  v100
 BYTE   W96
//  #08 //058   ----------------------------------------
 BYTE   PATT
  POIN2 Label_013140D9
//  #08 //059   ----------------------------------------
 BYTE   TIE  Bn3  v100
 BYTE   W96
//  #08 //060   ----------------------------------------
 BYTE   W48
 BYTE   EOT
 BYTE   N48  En4
 BYTE   W48
//  #08 //061   ----------------------------------------
 BYTE   TIE  Fs4
 BYTE   W96
//  #08 //062   ----------------------------------------
 BYTE   W64
 BYTE   EOT
 BYTE   N16  Gs4
 BYTE   W16
 BYTE   An4
 BYTE   W16
//  #08 //063   ----------------------------------------
 BYTE   N96  Fs4
 BYTE   W96
//  #08 //064   ----------------------------------------
 BYTE   En4
 BYTE   W96
//  #08 //065   ----------------------------------------
 BYTE   GoTo
  POIN2 Label_0131408A
 BYTE   FINE

//**************** Track 9 (Midi-Chn.8) ****************//

OssaTrail_009:
//  #09 //000   ----------------------------------------
 BYTE   KEYSH   OssaTrail_key+0
Label_01314152:
 BYTE   VOICE   77
 BYTE   VOL   36*OssaTrail_mvl/mxv
 BYTE   PAN   c_v+22
 BYTE   W96
//  #09 //001   ----------------------------------------
 BYTE   W96
//  #09 //002   ----------------------------------------
 BYTE   W96
//  #09 //003   ----------------------------------------
 BYTE   W96
//  #09 //004   ----------------------------------------
 BYTE   W96
//  #09 //005   ----------------------------------------
 BYTE   W96
//  #09 //006   ----------------------------------------
 BYTE   W96
//  #09 //007   ----------------------------------------
 BYTE   W96
//  #09 //008   ----------------------------------------
 BYTE   W96
//  #09 //009   ----------------------------------------
 BYTE   W96
//  #09 //010   ----------------------------------------
 BYTE   W96
//  #09 //011   ----------------------------------------
 BYTE   W96
//  #09 //012   ----------------------------------------
 BYTE   W96
//  #09 //013   ----------------------------------------
 BYTE   W96
//  #09 //014   ----------------------------------------
 BYTE   W96
//  #09 //015   ----------------------------------------
 BYTE   W96
//  #09 //016   ----------------------------------------
Label_01314168:
 BYTE   N60  En5  v100
 BYTE   W64
 BYTE   N16  Cn5
 BYTE   W16
 BYTE   Dn5
 BYTE   W16
 BYTE   PEND 
//  #09 //017   ----------------------------------------
Label_01314172:
 BYTE   N16  Bn4  v100
 BYTE   W16
 BYTE   Cn5
 BYTE   W16
 BYTE   An4
 BYTE   W16
 BYTE   Bn4
 BYTE   W16
 BYTE   Gn4
 BYTE   W16
 BYTE   An4
 BYTE   W16
 BYTE   PEND 
//  #09 //018   ----------------------------------------
 BYTE   TIE  En4
 BYTE   W96
//  #09 //019   ----------------------------------------
 BYTE   W96
//  #09 //020   ----------------------------------------
 BYTE   W96
//  #09 //021   ----------------------------------------
 BYTE   N96  Cn4
 BYTE   W96
//  #09 //022   ----------------------------------------
 BYTE   EOT
 BYTE   En4
Label_0131418B:
 BYTE   N64  Cn4  v100
 BYTE   W64
 BYTE   N16  Bn3
 BYTE   W16
 BYTE   Cn4
 BYTE   W16
 BYTE   PEND 
//  #09 //023   ----------------------------------------
Label_01314195:
 BYTE   N64  Dn4  v100
 BYTE   W64
 BYTE   N16
 BYTE   W16
 BYTE   En4
 BYTE   W16
 BYTE   PEND 
//  #09 //024   ----------------------------------------
 BYTE   N96  Fs4
 BYTE   W96
//  #09 //025   ----------------------------------------
Label_013141A1:
 BYTE   N64  Cs4  v100
 BYTE   W64
 BYTE   N16  Bn3
 BYTE   W16
 BYTE   An3
 BYTE   W16
 BYTE   PEND 
//  #09 //026   ----------------------------------------
 BYTE   TIE  Bn3
 BYTE   W96
//  #09 //027   ----------------------------------------
 BYTE   W48
 BYTE   EOT
 BYTE   N48  En4
 BYTE   W48
//  #09 //028   ----------------------------------------
 BYTE   TIE  Fs4
 BYTE   W96
//  #09 //029   ----------------------------------------
 BYTE   W64
 BYTE   EOT
 BYTE   N16  Gs4
 BYTE   W16
 BYTE   An4
 BYTE   W16
//  #09 //030   ----------------------------------------
 BYTE   N96  Fs4
 BYTE   W96
//  #09 //031   ----------------------------------------
 BYTE   En4
 BYTE   W96
//  #09 //032   ----------------------------------------
 BYTE   W96
//  #09 //033   ----------------------------------------
 BYTE   W96
//  #09 //034   ----------------------------------------
 BYTE   W96
//  #09 //035   ----------------------------------------
 BYTE   W96
//  #09 //036   ----------------------------------------
 BYTE   W96
//  #09 //037   ----------------------------------------
 BYTE   W96
//  #09 //038   ----------------------------------------
 BYTE   W96
//  #09 //039   ----------------------------------------
 BYTE   W96
//  #09 //040   ----------------------------------------
 BYTE   W96
//  #09 //041   ----------------------------------------
 BYTE   W96
//  #09 //042   ----------------------------------------
 BYTE   W96
//  #09 //043   ----------------------------------------
 BYTE   W96
//  #09 //044   ----------------------------------------
 BYTE   W96
//  #09 //045   ----------------------------------------
 BYTE   W96
//  #09 //046   ----------------------------------------
 BYTE   W96
//  #09 //047   ----------------------------------------
 BYTE   W96
//  #09 //048   ----------------------------------------
 BYTE   PATT
  POIN2 Label_01314168
//  #09 //049   ----------------------------------------
 BYTE   PATT
  POIN2 Label_01314172
//  #09 //050   ----------------------------------------
 BYTE   TIE  En4  v100
 BYTE   W96
//  #09 //051   ----------------------------------------
 BYTE   W96
//  #09 //052   ----------------------------------------
 BYTE   W96
//  #09 //053   ----------------------------------------
 BYTE   N96  Cn4
 BYTE   W96
//  #09 //054   ----------------------------------------
 BYTE   EOT
 BYTE   En4
//  #09 //055   ----------------------------------------
 BYTE   PATT
  POIN2 Label_0131418B
//  #09 //056   ----------------------------------------
 BYTE   PATT
  POIN2 Label_01314195
//  #09 //057   ----------------------------------------
 BYTE   N96  Fs4  v100
 BYTE   W96
//  #09 //058   ----------------------------------------
 BYTE   PATT
  POIN2 Label_013141A1
//  #09 //059   ----------------------------------------
 BYTE   TIE  Bn3  v100
 BYTE   W96
//  #09 //060   ----------------------------------------
 BYTE   W48
 BYTE   EOT
 BYTE   N48  En4
 BYTE   W48
//  #09 //061   ----------------------------------------
 BYTE   TIE  Fs4
 BYTE   W96
//  #09 //062   ----------------------------------------
 BYTE   W64
 BYTE   EOT
 BYTE   N16  Gs4
 BYTE   W16
 BYTE   An4
 BYTE   W16
//  #09 //063   ----------------------------------------
 BYTE   N96  Fs4
 BYTE   W96
//  #09 //064   ----------------------------------------
 BYTE   En4
 BYTE   W96
//  #09 //065   ----------------------------------------
 BYTE   GoTo
  POIN2 Label_01314152
 BYTE   FINE

//******************************************************//
	ALIGN 4

OssaTrail:
	BYTE	9	// NumTrks
	BYTE	0	// NumBlks
	BYTE	OssaTrail_pri	// Priority
	BYTE	OssaTrail_rev	// Reverb.
    
	POIN2	OssaTrail_grp
    
	POIN2	OssaTrail_001
	POIN2	OssaTrail_002
	POIN2	OssaTrail_003
	POIN2	OssaTrail_004
	POIN2	OssaTrail_005
	POIN2	OssaTrail_006
	POIN2	OssaTrail_007
	POIN2	OssaTrail_008
	POIN2	OssaTrail_009

	
