	.include "MPlayDef.s"

	.equ	OssaTrail_grp, voicegroup000
	.equ	OssaTrail_pri, 0
	.equ	OssaTrail_rev, 0
	.equ	OssaTrail_mvl, 127
	.equ	OssaTrail_key, 0
	.equ	OssaTrail_tbs, 1
	.equ	OssaTrail_exg, 0
	.equ	OssaTrail_cmp, 1

	.section .rodata
	.global	OssaTrail
	.align	2


@**************** Track 1 (Midi-Chn.0) ****************@

OssaTrail_001:
@  #01 @000   ----------------------------------------
 .byte   KEYSH , OssaTrail_key+0
Label_0131383E:
 .byte   TEMPO , 134*OssaTrail_tbs/2
 .byte   VOICE , 52
 .byte   VOL , 12*OssaTrail_mvl/mxv
 .byte   PAN , c_v+15
 .byte   TIE ,An3 ,v100
 .byte   TIE ,Cn4
 .byte   TIE ,En4
 .byte   TIE ,An4
 .byte   W96
@  #01 @001   ----------------------------------------
 .byte   W96
@  #01 @002   ----------------------------------------
 .byte   W96
@  #01 @003   ----------------------------------------
 .byte   EOT
 .byte   An3 ,v072
 .byte   En4 ,v081
Label_01313857:
 .byte   N96 ,Gn3 ,v100
 .byte   N96 ,Bn3
 .byte   N96 ,Dn4
 .byte   N96 ,Gn4
 .byte   W96
 .byte   PEND 
@  #01 @004   ----------------------------------------
Label_01313862:
 .byte   TIE ,An3 ,v100
 .byte   TIE ,Cn4
 .byte   TIE ,En4
 .byte   TIE ,An4 ,v080
 .byte   W96
 .byte   PEND 
@  #01 @005   ----------------------------------------
 .byte   W96
@  #01 @006   ----------------------------------------
 .byte   W96
@  #01 @007   ----------------------------------------
 .byte   EOT
 .byte   An3 ,v072
 .byte   En4 ,v081
Label_01313875:
 .byte   N96 ,Gn3 ,v100
 .byte   N96 ,Bn3
 .byte   N96 ,Dn4
 .byte   N96 ,Gn4 ,v080
 .byte   W96
 .byte   PEND 
@  #01 @008   ----------------------------------------
Label_01313881:
 .byte   TIE ,Fs3 ,v100
 .byte   TIE ,An3
 .byte   TIE ,Cs4
 .byte   TIE ,Fs4
 .byte   W96
 .byte   PEND 
@  #01 @009   ----------------------------------------
 .byte   W96
@  #01 @010   ----------------------------------------
 .byte   W96
@  #01 @011   ----------------------------------------
 .byte   EOT
 .byte   Fs3 ,v069
 .byte   Cs4 ,v078
Label_01313893:
 .byte   N96 ,En3 ,v100
 .byte   N96 ,Gs3
 .byte   N96 ,Bn3
 .byte   N96 ,En4
 .byte   W96
 .byte   PEND 
@  #01 @012   ----------------------------------------
Label_0131389E:
 .byte   TIE ,Fs3 ,v100
 .byte   TIE ,An3
 .byte   TIE ,Bn3
 .byte   TIE ,Cs4
 .byte   TIE ,Fs4 ,v080
 .byte   W96
 .byte   PEND 
@  #01 @013   ----------------------------------------
 .byte   W96
@  #01 @014   ----------------------------------------
 .byte   W96
@  #01 @015   ----------------------------------------
 .byte   EOT
 .byte   Fs3 ,v069
 .byte   Bn3 ,v073
 .byte   Fs4
Label_013138B4:
 .byte   N96 ,En3 ,v100
 .byte   N96 ,Gs3
 .byte   N96 ,Bn3
 .byte   N96 ,Cs4
 .byte   N96 ,En4 ,v080
 .byte   W96
 .byte   PEND 
@  #01 @016   ----------------------------------------
Label_013138C2:
 .byte   TIE ,An3 ,v100
 .byte   TIE ,Cn4
 .byte   TIE ,En4
 .byte   TIE ,An4
 .byte   W96
 .byte   PEND 
@  #01 @017   ----------------------------------------
 .byte   W96
@  #01 @018   ----------------------------------------
 .byte   W96
@  #01 @019   ----------------------------------------
 .byte   EOT
 .byte   An3 ,v072
 .byte   En4 ,v081
@  #01 @020   ----------------------------------------
 .byte   PATT
  .word Label_01313857
@  #01 @021   ----------------------------------------
 .byte   PATT
  .word Label_01313862
@  #01 @022   ----------------------------------------
 .byte   W96
@  #01 @023   ----------------------------------------
 .byte   W96
@  #01 @024   ----------------------------------------
 .byte   EOT
 .byte   An3 ,v072
 .byte   En4 ,v081
@  #01 @025   ----------------------------------------
 .byte   PATT
  .word Label_01313875
@  #01 @026   ----------------------------------------
 .byte   PATT
  .word Label_01313881
@  #01 @027   ----------------------------------------
 .byte   W96
@  #01 @028   ----------------------------------------
 .byte   W96
@  #01 @029   ----------------------------------------
 .byte   EOT
 .byte   Fs3 ,v069
 .byte   Cs4 ,v078
@  #01 @030   ----------------------------------------
 .byte   PATT
  .word Label_01313893
@  #01 @031   ----------------------------------------
 .byte   PATT
  .word Label_0131389E
@  #01 @032   ----------------------------------------
 .byte   W96
@  #01 @033   ----------------------------------------
 .byte   W96
@  #01 @034   ----------------------------------------
 .byte   EOT
 .byte   Fs3 ,v069
 .byte   Bn3 ,v073
 .byte   Fs4
@  #01 @035   ----------------------------------------
 .byte   PATT
  .word Label_013138B4
@  #01 @036   ----------------------------------------
 .byte   PATT
  .word Label_013138C2
@  #01 @037   ----------------------------------------
 .byte   W96
@  #01 @038   ----------------------------------------
 .byte   W96
@  #01 @039   ----------------------------------------
 .byte   EOT
 .byte   An3 ,v072
 .byte   En4 ,v081
@  #01 @040   ----------------------------------------
 .byte   PATT
  .word Label_01313857
@  #01 @041   ----------------------------------------
 .byte   PATT
  .word Label_01313862
@  #01 @042   ----------------------------------------
 .byte   W96
@  #01 @043   ----------------------------------------
 .byte   W96
@  #01 @044   ----------------------------------------
 .byte   EOT
 .byte   An3 ,v072
 .byte   En4 ,v081
@  #01 @045   ----------------------------------------
 .byte   PATT
  .word Label_01313875
@  #01 @046   ----------------------------------------
 .byte   PATT
  .word Label_01313881
@  #01 @047   ----------------------------------------
 .byte   W96
@  #01 @048   ----------------------------------------
 .byte   W96
@  #01 @049   ----------------------------------------
 .byte   EOT
 .byte   Fs3 ,v069
 .byte   Cs4 ,v078
@  #01 @050   ----------------------------------------
 .byte   PATT
  .word Label_01313893
@  #01 @051   ----------------------------------------
 .byte   PATT
  .word Label_0131389E
@  #01 @052   ----------------------------------------
 .byte   W96
@  #01 @053   ----------------------------------------
 .byte   W96
@  #01 @054   ----------------------------------------
 .byte   EOT
 .byte   Fs3 ,v069
 .byte   Bn3 ,v073
 .byte   Fs4
@  #01 @055   ----------------------------------------
 .byte   PATT
  .word Label_013138B4
@  #01 @056   ----------------------------------------
 .byte   PATT
  .word Label_013138C2
@  #01 @057   ----------------------------------------
 .byte   W96
@  #01 @058   ----------------------------------------
 .byte   W96
@  #01 @059   ----------------------------------------
 .byte   EOT
 .byte   An3 ,v072
 .byte   En4 ,v081
@  #01 @060   ----------------------------------------
 .byte   PATT
  .word Label_01313857
@  #01 @061   ----------------------------------------
 .byte   PATT
  .word Label_01313862
@  #01 @062   ----------------------------------------
 .byte   W96
@  #01 @063   ----------------------------------------
 .byte   W96
@  #01 @064   ----------------------------------------
 .byte   EOT
 .byte   An3 ,v072
 .byte   En4 ,v081
@  #01 @065   ----------------------------------------
 .byte   PATT
  .word Label_01313875
@  #01 @066   ----------------------------------------
 .byte   PATT
  .word Label_01313881
@  #01 @067   ----------------------------------------
 .byte   W96
@  #01 @068   ----------------------------------------
 .byte   W96
@  #01 @069   ----------------------------------------
 .byte   EOT
 .byte   Fs3 ,v069
 .byte   Cs4 ,v078
@  #01 @070   ----------------------------------------
 .byte   PATT
  .word Label_01313893
@  #01 @071   ----------------------------------------
 .byte   PATT
  .word Label_0131389E
@  #01 @072   ----------------------------------------
 .byte   W96
@  #01 @073   ----------------------------------------
 .byte   W96
@  #01 @074   ----------------------------------------
 .byte   EOT
 .byte   Fs3 ,v069
 .byte   Bn3 ,v073
 .byte   Fs4
@  #01 @075   ----------------------------------------
 .byte   PATT
  .word Label_013138B4
@  #01 @076   ----------------------------------------
 .byte   GOTO
  .word Label_0131383E
 .byte   FINE

@**************** Track 2 (Midi-Chn.1) ****************@

OssaTrail_002:
@  #02 @000   ----------------------------------------
 .byte   KEYSH , OssaTrail_key+0
Label_013139A2:
 .byte   VOICE , 52
 .byte   VOL , 12*OssaTrail_mvl/mxv
 .byte   PAN , c_v-13
 .byte   TIE ,An3 ,v100
 .byte   TIE ,Cn4
 .byte   TIE ,En4
 .byte   TIE ,An4
 .byte   W96
@  #02 @001   ----------------------------------------
 .byte   W96
@  #02 @002   ----------------------------------------
 .byte   W96
@  #02 @003   ----------------------------------------
 .byte   EOT
 .byte   An3 ,v072
 .byte   En4 ,v081
Label_013139B9:
 .byte   N96 ,Gn3 ,v100
 .byte   N96 ,Bn3
 .byte   N96 ,Dn4
 .byte   N96 ,Gn4
 .byte   W96
 .byte   PEND 
@  #02 @004   ----------------------------------------
Label_013139C4:
 .byte   TIE ,An3 ,v100
 .byte   TIE ,Cn4
 .byte   TIE ,En4
 .byte   TIE ,An4 ,v080
 .byte   W96
 .byte   PEND 
@  #02 @005   ----------------------------------------
 .byte   W96
@  #02 @006   ----------------------------------------
 .byte   W96
@  #02 @007   ----------------------------------------
 .byte   EOT
 .byte   An3 ,v072
 .byte   En4 ,v081
Label_013139D7:
 .byte   N96 ,Gn3 ,v100
 .byte   N96 ,Bn3
 .byte   N96 ,Dn4
 .byte   N96 ,Gn4 ,v080
 .byte   W96
 .byte   PEND 
@  #02 @008   ----------------------------------------
Label_013139E3:
 .byte   TIE ,Fs3 ,v100
 .byte   TIE ,An3
 .byte   TIE ,Cs4
 .byte   TIE ,Fs4
 .byte   W96
 .byte   PEND 
@  #02 @009   ----------------------------------------
 .byte   W96
@  #02 @010   ----------------------------------------
 .byte   W96
@  #02 @011   ----------------------------------------
 .byte   EOT
 .byte   Fs3 ,v069
 .byte   Cs4 ,v078
Label_013139F5:
 .byte   N96 ,En3 ,v100
 .byte   N96 ,Gs3
 .byte   N96 ,Bn3
 .byte   N96 ,En4
 .byte   W96
 .byte   PEND 
@  #02 @012   ----------------------------------------
Label_01313A00:
 .byte   TIE ,Fs3 ,v100
 .byte   TIE ,An3
 .byte   TIE ,Bn3
 .byte   TIE ,Cs4
 .byte   TIE ,Fs4 ,v080
 .byte   W96
 .byte   PEND 
@  #02 @013   ----------------------------------------
 .byte   W96
@  #02 @014   ----------------------------------------
 .byte   W96
@  #02 @015   ----------------------------------------
 .byte   EOT
 .byte   Fs3 ,v069
 .byte   Bn3 ,v073
 .byte   Fs4
Label_01313A16:
 .byte   N96 ,En3 ,v100
 .byte   N96 ,Gs3
 .byte   N96 ,Bn3
 .byte   N96 ,Cs4
 .byte   N96 ,En4 ,v080
 .byte   W96
 .byte   PEND 
@  #02 @016   ----------------------------------------
Label_01313A24:
 .byte   TIE ,An3 ,v100
 .byte   TIE ,Cn4
 .byte   TIE ,En4
 .byte   TIE ,An4
 .byte   W96
 .byte   PEND 
@  #02 @017   ----------------------------------------
 .byte   W96
@  #02 @018   ----------------------------------------
 .byte   W96
@  #02 @019   ----------------------------------------
 .byte   EOT
 .byte   An3 ,v072
 .byte   En4 ,v081
@  #02 @020   ----------------------------------------
 .byte   PATT
  .word Label_013139B9
@  #02 @021   ----------------------------------------
 .byte   PATT
  .word Label_013139C4
@  #02 @022   ----------------------------------------
 .byte   W96
@  #02 @023   ----------------------------------------
 .byte   W96
@  #02 @024   ----------------------------------------
 .byte   EOT
 .byte   An3 ,v072
 .byte   En4 ,v081
@  #02 @025   ----------------------------------------
 .byte   PATT
  .word Label_013139D7
@  #02 @026   ----------------------------------------
 .byte   PATT
  .word Label_013139E3
@  #02 @027   ----------------------------------------
 .byte   W96
@  #02 @028   ----------------------------------------
 .byte   W96
@  #02 @029   ----------------------------------------
 .byte   EOT
 .byte   Fs3 ,v069
 .byte   Cs4 ,v078
@  #02 @030   ----------------------------------------
 .byte   PATT
  .word Label_013139F5
@  #02 @031   ----------------------------------------
 .byte   PATT
  .word Label_01313A00
@  #02 @032   ----------------------------------------
 .byte   W96
@  #02 @033   ----------------------------------------
 .byte   W96
@  #02 @034   ----------------------------------------
 .byte   EOT
 .byte   Fs3 ,v069
 .byte   Bn3 ,v073
 .byte   Fs4
@  #02 @035   ----------------------------------------
 .byte   PATT
  .word Label_01313A16
@  #02 @036   ----------------------------------------
 .byte   PATT
  .word Label_01313A24
@  #02 @037   ----------------------------------------
 .byte   W96
@  #02 @038   ----------------------------------------
 .byte   W96
@  #02 @039   ----------------------------------------
 .byte   EOT
 .byte   An3 ,v072
 .byte   En4 ,v081
@  #02 @040   ----------------------------------------
 .byte   PATT
  .word Label_013139B9
@  #02 @041   ----------------------------------------
 .byte   PATT
  .word Label_013139C4
@  #02 @042   ----------------------------------------
 .byte   W96
@  #02 @043   ----------------------------------------
 .byte   W96
@  #02 @044   ----------------------------------------
 .byte   EOT
 .byte   An3 ,v072
 .byte   En4 ,v081
@  #02 @045   ----------------------------------------
 .byte   PATT
  .word Label_013139D7
@  #02 @046   ----------------------------------------
 .byte   PATT
  .word Label_013139E3
@  #02 @047   ----------------------------------------
 .byte   W96
@  #02 @048   ----------------------------------------
 .byte   W96
@  #02 @049   ----------------------------------------
 .byte   EOT
 .byte   Fs3 ,v069
 .byte   Cs4 ,v078
@  #02 @050   ----------------------------------------
 .byte   PATT
  .word Label_013139F5
@  #02 @051   ----------------------------------------
 .byte   PATT
  .word Label_01313A00
@  #02 @052   ----------------------------------------
 .byte   W96
@  #02 @053   ----------------------------------------
 .byte   W96
@  #02 @054   ----------------------------------------
 .byte   EOT
 .byte   Fs3 ,v069
 .byte   Bn3 ,v073
 .byte   Fs4
@  #02 @055   ----------------------------------------
 .byte   PATT
  .word Label_01313A16
@  #02 @056   ----------------------------------------
 .byte   PATT
  .word Label_01313A24
@  #02 @057   ----------------------------------------
 .byte   W96
@  #02 @058   ----------------------------------------
 .byte   W96
@  #02 @059   ----------------------------------------
 .byte   EOT
 .byte   An3 ,v072
 .byte   En4 ,v081
@  #02 @060   ----------------------------------------
 .byte   PATT
  .word Label_013139B9
@  #02 @061   ----------------------------------------
 .byte   PATT
  .word Label_013139C4
@  #02 @062   ----------------------------------------
 .byte   W96
@  #02 @063   ----------------------------------------
 .byte   W96
@  #02 @064   ----------------------------------------
 .byte   EOT
 .byte   An3 ,v072
 .byte   En4 ,v081
@  #02 @065   ----------------------------------------
 .byte   PATT
  .word Label_013139D7
@  #02 @066   ----------------------------------------
 .byte   PATT
  .word Label_013139E3
@  #02 @067   ----------------------------------------
 .byte   W96
@  #02 @068   ----------------------------------------
 .byte   W96
@  #02 @069   ----------------------------------------
 .byte   EOT
 .byte   Fs3 ,v069
 .byte   Cs4 ,v078
@  #02 @070   ----------------------------------------
 .byte   PATT
  .word Label_013139F5
@  #02 @071   ----------------------------------------
 .byte   PATT
  .word Label_01313A00
@  #02 @072   ----------------------------------------
 .byte   W96
@  #02 @073   ----------------------------------------
 .byte   W96
@  #02 @074   ----------------------------------------
 .byte   EOT
 .byte   Fs3 ,v069
 .byte   Bn3 ,v073
 .byte   Fs4
@  #02 @075   ----------------------------------------
 .byte   PATT
  .word Label_01313A16
@  #02 @076   ----------------------------------------
 .byte   GOTO
  .word Label_013139A2
 .byte   FINE

@**************** Track 3 (Midi-Chn.2) ****************@

OssaTrail_003:
@  #03 @000   ----------------------------------------
 .byte   KEYSH , OssaTrail_key+0
Label_01313B02:
 .byte   VOICE , 46
 .byte   VOL , 34*OssaTrail_mvl/mxv
 .byte   PAN , c_v-16
 .byte   N08 ,An2 ,v100
 .byte   W16
 .byte   An3
 .byte   W16
 .byte   Dn4
 .byte   W16
 .byte   En4
 .byte   W16
 .byte   Cn4
 .byte   W16
 .byte   Bn3
 .byte   W16
@  #03 @001   ----------------------------------------
Label_01313B16:
 .byte   N08 ,An2 ,v100
 .byte   W16
 .byte   An3
 .byte   W16
 .byte   Dn4
 .byte   W16
 .byte   En4
 .byte   W16
 .byte   Cn4
 .byte   W16
 .byte   Bn3
 .byte   W16
 .byte   PEND 
@  #03 @002   ----------------------------------------
Label_01313B25:
 .byte   N08 ,An2 ,v100
 .byte   W16
 .byte   An3
 .byte   W16
 .byte   Dn4
 .byte   W16
 .byte   En4
 .byte   W16
 .byte   Cn4
 .byte   W16
 .byte   Dn4
 .byte   W16
 .byte   PEND 
@  #03 @003   ----------------------------------------
Label_01313B34:
 .byte   N08 ,Bn3 ,v100
 .byte   W16
 .byte   Cn4
 .byte   W16
 .byte   An3
 .byte   W16
 .byte   Gn2
 .byte   N08 ,Bn3
 .byte   W16
 .byte   Gn3
 .byte   W16
 .byte   An3
 .byte   W16
 .byte   PEND 
@  #03 @004   ----------------------------------------
 .byte   PATT
  .word Label_01313B16
@  #03 @005   ----------------------------------------
 .byte   PATT
  .word Label_01313B16
@  #03 @006   ----------------------------------------
 .byte   PATT
  .word Label_01313B25
@  #03 @007   ----------------------------------------
 .byte   PATT
  .word Label_01313B34
@  #03 @008   ----------------------------------------
Label_01313B59:
 .byte   N08 ,Fs2 ,v100
 .byte   W16
 .byte   Fs3
 .byte   W16
 .byte   Bn3
 .byte   W16
 .byte   Cs4
 .byte   W16
 .byte   An3
 .byte   W16
 .byte   Gs3
 .byte   W16
 .byte   PEND 
@  #03 @009   ----------------------------------------
 .byte   PATT
  .word Label_01313B59
@  #03 @010   ----------------------------------------
Label_01313B6D:
 .byte   N08 ,Fs2 ,v100
 .byte   W16
 .byte   Fs3
 .byte   W16
 .byte   Bn3
 .byte   W16
 .byte   Cs4
 .byte   W16
 .byte   An3
 .byte   W16
 .byte   Bn3
 .byte   W16
 .byte   PEND 
@  #03 @011   ----------------------------------------
Label_01313B7C:
 .byte   N08 ,Gs3 ,v100
 .byte   W16
 .byte   An3
 .byte   W16
 .byte   Fs3
 .byte   W16
 .byte   En2
 .byte   N08 ,Gs3
 .byte   W16
 .byte   En3
 .byte   W16
 .byte   Fs3
 .byte   W16
 .byte   PEND 
@  #03 @012   ----------------------------------------
 .byte   PATT
  .word Label_01313B59
@  #03 @013   ----------------------------------------
 .byte   PATT
  .word Label_01313B59
@  #03 @014   ----------------------------------------
 .byte   PATT
  .word Label_01313B6D
@  #03 @015   ----------------------------------------
 .byte   PATT
  .word Label_01313B7C
@  #03 @016   ----------------------------------------
 .byte   PATT
  .word Label_01313B16
@  #03 @017   ----------------------------------------
 .byte   PATT
  .word Label_01313B16
@  #03 @018   ----------------------------------------
 .byte   PATT
  .word Label_01313B25
@  #03 @019   ----------------------------------------
 .byte   PATT
  .word Label_01313B34
@  #03 @020   ----------------------------------------
 .byte   PATT
  .word Label_01313B16
@  #03 @021   ----------------------------------------
 .byte   PATT
  .word Label_01313B16
@  #03 @022   ----------------------------------------
 .byte   PATT
  .word Label_01313B25
@  #03 @023   ----------------------------------------
 .byte   PATT
  .word Label_01313B34
@  #03 @024   ----------------------------------------
 .byte   PATT
  .word Label_01313B59
@  #03 @025   ----------------------------------------
 .byte   PATT
  .word Label_01313B59
@  #03 @026   ----------------------------------------
 .byte   PATT
  .word Label_01313B6D
@  #03 @027   ----------------------------------------
 .byte   PATT
  .word Label_01313B7C
@  #03 @028   ----------------------------------------
 .byte   PATT
  .word Label_01313B59
@  #03 @029   ----------------------------------------
 .byte   PATT
  .word Label_01313B59
@  #03 @030   ----------------------------------------
 .byte   PATT
  .word Label_01313B6D
@  #03 @031   ----------------------------------------
 .byte   PATT
  .word Label_01313B7C
@  #03 @032   ----------------------------------------
 .byte   PATT
  .word Label_01313B16
@  #03 @033   ----------------------------------------
 .byte   PATT
  .word Label_01313B16
@  #03 @034   ----------------------------------------
 .byte   PATT
  .word Label_01313B25
@  #03 @035   ----------------------------------------
 .byte   PATT
  .word Label_01313B34
@  #03 @036   ----------------------------------------
 .byte   PATT
  .word Label_01313B16
@  #03 @037   ----------------------------------------
 .byte   PATT
  .word Label_01313B16
@  #03 @038   ----------------------------------------
 .byte   PATT
  .word Label_01313B25
@  #03 @039   ----------------------------------------
 .byte   PATT
  .word Label_01313B34
@  #03 @040   ----------------------------------------
 .byte   PATT
  .word Label_01313B59
@  #03 @041   ----------------------------------------
 .byte   PATT
  .word Label_01313B59
@  #03 @042   ----------------------------------------
 .byte   PATT
  .word Label_01313B6D
@  #03 @043   ----------------------------------------
 .byte   PATT
  .word Label_01313B7C
@  #03 @044   ----------------------------------------
 .byte   PATT
  .word Label_01313B59
@  #03 @045   ----------------------------------------
 .byte   PATT
  .word Label_01313B59
@  #03 @046   ----------------------------------------
 .byte   PATT
  .word Label_01313B6D
@  #03 @047   ----------------------------------------
 .byte   PATT
  .word Label_01313B7C
@  #03 @048   ----------------------------------------
 .byte   PATT
  .word Label_01313B16
@  #03 @049   ----------------------------------------
 .byte   PATT
  .word Label_01313B16
@  #03 @050   ----------------------------------------
 .byte   PATT
  .word Label_01313B25
@  #03 @051   ----------------------------------------
 .byte   PATT
  .word Label_01313B34
@  #03 @052   ----------------------------------------
 .byte   PATT
  .word Label_01313B16
@  #03 @053   ----------------------------------------
 .byte   PATT
  .word Label_01313B16
@  #03 @054   ----------------------------------------
 .byte   PATT
  .word Label_01313B25
@  #03 @055   ----------------------------------------
 .byte   PATT
  .word Label_01313B34
@  #03 @056   ----------------------------------------
 .byte   PATT
  .word Label_01313B59
@  #03 @057   ----------------------------------------
 .byte   PATT
  .word Label_01313B59
@  #03 @058   ----------------------------------------
 .byte   PATT
  .word Label_01313B6D
@  #03 @059   ----------------------------------------
 .byte   PATT
  .word Label_01313B7C
@  #03 @060   ----------------------------------------
 .byte   PATT
  .word Label_01313B59
@  #03 @061   ----------------------------------------
 .byte   PATT
  .word Label_01313B59
@  #03 @062   ----------------------------------------
 .byte   PATT
  .word Label_01313B6D
@  #03 @063   ----------------------------------------
 .byte   PATT
  .word Label_01313B7C
@  #03 @064   ----------------------------------------
 .byte   GOTO
  .word Label_01313B02
 .byte   FINE

@**************** Track 4 (Midi-Chn.3) ****************@

OssaTrail_004:
@  #04 @000   ----------------------------------------
 .byte   KEYSH , OssaTrail_key+0
Label_01313C9A:
 .byte   VOICE , 46
 .byte   VOL , 34*OssaTrail_mvl/mxv
 .byte   PAN , c_v+21
 .byte   N08 ,An2 ,v100
 .byte   W16
 .byte   An3
 .byte   W16
 .byte   Dn4
 .byte   W16
 .byte   En4
 .byte   W16
 .byte   Cn4
 .byte   W16
 .byte   Bn3
 .byte   W16
@  #04 @001   ----------------------------------------
Label_01313CAE:
 .byte   N08 ,An2 ,v100
 .byte   W16
 .byte   An3
 .byte   W16
 .byte   Dn4
 .byte   W16
 .byte   En4
 .byte   W16
 .byte   Cn4
 .byte   W16
 .byte   Bn3
 .byte   W16
 .byte   PEND 
@  #04 @002   ----------------------------------------
Label_01313CBD:
 .byte   N08 ,An2 ,v100
 .byte   W16
 .byte   An3
 .byte   W16
 .byte   Dn4
 .byte   W16
 .byte   En4
 .byte   W16
 .byte   Cn4
 .byte   W16
 .byte   Dn4
 .byte   W16
 .byte   PEND 
@  #04 @003   ----------------------------------------
Label_01313CCC:
 .byte   N08 ,Bn3 ,v100
 .byte   W16
 .byte   Cn4
 .byte   W16
 .byte   An3
 .byte   W16
 .byte   Gn2
 .byte   N08 ,Bn3
 .byte   W16
 .byte   Gn3
 .byte   W16
 .byte   An3
 .byte   W16
 .byte   PEND 
@  #04 @004   ----------------------------------------
 .byte   PATT
  .word Label_01313CAE
@  #04 @005   ----------------------------------------
 .byte   PATT
  .word Label_01313CAE
@  #04 @006   ----------------------------------------
 .byte   PATT
  .word Label_01313CBD
@  #04 @007   ----------------------------------------
 .byte   PATT
  .word Label_01313CCC
@  #04 @008   ----------------------------------------
Label_01313CF1:
 .byte   N08 ,Fs2 ,v100
 .byte   W16
 .byte   Fs3
 .byte   W16
 .byte   Bn3
 .byte   W16
 .byte   Cs4
 .byte   W16
 .byte   An3
 .byte   W16
 .byte   Gs3
 .byte   W16
 .byte   PEND 
@  #04 @009   ----------------------------------------
 .byte   PATT
  .word Label_01313CF1
@  #04 @010   ----------------------------------------
Label_01313D05:
 .byte   N08 ,Fs2 ,v100
 .byte   W16
 .byte   Fs3
 .byte   W16
 .byte   Bn3
 .byte   W16
 .byte   Cs4
 .byte   W16
 .byte   An3
 .byte   W16
 .byte   Bn3
 .byte   W16
 .byte   PEND 
@  #04 @011   ----------------------------------------
Label_01313D14:
 .byte   N08 ,Gs3 ,v100
 .byte   W16
 .byte   An3
 .byte   W16
 .byte   Fs3
 .byte   W16
 .byte   En2
 .byte   N08 ,Gs3
 .byte   W16
 .byte   En3
 .byte   W16
 .byte   Fs3
 .byte   W16
 .byte   PEND 
@  #04 @012   ----------------------------------------
 .byte   PATT
  .word Label_01313CF1
@  #04 @013   ----------------------------------------
 .byte   PATT
  .word Label_01313CF1
@  #04 @014   ----------------------------------------
 .byte   PATT
  .word Label_01313D05
@  #04 @015   ----------------------------------------
 .byte   PATT
  .word Label_01313D14
@  #04 @016   ----------------------------------------
 .byte   PATT
  .word Label_01313CAE
@  #04 @017   ----------------------------------------
 .byte   PATT
  .word Label_01313CAE
@  #04 @018   ----------------------------------------
 .byte   PATT
  .word Label_01313CBD
@  #04 @019   ----------------------------------------
 .byte   PATT
  .word Label_01313CCC
@  #04 @020   ----------------------------------------
 .byte   PATT
  .word Label_01313CAE
@  #04 @021   ----------------------------------------
 .byte   PATT
  .word Label_01313CAE
@  #04 @022   ----------------------------------------
 .byte   PATT
  .word Label_01313CBD
@  #04 @023   ----------------------------------------
 .byte   PATT
  .word Label_01313CCC
@  #04 @024   ----------------------------------------
 .byte   PATT
  .word Label_01313CF1
@  #04 @025   ----------------------------------------
 .byte   PATT
  .word Label_01313CF1
@  #04 @026   ----------------------------------------
 .byte   PATT
  .word Label_01313D05
@  #04 @027   ----------------------------------------
 .byte   PATT
  .word Label_01313D14
@  #04 @028   ----------------------------------------
 .byte   PATT
  .word Label_01313CF1
@  #04 @029   ----------------------------------------
 .byte   PATT
  .word Label_01313CF1
@  #04 @030   ----------------------------------------
 .byte   PATT
  .word Label_01313D05
@  #04 @031   ----------------------------------------
 .byte   PATT
  .word Label_01313D14
@  #04 @032   ----------------------------------------
 .byte   PATT
  .word Label_01313CAE
@  #04 @033   ----------------------------------------
 .byte   PATT
  .word Label_01313CAE
@  #04 @034   ----------------------------------------
 .byte   PATT
  .word Label_01313CBD
@  #04 @035   ----------------------------------------
 .byte   PATT
  .word Label_01313CCC
@  #04 @036   ----------------------------------------
 .byte   PATT
  .word Label_01313CAE
@  #04 @037   ----------------------------------------
 .byte   PATT
  .word Label_01313CAE
@  #04 @038   ----------------------------------------
 .byte   PATT
  .word Label_01313CBD
@  #04 @039   ----------------------------------------
 .byte   PATT
  .word Label_01313CCC
@  #04 @040   ----------------------------------------
 .byte   PATT
  .word Label_01313CF1
@  #04 @041   ----------------------------------------
 .byte   PATT
  .word Label_01313CF1
@  #04 @042   ----------------------------------------
 .byte   PATT
  .word Label_01313D05
@  #04 @043   ----------------------------------------
 .byte   PATT
  .word Label_01313D14
@  #04 @044   ----------------------------------------
 .byte   PATT
  .word Label_01313CF1
@  #04 @045   ----------------------------------------
 .byte   PATT
  .word Label_01313CF1
@  #04 @046   ----------------------------------------
 .byte   PATT
  .word Label_01313D05
@  #04 @047   ----------------------------------------
 .byte   PATT
  .word Label_01313D14
@  #04 @048   ----------------------------------------
 .byte   PATT
  .word Label_01313CAE
@  #04 @049   ----------------------------------------
 .byte   PATT
  .word Label_01313CAE
@  #04 @050   ----------------------------------------
 .byte   PATT
  .word Label_01313CBD
@  #04 @051   ----------------------------------------
 .byte   PATT
  .word Label_01313CCC
@  #04 @052   ----------------------------------------
 .byte   PATT
  .word Label_01313CAE
@  #04 @053   ----------------------------------------
 .byte   PATT
  .word Label_01313CAE
@  #04 @054   ----------------------------------------
 .byte   PATT
  .word Label_01313CBD
@  #04 @055   ----------------------------------------
 .byte   PATT
  .word Label_01313CCC
@  #04 @056   ----------------------------------------
 .byte   PATT
  .word Label_01313CF1
@  #04 @057   ----------------------------------------
 .byte   PATT
  .word Label_01313CF1
@  #04 @058   ----------------------------------------
 .byte   PATT
  .word Label_01313D05
@  #04 @059   ----------------------------------------
 .byte   PATT
  .word Label_01313D14
@  #04 @060   ----------------------------------------
 .byte   PATT
  .word Label_01313CF1
@  #04 @061   ----------------------------------------
 .byte   PATT
  .word Label_01313CF1
@  #04 @062   ----------------------------------------
 .byte   PATT
  .word Label_01313D05
@  #04 @063   ----------------------------------------
 .byte   PATT
  .word Label_01313D14
@  #04 @064   ----------------------------------------
 .byte   GOTO
  .word Label_01313C9A
 .byte   FINE

@**************** Track 5 (Midi-Chn.4) ****************@

OssaTrail_005:
@  #05 @000   ----------------------------------------
 .byte   KEYSH , OssaTrail_key+0
Label_01313E32:
 .byte   VOICE , 11
 .byte   VOL , 39*OssaTrail_mvl/mxv
 .byte   PAN , c_v-19
 .byte   W96
@  #05 @001   ----------------------------------------
 .byte   W96
@  #05 @002   ----------------------------------------
Label_01313E3A:
 .byte   N08 ,En6 ,v040
 .byte   W32
 .byte   Cn6 ,v056
 .byte   W24
 .byte   Dn6 ,v040
 .byte   W24
 .byte   Bn5 ,v060
 .byte   W16
 .byte   PEND 
@  #05 @003   ----------------------------------------
Label_01313E48:
 .byte   N08 ,Cn6 ,v076
 .byte   W20
 .byte   An5 ,v100
 .byte   W16
 .byte   Bn5
 .byte   W16
 .byte   Gn5
 .byte   W16
 .byte   An5
 .byte   W16
 .byte   N04 ,En5
 .byte   W12
 .byte   PEND 
@  #05 @004   ----------------------------------------
 .byte   W96
@  #05 @005   ----------------------------------------
 .byte   W96
@  #05 @006   ----------------------------------------
 .byte   W96
@  #05 @007   ----------------------------------------
 .byte   W96
@  #05 @008   ----------------------------------------
 .byte   W96
@  #05 @009   ----------------------------------------
 .byte   W96
@  #05 @010   ----------------------------------------
Label_01313E5F:
 .byte   N08 ,Cs6 ,v040
 .byte   W32
 .byte   An5 ,v056
 .byte   W24
 .byte   Bn5 ,v040
 .byte   W24
 .byte   Gs5 ,v060
 .byte   W16
 .byte   PEND 
@  #05 @011   ----------------------------------------
Label_01313E6D:
 .byte   N08 ,An5 ,v076
 .byte   W20
 .byte   Fs5 ,v100
 .byte   W16
 .byte   Gs5
 .byte   W16
 .byte   En5
 .byte   W16
 .byte   Fs5
 .byte   W16
 .byte   N04 ,Cs5
 .byte   W12
 .byte   PEND 
@  #05 @012   ----------------------------------------
 .byte   W96
@  #05 @013   ----------------------------------------
 .byte   W96
@  #05 @014   ----------------------------------------
 .byte   W96
@  #05 @015   ----------------------------------------
 .byte   W96
@  #05 @016   ----------------------------------------
 .byte   W96
@  #05 @017   ----------------------------------------
 .byte   W96
@  #05 @018   ----------------------------------------
 .byte   PATT
  .word Label_01313E3A
@  #05 @019   ----------------------------------------
 .byte   PATT
  .word Label_01313E48
@  #05 @020   ----------------------------------------
 .byte   W96
@  #05 @021   ----------------------------------------
 .byte   W96
@  #05 @022   ----------------------------------------
 .byte   W96
@  #05 @023   ----------------------------------------
 .byte   W96
@  #05 @024   ----------------------------------------
 .byte   W96
@  #05 @025   ----------------------------------------
 .byte   W96
@  #05 @026   ----------------------------------------
 .byte   PATT
  .word Label_01313E5F
@  #05 @027   ----------------------------------------
Label_01313E99:
 .byte   N08 ,An5 ,v076
 .byte   W20
 .byte   Fs5 ,v100
 .byte   W16
 .byte   Gs5
 .byte   W16
 .byte   En5
 .byte   W16
 .byte   Fs5
 .byte   W16
 .byte   N04 ,Cs5
 .byte   W04
 .byte   W08
 .byte   PEND 
@  #05 @028   ----------------------------------------
 .byte   W96
@  #05 @029   ----------------------------------------
 .byte   W96
@  #05 @030   ----------------------------------------
 .byte   W96
@  #05 @031   ----------------------------------------
 .byte   W96
@  #05 @032   ----------------------------------------
 .byte   W96
@  #05 @033   ----------------------------------------
 .byte   W96
@  #05 @034   ----------------------------------------
 .byte   PATT
  .word Label_01313E3A
@  #05 @035   ----------------------------------------
 .byte   PATT
  .word Label_01313E48
@  #05 @036   ----------------------------------------
 .byte   W96
@  #05 @037   ----------------------------------------
 .byte   W96
@  #05 @038   ----------------------------------------
 .byte   W96
@  #05 @039   ----------------------------------------
 .byte   W96
@  #05 @040   ----------------------------------------
 .byte   W96
@  #05 @041   ----------------------------------------
 .byte   W96
@  #05 @042   ----------------------------------------
 .byte   PATT
  .word Label_01313E5F
@  #05 @043   ----------------------------------------
 .byte   PATT
  .word Label_01313E6D
@  #05 @044   ----------------------------------------
 .byte   W96
@  #05 @045   ----------------------------------------
 .byte   W96
@  #05 @046   ----------------------------------------
 .byte   W96
@  #05 @047   ----------------------------------------
 .byte   W96
@  #05 @048   ----------------------------------------
 .byte   W96
@  #05 @049   ----------------------------------------
 .byte   W96
@  #05 @050   ----------------------------------------
 .byte   PATT
  .word Label_01313E3A
@  #05 @051   ----------------------------------------
 .byte   PATT
  .word Label_01313E48
@  #05 @052   ----------------------------------------
 .byte   W96
@  #05 @053   ----------------------------------------
 .byte   W96
@  #05 @054   ----------------------------------------
 .byte   W96
@  #05 @055   ----------------------------------------
 .byte   W96
@  #05 @056   ----------------------------------------
 .byte   W96
@  #05 @057   ----------------------------------------
 .byte   W96
@  #05 @058   ----------------------------------------
 .byte   PATT
  .word Label_01313E5F
@  #05 @059   ----------------------------------------
 .byte   PATT
  .word Label_01313E99
@  #05 @060   ----------------------------------------
 .byte   W96
@  #05 @061   ----------------------------------------
 .byte   W96
@  #05 @062   ----------------------------------------
 .byte   W96
@  #05 @063   ----------------------------------------
 .byte   W96
@  #05 @064   ----------------------------------------
 .byte   GOTO
  .word Label_01313E32
 .byte   FINE

@**************** Track 6 (Midi-Chn.5) ****************@

OssaTrail_006:
@  #06 @000   ----------------------------------------
 .byte   KEYSH , OssaTrail_key+0
Label_01313EFA:
 .byte   VOICE , 11
 .byte   VOL , 41*OssaTrail_mvl/mxv
 .byte   PAN , c_v+22
 .byte   W96
@  #06 @001   ----------------------------------------
 .byte   W96
@  #06 @002   ----------------------------------------
Label_01313F02:
 .byte   N08 ,En6 ,v040
 .byte   W32
 .byte   Cn6 ,v056
 .byte   W24
 .byte   Dn6 ,v040
 .byte   W24
 .byte   Bn5 ,v060
 .byte   W16
 .byte   PEND 
@  #06 @003   ----------------------------------------
Label_01313F10:
 .byte   N08 ,Cn6 ,v076
 .byte   W20
 .byte   An5 ,v100
 .byte   W16
 .byte   Bn5
 .byte   W16
 .byte   Gn5
 .byte   W16
 .byte   An5
 .byte   W16
 .byte   N04 ,En5
 .byte   W12
 .byte   PEND 
@  #06 @004   ----------------------------------------
 .byte   W96
@  #06 @005   ----------------------------------------
 .byte   W96
@  #06 @006   ----------------------------------------
 .byte   W96
@  #06 @007   ----------------------------------------
 .byte   W96
@  #06 @008   ----------------------------------------
 .byte   W96
@  #06 @009   ----------------------------------------
 .byte   W96
@  #06 @010   ----------------------------------------
Label_01313F27:
 .byte   N08 ,Cs6 ,v040
 .byte   W32
 .byte   An5 ,v056
 .byte   W24
 .byte   Bn5 ,v040
 .byte   W24
 .byte   Gs5 ,v060
 .byte   W16
 .byte   PEND 
@  #06 @011   ----------------------------------------
Label_01313F35:
 .byte   N08 ,An5 ,v076
 .byte   W20
 .byte   Fs5 ,v100
 .byte   W16
 .byte   Gs5
 .byte   W16
 .byte   En5
 .byte   W16
 .byte   Fs5
 .byte   W16
 .byte   N04 ,Cs5
 .byte   W12
 .byte   PEND 
@  #06 @012   ----------------------------------------
 .byte   W96
@  #06 @013   ----------------------------------------
 .byte   W96
@  #06 @014   ----------------------------------------
 .byte   W96
@  #06 @015   ----------------------------------------
 .byte   W96
@  #06 @016   ----------------------------------------
 .byte   W96
@  #06 @017   ----------------------------------------
 .byte   W96
@  #06 @018   ----------------------------------------
 .byte   PATT
  .word Label_01313F02
@  #06 @019   ----------------------------------------
 .byte   PATT
  .word Label_01313F10
@  #06 @020   ----------------------------------------
 .byte   W96
@  #06 @021   ----------------------------------------
 .byte   W96
@  #06 @022   ----------------------------------------
 .byte   W96
@  #06 @023   ----------------------------------------
 .byte   W96
@  #06 @024   ----------------------------------------
 .byte   W96
@  #06 @025   ----------------------------------------
 .byte   W96
@  #06 @026   ----------------------------------------
 .byte   PATT
  .word Label_01313F27
@  #06 @027   ----------------------------------------
Label_01313F61:
 .byte   N08 ,An5 ,v076
 .byte   W20
 .byte   Fs5 ,v100
 .byte   W16
 .byte   Gs5
 .byte   W16
 .byte   En5
 .byte   W16
 .byte   Fs5
 .byte   W16
 .byte   N04 ,Cs5
 .byte   W04
 .byte   W08
 .byte   PEND 
@  #06 @028   ----------------------------------------
 .byte   W96
@  #06 @029   ----------------------------------------
 .byte   W96
@  #06 @030   ----------------------------------------
 .byte   W96
@  #06 @031   ----------------------------------------
 .byte   W96
@  #06 @032   ----------------------------------------
 .byte   W96
@  #06 @033   ----------------------------------------
 .byte   W96
@  #06 @034   ----------------------------------------
 .byte   PATT
  .word Label_01313F02
@  #06 @035   ----------------------------------------
 .byte   PATT
  .word Label_01313F10
@  #06 @036   ----------------------------------------
 .byte   W96
@  #06 @037   ----------------------------------------
 .byte   W96
@  #06 @038   ----------------------------------------
 .byte   W96
@  #06 @039   ----------------------------------------
 .byte   W96
@  #06 @040   ----------------------------------------
 .byte   W96
@  #06 @041   ----------------------------------------
 .byte   W96
@  #06 @042   ----------------------------------------
 .byte   PATT
  .word Label_01313F27
@  #06 @043   ----------------------------------------
 .byte   PATT
  .word Label_01313F35
@  #06 @044   ----------------------------------------
 .byte   W96
@  #06 @045   ----------------------------------------
 .byte   W96
@  #06 @046   ----------------------------------------
 .byte   W96
@  #06 @047   ----------------------------------------
 .byte   W96
@  #06 @048   ----------------------------------------
 .byte   W96
@  #06 @049   ----------------------------------------
 .byte   W96
@  #06 @050   ----------------------------------------
 .byte   PATT
  .word Label_01313F02
@  #06 @051   ----------------------------------------
 .byte   PATT
  .word Label_01313F10
@  #06 @052   ----------------------------------------
 .byte   W96
@  #06 @053   ----------------------------------------
 .byte   W96
@  #06 @054   ----------------------------------------
 .byte   W96
@  #06 @055   ----------------------------------------
 .byte   W96
@  #06 @056   ----------------------------------------
 .byte   W96
@  #06 @057   ----------------------------------------
 .byte   W96
@  #06 @058   ----------------------------------------
 .byte   PATT
  .word Label_01313F27
@  #06 @059   ----------------------------------------
 .byte   PATT
  .word Label_01313F61
@  #06 @060   ----------------------------------------
 .byte   W96
@  #06 @061   ----------------------------------------
 .byte   W96
@  #06 @062   ----------------------------------------
 .byte   W96
@  #06 @063   ----------------------------------------
 .byte   W96
@  #06 @064   ----------------------------------------
 .byte   GOTO
  .word Label_01313EFA
 .byte   FINE

@**************** Track 7 (Midi-Chn.6) ****************@

OssaTrail_007:
@  #07 @000   ----------------------------------------
 .byte   KEYSH , OssaTrail_key+0
Label_01313FC2:
 .byte   VOICE , 11
 .byte   PAN , c_v+8
 .byte   VOL , 48*OssaTrail_mvl/mxv
 .byte   W96
@  #07 @001   ----------------------------------------
 .byte   W96
@  #07 @002   ----------------------------------------
Label_01313FCA:
 .byte   N08 ,En6 ,v040
 .byte   W32
 .byte   Cn6 ,v056
 .byte   W24
 .byte   Dn6 ,v040
 .byte   W24
 .byte   Bn5 ,v060
 .byte   W16
 .byte   PEND 
@  #07 @003   ----------------------------------------
Label_01313FD8:
 .byte   N08 ,Cn6 ,v076
 .byte   W20
 .byte   An5 ,v100
 .byte   W16
 .byte   Bn5
 .byte   W16
 .byte   Gn5
 .byte   W16
 .byte   An5
 .byte   W16
 .byte   N04 ,En5
 .byte   W12
 .byte   PEND 
@  #07 @004   ----------------------------------------
 .byte   W96
@  #07 @005   ----------------------------------------
 .byte   W96
@  #07 @006   ----------------------------------------
 .byte   W96
@  #07 @007   ----------------------------------------
 .byte   W96
@  #07 @008   ----------------------------------------
 .byte   W96
@  #07 @009   ----------------------------------------
 .byte   W96
@  #07 @010   ----------------------------------------
Label_01313FEF:
 .byte   N08 ,Cs6 ,v040
 .byte   W32
 .byte   An5 ,v056
 .byte   W24
 .byte   Bn5 ,v040
 .byte   W24
 .byte   Gs5 ,v060
 .byte   W16
 .byte   PEND 
@  #07 @011   ----------------------------------------
Label_01313FFD:
 .byte   N08 ,An5 ,v076
 .byte   W20
 .byte   Fs5 ,v100
 .byte   W16
 .byte   Gs5
 .byte   W16
 .byte   En5
 .byte   W16
 .byte   Fs5
 .byte   W16
 .byte   N04 ,Cs5
 .byte   W12
 .byte   PEND 
@  #07 @012   ----------------------------------------
 .byte   W96
@  #07 @013   ----------------------------------------
 .byte   W96
@  #07 @014   ----------------------------------------
 .byte   W96
@  #07 @015   ----------------------------------------
 .byte   W96
@  #07 @016   ----------------------------------------
 .byte   W96
@  #07 @017   ----------------------------------------
 .byte   W96
@  #07 @018   ----------------------------------------
 .byte   PATT
  .word Label_01313FCA
@  #07 @019   ----------------------------------------
 .byte   PATT
  .word Label_01313FD8
@  #07 @020   ----------------------------------------
 .byte   W96
@  #07 @021   ----------------------------------------
 .byte   W96
@  #07 @022   ----------------------------------------
 .byte   W96
@  #07 @023   ----------------------------------------
 .byte   W96
@  #07 @024   ----------------------------------------
 .byte   W96
@  #07 @025   ----------------------------------------
 .byte   W96
@  #07 @026   ----------------------------------------
 .byte   PATT
  .word Label_01313FEF
@  #07 @027   ----------------------------------------
Label_01314029:
 .byte   N08 ,An5 ,v076
 .byte   W20
 .byte   Fs5 ,v100
 .byte   W16
 .byte   Gs5
 .byte   W16
 .byte   En5
 .byte   W16
 .byte   Fs5
 .byte   W16
 .byte   N04 ,Cs5
 .byte   W04
 .byte   W08
 .byte   PEND 
@  #07 @028   ----------------------------------------
 .byte   W96
@  #07 @029   ----------------------------------------
 .byte   W96
@  #07 @030   ----------------------------------------
 .byte   W96
@  #07 @031   ----------------------------------------
 .byte   W96
@  #07 @032   ----------------------------------------
 .byte   W96
@  #07 @033   ----------------------------------------
 .byte   W96
@  #07 @034   ----------------------------------------
 .byte   PATT
  .word Label_01313FCA
@  #07 @035   ----------------------------------------
 .byte   PATT
  .word Label_01313FD8
@  #07 @036   ----------------------------------------
 .byte   W96
@  #07 @037   ----------------------------------------
 .byte   W96
@  #07 @038   ----------------------------------------
 .byte   W96
@  #07 @039   ----------------------------------------
 .byte   W96
@  #07 @040   ----------------------------------------
 .byte   W96
@  #07 @041   ----------------------------------------
 .byte   W96
@  #07 @042   ----------------------------------------
 .byte   PATT
  .word Label_01313FEF
@  #07 @043   ----------------------------------------
 .byte   PATT
  .word Label_01313FFD
@  #07 @044   ----------------------------------------
 .byte   W96
@  #07 @045   ----------------------------------------
 .byte   W96
@  #07 @046   ----------------------------------------
 .byte   W96
@  #07 @047   ----------------------------------------
 .byte   W96
@  #07 @048   ----------------------------------------
 .byte   W96
@  #07 @049   ----------------------------------------
 .byte   W96
@  #07 @050   ----------------------------------------
 .byte   PATT
  .word Label_01313FCA
@  #07 @051   ----------------------------------------
 .byte   PATT
  .word Label_01313FD8
@  #07 @052   ----------------------------------------
 .byte   W96
@  #07 @053   ----------------------------------------
 .byte   W96
@  #07 @054   ----------------------------------------
 .byte   W96
@  #07 @055   ----------------------------------------
 .byte   W96
@  #07 @056   ----------------------------------------
 .byte   W96
@  #07 @057   ----------------------------------------
 .byte   W96
@  #07 @058   ----------------------------------------
 .byte   PATT
  .word Label_01313FEF
@  #07 @059   ----------------------------------------
 .byte   PATT
  .word Label_01314029
@  #07 @060   ----------------------------------------
 .byte   W96
@  #07 @061   ----------------------------------------
 .byte   W96
@  #07 @062   ----------------------------------------
 .byte   W96
@  #07 @063   ----------------------------------------
 .byte   W96
@  #07 @064   ----------------------------------------
 .byte   GOTO
  .word Label_01313FC2
 .byte   FINE

@**************** Track 8 (Midi-Chn.7) ****************@

OssaTrail_008:
@  #08 @000   ----------------------------------------
 .byte   KEYSH , OssaTrail_key+0
Label_0131408A:
 .byte   VOICE , 73
 .byte   VOL , 53*OssaTrail_mvl/mxv
 .byte   PAN , c_v-21
 .byte   W96
@  #08 @001   ----------------------------------------
 .byte   W96
@  #08 @002   ----------------------------------------
 .byte   W96
@  #08 @003   ----------------------------------------
 .byte   W96
@  #08 @004   ----------------------------------------
 .byte   W96
@  #08 @005   ----------------------------------------
 .byte   W96
@  #08 @006   ----------------------------------------
 .byte   W96
@  #08 @007   ----------------------------------------
 .byte   W96
@  #08 @008   ----------------------------------------
 .byte   W96
@  #08 @009   ----------------------------------------
 .byte   W96
@  #08 @010   ----------------------------------------
 .byte   W96
@  #08 @011   ----------------------------------------
 .byte   W96
@  #08 @012   ----------------------------------------
 .byte   W96
@  #08 @013   ----------------------------------------
 .byte   W96
@  #08 @014   ----------------------------------------
 .byte   W96
@  #08 @015   ----------------------------------------
 .byte   W96
@  #08 @016   ----------------------------------------
Label_013140A0:
 .byte   N60 ,En5 ,v100
 .byte   W64
 .byte   N16 ,Cn5
 .byte   W16
 .byte   Dn5
 .byte   W16
 .byte   PEND 
@  #08 @017   ----------------------------------------
Label_013140AA:
 .byte   N16 ,Bn4 ,v100
 .byte   W16
 .byte   Cn5
 .byte   W16
 .byte   An4
 .byte   W16
 .byte   Bn4
 .byte   W16
 .byte   Gn4
 .byte   W16
 .byte   An4
 .byte   W16
 .byte   PEND 
@  #08 @018   ----------------------------------------
 .byte   TIE ,En4
 .byte   W96
@  #08 @019   ----------------------------------------
 .byte   W96
@  #08 @020   ----------------------------------------
 .byte   W96
@  #08 @021   ----------------------------------------
 .byte   N96 ,Cn4
 .byte   W96
@  #08 @022   ----------------------------------------
 .byte   EOT
 .byte   En4
Label_013140C3:
 .byte   N64 ,Cn4 ,v100
 .byte   W64
 .byte   N16 ,Bn3
 .byte   W16
 .byte   Cn4
 .byte   W16
 .byte   PEND 
@  #08 @023   ----------------------------------------
Label_013140CD:
 .byte   N64 ,Dn4 ,v100
 .byte   W64
 .byte   N16
 .byte   W16
 .byte   En4
 .byte   W16
 .byte   PEND 
@  #08 @024   ----------------------------------------
 .byte   N96 ,Fs4
 .byte   W96
@  #08 @025   ----------------------------------------
Label_013140D9:
 .byte   N64 ,Cs4 ,v100
 .byte   W64
 .byte   N16 ,Bn3
 .byte   W16
 .byte   An3
 .byte   W16
 .byte   PEND 
@  #08 @026   ----------------------------------------
 .byte   TIE ,Bn3
 .byte   W96
@  #08 @027   ----------------------------------------
 .byte   W48
 .byte   EOT
 .byte   N48 ,En4
 .byte   W48
@  #08 @028   ----------------------------------------
 .byte   TIE ,Fs4
 .byte   W96
@  #08 @029   ----------------------------------------
 .byte   W64
 .byte   EOT
 .byte   N16 ,Gs4
 .byte   W16
 .byte   An4
 .byte   W16
@  #08 @030   ----------------------------------------
 .byte   N96 ,Fs4
 .byte   W96
@  #08 @031   ----------------------------------------
 .byte   En4
 .byte   W96
@  #08 @032   ----------------------------------------
 .byte   W96
@  #08 @033   ----------------------------------------
 .byte   W96
@  #08 @034   ----------------------------------------
 .byte   W96
@  #08 @035   ----------------------------------------
 .byte   W96
@  #08 @036   ----------------------------------------
 .byte   W96
@  #08 @037   ----------------------------------------
 .byte   W96
@  #08 @038   ----------------------------------------
 .byte   W96
@  #08 @039   ----------------------------------------
 .byte   W96
@  #08 @040   ----------------------------------------
 .byte   W96
@  #08 @041   ----------------------------------------
 .byte   W96
@  #08 @042   ----------------------------------------
 .byte   W96
@  #08 @043   ----------------------------------------
 .byte   W96
@  #08 @044   ----------------------------------------
 .byte   W96
@  #08 @045   ----------------------------------------
 .byte   W96
@  #08 @046   ----------------------------------------
 .byte   W96
@  #08 @047   ----------------------------------------
 .byte   W96
@  #08 @048   ----------------------------------------
 .byte   PATT
  .word Label_013140A0
@  #08 @049   ----------------------------------------
 .byte   PATT
  .word Label_013140AA
@  #08 @050   ----------------------------------------
 .byte   TIE ,En4 ,v100
 .byte   W96
@  #08 @051   ----------------------------------------
 .byte   W96
@  #08 @052   ----------------------------------------
 .byte   W96
@  #08 @053   ----------------------------------------
 .byte   N96 ,Cn4
 .byte   W96
@  #08 @054   ----------------------------------------
 .byte   EOT
 .byte   En4
@  #08 @055   ----------------------------------------
 .byte   PATT
  .word Label_013140C3
@  #08 @056   ----------------------------------------
 .byte   PATT
  .word Label_013140CD
@  #08 @057   ----------------------------------------
 .byte   N96 ,Fs4 ,v100
 .byte   W96
@  #08 @058   ----------------------------------------
 .byte   PATT
  .word Label_013140D9
@  #08 @059   ----------------------------------------
 .byte   TIE ,Bn3 ,v100
 .byte   W96
@  #08 @060   ----------------------------------------
 .byte   W48
 .byte   EOT
 .byte   N48 ,En4
 .byte   W48
@  #08 @061   ----------------------------------------
 .byte   TIE ,Fs4
 .byte   W96
@  #08 @062   ----------------------------------------
 .byte   W64
 .byte   EOT
 .byte   N16 ,Gs4
 .byte   W16
 .byte   An4
 .byte   W16
@  #08 @063   ----------------------------------------
 .byte   N96 ,Fs4
 .byte   W96
@  #08 @064   ----------------------------------------
 .byte   En4
 .byte   W96
@  #08 @065   ----------------------------------------
 .byte   GOTO
  .word Label_0131408A
 .byte   FINE

@**************** Track 9 (Midi-Chn.8) ****************@

OssaTrail_009:
@  #09 @000   ----------------------------------------
 .byte   KEYSH , OssaTrail_key+0
Label_01314152:
 .byte   VOICE , 77
 .byte   VOL , 36*OssaTrail_mvl/mxv
 .byte   PAN , c_v+22
 .byte   W96
@  #09 @001   ----------------------------------------
 .byte   W96
@  #09 @002   ----------------------------------------
 .byte   W96
@  #09 @003   ----------------------------------------
 .byte   W96
@  #09 @004   ----------------------------------------
 .byte   W96
@  #09 @005   ----------------------------------------
 .byte   W96
@  #09 @006   ----------------------------------------
 .byte   W96
@  #09 @007   ----------------------------------------
 .byte   W96
@  #09 @008   ----------------------------------------
 .byte   W96
@  #09 @009   ----------------------------------------
 .byte   W96
@  #09 @010   ----------------------------------------
 .byte   W96
@  #09 @011   ----------------------------------------
 .byte   W96
@  #09 @012   ----------------------------------------
 .byte   W96
@  #09 @013   ----------------------------------------
 .byte   W96
@  #09 @014   ----------------------------------------
 .byte   W96
@  #09 @015   ----------------------------------------
 .byte   W96
@  #09 @016   ----------------------------------------
Label_01314168:
 .byte   N60 ,En5 ,v100
 .byte   W64
 .byte   N16 ,Cn5
 .byte   W16
 .byte   Dn5
 .byte   W16
 .byte   PEND 
@  #09 @017   ----------------------------------------
Label_01314172:
 .byte   N16 ,Bn4 ,v100
 .byte   W16
 .byte   Cn5
 .byte   W16
 .byte   An4
 .byte   W16
 .byte   Bn4
 .byte   W16
 .byte   Gn4
 .byte   W16
 .byte   An4
 .byte   W16
 .byte   PEND 
@  #09 @018   ----------------------------------------
 .byte   TIE ,En4
 .byte   W96
@  #09 @019   ----------------------------------------
 .byte   W96
@  #09 @020   ----------------------------------------
 .byte   W96
@  #09 @021   ----------------------------------------
 .byte   N96 ,Cn4
 .byte   W96
@  #09 @022   ----------------------------------------
 .byte   EOT
 .byte   En4
Label_0131418B:
 .byte   N64 ,Cn4 ,v100
 .byte   W64
 .byte   N16 ,Bn3
 .byte   W16
 .byte   Cn4
 .byte   W16
 .byte   PEND 
@  #09 @023   ----------------------------------------
Label_01314195:
 .byte   N64 ,Dn4 ,v100
 .byte   W64
 .byte   N16
 .byte   W16
 .byte   En4
 .byte   W16
 .byte   PEND 
@  #09 @024   ----------------------------------------
 .byte   N96 ,Fs4
 .byte   W96
@  #09 @025   ----------------------------------------
Label_013141A1:
 .byte   N64 ,Cs4 ,v100
 .byte   W64
 .byte   N16 ,Bn3
 .byte   W16
 .byte   An3
 .byte   W16
 .byte   PEND 
@  #09 @026   ----------------------------------------
 .byte   TIE ,Bn3
 .byte   W96
@  #09 @027   ----------------------------------------
 .byte   W48
 .byte   EOT
 .byte   N48 ,En4
 .byte   W48
@  #09 @028   ----------------------------------------
 .byte   TIE ,Fs4
 .byte   W96
@  #09 @029   ----------------------------------------
 .byte   W64
 .byte   EOT
 .byte   N16 ,Gs4
 .byte   W16
 .byte   An4
 .byte   W16
@  #09 @030   ----------------------------------------
 .byte   N96 ,Fs4
 .byte   W96
@  #09 @031   ----------------------------------------
 .byte   En4
 .byte   W96
@  #09 @032   ----------------------------------------
 .byte   W96
@  #09 @033   ----------------------------------------
 .byte   W96
@  #09 @034   ----------------------------------------
 .byte   W96
@  #09 @035   ----------------------------------------
 .byte   W96
@  #09 @036   ----------------------------------------
 .byte   W96
@  #09 @037   ----------------------------------------
 .byte   W96
@  #09 @038   ----------------------------------------
 .byte   W96
@  #09 @039   ----------------------------------------
 .byte   W96
@  #09 @040   ----------------------------------------
 .byte   W96
@  #09 @041   ----------------------------------------
 .byte   W96
@  #09 @042   ----------------------------------------
 .byte   W96
@  #09 @043   ----------------------------------------
 .byte   W96
@  #09 @044   ----------------------------------------
 .byte   W96
@  #09 @045   ----------------------------------------
 .byte   W96
@  #09 @046   ----------------------------------------
 .byte   W96
@  #09 @047   ----------------------------------------
 .byte   W96
@  #09 @048   ----------------------------------------
 .byte   PATT
  .word Label_01314168
@  #09 @049   ----------------------------------------
 .byte   PATT
  .word Label_01314172
@  #09 @050   ----------------------------------------
 .byte   TIE ,En4 ,v100
 .byte   W96
@  #09 @051   ----------------------------------------
 .byte   W96
@  #09 @052   ----------------------------------------
 .byte   W96
@  #09 @053   ----------------------------------------
 .byte   N96 ,Cn4
 .byte   W96
@  #09 @054   ----------------------------------------
 .byte   EOT
 .byte   En4
@  #09 @055   ----------------------------------------
 .byte   PATT
  .word Label_0131418B
@  #09 @056   ----------------------------------------
 .byte   PATT
  .word Label_01314195
@  #09 @057   ----------------------------------------
 .byte   N96 ,Fs4 ,v100
 .byte   W96
@  #09 @058   ----------------------------------------
 .byte   PATT
  .word Label_013141A1
@  #09 @059   ----------------------------------------
 .byte   TIE ,Bn3 ,v100
 .byte   W96
@  #09 @060   ----------------------------------------
 .byte   W48
 .byte   EOT
 .byte   N48 ,En4
 .byte   W48
@  #09 @061   ----------------------------------------
 .byte   TIE ,Fs4
 .byte   W96
@  #09 @062   ----------------------------------------
 .byte   W64
 .byte   EOT
 .byte   N16 ,Gs4
 .byte   W16
 .byte   An4
 .byte   W16
@  #09 @063   ----------------------------------------
 .byte   N96 ,Fs4
 .byte   W96
@  #09 @064   ----------------------------------------
 .byte   En4
 .byte   W96
@  #09 @065   ----------------------------------------
 .byte   GOTO
  .word Label_01314152
 .byte   FINE

@******************************************************@
	.align	2

OssaTrail:
	.byte	9	@ NumTrks
	.byte	0	@ NumBlks
	.byte	OssaTrail_pri	@ Priority
	.byte	OssaTrail_rev	@ Reverb.
    
	.word	OssaTrail_grp
    
	.word	OssaTrail_001
	.word	OssaTrail_002
	.word	OssaTrail_003
	.word	OssaTrail_004
	.word	OssaTrail_005
	.word	OssaTrail_006
	.word	OssaTrail_007
	.word	OssaTrail_008
	.word	OssaTrail_009

	.end
