//Event file generated from Sappy .s format.
	

	#define	PowerPros3PennantHappyEnd_grp  voicegroup000
	#define	PowerPros3PennantHappyEnd_pri  0
	#define	PowerPros3PennantHappyEnd_rev  0
	#define	PowerPros3PennantHappyEnd_mvl  127
	#define	PowerPros3PennantHappyEnd_key  0
	#define	PowerPros3PennantHappyEnd_tbs  1
	#define	PowerPros3PennantHappyEnd_exg  0
	#define	PowerPros3PennantHappyEnd_cmp  1

	// .rodata
	//	PowerPros3PennantHappyEnd
	ALIGN 4


//**************** Track 1 (Midi-Chn.0) ****************//

PowerPros3PennantHappyEnd_001:
//  #01 //000   ----------------------------------------
 BYTE   KEYSH   PowerPros3PennantHappyEnd_key+0
Label_01195482:
 BYTE   TEMPO   146*PowerPros3PennantHappyEnd_tbs/2
 BYTE   VOICE   61
 BYTE   MODT 0
 BYTE   LFOS 44
 BYTE   PAN   c_v+15
 BYTE   VOL   50*PowerPros3PennantHappyEnd_mvl/mxv
 BYTE   N10  Ds3  v088
 BYTE   N10  Ds4
 BYTE   W12
 BYTE   Ds3  v044
 BYTE   N10  Ds4
 BYTE   W12
 BYTE   Fn3  v088
 BYTE   N10  Fn4
 BYTE   W12
 BYTE   Fn3  v044
 BYTE   N10  Fn4
 BYTE   W12
 BYTE   Gs3  v088
 BYTE   N10  Gs4
 BYTE   W12
 BYTE   Gs3  v044
 BYTE   N10  Gs4
 BYTE   W11
 BYTE   BEND   c_v-63
 BYTE   W01
 BYTE   BEND   c_v-53
 BYTE   N16  Fn4  v088
 BYTE   N16  Fn5
 BYTE   W01
 BYTE   BEND   c_v-42
 BYTE   W01
 BYTE   BEND   c_v-32
 BYTE   W01
 BYTE   BEND   c_v-21
 BYTE   W01
 BYTE   BEND   c_v-11
 BYTE   W01
 BYTE   BEND   c_v+0
 BYTE   W13
 BYTE   N04  Ds4
 BYTE   N04  Ds5
 BYTE   W06
//  #01 //001   ----------------------------------------
Label_011954C7:
 BYTE   N04  Ds4  v044
 BYTE   N04  Ds5
 BYTE   W06
 BYTE   N16  Cs4  v088
 BYTE   N16  Cs5
 BYTE   W18
 BYTE   N04  Cn4
 BYTE   N04  Cn5
 BYTE   W06
 BYTE   Cn4  v044
 BYTE   N04  Cn5
 BYTE   W06
 BYTE   Cs4  v088
 BYTE   N04  Cs5
 BYTE   W06
 BYTE   Cs4  v044
 BYTE   N04  Cs5
 BYTE   W06
 BYTE   Ds4  v088
 BYTE   N04  Ds5
 BYTE   W06
 BYTE   Ds4  v044
 BYTE   N04  Ds5
 BYTE   W06
 BYTE   N10  Ds3  v088
 BYTE   N10  Ds4
 BYTE   W12
 BYTE   Fn3
 BYTE   N10  Fn4
 BYTE   W12
 BYTE   Gs3
 BYTE   N10  Gs4
 BYTE   W12
 BYTE   PEND 
//  #01 //002   ----------------------------------------
Label_01195500:
 BYTE   N16  As3  v088
 BYTE   N16  As4
 BYTE   W18
 BYTE   N04  Cn4
 BYTE   N04  Cn5
 BYTE   W06
 BYTE   Cn4  v044
 BYTE   N04  Cn5
 BYTE   W06
 BYTE   Cn4
 BYTE   N04  Cn5
 BYTE   W06
 BYTE   N56  Cn4  v088
 BYTE   N56  Cn5
 BYTE   W60
 BYTE   PEND 
//  #01 //003   ----------------------------------------
 BYTE   W96
//  #01 //004   ----------------------------------------
Label_0119551C:
 BYTE   N10  Ds3  v088
 BYTE   N10  Ds4
 BYTE   W12
 BYTE   Ds3  v044
 BYTE   N10  Ds4
 BYTE   W12
 BYTE   Fn3  v088
 BYTE   N10  Fn4
 BYTE   W12
 BYTE   Fn3  v044
 BYTE   N10  Fn4
 BYTE   W12
 BYTE   Gs3  v088
 BYTE   N10  Gs4
 BYTE   W12
 BYTE   Gs3  v044
 BYTE   N10  Gs4
 BYTE   W11
 BYTE   BEND   c_v-63
 BYTE   W01
 BYTE   BEND   c_v-53
 BYTE   N16  Fn4  v088
 BYTE   N16  Fn5
 BYTE   W01
 BYTE   BEND   c_v-42
 BYTE   W01
 BYTE   BEND   c_v-32
 BYTE   W01
 BYTE   BEND   c_v-21
 BYTE   W01
 BYTE   BEND   c_v-11
 BYTE   W01
 BYTE   BEND   c_v+0
 BYTE   W13
 BYTE   N04  Ds4
 BYTE   N04  Ds5
 BYTE   W06
 BYTE   PEND 
//  #01 //005   ----------------------------------------
 BYTE   PATT
  POIN2 Label_011954C7
//  #01 //006   ----------------------------------------
Label_0119555B:
 BYTE   N16  As3  v088
 BYTE   N16  As4
 BYTE   W18
 BYTE   N04  Cn4
 BYTE   N04  Cn5
 BYTE   W06
 BYTE   Cn4  v044
 BYTE   N04  Cn5
 BYTE   W06
 BYTE   Cn4
 BYTE   N04  Cn5
 BYTE   W06
 BYTE   N56  Ds4  v088
 BYTE   N56  Ds5
 BYTE   W60
 BYTE   PEND 
//  #01 //007   ----------------------------------------
 BYTE   W96
//  #01 //008   ----------------------------------------
Label_01195577:
 BYTE   W36
 BYTE   N10  Ds3  v088
 BYTE   N10  Ds4
 BYTE   W12
 BYTE   Ds3
 BYTE   N10  Ds4
 BYTE   W12
 BYTE   N22  Fn3
 BYTE   N22  Fn4
 BYTE   W24
 BYTE   Gs3
 BYTE   N22  Gs4
 BYTE   W12
 BYTE   PEND 
//  #01 //009   ----------------------------------------
Label_0119558C:
 BYTE   W12
 BYTE   N22  Gn3  v088
 BYTE   N22  Gn4
 BYTE   W24
 BYTE   Gs3
 BYTE   N22  Gs4
 BYTE   W24
 BYTE   As3
 BYTE   N22  As4
 BYTE   W24
 BYTE   Fn3
 BYTE   N22  Fn4
 BYTE   W12
 BYTE   PEND 
//  #01 //010   ----------------------------------------
Label_011955A0:
 BYTE   W12
 BYTE   N10  Ds3  v088
 BYTE   N10  Ds4
 BYTE   W12
 BYTE   N68  Ds3
 BYTE   N68  Ds4
 BYTE   W72
 BYTE   PEND 
//  #01 //011   ----------------------------------------
 BYTE   W96
//  #01 //012   ----------------------------------------
 BYTE   PATT
  POIN2 Label_01195577
//  #01 //013   ----------------------------------------
Label_011955B3:
 BYTE   W12
 BYTE   N22  Gn3  v088
 BYTE   N22  Gn4
 BYTE   W24
 BYTE   Gs3
 BYTE   N22  Gs4
 BYTE   W24
 BYTE   As3
 BYTE   N22  As4
 BYTE   W24
 BYTE   As3
 BYTE   N22  As4
 BYTE   W12
 BYTE   PEND 
//  #01 //014   ----------------------------------------
Label_011955C7:
 BYTE   W12
 BYTE   N10  Cn4  v088
 BYTE   N10  Cn5
 BYTE   W12
 BYTE   N68  Cn4
 BYTE   N68  Cn5
 BYTE   W72
 BYTE   PEND 
//  #01 //015   ----------------------------------------
Label_011955D4:
 BYTE   W48
 BYTE   N10  Cn4  v088
 BYTE   N10  Cn5
 BYTE   W12
 BYTE   N22  Cs4
 BYTE   N22  Cs5
 BYTE   W24
 BYTE   N10  Ds4
 BYTE   N10  Ds5
 BYTE   W12
 BYTE   PEND 
//  #01 //016   ----------------------------------------
Label_011955E6:
 BYTE   N10  Ds4  v044
 BYTE   N10  Ds5
 BYTE   W11
 BYTE   BEND   c_v-63
 BYTE   W01
 BYTE   BEND   c_v-53
 BYTE   N10  Ds4  v088
 BYTE   N10  Ds5
 BYTE   W01
 BYTE   BEND   c_v-42
 BYTE   W01
 BYTE   BEND   c_v-32
 BYTE   W01
 BYTE   BEND   c_v-21
 BYTE   W01
 BYTE   BEND   c_v-11
 BYTE   W01
 BYTE   BEND   c_v+0
 BYTE   W07
 BYTE   N10  Cs4
 BYTE   N10  Cs5
 BYTE   W12
 BYTE   Cs4  v044
 BYTE   N10  Cs5
 BYTE   W12
 BYTE   Cn4  v088
 BYTE   N10  Cn5
 BYTE   W12
 BYTE   Cn4  v044
 BYTE   N10  Cn5
 BYTE   W12
 BYTE   Ds3  v088
 BYTE   N10  Ds4
 BYTE   W12
 BYTE   N22  Gs3
 BYTE   N22  Gs4
 BYTE   W12
 BYTE   PEND 
//  #01 //017   ----------------------------------------
Label_01195620:
 BYTE   W12
 BYTE   N22  As3  v088
 BYTE   N22  As4
 BYTE   W24
 BYTE   N10  As3  v044
 BYTE   N10  As4
 BYTE   W12
 BYTE   As3  v024
 BYTE   N10  As4
 BYTE   W12
 BYTE   Cn4  v088
 BYTE   N10  Cn5
 BYTE   W12
 BYTE   Cs4
 BYTE   N10  Cs5
 BYTE   W12
 BYTE   N22  Ds4
 BYTE   N22  Ds5
 BYTE   W12
 BYTE   PEND 
//  #01 //018   ----------------------------------------
Label_01195641:
 BYTE   W12
 BYTE   N10  Ds4  v088
 BYTE   N10  Ds5
 BYTE   W12
 BYTE   Cs4
 BYTE   N10  Cs5
 BYTE   W12
 BYTE   Cs4  v044
 BYTE   N10  Cs5
 BYTE   W12
 BYTE   Cn4  v088
 BYTE   N10  Cn5
 BYTE   W12
 BYTE   Cn4  v044
 BYTE   N10  Cn5
 BYTE   W11
 BYTE   BEND   c_v-63
 BYTE   W01
 BYTE   BEND   c_v-53
 BYTE   N10  Fn4  v088
 BYTE   N10  Fn5
 BYTE   W01
 BYTE   BEND   c_v-42
 BYTE   W01
 BYTE   BEND   c_v-32
 BYTE   W01
 BYTE   BEND   c_v-21
 BYTE   W01
 BYTE   BEND   c_v-11
 BYTE   W01
 BYTE   BEND   c_v+0
 BYTE   W07
 BYTE   N22  Ds4
 BYTE   N22  Ds5
 BYTE   W12
 BYTE   PEND 
//  #01 //019   ----------------------------------------
Label_01195676:
 BYTE   W12
 BYTE   N10  Ds4  v044
 BYTE   N10  Ds5
 BYTE   W12
 BYTE   Ds4  v024
 BYTE   N10  Ds5
 BYTE   W12
 BYTE   Ds4  v008
 BYTE   N10  Ds5
 BYTE   W24
 BYTE   Cn4  v088
 BYTE   N10  Cn5
 BYTE   W12
 BYTE   Cs4
 BYTE   N10  Cs5
 BYTE   W12
 BYTE   Ds4
 BYTE   N10  Ds5
 BYTE   W12
 BYTE   PEND 
//  #01 //020   ----------------------------------------
Label_01195695:
 BYTE   N10  Ds4  v044
 BYTE   N10  Ds5
 BYTE   W11
 BYTE   BEND   c_v-63
 BYTE   W01
 BYTE   BEND   c_v-53
 BYTE   N10  Ds4  v088
 BYTE   N10  Ds5
 BYTE   W01
 BYTE   BEND   c_v-42
 BYTE   W01
 BYTE   BEND   c_v-32
 BYTE   W01
 BYTE   BEND   c_v-21
 BYTE   W01
 BYTE   BEND   c_v-11
 BYTE   W01
 BYTE   BEND   c_v+0
 BYTE   W07
 BYTE   N10  Cs4
 BYTE   N10  Cs5
 BYTE   W12
 BYTE   Cs4  v044
 BYTE   N10  Cs5
 BYTE   W12
 BYTE   Cn4  v088
 BYTE   N10  Cn5
 BYTE   W12
 BYTE   Cn4  v044
 BYTE   N10  Cn5
 BYTE   W12
 BYTE   Fn3  v088
 BYTE   N10  Fn4
 BYTE   W12
 BYTE   N22  Gs3
 BYTE   N22  Gs4
 BYTE   W12
 BYTE   PEND 
//  #01 //021   ----------------------------------------
Label_011956CF:
 BYTE   W12
 BYTE   N10  As3  v088
 BYTE   N10  As4
 BYTE   W12
 BYTE   As3  v044
 BYTE   N10  As4
 BYTE   W12
 BYTE   Ds3  v088
 BYTE   N10  Ds4
 BYTE   W12
 BYTE   Gs3
 BYTE   N10  Gs4
 BYTE   W12
 BYTE   As3
 BYTE   N10  As4
 BYTE   W12
 BYTE   Cn4
 BYTE   N10  Cn5
 BYTE   W12
 BYTE   N68  Cs4
 BYTE   N68  Cs5
 BYTE   W12
 BYTE   PEND 
//  #01 //022   ----------------------------------------
Label_011956F2:
 BYTE   W60
 BYTE   N10  Cn4  v088
 BYTE   N10  Cn5
 BYTE   W12
 BYTE   Cs4
 BYTE   N10  Cs5
 BYTE   W12
 BYTE   N80  Ds4
 BYTE   N80  Ds5
 BYTE   W12
 BYTE   PEND 
//  #01 //023   ----------------------------------------
 BYTE   W96
//  #01 //024   ----------------------------------------
Label_01195704:
 BYTE   W12
 BYTE   N10  Fn4  v088
 BYTE   N10  Fn5
 BYTE   W12
 BYTE   Cn4
 BYTE   N10  Cn5
 BYTE   W12
 BYTE   Ds4
 BYTE   N10  Ds5
 BYTE   W12
 BYTE   Ds4  v044
 BYTE   N10  Ds5
 BYTE   W12
 BYTE   Cn4  v088
 BYTE   N10  Cn5
 BYTE   W12
 BYTE   Cs4
 BYTE   N10  Cs5
 BYTE   W12
 BYTE   Ds4
 BYTE   N10  Ds5
 BYTE   W12
 BYTE   PEND 
//  #01 //025   ----------------------------------------
Label_01195726:
 BYTE   N22  Ds4  v060
 BYTE   N22  Ds5
 BYTE   W24
 BYTE   Ds4  v036
 BYTE   N22  Ds5
 BYTE   W24
 BYTE   Ds4  v020
 BYTE   N22  Ds5
 BYTE   W24
 BYTE   Ds4  v008
 BYTE   N22  Ds5
 BYTE   W24
 BYTE   PEND 
//  #01 //026   ----------------------------------------
Label_0119573C:
 BYTE   W36
 BYTE   N10  Ds3  v088
 BYTE   N10  Ds4
 BYTE   W12
 BYTE   Gs3
 BYTE   N10  Gs4
 BYTE   W12
 BYTE   As3
 BYTE   N10  As4
 BYTE   W12
 BYTE   Cn4
 BYTE   N10  Cn5
 BYTE   W12
 BYTE   N22  Cs4
 BYTE   N22  Cs5
 BYTE   W12
 BYTE   PEND 
//  #01 //027   ----------------------------------------
Label_01195755:
 BYTE   W12
 BYTE   N10  Cs4  v088
 BYTE   N10  Cs5
 BYTE   W12
 BYTE   Cn4
 BYTE   N10  Cn5
 BYTE   W12
 BYTE   Cn4  v044
 BYTE   N10  Cn5
 BYTE   W12
 BYTE   Gs3  v088
 BYTE   N10  Gs4
 BYTE   W12
 BYTE   Gs3  v044
 BYTE   N10  Gs4
 BYTE   W12
 BYTE   Ds3  v088
 BYTE   N10  Ds4
 BYTE   W12
 BYTE   N22  Fn3
 BYTE   N22  Fn4
 BYTE   W12
 BYTE   PEND 
//  #01 //028   ----------------------------------------
Label_0119577A:
 BYTE   W12
 BYTE   N10  Gs3  v088
 BYTE   N10  Gs4
 BYTE   W12
 BYTE   N22  Gs3
 BYTE   N22  Gs4
 BYTE   W36
 BYTE   N10  Cn4
 BYTE   N10  Cn5
 BYTE   W12
 BYTE   Cs4
 BYTE   N10  Cs5
 BYTE   W12
 BYTE   Ds4
 BYTE   N10  Ds5
 BYTE   W12
 BYTE   PEND 
//  #01 //029   ----------------------------------------
 BYTE   W96
//  #01 //030   ----------------------------------------
 BYTE   PATT
  POIN2 Label_0119573C
//  #01 //031   ----------------------------------------
 BYTE   PATT
  POIN2 Label_01195755
//  #01 //032   ----------------------------------------
 BYTE   PATT
  POIN2 Label_0119577A
//  #01 //033   ----------------------------------------
 BYTE   W96
//  #01 //034   ----------------------------------------
 BYTE   PATT
  POIN2 Label_0119573C
//  #01 //035   ----------------------------------------
 BYTE   PATT
  POIN2 Label_01195755
//  #01 //036   ----------------------------------------
 BYTE   PATT
  POIN2 Label_0119577A
//  #01 //037   ----------------------------------------
 BYTE   W96
//  #01 //038   ----------------------------------------
 BYTE   PATT
  POIN2 Label_0119573C
//  #01 //039   ----------------------------------------
 BYTE   PATT
  POIN2 Label_01195755
//  #01 //040   ----------------------------------------
 BYTE   PATT
  POIN2 Label_0119577A
//  #01 //041   ----------------------------------------
 BYTE   PATT
  POIN2 Label_0119551C
//  #01 //042   ----------------------------------------
 BYTE   PATT
  POIN2 Label_011954C7
//  #01 //043   ----------------------------------------
 BYTE   PATT
  POIN2 Label_01195500
//  #01 //044   ----------------------------------------
 BYTE   W96
//  #01 //045   ----------------------------------------
 BYTE   PATT
  POIN2 Label_0119551C
//  #01 //046   ----------------------------------------
 BYTE   PATT
  POIN2 Label_011954C7
//  #01 //047   ----------------------------------------
 BYTE   PATT
  POIN2 Label_0119555B
//  #01 //048   ----------------------------------------
 BYTE   W96
//  #01 //049   ----------------------------------------
 BYTE   PATT
  POIN2 Label_01195577
//  #01 //050   ----------------------------------------
 BYTE   PATT
  POIN2 Label_0119558C
//  #01 //051   ----------------------------------------
 BYTE   PATT
  POIN2 Label_011955A0
//  #01 //052   ----------------------------------------
 BYTE   W96
//  #01 //053   ----------------------------------------
 BYTE   PATT
  POIN2 Label_01195577
//  #01 //054   ----------------------------------------
 BYTE   PATT
  POIN2 Label_011955B3
//  #01 //055   ----------------------------------------
 BYTE   PATT
  POIN2 Label_011955C7
//  #01 //056   ----------------------------------------
 BYTE   PATT
  POIN2 Label_011955D4
//  #01 //057   ----------------------------------------
 BYTE   PATT
  POIN2 Label_011955E6
//  #01 //058   ----------------------------------------
 BYTE   PATT
  POIN2 Label_01195620
//  #01 //059   ----------------------------------------
 BYTE   PATT
  POIN2 Label_01195641
//  #01 //060   ----------------------------------------
 BYTE   PATT
  POIN2 Label_01195676
//  #01 //061   ----------------------------------------
 BYTE   PATT
  POIN2 Label_01195695
//  #01 //062   ----------------------------------------
 BYTE   PATT
  POIN2 Label_011956CF
//  #01 //063   ----------------------------------------
 BYTE   PATT
  POIN2 Label_011956F2
//  #01 //064   ----------------------------------------
 BYTE   W96
//  #01 //065   ----------------------------------------
 BYTE   PATT
  POIN2 Label_01195704
//  #01 //066   ----------------------------------------
 BYTE   PATT
  POIN2 Label_01195726
//  #01 //067   ----------------------------------------
 BYTE   PATT
  POIN2 Label_0119573C
//  #01 //068   ----------------------------------------
 BYTE   PATT
  POIN2 Label_01195755
//  #01 //069   ----------------------------------------
 BYTE   PATT
  POIN2 Label_0119577A
//  #01 //070   ----------------------------------------
 BYTE   W96
//  #01 //071   ----------------------------------------
 BYTE   PATT
  POIN2 Label_0119573C
//  #01 //072   ----------------------------------------
 BYTE   PATT
  POIN2 Label_01195755
//  #01 //073   ----------------------------------------
 BYTE   PATT
  POIN2 Label_0119577A
//  #01 //074   ----------------------------------------
 BYTE   W96
//  #01 //075   ----------------------------------------
 BYTE   PATT
  POIN2 Label_0119573C
//  #01 //076   ----------------------------------------
 BYTE   PATT
  POIN2 Label_01195755
//  #01 //077   ----------------------------------------
 BYTE   PATT
  POIN2 Label_0119577A
//  #01 //078   ----------------------------------------
 BYTE   W96
//  #01 //079   ----------------------------------------
 BYTE   PATT
  POIN2 Label_0119573C
//  #01 //080   ----------------------------------------
 BYTE   PATT
  POIN2 Label_01195755
//  #01 //081   ----------------------------------------
 BYTE   PATT
  POIN2 Label_0119577A
//  #01 //082   ----------------------------------------
 BYTE   VOL   50*PowerPros3PennantHappyEnd_mvl/mxv
 BYTE   N10  Ds3  v088
 BYTE   N10  Ds4
 BYTE   W06
 BYTE   VOL   48*PowerPros3PennantHappyEnd_mvl/mxv
 BYTE   W06
 BYTE   VOL   48*PowerPros3PennantHappyEnd_mvl/mxv
 BYTE   N10  Ds3  v044
 BYTE   N10  Ds4
 BYTE   W06
 BYTE   VOL   45*PowerPros3PennantHappyEnd_mvl/mxv
 BYTE   W06
 BYTE   VOL   44*PowerPros3PennantHappyEnd_mvl/mxv
 BYTE   N10  Fn3  v088
 BYTE   N10  Fn4
 BYTE   W06
 BYTE   VOL   43*PowerPros3PennantHappyEnd_mvl/mxv
 BYTE   W06
 BYTE   VOL   41*PowerPros3PennantHappyEnd_mvl/mxv
 BYTE   N10  Fn3  v044
 BYTE   N10  Fn4
 BYTE   W06
 BYTE   VOL   40*PowerPros3PennantHappyEnd_mvl/mxv
 BYTE   W06
 BYTE   VOL   39*PowerPros3PennantHappyEnd_mvl/mxv
 BYTE   N10  Gs3  v088
 BYTE   N10  Gs4
 BYTE   W06
 BYTE   VOL   38*PowerPros3PennantHappyEnd_mvl/mxv
 BYTE   W06
 BYTE   VOL   36*PowerPros3PennantHappyEnd_mvl/mxv
 BYTE   N10  Gs3  v044
 BYTE   N10  Gs4
 BYTE   W06
 BYTE   VOL   36*PowerPros3PennantHappyEnd_mvl/mxv
 BYTE   W05
 BYTE   BEND   c_v-63
 BYTE   W01
 BYTE   VOL   33*PowerPros3PennantHappyEnd_mvl/mxv
 BYTE   BEND   c_v-53
 BYTE   N16  Fn4  v088
 BYTE   N16  Fn5
 BYTE   W01
 BYTE   BEND   c_v-42
 BYTE   W01
 BYTE   BEND   c_v-32
 BYTE   W01
 BYTE   BEND   c_v-21
 BYTE   W01
 BYTE   BEND   c_v-11
 BYTE   W01
 BYTE   BEND   c_v+0
 BYTE   W01
 BYTE   VOL   32*PowerPros3PennantHappyEnd_mvl/mxv
 BYTE   W06
 BYTE   VOL   31*PowerPros3PennantHappyEnd_mvl/mxv
 BYTE   W06
 BYTE   VOL   29*PowerPros3PennantHappyEnd_mvl/mxv
 BYTE   N04  Ds4
 BYTE   N04  Ds5
 BYTE   W06
//  #01 //083   ----------------------------------------
 BYTE   VOL   29*PowerPros3PennantHappyEnd_mvl/mxv
 BYTE   N04  Ds4  v044
 BYTE   N04  Ds5
 BYTE   W06
 BYTE   VOL   27*PowerPros3PennantHappyEnd_mvl/mxv
 BYTE   N16  Cs4  v088
 BYTE   N16  Cs5
 BYTE   W06
 BYTE   VOL   26*PowerPros3PennantHappyEnd_mvl/mxv
 BYTE   W06
 BYTE   VOL   25*PowerPros3PennantHappyEnd_mvl/mxv
 BYTE   W06
 BYTE   VOL   24*PowerPros3PennantHappyEnd_mvl/mxv
 BYTE   N04  Cn4
 BYTE   N04  Cn5
 BYTE   W06
 BYTE   VOL   22*PowerPros3PennantHappyEnd_mvl/mxv
 BYTE   N04  Cn4  v044
 BYTE   N04  Cn5
 BYTE   W06
 BYTE   VOL   21*PowerPros3PennantHappyEnd_mvl/mxv
 BYTE   N04  Cs4  v088
 BYTE   N04  Cs5
 BYTE   W06
 BYTE   VOL   21*PowerPros3PennantHappyEnd_mvl/mxv
 BYTE   N04  Cs4  v044
 BYTE   N04  Cs5
 BYTE   W06
 BYTE   VOL   19*PowerPros3PennantHappyEnd_mvl/mxv
 BYTE   N04  Ds4  v088
 BYTE   N04  Ds5
 BYTE   W06
 BYTE   VOL   18*PowerPros3PennantHappyEnd_mvl/mxv
 BYTE   N04  Ds4  v044
 BYTE   N04  Ds5
 BYTE   W06
 BYTE   VOL   17*PowerPros3PennantHappyEnd_mvl/mxv
 BYTE   N10  Ds3  v088
 BYTE   N10  Ds4
 BYTE   W06
 BYTE   VOL   15*PowerPros3PennantHappyEnd_mvl/mxv
 BYTE   W06
 BYTE   VOL   15*PowerPros3PennantHappyEnd_mvl/mxv
 BYTE   N10  Fn3
 BYTE   N10  Fn4
 BYTE   W06
 BYTE   VOL   14*PowerPros3PennantHappyEnd_mvl/mxv
 BYTE   W06
 BYTE   VOL   12*PowerPros3PennantHappyEnd_mvl/mxv
 BYTE   N10  Gs3
 BYTE   N10  Gs4
 BYTE   W06
 BYTE   VOL   11*PowerPros3PennantHappyEnd_mvl/mxv
 BYTE   W06
//  #01 //084   ----------------------------------------
 BYTE   VOL   10*PowerPros3PennantHappyEnd_mvl/mxv
 BYTE   N16  As3
 BYTE   N16  As4
 BYTE   W06
 BYTE   VOL   9*PowerPros3PennantHappyEnd_mvl/mxv
 BYTE   W06
 BYTE   VOL   8*PowerPros3PennantHappyEnd_mvl/mxv
 BYTE   W06
 BYTE   VOL   7*PowerPros3PennantHappyEnd_mvl/mxv
 BYTE   N04  Cn4
 BYTE   N04  Cn5
 BYTE   W06
 BYTE   VOL   6*PowerPros3PennantHappyEnd_mvl/mxv
 BYTE   N04  Cn4  v044
 BYTE   N04  Cn5
 BYTE   W06
 BYTE   VOL   5*PowerPros3PennantHappyEnd_mvl/mxv
 BYTE   N04  Cn4
 BYTE   N04  Cn5
 BYTE   W06
 BYTE   VOL   4*PowerPros3PennantHappyEnd_mvl/mxv
 BYTE   N56  Cn4  v088
 BYTE   N56  Cn5
 BYTE   W06
 BYTE   VOL   3*PowerPros3PennantHappyEnd_mvl/mxv
 BYTE   W06
 BYTE   VOL   2*PowerPros3PennantHappyEnd_mvl/mxv
 BYTE   W06
 BYTE   VOL   1*PowerPros3PennantHappyEnd_mvl/mxv
 BYTE   W06
 BYTE   VOL   0*PowerPros3PennantHappyEnd_mvl/mxv
 BYTE   W06
 BYTE   VOL   0*PowerPros3PennantHappyEnd_mvl/mxv
 BYTE   W06
 BYTE   VOL   0*PowerPros3PennantHappyEnd_mvl/mxv
 BYTE   W06
 BYTE   VOL   0*PowerPros3PennantHappyEnd_mvl/mxv
 BYTE   W06
 BYTE   VOL   0*PowerPros3PennantHappyEnd_mvl/mxv
 BYTE   W06
 BYTE   VOL   0*PowerPros3PennantHappyEnd_mvl/mxv
 BYTE   W04
 BYTE   BEND   c_v+0
 BYTE   W02
//  #01 //085   ----------------------------------------
 BYTE   GoTo
  POIN2 Label_01195482
 BYTE   FINE

//**************** Track 2 (Midi-Chn.1) ****************//

PowerPros3PennantHappyEnd_002:
//  #02 //000   ----------------------------------------
 BYTE   KEYSH   PowerPros3PennantHappyEnd_key+0
Label_0119598E:
 BYTE   VOICE   61
 BYTE   MODT 0
 BYTE   LFOS 44
 BYTE   PAN   c_v-16
 BYTE   VOL   23*PowerPros3PennantHappyEnd_mvl/mxv
 BYTE   BEND   c_v+2
 BYTE   N10  Ds2  v088
 BYTE   N10  Ds3
 BYTE   W12
 BYTE   Ds2  v044
 BYTE   N10  Ds3
 BYTE   W12
 BYTE   Fn2  v088
 BYTE   N10  Fn3
 BYTE   W12
 BYTE   Fn2  v044
 BYTE   N10  Fn3
 BYTE   W12
 BYTE   Gs2  v088
 BYTE   N10  Gs3
 BYTE   W12
 BYTE   Gs2  v044
 BYTE   N10  Gs3
 BYTE   W11
 BYTE   BEND   c_v-61
 BYTE   W01
 BYTE   BEND   c_v-51
 BYTE   N16  Fn3  v088
 BYTE   N16  Fn4
 BYTE   W01
 BYTE   BEND   c_v-40
 BYTE   W01
 BYTE   BEND   c_v-30
 BYTE   W01
 BYTE   BEND   c_v-19
 BYTE   W01
 BYTE   BEND   c_v-9
 BYTE   W01
 BYTE   BEND   c_v+2
 BYTE   W13
 BYTE   N04  Ds3
 BYTE   N04  Ds4
 BYTE   W06
//  #02 //001   ----------------------------------------
Label_011959D3:
 BYTE   N04  Ds3  v044
 BYTE   N04  Ds4
 BYTE   W06
 BYTE   N16  Cs3  v088
 BYTE   N16  Cs4
 BYTE   W18
 BYTE   N04  Cn3
 BYTE   N04  Cn4
 BYTE   W06
 BYTE   Cn3  v044
 BYTE   N04  Cn4
 BYTE   W06
 BYTE   Cs3  v088
 BYTE   N04  Cs4
 BYTE   W06
 BYTE   Cs3  v044
 BYTE   N04  Cs4
 BYTE   W06
 BYTE   Ds3  v088
 BYTE   N04  Ds4
 BYTE   W06
 BYTE   Ds3  v044
 BYTE   N04  Ds4
 BYTE   W06
 BYTE   N10  Ds2  v088
 BYTE   N10  Ds3
 BYTE   W12
 BYTE   Fn2
 BYTE   N10  Fn3
 BYTE   W12
 BYTE   Gs2
 BYTE   N10  Gs3
 BYTE   W12
 BYTE   PEND 
//  #02 //002   ----------------------------------------
Label_01195A0C:
 BYTE   N16  As2  v088
 BYTE   N16  As3
 BYTE   W18
 BYTE   N04  Cn3
 BYTE   N04  Cn4
 BYTE   W06
 BYTE   Cn3  v044
 BYTE   N04  Cn4
 BYTE   W06
 BYTE   Cn3
 BYTE   N04  Cn4
 BYTE   W06
 BYTE   N56  Cn3  v088
 BYTE   N56  Cn4
 BYTE   W60
 BYTE   PEND 
//  #02 //003   ----------------------------------------
 BYTE   W96
//  #02 //004   ----------------------------------------
Label_01195A28:
 BYTE   N10  Ds2  v088
 BYTE   N10  Ds3
 BYTE   W12
 BYTE   Ds2  v044
 BYTE   N10  Ds3
 BYTE   W12
 BYTE   Fn2  v088
 BYTE   N10  Fn3
 BYTE   W12
 BYTE   Fn2  v044
 BYTE   N10  Fn3
 BYTE   W12
 BYTE   Gs2  v088
 BYTE   N10  Gs3
 BYTE   W12
 BYTE   Gs2  v044
 BYTE   N10  Gs3
 BYTE   W11
 BYTE   BEND   c_v-61
 BYTE   W01
 BYTE   BEND   c_v-51
 BYTE   N16  Fn3  v088
 BYTE   N16  Fn4
 BYTE   W01
 BYTE   BEND   c_v-40
 BYTE   W01
 BYTE   BEND   c_v-30
 BYTE   W01
 BYTE   BEND   c_v-19
 BYTE   W01
 BYTE   BEND   c_v-9
 BYTE   W01
 BYTE   BEND   c_v+2
 BYTE   W13
 BYTE   N04  Ds3
 BYTE   N04  Ds4
 BYTE   W06
 BYTE   PEND 
//  #02 //005   ----------------------------------------
 BYTE   PATT
  POIN2 Label_011959D3
//  #02 //006   ----------------------------------------
Label_01195A67:
 BYTE   N16  As2  v088
 BYTE   N16  As3
 BYTE   W18
 BYTE   N04  Cn3
 BYTE   N04  Cn4
 BYTE   W06
 BYTE   Cn3  v044
 BYTE   N04  Cn4
 BYTE   W06
 BYTE   Cn3
 BYTE   N04  Cn4
 BYTE   W06
 BYTE   N56  Ds3  v088
 BYTE   N56  Ds4
 BYTE   W60
 BYTE   PEND 
//  #02 //007   ----------------------------------------
 BYTE   W96
//  #02 //008   ----------------------------------------
Label_01195A83:
 BYTE   W36
 BYTE   N10  Ds2  v088
 BYTE   N10  Ds3
 BYTE   W12
 BYTE   Ds2
 BYTE   N10  Ds3
 BYTE   W12
 BYTE   N22  Fn2
 BYTE   N22  Fn3
 BYTE   W24
 BYTE   Gs2
 BYTE   N22  Gs3
 BYTE   W12
 BYTE   PEND 
//  #02 //009   ----------------------------------------
Label_01195A98:
 BYTE   W12
 BYTE   N22  Gn2  v088
 BYTE   N22  Gn3
 BYTE   W24
 BYTE   Gs2
 BYTE   N22  Gs3
 BYTE   W24
 BYTE   As2
 BYTE   N22  As3
 BYTE   W24
 BYTE   Fn2
 BYTE   N22  Fn3
 BYTE   W12
 BYTE   PEND 
//  #02 //010   ----------------------------------------
Label_01195AAC:
 BYTE   W12
 BYTE   N10  Ds2  v088
 BYTE   N10  Ds3
 BYTE   W12
 BYTE   N68  Ds2
 BYTE   N68  Ds3
 BYTE   W72
 BYTE   PEND 
//  #02 //011   ----------------------------------------
 BYTE   W96
//  #02 //012   ----------------------------------------
 BYTE   PATT
  POIN2 Label_01195A83
//  #02 //013   ----------------------------------------
Label_01195ABF:
 BYTE   W12
 BYTE   N22  Gn2  v088
 BYTE   N22  Gn3
 BYTE   W24
 BYTE   Gs2
 BYTE   N22  Gs3
 BYTE   W24
 BYTE   As2
 BYTE   N22  As3
 BYTE   W24
 BYTE   As2
 BYTE   N22  As3
 BYTE   W12
 BYTE   PEND 
//  #02 //014   ----------------------------------------
Label_01195AD3:
 BYTE   W12
 BYTE   N10  Cn3  v088
 BYTE   N10  Cn4
 BYTE   W12
 BYTE   N68  Cn3
 BYTE   N68  Cn4
 BYTE   W72
 BYTE   PEND 
//  #02 //015   ----------------------------------------
Label_01195AE0:
 BYTE   W48
 BYTE   N10  Cn3  v088
 BYTE   N10  Cn4
 BYTE   W12
 BYTE   N22  Cs3
 BYTE   N22  Cs4
 BYTE   W24
 BYTE   N10  Ds3
 BYTE   N10  Ds4
 BYTE   W12
 BYTE   PEND 
//  #02 //016   ----------------------------------------
Label_01195AF2:
 BYTE   N10  Ds3  v044
 BYTE   N10  Ds4
 BYTE   W11
 BYTE   BEND   c_v-61
 BYTE   W01
 BYTE   BEND   c_v-51
 BYTE   N10  Ds3  v088
 BYTE   N10  Ds4
 BYTE   W01
 BYTE   BEND   c_v-40
 BYTE   W01
 BYTE   BEND   c_v-30
 BYTE   W01
 BYTE   BEND   c_v-19
 BYTE   W01
 BYTE   BEND   c_v-9
 BYTE   W01
 BYTE   BEND   c_v+2
 BYTE   W07
 BYTE   N10  Cs3
 BYTE   N10  Cs4
 BYTE   W12
 BYTE   Cs3  v044
 BYTE   N10  Cs4
 BYTE   W12
 BYTE   Cn3  v088
 BYTE   N10  Cn4
 BYTE   W12
 BYTE   Cn3  v044
 BYTE   N10  Cn4
 BYTE   W12
 BYTE   Ds2  v088
 BYTE   N10  Ds3
 BYTE   W12
 BYTE   N22  Gs2
 BYTE   N22  Gs3
 BYTE   W12
 BYTE   PEND 
//  #02 //017   ----------------------------------------
Label_01195B2C:
 BYTE   W12
 BYTE   N22  As2  v088
 BYTE   N22  As3
 BYTE   W24
 BYTE   N10  As2  v044
 BYTE   N10  As3
 BYTE   W12
 BYTE   As2  v024
 BYTE   N10  As3
 BYTE   W12
 BYTE   Cn3  v088
 BYTE   N10  Cn4
 BYTE   W12
 BYTE   Cs3
 BYTE   N10  Cs4
 BYTE   W12
 BYTE   N22  Ds3
 BYTE   N22  Ds4
 BYTE   W12
 BYTE   PEND 
//  #02 //018   ----------------------------------------
Label_01195B4D:
 BYTE   W12
 BYTE   N10  Ds3  v088
 BYTE   N10  Ds4
 BYTE   W12
 BYTE   Cs3
 BYTE   N10  Cs4
 BYTE   W12
 BYTE   Cs3  v044
 BYTE   N10  Cs4
 BYTE   W12
 BYTE   Cn3  v088
 BYTE   N10  Cn4
 BYTE   W12
 BYTE   Cn3  v044
 BYTE   N10  Cn4
 BYTE   W11
 BYTE   BEND   c_v-61
 BYTE   W01
 BYTE   BEND   c_v-51
 BYTE   N10  Fn3  v088
 BYTE   N10  Fn4
 BYTE   W01
 BYTE   BEND   c_v-40
 BYTE   W01
 BYTE   BEND   c_v-30
 BYTE   W01
 BYTE   BEND   c_v-19
 BYTE   W01
 BYTE   BEND   c_v-9
 BYTE   W01
 BYTE   BEND   c_v+2
 BYTE   W07
 BYTE   N22  Ds3
 BYTE   N22  Ds4
 BYTE   W12
 BYTE   PEND 
//  #02 //019   ----------------------------------------
Label_01195B82:
 BYTE   W12
 BYTE   N10  Ds3  v044
 BYTE   N10  Ds4
 BYTE   W12
 BYTE   Ds3  v024
 BYTE   N10  Ds4
 BYTE   W12
 BYTE   Ds3  v008
 BYTE   N10  Ds4
 BYTE   W24
 BYTE   Cn3  v088
 BYTE   N10  Cn4
 BYTE   W12
 BYTE   Cs3
 BYTE   N10  Cs4
 BYTE   W12
 BYTE   Ds3
 BYTE   N10  Ds4
 BYTE   W12
 BYTE   PEND 
//  #02 //020   ----------------------------------------
Label_01195BA1:
 BYTE   N10  Ds3  v044
 BYTE   N10  Ds4
 BYTE   W11
 BYTE   BEND   c_v-61
 BYTE   W01
 BYTE   BEND   c_v-51
 BYTE   N10  Ds3  v088
 BYTE   N10  Ds4
 BYTE   W01
 BYTE   BEND   c_v-40
 BYTE   W01
 BYTE   BEND   c_v-30
 BYTE   W01
 BYTE   BEND   c_v-19
 BYTE   W01
 BYTE   BEND   c_v-9
 BYTE   W01
 BYTE   BEND   c_v+2
 BYTE   W07
 BYTE   N10  Cs3
 BYTE   N10  Cs4
 BYTE   W12
 BYTE   Cs3  v044
 BYTE   N10  Cs4
 BYTE   W12
 BYTE   Cn3  v088
 BYTE   N10  Cn4
 BYTE   W12
 BYTE   Cn3  v044
 BYTE   N10  Cn4
 BYTE   W12
 BYTE   Fn2  v088
 BYTE   N10  Fn3
 BYTE   W12
 BYTE   N22  Gs2
 BYTE   N22  Gs3
 BYTE   W12
 BYTE   PEND 
//  #02 //021   ----------------------------------------
Label_01195BDB:
 BYTE   W12
 BYTE   N10  As2  v088
 BYTE   N10  As3
 BYTE   W12
 BYTE   As2  v044
 BYTE   N10  As3
 BYTE   W12
 BYTE   Ds2  v088
 BYTE   N10  Ds3
 BYTE   W12
 BYTE   Gs2
 BYTE   N10  Gs3
 BYTE   W12
 BYTE   As2
 BYTE   N10  As3
 BYTE   W12
 BYTE   Cn3
 BYTE   N10  Cn4
 BYTE   W12
 BYTE   N68  Cs3
 BYTE   N68  Cs4
 BYTE   W12
 BYTE   PEND 
//  #02 //022   ----------------------------------------
Label_01195BFE:
 BYTE   W60
 BYTE   N10  Cn3  v088
 BYTE   N10  Cn4
 BYTE   W12
 BYTE   Cs3
 BYTE   N10  Cs4
 BYTE   W12
 BYTE   N80  Ds3
 BYTE   N80  Ds4
 BYTE   W12
 BYTE   PEND 
//  #02 //023   ----------------------------------------
 BYTE   W96
//  #02 //024   ----------------------------------------
Label_01195C10:
 BYTE   W12
 BYTE   N10  Fn3  v088
 BYTE   N10  Fn4
 BYTE   W12
 BYTE   Cn3
 BYTE   N10  Cn4
 BYTE   W12
 BYTE   Ds3
 BYTE   N10  Ds4
 BYTE   W12
 BYTE   Ds3  v044
 BYTE   N10  Ds4
 BYTE   W12
 BYTE   Cn3  v088
 BYTE   N10  Cn4
 BYTE   W12
 BYTE   Cs3
 BYTE   N10  Cs4
 BYTE   W12
 BYTE   Ds3
 BYTE   N10  Ds4
 BYTE   W12
 BYTE   PEND 
//  #02 //025   ----------------------------------------
 BYTE   W96
//  #02 //026   ----------------------------------------
Label_01195C33:
 BYTE   W36
 BYTE   N10  Ds2  v088
 BYTE   N10  Ds3
 BYTE   W12
 BYTE   Gs2
 BYTE   N10  Gs3
 BYTE   W12
 BYTE   As2
 BYTE   N10  As3
 BYTE   W12
 BYTE   Cn3
 BYTE   N10  Cn4
 BYTE   W12
 BYTE   N22  Cs3
 BYTE   N22  Cs4
 BYTE   W12
 BYTE   PEND 
//  #02 //027   ----------------------------------------
Label_01195C4C:
 BYTE   W12
 BYTE   N10  Cs3  v088
 BYTE   N10  Cs4
 BYTE   W12
 BYTE   Cn3
 BYTE   N10  Cn4
 BYTE   W12
 BYTE   Cn3  v044
 BYTE   N10  Cn4
 BYTE   W12
 BYTE   Gs2  v088
 BYTE   N10  Gs3
 BYTE   W12
 BYTE   Gs2  v044
 BYTE   N10  Gs3
 BYTE   W12
 BYTE   Ds2  v088
 BYTE   N10  Ds3
 BYTE   W12
 BYTE   N22  Fn2
 BYTE   N22  Fn3
 BYTE   W12
 BYTE   PEND 
//  #02 //028   ----------------------------------------
Label_01195C71:
 BYTE   W12
 BYTE   N10  Gs2  v088
 BYTE   N10  Gs3
 BYTE   W12
 BYTE   N22  Gs2
 BYTE   N22  Gs3
 BYTE   W36
 BYTE   N10  Cn3
 BYTE   N10  Cn4
 BYTE   W12
 BYTE   Cs3
 BYTE   N10  Cs4
 BYTE   W12
 BYTE   Ds3
 BYTE   N10  Ds4
 BYTE   W12
 BYTE   PEND 
//  #02 //029   ----------------------------------------
 BYTE   W96
//  #02 //030   ----------------------------------------
 BYTE   PATT
  POIN2 Label_01195C33
//  #02 //031   ----------------------------------------
 BYTE   PATT
  POIN2 Label_01195C4C
//  #02 //032   ----------------------------------------
 BYTE   PATT
  POIN2 Label_01195C71
//  #02 //033   ----------------------------------------
 BYTE   W96
//  #02 //034   ----------------------------------------
 BYTE   PATT
  POIN2 Label_01195C33
//  #02 //035   ----------------------------------------
 BYTE   PATT
  POIN2 Label_01195C4C
//  #02 //036   ----------------------------------------
 BYTE   PATT
  POIN2 Label_01195C71
//  #02 //037   ----------------------------------------
 BYTE   W96
//  #02 //038   ----------------------------------------
 BYTE   PATT
  POIN2 Label_01195C33
//  #02 //039   ----------------------------------------
 BYTE   PATT
  POIN2 Label_01195C4C
//  #02 //040   ----------------------------------------
 BYTE   PATT
  POIN2 Label_01195C71
//  #02 //041   ----------------------------------------
 BYTE   BEND   c_v+2
 BYTE   N10  Ds2  v088
 BYTE   N10  Ds3
 BYTE   W12
 BYTE   Ds2  v044
 BYTE   N10  Ds3
 BYTE   W12
 BYTE   Fn2  v088
 BYTE   N10  Fn3
 BYTE   W12
 BYTE   Fn2  v044
 BYTE   N10  Fn3
 BYTE   W12
 BYTE   Gs2  v088
 BYTE   N10  Gs3
 BYTE   W12
 BYTE   Gs2  v044
 BYTE   N10  Gs3
 BYTE   W11
 BYTE   BEND   c_v-61
 BYTE   W01
 BYTE   BEND   c_v-51
 BYTE   N16  Fn3  v088
 BYTE   N16  Fn4
 BYTE   W01
 BYTE   BEND   c_v-40
 BYTE   W01
 BYTE   BEND   c_v-30
 BYTE   W01
 BYTE   BEND   c_v-19
 BYTE   W01
 BYTE   BEND   c_v-9
 BYTE   W01
 BYTE   BEND   c_v+2
 BYTE   W13
 BYTE   N04  Ds3
 BYTE   N04  Ds4
 BYTE   W06
//  #02 //042   ----------------------------------------
 BYTE   PATT
  POIN2 Label_011959D3
//  #02 //043   ----------------------------------------
 BYTE   PATT
  POIN2 Label_01195A0C
//  #02 //044   ----------------------------------------
 BYTE   W96
//  #02 //045   ----------------------------------------
 BYTE   PATT
  POIN2 Label_01195A28
//  #02 //046   ----------------------------------------
 BYTE   PATT
  POIN2 Label_011959D3
//  #02 //047   ----------------------------------------
 BYTE   PATT
  POIN2 Label_01195A67
//  #02 //048   ----------------------------------------
 BYTE   W96
//  #02 //049   ----------------------------------------
 BYTE   PATT
  POIN2 Label_01195A83
//  #02 //050   ----------------------------------------
 BYTE   PATT
  POIN2 Label_01195A98
//  #02 //051   ----------------------------------------
 BYTE   PATT
  POIN2 Label_01195AAC
//  #02 //052   ----------------------------------------
 BYTE   W96
//  #02 //053   ----------------------------------------
 BYTE   PATT
  POIN2 Label_01195A83
//  #02 //054   ----------------------------------------
 BYTE   PATT
  POIN2 Label_01195ABF
//  #02 //055   ----------------------------------------
 BYTE   PATT
  POIN2 Label_01195AD3
//  #02 //056   ----------------------------------------
 BYTE   PATT
  POIN2 Label_01195AE0
//  #02 //057   ----------------------------------------
 BYTE   PATT
  POIN2 Label_01195AF2
//  #02 //058   ----------------------------------------
 BYTE   PATT
  POIN2 Label_01195B2C
//  #02 //059   ----------------------------------------
 BYTE   PATT
  POIN2 Label_01195B4D
//  #02 //060   ----------------------------------------
 BYTE   PATT
  POIN2 Label_01195B82
//  #02 //061   ----------------------------------------
 BYTE   PATT
  POIN2 Label_01195BA1
//  #02 //062   ----------------------------------------
 BYTE   PATT
  POIN2 Label_01195BDB
//  #02 //063   ----------------------------------------
 BYTE   PATT
  POIN2 Label_01195BFE
//  #02 //064   ----------------------------------------
 BYTE   W96
//  #02 //065   ----------------------------------------
 BYTE   PATT
  POIN2 Label_01195C10
//  #02 //066   ----------------------------------------
 BYTE   W96
//  #02 //067   ----------------------------------------
 BYTE   PATT
  POIN2 Label_01195C33
//  #02 //068   ----------------------------------------
 BYTE   PATT
  POIN2 Label_01195C4C
//  #02 //069   ----------------------------------------
 BYTE   PATT
  POIN2 Label_01195C71
//  #02 //070   ----------------------------------------
 BYTE   W96
//  #02 //071   ----------------------------------------
 BYTE   PATT
  POIN2 Label_01195C33
//  #02 //072   ----------------------------------------
 BYTE   PATT
  POIN2 Label_01195C4C
//  #02 //073   ----------------------------------------
 BYTE   PATT
  POIN2 Label_01195C71
//  #02 //074   ----------------------------------------
 BYTE   W96
//  #02 //075   ----------------------------------------
 BYTE   PATT
  POIN2 Label_01195C33
//  #02 //076   ----------------------------------------
 BYTE   PATT
  POIN2 Label_01195C4C
//  #02 //077   ----------------------------------------
 BYTE   PATT
  POIN2 Label_01195C71
//  #02 //078   ----------------------------------------
 BYTE   W96
//  #02 //079   ----------------------------------------
 BYTE   PATT
  POIN2 Label_01195C33
//  #02 //080   ----------------------------------------
 BYTE   PATT
  POIN2 Label_01195C4C
//  #02 //081   ----------------------------------------
 BYTE   PATT
  POIN2 Label_01195C71
//  #02 //082   ----------------------------------------
 BYTE   VOL   23*PowerPros3PennantHappyEnd_mvl/mxv
 BYTE   BEND   c_v+2
 BYTE   N10  Ds2  v088
 BYTE   N10  Ds3
 BYTE   W06
 BYTE   VOL   22*PowerPros3PennantHappyEnd_mvl/mxv
 BYTE   W06
 BYTE   VOL   21*PowerPros3PennantHappyEnd_mvl/mxv
 BYTE   N10  Ds2  v044
 BYTE   N10  Ds3
 BYTE   W06
 BYTE   VOL   20*PowerPros3PennantHappyEnd_mvl/mxv
 BYTE   W06
 BYTE   VOL   20*PowerPros3PennantHappyEnd_mvl/mxv
 BYTE   N10  Fn2  v088
 BYTE   N10  Fn3
 BYTE   W06
 BYTE   VOL   19*PowerPros3PennantHappyEnd_mvl/mxv
 BYTE   W06
 BYTE   VOL   17*PowerPros3PennantHappyEnd_mvl/mxv
 BYTE   N10  Fn2  v044
 BYTE   N10  Fn3
 BYTE   W06
 BYTE   VOL   16*PowerPros3PennantHappyEnd_mvl/mxv
 BYTE   W06
 BYTE   VOL   16*PowerPros3PennantHappyEnd_mvl/mxv
 BYTE   N10  Gs2  v088
 BYTE   N10  Gs3
 BYTE   W06
 BYTE   VOL   15*PowerPros3PennantHappyEnd_mvl/mxv
 BYTE   W06
 BYTE   VOL   14*PowerPros3PennantHappyEnd_mvl/mxv
 BYTE   N10  Gs2  v044
 BYTE   N10  Gs3
 BYTE   W06
 BYTE   VOL   13*PowerPros3PennantHappyEnd_mvl/mxv
 BYTE   W05
 BYTE   BEND   c_v-61
 BYTE   W01
 BYTE   VOL   12*PowerPros3PennantHappyEnd_mvl/mxv
 BYTE   BEND   c_v-51
 BYTE   N16  Fn3  v088
 BYTE   N16  Fn4
 BYTE   W01
 BYTE   BEND   c_v-40
 BYTE   W01
 BYTE   BEND   c_v-30
 BYTE   W01
 BYTE   BEND   c_v-19
 BYTE   W01
 BYTE   BEND   c_v-9
 BYTE   W01
 BYTE   BEND   c_v+2
 BYTE   W01
 BYTE   VOL   11*PowerPros3PennantHappyEnd_mvl/mxv
 BYTE   W06
 BYTE   VOL   10*PowerPros3PennantHappyEnd_mvl/mxv
 BYTE   W06
 BYTE   VOL   10*PowerPros3PennantHappyEnd_mvl/mxv
 BYTE   N04  Ds3
 BYTE   N04  Ds4
 BYTE   W06
//  #02 //083   ----------------------------------------
 BYTE   VOL   9*PowerPros3PennantHappyEnd_mvl/mxv
 BYTE   N04  Ds3  v044
 BYTE   N04  Ds4
 BYTE   W06
 BYTE   VOL   8*PowerPros3PennantHappyEnd_mvl/mxv
 BYTE   N16  Cs3  v088
 BYTE   N16  Cs4
 BYTE   W06
 BYTE   VOL   7*PowerPros3PennantHappyEnd_mvl/mxv
 BYTE   W06
 BYTE   VOL   7*PowerPros3PennantHappyEnd_mvl/mxv
 BYTE   W06
 BYTE   VOL   6*PowerPros3PennantHappyEnd_mvl/mxv
 BYTE   N04  Cn3
 BYTE   N04  Cn4
 BYTE   W06
 BYTE   VOL   4*PowerPros3PennantHappyEnd_mvl/mxv
 BYTE   N04  Cn3  v044
 BYTE   N04  Cn4
 BYTE   W06
 BYTE   VOL   4*PowerPros3PennantHappyEnd_mvl/mxv
 BYTE   N04  Cs3  v088
 BYTE   N04  Cs4
 BYTE   W06
 BYTE   VOL   4*PowerPros3PennantHappyEnd_mvl/mxv
 BYTE   N04  Cs3  v044
 BYTE   N04  Cs4
 BYTE   W06
 BYTE   VOL   2*PowerPros3PennantHappyEnd_mvl/mxv
 BYTE   N04  Ds3  v088
 BYTE   N04  Ds4
 BYTE   W06
 BYTE   VOL   2*PowerPros3PennantHappyEnd_mvl/mxv
 BYTE   N04  Ds3  v044
 BYTE   N04  Ds4
 BYTE   W06
 BYTE   VOL   1*PowerPros3PennantHappyEnd_mvl/mxv
 BYTE   N10  Ds2  v088
 BYTE   N10  Ds3
 BYTE   W06
 BYTE   VOL   0*PowerPros3PennantHappyEnd_mvl/mxv
 BYTE   W06
 BYTE   VOL   0*PowerPros3PennantHappyEnd_mvl/mxv
 BYTE   N10  Fn2
 BYTE   N10  Fn3
 BYTE   W06
 BYTE   VOL   0*PowerPros3PennantHappyEnd_mvl/mxv
 BYTE   W06
 BYTE   VOL   0*PowerPros3PennantHappyEnd_mvl/mxv
 BYTE   N10  Gs2
 BYTE   N10  Gs3
 BYTE   W06
 BYTE   VOL   0*PowerPros3PennantHappyEnd_mvl/mxv
 BYTE   W06
//  #02 //084   ----------------------------------------
 BYTE   VOL   0*PowerPros3PennantHappyEnd_mvl/mxv
 BYTE   N16  As2
 BYTE   N16  As3
 BYTE   W06
 BYTE   VOL   0*PowerPros3PennantHappyEnd_mvl/mxv
 BYTE   W06
 BYTE   VOL   0*PowerPros3PennantHappyEnd_mvl/mxv
 BYTE   W06
 BYTE   VOL   0*PowerPros3PennantHappyEnd_mvl/mxv
 BYTE   N04  Cn3
 BYTE   N04  Cn4
 BYTE   W06
 BYTE   VOL   0*PowerPros3PennantHappyEnd_mvl/mxv
 BYTE   N04  Cn3  v044
 BYTE   N04  Cn4
 BYTE   W06
 BYTE   VOL   0*PowerPros3PennantHappyEnd_mvl/mxv
 BYTE   N04  Cn3
 BYTE   N04  Cn4
 BYTE   W06
 BYTE   VOL   0*PowerPros3PennantHappyEnd_mvl/mxv
 BYTE   N56  Cn3  v088
 BYTE   N56  Cn4
 BYTE   W06
 BYTE   VOL   0*PowerPros3PennantHappyEnd_mvl/mxv
 BYTE   W06
 BYTE   VOL   0*PowerPros3PennantHappyEnd_mvl/mxv
 BYTE   W06
 BYTE   VOL   0*PowerPros3PennantHappyEnd_mvl/mxv
 BYTE   W06
 BYTE   VOL   0*PowerPros3PennantHappyEnd_mvl/mxv
 BYTE   W06
 BYTE   VOL   0*PowerPros3PennantHappyEnd_mvl/mxv
 BYTE   W06
 BYTE   VOL   0*PowerPros3PennantHappyEnd_mvl/mxv
 BYTE   W06
 BYTE   VOL   0*PowerPros3PennantHappyEnd_mvl/mxv
 BYTE   W06
 BYTE   VOL   0*PowerPros3PennantHappyEnd_mvl/mxv
 BYTE   W06
 BYTE   VOL   0*PowerPros3PennantHappyEnd_mvl/mxv
 BYTE   W04
 BYTE   BEND   c_v+2
 BYTE   W02
//  #02 //085   ----------------------------------------
 BYTE   GoTo
  POIN2 Label_0119598E
 BYTE   FINE

//**************** Track 3 (Midi-Chn.2) ****************//

PowerPros3PennantHappyEnd_003:
//  #03 //000   ----------------------------------------
 BYTE   KEYSH   PowerPros3PennantHappyEnd_key+0
Label_01195EBA:
 BYTE   VOICE   61
 BYTE   MODT 0
 BYTE   LFOS 44
 BYTE   VOL   23*PowerPros3PennantHappyEnd_mvl/mxv
 BYTE   PAN   c_v+0
 BYTE   VOL   23*PowerPros3PennantHappyEnd_mvl/mxv
 BYTE   W96
//  #03 //001   ----------------------------------------
 BYTE   W96
//  #03 //002   ----------------------------------------
 BYTE   W96
//  #03 //003   ----------------------------------------
 BYTE   W96
//  #03 //004   ----------------------------------------
 BYTE   W96
//  #03 //005   ----------------------------------------
 BYTE   W96
//  #03 //006   ----------------------------------------
 BYTE   W96
//  #03 //007   ----------------------------------------
 BYTE   W96
//  #03 //008   ----------------------------------------
Label_01195ECE:
 BYTE   W48
 BYTE   N10  Ds3  v036
 BYTE   N10  Ds4
 BYTE   W12
 BYTE   Ds3
 BYTE   N10  Ds4
 BYTE   W12
 BYTE   N22  Fn3
 BYTE   N22  Fn4
 BYTE   W24
 BYTE   PEND 
//  #03 //009   ----------------------------------------
Label_01195EDF:
 BYTE   N22  Gs3  v036
 BYTE   N22  Gs4
 BYTE   W24
 BYTE   Gn3
 BYTE   N22  Gn4
 BYTE   W24
 BYTE   Gs3
 BYTE   N22  Gs4
 BYTE   W24
 BYTE   As3
 BYTE   N22  As4
 BYTE   W24
 BYTE   PEND 
//  #03 //010   ----------------------------------------
Label_01195EF2:
 BYTE   N22  Fn3  v036
 BYTE   N22  Fn4
 BYTE   W24
 BYTE   N10  Ds3
 BYTE   N10  Ds4
 BYTE   W12
 BYTE   N68  Ds3
 BYTE   N68  Ds4
 BYTE   W60
 BYTE   PEND 
//  #03 //011   ----------------------------------------
 BYTE   W96
//  #03 //012   ----------------------------------------
 BYTE   PATT
  POIN2 Label_01195ECE
//  #03 //013   ----------------------------------------
 BYTE   PATT
  POIN2 Label_01195EDF
//  #03 //014   ----------------------------------------
Label_01195F0E:
 BYTE   N22  As3  v036
 BYTE   N22  As4
 BYTE   W24
 BYTE   N10  Cn4
 BYTE   N10  Cn5
 BYTE   W12
 BYTE   N68  Cn4
 BYTE   N68  Cn5
 BYTE   W60
 BYTE   PEND 
//  #03 //015   ----------------------------------------
Label_01195F1F:
 BYTE   W60
 BYTE   N10  Cn4  v036
 BYTE   N10  Cn5
 BYTE   W12
 BYTE   N22  Cs4
 BYTE   N22  Cs5
 BYTE   W24
 BYTE   PEND 
//  #03 //016   ----------------------------------------
Label_01195F2C:
 BYTE   N10  Ds4  v036
 BYTE   N10  Ds5
 BYTE   W12
 BYTE   Ds4  v012
 BYTE   N10  Ds5
 BYTE   W11
 BYTE   BEND   c_v-63
 BYTE   W01
 BYTE   BEND   c_v-53
 BYTE   N10  Ds4  v036
 BYTE   N10  Ds5
 BYTE   W01
 BYTE   BEND   c_v-42
 BYTE   W01
 BYTE   BEND   c_v-32
 BYTE   W01
 BYTE   BEND   c_v-21
 BYTE   W01
 BYTE   BEND   c_v-11
 BYTE   W01
 BYTE   BEND   c_v+0
 BYTE   W07
 BYTE   N10  Cs4
 BYTE   N10  Cs5
 BYTE   W12
 BYTE   Cs4  v012
 BYTE   N10  Cs5
 BYTE   W12
 BYTE   Cn4  v036
 BYTE   N10  Cn5
 BYTE   W12
 BYTE   Cn4  v012
 BYTE   N10  Cn5
 BYTE   W12
 BYTE   Ds3  v036
 BYTE   N10  Ds4
 BYTE   W12
 BYTE   PEND 
//  #03 //017   ----------------------------------------
Label_01195F66:
 BYTE   N22  Gs3  v036
 BYTE   N22  Gs4
 BYTE   W24
 BYTE   As3
 BYTE   N22  As4
 BYTE   W24
 BYTE   N10  As3  v012
 BYTE   N10  As4
 BYTE   W12
 BYTE   As3  v004
 BYTE   N10  As4
 BYTE   W12
 BYTE   Cn4  v036
 BYTE   N10  Cn5
 BYTE   W12
 BYTE   Cs4
 BYTE   N10  Cs5
 BYTE   W12
 BYTE   PEND 
//  #03 //018   ----------------------------------------
Label_01195F85:
 BYTE   N22  Ds4  v036
 BYTE   N22  Ds5
 BYTE   W24
 BYTE   N10  Ds4
 BYTE   N10  Ds5
 BYTE   W12
 BYTE   Cs4
 BYTE   N10  Cs5
 BYTE   W12
 BYTE   Cs4  v012
 BYTE   N10  Cs5
 BYTE   W12
 BYTE   Cn4  v036
 BYTE   N10  Cn5
 BYTE   W12
 BYTE   Cn4  v012
 BYTE   N10  Cn5
 BYTE   W11
 BYTE   BEND   c_v-63
 BYTE   W01
 BYTE   BEND   c_v-53
 BYTE   N10  Fn4  v036
 BYTE   N10  Fn5
 BYTE   W01
 BYTE   BEND   c_v-42
 BYTE   W01
 BYTE   BEND   c_v-32
 BYTE   W01
 BYTE   BEND   c_v-21
 BYTE   W01
 BYTE   BEND   c_v-11
 BYTE   W01
 BYTE   BEND   c_v+0
 BYTE   W07
 BYTE   PEND 
//  #03 //019   ----------------------------------------
Label_01195FB9:
 BYTE   N22  Ds4  v036
 BYTE   N22  Ds5
 BYTE   W24
 BYTE   N10  Ds4  v012
 BYTE   N10  Ds5
 BYTE   W12
 BYTE   Ds4  v004
 BYTE   N10  Ds5
 BYTE   W36
 BYTE   Cn4  v036
 BYTE   N10  Cn5
 BYTE   W12
 BYTE   Cs4
 BYTE   N10  Cs5
 BYTE   W12
 BYTE   PEND 
//  #03 //020   ----------------------------------------
Label_01195FD4:
 BYTE   N10  Ds4  v036
 BYTE   N10  Ds5
 BYTE   W12
 BYTE   Ds4  v012
 BYTE   N10  Ds5
 BYTE   W11
 BYTE   BEND   c_v-63
 BYTE   W01
 BYTE   BEND   c_v-53
 BYTE   N10  Ds4  v036
 BYTE   N10  Ds5
 BYTE   W01
 BYTE   BEND   c_v-42
 BYTE   W01
 BYTE   BEND   c_v-32
 BYTE   W01
 BYTE   BEND   c_v-21
 BYTE   W01
 BYTE   BEND   c_v-11
 BYTE   W01
 BYTE   BEND   c_v+0
 BYTE   W07
 BYTE   N10  Cs4
 BYTE   N10  Cs5
 BYTE   W12
 BYTE   Cs4  v012
 BYTE   N10  Cs5
 BYTE   W12
 BYTE   Cn4  v036
 BYTE   N10  Cn5
 BYTE   W12
 BYTE   Cn4  v012
 BYTE   N10  Cn5
 BYTE   W12
 BYTE   Fn3  v036
 BYTE   N10  Fn4
 BYTE   W12
 BYTE   PEND 
//  #03 //021   ----------------------------------------
Label_0119600E:
 BYTE   N22  Gs3  v036
 BYTE   N22  Gs4
 BYTE   W24
 BYTE   N10  As3
 BYTE   N10  As4
 BYTE   W12
 BYTE   As3  v012
 BYTE   N10  As4
 BYTE   W12
 BYTE   Ds3  v036
 BYTE   N10  Ds4
 BYTE   W12
 BYTE   Gs3
 BYTE   N10  Gs4
 BYTE   W12
 BYTE   As3
 BYTE   N10  As4
 BYTE   W12
 BYTE   Cn4
 BYTE   N10  Cn5
 BYTE   W12
 BYTE   PEND 
//  #03 //022   ----------------------------------------
Label_01196030:
 BYTE   N68  Cs4  v036
 BYTE   N68  Cs5
 BYTE   W72
 BYTE   N10  Cn4
 BYTE   N10  Cn5
 BYTE   W12
 BYTE   Cs4
 BYTE   N10  Cs5
 BYTE   W12
 BYTE   PEND 
//  #03 //023   ----------------------------------------
 BYTE   N80  Ds4
 BYTE   N80  Ds5
 BYTE   W96
//  #03 //024   ----------------------------------------
Label_01196045:
 BYTE   W60
 BYTE   N10  Gs3  v088
 BYTE   N10  Gs4
 BYTE   W12
 BYTE   As3
 BYTE   N10  As4
 BYTE   W12
 BYTE   Cn4
 BYTE   N10  Cn5
 BYTE   W12
 BYTE   PEND 
//  #03 //025   ----------------------------------------
 BYTE   W96
//  #03 //026   ----------------------------------------
Label_01196056:
 BYTE   W84
 BYTE   N22  As3  v088
 BYTE   N22  As4
 BYTE   W12
 BYTE   PEND 
//  #03 //027   ----------------------------------------
Label_0119605E:
 BYTE   W12
 BYTE   N10  As3  v088
 BYTE   N10  As4
 BYTE   W12
 BYTE   Gs3
 BYTE   N10  Gs4
 BYTE   W12
 BYTE   Gs3  v048
 BYTE   N10  Gs4
 BYTE   W12
 BYTE   Ds3  v088
 BYTE   N10  Ds4
 BYTE   W12
 BYTE   Ds3  v048
 BYTE   N10  Ds4
 BYTE   W12
 BYTE   Cn3  v088
 BYTE   N10  Cn4
 BYTE   W12
 BYTE   N22  Cs3
 BYTE   N22  Cs4
 BYTE   W12
 BYTE   PEND 
//  #03 //028   ----------------------------------------
Label_01196083:
 BYTE   W12
 BYTE   N10  Fn3  v088
 BYTE   N10  Fn4
 BYTE   W12
 BYTE   N22  Fn3
 BYTE   N22  Fn4
 BYTE   W36
 BYTE   N10  Gs3
 BYTE   N10  Gs4
 BYTE   W12
 BYTE   As3
 BYTE   N10  As4
 BYTE   W12
 BYTE   Cn4
 BYTE   N10  Cn5
 BYTE   W12
 BYTE   PEND 
//  #03 //029   ----------------------------------------
 BYTE   W96
//  #03 //030   ----------------------------------------
 BYTE   PATT
  POIN2 Label_01196056
//  #03 //031   ----------------------------------------
 BYTE   PATT
  POIN2 Label_0119605E
//  #03 //032   ----------------------------------------
 BYTE   PATT
  POIN2 Label_01196083
//  #03 //033   ----------------------------------------
 BYTE   W96
//  #03 //034   ----------------------------------------
 BYTE   PATT
  POIN2 Label_01196056
//  #03 //035   ----------------------------------------
 BYTE   PATT
  POIN2 Label_0119605E
//  #03 //036   ----------------------------------------
 BYTE   PATT
  POIN2 Label_01196083
//  #03 //037   ----------------------------------------
 BYTE   W96
//  #03 //038   ----------------------------------------
 BYTE   PATT
  POIN2 Label_01196056
//  #03 //039   ----------------------------------------
 BYTE   PATT
  POIN2 Label_0119605E
//  #03 //040   ----------------------------------------
 BYTE   PATT
  POIN2 Label_01196083
//  #03 //041   ----------------------------------------
 BYTE   W96
//  #03 //042   ----------------------------------------
 BYTE   W96
//  #03 //043   ----------------------------------------
 BYTE   W96
//  #03 //044   ----------------------------------------
 BYTE   W96
//  #03 //045   ----------------------------------------
 BYTE   W96
//  #03 //046   ----------------------------------------
 BYTE   W96
//  #03 //047   ----------------------------------------
 BYTE   W96
//  #03 //048   ----------------------------------------
 BYTE   W96
//  #03 //049   ----------------------------------------
 BYTE   PATT
  POIN2 Label_01195ECE
//  #03 //050   ----------------------------------------
 BYTE   PATT
  POIN2 Label_01195EDF
//  #03 //051   ----------------------------------------
 BYTE   PATT
  POIN2 Label_01195EF2
//  #03 //052   ----------------------------------------
 BYTE   W96
//  #03 //053   ----------------------------------------
 BYTE   PATT
  POIN2 Label_01195ECE
//  #03 //054   ----------------------------------------
 BYTE   PATT
  POIN2 Label_01195EDF
//  #03 //055   ----------------------------------------
 BYTE   PATT
  POIN2 Label_01195F0E
//  #03 //056   ----------------------------------------
 BYTE   PATT
  POIN2 Label_01195F1F
//  #03 //057   ----------------------------------------
 BYTE   PATT
  POIN2 Label_01195F2C
//  #03 //058   ----------------------------------------
 BYTE   PATT
  POIN2 Label_01195F66
//  #03 //059   ----------------------------------------
 BYTE   PATT
  POIN2 Label_01195F85
//  #03 //060   ----------------------------------------
 BYTE   PATT
  POIN2 Label_01195FB9
//  #03 //061   ----------------------------------------
 BYTE   PATT
  POIN2 Label_01195FD4
//  #03 //062   ----------------------------------------
 BYTE   PATT
  POIN2 Label_0119600E
//  #03 //063   ----------------------------------------
 BYTE   PATT
  POIN2 Label_01196030
//  #03 //064   ----------------------------------------
 BYTE   N80  Ds4  v036
 BYTE   N80  Ds5
 BYTE   W96
//  #03 //065   ----------------------------------------
 BYTE   PATT
  POIN2 Label_01196045
//  #03 //066   ----------------------------------------
 BYTE   W96
//  #03 //067   ----------------------------------------
 BYTE   PATT
  POIN2 Label_01196056
//  #03 //068   ----------------------------------------
 BYTE   PATT
  POIN2 Label_0119605E
//  #03 //069   ----------------------------------------
 BYTE   PATT
  POIN2 Label_01196083
//  #03 //070   ----------------------------------------
 BYTE   W96
//  #03 //071   ----------------------------------------
 BYTE   PATT
  POIN2 Label_01196056
//  #03 //072   ----------------------------------------
 BYTE   PATT
  POIN2 Label_0119605E
//  #03 //073   ----------------------------------------
 BYTE   PATT
  POIN2 Label_01196083
//  #03 //074   ----------------------------------------
 BYTE   W96
//  #03 //075   ----------------------------------------
 BYTE   PATT
  POIN2 Label_01196056
//  #03 //076   ----------------------------------------
 BYTE   PATT
  POIN2 Label_0119605E
//  #03 //077   ----------------------------------------
 BYTE   PATT
  POIN2 Label_01196083
//  #03 //078   ----------------------------------------
 BYTE   W96
//  #03 //079   ----------------------------------------
 BYTE   PATT
  POIN2 Label_01196056
//  #03 //080   ----------------------------------------
 BYTE   PATT
  POIN2 Label_0119605E
//  #03 //081   ----------------------------------------
 BYTE   PATT
  POIN2 Label_01196083
//  #03 //082   ----------------------------------------
 BYTE   W96
//  #03 //083   ----------------------------------------
 BYTE   W96
//  #03 //084   ----------------------------------------
 BYTE   W96
//  #03 //085   ----------------------------------------
 BYTE   GoTo
  POIN2 Label_01195EBA
 BYTE   FINE

//**************** Track 4 (Midi-Chn.3) ****************//

PowerPros3PennantHappyEnd_004:
//  #04 //000   ----------------------------------------
 BYTE   KEYSH   PowerPros3PennantHappyEnd_key+0
Label_011941E6:
 BYTE   VOICE   48
 BYTE   MODT 0
 BYTE   LFOS 44
 BYTE   PAN   c_v-1
 BYTE   VOL   33*PowerPros3PennantHappyEnd_mvl/mxv
 BYTE   N92  Fn2  v088
 BYTE   W96
//  #04 //001   ----------------------------------------
 BYTE   Cs3
 BYTE   W96
//  #04 //002   ----------------------------------------
 BYTE   TIE  Gn3
 BYTE   W96
//  #04 //003   ----------------------------------------
 BYTE   W92
 BYTE   W02
 BYTE   EOT
 BYTE   W02
//  #04 //004   ----------------------------------------
 BYTE   N92  Fn2
 BYTE   W96
//  #04 //005   ----------------------------------------
 BYTE   Cs3
 BYTE   W96
//  #04 //006   ----------------------------------------
 BYTE   Gn3
 BYTE   W96
//  #04 //007   ----------------------------------------
 BYTE   An3
 BYTE   W96
//  #04 //008   ----------------------------------------
 BYTE   Gs2
 BYTE   W96
//  #04 //009   ----------------------------------------
 BYTE   As2
 BYTE   W96
//  #04 //010   ----------------------------------------
 BYTE   Cn3
 BYTE   W96
//  #04 //011   ----------------------------------------
 BYTE   An2
 BYTE   W96
//  #04 //012   ----------------------------------------
 BYTE   Cs3
 BYTE   W96
//  #04 //013   ----------------------------------------
 BYTE   As2
 BYTE   W96
//  #04 //014   ----------------------------------------
 BYTE   Cn3
 BYTE   W96
//  #04 //015   ----------------------------------------
 BYTE   N92
 BYTE   W96
//  #04 //016   ----------------------------------------
 BYTE   Fn3
 BYTE   W96
//  #04 //017   ----------------------------------------
Label_01194218:
 BYTE   N44  Cs3  v088
 BYTE   W48
 BYTE   Fn3
 BYTE   W48
 BYTE   PEND 
//  #04 //018   ----------------------------------------
Label_0119421F:
 BYTE   N44  As2  v088
 BYTE   W48
 BYTE   Cn3
 BYTE   W48
 BYTE   PEND 
//  #04 //019   ----------------------------------------
Label_01194226:
 BYTE   N44  An2  v088
 BYTE   W48
 BYTE   Cn3
 BYTE   W48
 BYTE   PEND 
//  #04 //020   ----------------------------------------
 BYTE   N92  As2
 BYTE   W96
//  #04 //021   ----------------------------------------
 BYTE   N92
 BYTE   W96
//  #04 //022   ----------------------------------------
 BYTE   Bn2
 BYTE   W96
//  #04 //023   ----------------------------------------
 BYTE   Cs3
 BYTE   W96
//  #04 //024   ----------------------------------------
Label_01194236:
 BYTE   W12
 BYTE   N10  Fn3  v088
 BYTE   W12
 BYTE   N10
 BYTE   W12
 BYTE   An3
 BYTE   W12
 BYTE   An3  v060
 BYTE   W12
 BYTE   An3  v036
 BYTE   W12
 BYTE   An3  v020
 BYTE   W12
 BYTE   An3  v008
 BYTE   W12
 BYTE   PEND 
//  #04 //025   ----------------------------------------
 BYTE   N92  Gs3  v088
 BYTE   W96
//  #04 //026   ----------------------------------------
 BYTE   Gn3
 BYTE   W96
//  #04 //027   ----------------------------------------
 BYTE   Gs3
 BYTE   W96
//  #04 //028   ----------------------------------------
Label_01194254:
 BYTE   N32  As3  v088
 BYTE   W36
 BYTE   N56  An3
 BYTE   W60
 BYTE   PEND 
//  #04 //029   ----------------------------------------
 BYTE   N92  Gs3
 BYTE   W96
//  #04 //030   ----------------------------------------
 BYTE   Gn3
 BYTE   W96
//  #04 //031   ----------------------------------------
 BYTE   Gs3
 BYTE   W96
//  #04 //032   ----------------------------------------
 BYTE   PATT
  POIN2 Label_01194254
//  #04 //033   ----------------------------------------
 BYTE   N92  Gs3  v088
 BYTE   W96
//  #04 //034   ----------------------------------------
 BYTE   Gn3
 BYTE   W96
//  #04 //035   ----------------------------------------
 BYTE   Gs3
 BYTE   W96
//  #04 //036   ----------------------------------------
 BYTE   PATT
  POIN2 Label_01194254
//  #04 //037   ----------------------------------------
 BYTE   N92  Gs3  v088
 BYTE   W96
//  #04 //038   ----------------------------------------
 BYTE   Gn3
 BYTE   W96
//  #04 //039   ----------------------------------------
 BYTE   Gs3
 BYTE   W96
//  #04 //040   ----------------------------------------
 BYTE   PATT
  POIN2 Label_01194254
//  #04 //041   ----------------------------------------
 BYTE   N92  Fn2  v088
 BYTE   W96
//  #04 //042   ----------------------------------------
 BYTE   Cs3
 BYTE   W96
//  #04 //043   ----------------------------------------
 BYTE   TIE  Gn3
 BYTE   W96
//  #04 //044   ----------------------------------------
 BYTE   W92
 BYTE   W02
 BYTE   EOT
 BYTE   W02
//  #04 //045   ----------------------------------------
 BYTE   N92  Fn2
 BYTE   W96
//  #04 //046   ----------------------------------------
 BYTE   Cs3
 BYTE   W96
//  #04 //047   ----------------------------------------
 BYTE   Gn3
 BYTE   W96
//  #04 //048   ----------------------------------------
 BYTE   An3
 BYTE   W96
//  #04 //049   ----------------------------------------
 BYTE   Gs2
 BYTE   W96
//  #04 //050   ----------------------------------------
 BYTE   As2
 BYTE   W96
//  #04 //051   ----------------------------------------
 BYTE   Cn3
 BYTE   W96
//  #04 //052   ----------------------------------------
 BYTE   An2
 BYTE   W96
//  #04 //053   ----------------------------------------
 BYTE   Cs3
 BYTE   W96
//  #04 //054   ----------------------------------------
 BYTE   As2
 BYTE   W96
//  #04 //055   ----------------------------------------
 BYTE   Cn3
 BYTE   W96
//  #04 //056   ----------------------------------------
 BYTE   N92
 BYTE   W96
//  #04 //057   ----------------------------------------
 BYTE   Fn3
 BYTE   W96
//  #04 //058   ----------------------------------------
 BYTE   PATT
  POIN2 Label_01194218
//  #04 //059   ----------------------------------------
 BYTE   PATT
  POIN2 Label_0119421F
//  #04 //060   ----------------------------------------
 BYTE   PATT
  POIN2 Label_01194226
//  #04 //061   ----------------------------------------
 BYTE   N92  As2  v088
 BYTE   W96
//  #04 //062   ----------------------------------------
 BYTE   N92
 BYTE   W96
//  #04 //063   ----------------------------------------
 BYTE   Bn2
 BYTE   W96
//  #04 //064   ----------------------------------------
 BYTE   Cs3
 BYTE   W96
//  #04 //065   ----------------------------------------
 BYTE   PATT
  POIN2 Label_01194236
//  #04 //066   ----------------------------------------
 BYTE   N92  Gs3  v088
 BYTE   W96
//  #04 //067   ----------------------------------------
 BYTE   Gn3
 BYTE   W96
//  #04 //068   ----------------------------------------
 BYTE   Gs3
 BYTE   W96
//  #04 //069   ----------------------------------------
 BYTE   PATT
  POIN2 Label_01194254
//  #04 //070   ----------------------------------------
 BYTE   N92  Gs3  v088
 BYTE   W96
//  #04 //071   ----------------------------------------
 BYTE   Gn3
 BYTE   W96
//  #04 //072   ----------------------------------------
 BYTE   Gs3
 BYTE   W96
//  #04 //073   ----------------------------------------
 BYTE   PATT
  POIN2 Label_01194254
//  #04 //074   ----------------------------------------
 BYTE   N92  Gs3  v088
 BYTE   W96
//  #04 //075   ----------------------------------------
 BYTE   Gn3
 BYTE   W96
//  #04 //076   ----------------------------------------
 BYTE   Gs3
 BYTE   W96
//  #04 //077   ----------------------------------------
 BYTE   PATT
  POIN2 Label_01194254
//  #04 //078   ----------------------------------------
 BYTE   N92  Gs3  v088
 BYTE   W96
//  #04 //079   ----------------------------------------
 BYTE   Gn3
 BYTE   W96
//  #04 //080   ----------------------------------------
 BYTE   Gs3
 BYTE   W96
//  #04 //081   ----------------------------------------
 BYTE   PATT
  POIN2 Label_01194254
//  #04 //082   ----------------------------------------
 BYTE   VOL   33*PowerPros3PennantHappyEnd_mvl/mxv
 BYTE   N92  Fn2  v088
 BYTE   W06
 BYTE   VOL   32*PowerPros3PennantHappyEnd_mvl/mxv
 BYTE   W06
 BYTE   VOL   31*PowerPros3PennantHappyEnd_mvl/mxv
 BYTE   W06
 BYTE   VOL   30*PowerPros3PennantHappyEnd_mvl/mxv
 BYTE   W06
 BYTE   VOL   30*PowerPros3PennantHappyEnd_mvl/mxv
 BYTE   W06
 BYTE   VOL   29*PowerPros3PennantHappyEnd_mvl/mxv
 BYTE   W06
 BYTE   VOL   27*PowerPros3PennantHappyEnd_mvl/mxv
 BYTE   W06
 BYTE   VOL   26*PowerPros3PennantHappyEnd_mvl/mxv
 BYTE   W06
 BYTE   VOL   26*PowerPros3PennantHappyEnd_mvl/mxv
 BYTE   W06
 BYTE   VOL   25*PowerPros3PennantHappyEnd_mvl/mxv
 BYTE   W06
 BYTE   VOL   24*PowerPros3PennantHappyEnd_mvl/mxv
 BYTE   W06
 BYTE   VOL   23*PowerPros3PennantHappyEnd_mvl/mxv
 BYTE   W06
 BYTE   VOL   22*PowerPros3PennantHappyEnd_mvl/mxv
 BYTE   W06
 BYTE   VOL   21*PowerPros3PennantHappyEnd_mvl/mxv
 BYTE   W06
 BYTE   VOL   20*PowerPros3PennantHappyEnd_mvl/mxv
 BYTE   W06
 BYTE   VOL   20*PowerPros3PennantHappyEnd_mvl/mxv
 BYTE   W06
//  #04 //083   ----------------------------------------
 BYTE   VOL   19*PowerPros3PennantHappyEnd_mvl/mxv
 BYTE   N92  Cs3
 BYTE   W06
 BYTE   VOL   18*PowerPros3PennantHappyEnd_mvl/mxv
 BYTE   W06
 BYTE   VOL   17*PowerPros3PennantHappyEnd_mvl/mxv
 BYTE   W06
 BYTE   VOL   17*PowerPros3PennantHappyEnd_mvl/mxv
 BYTE   W06
 BYTE   VOL   16*PowerPros3PennantHappyEnd_mvl/mxv
 BYTE   W06
 BYTE   VOL   14*PowerPros3PennantHappyEnd_mvl/mxv
 BYTE   W06
 BYTE   VOL   14*PowerPros3PennantHappyEnd_mvl/mxv
 BYTE   W06
 BYTE   VOL   14*PowerPros3PennantHappyEnd_mvl/mxv
 BYTE   W06
 BYTE   VOL   12*PowerPros3PennantHappyEnd_mvl/mxv
 BYTE   W06
 BYTE   VOL   12*PowerPros3PennantHappyEnd_mvl/mxv
 BYTE   W06
 BYTE   VOL   11*PowerPros3PennantHappyEnd_mvl/mxv
 BYTE   W06
 BYTE   VOL   10*PowerPros3PennantHappyEnd_mvl/mxv
 BYTE   W06
 BYTE   VOL   9*PowerPros3PennantHappyEnd_mvl/mxv
 BYTE   W06
 BYTE   VOL   9*PowerPros3PennantHappyEnd_mvl/mxv
 BYTE   W06
 BYTE   VOL   8*PowerPros3PennantHappyEnd_mvl/mxv
 BYTE   W06
 BYTE   VOL   7*PowerPros3PennantHappyEnd_mvl/mxv
 BYTE   W06
//  #04 //084   ----------------------------------------
 BYTE   VOL   7*PowerPros3PennantHappyEnd_mvl/mxv
 BYTE   N90  Gn3
 BYTE   W06
 BYTE   VOL   6*PowerPros3PennantHappyEnd_mvl/mxv
 BYTE   W06
 BYTE   VOL   5*PowerPros3PennantHappyEnd_mvl/mxv
 BYTE   W06
 BYTE   VOL   4*PowerPros3PennantHappyEnd_mvl/mxv
 BYTE   W06
 BYTE   VOL   3*PowerPros3PennantHappyEnd_mvl/mxv
 BYTE   W06
 BYTE   VOL   3*PowerPros3PennantHappyEnd_mvl/mxv
 BYTE   W06
 BYTE   VOL   2*PowerPros3PennantHappyEnd_mvl/mxv
 BYTE   W06
 BYTE   VOL   2*PowerPros3PennantHappyEnd_mvl/mxv
 BYTE   W06
 BYTE   VOL   1*PowerPros3PennantHappyEnd_mvl/mxv
 BYTE   W06
 BYTE   VOL   0*PowerPros3PennantHappyEnd_mvl/mxv
 BYTE   W06
 BYTE   VOL   0*PowerPros3PennantHappyEnd_mvl/mxv
 BYTE   W06
 BYTE   VOL   0*PowerPros3PennantHappyEnd_mvl/mxv
 BYTE   W06
 BYTE   VOL   0*PowerPros3PennantHappyEnd_mvl/mxv
 BYTE   W06
 BYTE   VOL   0*PowerPros3PennantHappyEnd_mvl/mxv
 BYTE   W06
 BYTE   VOL   0*PowerPros3PennantHappyEnd_mvl/mxv
 BYTE   W06
 BYTE   VOL   0*PowerPros3PennantHappyEnd_mvl/mxv
 BYTE   W06
//  #04 //085   ----------------------------------------
 BYTE   GoTo
  POIN2 Label_011941E6
 BYTE   FINE

//**************** Track 5 (Midi-Chn.4) ****************//

PowerPros3PennantHappyEnd_005:
//  #05 //000   ----------------------------------------
 BYTE   KEYSH   PowerPros3PennantHappyEnd_key+0
Label_01194066:
 BYTE   VOICE   63
 BYTE   MODT 0
 BYTE   LFOS 44
 BYTE   PAN   c_v-1
 BYTE   VOL   70*PowerPros3PennantHappyEnd_mvl/mxv
 BYTE   W96
//  #05 //001   ----------------------------------------
 BYTE   W96
//  #05 //002   ----------------------------------------
 BYTE   W96
//  #05 //003   ----------------------------------------
 BYTE   W96
//  #05 //004   ----------------------------------------
 BYTE   W96
//  #05 //005   ----------------------------------------
 BYTE   W96
//  #05 //006   ----------------------------------------
 BYTE   W96
//  #05 //007   ----------------------------------------
 BYTE   W96
//  #05 //008   ----------------------------------------
 BYTE   W96
//  #05 //009   ----------------------------------------
 BYTE   W96
//  #05 //010   ----------------------------------------
 BYTE   W96
//  #05 //011   ----------------------------------------
 BYTE   W96
//  #05 //012   ----------------------------------------
 BYTE   W96
//  #05 //013   ----------------------------------------
 BYTE   W96
//  #05 //014   ----------------------------------------
 BYTE   W96
//  #05 //015   ----------------------------------------
 BYTE   W96
//  #05 //016   ----------------------------------------
 BYTE   W96
//  #05 //017   ----------------------------------------
 BYTE   W96
//  #05 //018   ----------------------------------------
 BYTE   W96
//  #05 //019   ----------------------------------------
 BYTE   W96
//  #05 //020   ----------------------------------------
 BYTE   W96
//  #05 //021   ----------------------------------------
 BYTE   W96
//  #05 //022   ----------------------------------------
 BYTE   W96
//  #05 //023   ----------------------------------------
Label_01194087:
 BYTE   W06
 BYTE   N04  Ds3  v127
 BYTE   W06
 BYTE   Fn3
 BYTE   W06
 BYTE   Ds3
 BYTE   W06
 BYTE   N10  Gs3
 BYTE   W12
 BYTE   N04  As3
 BYTE   W06
 BYTE   Gs3
 BYTE   W12
 BYTE   Ds4
 BYTE   W06
 BYTE   Fn4
 BYTE   W06
 BYTE   Ds4
 BYTE   W06
 BYTE   N10  Gs4
 BYTE   W12
 BYTE   N04  As4
 BYTE   W06
 BYTE   Cn5
 BYTE   W06
 BYTE   PEND 
//  #05 //024   ----------------------------------------
Label_011940A7:
 BYTE   W12
 BYTE   N10  Fn5  v127
 BYTE   W12
 BYTE   Cn5
 BYTE   W12
 BYTE   Ds5
 BYTE   W12
 BYTE   Ds5  v112
 BYTE   W12
 BYTE   Ds5  v084
 BYTE   W12
 BYTE   Ds5  v056
 BYTE   W12
 BYTE   Ds5  v036
 BYTE   W12
 BYTE   PEND 
//  #05 //025   ----------------------------------------
Label_011940BD:
 BYTE   W36
 BYTE   N04  Ds3  v127
 BYTE   W06
 BYTE   Fn3
 BYTE   W06
 BYTE   Gs3
 BYTE   W06
 BYTE   Gs3  v060
 BYTE   W06
 BYTE   As3  v127
 BYTE   W06
 BYTE   As3  v060
 BYTE   W06
 BYTE   Cn4  v127
 BYTE   W06
 BYTE   Cn4  v060
 BYTE   W06
 BYTE   N22  Cs4  v127
 BYTE   W12
 BYTE   PEND 
//  #05 //026   ----------------------------------------
Label_011940DA:
 BYTE   W12
 BYTE   N04  Cn4  v127
 BYTE   W06
 BYTE   Cn4  v060
 BYTE   W06
 BYTE   Gs3  v127
 BYTE   W06
 BYTE   Gs3  v060
 BYTE   W06
 BYTE   N48  Ds3  v127
 BYTE   W60
 BYTE   PEND 
//  #05 //027   ----------------------------------------
 BYTE   W96
//  #05 //028   ----------------------------------------
 BYTE   W96
//  #05 //029   ----------------------------------------
 BYTE   PATT
  POIN2 Label_011940BD
//  #05 //030   ----------------------------------------
 BYTE   PATT
  POIN2 Label_011940DA
//  #05 //031   ----------------------------------------
 BYTE   W96
//  #05 //032   ----------------------------------------
 BYTE   W96
//  #05 //033   ----------------------------------------
 BYTE   PATT
  POIN2 Label_011940BD
//  #05 //034   ----------------------------------------
 BYTE   PATT
  POIN2 Label_011940DA
//  #05 //035   ----------------------------------------
 BYTE   W96
//  #05 //036   ----------------------------------------
 BYTE   W96
//  #05 //037   ----------------------------------------
 BYTE   PATT
  POIN2 Label_011940BD
//  #05 //038   ----------------------------------------
Label_0119410C:
 BYTE   W12
 BYTE   N04  Cn4  v127
 BYTE   W06
 BYTE   Cn4  v060
 BYTE   W06
 BYTE   Fn4  v127
 BYTE   W06
 BYTE   Fn4  v060
 BYTE   W06
 BYTE   N48  Ds4  v127
 BYTE   W60
 BYTE   PEND 
//  #05 //039   ----------------------------------------
 BYTE   W96
//  #05 //040   ----------------------------------------
 BYTE   W96
//  #05 //041   ----------------------------------------
 BYTE   W96
//  #05 //042   ----------------------------------------
 BYTE   W96
//  #05 //043   ----------------------------------------
 BYTE   W96
//  #05 //044   ----------------------------------------
 BYTE   W96
//  #05 //045   ----------------------------------------
 BYTE   W96
//  #05 //046   ----------------------------------------
 BYTE   W96
//  #05 //047   ----------------------------------------
 BYTE   W96
//  #05 //048   ----------------------------------------
 BYTE   W96
//  #05 //049   ----------------------------------------
 BYTE   W96
//  #05 //050   ----------------------------------------
 BYTE   W96
//  #05 //051   ----------------------------------------
 BYTE   W96
//  #05 //052   ----------------------------------------
 BYTE   W96
//  #05 //053   ----------------------------------------
 BYTE   W96
//  #05 //054   ----------------------------------------
 BYTE   W96
//  #05 //055   ----------------------------------------
 BYTE   W96
//  #05 //056   ----------------------------------------
 BYTE   W96
//  #05 //057   ----------------------------------------
 BYTE   W96
//  #05 //058   ----------------------------------------
 BYTE   W96
//  #05 //059   ----------------------------------------
 BYTE   W96
//  #05 //060   ----------------------------------------
 BYTE   W96
//  #05 //061   ----------------------------------------
 BYTE   W96
//  #05 //062   ----------------------------------------
 BYTE   W96
//  #05 //063   ----------------------------------------
 BYTE   W96
//  #05 //064   ----------------------------------------
 BYTE   PATT
  POIN2 Label_01194087
//  #05 //065   ----------------------------------------
 BYTE   PATT
  POIN2 Label_011940A7
//  #05 //066   ----------------------------------------
 BYTE   PATT
  POIN2 Label_011940BD
//  #05 //067   ----------------------------------------
 BYTE   PATT
  POIN2 Label_011940DA
//  #05 //068   ----------------------------------------
 BYTE   W96
//  #05 //069   ----------------------------------------
 BYTE   W96
//  #05 //070   ----------------------------------------
 BYTE   PATT
  POIN2 Label_011940BD
//  #05 //071   ----------------------------------------
 BYTE   PATT
  POIN2 Label_011940DA
//  #05 //072   ----------------------------------------
 BYTE   W96
//  #05 //073   ----------------------------------------
 BYTE   W96
//  #05 //074   ----------------------------------------
 BYTE   PATT
  POIN2 Label_011940BD
//  #05 //075   ----------------------------------------
 BYTE   PATT
  POIN2 Label_011940DA
//  #05 //076   ----------------------------------------
 BYTE   W96
//  #05 //077   ----------------------------------------
 BYTE   W96
//  #05 //078   ----------------------------------------
 BYTE   PATT
  POIN2 Label_011940BD
//  #05 //079   ----------------------------------------
 BYTE   PATT
  POIN2 Label_0119410C
//  #05 //080   ----------------------------------------
 BYTE   W96
//  #05 //081   ----------------------------------------
 BYTE   W96
//  #05 //082   ----------------------------------------
 BYTE   W96
//  #05 //083   ----------------------------------------
 BYTE   W96
//  #05 //084   ----------------------------------------
 BYTE   W96
//  #05 //085   ----------------------------------------
 BYTE   GoTo
  POIN2 Label_01194066
 BYTE   FINE

//**************** Track 6 (Midi-Chn.5) ****************//

PowerPros3PennantHappyEnd_006:
//  #06 //000   ----------------------------------------
 BYTE   KEYSH   PowerPros3PennantHappyEnd_key+0
Label_01196186:
 BYTE   VOICE   36
 BYTE   MODT 0
 BYTE   LFOS 44
 BYTE   BENDR  12
 BYTE   VOL   62*PowerPros3PennantHappyEnd_mvl/mxv
 BYTE   PAN   c_v+0
 BYTE   VOL   62*PowerPros3PennantHappyEnd_mvl/mxv
 BYTE   N10  Ds1  v127
 BYTE   W12
 BYTE   N02
 BYTE   W06
 BYTE   N02
 BYTE   W06
 BYTE   N10
 BYTE   W12
 BYTE   N02
 BYTE   W06
 BYTE   N02
 BYTE   W06
 BYTE   N10
 BYTE   W12
 BYTE   N02
 BYTE   W06
 BYTE   N02
 BYTE   W06
 BYTE   N10
 BYTE   W12
 BYTE   N02
 BYTE   W06
 BYTE   N04  Ds2
 BYTE   W06
//  #06 //001   ----------------------------------------
Label_011961AF:
 BYTE   N02  Ds1  v127
 BYTE   W06
 BYTE   N10  Ds2
 BYTE   W12
 BYTE   N02  Ds1
 BYTE   W06
 BYTE   N10
 BYTE   W12
 BYTE   N02
 BYTE   W06
 BYTE   N02
 BYTE   W06
 BYTE   N10
 BYTE   W12
 BYTE   N02
 BYTE   W06
 BYTE   N02
 BYTE   W06
 BYTE   N10
 BYTE   W12
 BYTE   N02
 BYTE   W06
 BYTE   N02
 BYTE   W06
 BYTE   PEND 
//  #06 //002   ----------------------------------------
Label_011961CC:
 BYTE   N10  Gs1  v127
 BYTE   W12
 BYTE   N02
 BYTE   W06
 BYTE   N02
 BYTE   W06
 BYTE   N10
 BYTE   W12
 BYTE   N02
 BYTE   W06
 BYTE   N02
 BYTE   W06
 BYTE   N10
 BYTE   W12
 BYTE   N02
 BYTE   W06
 BYTE   N02
 BYTE   W06
 BYTE   N10
 BYTE   W12
 BYTE   N02
 BYTE   W06
 BYTE   N02
 BYTE   W06
 BYTE   PEND 
//  #06 //003   ----------------------------------------
 BYTE   PATT
  POIN2 Label_011961CC
//  #06 //004   ----------------------------------------
Label_011961EC:
 BYTE   N10  Ds1  v127
 BYTE   W12
 BYTE   N02
 BYTE   W06
 BYTE   N02
 BYTE   W06
 BYTE   N10
 BYTE   W12
 BYTE   N02
 BYTE   W06
 BYTE   N02
 BYTE   W06
 BYTE   N10
 BYTE   W12
 BYTE   N02
 BYTE   W06
 BYTE   N02
 BYTE   W06
 BYTE   N10
 BYTE   W12
 BYTE   N02
 BYTE   W06
 BYTE   N02
 BYTE   W06
 BYTE   PEND 
//  #06 //005   ----------------------------------------
 BYTE   PATT
  POIN2 Label_011961EC
//  #06 //006   ----------------------------------------
Label_0119620C:
 BYTE   N10  Gs1  v127
 BYTE   W12
 BYTE   N02
 BYTE   W06
 BYTE   N02
 BYTE   W06
 BYTE   N10
 BYTE   W12
 BYTE   N02
 BYTE   W06
 BYTE   N02
 BYTE   W06
 BYTE   N10
 BYTE   W12
 BYTE   N02
 BYTE   W06
 BYTE   N02
 BYTE   W06
 BYTE   N10
 BYTE   W12
 BYTE   N20  Fn1
 BYTE   W12
 BYTE   PEND 
//  #06 //007   ----------------------------------------
Label_01196226:
 BYTE   W12
 BYTE   N04  Fn1  v127
 BYTE   W06
 BYTE   N04
 BYTE   W06
 BYTE   N10
 BYTE   W12
 BYTE   N02
 BYTE   W06
 BYTE   N02
 BYTE   W06
 BYTE   N10
 BYTE   W12
 BYTE   N02
 BYTE   W06
 BYTE   N02
 BYTE   W06
 BYTE   N10
 BYTE   W12
 BYTE   N02
 BYTE   W06
 BYTE   N02
 BYTE   W06
 BYTE   PEND 
//  #06 //008   ----------------------------------------
Label_01196240:
 BYTE   N10  Ds1  v127
 BYTE   W12
 BYTE   N04  Ds2
 BYTE   W12
 BYTE   N10  Ds1
 BYTE   W12
 BYTE   N04  Ds2
 BYTE   W12
 BYTE   N10  Ds1
 BYTE   W12
 BYTE   N04  Ds2
 BYTE   W12
 BYTE   N10  Ds1
 BYTE   W12
 BYTE   N04  Ds2
 BYTE   W12
 BYTE   PEND 
//  #06 //009   ----------------------------------------
 BYTE   PATT
  POIN2 Label_01196240
//  #06 //010   ----------------------------------------
Label_0119625F:
 BYTE   N10  Fn1  v127
 BYTE   W12
 BYTE   N04  Fn2
 BYTE   W12
 BYTE   N10  Fn1
 BYTE   W12
 BYTE   N04  Fn2
 BYTE   W12
 BYTE   N10  Fn1
 BYTE   W12
 BYTE   N04  Fn2
 BYTE   W12
 BYTE   N10  Fn1
 BYTE   W12
 BYTE   N04  Fn2
 BYTE   W12
 BYTE   PEND 
//  #06 //011   ----------------------------------------
 BYTE   PATT
  POIN2 Label_0119625F
//  #06 //012   ----------------------------------------
 BYTE   PATT
  POIN2 Label_01196240
//  #06 //013   ----------------------------------------
 BYTE   PATT
  POIN2 Label_01196240
//  #06 //014   ----------------------------------------
Label_01196288:
 BYTE   N10  Gs1  v127
 BYTE   W12
 BYTE   N04  Gs2
 BYTE   W12
 BYTE   N10  Gs1
 BYTE   W12
 BYTE   N04  Gs2
 BYTE   W12
 BYTE   N10  Gs1
 BYTE   W12
 BYTE   N04  Gs2
 BYTE   W12
 BYTE   N10  Gs1
 BYTE   W12
 BYTE   N04  Gs2
 BYTE   W12
 BYTE   PEND 
//  #06 //015   ----------------------------------------
 BYTE   PATT
  POIN2 Label_0119625F
//  #06 //016   ----------------------------------------
 BYTE   PATT
  POIN2 Label_01196240
//  #06 //017   ----------------------------------------
 BYTE   PATT
  POIN2 Label_01196240
//  #06 //018   ----------------------------------------
 BYTE   PATT
  POIN2 Label_0119625F
//  #06 //019   ----------------------------------------
 BYTE   PATT
  POIN2 Label_0119625F
//  #06 //020   ----------------------------------------
 BYTE   PATT
  POIN2 Label_01196240
//  #06 //021   ----------------------------------------
Label_011962C0:
 BYTE   N10  Ds1  v127
 BYTE   W12
 BYTE   N04  Ds2
 BYTE   W12
 BYTE   N10  Ds1
 BYTE   W12
 BYTE   N04  Ds2
 BYTE   W12
 BYTE   N10  Ds1
 BYTE   W12
 BYTE   N10
 BYTE   W12
 BYTE   Fn1
 BYTE   W12
 BYTE   N22  Fs1
 BYTE   W12
 BYTE   PEND 
//  #06 //022   ----------------------------------------
Label_011962D8:
 BYTE   W12
 BYTE   N04  Fs2  v127
 BYTE   W12
 BYTE   N10  Fs1
 BYTE   W12
 BYTE   N04  Fs2
 BYTE   W12
 BYTE   N10  Fs1
 BYTE   W12
 BYTE   Fn1
 BYTE   W12
 BYTE   En1
 BYTE   W12
 BYTE   N22  Ds1
 BYTE   W12
 BYTE   PEND 
//  #06 //023   ----------------------------------------
Label_011962EE:
 BYTE   W12
 BYTE   N04  Ds2  v127
 BYTE   W12
 BYTE   N10  Ds1
 BYTE   W12
 BYTE   N04  Ds2
 BYTE   W12
 BYTE   N10  Ds1
 BYTE   W12
 BYTE   N04  Ds2
 BYTE   W12
 BYTE   N10  Ds1
 BYTE   W12
 BYTE   N04  Ds2
 BYTE   W12
 BYTE   PEND 
//  #06 //024   ----------------------------------------
Label_01196306:
 BYTE   N10  Ds1  v127
 BYTE   W12
 BYTE   N04  Ds2
 BYTE   W12
 BYTE   N10
 BYTE   W12
 BYTE   Fn2
 BYTE   W36
 BYTE   N22  Fn1
 BYTE   W09
 BYTE   BEND   c_v+0
 BYTE   W01
 BYTE   BEND   c_v-6
 BYTE   W02
 BYTE   BEND   c_v-13
 BYTE   W01
 BYTE   BEND   c_v-20
 BYTE   W02
 BYTE   BEND   c_v-27
 BYTE   W01
 BYTE   BEND   c_v-33
 BYTE   W02
 BYTE   BEND   c_v-40
 BYTE   W01
 BYTE   BEND   c_v-47
 BYTE   W02
 BYTE   BEND   c_v-54
 BYTE   W01
 BYTE   BEND   c_v-61
 BYTE   W01
 BYTE   BEND   c_v+0
 BYTE   W01
 BYTE   PEND 
//  #06 //025   ----------------------------------------
Label_0119632C:
 BYTE   N10  As0  v127
 BYTE   W12
 BYTE   As1
 BYTE   W12
 BYTE   N22  Cn2
 BYTE   W24
 BYTE   N10  Cs2
 BYTE   W12
 BYTE   Cs1
 BYTE   W12
 BYTE   Cs2
 BYTE   W12
 BYTE   N22  Ds2
 BYTE   W12
 BYTE   PEND 
//  #06 //026   ----------------------------------------
Label_01196340:
 BYTE   W12
 BYTE   N10  Ds1  v127
 BYTE   W12
 BYTE   Ds2
 BYTE   W12
 BYTE   N22  Fn2
 BYTE   W24
 BYTE   N10
 BYTE   W12
 BYTE   N22  Fn1
 BYTE   W24
 BYTE   PEND 
//  #06 //027   ----------------------------------------
Label_01196350:
 BYTE   N10  As0  v127
 BYTE   W12
 BYTE   As1
 BYTE   W12
 BYTE   N22  Cn2
 BYTE   W24
 BYTE   N10  Cs2
 BYTE   W12
 BYTE   As0
 BYTE   W12
 BYTE   Cs2
 BYTE   W12
 BYTE   N22  Ds2
 BYTE   W12
 BYTE   PEND 
//  #06 //028   ----------------------------------------
Label_01196364:
 BYTE   W12
 BYTE   N10  Ds1  v127
 BYTE   W12
 BYTE   N22  Fn2
 BYTE   W24
 BYTE   N10  Fn1
 BYTE   W12
 BYTE   Fn2
 BYTE   W12
 BYTE   N22  Fn1
 BYTE   W24
 BYTE   PEND 
//  #06 //029   ----------------------------------------
 BYTE   PATT
  POIN2 Label_0119632C
//  #06 //030   ----------------------------------------
 BYTE   PATT
  POIN2 Label_01196340
//  #06 //031   ----------------------------------------
 BYTE   PATT
  POIN2 Label_01196350
//  #06 //032   ----------------------------------------
 BYTE   PATT
  POIN2 Label_01196364
//  #06 //033   ----------------------------------------
 BYTE   PATT
  POIN2 Label_0119632C
//  #06 //034   ----------------------------------------
 BYTE   PATT
  POIN2 Label_01196340
//  #06 //035   ----------------------------------------
 BYTE   PATT
  POIN2 Label_01196350
//  #06 //036   ----------------------------------------
 BYTE   PATT
  POIN2 Label_01196364
//  #06 //037   ----------------------------------------
 BYTE   PATT
  POIN2 Label_0119632C
//  #06 //038   ----------------------------------------
 BYTE   PATT
  POIN2 Label_01196340
//  #06 //039   ----------------------------------------
 BYTE   PATT
  POIN2 Label_0119632C
//  #06 //040   ----------------------------------------
 BYTE   PATT
  POIN2 Label_01196340
//  #06 //041   ----------------------------------------
 BYTE   N10  Ds1  v127
 BYTE   W12
 BYTE   N02
 BYTE   W06
 BYTE   N02
 BYTE   W06
 BYTE   N10
 BYTE   W12
 BYTE   N02
 BYTE   W06
 BYTE   N02
 BYTE   W06
 BYTE   N10
 BYTE   W12
 BYTE   N02
 BYTE   W06
 BYTE   N02
 BYTE   W06
 BYTE   N10
 BYTE   W12
 BYTE   N02
 BYTE   W06
 BYTE   N04  Ds2
 BYTE   W06
//  #06 //042   ----------------------------------------
 BYTE   PATT
  POIN2 Label_011961AF
//  #06 //043   ----------------------------------------
 BYTE   PATT
  POIN2 Label_011961CC
//  #06 //044   ----------------------------------------
 BYTE   PATT
  POIN2 Label_011961CC
//  #06 //045   ----------------------------------------
 BYTE   PATT
  POIN2 Label_011961EC
//  #06 //046   ----------------------------------------
 BYTE   PATT
  POIN2 Label_011961EC
//  #06 //047   ----------------------------------------
 BYTE   PATT
  POIN2 Label_0119620C
//  #06 //048   ----------------------------------------
 BYTE   PATT
  POIN2 Label_01196226
//  #06 //049   ----------------------------------------
 BYTE   PATT
  POIN2 Label_01196240
//  #06 //050   ----------------------------------------
 BYTE   PATT
  POIN2 Label_01196240
//  #06 //051   ----------------------------------------
 BYTE   PATT
  POIN2 Label_0119625F
//  #06 //052   ----------------------------------------
 BYTE   PATT
  POIN2 Label_0119625F
//  #06 //053   ----------------------------------------
 BYTE   PATT
  POIN2 Label_01196240
//  #06 //054   ----------------------------------------
 BYTE   PATT
  POIN2 Label_01196240
//  #06 //055   ----------------------------------------
 BYTE   PATT
  POIN2 Label_01196288
//  #06 //056   ----------------------------------------
 BYTE   PATT
  POIN2 Label_0119625F
//  #06 //057   ----------------------------------------
 BYTE   PATT
  POIN2 Label_01196240
//  #06 //058   ----------------------------------------
 BYTE   PATT
  POIN2 Label_01196240
//  #06 //059   ----------------------------------------
 BYTE   PATT
  POIN2 Label_0119625F
//  #06 //060   ----------------------------------------
 BYTE   PATT
  POIN2 Label_0119625F
//  #06 //061   ----------------------------------------
 BYTE   PATT
  POIN2 Label_01196240
//  #06 //062   ----------------------------------------
 BYTE   PATT
  POIN2 Label_011962C0
//  #06 //063   ----------------------------------------
 BYTE   PATT
  POIN2 Label_011962D8
//  #06 //064   ----------------------------------------
 BYTE   PATT
  POIN2 Label_011962EE
//  #06 //065   ----------------------------------------
 BYTE   PATT
  POIN2 Label_01196306
//  #06 //066   ----------------------------------------
 BYTE   PATT
  POIN2 Label_0119632C
//  #06 //067   ----------------------------------------
 BYTE   PATT
  POIN2 Label_01196340
//  #06 //068   ----------------------------------------
 BYTE   PATT
  POIN2 Label_01196350
//  #06 //069   ----------------------------------------
 BYTE   PATT
  POIN2 Label_01196364
//  #06 //070   ----------------------------------------
 BYTE   PATT
  POIN2 Label_0119632C
//  #06 //071   ----------------------------------------
 BYTE   PATT
  POIN2 Label_01196340
//  #06 //072   ----------------------------------------
 BYTE   PATT
  POIN2 Label_01196350
//  #06 //073   ----------------------------------------
 BYTE   PATT
  POIN2 Label_01196364
//  #06 //074   ----------------------------------------
 BYTE   PATT
  POIN2 Label_0119632C
//  #06 //075   ----------------------------------------
 BYTE   PATT
  POIN2 Label_01196340
//  #06 //076   ----------------------------------------
 BYTE   PATT
  POIN2 Label_01196350
//  #06 //077   ----------------------------------------
 BYTE   PATT
  POIN2 Label_01196364
//  #06 //078   ----------------------------------------
 BYTE   PATT
  POIN2 Label_0119632C
//  #06 //079   ----------------------------------------
 BYTE   PATT
  POIN2 Label_01196340
//  #06 //080   ----------------------------------------
 BYTE   PATT
  POIN2 Label_0119632C
//  #06 //081   ----------------------------------------
 BYTE   PATT
  POIN2 Label_01196340
//  #06 //082   ----------------------------------------
 BYTE   VOL   62*PowerPros3PennantHappyEnd_mvl/mxv
 BYTE   N10  Ds1  v127
 BYTE   W06
 BYTE   VOL   61*PowerPros3PennantHappyEnd_mvl/mxv
 BYTE   W06
 BYTE   VOL   61*PowerPros3PennantHappyEnd_mvl/mxv
 BYTE   N02
 BYTE   W06
 BYTE   VOL   59*PowerPros3PennantHappyEnd_mvl/mxv
 BYTE   N02
 BYTE   W06
 BYTE   VOL   57*PowerPros3PennantHappyEnd_mvl/mxv
 BYTE   N10
 BYTE   W06
 BYTE   VOL   57*PowerPros3PennantHappyEnd_mvl/mxv
 BYTE   W06
 BYTE   VOL   56*PowerPros3PennantHappyEnd_mvl/mxv
 BYTE   N02
 BYTE   W06
 BYTE   VOL   55*PowerPros3PennantHappyEnd_mvl/mxv
 BYTE   N02
 BYTE   W06
 BYTE   VOL   54*PowerPros3PennantHappyEnd_mvl/mxv
 BYTE   N10
 BYTE   W06
 BYTE   VOL   52*PowerPros3PennantHappyEnd_mvl/mxv
 BYTE   W06
 BYTE   VOL   51*PowerPros3PennantHappyEnd_mvl/mxv
 BYTE   N02
 BYTE   W06
 BYTE   VOL   51*PowerPros3PennantHappyEnd_mvl/mxv
 BYTE   N02
 BYTE   W06
 BYTE   VOL   50*PowerPros3PennantHappyEnd_mvl/mxv
 BYTE   N10
 BYTE   W06
 BYTE   VOL   49*PowerPros3PennantHappyEnd_mvl/mxv
 BYTE   W06
 BYTE   VOL   48*PowerPros3PennantHappyEnd_mvl/mxv
 BYTE   N02
 BYTE   W06
 BYTE   VOL   46*PowerPros3PennantHappyEnd_mvl/mxv
 BYTE   N04  Ds2
 BYTE   W06
//  #06 //083   ----------------------------------------
 BYTE   VOL   45*PowerPros3PennantHappyEnd_mvl/mxv
 BYTE   N02  Ds1
 BYTE   W06
 BYTE   VOL   45*PowerPros3PennantHappyEnd_mvl/mxv
 BYTE   N10  Ds2
 BYTE   W06
 BYTE   VOL   44*PowerPros3PennantHappyEnd_mvl/mxv
 BYTE   W06
 BYTE   VOL   43*PowerPros3PennantHappyEnd_mvl/mxv
 BYTE   N02  Ds1
 BYTE   W06
 BYTE   VOL   42*PowerPros3PennantHappyEnd_mvl/mxv
 BYTE   N10
 BYTE   W06
 BYTE   VOL   40*PowerPros3PennantHappyEnd_mvl/mxv
 BYTE   W06
 BYTE   VOL   40*PowerPros3PennantHappyEnd_mvl/mxv
 BYTE   N02
 BYTE   W06
 BYTE   VOL   40*PowerPros3PennantHappyEnd_mvl/mxv
 BYTE   N02
 BYTE   W06
 BYTE   VOL   38*PowerPros3PennantHappyEnd_mvl/mxv
 BYTE   N10
 BYTE   W06
 BYTE   VOL   37*PowerPros3PennantHappyEnd_mvl/mxv
 BYTE   W06
 BYTE   VOL   37*PowerPros3PennantHappyEnd_mvl/mxv
 BYTE   N02
 BYTE   W06
 BYTE   VOL   35*PowerPros3PennantHappyEnd_mvl/mxv
 BYTE   N02
 BYTE   W06
 BYTE   VOL   34*PowerPros3PennantHappyEnd_mvl/mxv
 BYTE   N10
 BYTE   W06
 BYTE   VOL   34*PowerPros3PennantHappyEnd_mvl/mxv
 BYTE   W06
 BYTE   VOL   33*PowerPros3PennantHappyEnd_mvl/mxv
 BYTE   N02
 BYTE   W06
 BYTE   VOL   32*PowerPros3PennantHappyEnd_mvl/mxv
 BYTE   N02
 BYTE   W06
//  #06 //084   ----------------------------------------
 BYTE   VOL   31*PowerPros3PennantHappyEnd_mvl/mxv
 BYTE   N10  Gs1
 BYTE   W06
 BYTE   VOL   30*PowerPros3PennantHappyEnd_mvl/mxv
 BYTE   W06
 BYTE   VOL   30*PowerPros3PennantHappyEnd_mvl/mxv
 BYTE   N02
 BYTE   W06
 BYTE   VOL   29*PowerPros3PennantHappyEnd_mvl/mxv
 BYTE   N02
 BYTE   W06
 BYTE   VOL   28*PowerPros3PennantHappyEnd_mvl/mxv
 BYTE   N10
 BYTE   W06
 BYTE   VOL   27*PowerPros3PennantHappyEnd_mvl/mxv
 BYTE   W06
 BYTE   VOL   27*PowerPros3PennantHappyEnd_mvl/mxv
 BYTE   N02
 BYTE   W06
 BYTE   VOL   25*PowerPros3PennantHappyEnd_mvl/mxv
 BYTE   N02
 BYTE   W06
 BYTE   VOL   25*PowerPros3PennantHappyEnd_mvl/mxv
 BYTE   N10
 BYTE   W06
 BYTE   VOL   24*PowerPros3PennantHappyEnd_mvl/mxv
 BYTE   W06
 BYTE   VOL   23*PowerPros3PennantHappyEnd_mvl/mxv
 BYTE   N02
 BYTE   W06
 BYTE   VOL   22*PowerPros3PennantHappyEnd_mvl/mxv
 BYTE   N02
 BYTE   W06
 BYTE   VOL   22*PowerPros3PennantHappyEnd_mvl/mxv
 BYTE   N10
 BYTE   W06
 BYTE   VOL   21*PowerPros3PennantHappyEnd_mvl/mxv
 BYTE   W06
 BYTE   VOL   20*PowerPros3PennantHappyEnd_mvl/mxv
 BYTE   N02
 BYTE   W06
 BYTE   VOL   20*PowerPros3PennantHappyEnd_mvl/mxv
 BYTE   N02
 BYTE   W06
//  #06 //085   ----------------------------------------
 BYTE   GoTo
  POIN2 Label_01196186
 BYTE   FINE

//**************** Track 7 (Midi-Chn.6) ****************//

PowerPros3PennantHappyEnd_007:
//  #07 //000   ----------------------------------------
 BYTE   KEYSH   PowerPros3PennantHappyEnd_key+0
Label_0119655E:
 BYTE   VOICE   121
 BYTE   MODT 0
 BYTE   LFOS 44
 BYTE   VOL   60*PowerPros3PennantHappyEnd_mvl/mxv
 BYTE   PAN   c_v+0
 BYTE   VOL   60*PowerPros3PennantHappyEnd_mvl/mxv
 BYTE   BEND   c_v+63
 BYTE   N06  Cn1  v088
 BYTE   N06  Cs2
 BYTE   W06
 BYTE   Fs1  v127
 BYTE   W06
 BYTE   N06
 BYTE   W06
 BYTE   Cn1  v088
 BYTE   W06
 BYTE   Dn1
 BYTE   W12
 BYTE   Fs1  v127
 BYTE   W06
 BYTE   Cn1  v088
 BYTE   W06
 BYTE   N06
 BYTE   W06
 BYTE   Fs1  v127
 BYTE   W06
 BYTE   N06
 BYTE   W06
 BYTE   Cn1  v088
 BYTE   W06
 BYTE   Dn1
 BYTE   W12
 BYTE   Fs1  v127
 BYTE   W06
 BYTE   Cn1  v088
 BYTE   N06  As1
 BYTE   W06
//  #07 //001   ----------------------------------------
Label_01196596:
 BYTE   W06
 BYTE   N06  Cn1  v088
 BYTE   N06  As1
 BYTE   W12
 BYTE   Cn1
 BYTE   W06
 BYTE   Dn1
 BYTE   W12
 BYTE   Fs1  v127
 BYTE   W06
 BYTE   Cn1  v088
 BYTE   W12
 BYTE   As1
 BYTE   W06
 BYTE   Cn1
 BYTE   W06
 BYTE   Fs1  v127
 BYTE   W06
 BYTE   Dn1  v088
 BYTE   W12
 BYTE   Fs1  v127
 BYTE   W06
 BYTE   N06
 BYTE   W06
 BYTE   PEND 
//  #07 //002   ----------------------------------------
Label_011965B7:
 BYTE   N06  Cn1  v088
 BYTE   W06
 BYTE   Fs1  v127
 BYTE   W06
 BYTE   N06
 BYTE   W06
 BYTE   Cn1  v088
 BYTE   W06
 BYTE   Dn1
 BYTE   W12
 BYTE   Fs1  v127
 BYTE   W06
 BYTE   Cn1  v088
 BYTE   W06
 BYTE   N06
 BYTE   W06
 BYTE   Fs1  v127
 BYTE   W06
 BYTE   N06
 BYTE   W06
 BYTE   Cn1  v088
 BYTE   W06
 BYTE   Dn1
 BYTE   W12
 BYTE   Fs1  v127
 BYTE   W06
 BYTE   Cn1  v088
 BYTE   N06  As1
 BYTE   W06
 BYTE   PEND 
//  #07 //003   ----------------------------------------
 BYTE   PATT
  POIN2 Label_01196596
//  #07 //004   ----------------------------------------
Label_011965E5:
 BYTE   N06  Cn1  v088
 BYTE   N06  Cs2
 BYTE   W06
 BYTE   Fs1  v127
 BYTE   W06
 BYTE   N06
 BYTE   W06
 BYTE   Cn1  v088
 BYTE   W06
 BYTE   Dn1
 BYTE   W12
 BYTE   Fs1  v127
 BYTE   W06
 BYTE   Cn1  v088
 BYTE   W06
 BYTE   N06
 BYTE   W06
 BYTE   Fs1  v127
 BYTE   W06
 BYTE   N06
 BYTE   W06
 BYTE   Cn1  v088
 BYTE   W06
 BYTE   Dn1
 BYTE   W12
 BYTE   Fs1  v127
 BYTE   W06
 BYTE   Cn1  v088
 BYTE   W06
 BYTE   PEND 
//  #07 //005   ----------------------------------------
Label_0119660E:
 BYTE   N06  Cn1  v088
 BYTE   W06
 BYTE   Fs1  v127
 BYTE   W06
 BYTE   N06
 BYTE   W06
 BYTE   Cn1  v088
 BYTE   W06
 BYTE   Dn1
 BYTE   W12
 BYTE   Fs1  v127
 BYTE   W06
 BYTE   Cn1  v088
 BYTE   W06
 BYTE   N06
 BYTE   W06
 BYTE   Fs1  v127
 BYTE   W06
 BYTE   N06
 BYTE   W06
 BYTE   Cn1  v088
 BYTE   W06
 BYTE   Dn1
 BYTE   W12
 BYTE   Fs1  v127
 BYTE   W06
 BYTE   Cn1  v088
 BYTE   W06
 BYTE   PEND 
//  #07 //006   ----------------------------------------
Label_01196635:
 BYTE   N06  Cn1  v088
 BYTE   W06
 BYTE   Fs1  v127
 BYTE   W06
 BYTE   N06
 BYTE   W06
 BYTE   Cn1  v088
 BYTE   W06
 BYTE   Dn1
 BYTE   W12
 BYTE   Fs1  v127
 BYTE   W06
 BYTE   Cn1  v088
 BYTE   W06
 BYTE   N06
 BYTE   W06
 BYTE   Fs1  v127
 BYTE   W06
 BYTE   N06
 BYTE   W06
 BYTE   Cn1  v088
 BYTE   W06
 BYTE   Dn1
 BYTE   W12
 BYTE   Fs1  v127
 BYTE   W06
 BYTE   N06
 BYTE   W06
 BYTE   PEND 
//  #07 //007   ----------------------------------------
Label_0119665B:
 BYTE   N06  Fs1  v127
 BYTE   W06
 BYTE   Cn1  v088
 BYTE   W06
 BYTE   Dn2
 BYTE   W06
 BYTE   N04
 BYTE   W04
 BYTE   N04
 BYTE   W04
 BYTE   Cn2
 BYTE   W04
 BYTE   N06  Bn1
 BYTE   W06
 BYTE   An1
 BYTE   W12
 BYTE   N06
 BYTE   W12
 BYTE   N06
 BYTE   W06
 BYTE   Gn1
 BYTE   W06
 BYTE   N06
 BYTE   W06
 BYTE   N06
 BYTE   W06
 BYTE   Fn1
 BYTE   W12
 BYTE   PEND 
//  #07 //008   ----------------------------------------
Label_0119667C:
 BYTE   N06  Cn1  v088
 BYTE   N06  Cs2
 BYTE   W12
 BYTE   Fs1  v127
 BYTE   W06
 BYTE   N06
 BYTE   W06
 BYTE   Dn1  v088
 BYTE   W12
 BYTE   Fs1  v127
 BYTE   W06
 BYTE   N06
 BYTE   W06
 BYTE   Cn1  v088
 BYTE   W12
 BYTE   Fs1  v127
 BYTE   W06
 BYTE   N06
 BYTE   W06
 BYTE   Dn1  v088
 BYTE   W12
 BYTE   Fs1  v127
 BYTE   W06
 BYTE   N06
 BYTE   W06
 BYTE   PEND 
//  #07 //009   ----------------------------------------
Label_011966A0:
 BYTE   N06  Cn1  v088
 BYTE   W12
 BYTE   Fs1  v127
 BYTE   W06
 BYTE   N06
 BYTE   W06
 BYTE   Dn1  v088
 BYTE   W12
 BYTE   Fs1  v127
 BYTE   W06
 BYTE   N06
 BYTE   W06
 BYTE   Cn1  v088
 BYTE   W12
 BYTE   Fs1  v127
 BYTE   W06
 BYTE   N06
 BYTE   W06
 BYTE   Dn1  v088
 BYTE   W12
 BYTE   Fs1  v127
 BYTE   W06
 BYTE   N06
 BYTE   W06
 BYTE   PEND 
//  #07 //010   ----------------------------------------
 BYTE   PATT
  POIN2 Label_011966A0
//  #07 //011   ----------------------------------------
 BYTE   PATT
  POIN2 Label_011966A0
//  #07 //012   ----------------------------------------
 BYTE   PATT
  POIN2 Label_0119667C
//  #07 //013   ----------------------------------------
 BYTE   PATT
  POIN2 Label_011966A0
//  #07 //014   ----------------------------------------
 BYTE   PATT
  POIN2 Label_011966A0
//  #07 //015   ----------------------------------------
 BYTE   PATT
  POIN2 Label_011966A0
//  #07 //016   ----------------------------------------
 BYTE   PATT
  POIN2 Label_0119667C
//  #07 //017   ----------------------------------------
 BYTE   PATT
  POIN2 Label_011966A0
//  #07 //018   ----------------------------------------
 BYTE   PATT
  POIN2 Label_011966A0
//  #07 //019   ----------------------------------------
 BYTE   PATT
  POIN2 Label_011966A0
//  #07 //020   ----------------------------------------
 BYTE   PATT
  POIN2 Label_011966A0
//  #07 //021   ----------------------------------------
 BYTE   PATT
  POIN2 Label_011966A0
//  #07 //022   ----------------------------------------
 BYTE   PATT
  POIN2 Label_011966A0
//  #07 //023   ----------------------------------------
 BYTE   PATT
  POIN2 Label_011966A0
//  #07 //024   ----------------------------------------
Label_01196708:
 BYTE   N06  Cn1  v088
 BYTE   W12
 BYTE   Dn1
 BYTE   W12
 BYTE   N06
 BYTE   W12
 BYTE   N06
 BYTE   W12
 BYTE   Cn1
 BYTE   W06
 BYTE   Dn1
 BYTE   W05
 BYTE   BENDR  32
 BYTE   W01
 BYTE   N06  Cn1
 BYTE   N06  Ds1  v127
 BYTE   W05
 BYTE   BENDR  96
 BYTE   W01
 BYTE   N06  Cn1  v088
 BYTE   W06
 BYTE   Dn1
 BYTE   N06  Ds1  v127
 BYTE   W12
 BYTE   Dn1  v088
 BYTE   W06
 BYTE   N06
 BYTE   W06
 BYTE   PEND 
//  #07 //025   ----------------------------------------
Label_01196731:
 BYTE   N06  Cn1  v088
 BYTE   N06  Fs1
 BYTE   N06  Cs2
 BYTE   W06
 BYTE   Fs1
 BYTE   W06
 BYTE   As1
 BYTE   W12
 BYTE   Dn1
 BYTE   N06  Fs1
 BYTE   W12
 BYTE   As1
 BYTE   W12
 BYTE   Cn1
 BYTE   N06  Fs1
 BYTE   W06
 BYTE   N06
 BYTE   W06
 BYTE   As1
 BYTE   W12
 BYTE   Dn1
 BYTE   N06  Fs1
 BYTE   W12
 BYTE   As1
 BYTE   W12
 BYTE   PEND 
//  #07 //026   ----------------------------------------
Label_01196752:
 BYTE   N06  Cn1  v088
 BYTE   N06  Fs1
 BYTE   W06
 BYTE   N06
 BYTE   W06
 BYTE   As1
 BYTE   W12
 BYTE   Dn1
 BYTE   N06  Fs1
 BYTE   W12
 BYTE   As1
 BYTE   W12
 BYTE   Cn1
 BYTE   N06  Fs1
 BYTE   W06
 BYTE   N06
 BYTE   W06
 BYTE   As1
 BYTE   W12
 BYTE   Dn1
 BYTE   N06  Fs1
 BYTE   W12
 BYTE   As1
 BYTE   W12
 BYTE   PEND 
//  #07 //027   ----------------------------------------
 BYTE   PATT
  POIN2 Label_01196752
//  #07 //028   ----------------------------------------
Label_01196776:
 BYTE   N06  Cn1  v088
 BYTE   N06  Fs1
 BYTE   W06
 BYTE   N06
 BYTE   W06
 BYTE   As1
 BYTE   W12
 BYTE   Dn1
 BYTE   N06  Fs1
 BYTE   W12
 BYTE   As1
 BYTE   W12
 BYTE   Cn1
 BYTE   N06  Fs1
 BYTE   W12
 BYTE   Dn1
 BYTE   W12
 BYTE   N06
 BYTE   W12
 BYTE   Cn1
 BYTE   W12
 BYTE   PEND 
//  #07 //029   ----------------------------------------
 BYTE   PATT
  POIN2 Label_01196731
//  #07 //030   ----------------------------------------
 BYTE   PATT
  POIN2 Label_01196752
//  #07 //031   ----------------------------------------
 BYTE   PATT
  POIN2 Label_01196752
//  #07 //032   ----------------------------------------
Label_011967A0:
 BYTE   N06  Cn1  v088
 BYTE   W12
 BYTE   N06
 BYTE   W12
 BYTE   Dn1
 BYTE   W12
 BYTE   N06
 BYTE   W06
 BYTE   N06
 BYTE   W12
 BYTE   N06
 BYTE   W06
 BYTE   N06
 BYTE   W12
 BYTE   N06
 BYTE   W12
 BYTE   N06
 BYTE   W06
 BYTE   N06
 BYTE   W06
 BYTE   PEND 
//  #07 //033   ----------------------------------------
Label_011967B7:
 BYTE   N06  Cn1  v088
 BYTE   N06  Fs1  v127
 BYTE   N06  Cs2  v088
 BYTE   W06
 BYTE   Fs1  v127
 BYTE   W06
 BYTE   As1  v088
 BYTE   W12
 BYTE   Dn1
 BYTE   N06  Fs1  v127
 BYTE   W12
 BYTE   As1  v088
 BYTE   W12
 BYTE   Cn1
 BYTE   N06  Fs1  v127
 BYTE   W06
 BYTE   N06
 BYTE   W06
 BYTE   As1  v088
 BYTE   W12
 BYTE   Dn1
 BYTE   N06  Fs1  v127
 BYTE   W12
 BYTE   As1  v088
 BYTE   W12
 BYTE   PEND 
//  #07 //034   ----------------------------------------
Label_011967E2:
 BYTE   N06  Cn1  v088
 BYTE   N06  Fs1  v127
 BYTE   W06
 BYTE   N06
 BYTE   W06
 BYTE   As1  v088
 BYTE   W12
 BYTE   Dn1
 BYTE   N06  Fs1  v127
 BYTE   W12
 BYTE   As1  v088
 BYTE   W12
 BYTE   Cn1
 BYTE   N06  Fs1  v127
 BYTE   W06
 BYTE   N06
 BYTE   W06
 BYTE   As1  v088
 BYTE   W12
 BYTE   Dn1
 BYTE   N06  Fs1  v127
 BYTE   W12
 BYTE   As1  v088
 BYTE   W12
 BYTE   PEND 
//  #07 //035   ----------------------------------------
 BYTE   PATT
  POIN2 Label_011967E2
//  #07 //036   ----------------------------------------
 BYTE   PATT
  POIN2 Label_011967E2
//  #07 //037   ----------------------------------------
 BYTE   PATT
  POIN2 Label_011967B7
//  #07 //038   ----------------------------------------
 BYTE   PATT
  POIN2 Label_011967E2
//  #07 //039   ----------------------------------------
 BYTE   PATT
  POIN2 Label_011967E2
//  #07 //040   ----------------------------------------
 BYTE   N06  Cn1  v088
 BYTE   W06
 BYTE   Dn1
 BYTE   W06
 BYTE   Gn1
 BYTE   W12
 BYTE   Dn1
 BYTE   W12
 BYTE   N06
 BYTE   W06
 BYTE   N06
 BYTE   W06
 BYTE   Bn1
 BYTE   W06
 BYTE   N06
 BYTE   W06
 BYTE   An1
 BYTE   W06
 BYTE   N06
 BYTE   W06
 BYTE   Gn1
 BYTE   W06
 BYTE   N06
 BYTE   W06
 BYTE   Fn1
 BYTE   W12
//  #07 //041   ----------------------------------------
 BYTE   Cn1
 BYTE   N06  Cs2
 BYTE   W06
 BYTE   Fs1  v127
 BYTE   W06
 BYTE   N06
 BYTE   W06
 BYTE   Cn1  v088
 BYTE   W06
 BYTE   Dn1
 BYTE   W12
 BYTE   Fs1  v127
 BYTE   W06
 BYTE   Cn1  v088
 BYTE   W06
 BYTE   N06
 BYTE   W06
 BYTE   Fs1  v127
 BYTE   W06
 BYTE   N06
 BYTE   W06
 BYTE   Cn1  v088
 BYTE   W06
 BYTE   Dn1
 BYTE   W12
 BYTE   Fs1  v127
 BYTE   W06
 BYTE   Cn1  v088
 BYTE   N06  As1
 BYTE   W06
//  #07 //042   ----------------------------------------
 BYTE   PATT
  POIN2 Label_01196596
//  #07 //043   ----------------------------------------
 BYTE   PATT
  POIN2 Label_011965B7
//  #07 //044   ----------------------------------------
 BYTE   PATT
  POIN2 Label_01196596
//  #07 //045   ----------------------------------------
 BYTE   PATT
  POIN2 Label_011965E5
//  #07 //046   ----------------------------------------
 BYTE   PATT
  POIN2 Label_0119660E
//  #07 //047   ----------------------------------------
 BYTE   PATT
  POIN2 Label_01196635
//  #07 //048   ----------------------------------------
 BYTE   PATT
  POIN2 Label_0119665B
//  #07 //049   ----------------------------------------
 BYTE   PATT
  POIN2 Label_0119667C
//  #07 //050   ----------------------------------------
 BYTE   PATT
  POIN2 Label_011966A0
//  #07 //051   ----------------------------------------
 BYTE   PATT
  POIN2 Label_011966A0
//  #07 //052   ----------------------------------------
 BYTE   PATT
  POIN2 Label_011966A0
//  #07 //053   ----------------------------------------
 BYTE   PATT
  POIN2 Label_0119667C
//  #07 //054   ----------------------------------------
 BYTE   PATT
  POIN2 Label_011966A0
//  #07 //055   ----------------------------------------
 BYTE   PATT
  POIN2 Label_011966A0
//  #07 //056   ----------------------------------------
 BYTE   PATT
  POIN2 Label_011966A0
//  #07 //057   ----------------------------------------
 BYTE   PATT
  POIN2 Label_0119667C
//  #07 //058   ----------------------------------------
 BYTE   PATT
  POIN2 Label_011966A0
//  #07 //059   ----------------------------------------
 BYTE   PATT
  POIN2 Label_011966A0
//  #07 //060   ----------------------------------------
 BYTE   PATT
  POIN2 Label_011966A0
//  #07 //061   ----------------------------------------
 BYTE   PATT
  POIN2 Label_011966A0
//  #07 //062   ----------------------------------------
 BYTE   PATT
  POIN2 Label_011966A0
//  #07 //063   ----------------------------------------
 BYTE   PATT
  POIN2 Label_011966A0
//  #07 //064   ----------------------------------------
 BYTE   PATT
  POIN2 Label_011966A0
//  #07 //065   ----------------------------------------
 BYTE   PATT
  POIN2 Label_01196708
//  #07 //066   ----------------------------------------
 BYTE   PATT
  POIN2 Label_01196731
//  #07 //067   ----------------------------------------
 BYTE   PATT
  POIN2 Label_01196752
//  #07 //068   ----------------------------------------
 BYTE   PATT
  POIN2 Label_01196752
//  #07 //069   ----------------------------------------
 BYTE   PATT
  POIN2 Label_01196776
//  #07 //070   ----------------------------------------
 BYTE   PATT
  POIN2 Label_01196731
//  #07 //071   ----------------------------------------
 BYTE   PATT
  POIN2 Label_01196752
//  #07 //072   ----------------------------------------
 BYTE   PATT
  POIN2 Label_01196752
//  #07 //073   ----------------------------------------
 BYTE   PATT
  POIN2 Label_011967A0
//  #07 //074   ----------------------------------------
 BYTE   PATT
  POIN2 Label_011967B7
//  #07 //075   ----------------------------------------
 BYTE   PATT
  POIN2 Label_011967E2
//  #07 //076   ----------------------------------------
 BYTE   PATT
  POIN2 Label_011967E2
//  #07 //077   ----------------------------------------
 BYTE   PATT
  POIN2 Label_011967E2
//  #07 //078   ----------------------------------------
 BYTE   PATT
  POIN2 Label_011967B7
//  #07 //079   ----------------------------------------
 BYTE   PATT
  POIN2 Label_011967E2
//  #07 //080   ----------------------------------------
 BYTE   PATT
  POIN2 Label_011967E2
//  #07 //081   ----------------------------------------
 BYTE   N06  Cn1  v088
 BYTE   W06
 BYTE   Dn1
 BYTE   W06
 BYTE   Gn1
 BYTE   W12
 BYTE   Dn1
 BYTE   W12
 BYTE   N06
 BYTE   W06
 BYTE   N06
 BYTE   W06
 BYTE   Bn1
 BYTE   W06
 BYTE   N06
 BYTE   W06
 BYTE   An1
 BYTE   W06
 BYTE   N06
 BYTE   W06
 BYTE   Gn1
 BYTE   W06
 BYTE   N06
 BYTE   W06
 BYTE   N11  Fn1
 BYTE   W12
//  #07 //082   ----------------------------------------
 BYTE   VOL   60*PowerPros3PennantHappyEnd_mvl/mxv
 BYTE   N06  Cn1
 BYTE   N06  Cs2
 BYTE   W06
 BYTE   VOL   58*PowerPros3PennantHappyEnd_mvl/mxv
 BYTE   N06  Fs1  v127
 BYTE   W06
 BYTE   VOL   58*PowerPros3PennantHappyEnd_mvl/mxv
 BYTE   N06
 BYTE   W06
 BYTE   VOL   55*PowerPros3PennantHappyEnd_mvl/mxv
 BYTE   N06  Cn1  v088
 BYTE   W06
 BYTE   VOL   54*PowerPros3PennantHappyEnd_mvl/mxv
 BYTE   N06  Dn1
 BYTE   W06
 BYTE   VOL   53*PowerPros3PennantHappyEnd_mvl/mxv
 BYTE   W06
 BYTE   VOL   51*PowerPros3PennantHappyEnd_mvl/mxv
 BYTE   N06  Fs1  v127
 BYTE   W06
 BYTE   VOL   50*PowerPros3PennantHappyEnd_mvl/mxv
 BYTE   N06  Cn1  v088
 BYTE   W06
 BYTE   VOL   49*PowerPros3PennantHappyEnd_mvl/mxv
 BYTE   N06
 BYTE   W06
 BYTE   VOL   48*PowerPros3PennantHappyEnd_mvl/mxv
 BYTE   N06  Fs1  v127
 BYTE   W06
 BYTE   VOL   46*PowerPros3PennantHappyEnd_mvl/mxv
 BYTE   N06
 BYTE   W06
 BYTE   VOL   46*PowerPros3PennantHappyEnd_mvl/mxv
 BYTE   N06  Cn1  v088
 BYTE   W06
 BYTE   VOL   43*PowerPros3PennantHappyEnd_mvl/mxv
 BYTE   N06  Dn1
 BYTE   W06
 BYTE   VOL   42*PowerPros3PennantHappyEnd_mvl/mxv
 BYTE   W06
 BYTE   VOL   41*PowerPros3PennantHappyEnd_mvl/mxv
 BYTE   N06  Fs1  v127
 BYTE   W06
 BYTE   VOL   39*PowerPros3PennantHappyEnd_mvl/mxv
 BYTE   N06  Cn1  v088
 BYTE   N06  As1
 BYTE   W06
//  #07 //083   ----------------------------------------
 BYTE   VOL   39*PowerPros3PennantHappyEnd_mvl/mxv
 BYTE   W06
 BYTE   VOL   37*PowerPros3PennantHappyEnd_mvl/mxv
 BYTE   N06  Cn1
 BYTE   N06  As1
 BYTE   W06
 BYTE   VOL   36*PowerPros3PennantHappyEnd_mvl/mxv
 BYTE   W06
 BYTE   VOL   35*PowerPros3PennantHappyEnd_mvl/mxv
 BYTE   N06  Cn1
 BYTE   W06
 BYTE   VOL   34*PowerPros3PennantHappyEnd_mvl/mxv
 BYTE   N06  Dn1
 BYTE   W06
 BYTE   VOL   32*PowerPros3PennantHappyEnd_mvl/mxv
 BYTE   W06
 BYTE   VOL   31*PowerPros3PennantHappyEnd_mvl/mxv
 BYTE   N06  Fs1  v127
 BYTE   W06
 BYTE   VOL   31*PowerPros3PennantHappyEnd_mvl/mxv
 BYTE   N06  Cn1  v088
 BYTE   W06
 BYTE   VOL   29*PowerPros3PennantHappyEnd_mvl/mxv
 BYTE   W06
 BYTE   VOL   28*PowerPros3PennantHappyEnd_mvl/mxv
 BYTE   N06  As1
 BYTE   W06
 BYTE   VOL   27*PowerPros3PennantHappyEnd_mvl/mxv
 BYTE   N06  Cn1
 BYTE   W06
 BYTE   VOL   25*PowerPros3PennantHappyEnd_mvl/mxv
 BYTE   N06  Fs1  v127
 BYTE   W06
 BYTE   VOL   25*PowerPros3PennantHappyEnd_mvl/mxv
 BYTE   N06  Dn1  v088
 BYTE   W06
 BYTE   VOL   24*PowerPros3PennantHappyEnd_mvl/mxv
 BYTE   W06
 BYTE   VOL   22*PowerPros3PennantHappyEnd_mvl/mxv
 BYTE   N06  Fs1  v127
 BYTE   W06
 BYTE   VOL   21*PowerPros3PennantHappyEnd_mvl/mxv
 BYTE   N06
 BYTE   W06
//  #07 //084   ----------------------------------------
 BYTE   VOL   20*PowerPros3PennantHappyEnd_mvl/mxv
 BYTE   N06  Cn1  v088
 BYTE   W06
 BYTE   VOL   19*PowerPros3PennantHappyEnd_mvl/mxv
 BYTE   N06  Fs1  v127
 BYTE   W06
 BYTE   VOL   18*PowerPros3PennantHappyEnd_mvl/mxv
 BYTE   N06
 BYTE   W06
 BYTE   VOL   17*PowerPros3PennantHappyEnd_mvl/mxv
 BYTE   N06  Cn1  v088
 BYTE   W06
 BYTE   VOL   16*PowerPros3PennantHappyEnd_mvl/mxv
 BYTE   N06  Dn1
 BYTE   W06
 BYTE   VOL   15*PowerPros3PennantHappyEnd_mvl/mxv
 BYTE   W06
 BYTE   VOL   14*PowerPros3PennantHappyEnd_mvl/mxv
 BYTE   N06  Fs1  v127
 BYTE   W06
 BYTE   VOL   13*PowerPros3PennantHappyEnd_mvl/mxv
 BYTE   N06  Cn1  v088
 BYTE   W06
 BYTE   VOL   12*PowerPros3PennantHappyEnd_mvl/mxv
 BYTE   N06
 BYTE   W06
 BYTE   VOL   11*PowerPros3PennantHappyEnd_mvl/mxv
 BYTE   N06  Fs1  v127
 BYTE   W06
 BYTE   VOL   10*PowerPros3PennantHappyEnd_mvl/mxv
 BYTE   N06
 BYTE   W06
 BYTE   VOL   9*PowerPros3PennantHappyEnd_mvl/mxv
 BYTE   N06  Cn1  v088
 BYTE   W06
 BYTE   VOL   8*PowerPros3PennantHappyEnd_mvl/mxv
 BYTE   N06  Dn1
 BYTE   W06
 BYTE   VOL   7*PowerPros3PennantHappyEnd_mvl/mxv
 BYTE   W06
 BYTE   VOL   7*PowerPros3PennantHappyEnd_mvl/mxv
 BYTE   N06  Fs1  v127
 BYTE   W06
 BYTE   VOL   6*PowerPros3PennantHappyEnd_mvl/mxv
 BYTE   N06  Cn1  v088
 BYTE   N06  As1
 BYTE   W06
//  #07 //085   ----------------------------------------
 BYTE   GoTo
  POIN2 Label_0119655E
 BYTE   FINE

//**************** Track 8 (Midi-Chn.7) ****************//

PowerPros3PennantHappyEnd_008:
//  #08 //000   ----------------------------------------
 BYTE   KEYSH   PowerPros3PennantHappyEnd_key+0
Label_01196A4E:
 BYTE   VOICE   28
 BYTE   MODT 0
 BYTE   LFOS 44
 BYTE   PAN   c_v+0
 BYTE   VOL   25*PowerPros3PennantHappyEnd_mvl/mxv
 BYTE   BEND   c_v+0
 BYTE   W36
 BYTE   N04  Ds3  v088
 BYTE   N04  Ds4
 BYTE   W06
 BYTE   Fn3
 BYTE   N04  Fn4
 BYTE   W06
 BYTE   Gs3
 BYTE   N04  Gs4
 BYTE   W06
 BYTE   Gs3
 BYTE   N04  Gs4
 BYTE   W06
 BYTE   Fn3
 BYTE   N04  Fn4
 BYTE   W06
 BYTE   Ds3
 BYTE   N04  Ds4
 BYTE   W06
 BYTE   N10  Gs3
 BYTE   N10  Gs4
 BYTE   W12
 BYTE   N04  Fn3
 BYTE   N04  Fn4
 BYTE   W06
 BYTE   Ds3
 BYTE   N04  Ds4
 BYTE   W06
//  #08 //001   ----------------------------------------
Label_01196A83:
 BYTE   W36
 BYTE   N04  Ds3  v088
 BYTE   N04  Ds4
 BYTE   W06
 BYTE   Fn3
 BYTE   N04  Fn4
 BYTE   W06
 BYTE   Gs3
 BYTE   N04  Gs4
 BYTE   W06
 BYTE   Gs3
 BYTE   N04  Gs4
 BYTE   W06
 BYTE   Fn3
 BYTE   N04  Fn4
 BYTE   W06
 BYTE   Ds3
 BYTE   N04  Ds4
 BYTE   W06
 BYTE   N10  Gs3
 BYTE   N10  Gs4
 BYTE   W12
 BYTE   N12  As3
 BYTE   N12  As4
 BYTE   W06
 BYTE   BEND   c_v+63
 BYTE   W06
 BYTE   PEND 
//  #08 //002   ----------------------------------------
Label_01196AAC:
 BYTE   BEND   c_v+0
 BYTE   W36
 BYTE   N04  Ds3  v088
 BYTE   N04  Ds4
 BYTE   W06
 BYTE   Fn3
 BYTE   N04  Fn4
 BYTE   W06
 BYTE   Gs3
 BYTE   N04  Gs4
 BYTE   W06
 BYTE   Gs3
 BYTE   N04  Gs4
 BYTE   W06
 BYTE   Fn3
 BYTE   N04  Fn4
 BYTE   W06
 BYTE   Ds3
 BYTE   N04  Ds4
 BYTE   W06
 BYTE   N10  Gs3
 BYTE   N10  Gs4
 BYTE   W12
 BYTE   N04  Fn3
 BYTE   N04  Fn4
 BYTE   W06
 BYTE   Ds3
 BYTE   N04  Ds4
 BYTE   W06
 BYTE   PEND 
//  #08 //003   ----------------------------------------
 BYTE   PATT
  POIN2 Label_01196A83
//  #08 //004   ----------------------------------------
 BYTE   PATT
  POIN2 Label_01196AAC
//  #08 //005   ----------------------------------------
 BYTE   PATT
  POIN2 Label_01196A83
//  #08 //006   ----------------------------------------
 BYTE   PATT
  POIN2 Label_01196AAC
//  #08 //007   ----------------------------------------
 BYTE   PATT
  POIN2 Label_01196A83
//  #08 //008   ----------------------------------------
 BYTE   BEND   c_v+0
 BYTE   W96
//  #08 //009   ----------------------------------------
 BYTE   W96
//  #08 //010   ----------------------------------------
 BYTE   W96
//  #08 //011   ----------------------------------------
 BYTE   W96
//  #08 //012   ----------------------------------------
 BYTE   W96
//  #08 //013   ----------------------------------------
 BYTE   W96
//  #08 //014   ----------------------------------------
 BYTE   W96
//  #08 //015   ----------------------------------------
 BYTE   W96
//  #08 //016   ----------------------------------------
Label_01196AFB:
 BYTE   N10  Ds3  v088
 BYTE   N10  Ds4
 BYTE   W12
 BYTE   N01  Ds3  v060
 BYTE   N01  Ds4
 BYTE   W06
 BYTE   N04  Ds3  v088
 BYTE   N04  Ds4
 BYTE   W06
 BYTE   N10  Ds3
 BYTE   N10  Ds4
 BYTE   W12
 BYTE   N01  Ds3  v060
 BYTE   N01  Ds4
 BYTE   W06
 BYTE   N04  Ds3  v088
 BYTE   N04  Ds4
 BYTE   W06
 BYTE   N01  Ds3  v060
 BYTE   N01  Ds4
 BYTE   W06
 BYTE   N04  Ds3  v088
 BYTE   N04  Ds4
 BYTE   W06
 BYTE   N01  Ds3  v060
 BYTE   N01  Ds4
 BYTE   W06
 BYTE   Ds3
 BYTE   N01  Ds4
 BYTE   W06
 BYTE   N10  Ds3  v088
 BYTE   N10  Ds4
 BYTE   W12
 BYTE   N01  Ds3  v060
 BYTE   N01  Ds4
 BYTE   W06
 BYTE   Ds3
 BYTE   N01  Ds4
 BYTE   W06
 BYTE   PEND 
//  #08 //017   ----------------------------------------
 BYTE   PATT
  POIN2 Label_01196AFB
//  #08 //018   ----------------------------------------
 BYTE   PATT
  POIN2 Label_01196AFB
//  #08 //019   ----------------------------------------
 BYTE   PATT
  POIN2 Label_01196AFB
//  #08 //020   ----------------------------------------
Label_01196B54:
 BYTE   N10  Ds3  v088
 BYTE   N10  Ds4
 BYTE   W12
 BYTE   N01  Ds3  v060
 BYTE   N01  Ds4
 BYTE   W06
 BYTE   Ds3
 BYTE   N01  Ds4
 BYTE   W06
 BYTE   N10  Ds3  v088
 BYTE   N10  Ds4
 BYTE   W12
 BYTE   N01  Ds3  v060
 BYTE   N01  Ds4
 BYTE   W06
 BYTE   Ds3
 BYTE   N01  Ds4
 BYTE   W06
 BYTE   N10  Ds3  v088
 BYTE   N10  Ds4
 BYTE   W12
 BYTE   N01  Ds3  v060
 BYTE   N01  Ds4
 BYTE   W06
 BYTE   Ds3
 BYTE   N01  Ds4
 BYTE   W06
 BYTE   N10  Ds3  v088
 BYTE   N10  Ds4
 BYTE   W12
 BYTE   N01  Ds3  v060
 BYTE   N01  Ds4
 BYTE   W06
 BYTE   Ds3
 BYTE   N01  Ds4
 BYTE   W06
 BYTE   PEND 
//  #08 //021   ----------------------------------------
 BYTE   PATT
  POIN2 Label_01196B54
//  #08 //022   ----------------------------------------
 BYTE   PATT
  POIN2 Label_01196B54
//  #08 //023   ----------------------------------------
 BYTE   W96
//  #08 //024   ----------------------------------------
 BYTE   W96
//  #08 //025   ----------------------------------------
 BYTE   PATT
  POIN2 Label_01196AFB
//  #08 //026   ----------------------------------------
 BYTE   PATT
  POIN2 Label_01196AFB
//  #08 //027   ----------------------------------------
 BYTE   PATT
  POIN2 Label_01196AFB
//  #08 //028   ----------------------------------------
 BYTE   PATT
  POIN2 Label_01196AFB
//  #08 //029   ----------------------------------------
 BYTE   PATT
  POIN2 Label_01196AFB
//  #08 //030   ----------------------------------------
 BYTE   PATT
  POIN2 Label_01196AFB
//  #08 //031   ----------------------------------------
 BYTE   PATT
  POIN2 Label_01196AFB
//  #08 //032   ----------------------------------------
 BYTE   PATT
  POIN2 Label_01196AFB
//  #08 //033   ----------------------------------------
 BYTE   PATT
  POIN2 Label_01196AFB
//  #08 //034   ----------------------------------------
 BYTE   PATT
  POIN2 Label_01196AFB
//  #08 //035   ----------------------------------------
 BYTE   PATT
  POIN2 Label_01196AFB
//  #08 //036   ----------------------------------------
 BYTE   PATT
  POIN2 Label_01196AFB
//  #08 //037   ----------------------------------------
 BYTE   PATT
  POIN2 Label_01196B54
//  #08 //038   ----------------------------------------
 BYTE   PATT
  POIN2 Label_01196B54
//  #08 //039   ----------------------------------------
 BYTE   PATT
  POIN2 Label_01196B54
//  #08 //040   ----------------------------------------
 BYTE   PATT
  POIN2 Label_01196B54
//  #08 //041   ----------------------------------------
 BYTE   PATT
  POIN2 Label_01196AAC
//  #08 //042   ----------------------------------------
 BYTE   PATT
  POIN2 Label_01196A83
//  #08 //043   ----------------------------------------
 BYTE   PATT
  POIN2 Label_01196AAC
//  #08 //044   ----------------------------------------
 BYTE   PATT
  POIN2 Label_01196A83
//  #08 //045   ----------------------------------------
 BYTE   PATT
  POIN2 Label_01196AAC
//  #08 //046   ----------------------------------------
 BYTE   PATT
  POIN2 Label_01196A83
//  #08 //047   ----------------------------------------
 BYTE   PATT
  POIN2 Label_01196AAC
//  #08 //048   ----------------------------------------
 BYTE   PATT
  POIN2 Label_01196A83
//  #08 //049   ----------------------------------------
 BYTE   BEND   c_v+0
 BYTE   W96
//  #08 //050   ----------------------------------------
 BYTE   W96
//  #08 //051   ----------------------------------------
 BYTE   W96
//  #08 //052   ----------------------------------------
 BYTE   W96
//  #08 //053   ----------------------------------------
 BYTE   W96
//  #08 //054   ----------------------------------------
 BYTE   W96
//  #08 //055   ----------------------------------------
 BYTE   W96
//  #08 //056   ----------------------------------------
 BYTE   W96
//  #08 //057   ----------------------------------------
 BYTE   PATT
  POIN2 Label_01196AFB
//  #08 //058   ----------------------------------------
 BYTE   PATT
  POIN2 Label_01196AFB
//  #08 //059   ----------------------------------------
 BYTE   PATT
  POIN2 Label_01196AFB
//  #08 //060   ----------------------------------------
 BYTE   PATT
  POIN2 Label_01196AFB
//  #08 //061   ----------------------------------------
 BYTE   PATT
  POIN2 Label_01196B54
//  #08 //062   ----------------------------------------
 BYTE   PATT
  POIN2 Label_01196B54
//  #08 //063   ----------------------------------------
 BYTE   PATT
  POIN2 Label_01196B54
//  #08 //064   ----------------------------------------
 BYTE   W96
//  #08 //065   ----------------------------------------
 BYTE   W96
//  #08 //066   ----------------------------------------
 BYTE   PATT
  POIN2 Label_01196AFB
//  #08 //067   ----------------------------------------
 BYTE   PATT
  POIN2 Label_01196AFB
//  #08 //068   ----------------------------------------
 BYTE   PATT
  POIN2 Label_01196AFB
//  #08 //069   ----------------------------------------
 BYTE   PATT
  POIN2 Label_01196AFB
//  #08 //070   ----------------------------------------
 BYTE   PATT
  POIN2 Label_01196AFB
//  #08 //071   ----------------------------------------
 BYTE   PATT
  POIN2 Label_01196AFB
//  #08 //072   ----------------------------------------
 BYTE   PATT
  POIN2 Label_01196AFB
//  #08 //073   ----------------------------------------
 BYTE   PATT
  POIN2 Label_01196AFB
//  #08 //074   ----------------------------------------
 BYTE   PATT
  POIN2 Label_01196AFB
//  #08 //075   ----------------------------------------
 BYTE   PATT
  POIN2 Label_01196AFB
//  #08 //076   ----------------------------------------
 BYTE   PATT
  POIN2 Label_01196AFB
//  #08 //077   ----------------------------------------
 BYTE   PATT
  POIN2 Label_01196AFB
//  #08 //078   ----------------------------------------
 BYTE   PATT
  POIN2 Label_01196B54
//  #08 //079   ----------------------------------------
 BYTE   PATT
  POIN2 Label_01196B54
//  #08 //080   ----------------------------------------
 BYTE   PATT
  POIN2 Label_01196B54
//  #08 //081   ----------------------------------------
 BYTE   PATT
  POIN2 Label_01196B54
//  #08 //082   ----------------------------------------
 BYTE   VOL   25*PowerPros3PennantHappyEnd_mvl/mxv
 BYTE   BEND   c_v+0
 BYTE   W06
 BYTE   VOL   24*PowerPros3PennantHappyEnd_mvl/mxv
 BYTE   W06
 BYTE   VOL   23*PowerPros3PennantHappyEnd_mvl/mxv
 BYTE   W06
 BYTE   VOL   22*PowerPros3PennantHappyEnd_mvl/mxv
 BYTE   W06
 BYTE   VOL   21*PowerPros3PennantHappyEnd_mvl/mxv
 BYTE   W06
 BYTE   VOL   20*PowerPros3PennantHappyEnd_mvl/mxv
 BYTE   W06
 BYTE   VOL   20*PowerPros3PennantHappyEnd_mvl/mxv
 BYTE   N04  Ds3  v088
 BYTE   N04  Ds4
 BYTE   W06
 BYTE   VOL   19*PowerPros3PennantHappyEnd_mvl/mxv
 BYTE   N04  Fn3
 BYTE   N04  Fn4
 BYTE   W06
 BYTE   VOL   18*PowerPros3PennantHappyEnd_mvl/mxv
 BYTE   N04  Gs3
 BYTE   N04  Gs4
 BYTE   W06
 BYTE   VOL   17*PowerPros3PennantHappyEnd_mvl/mxv
 BYTE   N04  Gs3
 BYTE   N04  Gs4
 BYTE   W06
 BYTE   VOL   17*PowerPros3PennantHappyEnd_mvl/mxv
 BYTE   N04  Fn3
 BYTE   N04  Fn4
 BYTE   W06
 BYTE   VOL   17*PowerPros3PennantHappyEnd_mvl/mxv
 BYTE   N04  Ds3
 BYTE   N04  Ds4
 BYTE   W06
 BYTE   VOL   15*PowerPros3PennantHappyEnd_mvl/mxv
 BYTE   N10  Gs3
 BYTE   N10  Gs4
 BYTE   W06
 BYTE   VOL   14*PowerPros3PennantHappyEnd_mvl/mxv
 BYTE   W06
 BYTE   VOL   14*PowerPros3PennantHappyEnd_mvl/mxv
 BYTE   N04  Fn3
 BYTE   N04  Fn4
 BYTE   W06
 BYTE   VOL   13*PowerPros3PennantHappyEnd_mvl/mxv
 BYTE   N04  Ds3
 BYTE   N04  Ds4
 BYTE   W06
//  #08 //083   ----------------------------------------
 BYTE   VOL   13*PowerPros3PennantHappyEnd_mvl/mxv
 BYTE   W06
 BYTE   VOL   12*PowerPros3PennantHappyEnd_mvl/mxv
 BYTE   W06
 BYTE   VOL   10*PowerPros3PennantHappyEnd_mvl/mxv
 BYTE   W06
 BYTE   VOL   10*PowerPros3PennantHappyEnd_mvl/mxv
 BYTE   W06
 BYTE   VOL   10*PowerPros3PennantHappyEnd_mvl/mxv
 BYTE   W06
 BYTE   VOL   9*PowerPros3PennantHappyEnd_mvl/mxv
 BYTE   W06
 BYTE   VOL   8*PowerPros3PennantHappyEnd_mvl/mxv
 BYTE   N04  Ds3
 BYTE   N04  Ds4
 BYTE   W06
 BYTE   VOL   8*PowerPros3PennantHappyEnd_mvl/mxv
 BYTE   N04  Fn3
 BYTE   N04  Fn4
 BYTE   W06
 BYTE   VOL   7*PowerPros3PennantHappyEnd_mvl/mxv
 BYTE   N04  Gs3
 BYTE   N04  Gs4
 BYTE   W06
 BYTE   VOL   7*PowerPros3PennantHappyEnd_mvl/mxv
 BYTE   N04  Gs3
 BYTE   N04  Gs4
 BYTE   W06
 BYTE   VOL   6*PowerPros3PennantHappyEnd_mvl/mxv
 BYTE   N04  Fn3
 BYTE   N04  Fn4
 BYTE   W06
 BYTE   VOL   5*PowerPros3PennantHappyEnd_mvl/mxv
 BYTE   N04  Ds3
 BYTE   N04  Ds4
 BYTE   W06
 BYTE   VOL   4*PowerPros3PennantHappyEnd_mvl/mxv
 BYTE   N10  Gs3
 BYTE   N10  Gs4
 BYTE   W06
 BYTE   VOL   4*PowerPros3PennantHappyEnd_mvl/mxv
 BYTE   W06
 BYTE   VOL   3*PowerPros3PennantHappyEnd_mvl/mxv
 BYTE   N12  As3
 BYTE   N12  As4
 BYTE   W06
 BYTE   VOL   2*PowerPros3PennantHappyEnd_mvl/mxv
 BYTE   BEND   c_v+63
 BYTE   W06
//  #08 //084   ----------------------------------------
 BYTE   VOL   2*PowerPros3PennantHappyEnd_mvl/mxv
 BYTE   BEND   c_v+0
 BYTE   W06
 BYTE   VOL   1*PowerPros3PennantHappyEnd_mvl/mxv
 BYTE   W06
 BYTE   VOL   1*PowerPros3PennantHappyEnd_mvl/mxv
 BYTE   W06
 BYTE   VOL   0*PowerPros3PennantHappyEnd_mvl/mxv
 BYTE   W06
 BYTE   VOL   0*PowerPros3PennantHappyEnd_mvl/mxv
 BYTE   W06
 BYTE   VOL   0*PowerPros3PennantHappyEnd_mvl/mxv
 BYTE   W06
 BYTE   VOL   0*PowerPros3PennantHappyEnd_mvl/mxv
 BYTE   N04  Ds3
 BYTE   N04  Ds4
 BYTE   W06
 BYTE   VOL   0*PowerPros3PennantHappyEnd_mvl/mxv
 BYTE   N04  Fn3
 BYTE   N04  Fn4
 BYTE   W06
 BYTE   VOL   0*PowerPros3PennantHappyEnd_mvl/mxv
 BYTE   N04  Gs3
 BYTE   N04  Gs4
 BYTE   W06
 BYTE   VOL   0*PowerPros3PennantHappyEnd_mvl/mxv
 BYTE   N04  Gs3
 BYTE   N04  Gs4
 BYTE   W06
 BYTE   VOL   0*PowerPros3PennantHappyEnd_mvl/mxv
 BYTE   N04  Fn3
 BYTE   N04  Fn4
 BYTE   W06
 BYTE   VOL   0*PowerPros3PennantHappyEnd_mvl/mxv
 BYTE   N04  Ds3
 BYTE   N04  Ds4
 BYTE   W06
 BYTE   VOL   0*PowerPros3PennantHappyEnd_mvl/mxv
 BYTE   N10  Gs3
 BYTE   N10  Gs4
 BYTE   W06
 BYTE   VOL   0*PowerPros3PennantHappyEnd_mvl/mxv
 BYTE   W06
 BYTE   VOL   0*PowerPros3PennantHappyEnd_mvl/mxv
 BYTE   N04  Fn3
 BYTE   N04  Fn4
 BYTE   W06
 BYTE   VOL   0*PowerPros3PennantHappyEnd_mvl/mxv
 BYTE   N04  Ds3
 BYTE   N04  Ds4
 BYTE   W04
 BYTE   BEND   c_v+63
 BYTE   W02
//  #08 //085   ----------------------------------------
 BYTE   GoTo
  POIN2 Label_01196A4E
 BYTE   FINE

//**************** Track 9 (Midi-Chn.8) ****************//

PowerPros3PennantHappyEnd_009:
//  #09 //000   ----------------------------------------
 BYTE   KEYSH   PowerPros3PennantHappyEnd_key+0
Label_011943DA:
 BYTE   VOICE   65
 BYTE   MODT 0
 BYTE   LFOS 44
 BYTE   VOL   53*PowerPros3PennantHappyEnd_mvl/mxv
 BYTE   PAN   c_v-32
 BYTE   VOL   53*PowerPros3PennantHappyEnd_mvl/mxv
 BYTE   W96
//  #09 //001   ----------------------------------------
 BYTE   W96
//  #09 //002   ----------------------------------------
 BYTE   W96
//  #09 //003   ----------------------------------------
Label_011943E9:
 BYTE   N06  Ds3  v127
 BYTE   W06
 BYTE   Fn3
 BYTE   W06
 BYTE   Fn3  v072
 BYTE   W06
 BYTE   N12  Gs3  v127
 BYTE   W12
 BYTE   N06
 BYTE   W06
 BYTE   As3
 BYTE   W06
 BYTE   Gs3
 BYTE   W06
 BYTE   N12  As3
 BYTE   W05
 BYTE   BEND   c_v+0
 BYTE   W02
 BYTE   BEND   c_v+21
 BYTE   W01
 BYTE   BEND   c_v+42
 BYTE   W02
 BYTE   BEND   c_v+63
 BYTE   W01
 BYTE   BEND   c_v+0
 BYTE   W01
 BYTE   N06  Ds4
 BYTE   W06
 BYTE   Bn3
 BYTE   W06
 BYTE   Cn4
 BYTE   W06
 BYTE   Ds4
 BYTE   W06
 BYTE   N12
 BYTE   W03
 BYTE   BEND   c_v+0
 BYTE   W01
 BYTE   BEND   c_v+21
 BYTE   W02
 BYTE   BEND   c_v+42
 BYTE   W01
 BYTE   BEND   c_v+63
 BYTE   W04
 BYTE   BEND   c_v+0
 BYTE   W01
 BYTE   PEND 
//  #09 //004   ----------------------------------------
 BYTE   W96
//  #09 //005   ----------------------------------------
 BYTE   W96
//  #09 //006   ----------------------------------------
 BYTE   W96
//  #09 //007   ----------------------------------------
 BYTE   W96
//  #09 //008   ----------------------------------------
 BYTE   W96
//  #09 //009   ----------------------------------------
 BYTE   W96
//  #09 //010   ----------------------------------------
 BYTE   W96
//  #09 //011   ----------------------------------------
 BYTE   W96
//  #09 //012   ----------------------------------------
 BYTE   W96
//  #09 //013   ----------------------------------------
 BYTE   W96
//  #09 //014   ----------------------------------------
 BYTE   W96
//  #09 //015   ----------------------------------------
 BYTE   W96
//  #09 //016   ----------------------------------------
 BYTE   W96
//  #09 //017   ----------------------------------------
 BYTE   W96
//  #09 //018   ----------------------------------------
 BYTE   W96
//  #09 //019   ----------------------------------------
 BYTE   W96
//  #09 //020   ----------------------------------------
 BYTE   W96
//  #09 //021   ----------------------------------------
 BYTE   W96
//  #09 //022   ----------------------------------------
 BYTE   W96
//  #09 //023   ----------------------------------------
 BYTE   W96
//  #09 //024   ----------------------------------------
 BYTE   W96
//  #09 //025   ----------------------------------------
 BYTE   W96
//  #09 //026   ----------------------------------------
 BYTE   W96
//  #09 //027   ----------------------------------------
 BYTE   W96
//  #09 //028   ----------------------------------------
 BYTE   W96
//  #09 //029   ----------------------------------------
 BYTE   W96
//  #09 //030   ----------------------------------------
 BYTE   W96
//  #09 //031   ----------------------------------------
 BYTE   W96
//  #09 //032   ----------------------------------------
 BYTE   W96
//  #09 //033   ----------------------------------------
 BYTE   W96
//  #09 //034   ----------------------------------------
 BYTE   W96
//  #09 //035   ----------------------------------------
 BYTE   W96
//  #09 //036   ----------------------------------------
 BYTE   W96
//  #09 //037   ----------------------------------------
 BYTE   W96
//  #09 //038   ----------------------------------------
 BYTE   W96
//  #09 //039   ----------------------------------------
 BYTE   W96
//  #09 //040   ----------------------------------------
 BYTE   W96
//  #09 //041   ----------------------------------------
 BYTE   W96
//  #09 //042   ----------------------------------------
 BYTE   W96
//  #09 //043   ----------------------------------------
 BYTE   W96
//  #09 //044   ----------------------------------------
 BYTE   PATT
  POIN2 Label_011943E9
//  #09 //045   ----------------------------------------
 BYTE   W96
//  #09 //046   ----------------------------------------
 BYTE   W96
//  #09 //047   ----------------------------------------
 BYTE   W96
//  #09 //048   ----------------------------------------
 BYTE   W96
//  #09 //049   ----------------------------------------
 BYTE   W96
//  #09 //050   ----------------------------------------
 BYTE   W96
//  #09 //051   ----------------------------------------
 BYTE   W96
//  #09 //052   ----------------------------------------
 BYTE   W96
//  #09 //053   ----------------------------------------
 BYTE   W96
//  #09 //054   ----------------------------------------
 BYTE   W96
//  #09 //055   ----------------------------------------
 BYTE   W96
//  #09 //056   ----------------------------------------
 BYTE   W96
//  #09 //057   ----------------------------------------
 BYTE   W96
//  #09 //058   ----------------------------------------
 BYTE   W96
//  #09 //059   ----------------------------------------
 BYTE   W96
//  #09 //060   ----------------------------------------
 BYTE   W96
//  #09 //061   ----------------------------------------
 BYTE   W96
//  #09 //062   ----------------------------------------
 BYTE   W96
//  #09 //063   ----------------------------------------
 BYTE   W96
//  #09 //064   ----------------------------------------
 BYTE   W96
//  #09 //065   ----------------------------------------
 BYTE   W96
//  #09 //066   ----------------------------------------
 BYTE   W96
//  #09 //067   ----------------------------------------
 BYTE   W96
//  #09 //068   ----------------------------------------
 BYTE   W96
//  #09 //069   ----------------------------------------
 BYTE   W96
//  #09 //070   ----------------------------------------
 BYTE   W96
//  #09 //071   ----------------------------------------
 BYTE   W96
//  #09 //072   ----------------------------------------
 BYTE   W96
//  #09 //073   ----------------------------------------
 BYTE   W96
//  #09 //074   ----------------------------------------
 BYTE   W96
//  #09 //075   ----------------------------------------
 BYTE   W96
//  #09 //076   ----------------------------------------
 BYTE   W96
//  #09 //077   ----------------------------------------
 BYTE   W96
//  #09 //078   ----------------------------------------
 BYTE   W96
//  #09 //079   ----------------------------------------
 BYTE   W96
//  #09 //080   ----------------------------------------
 BYTE   W96
//  #09 //081   ----------------------------------------
 BYTE   W96
//  #09 //082   ----------------------------------------
 BYTE   VOL   53*PowerPros3PennantHappyEnd_mvl/mxv
 BYTE   W06
 BYTE   VOL   51*PowerPros3PennantHappyEnd_mvl/mxv
 BYTE   W06
 BYTE   VOL   51*PowerPros3PennantHappyEnd_mvl/mxv
 BYTE   W06
 BYTE   VOL   48*PowerPros3PennantHappyEnd_mvl/mxv
 BYTE   W06
 BYTE   VOL   47*PowerPros3PennantHappyEnd_mvl/mxv
 BYTE   W06
 BYTE   VOL   46*PowerPros3PennantHappyEnd_mvl/mxv
 BYTE   W06
 BYTE   VOL   44*PowerPros3PennantHappyEnd_mvl/mxv
 BYTE   W06
 BYTE   VOL   44*PowerPros3PennantHappyEnd_mvl/mxv
 BYTE   W06
 BYTE   VOL   42*PowerPros3PennantHappyEnd_mvl/mxv
 BYTE   W06
 BYTE   VOL   42*PowerPros3PennantHappyEnd_mvl/mxv
 BYTE   W06
 BYTE   VOL   41*PowerPros3PennantHappyEnd_mvl/mxv
 BYTE   W06
 BYTE   VOL   40*PowerPros3PennantHappyEnd_mvl/mxv
 BYTE   W06
 BYTE   VOL   38*PowerPros3PennantHappyEnd_mvl/mxv
 BYTE   W06
 BYTE   VOL   37*PowerPros3PennantHappyEnd_mvl/mxv
 BYTE   W06
 BYTE   VOL   36*PowerPros3PennantHappyEnd_mvl/mxv
 BYTE   W06
 BYTE   VOL   35*PowerPros3PennantHappyEnd_mvl/mxv
 BYTE   W06
//  #09 //083   ----------------------------------------
 BYTE   VOL   34*PowerPros3PennantHappyEnd_mvl/mxv
 BYTE   W06
 BYTE   VOL   34*PowerPros3PennantHappyEnd_mvl/mxv
 BYTE   W06
 BYTE   VOL   32*PowerPros3PennantHappyEnd_mvl/mxv
 BYTE   W06
 BYTE   VOL   31*PowerPros3PennantHappyEnd_mvl/mxv
 BYTE   W06
 BYTE   VOL   30*PowerPros3PennantHappyEnd_mvl/mxv
 BYTE   W06
 BYTE   VOL   29*PowerPros3PennantHappyEnd_mvl/mxv
 BYTE   W06
 BYTE   VOL   28*PowerPros3PennantHappyEnd_mvl/mxv
 BYTE   W06
 BYTE   VOL   27*PowerPros3PennantHappyEnd_mvl/mxv
 BYTE   W06
 BYTE   VOL   26*PowerPros3PennantHappyEnd_mvl/mxv
 BYTE   W06
 BYTE   VOL   25*PowerPros3PennantHappyEnd_mvl/mxv
 BYTE   W06
 BYTE   VOL   25*PowerPros3PennantHappyEnd_mvl/mxv
 BYTE   W06
 BYTE   VOL   23*PowerPros3PennantHappyEnd_mvl/mxv
 BYTE   W06
 BYTE   VOL   22*PowerPros3PennantHappyEnd_mvl/mxv
 BYTE   W06
 BYTE   VOL   22*PowerPros3PennantHappyEnd_mvl/mxv
 BYTE   W06
 BYTE   VOL   20*PowerPros3PennantHappyEnd_mvl/mxv
 BYTE   W06
 BYTE   VOL   19*PowerPros3PennantHappyEnd_mvl/mxv
 BYTE   W06
//  #09 //084   ----------------------------------------
 BYTE   VOL   19*PowerPros3PennantHappyEnd_mvl/mxv
 BYTE   W06
 BYTE   VOL   18*PowerPros3PennantHappyEnd_mvl/mxv
 BYTE   W06
 BYTE   VOL   17*PowerPros3PennantHappyEnd_mvl/mxv
 BYTE   W06
 BYTE   VOL   16*PowerPros3PennantHappyEnd_mvl/mxv
 BYTE   W06
 BYTE   VOL   15*PowerPros3PennantHappyEnd_mvl/mxv
 BYTE   W06
 BYTE   VOL   14*PowerPros3PennantHappyEnd_mvl/mxv
 BYTE   W06
 BYTE   VOL   13*PowerPros3PennantHappyEnd_mvl/mxv
 BYTE   W06
 BYTE   VOL   12*PowerPros3PennantHappyEnd_mvl/mxv
 BYTE   W06
 BYTE   VOL   12*PowerPros3PennantHappyEnd_mvl/mxv
 BYTE   W06
 BYTE   VOL   12*PowerPros3PennantHappyEnd_mvl/mxv
 BYTE   W06
 BYTE   VOL   10*PowerPros3PennantHappyEnd_mvl/mxv
 BYTE   W06
 BYTE   VOL   9*PowerPros3PennantHappyEnd_mvl/mxv
 BYTE   W06
 BYTE   VOL   8*PowerPros3PennantHappyEnd_mvl/mxv
 BYTE   W06
 BYTE   VOL   7*PowerPros3PennantHappyEnd_mvl/mxv
 BYTE   W06
 BYTE   VOL   7*PowerPros3PennantHappyEnd_mvl/mxv
 BYTE   W06
 BYTE   VOL   6*PowerPros3PennantHappyEnd_mvl/mxv
 BYTE   BEND   c_v+0
 BYTE   W06
//  #09 //085   ----------------------------------------
 BYTE   GoTo
  POIN2 Label_011943DA
 BYTE   FINE

//**************** Track 10 (Midi-Chn.9) ****************//

PowerPros3PennantHappyEnd_010:
//  #10 //000   ----------------------------------------
 BYTE   KEYSH   PowerPros3PennantHappyEnd_key+0
Label_0119460A:
 BYTE   VOICE   79
 BYTE   MODT 0
 BYTE   LFOS 44
 BYTE   PAN   c_v+0
 BYTE   VOL   70*PowerPros3PennantHappyEnd_mvl/mxv
 BYTE   N24  Ds4  v127
 BYTE   W24
 BYTE   Fn4
 BYTE   W24
 BYTE   Gs4
 BYTE   W24
 BYTE   N18  Fn5
 BYTE   W18
 BYTE   N12  Ds5
 BYTE   W06
//  #10 //001   ----------------------------------------
Label_01194622:
 BYTE   W06
 BYTE   N18  Cs5  v127
 BYTE   W18
 BYTE   N12  Cn5
 BYTE   W12
 BYTE   Cs5
 BYTE   W12
 BYTE   Ds5
 BYTE   W12
 BYTE   Ds4
 BYTE   W12
 BYTE   Fn4
 BYTE   W12
 BYTE   Gs4
 BYTE   W12
 BYTE   PEND 
//  #10 //002   ----------------------------------------
Label_01194635:
 BYTE   N18  As4  v127
 BYTE   W18
 BYTE   Cn5
 BYTE   W18
 BYTE   N60
 BYTE   W60
 BYTE   PEND 
//  #10 //003   ----------------------------------------
 BYTE   W96
//  #10 //004   ----------------------------------------
Label_0119463F:
 BYTE   N24  Ds4  v127
 BYTE   W24
 BYTE   Fn4
 BYTE   W24
 BYTE   Gs4
 BYTE   W24
 BYTE   N18  Fn5
 BYTE   W18
 BYTE   N12  Ds5
 BYTE   W06
 BYTE   PEND 
//  #10 //005   ----------------------------------------
 BYTE   PATT
  POIN2 Label_01194622
//  #10 //006   ----------------------------------------
Label_01194653:
 BYTE   N18  As4  v127
 BYTE   W18
 BYTE   Cn5
 BYTE   W18
 BYTE   N60  Ds5
 BYTE   W60
 BYTE   PEND 
//  #10 //007   ----------------------------------------
Label_0119465D:
 BYTE   N12  Ds5  v127
 BYTE   W24
 BYTE   Cs5
 BYTE   W24
 BYTE   Cn5
 BYTE   W24
 BYTE   Fn5
 BYTE   W24
 BYTE   PEND 
//  #10 //008   ----------------------------------------
 BYTE   Ds5
 BYTE   W96
//  #10 //009   ----------------------------------------
 BYTE   W96
//  #10 //010   ----------------------------------------
 BYTE   W96
//  #10 //011   ----------------------------------------
 BYTE   W96
//  #10 //012   ----------------------------------------
 BYTE   W96
//  #10 //013   ----------------------------------------
 BYTE   W96
//  #10 //014   ----------------------------------------
 BYTE   W96
//  #10 //015   ----------------------------------------
 BYTE   W96
//  #10 //016   ----------------------------------------
 BYTE   W96
//  #10 //017   ----------------------------------------
 BYTE   W96
//  #10 //018   ----------------------------------------
 BYTE   W96
//  #10 //019   ----------------------------------------
 BYTE   W96
//  #10 //020   ----------------------------------------
 BYTE   W96
//  #10 //021   ----------------------------------------
 BYTE   W96
//  #10 //022   ----------------------------------------
 BYTE   W96
//  #10 //023   ----------------------------------------
 BYTE   W96
//  #10 //024   ----------------------------------------
 BYTE   W96
//  #10 //025   ----------------------------------------
 BYTE   W96
//  #10 //026   ----------------------------------------
 BYTE   W96
//  #10 //027   ----------------------------------------
 BYTE   W96
//  #10 //028   ----------------------------------------
 BYTE   W96
//  #10 //029   ----------------------------------------
 BYTE   W96
//  #10 //030   ----------------------------------------
 BYTE   W96
//  #10 //031   ----------------------------------------
 BYTE   W96
//  #10 //032   ----------------------------------------
 BYTE   W96
//  #10 //033   ----------------------------------------
 BYTE   W96
//  #10 //034   ----------------------------------------
 BYTE   W96
//  #10 //035   ----------------------------------------
 BYTE   W96
//  #10 //036   ----------------------------------------
 BYTE   W96
//  #10 //037   ----------------------------------------
 BYTE   W96
//  #10 //038   ----------------------------------------
 BYTE   W96
//  #10 //039   ----------------------------------------
 BYTE   W96
//  #10 //040   ----------------------------------------
 BYTE   W96
//  #10 //041   ----------------------------------------
 BYTE   PATT
  POIN2 Label_0119463F
//  #10 //042   ----------------------------------------
 BYTE   PATT
  POIN2 Label_01194622
//  #10 //043   ----------------------------------------
 BYTE   PATT
  POIN2 Label_01194635
//  #10 //044   ----------------------------------------
 BYTE   W96
//  #10 //045   ----------------------------------------
 BYTE   PATT
  POIN2 Label_0119463F
//  #10 //046   ----------------------------------------
 BYTE   PATT
  POIN2 Label_01194622
//  #10 //047   ----------------------------------------
 BYTE   PATT
  POIN2 Label_01194653
//  #10 //048   ----------------------------------------
 BYTE   PATT
  POIN2 Label_0119465D
//  #10 //049   ----------------------------------------
 BYTE   N12  Ds5  v127
 BYTE   W96
//  #10 //050   ----------------------------------------
 BYTE   W96
//  #10 //051   ----------------------------------------
 BYTE   W96
//  #10 //052   ----------------------------------------
 BYTE   W96
//  #10 //053   ----------------------------------------
 BYTE   W96
//  #10 //054   ----------------------------------------
 BYTE   W96
//  #10 //055   ----------------------------------------
 BYTE   W96
//  #10 //056   ----------------------------------------
 BYTE   W96
//  #10 //057   ----------------------------------------
 BYTE   W96
//  #10 //058   ----------------------------------------
 BYTE   W96
//  #10 //059   ----------------------------------------
 BYTE   W96
//  #10 //060   ----------------------------------------
 BYTE   W96
//  #10 //061   ----------------------------------------
 BYTE   W96
//  #10 //062   ----------------------------------------
 BYTE   W96
//  #10 //063   ----------------------------------------
 BYTE   W96
//  #10 //064   ----------------------------------------
 BYTE   W96
//  #10 //065   ----------------------------------------
 BYTE   W96
//  #10 //066   ----------------------------------------
 BYTE   W96
//  #10 //067   ----------------------------------------
 BYTE   W96
//  #10 //068   ----------------------------------------
 BYTE   W96
//  #10 //069   ----------------------------------------
 BYTE   W96
//  #10 //070   ----------------------------------------
 BYTE   W96
//  #10 //071   ----------------------------------------
 BYTE   W96
//  #10 //072   ----------------------------------------
 BYTE   W96
//  #10 //073   ----------------------------------------
 BYTE   W96
//  #10 //074   ----------------------------------------
 BYTE   W96
//  #10 //075   ----------------------------------------
 BYTE   W96
//  #10 //076   ----------------------------------------
 BYTE   W96
//  #10 //077   ----------------------------------------
 BYTE   W96
//  #10 //078   ----------------------------------------
 BYTE   W96
//  #10 //079   ----------------------------------------
 BYTE   W96
//  #10 //080   ----------------------------------------
 BYTE   W96
//  #10 //081   ----------------------------------------
 BYTE   W96
//  #10 //082   ----------------------------------------
 BYTE   VOL   70*PowerPros3PennantHappyEnd_mvl/mxv
 BYTE   N24  Ds4
 BYTE   W06
 BYTE   VOL   68*PowerPros3PennantHappyEnd_mvl/mxv
 BYTE   W06
 BYTE   VOL   68*PowerPros3PennantHappyEnd_mvl/mxv
 BYTE   W06
 BYTE   VOL   65*PowerPros3PennantHappyEnd_mvl/mxv
 BYTE   W06
 BYTE   VOL   64*PowerPros3PennantHappyEnd_mvl/mxv
 BYTE   N24  Fn4
 BYTE   W06
 BYTE   VOL   63*PowerPros3PennantHappyEnd_mvl/mxv
 BYTE   W06
 BYTE   VOL   61*PowerPros3PennantHappyEnd_mvl/mxv
 BYTE   W06
 BYTE   VOL   60*PowerPros3PennantHappyEnd_mvl/mxv
 BYTE   W06
 BYTE   VOL   59*PowerPros3PennantHappyEnd_mvl/mxv
 BYTE   N24  Gs4
 BYTE   W06
 BYTE   VOL   58*PowerPros3PennantHappyEnd_mvl/mxv
 BYTE   W06
 BYTE   VOL   56*PowerPros3PennantHappyEnd_mvl/mxv
 BYTE   W06
 BYTE   VOL   56*PowerPros3PennantHappyEnd_mvl/mxv
 BYTE   W06
 BYTE   VOL   53*PowerPros3PennantHappyEnd_mvl/mxv
 BYTE   N18  Fn5
 BYTE   W06
 BYTE   VOL   52*PowerPros3PennantHappyEnd_mvl/mxv
 BYTE   W06
 BYTE   VOL   51*PowerPros3PennantHappyEnd_mvl/mxv
 BYTE   W06
 BYTE   VOL   49*PowerPros3PennantHappyEnd_mvl/mxv
 BYTE   N12  Ds5
 BYTE   W06
//  #10 //083   ----------------------------------------
 BYTE   VOL   49*PowerPros3PennantHappyEnd_mvl/mxv
 BYTE   W06
 BYTE   VOL   47*PowerPros3PennantHappyEnd_mvl/mxv
 BYTE   N18  Cs5
 BYTE   W06
 BYTE   VOL   46*PowerPros3PennantHappyEnd_mvl/mxv
 BYTE   W06
 BYTE   VOL   45*PowerPros3PennantHappyEnd_mvl/mxv
 BYTE   W06
 BYTE   VOL   44*PowerPros3PennantHappyEnd_mvl/mxv
 BYTE   N12  Cn5
 BYTE   W06
 BYTE   VOL   42*PowerPros3PennantHappyEnd_mvl/mxv
 BYTE   W06
 BYTE   VOL   41*PowerPros3PennantHappyEnd_mvl/mxv
 BYTE   N12  Cs5
 BYTE   W06
 BYTE   VOL   41*PowerPros3PennantHappyEnd_mvl/mxv
 BYTE   W06
 BYTE   VOL   39*PowerPros3PennantHappyEnd_mvl/mxv
 BYTE   N12  Ds5
 BYTE   W06
 BYTE   VOL   38*PowerPros3PennantHappyEnd_mvl/mxv
 BYTE   W06
 BYTE   VOL   37*PowerPros3PennantHappyEnd_mvl/mxv
 BYTE   N12  Ds4
 BYTE   W06
 BYTE   VOL   35*PowerPros3PennantHappyEnd_mvl/mxv
 BYTE   W06
 BYTE   VOL   35*PowerPros3PennantHappyEnd_mvl/mxv
 BYTE   N12  Fn4
 BYTE   W06
 BYTE   VOL   34*PowerPros3PennantHappyEnd_mvl/mxv
 BYTE   W06
 BYTE   VOL   32*PowerPros3PennantHappyEnd_mvl/mxv
 BYTE   N12  Gs4
 BYTE   W06
 BYTE   VOL   31*PowerPros3PennantHappyEnd_mvl/mxv
 BYTE   W06
//  #10 //084   ----------------------------------------
 BYTE   VOL   30*PowerPros3PennantHappyEnd_mvl/mxv
 BYTE   N18  As4
 BYTE   W06
 BYTE   VOL   29*PowerPros3PennantHappyEnd_mvl/mxv
 BYTE   W06
 BYTE   VOL   28*PowerPros3PennantHappyEnd_mvl/mxv
 BYTE   W06
 BYTE   VOL   27*PowerPros3PennantHappyEnd_mvl/mxv
 BYTE   N18  Cn5
 BYTE   W06
 BYTE   VOL   26*PowerPros3PennantHappyEnd_mvl/mxv
 BYTE   W06
 BYTE   VOL   25*PowerPros3PennantHappyEnd_mvl/mxv
 BYTE   W06
 BYTE   VOL   24*PowerPros3PennantHappyEnd_mvl/mxv
 BYTE   N60
 BYTE   W06
 BYTE   VOL   23*PowerPros3PennantHappyEnd_mvl/mxv
 BYTE   W06
 BYTE   VOL   22*PowerPros3PennantHappyEnd_mvl/mxv
 BYTE   W06
 BYTE   VOL   21*PowerPros3PennantHappyEnd_mvl/mxv
 BYTE   W06
 BYTE   VOL   20*PowerPros3PennantHappyEnd_mvl/mxv
 BYTE   W06
 BYTE   VOL   19*PowerPros3PennantHappyEnd_mvl/mxv
 BYTE   W06
 BYTE   VOL   18*PowerPros3PennantHappyEnd_mvl/mxv
 BYTE   W06
 BYTE   VOL   17*PowerPros3PennantHappyEnd_mvl/mxv
 BYTE   W06
 BYTE   VOL   17*PowerPros3PennantHappyEnd_mvl/mxv
 BYTE   W06
 BYTE   VOL   16*PowerPros3PennantHappyEnd_mvl/mxv
 BYTE   W06
//  #10 //085   ----------------------------------------
 BYTE   GoTo
  POIN2 Label_0119460A
 BYTE   FINE

//******************************************************//
	ALIGN 4

PowerPros3PennantHappyEnd:
	BYTE	10	// NumTrks
	BYTE	0	// NumBlks
	BYTE	PowerPros3PennantHappyEnd_pri	// Priority
	BYTE	PowerPros3PennantHappyEnd_rev	// Reverb.
    
	POIN2	PowerPros3PennantHappyEnd_grp
    
	POIN2	PowerPros3PennantHappyEnd_001
	POIN2	PowerPros3PennantHappyEnd_002
	POIN2	PowerPros3PennantHappyEnd_003
	POIN2	PowerPros3PennantHappyEnd_004
	POIN2	PowerPros3PennantHappyEnd_005
	POIN2	PowerPros3PennantHappyEnd_006
	POIN2	PowerPros3PennantHappyEnd_007
	POIN2	PowerPros3PennantHappyEnd_008
	POIN2	PowerPros3PennantHappyEnd_009
	POIN2	PowerPros3PennantHappyEnd_010

	
