//Event file generated from Sappy .s format.
	

	#define	PyramidCaveSA2B_grp  voicegroup000
	#define	PyramidCaveSA2B_pri  10
	#define	PyramidCaveSA2B_rev  0
	#define	PyramidCaveSA2B_mvl  127
	#define	PyramidCaveSA2B_key  0
	#define	PyramidCaveSA2B_tbs  1
	#define	PyramidCaveSA2B_exg  0
	#define	PyramidCaveSA2B_cmp  1

	// .rodata
	//	PyramidCaveSA2B
	ALIGN 4


//**************** Track 1 (Midi-Chn.0) ****************//

PyramidCaveSA2B_001:
//  #01 //000   ----------------------------------------
Label_01000420:
 BYTE   TEMPO   132*PyramidCaveSA2B_tbs/2
 BYTE   KEYSH   PyramidCaveSA2B_key+0
 BYTE   VOICE   65
 BYTE   VOL   18*PyramidCaveSA2B_mvl/mxv
 BYTE   PAN   c_v+0
 BYTE   N02  Dn1  v127
 BYTE   W03
 BYTE   N14  En1
 BYTE   W15
 BYTE   N17  An1
 BYTE   W18
 BYTE   N23  Bn1
 BYTE   W24
 BYTE   Dn2
 BYTE   W24
 BYTE   N05  An1
 BYTE   W06
 BYTE   Bn1
 BYTE   W06
//  #01 //001   ----------------------------------------
Label_0100043E:
 BYTE   N17  En1  v127
 BYTE   W18
 BYTE   An1
 BYTE   W18
 BYTE   N23  Bn1
 BYTE   W24
 BYTE   N11  Dn2
 BYTE   W12
 BYTE   N02  Fn2
 BYTE   W03
 BYTE   N20  Gn2
 BYTE   W21
 BYTE   PEND 
//  #01 //002   ----------------------------------------
Label_01000451:
 BYTE   N17  En2  v127
 BYTE   W18
 BYTE   An1
 BYTE   W18
 BYTE   N23  Bn1
 BYTE   W24
 BYTE   Dn2
 BYTE   W24
 BYTE   N05  An1
 BYTE   W06
 BYTE   Bn1
 BYTE   W06
 BYTE   PEND 
//  #01 //003   ----------------------------------------
Label_01000462:
 BYTE   N17  En1  v127
 BYTE   W18
 BYTE   An1
 BYTE   W18
 BYTE   N23  Bn1
 BYTE   W24
 BYTE   N11  Dn2
 BYTE   W12
 BYTE   N02  Fs2
 BYTE   W03
 BYTE   N08  Gn2
 BYTE   W09
 BYTE   N11  En2
 BYTE   W12
 BYTE   PEND 
//  #01 //004   ----------------------------------------
Label_01000478:
 BYTE   N17  En1  v127
 BYTE   W18
 BYTE   An1
 BYTE   W18
 BYTE   N23  Bn1
 BYTE   W24
 BYTE   Dn2
 BYTE   W24
 BYTE   N05  An1
 BYTE   W06
 BYTE   Bn1
 BYTE   W06
 BYTE   PEND 
//  #01 //005   ----------------------------------------
 BYTE   PATT
  POIN2 Label_0100043E
//  #01 //006   ----------------------------------------
 BYTE   PATT
  POIN2 Label_01000451
//  #01 //007   ----------------------------------------
Label_01000493:
 BYTE   N17  En1  v127
 BYTE   W18
 BYTE   An1
 BYTE   W18
 BYTE   N11  As1
 BYTE   W12
 BYTE   N20  Bn1
 BYTE   W48
 BYTE   PEND 
//  #01 //008   ----------------------------------------
Label_010004A0:
 BYTE   N17  En1  v108
 BYTE   W18
 BYTE   Gn1
 BYTE   W18
 BYTE   N23  An1
 BYTE   W24
 BYTE   N11  As1
 BYTE   W12
 BYTE   Bn1
 BYTE   W12
 BYTE   En2
 BYTE   W12
 BYTE   PEND 
//  #01 //009   ----------------------------------------
Label_010004B1:
 BYTE   N17  Dn2  v108
 BYTE   W18
 BYTE   Gn1
 BYTE   W18
 BYTE   N32  Dn2
 BYTE   W36
 BYTE   N20
 BYTE   W24
 BYTE   PEND 
//  #01 //010   ----------------------------------------
Label_010004BD:
 BYTE   N66  Cn2  v108
 BYTE   W72
 BYTE   N20
 BYTE   W24
 BYTE   PEND 
//  #01 //011   ----------------------------------------
Label_010004C4:
 BYTE   N17  An1  v108
 BYTE   W18
 BYTE   An1
 BYTE   W18
 BYTE   N32  Bn1
 BYTE   W36
 BYTE   N20
 BYTE   W24
 BYTE   PEND 
//  #01 //012   ----------------------------------------
 BYTE   PATT
  POIN2 Label_010004A0
//  #01 //013   ----------------------------------------
 BYTE   PATT
  POIN2 Label_010004B1
//  #01 //014   ----------------------------------------
 BYTE   PATT
  POIN2 Label_010004BD
//  #01 //015   ----------------------------------------
Label_010004DF:
 BYTE   N17  An1  v108
 BYTE   W18
 BYTE   An1
 BYTE   W18
 BYTE   N54  Bn1
 BYTE   W60
 BYTE   PEND 
//  #01 //016   ----------------------------------------
Label_010004E9:
 BYTE   N11  En1  v108
 BYTE   W12
 BYTE   N23  Gn1
 BYTE   W24
 BYTE   An1
 BYTE   W24
 BYTE   N11  As1
 BYTE   W12
 BYTE   Bn1
 BYTE   W12
 BYTE   En2
 BYTE   W12
 BYTE   PEND 
//  #01 //017   ----------------------------------------
 BYTE   PATT
  POIN2 Label_010004B1
//  #01 //018   ----------------------------------------
 BYTE   PATT
  POIN2 Label_010004BD
//  #01 //019   ----------------------------------------
 BYTE   PATT
  POIN2 Label_010004C4
//  #01 //020   ----------------------------------------
 BYTE   PATT
  POIN2 Label_010004A0
//  #01 //021   ----------------------------------------
 BYTE   PATT
  POIN2 Label_010004B1
//  #01 //022   ----------------------------------------
 BYTE   PATT
  POIN2 Label_010004BD
//  #01 //023   ----------------------------------------
 BYTE   PATT
  POIN2 Label_010004DF
//  #01 //024   ----------------------------------------
Label_0100051D:
 BYTE   N32  En1  v108
 BYTE   W36
 BYTE   N11  Bn1
 BYTE   W12
 BYTE   N04  En2
 BYTE   W12
 BYTE   En2
 BYTE   W12
 BYTE   En2
 BYTE   W12
 BYTE   N32  Cn2
 BYTE   W36
 BYTE   PEND 
//  #01 //025   ----------------------------------------
Label_0100052F:
 BYTE   N32  An1  v108
 BYTE   W36
 BYTE   N11  Cs2
 BYTE   W12
 BYTE   N20
 BYTE   W24
 BYTE   N32  En1
 BYTE   W36
 BYTE   PEND 
//  #01 //026   ----------------------------------------
Label_0100053C:
 BYTE   N11  Bn1  v108
 BYTE   W12
 BYTE   N04  En2
 BYTE   W12
 BYTE   En2
 BYTE   W12
 BYTE   En2
 BYTE   W12
 BYTE   N23  Cn2
 BYTE   W24
 BYTE   N11
 BYTE   W12
 BYTE   Cs2
 BYTE   W12
 BYTE   PEND 
//  #01 //027   ----------------------------------------
Label_0100054F:
 BYTE   N11  Cs2  v108
 BYTE   W12
 BYTE   Cs2
 BYTE   W12
 BYTE   Cs2
 BYTE   W12
 BYTE   Cs2
 BYTE   W12
 BYTE   Cs2
 BYTE   W12
 BYTE   N32  En1
 BYTE   W36
 BYTE   PEND 
//  #01 //028   ----------------------------------------
Label_0100055F:
 BYTE   N23  En1  v108
 BYTE   W24
 BYTE   N11  Dn1
 BYTE   W12
 BYTE   Cn1
 BYTE   W12
 BYTE   En1
 BYTE   W12
 BYTE   N32  Dn1
 BYTE   W36
 BYTE   PEND 
//  #01 //029   ----------------------------------------
Label_0100056E:
 BYTE   N32  Bn0  v108
 BYTE   W36
 BYTE   N20
 BYTE   W24
 BYTE   N32  An0
 BYTE   W36
 BYTE   PEND 
//  #01 //030   ----------------------------------------
Label_01000578:
 BYTE   N32  An0  v108
 BYTE   W36
 BYTE   N11  Cn1
 BYTE   W12
 BYTE   An0
 BYTE   W12
 BYTE   N32  Bn0
 BYTE   W36
 BYTE   PEND 
//  #01 //031   ----------------------------------------
Label_01000585:
 BYTE   N32  Bn0  v108
 BYTE   W36
 BYTE   N20
 BYTE   W24
 BYTE   N32  Fs1
 BYTE   W36
 BYTE   PEND 
//  #01 //032   ----------------------------------------
Label_0100058F:
 BYTE   N32  Fs1  v108
 BYTE   W36
 BYTE   N20
 BYTE   W24
 BYTE   N32  En1
 BYTE   W36
 BYTE   PEND 
//  #01 //033   ----------------------------------------
Label_01000599:
 BYTE   N32  En1  v108
 BYTE   W36
 BYTE   N20
 BYTE   W24
 BYTE   N32  Dn1
 BYTE   W36
 BYTE   PEND 
//  #01 //034   ----------------------------------------
Label_010005A3:
 BYTE   N32  Dn1  v108
 BYTE   W36
 BYTE   N20
 BYTE   W24
 BYTE   N32  Fs1
 BYTE   W36
 BYTE   PEND 
//  #01 //035   ----------------------------------------
Label_010005AD:
 BYTE   N54  Fn1  v108
 BYTE   W60
 BYTE   N32  En1
 BYTE   W36
 BYTE   PEND 
//  #01 //036   ----------------------------------------
 BYTE   PATT
  POIN2 Label_0100055F
//  #01 //037   ----------------------------------------
 BYTE   PATT
  POIN2 Label_0100056E
//  #01 //038   ----------------------------------------
 BYTE   PATT
  POIN2 Label_01000578
//  #01 //039   ----------------------------------------
Label_010005C4:
 BYTE   N32  Bn0  v108
 BYTE   W36
 BYTE   N11  An0
 BYTE   W12
 BYTE   Bn0
 BYTE   W12
 BYTE   N32  An0
 BYTE   W36
 BYTE   PEND 
//  #01 //040   ----------------------------------------
Label_010005D1:
 BYTE   N32  An0  v108
 BYTE   W36
 BYTE   N20
 BYTE   W24
 BYTE   N32  Bn0
 BYTE   W36
 BYTE   PEND 
//  #01 //041   ----------------------------------------
Label_010005DB:
 BYTE   N32  Bn0  v108
 BYTE   W36
 BYTE   N20
 BYTE   W24
 BYTE   Bn0
 BYTE   W24
 BYTE   N11  En1
 BYTE   W12
 BYTE   PEND 
//  #01 //042   ----------------------------------------
Label_010005E7:
 BYTE   N54  Cn1  v108
 BYTE   W60
 BYTE   N20  Cs1
 BYTE   W24
 BYTE   N11  En1
 BYTE   W12
 BYTE   PEND 
//  #01 //043   ----------------------------------------
Label_010005F2:
 BYTE   N54  Cn1  v108
 BYTE   W60
 BYTE   N11  En1
 BYTE   W12
 BYTE   N32
 BYTE   W42
 BYTE   PEND 
//  #01 //044   ----------------------------------------
Label_010005FC:
 BYTE   N05  Dn1  v108
 BYTE   W06
 BYTE   N11  Cn1
 BYTE   W12
 BYTE   En1
 BYTE   W12
 BYTE   N05  Dn1
 BYTE   W06
 BYTE   En1
 BYTE   W06
 BYTE   N11  Dn1
 BYTE   W12
 BYTE   N32
 BYTE   W42
 BYTE   PEND 
//  #01 //045   ----------------------------------------
Label_01000610:
 BYTE   N05  Cn1  v108
 BYTE   W06
 BYTE   N11  Bn0
 BYTE   W12
 BYTE   Dn1
 BYTE   W12
 BYTE   N05  Cn1
 BYTE   W06
 BYTE   Dn1
 BYTE   W06
 BYTE   N11  Fn1
 BYTE   W12
 BYTE   N32
 BYTE   W42
 BYTE   PEND 
//  #01 //046   ----------------------------------------
Label_01000624:
 BYTE   N05  En1  v108
 BYTE   W06
 BYTE   N11  Dn1
 BYTE   W12
 BYTE   Fn1
 BYTE   W12
 BYTE   N05  En1
 BYTE   W06
 BYTE   Fn1
 BYTE   W06
 BYTE   N17
 BYTE   W18
 BYTE   Fn1
 BYTE   W18
 BYTE   N32  En1
 BYTE   W36
 BYTE   PEND 
//  #01 //047   ----------------------------------------
Label_0100063A:
 BYTE   N20  En1  v108
 BYTE   W24
 BYTE   N11
 BYTE   W12
 BYTE   N32
 BYTE   W42
 BYTE   N05  Dn1
 BYTE   W06
 BYTE   N11  Cn1
 BYTE   W12
 BYTE   PEND 
//  #01 //048   ----------------------------------------
Label_01000649:
 BYTE   N11  En1  v108
 BYTE   W12
 BYTE   N05  Dn1
 BYTE   W06
 BYTE   En1
 BYTE   W06
 BYTE   N11  Dn1
 BYTE   W12
 BYTE   N32
 BYTE   W42
 BYTE   N05  Cn1
 BYTE   W06
 BYTE   N11  Bn0
 BYTE   W12
 BYTE   PEND 
//  #01 //049   ----------------------------------------
Label_0100065E:
 BYTE   N11  Dn1  v108
 BYTE   W12
 BYTE   N05  Cn1
 BYTE   W06
 BYTE   Dn1
 BYTE   W06
 BYTE   N11  Fn1
 BYTE   W12
 BYTE   N32
 BYTE   W42
 BYTE   N05  En1
 BYTE   W06
 BYTE   N11  Dn1
 BYTE   W12
 BYTE   PEND 
//  #01 //050   ----------------------------------------
Label_01000673:
 BYTE   N11  Fn1  v108
 BYTE   W12
 BYTE   N05  En1
 BYTE   W06
 BYTE   Fn1
 BYTE   W06
 BYTE   N17
 BYTE   W18
 BYTE   Fn1
 BYTE   W18
 BYTE   N32  Gn1
 BYTE   W36
 BYTE   PEND 
//  #01 //051   ----------------------------------------
 BYTE   N11  Gn1  v108
 BYTE   W12
 BYTE   N05
 BYTE   W06
 BYTE   Gn1
 BYTE   W06
 BYTE   N02  Dn1  v127
 BYTE   W03
 BYTE   N14  En1
 BYTE   W15
 BYTE   N17  An1
 BYTE   W18
 BYTE   N23  Bn1
 BYTE   W24
 BYTE   Dn2
 BYTE   W24
//  #01 //052   ----------------------------------------
 BYTE   N05  An1
 BYTE   W06
 BYTE   Bn1
 BYTE   W06
 BYTE   N17  En1
 BYTE   W18
 BYTE   An1
 BYTE   W18
 BYTE   N23  Bn1
 BYTE   W24
 BYTE   N11  Dn2
 BYTE   W12
 BYTE   N02  Fn2
 BYTE   W03
 BYTE   N20  Gn2
 BYTE   W21
//  #01 //053   ----------------------------------------
 BYTE   PATT
  POIN2 Label_01000451
//  #01 //054   ----------------------------------------
 BYTE   PATT
  POIN2 Label_01000462
//  #01 //055   ----------------------------------------
 BYTE   PATT
  POIN2 Label_01000478
//  #01 //056   ----------------------------------------
 BYTE   PATT
  POIN2 Label_0100043E
//  #01 //057   ----------------------------------------
 BYTE   PATT
  POIN2 Label_01000451
//  #01 //058   ----------------------------------------
 BYTE   PATT
  POIN2 Label_01000493
//  #01 //059   ----------------------------------------
 BYTE   PATT
  POIN2 Label_010004A0
//  #01 //060   ----------------------------------------
 BYTE   PATT
  POIN2 Label_010004B1
//  #01 //061   ----------------------------------------
 BYTE   PATT
  POIN2 Label_010004BD
//  #01 //062   ----------------------------------------
 BYTE   PATT
  POIN2 Label_010004C4
//  #01 //063   ----------------------------------------
 BYTE   PATT
  POIN2 Label_010004A0
//  #01 //064   ----------------------------------------
 BYTE   PATT
  POIN2 Label_010004B1
//  #01 //065   ----------------------------------------
 BYTE   PATT
  POIN2 Label_010004BD
//  #01 //066   ----------------------------------------
 BYTE   PATT
  POIN2 Label_010004DF
//  #01 //067   ----------------------------------------
 BYTE   PATT
  POIN2 Label_010004E9
//  #01 //068   ----------------------------------------
 BYTE   PATT
  POIN2 Label_010004B1
//  #01 //069   ----------------------------------------
 BYTE   PATT
  POIN2 Label_010004BD
//  #01 //070   ----------------------------------------
 BYTE   PATT
  POIN2 Label_010004C4
//  #01 //071   ----------------------------------------
 BYTE   PATT
  POIN2 Label_010004A0
//  #01 //072   ----------------------------------------
 BYTE   PATT
  POIN2 Label_010004B1
//  #01 //073   ----------------------------------------
 BYTE   PATT
  POIN2 Label_010004BD
//  #01 //074   ----------------------------------------
 BYTE   PATT
  POIN2 Label_010004DF
//  #01 //075   ----------------------------------------
 BYTE   PATT
  POIN2 Label_0100051D
//  #01 //076   ----------------------------------------
 BYTE   PATT
  POIN2 Label_0100052F
//  #01 //077   ----------------------------------------
 BYTE   PATT
  POIN2 Label_0100053C
//  #01 //078   ----------------------------------------
 BYTE   PATT
  POIN2 Label_0100054F
//  #01 //079   ----------------------------------------
 BYTE   PATT
  POIN2 Label_0100055F
//  #01 //080   ----------------------------------------
 BYTE   PATT
  POIN2 Label_0100056E
//  #01 //081   ----------------------------------------
 BYTE   PATT
  POIN2 Label_01000578
//  #01 //082   ----------------------------------------
 BYTE   PATT
  POIN2 Label_01000585
//  #01 //083   ----------------------------------------
 BYTE   PATT
  POIN2 Label_0100058F
//  #01 //084   ----------------------------------------
 BYTE   PATT
  POIN2 Label_01000599
//  #01 //085   ----------------------------------------
 BYTE   PATT
  POIN2 Label_010005A3
//  #01 //086   ----------------------------------------
 BYTE   PATT
  POIN2 Label_010005AD
//  #01 //087   ----------------------------------------
 BYTE   PATT
  POIN2 Label_0100055F
//  #01 //088   ----------------------------------------
 BYTE   PATT
  POIN2 Label_0100056E
//  #01 //089   ----------------------------------------
 BYTE   PATT
  POIN2 Label_01000578
//  #01 //090   ----------------------------------------
 BYTE   PATT
  POIN2 Label_010005C4
//  #01 //091   ----------------------------------------
 BYTE   PATT
  POIN2 Label_010005D1
//  #01 //092   ----------------------------------------
 BYTE   PATT
  POIN2 Label_010005DB
//  #01 //093   ----------------------------------------
 BYTE   PATT
  POIN2 Label_010005E7
//  #01 //094   ----------------------------------------
 BYTE   PATT
  POIN2 Label_010005F2
//  #01 //095   ----------------------------------------
 BYTE   PATT
  POIN2 Label_010005FC
//  #01 //096   ----------------------------------------
 BYTE   PATT
  POIN2 Label_01000610
//  #01 //097   ----------------------------------------
 BYTE   PATT
  POIN2 Label_01000624
//  #01 //098   ----------------------------------------
 BYTE   PATT
  POIN2 Label_0100063A
//  #01 //099   ----------------------------------------
 BYTE   PATT
  POIN2 Label_01000649
//  #01 //100   ----------------------------------------
 BYTE   PATT
  POIN2 Label_0100065E
//  #01 //101   ----------------------------------------
 BYTE   PATT
  POIN2 Label_01000673
//  #01 //102   ----------------------------------------
 BYTE   N11  Gn1  v108
 BYTE   W12
 BYTE   N05
 BYTE   W12
 BYTE   GoTo
  POIN2 Label_01000420
 BYTE   FINE

//**************** Track 2 (Midi-Chn.1) ****************//

PyramidCaveSA2B_002:
//  #02 //000   ----------------------------------------
Label_010007C8:
 BYTE   TEMPO   132*PyramidCaveSA2B_tbs/2
 BYTE   KEYSH   PyramidCaveSA2B_key+0
 BYTE   VOICE   73
 BYTE   VOL   68*PyramidCaveSA2B_mvl/mxv
 BYTE   PAN   c_v+0
 BYTE   W96
//  #02 //001   ----------------------------------------
 BYTE   W96
//  #02 //002   ----------------------------------------
 BYTE   W96
//  #02 //003   ----------------------------------------
 BYTE   W96
//  #02 //004   ----------------------------------------
 BYTE   W96
//  #02 //005   ----------------------------------------
 BYTE   W96
//  #02 //006   ----------------------------------------
 BYTE   W96
//  #02 //007   ----------------------------------------
 BYTE   W54
Label_010007DA:
 BYTE   N03  An3  v127
 BYTE   W03
 BYTE   N15  Bn3
 BYTE   W15
 BYTE   N12  An3
 BYTE   W12
 BYTE   Gn3
 BYTE   W12
//  #02 //008   ----------------------------------------
 BYTE   N18  An3
 BYTE   W18
 BYTE   En3
 BYTE   W18
 BYTE   Gn3
 BYTE   W18
 BYTE   PEND 
Label_010007EE:
 BYTE   N03  An3  v127
 BYTE   W03
 BYTE   N15  Bn3
 BYTE   W15
 BYTE   N12  An3
 BYTE   W12
 BYTE   Gn3
 BYTE   W12
//  #02 //009   ----------------------------------------
 BYTE   N18  An3
 BYTE   W18
 BYTE   En3
 BYTE   W18
 BYTE   N60  Gn3
 BYTE   W84
 BYTE   PEND 
//  #02 //010   ----------------------------------------
Label_01000803:
 BYTE   N24  En3  v127
 BYTE   W24
 BYTE   Gn3
 BYTE   W24
 BYTE   An3
 BYTE   W24
 BYTE   N03  Bn3
 BYTE   W03
 BYTE   N15  Cn4
 BYTE   W15
 BYTE   N18
 BYTE   W18
 BYTE   PEND 
//  #02 //011   ----------------------------------------
Label_01000814:
 BYTE   N18  Bn3  v127
 BYTE   W18
 BYTE   N03  An3
 BYTE   W03
 BYTE   N15  Bn3
 BYTE   W15
 BYTE   N12  An3
 BYTE   W12
 BYTE   Gn3
 BYTE   W12
 BYTE   N18  An3
 BYTE   W18
 BYTE   En3
 BYTE   W18
 BYTE   PEND 
//  #02 //012   ----------------------------------------
Label_01000829:
 BYTE   N18  Gn3  v127
 BYTE   W18
 BYTE   N03  An3
 BYTE   W03
 BYTE   N15  Bn3
 BYTE   W15
 BYTE   N12  An3
 BYTE   W12
 BYTE   Gn3
 BYTE   W12
 BYTE   N18  An3
 BYTE   W18
 BYTE   En3
 BYTE   W18
 BYTE   PEND 
//  #02 //013   ----------------------------------------
Label_0100083E:
 BYTE   N60  Gn3  v127
 BYTE   W84
 BYTE   N24  En3
 BYTE   W24
 BYTE   PEND 
//  #02 //014   ----------------------------------------
Label_01000846:
 BYTE   N24  Gn3  v127
 BYTE   W24
 BYTE   An3
 BYTE   W24
 BYTE   N03  Bn3
 BYTE   W03
 BYTE   N15  Cn4
 BYTE   W15
 BYTE   N18  Dn4
 BYTE   W18
 BYTE   N60  Bn3
 BYTE   W72
 BYTE   PEND 
//  #02 //015   ----------------------------------------
Label_01000859:
 BYTE   N24  En4  v127
 BYTE   N24  Bn3
 BYTE   W24
 BYTE   En4
 BYTE   N24  Bn3
 BYTE   W24
 BYTE   N12  En4
 BYTE   N12  Bn3
 BYTE   W12
 BYTE   Dn4
 BYTE   N12  An3
 BYTE   W12
 BYTE   Bn3
 BYTE   N12  Gn3
 BYTE   W12
 BYTE   N18  Dn4
 BYTE   N18  An3
 BYTE   W18
 BYTE   PEND 
//  #02 //016   ----------------------------------------
Label_01000876:
 BYTE   N18  Gn3  v127
 BYTE   N18  En3
 BYTE   W18
 BYTE   N60  Bn3
 BYTE   N60  Gn3
 BYTE   W84
 BYTE   PEND 
//  #02 //017   ----------------------------------------
Label_01000882:
 BYTE   N24  Bn3  v127
 BYTE   N24  En3
 BYTE   W24
 BYTE   En4
 BYTE   N24  Gn3
 BYTE   W24
 BYTE   Dn4
 BYTE   N24  An3
 BYTE   W24
 BYTE   N18  En4
 BYTE   N18  Cn4
 BYTE   W18
 BYTE   En4
 BYTE   N18  Cn4
 BYTE   W18
 BYTE   PEND 
//  #02 //018   ----------------------------------------
Label_0100089A:
 BYTE   N18  Fs4  v127
 BYTE   N18  Bn3
 BYTE   W18
 BYTE   Gn4
 BYTE   N18  Bn3
 BYTE   W18
 BYTE   N12  Fs4
 BYTE   N12  An3
 BYTE   W12
 BYTE   Dn4
 BYTE   N12  Gn3
 BYTE   W12
 BYTE   N18  En4
 BYTE   N18  An3
 BYTE   W18
 BYTE   Dn4
 BYTE   N18  En3
 BYTE   W18
 BYTE   PEND 
//  #02 //019   ----------------------------------------
Label_010008B7:
 BYTE   N18  Bn3  v127
 BYTE   N18  Gn3
 BYTE   W18
 BYTE   En4
 BYTE   N18  Bn3
 BYTE   W18
 BYTE   N12  Fs4
 BYTE   N12  An3
 BYTE   W12
 BYTE   Gn4
 BYTE   N12  Gn3
 BYTE   W12
 BYTE   N18  Fs4
 BYTE   N18  An3
 BYTE   W18
 BYTE   En4
 BYTE   N18  En3
 BYTE   W18
 BYTE   PEND 
//  #02 //020   ----------------------------------------
Label_010008D4:
 BYTE   N60  Dn4  v127
 BYTE   N60  Gn3
 BYTE   W84
 BYTE   N24  En4
 BYTE   N24  En3
 BYTE   W24
 BYTE   PEND 
//  #02 //021   ----------------------------------------
Label_010008E0:
 BYTE   N24  Cn4  v127
 BYTE   N24  Gn3
 BYTE   W24
 BYTE   Bn3
 BYTE   N24  An3
 BYTE   W24
 BYTE   N03  Bn3
 BYTE   W03
 BYTE   N15  Cn4
 BYTE   W15
 BYTE   N18  Dn4
 BYTE   W18
 BYTE   N60  Ds4
 BYTE   N60  Bn3
 BYTE   W96
//  #02 //022   ----------------------------------------
 BYTE   W96
//  #02 //023   ----------------------------------------
 BYTE   W96
//  #02 //024   ----------------------------------------
 BYTE   W96
//  #02 //025   ----------------------------------------
 BYTE   W96
 BYTE   PEND 
//  #02 //026   ----------------------------------------
Label_010008FD:
 BYTE   N06  Bn2  v127
 BYTE   W06
 BYTE   Cn3
 BYTE   W06
 BYTE   N12  En3
 BYTE   W12
 BYTE   Gn3
 BYTE   W12
 BYTE   An3
 BYTE   W12
 BYTE   N03
 BYTE   W03
 BYTE   N09  Bn3
 BYTE   W09
 BYTE   N72  An3
 BYTE   W72
 BYTE   PEND 
//  #02 //027   ----------------------------------------
Label_01000913:
 BYTE   N03  As3  v127
 BYTE   W03
 BYTE   N44  Bn3
 BYTE   W05
 BYTE   N01
 BYTE   W48
 BYTE   W03
 BYTE   N24  Cn3
 BYTE   W24
 BYTE   N12  En3
 BYTE   W12
 BYTE   PEND 
Label_01000924:
 BYTE   N12  Gn3  v127
 BYTE   W12
//  #02 //028   ----------------------------------------
 BYTE   N03  An3
 BYTE   W03
 BYTE   N09  Bn3
 BYTE   W09
 BYTE   N24  An3
 BYTE   W24
 BYTE   N12  Gn3
 BYTE   W12
 BYTE   N60  Fs3
 BYTE   W60
 BYTE   PEND 
//  #02 //029   ----------------------------------------
Label_01000938:
 BYTE   N36  Cs4  v127
 BYTE   W36
 BYTE   N03  Gn3
 BYTE   W03
 BYTE   N21  Fs3
 BYTE   W21
 BYTE   N12  An3
 BYTE   W12
 BYTE   Bn3
 BYTE   W12
 BYTE   N06  An3
 BYTE   W06
 BYTE   Bn3
 BYTE   W06
 BYTE   PEND 
//  #02 //030   ----------------------------------------
Label_0100094D:
 BYTE   N36  An3  v127
 BYTE   W36
 BYTE   N03  Fn3
 BYTE   W03
 BYTE   N32  En3
 BYTE   W04
 BYTE   N01
 BYTE   W28
 BYTE   W01
 BYTE   N03  Fn3
 BYTE   W03
 BYTE   N21  Fs3
 BYTE   W21
 BYTE   PEND 
//  #02 //031   ----------------------------------------
Label_01000961:
 BYTE   N36  Cn3  v127
 BYTE   W36
 BYTE   N06
 BYTE   W06
 BYTE   Dn3
 BYTE   W06
 BYTE   N12  En3
 BYTE   W12
 BYTE   Fs3
 BYTE   W12
 BYTE   Fs3
 BYTE   W12
 BYTE   Gn3
 BYTE   W12
 BYTE   PEND 
//  #02 //032   ----------------------------------------
Label_01000973:
 BYTE   N48  Fs3  v127
 BYTE   W48
 BYTE   N03  Gn3
 BYTE   W03
 BYTE   N44  An3
 BYTE   W05
 BYTE   N01
 BYTE   W36
 BYTE   W03
 BYTE   PEND 
Label_01000981:
 BYTE   N03  As3  v127
 BYTE   W03
//  #02 //033   ----------------------------------------
 BYTE   N21  Bn3
 BYTE   W36
 BYTE   W03
 BYTE   N03  An3
 BYTE   W03
 BYTE   As3
 BYTE   W03
 BYTE   N12  Bn3
 BYTE   W12
 BYTE   En4
 BYTE   W12
 BYTE   Fs4
 BYTE   W12
 BYTE   N03
 BYTE   W03
 BYTE   N09  Gn4
 BYTE   W09
 BYTE   PEND 
Label_0100099B:
 BYTE   N36  Fs4  v127
 BYTE   W36
//  #02 //034   ----------------------------------------
 BYTE   N12  En4
 BYTE   W12
 BYTE   N48  Dn4
 BYTE   W48
 BYTE   PEND 
Label_010009A6:
 BYTE   N03  Dn4  v127
 BYTE   W03
 BYTE   N32  En4
 BYTE   W04
 BYTE   N01
 BYTE   W28
 BYTE   W01
//  #02 //035   ----------------------------------------
 BYTE   N12  Dn4
 BYTE   W12
 BYTE   N18  Cn4
 BYTE   W18
 BYTE   Dn4
 BYTE   W18
 BYTE   N12  En4
 BYTE   W12
 BYTE   PEND 
Label_010009BC:
 BYTE   N03  Cn4  v127
 BYTE   W03
 BYTE   N21  Dn4
 BYTE   W21
 BYTE   N12  Cn4
 BYTE   W12
//  #02 //036   ----------------------------------------
 BYTE   N60  Bn3
 BYTE   W60
 BYTE   PEND 
Label_010009CA:
 BYTE   N03  Bn3  v127
 BYTE   N03  Gn3
 BYTE   W03
 BYTE   N32  Cn4
 BYTE   N32  An3
 BYTE   W04
 BYTE   N01  Cn4
 BYTE   N01  An3
 BYTE   W28
 BYTE   W01
//  #02 //037   ----------------------------------------
 BYTE   N12  Bn3
 BYTE   N12  Gn3
 BYTE   W12
 BYTE   N15  An3
 BYTE   N15  Fs3
 BYTE   W18
 BYTE   N18  Bn3
 BYTE   N18  Gn3
 BYTE   W18
 BYTE   N12  Cn4
 BYTE   N12  An3
 BYTE   W12
 BYTE   PEND 
Label_010009F0:
 BYTE   N48  Bn3  v127
 BYTE   N48  Gn3
 BYTE   W48
//  #02 //038   ----------------------------------------
 BYTE   N24  Cs4
 BYTE   N24  An3
 BYTE   W24
 BYTE   Ds4
 BYTE   N24  Bn3
 BYTE   W24
 BYTE   PEND 
 BYTE   N03  Ds4  v127
 BYTE   W03
 BYTE   N96  En4
 BYTE   N96  Bn3
 BYTE   W12
 BYTE   N68  En4
 BYTE   N68  Bn3
 BYTE   W08
 BYTE   N01  En4
 BYTE   N01  Bn3
 BYTE   W96
//  #02 //039   ----------------------------------------
 BYTE   W96
//  #02 //040   ----------------------------------------
 BYTE   W96
//  #02 //041   ----------------------------------------
 BYTE   W96
//  #02 //042   ----------------------------------------
 BYTE   W96
//  #02 //043   ----------------------------------------
 BYTE   W96
//  #02 //044   ----------------------------------------
 BYTE   W96
//  #02 //045   ----------------------------------------
 BYTE   W96
//  #02 //046   ----------------------------------------
 BYTE   W96
//  #02 //047   ----------------------------------------
 BYTE   W96
//  #02 //048   ----------------------------------------
 BYTE   W96
//  #02 //049   ----------------------------------------
 BYTE   W96
//  #02 //050   ----------------------------------------
 BYTE   W96
//  #02 //051   ----------------------------------------
 BYTE   W96
//  #02 //052   ----------------------------------------
 BYTE   W96
//  #02 //053   ----------------------------------------
 BYTE   W96
//  #02 //054   ----------------------------------------
 BYTE   W96
//  #02 //055   ----------------------------------------
 BYTE   W30
//  #02 //056   ----------------------------------------
 BYTE   PATT
  POIN2 Label_010007DA
//  #02 //057   ----------------------------------------
 BYTE   PATT
  POIN2 Label_010007EE
//  #02 //058   ----------------------------------------
 BYTE   PATT
  POIN2 Label_01000803
//  #02 //059   ----------------------------------------
 BYTE   PATT
  POIN2 Label_01000814
//  #02 //060   ----------------------------------------
 BYTE   PATT
  POIN2 Label_01000829
//  #02 //061   ----------------------------------------
 BYTE   PATT
  POIN2 Label_0100083E
//  #02 //062   ----------------------------------------
 BYTE   PATT
  POIN2 Label_01000846
//  #02 //063   ----------------------------------------
 BYTE   PATT
  POIN2 Label_01000859
//  #02 //064   ----------------------------------------
 BYTE   PATT
  POIN2 Label_01000876
//  #02 //065   ----------------------------------------
 BYTE   PATT
  POIN2 Label_01000882
//  #02 //066   ----------------------------------------
 BYTE   PATT
  POIN2 Label_0100089A
//  #02 //067   ----------------------------------------
 BYTE   PATT
  POIN2 Label_010008B7
//  #02 //068   ----------------------------------------
 BYTE   PATT
  POIN2 Label_010008D4
//  #02 //069   ----------------------------------------
 BYTE   PATT
  POIN2 Label_010008E0
//  #02 //070   ----------------------------------------
 BYTE   PATT
  POIN2 Label_010008FD
//  #02 //071   ----------------------------------------
 BYTE   PATT
  POIN2 Label_01000913
//  #02 //072   ----------------------------------------
 BYTE   PATT
  POIN2 Label_01000924
//  #02 //073   ----------------------------------------
 BYTE   PATT
  POIN2 Label_01000938
//  #02 //074   ----------------------------------------
 BYTE   PATT
  POIN2 Label_0100094D
//  #02 //075   ----------------------------------------
 BYTE   PATT
  POIN2 Label_01000961
//  #02 //076   ----------------------------------------
 BYTE   PATT
  POIN2 Label_01000973
//  #02 //077   ----------------------------------------
 BYTE   PATT
  POIN2 Label_01000981
//  #02 //078   ----------------------------------------
 BYTE   PATT
  POIN2 Label_0100099B
//  #02 //079   ----------------------------------------
 BYTE   PATT
  POIN2 Label_010009A6
//  #02 //080   ----------------------------------------
 BYTE   PATT
  POIN2 Label_010009BC
//  #02 //081   ----------------------------------------
 BYTE   PATT
  POIN2 Label_010009CA
//  #02 //082   ----------------------------------------
 BYTE   PATT
  POIN2 Label_010009F0
//  #02 //083   ----------------------------------------
 BYTE   N03  Ds4  v127
 BYTE   W03
 BYTE   N96  En4
 BYTE   N96  Bn3
 BYTE   W12
 BYTE   N68  En4
 BYTE   N68  Bn3
 BYTE   W08
 BYTE   N01  En4
 BYTE   N01  Bn3
 BYTE   W96
//  #02 //084   ----------------------------------------
 BYTE   W96
//  #02 //085   ----------------------------------------
 BYTE   W96
//  #02 //086   ----------------------------------------
 BYTE   W96
//  #02 //087   ----------------------------------------
 BYTE   W96
//  #02 //088   ----------------------------------------
 BYTE   W96
//  #02 //089   ----------------------------------------
 BYTE   W96
//  #02 //090   ----------------------------------------
 BYTE   W96
//  #02 //091   ----------------------------------------
 BYTE   W96
//  #02 //092   ----------------------------------------
 BYTE   W72
 BYTE   GoTo
  POIN2 Label_010007C8
 BYTE   FINE

//**************** Track 3 (Midi-Chn.2) ****************//

PyramidCaveSA2B_003:
//  #03 //000   ----------------------------------------
Label_01000AE0:
 BYTE   TEMPO   132*PyramidCaveSA2B_tbs/2
 BYTE   KEYSH   PyramidCaveSA2B_key+0
 BYTE   VOICE   56
 BYTE   VOL   4*PyramidCaveSA2B_mvl/mxv
 BYTE   PAN   c_v+0
 BYTE   W96
//  #03 //001   ----------------------------------------
 BYTE   W96
//  #03 //002   ----------------------------------------
 BYTE   W96
//  #03 //003   ----------------------------------------
 BYTE   W96
//  #03 //004   ----------------------------------------
 BYTE   W96
//  #03 //005   ----------------------------------------
 BYTE   W96
//  #03 //006   ----------------------------------------
 BYTE   W96
//  #03 //007   ----------------------------------------
 BYTE   W96
//  #03 //008   ----------------------------------------
 BYTE   W96
//  #03 //009   ----------------------------------------
 BYTE   W96
//  #03 //010   ----------------------------------------
 BYTE   W96
//  #03 //011   ----------------------------------------
 BYTE   W96
//  #03 //012   ----------------------------------------
 BYTE   W96
//  #03 //013   ----------------------------------------
 BYTE   W96
//  #03 //014   ----------------------------------------
 BYTE   W96
//  #03 //015   ----------------------------------------
 BYTE   W96
//  #03 //016   ----------------------------------------
 BYTE   W96
//  #03 //017   ----------------------------------------
 BYTE   W96
//  #03 //018   ----------------------------------------
 BYTE   W96
//  #03 //019   ----------------------------------------
 BYTE   W96
//  #03 //020   ----------------------------------------
 BYTE   W96
//  #03 //021   ----------------------------------------
 BYTE   W96
//  #03 //022   ----------------------------------------
 BYTE   W96
//  #03 //023   ----------------------------------------
 BYTE   W96
//  #03 //024   ----------------------------------------
 BYTE   W96
//  #03 //025   ----------------------------------------
 BYTE   W96
//  #03 //026   ----------------------------------------
 BYTE   W96
//  #03 //027   ----------------------------------------
 BYTE   W96
//  #03 //028   ----------------------------------------
 BYTE   W96
//  #03 //029   ----------------------------------------
 BYTE   W96
//  #03 //030   ----------------------------------------
 BYTE   W96
//  #03 //031   ----------------------------------------
 BYTE   W96
//  #03 //032   ----------------------------------------
 BYTE   W96
//  #03 //033   ----------------------------------------
 BYTE   W96
//  #03 //034   ----------------------------------------
 BYTE   W96
//  #03 //035   ----------------------------------------
 BYTE   W96
//  #03 //036   ----------------------------------------
 BYTE   W96
//  #03 //037   ----------------------------------------
 BYTE   W96
//  #03 //038   ----------------------------------------
 BYTE   W96
//  #03 //039   ----------------------------------------
 BYTE   W96
//  #03 //040   ----------------------------------------
 BYTE   W96
//  #03 //041   ----------------------------------------
 BYTE   W96
//  #03 //042   ----------------------------------------
 BYTE   W96
//  #03 //043   ----------------------------------------
 BYTE   W66
Label_01000B16:
 BYTE   N05  Dn3  v110
 BYTE   W06
 BYTE   N11  En3
 BYTE   W12
 BYTE   Gn3
 BYTE   W12
//  #03 //044   ----------------------------------------
 BYTE   N17  Bn3
 BYTE   W18
 BYTE   Gn3
 BYTE   W18
 BYTE   N11  En3
 BYTE   W12
 BYTE   N17  Bn3
 BYTE   W18
 BYTE   PEND 
Label_01000B2B:
 BYTE   N17  Gn3  v110
 BYTE   W18
 BYTE   N11  En3
 BYTE   W12
//  #03 //045   ----------------------------------------
 BYTE   N17  An3
 BYTE   W18
 BYTE   Fs3
 BYTE   W18
 BYTE   N11  Dn3
 BYTE   W12
 BYTE   N17  An3
 BYTE   W18
 BYTE   PEND 
Label_01000B3E:
 BYTE   N17  Fs3  v110
 BYTE   W18
 BYTE   N11  Dn3
 BYTE   W12
//  #03 //046   ----------------------------------------
 BYTE   N17  Gn3
 BYTE   W18
 BYTE   Fn3
 BYTE   W18
 BYTE   N11  Cn3
 BYTE   W12
 BYTE   N17  Gn3
 BYTE   W18
 BYTE   PEND 
Label_01000B51:
 BYTE   N17  Fn3  v110
 BYTE   W18
 BYTE   N11  Cn3
 BYTE   W12
//  #03 //047   ----------------------------------------
 BYTE   N17  Fn3
 BYTE   W18
 BYTE   Gn3
 BYTE   W18
 BYTE   N28  En3
 BYTE   W03
 BYTE   N01
 BYTE   W24
 BYTE   W02
 BYTE   PEND 
//  #03 //048   ----------------------------------------
 BYTE   PATT
  POIN2 Label_01000B16
//  #03 //049   ----------------------------------------
 BYTE   PATT
  POIN2 Label_01000B2B
//  #03 //050   ----------------------------------------
 BYTE   PATT
  POIN2 Label_01000B3E
//  #03 //051   ----------------------------------------
 BYTE   N17  Fn3  v110
 BYTE   W18
 BYTE   N11  Cn3
 BYTE   W12
 BYTE   N17  Fn3
 BYTE   W18
 BYTE   Fn3
 BYTE   W18
 BYTE   N32  Gn3
 BYTE   W36
//  #03 //052   ----------------------------------------
 BYTE   N20
 BYTE   W96
//  #03 //053   ----------------------------------------
 BYTE   W96
//  #03 //054   ----------------------------------------
 BYTE   W96
//  #03 //055   ----------------------------------------
 BYTE   W96
//  #03 //056   ----------------------------------------
 BYTE   W96
//  #03 //057   ----------------------------------------
 BYTE   W96
//  #03 //058   ----------------------------------------
 BYTE   W96
//  #03 //059   ----------------------------------------
 BYTE   W96
//  #03 //060   ----------------------------------------
 BYTE   W96
//  #03 //061   ----------------------------------------
 BYTE   W96
//  #03 //062   ----------------------------------------
 BYTE   W96
//  #03 //063   ----------------------------------------
 BYTE   W96
//  #03 //064   ----------------------------------------
 BYTE   W96
//  #03 //065   ----------------------------------------
 BYTE   W96
//  #03 //066   ----------------------------------------
 BYTE   W96
//  #03 //067   ----------------------------------------
 BYTE   W96
//  #03 //068   ----------------------------------------
 BYTE   W96
//  #03 //069   ----------------------------------------
 BYTE   W96
//  #03 //070   ----------------------------------------
 BYTE   W96
//  #03 //071   ----------------------------------------
 BYTE   W96
//  #03 //072   ----------------------------------------
 BYTE   W96
//  #03 //073   ----------------------------------------
 BYTE   W96
//  #03 //074   ----------------------------------------
 BYTE   W96
//  #03 //075   ----------------------------------------
 BYTE   W96
//  #03 //076   ----------------------------------------
 BYTE   W96
//  #03 //077   ----------------------------------------
 BYTE   W96
//  #03 //078   ----------------------------------------
 BYTE   W96
//  #03 //079   ----------------------------------------
 BYTE   W96
//  #03 //080   ----------------------------------------
 BYTE   W96
//  #03 //081   ----------------------------------------
 BYTE   W96
//  #03 //082   ----------------------------------------
 BYTE   W96
//  #03 //083   ----------------------------------------
 BYTE   W96
//  #03 //084   ----------------------------------------
 BYTE   W96
//  #03 //085   ----------------------------------------
 BYTE   W96
//  #03 //086   ----------------------------------------
 BYTE   W96
//  #03 //087   ----------------------------------------
 BYTE   W96
//  #03 //088   ----------------------------------------
 BYTE   W96
//  #03 //089   ----------------------------------------
 BYTE   W96
//  #03 //090   ----------------------------------------
 BYTE   W96
//  #03 //091   ----------------------------------------
 BYTE   W96
//  #03 //092   ----------------------------------------
 BYTE   W96
//  #03 //093   ----------------------------------------
 BYTE   W96
//  #03 //094   ----------------------------------------
 BYTE   W96
//  #03 //095   ----------------------------------------
 BYTE   W90
//  #03 //096   ----------------------------------------
 BYTE   PATT
  POIN2 Label_01000B16
//  #03 //097   ----------------------------------------
 BYTE   PATT
  POIN2 Label_01000B2B
//  #03 //098   ----------------------------------------
 BYTE   PATT
  POIN2 Label_01000B3E
//  #03 //099   ----------------------------------------
 BYTE   PATT
  POIN2 Label_01000B51
//  #03 //100   ----------------------------------------
 BYTE   PATT
  POIN2 Label_01000B16
//  #03 //101   ----------------------------------------
 BYTE   PATT
  POIN2 Label_01000B2B
//  #03 //102   ----------------------------------------
 BYTE   PATT
  POIN2 Label_01000B3E
//  #03 //103   ----------------------------------------
 BYTE   N17  Fn3  v110
 BYTE   W18
 BYTE   N11  Cn3
 BYTE   W12
 BYTE   N17  Fn3
 BYTE   W18
 BYTE   Fn3
 BYTE   W18
 BYTE   N32  Gn3
 BYTE   W60
//  #03 //104   ----------------------------------------
 BYTE   GoTo
  POIN2 Label_01000AE0
 BYTE   FINE

//**************** Track 4 (Midi-Chn.3) ****************//

PyramidCaveSA2B_004:
//  #04 //000   ----------------------------------------
Label_01000BFC:
 BYTE   TEMPO   132*PyramidCaveSA2B_tbs/2
 BYTE   KEYSH   PyramidCaveSA2B_key+0
 BYTE   VOICE   52
 BYTE   VOL   34*PyramidCaveSA2B_mvl/mxv
 BYTE   PAN   c_v+0
 BYTE   N36  En3  v110
 BYTE   N36  Bn2
 BYTE   W36
 BYTE   N60  Dn3
 BYTE   N60  An2
 BYTE   W60
//  #04 //001   ----------------------------------------
Label_01000C11:
 BYTE   N18  En3  v110
 BYTE   N18  Bn2
 BYTE   W18
 BYTE   Dn3
 BYTE   N18  An2
 BYTE   W18
 BYTE   N24  En3
 BYTE   N24  Bn2
 BYTE   W24
 BYTE   N03  Fn3
 BYTE   W03
 BYTE   N32  Gn3
 BYTE   N32  Dn3
 BYTE   W04
 BYTE   N01  Gn3
 BYTE   N01  Dn3
 BYTE   W28
 BYTE   W01
 BYTE   PEND 
//  #04 //002   ----------------------------------------
Label_01000C2F:
 BYTE   N36  En3  v110
 BYTE   N36  Bn2
 BYTE   W36
 BYTE   N60  Dn3
 BYTE   N60  An2
 BYTE   W60
 BYTE   PEND 
//  #04 //003   ----------------------------------------
 BYTE   N18  En3  v110
 BYTE   N18  Bn2
 BYTE   W18
 BYTE   Dn3
 BYTE   N18  An2
 BYTE   W18
 BYTE   N24  En3
 BYTE   N24  Bn2
 BYTE   W24
 BYTE   N03  Gn3
 BYTE   W03
 BYTE   N32  An3
 BYTE   N32  En3
 BYTE   W04
 BYTE   N01  An3
 BYTE   N01  En3
 BYTE   W28
 BYTE   W01
//  #04 //004   ----------------------------------------
 BYTE   PATT
  POIN2 Label_01000C2F
//  #04 //005   ----------------------------------------
 BYTE   PATT
  POIN2 Label_01000C11
//  #04 //006   ----------------------------------------
 BYTE   PATT
  POIN2 Label_01000C2F
//  #04 //007   ----------------------------------------
 BYTE   N18  En2  v110
 BYTE   W18
 BYTE   Gn2
 BYTE   W18
 BYTE   N12  An2
 BYTE   W12
 BYTE   N24  Bn2
 BYTE   W48
//  #04 //008   ----------------------------------------
 BYTE   N96  En4  v092
 BYTE   W96
//  #04 //009   ----------------------------------------
Label_01000C77:
 BYTE   N48  Dn4  v092
 BYTE   W48
 BYTE   N24  Fs4
 BYTE   W24
 BYTE   N18  Gn4
 BYTE   W18
 BYTE   N03  Fs4
 BYTE   N03  En4
 BYTE   W03
 BYTE   Fn4
 BYTE   W03
 BYTE   PEND 
//  #04 //010   ----------------------------------------
 BYTE   N96  En4  v092
 BYTE   W96
//  #04 //011   ----------------------------------------
Label_01000C8D:
 BYTE   N18  En4  v092
 BYTE   W18
 BYTE   En4
 BYTE   W18
 BYTE   N36  Ds4
 BYTE   W36
 BYTE   N24
 BYTE   W24
 BYTE   PEND 
//  #04 //012   ----------------------------------------
 BYTE   N96  En4  v092
 BYTE   W96
//  #04 //013   ----------------------------------------
Label_01000C9D:
 BYTE   N48  Dn4  v092
 BYTE   W48
 BYTE   N24  Gn4
 BYTE   W24
 BYTE   N18  Fs4
 BYTE   W18
 BYTE   N03
 BYTE   N03  En4
 BYTE   W03
 BYTE   Fn4
 BYTE   W03
 BYTE   PEND 
//  #04 //014   ----------------------------------------
 BYTE   N96  En4  v092
 BYTE   W96
//  #04 //015   ----------------------------------------
 BYTE   PATT
  POIN2 Label_01000C8D
//  #04 //016   ----------------------------------------
 BYTE   N96  En4  v092
 BYTE   W96
//  #04 //017   ----------------------------------------
 BYTE   PATT
  POIN2 Label_01000C77
//  #04 //018   ----------------------------------------
 BYTE   N96  En4  v092
 BYTE   W96
//  #04 //019   ----------------------------------------
 BYTE   PATT
  POIN2 Label_01000C8D
//  #04 //020   ----------------------------------------
 BYTE   N96  En4  v092
 BYTE   W96
//  #04 //021   ----------------------------------------
 BYTE   PATT
  POIN2 Label_01000C9D
//  #04 //022   ----------------------------------------
 BYTE   N96  En4  v092
 BYTE   W96
//  #04 //023   ----------------------------------------
Label_01000CD6:
 BYTE   N18  En4  v092
 BYTE   W18
 BYTE   En4
 BYTE   W18
 BYTE   N36  Ds4
 BYTE   W36
 BYTE   N24
 BYTE   W96
//  #04 //024   ----------------------------------------
 BYTE   W96
//  #04 //025   ----------------------------------------
 BYTE   W96
//  #04 //026   ----------------------------------------
 BYTE   W96
//  #04 //027   ----------------------------------------
 BYTE   W24
 BYTE   PEND 
Label_01000CE6:
 BYTE   N60  En4  v092
 BYTE   W60
 BYTE   N12  Cn4
 BYTE   W12
//  #04 //028   ----------------------------------------
 BYTE   Dn4
 BYTE   W12
 BYTE   En4
 BYTE   W12
 BYTE   PEND 
Label_01000CF2:
 BYTE   N72  Dn4  v092
 BYTE   W72
//  #04 //029   ----------------------------------------
 BYTE   N24
 BYTE   W24
 BYTE   PEND 
Label_01000CF9:
 BYTE   N36  Cn4  v092
 BYTE   W36
 BYTE   An3
 BYTE   W36
//  #04 //030   ----------------------------------------
 BYTE   N12  Dn4
 BYTE   W12
 BYTE   En4
 BYTE   W12
 BYTE   PEND 
Label_01000D05:
 BYTE   N24  Dn4  v092
 BYTE   W24
 BYTE   N12  En4
 BYTE   W12
 BYTE   N60  Fs4
 BYTE   W60
 BYTE   PEND 
//  #04 //031   ----------------------------------------
Label_01000D10:
 BYTE   N60  En4  v092
 BYTE   W60
 BYTE   N12  Cs4
 BYTE   W12
 BYTE   Ds4
 BYTE   W12
 BYTE   En4
 BYTE   W12
 BYTE   PEND 
//  #04 //032   ----------------------------------------
Label_01000D1C:
 BYTE   N72  Ds4  v092
 BYTE   W72
 BYTE   N24
 BYTE   W24
 BYTE   PEND 
//  #04 //033   ----------------------------------------
Label_01000D23:
 BYTE   N72  En4  v092
 BYTE   W72
 BYTE   N12  Dn4
 BYTE   W12
 BYTE   En4
 BYTE   W12
 BYTE   PEND 
//  #04 //034   ----------------------------------------
Label_01000D2D:
 BYTE   N36  Fs4  v092
 BYTE   W36
 BYTE   N60  Fn4
 BYTE   W60
 BYTE   PEND 
//  #04 //035   ----------------------------------------
 BYTE   PATT
  POIN2 Label_01000CE6
//  #04 //036   ----------------------------------------
 BYTE   PATT
  POIN2 Label_01000CF2
//  #04 //037   ----------------------------------------
 BYTE   PATT
  POIN2 Label_01000CF9
//  #04 //038   ----------------------------------------
Label_01000D44:
 BYTE   N24  Dn4  v092
 BYTE   W24
 BYTE   N12  En4
 BYTE   W12
 BYTE   N24  An4
 BYTE   W24
 BYTE   Gn4
 BYTE   W24
 BYTE   N12  Fs4
 BYTE   W12
 BYTE   PEND 
//  #04 //039   ----------------------------------------
Label_01000D54:
 BYTE   N66  En4  v092
 BYTE   W66
 BYTE   N15  Dn4
 BYTE   W15
 BYTE   Cn4
 BYTE   W15
 BYTE   PEND 
//  #04 //040   ----------------------------------------
Label_01000D5E:
 BYTE   N36  Dn4  v092
 BYTE   W36
 BYTE   En4
 BYTE   W36
 BYTE   N24  Fs4
 BYTE   W24
 BYTE   PEND 
//  #04 //041   ----------------------------------------
Label_01000D68:
 BYTE   N36  En4  v092
 BYTE   N36  Bn2
 BYTE   W36
 BYTE   N60  Cn3
 BYTE   W60
 BYTE   PEND 
//  #04 //042   ----------------------------------------
Label_01000D72:
 BYTE   N36  Cs3  v092
 BYTE   W36
 BYTE   N60  Cn3
 BYTE   W96
//  #04 //043   ----------------------------------------
 BYTE   W96
//  #04 //044   ----------------------------------------
 BYTE   W96
//  #04 //045   ----------------------------------------
 BYTE   W96
//  #04 //046   ----------------------------------------
 BYTE   W96
//  #04 //047   ----------------------------------------
 BYTE   W96
//  #04 //048   ----------------------------------------
 BYTE   W96
//  #04 //049   ----------------------------------------
 BYTE   W96
//  #04 //050   ----------------------------------------
 BYTE   W60
 BYTE   PEND 
Label_01000D82:
 BYTE   N36  En3  v108
 BYTE   N36  Bn2
 BYTE   W36
//  #04 //051   ----------------------------------------
 BYTE   N60  Dn3
 BYTE   N60  An2
 BYTE   W60
 BYTE   PEND 
Label_01000D8E:
 BYTE   N18  En3  v108
 BYTE   N18  Bn2
 BYTE   W18
 BYTE   Dn3
 BYTE   N18  An2
 BYTE   W18
//  #04 //052   ----------------------------------------
 BYTE   N24  En3
 BYTE   N24  Bn2
 BYTE   W24
 BYTE   N03  Fn3
 BYTE   W03
 BYTE   N32  Gn3
 BYTE   N32  Dn3
 BYTE   W04
 BYTE   N01  Gn3
 BYTE   N01  Dn3
 BYTE   W28
 BYTE   W01
 BYTE   PEND 
//  #04 //053   ----------------------------------------
 BYTE   PATT
  POIN2 Label_01000D82
//  #04 //054   ----------------------------------------
 BYTE   N18  En3  v108
 BYTE   N18  Bn2
 BYTE   W18
 BYTE   Dn3
 BYTE   N18  An2
 BYTE   W18
 BYTE   N24  En3
 BYTE   N24  Bn2
 BYTE   W24
 BYTE   N03  Gn3
 BYTE   W03
 BYTE   N32  An3
 BYTE   N32  En3
 BYTE   W04
 BYTE   N01  An3
 BYTE   N01  En3
 BYTE   W28
 BYTE   W01
//  #04 //055   ----------------------------------------
 BYTE   PATT
  POIN2 Label_01000D82
//  #04 //056   ----------------------------------------
 BYTE   PATT
  POIN2 Label_01000D8E
//  #04 //057   ----------------------------------------
 BYTE   PATT
  POIN2 Label_01000D82
//  #04 //058   ----------------------------------------
 BYTE   N18  En2  v108
 BYTE   W18
 BYTE   Gn2
 BYTE   W18
 BYTE   N12  An2
 BYTE   W12
 BYTE   N24  Bn2
 BYTE   W48
//  #04 //059   ----------------------------------------
 BYTE   N96  En4  v092
 BYTE   W96
//  #04 //060   ----------------------------------------
 BYTE   PATT
  POIN2 Label_01000C77
//  #04 //061   ----------------------------------------
 BYTE   N96  En4  v092
 BYTE   W96
//  #04 //062   ----------------------------------------
 BYTE   PATT
  POIN2 Label_01000C8D
//  #04 //063   ----------------------------------------
 BYTE   N96  En4  v092
 BYTE   W96
//  #04 //064   ----------------------------------------
 BYTE   PATT
  POIN2 Label_01000C9D
//  #04 //065   ----------------------------------------
 BYTE   N96  En4  v092
 BYTE   W96
//  #04 //066   ----------------------------------------
 BYTE   PATT
  POIN2 Label_01000C8D
//  #04 //067   ----------------------------------------
 BYTE   N96  En4  v092
 BYTE   W96
//  #04 //068   ----------------------------------------
 BYTE   PATT
  POIN2 Label_01000C77
//  #04 //069   ----------------------------------------
 BYTE   N96  En4  v092
 BYTE   W96
//  #04 //070   ----------------------------------------
 BYTE   PATT
  POIN2 Label_01000C8D
//  #04 //071   ----------------------------------------
 BYTE   N96  En4  v092
 BYTE   W96
//  #04 //072   ----------------------------------------
 BYTE   PATT
  POIN2 Label_01000C9D
//  #04 //073   ----------------------------------------
 BYTE   N96  En4  v092
 BYTE   W96
//  #04 //074   ----------------------------------------
 BYTE   PATT
  POIN2 Label_01000CD6
//  #04 //075   ----------------------------------------
 BYTE   PATT
  POIN2 Label_01000CE6
//  #04 //076   ----------------------------------------
 BYTE   PATT
  POIN2 Label_01000CF2
//  #04 //077   ----------------------------------------
 BYTE   PATT
  POIN2 Label_01000CF9
//  #04 //078   ----------------------------------------
 BYTE   PATT
  POIN2 Label_01000D05
//  #04 //079   ----------------------------------------
 BYTE   PATT
  POIN2 Label_01000D10
//  #04 //080   ----------------------------------------
 BYTE   PATT
  POIN2 Label_01000D1C
//  #04 //081   ----------------------------------------
 BYTE   PATT
  POIN2 Label_01000D23
//  #04 //082   ----------------------------------------
 BYTE   PATT
  POIN2 Label_01000D2D
//  #04 //083   ----------------------------------------
 BYTE   PATT
  POIN2 Label_01000CE6
//  #04 //084   ----------------------------------------
 BYTE   PATT
  POIN2 Label_01000CF2
//  #04 //085   ----------------------------------------
 BYTE   PATT
  POIN2 Label_01000CF9
//  #04 //086   ----------------------------------------
 BYTE   PATT
  POIN2 Label_01000D44
//  #04 //087   ----------------------------------------
 BYTE   PATT
  POIN2 Label_01000D54
//  #04 //088   ----------------------------------------
 BYTE   PATT
  POIN2 Label_01000D5E
//  #04 //089   ----------------------------------------
 BYTE   PATT
  POIN2 Label_01000D68
//  #04 //090   ----------------------------------------
 BYTE   PATT
  POIN2 Label_01000D72
//  #04 //091   ----------------------------------------
 BYTE   GoTo
  POIN2 Label_01000BFC
 BYTE   FINE

//**************** Track 5 (Midi-Chn.4) ****************//

PyramidCaveSA2B_005:
//  #05 //000   ----------------------------------------
Label_547CB0:
 BYTE   TEMPO   132*PyramidCaveSA2B_tbs/2
 BYTE   KEYSH   PyramidCaveSA2B_key+0
 BYTE   VOICE   66
 BYTE   VOL   66*PyramidCaveSA2B_mvl/mxv
 BYTE   PAN   c_v+0
 BYTE   W96
//  #05 //001   ----------------------------------------
 BYTE   W96
//  #05 //002   ----------------------------------------
 BYTE   W96
//  #05 //003   ----------------------------------------
 BYTE   W96
//  #05 //004   ----------------------------------------
 BYTE   W96
//  #05 //005   ----------------------------------------
 BYTE   W96
//  #05 //006   ----------------------------------------
 BYTE   W96
//  #05 //007   ----------------------------------------
 BYTE   W96
//  #05 //008   ----------------------------------------
 BYTE   W96
//  #05 //009   ----------------------------------------
 BYTE   W96
//  #05 //010   ----------------------------------------
 BYTE   W96
//  #05 //011   ----------------------------------------
 BYTE   W96
//  #05 //012   ----------------------------------------
 BYTE   W96
//  #05 //013   ----------------------------------------
 BYTE   W96
//  #05 //014   ----------------------------------------
 BYTE   W96
//  #05 //015   ----------------------------------------
 BYTE   W96
//  #05 //016   ----------------------------------------
 BYTE   W96
//  #05 //017   ----------------------------------------
 BYTE   W96
//  #05 //018   ----------------------------------------
 BYTE   W96
//  #05 //019   ----------------------------------------
 BYTE   W96
//  #05 //020   ----------------------------------------
 BYTE   W96
//  #05 //021   ----------------------------------------
 BYTE   W96
//  #05 //022   ----------------------------------------
 BYTE   W96
//  #05 //023   ----------------------------------------
 BYTE   W96
//  #05 //024   ----------------------------------------
 BYTE   W12
Label_547CD3:
 BYTE   N23  Bn3  v110
 BYTE   W24
 BYTE   N11  As3
 BYTE   W12
 BYTE   An3
 BYTE   W12
 BYTE   Gn3
 BYTE   W12
 BYTE   En3
 BYTE   W12
 BYTE   N32  Cn4
 BYTE   W36
 BYTE   PEND 
//  #05 //025   ----------------------------------------
Label_547CE4:
 BYTE   N32  En4  v110
 BYTE   W36
 BYTE   Cs4
 BYTE   W36
 BYTE   N11  En4
 BYTE   W12
 BYTE   N23  Bn3
 BYTE   W24
 BYTE   PEND 
//  #05 //026   ----------------------------------------
 BYTE   N11  As3  v110
 BYTE   W12
 BYTE   An3
 BYTE   W12
 BYTE   Gn3
 BYTE   W12
 BYTE   En3
 BYTE   W12
 BYTE   Cn4
 BYTE   W24
 BYTE   Cn4
 BYTE   W12
 BYTE   N66  Cs4
 BYTE   W96
//  #05 //027   ----------------------------------------
 BYTE   W96
//  #05 //028   ----------------------------------------
 BYTE   W96
//  #05 //029   ----------------------------------------
 BYTE   W96
//  #05 //030   ----------------------------------------
 BYTE   W96
//  #05 //031   ----------------------------------------
 BYTE   W96
//  #05 //032   ----------------------------------------
 BYTE   W96
//  #05 //033   ----------------------------------------
 BYTE   W96
//  #05 //034   ----------------------------------------
 BYTE   W96
//  #05 //035   ----------------------------------------
 BYTE   W96
//  #05 //036   ----------------------------------------
 BYTE   W96
//  #05 //037   ----------------------------------------
 BYTE   W96
//  #05 //038   ----------------------------------------
 BYTE   W96
//  #05 //039   ----------------------------------------
 BYTE   W96
//  #05 //040   ----------------------------------------
 BYTE   W96
//  #05 //041   ----------------------------------------
 BYTE   W96
//  #05 //042   ----------------------------------------
 BYTE   W96
//  #05 //043   ----------------------------------------
 BYTE   W96
//  #05 //044   ----------------------------------------
 BYTE   W96
//  #05 //045   ----------------------------------------
 BYTE   W96
//  #05 //046   ----------------------------------------
 BYTE   W96
//  #05 //047   ----------------------------------------
 BYTE   W96
//  #05 //048   ----------------------------------------
 BYTE   W96
//  #05 //049   ----------------------------------------
 BYTE   W96
//  #05 //050   ----------------------------------------
 BYTE   W96
//  #05 //051   ----------------------------------------
 BYTE   W96
//  #05 //052   ----------------------------------------
 BYTE   W96
//  #05 //053   ----------------------------------------
 BYTE   W96
//  #05 //054   ----------------------------------------
 BYTE   W96
//  #05 //055   ----------------------------------------
 BYTE   W96
//  #05 //056   ----------------------------------------
 BYTE   W96
//  #05 //057   ----------------------------------------
 BYTE   W96
//  #05 //058   ----------------------------------------
 BYTE   W96
//  #05 //059   ----------------------------------------
 BYTE   W96
//  #05 //060   ----------------------------------------
 BYTE   W96
//  #05 //061   ----------------------------------------
 BYTE   W96
//  #05 //062   ----------------------------------------
 BYTE   W96
//  #05 //063   ----------------------------------------
 BYTE   W96
//  #05 //064   ----------------------------------------
 BYTE   W96
//  #05 //065   ----------------------------------------
 BYTE   W96
//  #05 //066   ----------------------------------------
 BYTE   W96
//  #05 //067   ----------------------------------------
 BYTE   W96
//  #05 //068   ----------------------------------------
 BYTE   W96
//  #05 //069   ----------------------------------------
 BYTE   W96
//  #05 //070   ----------------------------------------
 BYTE   W96
//  #05 //071   ----------------------------------------
 BYTE   W96
//  #05 //072   ----------------------------------------
 BYTE   W96
//  #05 //073   ----------------------------------------
 BYTE   W96
//  #05 //074   ----------------------------------------
 BYTE   W84
//  #05 //075   ----------------------------------------
 BYTE   PATT
  POIN2 Label_547CD3
//  #05 //076   ----------------------------------------
 BYTE   PATT
  POIN2 Label_547CE4
//  #05 //077   ----------------------------------------
 BYTE   N11  As3  v110
 BYTE   W12
 BYTE   An3
 BYTE   W12
 BYTE   Gn3
 BYTE   W12
 BYTE   En3
 BYTE   W12
 BYTE   Cn4
 BYTE   W24
 BYTE   Cn4
 BYTE   W12
 BYTE   N66  Cs4
 BYTE   W96
//  #05 //078   ----------------------------------------
 BYTE   W96
//  #05 //079   ----------------------------------------
 BYTE   W96
//  #05 //080   ----------------------------------------
 BYTE   W96
//  #05 //081   ----------------------------------------
 BYTE   W96
//  #05 //082   ----------------------------------------
 BYTE   W96
//  #05 //083   ----------------------------------------
 BYTE   W96
//  #05 //084   ----------------------------------------
 BYTE   W96
//  #05 //085   ----------------------------------------
 BYTE   W96
//  #05 //086   ----------------------------------------
 BYTE   W96
//  #05 //087   ----------------------------------------
 BYTE   W96
//  #05 //088   ----------------------------------------
 BYTE   W96
//  #05 //089   ----------------------------------------
 BYTE   W96
//  #05 //090   ----------------------------------------
 BYTE   W96
//  #05 //091   ----------------------------------------
 BYTE   W96
//  #05 //092   ----------------------------------------
 BYTE   W96
//  #05 //093   ----------------------------------------
 BYTE   W96
//  #05 //094   ----------------------------------------
 BYTE   W96
//  #05 //095   ----------------------------------------
 BYTE   W96
//  #05 //096   ----------------------------------------
 BYTE   W96
//  #05 //097   ----------------------------------------
 BYTE   W96
//  #05 //098   ----------------------------------------
 BYTE   W96
//  #05 //099   ----------------------------------------
 BYTE   W96
//  #05 //100   ----------------------------------------
 BYTE   W96
//  #05 //101   ----------------------------------------
 BYTE   W72
 BYTE   GoTo
  POIN2 Label_547CB0
 BYTE   FINE

//**************** Track 6 (Midi-Chn.5) ****************//

PyramidCaveSA2B_006:
//  #06 //000   ----------------------------------------
Label_01000E9C:
 BYTE   TEMPO   132*PyramidCaveSA2B_tbs/2
 BYTE   KEYSH   PyramidCaveSA2B_key+0
 BYTE   VOICE   71
 BYTE   VOL   57*PyramidCaveSA2B_mvl/mxv
 BYTE   PAN   c_v+0
 BYTE   W96
//  #06 //001   ----------------------------------------
 BYTE   W96
//  #06 //002   ----------------------------------------
 BYTE   W96
//  #06 //003   ----------------------------------------
 BYTE   W96
//  #06 //004   ----------------------------------------
 BYTE   W96
//  #06 //005   ----------------------------------------
 BYTE   W96
//  #06 //006   ----------------------------------------
 BYTE   W96
//  #06 //007   ----------------------------------------
 BYTE   W96
//  #06 //008   ----------------------------------------
 BYTE   W96
//  #06 //009   ----------------------------------------
 BYTE   W96
//  #06 //010   ----------------------------------------
 BYTE   W96
//  #06 //011   ----------------------------------------
 BYTE   W96
//  #06 //012   ----------------------------------------
 BYTE   W96
//  #06 //013   ----------------------------------------
 BYTE   W96
//  #06 //014   ----------------------------------------
 BYTE   W96
//  #06 //015   ----------------------------------------
 BYTE   W96
//  #06 //016   ----------------------------------------
 BYTE   W96
//  #06 //017   ----------------------------------------
 BYTE   W96
//  #06 //018   ----------------------------------------
 BYTE   W96
//  #06 //019   ----------------------------------------
 BYTE   W96
//  #06 //020   ----------------------------------------
 BYTE   W96
//  #06 //021   ----------------------------------------
 BYTE   W96
//  #06 //022   ----------------------------------------
 BYTE   W96
//  #06 //023   ----------------------------------------
 BYTE   W96
//  #06 //024   ----------------------------------------
 BYTE   W96
//  #06 //025   ----------------------------------------
 BYTE   W96
//  #06 //026   ----------------------------------------
 BYTE   W96
//  #06 //027   ----------------------------------------
 BYTE   W96
//  #06 //028   ----------------------------------------
 BYTE   W96
//  #06 //029   ----------------------------------------
 BYTE   W96
//  #06 //030   ----------------------------------------
 BYTE   W96
//  #06 //031   ----------------------------------------
 BYTE   W96
//  #06 //032   ----------------------------------------
 BYTE   W96
//  #06 //033   ----------------------------------------
 BYTE   W96
//  #06 //034   ----------------------------------------
 BYTE   W96
//  #06 //035   ----------------------------------------
 BYTE   W96
//  #06 //036   ----------------------------------------
 BYTE   W96
//  #06 //037   ----------------------------------------
 BYTE   W96
//  #06 //038   ----------------------------------------
 BYTE   W96
//  #06 //039   ----------------------------------------
 BYTE   W96
//  #06 //040   ----------------------------------------
 BYTE   W96
//  #06 //041   ----------------------------------------
 BYTE   W96
//  #06 //042   ----------------------------------------
 BYTE   W96
//  #06 //043   ----------------------------------------
 BYTE   W96
//  #06 //044   ----------------------------------------
Label_01000ED2:
 BYTE   N03  Dn3  v110
 BYTE   W03
 BYTE   N36  En3
 BYTE   W36
 BYTE   N03  Ds3
 BYTE   W03
 BYTE   Dn3
 BYTE   W03
 BYTE   Cn3
 BYTE   W03
 BYTE   N36  Bn2
 BYTE   W04
 BYTE   N03
 BYTE   W32
 BYTE   W02
 BYTE   Cn3
 BYTE   W03
 BYTE   Dn3
 BYTE   W03
 BYTE   En3
 BYTE   W03
 BYTE   PEND 
Label_01000EED:
 BYTE   N36  Fs3  v110
 BYTE   W36
//  #06 //045   ----------------------------------------
 BYTE   N03
 BYTE   W03
 BYTE   Fn3
 BYTE   W03
 BYTE   En3
 BYTE   W03
 BYTE   N42  Dn3
 BYTE   W42
 BYTE   N03
 BYTE   W03
 BYTE   En3
 BYTE   W03
 BYTE   Fn3
 BYTE   W03
 BYTE   PEND 
Label_01000F01:
 BYTE   N36  Fn3  v110
 BYTE   W36
//  #06 //046   ----------------------------------------
 BYTE   N03
 BYTE   W03
 BYTE   Fn3
 BYTE   W03
 BYTE   En3
 BYTE   W03
 BYTE   N48  Dn3
 BYTE   W06
 BYTE   N03
 BYTE   W44
 BYTE   W01
 BYTE   PEND 
Label_01000F12:
 BYTE   N18  Cn3  v110
 BYTE   W18
 BYTE   Dn3
 BYTE   W18
//  #06 //047   ----------------------------------------
 BYTE   N36  Bn2
 BYTE   W36
 BYTE   N24
 BYTE   W24
 BYTE   PEND 
//  #06 //048   ----------------------------------------
 BYTE   PATT
  POIN2 Label_01000ED2
//  #06 //049   ----------------------------------------
 BYTE   PATT
  POIN2 Label_01000EED
//  #06 //050   ----------------------------------------
 BYTE   PATT
  POIN2 Label_01000F01
//  #06 //051   ----------------------------------------
 BYTE   N18  Cn3  v110
 BYTE   W18
 BYTE   Cn3
 BYTE   W18
 BYTE   N36  Dn3
 BYTE   W36
 BYTE   N24
 BYTE   W96
//  #06 //052   ----------------------------------------
 BYTE   W96
//  #06 //053   ----------------------------------------
 BYTE   W96
//  #06 //054   ----------------------------------------
 BYTE   W96
//  #06 //055   ----------------------------------------
 BYTE   W96
//  #06 //056   ----------------------------------------
 BYTE   W96
//  #06 //057   ----------------------------------------
 BYTE   W96
//  #06 //058   ----------------------------------------
 BYTE   W96
//  #06 //059   ----------------------------------------
 BYTE   W96
//  #06 //060   ----------------------------------------
 BYTE   W96
//  #06 //061   ----------------------------------------
 BYTE   W96
//  #06 //062   ----------------------------------------
 BYTE   W96
//  #06 //063   ----------------------------------------
 BYTE   W96
//  #06 //064   ----------------------------------------
 BYTE   W96
//  #06 //065   ----------------------------------------
 BYTE   W96
//  #06 //066   ----------------------------------------
 BYTE   W96
//  #06 //067   ----------------------------------------
 BYTE   W96
//  #06 //068   ----------------------------------------
 BYTE   W96
//  #06 //069   ----------------------------------------
 BYTE   W96
//  #06 //070   ----------------------------------------
 BYTE   W96
//  #06 //071   ----------------------------------------
 BYTE   W96
//  #06 //072   ----------------------------------------
 BYTE   W96
//  #06 //073   ----------------------------------------
 BYTE   W96
//  #06 //074   ----------------------------------------
 BYTE   W96
//  #06 //075   ----------------------------------------
 BYTE   W96
//  #06 //076   ----------------------------------------
 BYTE   W96
//  #06 //077   ----------------------------------------
 BYTE   W96
//  #06 //078   ----------------------------------------
 BYTE   W96
//  #06 //079   ----------------------------------------
 BYTE   W96
//  #06 //080   ----------------------------------------
 BYTE   W96
//  #06 //081   ----------------------------------------
 BYTE   W96
//  #06 //082   ----------------------------------------
 BYTE   W96
//  #06 //083   ----------------------------------------
 BYTE   W96
//  #06 //084   ----------------------------------------
 BYTE   W96
//  #06 //085   ----------------------------------------
 BYTE   W96
//  #06 //086   ----------------------------------------
 BYTE   W96
//  #06 //087   ----------------------------------------
 BYTE   W96
//  #06 //088   ----------------------------------------
 BYTE   W96
//  #06 //089   ----------------------------------------
 BYTE   W96
//  #06 //090   ----------------------------------------
 BYTE   W96
//  #06 //091   ----------------------------------------
 BYTE   W96
//  #06 //092   ----------------------------------------
 BYTE   W96
//  #06 //093   ----------------------------------------
 BYTE   W96
//  #06 //094   ----------------------------------------
 BYTE   W96
//  #06 //095   ----------------------------------------
 BYTE   W24
//  #06 //096   ----------------------------------------
 BYTE   PATT
  POIN2 Label_01000ED2
//  #06 //097   ----------------------------------------
 BYTE   PATT
  POIN2 Label_01000EED
//  #06 //098   ----------------------------------------
 BYTE   PATT
  POIN2 Label_01000F01
//  #06 //099   ----------------------------------------
 BYTE   PATT
  POIN2 Label_01000F12
//  #06 //100   ----------------------------------------
 BYTE   PATT
  POIN2 Label_01000ED2
//  #06 //101   ----------------------------------------
 BYTE   PATT
  POIN2 Label_01000EED
//  #06 //102   ----------------------------------------
 BYTE   PATT
  POIN2 Label_01000F01
//  #06 //103   ----------------------------------------
 BYTE   N18  Cn3  v110
 BYTE   W18
 BYTE   Cn3
 BYTE   W18
 BYTE   N36  Dn3
 BYTE   W60
//  #06 //104   ----------------------------------------
 BYTE   GoTo
  POIN2 Label_01000E9C
 BYTE   FINE

//**************** Track 7 (Midi-Chn.6) ****************//

PyramidCaveSA2B_007:
//  #07 //000   ----------------------------------------
Label_01000FA8:
 BYTE   TEMPO   132*PyramidCaveSA2B_tbs/2
 BYTE   KEYSH   PyramidCaveSA2B_key+0
 BYTE   VOICE   36
 BYTE   VOL   85*PyramidCaveSA2B_mvl/mxv
 BYTE   PAN   c_v+0
 BYTE   N02  Dn2  v110
 BYTE   W03
 BYTE   N14  En2
 BYTE   W15
 BYTE   N17  An2
 BYTE   W18
 BYTE   N23  Bn2
 BYTE   W24
 BYTE   Dn3
 BYTE   W24
 BYTE   N05  An2
 BYTE   W06
 BYTE   Bn2
 BYTE   W06
//  #07 //001   ----------------------------------------
Label_01000FC6:
 BYTE   N17  En2  v110
 BYTE   W18
 BYTE   An2
 BYTE   W18
 BYTE   N23  Bn2
 BYTE   W24
 BYTE   N11  Dn3
 BYTE   W12
 BYTE   N02  Fn3
 BYTE   W03
 BYTE   N20  Gn3
 BYTE   W21
 BYTE   PEND 
//  #07 //002   ----------------------------------------
Label_01000FD9:
 BYTE   N17  En3  v110
 BYTE   W18
 BYTE   An2
 BYTE   W18
 BYTE   N23  Bn2
 BYTE   W24
 BYTE   Dn3
 BYTE   W24
 BYTE   N05  An2
 BYTE   W06
 BYTE   Bn2
 BYTE   W06
 BYTE   PEND 
//  #07 //003   ----------------------------------------
Label_01000FEA:
 BYTE   N17  En2  v110
 BYTE   W18
 BYTE   An2
 BYTE   W18
 BYTE   N23  Bn2
 BYTE   W24
 BYTE   N11  Dn3
 BYTE   W12
 BYTE   N02  Fs3
 BYTE   W03
 BYTE   N08  Gn3
 BYTE   W09
 BYTE   N11  En3
 BYTE   W12
 BYTE   PEND 
//  #07 //004   ----------------------------------------
Label_01001000:
 BYTE   N17  En2  v110
 BYTE   W18
 BYTE   An2
 BYTE   W18
 BYTE   N23  Bn2
 BYTE   W24
 BYTE   Dn3
 BYTE   W24
 BYTE   N05  An2
 BYTE   W06
 BYTE   Bn2
 BYTE   W06
 BYTE   PEND 
//  #07 //005   ----------------------------------------
 BYTE   PATT
  POIN2 Label_01000FC6
//  #07 //006   ----------------------------------------
 BYTE   PATT
  POIN2 Label_01000FD9
//  #07 //007   ----------------------------------------
Label_0100101B:
 BYTE   N17  En2  v110
 BYTE   W18
 BYTE   An2
 BYTE   W18
 BYTE   N11  As2
 BYTE   W12
 BYTE   N20  Bn2
 BYTE   W48
 BYTE   PEND 
//  #07 //008   ----------------------------------------
Label_01001028:
 BYTE   N17  En2  v110
 BYTE   W18
 BYTE   Gn2
 BYTE   W18
 BYTE   N23  An2
 BYTE   W24
 BYTE   N11  As2
 BYTE   W12
 BYTE   Bn2
 BYTE   W12
 BYTE   En3
 BYTE   W12
 BYTE   PEND 
//  #07 //009   ----------------------------------------
Label_01001039:
 BYTE   N17  Dn3  v110
 BYTE   W18
 BYTE   Gn2
 BYTE   W18
 BYTE   N32  Dn3
 BYTE   W36
 BYTE   N20
 BYTE   W24
 BYTE   PEND 
//  #07 //010   ----------------------------------------
Label_01001045:
 BYTE   N66  Cn3  v110
 BYTE   W72
 BYTE   N20
 BYTE   W24
 BYTE   PEND 
//  #07 //011   ----------------------------------------
Label_0100104C:
 BYTE   N17  An2  v110
 BYTE   W18
 BYTE   An2
 BYTE   W18
 BYTE   N32  Bn2
 BYTE   W36
 BYTE   N20
 BYTE   W24
 BYTE   PEND 
//  #07 //012   ----------------------------------------
 BYTE   PATT
  POIN2 Label_01001028
//  #07 //013   ----------------------------------------
 BYTE   PATT
  POIN2 Label_01001039
//  #07 //014   ----------------------------------------
 BYTE   PATT
  POIN2 Label_01001045
//  #07 //015   ----------------------------------------
Label_01001067:
 BYTE   N17  An2  v110
 BYTE   W18
 BYTE   An2
 BYTE   W18
 BYTE   N54  Bn2
 BYTE   W60
 BYTE   PEND 
//  #07 //016   ----------------------------------------
Label_01001071:
 BYTE   N11  En2  v110
 BYTE   W12
 BYTE   N23  Gn2
 BYTE   W24
 BYTE   An2
 BYTE   W24
 BYTE   N11  As2
 BYTE   W12
 BYTE   Bn2
 BYTE   W12
 BYTE   En3
 BYTE   W12
 BYTE   PEND 
//  #07 //017   ----------------------------------------
 BYTE   PATT
  POIN2 Label_01001039
//  #07 //018   ----------------------------------------
 BYTE   PATT
  POIN2 Label_01001045
//  #07 //019   ----------------------------------------
 BYTE   PATT
  POIN2 Label_0100104C
//  #07 //020   ----------------------------------------
 BYTE   PATT
  POIN2 Label_01001028
//  #07 //021   ----------------------------------------
 BYTE   PATT
  POIN2 Label_01001039
//  #07 //022   ----------------------------------------
 BYTE   PATT
  POIN2 Label_01001045
//  #07 //023   ----------------------------------------
 BYTE   PATT
  POIN2 Label_01001067
//  #07 //024   ----------------------------------------
Label_010010A5:
 BYTE   N32  En2  v110
 BYTE   W36
 BYTE   N11  Bn2
 BYTE   W12
 BYTE   N04  En3
 BYTE   W12
 BYTE   En3
 BYTE   W12
 BYTE   En3
 BYTE   W12
 BYTE   N32  Cn3
 BYTE   W36
 BYTE   PEND 
//  #07 //025   ----------------------------------------
Label_010010B7:
 BYTE   N32  An2  v110
 BYTE   W36
 BYTE   N11  Cs3
 BYTE   W12
 BYTE   N20
 BYTE   W24
 BYTE   N32  En2
 BYTE   W36
 BYTE   PEND 
//  #07 //026   ----------------------------------------
Label_010010C4:
 BYTE   N11  Bn2  v110
 BYTE   W12
 BYTE   N04  En3
 BYTE   W12
 BYTE   En3
 BYTE   W12
 BYTE   En3
 BYTE   W12
 BYTE   N23  Cn3
 BYTE   W24
 BYTE   N11
 BYTE   W12
 BYTE   Cs3
 BYTE   W12
 BYTE   PEND 
//  #07 //027   ----------------------------------------
Label_010010D7:
 BYTE   N11  Cs3  v110
 BYTE   W12
 BYTE   Cs3
 BYTE   W12
 BYTE   Cs3
 BYTE   W12
 BYTE   Cs3
 BYTE   W12
 BYTE   Cs3
 BYTE   W96
//  #07 //028   ----------------------------------------
 BYTE   W96
//  #07 //029   ----------------------------------------
 BYTE   W96
//  #07 //030   ----------------------------------------
 BYTE   W96
//  #07 //031   ----------------------------------------
 BYTE   W96
//  #07 //032   ----------------------------------------
 BYTE   W96
//  #07 //033   ----------------------------------------
 BYTE   W96
//  #07 //034   ----------------------------------------
 BYTE   W96
//  #07 //035   ----------------------------------------
 BYTE   W96
//  #07 //036   ----------------------------------------
 BYTE   W96
//  #07 //037   ----------------------------------------
 BYTE   W96
//  #07 //038   ----------------------------------------
 BYTE   W96
//  #07 //039   ----------------------------------------
 BYTE   W96
//  #07 //040   ----------------------------------------
 BYTE   W96
//  #07 //041   ----------------------------------------
 BYTE   W96
//  #07 //042   ----------------------------------------
 BYTE   W96
//  #07 //043   ----------------------------------------
 BYTE   W96
//  #07 //044   ----------------------------------------
 BYTE   W96
//  #07 //045   ----------------------------------------
 BYTE   W96
//  #07 //046   ----------------------------------------
 BYTE   W96
//  #07 //047   ----------------------------------------
 BYTE   W96
//  #07 //048   ----------------------------------------
 BYTE   W96
//  #07 //049   ----------------------------------------
 BYTE   W96
//  #07 //050   ----------------------------------------
 BYTE   W96
//  #07 //051   ----------------------------------------
 BYTE   W12
 BYTE   PEND 
 BYTE   N02  Dn2  v110
 BYTE   W03
 BYTE   N14  En2
 BYTE   W15
 BYTE   N17  An2
 BYTE   W18
 BYTE   N23  Bn2
 BYTE   W24
 BYTE   Dn3
 BYTE   W24
//  #07 //052   ----------------------------------------
 BYTE   N05  An2
 BYTE   W06
 BYTE   Bn2
 BYTE   W06
//  #07 //053   ----------------------------------------
 BYTE   PATT
  POIN2 Label_01000FC6
//  #07 //054   ----------------------------------------
 BYTE   PATT
  POIN2 Label_01000FD9
//  #07 //055   ----------------------------------------
 BYTE   PATT
  POIN2 Label_01000FEA
//  #07 //056   ----------------------------------------
 BYTE   PATT
  POIN2 Label_01001000
//  #07 //057   ----------------------------------------
 BYTE   PATT
  POIN2 Label_01000FC6
//  #07 //058   ----------------------------------------
 BYTE   PATT
  POIN2 Label_01000FD9
//  #07 //059   ----------------------------------------
 BYTE   PATT
  POIN2 Label_0100101B
//  #07 //060   ----------------------------------------
 BYTE   PATT
  POIN2 Label_01001028
//  #07 //061   ----------------------------------------
 BYTE   PATT
  POIN2 Label_01001039
//  #07 //062   ----------------------------------------
 BYTE   PATT
  POIN2 Label_01001045
//  #07 //063   ----------------------------------------
 BYTE   PATT
  POIN2 Label_0100104C
//  #07 //064   ----------------------------------------
 BYTE   PATT
  POIN2 Label_01001028
//  #07 //065   ----------------------------------------
 BYTE   PATT
  POIN2 Label_01001039
//  #07 //066   ----------------------------------------
 BYTE   PATT
  POIN2 Label_01001045
//  #07 //067   ----------------------------------------
 BYTE   PATT
  POIN2 Label_01001067
//  #07 //068   ----------------------------------------
 BYTE   PATT
  POIN2 Label_01001071
//  #07 //069   ----------------------------------------
 BYTE   PATT
  POIN2 Label_01001039
//  #07 //070   ----------------------------------------
 BYTE   PATT
  POIN2 Label_01001045
//  #07 //071   ----------------------------------------
 BYTE   PATT
  POIN2 Label_0100104C
//  #07 //072   ----------------------------------------
 BYTE   PATT
  POIN2 Label_01001028
//  #07 //073   ----------------------------------------
 BYTE   PATT
  POIN2 Label_01001039
//  #07 //074   ----------------------------------------
 BYTE   PATT
  POIN2 Label_01001045
//  #07 //075   ----------------------------------------
 BYTE   PATT
  POIN2 Label_01001067
//  #07 //076   ----------------------------------------
 BYTE   PATT
  POIN2 Label_010010A5
//  #07 //077   ----------------------------------------
 BYTE   PATT
  POIN2 Label_010010B7
//  #07 //078   ----------------------------------------
 BYTE   PATT
  POIN2 Label_010010C4
//  #07 //079   ----------------------------------------
 BYTE   PATT
  POIN2 Label_010010D7
//  #07 //080   ----------------------------------------
 BYTE   GoTo
  POIN2 Label_01000FA8
 BYTE   FINE

//**************** Track 8 (Midi-Chn.7) ****************//

PyramidCaveSA2B_008:
//  #08 //000   ----------------------------------------
Label_010011B0:
 BYTE   TEMPO   132*PyramidCaveSA2B_tbs/2
 BYTE   KEYSH   PyramidCaveSA2B_key+0
 BYTE   VOICE   121
 BYTE   VOL   49*PyramidCaveSA2B_mvl/mxv
 BYTE   PAN   c_v+0
 BYTE   N11  Cs2  v110
 BYTE   N11  Dn1
 BYTE   W12
 BYTE   As1
 BYTE   W12
 BYTE   N17
 BYTE   N17  Cn1
 BYTE   W18
 BYTE   Cn1
 BYTE   W18
 BYTE   N23
 BYTE   W24
 BYTE   N11  Cs2
 BYTE   N11  Cn1
 BYTE   W12
//  #08 //001   ----------------------------------------
 BYTE   Cs2
 BYTE   N11  Dn1
 BYTE   W12
 BYTE   As1
 BYTE   W12
 BYTE   N17
 BYTE   N17  Cn1
 BYTE   W18
 BYTE   Cn1
 BYTE   W18
 BYTE   N23
 BYTE   W24
 BYTE   N11  As1
 BYTE   N11  Dn1
 BYTE   W12
//  #08 //002   ----------------------------------------
 BYTE   Cs2
 BYTE   N11  Dn1
 BYTE   W12
 BYTE   As1
 BYTE   W12
 BYTE   N17
 BYTE   N17  Cn1
 BYTE   W18
 BYTE   Cn1
 BYTE   W18
 BYTE   N23
 BYTE   W24
 BYTE   N11  Cs2
 BYTE   N11  Cn1
 BYTE   W12
//  #08 //003   ----------------------------------------
 BYTE   Cs2
 BYTE   N11  Cn1
 BYTE   W12
 BYTE   As1
 BYTE   W12
 BYTE   N17
 BYTE   N17  Dn1
 BYTE   W18
 BYTE   Dn1
 BYTE   W18
 BYTE   N11
 BYTE   W12
 BYTE   N05
 BYTE   W06
 BYTE   N17
 BYTE   W18
//  #08 //004   ----------------------------------------
 BYTE   N11  Cs2
 BYTE   N11  Cn1
 BYTE   W12
 BYTE   As1
 BYTE   N11  Cn1
 BYTE   W12
 BYTE   N17  As1
 BYTE   N17  Dn1
 BYTE   W18
 BYTE   Cn1
 BYTE   W18
 BYTE   N11  As1
 BYTE   N11  Cn1
 BYTE   W12
 BYTE   Dn1
 BYTE   W12
 BYTE   Cs2
 BYTE   W12
//  #08 //005   ----------------------------------------
 BYTE   Cs2
 BYTE   N11  Cn1
 BYTE   W12
 BYTE   As1
 BYTE   N11  Cn1
 BYTE   W12
 BYTE   N17  As1
 BYTE   N17  Dn1
 BYTE   W18
 BYTE   Cn1
 BYTE   W18
 BYTE   N11  As1
 BYTE   N11  Cn1
 BYTE   W12
 BYTE   N20  Cs2
 BYTE   N20  Dn1
 BYTE   W24
//  #08 //006   ----------------------------------------
 BYTE   N11  Cs2
 BYTE   N11  Cn1
 BYTE   W12
 BYTE   As1
 BYTE   N11  Cn1
 BYTE   W12
 BYTE   N17  As1
 BYTE   N17  Dn1
 BYTE   W18
 BYTE   Cn1
 BYTE   W18
 BYTE   N11  As1
 BYTE   N11  Cn1
 BYTE   W12
 BYTE   Dn1
 BYTE   W12
 BYTE   N05  Cn1
 BYTE   W06
 BYTE   Dn1
 BYTE   W06
//  #08 //007   ----------------------------------------
 BYTE   N17  Cs2
 BYTE   N17  Cn1
 BYTE   W18
 BYTE   Cs2
 BYTE   N17  Dn1
 BYTE   W18
 BYTE   N11  Cs2
 BYTE   N11  Dn1
 BYTE   W12
 BYTE   N20  Cs2
 BYTE   N20  Dn1
 BYTE   W24
 BYTE   N11  Cn1
 BYTE   W12
 BYTE   N05  Dn1
 BYTE   W06
 BYTE   Dn1
 BYTE   W06
//  #08 //008   ----------------------------------------
Label_01001270:
 BYTE   N11  Cs2  v110
 BYTE   N11  Cn1
 BYTE   W12
 BYTE   As1
 BYTE   N11  Cn1
 BYTE   W12
 BYTE   As1
 BYTE   N11  Dn1
 BYTE   W12
 BYTE   N05  Cn1
 BYTE   W06
 BYTE   N17
 BYTE   W18
 BYTE   N11  As1
 BYTE   N11  Cn1
 BYTE   W12
 BYTE   Dn1
 BYTE   W12
 BYTE   N05  As1
 BYTE   N05  Cn1
 BYTE   W06
 BYTE   Dn1
 BYTE   W06
 BYTE   PEND 
//  #08 //009   ----------------------------------------
Label_01001292:
 BYTE   N11  Cn1  v110
 BYTE   W12
 BYTE   As1
 BYTE   N11  Cn1
 BYTE   W12
 BYTE   As1
 BYTE   N11  Dn1
 BYTE   W12
 BYTE   N05  Cn1
 BYTE   W06
 BYTE   N17
 BYTE   W18
 BYTE   N11  As1
 BYTE   N11  Cn1
 BYTE   W12
 BYTE   Dn1
 BYTE   W12
 BYTE   N05  As1
 BYTE   N05  Cn1
 BYTE   W06
 BYTE   Dn1
 BYTE   W06
 BYTE   PEND 
//  #08 //010   ----------------------------------------
 BYTE   PATT
  POIN2 Label_01001292
//  #08 //011   ----------------------------------------
Label_010012B7:
 BYTE   N11  Cn1  v110
 BYTE   W12
 BYTE   As1
 BYTE   N11  Cn1
 BYTE   W12
 BYTE   As1
 BYTE   N11  Dn1
 BYTE   W12
 BYTE   N05  Cn1
 BYTE   W06
 BYTE   N17
 BYTE   W18
 BYTE   N11  As1
 BYTE   N11  Cn1
 BYTE   W12
 BYTE   Cs2
 BYTE   N11  Dn1
 BYTE   W12
 BYTE   N05  Cn1
 BYTE   W06
 BYTE   Dn1
 BYTE   W06
 BYTE   PEND 
//  #08 //012   ----------------------------------------
 BYTE   PATT
  POIN2 Label_01001270
//  #08 //013   ----------------------------------------
 BYTE   PATT
  POIN2 Label_01001292
//  #08 //014   ----------------------------------------
 BYTE   PATT
  POIN2 Label_01001292
//  #08 //015   ----------------------------------------
 BYTE   N11  Cn1  v110
 BYTE   W12
 BYTE   As1
 BYTE   N11  Cn1
 BYTE   W12
 BYTE   As1
 BYTE   N11  Dn1
 BYTE   W12
 BYTE   N05  Cn1
 BYTE   W06
 BYTE   N17
 BYTE   W18
 BYTE   N11
 BYTE   W12
 BYTE   N05  As1
 BYTE   N05  Dn1
 BYTE   W06
 BYTE   Cn1
 BYTE   W06
 BYTE   As1
 BYTE   N05  Dn1
 BYTE   W06
 BYTE   Dn1
 BYTE   W06
//  #08 //016   ----------------------------------------
 BYTE   PATT
  POIN2 Label_01001270
//  #08 //017   ----------------------------------------
 BYTE   PATT
  POIN2 Label_01001292
//  #08 //018   ----------------------------------------
 BYTE   PATT
  POIN2 Label_01001292
//  #08 //019   ----------------------------------------
 BYTE   PATT
  POIN2 Label_010012B7
//  #08 //020   ----------------------------------------
 BYTE   PATT
  POIN2 Label_01001270
//  #08 //021   ----------------------------------------
 BYTE   PATT
  POIN2 Label_01001292
//  #08 //022   ----------------------------------------
 BYTE   PATT
  POIN2 Label_01001292
//  #08 //023   ----------------------------------------
 BYTE   N17  Cs2  v110
 BYTE   N17  Cn1
 BYTE   W18
 BYTE   Cs2
 BYTE   N17  Dn1
 BYTE   W18
 BYTE   N23  Cs2
 BYTE   N23  Dn1
 BYTE   W24
 BYTE   N11  Cn1
 BYTE   W12
 BYTE   Cn1
 BYTE   W12
 BYTE   N05  Dn1
 BYTE   W06
 BYTE   Dn1
 BYTE   W06
//  #08 //024   ----------------------------------------
 BYTE   N11  Cs2
 BYTE   W12
 BYTE   N05  As1
 BYTE   N05  Cn1
 BYTE   W06
 BYTE   As1
 BYTE   W18
 BYTE   As1
 BYTE   N05  Cn1
 BYTE   W06
 BYTE   As1
 BYTE   W18
 BYTE   As1
 BYTE   N05  Cn1
 BYTE   W06
 BYTE   As1
 BYTE   W18
 BYTE   As1
 BYTE   N05  Cn1
 BYTE   W06
 BYTE   As1
 BYTE   W18
//  #08 //025   ----------------------------------------
 BYTE   As1
 BYTE   N05  Cn1
 BYTE   W06
 BYTE   As1
 BYTE   W18
 BYTE   As1
 BYTE   N05  Cn1
 BYTE   W06
 BYTE   As1
 BYTE   W18
 BYTE   As1
 BYTE   N05  Cn1
 BYTE   W06
 BYTE   As1
 BYTE   W18
 BYTE   N11  Cs2
 BYTE   N11  Cn1
 BYTE   W12
 BYTE   Cs2
 BYTE   W12
//  #08 //026   ----------------------------------------
 BYTE   N05  As1
 BYTE   N05  Cn1
 BYTE   W06
 BYTE   As1
 BYTE   W18
 BYTE   As1
 BYTE   N05  Cn1
 BYTE   W06
 BYTE   As1
 BYTE   W18
 BYTE   As1
 BYTE   N05  Cn1
 BYTE   W06
 BYTE   As1
 BYTE   W18
 BYTE   As1
 BYTE   N05  Cn1
 BYTE   W06
 BYTE   As1
 BYTE   W18
//  #08 //027   ----------------------------------------
 BYTE   N11  Cn1
 BYTE   W12
 BYTE   N02  Cs2  v045
 BYTE   W03
 BYTE   Cs2
 BYTE   W03
 BYTE   Cs2  v047
 BYTE   W03
 BYTE   Cs2  v049
 BYTE   W03
 BYTE   Cs2  v051
 BYTE   N02  Cn1
 BYTE   W03
 BYTE   Cs2  v053
 BYTE   W03
 BYTE   Cs2  v055
 BYTE   W03
 BYTE   Cs2  v057
 BYTE   W03
 BYTE   Cs2  v060
 BYTE   W03
 BYTE   Cs2  v063
 BYTE   W03
 BYTE   Cs2  v066
 BYTE   W03
 BYTE   Cs2  v069
 BYTE   W03
 BYTE   Cs2  v072
 BYTE   N02  Cn1
 BYTE   W03
 BYTE   Cs2  v075
 BYTE   W03
 BYTE   Cs2  v078
 BYTE   W03
 BYTE   Cs2  v081
 BYTE   W03
 BYTE   Cs2  v084
 BYTE   W03
 BYTE   Cs2  v087
 BYTE   W03
 BYTE   Cs2  v090
 BYTE   W03
 BYTE   Cs2  v093
 BYTE   W03
 BYTE   Cs2  v096
 BYTE   N02  Cn1
 BYTE   W03
 BYTE   Cs2  v099
 BYTE   W03
 BYTE   Cs2  v102
 BYTE   W03
 BYTE   Cs2  v105
 BYTE   W03
 BYTE   N11  Cn1  v108
 BYTE   W12
//  #08 //028   ----------------------------------------
Label_010013E5:
 BYTE   N11  As1  v108
 BYTE   N11  Cn1
 BYTE   W12
 BYTE   As1
 BYTE   N11  Dn1
 BYTE   W12
 BYTE   N05  Cn1
 BYTE   W06
 BYTE   N17
 BYTE   W18
 BYTE   N11
 BYTE   W12
 BYTE   As1
 BYTE   N11  Dn1
 BYTE   W12
 BYTE   N05  Cn1
 BYTE   W06
 BYTE   Dn1
 BYTE   W06
 BYTE   N11  Cn1
 BYTE   W12
 BYTE   PEND 
//  #08 //029   ----------------------------------------
 BYTE   PATT
  POIN2 Label_010013E5
//  #08 //030   ----------------------------------------
 BYTE   PATT
  POIN2 Label_010013E5
//  #08 //031   ----------------------------------------
 BYTE   N11  As1  v108
 BYTE   N11  Cn1
 BYTE   W12
 BYTE   As1
 BYTE   N11  Dn1
 BYTE   W12
 BYTE   N05  Cn1
 BYTE   W06
 BYTE   N17
 BYTE   W18
 BYTE   N11
 BYTE   W12
 BYTE   N20  Cs2
 BYTE   N20  Dn1
 BYTE   W24
 BYTE   N11  Cs2
 BYTE   N11  Cn1
 BYTE   W12
//  #08 //032   ----------------------------------------
 BYTE   PATT
  POIN2 Label_010013E5
//  #08 //033   ----------------------------------------
 BYTE   PATT
  POIN2 Label_010013E5
//  #08 //034   ----------------------------------------
 BYTE   N11  As1  v108
 BYTE   N11  Cn1
 BYTE   W12
 BYTE   Cs2
 BYTE   N11  As1
 BYTE   N11  Dn1
 BYTE   W12
 BYTE   N05  Cn1
 BYTE   W06
 BYTE   N17
 BYTE   W18
 BYTE   N11
 BYTE   W12
 BYTE   Cs2
 BYTE   N11  Dn1
 BYTE   W12
 BYTE   N05  Cn1
 BYTE   W06
 BYTE   Dn1
 BYTE   W06
 BYTE   N11  Cn1
 BYTE   W12
//  #08 //035   ----------------------------------------
 BYTE   As1
 BYTE   N11  Cn1
 BYTE   W12
 BYTE   As1
 BYTE   N11  Dn1
 BYTE   W12
 BYTE   N05  Cn1
 BYTE   W06
 BYTE   N17
 BYTE   W18
 BYTE   N11  Cs2
 BYTE   N11  Cn1
 BYTE   W12
 BYTE   Dn1
 BYTE   W12
 BYTE   N05  Cs2
 BYTE   N05  Cn1
 BYTE   W06
 BYTE   Dn1
 BYTE   W06
 BYTE   N11  Cs2
 BYTE   N11  Cn1
 BYTE   W12
//  #08 //036   ----------------------------------------
 BYTE   PATT
  POIN2 Label_010013E5
//  #08 //037   ----------------------------------------
 BYTE   PATT
  POIN2 Label_010013E5
//  #08 //038   ----------------------------------------
 BYTE   PATT
  POIN2 Label_010013E5
//  #08 //039   ----------------------------------------
 BYTE   N11  As1  v108
 BYTE   N11  Cn1
 BYTE   W12
 BYTE   As1
 BYTE   N11  Dn1
 BYTE   W12
 BYTE   N05  Cn1
 BYTE   W06
 BYTE   N17
 BYTE   W18
 BYTE   N11
 BYTE   W12
 BYTE   Cs2
 BYTE   N11  Dn1
 BYTE   W12
 BYTE   N05  Cn1
 BYTE   W06
 BYTE   Dn1
 BYTE   W06
 BYTE   N11  Cs2
 BYTE   N11  Cn1
 BYTE   W12
//  #08 //040   ----------------------------------------
 BYTE   PATT
  POIN2 Label_010013E5
//  #08 //041   ----------------------------------------
 BYTE   N11  As1  v108
 BYTE   N11  Cn1
 BYTE   W12
 BYTE   As1
 BYTE   N11  Dn1
 BYTE   W12
 BYTE   N05  Cn1
 BYTE   W06
 BYTE   Cn1
 BYTE   W06
 BYTE   N11  Cs2
 BYTE   W12
 BYTE   Cn1
 BYTE   W12
 BYTE   N05  Cs2
 BYTE   N05  Dn1
 BYTE   W06
 BYTE   Cn1
 BYTE   W06
 BYTE   Dn1
 BYTE   W06
 BYTE   Dn1
 BYTE   W06
 BYTE   N11  Cs2
 BYTE   N11  Cn1
 BYTE   W12
//  #08 //042   ----------------------------------------
 BYTE   As1
 BYTE   N11  Cn1
 BYTE   W12
 BYTE   As1
 BYTE   N11  Dn1
 BYTE   W12
 BYTE   N05  Cn1
 BYTE   W06
 BYTE   N17
 BYTE   W18
 BYTE   N11
 BYTE   W12
 BYTE   As1
 BYTE   N11  Dn1
 BYTE   W12
 BYTE   N05  Cn1
 BYTE   W06
 BYTE   Dn1
 BYTE   W06
 BYTE   N11  Cs2
 BYTE   N11  Cn1
 BYTE   W12
//  #08 //043   ----------------------------------------
 BYTE   As1
 BYTE   N11  Cn1
 BYTE   W12
 BYTE   N17  As1
 BYTE   N17  Dn1
 BYTE   W18
 BYTE   Dn1
 BYTE   W18
 BYTE   N11
 BYTE   W12
 BYTE   N05  Cs2
 BYTE   N05  Dn1
 BYTE   W06
 BYTE   N17
 BYTE   W18
 BYTE   N11  Cs2
 BYTE   N11  Cn1
 BYTE   W12
//  #08 //044   ----------------------------------------
 BYTE   Cn1
 BYTE   W12
 BYTE   Dn1
 BYTE   W12
 BYTE   N05  As1
 BYTE   N05  Cn1
 BYTE   W06
 BYTE   As1
 BYTE   N05  Cn1
 BYTE   W18
 BYTE   N11  As1
 BYTE   N11  Cn1
 BYTE   W12
 BYTE   Cs2
 BYTE   N11  Dn1
 BYTE   W12
 BYTE   N05  Cn1
 BYTE   W06
 BYTE   Dn1
 BYTE   W06
 BYTE   N11  Cn1
 BYTE   W12
//  #08 //045   ----------------------------------------
 BYTE   Cn1
 BYTE   W12
 BYTE   Cs2
 BYTE   N11  Dn1
 BYTE   W12
 BYTE   N05  As1
 BYTE   N05  Cn1
 BYTE   W06
 BYTE   As1
 BYTE   N05  Cn1
 BYTE   W18
 BYTE   N11  As1
 BYTE   N11  Cn1
 BYTE   W12
 BYTE   Cs2
 BYTE   N11  Dn1
 BYTE   W12
 BYTE   N05  Cn1
 BYTE   W06
 BYTE   Dn1
 BYTE   W06
 BYTE   N11  Cn1
 BYTE   W12
//  #08 //046   ----------------------------------------
 BYTE   Cn1
 BYTE   W12
 BYTE   Cs2
 BYTE   N11  Dn1
 BYTE   W12
 BYTE   N05  As1
 BYTE   N05  Cn1
 BYTE   W06
 BYTE   As1
 BYTE   N05  Cn1
 BYTE   W18
 BYTE   N11  As1
 BYTE   N11  Cn1
 BYTE   W12
 BYTE   Cs2
 BYTE   N11  Dn1
 BYTE   W12
 BYTE   N05  Cn1
 BYTE   W06
 BYTE   Dn1
 BYTE   W06
 BYTE   N17  Cs2
 BYTE   N17  En1
 BYTE   N17  Dn1
 BYTE   W18
//  #08 //047   ----------------------------------------
 BYTE   Cs2
 BYTE   N17  En1
 BYTE   N17  Dn1
 BYTE   W18
 BYTE   N23  Cs2
 BYTE   N23  En1
 BYTE   N23  Dn1
 BYTE   W24
 BYTE   N11  Cn1
 BYTE   W12
 BYTE   Cs2
 BYTE   N11  Dn1
 BYTE   W12
 BYTE   N05
 BYTE   W06
 BYTE   Dn1
 BYTE   W06
 BYTE   N11  Cn1
 BYTE   W12
 BYTE   Cn1
 BYTE   W12
//  #08 //048   ----------------------------------------
Label_0100157D:
 BYTE   N11  Cs2  v108
 BYTE   N11  Dn1
 BYTE   W12
 BYTE   N05  As1
 BYTE   N05  Cn1
 BYTE   W06
 BYTE   As1
 BYTE   N05  Cn1
 BYTE   W18
 BYTE   N11  As1
 BYTE   N11  Cn1
 BYTE   W12
 BYTE   Cs2
 BYTE   N11  Dn1
 BYTE   W12
 BYTE   N05  Cn1
 BYTE   W06
 BYTE   Dn1
 BYTE   W06
 BYTE   N11  Cn1
 BYTE   W12
 BYTE   Cn1
 BYTE   W12
 BYTE   PEND 
//  #08 //049   ----------------------------------------
 BYTE   PATT
  POIN2 Label_0100157D
//  #08 //050   ----------------------------------------
 BYTE   N11  Cs2  v108
 BYTE   N11  Dn1
 BYTE   W12
 BYTE   N05  As1
 BYTE   N05  Cn1
 BYTE   W06
 BYTE   As1
 BYTE   N05  Cn1
 BYTE   W18
 BYTE   N11  As1
 BYTE   N11  Cn1
 BYTE   W12
 BYTE   Cs2
 BYTE   N11  Dn1
 BYTE   W12
 BYTE   N05  Cn1
 BYTE   W06
 BYTE   Dn1
 BYTE   W06
 BYTE   N17  Cs2
 BYTE   N17  En1
 BYTE   N17  Dn1
 BYTE   W18
 BYTE   Cs2
 BYTE   N17  En1
 BYTE   N17  Dn1
 BYTE   W18
//  #08 //051   ----------------------------------------
 BYTE   N23  Cs2
 BYTE   N23  En1
 BYTE   N23  Dn1
 BYTE   W24
 BYTE   N11  Cn1
 BYTE   W12
 BYTE   Dn1
 BYTE   W12
 BYTE   N05
 BYTE   W06
 BYTE   Dn1
 BYTE   W06
 BYTE   N11  Cs2
 BYTE   N11  Dn1
 BYTE   W12
 BYTE   As1
 BYTE   W12
 BYTE   N17
 BYTE   N17  Cn1
 BYTE   W18
//  #08 //052   ----------------------------------------
 BYTE   Cn1
 BYTE   W18
 BYTE   N23
 BYTE   W24
 BYTE   N11  Cs2
 BYTE   N11  Cn1
 BYTE   W12
 BYTE   Cs2
 BYTE   N11  Dn1
 BYTE   W12
 BYTE   As1
 BYTE   W12
 BYTE   N17
 BYTE   N17  Cn1
 BYTE   W18
//  #08 //053   ----------------------------------------
 BYTE   Cn1
 BYTE   W18
 BYTE   N23
 BYTE   W24
 BYTE   N11  As1
 BYTE   N11  Dn1
 BYTE   W12
 BYTE   Cs2
 BYTE   N11  Dn1
 BYTE   W12
 BYTE   As1
 BYTE   W12
 BYTE   N17
 BYTE   N17  Cn1
 BYTE   W18
//  #08 //054   ----------------------------------------
 BYTE   Cn1
 BYTE   W18
 BYTE   N23
 BYTE   W24
 BYTE   N11  Cs2
 BYTE   N11  Cn1
 BYTE   W12
 BYTE   Cs2
 BYTE   N11  Cn1
 BYTE   W12
 BYTE   As1
 BYTE   W12
 BYTE   N17
 BYTE   N17  Dn1
 BYTE   W18
//  #08 //055   ----------------------------------------
 BYTE   Dn1
 BYTE   W18
 BYTE   N11
 BYTE   W12
 BYTE   N05
 BYTE   W06
 BYTE   N17
 BYTE   W18
 BYTE   N11  Cs2
 BYTE   N11  Cn1
 BYTE   W12
 BYTE   As1
 BYTE   N11  Cn1
 BYTE   W12
 BYTE   N17  As1
 BYTE   N17  Dn1
 BYTE   W18
//  #08 //056   ----------------------------------------
 BYTE   Cn1
 BYTE   W18
 BYTE   N11  As1
 BYTE   N11  Cn1
 BYTE   W12
 BYTE   Dn1
 BYTE   W12
 BYTE   Cs2
 BYTE   W12
 BYTE   Cs2
 BYTE   N11  Cn1
 BYTE   W12
 BYTE   As1
 BYTE   N11  Cn1
 BYTE   W12
 BYTE   N17  As1
 BYTE   N17  Dn1
 BYTE   W18
//  #08 //057   ----------------------------------------
 BYTE   Cn1
 BYTE   W18
 BYTE   N11  As1
 BYTE   N11  Cn1
 BYTE   W12
 BYTE   N20  Cs2
 BYTE   N20  Dn1
 BYTE   W24
 BYTE   N11  Cs2
 BYTE   N11  Cn1
 BYTE   W12
 BYTE   As1
 BYTE   N11  Cn1
 BYTE   W12
 BYTE   N17  As1
 BYTE   N17  Dn1
 BYTE   W18
//  #08 //058   ----------------------------------------
 BYTE   Cn1
 BYTE   W18
 BYTE   N11  As1
 BYTE   N11  Cn1
 BYTE   W12
 BYTE   Dn1
 BYTE   W12
 BYTE   N05  Cn1
 BYTE   W06
 BYTE   Dn1
 BYTE   W06
 BYTE   N17  Cs2
 BYTE   N17  Cn1
 BYTE   W18
 BYTE   Cs2
 BYTE   N17  Dn1
 BYTE   W18
 BYTE   N11  Cs2
 BYTE   N11  Dn1
 BYTE   W12
//  #08 //059   ----------------------------------------
 BYTE   N20  Cs2
 BYTE   N20  Dn1
 BYTE   W24
 BYTE   N11  Cn1
 BYTE   W12
 BYTE   N05  Dn1
 BYTE   W06
 BYTE   Dn1
 BYTE   W06
 BYTE   N11  Cs2
 BYTE   N11  Cn1
 BYTE   W12
 BYTE   As1
 BYTE   N11  Cn1
 BYTE   W12
 BYTE   As1
 BYTE   N11  Dn1
 BYTE   W12
 BYTE   N05  Cn1
 BYTE   W06
 BYTE   N17
 BYTE   W18
//  #08 //060   ----------------------------------------
Label_010016A6:
 BYTE   N11  As1  v108
 BYTE   N11  Cn1
 BYTE   W12
 BYTE   Dn1
 BYTE   W12
 BYTE   N05  As1
 BYTE   N05  Cn1
 BYTE   W06
 BYTE   Dn1
 BYTE   W06
 BYTE   N11  Cn1
 BYTE   W12
 BYTE   As1
 BYTE   N11  Cn1
 BYTE   W12
 BYTE   As1
 BYTE   N11  Dn1
 BYTE   W12
 BYTE   N05  Cn1
 BYTE   W06
 BYTE   N17
 BYTE   W18
 BYTE   PEND 
//  #08 //061   ----------------------------------------
 BYTE   PATT
  POIN2 Label_010016A6
//  #08 //062   ----------------------------------------
 BYTE   PATT
  POIN2 Label_010016A6
//  #08 //063   ----------------------------------------
Label_010016D0:
 BYTE   N11  As1  v108
 BYTE   N11  Cn1
 BYTE   W12
 BYTE   Cs2
 BYTE   N11  Dn1
 BYTE   W12
 BYTE   N05  Cn1
 BYTE   W06
 BYTE   Dn1
 BYTE   W06
 BYTE   N11  Cs2
 BYTE   N11  Cn1
 BYTE   W12
 BYTE   As1
 BYTE   N11  Cn1
 BYTE   W12
 BYTE   As1
 BYTE   N11  Dn1
 BYTE   W12
 BYTE   N05  Cn1
 BYTE   W06
 BYTE   N17
 BYTE   W18
 BYTE   PEND 
//  #08 //064   ----------------------------------------
 BYTE   PATT
  POIN2 Label_010016A6
//  #08 //065   ----------------------------------------
 BYTE   PATT
  POIN2 Label_010016A6
//  #08 //066   ----------------------------------------
 BYTE   PATT
  POIN2 Label_010016A6
//  #08 //067   ----------------------------------------
 BYTE   N11  Cn1  v108
 BYTE   W12
 BYTE   N05  As1
 BYTE   N05  Dn1
 BYTE   W06
 BYTE   Cn1
 BYTE   W06
 BYTE   As1
 BYTE   N05  Dn1
 BYTE   W06
 BYTE   Dn1
 BYTE   W06
 BYTE   N11  Cs2
 BYTE   N11  Cn1
 BYTE   W12
 BYTE   As1
 BYTE   N11  Cn1
 BYTE   W12
 BYTE   As1
 BYTE   N11  Dn1
 BYTE   W12
 BYTE   N05  Cn1
 BYTE   W06
 BYTE   N17
 BYTE   W18
//  #08 //068   ----------------------------------------
 BYTE   PATT
  POIN2 Label_010016A6
//  #08 //069   ----------------------------------------
 BYTE   PATT
  POIN2 Label_010016A6
//  #08 //070   ----------------------------------------
 BYTE   PATT
  POIN2 Label_010016A6
//  #08 //071   ----------------------------------------
 BYTE   PATT
  POIN2 Label_010016D0
//  #08 //072   ----------------------------------------
 BYTE   PATT
  POIN2 Label_010016A6
//  #08 //073   ----------------------------------------
 BYTE   PATT
  POIN2 Label_010016A6
//  #08 //074   ----------------------------------------
 BYTE   N11  As1  v108
 BYTE   N11  Cn1
 BYTE   W12
 BYTE   Dn1
 BYTE   W12
 BYTE   N05  As1
 BYTE   N05  Cn1
 BYTE   W06
 BYTE   Dn1
 BYTE   W06
 BYTE   N17  Cs2
 BYTE   N17  Cn1
 BYTE   W18
 BYTE   Cs2
 BYTE   N17  Dn1
 BYTE   W18
 BYTE   N23  Cs2
 BYTE   N23  Dn1
 BYTE   W24
//  #08 //075   ----------------------------------------
 BYTE   N11  Cn1
 BYTE   W12
 BYTE   Cn1
 BYTE   W12
 BYTE   N05  Dn1
 BYTE   W06
 BYTE   Dn1
 BYTE   W06
 BYTE   N11  Cs2
 BYTE   W12
 BYTE   N05  As1
 BYTE   N05  Cn1
 BYTE   W06
 BYTE   As1
 BYTE   W18
 BYTE   As1
 BYTE   N05  Cn1
 BYTE   W06
 BYTE   As1
 BYTE   W18
//  #08 //076   ----------------------------------------
 BYTE   As1
 BYTE   N05  Cn1
 BYTE   W06
 BYTE   As1
 BYTE   W18
 BYTE   As1
 BYTE   N05  Cn1
 BYTE   W06
 BYTE   As1
 BYTE   W18
 BYTE   As1
 BYTE   N05  Cn1
 BYTE   W06
 BYTE   As1
 BYTE   W18
 BYTE   As1
 BYTE   N05  Cn1
 BYTE   W06
 BYTE   As1
 BYTE   W18
//  #08 //077   ----------------------------------------
 BYTE   As1
 BYTE   N05  Cn1
 BYTE   W06
 BYTE   As1
 BYTE   W18
 BYTE   N11  Cs2
 BYTE   N11  Cn1
 BYTE   W12
 BYTE   Cs2
 BYTE   W12
 BYTE   N05  As1
 BYTE   N05  Cn1
 BYTE   W06
 BYTE   As1
 BYTE   W18
 BYTE   As1
 BYTE   N05  Cn1
 BYTE   W06
 BYTE   As1
 BYTE   W18
//  #08 //078   ----------------------------------------
 BYTE   As1
 BYTE   N05  Cn1
 BYTE   W06
 BYTE   As1
 BYTE   W18
 BYTE   As1
 BYTE   N05  Cn1
 BYTE   W06
 BYTE   As1
 BYTE   W18
 BYTE   N11  Cn1
 BYTE   W12
 BYTE   N02  Cs2  v045
 BYTE   W03
 BYTE   Cs2
 BYTE   W03
 BYTE   Cs2  v047
 BYTE   W03
 BYTE   Cs2  v049
 BYTE   W03
 BYTE   Cs2  v051
 BYTE   N02  Cn1
 BYTE   W03
 BYTE   Cs2  v053
 BYTE   W03
 BYTE   Cs2  v055
 BYTE   W03
 BYTE   Cs2  v057
 BYTE   W03
 BYTE   Cs2  v060
 BYTE   W03
 BYTE   Cs2  v063
 BYTE   W03
 BYTE   Cs2  v066
 BYTE   W03
 BYTE   Cs2  v069
 BYTE   W03
//  #08 //079   ----------------------------------------
 BYTE   Cs2  v072
 BYTE   N02  Cn1
 BYTE   W03
 BYTE   Cs2  v075
 BYTE   W03
 BYTE   Cs2  v078
 BYTE   W03
 BYTE   Cs2  v081
 BYTE   W03
 BYTE   Cs2  v084
 BYTE   W03
 BYTE   Cs2  v087
 BYTE   W03
 BYTE   Cs2  v090
 BYTE   W03
 BYTE   Cs2  v093
 BYTE   W03
 BYTE   Cs2  v096
 BYTE   N02  Cn1
 BYTE   W03
 BYTE   Cs2  v099
 BYTE   W03
 BYTE   Cs2  v102
 BYTE   W03
 BYTE   Cs2  v105
 BYTE   W03
 BYTE   N11  Cn1  v108
 BYTE   W12
 BYTE   As1
 BYTE   N11  Cn1
 BYTE   W12
 BYTE   As1
 BYTE   N11  Dn1
 BYTE   W12
 BYTE   N05  Cn1
 BYTE   W06
 BYTE   N17
 BYTE   W18
//  #08 //080   ----------------------------------------
Label_01001819:
 BYTE   N11  Cn1  v108
 BYTE   W12
 BYTE   As1
 BYTE   N11  Dn1
 BYTE   W12
 BYTE   N05  Cn1
 BYTE   W06
 BYTE   Dn1
 BYTE   W06
 BYTE   N11  Cn1
 BYTE   W12
 BYTE   As1
 BYTE   N11  Cn1
 BYTE   W12
 BYTE   As1
 BYTE   N11  Dn1
 BYTE   W12
 BYTE   N05  Cn1
 BYTE   W06
 BYTE   N17
 BYTE   W18
 BYTE   PEND 
//  #08 //081   ----------------------------------------
 BYTE   PATT
  POIN2 Label_01001819
//  #08 //082   ----------------------------------------
 BYTE   PATT
  POIN2 Label_01001819
//  #08 //083   ----------------------------------------
 BYTE   N11  Cn1  v108
 BYTE   W12
 BYTE   N20  Cs2
 BYTE   N20  Dn1
 BYTE   W24
 BYTE   N11  Cs2
 BYTE   N11  Cn1
 BYTE   W12
 BYTE   As1
 BYTE   N11  Cn1
 BYTE   W12
 BYTE   As1
 BYTE   N11  Dn1
 BYTE   W12
 BYTE   N05  Cn1
 BYTE   W06
 BYTE   N17
 BYTE   W18
//  #08 //084   ----------------------------------------
 BYTE   PATT
  POIN2 Label_01001819
//  #08 //085   ----------------------------------------
 BYTE   N11  Cn1  v108
 BYTE   W12
 BYTE   As1
 BYTE   N11  Dn1
 BYTE   W12
 BYTE   N05  Cn1
 BYTE   W06
 BYTE   Dn1
 BYTE   W06
 BYTE   N11  Cn1
 BYTE   W12
 BYTE   As1
 BYTE   N11  Cn1
 BYTE   W12
 BYTE   Cs2
 BYTE   N11  As1
 BYTE   N11  Dn1
 BYTE   W12
 BYTE   N05  Cn1
 BYTE   W06
 BYTE   N17
 BYTE   W18
//  #08 //086   ----------------------------------------
 BYTE   N11
 BYTE   W12
 BYTE   Cs2
 BYTE   N11  Dn1
 BYTE   W12
 BYTE   N05  Cn1
 BYTE   W06
 BYTE   Dn1
 BYTE   W06
 BYTE   N11  Cn1
 BYTE   W12
 BYTE   As1
 BYTE   N11  Cn1
 BYTE   W12
 BYTE   As1
 BYTE   N11  Dn1
 BYTE   W12
 BYTE   N05  Cn1
 BYTE   W06
 BYTE   N17
 BYTE   W18
//  #08 //087   ----------------------------------------
 BYTE   N11  Cs2
 BYTE   N11  Cn1
 BYTE   W12
 BYTE   Dn1
 BYTE   W12
 BYTE   N05  Cs2
 BYTE   N05  Cn1
 BYTE   W06
 BYTE   Dn1
 BYTE   W06
 BYTE   N11  Cs2
 BYTE   N11  Cn1
 BYTE   W12
 BYTE   As1
 BYTE   N11  Cn1
 BYTE   W12
 BYTE   As1
 BYTE   N11  Dn1
 BYTE   W12
 BYTE   N05  Cn1
 BYTE   W06
 BYTE   N17
 BYTE   W18
//  #08 //088   ----------------------------------------
 BYTE   PATT
  POIN2 Label_01001819
//  #08 //089   ----------------------------------------
 BYTE   PATT
  POIN2 Label_01001819
//  #08 //090   ----------------------------------------
 BYTE   PATT
  POIN2 Label_01001819
//  #08 //091   ----------------------------------------
 BYTE   N11  Cn1  v108
 BYTE   W12
 BYTE   Cs2
 BYTE   N11  Dn1
 BYTE   W12
 BYTE   N05  Cn1
 BYTE   W06
 BYTE   Dn1
 BYTE   W06
 BYTE   N11  Cs2
 BYTE   N11  Cn1
 BYTE   W12
 BYTE   As1
 BYTE   N11  Cn1
 BYTE   W12
 BYTE   As1
 BYTE   N11  Dn1
 BYTE   W12
 BYTE   N05  Cn1
 BYTE   W06
 BYTE   N17
 BYTE   W18
//  #08 //092   ----------------------------------------
 BYTE   N11
 BYTE   W12
 BYTE   As1
 BYTE   N11  Dn1
 BYTE   W12
 BYTE   N05  Cn1
 BYTE   W06
 BYTE   Dn1
 BYTE   W06
 BYTE   N11  Cn1
 BYTE   W12
 BYTE   As1
 BYTE   N11  Cn1
 BYTE   W12
 BYTE   As1
 BYTE   N11  Dn1
 BYTE   W12
 BYTE   N05  Cn1
 BYTE   W06
 BYTE   Cn1
 BYTE   W06
 BYTE   N11  Cs2
 BYTE   W12
//  #08 //093   ----------------------------------------
 BYTE   Cn1
 BYTE   W12
 BYTE   N05  Cs2
 BYTE   N05  Dn1
 BYTE   W06
 BYTE   Cn1
 BYTE   W06
 BYTE   Dn1
 BYTE   W06
 BYTE   Dn1
 BYTE   W06
 BYTE   N11  Cs2
 BYTE   N11  Cn1
 BYTE   W12
 BYTE   As1
 BYTE   N11  Cn1
 BYTE   W12
 BYTE   As1
 BYTE   N11  Dn1
 BYTE   W12
 BYTE   N05  Cn1
 BYTE   W06
 BYTE   N17
 BYTE   W18
//  #08 //094   ----------------------------------------
 BYTE   N11
 BYTE   W12
 BYTE   As1
 BYTE   N11  Dn1
 BYTE   W12
 BYTE   N05  Cn1
 BYTE   W06
 BYTE   Dn1
 BYTE   W06
 BYTE   N11  Cs2
 BYTE   N11  Cn1
 BYTE   W12
 BYTE   As1
 BYTE   N11  Cn1
 BYTE   W12
 BYTE   N17  As1
 BYTE   N17  Dn1
 BYTE   W18
 BYTE   Dn1
 BYTE   W18
//  #08 //095   ----------------------------------------
 BYTE   N11
 BYTE   W12
 BYTE   N05  Cs2
 BYTE   N05  Dn1
 BYTE   W06
 BYTE   N17
 BYTE   W18
 BYTE   N11  Cs2
 BYTE   N11  Cn1
 BYTE   W12
 BYTE   Cn1
 BYTE   W12
 BYTE   Dn1
 BYTE   W12
 BYTE   N05  As1
 BYTE   N05  Cn1
 BYTE   W06
 BYTE   As1
 BYTE   N05  Cn1
 BYTE   W18
//  #08 //096   ----------------------------------------
Label_0100195C:
 BYTE   N11  As1  v108
 BYTE   N11  Cn1
 BYTE   W12
 BYTE   Cs2
 BYTE   N11  Dn1
 BYTE   W12
 BYTE   N05  Cn1
 BYTE   W06
 BYTE   Dn1
 BYTE   W06
 BYTE   N11  Cn1
 BYTE   W12
 BYTE   Cn1
 BYTE   W12
 BYTE   Cs2
 BYTE   N11  Dn1
 BYTE   W12
 BYTE   N05  As1
 BYTE   N05  Cn1
 BYTE   W06
 BYTE   As1
 BYTE   N05  Cn1
 BYTE   W18
 BYTE   PEND 
//  #08 //097   ----------------------------------------
 BYTE   PATT
  POIN2 Label_0100195C
//  #08 //098   ----------------------------------------
Label_01001983:
 BYTE   N11  As1  v108
 BYTE   N11  Cn1
 BYTE   W12
 BYTE   Cs2
 BYTE   N11  Dn1
 BYTE   W12
 BYTE   N05  Cn1
 BYTE   W06
 BYTE   Dn1
 BYTE   W06
 BYTE   N17  Cs2
 BYTE   N17  En1
 BYTE   N17  Dn1
 BYTE   W18
 BYTE   Cs2
 BYTE   N17  En1
 BYTE   N17  Dn1
 BYTE   W18
 BYTE   N23  Cs2
 BYTE   N23  En1
 BYTE   N23  Dn1
 BYTE   W24
 BYTE   PEND 
//  #08 //099   ----------------------------------------
 BYTE   N11  Cn1  v108
 BYTE   W12
 BYTE   Cs2
 BYTE   N11  Dn1
 BYTE   W12
 BYTE   N05
 BYTE   W06
 BYTE   Dn1
 BYTE   W06
 BYTE   N11  Cn1
 BYTE   W12
 BYTE   Cn1
 BYTE   W12
 BYTE   Cs2
 BYTE   N11  Dn1
 BYTE   W12
 BYTE   N05  As1
 BYTE   N05  Cn1
 BYTE   W06
 BYTE   As1
 BYTE   N05  Cn1
 BYTE   W18
//  #08 //100   ----------------------------------------
 BYTE   PATT
  POIN2 Label_0100195C
//  #08 //101   ----------------------------------------
 BYTE   PATT
  POIN2 Label_0100195C
//  #08 //102   ----------------------------------------
 BYTE   PATT
  POIN2 Label_01001983
//  #08 //103   ----------------------------------------
 BYTE   N11  Cn1  v108
 BYTE   W12
 BYTE   Dn1
 BYTE   W12
 BYTE   N05
 BYTE   W06
 BYTE   N06  Dn1  v064
 BYTE   W06
 BYTE   GoTo
  POIN2 Label_010011B0
 BYTE   FINE

//******************************************************//
	ALIGN 4

PyramidCaveSA2B:
	BYTE	8	// NumTrks
	BYTE	0	// NumBlks
	BYTE	PyramidCaveSA2B_pri	// Priority
	BYTE	PyramidCaveSA2B_rev	// Reverb.
    
	POIN2	PyramidCaveSA2B_grp
    
	POIN2	PyramidCaveSA2B_001
	POIN2	PyramidCaveSA2B_002
	POIN2	PyramidCaveSA2B_003
	POIN2	PyramidCaveSA2B_004
	POIN2	PyramidCaveSA2B_005
	POIN2	PyramidCaveSA2B_006
	POIN2	PyramidCaveSA2B_007
	POIN2	PyramidCaveSA2B_008

	
