	.include "MPlayDef.s"

	.equ	Rave_grp, voicegroup000
	.equ	Rave_pri, 0
	.equ	Rave_rev, 0
	.equ	Rave_mvl, 127
	.equ	Rave_key, 0
	.equ	Rave_tbs, 1
	.equ	Rave_exg, 0
	.equ	Rave_cmp, 1

	.section .rodata
	.global	Rave
	.align	2


@**************** Track 1 (Midi-Chn.0) ****************@

Rave_001:
@  #01 @000   ----------------------------------------
 .byte   KEYSH , Rave_key+0
Label_0117EB86:
 .byte   TEMPO , 120*Rave_tbs/2
 .byte   VOICE , 81
 .byte   PAN , c_v+0
 .byte   VOL , 50*Rave_mvl/mxv
 .byte   PAN , c_v+0
 .byte   BEND , c_v+0
 .byte   N13 ,Cn3 ,v127
 .byte   N11 ,Fn3
 .byte   W18
 .byte   N11
 .byte   N10 ,Cn4
 .byte   W18
 .byte   N12 ,Fn3
 .byte   N13 ,As3
 .byte   W18
 .byte   N11 ,Fn3
 .byte   N10 ,Gs3
 .byte   W18
 .byte   N08 ,Fn3
 .byte   N09 ,As3
 .byte   W12
 .byte   N11 ,Fn3
 .byte   N10 ,Cn4
 .byte   W12
@  #01 @001   ----------------------------------------
Label_0117EBB0:
 .byte   N12 ,Cn3 ,v127
 .byte   N11 ,Fn3
 .byte   W18
 .byte   N10
 .byte   N09 ,Cn4
 .byte   W18
 .byte   N11 ,Fn3
 .byte   N10 ,As3
 .byte   W18
 .byte   Fn3
 .byte   N10 ,Gs3
 .byte   W18
 .byte   N09 ,Fn3
 .byte   N08 ,As3
 .byte   W12
 .byte   N10 ,Fn3
 .byte   N07 ,Gs3
 .byte   W12
 .byte   PEND 
@  #01 @002   ----------------------------------------
Label_0117EBCE:
 .byte   N12 ,Cn3 ,v127
 .byte   N10 ,Fn3
 .byte   W18
 .byte   N10
 .byte   N10 ,Cn4
 .byte   W18
 .byte   N11 ,Fn3
 .byte   N12 ,As3
 .byte   W18
 .byte   N09 ,Fn3
 .byte   N09 ,Gs3
 .byte   W18
 .byte   N08 ,Fn3
 .byte   N10 ,As3
 .byte   W12
 .byte   N07 ,Fn3
 .byte   N07 ,Cn4
 .byte   W12
 .byte   PEND 
@  #01 @003   ----------------------------------------
Label_0117EBED:
 .byte   N10 ,Fn3 ,v127
 .byte   N10 ,Cn4
 .byte   W18
 .byte   N09 ,Fn3
 .byte   N09 ,As3
 .byte   W18
 .byte   N06 ,Fn3
 .byte   N07 ,Gs3
 .byte   W12
 .byte   N09 ,Fn3
 .byte   N09 ,As3
 .byte   W18
 .byte   Fn3
 .byte   N08 ,Gs3
 .byte   W18
 .byte   N09 ,As2
 .byte   N08 ,Ds3
 .byte   W12
 .byte   PEND 
@  #01 @004   ----------------------------------------
Label_0117EC0C:
 .byte   N13 ,Cn3 ,v127
 .byte   N10 ,Fn3
 .byte   W18
 .byte   N11
 .byte   N09 ,Cn4
 .byte   W18
 .byte   N12 ,Fn3
 .byte   N14 ,As3
 .byte   W18
 .byte   N11 ,Fn3
 .byte   N09 ,Gs3
 .byte   W18
 .byte   N08 ,Fn3
 .byte   N09 ,As3
 .byte   W12
 .byte   N11 ,Fn3
 .byte   N09 ,Cn4
 .byte   W12
 .byte   PEND 
@  #01 @005   ----------------------------------------
 .byte   N12 ,Cn3
 .byte   N11 ,Fn3
 .byte   W18
 .byte   N10
 .byte   N11 ,Cn4
 .byte   W18
 .byte   Fn3
 .byte   N15 ,As3
 .byte   W24
 .byte   N10 ,Fn3
 .byte   N09 ,Gs3
 .byte   W12
 .byte   Fn3
 .byte   N09 ,As3
 .byte   W12
 .byte   N10 ,Fn3
 .byte   N07 ,Gs3
 .byte   W12
@  #01 @006   ----------------------------------------
Label_0117EC46:
 .byte   N12 ,Cn3 ,v127
 .byte   N11 ,Fn3
 .byte   W18
 .byte   N10
 .byte   N09 ,Cn4
 .byte   W18
 .byte   N11 ,Fn3
 .byte   N13 ,As3
 .byte   W18
 .byte   N09 ,Fn3
 .byte   N10 ,Gs3
 .byte   W18
 .byte   N08 ,Fn3
 .byte   N10 ,As3
 .byte   W12
 .byte   N07 ,Fn3
 .byte   N08 ,Cn4
 .byte   W12
 .byte   PEND 
@  #01 @007   ----------------------------------------
Label_0117EC65:
 .byte   N10 ,Fn3 ,v127
 .byte   N12 ,Cn4
 .byte   W18
 .byte   N09 ,Fn3
 .byte   N08 ,As3
 .byte   W18
 .byte   N06 ,Fn3
 .byte   N09 ,Gs3
 .byte   W12
 .byte   Fn3
 .byte   N09 ,As3
 .byte   W18
 .byte   Fn3
 .byte   N08 ,Gs3
 .byte   W18
 .byte   N09 ,As2
 .byte   N09 ,Ds3
 .byte   W12
 .byte   PEND 
@  #01 @008   ----------------------------------------
Label_0117EC83:
 .byte   N13 ,Cn3 ,v127
 .byte   N11 ,Fn3
 .byte   W18
 .byte   N11
 .byte   N10 ,Cn4
 .byte   W18
 .byte   N12 ,Fn3
 .byte   N13 ,As3
 .byte   W18
 .byte   N11 ,Fn3
 .byte   N10 ,Gs3
 .byte   W18
 .byte   N08 ,Fn3
 .byte   N09 ,As3
 .byte   W12
 .byte   N11 ,Fn3
 .byte   N10 ,Cn4
 .byte   W12
 .byte   PEND 
@  #01 @009   ----------------------------------------
 .byte   PATT
  .word Label_0117EBB0
@  #01 @010   ----------------------------------------
 .byte   PATT
  .word Label_0117EBCE
@  #01 @011   ----------------------------------------
 .byte   PATT
  .word Label_0117EBED
@  #01 @012   ----------------------------------------
 .byte   PATT
  .word Label_0117EC0C
@  #01 @013   ----------------------------------------
 .byte   N12 ,Cn3 ,v127
 .byte   N11 ,Fn3
 .byte   W18
 .byte   N10
 .byte   N11 ,Cn4
 .byte   W18
 .byte   Fn3
 .byte   N15 ,As3
 .byte   W18
 .byte   N10 ,Fn3
 .byte   W06
 .byte   N09 ,Gs3
 .byte   W12
 .byte   Fn3
 .byte   N09 ,As3
 .byte   W12
 .byte   N10 ,Fn3
 .byte   N07 ,Gs3
 .byte   W12
@  #01 @014   ----------------------------------------
 .byte   PATT
  .word Label_0117EC46
@  #01 @015   ----------------------------------------
 .byte   PATT
  .word Label_0117EC65
@  #01 @016   ----------------------------------------
 .byte   N12 ,Cn3 ,v104
 .byte   N11 ,Fn3
 .byte   W18
 .byte   N09 ,As2
 .byte   N09 ,Ds3
 .byte   W18
 .byte   N17 ,Cn3
 .byte   N12 ,Fn3
 .byte   W24
 .byte   N08 ,As2
 .byte   N09 ,Ds3
 .byte   W12
 .byte   N11 ,Cn3
 .byte   N10 ,Fn3
 .byte   W12
 .byte   N07 ,As2
 .byte   N06 ,Ds3
 .byte   W12
@  #01 @017   ----------------------------------------
Label_0117ECFC:
 .byte   N12 ,Cn3 ,v104
 .byte   N11 ,Fn3
 .byte   W18
 .byte   N09 ,As2
 .byte   N09 ,Ds3
 .byte   W18
 .byte   N18 ,Cn3
 .byte   N13 ,Fn3
 .byte   W24
 .byte   N06 ,As2
 .byte   N09 ,Ds3
 .byte   W12
 .byte   N10 ,Cn3
 .byte   N10 ,Fn3
 .byte   W12
 .byte   N07 ,As2
 .byte   N08 ,Ds3
 .byte   W12
 .byte   PEND 
@  #01 @018   ----------------------------------------
 .byte   PATT
  .word Label_0117ECFC
@  #01 @019   ----------------------------------------
 .byte   PATT
  .word Label_0117ECFC
@  #01 @020   ----------------------------------------
 .byte   W96
@  #01 @021   ----------------------------------------
 .byte   W96
@  #01 @022   ----------------------------------------
 .byte   W96
@  #01 @023   ----------------------------------------
 .byte   W96
@  #01 @024   ----------------------------------------
 .byte   W96
@  #01 @025   ----------------------------------------
 .byte   W96
@  #01 @026   ----------------------------------------
 .byte   W96
@  #01 @027   ----------------------------------------
 .byte   W96
@  #01 @028   ----------------------------------------
 .byte   W96
@  #01 @029   ----------------------------------------
 .byte   W96
@  #01 @030   ----------------------------------------
 .byte   W96
@  #01 @031   ----------------------------------------
 .byte   W96
@  #01 @032   ----------------------------------------
 .byte   W96
@  #01 @033   ----------------------------------------
 .byte   W96
@  #01 @034   ----------------------------------------
 .byte   W96
@  #01 @035   ----------------------------------------
 .byte   W96
@  #01 @036   ----------------------------------------
 .byte   PATT
  .word Label_0117EC83
@  #01 @037   ----------------------------------------
 .byte   PATT
  .word Label_0117EBB0
@  #01 @038   ----------------------------------------
 .byte   PATT
  .word Label_0117EBCE
@  #01 @039   ----------------------------------------
 .byte   PATT
  .word Label_0117EBED
@  #01 @040   ----------------------------------------
 .byte   PATT
  .word Label_0117EC83
@  #01 @041   ----------------------------------------
 .byte   PATT
  .word Label_0117EBB0
@  #01 @042   ----------------------------------------
 .byte   PATT
  .word Label_0117EBCE
@  #01 @043   ----------------------------------------
 .byte   PATT
  .word Label_0117EBED
@  #01 @044   ----------------------------------------
 .byte   W96
@  #01 @045   ----------------------------------------
 .byte   W96
@  #01 @046   ----------------------------------------
 .byte   W96
@  #01 @047   ----------------------------------------
 .byte   W96
@  #01 @048   ----------------------------------------
 .byte   W96
@  #01 @049   ----------------------------------------
 .byte   W96
@  #01 @050   ----------------------------------------
 .byte   W96
@  #01 @051   ----------------------------------------
 .byte   W96
@  #01 @052   ----------------------------------------
 .byte   W96
@  #01 @053   ----------------------------------------
 .byte   W96
@  #01 @054   ----------------------------------------
 .byte   W96
@  #01 @055   ----------------------------------------
 .byte   W96
@  #01 @056   ----------------------------------------
 .byte   W96
@  #01 @057   ----------------------------------------
 .byte   W96
@  #01 @058   ----------------------------------------
 .byte   W96
@  #01 @059   ----------------------------------------
 .byte   W96
@  #01 @060   ----------------------------------------
 .byte   W96
@  #01 @061   ----------------------------------------
 .byte   W96
@  #01 @062   ----------------------------------------
 .byte   W96
@  #01 @063   ----------------------------------------
 .byte   W96
@  #01 @064   ----------------------------------------
 .byte   W96
@  #01 @065   ----------------------------------------
 .byte   W96
@  #01 @066   ----------------------------------------
 .byte   W96
@  #01 @067   ----------------------------------------
 .byte   W96
@  #01 @068   ----------------------------------------
 .byte   W96
@  #01 @069   ----------------------------------------
 .byte   W96
@  #01 @070   ----------------------------------------
 .byte   W96
@  #01 @071   ----------------------------------------
 .byte   W96
@  #01 @072   ----------------------------------------
 .byte   W96
@  #01 @073   ----------------------------------------
 .byte   W96
@  #01 @074   ----------------------------------------
 .byte   W96
@  #01 @075   ----------------------------------------
 .byte   W96
@  #01 @076   ----------------------------------------
 .byte   PATT
  .word Label_0117EC83
@  #01 @077   ----------------------------------------
 .byte   PATT
  .word Label_0117EBB0
@  #01 @078   ----------------------------------------
 .byte   PATT
  .word Label_0117EBCE
@  #01 @079   ----------------------------------------
 .byte   PATT
  .word Label_0117EBED
@  #01 @080   ----------------------------------------
 .byte   PATT
  .word Label_0117EC83
@  #01 @081   ----------------------------------------
 .byte   PATT
  .word Label_0117EBB0
@  #01 @082   ----------------------------------------
 .byte   PATT
  .word Label_0117EBCE
@  #01 @083   ----------------------------------------
 .byte   N10 ,Fn3 ,v127
 .byte   N10 ,Cn4
 .byte   W18
 .byte   N09 ,Fn3
 .byte   N09 ,As3
 .byte   W18
 .byte   N06 ,Fn3
 .byte   N07 ,Gs3
 .byte   W12
 .byte   N09 ,Fn3
 .byte   N09 ,As3
 .byte   W18
 .byte   Fn3
 .byte   N08 ,Gs3
 .byte   W18
 .byte   N09 ,As2
 .byte   N08 ,Ds3
 .byte   W12
@  #01 @084   ----------------------------------------
 .byte   W88
 .byte   W01
 .byte   GOTO
  .word Label_0117EB86
 .byte   FINE

@**************** Track 2 (Midi-Chn.1) ****************@

Rave_002:
@  #02 @000   ----------------------------------------
 .byte   KEYSH , Rave_key+0
Label_0117EDCA:
 .byte   VOICE , 90
 .byte   PAN , c_v+0
 .byte   VOL , 41*Rave_mvl/mxv
 .byte   PAN , c_v+0
 .byte   BEND , c_v+0
 .byte   N84 ,Fn1 ,v127
 .byte   N92 ,Fn2
 .byte   W96
@  #02 @001   ----------------------------------------
 .byte   Gs1
 .byte   N92 ,Gs2
 .byte   W96
@  #02 @002   ----------------------------------------
Label_0117EDDE:
 .byte   N96 ,As1 ,v127
 .byte   N92 ,As2
 .byte   W96
 .byte   PEND 
@  #02 @003   ----------------------------------------
Label_0117EDE5:
 .byte   N36 ,Cn2 ,v127
 .byte   N36 ,Cn3
 .byte   W36
 .byte   N32 ,Cs2
 .byte   W01
 .byte   Cs3
 .byte   W32
 .byte   W03
 .byte   N19 ,Ds2
 .byte   W01
 .byte   N22 ,Ds3
 .byte   W23
 .byte   PEND 
@  #02 @004   ----------------------------------------
 .byte   TIE ,Fn1
 .byte   TIE ,Fn2
 .byte   W96
@  #02 @005   ----------------------------------------
 .byte   W01
 .byte   EOT
 .byte   N92 ,Gs1
 .byte   N92 ,Gs2
 .byte   W01
 .byte   EOT
 .byte   Fn1
 .byte   W92
 .byte   TIE ,As1
 .byte   W01
 .byte   N92 ,As2
 .byte   W01
@  #02 @006   ----------------------------------------
 .byte   W96
@  #02 @007   ----------------------------------------
 .byte   N36 ,Cn3
 .byte   W01
 .byte   EOT
 .byte   As1
 .byte   N36 ,Cn2
 .byte   W36
 .byte   N32 ,Cs2
 .byte   W01
 .byte   Cs3
 .byte   W32
 .byte   W03
 .byte   N19 ,Ds2
 .byte   N18 ,Ds3
 .byte   W23
@  #02 @008   ----------------------------------------
 .byte   N92 ,Fn1
 .byte   N92 ,Fn2
 .byte   W96
@  #02 @009   ----------------------------------------
 .byte   Gs1
 .byte   N92 ,Gs2
 .byte   W96
@  #02 @010   ----------------------------------------
 .byte   PATT
  .word Label_0117EDDE
@  #02 @011   ----------------------------------------
 .byte   PATT
  .word Label_0117EDE5
@  #02 @012   ----------------------------------------
 .byte   N92 ,Fn1 ,v127
 .byte   N92 ,Fn2
 .byte   W96
@  #02 @013   ----------------------------------------
 .byte   Gs1
 .byte   N92 ,Gs2
 .byte   W96
@  #02 @014   ----------------------------------------
 .byte   PATT
  .word Label_0117EDDE
@  #02 @015   ----------------------------------------
 .byte   PATT
  .word Label_0117EDE5
@  #02 @016   ----------------------------------------
 .byte   W01
 .byte   TIE ,Fn3 ,v092
 .byte   W01
 .byte   Fn2
 .byte   W92
 .byte   W02
@  #02 @017   ----------------------------------------
 .byte   W90
 .byte   EOT
 .byte   Fn3
 .byte   W01
 .byte   Fn2
 .byte   W05
@  #02 @018   ----------------------------------------
 .byte   W96
@  #02 @019   ----------------------------------------
 .byte   W96
@  #02 @020   ----------------------------------------
 .byte   W96
@  #02 @021   ----------------------------------------
 .byte   W96
@  #02 @022   ----------------------------------------
 .byte   W96
@  #02 @023   ----------------------------------------
 .byte   W96
@  #02 @024   ----------------------------------------
 .byte   W96
@  #02 @025   ----------------------------------------
 .byte   W96
@  #02 @026   ----------------------------------------
 .byte   W96
@  #02 @027   ----------------------------------------
 .byte   W96
@  #02 @028   ----------------------------------------
 .byte   W96
@  #02 @029   ----------------------------------------
 .byte   W96
@  #02 @030   ----------------------------------------
 .byte   W96
@  #02 @031   ----------------------------------------
 .byte   W96
@  #02 @032   ----------------------------------------
 .byte   W96
@  #02 @033   ----------------------------------------
 .byte   W96
@  #02 @034   ----------------------------------------
 .byte   W96
@  #02 @035   ----------------------------------------
 .byte   W96
@  #02 @036   ----------------------------------------
 .byte   W96
@  #02 @037   ----------------------------------------
 .byte   W96
@  #02 @038   ----------------------------------------
 .byte   W96
@  #02 @039   ----------------------------------------
 .byte   W96
@  #02 @040   ----------------------------------------
 .byte   W96
@  #02 @041   ----------------------------------------
 .byte   W96
@  #02 @042   ----------------------------------------
 .byte   W96
@  #02 @043   ----------------------------------------
 .byte   W96
@  #02 @044   ----------------------------------------
 .byte   W96
@  #02 @045   ----------------------------------------
 .byte   W96
@  #02 @046   ----------------------------------------
 .byte   W96
@  #02 @047   ----------------------------------------
 .byte   W96
@  #02 @048   ----------------------------------------
 .byte   W96
@  #02 @049   ----------------------------------------
 .byte   W96
@  #02 @050   ----------------------------------------
 .byte   W96
@  #02 @051   ----------------------------------------
 .byte   W96
@  #02 @052   ----------------------------------------
 .byte   W96
@  #02 @053   ----------------------------------------
 .byte   W96
@  #02 @054   ----------------------------------------
 .byte   W96
@  #02 @055   ----------------------------------------
 .byte   W96
@  #02 @056   ----------------------------------------
 .byte   W96
@  #02 @057   ----------------------------------------
 .byte   W96
@  #02 @058   ----------------------------------------
 .byte   W96
@  #02 @059   ----------------------------------------
 .byte   W96
@  #02 @060   ----------------------------------------
 .byte   W96
@  #02 @061   ----------------------------------------
 .byte   W96
@  #02 @062   ----------------------------------------
 .byte   W96
@  #02 @063   ----------------------------------------
 .byte   W96
@  #02 @064   ----------------------------------------
 .byte   W96
@  #02 @065   ----------------------------------------
 .byte   W96
@  #02 @066   ----------------------------------------
 .byte   W96
@  #02 @067   ----------------------------------------
 .byte   W96
@  #02 @068   ----------------------------------------
 .byte   W96
@  #02 @069   ----------------------------------------
 .byte   W96
@  #02 @070   ----------------------------------------
 .byte   W96
@  #02 @071   ----------------------------------------
 .byte   W96
@  #02 @072   ----------------------------------------
 .byte   W96
@  #02 @073   ----------------------------------------
 .byte   W96
@  #02 @074   ----------------------------------------
 .byte   W96
@  #02 @075   ----------------------------------------
 .byte   W96
@  #02 @076   ----------------------------------------
 .byte   W96
@  #02 @077   ----------------------------------------
 .byte   W96
@  #02 @078   ----------------------------------------
 .byte   W96
@  #02 @079   ----------------------------------------
 .byte   W96
@  #02 @080   ----------------------------------------
 .byte   W96
@  #02 @081   ----------------------------------------
 .byte   W96
@  #02 @082   ----------------------------------------
 .byte   W96
@  #02 @083   ----------------------------------------
 .byte   W96
@  #02 @084   ----------------------------------------
 .byte   W88
 .byte   W01
 .byte   GOTO
  .word Label_0117EDCA
 .byte   FINE

@**************** Track 3 (Midi-Chn.2) ****************@

Rave_003:
@  #03 @000   ----------------------------------------
 .byte   KEYSH , Rave_key+0
Label_0117EEA2:
 .byte   VOICE , 38
 .byte   PAN , c_v+0
 .byte   VOL , 38*Rave_mvl/mxv
 .byte   PAN , c_v+0
 .byte   BEND , c_v+0
 .byte   W96
@  #03 @001   ----------------------------------------
 .byte   W96
@  #03 @002   ----------------------------------------
 .byte   W96
@  #03 @003   ----------------------------------------
 .byte   W96
@  #03 @004   ----------------------------------------
 .byte   W96
@  #03 @005   ----------------------------------------
 .byte   W96
@  #03 @006   ----------------------------------------
 .byte   W96
@  #03 @007   ----------------------------------------
Label_0117EEB3:
 .byte   N03 ,Fn0 ,v112
 .byte   W06
 .byte   Fn0 ,v127
 .byte   W06
 .byte   N03
 .byte   W06
 .byte   N03
 .byte   W06
 .byte   Fn0 ,v104
 .byte   W06
 .byte   Fn0 ,v127
 .byte   W06
 .byte   N03
 .byte   W06
 .byte   N03
 .byte   W06
 .byte   N04
 .byte   W06
 .byte   N04
 .byte   W06
 .byte   N04
 .byte   W06
 .byte   N03
 .byte   W06
 .byte   Fn0 ,v120
 .byte   W06
 .byte   N02 ,Fn0 ,v127
 .byte   W06
 .byte   N04
 .byte   W06
 .byte   N03 ,Fn0 ,v116
 .byte   W06
 .byte   PEND 
@  #03 @008   ----------------------------------------
Label_0117EEDE:
 .byte   N03 ,Gs0 ,v127
 .byte   W06
 .byte   Gs0 ,v124
 .byte   W06
 .byte   Gs0 ,v127
 .byte   W06
 .byte   N03
 .byte   W06
 .byte   N03
 .byte   W06
 .byte   N03
 .byte   W06
 .byte   N03
 .byte   W06
 .byte   N03
 .byte   W06
 .byte   N04
 .byte   W06
 .byte   N04
 .byte   W06
 .byte   N04
 .byte   W06
 .byte   N03
 .byte   W06
 .byte   N03
 .byte   W06
 .byte   N02
 .byte   W06
 .byte   N04 ,Gs0 ,v104
 .byte   W06
 .byte   N03 ,Gs0 ,v112
 .byte   W06
 .byte   PEND 
@  #03 @009   ----------------------------------------
Label_0117EF07:
 .byte   N03 ,As0 ,v127
 .byte   W06
 .byte   N03
 .byte   W06
 .byte   As0 ,v120
 .byte   W06
 .byte   As0 ,v116
 .byte   W06
 .byte   As0 ,v127
 .byte   W06
 .byte   N03
 .byte   W06
 .byte   N03
 .byte   W06
 .byte   N03
 .byte   W06
 .byte   N04 ,As0 ,v112
 .byte   W06
 .byte   As0 ,v127
 .byte   W06
 .byte   As0 ,v108
 .byte   W06
 .byte   N03 ,As0 ,v127
 .byte   W06
 .byte   As0 ,v112
 .byte   W06
 .byte   N02 ,As0 ,v127
 .byte   W06
 .byte   N04
 .byte   W06
 .byte   N03
 .byte   W06
 .byte   PEND 
@  #03 @010   ----------------------------------------
Label_0117EF36:
 .byte   N03 ,Cn1 ,v127
 .byte   W06
 .byte   N03
 .byte   W06
 .byte   Cn1 ,v104
 .byte   W06
 .byte   Cn1 ,v108
 .byte   W06
 .byte   Cn1 ,v120
 .byte   W06
 .byte   N03
 .byte   W06
 .byte   Cn1 ,v127
 .byte   W06
 .byte   Cs1 ,v120
 .byte   W06
 .byte   N04 ,Cs1 ,v127
 .byte   W06
 .byte   N04
 .byte   W06
 .byte   Cs1 ,v124
 .byte   W06
 .byte   N03 ,Cs1 ,v127
 .byte   W06
 .byte   Ds1 ,v112
 .byte   W06
 .byte   N02 ,Ds1 ,v127
 .byte   W06
 .byte   N04
 .byte   W06
 .byte   N03
 .byte   W06
 .byte   PEND 
@  #03 @011   ----------------------------------------
 .byte   PATT
  .word Label_0117EEB3
@  #03 @012   ----------------------------------------
 .byte   PATT
  .word Label_0117EEDE
@  #03 @013   ----------------------------------------
 .byte   PATT
  .word Label_0117EF07
@  #03 @014   ----------------------------------------
 .byte   PATT
  .word Label_0117EF36
@  #03 @015   ----------------------------------------
 .byte   N03 ,Fn0 ,v127
 .byte   W06
 .byte   N03
 .byte   W06
 .byte   N03
 .byte   W06
 .byte   Fn0 ,v100
 .byte   W06
 .byte   Fn0 ,v127
 .byte   W06
 .byte   N03
 .byte   W06
 .byte   N03
 .byte   W06
 .byte   Fn0 ,v104
 .byte   W06
 .byte   N04 ,Fn0 ,v127
 .byte   W06
 .byte   N04
 .byte   W06
 .byte   N04
 .byte   W06
 .byte   N03 ,Fn0 ,v124
 .byte   W06
 .byte   Fn0 ,v127
 .byte   W06
 .byte   N02 ,Fn0 ,v124
 .byte   W06
 .byte   N04 ,Fn0 ,v127
 .byte   W06
 .byte   N03
 .byte   W06
@  #03 @016   ----------------------------------------
 .byte   N03
 .byte   W06
 .byte   N03
 .byte   W06
 .byte   N03
 .byte   W06
 .byte   N03
 .byte   W06
 .byte   Fn0 ,v124
 .byte   W06
 .byte   Fn0 ,v108
 .byte   W06
 .byte   Fn0 ,v127
 .byte   W06
 .byte   Fn0 ,v124
 .byte   W06
 .byte   N04 ,Fn0 ,v100
 .byte   W06
 .byte   Fn0 ,v120
 .byte   W06
 .byte   Fn0 ,v127
 .byte   W06
 .byte   N03 ,Fn0 ,v100
 .byte   W06
 .byte   Fn0 ,v127
 .byte   W06
 .byte   N02
 .byte   W06
 .byte   N04
 .byte   W06
 .byte   N03 ,Fn0 ,v124
 .byte   W06
@  #03 @017   ----------------------------------------
 .byte   W96
@  #03 @018   ----------------------------------------
 .byte   W96
@  #03 @019   ----------------------------------------
Label_0117EFD7:
 .byte   N03 ,Fn1 ,v108
 .byte   W06
 .byte   N03
 .byte   W06
 .byte   N02
 .byte   W06
 .byte   N03
 .byte   W06
 .byte   N03
 .byte   W06
 .byte   N03
 .byte   W06
 .byte   Ds1
 .byte   W06
 .byte   N05 ,Fn1
 .byte   W54
 .byte   PEND 
@  #03 @020   ----------------------------------------
Label_0117EFEB:
 .byte   N03 ,Fn1 ,v108
 .byte   W06
 .byte   N03
 .byte   W06
 .byte   N02
 .byte   W06
 .byte   N03
 .byte   W06
 .byte   N03
 .byte   W06
 .byte   N03
 .byte   W06
 .byte   Ds1
 .byte   W06
 .byte   N04 ,Fn1
 .byte   W54
 .byte   PEND 
@  #03 @021   ----------------------------------------
Label_0117EFFF:
 .byte   N02 ,Ds1 ,v108
 .byte   W06
 .byte   N02
 .byte   W06
 .byte   N03
 .byte   W06
 .byte   N02
 .byte   W06
 .byte   N03
 .byte   W06
 .byte   N03
 .byte   W06
 .byte   Cs1
 .byte   W06
 .byte   Ds1
 .byte   W54
 .byte   PEND 
@  #03 @022   ----------------------------------------
Label_0117F012:
 .byte   N02 ,Ds1 ,v108
 .byte   W06
 .byte   N02
 .byte   W06
 .byte   N03
 .byte   W06
 .byte   N03
 .byte   W06
 .byte   N04
 .byte   W06
 .byte   N02
 .byte   W06
 .byte   N04 ,Cs1
 .byte   W06
 .byte   N03 ,Ds1
 .byte   W54
 .byte   PEND 
@  #03 @023   ----------------------------------------
Label_0117F027:
 .byte   N03 ,Cs1 ,v108
 .byte   W06
 .byte   N02
 .byte   W06
 .byte   N03
 .byte   W06
 .byte   N02
 .byte   W06
 .byte   N03
 .byte   W06
 .byte   N02
 .byte   W06
 .byte   N03 ,Cn1
 .byte   W06
 .byte   Cs1
 .byte   W54
 .byte   PEND 
@  #03 @024   ----------------------------------------
Label_0117F03B:
 .byte   N03 ,Cs1 ,v108
 .byte   W06
 .byte   N03
 .byte   W06
 .byte   N03
 .byte   W06
 .byte   N03
 .byte   W06
 .byte   N04
 .byte   W06
 .byte   N03
 .byte   W06
 .byte   N04 ,Cn1
 .byte   W06
 .byte   N05 ,Cs1
 .byte   W54
 .byte   PEND 
@  #03 @025   ----------------------------------------
Label_0117F050:
 .byte   N03 ,Cn1 ,v108
 .byte   W06
 .byte   N04
 .byte   W06
 .byte   N04
 .byte   W06
 .byte   N03
 .byte   W06
 .byte   N04
 .byte   W06
 .byte   N03
 .byte   W06
 .byte   N04 ,As0
 .byte   W06
 .byte   N05 ,Cn1
 .byte   W54
 .byte   PEND 
@  #03 @026   ----------------------------------------
Label_0117F065:
 .byte   N03 ,Cn1 ,v120
 .byte   W06
 .byte   Cn1 ,v108
 .byte   W06
 .byte   N03
 .byte   W06
 .byte   N03
 .byte   W06
 .byte   N04
 .byte   W06
 .byte   N04
 .byte   W06
 .byte   N07
 .byte   W12
 .byte   N05
 .byte   W06
 .byte   N04
 .byte   W06
 .byte   N05
 .byte   W06
 .byte   N12 ,Cs1
 .byte   W12
 .byte   N02 ,Cs1 ,v124
 .byte   W06
 .byte   N10 ,Ds1 ,v092
 .byte   W12
 .byte   PEND 
@  #03 @027   ----------------------------------------
 .byte   PATT
  .word Label_0117EFD7
@  #03 @028   ----------------------------------------
 .byte   PATT
  .word Label_0117EFEB
@  #03 @029   ----------------------------------------
 .byte   PATT
  .word Label_0117EFFF
@  #03 @030   ----------------------------------------
 .byte   PATT
  .word Label_0117F012
@  #03 @031   ----------------------------------------
 .byte   PATT
  .word Label_0117F027
@  #03 @032   ----------------------------------------
 .byte   PATT
  .word Label_0117F03B
@  #03 @033   ----------------------------------------
 .byte   PATT
  .word Label_0117F050
@  #03 @034   ----------------------------------------
 .byte   PATT
  .word Label_0117F065
@  #03 @035   ----------------------------------------
 .byte   PATT
  .word Label_0117EEB3
@  #03 @036   ----------------------------------------
 .byte   PATT
  .word Label_0117EEDE
@  #03 @037   ----------------------------------------
 .byte   PATT
  .word Label_0117EF07
@  #03 @038   ----------------------------------------
 .byte   PATT
  .word Label_0117EF36
@  #03 @039   ----------------------------------------
 .byte   PATT
  .word Label_0117EEB3
@  #03 @040   ----------------------------------------
 .byte   PATT
  .word Label_0117EEDE
@  #03 @041   ----------------------------------------
 .byte   PATT
  .word Label_0117EF07
@  #03 @042   ----------------------------------------
 .byte   PATT
  .word Label_0117EF36
@  #03 @043   ----------------------------------------
 .byte   W96
@  #03 @044   ----------------------------------------
 .byte   W96
@  #03 @045   ----------------------------------------
 .byte   W96
@  #03 @046   ----------------------------------------
 .byte   W96
@  #03 @047   ----------------------------------------
 .byte   PATT
  .word Label_0117EEB3
@  #03 @048   ----------------------------------------
 .byte   PATT
  .word Label_0117EEDE
@  #03 @049   ----------------------------------------
 .byte   PATT
  .word Label_0117EF07
@  #03 @050   ----------------------------------------
 .byte   PATT
  .word Label_0117EF36
@  #03 @051   ----------------------------------------
 .byte   W96
@  #03 @052   ----------------------------------------
 .byte   W96
@  #03 @053   ----------------------------------------
 .byte   W96
@  #03 @054   ----------------------------------------
 .byte   W96
@  #03 @055   ----------------------------------------
 .byte   W96
@  #03 @056   ----------------------------------------
 .byte   W96
@  #03 @057   ----------------------------------------
 .byte   W96
@  #03 @058   ----------------------------------------
 .byte   W96
@  #03 @059   ----------------------------------------
 .byte   PATT
  .word Label_0117EFD7
@  #03 @060   ----------------------------------------
 .byte   PATT
  .word Label_0117EFEB
@  #03 @061   ----------------------------------------
 .byte   PATT
  .word Label_0117EFFF
@  #03 @062   ----------------------------------------
 .byte   PATT
  .word Label_0117F012
@  #03 @063   ----------------------------------------
 .byte   PATT
  .word Label_0117F027
@  #03 @064   ----------------------------------------
 .byte   PATT
  .word Label_0117F03B
@  #03 @065   ----------------------------------------
 .byte   PATT
  .word Label_0117F050
@  #03 @066   ----------------------------------------
 .byte   PATT
  .word Label_0117F065
@  #03 @067   ----------------------------------------
 .byte   PATT
  .word Label_0117EFD7
@  #03 @068   ----------------------------------------
 .byte   PATT
  .word Label_0117EFEB
@  #03 @069   ----------------------------------------
 .byte   PATT
  .word Label_0117EFFF
@  #03 @070   ----------------------------------------
 .byte   PATT
  .word Label_0117F012
@  #03 @071   ----------------------------------------
 .byte   PATT
  .word Label_0117F027
@  #03 @072   ----------------------------------------
 .byte   PATT
  .word Label_0117F03B
@  #03 @073   ----------------------------------------
 .byte   PATT
  .word Label_0117F050
@  #03 @074   ----------------------------------------
 .byte   PATT
  .word Label_0117F065
@  #03 @075   ----------------------------------------
 .byte   PATT
  .word Label_0117EEB3
@  #03 @076   ----------------------------------------
 .byte   PATT
  .word Label_0117EEDE
@  #03 @077   ----------------------------------------
 .byte   PATT
  .word Label_0117EF07
@  #03 @078   ----------------------------------------
 .byte   PATT
  .word Label_0117EF36
@  #03 @079   ----------------------------------------
 .byte   PATT
  .word Label_0117EEB3
@  #03 @080   ----------------------------------------
 .byte   PATT
  .word Label_0117EEDE
@  #03 @081   ----------------------------------------
 .byte   PATT
  .word Label_0117EF07
@  #03 @082   ----------------------------------------
 .byte   PATT
  .word Label_0117EF36
@  #03 @083   ----------------------------------------
 .byte   W96
@  #03 @084   ----------------------------------------
 .byte   W88
 .byte   W01
 .byte   GOTO
  .word Label_0117EEA2
 .byte   FINE

@**************** Track 4 (Midi-Chn.3) ****************@

Rave_004:
@  #04 @000   ----------------------------------------
 .byte   KEYSH , Rave_key+0
Label_0117F17E:
 .byte   VOICE , 50
 .byte   PAN , c_v+0
 .byte   VOL , 50*Rave_mvl/mxv
 .byte   PAN , c_v+0
 .byte   BEND , c_v+0
 .byte   W96
@  #04 @001   ----------------------------------------
 .byte   W96
@  #04 @002   ----------------------------------------
 .byte   W96
@  #04 @003   ----------------------------------------
 .byte   W96
@  #04 @004   ----------------------------------------
 .byte   W96
@  #04 @005   ----------------------------------------
 .byte   W96
@  #04 @006   ----------------------------------------
 .byte   W96
@  #04 @007   ----------------------------------------
 .byte   W96
@  #04 @008   ----------------------------------------
Label_0117F190:
 .byte   W01
 .byte   N92 ,Fn4 ,v092
 .byte   W92
 .byte   W02
 .byte   Ds4
 .byte   W01
 .byte   PEND 
@  #04 @009   ----------------------------------------
Label_0117F199:
 .byte   W92
 .byte   W03
 .byte   N92 ,As3 ,v092
 .byte   W01
 .byte   PEND 
@  #04 @010   ----------------------------------------
Label_0117F1A0:
 .byte   W92
 .byte   W02
 .byte   N36 ,Cn3 ,v092
 .byte   N36 ,Cn4
 .byte   W02
 .byte   PEND 
@  #04 @011   ----------------------------------------
Label_0117F1A9:
 .byte   W36
 .byte   W01
 .byte   N36 ,Cs3 ,v092
 .byte   N36 ,Cs4
 .byte   W32
 .byte   W03
 .byte   N22 ,Ds3
 .byte   N22 ,Ds4
 .byte   W24
 .byte   PEND 
@  #04 @012   ----------------------------------------
 .byte   PATT
  .word Label_0117F190
@  #04 @013   ----------------------------------------
 .byte   PATT
  .word Label_0117F199
@  #04 @014   ----------------------------------------
 .byte   PATT
  .word Label_0117F1A0
@  #04 @015   ----------------------------------------
 .byte   PATT
  .word Label_0117F1A9
@  #04 @016   ----------------------------------------
 .byte   W96
@  #04 @017   ----------------------------------------
 .byte   W96
@  #04 @018   ----------------------------------------
 .byte   W96
@  #04 @019   ----------------------------------------
 .byte   W96
@  #04 @020   ----------------------------------------
 .byte   W96
@  #04 @021   ----------------------------------------
 .byte   W96
@  #04 @022   ----------------------------------------
 .byte   W96
@  #04 @023   ----------------------------------------
 .byte   W96
@  #04 @024   ----------------------------------------
 .byte   W96
@  #04 @025   ----------------------------------------
 .byte   W96
@  #04 @026   ----------------------------------------
 .byte   W96
@  #04 @027   ----------------------------------------
 .byte   W96
@  #04 @028   ----------------------------------------
 .byte   W96
@  #04 @029   ----------------------------------------
 .byte   W96
@  #04 @030   ----------------------------------------
 .byte   W96
@  #04 @031   ----------------------------------------
 .byte   W96
@  #04 @032   ----------------------------------------
 .byte   W96
@  #04 @033   ----------------------------------------
 .byte   W96
@  #04 @034   ----------------------------------------
 .byte   W96
@  #04 @035   ----------------------------------------
 .byte   W96
@  #04 @036   ----------------------------------------
 .byte   W96
@  #04 @037   ----------------------------------------
 .byte   W96
@  #04 @038   ----------------------------------------
 .byte   W96
@  #04 @039   ----------------------------------------
 .byte   W96
@  #04 @040   ----------------------------------------
 .byte   W96
@  #04 @041   ----------------------------------------
 .byte   W96
@  #04 @042   ----------------------------------------
 .byte   W96
@  #04 @043   ----------------------------------------
 .byte   W96
@  #04 @044   ----------------------------------------
 .byte   PATT
  .word Label_0117F190
@  #04 @045   ----------------------------------------
 .byte   PATT
  .word Label_0117F199
@  #04 @046   ----------------------------------------
 .byte   PATT
  .word Label_0117F1A0
@  #04 @047   ----------------------------------------
 .byte   PATT
  .word Label_0117F1A9
@  #04 @048   ----------------------------------------
 .byte   PATT
  .word Label_0117F190
@  #04 @049   ----------------------------------------
 .byte   PATT
  .word Label_0117F199
@  #04 @050   ----------------------------------------
 .byte   PATT
  .word Label_0117F1A0
@  #04 @051   ----------------------------------------
 .byte   PATT
  .word Label_0117F1A9
@  #04 @052   ----------------------------------------
 .byte   W96
@  #04 @053   ----------------------------------------
 .byte   W96
@  #04 @054   ----------------------------------------
 .byte   W96
@  #04 @055   ----------------------------------------
 .byte   W96
@  #04 @056   ----------------------------------------
 .byte   W96
@  #04 @057   ----------------------------------------
 .byte   W96
@  #04 @058   ----------------------------------------
 .byte   W96
@  #04 @059   ----------------------------------------
 .byte   W96
@  #04 @060   ----------------------------------------
Label_0117F218:
 .byte   TIE ,Cn3 ,v100
 .byte   TIE ,Fn3
 .byte   TIE ,Gs3
 .byte   W96
 .byte   PEND 
@  #04 @061   ----------------------------------------
 .byte   W90
 .byte   EOT
 .byte   Cn3 ,v068
 .byte   W01
 .byte   Fn3
 .byte   W04
 .byte   N03 ,As2 ,v092
 .byte   TIE ,Ds3
 .byte   TIE ,Fs3
 .byte   W01
@  #04 @062   ----------------------------------------
Label_0117F230:
 .byte   W02
 .byte   N03 ,Gn3 ,v092
 .byte   W01
 .byte   Bn2
 .byte   W11
 .byte   TIE ,As2
 .byte   W80
 .byte   W02
 .byte   PEND 
@  #04 @063   ----------------------------------------
 .byte   W80
 .byte   W03
 .byte   EOT
 .byte   Ds3
 .byte   W04
 .byte   Fs3
 .byte   W01
 .byte   As2
 .byte   W04
 .byte   TIE ,Cs3
 .byte   TIE ,Fn3
 .byte   W01
 .byte   Gs2
 .byte   W03
@  #04 @064   ----------------------------------------
 .byte   W96
@  #04 @065   ----------------------------------------
 .byte   W88
 .byte   EOT
 .byte   Cs3
 .byte   W02
 .byte   Gs2
 .byte   W01
 .byte   Fn3
 .byte   W03
 .byte   TIE ,Cn3
 .byte   TIE ,En3
 .byte   W01
 .byte   Gn2
 .byte   W01
@  #04 @066   ----------------------------------------
 .byte   W96
@  #04 @067   ----------------------------------------
 .byte   W72
 .byte   W03
 .byte   EOT
 .byte   Cn3
 .byte   W01
 .byte   Gn2
 .byte   W01
 .byte   En3
 .byte   W19
@  #04 @068   ----------------------------------------
 .byte   PATT
  .word Label_0117F218
@  #04 @069   ----------------------------------------
 .byte   W90
 .byte   EOT
 .byte   Cn3 ,v068
 .byte   W01
 .byte   Fn3
 .byte   W04
 .byte   N03 ,As2 ,v092
 .byte   TIE ,Ds3
 .byte   TIE ,Fs3
 .byte   W01
@  #04 @070   ----------------------------------------
 .byte   PATT
  .word Label_0117F230
@  #04 @071   ----------------------------------------
 .byte   W80
 .byte   W03
 .byte   EOT
 .byte   Ds3
 .byte   W04
 .byte   Fs3
 .byte   W01
 .byte   As2
 .byte   W04
 .byte   TIE ,Cs3 ,v092
 .byte   TIE ,Fn3
 .byte   W01
 .byte   Gs2
 .byte   W03
@  #04 @072   ----------------------------------------
 .byte   W96
@  #04 @073   ----------------------------------------
 .byte   W88
 .byte   EOT
 .byte   Cs3
 .byte   W02
 .byte   Gs2
 .byte   W01
 .byte   Fn3
 .byte   W03
 .byte   TIE ,Cn3
 .byte   TIE ,En3
 .byte   W01
 .byte   Gn2
 .byte   W01
@  #04 @074   ----------------------------------------
 .byte   W96
@  #04 @075   ----------------------------------------
 .byte   W72
 .byte   W03
 .byte   EOT
 .byte   Cn3
 .byte   W01
 .byte   Gn2
 .byte   W01
 .byte   En3
 .byte   W19
@  #04 @076   ----------------------------------------
 .byte   PATT
  .word Label_0117F190
@  #04 @077   ----------------------------------------
 .byte   PATT
  .word Label_0117F199
@  #04 @078   ----------------------------------------
Label_0117F2B4:
 .byte   W92
 .byte   W02
 .byte   N36 ,Cn4 ,v092
 .byte   W02
 .byte   PEND 
@  #04 @079   ----------------------------------------
Label_0117F2BB:
 .byte   W36
 .byte   W01
 .byte   N36 ,Cs4 ,v092
 .byte   W32
 .byte   W03
 .byte   N22 ,Ds4
 .byte   W24
 .byte   PEND 
@  #04 @080   ----------------------------------------
 .byte   PATT
  .word Label_0117F190
@  #04 @081   ----------------------------------------
 .byte   PATT
  .word Label_0117F199
@  #04 @082   ----------------------------------------
 .byte   PATT
  .word Label_0117F2B4
@  #04 @083   ----------------------------------------
 .byte   PATT
  .word Label_0117F2BB
@  #04 @084   ----------------------------------------
 .byte   W88
 .byte   W01
 .byte   GOTO
  .word Label_0117F17E
 .byte   FINE

@**************** Track 5 (Midi-Chn.4) ****************@

Rave_005:
@  #05 @000   ----------------------------------------
 .byte   KEYSH , Rave_key+0
Label_0117F2E6:
 .byte   VOICE , 102
 .byte   PAN , c_v-16
 .byte   VOL , 50*Rave_mvl/mxv
 .byte   PAN , c_v+0
 .byte   BEND , c_v+0
 .byte   W96
@  #05 @001   ----------------------------------------
 .byte   W96
@  #05 @002   ----------------------------------------
 .byte   W96
@  #05 @003   ----------------------------------------
 .byte   W96
@  #05 @004   ----------------------------------------
 .byte   W96
@  #05 @005   ----------------------------------------
 .byte   W96
@  #05 @006   ----------------------------------------
 .byte   W96
@  #05 @007   ----------------------------------------
 .byte   W96
@  #05 @008   ----------------------------------------
 .byte   W96
@  #05 @009   ----------------------------------------
 .byte   W96
@  #05 @010   ----------------------------------------
 .byte   W96
@  #05 @011   ----------------------------------------
 .byte   W96
@  #05 @012   ----------------------------------------
 .byte   W96
@  #05 @013   ----------------------------------------
 .byte   W96
@  #05 @014   ----------------------------------------
 .byte   W96
@  #05 @015   ----------------------------------------
 .byte   W96
@  #05 @016   ----------------------------------------
 .byte   W96
@  #05 @017   ----------------------------------------
 .byte   W96
@  #05 @018   ----------------------------------------
 .byte   W96
@  #05 @019   ----------------------------------------
 .byte   W96
@  #05 @020   ----------------------------------------
Label_0117F304:
 .byte   N06 ,Fn3 ,v112
 .byte   W12
 .byte   Gn3
 .byte   W12
 .byte   Gs3
 .byte   W12
 .byte   Gn3
 .byte   W12
 .byte   As3
 .byte   W12
 .byte   Gs3
 .byte   W12
 .byte   N07 ,Gn3
 .byte   W12
 .byte   N06 ,Fn3
 .byte   W12
 .byte   PEND 
@  #05 @021   ----------------------------------------
Label_0117F319:
 .byte   N06 ,Fn3 ,v112
 .byte   W12
 .byte   N08 ,Gn3
 .byte   W12
 .byte   Gs3
 .byte   W12
 .byte   N06 ,Gn3
 .byte   W12
 .byte   As3
 .byte   W12
 .byte   Gs3
 .byte   W12
 .byte   N09 ,Gn3
 .byte   W12
 .byte   N04 ,Fn3
 .byte   W12
 .byte   PEND 
@  #05 @022   ----------------------------------------
Label_0117F330:
 .byte   N06 ,Ds3 ,v112
 .byte   W12
 .byte   N07 ,Fn3
 .byte   W12
 .byte   N06 ,Fs3
 .byte   W12
 .byte   Fn3
 .byte   W12
 .byte   Gs3
 .byte   W12
 .byte   Fs3
 .byte   W12
 .byte   Fn3
 .byte   W12
 .byte   Ds3
 .byte   W12
 .byte   PEND 
@  #05 @023   ----------------------------------------
Label_0117F345:
 .byte   N06 ,Ds3 ,v112
 .byte   W12
 .byte   N07 ,Fn3
 .byte   W12
 .byte   N05 ,Fs3
 .byte   W12
 .byte   N06 ,Fn3
 .byte   W12
 .byte   Gs3
 .byte   W12
 .byte   Fs3
 .byte   W12
 .byte   N07 ,Fn3
 .byte   W12
 .byte   N06 ,Ds3
 .byte   W12
 .byte   PEND 
@  #05 @024   ----------------------------------------
Label_0117F35D:
 .byte   N06 ,Gs3 ,v112
 .byte   W12
 .byte   Fs3
 .byte   W12
 .byte   N07 ,Fn3
 .byte   W12
 .byte   N06 ,Ds3
 .byte   W12
 .byte   Fs3
 .byte   W12
 .byte   N08 ,Fn3
 .byte   W12
 .byte   N07 ,Ds3
 .byte   W12
 .byte   N06 ,Cs3
 .byte   W12
 .byte   PEND 
@  #05 @025   ----------------------------------------
Label_0117F375:
 .byte   N05 ,Gs3 ,v112
 .byte   W12
 .byte   Fs3
 .byte   W12
 .byte   N07 ,Fn3
 .byte   W12
 .byte   Ds3
 .byte   W12
 .byte   N06 ,Fs3
 .byte   W12
 .byte   N08 ,Fn3
 .byte   W12
 .byte   N06 ,Ds3
 .byte   W12
 .byte   N05 ,Cs3
 .byte   W12
 .byte   PEND 
@  #05 @026   ----------------------------------------
Label_0117F38D:
 .byte   N06 ,Gn3 ,v112
 .byte   W12
 .byte   N07 ,Fn3
 .byte   W12
 .byte   N06 ,En3
 .byte   W12
 .byte   N07 ,Fn3
 .byte   W12
 .byte   En3
 .byte   W12
 .byte   Fn3
 .byte   W12
 .byte   N09 ,En3
 .byte   W12
 .byte   N07 ,Cn3
 .byte   W12
 .byte   PEND 
@  #05 @027   ----------------------------------------
Label_0117F3A5:
 .byte   N06 ,Gn3 ,v112
 .byte   W12
 .byte   Fn3
 .byte   W12
 .byte   N07 ,En3
 .byte   W12
 .byte   N06 ,Fn3
 .byte   W12
 .byte   N07 ,En3
 .byte   W48
 .byte   PEND 
@  #05 @028   ----------------------------------------
 .byte   PATT
  .word Label_0117F304
@  #05 @029   ----------------------------------------
 .byte   PATT
  .word Label_0117F319
@  #05 @030   ----------------------------------------
 .byte   PATT
  .word Label_0117F330
@  #05 @031   ----------------------------------------
 .byte   PATT
  .word Label_0117F345
@  #05 @032   ----------------------------------------
 .byte   PATT
  .word Label_0117F35D
@  #05 @033   ----------------------------------------
 .byte   PATT
  .word Label_0117F375
@  #05 @034   ----------------------------------------
 .byte   PATT
  .word Label_0117F38D
@  #05 @035   ----------------------------------------
 .byte   PATT
  .word Label_0117F3A5
@  #05 @036   ----------------------------------------
 .byte   W96
@  #05 @037   ----------------------------------------
 .byte   W96
@  #05 @038   ----------------------------------------
 .byte   W96
@  #05 @039   ----------------------------------------
 .byte   W96
@  #05 @040   ----------------------------------------
 .byte   W96
@  #05 @041   ----------------------------------------
 .byte   W96
@  #05 @042   ----------------------------------------
 .byte   W96
@  #05 @043   ----------------------------------------
 .byte   W96
@  #05 @044   ----------------------------------------
 .byte   W96
@  #05 @045   ----------------------------------------
 .byte   W96
@  #05 @046   ----------------------------------------
 .byte   W96
@  #05 @047   ----------------------------------------
 .byte   W96
@  #05 @048   ----------------------------------------
 .byte   W96
@  #05 @049   ----------------------------------------
 .byte   W96
@  #05 @050   ----------------------------------------
 .byte   W96
@  #05 @051   ----------------------------------------
 .byte   W96
@  #05 @052   ----------------------------------------
 .byte   W96
@  #05 @053   ----------------------------------------
 .byte   W96
@  #05 @054   ----------------------------------------
 .byte   W96
@  #05 @055   ----------------------------------------
 .byte   W96
@  #05 @056   ----------------------------------------
 .byte   W96
@  #05 @057   ----------------------------------------
 .byte   W96
@  #05 @058   ----------------------------------------
 .byte   W96
@  #05 @059   ----------------------------------------
 .byte   W96
@  #05 @060   ----------------------------------------
 .byte   PATT
  .word Label_0117F304
@  #05 @061   ----------------------------------------
 .byte   PATT
  .word Label_0117F319
@  #05 @062   ----------------------------------------
 .byte   PATT
  .word Label_0117F330
@  #05 @063   ----------------------------------------
 .byte   PATT
  .word Label_0117F345
@  #05 @064   ----------------------------------------
 .byte   PATT
  .word Label_0117F35D
@  #05 @065   ----------------------------------------
 .byte   PATT
  .word Label_0117F375
@  #05 @066   ----------------------------------------
 .byte   PATT
  .word Label_0117F38D
@  #05 @067   ----------------------------------------
 .byte   PATT
  .word Label_0117F3A5
@  #05 @068   ----------------------------------------
 .byte   PATT
  .word Label_0117F304
@  #05 @069   ----------------------------------------
 .byte   PATT
  .word Label_0117F319
@  #05 @070   ----------------------------------------
 .byte   PATT
  .word Label_0117F330
@  #05 @071   ----------------------------------------
 .byte   PATT
  .word Label_0117F345
@  #05 @072   ----------------------------------------
 .byte   PATT
  .word Label_0117F35D
@  #05 @073   ----------------------------------------
 .byte   PATT
  .word Label_0117F375
@  #05 @074   ----------------------------------------
 .byte   PATT
  .word Label_0117F38D
@  #05 @075   ----------------------------------------
 .byte   PATT
  .word Label_0117F3A5
@  #05 @076   ----------------------------------------
 .byte   W96
@  #05 @077   ----------------------------------------
 .byte   W96
@  #05 @078   ----------------------------------------
 .byte   W96
@  #05 @079   ----------------------------------------
 .byte   W96
@  #05 @080   ----------------------------------------
 .byte   W96
@  #05 @081   ----------------------------------------
 .byte   W96
@  #05 @082   ----------------------------------------
 .byte   W96
@  #05 @083   ----------------------------------------
 .byte   W96
@  #05 @084   ----------------------------------------
 .byte   W88
 .byte   W01
 .byte   GOTO
  .word Label_0117F2E6
 .byte   FINE

@**************** Track 6 (Midi-Chn.5) ****************@

Rave_006:
@  #06 @000   ----------------------------------------
 .byte   KEYSH , Rave_key+0
Label_0117F45A:
 .byte   VOICE , 14
 .byte   PAN , c_v+0
 .byte   VOL , 50*Rave_mvl/mxv
 .byte   PAN , c_v+0
 .byte   BEND , c_v+0
 .byte   W96
@  #06 @001   ----------------------------------------
 .byte   W96
@  #06 @002   ----------------------------------------
 .byte   W96
@  #06 @003   ----------------------------------------
 .byte   W96
@  #06 @004   ----------------------------------------
 .byte   W96
@  #06 @005   ----------------------------------------
 .byte   W96
@  #06 @006   ----------------------------------------
 .byte   W96
@  #06 @007   ----------------------------------------
 .byte   W96
@  #06 @008   ----------------------------------------
 .byte   W96
@  #06 @009   ----------------------------------------
 .byte   W96
@  #06 @010   ----------------------------------------
 .byte   W96
@  #06 @011   ----------------------------------------
 .byte   W96
@  #06 @012   ----------------------------------------
 .byte   W96
@  #06 @013   ----------------------------------------
 .byte   W96
@  #06 @014   ----------------------------------------
 .byte   W96
@  #06 @015   ----------------------------------------
 .byte   W96
@  #06 @016   ----------------------------------------
 .byte   W96
@  #06 @017   ----------------------------------------
 .byte   W96
@  #06 @018   ----------------------------------------
 .byte   W96
@  #06 @019   ----------------------------------------
 .byte   W96
@  #06 @020   ----------------------------------------
Label_0117F478:
 .byte   N84 ,Fn3 ,v127
 .byte   W92
 .byte   W03
 .byte   N92
 .byte   W01
 .byte   PEND 
@  #06 @021   ----------------------------------------
 .byte   W96
@  #06 @022   ----------------------------------------
Label_0117F481:
 .byte   W01
 .byte   N84 ,Ds3 ,v127
 .byte   W92
 .byte   W02
 .byte   N84
 .byte   W01
 .byte   PEND 
@  #06 @023   ----------------------------------------
Label_0117F48A:
 .byte   W92
 .byte   W03
 .byte   N84 ,Cs3 ,v127
 .byte   W01
 .byte   PEND 
@  #06 @024   ----------------------------------------
 .byte   W96
@  #06 @025   ----------------------------------------
 .byte   N80
 .byte   W96
@  #06 @026   ----------------------------------------
Label_0117F494:
 .byte   W01
 .byte   N76 ,Cn3 ,v127
 .byte   W92
 .byte   W02
 .byte   N48
 .byte   W01
 .byte   PEND 
@  #06 @027   ----------------------------------------
 .byte   W96
@  #06 @028   ----------------------------------------
 .byte   PATT
  .word Label_0117F478
@  #06 @029   ----------------------------------------
 .byte   W96
@  #06 @030   ----------------------------------------
 .byte   PATT
  .word Label_0117F481
@  #06 @031   ----------------------------------------
 .byte   PATT
  .word Label_0117F48A
@  #06 @032   ----------------------------------------
 .byte   W96
@  #06 @033   ----------------------------------------
 .byte   N80 ,Cs3 ,v127
 .byte   W96
@  #06 @034   ----------------------------------------
 .byte   PATT
  .word Label_0117F494
@  #06 @035   ----------------------------------------
 .byte   W96
@  #06 @036   ----------------------------------------
 .byte   W96
@  #06 @037   ----------------------------------------
 .byte   W96
@  #06 @038   ----------------------------------------
 .byte   W96
@  #06 @039   ----------------------------------------
 .byte   W96
@  #06 @040   ----------------------------------------
 .byte   W96
@  #06 @041   ----------------------------------------
 .byte   W96
@  #06 @042   ----------------------------------------
 .byte   W96
@  #06 @043   ----------------------------------------
 .byte   W96
@  #06 @044   ----------------------------------------
 .byte   W96
@  #06 @045   ----------------------------------------
 .byte   W96
@  #06 @046   ----------------------------------------
 .byte   W96
@  #06 @047   ----------------------------------------
 .byte   W96
@  #06 @048   ----------------------------------------
 .byte   W96
@  #06 @049   ----------------------------------------
 .byte   W96
@  #06 @050   ----------------------------------------
 .byte   W96
@  #06 @051   ----------------------------------------
 .byte   W96
@  #06 @052   ----------------------------------------
 .byte   W96
@  #06 @053   ----------------------------------------
 .byte   W96
@  #06 @054   ----------------------------------------
 .byte   W96
@  #06 @055   ----------------------------------------
 .byte   W96
@  #06 @056   ----------------------------------------
 .byte   W96
@  #06 @057   ----------------------------------------
 .byte   W96
@  #06 @058   ----------------------------------------
 .byte   W96
@  #06 @059   ----------------------------------------
 .byte   W96
@  #06 @060   ----------------------------------------
 .byte   PATT
  .word Label_0117F478
@  #06 @061   ----------------------------------------
 .byte   W96
@  #06 @062   ----------------------------------------
 .byte   PATT
  .word Label_0117F481
@  #06 @063   ----------------------------------------
 .byte   PATT
  .word Label_0117F48A
@  #06 @064   ----------------------------------------
 .byte   W96
@  #06 @065   ----------------------------------------
 .byte   N80 ,Cs3 ,v127
 .byte   W96
@  #06 @066   ----------------------------------------
 .byte   PATT
  .word Label_0117F494
@  #06 @067   ----------------------------------------
 .byte   W96
@  #06 @068   ----------------------------------------
 .byte   PATT
  .word Label_0117F478
@  #06 @069   ----------------------------------------
 .byte   W96
@  #06 @070   ----------------------------------------
 .byte   PATT
  .word Label_0117F481
@  #06 @071   ----------------------------------------
 .byte   PATT
  .word Label_0117F48A
@  #06 @072   ----------------------------------------
 .byte   W96
@  #06 @073   ----------------------------------------
 .byte   N80 ,Cs3 ,v127
 .byte   W96
@  #06 @074   ----------------------------------------
 .byte   PATT
  .word Label_0117F494
@  #06 @075   ----------------------------------------
 .byte   W96
@  #06 @076   ----------------------------------------
 .byte   W96
@  #06 @077   ----------------------------------------
 .byte   W96
@  #06 @078   ----------------------------------------
 .byte   W96
@  #06 @079   ----------------------------------------
 .byte   W96
@  #06 @080   ----------------------------------------
 .byte   W96
@  #06 @081   ----------------------------------------
 .byte   W96
@  #06 @082   ----------------------------------------
 .byte   W96
@  #06 @083   ----------------------------------------
 .byte   W96
@  #06 @084   ----------------------------------------
 .byte   W88
 .byte   W01
 .byte   GOTO
  .word Label_0117F45A
 .byte   FINE

@**************** Track 7 (Midi-Chn.6) ****************@

Rave_007:
@  #07 @000   ----------------------------------------
 .byte   KEYSH , Rave_key+0
Label_0117F51A:
 .byte   VOICE , 121
 .byte   PAN , c_v+0
 .byte   VOL , 41*Rave_mvl/mxv
 .byte   PAN , c_v+0
 .byte   PAN , c_v+0
 .byte   BEND , c_v+0
 .byte   W96
@  #07 @001   ----------------------------------------
 .byte   W96
@  #07 @002   ----------------------------------------
 .byte   W96
@  #07 @003   ----------------------------------------
 .byte   W96
@  #07 @004   ----------------------------------------
 .byte   W96
@  #07 @005   ----------------------------------------
Label_0117F52A:
 .byte   N12 ,Cn1 ,v127
 .byte   W24
 .byte   N13
 .byte   W24
 .byte   N10
 .byte   W24
 .byte   N05
 .byte   W12
 .byte   N05
 .byte   W12
 .byte   PEND 
@  #07 @006   ----------------------------------------
 .byte   BEND , c_v+39
 .byte   N12
 .byte   W24
 .byte   N13
 .byte   W24
 .byte   N10
 .byte   W06
 .byte   N03 ,En1
 .byte   W06
 .byte   N05
 .byte   W12
 .byte   Cn1
 .byte   N06 ,En1
 .byte   W12
 .byte   N05 ,Cn1
 .byte   N06 ,En1
 .byte   W06
 .byte   N03
 .byte   W06
@  #07 @007   ----------------------------------------
 .byte   N12 ,Cn1
 .byte   W24
 .byte   N13
 .byte   N06 ,En1
 .byte   W18
 .byte   N04
 .byte   W06
 .byte   N10 ,Cn1
 .byte   W06
 .byte   N03 ,En1
 .byte   W06
 .byte   N05
 .byte   W12
 .byte   Cn1
 .byte   N04 ,En1
 .byte   W12
 .byte   N05 ,Cn1
 .byte   N04 ,En1
 .byte   W12
@  #07 @008   ----------------------------------------
Label_0117F569:
 .byte   N12 ,Cn1 ,v127
 .byte   N03 ,Fs1 ,v112
 .byte   W06
 .byte   N02 ,Fs1 ,v124
 .byte   W06
 .byte   N03 ,As1 ,v127
 .byte   W06
 .byte   N02 ,Fs1 ,v124
 .byte   W06
 .byte   N13 ,Cn1 ,v127
 .byte   N05 ,En1
 .byte   N03 ,Fs1
 .byte   W06
 .byte   As1 ,v124
 .byte   W06
 .byte   N04 ,Fs1 ,v127
 .byte   W06
 .byte   En1
 .byte   N03 ,Fs1
 .byte   W06
 .byte   N10 ,Cn1
 .byte   N03 ,Fs1
 .byte   W06
 .byte   En1
 .byte   N03 ,Fs1 ,v116
 .byte   W06
 .byte   N04 ,En1 ,v127
 .byte   N03 ,As1
 .byte   W06
 .byte   Fs1
 .byte   W06
 .byte   N05 ,Cn1
 .byte   N04 ,En1
 .byte   N03 ,Fs1
 .byte   W06
 .byte   N03
 .byte   W06
 .byte   N05 ,Cn1
 .byte   N03 ,Fs1 ,v120
 .byte   W06
 .byte   N04 ,As1 ,v116
 .byte   W06
 .byte   PEND 
@  #07 @009   ----------------------------------------
Label_0117F5B5:
 .byte   N12 ,Cn1 ,v127
 .byte   N03 ,Fs1 ,v112
 .byte   N12 ,Cs2 ,v127
 .byte   W06
 .byte   N02 ,Fs1 ,v124
 .byte   W06
 .byte   N03 ,As1 ,v127
 .byte   W06
 .byte   N02 ,Fs1 ,v124
 .byte   W06
 .byte   N13 ,Cn1 ,v127
 .byte   N06 ,En1
 .byte   N03 ,Fs1
 .byte   W06
 .byte   As1 ,v124
 .byte   W06
 .byte   N04 ,Fs1 ,v127
 .byte   W06
 .byte   En1
 .byte   N03 ,Fs1
 .byte   W06
 .byte   N10 ,Cn1
 .byte   N03 ,Fs1
 .byte   W06
 .byte   En1
 .byte   N03 ,Fs1 ,v116
 .byte   W06
 .byte   N05 ,En1 ,v127
 .byte   N03 ,As1
 .byte   W06
 .byte   Fs1
 .byte   W06
 .byte   N05 ,Cn1
 .byte   N04 ,En1
 .byte   N03 ,Fs1
 .byte   W06
 .byte   N03
 .byte   W06
 .byte   N05 ,Cn1
 .byte   N04 ,En1
 .byte   N03 ,Fs1 ,v120
 .byte   W06
 .byte   N04 ,As1 ,v116
 .byte   W06
 .byte   PEND 
@  #07 @010   ----------------------------------------
 .byte   PATT
  .word Label_0117F569
@  #07 @011   ----------------------------------------
Label_0117F60B:
 .byte   N12 ,Cn1 ,v127
 .byte   N03 ,Fs1 ,v112
 .byte   W06
 .byte   N02 ,Fs1 ,v124
 .byte   W06
 .byte   N03 ,As1 ,v127
 .byte   W06
 .byte   N02 ,Fs1 ,v124
 .byte   W06
 .byte   N13 ,Cn1 ,v127
 .byte   N06 ,En1
 .byte   N03 ,Fs1
 .byte   W06
 .byte   As1 ,v124
 .byte   W06
 .byte   N04 ,Fs1 ,v127
 .byte   W06
 .byte   En1
 .byte   N03 ,Fs1
 .byte   W06
 .byte   N10 ,Cn1
 .byte   N03 ,Fs1
 .byte   W06
 .byte   En1
 .byte   N03 ,Fs1 ,v116
 .byte   W06
 .byte   N05 ,En1 ,v127
 .byte   N03 ,As1
 .byte   W06
 .byte   Fs1
 .byte   W06
 .byte   N05 ,Cn1
 .byte   N04 ,En1
 .byte   N03 ,Fs1
 .byte   W06
 .byte   N03
 .byte   W06
 .byte   N05 ,Cn1
 .byte   N04 ,En1
 .byte   N03 ,Fs1 ,v120
 .byte   W06
 .byte   N04 ,As1 ,v116
 .byte   W06
 .byte   PEND 
@  #07 @012   ----------------------------------------
 .byte   PATT
  .word Label_0117F569
@  #07 @013   ----------------------------------------
Label_0117F65E:
 .byte   N12 ,Cn1 ,v127
 .byte   N03 ,Fs1 ,v112
 .byte   N12 ,An2 ,v127
 .byte   W06
 .byte   N02 ,Fs1 ,v124
 .byte   W06
 .byte   N03 ,As1 ,v127
 .byte   W06
 .byte   N02 ,Fs1 ,v124
 .byte   W06
 .byte   N13 ,Cn1 ,v127
 .byte   N06 ,En1
 .byte   N03 ,Fs1
 .byte   W06
 .byte   As1 ,v124
 .byte   W06
 .byte   N04 ,Fs1 ,v127
 .byte   W06
 .byte   En1
 .byte   N03 ,Fs1
 .byte   W06
 .byte   N10 ,Cn1
 .byte   N03 ,Fs1
 .byte   W06
 .byte   En1
 .byte   N03 ,Fs1 ,v116
 .byte   W06
 .byte   N05 ,En1 ,v127
 .byte   N03 ,As1
 .byte   W06
 .byte   Fs1
 .byte   W06
 .byte   N05 ,Cn1
 .byte   N04 ,En1
 .byte   N03 ,Fs1
 .byte   W06
 .byte   N03
 .byte   W06
 .byte   N05 ,Cn1
 .byte   N04 ,En1
 .byte   N03 ,Fs1 ,v120
 .byte   W06
 .byte   N04 ,As1 ,v116
 .byte   W06
 .byte   PEND 
@  #07 @014   ----------------------------------------
 .byte   N12 ,Cn1 ,v127
 .byte   N03 ,Fs1 ,v112
 .byte   W06
 .byte   N02 ,Fs1 ,v124
 .byte   W06
 .byte   N03 ,As1 ,v127
 .byte   N04 ,Gs2 ,v092
 .byte   W06
 .byte   N02 ,Fs1 ,v124
 .byte   W06
 .byte   N13 ,Cn1 ,v127
 .byte   N05 ,En1
 .byte   N03 ,Fs1
 .byte   W06
 .byte   As1 ,v124
 .byte   W06
 .byte   N04 ,Fs1 ,v127
 .byte   W06
 .byte   En1
 .byte   N03 ,Fs1
 .byte   N03 ,Gs2 ,v092
 .byte   W06
 .byte   N10 ,Cn1 ,v127
 .byte   N03 ,Fs1
 .byte   W06
 .byte   En1
 .byte   N03 ,Fs1 ,v116
 .byte   W06
 .byte   N04 ,En1 ,v127
 .byte   N03 ,As1
 .byte   W06
 .byte   Fs1
 .byte   W06
 .byte   N05 ,Cn1
 .byte   N04 ,En1
 .byte   N03 ,Fs1
 .byte   N02 ,Gs2 ,v092
 .byte   W06
 .byte   N03 ,Fs1 ,v127
 .byte   N04 ,Gs2 ,v092
 .byte   W06
 .byte   N05 ,Cn1 ,v127
 .byte   N03 ,Fs1 ,v120
 .byte   W06
 .byte   N04 ,As1 ,v116
 .byte   W06
@  #07 @015   ----------------------------------------
 .byte   N12 ,Cn1 ,v127
 .byte   N03 ,Fs1 ,v112
 .byte   W06
 .byte   N02 ,Fs1 ,v124
 .byte   W06
 .byte   N03 ,As1 ,v127
 .byte   N04 ,Gs2 ,v092
 .byte   W06
 .byte   N02 ,Fs1 ,v124
 .byte   W06
 .byte   N13 ,Cn1 ,v127
 .byte   N03 ,Fs1
 .byte   W06
 .byte   As1 ,v124
 .byte   W06
 .byte   N04 ,Fs1 ,v127
 .byte   W06
 .byte   N03
 .byte   N03 ,Gs2 ,v092
 .byte   W06
 .byte   N10 ,Cn1 ,v127
 .byte   N03 ,Fs1
 .byte   W06
 .byte   Fs1 ,v116
 .byte   W06
 .byte   As1 ,v127
 .byte   W06
 .byte   Fs1
 .byte   W06
 .byte   N05 ,Cn1
 .byte   N03 ,Fs1
 .byte   N02 ,Gs2 ,v092
 .byte   W06
 .byte   N03 ,Fs1 ,v127
 .byte   N04 ,Gs2 ,v092
 .byte   W06
 .byte   N05 ,Cn1 ,v127
 .byte   N03 ,Fs1 ,v120
 .byte   W06
 .byte   N04 ,As1 ,v116
 .byte   W06
@  #07 @016   ----------------------------------------
 .byte   N12 ,Cn1 ,v127
 .byte   N03 ,Fs1 ,v100
 .byte   W06
 .byte   N02
 .byte   W06
 .byte   N03
 .byte   N04 ,Gs2 ,v092
 .byte   W06
 .byte   N02 ,Fs1 ,v100
 .byte   W06
 .byte   N13 ,Cn1 ,v127
 .byte   N03 ,Fs1 ,v100
 .byte   W06
 .byte   N03
 .byte   W06
 .byte   N04
 .byte   W06
 .byte   N03
 .byte   N03 ,Gs2 ,v092
 .byte   W06
 .byte   N10 ,Cn1 ,v127
 .byte   N03 ,Fs1 ,v100
 .byte   W06
 .byte   N03
 .byte   W06
 .byte   N03
 .byte   W06
 .byte   N03
 .byte   W06
 .byte   N05 ,Cn1 ,v127
 .byte   N03 ,Fs1 ,v100
 .byte   N02 ,Gs2 ,v092
 .byte   W06
 .byte   N03 ,Fs1 ,v100
 .byte   N04 ,Gs2 ,v092
 .byte   W06
 .byte   N05 ,Cn1 ,v127
 .byte   N03 ,Fs1 ,v100
 .byte   W06
 .byte   N04
 .byte   W06
@  #07 @017   ----------------------------------------
 .byte   N03
 .byte   W06
 .byte   N02
 .byte   W06
 .byte   N03
 .byte   N04 ,Gs2 ,v092
 .byte   W06
 .byte   N02 ,Fs1 ,v100
 .byte   W06
 .byte   N03
 .byte   W06
 .byte   N03
 .byte   W06
 .byte   N04
 .byte   W06
 .byte   N03
 .byte   N03 ,Gs2 ,v092
 .byte   W06
 .byte   Fs1 ,v100
 .byte   W06
 .byte   N03
 .byte   W06
 .byte   N03
 .byte   W06
 .byte   N03
 .byte   W06
 .byte   N03
 .byte   N02 ,Gs2 ,v092
 .byte   W06
 .byte   N03 ,Fs1 ,v100
 .byte   N04 ,Gs2 ,v092
 .byte   W06
 .byte   N03 ,Fs1 ,v100
 .byte   W06
 .byte   N04
 .byte   W06
@  #07 @018   ----------------------------------------
 .byte   BEND , c_v+39
 .byte   N03
 .byte   N15 ,Cs2 ,v127
 .byte   W06
 .byte   N02 ,Fs1 ,v100
 .byte   W06
 .byte   N03
 .byte   W06
 .byte   N02
 .byte   W06
 .byte   N03
 .byte   W06
 .byte   N03
 .byte   W06
 .byte   N04
 .byte   W06
 .byte   N03
 .byte   W06
 .byte   N03
 .byte   W06
 .byte   En1 ,v127
 .byte   N03 ,Fs1 ,v100
 .byte   W06
 .byte   N05 ,En1 ,v127
 .byte   N03 ,Fs1 ,v100
 .byte   W06
 .byte   N03
 .byte   W06
 .byte   N06 ,En1 ,v127
 .byte   N03 ,Fs1 ,v100
 .byte   W06
 .byte   N03
 .byte   W06
 .byte   N06 ,En1 ,v127
 .byte   N03 ,Fs1 ,v100
 .byte   W06
 .byte   En1 ,v127
 .byte   N04 ,Fs1 ,v100
 .byte   W06
@  #07 @019   ----------------------------------------
 .byte   N03 ,Dn1 ,v052
 .byte   N03 ,Fs1 ,v100
 .byte   W06
 .byte   N02 ,Dn1 ,v060
 .byte   N02 ,Fs1 ,v100
 .byte   W06
 .byte   N03 ,Dn1 ,v072
 .byte   N03 ,Fs1 ,v100
 .byte   W06
 .byte   N02 ,Dn1 ,v080
 .byte   N02 ,Fs1 ,v100
 .byte   W06
 .byte   N03 ,Dn1 ,v092
 .byte   N06 ,En1 ,v127
 .byte   N03 ,Fs1 ,v100
 .byte   W06
 .byte   N02 ,Dn1
 .byte   N03 ,Fs1
 .byte   W06
 .byte   Dn1 ,v112
 .byte   N04 ,Fs1 ,v100
 .byte   W06
 .byte   N02 ,Dn1 ,v120
 .byte   N04 ,En1 ,v127
 .byte   N03 ,Fs1 ,v100
 .byte   W06
 .byte   N05 ,Dn1 ,v127
 .byte   N03 ,Fs1 ,v100
 .byte   W06
 .byte   En1 ,v127
 .byte   N03 ,Fs1 ,v100
 .byte   W06
 .byte   N03
 .byte   W06
 .byte   N03
 .byte   W06
 .byte   N04 ,En1 ,v127
 .byte   N03 ,Fs1 ,v100
 .byte   W06
 .byte   N03
 .byte   W06
 .byte   N04 ,En1 ,v127
 .byte   N03 ,Fs1 ,v100
 .byte   W06
 .byte   N04 ,Fs1 ,v127
 .byte   W06
@  #07 @020   ----------------------------------------
 .byte   N03 ,Fs1 ,v112
 .byte   W06
 .byte   N02 ,Fs1 ,v124
 .byte   W06
 .byte   N03 ,As1 ,v127
 .byte   W06
 .byte   N02 ,Fs1 ,v124
 .byte   W06
 .byte   N06 ,En1 ,v127
 .byte   N03 ,Fs1
 .byte   W06
 .byte   As1 ,v124
 .byte   W06
 .byte   N04 ,Fs1 ,v127
 .byte   W06
 .byte   En1
 .byte   N03 ,Fs1
 .byte   W06
 .byte   N03
 .byte   W06
 .byte   En1
 .byte   N03 ,Fs1 ,v116
 .byte   W06
 .byte   As1 ,v127
 .byte   W06
 .byte   Fs1
 .byte   W06
 .byte   N04 ,En1
 .byte   N03 ,Fs1
 .byte   W06
 .byte   N03
 .byte   W06
 .byte   N04 ,En1
 .byte   N03 ,Fs1 ,v120
 .byte   W06
 .byte   N04 ,As1 ,v116
 .byte   W06
@  #07 @021   ----------------------------------------
Label_0117F8B2:
 .byte   N07 ,Cn1 ,v127
 .byte   N03 ,Fs1 ,v112
 .byte   W06
 .byte   N02 ,Fs1 ,v124
 .byte   W06
 .byte   N03 ,As1 ,v127
 .byte   W06
 .byte   N02 ,Fs1 ,v124
 .byte   W06
 .byte   N06 ,En1 ,v127
 .byte   N03 ,Fs1
 .byte   W06
 .byte   As1 ,v124
 .byte   W06
 .byte   N05 ,Cn1 ,v127
 .byte   N04 ,Fs1
 .byte   W06
 .byte   En1
 .byte   N03 ,Fs1
 .byte   W06
 .byte   N03
 .byte   W06
 .byte   En1
 .byte   N03 ,Fs1 ,v116
 .byte   W06
 .byte   N06 ,Cn1 ,v127
 .byte   N03 ,As1
 .byte   W06
 .byte   Fs1
 .byte   W06
 .byte   N04 ,En1
 .byte   N03 ,Fs1
 .byte   W06
 .byte   N03
 .byte   W06
 .byte   N04 ,En1
 .byte   N03 ,Fs1 ,v120
 .byte   W06
 .byte   N04 ,As1 ,v116
 .byte   W06
 .byte   PEND 
@  #07 @022   ----------------------------------------
 .byte   PATT
  .word Label_0117F8B2
@  #07 @023   ----------------------------------------
 .byte   PATT
  .word Label_0117F8B2
@  #07 @024   ----------------------------------------
 .byte   PATT
  .word Label_0117F8B2
@  #07 @025   ----------------------------------------
 .byte   N07 ,Cn1 ,v127
 .byte   N03 ,Fs1 ,v112
 .byte   W06
 .byte   N02 ,Fs1 ,v124
 .byte   W06
 .byte   N03 ,As1 ,v127
 .byte   W06
 .byte   N02 ,Fs1 ,v124
 .byte   W06
 .byte   N06 ,En1 ,v127
 .byte   N03 ,Fs1
 .byte   W06
 .byte   As1 ,v124
 .byte   W06
 .byte   N05 ,Cn1 ,v127
 .byte   N04 ,Fs1
 .byte   W06
 .byte   En1
 .byte   N03 ,Fs1
 .byte   W06
 .byte   N03
 .byte   W06
 .byte   En1
 .byte   N03 ,Fs1 ,v116
 .byte   W06
 .byte   N06 ,Cn1 ,v127
 .byte   N03 ,As1
 .byte   W06
 .byte   Fs1
 .byte   W06
 .byte   N04 ,En1
 .byte   N03 ,Fs1
 .byte   W06
 .byte   N03
 .byte   W06
 .byte   N04 ,En1
 .byte   N03 ,Fs1 ,v120
 .byte   W06
 .byte   N04 ,As1 ,v116
 .byte   W05
 .byte   N21 ,An2 ,v120
 .byte   W01
@  #07 @026   ----------------------------------------
 .byte   PATT
  .word Label_0117F8B2
@  #07 @027   ----------------------------------------
 .byte   PATT
  .word Label_0117F8B2
@  #07 @028   ----------------------------------------
 .byte   PATT
  .word Label_0117F8B2
@  #07 @029   ----------------------------------------
 .byte   PATT
  .word Label_0117F8B2
@  #07 @030   ----------------------------------------
 .byte   PATT
  .word Label_0117F8B2
@  #07 @031   ----------------------------------------
 .byte   PATT
  .word Label_0117F8B2
@  #07 @032   ----------------------------------------
 .byte   PATT
  .word Label_0117F8B2
@  #07 @033   ----------------------------------------
 .byte   PATT
  .word Label_0117F8B2
@  #07 @034   ----------------------------------------
 .byte   PATT
  .word Label_0117F8B2
@  #07 @035   ----------------------------------------
 .byte   N07 ,Cn1 ,v127
 .byte   N03 ,Fs1 ,v112
 .byte   W06
 .byte   N02 ,Fs1 ,v124
 .byte   W06
 .byte   N03 ,As1 ,v127
 .byte   W06
 .byte   N02 ,Fs1 ,v124
 .byte   W06
 .byte   N06 ,En1 ,v127
 .byte   N03 ,Fs1
 .byte   W06
 .byte   As1 ,v124
 .byte   W06
 .byte   N05 ,Cn1 ,v127
 .byte   N04 ,Fs1
 .byte   W06
 .byte   En1
 .byte   N03 ,Fs1
 .byte   W06
 .byte   N03
 .byte   W06
 .byte   En1
 .byte   N03 ,Fs1 ,v116
 .byte   W06
 .byte   N06 ,Cn1 ,v127
 .byte   N05 ,En1
 .byte   N03 ,As1
 .byte   W06
 .byte   Fs1
 .byte   W06
 .byte   N04 ,En1
 .byte   N03 ,Fs1
 .byte   W06
 .byte   N03
 .byte   W06
 .byte   N04 ,En1
 .byte   N03 ,Fs1 ,v120
 .byte   W06
 .byte   N04 ,As1 ,v116
 .byte   W06
@  #07 @036   ----------------------------------------
 .byte   N07 ,Cn1 ,v127
 .byte   N03 ,Fs1 ,v112
 .byte   W06
 .byte   N02 ,Fs1 ,v124
 .byte   W06
 .byte   N03 ,As1 ,v127
 .byte   W06
 .byte   N02 ,Fs1 ,v124
 .byte   W06
 .byte   N05 ,En1 ,v127
 .byte   N03 ,Fs1
 .byte   W06
 .byte   As1 ,v124
 .byte   W06
 .byte   N05 ,Cn1 ,v127
 .byte   N04 ,Fs1
 .byte   W06
 .byte   En1
 .byte   N03 ,Fs1
 .byte   W06
 .byte   N03
 .byte   W06
 .byte   En1
 .byte   N03 ,Fs1 ,v116
 .byte   W06
 .byte   N06 ,Cn1 ,v127
 .byte   N04 ,En1
 .byte   N03 ,As1
 .byte   W06
 .byte   Fs1
 .byte   W06
 .byte   N04 ,En1
 .byte   N03 ,Fs1
 .byte   W06
 .byte   N03
 .byte   W06
 .byte   Fs1 ,v120
 .byte   W06
 .byte   N04 ,As1 ,v116
 .byte   W06
@  #07 @037   ----------------------------------------
 .byte   PATT
  .word Label_0117F5B5
@  #07 @038   ----------------------------------------
 .byte   PATT
  .word Label_0117F569
@  #07 @039   ----------------------------------------
 .byte   PATT
  .word Label_0117F60B
@  #07 @040   ----------------------------------------
 .byte   PATT
  .word Label_0117F569
@  #07 @041   ----------------------------------------
 .byte   PATT
  .word Label_0117F65E
@  #07 @042   ----------------------------------------
 .byte   PATT
  .word Label_0117F569
@  #07 @043   ----------------------------------------
 .byte   N12 ,Cn1 ,v127
 .byte   N03 ,Fs1 ,v112
 .byte   W06
 .byte   N02 ,Fs1 ,v124
 .byte   W06
 .byte   N03 ,As1 ,v127
 .byte   W06
 .byte   N02 ,Fs1 ,v124
 .byte   N03 ,Ds4 ,v096
 .byte   W06
 .byte   N13 ,Cn1 ,v127
 .byte   N03 ,Fs1
 .byte   W06
 .byte   As1 ,v124
 .byte   W06
 .byte   N04 ,Fs1 ,v127
 .byte   N04 ,Ds4 ,v096
 .byte   W06
 .byte   N03 ,Fs1 ,v127
 .byte   W06
 .byte   N10 ,Cn1
 .byte   N03 ,Fs1
 .byte   W06
 .byte   Fs1 ,v116
 .byte   W06
 .byte   As1 ,v127
 .byte   W06
 .byte   Fs1
 .byte   W06
 .byte   N05 ,Cn1
 .byte   N03 ,Fs1
 .byte   W06
 .byte   N03
 .byte   W06
 .byte   N05 ,Cn1
 .byte   N03 ,Fs1 ,v120
 .byte   W06
 .byte   N04 ,As1 ,v116
 .byte   W06
@  #07 @044   ----------------------------------------
 .byte   N12 ,Cn1 ,v127
 .byte   N03 ,Fs1 ,v112
 .byte   W06
 .byte   N02 ,Fs1 ,v124
 .byte   W06
 .byte   N03 ,As1 ,v127
 .byte   W06
 .byte   N02 ,Fs1 ,v124
 .byte   N03 ,Ds4 ,v096
 .byte   W06
 .byte   N13 ,Cn1 ,v127
 .byte   N03 ,Fs1
 .byte   W06
 .byte   As1 ,v124
 .byte   W06
 .byte   N04 ,Fs1 ,v127
 .byte   N03 ,Ds4 ,v096
 .byte   W06
 .byte   Fs1 ,v127
 .byte   W06
 .byte   N10 ,Cn1
 .byte   N03 ,Fs1
 .byte   W06
 .byte   Fs1 ,v116
 .byte   W06
 .byte   As1 ,v127
 .byte   W06
 .byte   Fs1
 .byte   W06
 .byte   N05 ,Cn1
 .byte   N03 ,Fs1
 .byte   W06
 .byte   N03
 .byte   W06
 .byte   N05 ,Cn1
 .byte   N03 ,Fs1 ,v120
 .byte   W06
 .byte   N04 ,As1 ,v116
 .byte   W06
@  #07 @045   ----------------------------------------
 .byte   N03 ,Fs1 ,v112
 .byte   W06
 .byte   N02 ,Fs1 ,v124
 .byte   W06
 .byte   N03 ,As1 ,v127
 .byte   W06
 .byte   N02 ,Fs1 ,v124
 .byte   N03 ,Ds4 ,v096
 .byte   W06
 .byte   Fs1 ,v127
 .byte   W06
 .byte   As1 ,v124
 .byte   W06
 .byte   N04 ,Fs1 ,v127
 .byte   N03 ,Ds4 ,v096
 .byte   W06
 .byte   Fs1 ,v127
 .byte   W06
 .byte   N03
 .byte   W06
 .byte   Fs1 ,v116
 .byte   W06
 .byte   As1 ,v127
 .byte   W06
 .byte   Fs1
 .byte   W06
 .byte   N03
 .byte   W06
 .byte   N03
 .byte   W06
 .byte   Fs1 ,v120
 .byte   W06
 .byte   N04 ,As1 ,v116
 .byte   W06
@  #07 @046   ----------------------------------------
 .byte   N03 ,Fs1 ,v112
 .byte   W06
 .byte   N02 ,Fs1 ,v124
 .byte   W06
 .byte   N03 ,As1 ,v127
 .byte   W06
 .byte   N02 ,Fs1 ,v124
 .byte   N04 ,Ds4 ,v096
 .byte   W06
 .byte   N03 ,Fs1 ,v127
 .byte   W06
 .byte   As1 ,v124
 .byte   W06
 .byte   N04 ,Fs1 ,v127
 .byte   N03 ,Ds4 ,v096
 .byte   W06
 .byte   Fs1 ,v127
 .byte   W06
 .byte   N03
 .byte   W06
 .byte   Fs1 ,v116
 .byte   W06
 .byte   As1 ,v127
 .byte   W06
 .byte   Fs1
 .byte   W06
 .byte   N03
 .byte   W06
 .byte   N03
 .byte   W06
 .byte   Fs1 ,v120
 .byte   W06
 .byte   N04 ,As1 ,v116
 .byte   W06
@  #07 @047   ----------------------------------------
Label_0117FB2A:
 .byte   N03 ,Fs1 ,v112
 .byte   W06
 .byte   N02 ,Fs1 ,v124
 .byte   W06
 .byte   N03 ,As1 ,v127
 .byte   W06
 .byte   N02 ,Fs1 ,v124
 .byte   W06
 .byte   N03 ,Fs1 ,v127
 .byte   W06
 .byte   As1 ,v124
 .byte   W06
 .byte   N04 ,Fs1 ,v127
 .byte   W06
 .byte   N03
 .byte   W06
 .byte   N03
 .byte   W06
 .byte   Fs1 ,v116
 .byte   W06
 .byte   As1 ,v127
 .byte   W06
 .byte   Fs1
 .byte   W06
 .byte   N03
 .byte   W06
 .byte   N03
 .byte   W06
 .byte   Fs1 ,v120
 .byte   W06
 .byte   N04 ,As1 ,v116
 .byte   W06
 .byte   PEND 
@  #07 @048   ----------------------------------------
 .byte   PATT
  .word Label_0117FB2A
@  #07 @049   ----------------------------------------
 .byte   PATT
  .word Label_0117FB2A
@  #07 @050   ----------------------------------------
 .byte   BEND , c_v+39
 .byte   N03 ,Fs1 ,v112
 .byte   W06
 .byte   N02 ,Fs1 ,v124
 .byte   W06
 .byte   N03 ,As1 ,v127
 .byte   W06
 .byte   N02 ,Fs1 ,v124
 .byte   W06
 .byte   N03 ,Fs1 ,v127
 .byte   W06
 .byte   As1 ,v124
 .byte   W06
 .byte   N04 ,Fs1 ,v127
 .byte   W06
 .byte   N03
 .byte   W06
 .byte   N03
 .byte   W06
 .byte   En1
 .byte   N03 ,Fs1 ,v116
 .byte   W06
 .byte   N05 ,En1 ,v127
 .byte   N03 ,As1
 .byte   W06
 .byte   Fs1
 .byte   W06
 .byte   N06 ,En1
 .byte   N03 ,Fs1
 .byte   W06
 .byte   N03
 .byte   W06
 .byte   N06 ,En1
 .byte   N03 ,Fs1 ,v120
 .byte   W06
 .byte   En1 ,v127
 .byte   N04 ,As1 ,v116
 .byte   W06
@  #07 @051   ----------------------------------------
 .byte   N03 ,Fs1 ,v112
 .byte   W06
 .byte   N02 ,Fs1 ,v124
 .byte   W06
 .byte   N03 ,As1 ,v127
 .byte   W06
 .byte   N02 ,Fs1 ,v124
 .byte   W06
 .byte   N06 ,En1 ,v127
 .byte   N03 ,Fs1
 .byte   W06
 .byte   As1 ,v124
 .byte   W06
 .byte   N04 ,Fs1 ,v127
 .byte   W06
 .byte   En1
 .byte   N03 ,Fs1
 .byte   W06
 .byte   N03
 .byte   W06
 .byte   En1
 .byte   N03 ,Fs1 ,v116
 .byte   W06
 .byte   N05 ,En1 ,v127
 .byte   N03 ,As1
 .byte   W06
 .byte   Fs1
 .byte   W06
 .byte   N04 ,En1
 .byte   N03 ,Fs1
 .byte   W06
 .byte   N03
 .byte   W06
 .byte   N04 ,En1
 .byte   N03 ,Fs1 ,v120
 .byte   W06
 .byte   N04 ,As1 ,v116
 .byte   W06
@  #07 @052   ----------------------------------------
 .byte   N03 ,Fs1 ,v112
 .byte   W06
 .byte   N02 ,Fs1 ,v124
 .byte   W06
 .byte   N03 ,As1 ,v127
 .byte   W06
 .byte   N02 ,Fs1 ,v124
 .byte   W06
 .byte   N05 ,En1 ,v127
 .byte   N03 ,Fs1
 .byte   W06
 .byte   As1 ,v124
 .byte   W06
 .byte   N04 ,Fs1 ,v127
 .byte   W06
 .byte   En1
 .byte   N03 ,Fs1
 .byte   W06
 .byte   N03
 .byte   W06
 .byte   En1
 .byte   N03 ,Fs1 ,v116
 .byte   W06
 .byte   N04 ,En1 ,v127
 .byte   N03 ,As1
 .byte   W06
 .byte   Fs1
 .byte   W06
 .byte   N04 ,En1
 .byte   N03 ,Fs1
 .byte   W06
 .byte   N03
 .byte   W06
 .byte   Fs1 ,v120
 .byte   W06
 .byte   N04 ,As1 ,v116
 .byte   W06
@  #07 @053   ----------------------------------------
 .byte   PATT
  .word Label_0117F60B
@  #07 @054   ----------------------------------------
 .byte   PATT
  .word Label_0117F569
@  #07 @055   ----------------------------------------
 .byte   PATT
  .word Label_0117F60B
@  #07 @056   ----------------------------------------
 .byte   PATT
  .word Label_0117F569
@  #07 @057   ----------------------------------------
 .byte   PATT
  .word Label_0117F60B
@  #07 @058   ----------------------------------------
 .byte   PATT
  .word Label_0117F569
@  #07 @059   ----------------------------------------
 .byte   PATT
  .word Label_0117F60B
@  #07 @060   ----------------------------------------
 .byte   PATT
  .word Label_0117F569
@  #07 @061   ----------------------------------------
 .byte   PATT
  .word Label_0117F60B
@  #07 @062   ----------------------------------------
 .byte   PATT
  .word Label_0117F569
@  #07 @063   ----------------------------------------
 .byte   PATT
  .word Label_0117F60B
@  #07 @064   ----------------------------------------
 .byte   PATT
  .word Label_0117F569
@  #07 @065   ----------------------------------------
 .byte   PATT
  .word Label_0117F60B
@  #07 @066   ----------------------------------------
 .byte   PATT
  .word Label_0117F569
@  #07 @067   ----------------------------------------
 .byte   PATT
  .word Label_0117F60B
@  #07 @068   ----------------------------------------
 .byte   PATT
  .word Label_0117F569
@  #07 @069   ----------------------------------------
 .byte   PATT
  .word Label_0117F5B5
@  #07 @070   ----------------------------------------
 .byte   PATT
  .word Label_0117F569
@  #07 @071   ----------------------------------------
 .byte   PATT
  .word Label_0117F60B
@  #07 @072   ----------------------------------------
 .byte   PATT
  .word Label_0117F569
@  #07 @073   ----------------------------------------
 .byte   PATT
  .word Label_0117F60B
@  #07 @074   ----------------------------------------
 .byte   PATT
  .word Label_0117F569
@  #07 @075   ----------------------------------------
 .byte   N12 ,Cn1 ,v127
 .byte   N03 ,Fs1 ,v112
 .byte   W06
 .byte   N02 ,Fs1 ,v124
 .byte   W06
 .byte   N03 ,As1 ,v127
 .byte   W06
 .byte   N02 ,Fs1 ,v124
 .byte   W06
 .byte   N13 ,Cn1 ,v127
 .byte   N03 ,Fs1
 .byte   W06
 .byte   As1 ,v124
 .byte   W06
 .byte   N04 ,Fs1 ,v127
 .byte   W06
 .byte   N03
 .byte   W06
 .byte   N10 ,Cn1
 .byte   N03 ,Fs1
 .byte   W06
 .byte   Fs1 ,v116
 .byte   W06
 .byte   As1 ,v127
 .byte   W06
 .byte   Fs1
 .byte   W06
 .byte   N05 ,Cn1
 .byte   N03 ,Fs1
 .byte   W06
 .byte   N03
 .byte   W06
 .byte   N05 ,Cn1
 .byte   N03 ,Fs1 ,v120
 .byte   W06
 .byte   N04 ,As1 ,v116
 .byte   W06
@  #07 @076   ----------------------------------------
 .byte   PATT
  .word Label_0117F52A
@  #07 @077   ----------------------------------------
 .byte   W96
@  #07 @078   ----------------------------------------
 .byte   W96
@  #07 @079   ----------------------------------------
 .byte   W24
 .byte   N06 ,Ds1 ,v127
 .byte   W48
 .byte   N04
 .byte   W24
@  #07 @080   ----------------------------------------
 .byte   W24
 .byte   N03
 .byte   W48
 .byte   N04
 .byte   W24
@  #07 @081   ----------------------------------------
 .byte   N12 ,Cn1
 .byte   W24
 .byte   N13
 .byte   N06 ,Ds1
 .byte   W24
 .byte   N10 ,Cn1
 .byte   W24
 .byte   N05
 .byte   N04 ,Ds1
 .byte   W12
 .byte   N05 ,Cn1
 .byte   W12
@  #07 @082   ----------------------------------------
 .byte   N12
 .byte   W24
 .byte   N13
 .byte   N03 ,Ds1
 .byte   W24
 .byte   N10 ,Cn1
 .byte   W24
 .byte   N05
 .byte   N04 ,Ds1
 .byte   W12
 .byte   N05 ,Cn1
 .byte   W12
@  #07 @083   ----------------------------------------
 .byte   PATT
  .word Label_0117F52A
@  #07 @084   ----------------------------------------
 .byte   N12 ,Cn1 ,v127
 .byte   W24
 .byte   N13
 .byte   W24
 .byte   N10
 .byte   W24
 .byte   N05
 .byte   W12
 .byte   N05
 .byte   W05
 .byte   GOTO
  .word Label_0117F51A
 .byte   FINE

@**************** Track 8 (Midi-Chn.7) ****************@

Rave_008:
@  #08 @000   ----------------------------------------
 .byte   KEYSH , Rave_key+0
Label_0117FD22:
 .byte   VOICE , 81
 .byte   PAN , c_v+0
 .byte   VOL , 50*Rave_mvl/mxv
 .byte   PAN , c_v+0
 .byte   BEND , c_v+0
 .byte   W96
@  #08 @001   ----------------------------------------
 .byte   W96
@  #08 @002   ----------------------------------------
 .byte   W96
@  #08 @003   ----------------------------------------
 .byte   W96
@  #08 @004   ----------------------------------------
 .byte   W96
@  #08 @005   ----------------------------------------
 .byte   W96
@  #08 @006   ----------------------------------------
 .byte   W96
@  #08 @007   ----------------------------------------
 .byte   W96
@  #08 @008   ----------------------------------------
 .byte   W96
@  #08 @009   ----------------------------------------
 .byte   W96
@  #08 @010   ----------------------------------------
 .byte   W96
@  #08 @011   ----------------------------------------
 .byte   W96
@  #08 @012   ----------------------------------------
 .byte   W96
@  #08 @013   ----------------------------------------
 .byte   W96
@  #08 @014   ----------------------------------------
 .byte   W96
@  #08 @015   ----------------------------------------
 .byte   W96
@  #08 @016   ----------------------------------------
 .byte   W96
@  #08 @017   ----------------------------------------
 .byte   W96
@  #08 @018   ----------------------------------------
 .byte   W96
@  #08 @019   ----------------------------------------
 .byte   W96
@  #08 @020   ----------------------------------------
 .byte   W96
@  #08 @021   ----------------------------------------
 .byte   W96
@  #08 @022   ----------------------------------------
 .byte   W96
@  #08 @023   ----------------------------------------
 .byte   W96
@  #08 @024   ----------------------------------------
 .byte   W96
@  #08 @025   ----------------------------------------
 .byte   W96
@  #08 @026   ----------------------------------------
 .byte   W96
@  #08 @027   ----------------------------------------
 .byte   W96
@  #08 @028   ----------------------------------------
Label_0117FD48:
 .byte   PAN , c_v-56
 .byte   N05 ,Fn3 ,v100
 .byte   W06
 .byte   N07 ,Cn3 ,v092
 .byte   W05
 .byte   PAN , c_v-48
 .byte   W01
 .byte   N05 ,Ds3
 .byte   W06
 .byte   Cn3
 .byte   W06
 .byte   PAN , c_v-40
 .byte   N05 ,Fn3
 .byte   W06
 .byte   N06 ,Cn3
 .byte   W05
 .byte   PAN , c_v-32
 .byte   W01
 .byte   N05 ,Ds3
 .byte   W06
 .byte   Cn3
 .byte   W06
 .byte   PAN , c_v-24
 .byte   N05 ,Fn3
 .byte   W06
 .byte   Cn3
 .byte   W05
 .byte   PAN , c_v-16
 .byte   W01
 .byte   N05 ,Ds3
 .byte   W06
 .byte   Cn3
 .byte   W02
 .byte   PAN , c_v-8
 .byte   W04
 .byte   PAN , c_v+0
 .byte   N04 ,Fn3
 .byte   W06
 .byte   N06 ,Cn3
 .byte   W05
 .byte   PAN , c_v+8
 .byte   W01
 .byte   N05 ,Ds3
 .byte   W06
 .byte   Cn3
 .byte   W06
 .byte   PEND 
@  #08 @029   ----------------------------------------
Label_0117FD8C:
 .byte   PAN , c_v+16
 .byte   N04 ,Fn3 ,v092
 .byte   W06
 .byte   N05 ,Cn3
 .byte   W05
 .byte   PAN , c_v+24
 .byte   W01
 .byte   N05 ,Ds3
 .byte   W06
 .byte   Cn3
 .byte   W06
 .byte   PAN , c_v+32
 .byte   N05 ,Fn3
 .byte   W06
 .byte   N06 ,Cn3
 .byte   W05
 .byte   PAN , c_v+40
 .byte   W01
 .byte   N05 ,Ds3
 .byte   W06
 .byte   N04 ,Cn3
 .byte   W06
 .byte   PAN , c_v+48
 .byte   N05 ,Fn3
 .byte   W06
 .byte   N06 ,Cn3
 .byte   W05
 .byte   PAN , c_v+56
 .byte   W01
 .byte   N05 ,Ds3
 .byte   W06
 .byte   N06 ,Cn3
 .byte   W02
 .byte   PAN , c_v+63
 .byte   W04
 .byte   PAN , c_v+63
 .byte   N05 ,Fn3
 .byte   W06
 .byte   N06 ,Cn3
 .byte   W05
 .byte   PAN , c_v+56
 .byte   W01
 .byte   N05 ,Ds3
 .byte   W06
 .byte   N03 ,Cn3
 .byte   W06
 .byte   PEND 
@  #08 @030   ----------------------------------------
Label_0117FDD3:
 .byte   PAN , c_v+48
 .byte   N07 ,Fs3 ,v092
 .byte   W06
 .byte   N06 ,As2
 .byte   W05
 .byte   PAN , c_v+40
 .byte   W01
 .byte   N05 ,Ds3
 .byte   W06
 .byte   N04 ,As2
 .byte   W06
 .byte   PAN , c_v+32
 .byte   N08 ,Fs3
 .byte   W06
 .byte   N06 ,As2
 .byte   W05
 .byte   PAN , c_v+24
 .byte   W01
 .byte   N05 ,Ds3
 .byte   W06
 .byte   N04 ,As2
 .byte   W06
 .byte   PAN , c_v+16
 .byte   N07 ,Fs3
 .byte   W06
 .byte   N06 ,As2
 .byte   W05
 .byte   PAN , c_v+8
 .byte   W01
 .byte   N05 ,Ds3
 .byte   W06
 .byte   N04 ,As2
 .byte   W02
 .byte   PAN , c_v+2
 .byte   W04
 .byte   PAN , c_v-6
 .byte   N07 ,Fs3
 .byte   W06
 .byte   N06 ,As2
 .byte   W05
 .byte   PAN , c_v-14
 .byte   W01
 .byte   N04 ,Ds3
 .byte   W06
 .byte   N05 ,As2
 .byte   W06
 .byte   PEND 
@  #08 @031   ----------------------------------------
Label_0117FE1B:
 .byte   PAN , c_v-22
 .byte   N07 ,Fs3 ,v092
 .byte   W06
 .byte   N06 ,As2
 .byte   W05
 .byte   PAN , c_v-30
 .byte   W01
 .byte   N05 ,Ds3
 .byte   W06
 .byte   N04 ,As2
 .byte   W06
 .byte   PAN , c_v-38
 .byte   N08 ,Fs3
 .byte   W06
 .byte   N06 ,As2
 .byte   W05
 .byte   PAN , c_v-46
 .byte   W01
 .byte   N05 ,Ds3
 .byte   W06
 .byte   N04 ,As2
 .byte   W06
 .byte   PAN , c_v-54
 .byte   N07 ,Fs3
 .byte   W06
 .byte   N06 ,As2
 .byte   W05
 .byte   PAN , c_v-62
 .byte   W01
 .byte   N05 ,Ds3
 .byte   W06
 .byte   N04 ,As2
 .byte   W02
 .byte   PAN , c_v+63
 .byte   W04
 .byte   PAN , c_v-64
 .byte   N07 ,Fs3
 .byte   W06
 .byte   N06 ,As2
 .byte   W05
 .byte   PAN , c_v-63
 .byte   W01
 .byte   N04 ,Ds3
 .byte   W06
 .byte   N05 ,As2
 .byte   W06
 .byte   PEND 
@  #08 @032   ----------------------------------------
Label_0117FE63:
 .byte   PAN , c_v-56
 .byte   N08 ,Gs2 ,v092
 .byte   N03 ,Fn3 ,v100
 .byte   W06
 .byte   N06 ,Cs3 ,v092
 .byte   W05
 .byte   PAN , c_v-48
 .byte   W01
 .byte   N07 ,Gs2
 .byte   W06
 .byte   N08 ,Fn3
 .byte   W06
 .byte   PAN , c_v-40
 .byte   N07 ,Gs2
 .byte   W06
 .byte   Cs3
 .byte   W05
 .byte   PAN , c_v-32
 .byte   W01
 .byte   N06 ,Gs2
 .byte   W06
 .byte   N08 ,Fn3
 .byte   W06
 .byte   PAN , c_v-24
 .byte   N08 ,Gs2
 .byte   W06
 .byte   Cs3
 .byte   W05
 .byte   PAN , c_v-16
 .byte   W01
 .byte   N07 ,Gs2
 .byte   W08
 .byte   PAN , c_v-8
 .byte   W04
 .byte   PAN , c_v+0
 .byte   N08 ,Fn3
 .byte   W06
 .byte   Gs2
 .byte   W05
 .byte   PAN , c_v+8
 .byte   W01
 .byte   N08 ,Cs3
 .byte   W06
 .byte   N05 ,Gs2
 .byte   W06
 .byte   PEND 
@  #08 @033   ----------------------------------------
Label_0117FEA9:
 .byte   PAN , c_v+16
 .byte   N08 ,Gs2 ,v092
 .byte   N03 ,Fn3 ,v100
 .byte   W06
 .byte   N06 ,Cs3 ,v092
 .byte   W05
 .byte   PAN , c_v+24
 .byte   W01
 .byte   N07 ,Gs2
 .byte   W06
 .byte   N08 ,Fn3
 .byte   W06
 .byte   PAN , c_v+32
 .byte   N07 ,Gs2
 .byte   W06
 .byte   Cs3
 .byte   W05
 .byte   PAN , c_v+40
 .byte   W01
 .byte   N06 ,Gs2
 .byte   W06
 .byte   N08 ,Fn3
 .byte   W06
 .byte   PAN , c_v+48
 .byte   N08 ,Gs2
 .byte   W06
 .byte   Cs3
 .byte   W05
 .byte   PAN , c_v+56
 .byte   W01
 .byte   N11 ,Gs2
 .byte   W08
 .byte   PAN , c_v+63
 .byte   W04
 .byte   PAN , c_v+63
 .byte   N08 ,Fn3
 .byte   W06
 .byte   Gs2
 .byte   W05
 .byte   PAN , c_v+56
 .byte   W01
 .byte   N08 ,Cs3
 .byte   W06
 .byte   N05 ,Gs2
 .byte   W06
 .byte   PEND 
@  #08 @034   ----------------------------------------
Label_0117FEEF:
 .byte   PAN , c_v+48
 .byte   N07 ,En3 ,v092
 .byte   W06
 .byte   Gn2
 .byte   W05
 .byte   PAN , c_v+40
 .byte   W01
 .byte   N05 ,Cn3
 .byte   W06
 .byte   Gn2
 .byte   W06
 .byte   PAN , c_v+32
 .byte   N07 ,En3
 .byte   W06
 .byte   Gn2
 .byte   W05
 .byte   PAN , c_v+24
 .byte   W01
 .byte   N07 ,Cn3
 .byte   W06
 .byte   N06 ,Gn2
 .byte   W06
 .byte   PAN , c_v+16
 .byte   N07 ,En3
 .byte   W06
 .byte   Gn2
 .byte   W05
 .byte   PAN , c_v+8
 .byte   W01
 .byte   N07 ,Cn3
 .byte   W06
 .byte   N06 ,Gn2
 .byte   W02
 .byte   PAN , c_v+2
 .byte   W04
 .byte   PAN , c_v-6
 .byte   N08 ,En3
 .byte   W06
 .byte   Gn2
 .byte   W06
 .byte   N07 ,Cn3
 .byte   W06
 .byte   N06 ,Gn2
 .byte   W06
 .byte   PEND 
@  #08 @035   ----------------------------------------
Label_0117FF2F:
 .byte   N07 ,En3 ,v092
 .byte   W06
 .byte   Gn2
 .byte   W06
 .byte   Cn3
 .byte   W06
 .byte   N06 ,Gn2
 .byte   W06
 .byte   N08 ,En3
 .byte   W06
 .byte   N07 ,Gn2
 .byte   W06
 .byte   N06 ,Cn3
 .byte   W06
 .byte   N05 ,Gn2
 .byte   W10
 .byte   Cn2 ,v108
 .byte   W06
 .byte   N04
 .byte   W06
 .byte   N05
 .byte   W06
 .byte   N12 ,Cs2
 .byte   W12
 .byte   N02 ,Cs2 ,v124
 .byte   W06
 .byte   N10 ,Ds2 ,v092
 .byte   W08
 .byte   PEND 
@  #08 @036   ----------------------------------------
 .byte   W96
@  #08 @037   ----------------------------------------
 .byte   W96
@  #08 @038   ----------------------------------------
 .byte   W96
@  #08 @039   ----------------------------------------
 .byte   W96
@  #08 @040   ----------------------------------------
 .byte   W96
@  #08 @041   ----------------------------------------
 .byte   W96
@  #08 @042   ----------------------------------------
 .byte   W96
@  #08 @043   ----------------------------------------
 .byte   W96
@  #08 @044   ----------------------------------------
Label_0117FF61:
 .byte   PAN , c_v-56
 .byte   N05 ,Fn3 ,v100
 .byte   W06
 .byte   N07 ,Cn3 ,v092
 .byte   W05
 .byte   PAN , c_v-48
 .byte   W01
 .byte   N05 ,Ds3
 .byte   W06
 .byte   Cn3
 .byte   W06
 .byte   PAN , c_v-40
 .byte   N05 ,Fn3
 .byte   W06
 .byte   N06 ,Cn3
 .byte   W05
 .byte   PAN , c_v-32
 .byte   W01
 .byte   N05 ,Ds3
 .byte   W06
 .byte   Cn3
 .byte   W06
 .byte   PAN , c_v-24
 .byte   N05 ,Fn3
 .byte   W06
 .byte   Cn3
 .byte   W05
 .byte   PAN , c_v-16
 .byte   W01
 .byte   N05 ,Ds3
 .byte   W06
 .byte   Cn3
 .byte   W02
 .byte   PAN , c_v-8
 .byte   W04
 .byte   PAN , c_v+0
 .byte   N04 ,Fn3
 .byte   W06
 .byte   N06 ,Cn3
 .byte   W05
 .byte   PAN , c_v+8
 .byte   W01
 .byte   N05 ,Ds3
 .byte   W06
 .byte   Cn3
 .byte   W06
 .byte   PEND 
@  #08 @045   ----------------------------------------
Label_0117FFA5:
 .byte   PAN , c_v+16
 .byte   N04 ,Fn3 ,v092
 .byte   W06
 .byte   N05 ,Cn3
 .byte   W05
 .byte   PAN , c_v+24
 .byte   W01
 .byte   N05 ,Ds3
 .byte   W06
 .byte   Cn3
 .byte   W06
 .byte   PAN , c_v+32
 .byte   N05 ,Fn3
 .byte   W06
 .byte   N06 ,Cn3
 .byte   W05
 .byte   PAN , c_v+40
 .byte   W01
 .byte   N05 ,Ds3
 .byte   W06
 .byte   N04 ,Cn3
 .byte   W06
 .byte   PAN , c_v+48
 .byte   N05 ,Fn3
 .byte   W06
 .byte   N06 ,Cn3
 .byte   W05
 .byte   PAN , c_v+56
 .byte   W01
 .byte   N05 ,Ds3
 .byte   W06
 .byte   N06 ,Cn3
 .byte   W02
 .byte   PAN , c_v+63
 .byte   W04
 .byte   PAN , c_v+63
 .byte   N05 ,Fn3
 .byte   W06
 .byte   N06 ,Cn3
 .byte   W05
 .byte   PAN , c_v+56
 .byte   W01
 .byte   N05 ,Ds3
 .byte   W06
 .byte   N03 ,Cn3
 .byte   W06
 .byte   PEND 
@  #08 @046   ----------------------------------------
Label_0117FFEC:
 .byte   PAN , c_v+48
 .byte   N05 ,Fn3 ,v100
 .byte   W06
 .byte   N07 ,Cn3 ,v092
 .byte   W05
 .byte   PAN , c_v+40
 .byte   W01
 .byte   N05 ,Ds3
 .byte   W06
 .byte   Cn3
 .byte   W06
 .byte   PAN , c_v+32
 .byte   N05 ,Fn3
 .byte   W06
 .byte   N06 ,Cn3
 .byte   W05
 .byte   PAN , c_v+24
 .byte   W01
 .byte   N05 ,Ds3
 .byte   W06
 .byte   Cn3
 .byte   W06
 .byte   PAN , c_v+16
 .byte   N05 ,Fn3
 .byte   W06
 .byte   Cn3
 .byte   W05
 .byte   PAN , c_v+8
 .byte   W01
 .byte   N05 ,Ds3
 .byte   W06
 .byte   Cn3
 .byte   W02
 .byte   PAN , c_v+2
 .byte   W04
 .byte   PAN , c_v-6
 .byte   N04 ,Fn3
 .byte   W06
 .byte   N06 ,Cn3
 .byte   W05
 .byte   PAN , c_v-14
 .byte   W01
 .byte   N05 ,Ds3
 .byte   W06
 .byte   Cn3
 .byte   W06
 .byte   PEND 
@  #08 @047   ----------------------------------------
Label_01180030:
 .byte   PAN , c_v-22
 .byte   N04 ,Fn3 ,v092
 .byte   W06
 .byte   N05 ,Cn3
 .byte   W05
 .byte   PAN , c_v-30
 .byte   W01
 .byte   N05 ,Ds3
 .byte   W06
 .byte   Cn3
 .byte   W06
 .byte   PAN , c_v-38
 .byte   N05 ,Fn3
 .byte   W06
 .byte   N06 ,Cn3
 .byte   W05
 .byte   PAN , c_v-46
 .byte   W01
 .byte   N05 ,Ds3
 .byte   W06
 .byte   N04 ,Cn3
 .byte   W06
 .byte   PAN , c_v-54
 .byte   N05 ,Fn3
 .byte   W06
 .byte   N06 ,Cn3
 .byte   W05
 .byte   PAN , c_v-62
 .byte   W01
 .byte   N05 ,Ds3
 .byte   W06
 .byte   N06 ,Cn3
 .byte   W02
 .byte   PAN , c_v+63
 .byte   W04
 .byte   PAN , c_v-64
 .byte   N05 ,Fn3
 .byte   W06
 .byte   N06 ,Cn3
 .byte   W05
 .byte   PAN , c_v-63
 .byte   W01
 .byte   N05 ,Ds3
 .byte   W06
 .byte   N03 ,Cn3
 .byte   W06
 .byte   PEND 
@  #08 @048   ----------------------------------------
Label_01180077:
 .byte   PAN , c_v-56
 .byte   N05 ,Fn3 ,v100
 .byte   W06
 .byte   N07 ,Cn3 ,v092
 .byte   W05
 .byte   PAN , c_v-48
 .byte   W01
 .byte   N05 ,Ds3
 .byte   W06
 .byte   Cn3
 .byte   W06
 .byte   PAN , c_v-40
 .byte   N05 ,Fn3
 .byte   W06
 .byte   N06 ,Cn3
 .byte   W05
 .byte   PAN , c_v-32
 .byte   W01
 .byte   N05 ,Ds3
 .byte   W06
 .byte   Cn3
 .byte   W06
 .byte   PAN , c_v-24
 .byte   N05 ,Fn3
 .byte   W06
 .byte   Cn3
 .byte   W05
 .byte   PAN , c_v-16
 .byte   W01
 .byte   N05 ,Ds3
 .byte   W06
 .byte   Cn3
 .byte   W02
 .byte   PAN , c_v-8
 .byte   W04
 .byte   PAN , c_v+0
 .byte   N04 ,Fn3
 .byte   W06
 .byte   N06 ,Cn3
 .byte   W05
 .byte   PAN , c_v+8
 .byte   W01
 .byte   N05 ,Ds3
 .byte   W06
 .byte   Cn3
 .byte   W06
 .byte   PEND 
@  #08 @049   ----------------------------------------
Label_011800BB:
 .byte   PAN , c_v-56
 .byte   N04 ,Fn3 ,v092
 .byte   W06
 .byte   N05 ,Cn3
 .byte   W05
 .byte   PAN , c_v-48
 .byte   W01
 .byte   N05 ,Ds3
 .byte   W06
 .byte   Cn3
 .byte   W06
 .byte   PAN , c_v-40
 .byte   N05 ,Fn3
 .byte   W06
 .byte   N06 ,Cn3
 .byte   W05
 .byte   PAN , c_v-32
 .byte   W01
 .byte   N05 ,Ds3
 .byte   W06
 .byte   N04 ,Cn3
 .byte   W06
 .byte   PAN , c_v-24
 .byte   N05 ,Fn3
 .byte   W06
 .byte   N06 ,Cn3
 .byte   W05
 .byte   PAN , c_v-16
 .byte   W01
 .byte   N05 ,Ds3
 .byte   W06
 .byte   N06 ,Cn3
 .byte   W02
 .byte   PAN , c_v-8
 .byte   W04
 .byte   PAN , c_v+0
 .byte   N05 ,Fn3
 .byte   W06
 .byte   N06 ,Cn3
 .byte   W05
 .byte   PAN , c_v+8
 .byte   W01
 .byte   N05 ,Ds3
 .byte   W06
 .byte   N03 ,Cn3
 .byte   W06
 .byte   PEND 
@  #08 @050   ----------------------------------------
Label_01180102:
 .byte   PAN , c_v+16
 .byte   N05 ,Fn3 ,v100
 .byte   W06
 .byte   N07 ,Cn3 ,v092
 .byte   W05
 .byte   PAN , c_v+24
 .byte   W01
 .byte   N05 ,Ds3
 .byte   W06
 .byte   Cn3
 .byte   W06
 .byte   PAN , c_v+32
 .byte   N05 ,Fn3
 .byte   W06
 .byte   N06 ,Cn3
 .byte   W05
 .byte   PAN , c_v+40
 .byte   W01
 .byte   N05 ,Ds3
 .byte   W06
 .byte   Cn3
 .byte   W06
 .byte   PAN , c_v+48
 .byte   N05 ,Fn3
 .byte   W06
 .byte   Cn3
 .byte   W05
 .byte   PAN , c_v+56
 .byte   W01
 .byte   N05 ,Ds3
 .byte   W06
 .byte   Cn3
 .byte   W02
 .byte   PAN , c_v+63
 .byte   W04
 .byte   PAN , c_v+63
 .byte   N04 ,Fn3
 .byte   W06
 .byte   N06 ,Cn3
 .byte   W05
 .byte   PAN , c_v+56
 .byte   W01
 .byte   N05 ,Ds3
 .byte   W06
 .byte   Cn3
 .byte   W06
 .byte   PEND 
@  #08 @051   ----------------------------------------
 .byte   PAN , c_v+48
 .byte   N04 ,Fn3
 .byte   W06
 .byte   N05 ,Cn3
 .byte   W05
 .byte   PAN , c_v+40
 .byte   W01
 .byte   N05 ,Ds3
 .byte   W06
 .byte   Cn3
 .byte   W06
 .byte   PAN , c_v+32
 .byte   N05 ,Fn3
 .byte   W06
 .byte   N06 ,Cn3
 .byte   W05
 .byte   PAN , c_v+24
 .byte   W01
 .byte   N05 ,Ds3
 .byte   W06
 .byte   N04 ,Cn3
 .byte   W06
 .byte   PAN , c_v+16
 .byte   N05 ,Fn3
 .byte   W06
 .byte   N06 ,Cn3
 .byte   W05
 .byte   PAN , c_v+8
 .byte   W01
 .byte   N05 ,Ds3
 .byte   W06
 .byte   N06 ,Cn3
 .byte   W02
 .byte   PAN , c_v+2
 .byte   W04
 .byte   PAN , c_v-6
 .byte   N05 ,Fn3
 .byte   W06
 .byte   N06 ,Cn3
 .byte   W05
 .byte   PAN , c_v-14
 .byte   W01
 .byte   N05 ,Ds3
 .byte   W06
 .byte   N03 ,Cn3
 .byte   W06
@  #08 @052   ----------------------------------------
 .byte   PAN , c_v-22
 .byte   W11
 .byte   PAN , c_v-30
 .byte   W13
 .byte   PAN , c_v-38
 .byte   W11
 .byte   PAN , c_v-46
 .byte   W01
 .byte   W12
 .byte   PAN , c_v-54
 .byte   W11
 .byte   PAN , c_v-62
 .byte   W01
 .byte   W08
 .byte   PAN , c_v+63
 .byte   W04
 .byte   PAN , c_v-64
 .byte   W11
 .byte   PAN , c_v-63
 .byte   W01
 .byte   W12
@  #08 @053   ----------------------------------------
 .byte   PATT
  .word Label_0117FF61
@  #08 @054   ----------------------------------------
 .byte   PATT
  .word Label_0117FFA5
@  #08 @055   ----------------------------------------
 .byte   PATT
  .word Label_0117FFEC
@  #08 @056   ----------------------------------------
 .byte   PATT
  .word Label_01180030
@  #08 @057   ----------------------------------------
 .byte   PATT
  .word Label_01180077
@  #08 @058   ----------------------------------------
 .byte   PATT
  .word Label_011800BB
@  #08 @059   ----------------------------------------
 .byte   PATT
  .word Label_01180102
@  #08 @060   ----------------------------------------
 .byte   W96
@  #08 @061   ----------------------------------------
 .byte   W96
@  #08 @062   ----------------------------------------
 .byte   W96
@  #08 @063   ----------------------------------------
 .byte   W96
@  #08 @064   ----------------------------------------
 .byte   W96
@  #08 @065   ----------------------------------------
 .byte   W96
@  #08 @066   ----------------------------------------
 .byte   W96
@  #08 @067   ----------------------------------------
 .byte   W96
@  #08 @068   ----------------------------------------
 .byte   PATT
  .word Label_0117FD48
@  #08 @069   ----------------------------------------
 .byte   PATT
  .word Label_0117FD8C
@  #08 @070   ----------------------------------------
 .byte   PATT
  .word Label_0117FDD3
@  #08 @071   ----------------------------------------
 .byte   PATT
  .word Label_0117FE1B
@  #08 @072   ----------------------------------------
 .byte   PATT
  .word Label_0117FE63
@  #08 @073   ----------------------------------------
 .byte   PATT
  .word Label_0117FEA9
@  #08 @074   ----------------------------------------
 .byte   PATT
  .word Label_0117FEEF
@  #08 @075   ----------------------------------------
 .byte   PATT
  .word Label_0117FF2F
@  #08 @076   ----------------------------------------
 .byte   W96
@  #08 @077   ----------------------------------------
 .byte   W96
@  #08 @078   ----------------------------------------
 .byte   W96
@  #08 @079   ----------------------------------------
 .byte   W96
@  #08 @080   ----------------------------------------
 .byte   W96
@  #08 @081   ----------------------------------------
 .byte   W96
@  #08 @082   ----------------------------------------
 .byte   W96
@  #08 @083   ----------------------------------------
 .byte   W96
@  #08 @084   ----------------------------------------
 .byte   W88
 .byte   W01
 .byte   GOTO
  .word Label_0117FD22
 .byte   FINE

@******************************************************@
	.align	2

Rave:
	.byte	8	@ NumTrks
	.byte	0	@ NumBlks
	.byte	Rave_pri	@ Priority
	.byte	Rave_rev	@ Reverb.
    
	.word	Rave_grp
    
	.word	Rave_001
	.word	Rave_002
	.word	Rave_003
	.word	Rave_004
	.word	Rave_005
	.word	Rave_006
	.word	Rave_007
	.word	Rave_008

	.end
