	.include "MPlayDef.s"

	.equ	RPGMaker1BGM022_grp, voicegroup000
	.equ	RPGMaker1BGM022_pri, 0
	.equ	RPGMaker1BGM022_rev, 0
	.equ	RPGMaker1BGM022_mvl, 127
	.equ	RPGMaker1BGM022_key, 0
	.equ	RPGMaker1BGM022_tbs, 1
	.equ	RPGMaker1BGM022_exg, 0
	.equ	RPGMaker1BGM022_cmp, 1

	.section .rodata
	.global	RPGMaker1BGM022
	.align	2


@**************** Track 1 (Midi-Chn.0) ****************@

RPGMaker1BGM022_001:
@ 000   ----------------------------------------
 .byte   KEYSH , RPGMaker1BGM022_key+0
 .byte   MODT 0
 .byte   LFOS 44
 .byte   VOICE , 56
 .byte   VOL , 62*RPGMaker1BGM022_mvl/mxv
 .byte   PAN , c_v+0
 .byte   TEMPO , 150*RPGMaker1BGM022_tbs/2
 .byte   VOL , 49*RPGMaker1BGM022_mvl/mxv
 .byte   MOD 0
 .byte   N48 ,En3 ,v088
 .byte   W03
 .byte   MOD 0
 .byte   VOL , 52*RPGMaker1BGM022_mvl/mxv
 .byte   W03
 .byte   MOD 0
 .byte   W01
 .byte   VOL , 56*RPGMaker1BGM022_mvl/mxv
 .byte   W03
 .byte   MOD 1
 .byte   VOL , 61*RPGMaker1BGM022_mvl/mxv
 .byte   W02
 .byte   VOL , 62*RPGMaker1BGM022_mvl/mxv
 .byte   MOD 1
 .byte   W36
 .byte   VOL , 49*RPGMaker1BGM022_mvl/mxv
 .byte   MOD 0
 .byte   N48 ,An3 ,v092
 .byte   W03
 .byte   MOD 0
 .byte   VOL , 52*RPGMaker1BGM022_mvl/mxv
 .byte   W03
 .byte   MOD 0
 .byte   W01
 .byte   VOL , 56*RPGMaker1BGM022_mvl/mxv
 .byte   W03
 .byte   MOD 1
 .byte   VOL , 61*RPGMaker1BGM022_mvl/mxv
 .byte   W02
 .byte   VOL , 62*RPGMaker1BGM022_mvl/mxv
 .byte   MOD 1
 .byte   W36
@ 001   ----------------------------------------
Label_0_01D8BC48:
 .byte   VOL , 49*RPGMaker1BGM022_mvl/mxv
 .byte   MOD 0
 .byte   VOL , 49*RPGMaker1BGM022_mvl/mxv
 .byte   N24 ,En3 ,v088
 .byte   W03
 .byte   VOL , 56*RPGMaker1BGM022_mvl/mxv
 .byte   W03
 .byte   VOL , 62*RPGMaker1BGM022_mvl/mxv
 .byte   W18
 .byte   VOL , 49*RPGMaker1BGM022_mvl/mxv
 .byte   N24 ,An3 ,v092
 .byte   W03
 .byte   VOL , 56*RPGMaker1BGM022_mvl/mxv
 .byte   W03
 .byte   VOL , 62*RPGMaker1BGM022_mvl/mxv
 .byte   W18
 .byte   VOL , 49*RPGMaker1BGM022_mvl/mxv
 .byte   N24 ,Cn4 ,v096
 .byte   W03
 .byte   VOL , 56*RPGMaker1BGM022_mvl/mxv
 .byte   W03
 .byte   VOL , 62*RPGMaker1BGM022_mvl/mxv
 .byte   W18
 .byte   VOL , 49*RPGMaker1BGM022_mvl/mxv
 .byte   N24 ,En4 ,v100
 .byte   W03
 .byte   VOL , 56*RPGMaker1BGM022_mvl/mxv
 .byte   W03
 .byte   VOL , 62*RPGMaker1BGM022_mvl/mxv
 .byte   W18
@ 002   ----------------------------------------
 .byte   VOL , 49*RPGMaker1BGM022_mvl/mxv
 .byte   MOD 0
 .byte   N36 ,Dn4
 .byte   W03
 .byte   MOD 0
 .byte   VOL , 56*RPGMaker1BGM022_mvl/mxv
 .byte   W03
 .byte   VOL , 62*RPGMaker1BGM022_mvl/mxv
 .byte   MOD 0
 .byte   W03
 .byte   MOD 1
 .byte   W03
 .byte   MOD 1
 .byte   W24
 .byte   MOD 0
 .byte   N06 ,Cn4 ,v096
 .byte   W06
 .byte   Bn3 ,v092
 .byte   W06
 .byte   VOL , 49*RPGMaker1BGM022_mvl/mxv
 .byte   MOD 0
 .byte   N96 ,An3
 .byte   W03
 .byte   MOD 0
 .byte   VOL , 52*RPGMaker1BGM022_mvl/mxv
 .byte   W03
 .byte   MOD 0
 .byte   W01
 .byte   VOL , 56*RPGMaker1BGM022_mvl/mxv
 .byte   W03
 .byte   MOD 1
 .byte   VOL , 61*RPGMaker1BGM022_mvl/mxv
 .byte   W02
 .byte   VOL , 62*RPGMaker1BGM022_mvl/mxv
 .byte   MOD 1
 .byte   W36
@ 003   ----------------------------------------
 .byte   W24
 .byte   VOL , 59*RPGMaker1BGM022_mvl/mxv
 .byte   W03
 .byte   VOL , 56*RPGMaker1BGM022_mvl/mxv
 .byte   W03
 .byte   VOL , 54*RPGMaker1BGM022_mvl/mxv
 .byte   W03
 .byte   VOL , 51*RPGMaker1BGM022_mvl/mxv
 .byte   W03
 .byte   VOL , 50*RPGMaker1BGM022_mvl/mxv
 .byte   W03
 .byte   VOL , 47*RPGMaker1BGM022_mvl/mxv
 .byte   W03
 .byte   VOL , 45*RPGMaker1BGM022_mvl/mxv
 .byte   W03
 .byte   VOL , 43*RPGMaker1BGM022_mvl/mxv
 .byte   W02
 .byte   VOL , 41*RPGMaker1BGM022_mvl/mxv
 .byte   W01
 .byte   VOL , 49*RPGMaker1BGM022_mvl/mxv
 .byte   MOD 0
 .byte   N24
 .byte   W03
 .byte   VOL , 56*RPGMaker1BGM022_mvl/mxv
 .byte   W03
 .byte   VOL , 62*RPGMaker1BGM022_mvl/mxv
 .byte   W18
 .byte   VOL , 49*RPGMaker1BGM022_mvl/mxv
 .byte   N24 ,Bn3
 .byte   W03
 .byte   VOL , 56*RPGMaker1BGM022_mvl/mxv
 .byte   W03
 .byte   VOL , 62*RPGMaker1BGM022_mvl/mxv
 .byte   W18
@ 004   ----------------------------------------
 .byte   VOL , 49*RPGMaker1BGM022_mvl/mxv
 .byte   MOD 0
 .byte   N36 ,Cn4 ,v096
 .byte   W03
 .byte   MOD 0
 .byte   VOL , 56*RPGMaker1BGM022_mvl/mxv
 .byte   W03
 .byte   VOL , 62*RPGMaker1BGM022_mvl/mxv
 .byte   MOD 0
 .byte   W03
 .byte   MOD 1
 .byte   W03
 .byte   MOD 1
 .byte   W24
 .byte   VOL , 49*RPGMaker1BGM022_mvl/mxv
 .byte   MOD 0
 .byte   N36 ,Bn3 ,v092
 .byte   W03
 .byte   MOD 0
 .byte   VOL , 56*RPGMaker1BGM022_mvl/mxv
 .byte   W03
 .byte   VOL , 62*RPGMaker1BGM022_mvl/mxv
 .byte   MOD 0
 .byte   W03
 .byte   MOD 1
 .byte   W03
 .byte   MOD 1
 .byte   W24
 .byte   VOL , 49*RPGMaker1BGM022_mvl/mxv
 .byte   MOD 0
 .byte   N24 ,An3
 .byte   W03
 .byte   VOL , 56*RPGMaker1BGM022_mvl/mxv
 .byte   W03
 .byte   VOL , 62*RPGMaker1BGM022_mvl/mxv
 .byte   W18
@ 005   ----------------------------------------
 .byte   VOL , 49*RPGMaker1BGM022_mvl/mxv
 .byte   MOD 0
 .byte   N90
 .byte   W03
 .byte   VOL , 52*RPGMaker1BGM022_mvl/mxv
 .byte   MOD 0
 .byte   W04
 .byte   VOL , 56*RPGMaker1BGM022_mvl/mxv
 .byte   MOD 0
 .byte   W03
 .byte   VOL , 61*RPGMaker1BGM022_mvl/mxv
 .byte   MOD 1
 .byte   W02
 .byte   VOL , 62*RPGMaker1BGM022_mvl/mxv
 .byte   W02
 .byte   MOD 1
 .byte   W04
 .byte   MOD 1
 .byte   W42
 .byte   VOL , 59*RPGMaker1BGM022_mvl/mxv
 .byte   W03
 .byte   VOL , 57*RPGMaker1BGM022_mvl/mxv
 .byte   W04
 .byte   VOL , 56*RPGMaker1BGM022_mvl/mxv
 .byte   W03
 .byte   VOL , 54*RPGMaker1BGM022_mvl/mxv
 .byte   W04
 .byte   VOL , 52*RPGMaker1BGM022_mvl/mxv
 .byte   W03
 .byte   VOL , 51*RPGMaker1BGM022_mvl/mxv
 .byte   W04
 .byte   VOL , 50*RPGMaker1BGM022_mvl/mxv
 .byte   W02
 .byte   VOL , 49*RPGMaker1BGM022_mvl/mxv
 .byte   W13
@ 006   ----------------------------------------
 .byte   VOL , 49*RPGMaker1BGM022_mvl/mxv
 .byte   MOD 0
 .byte   N36 ,Dn4 ,v100
 .byte   W03
 .byte   MOD 0
 .byte   VOL , 56*RPGMaker1BGM022_mvl/mxv
 .byte   W03
 .byte   VOL , 62*RPGMaker1BGM022_mvl/mxv
 .byte   MOD 0
 .byte   W03
 .byte   MOD 1
 .byte   W03
 .byte   MOD 1
 .byte   W24
 .byte   VOL , 49*RPGMaker1BGM022_mvl/mxv
 .byte   MOD 0
 .byte   N36 ,Cn4 ,v096
 .byte   W03
 .byte   MOD 0
 .byte   VOL , 56*RPGMaker1BGM022_mvl/mxv
 .byte   W03
 .byte   VOL , 62*RPGMaker1BGM022_mvl/mxv
 .byte   MOD 0
 .byte   W03
 .byte   MOD 1
 .byte   W03
 .byte   MOD 1
 .byte   W24
 .byte   VOL , 49*RPGMaker1BGM022_mvl/mxv
 .byte   MOD 0
 .byte   N24 ,Bn3 ,v092
 .byte   W03
 .byte   VOL , 56*RPGMaker1BGM022_mvl/mxv
 .byte   W03
 .byte   VOL , 62*RPGMaker1BGM022_mvl/mxv
 .byte   W18
@ 007   ----------------------------------------
 .byte   VOL , 49*RPGMaker1BGM022_mvl/mxv
 .byte   MOD 0
 .byte   N90
 .byte   W03
 .byte   VOL , 52*RPGMaker1BGM022_mvl/mxv
 .byte   MOD 0
 .byte   W04
 .byte   VOL , 56*RPGMaker1BGM022_mvl/mxv
 .byte   MOD 0
 .byte   W03
 .byte   VOL , 61*RPGMaker1BGM022_mvl/mxv
 .byte   MOD 1
 .byte   W02
 .byte   VOL , 62*RPGMaker1BGM022_mvl/mxv
 .byte   W02
 .byte   MOD 1
 .byte   W04
 .byte   MOD 1
 .byte   W42
 .byte   VOL , 59*RPGMaker1BGM022_mvl/mxv
 .byte   W03
 .byte   VOL , 57*RPGMaker1BGM022_mvl/mxv
 .byte   W04
 .byte   VOL , 56*RPGMaker1BGM022_mvl/mxv
 .byte   W03
 .byte   VOL , 54*RPGMaker1BGM022_mvl/mxv
 .byte   W04
 .byte   VOL , 52*RPGMaker1BGM022_mvl/mxv
 .byte   W03
 .byte   VOL , 51*RPGMaker1BGM022_mvl/mxv
 .byte   W04
 .byte   VOL , 50*RPGMaker1BGM022_mvl/mxv
 .byte   W02
 .byte   VOL , 49*RPGMaker1BGM022_mvl/mxv
 .byte   W13
@ 008   ----------------------------------------
 .byte   VOL , 49*RPGMaker1BGM022_mvl/mxv
 .byte   MOD 0
 .byte   N48 ,An3
 .byte   W03
 .byte   MOD 0
 .byte   VOL , 52*RPGMaker1BGM022_mvl/mxv
 .byte   W03
 .byte   MOD 0
 .byte   W01
 .byte   VOL , 56*RPGMaker1BGM022_mvl/mxv
 .byte   W03
 .byte   MOD 1
 .byte   VOL , 61*RPGMaker1BGM022_mvl/mxv
 .byte   W02
 .byte   VOL , 62*RPGMaker1BGM022_mvl/mxv
 .byte   MOD 1
 .byte   W36
 .byte   VOL , 49*RPGMaker1BGM022_mvl/mxv
 .byte   MOD 0
 .byte   N48 ,Cn4 ,v096
 .byte   W03
 .byte   MOD 0
 .byte   VOL , 52*RPGMaker1BGM022_mvl/mxv
 .byte   W03
 .byte   MOD 0
 .byte   W01
 .byte   VOL , 56*RPGMaker1BGM022_mvl/mxv
 .byte   W03
 .byte   MOD 1
 .byte   VOL , 61*RPGMaker1BGM022_mvl/mxv
 .byte   W02
 .byte   VOL , 62*RPGMaker1BGM022_mvl/mxv
 .byte   MOD 1
 .byte   W36
@ 009   ----------------------------------------
 .byte   VOL , 49*RPGMaker1BGM022_mvl/mxv
 .byte   MOD 0
 .byte   N24 ,An3 ,v092
 .byte   W03
 .byte   VOL , 56*RPGMaker1BGM022_mvl/mxv
 .byte   W03
 .byte   VOL , 62*RPGMaker1BGM022_mvl/mxv
 .byte   W18
 .byte   VOL , 49*RPGMaker1BGM022_mvl/mxv
 .byte   N24 ,Cn4 ,v096
 .byte   W03
 .byte   VOL , 56*RPGMaker1BGM022_mvl/mxv
 .byte   W03
 .byte   VOL , 62*RPGMaker1BGM022_mvl/mxv
 .byte   W18
 .byte   VOL , 49*RPGMaker1BGM022_mvl/mxv
 .byte   N24 ,En4 ,v100
 .byte   W03
 .byte   VOL , 56*RPGMaker1BGM022_mvl/mxv
 .byte   W03
 .byte   VOL , 62*RPGMaker1BGM022_mvl/mxv
 .byte   W18
 .byte   VOL , 49*RPGMaker1BGM022_mvl/mxv
 .byte   N24 ,An4 ,v104
 .byte   W03
 .byte   VOL , 56*RPGMaker1BGM022_mvl/mxv
 .byte   W03
 .byte   VOL , 62*RPGMaker1BGM022_mvl/mxv
 .byte   W18
@ 010   ----------------------------------------
 .byte   VOL , 49*RPGMaker1BGM022_mvl/mxv
 .byte   MOD 0
 .byte   N36
 .byte   W03
 .byte   MOD 0
 .byte   VOL , 56*RPGMaker1BGM022_mvl/mxv
 .byte   W03
 .byte   VOL , 62*RPGMaker1BGM022_mvl/mxv
 .byte   MOD 0
 .byte   W03
 .byte   MOD 1
 .byte   W03
 .byte   MOD 1
 .byte   W24
 .byte   MOD 0
 .byte   N06 ,Gs4 ,v100
 .byte   W06
 .byte   Gn4
 .byte   W06
 .byte   VOL , 49*RPGMaker1BGM022_mvl/mxv
 .byte   MOD 0
 .byte   N96 ,Fs4
 .byte   W03
 .byte   MOD 0
 .byte   VOL , 52*RPGMaker1BGM022_mvl/mxv
 .byte   W03
 .byte   MOD 0
 .byte   W01
 .byte   VOL , 56*RPGMaker1BGM022_mvl/mxv
 .byte   W03
 .byte   MOD 1
 .byte   VOL , 61*RPGMaker1BGM022_mvl/mxv
 .byte   W02
 .byte   VOL , 62*RPGMaker1BGM022_mvl/mxv
 .byte   MOD 1
 .byte   W36
@ 011   ----------------------------------------
 .byte   W24
 .byte   VOL , 59*RPGMaker1BGM022_mvl/mxv
 .byte   W03
 .byte   VOL , 56*RPGMaker1BGM022_mvl/mxv
 .byte   W03
 .byte   VOL , 54*RPGMaker1BGM022_mvl/mxv
 .byte   W03
 .byte   VOL , 51*RPGMaker1BGM022_mvl/mxv
 .byte   W03
 .byte   VOL , 50*RPGMaker1BGM022_mvl/mxv
 .byte   W03
 .byte   VOL , 47*RPGMaker1BGM022_mvl/mxv
 .byte   W03
 .byte   VOL , 45*RPGMaker1BGM022_mvl/mxv
 .byte   W03
 .byte   VOL , 43*RPGMaker1BGM022_mvl/mxv
 .byte   W02
 .byte   VOL , 41*RPGMaker1BGM022_mvl/mxv
 .byte   W01
 .byte   VOL , 49*RPGMaker1BGM022_mvl/mxv
 .byte   MOD 0
 .byte   N24
 .byte   W03
 .byte   VOL , 56*RPGMaker1BGM022_mvl/mxv
 .byte   W03
 .byte   VOL , 62*RPGMaker1BGM022_mvl/mxv
 .byte   W18
 .byte   VOL , 49*RPGMaker1BGM022_mvl/mxv
 .byte   N24 ,Gn4
 .byte   W03
 .byte   VOL , 56*RPGMaker1BGM022_mvl/mxv
 .byte   W03
 .byte   VOL , 62*RPGMaker1BGM022_mvl/mxv
 .byte   W18
@ 012   ----------------------------------------
 .byte   VOL , 49*RPGMaker1BGM022_mvl/mxv
 .byte   MOD 0
 .byte   N36 ,An4 ,v104
 .byte   W03
 .byte   MOD 0
 .byte   VOL , 56*RPGMaker1BGM022_mvl/mxv
 .byte   W03
 .byte   VOL , 62*RPGMaker1BGM022_mvl/mxv
 .byte   MOD 0
 .byte   W03
 .byte   MOD 1
 .byte   W03
 .byte   MOD 1
 .byte   W24
 .byte   VOL , 49*RPGMaker1BGM022_mvl/mxv
 .byte   MOD 0
 .byte   N36 ,Gn4 ,v100
 .byte   W03
 .byte   MOD 0
 .byte   VOL , 56*RPGMaker1BGM022_mvl/mxv
 .byte   W03
 .byte   VOL , 62*RPGMaker1BGM022_mvl/mxv
 .byte   MOD 0
 .byte   W03
 .byte   MOD 1
 .byte   W03
 .byte   MOD 1
 .byte   W24
 .byte   VOL , 49*RPGMaker1BGM022_mvl/mxv
 .byte   MOD 0
 .byte   N24 ,Fs4
 .byte   W03
 .byte   VOL , 56*RPGMaker1BGM022_mvl/mxv
 .byte   W03
 .byte   VOL , 62*RPGMaker1BGM022_mvl/mxv
 .byte   W18
@ 013   ----------------------------------------
 .byte   VOL , 49*RPGMaker1BGM022_mvl/mxv
 .byte   MOD 0
 .byte   N36 ,Bn4 ,v108
 .byte   W03
 .byte   MOD 0
 .byte   VOL , 56*RPGMaker1BGM022_mvl/mxv
 .byte   W03
 .byte   VOL , 62*RPGMaker1BGM022_mvl/mxv
 .byte   MOD 0
 .byte   W03
 .byte   MOD 1
 .byte   W03
 .byte   MOD 1
 .byte   W24
 .byte   VOL , 49*RPGMaker1BGM022_mvl/mxv
 .byte   MOD 0
 .byte   N36 ,An4 ,v104
 .byte   W03
 .byte   MOD 0
 .byte   VOL , 56*RPGMaker1BGM022_mvl/mxv
 .byte   W03
 .byte   VOL , 62*RPGMaker1BGM022_mvl/mxv
 .byte   MOD 0
 .byte   W03
 .byte   MOD 1
 .byte   W03
 .byte   MOD 1
 .byte   W24
 .byte   VOL , 49*RPGMaker1BGM022_mvl/mxv
 .byte   MOD 0
 .byte   N24 ,Bn4 ,v108
 .byte   W03
 .byte   VOL , 56*RPGMaker1BGM022_mvl/mxv
 .byte   W03
 .byte   VOL , 62*RPGMaker1BGM022_mvl/mxv
 .byte   W18
@ 014   ----------------------------------------
 .byte   VOL , 49*RPGMaker1BGM022_mvl/mxv
 .byte   MOD 0
 .byte   TIE ,Cs5
 .byte   W03
 .byte   VOL , 51*RPGMaker1BGM022_mvl/mxv
 .byte   MOD 0
 .byte   W03
 .byte   VOL , 53*RPGMaker1BGM022_mvl/mxv
 .byte   MOD 0
 .byte   W03
 .byte   VOL , 56*RPGMaker1BGM022_mvl/mxv
 .byte   MOD 0
 .byte   W03
 .byte   VOL , 57*RPGMaker1BGM022_mvl/mxv
 .byte   MOD 1
 .byte   W03
 .byte   VOL , 61*RPGMaker1BGM022_mvl/mxv
 .byte   W01
 .byte   MOD 1
 .byte   W02
 .byte   VOL , 62*RPGMaker1BGM022_mvl/mxv
 .byte   W01
 .byte   MOD 1
 .byte   W03
 .byte   MOD 1
 .byte   W02
 .byte   MOD 1
 .byte   W48
 .byte   VOL , 59*RPGMaker1BGM022_mvl/mxv
 .byte   W18
 .byte   VOL , 59*RPGMaker1BGM022_mvl/mxv
 .byte   W06
@ 015   ----------------------------------------
 .byte   W01
 .byte   VOL , 57*RPGMaker1BGM022_mvl/mxv
 .byte   W06
 .byte   VOL , 57*RPGMaker1BGM022_mvl/mxv
 .byte   W05
 .byte   VOL , 56*RPGMaker1BGM022_mvl/mxv
 .byte   W04
 .byte   VOL , 56*RPGMaker1BGM022_mvl/mxv
 .byte   W07
 .byte   VOL , 54*RPGMaker1BGM022_mvl/mxv
 .byte   W07
 .byte   VOL , 52*RPGMaker1BGM022_mvl/mxv
 .byte   W05
 .byte   VOL , 51*RPGMaker1BGM022_mvl/mxv
 .byte   W05
 .byte   VOL , 50*RPGMaker1BGM022_mvl/mxv
 .byte   W05
 .byte   VOL , 48*RPGMaker1BGM022_mvl/mxv
 .byte   W05
 .byte   VOL , 46*RPGMaker1BGM022_mvl/mxv
 .byte   W04
 .byte   VOL , 45*RPGMaker1BGM022_mvl/mxv
 .byte   W04
 .byte   VOL , 44*RPGMaker1BGM022_mvl/mxv
 .byte   W06
 .byte   VOL , 41*RPGMaker1BGM022_mvl/mxv
 .byte   W05
 .byte   VOL , 40*RPGMaker1BGM022_mvl/mxv
 .byte   W05
 .byte   VOL , 37*RPGMaker1BGM022_mvl/mxv
 .byte   W05
 .byte   VOL , 35*RPGMaker1BGM022_mvl/mxv
 .byte   W05
 .byte   VOL , 34*RPGMaker1BGM022_mvl/mxv
 .byte   W04
 .byte   VOL , 31*RPGMaker1BGM022_mvl/mxv
 .byte   W04
 .byte   VOL , 30*RPGMaker1BGM022_mvl/mxv
 .byte   W03
 .byte   VOL , 28*RPGMaker1BGM022_mvl/mxv
 .byte   W01
@ 016   ----------------------------------------
 .byte   EOT
 .byte   MOD 0
 .byte   W06
 .byte   VOL , 62*RPGMaker1BGM022_mvl/mxv
 .byte   W90
@ 017   ----------------------------------------
 .byte   W96
@ 018   ----------------------------------------
 .byte   W96
@ 019   ----------------------------------------
 .byte   W96
@ 020   ----------------------------------------
 .byte   W96
@ 021   ----------------------------------------
 .byte   W96
@ 022   ----------------------------------------
 .byte   W96
@ 023   ----------------------------------------
 .byte   W96
@ 024   ----------------------------------------
 .byte   W96
@ 025   ----------------------------------------
 .byte   W96
@ 026   ----------------------------------------
 .byte   W96
@ 027   ----------------------------------------
 .byte   W96
@ 028   ----------------------------------------
 .byte   W96
@ 029   ----------------------------------------
 .byte   W96
@ 030   ----------------------------------------
 .byte   W96
@ 031   ----------------------------------------
 .byte   W96
@ 032   ----------------------------------------
 .byte   VOL , 49*RPGMaker1BGM022_mvl/mxv
 .byte   MOD 0
 .byte   N48 ,En3 ,v088
 .byte   W03
 .byte   MOD 0
 .byte   VOL , 52*RPGMaker1BGM022_mvl/mxv
 .byte   W03
 .byte   MOD 0
 .byte   W01
 .byte   VOL , 56*RPGMaker1BGM022_mvl/mxv
 .byte   W03
 .byte   MOD 1
 .byte   VOL , 61*RPGMaker1BGM022_mvl/mxv
 .byte   W02
 .byte   VOL , 62*RPGMaker1BGM022_mvl/mxv
 .byte   MOD 1
 .byte   W36
 .byte   VOL , 49*RPGMaker1BGM022_mvl/mxv
 .byte   MOD 0
 .byte   N48 ,An3 ,v092
 .byte   W03
 .byte   MOD 0
 .byte   VOL , 52*RPGMaker1BGM022_mvl/mxv
 .byte   W03
 .byte   MOD 0
 .byte   W01
 .byte   VOL , 56*RPGMaker1BGM022_mvl/mxv
 .byte   W03
 .byte   MOD 1
 .byte   VOL , 61*RPGMaker1BGM022_mvl/mxv
 .byte   W02
 .byte   VOL , 62*RPGMaker1BGM022_mvl/mxv
 .byte   MOD 1
 .byte   W36
@ 033   ----------------------------------------
 .byte   GOTO
  .word Label_0_01D8BC48
 .byte   FINE

@**************** Track 2 (Midi-Chn.1) ****************@

RPGMaker1BGM022_002:
@ 000   ----------------------------------------
 .byte   KEYSH , RPGMaker1BGM022_key+0
 .byte   MODT 0
 .byte   LFOS 44
 .byte   VOICE , 56
 .byte   VOL , 57*RPGMaker1BGM022_mvl/mxv
 .byte   PAN , c_v+0
 .byte   BENDR, 2
 .byte   BEND , c_v+0
 .byte   W96
@ 001   ----------------------------------------
Label_1_01D8C01D:
 .byte   W96
@ 002   ----------------------------------------
 .byte   W96
@ 003   ----------------------------------------
 .byte   W96
@ 004   ----------------------------------------
 .byte   W96
@ 005   ----------------------------------------
 .byte   W96
@ 006   ----------------------------------------
 .byte   W96
@ 007   ----------------------------------------
 .byte   W96
@ 008   ----------------------------------------
 .byte   VOL , 45*RPGMaker1BGM022_mvl/mxv
 .byte   MOD 0
 .byte   N48 ,En3 ,v088
 .byte   W03
 .byte   MOD 0
 .byte   VOL , 49*RPGMaker1BGM022_mvl/mxv
 .byte   W03
 .byte   MOD 0
 .byte   W01
 .byte   VOL , 52*RPGMaker1BGM022_mvl/mxv
 .byte   W03
 .byte   MOD 1
 .byte   VOL , 56*RPGMaker1BGM022_mvl/mxv
 .byte   W02
 .byte   VOL , 57*RPGMaker1BGM022_mvl/mxv
 .byte   MOD 1
 .byte   W36
 .byte   VOL , 45*RPGMaker1BGM022_mvl/mxv
 .byte   MOD 0
 .byte   N48 ,An3 ,v092
 .byte   W03
 .byte   MOD 0
 .byte   VOL , 49*RPGMaker1BGM022_mvl/mxv
 .byte   W03
 .byte   MOD 0
 .byte   W01
 .byte   VOL , 52*RPGMaker1BGM022_mvl/mxv
 .byte   W03
 .byte   MOD 1
 .byte   VOL , 56*RPGMaker1BGM022_mvl/mxv
 .byte   W02
 .byte   VOL , 57*RPGMaker1BGM022_mvl/mxv
 .byte   MOD 1
 .byte   W36
@ 009   ----------------------------------------
 .byte   VOL , 45*RPGMaker1BGM022_mvl/mxv
 .byte   MOD 0
 .byte   N24 ,En3 ,v088
 .byte   W03
 .byte   VOL , 51*RPGMaker1BGM022_mvl/mxv
 .byte   W03
 .byte   VOL , 57*RPGMaker1BGM022_mvl/mxv
 .byte   W18
 .byte   VOL , 45*RPGMaker1BGM022_mvl/mxv
 .byte   N24 ,An3 ,v092
 .byte   W03
 .byte   VOL , 51*RPGMaker1BGM022_mvl/mxv
 .byte   W03
 .byte   VOL , 57*RPGMaker1BGM022_mvl/mxv
 .byte   W18
 .byte   VOL , 45*RPGMaker1BGM022_mvl/mxv
 .byte   N24 ,Cn4 ,v096
 .byte   W03
 .byte   VOL , 51*RPGMaker1BGM022_mvl/mxv
 .byte   W03
 .byte   VOL , 57*RPGMaker1BGM022_mvl/mxv
 .byte   W18
 .byte   VOL , 45*RPGMaker1BGM022_mvl/mxv
 .byte   N24 ,En4 ,v100
 .byte   W03
 .byte   VOL , 51*RPGMaker1BGM022_mvl/mxv
 .byte   W03
 .byte   VOL , 57*RPGMaker1BGM022_mvl/mxv
 .byte   W18
@ 010   ----------------------------------------
 .byte   VOL , 45*RPGMaker1BGM022_mvl/mxv
 .byte   MOD 0
 .byte   N36 ,Fs4 ,v104
 .byte   W03
 .byte   MOD 0
 .byte   VOL , 51*RPGMaker1BGM022_mvl/mxv
 .byte   W03
 .byte   VOL , 57*RPGMaker1BGM022_mvl/mxv
 .byte   MOD 0
 .byte   W03
 .byte   MOD 1
 .byte   W03
 .byte   MOD 1
 .byte   W24
 .byte   MOD 0
 .byte   N06 ,Fn4
 .byte   W06
 .byte   En4 ,v100
 .byte   W06
 .byte   VOL , 45*RPGMaker1BGM022_mvl/mxv
 .byte   MOD 0
 .byte   N96 ,Dn4 ,v096
 .byte   W03
 .byte   MOD 0
 .byte   VOL , 49*RPGMaker1BGM022_mvl/mxv
 .byte   W03
 .byte   MOD 0
 .byte   W01
 .byte   VOL , 52*RPGMaker1BGM022_mvl/mxv
 .byte   W03
 .byte   MOD 1
 .byte   VOL , 56*RPGMaker1BGM022_mvl/mxv
 .byte   W02
 .byte   VOL , 57*RPGMaker1BGM022_mvl/mxv
 .byte   MOD 1
 .byte   W36
@ 011   ----------------------------------------
 .byte   W24
 .byte   VOL , 54*RPGMaker1BGM022_mvl/mxv
 .byte   W03
 .byte   VOL , 52*RPGMaker1BGM022_mvl/mxv
 .byte   W03
 .byte   VOL , 50*RPGMaker1BGM022_mvl/mxv
 .byte   W03
 .byte   VOL , 48*RPGMaker1BGM022_mvl/mxv
 .byte   W03
 .byte   VOL , 45*RPGMaker1BGM022_mvl/mxv
 .byte   W03
 .byte   VOL , 44*RPGMaker1BGM022_mvl/mxv
 .byte   W03
 .byte   VOL , 41*RPGMaker1BGM022_mvl/mxv
 .byte   W03
 .byte   VOL , 40*RPGMaker1BGM022_mvl/mxv
 .byte   W02
 .byte   VOL , 38*RPGMaker1BGM022_mvl/mxv
 .byte   W01
 .byte   VOL , 45*RPGMaker1BGM022_mvl/mxv
 .byte   MOD 0
 .byte   N24
 .byte   W03
 .byte   VOL , 51*RPGMaker1BGM022_mvl/mxv
 .byte   W03
 .byte   VOL , 57*RPGMaker1BGM022_mvl/mxv
 .byte   W18
 .byte   VOL , 45*RPGMaker1BGM022_mvl/mxv
 .byte   N24 ,En4 ,v100
 .byte   W03
 .byte   VOL , 51*RPGMaker1BGM022_mvl/mxv
 .byte   W03
 .byte   VOL , 57*RPGMaker1BGM022_mvl/mxv
 .byte   W18
@ 012   ----------------------------------------
 .byte   VOL , 45*RPGMaker1BGM022_mvl/mxv
 .byte   MOD 0
 .byte   N36 ,Fn4 ,v104
 .byte   W03
 .byte   MOD 0
 .byte   VOL , 51*RPGMaker1BGM022_mvl/mxv
 .byte   W03
 .byte   VOL , 57*RPGMaker1BGM022_mvl/mxv
 .byte   MOD 0
 .byte   W03
 .byte   MOD 1
 .byte   W03
 .byte   MOD 1
 .byte   W24
 .byte   VOL , 45*RPGMaker1BGM022_mvl/mxv
 .byte   MOD 0
 .byte   N36 ,En4 ,v100
 .byte   W03
 .byte   MOD 0
 .byte   VOL , 51*RPGMaker1BGM022_mvl/mxv
 .byte   W03
 .byte   VOL , 57*RPGMaker1BGM022_mvl/mxv
 .byte   MOD 0
 .byte   W03
 .byte   MOD 1
 .byte   W03
 .byte   MOD 1
 .byte   W24
 .byte   VOL , 45*RPGMaker1BGM022_mvl/mxv
 .byte   MOD 0
 .byte   N24 ,Dn4 ,v096
 .byte   W03
 .byte   VOL , 51*RPGMaker1BGM022_mvl/mxv
 .byte   W03
 .byte   VOL , 57*RPGMaker1BGM022_mvl/mxv
 .byte   W18
@ 013   ----------------------------------------
 .byte   VOL , 45*RPGMaker1BGM022_mvl/mxv
 .byte   MOD 0
 .byte   N36 ,Gn4 ,v108
 .byte   W03
 .byte   MOD 0
 .byte   VOL , 51*RPGMaker1BGM022_mvl/mxv
 .byte   W03
 .byte   VOL , 57*RPGMaker1BGM022_mvl/mxv
 .byte   MOD 0
 .byte   W03
 .byte   MOD 1
 .byte   W03
 .byte   MOD 1
 .byte   W24
 .byte   VOL , 45*RPGMaker1BGM022_mvl/mxv
 .byte   MOD 0
 .byte   N36 ,En4 ,v100
 .byte   W03
 .byte   MOD 0
 .byte   VOL , 51*RPGMaker1BGM022_mvl/mxv
 .byte   W03
 .byte   VOL , 57*RPGMaker1BGM022_mvl/mxv
 .byte   MOD 0
 .byte   W03
 .byte   MOD 1
 .byte   W03
 .byte   MOD 1
 .byte   W24
 .byte   VOL , 45*RPGMaker1BGM022_mvl/mxv
 .byte   MOD 0
 .byte   N24 ,Gn4 ,v108
 .byte   W03
 .byte   VOL , 51*RPGMaker1BGM022_mvl/mxv
 .byte   W03
 .byte   VOL , 57*RPGMaker1BGM022_mvl/mxv
 .byte   W18
@ 014   ----------------------------------------
 .byte   VOL , 45*RPGMaker1BGM022_mvl/mxv
 .byte   MOD 0
 .byte   TIE ,An4
 .byte   W03
 .byte   VOL , 47*RPGMaker1BGM022_mvl/mxv
 .byte   MOD 0
 .byte   W03
 .byte   VOL , 49*RPGMaker1BGM022_mvl/mxv
 .byte   MOD 0
 .byte   W03
 .byte   VOL , 51*RPGMaker1BGM022_mvl/mxv
 .byte   MOD 0
 .byte   W03
 .byte   VOL , 53*RPGMaker1BGM022_mvl/mxv
 .byte   MOD 1
 .byte   W03
 .byte   VOL , 56*RPGMaker1BGM022_mvl/mxv
 .byte   W01
 .byte   MOD 1
 .byte   W02
 .byte   VOL , 57*RPGMaker1BGM022_mvl/mxv
 .byte   W01
 .byte   MOD 1
 .byte   W03
 .byte   MOD 1
 .byte   W02
 .byte   MOD 1
 .byte   W48
 .byte   VOL , 55*RPGMaker1BGM022_mvl/mxv
 .byte   W18
 .byte   VOL , 54*RPGMaker1BGM022_mvl/mxv
 .byte   W06
@ 015   ----------------------------------------
 .byte   W01
 .byte   VOL , 53*RPGMaker1BGM022_mvl/mxv
 .byte   W06
 .byte   VOL , 53*RPGMaker1BGM022_mvl/mxv
 .byte   W05
 .byte   VOL , 52*RPGMaker1BGM022_mvl/mxv
 .byte   W04
 .byte   VOL , 51*RPGMaker1BGM022_mvl/mxv
 .byte   W07
 .byte   VOL , 50*RPGMaker1BGM022_mvl/mxv
 .byte   W07
 .byte   VOL , 49*RPGMaker1BGM022_mvl/mxv
 .byte   W05
 .byte   VOL , 47*RPGMaker1BGM022_mvl/mxv
 .byte   W05
 .byte   VOL , 45*RPGMaker1BGM022_mvl/mxv
 .byte   W05
 .byte   VOL , 45*RPGMaker1BGM022_mvl/mxv
 .byte   W05
 .byte   VOL , 43*RPGMaker1BGM022_mvl/mxv
 .byte   W04
 .byte   VOL , 41*RPGMaker1BGM022_mvl/mxv
 .byte   W04
 .byte   VOL , 40*RPGMaker1BGM022_mvl/mxv
 .byte   W06
 .byte   VOL , 38*RPGMaker1BGM022_mvl/mxv
 .byte   W05
 .byte   VOL , 37*RPGMaker1BGM022_mvl/mxv
 .byte   W05
 .byte   VOL , 34*RPGMaker1BGM022_mvl/mxv
 .byte   W05
 .byte   VOL , 33*RPGMaker1BGM022_mvl/mxv
 .byte   W05
 .byte   VOL , 30*RPGMaker1BGM022_mvl/mxv
 .byte   W04
 .byte   VOL , 29*RPGMaker1BGM022_mvl/mxv
 .byte   W04
 .byte   VOL , 27*RPGMaker1BGM022_mvl/mxv
 .byte   W03
 .byte   VOL , 27*RPGMaker1BGM022_mvl/mxv
 .byte   W01
@ 016   ----------------------------------------
 .byte   EOT
 .byte   MOD 0
 .byte   W06
 .byte   VOL , 57*RPGMaker1BGM022_mvl/mxv
 .byte   W90
@ 017   ----------------------------------------
 .byte   W96
@ 018   ----------------------------------------
 .byte   W96
@ 019   ----------------------------------------
 .byte   W96
@ 020   ----------------------------------------
 .byte   W96
@ 021   ----------------------------------------
 .byte   W96
@ 022   ----------------------------------------
 .byte   W96
@ 023   ----------------------------------------
 .byte   W96
@ 024   ----------------------------------------
 .byte   W96
@ 025   ----------------------------------------
 .byte   W96
@ 026   ----------------------------------------
 .byte   W96
@ 027   ----------------------------------------
 .byte   W96
@ 028   ----------------------------------------
 .byte   W96
@ 029   ----------------------------------------
 .byte   W96
@ 030   ----------------------------------------
 .byte   W96
@ 031   ----------------------------------------
 .byte   W96
@ 032   ----------------------------------------
 .byte   W96
@ 033   ----------------------------------------
 .byte   GOTO
  .word Label_1_01D8C01D
 .byte   FINE

@**************** Track 3 (Midi-Chn.2) ****************@

RPGMaker1BGM022_003:
@ 000   ----------------------------------------
 .byte   KEYSH , RPGMaker1BGM022_key+0
 .byte   MODT 0
 .byte   LFOS 44
 .byte   VOICE , 4
 .byte   VOL , 21*RPGMaker1BGM022_mvl/mxv
 .byte   PAN , c_v+0
Label_2_01D8C5B0:
 .byte   N06 ,An2 ,v088
 .byte   W11

 .byte   W01
 .byte   N06 ,Cn3
 .byte   W06
 .byte   En3 ,v092
 .byte   W05

 .byte   W01
 .byte   N06 ,An2 ,v088
 .byte   W05

 .byte   W01
 .byte   N06 ,Cn3
 .byte   W05

 .byte   W01
 .byte   N06 ,En3 ,v092
 .byte   W05

 .byte   W01
 .byte   N06 ,Gn3 ,v096
 .byte   W05

 .byte   W01
 .byte   N06 ,An2 ,v088
 .byte   W11

 .byte   W01
 .byte   N06 ,Cn3
 .byte   W06
 .byte   En3 ,v092
 .byte   W05

 .byte   W01
 .byte   N06 ,An2 ,v088
 .byte   W05

 .byte   W01
 .byte   N06 ,Cn3
 .byte   W05

 .byte   W01
 .byte   N06 ,En3 ,v092
 .byte   W05

 .byte   W01
 .byte   N06 ,Gn3 ,v096
 .byte   W05

 .byte   W01
 .byte   PEND 
@ 001   ----------------------------------------
Label_2_01D8C607:
 .byte   N06 ,An2 ,v088
 .byte   W11

 .byte   W01
 .byte   N06 ,Cn3
 .byte   W06
 .byte   En3 ,v092
 .byte   W05

 .byte   W01
 .byte   N06 ,An2 ,v088
 .byte   W05

 .byte   W01
 .byte   N06 ,Cn3
 .byte   W05

 .byte   W01
 .byte   N06 ,En3 ,v092
 .byte   W05

 .byte   W01
 .byte   N06 ,Gn3 ,v096
 .byte   W05

 .byte   W01
 .byte   N06 ,An2 ,v088
 .byte   W11

 .byte   W01
 .byte   N06 ,Cn3
 .byte   W06
 .byte   En3 ,v092
 .byte   W05

 .byte   W01
 .byte   N06 ,An2 ,v088
 .byte   W05

 .byte   W01
 .byte   N06 ,Cn3
 .byte   W05

 .byte   W01
 .byte   N06 ,En3 ,v092
 .byte   W05

 .byte   W01
 .byte   N06 ,Gn3 ,v096
 .byte   W05

 .byte   W01
 .byte   PEND 
@ 002   ----------------------------------------
Label_2_01D8C65E:
 .byte   N06 ,An2 ,v088
 .byte   W11

 .byte   W01
 .byte   N06 ,Dn3 ,v092
 .byte   W06
 .byte   Fs3 ,v096
 .byte   W05

 .byte   W01
 .byte   N06 ,An2 ,v088
 .byte   W05

 .byte   W01
 .byte   N06 ,Dn3 ,v092
 .byte   W05

 .byte   W01
 .byte   N06 ,Fs3 ,v096
 .byte   W05

 .byte   W01
 .byte   N06 ,An3
 .byte   W05

 .byte   W01
 .byte   N06 ,An2 ,v088
 .byte   W11

 .byte   W01
 .byte   N06 ,Dn3 ,v092
 .byte   W06
 .byte   Fs3 ,v096
 .byte   W05

 .byte   W01
 .byte   N06 ,An2 ,v088
 .byte   W05

 .byte   W01
 .byte   N06 ,Dn3 ,v092
 .byte   W05

 .byte   W01
 .byte   N06 ,Fs3 ,v096
 .byte   W05

 .byte   W01
 .byte   N06 ,An3
 .byte   W05

 .byte   W01
 .byte   PEND 
@ 003   ----------------------------------------
Label_2_01D8C6B7:
 .byte   N06 ,An2 ,v088
 .byte   W11

 .byte   W01
 .byte   N06 ,Dn3 ,v092
 .byte   W06
 .byte   Fs3 ,v096
 .byte   W05

 .byte   W01
 .byte   N06 ,An2 ,v088
 .byte   W05

 .byte   W01
 .byte   N06 ,Dn3 ,v092
 .byte   W05

 .byte   W01
 .byte   N06 ,Fs3 ,v096
 .byte   W05

 .byte   W01
 .byte   N06 ,An3
 .byte   W05

 .byte   W01
 .byte   N06 ,An2 ,v088
 .byte   W11

 .byte   W01
 .byte   N06 ,Dn3 ,v092
 .byte   W06
 .byte   Fs3 ,v096
 .byte   W05

 .byte   W01
 .byte   N06 ,An2 ,v088
 .byte   W05

 .byte   W01
 .byte   N06 ,Dn3 ,v092
 .byte   W05

 .byte   W01
 .byte   N06 ,Fs3 ,v096
 .byte   W05

 .byte   W01
 .byte   N06 ,An3
 .byte   W05

 .byte   W01
 .byte   PEND 
@ 004   ----------------------------------------
Label_2_01D8C710:
 .byte   N06 ,An2 ,v088
 .byte   W11

 .byte   W01
 .byte   N06 ,Cn3
 .byte   W06
 .byte   Fn3 ,v096
 .byte   W05

 .byte   W01
 .byte   N06 ,An2 ,v088
 .byte   W05

 .byte   W01
 .byte   N06 ,Cn3
 .byte   W05

 .byte   W01
 .byte   N06 ,Fn3 ,v096
 .byte   W05

 .byte   W01
 .byte   N06 ,An3
 .byte   W05

 .byte   W01
 .byte   N06 ,An2 ,v088
 .byte   W11

 .byte   W01
 .byte   N06 ,Cn3
 .byte   W06
 .byte   Fn3 ,v096
 .byte   W05

 .byte   W01
 .byte   N06 ,An2 ,v088
 .byte   W05

 .byte   W01
 .byte   N06 ,Cn3
 .byte   W05

 .byte   W01
 .byte   N06 ,Fn3 ,v096
 .byte   W05

 .byte   W01
 .byte   N06 ,An3
 .byte   W05

 .byte   W01
 .byte   PEND 
@ 005   ----------------------------------------
 .byte   N06 ,An2 ,v088
 .byte   W11

 .byte   W01
 .byte   N06 ,Cn3
 .byte   W06
 .byte   Fn3 ,v096
 .byte   W05

 .byte   W01
 .byte   N06 ,An2 ,v088
 .byte   W05

 .byte   W01
 .byte   N06 ,Cn3
 .byte   W05

 .byte   W01
 .byte   N06 ,Fn3 ,v096
 .byte   W05

 .byte   W01
 .byte   N06 ,An3
 .byte   W05

 .byte   W01
 .byte   N06 ,An2 ,v088
 .byte   W11

 .byte   W01
 .byte   N06 ,Cn3
 .byte   W06
 .byte   Fn3 ,v096
 .byte   W05

 .byte   W01
 .byte   N06 ,An2 ,v088
 .byte   W05

 .byte   W01
 .byte   N06 ,Cn3
 .byte   W05

 .byte   W01
 .byte   N06 ,Fn3 ,v096
 .byte   W05

 .byte   W01
 .byte   N06 ,An3
 .byte   W05

 .byte   W01
@ 006   ----------------------------------------
 .byte   N06 ,Bn2 ,v088
 .byte   W11

 .byte   W01
 .byte   N06 ,Dn3 ,v092
 .byte   W06
 .byte   Gn3 ,v096
 .byte   W05

 .byte   W01
 .byte   N06 ,Bn2 ,v088
 .byte   W05

 .byte   W01
 .byte   N06 ,Dn3 ,v092
 .byte   W05

 .byte   W01
 .byte   N06 ,Gn3 ,v096
 .byte   W05

 .byte   W01
 .byte   N06 ,Bn3 ,v100
 .byte   W05

 .byte   W01
 .byte   N06 ,Bn2 ,v088
 .byte   W11

 .byte   W01
 .byte   N06 ,Dn3 ,v092
 .byte   W06
 .byte   Gn3 ,v096
 .byte   W05

 .byte   W01
 .byte   N06 ,Bn2 ,v088
 .byte   W05

 .byte   W01
 .byte   N06 ,Dn3 ,v092
 .byte   W05

 .byte   W01
 .byte   N06 ,Gn3 ,v096
 .byte   W05

 .byte   W01
 .byte   N06 ,Bn3 ,v100
 .byte   W05

 .byte   W01
@ 007   ----------------------------------------
 .byte   N06 ,Bn2 ,v088
 .byte   W11

 .byte   W01
 .byte   N06 ,Dn3 ,v092
 .byte   W06
 .byte   Gn3 ,v096
 .byte   W05

 .byte   W01
 .byte   N06 ,Bn2 ,v088
 .byte   W05

 .byte   W01
 .byte   N06 ,Dn3 ,v092
 .byte   W05

 .byte   W01
 .byte   N06 ,Gn3 ,v096
 .byte   W05

 .byte   W01
 .byte   N06 ,Bn3 ,v100
 .byte   W05

 .byte   W01
 .byte   N06 ,Bn2 ,v088
 .byte   W11

 .byte   W01
 .byte   N06 ,Dn3 ,v092
 .byte   W06
 .byte   Gn3 ,v096
 .byte   W05

 .byte   W01
 .byte   N06 ,Bn2 ,v088
 .byte   W05

 .byte   W01
 .byte   N06 ,Dn3 ,v092
 .byte   W05

 .byte   W01
 .byte   N06 ,Gn3 ,v096
 .byte   W05

 .byte   W01
 .byte   N06 ,Bn3 ,v100
 .byte   W05

 .byte   W01
@ 008   ----------------------------------------
 .byte   PATT
  .word Label_2_01D8C5B0
@ 009   ----------------------------------------
 .byte   PATT
  .word Label_2_01D8C607
@ 010   ----------------------------------------
 .byte   PATT
  .word Label_2_01D8C65E
@ 011   ----------------------------------------
 .byte   PATT
  .word Label_2_01D8C6B7
@ 012   ----------------------------------------
 .byte   PATT
  .word Label_2_01D8C710
@ 013   ----------------------------------------
 .byte   N06 ,Bn2 ,v088
 .byte   W11

 .byte   W01
 .byte   N06 ,Dn3 ,v092
 .byte   W06
 .byte   Gn3 ,v096
 .byte   W05

 .byte   W01
 .byte   N06 ,Bn2 ,v088
 .byte   W05

 .byte   W01
 .byte   N06 ,Dn3 ,v092
 .byte   W05

 .byte   W01
 .byte   N06 ,Gn3 ,v096
 .byte   W05

 .byte   W01
 .byte   N06 ,Bn3 ,v100
 .byte   W05

 .byte   W01
 .byte   N06 ,Bn2 ,v088
 .byte   W11

 .byte   W01
 .byte   N06 ,Dn3 ,v092
 .byte   W06
 .byte   Gn3 ,v096
 .byte   W05

 .byte   W01
 .byte   N06 ,Bn2 ,v088
 .byte   W05

 .byte   W01
 .byte   N06 ,Dn3 ,v092
 .byte   W05

 .byte   W01
 .byte   N06 ,Gn3 ,v096
 .byte   W05

 .byte   W01
 .byte   N06 ,Bn3 ,v100
 .byte   W05

 .byte   W01
@ 014   ----------------------------------------
 .byte   N06 ,An2 ,v088
 .byte   W11

 .byte   W01
 .byte   N06 ,Cs3
 .byte   W06
 .byte   En3 ,v092
 .byte   W05

 .byte   W01
 .byte   N06 ,An2 ,v088
 .byte   W05

 .byte   W01
 .byte   N06 ,Cs3
 .byte   W05

 .byte   W01
 .byte   N06 ,En3 ,v092
 .byte   W05

 .byte   W01
 .byte   N06 ,An3 ,v096
 .byte   W05

 .byte   W01
 .byte   N06 ,An2 ,v088
 .byte   W11

 .byte   W01
 .byte   N06 ,Cs3
 .byte   W06
 .byte   En3 ,v092
 .byte   W05

 .byte   W01
 .byte   N06 ,An2 ,v088
 .byte   W05

 .byte   W01
 .byte   N06 ,Cs3
 .byte   W05

 .byte   W01
 .byte   N06 ,En3 ,v092
 .byte   W05

 .byte   W01
 .byte   N06 ,An3 ,v096
 .byte   W05

 .byte   W01
@ 015   ----------------------------------------
 .byte   N06 ,An2 ,v088
 .byte   W11

 .byte   W01
 .byte   N06 ,Cs3
 .byte   W06
 .byte   En3 ,v092
 .byte   W05

 .byte   W01
 .byte   N06 ,An2 ,v088
 .byte   W05

 .byte   W01
 .byte   N06 ,Cs3
 .byte   W05

 .byte   W01
 .byte   N06 ,En3 ,v092
 .byte   W05

 .byte   W01
 .byte   N06 ,An3 ,v096
 .byte   W05

 .byte   W01
 .byte   N06 ,An2 ,v088
 .byte   W11

 .byte   W01
 .byte   N06 ,Cs3
 .byte   W06
 .byte   En3 ,v092
 .byte   W05

 .byte   W01
 .byte   N06 ,An2 ,v088
 .byte   W05

 .byte   W01
 .byte   N06 ,Cs3
 .byte   W05

 .byte   W01
 .byte   N06 ,En3 ,v092
 .byte   W05

 .byte   W01
 .byte   N06 ,An3 ,v096
 .byte   W06
@ 016   ----------------------------------------
 .byte   W96
@ 017   ----------------------------------------
 .byte   W96
@ 018   ----------------------------------------
 .byte   W96
@ 019   ----------------------------------------
 .byte   W96
@ 020   ----------------------------------------
 .byte   W96
@ 021   ----------------------------------------
 .byte   W96
@ 022   ----------------------------------------
 .byte   W96
@ 023   ----------------------------------------
 .byte   W96
@ 024   ----------------------------------------
 .byte   W96
@ 025   ----------------------------------------
 .byte   W96
@ 026   ----------------------------------------
 .byte   W96
@ 027   ----------------------------------------
 .byte   W96
@ 028   ----------------------------------------
 .byte   W96
@ 029   ----------------------------------------
 .byte   W96
@ 030   ----------------------------------------
 .byte   W96
@ 031   ----------------------------------------
 .byte   W92
 .byte   W03

 .byte   W01
@ 032   ----------------------------------------
 .byte   PATT
  .word Label_2_01D8C5B0
@ 033   ----------------------------------------
 .byte   GOTO
  .word Label_2_01D8C607
 .byte   FINE

@**************** Track 4 (Midi-Chn.3) ****************@

RPGMaker1BGM022_004:
@ 000   ----------------------------------------
 .byte   KEYSH , RPGMaker1BGM022_key+0
 .byte   MODT 0
 .byte   LFOS 44
 .byte   VOICE , 33
 .byte   VOL , 73*RPGMaker1BGM022_mvl/mxv
 .byte   PAN , c_v+0
Label_3_01D8B460:
 .byte   N11 ,An0 ,v100
 .byte   W12
 .byte   N11
 .byte   W72
 .byte   En0 ,v096
 .byte   W12
 .byte   PEND 
@ 001   ----------------------------------------
Label_3_01D8B46A:
 .byte   N11 ,An0 ,v100
 .byte   W12
 .byte   N11
 .byte   W84
 .byte   PEND 
@ 002   ----------------------------------------
Label_3_01D8B471:
 .byte   N11 ,Fs0 ,v100
 .byte   W12
 .byte   N11
 .byte   W72
 .byte   Cs0 ,v092
 .byte   W12
 .byte   PEND 
@ 003   ----------------------------------------
Label_3_01D8B47B:
 .byte   N11 ,Fs0 ,v100
 .byte   W12
 .byte   N11
 .byte   W84
 .byte   PEND 
@ 004   ----------------------------------------
 .byte   Fn0 ,v096
 .byte   W12
 .byte   N11
 .byte   W72
 .byte   Cn0 ,v092
 .byte   W12
@ 005   ----------------------------------------
 .byte   Fn0 ,v096
 .byte   W12
 .byte   N11
 .byte   W84
@ 006   ----------------------------------------
 .byte   Gn0 ,v100
 .byte   W12
 .byte   N11
 .byte   W84
@ 007   ----------------------------------------
 .byte   En0 ,v096
 .byte   W12
 .byte   N11
 .byte   W60
 .byte   N23 ,Gn0 ,v100
 .byte   W24
@ 008   ----------------------------------------
 .byte   PATT
  .word Label_3_01D8B460
@ 009   ----------------------------------------
 .byte   PATT
  .word Label_3_01D8B46A
@ 010   ----------------------------------------
 .byte   PATT
  .word Label_3_01D8B471
@ 011   ----------------------------------------
 .byte   PATT
  .word Label_3_01D8B47B
@ 012   ----------------------------------------
 .byte   N11 ,En0 ,v096
 .byte   W12
 .byte   N11
 .byte   W84
@ 013   ----------------------------------------
 .byte   Gn0 ,v100
 .byte   W12
 .byte   N11
 .byte   W60
 .byte   En0 ,v096
 .byte   W12
 .byte   Gn0 ,v100
 .byte   W12
@ 014   ----------------------------------------
 .byte   PATT
  .word Label_3_01D8B460
@ 015   ----------------------------------------
 .byte   PATT
  .word Label_3_01D8B46A
@ 016   ----------------------------------------
 .byte   N11 ,Dn0 ,v092
 .byte   W12
 .byte   N11
 .byte   W72
 .byte   Fn0 ,v096
 .byte   W12
@ 017   ----------------------------------------
 .byte   Dn1 ,v108
 .byte   W12
 .byte   N11
 .byte   W36
 .byte   En1
 .byte   W12
 .byte   Dn1
 .byte   W12
 .byte   N23 ,An0 ,v100
 .byte   W24
@ 018   ----------------------------------------
 .byte   N11 ,Cs0 ,v092
 .byte   W12
 .byte   N11
 .byte   W72
 .byte   Gs0 ,v100
 .byte   W12
@ 019   ----------------------------------------
 .byte   Cs1 ,v104
 .byte   W12
 .byte   N11
 .byte   W60
 .byte   Gs0 ,v100
 .byte   W12
 .byte   Cs1 ,v104
 .byte   W12
@ 020   ----------------------------------------
Label_3_01D8B4F6:
 .byte   N11 ,Cn0 ,v092
 .byte   W12
 .byte   N11
 .byte   W72
 .byte   Gn0 ,v100
 .byte   W12
 .byte   PEND 
@ 021   ----------------------------------------
 .byte   Cn1 ,v104
 .byte   W12
 .byte   N11
 .byte   W84
@ 022   ----------------------------------------
 .byte   Bn0 ,v100
 .byte   W12
 .byte   N11
 .byte   W84
@ 023   ----------------------------------------
 .byte   N11
 .byte   W12
 .byte   N11
 .byte   W12
 .byte   Fn0 ,v096
 .byte   W12
 .byte   Bn0 ,v100
 .byte   W12
 .byte   N23 ,Cn0 ,v092
 .byte   W24
 .byte   N11 ,Fn0 ,v096
 .byte   W12
 .byte   Bn0 ,v100
 .byte   W12
@ 024   ----------------------------------------
 .byte   Dn0 ,v092
 .byte   W12
 .byte   N11
 .byte   W72
 .byte   An0 ,v100
 .byte   W12
@ 025   ----------------------------------------
 .byte   Dn1 ,v108
 .byte   W12
 .byte   N11
 .byte   W60
 .byte   En1
 .byte   W12
 .byte   Dn1
 .byte   W12
@ 026   ----------------------------------------
 .byte   Cs1 ,v104
 .byte   W12
 .byte   N11
 .byte   W72
 .byte   Gs0 ,v100
 .byte   W12
@ 027   ----------------------------------------
 .byte   Cs0 ,v092
 .byte   W12
 .byte   N11
 .byte   W84
@ 028   ----------------------------------------
 .byte   PATT
  .word Label_3_01D8B4F6
@ 029   ----------------------------------------
 .byte   N11 ,Cn1 ,v104
 .byte   W12
 .byte   N11
 .byte   W60
 .byte   N23 ,Cn0 ,v092
 .byte   W24
@ 030   ----------------------------------------
 .byte   N11 ,Cs0
 .byte   W12
 .byte   N11
 .byte   W48
 .byte   An0 ,v100
 .byte   W12
 .byte   Dn1 ,v108
 .byte   W12
 .byte   An0 ,v100
 .byte   W12
@ 031   ----------------------------------------
 .byte   En0 ,v096
 .byte   W12
 .byte   N11
 .byte   W48
 .byte   Bn0 ,v104
 .byte   W12
 .byte   En1 ,v108
 .byte   W12
 .byte   Bn0 ,v104
 .byte   W12
@ 032   ----------------------------------------
 .byte   PATT
  .word Label_3_01D8B460
@ 033   ----------------------------------------
 .byte   GOTO
  .word Label_3_01D8B46A
 .byte   FINE

@**************** Track 5 (Midi-Chn.4) ****************@

RPGMaker1BGM022_005:
@ 000   ----------------------------------------
 .byte   KEYSH , RPGMaker1BGM022_key+0
 .byte   MODT 0
 .byte   LFOS 44
 .byte   VOICE , 73
 .byte   VOL , 62*RPGMaker1BGM022_mvl/mxv
 .byte   PAN , c_v+4
 .byte   W96
@ 001   ----------------------------------------
Label_4_01D8C2C1:
 .byte   W96
@ 002   ----------------------------------------
 .byte   W96
@ 003   ----------------------------------------
 .byte   W96
@ 004   ----------------------------------------
 .byte   W96
@ 005   ----------------------------------------
 .byte   W96
@ 006   ----------------------------------------
 .byte   W96
@ 007   ----------------------------------------
 .byte   W96
@ 008   ----------------------------------------
 .byte   W96
@ 009   ----------------------------------------
 .byte   W96
@ 010   ----------------------------------------
 .byte   W96
@ 011   ----------------------------------------
 .byte   W96
@ 012   ----------------------------------------
 .byte   W96
@ 013   ----------------------------------------
 .byte   W96
@ 014   ----------------------------------------
 .byte   W96
@ 015   ----------------------------------------
 .byte   W96
@ 016   ----------------------------------------
Label_4_01D8C2D0:
 .byte   VOL , 41*RPGMaker1BGM022_mvl/mxv
 .byte   MOD 0
 .byte   N48 ,Cs4 ,v088
 .byte   W03
 .byte   VOL , 46*RPGMaker1BGM022_mvl/mxv
 .byte   MOD 0
 .byte   W03
 .byte   VOL , 51*RPGMaker1BGM022_mvl/mxv
 .byte   MOD 0
 .byte   W03
 .byte   VOL , 57*RPGMaker1BGM022_mvl/mxv
 .byte   W01
 .byte   MOD 1
 .byte   W02
 .byte   VOL , 62*RPGMaker1BGM022_mvl/mxv
 .byte   MOD 1
 .byte   W36
 .byte   VOL , 41*RPGMaker1BGM022_mvl/mxv
 .byte   MOD 0
 .byte   N48 ,Fs4 ,v092
 .byte   W03
 .byte   VOL , 46*RPGMaker1BGM022_mvl/mxv
 .byte   MOD 0
 .byte   W03
 .byte   VOL , 51*RPGMaker1BGM022_mvl/mxv
 .byte   MOD 0
 .byte   W03
 .byte   VOL , 57*RPGMaker1BGM022_mvl/mxv
 .byte   W01
 .byte   MOD 1
 .byte   W02
 .byte   VOL , 62*RPGMaker1BGM022_mvl/mxv
 .byte   MOD 1
 .byte   W36
 .byte   PEND 
@ 017   ----------------------------------------
Label_4_01D8C30B:
 .byte   VOL , 49*RPGMaker1BGM022_mvl/mxv
 .byte   MOD 0
 .byte   N24 ,Cs4 ,v088
 .byte   W03
 .byte   VOL , 56*RPGMaker1BGM022_mvl/mxv
 .byte   W03
 .byte   VOL , 62*RPGMaker1BGM022_mvl/mxv
 .byte   W18
 .byte   VOL , 49*RPGMaker1BGM022_mvl/mxv
 .byte   N24 ,Fs4 ,v092
 .byte   W03
 .byte   VOL , 56*RPGMaker1BGM022_mvl/mxv
 .byte   W03
 .byte   VOL , 62*RPGMaker1BGM022_mvl/mxv
 .byte   W18
 .byte   VOL , 49*RPGMaker1BGM022_mvl/mxv
 .byte   N24 ,Gs4 ,v096
 .byte   W03
 .byte   VOL , 56*RPGMaker1BGM022_mvl/mxv
 .byte   W03
 .byte   VOL , 62*RPGMaker1BGM022_mvl/mxv
 .byte   W18
 .byte   VOL , 49*RPGMaker1BGM022_mvl/mxv
 .byte   N24 ,An4 ,v100
 .byte   W03
 .byte   VOL , 56*RPGMaker1BGM022_mvl/mxv
 .byte   W03
 .byte   VOL , 62*RPGMaker1BGM022_mvl/mxv
 .byte   W18
 .byte   PEND 
@ 018   ----------------------------------------
 .byte   Cs2
 .byte   MOD 0
 .byte   N36 ,Gs4 ,v096
 .byte   W03
 .byte   MOD 0
 .byte   VOL , 52*RPGMaker1BGM022_mvl/mxv
 .byte   W03
 .byte   MOD 0
 .byte   W01
 .byte   VOL , 56*RPGMaker1BGM022_mvl/mxv
 .byte   W02
 .byte   MOD 1
 .byte   W01
 .byte   VOL , 61*RPGMaker1BGM022_mvl/mxv
 .byte   W02
 .byte   VOL , 62*RPGMaker1BGM022_mvl/mxv
 .byte   MOD 1
 .byte   W24
 .byte   MOD 0
 .byte   N12 ,Fs4 ,v092
 .byte   W12
 .byte   VOL , 41*RPGMaker1BGM022_mvl/mxv
 .byte   MOD 0
 .byte   TIE ,En4 ,v088
 .byte   W03
 .byte   VOL , 46*RPGMaker1BGM022_mvl/mxv
 .byte   MOD 0
 .byte   W03
 .byte   VOL , 51*RPGMaker1BGM022_mvl/mxv
 .byte   MOD 0
 .byte   W03
 .byte   VOL , 57*RPGMaker1BGM022_mvl/mxv
 .byte   W01
 .byte   MOD 1
 .byte   W02
 .byte   VOL , 62*RPGMaker1BGM022_mvl/mxv
 .byte   MOD 1
 .byte   W36
@ 019   ----------------------------------------
 .byte   W36
 .byte   VOL , 59*RPGMaker1BGM022_mvl/mxv
 .byte   W03
 .byte   VOL , 56*RPGMaker1BGM022_mvl/mxv
 .byte   W03
 .byte   VOL , 54*RPGMaker1BGM022_mvl/mxv
 .byte   W03
 .byte   VOL , 51*RPGMaker1BGM022_mvl/mxv
 .byte   W03
 .byte   VOL , 50*RPGMaker1BGM022_mvl/mxv
 .byte   W03
 .byte   VOL , 47*RPGMaker1BGM022_mvl/mxv
 .byte   W03
 .byte   VOL , 45*RPGMaker1BGM022_mvl/mxv
 .byte   W03
 .byte   VOL , 43*RPGMaker1BGM022_mvl/mxv
 .byte   W02
 .byte   VOL , 41*RPGMaker1BGM022_mvl/mxv
 .byte   W01
 .byte   EOT
 .byte   W12
 .byte   VOL , 49*RPGMaker1BGM022_mvl/mxv
 .byte   MOD 0
 .byte   N24 ,Fs4 ,v092
 .byte   W03
 .byte   VOL , 56*RPGMaker1BGM022_mvl/mxv
 .byte   W03
 .byte   VOL , 62*RPGMaker1BGM022_mvl/mxv
 .byte   W18
@ 020   ----------------------------------------
Label_4_01D8C3AA:
 .byte   VOL , 49*RPGMaker1BGM022_mvl/mxv
 .byte   MOD 0
 .byte   N36 ,Gn4 ,v092
 .byte   W03
 .byte   MOD 0
 .byte   VOL , 52*RPGMaker1BGM022_mvl/mxv
 .byte   W03
 .byte   MOD 0
 .byte   W01
 .byte   VOL , 56*RPGMaker1BGM022_mvl/mxv
 .byte   W02
 .byte   MOD 1
 .byte   W01
 .byte   VOL , 61*RPGMaker1BGM022_mvl/mxv
 .byte   W02
 .byte   VOL , 62*RPGMaker1BGM022_mvl/mxv
 .byte   MOD 1
 .byte   W24
 .byte   VOL , 49*RPGMaker1BGM022_mvl/mxv
 .byte   MOD 0
 .byte   N36 ,Fs4
 .byte   W03
 .byte   MOD 0
 .byte   VOL , 52*RPGMaker1BGM022_mvl/mxv
 .byte   W03
 .byte   MOD 0
 .byte   W01
 .byte   VOL , 56*RPGMaker1BGM022_mvl/mxv
 .byte   W02
 .byte   MOD 1
 .byte   W01
 .byte   VOL , 61*RPGMaker1BGM022_mvl/mxv
 .byte   W02
 .byte   VOL , 62*RPGMaker1BGM022_mvl/mxv
 .byte   MOD 1
 .byte   W24
 .byte   VOL , 49*RPGMaker1BGM022_mvl/mxv
 .byte   MOD 0
 .byte   N24 ,En4 ,v088
 .byte   W03
 .byte   VOL , 56*RPGMaker1BGM022_mvl/mxv
 .byte   W03
 .byte   VOL , 62*RPGMaker1BGM022_mvl/mxv
 .byte   W18
 .byte   PEND 
@ 021   ----------------------------------------
 .byte   Fn1
 .byte   MOD 0
 .byte   N72
 .byte   W03
 .byte   VOL , 46*RPGMaker1BGM022_mvl/mxv
 .byte   MOD 0
 .byte   W03
 .byte   VOL , 51*RPGMaker1BGM022_mvl/mxv
 .byte   MOD 0
 .byte   W03
 .byte   VOL , 57*RPGMaker1BGM022_mvl/mxv
 .byte   W01
 .byte   MOD 1
 .byte   W02
 .byte   VOL , 62*RPGMaker1BGM022_mvl/mxv
 .byte   MOD 1
 .byte   W60
 .byte   VOL , 49*RPGMaker1BGM022_mvl/mxv
 .byte   MOD 0
 .byte   N24 ,Gn4 ,v092
 .byte   W03
 .byte   VOL , 56*RPGMaker1BGM022_mvl/mxv
 .byte   W03
 .byte   VOL , 62*RPGMaker1BGM022_mvl/mxv
 .byte   W18
@ 022   ----------------------------------------
 .byte   VOL , 49*RPGMaker1BGM022_mvl/mxv
 .byte   MOD 0
 .byte   N36 ,Fs4
 .byte   W03
 .byte   MOD 0
 .byte   VOL , 52*RPGMaker1BGM022_mvl/mxv
 .byte   W03
 .byte   MOD 0
 .byte   W01
 .byte   VOL , 56*RPGMaker1BGM022_mvl/mxv
 .byte   W02
 .byte   MOD 1
 .byte   W01
 .byte   VOL , 61*RPGMaker1BGM022_mvl/mxv
 .byte   W02
 .byte   VOL , 62*RPGMaker1BGM022_mvl/mxv
 .byte   MOD 1
 .byte   W24
 .byte   MOD 0
 .byte   N12 ,Dn4 ,v088
 .byte   W12
 .byte   VOL , 41*RPGMaker1BGM022_mvl/mxv
 .byte   MOD 0
 .byte   TIE ,Fs4 ,v092
 .byte   W03
 .byte   VOL , 46*RPGMaker1BGM022_mvl/mxv
 .byte   MOD 0
 .byte   W03
 .byte   VOL , 51*RPGMaker1BGM022_mvl/mxv
 .byte   MOD 0
 .byte   W03
 .byte   VOL , 57*RPGMaker1BGM022_mvl/mxv
 .byte   W01
 .byte   MOD 1
 .byte   W02
 .byte   VOL , 62*RPGMaker1BGM022_mvl/mxv
 .byte   MOD 1
 .byte   W36
@ 023   ----------------------------------------
 .byte   W60
 .byte   VOL , 59*RPGMaker1BGM022_mvl/mxv
 .byte   W03
 .byte   VOL , 56*RPGMaker1BGM022_mvl/mxv
 .byte   W03
 .byte   VOL , 54*RPGMaker1BGM022_mvl/mxv
 .byte   W03
 .byte   VOL , 51*RPGMaker1BGM022_mvl/mxv
 .byte   W03
 .byte   VOL , 50*RPGMaker1BGM022_mvl/mxv
 .byte   W03
 .byte   VOL , 47*RPGMaker1BGM022_mvl/mxv
 .byte   W03
 .byte   VOL , 45*RPGMaker1BGM022_mvl/mxv
 .byte   W03
 .byte   VOL , 43*RPGMaker1BGM022_mvl/mxv
 .byte   W02
 .byte   VOL , 41*RPGMaker1BGM022_mvl/mxv
 .byte   W01
 .byte   EOT
 .byte   VOL , 62*RPGMaker1BGM022_mvl/mxv
 .byte   MOD 0
 .byte   W12
@ 024   ----------------------------------------
 .byte   PATT
  .word Label_4_01D8C2D0
@ 025   ----------------------------------------
 .byte   PATT
  .word Label_4_01D8C30B
@ 026   ----------------------------------------
 .byte   VOL , 49*RPGMaker1BGM022_mvl/mxv
 .byte   MOD 0
 .byte   N36 ,Gs4 ,v096
 .byte   W03
 .byte   MOD 0
 .byte   VOL , 52*RPGMaker1BGM022_mvl/mxv
 .byte   W03
 .byte   MOD 0
 .byte   W01
 .byte   VOL , 56*RPGMaker1BGM022_mvl/mxv
 .byte   W02
 .byte   MOD 1
 .byte   W01
 .byte   VOL , 61*RPGMaker1BGM022_mvl/mxv
 .byte   W02
 .byte   VOL , 62*RPGMaker1BGM022_mvl/mxv
 .byte   MOD 1
 .byte   W24
 .byte   MOD 0
 .byte   N12 ,Fs4 ,v092
 .byte   W12
 .byte   VOL , 41*RPGMaker1BGM022_mvl/mxv
 .byte   MOD 0
 .byte   N90 ,En4 ,v088
 .byte   W03
 .byte   VOL , 46*RPGMaker1BGM022_mvl/mxv
 .byte   MOD 0
 .byte   W03
 .byte   VOL , 51*RPGMaker1BGM022_mvl/mxv
 .byte   MOD 0
 .byte   W03
 .byte   VOL , 57*RPGMaker1BGM022_mvl/mxv
 .byte   W01
 .byte   MOD 1
 .byte   W02
 .byte   VOL , 62*RPGMaker1BGM022_mvl/mxv
 .byte   MOD 1
 .byte   W36
@ 027   ----------------------------------------
 .byte   W18
 .byte   VOL , 59*RPGMaker1BGM022_mvl/mxv
 .byte   W03
 .byte   VOL , 57*RPGMaker1BGM022_mvl/mxv
 .byte   W04
 .byte   VOL , 56*RPGMaker1BGM022_mvl/mxv
 .byte   W04
 .byte   VOL , 54*RPGMaker1BGM022_mvl/mxv
 .byte   W03
 .byte   VOL , 52*RPGMaker1BGM022_mvl/mxv
 .byte   W04
 .byte   VOL , 51*RPGMaker1BGM022_mvl/mxv
 .byte   W04
 .byte   VOL , 50*RPGMaker1BGM022_mvl/mxv
 .byte   W02
 .byte   VOL , 49*RPGMaker1BGM022_mvl/mxv
 .byte   W06
 .byte   VOL , 49*RPGMaker1BGM022_mvl/mxv
 .byte   MOD 0
 .byte   N24
 .byte   W03
 .byte   VOL , 56*RPGMaker1BGM022_mvl/mxv
 .byte   W03
 .byte   VOL , 62*RPGMaker1BGM022_mvl/mxv
 .byte   W18
 .byte   VOL , 49*RPGMaker1BGM022_mvl/mxv
 .byte   N24 ,Fs4 ,v092
 .byte   W03
 .byte   VOL , 56*RPGMaker1BGM022_mvl/mxv
 .byte   W03
 .byte   VOL , 62*RPGMaker1BGM022_mvl/mxv
 .byte   W18
@ 028   ----------------------------------------
 .byte   PATT
  .word Label_4_01D8C3AA
@ 029   ----------------------------------------
Label_4_01D8C4FF:
 .byte   VOL , 41*RPGMaker1BGM022_mvl/mxv
 .byte   MOD 0
 .byte   N96 ,En4 ,v088
 .byte   W03
 .byte   VOL , 46*RPGMaker1BGM022_mvl/mxv
 .byte   MOD 0
 .byte   W03
 .byte   VOL , 51*RPGMaker1BGM022_mvl/mxv
 .byte   MOD 0
 .byte   W03
 .byte   VOL , 57*RPGMaker1BGM022_mvl/mxv
 .byte   W01
 .byte   MOD 1
 .byte   W02
 .byte   VOL , 62*RPGMaker1BGM022_mvl/mxv
 .byte   MOD 1
 .byte   W60
 .byte   VOL , 59*RPGMaker1BGM022_mvl/mxv
 .byte   W03
 .byte   VOL , 56*RPGMaker1BGM022_mvl/mxv
 .byte   W03
 .byte   VOL , 54*RPGMaker1BGM022_mvl/mxv
 .byte   W03
 .byte   VOL , 51*RPGMaker1BGM022_mvl/mxv
 .byte   W03
 .byte   VOL , 50*RPGMaker1BGM022_mvl/mxv
 .byte   W03
 .byte   VOL , 47*RPGMaker1BGM022_mvl/mxv
 .byte   W03
 .byte   VOL , 45*RPGMaker1BGM022_mvl/mxv
 .byte   W03
 .byte   VOL , 43*RPGMaker1BGM022_mvl/mxv
 .byte   W02
 .byte   VOL , 41*RPGMaker1BGM022_mvl/mxv
 .byte   W01
 .byte   PEND 
@ 030   ----------------------------------------
 .byte   Cs2
 .byte   MOD 0
 .byte   N36 ,An4 ,v100
 .byte   W03
 .byte   MOD 0
 .byte   VOL , 52*RPGMaker1BGM022_mvl/mxv
 .byte   W03
 .byte   MOD 0
 .byte   W01
 .byte   VOL , 56*RPGMaker1BGM022_mvl/mxv
 .byte   W02
 .byte   MOD 1
 .byte   W01
 .byte   VOL , 61*RPGMaker1BGM022_mvl/mxv
 .byte   W02
 .byte   VOL , 62*RPGMaker1BGM022_mvl/mxv
 .byte   MOD 1
 .byte   W24
 .byte   VOL , 49*RPGMaker1BGM022_mvl/mxv
 .byte   MOD 0
 .byte   N36 ,Gn4 ,v092
 .byte   W03
 .byte   MOD 0
 .byte   VOL , 52*RPGMaker1BGM022_mvl/mxv
 .byte   W03
 .byte   MOD 0
 .byte   W01
 .byte   VOL , 56*RPGMaker1BGM022_mvl/mxv
 .byte   W02
 .byte   MOD 1
 .byte   W01
 .byte   VOL , 61*RPGMaker1BGM022_mvl/mxv
 .byte   W02
 .byte   VOL , 62*RPGMaker1BGM022_mvl/mxv
 .byte   MOD 1
 .byte   W24
 .byte   VOL , 49*RPGMaker1BGM022_mvl/mxv
 .byte   MOD 0
 .byte   N24 ,Fs4
 .byte   W03
 .byte   VOL , 56*RPGMaker1BGM022_mvl/mxv
 .byte   W03
 .byte   VOL , 62*RPGMaker1BGM022_mvl/mxv
 .byte   W18
@ 031   ----------------------------------------
 .byte   PATT
  .word Label_4_01D8C4FF
@ 032   ----------------------------------------
 .byte   VOL , 62*RPGMaker1BGM022_mvl/mxv
 .byte   MOD 0
 .byte   W96
@ 033   ----------------------------------------
 .byte   GOTO
  .word Label_4_01D8C2C1
 .byte   FINE

@**************** Track 6 (Midi-Chn.5) ****************@

RPGMaker1BGM022_006:
@ 000   ----------------------------------------
 .byte   KEYSH , RPGMaker1BGM022_key+0
 .byte   MODT 0
 .byte   LFOS 44
 .byte   VOICE , 73
 .byte   VOL , 22*RPGMaker1BGM022_mvl/mxv
 .byte   PAN , c_v-8
 .byte   BENDR, 2
 .byte   BEND , c_v+0
 .byte   W96
@ 001   ----------------------------------------
Label_5_01D8B6E1:
 .byte   W96
@ 002   ----------------------------------------
 .byte   W96
@ 003   ----------------------------------------
 .byte   W96
@ 004   ----------------------------------------
 .byte   W96
@ 005   ----------------------------------------
 .byte   W96
@ 006   ----------------------------------------
 .byte   W96
@ 007   ----------------------------------------
 .byte   W96
@ 008   ----------------------------------------
 .byte   W96
@ 009   ----------------------------------------
 .byte   W96
@ 010   ----------------------------------------
 .byte   W96
@ 011   ----------------------------------------
 .byte   W96
@ 012   ----------------------------------------
 .byte   W96
@ 013   ----------------------------------------
 .byte   W96
@ 014   ----------------------------------------
 .byte   W96
@ 015   ----------------------------------------
 .byte   W96
@ 016   ----------------------------------------
 .byte   W18
 .byte   VOL , 15*RPGMaker1BGM022_mvl/mxv
 .byte   MOD 0
 .byte   N48 ,Cs4 ,v088
 .byte   W03
 .byte   VOL , 17*RPGMaker1BGM022_mvl/mxv
 .byte   MOD 0
 .byte   W03
 .byte   VOL , 18*RPGMaker1BGM022_mvl/mxv
 .byte   MOD 0
 .byte   W03
 .byte   VOL , 20*RPGMaker1BGM022_mvl/mxv
 .byte   W01
 .byte   MOD 1
 .byte   W02
 .byte   VOL , 22*RPGMaker1BGM022_mvl/mxv
 .byte   MOD 1
 .byte   W36
 .byte   VOL , 15*RPGMaker1BGM022_mvl/mxv
 .byte   MOD 0
 .byte   N48 ,Fs4 ,v092
 .byte   W03
 .byte   VOL , 17*RPGMaker1BGM022_mvl/mxv
 .byte   MOD 0
 .byte   W03
 .byte   VOL , 18*RPGMaker1BGM022_mvl/mxv
 .byte   MOD 0
 .byte   W03
 .byte   VOL , 20*RPGMaker1BGM022_mvl/mxv
 .byte   W01
 .byte   MOD 1
 .byte   W02
 .byte   VOL , 22*RPGMaker1BGM022_mvl/mxv
 .byte   MOD 1
 .byte   W18
@ 017   ----------------------------------------
Label_5_01D8B72B:
 .byte   W18
 .byte   VOL , 17*RPGMaker1BGM022_mvl/mxv
 .byte   MOD 0
 .byte   N24 ,Cs4 ,v088
 .byte   W03
 .byte   VOL , 20*RPGMaker1BGM022_mvl/mxv
 .byte   W03
 .byte   VOL , 22*RPGMaker1BGM022_mvl/mxv
 .byte   W18
 .byte   VOL , 17*RPGMaker1BGM022_mvl/mxv
 .byte   N24 ,Fs4 ,v092
 .byte   W03
 .byte   VOL , 20*RPGMaker1BGM022_mvl/mxv
 .byte   W03
 .byte   VOL , 22*RPGMaker1BGM022_mvl/mxv
 .byte   W18
 .byte   VOL , 17*RPGMaker1BGM022_mvl/mxv
 .byte   N24 ,Gs4 ,v096
 .byte   W03
 .byte   VOL , 20*RPGMaker1BGM022_mvl/mxv
 .byte   W03
 .byte   VOL , 22*RPGMaker1BGM022_mvl/mxv
 .byte   W18
 .byte   VOL , 17*RPGMaker1BGM022_mvl/mxv
 .byte   N24 ,An4 ,v100
 .byte   W03
 .byte   VOL , 20*RPGMaker1BGM022_mvl/mxv
 .byte   W03
 .byte   PEND 
@ 018   ----------------------------------------
 .byte   AsM1
 .byte   W18
 .byte   FnM1
 .byte   MOD 0
 .byte   N36 ,Gs4 ,v096
 .byte   W03
 .byte   MOD 0
 .byte   VOL , 19*RPGMaker1BGM022_mvl/mxv
 .byte   W03
 .byte   MOD 0
 .byte   W01
 .byte   VOL , 20*RPGMaker1BGM022_mvl/mxv
 .byte   W02
 .byte   MOD 1
 .byte   W01
 .byte   VOL , 22*RPGMaker1BGM022_mvl/mxv
 .byte   W02
 .byte   VOL , 22*RPGMaker1BGM022_mvl/mxv
 .byte   MOD 1
 .byte   W24
 .byte   MOD 0
 .byte   N12 ,Fs4 ,v092
 .byte   W12
 .byte   VOL , 15*RPGMaker1BGM022_mvl/mxv
 .byte   MOD 0
 .byte   TIE ,En4 ,v088
 .byte   W03
 .byte   VOL , 17*RPGMaker1BGM022_mvl/mxv
 .byte   MOD 0
 .byte   W03
 .byte   VOL , 18*RPGMaker1BGM022_mvl/mxv
 .byte   MOD 0
 .byte   W03
 .byte   VOL , 20*RPGMaker1BGM022_mvl/mxv
 .byte   W01
 .byte   MOD 1
 .byte   W02
 .byte   VOL , 22*RPGMaker1BGM022_mvl/mxv
 .byte   MOD 1
 .byte   W18
@ 019   ----------------------------------------
 .byte   W54
 .byte   VOL , 21*RPGMaker1BGM022_mvl/mxv
 .byte   W03
 .byte   VOL , 20*RPGMaker1BGM022_mvl/mxv
 .byte   W03
 .byte   VOL , 19*RPGMaker1BGM022_mvl/mxv
 .byte   W03
 .byte   VOL , 18*RPGMaker1BGM022_mvl/mxv
 .byte   W03
 .byte   VOL , 18*RPGMaker1BGM022_mvl/mxv
 .byte   W03
 .byte   VOL , 17*RPGMaker1BGM022_mvl/mxv
 .byte   W03
 .byte   VOL , 16*RPGMaker1BGM022_mvl/mxv
 .byte   W03
 .byte   VOL , 15*RPGMaker1BGM022_mvl/mxv
 .byte   W02
 .byte   VOL , 15*RPGMaker1BGM022_mvl/mxv
 .byte   W01
 .byte   EOT
 .byte   W12
 .byte   VOL , 17*RPGMaker1BGM022_mvl/mxv
 .byte   MOD 0
 .byte   N24 ,Fs4 ,v092
 .byte   W03
 .byte   VOL , 20*RPGMaker1BGM022_mvl/mxv
 .byte   W03
@ 020   ----------------------------------------
Label_5_01D8B7C7:
 .byte   VOL , 22*RPGMaker1BGM022_mvl/mxv
 .byte   W18
 .byte   VOL , 17*RPGMaker1BGM022_mvl/mxv
 .byte   MOD 0
 .byte   N36 ,Gn4 ,v092
 .byte   W03
 .byte   MOD 0
 .byte   VOL , 19*RPGMaker1BGM022_mvl/mxv
 .byte   W03
 .byte   MOD 0
 .byte   W01
 .byte   VOL , 20*RPGMaker1BGM022_mvl/mxv
 .byte   W02
 .byte   MOD 1
 .byte   W01
 .byte   VOL , 22*RPGMaker1BGM022_mvl/mxv
 .byte   W02
 .byte   VOL , 22*RPGMaker1BGM022_mvl/mxv
 .byte   MOD 1
 .byte   W24
 .byte   VOL , 17*RPGMaker1BGM022_mvl/mxv
 .byte   MOD 0
 .byte   N36 ,Fs4
 .byte   W03
 .byte   MOD 0
 .byte   VOL , 19*RPGMaker1BGM022_mvl/mxv
 .byte   W03
 .byte   MOD 0
 .byte   W01
 .byte   VOL , 20*RPGMaker1BGM022_mvl/mxv
 .byte   W02
 .byte   MOD 1
 .byte   W01
 .byte   VOL , 22*RPGMaker1BGM022_mvl/mxv
 .byte   W02
 .byte   VOL , 22*RPGMaker1BGM022_mvl/mxv
 .byte   MOD 1
 .byte   W24
 .byte   VOL , 17*RPGMaker1BGM022_mvl/mxv
 .byte   MOD 0
 .byte   N24 ,En4 ,v088
 .byte   W03
 .byte   VOL , 20*RPGMaker1BGM022_mvl/mxv
 .byte   W03
 .byte   PEND 
@ 021   ----------------------------------------
 .byte   AsM1
 .byte   W18
 .byte   DsM1
 .byte   MOD 0
 .byte   N72
 .byte   W03
 .byte   VOL , 17*RPGMaker1BGM022_mvl/mxv
 .byte   MOD 0
 .byte   W03
 .byte   VOL , 18*RPGMaker1BGM022_mvl/mxv
 .byte   MOD 0
 .byte   W03
 .byte   VOL , 20*RPGMaker1BGM022_mvl/mxv
 .byte   W01
 .byte   MOD 1
 .byte   W02
 .byte   VOL , 22*RPGMaker1BGM022_mvl/mxv
 .byte   MOD 1
 .byte   W60
 .byte   VOL , 17*RPGMaker1BGM022_mvl/mxv
 .byte   MOD 0
 .byte   N24 ,Gn4 ,v092
 .byte   W03
 .byte   VOL , 20*RPGMaker1BGM022_mvl/mxv
 .byte   W03
@ 022   ----------------------------------------
 .byte   VOL , 22*RPGMaker1BGM022_mvl/mxv
 .byte   W18
 .byte   VOL , 17*RPGMaker1BGM022_mvl/mxv
 .byte   MOD 0
 .byte   N36 ,Fs4
 .byte   W03
 .byte   MOD 0
 .byte   VOL , 19*RPGMaker1BGM022_mvl/mxv
 .byte   W03
 .byte   MOD 0
 .byte   W01
 .byte   VOL , 20*RPGMaker1BGM022_mvl/mxv
 .byte   W02
 .byte   MOD 1
 .byte   W01
 .byte   VOL , 22*RPGMaker1BGM022_mvl/mxv
 .byte   W02
 .byte   VOL , 22*RPGMaker1BGM022_mvl/mxv
 .byte   MOD 1
 .byte   W24
 .byte   MOD 0
 .byte   N12 ,Dn4 ,v088
 .byte   W12
 .byte   VOL , 15*RPGMaker1BGM022_mvl/mxv
 .byte   MOD 0
 .byte   TIE ,Fs4 ,v092
 .byte   W03
 .byte   VOL , 17*RPGMaker1BGM022_mvl/mxv
 .byte   MOD 0
 .byte   W03
 .byte   VOL , 18*RPGMaker1BGM022_mvl/mxv
 .byte   MOD 0
 .byte   W03
 .byte   VOL , 20*RPGMaker1BGM022_mvl/mxv
 .byte   W01
 .byte   MOD 1
 .byte   W02
 .byte   VOL , 22*RPGMaker1BGM022_mvl/mxv
 .byte   MOD 1
 .byte   W18
@ 023   ----------------------------------------
 .byte   W78
 .byte   VOL , 21*RPGMaker1BGM022_mvl/mxv
 .byte   W03
 .byte   VOL , 20*RPGMaker1BGM022_mvl/mxv
 .byte   W03
 .byte   VOL , 19*RPGMaker1BGM022_mvl/mxv
 .byte   W03
 .byte   VOL , 18*RPGMaker1BGM022_mvl/mxv
 .byte   W03
 .byte   VOL , 18*RPGMaker1BGM022_mvl/mxv
 .byte   W03
 .byte   VOL , 17*RPGMaker1BGM022_mvl/mxv
 .byte   W03
@ 024   ----------------------------------------
 .byte   VOL , 16*RPGMaker1BGM022_mvl/mxv
 .byte   W03
 .byte   VOL , 15*RPGMaker1BGM022_mvl/mxv
 .byte   W02
 .byte   VOL , 15*RPGMaker1BGM022_mvl/mxv
 .byte   W01
 .byte   EOT
 .byte   VOL , 22*RPGMaker1BGM022_mvl/mxv
 .byte   MOD 0
 .byte   W12
 .byte   VOL , 15*RPGMaker1BGM022_mvl/mxv
 .byte   MOD 0
 .byte   N48 ,Cs4 ,v088
 .byte   W03
 .byte   VOL , 17*RPGMaker1BGM022_mvl/mxv
 .byte   MOD 0
 .byte   W03
 .byte   VOL , 18*RPGMaker1BGM022_mvl/mxv
 .byte   MOD 0
 .byte   W03
 .byte   VOL , 20*RPGMaker1BGM022_mvl/mxv
 .byte   W01
 .byte   MOD 1
 .byte   W02
 .byte   VOL , 22*RPGMaker1BGM022_mvl/mxv
 .byte   MOD 1
 .byte   W36
 .byte   VOL , 15*RPGMaker1BGM022_mvl/mxv
 .byte   MOD 0
 .byte   N48 ,Fs4 ,v092
 .byte   W03
 .byte   VOL , 17*RPGMaker1BGM022_mvl/mxv
 .byte   MOD 0
 .byte   W03
 .byte   VOL , 18*RPGMaker1BGM022_mvl/mxv
 .byte   MOD 0
 .byte   W03
 .byte   VOL , 20*RPGMaker1BGM022_mvl/mxv
 .byte   W01
 .byte   MOD 1
 .byte   W02
 .byte   VOL , 22*RPGMaker1BGM022_mvl/mxv
 .byte   MOD 1
 .byte   W18
@ 025   ----------------------------------------
 .byte   PATT
  .word Label_5_01D8B72B
@ 026   ----------------------------------------
 .byte   VOL , 22*RPGMaker1BGM022_mvl/mxv
 .byte   W18
 .byte   VOL , 17*RPGMaker1BGM022_mvl/mxv
 .byte   MOD 0
 .byte   N36 ,Gs4 ,v096
 .byte   W03
 .byte   MOD 0
 .byte   VOL , 19*RPGMaker1BGM022_mvl/mxv
 .byte   W03
 .byte   MOD 0
 .byte   W01
 .byte   VOL , 20*RPGMaker1BGM022_mvl/mxv
 .byte   W02
 .byte   MOD 1
 .byte   W01
 .byte   VOL , 22*RPGMaker1BGM022_mvl/mxv
 .byte   W02
 .byte   VOL , 22*RPGMaker1BGM022_mvl/mxv
 .byte   MOD 1
 .byte   W24
 .byte   MOD 0
 .byte   N12 ,Fs4 ,v092
 .byte   W12
 .byte   VOL , 15*RPGMaker1BGM022_mvl/mxv
 .byte   MOD 0
 .byte   N90 ,En4 ,v088
 .byte   W03
 .byte   VOL , 17*RPGMaker1BGM022_mvl/mxv
 .byte   MOD 0
 .byte   W03
 .byte   VOL , 18*RPGMaker1BGM022_mvl/mxv
 .byte   MOD 0
 .byte   W03
 .byte   VOL , 20*RPGMaker1BGM022_mvl/mxv
 .byte   W01
 .byte   MOD 1
 .byte   W02
 .byte   VOL , 22*RPGMaker1BGM022_mvl/mxv
 .byte   MOD 1
 .byte   W18
@ 027   ----------------------------------------
 .byte   W36
 .byte   VOL , 21*RPGMaker1BGM022_mvl/mxv
 .byte   W03
 .byte   VOL , 20*RPGMaker1BGM022_mvl/mxv
 .byte   W04
 .byte   VOL , 20*RPGMaker1BGM022_mvl/mxv
 .byte   W04
 .byte   VOL , 19*RPGMaker1BGM022_mvl/mxv
 .byte   W03
 .byte   VOL , 19*RPGMaker1BGM022_mvl/mxv
 .byte   W04
 .byte   VOL , 18*RPGMaker1BGM022_mvl/mxv
 .byte   W04
 .byte   VOL , 18*RPGMaker1BGM022_mvl/mxv
 .byte   W02
 .byte   VOL , 17*RPGMaker1BGM022_mvl/mxv
 .byte   W06
 .byte   VOL , 17*RPGMaker1BGM022_mvl/mxv
 .byte   MOD 0
 .byte   N24
 .byte   W03
 .byte   VOL , 20*RPGMaker1BGM022_mvl/mxv
 .byte   W03
 .byte   VOL , 22*RPGMaker1BGM022_mvl/mxv
 .byte   W18
 .byte   VOL , 17*RPGMaker1BGM022_mvl/mxv
 .byte   N24 ,Fs4 ,v092
 .byte   W03
 .byte   VOL , 20*RPGMaker1BGM022_mvl/mxv
 .byte   W03
@ 028   ----------------------------------------
 .byte   PATT
  .word Label_5_01D8B7C7
@ 029   ----------------------------------------
Label_5_01D8B953:
 .byte   VOL , 22*RPGMaker1BGM022_mvl/mxv
 .byte   W18
 .byte   VOL , 15*RPGMaker1BGM022_mvl/mxv
 .byte   MOD 0
 .byte   N96 ,En4 ,v088
 .byte   W03
 .byte   VOL , 17*RPGMaker1BGM022_mvl/mxv
 .byte   MOD 0
 .byte   W03
 .byte   VOL , 18*RPGMaker1BGM022_mvl/mxv
 .byte   MOD 0
 .byte   W03
 .byte   VOL , 20*RPGMaker1BGM022_mvl/mxv
 .byte   W01
 .byte   MOD 1
 .byte   W02
 .byte   VOL , 22*RPGMaker1BGM022_mvl/mxv
 .byte   MOD 1
 .byte   W60
 .byte   VOL , 21*RPGMaker1BGM022_mvl/mxv
 .byte   W03
 .byte   VOL , 20*RPGMaker1BGM022_mvl/mxv
 .byte   W03
 .byte   PEND 
@ 030   ----------------------------------------
 .byte   GnM1
 .byte   W03
 .byte   FsM1
 .byte   W03
 .byte   FsM1
 .byte   W03
 .byte   FnM1
 .byte   W03
 .byte   EnM1
 .byte   W03
 .byte   DsM1
 .byte   W02
 .byte   DsM1
 .byte   W01
 .byte   FnM1
 .byte   MOD 0
 .byte   N36 ,An4 ,v100
 .byte   W03
 .byte   MOD 0
 .byte   VOL , 19*RPGMaker1BGM022_mvl/mxv
 .byte   W03
 .byte   MOD 0
 .byte   W01
 .byte   VOL , 20*RPGMaker1BGM022_mvl/mxv
 .byte   W02
 .byte   MOD 1
 .byte   W01
 .byte   VOL , 22*RPGMaker1BGM022_mvl/mxv
 .byte   W02
 .byte   VOL , 22*RPGMaker1BGM022_mvl/mxv
 .byte   MOD 1
 .byte   W24
 .byte   VOL , 17*RPGMaker1BGM022_mvl/mxv
 .byte   MOD 0
 .byte   N36 ,Gn4 ,v092
 .byte   W03
 .byte   MOD 0
 .byte   VOL , 19*RPGMaker1BGM022_mvl/mxv
 .byte   W03
 .byte   MOD 0
 .byte   W01
 .byte   VOL , 20*RPGMaker1BGM022_mvl/mxv
 .byte   W02
 .byte   MOD 1
 .byte   W01
 .byte   VOL , 22*RPGMaker1BGM022_mvl/mxv
 .byte   W02
 .byte   VOL , 22*RPGMaker1BGM022_mvl/mxv
 .byte   MOD 1
 .byte   W24
 .byte   VOL , 17*RPGMaker1BGM022_mvl/mxv
 .byte   MOD 0
 .byte   N24 ,Fs4
 .byte   W03
 .byte   VOL , 20*RPGMaker1BGM022_mvl/mxv
 .byte   W03
@ 031   ----------------------------------------
 .byte   PATT
  .word Label_5_01D8B953
@ 032   ----------------------------------------
 .byte   VOL , 19*RPGMaker1BGM022_mvl/mxv
 .byte   W03
 .byte   VOL , 18*RPGMaker1BGM022_mvl/mxv
 .byte   W03
 .byte   VOL , 18*RPGMaker1BGM022_mvl/mxv
 .byte   W03
 .byte   VOL , 17*RPGMaker1BGM022_mvl/mxv
 .byte   W03
 .byte   VOL , 16*RPGMaker1BGM022_mvl/mxv
 .byte   W03
 .byte   VOL , 15*RPGMaker1BGM022_mvl/mxv
 .byte   W02
 .byte   VOL , 15*RPGMaker1BGM022_mvl/mxv
 .byte   W01
 .byte   VOL , 22*RPGMaker1BGM022_mvl/mxv
 .byte   MOD 0
 .byte   W78
@ 033   ----------------------------------------
 .byte   GOTO
  .word Label_5_01D8B6E1
 .byte   FINE

@**************** Track 7 (Midi-Chn.6) ****************@

RPGMaker1BGM022_007:
@ 000   ----------------------------------------
 .byte   KEYSH , RPGMaker1BGM022_key+0
 .byte   MODT 0
 .byte   LFOS 44
 .byte   VOICE , 1
 .byte   VOL , 53*RPGMaker1BGM022_mvl/mxv
 .byte   PAN , c_v-24
 .byte   TIE ,En3 ,v092
 .byte   W96
@ 001   ----------------------------------------
Label_6_01D8B228:
 .byte   W96
@ 002   ----------------------------------------
 .byte   EOT
 .byte   En3
 .byte   TIE ,Dn3 ,v088
 .byte   W96
@ 003   ----------------------------------------
 .byte   W96
@ 004   ----------------------------------------
 .byte   EOT
 .byte   TIE ,Cn3
 .byte   W96
@ 005   ----------------------------------------
 .byte   W96
@ 006   ----------------------------------------
 .byte   EOT
 .byte   TIE ,Dn3
 .byte   W96
@ 007   ----------------------------------------
 .byte   W96
@ 008   ----------------------------------------
 .byte   EOT
 .byte   TIE ,En3 ,v092
 .byte   W96
@ 009   ----------------------------------------
 .byte   W96
@ 010   ----------------------------------------
 .byte   EOT
 .byte   TIE ,Dn3 ,v088
 .byte   W96
@ 011   ----------------------------------------
 .byte   W96
@ 012   ----------------------------------------
 .byte   EOT
 .byte   N96 ,Cn3
 .byte   W96
@ 013   ----------------------------------------
 .byte   Dn3
 .byte   W96
@ 014   ----------------------------------------
 .byte   TIE ,En3 ,v092
 .byte   W96
@ 015   ----------------------------------------
 .byte   W96
@ 016   ----------------------------------------
 .byte   EOT
 .byte   TIE ,Cs3 ,v088
 .byte   W96
@ 017   ----------------------------------------
 .byte   W96
@ 018   ----------------------------------------
 .byte   EOT
 .byte   TIE ,Bn2 ,v084
 .byte   W96
@ 019   ----------------------------------------
 .byte   W96
@ 020   ----------------------------------------
 .byte   EOT
 .byte   TIE
 .byte   W96
@ 021   ----------------------------------------
 .byte   W96
@ 022   ----------------------------------------
 .byte   EOT
 .byte   TIE ,An2 ,v080
 .byte   W96
@ 023   ----------------------------------------
 .byte   W96
@ 024   ----------------------------------------
 .byte   EOT
 .byte   TIE ,Cs3 ,v088
 .byte   W96
@ 025   ----------------------------------------
 .byte   W96
@ 026   ----------------------------------------
 .byte   EOT
 .byte   TIE ,Bn2 ,v084
 .byte   W96
@ 027   ----------------------------------------
 .byte   W96
@ 028   ----------------------------------------
 .byte   EOT
 .byte   TIE
 .byte   W96
@ 029   ----------------------------------------
 .byte   W96
@ 030   ----------------------------------------
 .byte   EOT
 .byte   N96 ,An2 ,v080
 .byte   W96
@ 031   ----------------------------------------
 .byte   Bn2 ,v084
 .byte   W96
@ 032   ----------------------------------------
 .byte   N96 ,En3 ,v092
 .byte   W96
@ 033   ----------------------------------------
 .byte   GOTO
  .word Label_6_01D8B228
@ 034   ----------------------------------------
 .byte   FINE

@**************** Track 8 (Midi-Chn.7) ****************@

RPGMaker1BGM022_008:
@ 000   ----------------------------------------
 .byte   KEYSH , RPGMaker1BGM022_key+0
 .byte   MODT 0
 .byte   LFOS 44
 .byte   VOICE , 1
 .byte   VOL , 53*RPGMaker1BGM022_mvl/mxv
 .byte   PAN , c_v+24
 .byte   TIE ,Cn3 ,v092
 .byte   W96
@ 001   ----------------------------------------
Label_7_01B7F2F4:
 .byte   W96
@ 002   ----------------------------------------
 .byte   EOT
 .byte   Cn3
 .byte   TIE ,An2 ,v088
 .byte   W96
@ 003   ----------------------------------------
 .byte   W96
@ 004   ----------------------------------------
 .byte   EOT
 .byte   TIE
 .byte   W96
@ 005   ----------------------------------------
 .byte   W96
@ 006   ----------------------------------------
 .byte   EOT
 .byte   TIE ,Bn2
 .byte   W96
@ 007   ----------------------------------------
 .byte   W96
@ 008   ----------------------------------------
 .byte   EOT
 .byte   TIE ,Cn3 ,v092
 .byte   W96
@ 009   ----------------------------------------
 .byte   W96
@ 010   ----------------------------------------
 .byte   EOT
 .byte   TIE ,An2 ,v088
 .byte   W96
@ 011   ----------------------------------------
 .byte   W96
@ 012   ----------------------------------------
 .byte   EOT
 .byte   N96
 .byte   W96
@ 013   ----------------------------------------
 .byte   Bn2
 .byte   W96
@ 014   ----------------------------------------
 .byte   TIE ,Cs3 ,v092
 .byte   W96
@ 015   ----------------------------------------
 .byte   W96
@ 016   ----------------------------------------
 .byte   EOT
 .byte   TIE ,An2 ,v088
 .byte   W96
@ 017   ----------------------------------------
 .byte   W96
@ 018   ----------------------------------------
 .byte   EOT
 .byte   TIE ,Gs2 ,v084
 .byte   W96
@ 019   ----------------------------------------
 .byte   W96
@ 020   ----------------------------------------
 .byte   EOT
 .byte   TIE ,Gn2
 .byte   W96
@ 021   ----------------------------------------
 .byte   W96
@ 022   ----------------------------------------
 .byte   EOT
 .byte   TIE ,Fs2
 .byte   W96
@ 023   ----------------------------------------
 .byte   W96
@ 024   ----------------------------------------
 .byte   EOT
 .byte   TIE ,An2 ,v088
 .byte   W96
@ 025   ----------------------------------------
 .byte   W96
@ 026   ----------------------------------------
 .byte   EOT
 .byte   TIE ,Gs2 ,v084
 .byte   W96
@ 027   ----------------------------------------
 .byte   W96
@ 028   ----------------------------------------
 .byte   EOT
 .byte   TIE ,Gn2
 .byte   W96
@ 029   ----------------------------------------
 .byte   W96
@ 030   ----------------------------------------
 .byte   EOT
 .byte   N96 ,Fs2
 .byte   W96
@ 031   ----------------------------------------
 .byte   Gs2
 .byte   W96
@ 032   ----------------------------------------
 .byte   N96 ,Cn3 ,v092
 .byte   W96
@ 033   ----------------------------------------
 .byte   GOTO
  .word Label_7_01B7F2F4
@ 034   ----------------------------------------
 .byte   FINE

@**************** Track 9 (Midi-Chn.8) ****************@

RPGMaker1BGM022_009:
@ 000   ----------------------------------------
 .byte   KEYSH , RPGMaker1BGM022_key+0
 .byte   MODT 0
 .byte   LFOS 44
 .byte   VOICE , 124
 .byte   VOL , 53*RPGMaker1BGM022_mvl/mxv
 .byte   PAN , c_v+0
Label_8_01B7F458:
 .byte   N06 ,An1 ,v056
 .byte   W12
 .byte   An3 ,v044
 .byte   W06
 .byte   N06
 .byte   W06
 .byte   An1 ,v056
 .byte   W12
 .byte   An3 ,v044
 .byte   W06
 .byte   N06
 .byte   W06
 .byte   An1 ,v056
 .byte   W12
 .byte   An3 ,v044
 .byte   W06
 .byte   N06
 .byte   W06
 .byte   An1 ,v056
 .byte   W12
 .byte   An3 ,v044
 .byte   W06
 .byte   N06
 .byte   W06
 .byte   PEND 
@ 001   ----------------------------------------
Label_8_01B7F47A:
@ 002   ----------------------------------------
 .byte   PATT
  .word Label_8_01B7F458
@ 003   ----------------------------------------
 .byte   PATT
  .word Label_8_01B7F458
@ 004   ----------------------------------------
Label_8_01B7F484:
 .byte   N06 ,An1 ,v056
 .byte   W12
 .byte   An3 ,v044
 .byte   W06
 .byte   N06
 .byte   W06
 .byte   An1 ,v056
 .byte   W12
 .byte   An3 ,v044
 .byte   W06
 .byte   N06
 .byte   W06
 .byte   An1 ,v056
 .byte   W12
 .byte   An3 ,v044
 .byte   W06
 .byte   N06
 .byte   W06
 .byte   An1 ,v056
 .byte   W12
 .byte   As1 ,v060
 .byte   W12
 .byte   PEND 
@ 005   ----------------------------------------
 .byte   PATT
  .word Label_8_01B7F458
@ 006   ----------------------------------------
 .byte   PATT
  .word Label_8_01B7F458
@ 007   ----------------------------------------
 .byte   PATT
  .word Label_8_01B7F458
@ 008   ----------------------------------------
 .byte   PATT
  .word Label_8_01B7F484
@ 009   ----------------------------------------
 .byte   PATT
  .word Label_8_01B7F458
@ 010   ----------------------------------------
 .byte   PATT
  .word Label_8_01B7F458
@ 011   ----------------------------------------
 .byte   PATT
  .word Label_8_01B7F458
@ 012   ----------------------------------------
 .byte   PATT
  .word Label_8_01B7F484
@ 013   ----------------------------------------
 .byte   PATT
  .word Label_8_01B7F458
@ 014   ----------------------------------------
 .byte   PATT
  .word Label_8_01B7F458
@ 015   ----------------------------------------
 .byte   PATT
  .word Label_8_01B7F458
@ 016   ----------------------------------------
 .byte   PATT
  .word Label_8_01B7F484
@ 017   ----------------------------------------
 .byte   PATT
  .word Label_8_01B7F458
@ 018   ----------------------------------------
 .byte   PATT
  .word Label_8_01B7F458
@ 019   ----------------------------------------
 .byte   PATT
  .word Label_8_01B7F458
@ 020   ----------------------------------------
 .byte   PATT
  .word Label_8_01B7F484
@ 021   ----------------------------------------
 .byte   PATT
  .word Label_8_01B7F458
@ 022   ----------------------------------------
 .byte   PATT
  .word Label_8_01B7F458
@ 023   ----------------------------------------
 .byte   PATT
  .word Label_8_01B7F458
@ 024   ----------------------------------------
 .byte   PATT
  .word Label_8_01B7F484
@ 025   ----------------------------------------
 .byte   PATT
  .word Label_8_01B7F458
@ 026   ----------------------------------------
 .byte   PATT
  .word Label_8_01B7F458
@ 027   ----------------------------------------
 .byte   PATT
  .word Label_8_01B7F458
@ 028   ----------------------------------------
 .byte   PATT
  .word Label_8_01B7F484
@ 029   ----------------------------------------
 .byte   PATT
  .word Label_8_01B7F458
@ 030   ----------------------------------------
 .byte   PATT
  .word Label_8_01B7F458
@ 031   ----------------------------------------
 .byte   PATT
  .word Label_8_01B7F458
@ 032   ----------------------------------------
 .byte   PATT
  .word Label_8_01B7F484
@ 033   ----------------------------------------
 .byte   PATT
  .word Label_8_01B7F458
@ 034   ----------------------------------------
 .byte   GOTO
  .word Label_8_01B7F47A
 .byte   FINE

@**************** Track 10 (Midi-Chn.9) ****************@

RPGMaker1BGM022_010:
@ 000   ----------------------------------------
 .byte   VOL , 80*RPGMaker1BGM022_mvl/mxv
 .byte   KEYSH , RPGMaker1BGM022_key+0
 .byte   MODT 0
 .byte   LFOS 44
 .byte   VOICE , 124
Label_9_01B7F17E:
 .byte   N06 ,Cn1 ,v100
 .byte   W12
 .byte   N06
 .byte   W84
 .byte   PEND 
@ 001   ----------------------------------------
Label_9_01B7F185:
@ 002   ----------------------------------------
 .byte   PATT
  .word Label_9_01B7F17E
@ 003   ----------------------------------------
 .byte   PATT
  .word Label_9_01B7F17E
@ 004   ----------------------------------------
 .byte   PATT
  .word Label_9_01B7F17E
@ 005   ----------------------------------------
 .byte   PATT
  .word Label_9_01B7F17E
@ 006   ----------------------------------------
 .byte   PATT
  .word Label_9_01B7F17E
@ 007   ----------------------------------------
 .byte   PATT
  .word Label_9_01B7F17E
@ 008   ----------------------------------------
 .byte   PATT
  .word Label_9_01B7F17E
@ 009   ----------------------------------------
 .byte   PATT
  .word Label_9_01B7F17E
@ 010   ----------------------------------------
 .byte   PATT
  .word Label_9_01B7F17E
@ 011   ----------------------------------------
 .byte   PATT
  .word Label_9_01B7F17E
@ 012   ----------------------------------------
 .byte   PATT
  .word Label_9_01B7F17E
@ 013   ----------------------------------------
 .byte   PATT
  .word Label_9_01B7F17E
@ 014   ----------------------------------------
 .byte   PATT
  .word Label_9_01B7F17E
@ 015   ----------------------------------------
 .byte   PATT
  .word Label_9_01B7F17E
@ 016   ----------------------------------------
 .byte   PATT
  .word Label_9_01B7F17E
@ 017   ----------------------------------------
 .byte   PATT
  .word Label_9_01B7F17E
@ 018   ----------------------------------------
 .byte   PATT
  .word Label_9_01B7F17E
@ 019   ----------------------------------------
 .byte   PATT
  .word Label_9_01B7F17E
@ 020   ----------------------------------------
 .byte   PATT
  .word Label_9_01B7F17E
@ 021   ----------------------------------------
 .byte   PATT
  .word Label_9_01B7F17E
@ 022   ----------------------------------------
 .byte   PATT
  .word Label_9_01B7F17E
@ 023   ----------------------------------------
 .byte   PATT
  .word Label_9_01B7F17E
@ 024   ----------------------------------------
 .byte   PATT
  .word Label_9_01B7F17E
@ 025   ----------------------------------------
 .byte   PATT
  .word Label_9_01B7F17E
@ 026   ----------------------------------------
 .byte   PATT
  .word Label_9_01B7F17E
@ 027   ----------------------------------------
 .byte   PATT
  .word Label_9_01B7F17E
@ 028   ----------------------------------------
 .byte   PATT
  .word Label_9_01B7F17E
@ 029   ----------------------------------------
 .byte   PATT
  .word Label_9_01B7F17E
@ 030   ----------------------------------------
 .byte   PATT
  .word Label_9_01B7F17E
@ 031   ----------------------------------------
 .byte   PATT
  .word Label_9_01B7F17E
@ 032   ----------------------------------------
 .byte   PATT
  .word Label_9_01B7F17E
@ 033   ----------------------------------------
 .byte   PATT
  .word Label_9_01B7F17E
@ 034   ----------------------------------------
 .byte   GOTO
  .word Label_9_01B7F185
 .byte   FINE

@**************** Track 11 (Midi-Chn.10) ****************@

RPGMaker1BGM022_011:
@ 000   ----------------------------------------
 .byte   VOL , 80*RPGMaker1BGM022_mvl/mxv
 .byte   KEYSH , RPGMaker1BGM022_key+0
 .byte   MODT 0
 .byte   LFOS 44
 .byte   VOICE , 124
 .byte   W48
 .byte   N06 ,En1 ,v088
 .byte   W48
@ 001   ----------------------------------------
Label_10_01D8B29F:
 .byte   W48
 .byte   N06 ,En1 ,v088
 .byte   W48
@ 002   ----------------------------------------
 .byte   W48
 .byte   N06
 .byte   W48
@ 003   ----------------------------------------
 .byte   W48
 .byte   N06
 .byte   W48
@ 004   ----------------------------------------
 .byte   W48
 .byte   N06
 .byte   W48
@ 005   ----------------------------------------
 .byte   W48
 .byte   N06
 .byte   W48
@ 006   ----------------------------------------
 .byte   W48
 .byte   N06
 .byte   W48
@ 007   ----------------------------------------
Label_10_01D8B2B3:
 .byte   W48
 .byte   N06 ,En1 ,v088
 .byte   W24
 .byte   En1 ,v080
 .byte   W12
 .byte   N06
 .byte   W12
 .byte   PEND 
@ 008   ----------------------------------------
 .byte   W48
 .byte   En1 ,v088
 .byte   W48
@ 009   ----------------------------------------
 .byte   W48
 .byte   N06
 .byte   W48
@ 010   ----------------------------------------
 .byte   W48
 .byte   N06
 .byte   W48
@ 011   ----------------------------------------
 .byte   W48
 .byte   N06
 .byte   W48
@ 012   ----------------------------------------
 .byte   W48
 .byte   N06
 .byte   W48
@ 013   ----------------------------------------
 .byte   W48
 .byte   N06
 .byte   W48
@ 014   ----------------------------------------
 .byte   W48
 .byte   N06
 .byte   W48
@ 015   ----------------------------------------
Label_10_01D8B2D4:
 .byte   W48
 .byte   N06 ,En1 ,v088
 .byte   W24
 .byte   En1 ,v080
 .byte   W06
 .byte   N06
 .byte   W06
 .byte   N06
 .byte   W12
 .byte   PEND 
@ 016   ----------------------------------------
 .byte   W48
 .byte   En1 ,v088
 .byte   W48
@ 017   ----------------------------------------
 .byte   W48
 .byte   N06
 .byte   W48
@ 018   ----------------------------------------
 .byte   W48
 .byte   N06
 .byte   W48
@ 019   ----------------------------------------
 .byte   W48
 .byte   N06
 .byte   W48
@ 020   ----------------------------------------
 .byte   W48
 .byte   N06
 .byte   W48
@ 021   ----------------------------------------
 .byte   W48
 .byte   N06
 .byte   W48
@ 022   ----------------------------------------
 .byte   W48
 .byte   N06
 .byte   W48
@ 023   ----------------------------------------
 .byte   PATT
  .word Label_10_01D8B2B3
@ 024   ----------------------------------------
 .byte   W48
 .byte   N06 ,En1 ,v088
 .byte   W48
@ 025   ----------------------------------------
 .byte   W48
 .byte   N06
 .byte   W48
@ 026   ----------------------------------------
 .byte   W48
 .byte   N06
 .byte   W48
@ 027   ----------------------------------------
 .byte   W48
 .byte   N06
 .byte   W48
@ 028   ----------------------------------------
 .byte   W48
 .byte   N06
 .byte   W48
@ 029   ----------------------------------------
 .byte   W48
 .byte   N06
 .byte   W48
@ 030   ----------------------------------------
 .byte   W48
 .byte   N06
 .byte   W48
@ 031   ----------------------------------------
 .byte   PATT
  .word Label_10_01D8B2D4
@ 032   ----------------------------------------
 .byte   W48
 .byte   N06 ,En1 ,v088
 .byte   W48
@ 033   ----------------------------------------
 .byte   GOTO
  .word Label_10_01D8B29F
 .byte   FINE

@******************************************************@
	.align	2

RPGMaker1BGM022:
	.byte	11	@ NumTrks
	.byte	0	@ NumBlks
	.byte	RPGMaker1BGM022_pri	@ Priority
	.byte	RPGMaker1BGM022_rev	@ Reverb.
    
	.word	RPGMaker1BGM022_grp
    
	.word	RPGMaker1BGM022_001
	.word	RPGMaker1BGM022_002
	.word	RPGMaker1BGM022_003
	.word	RPGMaker1BGM022_004
	.word	RPGMaker1BGM022_005
	.word	RPGMaker1BGM022_006
	.word	RPGMaker1BGM022_007
	.word	RPGMaker1BGM022_008
	.word	RPGMaker1BGM022_009
	.word	RPGMaker1BGM022_010
	.word	RPGMaker1BGM022_011

	.end
