	.include "MPlayDef.s"

	.equ	SailorMoonRCrystalTokyo_grp, voicegroup000
	.equ	SailorMoonRCrystalTokyo_pri, 0
	.equ	SailorMoonRCrystalTokyo_rev, 0
	.equ	SailorMoonRCrystalTokyo_mvl, 127
	.equ	SailorMoonRCrystalTokyo_key, 0
	.equ	SailorMoonRCrystalTokyo_tbs, 1
	.equ	SailorMoonRCrystalTokyo_exg, 0
	.equ	SailorMoonRCrystalTokyo_cmp, 1

	.section .rodata
	.global	SailorMoonRCrystalTokyo
	.align	2


@**************** Track 1 (Midi-Chn.0) ****************@

SailorMoonRCrystalTokyo_001:
@  #01 @000   ----------------------------------------
 .byte   KEYSH , SailorMoonRCrystalTokyo_key+0
Label_0110AC2E:
 .byte   TEMPO , 140*SailorMoonRCrystalTokyo_tbs/2
 .byte   VOICE , 4
 .byte   VOL , 65*SailorMoonRCrystalTokyo_mvl/mxv
 .byte   N24 ,Gn4 ,v112
 .byte   W24
 .byte   N12 ,Cn4
 .byte   W12
 .byte   N24 ,Dn4
 .byte   W24
 .byte   N12 ,Gn4
 .byte   W12
 .byte   TIE ,En4
 .byte   W24
@  #01 @001   ----------------------------------------
 .byte   W90
 .byte   EOT
 .byte   W06
@  #01 @002   ----------------------------------------
Label_0110AC47:
 .byte   N24 ,Gn4 ,v112
 .byte   W24
 .byte   N12 ,Cn4
 .byte   W12
 .byte   N24 ,Dn4
 .byte   W24
 .byte   N12 ,Gn4
 .byte   W12
 .byte   TIE ,En4
 .byte   W24
 .byte   PEND 
@  #01 @003   ----------------------------------------
 .byte   W90
 .byte   EOT
 .byte   W06
@  #01 @004   ----------------------------------------
Label_0110AC5B:
 .byte   N24 ,En4 ,v112
 .byte   W24
 .byte   N12 ,Fn4
 .byte   W12
 .byte   N24 ,En4
 .byte   W24
 .byte   Cn4
 .byte   W24
 .byte   TIE ,An3
 .byte   W12
 .byte   PEND 
@  #01 @005   ----------------------------------------
 .byte   W96
@  #01 @006   ----------------------------------------
 .byte   EOT
Label_0110AC6D:
 .byte   N24 ,En4 ,v112
 .byte   W24
 .byte   N12 ,Fn4
 .byte   W12
 .byte   N24 ,En4
 .byte   W24
 .byte   Cn4
 .byte   W24
 .byte   N84 ,Dn4
 .byte   W12
 .byte   PEND 
@  #01 @007   ----------------------------------------
 .byte   W72
 .byte   N24 ,An4
 .byte   W24
@  #01 @008   ----------------------------------------
 .byte   PATT
  .word Label_0110AC47
@  #01 @009   ----------------------------------------
 .byte   W90
 .byte   EOT
 .byte   En4
 .byte   W06
@  #01 @010   ----------------------------------------
 .byte   PATT
  .word Label_0110AC47
@  #01 @011   ----------------------------------------
 .byte   W90
 .byte   EOT
 .byte   En4
 .byte   W06
@  #01 @012   ----------------------------------------
 .byte   PATT
  .word Label_0110AC5B
@  #01 @013   ----------------------------------------
 .byte   W72
 .byte   N12 ,An4 ,v112
 .byte   W24
@  #01 @014   ----------------------------------------
 .byte   EOT
 .byte   An3
Label_0110AC9F:
 .byte   N12 ,An4 ,v112
 .byte   W12
 .byte   Gn4
 .byte   W12
 .byte   En4
 .byte   W12
 .byte   N42 ,Dn4
 .byte   W36
 .byte   N24 ,En4
 .byte   W24
 .byte   PEND 
@  #01 @015   ----------------------------------------
Label_0110ACAE:
 .byte   N54 ,Fn4 ,v112
 .byte   W48
 .byte   N42 ,An4
 .byte   W48
 .byte   PEND 
@  #01 @016   ----------------------------------------
Label_0110ACB6:
 .byte   N18 ,Gn4 ,v112
 .byte   W24
 .byte   N06
 .byte   W12
 .byte   N42
 .byte   W36
 .byte   N12 ,Ds4
 .byte   W12
 .byte   Fn4
 .byte   W12
 .byte   PEND 
@  #01 @017   ----------------------------------------
Label_0110ACC4:
 .byte   N18 ,Fn4 ,v112
 .byte   W24
 .byte   N06 ,Gn4
 .byte   W12
 .byte   N48
 .byte   W60
 .byte   PEND 
@  #01 @018   ----------------------------------------
Label_0110ACCE:
 .byte   N18 ,Gn4 ,v112
 .byte   W24
 .byte   N06 ,Fn4
 .byte   W12
 .byte   N48
 .byte   W60
 .byte   PEND 
@  #01 @019   ----------------------------------------
Label_0110ACD8:
 .byte   N24 ,Fn4 ,v112
 .byte   W24
 .byte   N12 ,En4
 .byte   W12
 .byte   N18 ,Fn4
 .byte   W24
 .byte   N30 ,Gn4
 .byte   W36
 .byte   PEND 
@  #01 @020   ----------------------------------------
Label_0110ACE6:
 .byte   N72 ,Gs4 ,v112
 .byte   W72
 .byte   N18 ,Cn4
 .byte   W12
 .byte   N12 ,Cs4
 .byte   W12
 .byte   PEND 
@  #01 @021   ----------------------------------------
Label_0110ACF1:
 .byte   N78 ,Dn4 ,v112
 .byte   W72
 .byte   N24 ,Bn3
 .byte   W24
 .byte   PEND 
@  #01 @022   ----------------------------------------
Label_0110ACF9:
 .byte   N66 ,Gn4 ,v112
 .byte   W72
 .byte   N12
 .byte   W12
 .byte   Gs4
 .byte   W12
 .byte   PEND 
@  #01 @023   ----------------------------------------
Label_0110AD02:
 .byte   N24 ,Gn4 ,v112
 .byte   W24
 .byte   Fn4
 .byte   W24
 .byte   Ds4
 .byte   W24
 .byte   N12 ,Fn4
 .byte   W12
 .byte   Gn4
 .byte   W12
 .byte   PEND 
@  #01 @024   ----------------------------------------
 .byte   PATT
  .word Label_0110ACE6
@  #01 @025   ----------------------------------------
 .byte   PATT
  .word Label_0110ACF1
@  #01 @026   ----------------------------------------
 .byte   PATT
  .word Label_0110ACF9
@  #01 @027   ----------------------------------------
Label_0110AD1F:
 .byte   N24 ,Gn4 ,v112
 .byte   W24
 .byte   Fn4
 .byte   W24
 .byte   N18 ,Ds4
 .byte   W24
 .byte   Fn4
 .byte   W24
 .byte   PEND 
@  #01 @028   ----------------------------------------
 .byte   TIE ,Gn4
 .byte   W96
@  #01 @029   ----------------------------------------
 .byte   W48
 .byte   EOT
 .byte   N24 ,Ds4
 .byte   W24
 .byte   Fn4
 .byte   W24
@  #01 @030   ----------------------------------------
 .byte   TIE ,Gn4
 .byte   W96
@  #01 @031   ----------------------------------------
 .byte   W90
 .byte   EOT
 .byte   W06
@  #01 @032   ----------------------------------------
 .byte   PATT
  .word Label_0110AC47
@  #01 @033   ----------------------------------------
 .byte   W90
 .byte   EOT
 .byte   En4
 .byte   W06
@  #01 @034   ----------------------------------------
 .byte   PATT
  .word Label_0110AC47
@  #01 @035   ----------------------------------------
 .byte   W90
 .byte   EOT
 .byte   En4
 .byte   W06
@  #01 @036   ----------------------------------------
 .byte   PATT
  .word Label_0110AC5B
@  #01 @037   ----------------------------------------
 .byte   W96
@  #01 @038   ----------------------------------------
 .byte   EOT
 .byte   An3
@  #01 @039   ----------------------------------------
 .byte   PATT
  .word Label_0110AC6D
@  #01 @040   ----------------------------------------
 .byte   W72
 .byte   N24 ,An4 ,v112
 .byte   W24
@  #01 @041   ----------------------------------------
 .byte   PATT
  .word Label_0110AC47
@  #01 @042   ----------------------------------------
 .byte   W90
 .byte   EOT
 .byte   En4
 .byte   W06
@  #01 @043   ----------------------------------------
 .byte   PATT
  .word Label_0110AC47
@  #01 @044   ----------------------------------------
 .byte   W90
 .byte   EOT
 .byte   En4
 .byte   W06
@  #01 @045   ----------------------------------------
 .byte   PATT
  .word Label_0110AC5B
@  #01 @046   ----------------------------------------
 .byte   W72
 .byte   N12 ,An4 ,v112
 .byte   W24
@  #01 @047   ----------------------------------------
 .byte   EOT
 .byte   An3
@  #01 @048   ----------------------------------------
 .byte   PATT
  .word Label_0110AC9F
@  #01 @049   ----------------------------------------
 .byte   PATT
  .word Label_0110ACAE
@  #01 @050   ----------------------------------------
 .byte   PATT
  .word Label_0110ACB6
@  #01 @051   ----------------------------------------
 .byte   PATT
  .word Label_0110ACC4
@  #01 @052   ----------------------------------------
 .byte   PATT
  .word Label_0110ACCE
@  #01 @053   ----------------------------------------
 .byte   PATT
  .word Label_0110ACD8
@  #01 @054   ----------------------------------------
 .byte   PATT
  .word Label_0110ACE6
@  #01 @055   ----------------------------------------
 .byte   PATT
  .word Label_0110ACF1
@  #01 @056   ----------------------------------------
 .byte   PATT
  .word Label_0110ACF9
@  #01 @057   ----------------------------------------
 .byte   PATT
  .word Label_0110AD02
@  #01 @058   ----------------------------------------
 .byte   PATT
  .word Label_0110ACE6
@  #01 @059   ----------------------------------------
 .byte   PATT
  .word Label_0110ACF1
@  #01 @060   ----------------------------------------
 .byte   PATT
  .word Label_0110ACF9
@  #01 @061   ----------------------------------------
 .byte   PATT
  .word Label_0110AD1F
@  #01 @062   ----------------------------------------
 .byte   TIE ,Gn4 ,v112
 .byte   W96
@  #01 @063   ----------------------------------------
 .byte   W48
 .byte   EOT
 .byte   N24 ,Ds4
 .byte   W24
 .byte   Fn4
 .byte   W24
@  #01 @064   ----------------------------------------
 .byte   TIE ,Gn4
 .byte   W96
@  #01 @065   ----------------------------------------
 .byte   W90
 .byte   EOT
 .byte   W06
@  #01 @066   ----------------------------------------
 .byte   PATT
  .word Label_0110AC47
@  #01 @067   ----------------------------------------
 .byte   W90
 .byte   EOT
 .byte   En4
 .byte   W06
@  #01 @068   ----------------------------------------
 .byte   PATT
  .word Label_0110AC47
@  #01 @069   ----------------------------------------
 .byte   W90
 .byte   EOT
 .byte   En4
 .byte   W06
@  #01 @070   ----------------------------------------
 .byte   PATT
  .word Label_0110AC5B
@  #01 @071   ----------------------------------------
 .byte   W96
@  #01 @072   ----------------------------------------
 .byte   EOT
 .byte   An3
@  #01 @073   ----------------------------------------
 .byte   PATT
  .word Label_0110AC6D
@  #01 @074   ----------------------------------------
 .byte   W72
 .byte   N24 ,An4 ,v112
 .byte   W24
@  #01 @075   ----------------------------------------
 .byte   PATT
  .word Label_0110AC47
@  #01 @076   ----------------------------------------
 .byte   W90
 .byte   EOT
 .byte   En4
 .byte   W06
@  #01 @077   ----------------------------------------
 .byte   PATT
  .word Label_0110AC47
@  #01 @078   ----------------------------------------
 .byte   W90
 .byte   EOT
 .byte   En4
 .byte   W06
@  #01 @079   ----------------------------------------
 .byte   PATT
  .word Label_0110AC5B
@  #01 @080   ----------------------------------------
 .byte   W72
 .byte   N12 ,An4 ,v112
 .byte   W24
@  #01 @081   ----------------------------------------
 .byte   EOT
 .byte   An3
@  #01 @082   ----------------------------------------
 .byte   PATT
  .word Label_0110AC9F
@  #01 @083   ----------------------------------------
 .byte   PATT
  .word Label_0110ACAE
@  #01 @084   ----------------------------------------
 .byte   PATT
  .word Label_0110ACB6
@  #01 @085   ----------------------------------------
 .byte   PATT
  .word Label_0110ACC4
@  #01 @086   ----------------------------------------
 .byte   PATT
  .word Label_0110ACCE
@  #01 @087   ----------------------------------------
 .byte   PATT
  .word Label_0110ACD8
@  #01 @088   ----------------------------------------
 .byte   PATT
  .word Label_0110ACE6
@  #01 @089   ----------------------------------------
 .byte   PATT
  .word Label_0110ACF1
@  #01 @090   ----------------------------------------
 .byte   PATT
  .word Label_0110ACF9
@  #01 @091   ----------------------------------------
 .byte   PATT
  .word Label_0110AD02
@  #01 @092   ----------------------------------------
 .byte   PATT
  .word Label_0110ACE6
@  #01 @093   ----------------------------------------
 .byte   PATT
  .word Label_0110ACF1
@  #01 @094   ----------------------------------------
 .byte   PATT
  .word Label_0110ACF9
@  #01 @095   ----------------------------------------
 .byte   PATT
  .word Label_0110AD1F
@  #01 @096   ----------------------------------------
 .byte   TIE ,Gn4 ,v112
 .byte   W96
@  #01 @097   ----------------------------------------
 .byte   W48
 .byte   EOT
 .byte   N24 ,Ds4
 .byte   W24
 .byte   Fn4
 .byte   W24
@  #01 @098   ----------------------------------------
 .byte   TIE ,Gn4
 .byte   W96
@  #01 @099   ----------------------------------------
 .byte   W90
 .byte   EOT
 .byte   W06
@  #01 @100   ----------------------------------------
 .byte   GOTO
  .word Label_0110AC2E
 .byte   FINE

@**************** Track 2 (Midi-Chn.1) ****************@

SailorMoonRCrystalTokyo_002:
@  #02 @000   ----------------------------------------
 .byte   KEYSH , SailorMoonRCrystalTokyo_key+0
Label_011039FA:
 .byte   VOICE , 46
 .byte   VOL , 43*SailorMoonRCrystalTokyo_mvl/mxv
 .byte   PAN , c_v+63
 .byte   N96 ,Dn2 ,v112
 .byte   W96
@  #02 @001   ----------------------------------------
 .byte   W96
@  #02 @002   ----------------------------------------
 .byte   TIE ,Cn2
 .byte   W96
@  #02 @003   ----------------------------------------
 .byte   W90
 .byte   EOT
 .byte   W06
@  #02 @004   ----------------------------------------
 .byte   TIE
 .byte   W96
@  #02 @005   ----------------------------------------
 .byte   W72
 .byte   EOT
 .byte   W24
@  #02 @006   ----------------------------------------
 .byte   TIE ,An1
 .byte   W96
@  #02 @007   ----------------------------------------
 .byte   W48
 .byte   N48 ,Dn2
 .byte   W24
 .byte   EOT
 .byte   An1
 .byte   W24
@  #02 @008   ----------------------------------------
 .byte   N48 ,Dn2
 .byte   W96
@  #02 @009   ----------------------------------------
 .byte   W96
@  #02 @010   ----------------------------------------
 .byte   TIE ,Cn2
 .byte   W96
@  #02 @011   ----------------------------------------
 .byte   W36
 .byte   EOT
 .byte   W60
@  #02 @012   ----------------------------------------
 .byte   TIE
 .byte   W96
@  #02 @013   ----------------------------------------
 .byte   W36
 .byte   EOT
 .byte   W60
@  #02 @014   ----------------------------------------
 .byte   TIE ,An1
 .byte   W96
@  #02 @015   ----------------------------------------
 .byte   W06
 .byte   EOT
 .byte   W42
 .byte   N48 ,Dn2
 .byte   W48
@  #02 @016   ----------------------------------------
 .byte   N90 ,Ds3
 .byte   W96
@  #02 @017   ----------------------------------------
 .byte   N96
 .byte   W96
@  #02 @018   ----------------------------------------
 .byte   N84 ,Dn3
 .byte   W96
@  #02 @019   ----------------------------------------
Label_01103A3A:
 .byte   N24 ,Dn3 ,v112
 .byte   W24
 .byte   N12 ,Cn3
 .byte   W12
 .byte   N24 ,Dn3
 .byte   W24
 .byte   N36 ,En3
 .byte   W36
 .byte   PEND 
@  #02 @020   ----------------------------------------
 .byte   N72 ,Ds3
 .byte   W96
@  #02 @021   ----------------------------------------
 .byte   N84 ,Dn3
 .byte   W96
@  #02 @022   ----------------------------------------
Label_01103A4E:
 .byte   N48 ,Ds3 ,v112
 .byte   W48
 .byte   Dn3
 .byte   W48
 .byte   PEND 
@  #02 @023   ----------------------------------------
 .byte   N78 ,Cn3
 .byte   W96
@  #02 @024   ----------------------------------------
 .byte   N72 ,Ds3
 .byte   W96
@  #02 @025   ----------------------------------------
 .byte   N84 ,Dn3
 .byte   W96
@  #02 @026   ----------------------------------------
 .byte   PATT
  .word Label_01103A4E
@  #02 @027   ----------------------------------------
 .byte   N78 ,Cn3 ,v112
 .byte   W96
@  #02 @028   ----------------------------------------
 .byte   As2
 .byte   W96
@  #02 @029   ----------------------------------------
 .byte   Cn3
 .byte   W96
@  #02 @030   ----------------------------------------
 .byte   W96
@  #02 @031   ----------------------------------------
 .byte   An2
 .byte   W96
@  #02 @032   ----------------------------------------
 .byte   N96 ,Dn2
 .byte   W96
@  #02 @033   ----------------------------------------
 .byte   W96
@  #02 @034   ----------------------------------------
 .byte   TIE ,Cn2
 .byte   W96
@  #02 @035   ----------------------------------------
 .byte   W90
 .byte   EOT
 .byte   W06
@  #02 @036   ----------------------------------------
 .byte   TIE
 .byte   W96
@  #02 @037   ----------------------------------------
 .byte   W72
 .byte   EOT
 .byte   W24
@  #02 @038   ----------------------------------------
 .byte   TIE ,An1
 .byte   W96
@  #02 @039   ----------------------------------------
 .byte   W48
 .byte   N48 ,Dn2
 .byte   W24
 .byte   EOT
 .byte   An1
 .byte   W24
@  #02 @040   ----------------------------------------
 .byte   N48 ,Dn2
 .byte   W96
@  #02 @041   ----------------------------------------
 .byte   W96
@  #02 @042   ----------------------------------------
 .byte   TIE ,Cn2
 .byte   W96
@  #02 @043   ----------------------------------------
 .byte   W36
 .byte   EOT
 .byte   W60
@  #02 @044   ----------------------------------------
 .byte   TIE
 .byte   W96
@  #02 @045   ----------------------------------------
 .byte   W36
 .byte   EOT
 .byte   W60
@  #02 @046   ----------------------------------------
 .byte   TIE ,An1
 .byte   W96
@  #02 @047   ----------------------------------------
 .byte   W06
 .byte   EOT
 .byte   W42
 .byte   N48 ,Dn2
 .byte   W48
@  #02 @048   ----------------------------------------
 .byte   N90 ,Ds3
 .byte   W96
@  #02 @049   ----------------------------------------
 .byte   N96
 .byte   W96
@  #02 @050   ----------------------------------------
 .byte   N84 ,Dn3
 .byte   W96
@  #02 @051   ----------------------------------------
 .byte   PATT
  .word Label_01103A3A
@  #02 @052   ----------------------------------------
 .byte   N72 ,Ds3 ,v112
 .byte   W96
@  #02 @053   ----------------------------------------
 .byte   N84 ,Dn3
 .byte   W96
@  #02 @054   ----------------------------------------
 .byte   PATT
  .word Label_01103A4E
@  #02 @055   ----------------------------------------
 .byte   N78 ,Cn3 ,v112
 .byte   W96
@  #02 @056   ----------------------------------------
 .byte   N72 ,Ds3
 .byte   W96
@  #02 @057   ----------------------------------------
 .byte   N84 ,Dn3
 .byte   W96
@  #02 @058   ----------------------------------------
 .byte   PATT
  .word Label_01103A4E
@  #02 @059   ----------------------------------------
 .byte   N78 ,Cn3 ,v112
 .byte   W96
@  #02 @060   ----------------------------------------
 .byte   As2
 .byte   W96
@  #02 @061   ----------------------------------------
 .byte   Cn3
 .byte   W96
@  #02 @062   ----------------------------------------
 .byte   W96
@  #02 @063   ----------------------------------------
 .byte   An2
 .byte   W96
@  #02 @064   ----------------------------------------
 .byte   N96 ,Dn2
 .byte   W96
@  #02 @065   ----------------------------------------
 .byte   W96
@  #02 @066   ----------------------------------------
 .byte   TIE ,Cn2
 .byte   W96
@  #02 @067   ----------------------------------------
 .byte   W90
 .byte   EOT
 .byte   W06
@  #02 @068   ----------------------------------------
 .byte   TIE
 .byte   W96
@  #02 @069   ----------------------------------------
 .byte   W72
 .byte   EOT
 .byte   W24
@  #02 @070   ----------------------------------------
 .byte   TIE ,An1
 .byte   W96
@  #02 @071   ----------------------------------------
 .byte   W48
 .byte   N48 ,Dn2
 .byte   W24
 .byte   EOT
 .byte   An1
 .byte   W24
@  #02 @072   ----------------------------------------
 .byte   N48 ,Dn2
 .byte   W96
@  #02 @073   ----------------------------------------
 .byte   W96
@  #02 @074   ----------------------------------------
 .byte   TIE ,Cn2
 .byte   W96
@  #02 @075   ----------------------------------------
 .byte   W36
 .byte   EOT
 .byte   W60
@  #02 @076   ----------------------------------------
 .byte   TIE
 .byte   W96
@  #02 @077   ----------------------------------------
 .byte   W36
 .byte   EOT
 .byte   W60
@  #02 @078   ----------------------------------------
 .byte   TIE ,An1
 .byte   W96
@  #02 @079   ----------------------------------------
 .byte   W06
 .byte   EOT
 .byte   W42
 .byte   N48 ,Dn2
 .byte   W48
@  #02 @080   ----------------------------------------
 .byte   N90 ,Ds3
 .byte   W96
@  #02 @081   ----------------------------------------
 .byte   N96
 .byte   W96
@  #02 @082   ----------------------------------------
 .byte   N84 ,Dn3
 .byte   W96
@  #02 @083   ----------------------------------------
 .byte   PATT
  .word Label_01103A3A
@  #02 @084   ----------------------------------------
 .byte   N72 ,Ds3 ,v112
 .byte   W96
@  #02 @085   ----------------------------------------
 .byte   N84 ,Dn3
 .byte   W96
@  #02 @086   ----------------------------------------
 .byte   PATT
  .word Label_01103A4E
@  #02 @087   ----------------------------------------
 .byte   N78 ,Cn3 ,v112
 .byte   W96
@  #02 @088   ----------------------------------------
 .byte   N72 ,Ds3
 .byte   W96
@  #02 @089   ----------------------------------------
 .byte   N84 ,Dn3
 .byte   W96
@  #02 @090   ----------------------------------------
 .byte   PATT
  .word Label_01103A4E
@  #02 @091   ----------------------------------------
 .byte   N78 ,Cn3 ,v112
 .byte   W96
@  #02 @092   ----------------------------------------
 .byte   As2
 .byte   W96
@  #02 @093   ----------------------------------------
 .byte   Cn3
 .byte   W96
@  #02 @094   ----------------------------------------
 .byte   W96
@  #02 @095   ----------------------------------------
 .byte   An2
 .byte   W96
@  #02 @096   ----------------------------------------
 .byte   GOTO
  .word Label_011039FA
 .byte   FINE

@**************** Track 3 (Midi-Chn.2) ****************@

SailorMoonRCrystalTokyo_003:
@  #03 @000   ----------------------------------------
 .byte   KEYSH , SailorMoonRCrystalTokyo_key+0
Label_010CD9A6:
 .byte   VOICE , 36
 .byte   VOL , 51*SailorMoonRCrystalTokyo_mvl/mxv
 .byte   N06 ,Cn3 ,v112
 .byte   W12
 .byte   N06
 .byte   W12
 .byte   N06
 .byte   W12
 .byte   N06
 .byte   W12
 .byte   N06
 .byte   W12
 .byte   N06
 .byte   W12
 .byte   N06
 .byte   W12
 .byte   N06
 .byte   W12
@  #03 @001   ----------------------------------------
Label_010CD9BC:
 .byte   N06 ,Cn3 ,v112
 .byte   W12
 .byte   N06
 .byte   W12
 .byte   N06
 .byte   W12
 .byte   N06
 .byte   W12
 .byte   N06
 .byte   W12
 .byte   N06
 .byte   W12
 .byte   N06
 .byte   W12
 .byte   N06
 .byte   W12
 .byte   PEND 
@  #03 @002   ----------------------------------------
Label_010CD9CF:
 .byte   N06 ,An2 ,v112
 .byte   W12
 .byte   N06
 .byte   W12
 .byte   N06
 .byte   W12
 .byte   N06
 .byte   W12
 .byte   N06
 .byte   W12
 .byte   N06
 .byte   W12
 .byte   N06
 .byte   W12
 .byte   N06
 .byte   W12
 .byte   PEND 
@  #03 @003   ----------------------------------------
 .byte   PATT
  .word Label_010CD9CF
@  #03 @004   ----------------------------------------
Label_010CD9E7:
 .byte   N06 ,Fn2 ,v112
 .byte   W12
 .byte   N06
 .byte   W12
 .byte   N06
 .byte   W12
 .byte   N06
 .byte   W12
 .byte   N06
 .byte   W12
 .byte   N06
 .byte   W12
 .byte   N06
 .byte   W12
 .byte   N06
 .byte   W12
 .byte   PEND 
@  #03 @005   ----------------------------------------
 .byte   PATT
  .word Label_010CD9E7
@  #03 @006   ----------------------------------------
Label_010CD9FF:
 .byte   N06 ,Gn2 ,v112
 .byte   W12
 .byte   N06
 .byte   W12
 .byte   N06
 .byte   W12
 .byte   N06
 .byte   W12
 .byte   N06
 .byte   W12
 .byte   N06
 .byte   W12
 .byte   N06
 .byte   W12
 .byte   N06
 .byte   W12
 .byte   PEND 
@  #03 @007   ----------------------------------------
 .byte   PATT
  .word Label_010CD9FF
@  #03 @008   ----------------------------------------
 .byte   PATT
  .word Label_010CD9BC
@  #03 @009   ----------------------------------------
 .byte   PATT
  .word Label_010CD9BC
@  #03 @010   ----------------------------------------
 .byte   PATT
  .word Label_010CD9CF
@  #03 @011   ----------------------------------------
 .byte   PATT
  .word Label_010CD9CF
@  #03 @012   ----------------------------------------
 .byte   PATT
  .word Label_010CD9E7
@  #03 @013   ----------------------------------------
 .byte   PATT
  .word Label_010CD9E7
@  #03 @014   ----------------------------------------
 .byte   PATT
  .word Label_010CD9FF
@  #03 @015   ----------------------------------------
 .byte   PATT
  .word Label_010CD9FF
@  #03 @016   ----------------------------------------
Label_010CDA3F:
 .byte   N06 ,Ds3 ,v112
 .byte   W12
 .byte   N06
 .byte   W12
 .byte   N06
 .byte   W12
 .byte   N06
 .byte   W12
 .byte   N06
 .byte   W12
 .byte   N06
 .byte   W12
 .byte   N06
 .byte   W12
 .byte   N06
 .byte   W12
 .byte   PEND 
@  #03 @017   ----------------------------------------
Label_010CDA52:
 .byte   N06 ,Gs2 ,v112
 .byte   W12
 .byte   N06
 .byte   W12
 .byte   N06
 .byte   W12
 .byte   N06
 .byte   W12
 .byte   N06
 .byte   W12
 .byte   N06
 .byte   W12
 .byte   N06
 .byte   W12
 .byte   N06
 .byte   W12
 .byte   PEND 
@  #03 @018   ----------------------------------------
 .byte   PATT
  .word Label_010CD9FF
@  #03 @019   ----------------------------------------
 .byte   PATT
  .word Label_010CD9BC
@  #03 @020   ----------------------------------------
 .byte   PATT
  .word Label_010CD9E7
@  #03 @021   ----------------------------------------
Label_010CDA74:
 .byte   N06 ,As2 ,v112
 .byte   W12
 .byte   N06
 .byte   W12
 .byte   N06
 .byte   W12
 .byte   N06
 .byte   W12
 .byte   N06
 .byte   W12
 .byte   N06
 .byte   W12
 .byte   N06
 .byte   W12
 .byte   N06
 .byte   W12
 .byte   PEND 
@  #03 @022   ----------------------------------------
Label_010CDA87:
 .byte   N06 ,Ds3 ,v112
 .byte   W12
 .byte   N06
 .byte   W12
 .byte   N06
 .byte   W12
 .byte   N06
 .byte   W12
 .byte   Dn3
 .byte   W12
 .byte   N06
 .byte   W12
 .byte   N06
 .byte   W12
 .byte   N06
 .byte   W12
 .byte   PEND 
@  #03 @023   ----------------------------------------
 .byte   PATT
  .word Label_010CD9BC
@  #03 @024   ----------------------------------------
 .byte   PATT
  .word Label_010CD9E7
@  #03 @025   ----------------------------------------
 .byte   PATT
  .word Label_010CDA74
@  #03 @026   ----------------------------------------
 .byte   PATT
  .word Label_010CDA87
@  #03 @027   ----------------------------------------
Label_010CDAAE:
 .byte   N06 ,Cn3 ,v112
 .byte   W12
 .byte   N06
 .byte   W12
 .byte   N06
 .byte   W12
 .byte   N06
 .byte   W12
 .byte   As2
 .byte   W12
 .byte   N06
 .byte   W12
 .byte   N06
 .byte   W12
 .byte   N06
 .byte   W12
 .byte   PEND 
@  #03 @028   ----------------------------------------
Label_010CDAC1:
 .byte   N05 ,Gs2 ,v112
 .byte   W12
 .byte   N06
 .byte   W12
 .byte   N06
 .byte   W12
 .byte   N06
 .byte   W12
 .byte   N06
 .byte   W12
 .byte   N06
 .byte   W12
 .byte   N06
 .byte   W12
 .byte   N06
 .byte   W12
 .byte   PEND 
@  #03 @029   ----------------------------------------
 .byte   PATT
  .word Label_010CDA52
@  #03 @030   ----------------------------------------
 .byte   PATT
  .word Label_010CD9FF
@  #03 @031   ----------------------------------------
 .byte   PATT
  .word Label_010CD9FF
@  #03 @032   ----------------------------------------
 .byte   PATT
  .word Label_010CD9BC
@  #03 @033   ----------------------------------------
 .byte   PATT
  .word Label_010CD9BC
@  #03 @034   ----------------------------------------
 .byte   PATT
  .word Label_010CD9CF
@  #03 @035   ----------------------------------------
 .byte   PATT
  .word Label_010CD9CF
@  #03 @036   ----------------------------------------
 .byte   PATT
  .word Label_010CD9E7
@  #03 @037   ----------------------------------------
 .byte   PATT
  .word Label_010CD9E7
@  #03 @038   ----------------------------------------
 .byte   PATT
  .word Label_010CD9FF
@  #03 @039   ----------------------------------------
 .byte   PATT
  .word Label_010CD9FF
@  #03 @040   ----------------------------------------
 .byte   PATT
  .word Label_010CD9BC
@  #03 @041   ----------------------------------------
 .byte   PATT
  .word Label_010CD9BC
@  #03 @042   ----------------------------------------
 .byte   PATT
  .word Label_010CD9CF
@  #03 @043   ----------------------------------------
 .byte   PATT
  .word Label_010CD9CF
@  #03 @044   ----------------------------------------
 .byte   PATT
  .word Label_010CD9E7
@  #03 @045   ----------------------------------------
 .byte   PATT
  .word Label_010CD9E7
@  #03 @046   ----------------------------------------
 .byte   PATT
  .word Label_010CD9FF
@  #03 @047   ----------------------------------------
 .byte   PATT
  .word Label_010CD9FF
@  #03 @048   ----------------------------------------
 .byte   PATT
  .word Label_010CDA3F
@  #03 @049   ----------------------------------------
 .byte   PATT
  .word Label_010CDA52
@  #03 @050   ----------------------------------------
 .byte   PATT
  .word Label_010CD9FF
@  #03 @051   ----------------------------------------
 .byte   PATT
  .word Label_010CD9BC
@  #03 @052   ----------------------------------------
 .byte   PATT
  .word Label_010CD9E7
@  #03 @053   ----------------------------------------
 .byte   PATT
  .word Label_010CDA74
@  #03 @054   ----------------------------------------
 .byte   PATT
  .word Label_010CDA87
@  #03 @055   ----------------------------------------
 .byte   PATT
  .word Label_010CD9BC
@  #03 @056   ----------------------------------------
 .byte   PATT
  .word Label_010CD9E7
@  #03 @057   ----------------------------------------
 .byte   PATT
  .word Label_010CDA74
@  #03 @058   ----------------------------------------
 .byte   PATT
  .word Label_010CDA87
@  #03 @059   ----------------------------------------
 .byte   PATT
  .word Label_010CDAAE
@  #03 @060   ----------------------------------------
 .byte   PATT
  .word Label_010CDAC1
@  #03 @061   ----------------------------------------
 .byte   PATT
  .word Label_010CDA52
@  #03 @062   ----------------------------------------
 .byte   PATT
  .word Label_010CD9FF
@  #03 @063   ----------------------------------------
 .byte   PATT
  .word Label_010CD9FF
@  #03 @064   ----------------------------------------
 .byte   PATT
  .word Label_010CD9BC
@  #03 @065   ----------------------------------------
 .byte   PATT
  .word Label_010CD9BC
@  #03 @066   ----------------------------------------
 .byte   PATT
  .word Label_010CD9CF
@  #03 @067   ----------------------------------------
 .byte   PATT
  .word Label_010CD9CF
@  #03 @068   ----------------------------------------
 .byte   PATT
  .word Label_010CD9E7
@  #03 @069   ----------------------------------------
 .byte   PATT
  .word Label_010CD9E7
@  #03 @070   ----------------------------------------
 .byte   PATT
  .word Label_010CD9FF
@  #03 @071   ----------------------------------------
 .byte   PATT
  .word Label_010CD9FF
@  #03 @072   ----------------------------------------
 .byte   PATT
  .word Label_010CD9BC
@  #03 @073   ----------------------------------------
 .byte   PATT
  .word Label_010CD9BC
@  #03 @074   ----------------------------------------
 .byte   PATT
  .word Label_010CD9CF
@  #03 @075   ----------------------------------------
 .byte   PATT
  .word Label_010CD9CF
@  #03 @076   ----------------------------------------
 .byte   PATT
  .word Label_010CD9E7
@  #03 @077   ----------------------------------------
 .byte   PATT
  .word Label_010CD9E7
@  #03 @078   ----------------------------------------
 .byte   PATT
  .word Label_010CD9FF
@  #03 @079   ----------------------------------------
 .byte   PATT
  .word Label_010CD9FF
@  #03 @080   ----------------------------------------
 .byte   PATT
  .word Label_010CDA3F
@  #03 @081   ----------------------------------------
 .byte   PATT
  .word Label_010CDA52
@  #03 @082   ----------------------------------------
 .byte   PATT
  .word Label_010CD9FF
@  #03 @083   ----------------------------------------
 .byte   PATT
  .word Label_010CD9BC
@  #03 @084   ----------------------------------------
 .byte   PATT
  .word Label_010CD9E7
@  #03 @085   ----------------------------------------
 .byte   PATT
  .word Label_010CDA74
@  #03 @086   ----------------------------------------
 .byte   PATT
  .word Label_010CDA87
@  #03 @087   ----------------------------------------
 .byte   PATT
  .word Label_010CD9BC
@  #03 @088   ----------------------------------------
 .byte   PATT
  .word Label_010CD9E7
@  #03 @089   ----------------------------------------
 .byte   PATT
  .word Label_010CDA74
@  #03 @090   ----------------------------------------
 .byte   PATT
  .word Label_010CDA87
@  #03 @091   ----------------------------------------
 .byte   PATT
  .word Label_010CDAAE
@  #03 @092   ----------------------------------------
 .byte   PATT
  .word Label_010CDAC1
@  #03 @093   ----------------------------------------
 .byte   PATT
  .word Label_010CDA52
@  #03 @094   ----------------------------------------
 .byte   PATT
  .word Label_010CD9FF
@  #03 @095   ----------------------------------------
 .byte   PATT
  .word Label_010CD9FF
@  #03 @096   ----------------------------------------
 .byte   GOTO
  .word Label_010CD9A6
 .byte   FINE

@**************** Track 4 (Midi-Chn.3) ****************@

SailorMoonRCrystalTokyo_004:
@  #04 @000   ----------------------------------------
 .byte   KEYSH , SailorMoonRCrystalTokyo_key+0
Label_010CD686:
 .byte   VOICE , 49
 .byte   VOL , 49*SailorMoonRCrystalTokyo_mvl/mxv
 .byte   PAN , c_v-10
 .byte   N96 ,En3 ,v100
 .byte   W96
@  #04 @001   ----------------------------------------
 .byte   TIE
 .byte   W96
@  #04 @002   ----------------------------------------
 .byte   W96
@  #04 @003   ----------------------------------------
 .byte   W96
@  #04 @004   ----------------------------------------
 .byte   W96
@  #04 @005   ----------------------------------------
 .byte   W96
@  #04 @006   ----------------------------------------
 .byte   EOT
 .byte   TIE ,Fn3
 .byte   W96
@  #04 @007   ----------------------------------------
 .byte   W48
 .byte   EOT
 .byte   N54 ,An3
 .byte   W48
@  #04 @008   ----------------------------------------
 .byte   TIE ,En3
 .byte   W96
@  #04 @009   ----------------------------------------
 .byte   W96
@  #04 @010   ----------------------------------------
 .byte   W96
@  #04 @011   ----------------------------------------
 .byte   W96
@  #04 @012   ----------------------------------------
 .byte   W96
@  #04 @013   ----------------------------------------
 .byte   W96
@  #04 @014   ----------------------------------------
 .byte   EOT
 .byte   TIE ,Fn3
 .byte   W96
@  #04 @015   ----------------------------------------
 .byte   W30
 .byte   EOT
 .byte   W18
 .byte   N42 ,An3
 .byte   W48
@  #04 @016   ----------------------------------------
 .byte   N96 ,As3
 .byte   W96
@  #04 @017   ----------------------------------------
 .byte   TIE ,Cn4
 .byte   W96
@  #04 @018   ----------------------------------------
 .byte   As3
 .byte   W06
 .byte   EOT
 .byte   Cn4
 .byte   W90
@  #04 @019   ----------------------------------------
 .byte   W24
 .byte   As3
 .byte   N36 ,Gn3
 .byte   W24
 .byte   N18 ,Gs3
 .byte   W24
 .byte   N30 ,As3
 .byte   W24
@  #04 @020   ----------------------------------------
 .byte   TIE ,Gs3
 .byte   W96
@  #04 @021   ----------------------------------------
 .byte   W96
@  #04 @022   ----------------------------------------
 .byte   EOT
 .byte   TIE ,As3
 .byte   W96
@  #04 @023   ----------------------------------------
 .byte   W96
@  #04 @024   ----------------------------------------
 .byte   EOT
 .byte   TIE ,Gs3
 .byte   W96
@  #04 @025   ----------------------------------------
 .byte   W96
@  #04 @026   ----------------------------------------
 .byte   EOT
 .byte   TIE ,As3
 .byte   W96
@  #04 @027   ----------------------------------------
 .byte   W96
@  #04 @028   ----------------------------------------
 .byte   EOT
Label_010CD6DB:
 .byte   VOICE , 48
 .byte   N12 ,Gs2 ,v100
 .byte   W12
 .byte   Cn3
 .byte   W12
 .byte   Ds3
 .byte   W12
 .byte   Gn3
 .byte   W12
 .byte   Cn3
 .byte   W12
 .byte   Ds3
 .byte   W12
 .byte   Gn3
 .byte   W12
 .byte   Cn4
 .byte   W12
 .byte   PEND 
@  #04 @029   ----------------------------------------
Label_010CD6F0:
 .byte   N12 ,Gs3 ,v100
 .byte   W12
 .byte   Cn4
 .byte   W12
 .byte   Ds4
 .byte   W12
 .byte   Gs4
 .byte   W12
 .byte   Ds4
 .byte   W12
 .byte   Cn4
 .byte   W12
 .byte   Gs3
 .byte   W12
 .byte   Gn3
 .byte   W12
 .byte   PEND 
@  #04 @030   ----------------------------------------
Label_010CD703:
 .byte   N12 ,Dn3 ,v100
 .byte   W12
 .byte   Fn3
 .byte   W12
 .byte   An3
 .byte   W12
 .byte   Cn4
 .byte   W12
 .byte   Fn3
 .byte   W12
 .byte   An3
 .byte   W12
 .byte   Cn4
 .byte   W12
 .byte   En4
 .byte   W12
 .byte   PEND 
@  #04 @031   ----------------------------------------
Label_010CD716:
 .byte   N12 ,Gn3 ,v100
 .byte   W12
 .byte   Bn3
 .byte   W12
 .byte   Dn4
 .byte   W12
 .byte   Fn4
 .byte   W12
 .byte   Gn3
 .byte   W12
 .byte   Bn3
 .byte   W12
 .byte   En4
 .byte   W12
 .byte   Gn4
 .byte   W12
 .byte   PEND 
@  #04 @032   ----------------------------------------
 .byte   VOICE , 49
 .byte   N96 ,En3
 .byte   W96
@  #04 @033   ----------------------------------------
 .byte   TIE
 .byte   W96
@  #04 @034   ----------------------------------------
 .byte   W96
@  #04 @035   ----------------------------------------
 .byte   W96
@  #04 @036   ----------------------------------------
 .byte   W96
@  #04 @037   ----------------------------------------
 .byte   W96
@  #04 @038   ----------------------------------------
 .byte   EOT
 .byte   TIE ,Fn3
 .byte   W96
@  #04 @039   ----------------------------------------
 .byte   W48
 .byte   EOT
 .byte   N54 ,An3
 .byte   W48
@  #04 @040   ----------------------------------------
 .byte   TIE ,En3
 .byte   W96
@  #04 @041   ----------------------------------------
 .byte   W96
@  #04 @042   ----------------------------------------
 .byte   W96
@  #04 @043   ----------------------------------------
 .byte   W96
@  #04 @044   ----------------------------------------
 .byte   W96
@  #04 @045   ----------------------------------------
 .byte   W96
@  #04 @046   ----------------------------------------
 .byte   EOT
 .byte   TIE ,Fn3
 .byte   W96
@  #04 @047   ----------------------------------------
 .byte   W30
 .byte   EOT
 .byte   W18
 .byte   N42 ,An3
 .byte   W48
@  #04 @048   ----------------------------------------
 .byte   N96 ,As3
 .byte   W96
@  #04 @049   ----------------------------------------
 .byte   TIE ,Cn4
 .byte   W96
@  #04 @050   ----------------------------------------
 .byte   As3
 .byte   W06
 .byte   EOT
 .byte   Cn4
 .byte   W90
@  #04 @051   ----------------------------------------
 .byte   W24
 .byte   As3
 .byte   N36 ,Gn3
 .byte   W24
 .byte   N18 ,Gs3
 .byte   W24
 .byte   N30 ,As3
 .byte   W24
@  #04 @052   ----------------------------------------
 .byte   TIE ,Gs3
 .byte   W96
@  #04 @053   ----------------------------------------
 .byte   W96
@  #04 @054   ----------------------------------------
 .byte   EOT
 .byte   TIE ,As3
 .byte   W96
@  #04 @055   ----------------------------------------
 .byte   W96
@  #04 @056   ----------------------------------------
 .byte   EOT
 .byte   TIE ,Gs3
 .byte   W96
@  #04 @057   ----------------------------------------
 .byte   W96
@  #04 @058   ----------------------------------------
 .byte   EOT
 .byte   TIE ,As3
 .byte   W96
@  #04 @059   ----------------------------------------
 .byte   W96
@  #04 @060   ----------------------------------------
 .byte   EOT
@  #04 @061   ----------------------------------------
 .byte   PATT
  .word Label_010CD6DB
@  #04 @062   ----------------------------------------
 .byte   PATT
  .word Label_010CD6F0
@  #04 @063   ----------------------------------------
 .byte   PATT
  .word Label_010CD703
@  #04 @064   ----------------------------------------
 .byte   PATT
  .word Label_010CD716
@  #04 @065   ----------------------------------------
 .byte   VOICE , 49
 .byte   N96 ,En3 ,v100
 .byte   W96
@  #04 @066   ----------------------------------------
 .byte   TIE
 .byte   W96
@  #04 @067   ----------------------------------------
 .byte   W96
@  #04 @068   ----------------------------------------
 .byte   W96
@  #04 @069   ----------------------------------------
 .byte   W96
@  #04 @070   ----------------------------------------
 .byte   W96
@  #04 @071   ----------------------------------------
 .byte   EOT
 .byte   TIE ,Fn3
 .byte   W96
@  #04 @072   ----------------------------------------
 .byte   W48
 .byte   EOT
 .byte   N54 ,An3
 .byte   W48
@  #04 @073   ----------------------------------------
 .byte   TIE ,En3
 .byte   W96
@  #04 @074   ----------------------------------------
 .byte   W96
@  #04 @075   ----------------------------------------
 .byte   W96
@  #04 @076   ----------------------------------------
 .byte   W96
@  #04 @077   ----------------------------------------
 .byte   W96
@  #04 @078   ----------------------------------------
 .byte   W96
@  #04 @079   ----------------------------------------
 .byte   EOT
 .byte   TIE ,Fn3
 .byte   W96
@  #04 @080   ----------------------------------------
 .byte   W30
 .byte   EOT
 .byte   W18
 .byte   N42 ,An3
 .byte   W48
@  #04 @081   ----------------------------------------
 .byte   N96 ,As3
 .byte   W96
@  #04 @082   ----------------------------------------
 .byte   TIE ,Cn4
 .byte   W96
@  #04 @083   ----------------------------------------
 .byte   As3
 .byte   W06
 .byte   EOT
 .byte   Cn4
 .byte   W90
@  #04 @084   ----------------------------------------
 .byte   W24
 .byte   As3
 .byte   N36 ,Gn3
 .byte   W24
 .byte   N18 ,Gs3
 .byte   W24
 .byte   N30 ,As3
 .byte   W24
@  #04 @085   ----------------------------------------
 .byte   TIE ,Gs3
 .byte   W96
@  #04 @086   ----------------------------------------
 .byte   W96
@  #04 @087   ----------------------------------------
 .byte   EOT
 .byte   TIE ,As3
 .byte   W96
@  #04 @088   ----------------------------------------
 .byte   W96
@  #04 @089   ----------------------------------------
 .byte   EOT
 .byte   TIE ,Gs3
 .byte   W96
@  #04 @090   ----------------------------------------
 .byte   W96
@  #04 @091   ----------------------------------------
 .byte   EOT
 .byte   TIE ,As3
 .byte   W96
@  #04 @092   ----------------------------------------
 .byte   W96
@  #04 @093   ----------------------------------------
 .byte   EOT
@  #04 @094   ----------------------------------------
 .byte   PATT
  .word Label_010CD6DB
@  #04 @095   ----------------------------------------
 .byte   PATT
  .word Label_010CD6F0
@  #04 @096   ----------------------------------------
 .byte   PATT
  .word Label_010CD703
@  #04 @097   ----------------------------------------
 .byte   PATT
  .word Label_010CD716
@  #04 @098   ----------------------------------------
 .byte   GOTO
  .word Label_010CD686
 .byte   FINE

@**************** Track 5 (Midi-Chn.4) ****************@

SailorMoonRCrystalTokyo_005:
@  #05 @000   ----------------------------------------
 .byte   KEYSH , SailorMoonRCrystalTokyo_key+0
Label_0110A75A:
 .byte   VOICE , 46
 .byte   VOL , 46*SailorMoonRCrystalTokyo_mvl/mxv
 .byte   PAN , c_v-64
 .byte   N96 ,Gn3 ,v112
 .byte   W96
@  #05 @001   ----------------------------------------
Label_0110A764:
 .byte   N12 ,En3 ,v112
 .byte   W12
 .byte   Dn3
 .byte   W12
 .byte   N18 ,En3
 .byte   W12
 .byte   N60 ,Gn2
 .byte   W60
 .byte   PEND 
@  #05 @002   ----------------------------------------
 .byte   N96 ,Gn3
 .byte   W96
@  #05 @003   ----------------------------------------
 .byte   PATT
  .word Label_0110A764
@  #05 @004   ----------------------------------------
 .byte   N96 ,An3 ,v112
 .byte   W96
@  #05 @005   ----------------------------------------
Label_0110A77D:
 .byte   N12 ,En3 ,v112
 .byte   W12
 .byte   Dn3
 .byte   W12
 .byte   En3
 .byte   W12
 .byte   N60 ,An2
 .byte   W60
 .byte   PEND 
@  #05 @006   ----------------------------------------
 .byte   TIE ,Cn3
 .byte   W96
@  #05 @007   ----------------------------------------
 .byte   W48
 .byte   N48 ,Fn3
 .byte   W06
 .byte   EOT
 .byte   Cn3
 .byte   W42
@  #05 @008   ----------------------------------------
 .byte   N96 ,Gn3
 .byte   W96
@  #05 @009   ----------------------------------------
 .byte   PATT
  .word Label_0110A764
@  #05 @010   ----------------------------------------
 .byte   N96 ,Gn3 ,v112
 .byte   W96
@  #05 @011   ----------------------------------------
 .byte   PATT
  .word Label_0110A764
@  #05 @012   ----------------------------------------
 .byte   N96 ,An3 ,v112
 .byte   W96
@  #05 @013   ----------------------------------------
 .byte   PATT
  .word Label_0110A77D
@  #05 @014   ----------------------------------------
 .byte   TIE ,Cn3 ,v112
 .byte   W96
@  #05 @015   ----------------------------------------
 .byte   W48
 .byte   N48 ,Fn3
 .byte   W06
 .byte   EOT
 .byte   Cn3
 .byte   W42
@  #05 @016   ----------------------------------------
 .byte   N90 ,Gn3
 .byte   W96
@  #05 @017   ----------------------------------------
 .byte   N90
 .byte   W96
@  #05 @018   ----------------------------------------
 .byte   N90
 .byte   W96
@  #05 @019   ----------------------------------------
Label_0110A7BF:
 .byte   N30 ,Fn3 ,v112
 .byte   W24
 .byte   N12 ,En3
 .byte   W12
 .byte   Fn3
 .byte   W24
 .byte   N36 ,Gn3
 .byte   W36
 .byte   PEND 
@  #05 @020   ----------------------------------------
 .byte   N66 ,Fn3
 .byte   W96
@  #05 @021   ----------------------------------------
 .byte   N90
 .byte   W96
@  #05 @022   ----------------------------------------
 .byte   N18 ,Gn3
 .byte   W96
@  #05 @023   ----------------------------------------
 .byte   N48 ,Ds3
 .byte   W96
@  #05 @024   ----------------------------------------
 .byte   N66 ,Fn3
 .byte   W96
@  #05 @025   ----------------------------------------
 .byte   N90
 .byte   W96
@  #05 @026   ----------------------------------------
 .byte   N18 ,Gn3
 .byte   W96
@  #05 @027   ----------------------------------------
 .byte   N48 ,Ds3
 .byte   W96
@  #05 @028   ----------------------------------------
 .byte   N78
 .byte   W96
@  #05 @029   ----------------------------------------
 .byte   N96 ,Cn3
 .byte   W96
@  #05 @030   ----------------------------------------
 .byte   W96
@  #05 @031   ----------------------------------------
 .byte   N78 ,Fn3
 .byte   W96
@  #05 @032   ----------------------------------------
 .byte   N96 ,Gn3
 .byte   W96
@  #05 @033   ----------------------------------------
 .byte   PATT
  .word Label_0110A764
@  #05 @034   ----------------------------------------
 .byte   N96 ,Gn3 ,v112
 .byte   W96
@  #05 @035   ----------------------------------------
 .byte   PATT
  .word Label_0110A764
@  #05 @036   ----------------------------------------
 .byte   N96 ,An3 ,v112
 .byte   W96
@  #05 @037   ----------------------------------------
 .byte   PATT
  .word Label_0110A77D
@  #05 @038   ----------------------------------------
 .byte   TIE ,Cn3 ,v112
 .byte   W96
@  #05 @039   ----------------------------------------
 .byte   W48
 .byte   N48 ,Fn3
 .byte   W06
 .byte   EOT
 .byte   Cn3
 .byte   W42
@  #05 @040   ----------------------------------------
 .byte   N96 ,Gn3
 .byte   W96
@  #05 @041   ----------------------------------------
 .byte   PATT
  .word Label_0110A764
@  #05 @042   ----------------------------------------
 .byte   N96 ,Gn3 ,v112
 .byte   W96
@  #05 @043   ----------------------------------------
 .byte   PATT
  .word Label_0110A764
@  #05 @044   ----------------------------------------
 .byte   N96 ,An3 ,v112
 .byte   W96
@  #05 @045   ----------------------------------------
 .byte   PATT
  .word Label_0110A77D
@  #05 @046   ----------------------------------------
 .byte   TIE ,Cn3 ,v112
 .byte   W96
@  #05 @047   ----------------------------------------
 .byte   W48
 .byte   N48 ,Fn3
 .byte   W06
 .byte   EOT
 .byte   Cn3
 .byte   W42
@  #05 @048   ----------------------------------------
 .byte   N90 ,Gn3
 .byte   W96
@  #05 @049   ----------------------------------------
 .byte   N90
 .byte   W96
@  #05 @050   ----------------------------------------
 .byte   N90
 .byte   W96
@  #05 @051   ----------------------------------------
 .byte   PATT
  .word Label_0110A7BF
@  #05 @052   ----------------------------------------
 .byte   N66 ,Fn3 ,v112
 .byte   W96
@  #05 @053   ----------------------------------------
 .byte   N90
 .byte   W96
@  #05 @054   ----------------------------------------
 .byte   N18 ,Gn3
 .byte   W96
@  #05 @055   ----------------------------------------
 .byte   N48 ,Ds3
 .byte   W96
@  #05 @056   ----------------------------------------
 .byte   N66 ,Fn3
 .byte   W96
@  #05 @057   ----------------------------------------
 .byte   N90
 .byte   W96
@  #05 @058   ----------------------------------------
 .byte   N18 ,Gn3
 .byte   W96
@  #05 @059   ----------------------------------------
 .byte   N48 ,Ds3
 .byte   W96
@  #05 @060   ----------------------------------------
 .byte   N78
 .byte   W96
@  #05 @061   ----------------------------------------
 .byte   N96 ,Cn3
 .byte   W96
@  #05 @062   ----------------------------------------
 .byte   W96
@  #05 @063   ----------------------------------------
 .byte   N78 ,Fn3
 .byte   W96
@  #05 @064   ----------------------------------------
 .byte   N96 ,Gn3
 .byte   W96
@  #05 @065   ----------------------------------------
 .byte   PATT
  .word Label_0110A764
@  #05 @066   ----------------------------------------
 .byte   N96 ,Gn3 ,v112
 .byte   W96
@  #05 @067   ----------------------------------------
 .byte   PATT
  .word Label_0110A764
@  #05 @068   ----------------------------------------
 .byte   N96 ,An3 ,v112
 .byte   W96
@  #05 @069   ----------------------------------------
 .byte   PATT
  .word Label_0110A77D
@  #05 @070   ----------------------------------------
 .byte   TIE ,Cn3 ,v112
 .byte   W96
@  #05 @071   ----------------------------------------
 .byte   W48
 .byte   N48 ,Fn3
 .byte   W06
 .byte   EOT
 .byte   Cn3
 .byte   W42
@  #05 @072   ----------------------------------------
 .byte   N96 ,Gn3
 .byte   W96
@  #05 @073   ----------------------------------------
 .byte   PATT
  .word Label_0110A764
@  #05 @074   ----------------------------------------
 .byte   N96 ,Gn3 ,v112
 .byte   W96
@  #05 @075   ----------------------------------------
 .byte   PATT
  .word Label_0110A764
@  #05 @076   ----------------------------------------
 .byte   N96 ,An3 ,v112
 .byte   W96
@  #05 @077   ----------------------------------------
 .byte   PATT
  .word Label_0110A77D
@  #05 @078   ----------------------------------------
 .byte   TIE ,Cn3 ,v112
 .byte   W96
@  #05 @079   ----------------------------------------
 .byte   W48
 .byte   N48 ,Fn3
 .byte   W06
 .byte   EOT
 .byte   Cn3
 .byte   W42
@  #05 @080   ----------------------------------------
 .byte   N90 ,Gn3
 .byte   W96
@  #05 @081   ----------------------------------------
 .byte   N90
 .byte   W96
@  #05 @082   ----------------------------------------
 .byte   N90
 .byte   W96
@  #05 @083   ----------------------------------------
 .byte   PATT
  .word Label_0110A7BF
@  #05 @084   ----------------------------------------
 .byte   N66 ,Fn3 ,v112
 .byte   W96
@  #05 @085   ----------------------------------------
 .byte   N90
 .byte   W96
@  #05 @086   ----------------------------------------
 .byte   N18 ,Gn3
 .byte   W96
@  #05 @087   ----------------------------------------
 .byte   N48 ,Ds3
 .byte   W96
@  #05 @088   ----------------------------------------
 .byte   N66 ,Fn3
 .byte   W96
@  #05 @089   ----------------------------------------
 .byte   N90
 .byte   W96
@  #05 @090   ----------------------------------------
 .byte   N18 ,Gn3
 .byte   W96
@  #05 @091   ----------------------------------------
 .byte   N48 ,Ds3
 .byte   W96
@  #05 @092   ----------------------------------------
 .byte   N78
 .byte   W96
@  #05 @093   ----------------------------------------
 .byte   N96 ,Cn3
 .byte   W96
@  #05 @094   ----------------------------------------
 .byte   W96
@  #05 @095   ----------------------------------------
 .byte   N78 ,Fn3
 .byte   W96
@  #05 @096   ----------------------------------------
 .byte   GOTO
  .word Label_0110A75A
 .byte   FINE

@**************** Track 6 (Midi-Chn.5) ****************@

SailorMoonRCrystalTokyo_006:
@  #06 @000   ----------------------------------------
 .byte   KEYSH , SailorMoonRCrystalTokyo_key+0
Label_010DF542:
 .byte   VOICE , 46
 .byte   VOL , 65*SailorMoonRCrystalTokyo_mvl/mxv
 .byte   N24 ,Gn4 ,v096
 .byte   W24
 .byte   N12 ,Cn4
 .byte   W12
 .byte   N24 ,Dn4
 .byte   W24
 .byte   N12 ,Gn4
 .byte   W12
 .byte   TIE ,En4
 .byte   W24
@  #06 @001   ----------------------------------------
 .byte   W90
 .byte   EOT
 .byte   W06
@  #06 @002   ----------------------------------------
Label_010DF559:
 .byte   N24 ,Gn4 ,v096
 .byte   W24
 .byte   N12 ,Cn4
 .byte   W12
 .byte   N24 ,Dn4
 .byte   W24
 .byte   N12 ,Gn4
 .byte   W12
 .byte   TIE ,En4
 .byte   W24
 .byte   PEND 
@  #06 @003   ----------------------------------------
 .byte   W90
 .byte   EOT
 .byte   W06
@  #06 @004   ----------------------------------------
Label_010DF56D:
 .byte   N24 ,En4 ,v096
 .byte   W24
 .byte   N12 ,Fn4
 .byte   W12
 .byte   N24 ,En4
 .byte   W24
 .byte   Cn4
 .byte   W24
 .byte   TIE ,An3
 .byte   W12
 .byte   PEND 
@  #06 @005   ----------------------------------------
 .byte   W96
@  #06 @006   ----------------------------------------
 .byte   EOT
Label_010DF57F:
 .byte   N24 ,En4 ,v096
 .byte   W24
 .byte   N12 ,Fn4
 .byte   W12
 .byte   N24 ,En4
 .byte   W24
 .byte   Cn4
 .byte   W24
 .byte   N84 ,Dn4
 .byte   W12
 .byte   PEND 
@  #06 @007   ----------------------------------------
 .byte   W72
 .byte   N24 ,An4
 .byte   W24
@  #06 @008   ----------------------------------------
 .byte   PATT
  .word Label_010DF559
@  #06 @009   ----------------------------------------
 .byte   W90
 .byte   EOT
 .byte   En4
 .byte   W06
@  #06 @010   ----------------------------------------
 .byte   PATT
  .word Label_010DF559
@  #06 @011   ----------------------------------------
 .byte   W90
 .byte   EOT
 .byte   En4
 .byte   W06
@  #06 @012   ----------------------------------------
 .byte   PATT
  .word Label_010DF56D
@  #06 @013   ----------------------------------------
 .byte   W72
 .byte   N12 ,An4 ,v096
 .byte   W24
@  #06 @014   ----------------------------------------
 .byte   EOT
 .byte   An3
Label_010DF5B1:
 .byte   N12 ,An4 ,v096
 .byte   W12
 .byte   Gn4
 .byte   W12
 .byte   En4
 .byte   W12
 .byte   N42 ,Dn4
 .byte   W36
 .byte   N24 ,En4
 .byte   W24
 .byte   PEND 
@  #06 @015   ----------------------------------------
Label_010DF5C0:
 .byte   N54 ,Fn4 ,v096
 .byte   W48
 .byte   N42 ,An4
 .byte   W48
 .byte   PEND 
@  #06 @016   ----------------------------------------
Label_010DF5C8:
 .byte   N18 ,Gn4 ,v096
 .byte   W24
 .byte   N06
 .byte   W12
 .byte   N42
 .byte   W36
 .byte   N12 ,Ds4
 .byte   W12
 .byte   Fn4
 .byte   W12
 .byte   PEND 
@  #06 @017   ----------------------------------------
Label_010DF5D6:
 .byte   N18 ,Fn4 ,v096
 .byte   W24
 .byte   N06 ,Gn4
 .byte   W12
 .byte   N48
 .byte   W60
 .byte   PEND 
@  #06 @018   ----------------------------------------
Label_010DF5E0:
 .byte   N18 ,Gn4 ,v096
 .byte   W24
 .byte   N06 ,Fn4
 .byte   W12
 .byte   N48
 .byte   W60
 .byte   PEND 
@  #06 @019   ----------------------------------------
Label_010DF5EA:
 .byte   N24 ,Fn4 ,v096
 .byte   W24
 .byte   N12 ,En4
 .byte   W12
 .byte   N18 ,Fn4
 .byte   W24
 .byte   N30 ,Gn4
 .byte   W36
 .byte   PEND 
@  #06 @020   ----------------------------------------
Label_010DF5F8:
 .byte   N72 ,Gs4 ,v096
 .byte   W72
 .byte   N18 ,Cn4
 .byte   W12
 .byte   N12 ,Cs4
 .byte   W12
 .byte   PEND 
@  #06 @021   ----------------------------------------
Label_010DF603:
 .byte   N78 ,Dn4 ,v096
 .byte   W72
 .byte   N24 ,Bn3
 .byte   W24
 .byte   PEND 
@  #06 @022   ----------------------------------------
Label_010DF60B:
 .byte   N66 ,Gn4 ,v096
 .byte   W72
 .byte   N12
 .byte   W12
 .byte   Gs4
 .byte   W12
 .byte   PEND 
@  #06 @023   ----------------------------------------
Label_010DF614:
 .byte   N24 ,Gn4 ,v096
 .byte   W24
 .byte   Fn4
 .byte   W24
 .byte   Ds4
 .byte   W24
 .byte   N12 ,Fn4
 .byte   W12
 .byte   Gn4
 .byte   W12
 .byte   PEND 
@  #06 @024   ----------------------------------------
 .byte   PATT
  .word Label_010DF5F8
@  #06 @025   ----------------------------------------
 .byte   PATT
  .word Label_010DF603
@  #06 @026   ----------------------------------------
 .byte   PATT
  .word Label_010DF60B
@  #06 @027   ----------------------------------------
Label_010DF631:
 .byte   N24 ,Gn4 ,v096
 .byte   W24
 .byte   Fn4
 .byte   W24
 .byte   N18 ,Ds4
 .byte   W24
 .byte   Fn4
 .byte   W24
 .byte   PEND 
@  #06 @028   ----------------------------------------
 .byte   TIE ,Gn4
 .byte   W96
@  #06 @029   ----------------------------------------
 .byte   W48
 .byte   EOT
 .byte   N24 ,Ds4
 .byte   W24
 .byte   Fn4
 .byte   W24
@  #06 @030   ----------------------------------------
 .byte   TIE ,Gn4
 .byte   W96
@  #06 @031   ----------------------------------------
 .byte   W90
 .byte   EOT
 .byte   W06
@  #06 @032   ----------------------------------------
 .byte   PATT
  .word Label_010DF559
@  #06 @033   ----------------------------------------
 .byte   W90
 .byte   EOT
 .byte   En4
 .byte   W06
@  #06 @034   ----------------------------------------
 .byte   PATT
  .word Label_010DF559
@  #06 @035   ----------------------------------------
 .byte   W90
 .byte   EOT
 .byte   En4
 .byte   W06
@  #06 @036   ----------------------------------------
 .byte   PATT
  .word Label_010DF56D
@  #06 @037   ----------------------------------------
 .byte   W96
@  #06 @038   ----------------------------------------
 .byte   EOT
 .byte   An3
@  #06 @039   ----------------------------------------
 .byte   PATT
  .word Label_010DF57F
@  #06 @040   ----------------------------------------
 .byte   W72
 .byte   N24 ,An4 ,v096
 .byte   W24
@  #06 @041   ----------------------------------------
 .byte   PATT
  .word Label_010DF559
@  #06 @042   ----------------------------------------
 .byte   W90
 .byte   EOT
 .byte   En4
 .byte   W06
@  #06 @043   ----------------------------------------
 .byte   PATT
  .word Label_010DF559
@  #06 @044   ----------------------------------------
 .byte   W90
 .byte   EOT
 .byte   En4
 .byte   W06
@  #06 @045   ----------------------------------------
 .byte   PATT
  .word Label_010DF56D
@  #06 @046   ----------------------------------------
 .byte   W72
 .byte   N12 ,An4 ,v096
 .byte   W24
@  #06 @047   ----------------------------------------
 .byte   EOT
 .byte   An3
@  #06 @048   ----------------------------------------
 .byte   PATT
  .word Label_010DF5B1
@  #06 @049   ----------------------------------------
 .byte   PATT
  .word Label_010DF5C0
@  #06 @050   ----------------------------------------
 .byte   PATT
  .word Label_010DF5C8
@  #06 @051   ----------------------------------------
 .byte   PATT
  .word Label_010DF5D6
@  #06 @052   ----------------------------------------
 .byte   PATT
  .word Label_010DF5E0
@  #06 @053   ----------------------------------------
 .byte   PATT
  .word Label_010DF5EA
@  #06 @054   ----------------------------------------
 .byte   PATT
  .word Label_010DF5F8
@  #06 @055   ----------------------------------------
 .byte   PATT
  .word Label_010DF603
@  #06 @056   ----------------------------------------
 .byte   PATT
  .word Label_010DF60B
@  #06 @057   ----------------------------------------
 .byte   PATT
  .word Label_010DF614
@  #06 @058   ----------------------------------------
 .byte   PATT
  .word Label_010DF5F8
@  #06 @059   ----------------------------------------
 .byte   PATT
  .word Label_010DF603
@  #06 @060   ----------------------------------------
 .byte   PATT
  .word Label_010DF60B
@  #06 @061   ----------------------------------------
 .byte   PATT
  .word Label_010DF631
@  #06 @062   ----------------------------------------
 .byte   TIE ,Gn4 ,v096
 .byte   W96
@  #06 @063   ----------------------------------------
 .byte   W48
 .byte   EOT
 .byte   N24 ,Ds4
 .byte   W24
 .byte   Fn4
 .byte   W24
@  #06 @064   ----------------------------------------
 .byte   TIE ,Gn4
 .byte   W96
@  #06 @065   ----------------------------------------
 .byte   W90
 .byte   EOT
 .byte   W06
@  #06 @066   ----------------------------------------
 .byte   PATT
  .word Label_010DF559
@  #06 @067   ----------------------------------------
 .byte   W90
 .byte   EOT
 .byte   En4
 .byte   W06
@  #06 @068   ----------------------------------------
 .byte   PATT
  .word Label_010DF559
@  #06 @069   ----------------------------------------
 .byte   W90
 .byte   EOT
 .byte   En4
 .byte   W06
@  #06 @070   ----------------------------------------
 .byte   PATT
  .word Label_010DF56D
@  #06 @071   ----------------------------------------
 .byte   W96
@  #06 @072   ----------------------------------------
 .byte   EOT
 .byte   An3
@  #06 @073   ----------------------------------------
 .byte   PATT
  .word Label_010DF57F
@  #06 @074   ----------------------------------------
 .byte   W72
 .byte   N24 ,An4 ,v096
 .byte   W24
@  #06 @075   ----------------------------------------
 .byte   PATT
  .word Label_010DF559
@  #06 @076   ----------------------------------------
 .byte   W90
 .byte   EOT
 .byte   En4
 .byte   W06
@  #06 @077   ----------------------------------------
 .byte   PATT
  .word Label_010DF559
@  #06 @078   ----------------------------------------
 .byte   W90
 .byte   EOT
 .byte   En4
 .byte   W06
@  #06 @079   ----------------------------------------
 .byte   PATT
  .word Label_010DF56D
@  #06 @080   ----------------------------------------
 .byte   W72
 .byte   N12 ,An4 ,v096
 .byte   W24
@  #06 @081   ----------------------------------------
 .byte   EOT
 .byte   An3
@  #06 @082   ----------------------------------------
 .byte   PATT
  .word Label_010DF5B1
@  #06 @083   ----------------------------------------
 .byte   PATT
  .word Label_010DF5C0
@  #06 @084   ----------------------------------------
 .byte   PATT
  .word Label_010DF5C8
@  #06 @085   ----------------------------------------
 .byte   PATT
  .word Label_010DF5D6
@  #06 @086   ----------------------------------------
 .byte   PATT
  .word Label_010DF5E0
@  #06 @087   ----------------------------------------
 .byte   PATT
  .word Label_010DF5EA
@  #06 @088   ----------------------------------------
 .byte   PATT
  .word Label_010DF5F8
@  #06 @089   ----------------------------------------
 .byte   PATT
  .word Label_010DF603
@  #06 @090   ----------------------------------------
 .byte   PATT
  .word Label_010DF60B
@  #06 @091   ----------------------------------------
 .byte   PATT
  .word Label_010DF614
@  #06 @092   ----------------------------------------
 .byte   PATT
  .word Label_010DF5F8
@  #06 @093   ----------------------------------------
 .byte   PATT
  .word Label_010DF603
@  #06 @094   ----------------------------------------
 .byte   PATT
  .word Label_010DF60B
@  #06 @095   ----------------------------------------
 .byte   PATT
  .word Label_010DF631
@  #06 @096   ----------------------------------------
 .byte   TIE ,Gn4 ,v096
 .byte   W96
@  #06 @097   ----------------------------------------
 .byte   W48
 .byte   EOT
 .byte   N24 ,Ds4
 .byte   W24
 .byte   Fn4
 .byte   W24
@  #06 @098   ----------------------------------------
 .byte   TIE ,Gn4
 .byte   W96
@  #06 @099   ----------------------------------------
 .byte   W90
 .byte   EOT
 .byte   W06
@  #06 @100   ----------------------------------------
 .byte   GOTO
  .word Label_010DF542
 .byte   FINE

@**************** Track 7 (Midi-Chn.6) ****************@

SailorMoonRCrystalTokyo_007:
@  #07 @000   ----------------------------------------
 .byte   KEYSH , SailorMoonRCrystalTokyo_key+0
Label_010DF87A:
 .byte   VOICE , 127
 .byte   VOL , 47*SailorMoonRCrystalTokyo_mvl/mxv
 .byte   N06 ,Cn1 ,v112
 .byte   W36
 .byte   N24 ,Fs1
 .byte   W36
 .byte   N12 ,Dn1
 .byte   W12
 .byte   N06 ,Cn1
 .byte   W12
@  #07 @001   ----------------------------------------
Label_010DF88B:
 .byte   N12 ,Cn1 ,v112
 .byte   W36
 .byte   Fs1
 .byte   W36
 .byte   Dn1
 .byte   W24
 .byte   PEND 
@  #07 @002   ----------------------------------------
Label_010DF894:
 .byte   N06 ,Cn1 ,v112
 .byte   W36
 .byte   N24 ,Fs1
 .byte   W36
 .byte   N12 ,Dn1
 .byte   W12
 .byte   N06 ,Cn1
 .byte   W12
 .byte   PEND 
@  #07 @003   ----------------------------------------
 .byte   PATT
  .word Label_010DF88B
@  #07 @004   ----------------------------------------
 .byte   PATT
  .word Label_010DF894
@  #07 @005   ----------------------------------------
 .byte   PATT
  .word Label_010DF88B
@  #07 @006   ----------------------------------------
 .byte   PATT
  .word Label_010DF894
@  #07 @007   ----------------------------------------
 .byte   PATT
  .word Label_010DF88B
@  #07 @008   ----------------------------------------
 .byte   PATT
  .word Label_010DF894
@  #07 @009   ----------------------------------------
 .byte   PATT
  .word Label_010DF88B
@  #07 @010   ----------------------------------------
 .byte   PATT
  .word Label_010DF894
@  #07 @011   ----------------------------------------
 .byte   PATT
  .word Label_010DF88B
@  #07 @012   ----------------------------------------
 .byte   PATT
  .word Label_010DF894
@  #07 @013   ----------------------------------------
 .byte   PATT
  .word Label_010DF88B
@  #07 @014   ----------------------------------------
 .byte   PATT
  .word Label_010DF894
@  #07 @015   ----------------------------------------
Label_010DF8DE:
 .byte   N12 ,Cn1 ,v112
 .byte   W36
 .byte   Fs1
 .byte   W24
 .byte   N06 ,Dn1
 .byte   W12
 .byte   N06
 .byte   W12
 .byte   N06
 .byte   W12
 .byte   PEND 
@  #07 @016   ----------------------------------------
Label_010DF8EC:
 .byte   N06 ,Cn1 ,v112
 .byte   W24
 .byte   Dn1
 .byte   W12
 .byte   Cn1
 .byte   W12
 .byte   N06
 .byte   W24
 .byte   N12 ,Dn1
 .byte   W24
 .byte   PEND 
@  #07 @017   ----------------------------------------
 .byte   PATT
  .word Label_010DF8EC
@  #07 @018   ----------------------------------------
Label_010DF8FF:
 .byte   N12 ,Cn1 ,v112
 .byte   W24
 .byte   Dn1
 .byte   W12
 .byte   Cn1
 .byte   W24
 .byte   N06
 .byte   W12
 .byte   N12 ,Bn1
 .byte   W12
 .byte   An1
 .byte   W12
 .byte   PEND 
@  #07 @019   ----------------------------------------
Label_010DF90F:
 .byte   N12 ,Cn1 ,v112
 .byte   W24
 .byte   Dn1
 .byte   W24
 .byte   Cn1
 .byte   W24
 .byte   Dn1
 .byte   W24
 .byte   PEND 
@  #07 @020   ----------------------------------------
 .byte   PATT
  .word Label_010DF90F
@  #07 @021   ----------------------------------------
 .byte   PATT
  .word Label_010DF90F
@  #07 @022   ----------------------------------------
 .byte   PATT
  .word Label_010DF90F
@  #07 @023   ----------------------------------------
 .byte   PATT
  .word Label_010DF90F
@  #07 @024   ----------------------------------------
 .byte   PATT
  .word Label_010DF90F
@  #07 @025   ----------------------------------------
 .byte   PATT
  .word Label_010DF90F
@  #07 @026   ----------------------------------------
 .byte   PATT
  .word Label_010DF90F
@  #07 @027   ----------------------------------------
 .byte   PATT
  .word Label_010DF90F
@  #07 @028   ----------------------------------------
 .byte   PATT
  .word Label_010DF90F
@  #07 @029   ----------------------------------------
 .byte   PATT
  .word Label_010DF90F
@  #07 @030   ----------------------------------------
 .byte   PATT
  .word Label_010DF90F
@  #07 @031   ----------------------------------------
Label_010DF951:
 .byte   N12 ,Cn1 ,v112
 .byte   W24
 .byte   Dn1
 .byte   W24
 .byte   Cn1
 .byte   W12
 .byte   Dn1
 .byte   W12
 .byte   N12
 .byte   W12
 .byte   N06
 .byte   W12
 .byte   PEND 
@  #07 @032   ----------------------------------------
 .byte   PATT
  .word Label_010DF894
@  #07 @033   ----------------------------------------
 .byte   PATT
  .word Label_010DF88B
@  #07 @034   ----------------------------------------
 .byte   PATT
  .word Label_010DF894
@  #07 @035   ----------------------------------------
 .byte   PATT
  .word Label_010DF88B
@  #07 @036   ----------------------------------------
 .byte   PATT
  .word Label_010DF894
@  #07 @037   ----------------------------------------
 .byte   PATT
  .word Label_010DF88B
@  #07 @038   ----------------------------------------
 .byte   PATT
  .word Label_010DF894
@  #07 @039   ----------------------------------------
 .byte   PATT
  .word Label_010DF88B
@  #07 @040   ----------------------------------------
 .byte   PATT
  .word Label_010DF894
@  #07 @041   ----------------------------------------
 .byte   PATT
  .word Label_010DF88B
@  #07 @042   ----------------------------------------
 .byte   PATT
  .word Label_010DF894
@  #07 @043   ----------------------------------------
 .byte   PATT
  .word Label_010DF88B
@  #07 @044   ----------------------------------------
 .byte   PATT
  .word Label_010DF894
@  #07 @045   ----------------------------------------
 .byte   PATT
  .word Label_010DF88B
@  #07 @046   ----------------------------------------
 .byte   PATT
  .word Label_010DF894
@  #07 @047   ----------------------------------------
 .byte   PATT
  .word Label_010DF8DE
@  #07 @048   ----------------------------------------
 .byte   PATT
  .word Label_010DF8EC
@  #07 @049   ----------------------------------------
 .byte   PATT
  .word Label_010DF8EC
@  #07 @050   ----------------------------------------
 .byte   PATT
  .word Label_010DF8FF
@  #07 @051   ----------------------------------------
 .byte   PATT
  .word Label_010DF90F
@  #07 @052   ----------------------------------------
 .byte   PATT
  .word Label_010DF90F
@  #07 @053   ----------------------------------------
 .byte   PATT
  .word Label_010DF90F
@  #07 @054   ----------------------------------------
 .byte   PATT
  .word Label_010DF90F
@  #07 @055   ----------------------------------------
 .byte   PATT
  .word Label_010DF90F
@  #07 @056   ----------------------------------------
 .byte   PATT
  .word Label_010DF90F
@  #07 @057   ----------------------------------------
 .byte   PATT
  .word Label_010DF90F
@  #07 @058   ----------------------------------------
 .byte   PATT
  .word Label_010DF90F
@  #07 @059   ----------------------------------------
 .byte   PATT
  .word Label_010DF90F
@  #07 @060   ----------------------------------------
 .byte   PATT
  .word Label_010DF90F
@  #07 @061   ----------------------------------------
 .byte   PATT
  .word Label_010DF90F
@  #07 @062   ----------------------------------------
 .byte   PATT
  .word Label_010DF90F
@  #07 @063   ----------------------------------------
 .byte   PATT
  .word Label_010DF951
@  #07 @064   ----------------------------------------
 .byte   PATT
  .word Label_010DF894
@  #07 @065   ----------------------------------------
 .byte   PATT
  .word Label_010DF88B
@  #07 @066   ----------------------------------------
 .byte   PATT
  .word Label_010DF894
@  #07 @067   ----------------------------------------
 .byte   PATT
  .word Label_010DF88B
@  #07 @068   ----------------------------------------
 .byte   PATT
  .word Label_010DF894
@  #07 @069   ----------------------------------------
 .byte   PATT
  .word Label_010DF88B
@  #07 @070   ----------------------------------------
 .byte   PATT
  .word Label_010DF894
@  #07 @071   ----------------------------------------
 .byte   PATT
  .word Label_010DF88B
@  #07 @072   ----------------------------------------
 .byte   PATT
  .word Label_010DF894
@  #07 @073   ----------------------------------------
 .byte   PATT
  .word Label_010DF88B
@  #07 @074   ----------------------------------------
 .byte   PATT
  .word Label_010DF894
@  #07 @075   ----------------------------------------
 .byte   PATT
  .word Label_010DF88B
@  #07 @076   ----------------------------------------
 .byte   PATT
  .word Label_010DF894
@  #07 @077   ----------------------------------------
 .byte   PATT
  .word Label_010DF88B
@  #07 @078   ----------------------------------------
 .byte   PATT
  .word Label_010DF894
@  #07 @079   ----------------------------------------
 .byte   PATT
  .word Label_010DF8DE
@  #07 @080   ----------------------------------------
 .byte   PATT
  .word Label_010DF8EC
@  #07 @081   ----------------------------------------
 .byte   PATT
  .word Label_010DF8EC
@  #07 @082   ----------------------------------------
 .byte   PATT
  .word Label_010DF8FF
@  #07 @083   ----------------------------------------
 .byte   PATT
  .word Label_010DF90F
@  #07 @084   ----------------------------------------
 .byte   PATT
  .word Label_010DF90F
@  #07 @085   ----------------------------------------
 .byte   PATT
  .word Label_010DF90F
@  #07 @086   ----------------------------------------
 .byte   PATT
  .word Label_010DF90F
@  #07 @087   ----------------------------------------
 .byte   PATT
  .word Label_010DF90F
@  #07 @088   ----------------------------------------
 .byte   PATT
  .word Label_010DF90F
@  #07 @089   ----------------------------------------
 .byte   PATT
  .word Label_010DF90F
@  #07 @090   ----------------------------------------
 .byte   PATT
  .word Label_010DF90F
@  #07 @091   ----------------------------------------
 .byte   PATT
  .word Label_010DF90F
@  #07 @092   ----------------------------------------
 .byte   PATT
  .word Label_010DF90F
@  #07 @093   ----------------------------------------
 .byte   PATT
  .word Label_010DF90F
@  #07 @094   ----------------------------------------
 .byte   PATT
  .word Label_010DF90F
@  #07 @095   ----------------------------------------
 .byte   PATT
  .word Label_010DF951
@  #07 @096   ----------------------------------------
 .byte   GOTO
  .word Label_010DF87A
 .byte   FINE

@******************************************************@
	.align	2

SailorMoonRCrystalTokyo:
	.byte	7	@ NumTrks
	.byte	0	@ NumBlks
	.byte	SailorMoonRCrystalTokyo_pri	@ Priority
	.byte	SailorMoonRCrystalTokyo_rev	@ Reverb.
    
	.word	SailorMoonRCrystalTokyo_grp
    
	.word	SailorMoonRCrystalTokyo_001
	.word	SailorMoonRCrystalTokyo_002
	.word	SailorMoonRCrystalTokyo_003
	.word	SailorMoonRCrystalTokyo_004
	.word	SailorMoonRCrystalTokyo_005
	.word	SailorMoonRCrystalTokyo_006
	.word	SailorMoonRCrystalTokyo_007

	.end
