	.include "MPlayDef.s"

	.equ	SegaCDBIOS_grp, voicegroup000
	.equ	SegaCDBIOS_pri, 0
	.equ	SegaCDBIOS_rev, 0
	.equ	SegaCDBIOS_mvl, 127
	.equ	SegaCDBIOS_key, 0
	.equ	SegaCDBIOS_tbs, 1
	.equ	SegaCDBIOS_exg, 0
	.equ	SegaCDBIOS_cmp, 1

	.section .rodata
	.global	SegaCDBIOS
	.align	2


@**************** Track 1 (Midi-Chn.0) ****************@

SegaCDBIOS_001:
@  #01 @000   ----------------------------------------
 .byte   KEYSH , SegaCDBIOS_key+0
 .byte   TEMPO , 150*SegaCDBIOS_tbs/2
 .byte   VOICE , 36
 .byte   MODT 0
 .byte   LFOS 44
 .byte   MODT 0
 .byte   LFOS 44
 .byte   VOL , 48*SegaCDBIOS_mvl/mxv
 .byte   PAN , c_v+0
 .byte   N96 ,Gn1 ,v127
 .byte   W96
@  #01 @001   ----------------------------------------
 .byte   Gs1
 .byte   W96
@  #01 @002   ----------------------------------------
 .byte   N84 ,As1
 .byte   W84
 .byte   N12 ,Dn2
 .byte   W12
@  #01 @003   ----------------------------------------
 .byte   N36 ,Ds2
 .byte   W36
 .byte   Dn2
 .byte   W36
 .byte   N24 ,As1
 .byte   W18
Label_01195EDE:
 .byte   W06
@  #01 @004   ----------------------------------------
 .byte   N96 ,Gn1 ,v127
 .byte   W96
@  #01 @005   ----------------------------------------
 .byte   Gs1
 .byte   W96
@  #01 @006   ----------------------------------------
 .byte   As1
 .byte   W96
@  #01 @007   ----------------------------------------
 .byte   Fn2
 .byte   W96
@  #01 @008   ----------------------------------------
Label_01195EE9:
 .byte   N18 ,Cn2 ,v127
 .byte   W24
 .byte   N06
 .byte   W12
 .byte   N06
 .byte   W24
 .byte   N06
 .byte   W12
 .byte   N24
 .byte   W24
 .byte   PEND 
@  #01 @009   ----------------------------------------
Label_01195EF6:
 .byte   W12
 .byte   N06 ,Cn2 ,v127
 .byte   W24
 .byte   N06
 .byte   W24
 .byte   N06
 .byte   W24
 .byte   N06
 .byte   W12
 .byte   PEND 
@  #01 @010   ----------------------------------------
 .byte   PATT
  .word Label_01195EE9
@  #01 @011   ----------------------------------------
Label_01195F07:
 .byte   W12
 .byte   N06 ,Cn2 ,v127
 .byte   W24
 .byte   N06
 .byte   W24
 .byte   N06
 .byte   W24
 .byte   As1
 .byte   W12
 .byte   PEND 
@  #01 @012   ----------------------------------------
 .byte   PATT
  .word Label_01195EE9
@  #01 @013   ----------------------------------------
 .byte   PATT
  .word Label_01195EF6
@  #01 @014   ----------------------------------------
 .byte   PATT
  .word Label_01195EE9
@  #01 @015   ----------------------------------------
 .byte   PATT
  .word Label_01195F07
@  #01 @016   ----------------------------------------
Label_01195F27:
 .byte   N18 ,As1 ,v127
 .byte   W24
 .byte   N06
 .byte   W12
 .byte   As2
 .byte   W24
 .byte   As1
 .byte   W12
 .byte   N24
 .byte   W24
 .byte   PEND 
@  #01 @017   ----------------------------------------
Label_01195F34:
 .byte   W12
 .byte   N06 ,As1 ,v127
 .byte   W24
 .byte   N06
 .byte   W24
 .byte   N06
 .byte   W24
 .byte   N06
 .byte   W12
 .byte   PEND 
@  #01 @018   ----------------------------------------
 .byte   PATT
  .word Label_01195EE9
@  #01 @019   ----------------------------------------
 .byte   PATT
  .word Label_01195EF6
@  #01 @020   ----------------------------------------
 .byte   PATT
  .word Label_01195F27
@  #01 @021   ----------------------------------------
 .byte   PATT
  .word Label_01195F34
@  #01 @022   ----------------------------------------
 .byte   PATT
  .word Label_01195EE9
@  #01 @023   ----------------------------------------
Label_01195F59:
 .byte   N06 ,Cn2 ,v127
 .byte   W18
 .byte   N06
 .byte   W18
 .byte   N06
 .byte   W12
 .byte   N36
 .byte   W48
 .byte   PEND 
@  #01 @024   ----------------------------------------
 .byte   PATT
  .word Label_01195EE9
@  #01 @025   ----------------------------------------
 .byte   PATT
  .word Label_01195EF6
@  #01 @026   ----------------------------------------
 .byte   PATT
  .word Label_01195EE9
@  #01 @027   ----------------------------------------
 .byte   PATT
  .word Label_01195F07
@  #01 @028   ----------------------------------------
 .byte   PATT
  .word Label_01195EE9
@  #01 @029   ----------------------------------------
 .byte   PATT
  .word Label_01195EF6
@  #01 @030   ----------------------------------------
 .byte   PATT
  .word Label_01195EE9
@  #01 @031   ----------------------------------------
 .byte   PATT
  .word Label_01195F07
@  #01 @032   ----------------------------------------
 .byte   PATT
  .word Label_01195F27
@  #01 @033   ----------------------------------------
 .byte   PATT
  .word Label_01195F34
@  #01 @034   ----------------------------------------
 .byte   PATT
  .word Label_01195EE9
@  #01 @035   ----------------------------------------
 .byte   PATT
  .word Label_01195EF6
@  #01 @036   ----------------------------------------
 .byte   PATT
  .word Label_01195F27
@  #01 @037   ----------------------------------------
 .byte   PATT
  .word Label_01195F34
@  #01 @038   ----------------------------------------
 .byte   PATT
  .word Label_01195EE9
@  #01 @039   ----------------------------------------
 .byte   PATT
  .word Label_01195F59
@  #01 @040   ----------------------------------------
 .byte   PATT
  .word Label_01195EE9
@  #01 @041   ----------------------------------------
 .byte   PATT
  .word Label_01195EF6
@  #01 @042   ----------------------------------------
 .byte   PATT
  .word Label_01195EE9
@  #01 @043   ----------------------------------------
 .byte   PATT
  .word Label_01195F07
@  #01 @044   ----------------------------------------
 .byte   PATT
  .word Label_01195EE9
@  #01 @045   ----------------------------------------
 .byte   PATT
  .word Label_01195EF6
@  #01 @046   ----------------------------------------
 .byte   PATT
  .word Label_01195EE9
@  #01 @047   ----------------------------------------
 .byte   PATT
  .word Label_01195F07
@  #01 @048   ----------------------------------------
 .byte   PATT
  .word Label_01195F27
@  #01 @049   ----------------------------------------
 .byte   PATT
  .word Label_01195F34
@  #01 @050   ----------------------------------------
 .byte   PATT
  .word Label_01195EE9
@  #01 @051   ----------------------------------------
 .byte   PATT
  .word Label_01195EF6
@  #01 @052   ----------------------------------------
 .byte   PATT
  .word Label_01195F27
@  #01 @053   ----------------------------------------
 .byte   PATT
  .word Label_01195F34
@  #01 @054   ----------------------------------------
 .byte   PATT
  .word Label_01195EE9
@  #01 @055   ----------------------------------------
 .byte   PATT
  .word Label_01195F59
@  #01 @056   ----------------------------------------
 .byte   PATT
  .word Label_01195EE9
@  #01 @057   ----------------------------------------
 .byte   PATT
  .word Label_01195EF6
@  #01 @058   ----------------------------------------
 .byte   PATT
  .word Label_01195EE9
@  #01 @059   ----------------------------------------
 .byte   PATT
  .word Label_01195F07
@  #01 @060   ----------------------------------------
 .byte   PATT
  .word Label_01195EE9
@  #01 @061   ----------------------------------------
 .byte   PATT
  .word Label_01195EF6
@  #01 @062   ----------------------------------------
 .byte   PATT
  .word Label_01195EE9
@  #01 @063   ----------------------------------------
 .byte   PATT
  .word Label_01195F07
@  #01 @064   ----------------------------------------
 .byte   PATT
  .word Label_01195F27
@  #01 @065   ----------------------------------------
 .byte   PATT
  .word Label_01195F34
@  #01 @066   ----------------------------------------
 .byte   PATT
  .word Label_01195EE9
@  #01 @067   ----------------------------------------
 .byte   PATT
  .word Label_01195EF6
@  #01 @068   ----------------------------------------
 .byte   PATT
  .word Label_01195F27
@  #01 @069   ----------------------------------------
 .byte   PATT
  .word Label_01195F34
@  #01 @070   ----------------------------------------
 .byte   PATT
  .word Label_01195EE9
@  #01 @071   ----------------------------------------
 .byte   PATT
  .word Label_01195F59
@  #01 @072   ----------------------------------------
 .byte   PATT
  .word Label_01195EE9
@  #01 @073   ----------------------------------------
 .byte   PATT
  .word Label_01195EF6
@  #01 @074   ----------------------------------------
 .byte   PATT
  .word Label_01195EE9
@  #01 @075   ----------------------------------------
 .byte   PATT
  .word Label_01195F07
@  #01 @076   ----------------------------------------
 .byte   PATT
  .word Label_01195EE9
@  #01 @077   ----------------------------------------
 .byte   PATT
  .word Label_01195EF6
@  #01 @078   ----------------------------------------
 .byte   PATT
  .word Label_01195EE9
@  #01 @079   ----------------------------------------
 .byte   PATT
  .word Label_01195F07
@  #01 @080   ----------------------------------------
 .byte   PATT
  .word Label_01195F27
@  #01 @081   ----------------------------------------
 .byte   PATT
  .word Label_01195F34
@  #01 @082   ----------------------------------------
 .byte   PATT
  .word Label_01195EE9
@  #01 @083   ----------------------------------------
 .byte   PATT
  .word Label_01195EF6
@  #01 @084   ----------------------------------------
 .byte   PATT
  .word Label_01195F27
@  #01 @085   ----------------------------------------
 .byte   PATT
  .word Label_01195F34
@  #01 @086   ----------------------------------------
 .byte   PATT
  .word Label_01195EE9
@  #01 @087   ----------------------------------------
 .byte   PATT
  .word Label_01195F59
@  #01 @088   ----------------------------------------
 .byte   GOTO
  .word Label_01195EDE
 .byte   FINE

@**************** Track 2 (Midi-Chn.1) ****************@

SegaCDBIOS_002:
@  #02 @000   ----------------------------------------
 .byte   KEYSH , SegaCDBIOS_key+0
 .byte   VOICE , 28
 .byte   MODT 0
 .byte   LFOS 44
 .byte   MODT 0
 .byte   LFOS 44
 .byte   VOL , 57*SegaCDBIOS_mvl/mxv
 .byte   PAN , c_v+0
 .byte   W12
 .byte   N12 ,Gn2 ,v127
 .byte   W12
 .byte   Cn3
 .byte   W12
 .byte   N24 ,Dn3
 .byte   W24
 .byte   Gn3
 .byte   W24
 .byte   Dn3
 .byte   W12
@  #02 @001   ----------------------------------------
Label_01196A6A:
 .byte   W12
 .byte   N24 ,Gn2 ,v127
 .byte   W24
 .byte   N48 ,Cn3
 .byte   W60
 .byte   PEND 
@  #02 @002   ----------------------------------------
Label_01196A73:
 .byte   W12
 .byte   N12 ,Gn2 ,v127
 .byte   W12
 .byte   Cn3
 .byte   W12
 .byte   N24 ,Dn3
 .byte   W24
 .byte   Gn3
 .byte   W24
 .byte   Dn3
 .byte   W12
 .byte   PEND 
@  #02 @003   ----------------------------------------
 .byte   W12
 .byte   Gn2
 .byte   W24
 .byte   N48 ,Cn3
 .byte   W54
Label_01196A88:
 .byte   W06
@  #02 @004   ----------------------------------------
 .byte   PATT
  .word Label_01196A73
@  #02 @005   ----------------------------------------
 .byte   PATT
  .word Label_01196A6A
@  #02 @006   ----------------------------------------
 .byte   W12
 .byte   N12 ,Gn2 ,v127
 .byte   W12
 .byte   Cn3
 .byte   W12
 .byte   N24 ,Dn3
 .byte   W24
 .byte   N12 ,Gn3
 .byte   W24
 .byte   N24 ,Gs3
 .byte   W12
@  #02 @007   ----------------------------------------
 .byte   W12
 .byte   Gn3
 .byte   W24
 .byte   N48 ,Fn3
 .byte   W60
@  #02 @008   ----------------------------------------
 .byte   W96
@  #02 @009   ----------------------------------------
 .byte   W96
@  #02 @010   ----------------------------------------
 .byte   W96
@  #02 @011   ----------------------------------------
 .byte   W96
@  #02 @012   ----------------------------------------
 .byte   W96
@  #02 @013   ----------------------------------------
 .byte   W96
@  #02 @014   ----------------------------------------
 .byte   W96
@  #02 @015   ----------------------------------------
Label_01196AB0:
 .byte   W60
 .byte   N12 ,Fn3 ,v127
 .byte   W12
 .byte   Gn3
 .byte   W12
 .byte   As3
 .byte   W12
 .byte   PEND 
@  #02 @016   ----------------------------------------
Label_01196ABA:
 .byte   N36 ,Cn4 ,v127
 .byte   W36
 .byte   N48 ,As3
 .byte   W60
 .byte   PEND 
@  #02 @017   ----------------------------------------
Label_01196AC2:
 .byte   N36 ,Gn3 ,v127
 .byte   W36
 .byte   N48 ,Fn3
 .byte   W48
 .byte   N12 ,Ds3
 .byte   W12
 .byte   PEND 
@  #02 @018   ----------------------------------------
Label_01196ACD:
 .byte   N12 ,Fn3 ,v127
 .byte   W12
 .byte   N24 ,Gn3
 .byte   W24
 .byte   TIE
 .byte   W60
 .byte   PEND 
@  #02 @019   ----------------------------------------
 .byte   W60
 .byte   EOT
 .byte   N12 ,Fn3
 .byte   W12
 .byte   Gn3
 .byte   W12
 .byte   As3
 .byte   W12
@  #02 @020   ----------------------------------------
 .byte   PATT
  .word Label_01196ABA
@  #02 @021   ----------------------------------------
 .byte   PATT
  .word Label_01196AC2
@  #02 @022   ----------------------------------------
Label_01196AEA:
 .byte   N12 ,Fn3 ,v127
 .byte   W12
 .byte   N24 ,Gn3
 .byte   W24
 .byte   N48 ,Cn3
 .byte   W48
 .byte   N12 ,As2
 .byte   W12
 .byte   PEND 
@  #02 @023   ----------------------------------------
 .byte   N96 ,Cn3
 .byte   W96
@  #02 @024   ----------------------------------------
 .byte   W96
@  #02 @025   ----------------------------------------
 .byte   W96
@  #02 @026   ----------------------------------------
 .byte   W96
@  #02 @027   ----------------------------------------
 .byte   W96
@  #02 @028   ----------------------------------------
 .byte   W96
@  #02 @029   ----------------------------------------
 .byte   W96
@  #02 @030   ----------------------------------------
 .byte   W96
@  #02 @031   ----------------------------------------
 .byte   PATT
  .word Label_01196AB0
@  #02 @032   ----------------------------------------
 .byte   PATT
  .word Label_01196ABA
@  #02 @033   ----------------------------------------
 .byte   PATT
  .word Label_01196AC2
@  #02 @034   ----------------------------------------
 .byte   PATT
  .word Label_01196ACD
@  #02 @035   ----------------------------------------
 .byte   W60
 .byte   EOT
 .byte   Gn3
 .byte   N12 ,Fn3 ,v127
 .byte   W12
 .byte   Gn3
 .byte   W12
 .byte   As3
 .byte   W12
@  #02 @036   ----------------------------------------
 .byte   PATT
  .word Label_01196ABA
@  #02 @037   ----------------------------------------
 .byte   PATT
  .word Label_01196AC2
@  #02 @038   ----------------------------------------
 .byte   PATT
  .word Label_01196AEA
@  #02 @039   ----------------------------------------
 .byte   N96 ,Cn3 ,v127
 .byte   W96
@  #02 @040   ----------------------------------------
 .byte   W96
@  #02 @041   ----------------------------------------
 .byte   W96
@  #02 @042   ----------------------------------------
 .byte   W96
@  #02 @043   ----------------------------------------
 .byte   W96
@  #02 @044   ----------------------------------------
 .byte   W96
@  #02 @045   ----------------------------------------
 .byte   W96
@  #02 @046   ----------------------------------------
 .byte   W96
@  #02 @047   ----------------------------------------
 .byte   PATT
  .word Label_01196AB0
@  #02 @048   ----------------------------------------
 .byte   PATT
  .word Label_01196ABA
@  #02 @049   ----------------------------------------
 .byte   PATT
  .word Label_01196AC2
@  #02 @050   ----------------------------------------
 .byte   PATT
  .word Label_01196ACD
@  #02 @051   ----------------------------------------
 .byte   W60
 .byte   EOT
 .byte   Gn3
 .byte   N12 ,Fn3 ,v127
 .byte   W12
 .byte   Gn3
 .byte   W12
 .byte   As3
 .byte   W12
@  #02 @052   ----------------------------------------
 .byte   PATT
  .word Label_01196ABA
@  #02 @053   ----------------------------------------
 .byte   PATT
  .word Label_01196AC2
@  #02 @054   ----------------------------------------
 .byte   PATT
  .word Label_01196AEA
@  #02 @055   ----------------------------------------
 .byte   N96 ,Cn3 ,v127
 .byte   W96
@  #02 @056   ----------------------------------------
 .byte   W96
@  #02 @057   ----------------------------------------
 .byte   W96
@  #02 @058   ----------------------------------------
 .byte   W96
@  #02 @059   ----------------------------------------
 .byte   W96
@  #02 @060   ----------------------------------------
 .byte   W96
@  #02 @061   ----------------------------------------
 .byte   W96
@  #02 @062   ----------------------------------------
 .byte   W96
@  #02 @063   ----------------------------------------
 .byte   PATT
  .word Label_01196AB0
@  #02 @064   ----------------------------------------
 .byte   PATT
  .word Label_01196ABA
@  #02 @065   ----------------------------------------
 .byte   PATT
  .word Label_01196AC2
@  #02 @066   ----------------------------------------
 .byte   PATT
  .word Label_01196ACD
@  #02 @067   ----------------------------------------
 .byte   W60
 .byte   EOT
 .byte   Gn3
 .byte   N12 ,Fn3 ,v127
 .byte   W12
 .byte   Gn3
 .byte   W12
 .byte   As3
 .byte   W12
@  #02 @068   ----------------------------------------
 .byte   PATT
  .word Label_01196ABA
@  #02 @069   ----------------------------------------
 .byte   PATT
  .word Label_01196AC2
@  #02 @070   ----------------------------------------
 .byte   PATT
  .word Label_01196AEA
@  #02 @071   ----------------------------------------
 .byte   N96 ,Cn3 ,v127
 .byte   W96
@  #02 @072   ----------------------------------------
 .byte   W96
@  #02 @073   ----------------------------------------
 .byte   W96
@  #02 @074   ----------------------------------------
 .byte   W96
@  #02 @075   ----------------------------------------
 .byte   W96
@  #02 @076   ----------------------------------------
 .byte   W96
@  #02 @077   ----------------------------------------
 .byte   W96
@  #02 @078   ----------------------------------------
 .byte   W96
@  #02 @079   ----------------------------------------
 .byte   PATT
  .word Label_01196AB0
@  #02 @080   ----------------------------------------
 .byte   PATT
  .word Label_01196ABA
@  #02 @081   ----------------------------------------
 .byte   PATT
  .word Label_01196AC2
@  #02 @082   ----------------------------------------
 .byte   PATT
  .word Label_01196ACD
@  #02 @083   ----------------------------------------
 .byte   W60
 .byte   EOT
 .byte   Gn3
 .byte   N12 ,Fn3 ,v127
 .byte   W12
 .byte   Gn3
 .byte   W12
 .byte   As3
 .byte   W12
@  #02 @084   ----------------------------------------
 .byte   PATT
  .word Label_01196ABA
@  #02 @085   ----------------------------------------
 .byte   PATT
  .word Label_01196AC2
@  #02 @086   ----------------------------------------
 .byte   PATT
  .word Label_01196AEA
@  #02 @087   ----------------------------------------
 .byte   N96 ,Cn3 ,v127
 .byte   W96
@  #02 @088   ----------------------------------------
 .byte   GOTO
  .word Label_01196A88
 .byte   FINE

@**************** Track 3 (Midi-Chn.2) ****************@

SegaCDBIOS_003:
@  #03 @000   ----------------------------------------
 .byte   KEYSH , SegaCDBIOS_key+0
 .byte   VOICE , 28
 .byte   MODT 0
 .byte   LFOS 44
 .byte   MODT 0
 .byte   LFOS 44
 .byte   VOL , 60*SegaCDBIOS_mvl/mxv
 .byte   PAN , c_v+0
 .byte   W24
 .byte   N12 ,Gn2 ,v052
 .byte   W12
 .byte   Cn3
 .byte   W12
 .byte   N24 ,Dn3
 .byte   W24
 .byte   Gn3
 .byte   W24
@  #03 @001   ----------------------------------------
Label_01196C04:
 .byte   N24 ,Dn3 ,v052
 .byte   W24
 .byte   Gn2
 .byte   W24
 .byte   N48 ,Cn3
 .byte   W48
 .byte   PEND 
@  #03 @002   ----------------------------------------
Label_01196C0E:
 .byte   W24
 .byte   N12 ,Gn2 ,v052
 .byte   W12
 .byte   Cn3
 .byte   W12
 .byte   N24 ,Dn3
 .byte   W24
 .byte   Gn3
 .byte   W24
 .byte   PEND 
@  #03 @003   ----------------------------------------
 .byte   Dn3
 .byte   W24
 .byte   Gn2
 .byte   W24
 .byte   N48 ,Cn3
 .byte   W42
Label_01196C22:
 .byte   W06
@  #03 @004   ----------------------------------------
 .byte   PATT
  .word Label_01196C0E
@  #03 @005   ----------------------------------------
 .byte   PATT
  .word Label_01196C04
@  #03 @006   ----------------------------------------
 .byte   W24
 .byte   N12 ,Gn2 ,v052
 .byte   W12
 .byte   Cn3
 .byte   W12
 .byte   N24 ,Dn3
 .byte   W24
 .byte   N12 ,Gn3
 .byte   W24
@  #03 @007   ----------------------------------------
 .byte   N24 ,Gs3
 .byte   W24
 .byte   Gn3
 .byte   W24
 .byte   N48 ,Fn3
 .byte   W48
@  #03 @008   ----------------------------------------
 .byte   W96
@  #03 @009   ----------------------------------------
 .byte   W96
@  #03 @010   ----------------------------------------
 .byte   W96
@  #03 @011   ----------------------------------------
 .byte   W96
@  #03 @012   ----------------------------------------
 .byte   W96
@  #03 @013   ----------------------------------------
 .byte   W96
@  #03 @014   ----------------------------------------
 .byte   W96
@  #03 @015   ----------------------------------------
Label_01196C49:
 .byte   W72
 .byte   N12 ,Fn3 ,v052
 .byte   W12
 .byte   Gn3
 .byte   W12
 .byte   PEND 
@  #03 @016   ----------------------------------------
Label_01196C51:
 .byte   N12 ,As3 ,v052
 .byte   W12
 .byte   N36 ,Cn4
 .byte   W36
 .byte   N48 ,As3
 .byte   W48
 .byte   PEND 
@  #03 @017   ----------------------------------------
Label_01196C5C:
 .byte   W12
 .byte   N36 ,Gn3 ,v052
 .byte   W36
 .byte   N48 ,Fn3
 .byte   W48
 .byte   PEND 
@  #03 @018   ----------------------------------------
Label_01196C65:
 .byte   N12 ,Ds3 ,v052
 .byte   W12
 .byte   Fn3
 .byte   W12
 .byte   N24 ,Gn3
 .byte   W24
 .byte   TIE
 .byte   W48
 .byte   PEND 
@  #03 @019   ----------------------------------------
 .byte   W72
 .byte   EOT
 .byte   N12 ,Fn3
 .byte   W12
 .byte   Gn3
 .byte   W12
@  #03 @020   ----------------------------------------
 .byte   PATT
  .word Label_01196C51
@  #03 @021   ----------------------------------------
 .byte   PATT
  .word Label_01196C5C
@  #03 @022   ----------------------------------------
Label_01196C82:
 .byte   N12 ,Ds3 ,v052
 .byte   W12
 .byte   Fn3
 .byte   W12
 .byte   N24 ,Gn3
 .byte   W24
 .byte   N48 ,Cn3
 .byte   W48
 .byte   PEND 
@  #03 @023   ----------------------------------------
Label_01196C8F:
 .byte   N12 ,As2 ,v052
 .byte   W12
 .byte   N96 ,Cn3
 .byte   W84
 .byte   PEND 
@  #03 @024   ----------------------------------------
 .byte   W96
@  #03 @025   ----------------------------------------
 .byte   W96
@  #03 @026   ----------------------------------------
 .byte   W96
@  #03 @027   ----------------------------------------
 .byte   W96
@  #03 @028   ----------------------------------------
 .byte   W96
@  #03 @029   ----------------------------------------
 .byte   W96
@  #03 @030   ----------------------------------------
 .byte   W96
@  #03 @031   ----------------------------------------
 .byte   PATT
  .word Label_01196C49
@  #03 @032   ----------------------------------------
 .byte   PATT
  .word Label_01196C51
@  #03 @033   ----------------------------------------
 .byte   PATT
  .word Label_01196C5C
@  #03 @034   ----------------------------------------
 .byte   PATT
  .word Label_01196C65
@  #03 @035   ----------------------------------------
 .byte   W72
 .byte   EOT
 .byte   Gn3
 .byte   N12 ,Fn3 ,v052
 .byte   W12
 .byte   Gn3
 .byte   W12
@  #03 @036   ----------------------------------------
 .byte   PATT
  .word Label_01196C51
@  #03 @037   ----------------------------------------
 .byte   PATT
  .word Label_01196C5C
@  #03 @038   ----------------------------------------
 .byte   PATT
  .word Label_01196C82
@  #03 @039   ----------------------------------------
 .byte   PATT
  .word Label_01196C8F
@  #03 @040   ----------------------------------------
 .byte   W96
@  #03 @041   ----------------------------------------
 .byte   W96
@  #03 @042   ----------------------------------------
 .byte   W96
@  #03 @043   ----------------------------------------
 .byte   W96
@  #03 @044   ----------------------------------------
 .byte   W96
@  #03 @045   ----------------------------------------
 .byte   W96
@  #03 @046   ----------------------------------------
 .byte   W96
@  #03 @047   ----------------------------------------
 .byte   PATT
  .word Label_01196C49
@  #03 @048   ----------------------------------------
 .byte   PATT
  .word Label_01196C51
@  #03 @049   ----------------------------------------
 .byte   PATT
  .word Label_01196C5C
@  #03 @050   ----------------------------------------
 .byte   PATT
  .word Label_01196C65
@  #03 @051   ----------------------------------------
 .byte   W72
 .byte   EOT
 .byte   Gn3
 .byte   N12 ,Fn3 ,v052
 .byte   W12
 .byte   Gn3
 .byte   W12
@  #03 @052   ----------------------------------------
 .byte   PATT
  .word Label_01196C51
@  #03 @053   ----------------------------------------
 .byte   PATT
  .word Label_01196C5C
@  #03 @054   ----------------------------------------
 .byte   PATT
  .word Label_01196C82
@  #03 @055   ----------------------------------------
 .byte   PATT
  .word Label_01196C8F
@  #03 @056   ----------------------------------------
 .byte   W96
@  #03 @057   ----------------------------------------
 .byte   W96
@  #03 @058   ----------------------------------------
 .byte   W96
@  #03 @059   ----------------------------------------
 .byte   W96
@  #03 @060   ----------------------------------------
 .byte   W96
@  #03 @061   ----------------------------------------
 .byte   W96
@  #03 @062   ----------------------------------------
 .byte   W96
@  #03 @063   ----------------------------------------
 .byte   PATT
  .word Label_01196C49
@  #03 @064   ----------------------------------------
 .byte   PATT
  .word Label_01196C51
@  #03 @065   ----------------------------------------
 .byte   PATT
  .word Label_01196C5C
@  #03 @066   ----------------------------------------
 .byte   PATT
  .word Label_01196C65
@  #03 @067   ----------------------------------------
 .byte   W72
 .byte   EOT
 .byte   Gn3
 .byte   N12 ,Fn3 ,v052
 .byte   W12
 .byte   Gn3
 .byte   W12
@  #03 @068   ----------------------------------------
 .byte   PATT
  .word Label_01196C51
@  #03 @069   ----------------------------------------
 .byte   PATT
  .word Label_01196C5C
@  #03 @070   ----------------------------------------
 .byte   PATT
  .word Label_01196C82
@  #03 @071   ----------------------------------------
 .byte   PATT
  .word Label_01196C8F
@  #03 @072   ----------------------------------------
 .byte   W96
@  #03 @073   ----------------------------------------
 .byte   W96
@  #03 @074   ----------------------------------------
 .byte   W96
@  #03 @075   ----------------------------------------
 .byte   W96
@  #03 @076   ----------------------------------------
 .byte   W96
@  #03 @077   ----------------------------------------
 .byte   W96
@  #03 @078   ----------------------------------------
 .byte   W96
@  #03 @079   ----------------------------------------
 .byte   PATT
  .word Label_01196C49
@  #03 @080   ----------------------------------------
 .byte   PATT
  .word Label_01196C51
@  #03 @081   ----------------------------------------
 .byte   PATT
  .word Label_01196C5C
@  #03 @082   ----------------------------------------
 .byte   PATT
  .word Label_01196C65
@  #03 @083   ----------------------------------------
 .byte   W72
 .byte   EOT
 .byte   Gn3
 .byte   N12 ,Fn3 ,v052
 .byte   W12
 .byte   Gn3
 .byte   W12
@  #03 @084   ----------------------------------------
 .byte   PATT
  .word Label_01196C51
@  #03 @085   ----------------------------------------
 .byte   PATT
  .word Label_01196C5C
@  #03 @086   ----------------------------------------
 .byte   PATT
  .word Label_01196C82
@  #03 @087   ----------------------------------------
 .byte   N12 ,As2 ,v052
 .byte   W96
@  #03 @088   ----------------------------------------
 .byte   GOTO
  .word Label_01196C22
 .byte   FINE

@**************** Track 4 (Midi-Chn.3) ****************@

SegaCDBIOS_004:
@  #04 @000   ----------------------------------------
 .byte   KEYSH , SegaCDBIOS_key+0
 .byte   VOICE , 4
 .byte   MODT 0
 .byte   LFOS 44
 .byte   MODT 0
 .byte   LFOS 44
 .byte   VOL , 48*SegaCDBIOS_mvl/mxv
 .byte   PAN , c_v+0
 .byte   W96
@  #04 @001   ----------------------------------------
 .byte   W96
@  #04 @002   ----------------------------------------
 .byte   W96
@  #04 @003   ----------------------------------------
 .byte   W90
Label_01196198:
 .byte   W06
@  #04 @004   ----------------------------------------
 .byte   W96
@  #04 @005   ----------------------------------------
 .byte   W96
@  #04 @006   ----------------------------------------
 .byte   W96
@  #04 @007   ----------------------------------------
 .byte   W84
 .byte   N12 ,As2 ,v068
 .byte   W12
@  #04 @008   ----------------------------------------
Label_011961A1:
 .byte   N36 ,Cn3 ,v068
 .byte   W36
 .byte   N06 ,As2
 .byte   W36
 .byte   N36 ,Cn3
 .byte   W24
 .byte   PEND 
@  #04 @009   ----------------------------------------
Label_011961AC:
 .byte   W12
 .byte   N06 ,As2 ,v068
 .byte   W72
 .byte   N12
 .byte   W12
 .byte   PEND 
@  #04 @010   ----------------------------------------
 .byte   PATT
  .word Label_011961A1
@  #04 @011   ----------------------------------------
Label_011961B9:
 .byte   W12
 .byte   N06 ,As2 ,v068
 .byte   W36
 .byte   Ds3
 .byte   W12
 .byte   N12
 .byte   W12
 .byte   Dn3
 .byte   W12
 .byte   As2
 .byte   W12
 .byte   PEND 
@  #04 @012   ----------------------------------------
 .byte   PATT
  .word Label_011961A1
@  #04 @013   ----------------------------------------
 .byte   PATT
  .word Label_011961AC
@  #04 @014   ----------------------------------------
 .byte   PATT
  .word Label_011961A1
@  #04 @015   ----------------------------------------
Label_011961D6:
 .byte   W12
 .byte   N06 ,As2 ,v068
 .byte   W24
 .byte   N48 ,Gn2
 .byte   W48
 .byte   N12 ,As2
 .byte   W12
 .byte   PEND 
@  #04 @016   ----------------------------------------
 .byte   PATT
  .word Label_011961A1
@  #04 @017   ----------------------------------------
 .byte   PATT
  .word Label_011961AC
@  #04 @018   ----------------------------------------
 .byte   PATT
  .word Label_011961A1
@  #04 @019   ----------------------------------------
Label_011961F1:
 .byte   W12
 .byte   N06 ,As2 ,v068
 .byte   W24
 .byte   N36 ,Gn2
 .byte   W36
 .byte   N12
 .byte   W12
 .byte   N06 ,As2
 .byte   W12
 .byte   PEND 
@  #04 @020   ----------------------------------------
 .byte   PATT
  .word Label_011961A1
@  #04 @021   ----------------------------------------
 .byte   PATT
  .word Label_011961AC
@  #04 @022   ----------------------------------------
 .byte   PATT
  .word Label_011961A1
@  #04 @023   ----------------------------------------
Label_0119620E:
 .byte   W12
 .byte   N06 ,As2 ,v068
 .byte   W24
 .byte   N12
 .byte   W12
 .byte   N48 ,Cn3
 .byte   W48
 .byte   PEND 
@  #04 @024   ----------------------------------------
 .byte   PATT
  .word Label_011961A1
@  #04 @025   ----------------------------------------
 .byte   PATT
  .word Label_011961AC
@  #04 @026   ----------------------------------------
 .byte   PATT
  .word Label_011961A1
@  #04 @027   ----------------------------------------
 .byte   PATT
  .word Label_011961B9
@  #04 @028   ----------------------------------------
 .byte   PATT
  .word Label_011961A1
@  #04 @029   ----------------------------------------
 .byte   PATT
  .word Label_011961AC
@  #04 @030   ----------------------------------------
 .byte   PATT
  .word Label_011961A1
@  #04 @031   ----------------------------------------
 .byte   PATT
  .word Label_011961D6
@  #04 @032   ----------------------------------------
 .byte   PATT
  .word Label_011961A1
@  #04 @033   ----------------------------------------
 .byte   PATT
  .word Label_011961AC
@  #04 @034   ----------------------------------------
 .byte   PATT
  .word Label_011961A1
@  #04 @035   ----------------------------------------
 .byte   PATT
  .word Label_011961F1
@  #04 @036   ----------------------------------------
 .byte   PATT
  .word Label_011961A1
@  #04 @037   ----------------------------------------
 .byte   PATT
  .word Label_011961AC
@  #04 @038   ----------------------------------------
 .byte   PATT
  .word Label_011961A1
@  #04 @039   ----------------------------------------
 .byte   PATT
  .word Label_0119620E
@  #04 @040   ----------------------------------------
 .byte   PATT
  .word Label_011961A1
@  #04 @041   ----------------------------------------
 .byte   PATT
  .word Label_011961AC
@  #04 @042   ----------------------------------------
 .byte   PATT
  .word Label_011961A1
@  #04 @043   ----------------------------------------
 .byte   PATT
  .word Label_011961B9
@  #04 @044   ----------------------------------------
 .byte   PATT
  .word Label_011961A1
@  #04 @045   ----------------------------------------
 .byte   PATT
  .word Label_011961AC
@  #04 @046   ----------------------------------------
 .byte   PATT
  .word Label_011961A1
@  #04 @047   ----------------------------------------
 .byte   PATT
  .word Label_011961D6
@  #04 @048   ----------------------------------------
 .byte   PATT
  .word Label_011961A1
@  #04 @049   ----------------------------------------
 .byte   PATT
  .word Label_011961AC
@  #04 @050   ----------------------------------------
 .byte   PATT
  .word Label_011961A1
@  #04 @051   ----------------------------------------
 .byte   PATT
  .word Label_011961F1
@  #04 @052   ----------------------------------------
 .byte   PATT
  .word Label_011961A1
@  #04 @053   ----------------------------------------
 .byte   PATT
  .word Label_011961AC
@  #04 @054   ----------------------------------------
 .byte   PATT
  .word Label_011961A1
@  #04 @055   ----------------------------------------
 .byte   PATT
  .word Label_0119620E
@  #04 @056   ----------------------------------------
 .byte   PATT
  .word Label_011961A1
@  #04 @057   ----------------------------------------
 .byte   PATT
  .word Label_011961AC
@  #04 @058   ----------------------------------------
 .byte   PATT
  .word Label_011961A1
@  #04 @059   ----------------------------------------
 .byte   PATT
  .word Label_011961B9
@  #04 @060   ----------------------------------------
 .byte   PATT
  .word Label_011961A1
@  #04 @061   ----------------------------------------
 .byte   PATT
  .word Label_011961AC
@  #04 @062   ----------------------------------------
 .byte   PATT
  .word Label_011961A1
@  #04 @063   ----------------------------------------
 .byte   PATT
  .word Label_011961D6
@  #04 @064   ----------------------------------------
 .byte   PATT
  .word Label_011961A1
@  #04 @065   ----------------------------------------
 .byte   PATT
  .word Label_011961AC
@  #04 @066   ----------------------------------------
 .byte   PATT
  .word Label_011961A1
@  #04 @067   ----------------------------------------
 .byte   PATT
  .word Label_011961F1
@  #04 @068   ----------------------------------------
 .byte   PATT
  .word Label_011961A1
@  #04 @069   ----------------------------------------
 .byte   PATT
  .word Label_011961AC
@  #04 @070   ----------------------------------------
 .byte   PATT
  .word Label_011961A1
@  #04 @071   ----------------------------------------
 .byte   PATT
  .word Label_0119620E
@  #04 @072   ----------------------------------------
 .byte   PATT
  .word Label_011961A1
@  #04 @073   ----------------------------------------
 .byte   PATT
  .word Label_011961AC
@  #04 @074   ----------------------------------------
 .byte   PATT
  .word Label_011961A1
@  #04 @075   ----------------------------------------
 .byte   PATT
  .word Label_011961B9
@  #04 @076   ----------------------------------------
 .byte   PATT
  .word Label_011961A1
@  #04 @077   ----------------------------------------
 .byte   PATT
  .word Label_011961AC
@  #04 @078   ----------------------------------------
 .byte   PATT
  .word Label_011961A1
@  #04 @079   ----------------------------------------
 .byte   PATT
  .word Label_011961D6
@  #04 @080   ----------------------------------------
 .byte   PATT
  .word Label_011961A1
@  #04 @081   ----------------------------------------
 .byte   PATT
  .word Label_011961AC
@  #04 @082   ----------------------------------------
 .byte   PATT
  .word Label_011961A1
@  #04 @083   ----------------------------------------
 .byte   PATT
  .word Label_011961F1
@  #04 @084   ----------------------------------------
 .byte   PATT
  .word Label_011961A1
@  #04 @085   ----------------------------------------
 .byte   PATT
  .word Label_011961AC
@  #04 @086   ----------------------------------------
 .byte   PATT
  .word Label_011961A1
@  #04 @087   ----------------------------------------
 .byte   PATT
  .word Label_0119620E
@  #04 @088   ----------------------------------------
 .byte   GOTO
  .word Label_01196198
 .byte   FINE

@**************** Track 5 (Midi-Chn.4) ****************@

SegaCDBIOS_005:
@  #05 @000   ----------------------------------------
 .byte   KEYSH , SegaCDBIOS_key+0
 .byte   VOICE , 4
 .byte   MODT 0
 .byte   LFOS 44
 .byte   MODT 0
 .byte   LFOS 44
 .byte   VOL , 48*SegaCDBIOS_mvl/mxv
 .byte   PAN , c_v+0
 .byte   W96
@  #05 @001   ----------------------------------------
 .byte   W96
@  #05 @002   ----------------------------------------
 .byte   W96
@  #05 @003   ----------------------------------------
 .byte   W90
Label_01196374:
 .byte   W06
@  #05 @004   ----------------------------------------
 .byte   W96
@  #05 @005   ----------------------------------------
 .byte   W96
@  #05 @006   ----------------------------------------
 .byte   W96
@  #05 @007   ----------------------------------------
 .byte   W84
 .byte   N12 ,As2 ,v068
 .byte   W12
@  #05 @008   ----------------------------------------
Label_0119637D:
 .byte   N36 ,Gn2 ,v068
 .byte   W36
 .byte   N06 ,Fn2
 .byte   W36
 .byte   N36 ,Gn2
 .byte   W24
 .byte   PEND 
@  #05 @009   ----------------------------------------
Label_01196388:
 .byte   W12
 .byte   N06 ,Fn2 ,v068
 .byte   W72
 .byte   N12
 .byte   W12
 .byte   PEND 
@  #05 @010   ----------------------------------------
 .byte   PATT
  .word Label_0119637D
@  #05 @011   ----------------------------------------
Label_01196395:
 .byte   W12
 .byte   N06 ,Fn2 ,v068
 .byte   W36
 .byte   As2
 .byte   W12
 .byte   N12
 .byte   W24
 .byte   Fn2
 .byte   W12
 .byte   PEND 
@  #05 @012   ----------------------------------------
 .byte   PATT
  .word Label_0119637D
@  #05 @013   ----------------------------------------
 .byte   PATT
  .word Label_01196388
@  #05 @014   ----------------------------------------
 .byte   PATT
  .word Label_0119637D
@  #05 @015   ----------------------------------------
Label_011963B0:
 .byte   W12
 .byte   N06 ,Fn2 ,v068
 .byte   W24
 .byte   N48 ,Ds2
 .byte   W48
 .byte   N12 ,Fn2
 .byte   W12
 .byte   PEND 
@  #05 @016   ----------------------------------------
 .byte   PATT
  .word Label_0119637D
@  #05 @017   ----------------------------------------
 .byte   PATT
  .word Label_01196388
@  #05 @018   ----------------------------------------
 .byte   PATT
  .word Label_0119637D
@  #05 @019   ----------------------------------------
Label_011963CB:
 .byte   W12
 .byte   N06 ,Fn2 ,v068
 .byte   W24
 .byte   N36 ,Ds2
 .byte   W36
 .byte   N12
 .byte   W12
 .byte   N06 ,Fn2
 .byte   W12
 .byte   PEND 
@  #05 @020   ----------------------------------------
 .byte   PATT
  .word Label_0119637D
@  #05 @021   ----------------------------------------
 .byte   PATT
  .word Label_01196388
@  #05 @022   ----------------------------------------
 .byte   PATT
  .word Label_0119637D
@  #05 @023   ----------------------------------------
Label_011963E8:
 .byte   W12
 .byte   N06 ,Fn2 ,v068
 .byte   W24
 .byte   N12
 .byte   W12
 .byte   N48 ,Gn2
 .byte   W48
 .byte   PEND 
@  #05 @024   ----------------------------------------
 .byte   PATT
  .word Label_0119637D
@  #05 @025   ----------------------------------------
 .byte   PATT
  .word Label_01196388
@  #05 @026   ----------------------------------------
 .byte   PATT
  .word Label_0119637D
@  #05 @027   ----------------------------------------
 .byte   PATT
  .word Label_01196395
@  #05 @028   ----------------------------------------
 .byte   PATT
  .word Label_0119637D
@  #05 @029   ----------------------------------------
 .byte   PATT
  .word Label_01196388
@  #05 @030   ----------------------------------------
 .byte   PATT
  .word Label_0119637D
@  #05 @031   ----------------------------------------
 .byte   PATT
  .word Label_011963B0
@  #05 @032   ----------------------------------------
 .byte   PATT
  .word Label_0119637D
@  #05 @033   ----------------------------------------
 .byte   PATT
  .word Label_01196388
@  #05 @034   ----------------------------------------
 .byte   PATT
  .word Label_0119637D
@  #05 @035   ----------------------------------------
 .byte   PATT
  .word Label_011963CB
@  #05 @036   ----------------------------------------
 .byte   PATT
  .word Label_0119637D
@  #05 @037   ----------------------------------------
 .byte   PATT
  .word Label_01196388
@  #05 @038   ----------------------------------------
 .byte   PATT
  .word Label_0119637D
@  #05 @039   ----------------------------------------
 .byte   PATT
  .word Label_011963E8
@  #05 @040   ----------------------------------------
 .byte   PATT
  .word Label_0119637D
@  #05 @041   ----------------------------------------
 .byte   PATT
  .word Label_01196388
@  #05 @042   ----------------------------------------
 .byte   PATT
  .word Label_0119637D
@  #05 @043   ----------------------------------------
 .byte   PATT
  .word Label_01196395
@  #05 @044   ----------------------------------------
 .byte   PATT
  .word Label_0119637D
@  #05 @045   ----------------------------------------
 .byte   PATT
  .word Label_01196388
@  #05 @046   ----------------------------------------
 .byte   PATT
  .word Label_0119637D
@  #05 @047   ----------------------------------------
 .byte   PATT
  .word Label_011963B0
@  #05 @048   ----------------------------------------
 .byte   PATT
  .word Label_0119637D
@  #05 @049   ----------------------------------------
 .byte   PATT
  .word Label_01196388
@  #05 @050   ----------------------------------------
 .byte   PATT
  .word Label_0119637D
@  #05 @051   ----------------------------------------
 .byte   PATT
  .word Label_011963CB
@  #05 @052   ----------------------------------------
 .byte   PATT
  .word Label_0119637D
@  #05 @053   ----------------------------------------
 .byte   PATT
  .word Label_01196388
@  #05 @054   ----------------------------------------
 .byte   PATT
  .word Label_0119637D
@  #05 @055   ----------------------------------------
 .byte   PATT
  .word Label_011963E8
@  #05 @056   ----------------------------------------
 .byte   PATT
  .word Label_0119637D
@  #05 @057   ----------------------------------------
 .byte   PATT
  .word Label_01196388
@  #05 @058   ----------------------------------------
 .byte   PATT
  .word Label_0119637D
@  #05 @059   ----------------------------------------
 .byte   PATT
  .word Label_01196395
@  #05 @060   ----------------------------------------
 .byte   PATT
  .word Label_0119637D
@  #05 @061   ----------------------------------------
 .byte   PATT
  .word Label_01196388
@  #05 @062   ----------------------------------------
 .byte   PATT
  .word Label_0119637D
@  #05 @063   ----------------------------------------
 .byte   PATT
  .word Label_011963B0
@  #05 @064   ----------------------------------------
 .byte   PATT
  .word Label_0119637D
@  #05 @065   ----------------------------------------
 .byte   PATT
  .word Label_01196388
@  #05 @066   ----------------------------------------
 .byte   PATT
  .word Label_0119637D
@  #05 @067   ----------------------------------------
 .byte   PATT
  .word Label_011963CB
@  #05 @068   ----------------------------------------
 .byte   PATT
  .word Label_0119637D
@  #05 @069   ----------------------------------------
 .byte   PATT
  .word Label_01196388
@  #05 @070   ----------------------------------------
 .byte   PATT
  .word Label_0119637D
@  #05 @071   ----------------------------------------
 .byte   PATT
  .word Label_011963E8
@  #05 @072   ----------------------------------------
 .byte   PATT
  .word Label_0119637D
@  #05 @073   ----------------------------------------
 .byte   PATT
  .word Label_01196388
@  #05 @074   ----------------------------------------
 .byte   PATT
  .word Label_0119637D
@  #05 @075   ----------------------------------------
 .byte   PATT
  .word Label_01196395
@  #05 @076   ----------------------------------------
 .byte   PATT
  .word Label_0119637D
@  #05 @077   ----------------------------------------
 .byte   PATT
  .word Label_01196388
@  #05 @078   ----------------------------------------
 .byte   PATT
  .word Label_0119637D
@  #05 @079   ----------------------------------------
 .byte   PATT
  .word Label_011963B0
@  #05 @080   ----------------------------------------
 .byte   PATT
  .word Label_0119637D
@  #05 @081   ----------------------------------------
 .byte   PATT
  .word Label_01196388
@  #05 @082   ----------------------------------------
 .byte   PATT
  .word Label_0119637D
@  #05 @083   ----------------------------------------
 .byte   PATT
  .word Label_011963CB
@  #05 @084   ----------------------------------------
 .byte   PATT
  .word Label_0119637D
@  #05 @085   ----------------------------------------
 .byte   PATT
  .word Label_01196388
@  #05 @086   ----------------------------------------
 .byte   PATT
  .word Label_0119637D
@  #05 @087   ----------------------------------------
 .byte   PATT
  .word Label_011963E8
@  #05 @088   ----------------------------------------
 .byte   GOTO
  .word Label_01196374
 .byte   FINE

@**************** Track 6 (Midi-Chn.5) ****************@

SegaCDBIOS_006:
@  #06 @000   ----------------------------------------
 .byte   KEYSH , SegaCDBIOS_key+0
 .byte   VOICE , 50
 .byte   MODT 0
 .byte   LFOS 44
 .byte   MODT 0
 .byte   LFOS 44
 .byte   VOL , 40*SegaCDBIOS_mvl/mxv
 .byte   PAN , c_v+0
 .byte   N96 ,Gn0 ,v036
 .byte   W96
@  #06 @001   ----------------------------------------
 .byte   Gs0
 .byte   W96
@  #06 @002   ----------------------------------------
 .byte   N84 ,As0
 .byte   W84
 .byte   N12 ,Dn1
 .byte   W12
@  #06 @003   ----------------------------------------
 .byte   N36 ,Ds1
 .byte   W36
 .byte   Dn1
 .byte   W36
 .byte   N24 ,As0
 .byte   W18
Label_011943FC:
 .byte   W06
@  #06 @004   ----------------------------------------
 .byte   N84 ,Gn0 ,v036
 .byte   W84
 .byte   N12 ,As0
 .byte   W12
@  #06 @005   ----------------------------------------
 .byte   N72 ,Cn1
 .byte   W72
 .byte   N12 ,As0
 .byte   W12
 .byte   Cn1
 .byte   W12
@  #06 @006   ----------------------------------------
 .byte   N36 ,Dn1
 .byte   W36
 .byte   Ds1
 .byte   W36
 .byte   N24 ,Fn1
 .byte   W24
@  #06 @007   ----------------------------------------
 .byte   N12 ,Gn1
 .byte   W12
 .byte   Gs1
 .byte   W12
 .byte   N60 ,Gn1
 .byte   W72
@  #06 @008   ----------------------------------------
 .byte   W96
@  #06 @009   ----------------------------------------
 .byte   W96
@  #06 @010   ----------------------------------------
 .byte   W96
@  #06 @011   ----------------------------------------
 .byte   W96
@  #06 @012   ----------------------------------------
 .byte   W96
@  #06 @013   ----------------------------------------
 .byte   W96
@  #06 @014   ----------------------------------------
 .byte   W96
@  #06 @015   ----------------------------------------
 .byte   W96
@  #06 @016   ----------------------------------------
 .byte   W96
@  #06 @017   ----------------------------------------
 .byte   W96
@  #06 @018   ----------------------------------------
 .byte   W96
@  #06 @019   ----------------------------------------
 .byte   W96
@  #06 @020   ----------------------------------------
 .byte   W96
@  #06 @021   ----------------------------------------
 .byte   W96
@  #06 @022   ----------------------------------------
 .byte   W96
@  #06 @023   ----------------------------------------
 .byte   W96
@  #06 @024   ----------------------------------------
 .byte   W96
@  #06 @025   ----------------------------------------
 .byte   W96
@  #06 @026   ----------------------------------------
 .byte   W96
@  #06 @027   ----------------------------------------
 .byte   W96
@  #06 @028   ----------------------------------------
 .byte   W96
@  #06 @029   ----------------------------------------
 .byte   W96
@  #06 @030   ----------------------------------------
 .byte   W96
@  #06 @031   ----------------------------------------
 .byte   W96
@  #06 @032   ----------------------------------------
 .byte   W96
@  #06 @033   ----------------------------------------
 .byte   W96
@  #06 @034   ----------------------------------------
 .byte   W96
@  #06 @035   ----------------------------------------
 .byte   W96
@  #06 @036   ----------------------------------------
 .byte   W96
@  #06 @037   ----------------------------------------
 .byte   W96
@  #06 @038   ----------------------------------------
 .byte   W96
@  #06 @039   ----------------------------------------
 .byte   W96
@  #06 @040   ----------------------------------------
 .byte   W96
@  #06 @041   ----------------------------------------
 .byte   W96
@  #06 @042   ----------------------------------------
 .byte   W96
@  #06 @043   ----------------------------------------
 .byte   W96
@  #06 @044   ----------------------------------------
 .byte   W96
@  #06 @045   ----------------------------------------
 .byte   W96
@  #06 @046   ----------------------------------------
 .byte   W96
@  #06 @047   ----------------------------------------
 .byte   W96
@  #06 @048   ----------------------------------------
 .byte   W96
@  #06 @049   ----------------------------------------
 .byte   W96
@  #06 @050   ----------------------------------------
 .byte   W96
@  #06 @051   ----------------------------------------
 .byte   W96
@  #06 @052   ----------------------------------------
 .byte   W96
@  #06 @053   ----------------------------------------
 .byte   W96
@  #06 @054   ----------------------------------------
 .byte   W96
@  #06 @055   ----------------------------------------
 .byte   W96
@  #06 @056   ----------------------------------------
 .byte   W96
@  #06 @057   ----------------------------------------
 .byte   W96
@  #06 @058   ----------------------------------------
 .byte   W96
@  #06 @059   ----------------------------------------
 .byte   W96
@  #06 @060   ----------------------------------------
 .byte   W96
@  #06 @061   ----------------------------------------
 .byte   W96
@  #06 @062   ----------------------------------------
 .byte   W96
@  #06 @063   ----------------------------------------
 .byte   W96
@  #06 @064   ----------------------------------------
 .byte   W96
@  #06 @065   ----------------------------------------
 .byte   W96
@  #06 @066   ----------------------------------------
 .byte   W96
@  #06 @067   ----------------------------------------
 .byte   W96
@  #06 @068   ----------------------------------------
 .byte   W96
@  #06 @069   ----------------------------------------
 .byte   W96
@  #06 @070   ----------------------------------------
 .byte   W96
@  #06 @071   ----------------------------------------
 .byte   W96
@  #06 @072   ----------------------------------------
 .byte   W96
@  #06 @073   ----------------------------------------
 .byte   W96
@  #06 @074   ----------------------------------------
 .byte   W96
@  #06 @075   ----------------------------------------
 .byte   W96
@  #06 @076   ----------------------------------------
 .byte   W96
@  #06 @077   ----------------------------------------
 .byte   W96
@  #06 @078   ----------------------------------------
 .byte   W96
@  #06 @079   ----------------------------------------
 .byte   W96
@  #06 @080   ----------------------------------------
 .byte   W96
@  #06 @081   ----------------------------------------
 .byte   W96
@  #06 @082   ----------------------------------------
 .byte   W96
@  #06 @083   ----------------------------------------
 .byte   W96
@  #06 @084   ----------------------------------------
 .byte   W96
@  #06 @085   ----------------------------------------
 .byte   W96
@  #06 @086   ----------------------------------------
 .byte   W96
@  #06 @087   ----------------------------------------
 .byte   W96
@  #06 @088   ----------------------------------------
 .byte   GOTO
  .word Label_011943FC
 .byte   FINE

@**************** Track 7 (Midi-Chn.6) ****************@

SegaCDBIOS_007:
@  #07 @000   ----------------------------------------
 .byte   KEYSH , SegaCDBIOS_key+0
 .byte   VOICE , 50
 .byte   MODT 0
 .byte   LFOS 44
 .byte   MODT 0
 .byte   LFOS 44
 .byte   VOL , 42*SegaCDBIOS_mvl/mxv
 .byte   PAN , c_v+0
 .byte   N96 ,Gn0 ,v036
 .byte   W96
@  #07 @001   ----------------------------------------
 .byte   Gs0
 .byte   W96
@  #07 @002   ----------------------------------------
 .byte   N84 ,As0
 .byte   W84
 .byte   N12 ,Dn1
 .byte   W12
@  #07 @003   ----------------------------------------
 .byte   N36 ,Ds1
 .byte   W36
 .byte   Dn1
 .byte   W36
 .byte   N24 ,As0
 .byte   W18
Label_01194088:
 .byte   W06
@  #07 @004   ----------------------------------------
 .byte   N84 ,Gn0 ,v036
 .byte   W84
 .byte   N12 ,As0
 .byte   W12
@  #07 @005   ----------------------------------------
 .byte   N72 ,Cn1
 .byte   W72
 .byte   N12 ,As0
 .byte   W12
 .byte   Cn1
 .byte   W12
@  #07 @006   ----------------------------------------
 .byte   N36 ,Dn1
 .byte   W36
 .byte   Ds1
 .byte   W36
 .byte   N24 ,Fn1
 .byte   W24
@  #07 @007   ----------------------------------------
 .byte   N12 ,Gn1
 .byte   W12
 .byte   Gs1
 .byte   W12
 .byte   N60 ,Gn1
 .byte   W72
@  #07 @008   ----------------------------------------
 .byte   W96
@  #07 @009   ----------------------------------------
 .byte   W96
@  #07 @010   ----------------------------------------
 .byte   W96
@  #07 @011   ----------------------------------------
 .byte   W96
@  #07 @012   ----------------------------------------
 .byte   W96
@  #07 @013   ----------------------------------------
 .byte   W96
@  #07 @014   ----------------------------------------
 .byte   W96
@  #07 @015   ----------------------------------------
 .byte   W96
@  #07 @016   ----------------------------------------
 .byte   W96
@  #07 @017   ----------------------------------------
 .byte   W96
@  #07 @018   ----------------------------------------
 .byte   W96
@  #07 @019   ----------------------------------------
 .byte   W96
@  #07 @020   ----------------------------------------
 .byte   W96
@  #07 @021   ----------------------------------------
 .byte   W96
@  #07 @022   ----------------------------------------
 .byte   W96
@  #07 @023   ----------------------------------------
 .byte   W96
@  #07 @024   ----------------------------------------
 .byte   W96
@  #07 @025   ----------------------------------------
 .byte   W96
@  #07 @026   ----------------------------------------
 .byte   W96
@  #07 @027   ----------------------------------------
 .byte   W96
@  #07 @028   ----------------------------------------
 .byte   W96
@  #07 @029   ----------------------------------------
 .byte   W96
@  #07 @030   ----------------------------------------
 .byte   W96
@  #07 @031   ----------------------------------------
 .byte   W96
@  #07 @032   ----------------------------------------
 .byte   W96
@  #07 @033   ----------------------------------------
 .byte   W96
@  #07 @034   ----------------------------------------
 .byte   W96
@  #07 @035   ----------------------------------------
 .byte   W96
@  #07 @036   ----------------------------------------
 .byte   W96
@  #07 @037   ----------------------------------------
 .byte   W96
@  #07 @038   ----------------------------------------
 .byte   W96
@  #07 @039   ----------------------------------------
 .byte   W96
@  #07 @040   ----------------------------------------
 .byte   W96
@  #07 @041   ----------------------------------------
 .byte   W96
@  #07 @042   ----------------------------------------
 .byte   W96
@  #07 @043   ----------------------------------------
 .byte   W96
@  #07 @044   ----------------------------------------
 .byte   W96
@  #07 @045   ----------------------------------------
 .byte   W96
@  #07 @046   ----------------------------------------
 .byte   W96
@  #07 @047   ----------------------------------------
 .byte   W96
@  #07 @048   ----------------------------------------
 .byte   W96
@  #07 @049   ----------------------------------------
 .byte   W96
@  #07 @050   ----------------------------------------
 .byte   W96
@  #07 @051   ----------------------------------------
 .byte   W96
@  #07 @052   ----------------------------------------
 .byte   W96
@  #07 @053   ----------------------------------------
 .byte   W96
@  #07 @054   ----------------------------------------
 .byte   W96
@  #07 @055   ----------------------------------------
 .byte   W96
@  #07 @056   ----------------------------------------
 .byte   W96
@  #07 @057   ----------------------------------------
 .byte   W96
@  #07 @058   ----------------------------------------
 .byte   W96
@  #07 @059   ----------------------------------------
 .byte   W96
@  #07 @060   ----------------------------------------
 .byte   W96
@  #07 @061   ----------------------------------------
 .byte   W96
@  #07 @062   ----------------------------------------
 .byte   W96
@  #07 @063   ----------------------------------------
 .byte   W96
@  #07 @064   ----------------------------------------
 .byte   W96
@  #07 @065   ----------------------------------------
 .byte   W96
@  #07 @066   ----------------------------------------
 .byte   W96
@  #07 @067   ----------------------------------------
 .byte   W96
@  #07 @068   ----------------------------------------
 .byte   W96
@  #07 @069   ----------------------------------------
 .byte   W96
@  #07 @070   ----------------------------------------
 .byte   W96
@  #07 @071   ----------------------------------------
 .byte   W96
@  #07 @072   ----------------------------------------
 .byte   W96
@  #07 @073   ----------------------------------------
 .byte   W96
@  #07 @074   ----------------------------------------
 .byte   W96
@  #07 @075   ----------------------------------------
 .byte   W96
@  #07 @076   ----------------------------------------
 .byte   W96
@  #07 @077   ----------------------------------------
 .byte   W96
@  #07 @078   ----------------------------------------
 .byte   W96
@  #07 @079   ----------------------------------------
 .byte   W96
@  #07 @080   ----------------------------------------
 .byte   W96
@  #07 @081   ----------------------------------------
 .byte   W96
@  #07 @082   ----------------------------------------
 .byte   W96
@  #07 @083   ----------------------------------------
 .byte   W96
@  #07 @084   ----------------------------------------
 .byte   W96
@  #07 @085   ----------------------------------------
 .byte   W96
@  #07 @086   ----------------------------------------
 .byte   W96
@  #07 @087   ----------------------------------------
 .byte   W96
@  #07 @088   ----------------------------------------
 .byte   GOTO
  .word Label_01194088
 .byte   FINE

@**************** Track 8 (Midi-Chn.7) ****************@

SegaCDBIOS_008:
@  #08 @000   ----------------------------------------
 .byte   KEYSH , SegaCDBIOS_key+0
 .byte   VOICE , 51
 .byte   MODT 0
 .byte   LFOS 44
 .byte   MODT 0
 .byte   LFOS 44
 .byte   VOL , 45*SegaCDBIOS_mvl/mxv
 .byte   PAN , c_v+0
 .byte   N96 ,Gn2 ,v068
 .byte   W96
@  #08 @001   ----------------------------------------
 .byte   Gs2
 .byte   W96
@  #08 @002   ----------------------------------------
 .byte   N84 ,As2
 .byte   W84
 .byte   N12 ,Dn3
 .byte   W12
@  #08 @003   ----------------------------------------
 .byte   N36 ,Ds3
 .byte   W36
 .byte   Dn3
 .byte   W36
 .byte   N24 ,As2
 .byte   W18
Label_0119462C:
 .byte   W06
@  #08 @004   ----------------------------------------
 .byte   N96 ,Gn2 ,v068
 .byte   W96
@  #08 @005   ----------------------------------------
 .byte   Gs2
 .byte   W96
@  #08 @006   ----------------------------------------
 .byte   As2
 .byte   W96
@  #08 @007   ----------------------------------------
 .byte   Fn3
 .byte   W96
@  #08 @008   ----------------------------------------
 .byte   TIE ,Gn3
 .byte   W96
@  #08 @009   ----------------------------------------
 .byte   W96
@  #08 @010   ----------------------------------------
 .byte   W96
@  #08 @011   ----------------------------------------
 .byte   W96
@  #08 @012   ----------------------------------------
 .byte   EOT
 .byte   N96 ,Fn3
 .byte   W96
@  #08 @013   ----------------------------------------
Label_01194641:
 .byte   N48 ,Dn3 ,v068
 .byte   W48
 .byte   As2
 .byte   W48
 .byte   PEND 
@  #08 @014   ----------------------------------------
 .byte   TIE ,Gn2
 .byte   W96
@  #08 @015   ----------------------------------------
 .byte   W48
 .byte   EOT
 .byte   N48 ,Ds3
 .byte   W48
@  #08 @016   ----------------------------------------
 .byte   TIE ,Fn3
 .byte   W96
@  #08 @017   ----------------------------------------
 .byte   W48
 .byte   EOT
 .byte   N48 ,As3
 .byte   W48
@  #08 @018   ----------------------------------------
 .byte   TIE ,Gn3
 .byte   W96
@  #08 @019   ----------------------------------------
 .byte   W48
 .byte   EOT
 .byte   N48 ,Ds3
 .byte   W48
@  #08 @020   ----------------------------------------
 .byte   TIE ,Fn3
 .byte   W96
@  #08 @021   ----------------------------------------
 .byte   W48
 .byte   EOT
 .byte   N48 ,Dn3
 .byte   W48
@  #08 @022   ----------------------------------------
 .byte   TIE ,Cn3
 .byte   W96
@  #08 @023   ----------------------------------------
 .byte   W96
@  #08 @024   ----------------------------------------
 .byte   EOT
 .byte   TIE ,Gn3
 .byte   W96
@  #08 @025   ----------------------------------------
 .byte   W96
@  #08 @026   ----------------------------------------
 .byte   W96
@  #08 @027   ----------------------------------------
 .byte   W96
@  #08 @028   ----------------------------------------
 .byte   EOT
 .byte   N96 ,Fn3
 .byte   W96
@  #08 @029   ----------------------------------------
 .byte   PATT
  .word Label_01194641
@  #08 @030   ----------------------------------------
 .byte   TIE ,Gn2 ,v068
 .byte   W96
@  #08 @031   ----------------------------------------
 .byte   W48
 .byte   EOT
 .byte   N48 ,Ds3
 .byte   W48
@  #08 @032   ----------------------------------------
 .byte   TIE ,Fn3
 .byte   W96
@  #08 @033   ----------------------------------------
 .byte   W48
 .byte   EOT
 .byte   N48 ,As3
 .byte   W48
@  #08 @034   ----------------------------------------
 .byte   TIE ,Gn3
 .byte   W96
@  #08 @035   ----------------------------------------
 .byte   W48
 .byte   EOT
 .byte   N48 ,Ds3
 .byte   W48
@  #08 @036   ----------------------------------------
 .byte   TIE ,Fn3
 .byte   W96
@  #08 @037   ----------------------------------------
 .byte   W48
 .byte   EOT
 .byte   N48 ,Dn3
 .byte   W48
@  #08 @038   ----------------------------------------
 .byte   TIE ,Cn3
 .byte   W96
@  #08 @039   ----------------------------------------
 .byte   W96
@  #08 @040   ----------------------------------------
 .byte   EOT
 .byte   TIE ,Gn3
 .byte   W96
@  #08 @041   ----------------------------------------
 .byte   W96
@  #08 @042   ----------------------------------------
 .byte   W96
@  #08 @043   ----------------------------------------
 .byte   W96
@  #08 @044   ----------------------------------------
 .byte   EOT
 .byte   N96 ,Fn3
 .byte   W96
@  #08 @045   ----------------------------------------
 .byte   PATT
  .word Label_01194641
@  #08 @046   ----------------------------------------
 .byte   TIE ,Gn2 ,v068
 .byte   W96
@  #08 @047   ----------------------------------------
 .byte   W48
 .byte   EOT
 .byte   N48 ,Ds3
 .byte   W48
@  #08 @048   ----------------------------------------
 .byte   TIE ,Fn3
 .byte   W96
@  #08 @049   ----------------------------------------
 .byte   W48
 .byte   EOT
 .byte   N48 ,As3
 .byte   W48
@  #08 @050   ----------------------------------------
 .byte   TIE ,Gn3
 .byte   W96
@  #08 @051   ----------------------------------------
 .byte   W48
 .byte   EOT
 .byte   N48 ,Ds3
 .byte   W48
@  #08 @052   ----------------------------------------
 .byte   TIE ,Fn3
 .byte   W96
@  #08 @053   ----------------------------------------
 .byte   W48
 .byte   EOT
 .byte   N48 ,Dn3
 .byte   W48
@  #08 @054   ----------------------------------------
 .byte   TIE ,Cn3
 .byte   W96
@  #08 @055   ----------------------------------------
 .byte   W96
@  #08 @056   ----------------------------------------
 .byte   EOT
 .byte   TIE ,Gn3
 .byte   W96
@  #08 @057   ----------------------------------------
 .byte   W96
@  #08 @058   ----------------------------------------
 .byte   W96
@  #08 @059   ----------------------------------------
 .byte   W96
@  #08 @060   ----------------------------------------
 .byte   EOT
 .byte   N96 ,Fn3
 .byte   W96
@  #08 @061   ----------------------------------------
 .byte   PATT
  .word Label_01194641
@  #08 @062   ----------------------------------------
 .byte   TIE ,Gn2 ,v068
 .byte   W96
@  #08 @063   ----------------------------------------
 .byte   W48
 .byte   EOT
 .byte   N48 ,Ds3
 .byte   W48
@  #08 @064   ----------------------------------------
 .byte   TIE ,Fn3
 .byte   W96
@  #08 @065   ----------------------------------------
 .byte   W48
 .byte   EOT
 .byte   N48 ,As3
 .byte   W48
@  #08 @066   ----------------------------------------
 .byte   TIE ,Gn3
 .byte   W96
@  #08 @067   ----------------------------------------
 .byte   W48
 .byte   EOT
 .byte   N48 ,Ds3
 .byte   W48
@  #08 @068   ----------------------------------------
 .byte   TIE ,Fn3
 .byte   W96
@  #08 @069   ----------------------------------------
 .byte   W48
 .byte   EOT
 .byte   N48 ,Dn3
 .byte   W48
@  #08 @070   ----------------------------------------
 .byte   TIE ,Cn3
 .byte   W96
@  #08 @071   ----------------------------------------
 .byte   W96
@  #08 @072   ----------------------------------------
 .byte   EOT
 .byte   TIE ,Gn3
 .byte   W96
@  #08 @073   ----------------------------------------
 .byte   W96
@  #08 @074   ----------------------------------------
 .byte   W96
@  #08 @075   ----------------------------------------
 .byte   W96
@  #08 @076   ----------------------------------------
 .byte   EOT
 .byte   N96 ,Fn3
 .byte   W96
@  #08 @077   ----------------------------------------
 .byte   PATT
  .word Label_01194641
@  #08 @078   ----------------------------------------
 .byte   TIE ,Gn2 ,v068
 .byte   W96
@  #08 @079   ----------------------------------------
 .byte   W48
 .byte   EOT
 .byte   N48 ,Ds3
 .byte   W48
@  #08 @080   ----------------------------------------
 .byte   TIE ,Fn3
 .byte   W96
@  #08 @081   ----------------------------------------
 .byte   W48
 .byte   EOT
 .byte   N48 ,As3
 .byte   W48
@  #08 @082   ----------------------------------------
 .byte   TIE ,Gn3
 .byte   W96
@  #08 @083   ----------------------------------------
 .byte   W48
 .byte   EOT
 .byte   N48 ,Ds3
 .byte   W48
@  #08 @084   ----------------------------------------
 .byte   TIE ,Fn3
 .byte   W96
@  #08 @085   ----------------------------------------
 .byte   W48
 .byte   EOT
 .byte   N48 ,Dn3
 .byte   W48
@  #08 @086   ----------------------------------------
 .byte   TIE ,Cn3
 .byte   W96
@  #08 @087   ----------------------------------------
 .byte   W96
@  #08 @088   ----------------------------------------
 .byte   EOT
 .byte   GOTO
  .word Label_0119462C
 .byte   FINE

@**************** Track 9 (Midi-Chn.8) ****************@

SegaCDBIOS_009:
@  #09 @000   ----------------------------------------
 .byte   KEYSH , SegaCDBIOS_key+0
 .byte   VOICE , 51
 .byte   MODT 0
 .byte   LFOS 44
 .byte   MODT 0
 .byte   LFOS 44
 .byte   VOL , 46*SegaCDBIOS_mvl/mxv
 .byte   PAN , c_v+0
 .byte   N96 ,Gn0 ,v068
 .byte   W96
@  #09 @001   ----------------------------------------
 .byte   Gs0
 .byte   W96
@  #09 @002   ----------------------------------------
 .byte   N84 ,As0
 .byte   W84
 .byte   N12 ,Dn1
 .byte   W12
@  #09 @003   ----------------------------------------
 .byte   N36 ,Ds1
 .byte   W36
 .byte   Dn1
 .byte   W36
 .byte   N24 ,As0
 .byte   W18
Label_01194208:
 .byte   W06
@  #09 @004   ----------------------------------------
 .byte   N96 ,Gn0 ,v068
 .byte   W96
@  #09 @005   ----------------------------------------
 .byte   Gs0
 .byte   W96
@  #09 @006   ----------------------------------------
 .byte   As0
 .byte   W96
@  #09 @007   ----------------------------------------
 .byte   Fn1
 .byte   W96
@  #09 @008   ----------------------------------------
 .byte   TIE ,Gn1
 .byte   W96
@  #09 @009   ----------------------------------------
 .byte   W96
@  #09 @010   ----------------------------------------
 .byte   W96
@  #09 @011   ----------------------------------------
 .byte   W96
@  #09 @012   ----------------------------------------
 .byte   EOT
 .byte   N96 ,Fn1
 .byte   W96
@  #09 @013   ----------------------------------------
Label_0119421D:
 .byte   N48 ,Dn1 ,v068
 .byte   W48
 .byte   As0
 .byte   W48
 .byte   PEND 
@  #09 @014   ----------------------------------------
 .byte   TIE ,Gn0
 .byte   W96
@  #09 @015   ----------------------------------------
 .byte   W48
 .byte   EOT
 .byte   N48 ,Ds1
 .byte   W48
@  #09 @016   ----------------------------------------
 .byte   TIE ,Fn1
 .byte   W96
@  #09 @017   ----------------------------------------
 .byte   W48
 .byte   EOT
 .byte   N48 ,As1
 .byte   W48
@  #09 @018   ----------------------------------------
 .byte   TIE ,Gn1
 .byte   W96
@  #09 @019   ----------------------------------------
 .byte   W48
 .byte   EOT
 .byte   N48 ,Ds1
 .byte   W48
@  #09 @020   ----------------------------------------
 .byte   TIE ,Fn1
 .byte   W96
@  #09 @021   ----------------------------------------
 .byte   W48
 .byte   EOT
 .byte   N48 ,Dn1
 .byte   W48
@  #09 @022   ----------------------------------------
 .byte   TIE ,Cn1
 .byte   W96
@  #09 @023   ----------------------------------------
 .byte   W96
@  #09 @024   ----------------------------------------
 .byte   EOT
 .byte   TIE ,Gn1
 .byte   W96
@  #09 @025   ----------------------------------------
 .byte   W96
@  #09 @026   ----------------------------------------
 .byte   W96
@  #09 @027   ----------------------------------------
 .byte   W96
@  #09 @028   ----------------------------------------
 .byte   EOT
 .byte   N96 ,Fn1
 .byte   W96
@  #09 @029   ----------------------------------------
 .byte   PATT
  .word Label_0119421D
@  #09 @030   ----------------------------------------
 .byte   TIE ,Gn0 ,v068
 .byte   W96
@  #09 @031   ----------------------------------------
 .byte   W48
 .byte   EOT
 .byte   N48 ,Ds1
 .byte   W48
@  #09 @032   ----------------------------------------
 .byte   TIE ,Fn1
 .byte   W96
@  #09 @033   ----------------------------------------
 .byte   W48
 .byte   EOT
 .byte   N48 ,As1
 .byte   W48
@  #09 @034   ----------------------------------------
 .byte   TIE ,Gn1
 .byte   W96
@  #09 @035   ----------------------------------------
 .byte   W48
 .byte   EOT
 .byte   N48 ,Ds1
 .byte   W48
@  #09 @036   ----------------------------------------
 .byte   TIE ,Fn1
 .byte   W96
@  #09 @037   ----------------------------------------
 .byte   W48
 .byte   EOT
 .byte   N48 ,Dn1
 .byte   W48
@  #09 @038   ----------------------------------------
 .byte   TIE ,Cn1
 .byte   W96
@  #09 @039   ----------------------------------------
 .byte   W96
@  #09 @040   ----------------------------------------
 .byte   EOT
 .byte   TIE ,Gn1
 .byte   W96
@  #09 @041   ----------------------------------------
 .byte   W96
@  #09 @042   ----------------------------------------
 .byte   W96
@  #09 @043   ----------------------------------------
 .byte   W96
@  #09 @044   ----------------------------------------
 .byte   EOT
 .byte   N96 ,Fn1
 .byte   W96
@  #09 @045   ----------------------------------------
 .byte   PATT
  .word Label_0119421D
@  #09 @046   ----------------------------------------
 .byte   TIE ,Gn0 ,v068
 .byte   W96
@  #09 @047   ----------------------------------------
 .byte   W48
 .byte   EOT
 .byte   N48 ,Ds1
 .byte   W48
@  #09 @048   ----------------------------------------
 .byte   TIE ,Fn1
 .byte   W96
@  #09 @049   ----------------------------------------
 .byte   W48
 .byte   EOT
 .byte   N48 ,As1
 .byte   W48
@  #09 @050   ----------------------------------------
 .byte   TIE ,Gn1
 .byte   W96
@  #09 @051   ----------------------------------------
 .byte   W48
 .byte   EOT
 .byte   N48 ,Ds1
 .byte   W48
@  #09 @052   ----------------------------------------
 .byte   TIE ,Fn1
 .byte   W96
@  #09 @053   ----------------------------------------
 .byte   W48
 .byte   EOT
 .byte   N48 ,Dn1
 .byte   W48
@  #09 @054   ----------------------------------------
 .byte   TIE ,Cn1
 .byte   W96
@  #09 @055   ----------------------------------------
 .byte   W96
@  #09 @056   ----------------------------------------
 .byte   EOT
 .byte   TIE ,Gn1
 .byte   W96
@  #09 @057   ----------------------------------------
 .byte   W96
@  #09 @058   ----------------------------------------
 .byte   W96
@  #09 @059   ----------------------------------------
 .byte   W96
@  #09 @060   ----------------------------------------
 .byte   EOT
 .byte   N96 ,Fn1
 .byte   W96
@  #09 @061   ----------------------------------------
 .byte   PATT
  .word Label_0119421D
@  #09 @062   ----------------------------------------
 .byte   TIE ,Gn0 ,v068
 .byte   W96
@  #09 @063   ----------------------------------------
 .byte   W48
 .byte   EOT
 .byte   N48 ,Ds1
 .byte   W48
@  #09 @064   ----------------------------------------
 .byte   TIE ,Fn1
 .byte   W96
@  #09 @065   ----------------------------------------
 .byte   W48
 .byte   EOT
 .byte   N48 ,As1
 .byte   W48
@  #09 @066   ----------------------------------------
 .byte   TIE ,Gn1
 .byte   W96
@  #09 @067   ----------------------------------------
 .byte   W48
 .byte   EOT
 .byte   N48 ,Ds1
 .byte   W48
@  #09 @068   ----------------------------------------
 .byte   TIE ,Fn1
 .byte   W96
@  #09 @069   ----------------------------------------
 .byte   W48
 .byte   EOT
 .byte   N48 ,Dn1
 .byte   W48
@  #09 @070   ----------------------------------------
 .byte   TIE ,Cn1
 .byte   W96
@  #09 @071   ----------------------------------------
 .byte   W96
@  #09 @072   ----------------------------------------
 .byte   EOT
 .byte   TIE ,Gn1
 .byte   W96
@  #09 @073   ----------------------------------------
 .byte   W96
@  #09 @074   ----------------------------------------
 .byte   W96
@  #09 @075   ----------------------------------------
 .byte   W96
@  #09 @076   ----------------------------------------
 .byte   EOT
 .byte   N96 ,Fn1
 .byte   W96
@  #09 @077   ----------------------------------------
 .byte   PATT
  .word Label_0119421D
@  #09 @078   ----------------------------------------
 .byte   TIE ,Gn0 ,v068
 .byte   W96
@  #09 @079   ----------------------------------------
 .byte   W48
 .byte   EOT
 .byte   N48 ,Ds1
 .byte   W48
@  #09 @080   ----------------------------------------
 .byte   TIE ,Fn1
 .byte   W96
@  #09 @081   ----------------------------------------
 .byte   W48
 .byte   EOT
 .byte   N48 ,As1
 .byte   W48
@  #09 @082   ----------------------------------------
 .byte   TIE ,Gn1
 .byte   W96
@  #09 @083   ----------------------------------------
 .byte   W48
 .byte   EOT
 .byte   N48 ,Ds1
 .byte   W48
@  #09 @084   ----------------------------------------
 .byte   TIE ,Fn1
 .byte   W96
@  #09 @085   ----------------------------------------
 .byte   W48
 .byte   EOT
 .byte   N48 ,Dn1
 .byte   W48
@  #09 @086   ----------------------------------------
 .byte   TIE ,Cn1
 .byte   W96
@  #09 @087   ----------------------------------------
 .byte   W96
@  #09 @088   ----------------------------------------
 .byte   EOT
 .byte   GOTO
  .word Label_01194208
 .byte   FINE

@**************** Track 10 (Midi-Chn.9) ****************@

SegaCDBIOS_010:
@  #10 @000   ----------------------------------------
 .byte   KEYSH , SegaCDBIOS_key+0
 .byte   VOICE , 121
 .byte   MODT 0
 .byte   LFOS 44
 .byte   MODT 0
 .byte   LFOS 44
 .byte   VOL , 65*SegaCDBIOS_mvl/mxv
 .byte   PAN , c_v+0
 .byte   N03 ,Cs2 ,v127
 .byte   W96
@  #10 @001   ----------------------------------------
 .byte   W96
@  #10 @002   ----------------------------------------
 .byte   W96
@  #10 @003   ----------------------------------------
 .byte   W90
Label_01196573:
 .byte   W06
@  #10 @004   ----------------------------------------
 .byte   N03 ,Cs2 ,v127
 .byte   W96
@  #10 @005   ----------------------------------------
 .byte   W96
@  #10 @006   ----------------------------------------
 .byte   W96
@  #10 @007   ----------------------------------------
 .byte   W96
@  #10 @008   ----------------------------------------
Label_0119657B:
 .byte   N03 ,Cn1 ,v127
 .byte   N03 ,Cs2
 .byte   W24
 .byte   En1
 .byte   N03 ,Gs1
 .byte   W12
 .byte   Cn1
 .byte   W12
 .byte   Gs1
 .byte   W12
 .byte   Cn1
 .byte   W12
 .byte   En1
 .byte   N03 ,Gs1
 .byte   W24
 .byte   PEND 
@  #10 @009   ----------------------------------------
Label_01196590:
 .byte   N03 ,Cn1 ,v127
 .byte   N03 ,Gs1
 .byte   W24
 .byte   En1
 .byte   N03 ,Gs1
 .byte   W12
 .byte   Cn1
 .byte   W12
 .byte   Gs1
 .byte   W12
 .byte   Cn1
 .byte   W12
 .byte   En1
 .byte   N03 ,Gs1
 .byte   W24
 .byte   PEND 
@  #10 @010   ----------------------------------------
 .byte   PATT
  .word Label_01196590
@  #10 @011   ----------------------------------------
 .byte   PATT
  .word Label_01196590
@  #10 @012   ----------------------------------------
 .byte   PATT
  .word Label_01196590
@  #10 @013   ----------------------------------------
 .byte   PATT
  .word Label_01196590
@  #10 @014   ----------------------------------------
 .byte   PATT
  .word Label_01196590
@  #10 @015   ----------------------------------------
Label_011965BE:
 .byte   N03 ,Cn1 ,v127
 .byte   N03 ,Gs1
 .byte   W24
 .byte   En1
 .byte   N03 ,Gs1
 .byte   W12
 .byte   Cn1
 .byte   W12
 .byte   Gs1
 .byte   W12
 .byte   Cn1
 .byte   N03 ,Gs1
 .byte   W06
 .byte   N03
 .byte   W06
 .byte   En1
 .byte   N03 ,Gs1
 .byte   W12
 .byte   En1
 .byte   N03 ,Gs1
 .byte   W06
 .byte   En1
 .byte   N03 ,Gs1
 .byte   W06
 .byte   PEND 
@  #10 @016   ----------------------------------------
 .byte   PATT
  .word Label_0119657B
@  #10 @017   ----------------------------------------
 .byte   PATT
  .word Label_01196590
@  #10 @018   ----------------------------------------
 .byte   PATT
  .word Label_01196590
@  #10 @019   ----------------------------------------
 .byte   PATT
  .word Label_011965BE
@  #10 @020   ----------------------------------------
 .byte   PATT
  .word Label_0119657B
@  #10 @021   ----------------------------------------
 .byte   PATT
  .word Label_01196590
@  #10 @022   ----------------------------------------
 .byte   PATT
  .word Label_0119657B
@  #10 @023   ----------------------------------------
Label_01196602:
 .byte   N03 ,Dn2 ,v127
 .byte   W18
 .byte   Cn2
 .byte   W18
 .byte   An1
 .byte   W12
 .byte   Gn1
 .byte   N03 ,Cs2
 .byte   W36
 .byte   En1
 .byte   W06
 .byte   N03
 .byte   W06
 .byte   PEND 
@  #10 @024   ----------------------------------------
 .byte   PATT
  .word Label_0119657B
@  #10 @025   ----------------------------------------
 .byte   PATT
  .word Label_01196590
@  #10 @026   ----------------------------------------
 .byte   PATT
  .word Label_01196590
@  #10 @027   ----------------------------------------
 .byte   PATT
  .word Label_01196590
@  #10 @028   ----------------------------------------
 .byte   PATT
  .word Label_01196590
@  #10 @029   ----------------------------------------
 .byte   PATT
  .word Label_01196590
@  #10 @030   ----------------------------------------
 .byte   PATT
  .word Label_01196590
@  #10 @031   ----------------------------------------
 .byte   PATT
  .word Label_011965BE
@  #10 @032   ----------------------------------------
 .byte   PATT
  .word Label_0119657B
@  #10 @033   ----------------------------------------
 .byte   PATT
  .word Label_01196590
@  #10 @034   ----------------------------------------
 .byte   PATT
  .word Label_01196590
@  #10 @035   ----------------------------------------
 .byte   PATT
  .word Label_011965BE
@  #10 @036   ----------------------------------------
 .byte   PATT
  .word Label_0119657B
@  #10 @037   ----------------------------------------
 .byte   PATT
  .word Label_01196590
@  #10 @038   ----------------------------------------
 .byte   PATT
  .word Label_0119657B
@  #10 @039   ----------------------------------------
 .byte   PATT
  .word Label_01196602
@  #10 @040   ----------------------------------------
 .byte   PATT
  .word Label_0119657B
@  #10 @041   ----------------------------------------
 .byte   PATT
  .word Label_01196590
@  #10 @042   ----------------------------------------
 .byte   PATT
  .word Label_01196590
@  #10 @043   ----------------------------------------
 .byte   PATT
  .word Label_01196590
@  #10 @044   ----------------------------------------
 .byte   PATT
  .word Label_01196590
@  #10 @045   ----------------------------------------
 .byte   PATT
  .word Label_01196590
@  #10 @046   ----------------------------------------
 .byte   PATT
  .word Label_01196590
@  #10 @047   ----------------------------------------
 .byte   PATT
  .word Label_011965BE
@  #10 @048   ----------------------------------------
 .byte   PATT
  .word Label_0119657B
@  #10 @049   ----------------------------------------
 .byte   PATT
  .word Label_01196590
@  #10 @050   ----------------------------------------
 .byte   PATT
  .word Label_01196590
@  #10 @051   ----------------------------------------
 .byte   PATT
  .word Label_011965BE
@  #10 @052   ----------------------------------------
 .byte   PATT
  .word Label_0119657B
@  #10 @053   ----------------------------------------
 .byte   PATT
  .word Label_01196590
@  #10 @054   ----------------------------------------
 .byte   PATT
  .word Label_0119657B
@  #10 @055   ----------------------------------------
 .byte   PATT
  .word Label_01196602
@  #10 @056   ----------------------------------------
 .byte   PATT
  .word Label_0119657B
@  #10 @057   ----------------------------------------
 .byte   PATT
  .word Label_01196590
@  #10 @058   ----------------------------------------
 .byte   PATT
  .word Label_01196590
@  #10 @059   ----------------------------------------
 .byte   PATT
  .word Label_01196590
@  #10 @060   ----------------------------------------
 .byte   PATT
  .word Label_01196590
@  #10 @061   ----------------------------------------
 .byte   PATT
  .word Label_01196590
@  #10 @062   ----------------------------------------
 .byte   PATT
  .word Label_01196590
@  #10 @063   ----------------------------------------
 .byte   PATT
  .word Label_011965BE
@  #10 @064   ----------------------------------------
 .byte   PATT
  .word Label_0119657B
@  #10 @065   ----------------------------------------
 .byte   PATT
  .word Label_01196590
@  #10 @066   ----------------------------------------
 .byte   PATT
  .word Label_01196590
@  #10 @067   ----------------------------------------
 .byte   PATT
  .word Label_011965BE
@  #10 @068   ----------------------------------------
 .byte   PATT
  .word Label_0119657B
@  #10 @069   ----------------------------------------
 .byte   PATT
  .word Label_01196590
@  #10 @070   ----------------------------------------
 .byte   PATT
  .word Label_0119657B
@  #10 @071   ----------------------------------------
 .byte   PATT
  .word Label_01196602
@  #10 @072   ----------------------------------------
 .byte   PATT
  .word Label_0119657B
@  #10 @073   ----------------------------------------
 .byte   PATT
  .word Label_01196590
@  #10 @074   ----------------------------------------
 .byte   PATT
  .word Label_01196590
@  #10 @075   ----------------------------------------
 .byte   PATT
  .word Label_01196590
@  #10 @076   ----------------------------------------
 .byte   PATT
  .word Label_01196590
@  #10 @077   ----------------------------------------
 .byte   PATT
  .word Label_01196590
@  #10 @078   ----------------------------------------
 .byte   PATT
  .word Label_01196590
@  #10 @079   ----------------------------------------
 .byte   PATT
  .word Label_011965BE
@  #10 @080   ----------------------------------------
 .byte   PATT
  .word Label_0119657B
@  #10 @081   ----------------------------------------
 .byte   PATT
  .word Label_01196590
@  #10 @082   ----------------------------------------
 .byte   PATT
  .word Label_01196590
@  #10 @083   ----------------------------------------
 .byte   PATT
  .word Label_011965BE
@  #10 @084   ----------------------------------------
 .byte   PATT
  .word Label_0119657B
@  #10 @085   ----------------------------------------
 .byte   PATT
  .word Label_01196590
@  #10 @086   ----------------------------------------
 .byte   PATT
  .word Label_0119657B
@  #10 @087   ----------------------------------------
 .byte   PATT
  .word Label_01196602
@  #10 @088   ----------------------------------------
 .byte   GOTO
  .word Label_01196573
 .byte   FINE

@******************************************************@
	.align	2

SegaCDBIOS:
	.byte	10	@ NumTrks
	.byte	0	@ NumBlks
	.byte	SegaCDBIOS_pri	@ Priority
	.byte	SegaCDBIOS_rev	@ Reverb.
    
	.word	SegaCDBIOS_grp
    
	.word	SegaCDBIOS_001
	.word	SegaCDBIOS_002
	.word	SegaCDBIOS_003
	.word	SegaCDBIOS_004
	.word	SegaCDBIOS_005
	.word	SegaCDBIOS_006
	.word	SegaCDBIOS_007
	.word	SegaCDBIOS_008
	.word	SegaCDBIOS_009
	.word	SegaCDBIOS_010

	.end
