//Event file generated from Sappy .s format.
	

	#define	SegaCDBIOS_grp  voicegroup000
	#define	SegaCDBIOS_pri  0
	#define	SegaCDBIOS_rev  0
	#define	SegaCDBIOS_mvl  127
	#define	SegaCDBIOS_key  0
	#define	SegaCDBIOS_tbs  1
	#define	SegaCDBIOS_exg  0
	#define	SegaCDBIOS_cmp  1

	// .rodata
	//	SegaCDBIOS
	ALIGN 4


//**************** Track 1 (Midi-Chn.0) ****************//

SegaCDBIOS_001:
//  #01 //000   ----------------------------------------
 BYTE   KEYSH   SegaCDBIOS_key+0
 BYTE   TEMPO   150*SegaCDBIOS_tbs/2
 BYTE   VOICE   36
 BYTE   MODT 0
 BYTE   LFOS 44
 BYTE   MODT 0
 BYTE   LFOS 44
 BYTE   VOL   48*SegaCDBIOS_mvl/mxv
 BYTE   PAN   c_v+0
 BYTE   N96  Gn1  v127
 BYTE   W96
//  #01 //001   ----------------------------------------
 BYTE   Gs1
 BYTE   W96
//  #01 //002   ----------------------------------------
 BYTE   N84  As1
 BYTE   W84
 BYTE   N12  Dn2
 BYTE   W12
//  #01 //003   ----------------------------------------
 BYTE   N36  Ds2
 BYTE   W36
 BYTE   Dn2
 BYTE   W36
 BYTE   N24  As1
 BYTE   W18
Label_01195EDE:
 BYTE   W06
//  #01 //004   ----------------------------------------
 BYTE   N96  Gn1  v127
 BYTE   W96
//  #01 //005   ----------------------------------------
 BYTE   Gs1
 BYTE   W96
//  #01 //006   ----------------------------------------
 BYTE   As1
 BYTE   W96
//  #01 //007   ----------------------------------------
 BYTE   Fn2
 BYTE   W96
//  #01 //008   ----------------------------------------
Label_01195EE9:
 BYTE   N18  Cn2  v127
 BYTE   W24
 BYTE   N06
 BYTE   W12
 BYTE   N06
 BYTE   W24
 BYTE   N06
 BYTE   W12
 BYTE   N24
 BYTE   W24
 BYTE   PEND 
//  #01 //009   ----------------------------------------
Label_01195EF6:
 BYTE   W12
 BYTE   N06  Cn2  v127
 BYTE   W24
 BYTE   N06
 BYTE   W24
 BYTE   N06
 BYTE   W24
 BYTE   N06
 BYTE   W12
 BYTE   PEND 
//  #01 //010   ----------------------------------------
 BYTE   PATT
  POIN2 Label_01195EE9
//  #01 //011   ----------------------------------------
Label_01195F07:
 BYTE   W12
 BYTE   N06  Cn2  v127
 BYTE   W24
 BYTE   N06
 BYTE   W24
 BYTE   N06
 BYTE   W24
 BYTE   As1
 BYTE   W12
 BYTE   PEND 
//  #01 //012   ----------------------------------------
 BYTE   PATT
  POIN2 Label_01195EE9
//  #01 //013   ----------------------------------------
 BYTE   PATT
  POIN2 Label_01195EF6
//  #01 //014   ----------------------------------------
 BYTE   PATT
  POIN2 Label_01195EE9
//  #01 //015   ----------------------------------------
 BYTE   PATT
  POIN2 Label_01195F07
//  #01 //016   ----------------------------------------
Label_01195F27:
 BYTE   N18  As1  v127
 BYTE   W24
 BYTE   N06
 BYTE   W12
 BYTE   As2
 BYTE   W24
 BYTE   As1
 BYTE   W12
 BYTE   N24
 BYTE   W24
 BYTE   PEND 
//  #01 //017   ----------------------------------------
Label_01195F34:
 BYTE   W12
 BYTE   N06  As1  v127
 BYTE   W24
 BYTE   N06
 BYTE   W24
 BYTE   N06
 BYTE   W24
 BYTE   N06
 BYTE   W12
 BYTE   PEND 
//  #01 //018   ----------------------------------------
 BYTE   PATT
  POIN2 Label_01195EE9
//  #01 //019   ----------------------------------------
 BYTE   PATT
  POIN2 Label_01195EF6
//  #01 //020   ----------------------------------------
 BYTE   PATT
  POIN2 Label_01195F27
//  #01 //021   ----------------------------------------
 BYTE   PATT
  POIN2 Label_01195F34
//  #01 //022   ----------------------------------------
 BYTE   PATT
  POIN2 Label_01195EE9
//  #01 //023   ----------------------------------------
Label_01195F59:
 BYTE   N06  Cn2  v127
 BYTE   W18
 BYTE   N06
 BYTE   W18
 BYTE   N06
 BYTE   W12
 BYTE   N36
 BYTE   W48
 BYTE   PEND 
//  #01 //024   ----------------------------------------
 BYTE   PATT
  POIN2 Label_01195EE9
//  #01 //025   ----------------------------------------
 BYTE   PATT
  POIN2 Label_01195EF6
//  #01 //026   ----------------------------------------
 BYTE   PATT
  POIN2 Label_01195EE9
//  #01 //027   ----------------------------------------
 BYTE   PATT
  POIN2 Label_01195F07
//  #01 //028   ----------------------------------------
 BYTE   PATT
  POIN2 Label_01195EE9
//  #01 //029   ----------------------------------------
 BYTE   PATT
  POIN2 Label_01195EF6
//  #01 //030   ----------------------------------------
 BYTE   PATT
  POIN2 Label_01195EE9
//  #01 //031   ----------------------------------------
 BYTE   PATT
  POIN2 Label_01195F07
//  #01 //032   ----------------------------------------
 BYTE   PATT
  POIN2 Label_01195F27
//  #01 //033   ----------------------------------------
 BYTE   PATT
  POIN2 Label_01195F34
//  #01 //034   ----------------------------------------
 BYTE   PATT
  POIN2 Label_01195EE9
//  #01 //035   ----------------------------------------
 BYTE   PATT
  POIN2 Label_01195EF6
//  #01 //036   ----------------------------------------
 BYTE   PATT
  POIN2 Label_01195F27
//  #01 //037   ----------------------------------------
 BYTE   PATT
  POIN2 Label_01195F34
//  #01 //038   ----------------------------------------
 BYTE   PATT
  POIN2 Label_01195EE9
//  #01 //039   ----------------------------------------
 BYTE   PATT
  POIN2 Label_01195F59
//  #01 //040   ----------------------------------------
 BYTE   PATT
  POIN2 Label_01195EE9
//  #01 //041   ----------------------------------------
 BYTE   PATT
  POIN2 Label_01195EF6
//  #01 //042   ----------------------------------------
 BYTE   PATT
  POIN2 Label_01195EE9
//  #01 //043   ----------------------------------------
 BYTE   PATT
  POIN2 Label_01195F07
//  #01 //044   ----------------------------------------
 BYTE   PATT
  POIN2 Label_01195EE9
//  #01 //045   ----------------------------------------
 BYTE   PATT
  POIN2 Label_01195EF6
//  #01 //046   ----------------------------------------
 BYTE   PATT
  POIN2 Label_01195EE9
//  #01 //047   ----------------------------------------
 BYTE   PATT
  POIN2 Label_01195F07
//  #01 //048   ----------------------------------------
 BYTE   PATT
  POIN2 Label_01195F27
//  #01 //049   ----------------------------------------
 BYTE   PATT
  POIN2 Label_01195F34
//  #01 //050   ----------------------------------------
 BYTE   PATT
  POIN2 Label_01195EE9
//  #01 //051   ----------------------------------------
 BYTE   PATT
  POIN2 Label_01195EF6
//  #01 //052   ----------------------------------------
 BYTE   PATT
  POIN2 Label_01195F27
//  #01 //053   ----------------------------------------
 BYTE   PATT
  POIN2 Label_01195F34
//  #01 //054   ----------------------------------------
 BYTE   PATT
  POIN2 Label_01195EE9
//  #01 //055   ----------------------------------------
 BYTE   PATT
  POIN2 Label_01195F59
//  #01 //056   ----------------------------------------
 BYTE   PATT
  POIN2 Label_01195EE9
//  #01 //057   ----------------------------------------
 BYTE   PATT
  POIN2 Label_01195EF6
//  #01 //058   ----------------------------------------
 BYTE   PATT
  POIN2 Label_01195EE9
//  #01 //059   ----------------------------------------
 BYTE   PATT
  POIN2 Label_01195F07
//  #01 //060   ----------------------------------------
 BYTE   PATT
  POIN2 Label_01195EE9
//  #01 //061   ----------------------------------------
 BYTE   PATT
  POIN2 Label_01195EF6
//  #01 //062   ----------------------------------------
 BYTE   PATT
  POIN2 Label_01195EE9
//  #01 //063   ----------------------------------------
 BYTE   PATT
  POIN2 Label_01195F07
//  #01 //064   ----------------------------------------
 BYTE   PATT
  POIN2 Label_01195F27
//  #01 //065   ----------------------------------------
 BYTE   PATT
  POIN2 Label_01195F34
//  #01 //066   ----------------------------------------
 BYTE   PATT
  POIN2 Label_01195EE9
//  #01 //067   ----------------------------------------
 BYTE   PATT
  POIN2 Label_01195EF6
//  #01 //068   ----------------------------------------
 BYTE   PATT
  POIN2 Label_01195F27
//  #01 //069   ----------------------------------------
 BYTE   PATT
  POIN2 Label_01195F34
//  #01 //070   ----------------------------------------
 BYTE   PATT
  POIN2 Label_01195EE9
//  #01 //071   ----------------------------------------
 BYTE   PATT
  POIN2 Label_01195F59
//  #01 //072   ----------------------------------------
 BYTE   PATT
  POIN2 Label_01195EE9
//  #01 //073   ----------------------------------------
 BYTE   PATT
  POIN2 Label_01195EF6
//  #01 //074   ----------------------------------------
 BYTE   PATT
  POIN2 Label_01195EE9
//  #01 //075   ----------------------------------------
 BYTE   PATT
  POIN2 Label_01195F07
//  #01 //076   ----------------------------------------
 BYTE   PATT
  POIN2 Label_01195EE9
//  #01 //077   ----------------------------------------
 BYTE   PATT
  POIN2 Label_01195EF6
//  #01 //078   ----------------------------------------
 BYTE   PATT
  POIN2 Label_01195EE9
//  #01 //079   ----------------------------------------
 BYTE   PATT
  POIN2 Label_01195F07
//  #01 //080   ----------------------------------------
 BYTE   PATT
  POIN2 Label_01195F27
//  #01 //081   ----------------------------------------
 BYTE   PATT
  POIN2 Label_01195F34
//  #01 //082   ----------------------------------------
 BYTE   PATT
  POIN2 Label_01195EE9
//  #01 //083   ----------------------------------------
 BYTE   PATT
  POIN2 Label_01195EF6
//  #01 //084   ----------------------------------------
 BYTE   PATT
  POIN2 Label_01195F27
//  #01 //085   ----------------------------------------
 BYTE   PATT
  POIN2 Label_01195F34
//  #01 //086   ----------------------------------------
 BYTE   PATT
  POIN2 Label_01195EE9
//  #01 //087   ----------------------------------------
 BYTE   PATT
  POIN2 Label_01195F59
//  #01 //088   ----------------------------------------
 BYTE   GoTo
  POIN2 Label_01195EDE
 BYTE   FINE

//**************** Track 2 (Midi-Chn.1) ****************//

SegaCDBIOS_002:
//  #02 //000   ----------------------------------------
 BYTE   KEYSH   SegaCDBIOS_key+0
 BYTE   VOICE   28
 BYTE   MODT 0
 BYTE   LFOS 44
 BYTE   MODT 0
 BYTE   LFOS 44
 BYTE   VOL   57*SegaCDBIOS_mvl/mxv
 BYTE   PAN   c_v+0
 BYTE   W12
 BYTE   N12  Gn2  v127
 BYTE   W12
 BYTE   Cn3
 BYTE   W12
 BYTE   N24  Dn3
 BYTE   W24
 BYTE   Gn3
 BYTE   W24
 BYTE   Dn3
 BYTE   W12
//  #02 //001   ----------------------------------------
Label_01196A6A:
 BYTE   W12
 BYTE   N24  Gn2  v127
 BYTE   W24
 BYTE   N48  Cn3
 BYTE   W60
 BYTE   PEND 
//  #02 //002   ----------------------------------------
Label_01196A73:
 BYTE   W12
 BYTE   N12  Gn2  v127
 BYTE   W12
 BYTE   Cn3
 BYTE   W12
 BYTE   N24  Dn3
 BYTE   W24
 BYTE   Gn3
 BYTE   W24
 BYTE   Dn3
 BYTE   W12
 BYTE   PEND 
//  #02 //003   ----------------------------------------
 BYTE   W12
 BYTE   Gn2
 BYTE   W24
 BYTE   N48  Cn3
 BYTE   W54
Label_01196A88:
 BYTE   W06
//  #02 //004   ----------------------------------------
 BYTE   PATT
  POIN2 Label_01196A73
//  #02 //005   ----------------------------------------
 BYTE   PATT
  POIN2 Label_01196A6A
//  #02 //006   ----------------------------------------
 BYTE   W12
 BYTE   N12  Gn2  v127
 BYTE   W12
 BYTE   Cn3
 BYTE   W12
 BYTE   N24  Dn3
 BYTE   W24
 BYTE   N12  Gn3
 BYTE   W24
 BYTE   N24  Gs3
 BYTE   W12
//  #02 //007   ----------------------------------------
 BYTE   W12
 BYTE   Gn3
 BYTE   W24
 BYTE   N48  Fn3
 BYTE   W60
//  #02 //008   ----------------------------------------
 BYTE   W96
//  #02 //009   ----------------------------------------
 BYTE   W96
//  #02 //010   ----------------------------------------
 BYTE   W96
//  #02 //011   ----------------------------------------
 BYTE   W96
//  #02 //012   ----------------------------------------
 BYTE   W96
//  #02 //013   ----------------------------------------
 BYTE   W96
//  #02 //014   ----------------------------------------
 BYTE   W96
//  #02 //015   ----------------------------------------
Label_01196AB0:
 BYTE   W60
 BYTE   N12  Fn3  v127
 BYTE   W12
 BYTE   Gn3
 BYTE   W12
 BYTE   As3
 BYTE   W12
 BYTE   PEND 
//  #02 //016   ----------------------------------------
Label_01196ABA:
 BYTE   N36  Cn4  v127
 BYTE   W36
 BYTE   N48  As3
 BYTE   W60
 BYTE   PEND 
//  #02 //017   ----------------------------------------
Label_01196AC2:
 BYTE   N36  Gn3  v127
 BYTE   W36
 BYTE   N48  Fn3
 BYTE   W48
 BYTE   N12  Ds3
 BYTE   W12
 BYTE   PEND 
//  #02 //018   ----------------------------------------
Label_01196ACD:
 BYTE   N12  Fn3  v127
 BYTE   W12
 BYTE   N24  Gn3
 BYTE   W24
 BYTE   TIE
 BYTE   W60
 BYTE   PEND 
//  #02 //019   ----------------------------------------
 BYTE   W60
 BYTE   EOT
 BYTE   N12  Fn3
 BYTE   W12
 BYTE   Gn3
 BYTE   W12
 BYTE   As3
 BYTE   W12
//  #02 //020   ----------------------------------------
 BYTE   PATT
  POIN2 Label_01196ABA
//  #02 //021   ----------------------------------------
 BYTE   PATT
  POIN2 Label_01196AC2
//  #02 //022   ----------------------------------------
Label_01196AEA:
 BYTE   N12  Fn3  v127
 BYTE   W12
 BYTE   N24  Gn3
 BYTE   W24
 BYTE   N48  Cn3
 BYTE   W48
 BYTE   N12  As2
 BYTE   W12
 BYTE   PEND 
//  #02 //023   ----------------------------------------
 BYTE   N96  Cn3
 BYTE   W96
//  #02 //024   ----------------------------------------
 BYTE   W96
//  #02 //025   ----------------------------------------
 BYTE   W96
//  #02 //026   ----------------------------------------
 BYTE   W96
//  #02 //027   ----------------------------------------
 BYTE   W96
//  #02 //028   ----------------------------------------
 BYTE   W96
//  #02 //029   ----------------------------------------
 BYTE   W96
//  #02 //030   ----------------------------------------
 BYTE   W96
//  #02 //031   ----------------------------------------
 BYTE   PATT
  POIN2 Label_01196AB0
//  #02 //032   ----------------------------------------
 BYTE   PATT
  POIN2 Label_01196ABA
//  #02 //033   ----------------------------------------
 BYTE   PATT
  POIN2 Label_01196AC2
//  #02 //034   ----------------------------------------
 BYTE   PATT
  POIN2 Label_01196ACD
//  #02 //035   ----------------------------------------
 BYTE   W60
 BYTE   EOT
 BYTE   Gn3
 BYTE   N12  Fn3  v127
 BYTE   W12
 BYTE   Gn3
 BYTE   W12
 BYTE   As3
 BYTE   W12
//  #02 //036   ----------------------------------------
 BYTE   PATT
  POIN2 Label_01196ABA
//  #02 //037   ----------------------------------------
 BYTE   PATT
  POIN2 Label_01196AC2
//  #02 //038   ----------------------------------------
 BYTE   PATT
  POIN2 Label_01196AEA
//  #02 //039   ----------------------------------------
 BYTE   N96  Cn3  v127
 BYTE   W96
//  #02 //040   ----------------------------------------
 BYTE   W96
//  #02 //041   ----------------------------------------
 BYTE   W96
//  #02 //042   ----------------------------------------
 BYTE   W96
//  #02 //043   ----------------------------------------
 BYTE   W96
//  #02 //044   ----------------------------------------
 BYTE   W96
//  #02 //045   ----------------------------------------
 BYTE   W96
//  #02 //046   ----------------------------------------
 BYTE   W96
//  #02 //047   ----------------------------------------
 BYTE   PATT
  POIN2 Label_01196AB0
//  #02 //048   ----------------------------------------
 BYTE   PATT
  POIN2 Label_01196ABA
//  #02 //049   ----------------------------------------
 BYTE   PATT
  POIN2 Label_01196AC2
//  #02 //050   ----------------------------------------
 BYTE   PATT
  POIN2 Label_01196ACD
//  #02 //051   ----------------------------------------
 BYTE   W60
 BYTE   EOT
 BYTE   Gn3
 BYTE   N12  Fn3  v127
 BYTE   W12
 BYTE   Gn3
 BYTE   W12
 BYTE   As3
 BYTE   W12
//  #02 //052   ----------------------------------------
 BYTE   PATT
  POIN2 Label_01196ABA
//  #02 //053   ----------------------------------------
 BYTE   PATT
  POIN2 Label_01196AC2
//  #02 //054   ----------------------------------------
 BYTE   PATT
  POIN2 Label_01196AEA
//  #02 //055   ----------------------------------------
 BYTE   N96  Cn3  v127
 BYTE   W96
//  #02 //056   ----------------------------------------
 BYTE   W96
//  #02 //057   ----------------------------------------
 BYTE   W96
//  #02 //058   ----------------------------------------
 BYTE   W96
//  #02 //059   ----------------------------------------
 BYTE   W96
//  #02 //060   ----------------------------------------
 BYTE   W96
//  #02 //061   ----------------------------------------
 BYTE   W96
//  #02 //062   ----------------------------------------
 BYTE   W96
//  #02 //063   ----------------------------------------
 BYTE   PATT
  POIN2 Label_01196AB0
//  #02 //064   ----------------------------------------
 BYTE   PATT
  POIN2 Label_01196ABA
//  #02 //065   ----------------------------------------
 BYTE   PATT
  POIN2 Label_01196AC2
//  #02 //066   ----------------------------------------
 BYTE   PATT
  POIN2 Label_01196ACD
//  #02 //067   ----------------------------------------
 BYTE   W60
 BYTE   EOT
 BYTE   Gn3
 BYTE   N12  Fn3  v127
 BYTE   W12
 BYTE   Gn3
 BYTE   W12
 BYTE   As3
 BYTE   W12
//  #02 //068   ----------------------------------------
 BYTE   PATT
  POIN2 Label_01196ABA
//  #02 //069   ----------------------------------------
 BYTE   PATT
  POIN2 Label_01196AC2
//  #02 //070   ----------------------------------------
 BYTE   PATT
  POIN2 Label_01196AEA
//  #02 //071   ----------------------------------------
 BYTE   N96  Cn3  v127
 BYTE   W96
//  #02 //072   ----------------------------------------
 BYTE   W96
//  #02 //073   ----------------------------------------
 BYTE   W96
//  #02 //074   ----------------------------------------
 BYTE   W96
//  #02 //075   ----------------------------------------
 BYTE   W96
//  #02 //076   ----------------------------------------
 BYTE   W96
//  #02 //077   ----------------------------------------
 BYTE   W96
//  #02 //078   ----------------------------------------
 BYTE   W96
//  #02 //079   ----------------------------------------
 BYTE   PATT
  POIN2 Label_01196AB0
//  #02 //080   ----------------------------------------
 BYTE   PATT
  POIN2 Label_01196ABA
//  #02 //081   ----------------------------------------
 BYTE   PATT
  POIN2 Label_01196AC2
//  #02 //082   ----------------------------------------
 BYTE   PATT
  POIN2 Label_01196ACD
//  #02 //083   ----------------------------------------
 BYTE   W60
 BYTE   EOT
 BYTE   Gn3
 BYTE   N12  Fn3  v127
 BYTE   W12
 BYTE   Gn3
 BYTE   W12
 BYTE   As3
 BYTE   W12
//  #02 //084   ----------------------------------------
 BYTE   PATT
  POIN2 Label_01196ABA
//  #02 //085   ----------------------------------------
 BYTE   PATT
  POIN2 Label_01196AC2
//  #02 //086   ----------------------------------------
 BYTE   PATT
  POIN2 Label_01196AEA
//  #02 //087   ----------------------------------------
 BYTE   N96  Cn3  v127
 BYTE   W96
//  #02 //088   ----------------------------------------
 BYTE   GoTo
  POIN2 Label_01196A88
 BYTE   FINE

//**************** Track 3 (Midi-Chn.2) ****************//

SegaCDBIOS_003:
//  #03 //000   ----------------------------------------
 BYTE   KEYSH   SegaCDBIOS_key+0
 BYTE   VOICE   28
 BYTE   MODT 0
 BYTE   LFOS 44
 BYTE   MODT 0
 BYTE   LFOS 44
 BYTE   VOL   60*SegaCDBIOS_mvl/mxv
 BYTE   PAN   c_v+0
 BYTE   W24
 BYTE   N12  Gn2  v052
 BYTE   W12
 BYTE   Cn3
 BYTE   W12
 BYTE   N24  Dn3
 BYTE   W24
 BYTE   Gn3
 BYTE   W24
//  #03 //001   ----------------------------------------
Label_01196C04:
 BYTE   N24  Dn3  v052
 BYTE   W24
 BYTE   Gn2
 BYTE   W24
 BYTE   N48  Cn3
 BYTE   W48
 BYTE   PEND 
//  #03 //002   ----------------------------------------
Label_01196C0E:
 BYTE   W24
 BYTE   N12  Gn2  v052
 BYTE   W12
 BYTE   Cn3
 BYTE   W12
 BYTE   N24  Dn3
 BYTE   W24
 BYTE   Gn3
 BYTE   W24
 BYTE   PEND 
//  #03 //003   ----------------------------------------
 BYTE   Dn3
 BYTE   W24
 BYTE   Gn2
 BYTE   W24
 BYTE   N48  Cn3
 BYTE   W42
Label_01196C22:
 BYTE   W06
//  #03 //004   ----------------------------------------
 BYTE   PATT
  POIN2 Label_01196C0E
//  #03 //005   ----------------------------------------
 BYTE   PATT
  POIN2 Label_01196C04
//  #03 //006   ----------------------------------------
 BYTE   W24
 BYTE   N12  Gn2  v052
 BYTE   W12
 BYTE   Cn3
 BYTE   W12
 BYTE   N24  Dn3
 BYTE   W24
 BYTE   N12  Gn3
 BYTE   W24
//  #03 //007   ----------------------------------------
 BYTE   N24  Gs3
 BYTE   W24
 BYTE   Gn3
 BYTE   W24
 BYTE   N48  Fn3
 BYTE   W48
//  #03 //008   ----------------------------------------
 BYTE   W96
//  #03 //009   ----------------------------------------
 BYTE   W96
//  #03 //010   ----------------------------------------
 BYTE   W96
//  #03 //011   ----------------------------------------
 BYTE   W96
//  #03 //012   ----------------------------------------
 BYTE   W96
//  #03 //013   ----------------------------------------
 BYTE   W96
//  #03 //014   ----------------------------------------
 BYTE   W96
//  #03 //015   ----------------------------------------
Label_01196C49:
 BYTE   W72
 BYTE   N12  Fn3  v052
 BYTE   W12
 BYTE   Gn3
 BYTE   W12
 BYTE   PEND 
//  #03 //016   ----------------------------------------
Label_01196C51:
 BYTE   N12  As3  v052
 BYTE   W12
 BYTE   N36  Cn4
 BYTE   W36
 BYTE   N48  As3
 BYTE   W48
 BYTE   PEND 
//  #03 //017   ----------------------------------------
Label_01196C5C:
 BYTE   W12
 BYTE   N36  Gn3  v052
 BYTE   W36
 BYTE   N48  Fn3
 BYTE   W48
 BYTE   PEND 
//  #03 //018   ----------------------------------------
Label_01196C65:
 BYTE   N12  Ds3  v052
 BYTE   W12
 BYTE   Fn3
 BYTE   W12
 BYTE   N24  Gn3
 BYTE   W24
 BYTE   TIE
 BYTE   W48
 BYTE   PEND 
//  #03 //019   ----------------------------------------
 BYTE   W72
 BYTE   EOT
 BYTE   N12  Fn3
 BYTE   W12
 BYTE   Gn3
 BYTE   W12
//  #03 //020   ----------------------------------------
 BYTE   PATT
  POIN2 Label_01196C51
//  #03 //021   ----------------------------------------
 BYTE   PATT
  POIN2 Label_01196C5C
//  #03 //022   ----------------------------------------
Label_01196C82:
 BYTE   N12  Ds3  v052
 BYTE   W12
 BYTE   Fn3
 BYTE   W12
 BYTE   N24  Gn3
 BYTE   W24
 BYTE   N48  Cn3
 BYTE   W48
 BYTE   PEND 
//  #03 //023   ----------------------------------------
Label_01196C8F:
 BYTE   N12  As2  v052
 BYTE   W12
 BYTE   N96  Cn3
 BYTE   W84
 BYTE   PEND 
//  #03 //024   ----------------------------------------
 BYTE   W96
//  #03 //025   ----------------------------------------
 BYTE   W96
//  #03 //026   ----------------------------------------
 BYTE   W96
//  #03 //027   ----------------------------------------
 BYTE   W96
//  #03 //028   ----------------------------------------
 BYTE   W96
//  #03 //029   ----------------------------------------
 BYTE   W96
//  #03 //030   ----------------------------------------
 BYTE   W96
//  #03 //031   ----------------------------------------
 BYTE   PATT
  POIN2 Label_01196C49
//  #03 //032   ----------------------------------------
 BYTE   PATT
  POIN2 Label_01196C51
//  #03 //033   ----------------------------------------
 BYTE   PATT
  POIN2 Label_01196C5C
//  #03 //034   ----------------------------------------
 BYTE   PATT
  POIN2 Label_01196C65
//  #03 //035   ----------------------------------------
 BYTE   W72
 BYTE   EOT
 BYTE   Gn3
 BYTE   N12  Fn3  v052
 BYTE   W12
 BYTE   Gn3
 BYTE   W12
//  #03 //036   ----------------------------------------
 BYTE   PATT
  POIN2 Label_01196C51
//  #03 //037   ----------------------------------------
 BYTE   PATT
  POIN2 Label_01196C5C
//  #03 //038   ----------------------------------------
 BYTE   PATT
  POIN2 Label_01196C82
//  #03 //039   ----------------------------------------
 BYTE   PATT
  POIN2 Label_01196C8F
//  #03 //040   ----------------------------------------
 BYTE   W96
//  #03 //041   ----------------------------------------
 BYTE   W96
//  #03 //042   ----------------------------------------
 BYTE   W96
//  #03 //043   ----------------------------------------
 BYTE   W96
//  #03 //044   ----------------------------------------
 BYTE   W96
//  #03 //045   ----------------------------------------
 BYTE   W96
//  #03 //046   ----------------------------------------
 BYTE   W96
//  #03 //047   ----------------------------------------
 BYTE   PATT
  POIN2 Label_01196C49
//  #03 //048   ----------------------------------------
 BYTE   PATT
  POIN2 Label_01196C51
//  #03 //049   ----------------------------------------
 BYTE   PATT
  POIN2 Label_01196C5C
//  #03 //050   ----------------------------------------
 BYTE   PATT
  POIN2 Label_01196C65
//  #03 //051   ----------------------------------------
 BYTE   W72
 BYTE   EOT
 BYTE   Gn3
 BYTE   N12  Fn3  v052
 BYTE   W12
 BYTE   Gn3
 BYTE   W12
//  #03 //052   ----------------------------------------
 BYTE   PATT
  POIN2 Label_01196C51
//  #03 //053   ----------------------------------------
 BYTE   PATT
  POIN2 Label_01196C5C
//  #03 //054   ----------------------------------------
 BYTE   PATT
  POIN2 Label_01196C82
//  #03 //055   ----------------------------------------
 BYTE   PATT
  POIN2 Label_01196C8F
//  #03 //056   ----------------------------------------
 BYTE   W96
//  #03 //057   ----------------------------------------
 BYTE   W96
//  #03 //058   ----------------------------------------
 BYTE   W96
//  #03 //059   ----------------------------------------
 BYTE   W96
//  #03 //060   ----------------------------------------
 BYTE   W96
//  #03 //061   ----------------------------------------
 BYTE   W96
//  #03 //062   ----------------------------------------
 BYTE   W96
//  #03 //063   ----------------------------------------
 BYTE   PATT
  POIN2 Label_01196C49
//  #03 //064   ----------------------------------------
 BYTE   PATT
  POIN2 Label_01196C51
//  #03 //065   ----------------------------------------
 BYTE   PATT
  POIN2 Label_01196C5C
//  #03 //066   ----------------------------------------
 BYTE   PATT
  POIN2 Label_01196C65
//  #03 //067   ----------------------------------------
 BYTE   W72
 BYTE   EOT
 BYTE   Gn3
 BYTE   N12  Fn3  v052
 BYTE   W12
 BYTE   Gn3
 BYTE   W12
//  #03 //068   ----------------------------------------
 BYTE   PATT
  POIN2 Label_01196C51
//  #03 //069   ----------------------------------------
 BYTE   PATT
  POIN2 Label_01196C5C
//  #03 //070   ----------------------------------------
 BYTE   PATT
  POIN2 Label_01196C82
//  #03 //071   ----------------------------------------
 BYTE   PATT
  POIN2 Label_01196C8F
//  #03 //072   ----------------------------------------
 BYTE   W96
//  #03 //073   ----------------------------------------
 BYTE   W96
//  #03 //074   ----------------------------------------
 BYTE   W96
//  #03 //075   ----------------------------------------
 BYTE   W96
//  #03 //076   ----------------------------------------
 BYTE   W96
//  #03 //077   ----------------------------------------
 BYTE   W96
//  #03 //078   ----------------------------------------
 BYTE   W96
//  #03 //079   ----------------------------------------
 BYTE   PATT
  POIN2 Label_01196C49
//  #03 //080   ----------------------------------------
 BYTE   PATT
  POIN2 Label_01196C51
//  #03 //081   ----------------------------------------
 BYTE   PATT
  POIN2 Label_01196C5C
//  #03 //082   ----------------------------------------
 BYTE   PATT
  POIN2 Label_01196C65
//  #03 //083   ----------------------------------------
 BYTE   W72
 BYTE   EOT
 BYTE   Gn3
 BYTE   N12  Fn3  v052
 BYTE   W12
 BYTE   Gn3
 BYTE   W12
//  #03 //084   ----------------------------------------
 BYTE   PATT
  POIN2 Label_01196C51
//  #03 //085   ----------------------------------------
 BYTE   PATT
  POIN2 Label_01196C5C
//  #03 //086   ----------------------------------------
 BYTE   PATT
  POIN2 Label_01196C82
//  #03 //087   ----------------------------------------
 BYTE   N12  As2  v052
 BYTE   W96
//  #03 //088   ----------------------------------------
 BYTE   GoTo
  POIN2 Label_01196C22
 BYTE   FINE

//**************** Track 4 (Midi-Chn.3) ****************//

SegaCDBIOS_004:
//  #04 //000   ----------------------------------------
 BYTE   KEYSH   SegaCDBIOS_key+0
 BYTE   VOICE   4
 BYTE   MODT 0
 BYTE   LFOS 44
 BYTE   MODT 0
 BYTE   LFOS 44
 BYTE   VOL   48*SegaCDBIOS_mvl/mxv
 BYTE   PAN   c_v+0
 BYTE   W96
//  #04 //001   ----------------------------------------
 BYTE   W96
//  #04 //002   ----------------------------------------
 BYTE   W96
//  #04 //003   ----------------------------------------
 BYTE   W90
Label_01196198:
 BYTE   W06
//  #04 //004   ----------------------------------------
 BYTE   W96
//  #04 //005   ----------------------------------------
 BYTE   W96
//  #04 //006   ----------------------------------------
 BYTE   W96
//  #04 //007   ----------------------------------------
 BYTE   W84
 BYTE   N12  As2  v068
 BYTE   W12
//  #04 //008   ----------------------------------------
Label_011961A1:
 BYTE   N36  Cn3  v068
 BYTE   W36
 BYTE   N06  As2
 BYTE   W36
 BYTE   N36  Cn3
 BYTE   W24
 BYTE   PEND 
//  #04 //009   ----------------------------------------
Label_011961AC:
 BYTE   W12
 BYTE   N06  As2  v068
 BYTE   W72
 BYTE   N12
 BYTE   W12
 BYTE   PEND 
//  #04 //010   ----------------------------------------
 BYTE   PATT
  POIN2 Label_011961A1
//  #04 //011   ----------------------------------------
Label_011961B9:
 BYTE   W12
 BYTE   N06  As2  v068
 BYTE   W36
 BYTE   Ds3
 BYTE   W12
 BYTE   N12
 BYTE   W12
 BYTE   Dn3
 BYTE   W12
 BYTE   As2
 BYTE   W12
 BYTE   PEND 
//  #04 //012   ----------------------------------------
 BYTE   PATT
  POIN2 Label_011961A1
//  #04 //013   ----------------------------------------
 BYTE   PATT
  POIN2 Label_011961AC
//  #04 //014   ----------------------------------------
 BYTE   PATT
  POIN2 Label_011961A1
//  #04 //015   ----------------------------------------
Label_011961D6:
 BYTE   W12
 BYTE   N06  As2  v068
 BYTE   W24
 BYTE   N48  Gn2
 BYTE   W48
 BYTE   N12  As2
 BYTE   W12
 BYTE   PEND 
//  #04 //016   ----------------------------------------
 BYTE   PATT
  POIN2 Label_011961A1
//  #04 //017   ----------------------------------------
 BYTE   PATT
  POIN2 Label_011961AC
//  #04 //018   ----------------------------------------
 BYTE   PATT
  POIN2 Label_011961A1
//  #04 //019   ----------------------------------------
Label_011961F1:
 BYTE   W12
 BYTE   N06  As2  v068
 BYTE   W24
 BYTE   N36  Gn2
 BYTE   W36
 BYTE   N12
 BYTE   W12
 BYTE   N06  As2
 BYTE   W12
 BYTE   PEND 
//  #04 //020   ----------------------------------------
 BYTE   PATT
  POIN2 Label_011961A1
//  #04 //021   ----------------------------------------
 BYTE   PATT
  POIN2 Label_011961AC
//  #04 //022   ----------------------------------------
 BYTE   PATT
  POIN2 Label_011961A1
//  #04 //023   ----------------------------------------
Label_0119620E:
 BYTE   W12
 BYTE   N06  As2  v068
 BYTE   W24
 BYTE   N12
 BYTE   W12
 BYTE   N48  Cn3
 BYTE   W48
 BYTE   PEND 
//  #04 //024   ----------------------------------------
 BYTE   PATT
  POIN2 Label_011961A1
//  #04 //025   ----------------------------------------
 BYTE   PATT
  POIN2 Label_011961AC
//  #04 //026   ----------------------------------------
 BYTE   PATT
  POIN2 Label_011961A1
//  #04 //027   ----------------------------------------
 BYTE   PATT
  POIN2 Label_011961B9
//  #04 //028   ----------------------------------------
 BYTE   PATT
  POIN2 Label_011961A1
//  #04 //029   ----------------------------------------
 BYTE   PATT
  POIN2 Label_011961AC
//  #04 //030   ----------------------------------------
 BYTE   PATT
  POIN2 Label_011961A1
//  #04 //031   ----------------------------------------
 BYTE   PATT
  POIN2 Label_011961D6
//  #04 //032   ----------------------------------------
 BYTE   PATT
  POIN2 Label_011961A1
//  #04 //033   ----------------------------------------
 BYTE   PATT
  POIN2 Label_011961AC
//  #04 //034   ----------------------------------------
 BYTE   PATT
  POIN2 Label_011961A1
//  #04 //035   ----------------------------------------
 BYTE   PATT
  POIN2 Label_011961F1
//  #04 //036   ----------------------------------------
 BYTE   PATT
  POIN2 Label_011961A1
//  #04 //037   ----------------------------------------
 BYTE   PATT
  POIN2 Label_011961AC
//  #04 //038   ----------------------------------------
 BYTE   PATT
  POIN2 Label_011961A1
//  #04 //039   ----------------------------------------
 BYTE   PATT
  POIN2 Label_0119620E
//  #04 //040   ----------------------------------------
 BYTE   PATT
  POIN2 Label_011961A1
//  #04 //041   ----------------------------------------
 BYTE   PATT
  POIN2 Label_011961AC
//  #04 //042   ----------------------------------------
 BYTE   PATT
  POIN2 Label_011961A1
//  #04 //043   ----------------------------------------
 BYTE   PATT
  POIN2 Label_011961B9
//  #04 //044   ----------------------------------------
 BYTE   PATT
  POIN2 Label_011961A1
//  #04 //045   ----------------------------------------
 BYTE   PATT
  POIN2 Label_011961AC
//  #04 //046   ----------------------------------------
 BYTE   PATT
  POIN2 Label_011961A1
//  #04 //047   ----------------------------------------
 BYTE   PATT
  POIN2 Label_011961D6
//  #04 //048   ----------------------------------------
 BYTE   PATT
  POIN2 Label_011961A1
//  #04 //049   ----------------------------------------
 BYTE   PATT
  POIN2 Label_011961AC
//  #04 //050   ----------------------------------------
 BYTE   PATT
  POIN2 Label_011961A1
//  #04 //051   ----------------------------------------
 BYTE   PATT
  POIN2 Label_011961F1
//  #04 //052   ----------------------------------------
 BYTE   PATT
  POIN2 Label_011961A1
//  #04 //053   ----------------------------------------
 BYTE   PATT
  POIN2 Label_011961AC
//  #04 //054   ----------------------------------------
 BYTE   PATT
  POIN2 Label_011961A1
//  #04 //055   ----------------------------------------
 BYTE   PATT
  POIN2 Label_0119620E
//  #04 //056   ----------------------------------------
 BYTE   PATT
  POIN2 Label_011961A1
//  #04 //057   ----------------------------------------
 BYTE   PATT
  POIN2 Label_011961AC
//  #04 //058   ----------------------------------------
 BYTE   PATT
  POIN2 Label_011961A1
//  #04 //059   ----------------------------------------
 BYTE   PATT
  POIN2 Label_011961B9
//  #04 //060   ----------------------------------------
 BYTE   PATT
  POIN2 Label_011961A1
//  #04 //061   ----------------------------------------
 BYTE   PATT
  POIN2 Label_011961AC
//  #04 //062   ----------------------------------------
 BYTE   PATT
  POIN2 Label_011961A1
//  #04 //063   ----------------------------------------
 BYTE   PATT
  POIN2 Label_011961D6
//  #04 //064   ----------------------------------------
 BYTE   PATT
  POIN2 Label_011961A1
//  #04 //065   ----------------------------------------
 BYTE   PATT
  POIN2 Label_011961AC
//  #04 //066   ----------------------------------------
 BYTE   PATT
  POIN2 Label_011961A1
//  #04 //067   ----------------------------------------
 BYTE   PATT
  POIN2 Label_011961F1
//  #04 //068   ----------------------------------------
 BYTE   PATT
  POIN2 Label_011961A1
//  #04 //069   ----------------------------------------
 BYTE   PATT
  POIN2 Label_011961AC
//  #04 //070   ----------------------------------------
 BYTE   PATT
  POIN2 Label_011961A1
//  #04 //071   ----------------------------------------
 BYTE   PATT
  POIN2 Label_0119620E
//  #04 //072   ----------------------------------------
 BYTE   PATT
  POIN2 Label_011961A1
//  #04 //073   ----------------------------------------
 BYTE   PATT
  POIN2 Label_011961AC
//  #04 //074   ----------------------------------------
 BYTE   PATT
  POIN2 Label_011961A1
//  #04 //075   ----------------------------------------
 BYTE   PATT
  POIN2 Label_011961B9
//  #04 //076   ----------------------------------------
 BYTE   PATT
  POIN2 Label_011961A1
//  #04 //077   ----------------------------------------
 BYTE   PATT
  POIN2 Label_011961AC
//  #04 //078   ----------------------------------------
 BYTE   PATT
  POIN2 Label_011961A1
//  #04 //079   ----------------------------------------
 BYTE   PATT
  POIN2 Label_011961D6
//  #04 //080   ----------------------------------------
 BYTE   PATT
  POIN2 Label_011961A1
//  #04 //081   ----------------------------------------
 BYTE   PATT
  POIN2 Label_011961AC
//  #04 //082   ----------------------------------------
 BYTE   PATT
  POIN2 Label_011961A1
//  #04 //083   ----------------------------------------
 BYTE   PATT
  POIN2 Label_011961F1
//  #04 //084   ----------------------------------------
 BYTE   PATT
  POIN2 Label_011961A1
//  #04 //085   ----------------------------------------
 BYTE   PATT
  POIN2 Label_011961AC
//  #04 //086   ----------------------------------------
 BYTE   PATT
  POIN2 Label_011961A1
//  #04 //087   ----------------------------------------
 BYTE   PATT
  POIN2 Label_0119620E
//  #04 //088   ----------------------------------------
 BYTE   GoTo
  POIN2 Label_01196198
 BYTE   FINE

//**************** Track 5 (Midi-Chn.4) ****************//

SegaCDBIOS_005:
//  #05 //000   ----------------------------------------
 BYTE   KEYSH   SegaCDBIOS_key+0
 BYTE   VOICE   4
 BYTE   MODT 0
 BYTE   LFOS 44
 BYTE   MODT 0
 BYTE   LFOS 44
 BYTE   VOL   48*SegaCDBIOS_mvl/mxv
 BYTE   PAN   c_v+0
 BYTE   W96
//  #05 //001   ----------------------------------------
 BYTE   W96
//  #05 //002   ----------------------------------------
 BYTE   W96
//  #05 //003   ----------------------------------------
 BYTE   W90
Label_01196374:
 BYTE   W06
//  #05 //004   ----------------------------------------
 BYTE   W96
//  #05 //005   ----------------------------------------
 BYTE   W96
//  #05 //006   ----------------------------------------
 BYTE   W96
//  #05 //007   ----------------------------------------
 BYTE   W84
 BYTE   N12  As2  v068
 BYTE   W12
//  #05 //008   ----------------------------------------
Label_0119637D:
 BYTE   N36  Gn2  v068
 BYTE   W36
 BYTE   N06  Fn2
 BYTE   W36
 BYTE   N36  Gn2
 BYTE   W24
 BYTE   PEND 
//  #05 //009   ----------------------------------------
Label_01196388:
 BYTE   W12
 BYTE   N06  Fn2  v068
 BYTE   W72
 BYTE   N12
 BYTE   W12
 BYTE   PEND 
//  #05 //010   ----------------------------------------
 BYTE   PATT
  POIN2 Label_0119637D
//  #05 //011   ----------------------------------------
Label_01196395:
 BYTE   W12
 BYTE   N06  Fn2  v068
 BYTE   W36
 BYTE   As2
 BYTE   W12
 BYTE   N12
 BYTE   W24
 BYTE   Fn2
 BYTE   W12
 BYTE   PEND 
//  #05 //012   ----------------------------------------
 BYTE   PATT
  POIN2 Label_0119637D
//  #05 //013   ----------------------------------------
 BYTE   PATT
  POIN2 Label_01196388
//  #05 //014   ----------------------------------------
 BYTE   PATT
  POIN2 Label_0119637D
//  #05 //015   ----------------------------------------
Label_011963B0:
 BYTE   W12
 BYTE   N06  Fn2  v068
 BYTE   W24
 BYTE   N48  Ds2
 BYTE   W48
 BYTE   N12  Fn2
 BYTE   W12
 BYTE   PEND 
//  #05 //016   ----------------------------------------
 BYTE   PATT
  POIN2 Label_0119637D
//  #05 //017   ----------------------------------------
 BYTE   PATT
  POIN2 Label_01196388
//  #05 //018   ----------------------------------------
 BYTE   PATT
  POIN2 Label_0119637D
//  #05 //019   ----------------------------------------
Label_011963CB:
 BYTE   W12
 BYTE   N06  Fn2  v068
 BYTE   W24
 BYTE   N36  Ds2
 BYTE   W36
 BYTE   N12
 BYTE   W12
 BYTE   N06  Fn2
 BYTE   W12
 BYTE   PEND 
//  #05 //020   ----------------------------------------
 BYTE   PATT
  POIN2 Label_0119637D
//  #05 //021   ----------------------------------------
 BYTE   PATT
  POIN2 Label_01196388
//  #05 //022   ----------------------------------------
 BYTE   PATT
  POIN2 Label_0119637D
//  #05 //023   ----------------------------------------
Label_011963E8:
 BYTE   W12
 BYTE   N06  Fn2  v068
 BYTE   W24
 BYTE   N12
 BYTE   W12
 BYTE   N48  Gn2
 BYTE   W48
 BYTE   PEND 
//  #05 //024   ----------------------------------------
 BYTE   PATT
  POIN2 Label_0119637D
//  #05 //025   ----------------------------------------
 BYTE   PATT
  POIN2 Label_01196388
//  #05 //026   ----------------------------------------
 BYTE   PATT
  POIN2 Label_0119637D
//  #05 //027   ----------------------------------------
 BYTE   PATT
  POIN2 Label_01196395
//  #05 //028   ----------------------------------------
 BYTE   PATT
  POIN2 Label_0119637D
//  #05 //029   ----------------------------------------
 BYTE   PATT
  POIN2 Label_01196388
//  #05 //030   ----------------------------------------
 BYTE   PATT
  POIN2 Label_0119637D
//  #05 //031   ----------------------------------------
 BYTE   PATT
  POIN2 Label_011963B0
//  #05 //032   ----------------------------------------
 BYTE   PATT
  POIN2 Label_0119637D
//  #05 //033   ----------------------------------------
 BYTE   PATT
  POIN2 Label_01196388
//  #05 //034   ----------------------------------------
 BYTE   PATT
  POIN2 Label_0119637D
//  #05 //035   ----------------------------------------
 BYTE   PATT
  POIN2 Label_011963CB
//  #05 //036   ----------------------------------------
 BYTE   PATT
  POIN2 Label_0119637D
//  #05 //037   ----------------------------------------
 BYTE   PATT
  POIN2 Label_01196388
//  #05 //038   ----------------------------------------
 BYTE   PATT
  POIN2 Label_0119637D
//  #05 //039   ----------------------------------------
 BYTE   PATT
  POIN2 Label_011963E8
//  #05 //040   ----------------------------------------
 BYTE   PATT
  POIN2 Label_0119637D
//  #05 //041   ----------------------------------------
 BYTE   PATT
  POIN2 Label_01196388
//  #05 //042   ----------------------------------------
 BYTE   PATT
  POIN2 Label_0119637D
//  #05 //043   ----------------------------------------
 BYTE   PATT
  POIN2 Label_01196395
//  #05 //044   ----------------------------------------
 BYTE   PATT
  POIN2 Label_0119637D
//  #05 //045   ----------------------------------------
 BYTE   PATT
  POIN2 Label_01196388
//  #05 //046   ----------------------------------------
 BYTE   PATT
  POIN2 Label_0119637D
//  #05 //047   ----------------------------------------
 BYTE   PATT
  POIN2 Label_011963B0
//  #05 //048   ----------------------------------------
 BYTE   PATT
  POIN2 Label_0119637D
//  #05 //049   ----------------------------------------
 BYTE   PATT
  POIN2 Label_01196388
//  #05 //050   ----------------------------------------
 BYTE   PATT
  POIN2 Label_0119637D
//  #05 //051   ----------------------------------------
 BYTE   PATT
  POIN2 Label_011963CB
//  #05 //052   ----------------------------------------
 BYTE   PATT
  POIN2 Label_0119637D
//  #05 //053   ----------------------------------------
 BYTE   PATT
  POIN2 Label_01196388
//  #05 //054   ----------------------------------------
 BYTE   PATT
  POIN2 Label_0119637D
//  #05 //055   ----------------------------------------
 BYTE   PATT
  POIN2 Label_011963E8
//  #05 //056   ----------------------------------------
 BYTE   PATT
  POIN2 Label_0119637D
//  #05 //057   ----------------------------------------
 BYTE   PATT
  POIN2 Label_01196388
//  #05 //058   ----------------------------------------
 BYTE   PATT
  POIN2 Label_0119637D
//  #05 //059   ----------------------------------------
 BYTE   PATT
  POIN2 Label_01196395
//  #05 //060   ----------------------------------------
 BYTE   PATT
  POIN2 Label_0119637D
//  #05 //061   ----------------------------------------
 BYTE   PATT
  POIN2 Label_01196388
//  #05 //062   ----------------------------------------
 BYTE   PATT
  POIN2 Label_0119637D
//  #05 //063   ----------------------------------------
 BYTE   PATT
  POIN2 Label_011963B0
//  #05 //064   ----------------------------------------
 BYTE   PATT
  POIN2 Label_0119637D
//  #05 //065   ----------------------------------------
 BYTE   PATT
  POIN2 Label_01196388
//  #05 //066   ----------------------------------------
 BYTE   PATT
  POIN2 Label_0119637D
//  #05 //067   ----------------------------------------
 BYTE   PATT
  POIN2 Label_011963CB
//  #05 //068   ----------------------------------------
 BYTE   PATT
  POIN2 Label_0119637D
//  #05 //069   ----------------------------------------
 BYTE   PATT
  POIN2 Label_01196388
//  #05 //070   ----------------------------------------
 BYTE   PATT
  POIN2 Label_0119637D
//  #05 //071   ----------------------------------------
 BYTE   PATT
  POIN2 Label_011963E8
//  #05 //072   ----------------------------------------
 BYTE   PATT
  POIN2 Label_0119637D
//  #05 //073   ----------------------------------------
 BYTE   PATT
  POIN2 Label_01196388
//  #05 //074   ----------------------------------------
 BYTE   PATT
  POIN2 Label_0119637D
//  #05 //075   ----------------------------------------
 BYTE   PATT
  POIN2 Label_01196395
//  #05 //076   ----------------------------------------
 BYTE   PATT
  POIN2 Label_0119637D
//  #05 //077   ----------------------------------------
 BYTE   PATT
  POIN2 Label_01196388
//  #05 //078   ----------------------------------------
 BYTE   PATT
  POIN2 Label_0119637D
//  #05 //079   ----------------------------------------
 BYTE   PATT
  POIN2 Label_011963B0
//  #05 //080   ----------------------------------------
 BYTE   PATT
  POIN2 Label_0119637D
//  #05 //081   ----------------------------------------
 BYTE   PATT
  POIN2 Label_01196388
//  #05 //082   ----------------------------------------
 BYTE   PATT
  POIN2 Label_0119637D
//  #05 //083   ----------------------------------------
 BYTE   PATT
  POIN2 Label_011963CB
//  #05 //084   ----------------------------------------
 BYTE   PATT
  POIN2 Label_0119637D
//  #05 //085   ----------------------------------------
 BYTE   PATT
  POIN2 Label_01196388
//  #05 //086   ----------------------------------------
 BYTE   PATT
  POIN2 Label_0119637D
//  #05 //087   ----------------------------------------
 BYTE   PATT
  POIN2 Label_011963E8
//  #05 //088   ----------------------------------------
 BYTE   GoTo
  POIN2 Label_01196374
 BYTE   FINE

//**************** Track 6 (Midi-Chn.5) ****************//

SegaCDBIOS_006:
//  #06 //000   ----------------------------------------
 BYTE   KEYSH   SegaCDBIOS_key+0
 BYTE   VOICE   50
 BYTE   MODT 0
 BYTE   LFOS 44
 BYTE   MODT 0
 BYTE   LFOS 44
 BYTE   VOL   40*SegaCDBIOS_mvl/mxv
 BYTE   PAN   c_v+0
 BYTE   N96  Gn0  v036
 BYTE   W96
//  #06 //001   ----------------------------------------
 BYTE   Gs0
 BYTE   W96
//  #06 //002   ----------------------------------------
 BYTE   N84  As0
 BYTE   W84
 BYTE   N12  Dn1
 BYTE   W12
//  #06 //003   ----------------------------------------
 BYTE   N36  Ds1
 BYTE   W36
 BYTE   Dn1
 BYTE   W36
 BYTE   N24  As0
 BYTE   W18
Label_011943FC:
 BYTE   W06
//  #06 //004   ----------------------------------------
 BYTE   N84  Gn0  v036
 BYTE   W84
 BYTE   N12  As0
 BYTE   W12
//  #06 //005   ----------------------------------------
 BYTE   N72  Cn1
 BYTE   W72
 BYTE   N12  As0
 BYTE   W12
 BYTE   Cn1
 BYTE   W12
//  #06 //006   ----------------------------------------
 BYTE   N36  Dn1
 BYTE   W36
 BYTE   Ds1
 BYTE   W36
 BYTE   N24  Fn1
 BYTE   W24
//  #06 //007   ----------------------------------------
 BYTE   N12  Gn1
 BYTE   W12
 BYTE   Gs1
 BYTE   W12
 BYTE   N60  Gn1
 BYTE   W72
//  #06 //008   ----------------------------------------
 BYTE   W96
//  #06 //009   ----------------------------------------
 BYTE   W96
//  #06 //010   ----------------------------------------
 BYTE   W96
//  #06 //011   ----------------------------------------
 BYTE   W96
//  #06 //012   ----------------------------------------
 BYTE   W96
//  #06 //013   ----------------------------------------
 BYTE   W96
//  #06 //014   ----------------------------------------
 BYTE   W96
//  #06 //015   ----------------------------------------
 BYTE   W96
//  #06 //016   ----------------------------------------
 BYTE   W96
//  #06 //017   ----------------------------------------
 BYTE   W96
//  #06 //018   ----------------------------------------
 BYTE   W96
//  #06 //019   ----------------------------------------
 BYTE   W96
//  #06 //020   ----------------------------------------
 BYTE   W96
//  #06 //021   ----------------------------------------
 BYTE   W96
//  #06 //022   ----------------------------------------
 BYTE   W96
//  #06 //023   ----------------------------------------
 BYTE   W96
//  #06 //024   ----------------------------------------
 BYTE   W96
//  #06 //025   ----------------------------------------
 BYTE   W96
//  #06 //026   ----------------------------------------
 BYTE   W96
//  #06 //027   ----------------------------------------
 BYTE   W96
//  #06 //028   ----------------------------------------
 BYTE   W96
//  #06 //029   ----------------------------------------
 BYTE   W96
//  #06 //030   ----------------------------------------
 BYTE   W96
//  #06 //031   ----------------------------------------
 BYTE   W96
//  #06 //032   ----------------------------------------
 BYTE   W96
//  #06 //033   ----------------------------------------
 BYTE   W96
//  #06 //034   ----------------------------------------
 BYTE   W96
//  #06 //035   ----------------------------------------
 BYTE   W96
//  #06 //036   ----------------------------------------
 BYTE   W96
//  #06 //037   ----------------------------------------
 BYTE   W96
//  #06 //038   ----------------------------------------
 BYTE   W96
//  #06 //039   ----------------------------------------
 BYTE   W96
//  #06 //040   ----------------------------------------
 BYTE   W96
//  #06 //041   ----------------------------------------
 BYTE   W96
//  #06 //042   ----------------------------------------
 BYTE   W96
//  #06 //043   ----------------------------------------
 BYTE   W96
//  #06 //044   ----------------------------------------
 BYTE   W96
//  #06 //045   ----------------------------------------
 BYTE   W96
//  #06 //046   ----------------------------------------
 BYTE   W96
//  #06 //047   ----------------------------------------
 BYTE   W96
//  #06 //048   ----------------------------------------
 BYTE   W96
//  #06 //049   ----------------------------------------
 BYTE   W96
//  #06 //050   ----------------------------------------
 BYTE   W96
//  #06 //051   ----------------------------------------
 BYTE   W96
//  #06 //052   ----------------------------------------
 BYTE   W96
//  #06 //053   ----------------------------------------
 BYTE   W96
//  #06 //054   ----------------------------------------
 BYTE   W96
//  #06 //055   ----------------------------------------
 BYTE   W96
//  #06 //056   ----------------------------------------
 BYTE   W96
//  #06 //057   ----------------------------------------
 BYTE   W96
//  #06 //058   ----------------------------------------
 BYTE   W96
//  #06 //059   ----------------------------------------
 BYTE   W96
//  #06 //060   ----------------------------------------
 BYTE   W96
//  #06 //061   ----------------------------------------
 BYTE   W96
//  #06 //062   ----------------------------------------
 BYTE   W96
//  #06 //063   ----------------------------------------
 BYTE   W96
//  #06 //064   ----------------------------------------
 BYTE   W96
//  #06 //065   ----------------------------------------
 BYTE   W96
//  #06 //066   ----------------------------------------
 BYTE   W96
//  #06 //067   ----------------------------------------
 BYTE   W96
//  #06 //068   ----------------------------------------
 BYTE   W96
//  #06 //069   ----------------------------------------
 BYTE   W96
//  #06 //070   ----------------------------------------
 BYTE   W96
//  #06 //071   ----------------------------------------
 BYTE   W96
//  #06 //072   ----------------------------------------
 BYTE   W96
//  #06 //073   ----------------------------------------
 BYTE   W96
//  #06 //074   ----------------------------------------
 BYTE   W96
//  #06 //075   ----------------------------------------
 BYTE   W96
//  #06 //076   ----------------------------------------
 BYTE   W96
//  #06 //077   ----------------------------------------
 BYTE   W96
//  #06 //078   ----------------------------------------
 BYTE   W96
//  #06 //079   ----------------------------------------
 BYTE   W96
//  #06 //080   ----------------------------------------
 BYTE   W96
//  #06 //081   ----------------------------------------
 BYTE   W96
//  #06 //082   ----------------------------------------
 BYTE   W96
//  #06 //083   ----------------------------------------
 BYTE   W96
//  #06 //084   ----------------------------------------
 BYTE   W96
//  #06 //085   ----------------------------------------
 BYTE   W96
//  #06 //086   ----------------------------------------
 BYTE   W96
//  #06 //087   ----------------------------------------
 BYTE   W96
//  #06 //088   ----------------------------------------
 BYTE   GoTo
  POIN2 Label_011943FC
 BYTE   FINE

//**************** Track 7 (Midi-Chn.6) ****************//

SegaCDBIOS_007:
//  #07 //000   ----------------------------------------
 BYTE   KEYSH   SegaCDBIOS_key+0
 BYTE   VOICE   50
 BYTE   MODT 0
 BYTE   LFOS 44
 BYTE   MODT 0
 BYTE   LFOS 44
 BYTE   VOL   42*SegaCDBIOS_mvl/mxv
 BYTE   PAN   c_v+0
 BYTE   N96  Gn0  v036
 BYTE   W96
//  #07 //001   ----------------------------------------
 BYTE   Gs0
 BYTE   W96
//  #07 //002   ----------------------------------------
 BYTE   N84  As0
 BYTE   W84
 BYTE   N12  Dn1
 BYTE   W12
//  #07 //003   ----------------------------------------
 BYTE   N36  Ds1
 BYTE   W36
 BYTE   Dn1
 BYTE   W36
 BYTE   N24  As0
 BYTE   W18
Label_01194088:
 BYTE   W06
//  #07 //004   ----------------------------------------
 BYTE   N84  Gn0  v036
 BYTE   W84
 BYTE   N12  As0
 BYTE   W12
//  #07 //005   ----------------------------------------
 BYTE   N72  Cn1
 BYTE   W72
 BYTE   N12  As0
 BYTE   W12
 BYTE   Cn1
 BYTE   W12
//  #07 //006   ----------------------------------------
 BYTE   N36  Dn1
 BYTE   W36
 BYTE   Ds1
 BYTE   W36
 BYTE   N24  Fn1
 BYTE   W24
//  #07 //007   ----------------------------------------
 BYTE   N12  Gn1
 BYTE   W12
 BYTE   Gs1
 BYTE   W12
 BYTE   N60  Gn1
 BYTE   W72
//  #07 //008   ----------------------------------------
 BYTE   W96
//  #07 //009   ----------------------------------------
 BYTE   W96
//  #07 //010   ----------------------------------------
 BYTE   W96
//  #07 //011   ----------------------------------------
 BYTE   W96
//  #07 //012   ----------------------------------------
 BYTE   W96
//  #07 //013   ----------------------------------------
 BYTE   W96
//  #07 //014   ----------------------------------------
 BYTE   W96
//  #07 //015   ----------------------------------------
 BYTE   W96
//  #07 //016   ----------------------------------------
 BYTE   W96
//  #07 //017   ----------------------------------------
 BYTE   W96
//  #07 //018   ----------------------------------------
 BYTE   W96
//  #07 //019   ----------------------------------------
 BYTE   W96
//  #07 //020   ----------------------------------------
 BYTE   W96
//  #07 //021   ----------------------------------------
 BYTE   W96
//  #07 //022   ----------------------------------------
 BYTE   W96
//  #07 //023   ----------------------------------------
 BYTE   W96
//  #07 //024   ----------------------------------------
 BYTE   W96
//  #07 //025   ----------------------------------------
 BYTE   W96
//  #07 //026   ----------------------------------------
 BYTE   W96
//  #07 //027   ----------------------------------------
 BYTE   W96
//  #07 //028   ----------------------------------------
 BYTE   W96
//  #07 //029   ----------------------------------------
 BYTE   W96
//  #07 //030   ----------------------------------------
 BYTE   W96
//  #07 //031   ----------------------------------------
 BYTE   W96
//  #07 //032   ----------------------------------------
 BYTE   W96
//  #07 //033   ----------------------------------------
 BYTE   W96
//  #07 //034   ----------------------------------------
 BYTE   W96
//  #07 //035   ----------------------------------------
 BYTE   W96
//  #07 //036   ----------------------------------------
 BYTE   W96
//  #07 //037   ----------------------------------------
 BYTE   W96
//  #07 //038   ----------------------------------------
 BYTE   W96
//  #07 //039   ----------------------------------------
 BYTE   W96
//  #07 //040   ----------------------------------------
 BYTE   W96
//  #07 //041   ----------------------------------------
 BYTE   W96
//  #07 //042   ----------------------------------------
 BYTE   W96
//  #07 //043   ----------------------------------------
 BYTE   W96
//  #07 //044   ----------------------------------------
 BYTE   W96
//  #07 //045   ----------------------------------------
 BYTE   W96
//  #07 //046   ----------------------------------------
 BYTE   W96
//  #07 //047   ----------------------------------------
 BYTE   W96
//  #07 //048   ----------------------------------------
 BYTE   W96
//  #07 //049   ----------------------------------------
 BYTE   W96
//  #07 //050   ----------------------------------------
 BYTE   W96
//  #07 //051   ----------------------------------------
 BYTE   W96
//  #07 //052   ----------------------------------------
 BYTE   W96
//  #07 //053   ----------------------------------------
 BYTE   W96
//  #07 //054   ----------------------------------------
 BYTE   W96
//  #07 //055   ----------------------------------------
 BYTE   W96
//  #07 //056   ----------------------------------------
 BYTE   W96
//  #07 //057   ----------------------------------------
 BYTE   W96
//  #07 //058   ----------------------------------------
 BYTE   W96
//  #07 //059   ----------------------------------------
 BYTE   W96
//  #07 //060   ----------------------------------------
 BYTE   W96
//  #07 //061   ----------------------------------------
 BYTE   W96
//  #07 //062   ----------------------------------------
 BYTE   W96
//  #07 //063   ----------------------------------------
 BYTE   W96
//  #07 //064   ----------------------------------------
 BYTE   W96
//  #07 //065   ----------------------------------------
 BYTE   W96
//  #07 //066   ----------------------------------------
 BYTE   W96
//  #07 //067   ----------------------------------------
 BYTE   W96
//  #07 //068   ----------------------------------------
 BYTE   W96
//  #07 //069   ----------------------------------------
 BYTE   W96
//  #07 //070   ----------------------------------------
 BYTE   W96
//  #07 //071   ----------------------------------------
 BYTE   W96
//  #07 //072   ----------------------------------------
 BYTE   W96
//  #07 //073   ----------------------------------------
 BYTE   W96
//  #07 //074   ----------------------------------------
 BYTE   W96
//  #07 //075   ----------------------------------------
 BYTE   W96
//  #07 //076   ----------------------------------------
 BYTE   W96
//  #07 //077   ----------------------------------------
 BYTE   W96
//  #07 //078   ----------------------------------------
 BYTE   W96
//  #07 //079   ----------------------------------------
 BYTE   W96
//  #07 //080   ----------------------------------------
 BYTE   W96
//  #07 //081   ----------------------------------------
 BYTE   W96
//  #07 //082   ----------------------------------------
 BYTE   W96
//  #07 //083   ----------------------------------------
 BYTE   W96
//  #07 //084   ----------------------------------------
 BYTE   W96
//  #07 //085   ----------------------------------------
 BYTE   W96
//  #07 //086   ----------------------------------------
 BYTE   W96
//  #07 //087   ----------------------------------------
 BYTE   W96
//  #07 //088   ----------------------------------------
 BYTE   GoTo
  POIN2 Label_01194088
 BYTE   FINE

//**************** Track 8 (Midi-Chn.7) ****************//

SegaCDBIOS_008:
//  #08 //000   ----------------------------------------
 BYTE   KEYSH   SegaCDBIOS_key+0
 BYTE   VOICE   51
 BYTE   MODT 0
 BYTE   LFOS 44
 BYTE   MODT 0
 BYTE   LFOS 44
 BYTE   VOL   45*SegaCDBIOS_mvl/mxv
 BYTE   PAN   c_v+0
 BYTE   N96  Gn2  v068
 BYTE   W96
//  #08 //001   ----------------------------------------
 BYTE   Gs2
 BYTE   W96
//  #08 //002   ----------------------------------------
 BYTE   N84  As2
 BYTE   W84
 BYTE   N12  Dn3
 BYTE   W12
//  #08 //003   ----------------------------------------
 BYTE   N36  Ds3
 BYTE   W36
 BYTE   Dn3
 BYTE   W36
 BYTE   N24  As2
 BYTE   W18
Label_0119462C:
 BYTE   W06
//  #08 //004   ----------------------------------------
 BYTE   N96  Gn2  v068
 BYTE   W96
//  #08 //005   ----------------------------------------
 BYTE   Gs2
 BYTE   W96
//  #08 //006   ----------------------------------------
 BYTE   As2
 BYTE   W96
//  #08 //007   ----------------------------------------
 BYTE   Fn3
 BYTE   W96
//  #08 //008   ----------------------------------------
 BYTE   TIE  Gn3
 BYTE   W96
//  #08 //009   ----------------------------------------
 BYTE   W96
//  #08 //010   ----------------------------------------
 BYTE   W96
//  #08 //011   ----------------------------------------
 BYTE   W96
//  #08 //012   ----------------------------------------
 BYTE   EOT
 BYTE   N96  Fn3
 BYTE   W96
//  #08 //013   ----------------------------------------
Label_01194641:
 BYTE   N48  Dn3  v068
 BYTE   W48
 BYTE   As2
 BYTE   W48
 BYTE   PEND 
//  #08 //014   ----------------------------------------
 BYTE   TIE  Gn2
 BYTE   W96
//  #08 //015   ----------------------------------------
 BYTE   W48
 BYTE   EOT
 BYTE   N48  Ds3
 BYTE   W48
//  #08 //016   ----------------------------------------
 BYTE   TIE  Fn3
 BYTE   W96
//  #08 //017   ----------------------------------------
 BYTE   W48
 BYTE   EOT
 BYTE   N48  As3
 BYTE   W48
//  #08 //018   ----------------------------------------
 BYTE   TIE  Gn3
 BYTE   W96
//  #08 //019   ----------------------------------------
 BYTE   W48
 BYTE   EOT
 BYTE   N48  Ds3
 BYTE   W48
//  #08 //020   ----------------------------------------
 BYTE   TIE  Fn3
 BYTE   W96
//  #08 //021   ----------------------------------------
 BYTE   W48
 BYTE   EOT
 BYTE   N48  Dn3
 BYTE   W48
//  #08 //022   ----------------------------------------
 BYTE   TIE  Cn3
 BYTE   W96
//  #08 //023   ----------------------------------------
 BYTE   W96
//  #08 //024   ----------------------------------------
 BYTE   EOT
 BYTE   TIE  Gn3
 BYTE   W96
//  #08 //025   ----------------------------------------
 BYTE   W96
//  #08 //026   ----------------------------------------
 BYTE   W96
//  #08 //027   ----------------------------------------
 BYTE   W96
//  #08 //028   ----------------------------------------
 BYTE   EOT
 BYTE   N96  Fn3
 BYTE   W96
//  #08 //029   ----------------------------------------
 BYTE   PATT
  POIN2 Label_01194641
//  #08 //030   ----------------------------------------
 BYTE   TIE  Gn2  v068
 BYTE   W96
//  #08 //031   ----------------------------------------
 BYTE   W48
 BYTE   EOT
 BYTE   N48  Ds3
 BYTE   W48
//  #08 //032   ----------------------------------------
 BYTE   TIE  Fn3
 BYTE   W96
//  #08 //033   ----------------------------------------
 BYTE   W48
 BYTE   EOT
 BYTE   N48  As3
 BYTE   W48
//  #08 //034   ----------------------------------------
 BYTE   TIE  Gn3
 BYTE   W96
//  #08 //035   ----------------------------------------
 BYTE   W48
 BYTE   EOT
 BYTE   N48  Ds3
 BYTE   W48
//  #08 //036   ----------------------------------------
 BYTE   TIE  Fn3
 BYTE   W96
//  #08 //037   ----------------------------------------
 BYTE   W48
 BYTE   EOT
 BYTE   N48  Dn3
 BYTE   W48
//  #08 //038   ----------------------------------------
 BYTE   TIE  Cn3
 BYTE   W96
//  #08 //039   ----------------------------------------
 BYTE   W96
//  #08 //040   ----------------------------------------
 BYTE   EOT
 BYTE   TIE  Gn3
 BYTE   W96
//  #08 //041   ----------------------------------------
 BYTE   W96
//  #08 //042   ----------------------------------------
 BYTE   W96
//  #08 //043   ----------------------------------------
 BYTE   W96
//  #08 //044   ----------------------------------------
 BYTE   EOT
 BYTE   N96  Fn3
 BYTE   W96
//  #08 //045   ----------------------------------------
 BYTE   PATT
  POIN2 Label_01194641
//  #08 //046   ----------------------------------------
 BYTE   TIE  Gn2  v068
 BYTE   W96
//  #08 //047   ----------------------------------------
 BYTE   W48
 BYTE   EOT
 BYTE   N48  Ds3
 BYTE   W48
//  #08 //048   ----------------------------------------
 BYTE   TIE  Fn3
 BYTE   W96
//  #08 //049   ----------------------------------------
 BYTE   W48
 BYTE   EOT
 BYTE   N48  As3
 BYTE   W48
//  #08 //050   ----------------------------------------
 BYTE   TIE  Gn3
 BYTE   W96
//  #08 //051   ----------------------------------------
 BYTE   W48
 BYTE   EOT
 BYTE   N48  Ds3
 BYTE   W48
//  #08 //052   ----------------------------------------
 BYTE   TIE  Fn3
 BYTE   W96
//  #08 //053   ----------------------------------------
 BYTE   W48
 BYTE   EOT
 BYTE   N48  Dn3
 BYTE   W48
//  #08 //054   ----------------------------------------
 BYTE   TIE  Cn3
 BYTE   W96
//  #08 //055   ----------------------------------------
 BYTE   W96
//  #08 //056   ----------------------------------------
 BYTE   EOT
 BYTE   TIE  Gn3
 BYTE   W96
//  #08 //057   ----------------------------------------
 BYTE   W96
//  #08 //058   ----------------------------------------
 BYTE   W96
//  #08 //059   ----------------------------------------
 BYTE   W96
//  #08 //060   ----------------------------------------
 BYTE   EOT
 BYTE   N96  Fn3
 BYTE   W96
//  #08 //061   ----------------------------------------
 BYTE   PATT
  POIN2 Label_01194641
//  #08 //062   ----------------------------------------
 BYTE   TIE  Gn2  v068
 BYTE   W96
//  #08 //063   ----------------------------------------
 BYTE   W48
 BYTE   EOT
 BYTE   N48  Ds3
 BYTE   W48
//  #08 //064   ----------------------------------------
 BYTE   TIE  Fn3
 BYTE   W96
//  #08 //065   ----------------------------------------
 BYTE   W48
 BYTE   EOT
 BYTE   N48  As3
 BYTE   W48
//  #08 //066   ----------------------------------------
 BYTE   TIE  Gn3
 BYTE   W96
//  #08 //067   ----------------------------------------
 BYTE   W48
 BYTE   EOT
 BYTE   N48  Ds3
 BYTE   W48
//  #08 //068   ----------------------------------------
 BYTE   TIE  Fn3
 BYTE   W96
//  #08 //069   ----------------------------------------
 BYTE   W48
 BYTE   EOT
 BYTE   N48  Dn3
 BYTE   W48
//  #08 //070   ----------------------------------------
 BYTE   TIE  Cn3
 BYTE   W96
//  #08 //071   ----------------------------------------
 BYTE   W96
//  #08 //072   ----------------------------------------
 BYTE   EOT
 BYTE   TIE  Gn3
 BYTE   W96
//  #08 //073   ----------------------------------------
 BYTE   W96
//  #08 //074   ----------------------------------------
 BYTE   W96
//  #08 //075   ----------------------------------------
 BYTE   W96
//  #08 //076   ----------------------------------------
 BYTE   EOT
 BYTE   N96  Fn3
 BYTE   W96
//  #08 //077   ----------------------------------------
 BYTE   PATT
  POIN2 Label_01194641
//  #08 //078   ----------------------------------------
 BYTE   TIE  Gn2  v068
 BYTE   W96
//  #08 //079   ----------------------------------------
 BYTE   W48
 BYTE   EOT
 BYTE   N48  Ds3
 BYTE   W48
//  #08 //080   ----------------------------------------
 BYTE   TIE  Fn3
 BYTE   W96
//  #08 //081   ----------------------------------------
 BYTE   W48
 BYTE   EOT
 BYTE   N48  As3
 BYTE   W48
//  #08 //082   ----------------------------------------
 BYTE   TIE  Gn3
 BYTE   W96
//  #08 //083   ----------------------------------------
 BYTE   W48
 BYTE   EOT
 BYTE   N48  Ds3
 BYTE   W48
//  #08 //084   ----------------------------------------
 BYTE   TIE  Fn3
 BYTE   W96
//  #08 //085   ----------------------------------------
 BYTE   W48
 BYTE   EOT
 BYTE   N48  Dn3
 BYTE   W48
//  #08 //086   ----------------------------------------
 BYTE   TIE  Cn3
 BYTE   W96
//  #08 //087   ----------------------------------------
 BYTE   W96
//  #08 //088   ----------------------------------------
 BYTE   EOT
 BYTE   GoTo
  POIN2 Label_0119462C
 BYTE   FINE

//**************** Track 9 (Midi-Chn.8) ****************//

SegaCDBIOS_009:
//  #09 //000   ----------------------------------------
 BYTE   KEYSH   SegaCDBIOS_key+0
 BYTE   VOICE   51
 BYTE   MODT 0
 BYTE   LFOS 44
 BYTE   MODT 0
 BYTE   LFOS 44
 BYTE   VOL   46*SegaCDBIOS_mvl/mxv
 BYTE   PAN   c_v+0
 BYTE   N96  Gn0  v068
 BYTE   W96
//  #09 //001   ----------------------------------------
 BYTE   Gs0
 BYTE   W96
//  #09 //002   ----------------------------------------
 BYTE   N84  As0
 BYTE   W84
 BYTE   N12  Dn1
 BYTE   W12
//  #09 //003   ----------------------------------------
 BYTE   N36  Ds1
 BYTE   W36
 BYTE   Dn1
 BYTE   W36
 BYTE   N24  As0
 BYTE   W18
Label_01194208:
 BYTE   W06
//  #09 //004   ----------------------------------------
 BYTE   N96  Gn0  v068
 BYTE   W96
//  #09 //005   ----------------------------------------
 BYTE   Gs0
 BYTE   W96
//  #09 //006   ----------------------------------------
 BYTE   As0
 BYTE   W96
//  #09 //007   ----------------------------------------
 BYTE   Fn1
 BYTE   W96
//  #09 //008   ----------------------------------------
 BYTE   TIE  Gn1
 BYTE   W96
//  #09 //009   ----------------------------------------
 BYTE   W96
//  #09 //010   ----------------------------------------
 BYTE   W96
//  #09 //011   ----------------------------------------
 BYTE   W96
//  #09 //012   ----------------------------------------
 BYTE   EOT
 BYTE   N96  Fn1
 BYTE   W96
//  #09 //013   ----------------------------------------
Label_0119421D:
 BYTE   N48  Dn1  v068
 BYTE   W48
 BYTE   As0
 BYTE   W48
 BYTE   PEND 
//  #09 //014   ----------------------------------------
 BYTE   TIE  Gn0
 BYTE   W96
//  #09 //015   ----------------------------------------
 BYTE   W48
 BYTE   EOT
 BYTE   N48  Ds1
 BYTE   W48
//  #09 //016   ----------------------------------------
 BYTE   TIE  Fn1
 BYTE   W96
//  #09 //017   ----------------------------------------
 BYTE   W48
 BYTE   EOT
 BYTE   N48  As1
 BYTE   W48
//  #09 //018   ----------------------------------------
 BYTE   TIE  Gn1
 BYTE   W96
//  #09 //019   ----------------------------------------
 BYTE   W48
 BYTE   EOT
 BYTE   N48  Ds1
 BYTE   W48
//  #09 //020   ----------------------------------------
 BYTE   TIE  Fn1
 BYTE   W96
//  #09 //021   ----------------------------------------
 BYTE   W48
 BYTE   EOT
 BYTE   N48  Dn1
 BYTE   W48
//  #09 //022   ----------------------------------------
 BYTE   TIE  Cn1
 BYTE   W96
//  #09 //023   ----------------------------------------
 BYTE   W96
//  #09 //024   ----------------------------------------
 BYTE   EOT
 BYTE   TIE  Gn1
 BYTE   W96
//  #09 //025   ----------------------------------------
 BYTE   W96
//  #09 //026   ----------------------------------------
 BYTE   W96
//  #09 //027   ----------------------------------------
 BYTE   W96
//  #09 //028   ----------------------------------------
 BYTE   EOT
 BYTE   N96  Fn1
 BYTE   W96
//  #09 //029   ----------------------------------------
 BYTE   PATT
  POIN2 Label_0119421D
//  #09 //030   ----------------------------------------
 BYTE   TIE  Gn0  v068
 BYTE   W96
//  #09 //031   ----------------------------------------
 BYTE   W48
 BYTE   EOT
 BYTE   N48  Ds1
 BYTE   W48
//  #09 //032   ----------------------------------------
 BYTE   TIE  Fn1
 BYTE   W96
//  #09 //033   ----------------------------------------
 BYTE   W48
 BYTE   EOT
 BYTE   N48  As1
 BYTE   W48
//  #09 //034   ----------------------------------------
 BYTE   TIE  Gn1
 BYTE   W96
//  #09 //035   ----------------------------------------
 BYTE   W48
 BYTE   EOT
 BYTE   N48  Ds1
 BYTE   W48
//  #09 //036   ----------------------------------------
 BYTE   TIE  Fn1
 BYTE   W96
//  #09 //037   ----------------------------------------
 BYTE   W48
 BYTE   EOT
 BYTE   N48  Dn1
 BYTE   W48
//  #09 //038   ----------------------------------------
 BYTE   TIE  Cn1
 BYTE   W96
//  #09 //039   ----------------------------------------
 BYTE   W96
//  #09 //040   ----------------------------------------
 BYTE   EOT
 BYTE   TIE  Gn1
 BYTE   W96
//  #09 //041   ----------------------------------------
 BYTE   W96
//  #09 //042   ----------------------------------------
 BYTE   W96
//  #09 //043   ----------------------------------------
 BYTE   W96
//  #09 //044   ----------------------------------------
 BYTE   EOT
 BYTE   N96  Fn1
 BYTE   W96
//  #09 //045   ----------------------------------------
 BYTE   PATT
  POIN2 Label_0119421D
//  #09 //046   ----------------------------------------
 BYTE   TIE  Gn0  v068
 BYTE   W96
//  #09 //047   ----------------------------------------
 BYTE   W48
 BYTE   EOT
 BYTE   N48  Ds1
 BYTE   W48
//  #09 //048   ----------------------------------------
 BYTE   TIE  Fn1
 BYTE   W96
//  #09 //049   ----------------------------------------
 BYTE   W48
 BYTE   EOT
 BYTE   N48  As1
 BYTE   W48
//  #09 //050   ----------------------------------------
 BYTE   TIE  Gn1
 BYTE   W96
//  #09 //051   ----------------------------------------
 BYTE   W48
 BYTE   EOT
 BYTE   N48  Ds1
 BYTE   W48
//  #09 //052   ----------------------------------------
 BYTE   TIE  Fn1
 BYTE   W96
//  #09 //053   ----------------------------------------
 BYTE   W48
 BYTE   EOT
 BYTE   N48  Dn1
 BYTE   W48
//  #09 //054   ----------------------------------------
 BYTE   TIE  Cn1
 BYTE   W96
//  #09 //055   ----------------------------------------
 BYTE   W96
//  #09 //056   ----------------------------------------
 BYTE   EOT
 BYTE   TIE  Gn1
 BYTE   W96
//  #09 //057   ----------------------------------------
 BYTE   W96
//  #09 //058   ----------------------------------------
 BYTE   W96
//  #09 //059   ----------------------------------------
 BYTE   W96
//  #09 //060   ----------------------------------------
 BYTE   EOT
 BYTE   N96  Fn1
 BYTE   W96
//  #09 //061   ----------------------------------------
 BYTE   PATT
  POIN2 Label_0119421D
//  #09 //062   ----------------------------------------
 BYTE   TIE  Gn0  v068
 BYTE   W96
//  #09 //063   ----------------------------------------
 BYTE   W48
 BYTE   EOT
 BYTE   N48  Ds1
 BYTE   W48
//  #09 //064   ----------------------------------------
 BYTE   TIE  Fn1
 BYTE   W96
//  #09 //065   ----------------------------------------
 BYTE   W48
 BYTE   EOT
 BYTE   N48  As1
 BYTE   W48
//  #09 //066   ----------------------------------------
 BYTE   TIE  Gn1
 BYTE   W96
//  #09 //067   ----------------------------------------
 BYTE   W48
 BYTE   EOT
 BYTE   N48  Ds1
 BYTE   W48
//  #09 //068   ----------------------------------------
 BYTE   TIE  Fn1
 BYTE   W96
//  #09 //069   ----------------------------------------
 BYTE   W48
 BYTE   EOT
 BYTE   N48  Dn1
 BYTE   W48
//  #09 //070   ----------------------------------------
 BYTE   TIE  Cn1
 BYTE   W96
//  #09 //071   ----------------------------------------
 BYTE   W96
//  #09 //072   ----------------------------------------
 BYTE   EOT
 BYTE   TIE  Gn1
 BYTE   W96
//  #09 //073   ----------------------------------------
 BYTE   W96
//  #09 //074   ----------------------------------------
 BYTE   W96
//  #09 //075   ----------------------------------------
 BYTE   W96
//  #09 //076   ----------------------------------------
 BYTE   EOT
 BYTE   N96  Fn1
 BYTE   W96
//  #09 //077   ----------------------------------------
 BYTE   PATT
  POIN2 Label_0119421D
//  #09 //078   ----------------------------------------
 BYTE   TIE  Gn0  v068
 BYTE   W96
//  #09 //079   ----------------------------------------
 BYTE   W48
 BYTE   EOT
 BYTE   N48  Ds1
 BYTE   W48
//  #09 //080   ----------------------------------------
 BYTE   TIE  Fn1
 BYTE   W96
//  #09 //081   ----------------------------------------
 BYTE   W48
 BYTE   EOT
 BYTE   N48  As1
 BYTE   W48
//  #09 //082   ----------------------------------------
 BYTE   TIE  Gn1
 BYTE   W96
//  #09 //083   ----------------------------------------
 BYTE   W48
 BYTE   EOT
 BYTE   N48  Ds1
 BYTE   W48
//  #09 //084   ----------------------------------------
 BYTE   TIE  Fn1
 BYTE   W96
//  #09 //085   ----------------------------------------
 BYTE   W48
 BYTE   EOT
 BYTE   N48  Dn1
 BYTE   W48
//  #09 //086   ----------------------------------------
 BYTE   TIE  Cn1
 BYTE   W96
//  #09 //087   ----------------------------------------
 BYTE   W96
//  #09 //088   ----------------------------------------
 BYTE   EOT
 BYTE   GoTo
  POIN2 Label_01194208
 BYTE   FINE

//**************** Track 10 (Midi-Chn.9) ****************//

SegaCDBIOS_010:
//  #10 //000   ----------------------------------------
 BYTE   KEYSH   SegaCDBIOS_key+0
 BYTE   VOICE   121
 BYTE   MODT 0
 BYTE   LFOS 44
 BYTE   MODT 0
 BYTE   LFOS 44
 BYTE   VOL   65*SegaCDBIOS_mvl/mxv
 BYTE   PAN   c_v+0
 BYTE   N03  Cs2  v127
 BYTE   W96
//  #10 //001   ----------------------------------------
 BYTE   W96
//  #10 //002   ----------------------------------------
 BYTE   W96
//  #10 //003   ----------------------------------------
 BYTE   W90
Label_01196573:
 BYTE   W06
//  #10 //004   ----------------------------------------
 BYTE   N03  Cs2  v127
 BYTE   W96
//  #10 //005   ----------------------------------------
 BYTE   W96
//  #10 //006   ----------------------------------------
 BYTE   W96
//  #10 //007   ----------------------------------------
 BYTE   W96
//  #10 //008   ----------------------------------------
Label_0119657B:
 BYTE   N03  Cn1  v127
 BYTE   N03  Cs2
 BYTE   W24
 BYTE   En1
 BYTE   N03  Gs1
 BYTE   W12
 BYTE   Cn1
 BYTE   W12
 BYTE   Gs1
 BYTE   W12
 BYTE   Cn1
 BYTE   W12
 BYTE   En1
 BYTE   N03  Gs1
 BYTE   W24
 BYTE   PEND 
//  #10 //009   ----------------------------------------
Label_01196590:
 BYTE   N03  Cn1  v127
 BYTE   N03  Gs1
 BYTE   W24
 BYTE   En1
 BYTE   N03  Gs1
 BYTE   W12
 BYTE   Cn1
 BYTE   W12
 BYTE   Gs1
 BYTE   W12
 BYTE   Cn1
 BYTE   W12
 BYTE   En1
 BYTE   N03  Gs1
 BYTE   W24
 BYTE   PEND 
//  #10 //010   ----------------------------------------
 BYTE   PATT
  POIN2 Label_01196590
//  #10 //011   ----------------------------------------
 BYTE   PATT
  POIN2 Label_01196590
//  #10 //012   ----------------------------------------
 BYTE   PATT
  POIN2 Label_01196590
//  #10 //013   ----------------------------------------
 BYTE   PATT
  POIN2 Label_01196590
//  #10 //014   ----------------------------------------
 BYTE   PATT
  POIN2 Label_01196590
//  #10 //015   ----------------------------------------
Label_011965BE:
 BYTE   N03  Cn1  v127
 BYTE   N03  Gs1
 BYTE   W24
 BYTE   En1
 BYTE   N03  Gs1
 BYTE   W12
 BYTE   Cn1
 BYTE   W12
 BYTE   Gs1
 BYTE   W12
 BYTE   Cn1
 BYTE   N03  Gs1
 BYTE   W06
 BYTE   N03
 BYTE   W06
 BYTE   En1
 BYTE   N03  Gs1
 BYTE   W12
 BYTE   En1
 BYTE   N03  Gs1
 BYTE   W06
 BYTE   En1
 BYTE   N03  Gs1
 BYTE   W06
 BYTE   PEND 
//  #10 //016   ----------------------------------------
 BYTE   PATT
  POIN2 Label_0119657B
//  #10 //017   ----------------------------------------
 BYTE   PATT
  POIN2 Label_01196590
//  #10 //018   ----------------------------------------
 BYTE   PATT
  POIN2 Label_01196590
//  #10 //019   ----------------------------------------
 BYTE   PATT
  POIN2 Label_011965BE
//  #10 //020   ----------------------------------------
 BYTE   PATT
  POIN2 Label_0119657B
//  #10 //021   ----------------------------------------
 BYTE   PATT
  POIN2 Label_01196590
//  #10 //022   ----------------------------------------
 BYTE   PATT
  POIN2 Label_0119657B
//  #10 //023   ----------------------------------------
Label_01196602:
 BYTE   N03  Dn2  v127
 BYTE   W18
 BYTE   Cn2
 BYTE   W18
 BYTE   An1
 BYTE   W12
 BYTE   Gn1
 BYTE   N03  Cs2
 BYTE   W36
 BYTE   En1
 BYTE   W06
 BYTE   N03
 BYTE   W06
 BYTE   PEND 
//  #10 //024   ----------------------------------------
 BYTE   PATT
  POIN2 Label_0119657B
//  #10 //025   ----------------------------------------
 BYTE   PATT
  POIN2 Label_01196590
//  #10 //026   ----------------------------------------
 BYTE   PATT
  POIN2 Label_01196590
//  #10 //027   ----------------------------------------
 BYTE   PATT
  POIN2 Label_01196590
//  #10 //028   ----------------------------------------
 BYTE   PATT
  POIN2 Label_01196590
//  #10 //029   ----------------------------------------
 BYTE   PATT
  POIN2 Label_01196590
//  #10 //030   ----------------------------------------
 BYTE   PATT
  POIN2 Label_01196590
//  #10 //031   ----------------------------------------
 BYTE   PATT
  POIN2 Label_011965BE
//  #10 //032   ----------------------------------------
 BYTE   PATT
  POIN2 Label_0119657B
//  #10 //033   ----------------------------------------
 BYTE   PATT
  POIN2 Label_01196590
//  #10 //034   ----------------------------------------
 BYTE   PATT
  POIN2 Label_01196590
//  #10 //035   ----------------------------------------
 BYTE   PATT
  POIN2 Label_011965BE
//  #10 //036   ----------------------------------------
 BYTE   PATT
  POIN2 Label_0119657B
//  #10 //037   ----------------------------------------
 BYTE   PATT
  POIN2 Label_01196590
//  #10 //038   ----------------------------------------
 BYTE   PATT
  POIN2 Label_0119657B
//  #10 //039   ----------------------------------------
 BYTE   PATT
  POIN2 Label_01196602
//  #10 //040   ----------------------------------------
 BYTE   PATT
  POIN2 Label_0119657B
//  #10 //041   ----------------------------------------
 BYTE   PATT
  POIN2 Label_01196590
//  #10 //042   ----------------------------------------
 BYTE   PATT
  POIN2 Label_01196590
//  #10 //043   ----------------------------------------
 BYTE   PATT
  POIN2 Label_01196590
//  #10 //044   ----------------------------------------
 BYTE   PATT
  POIN2 Label_01196590
//  #10 //045   ----------------------------------------
 BYTE   PATT
  POIN2 Label_01196590
//  #10 //046   ----------------------------------------
 BYTE   PATT
  POIN2 Label_01196590
//  #10 //047   ----------------------------------------
 BYTE   PATT
  POIN2 Label_011965BE
//  #10 //048   ----------------------------------------
 BYTE   PATT
  POIN2 Label_0119657B
//  #10 //049   ----------------------------------------
 BYTE   PATT
  POIN2 Label_01196590
//  #10 //050   ----------------------------------------
 BYTE   PATT
  POIN2 Label_01196590
//  #10 //051   ----------------------------------------
 BYTE   PATT
  POIN2 Label_011965BE
//  #10 //052   ----------------------------------------
 BYTE   PATT
  POIN2 Label_0119657B
//  #10 //053   ----------------------------------------
 BYTE   PATT
  POIN2 Label_01196590
//  #10 //054   ----------------------------------------
 BYTE   PATT
  POIN2 Label_0119657B
//  #10 //055   ----------------------------------------
 BYTE   PATT
  POIN2 Label_01196602
//  #10 //056   ----------------------------------------
 BYTE   PATT
  POIN2 Label_0119657B
//  #10 //057   ----------------------------------------
 BYTE   PATT
  POIN2 Label_01196590
//  #10 //058   ----------------------------------------
 BYTE   PATT
  POIN2 Label_01196590
//  #10 //059   ----------------------------------------
 BYTE   PATT
  POIN2 Label_01196590
//  #10 //060   ----------------------------------------
 BYTE   PATT
  POIN2 Label_01196590
//  #10 //061   ----------------------------------------
 BYTE   PATT
  POIN2 Label_01196590
//  #10 //062   ----------------------------------------
 BYTE   PATT
  POIN2 Label_01196590
//  #10 //063   ----------------------------------------
 BYTE   PATT
  POIN2 Label_011965BE
//  #10 //064   ----------------------------------------
 BYTE   PATT
  POIN2 Label_0119657B
//  #10 //065   ----------------------------------------
 BYTE   PATT
  POIN2 Label_01196590
//  #10 //066   ----------------------------------------
 BYTE   PATT
  POIN2 Label_01196590
//  #10 //067   ----------------------------------------
 BYTE   PATT
  POIN2 Label_011965BE
//  #10 //068   ----------------------------------------
 BYTE   PATT
  POIN2 Label_0119657B
//  #10 //069   ----------------------------------------
 BYTE   PATT
  POIN2 Label_01196590
//  #10 //070   ----------------------------------------
 BYTE   PATT
  POIN2 Label_0119657B
//  #10 //071   ----------------------------------------
 BYTE   PATT
  POIN2 Label_01196602
//  #10 //072   ----------------------------------------
 BYTE   PATT
  POIN2 Label_0119657B
//  #10 //073   ----------------------------------------
 BYTE   PATT
  POIN2 Label_01196590
//  #10 //074   ----------------------------------------
 BYTE   PATT
  POIN2 Label_01196590
//  #10 //075   ----------------------------------------
 BYTE   PATT
  POIN2 Label_01196590
//  #10 //076   ----------------------------------------
 BYTE   PATT
  POIN2 Label_01196590
//  #10 //077   ----------------------------------------
 BYTE   PATT
  POIN2 Label_01196590
//  #10 //078   ----------------------------------------
 BYTE   PATT
  POIN2 Label_01196590
//  #10 //079   ----------------------------------------
 BYTE   PATT
  POIN2 Label_011965BE
//  #10 //080   ----------------------------------------
 BYTE   PATT
  POIN2 Label_0119657B
//  #10 //081   ----------------------------------------
 BYTE   PATT
  POIN2 Label_01196590
//  #10 //082   ----------------------------------------
 BYTE   PATT
  POIN2 Label_01196590
//  #10 //083   ----------------------------------------
 BYTE   PATT
  POIN2 Label_011965BE
//  #10 //084   ----------------------------------------
 BYTE   PATT
  POIN2 Label_0119657B
//  #10 //085   ----------------------------------------
 BYTE   PATT
  POIN2 Label_01196590
//  #10 //086   ----------------------------------------
 BYTE   PATT
  POIN2 Label_0119657B
//  #10 //087   ----------------------------------------
 BYTE   PATT
  POIN2 Label_01196602
//  #10 //088   ----------------------------------------
 BYTE   GoTo
  POIN2 Label_01196573
 BYTE   FINE

//******************************************************//
	ALIGN 4

SegaCDBIOS:
	BYTE	10	// NumTrks
	BYTE	0	// NumBlks
	BYTE	SegaCDBIOS_pri	// Priority
	BYTE	SegaCDBIOS_rev	// Reverb.
    
	POIN2	SegaCDBIOS_grp
    
	POIN2	SegaCDBIOS_001
	POIN2	SegaCDBIOS_002
	POIN2	SegaCDBIOS_003
	POIN2	SegaCDBIOS_004
	POIN2	SegaCDBIOS_005
	POIN2	SegaCDBIOS_006
	POIN2	SegaCDBIOS_007
	POIN2	SegaCDBIOS_008
	POIN2	SegaCDBIOS_009
	POIN2	SegaCDBIOS_010

	
