//Event file generated from Sappy .s format.
	

	#define	SML2StarCourseLooped_grp  voicegroup000
	#define	SML2StarCourseLooped_pri  10
	#define	SML2StarCourseLooped_rev  0
	#define	SML2StarCourseLooped_mvl  127
	#define	SML2StarCourseLooped_key  0
	#define	SML2StarCourseLooped_tbs  1
	#define	SML2StarCourseLooped_exg  0
	#define	SML2StarCourseLooped_cmp  1

	// .rodata
	//	SML2StarCourseLooped
	ALIGN 4


//**************** Track 1 (Midi-Chn.0) ****************//

SML2StarCourseLooped_001:
//  #01 //000   ----------------------------------------
Label_014B3F88:
 BYTE   TEMPO   126*SML2StarCourseLooped_tbs/2
 BYTE   KEYSH   SML2StarCourseLooped_key+0
 BYTE   VOICE   46
 BYTE   VOL   44*SML2StarCourseLooped_mvl/mxv
 BYTE   W96
//  #01 //001   ----------------------------------------
 BYTE   W96
//  #01 //002   ----------------------------------------
 BYTE   W96
//  #01 //003   ----------------------------------------
 BYTE   W96
//  #01 //004   ----------------------------------------
 BYTE   W96
//  #01 //005   ----------------------------------------
 BYTE   W96
//  #01 //006   ----------------------------------------
 BYTE   W96
//  #01 //007   ----------------------------------------
 BYTE   W48
Label_014B3F98:
 BYTE   N19  Bn3  v110
 BYTE   W24
 BYTE   N18  Bn4
 BYTE   W24
//  #01 //008   ----------------------------------------
 BYTE   N30  Gs4
 BYTE   W36
 BYTE   N84  En4
 BYTE   W96
//  #01 //009   ----------------------------------------
 BYTE   W12
 BYTE   PEND 
Label_014B3FA7:
 BYTE   N13  Cs4  v110
 BYTE   W18
 BYTE   N12  En4
 BYTE   W18
 BYTE   N10  Fs4
 BYTE   W12
 BYTE   N30  Bn3
 BYTE   W36
//  #01 //010   ----------------------------------------
 BYTE   N72  An3
 BYTE   W96
//  #01 //011   ----------------------------------------
 BYTE   W12
 BYTE   PEND 
Label_014B3FB9:
 BYTE   N18  Bn3  v110
 BYTE   W24
 BYTE   N19  Bn4
 BYTE   W24
 BYTE   N30  Gs4
 BYTE   W36
//  #01 //012   ----------------------------------------
 BYTE   N54  En4
 BYTE   W84
 BYTE   PEND 
Label_014B3FC7:
 BYTE   N20  Cs4  v110
 BYTE   W24
//  #01 //013   ----------------------------------------
 BYTE   En4
 BYTE   W24
 BYTE   N21  Fs4
 BYTE   W24
 BYTE   N30  Bn3
 BYTE   W36
 BYTE   PEND 
Label_014B3FD4:
 BYTE   N96  An3  v110
 BYTE   W12
//  #01 //014   ----------------------------------------
 BYTE   N10
 BYTE   W96
//  #01 //015   ----------------------------------------
 BYTE   W96
//  #01 //016   ----------------------------------------
 BYTE   W96
//  #01 //017   ----------------------------------------
 BYTE   W96
//  #01 //018   ----------------------------------------
 BYTE   W96
//  #01 //019   ----------------------------------------
 BYTE   W96
//  #01 //020   ----------------------------------------
 BYTE   W96
//  #01 //021   ----------------------------------------
 BYTE   W96
//  #01 //022   ----------------------------------------
 BYTE   W96
 BYTE   PEND 
//  #01 //023   ----------------------------------------
 BYTE   PATT
  POIN2 Label_014B3F98
//  #01 //024   ----------------------------------------
 BYTE   PATT
  POIN2 Label_014B3FA7
//  #01 //025   ----------------------------------------
 BYTE   PATT
  POIN2 Label_014B3FB9
//  #01 //026   ----------------------------------------
 BYTE   PATT
  POIN2 Label_014B3FC7
//  #01 //027   ----------------------------------------
 BYTE   PATT
  POIN2 Label_014B3FD4
//  #01 //028   ----------------------------------------
 BYTE   PATT
  POIN2 Label_014B3F98
//  #01 //029   ----------------------------------------
 BYTE   PATT
  POIN2 Label_014B3FA7
//  #01 //030   ----------------------------------------
 BYTE   PATT
  POIN2 Label_014B3FB9
//  #01 //031   ----------------------------------------
 BYTE   PATT
  POIN2 Label_014B3FC7
//  #01 //032   ----------------------------------------
 BYTE   N96  An3  v110
 BYTE   W12
 BYTE   N10
 BYTE   W96
//  #01 //033   ----------------------------------------
 BYTE   W48
 BYTE   PAN   c_v+0
 BYTE   W96
//  #01 //034   ----------------------------------------
 BYTE   W96
//  #01 //035   ----------------------------------------
 BYTE   W96
//  #01 //036   ----------------------------------------
 BYTE   W96
//  #01 //037   ----------------------------------------
 BYTE   W96
//  #01 //038   ----------------------------------------
 BYTE   W96
//  #01 //039   ----------------------------------------
 BYTE   W96
//  #01 //040   ----------------------------------------
 BYTE   W48
 BYTE   N19  Bn3  v110
 BYTE   W24
 BYTE   N18  Bn4
 BYTE   W24
//  #01 //041   ----------------------------------------
 BYTE   N30  Gs4
 BYTE   W36
 BYTE   N84  En4
 BYTE   W96
//  #01 //042   ----------------------------------------
 BYTE   W12
 BYTE   N13  Cs4
 BYTE   W18
 BYTE   N12  En4
 BYTE   W18
 BYTE   N10  Fs4
 BYTE   W12
 BYTE   N30  Bn3
 BYTE   W36
//  #01 //043   ----------------------------------------
 BYTE   N72  An3
 BYTE   W96
//  #01 //044   ----------------------------------------
 BYTE   W12
 BYTE   N18  Bn3
 BYTE   W24
 BYTE   N19  Bn4
 BYTE   W24
 BYTE   N30  Gs4
 BYTE   W36
//  #01 //045   ----------------------------------------
 BYTE   N54  En4
 BYTE   W84
 BYTE   N20  Cs4
 BYTE   W24
//  #01 //046   ----------------------------------------
 BYTE   En4
 BYTE   W24
 BYTE   N21  Fs4
 BYTE   W24
 BYTE   N30  Bn3
 BYTE   W36
 BYTE   N96  An3
 BYTE   W12
//  #01 //047   ----------------------------------------
 BYTE   N10
 BYTE   W96
//  #01 //048   ----------------------------------------
 BYTE   W96
//  #01 //049   ----------------------------------------
 BYTE   W96
//  #01 //050   ----------------------------------------
 BYTE   W96
//  #01 //051   ----------------------------------------
 BYTE   W96
//  #01 //052   ----------------------------------------
 BYTE   W96
//  #01 //053   ----------------------------------------
 BYTE   W96
//  #01 //054   ----------------------------------------
 BYTE   W96
//  #01 //055   ----------------------------------------
 BYTE   W96
//  #01 //056   ----------------------------------------
 BYTE   N19  Bn3
 BYTE   W24
 BYTE   N18  Bn4
 BYTE   W24
 BYTE   N30  Gs4
 BYTE   W36
 BYTE   N84  En4
 BYTE   W96
//  #01 //057   ----------------------------------------
 BYTE   W12
 BYTE   N13  Cs4
 BYTE   W18
 BYTE   N12  En4
 BYTE   W18
 BYTE   N10  Fs4
 BYTE   W12
 BYTE   N30  Bn3
 BYTE   W36
//  #01 //058   ----------------------------------------
 BYTE   N72  An3
 BYTE   W96
//  #01 //059   ----------------------------------------
 BYTE   W12
 BYTE   N18  Bn3
 BYTE   W24
 BYTE   N19  Bn4
 BYTE   W24
 BYTE   N30  Gs4
 BYTE   W36
//  #01 //060   ----------------------------------------
 BYTE   N54  En4
 BYTE   W84
 BYTE   N20  Cs4
 BYTE   W24
//  #01 //061   ----------------------------------------
 BYTE   En4
 BYTE   W24
 BYTE   N21  Fs4
 BYTE   W24
 BYTE   N30  Bn3
 BYTE   W36
 BYTE   N96  An3
 BYTE   W12
//  #01 //062   ----------------------------------------
 BYTE   N10
 BYTE   W96
//  #01 //063   ----------------------------------------
 BYTE   W96
//  #01 //064   ----------------------------------------
 BYTE   W96
//  #01 //065   ----------------------------------------
 BYTE   W96
//  #01 //066   ----------------------------------------
 BYTE   W96
//  #01 //067   ----------------------------------------
 BYTE   W96
//  #01 //068   ----------------------------------------
 BYTE   W96
//  #01 //069   ----------------------------------------
 BYTE   W96
//  #01 //070   ----------------------------------------
 BYTE   W96
//  #01 //071   ----------------------------------------
 BYTE   N19  Bn3
 BYTE   W24
 BYTE   N18  Bn4
 BYTE   W24
 BYTE   N30  Gs4
 BYTE   W36
 BYTE   N84  En4
 BYTE   W96
//  #01 //072   ----------------------------------------
 BYTE   W12
 BYTE   N13  Cs4
 BYTE   W18
 BYTE   N12  En4
 BYTE   W18
 BYTE   N10  Fs4
 BYTE   W12
 BYTE   N30  Bn3
 BYTE   W36
//  #01 //073   ----------------------------------------
 BYTE   N72  An3
 BYTE   W96
//  #01 //074   ----------------------------------------
 BYTE   W12
 BYTE   N18  Bn3
 BYTE   W24
 BYTE   N19  Bn4
 BYTE   W24
 BYTE   N30  Gs4
 BYTE   W36
//  #01 //075   ----------------------------------------
 BYTE   N54  En4
 BYTE   W84
 BYTE   N20  Cs4
 BYTE   W24
//  #01 //076   ----------------------------------------
 BYTE   En4
 BYTE   W24
 BYTE   N21  Fs4
 BYTE   W24
 BYTE   N30  Bn3
 BYTE   W36
 BYTE   N96  An3
 BYTE   W12
//  #01 //077   ----------------------------------------
 BYTE   N10
 BYTE   W96
//  #01 //078   ----------------------------------------
 BYTE   W44
 BYTE   W02
 BYTE   GoTo
  POIN2 Label_014B3F88
 BYTE   FINE

//**************** Track 2 (Midi-Chn.1) ****************//

SML2StarCourseLooped_002:
//  #02 //000   ----------------------------------------
Label_014D12E4:
 BYTE   TEMPO   126*SML2StarCourseLooped_tbs/2
 BYTE   KEYSH   SML2StarCourseLooped_key+0
 BYTE   VOICE   36
 BYTE   VOL   44*SML2StarCourseLooped_mvl/mxv
 BYTE   N09  An1  v110
 BYTE   W18
 BYTE   N10  Fs1
 BYTE   W18
 BYTE   En1
 BYTE   W24
 BYTE   N06  Fs1
 BYTE   W12
 BYTE   N07  An1
 BYTE   W12
 BYTE   N09  Bn1
 BYTE   W12
//  #02 //001   ----------------------------------------
Label_014D12FE:
 BYTE   N09  An1  v110
 BYTE   W18
 BYTE   N10  Fs1
 BYTE   W18
 BYTE   En1
 BYTE   W24
 BYTE   N06  Fs1
 BYTE   W12
 BYTE   N07  An1
 BYTE   W12
 BYTE   N09  Fs1
 BYTE   W12
 BYTE   PEND 
//  #02 //002   ----------------------------------------
Label_014D1311:
 BYTE   N09  En1  v110
 BYTE   W18
 BYTE   Cs1
 BYTE   W18
 BYTE   N10  Bn0
 BYTE   W24
 BYTE   N06  Cs1
 BYTE   W12
 BYTE   En1
 BYTE   W12
 BYTE   Fs1
 BYTE   W12
 BYTE   PEND 
//  #02 //003   ----------------------------------------
 BYTE   PATT
  POIN2 Label_014D1311
//  #02 //004   ----------------------------------------
Label_014D1327:
 BYTE   N09  An1  v110
 BYTE   W18
 BYTE   N10  Fs1
 BYTE   W18
 BYTE   En1
 BYTE   W24
 BYTE   N06  Fs1
 BYTE   W12
 BYTE   N07  An1
 BYTE   W12
 BYTE   N09  Bn1
 BYTE   W12
 BYTE   PEND 
//  #02 //005   ----------------------------------------
 BYTE   PATT
  POIN2 Label_014D12FE
//  #02 //006   ----------------------------------------
 BYTE   PATT
  POIN2 Label_014D1311
//  #02 //007   ----------------------------------------
 BYTE   PATT
  POIN2 Label_014D1311
//  #02 //008   ----------------------------------------
 BYTE   PATT
  POIN2 Label_014D1327
//  #02 //009   ----------------------------------------
 BYTE   PATT
  POIN2 Label_014D12FE
//  #02 //010   ----------------------------------------
 BYTE   PATT
  POIN2 Label_014D1311
//  #02 //011   ----------------------------------------
 BYTE   PATT
  POIN2 Label_014D1311
//  #02 //012   ----------------------------------------
 BYTE   PATT
  POIN2 Label_014D1327
//  #02 //013   ----------------------------------------
 BYTE   PATT
  POIN2 Label_014D12FE
//  #02 //014   ----------------------------------------
 BYTE   PATT
  POIN2 Label_014D1311
//  #02 //015   ----------------------------------------
 BYTE   PATT
  POIN2 Label_014D1311
//  #02 //016   ----------------------------------------
 BYTE   PATT
  POIN2 Label_014D1327
//  #02 //017   ----------------------------------------
 BYTE   PATT
  POIN2 Label_014D12FE
//  #02 //018   ----------------------------------------
 BYTE   PATT
  POIN2 Label_014D1311
//  #02 //019   ----------------------------------------
 BYTE   N09  En1  v110
 BYTE   W18
 BYTE   Cs1
 BYTE   W18
 BYTE   N10  Bn0
 BYTE   W24
 BYTE   N06  Cs1
 BYTE   W12
 BYTE   En1
 BYTE   W12
 BYTE   Fs1
 BYTE   W96
//  #02 //020   ----------------------------------------
 BYTE   W96
//  #02 //021   ----------------------------------------
 BYTE   W96
//  #02 //022   ----------------------------------------
 BYTE   W54
 BYTE   N03  En1
 BYTE   W06
 BYTE   N06
 BYTE   W12
 BYTE   Fs1
 BYTE   W12
 BYTE   An1
 BYTE   W12
//  #02 //023   ----------------------------------------
 BYTE   Bn1
 BYTE   W12
 BYTE   N09  An1
 BYTE   W18
 BYTE   N10  Fs1
 BYTE   W18
 BYTE   En1
 BYTE   W24
Label_014D13A6:
 BYTE   N06  Fs1  v110
 BYTE   W12
 BYTE   N07  An1
 BYTE   W12
//  #02 //024   ----------------------------------------
 BYTE   N09  Bn1
 BYTE   W12
 BYTE   An1
 BYTE   W18
 BYTE   N10  Fs1
 BYTE   W18
 BYTE   En1
 BYTE   W24
 BYTE   PEND 
Label_014D13B8:
 BYTE   N06  Fs1  v110
 BYTE   W12
 BYTE   N07  An1
 BYTE   W12
//  #02 //025   ----------------------------------------
 BYTE   N09  Fs1
 BYTE   W12
 BYTE   En1
 BYTE   W18
 BYTE   Cs1
 BYTE   W18
 BYTE   N10  Bn0
 BYTE   W24
 BYTE   PEND 
Label_014D13CA:
 BYTE   N06  Cs1  v110
 BYTE   W12
 BYTE   En1
 BYTE   W12
//  #02 //026   ----------------------------------------
 BYTE   Fs1
 BYTE   W12
 BYTE   N09  En1
 BYTE   W18
 BYTE   Cs1
 BYTE   W18
 BYTE   N10  Bn0
 BYTE   W24
 BYTE   PEND 
Label_014D13DB:
 BYTE   N06  Cs1  v110
 BYTE   W12
 BYTE   En1
 BYTE   W12
//  #02 //027   ----------------------------------------
 BYTE   Fs1
 BYTE   W12
 BYTE   N09  An1
 BYTE   W18
 BYTE   N10  Fs1
 BYTE   W18
 BYTE   En1
 BYTE   W24
 BYTE   PEND 
//  #02 //028   ----------------------------------------
 BYTE   PATT
  POIN2 Label_014D13A6
//  #02 //029   ----------------------------------------
 BYTE   PATT
  POIN2 Label_014D13B8
//  #02 //030   ----------------------------------------
 BYTE   PATT
  POIN2 Label_014D13CA
//  #02 //031   ----------------------------------------
 BYTE   PATT
  POIN2 Label_014D13DB
//  #02 //032   ----------------------------------------
 BYTE   PATT
  POIN2 Label_014D13A6
//  #02 //033   ----------------------------------------
 BYTE   PATT
  POIN2 Label_014D13B8
//  #02 //034   ----------------------------------------
 BYTE   PATT
  POIN2 Label_014D13CA
//  #02 //035   ----------------------------------------
 BYTE   PATT
  POIN2 Label_014D13DB
//  #02 //036   ----------------------------------------
 BYTE   PATT
  POIN2 Label_014D13A6
//  #02 //037   ----------------------------------------
 BYTE   PATT
  POIN2 Label_014D13B8
//  #02 //038   ----------------------------------------
 BYTE   PATT
  POIN2 Label_014D13CA
//  #02 //039   ----------------------------------------
 BYTE   PATT
  POIN2 Label_014D13DB
//  #02 //040   ----------------------------------------
 BYTE   PATT
  POIN2 Label_014D13A6
//  #02 //041   ----------------------------------------
 BYTE   PATT
  POIN2 Label_014D13B8
//  #02 //042   ----------------------------------------
 BYTE   PATT
  POIN2 Label_014D13CA
//  #02 //043   ----------------------------------------
 BYTE   N06  Cs1  v110
 BYTE   W12
 BYTE   En1
 BYTE   W12
 BYTE   Fs1
 BYTE   W96
//  #02 //044   ----------------------------------------
 BYTE   W96
//  #02 //045   ----------------------------------------
 BYTE   W96
//  #02 //046   ----------------------------------------
 BYTE   W54
 BYTE   N03  En1
 BYTE   W06
 BYTE   N06
 BYTE   W12
 BYTE   Fs1
 BYTE   W12
 BYTE   An1
 BYTE   W12
//  #02 //047   ----------------------------------------
 BYTE   Bn1
 BYTE   W12
 BYTE   PAN   c_v+0
 BYTE   N09  An1  v110
 BYTE   W18
 BYTE   N10  Fs1
 BYTE   W18
 BYTE   En1
 BYTE   W24
 BYTE   N06  Fs1
 BYTE   W12
 BYTE   N07  An1
 BYTE   W12
//  #02 //048   ----------------------------------------
 BYTE   N09  Bn1
 BYTE   W12
 BYTE   An1
 BYTE   W18
 BYTE   N10  Fs1
 BYTE   W18
 BYTE   En1
 BYTE   W24
 BYTE   N06  Fs1
 BYTE   W12
 BYTE   N07  An1
 BYTE   W12
//  #02 //049   ----------------------------------------
 BYTE   N09  Fs1
 BYTE   W12
 BYTE   En1
 BYTE   W18
 BYTE   Cs1
 BYTE   W18
 BYTE   N10  Bn0
 BYTE   W24
 BYTE   N06  Cs1
 BYTE   W12
 BYTE   En1
 BYTE   W12
//  #02 //050   ----------------------------------------
 BYTE   Fs1
 BYTE   W12
 BYTE   N09  En1
 BYTE   W18
 BYTE   Cs1
 BYTE   W18
 BYTE   N10  Bn0
 BYTE   W24
 BYTE   N06  Cs1
 BYTE   W12
 BYTE   En1
 BYTE   W12
//  #02 //051   ----------------------------------------
 BYTE   Fs1
 BYTE   W12
 BYTE   N09  An1
 BYTE   W18
 BYTE   N10  Fs1
 BYTE   W18
 BYTE   En1
 BYTE   W24
 BYTE   N06  Fs1
 BYTE   W12
 BYTE   N07  An1
 BYTE   W12
//  #02 //052   ----------------------------------------
 BYTE   N09  Bn1
 BYTE   W12
 BYTE   An1
 BYTE   W18
 BYTE   N10  Fs1
 BYTE   W18
 BYTE   En1
 BYTE   W24
 BYTE   N06  Fs1
 BYTE   W12
 BYTE   N07  An1
 BYTE   W12
//  #02 //053   ----------------------------------------
 BYTE   N09  Fs1
 BYTE   W12
 BYTE   En1
 BYTE   W18
 BYTE   Cs1
 BYTE   W18
 BYTE   N10  Bn0
 BYTE   W24
 BYTE   N06  Cs1
 BYTE   W12
 BYTE   En1
 BYTE   W12
//  #02 //054   ----------------------------------------
 BYTE   Fs1
 BYTE   W12
 BYTE   N09  En1
 BYTE   W18
 BYTE   Cs1
 BYTE   W18
 BYTE   N10  Bn0
 BYTE   W24
 BYTE   N06  Cs1
 BYTE   W12
 BYTE   En1
 BYTE   W12
//  #02 //055   ----------------------------------------
 BYTE   Fs1
 BYTE   W12
 BYTE   N09  An1
 BYTE   W18
 BYTE   N10  Fs1
 BYTE   W18
 BYTE   En1
 BYTE   W24
 BYTE   N06  Fs1
 BYTE   W12
 BYTE   N07  An1
 BYTE   W12
//  #02 //056   ----------------------------------------
 BYTE   N09  Bn1
 BYTE   W12
 BYTE   An1
 BYTE   W18
 BYTE   N10  Fs1
 BYTE   W18
 BYTE   En1
 BYTE   W24
 BYTE   N06  Fs1
 BYTE   W12
 BYTE   N07  An1
 BYTE   W12
//  #02 //057   ----------------------------------------
 BYTE   N09  Fs1
 BYTE   W12
 BYTE   En1
 BYTE   W18
 BYTE   Cs1
 BYTE   W18
 BYTE   N10  Bn0
 BYTE   W24
 BYTE   N06  Cs1
 BYTE   W12
 BYTE   En1
 BYTE   W12
//  #02 //058   ----------------------------------------
 BYTE   Fs1
 BYTE   W12
 BYTE   N09  En1
 BYTE   W18
 BYTE   Cs1
 BYTE   W18
 BYTE   N10  Bn0
 BYTE   W24
 BYTE   N06  Cs1
 BYTE   W12
 BYTE   En1
 BYTE   W12
//  #02 //059   ----------------------------------------
 BYTE   Fs1
 BYTE   W12
 BYTE   N09  An1
 BYTE   W18
 BYTE   N10  Fs1
 BYTE   W18
 BYTE   En1
 BYTE   W24
 BYTE   N06  Fs1
 BYTE   W12
 BYTE   N07  An1
 BYTE   W12
//  #02 //060   ----------------------------------------
 BYTE   N09  Bn1
 BYTE   W12
 BYTE   An1
 BYTE   W18
 BYTE   N10  Fs1
 BYTE   W18
 BYTE   En1
 BYTE   W24
 BYTE   N06  Fs1
 BYTE   W12
 BYTE   N07  An1
 BYTE   W12
//  #02 //061   ----------------------------------------
 BYTE   N09  Fs1
 BYTE   W12
 BYTE   En1
 BYTE   W18
 BYTE   Cs1
 BYTE   W18
 BYTE   N10  Bn0
 BYTE   W24
 BYTE   N06  Cs1
 BYTE   W12
 BYTE   En1
 BYTE   W12
//  #02 //062   ----------------------------------------
 BYTE   Fs1
 BYTE   W12
 BYTE   N09  En1
 BYTE   W18
 BYTE   Cs1
 BYTE   W18
 BYTE   N10  Bn0
 BYTE   W24
 BYTE   N06  Cs1
 BYTE   W12
 BYTE   En1
 BYTE   W12
//  #02 //063   ----------------------------------------
 BYTE   Fs1
 BYTE   W12
 BYTE   N09  An1
 BYTE   W18
 BYTE   N10  Fs1
 BYTE   W18
 BYTE   En1
 BYTE   W24
 BYTE   N06  Fs1
 BYTE   W12
 BYTE   N07  An1
 BYTE   W12
//  #02 //064   ----------------------------------------
 BYTE   N09  Bn1
 BYTE   W12
 BYTE   An1
 BYTE   W18
 BYTE   N10  Fs1
 BYTE   W18
 BYTE   En1
 BYTE   W24
 BYTE   N06  Fs1
 BYTE   W12
 BYTE   N07  An1
 BYTE   W12
//  #02 //065   ----------------------------------------
 BYTE   N09  Fs1
 BYTE   W12
 BYTE   En1
 BYTE   W18
 BYTE   Cs1
 BYTE   W18
 BYTE   N10  Bn0
 BYTE   W24
 BYTE   N06  Cs1
 BYTE   W12
 BYTE   En1
 BYTE   W12
//  #02 //066   ----------------------------------------
 BYTE   Fs1
 BYTE   W12
 BYTE   N09  En1
 BYTE   W18
 BYTE   Cs1
 BYTE   W18
 BYTE   N10  Bn0
 BYTE   W24
 BYTE   N06  Cs1
 BYTE   W12
 BYTE   En1
 BYTE   W12
//  #02 //067   ----------------------------------------
 BYTE   Fs1
 BYTE   W96
//  #02 //068   ----------------------------------------
 BYTE   W96
//  #02 //069   ----------------------------------------
 BYTE   W96
//  #02 //070   ----------------------------------------
 BYTE   W54
 BYTE   N03  En1
 BYTE   W06
 BYTE   N06
 BYTE   W12
 BYTE   Fs1
 BYTE   W12
 BYTE   An1
 BYTE   W12
//  #02 //071   ----------------------------------------
 BYTE   Bn1
 BYTE   W12
 BYTE   N09  An1
 BYTE   W18
 BYTE   N10  Fs1
 BYTE   W18
 BYTE   En1
 BYTE   W24
 BYTE   N06  Fs1
 BYTE   W12
 BYTE   N07  An1
 BYTE   W12
//  #02 //072   ----------------------------------------
 BYTE   N09  Bn1
 BYTE   W12
 BYTE   An1
 BYTE   W18
 BYTE   N10  Fs1
 BYTE   W18
 BYTE   En1
 BYTE   W24
 BYTE   N06  Fs1
 BYTE   W12
 BYTE   N07  An1
 BYTE   W12
//  #02 //073   ----------------------------------------
 BYTE   N09  Fs1
 BYTE   W12
 BYTE   En1
 BYTE   W18
 BYTE   Cs1
 BYTE   W18
 BYTE   N10  Bn0
 BYTE   W24
 BYTE   N06  Cs1
 BYTE   W12
 BYTE   En1
 BYTE   W12
//  #02 //074   ----------------------------------------
 BYTE   Fs1
 BYTE   W12
 BYTE   N09  En1
 BYTE   W18
 BYTE   Cs1
 BYTE   W18
 BYTE   N10  Bn0
 BYTE   W24
 BYTE   N06  Cs1
 BYTE   W12
 BYTE   En1
 BYTE   W12
//  #02 //075   ----------------------------------------
 BYTE   Fs1
 BYTE   W12
 BYTE   N09  An1
 BYTE   W18
 BYTE   N10  Fs1
 BYTE   W18
 BYTE   En1
 BYTE   W24
 BYTE   N06  Fs1
 BYTE   W12
 BYTE   N07  An1
 BYTE   W12
//  #02 //076   ----------------------------------------
 BYTE   N09  Bn1
 BYTE   W12
 BYTE   An1
 BYTE   W18
 BYTE   N10  Fs1
 BYTE   W18
 BYTE   En1
 BYTE   W24
 BYTE   N06  Fs1
 BYTE   W12
 BYTE   N07  An1
 BYTE   W12
//  #02 //077   ----------------------------------------
 BYTE   N09  Fs1
 BYTE   W12
 BYTE   En1
 BYTE   W18
 BYTE   Cs1
 BYTE   W18
 BYTE   N10  Bn0
 BYTE   W24
 BYTE   N06  Cs1
 BYTE   W12
 BYTE   En1
 BYTE   W12
//  #02 //078   ----------------------------------------
 BYTE   Fs1
 BYTE   W12
 BYTE   N09  En1
 BYTE   W18
 BYTE   Cs1
 BYTE   W18
 BYTE   N10  Bn0
 BYTE   W24
 BYTE   N06  Cs1
 BYTE   W12
 BYTE   En1
 BYTE   W12
//  #02 //079   ----------------------------------------
 BYTE   Fs1
 BYTE   W12
 BYTE   N09  An1
 BYTE   W18
 BYTE   N10  Fs1
 BYTE   W18
 BYTE   En1
 BYTE   W24
 BYTE   N06  Fs1
 BYTE   W12
 BYTE   N07  An1
 BYTE   W12
//  #02 //080   ----------------------------------------
 BYTE   N09  Bn1
 BYTE   W12
 BYTE   An1
 BYTE   W18
 BYTE   N10  Fs1
 BYTE   W18
 BYTE   En1
 BYTE   W24
 BYTE   N06  Fs1
 BYTE   W12
 BYTE   N07  An1
 BYTE   W12
//  #02 //081   ----------------------------------------
 BYTE   N09  Fs1
 BYTE   W12
 BYTE   En1
 BYTE   W18
 BYTE   Cs1
 BYTE   W18
 BYTE   N10  Bn0
 BYTE   W24
 BYTE   N06  Cs1
 BYTE   W12
 BYTE   En1
 BYTE   W12
//  #02 //082   ----------------------------------------
 BYTE   Fs1
 BYTE   W12
 BYTE   N09  En1
 BYTE   W18
 BYTE   Cs1
 BYTE   W18
 BYTE   N10  Bn0
 BYTE   W24
 BYTE   N06  Cs1
 BYTE   W12
 BYTE   En1
 BYTE   W12
//  #02 //083   ----------------------------------------
 BYTE   Fs1
 BYTE   W12
 BYTE   N09  An1
 BYTE   W18
 BYTE   N10  Fs1
 BYTE   W18
 BYTE   En1
 BYTE   W24
 BYTE   N06  Fs1
 BYTE   W12
 BYTE   N07  An1
 BYTE   W12
//  #02 //084   ----------------------------------------
 BYTE   N09  Bn1
 BYTE   W12
 BYTE   An1
 BYTE   W18
 BYTE   N10  Fs1
 BYTE   W18
 BYTE   En1
 BYTE   W24
 BYTE   N06  Fs1
 BYTE   W12
 BYTE   N07  An1
 BYTE   W12
//  #02 //085   ----------------------------------------
 BYTE   N09  Fs1
 BYTE   W12
 BYTE   En1
 BYTE   W18
 BYTE   Cs1
 BYTE   W18
 BYTE   N10  Bn0
 BYTE   W24
 BYTE   N06  Cs1
 BYTE   W12
 BYTE   En1
 BYTE   W12
//  #02 //086   ----------------------------------------
 BYTE   Fs1
 BYTE   W12
 BYTE   N09  En1
 BYTE   W18
 BYTE   Cs1
 BYTE   W18
 BYTE   N10  Bn0
 BYTE   W24
 BYTE   N06  Cs1
 BYTE   W12
 BYTE   En1
 BYTE   W12
//  #02 //087   ----------------------------------------
 BYTE   Fs1
 BYTE   W12
 BYTE   N09  An1
 BYTE   W18
 BYTE   N10  Fs1
 BYTE   W18
 BYTE   En1
 BYTE   W24
 BYTE   N06  Fs1
 BYTE   W12
 BYTE   N07  An1
 BYTE   W12
//  #02 //088   ----------------------------------------
 BYTE   N09  Bn1
 BYTE   W12
 BYTE   An1
 BYTE   W18
 BYTE   N10  Fs1
 BYTE   W18
 BYTE   En1
 BYTE   W24
 BYTE   N06  Fs1
 BYTE   W12
 BYTE   N07  An1
 BYTE   W12
//  #02 //089   ----------------------------------------
 BYTE   N09  Fs1
 BYTE   W12
 BYTE   En1
 BYTE   W18
 BYTE   Cs1
 BYTE   W18
 BYTE   N10  Bn0
 BYTE   W24
 BYTE   N06  Cs1
 BYTE   W12
 BYTE   En1
 BYTE   W12
//  #02 //090   ----------------------------------------
 BYTE   Fs1
 BYTE   W12
 BYTE   N09  En1
 BYTE   W18
 BYTE   Cs1
 BYTE   W18
 BYTE   N10  Bn0
 BYTE   W24
 BYTE   N06  Cs1
 BYTE   W12
 BYTE   En1
 BYTE   W12
//  #02 //091   ----------------------------------------
 BYTE   Fs1
 BYTE   W96
//  #02 //092   ----------------------------------------
 BYTE   W96
//  #02 //093   ----------------------------------------
 BYTE   W96
//  #02 //094   ----------------------------------------
 BYTE   W54
 BYTE   N03  En1
 BYTE   W06
 BYTE   N06
 BYTE   W12
 BYTE   Fs1
 BYTE   W12
 BYTE   An1
 BYTE   W12
//  #02 //095   ----------------------------------------
 BYTE   Bn1
 BYTE   W10
 BYTE   GoTo
  POIN2 Label_014D12E4
 BYTE   FINE

//**************** Track 3 (Midi-Chn.2) ****************//

SML2StarCourseLooped_003:
//  #03 //000   ----------------------------------------
Label_014B4638:
 BYTE   TEMPO   126*SML2StarCourseLooped_tbs/2
 BYTE   KEYSH   SML2StarCourseLooped_key+0
 BYTE   VOICE   73
 BYTE   VOL   30*SML2StarCourseLooped_mvl/mxv
 BYTE   PAN   c_v+0
 BYTE   N05  Gs5  v110
 BYTE   W12
 BYTE   Fs5
 BYTE   W12
 BYTE   En5
 BYTE   W12
 BYTE   N04  Fs5
 BYTE   W06
 BYTE   N07  Gs5
 BYTE   W18
 BYTE   N05  Fs5
 BYTE   W12
 BYTE   En5
 BYTE   W12
 BYTE   Fs5
 BYTE   W12
//  #03 //001   ----------------------------------------
Label_014B4657:
 BYTE   N05  Gs5  v110
 BYTE   W12
 BYTE   Fs5
 BYTE   W12
 BYTE   En5
 BYTE   W12
 BYTE   N04  Fs5
 BYTE   W06
 BYTE   N07  Gs5
 BYTE   W18
 BYTE   N05  Fs5
 BYTE   W12
 BYTE   En5
 BYTE   W12
 BYTE   Fs5
 BYTE   W12
 BYTE   PEND 
//  #03 //002   ----------------------------------------
Label_014B466D:
 BYTE   N05  An5  v110
 BYTE   W12
 BYTE   Fs5
 BYTE   W12
 BYTE   En5
 BYTE   W12
 BYTE   N04  Fs5
 BYTE   W06
 BYTE   N05  An5
 BYTE   W18
 BYTE   Fs5
 BYTE   W12
 BYTE   En5
 BYTE   W12
 BYTE   Fs5
 BYTE   W12
 BYTE   PEND 
//  #03 //003   ----------------------------------------
Label_014B4682:
 BYTE   N05  An5  v110
 BYTE   W12
 BYTE   Fs5
 BYTE   W12
 BYTE   En5
 BYTE   W12
 BYTE   N04  Fs5
 BYTE   W06
 BYTE   N07  An5
 BYTE   W18
 BYTE   N05  Fs5
 BYTE   W12
 BYTE   En5
 BYTE   W12
 BYTE   Fs5
 BYTE   W12
 BYTE   PEND 
//  #03 //004   ----------------------------------------
 BYTE   PATT
  POIN2 Label_014B4657
//  #03 //005   ----------------------------------------
 BYTE   PATT
  POIN2 Label_014B4657
//  #03 //006   ----------------------------------------
 BYTE   PATT
  POIN2 Label_014B466D
//  #03 //007   ----------------------------------------
Label_014B46A7:
 BYTE   N04  En4  v110
 BYTE   W06
 BYTE   En4
 BYTE   W06
 BYTE   En5
 BYTE   W06
 BYTE   En5
 BYTE   W06
 BYTE   En6
 BYTE   W06
 BYTE   En6
 BYTE   W96
//  #03 //008   ----------------------------------------
 BYTE   W96
//  #03 //009   ----------------------------------------
 BYTE   W96
//  #03 //010   ----------------------------------------
 BYTE   W96
//  #03 //011   ----------------------------------------
 BYTE   W96
//  #03 //012   ----------------------------------------
 BYTE   W96
//  #03 //013   ----------------------------------------
 BYTE   W96
//  #03 //014   ----------------------------------------
 BYTE   W96
//  #03 //015   ----------------------------------------
 BYTE   W66
 BYTE   PEND 
//  #03 //016   ----------------------------------------
 BYTE   PATT
  POIN2 Label_014B4657
//  #03 //017   ----------------------------------------
 BYTE   PATT
  POIN2 Label_014B4657
//  #03 //018   ----------------------------------------
 BYTE   PATT
  POIN2 Label_014B466D
//  #03 //019   ----------------------------------------
 BYTE   PATT
  POIN2 Label_014B4682
//  #03 //020   ----------------------------------------
 BYTE   PATT
  POIN2 Label_014B4657
//  #03 //021   ----------------------------------------
 BYTE   PATT
  POIN2 Label_014B4657
//  #03 //022   ----------------------------------------
 BYTE   PATT
  POIN2 Label_014B466D
//  #03 //023   ----------------------------------------
 BYTE   PATT
  POIN2 Label_014B46A7
//  #03 //024   ----------------------------------------
 BYTE   PATT
  POIN2 Label_014B4657
//  #03 //025   ----------------------------------------
 BYTE   PATT
  POIN2 Label_014B4657
//  #03 //026   ----------------------------------------
 BYTE   PATT
  POIN2 Label_014B466D
//  #03 //027   ----------------------------------------
 BYTE   PATT
  POIN2 Label_014B4682
//  #03 //028   ----------------------------------------
 BYTE   PATT
  POIN2 Label_014B4657
//  #03 //029   ----------------------------------------
 BYTE   PATT
  POIN2 Label_014B4657
//  #03 //030   ----------------------------------------
 BYTE   PATT
  POIN2 Label_014B466D
//  #03 //031   ----------------------------------------
 BYTE   N04  En4  v110
 BYTE   W06
 BYTE   En4
 BYTE   W06
 BYTE   En5
 BYTE   W06
 BYTE   En5
 BYTE   W06
 BYTE   En6
 BYTE   W06
 BYTE   En6
 BYTE   W96
//  #03 //032   ----------------------------------------
 BYTE   W96
//  #03 //033   ----------------------------------------
 BYTE   W96
//  #03 //034   ----------------------------------------
 BYTE   W96
//  #03 //035   ----------------------------------------
 BYTE   W96
//  #03 //036   ----------------------------------------
 BYTE   W96
//  #03 //037   ----------------------------------------
 BYTE   W96
//  #03 //038   ----------------------------------------
 BYTE   W96
//  #03 //039   ----------------------------------------
 BYTE   W66
 BYTE   N05  Gs5  v110
 BYTE   W12
 BYTE   Fs5
 BYTE   W12
 BYTE   En5
 BYTE   W12
//  #03 //040   ----------------------------------------
 BYTE   N04  Fs5
 BYTE   W06
 BYTE   N07  Gs5
 BYTE   W18
 BYTE   N05  Fs5
 BYTE   W12
 BYTE   En5
 BYTE   W12
 BYTE   Fs5
 BYTE   W12
 BYTE   Gs5
 BYTE   W12
 BYTE   Fs5
 BYTE   W12
 BYTE   En5
 BYTE   W12
//  #03 //041   ----------------------------------------
 BYTE   N04  Fs5
 BYTE   W06
 BYTE   N07  Gs5
 BYTE   W18
 BYTE   N05  Fs5
 BYTE   W12
 BYTE   En5
 BYTE   W12
 BYTE   Fs5
 BYTE   W12
 BYTE   An5
 BYTE   W12
 BYTE   Fs5
 BYTE   W12
 BYTE   En5
 BYTE   W12
//  #03 //042   ----------------------------------------
 BYTE   N04  Fs5
 BYTE   W06
 BYTE   N05  An5
 BYTE   W18
 BYTE   Fs5
 BYTE   W12
 BYTE   En5
 BYTE   W12
 BYTE   Fs5
 BYTE   W12
 BYTE   An5
 BYTE   W12
 BYTE   Fs5
 BYTE   W12
 BYTE   En5
 BYTE   W12
//  #03 //043   ----------------------------------------
 BYTE   N04  Fs5
 BYTE   W06
 BYTE   N07  An5
 BYTE   W18
 BYTE   N05  Fs5
 BYTE   W12
 BYTE   En5
 BYTE   W12
 BYTE   Fs5
 BYTE   W12
 BYTE   Gs5
 BYTE   W12
 BYTE   Fs5
 BYTE   W12
 BYTE   En5
 BYTE   W12
//  #03 //044   ----------------------------------------
 BYTE   N04  Fs5
 BYTE   W06
 BYTE   N07  Gs5
 BYTE   W18
 BYTE   N05  Fs5
 BYTE   W12
 BYTE   En5
 BYTE   W12
 BYTE   Fs5
 BYTE   W12
 BYTE   Gs5
 BYTE   W12
 BYTE   Fs5
 BYTE   W12
 BYTE   En5
 BYTE   W12
//  #03 //045   ----------------------------------------
 BYTE   N04  Fs5
 BYTE   W06
 BYTE   N07  Gs5
 BYTE   W18
 BYTE   N05  Fs5
 BYTE   W12
 BYTE   En5
 BYTE   W12
 BYTE   Fs5
 BYTE   W12
 BYTE   An5
 BYTE   W12
 BYTE   Fs5
 BYTE   W12
 BYTE   En5
 BYTE   W12
//  #03 //046   ----------------------------------------
 BYTE   N04  Fs5
 BYTE   W06
 BYTE   N05  An5
 BYTE   W18
 BYTE   Fs5
 BYTE   W12
 BYTE   En5
 BYTE   W12
 BYTE   Fs5
 BYTE   W12
 BYTE   N04  En4
 BYTE   W06
 BYTE   En4
 BYTE   W06
 BYTE   En5
 BYTE   W06
 BYTE   En5
 BYTE   W06
 BYTE   En6
 BYTE   W06
 BYTE   En6
 BYTE   W96
//  #03 //047   ----------------------------------------
 BYTE   W96
//  #03 //048   ----------------------------------------
 BYTE   W96
//  #03 //049   ----------------------------------------
 BYTE   W96
//  #03 //050   ----------------------------------------
 BYTE   W96
//  #03 //051   ----------------------------------------
 BYTE   W96
//  #03 //052   ----------------------------------------
 BYTE   W96
//  #03 //053   ----------------------------------------
 BYTE   W96
//  #03 //054   ----------------------------------------
 BYTE   W66
 BYTE   N05  Gs5
 BYTE   W12
 BYTE   Fs5
 BYTE   W12
 BYTE   En5
 BYTE   W12
//  #03 //055   ----------------------------------------
 BYTE   N04  Fs5
 BYTE   W06
 BYTE   N07  Gs5
 BYTE   W18
 BYTE   N05  Fs5
 BYTE   W12
 BYTE   En5
 BYTE   W12
 BYTE   Fs5
 BYTE   W12
 BYTE   Gs5
 BYTE   W12
 BYTE   Fs5
 BYTE   W12
 BYTE   En5
 BYTE   W12
//  #03 //056   ----------------------------------------
 BYTE   N04  Fs5
 BYTE   W06
 BYTE   N07  Gs5
 BYTE   W18
 BYTE   N05  Fs5
 BYTE   W12
 BYTE   En5
 BYTE   W12
 BYTE   Fs5
 BYTE   W12
 BYTE   An5
 BYTE   W12
 BYTE   Fs5
 BYTE   W12
 BYTE   En5
 BYTE   W12
//  #03 //057   ----------------------------------------
 BYTE   N04  Fs5
 BYTE   W06
 BYTE   N05  An5
 BYTE   W18
 BYTE   Fs5
 BYTE   W12
 BYTE   En5
 BYTE   W12
 BYTE   Fs5
 BYTE   W12
 BYTE   An5
 BYTE   W12
 BYTE   Fs5
 BYTE   W12
 BYTE   En5
 BYTE   W12
//  #03 //058   ----------------------------------------
 BYTE   N04  Fs5
 BYTE   W06
 BYTE   N07  An5
 BYTE   W18
 BYTE   N05  Fs5
 BYTE   W12
 BYTE   En5
 BYTE   W12
 BYTE   Fs5
 BYTE   W12
 BYTE   Gs5
 BYTE   W12
 BYTE   Fs5
 BYTE   W12
 BYTE   En5
 BYTE   W12
//  #03 //059   ----------------------------------------
 BYTE   N04  Fs5
 BYTE   W06
 BYTE   N07  Gs5
 BYTE   W18
 BYTE   N05  Fs5
 BYTE   W12
 BYTE   En5
 BYTE   W12
 BYTE   Fs5
 BYTE   W12
 BYTE   Gs5
 BYTE   W12
 BYTE   Fs5
 BYTE   W12
 BYTE   En5
 BYTE   W12
//  #03 //060   ----------------------------------------
 BYTE   N04  Fs5
 BYTE   W06
 BYTE   N07  Gs5
 BYTE   W18
 BYTE   N05  Fs5
 BYTE   W12
 BYTE   En5
 BYTE   W12
 BYTE   Fs5
 BYTE   W12
 BYTE   An5
 BYTE   W12
 BYTE   Fs5
 BYTE   W12
 BYTE   En5
 BYTE   W12
//  #03 //061   ----------------------------------------
 BYTE   N04  Fs5
 BYTE   W06
 BYTE   N05  An5
 BYTE   W18
 BYTE   Fs5
 BYTE   W12
 BYTE   En5
 BYTE   W12
 BYTE   Fs5
 BYTE   W12
 BYTE   N04  En4
 BYTE   W06
 BYTE   En4
 BYTE   W06
 BYTE   En5
 BYTE   W06
 BYTE   En5
 BYTE   W06
 BYTE   En6
 BYTE   W06
 BYTE   En6
 BYTE   W96
//  #03 //062   ----------------------------------------
 BYTE   W96
//  #03 //063   ----------------------------------------
 BYTE   W96
//  #03 //064   ----------------------------------------
 BYTE   W96
//  #03 //065   ----------------------------------------
 BYTE   W96
//  #03 //066   ----------------------------------------
 BYTE   W96
//  #03 //067   ----------------------------------------
 BYTE   W96
//  #03 //068   ----------------------------------------
 BYTE   W96
//  #03 //069   ----------------------------------------
 BYTE   W66
 BYTE   N05  Gs5
 BYTE   W12
 BYTE   Fs5
 BYTE   W12
 BYTE   En5
 BYTE   W12
//  #03 //070   ----------------------------------------
 BYTE   N04  Fs5
 BYTE   W06
 BYTE   N07  Gs5
 BYTE   W18
 BYTE   N05  Fs5
 BYTE   W12
 BYTE   En5
 BYTE   W12
 BYTE   Fs5
 BYTE   W12
 BYTE   Gs5
 BYTE   W12
 BYTE   Fs5
 BYTE   W12
 BYTE   En5
 BYTE   W12
//  #03 //071   ----------------------------------------
 BYTE   N04  Fs5
 BYTE   W06
 BYTE   N07  Gs5
 BYTE   W18
 BYTE   N05  Fs5
 BYTE   W12
 BYTE   En5
 BYTE   W12
 BYTE   Fs5
 BYTE   W12
 BYTE   An5
 BYTE   W12
 BYTE   Fs5
 BYTE   W12
 BYTE   En5
 BYTE   W12
//  #03 //072   ----------------------------------------
 BYTE   N04  Fs5
 BYTE   W06
 BYTE   N05  An5
 BYTE   W18
 BYTE   Fs5
 BYTE   W12
 BYTE   En5
 BYTE   W12
 BYTE   Fs5
 BYTE   W12
 BYTE   An5
 BYTE   W12
 BYTE   Fs5
 BYTE   W12
 BYTE   En5
 BYTE   W12
//  #03 //073   ----------------------------------------
 BYTE   N04  Fs5
 BYTE   W06
 BYTE   N07  An5
 BYTE   W18
 BYTE   N05  Fs5
 BYTE   W12
 BYTE   En5
 BYTE   W12
 BYTE   Fs5
 BYTE   W12
 BYTE   Gs5
 BYTE   W12
 BYTE   Fs5
 BYTE   W12
 BYTE   En5
 BYTE   W12
//  #03 //074   ----------------------------------------
 BYTE   N04  Fs5
 BYTE   W06
 BYTE   N07  Gs5
 BYTE   W18
 BYTE   N05  Fs5
 BYTE   W12
 BYTE   En5
 BYTE   W12
 BYTE   Fs5
 BYTE   W12
 BYTE   Gs5
 BYTE   W12
 BYTE   Fs5
 BYTE   W12
 BYTE   En5
 BYTE   W12
//  #03 //075   ----------------------------------------
 BYTE   N04  Fs5
 BYTE   W06
 BYTE   N07  Gs5
 BYTE   W18
 BYTE   N05  Fs5
 BYTE   W12
 BYTE   En5
 BYTE   W12
 BYTE   Fs5
 BYTE   W12
 BYTE   An5
 BYTE   W12
 BYTE   Fs5
 BYTE   W12
 BYTE   En5
 BYTE   W12
//  #03 //076   ----------------------------------------
 BYTE   N04  Fs5
 BYTE   W06
 BYTE   N05  An5
 BYTE   W18
 BYTE   Fs5
 BYTE   W12
 BYTE   En5
 BYTE   W12
 BYTE   Fs5
 BYTE   W12
 BYTE   N04  En4
 BYTE   W06
 BYTE   En4
 BYTE   W06
 BYTE   En5
 BYTE   W06
 BYTE   En5
 BYTE   W06
 BYTE   En6
 BYTE   W06
 BYTE   En6
 BYTE   W96
//  #03 //077   ----------------------------------------
 BYTE   W96
//  #03 //078   ----------------------------------------
 BYTE   W96
//  #03 //079   ----------------------------------------
 BYTE   W96
//  #03 //080   ----------------------------------------
 BYTE   W96
//  #03 //081   ----------------------------------------
 BYTE   W96
//  #03 //082   ----------------------------------------
 BYTE   W96
//  #03 //083   ----------------------------------------
 BYTE   W96
//  #03 //084   ----------------------------------------
 BYTE   W64
 BYTE   GoTo
  POIN2 Label_014B4638
 BYTE   FINE

//**************** Track 4 (Midi-Chn.3) ****************//

SML2StarCourseLooped_004:
//  #04 //000   ----------------------------------------
Label_014D0D24:
 BYTE   TEMPO   126*SML2StarCourseLooped_tbs/2
 BYTE   KEYSH   SML2StarCourseLooped_key+0
 BYTE   VOICE   52
 BYTE   VOL   18*SML2StarCourseLooped_mvl/mxv
 BYTE   W96
//  #04 //001   ----------------------------------------
 BYTE   W96
//  #04 //002   ----------------------------------------
 BYTE   W96
//  #04 //003   ----------------------------------------
 BYTE   W96
//  #04 //004   ----------------------------------------
 BYTE   W96
//  #04 //005   ----------------------------------------
 BYTE   W96
//  #04 //006   ----------------------------------------
 BYTE   W96
//  #04 //007   ----------------------------------------
 BYTE   W96
//  #04 //008   ----------------------------------------
 BYTE   W96
//  #04 //009   ----------------------------------------
 BYTE   W96
//  #04 //010   ----------------------------------------
 BYTE   W96
//  #04 //011   ----------------------------------------
 BYTE   W96
//  #04 //012   ----------------------------------------
 BYTE   W96
//  #04 //013   ----------------------------------------
 BYTE   W96
//  #04 //014   ----------------------------------------
 BYTE   W96
//  #04 //015   ----------------------------------------
 BYTE   W96
//  #04 //016   ----------------------------------------
 BYTE   W96
//  #04 //017   ----------------------------------------
 BYTE   W96
//  #04 //018   ----------------------------------------
 BYTE   W96
//  #04 //019   ----------------------------------------
 BYTE   W96
//  #04 //020   ----------------------------------------
 BYTE   W96
//  #04 //021   ----------------------------------------
 BYTE   W96
//  #04 //022   ----------------------------------------
 BYTE   W96
//  #04 //023   ----------------------------------------
 BYTE   W96
//  #04 //024   ----------------------------------------
Label_014D0D44:
 BYTE   N96  An3  v110
 BYTE   N96  En3
 BYTE   W12
 BYTE   N92  An3
 BYTE   N92  En3
 BYTE   W11
 BYTE   N01
 BYTE   N02  An3
 BYTE   W96
//  #04 //025   ----------------------------------------
 BYTE   W72
 BYTE   PEND 
Label_014D0D55:
 BYTE   N96  En3  v110
 BYTE   N96  Gs3
 BYTE   W12
 BYTE   N92  En3
 BYTE   N92  Gs3
 BYTE   W11
 BYTE   N02  En3
 BYTE   N02  Gs3
 BYTE   W96
//  #04 //026   ----------------------------------------
 BYTE   W72
 BYTE   PEND 
Label_014D0D67:
 BYTE   N96  En3  v110
 BYTE   N96  An3
 BYTE   W12
 BYTE   N22  En3
 BYTE   N22  An3
 BYTE   W96
//  #04 //027   ----------------------------------------
 BYTE   W12
 BYTE   PEND 
Label_014D0D74:
 BYTE   N22  Cs3  v110
 BYTE   N22  Bn3
 BYTE   W24
 BYTE   N23  Cs4
 BYTE   N24  En3
 BYTE   W24
 BYTE   N23  Fs3
 BYTE   N23  Cs4
 BYTE   W24
 BYTE   N96  En3
 BYTE   N96  Gs3
 BYTE   W12
//  #04 //028   ----------------------------------------
 BYTE   N92  En3
 BYTE   N92  Gs3
 BYTE   W11
 BYTE   N02  En3
 BYTE   N02  Gs3
 BYTE   W96
//  #04 //029   ----------------------------------------
 BYTE   W72
 BYTE   PEND 
//  #04 //030   ----------------------------------------
 BYTE   PATT
  POIN2 Label_014D0D44
//  #04 //031   ----------------------------------------
Label_014D0D9A:
 BYTE   N96  Gs3  v110
 BYTE   N96  En3
 BYTE   W12
 BYTE   N92  Gs3
 BYTE   N92  En3
 BYTE   W11
 BYTE   N02  Gs3
 BYTE   N02  En3
 BYTE   W96
//  #04 //032   ----------------------------------------
 BYTE   W72
 BYTE   PEND 
//  #04 //033   ----------------------------------------
 BYTE   PATT
  POIN2 Label_014D0D67
//  #04 //034   ----------------------------------------
Label_014D0DB1:
 BYTE   N22  Bn3  v110
 BYTE   N22  Cs3
 BYTE   W24
 BYTE   N23  Cs4
 BYTE   N24  En3
 BYTE   W24
 BYTE   N23  Cs4
 BYTE   N23  Fs3
 BYTE   W24
 BYTE   N96  Gs3
 BYTE   N96  En3
 BYTE   W12
 BYTE   N92  Gs3
 BYTE   N92  En3
 BYTE   W11
 BYTE   N02  Gs3
 BYTE   N02  En3
 BYTE   W96
//  #04 //035   ----------------------------------------
 BYTE   W72
 BYTE   PEND 
//  #04 //036   ----------------------------------------
 BYTE   PATT
  POIN2 Label_014D0D44
//  #04 //037   ----------------------------------------
 BYTE   PATT
  POIN2 Label_014D0D9A
//  #04 //038   ----------------------------------------
Label_014D0DDC:
 BYTE   N96  An3  v110
 BYTE   N96  En3
 BYTE   W12
 BYTE   N22  An3
 BYTE   N22  En3
 BYTE   W96
//  #04 //039   ----------------------------------------
 BYTE   W12
 BYTE   PEND 
//  #04 //040   ----------------------------------------
 BYTE   PATT
  POIN2 Label_014D0DB1
//  #04 //041   ----------------------------------------
 BYTE   PATT
  POIN2 Label_014D0D44
//  #04 //042   ----------------------------------------
 BYTE   PATT
  POIN2 Label_014D0D55
//  #04 //043   ----------------------------------------
 BYTE   PATT
  POIN2 Label_014D0DDC
//  #04 //044   ----------------------------------------
 BYTE   PATT
  POIN2 Label_014D0DB1
//  #04 //045   ----------------------------------------
 BYTE   PATT
  POIN2 Label_014D0D44
//  #04 //046   ----------------------------------------
 BYTE   PATT
  POIN2 Label_014D0D55
//  #04 //047   ----------------------------------------
 BYTE   PATT
  POIN2 Label_014D0D67
//  #04 //048   ----------------------------------------
Label_014D0E11:
 BYTE   N22  Bn3  v110
 BYTE   N22  Cs3
 BYTE   W24
 BYTE   N23  Cs4
 BYTE   N24  En3
 BYTE   W24
 BYTE   N23  Fs3
 BYTE   N23  Cs4
 BYTE   W24
 BYTE   N96  En3
 BYTE   N96  Gs3
 BYTE   W12
 BYTE   N92  En3
 BYTE   N92  Gs3
 BYTE   W11
 BYTE   N02  En3
 BYTE   N02  Gs3
 BYTE   W96
//  #04 //049   ----------------------------------------
 BYTE   W72
 BYTE   PEND 
//  #04 //050   ----------------------------------------
 BYTE   PATT
  POIN2 Label_014D0D44
//  #04 //051   ----------------------------------------
 BYTE   PATT
  POIN2 Label_014D0D55
//  #04 //052   ----------------------------------------
 BYTE   PATT
  POIN2 Label_014D0D67
//  #04 //053   ----------------------------------------
 BYTE   PATT
  POIN2 Label_014D0D74
//  #04 //054   ----------------------------------------
 BYTE   PATT
  POIN2 Label_014D0D44
//  #04 //055   ----------------------------------------
 BYTE   PATT
  POIN2 Label_014D0D9A
//  #04 //056   ----------------------------------------
 BYTE   PATT
  POIN2 Label_014D0DDC
//  #04 //057   ----------------------------------------
 BYTE   PATT
  POIN2 Label_014D0E11
//  #04 //058   ----------------------------------------
Label_014D0E5A:
 BYTE   N96  An3  v110
 BYTE   N96  En3
 BYTE   W12
 BYTE   N92
 BYTE   N92  An3
 BYTE   W11
 BYTE   N01  En3
 BYTE   N02  An3
 BYTE   W96
//  #04 //059   ----------------------------------------
 BYTE   W72
 BYTE   PEND 
//  #04 //060   ----------------------------------------
 BYTE   PATT
  POIN2 Label_014D0D55
//  #04 //061   ----------------------------------------
 BYTE   PATT
  POIN2 Label_014D0D67
//  #04 //062   ----------------------------------------
 BYTE   N22  Bn3  v110
 BYTE   N22  Cs3
 BYTE   W24
 BYTE   N23  Cs4
 BYTE   N24  En3
 BYTE   W24
 BYTE   N23  Cs4
 BYTE   N23  Fs3
 BYTE   W24
 BYTE   N96  En3
 BYTE   N96  Gs3
 BYTE   W12
 BYTE   N92  En3
 BYTE   N92  Gs3
 BYTE   W11
 BYTE   N02  En3
 BYTE   N02  Gs3
 BYTE   W96
//  #04 //063   ----------------------------------------
 BYTE   W72
//  #04 //064   ----------------------------------------
 BYTE   PATT
  POIN2 Label_014D0E5A
//  #04 //065   ----------------------------------------
 BYTE   PATT
  POIN2 Label_014D0D9A
//  #04 //066   ----------------------------------------
 BYTE   PATT
  POIN2 Label_014D0D67
//  #04 //067   ----------------------------------------
 BYTE   N22  Bn3  v110
 BYTE   N22  Cs3
 BYTE   W24
 BYTE   N23  Cs4
 BYTE   N24  En3
 BYTE   W24
 BYTE   N23  Fs3
 BYTE   N23  Cs4
 BYTE   W24
 BYTE   N96  Gs3
 BYTE   N96  En3
 BYTE   W12
 BYTE   N92  Gs3
 BYTE   N92  En3
 BYTE   W11
 BYTE   N02  Gs3
 BYTE   N02  En3
 BYTE   W96
//  #04 //068   ----------------------------------------
 BYTE   W68
 BYTE   W03
 BYTE   GoTo
  POIN2 Label_014D0D24
 BYTE   FINE

//**************** Track 5 (Midi-Chn.4) ****************//

SML2StarCourseLooped_005:
//  #05 //000   ----------------------------------------
Label_014D16F0:
 BYTE   TEMPO   126*SML2StarCourseLooped_tbs/2
 BYTE   KEYSH   SML2StarCourseLooped_key+0
 BYTE   VOICE   127
 BYTE   VOL   43*SML2StarCourseLooped_mvl/mxv
 BYTE   N04  Fs1  v080
 BYTE   N04  Cn1  v110
 BYTE   W06
 BYTE   Fs1  v080
 BYTE   W06
 BYTE   As1  v110
 BYTE   W12
 BYTE   Fs1  v080
 BYTE   N04  Cn1  v110
 BYTE   W06
 BYTE   Fs1  v080
 BYTE   W06
 BYTE   As1  v110
 BYTE   W12
 BYTE   Fs1  v080
 BYTE   N04  Cn1  v110
 BYTE   W06
 BYTE   Fs1  v080
 BYTE   W06
 BYTE   As1  v110
 BYTE   W12
 BYTE   Fs1  v080
 BYTE   N04  Cn1  v110
 BYTE   W06
 BYTE   Fs1  v080
 BYTE   W06
 BYTE   As1  v110
 BYTE   W12
//  #05 //001   ----------------------------------------
Label_014D1729:
 BYTE   N04  Fs1  v080
 BYTE   N04  Cn1  v110
 BYTE   W06
 BYTE   Fs1  v080
 BYTE   W06
 BYTE   As1  v110
 BYTE   W12
 BYTE   Fs1  v080
 BYTE   N04  Cn1  v110
 BYTE   W06
 BYTE   Fs1  v080
 BYTE   W06
 BYTE   As1  v110
 BYTE   W12
 BYTE   Fs1  v080
 BYTE   N04  Cn1  v110
 BYTE   W06
 BYTE   Fs1  v080
 BYTE   W06
 BYTE   As1  v110
 BYTE   W12
 BYTE   Fs1  v080
 BYTE   N04  Cn1  v110
 BYTE   W06
 BYTE   Fs1  v080
 BYTE   W06
 BYTE   As1  v110
 BYTE   W12
 BYTE   PEND 
//  #05 //002   ----------------------------------------
 BYTE   PATT
  POIN2 Label_014D1729
//  #05 //003   ----------------------------------------
 BYTE   PATT
  POIN2 Label_014D1729
//  #05 //004   ----------------------------------------
 BYTE   PATT
  POIN2 Label_014D1729
//  #05 //005   ----------------------------------------
 BYTE   PATT
  POIN2 Label_014D1729
//  #05 //006   ----------------------------------------
 BYTE   PATT
  POIN2 Label_014D1729
//  #05 //007   ----------------------------------------
 BYTE   PATT
  POIN2 Label_014D1729
//  #05 //008   ----------------------------------------
 BYTE   PATT
  POIN2 Label_014D1729
//  #05 //009   ----------------------------------------
 BYTE   PATT
  POIN2 Label_014D1729
//  #05 //010   ----------------------------------------
 BYTE   PATT
  POIN2 Label_014D1729
//  #05 //011   ----------------------------------------
 BYTE   PATT
  POIN2 Label_014D1729
//  #05 //012   ----------------------------------------
 BYTE   PATT
  POIN2 Label_014D1729
//  #05 //013   ----------------------------------------
 BYTE   PATT
  POIN2 Label_014D1729
//  #05 //014   ----------------------------------------
 BYTE   PATT
  POIN2 Label_014D1729
//  #05 //015   ----------------------------------------
 BYTE   PATT
  POIN2 Label_014D1729
//  #05 //016   ----------------------------------------
 BYTE   PATT
  POIN2 Label_014D1729
//  #05 //017   ----------------------------------------
 BYTE   PATT
  POIN2 Label_014D1729
//  #05 //018   ----------------------------------------
 BYTE   PATT
  POIN2 Label_014D1729
//  #05 //019   ----------------------------------------
 BYTE   N04  Fs1  v080
 BYTE   N04  Cn1  v110
 BYTE   W06
 BYTE   Fs1  v080
 BYTE   W06
 BYTE   As1  v110
 BYTE   W12
 BYTE   Fs1  v080
 BYTE   N04  Cn1  v110
 BYTE   W06
 BYTE   Fs1  v080
 BYTE   W06
 BYTE   As1  v110
 BYTE   W12
 BYTE   Fs1  v080
 BYTE   N04  Cn1  v110
 BYTE   W06
 BYTE   Fs1  v080
 BYTE   W06
 BYTE   As1  v110
 BYTE   W12
 BYTE   Fs1  v080
 BYTE   N04  Cn1  v110
 BYTE   W06
 BYTE   Fs1  v080
 BYTE   W06
 BYTE   As1  v110
 BYTE   N07  Cn1  v109
 BYTE   W12
//  #05 //020   ----------------------------------------
 BYTE   PATT
  POIN2 Label_014D1729
//  #05 //021   ----------------------------------------
 BYTE   N04  Fs1  v080
 BYTE   N04  Cn1  v110
 BYTE   W06
 BYTE   Fs1  v080
 BYTE   W06
 BYTE   As1  v110
 BYTE   W12
 BYTE   Fs1  v080
 BYTE   N04  Cn1  v110
 BYTE   W06
 BYTE   Fs1  v080
 BYTE   W06
 BYTE   As1  v110
 BYTE   W12
 BYTE   Fs1  v080
 BYTE   N04  Cn1  v110
 BYTE   W06
 BYTE   Fs1  v080
 BYTE   W06
 BYTE   As1  v110
 BYTE   W12
 BYTE   Fs1  v080
 BYTE   N04  Cn1  v110
 BYTE   W06
 BYTE   Fs1  v080
 BYTE   W06
 BYTE   As1  v110
 BYTE   N05  Cn1  v109
 BYTE   W12
//  #05 //022   ----------------------------------------
 BYTE   PATT
  POIN2 Label_014D1729
//  #05 //023   ----------------------------------------
 BYTE   N04  Fs1  v080
 BYTE   N04  Dn1  v110
 BYTE   N04  Cn1
 BYTE   W06
 BYTE   Fs1  v080
 BYTE   N04  Dn1  v110
 BYTE   W06
 BYTE   As1
 BYTE   N04  Dn1
 BYTE   W06
 BYTE   Dn1
 BYTE   W06
 BYTE   Fs1  v080
 BYTE   N04  Dn1  v110
 BYTE   N04  Cn1
 BYTE   W06
 BYTE   Fs1  v080
 BYTE   W06
 BYTE   As1  v110
 BYTE   W06
 BYTE   Dn1
 BYTE   W06
 BYTE   Fs1  v080
 BYTE   N04  Dn1  v110
 BYTE   N04  Cn1
 BYTE   W06
 BYTE   Fs1  v080
 BYTE   W06
 BYTE   As1  v110
 BYTE   N04  Dn1
 BYTE   W12
 BYTE   Fs1  v080
 BYTE   N04  Dn1  v110
 BYTE   N04  Cn1
 BYTE   W06
 BYTE   Fs1  v080
 BYTE   W06
 BYTE   As1  v110
 BYTE   N05  Cn1  v109
 BYTE   W12
//  #05 //024   ----------------------------------------
Label_014D1868:
 BYTE   N04  Fs1  v080
 BYTE   N04  Cn1  v110
 BYTE   W06
 BYTE   Fs1  v080
 BYTE   W06
 BYTE   As1  v110
 BYTE   W12
 BYTE   Fs1  v080
 BYTE   N04  Dn1  v110
 BYTE   N04  Cn1
 BYTE   W06
 BYTE   Fs1  v080
 BYTE   W06
 BYTE   As1  v110
 BYTE   W06
 BYTE   Dn1
 BYTE   W06
 BYTE   Fs1  v080
 BYTE   N04  Cn1  v110
 BYTE   W06
 BYTE   Fs1  v080
 BYTE   N04  Dn1  v110
 BYTE   W06
 BYTE   As1
 BYTE   W12
 BYTE   Fs1  v080
 BYTE   N04  Dn1  v110
 BYTE   N04  Cn1
 BYTE   W06
 BYTE   Fs1  v080
 BYTE   W06
 BYTE   As1  v110
 BYTE   W12
 BYTE   PEND 
//  #05 //025   ----------------------------------------
Label_014D18A2:
 BYTE   N04  Fs1  v080
 BYTE   N04  Cn1  v110
 BYTE   W06
 BYTE   Fs1  v080
 BYTE   W06
 BYTE   As1  v110
 BYTE   N04  Dn1
 BYTE   W12
 BYTE   Fs1  v080
 BYTE   N04  Dn1  v110
 BYTE   N04  Cn1
 BYTE   W06
 BYTE   Fs1  v080
 BYTE   W06
 BYTE   As1  v110
 BYTE   W06
 BYTE   Dn1
 BYTE   W06
 BYTE   Fs1  v080
 BYTE   N04  Cn1  v110
 BYTE   W06
 BYTE   Fs1  v080
 BYTE   N04  Dn1  v110
 BYTE   W06
 BYTE   As1
 BYTE   W06
 BYTE   Dn1
 BYTE   W06
 BYTE   Fs1  v080
 BYTE   N04  Dn1  v110
 BYTE   N04  Cn1
 BYTE   W06
 BYTE   Fs1  v080
 BYTE   W06
 BYTE   As1  v110
 BYTE   N04  Dn1
 BYTE   W12
 BYTE   PEND 
//  #05 //026   ----------------------------------------
 BYTE   PATT
  POIN2 Label_014D1868
//  #05 //027   ----------------------------------------
 BYTE   PATT
  POIN2 Label_014D18A2
//  #05 //028   ----------------------------------------
 BYTE   PATT
  POIN2 Label_014D1868
//  #05 //029   ----------------------------------------
 BYTE   N04  Fs1  v080
 BYTE   N04  Cn1  v110
 BYTE   W06
 BYTE   Fs1  v080
 BYTE   W06
 BYTE   As1  v110
 BYTE   N04  Dn1
 BYTE   W12
 BYTE   Fs1  v080
 BYTE   N04  Dn1  v110
 BYTE   N04  Cn1
 BYTE   W06
 BYTE   Fs1  v080
 BYTE   W06
 BYTE   As1  v110
 BYTE   W06
 BYTE   Dn1
 BYTE   W06
 BYTE   Fs1  v080
 BYTE   N04  Cn1  v110
 BYTE   W06
 BYTE   Fs1  v080
 BYTE   N04  Dn1  v110
 BYTE   W06
 BYTE   As1
 BYTE   W06
 BYTE   Dn1
 BYTE   W06
 BYTE   Fs1  v080
 BYTE   N04  Dn1  v110
 BYTE   N04  Cn1
 BYTE   W06
 BYTE   Fs1  v080
 BYTE   W06
 BYTE   As1  v110
 BYTE   N04  Dn1
 BYTE   N05  Cn1  v109
 BYTE   W12
//  #05 //030   ----------------------------------------
 BYTE   PATT
  POIN2 Label_014D1868
//  #05 //031   ----------------------------------------
 BYTE   PATT
  POIN2 Label_014D18A2
//  #05 //032   ----------------------------------------
 BYTE   PATT
  POIN2 Label_014D1868
//  #05 //033   ----------------------------------------
 BYTE   PATT
  POIN2 Label_014D18A2
//  #05 //034   ----------------------------------------
 BYTE   PATT
  POIN2 Label_014D1868
//  #05 //035   ----------------------------------------
 BYTE   PATT
  POIN2 Label_014D18A2
//  #05 //036   ----------------------------------------
 BYTE   PATT
  POIN2 Label_014D1868
//  #05 //037   ----------------------------------------
Label_014D1956:
 BYTE   N04  Fs1  v080
 BYTE   N04  Cn1  v110
 BYTE   W06
 BYTE   Fs1  v080
 BYTE   W06
 BYTE   As1  v110
 BYTE   N04  Dn1
 BYTE   W12
 BYTE   Fs1  v080
 BYTE   N04  Dn1  v110
 BYTE   N04  Cn1
 BYTE   W06
 BYTE   Fs1  v080
 BYTE   W06
 BYTE   As1  v110
 BYTE   W06
 BYTE   Dn1
 BYTE   W06
 BYTE   Fs1  v080
 BYTE   N04  Cn1  v110
 BYTE   W06
 BYTE   Fs1  v080
 BYTE   N04  Dn1  v110
 BYTE   W06
 BYTE   As1
 BYTE   W06
 BYTE   Dn1
 BYTE   W06
 BYTE   Fs1  v080
 BYTE   N04  Dn1  v110
 BYTE   N04  Cn1
 BYTE   W06
 BYTE   Fs1  v080
 BYTE   W06
 BYTE   As1  v110
 BYTE   N04  Dn1
 BYTE   N07  Cn1  v109
 BYTE   W12
 BYTE   PEND 
//  #05 //038   ----------------------------------------
 BYTE   PATT
  POIN2 Label_014D1868
//  #05 //039   ----------------------------------------
 BYTE   N04  Fs1  v080
 BYTE   N04  Dn1  v110
 BYTE   N04  Cn1
 BYTE   W06
 BYTE   Fs1  v080
 BYTE   N04  Dn1  v110
 BYTE   W06
 BYTE   As1
 BYTE   N04  Dn1
 BYTE   W06
 BYTE   Dn1
 BYTE   W06
 BYTE   Fs1  v080
 BYTE   N04  Dn1  v110
 BYTE   N04  Cn1
 BYTE   W06
 BYTE   Fs1  v080
 BYTE   W06
 BYTE   As1  v110
 BYTE   W06
 BYTE   Dn1
 BYTE   W06
 BYTE   Fs1  v080
 BYTE   N04  Dn1  v110
 BYTE   N04  Cn1
 BYTE   W06
 BYTE   Fs1  v080
 BYTE   W06
 BYTE   As1  v110
 BYTE   N04  Dn1
 BYTE   W12
 BYTE   Fs1  v080
 BYTE   N04  Dn1  v110
 BYTE   N04  Cn1
 BYTE   W06
 BYTE   Fs1  v080
 BYTE   W06
 BYTE   As1  v110
 BYTE   W12
//  #05 //040   ----------------------------------------
 BYTE   PATT
  POIN2 Label_014D1868
//  #05 //041   ----------------------------------------
 BYTE   PATT
  POIN2 Label_014D18A2
//  #05 //042   ----------------------------------------
 BYTE   PATT
  POIN2 Label_014D1868
//  #05 //043   ----------------------------------------
 BYTE   PATT
  POIN2 Label_014D1956
//  #05 //044   ----------------------------------------
 BYTE   PATT
  POIN2 Label_014D1868
//  #05 //045   ----------------------------------------
 BYTE   PATT
  POIN2 Label_014D1956
//  #05 //046   ----------------------------------------
 BYTE   PATT
  POIN2 Label_014D1868
//  #05 //047   ----------------------------------------
 BYTE   N04  Fs1  v080
 BYTE   N04  Dn1  v110
 BYTE   N04  Cn1
 BYTE   W06
 BYTE   Fs1  v080
 BYTE   N04  Dn1  v110
 BYTE   W06
 BYTE   As1
 BYTE   N04  Dn1
 BYTE   W06
 BYTE   Dn1
 BYTE   W06
 BYTE   Fs1  v080
 BYTE   N04  Dn1  v110
 BYTE   N04  Cn1
 BYTE   W06
 BYTE   Fs1  v080
 BYTE   W06
 BYTE   As1  v110
 BYTE   W06
 BYTE   Dn1
 BYTE   W06
 BYTE   Fs1  v080
 BYTE   N04  Dn1  v110
 BYTE   N04  Cn1
 BYTE   W06
 BYTE   Fs1  v080
 BYTE   W06
 BYTE   As1  v110
 BYTE   N04  Dn1
 BYTE   W12
 BYTE   Fs1  v080
 BYTE   N04  Dn1  v110
 BYTE   N04  Cn1
 BYTE   W06
 BYTE   Fs1  v080
 BYTE   W06
 BYTE   As1  v110
 BYTE   N07  Cn1  v109
 BYTE   W12
//  #05 //048   ----------------------------------------
 BYTE   PAN   c_v+0
 BYTE   N04  Fs1  v080
 BYTE   N04  Cn1  v110
 BYTE   W06
 BYTE   Fs1  v080
 BYTE   W06
 BYTE   As1  v110
 BYTE   W12
 BYTE   Fs1  v080
 BYTE   N04  Dn1  v110
 BYTE   N04  Cn1
 BYTE   W06
 BYTE   Fs1  v080
 BYTE   W06
 BYTE   As1  v110
 BYTE   W06
 BYTE   Dn1
 BYTE   W06
 BYTE   Fs1  v080
 BYTE   N04  Cn1  v110
 BYTE   W06
 BYTE   Fs1  v080
 BYTE   N04  Dn1  v110
 BYTE   W06
 BYTE   As1
 BYTE   W12
 BYTE   Fs1  v080
 BYTE   N04  Dn1  v110
 BYTE   N04  Cn1
 BYTE   W06
 BYTE   Fs1  v080
 BYTE   W06
 BYTE   As1  v110
 BYTE   W12
//  #05 //049   ----------------------------------------
 BYTE   Fs1  v080
 BYTE   N04  Cn1  v110
 BYTE   W06
 BYTE   Fs1  v080
 BYTE   W06
 BYTE   As1  v110
 BYTE   N04  Dn1
 BYTE   W12
 BYTE   Fs1  v080
 BYTE   N04  Dn1  v110
 BYTE   N04  Cn1
 BYTE   W06
 BYTE   Fs1  v080
 BYTE   W06
 BYTE   As1  v110
 BYTE   W06
 BYTE   Dn1
 BYTE   W06
 BYTE   Fs1  v080
 BYTE   N04  Cn1  v110
 BYTE   W06
 BYTE   Fs1  v080
 BYTE   N04  Dn1  v110
 BYTE   W06
 BYTE   As1
 BYTE   W06
 BYTE   Dn1
 BYTE   W06
 BYTE   Fs1  v080
 BYTE   N04  Dn1  v110
 BYTE   N04  Cn1
 BYTE   W06
 BYTE   Fs1  v080
 BYTE   W06
 BYTE   As1  v110
 BYTE   N04  Dn1
 BYTE   W12
//  #05 //050   ----------------------------------------
 BYTE   Fs1  v080
 BYTE   N04  Cn1  v110
 BYTE   W06
 BYTE   Fs1  v080
 BYTE   W06
 BYTE   As1  v110
 BYTE   W12
 BYTE   Fs1  v080
 BYTE   N04  Dn1  v110
 BYTE   N04  Cn1
 BYTE   W06
 BYTE   Fs1  v080
 BYTE   W06
 BYTE   As1  v110
 BYTE   W06
 BYTE   Dn1
 BYTE   W06
 BYTE   Fs1  v080
 BYTE   N04  Cn1  v110
 BYTE   W06
 BYTE   Fs1  v080
 BYTE   N04  Dn1  v110
 BYTE   W06
 BYTE   As1
 BYTE   W12
 BYTE   Fs1  v080
 BYTE   N04  Dn1  v110
 BYTE   N04  Cn1
 BYTE   W06
 BYTE   Fs1  v080
 BYTE   W06
 BYTE   As1  v110
 BYTE   W12
//  #05 //051   ----------------------------------------
 BYTE   Fs1  v080
 BYTE   N04  Cn1  v110
 BYTE   W06
 BYTE   Fs1  v080
 BYTE   W06
 BYTE   As1  v110
 BYTE   N04  Dn1
 BYTE   W12
 BYTE   Fs1  v080
 BYTE   N04  Dn1  v110
 BYTE   N04  Cn1
 BYTE   W06
 BYTE   Fs1  v080
 BYTE   W06
 BYTE   As1  v110
 BYTE   W06
 BYTE   Dn1
 BYTE   W06
 BYTE   Fs1  v080
 BYTE   N04  Cn1  v110
 BYTE   W06
 BYTE   Fs1  v080
 BYTE   N04  Dn1  v110
 BYTE   W06
 BYTE   As1
 BYTE   W06
 BYTE   Dn1
 BYTE   W06
 BYTE   Fs1  v080
 BYTE   N04  Dn1  v110
 BYTE   N04  Cn1
 BYTE   W06
 BYTE   Fs1  v080
 BYTE   W06
 BYTE   As1  v110
 BYTE   N04  Dn1
 BYTE   W12
//  #05 //052   ----------------------------------------
 BYTE   Fs1  v080
 BYTE   N04  Cn1  v110
 BYTE   W06
 BYTE   Fs1  v080
 BYTE   W06
 BYTE   As1  v110
 BYTE   W12
 BYTE   Fs1  v080
 BYTE   N04  Dn1  v110
 BYTE   N04  Cn1
 BYTE   W06
 BYTE   Fs1  v080
 BYTE   W06
 BYTE   As1  v110
 BYTE   W06
 BYTE   Dn1
 BYTE   W06
 BYTE   Fs1  v080
 BYTE   N04  Cn1  v110
 BYTE   W06
 BYTE   Fs1  v080
 BYTE   N04  Dn1  v110
 BYTE   W06
 BYTE   As1
 BYTE   W12
 BYTE   Fs1  v080
 BYTE   N04  Dn1  v110
 BYTE   N04  Cn1
 BYTE   W06
 BYTE   Fs1  v080
 BYTE   W06
 BYTE   As1  v110
 BYTE   W12
//  #05 //053   ----------------------------------------
 BYTE   Fs1  v080
 BYTE   N04  Cn1  v110
 BYTE   W06
 BYTE   Fs1  v080
 BYTE   W06
 BYTE   As1  v110
 BYTE   N04  Dn1
 BYTE   W12
 BYTE   Fs1  v080
 BYTE   N04  Dn1  v110
 BYTE   N04  Cn1
 BYTE   W06
 BYTE   Fs1  v080
 BYTE   W06
 BYTE   As1  v110
 BYTE   W06
 BYTE   Dn1
 BYTE   W06
 BYTE   Fs1  v080
 BYTE   N04  Cn1  v110
 BYTE   W06
 BYTE   Fs1  v080
 BYTE   N04  Dn1  v110
 BYTE   W06
 BYTE   As1
 BYTE   W06
 BYTE   Dn1
 BYTE   W06
 BYTE   Fs1  v080
 BYTE   N04  Dn1  v110
 BYTE   N04  Cn1
 BYTE   W06
 BYTE   Fs1  v080
 BYTE   W06
 BYTE   As1  v110
 BYTE   N04  Dn1
 BYTE   N07  Cn1  v109
 BYTE   W12
//  #05 //054   ----------------------------------------
 BYTE   N04  Fs1  v080
 BYTE   N04  Cn1  v110
 BYTE   W06
 BYTE   Fs1  v080
 BYTE   W06
 BYTE   As1  v110
 BYTE   W12
 BYTE   Fs1  v080
 BYTE   N04  Dn1  v110
 BYTE   N04  Cn1
 BYTE   W06
 BYTE   Fs1  v080
 BYTE   W06
 BYTE   As1  v110
 BYTE   W06
 BYTE   Dn1
 BYTE   W06
 BYTE   Fs1  v080
 BYTE   N04  Cn1  v110
 BYTE   W06
 BYTE   Fs1  v080
 BYTE   N04  Dn1  v110
 BYTE   W06
 BYTE   As1
 BYTE   W12
 BYTE   Fs1  v080
 BYTE   N04  Dn1  v110
 BYTE   N04  Cn1
 BYTE   W06
 BYTE   Fs1  v080
 BYTE   W06
 BYTE   As1  v110
 BYTE   W12
//  #05 //055   ----------------------------------------
 BYTE   Fs1  v080
 BYTE   N04  Dn1  v110
 BYTE   N04  Cn1
 BYTE   W06
 BYTE   Fs1  v080
 BYTE   N04  Dn1  v110
 BYTE   W06
 BYTE   As1
 BYTE   N04  Dn1
 BYTE   W06
 BYTE   Dn1
 BYTE   W06
 BYTE   Fs1  v080
 BYTE   N04  Dn1  v110
 BYTE   N04  Cn1
 BYTE   W06
 BYTE   Fs1  v080
 BYTE   W06
 BYTE   As1  v110
 BYTE   W06
 BYTE   Dn1
 BYTE   W06
 BYTE   Fs1  v080
 BYTE   N04  Dn1  v110
 BYTE   N04  Cn1
 BYTE   W06
 BYTE   Fs1  v080
 BYTE   W06
 BYTE   As1  v110
 BYTE   N04  Dn1
 BYTE   W12
 BYTE   Fs1  v080
 BYTE   N04  Dn1  v110
 BYTE   N04  Cn1
 BYTE   W06
 BYTE   Fs1  v080
 BYTE   W06
 BYTE   As1  v110
 BYTE   W12
//  #05 //056   ----------------------------------------
 BYTE   Fs1  v080
 BYTE   N04  Cn1  v110
 BYTE   W06
 BYTE   Fs1  v080
 BYTE   W06
 BYTE   As1  v110
 BYTE   W12
 BYTE   Fs1  v080
 BYTE   N04  Dn1  v110
 BYTE   N04  Cn1
 BYTE   W06
 BYTE   Fs1  v080
 BYTE   W06
 BYTE   As1  v110
 BYTE   W06
 BYTE   Dn1
 BYTE   W06
 BYTE   Fs1  v080
 BYTE   N04  Cn1  v110
 BYTE   W06
 BYTE   Fs1  v080
 BYTE   N04  Dn1  v110
 BYTE   W06
 BYTE   As1
 BYTE   W12
 BYTE   Fs1  v080
 BYTE   N04  Dn1  v110
 BYTE   N04  Cn1
 BYTE   W06
 BYTE   Fs1  v080
 BYTE   W06
 BYTE   As1  v110
 BYTE   W12
//  #05 //057   ----------------------------------------
 BYTE   Fs1  v080
 BYTE   N04  Cn1  v110
 BYTE   W06
 BYTE   Fs1  v080
 BYTE   W06
 BYTE   As1  v110
 BYTE   N04  Dn1
 BYTE   W12
 BYTE   Fs1  v080
 BYTE   N04  Dn1  v110
 BYTE   N04  Cn1
 BYTE   W06
 BYTE   Fs1  v080
 BYTE   W06
 BYTE   As1  v110
 BYTE   W06
 BYTE   Dn1
 BYTE   W06
 BYTE   Fs1  v080
 BYTE   N04  Cn1  v110
 BYTE   W06
 BYTE   Fs1  v080
 BYTE   N04  Dn1  v110
 BYTE   W06
 BYTE   As1
 BYTE   W06
 BYTE   Dn1
 BYTE   W06
 BYTE   Fs1  v080
 BYTE   N04  Dn1  v110
 BYTE   N04  Cn1
 BYTE   W06
 BYTE   Fs1  v080
 BYTE   W06
 BYTE   As1  v110
 BYTE   N04  Dn1
 BYTE   W12
//  #05 //058   ----------------------------------------
 BYTE   Fs1  v080
 BYTE   N04  Cn1  v110
 BYTE   W06
 BYTE   Fs1  v080
 BYTE   W06
 BYTE   As1  v110
 BYTE   W12
 BYTE   Fs1  v080
 BYTE   N04  Dn1  v110
 BYTE   N04  Cn1
 BYTE   W06
 BYTE   Fs1  v080
 BYTE   W06
 BYTE   As1  v110
 BYTE   W06
 BYTE   Dn1
 BYTE   W06
 BYTE   Fs1  v080
 BYTE   N04  Cn1  v110
 BYTE   W06
 BYTE   Fs1  v080
 BYTE   N04  Dn1  v110
 BYTE   W06
 BYTE   As1
 BYTE   W12
 BYTE   Fs1  v080
 BYTE   N04  Dn1  v110
 BYTE   N04  Cn1
 BYTE   W06
 BYTE   Fs1  v080
 BYTE   W06
 BYTE   As1  v110
 BYTE   W12
//  #05 //059   ----------------------------------------
 BYTE   Fs1  v080
 BYTE   N04  Cn1  v110
 BYTE   W06
 BYTE   Fs1  v080
 BYTE   W06
 BYTE   As1  v110
 BYTE   N04  Dn1
 BYTE   W12
 BYTE   Fs1  v080
 BYTE   N04  Dn1  v110
 BYTE   N04  Cn1
 BYTE   W06
 BYTE   Fs1  v080
 BYTE   W06
 BYTE   As1  v110
 BYTE   W06
 BYTE   Dn1
 BYTE   W06
 BYTE   Fs1  v080
 BYTE   N04  Cn1  v110
 BYTE   W06
 BYTE   Fs1  v080
 BYTE   N04  Dn1  v110
 BYTE   W06
 BYTE   As1
 BYTE   W06
 BYTE   Dn1
 BYTE   W06
 BYTE   Fs1  v080
 BYTE   N04  Dn1  v110
 BYTE   N04  Cn1
 BYTE   W06
 BYTE   Fs1  v080
 BYTE   W06
 BYTE   As1  v110
 BYTE   N04  Dn1
 BYTE   W12
//  #05 //060   ----------------------------------------
 BYTE   Fs1  v080
 BYTE   N04  Cn1  v110
 BYTE   W06
 BYTE   Fs1  v080
 BYTE   W06
 BYTE   As1  v110
 BYTE   W12
 BYTE   Fs1  v080
 BYTE   N04  Dn1  v110
 BYTE   N04  Cn1
 BYTE   W06
 BYTE   Fs1  v080
 BYTE   W06
 BYTE   As1  v110
 BYTE   W06
 BYTE   Dn1
 BYTE   W06
 BYTE   Fs1  v080
 BYTE   N04  Cn1  v110
 BYTE   W06
 BYTE   Fs1  v080
 BYTE   N04  Dn1  v110
 BYTE   W06
 BYTE   As1
 BYTE   W12
 BYTE   Fs1  v080
 BYTE   N04  Dn1  v110
 BYTE   N04  Cn1
 BYTE   W06
 BYTE   Fs1  v080
 BYTE   W06
 BYTE   As1  v110
 BYTE   W12
//  #05 //061   ----------------------------------------
 BYTE   Fs1  v080
 BYTE   N04  Cn1  v110
 BYTE   W06
 BYTE   Fs1  v080
 BYTE   W06
 BYTE   As1  v110
 BYTE   N04  Dn1
 BYTE   W12
 BYTE   Fs1  v080
 BYTE   N04  Dn1  v110
 BYTE   N04  Cn1
 BYTE   W06
 BYTE   Fs1  v080
 BYTE   W06
 BYTE   As1  v110
 BYTE   W06
 BYTE   Dn1
 BYTE   W06
 BYTE   Fs1  v080
 BYTE   N04  Cn1  v110
 BYTE   W06
 BYTE   Fs1  v080
 BYTE   N04  Dn1  v110
 BYTE   W06
 BYTE   As1
 BYTE   W06
 BYTE   Dn1
 BYTE   W06
 BYTE   Fs1  v080
 BYTE   N04  Dn1  v110
 BYTE   N04  Cn1
 BYTE   W06
 BYTE   Fs1  v080
 BYTE   W06
 BYTE   As1  v110
 BYTE   N04  Dn1
 BYTE   N07  Cn1  v109
 BYTE   W12
//  #05 //062   ----------------------------------------
 BYTE   N04  Fs1  v080
 BYTE   N04  Cn1  v110
 BYTE   W06
 BYTE   Fs1  v080
 BYTE   W06
 BYTE   As1  v110
 BYTE   W12
 BYTE   Fs1  v080
 BYTE   N04  Dn1  v110
 BYTE   N04  Cn1
 BYTE   W06
 BYTE   Fs1  v080
 BYTE   W06
 BYTE   As1  v110
 BYTE   W06
 BYTE   Dn1
 BYTE   W06
 BYTE   Fs1  v080
 BYTE   N04  Cn1  v110
 BYTE   W06
 BYTE   Fs1  v080
 BYTE   N04  Dn1  v110
 BYTE   W06
 BYTE   As1
 BYTE   W12
 BYTE   Fs1  v080
 BYTE   N04  Dn1  v110
 BYTE   N04  Cn1
 BYTE   W06
 BYTE   Fs1  v080
 BYTE   W06
 BYTE   As1  v110
 BYTE   W12
//  #05 //063   ----------------------------------------
 BYTE   Fs1  v080
 BYTE   N04  Cn1  v110
 BYTE   W06
 BYTE   Fs1  v080
 BYTE   W06
 BYTE   As1  v110
 BYTE   N04  Dn1
 BYTE   W12
 BYTE   Fs1  v080
 BYTE   N04  Dn1  v110
 BYTE   N04  Cn1
 BYTE   W06
 BYTE   Fs1  v080
 BYTE   W06
 BYTE   As1  v110
 BYTE   W06
 BYTE   Dn1
 BYTE   W06
 BYTE   Fs1  v080
 BYTE   N04  Cn1  v110
 BYTE   W06
 BYTE   Fs1  v080
 BYTE   N04  Dn1  v110
 BYTE   W06
 BYTE   As1
 BYTE   W06
 BYTE   Dn1
 BYTE   W06
 BYTE   Fs1  v080
 BYTE   N04  Dn1  v110
 BYTE   N04  Cn1
 BYTE   W06
 BYTE   Fs1  v080
 BYTE   W06
 BYTE   As1  v110
 BYTE   N04  Dn1
 BYTE   W12
//  #05 //064   ----------------------------------------
 BYTE   Fs1  v080
 BYTE   N04  Cn1  v110
 BYTE   W06
 BYTE   Fs1  v080
 BYTE   W06
 BYTE   As1  v110
 BYTE   W12
 BYTE   Fs1  v080
 BYTE   N04  Dn1  v110
 BYTE   N04  Cn1
 BYTE   W06
 BYTE   Fs1  v080
 BYTE   W06
 BYTE   As1  v110
 BYTE   W06
 BYTE   Dn1
 BYTE   W06
 BYTE   Fs1  v080
 BYTE   N04  Cn1  v110
 BYTE   W06
 BYTE   Fs1  v080
 BYTE   N04  Dn1  v110
 BYTE   W06
 BYTE   As1
 BYTE   W12
 BYTE   Fs1  v080
 BYTE   N04  Dn1  v110
 BYTE   N04  Cn1
 BYTE   W06
 BYTE   Fs1  v080
 BYTE   W06
 BYTE   As1  v110
 BYTE   W12
//  #05 //065   ----------------------------------------
 BYTE   Fs1  v080
 BYTE   N04  Cn1  v110
 BYTE   W06
 BYTE   Fs1  v080
 BYTE   W06
 BYTE   As1  v110
 BYTE   N04  Dn1
 BYTE   W12
 BYTE   Fs1  v080
 BYTE   N04  Dn1  v110
 BYTE   N04  Cn1
 BYTE   W06
 BYTE   Fs1  v080
 BYTE   W06
 BYTE   As1  v110
 BYTE   W06
 BYTE   Dn1
 BYTE   W06
 BYTE   Fs1  v080
 BYTE   N04  Cn1  v110
 BYTE   W06
 BYTE   Fs1  v080
 BYTE   N04  Dn1  v110
 BYTE   W06
 BYTE   As1
 BYTE   W06
 BYTE   Dn1
 BYTE   W06
 BYTE   Fs1  v080
 BYTE   N04  Dn1  v110
 BYTE   N04  Cn1
 BYTE   W06
 BYTE   Fs1  v080
 BYTE   W06
 BYTE   As1  v110
 BYTE   N04  Dn1
 BYTE   W12
//  #05 //066   ----------------------------------------
 BYTE   Fs1  v080
 BYTE   N04  Cn1  v110
 BYTE   W06
 BYTE   Fs1  v080
 BYTE   W06
 BYTE   As1  v110
 BYTE   W12
 BYTE   Fs1  v080
 BYTE   N04  Dn1  v110
 BYTE   N04  Cn1
 BYTE   W06
 BYTE   Fs1  v080
 BYTE   W06
 BYTE   As1  v110
 BYTE   W06
 BYTE   Dn1
 BYTE   W06
 BYTE   Fs1  v080
 BYTE   N04  Cn1  v110
 BYTE   W06
 BYTE   Fs1  v080
 BYTE   N04  Dn1  v110
 BYTE   W06
 BYTE   As1
 BYTE   W12
 BYTE   Fs1  v080
 BYTE   N04  Dn1  v110
 BYTE   N04  Cn1
 BYTE   W06
 BYTE   Fs1  v080
 BYTE   W06
 BYTE   As1  v110
 BYTE   W12
//  #05 //067   ----------------------------------------
 BYTE   Fs1  v080
 BYTE   N04  Cn1  v110
 BYTE   W06
 BYTE   Fs1  v080
 BYTE   W06
 BYTE   As1  v110
 BYTE   N04  Dn1
 BYTE   W12
 BYTE   Fs1  v080
 BYTE   N04  Dn1  v110
 BYTE   N04  Cn1
 BYTE   W06
 BYTE   Fs1  v080
 BYTE   W06
 BYTE   As1  v110
 BYTE   W06
 BYTE   Dn1
 BYTE   W06
 BYTE   Fs1  v080
 BYTE   N04  Cn1  v110
 BYTE   W06
 BYTE   Fs1  v080
 BYTE   N04  Dn1  v110
 BYTE   W06
 BYTE   As1
 BYTE   W06
 BYTE   Dn1
 BYTE   W06
 BYTE   Fs1  v080
 BYTE   N04  Dn1  v110
 BYTE   N04  Cn1
 BYTE   W06
 BYTE   Fs1  v080
 BYTE   W06
 BYTE   As1  v110
 BYTE   N04  Dn1
 BYTE   N07  Cn1  v109
 BYTE   W12
//  #05 //068   ----------------------------------------
 BYTE   N04  Fs1  v080
 BYTE   N04  Cn1  v110
 BYTE   W06
 BYTE   Fs1  v080
 BYTE   W06
 BYTE   As1  v110
 BYTE   W12
 BYTE   Fs1  v080
 BYTE   N04  Dn1  v110
 BYTE   N04  Cn1
 BYTE   W06
 BYTE   Fs1  v080
 BYTE   W06
 BYTE   As1  v110
 BYTE   W06
 BYTE   Dn1
 BYTE   W06
 BYTE   Fs1  v080
 BYTE   N04  Cn1  v110
 BYTE   W06
 BYTE   Fs1  v080
 BYTE   N04  Dn1  v110
 BYTE   W06
 BYTE   As1
 BYTE   W12
 BYTE   Fs1  v080
 BYTE   N04  Dn1  v110
 BYTE   N04  Cn1
 BYTE   W06
 BYTE   Fs1  v080
 BYTE   W06
 BYTE   As1  v110
 BYTE   W12
//  #05 //069   ----------------------------------------
 BYTE   Fs1  v080
 BYTE   N04  Cn1  v110
 BYTE   W06
 BYTE   Fs1  v080
 BYTE   W06
 BYTE   As1  v110
 BYTE   N04  Dn1
 BYTE   W12
 BYTE   Fs1  v080
 BYTE   N04  Dn1  v110
 BYTE   N04  Cn1
 BYTE   W06
 BYTE   Fs1  v080
 BYTE   W06
 BYTE   As1  v110
 BYTE   W06
 BYTE   Dn1
 BYTE   W06
 BYTE   Fs1  v080
 BYTE   N04  Cn1  v110
 BYTE   W06
 BYTE   Fs1  v080
 BYTE   N04  Dn1  v110
 BYTE   W06
 BYTE   As1
 BYTE   W06
 BYTE   Dn1
 BYTE   W06
 BYTE   Fs1  v080
 BYTE   N04  Dn1  v110
 BYTE   N04  Cn1
 BYTE   W06
 BYTE   Fs1  v080
 BYTE   W06
 BYTE   As1  v110
 BYTE   N04  Dn1
 BYTE   N05  Cn1  v109
 BYTE   W12
//  #05 //070   ----------------------------------------
 BYTE   N04  Fs1  v080
 BYTE   N04  Cn1  v110
 BYTE   W06
 BYTE   Fs1  v080
 BYTE   W06
 BYTE   As1  v110
 BYTE   W12
 BYTE   Fs1  v080
 BYTE   N04  Dn1  v110
 BYTE   N04  Cn1
 BYTE   W06
 BYTE   Fs1  v080
 BYTE   W06
 BYTE   As1  v110
 BYTE   W06
 BYTE   Dn1
 BYTE   W06
 BYTE   Fs1  v080
 BYTE   N04  Cn1  v110
 BYTE   W06
 BYTE   Fs1  v080
 BYTE   N04  Dn1  v110
 BYTE   W06
 BYTE   As1
 BYTE   W12
 BYTE   Fs1  v080
 BYTE   N04  Dn1  v110
 BYTE   N04  Cn1
 BYTE   W06
 BYTE   Fs1  v080
 BYTE   W06
 BYTE   As1  v110
 BYTE   W12
//  #05 //071   ----------------------------------------
 BYTE   Fs1  v080
 BYTE   N04  Dn1  v110
 BYTE   N04  Cn1
 BYTE   W06
 BYTE   Fs1  v080
 BYTE   N04  Dn1  v110
 BYTE   W06
 BYTE   As1
 BYTE   N04  Dn1
 BYTE   W06
 BYTE   Dn1
 BYTE   W06
 BYTE   Fs1  v080
 BYTE   N04  Dn1  v110
 BYTE   N04  Cn1
 BYTE   W06
 BYTE   Fs1  v080
 BYTE   W06
 BYTE   As1  v110
 BYTE   W06
 BYTE   Dn1
 BYTE   W06
 BYTE   Fs1  v080
 BYTE   N04  Dn1  v110
 BYTE   N04  Cn1
 BYTE   W06
 BYTE   Fs1  v080
 BYTE   W06
 BYTE   As1  v110
 BYTE   N04  Dn1
 BYTE   W12
 BYTE   Fs1  v080
 BYTE   N04  Dn1  v110
 BYTE   N04  Cn1
 BYTE   W06
 BYTE   Fs1  v080
 BYTE   W06
 BYTE   As1  v110
 BYTE   N05  Cn1  v109
 BYTE   W12
//  #05 //072   ----------------------------------------
 BYTE   N04  Fs1  v080
 BYTE   N04  Cn1  v110
 BYTE   W06
 BYTE   Fs1  v080
 BYTE   W06
 BYTE   As1  v110
 BYTE   W12
 BYTE   Fs1  v080
 BYTE   N04  Dn1  v110
 BYTE   N04  Cn1
 BYTE   W06
 BYTE   Fs1  v080
 BYTE   W06
 BYTE   As1  v110
 BYTE   W06
 BYTE   Dn1
 BYTE   W06
 BYTE   Fs1  v080
 BYTE   N04  Cn1  v110
 BYTE   W06
 BYTE   Fs1  v080
 BYTE   N04  Dn1  v110
 BYTE   W06
 BYTE   As1
 BYTE   W12
 BYTE   Fs1  v080
 BYTE   N04  Dn1  v110
 BYTE   N04  Cn1
 BYTE   W06
 BYTE   Fs1  v080
 BYTE   W06
 BYTE   As1  v110
 BYTE   W12
//  #05 //073   ----------------------------------------
 BYTE   Fs1  v080
 BYTE   N04  Cn1  v110
 BYTE   W06
 BYTE   Fs1  v080
 BYTE   W06
 BYTE   As1  v110
 BYTE   N04  Dn1
 BYTE   W12
 BYTE   Fs1  v080
 BYTE   N04  Dn1  v110
 BYTE   N04  Cn1
 BYTE   W06
 BYTE   Fs1  v080
 BYTE   W06
 BYTE   As1  v110
 BYTE   W06
 BYTE   Dn1
 BYTE   W06
 BYTE   Fs1  v080
 BYTE   N04  Cn1  v110
 BYTE   W06
 BYTE   Fs1  v080
 BYTE   N04  Dn1  v110
 BYTE   W06
 BYTE   As1
 BYTE   W06
 BYTE   Dn1
 BYTE   W06
 BYTE   Fs1  v080
 BYTE   N04  Dn1  v110
 BYTE   N04  Cn1
 BYTE   W06
 BYTE   Fs1  v080
 BYTE   W06
 BYTE   As1  v110
 BYTE   N04  Dn1
 BYTE   W12
//  #05 //074   ----------------------------------------
 BYTE   Fs1  v080
 BYTE   N04  Cn1  v110
 BYTE   W06
 BYTE   Fs1  v080
 BYTE   W06
 BYTE   As1  v110
 BYTE   W12
 BYTE   Fs1  v080
 BYTE   N04  Dn1  v110
 BYTE   N04  Cn1
 BYTE   W06
 BYTE   Fs1  v080
 BYTE   W06
 BYTE   As1  v110
 BYTE   W06
 BYTE   Dn1
 BYTE   W06
 BYTE   Fs1  v080
 BYTE   N04  Cn1  v110
 BYTE   W06
 BYTE   Fs1  v080
 BYTE   N04  Dn1  v110
 BYTE   W06
 BYTE   As1
 BYTE   W12
 BYTE   Fs1  v080
 BYTE   N04  Dn1  v110
 BYTE   N04  Cn1
 BYTE   W06
 BYTE   Fs1  v080
 BYTE   W06
 BYTE   As1  v110
 BYTE   W12
//  #05 //075   ----------------------------------------
 BYTE   Fs1  v080
 BYTE   N04  Cn1  v110
 BYTE   W06
 BYTE   Fs1  v080
 BYTE   W06
 BYTE   As1  v110
 BYTE   N04  Dn1
 BYTE   W12
 BYTE   Fs1  v080
 BYTE   N04  Dn1  v110
 BYTE   N04  Cn1
 BYTE   W06
 BYTE   Fs1  v080
 BYTE   W06
 BYTE   As1  v110
 BYTE   W06
 BYTE   Dn1
 BYTE   W06
 BYTE   Fs1  v080
 BYTE   N04  Cn1  v110
 BYTE   W06
 BYTE   Fs1  v080
 BYTE   N04  Dn1  v110
 BYTE   W06
 BYTE   As1
 BYTE   W06
 BYTE   Dn1
 BYTE   W06
 BYTE   Fs1  v080
 BYTE   N04  Dn1  v110
 BYTE   N04  Cn1
 BYTE   W06
 BYTE   Fs1  v080
 BYTE   W06
 BYTE   As1  v110
 BYTE   N04  Dn1
 BYTE   W12
//  #05 //076   ----------------------------------------
 BYTE   Fs1  v080
 BYTE   N04  Cn1  v110
 BYTE   W06
 BYTE   Fs1  v080
 BYTE   W06
 BYTE   As1  v110
 BYTE   W12
 BYTE   Fs1  v080
 BYTE   N04  Dn1  v110
 BYTE   N04  Cn1
 BYTE   W06
 BYTE   Fs1  v080
 BYTE   W06
 BYTE   As1  v110
 BYTE   W06
 BYTE   Dn1
 BYTE   W06
 BYTE   Fs1  v080
 BYTE   N04  Cn1  v110
 BYTE   W06
 BYTE   Fs1  v080
 BYTE   N04  Dn1  v110
 BYTE   W06
 BYTE   As1
 BYTE   W12
 BYTE   Fs1  v080
 BYTE   N04  Dn1  v110
 BYTE   N04  Cn1
 BYTE   W06
 BYTE   Fs1  v080
 BYTE   W06
 BYTE   As1  v110
 BYTE   W12
//  #05 //077   ----------------------------------------
 BYTE   Fs1  v080
 BYTE   N04  Cn1  v110
 BYTE   W06
 BYTE   Fs1  v080
 BYTE   W06
 BYTE   As1  v110
 BYTE   N04  Dn1
 BYTE   W12
 BYTE   Fs1  v080
 BYTE   N04  Dn1  v110
 BYTE   N04  Cn1
 BYTE   W06
 BYTE   Fs1  v080
 BYTE   W06
 BYTE   As1  v110
 BYTE   W06
 BYTE   Dn1
 BYTE   W06
 BYTE   Fs1  v080
 BYTE   N04  Cn1  v110
 BYTE   W06
 BYTE   Fs1  v080
 BYTE   N04  Dn1  v110
 BYTE   W06
 BYTE   As1
 BYTE   W06
 BYTE   Dn1
 BYTE   W06
 BYTE   Fs1  v080
 BYTE   N04  Dn1  v110
 BYTE   N04  Cn1
 BYTE   W06
 BYTE   Fs1  v080
 BYTE   W06
 BYTE   As1  v110
 BYTE   N04  Dn1
 BYTE   N07  Cn1  v109
 BYTE   W12
//  #05 //078   ----------------------------------------
 BYTE   N04  Fs1  v080
 BYTE   N04  Cn1  v110
 BYTE   W06
 BYTE   Fs1  v080
 BYTE   W06
 BYTE   As1  v110
 BYTE   W12
 BYTE   Fs1  v080
 BYTE   N04  Dn1  v110
 BYTE   N04  Cn1
 BYTE   W06
 BYTE   Fs1  v080
 BYTE   W06
 BYTE   As1  v110
 BYTE   W06
 BYTE   Dn1
 BYTE   W06
 BYTE   Fs1  v080
 BYTE   N04  Cn1  v110
 BYTE   W06
 BYTE   Fs1  v080
 BYTE   N04  Dn1  v110
 BYTE   W06
 BYTE   As1
 BYTE   W12
 BYTE   Fs1  v080
 BYTE   N04  Dn1  v110
 BYTE   N04  Cn1
 BYTE   W06
 BYTE   Fs1  v080
 BYTE   W06
 BYTE   As1  v110
 BYTE   W12
//  #05 //079   ----------------------------------------
 BYTE   Fs1  v080
 BYTE   N04  Cn1  v110
 BYTE   W06
 BYTE   Fs1  v080
 BYTE   W06
 BYTE   As1  v110
 BYTE   N04  Dn1
 BYTE   W12
 BYTE   Fs1  v080
 BYTE   N04  Dn1  v110
 BYTE   N04  Cn1
 BYTE   W06
 BYTE   Fs1  v080
 BYTE   W06
 BYTE   As1  v110
 BYTE   W06
 BYTE   Dn1
 BYTE   W06
 BYTE   Fs1  v080
 BYTE   N04  Cn1  v110
 BYTE   W06
 BYTE   Fs1  v080
 BYTE   N04  Dn1  v110
 BYTE   W06
 BYTE   As1
 BYTE   W06
 BYTE   Dn1
 BYTE   W06
 BYTE   Fs1  v080
 BYTE   N04  Dn1  v110
 BYTE   N04  Cn1
 BYTE   W06
 BYTE   Fs1  v080
 BYTE   W06
 BYTE   As1  v110
 BYTE   N04  Dn1
 BYTE   W12
//  #05 //080   ----------------------------------------
 BYTE   Fs1  v080
 BYTE   N04  Cn1  v110
 BYTE   W06
 BYTE   Fs1  v080
 BYTE   W06
 BYTE   As1  v110
 BYTE   W12
 BYTE   Fs1  v080
 BYTE   N04  Dn1  v110
 BYTE   N04  Cn1
 BYTE   W06
 BYTE   Fs1  v080
 BYTE   W06
 BYTE   As1  v110
 BYTE   W06
 BYTE   Dn1
 BYTE   W06
 BYTE   Fs1  v080
 BYTE   N04  Cn1  v110
 BYTE   W06
 BYTE   Fs1  v080
 BYTE   N04  Dn1  v110
 BYTE   W06
 BYTE   As1
 BYTE   W12
 BYTE   Fs1  v080
 BYTE   N04  Dn1  v110
 BYTE   N04  Cn1
 BYTE   W06
 BYTE   Fs1  v080
 BYTE   W06
 BYTE   As1  v110
 BYTE   W12
//  #05 //081   ----------------------------------------
 BYTE   Fs1  v080
 BYTE   N04  Cn1  v110
 BYTE   W06
 BYTE   Fs1  v080
 BYTE   W06
 BYTE   As1  v110
 BYTE   N04  Dn1
 BYTE   W12
 BYTE   Fs1  v080
 BYTE   N04  Dn1  v110
 BYTE   N04  Cn1
 BYTE   W06
 BYTE   Fs1  v080
 BYTE   W06
 BYTE   As1  v110
 BYTE   W06
 BYTE   Dn1
 BYTE   W06
 BYTE   Fs1  v080
 BYTE   N04  Cn1  v110
 BYTE   W06
 BYTE   Fs1  v080
 BYTE   N04  Dn1  v110
 BYTE   W06
 BYTE   As1
 BYTE   W06
 BYTE   Dn1
 BYTE   W06
 BYTE   Fs1  v080
 BYTE   N04  Dn1  v110
 BYTE   N04  Cn1
 BYTE   W06
 BYTE   Fs1  v080
 BYTE   W06
 BYTE   As1  v110
 BYTE   N04  Dn1
 BYTE   W12
//  #05 //082   ----------------------------------------
 BYTE   Fs1  v080
 BYTE   N04  Cn1  v110
 BYTE   W06
 BYTE   Fs1  v080
 BYTE   W06
 BYTE   As1  v110
 BYTE   W12
 BYTE   Fs1  v080
 BYTE   N04  Dn1  v110
 BYTE   N04  Cn1
 BYTE   W06
 BYTE   Fs1  v080
 BYTE   W06
 BYTE   As1  v110
 BYTE   W06
 BYTE   Dn1
 BYTE   W06
 BYTE   Fs1  v080
 BYTE   N04  Cn1  v110
 BYTE   W06
 BYTE   Fs1  v080
 BYTE   N04  Dn1  v110
 BYTE   W06
 BYTE   As1
 BYTE   W12
 BYTE   Fs1  v080
 BYTE   N04  Dn1  v110
 BYTE   N04  Cn1
 BYTE   W06
 BYTE   Fs1  v080
 BYTE   W06
 BYTE   As1  v110
 BYTE   W12
//  #05 //083   ----------------------------------------
 BYTE   Fs1  v080
 BYTE   N04  Cn1  v110
 BYTE   W06
 BYTE   Fs1  v080
 BYTE   W06
 BYTE   As1  v110
 BYTE   N04  Dn1
 BYTE   W12
 BYTE   Fs1  v080
 BYTE   N04  Dn1  v110
 BYTE   N04  Cn1
 BYTE   W06
 BYTE   Fs1  v080
 BYTE   W06
 BYTE   As1  v110
 BYTE   W06
 BYTE   Dn1
 BYTE   W06
 BYTE   Fs1  v080
 BYTE   N04  Cn1  v110
 BYTE   W06
 BYTE   Fs1  v080
 BYTE   N04  Dn1  v110
 BYTE   W06
 BYTE   As1
 BYTE   W06
 BYTE   Dn1
 BYTE   W06
 BYTE   Fs1  v080
 BYTE   N04  Dn1  v110
 BYTE   N04  Cn1
 BYTE   W06
 BYTE   Fs1  v080
 BYTE   W06
 BYTE   As1  v110
 BYTE   N04  Dn1
 BYTE   W12
//  #05 //084   ----------------------------------------
 BYTE   Fs1  v080
 BYTE   N04  Cn1  v110
 BYTE   W06
 BYTE   Fs1  v080
 BYTE   W06
 BYTE   As1  v110
 BYTE   W12
 BYTE   Fs1  v080
 BYTE   N04  Dn1  v110
 BYTE   N04  Cn1
 BYTE   W06
 BYTE   Fs1  v080
 BYTE   W06
 BYTE   As1  v110
 BYTE   W06
 BYTE   Dn1
 BYTE   W06
 BYTE   Fs1  v080
 BYTE   N04  Cn1  v110
 BYTE   W06
 BYTE   Fs1  v080
 BYTE   N04  Dn1  v110
 BYTE   W06
 BYTE   As1
 BYTE   W12
 BYTE   Fs1  v080
 BYTE   N04  Dn1  v110
 BYTE   N04  Cn1
 BYTE   W06
 BYTE   Fs1  v080
 BYTE   W06
 BYTE   As1  v110
 BYTE   W12
//  #05 //085   ----------------------------------------
 BYTE   Fs1  v080
 BYTE   N04  Cn1  v110
 BYTE   W06
 BYTE   Fs1  v080
 BYTE   W06
 BYTE   As1  v110
 BYTE   N04  Dn1
 BYTE   W12
 BYTE   Fs1  v080
 BYTE   N04  Dn1  v110
 BYTE   N04  Cn1
 BYTE   W06
 BYTE   Fs1  v080
 BYTE   W06
 BYTE   As1  v110
 BYTE   W06
 BYTE   Dn1
 BYTE   W06
 BYTE   Fs1  v080
 BYTE   N04  Cn1  v110
 BYTE   W06
 BYTE   Fs1  v080
 BYTE   N04  Dn1  v110
 BYTE   W06
 BYTE   As1
 BYTE   W06
 BYTE   Dn1
 BYTE   W06
 BYTE   Fs1  v080
 BYTE   N04  Dn1  v110
 BYTE   N04  Cn1
 BYTE   W06
 BYTE   Fs1  v080
 BYTE   W06
 BYTE   As1  v110
 BYTE   N04  Dn1
 BYTE   N07  Cn1  v109
 BYTE   W12
//  #05 //086   ----------------------------------------
 BYTE   N04  Fs1  v080
 BYTE   N04  Cn1  v110
 BYTE   W06
 BYTE   Fs1  v080
 BYTE   W06
 BYTE   As1  v110
 BYTE   W12
 BYTE   Fs1  v080
 BYTE   N04  Dn1  v110
 BYTE   N04  Cn1
 BYTE   W06
 BYTE   Fs1  v080
 BYTE   W06
 BYTE   As1  v110
 BYTE   W06
 BYTE   Dn1
 BYTE   W06
 BYTE   Fs1  v080
 BYTE   N04  Cn1  v110
 BYTE   W06
 BYTE   Fs1  v080
 BYTE   N04  Dn1  v110
 BYTE   W06
 BYTE   As1
 BYTE   W12
 BYTE   Fs1  v080
 BYTE   N04  Dn1  v110
 BYTE   N04  Cn1
 BYTE   W06
 BYTE   Fs1  v080
 BYTE   W06
 BYTE   As1  v110
 BYTE   W12
//  #05 //087   ----------------------------------------
 BYTE   Fs1  v080
 BYTE   N04  Dn1  v110
 BYTE   N04  Cn1
 BYTE   W06
 BYTE   Fs1  v080
 BYTE   N04  Dn1  v110
 BYTE   W06
 BYTE   As1
 BYTE   N04  Dn1
 BYTE   W06
 BYTE   Dn1
 BYTE   W06
 BYTE   Fs1  v080
 BYTE   N04  Dn1  v110
 BYTE   N04  Cn1
 BYTE   W06
 BYTE   Fs1  v080
 BYTE   W06
 BYTE   As1  v110
 BYTE   W06
 BYTE   Dn1
 BYTE   W06
 BYTE   Fs1  v080
 BYTE   N04  Dn1  v110
 BYTE   N04  Cn1
 BYTE   W06
 BYTE   Fs1  v080
 BYTE   W06
 BYTE   As1  v110
 BYTE   N04  Dn1
 BYTE   W12
 BYTE   Fs1  v080
 BYTE   N04  Dn1  v110
 BYTE   N04  Cn1
 BYTE   W06
 BYTE   Fs1  v080
 BYTE   W06
 BYTE   As1  v110
 BYTE   W12
//  #05 //088   ----------------------------------------
 BYTE   Fs1  v080
 BYTE   N04  Cn1  v110
 BYTE   W06
 BYTE   Fs1  v080
 BYTE   W06
 BYTE   As1  v110
 BYTE   W12
 BYTE   Fs1  v080
 BYTE   N04  Dn1  v110
 BYTE   N04  Cn1
 BYTE   W06
 BYTE   Fs1  v080
 BYTE   W06
 BYTE   As1  v110
 BYTE   W06
 BYTE   Dn1
 BYTE   W06
 BYTE   Fs1  v080
 BYTE   N04  Cn1  v110
 BYTE   W06
 BYTE   Fs1  v080
 BYTE   N04  Dn1  v110
 BYTE   W06
 BYTE   As1
 BYTE   W12
 BYTE   Fs1  v080
 BYTE   N04  Dn1  v110
 BYTE   N04  Cn1
 BYTE   W06
 BYTE   Fs1  v080
 BYTE   W06
 BYTE   As1  v110
 BYTE   W12
//  #05 //089   ----------------------------------------
 BYTE   Fs1  v080
 BYTE   N04  Cn1  v110
 BYTE   W06
 BYTE   Fs1  v080
 BYTE   W06
 BYTE   As1  v110
 BYTE   N04  Dn1
 BYTE   W12
 BYTE   Fs1  v080
 BYTE   N04  Dn1  v110
 BYTE   N04  Cn1
 BYTE   W06
 BYTE   Fs1  v080
 BYTE   W06
 BYTE   As1  v110
 BYTE   W06
 BYTE   Dn1
 BYTE   W06
 BYTE   Fs1  v080
 BYTE   N04  Cn1  v110
 BYTE   W06
 BYTE   Fs1  v080
 BYTE   N04  Dn1  v110
 BYTE   W06
 BYTE   As1
 BYTE   W06
 BYTE   Dn1
 BYTE   W06
 BYTE   Fs1  v080
 BYTE   N04  Dn1  v110
 BYTE   N04  Cn1
 BYTE   W06
 BYTE   Fs1  v080
 BYTE   W06
 BYTE   As1  v110
 BYTE   N04  Dn1
 BYTE   W12
//  #05 //090   ----------------------------------------
 BYTE   Fs1  v080
 BYTE   N04  Cn1  v110
 BYTE   W06
 BYTE   Fs1  v080
 BYTE   W06
 BYTE   As1  v110
 BYTE   W12
 BYTE   Fs1  v080
 BYTE   N04  Dn1  v110
 BYTE   N04  Cn1
 BYTE   W06
 BYTE   Fs1  v080
 BYTE   W06
 BYTE   As1  v110
 BYTE   W06
 BYTE   Dn1
 BYTE   W06
 BYTE   Fs1  v080
 BYTE   N04  Cn1  v110
 BYTE   W06
 BYTE   Fs1  v080
 BYTE   N04  Dn1  v110
 BYTE   W06
 BYTE   As1
 BYTE   W12
 BYTE   Fs1  v080
 BYTE   N04  Dn1  v110
 BYTE   N04  Cn1
 BYTE   W06
 BYTE   Fs1  v080
 BYTE   W06
 BYTE   As1  v110
 BYTE   W12
//  #05 //091   ----------------------------------------
 BYTE   Fs1  v080
 BYTE   N04  Cn1  v110
 BYTE   W06
 BYTE   Fs1  v080
 BYTE   W06
 BYTE   As1  v110
 BYTE   N04  Dn1
 BYTE   W12
 BYTE   Fs1  v080
 BYTE   N04  Dn1  v110
 BYTE   N04  Cn1
 BYTE   W06
 BYTE   Fs1  v080
 BYTE   W06
 BYTE   As1  v110
 BYTE   W06
 BYTE   Dn1
 BYTE   W06
 BYTE   Fs1  v080
 BYTE   N04  Cn1  v110
 BYTE   W06
 BYTE   Fs1  v080
 BYTE   N04  Dn1  v110
 BYTE   W06
 BYTE   As1
 BYTE   W06
 BYTE   Dn1
 BYTE   W06
 BYTE   Fs1  v080
 BYTE   N04  Dn1  v110
 BYTE   N04  Cn1
 BYTE   W06
 BYTE   Fs1  v080
 BYTE   W06
 BYTE   As1  v110
 BYTE   N04  Dn1
 BYTE   N07  Cn1  v109
 BYTE   W12
//  #05 //092   ----------------------------------------
 BYTE   N04  Fs1  v080
 BYTE   N04  Cn1  v110
 BYTE   W06
 BYTE   Fs1  v080
 BYTE   W06
 BYTE   As1  v110
 BYTE   W12
 BYTE   Fs1  v080
 BYTE   N04  Dn1  v110
 BYTE   N04  Cn1
 BYTE   W06
 BYTE   Fs1  v080
 BYTE   W06
 BYTE   As1  v110
 BYTE   W06
 BYTE   Dn1
 BYTE   W06
 BYTE   Fs1  v080
 BYTE   N04  Cn1  v110
 BYTE   W06
 BYTE   Fs1  v080
 BYTE   N04  Dn1  v110
 BYTE   W06
 BYTE   As1
 BYTE   W12
 BYTE   Fs1  v080
 BYTE   N04  Dn1  v110
 BYTE   N04  Cn1
 BYTE   W06
 BYTE   Fs1  v080
 BYTE   W06
 BYTE   As1  v110
 BYTE   W12
//  #05 //093   ----------------------------------------
 BYTE   Fs1  v080
 BYTE   N04  Cn1  v110
 BYTE   W06
 BYTE   Fs1  v080
 BYTE   W06
 BYTE   As1  v110
 BYTE   N04  Dn1
 BYTE   W12
 BYTE   Fs1  v080
 BYTE   N04  Dn1  v110
 BYTE   N04  Cn1
 BYTE   W06
 BYTE   Fs1  v080
 BYTE   W06
 BYTE   As1  v110
 BYTE   W06
 BYTE   Dn1
 BYTE   W06
 BYTE   Fs1  v080
 BYTE   N04  Cn1  v110
 BYTE   W06
 BYTE   Fs1  v080
 BYTE   N04  Dn1  v110
 BYTE   W06
 BYTE   As1
 BYTE   W06
 BYTE   Dn1
 BYTE   W06
 BYTE   Fs1  v080
 BYTE   N04  Dn1  v110
 BYTE   N04  Cn1
 BYTE   W06
 BYTE   Fs1  v080
 BYTE   W06
 BYTE   As1  v110
 BYTE   N04  Dn1
 BYTE   N05  Cn1  v109
 BYTE   W12
//  #05 //094   ----------------------------------------
 BYTE   N04  Fs1  v080
 BYTE   N04  Cn1  v110
 BYTE   W06
 BYTE   Fs1  v080
 BYTE   W06
 BYTE   As1  v110
 BYTE   W12
 BYTE   Fs1  v080
 BYTE   N04  Dn1  v110
 BYTE   N04  Cn1
 BYTE   W06
 BYTE   Fs1  v080
 BYTE   W06
 BYTE   As1  v110
 BYTE   W06
 BYTE   Dn1
 BYTE   W06
 BYTE   Fs1  v080
 BYTE   N04  Cn1  v110
 BYTE   W06
 BYTE   Fs1  v080
 BYTE   N04  Dn1  v110
 BYTE   W06
 BYTE   As1
 BYTE   W12
 BYTE   Fs1  v080
 BYTE   N04  Dn1  v110
 BYTE   N04  Cn1
 BYTE   W06
 BYTE   Fs1  v080
 BYTE   W06
 BYTE   As1  v110
 BYTE   W12
//  #05 //095   ----------------------------------------
 BYTE   Fs1  v080
 BYTE   N04  Dn1  v110
 BYTE   N04  Cn1
 BYTE   W06
 BYTE   Fs1  v080
 BYTE   N04  Dn1  v110
 BYTE   W06
 BYTE   As1
 BYTE   N04  Dn1
 BYTE   W06
 BYTE   Dn1
 BYTE   W06
 BYTE   Fs1  v080
 BYTE   N04  Dn1  v110
 BYTE   N04  Cn1
 BYTE   W06
 BYTE   Fs1  v080
 BYTE   W06
 BYTE   As1  v110
 BYTE   W06
 BYTE   Dn1
 BYTE   W06
 BYTE   Fs1  v080
 BYTE   N04  Dn1  v110
 BYTE   N04  Cn1
 BYTE   W06
 BYTE   Fs1  v080
 BYTE   W06
 BYTE   As1  v110
 BYTE   N04  Dn1
 BYTE   W12
 BYTE   Fs1  v080
 BYTE   N04  Dn1  v110
 BYTE   N04  Cn1
 BYTE   W06
 BYTE   Fs1  v080
 BYTE   W06
 BYTE   As1  v110
 BYTE   N05  Cn1  v109
 BYTE   W10
 BYTE   GoTo
  POIN2 Label_014D16F0
 BYTE   FINE

//******************************************************//
	ALIGN 4

SML2StarCourseLooped:
	BYTE	5	// NumTrks
	BYTE	0	// NumBlks
	BYTE	SML2StarCourseLooped_pri	// Priority
	BYTE	SML2StarCourseLooped_rev	// Reverb.
    
	POIN2	SML2StarCourseLooped_grp
    
	POIN2	SML2StarCourseLooped_001
	POIN2	SML2StarCourseLooped_002
	POIN2	SML2StarCourseLooped_003
	POIN2	SML2StarCourseLooped_004
	POIN2	SML2StarCourseLooped_005

	
