//Event file generated from Sappy .s format.
	

	#define	SMRPGTrouble_grp  voicegroup000
	#define	SMRPGTrouble_pri  0
	#define	SMRPGTrouble_rev  0
	#define	SMRPGTrouble_mvl  127
	#define	SMRPGTrouble_key  0
	#define	SMRPGTrouble_tbs  1
	#define	SMRPGTrouble_exg  0
	#define	SMRPGTrouble_cmp  1

	// .rodata
	//	SMRPGTrouble
	ALIGN 4


//**************** Track 1 (Midi-Chn.0) ****************//

SMRPGTrouble_001:
//  #01 //000   ----------------------------------------
 BYTE   KEYSH   SMRPGTrouble_key+0
Label_010DF542:
 BYTE   TEMPO   106*SMRPGTrouble_tbs/2
 BYTE   VOICE   36
 BYTE   VOL   61*SMRPGTrouble_mvl/mxv
 BYTE   N10  Cs1  v112
 BYTE   W24
 BYTE   N04  Gs1
 BYTE   W16
 BYTE   N07
 BYTE   W08
 BYTE   N10  Gs0
 BYTE   W24
 BYTE   Gs1
 BYTE   W24
//  #01 //001   ----------------------------------------
Label_010DF556:
 BYTE   N10  Cs1  v112
 BYTE   W24
 BYTE   N04  Gs1
 BYTE   W16
 BYTE   N07
 BYTE   W08
 BYTE   N10  Gs0
 BYTE   W24
 BYTE   Gs1
 BYTE   W24
 BYTE   PEND 
//  #01 //002   ----------------------------------------
 BYTE   PATT
  POIN2 Label_010DF556
//  #01 //003   ----------------------------------------
 BYTE   PATT
  POIN2 Label_010DF556
//  #01 //004   ----------------------------------------
 BYTE   PATT
  POIN2 Label_010DF556
//  #01 //005   ----------------------------------------
 BYTE   PATT
  POIN2 Label_010DF556
//  #01 //006   ----------------------------------------
 BYTE   W96
//  #01 //007   ----------------------------------------
 BYTE   W96
//  #01 //008   ----------------------------------------
Label_010DF57B:
 BYTE   N09  Fs0  v112
 BYTE   W16
 BYTE   N07
 BYTE   W08
 BYTE   N07
 BYTE   W16
 BYTE   N07
 BYTE   W08
 BYTE   N07
 BYTE   W16
 BYTE   N07
 BYTE   W08
 BYTE   N07
 BYTE   W16
 BYTE   N07
 BYTE   W08
 BYTE   PEND 
//  #01 //009   ----------------------------------------
 BYTE   PATT
  POIN2 Label_010DF57B
//  #01 //010   ----------------------------------------
 BYTE   PATT
  POIN2 Label_010DF57B
//  #01 //011   ----------------------------------------
Label_010DF598:
 BYTE   N09  Fs0  v112
 BYTE   W16
 BYTE   N07
 BYTE   W08
 BYTE   N07
 BYTE   W16
 BYTE   N07
 BYTE   W08
 BYTE   N48
 BYTE   W48
 BYTE   PEND 
//  #01 //012   ----------------------------------------
Label_010DF5A5:
 BYTE   N18  Cs1  v112
 BYTE   W24
 BYTE   N07  Gn1
 BYTE   W16
 BYTE   N07
 BYTE   W08
 BYTE   N15  Cs1
 BYTE   W24
 BYTE   Gs1
 BYTE   W24
 BYTE   PEND 
//  #01 //013   ----------------------------------------
Label_010DF5B4:
 BYTE   N15  As0  v112
 BYTE   W24
 BYTE   N10  En1
 BYTE   W16
 BYTE   N09
 BYTE   W08
 BYTE   N15  Gs0
 BYTE   W24
 BYTE   Ds1
 BYTE   W24
 BYTE   PEND 
//  #01 //014   ----------------------------------------
Label_010DF5C3:
 BYTE   N15  Cs1  v112
 BYTE   W24
 BYTE   N07  Gs1
 BYTE   W16
 BYTE   N07
 BYTE   W08
 BYTE   N15  Gs0
 BYTE   W24
 BYTE   Gs1
 BYTE   W24
 BYTE   PEND 
//  #01 //015   ----------------------------------------
Label_010DF5D2:
 BYTE   N07  Gs1  v112
 BYTE   W08
 BYTE   An1
 BYTE   W08
 BYTE   Gs1
 BYTE   W08
 BYTE   Fs1
 BYTE   W08
 BYTE   En1
 BYTE   W08
 BYTE   Ds1
 BYTE   W08
 BYTE   N18  Cs1
 BYTE   W24
 BYTE   N16  Cs2
 BYTE   W24
 BYTE   PEND 
//  #01 //016   ----------------------------------------
 BYTE   PATT
  POIN2 Label_010DF556
//  #01 //017   ----------------------------------------
 BYTE   PATT
  POIN2 Label_010DF556
//  #01 //018   ----------------------------------------
 BYTE   PATT
  POIN2 Label_010DF556
//  #01 //019   ----------------------------------------
 BYTE   PATT
  POIN2 Label_010DF556
//  #01 //020   ----------------------------------------
 BYTE   PATT
  POIN2 Label_010DF556
//  #01 //021   ----------------------------------------
 BYTE   PATT
  POIN2 Label_010DF556
//  #01 //022   ----------------------------------------
 BYTE   W96
//  #01 //023   ----------------------------------------
 BYTE   W96
//  #01 //024   ----------------------------------------
 BYTE   PATT
  POIN2 Label_010DF57B
//  #01 //025   ----------------------------------------
 BYTE   PATT
  POIN2 Label_010DF57B
//  #01 //026   ----------------------------------------
 BYTE   PATT
  POIN2 Label_010DF57B
//  #01 //027   ----------------------------------------
 BYTE   PATT
  POIN2 Label_010DF598
//  #01 //028   ----------------------------------------
 BYTE   PATT
  POIN2 Label_010DF5A5
//  #01 //029   ----------------------------------------
 BYTE   PATT
  POIN2 Label_010DF5B4
//  #01 //030   ----------------------------------------
 BYTE   PATT
  POIN2 Label_010DF5C3
//  #01 //031   ----------------------------------------
 BYTE   PATT
  POIN2 Label_010DF5D2
//  #01 //032   ----------------------------------------
 BYTE   PATT
  POIN2 Label_010DF556
//  #01 //033   ----------------------------------------
 BYTE   PATT
  POIN2 Label_010DF556
//  #01 //034   ----------------------------------------
 BYTE   PATT
  POIN2 Label_010DF556
//  #01 //035   ----------------------------------------
 BYTE   PATT
  POIN2 Label_010DF556
//  #01 //036   ----------------------------------------
 BYTE   PATT
  POIN2 Label_010DF556
//  #01 //037   ----------------------------------------
 BYTE   PATT
  POIN2 Label_010DF556
//  #01 //038   ----------------------------------------
 BYTE   W96
//  #01 //039   ----------------------------------------
 BYTE   W96
//  #01 //040   ----------------------------------------
 BYTE   PATT
  POIN2 Label_010DF57B
//  #01 //041   ----------------------------------------
 BYTE   PATT
  POIN2 Label_010DF57B
//  #01 //042   ----------------------------------------
 BYTE   PATT
  POIN2 Label_010DF57B
//  #01 //043   ----------------------------------------
 BYTE   PATT
  POIN2 Label_010DF598
//  #01 //044   ----------------------------------------
 BYTE   PATT
  POIN2 Label_010DF5A5
//  #01 //045   ----------------------------------------
 BYTE   PATT
  POIN2 Label_010DF5B4
//  #01 //046   ----------------------------------------
 BYTE   PATT
  POIN2 Label_010DF5C3
//  #01 //047   ----------------------------------------
 BYTE   PATT
  POIN2 Label_010DF5D2
//  #01 //048   ----------------------------------------
 BYTE   PATT
  POIN2 Label_010DF556
//  #01 //049   ----------------------------------------
 BYTE   PATT
  POIN2 Label_010DF556
//  #01 //050   ----------------------------------------
 BYTE   PATT
  POIN2 Label_010DF556
//  #01 //051   ----------------------------------------
 BYTE   PATT
  POIN2 Label_010DF556
//  #01 //052   ----------------------------------------
 BYTE   PATT
  POIN2 Label_010DF556
//  #01 //053   ----------------------------------------
 BYTE   PATT
  POIN2 Label_010DF556
//  #01 //054   ----------------------------------------
 BYTE   W96
//  #01 //055   ----------------------------------------
 BYTE   W96
//  #01 //056   ----------------------------------------
 BYTE   PATT
  POIN2 Label_010DF57B
//  #01 //057   ----------------------------------------
 BYTE   PATT
  POIN2 Label_010DF57B
//  #01 //058   ----------------------------------------
 BYTE   PATT
  POIN2 Label_010DF57B
//  #01 //059   ----------------------------------------
 BYTE   PATT
  POIN2 Label_010DF598
//  #01 //060   ----------------------------------------
 BYTE   PATT
  POIN2 Label_010DF5A5
//  #01 //061   ----------------------------------------
 BYTE   PATT
  POIN2 Label_010DF5B4
//  #01 //062   ----------------------------------------
 BYTE   PATT
  POIN2 Label_010DF5C3
//  #01 //063   ----------------------------------------
 BYTE   N07  Gs1  v112
 BYTE   W08
 BYTE   An1
 BYTE   W08
 BYTE   Gs1
 BYTE   W08
 BYTE   Fs1
 BYTE   W08
 BYTE   En1
 BYTE   W08
 BYTE   Ds1
 BYTE   W08
 BYTE   N18  Cs1
 BYTE   W24
 BYTE   N16  Cs2
 BYTE   W23
 BYTE   GoTo
  POIN2 Label_010DF542
 BYTE   FINE

//**************** Track 2 (Midi-Chn.1) ****************//

SMRPGTrouble_002:
//  #02 //000   ----------------------------------------
 BYTE   KEYSH   SMRPGTrouble_key+0
Label_010CD686:
 BYTE   VOICE   6
 BYTE   VOL   47*SMRPGTrouble_mvl/mxv
 BYTE   N12  Cs1  v112
 BYTE   N12  Cs2
 BYTE   W24
 BYTE   N10  Gs2
 BYTE   N10  Cs3
 BYTE   W16
 BYTE   N06  Gs2
 BYTE   N06  Cs3
 BYTE   W08
 BYTE   N12  Gs0
 BYTE   N12  Gs1
 BYTE   W24
 BYTE   Gs2
 BYTE   N12  Cs3
 BYTE   W24
//  #02 //001   ----------------------------------------
Label_010CD6A3:
 BYTE   N12  Cs1  v112
 BYTE   N12  Cs2
 BYTE   W24
 BYTE   N10  Gs2
 BYTE   N10  Cs3
 BYTE   W16
 BYTE   N06  Gs2
 BYTE   N06  Cs3
 BYTE   W08
 BYTE   N12  Gs0
 BYTE   N12  Gs1
 BYTE   W24
 BYTE   Gs2
 BYTE   N12  Cs3
 BYTE   W24
 BYTE   PEND 
//  #02 //002   ----------------------------------------
 BYTE   PATT
  POIN2 Label_010CD6A3
//  #02 //003   ----------------------------------------
 BYTE   PATT
  POIN2 Label_010CD6A3
//  #02 //004   ----------------------------------------
 BYTE   PATT
  POIN2 Label_010CD6A3
//  #02 //005   ----------------------------------------
 BYTE   PATT
  POIN2 Label_010CD6A3
//  #02 //006   ----------------------------------------
Label_010CD6D1:
 BYTE   N07  Ds1  v112
 BYTE   N07  Ds2
 BYTE   W08
 BYTE   Fn1
 BYTE   N07  Fn2
 BYTE   W08
 BYTE   En1
 BYTE   N07  En2
 BYTE   W08
 BYTE   Ds1
 BYTE   N07  Ds2
 BYTE   W16
 BYTE   As0
 BYTE   N07  As1
 BYTE   W08
 BYTE   N21  Cs1
 BYTE   N21  Cs2
 BYTE   W24
 BYTE   N09  Bn0
 BYTE   N07  Bn1
 BYTE   W24
 BYTE   PEND 
//  #02 //007   ----------------------------------------
Label_010CD6F2:
 BYTE   W08
 BYTE   N07  Gs0  v112
 BYTE   N07  Gs1
 BYTE   W08
 BYTE   As0
 BYTE   N07  As1
 BYTE   W08
 BYTE   Bn0
 BYTE   N07  Bn1
 BYTE   W08
 BYTE   En1
 BYTE   N07  En2
 BYTE   W08
 BYTE   Ds1
 BYTE   N07  Ds2
 BYTE   W08
 BYTE   N36  Dn1
 BYTE   N32  Dn2
 BYTE   W48
 BYTE   PEND 
//  #02 //008   ----------------------------------------
 BYTE   W96
//  #02 //009   ----------------------------------------
 BYTE   W96
//  #02 //010   ----------------------------------------
 BYTE   W96
//  #02 //011   ----------------------------------------
 BYTE   W96
//  #02 //012   ----------------------------------------
Label_010CD713:
 BYTE   N15  Cs1  v112
 BYTE   N15  Cs2
 BYTE   W24
 BYTE   N07  Ds2
 BYTE   N07  As2
 BYTE   W16
 BYTE   Ds2
 BYTE   N07  As2
 BYTE   W08
 BYTE   N16  Cs1
 BYTE   N16  Cs2
 BYTE   W24
 BYTE   N18  Gs2
 BYTE   N18  Cs3
 BYTE   W24
 BYTE   PEND 
//  #02 //013   ----------------------------------------
Label_010CD72D:
 BYTE   N21  An1  v112
 BYTE   N18  An2
 BYTE   W24
 BYTE   N07  En2
 BYTE   N07  Cs3
 BYTE   W16
 BYTE   En2
 BYTE   N07  Cs3
 BYTE   W08
 BYTE   N21  Gs1
 BYTE   N18  Gs2
 BYTE   W24
 BYTE   N21  Ds2
 BYTE   N18  Cn3
 BYTE   W24
 BYTE   PEND 
//  #02 //014   ----------------------------------------
Label_010CD747:
 BYTE   N12  Cs1  v112
 BYTE   N12  Cs2
 BYTE   W24
 BYTE   N10  En2
 BYTE   N10  Cs3
 BYTE   W16
 BYTE   N07  En2
 BYTE   N07  Cs3
 BYTE   W08
 BYTE   N12  Gs0
 BYTE   N12  Gs1
 BYTE   W24
 BYTE   En2
 BYTE   N12  Cs3
 BYTE   W24
 BYTE   PEND 
//  #02 //015   ----------------------------------------
Label_010CD761:
 BYTE   N07  En2  v112
 BYTE   N07  Gs2
 BYTE   W16
 BYTE   En2
 BYTE   N07  Gs2
 BYTE   W08
 BYTE   Fs2
 BYTE   N07  Cn3
 BYTE   W16
 BYTE   Fs2
 BYTE   N07  Cn3
 BYTE   W08
 BYTE   N18  En2
 BYTE   N18  Cs3
 BYTE   W24
 BYTE   En3
 BYTE   N18  Cs4
 BYTE   W24
 BYTE   PEND 
//  #02 //016   ----------------------------------------
Label_010CD77D:
 BYTE   N12  Cs1  v112
 BYTE   N12  Cs2
 BYTE   W24
 BYTE   N10  Gs2
 BYTE   N10  Cs3
 BYTE   W16
 BYTE   N06  Gs2
 BYTE   N06  Cs3
 BYTE   W08
 BYTE   N12  Gs0
 BYTE   N12  Gs1
 BYTE   W24
 BYTE   Gs2
 BYTE   N12  Cs3
 BYTE   W24
 BYTE   PEND 
//  #02 //017   ----------------------------------------
 BYTE   PATT
  POIN2 Label_010CD6A3
//  #02 //018   ----------------------------------------
 BYTE   PATT
  POIN2 Label_010CD6A3
//  #02 //019   ----------------------------------------
 BYTE   PATT
  POIN2 Label_010CD6A3
//  #02 //020   ----------------------------------------
 BYTE   PATT
  POIN2 Label_010CD6A3
//  #02 //021   ----------------------------------------
 BYTE   PATT
  POIN2 Label_010CD6A3
//  #02 //022   ----------------------------------------
 BYTE   PATT
  POIN2 Label_010CD6D1
//  #02 //023   ----------------------------------------
 BYTE   PATT
  POIN2 Label_010CD6F2
//  #02 //024   ----------------------------------------
 BYTE   W96
//  #02 //025   ----------------------------------------
 BYTE   W96
//  #02 //026   ----------------------------------------
 BYTE   W96
//  #02 //027   ----------------------------------------
 BYTE   W96
//  #02 //028   ----------------------------------------
 BYTE   PATT
  POIN2 Label_010CD713
//  #02 //029   ----------------------------------------
 BYTE   PATT
  POIN2 Label_010CD72D
//  #02 //030   ----------------------------------------
 BYTE   PATT
  POIN2 Label_010CD747
//  #02 //031   ----------------------------------------
 BYTE   PATT
  POIN2 Label_010CD761
//  #02 //032   ----------------------------------------
 BYTE   PATT
  POIN2 Label_010CD77D
//  #02 //033   ----------------------------------------
 BYTE   PATT
  POIN2 Label_010CD6A3
//  #02 //034   ----------------------------------------
 BYTE   PATT
  POIN2 Label_010CD6A3
//  #02 //035   ----------------------------------------
 BYTE   PATT
  POIN2 Label_010CD6A3
//  #02 //036   ----------------------------------------
 BYTE   PATT
  POIN2 Label_010CD6A3
//  #02 //037   ----------------------------------------
 BYTE   PATT
  POIN2 Label_010CD6A3
//  #02 //038   ----------------------------------------
 BYTE   PATT
  POIN2 Label_010CD6D1
//  #02 //039   ----------------------------------------
 BYTE   PATT
  POIN2 Label_010CD6F2
//  #02 //040   ----------------------------------------
 BYTE   W96
//  #02 //041   ----------------------------------------
 BYTE   W96
//  #02 //042   ----------------------------------------
 BYTE   W96
//  #02 //043   ----------------------------------------
 BYTE   W96
//  #02 //044   ----------------------------------------
 BYTE   PATT
  POIN2 Label_010CD713
//  #02 //045   ----------------------------------------
 BYTE   PATT
  POIN2 Label_010CD72D
//  #02 //046   ----------------------------------------
 BYTE   PATT
  POIN2 Label_010CD747
//  #02 //047   ----------------------------------------
 BYTE   PATT
  POIN2 Label_010CD761
//  #02 //048   ----------------------------------------
 BYTE   PATT
  POIN2 Label_010CD77D
//  #02 //049   ----------------------------------------
 BYTE   PATT
  POIN2 Label_010CD6A3
//  #02 //050   ----------------------------------------
 BYTE   PATT
  POIN2 Label_010CD6A3
//  #02 //051   ----------------------------------------
 BYTE   PATT
  POIN2 Label_010CD6A3
//  #02 //052   ----------------------------------------
 BYTE   PATT
  POIN2 Label_010CD6A3
//  #02 //053   ----------------------------------------
 BYTE   PATT
  POIN2 Label_010CD6A3
//  #02 //054   ----------------------------------------
 BYTE   PATT
  POIN2 Label_010CD6D1
//  #02 //055   ----------------------------------------
 BYTE   PATT
  POIN2 Label_010CD6F2
//  #02 //056   ----------------------------------------
 BYTE   W96
//  #02 //057   ----------------------------------------
 BYTE   W96
//  #02 //058   ----------------------------------------
 BYTE   W96
//  #02 //059   ----------------------------------------
 BYTE   W96
//  #02 //060   ----------------------------------------
 BYTE   PATT
  POIN2 Label_010CD713
//  #02 //061   ----------------------------------------
 BYTE   PATT
  POIN2 Label_010CD72D
//  #02 //062   ----------------------------------------
 BYTE   PATT
  POIN2 Label_010CD747
//  #02 //063   ----------------------------------------
 BYTE   N07  En2  v112
 BYTE   N07  Gs2
 BYTE   W16
 BYTE   En2
 BYTE   N07  Gs2
 BYTE   W08
 BYTE   Fs2
 BYTE   N07  Cn3
 BYTE   W16
 BYTE   Fs2
 BYTE   N07  Cn3
 BYTE   W08
 BYTE   N18  En2
 BYTE   N18  Cs3
 BYTE   W24
 BYTE   En3
 BYTE   N18  Cs4
 BYTE   W23
 BYTE   GoTo
  POIN2 Label_010CD686
 BYTE   FINE

//**************** Track 3 (Midi-Chn.2) ****************//

SMRPGTrouble_003:
//  #03 //000   ----------------------------------------
 BYTE   KEYSH   SMRPGTrouble_key+0
Label_011DF252:
 BYTE   VOICE   0
 BYTE   VOL   42*SMRPGTrouble_mvl/mxv
 BYTE   PAN   c_v-1
 BYTE   W96
//  #03 //001   ----------------------------------------
 BYTE   W96
//  #03 //002   ----------------------------------------
 BYTE   W96
//  #03 //003   ----------------------------------------
 BYTE   W96
//  #03 //004   ----------------------------------------
 BYTE   W96
//  #03 //005   ----------------------------------------
 BYTE   W96
//  #03 //006   ----------------------------------------
Label_011DF25E:
 BYTE   N07  Ds1  v112
 BYTE   N07  Ds2
 BYTE   W08
 BYTE   Fn1
 BYTE   N06  Fn2
 BYTE   W08
 BYTE   N07  En1
 BYTE   N07  En2
 BYTE   W08
 BYTE   Ds1
 BYTE   N07  Ds2
 BYTE   W16
 BYTE   As0
 BYTE   N07  As1
 BYTE   W08
 BYTE   N21  Cs1
 BYTE   N22  Cs2
 BYTE   W24
 BYTE   N09  Bn0
 BYTE   N09  Bn1
 BYTE   W24
 BYTE   PEND 
//  #03 //007   ----------------------------------------
Label_011DF280:
 BYTE   W08
 BYTE   N07  Gs0  v112
 BYTE   N07  Gs1
 BYTE   W08
 BYTE   As0
 BYTE   N07  As1
 BYTE   W08
 BYTE   Bn0
 BYTE   N07  Bn1
 BYTE   W08
 BYTE   N06  En1
 BYTE   N07  En2
 BYTE   W08
 BYTE   Ds1
 BYTE   N07  Ds2
 BYTE   W08
 BYTE   N44  Dn1
 BYTE   N44  Dn2
 BYTE   W48
 BYTE   PEND 
//  #03 //008   ----------------------------------------
 BYTE   W96
//  #03 //009   ----------------------------------------
 BYTE   W96
//  #03 //010   ----------------------------------------
 BYTE   W96
//  #03 //011   ----------------------------------------
 BYTE   W96
//  #03 //012   ----------------------------------------
 BYTE   W96
//  #03 //013   ----------------------------------------
 BYTE   W96
//  #03 //014   ----------------------------------------
 BYTE   W96
//  #03 //015   ----------------------------------------
 BYTE   W96
//  #03 //016   ----------------------------------------
 BYTE   PAN   c_v-1
 BYTE   W96
//  #03 //017   ----------------------------------------
 BYTE   W96
//  #03 //018   ----------------------------------------
 BYTE   W96
//  #03 //019   ----------------------------------------
 BYTE   W96
//  #03 //020   ----------------------------------------
 BYTE   W96
//  #03 //021   ----------------------------------------
 BYTE   W96
//  #03 //022   ----------------------------------------
 BYTE   PATT
  POIN2 Label_011DF25E
//  #03 //023   ----------------------------------------
 BYTE   PATT
  POIN2 Label_011DF280
//  #03 //024   ----------------------------------------
 BYTE   W96
//  #03 //025   ----------------------------------------
 BYTE   W96
//  #03 //026   ----------------------------------------
 BYTE   W96
//  #03 //027   ----------------------------------------
 BYTE   W96
//  #03 //028   ----------------------------------------
 BYTE   W96
//  #03 //029   ----------------------------------------
 BYTE   W96
//  #03 //030   ----------------------------------------
 BYTE   W96
//  #03 //031   ----------------------------------------
 BYTE   W96
//  #03 //032   ----------------------------------------
 BYTE   PAN   c_v-1
 BYTE   W96
//  #03 //033   ----------------------------------------
 BYTE   W96
//  #03 //034   ----------------------------------------
 BYTE   W96
//  #03 //035   ----------------------------------------
 BYTE   W96
//  #03 //036   ----------------------------------------
 BYTE   W96
//  #03 //037   ----------------------------------------
 BYTE   W96
//  #03 //038   ----------------------------------------
 BYTE   PATT
  POIN2 Label_011DF25E
//  #03 //039   ----------------------------------------
 BYTE   PATT
  POIN2 Label_011DF280
//  #03 //040   ----------------------------------------
 BYTE   W96
//  #03 //041   ----------------------------------------
 BYTE   W96
//  #03 //042   ----------------------------------------
 BYTE   W96
//  #03 //043   ----------------------------------------
 BYTE   W96
//  #03 //044   ----------------------------------------
 BYTE   W96
//  #03 //045   ----------------------------------------
 BYTE   W96
//  #03 //046   ----------------------------------------
 BYTE   W96
//  #03 //047   ----------------------------------------
 BYTE   W96
//  #03 //048   ----------------------------------------
 BYTE   PAN   c_v-1
 BYTE   W96
//  #03 //049   ----------------------------------------
 BYTE   W96
//  #03 //050   ----------------------------------------
 BYTE   W96
//  #03 //051   ----------------------------------------
 BYTE   W96
//  #03 //052   ----------------------------------------
 BYTE   W96
//  #03 //053   ----------------------------------------
 BYTE   W96
//  #03 //054   ----------------------------------------
 BYTE   PATT
  POIN2 Label_011DF25E
//  #03 //055   ----------------------------------------
 BYTE   PATT
  POIN2 Label_011DF280
//  #03 //056   ----------------------------------------
 BYTE   W96
//  #03 //057   ----------------------------------------
 BYTE   W96
//  #03 //058   ----------------------------------------
 BYTE   W96
//  #03 //059   ----------------------------------------
 BYTE   W96
//  #03 //060   ----------------------------------------
 BYTE   W96
//  #03 //061   ----------------------------------------
 BYTE   W96
//  #03 //062   ----------------------------------------
 BYTE   W96
//  #03 //063   ----------------------------------------
 BYTE   W92
 BYTE   W03
 BYTE   GoTo
  POIN2 Label_011DF252
 BYTE   FINE

//**************** Track 4 (Midi-Chn.3) ****************//

SMRPGTrouble_004:
//  #04 //000   ----------------------------------------
 BYTE   KEYSH   SMRPGTrouble_key+0
Label_010DF91A:
 BYTE   VOICE   50
 BYTE   VOL   12*SMRPGTrouble_mvl/mxv
 BYTE   TIE  En3  v112
 BYTE   TIE  Gs3
 BYTE   W15
 BYTE   VOL   13*SMRPGTrouble_mvl/mxv
 BYTE   W02
 BYTE   VOL   14*SMRPGTrouble_mvl/mxv
 BYTE   W01
 BYTE   VOL   14*SMRPGTrouble_mvl/mxv
 BYTE   W01
 BYTE   VOL   15*SMRPGTrouble_mvl/mxv
 BYTE   W01
 BYTE   VOL   15*SMRPGTrouble_mvl/mxv
 BYTE   W01
 BYTE   VOL   16*SMRPGTrouble_mvl/mxv
 BYTE   W01
 BYTE   VOL   17*SMRPGTrouble_mvl/mxv
 BYTE   W01
 BYTE   VOL   17*SMRPGTrouble_mvl/mxv
 BYTE   W02
 BYTE   VOL   18*SMRPGTrouble_mvl/mxv
 BYTE   W03
 BYTE   VOL   19*SMRPGTrouble_mvl/mxv
 BYTE   W02
 BYTE   VOL   19*SMRPGTrouble_mvl/mxv
 BYTE   W01
 BYTE   VOL   20*SMRPGTrouble_mvl/mxv
 BYTE   W01
 BYTE   VOL   21*SMRPGTrouble_mvl/mxv
 BYTE   W01
 BYTE   VOL   21*SMRPGTrouble_mvl/mxv
 BYTE   W02
 BYTE   VOL   22*SMRPGTrouble_mvl/mxv
 BYTE   W01
 BYTE   VOL   22*SMRPGTrouble_mvl/mxv
 BYTE   W02
 BYTE   VOL   24*SMRPGTrouble_mvl/mxv
 BYTE   W01
 BYTE   VOL   24*SMRPGTrouble_mvl/mxv
 BYTE   W02
 BYTE   VOL   26*SMRPGTrouble_mvl/mxv
 BYTE   W01
 BYTE   VOL   26*SMRPGTrouble_mvl/mxv
 BYTE   W01
 BYTE   VOL   27*SMRPGTrouble_mvl/mxv
 BYTE   W01
 BYTE   VOL   27*SMRPGTrouble_mvl/mxv
 BYTE   W01
 BYTE   VOL   28*SMRPGTrouble_mvl/mxv
 BYTE   W01
 BYTE   VOL   29*SMRPGTrouble_mvl/mxv
 BYTE   W01
 BYTE   VOL   29*SMRPGTrouble_mvl/mxv
 BYTE   W01
 BYTE   VOL   30*SMRPGTrouble_mvl/mxv
 BYTE   W01
 BYTE   VOL   31*SMRPGTrouble_mvl/mxv
 BYTE   W01
 BYTE   VOL   31*SMRPGTrouble_mvl/mxv
 BYTE   W02
 BYTE   VOL   32*SMRPGTrouble_mvl/mxv
 BYTE   W01
 BYTE   VOL   32*SMRPGTrouble_mvl/mxv
 BYTE   W01
 BYTE   VOL   33*SMRPGTrouble_mvl/mxv
 BYTE   W05
 BYTE   VOL   34*SMRPGTrouble_mvl/mxv
 BYTE   W05
 BYTE   VOL   34*SMRPGTrouble_mvl/mxv
 BYTE   W03
 BYTE   VOL   35*SMRPGTrouble_mvl/mxv
 BYTE   W02
 BYTE   VOL   36*SMRPGTrouble_mvl/mxv
 BYTE   W03
 BYTE   VOL   36*SMRPGTrouble_mvl/mxv
 BYTE   W01
 BYTE   VOL   37*SMRPGTrouble_mvl/mxv
 BYTE   W01
 BYTE   VOL   38*SMRPGTrouble_mvl/mxv
 BYTE   W01
 BYTE   VOL   39*SMRPGTrouble_mvl/mxv
 BYTE   W01
 BYTE   VOL   39*SMRPGTrouble_mvl/mxv
 BYTE   W01
 BYTE   VOL   40*SMRPGTrouble_mvl/mxv
 BYTE   W01
 BYTE   VOL   41*SMRPGTrouble_mvl/mxv
 BYTE   W01
 BYTE   VOL   42*SMRPGTrouble_mvl/mxv
 BYTE   W01
 BYTE   VOL   43*SMRPGTrouble_mvl/mxv
 BYTE   W01
 BYTE   VOL   43*SMRPGTrouble_mvl/mxv
 BYTE   W01
 BYTE   VOL   44*SMRPGTrouble_mvl/mxv
 BYTE   W01
 BYTE   VOL   44*SMRPGTrouble_mvl/mxv
 BYTE   W01
 BYTE   VOL   45*SMRPGTrouble_mvl/mxv
 BYTE   W01
 BYTE   VOL   46*SMRPGTrouble_mvl/mxv
 BYTE   W02
 BYTE   VOL   46*SMRPGTrouble_mvl/mxv
 BYTE   W01
 BYTE   VOL   47*SMRPGTrouble_mvl/mxv
 BYTE   W02
 BYTE   VOL   48*SMRPGTrouble_mvl/mxv
 BYTE   W01
 BYTE   VOL   47*SMRPGTrouble_mvl/mxv
 BYTE   W05
//  #04 //001   ----------------------------------------
Label_010DF98F:
 BYTE   W24
 BYTE   W02
 BYTE   VOL   46*SMRPGTrouble_mvl/mxv
 BYTE   W02
 BYTE   VOL   46*SMRPGTrouble_mvl/mxv
 BYTE   W01
 BYTE   VOL   45*SMRPGTrouble_mvl/mxv
 BYTE   W01
 BYTE   VOL   44*SMRPGTrouble_mvl/mxv
 BYTE   W01
 BYTE   VOL   44*SMRPGTrouble_mvl/mxv
 BYTE   W01
 BYTE   VOL   43*SMRPGTrouble_mvl/mxv
 BYTE   W01
 BYTE   VOL   43*SMRPGTrouble_mvl/mxv
 BYTE   W01
 BYTE   VOL   41*SMRPGTrouble_mvl/mxv
 BYTE   W01
 BYTE   VOL   41*SMRPGTrouble_mvl/mxv
 BYTE   W01
 BYTE   VOL   40*SMRPGTrouble_mvl/mxv
 BYTE   W01
 BYTE   VOL   39*SMRPGTrouble_mvl/mxv
 BYTE   W01
 BYTE   VOL   38*SMRPGTrouble_mvl/mxv
 BYTE   W01
 BYTE   VOL   37*SMRPGTrouble_mvl/mxv
 BYTE   W01
 BYTE   VOL   36*SMRPGTrouble_mvl/mxv
 BYTE   W02
 BYTE   VOL   36*SMRPGTrouble_mvl/mxv
 BYTE   W01
 BYTE   VOL   35*SMRPGTrouble_mvl/mxv
 BYTE   W01
 BYTE   VOL   34*SMRPGTrouble_mvl/mxv
 BYTE   W01
 BYTE   VOL   33*SMRPGTrouble_mvl/mxv
 BYTE   W01
 BYTE   VOL   32*SMRPGTrouble_mvl/mxv
 BYTE   W01
 BYTE   VOL   31*SMRPGTrouble_mvl/mxv
 BYTE   W01
 BYTE   VOL   30*SMRPGTrouble_mvl/mxv
 BYTE   W01
 BYTE   VOL   29*SMRPGTrouble_mvl/mxv
 BYTE   W01
 BYTE   VOL   29*SMRPGTrouble_mvl/mxv
 BYTE   W01
 BYTE   VOL   28*SMRPGTrouble_mvl/mxv
 BYTE   W01
 BYTE   VOL   27*SMRPGTrouble_mvl/mxv
 BYTE   W01
 BYTE   VOL   26*SMRPGTrouble_mvl/mxv
 BYTE   W01
 BYTE   VOL   25*SMRPGTrouble_mvl/mxv
 BYTE   W01
 BYTE   VOL   24*SMRPGTrouble_mvl/mxv
 BYTE   W01
 BYTE   VOL   23*SMRPGTrouble_mvl/mxv
 BYTE   W01
 BYTE   VOL   22*SMRPGTrouble_mvl/mxv
 BYTE   W01
 BYTE   VOL   22*SMRPGTrouble_mvl/mxv
 BYTE   W01
 BYTE   VOL   21*SMRPGTrouble_mvl/mxv
 BYTE   W01
 BYTE   VOL   21*SMRPGTrouble_mvl/mxv
 BYTE   W01
 BYTE   VOL   20*SMRPGTrouble_mvl/mxv
 BYTE   W01
 BYTE   VOL   19*SMRPGTrouble_mvl/mxv
 BYTE   W02
 BYTE   VOL   19*SMRPGTrouble_mvl/mxv
 BYTE   W01
 BYTE   VOL   18*SMRPGTrouble_mvl/mxv
 BYTE   W01
 BYTE   VOL   17*SMRPGTrouble_mvl/mxv
 BYTE   W02
 BYTE   VOL   17*SMRPGTrouble_mvl/mxv
 BYTE   W02
 BYTE   VOL   16*SMRPGTrouble_mvl/mxv
 BYTE   W01
 BYTE   VOL   15*SMRPGTrouble_mvl/mxv
 BYTE   W02
 BYTE   VOL   15*SMRPGTrouble_mvl/mxv
 BYTE   W02
 BYTE   VOL   14*SMRPGTrouble_mvl/mxv
 BYTE   W05
 BYTE   VOL   14*SMRPGTrouble_mvl/mxv
 BYTE   W08
 BYTE   VOL   13*SMRPGTrouble_mvl/mxv
 BYTE   W04
 BYTE   VOL   12*SMRPGTrouble_mvl/mxv
 BYTE   W02
 BYTE   PEND 
 BYTE   EOT
 BYTE   En3  v068
 BYTE   VOL   12*SMRPGTrouble_mvl/mxv
 BYTE   W01
 BYTE   VOL   11*SMRPGTrouble_mvl/mxv
 BYTE   W01
//  #04 //002   ----------------------------------------
Label_010DF9F7:
 BYTE   TIE  En3  v112
 BYTE   TIE  Gs3
 BYTE   W22
 BYTE   VOL   12*SMRPGTrouble_mvl/mxv
 BYTE   W02
 BYTE   VOL   12*SMRPGTrouble_mvl/mxv
 BYTE   W02
 BYTE   VOL   13*SMRPGTrouble_mvl/mxv
 BYTE   W02
 BYTE   VOL   14*SMRPGTrouble_mvl/mxv
 BYTE   W01
 BYTE   VOL   14*SMRPGTrouble_mvl/mxv
 BYTE   W01
 BYTE   VOL   15*SMRPGTrouble_mvl/mxv
 BYTE   W01
 BYTE   VOL   16*SMRPGTrouble_mvl/mxv
 BYTE   W01
 BYTE   VOL   17*SMRPGTrouble_mvl/mxv
 BYTE   W01
 BYTE   VOL   17*SMRPGTrouble_mvl/mxv
 BYTE   W01
 BYTE   VOL   18*SMRPGTrouble_mvl/mxv
 BYTE   W03
 BYTE   VOL   19*SMRPGTrouble_mvl/mxv
 BYTE   W01
 BYTE   VOL   19*SMRPGTrouble_mvl/mxv
 BYTE   W01
 BYTE   VOL   21*SMRPGTrouble_mvl/mxv
 BYTE   W01
 BYTE   VOL   21*SMRPGTrouble_mvl/mxv
 BYTE   W01
 BYTE   VOL   22*SMRPGTrouble_mvl/mxv
 BYTE   W01
 BYTE   VOL   22*SMRPGTrouble_mvl/mxv
 BYTE   W02
 BYTE   VOL   23*SMRPGTrouble_mvl/mxv
 BYTE   W01
 BYTE   VOL   24*SMRPGTrouble_mvl/mxv
 BYTE   W01
 BYTE   VOL   24*SMRPGTrouble_mvl/mxv
 BYTE   W01
 BYTE   VOL   25*SMRPGTrouble_mvl/mxv
 BYTE   W01
 BYTE   VOL   26*SMRPGTrouble_mvl/mxv
 BYTE   W01
 BYTE   VOL   27*SMRPGTrouble_mvl/mxv
 BYTE   W01
 BYTE   VOL   28*SMRPGTrouble_mvl/mxv
 BYTE   W01
 BYTE   VOL   29*SMRPGTrouble_mvl/mxv
 BYTE   W01
 BYTE   VOL   29*SMRPGTrouble_mvl/mxv
 BYTE   W01
 BYTE   VOL   31*SMRPGTrouble_mvl/mxv
 BYTE   W01
 BYTE   VOL   31*SMRPGTrouble_mvl/mxv
 BYTE   W01
 BYTE   VOL   32*SMRPGTrouble_mvl/mxv
 BYTE   W01
 BYTE   VOL   34*SMRPGTrouble_mvl/mxv
 BYTE   W01
 BYTE   VOL   34*SMRPGTrouble_mvl/mxv
 BYTE   W01
 BYTE   VOL   35*SMRPGTrouble_mvl/mxv
 BYTE   W01
 BYTE   VOL   36*SMRPGTrouble_mvl/mxv
 BYTE   W01
 BYTE   VOL   36*SMRPGTrouble_mvl/mxv
 BYTE   W01
 BYTE   VOL   38*SMRPGTrouble_mvl/mxv
 BYTE   W01
 BYTE   VOL   38*SMRPGTrouble_mvl/mxv
 BYTE   W01
 BYTE   VOL   39*SMRPGTrouble_mvl/mxv
 BYTE   W01
 BYTE   VOL   39*SMRPGTrouble_mvl/mxv
 BYTE   W02
 BYTE   VOL   40*SMRPGTrouble_mvl/mxv
 BYTE   W01
 BYTE   VOL   41*SMRPGTrouble_mvl/mxv
 BYTE   W01
 BYTE   VOL   41*SMRPGTrouble_mvl/mxv
 BYTE   W01
 BYTE   VOL   42*SMRPGTrouble_mvl/mxv
 BYTE   W02
 BYTE   VOL   43*SMRPGTrouble_mvl/mxv
 BYTE   W01
 BYTE   VOL   43*SMRPGTrouble_mvl/mxv
 BYTE   W01
 BYTE   VOL   44*SMRPGTrouble_mvl/mxv
 BYTE   W02
 BYTE   VOL   44*SMRPGTrouble_mvl/mxv
 BYTE   W02
 BYTE   VOL   45*SMRPGTrouble_mvl/mxv
 BYTE   W01
 BYTE   VOL   46*SMRPGTrouble_mvl/mxv
 BYTE   W04
 BYTE   VOL   46*SMRPGTrouble_mvl/mxv
 BYTE   W03
 BYTE   VOL   47*SMRPGTrouble_mvl/mxv
 BYTE   W05
 BYTE   VOL   48*SMRPGTrouble_mvl/mxv
 BYTE   W06
 BYTE   PEND 
//  #04 //003   ----------------------------------------
Label_010DFA63:
 BYTE   W10
 BYTE   VOL   47*SMRPGTrouble_mvl/mxv
 BYTE   W01
 BYTE   VOL   46*SMRPGTrouble_mvl/mxv
 BYTE   W01
 BYTE   VOL   46*SMRPGTrouble_mvl/mxv
 BYTE   W02
 BYTE   VOL   45*SMRPGTrouble_mvl/mxv
 BYTE   W01
 BYTE   VOL   44*SMRPGTrouble_mvl/mxv
 BYTE   W01
 BYTE   VOL   44*SMRPGTrouble_mvl/mxv
 BYTE   W05
 BYTE   VOL   43*SMRPGTrouble_mvl/mxv
 BYTE   W01
 BYTE   VOL   43*SMRPGTrouble_mvl/mxv
 BYTE   W01
 BYTE   VOL   42*SMRPGTrouble_mvl/mxv
 BYTE   W01
 BYTE   VOL   41*SMRPGTrouble_mvl/mxv
 BYTE   W01
 BYTE   VOL   40*SMRPGTrouble_mvl/mxv
 BYTE   W01
 BYTE   VOL   38*SMRPGTrouble_mvl/mxv
 BYTE   W01
 BYTE   VOL   38*SMRPGTrouble_mvl/mxv
 BYTE   W01
 BYTE   VOL   36*SMRPGTrouble_mvl/mxv
 BYTE   W01
 BYTE   VOL   36*SMRPGTrouble_mvl/mxv
 BYTE   W01
 BYTE   VOL   34*SMRPGTrouble_mvl/mxv
 BYTE   W01
 BYTE   VOL   33*SMRPGTrouble_mvl/mxv
 BYTE   W01
 BYTE   VOL   32*SMRPGTrouble_mvl/mxv
 BYTE   W01
 BYTE   VOL   31*SMRPGTrouble_mvl/mxv
 BYTE   W01
 BYTE   VOL   31*SMRPGTrouble_mvl/mxv
 BYTE   W01
 BYTE   VOL   30*SMRPGTrouble_mvl/mxv
 BYTE   W01
 BYTE   VOL   28*SMRPGTrouble_mvl/mxv
 BYTE   W01
 BYTE   VOL   27*SMRPGTrouble_mvl/mxv
 BYTE   W01
 BYTE   VOL   26*SMRPGTrouble_mvl/mxv
 BYTE   W01
 BYTE   VOL   26*SMRPGTrouble_mvl/mxv
 BYTE   W01
 BYTE   VOL   25*SMRPGTrouble_mvl/mxv
 BYTE   W01
 BYTE   VOL   24*SMRPGTrouble_mvl/mxv
 BYTE   W01
 BYTE   VOL   24*SMRPGTrouble_mvl/mxv
 BYTE   W01
 BYTE   VOL   23*SMRPGTrouble_mvl/mxv
 BYTE   W01
 BYTE   VOL   22*SMRPGTrouble_mvl/mxv
 BYTE   W01
 BYTE   VOL   22*SMRPGTrouble_mvl/mxv
 BYTE   W01
 BYTE   VOL   21*SMRPGTrouble_mvl/mxv
 BYTE   W01
 BYTE   VOL   21*SMRPGTrouble_mvl/mxv
 BYTE   W01
 BYTE   VOL   20*SMRPGTrouble_mvl/mxv
 BYTE   W01
 BYTE   VOL   19*SMRPGTrouble_mvl/mxv
 BYTE   W01
 BYTE   VOL   19*SMRPGTrouble_mvl/mxv
 BYTE   W01
 BYTE   VOL   17*SMRPGTrouble_mvl/mxv
 BYTE   W01
 BYTE   VOL   16*SMRPGTrouble_mvl/mxv
 BYTE   W01
 BYTE   VOL   15*SMRPGTrouble_mvl/mxv
 BYTE   W01
 BYTE   VOL   15*SMRPGTrouble_mvl/mxv
 BYTE   W01
 BYTE   VOL   14*SMRPGTrouble_mvl/mxv
 BYTE   W01
 BYTE   VOL   14*SMRPGTrouble_mvl/mxv
 BYTE   W01
 BYTE   VOL   12*SMRPGTrouble_mvl/mxv
 BYTE   W01
 BYTE   VOL   11*SMRPGTrouble_mvl/mxv
 BYTE   W01
 BYTE   VOL   10*SMRPGTrouble_mvl/mxv
 BYTE   W01
 BYTE   VOL   10*SMRPGTrouble_mvl/mxv
 BYTE   W01
 BYTE   VOL   9*SMRPGTrouble_mvl/mxv
 BYTE   W01
 BYTE   VOL   9*SMRPGTrouble_mvl/mxv
 BYTE   W01
 BYTE   VOL   8*SMRPGTrouble_mvl/mxv
 BYTE   W01
 BYTE   VOL   7*SMRPGTrouble_mvl/mxv
 BYTE   W01
 BYTE   VOL   7*SMRPGTrouble_mvl/mxv
 BYTE   W13
 BYTE   VOL   6*SMRPGTrouble_mvl/mxv
 BYTE   W01
 BYTE   VOL   5*SMRPGTrouble_mvl/mxv
 BYTE   W04
 BYTE   VOL   5*SMRPGTrouble_mvl/mxv
 BYTE   W11
 BYTE   PEND 
 BYTE   EOT
 BYTE   En3  v068
 BYTE   W02
//  #04 //004   ----------------------------------------
Label_010DFAD6:
 BYTE   TIE  En3  v112
 BYTE   TIE  Gs3
 BYTE   W16
 BYTE   VOL   5*SMRPGTrouble_mvl/mxv
 BYTE   W01
 BYTE   VOL   6*SMRPGTrouble_mvl/mxv
 BYTE   W02
 BYTE   VOL   7*SMRPGTrouble_mvl/mxv
 BYTE   W02
 BYTE   VOL   7*SMRPGTrouble_mvl/mxv
 BYTE   W01
 BYTE   VOL   8*SMRPGTrouble_mvl/mxv
 BYTE   W01
 BYTE   VOL   9*SMRPGTrouble_mvl/mxv
 BYTE   W02
 BYTE   VOL   9*SMRPGTrouble_mvl/mxv
 BYTE   W01
 BYTE   VOL   10*SMRPGTrouble_mvl/mxv
 BYTE   W01
 BYTE   VOL   10*SMRPGTrouble_mvl/mxv
 BYTE   W01
 BYTE   VOL   11*SMRPGTrouble_mvl/mxv
 BYTE   W02
 BYTE   VOL   12*SMRPGTrouble_mvl/mxv
 BYTE   W04
 BYTE   VOL   12*SMRPGTrouble_mvl/mxv
 BYTE   W01
 BYTE   VOL   13*SMRPGTrouble_mvl/mxv
 BYTE   W01
 BYTE   VOL   14*SMRPGTrouble_mvl/mxv
 BYTE   W01
 BYTE   VOL   14*SMRPGTrouble_mvl/mxv
 BYTE   W01
 BYTE   VOL   15*SMRPGTrouble_mvl/mxv
 BYTE   W01
 BYTE   VOL   15*SMRPGTrouble_mvl/mxv
 BYTE   W02
 BYTE   VOL   16*SMRPGTrouble_mvl/mxv
 BYTE   W02
 BYTE   VOL   17*SMRPGTrouble_mvl/mxv
 BYTE   W01
 BYTE   VOL   17*SMRPGTrouble_mvl/mxv
 BYTE   W01
 BYTE   VOL   18*SMRPGTrouble_mvl/mxv
 BYTE   W01
 BYTE   VOL   19*SMRPGTrouble_mvl/mxv
 BYTE   W01
 BYTE   VOL   19*SMRPGTrouble_mvl/mxv
 BYTE   W01
 BYTE   VOL   21*SMRPGTrouble_mvl/mxv
 BYTE   W01
 BYTE   VOL   21*SMRPGTrouble_mvl/mxv
 BYTE   W01
 BYTE   VOL   22*SMRPGTrouble_mvl/mxv
 BYTE   W01
 BYTE   VOL   22*SMRPGTrouble_mvl/mxv
 BYTE   W02
 BYTE   VOL   23*SMRPGTrouble_mvl/mxv
 BYTE   W01
 BYTE   VOL   24*SMRPGTrouble_mvl/mxv
 BYTE   W01
 BYTE   VOL   24*SMRPGTrouble_mvl/mxv
 BYTE   W01
 BYTE   VOL   25*SMRPGTrouble_mvl/mxv
 BYTE   W01
 BYTE   VOL   26*SMRPGTrouble_mvl/mxv
 BYTE   W01
 BYTE   VOL   26*SMRPGTrouble_mvl/mxv
 BYTE   W01
 BYTE   VOL   27*SMRPGTrouble_mvl/mxv
 BYTE   W01
 BYTE   VOL   27*SMRPGTrouble_mvl/mxv
 BYTE   W01
 BYTE   VOL   28*SMRPGTrouble_mvl/mxv
 BYTE   W01
 BYTE   VOL   29*SMRPGTrouble_mvl/mxv
 BYTE   W01
 BYTE   VOL   29*SMRPGTrouble_mvl/mxv
 BYTE   W01
 BYTE   VOL   31*SMRPGTrouble_mvl/mxv
 BYTE   W01
 BYTE   VOL   31*SMRPGTrouble_mvl/mxv
 BYTE   W01
 BYTE   VOL   32*SMRPGTrouble_mvl/mxv
 BYTE   W01
 BYTE   VOL   33*SMRPGTrouble_mvl/mxv
 BYTE   W01
 BYTE   VOL   34*SMRPGTrouble_mvl/mxv
 BYTE   W01
 BYTE   VOL   34*SMRPGTrouble_mvl/mxv
 BYTE   W01
 BYTE   VOL   36*SMRPGTrouble_mvl/mxv
 BYTE   W01
 BYTE   VOL   37*SMRPGTrouble_mvl/mxv
 BYTE   W01
 BYTE   VOL   38*SMRPGTrouble_mvl/mxv
 BYTE   W01
 BYTE   VOL   38*SMRPGTrouble_mvl/mxv
 BYTE   W01
 BYTE   VOL   39*SMRPGTrouble_mvl/mxv
 BYTE   W01
 BYTE   VOL   39*SMRPGTrouble_mvl/mxv
 BYTE   W01
 BYTE   VOL   40*SMRPGTrouble_mvl/mxv
 BYTE   W01
 BYTE   VOL   41*SMRPGTrouble_mvl/mxv
 BYTE   W04
 BYTE   VOL   41*SMRPGTrouble_mvl/mxv
 BYTE   W01
 BYTE   VOL   42*SMRPGTrouble_mvl/mxv
 BYTE   W01
 BYTE   VOL   43*SMRPGTrouble_mvl/mxv
 BYTE   W01
 BYTE   VOL   43*SMRPGTrouble_mvl/mxv
 BYTE   W02
 BYTE   VOL   44*SMRPGTrouble_mvl/mxv
 BYTE   W01
 BYTE   VOL   44*SMRPGTrouble_mvl/mxv
 BYTE   W01
 BYTE   VOL   45*SMRPGTrouble_mvl/mxv
 BYTE   W01
 BYTE   VOL   46*SMRPGTrouble_mvl/mxv
 BYTE   W01
 BYTE   VOL   46*SMRPGTrouble_mvl/mxv
 BYTE   W01
 BYTE   VOL   47*SMRPGTrouble_mvl/mxv
 BYTE   W02
 BYTE   VOL   48*SMRPGTrouble_mvl/mxv
 BYTE   W02
 BYTE   VOL   47*SMRPGTrouble_mvl/mxv
 BYTE   W01
 BYTE   PEND 
//  #04 //005   ----------------------------------------
Label_010DFB5E:
 BYTE   W13
 BYTE   VOL   46*SMRPGTrouble_mvl/mxv
 BYTE   W02
 BYTE   VOL   45*SMRPGTrouble_mvl/mxv
 BYTE   W01
 BYTE   VOL   44*SMRPGTrouble_mvl/mxv
 BYTE   W01
 BYTE   VOL   44*SMRPGTrouble_mvl/mxv
 BYTE   W01
 BYTE   VOL   43*SMRPGTrouble_mvl/mxv
 BYTE   W01
 BYTE   VOL   43*SMRPGTrouble_mvl/mxv
 BYTE   W07
 BYTE   VOL   41*SMRPGTrouble_mvl/mxv
 BYTE   W01
 BYTE   VOL   41*SMRPGTrouble_mvl/mxv
 BYTE   W03
 BYTE   VOL   40*SMRPGTrouble_mvl/mxv
 BYTE   W01
 BYTE   VOL   39*SMRPGTrouble_mvl/mxv
 BYTE   W01
 BYTE   VOL   39*SMRPGTrouble_mvl/mxv
 BYTE   W01
 BYTE   VOL   38*SMRPGTrouble_mvl/mxv
 BYTE   W02
 BYTE   VOL   37*SMRPGTrouble_mvl/mxv
 BYTE   W01
 BYTE   VOL   36*SMRPGTrouble_mvl/mxv
 BYTE   W01
 BYTE   VOL   36*SMRPGTrouble_mvl/mxv
 BYTE   W01
 BYTE   VOL   35*SMRPGTrouble_mvl/mxv
 BYTE   W01
 BYTE   VOL   34*SMRPGTrouble_mvl/mxv
 BYTE   W01
 BYTE   VOL   34*SMRPGTrouble_mvl/mxv
 BYTE   W01
 BYTE   VOL   33*SMRPGTrouble_mvl/mxv
 BYTE   W01
 BYTE   VOL   32*SMRPGTrouble_mvl/mxv
 BYTE   W01
 BYTE   VOL   32*SMRPGTrouble_mvl/mxv
 BYTE   W01
 BYTE   VOL   31*SMRPGTrouble_mvl/mxv
 BYTE   W01
 BYTE   VOL   31*SMRPGTrouble_mvl/mxv
 BYTE   W01
 BYTE   VOL   29*SMRPGTrouble_mvl/mxv
 BYTE   W01
 BYTE   VOL   28*SMRPGTrouble_mvl/mxv
 BYTE   W01
 BYTE   VOL   27*SMRPGTrouble_mvl/mxv
 BYTE   W01
 BYTE   VOL   27*SMRPGTrouble_mvl/mxv
 BYTE   W01
 BYTE   VOL   26*SMRPGTrouble_mvl/mxv
 BYTE   W01
 BYTE   VOL   24*SMRPGTrouble_mvl/mxv
 BYTE   W01
 BYTE   VOL   24*SMRPGTrouble_mvl/mxv
 BYTE   W01
 BYTE   VOL   23*SMRPGTrouble_mvl/mxv
 BYTE   W01
 BYTE   VOL   22*SMRPGTrouble_mvl/mxv
 BYTE   W01
 BYTE   VOL   21*SMRPGTrouble_mvl/mxv
 BYTE   W01
 BYTE   VOL   20*SMRPGTrouble_mvl/mxv
 BYTE   W01
 BYTE   VOL   19*SMRPGTrouble_mvl/mxv
 BYTE   W01
 BYTE   VOL   19*SMRPGTrouble_mvl/mxv
 BYTE   W01
 BYTE   VOL   18*SMRPGTrouble_mvl/mxv
 BYTE   W01
 BYTE   VOL   17*SMRPGTrouble_mvl/mxv
 BYTE   W01
 BYTE   VOL   17*SMRPGTrouble_mvl/mxv
 BYTE   W01
 BYTE   VOL   16*SMRPGTrouble_mvl/mxv
 BYTE   W01
 BYTE   VOL   15*SMRPGTrouble_mvl/mxv
 BYTE   W01
 BYTE   VOL   15*SMRPGTrouble_mvl/mxv
 BYTE   W01
 BYTE   VOL   14*SMRPGTrouble_mvl/mxv
 BYTE   W01
 BYTE   VOL   14*SMRPGTrouble_mvl/mxv
 BYTE   W01
 BYTE   VOL   13*SMRPGTrouble_mvl/mxv
 BYTE   W02
 BYTE   VOL   12*SMRPGTrouble_mvl/mxv
 BYTE   W02
 BYTE   VOL   12*SMRPGTrouble_mvl/mxv
 BYTE   W02
 BYTE   VOL   11*SMRPGTrouble_mvl/mxv
 BYTE   W01
 BYTE   VOL   10*SMRPGTrouble_mvl/mxv
 BYTE   W01
 BYTE   VOL   10*SMRPGTrouble_mvl/mxv
 BYTE   W02
 BYTE   VOL   9*SMRPGTrouble_mvl/mxv
 BYTE   W17
 BYTE   PEND 
 BYTE   EOT
 BYTE   En3  v068
 BYTE   W01
 BYTE   VOL   43*SMRPGTrouble_mvl/mxv
 BYTE   W01
//  #04 //006   ----------------------------------------
Label_010DFBCE:
 BYTE   VOL   48*SMRPGTrouble_mvl/mxv
 BYTE   W01
 BYTE   VOL   21*SMRPGTrouble_mvl/mxv
 BYTE   W01
 BYTE   VOL   17*SMRPGTrouble_mvl/mxv
 BYTE   W92
 BYTE   W02
 BYTE   PEND 
//  #04 //007   ----------------------------------------
Label_010DFBD7:
 BYTE   W32
 BYTE   W03
 BYTE   VOL   0*SMRPGTrouble_mvl/mxv
 BYTE   W60
 BYTE   W01
 BYTE   PEND 
//  #04 //008   ----------------------------------------
 BYTE   W96
//  #04 //009   ----------------------------------------
 BYTE   W96
//  #04 //010   ----------------------------------------
 BYTE   W96
//  #04 //011   ----------------------------------------
 BYTE   W96
//  #04 //012   ----------------------------------------
 BYTE   W96
//  #04 //013   ----------------------------------------
 BYTE   W96
//  #04 //014   ----------------------------------------
 BYTE   W96
//  #04 //015   ----------------------------------------
 BYTE   W96
//  #04 //016   ----------------------------------------
Label_010DFBE6:
 BYTE   VOL   12*SMRPGTrouble_mvl/mxv
 BYTE   TIE  En3  v112
 BYTE   TIE  Gs3
 BYTE   W15
 BYTE   VOL   13*SMRPGTrouble_mvl/mxv
 BYTE   W02
 BYTE   VOL   14*SMRPGTrouble_mvl/mxv
 BYTE   W01
 BYTE   VOL   14*SMRPGTrouble_mvl/mxv
 BYTE   W01
 BYTE   VOL   15*SMRPGTrouble_mvl/mxv
 BYTE   W01
 BYTE   VOL   15*SMRPGTrouble_mvl/mxv
 BYTE   W01
 BYTE   VOL   16*SMRPGTrouble_mvl/mxv
 BYTE   W01
 BYTE   VOL   17*SMRPGTrouble_mvl/mxv
 BYTE   W01
 BYTE   VOL   17*SMRPGTrouble_mvl/mxv
 BYTE   W02
 BYTE   VOL   18*SMRPGTrouble_mvl/mxv
 BYTE   W03
 BYTE   VOL   19*SMRPGTrouble_mvl/mxv
 BYTE   W02
 BYTE   VOL   19*SMRPGTrouble_mvl/mxv
 BYTE   W01
 BYTE   VOL   20*SMRPGTrouble_mvl/mxv
 BYTE   W01
 BYTE   VOL   21*SMRPGTrouble_mvl/mxv
 BYTE   W01
 BYTE   VOL   21*SMRPGTrouble_mvl/mxv
 BYTE   W02
 BYTE   VOL   22*SMRPGTrouble_mvl/mxv
 BYTE   W01
 BYTE   VOL   22*SMRPGTrouble_mvl/mxv
 BYTE   W02
 BYTE   VOL   24*SMRPGTrouble_mvl/mxv
 BYTE   W01
 BYTE   VOL   24*SMRPGTrouble_mvl/mxv
 BYTE   W02
 BYTE   VOL   26*SMRPGTrouble_mvl/mxv
 BYTE   W01
 BYTE   VOL   26*SMRPGTrouble_mvl/mxv
 BYTE   W01
 BYTE   VOL   27*SMRPGTrouble_mvl/mxv
 BYTE   W01
 BYTE   VOL   27*SMRPGTrouble_mvl/mxv
 BYTE   W01
 BYTE   VOL   28*SMRPGTrouble_mvl/mxv
 BYTE   W01
 BYTE   VOL   29*SMRPGTrouble_mvl/mxv
 BYTE   W01
 BYTE   VOL   29*SMRPGTrouble_mvl/mxv
 BYTE   W01
 BYTE   VOL   30*SMRPGTrouble_mvl/mxv
 BYTE   W01
 BYTE   VOL   31*SMRPGTrouble_mvl/mxv
 BYTE   W01
 BYTE   VOL   31*SMRPGTrouble_mvl/mxv
 BYTE   W02
 BYTE   VOL   32*SMRPGTrouble_mvl/mxv
 BYTE   W01
 BYTE   VOL   32*SMRPGTrouble_mvl/mxv
 BYTE   W01
 BYTE   VOL   33*SMRPGTrouble_mvl/mxv
 BYTE   W05
 BYTE   VOL   34*SMRPGTrouble_mvl/mxv
 BYTE   W05
 BYTE   VOL   34*SMRPGTrouble_mvl/mxv
 BYTE   W03
 BYTE   VOL   35*SMRPGTrouble_mvl/mxv
 BYTE   W02
 BYTE   VOL   36*SMRPGTrouble_mvl/mxv
 BYTE   W03
 BYTE   VOL   36*SMRPGTrouble_mvl/mxv
 BYTE   W01
 BYTE   VOL   37*SMRPGTrouble_mvl/mxv
 BYTE   W01
 BYTE   VOL   38*SMRPGTrouble_mvl/mxv
 BYTE   W01
 BYTE   VOL   39*SMRPGTrouble_mvl/mxv
 BYTE   W01
 BYTE   VOL   39*SMRPGTrouble_mvl/mxv
 BYTE   W01
 BYTE   VOL   40*SMRPGTrouble_mvl/mxv
 BYTE   W01
 BYTE   VOL   41*SMRPGTrouble_mvl/mxv
 BYTE   W01
 BYTE   VOL   42*SMRPGTrouble_mvl/mxv
 BYTE   W01
 BYTE   VOL   43*SMRPGTrouble_mvl/mxv
 BYTE   W01
 BYTE   VOL   43*SMRPGTrouble_mvl/mxv
 BYTE   W01
 BYTE   VOL   44*SMRPGTrouble_mvl/mxv
 BYTE   W01
 BYTE   VOL   44*SMRPGTrouble_mvl/mxv
 BYTE   W01
 BYTE   VOL   45*SMRPGTrouble_mvl/mxv
 BYTE   W01
 BYTE   VOL   46*SMRPGTrouble_mvl/mxv
 BYTE   W02
 BYTE   VOL   46*SMRPGTrouble_mvl/mxv
 BYTE   W01
 BYTE   VOL   47*SMRPGTrouble_mvl/mxv
 BYTE   W02
 BYTE   VOL   48*SMRPGTrouble_mvl/mxv
 BYTE   W01
 BYTE   VOL   47*SMRPGTrouble_mvl/mxv
 BYTE   W05
 BYTE   PEND 
//  #04 //017   ----------------------------------------
 BYTE   PATT
  POIN2 Label_010DF98F
//  #04 //018   ----------------------------------------
 BYTE   EOT
 BYTE   En3  v068
 BYTE   VOL   12*SMRPGTrouble_mvl/mxv
 BYTE   W01
 BYTE   VOL   11*SMRPGTrouble_mvl/mxv
 BYTE   W01
//  #04 //019   ----------------------------------------
 BYTE   PATT
  POIN2 Label_010DF9F7
//  #04 //020   ----------------------------------------
 BYTE   PATT
  POIN2 Label_010DFA63
//  #04 //021   ----------------------------------------
 BYTE   EOT
 BYTE   En3  v068
 BYTE   W02
//  #04 //022   ----------------------------------------
 BYTE   PATT
  POIN2 Label_010DFAD6
//  #04 //023   ----------------------------------------
 BYTE   PATT
  POIN2 Label_010DFB5E
//  #04 //024   ----------------------------------------
 BYTE   EOT
 BYTE   En3  v068
 BYTE   W01
 BYTE   VOL   43*SMRPGTrouble_mvl/mxv
 BYTE   W01
//  #04 //025   ----------------------------------------
 BYTE   PATT
  POIN2 Label_010DFBCE
//  #04 //026   ----------------------------------------
 BYTE   PATT
  POIN2 Label_010DFBD7
//  #04 //027   ----------------------------------------
 BYTE   W96
//  #04 //028   ----------------------------------------
 BYTE   W96
//  #04 //029   ----------------------------------------
 BYTE   W96
//  #04 //030   ----------------------------------------
 BYTE   W96
//  #04 //031   ----------------------------------------
 BYTE   W96
//  #04 //032   ----------------------------------------
 BYTE   W96
//  #04 //033   ----------------------------------------
 BYTE   W96
//  #04 //034   ----------------------------------------
 BYTE   W96
//  #04 //035   ----------------------------------------
 BYTE   PATT
  POIN2 Label_010DFBE6
//  #04 //036   ----------------------------------------
 BYTE   PATT
  POIN2 Label_010DF98F
//  #04 //037   ----------------------------------------
 BYTE   EOT
 BYTE   En3  v068
 BYTE   VOL   12*SMRPGTrouble_mvl/mxv
 BYTE   W01
 BYTE   VOL   11*SMRPGTrouble_mvl/mxv
 BYTE   W01
//  #04 //038   ----------------------------------------
 BYTE   PATT
  POIN2 Label_010DF9F7
//  #04 //039   ----------------------------------------
 BYTE   PATT
  POIN2 Label_010DFA63
//  #04 //040   ----------------------------------------
 BYTE   EOT
 BYTE   En3  v068
 BYTE   W02
//  #04 //041   ----------------------------------------
 BYTE   PATT
  POIN2 Label_010DFAD6
//  #04 //042   ----------------------------------------
 BYTE   PATT
  POIN2 Label_010DFB5E
//  #04 //043   ----------------------------------------
 BYTE   EOT
 BYTE   En3  v068
 BYTE   W01
 BYTE   VOL   43*SMRPGTrouble_mvl/mxv
 BYTE   W01
//  #04 //044   ----------------------------------------
 BYTE   PATT
  POIN2 Label_010DFBCE
//  #04 //045   ----------------------------------------
 BYTE   PATT
  POIN2 Label_010DFBD7
//  #04 //046   ----------------------------------------
 BYTE   W96
//  #04 //047   ----------------------------------------
 BYTE   W96
//  #04 //048   ----------------------------------------
 BYTE   W96
//  #04 //049   ----------------------------------------
 BYTE   W96
//  #04 //050   ----------------------------------------
 BYTE   W96
//  #04 //051   ----------------------------------------
 BYTE   W96
//  #04 //052   ----------------------------------------
 BYTE   W96
//  #04 //053   ----------------------------------------
 BYTE   W96
//  #04 //054   ----------------------------------------
 BYTE   VOL   12*SMRPGTrouble_mvl/mxv
 BYTE   TIE  En3  v112
 BYTE   TIE  Gs3
 BYTE   W15
 BYTE   VOL   13*SMRPGTrouble_mvl/mxv
 BYTE   W02
 BYTE   VOL   14*SMRPGTrouble_mvl/mxv
 BYTE   W01
 BYTE   VOL   14*SMRPGTrouble_mvl/mxv
 BYTE   W01
 BYTE   VOL   15*SMRPGTrouble_mvl/mxv
 BYTE   W01
 BYTE   VOL   15*SMRPGTrouble_mvl/mxv
 BYTE   W01
 BYTE   VOL   16*SMRPGTrouble_mvl/mxv
 BYTE   W01
 BYTE   VOL   17*SMRPGTrouble_mvl/mxv
 BYTE   W01
 BYTE   VOL   17*SMRPGTrouble_mvl/mxv
 BYTE   W02
 BYTE   VOL   18*SMRPGTrouble_mvl/mxv
 BYTE   W03
 BYTE   VOL   19*SMRPGTrouble_mvl/mxv
 BYTE   W02
 BYTE   VOL   19*SMRPGTrouble_mvl/mxv
 BYTE   W01
 BYTE   VOL   20*SMRPGTrouble_mvl/mxv
 BYTE   W01
 BYTE   VOL   21*SMRPGTrouble_mvl/mxv
 BYTE   W01
 BYTE   VOL   21*SMRPGTrouble_mvl/mxv
 BYTE   W02
 BYTE   VOL   22*SMRPGTrouble_mvl/mxv
 BYTE   W01
 BYTE   VOL   22*SMRPGTrouble_mvl/mxv
 BYTE   W02
 BYTE   VOL   24*SMRPGTrouble_mvl/mxv
 BYTE   W01
 BYTE   VOL   24*SMRPGTrouble_mvl/mxv
 BYTE   W02
 BYTE   VOL   26*SMRPGTrouble_mvl/mxv
 BYTE   W01
 BYTE   VOL   26*SMRPGTrouble_mvl/mxv
 BYTE   W01
 BYTE   VOL   27*SMRPGTrouble_mvl/mxv
 BYTE   W01
 BYTE   VOL   27*SMRPGTrouble_mvl/mxv
 BYTE   W01
 BYTE   VOL   28*SMRPGTrouble_mvl/mxv
 BYTE   W01
 BYTE   VOL   29*SMRPGTrouble_mvl/mxv
 BYTE   W01
 BYTE   VOL   29*SMRPGTrouble_mvl/mxv
 BYTE   W01
 BYTE   VOL   30*SMRPGTrouble_mvl/mxv
 BYTE   W01
 BYTE   VOL   31*SMRPGTrouble_mvl/mxv
 BYTE   W01
 BYTE   VOL   31*SMRPGTrouble_mvl/mxv
 BYTE   W02
 BYTE   VOL   32*SMRPGTrouble_mvl/mxv
 BYTE   W01
 BYTE   VOL   32*SMRPGTrouble_mvl/mxv
 BYTE   W01
 BYTE   VOL   33*SMRPGTrouble_mvl/mxv
 BYTE   W05
 BYTE   VOL   34*SMRPGTrouble_mvl/mxv
 BYTE   W05
 BYTE   VOL   34*SMRPGTrouble_mvl/mxv
 BYTE   W03
 BYTE   VOL   35*SMRPGTrouble_mvl/mxv
 BYTE   W02
 BYTE   VOL   36*SMRPGTrouble_mvl/mxv
 BYTE   W03
 BYTE   VOL   36*SMRPGTrouble_mvl/mxv
 BYTE   W01
 BYTE   VOL   37*SMRPGTrouble_mvl/mxv
 BYTE   W01
 BYTE   VOL   38*SMRPGTrouble_mvl/mxv
 BYTE   W01
 BYTE   VOL   39*SMRPGTrouble_mvl/mxv
 BYTE   W01
 BYTE   VOL   39*SMRPGTrouble_mvl/mxv
 BYTE   W01
 BYTE   VOL   40*SMRPGTrouble_mvl/mxv
 BYTE   W01
 BYTE   VOL   41*SMRPGTrouble_mvl/mxv
 BYTE   W01
 BYTE   VOL   42*SMRPGTrouble_mvl/mxv
 BYTE   W01
 BYTE   VOL   43*SMRPGTrouble_mvl/mxv
 BYTE   W01
 BYTE   VOL   43*SMRPGTrouble_mvl/mxv
 BYTE   W01
 BYTE   VOL   44*SMRPGTrouble_mvl/mxv
 BYTE   W01
 BYTE   VOL   44*SMRPGTrouble_mvl/mxv
 BYTE   W01
 BYTE   VOL   45*SMRPGTrouble_mvl/mxv
 BYTE   W01
 BYTE   VOL   46*SMRPGTrouble_mvl/mxv
 BYTE   W02
 BYTE   VOL   46*SMRPGTrouble_mvl/mxv
 BYTE   W01
 BYTE   VOL   47*SMRPGTrouble_mvl/mxv
 BYTE   W02
 BYTE   VOL   48*SMRPGTrouble_mvl/mxv
 BYTE   W01
 BYTE   VOL   47*SMRPGTrouble_mvl/mxv
 BYTE   W05
//  #04 //055   ----------------------------------------
 BYTE   PATT
  POIN2 Label_010DF98F
//  #04 //056   ----------------------------------------
 BYTE   EOT
 BYTE   En3  v068
 BYTE   VOL   12*SMRPGTrouble_mvl/mxv
 BYTE   W01
 BYTE   VOL   11*SMRPGTrouble_mvl/mxv
 BYTE   W01
//  #04 //057   ----------------------------------------
 BYTE   PATT
  POIN2 Label_010DF9F7
//  #04 //058   ----------------------------------------
 BYTE   PATT
  POIN2 Label_010DFA63
//  #04 //059   ----------------------------------------
 BYTE   EOT
 BYTE   En3  v068
 BYTE   W02
//  #04 //060   ----------------------------------------
 BYTE   PATT
  POIN2 Label_010DFAD6
//  #04 //061   ----------------------------------------
 BYTE   PATT
  POIN2 Label_010DFB5E
//  #04 //062   ----------------------------------------
 BYTE   EOT
 BYTE   En3  v068
 BYTE   W01
 BYTE   VOL   43*SMRPGTrouble_mvl/mxv
 BYTE   W01
//  #04 //063   ----------------------------------------
 BYTE   PATT
  POIN2 Label_010DFBCE
//  #04 //064   ----------------------------------------
 BYTE   PATT
  POIN2 Label_010DFBD7
//  #04 //065   ----------------------------------------
 BYTE   W96
//  #04 //066   ----------------------------------------
 BYTE   W96
//  #04 //067   ----------------------------------------
 BYTE   W96
//  #04 //068   ----------------------------------------
 BYTE   W96
//  #04 //069   ----------------------------------------
 BYTE   W96
//  #04 //070   ----------------------------------------
 BYTE   W96
//  #04 //071   ----------------------------------------
 BYTE   W96
//  #04 //072   ----------------------------------------
 BYTE   W92
 BYTE   W03
 BYTE   GoTo
  POIN2 Label_010DF91A
 BYTE   FINE

//**************** Track 5 (Midi-Chn.4) ****************//

SMRPGTrouble_005:
//  #05 //000   ----------------------------------------
 BYTE   KEYSH   SMRPGTrouble_key+0
Label_010CD9DA:
 BYTE   VOICE   21
 BYTE   PAN   c_v-1
 BYTE   VOL   28*SMRPGTrouble_mvl/mxv
 BYTE   W96
//  #05 //001   ----------------------------------------
 BYTE   W96
//  #05 //002   ----------------------------------------
 BYTE   W96
//  #05 //003   ----------------------------------------
 BYTE   W96
//  #05 //004   ----------------------------------------
 BYTE   W96
//  #05 //005   ----------------------------------------
 BYTE   W96
//  #05 //006   ----------------------------------------
 BYTE   W96
//  #05 //007   ----------------------------------------
 BYTE   W96
//  #05 //008   ----------------------------------------
Label_010CD9E8:
 BYTE   N07  Cs3  v112
 BYTE   W08
 BYTE   An2
 BYTE   W08
 BYTE   Fs2
 BYTE   W08
 BYTE   N16  Ds2
 BYTE   N16  Gs2
 BYTE   N16  Cn3
 BYTE   W24
 BYTE   N07  Cs3
 BYTE   W08
 BYTE   An2
 BYTE   W08
 BYTE   Fs2
 BYTE   W08
 BYTE   N16  Ds2
 BYTE   N18  Gs2
 BYTE   N16  Cn3
 BYTE   W24
 BYTE   PEND 
//  #05 //009   ----------------------------------------
Label_010CDA06:
 BYTE   N07  Cs3  v112
 BYTE   W08
 BYTE   An2
 BYTE   W08
 BYTE   Fs2
 BYTE   W08
 BYTE   Ds3
 BYTE   W08
 BYTE   Cn3
 BYTE   W07
 BYTE   Gs2
 BYTE   W09
 BYTE   Fs2
 BYTE   W08
 BYTE   Gs2
 BYTE   W08
 BYTE   Fs2
 BYTE   W08
 BYTE   N19  Ds2
 BYTE   N18  Gs2
 BYTE   N19  Cn3
 BYTE   W24
 BYTE   PEND 
//  #05 //010   ----------------------------------------
 BYTE   PATT
  POIN2 Label_010CD9E8
//  #05 //011   ----------------------------------------
 BYTE   PATT
  POIN2 Label_010CDA06
//  #05 //012   ----------------------------------------
Label_010CDA2C:
 BYTE   N22  En3  v112
 BYTE   N22  Gs3
 BYTE   W24
 BYTE   Ds3
 BYTE   N22  Gn3
 BYTE   W24
 BYTE   N36  Cs3
 BYTE   N36  En3
 BYTE   W40
 BYTE   N07  Gs2
 BYTE   N07  Cs3
 BYTE   W08
 BYTE   PEND 
//  #05 //013   ----------------------------------------
Label_010CDA41:
 BYTE   N36  An2  v112
 BYTE   N36  Cs3
 BYTE   W40
 BYTE   N07  An2
 BYTE   N07  Cs3
 BYTE   W08
 BYTE   N13  Gs2
 BYTE   N13  Cn3
 BYTE   W16
 BYTE   N07  An2
 BYTE   N07  Cs3
 BYTE   W08
 BYTE   N19  Cn3
 BYTE   N19  Ds3
 BYTE   W24
 BYTE   PEND 
//  #05 //014   ----------------------------------------
 BYTE   N92  En3
 BYTE   N96  Gs3
 BYTE   W96
//  #05 //015   ----------------------------------------
Label_010CDA61:
 BYTE   N07  Cs3  v112
 BYTE   N07  En3
 BYTE   W08
 BYTE   Cs3
 BYTE   N07  Fs3
 BYTE   W08
 BYTE   Cs3
 BYTE   N07  En3
 BYTE   W08
 BYTE   Cs3
 BYTE   N07  Ds3
 BYTE   W08
 BYTE   Gs2
 BYTE   N07  Cs3
 BYTE   W08
 BYTE   Gs2
 BYTE   N09  Cn3
 BYTE   W08
 BYTE   N18  Gs2
 BYTE   N18  Cs3
 BYTE   W24
 BYTE   N16  Gs3
 BYTE   N16  Cs4
 BYTE   W24
 BYTE   PEND 
//  #05 //016   ----------------------------------------
 BYTE   W96
//  #05 //017   ----------------------------------------
 BYTE   W96
//  #05 //018   ----------------------------------------
 BYTE   W96
//  #05 //019   ----------------------------------------
 BYTE   W96
//  #05 //020   ----------------------------------------
 BYTE   W96
//  #05 //021   ----------------------------------------
 BYTE   W96
//  #05 //022   ----------------------------------------
 BYTE   W96
//  #05 //023   ----------------------------------------
 BYTE   W96
//  #05 //024   ----------------------------------------
 BYTE   PATT
  POIN2 Label_010CD9E8
//  #05 //025   ----------------------------------------
 BYTE   PATT
  POIN2 Label_010CDA06
//  #05 //026   ----------------------------------------
 BYTE   PATT
  POIN2 Label_010CD9E8
//  #05 //027   ----------------------------------------
 BYTE   PATT
  POIN2 Label_010CDA06
//  #05 //028   ----------------------------------------
 BYTE   PATT
  POIN2 Label_010CDA2C
//  #05 //029   ----------------------------------------
 BYTE   PATT
  POIN2 Label_010CDA41
//  #05 //030   ----------------------------------------
 BYTE   N92  En3  v112
 BYTE   N96  Gs3
 BYTE   W96
//  #05 //031   ----------------------------------------
 BYTE   PATT
  POIN2 Label_010CDA61
//  #05 //032   ----------------------------------------
 BYTE   W96
//  #05 //033   ----------------------------------------
 BYTE   W96
//  #05 //034   ----------------------------------------
 BYTE   W96
//  #05 //035   ----------------------------------------
 BYTE   W96
//  #05 //036   ----------------------------------------
 BYTE   W96
//  #05 //037   ----------------------------------------
 BYTE   W96
//  #05 //038   ----------------------------------------
 BYTE   W96
//  #05 //039   ----------------------------------------
 BYTE   W96
//  #05 //040   ----------------------------------------
 BYTE   PATT
  POIN2 Label_010CD9E8
//  #05 //041   ----------------------------------------
 BYTE   PATT
  POIN2 Label_010CDA06
//  #05 //042   ----------------------------------------
 BYTE   PATT
  POIN2 Label_010CD9E8
//  #05 //043   ----------------------------------------
 BYTE   PATT
  POIN2 Label_010CDA06
//  #05 //044   ----------------------------------------
 BYTE   PATT
  POIN2 Label_010CDA2C
//  #05 //045   ----------------------------------------
 BYTE   PATT
  POIN2 Label_010CDA41
//  #05 //046   ----------------------------------------
 BYTE   N92  En3  v112
 BYTE   N96  Gs3
 BYTE   W96
//  #05 //047   ----------------------------------------
 BYTE   PATT
  POIN2 Label_010CDA61
//  #05 //048   ----------------------------------------
 BYTE   W96
//  #05 //049   ----------------------------------------
 BYTE   W96
//  #05 //050   ----------------------------------------
 BYTE   W96
//  #05 //051   ----------------------------------------
 BYTE   W96
//  #05 //052   ----------------------------------------
 BYTE   W96
//  #05 //053   ----------------------------------------
 BYTE   W96
//  #05 //054   ----------------------------------------
 BYTE   W96
//  #05 //055   ----------------------------------------
 BYTE   W96
//  #05 //056   ----------------------------------------
 BYTE   PATT
  POIN2 Label_010CD9E8
//  #05 //057   ----------------------------------------
 BYTE   PATT
  POIN2 Label_010CDA06
//  #05 //058   ----------------------------------------
 BYTE   PATT
  POIN2 Label_010CD9E8
//  #05 //059   ----------------------------------------
 BYTE   PATT
  POIN2 Label_010CDA06
//  #05 //060   ----------------------------------------
 BYTE   PATT
  POIN2 Label_010CDA2C
//  #05 //061   ----------------------------------------
 BYTE   PATT
  POIN2 Label_010CDA41
//  #05 //062   ----------------------------------------
 BYTE   N92  En3  v112
 BYTE   N96  Gs3
 BYTE   W96
//  #05 //063   ----------------------------------------
 BYTE   N07  Cs3
 BYTE   N07  En3
 BYTE   W08
 BYTE   Cs3
 BYTE   N07  Fs3
 BYTE   W08
 BYTE   Cs3
 BYTE   N07  En3
 BYTE   W08
 BYTE   Cs3
 BYTE   N07  Ds3
 BYTE   W08
 BYTE   Gs2
 BYTE   N07  Cs3
 BYTE   W08
 BYTE   Gs2
 BYTE   N09  Cn3
 BYTE   W08
 BYTE   N18  Gs2
 BYTE   N18  Cs3
 BYTE   W24
 BYTE   N16  Gs3
 BYTE   N16  Cs4
 BYTE   W23
 BYTE   GoTo
  POIN2 Label_010CD9DA
 BYTE   FINE

//**************** Track 6 (Midi-Chn.5) ****************//

SMRPGTrouble_006:
//  #06 //000   ----------------------------------------
 BYTE   KEYSH   SMRPGTrouble_key+0
Label_011DE9D6:
 BYTE   VOICE   21
 BYTE   VOL   46*SMRPGTrouble_mvl/mxv
 BYTE   PAN   c_v-1
 BYTE   W96
//  #06 //001   ----------------------------------------
Label_011DE9DD:
 BYTE   W84
 BYTE   N04  Gs3  v112
 BYTE   W04
 BYTE   An3
 BYTE   W04
 BYTE   N03  Bn3
 BYTE   W04
 BYTE   PEND 
//  #06 //002   ----------------------------------------
Label_011DE9E8:
 BYTE   N10  Cs4  v112
 BYTE   W16
 BYTE   N06  Gs3
 BYTE   W08
 BYTE   N09  Gn3
 BYTE   W16
 BYTE   N04  Gs3
 BYTE   W08
 BYTE   N36  Bn3
 BYTE   W40
 BYTE   N03  As3
 BYTE   W04
 BYTE   Bn3
 BYTE   W04
 BYTE   PEND 
//  #06 //003   ----------------------------------------
Label_011DE9FE:
 BYTE   N10  As3  v112
 BYTE   W16
 BYTE   N04
 BYTE   W02
 BYTE   N05  Gs3  v064
 BYTE   W06
 BYTE   N10  Gn3  v112
 BYTE   W16
 BYTE   N07
 BYTE   W08
 BYTE   N42  Gs3
 BYTE   W48
 BYTE   PEND 
//  #06 //004   ----------------------------------------
Label_011DEA12:
 BYTE   N10  Cs4  v112
 BYTE   W16
 BYTE   N06  Gs3
 BYTE   W08
 BYTE   N09  Gn3
 BYTE   W16
 BYTE   N04  Gs3
 BYTE   W08
 BYTE   N36  Bn3
 BYTE   W40
 BYTE   N03  An3
 BYTE   W04
 BYTE   Bn3
 BYTE   W04
 BYTE   PEND 
//  #06 //005   ----------------------------------------
Label_011DEA28:
 BYTE   N10  Cs4  v112
 BYTE   W16
 BYTE   N03
 BYTE   W04
 BYTE   Bn3
 BYTE   W04
 BYTE   N10  As3
 BYTE   W16
 BYTE   N07  Bn3
 BYTE   W08
 BYTE   N42  Gs3
 BYTE   W48
 BYTE   PEND 
//  #06 //006   ----------------------------------------
 BYTE   W96
//  #06 //007   ----------------------------------------
 BYTE   W96
//  #06 //008   ----------------------------------------
 BYTE   W96
//  #06 //009   ----------------------------------------
 BYTE   W96
//  #06 //010   ----------------------------------------
 BYTE   W96
//  #06 //011   ----------------------------------------
 BYTE   W96
//  #06 //012   ----------------------------------------
 BYTE   W96
//  #06 //013   ----------------------------------------
 BYTE   W96
//  #06 //014   ----------------------------------------
 BYTE   W96
//  #06 //015   ----------------------------------------
 BYTE   W96
//  #06 //016   ----------------------------------------
 BYTE   PAN   c_v-1
 BYTE   W96
//  #06 //017   ----------------------------------------
 BYTE   PATT
  POIN2 Label_011DE9DD
//  #06 //018   ----------------------------------------
 BYTE   PATT
  POIN2 Label_011DE9E8
//  #06 //019   ----------------------------------------
 BYTE   PATT
  POIN2 Label_011DE9FE
//  #06 //020   ----------------------------------------
 BYTE   PATT
  POIN2 Label_011DEA12
//  #06 //021   ----------------------------------------
 BYTE   PATT
  POIN2 Label_011DEA28
//  #06 //022   ----------------------------------------
 BYTE   W96
//  #06 //023   ----------------------------------------
 BYTE   W96
//  #06 //024   ----------------------------------------
 BYTE   W96
//  #06 //025   ----------------------------------------
 BYTE   W96
//  #06 //026   ----------------------------------------
 BYTE   W96
//  #06 //027   ----------------------------------------
 BYTE   W96
//  #06 //028   ----------------------------------------
 BYTE   W96
//  #06 //029   ----------------------------------------
 BYTE   W96
//  #06 //030   ----------------------------------------
 BYTE   W96
//  #06 //031   ----------------------------------------
 BYTE   W96
//  #06 //032   ----------------------------------------
 BYTE   PAN   c_v-1
 BYTE   W96
//  #06 //033   ----------------------------------------
 BYTE   PATT
  POIN2 Label_011DE9DD
//  #06 //034   ----------------------------------------
 BYTE   PATT
  POIN2 Label_011DE9E8
//  #06 //035   ----------------------------------------
 BYTE   PATT
  POIN2 Label_011DE9FE
//  #06 //036   ----------------------------------------
 BYTE   PATT
  POIN2 Label_011DEA12
//  #06 //037   ----------------------------------------
 BYTE   PATT
  POIN2 Label_011DEA28
//  #06 //038   ----------------------------------------
 BYTE   W96
//  #06 //039   ----------------------------------------
 BYTE   W96
//  #06 //040   ----------------------------------------
 BYTE   W96
//  #06 //041   ----------------------------------------
 BYTE   W96
//  #06 //042   ----------------------------------------
 BYTE   W96
//  #06 //043   ----------------------------------------
 BYTE   W96
//  #06 //044   ----------------------------------------
 BYTE   W96
//  #06 //045   ----------------------------------------
 BYTE   W96
//  #06 //046   ----------------------------------------
 BYTE   W96
//  #06 //047   ----------------------------------------
 BYTE   W96
//  #06 //048   ----------------------------------------
 BYTE   PAN   c_v-1
 BYTE   W96
//  #06 //049   ----------------------------------------
 BYTE   PATT
  POIN2 Label_011DE9DD
//  #06 //050   ----------------------------------------
 BYTE   PATT
  POIN2 Label_011DE9E8
//  #06 //051   ----------------------------------------
 BYTE   PATT
  POIN2 Label_011DE9FE
//  #06 //052   ----------------------------------------
 BYTE   PATT
  POIN2 Label_011DEA12
//  #06 //053   ----------------------------------------
 BYTE   PATT
  POIN2 Label_011DEA28
//  #06 //054   ----------------------------------------
 BYTE   W96
//  #06 //055   ----------------------------------------
 BYTE   W96
//  #06 //056   ----------------------------------------
 BYTE   W96
//  #06 //057   ----------------------------------------
 BYTE   W96
//  #06 //058   ----------------------------------------
 BYTE   W96
//  #06 //059   ----------------------------------------
 BYTE   W96
//  #06 //060   ----------------------------------------
 BYTE   W96
//  #06 //061   ----------------------------------------
 BYTE   W96
//  #06 //062   ----------------------------------------
 BYTE   W96
//  #06 //063   ----------------------------------------
 BYTE   W92
 BYTE   W03
 BYTE   GoTo
  POIN2 Label_011DE9D6
 BYTE   FINE

//**************** Track 7 (Midi-Chn.6) ****************//

SMRPGTrouble_007:
//  #07 //000   ----------------------------------------
 BYTE   KEYSH   SMRPGTrouble_key+0
Label_01102FC6:
 BYTE   VOICE   54
 BYTE   VOL   50*SMRPGTrouble_mvl/mxv
 BYTE   W96
//  #07 //001   ----------------------------------------
 BYTE   W96
//  #07 //002   ----------------------------------------
 BYTE   W96
//  #07 //003   ----------------------------------------
 BYTE   W96
//  #07 //004   ----------------------------------------
 BYTE   W96
//  #07 //005   ----------------------------------------
 BYTE   W96
//  #07 //006   ----------------------------------------
 BYTE   W96
//  #07 //007   ----------------------------------------
Label_01102FD1:
 BYTE   W84
 BYTE   N04  Cs4  v112
 BYTE   W04
 BYTE   Ds4
 BYTE   W04
 BYTE   N03  Fn4
 BYTE   W04
 BYTE   PEND 
//  #07 //008   ----------------------------------------
Label_01102FDC:
 BYTE   N12  Fs4  v112
 BYTE   W16
 BYTE   N07  Cs4
 BYTE   W08
 BYTE   N12  Cn4
 BYTE   W16
 BYTE   N07  Cs4
 BYTE   W08
 BYTE   N36  En4
 BYTE   W40
 BYTE   N03  Ds4
 BYTE   W04
 BYTE   N04  En4
 BYTE   W04
 BYTE   PEND 
//  #07 //009   ----------------------------------------
Label_01102FF3:
 BYTE   N13  Ds4  v112
 BYTE   W16
 BYTE   N03
 BYTE   W04
 BYTE   Cs4
 BYTE   W04
 BYTE   N12  Cn4
 BYTE   W16
 BYTE   N07
 BYTE   W08
 BYTE   N44  Cs4
 BYTE   W48
 BYTE   PEND 
//  #07 //010   ----------------------------------------
 BYTE   PATT
  POIN2 Label_01102FDC
//  #07 //011   ----------------------------------------
Label_01103009:
 BYTE   N13  Fs4  v112
 BYTE   W15
 BYTE   N03
 BYTE   W05
 BYTE   En4
 BYTE   W04
 BYTE   N13  Ds4
 BYTE   W16
 BYTE   N07  En4
 BYTE   W08
 BYTE   N42  Cs4
 BYTE   W48
 BYTE   PEND 
//  #07 //012   ----------------------------------------
Label_0110301B:
 BYTE   N07  Gs3  v112
 BYTE   W08
 BYTE   An3
 BYTE   W08
 BYTE   Gs3
 BYTE   W08
 BYTE   N12  Gn3
 BYTE   W16
 BYTE   N07  Ds3
 BYTE   W08
 BYTE   Fs3
 BYTE   W08
 BYTE   Gs3
 BYTE   W08
 BYTE   Fs3
 BYTE   W08
 BYTE   N13  En3
 BYTE   W16
 BYTE   N07  Cs3
 BYTE   W08
 BYTE   PEND 
//  #07 //013   ----------------------------------------
Label_01103036:
 BYTE   N12  An2  v112
 BYTE   W16
 BYTE   N07  Bn2
 BYTE   W08
 BYTE   Cs3
 BYTE   W08
 BYTE   Ds3
 BYTE   W08
 BYTE   En3
 BYTE   W08
 BYTE   N22  Gn3
 BYTE   W24
 BYTE   Gs3
 BYTE   W24
 BYTE   PEND 
//  #07 //014   ----------------------------------------
Label_01103049:
 BYTE   N10  Cs4  v112
 BYTE   W16
 BYTE   N06  Gs3
 BYTE   W08
 BYTE   N09  Gn3
 BYTE   W16
 BYTE   N07  Gs3
 BYTE   W08
 BYTE   N13  Bn3
 BYTE   W16
 BYTE   N15  As3
 BYTE   W16
 BYTE   An3
 BYTE   W16
 BYTE   PEND 
//  #07 //015   ----------------------------------------
Label_0110305F:
 BYTE   N07  Gs3  v112
 BYTE   W08
 BYTE   An3
 BYTE   W08
 BYTE   Gs3
 BYTE   W08
 BYTE   Fs3
 BYTE   W08
 BYTE   En3
 BYTE   W08
 BYTE   Ds3
 BYTE   W08
 BYTE   N18  Cs3
 BYTE   W24
 BYTE   N19  Cs4
 BYTE   W24
 BYTE   PEND 
//  #07 //016   ----------------------------------------
 BYTE   W96
//  #07 //017   ----------------------------------------
 BYTE   W96
//  #07 //018   ----------------------------------------
 BYTE   W96
//  #07 //019   ----------------------------------------
 BYTE   W96
//  #07 //020   ----------------------------------------
 BYTE   W96
//  #07 //021   ----------------------------------------
 BYTE   W96
//  #07 //022   ----------------------------------------
 BYTE   W96
//  #07 //023   ----------------------------------------
 BYTE   PATT
  POIN2 Label_01102FD1
//  #07 //024   ----------------------------------------
 BYTE   PATT
  POIN2 Label_01102FDC
//  #07 //025   ----------------------------------------
 BYTE   PATT
  POIN2 Label_01102FF3
//  #07 //026   ----------------------------------------
 BYTE   PATT
  POIN2 Label_01102FDC
//  #07 //027   ----------------------------------------
 BYTE   PATT
  POIN2 Label_01103009
//  #07 //028   ----------------------------------------
 BYTE   PATT
  POIN2 Label_0110301B
//  #07 //029   ----------------------------------------
 BYTE   PATT
  POIN2 Label_01103036
//  #07 //030   ----------------------------------------
 BYTE   PATT
  POIN2 Label_01103049
//  #07 //031   ----------------------------------------
 BYTE   PATT
  POIN2 Label_0110305F
//  #07 //032   ----------------------------------------
 BYTE   W96
//  #07 //033   ----------------------------------------
 BYTE   W96
//  #07 //034   ----------------------------------------
 BYTE   W96
//  #07 //035   ----------------------------------------
 BYTE   W96
//  #07 //036   ----------------------------------------
 BYTE   W96
//  #07 //037   ----------------------------------------
 BYTE   W96
//  #07 //038   ----------------------------------------
 BYTE   W96
//  #07 //039   ----------------------------------------
 BYTE   PATT
  POIN2 Label_01102FD1
//  #07 //040   ----------------------------------------
 BYTE   PATT
  POIN2 Label_01102FDC
//  #07 //041   ----------------------------------------
 BYTE   PATT
  POIN2 Label_01102FF3
//  #07 //042   ----------------------------------------
 BYTE   PATT
  POIN2 Label_01102FDC
//  #07 //043   ----------------------------------------
 BYTE   PATT
  POIN2 Label_01103009
//  #07 //044   ----------------------------------------
 BYTE   PATT
  POIN2 Label_0110301B
//  #07 //045   ----------------------------------------
 BYTE   PATT
  POIN2 Label_01103036
//  #07 //046   ----------------------------------------
 BYTE   PATT
  POIN2 Label_01103049
//  #07 //047   ----------------------------------------
 BYTE   PATT
  POIN2 Label_0110305F
//  #07 //048   ----------------------------------------
 BYTE   W96
//  #07 //049   ----------------------------------------
 BYTE   W96
//  #07 //050   ----------------------------------------
 BYTE   W96
//  #07 //051   ----------------------------------------
 BYTE   W96
//  #07 //052   ----------------------------------------
 BYTE   W96
//  #07 //053   ----------------------------------------
 BYTE   W96
//  #07 //054   ----------------------------------------
 BYTE   W96
//  #07 //055   ----------------------------------------
 BYTE   PATT
  POIN2 Label_01102FD1
//  #07 //056   ----------------------------------------
 BYTE   PATT
  POIN2 Label_01102FDC
//  #07 //057   ----------------------------------------
 BYTE   PATT
  POIN2 Label_01102FF3
//  #07 //058   ----------------------------------------
 BYTE   PATT
  POIN2 Label_01102FDC
//  #07 //059   ----------------------------------------
 BYTE   PATT
  POIN2 Label_01103009
//  #07 //060   ----------------------------------------
 BYTE   PATT
  POIN2 Label_0110301B
//  #07 //061   ----------------------------------------
 BYTE   PATT
  POIN2 Label_01103036
//  #07 //062   ----------------------------------------
 BYTE   PATT
  POIN2 Label_01103049
//  #07 //063   ----------------------------------------
 BYTE   N07  Gs3  v112
 BYTE   W08
 BYTE   An3
 BYTE   W08
 BYTE   Gs3
 BYTE   W08
 BYTE   Fs3
 BYTE   W08
 BYTE   En3
 BYTE   W08
 BYTE   Ds3
 BYTE   W08
 BYTE   N18  Cs3
 BYTE   W24
 BYTE   N19  Cs4
 BYTE   W23
 BYTE   GoTo
  POIN2 Label_01102FC6
 BYTE   FINE

//**************** Track 8 (Midi-Chn.7) ****************//

SMRPGTrouble_008:
//  #08 //000   ----------------------------------------
 BYTE   KEYSH   SMRPGTrouble_key+0
Label_0110343E:
 BYTE   VOICE   127
 BYTE   VOL   77*SMRPGTrouble_mvl/mxv
 BYTE   N10  Ds2  v112
 BYTE   N04  Cs3  v127
 BYTE   W16
 BYTE   N07
 BYTE   W08
 BYTE   N04  Ds2  v112
 BYTE   N10  Cn3  v127
 BYTE   W16
 BYTE   N04  Ds2  v112
 BYTE   N10  Cn3  v127
 BYTE   W08
 BYTE   Cs3
 BYTE   W08
 BYTE   N04  Ds2  v112
 BYTE   W08
 BYTE   N04
 BYTE   N10  Cs3  v127
 BYTE   W08
 BYTE   N04  Ds2  v112
 BYTE   N10  Cn3  v127
 BYTE   W16
 BYTE   N07
 BYTE   W08
//  #08 //001   ----------------------------------------
Label_0110346D:
 BYTE   N10  Ds2  v112
 BYTE   N04  Cs3  v127
 BYTE   W16
 BYTE   N07
 BYTE   W08
 BYTE   N04  Ds2  v112
 BYTE   N10  Cn3  v127
 BYTE   W16
 BYTE   N04  Ds2  v112
 BYTE   N10  Cn3  v127
 BYTE   W08
 BYTE   Cs3
 BYTE   W08
 BYTE   N04  Ds2  v112
 BYTE   W08
 BYTE   N04
 BYTE   N10  Cs3  v127
 BYTE   W08
 BYTE   N04  Ds2  v112
 BYTE   N10  Cn3  v127
 BYTE   W16
 BYTE   N07
 BYTE   W08
 BYTE   PEND 
//  #08 //002   ----------------------------------------
 BYTE   PATT
  POIN2 Label_0110346D
//  #08 //003   ----------------------------------------
 BYTE   PATT
  POIN2 Label_0110346D
//  #08 //004   ----------------------------------------
 BYTE   PATT
  POIN2 Label_0110346D
//  #08 //005   ----------------------------------------
 BYTE   PATT
  POIN2 Label_0110346D
//  #08 //006   ----------------------------------------
Label_011034AD:
 BYTE   W24
 BYTE   N07  Fs1  v112
 BYTE   W48
 BYTE   N07
 BYTE   W24
 BYTE   PEND 
//  #08 //007   ----------------------------------------
 BYTE   W24
 BYTE   N07
 BYTE   W72
//  #08 //008   ----------------------------------------
Label_011034B8:
 BYTE   N10  Ds2  v112
 BYTE   N04  Cs3  v127
 BYTE   W16
 BYTE   N07  Ds2  v112
 BYTE   N07  Cs3  v127
 BYTE   W08
 BYTE   Ds2  v112
 BYTE   N10  Cn3  v127
 BYTE   W16
 BYTE   N07  Ds2  v112
 BYTE   N10  Cn3  v127
 BYTE   W08
 BYTE   N07  Ds2  v112
 BYTE   N10  Cs3  v127
 BYTE   W08
 BYTE   N04  Ds2  v112
 BYTE   W08
 BYTE   N04
 BYTE   N10  Cs3  v127
 BYTE   W08
 BYTE   N07  Ds2  v112
 BYTE   N10  Cn3  v127
 BYTE   W16
 BYTE   N07  Ds2  v112
 BYTE   N07  Cn3  v127
 BYTE   W08
 BYTE   PEND 
//  #08 //009   ----------------------------------------
 BYTE   PATT
  POIN2 Label_011034B8
//  #08 //010   ----------------------------------------
 BYTE   PATT
  POIN2 Label_011034B8
//  #08 //011   ----------------------------------------
 BYTE   PATT
  POIN2 Label_011034B8
//  #08 //012   ----------------------------------------
 BYTE   PATT
  POIN2 Label_0110346D
//  #08 //013   ----------------------------------------
 BYTE   PATT
  POIN2 Label_0110346D
//  #08 //014   ----------------------------------------
 BYTE   PATT
  POIN2 Label_0110346D
//  #08 //015   ----------------------------------------
 BYTE   PATT
  POIN2 Label_0110346D
//  #08 //016   ----------------------------------------
Label_01103515:
 BYTE   N10  Ds2  v112
 BYTE   N04  Cs3  v127
 BYTE   W16
 BYTE   N07
 BYTE   W08
 BYTE   N04  Ds2  v112
 BYTE   N10  Cn3  v127
 BYTE   W16
 BYTE   N04  Ds2  v112
 BYTE   N10  Cn3  v127
 BYTE   W08
 BYTE   Cs3
 BYTE   W08
 BYTE   N04  Ds2  v112
 BYTE   W08
 BYTE   N04
 BYTE   N10  Cs3  v127
 BYTE   W08
 BYTE   N04  Ds2  v112
 BYTE   N10  Cn3  v127
 BYTE   W16
 BYTE   N07
 BYTE   W08
 BYTE   PEND 
//  #08 //017   ----------------------------------------
 BYTE   PATT
  POIN2 Label_0110346D
//  #08 //018   ----------------------------------------
 BYTE   PATT
  POIN2 Label_0110346D
//  #08 //019   ----------------------------------------
 BYTE   PATT
  POIN2 Label_0110346D
//  #08 //020   ----------------------------------------
 BYTE   PATT
  POIN2 Label_0110346D
//  #08 //021   ----------------------------------------
 BYTE   PATT
  POIN2 Label_0110346D
//  #08 //022   ----------------------------------------
 BYTE   PATT
  POIN2 Label_011034AD
//  #08 //023   ----------------------------------------
 BYTE   W24
 BYTE   N07  Fs1  v112
 BYTE   W72
//  #08 //024   ----------------------------------------
 BYTE   PATT
  POIN2 Label_011034B8
//  #08 //025   ----------------------------------------
 BYTE   PATT
  POIN2 Label_011034B8
//  #08 //026   ----------------------------------------
 BYTE   PATT
  POIN2 Label_011034B8
//  #08 //027   ----------------------------------------
 BYTE   PATT
  POIN2 Label_011034B8
//  #08 //028   ----------------------------------------
 BYTE   PATT
  POIN2 Label_0110346D
//  #08 //029   ----------------------------------------
 BYTE   PATT
  POIN2 Label_0110346D
//  #08 //030   ----------------------------------------
 BYTE   PATT
  POIN2 Label_0110346D
//  #08 //031   ----------------------------------------
 BYTE   PATT
  POIN2 Label_0110346D
//  #08 //032   ----------------------------------------
 BYTE   PATT
  POIN2 Label_01103515
//  #08 //033   ----------------------------------------
 BYTE   PATT
  POIN2 Label_0110346D
//  #08 //034   ----------------------------------------
 BYTE   PATT
  POIN2 Label_0110346D
//  #08 //035   ----------------------------------------
 BYTE   PATT
  POIN2 Label_0110346D
//  #08 //036   ----------------------------------------
 BYTE   PATT
  POIN2 Label_0110346D
//  #08 //037   ----------------------------------------
 BYTE   PATT
  POIN2 Label_0110346D
//  #08 //038   ----------------------------------------
 BYTE   PATT
  POIN2 Label_011034AD
//  #08 //039   ----------------------------------------
 BYTE   W24
 BYTE   N07  Fs1  v112
 BYTE   W72
//  #08 //040   ----------------------------------------
 BYTE   PATT
  POIN2 Label_011034B8
//  #08 //041   ----------------------------------------
 BYTE   PATT
  POIN2 Label_011034B8
//  #08 //042   ----------------------------------------
 BYTE   PATT
  POIN2 Label_011034B8
//  #08 //043   ----------------------------------------
 BYTE   PATT
  POIN2 Label_011034B8
//  #08 //044   ----------------------------------------
 BYTE   PATT
  POIN2 Label_0110346D
//  #08 //045   ----------------------------------------
 BYTE   PATT
  POIN2 Label_0110346D
//  #08 //046   ----------------------------------------
 BYTE   PATT
  POIN2 Label_0110346D
//  #08 //047   ----------------------------------------
 BYTE   PATT
  POIN2 Label_0110346D
//  #08 //048   ----------------------------------------
 BYTE   PATT
  POIN2 Label_01103515
//  #08 //049   ----------------------------------------
 BYTE   PATT
  POIN2 Label_0110346D
//  #08 //050   ----------------------------------------
 BYTE   PATT
  POIN2 Label_0110346D
//  #08 //051   ----------------------------------------
 BYTE   PATT
  POIN2 Label_0110346D
//  #08 //052   ----------------------------------------
 BYTE   PATT
  POIN2 Label_0110346D
//  #08 //053   ----------------------------------------
 BYTE   PATT
  POIN2 Label_0110346D
//  #08 //054   ----------------------------------------
 BYTE   PATT
  POIN2 Label_011034AD
//  #08 //055   ----------------------------------------
 BYTE   W24
 BYTE   N07  Fs1  v112
 BYTE   W72
//  #08 //056   ----------------------------------------
 BYTE   PATT
  POIN2 Label_011034B8
//  #08 //057   ----------------------------------------
 BYTE   PATT
  POIN2 Label_011034B8
//  #08 //058   ----------------------------------------
 BYTE   PATT
  POIN2 Label_011034B8
//  #08 //059   ----------------------------------------
 BYTE   PATT
  POIN2 Label_011034B8
//  #08 //060   ----------------------------------------
 BYTE   PATT
  POIN2 Label_0110346D
//  #08 //061   ----------------------------------------
 BYTE   PATT
  POIN2 Label_0110346D
//  #08 //062   ----------------------------------------
 BYTE   PATT
  POIN2 Label_0110346D
//  #08 //063   ----------------------------------------
 BYTE   N10  Ds2  v112
 BYTE   N04  Cs3  v127
 BYTE   W16
 BYTE   N07
 BYTE   W08
 BYTE   N04  Ds2  v112
 BYTE   N10  Cn3  v127
 BYTE   W16
 BYTE   N04  Ds2  v112
 BYTE   N10  Cn3  v127
 BYTE   W08
 BYTE   Cs3
 BYTE   W08
 BYTE   N04  Ds2  v112
 BYTE   W08
 BYTE   N04
 BYTE   N10  Cs3  v127
 BYTE   W08
 BYTE   N04  Ds2  v112
 BYTE   N10  Cn3  v127
 BYTE   W16
 BYTE   N07
 BYTE   W07
 BYTE   GoTo
  POIN2 Label_0110343E
 BYTE   FINE

//******************************************************//
	ALIGN 4

SMRPGTrouble:
	BYTE	8	// NumTrks
	BYTE	0	// NumBlks
	BYTE	SMRPGTrouble_pri	// Priority
	BYTE	SMRPGTrouble_rev	// Reverb.
    
	POIN2	SMRPGTrouble_grp
    
	POIN2	SMRPGTrouble_001
	POIN2	SMRPGTrouble_002
	POIN2	SMRPGTrouble_003
	POIN2	SMRPGTrouble_004
	POIN2	SMRPGTrouble_005
	POIN2	SMRPGTrouble_006
	POIN2	SMRPGTrouble_007
	POIN2	SMRPGTrouble_008

	
