//Event file generated from Sappy .s format.
	

	#define	SplashWave_grp  voicegroup000
	#define	SplashWave_pri  0
	#define	SplashWave_rev  0
	#define	SplashWave_mvl  127
	#define	SplashWave_key  0
	#define	SplashWave_tbs  1
	#define	SplashWave_exg  0
	#define	SplashWave_cmp  1

	// .rodata
	//	SplashWave
	ALIGN 4


//**************** Track 1 (Midi-Chn.0) ****************//

SplashWave_001:
//  #01 //000   ----------------------------------------
 BYTE   KEYSH   SplashWave_key+0
Label_012C27F6:
 BYTE   TEMPO   160*SplashWave_tbs/2
 BYTE   VOICE   38
 BYTE   VOL   45*SplashWave_mvl/mxv
 BYTE   W07
 BYTE   N12  An0  v100
 BYTE   W12
 BYTE   En1
 BYTE   W12
 BYTE   An1
 BYTE   W12
 BYTE   N18  An0
 BYTE   W24
 BYTE   N12
 BYTE   W12
 BYTE   An1
 BYTE   W12
 BYTE   Gs1
 BYTE   W05
//  #01 //001   ----------------------------------------
Label_012C280E:
 BYTE   W07
 BYTE   N12  Gs0  v100
 BYTE   W12
 BYTE   Gs1
 BYTE   W12
 BYTE   Gs0
 BYTE   W12
 BYTE   N12
 BYTE   W12
 BYTE   En1
 BYTE   W12
 BYTE   Gs0
 BYTE   W12
 BYTE   Gs1
 BYTE   W12
 BYTE   Gn1
 BYTE   W05
 BYTE   PEND 
//  #01 //002   ----------------------------------------
Label_012C2822:
 BYTE   W07
 BYTE   N12  Gn0  v100
 BYTE   W12
 BYTE   Dn1
 BYTE   W12
 BYTE   Gn1
 BYTE   W12
 BYTE   Gn0
 BYTE   W12
 BYTE   Dn1
 BYTE   W12
 BYTE   Gn1
 BYTE   W12
 BYTE   Gn0
 BYTE   W12
 BYTE   Dn1
 BYTE   W05
 BYTE   PEND 
//  #01 //003   ----------------------------------------
Label_012C2836:
 BYTE   W07
 BYTE   N12  Dn0  v100
 BYTE   W12
 BYTE   An0
 BYTE   W12
 BYTE   Dn1
 BYTE   W12
 BYTE   Dn0
 BYTE   W12
 BYTE   Cn1
 BYTE   W12
 BYTE   Bn0
 BYTE   W12
 BYTE   Dn0
 BYTE   W12
 BYTE   Gn0
 BYTE   W05
 BYTE   PEND 
//  #01 //004   ----------------------------------------
Label_012C284A:
 BYTE   W07
 BYTE   N12  An0  v100
 BYTE   W12
 BYTE   N12
 BYTE   W12
 BYTE   An1
 BYTE   W12
 BYTE   An0
 BYTE   W12
 BYTE   Cn2
 BYTE   W12
 BYTE   An1
 BYTE   W12
 BYTE   An0
 BYTE   W12
 BYTE   An1
 BYTE   W05
 BYTE   PEND 
//  #01 //005   ----------------------------------------
Label_012C285E:
 BYTE   W07
 BYTE   N12  Gs0  v100
 BYTE   W12
 BYTE   N12
 BYTE   W12
 BYTE   Gs1
 BYTE   W12
 BYTE   Gs0
 BYTE   W12
 BYTE   Bn1
 BYTE   W12
 BYTE   Gs1
 BYTE   W12
 BYTE   Gs0
 BYTE   W12
 BYTE   Gs1
 BYTE   W05
 BYTE   PEND 
//  #01 //006   ----------------------------------------
Label_012C2872:
 BYTE   W07
 BYTE   N12  Gn0  v100
 BYTE   W12
 BYTE   Gn1
 BYTE   W12
 BYTE   Gn0
 BYTE   W12
 BYTE   N12
 BYTE   W12
 BYTE   Bn1
 BYTE   W12
 BYTE   An1
 BYTE   W12
 BYTE   Gn1
 BYTE   W12
 BYTE   Dn1
 BYTE   W05
 BYTE   PEND 
//  #01 //007   ----------------------------------------
Label_012C2886:
 BYTE   W07
 BYTE   N12  Dn0  v100
 BYTE   W12
 BYTE   N12
 BYTE   W12
 BYTE   Dn1
 BYTE   W12
 BYTE   Dn0
 BYTE   W12
 BYTE   En0
 BYTE   W12
 BYTE   Dn0
 BYTE   W12
 BYTE   Cn0
 BYTE   W12
 BYTE   En0
 BYTE   W05
 BYTE   PEND 
//  #01 //008   ----------------------------------------
 BYTE   PATT
  POIN2 Label_012C284A
//  #01 //009   ----------------------------------------
 BYTE   PATT
  POIN2 Label_012C285E
//  #01 //010   ----------------------------------------
 BYTE   PATT
  POIN2 Label_012C2872
//  #01 //011   ----------------------------------------
 BYTE   PATT
  POIN2 Label_012C2886
//  #01 //012   ----------------------------------------
Label_012C28AE:
 BYTE   W07
 BYTE   N12  An0  v100
 BYTE   W12
 BYTE   N12
 BYTE   W12
 BYTE   An1
 BYTE   W12
 BYTE   An0
 BYTE   W12
 BYTE   En1
 BYTE   W12
 BYTE   An0
 BYTE   W12
 BYTE   An1
 BYTE   W12
 BYTE   An0
 BYTE   W05
 BYTE   PEND 
//  #01 //013   ----------------------------------------
Label_012C28C2:
 BYTE   W07
 BYTE   N12  Gs0  v100
 BYTE   W12
 BYTE   N12
 BYTE   W12
 BYTE   Gs1
 BYTE   W12
 BYTE   Gs0
 BYTE   W12
 BYTE   Ds1
 BYTE   W12
 BYTE   Gs0
 BYTE   W12
 BYTE   Gs1
 BYTE   W12
 BYTE   Gs0
 BYTE   W05
 BYTE   PEND 
//  #01 //014   ----------------------------------------
Label_012C28D6:
 BYTE   W07
 BYTE   N12  Gn0  v100
 BYTE   W12
 BYTE   N12
 BYTE   W12
 BYTE   Gn1
 BYTE   W12
 BYTE   Gn0
 BYTE   W12
 BYTE   Dn1
 BYTE   W12
 BYTE   Gn0
 BYTE   W12
 BYTE   Gn1
 BYTE   W12
 BYTE   Dn1
 BYTE   W05
 BYTE   PEND 
//  #01 //015   ----------------------------------------
Label_012C28EA:
 BYTE   W07
 BYTE   N08  Dn0  v100
 BYTE   W08
 BYTE   An0
 BYTE   W08
 BYTE   Dn1
 BYTE   W08
 BYTE   Ds0
 BYTE   W08
 BYTE   As0
 BYTE   W08
 BYTE   Ds1
 BYTE   W08
 BYTE   En0
 BYTE   W08
 BYTE   Bn0
 BYTE   W08
 BYTE   En1
 BYTE   W08
 BYTE   Fn0
 BYTE   W08
 BYTE   Cn1
 BYTE   W08
 BYTE   Fn1
 BYTE   W01
 BYTE   PEND 
//  #01 //016   ----------------------------------------
Label_012C2906:
 BYTE   W07
 BYTE   N08  Fs0  v100
 BYTE   W08
 BYTE   Cs1
 BYTE   W08
 BYTE   Fs1
 BYTE   W08
 BYTE   Gn0
 BYTE   W08
 BYTE   Dn1
 BYTE   W08
 BYTE   Gn1
 BYTE   W08
 BYTE   Gs0
 BYTE   W08
 BYTE   Ds1
 BYTE   W08
 BYTE   Gs1
 BYTE   W08
 BYTE   An0
 BYTE   W08
 BYTE   En1
 BYTE   W08
 BYTE   An1
 BYTE   W01
 BYTE   PEND 
//  #01 //017   ----------------------------------------
Label_012C2922:
 BYTE   W07
 BYTE   N12  Gn0  v100
 BYTE   W12
 BYTE   N09  Gn1
 BYTE   W12
 BYTE   N12  Gn0
 BYTE   W12
 BYTE   N09  Gn1
 BYTE   W12
 BYTE   N12  Gn0
 BYTE   W12
 BYTE   N09  Gn1
 BYTE   W12
 BYTE   N12  Gn0
 BYTE   W12
 BYTE   N09  Gn1
 BYTE   W05
 BYTE   PEND 
//  #01 //018   ----------------------------------------
 BYTE   PATT
  POIN2 Label_012C2922
//  #01 //019   ----------------------------------------
Label_012C2942:
 BYTE   W07
 BYTE   N12  Fn0  v100
 BYTE   W12
 BYTE   N09  Fn1
 BYTE   W12
 BYTE   N12  Fn0
 BYTE   W12
 BYTE   N09  Fn1
 BYTE   W12
 BYTE   N12  Fn0
 BYTE   W12
 BYTE   N09  Fn1
 BYTE   W12
 BYTE   N12  Fn0
 BYTE   W12
 BYTE   N09  Fn1
 BYTE   W05
 BYTE   PEND 
//  #01 //020   ----------------------------------------
 BYTE   PATT
  POIN2 Label_012C2942
//  #01 //021   ----------------------------------------
Label_012C2962:
 BYTE   W07
 BYTE   N12  An0  v100
 BYTE   W12
 BYTE   N09  An1
 BYTE   W12
 BYTE   N12  An0
 BYTE   W12
 BYTE   N09  An1
 BYTE   W12
 BYTE   N12  An0
 BYTE   W12
 BYTE   N09  An1
 BYTE   W12
 BYTE   N12  An0
 BYTE   W12
 BYTE   N09  An1
 BYTE   W05
 BYTE   PEND 
//  #01 //022   ----------------------------------------
 BYTE   PATT
  POIN2 Label_012C2962
//  #01 //023   ----------------------------------------
Label_012C2982:
 BYTE   W07
 BYTE   N12  En0  v100
 BYTE   W12
 BYTE   N09  En1
 BYTE   W12
 BYTE   N12  En0
 BYTE   W12
 BYTE   N09  En1
 BYTE   W12
 BYTE   N12  En0
 BYTE   W12
 BYTE   N09  En1
 BYTE   W12
 BYTE   N12  En0
 BYTE   W12
 BYTE   N09  En1
 BYTE   W05
 BYTE   PEND 
//  #01 //024   ----------------------------------------
Label_012C299D:
 BYTE   W07
 BYTE   N12  En0  v100
 BYTE   W12
 BYTE   N09  En1
 BYTE   W12
 BYTE   N12  En0
 BYTE   W12
 BYTE   N09  En1
 BYTE   W12
 BYTE   N12  En0
 BYTE   W12
 BYTE   N09  En1
 BYTE   W12
 BYTE   N12  En0
 BYTE   W12
 BYTE   N09  Fn1
 BYTE   W05
 BYTE   PEND 
//  #01 //025   ----------------------------------------
 BYTE   PATT
  POIN2 Label_012C2942
//  #01 //026   ----------------------------------------
 BYTE   PATT
  POIN2 Label_012C2942
//  #01 //027   ----------------------------------------
Label_012C29C2:
 BYTE   W07
 BYTE   N12  Cn0  v100
 BYTE   W12
 BYTE   N09  Cn1
 BYTE   W12
 BYTE   N12  Cn0
 BYTE   W12
 BYTE   N09  Cn1
 BYTE   W12
 BYTE   N12  Cn0
 BYTE   W12
 BYTE   N09  Cn1
 BYTE   W12
 BYTE   N12  Cn0
 BYTE   W12
 BYTE   N09  Cn1
 BYTE   W05
 BYTE   PEND 
//  #01 //028   ----------------------------------------
 BYTE   PATT
  POIN2 Label_012C29C2
//  #01 //029   ----------------------------------------
Label_012C29E2:
 BYTE   W07
 BYTE   N12  Ds0  v100
 BYTE   W12
 BYTE   N09  Ds1
 BYTE   W12
 BYTE   N12  Ds0
 BYTE   W12
 BYTE   N09  Ds1
 BYTE   W12
 BYTE   N12  Ds0
 BYTE   W12
 BYTE   N09  Ds1
 BYTE   W12
 BYTE   N12  Ds0
 BYTE   W12
 BYTE   N09  Ds1
 BYTE   W05
 BYTE   PEND 
//  #01 //030   ----------------------------------------
 BYTE   PATT
  POIN2 Label_012C29E2
//  #01 //031   ----------------------------------------
Label_012C2A02:
 BYTE   W07
 BYTE   N12  Dn0  v100
 BYTE   W12
 BYTE   N09  Dn1
 BYTE   W12
 BYTE   N12  Dn0
 BYTE   W12
 BYTE   N09  Dn1
 BYTE   W12
 BYTE   N12  Dn0
 BYTE   W12
 BYTE   N09  Dn1
 BYTE   W12
 BYTE   N12  Dn0
 BYTE   W12
 BYTE   N09  Dn1
 BYTE   W05
 BYTE   PEND 
//  #01 //032   ----------------------------------------
 BYTE   PATT
  POIN2 Label_012C2A02
//  #01 //033   ----------------------------------------
 BYTE   PATT
  POIN2 Label_012C2922
//  #01 //034   ----------------------------------------
 BYTE   PATT
  POIN2 Label_012C2922
//  #01 //035   ----------------------------------------
 BYTE   PATT
  POIN2 Label_012C2942
//  #01 //036   ----------------------------------------
 BYTE   PATT
  POIN2 Label_012C2942
//  #01 //037   ----------------------------------------
 BYTE   PATT
  POIN2 Label_012C2962
//  #01 //038   ----------------------------------------
 BYTE   PATT
  POIN2 Label_012C2962
//  #01 //039   ----------------------------------------
 BYTE   PATT
  POIN2 Label_012C2982
//  #01 //040   ----------------------------------------
 BYTE   PATT
  POIN2 Label_012C299D
//  #01 //041   ----------------------------------------
 BYTE   PATT
  POIN2 Label_012C2942
//  #01 //042   ----------------------------------------
 BYTE   PATT
  POIN2 Label_012C2942
//  #01 //043   ----------------------------------------
 BYTE   PATT
  POIN2 Label_012C29C2
//  #01 //044   ----------------------------------------
 BYTE   PATT
  POIN2 Label_012C29C2
//  #01 //045   ----------------------------------------
 BYTE   PATT
  POIN2 Label_012C29E2
//  #01 //046   ----------------------------------------
 BYTE   PATT
  POIN2 Label_012C29E2
//  #01 //047   ----------------------------------------
 BYTE   PATT
  POIN2 Label_012C2A02
//  #01 //048   ----------------------------------------
 BYTE   PATT
  POIN2 Label_012C2A02
//  #01 //049   ----------------------------------------
Label_012C2A72:
 BYTE   W19
 BYTE   N12  Fn1  v100
 BYTE   W12
 BYTE   Cn1
 BYTE   W12
 BYTE   Dn1
 BYTE   W12
 BYTE   Fn1
 BYTE   W24
 BYTE   Cn1
 BYTE   W12
 BYTE   Dn1
 BYTE   W05
 BYTE   PEND 
//  #01 //050   ----------------------------------------
Label_012C2A82:
 BYTE   W19
 BYTE   N12  Fn1  v100
 BYTE   W12
 BYTE   Cn1
 BYTE   W12
 BYTE   Dn1
 BYTE   W12
 BYTE   Fn1
 BYTE   W12
 BYTE   Cn1
 BYTE   W12
 BYTE   Dn1
 BYTE   W12
 BYTE   Fn1
 BYTE   W05
 BYTE   PEND 
//  #01 //051   ----------------------------------------
Label_012C2A94:
 BYTE   W19
 BYTE   N12  En1  v100
 BYTE   W12
 BYTE   Bn0
 BYTE   W12
 BYTE   Dn1
 BYTE   W12
 BYTE   En1
 BYTE   W24
 BYTE   Bn0
 BYTE   W12
 BYTE   Dn1
 BYTE   W05
 BYTE   PEND 
//  #01 //052   ----------------------------------------
Label_012C2AA4:
 BYTE   W07
 BYTE   N12  En1  v100
 BYTE   W12
 BYTE   Bn0
 BYTE   W12
 BYTE   Dn1
 BYTE   W12
 BYTE   N24  En1
 BYTE   W24
 BYTE   N12
 BYTE   W12
 BYTE   Dn1
 BYTE   W12
 BYTE   Bn0
 BYTE   W05
 BYTE   PEND 
//  #01 //053   ----------------------------------------
 BYTE   PATT
  POIN2 Label_012C2A72
//  #01 //054   ----------------------------------------
 BYTE   PATT
  POIN2 Label_012C2A82
//  #01 //055   ----------------------------------------
Label_012C2AC1:
 BYTE   W19
 BYTE   N12  En1  v100
 BYTE   W12
 BYTE   Bn0
 BYTE   W12
 BYTE   Dn1
 BYTE   W12
 BYTE   En1
 BYTE   W12
 BYTE   Bn0
 BYTE   W12
 BYTE   Dn1
 BYTE   W12
 BYTE   N24  En1
 BYTE   W05
 BYTE   PEND 
//  #01 //056   ----------------------------------------
Label_012C2AD4:
 BYTE   W19
 BYTE   N12  En2  v100
 BYTE   W12
 BYTE   En1
 BYTE   W12
 BYTE   N12
 BYTE   W12
 BYTE   Dn2
 BYTE   W12
 BYTE   Bn0
 BYTE   W12
 BYTE   Bn1
 BYTE   W12
 BYTE   Cn2
 BYTE   W05
 BYTE   PEND 
//  #01 //057   ----------------------------------------
 BYTE   PATT
  POIN2 Label_012C2A72
//  #01 //058   ----------------------------------------
 BYTE   PATT
  POIN2 Label_012C2A82
//  #01 //059   ----------------------------------------
 BYTE   PATT
  POIN2 Label_012C2A94
//  #01 //060   ----------------------------------------
 BYTE   PATT
  POIN2 Label_012C2AA4
//  #01 //061   ----------------------------------------
 BYTE   PATT
  POIN2 Label_012C2A72
//  #01 //062   ----------------------------------------
 BYTE   PATT
  POIN2 Label_012C2A82
//  #01 //063   ----------------------------------------
Label_012C2B04:
 BYTE   W19
 BYTE   N12  En1  v100
 BYTE   W12
 BYTE   Bn0
 BYTE   W12
 BYTE   Dn1
 BYTE   W12
 BYTE   En1
 BYTE   W12
 BYTE   Bn0
 BYTE   W12
 BYTE   Dn1
 BYTE   W12
 BYTE   N18  En1
 BYTE   W05
 BYTE   PEND 
//  #01 //064   ----------------------------------------
Label_012C2B17:
 BYTE   W19
 BYTE   N12  En1  v100
 BYTE   W12
 BYTE   Bn0
 BYTE   W12
 BYTE   Dn1
 BYTE   W12
 BYTE   N18  En1
 BYTE   W18
 BYTE   Ds1
 BYTE   W18
 BYTE   N24  Dn1
 BYTE   W05
 BYTE   PEND 
//  #01 //065   ----------------------------------------
Label_012C2B29:
 BYTE   W19
 BYTE   N12  Dn1  v100
 BYTE   W12
 BYTE   N12
 BYTE   W12
 BYTE   N12
 BYTE   W12
 BYTE   N12
 BYTE   W12
 BYTE   N12
 BYTE   W12
 BYTE   N12
 BYTE   W12
 BYTE   N12
 BYTE   W05
 BYTE   PEND 
//  #01 //066   ----------------------------------------
Label_012C2B3B:
 BYTE   W07
 BYTE   N12  Gn0  v100
 BYTE   W12
 BYTE   N12
 BYTE   W12
 BYTE   N12
 BYTE   W12
 BYTE   N12
 BYTE   W12
 BYTE   N12
 BYTE   W12
 BYTE   Gn1
 BYTE   W12
 BYTE   Gn0
 BYTE   W12
 BYTE   N24  Cn1
 BYTE   W05
 BYTE   PEND 
//  #01 //067   ----------------------------------------
Label_012C2B50:
 BYTE   W19
 BYTE   N12  Cn1  v100
 BYTE   W12
 BYTE   N12
 BYTE   W12
 BYTE   N12
 BYTE   W12
 BYTE   N12
 BYTE   W12
 BYTE   N12
 BYTE   W12
 BYTE   N12
 BYTE   W12
 BYTE   N12
 BYTE   W05
 BYTE   PEND 
//  #01 //068   ----------------------------------------
Label_012C2B62:
 BYTE   W07
 BYTE   N12  An0  v100
 BYTE   W12
 BYTE   N12
 BYTE   W12
 BYTE   N12
 BYTE   W12
 BYTE   N12
 BYTE   W12
 BYTE   N12
 BYTE   W12
 BYTE   N12
 BYTE   W12
 BYTE   Cs1
 BYTE   W12
 BYTE   N24  Dn1
 BYTE   W05
 BYTE   PEND 
//  #01 //069   ----------------------------------------
 BYTE   PATT
  POIN2 Label_012C2B29
//  #01 //070   ----------------------------------------
 BYTE   PATT
  POIN2 Label_012C2B3B
//  #01 //071   ----------------------------------------
 BYTE   PATT
  POIN2 Label_012C2B50
//  #01 //072   ----------------------------------------
Label_012C2B86:
 BYTE   W07
 BYTE   N12  Cn1  v100
 BYTE   W12
 BYTE   N15  An0
 BYTE   W24
 BYTE   N15
 BYTE   W24
 BYTE   N15
 BYTE   W24
 BYTE   N24  Dn1
 BYTE   W05
 BYTE   PEND 
//  #01 //073   ----------------------------------------
 BYTE   PATT
  POIN2 Label_012C2B29
//  #01 //074   ----------------------------------------
 BYTE   PATT
  POIN2 Label_012C2B3B
//  #01 //075   ----------------------------------------
 BYTE   PATT
  POIN2 Label_012C2B50
//  #01 //076   ----------------------------------------
 BYTE   PATT
  POIN2 Label_012C2B62
//  #01 //077   ----------------------------------------
 BYTE   PATT
  POIN2 Label_012C2B29
//  #01 //078   ----------------------------------------
 BYTE   PATT
  POIN2 Label_012C2B3B
//  #01 //079   ----------------------------------------
 BYTE   PATT
  POIN2 Label_012C2B50
//  #01 //080   ----------------------------------------
 BYTE   W19
 BYTE   N18  Dn1  v100
 BYTE   W18
 BYTE   N18
 BYTE   W18
 BYTE   N12
 BYTE   W40
 BYTE   W01
//  #01 //081   ----------------------------------------
 BYTE   PATT
  POIN2 Label_012C2922
//  #01 //082   ----------------------------------------
 BYTE   PATT
  POIN2 Label_012C2922
//  #01 //083   ----------------------------------------
 BYTE   PATT
  POIN2 Label_012C2942
//  #01 //084   ----------------------------------------
 BYTE   PATT
  POIN2 Label_012C2942
//  #01 //085   ----------------------------------------
 BYTE   PATT
  POIN2 Label_012C2962
//  #01 //086   ----------------------------------------
 BYTE   PATT
  POIN2 Label_012C2962
//  #01 //087   ----------------------------------------
 BYTE   PATT
  POIN2 Label_012C2982
//  #01 //088   ----------------------------------------
 BYTE   PATT
  POIN2 Label_012C299D
//  #01 //089   ----------------------------------------
 BYTE   PATT
  POIN2 Label_012C2942
//  #01 //090   ----------------------------------------
 BYTE   PATT
  POIN2 Label_012C2942
//  #01 //091   ----------------------------------------
 BYTE   PATT
  POIN2 Label_012C29C2
//  #01 //092   ----------------------------------------
 BYTE   PATT
  POIN2 Label_012C29C2
//  #01 //093   ----------------------------------------
 BYTE   PATT
  POIN2 Label_012C29E2
//  #01 //094   ----------------------------------------
 BYTE   PATT
  POIN2 Label_012C29E2
//  #01 //095   ----------------------------------------
 BYTE   PATT
  POIN2 Label_012C2A02
//  #01 //096   ----------------------------------------
 BYTE   PATT
  POIN2 Label_012C2A02
//  #01 //097   ----------------------------------------
 BYTE   PATT
  POIN2 Label_012C2922
//  #01 //098   ----------------------------------------
 BYTE   PATT
  POIN2 Label_012C2922
//  #01 //099   ----------------------------------------
 BYTE   PATT
  POIN2 Label_012C2942
//  #01 //100   ----------------------------------------
 BYTE   PATT
  POIN2 Label_012C2942
//  #01 //101   ----------------------------------------
 BYTE   PATT
  POIN2 Label_012C2962
//  #01 //102   ----------------------------------------
 BYTE   PATT
  POIN2 Label_012C2962
//  #01 //103   ----------------------------------------
 BYTE   PATT
  POIN2 Label_012C2982
//  #01 //104   ----------------------------------------
 BYTE   PATT
  POIN2 Label_012C299D
//  #01 //105   ----------------------------------------
 BYTE   PATT
  POIN2 Label_012C2942
//  #01 //106   ----------------------------------------
 BYTE   PATT
  POIN2 Label_012C2942
//  #01 //107   ----------------------------------------
 BYTE   PATT
  POIN2 Label_012C29C2
//  #01 //108   ----------------------------------------
 BYTE   PATT
  POIN2 Label_012C29C2
//  #01 //109   ----------------------------------------
 BYTE   PATT
  POIN2 Label_012C29E2
//  #01 //110   ----------------------------------------
 BYTE   PATT
  POIN2 Label_012C29E2
//  #01 //111   ----------------------------------------
 BYTE   PATT
  POIN2 Label_012C2A02
//  #01 //112   ----------------------------------------
 BYTE   PATT
  POIN2 Label_012C2A02
//  #01 //113   ----------------------------------------
 BYTE   PATT
  POIN2 Label_012C2A72
//  #01 //114   ----------------------------------------
 BYTE   PATT
  POIN2 Label_012C2A82
//  #01 //115   ----------------------------------------
 BYTE   PATT
  POIN2 Label_012C2A94
//  #01 //116   ----------------------------------------
 BYTE   PATT
  POIN2 Label_012C2AA4
//  #01 //117   ----------------------------------------
 BYTE   PATT
  POIN2 Label_012C2A72
//  #01 //118   ----------------------------------------
 BYTE   PATT
  POIN2 Label_012C2A82
//  #01 //119   ----------------------------------------
 BYTE   PATT
  POIN2 Label_012C2AC1
//  #01 //120   ----------------------------------------
 BYTE   PATT
  POIN2 Label_012C2AD4
//  #01 //121   ----------------------------------------
 BYTE   PATT
  POIN2 Label_012C2A72
//  #01 //122   ----------------------------------------
 BYTE   PATT
  POIN2 Label_012C2A82
//  #01 //123   ----------------------------------------
 BYTE   PATT
  POIN2 Label_012C2A94
//  #01 //124   ----------------------------------------
 BYTE   PATT
  POIN2 Label_012C2AA4
//  #01 //125   ----------------------------------------
 BYTE   PATT
  POIN2 Label_012C2A72
//  #01 //126   ----------------------------------------
 BYTE   PATT
  POIN2 Label_012C2A82
//  #01 //127   ----------------------------------------
 BYTE   PATT
  POIN2 Label_012C2B04
//  #01 //128   ----------------------------------------
 BYTE   PATT
  POIN2 Label_012C2B17
//  #01 //129   ----------------------------------------
 BYTE   PATT
  POIN2 Label_012C2B29
//  #01 //130   ----------------------------------------
 BYTE   PATT
  POIN2 Label_012C2B3B
//  #01 //131   ----------------------------------------
 BYTE   PATT
  POIN2 Label_012C2B50
//  #01 //132   ----------------------------------------
 BYTE   PATT
  POIN2 Label_012C2B62
//  #01 //133   ----------------------------------------
 BYTE   PATT
  POIN2 Label_012C2B29
//  #01 //134   ----------------------------------------
 BYTE   PATT
  POIN2 Label_012C2B3B
//  #01 //135   ----------------------------------------
 BYTE   PATT
  POIN2 Label_012C2B50
//  #01 //136   ----------------------------------------
 BYTE   PATT
  POIN2 Label_012C2B86
//  #01 //137   ----------------------------------------
 BYTE   PATT
  POIN2 Label_012C2B29
//  #01 //138   ----------------------------------------
 BYTE   PATT
  POIN2 Label_012C2B3B
//  #01 //139   ----------------------------------------
 BYTE   PATT
  POIN2 Label_012C2B50
//  #01 //140   ----------------------------------------
 BYTE   PATT
  POIN2 Label_012C2B62
//  #01 //141   ----------------------------------------
 BYTE   PATT
  POIN2 Label_012C2B29
//  #01 //142   ----------------------------------------
 BYTE   PATT
  POIN2 Label_012C2B3B
//  #01 //143   ----------------------------------------
 BYTE   PATT
  POIN2 Label_012C2B50
//  #01 //144   ----------------------------------------
 BYTE   PATT
  POIN2 Label_012C2B29
//  #01 //145   ----------------------------------------
 BYTE   W96
//  #01 //146   ----------------------------------------
 BYTE   W96
//  #01 //147   ----------------------------------------
 BYTE   W96
//  #01 //148   ----------------------------------------
 BYTE   W96
//  #01 //149   ----------------------------------------
 BYTE   W96
//  #01 //150   ----------------------------------------
 BYTE   W96
//  #01 //151   ----------------------------------------
 BYTE   W96
//  #01 //152   ----------------------------------------
 BYTE   W96
//  #01 //153   ----------------------------------------
Label_012C2D0B:
 BYTE   W07
 BYTE   N12  An0  v100
 BYTE   W12
 BYTE   En1
 BYTE   W12
 BYTE   An1
 BYTE   W12
 BYTE   N18  An0
 BYTE   W24
 BYTE   N12
 BYTE   W12
 BYTE   An1
 BYTE   W12
 BYTE   Gs1
 BYTE   W05
 BYTE   PEND 
//  #01 //154   ----------------------------------------
 BYTE   PATT
  POIN2 Label_012C280E
//  #01 //155   ----------------------------------------
 BYTE   PATT
  POIN2 Label_012C2822
//  #01 //156   ----------------------------------------
 BYTE   PATT
  POIN2 Label_012C2836
//  #01 //157   ----------------------------------------
 BYTE   PATT
  POIN2 Label_012C284A
//  #01 //158   ----------------------------------------
 BYTE   PATT
  POIN2 Label_012C285E
//  #01 //159   ----------------------------------------
 BYTE   PATT
  POIN2 Label_012C2872
//  #01 //160   ----------------------------------------
 BYTE   PATT
  POIN2 Label_012C2886
//  #01 //161   ----------------------------------------
 BYTE   PATT
  POIN2 Label_012C284A
//  #01 //162   ----------------------------------------
 BYTE   PATT
  POIN2 Label_012C285E
//  #01 //163   ----------------------------------------
 BYTE   PATT
  POIN2 Label_012C2872
//  #01 //164   ----------------------------------------
 BYTE   PATT
  POIN2 Label_012C2886
//  #01 //165   ----------------------------------------
 BYTE   PATT
  POIN2 Label_012C28AE
//  #01 //166   ----------------------------------------
 BYTE   PATT
  POIN2 Label_012C28C2
//  #01 //167   ----------------------------------------
 BYTE   PATT
  POIN2 Label_012C28D6
//  #01 //168   ----------------------------------------
 BYTE   PATT
  POIN2 Label_012C28EA
//  #01 //169   ----------------------------------------
 BYTE   PATT
  POIN2 Label_012C2906
//  #01 //170   ----------------------------------------
 BYTE   W07
 BYTE   N12  Dn1  v100
 BYTE   W12
 BYTE   N12
 BYTE   W12
 BYTE   N12
 BYTE   W12
 BYTE   N12
 BYTE   W12
 BYTE   N12
 BYTE   W12
 BYTE   N12
 BYTE   W12
 BYTE   N12
 BYTE   W12
 BYTE   N12
 BYTE   W05
//  #01 //171   ----------------------------------------
 BYTE   PATT
  POIN2 Label_012C2B3B
//  #01 //172   ----------------------------------------
 BYTE   PATT
  POIN2 Label_012C2B50
//  #01 //173   ----------------------------------------
 BYTE   PATT
  POIN2 Label_012C2B62
//  #01 //174   ----------------------------------------
 BYTE   PATT
  POIN2 Label_012C2B29
//  #01 //175   ----------------------------------------
 BYTE   PATT
  POIN2 Label_012C2B3B
//  #01 //176   ----------------------------------------
 BYTE   PATT
  POIN2 Label_012C2B50
//  #01 //177   ----------------------------------------
 BYTE   PATT
  POIN2 Label_012C2B86
//  #01 //178   ----------------------------------------
 BYTE   PATT
  POIN2 Label_012C2B29
//  #01 //179   ----------------------------------------
 BYTE   PATT
  POIN2 Label_012C2B3B
//  #01 //180   ----------------------------------------
 BYTE   PATT
  POIN2 Label_012C2B50
//  #01 //181   ----------------------------------------
 BYTE   PATT
  POIN2 Label_012C2B62
//  #01 //182   ----------------------------------------
 BYTE   PATT
  POIN2 Label_012C2B29
//  #01 //183   ----------------------------------------
 BYTE   PATT
  POIN2 Label_012C2B3B
//  #01 //184   ----------------------------------------
 BYTE   PATT
  POIN2 Label_012C2B50
//  #01 //185   ----------------------------------------
 BYTE   W07
 BYTE   N12  An0  v100
 BYTE   W12
 BYTE   N12
 BYTE   W12
 BYTE   N12
 BYTE   W12
 BYTE   N12
 BYTE   W12
 BYTE   N12
 BYTE   W12
 BYTE   N12
 BYTE   W12
 BYTE   N12
 BYTE   W12
 BYTE   N24  Dn1
 BYTE   W05
//  #01 //186   ----------------------------------------
 BYTE   PATT
  POIN2 Label_012C2B29
//  #01 //187   ----------------------------------------
 BYTE   PATT
  POIN2 Label_012C2B3B
//  #01 //188   ----------------------------------------
 BYTE   PATT
  POIN2 Label_012C2B50
//  #01 //189   ----------------------------------------
 BYTE   PATT
  POIN2 Label_012C2B62
//  #01 //190   ----------------------------------------
 BYTE   PATT
  POIN2 Label_012C2B29
//  #01 //191   ----------------------------------------
 BYTE   PATT
  POIN2 Label_012C2B3B
//  #01 //192   ----------------------------------------
 BYTE   PATT
  POIN2 Label_012C2B50
//  #01 //193   ----------------------------------------
 BYTE   PATT
  POIN2 Label_012C2B86
//  #01 //194   ----------------------------------------
 BYTE   PATT
  POIN2 Label_012C2B29
//  #01 //195   ----------------------------------------
 BYTE   PATT
  POIN2 Label_012C2B3B
//  #01 //196   ----------------------------------------
 BYTE   PATT
  POIN2 Label_012C2B50
//  #01 //197   ----------------------------------------
 BYTE   PATT
  POIN2 Label_012C2B62
//  #01 //198   ----------------------------------------
 BYTE   PATT
  POIN2 Label_012C2B29
//  #01 //199   ----------------------------------------
 BYTE   PATT
  POIN2 Label_012C2B3B
//  #01 //200   ----------------------------------------
 BYTE   PATT
  POIN2 Label_012C2B50
//  #01 //201   ----------------------------------------
 BYTE   W96
//  #01 //202   ----------------------------------------
 BYTE   PATT
  POIN2 Label_012C2D0B
//  #01 //203   ----------------------------------------
 BYTE   PATT
  POIN2 Label_012C280E
//  #01 //204   ----------------------------------------
 BYTE   PATT
  POIN2 Label_012C2822
//  #01 //205   ----------------------------------------
 BYTE   PATT
  POIN2 Label_012C2836
//  #01 //206   ----------------------------------------
 BYTE   PATT
  POIN2 Label_012C284A
//  #01 //207   ----------------------------------------
 BYTE   PATT
  POIN2 Label_012C285E
//  #01 //208   ----------------------------------------
 BYTE   PATT
  POIN2 Label_012C2872
//  #01 //209   ----------------------------------------
 BYTE   PATT
  POIN2 Label_012C2886
//  #01 //210   ----------------------------------------
 BYTE   PATT
  POIN2 Label_012C284A
//  #01 //211   ----------------------------------------
 BYTE   PATT
  POIN2 Label_012C285E
//  #01 //212   ----------------------------------------
 BYTE   PATT
  POIN2 Label_012C2872
//  #01 //213   ----------------------------------------
 BYTE   PATT
  POIN2 Label_012C2886
//  #01 //214   ----------------------------------------
 BYTE   PATT
  POIN2 Label_012C28AE
//  #01 //215   ----------------------------------------
 BYTE   PATT
  POIN2 Label_012C28C2
//  #01 //216   ----------------------------------------
 BYTE   PATT
  POIN2 Label_012C28D6
//  #01 //217   ----------------------------------------
 BYTE   PATT
  POIN2 Label_012C2886
//  #01 //218   ----------------------------------------
 BYTE   W07
 BYTE   N12  An0  v112
 BYTE   W12
 BYTE   N12
 BYTE   W76
 BYTE   W01
//  #01 //219   ----------------------------------------
 BYTE   GoTo
  POIN2 Label_012C27F6
//  #01 //220   ----------------------------------------
 BYTE   W96
//  #01 //221   ----------------------------------------
 BYTE   W96
//  #01 //222   ----------------------------------------
 BYTE   W96
//  #01 //223   ----------------------------------------
 BYTE   W96
//  #01 //224   ----------------------------------------
 BYTE   W96
//  #01 //225   ----------------------------------------
 BYTE   W96
//  #01 //226   ----------------------------------------
 BYTE   W96
//  #01 //227   ----------------------------------------
 BYTE   W96
//  #01 //228   ----------------------------------------
 BYTE   W96
//  #01 //229   ----------------------------------------
 BYTE   W96
//  #01 //230   ----------------------------------------
 BYTE   W96
//  #01 //231   ----------------------------------------
 BYTE   W96
//  #01 //232   ----------------------------------------
 BYTE   W96
//  #01 //233   ----------------------------------------
 BYTE   W96
//  #01 //234   ----------------------------------------
 BYTE   W96
//  #01 //235   ----------------------------------------
 BYTE   W07
 BYTE   FINE

//**************** Track 2 (Midi-Chn.1) ****************//

SplashWave_002:
//  #02 //000   ----------------------------------------
 BYTE   KEYSH   SplashWave_key+0
Label_012C2E9A:
 BYTE   VOICE   81
 BYTE   PAN   c_v+20
 BYTE   VOL   37*SplashWave_mvl/mxv
 BYTE   W07
 BYTE   N12  An2  v127
 BYTE   N12  Cn3
 BYTE   N12  En3
 BYTE   W12
 BYTE   An2
 BYTE   N12  Cn3
 BYTE   N12  En3
 BYTE   W60
 BYTE   An2
 BYTE   N12  Cn3
 BYTE   N12  En3
 BYTE   W12
 BYTE   Gs2
 BYTE   N12  Bn2
 BYTE   N12  En3
 BYTE   W05
//  #02 //001   ----------------------------------------
Label_012C2EBB:
 BYTE   W78
 BYTE   W01
 BYTE   N12  Gs2  v127
 BYTE   N12  Bn2
 BYTE   N12  En3
 BYTE   W12
 BYTE   Gn2
 BYTE   N12  Bn2
 BYTE   N12  En3
 BYTE   W05
 BYTE   PEND 
//  #02 //002   ----------------------------------------
Label_012C2ECC:
 BYTE   W78
 BYTE   W01
 BYTE   N12  Gn2  v127
 BYTE   N12  Bn2
 BYTE   N12  Dn3
 BYTE   W12
 BYTE   N84  Fs2
 BYTE   N84  An2
 BYTE   N84  Bn2
 BYTE   W05
 BYTE   PEND 
//  #02 //003   ----------------------------------------
Label_012C2EDE:
 BYTE   W78
 BYTE   W01
 BYTE   N12  Fs2  v127
 BYTE   N12  An2
 BYTE   N12  Bn2
 BYTE   W12
 BYTE   Fs2
 BYTE   N12  An2
 BYTE   N12  Bn2
 BYTE   W05
 BYTE   PEND 
//  #02 //004   ----------------------------------------
Label_012C2EEF:
 BYTE   W07
 BYTE   N12  An2  v127
 BYTE   N12  Cn3
 BYTE   N12  En3
 BYTE   W12
 BYTE   An2
 BYTE   N12  Cn3
 BYTE   N12  En3
 BYTE   W60
 BYTE   An2
 BYTE   N12  Cn3
 BYTE   N12  En3
 BYTE   W12
 BYTE   Gs2
 BYTE   N12  Bn2
 BYTE   N12  En3
 BYTE   W05
 BYTE   PEND 
//  #02 //005   ----------------------------------------
 BYTE   PATT
  POIN2 Label_012C2EBB
//  #02 //006   ----------------------------------------
 BYTE   PATT
  POIN2 Label_012C2ECC
//  #02 //007   ----------------------------------------
 BYTE   PATT
  POIN2 Label_012C2EDE
//  #02 //008   ----------------------------------------
 BYTE   PATT
  POIN2 Label_012C2EEF
//  #02 //009   ----------------------------------------
 BYTE   PATT
  POIN2 Label_012C2EBB
//  #02 //010   ----------------------------------------
Label_012C2F24:
 BYTE   W78
 BYTE   W01
 BYTE   N12  Gn2  v127
 BYTE   N12  Bn2
 BYTE   N12  Dn3
 BYTE   W12
 BYTE   Fs2
 BYTE   N12  An2
 BYTE   N12  Bn2
 BYTE   W05
 BYTE   PEND 
//  #02 //011   ----------------------------------------
Label_012C2F35:
 BYTE   W19
 BYTE   N12  Fs2  v127
 BYTE   N12  An2
 BYTE   N12  Bn2
 BYTE   W24
 BYTE   Fs2
 BYTE   N12  An2
 BYTE   N12  Bn2
 BYTE   W24
 BYTE   Fs2
 BYTE   N12  An2
 BYTE   N12  Bn2
 BYTE   W12
 BYTE   Fs2
 BYTE   N12  An2
 BYTE   N12  Bn2
 BYTE   W17
 BYTE   PEND 
//  #02 //012   ----------------------------------------
 BYTE   PATT
  POIN2 Label_012C2EEF
//  #02 //013   ----------------------------------------
 BYTE   PATT
  POIN2 Label_012C2EBB
//  #02 //014   ----------------------------------------
 BYTE   PATT
  POIN2 Label_012C2F24
//  #02 //015   ----------------------------------------
 BYTE   W96
//  #02 //016   ----------------------------------------
Label_012C2F61:
 BYTE   W78
 BYTE   W01
 BYTE   VOL   31*SplashWave_mvl/mxv
 BYTE   W17
 BYTE   PEND 
//  #02 //017   ----------------------------------------
Label_012C2F67:
 BYTE   W07
 BYTE   N12  Gn2  v127
 BYTE   N12  Bn2
 BYTE   N12  Dn3
 BYTE   W12
 BYTE   Gn2
 BYTE   N12  Bn2
 BYTE   N12  Dn3
 BYTE   W60
 BYTE   Gn2
 BYTE   N12  Bn2
 BYTE   N12  Dn3
 BYTE   W12
 BYTE   Gn2
 BYTE   N12  Bn2
 BYTE   N12  Dn3
 BYTE   W05
 BYTE   PEND 
//  #02 //018   ----------------------------------------
Label_012C2F83:
 BYTE   W54
 BYTE   W01
 BYTE   N12  Gn2  v127
 BYTE   N12  Bn2
 BYTE   N12  Dn3
 BYTE   W12
 BYTE   Gn2
 BYTE   N12  Bn2
 BYTE   N12  Dn3
 BYTE   W28
 BYTE   W01
 BYTE   PEND 
//  #02 //019   ----------------------------------------
Label_012C2F95:
 BYTE   W07
 BYTE   N12  Fn2  v127
 BYTE   N12  Bn2
 BYTE   N12  Dn3
 BYTE   W12
 BYTE   Fn2
 BYTE   N12  Bn2
 BYTE   N12  Dn3
 BYTE   W60
 BYTE   Fn2
 BYTE   N12  Bn2
 BYTE   N12  Dn3
 BYTE   W12
 BYTE   Fn2
 BYTE   N12  Bn2
 BYTE   N12  Dn3
 BYTE   W05
 BYTE   PEND 
//  #02 //020   ----------------------------------------
Label_012C2FB1:
 BYTE   W54
 BYTE   W01
 BYTE   N12  Fn2  v127
 BYTE   N12  Bn2
 BYTE   N12  Dn3
 BYTE   W12
 BYTE   Fn2
 BYTE   N12  Bn2
 BYTE   N12  Dn3
 BYTE   W28
 BYTE   W01
 BYTE   PEND 
//  #02 //021   ----------------------------------------
Label_012C2FC3:
 BYTE   W07
 BYTE   N12  An2  v127
 BYTE   N12  Cn3
 BYTE   N12  En3
 BYTE   W12
 BYTE   An2
 BYTE   N12  Cn3
 BYTE   N12  En3
 BYTE   W60
 BYTE   An2
 BYTE   N12  Cn3
 BYTE   N12  En3
 BYTE   W12
 BYTE   An2
 BYTE   N12  Cn3
 BYTE   N12  En3
 BYTE   W05
 BYTE   PEND 
//  #02 //022   ----------------------------------------
Label_012C2FDF:
 BYTE   W54
 BYTE   W01
 BYTE   N12  An2  v127
 BYTE   N12  Cn3
 BYTE   N12  En3
 BYTE   W12
 BYTE   An2
 BYTE   N12  Cn3
 BYTE   N12  En3
 BYTE   W28
 BYTE   W01
 BYTE   PEND 
//  #02 //023   ----------------------------------------
 BYTE   PATT
  POIN2 Label_012C2F67
//  #02 //024   ----------------------------------------
 BYTE   PATT
  POIN2 Label_012C2F83
//  #02 //025   ----------------------------------------
Label_012C2FFB:
 BYTE   W07
 BYTE   N12  Fn2  v127
 BYTE   N12  An2
 BYTE   N12  Dn3
 BYTE   W12
 BYTE   Fn2
 BYTE   N12  An2
 BYTE   N12  Dn3
 BYTE   W60
 BYTE   Fn2
 BYTE   N12  An2
 BYTE   N12  Dn3
 BYTE   W12
 BYTE   Fn2
 BYTE   N12  An2
 BYTE   N12  Dn3
 BYTE   W05
 BYTE   PEND 
//  #02 //026   ----------------------------------------
Label_012C3017:
 BYTE   W54
 BYTE   W01
 BYTE   N12  Fn2  v127
 BYTE   N12  An2
 BYTE   N12  Dn3
 BYTE   W12
 BYTE   Fn2
 BYTE   N12  An2
 BYTE   N12  Dn3
 BYTE   W28
 BYTE   W01
 BYTE   PEND 
//  #02 //027   ----------------------------------------
Label_012C3029:
 BYTE   W07
 BYTE   N12  En2  v127
 BYTE   N12  Gn2
 BYTE   N12  Cn3
 BYTE   W12
 BYTE   En2
 BYTE   N12  Gn2
 BYTE   N12  Cn3
 BYTE   W60
 BYTE   En2
 BYTE   N12  Gn2
 BYTE   N12  Cn3
 BYTE   W12
 BYTE   En2
 BYTE   N12  Gn2
 BYTE   N12  Cn3
 BYTE   W05
 BYTE   PEND 
//  #02 //028   ----------------------------------------
Label_012C3045:
 BYTE   W54
 BYTE   W01
 BYTE   N12  En2  v127
 BYTE   N12  Gn2
 BYTE   N12  Cn3
 BYTE   W12
 BYTE   En2
 BYTE   N12  Gn2
 BYTE   N12  Cn3
 BYTE   W28
 BYTE   W01
 BYTE   PEND 
//  #02 //029   ----------------------------------------
Label_012C3057:
 BYTE   W07
 BYTE   N12  Fs2  v127
 BYTE   N12  As2
 BYTE   N12  Ds3
 BYTE   W12
 BYTE   Fs2
 BYTE   N12  As2
 BYTE   N12  Ds3
 BYTE   W60
 BYTE   Fs2
 BYTE   N12  As2
 BYTE   N12  Ds3
 BYTE   W12
 BYTE   Fs2
 BYTE   N12  As2
 BYTE   N12  Ds3
 BYTE   W05
 BYTE   PEND 
//  #02 //030   ----------------------------------------
Label_012C3073:
 BYTE   W54
 BYTE   W01
 BYTE   N12  Fs2  v127
 BYTE   N12  As2
 BYTE   N12  Ds3
 BYTE   W12
 BYTE   Fs2
 BYTE   N12  As2
 BYTE   N12  Ds3
 BYTE   W28
 BYTE   W01
 BYTE   PEND 
//  #02 //031   ----------------------------------------
Label_012C3085:
 BYTE   W07
 BYTE   N12  Fs2  v127
 BYTE   N12  An2
 BYTE   N12  Dn3
 BYTE   W12
 BYTE   Fs2
 BYTE   N12  An2
 BYTE   N12  Dn3
 BYTE   W60
 BYTE   Fs2
 BYTE   N12  An2
 BYTE   N12  Dn3
 BYTE   W12
 BYTE   TIE  Fs2
 BYTE   TIE  An2
 BYTE   TIE  Dn3
 BYTE   W05
 BYTE   PEND 
//  #02 //032   ----------------------------------------
 BYTE   W96
//  #02 //033   ----------------------------------------
 BYTE   W07
 BYTE   EOT
 BYTE   Fs2  v057
 BYTE   Dn3
 BYTE   N12  Gn2
 BYTE   N12  Bn2
 BYTE   N12  Dn3
 BYTE   W12
 BYTE   Gn2
 BYTE   N12  Bn2
 BYTE   N12  Dn3
 BYTE   W60
 BYTE   Gn2
 BYTE   N12  Bn2
 BYTE   N12  Dn3
 BYTE   W12
 BYTE   Gn2
 BYTE   N12  Bn2
 BYTE   N12  Dn3
 BYTE   W05
//  #02 //034   ----------------------------------------
 BYTE   PATT
  POIN2 Label_012C2F83
//  #02 //035   ----------------------------------------
 BYTE   PATT
  POIN2 Label_012C2F95
//  #02 //036   ----------------------------------------
 BYTE   PATT
  POIN2 Label_012C2FB1
//  #02 //037   ----------------------------------------
 BYTE   PATT
  POIN2 Label_012C2FC3
//  #02 //038   ----------------------------------------
 BYTE   PATT
  POIN2 Label_012C2FDF
//  #02 //039   ----------------------------------------
 BYTE   PATT
  POIN2 Label_012C2F67
//  #02 //040   ----------------------------------------
 BYTE   PATT
  POIN2 Label_012C2F83
//  #02 //041   ----------------------------------------
 BYTE   PATT
  POIN2 Label_012C2FFB
//  #02 //042   ----------------------------------------
 BYTE   PATT
  POIN2 Label_012C3017
//  #02 //043   ----------------------------------------
 BYTE   PATT
  POIN2 Label_012C3029
//  #02 //044   ----------------------------------------
 BYTE   PATT
  POIN2 Label_012C3045
//  #02 //045   ----------------------------------------
 BYTE   PATT
  POIN2 Label_012C3057
//  #02 //046   ----------------------------------------
 BYTE   PATT
  POIN2 Label_012C3073
//  #02 //047   ----------------------------------------
 BYTE   PATT
  POIN2 Label_012C3085
//  #02 //048   ----------------------------------------
 BYTE   W96
//  #02 //049   ----------------------------------------
 BYTE   W07
 BYTE   EOT
 BYTE   Fs2  v057
 BYTE   Dn3
 BYTE   W12
 BYTE   N12  Fn2  v127
 BYTE   N12  An2
 BYTE   N12  Cn3
 BYTE   W36
 BYTE   Fn2
 BYTE   N12  An2
 BYTE   N12  Cn3
 BYTE   W40
 BYTE   W01
//  #02 //050   ----------------------------------------
Label_012C311D:
 BYTE   W07
 BYTE   N12  Fn2  v127
 BYTE   N12  An2
 BYTE   N12  Cn3
 BYTE   W36
 BYTE   N60  Fn2
 BYTE   N60  An2
 BYTE   N60  Cn3
 BYTE   W52
 BYTE   W01
 BYTE   PEND 
//  #02 //051   ----------------------------------------
Label_012C312F:
 BYTE   W19
 BYTE   N12  En2  v127
 BYTE   N12  Gn2
 BYTE   N12  Bn2
 BYTE   W36
 BYTE   En2
 BYTE   N12  Gn2
 BYTE   N12  Bn2
 BYTE   W40
 BYTE   W01
 BYTE   PEND 
//  #02 //052   ----------------------------------------
Label_012C3140:
 BYTE   W07
 BYTE   N12  En2  v127
 BYTE   N12  Gn2
 BYTE   N12  Bn2
 BYTE   W36
 BYTE   N60  En2
 BYTE   N60  Gn2
 BYTE   N60  Bn2
 BYTE   W52
 BYTE   W01
 BYTE   PEND 
//  #02 //053   ----------------------------------------
Label_012C3152:
 BYTE   W19
 BYTE   N12  Fn2  v127
 BYTE   N12  An2
 BYTE   N12  Cn3
 BYTE   W36
 BYTE   Fn2
 BYTE   N12  An2
 BYTE   N12  Cn3
 BYTE   W40
 BYTE   W01
 BYTE   PEND 
//  #02 //054   ----------------------------------------
 BYTE   PATT
  POIN2 Label_012C311D
//  #02 //055   ----------------------------------------
 BYTE   PATT
  POIN2 Label_012C312F
//  #02 //056   ----------------------------------------
 BYTE   PATT
  POIN2 Label_012C3140
//  #02 //057   ----------------------------------------
 BYTE   PATT
  POIN2 Label_012C3152
//  #02 //058   ----------------------------------------
 BYTE   PATT
  POIN2 Label_012C311D
//  #02 //059   ----------------------------------------
 BYTE   PATT
  POIN2 Label_012C312F
//  #02 //060   ----------------------------------------
 BYTE   PATT
  POIN2 Label_012C3140
//  #02 //061   ----------------------------------------
 BYTE   PATT
  POIN2 Label_012C3152
//  #02 //062   ----------------------------------------
 BYTE   PATT
  POIN2 Label_012C311D
//  #02 //063   ----------------------------------------
 BYTE   PATT
  POIN2 Label_012C312F
//  #02 //064   ----------------------------------------
Label_012C3195:
 BYTE   W07
 BYTE   N12  En2  v127
 BYTE   N12  Gn2
 BYTE   N12  Bn2
 BYTE   W48
 BYTE   N18  En2
 BYTE   N18  Gn2
 BYTE   N18  Bn2
 BYTE   W18
 BYTE   Ds2
 BYTE   N18  Fs2
 BYTE   N18  As2
 BYTE   W18
 BYTE   TIE  Dn2
 BYTE   TIE  Fn2
 BYTE   TIE  An2
 BYTE   W05
 BYTE   PEND 
//  #02 //065   ----------------------------------------
 BYTE   W96
//  #02 //066   ----------------------------------------
 BYTE   W07
 BYTE   EOT
 BYTE   Dn2  v053
 BYTE   An2
 BYTE   N84  Fn2
 BYTE   N84  An2
 BYTE   N84  Cn3
 BYTE   W84
 BYTE   TIE  En2
 BYTE   TIE  Gn2
 BYTE   TIE  Bn2
 BYTE   W05
//  #02 //067   ----------------------------------------
 BYTE   W96
//  #02 //068   ----------------------------------------
 BYTE   W07
 BYTE   EOT
 BYTE   En2  v055
 BYTE   Bn2
 BYTE   N84  En2
 BYTE   N84  Gn2
 BYTE   N84  An2
 BYTE   W84
 BYTE   TIE  Dn2
 BYTE   TIE  Fn2
 BYTE   TIE  An2
 BYTE   W05
//  #02 //069   ----------------------------------------
 BYTE   W96
//  #02 //070   ----------------------------------------
 BYTE   W07
 BYTE   EOT
 BYTE   Dn2  v053
 BYTE   An2
 BYTE   N84  Gn2
 BYTE   N84  An2
 BYTE   N84  Cn3
 BYTE   W84
 BYTE   TIE  Gn2
 BYTE   TIE  Bn2
 BYTE   TIE  Dn3
 BYTE   W05
//  #02 //071   ----------------------------------------
 BYTE   W96
//  #02 //072   ----------------------------------------
 BYTE   W13
 BYTE   EOT
 BYTE   Gn2  v059
 BYTE   Dn3
 BYTE   W06
 BYTE   N12  Gn2
 BYTE   N12  An2
 BYTE   N12  Cs3
 BYTE   W24
 BYTE   Gn2
 BYTE   N12  An2
 BYTE   N12  Cs3
 BYTE   W24
 BYTE   Gn2
 BYTE   N12  An2
 BYTE   N12  Cs3
 BYTE   W24
 BYTE   TIE  Dn2
 BYTE   TIE  Fn2
 BYTE   TIE  An2
 BYTE   W05
//  #02 //073   ----------------------------------------
 BYTE   W96
//  #02 //074   ----------------------------------------
 BYTE   W07
 BYTE   EOT
 BYTE   Dn2  v053
 BYTE   An2
 BYTE   N84  Fn2
 BYTE   N84  An2
 BYTE   N84  Cn3
 BYTE   W84
 BYTE   TIE  En2
 BYTE   TIE  Gn2
 BYTE   TIE  Bn2
 BYTE   W05
//  #02 //075   ----------------------------------------
 BYTE   W96
//  #02 //076   ----------------------------------------
 BYTE   W07
 BYTE   EOT
 BYTE   En2  v055
 BYTE   Bn2
 BYTE   N84  Cs2
 BYTE   N84  En2
 BYTE   N84  Gn2
 BYTE   W84
 BYTE   TIE  Dn2
 BYTE   TIE  Fn2
 BYTE   TIE  An2
 BYTE   W05
//  #02 //077   ----------------------------------------
 BYTE   W96
//  #02 //078   ----------------------------------------
 BYTE   W07
 BYTE   EOT
 BYTE   Dn2  v053
 BYTE   An2
 BYTE   N84  Gn2
 BYTE   N84  An2
 BYTE   N84  Cn3
 BYTE   W84
 BYTE   TIE  Gn2
 BYTE   TIE  Cn3
 BYTE   TIE  En3
 BYTE   W05
//  #02 //079   ----------------------------------------
 BYTE   W96
//  #02 //080   ----------------------------------------
 BYTE   W13
 BYTE   EOT
 BYTE   Gn2  v060
 BYTE   En3
 BYTE   W06
 BYTE   N18  Fs2
 BYTE   N18  An2
 BYTE   N18  Dn3
 BYTE   W18
 BYTE   Fs2
 BYTE   N18  An2
 BYTE   N18  Dn3
 BYTE   W18
 BYTE   N12  Fs2
 BYTE   N12  An2
 BYTE   N12  Dn3
 BYTE   W40
 BYTE   W01
//  #02 //081   ----------------------------------------
 BYTE   PATT
  POIN2 Label_012C2F67
//  #02 //082   ----------------------------------------
 BYTE   PATT
  POIN2 Label_012C2F83
//  #02 //083   ----------------------------------------
 BYTE   PATT
  POIN2 Label_012C2F95
//  #02 //084   ----------------------------------------
 BYTE   PATT
  POIN2 Label_012C2FB1
//  #02 //085   ----------------------------------------
 BYTE   PATT
  POIN2 Label_012C2FC3
//  #02 //086   ----------------------------------------
 BYTE   PATT
  POIN2 Label_012C2FDF
//  #02 //087   ----------------------------------------
 BYTE   PATT
  POIN2 Label_012C2F67
//  #02 //088   ----------------------------------------
 BYTE   PATT
  POIN2 Label_012C2F83
//  #02 //089   ----------------------------------------
 BYTE   PATT
  POIN2 Label_012C2FFB
//  #02 //090   ----------------------------------------
 BYTE   PATT
  POIN2 Label_012C3017
//  #02 //091   ----------------------------------------
 BYTE   PATT
  POIN2 Label_012C3029
//  #02 //092   ----------------------------------------
 BYTE   PATT
  POIN2 Label_012C3045
//  #02 //093   ----------------------------------------
 BYTE   PATT
  POIN2 Label_012C3057
//  #02 //094   ----------------------------------------
 BYTE   PATT
  POIN2 Label_012C3073
//  #02 //095   ----------------------------------------
 BYTE   PATT
  POIN2 Label_012C3085
//  #02 //096   ----------------------------------------
 BYTE   W96
//  #02 //097   ----------------------------------------
 BYTE   W07
 BYTE   EOT
 BYTE   Fs2  v057
 BYTE   Dn3
 BYTE   N12  Gn2  v127
 BYTE   N12  Bn2
 BYTE   N12  Dn3
 BYTE   W12
 BYTE   Gn2
 BYTE   N12  Bn2
 BYTE   N12  Dn3
 BYTE   W60
 BYTE   Gn2
 BYTE   N12  Bn2
 BYTE   N12  Dn3
 BYTE   W12
 BYTE   Gn2
 BYTE   N12  Bn2
 BYTE   N12  Dn3
 BYTE   W05
//  #02 //098   ----------------------------------------
 BYTE   PATT
  POIN2 Label_012C2F83
//  #02 //099   ----------------------------------------
 BYTE   PATT
  POIN2 Label_012C2F95
//  #02 //100   ----------------------------------------
 BYTE   PATT
  POIN2 Label_012C2FB1
//  #02 //101   ----------------------------------------
 BYTE   PATT
  POIN2 Label_012C2FC3
//  #02 //102   ----------------------------------------
 BYTE   PATT
  POIN2 Label_012C2FDF
//  #02 //103   ----------------------------------------
 BYTE   PATT
  POIN2 Label_012C2F67
//  #02 //104   ----------------------------------------
 BYTE   PATT
  POIN2 Label_012C2F83
//  #02 //105   ----------------------------------------
 BYTE   PATT
  POIN2 Label_012C2FFB
//  #02 //106   ----------------------------------------
 BYTE   PATT
  POIN2 Label_012C3017
//  #02 //107   ----------------------------------------
 BYTE   PATT
  POIN2 Label_012C3029
//  #02 //108   ----------------------------------------
 BYTE   PATT
  POIN2 Label_012C3045
//  #02 //109   ----------------------------------------
 BYTE   PATT
  POIN2 Label_012C3057
//  #02 //110   ----------------------------------------
 BYTE   PATT
  POIN2 Label_012C3073
//  #02 //111   ----------------------------------------
 BYTE   PATT
  POIN2 Label_012C3085
//  #02 //112   ----------------------------------------
 BYTE   W96
//  #02 //113   ----------------------------------------
 BYTE   W07
 BYTE   EOT
 BYTE   Fs2  v057
 BYTE   Dn3
 BYTE   W12
 BYTE   N12  Fn2  v127
 BYTE   N12  An2
 BYTE   N12  Cn3
 BYTE   W36
 BYTE   Fn2
 BYTE   N12  An2
 BYTE   N12  Cn3
 BYTE   W40
 BYTE   W01
//  #02 //114   ----------------------------------------
 BYTE   PATT
  POIN2 Label_012C311D
//  #02 //115   ----------------------------------------
 BYTE   PATT
  POIN2 Label_012C312F
//  #02 //116   ----------------------------------------
 BYTE   PATT
  POIN2 Label_012C3140
//  #02 //117   ----------------------------------------
 BYTE   PATT
  POIN2 Label_012C3152
//  #02 //118   ----------------------------------------
 BYTE   PATT
  POIN2 Label_012C311D
//  #02 //119   ----------------------------------------
 BYTE   PATT
  POIN2 Label_012C312F
//  #02 //120   ----------------------------------------
 BYTE   PATT
  POIN2 Label_012C3140
//  #02 //121   ----------------------------------------
 BYTE   PATT
  POIN2 Label_012C3152
//  #02 //122   ----------------------------------------
 BYTE   PATT
  POIN2 Label_012C311D
//  #02 //123   ----------------------------------------
 BYTE   PATT
  POIN2 Label_012C312F
//  #02 //124   ----------------------------------------
 BYTE   PATT
  POIN2 Label_012C3140
//  #02 //125   ----------------------------------------
 BYTE   PATT
  POIN2 Label_012C3152
//  #02 //126   ----------------------------------------
 BYTE   PATT
  POIN2 Label_012C311D
//  #02 //127   ----------------------------------------
 BYTE   PATT
  POIN2 Label_012C312F
//  #02 //128   ----------------------------------------
 BYTE   PATT
  POIN2 Label_012C3195
//  #02 //129   ----------------------------------------
 BYTE   W96
//  #02 //130   ----------------------------------------
 BYTE   W07
 BYTE   EOT
 BYTE   Dn2  v053
 BYTE   An2
 BYTE   N84  Fn2  v127
 BYTE   N84  An2
 BYTE   N84  Cn3
 BYTE   W84
 BYTE   TIE  En2
 BYTE   TIE  Gn2
 BYTE   TIE  Bn2
 BYTE   W05
//  #02 //131   ----------------------------------------
 BYTE   W96
//  #02 //132   ----------------------------------------
 BYTE   W07
 BYTE   EOT
 BYTE   En2  v055
 BYTE   Bn2
 BYTE   N84  En2
 BYTE   N84  Gn2
 BYTE   N84  An2
 BYTE   W84
 BYTE   TIE  Dn2
 BYTE   TIE  Fn2
 BYTE   TIE  An2
 BYTE   W05
//  #02 //133   ----------------------------------------
 BYTE   W96
//  #02 //134   ----------------------------------------
 BYTE   W07
 BYTE   EOT
 BYTE   Dn2  v053
 BYTE   An2
 BYTE   N84  Gn2
 BYTE   N84  An2
 BYTE   N84  Cn3
 BYTE   W84
 BYTE   TIE  Gn2
 BYTE   TIE  Bn2
 BYTE   TIE  Dn3
 BYTE   W05
//  #02 //135   ----------------------------------------
 BYTE   W96
//  #02 //136   ----------------------------------------
 BYTE   W13
 BYTE   EOT
 BYTE   Gn2  v059
 BYTE   Dn3
 BYTE   W06
 BYTE   N12  Gn2
 BYTE   N12  An2
 BYTE   N12  Cs3
 BYTE   W24
 BYTE   Gn2
 BYTE   N12  An2
 BYTE   N12  Cs3
 BYTE   W24
 BYTE   Gn2
 BYTE   N12  An2
 BYTE   N12  Cs3
 BYTE   W24
 BYTE   TIE  Dn2
 BYTE   TIE  Fn2
 BYTE   TIE  An2
 BYTE   W05
//  #02 //137   ----------------------------------------
 BYTE   W96
//  #02 //138   ----------------------------------------
 BYTE   W07
 BYTE   EOT
 BYTE   Dn2  v053
 BYTE   An2
 BYTE   N84  Fn2
 BYTE   N84  An2
 BYTE   N84  Cn3
 BYTE   W84
 BYTE   TIE  En2
 BYTE   TIE  Gn2
 BYTE   TIE  Bn2
 BYTE   W05
//  #02 //139   ----------------------------------------
 BYTE   W96
//  #02 //140   ----------------------------------------
 BYTE   W07
 BYTE   EOT
 BYTE   En2  v055
 BYTE   Bn2
 BYTE   N84  Cs2
 BYTE   N84  En2
 BYTE   N84  Gn2
 BYTE   W84
 BYTE   TIE  Dn2
 BYTE   TIE  Fn2
 BYTE   TIE  An2
 BYTE   W05
//  #02 //141   ----------------------------------------
 BYTE   W96
//  #02 //142   ----------------------------------------
 BYTE   W07
 BYTE   EOT
 BYTE   Dn2  v053
 BYTE   An2
 BYTE   N84  Gn2
 BYTE   N84  An2
 BYTE   N84  Cn3
 BYTE   W84
 BYTE   TIE  Gn2
 BYTE   TIE  Cn3
 BYTE   TIE  En3
 BYTE   W05
//  #02 //143   ----------------------------------------
 BYTE   W96
//  #02 //144   ----------------------------------------
 BYTE   W13
 BYTE   EOT
 BYTE   Gn2  v060
 BYTE   En3
 BYTE   W06
 BYTE   N12  An2
 BYTE   N12  Dn3
 BYTE   W12
 BYTE   An2
 BYTE   N12  Dn3
 BYTE   W12
 BYTE   An2
 BYTE   N12  Dn3
 BYTE   W12
 BYTE   An2
 BYTE   N12  Dn3
 BYTE   W12
 BYTE   An2
 BYTE   N12  Dn3
 BYTE   W12
 BYTE   An2
 BYTE   N12  Dn3
 BYTE   W12
 BYTE   An2
 BYTE   N12  Dn3
 BYTE   W05
//  #02 //145   ----------------------------------------
 BYTE   W96
//  #02 //146   ----------------------------------------
 BYTE   W96
//  #02 //147   ----------------------------------------
 BYTE   W96
//  #02 //148   ----------------------------------------
 BYTE   W96
//  #02 //149   ----------------------------------------
 BYTE   W96
//  #02 //150   ----------------------------------------
 BYTE   W96
//  #02 //151   ----------------------------------------
 BYTE   W96
//  #02 //152   ----------------------------------------
 BYTE   W78
 BYTE   W01
 BYTE   VOL   37*SplashWave_mvl/mxv
 BYTE   W17
//  #02 //153   ----------------------------------------
 BYTE   PATT
  POIN2 Label_012C2EEF
//  #02 //154   ----------------------------------------
 BYTE   PATT
  POIN2 Label_012C2EBB
//  #02 //155   ----------------------------------------
 BYTE   PATT
  POIN2 Label_012C2ECC
//  #02 //156   ----------------------------------------
 BYTE   PATT
  POIN2 Label_012C2EDE
//  #02 //157   ----------------------------------------
 BYTE   PATT
  POIN2 Label_012C2EEF
//  #02 //158   ----------------------------------------
 BYTE   PATT
  POIN2 Label_012C2EBB
//  #02 //159   ----------------------------------------
 BYTE   PATT
  POIN2 Label_012C2ECC
//  #02 //160   ----------------------------------------
 BYTE   PATT
  POIN2 Label_012C2EDE
//  #02 //161   ----------------------------------------
 BYTE   PATT
  POIN2 Label_012C2EEF
//  #02 //162   ----------------------------------------
 BYTE   PATT
  POIN2 Label_012C2EBB
//  #02 //163   ----------------------------------------
 BYTE   PATT
  POIN2 Label_012C2F24
//  #02 //164   ----------------------------------------
 BYTE   PATT
  POIN2 Label_012C2F35
//  #02 //165   ----------------------------------------
 BYTE   PATT
  POIN2 Label_012C2EEF
//  #02 //166   ----------------------------------------
 BYTE   PATT
  POIN2 Label_012C2EBB
//  #02 //167   ----------------------------------------
 BYTE   PATT
  POIN2 Label_012C2F24
//  #02 //168   ----------------------------------------
 BYTE   W96
//  #02 //169   ----------------------------------------
 BYTE   PATT
  POIN2 Label_012C2F61
//  #02 //170   ----------------------------------------
 BYTE   W07
 BYTE   N96  Dn2  v127
 BYTE   N96  Fn2
 BYTE   N96  An2
 BYTE   W88
 BYTE   W01
//  #02 //171   ----------------------------------------
 BYTE   W07
 BYTE   N84  Fn2
 BYTE   N84  An2
 BYTE   N84  Cn3
 BYTE   W84
 BYTE   TIE  En2
 BYTE   TIE  Gn2
 BYTE   TIE  Bn2
 BYTE   W05
//  #02 //172   ----------------------------------------
 BYTE   W96
//  #02 //173   ----------------------------------------
 BYTE   W07
 BYTE   EOT
 BYTE   En2  v055
 BYTE   Bn2
 BYTE   N84  En2
 BYTE   N84  Gn2
 BYTE   N84  An2
 BYTE   W84
 BYTE   TIE  Dn2
 BYTE   TIE  Fn2
 BYTE   TIE  An2
 BYTE   W05
//  #02 //174   ----------------------------------------
 BYTE   W96
//  #02 //175   ----------------------------------------
 BYTE   W07
 BYTE   EOT
 BYTE   Dn2  v053
 BYTE   An2
 BYTE   N84  Gn2
 BYTE   N84  An2
 BYTE   N84  Cn3
 BYTE   W84
 BYTE   TIE  Gn2
 BYTE   TIE  Bn2
 BYTE   TIE  Dn3
 BYTE   W05
//  #02 //176   ----------------------------------------
 BYTE   W96
//  #02 //177   ----------------------------------------
 BYTE   W13
 BYTE   EOT
 BYTE   Gn2  v059
 BYTE   Dn3
 BYTE   W06
 BYTE   N12  Gn2
 BYTE   N12  An2
 BYTE   N12  Cs3
 BYTE   W24
 BYTE   Gn2
 BYTE   N12  An2
 BYTE   N12  Cs3
 BYTE   W24
 BYTE   Gn2
 BYTE   N12  An2
 BYTE   N12  Cs3
 BYTE   W24
 BYTE   TIE  Dn2
 BYTE   TIE  Fn2
 BYTE   TIE  An2
 BYTE   W05
//  #02 //178   ----------------------------------------
 BYTE   W96
//  #02 //179   ----------------------------------------
 BYTE   W07
 BYTE   EOT
 BYTE   Dn2  v053
 BYTE   An2
 BYTE   N84  Fn2
 BYTE   N84  An2
 BYTE   N84  Cn3
 BYTE   W84
 BYTE   TIE  En2
 BYTE   TIE  Gn2
 BYTE   TIE  Bn2
 BYTE   W05
//  #02 //180   ----------------------------------------
 BYTE   W96
//  #02 //181   ----------------------------------------
 BYTE   W07
 BYTE   EOT
 BYTE   En2  v055
 BYTE   Bn2
 BYTE   N84  Cs2
 BYTE   N84  En2
 BYTE   N84  Gn2
 BYTE   W84
 BYTE   TIE  Dn2
 BYTE   TIE  Fn2
 BYTE   TIE  An2
 BYTE   W05
//  #02 //182   ----------------------------------------
 BYTE   W96
//  #02 //183   ----------------------------------------
 BYTE   W07
 BYTE   EOT
 BYTE   Dn2  v053
 BYTE   An2
 BYTE   N84  Gn2
 BYTE   N84  An2
 BYTE   N84  Cn3
 BYTE   W84
 BYTE   TIE  Gn2
 BYTE   TIE  Cn3
 BYTE   TIE  En3
 BYTE   W05
//  #02 //184   ----------------------------------------
 BYTE   W96
//  #02 //185   ----------------------------------------
 BYTE   W13
 BYTE   EOT
 BYTE   Gn2  v060
 BYTE   En3
 BYTE   W06
 BYTE   N12  Cs3
 BYTE   N12  En3
 BYTE   N12  Gn3
 BYTE   W12
 BYTE   Cs3
 BYTE   N12  En3
 BYTE   N12  Gn3
 BYTE   W12
 BYTE   Cs3
 BYTE   N12  En3
 BYTE   N12  Gn3
 BYTE   W12
 BYTE   Cs3
 BYTE   N12  En3
 BYTE   N12  Gn3
 BYTE   W12
 BYTE   Cs3
 BYTE   N12  En3
 BYTE   N12  Gn3
 BYTE   W12
 BYTE   Cs3
 BYTE   N12  En3
 BYTE   N12  Gn3
 BYTE   W12
 BYTE   TIE  Fn2
 BYTE   TIE  An2
 BYTE   TIE  Dn3
 BYTE   W05
//  #02 //186   ----------------------------------------
 BYTE   W96
//  #02 //187   ----------------------------------------
 BYTE   W07
 BYTE   EOT
 BYTE   Fn2  v057
 BYTE   Dn3
 BYTE   N84  Fn2
 BYTE   N84  An2
 BYTE   N84  Cn3
 BYTE   W84
 BYTE   TIE  En2
 BYTE   TIE  Gn2
 BYTE   TIE  Bn2
 BYTE   W05
//  #02 //188   ----------------------------------------
 BYTE   W96
//  #02 //189   ----------------------------------------
 BYTE   W07
 BYTE   EOT
 BYTE   En2  v055
 BYTE   Bn2
 BYTE   N84  En2
 BYTE   N84  Gn2
 BYTE   N84  An2
 BYTE   W84
 BYTE   TIE  Dn2
 BYTE   TIE  Fn2
 BYTE   TIE  An2
 BYTE   W05
//  #02 //190   ----------------------------------------
 BYTE   W96
//  #02 //191   ----------------------------------------
 BYTE   W07
 BYTE   EOT
 BYTE   Dn2  v053
 BYTE   An2
 BYTE   N84  Gn2
 BYTE   N84  An2
 BYTE   N84  Cn3
 BYTE   W84
 BYTE   TIE  Gn2
 BYTE   TIE  Cn3
 BYTE   TIE  En3
 BYTE   W05
//  #02 //192   ----------------------------------------
 BYTE   W96
//  #02 //193   ----------------------------------------
 BYTE   W13
 BYTE   EOT
 BYTE   Gn2  v060
 BYTE   En3
 BYTE   W06
 BYTE   N12  En2
 BYTE   N12  An2
 BYTE   N12  Cs3
 BYTE   W24
 BYTE   En2
 BYTE   N12  An2
 BYTE   N12  Cs3
 BYTE   W24
 BYTE   En2
 BYTE   N12  An2
 BYTE   N12  Cs3
 BYTE   W24
 BYTE   TIE  Dn2
 BYTE   TIE  Fn2
 BYTE   TIE  An2
 BYTE   W05
//  #02 //194   ----------------------------------------
 BYTE   W96
//  #02 //195   ----------------------------------------
 BYTE   W07
 BYTE   EOT
 BYTE   Dn2  v053
 BYTE   An2
 BYTE   N84  Fn2
 BYTE   N84  An2
 BYTE   N84  Cn3
 BYTE   W84
 BYTE   TIE  En2
 BYTE   TIE  Gn2
 BYTE   TIE  Bn2
 BYTE   W05
//  #02 //196   ----------------------------------------
 BYTE   W96
//  #02 //197   ----------------------------------------
 BYTE   W07
 BYTE   EOT
 BYTE   En2  v055
 BYTE   Bn2
 BYTE   N84  Cs2
 BYTE   N84  En2
 BYTE   N84  Gn2
 BYTE   W84
 BYTE   TIE  Dn2
 BYTE   TIE  Fn2
 BYTE   TIE  An2
 BYTE   W05
//  #02 //198   ----------------------------------------
 BYTE   W96
//  #02 //199   ----------------------------------------
 BYTE   W07
 BYTE   EOT
 BYTE   Dn2  v053
 BYTE   An2
 BYTE   N84  Gn2
 BYTE   N84  An2
 BYTE   N84  Cn3
 BYTE   W84
 BYTE   TIE  Gn2
 BYTE   TIE  Cn3
 BYTE   TIE  En3
 BYTE   W05
//  #02 //200   ----------------------------------------
 BYTE   W96
//  #02 //201   ----------------------------------------
 BYTE   W13
 BYTE   EOT
 BYTE   Gn2  v060
 BYTE   En3
 BYTE   W80
 BYTE   W03
//  #02 //202   ----------------------------------------
 BYTE   PATT
  POIN2 Label_012C2EEF
//  #02 //203   ----------------------------------------
 BYTE   PATT
  POIN2 Label_012C2EBB
//  #02 //204   ----------------------------------------
 BYTE   PATT
  POIN2 Label_012C2ECC
//  #02 //205   ----------------------------------------
 BYTE   PATT
  POIN2 Label_012C2EDE
//  #02 //206   ----------------------------------------
 BYTE   PATT
  POIN2 Label_012C2EEF
//  #02 //207   ----------------------------------------
 BYTE   PATT
  POIN2 Label_012C2EBB
//  #02 //208   ----------------------------------------
 BYTE   PATT
  POIN2 Label_012C2ECC
//  #02 //209   ----------------------------------------
 BYTE   PATT
  POIN2 Label_012C2EDE
//  #02 //210   ----------------------------------------
 BYTE   PATT
  POIN2 Label_012C2EEF
//  #02 //211   ----------------------------------------
 BYTE   PATT
  POIN2 Label_012C2EBB
//  #02 //212   ----------------------------------------
 BYTE   PATT
  POIN2 Label_012C2F24
//  #02 //213   ----------------------------------------
 BYTE   PATT
  POIN2 Label_012C2F35
//  #02 //214   ----------------------------------------
 BYTE   PATT
  POIN2 Label_012C2EEF
//  #02 //215   ----------------------------------------
 BYTE   PATT
  POIN2 Label_012C2EBB
//  #02 //216   ----------------------------------------
 BYTE   PATT
  POIN2 Label_012C2F24
//  #02 //217   ----------------------------------------
 BYTE   PATT
  POIN2 Label_012C2F35
//  #02 //218   ----------------------------------------
 BYTE   W07
 BYTE   PAN   c_v+30
 BYTE   N12  An2  v127
 BYTE   N12  Cn3
 BYTE   N12  En3
 BYTE   W12
 BYTE   An2
 BYTE   N12  Cn3
 BYTE   N12  En3
 BYTE   W06
 BYTE   PAN   c_v-30
 BYTE   W30
 BYTE   PAN   c_v+0
 BYTE   W40
 BYTE   W01
//  #02 //219   ----------------------------------------
 BYTE   GoTo
  POIN2 Label_012C2E9A
//  #02 //220   ----------------------------------------
 BYTE   W96
//  #02 //221   ----------------------------------------
 BYTE   W96
//  #02 //222   ----------------------------------------
 BYTE   W96
//  #02 //223   ----------------------------------------
 BYTE   W96
//  #02 //224   ----------------------------------------
 BYTE   W96
//  #02 //225   ----------------------------------------
 BYTE   W96
//  #02 //226   ----------------------------------------
 BYTE   W96
//  #02 //227   ----------------------------------------
 BYTE   W96
//  #02 //228   ----------------------------------------
 BYTE   W96
//  #02 //229   ----------------------------------------
 BYTE   W96
//  #02 //230   ----------------------------------------
 BYTE   W96
//  #02 //231   ----------------------------------------
 BYTE   W96
//  #02 //232   ----------------------------------------
 BYTE   W96
//  #02 //233   ----------------------------------------
 BYTE   W96
//  #02 //234   ----------------------------------------
 BYTE   W96
//  #02 //235   ----------------------------------------
 BYTE   W07
 BYTE   FINE

//**************** Track 3 (Midi-Chn.2) ****************//

SplashWave_003:
//  #03 //000   ----------------------------------------
 BYTE   KEYSH   SplashWave_key+0
Label_012C3686:
 BYTE   VOICE   62
 BYTE   VOL   45*SplashWave_mvl/mxv
 BYTE   W07
 BYTE   PAN   c_v+0
 BYTE   N12  En3  v127
 BYTE   W02
 BYTE   PAN   c_v-1
 BYTE   W01
 BYTE   PAN   c_v-2
 BYTE   W02
 BYTE   PAN   c_v-3
 BYTE   W01
 BYTE   PAN   c_v-4
 BYTE   W02
 BYTE   PAN   c_v-5
 BYTE   W01
 BYTE   PAN   c_v-6
 BYTE   W02
 BYTE   PAN   c_v-7
 BYTE   W01
 BYTE   PAN   c_v-8
 BYTE   N12  Bn3
 BYTE   W02
 BYTE   PAN   c_v-9
 BYTE   W01
 BYTE   PAN   c_v-10
 BYTE   W02
 BYTE   PAN   c_v-11
 BYTE   W01
 BYTE   PAN   c_v-12
 BYTE   W02
 BYTE   PAN   c_v-13
 BYTE   W01
 BYTE   PAN   c_v-14
 BYTE   W02
 BYTE   PAN   c_v-15
 BYTE   W01
 BYTE   PAN   c_v-16
 BYTE   N12  En4
 BYTE   W02
 BYTE   PAN   c_v-17
 BYTE   W01
 BYTE   PAN   c_v-18
 BYTE   W02
 BYTE   PAN   c_v-19
 BYTE   W01
 BYTE   PAN   c_v-20
 BYTE   W02
 BYTE   PAN   c_v-21
 BYTE   W01
 BYTE   PAN   c_v-22
 BYTE   W02
 BYTE   PAN   c_v-23
 BYTE   W01
 BYTE   PAN   c_v-24
 BYTE   N12  En3
 BYTE   W02
 BYTE   PAN   c_v-25
 BYTE   W01
 BYTE   PAN   c_v-26
 BYTE   W02
 BYTE   PAN   c_v-27
 BYTE   W01
 BYTE   PAN   c_v-28
 BYTE   W02
 BYTE   PAN   c_v-29
 BYTE   W01
 BYTE   PAN   c_v-30
 BYTE   W02
 BYTE   PAN   c_v-31
 BYTE   W01
 BYTE   PAN   c_v-32
 BYTE   N12  Bn3
 BYTE   W02
 BYTE   PAN   c_v-33
 BYTE   W01
 BYTE   PAN   c_v-34
 BYTE   W02
 BYTE   PAN   c_v-35
 BYTE   W01
 BYTE   PAN   c_v-36
 BYTE   W02
 BYTE   PAN   c_v-37
 BYTE   W01
 BYTE   PAN   c_v-38
 BYTE   W02
 BYTE   PAN   c_v-39
 BYTE   W01
 BYTE   PAN   c_v-40
 BYTE   N12  En4
 BYTE   W01
 BYTE   PAN   c_v-40
 BYTE   W01
 BYTE   PAN   c_v-39
 BYTE   W01
 BYTE   PAN   c_v-38
 BYTE   W01
 BYTE   PAN   c_v-37
 BYTE   W01
 BYTE   PAN   c_v-36
 BYTE   W01
 BYTE   PAN   c_v-35
 BYTE   W01
 BYTE   PAN   c_v-34
 BYTE   W01
 BYTE   PAN   c_v-33
 BYTE   W01
 BYTE   PAN   c_v-31
 BYTE   W01
 BYTE   PAN   c_v-30
 BYTE   W01
 BYTE   PAN   c_v-29
 BYTE   W01
 BYTE   PAN   c_v-28
 BYTE   N12  En3
 BYTE   W01
 BYTE   PAN   c_v-27
 BYTE   W01
 BYTE   PAN   c_v-26
 BYTE   W01
 BYTE   PAN   c_v-25
 BYTE   W01
 BYTE   PAN   c_v-24
 BYTE   W01
 BYTE   PAN   c_v-23
 BYTE   W01
 BYTE   PAN   c_v-21
 BYTE   W01
 BYTE   PAN   c_v-20
 BYTE   W01
 BYTE   PAN   c_v-19
 BYTE   W01
 BYTE   PAN   c_v-18
 BYTE   W01
 BYTE   PAN   c_v-17
 BYTE   W01
 BYTE   PAN   c_v-16
 BYTE   W01
 BYTE   PAN   c_v-15
 BYTE   N12  Bn3
 BYTE   W01
 BYTE   PAN   c_v-14
 BYTE   W01
 BYTE   PAN   c_v-13
 BYTE   W01
 BYTE   PAN   c_v-11
 BYTE   W01
 BYTE   PAN   c_v-10
 BYTE   W01
//  #03 //001   ----------------------------------------
Label_012C372F:
 BYTE   PAN   c_v-9
 BYTE   W01
 BYTE   PAN   c_v-8
 BYTE   W01
 BYTE   PAN   c_v-7
 BYTE   W01
 BYTE   PAN   c_v-6
 BYTE   W01
 BYTE   PAN   c_v-5
 BYTE   W01
 BYTE   PAN   c_v-4
 BYTE   W01
 BYTE   PAN   c_v-3
 BYTE   W01
 BYTE   PAN   c_v-1
 BYTE   N12  En4  v127
 BYTE   W01
 BYTE   PAN   c_v+0
 BYTE   W01
 BYTE   PAN   c_v+1
 BYTE   W01
 BYTE   PAN   c_v+2
 BYTE   W01
 BYTE   PAN   c_v+3
 BYTE   W01
 BYTE   PAN   c_v+4
 BYTE   W01
 BYTE   PAN   c_v+5
 BYTE   W01
 BYTE   PAN   c_v+6
 BYTE   W01
 BYTE   PAN   c_v+7
 BYTE   W01
 BYTE   PAN   c_v+9
 BYTE   W01
 BYTE   PAN   c_v+10
 BYTE   W01
 BYTE   PAN   c_v+11
 BYTE   W01
 BYTE   PAN   c_v+12
 BYTE   N12  En3
 BYTE   W01
 BYTE   PAN   c_v+13
 BYTE   W01
 BYTE   PAN   c_v+14
 BYTE   W01
 BYTE   PAN   c_v+15
 BYTE   W01
 BYTE   PAN   c_v+16
 BYTE   W01
 BYTE   PAN   c_v+17
 BYTE   W01
 BYTE   PAN   c_v+19
 BYTE   W01
 BYTE   PAN   c_v+20
 BYTE   W01
 BYTE   PAN   c_v+21
 BYTE   W01
 BYTE   PAN   c_v+22
 BYTE   W01
 BYTE   PAN   c_v+23
 BYTE   W01
 BYTE   PAN   c_v+24
 BYTE   W01
 BYTE   PAN   c_v+25
 BYTE   N12  Bn3
 BYTE   W01
 BYTE   PAN   c_v+26
 BYTE   W01
 BYTE   PAN   c_v+27
 BYTE   W01
 BYTE   PAN   c_v+29
 BYTE   W01
 BYTE   PAN   c_v+30
 BYTE   W01
 BYTE   PAN   c_v+31
 BYTE   W01
 BYTE   PAN   c_v+32
 BYTE   W01
 BYTE   PAN   c_v+33
 BYTE   W01
 BYTE   PAN   c_v+34
 BYTE   W01
 BYTE   PAN   c_v+35
 BYTE   W01
 BYTE   PAN   c_v+36
 BYTE   W01
 BYTE   PAN   c_v+37
 BYTE   W01
 BYTE   PAN   c_v+40
 BYTE   N12  En4
 BYTE   W02
 BYTE   PAN   c_v+39
 BYTE   W01
 BYTE   PAN   c_v+38
 BYTE   W02
 BYTE   PAN   c_v+37
 BYTE   W01
 BYTE   PAN   c_v+36
 BYTE   W02
 BYTE   PAN   c_v+35
 BYTE   W01
 BYTE   PAN   c_v+34
 BYTE   W02
 BYTE   PAN   c_v+33
 BYTE   W01
 BYTE   PAN   c_v+32
 BYTE   N12  En3
 BYTE   W02
 BYTE   PAN   c_v+31
 BYTE   W01
 BYTE   PAN   c_v+30
 BYTE   W02
 BYTE   PAN   c_v+29
 BYTE   W01
 BYTE   PAN   c_v+28
 BYTE   W02
 BYTE   PAN   c_v+27
 BYTE   W01
 BYTE   PAN   c_v+26
 BYTE   W02
 BYTE   PAN   c_v+25
 BYTE   W01
 BYTE   PAN   c_v+24
 BYTE   N12  Bn3
 BYTE   W02
 BYTE   PAN   c_v+23
 BYTE   W01
 BYTE   PAN   c_v+22
 BYTE   W02
 BYTE   PAN   c_v+21
 BYTE   W01
 BYTE   PAN   c_v+20
 BYTE   W02
 BYTE   PAN   c_v+19
 BYTE   W01
 BYTE   PAN   c_v+18
 BYTE   W02
 BYTE   PAN   c_v+17
 BYTE   W01
 BYTE   PAN   c_v+16
 BYTE   N12  En4
 BYTE   W02
 BYTE   PAN   c_v+15
 BYTE   W01
 BYTE   PAN   c_v+14
 BYTE   W02
 BYTE   PAN   c_v+13
 BYTE   W01
 BYTE   PAN   c_v+12
 BYTE   W02
 BYTE   PAN   c_v+11
 BYTE   W01
 BYTE   PAN   c_v+10
 BYTE   W02
 BYTE   PAN   c_v+9
 BYTE   W01
 BYTE   PAN   c_v+8
 BYTE   N12  Bn3
 BYTE   W02
 BYTE   PAN   c_v+7
 BYTE   W01
 BYTE   PAN   c_v+6
 BYTE   W02
 BYTE   PEND 
//  #03 //002   ----------------------------------------
Label_012C37E6:
 BYTE   PAN   c_v+5
 BYTE   W01
 BYTE   PAN   c_v+4
 BYTE   W02
 BYTE   PAN   c_v+3
 BYTE   W01
 BYTE   PAN   c_v+2
 BYTE   W02
 BYTE   PAN   c_v+1
 BYTE   W01
 BYTE   PAN   c_v+0
 BYTE   N12  Dn3  v127
 BYTE   W06
 BYTE   PAN   c_v+0
 BYTE   W02
 BYTE   PAN   c_v-1
 BYTE   W01
 BYTE   PAN   c_v-2
 BYTE   W02
 BYTE   PAN   c_v-3
 BYTE   W01
 BYTE   PAN   c_v-4
 BYTE   N12  An3
 BYTE   W02
 BYTE   PAN   c_v-5
 BYTE   W01
 BYTE   PAN   c_v-6
 BYTE   W02
 BYTE   PAN   c_v-7
 BYTE   W01
 BYTE   PAN   c_v-8
 BYTE   W02
 BYTE   PAN   c_v-9
 BYTE   W01
 BYTE   PAN   c_v-10
 BYTE   W02
 BYTE   PAN   c_v-11
 BYTE   W01
 BYTE   PAN   c_v-12
 BYTE   N12  Dn4
 BYTE   W02
 BYTE   PAN   c_v-13
 BYTE   W01
 BYTE   PAN   c_v-14
 BYTE   W02
 BYTE   PAN   c_v-15
 BYTE   W01
 BYTE   PAN   c_v-16
 BYTE   W02
 BYTE   PAN   c_v-17
 BYTE   W01
 BYTE   PAN   c_v-18
 BYTE   W02
 BYTE   PAN   c_v-19
 BYTE   W01
 BYTE   PAN   c_v-20
 BYTE   N12  Dn3
 BYTE   W02
 BYTE   PAN   c_v-21
 BYTE   W01
 BYTE   PAN   c_v-22
 BYTE   W02
 BYTE   PAN   c_v-23
 BYTE   W01
 BYTE   PAN   c_v-24
 BYTE   W02
 BYTE   PAN   c_v-25
 BYTE   W01
 BYTE   PAN   c_v-26
 BYTE   W02
 BYTE   PAN   c_v-27
 BYTE   W01
 BYTE   PAN   c_v-28
 BYTE   N12  An3
 BYTE   W02
 BYTE   PAN   c_v-29
 BYTE   W01
 BYTE   PAN   c_v-30
 BYTE   W02
 BYTE   PAN   c_v-31
 BYTE   W01
 BYTE   PAN   c_v-32
 BYTE   W02
 BYTE   PAN   c_v-33
 BYTE   W01
 BYTE   PAN   c_v-34
 BYTE   W02
 BYTE   PAN   c_v-35
 BYTE   W01
 BYTE   PAN   c_v-36
 BYTE   N12  Dn4
 BYTE   W02
 BYTE   PAN   c_v-37
 BYTE   W01
 BYTE   PAN   c_v-38
 BYTE   W02
 BYTE   PAN   c_v-39
 BYTE   W01
 BYTE   PAN   c_v-40
 BYTE   W01
 BYTE   PAN   c_v-40
 BYTE   W01
 BYTE   PAN   c_v-39
 BYTE   W01
 BYTE   PAN   c_v-38
 BYTE   W01
 BYTE   PAN   c_v-37
 BYTE   W01
 BYTE   PAN   c_v-36
 BYTE   W01
 BYTE   PAN   c_v-35
 BYTE   N12  Dn3
 BYTE   W01
 BYTE   PAN   c_v-34
 BYTE   W01
 BYTE   PAN   c_v-33
 BYTE   W01
 BYTE   PAN   c_v-31
 BYTE   W01
 BYTE   PAN   c_v-30
 BYTE   W01
 BYTE   PAN   c_v-29
 BYTE   W01
 BYTE   PAN   c_v-28
 BYTE   W01
 BYTE   PAN   c_v-27
 BYTE   W01
 BYTE   PAN   c_v-26
 BYTE   W01
 BYTE   PAN   c_v-25
 BYTE   W01
 BYTE   PAN   c_v-24
 BYTE   W01
 BYTE   PAN   c_v-23
 BYTE   W01
 BYTE   PAN   c_v-21
 BYTE   N12  An3
 BYTE   W01
 BYTE   PAN   c_v-20
 BYTE   W01
 BYTE   PAN   c_v-19
 BYTE   W01
 BYTE   PAN   c_v-18
 BYTE   W01
 BYTE   PAN   c_v-17
 BYTE   W01
 BYTE   PEND 
//  #03 //003   ----------------------------------------
Label_012C388B:
 BYTE   PAN   c_v-16
 BYTE   W01
 BYTE   PAN   c_v-15
 BYTE   W01
 BYTE   PAN   c_v-14
 BYTE   W01
 BYTE   PAN   c_v-13
 BYTE   W01
 BYTE   PAN   c_v-11
 BYTE   W01
 BYTE   PAN   c_v-10
 BYTE   W01
 BYTE   PAN   c_v-9
 BYTE   W01
 BYTE   PAN   c_v-8
 BYTE   N12  Dn4  v127
 BYTE   W01
 BYTE   PAN   c_v-7
 BYTE   W01
 BYTE   PAN   c_v-6
 BYTE   W01
 BYTE   PAN   c_v-5
 BYTE   W01
 BYTE   PAN   c_v-4
 BYTE   W01
 BYTE   PAN   c_v-3
 BYTE   W01
 BYTE   PAN   c_v-1
 BYTE   W01
 BYTE   PAN   c_v+0
 BYTE   W01
 BYTE   PAN   c_v+1
 BYTE   W01
 BYTE   PAN   c_v+2
 BYTE   W01
 BYTE   PAN   c_v+3
 BYTE   W01
 BYTE   PAN   c_v+4
 BYTE   W01
 BYTE   PAN   c_v+5
 BYTE   N12  Dn3
 BYTE   W01
 BYTE   PAN   c_v+6
 BYTE   W01
 BYTE   PAN   c_v+7
 BYTE   W01
 BYTE   PAN   c_v+9
 BYTE   W01
 BYTE   PAN   c_v+10
 BYTE   W01
 BYTE   PAN   c_v+11
 BYTE   W01
 BYTE   PAN   c_v+12
 BYTE   W01
 BYTE   PAN   c_v+13
 BYTE   W01
 BYTE   PAN   c_v+14
 BYTE   W01
 BYTE   PAN   c_v+15
 BYTE   W01
 BYTE   PAN   c_v+16
 BYTE   W01
 BYTE   PAN   c_v+17
 BYTE   W01
 BYTE   PAN   c_v+19
 BYTE   N12  An3
 BYTE   W01
 BYTE   PAN   c_v+20
 BYTE   W01
 BYTE   PAN   c_v+21
 BYTE   W01
 BYTE   PAN   c_v+22
 BYTE   W01
 BYTE   PAN   c_v+23
 BYTE   W01
 BYTE   PAN   c_v+24
 BYTE   W01
 BYTE   PAN   c_v+25
 BYTE   W01
 BYTE   PAN   c_v+26
 BYTE   W01
 BYTE   PAN   c_v+27
 BYTE   W01
 BYTE   PAN   c_v+29
 BYTE   W01
 BYTE   PAN   c_v+30
 BYTE   W01
 BYTE   PAN   c_v+31
 BYTE   W01
 BYTE   PAN   c_v+32
 BYTE   N12  Dn4
 BYTE   W01
 BYTE   PAN   c_v+33
 BYTE   W01
 BYTE   PAN   c_v+34
 BYTE   W01
 BYTE   PAN   c_v+35
 BYTE   W01
 BYTE   PAN   c_v+36
 BYTE   W01
 BYTE   PAN   c_v+37
 BYTE   W01
 BYTE   PAN   c_v+40
 BYTE   W02
 BYTE   PAN   c_v+39
 BYTE   W01
 BYTE   PAN   c_v+38
 BYTE   W02
 BYTE   PAN   c_v+37
 BYTE   W01
 BYTE   PAN   c_v+36
 BYTE   N12  Dn3
 BYTE   W02
 BYTE   PAN   c_v+35
 BYTE   W01
 BYTE   PAN   c_v+34
 BYTE   W02
 BYTE   PAN   c_v+33
 BYTE   W01
 BYTE   PAN   c_v+32
 BYTE   W02
 BYTE   PAN   c_v+31
 BYTE   W01
 BYTE   PAN   c_v+30
 BYTE   W02
 BYTE   PAN   c_v+29
 BYTE   W01
 BYTE   PAN   c_v+28
 BYTE   N12  An3
 BYTE   W02
 BYTE   PAN   c_v+27
 BYTE   W01
 BYTE   PAN   c_v+26
 BYTE   W02
 BYTE   PAN   c_v+25
 BYTE   W01
 BYTE   PAN   c_v+24
 BYTE   W02
 BYTE   PAN   c_v+23
 BYTE   W01
 BYTE   PAN   c_v+22
 BYTE   W02
 BYTE   PAN   c_v+21
 BYTE   W01
 BYTE   PAN   c_v+20
 BYTE   N12  Cn4
 BYTE   W02
 BYTE   PAN   c_v+19
 BYTE   W01
 BYTE   PAN   c_v+18
 BYTE   W02
 BYTE   PAN   c_v+17
 BYTE   W01
 BYTE   PAN   c_v+16
 BYTE   W02
 BYTE   PAN   c_v+15
 BYTE   W01
 BYTE   PAN   c_v+14
 BYTE   W02
 BYTE   PAN   c_v+13
 BYTE   W01
 BYTE   PAN   c_v+12
 BYTE   N12  Dn4
 BYTE   W02
 BYTE   PAN   c_v+11
 BYTE   W01
 BYTE   PAN   c_v+10
 BYTE   W02
 BYTE   PEND 
//  #03 //004   ----------------------------------------
Label_012C3946:
 BYTE   PAN   c_v+9
 BYTE   W01
 BYTE   PAN   c_v+8
 BYTE   W02
 BYTE   PAN   c_v+7
 BYTE   W01
 BYTE   PAN   c_v+6
 BYTE   W02
 BYTE   PAN   c_v+5
 BYTE   W01
 BYTE   PAN   c_v+4
 BYTE   N12  En3  v127
 BYTE   W02
 BYTE   PAN   c_v+3
 BYTE   W01
 BYTE   PAN   c_v+2
 BYTE   W02
 BYTE   PAN   c_v+1
 BYTE   W01
 BYTE   PAN   c_v+0
 BYTE   W02
 BYTE   PAN   c_v-1
 BYTE   W01
 BYTE   PAN   c_v-2
 BYTE   W02
 BYTE   PAN   c_v-3
 BYTE   W01
 BYTE   PAN   c_v-4
 BYTE   N12  Bn3
 BYTE   W02
 BYTE   PAN   c_v-5
 BYTE   W01
 BYTE   PAN   c_v-6
 BYTE   W02
 BYTE   PAN   c_v-7
 BYTE   W01
 BYTE   PAN   c_v-8
 BYTE   W02
 BYTE   PAN   c_v-9
 BYTE   W01
 BYTE   PAN   c_v-10
 BYTE   W02
 BYTE   PAN   c_v-11
 BYTE   W01
 BYTE   PAN   c_v-12
 BYTE   N12  En4
 BYTE   W02
 BYTE   PAN   c_v-13
 BYTE   W01
 BYTE   PAN   c_v-14
 BYTE   W02
 BYTE   PAN   c_v-15
 BYTE   W01
 BYTE   PAN   c_v-16
 BYTE   W02
 BYTE   PAN   c_v-17
 BYTE   W01
 BYTE   PAN   c_v-18
 BYTE   W02
 BYTE   PAN   c_v-19
 BYTE   W01
 BYTE   PAN   c_v-20
 BYTE   N12  En3
 BYTE   W02
 BYTE   PAN   c_v-21
 BYTE   W01
 BYTE   PAN   c_v-22
 BYTE   W02
 BYTE   PAN   c_v-23
 BYTE   W01
 BYTE   PAN   c_v-24
 BYTE   W02
 BYTE   PAN   c_v-25
 BYTE   W01
 BYTE   PAN   c_v-26
 BYTE   W02
 BYTE   PAN   c_v-27
 BYTE   W01
 BYTE   PAN   c_v-28
 BYTE   N12  Bn3
 BYTE   W02
 BYTE   PAN   c_v-29
 BYTE   W01
 BYTE   PAN   c_v-30
 BYTE   W02
 BYTE   PAN   c_v-31
 BYTE   W01
 BYTE   PAN   c_v-32
 BYTE   W02
 BYTE   PAN   c_v-33
 BYTE   W01
 BYTE   PAN   c_v-34
 BYTE   W02
 BYTE   PAN   c_v-35
 BYTE   W01
 BYTE   PAN   c_v-36
 BYTE   N12  En4
 BYTE   W02
 BYTE   PAN   c_v-37
 BYTE   W01
 BYTE   PAN   c_v-38
 BYTE   W02
 BYTE   PAN   c_v-39
 BYTE   W01
 BYTE   PAN   c_v-40
 BYTE   W01
 BYTE   PAN   c_v-40
 BYTE   W01
 BYTE   PAN   c_v-39
 BYTE   W01
 BYTE   PAN   c_v-38
 BYTE   W01
 BYTE   PAN   c_v-37
 BYTE   W01
 BYTE   PAN   c_v-36
 BYTE   W01
 BYTE   PAN   c_v-35
 BYTE   N12  En3
 BYTE   W01
 BYTE   PAN   c_v-34
 BYTE   W01
 BYTE   PAN   c_v-33
 BYTE   W01
 BYTE   PAN   c_v-31
 BYTE   W01
 BYTE   PAN   c_v-30
 BYTE   W01
 BYTE   PAN   c_v-29
 BYTE   W01
 BYTE   PAN   c_v-28
 BYTE   W01
 BYTE   PAN   c_v-27
 BYTE   W01
 BYTE   PAN   c_v-26
 BYTE   W01
 BYTE   PAN   c_v-25
 BYTE   W01
 BYTE   PAN   c_v-24
 BYTE   W01
 BYTE   PAN   c_v-23
 BYTE   W01
 BYTE   PAN   c_v-21
 BYTE   N12  Bn3
 BYTE   W01
 BYTE   PAN   c_v-20
 BYTE   W01
 BYTE   PAN   c_v-19
 BYTE   W01
 BYTE   PAN   c_v-18
 BYTE   W01
 BYTE   PAN   c_v-17
 BYTE   W01
 BYTE   PEND 
//  #03 //005   ----------------------------------------
Label_012C39F1:
 BYTE   PAN   c_v-16
 BYTE   W01
 BYTE   PAN   c_v-15
 BYTE   W01
 BYTE   PAN   c_v-14
 BYTE   W01
 BYTE   PAN   c_v-13
 BYTE   W01
 BYTE   PAN   c_v-11
 BYTE   W01
 BYTE   PAN   c_v-10
 BYTE   W01
 BYTE   PAN   c_v-9
 BYTE   W01
 BYTE   PAN   c_v-8
 BYTE   N12  En4  v127
 BYTE   W01
 BYTE   PAN   c_v-7
 BYTE   W01
 BYTE   PAN   c_v-6
 BYTE   W01
 BYTE   PAN   c_v-5
 BYTE   W01
 BYTE   PAN   c_v-4
 BYTE   W01
 BYTE   PAN   c_v-3
 BYTE   W01
 BYTE   PAN   c_v-1
 BYTE   W01
 BYTE   PAN   c_v+0
 BYTE   W01
 BYTE   PAN   c_v+1
 BYTE   W01
 BYTE   PAN   c_v+2
 BYTE   W01
 BYTE   PAN   c_v+3
 BYTE   W01
 BYTE   PAN   c_v+4
 BYTE   W01
 BYTE   PAN   c_v+5
 BYTE   N12  En3
 BYTE   W01
 BYTE   PAN   c_v+6
 BYTE   W01
 BYTE   PAN   c_v+7
 BYTE   W01
 BYTE   PAN   c_v+9
 BYTE   W01
 BYTE   PAN   c_v+10
 BYTE   W01
 BYTE   PAN   c_v+11
 BYTE   W01
 BYTE   PAN   c_v+12
 BYTE   W01
 BYTE   PAN   c_v+13
 BYTE   W01
 BYTE   PAN   c_v+14
 BYTE   W01
 BYTE   PAN   c_v+15
 BYTE   W01
 BYTE   PAN   c_v+16
 BYTE   W01
 BYTE   PAN   c_v+17
 BYTE   W01
 BYTE   PAN   c_v+19
 BYTE   N12  Bn3
 BYTE   W01
 BYTE   PAN   c_v+20
 BYTE   W01
 BYTE   PAN   c_v+21
 BYTE   W01
 BYTE   PAN   c_v+22
 BYTE   W01
 BYTE   PAN   c_v+23
 BYTE   W01
 BYTE   PAN   c_v+24
 BYTE   W01
 BYTE   PAN   c_v+25
 BYTE   W01
 BYTE   PAN   c_v+26
 BYTE   W01
 BYTE   PAN   c_v+27
 BYTE   W01
 BYTE   PAN   c_v+29
 BYTE   W01
 BYTE   PAN   c_v+30
 BYTE   W01
 BYTE   PAN   c_v+31
 BYTE   W01
 BYTE   PAN   c_v+32
 BYTE   N12  En4
 BYTE   W01
 BYTE   PAN   c_v+33
 BYTE   W01
 BYTE   PAN   c_v+34
 BYTE   W01
 BYTE   PAN   c_v+35
 BYTE   W01
 BYTE   PAN   c_v+36
 BYTE   W01
 BYTE   PAN   c_v+37
 BYTE   W01
 BYTE   PAN   c_v+40
 BYTE   W02
 BYTE   PAN   c_v+39
 BYTE   W01
 BYTE   PAN   c_v+38
 BYTE   W02
 BYTE   PAN   c_v+37
 BYTE   W01
 BYTE   PAN   c_v+36
 BYTE   N12  En3
 BYTE   W02
 BYTE   PAN   c_v+35
 BYTE   W01
 BYTE   PAN   c_v+34
 BYTE   W02
 BYTE   PAN   c_v+33
 BYTE   W01
 BYTE   PAN   c_v+32
 BYTE   W02
 BYTE   PAN   c_v+31
 BYTE   W01
 BYTE   PAN   c_v+30
 BYTE   W02
 BYTE   PAN   c_v+29
 BYTE   W01
 BYTE   PAN   c_v+28
 BYTE   N12  Bn3
 BYTE   W02
 BYTE   PAN   c_v+27
 BYTE   W01
 BYTE   PAN   c_v+26
 BYTE   W02
 BYTE   PAN   c_v+25
 BYTE   W01
 BYTE   PAN   c_v+24
 BYTE   W02
 BYTE   PAN   c_v+23
 BYTE   W01
 BYTE   PAN   c_v+22
 BYTE   W02
 BYTE   PAN   c_v+21
 BYTE   W01
 BYTE   PAN   c_v+20
 BYTE   N12  En4
 BYTE   W02
 BYTE   PAN   c_v+19
 BYTE   W01
 BYTE   PAN   c_v+18
 BYTE   W02
 BYTE   PAN   c_v+17
 BYTE   W01
 BYTE   PAN   c_v+16
 BYTE   W02
 BYTE   PAN   c_v+15
 BYTE   W01
 BYTE   PAN   c_v+14
 BYTE   W02
 BYTE   PAN   c_v+13
 BYTE   W01
 BYTE   PAN   c_v+12
 BYTE   N12  Bn3
 BYTE   W02
 BYTE   PAN   c_v+11
 BYTE   W01
 BYTE   PAN   c_v+10
 BYTE   W02
 BYTE   PEND 
//  #03 //006   ----------------------------------------
Label_012C3AAC:
 BYTE   PAN   c_v+9
 BYTE   W01
 BYTE   PAN   c_v+8
 BYTE   W02
 BYTE   PAN   c_v+7
 BYTE   W01
 BYTE   PAN   c_v+6
 BYTE   W02
 BYTE   PAN   c_v+5
 BYTE   W01
 BYTE   PAN   c_v+4
 BYTE   N12  Dn3  v127
 BYTE   W02
 BYTE   PAN   c_v+3
 BYTE   W01
 BYTE   PAN   c_v+2
 BYTE   W02
 BYTE   PAN   c_v+1
 BYTE   W01
 BYTE   PAN   c_v+0
 BYTE   W02
 BYTE   PAN   c_v-1
 BYTE   W01
 BYTE   PAN   c_v-2
 BYTE   W02
 BYTE   PAN   c_v-3
 BYTE   W01
 BYTE   PAN   c_v-4
 BYTE   N12  An3
 BYTE   W02
 BYTE   PAN   c_v-5
 BYTE   W01
 BYTE   PAN   c_v-6
 BYTE   W02
 BYTE   PAN   c_v-7
 BYTE   W01
 BYTE   PAN   c_v-8
 BYTE   W02
 BYTE   PAN   c_v-9
 BYTE   W01
 BYTE   PAN   c_v-10
 BYTE   W02
 BYTE   PAN   c_v-11
 BYTE   W01
 BYTE   PAN   c_v-12
 BYTE   N12  Dn4
 BYTE   W02
 BYTE   PAN   c_v-13
 BYTE   W01
 BYTE   PAN   c_v-14
 BYTE   W02
 BYTE   PAN   c_v-15
 BYTE   W01
 BYTE   PAN   c_v-16
 BYTE   W02
 BYTE   PAN   c_v-17
 BYTE   W01
 BYTE   PAN   c_v-18
 BYTE   W02
 BYTE   PAN   c_v-19
 BYTE   W01
 BYTE   PAN   c_v-20
 BYTE   N12  Dn3
 BYTE   W02
 BYTE   PAN   c_v-21
 BYTE   W01
 BYTE   PAN   c_v-22
 BYTE   W02
 BYTE   PAN   c_v-23
 BYTE   W01
 BYTE   PAN   c_v-24
 BYTE   W02
 BYTE   PAN   c_v-25
 BYTE   W01
 BYTE   PAN   c_v-26
 BYTE   W02
 BYTE   PAN   c_v-27
 BYTE   W01
 BYTE   PAN   c_v-28
 BYTE   N12  An3
 BYTE   W02
 BYTE   PAN   c_v-29
 BYTE   W01
 BYTE   PAN   c_v-30
 BYTE   W02
 BYTE   PAN   c_v-31
 BYTE   W01
 BYTE   PAN   c_v-32
 BYTE   W02
 BYTE   PAN   c_v-33
 BYTE   W01
 BYTE   PAN   c_v-34
 BYTE   W02
 BYTE   PAN   c_v-35
 BYTE   W01
 BYTE   PAN   c_v-36
 BYTE   N12  Dn4
 BYTE   W02
 BYTE   PAN   c_v-37
 BYTE   W01
 BYTE   PAN   c_v-38
 BYTE   W02
 BYTE   PAN   c_v-39
 BYTE   W01
 BYTE   PAN   c_v-40
 BYTE   W01
 BYTE   PAN   c_v-40
 BYTE   W01
 BYTE   PAN   c_v-39
 BYTE   W01
 BYTE   PAN   c_v-38
 BYTE   W01
 BYTE   PAN   c_v-37
 BYTE   W01
 BYTE   PAN   c_v-36
 BYTE   W01
 BYTE   PAN   c_v-35
 BYTE   N12  Dn3
 BYTE   W01
 BYTE   PAN   c_v-34
 BYTE   W01
 BYTE   PAN   c_v-33
 BYTE   W01
 BYTE   PAN   c_v-31
 BYTE   W01
 BYTE   PAN   c_v-30
 BYTE   W01
 BYTE   PAN   c_v-29
 BYTE   W01
 BYTE   PAN   c_v-28
 BYTE   W01
 BYTE   PAN   c_v-27
 BYTE   W01
 BYTE   PAN   c_v-26
 BYTE   W01
 BYTE   PAN   c_v-25
 BYTE   W01
 BYTE   PAN   c_v-24
 BYTE   W01
 BYTE   PAN   c_v-23
 BYTE   W01
 BYTE   PAN   c_v-21
 BYTE   N12  An3
 BYTE   W01
 BYTE   PAN   c_v-20
 BYTE   W01
 BYTE   PAN   c_v-19
 BYTE   W01
 BYTE   PAN   c_v-18
 BYTE   W01
 BYTE   PAN   c_v-17
 BYTE   W01
 BYTE   PEND 
//  #03 //007   ----------------------------------------
 BYTE   PATT
  POIN2 Label_012C388B
//  #03 //008   ----------------------------------------
 BYTE   PATT
  POIN2 Label_012C3946
//  #03 //009   ----------------------------------------
 BYTE   PATT
  POIN2 Label_012C39F1
//  #03 //010   ----------------------------------------
 BYTE   PATT
  POIN2 Label_012C3AAC
//  #03 //011   ----------------------------------------
 BYTE   PATT
  POIN2 Label_012C388B
//  #03 //012   ----------------------------------------
 BYTE   PATT
  POIN2 Label_012C3946
//  #03 //013   ----------------------------------------
 BYTE   PATT
  POIN2 Label_012C39F1
//  #03 //014   ----------------------------------------
Label_012C3B7A:
 BYTE   PAN   c_v+9
 BYTE   W01
 BYTE   PAN   c_v+8
 BYTE   W02
 BYTE   PAN   c_v+7
 BYTE   W01
 BYTE   PAN   c_v+6
 BYTE   W02
 BYTE   PAN   c_v+5
 BYTE   W01
 BYTE   PAN   c_v+4
 BYTE   N12  Dn3  v127
 BYTE   W02
 BYTE   PAN   c_v+3
 BYTE   W01
 BYTE   PAN   c_v+2
 BYTE   W02
 BYTE   PAN   c_v+1
 BYTE   W01
 BYTE   PAN   c_v+0
 BYTE   W02
 BYTE   PAN   c_v-1
 BYTE   W01
 BYTE   PAN   c_v-2
 BYTE   W02
 BYTE   PAN   c_v-3
 BYTE   W01
 BYTE   PAN   c_v-4
 BYTE   N12  An3
 BYTE   W02
 BYTE   PAN   c_v-5
 BYTE   W01
 BYTE   PAN   c_v-6
 BYTE   W02
 BYTE   PAN   c_v-7
 BYTE   W01
 BYTE   PAN   c_v-8
 BYTE   W02
 BYTE   PAN   c_v-9
 BYTE   W01
 BYTE   PAN   c_v-10
 BYTE   W02
 BYTE   PAN   c_v-11
 BYTE   W01
 BYTE   PAN   c_v-12
 BYTE   N12  Dn4
 BYTE   W02
 BYTE   PAN   c_v-13
 BYTE   W01
 BYTE   PAN   c_v-14
 BYTE   W02
 BYTE   PAN   c_v-15
 BYTE   W01
 BYTE   PAN   c_v-16
 BYTE   W02
 BYTE   PAN   c_v-17
 BYTE   W01
 BYTE   PAN   c_v-18
 BYTE   W02
 BYTE   PAN   c_v-19
 BYTE   W01
 BYTE   PAN   c_v-20
 BYTE   N12  Dn3
 BYTE   W02
 BYTE   PAN   c_v-21
 BYTE   W01
 BYTE   PAN   c_v-22
 BYTE   W02
 BYTE   PAN   c_v-23
 BYTE   W01
 BYTE   PAN   c_v-24
 BYTE   W02
 BYTE   PAN   c_v-25
 BYTE   W01
 BYTE   PAN   c_v-26
 BYTE   W02
 BYTE   PAN   c_v-27
 BYTE   W01
 BYTE   PAN   c_v-28
 BYTE   N12  An3
 BYTE   W02
 BYTE   PAN   c_v-29
 BYTE   W01
 BYTE   PAN   c_v-30
 BYTE   W02
 BYTE   PAN   c_v-31
 BYTE   W01
 BYTE   PAN   c_v-32
 BYTE   W02
 BYTE   PAN   c_v-33
 BYTE   W01
 BYTE   PAN   c_v-34
 BYTE   W02
 BYTE   PAN   c_v-35
 BYTE   W01
 BYTE   PAN   c_v-36
 BYTE   N12  Dn4
 BYTE   W02
 BYTE   PAN   c_v-37
 BYTE   W01
 BYTE   PAN   c_v-38
 BYTE   W02
 BYTE   PAN   c_v-39
 BYTE   W01
 BYTE   PAN   c_v-40
 BYTE   W01
 BYTE   PAN   c_v-40
 BYTE   W01
 BYTE   PAN   c_v-39
 BYTE   W01
 BYTE   PAN   c_v-38
 BYTE   W01
 BYTE   PAN   c_v-37
 BYTE   W01
 BYTE   PAN   c_v-36
 BYTE   W01
 BYTE   PAN   c_v-35
 BYTE   N12  Dn3
 BYTE   W01
 BYTE   PAN   c_v-34
 BYTE   W01
 BYTE   PAN   c_v-33
 BYTE   W01
 BYTE   PAN   c_v-31
 BYTE   W01
 BYTE   PAN   c_v-30
 BYTE   W01
 BYTE   PAN   c_v-29
 BYTE   W01
 BYTE   PAN   c_v-28
 BYTE   W01
 BYTE   PAN   c_v-27
 BYTE   W01
 BYTE   PAN   c_v-26
 BYTE   W01
 BYTE   PAN   c_v-25
 BYTE   W01
 BYTE   PAN   c_v-24
 BYTE   W01
 BYTE   PAN   c_v-23
 BYTE   W01
 BYTE   PAN   c_v-21
 BYTE   N12  Dn4
 BYTE   W01
 BYTE   PAN   c_v-20
 BYTE   W01
 BYTE   PAN   c_v-19
 BYTE   W01
 BYTE   PAN   c_v-18
 BYTE   W01
 BYTE   PAN   c_v-17
 BYTE   W01
 BYTE   PEND 
//  #03 //015   ----------------------------------------
Label_012C3C25:
 BYTE   PAN   c_v-16
 BYTE   W01
 BYTE   PAN   c_v-15
 BYTE   W01
 BYTE   PAN   c_v-14
 BYTE   W01
 BYTE   PAN   c_v-13
 BYTE   W01
 BYTE   PAN   c_v-11
 BYTE   W01
 BYTE   PAN   c_v-10
 BYTE   W01
 BYTE   PAN   c_v-9
 BYTE   W01
 BYTE   PAN   c_v+0
 BYTE   W88
 BYTE   W01
 BYTE   PEND 
//  #03 //016   ----------------------------------------
 BYTE   W54
 BYTE   W01
 BYTE   W24
 BYTE   VOL   42*SplashWave_mvl/mxv
 BYTE   W17
//  #03 //017   ----------------------------------------
Label_012C3C3E:
 BYTE   W07
 BYTE   N72  Dn3  v127
 BYTE   W72
 BYTE   N12  Gn3
 BYTE   W12
 BYTE   N03  Bn3
 BYTE   W03
 BYTE   N32  Cn4
 BYTE   W02
 BYTE   PEND 
//  #03 //018   ----------------------------------------
Label_012C3C4D:
 BYTE   W30
 BYTE   W01
 BYTE   N24  Bn3  v127
 BYTE   W24
 BYTE   N12  An3
 BYTE   W12
 BYTE   Bn3
 BYTE   W24
 BYTE   N96  Fn3
 BYTE   W05
 BYTE   PEND 
//  #03 //019   ----------------------------------------
Label_012C3C5C:
 BYTE   W90
 BYTE   W01
 BYTE   N03  En4  v127
 BYTE   W03
 BYTE   N32  Fn4
 BYTE   W02
 BYTE   PEND 
//  #03 //020   ----------------------------------------
Label_012C3C66:
 BYTE   W30
 BYTE   W01
 BYTE   N24  En4  v127
 BYTE   W24
 BYTE   N12  Dn4
 BYTE   W12
 BYTE   En4
 BYTE   W24
 BYTE   TIE  Bn3
 BYTE   W05
 BYTE   PEND 
//  #03 //021   ----------------------------------------
 BYTE   W96
//  #03 //022   ----------------------------------------
 BYTE   W54
 BYTE   W01
 BYTE   EOT
 BYTE   N03  Cs4
 BYTE   W03
 BYTE   N21  Dn4
 BYTE   W21
 BYTE   N24  Cn4
 BYTE   W17
//  #03 //023   ----------------------------------------
Label_012C3C82:
 BYTE   W07
 BYTE   N72  Bn3  v127
 BYTE   W72
 BYTE   N03  Fs3
 BYTE   W03
 BYTE   N09  Gn3
 BYTE   W09
 BYTE   N96  En3
 BYTE   W05
 BYTE   PEND 
//  #03 //024   ----------------------------------------
Label_012C3C91:
 BYTE   W90
 BYTE   W01
 BYTE   TIE  Fn3  v127
 BYTE   W05
 BYTE   PEND 
//  #03 //025   ----------------------------------------
 BYTE   W96
//  #03 //026   ----------------------------------------
 BYTE   W30
 BYTE   W01
 BYTE   EOT
 BYTE   N01  Gn3
 BYTE   W02
 BYTE   Gs3
 BYTE   W01
 BYTE   N21  An3
 BYTE   W21
 BYTE   N12  Cn4
 BYTE   W12
 BYTE   N18  Bn3
 BYTE   W24
 BYTE   N24  An3
 BYTE   W05
//  #03 //027   ----------------------------------------
Label_012C3CAD:
 BYTE   W19
 BYTE   N12  Gn3  v127
 BYTE   W12
 BYTE   N96  En3
 BYTE   W64
 BYTE   W01
 BYTE   PEND 
//  #03 //028   ----------------------------------------
Label_012C3CB7:
 BYTE   W30
 BYTE   W01
 BYTE   N03  Fs3  v127
 BYTE   W03
 BYTE   N21  Gn3
 BYTE   W21
 BYTE   N12  Bn3
 BYTE   W12
 BYTE   N18  An3
 BYTE   W24
 BYTE   TIE  As3
 BYTE   W05
 BYTE   PEND 
//  #03 //029   ----------------------------------------
 BYTE   W96
//  #03 //030   ----------------------------------------
 BYTE   W66
 BYTE   W01
 BYTE   EOT
 BYTE   N03  Dn4
 BYTE   W03
 BYTE   N21  Ds4
 BYTE   W21
 BYTE   N84  Dn4
 BYTE   W05
//  #03 //031   ----------------------------------------
Label_012C3CD7:
 BYTE   W78
 BYTE   W01
 BYTE   N12  Cn4  v127
 BYTE   W12
 BYTE   N03  Cs4
 BYTE   W03
 BYTE   TIE  Dn4
 BYTE   W02
 BYTE   PEND 
//  #03 //032   ----------------------------------------
 BYTE   W96
//  #03 //033   ----------------------------------------
 BYTE   W07
 BYTE   EOT
 BYTE   N72  Dn3
 BYTE   W72
 BYTE   N12  Gn3
 BYTE   W12
 BYTE   N03  Bn3
 BYTE   W03
 BYTE   N32  Cn4
 BYTE   W02
//  #03 //034   ----------------------------------------
 BYTE   PATT
  POIN2 Label_012C3C4D
//  #03 //035   ----------------------------------------
 BYTE   PATT
  POIN2 Label_012C3C5C
//  #03 //036   ----------------------------------------
 BYTE   PATT
  POIN2 Label_012C3C66
//  #03 //037   ----------------------------------------
 BYTE   W96
//  #03 //038   ----------------------------------------
 BYTE   W54
 BYTE   W01
 BYTE   EOT
 BYTE   Bn3
 BYTE   N03  Cs4  v127
 BYTE   W03
 BYTE   N21  Dn4
 BYTE   W21
 BYTE   N24  Cn4
 BYTE   W17
//  #03 //039   ----------------------------------------
 BYTE   PATT
  POIN2 Label_012C3C82
//  #03 //040   ----------------------------------------
 BYTE   PATT
  POIN2 Label_012C3C91
//  #03 //041   ----------------------------------------
 BYTE   W96
//  #03 //042   ----------------------------------------
 BYTE   W30
 BYTE   W01
 BYTE   EOT
 BYTE   Fn3
 BYTE   N01  Gn3  v127
 BYTE   W02
 BYTE   Gs3
 BYTE   W01
 BYTE   N21  An3
 BYTE   W21
 BYTE   N12  Cn4
 BYTE   W12
 BYTE   N18  Bn3
 BYTE   W24
 BYTE   N24  An3
 BYTE   W05
//  #03 //043   ----------------------------------------
 BYTE   PATT
  POIN2 Label_012C3CAD
//  #03 //044   ----------------------------------------
 BYTE   PATT
  POIN2 Label_012C3CB7
//  #03 //045   ----------------------------------------
 BYTE   W96
//  #03 //046   ----------------------------------------
 BYTE   W66
 BYTE   W01
 BYTE   EOT
 BYTE   As3
 BYTE   N03  Dn4  v127
 BYTE   W03
 BYTE   N21  Ds4
 BYTE   W21
 BYTE   N84  Dn4
 BYTE   W05
//  #03 //047   ----------------------------------------
Label_012C3D4B:
 BYTE   W78
 BYTE   W01
 BYTE   N03  Fs4  v127
 BYTE   W03
 BYTE   N09  Gn4
 BYTE   W09
 BYTE   TIE  Fs4
 BYTE   W05
 BYTE   PEND 
//  #03 //048   ----------------------------------------
 BYTE   W96
//  #03 //049   ----------------------------------------
 BYTE   W07
 BYTE   EOT
 BYTE   TIE  En4
 BYTE   W88
 BYTE   W01
//  #03 //050   ----------------------------------------
 BYTE   W30
 BYTE   W01
 BYTE   EOT
 BYTE   N24  Dn4
 BYTE   W24
 BYTE   N12  An4
 BYTE   W12
 BYTE   N18  Gn4
 BYTE   W24
 BYTE   TIE  En4
 BYTE   W05
//  #03 //051   ----------------------------------------
 BYTE   W96
//  #03 //052   ----------------------------------------
 BYTE   W54
 BYTE   W01
 BYTE   EOT
 BYTE   N12
 BYTE   W12
 BYTE   Bn3
 BYTE   W12
 BYTE   Dn4
 BYTE   W12
 BYTE   TIE  En4
 BYTE   W05
//  #03 //053   ----------------------------------------
 BYTE   W96
//  #03 //054   ----------------------------------------
 BYTE   W54
 BYTE   W01
 BYTE   EOT
 BYTE   N03  Gs4
 BYTE   W03
 BYTE   N09  An4
 BYTE   W09
 BYTE   N18  Gn4
 BYTE   W24
 BYTE   TIE  En4
 BYTE   W05
//  #03 //055   ----------------------------------------
 BYTE   W96
//  #03 //056   ----------------------------------------
 BYTE   W96
//  #03 //057   ----------------------------------------
 BYTE   W07
 BYTE   EOT
 BYTE   N03  Cs4
 BYTE   W03
 BYTE   N32  Dn4
 BYTE   W32
 BYTE   W01
 BYTE   N12  Cn4
 BYTE   W52
 BYTE   W01
//  #03 //058   ----------------------------------------
Label_012C3D9A:
 BYTE   W30
 BYTE   W01
 BYTE   N03  Cs4  v127
 BYTE   W03
 BYTE   N09  Dn4
 BYTE   W09
 BYTE   N12  Cn4
 BYTE   W12
 BYTE   Dn4
 BYTE   W12
 BYTE   N03  Ds4
 BYTE   W03
 BYTE   N32  En4
 BYTE   W24
 BYTE   W02
 BYTE   PEND 
//  #03 //059   ----------------------------------------
Label_012C3DB0:
 BYTE   W07
 BYTE   N03  Cs4  v127
 BYTE   W03
 BYTE   N32  Dn4
 BYTE   W32
 BYTE   W01
 BYTE   N12  Cn4
 BYTE   W52
 BYTE   W01
 BYTE   PEND 
//  #03 //060   ----------------------------------------
Label_012C3DBE:
 BYTE   W30
 BYTE   W01
 BYTE   N03  Cs4  v127
 BYTE   W03
 BYTE   N09  Dn4
 BYTE   W09
 BYTE   N12  Cn4
 BYTE   W12
 BYTE   Dn4
 BYTE   W12
 BYTE   N36  En4
 BYTE   W28
 BYTE   W01
 BYTE   PEND 
//  #03 //061   ----------------------------------------
Label_012C3DD1:
 BYTE   W07
 BYTE   N36  Dn4  v127
 BYTE   W36
 BYTE   N18  Cn4
 BYTE   W52
 BYTE   W01
 BYTE   PEND 
//  #03 //062   ----------------------------------------
Label_012C3DDB:
 BYTE   W07
 BYTE   N03  Cs4  v127
 BYTE   W03
 BYTE   N21  Dn4
 BYTE   W21
 BYTE   N12  Cn4
 BYTE   W12
 BYTE   N18  Dn4
 BYTE   W24
 BYTE   N03  Ds4
 BYTE   W03
 BYTE   N21  En4
 BYTE   W21
 BYTE   N36  Dn4
 BYTE   W05
 BYTE   PEND 
//  #03 //063   ----------------------------------------
Label_012C3DF3:
 BYTE   W30
 BYTE   W01
 BYTE   N36  Bn3  v127
 BYTE   W36
 BYTE   Gn3
 BYTE   W28
 BYTE   W01
 BYTE   PEND 
//  #03 //064   ----------------------------------------
Label_012C3DFD:
 BYTE   W07
 BYTE   N36  Gn3  v127
 BYTE   W36
 BYTE   N24  En3
 BYTE   W24
 BYTE   N18  Fn3
 BYTE   W18
 BYTE   Gn3
 BYTE   W11
 BYTE   PEND 
//  #03 //065   ----------------------------------------
Label_012C3E0B:
 BYTE   W07
 BYTE   N03  Gs3  v127
 BYTE   W03
 BYTE   N21  An3
 BYTE   W21
 BYTE   N12  Gn3
 BYTE   W12
 BYTE   N03  Gs3
 BYTE   W03
 BYTE   N21  An3
 BYTE   W21
 BYTE   N12  Gn3
 BYTE   W12
 BYTE   N03  Gs3
 BYTE   W03
 BYTE   N21  An3
 BYTE   W14
 BYTE   PEND 
//  #03 //066   ----------------------------------------
Label_012C3E26:
 BYTE   W07
 BYTE   N12  Gn3  v127
 BYTE   W12
 BYTE   N03  Gs3
 BYTE   W03
 BYTE   N21  An3
 BYTE   W21
 BYTE   N12  Gn3
 BYTE   W12
 BYTE   N03  Gs3
 BYTE   W03
 BYTE   N21  An3
 BYTE   W21
 BYTE   N12  Gn3
 BYTE   W12
 BYTE   N03  As3
 BYTE   W03
 BYTE   N21  Bn3
 BYTE   W02
 BYTE   PEND 
//  #03 //067   ----------------------------------------
Label_012C3E44:
 BYTE   W19
 BYTE   N12  An3  v127
 BYTE   W12
 BYTE   N03  As3
 BYTE   W03
 BYTE   N21  Bn3
 BYTE   W21
 BYTE   N12  An3
 BYTE   W12
 BYTE   N03  As3
 BYTE   W03
 BYTE   N21  Bn3
 BYTE   W21
 BYTE   N12  An3
 BYTE   W05
 BYTE   PEND 
//  #03 //068   ----------------------------------------
Label_012C3E5C:
 BYTE   W07
 BYTE   N12  Cn4  v127
 BYTE   W12
 BYTE   N12
 BYTE   W12
 BYTE   N24  Bn3
 BYTE   W24
 BYTE   An3
 BYTE   W24
 BYTE   N12  Cs4
 BYTE   W12
 BYTE   N24  Dn4
 BYTE   W05
 BYTE   PEND 
//  #03 //069   ----------------------------------------
Label_012C3E6F:
 BYTE   W19
 BYTE   N03  Ds4  v127
 BYTE   W03
 BYTE   N09  En4
 BYTE   W09
 BYTE   N24  Dn4
 BYTE   W24
 BYTE   N03  Ds4
 BYTE   W03
 BYTE   N09  En4
 BYTE   W09
 BYTE   N24  Dn4
 BYTE   W24
 BYTE   N03  Ds4
 BYTE   W03
 BYTE   N09  En4
 BYTE   W02
 BYTE   PEND 
//  #03 //070   ----------------------------------------
Label_012C3E8A:
 BYTE   W07
 BYTE   N24  Dn4  v127
 BYTE   W24
 BYTE   N03  Ds4
 BYTE   W03
 BYTE   N09  En4
 BYTE   W09
 BYTE   N24  Dn4
 BYTE   W24
 BYTE   N12  En4
 BYTE   W12
 BYTE   Gn4
 BYTE   W12
 BYTE   An4
 BYTE   W05
 BYTE   PEND 
//  #03 //071   ----------------------------------------
Label_012C3EA0:
 BYTE   W07
 BYTE   TIE  Gn4  v127
 BYTE   W88
 BYTE   W01
 BYTE   PEND 
//  #03 //072   ----------------------------------------
 BYTE   W13
 BYTE   EOT
 BYTE   W06
 BYTE   N15  Cs4
 BYTE   W24
 BYTE   Dn4
 BYTE   W24
 BYTE   En4
 BYTE   W24
 BYTE   N04
 BYTE   W04
 BYTE   Fn4
 BYTE   W01
//  #03 //073   ----------------------------------------
Label_012C3EB5:
 BYTE   W03
 BYTE   N04  Fs4  v127
 BYTE   W04
 BYTE   N24  Gn4
 BYTE   W24
 BYTE   N12  Fn4
 BYTE   W12
 BYTE   N03  Fs4
 BYTE   W03
 BYTE   N21  Gn4
 BYTE   W21
 BYTE   N12  Fn4
 BYTE   W12
 BYTE   N03  Fs4
 BYTE   W03
 BYTE   N21  Gn4
 BYTE   W14
 BYTE   PEND 
//  #03 //074   ----------------------------------------
Label_012C3ED0:
 BYTE   W07
 BYTE   N12  Fn4  v127
 BYTE   W12
 BYTE   N03  Fs4
 BYTE   W03
 BYTE   N21  Gn4
 BYTE   W21
 BYTE   N12  Fn4
 BYTE   W12
 BYTE   N03  Fs4
 BYTE   W03
 BYTE   N21  Gn4
 BYTE   W21
 BYTE   N12  Fn4
 BYTE   W12
 BYTE   N03  Gs4
 BYTE   W03
 BYTE   N21  An4
 BYTE   W02
 BYTE   PEND 
//  #03 //075   ----------------------------------------
Label_012C3EEE:
 BYTE   W19
 BYTE   N12  Gn4  v127
 BYTE   W12
 BYTE   N03  Gs4
 BYTE   W03
 BYTE   N21  An4
 BYTE   W21
 BYTE   N12  Gn4
 BYTE   W12
 BYTE   N03  Gs4
 BYTE   W03
 BYTE   N21  An4
 BYTE   W21
 BYTE   N12  Gn4
 BYTE   W05
 BYTE   PEND 
//  #03 //076   ----------------------------------------
Label_012C3F06:
 BYTE   W07
 BYTE   N12  Cs5  v127
 BYTE   W12
 BYTE   As4
 BYTE   W12
 BYTE   An4
 BYTE   W12
 BYTE   N24  En5
 BYTE   W24
 BYTE   N12  Dn5
 BYTE   W12
 BYTE   Cs5
 BYTE   W12
 BYTE   N24  Dn5
 BYTE   W05
 BYTE   PEND 
//  #03 //077   ----------------------------------------
Label_012C3F1B:
 BYTE   W19
 BYTE   N03  Ds5  v127
 BYTE   W03
 BYTE   N09  En5
 BYTE   W09
 BYTE   N24  Dn5
 BYTE   W24
 BYTE   N03  Ds5
 BYTE   W03
 BYTE   N09  En5
 BYTE   W09
 BYTE   N24  Dn5
 BYTE   W24
 BYTE   N03  Ds5
 BYTE   W03
 BYTE   N09  En5
 BYTE   W02
 BYTE   PEND 
//  #03 //078   ----------------------------------------
 BYTE   W07
 BYTE   N24  Dn5
 BYTE   W24
 BYTE   N03  Ds5
 BYTE   W03
 BYTE   N09  En5
 BYTE   W09
 BYTE   N24  Dn5
 BYTE   W24
 BYTE   N12  Fn5
 BYTE   W12
 BYTE   En5
 BYTE   W12
 BYTE   TIE  Cn5
 BYTE   W05
//  #03 //079   ----------------------------------------
 BYTE   W96
//  #03 //080   ----------------------------------------
 BYTE   W13
 BYTE   EOT
 BYTE   W06
 BYTE   PAN   c_v-30
 BYTE   N18  Fs3  v112
 BYTE   N18  An3
 BYTE   N18  Dn4
 BYTE   W18
 BYTE   PAN   c_v+30
 BYTE   N18  Fs3
 BYTE   N18  An3
 BYTE   N18  Dn4
 BYTE   W18
 BYTE   PAN   c_v-30
 BYTE   N12  Fs3
 BYTE   N12  An3
 BYTE   N12  Dn4
 BYTE   W24
 BYTE   PAN   c_v+0
 BYTE   W17
//  #03 //081   ----------------------------------------
 BYTE   PATT
  POIN2 Label_012C3C3E
//  #03 //082   ----------------------------------------
 BYTE   PATT
  POIN2 Label_012C3C4D
//  #03 //083   ----------------------------------------
 BYTE   PATT
  POIN2 Label_012C3C5C
//  #03 //084   ----------------------------------------
 BYTE   PATT
  POIN2 Label_012C3C66
//  #03 //085   ----------------------------------------
 BYTE   W96
//  #03 //086   ----------------------------------------
 BYTE   W54
 BYTE   W01
 BYTE   EOT
 BYTE   Bn3
 BYTE   N03  Cs4  v127
 BYTE   W03
 BYTE   N21  Dn4
 BYTE   W21
 BYTE   N24  Cn4
 BYTE   W17
//  #03 //087   ----------------------------------------
 BYTE   PATT
  POIN2 Label_012C3C82
//  #03 //088   ----------------------------------------
 BYTE   PATT
  POIN2 Label_012C3C91
//  #03 //089   ----------------------------------------
 BYTE   W96
//  #03 //090   ----------------------------------------
 BYTE   W30
 BYTE   W01
 BYTE   EOT
 BYTE   Fn3
 BYTE   N01  Gn3  v127
 BYTE   W02
 BYTE   Gs3
 BYTE   W01
 BYTE   N21  An3
 BYTE   W21
 BYTE   N12  Cn4
 BYTE   W12
 BYTE   N18  Bn3
 BYTE   W24
 BYTE   N24  An3
 BYTE   W05
//  #03 //091   ----------------------------------------
 BYTE   PATT
  POIN2 Label_012C3CAD
//  #03 //092   ----------------------------------------
 BYTE   PATT
  POIN2 Label_012C3CB7
//  #03 //093   ----------------------------------------
 BYTE   W96
//  #03 //094   ----------------------------------------
 BYTE   W66
 BYTE   W01
 BYTE   EOT
 BYTE   As3
 BYTE   N03  Dn4  v127
 BYTE   W03
 BYTE   N21  Ds4
 BYTE   W21
 BYTE   N84  Dn4
 BYTE   W05
//  #03 //095   ----------------------------------------
 BYTE   PATT
  POIN2 Label_012C3CD7
//  #03 //096   ----------------------------------------
 BYTE   W96
//  #03 //097   ----------------------------------------
 BYTE   W07
 BYTE   EOT
 BYTE   Dn4
 BYTE   N72  Dn3  v127
 BYTE   W72
 BYTE   N12  Gn3
 BYTE   W12
 BYTE   N03  Bn3
 BYTE   W03
 BYTE   N32  Cn4
 BYTE   W02
//  #03 //098   ----------------------------------------
 BYTE   PATT
  POIN2 Label_012C3C4D
//  #03 //099   ----------------------------------------
 BYTE   PATT
  POIN2 Label_012C3C5C
//  #03 //100   ----------------------------------------
 BYTE   PATT
  POIN2 Label_012C3C66
//  #03 //101   ----------------------------------------
 BYTE   W96
//  #03 //102   ----------------------------------------
 BYTE   W54
 BYTE   W01
 BYTE   EOT
 BYTE   Bn3
 BYTE   N03  Cs4  v127
 BYTE   W03
 BYTE   N21  Dn4
 BYTE   W21
 BYTE   N24  Cn4
 BYTE   W17
//  #03 //103   ----------------------------------------
 BYTE   PATT
  POIN2 Label_012C3C82
//  #03 //104   ----------------------------------------
 BYTE   PATT
  POIN2 Label_012C3C91
//  #03 //105   ----------------------------------------
 BYTE   W96
//  #03 //106   ----------------------------------------
 BYTE   W30
 BYTE   W01
 BYTE   EOT
 BYTE   Fn3
 BYTE   N01  Gn3  v127
 BYTE   W02
 BYTE   Gs3
 BYTE   W01
 BYTE   N21  An3
 BYTE   W21
 BYTE   N12  Cn4
 BYTE   W12
 BYTE   N18  Bn3
 BYTE   W24
 BYTE   N24  An3
 BYTE   W05
//  #03 //107   ----------------------------------------
 BYTE   PATT
  POIN2 Label_012C3CAD
//  #03 //108   ----------------------------------------
 BYTE   PATT
  POIN2 Label_012C3CB7
//  #03 //109   ----------------------------------------
 BYTE   W96
//  #03 //110   ----------------------------------------
 BYTE   W66
 BYTE   W01
 BYTE   EOT
 BYTE   As3
 BYTE   N03  Dn4  v127
 BYTE   W03
 BYTE   N21  Ds4
 BYTE   W21
 BYTE   N84  Dn4
 BYTE   W05
//  #03 //111   ----------------------------------------
 BYTE   PATT
  POIN2 Label_012C3D4B
//  #03 //112   ----------------------------------------
 BYTE   W96
//  #03 //113   ----------------------------------------
 BYTE   W07
 BYTE   EOT
 BYTE   Fs4
 BYTE   TIE  En4  v127
 BYTE   W88
 BYTE   W01
//  #03 //114   ----------------------------------------
 BYTE   W30
 BYTE   W01
 BYTE   EOT
 BYTE   N24  Dn4
 BYTE   W24
 BYTE   N12  An4
 BYTE   W12
 BYTE   N18  Gn4
 BYTE   W24
 BYTE   TIE  En4
 BYTE   W05
//  #03 //115   ----------------------------------------
 BYTE   W96
//  #03 //116   ----------------------------------------
 BYTE   W54
 BYTE   W01
 BYTE   EOT
 BYTE   N12
 BYTE   W12
 BYTE   Bn3
 BYTE   W12
 BYTE   Dn4
 BYTE   W12
 BYTE   TIE  En4
 BYTE   W05
//  #03 //117   ----------------------------------------
 BYTE   W96
//  #03 //118   ----------------------------------------
 BYTE   W54
 BYTE   W01
 BYTE   EOT
 BYTE   N03  Gs4
 BYTE   W03
 BYTE   N09  An4
 BYTE   W09
 BYTE   N18  Gn4
 BYTE   W24
 BYTE   TIE  En4
 BYTE   W05
//  #03 //119   ----------------------------------------
 BYTE   W96
//  #03 //120   ----------------------------------------
 BYTE   W96
//  #03 //121   ----------------------------------------
 BYTE   W07
 BYTE   EOT
 BYTE   N03  Cs4
 BYTE   W03
 BYTE   N32  Dn4
 BYTE   W32
 BYTE   W01
 BYTE   N12  Cn4
 BYTE   W52
 BYTE   W01
//  #03 //122   ----------------------------------------
 BYTE   PATT
  POIN2 Label_012C3D9A
//  #03 //123   ----------------------------------------
 BYTE   PATT
  POIN2 Label_012C3DB0
//  #03 //124   ----------------------------------------
 BYTE   PATT
  POIN2 Label_012C3DBE
//  #03 //125   ----------------------------------------
 BYTE   PATT
  POIN2 Label_012C3DD1
//  #03 //126   ----------------------------------------
 BYTE   PATT
  POIN2 Label_012C3DDB
//  #03 //127   ----------------------------------------
 BYTE   PATT
  POIN2 Label_012C3DF3
//  #03 //128   ----------------------------------------
 BYTE   PATT
  POIN2 Label_012C3DFD
//  #03 //129   ----------------------------------------
 BYTE   PATT
  POIN2 Label_012C3E0B
//  #03 //130   ----------------------------------------
 BYTE   PATT
  POIN2 Label_012C3E26
//  #03 //131   ----------------------------------------
 BYTE   PATT
  POIN2 Label_012C3E44
//  #03 //132   ----------------------------------------
 BYTE   PATT
  POIN2 Label_012C3E5C
//  #03 //133   ----------------------------------------
 BYTE   PATT
  POIN2 Label_012C3E6F
//  #03 //134   ----------------------------------------
 BYTE   PATT
  POIN2 Label_012C3E8A
//  #03 //135   ----------------------------------------
 BYTE   PATT
  POIN2 Label_012C3EA0
//  #03 //136   ----------------------------------------
 BYTE   W13
 BYTE   EOT
 BYTE   Gn4
 BYTE   W06
 BYTE   N15  Cs4  v127
 BYTE   W24
 BYTE   Dn4
 BYTE   W24
 BYTE   En4
 BYTE   W24
 BYTE   N04
 BYTE   W04
 BYTE   Fn4
 BYTE   W01
//  #03 //137   ----------------------------------------
 BYTE   PATT
  POIN2 Label_012C3EB5
//  #03 //138   ----------------------------------------
 BYTE   PATT
  POIN2 Label_012C3ED0
//  #03 //139   ----------------------------------------
 BYTE   PATT
  POIN2 Label_012C3EEE
//  #03 //140   ----------------------------------------
 BYTE   PATT
  POIN2 Label_012C3F06
//  #03 //141   ----------------------------------------
 BYTE   PATT
  POIN2 Label_012C3F1B
//  #03 //142   ----------------------------------------
 BYTE   W07
 BYTE   N24  Dn5  v127
 BYTE   W24
 BYTE   N03  Ds5
 BYTE   W03
 BYTE   N09  En5
 BYTE   W09
 BYTE   N24  Dn5
 BYTE   W24
 BYTE   N12  Fn5
 BYTE   W12
 BYTE   En5
 BYTE   W12
 BYTE   N96  Cn5
 BYTE   W05
//  #03 //143   ----------------------------------------
 BYTE   W90
 BYTE   W01
 BYTE   TIE  Cn6
 BYTE   W05
//  #03 //144   ----------------------------------------
 BYTE   W96
//  #03 //145   ----------------------------------------
 BYTE   W07
 BYTE   EOT
 BYTE   PAN   c_v+0
 BYTE   N12  En3
 BYTE   W02
 BYTE   PAN   c_v-1
 BYTE   W01
 BYTE   PAN   c_v-2
 BYTE   W02
 BYTE   PAN   c_v-3
 BYTE   W01
 BYTE   PAN   c_v-4
 BYTE   W02
 BYTE   PAN   c_v-5
 BYTE   W01
 BYTE   PAN   c_v-6
 BYTE   W02
 BYTE   PAN   c_v-7
 BYTE   W01
 BYTE   PAN   c_v-8
 BYTE   N12  Bn3
 BYTE   W02
 BYTE   PAN   c_v-9
 BYTE   W01
 BYTE   PAN   c_v-10
 BYTE   W02
 BYTE   PAN   c_v-11
 BYTE   W01
 BYTE   PAN   c_v-12
 BYTE   W02
 BYTE   PAN   c_v-13
 BYTE   W01
 BYTE   PAN   c_v-14
 BYTE   W02
 BYTE   PAN   c_v-15
 BYTE   W01
 BYTE   PAN   c_v-16
 BYTE   N12  En4
 BYTE   W02
 BYTE   PAN   c_v-17
 BYTE   W01
 BYTE   PAN   c_v-18
 BYTE   W02
 BYTE   PAN   c_v-19
 BYTE   W01
 BYTE   PAN   c_v-20
 BYTE   W02
 BYTE   PAN   c_v-21
 BYTE   W01
 BYTE   PAN   c_v-22
 BYTE   W02
 BYTE   PAN   c_v-23
 BYTE   W01
 BYTE   PAN   c_v-24
 BYTE   N12  En3
 BYTE   W02
 BYTE   PAN   c_v-25
 BYTE   W01
 BYTE   PAN   c_v-26
 BYTE   W02
 BYTE   PAN   c_v-27
 BYTE   W01
 BYTE   PAN   c_v-28
 BYTE   W02
 BYTE   PAN   c_v-29
 BYTE   W01
 BYTE   PAN   c_v-30
 BYTE   W02
 BYTE   PAN   c_v-31
 BYTE   W01
 BYTE   PAN   c_v-32
 BYTE   N12  Bn3
 BYTE   W02
 BYTE   PAN   c_v-33
 BYTE   W01
 BYTE   PAN   c_v-34
 BYTE   W02
 BYTE   PAN   c_v-35
 BYTE   W01
 BYTE   PAN   c_v-36
 BYTE   W02
 BYTE   PAN   c_v-37
 BYTE   W01
 BYTE   PAN   c_v-38
 BYTE   W02
 BYTE   PAN   c_v-39
 BYTE   W01
 BYTE   PAN   c_v-40
 BYTE   N12  En4
 BYTE   W01
 BYTE   PAN   c_v-40
 BYTE   W01
 BYTE   PAN   c_v-39
 BYTE   W01
 BYTE   PAN   c_v-38
 BYTE   W01
 BYTE   PAN   c_v-37
 BYTE   W01
 BYTE   PAN   c_v-36
 BYTE   W01
 BYTE   PAN   c_v-35
 BYTE   W01
 BYTE   PAN   c_v-34
 BYTE   W01
 BYTE   PAN   c_v-33
 BYTE   W01
 BYTE   PAN   c_v-31
 BYTE   W01
 BYTE   PAN   c_v-30
 BYTE   W01
 BYTE   PAN   c_v-29
 BYTE   W01
 BYTE   PAN   c_v-28
 BYTE   N12  En3
 BYTE   W01
 BYTE   PAN   c_v-27
 BYTE   W01
 BYTE   PAN   c_v-26
 BYTE   W01
 BYTE   PAN   c_v-25
 BYTE   W01
 BYTE   PAN   c_v-24
 BYTE   W01
 BYTE   PAN   c_v-23
 BYTE   W01
 BYTE   PAN   c_v-21
 BYTE   W01
 BYTE   PAN   c_v-20
 BYTE   W01
 BYTE   PAN   c_v-19
 BYTE   W01
 BYTE   PAN   c_v-18
 BYTE   W01
 BYTE   PAN   c_v-17
 BYTE   W01
 BYTE   PAN   c_v-16
 BYTE   W01
 BYTE   PAN   c_v-15
 BYTE   N12  Bn3
 BYTE   W01
 BYTE   PAN   c_v-14
 BYTE   W01
 BYTE   PAN   c_v-13
 BYTE   W01
 BYTE   PAN   c_v-11
 BYTE   W01
 BYTE   PAN   c_v-10
 BYTE   W01
//  #03 //146   ----------------------------------------
 BYTE   PATT
  POIN2 Label_012C372F
//  #03 //147   ----------------------------------------
 BYTE   PATT
  POIN2 Label_012C37E6
//  #03 //148   ----------------------------------------
 BYTE   PATT
  POIN2 Label_012C388B
//  #03 //149   ----------------------------------------
 BYTE   PATT
  POIN2 Label_012C3946
//  #03 //150   ----------------------------------------
 BYTE   PATT
  POIN2 Label_012C39F1
//  #03 //151   ----------------------------------------
 BYTE   PATT
  POIN2 Label_012C3AAC
//  #03 //152   ----------------------------------------
 BYTE   PATT
  POIN2 Label_012C388B
//  #03 //153   ----------------------------------------
 BYTE   PAN   c_v+9
 BYTE   W01
 BYTE   PAN   c_v+8
 BYTE   W02
 BYTE   PAN   c_v+7
 BYTE   W01
 BYTE   PAN   c_v+6
 BYTE   W02
 BYTE   PAN   c_v+5
 BYTE   W01
 BYTE   PAN   c_v+0
 BYTE   N12  En3  v127
 BYTE   W02
 BYTE   PAN   c_v-1
 BYTE   W01
 BYTE   PAN   c_v-2
 BYTE   W02
 BYTE   PAN   c_v-3
 BYTE   W01
 BYTE   PAN   c_v-4
 BYTE   W02
 BYTE   PAN   c_v-5
 BYTE   W01
 BYTE   PAN   c_v-6
 BYTE   W02
 BYTE   PAN   c_v-7
 BYTE   W01
 BYTE   PAN   c_v-8
 BYTE   N12  Bn3
 BYTE   W02
 BYTE   PAN   c_v-9
 BYTE   W01
 BYTE   PAN   c_v-10
 BYTE   W02
 BYTE   PAN   c_v-11
 BYTE   W01
 BYTE   PAN   c_v-12
 BYTE   W02
 BYTE   PAN   c_v-13
 BYTE   W01
 BYTE   PAN   c_v-14
 BYTE   W02
 BYTE   PAN   c_v-15
 BYTE   W01
 BYTE   PAN   c_v-16
 BYTE   N12  En4
 BYTE   W02
 BYTE   PAN   c_v-17
 BYTE   W01
 BYTE   PAN   c_v-18
 BYTE   W02
 BYTE   PAN   c_v-19
 BYTE   W01
 BYTE   PAN   c_v-20
 BYTE   W02
 BYTE   PAN   c_v-21
 BYTE   W01
 BYTE   PAN   c_v-22
 BYTE   W02
 BYTE   PAN   c_v-23
 BYTE   W01
 BYTE   PAN   c_v-24
 BYTE   N12  En3
 BYTE   W02
 BYTE   PAN   c_v-25
 BYTE   W01
 BYTE   PAN   c_v-26
 BYTE   W02
 BYTE   PAN   c_v-27
 BYTE   W01
 BYTE   PAN   c_v-28
 BYTE   W02
 BYTE   PAN   c_v-29
 BYTE   W01
 BYTE   PAN   c_v-30
 BYTE   W02
 BYTE   PAN   c_v-31
 BYTE   W01
 BYTE   PAN   c_v-32
 BYTE   N12  Bn3
 BYTE   W02
 BYTE   PAN   c_v-33
 BYTE   W01
 BYTE   PAN   c_v-34
 BYTE   W02
 BYTE   PAN   c_v-35
 BYTE   W01
 BYTE   PAN   c_v-36
 BYTE   W02
 BYTE   PAN   c_v-37
 BYTE   W01
 BYTE   PAN   c_v-38
 BYTE   W02
 BYTE   PAN   c_v-39
 BYTE   W01
 BYTE   PAN   c_v-40
 BYTE   N12  En4
 BYTE   W01
 BYTE   PAN   c_v-40
 BYTE   W01
 BYTE   PAN   c_v-39
 BYTE   W01
 BYTE   PAN   c_v-38
 BYTE   W01
 BYTE   PAN   c_v-37
 BYTE   W01
 BYTE   PAN   c_v-36
 BYTE   W01
 BYTE   PAN   c_v-35
 BYTE   W01
 BYTE   PAN   c_v-34
 BYTE   W01
 BYTE   PAN   c_v-33
 BYTE   W01
 BYTE   PAN   c_v-31
 BYTE   W01
 BYTE   PAN   c_v-30
 BYTE   W01
 BYTE   PAN   c_v-29
 BYTE   W01
 BYTE   PAN   c_v-28
 BYTE   N12  En3
 BYTE   W01
 BYTE   PAN   c_v-27
 BYTE   W01
 BYTE   PAN   c_v-26
 BYTE   W01
 BYTE   PAN   c_v-25
 BYTE   W01
 BYTE   PAN   c_v-24
 BYTE   W01
 BYTE   PAN   c_v-23
 BYTE   W01
 BYTE   PAN   c_v-21
 BYTE   W01
 BYTE   PAN   c_v-20
 BYTE   W01
 BYTE   PAN   c_v-19
 BYTE   W01
 BYTE   PAN   c_v-18
 BYTE   W01
 BYTE   PAN   c_v-17
 BYTE   W01
 BYTE   PAN   c_v-16
 BYTE   W01
 BYTE   PAN   c_v-15
 BYTE   N12  Bn3
 BYTE   W01
 BYTE   PAN   c_v-14
 BYTE   W01
 BYTE   PAN   c_v-13
 BYTE   W01
 BYTE   PAN   c_v-11
 BYTE   W01
 BYTE   PAN   c_v-10
 BYTE   W01
//  #03 //154   ----------------------------------------
 BYTE   PATT
  POIN2 Label_012C372F
//  #03 //155   ----------------------------------------
 BYTE   PATT
  POIN2 Label_012C37E6
//  #03 //156   ----------------------------------------
 BYTE   PATT
  POIN2 Label_012C388B
//  #03 //157   ----------------------------------------
 BYTE   PATT
  POIN2 Label_012C3946
//  #03 //158   ----------------------------------------
 BYTE   PATT
  POIN2 Label_012C39F1
//  #03 //159   ----------------------------------------
 BYTE   PATT
  POIN2 Label_012C3AAC
//  #03 //160   ----------------------------------------
 BYTE   PATT
  POIN2 Label_012C388B
//  #03 //161   ----------------------------------------
 BYTE   PATT
  POIN2 Label_012C3946
//  #03 //162   ----------------------------------------
 BYTE   PATT
  POIN2 Label_012C39F1
//  #03 //163   ----------------------------------------
 BYTE   PATT
  POIN2 Label_012C3AAC
//  #03 //164   ----------------------------------------
 BYTE   PATT
  POIN2 Label_012C388B
//  #03 //165   ----------------------------------------
 BYTE   PATT
  POIN2 Label_012C3946
//  #03 //166   ----------------------------------------
 BYTE   PATT
  POIN2 Label_012C39F1
//  #03 //167   ----------------------------------------
 BYTE   PATT
  POIN2 Label_012C3B7A
//  #03 //168   ----------------------------------------
 BYTE   PATT
  POIN2 Label_012C3C25
//  #03 //169   ----------------------------------------
 BYTE   W96
//  #03 //170   ----------------------------------------
 BYTE   PATT
  POIN2 Label_012C3E0B
//  #03 //171   ----------------------------------------
 BYTE   PATT
  POIN2 Label_012C3E26
//  #03 //172   ----------------------------------------
 BYTE   PATT
  POIN2 Label_012C3E44
//  #03 //173   ----------------------------------------
 BYTE   PATT
  POIN2 Label_012C3E5C
//  #03 //174   ----------------------------------------
 BYTE   PATT
  POIN2 Label_012C3E6F
//  #03 //175   ----------------------------------------
 BYTE   PATT
  POIN2 Label_012C3E8A
//  #03 //176   ----------------------------------------
 BYTE   PATT
  POIN2 Label_012C3EA0
//  #03 //177   ----------------------------------------
 BYTE   W13
 BYTE   EOT
 BYTE   Gn4
 BYTE   W06
 BYTE   N15  Cs4  v127
 BYTE   W24
 BYTE   Dn4
 BYTE   W24
 BYTE   En4
 BYTE   W24
 BYTE   N04
 BYTE   W04
 BYTE   Fn4
 BYTE   W01
//  #03 //178   ----------------------------------------
 BYTE   PATT
  POIN2 Label_012C3EB5
//  #03 //179   ----------------------------------------
 BYTE   PATT
  POIN2 Label_012C3ED0
//  #03 //180   ----------------------------------------
 BYTE   PATT
  POIN2 Label_012C3EEE
//  #03 //181   ----------------------------------------
 BYTE   PATT
  POIN2 Label_012C3F06
//  #03 //182   ----------------------------------------
 BYTE   PATT
  POIN2 Label_012C3F1B
//  #03 //183   ----------------------------------------
 BYTE   W07
 BYTE   N24  Dn5  v127
 BYTE   W24
 BYTE   N03  Ds5
 BYTE   W03
 BYTE   N09  En5
 BYTE   W09
 BYTE   N24  Dn5
 BYTE   W24
 BYTE   N12  En5
 BYTE   W12
 BYTE   Bn5
 BYTE   W12
 BYTE   TIE  Gn5
 BYTE   W05
//  #03 //184   ----------------------------------------
 BYTE   W96
//  #03 //185   ----------------------------------------
 BYTE   W07
 BYTE   EOT
 BYTE   N03  Ds5
 BYTE   W03
 BYTE   N09  En5
 BYTE   W09
 BYTE   N24  Dn5
 BYTE   W24
 BYTE   Cs5
 BYTE   W24
 BYTE   N12  Dn5
 BYTE   W12
 BYTE   En5
 BYTE   W12
 BYTE   Gn5
 BYTE   W05
//  #03 //186   ----------------------------------------
 BYTE   W07
 BYTE   N24  Fn5
 BYTE   W24
 BYTE   N12  En5
 BYTE   W12
 BYTE   N24  Fn5
 BYTE   W24
 BYTE   N12  En5
 BYTE   W12
 BYTE   N24  Fn5
 BYTE   W17
//  #03 //187   ----------------------------------------
 BYTE   W07
 BYTE   N12  En5
 BYTE   W12
 BYTE   N24  Fn5
 BYTE   W24
 BYTE   N12  En5
 BYTE   W12
 BYTE   N24  Fn5
 BYTE   W24
 BYTE   N12  En5
 BYTE   W12
 BYTE   Fn5
 BYTE   W05
//  #03 //188   ----------------------------------------
 BYTE   W07
 BYTE   N03  Fs5
 BYTE   W03
 BYTE   N21  Gn5
 BYTE   W21
 BYTE   N12  Fn5
 BYTE   W12
 BYTE   N24  Gn5
 BYTE   W24
 BYTE   N12  Fn5
 BYTE   W12
 BYTE   N24  Gn5
 BYTE   W17
//  #03 //189   ----------------------------------------
 BYTE   W07
 BYTE   N12  Fn5
 BYTE   W12
 BYTE   N24  As5
 BYTE   W24
 BYTE   An5
 BYTE   W24
 BYTE   N12  Gn5
 BYTE   W12
 BYTE   Fn5
 BYTE   W12
 BYTE   En5
 BYTE   W05
//  #03 //190   ----------------------------------------
 BYTE   W07
 BYTE   N24  Dn5
 BYTE   W24
 BYTE   N03  Ds5
 BYTE   W03
 BYTE   N09  En5
 BYTE   W09
 BYTE   N24  Dn5
 BYTE   W24
 BYTE   N03  Ds5
 BYTE   W03
 BYTE   N09  En5
 BYTE   W09
 BYTE   N24  Dn5
 BYTE   W17
//  #03 //191   ----------------------------------------
 BYTE   W07
 BYTE   N03  Ds5
 BYTE   W03
 BYTE   N09  En5
 BYTE   W09
 BYTE   N24  Dn5
 BYTE   W24
 BYTE   N03  Ds5
 BYTE   W03
 BYTE   N09  En5
 BYTE   W09
 BYTE   N24  Dn5
 BYTE   W24
 BYTE   N12  Cn5
 BYTE   W12
 BYTE   TIE
 BYTE   W05
//  #03 //192   ----------------------------------------
 BYTE   W96
//  #03 //193   ----------------------------------------
 BYTE   W13
 BYTE   EOT
 BYTE   W06
 BYTE   N12  As4
 BYTE   W24
 BYTE   Cs5
 BYTE   W24
 BYTE   An5
 BYTE   W24
 BYTE   N03  Fs5
 BYTE   W03
 BYTE   N21  Gn5
 BYTE   W02
//  #03 //194   ----------------------------------------
 BYTE   W19
 BYTE   N12  Fn5
 BYTE   W12
 BYTE   N03  Fs5
 BYTE   W03
 BYTE   N21  Gn5
 BYTE   W21
 BYTE   N12  Fn5
 BYTE   W12
 BYTE   N03  Fs5
 BYTE   W03
 BYTE   N21  Gn5
 BYTE   W21
 BYTE   N24  Fn5
 BYTE   W05
//  #03 //195   ----------------------------------------
 BYTE   W19
 BYTE   N03  Fs5
 BYTE   W03
 BYTE   N09  Gn5
 BYTE   W09
 BYTE   N12
 BYTE   W12
 BYTE   Fn5
 BYTE   W12
 BYTE   N03  Fs5
 BYTE   W03
 BYTE   N21  Gn5
 BYTE   W21
 BYTE   N12  Fn5
 BYTE   W12
 BYTE   N03  Gs5
 BYTE   W03
 BYTE   N21  An5
 BYTE   W02
//  #03 //196   ----------------------------------------
 BYTE   W19
 BYTE   N12  Gn5
 BYTE   W12
 BYTE   N03  Gs5
 BYTE   W03
 BYTE   N21  An5
 BYTE   W21
 BYTE   N12  Gn5
 BYTE   W12
 BYTE   N03  Gs5
 BYTE   W03
 BYTE   N21  An5
 BYTE   W21
 BYTE   N12  Gn5
 BYTE   W05
//  #03 //197   ----------------------------------------
 BYTE   W19
 BYTE   Cs6
 BYTE   W12
 BYTE   As5
 BYTE   W12
 BYTE   An5
 BYTE   W12
 BYTE   Gn5
 BYTE   W12
 BYTE   Fn5
 BYTE   W12
 BYTE   En5
 BYTE   W12
 BYTE   Dn5
 BYTE   W05
//  #03 //198   ----------------------------------------
 BYTE   W07
 BYTE   N03  Ds5
 BYTE   W03
 BYTE   N21  En5
 BYTE   W21
 BYTE   N12  Dn5
 BYTE   W12
 BYTE   N03  Ds5
 BYTE   W03
 BYTE   N21  En5
 BYTE   W21
 BYTE   N12  Dn5
 BYTE   W12
 BYTE   N03  Ds5
 BYTE   W03
 BYTE   N21  En5
 BYTE   W14
//  #03 //199   ----------------------------------------
 BYTE   W07
 BYTE   N12  Dn5
 BYTE   W12
 BYTE   N03  Ds5
 BYTE   W03
 BYTE   N21  En5
 BYTE   W21
 BYTE   N12  Dn5
 BYTE   W12
 BYTE   N24  En5
 BYTE   W24
 BYTE   N12  Fn5
 BYTE   W12
 BYTE   En5
 BYTE   W05
//  #03 //200   ----------------------------------------
 BYTE   W19
 BYTE   N90  Cn5
 BYTE   W76
 BYTE   W01
//  #03 //201   ----------------------------------------
 BYTE   W96
//  #03 //202   ----------------------------------------
 BYTE   W07
 BYTE   PAN   c_v+0
 BYTE   N12  En3
 BYTE   W02
 BYTE   PAN   c_v-1
 BYTE   W01
 BYTE   PAN   c_v-2
 BYTE   W02
 BYTE   PAN   c_v-3
 BYTE   W01
 BYTE   PAN   c_v-4
 BYTE   W02
 BYTE   PAN   c_v-5
 BYTE   W01
 BYTE   PAN   c_v-6
 BYTE   W02
 BYTE   PAN   c_v-7
 BYTE   W01
 BYTE   PAN   c_v-8
 BYTE   N12  Bn3
 BYTE   W02
 BYTE   PAN   c_v-9
 BYTE   W01
 BYTE   PAN   c_v-10
 BYTE   W02
 BYTE   PAN   c_v-11
 BYTE   W01
 BYTE   PAN   c_v-12
 BYTE   W02
 BYTE   PAN   c_v-13
 BYTE   W01
 BYTE   PAN   c_v-14
 BYTE   W02
 BYTE   PAN   c_v-15
 BYTE   W01
 BYTE   PAN   c_v-16
 BYTE   N12  En4
 BYTE   W02
 BYTE   PAN   c_v-17
 BYTE   W01
 BYTE   PAN   c_v-18
 BYTE   W02
 BYTE   PAN   c_v-19
 BYTE   W01
 BYTE   PAN   c_v-20
 BYTE   W02
 BYTE   PAN   c_v-21
 BYTE   W01
 BYTE   PAN   c_v-22
 BYTE   W02
 BYTE   PAN   c_v-23
 BYTE   W01
 BYTE   PAN   c_v-24
 BYTE   N12  En3
 BYTE   W02
 BYTE   PAN   c_v-25
 BYTE   W01
 BYTE   PAN   c_v-26
 BYTE   W02
 BYTE   PAN   c_v-27
 BYTE   W01
 BYTE   PAN   c_v-28
 BYTE   W02
 BYTE   PAN   c_v-29
 BYTE   W01
 BYTE   PAN   c_v-30
 BYTE   W02
 BYTE   PAN   c_v-31
 BYTE   W01
 BYTE   PAN   c_v-32
 BYTE   N12  Bn3
 BYTE   W02
 BYTE   PAN   c_v-33
 BYTE   W01
 BYTE   PAN   c_v-34
 BYTE   W02
 BYTE   PAN   c_v-35
 BYTE   W01
 BYTE   PAN   c_v-36
 BYTE   W02
 BYTE   PAN   c_v-37
 BYTE   W01
 BYTE   PAN   c_v-38
 BYTE   W02
 BYTE   PAN   c_v-39
 BYTE   W01
 BYTE   PAN   c_v-40
 BYTE   N12  En4
 BYTE   W01
 BYTE   PAN   c_v-40
 BYTE   W01
 BYTE   PAN   c_v-39
 BYTE   W01
 BYTE   PAN   c_v-38
 BYTE   W01
 BYTE   PAN   c_v-37
 BYTE   W01
 BYTE   PAN   c_v-36
 BYTE   W01
 BYTE   PAN   c_v-35
 BYTE   W01
 BYTE   PAN   c_v-34
 BYTE   W01
 BYTE   PAN   c_v-33
 BYTE   W01
 BYTE   PAN   c_v-31
 BYTE   W01
 BYTE   PAN   c_v-30
 BYTE   W01
 BYTE   PAN   c_v-29
 BYTE   W01
 BYTE   PAN   c_v-28
 BYTE   N12  En3
 BYTE   W01
 BYTE   PAN   c_v-27
 BYTE   W01
 BYTE   PAN   c_v-26
 BYTE   W01
 BYTE   PAN   c_v-25
 BYTE   W01
 BYTE   PAN   c_v-24
 BYTE   W01
 BYTE   PAN   c_v-23
 BYTE   W01
 BYTE   PAN   c_v-21
 BYTE   W01
 BYTE   PAN   c_v-20
 BYTE   W01
 BYTE   PAN   c_v-19
 BYTE   W01
 BYTE   PAN   c_v-18
 BYTE   W01
 BYTE   PAN   c_v-17
 BYTE   W01
 BYTE   PAN   c_v-16
 BYTE   W01
 BYTE   PAN   c_v-15
 BYTE   N12  Bn3
 BYTE   W01
 BYTE   PAN   c_v-14
 BYTE   W01
 BYTE   PAN   c_v-13
 BYTE   W01
 BYTE   PAN   c_v-11
 BYTE   W01
 BYTE   PAN   c_v-10
 BYTE   W01
//  #03 //203   ----------------------------------------
 BYTE   PATT
  POIN2 Label_012C372F
//  #03 //204   ----------------------------------------
 BYTE   PATT
  POIN2 Label_012C37E6
//  #03 //205   ----------------------------------------
 BYTE   PATT
  POIN2 Label_012C388B
//  #03 //206   ----------------------------------------
 BYTE   PATT
  POIN2 Label_012C3946
//  #03 //207   ----------------------------------------
 BYTE   PATT
  POIN2 Label_012C39F1
//  #03 //208   ----------------------------------------
 BYTE   PATT
  POIN2 Label_012C3AAC
//  #03 //209   ----------------------------------------
 BYTE   PATT
  POIN2 Label_012C388B
//  #03 //210   ----------------------------------------
 BYTE   PATT
  POIN2 Label_012C3946
//  #03 //211   ----------------------------------------
 BYTE   PATT
  POIN2 Label_012C39F1
//  #03 //212   ----------------------------------------
 BYTE   PATT
  POIN2 Label_012C3AAC
//  #03 //213   ----------------------------------------
 BYTE   PATT
  POIN2 Label_012C388B
//  #03 //214   ----------------------------------------
 BYTE   PATT
  POIN2 Label_012C3946
//  #03 //215   ----------------------------------------
 BYTE   PATT
  POIN2 Label_012C39F1
//  #03 //216   ----------------------------------------
 BYTE   PATT
  POIN2 Label_012C3AAC
//  #03 //217   ----------------------------------------
 BYTE   PATT
  POIN2 Label_012C388B
//  #03 //218   ----------------------------------------
 BYTE   PAN   c_v+9
 BYTE   W01
 BYTE   PAN   c_v+8
 BYTE   W02
 BYTE   PAN   c_v+7
 BYTE   W01
 BYTE   PAN   c_v+6
 BYTE   W02
 BYTE   PAN   c_v+5
 BYTE   W01
 BYTE   PAN   c_v+0
 BYTE   N12  En3  v100
 BYTE   W02
 BYTE   PAN   c_v-1
 BYTE   W01
 BYTE   PAN   c_v-2
 BYTE   W02
 BYTE   PAN   c_v-3
 BYTE   W01
 BYTE   PAN   c_v-4
 BYTE   W02
 BYTE   PAN   c_v-5
 BYTE   W01
 BYTE   PAN   c_v-6
 BYTE   W02
 BYTE   PAN   c_v-7
 BYTE   W01
 BYTE   PAN   c_v-8
 BYTE   N12  Bn3
 BYTE   W02
 BYTE   PAN   c_v-9
 BYTE   W01
 BYTE   PAN   c_v-10
 BYTE   W02
 BYTE   PAN   c_v-11
 BYTE   W01
 BYTE   PAN   c_v-12
 BYTE   W02
 BYTE   PAN   c_v-13
 BYTE   W01
 BYTE   PAN   c_v-14
 BYTE   W02
 BYTE   PAN   c_v-15
 BYTE   W01
 BYTE   PAN   c_v-16
 BYTE   N12  En4
 BYTE   W02
 BYTE   PAN   c_v-17
 BYTE   W01
 BYTE   PAN   c_v-18
 BYTE   W02
 BYTE   PAN   c_v-19
 BYTE   W01
 BYTE   PAN   c_v-20
 BYTE   W02
 BYTE   PAN   c_v-21
 BYTE   W01
 BYTE   PAN   c_v-22
 BYTE   W02
 BYTE   PAN   c_v-23
 BYTE   W01
 BYTE   PAN   c_v-24
 BYTE   N12  En3
 BYTE   W02
 BYTE   PAN   c_v-25
 BYTE   W01
 BYTE   PAN   c_v-26
 BYTE   W02
 BYTE   PAN   c_v-27
 BYTE   W01
 BYTE   PAN   c_v-28
 BYTE   W02
 BYTE   PAN   c_v-29
 BYTE   W01
 BYTE   PAN   c_v-30
 BYTE   W02
 BYTE   PAN   c_v-31
 BYTE   W01
 BYTE   PAN   c_v-32
 BYTE   N12  Bn3
 BYTE   W02
 BYTE   PAN   c_v-33
 BYTE   W01
 BYTE   PAN   c_v-34
 BYTE   W02
 BYTE   PAN   c_v-35
 BYTE   W01
 BYTE   PAN   c_v-36
 BYTE   W02
 BYTE   PAN   c_v-37
 BYTE   W01
 BYTE   PAN   c_v-38
 BYTE   W02
 BYTE   PAN   c_v-39
 BYTE   W01
 BYTE   PAN   c_v-40
 BYTE   N12  En4
 BYTE   W01
 BYTE   PAN   c_v-40
 BYTE   W01
 BYTE   PAN   c_v-39
 BYTE   W01
 BYTE   PAN   c_v-38
 BYTE   W01
 BYTE   PAN   c_v-37
 BYTE   W01
 BYTE   PAN   c_v-36
 BYTE   W01
 BYTE   PAN   c_v-35
 BYTE   W01
 BYTE   PAN   c_v-34
 BYTE   W01
 BYTE   PAN   c_v-33
 BYTE   W01
 BYTE   PAN   c_v-31
 BYTE   W01
 BYTE   PAN   c_v-30
 BYTE   W01
 BYTE   PAN   c_v-29
 BYTE   W01
 BYTE   PAN   c_v-28
 BYTE   N12  En3
 BYTE   W01
 BYTE   PAN   c_v-27
 BYTE   W01
 BYTE   PAN   c_v-26
 BYTE   W01
 BYTE   PAN   c_v-25
 BYTE   W01
 BYTE   PAN   c_v-24
 BYTE   W01
 BYTE   PAN   c_v-23
 BYTE   W01
 BYTE   PAN   c_v-21
 BYTE   W01
 BYTE   PAN   c_v-20
 BYTE   W01
 BYTE   PAN   c_v-19
 BYTE   W01
 BYTE   PAN   c_v-18
 BYTE   W01
 BYTE   PAN   c_v-17
 BYTE   W01
 BYTE   PAN   c_v-16
 BYTE   W01
 BYTE   PAN   c_v-15
 BYTE   N12  Bn3
 BYTE   W01
 BYTE   PAN   c_v-14
 BYTE   W01
 BYTE   PAN   c_v-13
 BYTE   W01
 BYTE   PAN   c_v-11
 BYTE   W01
 BYTE   PAN   c_v-10
 BYTE   W01
//  #03 //219   ----------------------------------------
 BYTE   GoTo
  POIN2 Label_012C3686
//  #03 //220   ----------------------------------------
 BYTE   PAN   c_v-9
 BYTE   W01
 BYTE   PAN   c_v-8
 BYTE   W01
 BYTE   PAN   c_v-7
 BYTE   W01
 BYTE   PAN   c_v-6
 BYTE   W01
 BYTE   PAN   c_v-5
 BYTE   W01
 BYTE   PAN   c_v-4
 BYTE   W01
 BYTE   PAN   c_v-3
 BYTE   W01
 BYTE   PAN   c_v-1
 BYTE   N12  En4  v100
 BYTE   W01
 BYTE   PAN   c_v+0
 BYTE   W01
 BYTE   PAN   c_v+1
 BYTE   W01
 BYTE   PAN   c_v+2
 BYTE   W01
 BYTE   PAN   c_v+3
 BYTE   W01
 BYTE   PAN   c_v+4
 BYTE   W01
 BYTE   PAN   c_v+5
 BYTE   W01
 BYTE   PAN   c_v+6
 BYTE   W01
 BYTE   PAN   c_v+7
 BYTE   W01
 BYTE   PAN   c_v+9
 BYTE   W01
 BYTE   PAN   c_v+10
 BYTE   W01
 BYTE   PAN   c_v+11
 BYTE   W01
 BYTE   PAN   c_v+12
 BYTE   N12  En3
 BYTE   W01
 BYTE   PAN   c_v+13
 BYTE   W01
 BYTE   PAN   c_v+14
 BYTE   W01
 BYTE   PAN   c_v+15
 BYTE   W01
 BYTE   PAN   c_v+16
 BYTE   W01
 BYTE   PAN   c_v+17
 BYTE   W01
 BYTE   PAN   c_v+19
 BYTE   W01
 BYTE   PAN   c_v+20
 BYTE   W01
 BYTE   PAN   c_v+21
 BYTE   W01
 BYTE   PAN   c_v+22
 BYTE   W01
 BYTE   PAN   c_v+23
 BYTE   W01
 BYTE   PAN   c_v+24
 BYTE   W01
 BYTE   PAN   c_v+25
 BYTE   N12  Bn3
 BYTE   W01
 BYTE   PAN   c_v+26
 BYTE   W01
 BYTE   PAN   c_v+27
 BYTE   W01
 BYTE   PAN   c_v+29
 BYTE   W01
 BYTE   PAN   c_v+30
 BYTE   W01
 BYTE   PAN   c_v+31
 BYTE   W01
 BYTE   PAN   c_v+32
 BYTE   W01
 BYTE   PAN   c_v+33
 BYTE   W01
 BYTE   PAN   c_v+34
 BYTE   W01
 BYTE   PAN   c_v+35
 BYTE   W01
 BYTE   PAN   c_v+36
 BYTE   W01
 BYTE   PAN   c_v+37
 BYTE   W01
 BYTE   PAN   c_v+40
 BYTE   N12  En4
 BYTE   W02
 BYTE   PAN   c_v+39
 BYTE   W01
 BYTE   PAN   c_v+38
 BYTE   W02
 BYTE   PAN   c_v+37
 BYTE   W01
 BYTE   PAN   c_v+36
 BYTE   W02
 BYTE   PAN   c_v+35
 BYTE   W01
 BYTE   PAN   c_v+34
 BYTE   W02
 BYTE   PAN   c_v+33
 BYTE   W01
 BYTE   PAN   c_v+32
 BYTE   N12  En3
 BYTE   W02
 BYTE   PAN   c_v+31
 BYTE   W01
 BYTE   PAN   c_v+30
 BYTE   W02
 BYTE   PAN   c_v+29
 BYTE   W01
 BYTE   PAN   c_v+28
 BYTE   W02
 BYTE   PAN   c_v+27
 BYTE   W01
 BYTE   PAN   c_v+26
 BYTE   W02
 BYTE   PAN   c_v+25
 BYTE   W01
 BYTE   PAN   c_v+24
 BYTE   N12  Bn3
 BYTE   W02
 BYTE   PAN   c_v+23
 BYTE   W01
 BYTE   PAN   c_v+22
 BYTE   W02
 BYTE   PAN   c_v+21
 BYTE   W01
 BYTE   PAN   c_v+20
 BYTE   W02
 BYTE   PAN   c_v+19
 BYTE   W01
 BYTE   PAN   c_v+18
 BYTE   W02
 BYTE   PAN   c_v+17
 BYTE   W01
 BYTE   PAN   c_v+16
 BYTE   N12  En4
 BYTE   W02
 BYTE   PAN   c_v+15
 BYTE   W01
 BYTE   PAN   c_v+14
 BYTE   W02
 BYTE   PAN   c_v+13
 BYTE   W01
 BYTE   PAN   c_v+12
 BYTE   W02
 BYTE   PAN   c_v+11
 BYTE   W01
 BYTE   PAN   c_v+10
 BYTE   W02
 BYTE   PAN   c_v+9
 BYTE   W01
 BYTE   PAN   c_v+8
 BYTE   N12  Bn3
 BYTE   W02
 BYTE   PAN   c_v+7
 BYTE   W01
 BYTE   PAN   c_v+6
 BYTE   W02
//  #03 //221   ----------------------------------------
 BYTE   PAN   c_v+5
 BYTE   W01
 BYTE   PAN   c_v+4
 BYTE   W02
 BYTE   PAN   c_v+3
 BYTE   W01
 BYTE   PAN   c_v+2
 BYTE   W02
 BYTE   PAN   c_v+1
 BYTE   W01
 BYTE   PAN   c_v+0
 BYTE   N12  Dn3
 BYTE   W06
 BYTE   PAN   c_v+0
 BYTE   W02
 BYTE   PAN   c_v-1
 BYTE   W01
 BYTE   PAN   c_v-2
 BYTE   W02
 BYTE   PAN   c_v-3
 BYTE   W01
 BYTE   PAN   c_v-4
 BYTE   N12  An3
 BYTE   W02
 BYTE   PAN   c_v-5
 BYTE   W01
 BYTE   PAN   c_v-6
 BYTE   W02
 BYTE   PAN   c_v-7
 BYTE   W01
 BYTE   PAN   c_v-8
 BYTE   W02
 BYTE   PAN   c_v-9
 BYTE   W01
 BYTE   PAN   c_v-10
 BYTE   W02
 BYTE   PAN   c_v-11
 BYTE   W01
 BYTE   PAN   c_v-12
 BYTE   N12  Dn4
 BYTE   W02
 BYTE   PAN   c_v-13
 BYTE   W01
 BYTE   PAN   c_v-14
 BYTE   W02
 BYTE   PAN   c_v-15
 BYTE   W01
 BYTE   PAN   c_v-16
 BYTE   W02
 BYTE   PAN   c_v-17
 BYTE   W01
 BYTE   PAN   c_v-18
 BYTE   W02
 BYTE   PAN   c_v-19
 BYTE   W01
 BYTE   PAN   c_v-20
 BYTE   N12  Dn3
 BYTE   W02
 BYTE   PAN   c_v-21
 BYTE   W01
 BYTE   PAN   c_v-22
 BYTE   W02
 BYTE   PAN   c_v-23
 BYTE   W01
 BYTE   PAN   c_v-24
 BYTE   W02
 BYTE   PAN   c_v-25
 BYTE   W01
 BYTE   PAN   c_v-26
 BYTE   W02
 BYTE   PAN   c_v-27
 BYTE   W01
 BYTE   PAN   c_v-28
 BYTE   N12  An3
 BYTE   W02
 BYTE   PAN   c_v-29
 BYTE   W01
 BYTE   PAN   c_v-30
 BYTE   W02
 BYTE   PAN   c_v-31
 BYTE   W01
 BYTE   PAN   c_v-32
 BYTE   W02
 BYTE   PAN   c_v-33
 BYTE   W01
 BYTE   PAN   c_v-34
 BYTE   W02
 BYTE   PAN   c_v-35
 BYTE   W01
 BYTE   PAN   c_v-36
 BYTE   N12  Dn4
 BYTE   W02
 BYTE   PAN   c_v-37
 BYTE   W01
 BYTE   PAN   c_v-38
 BYTE   W02
 BYTE   PAN   c_v-39
 BYTE   W01
 BYTE   PAN   c_v-40
 BYTE   W01
 BYTE   PAN   c_v-40
 BYTE   W01
 BYTE   PAN   c_v-39
 BYTE   W01
 BYTE   PAN   c_v-38
 BYTE   W01
 BYTE   PAN   c_v-37
 BYTE   W01
 BYTE   PAN   c_v-36
 BYTE   W01
 BYTE   PAN   c_v-35
 BYTE   N12  Dn3
 BYTE   W01
 BYTE   PAN   c_v-34
 BYTE   W01
 BYTE   PAN   c_v-33
 BYTE   W01
 BYTE   PAN   c_v-31
 BYTE   W01
 BYTE   PAN   c_v-30
 BYTE   W01
 BYTE   PAN   c_v-29
 BYTE   W01
 BYTE   PAN   c_v-28
 BYTE   W01
 BYTE   PAN   c_v-27
 BYTE   W01
 BYTE   PAN   c_v-26
 BYTE   W01
 BYTE   PAN   c_v-25
 BYTE   W01
 BYTE   PAN   c_v-24
 BYTE   W01
 BYTE   PAN   c_v-23
 BYTE   W01
 BYTE   PAN   c_v-21
 BYTE   N12  An3
 BYTE   W01
 BYTE   PAN   c_v-20
 BYTE   W01
 BYTE   PAN   c_v-19
 BYTE   W01
 BYTE   PAN   c_v-18
 BYTE   W01
 BYTE   PAN   c_v-17
 BYTE   W01
//  #03 //222   ----------------------------------------
 BYTE   PAN   c_v-16
 BYTE   W01
 BYTE   PAN   c_v-15
 BYTE   W01
 BYTE   PAN   c_v-14
 BYTE   W01
 BYTE   PAN   c_v-13
 BYTE   W01
 BYTE   PAN   c_v-11
 BYTE   W01
 BYTE   PAN   c_v-10
 BYTE   W01
 BYTE   PAN   c_v-9
 BYTE   W01
 BYTE   PAN   c_v-8
 BYTE   N12  Dn4
 BYTE   W01
 BYTE   PAN   c_v-7
 BYTE   W01
 BYTE   PAN   c_v-6
 BYTE   W01
 BYTE   PAN   c_v-5
 BYTE   W01
 BYTE   PAN   c_v-4
 BYTE   W01
 BYTE   PAN   c_v-3
 BYTE   W01
 BYTE   PAN   c_v-1
 BYTE   W01
 BYTE   PAN   c_v+0
 BYTE   W01
 BYTE   PAN   c_v+1
 BYTE   W01
 BYTE   PAN   c_v+2
 BYTE   W01
 BYTE   PAN   c_v+3
 BYTE   W01
 BYTE   PAN   c_v+4
 BYTE   W01
 BYTE   PAN   c_v+5
 BYTE   N12  Dn3
 BYTE   W01
 BYTE   PAN   c_v+6
 BYTE   W01
 BYTE   PAN   c_v+7
 BYTE   W01
 BYTE   PAN   c_v+9
 BYTE   W01
 BYTE   PAN   c_v+10
 BYTE   W01
 BYTE   PAN   c_v+11
 BYTE   W01
 BYTE   PAN   c_v+12
 BYTE   W01
 BYTE   PAN   c_v+13
 BYTE   W01
 BYTE   PAN   c_v+14
 BYTE   W01
 BYTE   PAN   c_v+15
 BYTE   W01
 BYTE   PAN   c_v+16
 BYTE   W01
 BYTE   PAN   c_v+17
 BYTE   W01
 BYTE   PAN   c_v+19
 BYTE   N12  An3
 BYTE   W01
 BYTE   PAN   c_v+20
 BYTE   W01
 BYTE   PAN   c_v+21
 BYTE   W01
 BYTE   PAN   c_v+22
 BYTE   W01
 BYTE   PAN   c_v+23
 BYTE   W01
 BYTE   PAN   c_v+24
 BYTE   W01
 BYTE   PAN   c_v+25
 BYTE   W01
 BYTE   PAN   c_v+26
 BYTE   W01
 BYTE   PAN   c_v+27
 BYTE   W01
 BYTE   PAN   c_v+29
 BYTE   W01
 BYTE   PAN   c_v+30
 BYTE   W01
 BYTE   PAN   c_v+31
 BYTE   W01
 BYTE   PAN   c_v+32
 BYTE   N12  Dn4
 BYTE   W01
 BYTE   PAN   c_v+33
 BYTE   W01
 BYTE   PAN   c_v+34
 BYTE   W01
 BYTE   PAN   c_v+35
 BYTE   W01
 BYTE   PAN   c_v+36
 BYTE   W01
 BYTE   PAN   c_v+37
 BYTE   W01
 BYTE   PAN   c_v+40
 BYTE   W02
 BYTE   PAN   c_v+39
 BYTE   W01
 BYTE   PAN   c_v+38
 BYTE   W02
 BYTE   PAN   c_v+37
 BYTE   W01
 BYTE   PAN   c_v+36
 BYTE   N12  Dn3
 BYTE   W02
 BYTE   PAN   c_v+35
 BYTE   W01
 BYTE   PAN   c_v+34
 BYTE   W02
 BYTE   PAN   c_v+33
 BYTE   W01
 BYTE   PAN   c_v+32
 BYTE   W02
 BYTE   PAN   c_v+31
 BYTE   W01
 BYTE   PAN   c_v+30
 BYTE   W02
 BYTE   PAN   c_v+29
 BYTE   W01
 BYTE   PAN   c_v+28
 BYTE   N12  An3
 BYTE   W02
 BYTE   PAN   c_v+27
 BYTE   W01
 BYTE   PAN   c_v+26
 BYTE   W02
 BYTE   PAN   c_v+25
 BYTE   W01
 BYTE   PAN   c_v+24
 BYTE   W02
 BYTE   PAN   c_v+23
 BYTE   W01
 BYTE   PAN   c_v+22
 BYTE   W02
 BYTE   PAN   c_v+21
 BYTE   W01
 BYTE   PAN   c_v+20
 BYTE   N12  Cn4
 BYTE   W02
 BYTE   PAN   c_v+19
 BYTE   W01
 BYTE   PAN   c_v+18
 BYTE   W02
 BYTE   PAN   c_v+17
 BYTE   W01
 BYTE   PAN   c_v+16
 BYTE   W02
 BYTE   PAN   c_v+15
 BYTE   W01
 BYTE   PAN   c_v+14
 BYTE   W02
 BYTE   PAN   c_v+13
 BYTE   W01
 BYTE   PAN   c_v+12
 BYTE   N12  Dn4
 BYTE   W02
 BYTE   PAN   c_v+11
 BYTE   W01
 BYTE   PAN   c_v+10
 BYTE   W02
//  #03 //223   ----------------------------------------
 BYTE   PAN   c_v+9
 BYTE   W01
 BYTE   PAN   c_v+8
 BYTE   W02
 BYTE   PAN   c_v+7
 BYTE   W01
 BYTE   PAN   c_v+6
 BYTE   W02
 BYTE   PAN   c_v+5
 BYTE   W01
 BYTE   PAN   c_v+4
 BYTE   VOL   45*SplashWave_mvl/mxv
 BYTE   N12  En3
 BYTE   W02
 BYTE   PAN   c_v+3
 BYTE   W01
 BYTE   PAN   c_v+2
 BYTE   W02
 BYTE   PAN   c_v+1
 BYTE   W01
 BYTE   PAN   c_v+0
 BYTE   W02
 BYTE   PAN   c_v-1
 BYTE   W01
 BYTE   PAN   c_v-2
 BYTE   W02
 BYTE   PAN   c_v-3
 BYTE   W01
 BYTE   PAN   c_v-4
 BYTE   N12  Bn3
 BYTE   W02
 BYTE   PAN   c_v-5
 BYTE   W01
 BYTE   PAN   c_v-6
 BYTE   W01
 BYTE   VOL   44*SplashWave_mvl/mxv
 BYTE   W01
 BYTE   PAN   c_v-7
 BYTE   W01
 BYTE   PAN   c_v-8
 BYTE   W02
 BYTE   PAN   c_v-9
 BYTE   W01
 BYTE   PAN   c_v-10
 BYTE   W02
 BYTE   PAN   c_v-11
 BYTE   W01
 BYTE   PAN   c_v-12
 BYTE   N12  En4
 BYTE   W02
 BYTE   PAN   c_v-13
 BYTE   W01
 BYTE   PAN   c_v-14
 BYTE   W02
 BYTE   PAN   c_v-15
 BYTE   W01
 BYTE   PAN   c_v-16
 BYTE   W02
 BYTE   PAN   c_v-17
 BYTE   VOL   44*SplashWave_mvl/mxv
 BYTE   W01
 BYTE   PAN   c_v-18
 BYTE   W02
 BYTE   PAN   c_v-19
 BYTE   W01
 BYTE   PAN   c_v-20
 BYTE   N12  En3
 BYTE   W02
 BYTE   PAN   c_v-21
 BYTE   W01
 BYTE   PAN   c_v-22
 BYTE   W02
 BYTE   PAN   c_v-23
 BYTE   W01
 BYTE   PAN   c_v-24
 BYTE   W02
 BYTE   PAN   c_v-25
 BYTE   W01
 BYTE   PAN   c_v-26
 BYTE   W02
 BYTE   PAN   c_v-27
 BYTE   W01
 BYTE   PAN   c_v-28
 BYTE   VOL   43*SplashWave_mvl/mxv
 BYTE   N12  Bn3
 BYTE   W02
 BYTE   PAN   c_v-29
 BYTE   W01
 BYTE   PAN   c_v-30
 BYTE   W02
 BYTE   PAN   c_v-31
 BYTE   W01
 BYTE   PAN   c_v-32
 BYTE   W02
 BYTE   PAN   c_v-33
 BYTE   W01
 BYTE   PAN   c_v-34
 BYTE   W02
 BYTE   PAN   c_v-35
 BYTE   W01
 BYTE   PAN   c_v-36
 BYTE   N12  En4
 BYTE   W02
 BYTE   PAN   c_v-37
 BYTE   W01
 BYTE   PAN   c_v-38
 BYTE   W01
 BYTE   VOL   42*SplashWave_mvl/mxv
 BYTE   W01
 BYTE   PAN   c_v-39
 BYTE   W01
 BYTE   PAN   c_v-40
 BYTE   W01
 BYTE   PAN   c_v-40
 BYTE   W01
 BYTE   PAN   c_v-39
 BYTE   W01
 BYTE   PAN   c_v-38
 BYTE   W01
 BYTE   PAN   c_v-37
 BYTE   W01
 BYTE   PAN   c_v-36
 BYTE   W01
 BYTE   PAN   c_v-35
 BYTE   N12  En3
 BYTE   W01
 BYTE   PAN   c_v-34
 BYTE   W01
 BYTE   PAN   c_v-33
 BYTE   W01
 BYTE   PAN   c_v-31
 BYTE   W01
 BYTE   PAN   c_v-30
 BYTE   W01
 BYTE   PAN   c_v-29
 BYTE   W01
 BYTE   PAN   c_v-28
 BYTE   W01
 BYTE   PAN   c_v-27
 BYTE   W01
 BYTE   PAN   c_v-26
 BYTE   VOL   42*SplashWave_mvl/mxv
 BYTE   W01
 BYTE   PAN   c_v-25
 BYTE   W01
 BYTE   PAN   c_v-24
 BYTE   W01
 BYTE   PAN   c_v-23
 BYTE   W01
 BYTE   PAN   c_v-21
 BYTE   N12  Bn3
 BYTE   W01
 BYTE   PAN   c_v-20
 BYTE   W01
 BYTE   PAN   c_v-19
 BYTE   W01
 BYTE   PAN   c_v-18
 BYTE   W01
 BYTE   PAN   c_v-17
 BYTE   W01
//  #03 //224   ----------------------------------------
 BYTE   PAN   c_v-16
 BYTE   W01
 BYTE   PAN   c_v-15
 BYTE   W01
 BYTE   PAN   c_v-14
 BYTE   W01
 BYTE   PAN   c_v-13
 BYTE   W01
 BYTE   PAN   c_v-11
 BYTE   W01
 BYTE   PAN   c_v-10
 BYTE   W01
 BYTE   PAN   c_v-9
 BYTE   W01
 BYTE   PAN   c_v-8
 BYTE   VOL   41*SplashWave_mvl/mxv
 BYTE   N12  En4
 BYTE   W01
 BYTE   PAN   c_v-7
 BYTE   W01
 BYTE   PAN   c_v-6
 BYTE   W01
 BYTE   PAN   c_v-5
 BYTE   W01
 BYTE   PAN   c_v-4
 BYTE   W01
 BYTE   PAN   c_v-3
 BYTE   W01
 BYTE   PAN   c_v-1
 BYTE   W01
 BYTE   PAN   c_v+0
 BYTE   W01
 BYTE   PAN   c_v+1
 BYTE   W01
 BYTE   PAN   c_v+2
 BYTE   W01
 BYTE   PAN   c_v+3
 BYTE   W01
 BYTE   PAN   c_v+4
 BYTE   W01
 BYTE   PAN   c_v+5
 BYTE   N12  En3
 BYTE   W01
 BYTE   PAN   c_v+6
 BYTE   W01
 BYTE   PAN   c_v+7
 BYTE   W01
 BYTE   PAN   c_v+9
 BYTE   W01
 BYTE   PAN   c_v+10
 BYTE   VOL   40*SplashWave_mvl/mxv
 BYTE   W01
 BYTE   PAN   c_v+11
 BYTE   W01
 BYTE   PAN   c_v+12
 BYTE   W01
 BYTE   PAN   c_v+13
 BYTE   W01
 BYTE   PAN   c_v+14
 BYTE   W01
 BYTE   PAN   c_v+15
 BYTE   W01
 BYTE   PAN   c_v+16
 BYTE   W01
 BYTE   PAN   c_v+17
 BYTE   W01
 BYTE   PAN   c_v+19
 BYTE   N12  Bn3
 BYTE   W01
 BYTE   PAN   c_v+20
 BYTE   W01
 BYTE   PAN   c_v+21
 BYTE   W01
 BYTE   PAN   c_v+22
 BYTE   W01
 BYTE   PAN   c_v+23
 BYTE   W01
 BYTE   PAN   c_v+24
 BYTE   W01
 BYTE   PAN   c_v+25
 BYTE   W01
 BYTE   PAN   c_v+26
 BYTE   W01
 BYTE   PAN   c_v+27
 BYTE   VOL   40*SplashWave_mvl/mxv
 BYTE   W01
 BYTE   PAN   c_v+29
 BYTE   W01
 BYTE   PAN   c_v+30
 BYTE   W01
 BYTE   PAN   c_v+31
 BYTE   W01
 BYTE   PAN   c_v+32
 BYTE   N12  En4
 BYTE   W01
 BYTE   PAN   c_v+33
 BYTE   W01
 BYTE   PAN   c_v+34
 BYTE   W01
 BYTE   PAN   c_v+35
 BYTE   W01
 BYTE   PAN   c_v+36
 BYTE   W01
 BYTE   PAN   c_v+37
 BYTE   W01
 BYTE   PAN   c_v+40
 BYTE   W02
 BYTE   PAN   c_v+39
 BYTE   W01
 BYTE   PAN   c_v+38
 BYTE   W02
 BYTE   PAN   c_v+37
 BYTE   W01
 BYTE   PAN   c_v+36
 BYTE   VOL   39*SplashWave_mvl/mxv
 BYTE   N12  En3
 BYTE   W02
 BYTE   PAN   c_v+35
 BYTE   W01
 BYTE   PAN   c_v+34
 BYTE   W02
 BYTE   PAN   c_v+33
 BYTE   W01
 BYTE   PAN   c_v+32
 BYTE   W02
 BYTE   PAN   c_v+31
 BYTE   W01
 BYTE   PAN   c_v+30
 BYTE   W02
 BYTE   PAN   c_v+29
 BYTE   W01
 BYTE   PAN   c_v+28
 BYTE   N12  Bn3
 BYTE   W02
 BYTE   PAN   c_v+27
 BYTE   W01
 BYTE   PAN   c_v+26
 BYTE   W01
 BYTE   VOL   39*SplashWave_mvl/mxv
 BYTE   W01
 BYTE   PAN   c_v+25
 BYTE   W01
 BYTE   PAN   c_v+24
 BYTE   W02
 BYTE   PAN   c_v+23
 BYTE   W01
 BYTE   PAN   c_v+22
 BYTE   W02
 BYTE   PAN   c_v+21
 BYTE   W01
 BYTE   PAN   c_v+20
 BYTE   N12  En4
 BYTE   W02
 BYTE   PAN   c_v+19
 BYTE   W01
 BYTE   PAN   c_v+18
 BYTE   W02
 BYTE   PAN   c_v+17
 BYTE   W01
 BYTE   PAN   c_v+16
 BYTE   W02
 BYTE   PAN   c_v+15
 BYTE   VOL   38*SplashWave_mvl/mxv
 BYTE   W01
 BYTE   PAN   c_v+14
 BYTE   W02
 BYTE   PAN   c_v+13
 BYTE   W01
 BYTE   PAN   c_v+12
 BYTE   N12  Bn3
 BYTE   W02
 BYTE   PAN   c_v+11
 BYTE   W01
 BYTE   PAN   c_v+10
 BYTE   W02
//  #03 //225   ----------------------------------------
 BYTE   PAN   c_v+9
 BYTE   W01
 BYTE   PAN   c_v+8
 BYTE   W02
 BYTE   PAN   c_v+7
 BYTE   W01
 BYTE   PAN   c_v+6
 BYTE   W02
 BYTE   PAN   c_v+5
 BYTE   W01
 BYTE   PAN   c_v+4
 BYTE   VOL   37*SplashWave_mvl/mxv
 BYTE   N12  Dn3
 BYTE   W02
 BYTE   PAN   c_v+3
 BYTE   W01
 BYTE   PAN   c_v+2
 BYTE   W02
 BYTE   PAN   c_v+1
 BYTE   W01
 BYTE   PAN   c_v+0
 BYTE   W02
 BYTE   PAN   c_v-1
 BYTE   W01
 BYTE   PAN   c_v-2
 BYTE   W02
 BYTE   PAN   c_v-3
 BYTE   W01
 BYTE   PAN   c_v-4
 BYTE   N12  An3
 BYTE   W02
 BYTE   PAN   c_v-5
 BYTE   W01
 BYTE   PAN   c_v-6
 BYTE   W01
 BYTE   VOL   37*SplashWave_mvl/mxv
 BYTE   W01
 BYTE   PAN   c_v-7
 BYTE   W01
 BYTE   PAN   c_v-8
 BYTE   W02
 BYTE   PAN   c_v-9
 BYTE   W01
 BYTE   PAN   c_v-10
 BYTE   W01
 BYTE   W01
 BYTE   PAN   c_v-11
 BYTE   W01
 BYTE   PAN   c_v-12
 BYTE   N12  Dn4
 BYTE   W02
 BYTE   PAN   c_v-13
 BYTE   W01
 BYTE   PAN   c_v-14
 BYTE   W02
 BYTE   PAN   c_v-15
 BYTE   W01
 BYTE   PAN   c_v-16
 BYTE   W02
 BYTE   PAN   c_v-17
 BYTE   VOL   36*SplashWave_mvl/mxv
 BYTE   W01
 BYTE   PAN   c_v-18
 BYTE   W02
 BYTE   PAN   c_v-19
 BYTE   W01
 BYTE   PAN   c_v-20
 BYTE   N12  Dn3
 BYTE   W02
 BYTE   PAN   c_v-21
 BYTE   W01
 BYTE   PAN   c_v-22
 BYTE   W02
 BYTE   PAN   c_v-23
 BYTE   W01
 BYTE   PAN   c_v-24
 BYTE   W01
 BYTE   W01
 BYTE   PAN   c_v-25
 BYTE   W01
 BYTE   PAN   c_v-26
 BYTE   W02
 BYTE   PAN   c_v-27
 BYTE   W01
 BYTE   PAN   c_v-28
 BYTE   VOL   35*SplashWave_mvl/mxv
 BYTE   N12  An3
 BYTE   W02
 BYTE   PAN   c_v-29
 BYTE   W01
 BYTE   PAN   c_v-30
 BYTE   W02
 BYTE   PAN   c_v-31
 BYTE   W01
 BYTE   PAN   c_v-32
 BYTE   W02
 BYTE   PAN   c_v-33
 BYTE   W01
 BYTE   PAN   c_v-34
 BYTE   W02
 BYTE   PAN   c_v-35
 BYTE   W01
 BYTE   PAN   c_v-36
 BYTE   N12  Dn4
 BYTE   W02
 BYTE   PAN   c_v-37
 BYTE   W01
 BYTE   PAN   c_v-38
 BYTE   W01
 BYTE   VOL   35*SplashWave_mvl/mxv
 BYTE   W01
 BYTE   PAN   c_v-39
 BYTE   W01
 BYTE   PAN   c_v-40
 BYTE   W01
 BYTE   PAN   c_v-40
 BYTE   W01
 BYTE   PAN   c_v-39
 BYTE   W01
 BYTE   PAN   c_v-38
 BYTE   W01
 BYTE   PAN   c_v-37
 BYTE   W01
 BYTE   PAN   c_v-36
 BYTE   W01
 BYTE   PAN   c_v-35
 BYTE   N12  Dn3
 BYTE   W01
 BYTE   PAN   c_v-34
 BYTE   W01
 BYTE   PAN   c_v-33
 BYTE   W01
 BYTE   PAN   c_v-31
 BYTE   W01
 BYTE   PAN   c_v-30
 BYTE   W01
 BYTE   PAN   c_v-29
 BYTE   W01
 BYTE   PAN   c_v-28
 BYTE   W01
 BYTE   PAN   c_v-27
 BYTE   W01
 BYTE   PAN   c_v-26
 BYTE   VOL   34*SplashWave_mvl/mxv
 BYTE   W01
 BYTE   PAN   c_v-25
 BYTE   W01
 BYTE   PAN   c_v-24
 BYTE   W01
 BYTE   PAN   c_v-23
 BYTE   W01
 BYTE   PAN   c_v-21
 BYTE   N12  An3
 BYTE   W01
 BYTE   PAN   c_v-20
 BYTE   W01
 BYTE   PAN   c_v-19
 BYTE   W01
 BYTE   PAN   c_v-18
 BYTE   W01
 BYTE   PAN   c_v-17
 BYTE   W01
//  #03 //226   ----------------------------------------
 BYTE   PAN   c_v-16
 BYTE   W01
 BYTE   PAN   c_v-15
 BYTE   W01
 BYTE   PAN   c_v-14
 BYTE   W01
 BYTE   PAN   c_v-13
 BYTE   W01
 BYTE   En2  v053
 BYTE   W01
 BYTE   PAN   c_v-10
 BYTE   W01
 BYTE   PAN   c_v-9
 BYTE   W01
 BYTE   PAN   c_v-8
 BYTE   VOL   34*SplashWave_mvl/mxv
 BYTE   N12  Dn4
 BYTE   W01
 BYTE   PAN   c_v-7
 BYTE   W01
 BYTE   PAN   c_v-6
 BYTE   W01
 BYTE   PAN   c_v-5
 BYTE   W01
 BYTE   PAN   c_v-4
 BYTE   W01
 BYTE   PAN   c_v-3
 BYTE   W01
 BYTE   PAN   c_v-1
 BYTE   W01
 BYTE   PAN   c_v+0
 BYTE   W01
 BYTE   PAN   c_v+1
 BYTE   W01
 BYTE   PAN   c_v+2
 BYTE   W01
 BYTE   PAN   c_v+3
 BYTE   W01
 BYTE   PAN   c_v+4
 BYTE   W01
 BYTE   PAN   c_v+5
 BYTE   N12  Dn3
 BYTE   W01
 BYTE   PAN   c_v+6
 BYTE   W01
 BYTE   PAN   c_v+7
 BYTE   W01
 BYTE   PAN   c_v+9
 BYTE   W01
 BYTE   PAN   c_v+10
 BYTE   VOL   33*SplashWave_mvl/mxv
 BYTE   W01
 BYTE   PAN   c_v+11
 BYTE   W01
 BYTE   PAN   c_v+12
 BYTE   W01
 BYTE   PAN   c_v+13
 BYTE   W01
 BYTE   PAN   c_v+14
 BYTE   W01
 BYTE   PAN   c_v+15
 BYTE   W01
 BYTE   PAN   c_v+16
 BYTE   W01
 BYTE   PAN   c_v+17
 BYTE   W01
 BYTE   PAN   c_v+19
 BYTE   N12  An3
 BYTE   W01
 BYTE   PAN   c_v+20
 BYTE   W01
 BYTE   PAN   c_v+21
 BYTE   W01
 BYTE   PAN   c_v+22
 BYTE   W01
 BYTE   PAN   c_v+23
 BYTE   W01
 BYTE   PAN   c_v+24
 BYTE   W01
 BYTE   PAN   c_v+25
 BYTE   W01
 BYTE   PAN   c_v+26
 BYTE   W01
 BYTE   PAN   c_v+27
 BYTE   VOL   32*SplashWave_mvl/mxv
 BYTE   W01
 BYTE   PAN   c_v+29
 BYTE   W01
 BYTE   PAN   c_v+30
 BYTE   W01
 BYTE   PAN   c_v+31
 BYTE   W01
 BYTE   PAN   c_v+32
 BYTE   N12  Dn4
 BYTE   W01
 BYTE   PAN   c_v+33
 BYTE   W01
 BYTE   PAN   c_v+34
 BYTE   W01
 BYTE   PAN   c_v+35
 BYTE   W01
 BYTE   PAN   c_v+36
 BYTE   W01
 BYTE   PAN   c_v+37
 BYTE   W01
 BYTE   PAN   c_v+40
 BYTE   W02
 BYTE   PAN   c_v+39
 BYTE   W01
 BYTE   PAN   c_v+38
 BYTE   W02
 BYTE   PAN   c_v+37
 BYTE   W01
 BYTE   PAN   c_v+36
 BYTE   VOL   32*SplashWave_mvl/mxv
 BYTE   N12  Dn3
 BYTE   W02
 BYTE   PAN   c_v+35
 BYTE   W01
 BYTE   PAN   c_v+34
 BYTE   W02
 BYTE   PAN   c_v+33
 BYTE   W01
 BYTE   PAN   c_v+32
 BYTE   W02
 BYTE   PAN   c_v+31
 BYTE   W01
 BYTE   PAN   c_v+30
 BYTE   W02
 BYTE   PAN   c_v+29
 BYTE   W01
 BYTE   PAN   c_v+28
 BYTE   N12  An3
 BYTE   W01
 BYTE   W01
 BYTE   PAN   c_v+27
 BYTE   W01
 BYTE   PAN   c_v+26
 BYTE   W01
 BYTE   VOL   31*SplashWave_mvl/mxv
 BYTE   W01
 BYTE   PAN   c_v+25
 BYTE   W01
 BYTE   PAN   c_v+24
 BYTE   W02
 BYTE   PAN   c_v+23
 BYTE   W01
 BYTE   PAN   c_v+22
 BYTE   W02
 BYTE   PAN   c_v+21
 BYTE   W01
 BYTE   PAN   c_v+20
 BYTE   N12  Cn4
 BYTE   W02
 BYTE   PAN   c_v+19
 BYTE   W01
 BYTE   PAN   c_v+18
 BYTE   W02
 BYTE   PAN   c_v+17
 BYTE   W01
 BYTE   PAN   c_v+16
 BYTE   W02
 BYTE   PAN   c_v+15
 BYTE   VOL   30*SplashWave_mvl/mxv
 BYTE   W01
 BYTE   PAN   c_v+14
 BYTE   W01
 BYTE   W01
 BYTE   PAN   c_v+13
 BYTE   W01
 BYTE   PAN   c_v+12
 BYTE   N12  Dn4
 BYTE   W02
 BYTE   PAN   c_v+11
 BYTE   W01
 BYTE   PAN   c_v+10
 BYTE   W02
//  #03 //227   ----------------------------------------
 BYTE   PAN   c_v+9
 BYTE   W01
 BYTE   PAN   c_v+8
 BYTE   W02
 BYTE   PAN   c_v+7
 BYTE   W01
 BYTE   PAN   c_v+6
 BYTE   W02
 BYTE   PAN   c_v+5
 BYTE   W01
 BYTE   PAN   c_v+4
 BYTE   VOL   30*SplashWave_mvl/mxv
 BYTE   N12  En3
 BYTE   W02
 BYTE   PAN   c_v+3
 BYTE   W01
 BYTE   PAN   c_v+2
 BYTE   W02
 BYTE   PAN   c_v+1
 BYTE   W01
 BYTE   PAN   c_v+0
 BYTE   W02
 BYTE   PAN   c_v-1
 BYTE   W01
 BYTE   PAN   c_v-2
 BYTE   W02
 BYTE   PAN   c_v-3
 BYTE   W01
 BYTE   PAN   c_v-4
 BYTE   N12  Bn3
 BYTE   W02
 BYTE   PAN   c_v-5
 BYTE   W01
 BYTE   PAN   c_v-6
 BYTE   W01
 BYTE   VOL   29*SplashWave_mvl/mxv
 BYTE   W01
 BYTE   PAN   c_v-7
 BYTE   W01
 BYTE   PAN   c_v-8
 BYTE   W02
 BYTE   PAN   c_v-9
 BYTE   W01
 BYTE   PAN   c_v-10
 BYTE   W02
 BYTE   PAN   c_v-11
 BYTE   W01
 BYTE   PAN   c_v-12
 BYTE   N12  En4
 BYTE   W02
 BYTE   PAN   c_v-13
 BYTE   W01
 BYTE   PAN   c_v-14
 BYTE   W02
 BYTE   PAN   c_v-15
 BYTE   W01
 BYTE   PAN   c_v-16
 BYTE   W02
 BYTE   PAN   c_v-17
 BYTE   VOL   28*SplashWave_mvl/mxv
 BYTE   W01
 BYTE   PAN   c_v-18
 BYTE   W02
 BYTE   PAN   c_v-19
 BYTE   W01
 BYTE   PAN   c_v-20
 BYTE   N12  En3
 BYTE   W02
 BYTE   PAN   c_v-21
 BYTE   W01
 BYTE   PAN   c_v-22
 BYTE   W02
 BYTE   PAN   c_v-23
 BYTE   W01
 BYTE   PAN   c_v-24
 BYTE   W02
 BYTE   PAN   c_v-25
 BYTE   W01
 BYTE   PAN   c_v-26
 BYTE   W02
 BYTE   PAN   c_v-27
 BYTE   W01
 BYTE   PAN   c_v-28
 BYTE   VOL   28*SplashWave_mvl/mxv
 BYTE   N12  Bn3
 BYTE   W02
 BYTE   PAN   c_v-29
 BYTE   W01
 BYTE   PAN   c_v-30
 BYTE   W02
 BYTE   PAN   c_v-31
 BYTE   W01
 BYTE   PAN   c_v-32
 BYTE   W02
 BYTE   PAN   c_v-33
 BYTE   W01
 BYTE   PAN   c_v-34
 BYTE   W02
 BYTE   PAN   c_v-35
 BYTE   W01
 BYTE   PAN   c_v-36
 BYTE   N12  En4
 BYTE   W02
 BYTE   PAN   c_v-37
 BYTE   W01
 BYTE   PAN   c_v-38
 BYTE   W01
 BYTE   VOL   27*SplashWave_mvl/mxv
 BYTE   W01
 BYTE   PAN   c_v-39
 BYTE   W01
 BYTE   PAN   c_v-40
 BYTE   W01
 BYTE   PAN   c_v-40
 BYTE   W01
 BYTE   PAN   c_v-39
 BYTE   W01
 BYTE   PAN   c_v-38
 BYTE   W01
 BYTE   PAN   c_v-37
 BYTE   W01
 BYTE   PAN   c_v-36
 BYTE   W01
 BYTE   PAN   c_v-35
 BYTE   N12  En3
 BYTE   W01
 BYTE   PAN   c_v-34
 BYTE   W01
 BYTE   PAN   c_v-33
 BYTE   W01
 BYTE   PAN   c_v-31
 BYTE   W01
 BYTE   PAN   c_v-30
 BYTE   W01
 BYTE   PAN   c_v-29
 BYTE   W01
 BYTE   PAN   c_v-28
 BYTE   W01
 BYTE   PAN   c_v-27
 BYTE   W01
 BYTE   PAN   c_v-26
 BYTE   VOL   27*SplashWave_mvl/mxv
 BYTE   W01
 BYTE   PAN   c_v-25
 BYTE   W01
 BYTE   PAN   c_v-24
 BYTE   W01
 BYTE   PAN   c_v-23
 BYTE   W01
 BYTE   PAN   c_v-21
 BYTE   N12  Bn3
 BYTE   W01
 BYTE   PAN   c_v-20
 BYTE   W01
 BYTE   PAN   c_v-19
 BYTE   W01
 BYTE   PAN   c_v-18
 BYTE   W01
 BYTE   PAN   c_v-17
 BYTE   W01
//  #03 //228   ----------------------------------------
 BYTE   PAN   c_v-16
 BYTE   W01
 BYTE   PAN   c_v-15
 BYTE   W01
 BYTE   PAN   c_v-14
 BYTE   W01
 BYTE   PAN   c_v-13
 BYTE   W01
 BYTE   PAN   c_v-11
 BYTE   W01
 BYTE   PAN   c_v-10
 BYTE   W01
 BYTE   PAN   c_v-9
 BYTE   W01
 BYTE   PAN   c_v-8
 BYTE   VOL   26*SplashWave_mvl/mxv
 BYTE   N12  En4
 BYTE   W01
 BYTE   PAN   c_v-7
 BYTE   W01
 BYTE   PAN   c_v-6
 BYTE   W01
 BYTE   PAN   c_v-5
 BYTE   W01
 BYTE   PAN   c_v-4
 BYTE   W01
 BYTE   PAN   c_v-3
 BYTE   W01
 BYTE   PAN   c_v-1
 BYTE   W01
 BYTE   PAN   c_v+0
 BYTE   W01
 BYTE   PAN   c_v+1
 BYTE   W01
 BYTE   PAN   c_v+2
 BYTE   W01
 BYTE   PAN   c_v+3
 BYTE   W01
 BYTE   PAN   c_v+4
 BYTE   W01
 BYTE   PAN   c_v+5
 BYTE   N12  En3
 BYTE   W01
 BYTE   PAN   c_v+6
 BYTE   W01
 BYTE   PAN   c_v+7
 BYTE   W01
 BYTE   PAN   c_v+9
 BYTE   W01
 BYTE   PAN   c_v+10
 BYTE   VOL   25*SplashWave_mvl/mxv
 BYTE   W01
 BYTE   PAN   c_v+11
 BYTE   W01
 BYTE   PAN   c_v+12
 BYTE   W01
 BYTE   PAN   c_v+13
 BYTE   W01
 BYTE   PAN   c_v+14
 BYTE   W01
 BYTE   PAN   c_v+15
 BYTE   W01
 BYTE   PAN   c_v+16
 BYTE   W01
 BYTE   PAN   c_v+17
 BYTE   W01
 BYTE   PAN   c_v+19
 BYTE   N12  Bn3
 BYTE   W01
 BYTE   PAN   c_v+20
 BYTE   W01
 BYTE   PAN   c_v+21
 BYTE   W01
 BYTE   PAN   c_v+22
 BYTE   W01
 BYTE   PAN   c_v+23
 BYTE   W01
 BYTE   PAN   c_v+24
 BYTE   W01
 BYTE   PAN   c_v+25
 BYTE   W01
 BYTE   PAN   c_v+26
 BYTE   W01
 BYTE   PAN   c_v+27
 BYTE   VOL   25*SplashWave_mvl/mxv
 BYTE   W01
 BYTE   PAN   c_v+29
 BYTE   W01
 BYTE   PAN   c_v+30
 BYTE   W01
 BYTE   PAN   c_v+31
 BYTE   W01
 BYTE   PAN   c_v+32
 BYTE   N12  En4
 BYTE   W01
 BYTE   PAN   c_v+33
 BYTE   W01
 BYTE   PAN   c_v+34
 BYTE   W01
 BYTE   PAN   c_v+35
 BYTE   W01
 BYTE   PAN   c_v+36
 BYTE   W01
 BYTE   PAN   c_v+37
 BYTE   W01
 BYTE   PAN   c_v+40
 BYTE   W02
 BYTE   PAN   c_v+39
 BYTE   W01
 BYTE   PAN   c_v+38
 BYTE   W02
 BYTE   PAN   c_v+37
 BYTE   W01
 BYTE   PAN   c_v+36
 BYTE   VOL   24*SplashWave_mvl/mxv
 BYTE   N12  En3
 BYTE   W02
 BYTE   PAN   c_v+35
 BYTE   W01
 BYTE   PAN   c_v+34
 BYTE   W02
 BYTE   PAN   c_v+33
 BYTE   W01
 BYTE   PAN   c_v+32
 BYTE   W02
 BYTE   PAN   c_v+31
 BYTE   W01
 BYTE   PAN   c_v+30
 BYTE   W02
 BYTE   PAN   c_v+29
 BYTE   W01
 BYTE   PAN   c_v+28
 BYTE   N12  Bn3
 BYTE   W02
 BYTE   PAN   c_v+27
 BYTE   W01
 BYTE   PAN   c_v+26
 BYTE   W01
 BYTE   VOL   23*SplashWave_mvl/mxv
 BYTE   W01
 BYTE   PAN   c_v+25
 BYTE   W01
 BYTE   PAN   c_v+24
 BYTE   W02
 BYTE   PAN   c_v+23
 BYTE   W01
 BYTE   PAN   c_v+22
 BYTE   W02
 BYTE   PAN   c_v+21
 BYTE   W01
 BYTE   PAN   c_v+20
 BYTE   N12  En4
 BYTE   W02
 BYTE   PAN   c_v+19
 BYTE   W01
 BYTE   PAN   c_v+18
 BYTE   W02
 BYTE   PAN   c_v+17
 BYTE   W01
 BYTE   PAN   c_v+16
 BYTE   W02
 BYTE   PAN   c_v+15
 BYTE   VOL   23*SplashWave_mvl/mxv
 BYTE   W01
 BYTE   PAN   c_v+14
 BYTE   W02
 BYTE   PAN   c_v+13
 BYTE   W01
 BYTE   PAN   c_v+12
 BYTE   N12  Bn3
 BYTE   W02
 BYTE   PAN   c_v+11
 BYTE   W01
 BYTE   PAN   c_v+10
 BYTE   W02
//  #03 //229   ----------------------------------------
 BYTE   PAN   c_v+9
 BYTE   W01
 BYTE   PAN   c_v+8
 BYTE   W02
 BYTE   PAN   c_v+7
 BYTE   W01
 BYTE   PAN   c_v+6
 BYTE   W02
 BYTE   PAN   c_v+5
 BYTE   W01
 BYTE   PAN   c_v+4
 BYTE   VOL   22*SplashWave_mvl/mxv
 BYTE   N12  Dn3
 BYTE   W02
 BYTE   PAN   c_v+3
 BYTE   W01
 BYTE   PAN   c_v+2
 BYTE   W02
 BYTE   PAN   c_v+1
 BYTE   W01
 BYTE   PAN   c_v+0
 BYTE   W02
 BYTE   PAN   c_v-1
 BYTE   W01
 BYTE   PAN   c_v-2
 BYTE   W02
 BYTE   PAN   c_v-3
 BYTE   W01
 BYTE   PAN   c_v-4
 BYTE   N12  An3
 BYTE   W02
 BYTE   PAN   c_v-5
 BYTE   W01
 BYTE   PAN   c_v-6
 BYTE   W01
 BYTE   VOL   22*SplashWave_mvl/mxv
 BYTE   W01
 BYTE   PAN   c_v-7
 BYTE   W01
 BYTE   PAN   c_v-8
 BYTE   W02
 BYTE   PAN   c_v-9
 BYTE   W01
 BYTE   PAN   c_v-10
 BYTE   W02
 BYTE   PAN   c_v-11
 BYTE   W01
 BYTE   PAN   c_v-12
 BYTE   N12  Dn4
 BYTE   W02
 BYTE   PAN   c_v-13
 BYTE   W01
 BYTE   PAN   c_v-14
 BYTE   W02
 BYTE   PAN   c_v-15
 BYTE   W01
 BYTE   PAN   c_v-16
 BYTE   W02
 BYTE   PAN   c_v-17
 BYTE   VOL   21*SplashWave_mvl/mxv
 BYTE   W01
 BYTE   PAN   c_v-18
 BYTE   W02
 BYTE   PAN   c_v-19
 BYTE   W01
 BYTE   PAN   c_v-20
 BYTE   N12  Dn3
 BYTE   W02
 BYTE   PAN   c_v-21
 BYTE   W01
 BYTE   PAN   c_v-22
 BYTE   W02
 BYTE   PAN   c_v-23
 BYTE   W01
 BYTE   PAN   c_v-24
 BYTE   W02
 BYTE   PAN   c_v-25
 BYTE   W01
 BYTE   PAN   c_v-26
 BYTE   W02
 BYTE   PAN   c_v-27
 BYTE   W01
 BYTE   PAN   c_v-28
 BYTE   VOL   20*SplashWave_mvl/mxv
 BYTE   N12  An3
 BYTE   W02
 BYTE   PAN   c_v-29
 BYTE   W01
 BYTE   PAN   c_v-30
 BYTE   W02
 BYTE   PAN   c_v-31
 BYTE   W01
 BYTE   PAN   c_v-32
 BYTE   W02
 BYTE   PAN   c_v-33
 BYTE   W01
 BYTE   PAN   c_v-34
 BYTE   W02
 BYTE   PAN   c_v-35
 BYTE   W01
 BYTE   PAN   c_v-36
 BYTE   N12  Dn4
 BYTE   W02
 BYTE   PAN   c_v-37
 BYTE   W01
 BYTE   PAN   c_v-38
 BYTE   W01
 BYTE   VOL   20*SplashWave_mvl/mxv
 BYTE   W01
 BYTE   PAN   c_v-39
 BYTE   W01
 BYTE   PAN   c_v-40
 BYTE   W01
 BYTE   PAN   c_v-40
 BYTE   W01
 BYTE   PAN   c_v-39
 BYTE   W01
 BYTE   PAN   c_v-38
 BYTE   W01
 BYTE   PAN   c_v-37
 BYTE   W01
 BYTE   PAN   c_v-36
 BYTE   W01
 BYTE   PAN   c_v-35
 BYTE   N12  Dn3
 BYTE   W01
 BYTE   PAN   c_v-34
 BYTE   W01
 BYTE   PAN   c_v-33
 BYTE   W01
 BYTE   PAN   c_v-31
 BYTE   W01
 BYTE   PAN   c_v-30
 BYTE   W01
 BYTE   PAN   c_v-29
 BYTE   W01
 BYTE   PAN   c_v-28
 BYTE   W01
 BYTE   PAN   c_v-27
 BYTE   W01
 BYTE   PAN   c_v-26
 BYTE   VOL   19*SplashWave_mvl/mxv
 BYTE   W01
 BYTE   PAN   c_v-25
 BYTE   W01
 BYTE   PAN   c_v-24
 BYTE   W01
 BYTE   PAN   c_v-23
 BYTE   W01
 BYTE   PAN   c_v-21
 BYTE   N12  An3
 BYTE   W01
 BYTE   PAN   c_v-20
 BYTE   W01
 BYTE   PAN   c_v-19
 BYTE   W01
 BYTE   PAN   c_v-18
 BYTE   W01
 BYTE   PAN   c_v-17
 BYTE   W01
//  #03 //230   ----------------------------------------
 BYTE   PAN   c_v-16
 BYTE   W01
 BYTE   PAN   c_v-15
 BYTE   W01
 BYTE   PAN   c_v-14
 BYTE   W01
 BYTE   PAN   c_v-13
 BYTE   W01
 BYTE   PAN   c_v-11
 BYTE   W01
 BYTE   PAN   c_v-10
 BYTE   W01
 BYTE   PAN   c_v-9
 BYTE   W01
 BYTE   PAN   c_v-8
 BYTE   VOL   18*SplashWave_mvl/mxv
 BYTE   N12  Dn4
 BYTE   W01
 BYTE   PAN   c_v-7
 BYTE   W01
 BYTE   PAN   c_v-6
 BYTE   W01
 BYTE   PAN   c_v-5
 BYTE   W01
 BYTE   PAN   c_v-4
 BYTE   W01
 BYTE   PAN   c_v-3
 BYTE   W01
 BYTE   PAN   c_v-1
 BYTE   W01
 BYTE   PAN   c_v+0
 BYTE   W01
 BYTE   PAN   c_v+1
 BYTE   W01
 BYTE   PAN   c_v+2
 BYTE   W01
 BYTE   PAN   c_v+3
 BYTE   W01
 BYTE   PAN   c_v+4
 BYTE   W01
 BYTE   PAN   c_v+5
 BYTE   N12  Dn3
 BYTE   W01
 BYTE   PAN   c_v+6
 BYTE   W01
 BYTE   PAN   c_v+7
 BYTE   W01
 BYTE   PAN   c_v+9
 BYTE   W01
 BYTE   PAN   c_v+10
 BYTE   VOL   18*SplashWave_mvl/mxv
 BYTE   W01
 BYTE   PAN   c_v+11
 BYTE   W01
 BYTE   PAN   c_v+12
 BYTE   W01
 BYTE   PAN   c_v+13
 BYTE   W01
 BYTE   PAN   c_v+14
 BYTE   W01
 BYTE   PAN   c_v+15
 BYTE   W01
 BYTE   PAN   c_v+16
 BYTE   W01
 BYTE   PAN   c_v+17
 BYTE   W01
 BYTE   PAN   c_v+19
 BYTE   N12  An3
 BYTE   W01
 BYTE   PAN   c_v+20
 BYTE   W01
 BYTE   PAN   c_v+21
 BYTE   W01
 BYTE   PAN   c_v+22
 BYTE   W01
 BYTE   PAN   c_v+23
 BYTE   W01
 BYTE   PAN   c_v+24
 BYTE   W01
 BYTE   PAN   c_v+25
 BYTE   W01
 BYTE   PAN   c_v+26
 BYTE   W01
 BYTE   PAN   c_v+27
 BYTE   VOL   17*SplashWave_mvl/mxv
 BYTE   W01
 BYTE   PAN   c_v+29
 BYTE   W01
 BYTE   PAN   c_v+30
 BYTE   W01
 BYTE   PAN   c_v+31
 BYTE   W01
 BYTE   PAN   c_v+32
 BYTE   N12  Dn4
 BYTE   W01
 BYTE   PAN   c_v+33
 BYTE   W01
 BYTE   PAN   c_v+34
 BYTE   W01
 BYTE   PAN   c_v+35
 BYTE   W01
 BYTE   PAN   c_v+36
 BYTE   W01
 BYTE   PAN   c_v+37
 BYTE   W01
 BYTE   PAN   c_v+40
 BYTE   W02
 BYTE   PAN   c_v+39
 BYTE   W01
 BYTE   PAN   c_v+38
 BYTE   W02
 BYTE   PAN   c_v+37
 BYTE   W01
 BYTE   PAN   c_v+36
 BYTE   VOL   17*SplashWave_mvl/mxv
 BYTE   N12  Dn3
 BYTE   W02
 BYTE   PAN   c_v+35
 BYTE   W01
 BYTE   PAN   c_v+34
 BYTE   W02
 BYTE   PAN   c_v+33
 BYTE   W01
 BYTE   PAN   c_v+32
 BYTE   W02
 BYTE   PAN   c_v+31
 BYTE   W01
 BYTE   PAN   c_v+30
 BYTE   W02
 BYTE   PAN   c_v+29
 BYTE   W01
 BYTE   PAN   c_v+28
 BYTE   N12  An3
 BYTE   W02
 BYTE   PAN   c_v+27
 BYTE   W01
 BYTE   PAN   c_v+26
 BYTE   W01
 BYTE   VOL   16*SplashWave_mvl/mxv
 BYTE   W01
 BYTE   PAN   c_v+25
 BYTE   W01
 BYTE   PAN   c_v+24
 BYTE   W02
 BYTE   PAN   c_v+23
 BYTE   W01
 BYTE   PAN   c_v+22
 BYTE   W02
 BYTE   PAN   c_v+21
 BYTE   W01
 BYTE   PAN   c_v+20
 BYTE   N12  Cn4
 BYTE   W02
 BYTE   PAN   c_v+19
 BYTE   W01
 BYTE   PAN   c_v+18
 BYTE   W02
 BYTE   PAN   c_v+17
 BYTE   W01
 BYTE   PAN   c_v+16
 BYTE   W02
 BYTE   PAN   c_v+15
 BYTE   VOL   15*SplashWave_mvl/mxv
 BYTE   W01
 BYTE   PAN   c_v+14
 BYTE   W02
 BYTE   PAN   c_v+13
 BYTE   W01
 BYTE   PAN   c_v+12
 BYTE   N12  Dn4
 BYTE   W02
 BYTE   PAN   c_v+11
 BYTE   W01
 BYTE   PAN   c_v+10
 BYTE   W02
//  #03 //231   ----------------------------------------
 BYTE   PAN   c_v+9
 BYTE   W01
 BYTE   PAN   c_v+8
 BYTE   W02
 BYTE   PAN   c_v+7
 BYTE   W01
 BYTE   PAN   c_v+6
 BYTE   W02
 BYTE   PAN   c_v+5
 BYTE   W01
 BYTE   PAN   c_v+4
 BYTE   VOL   15*SplashWave_mvl/mxv
 BYTE   N12  En3
 BYTE   W02
 BYTE   PAN   c_v+3
 BYTE   W01
 BYTE   PAN   c_v+2
 BYTE   W02
 BYTE   PAN   c_v+1
 BYTE   W01
 BYTE   PAN   c_v+0
 BYTE   W02
 BYTE   PAN   c_v-1
 BYTE   W01
 BYTE   PAN   c_v-2
 BYTE   W02
 BYTE   PAN   c_v-3
 BYTE   W01
 BYTE   PAN   c_v-4
 BYTE   N12  Bn3
 BYTE   W02
 BYTE   PAN   c_v-5
 BYTE   W01
 BYTE   PAN   c_v-6
 BYTE   W01
 BYTE   VOL   14*SplashWave_mvl/mxv
 BYTE   W01
 BYTE   PAN   c_v-7
 BYTE   W01
 BYTE   PAN   c_v-8
 BYTE   W02
 BYTE   PAN   c_v-9
 BYTE   W01
 BYTE   PAN   c_v-10
 BYTE   W02
 BYTE   PAN   c_v-11
 BYTE   W01
 BYTE   PAN   c_v-12
 BYTE   N12  En4
 BYTE   W02
 BYTE   PAN   c_v-13
 BYTE   W01
 BYTE   PAN   c_v-14
 BYTE   W02
 BYTE   PAN   c_v-15
 BYTE   W01
 BYTE   PAN   c_v-16
 BYTE   W02
 BYTE   PAN   c_v-17
 BYTE   VOL   13*SplashWave_mvl/mxv
 BYTE   W01
 BYTE   PAN   c_v-18
 BYTE   W02
 BYTE   PAN   c_v-19
 BYTE   W01
 BYTE   PAN   c_v-20
 BYTE   N12  En3
 BYTE   W02
 BYTE   PAN   c_v-21
 BYTE   W01
 BYTE   PAN   c_v-22
 BYTE   W02
 BYTE   PAN   c_v-23
 BYTE   W01
 BYTE   PAN   c_v-24
 BYTE   W02
 BYTE   PAN   c_v-25
 BYTE   W01
 BYTE   PAN   c_v-26
 BYTE   W02
 BYTE   PAN   c_v-27
 BYTE   W01
 BYTE   PAN   c_v-28
 BYTE   VOL   13*SplashWave_mvl/mxv
 BYTE   N12  Bn3
 BYTE   W02
 BYTE   PAN   c_v-29
 BYTE   W01
 BYTE   PAN   c_v-30
 BYTE   W02
 BYTE   PAN   c_v-31
 BYTE   W01
 BYTE   PAN   c_v-32
 BYTE   W02
 BYTE   PAN   c_v-33
 BYTE   W01
 BYTE   PAN   c_v-34
 BYTE   W02
 BYTE   PAN   c_v-35
 BYTE   W01
 BYTE   PAN   c_v-36
 BYTE   N12  En4
 BYTE   W02
 BYTE   PAN   c_v-37
 BYTE   W01
 BYTE   PAN   c_v-38
 BYTE   W01
 BYTE   VOL   12*SplashWave_mvl/mxv
 BYTE   W01
 BYTE   PAN   c_v-39
 BYTE   W01
 BYTE   PAN   c_v-40
 BYTE   W01
 BYTE   PAN   c_v-40
 BYTE   W01
 BYTE   PAN   c_v-39
 BYTE   W01
 BYTE   PAN   c_v-38
 BYTE   W01
 BYTE   PAN   c_v-37
 BYTE   W01
 BYTE   PAN   c_v-36
 BYTE   W01
 BYTE   PAN   c_v-35
 BYTE   N12  En3
 BYTE   W01
 BYTE   PAN   c_v-34
 BYTE   W01
 BYTE   PAN   c_v-33
 BYTE   W01
 BYTE   PAN   c_v-31
 BYTE   W01
 BYTE   PAN   c_v-30
 BYTE   W01
 BYTE   PAN   c_v-29
 BYTE   W01
 BYTE   PAN   c_v-28
 BYTE   W01
 BYTE   PAN   c_v-27
 BYTE   W01
 BYTE   PAN   c_v-26
 BYTE   VOL   11*SplashWave_mvl/mxv
 BYTE   W01
 BYTE   PAN   c_v-25
 BYTE   W01
 BYTE   PAN   c_v-24
 BYTE   W01
 BYTE   PAN   c_v-23
 BYTE   W01
 BYTE   PAN   c_v-21
 BYTE   N12  Bn3
 BYTE   W01
 BYTE   PAN   c_v-20
 BYTE   W01
 BYTE   PAN   c_v-19
 BYTE   W01
 BYTE   PAN   c_v-18
 BYTE   W01
 BYTE   PAN   c_v-17
 BYTE   W01
//  #03 //232   ----------------------------------------
 BYTE   PAN   c_v-16
 BYTE   W01
 BYTE   PAN   c_v-15
 BYTE   W01
 BYTE   PAN   c_v-14
 BYTE   W01
 BYTE   PAN   c_v-13
 BYTE   W01
 BYTE   PAN   c_v-11
 BYTE   W01
 BYTE   PAN   c_v-10
 BYTE   W01
 BYTE   PAN   c_v-9
 BYTE   W01
 BYTE   PAN   c_v-8
 BYTE   VOL   11*SplashWave_mvl/mxv
 BYTE   N12  En4
 BYTE   W01
 BYTE   PAN   c_v-7
 BYTE   W01
 BYTE   PAN   c_v-6
 BYTE   W01
 BYTE   PAN   c_v-5
 BYTE   W01
 BYTE   PAN   c_v-4
 BYTE   W01
 BYTE   PAN   c_v-3
 BYTE   W01
 BYTE   PAN   c_v-1
 BYTE   W01
 BYTE   PAN   c_v+0
 BYTE   W01
 BYTE   PAN   c_v+1
 BYTE   W01
 BYTE   PAN   c_v+2
 BYTE   W01
 BYTE   PAN   c_v+3
 BYTE   W01
 BYTE   PAN   c_v+4
 BYTE   W01
 BYTE   PAN   c_v+5
 BYTE   N12  En3
 BYTE   W01
 BYTE   PAN   c_v+6
 BYTE   W01
 BYTE   PAN   c_v+7
 BYTE   W01
 BYTE   PAN   c_v+9
 BYTE   W01
 BYTE   PAN   c_v+10
 BYTE   VOL   10*SplashWave_mvl/mxv
 BYTE   W01
 BYTE   PAN   c_v+11
 BYTE   W01
 BYTE   PAN   c_v+12
 BYTE   W01
 BYTE   PAN   c_v+13
 BYTE   W01
 BYTE   PAN   c_v+14
 BYTE   W01
 BYTE   PAN   c_v+15
 BYTE   W01
 BYTE   PAN   c_v+16
 BYTE   W01
 BYTE   PAN   c_v+17
 BYTE   W01
 BYTE   PAN   c_v+19
 BYTE   N12  Bn3
 BYTE   W01
 BYTE   PAN   c_v+20
 BYTE   W01
 BYTE   PAN   c_v+21
 BYTE   W01
 BYTE   PAN   c_v+22
 BYTE   W01
 BYTE   PAN   c_v+23
 BYTE   W01
 BYTE   PAN   c_v+24
 BYTE   W01
 BYTE   PAN   c_v+25
 BYTE   W01
 BYTE   PAN   c_v+26
 BYTE   W01
 BYTE   PAN   c_v+27
 BYTE   VOL   10*SplashWave_mvl/mxv
 BYTE   W01
 BYTE   PAN   c_v+29
 BYTE   W01
 BYTE   PAN   c_v+30
 BYTE   W01
 BYTE   PAN   c_v+31
 BYTE   W01
 BYTE   PAN   c_v+32
 BYTE   N12  En4
 BYTE   W01
 BYTE   PAN   c_v+33
 BYTE   W01
 BYTE   PAN   c_v+34
 BYTE   W01
 BYTE   PAN   c_v+35
 BYTE   W01
 BYTE   PAN   c_v+36
 BYTE   W01
 BYTE   PAN   c_v+37
 BYTE   W01
 BYTE   PAN   c_v+40
 BYTE   W02
 BYTE   PAN   c_v+39
 BYTE   W01
 BYTE   PAN   c_v+38
 BYTE   W02
 BYTE   PAN   c_v+37
 BYTE   W01
 BYTE   PAN   c_v+36
 BYTE   VOL   9*SplashWave_mvl/mxv
 BYTE   N12  En3
 BYTE   W02
 BYTE   PAN   c_v+35
 BYTE   W01
 BYTE   PAN   c_v+34
 BYTE   W02
 BYTE   PAN   c_v+33
 BYTE   W01
 BYTE   PAN   c_v+32
 BYTE   W02
 BYTE   PAN   c_v+31
 BYTE   W01
 BYTE   PAN   c_v+30
 BYTE   W02
 BYTE   PAN   c_v+29
 BYTE   W01
 BYTE   PAN   c_v+28
 BYTE   N12  Bn3
 BYTE   W02
 BYTE   PAN   c_v+27
 BYTE   W01
 BYTE   PAN   c_v+26
 BYTE   W01
 BYTE   VOL   8*SplashWave_mvl/mxv
 BYTE   W01
 BYTE   PAN   c_v+25
 BYTE   W01
 BYTE   PAN   c_v+24
 BYTE   W02
 BYTE   PAN   c_v+23
 BYTE   W01
 BYTE   PAN   c_v+22
 BYTE   W02
 BYTE   PAN   c_v+21
 BYTE   W01
 BYTE   PAN   c_v+20
 BYTE   N12  En4
 BYTE   W02
 BYTE   PAN   c_v+19
 BYTE   W01
 BYTE   PAN   c_v+18
 BYTE   W02
 BYTE   PAN   c_v+17
 BYTE   W01
 BYTE   PAN   c_v+16
 BYTE   W02
 BYTE   PAN   c_v+15
 BYTE   VOL   8*SplashWave_mvl/mxv
 BYTE   W01
 BYTE   PAN   c_v+14
 BYTE   W02
 BYTE   PAN   c_v+13
 BYTE   W01
 BYTE   PAN   c_v+12
 BYTE   N12  Bn3
 BYTE   W02
 BYTE   PAN   c_v+11
 BYTE   W01
 BYTE   PAN   c_v+10
 BYTE   W02
//  #03 //233   ----------------------------------------
 BYTE   PAN   c_v+9
 BYTE   W01
 BYTE   PAN   c_v+8
 BYTE   W02
 BYTE   PAN   c_v+7
 BYTE   W01
 BYTE   PAN   c_v+6
 BYTE   W02
 BYTE   PAN   c_v+5
 BYTE   W01
 BYTE   PAN   c_v+4
 BYTE   VOL   7*SplashWave_mvl/mxv
 BYTE   N12  Dn3
 BYTE   W02
 BYTE   PAN   c_v+3
 BYTE   W01
 BYTE   PAN   c_v+2
 BYTE   W02
 BYTE   PAN   c_v+1
 BYTE   W01
 BYTE   PAN   c_v+0
 BYTE   W02
 BYTE   PAN   c_v-1
 BYTE   W01
 BYTE   PAN   c_v-2
 BYTE   W02
 BYTE   PAN   c_v-3
 BYTE   W01
 BYTE   PAN   c_v-4
 BYTE   N12  An3
 BYTE   W02
 BYTE   PAN   c_v-5
 BYTE   W01
 BYTE   PAN   c_v-6
 BYTE   W01
 BYTE   VOL   6*SplashWave_mvl/mxv
 BYTE   W01
 BYTE   PAN   c_v-7
 BYTE   W01
 BYTE   PAN   c_v-8
 BYTE   W02
 BYTE   PAN   c_v-9
 BYTE   W01
 BYTE   PAN   c_v-10
 BYTE   W02
 BYTE   PAN   c_v-11
 BYTE   W01
 BYTE   PAN   c_v-12
 BYTE   N12  Dn4
 BYTE   W02
 BYTE   PAN   c_v-13
 BYTE   W01
 BYTE   PAN   c_v-14
 BYTE   W02
 BYTE   PAN   c_v-15
 BYTE   W01
 BYTE   PAN   c_v-16
 BYTE   W02
 BYTE   PAN   c_v-17
 BYTE   VOL   6*SplashWave_mvl/mxv
 BYTE   W01
 BYTE   PAN   c_v-18
 BYTE   W02
 BYTE   PAN   c_v-19
 BYTE   W01
 BYTE   PAN   c_v-20
 BYTE   N12  Dn3
 BYTE   W02
 BYTE   PAN   c_v-21
 BYTE   W01
 BYTE   PAN   c_v-22
 BYTE   W02
 BYTE   PAN   c_v-23
 BYTE   W01
 BYTE   PAN   c_v-24
 BYTE   W02
 BYTE   PAN   c_v-25
 BYTE   W01
 BYTE   PAN   c_v-26
 BYTE   W02
 BYTE   PAN   c_v-27
 BYTE   W01
 BYTE   PAN   c_v-28
 BYTE   VOL   5*SplashWave_mvl/mxv
 BYTE   N12  An3
 BYTE   W02
 BYTE   PAN   c_v-29
 BYTE   W01
 BYTE   PAN   c_v-30
 BYTE   W02
 BYTE   PAN   c_v-31
 BYTE   W01
 BYTE   PAN   c_v-32
 BYTE   W02
 BYTE   PAN   c_v-33
 BYTE   W01
 BYTE   PAN   c_v-34
 BYTE   W02
 BYTE   PAN   c_v-35
 BYTE   W01
 BYTE   PAN   c_v-36
 BYTE   N12  Dn4
 BYTE   W02
 BYTE   PAN   c_v-37
 BYTE   W01
 BYTE   PAN   c_v-38
 BYTE   W01
 BYTE   VOL   5*SplashWave_mvl/mxv
 BYTE   W01
 BYTE   PAN   c_v-39
 BYTE   W01
 BYTE   PAN   c_v-40
 BYTE   W01
 BYTE   PAN   c_v-40
 BYTE   W01
 BYTE   PAN   c_v-39
 BYTE   W01
 BYTE   PAN   c_v-38
 BYTE   W01
 BYTE   PAN   c_v-37
 BYTE   W01
 BYTE   PAN   c_v-36
 BYTE   W01
 BYTE   PAN   c_v-35
 BYTE   N12  Dn3
 BYTE   W01
 BYTE   PAN   c_v-34
 BYTE   W01
 BYTE   PAN   c_v-33
 BYTE   W01
 BYTE   PAN   c_v-31
 BYTE   W01
 BYTE   PAN   c_v-30
 BYTE   W01
 BYTE   PAN   c_v-29
 BYTE   W01
 BYTE   PAN   c_v-28
 BYTE   W01
 BYTE   PAN   c_v-27
 BYTE   W01
 BYTE   PAN   c_v-26
 BYTE   VOL   4*SplashWave_mvl/mxv
 BYTE   W01
 BYTE   PAN   c_v-25
 BYTE   W01
 BYTE   PAN   c_v-24
 BYTE   W01
 BYTE   PAN   c_v-23
 BYTE   W01
 BYTE   PAN   c_v-21
 BYTE   N12  An3
 BYTE   W01
 BYTE   PAN   c_v-20
 BYTE   W01
 BYTE   PAN   c_v-19
 BYTE   W01
 BYTE   PAN   c_v-18
 BYTE   W01
 BYTE   PAN   c_v-17
 BYTE   W01
//  #03 //234   ----------------------------------------
 BYTE   PAN   c_v-16
 BYTE   W01
 BYTE   PAN   c_v-15
 BYTE   W01
 BYTE   PAN   c_v-14
 BYTE   W01
 BYTE   PAN   c_v-13
 BYTE   W01
 BYTE   PAN   c_v-11
 BYTE   W01
 BYTE   PAN   c_v-10
 BYTE   W01
 BYTE   PAN   c_v-9
 BYTE   W01
 BYTE   PAN   c_v-8
 BYTE   VOL   3*SplashWave_mvl/mxv
 BYTE   N12  Dn4
 BYTE   W01
 BYTE   PAN   c_v-7
 BYTE   W01
 BYTE   PAN   c_v-6
 BYTE   W01
 BYTE   PAN   c_v-5
 BYTE   W01
 BYTE   PAN   c_v-4
 BYTE   W01
 BYTE   PAN   c_v-3
 BYTE   W01
 BYTE   PAN   c_v-1
 BYTE   W01
 BYTE   PAN   c_v+0
 BYTE   W01
 BYTE   PAN   c_v+1
 BYTE   W01
 BYTE   PAN   c_v+2
 BYTE   W01
 BYTE   PAN   c_v+3
 BYTE   W01
 BYTE   PAN   c_v+4
 BYTE   W01
 BYTE   PAN   c_v+5
 BYTE   N12  Dn3
 BYTE   W01
 BYTE   PAN   c_v+6
 BYTE   W01
 BYTE   PAN   c_v+7
 BYTE   W01
 BYTE   PAN   c_v+9
 BYTE   W01
 BYTE   PAN   c_v+10
 BYTE   VOL   3*SplashWave_mvl/mxv
 BYTE   W01
 BYTE   PAN   c_v+11
 BYTE   W01
 BYTE   PAN   c_v+12
 BYTE   W01
 BYTE   PAN   c_v+13
 BYTE   W01
 BYTE   PAN   c_v+14
 BYTE   W01
 BYTE   PAN   c_v+15
 BYTE   W01
 BYTE   PAN   c_v+16
 BYTE   W01
 BYTE   PAN   c_v+17
 BYTE   W01
 BYTE   PAN   c_v+19
 BYTE   N12  An3
 BYTE   W01
 BYTE   PAN   c_v+20
 BYTE   W01
 BYTE   PAN   c_v+21
 BYTE   W01
 BYTE   PAN   c_v+22
 BYTE   W01
 BYTE   PAN   c_v+23
 BYTE   W01
 BYTE   PAN   c_v+24
 BYTE   W01
 BYTE   PAN   c_v+25
 BYTE   W01
 BYTE   PAN   c_v+26
 BYTE   W01
 BYTE   PAN   c_v+27
 BYTE   VOL   2*SplashWave_mvl/mxv
 BYTE   W01
 BYTE   PAN   c_v+29
 BYTE   W01
 BYTE   PAN   c_v+30
 BYTE   W01
 BYTE   PAN   c_v+31
 BYTE   W01
 BYTE   PAN   c_v+32
 BYTE   N12  Dn4
 BYTE   W01
 BYTE   PAN   c_v+33
 BYTE   W01
 BYTE   PAN   c_v+34
 BYTE   W01
 BYTE   PAN   c_v+35
 BYTE   W01
 BYTE   PAN   c_v+36
 BYTE   W01
 BYTE   PAN   c_v+37
 BYTE   W01
 BYTE   PAN   c_v+40
 BYTE   W02
 BYTE   PAN   c_v+39
 BYTE   W01
 BYTE   PAN   c_v+38
 BYTE   W02
 BYTE   PAN   c_v+37
 BYTE   W01
 BYTE   PAN   c_v+36
 BYTE   VOL   1*SplashWave_mvl/mxv
 BYTE   N12  Dn3
 BYTE   W02
 BYTE   PAN   c_v+35
 BYTE   W01
 BYTE   PAN   c_v+34
 BYTE   W02
 BYTE   PAN   c_v+33
 BYTE   W01
 BYTE   PAN   c_v+32
 BYTE   W02
 BYTE   PAN   c_v+31
 BYTE   W01
 BYTE   PAN   c_v+30
 BYTE   W02
 BYTE   PAN   c_v+29
 BYTE   W01
 BYTE   PAN   c_v+28
 BYTE   N12  An3
 BYTE   W02
 BYTE   PAN   c_v+27
 BYTE   W01
 BYTE   PAN   c_v+26
 BYTE   W01
 BYTE   VOL   1*SplashWave_mvl/mxv
 BYTE   W01
 BYTE   PAN   c_v+25
 BYTE   W01
 BYTE   PAN   c_v+24
 BYTE   W02
 BYTE   PAN   c_v+23
 BYTE   W01
 BYTE   PAN   c_v+22
 BYTE   W02
 BYTE   PAN   c_v+21
 BYTE   W01
 BYTE   PAN   c_v+20
 BYTE   N12  Cn4
 BYTE   W02
 BYTE   PAN   c_v+19
 BYTE   W01
 BYTE   PAN   c_v+18
 BYTE   W02
 BYTE   PAN   c_v+17
 BYTE   W01
 BYTE   PAN   c_v+16
 BYTE   W02
 BYTE   PAN   c_v+15
 BYTE   VOL   0*SplashWave_mvl/mxv
 BYTE   W01
 BYTE   PAN   c_v+14
 BYTE   W02
 BYTE   PAN   c_v+13
 BYTE   W01
 BYTE   PAN   c_v+12
 BYTE   W02
 BYTE   PAN   c_v+11
 BYTE   W01
 BYTE   PAN   c_v+10
 BYTE   W02
//  #03 //235   ----------------------------------------
 BYTE   PAN   c_v+9
 BYTE   W01
 BYTE   PAN   c_v+8
 BYTE   W02
 BYTE   PAN   c_v+7
 BYTE   W01
 BYTE   PAN   c_v+6
 BYTE   W02
 BYTE   PAN   c_v+5
 BYTE   W01
 BYTE   VOL   0*SplashWave_mvl/mxv
 BYTE   FINE

//**************** Track 4 (Midi-Chn.3) ****************//

SplashWave_004:
//  #04 //000   ----------------------------------------
 BYTE   KEYSH   SplashWave_key+0
Label_012BB9A6:
 BYTE   VOICE   95
 BYTE   PAN   c_v-20
 BYTE   VOL   45*SplashWave_mvl/mxv
 BYTE   W07
 BYTE   N84  Cn3  v080
 BYTE   N84  En3
 BYTE   N84  An3
 BYTE   W84
 BYTE   N96  Bn2
 BYTE   N96  En3
 BYTE   N96  Gs3
 BYTE   W05
//  #04 //001   ----------------------------------------
Label_012BB9BC:
 BYTE   W90
 BYTE   W01
 BYTE   N96  Bn2  v080
 BYTE   N96  En3
 BYTE   N96  Gn3
 BYTE   W05
 BYTE   PEND 
//  #04 //002   ----------------------------------------
Label_012BB9C7:
 BYTE   W90
 BYTE   W01
 BYTE   TIE  Bn2  v080
 BYTE   TIE  Dn3
 BYTE   TIE  Fs3
 BYTE   W05
 BYTE   PEND 
//  #04 //003   ----------------------------------------
 BYTE   W96
//  #04 //004   ----------------------------------------
 BYTE   W07
 BYTE   EOT
 BYTE   Bn2  v062
 BYTE   Fs3
 BYTE   N84  Cn3
 BYTE   N84  En3
 BYTE   N84  An3
 BYTE   W84
 BYTE   N96  Bn2
 BYTE   N96  En3
 BYTE   N96  Gs3
 BYTE   W05
//  #04 //005   ----------------------------------------
 BYTE   PATT
  POIN2 Label_012BB9BC
//  #04 //006   ----------------------------------------
 BYTE   PATT
  POIN2 Label_012BB9C7
//  #04 //007   ----------------------------------------
 BYTE   W96
//  #04 //008   ----------------------------------------
 BYTE   W07
 BYTE   EOT
 BYTE   Bn2  v062
 BYTE   Fs3
 BYTE   N84  Cn3  v080
 BYTE   N84  En3
 BYTE   N84  An3
 BYTE   W84
 BYTE   N96  Bn2
 BYTE   N96  En3
 BYTE   N96  Gs3
 BYTE   W05
//  #04 //009   ----------------------------------------
 BYTE   PATT
  POIN2 Label_012BB9BC
//  #04 //010   ----------------------------------------
 BYTE   PATT
  POIN2 Label_012BB9C7
//  #04 //011   ----------------------------------------
 BYTE   W96
//  #04 //012   ----------------------------------------
 BYTE   W07
 BYTE   EOT
 BYTE   Bn2  v062
 BYTE   Fs3
 BYTE   N84  Cn3  v080
 BYTE   N84  En3
 BYTE   N84  An3
 BYTE   W84
 BYTE   N96  Bn2
 BYTE   N96  En3
 BYTE   N96  Gs3
 BYTE   W05
//  #04 //013   ----------------------------------------
 BYTE   PATT
  POIN2 Label_012BB9BC
//  #04 //014   ----------------------------------------
Label_012BBA29:
 BYTE   W90
 BYTE   W01
 BYTE   N12  An2  v080
 BYTE   N12  Bn2
 BYTE   N12  Dn3
 BYTE   W05
 BYTE   PEND 
//  #04 //015   ----------------------------------------
 BYTE   W96
//  #04 //016   ----------------------------------------
Label_012BBA35:
 BYTE   W78
 BYTE   W01
 BYTE   VOICE   48
 BYTE   W17
 BYTE   PEND 
//  #04 //017   ----------------------------------------
Label_012BBA3B:
 BYTE   W07
 BYTE   TIE  Bn2  v064
 BYTE   TIE  Dn3
 BYTE   TIE  Gn3
 BYTE   W88
 BYTE   W01
 BYTE   PEND 
//  #04 //018   ----------------------------------------
 BYTE   W96
//  #04 //019   ----------------------------------------
 BYTE   W07
 BYTE   EOT
 BYTE   Bn2  v062
 BYTE   Gn3
 BYTE   TIE  An2
 BYTE   TIE  Dn3
 BYTE   TIE  Fn3
 BYTE   W88
 BYTE   W01
//  #04 //020   ----------------------------------------
 BYTE   W96
//  #04 //021   ----------------------------------------
 BYTE   W07
 BYTE   EOT
 BYTE   An2  v062
 BYTE   Fn3
 BYTE   TIE  An2
 BYTE   TIE  Cn3
 BYTE   TIE  En3
 BYTE   W88
 BYTE   W01
//  #04 //022   ----------------------------------------
 BYTE   W96
//  #04 //023   ----------------------------------------
 BYTE   W07
 BYTE   EOT
 BYTE   An2  v060
 BYTE   En3
 BYTE   TIE  Gn2
 BYTE   TIE  Bn2
 BYTE   TIE  Dn3
 BYTE   W88
 BYTE   W01
//  #04 //024   ----------------------------------------
 BYTE   W90
 BYTE   W01
 BYTE   EOT
 BYTE   Gn2  v059
 BYTE   Dn3
 BYTE   TIE  An2
 BYTE   TIE  Dn3
 BYTE   TIE  Fn3
 BYTE   W05
//  #04 //025   ----------------------------------------
 BYTE   W96
//  #04 //026   ----------------------------------------
 BYTE   W96
//  #04 //027   ----------------------------------------
 BYTE   W07
 BYTE   EOT
 BYTE   An2  v062
 BYTE   Fn3
 BYTE   TIE  Cn3
 BYTE   TIE  En3
 BYTE   TIE  Gn3
 BYTE   W88
 BYTE   W01
//  #04 //028   ----------------------------------------
 BYTE   W96
//  #04 //029   ----------------------------------------
 BYTE   W07
 BYTE   EOT
 BYTE   Cn3  v064
 BYTE   Gn3
 BYTE   TIE  As2
 BYTE   TIE  Ds3
 BYTE   TIE  Fs3
 BYTE   W88
 BYTE   W01
//  #04 //030   ----------------------------------------
 BYTE   W96
//  #04 //031   ----------------------------------------
 BYTE   W07
 BYTE   EOT
 BYTE   As2  v063
 BYTE   Fs3
 BYTE   N96  An2
 BYTE   N96  Dn3
 BYTE   N96  Gn3
 BYTE   W88
 BYTE   W01
//  #04 //032   ----------------------------------------
Label_012BBAA8:
 BYTE   W07
 BYTE   N96  An2  v064
 BYTE   N96  Dn3
 BYTE   N96  Fs3
 BYTE   W88
 BYTE   W01
 BYTE   PEND 
//  #04 //033   ----------------------------------------
 BYTE   PATT
  POIN2 Label_012BBA3B
//  #04 //034   ----------------------------------------
 BYTE   W96
//  #04 //035   ----------------------------------------
 BYTE   W07
 BYTE   EOT
 BYTE   Bn2  v062
 BYTE   Gn3
 BYTE   TIE  An2  v064
 BYTE   TIE  Dn3
 BYTE   TIE  Fn3
 BYTE   W88
 BYTE   W01
//  #04 //036   ----------------------------------------
 BYTE   W96
//  #04 //037   ----------------------------------------
 BYTE   W07
 BYTE   EOT
 BYTE   An2  v062
 BYTE   Fn3
 BYTE   TIE  An2
 BYTE   TIE  Cn3
 BYTE   TIE  En3
 BYTE   W88
 BYTE   W01
//  #04 //038   ----------------------------------------
 BYTE   W96
//  #04 //039   ----------------------------------------
 BYTE   W07
 BYTE   EOT
 BYTE   An2  v060
 BYTE   En3
 BYTE   TIE  Gn2
 BYTE   TIE  Bn2
 BYTE   TIE  Dn3
 BYTE   W88
 BYTE   W01
//  #04 //040   ----------------------------------------
 BYTE   W90
 BYTE   W01
 BYTE   EOT
 BYTE   Gn2  v059
 BYTE   Dn3
 BYTE   TIE  An2
 BYTE   TIE  Dn3
 BYTE   TIE  Fn3
 BYTE   W05
//  #04 //041   ----------------------------------------
 BYTE   W96
//  #04 //042   ----------------------------------------
 BYTE   W96
//  #04 //043   ----------------------------------------
 BYTE   W07
 BYTE   EOT
 BYTE   An2  v062
 BYTE   Fn3
 BYTE   TIE  Cn3
 BYTE   TIE  En3
 BYTE   TIE  Gn3
 BYTE   W88
 BYTE   W01
//  #04 //044   ----------------------------------------
 BYTE   W96
//  #04 //045   ----------------------------------------
 BYTE   W07
 BYTE   EOT
 BYTE   Cn3  v064
 BYTE   Gn3
 BYTE   TIE  As2
 BYTE   TIE  Ds3
 BYTE   TIE  Fs3
 BYTE   W88
 BYTE   W01
//  #04 //046   ----------------------------------------
 BYTE   W96
//  #04 //047   ----------------------------------------
 BYTE   W07
 BYTE   EOT
 BYTE   As2  v063
 BYTE   Fs3
 BYTE   N96  Cn3
 BYTE   N96  En3
 BYTE   N96  Gn3
 BYTE   W88
 BYTE   W01
//  #04 //048   ----------------------------------------
 BYTE   PATT
  POIN2 Label_012BBAA8
//  #04 //049   ----------------------------------------
Label_012BBB20:
 BYTE   W07
 BYTE   TIE  Cn3  v064
 BYTE   TIE  Fn3
 BYTE   TIE  An3
 BYTE   W88
 BYTE   W01
 BYTE   PEND 
//  #04 //050   ----------------------------------------
 BYTE   W96
//  #04 //051   ----------------------------------------
 BYTE   W07
 BYTE   EOT
 BYTE   Cn3  v065
 BYTE   An3
 BYTE   TIE  Bn2
 BYTE   TIE  En3
 BYTE   TIE  Gn3
 BYTE   W88
 BYTE   W01
//  #04 //052   ----------------------------------------
 BYTE   W96
//  #04 //053   ----------------------------------------
 BYTE   W07
 BYTE   EOT
 BYTE   Bn2  v064
 BYTE   Gn3
 BYTE   TIE  Cn3
 BYTE   TIE  Fn3
 BYTE   TIE  An3
 BYTE   W88
 BYTE   W01
//  #04 //054   ----------------------------------------
 BYTE   W96
//  #04 //055   ----------------------------------------
 BYTE   W07
 BYTE   EOT
 BYTE   Cn3  v065
 BYTE   An3
 BYTE   TIE  Bn2
 BYTE   TIE  En3
 BYTE   TIE  Gn3
 BYTE   W88
 BYTE   W01
//  #04 //056   ----------------------------------------
 BYTE   W96
//  #04 //057   ----------------------------------------
 BYTE   W07
 BYTE   EOT
 BYTE   Bn2  v064
 BYTE   Gn3
 BYTE   TIE  Cn3
 BYTE   TIE  Fn3
 BYTE   TIE  An3
 BYTE   W88
 BYTE   W01
//  #04 //058   ----------------------------------------
 BYTE   W96
//  #04 //059   ----------------------------------------
 BYTE   W07
 BYTE   EOT
 BYTE   Cn3  v065
 BYTE   An3
 BYTE   TIE  Bn2
 BYTE   TIE  En3
 BYTE   TIE  Gn3
 BYTE   W88
 BYTE   W01
//  #04 //060   ----------------------------------------
 BYTE   W96
//  #04 //061   ----------------------------------------
 BYTE   W07
 BYTE   EOT
 BYTE   Bn2  v064
 BYTE   Gn3
 BYTE   TIE  Cn3
 BYTE   TIE  Fn3
 BYTE   TIE  An3
 BYTE   W88
 BYTE   W01
//  #04 //062   ----------------------------------------
 BYTE   W96
//  #04 //063   ----------------------------------------
 BYTE   W07
 BYTE   EOT
 BYTE   Cn3  v065
 BYTE   An3
 BYTE   TIE  Bn2
 BYTE   TIE  En3
 BYTE   TIE  Gn3
 BYTE   W88
 BYTE   W01
//  #04 //064   ----------------------------------------
 BYTE   W90
 BYTE   W01
 BYTE   EOT
 BYTE   Bn2  v064
 BYTE   Gn3
 BYTE   TIE  Dn3  v072
 BYTE   TIE  Dn4
 BYTE   W05
//  #04 //065   ----------------------------------------
 BYTE   W96
//  #04 //066   ----------------------------------------
 BYTE   W07
 BYTE   EOT
 BYTE   Dn3  v074
 BYTE   N84  Gn3
 BYTE   N84  Gn4
 BYTE   W84
 BYTE   TIE  En3
 BYTE   TIE  En4
 BYTE   W05
//  #04 //067   ----------------------------------------
 BYTE   W96
//  #04 //068   ----------------------------------------
 BYTE   W07
 BYTE   EOT
 BYTE   En3  v076
 BYTE   N84  An3
 BYTE   N84  An4
 BYTE   W84
 BYTE   TIE  Dn3
 BYTE   TIE  Dn4
 BYTE   W05
//  #04 //069   ----------------------------------------
 BYTE   W96
//  #04 //070   ----------------------------------------
 BYTE   W07
 BYTE   EOT
 BYTE   Dn3  v074
 BYTE   N84  Gn3
 BYTE   N84  Gn4
 BYTE   W84
 BYTE   TIE  Cn4
 BYTE   TIE  Cn5
 BYTE   W05
//  #04 //071   ----------------------------------------
 BYTE   W96
//  #04 //072   ----------------------------------------
 BYTE   W13
 BYTE   EOT
 BYTE   Cn4  v084
 BYTE   W06
 BYTE   N15  Cs3
 BYTE   N15  Cs4
 BYTE   W24
 BYTE   Dn3
 BYTE   N15  Dn4
 BYTE   W24
 BYTE   En3
 BYTE   N15  En4
 BYTE   W24
 BYTE   TIE  Dn3
 BYTE   TIE  Dn4
 BYTE   W05
//  #04 //073   ----------------------------------------
 BYTE   W96
//  #04 //074   ----------------------------------------
 BYTE   W07
 BYTE   EOT
 BYTE   Dn3  v074
 BYTE   N84  Gn3
 BYTE   N84  Gn4
 BYTE   W84
 BYTE   TIE  En3
 BYTE   TIE  En4
 BYTE   W05
//  #04 //075   ----------------------------------------
 BYTE   W96
//  #04 //076   ----------------------------------------
 BYTE   W07
 BYTE   EOT
 BYTE   En3  v076
 BYTE   N84  Cs3
 BYTE   N84  Cs4
 BYTE   W84
 BYTE   TIE  Dn3
 BYTE   TIE  Dn4
 BYTE   W05
//  #04 //077   ----------------------------------------
 BYTE   W96
//  #04 //078   ----------------------------------------
 BYTE   W07
 BYTE   EOT
 BYTE   Dn3  v074
 BYTE   N84  Gn3
 BYTE   N84  Gn4
 BYTE   W84
 BYTE   TIE  Cn4
 BYTE   TIE  Cn5
 BYTE   W05
//  #04 //079   ----------------------------------------
 BYTE   W96
//  #04 //080   ----------------------------------------
 BYTE   W13
 BYTE   EOT
 BYTE   Cn4  v084
 BYTE   W80
 BYTE   W03
//  #04 //081   ----------------------------------------
 BYTE   PATT
  POIN2 Label_012BBA3B
//  #04 //082   ----------------------------------------
 BYTE   W96
//  #04 //083   ----------------------------------------
 BYTE   W07
 BYTE   EOT
 BYTE   Bn2  v062
 BYTE   Gn3
 BYTE   TIE  An2  v064
 BYTE   TIE  Dn3
 BYTE   TIE  Fn3
 BYTE   W88
 BYTE   W01
//  #04 //084   ----------------------------------------
 BYTE   W96
//  #04 //085   ----------------------------------------
 BYTE   W07
 BYTE   EOT
 BYTE   An2  v062
 BYTE   Fn3
 BYTE   TIE  An2
 BYTE   TIE  Cn3
 BYTE   TIE  En3
 BYTE   W88
 BYTE   W01
//  #04 //086   ----------------------------------------
 BYTE   W96
//  #04 //087   ----------------------------------------
 BYTE   W07
 BYTE   EOT
 BYTE   An2  v060
 BYTE   En3
 BYTE   TIE  Gn2
 BYTE   TIE  Bn2
 BYTE   TIE  Dn3
 BYTE   W88
 BYTE   W01
//  #04 //088   ----------------------------------------
 BYTE   W90
 BYTE   W01
 BYTE   EOT
 BYTE   Gn2  v059
 BYTE   Dn3
 BYTE   TIE  An2
 BYTE   TIE  Dn3
 BYTE   TIE  Fn3
 BYTE   W05
//  #04 //089   ----------------------------------------
 BYTE   W96
//  #04 //090   ----------------------------------------
 BYTE   W96
//  #04 //091   ----------------------------------------
 BYTE   W07
 BYTE   EOT
 BYTE   An2  v062
 BYTE   Fn3
 BYTE   TIE  Cn3
 BYTE   TIE  En3
 BYTE   TIE  Gn3
 BYTE   W88
 BYTE   W01
//  #04 //092   ----------------------------------------
 BYTE   W96
//  #04 //093   ----------------------------------------
 BYTE   W07
 BYTE   EOT
 BYTE   Cn3  v064
 BYTE   Gn3
 BYTE   TIE  As2
 BYTE   TIE  Ds3
 BYTE   TIE  Fs3
 BYTE   W88
 BYTE   W01
//  #04 //094   ----------------------------------------
 BYTE   W96
//  #04 //095   ----------------------------------------
 BYTE   W07
 BYTE   EOT
 BYTE   As2  v063
 BYTE   Fs3
 BYTE   N96  An2
 BYTE   N96  Dn3
 BYTE   N96  Gn3
 BYTE   W88
 BYTE   W01
//  #04 //096   ----------------------------------------
 BYTE   PATT
  POIN2 Label_012BBAA8
//  #04 //097   ----------------------------------------
 BYTE   PATT
  POIN2 Label_012BBA3B
//  #04 //098   ----------------------------------------
 BYTE   W96
//  #04 //099   ----------------------------------------
 BYTE   W07
 BYTE   EOT
 BYTE   Bn2  v062
 BYTE   Gn3
 BYTE   TIE  An2  v064
 BYTE   TIE  Dn3
 BYTE   TIE  Fn3
 BYTE   W88
 BYTE   W01
//  #04 //100   ----------------------------------------
 BYTE   W96
//  #04 //101   ----------------------------------------
 BYTE   W07
 BYTE   EOT
 BYTE   An2  v062
 BYTE   Fn3
 BYTE   TIE  An2
 BYTE   TIE  Cn3
 BYTE   TIE  En3
 BYTE   W88
 BYTE   W01
//  #04 //102   ----------------------------------------
 BYTE   W96
//  #04 //103   ----------------------------------------
 BYTE   W07
 BYTE   EOT
 BYTE   An2  v060
 BYTE   En3
 BYTE   TIE  Gn2
 BYTE   TIE  Bn2
 BYTE   TIE  Dn3
 BYTE   W88
 BYTE   W01
//  #04 //104   ----------------------------------------
 BYTE   W90
 BYTE   W01
 BYTE   EOT
 BYTE   Gn2  v059
 BYTE   Dn3
 BYTE   TIE  An2
 BYTE   TIE  Dn3
 BYTE   TIE  Fn3
 BYTE   W05
//  #04 //105   ----------------------------------------
 BYTE   W96
//  #04 //106   ----------------------------------------
 BYTE   W96
//  #04 //107   ----------------------------------------
 BYTE   W07
 BYTE   EOT
 BYTE   An2  v062
 BYTE   Fn3
 BYTE   TIE  Cn3
 BYTE   TIE  En3
 BYTE   TIE  Gn3
 BYTE   W88
 BYTE   W01
//  #04 //108   ----------------------------------------
 BYTE   W96
//  #04 //109   ----------------------------------------
 BYTE   W07
 BYTE   EOT
 BYTE   Cn3  v064
 BYTE   Gn3
 BYTE   TIE  As2
 BYTE   TIE  Ds3
 BYTE   TIE  Fs3
 BYTE   W88
 BYTE   W01
//  #04 //110   ----------------------------------------
 BYTE   W96
//  #04 //111   ----------------------------------------
 BYTE   W07
 BYTE   EOT
 BYTE   As2  v063
 BYTE   Fs3
 BYTE   N96  Cn3
 BYTE   N96  En3
 BYTE   N96  Gn3
 BYTE   W88
 BYTE   W01
//  #04 //112   ----------------------------------------
 BYTE   PATT
  POIN2 Label_012BBAA8
//  #04 //113   ----------------------------------------
 BYTE   PATT
  POIN2 Label_012BBB20
//  #04 //114   ----------------------------------------
 BYTE   W96
//  #04 //115   ----------------------------------------
 BYTE   W07
 BYTE   EOT
 BYTE   Cn3  v065
 BYTE   An3
 BYTE   TIE  Bn2  v064
 BYTE   TIE  En3
 BYTE   TIE  Gn3
 BYTE   W88
 BYTE   W01
//  #04 //116   ----------------------------------------
 BYTE   W96
//  #04 //117   ----------------------------------------
 BYTE   W07
 BYTE   EOT
 BYTE   Bn2  v064
 BYTE   Gn3
 BYTE   TIE  Cn3
 BYTE   TIE  Fn3
 BYTE   TIE  An3
 BYTE   W88
 BYTE   W01
//  #04 //118   ----------------------------------------
 BYTE   W96
//  #04 //119   ----------------------------------------
 BYTE   W07
 BYTE   EOT
 BYTE   Cn3  v065
 BYTE   An3
 BYTE   TIE  Bn2
 BYTE   TIE  En3
 BYTE   TIE  Gn3
 BYTE   W88
 BYTE   W01
//  #04 //120   ----------------------------------------
 BYTE   W96
//  #04 //121   ----------------------------------------
 BYTE   W07
 BYTE   EOT
 BYTE   Bn2  v064
 BYTE   Gn3
 BYTE   TIE  Cn3
 BYTE   TIE  Fn3
 BYTE   TIE  An3
 BYTE   W88
 BYTE   W01
//  #04 //122   ----------------------------------------
 BYTE   W96
//  #04 //123   ----------------------------------------
 BYTE   W07
 BYTE   EOT
 BYTE   Cn3  v065
 BYTE   An3
 BYTE   TIE  Bn2
 BYTE   TIE  En3
 BYTE   TIE  Gn3
 BYTE   W88
 BYTE   W01
//  #04 //124   ----------------------------------------
 BYTE   W96
//  #04 //125   ----------------------------------------
 BYTE   W07
 BYTE   EOT
 BYTE   Bn2  v064
 BYTE   Gn3
 BYTE   TIE  Cn3
 BYTE   TIE  Fn3
 BYTE   TIE  An3
 BYTE   W88
 BYTE   W01
//  #04 //126   ----------------------------------------
 BYTE   W96
//  #04 //127   ----------------------------------------
 BYTE   W07
 BYTE   EOT
 BYTE   Cn3  v065
 BYTE   An3
 BYTE   TIE  Bn2
 BYTE   TIE  En3
 BYTE   TIE  Gn3
 BYTE   W88
 BYTE   W01
//  #04 //128   ----------------------------------------
 BYTE   W90
 BYTE   W01
 BYTE   EOT
 BYTE   Bn2  v064
 BYTE   Gn3
 BYTE   TIE  Dn3  v072
 BYTE   TIE  Dn4
 BYTE   W05
//  #04 //129   ----------------------------------------
 BYTE   W96
//  #04 //130   ----------------------------------------
 BYTE   W07
 BYTE   EOT
 BYTE   Dn3  v074
 BYTE   N84  Gn3
 BYTE   N84  Gn4
 BYTE   W84
 BYTE   TIE  En3
 BYTE   TIE  En4
 BYTE   W05
//  #04 //131   ----------------------------------------
 BYTE   W96
//  #04 //132   ----------------------------------------
 BYTE   W07
 BYTE   EOT
 BYTE   En3  v076
 BYTE   N84  An3
 BYTE   N84  An4
 BYTE   W84
 BYTE   TIE  Dn3
 BYTE   TIE  Dn4
 BYTE   W05
//  #04 //133   ----------------------------------------
 BYTE   W96
//  #04 //134   ----------------------------------------
 BYTE   W07
 BYTE   EOT
 BYTE   Dn3  v074
 BYTE   N84  Gn3
 BYTE   N84  Gn4
 BYTE   W84
 BYTE   TIE  Cn4
 BYTE   TIE  Cn5
 BYTE   W05
//  #04 //135   ----------------------------------------
 BYTE   W96
//  #04 //136   ----------------------------------------
 BYTE   W13
 BYTE   EOT
 BYTE   Cn4  v084
 BYTE   W06
 BYTE   N15  Cs3
 BYTE   N15  Cs4
 BYTE   W24
 BYTE   Dn3
 BYTE   N15  Dn4
 BYTE   W24
 BYTE   En3
 BYTE   N15  En4
 BYTE   W24
 BYTE   TIE  Dn3
 BYTE   TIE  Dn4
 BYTE   W05
//  #04 //137   ----------------------------------------
 BYTE   W96
//  #04 //138   ----------------------------------------
 BYTE   W07
 BYTE   EOT
 BYTE   Dn3  v074
 BYTE   N84  Gn3
 BYTE   N84  Gn4
 BYTE   W84
 BYTE   TIE  En3
 BYTE   TIE  En4
 BYTE   W05
//  #04 //139   ----------------------------------------
 BYTE   W96
//  #04 //140   ----------------------------------------
 BYTE   W07
 BYTE   EOT
 BYTE   En3  v076
 BYTE   N84  Cs3
 BYTE   N84  Cs4
 BYTE   W84
 BYTE   TIE  Dn3
 BYTE   TIE  Dn4
 BYTE   W05
//  #04 //141   ----------------------------------------
 BYTE   W96
//  #04 //142   ----------------------------------------
 BYTE   W07
 BYTE   EOT
 BYTE   Dn3  v074
 BYTE   N84  Gn3
 BYTE   N84  Gn4
 BYTE   W84
 BYTE   TIE  Cn4
 BYTE   TIE  Cn5
 BYTE   W05
//  #04 //143   ----------------------------------------
 BYTE   W96
//  #04 //144   ----------------------------------------
 BYTE   W13
 BYTE   EOT
 BYTE   Cn4  v084
 BYTE   W80
 BYTE   W03
//  #04 //145   ----------------------------------------
 BYTE   W96
//  #04 //146   ----------------------------------------
 BYTE   W96
//  #04 //147   ----------------------------------------
 BYTE   W96
//  #04 //148   ----------------------------------------
 BYTE   W96
//  #04 //149   ----------------------------------------
 BYTE   W96
//  #04 //150   ----------------------------------------
 BYTE   W96
//  #04 //151   ----------------------------------------
 BYTE   W96
//  #04 //152   ----------------------------------------
 BYTE   W78
 BYTE   W01
 BYTE   VOICE   95
 BYTE   VOL   40*SplashWave_mvl/mxv
 BYTE   W17
//  #04 //153   ----------------------------------------
Label_012BBDE7:
 BYTE   W07
 BYTE   N84  Cn3  v080
 BYTE   N84  En3
 BYTE   N84  An3
 BYTE   W84
 BYTE   N96  Bn2
 BYTE   N96  En3
 BYTE   N96  Gs3
 BYTE   W05
 BYTE   PEND 
//  #04 //154   ----------------------------------------
 BYTE   PATT
  POIN2 Label_012BB9BC
//  #04 //155   ----------------------------------------
 BYTE   PATT
  POIN2 Label_012BB9C7
//  #04 //156   ----------------------------------------
 BYTE   W96
//  #04 //157   ----------------------------------------
 BYTE   W07
 BYTE   EOT
 BYTE   Bn2  v062
 BYTE   Fs3
 BYTE   N84  Cn3  v080
 BYTE   N84  En3
 BYTE   N84  An3
 BYTE   W84
 BYTE   N96  Bn2
 BYTE   N96  En3
 BYTE   N96  Gs3
 BYTE   W05
//  #04 //158   ----------------------------------------
 BYTE   PATT
  POIN2 Label_012BB9BC
//  #04 //159   ----------------------------------------
 BYTE   PATT
  POIN2 Label_012BB9C7
//  #04 //160   ----------------------------------------
 BYTE   W96
//  #04 //161   ----------------------------------------
 BYTE   W07
 BYTE   EOT
 BYTE   Bn2  v062
 BYTE   Fs3
 BYTE   N84  Cn3  v080
 BYTE   N84  En3
 BYTE   N84  An3
 BYTE   W84
 BYTE   N96  Bn2
 BYTE   N96  En3
 BYTE   N96  Gs3
 BYTE   W05
//  #04 //162   ----------------------------------------
 BYTE   PATT
  POIN2 Label_012BB9BC
//  #04 //163   ----------------------------------------
 BYTE   PATT
  POIN2 Label_012BB9C7
//  #04 //164   ----------------------------------------
 BYTE   W96
//  #04 //165   ----------------------------------------
 BYTE   W07
 BYTE   EOT
 BYTE   Bn2  v062
 BYTE   Fs3
 BYTE   N84  Cn3  v080
 BYTE   N84  En3
 BYTE   N84  An3
 BYTE   W84
 BYTE   N96  Bn2
 BYTE   N96  En3
 BYTE   N96  Gs3
 BYTE   W05
//  #04 //166   ----------------------------------------
 BYTE   PATT
  POIN2 Label_012BB9BC
//  #04 //167   ----------------------------------------
 BYTE   PATT
  POIN2 Label_012BBA29
//  #04 //168   ----------------------------------------
 BYTE   W96
//  #04 //169   ----------------------------------------
 BYTE   PATT
  POIN2 Label_012BBA35
//  #04 //170   ----------------------------------------
 BYTE   W07
 BYTE   N96  Dn3  v072
 BYTE   N96  Dn4
 BYTE   W88
 BYTE   W01
//  #04 //171   ----------------------------------------
 BYTE   W07
 BYTE   N84  Gn3
 BYTE   N84  Gn4
 BYTE   W84
 BYTE   TIE  En3
 BYTE   TIE  En4
 BYTE   W05
//  #04 //172   ----------------------------------------
 BYTE   W96
//  #04 //173   ----------------------------------------
 BYTE   W07
 BYTE   EOT
 BYTE   En3  v076
 BYTE   N84  An3
 BYTE   N84  An4
 BYTE   W84
 BYTE   TIE  Dn3
 BYTE   TIE  Dn4
 BYTE   W05
//  #04 //174   ----------------------------------------
 BYTE   W96
//  #04 //175   ----------------------------------------
 BYTE   W07
 BYTE   EOT
 BYTE   Dn3  v074
 BYTE   N84  Gn3
 BYTE   N84  Gn4
 BYTE   W84
 BYTE   TIE  Cn4
 BYTE   TIE  Cn5
 BYTE   W05
//  #04 //176   ----------------------------------------
 BYTE   W96
//  #04 //177   ----------------------------------------
 BYTE   W13
 BYTE   EOT
 BYTE   Cn4  v084
 BYTE   W06
 BYTE   N15  Cs3
 BYTE   N15  Cs4
 BYTE   W24
 BYTE   Dn3
 BYTE   N15  Dn4
 BYTE   W24
 BYTE   En3
 BYTE   N15  En4
 BYTE   W24
 BYTE   TIE  Dn3
 BYTE   TIE  Dn4
 BYTE   W05
//  #04 //178   ----------------------------------------
 BYTE   W96
//  #04 //179   ----------------------------------------
 BYTE   W07
 BYTE   EOT
 BYTE   Dn3  v074
 BYTE   N84  Gn3
 BYTE   N84  Gn4
 BYTE   W84
 BYTE   TIE  En3
 BYTE   TIE  En4
 BYTE   W05
//  #04 //180   ----------------------------------------
 BYTE   W96
//  #04 //181   ----------------------------------------
 BYTE   W07
 BYTE   EOT
 BYTE   En3  v076
 BYTE   N84  Cs3
 BYTE   N84  Cs4
 BYTE   W84
 BYTE   TIE  Dn3
 BYTE   TIE  Dn4
 BYTE   W05
//  #04 //182   ----------------------------------------
 BYTE   W96
//  #04 //183   ----------------------------------------
 BYTE   W07
 BYTE   EOT
 BYTE   Dn3  v074
 BYTE   N84  Gn3
 BYTE   N84  Gn4
 BYTE   W84
 BYTE   TIE  Cn4
 BYTE   TIE  Cn5
 BYTE   W05
//  #04 //184   ----------------------------------------
 BYTE   W96
//  #04 //185   ----------------------------------------
 BYTE   W13
 BYTE   EOT
 BYTE   Cn4  v084
 BYTE   W78
 BYTE   TIE  Dn3
 BYTE   TIE  Dn4
 BYTE   W05
//  #04 //186   ----------------------------------------
 BYTE   W96
//  #04 //187   ----------------------------------------
 BYTE   W07
 BYTE   EOT
 BYTE   Dn3  v074
 BYTE   N84  Gn3
 BYTE   N84  Gn4
 BYTE   W84
 BYTE   TIE  En3
 BYTE   TIE  En4
 BYTE   W05
//  #04 //188   ----------------------------------------
 BYTE   W96
//  #04 //189   ----------------------------------------
 BYTE   W07
 BYTE   EOT
 BYTE   En3  v076
 BYTE   N84  An3
 BYTE   N84  An4
 BYTE   W84
 BYTE   TIE  Dn3
 BYTE   TIE  Dn4
 BYTE   W05
//  #04 //190   ----------------------------------------
 BYTE   W96
//  #04 //191   ----------------------------------------
 BYTE   W07
 BYTE   EOT
 BYTE   Dn3  v074
 BYTE   N84  Gn3
 BYTE   N84  Gn4
 BYTE   W84
 BYTE   TIE  Cn4
 BYTE   TIE  Cn5
 BYTE   W05
//  #04 //192   ----------------------------------------
 BYTE   W96
//  #04 //193   ----------------------------------------
 BYTE   W13
 BYTE   EOT
 BYTE   Cn4  v084
 BYTE   W06
 BYTE   N15  Cs3
 BYTE   N15  Cs4
 BYTE   W24
 BYTE   Cs3
 BYTE   N15  Cs4
 BYTE   W24
 BYTE   Cs3
 BYTE   N15  Cs4
 BYTE   W24
 BYTE   TIE  Dn3
 BYTE   TIE  Dn4
 BYTE   W05
//  #04 //194   ----------------------------------------
 BYTE   W96
//  #04 //195   ----------------------------------------
 BYTE   W07
 BYTE   EOT
 BYTE   Dn3  v074
 BYTE   N84  Gn3
 BYTE   N84  Gn4
 BYTE   W84
 BYTE   TIE  En3
 BYTE   TIE  En4
 BYTE   W05
//  #04 //196   ----------------------------------------
 BYTE   W96
//  #04 //197   ----------------------------------------
 BYTE   W07
 BYTE   EOT
 BYTE   En3  v076
 BYTE   N84  Cs3
 BYTE   N84  Cs4
 BYTE   W84
 BYTE   TIE  Dn3
 BYTE   TIE  Dn4
 BYTE   W05
//  #04 //198   ----------------------------------------
 BYTE   W96
//  #04 //199   ----------------------------------------
 BYTE   W07
 BYTE   EOT
 BYTE   Dn3  v074
 BYTE   N84  Gn3
 BYTE   N84  Gn4
 BYTE   W84
 BYTE   TIE  Cn4
 BYTE   TIE  Cn5
 BYTE   W05
//  #04 //200   ----------------------------------------
 BYTE   W96
//  #04 //201   ----------------------------------------
 BYTE   W13
 BYTE   EOT
 BYTE   Cn4  v084
 BYTE   W80
 BYTE   W03
//  #04 //202   ----------------------------------------
 BYTE   PATT
  POIN2 Label_012BBDE7
//  #04 //203   ----------------------------------------
 BYTE   PATT
  POIN2 Label_012BB9BC
//  #04 //204   ----------------------------------------
 BYTE   PATT
  POIN2 Label_012BB9C7
//  #04 //205   ----------------------------------------
 BYTE   W96
//  #04 //206   ----------------------------------------
 BYTE   W07
 BYTE   EOT
 BYTE   Bn2  v062
 BYTE   Fs3
 BYTE   N84  Cn3  v080
 BYTE   N84  En3
 BYTE   N84  An3
 BYTE   W84
 BYTE   N96  Bn2
 BYTE   N96  En3
 BYTE   N96  Gs3
 BYTE   W05
//  #04 //207   ----------------------------------------
 BYTE   PATT
  POIN2 Label_012BB9BC
//  #04 //208   ----------------------------------------
 BYTE   PATT
  POIN2 Label_012BB9C7
//  #04 //209   ----------------------------------------
 BYTE   W96
//  #04 //210   ----------------------------------------
 BYTE   W07
 BYTE   EOT
 BYTE   Bn2  v062
 BYTE   Fs3
 BYTE   N84  Cn3  v080
 BYTE   N84  En3
 BYTE   N84  An3
 BYTE   W84
 BYTE   N96  Bn2
 BYTE   N96  En3
 BYTE   N96  Gs3
 BYTE   W05
//  #04 //211   ----------------------------------------
 BYTE   PATT
  POIN2 Label_012BB9BC
//  #04 //212   ----------------------------------------
 BYTE   PATT
  POIN2 Label_012BB9C7
//  #04 //213   ----------------------------------------
 BYTE   W96
//  #04 //214   ----------------------------------------
 BYTE   W07
 BYTE   EOT
 BYTE   Bn2  v062
 BYTE   Fs3
 BYTE   N84  Cn3  v080
 BYTE   N84  En3
 BYTE   N84  An3
 BYTE   W84
 BYTE   N96  Bn2
 BYTE   N96  En3
 BYTE   N96  Gs3
 BYTE   W05
//  #04 //215   ----------------------------------------
 BYTE   PATT
  POIN2 Label_012BB9BC
//  #04 //216   ----------------------------------------
 BYTE   PATT
  POIN2 Label_012BB9C7
//  #04 //217   ----------------------------------------
 BYTE   W96
//  #04 //218   ----------------------------------------
 BYTE   W07
 BYTE   EOT
 BYTE   Bn2  v062
 BYTE   Fs3
 BYTE   W88
 BYTE   W01
//  #04 //219   ----------------------------------------
 BYTE   GoTo
  POIN2 Label_012BB9A6
//  #04 //220   ----------------------------------------
 BYTE   W96
//  #04 //221   ----------------------------------------
 BYTE   W96
//  #04 //222   ----------------------------------------
 BYTE   W96
//  #04 //223   ----------------------------------------
 BYTE   W96
//  #04 //224   ----------------------------------------
 BYTE   W96
//  #04 //225   ----------------------------------------
 BYTE   W96
//  #04 //226   ----------------------------------------
 BYTE   W96
//  #04 //227   ----------------------------------------
 BYTE   W96
//  #04 //228   ----------------------------------------
 BYTE   W96
//  #04 //229   ----------------------------------------
 BYTE   W96
//  #04 //230   ----------------------------------------
 BYTE   W96
//  #04 //231   ----------------------------------------
 BYTE   W96
//  #04 //232   ----------------------------------------
 BYTE   W96
//  #04 //233   ----------------------------------------
 BYTE   W96
//  #04 //234   ----------------------------------------
 BYTE   W96
//  #04 //235   ----------------------------------------
 BYTE   W07
 BYTE   FINE

//**************** Track 5 (Midi-Chn.4) ****************//

SplashWave_005:
//  #05 //000   ----------------------------------------
 BYTE   KEYSH   SplashWave_key+0
Label_012C512A:
 BYTE   VOICE   11
 BYTE   PAN   c_v+30
 BYTE   VOL   40*SplashWave_mvl/mxv
 BYTE   W07
 BYTE   N06  En3  v127
 BYTE   W12
 BYTE   Bn3
 BYTE   W12
 BYTE   En4
 BYTE   W12
 BYTE   En3
 BYTE   W12
 BYTE   Bn3
 BYTE   W12
 BYTE   En4
 BYTE   W12
 BYTE   En3
 BYTE   W12
 BYTE   Bn3
 BYTE   W05
//  #05 //001   ----------------------------------------
Label_012C5143:
 BYTE   W07
 BYTE   N06  En4  v127
 BYTE   W12
 BYTE   En3
 BYTE   W12
 BYTE   Bn3
 BYTE   W12
 BYTE   En4
 BYTE   W12
 BYTE   En3
 BYTE   W12
 BYTE   Bn3
 BYTE   W12
 BYTE   En4
 BYTE   W12
 BYTE   Bn3
 BYTE   W05
 BYTE   PEND 
//  #05 //002   ----------------------------------------
Label_012C5157:
 BYTE   W07
 BYTE   N06  Dn3  v127
 BYTE   W12
 BYTE   An3
 BYTE   W12
 BYTE   Dn4
 BYTE   W12
 BYTE   Dn3
 BYTE   W12
 BYTE   An3
 BYTE   W12
 BYTE   Dn4
 BYTE   W12
 BYTE   Dn3
 BYTE   W12
 BYTE   An3
 BYTE   W05
 BYTE   PEND 
//  #05 //003   ----------------------------------------
Label_012C516B:
 BYTE   W07
 BYTE   N06  Dn4  v127
 BYTE   W12
 BYTE   Dn3
 BYTE   W12
 BYTE   An3
 BYTE   W12
 BYTE   Dn4
 BYTE   W12
 BYTE   Dn3
 BYTE   W12
 BYTE   An3
 BYTE   W12
 BYTE   Cn4
 BYTE   W12
 BYTE   Dn4
 BYTE   W05
 BYTE   PEND 
//  #05 //004   ----------------------------------------
Label_012C517F:
 BYTE   W07
 BYTE   N06  En3  v127
 BYTE   W12
 BYTE   Bn3
 BYTE   W12
 BYTE   En4
 BYTE   W12
 BYTE   En3
 BYTE   W12
 BYTE   Bn3
 BYTE   W12
 BYTE   En4
 BYTE   W12
 BYTE   En3
 BYTE   W12
 BYTE   Bn3
 BYTE   W05
 BYTE   PEND 
//  #05 //005   ----------------------------------------
 BYTE   PATT
  POIN2 Label_012C5143
//  #05 //006   ----------------------------------------
 BYTE   PATT
  POIN2 Label_012C5157
//  #05 //007   ----------------------------------------
 BYTE   PATT
  POIN2 Label_012C516B
//  #05 //008   ----------------------------------------
 BYTE   PATT
  POIN2 Label_012C517F
//  #05 //009   ----------------------------------------
 BYTE   PATT
  POIN2 Label_012C5143
//  #05 //010   ----------------------------------------
 BYTE   PATT
  POIN2 Label_012C5157
//  #05 //011   ----------------------------------------
 BYTE   PATT
  POIN2 Label_012C516B
//  #05 //012   ----------------------------------------
 BYTE   PATT
  POIN2 Label_012C517F
//  #05 //013   ----------------------------------------
 BYTE   PATT
  POIN2 Label_012C5143
//  #05 //014   ----------------------------------------
Label_012C51C0:
 BYTE   W07
 BYTE   N06  Dn3  v127
 BYTE   W12
 BYTE   An3
 BYTE   W12
 BYTE   Dn4
 BYTE   W12
 BYTE   Dn3
 BYTE   W12
 BYTE   An3
 BYTE   W12
 BYTE   Dn4
 BYTE   W12
 BYTE   Dn3
 BYTE   W12
 BYTE   Dn4
 BYTE   W05
 BYTE   PEND 
//  #05 //015   ----------------------------------------
 BYTE   W96
//  #05 //016   ----------------------------------------
 BYTE   W54
 BYTE   W01
 BYTE   W24
 BYTE   VOICE   81
 BYTE   VOL   37*SplashWave_mvl/mxv
 BYTE   PAN   c_v+0
 BYTE   W17
//  #05 //017   ----------------------------------------
Label_012C51DF:
 BYTE   W07
 BYTE   N72  Dn2  v127
 BYTE   W72
 BYTE   N12  Gn2
 BYTE   W12
 BYTE   N03  Bn2
 BYTE   W03
 BYTE   N32  Cn3
 BYTE   W02
 BYTE   PEND 
//  #05 //018   ----------------------------------------
Label_012C51EE:
 BYTE   W30
 BYTE   W01
 BYTE   N24  Bn2  v127
 BYTE   W24
 BYTE   N12  An2
 BYTE   W12
 BYTE   Bn2
 BYTE   W24
 BYTE   N96  Fn2
 BYTE   W05
 BYTE   PEND 
//  #05 //019   ----------------------------------------
Label_012C51FD:
 BYTE   W90
 BYTE   W01
 BYTE   N03  En3  v127
 BYTE   W03
 BYTE   N32  Fn3
 BYTE   W02
 BYTE   PEND 
//  #05 //020   ----------------------------------------
Label_012C5207:
 BYTE   W30
 BYTE   W01
 BYTE   N24  En3  v127
 BYTE   W24
 BYTE   N12  Dn3
 BYTE   W12
 BYTE   En3
 BYTE   W24
 BYTE   TIE  Bn2
 BYTE   W05
 BYTE   PEND 
//  #05 //021   ----------------------------------------
 BYTE   W96
//  #05 //022   ----------------------------------------
 BYTE   W54
 BYTE   W01
 BYTE   EOT
 BYTE   N03  Cs3
 BYTE   W03
 BYTE   N21  Dn3
 BYTE   W21
 BYTE   N24  Cn3
 BYTE   W17
//  #05 //023   ----------------------------------------
Label_012C5223:
 BYTE   W07
 BYTE   N72  Bn2  v127
 BYTE   W72
 BYTE   N03  Fs2
 BYTE   W03
 BYTE   N09  Gn2
 BYTE   W09
 BYTE   N96  En2
 BYTE   W05
 BYTE   PEND 
//  #05 //024   ----------------------------------------
Label_012C5232:
 BYTE   W90
 BYTE   W01
 BYTE   TIE  Fn2  v127
 BYTE   W05
 BYTE   PEND 
//  #05 //025   ----------------------------------------
 BYTE   W96
//  #05 //026   ----------------------------------------
 BYTE   W30
 BYTE   W01
 BYTE   EOT
 BYTE   N01  Gn2
 BYTE   W02
 BYTE   Gs2
 BYTE   W01
 BYTE   N21  An2
 BYTE   W21
 BYTE   N12  Cn3
 BYTE   W12
 BYTE   N18  Bn2
 BYTE   W24
 BYTE   N24  An2
 BYTE   W05
//  #05 //027   ----------------------------------------
Label_012C524E:
 BYTE   W19
 BYTE   N12  Gn2  v127
 BYTE   W12
 BYTE   N96  En2
 BYTE   W64
 BYTE   W01
 BYTE   PEND 
//  #05 //028   ----------------------------------------
Label_012C5258:
 BYTE   W30
 BYTE   W01
 BYTE   N03  Fs2  v127
 BYTE   W03
 BYTE   N21  Gn2
 BYTE   W21
 BYTE   N12  Bn2
 BYTE   W12
 BYTE   N18  An2
 BYTE   W24
 BYTE   TIE  As2
 BYTE   W05
 BYTE   PEND 
//  #05 //029   ----------------------------------------
 BYTE   W96
//  #05 //030   ----------------------------------------
 BYTE   W66
 BYTE   W01
 BYTE   EOT
 BYTE   N03  Dn3
 BYTE   W03
 BYTE   N21  Ds3
 BYTE   W21
 BYTE   N84  Dn3
 BYTE   W05
//  #05 //031   ----------------------------------------
Label_012C5278:
 BYTE   W78
 BYTE   W01
 BYTE   N12  Cn3  v127
 BYTE   W12
 BYTE   N03  Cs3
 BYTE   W03
 BYTE   TIE  Dn3
 BYTE   W02
 BYTE   PEND 
//  #05 //032   ----------------------------------------
 BYTE   W96
//  #05 //033   ----------------------------------------
 BYTE   W07
 BYTE   EOT
 BYTE   N72  Dn2
 BYTE   W72
 BYTE   N12  Gn2
 BYTE   W12
 BYTE   N03  Bn2
 BYTE   W03
 BYTE   N32  Cn3
 BYTE   W02
//  #05 //034   ----------------------------------------
 BYTE   PATT
  POIN2 Label_012C51EE
//  #05 //035   ----------------------------------------
 BYTE   PATT
  POIN2 Label_012C51FD
//  #05 //036   ----------------------------------------
 BYTE   PATT
  POIN2 Label_012C5207
//  #05 //037   ----------------------------------------
 BYTE   W96
//  #05 //038   ----------------------------------------
 BYTE   W54
 BYTE   W01
 BYTE   EOT
 BYTE   Bn2
 BYTE   N03  Cs3  v127
 BYTE   W03
 BYTE   N21  Dn3
 BYTE   W21
 BYTE   N24  Cn3
 BYTE   W17
//  #05 //039   ----------------------------------------
 BYTE   PATT
  POIN2 Label_012C5223
//  #05 //040   ----------------------------------------
 BYTE   PATT
  POIN2 Label_012C5232
//  #05 //041   ----------------------------------------
 BYTE   W96
//  #05 //042   ----------------------------------------
 BYTE   W30
 BYTE   W01
 BYTE   EOT
 BYTE   Fn2
 BYTE   N01  Gn2  v127
 BYTE   W02
 BYTE   Gs2
 BYTE   W01
 BYTE   N21  An2
 BYTE   W21
 BYTE   N12  Cn3
 BYTE   W12
 BYTE   N18  Bn2
 BYTE   W24
 BYTE   N24  An2
 BYTE   W05
//  #05 //043   ----------------------------------------
 BYTE   PATT
  POIN2 Label_012C524E
//  #05 //044   ----------------------------------------
 BYTE   PATT
  POIN2 Label_012C5258
//  #05 //045   ----------------------------------------
 BYTE   W96
//  #05 //046   ----------------------------------------
 BYTE   W66
 BYTE   W01
 BYTE   EOT
 BYTE   As2
 BYTE   N03  Dn3  v127
 BYTE   W03
 BYTE   N21  Ds3
 BYTE   W21
 BYTE   N84  Dn3
 BYTE   W05
//  #05 //047   ----------------------------------------
Label_012C52EC:
 BYTE   W78
 BYTE   W01
 BYTE   N03  Fs3  v127
 BYTE   W03
 BYTE   N09  Gn3
 BYTE   W09
 BYTE   TIE  Fs3
 BYTE   W05
 BYTE   PEND 
//  #05 //048   ----------------------------------------
 BYTE   W96
//  #05 //049   ----------------------------------------
 BYTE   W07
 BYTE   EOT
 BYTE   TIE  En3
 BYTE   W88
 BYTE   W01
//  #05 //050   ----------------------------------------
 BYTE   W30
 BYTE   W01
 BYTE   EOT
 BYTE   N24  Dn3
 BYTE   W24
 BYTE   N12  An3
 BYTE   W12
 BYTE   N18  Gn3
 BYTE   W24
 BYTE   TIE  En3
 BYTE   W05
//  #05 //051   ----------------------------------------
 BYTE   W96
//  #05 //052   ----------------------------------------
 BYTE   W54
 BYTE   W01
 BYTE   EOT
 BYTE   N12
 BYTE   W12
 BYTE   Bn2
 BYTE   W12
 BYTE   Dn3
 BYTE   W12
 BYTE   TIE  En3
 BYTE   W05
//  #05 //053   ----------------------------------------
 BYTE   W96
//  #05 //054   ----------------------------------------
 BYTE   W54
 BYTE   W01
 BYTE   EOT
 BYTE   N03  Gs3
 BYTE   W03
 BYTE   N09  An3
 BYTE   W09
 BYTE   N18  Gn3
 BYTE   W24
 BYTE   TIE  En3
 BYTE   W05
//  #05 //055   ----------------------------------------
 BYTE   W96
//  #05 //056   ----------------------------------------
 BYTE   W96
//  #05 //057   ----------------------------------------
 BYTE   W07
 BYTE   EOT
 BYTE   N03  Cs3
 BYTE   W03
 BYTE   N32  Dn3
 BYTE   W32
 BYTE   W01
 BYTE   N12  Cn3
 BYTE   W52
 BYTE   W01
//  #05 //058   ----------------------------------------
Label_012C533B:
 BYTE   W30
 BYTE   W01
 BYTE   N03  Cs3  v127
 BYTE   W03
 BYTE   N09  Dn3
 BYTE   W09
 BYTE   N12  Cn3
 BYTE   W12
 BYTE   Dn3
 BYTE   W12
 BYTE   N03  Ds3
 BYTE   W03
 BYTE   N32  En3
 BYTE   W24
 BYTE   W02
 BYTE   PEND 
//  #05 //059   ----------------------------------------
Label_012C5351:
 BYTE   W07
 BYTE   N03  Cs3  v127
 BYTE   W03
 BYTE   N32  Dn3
 BYTE   W32
 BYTE   W01
 BYTE   N12  Cn3
 BYTE   W52
 BYTE   W01
 BYTE   PEND 
//  #05 //060   ----------------------------------------
Label_012C535F:
 BYTE   W30
 BYTE   W01
 BYTE   N03  Cs3  v127
 BYTE   W03
 BYTE   N09  Dn3
 BYTE   W09
 BYTE   N12  Cn3
 BYTE   W12
 BYTE   Dn3
 BYTE   W12
 BYTE   N36  En3
 BYTE   W28
 BYTE   W01
 BYTE   PEND 
//  #05 //061   ----------------------------------------
Label_012C5372:
 BYTE   W07
 BYTE   N36  Dn3  v127
 BYTE   W36
 BYTE   N18  Cn3
 BYTE   W52
 BYTE   W01
 BYTE   PEND 
//  #05 //062   ----------------------------------------
Label_012C537C:
 BYTE   W07
 BYTE   N03  Cs3  v127
 BYTE   W03
 BYTE   N21  Dn3
 BYTE   W21
 BYTE   N12  Cn3
 BYTE   W12
 BYTE   N18  Dn3
 BYTE   W24
 BYTE   N03  Ds3
 BYTE   W03
 BYTE   N21  En3
 BYTE   W21
 BYTE   N36  Dn3
 BYTE   W05
 BYTE   PEND 
//  #05 //063   ----------------------------------------
Label_012C5394:
 BYTE   W30
 BYTE   W01
 BYTE   N36  Bn2  v127
 BYTE   W36
 BYTE   Gn2
 BYTE   W28
 BYTE   W01
 BYTE   PEND 
//  #05 //064   ----------------------------------------
Label_012C539E:
 BYTE   W07
 BYTE   N36  Gn2  v127
 BYTE   W36
 BYTE   N24  En2
 BYTE   W24
 BYTE   N18  Fn2
 BYTE   W18
 BYTE   Gn2
 BYTE   W11
 BYTE   PEND 
//  #05 //065   ----------------------------------------
Label_012C53AC:
 BYTE   W07
 BYTE   N03  Gs2  v127
 BYTE   W03
 BYTE   N21  An2
 BYTE   W21
 BYTE   N12  Gn2
 BYTE   W12
 BYTE   N03  Gs2
 BYTE   W03
 BYTE   N21  An2
 BYTE   W21
 BYTE   N12  Gn2
 BYTE   W12
 BYTE   N03  Gs2
 BYTE   W03
 BYTE   N21  An2
 BYTE   W14
 BYTE   PEND 
//  #05 //066   ----------------------------------------
Label_012C53C7:
 BYTE   W07
 BYTE   N12  Gn2  v127
 BYTE   W12
 BYTE   N03  Gs2
 BYTE   W03
 BYTE   N21  An2
 BYTE   W21
 BYTE   N12  Gn2
 BYTE   W12
 BYTE   N03  Gs2
 BYTE   W03
 BYTE   N21  An2
 BYTE   W21
 BYTE   N12  Gn2
 BYTE   W12
 BYTE   N03  As2
 BYTE   W03
 BYTE   N21  Bn2
 BYTE   W02
 BYTE   PEND 
//  #05 //067   ----------------------------------------
Label_012C53E5:
 BYTE   W19
 BYTE   N12  An2  v127
 BYTE   W12
 BYTE   N03  As2
 BYTE   W03
 BYTE   N21  Bn2
 BYTE   W21
 BYTE   N12  An2
 BYTE   W12
 BYTE   N03  As2
 BYTE   W03
 BYTE   N21  Bn2
 BYTE   W21
 BYTE   N12  An2
 BYTE   W05
 BYTE   PEND 
//  #05 //068   ----------------------------------------
Label_012C53FD:
 BYTE   W07
 BYTE   N12  Cn3  v127
 BYTE   W12
 BYTE   N12
 BYTE   W12
 BYTE   N24  Bn2
 BYTE   W24
 BYTE   An2
 BYTE   W24
 BYTE   N12  Cs3
 BYTE   W12
 BYTE   N24  Dn3
 BYTE   W05
 BYTE   PEND 
//  #05 //069   ----------------------------------------
Label_012C5410:
 BYTE   W19
 BYTE   N03  Ds3  v127
 BYTE   W03
 BYTE   N09  En3
 BYTE   W09
 BYTE   N24  Dn3
 BYTE   W24
 BYTE   N03  Ds3
 BYTE   W03
 BYTE   N09  En3
 BYTE   W09
 BYTE   N24  Dn3
 BYTE   W24
 BYTE   N03  Ds3
 BYTE   W03
 BYTE   N09  En3
 BYTE   W02
 BYTE   PEND 
//  #05 //070   ----------------------------------------
Label_012C542B:
 BYTE   W07
 BYTE   N24  Dn3  v127
 BYTE   W24
 BYTE   N03  Ds3
 BYTE   W03
 BYTE   N09  En3
 BYTE   W09
 BYTE   N24  Dn3
 BYTE   W24
 BYTE   N12  En3
 BYTE   W12
 BYTE   Gn3
 BYTE   W12
 BYTE   An3
 BYTE   W05
 BYTE   PEND 
//  #05 //071   ----------------------------------------
Label_012C5441:
 BYTE   W07
 BYTE   TIE  Gn3  v127
 BYTE   W88
 BYTE   W01
 BYTE   PEND 
//  #05 //072   ----------------------------------------
 BYTE   W13
 BYTE   EOT
 BYTE   W06
 BYTE   N15  Cs3
 BYTE   W24
 BYTE   Dn3
 BYTE   W24
 BYTE   En3
 BYTE   W24
 BYTE   N04
 BYTE   W04
 BYTE   Fn3
 BYTE   W01
//  #05 //073   ----------------------------------------
Label_012C5456:
 BYTE   W03
 BYTE   N04  Fs3  v127
 BYTE   W04
 BYTE   N24  Gn3
 BYTE   W24
 BYTE   N12  Fn3
 BYTE   W12
 BYTE   N03  Fs3
 BYTE   W03
 BYTE   N21  Gn3
 BYTE   W21
 BYTE   N12  Fn3
 BYTE   W12
 BYTE   N03  Fs3
 BYTE   W03
 BYTE   N21  Gn3
 BYTE   W14
 BYTE   PEND 
//  #05 //074   ----------------------------------------
Label_012C5471:
 BYTE   W07
 BYTE   N12  Fn3  v127
 BYTE   W12
 BYTE   N03  Fs3
 BYTE   W03
 BYTE   N21  Gn3
 BYTE   W21
 BYTE   N12  Fn3
 BYTE   W12
 BYTE   N03  Fs3
 BYTE   W03
 BYTE   N21  Gn3
 BYTE   W21
 BYTE   N12  Fn3
 BYTE   W12
 BYTE   N03  Gs3
 BYTE   W03
 BYTE   N21  An3
 BYTE   W02
 BYTE   PEND 
//  #05 //075   ----------------------------------------
Label_012C548F:
 BYTE   W19
 BYTE   N12  Gn3  v127
 BYTE   W12
 BYTE   N03  Gs3
 BYTE   W03
 BYTE   N21  An3
 BYTE   W21
 BYTE   N12  Gn3
 BYTE   W12
 BYTE   N03  Gs3
 BYTE   W03
 BYTE   N21  An3
 BYTE   W21
 BYTE   N12  Gn3
 BYTE   W05
 BYTE   PEND 
//  #05 //076   ----------------------------------------
Label_012C54A7:
 BYTE   W07
 BYTE   N12  Cs4  v127
 BYTE   W12
 BYTE   As3
 BYTE   W12
 BYTE   An3
 BYTE   W12
 BYTE   N24  En4
 BYTE   W24
 BYTE   N12  Dn4
 BYTE   W12
 BYTE   Cs4
 BYTE   W12
 BYTE   N24  Dn4
 BYTE   W05
 BYTE   PEND 
//  #05 //077   ----------------------------------------
Label_012C54BC:
 BYTE   W19
 BYTE   N03  Ds4  v127
 BYTE   W03
 BYTE   N09  En4
 BYTE   W09
 BYTE   N24  Dn4
 BYTE   W24
 BYTE   N03  Ds4
 BYTE   W03
 BYTE   N09  En4
 BYTE   W09
 BYTE   N24  Dn4
 BYTE   W24
 BYTE   N03  Ds4
 BYTE   W03
 BYTE   N09  En4
 BYTE   W02
 BYTE   PEND 
//  #05 //078   ----------------------------------------
 BYTE   W07
 BYTE   N24  Dn4
 BYTE   W24
 BYTE   N03  Ds4
 BYTE   W03
 BYTE   N09  En4
 BYTE   W09
 BYTE   N24  Dn4
 BYTE   W24
 BYTE   N12  Fn4
 BYTE   W12
 BYTE   En4
 BYTE   W12
 BYTE   TIE  Cn4
 BYTE   W05
//  #05 //079   ----------------------------------------
 BYTE   W96
//  #05 //080   ----------------------------------------
 BYTE   W13
 BYTE   EOT
 BYTE   W80
 BYTE   W03
//  #05 //081   ----------------------------------------
 BYTE   PATT
  POIN2 Label_012C51DF
//  #05 //082   ----------------------------------------
 BYTE   PATT
  POIN2 Label_012C51EE
//  #05 //083   ----------------------------------------
 BYTE   PATT
  POIN2 Label_012C51FD
//  #05 //084   ----------------------------------------
 BYTE   PATT
  POIN2 Label_012C5207
//  #05 //085   ----------------------------------------
 BYTE   W96
//  #05 //086   ----------------------------------------
 BYTE   W54
 BYTE   W01
 BYTE   EOT
 BYTE   Bn2
 BYTE   N03  Cs3  v127
 BYTE   W03
 BYTE   N21  Dn3
 BYTE   W21
 BYTE   N24  Cn3
 BYTE   W17
//  #05 //087   ----------------------------------------
 BYTE   PATT
  POIN2 Label_012C5223
//  #05 //088   ----------------------------------------
 BYTE   PATT
  POIN2 Label_012C5232
//  #05 //089   ----------------------------------------
 BYTE   W96
//  #05 //090   ----------------------------------------
 BYTE   W30
 BYTE   W01
 BYTE   EOT
 BYTE   Fn2
 BYTE   N01  Gn2  v127
 BYTE   W02
 BYTE   Gs2
 BYTE   W01
 BYTE   N21  An2
 BYTE   W21
 BYTE   N12  Cn3
 BYTE   W12
 BYTE   N18  Bn2
 BYTE   W24
 BYTE   N24  An2
 BYTE   W05
//  #05 //091   ----------------------------------------
 BYTE   PATT
  POIN2 Label_012C524E
//  #05 //092   ----------------------------------------
 BYTE   PATT
  POIN2 Label_012C5258
//  #05 //093   ----------------------------------------
 BYTE   W96
//  #05 //094   ----------------------------------------
 BYTE   W66
 BYTE   W01
 BYTE   EOT
 BYTE   As2
 BYTE   N03  Dn3  v127
 BYTE   W03
 BYTE   N21  Ds3
 BYTE   W21
 BYTE   N84  Dn3
 BYTE   W05
//  #05 //095   ----------------------------------------
 BYTE   PATT
  POIN2 Label_012C5278
//  #05 //096   ----------------------------------------
 BYTE   W96
//  #05 //097   ----------------------------------------
 BYTE   W07
 BYTE   EOT
 BYTE   Dn3
 BYTE   N72  Dn2  v127
 BYTE   W72
 BYTE   N12  Gn2
 BYTE   W12
 BYTE   N03  Bn2
 BYTE   W03
 BYTE   N32  Cn3
 BYTE   W02
//  #05 //098   ----------------------------------------
 BYTE   PATT
  POIN2 Label_012C51EE
//  #05 //099   ----------------------------------------
 BYTE   PATT
  POIN2 Label_012C51FD
//  #05 //100   ----------------------------------------
 BYTE   PATT
  POIN2 Label_012C5207
//  #05 //101   ----------------------------------------
 BYTE   W96
//  #05 //102   ----------------------------------------
 BYTE   W54
 BYTE   W01
 BYTE   EOT
 BYTE   Bn2
 BYTE   N03  Cs3  v127
 BYTE   W03
 BYTE   N21  Dn3
 BYTE   W21
 BYTE   N24  Cn3
 BYTE   W17
//  #05 //103   ----------------------------------------
 BYTE   PATT
  POIN2 Label_012C5223
//  #05 //104   ----------------------------------------
 BYTE   PATT
  POIN2 Label_012C5232
//  #05 //105   ----------------------------------------
 BYTE   W96
//  #05 //106   ----------------------------------------
 BYTE   W30
 BYTE   W01
 BYTE   EOT
 BYTE   Fn2
 BYTE   N01  Gn2  v127
 BYTE   W02
 BYTE   Gs2
 BYTE   W01
 BYTE   N21  An2
 BYTE   W21
 BYTE   N12  Cn3
 BYTE   W12
 BYTE   N18  Bn2
 BYTE   W24
 BYTE   N24  An2
 BYTE   W05
//  #05 //107   ----------------------------------------
 BYTE   PATT
  POIN2 Label_012C524E
//  #05 //108   ----------------------------------------
 BYTE   PATT
  POIN2 Label_012C5258
//  #05 //109   ----------------------------------------
 BYTE   W96
//  #05 //110   ----------------------------------------
 BYTE   W66
 BYTE   W01
 BYTE   EOT
 BYTE   As2
 BYTE   N03  Dn3  v127
 BYTE   W03
 BYTE   N21  Ds3
 BYTE   W21
 BYTE   N84  Dn3
 BYTE   W05
//  #05 //111   ----------------------------------------
 BYTE   PATT
  POIN2 Label_012C52EC
//  #05 //112   ----------------------------------------
 BYTE   W96
//  #05 //113   ----------------------------------------
 BYTE   W07
 BYTE   EOT
 BYTE   Fs3
 BYTE   TIE  En3  v127
 BYTE   W88
 BYTE   W01
//  #05 //114   ----------------------------------------
 BYTE   W30
 BYTE   W01
 BYTE   EOT
 BYTE   N24  Dn3
 BYTE   W24
 BYTE   N12  An3
 BYTE   W12
 BYTE   N18  Gn3
 BYTE   W24
 BYTE   TIE  En3
 BYTE   W05
//  #05 //115   ----------------------------------------
 BYTE   W96
//  #05 //116   ----------------------------------------
 BYTE   W54
 BYTE   W01
 BYTE   EOT
 BYTE   N12
 BYTE   W12
 BYTE   Bn2
 BYTE   W12
 BYTE   Dn3
 BYTE   W12
 BYTE   TIE  En3
 BYTE   W05
//  #05 //117   ----------------------------------------
 BYTE   W96
//  #05 //118   ----------------------------------------
 BYTE   W54
 BYTE   W01
 BYTE   EOT
 BYTE   N03  Gs3
 BYTE   W03
 BYTE   N09  An3
 BYTE   W09
 BYTE   N18  Gn3
 BYTE   W24
 BYTE   TIE  En3
 BYTE   W05
//  #05 //119   ----------------------------------------
 BYTE   W96
//  #05 //120   ----------------------------------------
 BYTE   W96
//  #05 //121   ----------------------------------------
 BYTE   W07
 BYTE   EOT
 BYTE   N03  Cs3
 BYTE   W03
 BYTE   N32  Dn3
 BYTE   W32
 BYTE   W01
 BYTE   N12  Cn3
 BYTE   W52
 BYTE   W01
//  #05 //122   ----------------------------------------
 BYTE   PATT
  POIN2 Label_012C533B
//  #05 //123   ----------------------------------------
 BYTE   PATT
  POIN2 Label_012C5351
//  #05 //124   ----------------------------------------
 BYTE   PATT
  POIN2 Label_012C535F
//  #05 //125   ----------------------------------------
 BYTE   PATT
  POIN2 Label_012C5372
//  #05 //126   ----------------------------------------
 BYTE   PATT
  POIN2 Label_012C537C
//  #05 //127   ----------------------------------------
 BYTE   PATT
  POIN2 Label_012C5394
//  #05 //128   ----------------------------------------
 BYTE   PATT
  POIN2 Label_012C539E
//  #05 //129   ----------------------------------------
 BYTE   PATT
  POIN2 Label_012C53AC
//  #05 //130   ----------------------------------------
 BYTE   PATT
  POIN2 Label_012C53C7
//  #05 //131   ----------------------------------------
 BYTE   PATT
  POIN2 Label_012C53E5
//  #05 //132   ----------------------------------------
 BYTE   PATT
  POIN2 Label_012C53FD
//  #05 //133   ----------------------------------------
 BYTE   PATT
  POIN2 Label_012C5410
//  #05 //134   ----------------------------------------
 BYTE   PATT
  POIN2 Label_012C542B
//  #05 //135   ----------------------------------------
 BYTE   PATT
  POIN2 Label_012C5441
//  #05 //136   ----------------------------------------
 BYTE   W13
 BYTE   EOT
 BYTE   Gn3
 BYTE   W06
 BYTE   N15  Cs3  v127
 BYTE   W24
 BYTE   Dn3
 BYTE   W24
 BYTE   En3
 BYTE   W24
 BYTE   N04
 BYTE   W04
 BYTE   Fn3
 BYTE   W01
//  #05 //137   ----------------------------------------
 BYTE   PATT
  POIN2 Label_012C5456
//  #05 //138   ----------------------------------------
 BYTE   PATT
  POIN2 Label_012C5471
//  #05 //139   ----------------------------------------
 BYTE   PATT
  POIN2 Label_012C548F
//  #05 //140   ----------------------------------------
 BYTE   PATT
  POIN2 Label_012C54A7
//  #05 //141   ----------------------------------------
 BYTE   PATT
  POIN2 Label_012C54BC
//  #05 //142   ----------------------------------------
 BYTE   W07
 BYTE   N24  Dn4  v127
 BYTE   W24
 BYTE   N03  Ds4
 BYTE   W03
 BYTE   N09  En4
 BYTE   W09
 BYTE   N24  Dn4
 BYTE   W24
 BYTE   N12  Fn4
 BYTE   W12
 BYTE   En4
 BYTE   W12
 BYTE   N96  Cn4
 BYTE   W05
//  #05 //143   ----------------------------------------
 BYTE   W90
 BYTE   W01
 BYTE   TIE  Cn5
 BYTE   W05
//  #05 //144   ----------------------------------------
 BYTE   W96
//  #05 //145   ----------------------------------------
 BYTE   W07
 BYTE   EOT
 BYTE   VOICE   11
 BYTE   PAN   c_v+30
 BYTE   N06  En3
 BYTE   W12
 BYTE   Bn3
 BYTE   W12
 BYTE   En4
 BYTE   W12
 BYTE   En3
 BYTE   W12
 BYTE   Bn3
 BYTE   W12
 BYTE   En4
 BYTE   W12
 BYTE   En3
 BYTE   W12
 BYTE   Bn3
 BYTE   W05
//  #05 //146   ----------------------------------------
 BYTE   PATT
  POIN2 Label_012C5143
//  #05 //147   ----------------------------------------
 BYTE   PATT
  POIN2 Label_012C5157
//  #05 //148   ----------------------------------------
 BYTE   PATT
  POIN2 Label_012C516B
//  #05 //149   ----------------------------------------
 BYTE   PATT
  POIN2 Label_012C517F
//  #05 //150   ----------------------------------------
 BYTE   PATT
  POIN2 Label_012C5143
//  #05 //151   ----------------------------------------
 BYTE   PATT
  POIN2 Label_012C5157
//  #05 //152   ----------------------------------------
 BYTE   PATT
  POIN2 Label_012C516B
//  #05 //153   ----------------------------------------
 BYTE   PATT
  POIN2 Label_012C517F
//  #05 //154   ----------------------------------------
 BYTE   PATT
  POIN2 Label_012C5143
//  #05 //155   ----------------------------------------
 BYTE   PATT
  POIN2 Label_012C5157
//  #05 //156   ----------------------------------------
 BYTE   PATT
  POIN2 Label_012C516B
//  #05 //157   ----------------------------------------
 BYTE   PATT
  POIN2 Label_012C517F
//  #05 //158   ----------------------------------------
 BYTE   PATT
  POIN2 Label_012C5143
//  #05 //159   ----------------------------------------
 BYTE   PATT
  POIN2 Label_012C5157
//  #05 //160   ----------------------------------------
 BYTE   PATT
  POIN2 Label_012C516B
//  #05 //161   ----------------------------------------
 BYTE   PATT
  POIN2 Label_012C517F
//  #05 //162   ----------------------------------------
 BYTE   PATT
  POIN2 Label_012C5143
//  #05 //163   ----------------------------------------
 BYTE   PATT
  POIN2 Label_012C5157
//  #05 //164   ----------------------------------------
 BYTE   PATT
  POIN2 Label_012C516B
//  #05 //165   ----------------------------------------
 BYTE   PATT
  POIN2 Label_012C517F
//  #05 //166   ----------------------------------------
 BYTE   PATT
  POIN2 Label_012C5143
//  #05 //167   ----------------------------------------
 BYTE   PATT
  POIN2 Label_012C51C0
//  #05 //168   ----------------------------------------
 BYTE   W96
//  #05 //169   ----------------------------------------
 BYTE   W78
 BYTE   W01
 BYTE   VOICE   81
 BYTE   PAN   c_v+0
 BYTE   W17
//  #05 //170   ----------------------------------------
 BYTE   PATT
  POIN2 Label_012C53AC
//  #05 //171   ----------------------------------------
 BYTE   PATT
  POIN2 Label_012C53C7
//  #05 //172   ----------------------------------------
 BYTE   PATT
  POIN2 Label_012C53E5
//  #05 //173   ----------------------------------------
 BYTE   PATT
  POIN2 Label_012C53FD
//  #05 //174   ----------------------------------------
 BYTE   PATT
  POIN2 Label_012C5410
//  #05 //175   ----------------------------------------
 BYTE   PATT
  POIN2 Label_012C542B
//  #05 //176   ----------------------------------------
 BYTE   PATT
  POIN2 Label_012C5441
//  #05 //177   ----------------------------------------
 BYTE   W13
 BYTE   EOT
 BYTE   Gn3
 BYTE   W06
 BYTE   N15  Cs3  v127
 BYTE   W24
 BYTE   Dn3
 BYTE   W24
 BYTE   En3
 BYTE   W24
 BYTE   N04
 BYTE   W04
 BYTE   Fn3
 BYTE   W01
//  #05 //178   ----------------------------------------
 BYTE   PATT
  POIN2 Label_012C5456
//  #05 //179   ----------------------------------------
 BYTE   PATT
  POIN2 Label_012C5471
//  #05 //180   ----------------------------------------
 BYTE   PATT
  POIN2 Label_012C548F
//  #05 //181   ----------------------------------------
 BYTE   PATT
  POIN2 Label_012C54A7
//  #05 //182   ----------------------------------------
 BYTE   PATT
  POIN2 Label_012C54BC
//  #05 //183   ----------------------------------------
 BYTE   W07
 BYTE   N24  Dn4  v127
 BYTE   W24
 BYTE   N03  Ds4
 BYTE   W03
 BYTE   N09  En4
 BYTE   W09
 BYTE   N24  Dn4
 BYTE   W24
 BYTE   N12  En4
 BYTE   W12
 BYTE   Bn4
 BYTE   W12
 BYTE   TIE  Gn4
 BYTE   W05
//  #05 //184   ----------------------------------------
 BYTE   W96
//  #05 //185   ----------------------------------------
 BYTE   W07
 BYTE   EOT
 BYTE   N03  Ds4
 BYTE   W03
 BYTE   N09  En4
 BYTE   W09
 BYTE   N24  Dn4
 BYTE   W24
 BYTE   Cs4
 BYTE   W24
 BYTE   N12  Dn4
 BYTE   W12
 BYTE   En4
 BYTE   W12
 BYTE   Gn4
 BYTE   W05
//  #05 //186   ----------------------------------------
 BYTE   W07
 BYTE   N24  Fn4
 BYTE   W24
 BYTE   N12  En4
 BYTE   W12
 BYTE   N24  Fn4
 BYTE   W24
 BYTE   N12  En4
 BYTE   W12
 BYTE   N24  Fn4
 BYTE   W17
//  #05 //187   ----------------------------------------
 BYTE   W07
 BYTE   N12  En4
 BYTE   W12
 BYTE   N24  Fn4
 BYTE   W24
 BYTE   N12  En4
 BYTE   W12
 BYTE   N24  Fn4
 BYTE   W24
 BYTE   N12  En4
 BYTE   W12
 BYTE   Fn4
 BYTE   W05
//  #05 //188   ----------------------------------------
 BYTE   W07
 BYTE   N03  Fs4
 BYTE   W03
 BYTE   N21  Gn4
 BYTE   W21
 BYTE   N12  Fn4
 BYTE   W12
 BYTE   N24  Gn4
 BYTE   W24
 BYTE   N12  Fn4
 BYTE   W12
 BYTE   N24  Gn4
 BYTE   W17
//  #05 //189   ----------------------------------------
 BYTE   W07
 BYTE   N12  Fn4
 BYTE   W12
 BYTE   N24  As4
 BYTE   W24
 BYTE   An4
 BYTE   W24
 BYTE   N12  Gn4
 BYTE   W12
 BYTE   Fn4
 BYTE   W12
 BYTE   En4
 BYTE   W05
//  #05 //190   ----------------------------------------
 BYTE   W07
 BYTE   N24  Dn4
 BYTE   W24
 BYTE   N03  Ds4
 BYTE   W03
 BYTE   N09  En4
 BYTE   W09
 BYTE   N24  Dn4
 BYTE   W24
 BYTE   N03  Ds4
 BYTE   W03
 BYTE   N09  En4
 BYTE   W09
 BYTE   N24  Dn4
 BYTE   W17
//  #05 //191   ----------------------------------------
 BYTE   W07
 BYTE   N03  Ds4
 BYTE   W03
 BYTE   N09  En4
 BYTE   W09
 BYTE   N24  Dn4
 BYTE   W24
 BYTE   N03  Ds4
 BYTE   W03
 BYTE   N09  En4
 BYTE   W09
 BYTE   N24  Dn4
 BYTE   W24
 BYTE   N12  Cn4
 BYTE   W12
 BYTE   TIE
 BYTE   W05
//  #05 //192   ----------------------------------------
 BYTE   W96
//  #05 //193   ----------------------------------------
 BYTE   W13
 BYTE   EOT
 BYTE   W06
 BYTE   N12  As3
 BYTE   W24
 BYTE   Cs4
 BYTE   W24
 BYTE   An4
 BYTE   W24
 BYTE   N03  Fs4
 BYTE   W03
 BYTE   N21  Gn4
 BYTE   W02
//  #05 //194   ----------------------------------------
 BYTE   W19
 BYTE   N12  Fn4
 BYTE   W12
 BYTE   N03  Fs4
 BYTE   W03
 BYTE   N21  Gn4
 BYTE   W21
 BYTE   N12  Fn4
 BYTE   W12
 BYTE   N03  Fs4
 BYTE   W03
 BYTE   N21  Gn4
 BYTE   W21
 BYTE   N24  Fn4
 BYTE   W05
//  #05 //195   ----------------------------------------
 BYTE   W19
 BYTE   N03  Fs4
 BYTE   W03
 BYTE   N09  Gn4
 BYTE   W09
 BYTE   N12
 BYTE   W12
 BYTE   Fn4
 BYTE   W12
 BYTE   N03  Fs4
 BYTE   W03
 BYTE   N21  Gn4
 BYTE   W21
 BYTE   N12  Fn4
 BYTE   W12
 BYTE   N03  Gs4
 BYTE   W03
 BYTE   N21  An4
 BYTE   W02
//  #05 //196   ----------------------------------------
 BYTE   W19
 BYTE   N12  Gn4
 BYTE   W12
 BYTE   N03  Gs4
 BYTE   W03
 BYTE   N21  An4
 BYTE   W21
 BYTE   N12  Gn4
 BYTE   W12
 BYTE   N03  Gs4
 BYTE   W03
 BYTE   N21  An4
 BYTE   W21
 BYTE   N12  Gn4
 BYTE   W05
//  #05 //197   ----------------------------------------
 BYTE   W19
 BYTE   Cs5
 BYTE   W12
 BYTE   As4
 BYTE   W12
 BYTE   An4
 BYTE   W12
 BYTE   Gn4
 BYTE   W12
 BYTE   Fn4
 BYTE   W12
 BYTE   En4
 BYTE   W12
 BYTE   Dn4
 BYTE   W05
//  #05 //198   ----------------------------------------
 BYTE   W07
 BYTE   N03  Ds4
 BYTE   W03
 BYTE   N21  En4
 BYTE   W21
 BYTE   N12  Dn4
 BYTE   W12
 BYTE   N03  Ds4
 BYTE   W03
 BYTE   N21  En4
 BYTE   W21
 BYTE   N12  Dn4
 BYTE   W12
 BYTE   N03  Ds4
 BYTE   W03
 BYTE   N21  En4
 BYTE   W14
//  #05 //199   ----------------------------------------
 BYTE   W07
 BYTE   N12  Dn4
 BYTE   W12
 BYTE   N03  Ds4
 BYTE   W03
 BYTE   N21  En4
 BYTE   W21
 BYTE   N12  Dn4
 BYTE   W12
 BYTE   N24  En4
 BYTE   W24
 BYTE   N12  Fn4
 BYTE   W12
 BYTE   En4
 BYTE   W05
//  #05 //200   ----------------------------------------
 BYTE   W19
 BYTE   N90  Cn4
 BYTE   W76
 BYTE   W01
//  #05 //201   ----------------------------------------
 BYTE   W78
 BYTE   W01
 BYTE   VOICE   11
 BYTE   PAN   c_v+30
 BYTE   W17
//  #05 //202   ----------------------------------------
 BYTE   PATT
  POIN2 Label_012C517F
//  #05 //203   ----------------------------------------
 BYTE   PATT
  POIN2 Label_012C5143
//  #05 //204   ----------------------------------------
 BYTE   PATT
  POIN2 Label_012C5157
//  #05 //205   ----------------------------------------
 BYTE   PATT
  POIN2 Label_012C516B
//  #05 //206   ----------------------------------------
 BYTE   PATT
  POIN2 Label_012C517F
//  #05 //207   ----------------------------------------
 BYTE   PATT
  POIN2 Label_012C5143
//  #05 //208   ----------------------------------------
 BYTE   PATT
  POIN2 Label_012C5157
//  #05 //209   ----------------------------------------
 BYTE   PATT
  POIN2 Label_012C516B
//  #05 //210   ----------------------------------------
 BYTE   PATT
  POIN2 Label_012C517F
//  #05 //211   ----------------------------------------
 BYTE   PATT
  POIN2 Label_012C5143
//  #05 //212   ----------------------------------------
 BYTE   PATT
  POIN2 Label_012C5157
//  #05 //213   ----------------------------------------
 BYTE   PATT
  POIN2 Label_012C516B
//  #05 //214   ----------------------------------------
 BYTE   PATT
  POIN2 Label_012C517F
//  #05 //215   ----------------------------------------
 BYTE   PATT
  POIN2 Label_012C5143
//  #05 //216   ----------------------------------------
 BYTE   PATT
  POIN2 Label_012C5157
//  #05 //217   ----------------------------------------
 BYTE   PATT
  POIN2 Label_012C516B
//  #05 //218   ----------------------------------------
 BYTE   PATT
  POIN2 Label_012C517F
//  #05 //219   ----------------------------------------
 BYTE   GoTo
  POIN2 Label_012C512A
//  #05 //220   ----------------------------------------
 BYTE   PATT
  POIN2 Label_012C5143
//  #05 //221   ----------------------------------------
 BYTE   PATT
  POIN2 Label_012C5157
//  #05 //222   ----------------------------------------
 BYTE   PATT
  POIN2 Label_012C516B
//  #05 //223   ----------------------------------------
 BYTE   W07
 BYTE   VOL   40*SplashWave_mvl/mxv
 BYTE   N06  En3  v127
 BYTE   W12
 BYTE   Bn3
 BYTE   W06
 BYTE   VOL   39*SplashWave_mvl/mxv
 BYTE   W06
 BYTE   N06  En4
 BYTE   W12
 BYTE   VOL   39*SplashWave_mvl/mxv
 BYTE   N06  En3
 BYTE   W12
 BYTE   Bn3
 BYTE   W06
 BYTE   VOL   38*SplashWave_mvl/mxv
 BYTE   W06
 BYTE   N06  En4
 BYTE   W12
 BYTE   VOL   37*SplashWave_mvl/mxv
 BYTE   N06  En3
 BYTE   W12
 BYTE   Bn3
 BYTE   W05
//  #05 //224   ----------------------------------------
 BYTE   W01
 BYTE   VOL   37*SplashWave_mvl/mxv
 BYTE   W06
 BYTE   N06  En4
 BYTE   W12
 BYTE   VOL   36*SplashWave_mvl/mxv
 BYTE   N06  En3
 BYTE   W12
 BYTE   Bn3
 BYTE   W06
 BYTE   VOL   35*SplashWave_mvl/mxv
 BYTE   W06
 BYTE   N06  En4
 BYTE   W12
 BYTE   VOL   35*SplashWave_mvl/mxv
 BYTE   N06  En3
 BYTE   W12
 BYTE   Bn3
 BYTE   W06
 BYTE   VOL   34*SplashWave_mvl/mxv
 BYTE   W06
 BYTE   N06  En4
 BYTE   W12
 BYTE   VOL   34*SplashWave_mvl/mxv
 BYTE   N06  Bn3
 BYTE   W05
//  #05 //225   ----------------------------------------
 BYTE   W07
 BYTE   Dn3
 BYTE   W06
 BYTE   VOL   33*SplashWave_mvl/mxv
 BYTE   W02
 BYTE   W04
 BYTE   N06  An3
 BYTE   W03
 BYTE   W07
 BYTE   W02
 BYTE   VOL   32*SplashWave_mvl/mxv
 BYTE   N06  Dn4
 BYTE   W05
 BYTE   W07
 BYTE   Dn3
 BYTE   W06
 BYTE   VOL   32*SplashWave_mvl/mxv
 BYTE   W01
 BYTE   W05
 BYTE   N06  An3
 BYTE   W02
 BYTE   W07
 BYTE   W03
 BYTE   VOL   31*SplashWave_mvl/mxv
 BYTE   N06  Dn4
 BYTE   W04
 BYTE   W08
 BYTE   Dn3
 BYTE   W06
 BYTE   VOL   30*SplashWave_mvl/mxv
 BYTE   W01
 BYTE   W05
 BYTE   N06  An3
 BYTE   W02
 BYTE   W03
//  #05 //226   ----------------------------------------
 BYTE   W04
 BYTE   W03
 BYTE   VOL   30*SplashWave_mvl/mxv
 BYTE   N06  Dn4
 BYTE   W04
 BYTE   W07
 BYTE   W01
 BYTE   Dn3
 BYTE   W06
 BYTE   VOL   29*SplashWave_mvl/mxv
 BYTE   W06
 BYTE   N06  An3
 BYTE   W01
 BYTE   W07
 BYTE   W04
 BYTE   VOL   28*SplashWave_mvl/mxv
 BYTE   N06  Dn4
 BYTE   W04
 BYTE   W07
 BYTE   W01
 BYTE   Dn3
 BYTE   W06
 BYTE   VOL   28*SplashWave_mvl/mxv
 BYTE   W06
 BYTE   N06  An3
 BYTE   W01
 BYTE   W07
 BYTE   W04
 BYTE   VOL   27*SplashWave_mvl/mxv
 BYTE   N06  Cn4
 BYTE   W03
 BYTE   W07
 BYTE   W02
 BYTE   Dn4
 BYTE   W05
//  #05 //227   ----------------------------------------
 BYTE   W01
 BYTE   VOL   27*SplashWave_mvl/mxv
 BYTE   W06
 BYTE   N06  En3
 BYTE   W12
 BYTE   VOL   26*SplashWave_mvl/mxv
 BYTE   N06  Bn3
 BYTE   W12
 BYTE   En4
 BYTE   W06
 BYTE   VOL   25*SplashWave_mvl/mxv
 BYTE   W06
 BYTE   N06  En3
 BYTE   W12
 BYTE   VOL   25*SplashWave_mvl/mxv
 BYTE   N06  Bn3
 BYTE   W12
 BYTE   En4
 BYTE   W06
 BYTE   VOL   24*SplashWave_mvl/mxv
 BYTE   W06
 BYTE   N06  En3
 BYTE   W12
 BYTE   VOL   23*SplashWave_mvl/mxv
 BYTE   N06  Bn3
 BYTE   W05
//  #05 //228   ----------------------------------------
 BYTE   W07
 BYTE   En4
 BYTE   W06
 BYTE   VOL   23*SplashWave_mvl/mxv
 BYTE   W06
 BYTE   N06  En3
 BYTE   W12
 BYTE   VOL   22*SplashWave_mvl/mxv
 BYTE   N06  Bn3
 BYTE   W12
 BYTE   En4
 BYTE   W06
 BYTE   VOL   22*SplashWave_mvl/mxv
 BYTE   W06
 BYTE   N06  En3
 BYTE   W12
 BYTE   VOL   21*SplashWave_mvl/mxv
 BYTE   N06  Bn3
 BYTE   W12
 BYTE   En4
 BYTE   W06
 BYTE   VOL   20*SplashWave_mvl/mxv
 BYTE   W06
 BYTE   N06  Bn3
 BYTE   W05
//  #05 //229   ----------------------------------------
 BYTE   W07
 BYTE   VOL   20*SplashWave_mvl/mxv
 BYTE   N06  Dn3
 BYTE   W12
 BYTE   An3
 BYTE   W06
 BYTE   VOL   19*SplashWave_mvl/mxv
 BYTE   W06
 BYTE   N06  Dn4
 BYTE   W12
 BYTE   VOL   18*SplashWave_mvl/mxv
 BYTE   N06  Dn3
 BYTE   W12
 BYTE   An3
 BYTE   W06
 BYTE   VOL   18*SplashWave_mvl/mxv
 BYTE   W06
 BYTE   N06  Dn4
 BYTE   W12
 BYTE   VOL   17*SplashWave_mvl/mxv
 BYTE   N06  Dn3
 BYTE   W12
 BYTE   An3
 BYTE   W05
//  #05 //230   ----------------------------------------
 BYTE   W01
 BYTE   VOL   17*SplashWave_mvl/mxv
 BYTE   W06
 BYTE   N06  Dn4
 BYTE   W12
 BYTE   VOL   16*SplashWave_mvl/mxv
 BYTE   N06  Dn3
 BYTE   W12
 BYTE   An3
 BYTE   W06
 BYTE   VOL   15*SplashWave_mvl/mxv
 BYTE   W06
 BYTE   N06  Dn4
 BYTE   W12
 BYTE   VOL   15*SplashWave_mvl/mxv
 BYTE   N06  Dn3
 BYTE   W12
 BYTE   An3
 BYTE   W06
 BYTE   VOL   14*SplashWave_mvl/mxv
 BYTE   W06
 BYTE   N06  Cn4
 BYTE   W12
 BYTE   VOL   13*SplashWave_mvl/mxv
 BYTE   N06  Dn4
 BYTE   W05
//  #05 //231   ----------------------------------------
 BYTE   W07
 BYTE   En3
 BYTE   W06
 BYTE   VOL   13*SplashWave_mvl/mxv
 BYTE   W06
 BYTE   N06  Bn3
 BYTE   W12
 BYTE   VOL   12*SplashWave_mvl/mxv
 BYTE   N06  En4
 BYTE   W12
 BYTE   En3
 BYTE   W06
 BYTE   VOL   11*SplashWave_mvl/mxv
 BYTE   W06
 BYTE   N06  Bn3
 BYTE   W12
 BYTE   VOL   11*SplashWave_mvl/mxv
 BYTE   N06  En4
 BYTE   W12
 BYTE   En3
 BYTE   W06
 BYTE   VOL   10*SplashWave_mvl/mxv
 BYTE   W06
 BYTE   N06  Bn3
 BYTE   W05
//  #05 //232   ----------------------------------------
 BYTE   W07
 BYTE   VOL   10*SplashWave_mvl/mxv
 BYTE   N06  En4
 BYTE   W12
 BYTE   En3
 BYTE   W06
 BYTE   VOL   9*SplashWave_mvl/mxv
 BYTE   W06
 BYTE   N06  Bn3
 BYTE   W12
 BYTE   VOL   8*SplashWave_mvl/mxv
 BYTE   N06  En4
 BYTE   W12
 BYTE   En3
 BYTE   W06
 BYTE   VOL   8*SplashWave_mvl/mxv
 BYTE   W06
 BYTE   N06  Bn3
 BYTE   W12
 BYTE   VOL   7*SplashWave_mvl/mxv
 BYTE   N06  En4
 BYTE   W12
 BYTE   Bn3
 BYTE   W05
//  #05 //233   ----------------------------------------
 BYTE   W01
 BYTE   VOL   6*SplashWave_mvl/mxv
 BYTE   W06
 BYTE   N06  Dn3
 BYTE   W12
 BYTE   VOL   6*SplashWave_mvl/mxv
 BYTE   N06  An3
 BYTE   W12
 BYTE   Dn4
 BYTE   W06
 BYTE   VOL   5*SplashWave_mvl/mxv
 BYTE   W06
 BYTE   N06  Dn3
 BYTE   W12
 BYTE   VOL   5*SplashWave_mvl/mxv
 BYTE   N06  An3
 BYTE   W12
 BYTE   Dn4
 BYTE   W06
 BYTE   VOL   4*SplashWave_mvl/mxv
 BYTE   W06
 BYTE   N06  Dn3
 BYTE   W12
 BYTE   VOL   3*SplashWave_mvl/mxv
 BYTE   N06  An3
 BYTE   W05
//  #05 //234   ----------------------------------------
 BYTE   W07
 BYTE   Dn4
 BYTE   W06
 BYTE   VOL   3*SplashWave_mvl/mxv
 BYTE   W06
 BYTE   N06  Dn3
 BYTE   W12
 BYTE   VOL   2*SplashWave_mvl/mxv
 BYTE   N06  An3
 BYTE   W12
 BYTE   Dn4
 BYTE   W06
 BYTE   VOL   1*SplashWave_mvl/mxv
 BYTE   W06
 BYTE   N06  Dn3
 BYTE   W12
 BYTE   VOL   1*SplashWave_mvl/mxv
 BYTE   N06  An3
 BYTE   W12
 BYTE   Cn4
 BYTE   W06
 BYTE   VOL   0*SplashWave_mvl/mxv
 BYTE   W06
 BYTE   N06  Dn4
 BYTE   W05
//  #05 //235   ----------------------------------------
 BYTE   W07
 BYTE   VOL   0*SplashWave_mvl/mxv
 BYTE   FINE

//**************** Track 6 (Midi-Chn.5) ****************//

SplashWave_006:
//  #06 //000   ----------------------------------------
 BYTE   KEYSH   SplashWave_key+0
Label_012BBFFE:
 BYTE   VOICE   11
 BYTE   PAN   c_v-30
 BYTE   VOL   31*SplashWave_mvl/mxv
 BYTE   W13
 BYTE   N06  En3  v127
 BYTE   W12
 BYTE   Bn3
 BYTE   W12
 BYTE   En4
 BYTE   W12
 BYTE   En3
 BYTE   W12
 BYTE   Bn3
 BYTE   W12
 BYTE   En4
 BYTE   W12
 BYTE   En3
 BYTE   W11
//  #06 //001   ----------------------------------------
Label_012BC015:
 BYTE   W01
 BYTE   N06  Bn3  v127
 BYTE   W12
 BYTE   En4
 BYTE   W12
 BYTE   En3
 BYTE   W12
 BYTE   Bn3
 BYTE   W12
 BYTE   En4
 BYTE   W12
 BYTE   En3
 BYTE   W12
 BYTE   Bn3
 BYTE   W12
 BYTE   En4
 BYTE   W11
 BYTE   PEND 
//  #06 //002   ----------------------------------------
Label_012BC029:
 BYTE   W01
 BYTE   N06  Bn3  v127
 BYTE   W12
 BYTE   Dn3
 BYTE   W12
 BYTE   An3
 BYTE   W12
 BYTE   Dn4
 BYTE   W12
 BYTE   Dn3
 BYTE   W12
 BYTE   An3
 BYTE   W12
 BYTE   Dn4
 BYTE   W12
 BYTE   Dn3
 BYTE   W11
 BYTE   PEND 
//  #06 //003   ----------------------------------------
Label_012BC03D:
 BYTE   W01
 BYTE   N06  An3  v127
 BYTE   W12
 BYTE   Dn4
 BYTE   W12
 BYTE   Dn3
 BYTE   W12
 BYTE   An3
 BYTE   W12
 BYTE   Dn4
 BYTE   W12
 BYTE   Dn3
 BYTE   W12
 BYTE   An3
 BYTE   W12
 BYTE   Cn4
 BYTE   W11
 BYTE   PEND 
//  #06 //004   ----------------------------------------
Label_012BC051:
 BYTE   W01
 BYTE   N06  Dn4  v127
 BYTE   W12
 BYTE   En3
 BYTE   W12
 BYTE   Bn3
 BYTE   W12
 BYTE   En4
 BYTE   W12
 BYTE   En3
 BYTE   W12
 BYTE   Bn3
 BYTE   W12
 BYTE   En4
 BYTE   W12
 BYTE   En3
 BYTE   W11
 BYTE   PEND 
//  #06 //005   ----------------------------------------
 BYTE   PATT
  POIN2 Label_012BC015
//  #06 //006   ----------------------------------------
 BYTE   PATT
  POIN2 Label_012BC029
//  #06 //007   ----------------------------------------
 BYTE   PATT
  POIN2 Label_012BC03D
//  #06 //008   ----------------------------------------
 BYTE   PATT
  POIN2 Label_012BC051
//  #06 //009   ----------------------------------------
 BYTE   PATT
  POIN2 Label_012BC015
//  #06 //010   ----------------------------------------
 BYTE   PATT
  POIN2 Label_012BC029
//  #06 //011   ----------------------------------------
 BYTE   PATT
  POIN2 Label_012BC03D
//  #06 //012   ----------------------------------------
 BYTE   PATT
  POIN2 Label_012BC051
//  #06 //013   ----------------------------------------
 BYTE   PATT
  POIN2 Label_012BC015
//  #06 //014   ----------------------------------------
 BYTE   PATT
  POIN2 Label_012BC029
//  #06 //015   ----------------------------------------
Label_012BC097:
 BYTE   W01
 BYTE   N06  Dn4  v127
 BYTE   W92
 BYTE   W03
 BYTE   PEND 
//  #06 //016   ----------------------------------------
 BYTE   W96
//  #06 //017   ----------------------------------------
 BYTE   W96
//  #06 //018   ----------------------------------------
 BYTE   W96
//  #06 //019   ----------------------------------------
 BYTE   W96
//  #06 //020   ----------------------------------------
 BYTE   W96
//  #06 //021   ----------------------------------------
 BYTE   W96
//  #06 //022   ----------------------------------------
 BYTE   W96
//  #06 //023   ----------------------------------------
 BYTE   W96
//  #06 //024   ----------------------------------------
 BYTE   W96
//  #06 //025   ----------------------------------------
 BYTE   W96
//  #06 //026   ----------------------------------------
 BYTE   W96
//  #06 //027   ----------------------------------------
 BYTE   W96
//  #06 //028   ----------------------------------------
 BYTE   W96
//  #06 //029   ----------------------------------------
 BYTE   W96
//  #06 //030   ----------------------------------------
 BYTE   W96
//  #06 //031   ----------------------------------------
 BYTE   W96
//  #06 //032   ----------------------------------------
 BYTE   W96
//  #06 //033   ----------------------------------------
 BYTE   W96
//  #06 //034   ----------------------------------------
 BYTE   W96
//  #06 //035   ----------------------------------------
 BYTE   W96
//  #06 //036   ----------------------------------------
 BYTE   W96
//  #06 //037   ----------------------------------------
 BYTE   W96
//  #06 //038   ----------------------------------------
 BYTE   W96
//  #06 //039   ----------------------------------------
 BYTE   W96
//  #06 //040   ----------------------------------------
 BYTE   W96
//  #06 //041   ----------------------------------------
 BYTE   W96
//  #06 //042   ----------------------------------------
 BYTE   W96
//  #06 //043   ----------------------------------------
 BYTE   W96
//  #06 //044   ----------------------------------------
 BYTE   W96
//  #06 //045   ----------------------------------------
 BYTE   W96
//  #06 //046   ----------------------------------------
 BYTE   W96
//  #06 //047   ----------------------------------------
 BYTE   W96
//  #06 //048   ----------------------------------------
 BYTE   W96
//  #06 //049   ----------------------------------------
 BYTE   W96
//  #06 //050   ----------------------------------------
 BYTE   W96
//  #06 //051   ----------------------------------------
 BYTE   W96
//  #06 //052   ----------------------------------------
 BYTE   W96
//  #06 //053   ----------------------------------------
 BYTE   W96
//  #06 //054   ----------------------------------------
 BYTE   W96
//  #06 //055   ----------------------------------------
 BYTE   W96
//  #06 //056   ----------------------------------------
 BYTE   W96
//  #06 //057   ----------------------------------------
 BYTE   W96
//  #06 //058   ----------------------------------------
 BYTE   W96
//  #06 //059   ----------------------------------------
 BYTE   W96
//  #06 //060   ----------------------------------------
 BYTE   W96
//  #06 //061   ----------------------------------------
 BYTE   W96
//  #06 //062   ----------------------------------------
 BYTE   W96
//  #06 //063   ----------------------------------------
 BYTE   W96
//  #06 //064   ----------------------------------------
 BYTE   W96
//  #06 //065   ----------------------------------------
 BYTE   W96
//  #06 //066   ----------------------------------------
 BYTE   W96
//  #06 //067   ----------------------------------------
 BYTE   W96
//  #06 //068   ----------------------------------------
 BYTE   W96
//  #06 //069   ----------------------------------------
 BYTE   W96
//  #06 //070   ----------------------------------------
 BYTE   W96
//  #06 //071   ----------------------------------------
 BYTE   W96
//  #06 //072   ----------------------------------------
 BYTE   W96
//  #06 //073   ----------------------------------------
 BYTE   W96
//  #06 //074   ----------------------------------------
 BYTE   W96
//  #06 //075   ----------------------------------------
 BYTE   W96
//  #06 //076   ----------------------------------------
 BYTE   W96
//  #06 //077   ----------------------------------------
 BYTE   W96
//  #06 //078   ----------------------------------------
 BYTE   W96
//  #06 //079   ----------------------------------------
 BYTE   W96
//  #06 //080   ----------------------------------------
 BYTE   W96
//  #06 //081   ----------------------------------------
 BYTE   W96
//  #06 //082   ----------------------------------------
 BYTE   W96
//  #06 //083   ----------------------------------------
 BYTE   W96
//  #06 //084   ----------------------------------------
 BYTE   W96
//  #06 //085   ----------------------------------------
 BYTE   W96
//  #06 //086   ----------------------------------------
 BYTE   W96
//  #06 //087   ----------------------------------------
 BYTE   W96
//  #06 //088   ----------------------------------------
 BYTE   W96
//  #06 //089   ----------------------------------------
 BYTE   W96
//  #06 //090   ----------------------------------------
 BYTE   W96
//  #06 //091   ----------------------------------------
 BYTE   W96
//  #06 //092   ----------------------------------------
 BYTE   W96
//  #06 //093   ----------------------------------------
 BYTE   W96
//  #06 //094   ----------------------------------------
 BYTE   W96
//  #06 //095   ----------------------------------------
 BYTE   W96
//  #06 //096   ----------------------------------------
 BYTE   W96
//  #06 //097   ----------------------------------------
 BYTE   W96
//  #06 //098   ----------------------------------------
 BYTE   W96
//  #06 //099   ----------------------------------------
 BYTE   W96
//  #06 //100   ----------------------------------------
 BYTE   W96
//  #06 //101   ----------------------------------------
 BYTE   W96
//  #06 //102   ----------------------------------------
 BYTE   W96
//  #06 //103   ----------------------------------------
 BYTE   W96
//  #06 //104   ----------------------------------------
 BYTE   W96
//  #06 //105   ----------------------------------------
 BYTE   W96
//  #06 //106   ----------------------------------------
 BYTE   W96
//  #06 //107   ----------------------------------------
 BYTE   W96
//  #06 //108   ----------------------------------------
 BYTE   W96
//  #06 //109   ----------------------------------------
 BYTE   W96
//  #06 //110   ----------------------------------------
 BYTE   W96
//  #06 //111   ----------------------------------------
 BYTE   W96
//  #06 //112   ----------------------------------------
 BYTE   W96
//  #06 //113   ----------------------------------------
 BYTE   W96
//  #06 //114   ----------------------------------------
 BYTE   W96
//  #06 //115   ----------------------------------------
 BYTE   W96
//  #06 //116   ----------------------------------------
 BYTE   W96
//  #06 //117   ----------------------------------------
 BYTE   W96
//  #06 //118   ----------------------------------------
 BYTE   W96
//  #06 //119   ----------------------------------------
 BYTE   W96
//  #06 //120   ----------------------------------------
 BYTE   W96
//  #06 //121   ----------------------------------------
 BYTE   W96
//  #06 //122   ----------------------------------------
 BYTE   W96
//  #06 //123   ----------------------------------------
 BYTE   W96
//  #06 //124   ----------------------------------------
 BYTE   W96
//  #06 //125   ----------------------------------------
 BYTE   W96
//  #06 //126   ----------------------------------------
 BYTE   W96
//  #06 //127   ----------------------------------------
 BYTE   W96
//  #06 //128   ----------------------------------------
 BYTE   W96
//  #06 //129   ----------------------------------------
 BYTE   W96
//  #06 //130   ----------------------------------------
 BYTE   W96
//  #06 //131   ----------------------------------------
 BYTE   W96
//  #06 //132   ----------------------------------------
 BYTE   W96
//  #06 //133   ----------------------------------------
 BYTE   W96
//  #06 //134   ----------------------------------------
 BYTE   W96
//  #06 //135   ----------------------------------------
 BYTE   W96
//  #06 //136   ----------------------------------------
 BYTE   W96
//  #06 //137   ----------------------------------------
 BYTE   W96
//  #06 //138   ----------------------------------------
 BYTE   W96
//  #06 //139   ----------------------------------------
 BYTE   W96
//  #06 //140   ----------------------------------------
 BYTE   W96
//  #06 //141   ----------------------------------------
 BYTE   W96
//  #06 //142   ----------------------------------------
 BYTE   W96
//  #06 //143   ----------------------------------------
 BYTE   W96
//  #06 //144   ----------------------------------------
 BYTE   W96
//  #06 //145   ----------------------------------------
 BYTE   W07
 BYTE   VOICE   11
 BYTE   W06
 BYTE   N06  En3
 BYTE   W12
 BYTE   Bn3
 BYTE   W12
 BYTE   En4
 BYTE   W12
 BYTE   En3
 BYTE   W12
 BYTE   Bn3
 BYTE   W12
 BYTE   En4
 BYTE   W12
 BYTE   En3
 BYTE   W11
//  #06 //146   ----------------------------------------
 BYTE   PATT
  POIN2 Label_012BC015
//  #06 //147   ----------------------------------------
 BYTE   PATT
  POIN2 Label_012BC029
//  #06 //148   ----------------------------------------
 BYTE   PATT
  POIN2 Label_012BC03D
//  #06 //149   ----------------------------------------
 BYTE   PATT
  POIN2 Label_012BC051
//  #06 //150   ----------------------------------------
 BYTE   PATT
  POIN2 Label_012BC015
//  #06 //151   ----------------------------------------
 BYTE   PATT
  POIN2 Label_012BC029
//  #06 //152   ----------------------------------------
 BYTE   PATT
  POIN2 Label_012BC03D
//  #06 //153   ----------------------------------------
 BYTE   PATT
  POIN2 Label_012BC051
//  #06 //154   ----------------------------------------
 BYTE   PATT
  POIN2 Label_012BC015
//  #06 //155   ----------------------------------------
 BYTE   PATT
  POIN2 Label_012BC029
//  #06 //156   ----------------------------------------
 BYTE   PATT
  POIN2 Label_012BC03D
//  #06 //157   ----------------------------------------
 BYTE   PATT
  POIN2 Label_012BC051
//  #06 //158   ----------------------------------------
 BYTE   PATT
  POIN2 Label_012BC015
//  #06 //159   ----------------------------------------
 BYTE   PATT
  POIN2 Label_012BC029
//  #06 //160   ----------------------------------------
 BYTE   PATT
  POIN2 Label_012BC03D
//  #06 //161   ----------------------------------------
 BYTE   PATT
  POIN2 Label_012BC051
//  #06 //162   ----------------------------------------
 BYTE   PATT
  POIN2 Label_012BC015
//  #06 //163   ----------------------------------------
 BYTE   PATT
  POIN2 Label_012BC029
//  #06 //164   ----------------------------------------
 BYTE   PATT
  POIN2 Label_012BC03D
//  #06 //165   ----------------------------------------
 BYTE   PATT
  POIN2 Label_012BC051
//  #06 //166   ----------------------------------------
 BYTE   PATT
  POIN2 Label_012BC015
//  #06 //167   ----------------------------------------
 BYTE   PATT
  POIN2 Label_012BC029
//  #06 //168   ----------------------------------------
 BYTE   PATT
  POIN2 Label_012BC097
//  #06 //169   ----------------------------------------
 BYTE   W96
//  #06 //170   ----------------------------------------
 BYTE   W96
//  #06 //171   ----------------------------------------
 BYTE   W96
//  #06 //172   ----------------------------------------
 BYTE   W96
//  #06 //173   ----------------------------------------
 BYTE   W96
//  #06 //174   ----------------------------------------
 BYTE   W96
//  #06 //175   ----------------------------------------
 BYTE   W96
//  #06 //176   ----------------------------------------
 BYTE   W96
//  #06 //177   ----------------------------------------
 BYTE   W96
//  #06 //178   ----------------------------------------
 BYTE   W96
//  #06 //179   ----------------------------------------
 BYTE   W96
//  #06 //180   ----------------------------------------
 BYTE   W96
//  #06 //181   ----------------------------------------
 BYTE   W96
//  #06 //182   ----------------------------------------
 BYTE   W96
//  #06 //183   ----------------------------------------
 BYTE   W96
//  #06 //184   ----------------------------------------
 BYTE   W96
//  #06 //185   ----------------------------------------
 BYTE   W96
//  #06 //186   ----------------------------------------
 BYTE   W96
//  #06 //187   ----------------------------------------
 BYTE   W96
//  #06 //188   ----------------------------------------
 BYTE   W96
//  #06 //189   ----------------------------------------
 BYTE   W96
//  #06 //190   ----------------------------------------
 BYTE   W96
//  #06 //191   ----------------------------------------
 BYTE   W96
//  #06 //192   ----------------------------------------
 BYTE   W96
//  #06 //193   ----------------------------------------
 BYTE   W96
//  #06 //194   ----------------------------------------
 BYTE   W96
//  #06 //195   ----------------------------------------
 BYTE   W96
//  #06 //196   ----------------------------------------
 BYTE   W96
//  #06 //197   ----------------------------------------
 BYTE   W96
//  #06 //198   ----------------------------------------
 BYTE   W96
//  #06 //199   ----------------------------------------
 BYTE   W96
//  #06 //200   ----------------------------------------
 BYTE   W96
//  #06 //201   ----------------------------------------
 BYTE   W78
 BYTE   W01
 BYTE   VOICE   11
 BYTE   W17
//  #06 //202   ----------------------------------------
 BYTE   W13
 BYTE   N06  En3  v127
 BYTE   W12
 BYTE   Bn3
 BYTE   W12
 BYTE   En4
 BYTE   W12
 BYTE   En3
 BYTE   W12
 BYTE   Bn3
 BYTE   W12
 BYTE   En4
 BYTE   W12
 BYTE   En3
 BYTE   W11
//  #06 //203   ----------------------------------------
 BYTE   PATT
  POIN2 Label_012BC015
//  #06 //204   ----------------------------------------
 BYTE   PATT
  POIN2 Label_012BC029
//  #06 //205   ----------------------------------------
 BYTE   PATT
  POIN2 Label_012BC03D
//  #06 //206   ----------------------------------------
 BYTE   PATT
  POIN2 Label_012BC051
//  #06 //207   ----------------------------------------
 BYTE   PATT
  POIN2 Label_012BC015
//  #06 //208   ----------------------------------------
 BYTE   PATT
  POIN2 Label_012BC029
//  #06 //209   ----------------------------------------
 BYTE   PATT
  POIN2 Label_012BC03D
//  #06 //210   ----------------------------------------
 BYTE   PATT
  POIN2 Label_012BC051
//  #06 //211   ----------------------------------------
 BYTE   PATT
  POIN2 Label_012BC015
//  #06 //212   ----------------------------------------
 BYTE   PATT
  POIN2 Label_012BC029
//  #06 //213   ----------------------------------------
 BYTE   PATT
  POIN2 Label_012BC03D
//  #06 //214   ----------------------------------------
 BYTE   PATT
  POIN2 Label_012BC051
//  #06 //215   ----------------------------------------
 BYTE   PATT
  POIN2 Label_012BC015
//  #06 //216   ----------------------------------------
 BYTE   PATT
  POIN2 Label_012BC029
//  #06 //217   ----------------------------------------
 BYTE   PATT
  POIN2 Label_012BC03D
//  #06 //218   ----------------------------------------
 BYTE   PATT
  POIN2 Label_012BC051
//  #06 //219   ----------------------------------------
 BYTE   GoTo
  POIN2 Label_012BBFFE
//  #06 //220   ----------------------------------------
 BYTE   PATT
  POIN2 Label_012BC015
//  #06 //221   ----------------------------------------
 BYTE   PATT
  POIN2 Label_012BC029
//  #06 //222   ----------------------------------------
 BYTE   PATT
  POIN2 Label_012BC03D
//  #06 //223   ----------------------------------------
 BYTE   W01
 BYTE   N06  Dn4  v127
 BYTE   W06
 BYTE   VOL   31*SplashWave_mvl/mxv
 BYTE   W06
 BYTE   N06  En3
 BYTE   W12
 BYTE   Bn3
 BYTE   W05
 BYTE   VOL   30*SplashWave_mvl/mxv
 BYTE   W07
 BYTE   N06  En4
 BYTE   W12
 BYTE   En3
 BYTE   W05
 BYTE   VOL   30*SplashWave_mvl/mxv
 BYTE   W07
 BYTE   N06  Bn3
 BYTE   W12
 BYTE   En4
 BYTE   W04
 BYTE   VOL   29*SplashWave_mvl/mxv
 BYTE   W08
 BYTE   N06  En3
 BYTE   W11
//  #06 //224   ----------------------------------------
 BYTE   W01
 BYTE   Bn3
 BYTE   W03
 BYTE   VOL   28*SplashWave_mvl/mxv
 BYTE   W09
 BYTE   N06  En4
 BYTE   W12
 BYTE   En3
 BYTE   W02
 BYTE   VOL   28*SplashWave_mvl/mxv
 BYTE   W10
 BYTE   N06  Bn3
 BYTE   W12
 BYTE   En4
 BYTE   W01
 BYTE   VOL   27*SplashWave_mvl/mxv
 BYTE   W11
 BYTE   N06  En3
 BYTE   W12
 BYTE   VOL   27*SplashWave_mvl/mxv
 BYTE   N06  Bn3
 BYTE   W12
 BYTE   En4
 BYTE   W11
//  #06 //225   ----------------------------------------
 BYTE   VOL   26*SplashWave_mvl/mxv
 BYTE   W01
 BYTE   N06  Bn3
 BYTE   W06
 BYTE   W06
 BYTE   Dn3
 BYTE   W02
 BYTE   W07
 BYTE   W01
 BYTE   VOL   25*SplashWave_mvl/mxv
 BYTE   W02
 BYTE   N06  An3
 BYTE   W04
 BYTE   W07
 BYTE   W01
 BYTE   Dn4
 BYTE   W06
 BYTE   W03
 BYTE   VOL   25*SplashWave_mvl/mxv
 BYTE   W03
 BYTE   N06  Dn3
 BYTE   W01
 BYTE   W07
 BYTE   W04
 BYTE   An3
 BYTE   W03
 BYTE   W05
 BYTE   VOL   24*SplashWave_mvl/mxv
 BYTE   W02
 BYTE   W02
 BYTE   N06  Dn4
 BYTE   W06
 BYTE   W06
 BYTE   Dn3
 BYTE   W01
 BYTE   W06
 BYTE   VOL   23*SplashWave_mvl/mxv
 BYTE   W01
 BYTE   W03
//  #06 //226   ----------------------------------------
 BYTE   W01
 BYTE   N06  An3
 BYTE   W03
 BYTE   W07
 BYTE   W02
 BYTE   Dn4
 BYTE   W05
 BYTE   W01
 BYTE   VOL   23*SplashWave_mvl/mxv
 BYTE   W06
 BYTE   N06  Dn3
 BYTE   W07
 BYTE   W05
 BYTE   An3
 BYTE   W02
 BYTE   W03
 BYTE   VOL   22*SplashWave_mvl/mxv
 BYTE   W05
 BYTE   W02
 BYTE   N06  Dn4
 BYTE   W05
 BYTE   W07
 BYTE   Dn3
 BYTE   W04
 BYTE   VOL   22*SplashWave_mvl/mxv
 BYTE   W03
 BYTE   W05
 BYTE   N06  An3
 BYTE   W02
 BYTE   W07
 BYTE   W03
 BYTE   Cn4
 BYTE   W03
 BYTE   VOL   21*SplashWave_mvl/mxv
 BYTE   W01
 BYTE   W07
//  #06 //227   ----------------------------------------
 BYTE   W01
 BYTE   N06  Dn4
 BYTE   W06
 BYTE   W06
 BYTE   En3
 BYTE   W02
 BYTE   VOL   20*SplashWave_mvl/mxv
 BYTE   W10
 BYTE   N06  Bn3
 BYTE   W12
 BYTE   En4
 BYTE   W01
 BYTE   VOL   20*SplashWave_mvl/mxv
 BYTE   W11
 BYTE   N06  En3
 BYTE   W12
 BYTE   VOL   19*SplashWave_mvl/mxv
 BYTE   N06  Bn3
 BYTE   W12
 BYTE   En4
 BYTE   W11
 BYTE   VOL   18*SplashWave_mvl/mxv
 BYTE   W01
 BYTE   N06  En3
 BYTE   W11
//  #06 //228   ----------------------------------------
 BYTE   W01
 BYTE   Bn3
 BYTE   W10
 BYTE   VOL   18*SplashWave_mvl/mxv
 BYTE   W02
 BYTE   N06  En4
 BYTE   W12
 BYTE   En3
 BYTE   W09
 BYTE   VOL   17*SplashWave_mvl/mxv
 BYTE   W03
 BYTE   N06  Bn3
 BYTE   W12
 BYTE   En4
 BYTE   W08
 BYTE   VOL   17*SplashWave_mvl/mxv
 BYTE   W04
 BYTE   N06  En3
 BYTE   W12
 BYTE   Bn3
 BYTE   W07
 BYTE   VOL   16*SplashWave_mvl/mxv
 BYTE   W05
 BYTE   N06  En4
 BYTE   W11
//  #06 //229   ----------------------------------------
 BYTE   W01
 BYTE   Bn3
 BYTE   W06
 BYTE   VOL   15*SplashWave_mvl/mxv
 BYTE   W06
 BYTE   N06  Dn3
 BYTE   W12
 BYTE   An3
 BYTE   W05
 BYTE   VOL   15*SplashWave_mvl/mxv
 BYTE   W07
 BYTE   N06  Dn4
 BYTE   W12
 BYTE   Dn3
 BYTE   W05
 BYTE   VOL   14*SplashWave_mvl/mxv
 BYTE   W07
 BYTE   N06  An3
 BYTE   W12
 BYTE   Dn4
 BYTE   W04
 BYTE   VOL   13*SplashWave_mvl/mxv
 BYTE   W08
 BYTE   N06  Dn3
 BYTE   W11
//  #06 //230   ----------------------------------------
 BYTE   W01
 BYTE   An3
 BYTE   W03
 BYTE   VOL   13*SplashWave_mvl/mxv
 BYTE   W09
 BYTE   N06  Dn4
 BYTE   W12
 BYTE   Dn3
 BYTE   W02
 BYTE   VOL   12*SplashWave_mvl/mxv
 BYTE   W10
 BYTE   N06  An3
 BYTE   W12
 BYTE   Dn4
 BYTE   W01
 BYTE   VOL   11*SplashWave_mvl/mxv
 BYTE   W11
 BYTE   N06  Dn3
 BYTE   W12
 BYTE   VOL   11*SplashWave_mvl/mxv
 BYTE   N06  An3
 BYTE   W12
 BYTE   Cn4
 BYTE   W11
//  #06 //231   ----------------------------------------
 BYTE   VOL   10*SplashWave_mvl/mxv
 BYTE   W01
 BYTE   N06  Dn4
 BYTE   W12
 BYTE   En3
 BYTE   W10
 BYTE   VOL   10*SplashWave_mvl/mxv
 BYTE   W02
 BYTE   N06  Bn3
 BYTE   W12
 BYTE   En4
 BYTE   W09
 BYTE   VOL   9*SplashWave_mvl/mxv
 BYTE   W03
 BYTE   N06  En3
 BYTE   W12
 BYTE   Bn3
 BYTE   W08
 BYTE   VOL   8*SplashWave_mvl/mxv
 BYTE   W04
 BYTE   N06  En4
 BYTE   W12
 BYTE   En3
 BYTE   W07
 BYTE   VOL   8*SplashWave_mvl/mxv
 BYTE   W04
//  #06 //232   ----------------------------------------
 BYTE   W01
 BYTE   N06  Bn3
 BYTE   W12
 BYTE   En4
 BYTE   W06
 BYTE   VOL   7*SplashWave_mvl/mxv
 BYTE   W06
 BYTE   N06  En3
 BYTE   W12
 BYTE   Bn3
 BYTE   W05
 BYTE   VOL   6*SplashWave_mvl/mxv
 BYTE   W07
 BYTE   N06  En4
 BYTE   W12
 BYTE   En3
 BYTE   W04
 BYTE   VOL   6*SplashWave_mvl/mxv
 BYTE   W08
 BYTE   N06  Bn3
 BYTE   W12
 BYTE   En4
 BYTE   W03
 BYTE   VOL   5*SplashWave_mvl/mxv
 BYTE   W08
//  #06 //233   ----------------------------------------
 BYTE   W01
 BYTE   N06  Bn3
 BYTE   W12
 BYTE   Dn3
 BYTE   W02
 BYTE   VOL   5*SplashWave_mvl/mxv
 BYTE   W10
 BYTE   N06  An3
 BYTE   W12
 BYTE   Dn4
 BYTE   W01
 BYTE   VOL   4*SplashWave_mvl/mxv
 BYTE   W11
 BYTE   N06  Dn3
 BYTE   W12
 BYTE   VOL   3*SplashWave_mvl/mxv
 BYTE   N06  An3
 BYTE   W12
 BYTE   Dn4
 BYTE   W11
 BYTE   VOL   3*SplashWave_mvl/mxv
 BYTE   W01
 BYTE   N06  Dn3
 BYTE   W11
//  #06 //234   ----------------------------------------
 BYTE   W01
 BYTE   An3
 BYTE   W10
 BYTE   VOL   2*SplashWave_mvl/mxv
 BYTE   W02
 BYTE   N06  Dn4
 BYTE   W12
 BYTE   Dn3
 BYTE   W09
 BYTE   VOL   1*SplashWave_mvl/mxv
 BYTE   W03
 BYTE   N06  An3
 BYTE   W12
 BYTE   Dn4
 BYTE   W08
 BYTE   VOL   1*SplashWave_mvl/mxv
 BYTE   W04
 BYTE   N06  Dn3
 BYTE   W12
 BYTE   An3
 BYTE   W07
 BYTE   VOL   0*SplashWave_mvl/mxv
 BYTE   W05
 BYTE   N06  Cn4
 BYTE   W11
//  #06 //235   ----------------------------------------
 BYTE   W07
 BYTE   VOL   0*SplashWave_mvl/mxv
 BYTE   FINE

//**************** Track 7 (Midi-Chn.6) ****************//

SplashWave_007:
//  #07 //000   ----------------------------------------
 BYTE   KEYSH   SplashWave_key+0
Label_012BC3FE:
 BYTE   W96
//  #07 //001   ----------------------------------------
 BYTE   W96
//  #07 //002   ----------------------------------------
 BYTE   W96
//  #07 //003   ----------------------------------------
 BYTE   W96
//  #07 //004   ----------------------------------------
 BYTE   W96
//  #07 //005   ----------------------------------------
 BYTE   W96
//  #07 //006   ----------------------------------------
 BYTE   W96
//  #07 //007   ----------------------------------------
 BYTE   W96
//  #07 //008   ----------------------------------------
 BYTE   W96
//  #07 //009   ----------------------------------------
 BYTE   W96
//  #07 //010   ----------------------------------------
 BYTE   W96
//  #07 //011   ----------------------------------------
 BYTE   W96
//  #07 //012   ----------------------------------------
 BYTE   W96
//  #07 //013   ----------------------------------------
 BYTE   W96
//  #07 //014   ----------------------------------------
 BYTE   W54
 BYTE   W01
 BYTE   VOL   45*SplashWave_mvl/mxv
 BYTE   W40
 BYTE   W01
//  #07 //015   ----------------------------------------
Label_012BC412:
 BYTE   W07
 BYTE   N08  Dn1  v100
 BYTE   N08  Dn2
 BYTE   W08
 BYTE   An1
 BYTE   N08  An2
 BYTE   W08
 BYTE   Dn2
 BYTE   N08  Dn3
 BYTE   W08
 BYTE   Ds1
 BYTE   N08  Ds2
 BYTE   W08
 BYTE   As1
 BYTE   N08  As2
 BYTE   W08
 BYTE   Ds2
 BYTE   N08  Ds3
 BYTE   W08
 BYTE   En1
 BYTE   N08  En2
 BYTE   W08
 BYTE   Bn1
 BYTE   N08  Bn2
 BYTE   W08
 BYTE   En2
 BYTE   N08  En3
 BYTE   W08
 BYTE   Fn1
 BYTE   N08  Fn2
 BYTE   W08
 BYTE   Cn2
 BYTE   N08  Cn3
 BYTE   W08
 BYTE   Fn2
 BYTE   N08  Fn3
 BYTE   W01
 BYTE   PEND 
//  #07 //016   ----------------------------------------
Label_012BC446:
 BYTE   W07
 BYTE   N08  Fs1  v100
 BYTE   N08  Fs2
 BYTE   W08
 BYTE   Cs2
 BYTE   N08  Cs3
 BYTE   W08
 BYTE   Fs2
 BYTE   N08  Fs3
 BYTE   W08
 BYTE   Gn1
 BYTE   N08  Gn2
 BYTE   W08
 BYTE   Dn2
 BYTE   N08  Dn3
 BYTE   W08
 BYTE   Gn2
 BYTE   N08  Gn3
 BYTE   W08
 BYTE   Gs1
 BYTE   N08  Gs2
 BYTE   W08
 BYTE   Ds2
 BYTE   N08  Ds3
 BYTE   W08
 BYTE   Gs2
 BYTE   N08  Gs3
 BYTE   W08
 BYTE   An1
 BYTE   N08  An2
 BYTE   W08
 BYTE   En2
 BYTE   N08  En3
 BYTE   W08
 BYTE   An2
 BYTE   N08  An3
 BYTE   W01
 BYTE   PEND 
//  #07 //017   ----------------------------------------
 BYTE   W96
//  #07 //018   ----------------------------------------
 BYTE   W96
//  #07 //019   ----------------------------------------
 BYTE   W96
//  #07 //020   ----------------------------------------
 BYTE   W96
//  #07 //021   ----------------------------------------
 BYTE   W96
//  #07 //022   ----------------------------------------
 BYTE   W96
//  #07 //023   ----------------------------------------
 BYTE   W96
//  #07 //024   ----------------------------------------
 BYTE   W96
//  #07 //025   ----------------------------------------
 BYTE   W96
//  #07 //026   ----------------------------------------
 BYTE   W96
//  #07 //027   ----------------------------------------
 BYTE   W96
//  #07 //028   ----------------------------------------
 BYTE   W96
//  #07 //029   ----------------------------------------
 BYTE   W96
//  #07 //030   ----------------------------------------
 BYTE   W96
//  #07 //031   ----------------------------------------
 BYTE   W96
//  #07 //032   ----------------------------------------
 BYTE   W96
//  #07 //033   ----------------------------------------
 BYTE   W96
//  #07 //034   ----------------------------------------
 BYTE   W96
//  #07 //035   ----------------------------------------
 BYTE   W96
//  #07 //036   ----------------------------------------
 BYTE   W96
//  #07 //037   ----------------------------------------
 BYTE   W96
//  #07 //038   ----------------------------------------
 BYTE   W96
//  #07 //039   ----------------------------------------
 BYTE   W96
//  #07 //040   ----------------------------------------
 BYTE   W96
//  #07 //041   ----------------------------------------
 BYTE   W96
//  #07 //042   ----------------------------------------
 BYTE   W96
//  #07 //043   ----------------------------------------
 BYTE   W96
//  #07 //044   ----------------------------------------
 BYTE   W96
//  #07 //045   ----------------------------------------
 BYTE   W96
//  #07 //046   ----------------------------------------
 BYTE   W96
//  #07 //047   ----------------------------------------
 BYTE   W96
//  #07 //048   ----------------------------------------
 BYTE   W96
//  #07 //049   ----------------------------------------
 BYTE   W96
//  #07 //050   ----------------------------------------
 BYTE   W96
//  #07 //051   ----------------------------------------
 BYTE   W96
//  #07 //052   ----------------------------------------
 BYTE   W96
//  #07 //053   ----------------------------------------
 BYTE   W96
//  #07 //054   ----------------------------------------
 BYTE   W96
//  #07 //055   ----------------------------------------
 BYTE   W96
//  #07 //056   ----------------------------------------
 BYTE   W96
//  #07 //057   ----------------------------------------
 BYTE   W96
//  #07 //058   ----------------------------------------
 BYTE   W96
//  #07 //059   ----------------------------------------
 BYTE   W96
//  #07 //060   ----------------------------------------
 BYTE   W96
//  #07 //061   ----------------------------------------
 BYTE   W96
//  #07 //062   ----------------------------------------
 BYTE   W96
//  #07 //063   ----------------------------------------
 BYTE   W96
//  #07 //064   ----------------------------------------
 BYTE   W96
//  #07 //065   ----------------------------------------
 BYTE   W96
//  #07 //066   ----------------------------------------
 BYTE   W96
//  #07 //067   ----------------------------------------
 BYTE   W96
//  #07 //068   ----------------------------------------
 BYTE   W96
//  #07 //069   ----------------------------------------
 BYTE   W96
//  #07 //070   ----------------------------------------
 BYTE   W96
//  #07 //071   ----------------------------------------
 BYTE   W96
//  #07 //072   ----------------------------------------
 BYTE   W96
//  #07 //073   ----------------------------------------
 BYTE   W96
//  #07 //074   ----------------------------------------
 BYTE   W96
//  #07 //075   ----------------------------------------
 BYTE   W96
//  #07 //076   ----------------------------------------
 BYTE   W96
//  #07 //077   ----------------------------------------
 BYTE   W96
//  #07 //078   ----------------------------------------
 BYTE   W96
//  #07 //079   ----------------------------------------
 BYTE   W96
//  #07 //080   ----------------------------------------
 BYTE   W96
//  #07 //081   ----------------------------------------
 BYTE   W96
//  #07 //082   ----------------------------------------
 BYTE   W96
//  #07 //083   ----------------------------------------
 BYTE   W96
//  #07 //084   ----------------------------------------
 BYTE   W96
//  #07 //085   ----------------------------------------
 BYTE   W96
//  #07 //086   ----------------------------------------
 BYTE   W96
//  #07 //087   ----------------------------------------
 BYTE   W96
//  #07 //088   ----------------------------------------
 BYTE   W96
//  #07 //089   ----------------------------------------
 BYTE   W96
//  #07 //090   ----------------------------------------
 BYTE   W96
//  #07 //091   ----------------------------------------
 BYTE   W96
//  #07 //092   ----------------------------------------
 BYTE   W96
//  #07 //093   ----------------------------------------
 BYTE   W96
//  #07 //094   ----------------------------------------
 BYTE   W96
//  #07 //095   ----------------------------------------
 BYTE   W96
//  #07 //096   ----------------------------------------
 BYTE   W96
//  #07 //097   ----------------------------------------
 BYTE   W96
//  #07 //098   ----------------------------------------
 BYTE   W96
//  #07 //099   ----------------------------------------
 BYTE   W96
//  #07 //100   ----------------------------------------
 BYTE   W96
//  #07 //101   ----------------------------------------
 BYTE   W96
//  #07 //102   ----------------------------------------
 BYTE   W96
//  #07 //103   ----------------------------------------
 BYTE   W96
//  #07 //104   ----------------------------------------
 BYTE   W96
//  #07 //105   ----------------------------------------
 BYTE   W96
//  #07 //106   ----------------------------------------
 BYTE   W96
//  #07 //107   ----------------------------------------
 BYTE   W96
//  #07 //108   ----------------------------------------
 BYTE   W96
//  #07 //109   ----------------------------------------
 BYTE   W96
//  #07 //110   ----------------------------------------
 BYTE   W96
//  #07 //111   ----------------------------------------
 BYTE   W96
//  #07 //112   ----------------------------------------
 BYTE   W96
//  #07 //113   ----------------------------------------
 BYTE   W96
//  #07 //114   ----------------------------------------
 BYTE   W96
//  #07 //115   ----------------------------------------
 BYTE   W96
//  #07 //116   ----------------------------------------
 BYTE   W96
//  #07 //117   ----------------------------------------
 BYTE   W96
//  #07 //118   ----------------------------------------
 BYTE   W96
//  #07 //119   ----------------------------------------
 BYTE   W96
//  #07 //120   ----------------------------------------
 BYTE   W96
//  #07 //121   ----------------------------------------
 BYTE   W96
//  #07 //122   ----------------------------------------
 BYTE   W96
//  #07 //123   ----------------------------------------
 BYTE   W96
//  #07 //124   ----------------------------------------
 BYTE   W96
//  #07 //125   ----------------------------------------
 BYTE   W96
//  #07 //126   ----------------------------------------
 BYTE   W96
//  #07 //127   ----------------------------------------
 BYTE   W96
//  #07 //128   ----------------------------------------
 BYTE   W96
//  #07 //129   ----------------------------------------
 BYTE   W96
//  #07 //130   ----------------------------------------
 BYTE   W96
//  #07 //131   ----------------------------------------
 BYTE   W96
//  #07 //132   ----------------------------------------
 BYTE   W96
//  #07 //133   ----------------------------------------
 BYTE   W96
//  #07 //134   ----------------------------------------
 BYTE   W96
//  #07 //135   ----------------------------------------
 BYTE   W96
//  #07 //136   ----------------------------------------
 BYTE   W96
//  #07 //137   ----------------------------------------
 BYTE   W96
//  #07 //138   ----------------------------------------
 BYTE   W96
//  #07 //139   ----------------------------------------
 BYTE   W96
//  #07 //140   ----------------------------------------
 BYTE   W96
//  #07 //141   ----------------------------------------
 BYTE   W96
//  #07 //142   ----------------------------------------
 BYTE   W96
//  #07 //143   ----------------------------------------
 BYTE   W96
//  #07 //144   ----------------------------------------
 BYTE   W96
//  #07 //145   ----------------------------------------
 BYTE   W96
//  #07 //146   ----------------------------------------
 BYTE   W96
//  #07 //147   ----------------------------------------
 BYTE   W96
//  #07 //148   ----------------------------------------
 BYTE   W96
//  #07 //149   ----------------------------------------
 BYTE   W96
//  #07 //150   ----------------------------------------
 BYTE   W96
//  #07 //151   ----------------------------------------
 BYTE   W96
//  #07 //152   ----------------------------------------
 BYTE   W96
//  #07 //153   ----------------------------------------
 BYTE   W96
//  #07 //154   ----------------------------------------
 BYTE   W96
//  #07 //155   ----------------------------------------
 BYTE   W96
//  #07 //156   ----------------------------------------
 BYTE   W96
//  #07 //157   ----------------------------------------
 BYTE   W96
//  #07 //158   ----------------------------------------
 BYTE   W96
//  #07 //159   ----------------------------------------
 BYTE   W96
//  #07 //160   ----------------------------------------
 BYTE   W96
//  #07 //161   ----------------------------------------
 BYTE   W96
//  #07 //162   ----------------------------------------
 BYTE   W96
//  #07 //163   ----------------------------------------
 BYTE   W96
//  #07 //164   ----------------------------------------
 BYTE   W96
//  #07 //165   ----------------------------------------
 BYTE   W96
//  #07 //166   ----------------------------------------
 BYTE   W96
//  #07 //167   ----------------------------------------
 BYTE   W96
//  #07 //168   ----------------------------------------
 BYTE   PATT
  POIN2 Label_012BC412
//  #07 //169   ----------------------------------------
 BYTE   PATT
  POIN2 Label_012BC446
//  #07 //170   ----------------------------------------
 BYTE   W96
//  #07 //171   ----------------------------------------
 BYTE   W96
//  #07 //172   ----------------------------------------
 BYTE   W96
//  #07 //173   ----------------------------------------
 BYTE   W96
//  #07 //174   ----------------------------------------
 BYTE   W96
//  #07 //175   ----------------------------------------
 BYTE   W96
//  #07 //176   ----------------------------------------
 BYTE   W96
//  #07 //177   ----------------------------------------
 BYTE   W96
//  #07 //178   ----------------------------------------
 BYTE   W96
//  #07 //179   ----------------------------------------
 BYTE   W96
//  #07 //180   ----------------------------------------
 BYTE   W96
//  #07 //181   ----------------------------------------
 BYTE   W96
//  #07 //182   ----------------------------------------
 BYTE   W96
//  #07 //183   ----------------------------------------
 BYTE   W96
//  #07 //184   ----------------------------------------
 BYTE   W78
 BYTE   W01
 BYTE   VOL   31*SplashWave_mvl/mxv
 BYTE   W17
//  #07 //185   ----------------------------------------
 BYTE   W19
 BYTE   N12  An3  v096
 BYTE   N12  Cs4
 BYTE   N12  En4
 BYTE   W12
 BYTE   An3  v100
 BYTE   N12  Cs4
 BYTE   N12  En4
 BYTE   W12
 BYTE   An3  v108
 BYTE   N12  Cs4
 BYTE   N12  En4
 BYTE   W12
 BYTE   An3  v116
 BYTE   N12  Cs4
 BYTE   N12  En4
 BYTE   W12
 BYTE   An3  v120
 BYTE   N12  Cs4
 BYTE   N12  En4
 BYTE   W12
 BYTE   An3  v127
 BYTE   N12  Cs4
 BYTE   N12  En4
 BYTE   W12
 BYTE   N36  An3
 BYTE   N36  Dn4
 BYTE   N36  Fn4
 BYTE   W05
//  #07 //186   ----------------------------------------
 BYTE   W22
 BYTE   BEND   c_v-1
 BYTE   W01
 BYTE   BEND   c_v-2
 BYTE   W01
 BYTE   BEND   c_v-3
 BYTE   W01
 BYTE   BEND   c_v-6
 BYTE   W01
 BYTE   BEND   c_v-9
 BYTE   W01
 BYTE   BEND   c_v-13
 BYTE   W01
 BYTE   BEND   c_v-17
 BYTE   W01
 BYTE   BEND   c_v-22
 BYTE   W01
 BYTE   BEND   c_v-28
 BYTE   W01
 BYTE   VOL   45*SplashWave_mvl/mxv
 BYTE   BEND   c_v+0
 BYTE   W30
 BYTE   BEND   c_v+0
 BYTE   W32
 BYTE   W03
//  #07 //187   ----------------------------------------
 BYTE   W96
//  #07 //188   ----------------------------------------
 BYTE   W96
//  #07 //189   ----------------------------------------
 BYTE   W96
//  #07 //190   ----------------------------------------
 BYTE   W96
//  #07 //191   ----------------------------------------
 BYTE   W96
//  #07 //192   ----------------------------------------
 BYTE   W96
//  #07 //193   ----------------------------------------
 BYTE   W96
//  #07 //194   ----------------------------------------
 BYTE   W96
//  #07 //195   ----------------------------------------
 BYTE   W96
//  #07 //196   ----------------------------------------
 BYTE   W96
//  #07 //197   ----------------------------------------
 BYTE   W96
//  #07 //198   ----------------------------------------
 BYTE   W96
//  #07 //199   ----------------------------------------
 BYTE   W96
//  #07 //200   ----------------------------------------
 BYTE   W96
//  #07 //201   ----------------------------------------
 BYTE   W96
//  #07 //202   ----------------------------------------
 BYTE   W96
//  #07 //203   ----------------------------------------
 BYTE   W96
//  #07 //204   ----------------------------------------
 BYTE   W96
//  #07 //205   ----------------------------------------
 BYTE   W96
//  #07 //206   ----------------------------------------
 BYTE   W96
//  #07 //207   ----------------------------------------
 BYTE   W96
//  #07 //208   ----------------------------------------
 BYTE   W96
//  #07 //209   ----------------------------------------
 BYTE   W96
//  #07 //210   ----------------------------------------
 BYTE   W96
//  #07 //211   ----------------------------------------
 BYTE   W96
//  #07 //212   ----------------------------------------
 BYTE   W96
//  #07 //213   ----------------------------------------
 BYTE   W96
//  #07 //214   ----------------------------------------
 BYTE   W96
//  #07 //215   ----------------------------------------
 BYTE   W96
//  #07 //216   ----------------------------------------
 BYTE   W96
//  #07 //217   ----------------------------------------
 BYTE   W07
 BYTE   VOL   40*SplashWave_mvl/mxv
 BYTE   W88
 BYTE   W01
//  #07 //218   ----------------------------------------
 BYTE   W07
 BYTE   PAN   c_v-30
 BYTE   N12  An3
 BYTE   N12  Cn4
 BYTE   N12  En4
 BYTE   W12
 BYTE   PAN   c_v+30
 BYTE   N12  An3
 BYTE   N12  Cn4
 BYTE   N12  En4
 BYTE   W36
 BYTE   PAN   c_v+0
 BYTE   W40
 BYTE   W01
//  #07 //219   ----------------------------------------
 BYTE   GoTo
  POIN2 Label_012BC3FE
//  #07 //220   ----------------------------------------
 BYTE   W07
 BYTE   BEND   c_v+0
 BYTE   W88
 BYTE   W01
//  #07 //221   ----------------------------------------
 BYTE   W96
//  #07 //222   ----------------------------------------
 BYTE   W96
//  #07 //223   ----------------------------------------
 BYTE   W96
//  #07 //224   ----------------------------------------
 BYTE   W96
//  #07 //225   ----------------------------------------
 BYTE   W96
//  #07 //226   ----------------------------------------
 BYTE   W96
//  #07 //227   ----------------------------------------
 BYTE   W96
//  #07 //228   ----------------------------------------
 BYTE   W96
//  #07 //229   ----------------------------------------
 BYTE   W96
//  #07 //230   ----------------------------------------
 BYTE   W96
//  #07 //231   ----------------------------------------
 BYTE   W96
//  #07 //232   ----------------------------------------
 BYTE   W96
//  #07 //233   ----------------------------------------
 BYTE   W96
//  #07 //234   ----------------------------------------
 BYTE   W96
//  #07 //235   ----------------------------------------
 BYTE   W07
 BYTE   BEND   c_v+0
 BYTE   FINE

//**************** Track 8 (Midi-Chn.7) ****************//

SplashWave_008:
//  #08 //000   ----------------------------------------
 BYTE   KEYSH   SplashWave_key+0
Label_012C5ADA:
 BYTE   VOICE   121
 BYTE   VOL   50*SplashWave_mvl/mxv
 BYTE   W07
 BYTE   N12  Dn1  v112
 BYTE   N06  Fs1  v080
 BYTE   N12  Cs2  v112
 BYTE   W06
 BYTE   N06  Gs1  v080
 BYTE   W06
 BYTE   N06
 BYTE   W06
 BYTE   N06
 BYTE   W06
 BYTE   N12  Dn1  v112
 BYTE   N06  Fs1  v080
 BYTE   W06
 BYTE   Gs1
 BYTE   W06
 BYTE   N06
 BYTE   W06
 BYTE   N06
 BYTE   W06
 BYTE   N12  Dn1  v112
 BYTE   N06  Fs1  v080
 BYTE   W06
 BYTE   Gs1
 BYTE   W06
 BYTE   N06
 BYTE   W06
 BYTE   N06
 BYTE   W06
 BYTE   N12  Dn1  v112
 BYTE   N06  Fs1  v080
 BYTE   W06
 BYTE   Gs1
 BYTE   W06
 BYTE   N06
 BYTE   W05
//  #08 //001   ----------------------------------------
Label_012C5B16:
 BYTE   W01
 BYTE   N06  Gs1  v080
 BYTE   W06
 BYTE   N12  Dn1  v112
 BYTE   N06  Fs1  v080
 BYTE   W06
 BYTE   Gs1
 BYTE   W06
 BYTE   N06
 BYTE   W06
 BYTE   N06
 BYTE   W06
 BYTE   N12  Dn1  v112
 BYTE   N06  Fs1  v080
 BYTE   W06
 BYTE   Gs1
 BYTE   W06
 BYTE   N06
 BYTE   W06
 BYTE   N06
 BYTE   W06
 BYTE   N12  Dn1  v112
 BYTE   N06  Fs1  v080
 BYTE   W06
 BYTE   Gs1
 BYTE   W06
 BYTE   N12  Ds1  v112
 BYTE   N06  Gs1  v080
 BYTE   W06
 BYTE   N06
 BYTE   W06
 BYTE   N12  Dn1  v112
 BYTE   N12  Ds1
 BYTE   N06  Fs1  v080
 BYTE   W06
 BYTE   Gs1
 BYTE   W06
 BYTE   N06
 BYTE   W05
 BYTE   PEND 
//  #08 //002   ----------------------------------------
Label_012C5B55:
 BYTE   W01
 BYTE   N06  Gs1  v080
 BYTE   W06
 BYTE   N12  Dn1  v112
 BYTE   N06  Fs1  v080
 BYTE   W06
 BYTE   Gs1
 BYTE   W06
 BYTE   N12  Cn1  v112
 BYTE   N06  Gs1  v080
 BYTE   W06
 BYTE   N06
 BYTE   W06
 BYTE   N12  Dn1  v112
 BYTE   N06  Fs1  v080
 BYTE   W06
 BYTE   Gs1
 BYTE   W06
 BYTE   N12  Cn1  v112
 BYTE   N06  Gs1  v080
 BYTE   W06
 BYTE   N06
 BYTE   W06
 BYTE   N12  Dn1  v112
 BYTE   N06  Fs1  v080
 BYTE   W06
 BYTE   Gs1
 BYTE   W06
 BYTE   N12  Cn1  v112
 BYTE   N06  Gs1  v080
 BYTE   W06
 BYTE   N06
 BYTE   W06
 BYTE   N12  Dn1  v112
 BYTE   N06  Fs1  v080
 BYTE   W06
 BYTE   Gs1
 BYTE   W06
 BYTE   N12  Cn1  v112
 BYTE   N06  Gs1  v080
 BYTE   W05
 BYTE   PEND 
//  #08 //003   ----------------------------------------
Label_012C5BA1:
 BYTE   W01
 BYTE   N06  Gs1  v080
 BYTE   W06
 BYTE   N12  Dn1  v112
 BYTE   N06  Fs1  v080
 BYTE   W06
 BYTE   Gs1
 BYTE   W06
 BYTE   N12  Cn1  v112
 BYTE   N06  Gs1  v080
 BYTE   W06
 BYTE   N06
 BYTE   W06
 BYTE   N12  Dn1  v112
 BYTE   N06  Fs1  v080
 BYTE   W06
 BYTE   Gs1
 BYTE   W06
 BYTE   N12  Cn1  v112
 BYTE   N06  Gs1  v080
 BYTE   W06
 BYTE   N06
 BYTE   W06
 BYTE   N12  Dn1  v112
 BYTE   N06  Fs1  v080
 BYTE   W06
 BYTE   Gs1
 BYTE   W06
 BYTE   N12  Cn1  v112
 BYTE   N06  Gs1  v080
 BYTE   W06
 BYTE   N06
 BYTE   W06
 BYTE   N12  Dn1  v112
 BYTE   N06  Fs1  v080
 BYTE   W06
 BYTE   Gs1
 BYTE   W06
 BYTE   Cn1  v112
 BYTE   N06  Gs1  v080
 BYTE   W05
 BYTE   PEND 
//  #08 //004   ----------------------------------------
Label_012C5BEC:
 BYTE   W01
 BYTE   N06  Dn1  v100
 BYTE   N06  Gs1  v080
 BYTE   W06
 BYTE   N12  Dn1  v112
 BYTE   N06  Fs1  v080
 BYTE   N12  An2  v112
 BYTE   W06
 BYTE   N06  Gs1  v080
 BYTE   W06
 BYTE   N12  Cn1  v112
 BYTE   N06  Gs1  v080
 BYTE   W06
 BYTE   N06
 BYTE   W06
 BYTE   N12  Dn1  v112
 BYTE   N06  Fs1  v080
 BYTE   W06
 BYTE   Gs1
 BYTE   W06
 BYTE   N12  Cn1  v112
 BYTE   N06  Gs1  v080
 BYTE   W06
 BYTE   N06
 BYTE   W06
 BYTE   N12  Dn1  v112
 BYTE   N06  Fs1  v080
 BYTE   W06
 BYTE   Gs1
 BYTE   W06
 BYTE   N12  Cn1  v112
 BYTE   N06  Gs1  v080
 BYTE   W06
 BYTE   N06
 BYTE   W06
 BYTE   N12  Dn1  v112
 BYTE   N06  Fs1  v080
 BYTE   W06
 BYTE   Gs1
 BYTE   W06
 BYTE   N12  Cn1  v112
 BYTE   N06  Gs1  v080
 BYTE   W05
 BYTE   PEND 
//  #08 //005   ----------------------------------------
Label_012C5C40:
 BYTE   W01
 BYTE   N06  Gs1  v080
 BYTE   W06
 BYTE   N12  Dn1  v112
 BYTE   N06  Fs1  v080
 BYTE   W06
 BYTE   Gs1
 BYTE   W06
 BYTE   N12  Cn1  v112
 BYTE   N06  Gs1  v080
 BYTE   W06
 BYTE   N06
 BYTE   W06
 BYTE   N12  Dn1  v112
 BYTE   N06  Fs1  v080
 BYTE   W06
 BYTE   Gs1
 BYTE   W06
 BYTE   N12  Cn1  v112
 BYTE   N06  Gs1  v080
 BYTE   W06
 BYTE   N06
 BYTE   W06
 BYTE   N12  Dn1  v112
 BYTE   N06  Fs1  v080
 BYTE   W06
 BYTE   Gs1
 BYTE   W06
 BYTE   N12  Cn1  v112
 BYTE   N12  Ds1
 BYTE   N06  Gs1  v080
 BYTE   W06
 BYTE   N06
 BYTE   W06
 BYTE   N12  Dn1  v112
 BYTE   N12  Ds1
 BYTE   N06  Fs1  v080
 BYTE   W06
 BYTE   Gs1
 BYTE   W06
 BYTE   N12  Cn1  v112
 BYTE   N06  Gs1  v080
 BYTE   W05
 BYTE   PEND 
//  #08 //006   ----------------------------------------
 BYTE   PATT
  POIN2 Label_012C5BA1
//  #08 //007   ----------------------------------------
Label_012C5C95:
 BYTE   W01
 BYTE   N06  Dn1  v100
 BYTE   N06  Gs1  v080
 BYTE   W06
 BYTE   N12  Dn1  v112
 BYTE   N06  Fs1  v080
 BYTE   W06
 BYTE   Gs1
 BYTE   W06
 BYTE   N12  Cn1  v112
 BYTE   N06  Gs1  v080
 BYTE   W06
 BYTE   N06
 BYTE   W06
 BYTE   N12  Dn1  v112
 BYTE   N06  Fs1  v080
 BYTE   W06
 BYTE   Gs1
 BYTE   W06
 BYTE   N06
 BYTE   N04  An1  v112
 BYTE   W04
 BYTE   N04
 BYTE   W02
 BYTE   N06  Gs1  v080
 BYTE   W02
 BYTE   N04  An1  v112
 BYTE   W04
 BYTE   N06  Fs1  v080
 BYTE   N06  Gn1  v112
 BYTE   W06
 BYTE   N06
 BYTE   N06  Gs1  v080
 BYTE   W06
 BYTE   Fn1  v112
 BYTE   N06  Gs1  v080
 BYTE   W06
 BYTE   Fn1  v112
 BYTE   N06  Gs1  v080
 BYTE   W06
 BYTE   Dn1  v112
 BYTE   N06  Fs1  v080
 BYTE   W06
 BYTE   Cn1  v112
 BYTE   N06  Gs1  v080
 BYTE   W06
 BYTE   N12  Dn1  v112
 BYTE   N06  Gs1  v080
 BYTE   N12  Cs2  v112
 BYTE   W05
 BYTE   PEND 
//  #08 //008   ----------------------------------------
Label_012C5CF6:
 BYTE   W01
 BYTE   N06  Gs1  v080
 BYTE   W06
 BYTE   N12  Dn1  v112
 BYTE   N06  Fs1  v080
 BYTE   W06
 BYTE   Gs1
 BYTE   W06
 BYTE   N12  Cn1  v112
 BYTE   N06  Gs1  v080
 BYTE   W06
 BYTE   N06
 BYTE   W06
 BYTE   N12  Dn1  v112
 BYTE   N06  Fs1  v080
 BYTE   W06
 BYTE   Gs1
 BYTE   W06
 BYTE   N12  Cn1  v112
 BYTE   N06  Gs1  v080
 BYTE   W06
 BYTE   N06
 BYTE   W06
 BYTE   N12  Dn1  v112
 BYTE   N06  Fs1  v080
 BYTE   W06
 BYTE   Gs1
 BYTE   W06
 BYTE   N12  Cn1  v112
 BYTE   N06  Gs1  v080
 BYTE   W06
 BYTE   N06
 BYTE   W06
 BYTE   N12  Dn1  v112
 BYTE   N06  Fs1  v080
 BYTE   W06
 BYTE   Gs1
 BYTE   W06
 BYTE   N12  Cn1  v112
 BYTE   N06  Gs1  v080
 BYTE   N12  Cs2  v112
 BYTE   W05
 BYTE   PEND 
//  #08 //009   ----------------------------------------
Label_012C5D45:
 BYTE   W01
 BYTE   N06  Gs1  v080
 BYTE   W06
 BYTE   N12  Dn1  v112
 BYTE   N06  Fs1  v080
 BYTE   W06
 BYTE   Gs1
 BYTE   W06
 BYTE   N12  Cn1  v112
 BYTE   N06  Gs1  v080
 BYTE   W06
 BYTE   N06
 BYTE   W06
 BYTE   N12  Dn1  v112
 BYTE   N06  Fs1  v080
 BYTE   W06
 BYTE   Gs1
 BYTE   W06
 BYTE   N12  Cn1  v112
 BYTE   N06  Gs1  v080
 BYTE   W06
 BYTE   N06
 BYTE   W06
 BYTE   N12  Dn1  v112
 BYTE   N06  Fs1  v080
 BYTE   W06
 BYTE   Gs1
 BYTE   W06
 BYTE   N12  Cn1  v112
 BYTE   N12  Ds1
 BYTE   N06  Gs1  v080
 BYTE   W06
 BYTE   N06
 BYTE   W06
 BYTE   N12  Dn1  v112
 BYTE   N12  Ds1
 BYTE   N06  Fs1  v080
 BYTE   W06
 BYTE   Gs1
 BYTE   W06
 BYTE   N12  Cn1  v112
 BYTE   N06  Gs1  v080
 BYTE   N12  Cs2  v112
 BYTE   W05
 BYTE   PEND 
//  #08 //010   ----------------------------------------
 BYTE   PATT
  POIN2 Label_012C5CF6
//  #08 //011   ----------------------------------------
Label_012C5D9D:
 BYTE   W01
 BYTE   N06  Gs1  v080
 BYTE   W06
 BYTE   N12  Dn1  v112
 BYTE   N06  Fs1  v080
 BYTE   W06
 BYTE   Gs1
 BYTE   W06
 BYTE   N12  Cn1  v112
 BYTE   N06  Gs1  v080
 BYTE   N12  Cs2  v112
 BYTE   W06
 BYTE   N06  Gs1  v080
 BYTE   W06
 BYTE   N12  Dn1  v112
 BYTE   N06  Fs1  v080
 BYTE   W06
 BYTE   Gs1
 BYTE   W06
 BYTE   N12  Cn1  v112
 BYTE   N06  Gs1  v080
 BYTE   N12  Cs2  v112
 BYTE   W06
 BYTE   N06  Gs1  v080
 BYTE   W06
 BYTE   N12  Dn1  v112
 BYTE   N06  Fs1  v080
 BYTE   W06
 BYTE   Gs1
 BYTE   W06
 BYTE   N12  Cn1  v112
 BYTE   N06  Gs1  v080
 BYTE   N12  An2  v112
 BYTE   W06
 BYTE   N06  Gs1  v080
 BYTE   W06
 BYTE   N12  Dn1  v112
 BYTE   N06  Fs1  v080
 BYTE   W06
 BYTE   Gs1
 BYTE   W06
 BYTE   Cn1  v112
 BYTE   N06  Gs1  v080
 BYTE   W05
 BYTE   PEND 
//  #08 //012   ----------------------------------------
Label_012C5DF7:
 BYTE   W01
 BYTE   N06  Dn1  v100
 BYTE   N06  Gs1  v080
 BYTE   W06
 BYTE   N12  Dn1  v112
 BYTE   N06  Fs1  v080
 BYTE   N12  Cs2  v112
 BYTE   W06
 BYTE   N06  Gs1  v080
 BYTE   W06
 BYTE   N12  Cn1  v112
 BYTE   N06  Gs1  v080
 BYTE   W06
 BYTE   N06
 BYTE   W06
 BYTE   N12  Dn1  v112
 BYTE   N06  Fs1  v080
 BYTE   W06
 BYTE   Gs1
 BYTE   W06
 BYTE   N12  Cn1  v112
 BYTE   N06  Gs1  v080
 BYTE   W06
 BYTE   N06
 BYTE   W06
 BYTE   N12  Dn1  v112
 BYTE   N06  Fs1  v080
 BYTE   W06
 BYTE   Gs1
 BYTE   W06
 BYTE   N12  Cn1  v112
 BYTE   N06  Gs1  v080
 BYTE   W06
 BYTE   N06
 BYTE   W06
 BYTE   N12  Dn1  v112
 BYTE   N06  Fs1  v080
 BYTE   W06
 BYTE   Gs1
 BYTE   W06
 BYTE   N12  Cn1  v112
 BYTE   N06  Gs1  v080
 BYTE   N12  Cs2  v112
 BYTE   W05
 BYTE   PEND 
//  #08 //013   ----------------------------------------
Label_012C5E4E:
 BYTE   W01
 BYTE   N06  Gs1  v080
 BYTE   W06
 BYTE   N12  Dn1  v112
 BYTE   N06  Fs1  v080
 BYTE   W06
 BYTE   Gs1
 BYTE   W06
 BYTE   N12  Cn1  v112
 BYTE   N06  Gs1  v080
 BYTE   W06
 BYTE   N06
 BYTE   W06
 BYTE   N12  Dn1  v112
 BYTE   N06  Fs1  v080
 BYTE   W06
 BYTE   Gs1
 BYTE   W06
 BYTE   N12  Cn1  v112
 BYTE   N06  Gs1  v080
 BYTE   W06
 BYTE   N06
 BYTE   W06
 BYTE   N12  Dn1  v112
 BYTE   N06  Fs1  v080
 BYTE   W06
 BYTE   Gs1
 BYTE   W06
 BYTE   N12  Cn1  v112
 BYTE   N12  Ds1
 BYTE   N06  Gs1  v080
 BYTE   W06
 BYTE   N06
 BYTE   W06
 BYTE   N12  Dn1  v112
 BYTE   N12  Ds1
 BYTE   N06  Fs1  v080
 BYTE   W06
 BYTE   Gs1
 BYTE   W06
 BYTE   N12  Cn1  v112
 BYTE   N06  Gs1  v080
 BYTE   N12  An2  v112
 BYTE   W05
 BYTE   PEND 
//  #08 //014   ----------------------------------------
 BYTE   W01
 BYTE   N06  Gs1  v080
 BYTE   W06
 BYTE   N12  Dn1  v112
 BYTE   N06  Fs1  v080
 BYTE   W06
 BYTE   Gs1
 BYTE   W06
 BYTE   N12  Cn1  v112
 BYTE   N06  Gs1  v080
 BYTE   W06
 BYTE   N06
 BYTE   W06
 BYTE   N12  Dn1  v112
 BYTE   N06  Fs1  v080
 BYTE   W06
 BYTE   Gs1
 BYTE   W06
 BYTE   N12  Cn1  v112
 BYTE   N06  Gs1  v080
 BYTE   W06
 BYTE   N06
 BYTE   W06
 BYTE   N12  Dn1  v112
 BYTE   N06  Fs1  v080
 BYTE   W06
 BYTE   Gs1
 BYTE   W06
 BYTE   N12  Cn1  v112
 BYTE   N06  Gs1  v080
 BYTE   W06
 BYTE   N06
 BYTE   W06
 BYTE   N12  Dn1  v112
 BYTE   N06  Fs1  v080
 BYTE   W06
 BYTE   Gs1
 BYTE   W06
 BYTE   N12  Dn1  v127
 BYTE   N06  Gs1  v080
 BYTE   N12  En2  v127
 BYTE   W05
//  #08 //015   ----------------------------------------
 BYTE   W01
 BYTE   N06  Gs1  v080
 BYTE   W06
 BYTE   N12  Fs1
 BYTE   W24
 BYTE   N12
 BYTE   W24
 BYTE   N12
 BYTE   W24
 BYTE   N12
 BYTE   W17
//  #08 //016   ----------------------------------------
Label_012C5EFD:
 BYTE   W07
 BYTE   N08  Dn1  v112
 BYTE   N12  Fs1  v080
 BYTE   W08
 BYTE   N08  Dn1  v112
 BYTE   W08
 BYTE   N08
 BYTE   W08
 BYTE   N12  Fs1  v080
 BYTE   W12
 BYTE   N06  Bn1  v112
 BYTE   W06
 BYTE   An1
 BYTE   W06
 BYTE   N12  Fs1  v080
 BYTE   N06  Gn1  v112
 BYTE   W06
 BYTE   Fn1
 BYTE   W06
 BYTE   Cn1
 BYTE   W06
 BYTE   N06
 BYTE   W06
 BYTE   N12  Dn1
 BYTE   N12  Fs1  v080
 BYTE   N12  An2  v112
 BYTE   W17
 BYTE   PEND 
//  #08 //017   ----------------------------------------
Label_012C5F2C:
 BYTE   W07
 BYTE   N12  Cn1  v112
 BYTE   N06  Fs1  v080
 BYTE   N12  Cs2  v112
 BYTE   W06
 BYTE   N06  Gs1  v080
 BYTE   W06
 BYTE   N06
 BYTE   W06
 BYTE   N06
 BYTE   W06
 BYTE   N12  Dn1  v112
 BYTE   N06  Fs1  v080
 BYTE   W06
 BYTE   Gs1
 BYTE   W06
 BYTE   N06
 BYTE   W06
 BYTE   N06
 BYTE   W06
 BYTE   N12  Cn1  v112
 BYTE   N06  Fs1  v080
 BYTE   W06
 BYTE   Gs1
 BYTE   W06
 BYTE   N06
 BYTE   W06
 BYTE   N06
 BYTE   W06
 BYTE   N12  Dn1  v112
 BYTE   N06  Fs1  v080
 BYTE   W06
 BYTE   Gs1
 BYTE   W06
 BYTE   N06
 BYTE   W05
 BYTE   PEND 
//  #08 //018   ----------------------------------------
Label_012C5F65:
 BYTE   W01
 BYTE   N06  Gs1  v080
 BYTE   W06
 BYTE   N12  Cn1  v112
 BYTE   N06  Fs1  v080
 BYTE   W06
 BYTE   Gs1
 BYTE   W06
 BYTE   N06
 BYTE   W06
 BYTE   N06
 BYTE   W06
 BYTE   N12  Dn1  v112
 BYTE   N06  Fs1  v080
 BYTE   W06
 BYTE   Gs1
 BYTE   W06
 BYTE   N06
 BYTE   W06
 BYTE   N06
 BYTE   W06
 BYTE   N12  Cn1  v112
 BYTE   N06  Fs1  v080
 BYTE   W06
 BYTE   Gs1
 BYTE   W06
 BYTE   N06
 BYTE   W06
 BYTE   N06
 BYTE   W06
 BYTE   N12  Dn1  v112
 BYTE   N06  Fs1  v080
 BYTE   W06
 BYTE   Gs1
 BYTE   W06
 BYTE   N06
 BYTE   W05
 BYTE   PEND 
//  #08 //019   ----------------------------------------
 BYTE   PATT
  POIN2 Label_012C5F65
//  #08 //020   ----------------------------------------
 BYTE   PATT
  POIN2 Label_012C5F65
//  #08 //021   ----------------------------------------
 BYTE   PATT
  POIN2 Label_012C5F65
//  #08 //022   ----------------------------------------
 BYTE   PATT
  POIN2 Label_012C5F65
//  #08 //023   ----------------------------------------
 BYTE   PATT
  POIN2 Label_012C5F65
//  #08 //024   ----------------------------------------
Label_012C5FB6:
 BYTE   W01
 BYTE   N06  Gs1  v080
 BYTE   W06
 BYTE   N12  Cn1  v112
 BYTE   N06  Fs1  v080
 BYTE   W06
 BYTE   Gs1
 BYTE   W06
 BYTE   N06
 BYTE   W06
 BYTE   N06
 BYTE   W06
 BYTE   N12  Dn1  v112
 BYTE   N06  Fs1  v080
 BYTE   W06
 BYTE   Gs1
 BYTE   W06
 BYTE   N06
 BYTE   W06
 BYTE   N06
 BYTE   W06
 BYTE   N12  Cn1  v112
 BYTE   N06  Fs1  v080
 BYTE   W06
 BYTE   Gs1
 BYTE   W06
 BYTE   N12  Dn1  v112
 BYTE   N06  Gs1  v080
 BYTE   W06
 BYTE   N06
 BYTE   W06
 BYTE   N12  Dn1  v112
 BYTE   N06  Fs1  v080
 BYTE   W06
 BYTE   Gs1
 BYTE   W06
 BYTE   N12  Dn1  v112
 BYTE   N06  Gs1  v080
 BYTE   N12  Cs2  v112
 BYTE   W05
 BYTE   PEND 
//  #08 //025   ----------------------------------------
 BYTE   PATT
  POIN2 Label_012C5F65
//  #08 //026   ----------------------------------------
 BYTE   PATT
  POIN2 Label_012C5F65
//  #08 //027   ----------------------------------------
 BYTE   PATT
  POIN2 Label_012C5F65
//  #08 //028   ----------------------------------------
 BYTE   PATT
  POIN2 Label_012C5F65
//  #08 //029   ----------------------------------------
 BYTE   PATT
  POIN2 Label_012C5F65
//  #08 //030   ----------------------------------------
 BYTE   PATT
  POIN2 Label_012C5F65
//  #08 //031   ----------------------------------------
Label_012C6019:
 BYTE   W01
 BYTE   N06  Gs1  v080
 BYTE   W06
 BYTE   N12  Cn1  v112
 BYTE   N06  Fs1  v080
 BYTE   W06
 BYTE   Gs1
 BYTE   W06
 BYTE   N06
 BYTE   W06
 BYTE   N06
 BYTE   W06
 BYTE   N12  Dn1  v112
 BYTE   N06  Fs1  v080
 BYTE   W06
 BYTE   Gs1
 BYTE   W06
 BYTE   N06
 BYTE   W06
 BYTE   N06
 BYTE   W06
 BYTE   N12  Cn1  v112
 BYTE   N06  Fs1  v080
 BYTE   W06
 BYTE   Gs1
 BYTE   W06
 BYTE   N06
 BYTE   W06
 BYTE   N06
 BYTE   W06
 BYTE   N12  Dn1  v112
 BYTE   N06  Fs1  v080
 BYTE   W06
 BYTE   Gs1
 BYTE   W06
 BYTE   N12  As1
 BYTE   W05
 BYTE   PEND 
//  #08 //032   ----------------------------------------
Label_012C6052:
 BYTE   W07
 BYTE   N02  Dn1  v112
 BYTE   W02
 BYTE   N10
 BYTE   W10
 BYTE   N12  An1
 BYTE   W12
 BYTE   Gn1
 BYTE   W12
 BYTE   Fn1
 BYTE   W12
 BYTE   Cn1
 BYTE   W12
 BYTE   N06
 BYTE   W06
 BYTE   N06
 BYTE   W06
 BYTE   N12  Dn1
 BYTE   N12  An2
 BYTE   W17
 BYTE   PEND 
//  #08 //033   ----------------------------------------
 BYTE   PATT
  POIN2 Label_012C5F2C
//  #08 //034   ----------------------------------------
 BYTE   PATT
  POIN2 Label_012C5F65
//  #08 //035   ----------------------------------------
 BYTE   PATT
  POIN2 Label_012C5F65
//  #08 //036   ----------------------------------------
 BYTE   PATT
  POIN2 Label_012C5F65
//  #08 //037   ----------------------------------------
 BYTE   PATT
  POIN2 Label_012C5F65
//  #08 //038   ----------------------------------------
 BYTE   PATT
  POIN2 Label_012C5F65
//  #08 //039   ----------------------------------------
 BYTE   PATT
  POIN2 Label_012C5F65
//  #08 //040   ----------------------------------------
 BYTE   PATT
  POIN2 Label_012C5FB6
//  #08 //041   ----------------------------------------
 BYTE   PATT
  POIN2 Label_012C5F65
//  #08 //042   ----------------------------------------
 BYTE   PATT
  POIN2 Label_012C5F65
//  #08 //043   ----------------------------------------
 BYTE   PATT
  POIN2 Label_012C5F65
//  #08 //044   ----------------------------------------
 BYTE   PATT
  POIN2 Label_012C5F65
//  #08 //045   ----------------------------------------
 BYTE   PATT
  POIN2 Label_012C5F65
//  #08 //046   ----------------------------------------
 BYTE   PATT
  POIN2 Label_012C5F65
//  #08 //047   ----------------------------------------
 BYTE   PATT
  POIN2 Label_012C5F65
//  #08 //048   ----------------------------------------
Label_012C60B7:
 BYTE   W01
 BYTE   N06  Gs1  v080
 BYTE   W06
 BYTE   N02  Dn1  v112
 BYTE   N06  Fs1  v080
 BYTE   W02
 BYTE   N10  Dn1  v112
 BYTE   W04
 BYTE   N06  Gs1  v080
 BYTE   W06
 BYTE   N06
 BYTE   N12  An1  v112
 BYTE   W06
 BYTE   N06  Gs1  v080
 BYTE   W06
 BYTE   Fs1
 BYTE   N12  Gn1  v112
 BYTE   W06
 BYTE   N06  Gs1  v080
 BYTE   W06
 BYTE   N12  Fn1  v112
 BYTE   N06  Gs1  v080
 BYTE   W06
 BYTE   N06
 BYTE   W06
 BYTE   N12  Cn1  v112
 BYTE   N06  Fs1  v080
 BYTE   W06
 BYTE   Gs1
 BYTE   W06
 BYTE   Cn1  v112
 BYTE   N06  Gs1  v080
 BYTE   W06
 BYTE   Cn1  v112
 BYTE   N06  Gs1  v080
 BYTE   W06
 BYTE   N12  Dn1  v112
 BYTE   N06  Fs1  v080
 BYTE   N12  Cs2  v112
 BYTE   W06
 BYTE   N06  Gs1  v080
 BYTE   W06
 BYTE   N06
 BYTE   W05
 BYTE   PEND 
//  #08 //049   ----------------------------------------
Label_012C610C:
 BYTE   W01
 BYTE   N06  Gs1  v080
 BYTE   W06
 BYTE   N12  Cn1  v112
 BYTE   N06  Fs1  v080
 BYTE   N12  An2  v112
 BYTE   W06
 BYTE   N06  Gs1  v080
 BYTE   W06
 BYTE   N12  As1
 BYTE   W12
 BYTE   Dn1  v112
 BYTE   N06  Fs1  v080
 BYTE   W06
 BYTE   Gs1
 BYTE   W06
 BYTE   N12  Cn1  v112
 BYTE   N12  As1  v080
 BYTE   W12
 BYTE   N06  Fs1
 BYTE   W06
 BYTE   Gs1
 BYTE   W06
 BYTE   N12  As1
 BYTE   W12
 BYTE   Dn1  v112
 BYTE   N06  Fs1  v080
 BYTE   W06
 BYTE   Gs1
 BYTE   W06
 BYTE   N12  As1
 BYTE   W05
 BYTE   PEND 
//  #08 //050   ----------------------------------------
Label_012C6145:
 BYTE   W07
 BYTE   N12  Cn1  v112
 BYTE   N06  Fs1  v080
 BYTE   W06
 BYTE   Gs1
 BYTE   W06
 BYTE   N12  As1
 BYTE   W12
 BYTE   Dn1  v112
 BYTE   N06  Fs1  v080
 BYTE   W06
 BYTE   Gs1
 BYTE   W06
 BYTE   N12  Cn1  v112
 BYTE   N12  As1  v080
 BYTE   W12
 BYTE   Ds1  v112
 BYTE   N06  Fs1  v080
 BYTE   W06
 BYTE   Gs1
 BYTE   W06
 BYTE   N12  Cn1  v112
 BYTE   N12  Ds1
 BYTE   N12  As1  v080
 BYTE   W12
 BYTE   Dn1  v112
 BYTE   N06  Fs1  v080
 BYTE   W06
 BYTE   Gs1
 BYTE   W06
 BYTE   N12  Cn1  v112
 BYTE   N12  As1  v080
 BYTE   W05
 BYTE   PEND 
//  #08 //051   ----------------------------------------
Label_012C6182:
 BYTE   W07
 BYTE   N12  Cn1  v112
 BYTE   N06  Fs1  v080
 BYTE   W06
 BYTE   Gs1
 BYTE   W06
 BYTE   N12  As1
 BYTE   W12
 BYTE   Dn1  v112
 BYTE   N06  Fs1  v080
 BYTE   W06
 BYTE   Gs1
 BYTE   W06
 BYTE   N12  Cn1  v112
 BYTE   N12  As1  v080
 BYTE   W12
 BYTE   N06  Fs1
 BYTE   W06
 BYTE   Gs1
 BYTE   W06
 BYTE   N12  As1
 BYTE   W12
 BYTE   Dn1  v112
 BYTE   N06  Fs1  v080
 BYTE   W06
 BYTE   Gs1
 BYTE   W06
 BYTE   N12  As1
 BYTE   W05
 BYTE   PEND 
//  #08 //052   ----------------------------------------
Label_012C61B2:
 BYTE   W07
 BYTE   N12  Cn1  v112
 BYTE   N06  Fs1  v080
 BYTE   W06
 BYTE   Gs1
 BYTE   W06
 BYTE   N12  As1
 BYTE   W12
 BYTE   Dn1  v112
 BYTE   N06  Fs1  v080
 BYTE   W06
 BYTE   Gs1
 BYTE   W06
 BYTE   N12  Cn1  v112
 BYTE   N12  As1  v080
 BYTE   W12
 BYTE   Ds1  v112
 BYTE   N06  Fs1  v080
 BYTE   W06
 BYTE   Gs1
 BYTE   W06
 BYTE   N12  Cn1  v112
 BYTE   N12  Ds1
 BYTE   N12  As1  v080
 BYTE   W12
 BYTE   Dn1  v112
 BYTE   N06  Fs1  v080
 BYTE   N12  Fs2
 BYTE   W06
 BYTE   N06  Gs1
 BYTE   W06
 BYTE   N12  Cn1  v108
 BYTE   N12  As1  v080
 BYTE   W05
 BYTE   PEND 
//  #08 //053   ----------------------------------------
 BYTE   PATT
  POIN2 Label_012C6182
//  #08 //054   ----------------------------------------
 BYTE   PATT
  POIN2 Label_012C6145
//  #08 //055   ----------------------------------------
 BYTE   PATT
  POIN2 Label_012C6182
//  #08 //056   ----------------------------------------
 BYTE   PATT
  POIN2 Label_012C61B2
//  #08 //057   ----------------------------------------
Label_012C6206:
 BYTE   W07
 BYTE   N12  Cn1  v112
 BYTE   N06  Fs1  v080
 BYTE   N12  An2  v112
 BYTE   W06
 BYTE   N06  Gs1  v080
 BYTE   W06
 BYTE   N12  As1
 BYTE   W12
 BYTE   Dn1  v112
 BYTE   N06  Fs1  v080
 BYTE   W06
 BYTE   Gs1
 BYTE   W06
 BYTE   N12  Cn1  v112
 BYTE   N12  As1  v080
 BYTE   W12
 BYTE   N06  Fs1
 BYTE   W06
 BYTE   Gs1
 BYTE   W06
 BYTE   N12  As1
 BYTE   W12
 BYTE   Dn1  v112
 BYTE   N06  Fs1  v080
 BYTE   W06
 BYTE   Gs1
 BYTE   W06
 BYTE   N12  As1
 BYTE   W05
 BYTE   PEND 
//  #08 //058   ----------------------------------------
 BYTE   PATT
  POIN2 Label_012C6145
//  #08 //059   ----------------------------------------
 BYTE   PATT
  POIN2 Label_012C6182
//  #08 //060   ----------------------------------------
 BYTE   PATT
  POIN2 Label_012C61B2
//  #08 //061   ----------------------------------------
 BYTE   PATT
  POIN2 Label_012C6182
//  #08 //062   ----------------------------------------
 BYTE   PATT
  POIN2 Label_012C6145
//  #08 //063   ----------------------------------------
 BYTE   PATT
  POIN2 Label_012C6182
//  #08 //064   ----------------------------------------
Label_012C6259:
 BYTE   W07
 BYTE   N12  Cn1  v112
 BYTE   N06  Fs1  v080
 BYTE   W06
 BYTE   Gs1
 BYTE   W06
 BYTE   N12  As1
 BYTE   W12
 BYTE   Dn1  v112
 BYTE   N06  Fs1  v080
 BYTE   W06
 BYTE   Gs1
 BYTE   W06
 BYTE   N04  Dn1  v072
 BYTE   N12  As1  v080
 BYTE   W04
 BYTE   N04  Dn1  v084
 BYTE   W04
 BYTE   Dn1  v092
 BYTE   W04
 BYTE   N06  Dn1  v112
 BYTE   N06  Fs1  v080
 BYTE   W06
 BYTE   Dn1  v112
 BYTE   N06  Gs1  v080
 BYTE   W06
 BYTE   Dn1  v112
 BYTE   N12  As1  v080
 BYTE   W06
 BYTE   N06  Dn1  v112
 BYTE   W06
 BYTE   N06
 BYTE   N06  Fs1  v080
 BYTE   W06
 BYTE   Dn1  v112
 BYTE   N06  Gs1  v080
 BYTE   W06
 BYTE   N12  Cn1  v112
 BYTE   N12  As1  v080
 BYTE   N12  Cs2  v112
 BYTE   W05
 BYTE   PEND 
//  #08 //065   ----------------------------------------
Label_012C62A9:
 BYTE   W07
 BYTE   N12  Fs1  v080
 BYTE   W12
 BYTE   Cn1  v112
 BYTE   N12  As1  v080
 BYTE   W12
 BYTE   Dn1  v112
 BYTE   N12  Fs1  v080
 BYTE   W12
 BYTE   As1
 BYTE   W12
 BYTE   Cn1  v112
 BYTE   N12  Fs1  v080
 BYTE   W12
 BYTE   Cn1  v112
 BYTE   N12  As1  v080
 BYTE   W12
 BYTE   Dn1  v112
 BYTE   N12  Fs1  v080
 BYTE   W12
 BYTE   As1
 BYTE   W05
 BYTE   PEND 
//  #08 //066   ----------------------------------------
Label_012C62D1:
 BYTE   W07
 BYTE   N12  Cn1  v112
 BYTE   N12  Fs1  v080
 BYTE   W12
 BYTE   As1
 BYTE   W12
 BYTE   Dn1  v112
 BYTE   N12  Fs1  v080
 BYTE   W12
 BYTE   As1
 BYTE   W12
 BYTE   Cn1  v112
 BYTE   N12  Fs1  v080
 BYTE   W12
 BYTE   Cn1  v112
 BYTE   N12  As1  v080
 BYTE   W12
 BYTE   Dn1  v112
 BYTE   N12  Fs1  v080
 BYTE   W12
 BYTE   Cn1  v112
 BYTE   N12  As1  v080
 BYTE   W05
 BYTE   PEND 
//  #08 //067   ----------------------------------------
 BYTE   PATT
  POIN2 Label_012C62A9
//  #08 //068   ----------------------------------------
 BYTE   PATT
  POIN2 Label_012C62D1
//  #08 //069   ----------------------------------------
 BYTE   PATT
  POIN2 Label_012C62A9
//  #08 //070   ----------------------------------------
 BYTE   PATT
  POIN2 Label_012C62D1
//  #08 //071   ----------------------------------------
 BYTE   PATT
  POIN2 Label_012C62A9
//  #08 //072   ----------------------------------------
Label_012C6315:
 BYTE   W07
 BYTE   N12  Cn1  v112
 BYTE   N12  Fs1  v080
 BYTE   W12
 BYTE   Dn1  v112
 BYTE   N12  As1  v080
 BYTE   W12
 BYTE   Gs1
 BYTE   W12
 BYTE   Dn1  v112
 BYTE   N12  As1  v080
 BYTE   W12
 BYTE   Gs1
 BYTE   W12
 BYTE   Dn1  v112
 BYTE   N12  As1  v080
 BYTE   W12
 BYTE   Gs1
 BYTE   W12
 BYTE   N06  Dn1  v112
 BYTE   N12  As1  v080
 BYTE   N12  Cs2  v112
 BYTE   W05
 BYTE   PEND 
//  #08 //073   ----------------------------------------
Label_012C6340:
 BYTE   W01
 BYTE   N06  Dn1  v112
 BYTE   W06
 BYTE   N12  Fs1  v080
 BYTE   W12
 BYTE   Cn1  v112
 BYTE   N12  As1  v080
 BYTE   W12
 BYTE   Dn1  v112
 BYTE   N12  Fs1  v080
 BYTE   W12
 BYTE   As1
 BYTE   W12
 BYTE   Cn1  v112
 BYTE   N12  Fs1  v080
 BYTE   W12
 BYTE   Cn1  v112
 BYTE   N12  As1  v080
 BYTE   W12
 BYTE   Dn1  v112
 BYTE   N12  Fs1  v080
 BYTE   W12
 BYTE   As1
 BYTE   W05
 BYTE   PEND 
//  #08 //074   ----------------------------------------
 BYTE   PATT
  POIN2 Label_012C62D1
//  #08 //075   ----------------------------------------
 BYTE   PATT
  POIN2 Label_012C62A9
//  #08 //076   ----------------------------------------
 BYTE   PATT
  POIN2 Label_012C62D1
//  #08 //077   ----------------------------------------
 BYTE   PATT
  POIN2 Label_012C62A9
//  #08 //078   ----------------------------------------
 BYTE   PATT
  POIN2 Label_012C62D1
//  #08 //079   ----------------------------------------
 BYTE   PATT
  POIN2 Label_012C62A9
//  #08 //080   ----------------------------------------
 BYTE   W07
 BYTE   N12  Cn1  v112
 BYTE   W12
 BYTE   Dn1
 BYTE   N12  Cs2
 BYTE   W18
 BYTE   Dn1
 BYTE   N12  Cs2
 BYTE   W18
 BYTE   Dn1
 BYTE   N12  Cs2
 BYTE   W24
 BYTE   Dn1
 BYTE   N12  Gn1
 BYTE   W17
//  #08 //081   ----------------------------------------
 BYTE   PATT
  POIN2 Label_012C5F2C
//  #08 //082   ----------------------------------------
 BYTE   PATT
  POIN2 Label_012C5F65
//  #08 //083   ----------------------------------------
 BYTE   PATT
  POIN2 Label_012C5F65
//  #08 //084   ----------------------------------------
 BYTE   PATT
  POIN2 Label_012C5F65
//  #08 //085   ----------------------------------------
 BYTE   PATT
  POIN2 Label_012C5F65
//  #08 //086   ----------------------------------------
 BYTE   PATT
  POIN2 Label_012C5F65
//  #08 //087   ----------------------------------------
 BYTE   PATT
  POIN2 Label_012C5F65
//  #08 //088   ----------------------------------------
 BYTE   PATT
  POIN2 Label_012C5FB6
//  #08 //089   ----------------------------------------
 BYTE   PATT
  POIN2 Label_012C5F65
//  #08 //090   ----------------------------------------
 BYTE   PATT
  POIN2 Label_012C5F65
//  #08 //091   ----------------------------------------
 BYTE   PATT
  POIN2 Label_012C5F65
//  #08 //092   ----------------------------------------
 BYTE   PATT
  POIN2 Label_012C5F65
//  #08 //093   ----------------------------------------
 BYTE   PATT
  POIN2 Label_012C5F65
//  #08 //094   ----------------------------------------
 BYTE   PATT
  POIN2 Label_012C5F65
//  #08 //095   ----------------------------------------
 BYTE   PATT
  POIN2 Label_012C6019
//  #08 //096   ----------------------------------------
 BYTE   PATT
  POIN2 Label_012C6052
//  #08 //097   ----------------------------------------
 BYTE   PATT
  POIN2 Label_012C5F2C
//  #08 //098   ----------------------------------------
 BYTE   PATT
  POIN2 Label_012C5F65
//  #08 //099   ----------------------------------------
 BYTE   PATT
  POIN2 Label_012C5F65
//  #08 //100   ----------------------------------------
 BYTE   PATT
  POIN2 Label_012C5F65
//  #08 //101   ----------------------------------------
 BYTE   PATT
  POIN2 Label_012C5F65
//  #08 //102   ----------------------------------------
 BYTE   PATT
  POIN2 Label_012C5F65
//  #08 //103   ----------------------------------------
 BYTE   PATT
  POIN2 Label_012C5F65
//  #08 //104   ----------------------------------------
 BYTE   PATT
  POIN2 Label_012C5FB6
//  #08 //105   ----------------------------------------
 BYTE   PATT
  POIN2 Label_012C5F65
//  #08 //106   ----------------------------------------
 BYTE   PATT
  POIN2 Label_012C5F65
//  #08 //107   ----------------------------------------
 BYTE   PATT
  POIN2 Label_012C5F65
//  #08 //108   ----------------------------------------
 BYTE   PATT
  POIN2 Label_012C5F65
//  #08 //109   ----------------------------------------
 BYTE   PATT
  POIN2 Label_012C5F65
//  #08 //110   ----------------------------------------
 BYTE   PATT
  POIN2 Label_012C5F65
//  #08 //111   ----------------------------------------
 BYTE   PATT
  POIN2 Label_012C5F65
//  #08 //112   ----------------------------------------
 BYTE   PATT
  POIN2 Label_012C60B7
//  #08 //113   ----------------------------------------
 BYTE   PATT
  POIN2 Label_012C610C
//  #08 //114   ----------------------------------------
 BYTE   PATT
  POIN2 Label_012C6145
//  #08 //115   ----------------------------------------
 BYTE   PATT
  POIN2 Label_012C6182
//  #08 //116   ----------------------------------------
 BYTE   PATT
  POIN2 Label_012C61B2
//  #08 //117   ----------------------------------------
 BYTE   PATT
  POIN2 Label_012C6182
//  #08 //118   ----------------------------------------
 BYTE   PATT
  POIN2 Label_012C6145
//  #08 //119   ----------------------------------------
 BYTE   PATT
  POIN2 Label_012C6182
//  #08 //120   ----------------------------------------
 BYTE   PATT
  POIN2 Label_012C61B2
//  #08 //121   ----------------------------------------
 BYTE   PATT
  POIN2 Label_012C6206
//  #08 //122   ----------------------------------------
 BYTE   PATT
  POIN2 Label_012C6145
//  #08 //123   ----------------------------------------
 BYTE   PATT
  POIN2 Label_012C6182
//  #08 //124   ----------------------------------------
 BYTE   PATT
  POIN2 Label_012C61B2
//  #08 //125   ----------------------------------------
 BYTE   PATT
  POIN2 Label_012C6182
//  #08 //126   ----------------------------------------
 BYTE   PATT
  POIN2 Label_012C6145
//  #08 //127   ----------------------------------------
 BYTE   PATT
  POIN2 Label_012C6182
//  #08 //128   ----------------------------------------
 BYTE   PATT
  POIN2 Label_012C6259
//  #08 //129   ----------------------------------------
 BYTE   PATT
  POIN2 Label_012C62A9
//  #08 //130   ----------------------------------------
 BYTE   PATT
  POIN2 Label_012C62D1
//  #08 //131   ----------------------------------------
 BYTE   PATT
  POIN2 Label_012C62A9
//  #08 //132   ----------------------------------------
 BYTE   PATT
  POIN2 Label_012C62D1
//  #08 //133   ----------------------------------------
 BYTE   PATT
  POIN2 Label_012C62A9
//  #08 //134   ----------------------------------------
 BYTE   PATT
  POIN2 Label_012C62D1
//  #08 //135   ----------------------------------------
 BYTE   PATT
  POIN2 Label_012C62A9
//  #08 //136   ----------------------------------------
 BYTE   PATT
  POIN2 Label_012C6315
//  #08 //137   ----------------------------------------
 BYTE   PATT
  POIN2 Label_012C6340
//  #08 //138   ----------------------------------------
 BYTE   PATT
  POIN2 Label_012C62D1
//  #08 //139   ----------------------------------------
 BYTE   PATT
  POIN2 Label_012C62A9
//  #08 //140   ----------------------------------------
 BYTE   PATT
  POIN2 Label_012C62D1
//  #08 //141   ----------------------------------------
 BYTE   PATT
  POIN2 Label_012C62A9
//  #08 //142   ----------------------------------------
 BYTE   PATT
  POIN2 Label_012C62D1
//  #08 //143   ----------------------------------------
 BYTE   W07
 BYTE   N12  Fs1  v080
 BYTE   W12
 BYTE   Cn1  v112
 BYTE   N12  As1  v080
 BYTE   W12
 BYTE   Dn1  v112
 BYTE   N12  Fs1  v080
 BYTE   W12
 BYTE   As1
 BYTE   W12
 BYTE   Cn1  v112
 BYTE   N12  Fs1  v080
 BYTE   W12
 BYTE   Cn1  v112
 BYTE   N12  As1  v080
 BYTE   W12
 BYTE   Dn1  v112
 BYTE   N12  Fs1  v080
 BYTE   W12
 BYTE   Cn1  v112
 BYTE   N12  As1  v080
 BYTE   N12  En2  v112
 BYTE   W05
//  #08 //144   ----------------------------------------
 BYTE   W19
 BYTE   Dn1  v092
 BYTE   N12  Fn1
 BYTE   W01
 BYTE   W01
 BYTE   W01
 BYTE   W01
 BYTE   W01
 BYTE   W01
 BYTE   W01
 BYTE   W01
 BYTE   W01
 BYTE   W01
 BYTE   W01
 BYTE   W01
 BYTE   Dn1  v096
 BYTE   N12  Fn1
 BYTE   W01
 BYTE   W01
 BYTE   W01
 BYTE   W01
 BYTE   W01
 BYTE   W01
 BYTE   W01
 BYTE   W01
 BYTE   W01
 BYTE   W01
 BYTE   W01
 BYTE   W01
 BYTE   Dn1  v100
 BYTE   N12  Fn1
 BYTE   W01
 BYTE   W01
 BYTE   W01
 BYTE   W01
 BYTE   W01
 BYTE   W01
 BYTE   W01
 BYTE   W01
 BYTE   W01
 BYTE   W01
 BYTE   W01
 BYTE   W01
 BYTE   Dn1
 BYTE   N12  Fn1
 BYTE   W01
 BYTE   W01
 BYTE   W01
 BYTE   W01
 BYTE   W01
 BYTE   W01
 BYTE   W01
 BYTE   W01
 BYTE   W01
 BYTE   W01
 BYTE   W01
 BYTE   W01
 BYTE   Dn1  v104
 BYTE   N12  Fn1
 BYTE   W01
 BYTE   W01
 BYTE   W01
 BYTE   W01
 BYTE   W01
 BYTE   W01
 BYTE   W01
 BYTE   W01
 BYTE   W01
 BYTE   W01
 BYTE   W01
 BYTE   W01
 BYTE   Dn1  v108
 BYTE   N12  Fn1
 BYTE   W01
 BYTE   W01
 BYTE   W01
 BYTE   W01
 BYTE   W01
 BYTE   W01
 BYTE   W01
 BYTE   W01
 BYTE   W01
 BYTE   W01
 BYTE   W01
 BYTE   W01
 BYTE   Dn1
 BYTE   N12  Fn1
 BYTE   W01
 BYTE   W01
 BYTE   W01
 BYTE   W01
 BYTE   W01
//  #08 //145   ----------------------------------------
 BYTE   W01
 BYTE   W01
 BYTE   W01
 BYTE   W01
 BYTE   W01
 BYTE   W01
 BYTE   W01
 BYTE   Dn1  v112
 BYTE   N12  Cn2
 BYTE   W12
 BYTE   Cn1
 BYTE   W12
 BYTE   N12
 BYTE   W12
 BYTE   Dn1
 BYTE   N12  Gn1
 BYTE   W12
 BYTE   Cn1
 BYTE   W12
 BYTE   N12
 BYTE   W12
 BYTE   Dn1
 BYTE   N12  Bn1
 BYTE   W12
 BYTE   Cn1
 BYTE   W05
//  #08 //146   ----------------------------------------
 BYTE   W07
 BYTE   N12
 BYTE   W12
 BYTE   Dn1
 BYTE   N12  Fn1
 BYTE   W12
 BYTE   Cn1
 BYTE   W12
 BYTE   N12
 BYTE   W12
 BYTE   N06  Dn1
 BYTE   W06
 BYTE   An1
 BYTE   W06
 BYTE   Fn1
 BYTE   W12
 BYTE   N12  Cn1
 BYTE   W12
 BYTE   Dn1
 BYTE   N12  Gn1
 BYTE   W05
//  #08 //147   ----------------------------------------
 BYTE   W07
 BYTE   Dn1
 BYTE   N12  Bn1
 BYTE   W12
 BYTE   Cn1
 BYTE   W12
 BYTE   N12
 BYTE   W12
 BYTE   Dn1
 BYTE   N12  An1
 BYTE   W12
 BYTE   Cn1
 BYTE   W12
 BYTE   N12
 BYTE   W12
 BYTE   Dn1
 BYTE   N12  An1
 BYTE   W12
 BYTE   Cn1
 BYTE   W05
//  #08 //148   ----------------------------------------
 BYTE   W07
 BYTE   N06  Dn1
 BYTE   N12  An1
 BYTE   W06
 BYTE   N06  Dn1
 BYTE   W06
 BYTE   N12  Cn1
 BYTE   N06  Gn1
 BYTE   W06
 BYTE   Dn1
 BYTE   W06
 BYTE   N12  Cn1
 BYTE   N12  Fn1
 BYTE   W12
 BYTE   N06  Dn1
 BYTE   N12  Gn1
 BYTE   W06
 BYTE   N06  Dn1
 BYTE   W06
 BYTE   N12  Cn1
 BYTE   N06  Gn1
 BYTE   W06
 BYTE   Dn1
 BYTE   W06
 BYTE   N12  Cn1
 BYTE   N12  Fn1
 BYTE   W12
 BYTE   N06  Dn1
 BYTE   N12  Fn1
 BYTE   W06
 BYTE   N06  Dn1
 BYTE   W06
 BYTE   N12  Cn1
 BYTE   N06  Fn1
 BYTE   W05
//  #08 //149   ----------------------------------------
 BYTE   W01
 BYTE   Dn1
 BYTE   W06
 BYTE   N12
 BYTE   N12  Bn1
 BYTE   W12
 BYTE   Cn1
 BYTE   W12
 BYTE   N12
 BYTE   W12
 BYTE   Dn1
 BYTE   N12  An1
 BYTE   W12
 BYTE   Cn1
 BYTE   W12
 BYTE   N12
 BYTE   W12
 BYTE   Dn1
 BYTE   N12  Gn1
 BYTE   W12
 BYTE   Cn1
 BYTE   W05
//  #08 //150   ----------------------------------------
Label_012C6608:
 BYTE   W07
 BYTE   N12  Cn1  v112
 BYTE   W12
 BYTE   Dn1
 BYTE   N12  Fn1
 BYTE   W12
 BYTE   Cn1
 BYTE   W12
 BYTE   N12
 BYTE   W12
 BYTE   N06  Dn1
 BYTE   W06
 BYTE   An1
 BYTE   W06
 BYTE   Fn1
 BYTE   W12
 BYTE   N12  Cn1
 BYTE   W12
 BYTE   Dn1
 BYTE   N12  An1
 BYTE   W05
 BYTE   PEND 
//  #08 //151   ----------------------------------------
 BYTE   W07
 BYTE   Dn1
 BYTE   N12  Bn1
 BYTE   W12
 BYTE   Cn1
 BYTE   W12
 BYTE   N12
 BYTE   W12
 BYTE   Dn1
 BYTE   N12  Gn1
 BYTE   W12
 BYTE   Cn1
 BYTE   W12
 BYTE   N12
 BYTE   W12
 BYTE   Dn1
 BYTE   N12  An1
 BYTE   W12
 BYTE   Cn1
 BYTE   W05
//  #08 //152   ----------------------------------------
 BYTE   W07
 BYTE   Dn1
 BYTE   N12  An1
 BYTE   W12
 BYTE   N06  Cn1
 BYTE   W06
 BYTE   N06
 BYTE   W18
 BYTE   Dn1
 BYTE   W06
 BYTE   Cn1
 BYTE   W18
 BYTE   N06
 BYTE   W06
 BYTE   N06
 BYTE   W06
 BYTE   N04  Dn1
 BYTE   W04
 BYTE   Dn1  v104
 BYTE   W04
 BYTE   Dn1  v096
 BYTE   W04
 BYTE   N06  Gn1  v112
 BYTE   W05
//  #08 //153   ----------------------------------------
 BYTE   W01
 BYTE   Fn1
 BYTE   W06
 BYTE   N12  Dn1
 BYTE   N12  Cn2
 BYTE   W12
 BYTE   Cn1
 BYTE   W12
 BYTE   N12
 BYTE   W12
 BYTE   Dn1
 BYTE   N12  Gn1
 BYTE   W12
 BYTE   Cn1
 BYTE   W12
 BYTE   N12
 BYTE   W12
 BYTE   Dn1
 BYTE   N12  Bn1
 BYTE   W12
 BYTE   Cn1
 BYTE   W05
//  #08 //154   ----------------------------------------
 BYTE   PATT
  POIN2 Label_012C6608
//  #08 //155   ----------------------------------------
 BYTE   W07
 BYTE   N12  Dn1  v112
 BYTE   N12  Cn2
 BYTE   W12
 BYTE   Cn1
 BYTE   W12
 BYTE   N12
 BYTE   W12
 BYTE   Dn1
 BYTE   N12  Gn1
 BYTE   W12
 BYTE   Cn1
 BYTE   W12
 BYTE   N12
 BYTE   W12
 BYTE   Dn1
 BYTE   N12  Bn1
 BYTE   W12
 BYTE   Cn1
 BYTE   W05
//  #08 //156   ----------------------------------------
 BYTE   W07
 BYTE   N04
 BYTE   W04
 BYTE   Dn1
 BYTE   W04
 BYTE   Bn1
 BYTE   W04
 BYTE   An1
 BYTE   W04
 BYTE   Gn1
 BYTE   W04
 BYTE   Fn1
 BYTE   W04
 BYTE   Cn1
 BYTE   W04
 BYTE   Dn1
 BYTE   W04
 BYTE   Bn1
 BYTE   W04
 BYTE   An1
 BYTE   W04
 BYTE   Gn1
 BYTE   W04
 BYTE   Fn1
 BYTE   W04
 BYTE   Cn1
 BYTE   W04
 BYTE   Dn1
 BYTE   W04
 BYTE   Bn1
 BYTE   W04
 BYTE   An1
 BYTE   W04
 BYTE   Gn1
 BYTE   W04
 BYTE   Fn1
 BYTE   W04
 BYTE   Cn1
 BYTE   W04
 BYTE   Dn1
 BYTE   W04
 BYTE   Bn1
 BYTE   W04
 BYTE   N12  Dn1
 BYTE   N12  An2
 BYTE   W05
//  #08 //157   ----------------------------------------
Label_012C66C2:
 BYTE   W07
 BYTE   N12  Dn1  v112
 BYTE   N12  Cs2
 BYTE   W12
 BYTE   Cn1
 BYTE   W12
 BYTE   N12
 BYTE   W12
 BYTE   Dn1
 BYTE   N12  Gn1
 BYTE   W12
 BYTE   Cn1
 BYTE   W12
 BYTE   N12
 BYTE   W12
 BYTE   Dn1
 BYTE   N12  Bn1
 BYTE   W12
 BYTE   Cn1
 BYTE   W05
 BYTE   PEND 
//  #08 //158   ----------------------------------------
 BYTE   PATT
  POIN2 Label_012C6608
//  #08 //159   ----------------------------------------
 BYTE   W07
 BYTE   N12  Dn1  v112
 BYTE   N12  Cn2
 BYTE   W12
 BYTE   Cn1
 BYTE   W12
 BYTE   N12
 BYTE   W12
 BYTE   Dn1
 BYTE   N12  Gn1
 BYTE   W12
 BYTE   Cn1
 BYTE   W12
 BYTE   N12
 BYTE   W12
 BYTE   Dn1
 BYTE   N12  Fn1
 BYTE   W12
 BYTE   Cn1
 BYTE   W05
//  #08 //160   ----------------------------------------
 BYTE   W07
 BYTE   N12
 BYTE   W16
 BYTE   Dn1
 BYTE   N12  Cs2
 BYTE   W16
 BYTE   Dn1
 BYTE   N12  Cs2
 BYTE   W16
 BYTE   Dn1
 BYTE   N12  Cs2
 BYTE   W16
 BYTE   Dn1
 BYTE   N12  Cs2
 BYTE   W16
 BYTE   Dn1
 BYTE   N12  An2
 BYTE   W09
//  #08 //161   ----------------------------------------
 BYTE   PATT
  POIN2 Label_012C66C2
//  #08 //162   ----------------------------------------
Label_012C6716:
 BYTE   W07
 BYTE   N12  Cn1  v112
 BYTE   W12
 BYTE   Dn1
 BYTE   N12  Fn1
 BYTE   W12
 BYTE   Cn1
 BYTE   W12
 BYTE   N12
 BYTE   W12
 BYTE   N06  Dn1
 BYTE   N12  Cs2
 BYTE   W06
 BYTE   N06  An1
 BYTE   W06
 BYTE   Fn1
 BYTE   W04
 BYTE   N12  Cs2
 BYTE   W08
 BYTE   Cn1
 BYTE   W08
 BYTE   Cs2
 BYTE   W04
 BYTE   Dn1
 BYTE   W05
 BYTE   PEND 
//  #08 //163   ----------------------------------------
 BYTE   W07
 BYTE   N12
 BYTE   N12  Cs2
 BYTE   W12
 BYTE   Cn1
 BYTE   W12
 BYTE   N12
 BYTE   W12
 BYTE   Dn1
 BYTE   N12  An1
 BYTE   W12
 BYTE   Cn1
 BYTE   W12
 BYTE   N12
 BYTE   W12
 BYTE   Dn1
 BYTE   N12  Bn1
 BYTE   W12
 BYTE   Cn1
 BYTE   W05
//  #08 //164   ----------------------------------------
 BYTE   W07
 BYTE   N04  Dn1
 BYTE   W04
 BYTE   Bn1
 BYTE   W04
 BYTE   An1
 BYTE   W04
 BYTE   N06  Gn1
 BYTE   W06
 BYTE   Fn1
 BYTE   W06
 BYTE   N04  Dn1
 BYTE   W04
 BYTE   Bn1
 BYTE   W04
 BYTE   An1
 BYTE   W04
 BYTE   N06  Gn1
 BYTE   W06
 BYTE   Fn1
 BYTE   W06
 BYTE   N04  Dn1
 BYTE   W04
 BYTE   Bn1
 BYTE   W04
 BYTE   An1
 BYTE   W04
 BYTE   N06  Gn1
 BYTE   W06
 BYTE   Fn1
 BYTE   W06
 BYTE   N04  Dn1
 BYTE   W04
 BYTE   Bn1
 BYTE   W04
 BYTE   An1
 BYTE   W04
 BYTE   N06  Gn1
 BYTE   N12  An2
 BYTE   W05
//  #08 //165   ----------------------------------------
 BYTE   W01
 BYTE   N06  Fn1
 BYTE   W06
 BYTE   N12  Dn1
 BYTE   N12  Cs2
 BYTE   W12
 BYTE   Cn1
 BYTE   W12
 BYTE   N12
 BYTE   W12
 BYTE   Dn1
 BYTE   N12  Gn1
 BYTE   W12
 BYTE   Cn1
 BYTE   W12
 BYTE   N12
 BYTE   W12
 BYTE   Dn1
 BYTE   N12  Bn1
 BYTE   W12
 BYTE   Cn1
 BYTE   W05
//  #08 //166   ----------------------------------------
 BYTE   PATT
  POIN2 Label_012C6716
//  #08 //167   ----------------------------------------
 BYTE   W07
 BYTE   N12  Dn1  v112
 BYTE   N12  Cs2
 BYTE   W12
 BYTE   Cn1
 BYTE   W12
 BYTE   N12
 BYTE   W12
 BYTE   Dn1
 BYTE   N12  Gn1
 BYTE   W12
 BYTE   Cn1
 BYTE   W12
 BYTE   N12
 BYTE   W12
 BYTE   Dn1
 BYTE   W12
 BYTE   N12
 BYTE   N12  En2
 BYTE   W05
//  #08 //168   ----------------------------------------
 BYTE   W07
 BYTE   Fs1  v080
 BYTE   W24
 BYTE   N12
 BYTE   W24
 BYTE   N12
 BYTE   W24
 BYTE   N12
 BYTE   W17
//  #08 //169   ----------------------------------------
 BYTE   PATT
  POIN2 Label_012C5EFD
//  #08 //170   ----------------------------------------
 BYTE   W07
 BYTE   N12  Cn1  v112
 BYTE   N12  Fs1  v080
 BYTE   N12  Cs2  v112
 BYTE   W12
 BYTE   As1  v080
 BYTE   W12
 BYTE   Dn1  v112
 BYTE   N12  Fs1  v080
 BYTE   W12
 BYTE   As1
 BYTE   W12
 BYTE   Cn1  v112
 BYTE   N12  Fs1  v080
 BYTE   W12
 BYTE   Cn1  v112
 BYTE   N12  As1  v080
 BYTE   W12
 BYTE   Dn1  v112
 BYTE   N12  Fs1  v080
 BYTE   W12
 BYTE   As1
 BYTE   W05
//  #08 //171   ----------------------------------------
 BYTE   PATT
  POIN2 Label_012C62D1
//  #08 //172   ----------------------------------------
 BYTE   PATT
  POIN2 Label_012C62A9
//  #08 //173   ----------------------------------------
 BYTE   PATT
  POIN2 Label_012C62D1
//  #08 //174   ----------------------------------------
 BYTE   PATT
  POIN2 Label_012C62A9
//  #08 //175   ----------------------------------------
 BYTE   PATT
  POIN2 Label_012C62D1
//  #08 //176   ----------------------------------------
 BYTE   PATT
  POIN2 Label_012C62A9
//  #08 //177   ----------------------------------------
 BYTE   PATT
  POIN2 Label_012C6315
//  #08 //178   ----------------------------------------
 BYTE   PATT
  POIN2 Label_012C6340
//  #08 //179   ----------------------------------------
 BYTE   PATT
  POIN2 Label_012C62D1
//  #08 //180   ----------------------------------------
 BYTE   PATT
  POIN2 Label_012C62A9
//  #08 //181   ----------------------------------------
 BYTE   PATT
  POIN2 Label_012C62D1
//  #08 //182   ----------------------------------------
 BYTE   PATT
  POIN2 Label_012C62A9
//  #08 //183   ----------------------------------------
 BYTE   PATT
  POIN2 Label_012C62D1
//  #08 //184   ----------------------------------------
 BYTE   PATT
  POIN2 Label_012C62A9
//  #08 //185   ----------------------------------------
 BYTE   W07
 BYTE   N12  Cn1  v092
 BYTE   N12  Dn1
 BYTE   N12  Fn1
 BYTE   N12  Gs2
 BYTE   W12
 BYTE   Dn1  v096
 BYTE   N12  Fn1
 BYTE   W12
 BYTE   Cn1
 BYTE   N12  Dn1
 BYTE   N12  Fn1
 BYTE   N12  Gs2
 BYTE   W12
 BYTE   Dn1  v100
 BYTE   N12  Fn1
 BYTE   W12
 BYTE   Cn1  v104
 BYTE   N12  Dn1
 BYTE   N12  Fn1
 BYTE   N12  Gs2
 BYTE   W12
 BYTE   Dn1
 BYTE   N12  Fn1
 BYTE   W12
 BYTE   Cn1  v108
 BYTE   N12  Dn1
 BYTE   N12  Fn1
 BYTE   N12  Gs2
 BYTE   W12
 BYTE   Dn1
 BYTE   N12  Cs2  v112
 BYTE   W05
//  #08 //186   ----------------------------------------
 BYTE   PATT
  POIN2 Label_012C62A9
//  #08 //187   ----------------------------------------
 BYTE   PATT
  POIN2 Label_012C62D1
//  #08 //188   ----------------------------------------
 BYTE   PATT
  POIN2 Label_012C62A9
//  #08 //189   ----------------------------------------
 BYTE   PATT
  POIN2 Label_012C62D1
//  #08 //190   ----------------------------------------
 BYTE   PATT
  POIN2 Label_012C62A9
//  #08 //191   ----------------------------------------
 BYTE   PATT
  POIN2 Label_012C62D1
//  #08 //192   ----------------------------------------
 BYTE   PATT
  POIN2 Label_012C62A9
//  #08 //193   ----------------------------------------
 BYTE   PATT
  POIN2 Label_012C6315
//  #08 //194   ----------------------------------------
 BYTE   PATT
  POIN2 Label_012C6340
//  #08 //195   ----------------------------------------
 BYTE   PATT
  POIN2 Label_012C62D1
//  #08 //196   ----------------------------------------
 BYTE   PATT
  POIN2 Label_012C62A9
//  #08 //197   ----------------------------------------
 BYTE   PATT
  POIN2 Label_012C62D1
//  #08 //198   ----------------------------------------
 BYTE   PATT
  POIN2 Label_012C62A9
//  #08 //199   ----------------------------------------
 BYTE   PATT
  POIN2 Label_012C62D1
//  #08 //200   ----------------------------------------
 BYTE   PATT
  POIN2 Label_012C62A9
//  #08 //201   ----------------------------------------
 BYTE   W07
 BYTE   N12  Cn1  v092
 BYTE   N12  Dn1  v064
 BYTE   N12  Fn1  v092
 BYTE   N12  Gs2
 BYTE   W12
 BYTE   Dn1  v072
 BYTE   N12  Fn1  v096
 BYTE   W12
 BYTE   Cn1
 BYTE   N12  Dn1  v080
 BYTE   N12  Fn1  v096
 BYTE   N12  Gs2
 BYTE   W12
 BYTE   Dn1  v088
 BYTE   N12  Fn1  v100
 BYTE   W12
 BYTE   Cn1  v104
 BYTE   N12  Dn1  v092
 BYTE   N12  Fn1  v104
 BYTE   N12  Gs2
 BYTE   W12
 BYTE   Dn1  v100
 BYTE   N12  Fn1  v104
 BYTE   W12
 BYTE   Cn1  v108
 BYTE   N12  Dn1
 BYTE   N12  Fn1
 BYTE   N12  Gs2
 BYTE   W12
 BYTE   Dn1  v116
 BYTE   N12  Fn1  v104
 BYTE   W05
//  #08 //202   ----------------------------------------
 BYTE   W07
 BYTE   Dn1  v112
 BYTE   N06  Fs1  v080
 BYTE   N12  Cs2  v112
 BYTE   W06
 BYTE   N06  Gs1  v080
 BYTE   W06
 BYTE   N06
 BYTE   W06
 BYTE   N06
 BYTE   W06
 BYTE   N12  Dn1  v112
 BYTE   N06  Fs1  v080
 BYTE   W06
 BYTE   Gs1
 BYTE   W06
 BYTE   N06
 BYTE   W06
 BYTE   N06
 BYTE   W06
 BYTE   N12  Dn1  v112
 BYTE   N06  Fs1  v080
 BYTE   W06
 BYTE   Gs1
 BYTE   W06
 BYTE   N06
 BYTE   W06
 BYTE   N06
 BYTE   W06
 BYTE   N12  Dn1  v112
 BYTE   N06  Fs1  v080
 BYTE   W06
 BYTE   Gs1
 BYTE   W06
 BYTE   N06
 BYTE   W05
//  #08 //203   ----------------------------------------
 BYTE   PATT
  POIN2 Label_012C5B16
//  #08 //204   ----------------------------------------
 BYTE   PATT
  POIN2 Label_012C5B55
//  #08 //205   ----------------------------------------
 BYTE   PATT
  POIN2 Label_012C5BA1
//  #08 //206   ----------------------------------------
 BYTE   PATT
  POIN2 Label_012C5BEC
//  #08 //207   ----------------------------------------
 BYTE   PATT
  POIN2 Label_012C5C40
//  #08 //208   ----------------------------------------
 BYTE   PATT
  POIN2 Label_012C5BA1
//  #08 //209   ----------------------------------------
 BYTE   PATT
  POIN2 Label_012C5C95
//  #08 //210   ----------------------------------------
 BYTE   PATT
  POIN2 Label_012C5CF6
//  #08 //211   ----------------------------------------
 BYTE   PATT
  POIN2 Label_012C5D45
//  #08 //212   ----------------------------------------
 BYTE   PATT
  POIN2 Label_012C5CF6
//  #08 //213   ----------------------------------------
 BYTE   PATT
  POIN2 Label_012C5D9D
//  #08 //214   ----------------------------------------
 BYTE   PATT
  POIN2 Label_012C5DF7
//  #08 //215   ----------------------------------------
 BYTE   PATT
  POIN2 Label_012C5E4E
//  #08 //216   ----------------------------------------
 BYTE   PATT
  POIN2 Label_012C5CF6
//  #08 //217   ----------------------------------------
 BYTE   W01
 BYTE   N06  Gs1  v080
 BYTE   W06
 BYTE   N12  Dn1  v112
 BYTE   N06  Fs1  v080
 BYTE   W06
 BYTE   Gs1
 BYTE   W06
 BYTE   N12  Cn1  v112
 BYTE   N06  Gs1  v080
 BYTE   N12  Cs2  v112
 BYTE   W06
 BYTE   N06  Gs1  v080
 BYTE   W06
 BYTE   N12  Dn1  v112
 BYTE   N06  Fs1  v080
 BYTE   W06
 BYTE   Gs1
 BYTE   W06
 BYTE   N12  Cn1  v112
 BYTE   N06  Gs1  v080
 BYTE   N12  Cs2  v112
 BYTE   W06
 BYTE   N06  Gs1  v080
 BYTE   W06
 BYTE   N12  Dn1  v112
 BYTE   N06  Fs1  v080
 BYTE   W06
 BYTE   Gs1
 BYTE   W06
 BYTE   N12  Cn1  v112
 BYTE   N06  Gs1  v080
 BYTE   N12  An2  v112
 BYTE   W06
 BYTE   N06  Gs1  v080
 BYTE   W06
 BYTE   N12  Dn1  v112
 BYTE   N06  Fs1  v080
 BYTE   W06
 BYTE   Gs1
 BYTE   W06
 BYTE   N12  Cn1  v112
 BYTE   N12  As1  v080
 BYTE   W05
//  #08 //218   ----------------------------------------
 BYTE   W07
 BYTE   Dn1  v112
 BYTE   W12
 BYTE   N12
 BYTE   N12  En2
 BYTE   W76
 BYTE   W01
//  #08 //219   ----------------------------------------
 BYTE   GoTo
  POIN2 Label_012C5ADA
//  #08 //220   ----------------------------------------
 BYTE   W96
//  #08 //221   ----------------------------------------
 BYTE   W96
//  #08 //222   ----------------------------------------
 BYTE   W96
//  #08 //223   ----------------------------------------
 BYTE   W96
//  #08 //224   ----------------------------------------
 BYTE   W96
//  #08 //225   ----------------------------------------
 BYTE   W96
//  #08 //226   ----------------------------------------
 BYTE   W96
//  #08 //227   ----------------------------------------
 BYTE   W96
//  #08 //228   ----------------------------------------
 BYTE   W96
//  #08 //229   ----------------------------------------
 BYTE   W96
//  #08 //230   ----------------------------------------
 BYTE   W96
//  #08 //231   ----------------------------------------
 BYTE   W96
//  #08 //232   ----------------------------------------
 BYTE   W96
//  #08 //233   ----------------------------------------
 BYTE   W96
//  #08 //234   ----------------------------------------
 BYTE   W96
//  #08 //235   ----------------------------------------
 BYTE   W07
 BYTE   FINE

//******************************************************//
	ALIGN 4

SplashWave:
	BYTE	8	// NumTrks
	BYTE	0	// NumBlks
	BYTE	SplashWave_pri	// Priority
	BYTE	SplashWave_rev	// Reverb.
    
	POIN2	SplashWave_grp
    
	POIN2	SplashWave_001
	POIN2	SplashWave_002
	POIN2	SplashWave_003
	POIN2	SplashWave_004
	POIN2	SplashWave_005
	POIN2	SplashWave_006
	POIN2	SplashWave_007
	POIN2	SplashWave_008

	
