//Event file generated from Sappy .s format.
	

	#define	StarFox64Map_grp  voicegroup000
	#define	StarFox64Map_pri  10
	#define	StarFox64Map_rev  0
	#define	StarFox64Map_mvl  127
	#define	StarFox64Map_key  0
	#define	StarFox64Map_tbs  1
	#define	StarFox64Map_exg  0
	#define	StarFox64Map_cmp  1

	// .rodata
	//	StarFox64Map
	ALIGN 4


//**************** Track 1 (Midi-Chn.0) ****************//

StarFox64Map_001:
//  #01 //000   ----------------------------------------
Label_010018B0:
 BYTE   TEMPO   120*StarFox64Map_tbs/2
 BYTE   KEYSH   StarFox64Map_key+0
 BYTE   VOICE   49
 BYTE   VOL   27*StarFox64Map_mvl/mxv
 BYTE   PAN   c_v+0
 BYTE   N96  Fn1  v100
 BYTE   N96  Cn2
 BYTE   W96
//  #01 //001   ----------------------------------------
Label_010018C0:
 BYTE   N96  Gs1  v100
 BYTE   N96  Ds2
 BYTE   W96
 BYTE   PEND 
//  #01 //002   ----------------------------------------
Label_010018C7:
 BYTE   N96  Gn1  v100
 BYTE   N96  Dn2
 BYTE   W96
 BYTE   PEND 
//  #01 //003   ----------------------------------------
Label_010018CE:
 BYTE   N96  Fs1  v100
 BYTE   N96  Cs2
 BYTE   W96
 BYTE   PEND 
//  #01 //004   ----------------------------------------
 BYTE   N96  Fn1  v100
 BYTE   N96  Cn2
 BYTE   W19
 BYTE   N72  Fn1
 BYTE   N72  Cn2
 BYTE   W96
//  #01 //005   ----------------------------------------
 BYTE   W96
//  #01 //006   ----------------------------------------
 BYTE   W96
//  #01 //007   ----------------------------------------
 BYTE   W96
//  #01 //008   ----------------------------------------
 BYTE   W96
//  #01 //009   ----------------------------------------
 BYTE   W96
//  #01 //010   ----------------------------------------
 BYTE   W96
//  #01 //011   ----------------------------------------
 BYTE   W76
 BYTE   N96  Fn1
 BYTE   N96  Cn2
 BYTE   W96
//  #01 //012   ----------------------------------------
 BYTE   PATT
  POIN2 Label_010018C0
//  #01 //013   ----------------------------------------
 BYTE   PATT
  POIN2 Label_010018C7
//  #01 //014   ----------------------------------------
 BYTE   PATT
  POIN2 Label_010018CE
//  #01 //015   ----------------------------------------
 BYTE   N96  Fn1  v100
 BYTE   N96  Cn2
 BYTE   W19
 BYTE   N72  Fn1
 BYTE   N72  Cn2
 BYTE   W96
//  #01 //016   ----------------------------------------
 BYTE   W76
Label_01001907:
 BYTE   N96  Bn4  v080
 BYTE   W19
 BYTE   N72
 BYTE   W96
//  #01 //017   ----------------------------------------
 BYTE   W76
 BYTE   PEND 
 BYTE   N96  Dn5  v080
 BYTE   W19
 BYTE   N72
 BYTE   W96
//  #01 //018   ----------------------------------------
 BYTE   W76
//  #01 //019   ----------------------------------------
 BYTE   PATT
  POIN2 Label_01001907
//  #01 //020   ----------------------------------------
 BYTE   N96  Dn5  v080
 BYTE   W19
 BYTE   N72
 BYTE   W96
//  #01 //021   ----------------------------------------
 BYTE   W76
 BYTE   N96  Fn1  v100
 BYTE   N96  Cn2
 BYTE   W96
//  #01 //022   ----------------------------------------
 BYTE   Gs1
 BYTE   N96  Ds2
 BYTE   W96
//  #01 //023   ----------------------------------------
 BYTE   Gn1
 BYTE   N96  Dn2
 BYTE   W96
//  #01 //024   ----------------------------------------
 BYTE   Fs1
 BYTE   N96  Cs2
 BYTE   W96
//  #01 //025   ----------------------------------------
 BYTE   Fn1
 BYTE   N96  Cn2
 BYTE   W19
 BYTE   N72  Fn1
 BYTE   N72  Cn2
 BYTE   W96
//  #01 //026   ----------------------------------------
 BYTE   W96
//  #01 //027   ----------------------------------------
 BYTE   W96
//  #01 //028   ----------------------------------------
 BYTE   W96
//  #01 //029   ----------------------------------------
 BYTE   W96
//  #01 //030   ----------------------------------------
 BYTE   W96
//  #01 //031   ----------------------------------------
 BYTE   W96
//  #01 //032   ----------------------------------------
 BYTE   W76
 BYTE   N96  Fn1
 BYTE   N96  Cn2
 BYTE   W96
//  #01 //033   ----------------------------------------
 BYTE   Gs1
 BYTE   N96  Ds2
 BYTE   W96
//  #01 //034   ----------------------------------------
 BYTE   Gn1
 BYTE   N96  Dn2
 BYTE   W96
//  #01 //035   ----------------------------------------
 BYTE   Fs1
 BYTE   N96  Cs2
 BYTE   W96
//  #01 //036   ----------------------------------------
 BYTE   Fn1
 BYTE   N96  Cn2
 BYTE   W19
 BYTE   N72  Fn1
 BYTE   N72  Cn2
 BYTE   W96
//  #01 //037   ----------------------------------------
 BYTE   W76
 BYTE   N96  Bn4  v080
 BYTE   W19
 BYTE   N72
 BYTE   W96
//  #01 //038   ----------------------------------------
 BYTE   W76
 BYTE   N96  Dn5
 BYTE   W19
 BYTE   N72
 BYTE   W96
//  #01 //039   ----------------------------------------
 BYTE   W76
 BYTE   N96  Bn4
 BYTE   W19
 BYTE   N72
 BYTE   W96
//  #01 //040   ----------------------------------------
 BYTE   W76
 BYTE   N96  Dn5
 BYTE   W19
 BYTE   N72
 BYTE   W96
//  #01 //041   ----------------------------------------
 BYTE   W76
 BYTE   GoTo
  POIN2 Label_010018B0
 BYTE   FINE

//**************** Track 2 (Midi-Chn.1) ****************//

StarFox64Map_002:
//  #02 //000   ----------------------------------------
Label_01001BB0:
 BYTE   TEMPO   120*StarFox64Map_tbs/2
 BYTE   KEYSH   StarFox64Map_key+0
 BYTE   VOICE   56
 BYTE   VOL   44*StarFox64Map_mvl/mxv
 BYTE   PAN   c_v+0
 BYTE   N06  Fn2  v100
 BYTE   W12
 BYTE   Fn2
 BYTE   W24
 BYTE   Fn2
 BYTE   W12
 BYTE   Fn2
 BYTE   W24
 BYTE   Fn2
 BYTE   W12
 BYTE   Fn2
 BYTE   W06
 BYTE   Fn2
 BYTE   W06
//  #02 //001   ----------------------------------------
Label_01001BCA:
 BYTE   N06  Fn2  v100
 BYTE   W12
 BYTE   Fn2
 BYTE   W24
 BYTE   Fn2
 BYTE   W12
 BYTE   Fn2
 BYTE   W24
 BYTE   Fn2
 BYTE   W12
 BYTE   Fn2
 BYTE   W06
 BYTE   Fn2
 BYTE   W06
 BYTE   PEND 
//  #02 //002   ----------------------------------------
 BYTE   PATT
  POIN2 Label_01001BCA
//  #02 //003   ----------------------------------------
 BYTE   PATT
  POIN2 Label_01001BCA
//  #02 //004   ----------------------------------------
 BYTE   PATT
  POIN2 Label_01001BCA
//  #02 //005   ----------------------------------------
 BYTE   PATT
  POIN2 Label_01001BCA
//  #02 //006   ----------------------------------------
 BYTE   PATT
  POIN2 Label_01001BCA
//  #02 //007   ----------------------------------------
 BYTE   PATT
  POIN2 Label_01001BCA
//  #02 //008   ----------------------------------------
 BYTE   PATT
  POIN2 Label_01001BCA
//  #02 //009   ----------------------------------------
 BYTE   PATT
  POIN2 Label_01001BCA
//  #02 //010   ----------------------------------------
 BYTE   PATT
  POIN2 Label_01001BCA
//  #02 //011   ----------------------------------------
 BYTE   PATT
  POIN2 Label_01001BCA
//  #02 //012   ----------------------------------------
 BYTE   PATT
  POIN2 Label_01001BCA
//  #02 //013   ----------------------------------------
 BYTE   PATT
  POIN2 Label_01001BCA
//  #02 //014   ----------------------------------------
 BYTE   PATT
  POIN2 Label_01001BCA
//  #02 //015   ----------------------------------------
 BYTE   PATT
  POIN2 Label_01001BCA
//  #02 //016   ----------------------------------------
 BYTE   PATT
  POIN2 Label_01001BCA
//  #02 //017   ----------------------------------------
 BYTE   PATT
  POIN2 Label_01001BCA
//  #02 //018   ----------------------------------------
 BYTE   PATT
  POIN2 Label_01001BCA
//  #02 //019   ----------------------------------------
 BYTE   PATT
  POIN2 Label_01001BCA
//  #02 //020   ----------------------------------------
 BYTE   PATT
  POIN2 Label_01001BCA
//  #02 //021   ----------------------------------------
 BYTE   PATT
  POIN2 Label_01001BCA
//  #02 //022   ----------------------------------------
 BYTE   PATT
  POIN2 Label_01001BCA
//  #02 //023   ----------------------------------------
 BYTE   PATT
  POIN2 Label_01001BCA
//  #02 //024   ----------------------------------------
 BYTE   PATT
  POIN2 Label_01001BCA
//  #02 //025   ----------------------------------------
 BYTE   N06  Fn2  v100
 BYTE   W12
 BYTE   Fn2
 BYTE   W24
 BYTE   Fn2
 BYTE   W12
 BYTE   Fn2
 BYTE   W24
 BYTE   Fn2
 BYTE   W12
 BYTE   Fn2
 BYTE   W06
 BYTE   Fn2
 BYTE   W06
//  #02 //026   ----------------------------------------
 BYTE   N06  Fn2  v100
 BYTE   W12
 BYTE   Fn2
 BYTE   W24
 BYTE   Fn2
 BYTE   W12
 BYTE   Fn2
 BYTE   W24
 BYTE   Fn2
 BYTE   W12
 BYTE   Fn2
 BYTE   W06
 BYTE   Fn2
 BYTE   W06
//  #02 //027   ----------------------------------------
 BYTE   Fn2
 BYTE   W12
 BYTE   Fn2
 BYTE   W24
 BYTE   Fn2
 BYTE   W12
 BYTE   Fn2
 BYTE   W24
 BYTE   Fn2
 BYTE   W12
 BYTE   Fn2
 BYTE   W06
 BYTE   Fn2
 BYTE   W06
//  #02 //028   ----------------------------------------
 BYTE   Fn2
 BYTE   W12
 BYTE   Fn2
 BYTE   W24
 BYTE   Fn2
 BYTE   W12
 BYTE   Fn2
 BYTE   W24
 BYTE   Fn2
 BYTE   W12
 BYTE   Fn2
 BYTE   W06
 BYTE   Fn2
 BYTE   W06
//  #02 //029   ----------------------------------------
 BYTE   Fn2
 BYTE   W12
 BYTE   Fn2
 BYTE   W24
 BYTE   Fn2
 BYTE   W12
 BYTE   Fn2
 BYTE   W24
 BYTE   Fn2
 BYTE   W12
 BYTE   Fn2
 BYTE   W06
 BYTE   Fn2
 BYTE   W06
//  #02 //030   ----------------------------------------
 BYTE   Fn2
 BYTE   W12
 BYTE   Fn2
 BYTE   W24
 BYTE   Fn2
 BYTE   W12
 BYTE   Fn2
 BYTE   W24
 BYTE   Fn2
 BYTE   W12
 BYTE   Fn2
 BYTE   W06
 BYTE   Fn2
 BYTE   W06
//  #02 //031   ----------------------------------------
 BYTE   Fn2
 BYTE   W12
 BYTE   Fn2
 BYTE   W24
 BYTE   Fn2
 BYTE   W12
 BYTE   Fn2
 BYTE   W24
 BYTE   Fn2
 BYTE   W12
 BYTE   Fn2
 BYTE   W06
 BYTE   Fn2
 BYTE   W06
//  #02 //032   ----------------------------------------
 BYTE   Fn2
 BYTE   W12
 BYTE   Fn2
 BYTE   W24
 BYTE   Fn2
 BYTE   W12
 BYTE   Fn2
 BYTE   W24
 BYTE   Fn2
 BYTE   W12
 BYTE   Fn2
 BYTE   W06
 BYTE   Fn2
 BYTE   W06
//  #02 //033   ----------------------------------------
 BYTE   Fn2
 BYTE   W12
 BYTE   Fn2
 BYTE   W24
 BYTE   Fn2
 BYTE   W12
 BYTE   Fn2
 BYTE   W24
 BYTE   Fn2
 BYTE   W12
 BYTE   Fn2
 BYTE   W06
 BYTE   Fn2
 BYTE   W06
//  #02 //034   ----------------------------------------
 BYTE   Fn2
 BYTE   W12
 BYTE   Fn2
 BYTE   W24
 BYTE   Fn2
 BYTE   W12
 BYTE   Fn2
 BYTE   W24
 BYTE   Fn2
 BYTE   W12
 BYTE   Fn2
 BYTE   W06
 BYTE   Fn2
 BYTE   W06
//  #02 //035   ----------------------------------------
 BYTE   Fn2
 BYTE   W12
 BYTE   Fn2
 BYTE   W24
 BYTE   Fn2
 BYTE   W12
 BYTE   Fn2
 BYTE   W24
 BYTE   Fn2
 BYTE   W12
 BYTE   Fn2
 BYTE   W06
 BYTE   Fn2
 BYTE   W06
//  #02 //036   ----------------------------------------
 BYTE   Fn2
 BYTE   W12
 BYTE   Fn2
 BYTE   W24
 BYTE   Fn2
 BYTE   W12
 BYTE   Fn2
 BYTE   W24
 BYTE   Fn2
 BYTE   W12
 BYTE   Fn2
 BYTE   W06
 BYTE   Fn2
 BYTE   W06
//  #02 //037   ----------------------------------------
 BYTE   Fn2
 BYTE   W12
 BYTE   Fn2
 BYTE   W24
 BYTE   Fn2
 BYTE   W12
 BYTE   Fn2
 BYTE   W24
 BYTE   Fn2
 BYTE   W12
 BYTE   Fn2
 BYTE   W06
 BYTE   Fn2
 BYTE   W06
//  #02 //038   ----------------------------------------
 BYTE   Fn2
 BYTE   W12
 BYTE   Fn2
 BYTE   W24
 BYTE   Fn2
 BYTE   W12
 BYTE   Fn2
 BYTE   W24
 BYTE   Fn2
 BYTE   W12
 BYTE   Fn2
 BYTE   W06
 BYTE   Fn2
 BYTE   W06
//  #02 //039   ----------------------------------------
 BYTE   Fn2
 BYTE   W12
 BYTE   Fn2
 BYTE   W24
 BYTE   Fn2
 BYTE   W12
 BYTE   Fn2
 BYTE   W24
 BYTE   Fn2
 BYTE   W12
 BYTE   Fn2
 BYTE   W06
 BYTE   Fn2
 BYTE   W06
//  #02 //040   ----------------------------------------
 BYTE   Fn2
 BYTE   W12
 BYTE   Fn2
 BYTE   W24
 BYTE   Fn2
 BYTE   W12
 BYTE   Fn2
 BYTE   W24
 BYTE   Fn2
 BYTE   W12
 BYTE   Fn2
 BYTE   W06
 BYTE   Fn2
 BYTE   W06
//  #02 //041   ----------------------------------------
 BYTE   Fn2
 BYTE   W12
 BYTE   Fn2
 BYTE   W24
 BYTE   Fn2
 BYTE   W12
 BYTE   Fn2
 BYTE   W24
 BYTE   Fn2
 BYTE   W12
 BYTE   Fn2
 BYTE   W06
 BYTE   Fn2
 BYTE   W06
//  #02 //042   ----------------------------------------
 BYTE   Fn2
 BYTE   W12
 BYTE   Fn2
 BYTE   W24
 BYTE   Fn2
 BYTE   W12
 BYTE   Fn2
 BYTE   W24
 BYTE   Fn2
 BYTE   W12
 BYTE   Fn2
 BYTE   W06
 BYTE   Fn2
 BYTE   W06
//  #02 //043   ----------------------------------------
 BYTE   Fn2
 BYTE   W12
 BYTE   Fn2
 BYTE   W24
 BYTE   Fn2
 BYTE   W12
 BYTE   Fn2
 BYTE   W24
 BYTE   Fn2
 BYTE   W12
 BYTE   Fn2
 BYTE   W06
 BYTE   Fn2
 BYTE   W06
//  #02 //044   ----------------------------------------
 BYTE   Fn2
 BYTE   W12
 BYTE   Fn2
 BYTE   W24
 BYTE   Fn2
 BYTE   W12
 BYTE   Fn2
 BYTE   W24
 BYTE   Fn2
 BYTE   W12
 BYTE   Fn2
 BYTE   W06
 BYTE   Fn2
 BYTE   W06
//  #02 //045   ----------------------------------------
 BYTE   Fn2
 BYTE   W12
 BYTE   Fn2
 BYTE   W24
 BYTE   Fn2
 BYTE   W12
 BYTE   Fn2
 BYTE   W24
 BYTE   Fn2
 BYTE   W12
 BYTE   Fn2
 BYTE   W06
 BYTE   Fn2
 BYTE   W06
//  #02 //046   ----------------------------------------
 BYTE   Fn2
 BYTE   W12
 BYTE   Fn2
 BYTE   W24
 BYTE   Fn2
 BYTE   W12
 BYTE   Fn2
 BYTE   W24
 BYTE   Fn2
 BYTE   W12
 BYTE   Fn2
 BYTE   W06
 BYTE   Fn2
 BYTE   W06
//  #02 //047   ----------------------------------------
 BYTE   Fn2
 BYTE   W12
 BYTE   Fn2
 BYTE   W24
 BYTE   Fn2
 BYTE   W12
 BYTE   Fn2
 BYTE   W24
 BYTE   Fn2
 BYTE   W12
 BYTE   Fn2
 BYTE   W06
 BYTE   Fn2
 BYTE   W06
//  #02 //048   ----------------------------------------
 BYTE   Fn2
 BYTE   W12
 BYTE   Fn2
 BYTE   W24
 BYTE   Fn2
 BYTE   W12
 BYTE   Fn2
 BYTE   W24
 BYTE   Fn2
 BYTE   W12
 BYTE   Fn2
 BYTE   W06
 BYTE   Fn2
 BYTE   W06
//  #02 //049   ----------------------------------------
 BYTE   Fn2
 BYTE   W12
 BYTE   Fn2
 BYTE   W24
 BYTE   Fn2
 BYTE   W12
 BYTE   Fn2
 BYTE   W24
 BYTE   Fn2
 BYTE   W12
 BYTE   Fn2
 BYTE   W06
 BYTE   Fn2
 BYTE   W06
//  #02 //050   ----------------------------------------
 BYTE   Fn2
 BYTE   W12
 BYTE   Fn2
 BYTE   W24
 BYTE   Fn2
 BYTE   W12
 BYTE   Fn2
 BYTE   W24
 BYTE   Fn2
 BYTE   W12
 BYTE   Fn2
 BYTE   W06
 BYTE   Fn2
 BYTE   W06
//  #02 //051   ----------------------------------------
 BYTE   Fn2
 BYTE   W12
 BYTE   Fn2
 BYTE   W24
 BYTE   Fn2
 BYTE   W12
 BYTE   Fn2
 BYTE   W24
 BYTE   Fn2
 BYTE   W12
 BYTE   Fn2
 BYTE   W06
 BYTE   Fn2
 BYTE   W06
//  #02 //052   ----------------------------------------
 BYTE   GoTo
  POIN2 Label_01001BB0
 BYTE   FINE

//**************** Track 3 (Midi-Chn.2) ****************//

StarFox64Map_003:
//  #03 //000   ----------------------------------------
Label_01001980:
 BYTE   TEMPO   120*StarFox64Map_tbs/2
 BYTE   KEYSH   StarFox64Map_key+0
 BYTE   VOICE   60
 BYTE   VOL   52*StarFox64Map_mvl/mxv
 BYTE   PAN   c_v+0
 BYTE   W96
//  #03 //001   ----------------------------------------
 BYTE   W96
//  #03 //002   ----------------------------------------
 BYTE   W96
//  #03 //003   ----------------------------------------
 BYTE   W96
//  #03 //004   ----------------------------------------
 BYTE   W96
//  #03 //005   ----------------------------------------
 BYTE   W96
//  #03 //006   ----------------------------------------
Label_01001990:
 BYTE   N06  Fn2  v100
 BYTE   N06  Cn3
 BYTE   W24
 BYTE   Fn2
 BYTE   N06  Cn3
 BYTE   W24
 BYTE   Fn2
 BYTE   N06  Cn3
 BYTE   W24
 BYTE   Fn2
 BYTE   N06  Cn3
 BYTE   W12
 BYTE   Gn2
 BYTE   N06  Dn3
 BYTE   W12
 BYTE   PEND 
//  #03 //007   ----------------------------------------
Label_010019A7:
 BYTE   N84  Gs2  v100
 BYTE   N84  Ds3
 BYTE   W84
 BYTE   N06  Fn3
 BYTE   N06  As2
 BYTE   W06
 BYTE   Ds3
 BYTE   N06  Gs2
 BYTE   W06
 BYTE   PEND 
//  #03 //008   ----------------------------------------
Label_010019B7:
 BYTE   N84  Gn2  v100
 BYTE   N84  Dn3
 BYTE   W84
 BYTE   N06  Gs2
 BYTE   N06  Ds3
 BYTE   W06
 BYTE   Gn2
 BYTE   N06  Dn3
 BYTE   W06
 BYTE   PEND 
//  #03 //009   ----------------------------------------
Label_010019C7:
 BYTE   N84  Fs2  v100
 BYTE   N84  Cs3
 BYTE   W84
 BYTE   N06  Gn2
 BYTE   N06  Dn3
 BYTE   W06
 BYTE   Fs2
 BYTE   N06  Cs3
 BYTE   W06
 BYTE   PEND 
//  #03 //010   ----------------------------------------
 BYTE   N06  Fn2  v100
 BYTE   N06  Cn3
 BYTE   W12
 BYTE   Fn2
 BYTE   N06  Cn3
 BYTE   W12
 BYTE   N96  Fn2
 BYTE   N96  Cn2
 BYTE   W19
 BYTE   N48  Fn2
 BYTE   N48  Cn2
 BYTE   W96
//  #03 //011   ----------------------------------------
 BYTE   W52
//  #03 //012   ----------------------------------------
 BYTE   PATT
  POIN2 Label_01001990
//  #03 //013   ----------------------------------------
 BYTE   PATT
  POIN2 Label_010019A7
//  #03 //014   ----------------------------------------
 BYTE   PATT
  POIN2 Label_010019B7
//  #03 //015   ----------------------------------------
 BYTE   PATT
  POIN2 Label_010019C7
//  #03 //016   ----------------------------------------
 BYTE   N06  Fn2  v100
 BYTE   N06  Cn3
 BYTE   W12
 BYTE   Fn2
 BYTE   N06  Cn3
 BYTE   W12
 BYTE   N96  Fn2
 BYTE   N96  Cn2
 BYTE   W19
 BYTE   N48  Fn2
 BYTE   N48  Cn2
 BYTE   W96
//  #03 //017   ----------------------------------------
 BYTE   W96
//  #03 //018   ----------------------------------------
 BYTE   W96
//  #03 //019   ----------------------------------------
 BYTE   W96
//  #03 //020   ----------------------------------------
 BYTE   W96
//  #03 //021   ----------------------------------------
 BYTE   W96
//  #03 //022   ----------------------------------------
 BYTE   W96
//  #03 //023   ----------------------------------------
 BYTE   W96
//  #03 //024   ----------------------------------------
 BYTE   W96
//  #03 //025   ----------------------------------------
 BYTE   W52
 BYTE   W96
//  #03 //026   ----------------------------------------
 BYTE   W96
//  #03 //027   ----------------------------------------
 BYTE   W96
//  #03 //028   ----------------------------------------
 BYTE   W96
//  #03 //029   ----------------------------------------
 BYTE   W96
//  #03 //030   ----------------------------------------
 BYTE   W96
//  #03 //031   ----------------------------------------
 BYTE   N06  Fn2  v100
 BYTE   N06  Cn3
 BYTE   W24
 BYTE   Fn2
 BYTE   N06  Cn3
 BYTE   W24
 BYTE   Fn2
 BYTE   N06  Cn3
 BYTE   W24
 BYTE   Fn2
 BYTE   N06  Cn3
 BYTE   W12
 BYTE   Gn2
 BYTE   N06  Dn3
 BYTE   W12
//  #03 //032   ----------------------------------------
 BYTE   N84  Gs2
 BYTE   N84  Ds3
 BYTE   W84
 BYTE   N06  Fn3
 BYTE   N06  As2
 BYTE   W06
 BYTE   Ds3
 BYTE   N06  Gs2
 BYTE   W06
//  #03 //033   ----------------------------------------
 BYTE   N84  Gn2
 BYTE   N84  Dn3
 BYTE   W84
 BYTE   N06  Gs2
 BYTE   N06  Ds3
 BYTE   W06
 BYTE   Gn2
 BYTE   N06  Dn3
 BYTE   W06
//  #03 //034   ----------------------------------------
 BYTE   N84  Fs2
 BYTE   N84  Cs3
 BYTE   W84
 BYTE   N06  Gn2
 BYTE   N06  Dn3
 BYTE   W06
 BYTE   Fs2
 BYTE   N06  Cs3
 BYTE   W06
//  #03 //035   ----------------------------------------
 BYTE   Fn2
 BYTE   N06  Cn3
 BYTE   W12
 BYTE   Fn2
 BYTE   N06  Cn3
 BYTE   W12
 BYTE   N96  Fn2
 BYTE   N96  Cn2
 BYTE   W19
 BYTE   N48  Fn2
 BYTE   N48  Cn2
 BYTE   W96
//  #03 //036   ----------------------------------------
 BYTE   W52
 BYTE   N06  Fn2
 BYTE   N06  Cn3
 BYTE   W24
 BYTE   Fn2
 BYTE   N06  Cn3
 BYTE   W24
//  #03 //037   ----------------------------------------
 BYTE   Fn2
 BYTE   N06  Cn3
 BYTE   W24
 BYTE   Fn2
 BYTE   N06  Cn3
 BYTE   W12
 BYTE   Gn2
 BYTE   N06  Dn3
 BYTE   W12
 BYTE   N84  Gs2
 BYTE   N84  Ds3
 BYTE   W84
//  #03 //038   ----------------------------------------
 BYTE   N06  Fn3
 BYTE   N06  As2
 BYTE   W06
 BYTE   Ds3
 BYTE   N06  Gs2
 BYTE   W06
 BYTE   N84  Gn2
 BYTE   N84  Dn3
 BYTE   W84
//  #03 //039   ----------------------------------------
 BYTE   N06  Gs2
 BYTE   N06  Ds3
 BYTE   W06
 BYTE   Gn2
 BYTE   N06  Dn3
 BYTE   W06
 BYTE   N84  Fs2
 BYTE   N84  Cs3
 BYTE   W84
//  #03 //040   ----------------------------------------
 BYTE   N06  Gn2
 BYTE   N06  Dn3
 BYTE   W06
 BYTE   Fs2
 BYTE   N06  Cs3
 BYTE   W06
 BYTE   Fn2
 BYTE   N06  Cn3
 BYTE   W12
 BYTE   Fn2
 BYTE   N06  Cn3
 BYTE   W12
 BYTE   N96  Fn2
 BYTE   N96  Cn2
 BYTE   W19
 BYTE   N48  Fn2
 BYTE   N48  Cn2
 BYTE   W96
//  #03 //041   ----------------------------------------
 BYTE   W96
//  #03 //042   ----------------------------------------
 BYTE   W96
//  #03 //043   ----------------------------------------
 BYTE   W96
//  #03 //044   ----------------------------------------
 BYTE   W96
//  #03 //045   ----------------------------------------
 BYTE   W96
//  #03 //046   ----------------------------------------
 BYTE   W96
//  #03 //047   ----------------------------------------
 BYTE   W96
//  #03 //048   ----------------------------------------
 BYTE   W96
//  #03 //049   ----------------------------------------
 BYTE   W52
 BYTE   GoTo
  POIN2 Label_01001980
 BYTE   FINE

//**************** Track 4 (Midi-Chn.3) ****************//

StarFox64Map_004:
//  #04 //000   ----------------------------------------
Label_01001DE4:
 BYTE   TEMPO   120*StarFox64Map_tbs/2
 BYTE   KEYSH   StarFox64Map_key+0
 BYTE   VOICE   56
 BYTE   VOL   37*StarFox64Map_mvl/mxv
 BYTE   PAN   c_v+0
 BYTE   W96
//  #04 //001   ----------------------------------------
 BYTE   W96
//  #04 //002   ----------------------------------------
 BYTE   W96
//  #04 //003   ----------------------------------------
 BYTE   W96
//  #04 //004   ----------------------------------------
 BYTE   W96
//  #04 //005   ----------------------------------------
 BYTE   W96
//  #04 //006   ----------------------------------------
 BYTE   W96
//  #04 //007   ----------------------------------------
 BYTE   W96
//  #04 //008   ----------------------------------------
 BYTE   W96
//  #04 //009   ----------------------------------------
 BYTE   W96
//  #04 //010   ----------------------------------------
 BYTE   W96
//  #04 //011   ----------------------------------------
 BYTE   W96
//  #04 //012   ----------------------------------------
 BYTE   W96
//  #04 //013   ----------------------------------------
 BYTE   W96
//  #04 //014   ----------------------------------------
 BYTE   W96
//  #04 //015   ----------------------------------------
 BYTE   W96
//  #04 //016   ----------------------------------------
 BYTE   W96
//  #04 //017   ----------------------------------------
 BYTE   W72
 BYTE   N08  Fn2  v110
 BYTE   W08
 BYTE   Cn3
 BYTE   W08
 BYTE   Fn3
 BYTE   W08
//  #04 //018   ----------------------------------------
 BYTE   N96  En3
 BYTE   W96
//  #04 //019   ----------------------------------------
Label_01001E0B:
 BYTE   N08  Ds3  v110
 BYTE   W08
 BYTE   Dn3
 BYTE   W08
 BYTE   Bn2
 BYTE   W08
 BYTE   N12  Fn2
 BYTE   W72
 BYTE   PEND 
//  #04 //020   ----------------------------------------
Label_01001E17:
 BYTE   N08  Fn2  v110
 BYTE   W08
 BYTE   Cn3
 BYTE   W08
 BYTE   Fn3
 BYTE   W08
 BYTE   N72  En3
 BYTE   W72
 BYTE   PEND 
//  #04 //021   ----------------------------------------
 BYTE   N08  Ds3  v110
 BYTE   W08
 BYTE   Dn3
 BYTE   W08
 BYTE   Bn2
 BYTE   W08
 BYTE   N12  Bn3
 BYTE   W72
//  #04 //022   ----------------------------------------
 BYTE   PATT
  POIN2 Label_01001E17
//  #04 //023   ----------------------------------------
 BYTE   PATT
  POIN2 Label_01001E0B
//  #04 //024   ----------------------------------------
 BYTE   PATT
  POIN2 Label_01001E17
//  #04 //025   ----------------------------------------
 BYTE   N08  Ds3  v110
 BYTE   W08
 BYTE   Dn3
 BYTE   W08
 BYTE   Bn2
 BYTE   W08
 BYTE   N12  Bn3
 BYTE   W72
//  #04 //026   ----------------------------------------
 BYTE   W96
//  #04 //027   ----------------------------------------
 BYTE   W96
//  #04 //028   ----------------------------------------
 BYTE   W96
//  #04 //029   ----------------------------------------
 BYTE   W96
//  #04 //030   ----------------------------------------
 BYTE   W96
//  #04 //031   ----------------------------------------
 BYTE   W96
//  #04 //032   ----------------------------------------
 BYTE   W96
//  #04 //033   ----------------------------------------
 BYTE   W96
//  #04 //034   ----------------------------------------
 BYTE   W96
//  #04 //035   ----------------------------------------
 BYTE   W96
//  #04 //036   ----------------------------------------
 BYTE   W96
//  #04 //037   ----------------------------------------
 BYTE   W96
//  #04 //038   ----------------------------------------
 BYTE   W96
//  #04 //039   ----------------------------------------
 BYTE   W96
//  #04 //040   ----------------------------------------
 BYTE   W96
//  #04 //041   ----------------------------------------
 BYTE   W96
//  #04 //042   ----------------------------------------
 BYTE   W96
//  #04 //043   ----------------------------------------
 BYTE   W72
 BYTE   N08  Fn2  v110
 BYTE   W08
 BYTE   Cn3
 BYTE   W08
 BYTE   Fn3
 BYTE   W08
//  #04 //044   ----------------------------------------
 BYTE   N96  En3
 BYTE   W96
//  #04 //045   ----------------------------------------
 BYTE   N08  Ds3
 BYTE   W08
 BYTE   Dn3
 BYTE   W08
 BYTE   Bn2
 BYTE   W08
 BYTE   N12  Fn2
 BYTE   W72
//  #04 //046   ----------------------------------------
 BYTE   N08
 BYTE   W08
 BYTE   Cn3
 BYTE   W08
 BYTE   Fn3
 BYTE   W08
 BYTE   N72  En3
 BYTE   W72
//  #04 //047   ----------------------------------------
 BYTE   N08  Ds3
 BYTE   W08
 BYTE   Dn3
 BYTE   W08
 BYTE   Bn2
 BYTE   W08
 BYTE   N12  Bn3
 BYTE   W72
//  #04 //048   ----------------------------------------
 BYTE   N08  Fn2
 BYTE   W08
 BYTE   Cn3
 BYTE   W08
 BYTE   Fn3
 BYTE   W08
 BYTE   N72  En3
 BYTE   W72
//  #04 //049   ----------------------------------------
 BYTE   N08  Ds3
 BYTE   W08
 BYTE   Dn3
 BYTE   W08
 BYTE   Bn2
 BYTE   W08
 BYTE   N12  Fn2
 BYTE   W72
//  #04 //050   ----------------------------------------
 BYTE   N08
 BYTE   W08
 BYTE   Cn3
 BYTE   W08
 BYTE   Fn3
 BYTE   W08
 BYTE   N72  En3
 BYTE   W72
//  #04 //051   ----------------------------------------
 BYTE   N08  Ds3
 BYTE   W08
 BYTE   Dn3
 BYTE   W08
 BYTE   Bn2
 BYTE   W08
 BYTE   N12  Bn3
 BYTE   W72
//  #04 //052   ----------------------------------------
 BYTE   GoTo
  POIN2 Label_01001DE4
 BYTE   FINE

//**************** Track 5 (Midi-Chn.4) ****************//

StarFox64Map_005:
//  #05 //000   ----------------------------------------
Label_01001EC4:
 BYTE   TEMPO   120*StarFox64Map_tbs/2
 BYTE   KEYSH   StarFox64Map_key+0
 BYTE   VOICE   48
 BYTE   VOL   30*StarFox64Map_mvl/mxv
 BYTE   PAN   c_v+0
 BYTE   W96
//  #05 //001   ----------------------------------------
 BYTE   W96
//  #05 //002   ----------------------------------------
 BYTE   W96
//  #05 //003   ----------------------------------------
 BYTE   W96
//  #05 //004   ----------------------------------------
 BYTE   W96
//  #05 //005   ----------------------------------------
 BYTE   W96
//  #05 //006   ----------------------------------------
 BYTE   W96
//  #05 //007   ----------------------------------------
 BYTE   W24
Label_01001ED6:
 BYTE   N12  Cn3  v100
 BYTE   W12
 BYTE   Dn3
 BYTE   W12
 BYTE   N84  Ds3
 BYTE   W84
 BYTE   PEND 
//  #05 //008   ----------------------------------------
Label_01001EE0:
 BYTE   N06  Fn3  v100
 BYTE   W06
 BYTE   Ds3
 BYTE   W06
 BYTE   N84  Dn3
 BYTE   W84
 BYTE   PEND 
//  #05 //009   ----------------------------------------
Label_01001EEA:
 BYTE   N06  Ds3  v100
 BYTE   W06
 BYTE   Dn3
 BYTE   W06
 BYTE   N84  Cs3
 BYTE   W84
 BYTE   PEND 
//  #05 //010   ----------------------------------------
 BYTE   N06  Dn3  v100
 BYTE   W06
 BYTE   Cs3
 BYTE   W06
 BYTE   Cn3
 BYTE   W12
 BYTE   Cn3
 BYTE   W12
 BYTE   N96  Fn2
 BYTE   W19
 BYTE   N24
 BYTE   W96
//  #05 //011   ----------------------------------------
 BYTE   W96
//  #05 //012   ----------------------------------------
 BYTE   W28
//  #05 //013   ----------------------------------------
 BYTE   PATT
  POIN2 Label_01001ED6
//  #05 //014   ----------------------------------------
 BYTE   PATT
  POIN2 Label_01001EE0
//  #05 //015   ----------------------------------------
 BYTE   PATT
  POIN2 Label_01001EEA
//  #05 //016   ----------------------------------------
 BYTE   N06  Dn3  v100
 BYTE   W06
 BYTE   Cs3
 BYTE   W06
 BYTE   Cn3
 BYTE   W12
 BYTE   Cn3
 BYTE   W12
 BYTE   N96  Fn2
 BYTE   W19
 BYTE   N24
 BYTE   W96
//  #05 //017   ----------------------------------------
 BYTE   W96
//  #05 //018   ----------------------------------------
 BYTE   W96
//  #05 //019   ----------------------------------------
 BYTE   W96
//  #05 //020   ----------------------------------------
 BYTE   W96
//  #05 //021   ----------------------------------------
 BYTE   W96
//  #05 //022   ----------------------------------------
 BYTE   W96
//  #05 //023   ----------------------------------------
 BYTE   W96
//  #05 //024   ----------------------------------------
 BYTE   W96
//  #05 //025   ----------------------------------------
 BYTE   W04
 BYTE   W96
//  #05 //026   ----------------------------------------
 BYTE   W96
//  #05 //027   ----------------------------------------
 BYTE   W96
//  #05 //028   ----------------------------------------
 BYTE   W96
//  #05 //029   ----------------------------------------
 BYTE   W96
//  #05 //030   ----------------------------------------
 BYTE   W96
//  #05 //031   ----------------------------------------
 BYTE   W96
//  #05 //032   ----------------------------------------
 BYTE   W24
 BYTE   N12  Cn3  v100
 BYTE   W12
 BYTE   Dn3
 BYTE   W12
 BYTE   N84  Ds3
 BYTE   W84
//  #05 //033   ----------------------------------------
 BYTE   N06  Fn3
 BYTE   W06
 BYTE   Ds3
 BYTE   W06
 BYTE   N84  Dn3
 BYTE   W84
//  #05 //034   ----------------------------------------
 BYTE   N06  Ds3
 BYTE   W06
 BYTE   Dn3
 BYTE   W06
 BYTE   N84  Cs3
 BYTE   W84
//  #05 //035   ----------------------------------------
 BYTE   N06  Dn3
 BYTE   W06
 BYTE   Cs3
 BYTE   W06
 BYTE   Cn3
 BYTE   W12
 BYTE   Cn3
 BYTE   W12
 BYTE   N96  Fn2
 BYTE   W19
 BYTE   N24
 BYTE   W96
//  #05 //036   ----------------------------------------
 BYTE   W96
//  #05 //037   ----------------------------------------
 BYTE   W28
 BYTE   N12  Cn3
 BYTE   W12
 BYTE   Dn3
 BYTE   W12
 BYTE   N84  Ds3
 BYTE   W84
//  #05 //038   ----------------------------------------
 BYTE   N06  Fn3
 BYTE   W06
 BYTE   Ds3
 BYTE   W06
 BYTE   N84  Dn3
 BYTE   W84
//  #05 //039   ----------------------------------------
 BYTE   N06  Ds3
 BYTE   W06
 BYTE   Dn3
 BYTE   W06
 BYTE   N84  Cs3
 BYTE   W84
//  #05 //040   ----------------------------------------
 BYTE   N06  Dn3
 BYTE   W06
 BYTE   Cs3
 BYTE   W06
 BYTE   Cn3
 BYTE   W12
 BYTE   Cn3
 BYTE   W12
 BYTE   N96  Fn2
 BYTE   W19
 BYTE   N24
 BYTE   W96
//  #05 //041   ----------------------------------------
 BYTE   W96
//  #05 //042   ----------------------------------------
 BYTE   W96
//  #05 //043   ----------------------------------------
 BYTE   W96
//  #05 //044   ----------------------------------------
 BYTE   W96
//  #05 //045   ----------------------------------------
 BYTE   W96
//  #05 //046   ----------------------------------------
 BYTE   W96
//  #05 //047   ----------------------------------------
 BYTE   W96
//  #05 //048   ----------------------------------------
 BYTE   W96
//  #05 //049   ----------------------------------------
 BYTE   W04
 BYTE   GoTo
  POIN2 Label_01001EC4
 BYTE   FINE

//**************** Track 6 (Midi-Chn.5) ****************//

StarFox64Map_006:
//  #06 //000   ----------------------------------------
Label_01001FA4:
 BYTE   TEMPO   120*StarFox64Map_tbs/2
 BYTE   KEYSH   StarFox64Map_key+0
 BYTE   VOICE   121
 BYTE   VOL   92*StarFox64Map_mvl/mxv
 BYTE   PAN   c_v+0
 BYTE   N03  Dn1  v069
 BYTE   W12
 BYTE   Dn1
 BYTE   W24
 BYTE   Dn1
 BYTE   W12
 BYTE   Dn1
 BYTE   W18
 BYTE   Dn1
 BYTE   W06
 BYTE   Cn1  v100
 BYTE   N03  Dn1  v069
 BYTE   W06
 BYTE   Dn1
 BYTE   W06
 BYTE   Dn1
 BYTE   W06
 BYTE   Dn1
 BYTE   W06
//  #06 //001   ----------------------------------------
Label_01001FC6:
 BYTE   N03  Dn1  v069
 BYTE   W12
 BYTE   Dn1
 BYTE   W24
 BYTE   Dn1
 BYTE   W12
 BYTE   Dn1
 BYTE   W18
 BYTE   Dn1
 BYTE   W06
 BYTE   Cn1  v100
 BYTE   N03  Dn1  v069
 BYTE   W06
 BYTE   Dn1
 BYTE   W06
 BYTE   Dn1
 BYTE   W06
 BYTE   Dn1
 BYTE   W06
 BYTE   PEND 
//  #06 //002   ----------------------------------------
 BYTE   PATT
  POIN2 Label_01001FC6
//  #06 //003   ----------------------------------------
 BYTE   PATT
  POIN2 Label_01001FC6
//  #06 //004   ----------------------------------------
 BYTE   PATT
  POIN2 Label_01001FC6
//  #06 //005   ----------------------------------------
 BYTE   PATT
  POIN2 Label_01001FC6
//  #06 //006   ----------------------------------------
 BYTE   PATT
  POIN2 Label_01001FC6
//  #06 //007   ----------------------------------------
 BYTE   PATT
  POIN2 Label_01001FC6
//  #06 //008   ----------------------------------------
 BYTE   PATT
  POIN2 Label_01001FC6
//  #06 //009   ----------------------------------------
 BYTE   PATT
  POIN2 Label_01001FC6
//  #06 //010   ----------------------------------------
 BYTE   PATT
  POIN2 Label_01001FC6
//  #06 //011   ----------------------------------------
 BYTE   PATT
  POIN2 Label_01001FC6
//  #06 //012   ----------------------------------------
 BYTE   PATT
  POIN2 Label_01001FC6
//  #06 //013   ----------------------------------------
 BYTE   PATT
  POIN2 Label_01001FC6
//  #06 //014   ----------------------------------------
 BYTE   PATT
  POIN2 Label_01001FC6
//  #06 //015   ----------------------------------------
 BYTE   PATT
  POIN2 Label_01001FC6
//  #06 //016   ----------------------------------------
 BYTE   PATT
  POIN2 Label_01001FC6
//  #06 //017   ----------------------------------------
 BYTE   PATT
  POIN2 Label_01001FC6
//  #06 //018   ----------------------------------------
 BYTE   PATT
  POIN2 Label_01001FC6
//  #06 //019   ----------------------------------------
 BYTE   PATT
  POIN2 Label_01001FC6
//  #06 //020   ----------------------------------------
 BYTE   PATT
  POIN2 Label_01001FC6
//  #06 //021   ----------------------------------------
 BYTE   PATT
  POIN2 Label_01001FC6
//  #06 //022   ----------------------------------------
 BYTE   PATT
  POIN2 Label_01001FC6
//  #06 //023   ----------------------------------------
 BYTE   PATT
  POIN2 Label_01001FC6
//  #06 //024   ----------------------------------------
 BYTE   PATT
  POIN2 Label_01001FC6
//  #06 //025   ----------------------------------------
 BYTE   N03  Dn1  v069
 BYTE   W12
 BYTE   Dn1
 BYTE   W24
 BYTE   Dn1
 BYTE   W12
 BYTE   Dn1
 BYTE   W18
 BYTE   Dn1
 BYTE   W06
 BYTE   Cn1  v100
 BYTE   N03  Dn1  v069
 BYTE   W06
 BYTE   Dn1
 BYTE   W06
 BYTE   Dn1
 BYTE   W06
 BYTE   Dn1
 BYTE   W06
//  #06 //026   ----------------------------------------
 BYTE   N03  Dn1  v069
 BYTE   W12
 BYTE   Dn1
 BYTE   W24
 BYTE   Dn1
 BYTE   W12
 BYTE   Dn1
 BYTE   W18
 BYTE   Dn1
 BYTE   W06
 BYTE   Cn1  v100
 BYTE   N03  Dn1  v069
 BYTE   W06
 BYTE   Dn1
 BYTE   W06
 BYTE   Dn1
 BYTE   W06
 BYTE   Dn1
 BYTE   W06
//  #06 //027   ----------------------------------------
 BYTE   Dn1
 BYTE   W12
 BYTE   Dn1
 BYTE   W24
 BYTE   Dn1
 BYTE   W12
 BYTE   Dn1
 BYTE   W18
 BYTE   Dn1
 BYTE   W06
 BYTE   Cn1  v100
 BYTE   N03  Dn1  v069
 BYTE   W06
 BYTE   Dn1
 BYTE   W06
 BYTE   Dn1
 BYTE   W06
 BYTE   Dn1
 BYTE   W06
//  #06 //028   ----------------------------------------
 BYTE   Dn1
 BYTE   W12
 BYTE   Dn1
 BYTE   W24
 BYTE   Dn1
 BYTE   W12
 BYTE   Dn1
 BYTE   W18
 BYTE   Dn1
 BYTE   W06
 BYTE   Cn1  v100
 BYTE   N03  Dn1  v069
 BYTE   W06
 BYTE   Dn1
 BYTE   W06
 BYTE   Dn1
 BYTE   W06
 BYTE   Dn1
 BYTE   W06
//  #06 //029   ----------------------------------------
 BYTE   Dn1
 BYTE   W12
 BYTE   Dn1
 BYTE   W24
 BYTE   Dn1
 BYTE   W12
 BYTE   Dn1
 BYTE   W18
 BYTE   Dn1
 BYTE   W06
 BYTE   Cn1  v100
 BYTE   N03  Dn1  v069
 BYTE   W06
 BYTE   Dn1
 BYTE   W06
 BYTE   Dn1
 BYTE   W06
 BYTE   Dn1
 BYTE   W06
//  #06 //030   ----------------------------------------
 BYTE   Dn1
 BYTE   W12
 BYTE   Dn1
 BYTE   W24
 BYTE   Dn1
 BYTE   W12
 BYTE   Dn1
 BYTE   W18
 BYTE   Dn1
 BYTE   W06
 BYTE   Cn1  v100
 BYTE   N03  Dn1  v069
 BYTE   W06
 BYTE   Dn1
 BYTE   W06
 BYTE   Dn1
 BYTE   W06
 BYTE   Dn1
 BYTE   W06
//  #06 //031   ----------------------------------------
 BYTE   Dn1
 BYTE   W12
 BYTE   Dn1
 BYTE   W24
 BYTE   Dn1
 BYTE   W12
 BYTE   Dn1
 BYTE   W18
 BYTE   Dn1
 BYTE   W06
 BYTE   Cn1  v100
 BYTE   N03  Dn1  v069
 BYTE   W06
 BYTE   Dn1
 BYTE   W06
 BYTE   Dn1
 BYTE   W06
 BYTE   Dn1
 BYTE   W06
//  #06 //032   ----------------------------------------
 BYTE   Dn1
 BYTE   W12
 BYTE   Dn1
 BYTE   W24
 BYTE   Dn1
 BYTE   W12
 BYTE   Dn1
 BYTE   W18
 BYTE   Dn1
 BYTE   W06
 BYTE   Cn1  v100
 BYTE   N03  Dn1  v069
 BYTE   W06
 BYTE   Dn1
 BYTE   W06
 BYTE   Dn1
 BYTE   W06
 BYTE   Dn1
 BYTE   W06
//  #06 //033   ----------------------------------------
 BYTE   Dn1
 BYTE   W12
 BYTE   Dn1
 BYTE   W24
 BYTE   Dn1
 BYTE   W12
 BYTE   Dn1
 BYTE   W18
 BYTE   Dn1
 BYTE   W06
 BYTE   Cn1  v100
 BYTE   N03  Dn1  v069
 BYTE   W06
 BYTE   Dn1
 BYTE   W06
 BYTE   Dn1
 BYTE   W06
 BYTE   Dn1
 BYTE   W06
//  #06 //034   ----------------------------------------
 BYTE   Dn1
 BYTE   W12
 BYTE   Dn1
 BYTE   W24
 BYTE   Dn1
 BYTE   W12
 BYTE   Dn1
 BYTE   W18
 BYTE   Dn1
 BYTE   W06
 BYTE   Cn1  v100
 BYTE   N03  Dn1  v069
 BYTE   W06
 BYTE   Dn1
 BYTE   W06
 BYTE   Dn1
 BYTE   W06
 BYTE   Dn1
 BYTE   W06
//  #06 //035   ----------------------------------------
 BYTE   Dn1
 BYTE   W12
 BYTE   Dn1
 BYTE   W24
 BYTE   Dn1
 BYTE   W12
 BYTE   Dn1
 BYTE   W18
 BYTE   Dn1
 BYTE   W06
 BYTE   Cn1  v100
 BYTE   N03  Dn1  v069
 BYTE   W06
 BYTE   Dn1
 BYTE   W06
 BYTE   Dn1
 BYTE   W06
 BYTE   Dn1
 BYTE   W06
//  #06 //036   ----------------------------------------
 BYTE   Dn1
 BYTE   W12
 BYTE   Dn1
 BYTE   W24
 BYTE   Dn1
 BYTE   W12
 BYTE   Dn1
 BYTE   W18
 BYTE   Dn1
 BYTE   W06
 BYTE   Cn1  v100
 BYTE   N03  Dn1  v069
 BYTE   W06
 BYTE   Dn1
 BYTE   W06
 BYTE   Dn1
 BYTE   W06
 BYTE   Dn1
 BYTE   W06
//  #06 //037   ----------------------------------------
 BYTE   Dn1
 BYTE   W12
 BYTE   Dn1
 BYTE   W24
 BYTE   Dn1
 BYTE   W12
 BYTE   Dn1
 BYTE   W18
 BYTE   Dn1
 BYTE   W06
 BYTE   Cn1  v100
 BYTE   N03  Dn1  v069
 BYTE   W06
 BYTE   Dn1
 BYTE   W06
 BYTE   Dn1
 BYTE   W06
 BYTE   Dn1
 BYTE   W06
//  #06 //038   ----------------------------------------
 BYTE   Dn1
 BYTE   W12
 BYTE   Dn1
 BYTE   W24
 BYTE   Dn1
 BYTE   W12
 BYTE   Dn1
 BYTE   W18
 BYTE   Dn1
 BYTE   W06
 BYTE   Cn1  v100
 BYTE   N03  Dn1  v069
 BYTE   W06
 BYTE   Dn1
 BYTE   W06
 BYTE   Dn1
 BYTE   W06
 BYTE   Dn1
 BYTE   W06
//  #06 //039   ----------------------------------------
 BYTE   Dn1
 BYTE   W12
 BYTE   Dn1
 BYTE   W24
 BYTE   Dn1
 BYTE   W12
 BYTE   Dn1
 BYTE   W18
 BYTE   Dn1
 BYTE   W06
 BYTE   Cn1  v100
 BYTE   N03  Dn1  v069
 BYTE   W06
 BYTE   Dn1
 BYTE   W06
 BYTE   Dn1
 BYTE   W06
 BYTE   Dn1
 BYTE   W06
//  #06 //040   ----------------------------------------
 BYTE   Dn1
 BYTE   W12
 BYTE   Dn1
 BYTE   W24
 BYTE   Dn1
 BYTE   W12
 BYTE   Dn1
 BYTE   W18
 BYTE   Dn1
 BYTE   W06
 BYTE   Cn1  v100
 BYTE   N03  Dn1  v069
 BYTE   W06
 BYTE   Dn1
 BYTE   W06
 BYTE   Dn1
 BYTE   W06
 BYTE   Dn1
 BYTE   W06
//  #06 //041   ----------------------------------------
 BYTE   Dn1
 BYTE   W12
 BYTE   Dn1
 BYTE   W24
 BYTE   Dn1
 BYTE   W12
 BYTE   Dn1
 BYTE   W18
 BYTE   Dn1
 BYTE   W06
 BYTE   Cn1  v100
 BYTE   N03  Dn1  v069
 BYTE   W06
 BYTE   Dn1
 BYTE   W06
 BYTE   Dn1
 BYTE   W06
 BYTE   Dn1
 BYTE   W06
//  #06 //042   ----------------------------------------
 BYTE   Dn1
 BYTE   W12
 BYTE   Dn1
 BYTE   W24
 BYTE   Dn1
 BYTE   W12
 BYTE   Dn1
 BYTE   W18
 BYTE   Dn1
 BYTE   W06
 BYTE   Cn1  v100
 BYTE   N03  Dn1  v069
 BYTE   W06
 BYTE   Dn1
 BYTE   W06
 BYTE   Dn1
 BYTE   W06
 BYTE   Dn1
 BYTE   W06
//  #06 //043   ----------------------------------------
 BYTE   Dn1
 BYTE   W12
 BYTE   Dn1
 BYTE   W24
 BYTE   Dn1
 BYTE   W12
 BYTE   Dn1
 BYTE   W18
 BYTE   Dn1
 BYTE   W06
 BYTE   Cn1  v100
 BYTE   N03  Dn1  v069
 BYTE   W06
 BYTE   Dn1
 BYTE   W06
 BYTE   Dn1
 BYTE   W06
 BYTE   Dn1
 BYTE   W06
//  #06 //044   ----------------------------------------
 BYTE   Dn1
 BYTE   W12
 BYTE   Dn1
 BYTE   W24
 BYTE   Dn1
 BYTE   W12
 BYTE   Dn1
 BYTE   W18
 BYTE   Dn1
 BYTE   W06
 BYTE   Cn1  v100
 BYTE   N03  Dn1  v069
 BYTE   W06
 BYTE   Dn1
 BYTE   W06
 BYTE   Dn1
 BYTE   W06
 BYTE   Dn1
 BYTE   W06
//  #06 //045   ----------------------------------------
 BYTE   Dn1
 BYTE   W12
 BYTE   Dn1
 BYTE   W24
 BYTE   Dn1
 BYTE   W12
 BYTE   Dn1
 BYTE   W18
 BYTE   Dn1
 BYTE   W06
 BYTE   Cn1  v100
 BYTE   N03  Dn1  v069
 BYTE   W06
 BYTE   Dn1
 BYTE   W06
 BYTE   Dn1
 BYTE   W06
 BYTE   Dn1
 BYTE   W06
//  #06 //046   ----------------------------------------
 BYTE   Dn1
 BYTE   W12
 BYTE   Dn1
 BYTE   W24
 BYTE   Dn1
 BYTE   W12
 BYTE   Dn1
 BYTE   W18
 BYTE   Dn1
 BYTE   W06
 BYTE   Cn1  v100
 BYTE   N03  Dn1  v069
 BYTE   W06
 BYTE   Dn1
 BYTE   W06
 BYTE   Dn1
 BYTE   W06
 BYTE   Dn1
 BYTE   W06
//  #06 //047   ----------------------------------------
 BYTE   Dn1
 BYTE   W12
 BYTE   Dn1
 BYTE   W24
 BYTE   Dn1
 BYTE   W12
 BYTE   Dn1
 BYTE   W18
 BYTE   Dn1
 BYTE   W06
 BYTE   Cn1  v100
 BYTE   N03  Dn1  v069
 BYTE   W06
 BYTE   Dn1
 BYTE   W06
 BYTE   Dn1
 BYTE   W06
 BYTE   Dn1
 BYTE   W06
//  #06 //048   ----------------------------------------
 BYTE   Dn1
 BYTE   W12
 BYTE   Dn1
 BYTE   W24
 BYTE   Dn1
 BYTE   W12
 BYTE   Dn1
 BYTE   W18
 BYTE   Dn1
 BYTE   W06
 BYTE   Cn1  v100
 BYTE   N03  Dn1  v069
 BYTE   W06
 BYTE   Dn1
 BYTE   W06
 BYTE   Dn1
 BYTE   W06
 BYTE   Dn1
 BYTE   W06
//  #06 //049   ----------------------------------------
 BYTE   Dn1
 BYTE   W12
 BYTE   Dn1
 BYTE   W24
 BYTE   Dn1
 BYTE   W12
 BYTE   Dn1
 BYTE   W18
 BYTE   Dn1
 BYTE   W06
 BYTE   Cn1  v100
 BYTE   N03  Dn1  v069
 BYTE   W06
 BYTE   Dn1
 BYTE   W06
 BYTE   Dn1
 BYTE   W06
 BYTE   Dn1
 BYTE   W06
//  #06 //050   ----------------------------------------
 BYTE   Dn1
 BYTE   W12
 BYTE   Dn1
 BYTE   W24
 BYTE   Dn1
 BYTE   W12
 BYTE   Dn1
 BYTE   W18
 BYTE   Dn1
 BYTE   W06
 BYTE   Cn1  v100
 BYTE   N03  Dn1  v069
 BYTE   W06
 BYTE   Dn1
 BYTE   W06
 BYTE   Dn1
 BYTE   W06
 BYTE   Dn1
 BYTE   W06
//  #06 //051   ----------------------------------------
 BYTE   Dn1
 BYTE   W12
 BYTE   Dn1
 BYTE   W24
 BYTE   Dn1
 BYTE   W12
 BYTE   Dn1
 BYTE   W18
 BYTE   Dn1
 BYTE   W06
 BYTE   Cn1  v100
 BYTE   N03  Dn1  v069
 BYTE   W06
 BYTE   Dn1
 BYTE   W06
 BYTE   Dn1
 BYTE   W06
 BYTE   Dn1
 BYTE   W06
//  #06 //052   ----------------------------------------
 BYTE   GoTo
  POIN2 Label_01001FA4
 BYTE   FINE

//******************************************************//
	ALIGN 4

StarFox64Map:
	BYTE	6	// NumTrks
	BYTE	0	// NumBlks
	BYTE	StarFox64Map_pri	// Priority
	BYTE	StarFox64Map_rev	// Reverb.
    
	POIN2	StarFox64Map_grp
    
	POIN2	StarFox64Map_001
	POIN2	StarFox64Map_002
	POIN2	StarFox64Map_003
	POIN2	StarFox64Map_004
	POIN2	StarFox64Map_005
	POIN2	StarFox64Map_006

	
