	.include "MPlayDef.s"

	.equ	ToadstoolTourSkinsMatch_grp, voicegroup000
	.equ	ToadstoolTourSkinsMatch_pri, 10
	.equ	ToadstoolTourSkinsMatch_rev, 0
	.equ	ToadstoolTourSkinsMatch_mvl, 127
	.equ	ToadstoolTourSkinsMatch_key, 0
	.equ	ToadstoolTourSkinsMatch_tbs, 1
	.equ	ToadstoolTourSkinsMatch_exg, 0
	.equ	ToadstoolTourSkinsMatch_cmp, 1

	.section .rodata
	.global	ToadstoolTourSkinsMatch
	.align	2


@**************** Track 1 (Midi-Chn.0) ****************@

ToadstoolTourSkinsMatch_001:
@  #01 @000   ----------------------------------------
Label_014D2F8C:
 .byte   TEMPO , 118*ToadstoolTourSkinsMatch_tbs/2
 .byte   KEYSH , ToadstoolTourSkinsMatch_key+0
 .byte   VOICE , 36
 .byte   VOL , 35*ToadstoolTourSkinsMatch_mvl/mxv
 .byte   PAN , c_v-1
 .byte   N06 ,Fn0 ,v102
 .byte   W06
 .byte   N12 ,En0
 .byte   W12
 .byte   N06 ,En1
 .byte   W06
 .byte   N12 ,En0
 .byte   W12
 .byte   N06 ,En1
 .byte   W06
 .byte   N12 ,En0
 .byte   W12
 .byte   N06 ,Dn1
 .byte   W06
 .byte   Dn1
 .byte   W06
 .byte   Dn2
 .byte   W06
 .byte   Dn1
 .byte   W06
 .byte   Cn2
 .byte   W06
 .byte   Dn2
 .byte   W06
 .byte   An1
 .byte   W06
@  #01 @001   ----------------------------------------
 .byte   Dn1
 .byte   W06
 .byte   Cn1
 .byte   W06
 .byte   Cn1
 .byte   W06
 .byte   Cn1
 .byte   W06
 .byte   Cn1
 .byte   W06
 .byte   Cn1
 .byte   W06
 .byte   Gn0
 .byte   W06
 .byte   Cn1
 .byte   W06
 .byte   Gn0
 .byte   W06
 .byte   Bn0
 .byte   W06
 .byte   Bn0
 .byte   W06
 .byte   Bn1
 .byte   W06
 .byte   Bn0
 .byte   W06
 .byte   Bn0
 .byte   W06
 .byte   Bn0
 .byte   W06
 .byte   Bn1
 .byte   W06
@  #01 @002   ----------------------------------------
 .byte   Bn0
 .byte   W06
 .byte   Cn1
 .byte   W06
 .byte   Cn1
 .byte   W06
 .byte   Cn1
 .byte   W06
 .byte   Cn1
 .byte   W06
 .byte   Cn1
 .byte   W06
 .byte   Gn0
 .byte   W06
 .byte   Cn1
 .byte   W06
 .byte   Gn0
 .byte   W06
 .byte   Dn1
 .byte   W06
 .byte   Dn1
 .byte   W06
 .byte   Dn1
 .byte   W06
 .byte   Dn1
 .byte   W06
 .byte   Dn1
 .byte   W06
 .byte   An0
 .byte   W06
 .byte   Dn1
 .byte   W06
@  #01 @003   ----------------------------------------
 .byte   An0
 .byte   W06
 .byte   Ds1
 .byte   W06
 .byte   Ds1
 .byte   W06
 .byte   Ds1
 .byte   W06
 .byte   Ds1
 .byte   W06
 .byte   Ds1
 .byte   W06
 .byte   As0
 .byte   W06
 .byte   Ds1
 .byte   W06
 .byte   As0
 .byte   W06
 .byte   Fn0
 .byte   W06
 .byte   Fn0
 .byte   W06
 .byte   Fn1
 .byte   W06
 .byte   Fn0
 .byte   W06
 .byte   Ds1
 .byte   W06
 .byte   Fn0
 .byte   W06
 .byte   Fn1
 .byte   W06
@  #01 @004   ----------------------------------------
 .byte   Fn0
 .byte   W06
 .byte   N18 ,Gn0
 .byte   W18
 .byte   N12
 .byte   W12
 .byte   N06 ,Dn0
 .byte   W06
 .byte   Gn0
 .byte   W06
 .byte   Dn0
 .byte   W06
 .byte   N18 ,Fn0
 .byte   W18
 .byte   N12
 .byte   W12
 .byte   N06 ,Fn1
 .byte   W06
 .byte   Fn0
 .byte   W06
@  #01 @005   ----------------------------------------
 .byte   Fn1
 .byte   W06
 .byte   Gs0
 .byte   W06
 .byte   Gs1
 .byte   W06
 .byte   Gs0
 .byte   W06
 .byte   Gs1
 .byte   W06
 .byte   Gs0
 .byte   W06
 .byte   Gs1
 .byte   W06
 .byte   Gs0
 .byte   W06
 .byte   Gs1
 .byte   W06
 .byte   As0
 .byte   W06
 .byte   As1
 .byte   W06
 .byte   As0
 .byte   W06
 .byte   As1
 .byte   W06
 .byte   As0
 .byte   W06
 .byte   As1
 .byte   W06
 .byte   As0
 .byte   W06
@  #01 @006   ----------------------------------------
 .byte   As1
 .byte   W06
 .byte   N18 ,Cn1
 .byte   W18
 .byte   N12
 .byte   W12
 .byte   N06 ,Gn0
 .byte   W06
 .byte   Cn1
 .byte   W06
 .byte   Gn0
 .byte   W06
 .byte   N18 ,As0
 .byte   W18
 .byte   Fn0
 .byte   W18
 .byte   N12 ,Fn1
 .byte   W12
@  #01 @007   ----------------------------------------
 .byte   N06 ,Gs0
 .byte   W06
 .byte   Gs0
 .byte   W06
 .byte   Gs1
 .byte   W06
 .byte   Gs0
 .byte   W06
 .byte   Ds1
 .byte   W06
 .byte   Gs1
 .byte   W06
 .byte   Gs0
 .byte   W06
 .byte   Gs1
 .byte   W06
 .byte   As0
 .byte   W06
 .byte   As0
 .byte   W06
 .byte   Fn0
 .byte   W06
 .byte   As0
 .byte   W06
 .byte   Fn1
 .byte   W06
 .byte   As1
 .byte   W06
 .byte   Fn1
 .byte   W06
 .byte   As0
 .byte   W06
@  #01 @008   ----------------------------------------
 .byte   N12 ,En0
 .byte   W12
 .byte   N06 ,En1
 .byte   W06
 .byte   N12 ,En0
 .byte   W12
 .byte   N06 ,En1
 .byte   W06
 .byte   N12 ,En0
 .byte   W12
 .byte   N06 ,Dn1
 .byte   W06
 .byte   Dn1
 .byte   W06
 .byte   Dn2
 .byte   W06
 .byte   Dn1
 .byte   W06
 .byte   Cn2
 .byte   W06
 .byte   Dn2
 .byte   W06
 .byte   An1
 .byte   W06
 .byte   Dn1
 .byte   W06
@  #01 @009   ----------------------------------------
 .byte   Cn1
 .byte   W06
 .byte   Cn1
 .byte   W06
 .byte   Cn1
 .byte   W06
 .byte   Cn1
 .byte   W06
 .byte   Cn1
 .byte   W06
 .byte   Gn0
 .byte   W06
 .byte   Cn1
 .byte   W06
 .byte   Gn0
 .byte   W06
 .byte   Bn0
 .byte   W06
 .byte   Bn0
 .byte   W06
 .byte   Bn1
 .byte   W06
 .byte   Bn0
 .byte   W06
 .byte   Bn0
 .byte   W06
 .byte   Bn0
 .byte   W06
 .byte   Bn1
 .byte   W06
 .byte   Bn0
 .byte   W06
@  #01 @010   ----------------------------------------
 .byte   Cn1
 .byte   W06
 .byte   Cn1
 .byte   W06
 .byte   Cn1
 .byte   W06
 .byte   Cn1
 .byte   W06
 .byte   Cn1
 .byte   W06
 .byte   Gn0
 .byte   W06
 .byte   Cn1
 .byte   W06
 .byte   Gn0
 .byte   W06
 .byte   Dn1
 .byte   W06
 .byte   Dn1
 .byte   W06
 .byte   Dn1
 .byte   W06
 .byte   Dn1
 .byte   W06
 .byte   Dn1
 .byte   W06
 .byte   An0
 .byte   W06
 .byte   Dn1
 .byte   W06
 .byte   An0
 .byte   W06
@  #01 @011   ----------------------------------------
 .byte   Ds1
 .byte   W06
 .byte   Ds1
 .byte   W06
 .byte   Ds1
 .byte   W06
 .byte   Ds1
 .byte   W06
 .byte   Ds1
 .byte   W06
 .byte   As0
 .byte   W06
 .byte   Ds1
 .byte   W06
 .byte   As0
 .byte   W06
 .byte   Fn0
 .byte   W06
 .byte   Fn0
 .byte   W06
 .byte   Fn1
 .byte   W06
 .byte   Fn0
 .byte   W06
 .byte   Ds1
 .byte   W06
 .byte   Fn0
 .byte   W06
 .byte   Fn1
 .byte   W06
 .byte   Fn0
 .byte   W06
@  #01 @012   ----------------------------------------
 .byte   N18 ,Gn0
 .byte   W18
 .byte   N12
 .byte   W12
 .byte   N06 ,Dn0
 .byte   W06
 .byte   Gn0
 .byte   W06
 .byte   Dn0
 .byte   W06
 .byte   N18 ,Fn0
 .byte   W18
 .byte   N12
 .byte   W12
 .byte   N06 ,Fn1
 .byte   W06
 .byte   Fn0
 .byte   W06
 .byte   Fn1
 .byte   W06
@  #01 @013   ----------------------------------------
 .byte   Gs0
 .byte   W06
 .byte   Gs1
 .byte   W06
 .byte   Gs0
 .byte   W06
 .byte   Gs1
 .byte   W06
 .byte   Gs0
 .byte   W06
 .byte   Gs1
 .byte   W06
 .byte   Gs0
 .byte   W06
 .byte   Gs1
 .byte   W06
 .byte   As0
 .byte   W06
 .byte   As1
 .byte   W06
 .byte   As0
 .byte   W06
 .byte   As1
 .byte   W06
 .byte   As0
 .byte   W06
 .byte   As1
 .byte   W06
 .byte   As0
 .byte   W06
 .byte   As1
 .byte   W06
@  #01 @014   ----------------------------------------
 .byte   N18 ,Cn1
 .byte   W18
 .byte   N12
 .byte   W12
 .byte   N06 ,Gn0
 .byte   W06
 .byte   Cn1
 .byte   W06
 .byte   Gn0
 .byte   W06
 .byte   N18 ,As0
 .byte   W18
 .byte   Fn0
 .byte   W18
 .byte   N12 ,Fn1
 .byte   W12
@  #01 @015   ----------------------------------------
 .byte   N06 ,Gs0
 .byte   W06
 .byte   Gs0
 .byte   W06
 .byte   Gs1
 .byte   W06
 .byte   Gs0
 .byte   W06
 .byte   Ds1
 .byte   W06
 .byte   Gs1
 .byte   W06
 .byte   Gs0
 .byte   W06
 .byte   Gs1
 .byte   W06
 .byte   As0
 .byte   W06
 .byte   As0
 .byte   W06
 .byte   Fn0
 .byte   W06
 .byte   As0
 .byte   W06
 .byte   Fn1
 .byte   W06
 .byte   As1
 .byte   W06
 .byte   Fn1
 .byte   W06
 .byte   GOTO
  .word Label_014D2F8C
@  #01 @016   ----------------------------------------
 .byte   N06 ,As0 ,v102
 .byte   W06
 .byte   N12 ,Cn1
 .byte   W12
 .byte   Cn1
 .byte   W12
 .byte   Cn1
 .byte   W12
 .byte   Cn1
 .byte   W12
 .byte   Cn1
 .byte   W12
 .byte   Cn1
 .byte   W12
 .byte   Cn1
 .byte   W12
 .byte   Cn1
 .byte   W12
@  #01 @017   ----------------------------------------
 .byte   As0
 .byte   W12
 .byte   As0
 .byte   W12
 .byte   As0
 .byte   W12
 .byte   As0
 .byte   W12
 .byte   As0
 .byte   W12
 .byte   As0
 .byte   W12
 .byte   As0
 .byte   W12
 .byte   As0
 .byte   W12
@  #01 @018   ----------------------------------------
 .byte   An0
 .byte   W12
 .byte   An0
 .byte   W12
 .byte   An0
 .byte   W12
 .byte   An0
 .byte   W12
 .byte   An0
 .byte   W12
 .byte   An0
 .byte   W12
 .byte   An0
 .byte   W12
 .byte   An0
 .byte   W12
@  #01 @019   ----------------------------------------
 .byte   Gs0
 .byte   W12
 .byte   Gs0
 .byte   W12
 .byte   Gs0
 .byte   W12
 .byte   Gs0
 .byte   W12
 .byte   As0
 .byte   W12
 .byte   N06 ,As1
 .byte   W06
 .byte   As0
 .byte   W06
 .byte   Fn1
 .byte   W06
 .byte   Dn1
 .byte   W06
 .byte   As0
 .byte   W06
 .byte   Fn0
 .byte   W06
@  #01 @020   ----------------------------------------
 .byte   N18 ,Cn1
 .byte   W18
 .byte   N12
 .byte   W12
 .byte   N06 ,Gn0
 .byte   W06
 .byte   Cn1
 .byte   W06
 .byte   Gn0
 .byte   W06
 .byte   N12 ,Cn1
 .byte   W12
 .byte   Cn1
 .byte   W12
 .byte   N06
 .byte   W06
 .byte   Gn0
 .byte   W06
 .byte   Cn1
 .byte   W06
 .byte   Gn0
 .byte   W06
@  #01 @021   ----------------------------------------
 .byte   N12 ,As0
 .byte   W12
 .byte   As0
 .byte   W12
 .byte   N06
 .byte   W06
 .byte   Fn1
 .byte   W06
 .byte   As1
 .byte   W06
 .byte   As0
 .byte   W06
 .byte   N12
 .byte   W12
 .byte   As0
 .byte   W12
 .byte   N06
 .byte   W06
 .byte   As1
 .byte   W06
 .byte   As0
 .byte   W06
 .byte   As1
 .byte   W06
@  #01 @022   ----------------------------------------
 .byte   N12 ,An0
 .byte   W12
 .byte   N06
 .byte   W06
 .byte   N12 ,An1
 .byte   W12
 .byte   N06 ,An0
 .byte   W06
 .byte   En1
 .byte   W06
 .byte   An1
 .byte   W06
 .byte   N12 ,An0
 .byte   W12
 .byte   An0
 .byte   W12
 .byte   N06
 .byte   W06
 .byte   An1
 .byte   W06
 .byte   An0
 .byte   W06
 .byte   An1
 .byte   W06
@  #01 @023   ----------------------------------------
 .byte   N12 ,Gs0
 .byte   W12
 .byte   N06
 .byte   W06
 .byte   N12 ,Gs1
 .byte   W12
 .byte   N06 ,Gs0
 .byte   W06
 .byte   Ds1
 .byte   W06
 .byte   Gs1
 .byte   W06
 .byte   N12 ,As0
 .byte   W12
 .byte   N06
 .byte   W06
 .byte   N12 ,As1
 .byte   W12
 .byte   N06 ,As0
 .byte   W06
 .byte   Fn1
 .byte   W06
 .byte   As1
 .byte   W06
@  #01 @024   ----------------------------------------
Label_014D322F:
 .byte   N12 ,Cs1 ,v102
 .byte   W18
 .byte   Gs1
 .byte   W18
 .byte   N09 ,Cs2
 .byte   W12
 .byte   N18 ,Cs1
 .byte   W18
 .byte   Gs1
 .byte   W18
 .byte   N09 ,Cs1
 .byte   W12
 .byte   PEND 
@  #01 @025   ----------------------------------------
Label_014D3241:
 .byte   N12 ,Cn1 ,v102
 .byte   W18
 .byte   Gn1
 .byte   W18
 .byte   N09 ,Cn2
 .byte   W12
 .byte   N18 ,Gn1
 .byte   W18
 .byte   Cn2
 .byte   W18
 .byte   N09 ,Cn1
 .byte   W12
 .byte   PEND 
@  #01 @026   ----------------------------------------
 .byte   PATT
  .word Label_014D322F
@  #01 @027   ----------------------------------------
 .byte   PATT
  .word Label_014D3241
@  #01 @028   ----------------------------------------
Label_014D325D:
 .byte   N18 ,Cs1 ,v102
 .byte   W18
 .byte   N12
 .byte   W12
 .byte   N06 ,Gs0
 .byte   W06
 .byte   Cs1
 .byte   W06
 .byte   Gs0
 .byte   W06
 .byte   N18 ,Cs1
 .byte   W18
 .byte   N12
 .byte   W12
 .byte   N06 ,Gs0
 .byte   W06
 .byte   Cs1
 .byte   W06
 .byte   Gs0
 .byte   W06
 .byte   PEND 
@  #01 @029   ----------------------------------------
Label_014D3277:
 .byte   N18 ,Cn1 ,v102
 .byte   W18
 .byte   N12
 .byte   W12
 .byte   N06 ,Gn0
 .byte   W06
 .byte   Cn1
 .byte   W06
 .byte   Gn0
 .byte   W06
 .byte   N18 ,Cn1
 .byte   W18
 .byte   N12
 .byte   W12
 .byte   N06 ,Cn2
 .byte   W06
 .byte   Gn1
 .byte   W06
 .byte   Cn1
 .byte   W06
 .byte   PEND 
@  #01 @030   ----------------------------------------
 .byte   PATT
  .word Label_014D325D
@  #01 @031   ----------------------------------------
 .byte   PATT
  .word Label_014D3277
@  #01 @032   ----------------------------------------
Label_014D329B:
 .byte   N06 ,Gs0 ,v102
 .byte   W06
 .byte   Gs0
 .byte   W06
 .byte   Gs0
 .byte   W06
 .byte   N12
 .byte   W12
 .byte   N06
 .byte   W06
 .byte   Gs1
 .byte   W06
 .byte   Gs0
 .byte   W06
 .byte   As0
 .byte   W06
 .byte   As0
 .byte   W06
 .byte   As0
 .byte   W06
 .byte   N12
 .byte   W12
 .byte   N06
 .byte   W06
 .byte   As1
 .byte   W06
 .byte   As0
 .byte   W06
 .byte   PEND 
@  #01 @033   ----------------------------------------
Label_014D32BA:
 .byte   N06 ,Cn1 ,v102
 .byte   W06
 .byte   Cn1
 .byte   W06
 .byte   Cn1
 .byte   W06
 .byte   N12
 .byte   W12
 .byte   N06
 .byte   W06
 .byte   Gn0
 .byte   W06
 .byte   Cn1
 .byte   W06
 .byte   Cn1
 .byte   W06
 .byte   Cn1
 .byte   W06
 .byte   Cn1
 .byte   W06
 .byte   N12
 .byte   W12
 .byte   N06 ,Gn1
 .byte   W06
 .byte   Cn2
 .byte   W06
 .byte   Cn1
 .byte   W06
 .byte   PEND 
@  #01 @034   ----------------------------------------
 .byte   PATT
  .word Label_014D329B
@  #01 @035   ----------------------------------------
 .byte   PATT
  .word Label_014D32BA
@  #01 @036   ----------------------------------------
 .byte   PATT
  .word Label_014D329B
@  #01 @037   ----------------------------------------
 .byte   PATT
  .word Label_014D32BA
@  #01 @038   ----------------------------------------
 .byte   PATT
  .word Label_014D329B
@  #01 @039   ----------------------------------------
 .byte   N06 ,Cn1 ,v102
 .byte   W06
 .byte   Cn1
 .byte   W06
 .byte   Cn1
 .byte   W06
 .byte   N12
 .byte   W12
 .byte   N06
 .byte   W06
 .byte   Gn0
 .byte   W06
 .byte   Cn1
 .byte   W06
 .byte   Cn1
 .byte   W06
 .byte   Cn1
 .byte   W06
 .byte   Cn1
 .byte   W06
 .byte   N12
 .byte   W12
 .byte   N06 ,Gn1
 .byte   W06
 .byte   Cn2
 .byte   W06
 .byte   Cn1
 .byte   W06
@  #01 @040   ----------------------------------------
 .byte   VOL , 35*ToadstoolTourSkinsMatch_mvl/mxv
 .byte   PAN , c_v-1
 .byte   N12 ,Cn1 ,v102
 .byte   W12
 .byte   Cn1
 .byte   W12
 .byte   Cn1
 .byte   W12
 .byte   Cn1
 .byte   W12
 .byte   Cn1
 .byte   W12
 .byte   Cn1
 .byte   W12
 .byte   Cn1
 .byte   W12
 .byte   Cn1
 .byte   W12
@  #01 @041   ----------------------------------------
 .byte   As0
 .byte   W12
 .byte   As0
 .byte   W12
 .byte   As0
 .byte   W12
 .byte   As0
 .byte   W12
 .byte   As0
 .byte   W12
 .byte   As0
 .byte   W12
 .byte   As0
 .byte   W12
 .byte   As0
 .byte   W12
@  #01 @042   ----------------------------------------
 .byte   An0
 .byte   W12
 .byte   An0
 .byte   W12
 .byte   An0
 .byte   W12
 .byte   An0
 .byte   W12
 .byte   An0
 .byte   W12
 .byte   An0
 .byte   W12
 .byte   An0
 .byte   W12
 .byte   An0
 .byte   W12
@  #01 @043   ----------------------------------------
 .byte   Gs0
 .byte   W12
 .byte   Gs0
 .byte   W12
 .byte   Gs0
 .byte   W12
 .byte   Gs0
 .byte   W12
 .byte   As0
 .byte   W12
 .byte   N06 ,As1
 .byte   W06
 .byte   As0
 .byte   W06
 .byte   Fn1
 .byte   W06
 .byte   Dn1
 .byte   W06
 .byte   As0
 .byte   W06
 .byte   Fn0
 .byte   W06
@  #01 @044   ----------------------------------------
 .byte   N12 ,En0
 .byte   W12
 .byte   N06 ,En1
 .byte   W06
 .byte   N12 ,En0
 .byte   W12
 .byte   N06 ,En1
 .byte   W06
 .byte   N12 ,En0
 .byte   W12
 .byte   N06 ,Dn1
 .byte   W06
 .byte   Dn1
 .byte   W06
 .byte   Dn2
 .byte   W06
 .byte   Dn1
 .byte   W06
 .byte   Cn2
 .byte   W06
 .byte   Dn2
 .byte   W06
 .byte   An1
 .byte   W06
 .byte   Dn1
 .byte   W06
@  #01 @045   ----------------------------------------
 .byte   Cn1
 .byte   W06
 .byte   Cn1
 .byte   W06
 .byte   Cn1
 .byte   W06
 .byte   Cn1
 .byte   W06
 .byte   Cn1
 .byte   W06
 .byte   Gn0
 .byte   W06
 .byte   Cn1
 .byte   W06
 .byte   Gn0
 .byte   W06
 .byte   Bn0
 .byte   W06
 .byte   Bn0
 .byte   W06
 .byte   Bn1
 .byte   W06
 .byte   Bn0
 .byte   W06
 .byte   Bn0
 .byte   W06
 .byte   Bn0
 .byte   W06
 .byte   Bn1
 .byte   W06
 .byte   Bn0
 .byte   W06
@  #01 @046   ----------------------------------------
 .byte   Cn1
 .byte   W06
 .byte   Cn1
 .byte   W06
 .byte   Cn1
 .byte   W06
 .byte   Cn1
 .byte   W06
 .byte   Cn1
 .byte   W06
 .byte   Gn0
 .byte   W06
 .byte   Cn1
 .byte   W06
 .byte   Gn0
 .byte   W06
 .byte   Dn1
 .byte   W06
 .byte   Dn1
 .byte   W06
 .byte   Dn1
 .byte   W06
 .byte   Dn1
 .byte   W06
 .byte   Dn1
 .byte   W06
 .byte   An0
 .byte   W06
 .byte   Dn1
 .byte   W06
 .byte   An0
 .byte   W06
@  #01 @047   ----------------------------------------
 .byte   Ds1
 .byte   W06
 .byte   Ds1
 .byte   W06
 .byte   Ds1
 .byte   W06
 .byte   Ds1
 .byte   W06
 .byte   Ds1
 .byte   W06
 .byte   As0
 .byte   W06
 .byte   Ds1
 .byte   W06
 .byte   As0
 .byte   W06
 .byte   Fn0
 .byte   W06
 .byte   Fn0
 .byte   W06
 .byte   Fn1
 .byte   W06
 .byte   Fn0
 .byte   W06
 .byte   Ds1
 .byte   W06
 .byte   Fn0
 .byte   W06
 .byte   Fn1
 .byte   W06
 .byte   Fn0
 .byte   W06
@  #01 @048   ----------------------------------------
 .byte   N18 ,Gn0
 .byte   W18
 .byte   N12
 .byte   W12
 .byte   N06 ,Dn0
 .byte   W06
 .byte   Gn0
 .byte   W06
 .byte   Dn0
 .byte   W06
 .byte   N18 ,Fn0
 .byte   W18
 .byte   N12
 .byte   W12
 .byte   N06 ,Fn1
 .byte   W06
 .byte   Fn0
 .byte   W06
 .byte   Fn1
 .byte   W06
@  #01 @049   ----------------------------------------
 .byte   Gs0
 .byte   W06
 .byte   Gs1
 .byte   W06
 .byte   Gs0
 .byte   W06
 .byte   Gs1
 .byte   W06
 .byte   Gs0
 .byte   W06
 .byte   Gs1
 .byte   W06
 .byte   Gs0
 .byte   W06
 .byte   Gs1
 .byte   W06
 .byte   As0
 .byte   W06
 .byte   As1
 .byte   W06
 .byte   As0
 .byte   W06
 .byte   As1
 .byte   W06
 .byte   As0
 .byte   W06
 .byte   As1
 .byte   W06
 .byte   As0
 .byte   W06
 .byte   As1
 .byte   W06
@  #01 @050   ----------------------------------------
 .byte   N18 ,Cn1
 .byte   W18
 .byte   N12
 .byte   W12
 .byte   N06 ,Gn0
 .byte   W06
 .byte   Cn1
 .byte   W06
 .byte   Gn0
 .byte   W06
 .byte   N18 ,As0
 .byte   W18
 .byte   Fn0
 .byte   W18
 .byte   N12 ,Fn1
 .byte   W12
@  #01 @051   ----------------------------------------
 .byte   N06 ,Gs0
 .byte   W06
 .byte   Gs0
 .byte   W06
 .byte   Gs1
 .byte   W06
 .byte   Gs0
 .byte   W06
 .byte   Ds1
 .byte   W06
 .byte   Gs1
 .byte   W06
 .byte   Gs0
 .byte   W06
 .byte   Gs1
 .byte   W06
 .byte   As0
 .byte   W06
 .byte   As0
 .byte   W06
 .byte   Fn0
 .byte   W06
 .byte   As0
 .byte   W06
 .byte   Fn1
 .byte   W06
 .byte   As1
 .byte   W06
 .byte   Fn1
 .byte   W06
 .byte   As0
 .byte   W06
@  #01 @052   ----------------------------------------
 .byte   N12 ,En0
 .byte   W12
 .byte   N06 ,En1
 .byte   W06
 .byte   N12 ,En0
 .byte   W12
 .byte   N06 ,En1
 .byte   W06
 .byte   N12 ,En0
 .byte   W12
 .byte   N06 ,Dn1
 .byte   W06
 .byte   Dn1
 .byte   W06
 .byte   Dn2
 .byte   W06
 .byte   Dn1
 .byte   W06
 .byte   Cn2
 .byte   W06
 .byte   Dn2
 .byte   W06
 .byte   An1
 .byte   W06
 .byte   Dn1
 .byte   W06
@  #01 @053   ----------------------------------------
 .byte   Cn1
 .byte   W06
 .byte   Cn1
 .byte   W06
 .byte   Cn1
 .byte   W06
 .byte   Cn1
 .byte   W06
 .byte   Cn1
 .byte   W06
 .byte   Gn0
 .byte   W06
 .byte   Cn1
 .byte   W06
 .byte   Gn0
 .byte   W06
 .byte   Bn0
 .byte   W06
 .byte   Bn0
 .byte   W06
 .byte   Bn1
 .byte   W06
 .byte   Bn0
 .byte   W06
 .byte   Bn0
 .byte   W06
 .byte   Bn0
 .byte   W06
 .byte   Bn1
 .byte   W06
 .byte   Bn0
 .byte   W06
@  #01 @054   ----------------------------------------
 .byte   Cn1
 .byte   W06
 .byte   Cn1
 .byte   W06
 .byte   Cn1
 .byte   W06
 .byte   Cn1
 .byte   W06
 .byte   Cn1
 .byte   W06
 .byte   Gn0
 .byte   W06
 .byte   Cn1
 .byte   W06
 .byte   Gn0
 .byte   W06
 .byte   Dn1
 .byte   W06
 .byte   Dn1
 .byte   W06
 .byte   Dn1
 .byte   W06
 .byte   Dn1
 .byte   W06
 .byte   Dn1
 .byte   W06
 .byte   An0
 .byte   W06
 .byte   Dn1
 .byte   W06
 .byte   An0
 .byte   W06
@  #01 @055   ----------------------------------------
 .byte   Ds1
 .byte   W06
 .byte   Ds1
 .byte   W06
 .byte   Ds1
 .byte   W06
 .byte   Ds1
 .byte   W06
 .byte   Ds1
 .byte   W06
 .byte   As0
 .byte   W06
 .byte   Ds1
 .byte   W06
 .byte   As0
 .byte   W06
 .byte   Fn0
 .byte   W06
 .byte   Fn0
 .byte   W06
 .byte   Fn1
 .byte   W06
 .byte   Fn0
 .byte   W06
 .byte   Ds1
 .byte   W06
 .byte   Fn0
 .byte   W06
 .byte   Fn1
 .byte   W06
 .byte   Fn0
 .byte   W06
@  #01 @056   ----------------------------------------
 .byte   N18 ,Gn0
 .byte   W18
 .byte   N12
 .byte   W12
 .byte   N06 ,Dn0
 .byte   W06
 .byte   Gn0
 .byte   W06
 .byte   Dn0
 .byte   W06
 .byte   N18 ,Fn0
 .byte   W18
 .byte   N12
 .byte   W12
 .byte   N06 ,Fn1
 .byte   W06
 .byte   Fn0
 .byte   W06
 .byte   Fn1
 .byte   W06
@  #01 @057   ----------------------------------------
 .byte   Gs0
 .byte   W06
 .byte   Gs1
 .byte   W06
 .byte   Gs0
 .byte   W06
 .byte   Gs1
 .byte   W06
 .byte   Gs0
 .byte   W06
 .byte   Gs1
 .byte   W06
 .byte   Gs0
 .byte   W06
 .byte   Gs1
 .byte   W06
 .byte   As0
 .byte   W06
 .byte   As1
 .byte   W06
 .byte   As0
 .byte   W06
 .byte   As1
 .byte   W06
 .byte   As0
 .byte   W06
 .byte   As1
 .byte   W06
 .byte   As0
 .byte   W06
 .byte   As1
 .byte   W06
@  #01 @058   ----------------------------------------
 .byte   N18 ,Cn1
 .byte   W18
 .byte   N12
 .byte   W12
 .byte   N06 ,Gn0
 .byte   W06
 .byte   Cn1
 .byte   W06
 .byte   Gn0
 .byte   W06
 .byte   N18 ,As0
 .byte   W18
 .byte   Fn0
 .byte   W18
 .byte   N12 ,Fn1
 .byte   W12
@  #01 @059   ----------------------------------------
 .byte   N06 ,Gs0
 .byte   W06
 .byte   Gs0
 .byte   W06
 .byte   Gs1
 .byte   W06
 .byte   Gs0
 .byte   W06
 .byte   Ds1
 .byte   W06
 .byte   Gs1
 .byte   W06
 .byte   Gs0
 .byte   W06
 .byte   Gs1
 .byte   W06
 .byte   As0
 .byte   W06
 .byte   As0
 .byte   W06
 .byte   Fn0
 .byte   W06
 .byte   As0
 .byte   W06
 .byte   Fn1
 .byte   W06
 .byte   As1
 .byte   W06
 .byte   Fn1
 .byte   W06
 .byte   As0
 .byte   W06
@  #01 @060   ----------------------------------------
 .byte   N12 ,Cn1
 .byte   W12
 .byte   Cn1
 .byte   W12
 .byte   Cn1
 .byte   W12
 .byte   Cn1
 .byte   W12
 .byte   Cn1
 .byte   W12
 .byte   Cn1
 .byte   W12
 .byte   Cn1
 .byte   W12
 .byte   Cn1
 .byte   W12
@  #01 @061   ----------------------------------------
 .byte   As0
 .byte   W12
 .byte   As0
 .byte   W12
 .byte   As0
 .byte   W12
 .byte   As0
 .byte   W12
 .byte   As0
 .byte   W12
 .byte   As0
 .byte   W12
 .byte   As0
 .byte   W12
 .byte   As0
 .byte   W12
@  #01 @062   ----------------------------------------
 .byte   An0
 .byte   W12
 .byte   An0
 .byte   W12
 .byte   An0
 .byte   W12
 .byte   An0
 .byte   W12
 .byte   An0
 .byte   W12
 .byte   An0
 .byte   W12
 .byte   An0
 .byte   W12
 .byte   An0
 .byte   W12
@  #01 @063   ----------------------------------------
 .byte   Gs0
 .byte   W12
 .byte   Gs0
 .byte   W12
 .byte   Gs0
 .byte   W12
 .byte   Gs0
 .byte   W12
 .byte   As0
 .byte   W12
 .byte   N06 ,As1
 .byte   W06
 .byte   As0
 .byte   W06
 .byte   Fn1
 .byte   W06
 .byte   Dn1
 .byte   W06
 .byte   As0
 .byte   W06
 .byte   Fn0
 .byte   W06
@  #01 @064   ----------------------------------------
 .byte   N18 ,Cn1
 .byte   W18
 .byte   N12
 .byte   W12
 .byte   N06 ,Gn0
 .byte   W06
 .byte   Cn1
 .byte   W06
 .byte   Gn0
 .byte   W06
 .byte   N12 ,Cn1
 .byte   W12
 .byte   Cn1
 .byte   W12
 .byte   N06
 .byte   W06
 .byte   Gn0
 .byte   W06
 .byte   Cn1
 .byte   W06
 .byte   Gn0
 .byte   W06
@  #01 @065   ----------------------------------------
 .byte   N12 ,As0
 .byte   W12
 .byte   As0
 .byte   W12
 .byte   N06
 .byte   W06
 .byte   Fn1
 .byte   W06
 .byte   As1
 .byte   W06
 .byte   As0
 .byte   W06
 .byte   N12
 .byte   W12
 .byte   As0
 .byte   W12
 .byte   N06
 .byte   W06
 .byte   As1
 .byte   W06
 .byte   As0
 .byte   W06
 .byte   As1
 .byte   W06
@  #01 @066   ----------------------------------------
 .byte   N12 ,An0
 .byte   W12
 .byte   N06
 .byte   W06
 .byte   N12 ,An1
 .byte   W12
 .byte   N06 ,An0
 .byte   W06
 .byte   En1
 .byte   W06
 .byte   An1
 .byte   W06
 .byte   N12 ,An0
 .byte   W12
 .byte   An0
 .byte   W12
 .byte   N06
 .byte   W06
 .byte   An1
 .byte   W06
 .byte   An0
 .byte   W06
 .byte   An1
 .byte   W06
@  #01 @067   ----------------------------------------
 .byte   N12 ,Gs0
 .byte   W12
 .byte   N06
 .byte   W06
 .byte   N12 ,Gs1
 .byte   W12
 .byte   N06 ,Gs0
 .byte   W06
 .byte   Ds1
 .byte   W06
 .byte   Gs1
 .byte   W06
 .byte   N12 ,As0
 .byte   W12
 .byte   N06
 .byte   W06
 .byte   N12 ,As1
 .byte   W12
 .byte   N06 ,As0
 .byte   W06
 .byte   Fn1
 .byte   W06
 .byte   As1
 .byte   W06
@  #01 @068   ----------------------------------------
 .byte   N12 ,Cs1
 .byte   W18
 .byte   Gs1
 .byte   W18
 .byte   N09 ,Cs2
 .byte   W12
 .byte   N18 ,Cs1
 .byte   W18
 .byte   Gs1
 .byte   W18
 .byte   N09 ,Cs1
 .byte   W12
@  #01 @069   ----------------------------------------
 .byte   N12 ,Cn1
 .byte   W18
 .byte   Gn1
 .byte   W18
 .byte   N09 ,Cn2
 .byte   W12
 .byte   N18 ,Gn1
 .byte   W18
 .byte   Cn2
 .byte   W18
 .byte   N09 ,Cn1
 .byte   W12
@  #01 @070   ----------------------------------------
 .byte   N12 ,Cs1
 .byte   W18
 .byte   Gs1
 .byte   W18
 .byte   N09 ,Cs2
 .byte   W12
 .byte   N18 ,Cs1
 .byte   W18
 .byte   Gs1
 .byte   W18
 .byte   N09 ,Cs1
 .byte   W12
@  #01 @071   ----------------------------------------
 .byte   N12 ,Cn1
 .byte   W18
 .byte   Gn1
 .byte   W18
 .byte   N09 ,Cn2
 .byte   W12
 .byte   N18 ,Gn1
 .byte   W18
 .byte   Cn2
 .byte   W18
 .byte   N09 ,Cn1
 .byte   W12
@  #01 @072   ----------------------------------------
 .byte   N18 ,Cs1
 .byte   W18
 .byte   N12
 .byte   W12
 .byte   N06 ,Gs0
 .byte   W06
 .byte   Cs1
 .byte   W06
 .byte   Gs0
 .byte   W06
 .byte   N18 ,Cs1
 .byte   W18
 .byte   N12
 .byte   W12
 .byte   N06 ,Gs0
 .byte   W06
 .byte   Cs1
 .byte   W06
 .byte   Gs0
 .byte   W06
@  #01 @073   ----------------------------------------
 .byte   N18 ,Cn1
 .byte   W18
 .byte   N12
 .byte   W12
 .byte   N06 ,Gn0
 .byte   W06
 .byte   Cn1
 .byte   W06
 .byte   Gn0
 .byte   W06
 .byte   N18 ,Cn1
 .byte   W18
 .byte   N12
 .byte   W12
 .byte   N06 ,Cn2
 .byte   W06
 .byte   Gn1
 .byte   W06
 .byte   Cn1
 .byte   W06
@  #01 @074   ----------------------------------------
 .byte   N18 ,Cs1
 .byte   W18
 .byte   N12
 .byte   W12
 .byte   N06 ,Gs0
 .byte   W06
 .byte   Cs1
 .byte   W06
 .byte   Gs0
 .byte   W06
 .byte   N18 ,Cs1
 .byte   W18
 .byte   N12
 .byte   W12
 .byte   N06 ,Gs0
 .byte   W06
 .byte   Cs1
 .byte   W06
 .byte   Gs0
 .byte   W06
@  #01 @075   ----------------------------------------
 .byte   N18 ,Cn1
 .byte   W18
 .byte   N12
 .byte   W12
 .byte   N06 ,Gn0
 .byte   W06
 .byte   Cn1
 .byte   W06
 .byte   Gn0
 .byte   W06
 .byte   N18 ,Cn1
 .byte   W18
 .byte   N12
 .byte   W12
 .byte   N06 ,Cn2
 .byte   W06
 .byte   Gn1
 .byte   W06
 .byte   Cn1
 .byte   W06
@  #01 @076   ----------------------------------------
 .byte   Gs0
 .byte   W06
 .byte   Gs0
 .byte   W06
 .byte   Gs0
 .byte   W06
 .byte   N12
 .byte   W12
 .byte   N06
 .byte   W06
 .byte   Gs1
 .byte   W06
 .byte   Gs0
 .byte   W06
 .byte   As0
 .byte   W06
 .byte   As0
 .byte   W06
 .byte   As0
 .byte   W06
 .byte   N12
 .byte   W12
 .byte   N06
 .byte   W06
 .byte   As1
 .byte   W06
 .byte   As0
 .byte   W06
@  #01 @077   ----------------------------------------
 .byte   Cn1
 .byte   W06
 .byte   Cn1
 .byte   W06
 .byte   Cn1
 .byte   W06
 .byte   N12
 .byte   W12
 .byte   N06
 .byte   W06
 .byte   Gn0
 .byte   W06
 .byte   Cn1
 .byte   W06
 .byte   Cn1
 .byte   W06
 .byte   Cn1
 .byte   W06
 .byte   Cn1
 .byte   W06
 .byte   N12
 .byte   W12
 .byte   N06 ,Gn1
 .byte   W06
 .byte   Cn2
 .byte   W06
 .byte   Cn1
 .byte   W06
@  #01 @078   ----------------------------------------
 .byte   Gs0
 .byte   W06
 .byte   Gs0
 .byte   W06
 .byte   Gs0
 .byte   W06
 .byte   N12
 .byte   W12
 .byte   N06
 .byte   W06
 .byte   Gs1
 .byte   W06
 .byte   Gs0
 .byte   W06
 .byte   As0
 .byte   W06
 .byte   As0
 .byte   W06
 .byte   As0
 .byte   W06
 .byte   N12
 .byte   W12
 .byte   N06
 .byte   W06
 .byte   As1
 .byte   W06
 .byte   As0
 .byte   W06
@  #01 @079   ----------------------------------------
 .byte   Cn1
 .byte   W06
 .byte   Cn1
 .byte   W06
 .byte   Cn1
 .byte   W06
 .byte   N12
 .byte   W12
 .byte   N06
 .byte   W06
 .byte   Gn0
 .byte   W06
 .byte   Cn1
 .byte   W06
 .byte   Cn1
 .byte   W06
 .byte   Cn1
 .byte   W06
 .byte   Cn1
 .byte   W06
 .byte   N12
 .byte   W12
 .byte   N06 ,Gn1
 .byte   W06
 .byte   Cn2
 .byte   W06
 .byte   Cn1
 .byte   W06
@  #01 @080   ----------------------------------------
 .byte   Gs0
 .byte   W06
 .byte   Gs0
 .byte   W06
 .byte   Gs0
 .byte   W06
 .byte   N12
 .byte   W12
 .byte   N06
 .byte   W06
 .byte   Gs1
 .byte   W06
 .byte   Gs0
 .byte   W06
 .byte   As0
 .byte   W06
 .byte   As0
 .byte   W06
 .byte   As0
 .byte   W06
 .byte   N12
 .byte   W12
 .byte   N06
 .byte   W06
 .byte   As1
 .byte   W06
 .byte   As0
 .byte   W06
@  #01 @081   ----------------------------------------
 .byte   Cn1
 .byte   W06
 .byte   Cn1
 .byte   W06
 .byte   Cn1
 .byte   W06
 .byte   N12
 .byte   W12
 .byte   N06
 .byte   W06
 .byte   Gn0
 .byte   W06
 .byte   Cn1
 .byte   W06
 .byte   Cn1
 .byte   W06
 .byte   Cn1
 .byte   W06
 .byte   Cn1
 .byte   W06
 .byte   N12
 .byte   W12
 .byte   N06 ,Gn1
 .byte   W06
 .byte   Cn2
 .byte   W06
 .byte   Cn1
 .byte   W06
@  #01 @082   ----------------------------------------
 .byte   Gs0
 .byte   W06
 .byte   Gs0
 .byte   W06
 .byte   Gs0
 .byte   W06
 .byte   N12
 .byte   W12
 .byte   N06
 .byte   W06
 .byte   Gs1
 .byte   W06
 .byte   Gs0
 .byte   W06
 .byte   As0
 .byte   W06
 .byte   As0
 .byte   W06
 .byte   As0
 .byte   W06
 .byte   N12
 .byte   W12
 .byte   N06
 .byte   W06
 .byte   As1
 .byte   W06
 .byte   As0
 .byte   W06
@  #01 @083   ----------------------------------------
 .byte   Cn1
 .byte   W06
 .byte   Cn1
 .byte   W06
 .byte   Cn1
 .byte   W06
 .byte   N12
 .byte   W12
 .byte   N06
 .byte   W06
 .byte   Gn0
 .byte   W06
 .byte   Cn1
 .byte   W06
 .byte   Cn1
 .byte   W06
 .byte   Cn1
 .byte   W06
 .byte   Cn1
 .byte   W06
 .byte   N12
 .byte   W12
 .byte   N06 ,Gn1
 .byte   W06
 .byte   Cn2
 .byte   W06
 .byte   Cn1
 .byte   W05
 .byte   VOL , 34*ToadstoolTourSkinsMatch_mvl/mxv
 .byte   PAN , c_v-1
 .byte   N12 ,Cn1 ,v102
 .byte   W03
@  #01 @084   ----------------------------------------
 .byte   VOL , 32*ToadstoolTourSkinsMatch_mvl/mxv
 .byte   W03
 .byte   VOL , 31*ToadstoolTourSkinsMatch_mvl/mxv
 .byte   W03
 .byte   VOL , 29*ToadstoolTourSkinsMatch_mvl/mxv
 .byte   W01
 .byte   N12 ,Cn1 ,v102
 .byte   W02
 .byte   VOL , 28*ToadstoolTourSkinsMatch_mvl/mxv
 .byte   W03
 .byte   VOL , 27*ToadstoolTourSkinsMatch_mvl/mxv
 .byte   W03
 .byte   VOL , 25*ToadstoolTourSkinsMatch_mvl/mxv
 .byte   W01
 .byte   N12 ,Cn1 ,v102
 .byte   W01
 .byte   VOL , 24*ToadstoolTourSkinsMatch_mvl/mxv
 .byte   W03
 .byte   VOL , 23*ToadstoolTourSkinsMatch_mvl/mxv
 .byte   W03
 .byte   VOL , 21*ToadstoolTourSkinsMatch_mvl/mxv
 .byte   W02
 .byte   N12 ,Cn1 ,v102
 .byte   W01
 .byte   VOL , 20*ToadstoolTourSkinsMatch_mvl/mxv
 .byte   W03
 .byte   VOL , 19*ToadstoolTourSkinsMatch_mvl/mxv
 .byte   W03
 .byte   VOL , 17*ToadstoolTourSkinsMatch_mvl/mxv
 .byte   W03
 .byte   N12 ,Cn1 ,v102
 .byte   VOL , 16*ToadstoolTourSkinsMatch_mvl/mxv
 .byte   W03
 .byte   VOL , 15*ToadstoolTourSkinsMatch_mvl/mxv
 .byte   W03
 .byte   VOL , 13*ToadstoolTourSkinsMatch_mvl/mxv
 .byte   W03
 .byte   N12 ,Cn1 ,v102
 .byte   VOL , 12*ToadstoolTourSkinsMatch_mvl/mxv
 .byte   W03
 .byte   VOL , 11*ToadstoolTourSkinsMatch_mvl/mxv
 .byte   W03
 .byte   VOL , 10*ToadstoolTourSkinsMatch_mvl/mxv
 .byte   W03
 .byte   VOL , 8*ToadstoolTourSkinsMatch_mvl/mxv
 .byte   N12 ,Cn1 ,v102
 .byte   W03
 .byte   VOL , 7*ToadstoolTourSkinsMatch_mvl/mxv
 .byte   W03
 .byte   VOL , 6*ToadstoolTourSkinsMatch_mvl/mxv
 .byte   W03
 .byte   VOL , 5*ToadstoolTourSkinsMatch_mvl/mxv
 .byte   N12 ,Cn1 ,v102
 .byte   W02
 .byte   VOL , 3*ToadstoolTourSkinsMatch_mvl/mxv
 .byte   W03
 .byte   VOL , 2*ToadstoolTourSkinsMatch_mvl/mxv
 .byte   W03
 .byte   VOL , 1*ToadstoolTourSkinsMatch_mvl/mxv
 .byte   W01
 .byte   N12 ,As0 ,v102
 .byte   W02
 .byte   VOL , 0*ToadstoolTourSkinsMatch_mvl/mxv
 .byte   W03
 .byte   VOL , 0*ToadstoolTourSkinsMatch_mvl/mxv
 .byte   W03
 .byte   VOL , 0*ToadstoolTourSkinsMatch_mvl/mxv
 .byte   W02
 .byte   N12 ,As0 ,v102
 .byte   W01
 .byte   VOL , 0*ToadstoolTourSkinsMatch_mvl/mxv
 .byte   W03
 .byte   VOL , 0*ToadstoolTourSkinsMatch_mvl/mxv
 .byte   W03
 .byte   VOL , 0*ToadstoolTourSkinsMatch_mvl/mxv
 .byte   W02
 .byte   N12 ,As0 ,v102
 .byte   W01
 .byte   VOL , 0*ToadstoolTourSkinsMatch_mvl/mxv
 .byte   W03
 .byte   VOL , 0*ToadstoolTourSkinsMatch_mvl/mxv
 .byte   W03
@  #01 @085   ----------------------------------------
 .byte   VOL , 0*ToadstoolTourSkinsMatch_mvl/mxv
 .byte   W03
 .byte   N12 ,As0 ,v102
 .byte   VOL , 0*ToadstoolTourSkinsMatch_mvl/mxv
 .byte   W03
 .byte   VOL , 0*ToadstoolTourSkinsMatch_mvl/mxv
 .byte   W03
 .byte   VOL , 0*ToadstoolTourSkinsMatch_mvl/mxv
 .byte   W03
 .byte   VOL , 0*ToadstoolTourSkinsMatch_mvl/mxv
 .byte   N12 ,As0 ,v102
 .byte   W03
 .byte   VOL , 0*ToadstoolTourSkinsMatch_mvl/mxv
 .byte   W03
 .byte   VOL , 0*ToadstoolTourSkinsMatch_mvl/mxv
 .byte   W03
 .byte   VOL , 0*ToadstoolTourSkinsMatch_mvl/mxv
 .byte   N12 ,As0 ,v102
 .byte   W03
 .byte   VOL , 0*ToadstoolTourSkinsMatch_mvl/mxv
 .byte   W03
 .byte   VOL , 0*ToadstoolTourSkinsMatch_mvl/mxv
 .byte   W03
 .byte   VOL , 0*ToadstoolTourSkinsMatch_mvl/mxv
 .byte   W01
 .byte   N12 ,As0 ,v102
 .byte   W02
 .byte   VOL , 0*ToadstoolTourSkinsMatch_mvl/mxv
 .byte   W03
 .byte   VOL , 0*ToadstoolTourSkinsMatch_mvl/mxv
 .byte   W03
 .byte   VOL , 0*ToadstoolTourSkinsMatch_mvl/mxv
 .byte   W01
 .byte   N12 ,As0 ,v102
 .byte   W02
 .byte   VOL , 0*ToadstoolTourSkinsMatch_mvl/mxv
 .byte   W03
 .byte   VOL , 0*ToadstoolTourSkinsMatch_mvl/mxv
 .byte   W03
 .byte   VOL , 0*ToadstoolTourSkinsMatch_mvl/mxv
 .byte   W02
 .byte   N12 ,An0 ,v102
 .byte   W01
 .byte   VOL , 0*ToadstoolTourSkinsMatch_mvl/mxv
 .byte   W03
 .byte   VOL , 0*ToadstoolTourSkinsMatch_mvl/mxv
 .byte   W03
 .byte   VOL , 0*ToadstoolTourSkinsMatch_mvl/mxv
 .byte   W02
 .byte   N12 ,An0 ,v102
 .byte   VOL , 0*ToadstoolTourSkinsMatch_mvl/mxv
 .byte   W03
 .byte   VOL , 0*ToadstoolTourSkinsMatch_mvl/mxv
 .byte   W03
 .byte   VOL , 0*ToadstoolTourSkinsMatch_mvl/mxv
 .byte   W03
 .byte   N12 ,An0 ,v102
 .byte   VOL , 0*ToadstoolTourSkinsMatch_mvl/mxv
 .byte   W03
 .byte   VOL , 0*ToadstoolTourSkinsMatch_mvl/mxv
 .byte   W03
 .byte   VOL , 0*ToadstoolTourSkinsMatch_mvl/mxv
 .byte   W03
 .byte   VOL , 0*ToadstoolTourSkinsMatch_mvl/mxv
 .byte   N12 ,An0 ,v102
 .byte   W03
 .byte   VOL , 0*ToadstoolTourSkinsMatch_mvl/mxv
 .byte   W03
 .byte   VOL , 0*ToadstoolTourSkinsMatch_mvl/mxv
 .byte   W03
 .byte   VOL , 0*ToadstoolTourSkinsMatch_mvl/mxv
 .byte   N12 ,An0 ,v102
 .byte   W03
 .byte   VOL , 0*ToadstoolTourSkinsMatch_mvl/mxv
 .byte   W03
 .byte   VOL , 0*ToadstoolTourSkinsMatch_mvl/mxv
 .byte   W03
 .byte   VOL , 0*ToadstoolTourSkinsMatch_mvl/mxv
 .byte   W01
@  #01 @086   ----------------------------------------
 .byte   N12 ,An0 ,v102
 .byte   W02
 .byte   VOL , 0*ToadstoolTourSkinsMatch_mvl/mxv
 .byte   W03
 .byte   VOL , 0*ToadstoolTourSkinsMatch_mvl/mxv
 .byte   W03
 .byte   VOL , 0*ToadstoolTourSkinsMatch_mvl/mxv
 .byte   W01
 .byte   N12 ,An0 ,v102
 .byte   W01
 .byte   VOL , 0*ToadstoolTourSkinsMatch_mvl/mxv
 .byte   W03
 .byte   VOL , 0*ToadstoolTourSkinsMatch_mvl/mxv
 .byte   W03
 .byte   VOL , 0*ToadstoolTourSkinsMatch_mvl/mxv
 .byte   W02
 .byte   N12 ,An0 ,v102
 .byte   W01
 .byte   VOL , 0*ToadstoolTourSkinsMatch_mvl/mxv
 .byte   W03
 .byte   VOL , 0*ToadstoolTourSkinsMatch_mvl/mxv
 .byte   W03
 .byte   VOL , 0*ToadstoolTourSkinsMatch_mvl/mxv
 .byte   W03
 .byte   N12 ,Gs0 ,v102
 .byte   VOL , 0*ToadstoolTourSkinsMatch_mvl/mxv
 .byte   W03
 .byte   VOL , 0*ToadstoolTourSkinsMatch_mvl/mxv
 .byte   W03
 .byte   VOL , 0*ToadstoolTourSkinsMatch_mvl/mxv
 .byte   W03
 .byte   N12 ,Gs0 ,v102
 .byte   VOL , 0*ToadstoolTourSkinsMatch_mvl/mxv
 .byte   W03
 .byte   VOL , 0*ToadstoolTourSkinsMatch_mvl/mxv
 .byte   W03
 .byte   VOL , 0*ToadstoolTourSkinsMatch_mvl/mxv
 .byte   W03
 .byte   VOL , 0*ToadstoolTourSkinsMatch_mvl/mxv
 .byte   N12 ,Gs0 ,v102
 .byte   W03
 .byte   VOL , 0*ToadstoolTourSkinsMatch_mvl/mxv
 .byte   W03
 .byte   VOL , 0*ToadstoolTourSkinsMatch_mvl/mxv
 .byte   W03
 .byte   VOL , 0*ToadstoolTourSkinsMatch_mvl/mxv
 .byte   N12 ,Gs0 ,v102
 .byte   W02
 .byte   VOL , 0*ToadstoolTourSkinsMatch_mvl/mxv
 .byte   W03
 .byte   VOL , 0*ToadstoolTourSkinsMatch_mvl/mxv
 .byte   W03
 .byte   VOL , 0*ToadstoolTourSkinsMatch_mvl/mxv
 .byte   W01
 .byte   N12 ,As0 ,v102
 .byte   W02
 .byte   VOL , 0*ToadstoolTourSkinsMatch_mvl/mxv
 .byte   W03
 .byte   VOL , 0*ToadstoolTourSkinsMatch_mvl/mxv
 .byte   W03
 .byte   VOL , 0*ToadstoolTourSkinsMatch_mvl/mxv
 .byte   W02
 .byte   N06 ,As1 ,v102
 .byte   W01
 .byte   VOL , 0*ToadstoolTourSkinsMatch_mvl/mxv
 .byte   W03
 .byte   VOL , 0*ToadstoolTourSkinsMatch_mvl/mxv
 .byte   N06 ,As0 ,v102
 .byte   W03
 .byte   VOL , 0*ToadstoolTourSkinsMatch_mvl/mxv
 .byte   W02
 .byte   N06 ,Fn1 ,v102
 .byte   W01
 .byte   VOL , 0*ToadstoolTourSkinsMatch_mvl/mxv
 .byte   W03
 .byte   VOL , 0*ToadstoolTourSkinsMatch_mvl/mxv
 .byte   W01
 .byte   N06 ,Dn1 ,v102
 .byte   W02
 .byte   VOL , 0*ToadstoolTourSkinsMatch_mvl/mxv
 .byte   W03
 .byte   N06 ,As0 ,v102
 .byte   VOL , 0*ToadstoolTourSkinsMatch_mvl/mxv
 .byte   W03
@  #01 @087   ----------------------------------------
 .byte   VOL , 0*ToadstoolTourSkinsMatch_mvl/mxv
 .byte   W01
 .byte   N06 ,Fn0 ,v102
 .byte   W02
 .byte   VOL , 0*ToadstoolTourSkinsMatch_mvl/mxv
 .byte   W03
 .byte   FINE

@**************** Track 2 (Midi-Chn.1) ****************@

ToadstoolTourSkinsMatch_002:
@  #02 @000   ----------------------------------------
Label_014D3920:
 .byte   TEMPO , 118*ToadstoolTourSkinsMatch_tbs/2
 .byte   KEYSH , ToadstoolTourSkinsMatch_key+0
 .byte   VOICE , 34
 .byte   VOL , 68*ToadstoolTourSkinsMatch_mvl/mxv
 .byte   PAN , c_v-1
 .byte   N06 ,Fn0 ,v102
 .byte   W06
 .byte   N12 ,En0
 .byte   W12
 .byte   N06 ,En1
 .byte   W06
 .byte   N12 ,En0
 .byte   W12
 .byte   N06 ,En1
 .byte   W06
 .byte   N12 ,En0
 .byte   W12
 .byte   N06 ,Dn1
 .byte   W06
 .byte   Dn1
 .byte   W06
 .byte   Dn2
 .byte   W06
 .byte   Dn1
 .byte   W06
 .byte   Cn2
 .byte   W06
 .byte   Dn2
 .byte   W06
 .byte   An1
 .byte   W06
@  #02 @001   ----------------------------------------
 .byte   Dn1
 .byte   W06
 .byte   Cn1
 .byte   W06
 .byte   Cn1
 .byte   W06
 .byte   Cn1
 .byte   W06
 .byte   Cn1
 .byte   W06
 .byte   Cn1
 .byte   W06
 .byte   Gn0
 .byte   W06
 .byte   Cn1
 .byte   W06
 .byte   Gn0
 .byte   W06
 .byte   Bn0
 .byte   W06
 .byte   Bn0
 .byte   W06
 .byte   Bn1
 .byte   W06
 .byte   Bn0
 .byte   W06
 .byte   Bn0
 .byte   W06
 .byte   Bn0
 .byte   W06
 .byte   Bn1
 .byte   W06
@  #02 @002   ----------------------------------------
 .byte   Bn0
 .byte   W06
 .byte   Cn1
 .byte   W06
 .byte   Cn1
 .byte   W06
 .byte   Cn1
 .byte   W06
 .byte   Cn1
 .byte   W06
 .byte   Cn1
 .byte   W06
 .byte   Gn0
 .byte   W06
 .byte   Cn1
 .byte   W06
 .byte   Gn0
 .byte   W06
 .byte   Dn1
 .byte   W06
 .byte   Dn1
 .byte   W06
 .byte   Dn1
 .byte   W06
 .byte   Dn1
 .byte   W06
 .byte   Dn1
 .byte   W06
 .byte   An0
 .byte   W06
 .byte   Dn1
 .byte   W06
@  #02 @003   ----------------------------------------
 .byte   An0
 .byte   W06
 .byte   Ds1
 .byte   W06
 .byte   Ds1
 .byte   W06
 .byte   Ds1
 .byte   W06
 .byte   Ds1
 .byte   W06
 .byte   Ds1
 .byte   W06
 .byte   As0
 .byte   W06
 .byte   Ds1
 .byte   W06
 .byte   As0
 .byte   W06
 .byte   Fn0
 .byte   W06
 .byte   Fn0
 .byte   W06
 .byte   Fn1
 .byte   W06
 .byte   Fn0
 .byte   W06
 .byte   Ds1
 .byte   W06
 .byte   Fn0
 .byte   W06
 .byte   Fn1
 .byte   W06
@  #02 @004   ----------------------------------------
 .byte   Fn0
 .byte   W06
 .byte   N18 ,Gn0
 .byte   W18
 .byte   N12
 .byte   W12
 .byte   N06 ,Dn0
 .byte   W06
 .byte   Gn0
 .byte   W06
 .byte   Dn0
 .byte   W06
 .byte   N18 ,Fn0
 .byte   W18
 .byte   N12
 .byte   W12
 .byte   N06 ,Fn1
 .byte   W06
 .byte   Fn0
 .byte   W06
@  #02 @005   ----------------------------------------
 .byte   Fn1
 .byte   W06
 .byte   Gs0
 .byte   W06
 .byte   Gs1
 .byte   W06
 .byte   Gs0
 .byte   W06
 .byte   Gs1
 .byte   W06
 .byte   Gs0
 .byte   W06
 .byte   Gs1
 .byte   W06
 .byte   Gs0
 .byte   W06
 .byte   Gs1
 .byte   W06
 .byte   As0
 .byte   W06
 .byte   As1
 .byte   W06
 .byte   As0
 .byte   W06
 .byte   As1
 .byte   W06
 .byte   As0
 .byte   W06
 .byte   As1
 .byte   W06
 .byte   As0
 .byte   W06
@  #02 @006   ----------------------------------------
 .byte   As1
 .byte   W06
 .byte   N18 ,Cn1
 .byte   W18
 .byte   N12
 .byte   W12
 .byte   N06 ,Gn0
 .byte   W06
 .byte   Cn1
 .byte   W06
 .byte   Gn0
 .byte   W06
 .byte   N18 ,As0
 .byte   W18
 .byte   Fn0
 .byte   W18
 .byte   N12 ,Fn1
 .byte   W12
@  #02 @007   ----------------------------------------
 .byte   N06 ,Gs0
 .byte   W06
 .byte   Gs0
 .byte   W06
 .byte   Gs1
 .byte   W06
 .byte   Gs0
 .byte   W06
 .byte   Ds1
 .byte   W06
 .byte   Gs1
 .byte   W06
 .byte   Gs0
 .byte   W06
 .byte   Gs1
 .byte   W06
 .byte   As0
 .byte   W06
 .byte   As0
 .byte   W06
 .byte   Fn0
 .byte   W06
 .byte   As0
 .byte   W06
 .byte   Fn1
 .byte   W06
 .byte   As1
 .byte   W06
 .byte   Fn1
 .byte   W06
 .byte   As0
 .byte   W06
@  #02 @008   ----------------------------------------
 .byte   N12 ,En0
 .byte   W12
 .byte   N06 ,En1
 .byte   W06
 .byte   N12 ,En0
 .byte   W12
 .byte   N06 ,En1
 .byte   W06
 .byte   N12 ,En0
 .byte   W12
 .byte   N06 ,Dn1
 .byte   W06
 .byte   Dn1
 .byte   W06
 .byte   Dn2
 .byte   W06
 .byte   Dn1
 .byte   W06
 .byte   Cn2
 .byte   W06
 .byte   Dn2
 .byte   W06
 .byte   An1
 .byte   W06
 .byte   Dn1
 .byte   W06
@  #02 @009   ----------------------------------------
 .byte   Cn1
 .byte   W06
 .byte   Cn1
 .byte   W06
 .byte   Cn1
 .byte   W06
 .byte   Cn1
 .byte   W06
 .byte   Cn1
 .byte   W06
 .byte   Gn0
 .byte   W06
 .byte   Cn1
 .byte   W06
 .byte   Gn0
 .byte   W06
 .byte   Bn0
 .byte   W06
 .byte   Bn0
 .byte   W06
 .byte   Bn1
 .byte   W06
 .byte   Bn0
 .byte   W06
 .byte   Bn0
 .byte   W06
 .byte   Bn0
 .byte   W06
 .byte   Bn1
 .byte   W06
 .byte   Bn0
 .byte   W06
@  #02 @010   ----------------------------------------
 .byte   Cn1
 .byte   W06
 .byte   Cn1
 .byte   W06
 .byte   Cn1
 .byte   W06
 .byte   Cn1
 .byte   W06
 .byte   Cn1
 .byte   W06
 .byte   Gn0
 .byte   W06
 .byte   Cn1
 .byte   W06
 .byte   Gn0
 .byte   W06
 .byte   Dn1
 .byte   W06
 .byte   Dn1
 .byte   W06
 .byte   Dn1
 .byte   W06
 .byte   Dn1
 .byte   W06
 .byte   Dn1
 .byte   W06
 .byte   An0
 .byte   W06
 .byte   Dn1
 .byte   W06
 .byte   An0
 .byte   W06
@  #02 @011   ----------------------------------------
 .byte   Ds1
 .byte   W06
 .byte   Ds1
 .byte   W06
 .byte   Ds1
 .byte   W06
 .byte   Ds1
 .byte   W06
 .byte   Ds1
 .byte   W06
 .byte   As0
 .byte   W06
 .byte   Ds1
 .byte   W06
 .byte   As0
 .byte   W06
 .byte   Fn0
 .byte   W06
 .byte   Fn0
 .byte   W06
 .byte   Fn1
 .byte   W06
 .byte   Fn0
 .byte   W06
 .byte   Ds1
 .byte   W06
 .byte   Fn0
 .byte   W06
 .byte   Fn1
 .byte   W06
 .byte   Fn0
 .byte   W06
@  #02 @012   ----------------------------------------
 .byte   N18 ,Gn0
 .byte   W18
 .byte   N12
 .byte   W12
 .byte   N06 ,Dn0
 .byte   W06
 .byte   Gn0
 .byte   W06
 .byte   Dn0
 .byte   W06
 .byte   N18 ,Fn0
 .byte   W18
 .byte   N12
 .byte   W12
 .byte   N06 ,Fn1
 .byte   W06
 .byte   Fn0
 .byte   W06
 .byte   Fn1
 .byte   W06
@  #02 @013   ----------------------------------------
 .byte   Gs0
 .byte   W06
 .byte   Gs1
 .byte   W06
 .byte   Gs0
 .byte   W06
 .byte   Gs1
 .byte   W06
 .byte   Gs0
 .byte   W06
 .byte   Gs1
 .byte   W06
 .byte   Gs0
 .byte   W06
 .byte   Gs1
 .byte   W06
 .byte   As0
 .byte   W06
 .byte   As1
 .byte   W06
 .byte   As0
 .byte   W06
 .byte   As1
 .byte   W06
 .byte   As0
 .byte   W06
 .byte   As1
 .byte   W06
 .byte   As0
 .byte   W06
 .byte   As1
 .byte   W06
@  #02 @014   ----------------------------------------
 .byte   N18 ,Cn1
 .byte   W18
 .byte   N12
 .byte   W12
 .byte   N06 ,Gn0
 .byte   W06
 .byte   Cn1
 .byte   W06
 .byte   Gn0
 .byte   W06
 .byte   N18 ,As0
 .byte   W18
 .byte   Fn0
 .byte   W18
 .byte   N12 ,Fn1
 .byte   W12
@  #02 @015   ----------------------------------------
 .byte   N06 ,Gs0
 .byte   W06
 .byte   Gs0
 .byte   W06
 .byte   Gs1
 .byte   W06
 .byte   Gs0
 .byte   W06
 .byte   Ds1
 .byte   W06
 .byte   Gs1
 .byte   W06
 .byte   Gs0
 .byte   W06
 .byte   Gs1
 .byte   W06
 .byte   As0
 .byte   W06
 .byte   As0
 .byte   W06
 .byte   Fn0
 .byte   W06
 .byte   As0
 .byte   W06
 .byte   Fn1
 .byte   W06
 .byte   As1
 .byte   W06
 .byte   Fn1
 .byte   W06
 .byte   GOTO
  .word Label_014D3920
@  #02 @016   ----------------------------------------
 .byte   N06 ,As0 ,v102
 .byte   W06
 .byte   N12 ,Cn1
 .byte   W12
 .byte   Cn1
 .byte   W12
 .byte   Cn1
 .byte   W12
 .byte   Cn1
 .byte   W12
 .byte   Cn1
 .byte   W12
 .byte   Cn1
 .byte   W12
 .byte   Cn1
 .byte   W12
 .byte   Cn1
 .byte   W12
@  #02 @017   ----------------------------------------
 .byte   As0
 .byte   W12
 .byte   As0
 .byte   W12
 .byte   As0
 .byte   W12
 .byte   As0
 .byte   W12
 .byte   As0
 .byte   W12
 .byte   As0
 .byte   W12
 .byte   As0
 .byte   W12
 .byte   As0
 .byte   W12
@  #02 @018   ----------------------------------------
 .byte   An0
 .byte   W12
 .byte   An0
 .byte   W12
 .byte   An0
 .byte   W12
 .byte   An0
 .byte   W12
 .byte   An0
 .byte   W12
 .byte   An0
 .byte   W12
 .byte   An0
 .byte   W12
 .byte   An0
 .byte   W12
@  #02 @019   ----------------------------------------
 .byte   Gs0
 .byte   W12
 .byte   Gs0
 .byte   W12
 .byte   Gs0
 .byte   W12
 .byte   Gs0
 .byte   W12
 .byte   As0
 .byte   W12
 .byte   N06 ,As1
 .byte   W06
 .byte   As0
 .byte   W06
 .byte   Fn1
 .byte   W06
 .byte   Dn1
 .byte   W06
 .byte   As0
 .byte   W06
 .byte   Fn0
 .byte   W06
@  #02 @020   ----------------------------------------
 .byte   N18 ,Cn1
 .byte   W18
 .byte   N12
 .byte   W12
 .byte   N06 ,Gn0
 .byte   W06
 .byte   Cn1
 .byte   W06
 .byte   Gn0
 .byte   W06
 .byte   N12 ,Cn1
 .byte   W12
 .byte   Cn1
 .byte   W12
 .byte   N06
 .byte   W06
 .byte   Gn0
 .byte   W06
 .byte   Cn1
 .byte   W06
 .byte   Gn0
 .byte   W06
@  #02 @021   ----------------------------------------
 .byte   N12 ,As0
 .byte   W12
 .byte   As0
 .byte   W12
 .byte   N06
 .byte   W06
 .byte   Fn1
 .byte   W06
 .byte   As1
 .byte   W06
 .byte   As0
 .byte   W06
 .byte   N12
 .byte   W12
 .byte   As0
 .byte   W12
 .byte   N06
 .byte   W06
 .byte   As1
 .byte   W06
 .byte   As0
 .byte   W06
 .byte   As1
 .byte   W06
@  #02 @022   ----------------------------------------
 .byte   N12 ,An0
 .byte   W12
 .byte   N06
 .byte   W06
 .byte   N12 ,An1
 .byte   W12
 .byte   N06 ,An0
 .byte   W06
 .byte   En1
 .byte   W06
 .byte   An1
 .byte   W06
 .byte   N12 ,An0
 .byte   W12
 .byte   An0
 .byte   W12
 .byte   N06
 .byte   W06
 .byte   An1
 .byte   W06
 .byte   An0
 .byte   W06
 .byte   An1
 .byte   W06
@  #02 @023   ----------------------------------------
 .byte   N12 ,Gs0
 .byte   W12
 .byte   N06
 .byte   W06
 .byte   N12 ,Gs1
 .byte   W12
 .byte   N06 ,Gs0
 .byte   W06
 .byte   Ds1
 .byte   W06
 .byte   Gs1
 .byte   W06
 .byte   N12 ,As0
 .byte   W12
 .byte   N06
 .byte   W06
 .byte   N12 ,As1
 .byte   W12
 .byte   N06 ,As0
 .byte   W06
 .byte   Fn1
 .byte   W06
 .byte   As1
 .byte   W06
@  #02 @024   ----------------------------------------
Label_014D3BC3:
 .byte   N12 ,Cs1 ,v102
 .byte   W18
 .byte   Gs1
 .byte   W18
 .byte   N09 ,Cs2
 .byte   W12
 .byte   N18 ,Cs1
 .byte   W18
 .byte   Gs1
 .byte   W18
 .byte   N09 ,Cs1
 .byte   W12
 .byte   PEND 
@  #02 @025   ----------------------------------------
Label_014D3BD5:
 .byte   N12 ,Cn1 ,v102
 .byte   W18
 .byte   Gn1
 .byte   W18
 .byte   N09 ,Cn2
 .byte   W12
 .byte   N18 ,Gn1
 .byte   W18
 .byte   Cn2
 .byte   W18
 .byte   N09 ,Cn1
 .byte   W12
 .byte   PEND 
@  #02 @026   ----------------------------------------
 .byte   PATT
  .word Label_014D3BC3
@  #02 @027   ----------------------------------------
 .byte   PATT
  .word Label_014D3BD5
@  #02 @028   ----------------------------------------
Label_014D3BF1:
 .byte   N18 ,Cs1 ,v102
 .byte   W18
 .byte   N12
 .byte   W12
 .byte   N06 ,Gs0
 .byte   W06
 .byte   Cs1
 .byte   W06
 .byte   Gs0
 .byte   W06
 .byte   N18 ,Cs1
 .byte   W18
 .byte   N12
 .byte   W12
 .byte   N06 ,Gs0
 .byte   W06
 .byte   Cs1
 .byte   W06
 .byte   Gs0
 .byte   W06
 .byte   PEND 
@  #02 @029   ----------------------------------------
Label_014D3C0B:
 .byte   N18 ,Cn1 ,v102
 .byte   W18
 .byte   N12
 .byte   W12
 .byte   N06 ,Gn0
 .byte   W06
 .byte   Cn1
 .byte   W06
 .byte   Gn0
 .byte   W06
 .byte   N18 ,Cn1
 .byte   W18
 .byte   N12
 .byte   W12
 .byte   N06 ,Cn2
 .byte   W06
 .byte   Gn1
 .byte   W06
 .byte   Cn1
 .byte   W06
 .byte   PEND 
@  #02 @030   ----------------------------------------
 .byte   PATT
  .word Label_014D3BF1
@  #02 @031   ----------------------------------------
 .byte   PATT
  .word Label_014D3C0B
@  #02 @032   ----------------------------------------
Label_014D3C2F:
 .byte   N06 ,Gs0 ,v102
 .byte   W06
 .byte   Gs0
 .byte   W06
 .byte   Gs0
 .byte   W06
 .byte   N12
 .byte   W12
 .byte   N06
 .byte   W06
 .byte   Gs1
 .byte   W06
 .byte   Gs0
 .byte   W06
 .byte   As0
 .byte   W06
 .byte   As0
 .byte   W06
 .byte   As0
 .byte   W06
 .byte   N12
 .byte   W12
 .byte   N06
 .byte   W06
 .byte   As1
 .byte   W06
 .byte   As0
 .byte   W06
 .byte   PEND 
@  #02 @033   ----------------------------------------
Label_014D3C4E:
 .byte   N06 ,Cn1 ,v102
 .byte   W06
 .byte   Cn1
 .byte   W06
 .byte   Cn1
 .byte   W06
 .byte   N12
 .byte   W12
 .byte   N06
 .byte   W06
 .byte   Gn0
 .byte   W06
 .byte   Cn1
 .byte   W06
 .byte   Cn1
 .byte   W06
 .byte   Cn1
 .byte   W06
 .byte   Cn1
 .byte   W06
 .byte   N12
 .byte   W12
 .byte   N06 ,Gn1
 .byte   W06
 .byte   Cn2
 .byte   W06
 .byte   Cn1
 .byte   W06
 .byte   PEND 
@  #02 @034   ----------------------------------------
 .byte   PATT
  .word Label_014D3C2F
@  #02 @035   ----------------------------------------
 .byte   PATT
  .word Label_014D3C4E
@  #02 @036   ----------------------------------------
 .byte   PATT
  .word Label_014D3C2F
@  #02 @037   ----------------------------------------
 .byte   PATT
  .word Label_014D3C4E
@  #02 @038   ----------------------------------------
 .byte   PATT
  .word Label_014D3C2F
@  #02 @039   ----------------------------------------
 .byte   N06 ,Cn1 ,v102
 .byte   W06
 .byte   Cn1
 .byte   W06
 .byte   Cn1
 .byte   W06
 .byte   N12
 .byte   W12
 .byte   N06
 .byte   W06
 .byte   Gn0
 .byte   W06
 .byte   Cn1
 .byte   W06
 .byte   Cn1
 .byte   W06
 .byte   Cn1
 .byte   W06
 .byte   Cn1
 .byte   W06
 .byte   N12
 .byte   W12
 .byte   N06 ,Gn1
 .byte   W06
 .byte   Cn2
 .byte   W06
 .byte   Cn1
 .byte   W06
@  #02 @040   ----------------------------------------
 .byte   VOL , 68*ToadstoolTourSkinsMatch_mvl/mxv
 .byte   PAN , c_v-1
 .byte   N12 ,Cn1 ,v102
 .byte   W12
 .byte   Cn1
 .byte   W12
 .byte   Cn1
 .byte   W12
 .byte   Cn1
 .byte   W12
 .byte   Cn1
 .byte   W12
 .byte   Cn1
 .byte   W12
 .byte   Cn1
 .byte   W12
 .byte   Cn1
 .byte   W12
@  #02 @041   ----------------------------------------
 .byte   As0
 .byte   W12
 .byte   As0
 .byte   W12
 .byte   As0
 .byte   W12
 .byte   As0
 .byte   W12
 .byte   As0
 .byte   W12
 .byte   As0
 .byte   W12
 .byte   As0
 .byte   W12
 .byte   As0
 .byte   W12
@  #02 @042   ----------------------------------------
 .byte   An0
 .byte   W12
 .byte   An0
 .byte   W12
 .byte   An0
 .byte   W12
 .byte   An0
 .byte   W12
 .byte   An0
 .byte   W12
 .byte   An0
 .byte   W12
 .byte   An0
 .byte   W12
 .byte   An0
 .byte   W12
@  #02 @043   ----------------------------------------
 .byte   Gs0
 .byte   W12
 .byte   Gs0
 .byte   W12
 .byte   Gs0
 .byte   W12
 .byte   Gs0
 .byte   W12
 .byte   As0
 .byte   W12
 .byte   N06 ,As1
 .byte   W06
 .byte   As0
 .byte   W06
 .byte   Fn1
 .byte   W06
 .byte   Dn1
 .byte   W06
 .byte   As0
 .byte   W06
 .byte   Fn0
 .byte   W06
@  #02 @044   ----------------------------------------
 .byte   N12 ,En0
 .byte   W12
 .byte   N06 ,En1
 .byte   W06
 .byte   N12 ,En0
 .byte   W12
 .byte   N06 ,En1
 .byte   W06
 .byte   N12 ,En0
 .byte   W12
 .byte   N06 ,Dn1
 .byte   W06
 .byte   Dn1
 .byte   W06
 .byte   Dn2
 .byte   W06
 .byte   Dn1
 .byte   W06
 .byte   Cn2
 .byte   W06
 .byte   Dn2
 .byte   W06
 .byte   An1
 .byte   W06
 .byte   Dn1
 .byte   W06
@  #02 @045   ----------------------------------------
 .byte   Cn1
 .byte   W06
 .byte   Cn1
 .byte   W06
 .byte   Cn1
 .byte   W06
 .byte   Cn1
 .byte   W06
 .byte   Cn1
 .byte   W06
 .byte   Gn0
 .byte   W06
 .byte   Cn1
 .byte   W06
 .byte   Gn0
 .byte   W06
 .byte   Bn0
 .byte   W06
 .byte   Bn0
 .byte   W06
 .byte   Bn1
 .byte   W06
 .byte   Bn0
 .byte   W06
 .byte   Bn0
 .byte   W06
 .byte   Bn0
 .byte   W06
 .byte   Bn1
 .byte   W06
 .byte   Bn0
 .byte   W06
@  #02 @046   ----------------------------------------
 .byte   Cn1
 .byte   W06
 .byte   Cn1
 .byte   W06
 .byte   Cn1
 .byte   W06
 .byte   Cn1
 .byte   W06
 .byte   Cn1
 .byte   W06
 .byte   Gn0
 .byte   W06
 .byte   Cn1
 .byte   W06
 .byte   Gn0
 .byte   W06
 .byte   Dn1
 .byte   W06
 .byte   Dn1
 .byte   W06
 .byte   Dn1
 .byte   W06
 .byte   Dn1
 .byte   W06
 .byte   Dn1
 .byte   W06
 .byte   An0
 .byte   W06
 .byte   Dn1
 .byte   W06
 .byte   An0
 .byte   W06
@  #02 @047   ----------------------------------------
 .byte   Ds1
 .byte   W06
 .byte   Ds1
 .byte   W06
 .byte   Ds1
 .byte   W06
 .byte   Ds1
 .byte   W06
 .byte   Ds1
 .byte   W06
 .byte   As0
 .byte   W06
 .byte   Ds1
 .byte   W06
 .byte   As0
 .byte   W06
 .byte   Fn0
 .byte   W06
 .byte   Fn0
 .byte   W06
 .byte   Fn1
 .byte   W06
 .byte   Fn0
 .byte   W06
 .byte   Ds1
 .byte   W06
 .byte   Fn0
 .byte   W06
 .byte   Fn1
 .byte   W06
 .byte   Fn0
 .byte   W06
@  #02 @048   ----------------------------------------
 .byte   N18 ,Gn0
 .byte   W18
 .byte   N12
 .byte   W12
 .byte   N06 ,Dn0
 .byte   W06
 .byte   Gn0
 .byte   W06
 .byte   Dn0
 .byte   W06
 .byte   N18 ,Fn0
 .byte   W18
 .byte   N12
 .byte   W12
 .byte   N06 ,Fn1
 .byte   W06
 .byte   Fn0
 .byte   W06
 .byte   Fn1
 .byte   W06
@  #02 @049   ----------------------------------------
 .byte   Gs0
 .byte   W06
 .byte   Gs1
 .byte   W06
 .byte   Gs0
 .byte   W06
 .byte   Gs1
 .byte   W06
 .byte   Gs0
 .byte   W06
 .byte   Gs1
 .byte   W06
 .byte   Gs0
 .byte   W06
 .byte   Gs1
 .byte   W06
 .byte   As0
 .byte   W06
 .byte   As1
 .byte   W06
 .byte   As0
 .byte   W06
 .byte   As1
 .byte   W06
 .byte   As0
 .byte   W06
 .byte   As1
 .byte   W06
 .byte   As0
 .byte   W06
 .byte   As1
 .byte   W06
@  #02 @050   ----------------------------------------
 .byte   N18 ,Cn1
 .byte   W18
 .byte   N12
 .byte   W12
 .byte   N06 ,Gn0
 .byte   W06
 .byte   Cn1
 .byte   W06
 .byte   Gn0
 .byte   W06
 .byte   N18 ,As0
 .byte   W18
 .byte   Fn0
 .byte   W18
 .byte   N12 ,Fn1
 .byte   W12
@  #02 @051   ----------------------------------------
 .byte   N06 ,Gs0
 .byte   W06
 .byte   Gs0
 .byte   W06
 .byte   Gs1
 .byte   W06
 .byte   Gs0
 .byte   W06
 .byte   Ds1
 .byte   W06
 .byte   Gs1
 .byte   W06
 .byte   Gs0
 .byte   W06
 .byte   Gs1
 .byte   W06
 .byte   As0
 .byte   W06
 .byte   As0
 .byte   W06
 .byte   Fn0
 .byte   W06
 .byte   As0
 .byte   W06
 .byte   Fn1
 .byte   W06
 .byte   As1
 .byte   W06
 .byte   Fn1
 .byte   W06
 .byte   As0
 .byte   W06
@  #02 @052   ----------------------------------------
 .byte   N12 ,En0
 .byte   W12
 .byte   N06 ,En1
 .byte   W06
 .byte   N12 ,En0
 .byte   W12
 .byte   N06 ,En1
 .byte   W06
 .byte   N12 ,En0
 .byte   W12
 .byte   N06 ,Dn1
 .byte   W06
 .byte   Dn1
 .byte   W06
 .byte   Dn2
 .byte   W06
 .byte   Dn1
 .byte   W06
 .byte   Cn2
 .byte   W06
 .byte   Dn2
 .byte   W06
 .byte   An1
 .byte   W06
 .byte   Dn1
 .byte   W06
@  #02 @053   ----------------------------------------
 .byte   Cn1
 .byte   W06
 .byte   Cn1
 .byte   W06
 .byte   Cn1
 .byte   W06
 .byte   Cn1
 .byte   W06
 .byte   Cn1
 .byte   W06
 .byte   Gn0
 .byte   W06
 .byte   Cn1
 .byte   W06
 .byte   Gn0
 .byte   W06
 .byte   Bn0
 .byte   W06
 .byte   Bn0
 .byte   W06
 .byte   Bn1
 .byte   W06
 .byte   Bn0
 .byte   W06
 .byte   Bn0
 .byte   W06
 .byte   Bn0
 .byte   W06
 .byte   Bn1
 .byte   W06
 .byte   Bn0
 .byte   W06
@  #02 @054   ----------------------------------------
 .byte   Cn1
 .byte   W06
 .byte   Cn1
 .byte   W06
 .byte   Cn1
 .byte   W06
 .byte   Cn1
 .byte   W06
 .byte   Cn1
 .byte   W06
 .byte   Gn0
 .byte   W06
 .byte   Cn1
 .byte   W06
 .byte   Gn0
 .byte   W06
 .byte   Dn1
 .byte   W06
 .byte   Dn1
 .byte   W06
 .byte   Dn1
 .byte   W06
 .byte   Dn1
 .byte   W06
 .byte   Dn1
 .byte   W06
 .byte   An0
 .byte   W06
 .byte   Dn1
 .byte   W06
 .byte   An0
 .byte   W06
@  #02 @055   ----------------------------------------
 .byte   Ds1
 .byte   W06
 .byte   Ds1
 .byte   W06
 .byte   Ds1
 .byte   W06
 .byte   Ds1
 .byte   W06
 .byte   Ds1
 .byte   W06
 .byte   As0
 .byte   W06
 .byte   Ds1
 .byte   W06
 .byte   As0
 .byte   W06
 .byte   Fn0
 .byte   W06
 .byte   Fn0
 .byte   W06
 .byte   Fn1
 .byte   W06
 .byte   Fn0
 .byte   W06
 .byte   Ds1
 .byte   W06
 .byte   Fn0
 .byte   W06
 .byte   Fn1
 .byte   W06
 .byte   Fn0
 .byte   W06
@  #02 @056   ----------------------------------------
 .byte   N18 ,Gn0
 .byte   W18
 .byte   N12
 .byte   W12
 .byte   N06 ,Dn0
 .byte   W06
 .byte   Gn0
 .byte   W06
 .byte   Dn0
 .byte   W06
 .byte   N18 ,Fn0
 .byte   W18
 .byte   N12
 .byte   W12
 .byte   N06 ,Fn1
 .byte   W06
 .byte   Fn0
 .byte   W06
 .byte   Fn1
 .byte   W06
@  #02 @057   ----------------------------------------
 .byte   Gs0
 .byte   W06
 .byte   Gs1
 .byte   W06
 .byte   Gs0
 .byte   W06
 .byte   Gs1
 .byte   W06
 .byte   Gs0
 .byte   W06
 .byte   Gs1
 .byte   W06
 .byte   Gs0
 .byte   W06
 .byte   Gs1
 .byte   W06
 .byte   As0
 .byte   W06
 .byte   As1
 .byte   W06
 .byte   As0
 .byte   W06
 .byte   As1
 .byte   W06
 .byte   As0
 .byte   W06
 .byte   As1
 .byte   W06
 .byte   As0
 .byte   W06
 .byte   As1
 .byte   W06
@  #02 @058   ----------------------------------------
 .byte   N18 ,Cn1
 .byte   W18
 .byte   N12
 .byte   W12
 .byte   N06 ,Gn0
 .byte   W06
 .byte   Cn1
 .byte   W06
 .byte   Gn0
 .byte   W06
 .byte   N18 ,As0
 .byte   W18
 .byte   Fn0
 .byte   W18
 .byte   N12 ,Fn1
 .byte   W12
@  #02 @059   ----------------------------------------
 .byte   N06 ,Gs0
 .byte   W06
 .byte   Gs0
 .byte   W06
 .byte   Gs1
 .byte   W06
 .byte   Gs0
 .byte   W06
 .byte   Ds1
 .byte   W06
 .byte   Gs1
 .byte   W06
 .byte   Gs0
 .byte   W06
 .byte   Gs1
 .byte   W06
 .byte   As0
 .byte   W06
 .byte   As0
 .byte   W06
 .byte   Fn0
 .byte   W06
 .byte   As0
 .byte   W06
 .byte   Fn1
 .byte   W06
 .byte   As1
 .byte   W06
 .byte   Fn1
 .byte   W06
 .byte   As0
 .byte   W06
@  #02 @060   ----------------------------------------
 .byte   N12 ,Cn1
 .byte   W12
 .byte   Cn1
 .byte   W12
 .byte   Cn1
 .byte   W12
 .byte   Cn1
 .byte   W12
 .byte   Cn1
 .byte   W12
 .byte   Cn1
 .byte   W12
 .byte   Cn1
 .byte   W12
 .byte   Cn1
 .byte   W12
@  #02 @061   ----------------------------------------
 .byte   As0
 .byte   W12
 .byte   As0
 .byte   W12
 .byte   As0
 .byte   W12
 .byte   As0
 .byte   W12
 .byte   As0
 .byte   W12
 .byte   As0
 .byte   W12
 .byte   As0
 .byte   W12
 .byte   As0
 .byte   W12
@  #02 @062   ----------------------------------------
 .byte   An0
 .byte   W12
 .byte   An0
 .byte   W12
 .byte   An0
 .byte   W12
 .byte   An0
 .byte   W12
 .byte   An0
 .byte   W12
 .byte   An0
 .byte   W12
 .byte   An0
 .byte   W12
 .byte   An0
 .byte   W12
@  #02 @063   ----------------------------------------
 .byte   Gs0
 .byte   W12
 .byte   Gs0
 .byte   W12
 .byte   Gs0
 .byte   W12
 .byte   Gs0
 .byte   W12
 .byte   As0
 .byte   W12
 .byte   N06 ,As1
 .byte   W06
 .byte   As0
 .byte   W06
 .byte   Fn1
 .byte   W06
 .byte   Dn1
 .byte   W06
 .byte   As0
 .byte   W06
 .byte   Fn0
 .byte   W06
@  #02 @064   ----------------------------------------
 .byte   N18 ,Cn1
 .byte   W18
 .byte   N12
 .byte   W12
 .byte   N06 ,Gn0
 .byte   W06
 .byte   Cn1
 .byte   W06
 .byte   Gn0
 .byte   W06
 .byte   N12 ,Cn1
 .byte   W12
 .byte   Cn1
 .byte   W12
 .byte   N06
 .byte   W06
 .byte   Gn0
 .byte   W06
 .byte   Cn1
 .byte   W06
 .byte   Gn0
 .byte   W06
@  #02 @065   ----------------------------------------
 .byte   N12 ,As0
 .byte   W12
 .byte   As0
 .byte   W12
 .byte   N06
 .byte   W06
 .byte   Fn1
 .byte   W06
 .byte   As1
 .byte   W06
 .byte   As0
 .byte   W06
 .byte   N12
 .byte   W12
 .byte   As0
 .byte   W12
 .byte   N06
 .byte   W06
 .byte   As1
 .byte   W06
 .byte   As0
 .byte   W06
 .byte   As1
 .byte   W06
@  #02 @066   ----------------------------------------
 .byte   N12 ,An0
 .byte   W12
 .byte   N06
 .byte   W06
 .byte   N12 ,An1
 .byte   W12
 .byte   N06 ,An0
 .byte   W06
 .byte   En1
 .byte   W06
 .byte   An1
 .byte   W06
 .byte   N12 ,An0
 .byte   W12
 .byte   An0
 .byte   W12
 .byte   N06
 .byte   W06
 .byte   An1
 .byte   W06
 .byte   An0
 .byte   W06
 .byte   An1
 .byte   W06
@  #02 @067   ----------------------------------------
 .byte   N12 ,Gs0
 .byte   W12
 .byte   N06
 .byte   W06
 .byte   N12 ,Gs1
 .byte   W12
 .byte   N06 ,Gs0
 .byte   W06
 .byte   Ds1
 .byte   W06
 .byte   Gs1
 .byte   W06
 .byte   N12 ,As0
 .byte   W12
 .byte   N06
 .byte   W06
 .byte   N12 ,As1
 .byte   W12
 .byte   N06 ,As0
 .byte   W06
 .byte   Fn1
 .byte   W06
 .byte   As1
 .byte   W06
@  #02 @068   ----------------------------------------
 .byte   N12 ,Cs1
 .byte   W18
 .byte   Gs1
 .byte   W18
 .byte   N09 ,Cs2
 .byte   W12
 .byte   N18 ,Cs1
 .byte   W18
 .byte   Gs1
 .byte   W18
 .byte   N09 ,Cs1
 .byte   W12
@  #02 @069   ----------------------------------------
 .byte   N12 ,Cn1
 .byte   W18
 .byte   Gn1
 .byte   W18
 .byte   N09 ,Cn2
 .byte   W12
 .byte   N18 ,Gn1
 .byte   W18
 .byte   Cn2
 .byte   W18
 .byte   N09 ,Cn1
 .byte   W12
@  #02 @070   ----------------------------------------
 .byte   N12 ,Cs1
 .byte   W18
 .byte   Gs1
 .byte   W18
 .byte   N09 ,Cs2
 .byte   W12
 .byte   N18 ,Cs1
 .byte   W18
 .byte   Gs1
 .byte   W18
 .byte   N09 ,Cs1
 .byte   W12
@  #02 @071   ----------------------------------------
 .byte   N12 ,Cn1
 .byte   W18
 .byte   Gn1
 .byte   W18
 .byte   N09 ,Cn2
 .byte   W12
 .byte   N18 ,Gn1
 .byte   W18
 .byte   Cn2
 .byte   W18
 .byte   N09 ,Cn1
 .byte   W12
@  #02 @072   ----------------------------------------
 .byte   N18 ,Cs1
 .byte   W18
 .byte   N12
 .byte   W12
 .byte   N06 ,Gs0
 .byte   W06
 .byte   Cs1
 .byte   W06
 .byte   Gs0
 .byte   W06
 .byte   N18 ,Cs1
 .byte   W18
 .byte   N12
 .byte   W12
 .byte   N06 ,Gs0
 .byte   W06
 .byte   Cs1
 .byte   W06
 .byte   Gs0
 .byte   W06
@  #02 @073   ----------------------------------------
 .byte   N18 ,Cn1
 .byte   W18
 .byte   N12
 .byte   W12
 .byte   N06 ,Gn0
 .byte   W06
 .byte   Cn1
 .byte   W06
 .byte   Gn0
 .byte   W06
 .byte   N18 ,Cn1
 .byte   W18
 .byte   N12
 .byte   W12
 .byte   N06 ,Cn2
 .byte   W06
 .byte   Gn1
 .byte   W06
 .byte   Cn1
 .byte   W06
@  #02 @074   ----------------------------------------
 .byte   N18 ,Cs1
 .byte   W18
 .byte   N12
 .byte   W12
 .byte   N06 ,Gs0
 .byte   W06
 .byte   Cs1
 .byte   W06
 .byte   Gs0
 .byte   W06
 .byte   N18 ,Cs1
 .byte   W18
 .byte   N12
 .byte   W12
 .byte   N06 ,Gs0
 .byte   W06
 .byte   Cs1
 .byte   W06
 .byte   Gs0
 .byte   W06
@  #02 @075   ----------------------------------------
 .byte   N18 ,Cn1
 .byte   W18
 .byte   N12
 .byte   W12
 .byte   N06 ,Gn0
 .byte   W06
 .byte   Cn1
 .byte   W06
 .byte   Gn0
 .byte   W06
 .byte   N18 ,Cn1
 .byte   W18
 .byte   N12
 .byte   W12
 .byte   N06 ,Cn2
 .byte   W06
 .byte   Gn1
 .byte   W06
 .byte   Cn1
 .byte   W06
@  #02 @076   ----------------------------------------
 .byte   Gs0
 .byte   W06
 .byte   Gs0
 .byte   W06
 .byte   Gs0
 .byte   W06
 .byte   N12
 .byte   W12
 .byte   N06
 .byte   W06
 .byte   Gs1
 .byte   W06
 .byte   Gs0
 .byte   W06
 .byte   As0
 .byte   W06
 .byte   As0
 .byte   W06
 .byte   As0
 .byte   W06
 .byte   N12
 .byte   W12
 .byte   N06
 .byte   W06
 .byte   As1
 .byte   W06
 .byte   As0
 .byte   W06
@  #02 @077   ----------------------------------------
 .byte   Cn1
 .byte   W06
 .byte   Cn1
 .byte   W06
 .byte   Cn1
 .byte   W06
 .byte   N12
 .byte   W12
 .byte   N06
 .byte   W06
 .byte   Gn0
 .byte   W06
 .byte   Cn1
 .byte   W06
 .byte   Cn1
 .byte   W06
 .byte   Cn1
 .byte   W06
 .byte   Cn1
 .byte   W06
 .byte   N12
 .byte   W12
 .byte   N06 ,Gn1
 .byte   W06
 .byte   Cn2
 .byte   W06
 .byte   Cn1
 .byte   W06
@  #02 @078   ----------------------------------------
 .byte   Gs0
 .byte   W06
 .byte   Gs0
 .byte   W06
 .byte   Gs0
 .byte   W06
 .byte   N12
 .byte   W12
 .byte   N06
 .byte   W06
 .byte   Gs1
 .byte   W06
 .byte   Gs0
 .byte   W06
 .byte   As0
 .byte   W06
 .byte   As0
 .byte   W06
 .byte   As0
 .byte   W06
 .byte   N12
 .byte   W12
 .byte   N06
 .byte   W06
 .byte   As1
 .byte   W06
 .byte   As0
 .byte   W06
@  #02 @079   ----------------------------------------
 .byte   Cn1
 .byte   W06
 .byte   Cn1
 .byte   W06
 .byte   Cn1
 .byte   W06
 .byte   N12
 .byte   W12
 .byte   N06
 .byte   W06
 .byte   Gn0
 .byte   W06
 .byte   Cn1
 .byte   W06
 .byte   Cn1
 .byte   W06
 .byte   Cn1
 .byte   W06
 .byte   Cn1
 .byte   W06
 .byte   N12
 .byte   W12
 .byte   N06 ,Gn1
 .byte   W06
 .byte   Cn2
 .byte   W06
 .byte   Cn1
 .byte   W06
@  #02 @080   ----------------------------------------
 .byte   Gs0
 .byte   W06
 .byte   Gs0
 .byte   W06
 .byte   Gs0
 .byte   W06
 .byte   N12
 .byte   W12
 .byte   N06
 .byte   W06
 .byte   Gs1
 .byte   W06
 .byte   Gs0
 .byte   W06
 .byte   As0
 .byte   W06
 .byte   As0
 .byte   W06
 .byte   As0
 .byte   W06
 .byte   N12
 .byte   W12
 .byte   N06
 .byte   W06
 .byte   As1
 .byte   W06
 .byte   As0
 .byte   W06
@  #02 @081   ----------------------------------------
 .byte   Cn1
 .byte   W06
 .byte   Cn1
 .byte   W06
 .byte   Cn1
 .byte   W06
 .byte   N12
 .byte   W12
 .byte   N06
 .byte   W06
 .byte   Gn0
 .byte   W06
 .byte   Cn1
 .byte   W06
 .byte   Cn1
 .byte   W06
 .byte   Cn1
 .byte   W06
 .byte   Cn1
 .byte   W06
 .byte   N12
 .byte   W12
 .byte   N06 ,Gn1
 .byte   W06
 .byte   Cn2
 .byte   W06
 .byte   Cn1
 .byte   W06
@  #02 @082   ----------------------------------------
 .byte   Gs0
 .byte   W06
 .byte   Gs0
 .byte   W06
 .byte   Gs0
 .byte   W06
 .byte   N12
 .byte   W12
 .byte   N06
 .byte   W06
 .byte   Gs1
 .byte   W06
 .byte   Gs0
 .byte   W06
 .byte   As0
 .byte   W06
 .byte   As0
 .byte   W06
 .byte   As0
 .byte   W06
 .byte   N12
 .byte   W12
 .byte   N06
 .byte   W06
 .byte   As1
 .byte   W06
 .byte   As0
 .byte   W06
@  #02 @083   ----------------------------------------
 .byte   Cn1
 .byte   W06
 .byte   Cn1
 .byte   W06
 .byte   Cn1
 .byte   W06
 .byte   N12
 .byte   W12
 .byte   N06
 .byte   W06
 .byte   Gn0
 .byte   W06
 .byte   Cn1
 .byte   W06
 .byte   Cn1
 .byte   W06
 .byte   Cn1
 .byte   W06
 .byte   Cn1
 .byte   W06
 .byte   N12
 .byte   W12
 .byte   N06 ,Gn1
 .byte   W06
 .byte   Cn2
 .byte   W06
 .byte   Cn1
 .byte   W06
@  #02 @084   ----------------------------------------
 .byte   VOL , 67*ToadstoolTourSkinsMatch_mvl/mxv
 .byte   PAN , c_v-1
 .byte   N12 ,Cn1 ,v102
 .byte   W03
 .byte   VOL , 65*ToadstoolTourSkinsMatch_mvl/mxv
 .byte   W03
 .byte   VOL , 63*ToadstoolTourSkinsMatch_mvl/mxv
 .byte   W03
 .byte   VOL , 62*ToadstoolTourSkinsMatch_mvl/mxv
 .byte   W01
 .byte   N12 ,Cn1 ,v102
 .byte   W01
 .byte   VOL , 60*ToadstoolTourSkinsMatch_mvl/mxv
 .byte   W03
 .byte   VOL , 59*ToadstoolTourSkinsMatch_mvl/mxv
 .byte   W03
 .byte   VOL , 57*ToadstoolTourSkinsMatch_mvl/mxv
 .byte   W03
 .byte   VOL , 56*ToadstoolTourSkinsMatch_mvl/mxv
 .byte   N12 ,Cn1 ,v102
 .byte   W03
 .byte   VOL , 54*ToadstoolTourSkinsMatch_mvl/mxv
 .byte   W03
 .byte   VOL , 53*ToadstoolTourSkinsMatch_mvl/mxv
 .byte   W03
 .byte   VOL , 52*ToadstoolTourSkinsMatch_mvl/mxv
 .byte   W02
 .byte   N12 ,Cn1 ,v102
 .byte   W01
 .byte   VOL , 50*ToadstoolTourSkinsMatch_mvl/mxv
 .byte   W03
 .byte   VOL , 49*ToadstoolTourSkinsMatch_mvl/mxv
 .byte   W03
 .byte   VOL , 47*ToadstoolTourSkinsMatch_mvl/mxv
 .byte   W03
 .byte   VOL , 46*ToadstoolTourSkinsMatch_mvl/mxv
 .byte   N12 ,Cn1 ,v102
 .byte   W02
 .byte   VOL , 44*ToadstoolTourSkinsMatch_mvl/mxv
 .byte   W03
 .byte   VOL , 43*ToadstoolTourSkinsMatch_mvl/mxv
 .byte   W03
 .byte   VOL , 42*ToadstoolTourSkinsMatch_mvl/mxv
 .byte   W02
 .byte   N12 ,Cn1 ,v102
 .byte   W01
 .byte   VOL , 40*ToadstoolTourSkinsMatch_mvl/mxv
 .byte   W03
 .byte   VOL , 39*ToadstoolTourSkinsMatch_mvl/mxv
 .byte   W03
 .byte   VOL , 38*ToadstoolTourSkinsMatch_mvl/mxv
 .byte   W03
 .byte   VOL , 36*ToadstoolTourSkinsMatch_mvl/mxv
 .byte   N12 ,Cn1 ,v102
 .byte   W02
 .byte   VOL , 35*ToadstoolTourSkinsMatch_mvl/mxv
 .byte   W03
 .byte   VOL , 34*ToadstoolTourSkinsMatch_mvl/mxv
 .byte   W03
 .byte   VOL , 32*ToadstoolTourSkinsMatch_mvl/mxv
 .byte   W02
 .byte   N12 ,Cn1 ,v102
 .byte   VOL , 31*ToadstoolTourSkinsMatch_mvl/mxv
 .byte   W03
 .byte   VOL , 30*ToadstoolTourSkinsMatch_mvl/mxv
 .byte   W03
 .byte   VOL , 28*ToadstoolTourSkinsMatch_mvl/mxv
 .byte   W03
 .byte   VOL , 27*ToadstoolTourSkinsMatch_mvl/mxv
 .byte   W01
 .byte   N12 ,As0 ,v102
 .byte   W02
 .byte   VOL , 26*ToadstoolTourSkinsMatch_mvl/mxv
 .byte   W03
 .byte   VOL , 25*ToadstoolTourSkinsMatch_mvl/mxv
 .byte   W03
 .byte   VOL , 23*ToadstoolTourSkinsMatch_mvl/mxv
 .byte   W02
 .byte   N12 ,As0 ,v102
 .byte   VOL , 22*ToadstoolTourSkinsMatch_mvl/mxv
 .byte   W03
 .byte   VOL , 21*ToadstoolTourSkinsMatch_mvl/mxv
 .byte   W03
@  #02 @085   ----------------------------------------
 .byte   VOL , 20*ToadstoolTourSkinsMatch_mvl/mxv
 .byte   W03
 .byte   VOL , 18*ToadstoolTourSkinsMatch_mvl/mxv
 .byte   W01
 .byte   N12 ,As0 ,v102
 .byte   W02
 .byte   VOL , 17*ToadstoolTourSkinsMatch_mvl/mxv
 .byte   W03
 .byte   VOL , 16*ToadstoolTourSkinsMatch_mvl/mxv
 .byte   W03
 .byte   VOL , 15*ToadstoolTourSkinsMatch_mvl/mxv
 .byte   W03
 .byte   N12 ,As0 ,v102
 .byte   VOL , 15*ToadstoolTourSkinsMatch_mvl/mxv
 .byte   W03
 .byte   VOL , 15*ToadstoolTourSkinsMatch_mvl/mxv
 .byte   W03
 .byte   VOL , 15*ToadstoolTourSkinsMatch_mvl/mxv
 .byte   W03
 .byte   VOL , 15*ToadstoolTourSkinsMatch_mvl/mxv
 .byte   W01
 .byte   N12 ,As0 ,v102
 .byte   W01
 .byte   VOL , 15*ToadstoolTourSkinsMatch_mvl/mxv
 .byte   W03
 .byte   VOL , 15*ToadstoolTourSkinsMatch_mvl/mxv
 .byte   W03
 .byte   VOL , 15*ToadstoolTourSkinsMatch_mvl/mxv
 .byte   W03
 .byte   VOL , 15*ToadstoolTourSkinsMatch_mvl/mxv
 .byte   N12 ,As0 ,v102
 .byte   W03
 .byte   VOL , 15*ToadstoolTourSkinsMatch_mvl/mxv
 .byte   W03
 .byte   VOL , 15*ToadstoolTourSkinsMatch_mvl/mxv
 .byte   W03
 .byte   VOL , 15*ToadstoolTourSkinsMatch_mvl/mxv
 .byte   W01
 .byte   N12 ,As0 ,v102
 .byte   W01
 .byte   VOL , 15*ToadstoolTourSkinsMatch_mvl/mxv
 .byte   W03
 .byte   VOL , 15*ToadstoolTourSkinsMatch_mvl/mxv
 .byte   W03
 .byte   VOL , 15*ToadstoolTourSkinsMatch_mvl/mxv
 .byte   W03
 .byte   VOL , 15*ToadstoolTourSkinsMatch_mvl/mxv
 .byte   N12 ,As0 ,v102
 .byte   W03
 .byte   VOL , 15*ToadstoolTourSkinsMatch_mvl/mxv
 .byte   W03
 .byte   VOL , 15*ToadstoolTourSkinsMatch_mvl/mxv
 .byte   W03
 .byte   VOL , 15*ToadstoolTourSkinsMatch_mvl/mxv
 .byte   W02
 .byte   N12 ,An0 ,v102
 .byte   W01
 .byte   VOL , 15*ToadstoolTourSkinsMatch_mvl/mxv
 .byte   W03
 .byte   VOL , 15*ToadstoolTourSkinsMatch_mvl/mxv
 .byte   W03
 .byte   VOL , 15*ToadstoolTourSkinsMatch_mvl/mxv
 .byte   W03
 .byte   VOL , 15*ToadstoolTourSkinsMatch_mvl/mxv
 .byte   N12 ,An0 ,v102
 .byte   W02
 .byte   VOL , 15*ToadstoolTourSkinsMatch_mvl/mxv
 .byte   W03
 .byte   VOL , 15*ToadstoolTourSkinsMatch_mvl/mxv
 .byte   W03
 .byte   VOL , 15*ToadstoolTourSkinsMatch_mvl/mxv
 .byte   W02
 .byte   N12 ,An0 ,v102
 .byte   W01
 .byte   VOL , 15*ToadstoolTourSkinsMatch_mvl/mxv
 .byte   W03
 .byte   VOL , 15*ToadstoolTourSkinsMatch_mvl/mxv
 .byte   W03
 .byte   VOL , 15*ToadstoolTourSkinsMatch_mvl/mxv
 .byte   W03
@  #02 @086   ----------------------------------------
 .byte   VOL , 15*ToadstoolTourSkinsMatch_mvl/mxv
 .byte   N12 ,An0 ,v102
 .byte   W02
 .byte   VOL , 15*ToadstoolTourSkinsMatch_mvl/mxv
 .byte   W03
 .byte   VOL , 15*ToadstoolTourSkinsMatch_mvl/mxv
 .byte   W03
 .byte   VOL , 15*ToadstoolTourSkinsMatch_mvl/mxv
 .byte   W02
 .byte   N12 ,An0 ,v102
 .byte   VOL , 15*ToadstoolTourSkinsMatch_mvl/mxv
 .byte   W03
 .byte   VOL , 15*ToadstoolTourSkinsMatch_mvl/mxv
 .byte   W03
 .byte   VOL , 15*ToadstoolTourSkinsMatch_mvl/mxv
 .byte   W03
 .byte   VOL , 15*ToadstoolTourSkinsMatch_mvl/mxv
 .byte   W01
 .byte   N12 ,An0 ,v102
 .byte   W02
 .byte   VOL , 15*ToadstoolTourSkinsMatch_mvl/mxv
 .byte   W03
 .byte   VOL , 15*ToadstoolTourSkinsMatch_mvl/mxv
 .byte   W03
 .byte   VOL , 15*ToadstoolTourSkinsMatch_mvl/mxv
 .byte   W02
 .byte   N12 ,An0 ,v102
 .byte   VOL , 15*ToadstoolTourSkinsMatch_mvl/mxv
 .byte   W03
 .byte   VOL , 15*ToadstoolTourSkinsMatch_mvl/mxv
 .byte   W03
 .byte   VOL , 15*ToadstoolTourSkinsMatch_mvl/mxv
 .byte   W03
 .byte   VOL , 15*ToadstoolTourSkinsMatch_mvl/mxv
 .byte   W01
 .byte   N12 ,An0 ,v102
 .byte   W02
 .byte   VOL , 15*ToadstoolTourSkinsMatch_mvl/mxv
 .byte   W03
 .byte   VOL , 15*ToadstoolTourSkinsMatch_mvl/mxv
 .byte   W03
 .byte   VOL , 15*ToadstoolTourSkinsMatch_mvl/mxv
 .byte   W03
 .byte   N12 ,Gs0 ,v102
 .byte   VOL , 15*ToadstoolTourSkinsMatch_mvl/mxv
 .byte   W03
 .byte   VOL , 15*ToadstoolTourSkinsMatch_mvl/mxv
 .byte   W03
 .byte   VOL , 15*ToadstoolTourSkinsMatch_mvl/mxv
 .byte   W03
 .byte   VOL , 15*ToadstoolTourSkinsMatch_mvl/mxv
 .byte   W01
 .byte   N12 ,Gs0 ,v102
 .byte   W01
 .byte   VOL , 15*ToadstoolTourSkinsMatch_mvl/mxv
 .byte   W03
 .byte   VOL , 15*ToadstoolTourSkinsMatch_mvl/mxv
 .byte   W03
 .byte   VOL , 15*ToadstoolTourSkinsMatch_mvl/mxv
 .byte   W03
 .byte   VOL , 15*ToadstoolTourSkinsMatch_mvl/mxv
 .byte   N12 ,Gs0 ,v102
 .byte   W03
 .byte   VOL , 15*ToadstoolTourSkinsMatch_mvl/mxv
 .byte   W03
 .byte   VOL , 15*ToadstoolTourSkinsMatch_mvl/mxv
 .byte   W03
 .byte   VOL , 15*ToadstoolTourSkinsMatch_mvl/mxv
 .byte   W01
 .byte   N12 ,Gs0 ,v102
 .byte   W01
 .byte   VOL , 15*ToadstoolTourSkinsMatch_mvl/mxv
 .byte   W03
 .byte   VOL , 15*ToadstoolTourSkinsMatch_mvl/mxv
 .byte   W03
 .byte   VOL , 15*ToadstoolTourSkinsMatch_mvl/mxv
 .byte   W03
 .byte   VOL , 15*ToadstoolTourSkinsMatch_mvl/mxv
 .byte   N12 ,As0 ,v102
 .byte   W03
 .byte   VOL , 15*ToadstoolTourSkinsMatch_mvl/mxv
 .byte   W03
@  #02 @087   ----------------------------------------
 .byte   VOL , 15*ToadstoolTourSkinsMatch_mvl/mxv
 .byte   W03
 .byte   VOL , 15*ToadstoolTourSkinsMatch_mvl/mxv
 .byte   W02
 .byte   N06 ,As1 ,v102
 .byte   W01
 .byte   VOL , 15*ToadstoolTourSkinsMatch_mvl/mxv
 .byte   W03
 .byte   VOL , 15*ToadstoolTourSkinsMatch_mvl/mxv
 .byte   W01
 .byte   N06 ,As0 ,v102
 .byte   W02
 .byte   VOL , 15*ToadstoolTourSkinsMatch_mvl/mxv
 .byte   W03
 .byte   VOL , 15*ToadstoolTourSkinsMatch_mvl/mxv
 .byte   N06 ,Fn1 ,v102
 .byte   W02
 .byte   VOL , 15*ToadstoolTourSkinsMatch_mvl/mxv
 .byte   W03
 .byte   N06 ,Dn1 ,v102
 .byte   VOL , 15*ToadstoolTourSkinsMatch_mvl/mxv
 .byte   W03
 .byte   VOL , 15*ToadstoolTourSkinsMatch_mvl/mxv
 .byte   W02
 .byte   N06 ,As0 ,v102
 .byte   W01
 .byte   VOL , 15*ToadstoolTourSkinsMatch_mvl/mxv
 .byte   W03
 .byte   VOL , 15*ToadstoolTourSkinsMatch_mvl/mxv
 .byte   W01
 .byte   N06 ,Fn0 ,v102
 .byte   W01
 .byte   VOL , 15*ToadstoolTourSkinsMatch_mvl/mxv
 .byte   W04
 .byte   FINE

@**************** Track 3 (Midi-Chn.2) ****************@

ToadstoolTourSkinsMatch_003:
@  #03 @000   ----------------------------------------
Label_014D2650:
 .byte   TEMPO , 118*ToadstoolTourSkinsMatch_tbs/2
 .byte   KEYSH , ToadstoolTourSkinsMatch_key+0
 .byte   VOICE , 63
 .byte   VOL , 42*ToadstoolTourSkinsMatch_mvl/mxv
 .byte   PAN , c_v+23
 .byte   W06
 .byte   N18 ,En3 ,v102
 .byte   W18
 .byte   N06 ,Fs3
 .byte   W12
 .byte   Gn3
 .byte   W12
 .byte   An3
 .byte   W06
 .byte   N24 ,Bn3
 .byte   W24
 .byte   Dn3
 .byte   W24
@  #03 @001   ----------------------------------------
Label_014D266B:
 .byte   N24 ,Cn3 ,v102
 .byte   W24
 .byte   N06 ,Bn2
 .byte   W06
 .byte   Cn3
 .byte   W06
 .byte   Bn2
 .byte   W06
 .byte   An2
 .byte   W06
 .byte   N48 ,Bn2
 .byte   W48
 .byte   PEND 
@  #03 @002   ----------------------------------------
Label_014D267C:
 .byte   N18 ,Cn3 ,v102
 .byte   W18
 .byte   Dn3
 .byte   W18
 .byte   N12 ,En3
 .byte   W12
 .byte   N24 ,Dn3
 .byte   W24
 .byte   Fs3
 .byte   W24
 .byte   PEND 
@  #03 @003   ----------------------------------------
Label_014D268B:
 .byte   N18 ,Gn3 ,v102
 .byte   W18
 .byte   Ds3
 .byte   W18
 .byte   N12 ,Gn3
 .byte   W12
 .byte   N48 ,Fn3
 .byte   W48
 .byte   PEND 
@  #03 @004   ----------------------------------------
Label_014D2698:
 .byte   N18 ,Gn3 ,v102
 .byte   W18
 .byte   N30 ,Dn3
 .byte   W30
 .byte   N24
 .byte   W24
 .byte   Cn3
 .byte   W24
 .byte   PEND 
@  #03 @005   ----------------------------------------
Label_014D26A4:
 .byte   N30 ,Cn3 ,v102
 .byte   W30
 .byte   N06 ,Dn3
 .byte   W06
 .byte   Ds3
 .byte   W06
 .byte   Gn3
 .byte   W06
 .byte   N48 ,Fn3
 .byte   W48
 .byte   PEND 
@  #03 @006   ----------------------------------------
Label_014D26B3:
 .byte   N30 ,Gn3 ,v102
 .byte   W30
 .byte   N06 ,Fn3
 .byte   W06
 .byte   En3
 .byte   W06
 .byte   Fn3
 .byte   W06
 .byte   N18 ,Dn3
 .byte   W18
 .byte   En3
 .byte   W18
 .byte   N12 ,Fn3
 .byte   W12
 .byte   PEND 
@  #03 @007   ----------------------------------------
 .byte   N18 ,Ds3 ,v102
 .byte   W18
 .byte   Cn3
 .byte   W18
 .byte   N12 ,Gn3
 .byte   W12
 .byte   N24 ,Fn3
 .byte   W24
 .byte   As3
 .byte   W24
@  #03 @008   ----------------------------------------
 .byte   N18 ,En3
 .byte   W18
 .byte   N06 ,Fs3
 .byte   W12
 .byte   Gn3
 .byte   W12
 .byte   An3
 .byte   W06
 .byte   N24 ,Bn3
 .byte   W24
 .byte   Dn3
 .byte   W24
@  #03 @009   ----------------------------------------
 .byte   PATT
  .word Label_014D266B
@  #03 @010   ----------------------------------------
 .byte   PATT
  .word Label_014D267C
@  #03 @011   ----------------------------------------
 .byte   PATT
  .word Label_014D268B
@  #03 @012   ----------------------------------------
 .byte   PATT
  .word Label_014D2698
@  #03 @013   ----------------------------------------
 .byte   PATT
  .word Label_014D26A4
@  #03 @014   ----------------------------------------
 .byte   PATT
  .word Label_014D26B3
@  #03 @015   ----------------------------------------
 .byte   N18 ,Ds3 ,v102
 .byte   W18
 .byte   Cn3
 .byte   W18
 .byte   N12 ,Gn3
 .byte   W12
 .byte   N24 ,Fn3
 .byte   W24
 .byte   As3
 .byte   W18
 .byte   GOTO
  .word Label_014D2650
@  #03 @016   ----------------------------------------
 .byte   W06
Label_014D2716:
 .byte   N18 ,Gn2 ,v102
 .byte   N18 ,Cn3
 .byte   N18 ,En3
 .byte   W18
 .byte   N06 ,Gn2
 .byte   N06 ,Cn3
 .byte   N06 ,Dn3
 .byte   W12
 .byte   Gn2
 .byte   N06 ,Cn3
 .byte   N06 ,En3
 .byte   W12
 .byte   Gn2
 .byte   N06 ,Cn3
 .byte   N06 ,Fn3
 .byte   W12
 .byte   Gn2
 .byte   N06 ,Cn3
 .byte   N06 ,Fn3
 .byte   W12
 .byte   Gn2
 .byte   N06 ,Cn3
 .byte   N06 ,En3
 .byte   W06
 .byte   N12 ,Gn2
 .byte   N12 ,Cn3
 .byte   N12 ,Dn3
 .byte   W12
 .byte   Gn2
 .byte   N12 ,Cn3
 .byte   N12 ,En3
 .byte   W12
 .byte   PEND 
@  #03 @017   ----------------------------------------
 .byte   PATT
  .word Label_014D2716
@  #03 @018   ----------------------------------------
 .byte   PATT
  .word Label_014D2716
@  #03 @019   ----------------------------------------
Label_014D2755:
 .byte   N18 ,Gs2 ,v102
 .byte   N18 ,Cn3
 .byte   N18 ,En3
 .byte   W18
 .byte   N06 ,Gs2
 .byte   N06 ,Cn3
 .byte   N06 ,Dn3
 .byte   W12
 .byte   Gs2
 .byte   N06 ,Cn3
 .byte   N06 ,En3
 .byte   W12
 .byte   Dn3
 .byte   N06 ,As2
 .byte   N06 ,Fn3
 .byte   W12
 .byte   Dn3
 .byte   N06 ,As2
 .byte   N06 ,Fn3
 .byte   W12
 .byte   Dn3
 .byte   N06 ,As2
 .byte   N06 ,En3
 .byte   W06
 .byte   N12 ,As2
 .byte   N12 ,Dn3
 .byte   W12
 .byte   Dn3
 .byte   N12 ,As2
 .byte   N12 ,En3
 .byte   W12
 .byte   PEND 
@  #03 @020   ----------------------------------------
 .byte   PATT
  .word Label_014D2716
@  #03 @021   ----------------------------------------
 .byte   PATT
  .word Label_014D2716
@  #03 @022   ----------------------------------------
 .byte   PATT
  .word Label_014D2716
@  #03 @023   ----------------------------------------
 .byte   PATT
  .word Label_014D2755
@  #03 @024   ----------------------------------------
Label_014D279C:
 .byte   N06 ,Ds3 ,v102
 .byte   W12
 .byte   Cn3
 .byte   W06
 .byte   Fn3
 .byte   W12
 .byte   Cn3
 .byte   W12
 .byte   Ds3
 .byte   W12
 .byte   Ds3
 .byte   W12
 .byte   Cn3
 .byte   W06
 .byte   Fn3
 .byte   W12
 .byte   Cn3
 .byte   W12
 .byte   PEND 
@  #03 @025   ----------------------------------------
Label_014D27B1:
 .byte   N06 ,En3 ,v102
 .byte   W12
 .byte   Cn3
 .byte   W06
 .byte   Gn2
 .byte   W12
 .byte   Cn3
 .byte   W12
 .byte   En3
 .byte   W12
 .byte   En3
 .byte   W12
 .byte   Cn3
 .byte   W06
 .byte   Gn3
 .byte   W06
 .byte   Gn2
 .byte   W06
 .byte   Cn3
 .byte   W06
 .byte   Gn2
 .byte   W06
 .byte   PEND 
@  #03 @026   ----------------------------------------
 .byte   PATT
  .word Label_014D279C
@  #03 @027   ----------------------------------------
 .byte   PATT
  .word Label_014D27B1
@  #03 @028   ----------------------------------------
 .byte   PATT
  .word Label_014D279C
@  #03 @029   ----------------------------------------
 .byte   PATT
  .word Label_014D27B1
@  #03 @030   ----------------------------------------
 .byte   PATT
  .word Label_014D279C
@  #03 @031   ----------------------------------------
 .byte   PATT
  .word Label_014D27B1
@  #03 @032   ----------------------------------------
Label_014D27E8:
 .byte   N18 ,Cn4 ,v102
 .byte   W18
 .byte   Ds4
 .byte   W18
 .byte   N12 ,Gn4
 .byte   W12
 .byte   N24 ,Fn4
 .byte   W24
 .byte   N06 ,Ds4
 .byte   W06
 .byte   Fn4
 .byte   W06
 .byte   Ds4
 .byte   W06
 .byte   Dn4
 .byte   W06
 .byte   PEND 
@  #03 @033   ----------------------------------------
Label_014D27FE:
 .byte   N48 ,Cn4 ,v102
 .byte   W48
 .byte   Gn4
 .byte   W48
 .byte   PEND 
@  #03 @034   ----------------------------------------
Label_014D2805:
 .byte   N06 ,Fn4 ,v102
 .byte   W12
 .byte   Dn4
 .byte   W12
 .byte   As4
 .byte   W06
 .byte   Fn4
 .byte   W12
 .byte   Dn4
 .byte   W06
 .byte   N18 ,Fn4
 .byte   W18
 .byte   Cn4
 .byte   W18
 .byte   N12 ,An4
 .byte   W12
 .byte   PEND 
@  #03 @035   ----------------------------------------
 .byte   N48 ,Gn4 ,v102
 .byte   W48
 .byte   Dn4
 .byte   W48
@  #03 @036   ----------------------------------------
 .byte   PATT
  .word Label_014D27E8
@  #03 @037   ----------------------------------------
 .byte   PATT
  .word Label_014D27FE
@  #03 @038   ----------------------------------------
 .byte   PATT
  .word Label_014D2805
@  #03 @039   ----------------------------------------
 .byte   N48 ,Gn4 ,v102
 .byte   W48
 .byte   Dn4
 .byte   W48
@  #03 @040   ----------------------------------------
 .byte   VOL , 42*ToadstoolTourSkinsMatch_mvl/mxv
 .byte   PAN , c_v+23
 .byte   N18 ,Gn2 ,v102
 .byte   N18 ,Cn3
 .byte   N18 ,En3
 .byte   W18
 .byte   N06 ,Gn2
 .byte   N06 ,Cn3
 .byte   N06 ,Dn3
 .byte   W12
 .byte   Gn2
 .byte   N06 ,Cn3
 .byte   N06 ,En3
 .byte   W12
 .byte   Gn2
 .byte   N06 ,Cn3
 .byte   N06 ,Fn3
 .byte   W12
 .byte   Gn2
 .byte   N06 ,Cn3
 .byte   N06 ,Fn3
 .byte   W12
 .byte   Gn2
 .byte   N06 ,Cn3
 .byte   N06 ,En3
 .byte   W06
 .byte   N12 ,Gn2
 .byte   N12 ,Cn3
 .byte   N12 ,Dn3
 .byte   W12
 .byte   Gn2
 .byte   N12 ,Cn3
 .byte   N12 ,En3
 .byte   W12
@  #03 @041   ----------------------------------------
 .byte   N18 ,Gn2
 .byte   N18 ,Cn3
 .byte   N18 ,En3
 .byte   W18
 .byte   N06 ,Gn2
 .byte   N06 ,Cn3
 .byte   N06 ,Dn3
 .byte   W12
 .byte   Gn2
 .byte   N06 ,Cn3
 .byte   N06 ,En3
 .byte   W12
 .byte   Gn2
 .byte   N06 ,Cn3
 .byte   N06 ,Fn3
 .byte   W12
 .byte   Gn2
 .byte   N06 ,Cn3
 .byte   N06 ,Fn3
 .byte   W12
 .byte   Gn2
 .byte   N06 ,Cn3
 .byte   N06 ,En3
 .byte   W06
 .byte   N12 ,Gn2
 .byte   N12 ,Cn3
 .byte   N12 ,Dn3
 .byte   W12
 .byte   Gn2
 .byte   N12 ,Cn3
 .byte   N12 ,En3
 .byte   W12
@  #03 @042   ----------------------------------------
 .byte   N18 ,Gn2
 .byte   N18 ,Cn3
 .byte   N18 ,En3
 .byte   W18
 .byte   N06 ,Gn2
 .byte   N06 ,Cn3
 .byte   N06 ,Dn3
 .byte   W12
 .byte   Gn2
 .byte   N06 ,Cn3
 .byte   N06 ,En3
 .byte   W12
 .byte   Gn2
 .byte   N06 ,Cn3
 .byte   N06 ,Fn3
 .byte   W12
 .byte   Gn2
 .byte   N06 ,Cn3
 .byte   N06 ,Fn3
 .byte   W12
 .byte   Gn2
 .byte   N06 ,Cn3
 .byte   N06 ,En3
 .byte   W06
 .byte   N12 ,Gn2
 .byte   N12 ,Cn3
 .byte   N12 ,Dn3
 .byte   W12
 .byte   Gn2
 .byte   N12 ,Cn3
 .byte   N12 ,En3
 .byte   W12
@  #03 @043   ----------------------------------------
 .byte   N18 ,Gs2
 .byte   N18 ,Cn3
 .byte   N18 ,En3
 .byte   W18
 .byte   N06 ,Gs2
 .byte   N06 ,Cn3
 .byte   N06 ,Dn3
 .byte   W12
 .byte   Gs2
 .byte   N06 ,Cn3
 .byte   N06 ,En3
 .byte   W12
 .byte   Dn3
 .byte   N06 ,As2
 .byte   N06 ,Fn3
 .byte   W12
 .byte   Dn3
 .byte   N06 ,As2
 .byte   N06 ,Fn3
 .byte   W12
 .byte   Dn3
 .byte   N06 ,As2
 .byte   N06 ,En3
 .byte   W06
 .byte   N12 ,As2
 .byte   N12 ,Dn3
 .byte   W12
 .byte   Dn3
 .byte   N12 ,As2
 .byte   N12 ,En3
 .byte   W12
@  #03 @044   ----------------------------------------
 .byte   N18
 .byte   W18
 .byte   N06 ,Fs3
 .byte   W12
 .byte   Gn3
 .byte   W12
 .byte   An3
 .byte   W06
 .byte   N24 ,Bn3
 .byte   W24
 .byte   Dn3
 .byte   W24
@  #03 @045   ----------------------------------------
 .byte   Cn3
 .byte   W24
 .byte   N06 ,Bn2
 .byte   W06
 .byte   Cn3
 .byte   W06
 .byte   Bn2
 .byte   W06
 .byte   An2
 .byte   W06
 .byte   N48 ,Bn2
 .byte   W48
@  #03 @046   ----------------------------------------
 .byte   N18 ,Cn3
 .byte   W18
 .byte   Dn3
 .byte   W18
 .byte   N12 ,En3
 .byte   W12
 .byte   N24 ,Dn3
 .byte   W24
 .byte   Fs3
 .byte   W24
@  #03 @047   ----------------------------------------
 .byte   N18 ,Gn3
 .byte   W18
 .byte   Ds3
 .byte   W18
 .byte   N12 ,Gn3
 .byte   W12
 .byte   N48 ,Fn3
 .byte   W48
@  #03 @048   ----------------------------------------
 .byte   N18 ,Gn3
 .byte   W18
 .byte   N30 ,Dn3
 .byte   W30
 .byte   N24
 .byte   W24
 .byte   Cn3
 .byte   W24
@  #03 @049   ----------------------------------------
 .byte   N30
 .byte   W30
 .byte   N06 ,Dn3
 .byte   W06
 .byte   Ds3
 .byte   W06
 .byte   Gn3
 .byte   W06
 .byte   N48 ,Fn3
 .byte   W48
@  #03 @050   ----------------------------------------
 .byte   N30 ,Gn3
 .byte   W30
 .byte   N06 ,Fn3
 .byte   W06
 .byte   En3
 .byte   W06
 .byte   Fn3
 .byte   W06
 .byte   N18 ,Dn3
 .byte   W18
 .byte   En3
 .byte   W18
 .byte   N12 ,Fn3
 .byte   W12
@  #03 @051   ----------------------------------------
 .byte   N18 ,Ds3
 .byte   W18
 .byte   Cn3
 .byte   W18
 .byte   N12 ,Gn3
 .byte   W12
 .byte   N24 ,Fn3
 .byte   W24
 .byte   As3
 .byte   W24
@  #03 @052   ----------------------------------------
 .byte   N18 ,En3
 .byte   W18
 .byte   N06 ,Fs3
 .byte   W12
 .byte   Gn3
 .byte   W12
 .byte   An3
 .byte   W06
 .byte   N24 ,Bn3
 .byte   W24
 .byte   Dn3
 .byte   W24
@  #03 @053   ----------------------------------------
 .byte   Cn3
 .byte   W24
 .byte   N06 ,Bn2
 .byte   W06
 .byte   Cn3
 .byte   W06
 .byte   Bn2
 .byte   W06
 .byte   An2
 .byte   W06
 .byte   N48 ,Bn2
 .byte   W48
@  #03 @054   ----------------------------------------
 .byte   N18 ,Cn3
 .byte   W18
 .byte   Dn3
 .byte   W18
 .byte   N12 ,En3
 .byte   W12
 .byte   N24 ,Dn3
 .byte   W24
 .byte   Fs3
 .byte   W24
@  #03 @055   ----------------------------------------
 .byte   N18 ,Gn3
 .byte   W18
 .byte   Ds3
 .byte   W18
 .byte   N12 ,Gn3
 .byte   W12
 .byte   N48 ,Fn3
 .byte   W48
@  #03 @056   ----------------------------------------
 .byte   N18 ,Gn3
 .byte   W18
 .byte   N30 ,Dn3
 .byte   W30
 .byte   N24
 .byte   W24
 .byte   Cn3
 .byte   W24
@  #03 @057   ----------------------------------------
 .byte   N30
 .byte   W30
 .byte   N06 ,Dn3
 .byte   W06
 .byte   Ds3
 .byte   W06
 .byte   Gn3
 .byte   W06
 .byte   N48 ,Fn3
 .byte   W48
@  #03 @058   ----------------------------------------
 .byte   N30 ,Gn3
 .byte   W30
 .byte   N06 ,Fn3
 .byte   W06
 .byte   En3
 .byte   W06
 .byte   Fn3
 .byte   W06
 .byte   N18 ,Dn3
 .byte   W18
 .byte   En3
 .byte   W18
 .byte   N12 ,Fn3
 .byte   W12
@  #03 @059   ----------------------------------------
 .byte   N18 ,Ds3
 .byte   W18
 .byte   Cn3
 .byte   W18
 .byte   N12 ,Gn3
 .byte   W12
 .byte   N24 ,Fn3
 .byte   W24
 .byte   As3
 .byte   W24
@  #03 @060   ----------------------------------------
 .byte   N18 ,Gn2
 .byte   N18 ,Cn3
 .byte   N18 ,En3
 .byte   W18
 .byte   N06 ,Gn2
 .byte   N06 ,Cn3
 .byte   N06 ,Dn3
 .byte   W12
 .byte   Gn2
 .byte   N06 ,Cn3
 .byte   N06 ,En3
 .byte   W12
 .byte   Gn2
 .byte   N06 ,Cn3
 .byte   N06 ,Fn3
 .byte   W12
 .byte   Gn2
 .byte   N06 ,Cn3
 .byte   N06 ,Fn3
 .byte   W12
 .byte   Gn2
 .byte   N06 ,Cn3
 .byte   N06 ,En3
 .byte   W06
 .byte   N12 ,Gn2
 .byte   N12 ,Cn3
 .byte   N12 ,Dn3
 .byte   W12
 .byte   Gn2
 .byte   N12 ,Cn3
 .byte   N12 ,En3
 .byte   W12
@  #03 @061   ----------------------------------------
 .byte   N18 ,Gn2
 .byte   N18 ,Cn3
 .byte   N18 ,En3
 .byte   W18
 .byte   N06 ,Gn2
 .byte   N06 ,Cn3
 .byte   N06 ,Dn3
 .byte   W12
 .byte   Gn2
 .byte   N06 ,Cn3
 .byte   N06 ,En3
 .byte   W12
 .byte   Gn2
 .byte   N06 ,Cn3
 .byte   N06 ,Fn3
 .byte   W12
 .byte   Gn2
 .byte   N06 ,Cn3
 .byte   N06 ,Fn3
 .byte   W12
 .byte   Gn2
 .byte   N06 ,Cn3
 .byte   N06 ,En3
 .byte   W06
 .byte   N12 ,Gn2
 .byte   N12 ,Cn3
 .byte   N12 ,Dn3
 .byte   W12
 .byte   Gn2
 .byte   N12 ,Cn3
 .byte   N12 ,En3
 .byte   W12
@  #03 @062   ----------------------------------------
 .byte   N18 ,Gn2
 .byte   N18 ,Cn3
 .byte   N18 ,En3
 .byte   W18
 .byte   N06 ,Gn2
 .byte   N06 ,Cn3
 .byte   N06 ,Dn3
 .byte   W12
 .byte   Gn2
 .byte   N06 ,Cn3
 .byte   N06 ,En3
 .byte   W12
 .byte   Gn2
 .byte   N06 ,Cn3
 .byte   N06 ,Fn3
 .byte   W12
 .byte   Gn2
 .byte   N06 ,Cn3
 .byte   N06 ,Fn3
 .byte   W12
 .byte   Gn2
 .byte   N06 ,Cn3
 .byte   N06 ,En3
 .byte   W06
 .byte   N12 ,Gn2
 .byte   N12 ,Cn3
 .byte   N12 ,Dn3
 .byte   W12
 .byte   Gn2
 .byte   N12 ,Cn3
 .byte   N12 ,En3
 .byte   W12
@  #03 @063   ----------------------------------------
 .byte   N18 ,Gs2
 .byte   N18 ,Cn3
 .byte   N18 ,En3
 .byte   W18
 .byte   N06 ,Gs2
 .byte   N06 ,Cn3
 .byte   N06 ,Dn3
 .byte   W12
 .byte   Gs2
 .byte   N06 ,Cn3
 .byte   N06 ,En3
 .byte   W12
 .byte   Dn3
 .byte   N06 ,As2
 .byte   N06 ,Fn3
 .byte   W12
 .byte   Dn3
 .byte   N06 ,As2
 .byte   N06 ,Fn3
 .byte   W12
 .byte   Dn3
 .byte   N06 ,As2
 .byte   N06 ,En3
 .byte   W06
 .byte   N12 ,As2
 .byte   N12 ,Dn3
 .byte   W12
 .byte   Dn3
 .byte   N12 ,As2
 .byte   N12 ,En3
 .byte   W12
@  #03 @064   ----------------------------------------
 .byte   N18 ,Gn2
 .byte   N18 ,Cn3
 .byte   N18 ,En3
 .byte   W18
 .byte   N06 ,Gn2
 .byte   N06 ,Cn3
 .byte   N06 ,Dn3
 .byte   W12
 .byte   Gn2
 .byte   N06 ,Cn3
 .byte   N06 ,En3
 .byte   W12
 .byte   Gn2
 .byte   N06 ,Cn3
 .byte   N06 ,Fn3
 .byte   W12
 .byte   Gn2
 .byte   N06 ,Cn3
 .byte   N06 ,Fn3
 .byte   W12
 .byte   Gn2
 .byte   N06 ,Cn3
 .byte   N06 ,En3
 .byte   W06
 .byte   N12 ,Gn2
 .byte   N12 ,Cn3
 .byte   N12 ,Dn3
 .byte   W12
 .byte   Gn2
 .byte   N12 ,Cn3
 .byte   N12 ,En3
 .byte   W12
@  #03 @065   ----------------------------------------
 .byte   N18 ,Gn2
 .byte   N18 ,Cn3
 .byte   N18 ,En3
 .byte   W18
 .byte   N06 ,Gn2
 .byte   N06 ,Cn3
 .byte   N06 ,Dn3
 .byte   W12
 .byte   Gn2
 .byte   N06 ,Cn3
 .byte   N06 ,En3
 .byte   W12
 .byte   Gn2
 .byte   N06 ,Cn3
 .byte   N06 ,Fn3
 .byte   W12
 .byte   Gn2
 .byte   N06 ,Cn3
 .byte   N06 ,Fn3
 .byte   W12
 .byte   Gn2
 .byte   N06 ,Cn3
 .byte   N06 ,En3
 .byte   W06
 .byte   N12 ,Gn2
 .byte   N12 ,Cn3
 .byte   N12 ,Dn3
 .byte   W12
 .byte   Gn2
 .byte   N12 ,Cn3
 .byte   N12 ,En3
 .byte   W12
@  #03 @066   ----------------------------------------
 .byte   N18 ,Gn2
 .byte   N18 ,Cn3
 .byte   N18 ,En3
 .byte   W18
 .byte   N06 ,Gn2
 .byte   N06 ,Cn3
 .byte   N06 ,Dn3
 .byte   W12
 .byte   Gn2
 .byte   N06 ,Cn3
 .byte   N06 ,En3
 .byte   W12
 .byte   Gn2
 .byte   N06 ,Cn3
 .byte   N06 ,Fn3
 .byte   W12
 .byte   Gn2
 .byte   N06 ,Cn3
 .byte   N06 ,Fn3
 .byte   W12
 .byte   Gn2
 .byte   N06 ,Cn3
 .byte   N06 ,En3
 .byte   W06
 .byte   N12 ,Gn2
 .byte   N12 ,Cn3
 .byte   N12 ,Dn3
 .byte   W12
 .byte   Gn2
 .byte   N12 ,Cn3
 .byte   N12 ,En3
 .byte   W12
@  #03 @067   ----------------------------------------
 .byte   N18 ,Gs2
 .byte   N18 ,Cn3
 .byte   N18 ,En3
 .byte   W18
 .byte   N06 ,Gs2
 .byte   N06 ,Cn3
 .byte   N06 ,Dn3
 .byte   W12
 .byte   Gs2
 .byte   N06 ,Cn3
 .byte   N06 ,En3
 .byte   W12
 .byte   Dn3
 .byte   N06 ,As2
 .byte   N06 ,Fn3
 .byte   W12
 .byte   Dn3
 .byte   N06 ,As2
 .byte   N06 ,Fn3
 .byte   W12
 .byte   Dn3
 .byte   N06 ,As2
 .byte   N06 ,En3
 .byte   W06
 .byte   N12 ,As2
 .byte   N12 ,Dn3
 .byte   W12
 .byte   Dn3
 .byte   N12 ,As2
 .byte   N12 ,En3
 .byte   W12
@  #03 @068   ----------------------------------------
 .byte   N06 ,Ds3
 .byte   W12
 .byte   Cn3
 .byte   W06
 .byte   Fn3
 .byte   W12
 .byte   Cn3
 .byte   W12
 .byte   Ds3
 .byte   W12
 .byte   Ds3
 .byte   W12
 .byte   Cn3
 .byte   W06
 .byte   Fn3
 .byte   W12
 .byte   Cn3
 .byte   W12
@  #03 @069   ----------------------------------------
 .byte   En3
 .byte   W12
 .byte   Cn3
 .byte   W06
 .byte   Gn2
 .byte   W12
 .byte   Cn3
 .byte   W12
 .byte   En3
 .byte   W12
 .byte   En3
 .byte   W12
 .byte   Cn3
 .byte   W06
 .byte   Gn3
 .byte   W06
 .byte   Gn2
 .byte   W06
 .byte   Cn3
 .byte   W06
 .byte   Gn2
 .byte   W06
@  #03 @070   ----------------------------------------
 .byte   Ds3
 .byte   W12
 .byte   Cn3
 .byte   W06
 .byte   Fn3
 .byte   W12
 .byte   Cn3
 .byte   W12
 .byte   Ds3
 .byte   W12
 .byte   Ds3
 .byte   W12
 .byte   Cn3
 .byte   W06
 .byte   Fn3
 .byte   W12
 .byte   Cn3
 .byte   W12
@  #03 @071   ----------------------------------------
 .byte   En3
 .byte   W12
 .byte   Cn3
 .byte   W06
 .byte   Gn2
 .byte   W12
 .byte   Cn3
 .byte   W12
 .byte   En3
 .byte   W12
 .byte   En3
 .byte   W12
 .byte   Cn3
 .byte   W06
 .byte   Gn3
 .byte   W06
 .byte   Gn2
 .byte   W06
 .byte   Cn3
 .byte   W06
 .byte   Gn2
 .byte   W06
@  #03 @072   ----------------------------------------
 .byte   Ds3
 .byte   W12
 .byte   Cn3
 .byte   W06
 .byte   Fn3
 .byte   W12
 .byte   Cn3
 .byte   W12
 .byte   Ds3
 .byte   W12
 .byte   Ds3
 .byte   W12
 .byte   Cn3
 .byte   W06
 .byte   Fn3
 .byte   W12
 .byte   Cn3
 .byte   W12
@  #03 @073   ----------------------------------------
 .byte   En3
 .byte   W12
 .byte   Cn3
 .byte   W06
 .byte   Gn2
 .byte   W12
 .byte   Cn3
 .byte   W12
 .byte   En3
 .byte   W12
 .byte   En3
 .byte   W12
 .byte   Cn3
 .byte   W06
 .byte   Gn3
 .byte   W06
 .byte   Gn2
 .byte   W06
 .byte   Cn3
 .byte   W06
 .byte   Gn2
 .byte   W06
@  #03 @074   ----------------------------------------
 .byte   Ds3
 .byte   W12
 .byte   Cn3
 .byte   W06
 .byte   Fn3
 .byte   W12
 .byte   Cn3
 .byte   W12
 .byte   Ds3
 .byte   W12
 .byte   Ds3
 .byte   W12
 .byte   Cn3
 .byte   W06
 .byte   Fn3
 .byte   W12
 .byte   Cn3
 .byte   W12
@  #03 @075   ----------------------------------------
 .byte   En3
 .byte   W12
 .byte   Cn3
 .byte   W06
 .byte   Gn2
 .byte   W12
 .byte   Cn3
 .byte   W12
 .byte   En3
 .byte   W12
 .byte   En3
 .byte   W12
 .byte   Cn3
 .byte   W06
 .byte   Gn3
 .byte   W06
 .byte   Gn2
 .byte   W06
 .byte   Cn3
 .byte   W06
 .byte   Gn2
 .byte   W06
@  #03 @076   ----------------------------------------
 .byte   N18 ,Cn4
 .byte   W18
 .byte   Ds4
 .byte   W18
 .byte   N12 ,Gn4
 .byte   W12
 .byte   N24 ,Fn4
 .byte   W24
 .byte   N06 ,Ds4
 .byte   W06
 .byte   Fn4
 .byte   W06
 .byte   Ds4
 .byte   W06
 .byte   Dn4
 .byte   W06
@  #03 @077   ----------------------------------------
 .byte   N48 ,Cn4
 .byte   W48
 .byte   Gn4
 .byte   W48
@  #03 @078   ----------------------------------------
 .byte   N06 ,Fn4
 .byte   W12
 .byte   Dn4
 .byte   W12
 .byte   As4
 .byte   W06
 .byte   Fn4
 .byte   W12
 .byte   Dn4
 .byte   W06
 .byte   N18 ,Fn4
 .byte   W18
 .byte   Cn4
 .byte   W18
 .byte   N12 ,An4
 .byte   W12
@  #03 @079   ----------------------------------------
 .byte   N48 ,Gn4
 .byte   W48
 .byte   Dn4
 .byte   W48
@  #03 @080   ----------------------------------------
 .byte   N18 ,Cn4
 .byte   W18
 .byte   Ds4
 .byte   W18
 .byte   N12 ,Gn4
 .byte   W12
 .byte   N24 ,Fn4
 .byte   W24
 .byte   N06 ,Ds4
 .byte   W06
 .byte   Fn4
 .byte   W06
 .byte   Ds4
 .byte   W06
 .byte   Dn4
 .byte   W06
@  #03 @081   ----------------------------------------
 .byte   N48 ,Cn4
 .byte   W48
 .byte   Gn4
 .byte   W48
@  #03 @082   ----------------------------------------
 .byte   N06 ,Fn4
 .byte   W12
 .byte   Dn4
 .byte   W12
 .byte   As4
 .byte   W06
 .byte   Fn4
 .byte   W12
 .byte   Dn4
 .byte   W06
 .byte   N18 ,Fn4
 .byte   W18
 .byte   Cn4
 .byte   W18
 .byte   N12 ,An4
 .byte   W12
@  #03 @083   ----------------------------------------
 .byte   N48 ,Gn4
 .byte   W48
 .byte   Dn4
 .byte   W48
@  #03 @084   ----------------------------------------
 .byte   VOL , 42*ToadstoolTourSkinsMatch_mvl/mxv
 .byte   PAN , c_v+23
 .byte   N18 ,Cn3 ,v102
 .byte   N18 ,En3
 .byte   N18 ,Gn2
 .byte   VOL , 40*ToadstoolTourSkinsMatch_mvl/mxv
 .byte   W04
 .byte   VOL , 39*ToadstoolTourSkinsMatch_mvl/mxv
 .byte   W04
 .byte   VOL , 38*ToadstoolTourSkinsMatch_mvl/mxv
 .byte   W04
 .byte   VOL , 36*ToadstoolTourSkinsMatch_mvl/mxv
 .byte   W04
 .byte   VOL , 35*ToadstoolTourSkinsMatch_mvl/mxv
 .byte   W01
 .byte   N06 ,Cn3 ,v102
 .byte   N06 ,Gn2
 .byte   N06 ,Dn3
 .byte   W02
 .byte   VOL , 34*ToadstoolTourSkinsMatch_mvl/mxv
 .byte   W04
 .byte   VOL , 32*ToadstoolTourSkinsMatch_mvl/mxv
 .byte   W04
 .byte   VOL , 31*ToadstoolTourSkinsMatch_mvl/mxv
 .byte   W01
 .byte   N06 ,En3 ,v102
 .byte   N06 ,Gn2
 .byte   N06 ,Cn3
 .byte   W02
 .byte   VOL , 30*ToadstoolTourSkinsMatch_mvl/mxv
 .byte   W04
 .byte   VOL , 28*ToadstoolTourSkinsMatch_mvl/mxv
 .byte   W04
 .byte   VOL , 27*ToadstoolTourSkinsMatch_mvl/mxv
 .byte   W01
 .byte   N06 ,Cn3 ,v102
 .byte   N06 ,Fn3
 .byte   N06 ,Gn2
 .byte   W02
 .byte   VOL , 26*ToadstoolTourSkinsMatch_mvl/mxv
 .byte   W04
 .byte   VOL , 25*ToadstoolTourSkinsMatch_mvl/mxv
 .byte   W04
 .byte   VOL , 23*ToadstoolTourSkinsMatch_mvl/mxv
 .byte   N06 ,Cn3 ,v102
 .byte   N06 ,Fn3
 .byte   N06 ,Gn2
 .byte   W03
 .byte   VOL , 22*ToadstoolTourSkinsMatch_mvl/mxv
 .byte   W04
 .byte   VOL , 21*ToadstoolTourSkinsMatch_mvl/mxv
 .byte   W04
 .byte   VOL , 20*ToadstoolTourSkinsMatch_mvl/mxv
 .byte   N06 ,En3 ,v102
 .byte   N06 ,Gn2
 .byte   N06 ,Cn3
 .byte   W03
 .byte   VOL , 18*ToadstoolTourSkinsMatch_mvl/mxv
 .byte   W02
 .byte   N12 ,Dn3 ,v102
 .byte   N12 ,Cn3
 .byte   N12 ,Gn2
 .byte   W01
 .byte   VOL , 17*ToadstoolTourSkinsMatch_mvl/mxv
 .byte   W04
 .byte   VOL , 16*ToadstoolTourSkinsMatch_mvl/mxv
 .byte   W04
 .byte   VOL , 15*ToadstoolTourSkinsMatch_mvl/mxv
 .byte   W02
 .byte   N12 ,En3 ,v102
 .byte   N12 ,Gn2
 .byte   N12 ,Cn3
 .byte   W01
 .byte   VOL , 15*ToadstoolTourSkinsMatch_mvl/mxv
 .byte   W04
 .byte   VOL , 15*ToadstoolTourSkinsMatch_mvl/mxv
 .byte   W04
 .byte   VOL , 15*ToadstoolTourSkinsMatch_mvl/mxv
 .byte   W02
 .byte   N18 ,En3 ,v102
 .byte   N18 ,Cn3
 .byte   N18 ,Gn2
 .byte   W01
 .byte   VOL , 15*ToadstoolTourSkinsMatch_mvl/mxv
 .byte   W04
 .byte   VOL , 15*ToadstoolTourSkinsMatch_mvl/mxv
 .byte   W04
@  #03 @085   ----------------------------------------
 .byte   VOL , 15*ToadstoolTourSkinsMatch_mvl/mxv
 .byte   W04
 .byte   VOL , 15*ToadstoolTourSkinsMatch_mvl/mxv
 .byte   W04
 .byte   VOL , 15*ToadstoolTourSkinsMatch_mvl/mxv
 .byte   N06 ,Gn2 ,v102
 .byte   N06 ,Dn3
 .byte   N06 ,Cn3
 .byte   W03
 .byte   VOL , 15*ToadstoolTourSkinsMatch_mvl/mxv
 .byte   W04
 .byte   VOL , 15*ToadstoolTourSkinsMatch_mvl/mxv
 .byte   W04
 .byte   VOL , 15*ToadstoolTourSkinsMatch_mvl/mxv
 .byte   N06 ,Gn2 ,v102
 .byte   N06 ,Cn3
 .byte   N06 ,En3
 .byte   W03
 .byte   VOL , 15*ToadstoolTourSkinsMatch_mvl/mxv
 .byte   W04
 .byte   VOL , 15*ToadstoolTourSkinsMatch_mvl/mxv
 .byte   W04
 .byte   VOL , 15*ToadstoolTourSkinsMatch_mvl/mxv
 .byte   N06 ,Cn3 ,v102
 .byte   N06 ,Gn2
 .byte   N06 ,Fn3
 .byte   W03
 .byte   VOL , 15*ToadstoolTourSkinsMatch_mvl/mxv
 .byte   W04
 .byte   VOL , 15*ToadstoolTourSkinsMatch_mvl/mxv
 .byte   W04
 .byte   VOL , 15*ToadstoolTourSkinsMatch_mvl/mxv
 .byte   N06 ,Gn2 ,v102
 .byte   N06 ,Fn3
 .byte   N06 ,Cn3
 .byte   W03
 .byte   VOL , 15*ToadstoolTourSkinsMatch_mvl/mxv
 .byte   W04
 .byte   VOL , 15*ToadstoolTourSkinsMatch_mvl/mxv
 .byte   W04
 .byte   VOL , 15*ToadstoolTourSkinsMatch_mvl/mxv
 .byte   N06 ,Gn2 ,v102
 .byte   N06 ,Cn3
 .byte   N06 ,En3
 .byte   W03
 .byte   VOL , 15*ToadstoolTourSkinsMatch_mvl/mxv
 .byte   W02
 .byte   N12 ,Cn3 ,v102
 .byte   N12 ,Gn2
 .byte   N12 ,Dn3
 .byte   W01
 .byte   VOL , 15*ToadstoolTourSkinsMatch_mvl/mxv
 .byte   W04
 .byte   VOL , 15*ToadstoolTourSkinsMatch_mvl/mxv
 .byte   W04
 .byte   VOL , 15*ToadstoolTourSkinsMatch_mvl/mxv
 .byte   W02
 .byte   N12 ,Gn2 ,v102
 .byte   N12 ,En3
 .byte   N12 ,Cn3
 .byte   W01
 .byte   VOL , 15*ToadstoolTourSkinsMatch_mvl/mxv
 .byte   W04
 .byte   VOL , 15*ToadstoolTourSkinsMatch_mvl/mxv
 .byte   W04
 .byte   VOL , 15*ToadstoolTourSkinsMatch_mvl/mxv
 .byte   W02
 .byte   N18 ,En3 ,v102
 .byte   N18 ,Gn2
 .byte   N18 ,Cn3
 .byte   W01
 .byte   VOL , 15*ToadstoolTourSkinsMatch_mvl/mxv
 .byte   W04
 .byte   VOL , 15*ToadstoolTourSkinsMatch_mvl/mxv
 .byte   W04
 .byte   VOL , 15*ToadstoolTourSkinsMatch_mvl/mxv
 .byte   W04
 .byte   VOL , 15*ToadstoolTourSkinsMatch_mvl/mxv
 .byte   W04
@  #03 @086   ----------------------------------------
 .byte   VOL , 15*ToadstoolTourSkinsMatch_mvl/mxv
 .byte   N06 ,Cn3 ,v102
 .byte   N06 ,Gn2
 .byte   N06 ,Dn3
 .byte   W03
 .byte   VOL , 15*ToadstoolTourSkinsMatch_mvl/mxv
 .byte   W04
 .byte   VOL , 15*ToadstoolTourSkinsMatch_mvl/mxv
 .byte   W04
 .byte   VOL , 15*ToadstoolTourSkinsMatch_mvl/mxv
 .byte   N06 ,Gn2 ,v102
 .byte   N06 ,En3
 .byte   N06 ,Cn3
 .byte   W03
 .byte   VOL , 15*ToadstoolTourSkinsMatch_mvl/mxv
 .byte   W04
 .byte   VOL , 15*ToadstoolTourSkinsMatch_mvl/mxv
 .byte   W04
 .byte   VOL , 15*ToadstoolTourSkinsMatch_mvl/mxv
 .byte   N06 ,Gn2 ,v102
 .byte   N06 ,Cn3
 .byte   N06 ,Fn3
 .byte   W03
 .byte   VOL , 15*ToadstoolTourSkinsMatch_mvl/mxv
 .byte   W04
 .byte   VOL , 15*ToadstoolTourSkinsMatch_mvl/mxv
 .byte   W04
 .byte   VOL , 15*ToadstoolTourSkinsMatch_mvl/mxv
 .byte   N06 ,Cn3 ,v102
 .byte   N06 ,Gn2
 .byte   N06 ,Fn3
 .byte   W03
 .byte   VOL , 15*ToadstoolTourSkinsMatch_mvl/mxv
 .byte   W04
 .byte   VOL , 15*ToadstoolTourSkinsMatch_mvl/mxv
 .byte   W04
 .byte   VOL , 15*ToadstoolTourSkinsMatch_mvl/mxv
 .byte   N06 ,Gn2 ,v102
 .byte   N06 ,Cn3
 .byte   N06 ,En3
 .byte   W03
 .byte   VOL , 15*ToadstoolTourSkinsMatch_mvl/mxv
 .byte   W02
 .byte   N12 ,Dn3 ,v102
 .byte   N12 ,Gn2
 .byte   N12 ,Cn3
 .byte   W01
 .byte   VOL , 15*ToadstoolTourSkinsMatch_mvl/mxv
 .byte   W04
 .byte   VOL , 15*ToadstoolTourSkinsMatch_mvl/mxv
 .byte   W04
 .byte   VOL , 15*ToadstoolTourSkinsMatch_mvl/mxv
 .byte   W02
 .byte   N12 ,En3 ,v102
 .byte   N12 ,Cn3
 .byte   N12 ,Gn2
 .byte   W01
 .byte   VOL , 15*ToadstoolTourSkinsMatch_mvl/mxv
 .byte   W04
 .byte   VOL , 15*ToadstoolTourSkinsMatch_mvl/mxv
 .byte   W04
 .byte   VOL , 15*ToadstoolTourSkinsMatch_mvl/mxv
 .byte   W02
 .byte   N18 ,Cn3 ,v102
 .byte   N18 ,En3
 .byte   N18 ,Gs2
 .byte   W02
 .byte   VOL , 15*ToadstoolTourSkinsMatch_mvl/mxv
 .byte   W04
 .byte   VOL , 15*ToadstoolTourSkinsMatch_mvl/mxv
 .byte   W04
 .byte   VOL , 15*ToadstoolTourSkinsMatch_mvl/mxv
 .byte   W04
 .byte   VOL , 15*ToadstoolTourSkinsMatch_mvl/mxv
 .byte   W03
 .byte   N06 ,Dn3 ,v102
 .byte   N06 ,Gs2
 .byte   N06 ,Cn3
 .byte   VOL , 15*ToadstoolTourSkinsMatch_mvl/mxv
 .byte   W04
 .byte   VOL , 15*ToadstoolTourSkinsMatch_mvl/mxv
 .byte   W04
@  #03 @087   ----------------------------------------
 .byte   VOL , 15*ToadstoolTourSkinsMatch_mvl/mxv
 .byte   W03
 .byte   N06 ,En3 ,v102
 .byte   N06 ,Gs2
 .byte   N06 ,Cn3
 .byte   VOL , 15*ToadstoolTourSkinsMatch_mvl/mxv
 .byte   W04
 .byte   VOL , 15*ToadstoolTourSkinsMatch_mvl/mxv
 .byte   W04
 .byte   VOL , 15*ToadstoolTourSkinsMatch_mvl/mxv
 .byte   W03
 .byte   N06 ,Fn3 ,v102
 .byte   N06 ,Dn3
 .byte   N06 ,As2
 .byte   VOL , 15*ToadstoolTourSkinsMatch_mvl/mxv
 .byte   W04
 .byte   VOL , 15*ToadstoolTourSkinsMatch_mvl/mxv
 .byte   W04
 .byte   VOL , 15*ToadstoolTourSkinsMatch_mvl/mxv
 .byte   W03
 .byte   N06 ,Fn3 ,v102
 .byte   N06 ,Dn3
 .byte   N06 ,As2
 .byte   VOL , 15*ToadstoolTourSkinsMatch_mvl/mxv
 .byte   W04
 .byte   VOL , 15*ToadstoolTourSkinsMatch_mvl/mxv
 .byte   W04
 .byte   VOL , 15*ToadstoolTourSkinsMatch_mvl/mxv
 .byte   W03
 .byte   N06 ,En3 ,v102
 .byte   N06 ,As2
 .byte   N06 ,Dn3
 .byte   VOL , 15*ToadstoolTourSkinsMatch_mvl/mxv
 .byte   W04
 .byte   VOL , 15*ToadstoolTourSkinsMatch_mvl/mxv
 .byte   W01
 .byte   N12 ,As2 ,v102
 .byte   N12 ,Dn3
 .byte   W02
 .byte   VOL , 15*ToadstoolTourSkinsMatch_mvl/mxv
 .byte   W04
 .byte   VOL , 15*ToadstoolTourSkinsMatch_mvl/mxv
 .byte   W04
 .byte   VOL , 15*ToadstoolTourSkinsMatch_mvl/mxv
 .byte   W01
 .byte   N12 ,Dn3 ,v102
 .byte   N12 ,As2
 .byte   N12 ,En3
 .byte   W02
 .byte   VOL , 15*ToadstoolTourSkinsMatch_mvl/mxv
 .byte   W04
 .byte   VOL , 15*ToadstoolTourSkinsMatch_mvl/mxv
 .byte   W05
 .byte   FINE

@**************** Track 4 (Midi-Chn.3) ****************@

ToadstoolTourSkinsMatch_004:
@  #04 @000   ----------------------------------------
Label_014D4750:
 .byte   TEMPO , 118*ToadstoolTourSkinsMatch_tbs/2
 .byte   KEYSH , ToadstoolTourSkinsMatch_key+0
 .byte   VOICE , 63
 .byte   VOL , 11*ToadstoolTourSkinsMatch_mvl/mxv
 .byte   PAN , c_v-25
 .byte   N12 ,Dn3 ,v083
 .byte   N12 ,As2
 .byte   N12 ,En3
 .byte   W12
 .byte   N18
 .byte   W18
 .byte   N06 ,Fs3
 .byte   W12
 .byte   Gn3
 .byte   W12
 .byte   An3
 .byte   W06
 .byte   N24 ,Bn3
 .byte   W24
 .byte   Dn3
 .byte   W24
@  #04 @001   ----------------------------------------
Label_014D4770:
 .byte   N24 ,Cn3 ,v083
 .byte   W24
 .byte   N06 ,Bn2
 .byte   W06
 .byte   Cn3
 .byte   W06
 .byte   Bn2
 .byte   W06
 .byte   An2
 .byte   W06
 .byte   N48 ,Bn2
 .byte   W48
 .byte   PEND 
@  #04 @002   ----------------------------------------
Label_014D4781:
 .byte   N18 ,Cn3 ,v083
 .byte   W18
 .byte   Dn3
 .byte   W18
 .byte   N12 ,En3
 .byte   W12
 .byte   N24 ,Dn3
 .byte   W24
 .byte   Fs3
 .byte   W24
 .byte   PEND 
@  #04 @003   ----------------------------------------
Label_014D4790:
 .byte   N18 ,Gn3 ,v083
 .byte   W18
 .byte   Ds3
 .byte   W18
 .byte   N12 ,Gn3
 .byte   W12
 .byte   N48 ,Fn3
 .byte   W48
 .byte   PEND 
@  #04 @004   ----------------------------------------
Label_014D479D:
 .byte   N18 ,Gn3 ,v083
 .byte   W18
 .byte   N30 ,Dn3
 .byte   W30
 .byte   N24
 .byte   W24
 .byte   Cn3
 .byte   W24
 .byte   PEND 
@  #04 @005   ----------------------------------------
Label_014D47A9:
 .byte   N30 ,Cn3 ,v083
 .byte   W30
 .byte   N06 ,Dn3
 .byte   W06
 .byte   Ds3
 .byte   W06
 .byte   Gn3
 .byte   W06
 .byte   N48 ,Fn3
 .byte   W48
 .byte   PEND 
@  #04 @006   ----------------------------------------
Label_014D47B8:
 .byte   N30 ,Gn3 ,v083
 .byte   W30
 .byte   N06 ,Fn3
 .byte   W06
 .byte   En3
 .byte   W06
 .byte   Fn3
 .byte   W06
 .byte   N18 ,Dn3
 .byte   W18
 .byte   En3
 .byte   W18
 .byte   N12 ,Fn3
 .byte   W12
 .byte   PEND 
@  #04 @007   ----------------------------------------
 .byte   N18 ,Ds3 ,v083
 .byte   W18
 .byte   Cn3
 .byte   W18
 .byte   N12 ,Gn3
 .byte   W12
 .byte   N24 ,Fn3
 .byte   W24
 .byte   As3
 .byte   W24
@  #04 @008   ----------------------------------------
 .byte   N18 ,En3
 .byte   W18
 .byte   N06 ,Fs3
 .byte   W12
 .byte   Gn3
 .byte   W12
 .byte   An3
 .byte   W06
 .byte   N24 ,Bn3
 .byte   W24
 .byte   Dn3
 .byte   W24
@  #04 @009   ----------------------------------------
 .byte   PATT
  .word Label_014D4770
@  #04 @010   ----------------------------------------
 .byte   PATT
  .word Label_014D4781
@  #04 @011   ----------------------------------------
 .byte   PATT
  .word Label_014D4790
@  #04 @012   ----------------------------------------
 .byte   PATT
  .word Label_014D479D
@  #04 @013   ----------------------------------------
 .byte   PATT
  .word Label_014D47A9
@  #04 @014   ----------------------------------------
 .byte   PATT
  .word Label_014D47B8
@  #04 @015   ----------------------------------------
 .byte   N18 ,Ds3 ,v083
 .byte   W18
 .byte   Cn3
 .byte   W18
 .byte   N12 ,Gn3
 .byte   W12
 .byte   N24 ,Fn3
 .byte   W24
 .byte   As3
 .byte   W12
 .byte   GOTO
  .word Label_014D4750
@  #04 @016   ----------------------------------------
 .byte   W12
Label_014D481B:
 .byte   N18 ,Gn2 ,v083
 .byte   N18 ,Cn3
 .byte   N18 ,En3
 .byte   W18
 .byte   N06 ,Gn2
 .byte   N06 ,Cn3
 .byte   N06 ,Dn3
 .byte   W12
 .byte   Gn2
 .byte   N06 ,Cn3
 .byte   N06 ,En3
 .byte   W12
 .byte   Gn2
 .byte   N06 ,Cn3
 .byte   N06 ,Fn3
 .byte   W12
 .byte   Gn2
 .byte   N06 ,Cn3
 .byte   N06 ,Fn3
 .byte   W12
 .byte   Gn2
 .byte   N06 ,Cn3
 .byte   N06 ,En3
 .byte   W06
 .byte   N12 ,Gn2
 .byte   N12 ,Cn3
 .byte   N12 ,Dn3
 .byte   W12
@  #04 @017   ----------------------------------------
 .byte   Gn2
 .byte   N12 ,Cn3
 .byte   N12 ,En3
 .byte   W12
 .byte   PEND 
@  #04 @018   ----------------------------------------
 .byte   PATT
  .word Label_014D481B
@  #04 @019   ----------------------------------------
 .byte   PATT
  .word Label_014D481B
@  #04 @020   ----------------------------------------
Label_014D485A:
 .byte   N18 ,Gs2 ,v083
 .byte   N18 ,Cn3
 .byte   N18 ,En3
 .byte   W18
 .byte   N06 ,Gs2
 .byte   N06 ,Cn3
 .byte   N06 ,Dn3
 .byte   W12
 .byte   Gs2
 .byte   N06 ,Cn3
 .byte   N06 ,En3
 .byte   W12
 .byte   Dn3
 .byte   N06 ,As2
 .byte   N06 ,Fn3
 .byte   W12
 .byte   Dn3
 .byte   N06 ,As2
 .byte   N06 ,Fn3
 .byte   W12
 .byte   Dn3
 .byte   N06 ,As2
 .byte   N06 ,En3
 .byte   W06
 .byte   N12 ,As2
 .byte   N12 ,Dn3
 .byte   W12
 .byte   Dn3
 .byte   N12 ,As2
 .byte   N12 ,En3
 .byte   W12
 .byte   PEND 
@  #04 @021   ----------------------------------------
 .byte   PATT
  .word Label_014D481B
@  #04 @022   ----------------------------------------
 .byte   PATT
  .word Label_014D481B
@  #04 @023   ----------------------------------------
 .byte   PATT
  .word Label_014D481B
@  #04 @024   ----------------------------------------
 .byte   PATT
  .word Label_014D485A
@  #04 @025   ----------------------------------------
Label_014D48A1:
 .byte   N06 ,Ds3 ,v083
 .byte   W12
 .byte   Cn3
 .byte   W06
 .byte   Fn3
 .byte   W12
 .byte   Cn3
 .byte   W12
 .byte   Ds3
 .byte   W12
 .byte   Ds3
 .byte   W12
 .byte   Cn3
 .byte   W06
 .byte   Fn3
 .byte   W12
 .byte   Cn3
 .byte   W12
 .byte   PEND 
@  #04 @026   ----------------------------------------
Label_014D48B6:
 .byte   N06 ,En3 ,v083
 .byte   W12
 .byte   Cn3
 .byte   W06
 .byte   Gn2
 .byte   W12
 .byte   Cn3
 .byte   W12
 .byte   En3
 .byte   W12
 .byte   En3
 .byte   W12
 .byte   Cn3
 .byte   W06
 .byte   Gn3
 .byte   W06
 .byte   Gn2
 .byte   W06
 .byte   Cn3
 .byte   W06
 .byte   Gn2
 .byte   W06
 .byte   PEND 
@  #04 @027   ----------------------------------------
 .byte   PATT
  .word Label_014D48A1
@  #04 @028   ----------------------------------------
 .byte   PATT
  .word Label_014D48B6
@  #04 @029   ----------------------------------------
 .byte   PATT
  .word Label_014D48A1
@  #04 @030   ----------------------------------------
 .byte   PATT
  .word Label_014D48B6
@  #04 @031   ----------------------------------------
 .byte   PATT
  .word Label_014D48A1
@  #04 @032   ----------------------------------------
 .byte   PATT
  .word Label_014D48B6
@  #04 @033   ----------------------------------------
Label_014D48ED:
 .byte   N18 ,Cn4 ,v083
 .byte   W18
 .byte   Ds4
 .byte   W18
 .byte   N12 ,Gn4
 .byte   W12
 .byte   N24 ,Fn4
 .byte   W24
 .byte   N06 ,Ds4
 .byte   W06
 .byte   Fn4
 .byte   W06
 .byte   Ds4
 .byte   W06
 .byte   Dn4
 .byte   W06
 .byte   PEND 
@  #04 @034   ----------------------------------------
Label_014D4903:
 .byte   N48 ,Cn4 ,v083
 .byte   W48
 .byte   Gn4
 .byte   W48
 .byte   PEND 
@  #04 @035   ----------------------------------------
Label_014D490A:
 .byte   N06 ,Fn4 ,v083
 .byte   W12
 .byte   Dn4
 .byte   W12
 .byte   As4
 .byte   W06
 .byte   Fn4
 .byte   W12
 .byte   Dn4
 .byte   W06
 .byte   N18 ,Fn4
 .byte   W18
 .byte   Cn4
 .byte   W18
 .byte   N12 ,An4
 .byte   W12
 .byte   PEND 
@  #04 @036   ----------------------------------------
 .byte   N48 ,Gn4 ,v083
 .byte   W48
 .byte   Dn4
 .byte   W48
@  #04 @037   ----------------------------------------
 .byte   PATT
  .word Label_014D48ED
@  #04 @038   ----------------------------------------
 .byte   PATT
  .word Label_014D4903
@  #04 @039   ----------------------------------------
 .byte   PATT
  .word Label_014D490A
@  #04 @040   ----------------------------------------
 .byte   N48 ,Gn4 ,v083
 .byte   W48
 .byte   Dn4
 .byte   W42
 .byte   PAN , c_v-25
 .byte   W06
@  #04 @041   ----------------------------------------
 .byte   N18 ,Gn2 ,v083
 .byte   N18 ,Cn3
 .byte   N18 ,En3
 .byte   W18
 .byte   N06 ,Gn2
 .byte   N06 ,Cn3
 .byte   N06 ,Dn3
 .byte   W12
 .byte   Gn2
 .byte   N06 ,Cn3
 .byte   N06 ,En3
 .byte   W12
 .byte   Gn2
 .byte   N06 ,Cn3
 .byte   N06 ,Fn3
 .byte   W12
 .byte   Gn2
 .byte   N06 ,Cn3
 .byte   N06 ,Fn3
 .byte   W12
 .byte   Gn2
 .byte   N06 ,Cn3
 .byte   N06 ,En3
 .byte   W06
 .byte   N12 ,Gn2
 .byte   N12 ,Cn3
 .byte   N12 ,Dn3
 .byte   W12
 .byte   Gn2
 .byte   N12 ,Cn3
 .byte   N12 ,En3
 .byte   W12
@  #04 @042   ----------------------------------------
 .byte   N18 ,Gn2
 .byte   N18 ,Cn3
 .byte   N18 ,En3
 .byte   W18
 .byte   N06 ,Gn2
 .byte   N06 ,Cn3
 .byte   N06 ,Dn3
 .byte   W12
 .byte   Gn2
 .byte   N06 ,Cn3
 .byte   N06 ,En3
 .byte   W12
 .byte   Gn2
 .byte   N06 ,Cn3
 .byte   N06 ,Fn3
 .byte   W12
 .byte   Gn2
 .byte   N06 ,Cn3
 .byte   N06 ,Fn3
 .byte   W12
 .byte   Gn2
 .byte   N06 ,Cn3
 .byte   N06 ,En3
 .byte   W06
 .byte   N12 ,Gn2
 .byte   N12 ,Cn3
 .byte   N12 ,Dn3
 .byte   W12
 .byte   Gn2
 .byte   N12 ,Cn3
 .byte   N12 ,En3
 .byte   W12
@  #04 @043   ----------------------------------------
 .byte   N18 ,Gn2
 .byte   N18 ,Cn3
 .byte   N18 ,En3
 .byte   W18
 .byte   N06 ,Gn2
 .byte   N06 ,Cn3
 .byte   N06 ,Dn3
 .byte   W12
 .byte   Gn2
 .byte   N06 ,Cn3
 .byte   N06 ,En3
 .byte   W12
 .byte   Gn2
 .byte   N06 ,Cn3
 .byte   N06 ,Fn3
 .byte   W12
 .byte   Gn2
 .byte   N06 ,Cn3
 .byte   N06 ,Fn3
 .byte   W12
 .byte   Gn2
 .byte   N06 ,Cn3
 .byte   N06 ,En3
 .byte   W06
 .byte   N12 ,Gn2
 .byte   N12 ,Cn3
 .byte   N12 ,Dn3
 .byte   W12
 .byte   Gn2
 .byte   N12 ,Cn3
 .byte   N12 ,En3
 .byte   W12
@  #04 @044   ----------------------------------------
 .byte   N18 ,Gs2
 .byte   N18 ,Cn3
 .byte   N18 ,En3
 .byte   W18
 .byte   N06 ,Gs2
 .byte   N06 ,Cn3
 .byte   N06 ,Dn3
 .byte   W12
 .byte   Gs2
 .byte   N06 ,Cn3
 .byte   N06 ,En3
 .byte   W12
 .byte   Dn3
 .byte   N06 ,As2
 .byte   N06 ,Fn3
 .byte   W12
 .byte   Dn3
 .byte   N06 ,As2
 .byte   N06 ,Fn3
 .byte   W12
 .byte   Dn3
 .byte   N06 ,As2
 .byte   N06 ,En3
 .byte   W06
 .byte   N12 ,As2
 .byte   N12 ,Dn3
 .byte   W12
 .byte   Dn3
 .byte   N12 ,As2
 .byte   N12 ,En3
 .byte   W12
@  #04 @045   ----------------------------------------
 .byte   N18
 .byte   W18
 .byte   N06 ,Fs3
 .byte   W12
 .byte   Gn3
 .byte   W12
 .byte   An3
 .byte   W06
 .byte   N24 ,Bn3
 .byte   W24
 .byte   Dn3
 .byte   W24
@  #04 @046   ----------------------------------------
 .byte   Cn3
 .byte   W24
 .byte   N06 ,Bn2
 .byte   W06
 .byte   Cn3
 .byte   W06
 .byte   Bn2
 .byte   W06
 .byte   An2
 .byte   W06
 .byte   N48 ,Bn2
 .byte   W48
@  #04 @047   ----------------------------------------
 .byte   N18 ,Cn3
 .byte   W18
 .byte   Dn3
 .byte   W18
 .byte   N12 ,En3
 .byte   W12
 .byte   N24 ,Dn3
 .byte   W24
 .byte   Fs3
 .byte   W24
@  #04 @048   ----------------------------------------
 .byte   N18 ,Gn3
 .byte   W18
 .byte   Ds3
 .byte   W18
 .byte   N12 ,Gn3
 .byte   W12
 .byte   N48 ,Fn3
 .byte   W48
@  #04 @049   ----------------------------------------
 .byte   N18 ,Gn3
 .byte   W18
 .byte   N30 ,Dn3
 .byte   W30
 .byte   N24
 .byte   W24
 .byte   Cn3
 .byte   W24
@  #04 @050   ----------------------------------------
 .byte   N30
 .byte   W30
 .byte   N06 ,Dn3
 .byte   W06
 .byte   Ds3
 .byte   W06
 .byte   Gn3
 .byte   W06
 .byte   N48 ,Fn3
 .byte   W48
@  #04 @051   ----------------------------------------
 .byte   N30 ,Gn3
 .byte   W30
 .byte   N06 ,Fn3
 .byte   W06
 .byte   En3
 .byte   W06
 .byte   Fn3
 .byte   W06
 .byte   N18 ,Dn3
 .byte   W18
 .byte   En3
 .byte   W18
 .byte   N12 ,Fn3
 .byte   W12
@  #04 @052   ----------------------------------------
 .byte   N18 ,Ds3
 .byte   W18
 .byte   Cn3
 .byte   W18
 .byte   N12 ,Gn3
 .byte   W12
 .byte   N24 ,Fn3
 .byte   W24
 .byte   As3
 .byte   W24
@  #04 @053   ----------------------------------------
 .byte   N18 ,En3
 .byte   W18
 .byte   N06 ,Fs3
 .byte   W12
 .byte   Gn3
 .byte   W12
 .byte   An3
 .byte   W06
 .byte   N24 ,Bn3
 .byte   W24
 .byte   Dn3
 .byte   W24
@  #04 @054   ----------------------------------------
 .byte   Cn3
 .byte   W24
 .byte   N06 ,Bn2
 .byte   W06
 .byte   Cn3
 .byte   W06
 .byte   Bn2
 .byte   W06
 .byte   An2
 .byte   W06
 .byte   N48 ,Bn2
 .byte   W48
@  #04 @055   ----------------------------------------
 .byte   N18 ,Cn3
 .byte   W18
 .byte   Dn3
 .byte   W18
 .byte   N12 ,En3
 .byte   W12
 .byte   N24 ,Dn3
 .byte   W24
 .byte   Fs3
 .byte   W24
@  #04 @056   ----------------------------------------
 .byte   N18 ,Gn3
 .byte   W18
 .byte   Ds3
 .byte   W18
 .byte   N12 ,Gn3
 .byte   W12
 .byte   N48 ,Fn3
 .byte   W48
@  #04 @057   ----------------------------------------
 .byte   N18 ,Gn3
 .byte   W18
 .byte   N30 ,Dn3
 .byte   W30
 .byte   N24
 .byte   W24
 .byte   Cn3
 .byte   W24
@  #04 @058   ----------------------------------------
 .byte   N30
 .byte   W30
 .byte   N06 ,Dn3
 .byte   W06
 .byte   Ds3
 .byte   W06
 .byte   Gn3
 .byte   W06
 .byte   N48 ,Fn3
 .byte   W48
@  #04 @059   ----------------------------------------
 .byte   N30 ,Gn3
 .byte   W30
 .byte   N06 ,Fn3
 .byte   W06
 .byte   En3
 .byte   W06
 .byte   Fn3
 .byte   W06
 .byte   N18 ,Dn3
 .byte   W18
 .byte   En3
 .byte   W18
 .byte   N12 ,Fn3
 .byte   W12
@  #04 @060   ----------------------------------------
 .byte   N18 ,Ds3
 .byte   W18
 .byte   Cn3
 .byte   W18
 .byte   N12 ,Gn3
 .byte   W12
 .byte   N24 ,Fn3
 .byte   W24
 .byte   As3
 .byte   W24
@  #04 @061   ----------------------------------------
 .byte   N18 ,Gn2
 .byte   N18 ,Cn3
 .byte   N18 ,En3
 .byte   W18
 .byte   N06 ,Gn2
 .byte   N06 ,Cn3
 .byte   N06 ,Dn3
 .byte   W12
 .byte   Gn2
 .byte   N06 ,Cn3
 .byte   N06 ,En3
 .byte   W12
 .byte   Gn2
 .byte   N06 ,Cn3
 .byte   N06 ,Fn3
 .byte   W12
 .byte   Gn2
 .byte   N06 ,Cn3
 .byte   N06 ,Fn3
 .byte   W12
 .byte   Gn2
 .byte   N06 ,Cn3
 .byte   N06 ,En3
 .byte   W06
 .byte   N12 ,Gn2
 .byte   N12 ,Cn3
 .byte   N12 ,Dn3
 .byte   W12
 .byte   Gn2
 .byte   N12 ,Cn3
 .byte   N12 ,En3
 .byte   W12
@  #04 @062   ----------------------------------------
 .byte   N18 ,Gn2
 .byte   N18 ,Cn3
 .byte   N18 ,En3
 .byte   W18
 .byte   N06 ,Gn2
 .byte   N06 ,Cn3
 .byte   N06 ,Dn3
 .byte   W12
 .byte   Gn2
 .byte   N06 ,Cn3
 .byte   N06 ,En3
 .byte   W12
 .byte   Gn2
 .byte   N06 ,Cn3
 .byte   N06 ,Fn3
 .byte   W12
 .byte   Gn2
 .byte   N06 ,Cn3
 .byte   N06 ,Fn3
 .byte   W12
 .byte   Gn2
 .byte   N06 ,Cn3
 .byte   N06 ,En3
 .byte   W06
 .byte   N12 ,Gn2
 .byte   N12 ,Cn3
 .byte   N12 ,Dn3
 .byte   W12
 .byte   Gn2
 .byte   N12 ,Cn3
 .byte   N12 ,En3
 .byte   W12
@  #04 @063   ----------------------------------------
 .byte   N18 ,Gn2
 .byte   N18 ,Cn3
 .byte   N18 ,En3
 .byte   W18
 .byte   N06 ,Gn2
 .byte   N06 ,Cn3
 .byte   N06 ,Dn3
 .byte   W12
 .byte   Gn2
 .byte   N06 ,Cn3
 .byte   N06 ,En3
 .byte   W12
 .byte   Gn2
 .byte   N06 ,Cn3
 .byte   N06 ,Fn3
 .byte   W12
 .byte   Gn2
 .byte   N06 ,Cn3
 .byte   N06 ,Fn3
 .byte   W12
 .byte   Gn2
 .byte   N06 ,Cn3
 .byte   N06 ,En3
 .byte   W06
 .byte   N12 ,Gn2
 .byte   N12 ,Cn3
 .byte   N12 ,Dn3
 .byte   W12
 .byte   Gn2
 .byte   N12 ,Cn3
 .byte   N12 ,En3
 .byte   W12
@  #04 @064   ----------------------------------------
 .byte   N18 ,Gs2
 .byte   N18 ,Cn3
 .byte   N18 ,En3
 .byte   W18
 .byte   N06 ,Gs2
 .byte   N06 ,Cn3
 .byte   N06 ,Dn3
 .byte   W12
 .byte   Gs2
 .byte   N06 ,Cn3
 .byte   N06 ,En3
 .byte   W12
 .byte   Dn3
 .byte   N06 ,As2
 .byte   N06 ,Fn3
 .byte   W12
 .byte   Dn3
 .byte   N06 ,As2
 .byte   N06 ,Fn3
 .byte   W12
 .byte   Dn3
 .byte   N06 ,As2
 .byte   N06 ,En3
 .byte   W06
 .byte   N12 ,As2
 .byte   N12 ,Dn3
 .byte   W12
 .byte   Dn3
 .byte   N12 ,As2
 .byte   N12 ,En3
 .byte   W12
@  #04 @065   ----------------------------------------
 .byte   N18 ,Gn2
 .byte   N18 ,Cn3
 .byte   N18 ,En3
 .byte   W18
 .byte   N06 ,Gn2
 .byte   N06 ,Cn3
 .byte   N06 ,Dn3
 .byte   W12
 .byte   Gn2
 .byte   N06 ,Cn3
 .byte   N06 ,En3
 .byte   W12
 .byte   Gn2
 .byte   N06 ,Cn3
 .byte   N06 ,Fn3
 .byte   W12
 .byte   Gn2
 .byte   N06 ,Cn3
 .byte   N06 ,Fn3
 .byte   W12
 .byte   Gn2
 .byte   N06 ,Cn3
 .byte   N06 ,En3
 .byte   W06
 .byte   N12 ,Gn2
 .byte   N12 ,Cn3
 .byte   N12 ,Dn3
 .byte   W12
 .byte   Gn2
 .byte   N12 ,Cn3
 .byte   N12 ,En3
 .byte   W12
@  #04 @066   ----------------------------------------
 .byte   N18 ,Gn2
 .byte   N18 ,Cn3
 .byte   N18 ,En3
 .byte   W18
 .byte   N06 ,Gn2
 .byte   N06 ,Cn3
 .byte   N06 ,Dn3
 .byte   W12
 .byte   Gn2
 .byte   N06 ,Cn3
 .byte   N06 ,En3
 .byte   W12
 .byte   Gn2
 .byte   N06 ,Cn3
 .byte   N06 ,Fn3
 .byte   W12
 .byte   Gn2
 .byte   N06 ,Cn3
 .byte   N06 ,Fn3
 .byte   W12
 .byte   Gn2
 .byte   N06 ,Cn3
 .byte   N06 ,En3
 .byte   W06
 .byte   N12 ,Gn2
 .byte   N12 ,Cn3
 .byte   N12 ,Dn3
 .byte   W12
 .byte   Gn2
 .byte   N12 ,Cn3
 .byte   N12 ,En3
 .byte   W12
@  #04 @067   ----------------------------------------
 .byte   N18 ,Gn2
 .byte   N18 ,Cn3
 .byte   N18 ,En3
 .byte   W18
 .byte   N06 ,Gn2
 .byte   N06 ,Cn3
 .byte   N06 ,Dn3
 .byte   W12
 .byte   Gn2
 .byte   N06 ,Cn3
 .byte   N06 ,En3
 .byte   W12
 .byte   Gn2
 .byte   N06 ,Cn3
 .byte   N06 ,Fn3
 .byte   W12
 .byte   Gn2
 .byte   N06 ,Cn3
 .byte   N06 ,Fn3
 .byte   W12
 .byte   Gn2
 .byte   N06 ,Cn3
 .byte   N06 ,En3
 .byte   W06
 .byte   N12 ,Gn2
 .byte   N12 ,Cn3
 .byte   N12 ,Dn3
 .byte   W12
 .byte   Gn2
 .byte   N12 ,Cn3
 .byte   N12 ,En3
 .byte   W12
@  #04 @068   ----------------------------------------
 .byte   N18 ,Gs2
 .byte   N18 ,Cn3
 .byte   N18 ,En3
 .byte   W18
 .byte   N06 ,Gs2
 .byte   N06 ,Cn3
 .byte   N06 ,Dn3
 .byte   W12
 .byte   Gs2
 .byte   N06 ,Cn3
 .byte   N06 ,En3
 .byte   W12
 .byte   Dn3
 .byte   N06 ,As2
 .byte   N06 ,Fn3
 .byte   W12
 .byte   Dn3
 .byte   N06 ,As2
 .byte   N06 ,Fn3
 .byte   W12
 .byte   Dn3
 .byte   N06 ,As2
 .byte   N06 ,En3
 .byte   W06
 .byte   N12 ,As2
 .byte   N12 ,Dn3
 .byte   W12
 .byte   Dn3
 .byte   N12 ,As2
 .byte   N12 ,En3
 .byte   W12
@  #04 @069   ----------------------------------------
 .byte   N06 ,Ds3
 .byte   W12
 .byte   Cn3
 .byte   W06
 .byte   Fn3
 .byte   W12
 .byte   Cn3
 .byte   W12
 .byte   Ds3
 .byte   W12
 .byte   Ds3
 .byte   W12
 .byte   Cn3
 .byte   W06
 .byte   Fn3
 .byte   W12
 .byte   Cn3
 .byte   W12
@  #04 @070   ----------------------------------------
 .byte   En3
 .byte   W12
 .byte   Cn3
 .byte   W06
 .byte   Gn2
 .byte   W12
 .byte   Cn3
 .byte   W12
 .byte   En3
 .byte   W12
 .byte   En3
 .byte   W12
 .byte   Cn3
 .byte   W06
 .byte   Gn3
 .byte   W06
 .byte   Gn2
 .byte   W06
 .byte   Cn3
 .byte   W06
 .byte   Gn2
 .byte   W06
@  #04 @071   ----------------------------------------
 .byte   Ds3
 .byte   W12
 .byte   Cn3
 .byte   W06
 .byte   Fn3
 .byte   W12
 .byte   Cn3
 .byte   W12
 .byte   Ds3
 .byte   W12
 .byte   Ds3
 .byte   W12
 .byte   Cn3
 .byte   W06
 .byte   Fn3
 .byte   W12
 .byte   Cn3
 .byte   W12
@  #04 @072   ----------------------------------------
 .byte   En3
 .byte   W12
 .byte   Cn3
 .byte   W06
 .byte   Gn2
 .byte   W12
 .byte   Cn3
 .byte   W12
 .byte   En3
 .byte   W12
 .byte   En3
 .byte   W12
 .byte   Cn3
 .byte   W06
 .byte   Gn3
 .byte   W06
 .byte   Gn2
 .byte   W06
 .byte   Cn3
 .byte   W06
 .byte   Gn2
 .byte   W06
@  #04 @073   ----------------------------------------
 .byte   Ds3
 .byte   W12
 .byte   Cn3
 .byte   W06
 .byte   Fn3
 .byte   W12
 .byte   Cn3
 .byte   W12
 .byte   Ds3
 .byte   W12
 .byte   Ds3
 .byte   W12
 .byte   Cn3
 .byte   W06
 .byte   Fn3
 .byte   W12
 .byte   Cn3
 .byte   W12
@  #04 @074   ----------------------------------------
 .byte   En3
 .byte   W12
 .byte   Cn3
 .byte   W06
 .byte   Gn2
 .byte   W12
 .byte   Cn3
 .byte   W12
 .byte   En3
 .byte   W12
 .byte   En3
 .byte   W12
 .byte   Cn3
 .byte   W06
 .byte   Gn3
 .byte   W06
 .byte   Gn2
 .byte   W06
 .byte   Cn3
 .byte   W06
 .byte   Gn2
 .byte   W06
@  #04 @075   ----------------------------------------
 .byte   Ds3
 .byte   W12
 .byte   Cn3
 .byte   W06
 .byte   Fn3
 .byte   W12
 .byte   Cn3
 .byte   W12
 .byte   Ds3
 .byte   W12
 .byte   Ds3
 .byte   W12
 .byte   Cn3
 .byte   W06
 .byte   Fn3
 .byte   W12
 .byte   Cn3
 .byte   W12
@  #04 @076   ----------------------------------------
 .byte   En3
 .byte   W12
 .byte   Cn3
 .byte   W06
 .byte   Gn2
 .byte   W12
 .byte   Cn3
 .byte   W12
 .byte   En3
 .byte   W12
 .byte   En3
 .byte   W12
 .byte   Cn3
 .byte   W06
 .byte   Gn3
 .byte   W06
 .byte   Gn2
 .byte   W06
 .byte   Cn3
 .byte   W06
 .byte   Gn2
 .byte   W06
@  #04 @077   ----------------------------------------
 .byte   N18 ,Cn4
 .byte   W18
 .byte   Ds4
 .byte   W18
 .byte   N12 ,Gn4
 .byte   W12
 .byte   N24 ,Fn4
 .byte   W24
 .byte   N06 ,Ds4
 .byte   W06
 .byte   Fn4
 .byte   W06
 .byte   Ds4
 .byte   W06
 .byte   Dn4
 .byte   W06
@  #04 @078   ----------------------------------------
 .byte   N48 ,Cn4
 .byte   W48
 .byte   Gn4
 .byte   W48
@  #04 @079   ----------------------------------------
 .byte   N06 ,Fn4
 .byte   W12
 .byte   Dn4
 .byte   W12
 .byte   As4
 .byte   W06
 .byte   Fn4
 .byte   W12
 .byte   Dn4
 .byte   W06
 .byte   N18 ,Fn4
 .byte   W18
 .byte   Cn4
 .byte   W18
 .byte   N12 ,An4
 .byte   W12
@  #04 @080   ----------------------------------------
 .byte   N48 ,Gn4
 .byte   W48
 .byte   Dn4
 .byte   W48
@  #04 @081   ----------------------------------------
 .byte   N18 ,Cn4
 .byte   W18
 .byte   Ds4
 .byte   W18
 .byte   N12 ,Gn4
 .byte   W12
 .byte   N24 ,Fn4
 .byte   W24
 .byte   N06 ,Ds4
 .byte   W06
 .byte   Fn4
 .byte   W06
 .byte   Ds4
 .byte   W06
 .byte   Dn4
 .byte   W06
@  #04 @082   ----------------------------------------
 .byte   N48 ,Cn4
 .byte   W48
 .byte   Gn4
 .byte   W48
@  #04 @083   ----------------------------------------
 .byte   N06 ,Fn4
 .byte   W12
 .byte   Dn4
 .byte   W12
 .byte   As4
 .byte   W06
 .byte   Fn4
 .byte   W12
 .byte   Dn4
 .byte   W06
 .byte   N18 ,Fn4
 .byte   W18
 .byte   Cn4
 .byte   W18
 .byte   N12 ,An4
 .byte   W12
@  #04 @084   ----------------------------------------
 .byte   N48 ,Gn4
 .byte   W48
 .byte   Dn4
 .byte   W42
 .byte   VOL , 10*ToadstoolTourSkinsMatch_mvl/mxv
 .byte   PAN , c_v-25
 .byte   W06
@  #04 @085   ----------------------------------------
 .byte   N18 ,Cn3 ,v083
 .byte   N18 ,Gn2
 .byte   N18 ,En3
 .byte   VOL , 9*ToadstoolTourSkinsMatch_mvl/mxv
 .byte   W06
 .byte   VOL , 8*ToadstoolTourSkinsMatch_mvl/mxv
 .byte   W06
 .byte   VOL , 7*ToadstoolTourSkinsMatch_mvl/mxv
 .byte   W05
 .byte   N06 ,Gn2 ,v083
 .byte   N06 ,Dn3
 .byte   N06 ,Cn3
 .byte   VOL , 6*ToadstoolTourSkinsMatch_mvl/mxv
 .byte   W06
 .byte   VOL , 5*ToadstoolTourSkinsMatch_mvl/mxv
 .byte   W05
 .byte   N06 ,En3 ,v083
 .byte   N06 ,Cn3
 .byte   N06 ,Gn2
 .byte   W01
 .byte   VOL , 4*ToadstoolTourSkinsMatch_mvl/mxv
 .byte   W06
 .byte   VOL , 3*ToadstoolTourSkinsMatch_mvl/mxv
 .byte   W04
 .byte   N06 ,Fn3 ,v083
 .byte   N06 ,Gn2
 .byte   N06 ,Cn3
 .byte   W01
 .byte   VOL , 3*ToadstoolTourSkinsMatch_mvl/mxv
 .byte   W06
 .byte   VOL , 2*ToadstoolTourSkinsMatch_mvl/mxv
 .byte   W04
 .byte   N06 ,Fn3 ,v083
 .byte   N06 ,Cn3
 .byte   N06 ,Gn2
 .byte   W01
 .byte   VOL , 1*ToadstoolTourSkinsMatch_mvl/mxv
 .byte   W06
 .byte   VOL , 0*ToadstoolTourSkinsMatch_mvl/mxv
 .byte   W04
 .byte   N06 ,En3 ,v083
 .byte   N06 ,Gn2
 .byte   N06 ,Cn3
 .byte   W02
 .byte   VOL , 0*ToadstoolTourSkinsMatch_mvl/mxv
 .byte   W03
 .byte   N12 ,Gn2 ,v083
 .byte   N12 ,Cn3
 .byte   N12 ,Dn3
 .byte   W02
 .byte   VOL , 0*ToadstoolTourSkinsMatch_mvl/mxv
 .byte   W06
 .byte   VOL , 0*ToadstoolTourSkinsMatch_mvl/mxv
 .byte   W03
 .byte   N12 ,Cn3 ,v083
 .byte   N12 ,Gn2
 .byte   N12 ,En3
 .byte   W02
 .byte   VOL , 0*ToadstoolTourSkinsMatch_mvl/mxv
 .byte   W06
 .byte   VOL , 0*ToadstoolTourSkinsMatch_mvl/mxv
 .byte   W03
 .byte   N18 ,En3 ,v083
 .byte   N18 ,Cn3
 .byte   N18 ,Gn2
 .byte   W02
 .byte   VOL , 0*ToadstoolTourSkinsMatch_mvl/mxv
 .byte   W06
@  #04 @086   ----------------------------------------
 .byte   VOL , 0*ToadstoolTourSkinsMatch_mvl/mxv
 .byte   W06
 .byte   VOL , 0*ToadstoolTourSkinsMatch_mvl/mxv
 .byte   W02
 .byte   N06 ,Gn2 ,v083
 .byte   N06 ,Cn3
 .byte   N06 ,Dn3
 .byte   W03
 .byte   VOL , 0*ToadstoolTourSkinsMatch_mvl/mxv
 .byte   W06
 .byte   VOL , 0*ToadstoolTourSkinsMatch_mvl/mxv
 .byte   W02
 .byte   N06 ,En3 ,v083
 .byte   N06 ,Gn2
 .byte   N06 ,Cn3
 .byte   W03
 .byte   VOL , 0*ToadstoolTourSkinsMatch_mvl/mxv
 .byte   W06
 .byte   VOL , 0*ToadstoolTourSkinsMatch_mvl/mxv
 .byte   W02
 .byte   N06 ,Gn2 ,v083
 .byte   N06 ,Fn3
 .byte   N06 ,Cn3
 .byte   W04
 .byte   VOL , 0*ToadstoolTourSkinsMatch_mvl/mxv
 .byte   W06
 .byte   VOL , 0*ToadstoolTourSkinsMatch_mvl/mxv
 .byte   W01
 .byte   N06 ,Fn3 ,v083
 .byte   N06 ,Cn3
 .byte   N06 ,Gn2
 .byte   W04
 .byte   VOL , 0*ToadstoolTourSkinsMatch_mvl/mxv
 .byte   W06
 .byte   VOL , 0*ToadstoolTourSkinsMatch_mvl/mxv
 .byte   W01
 .byte   N06 ,Cn3 ,v083
 .byte   N06 ,Gn2
 .byte   N06 ,En3
 .byte   W04
 .byte   VOL , 0*ToadstoolTourSkinsMatch_mvl/mxv
 .byte   W01
 .byte   N12 ,Gn2 ,v083
 .byte   N12 ,Dn3
 .byte   N12 ,Cn3
 .byte   W04
 .byte   VOL , 0*ToadstoolTourSkinsMatch_mvl/mxv
 .byte   W06
 .byte   VOL , 0*ToadstoolTourSkinsMatch_mvl/mxv
 .byte   N12 ,Gn2 ,v083
 .byte   N12 ,Cn3
 .byte   N12 ,En3
 .byte   W05
 .byte   VOL , 0*ToadstoolTourSkinsMatch_mvl/mxv
 .byte   W06
 .byte   VOL , 0*ToadstoolTourSkinsMatch_mvl/mxv
 .byte   N18 ,Gn2 ,v083
 .byte   N18 ,Cn3
 .byte   N18 ,En3
 .byte   W05
 .byte   VOL , 0*ToadstoolTourSkinsMatch_mvl/mxv
 .byte   W06
 .byte   VOL , 0*ToadstoolTourSkinsMatch_mvl/mxv
 .byte   W06
 .byte   VOL , 0*ToadstoolTourSkinsMatch_mvl/mxv
 .byte   N06 ,Gn2 ,v083
 .byte   N06 ,Cn3
 .byte   N06 ,Dn3
 .byte   W06
@  #04 @087   ----------------------------------------
 .byte   VOL , 0*ToadstoolTourSkinsMatch_mvl/mxv
 .byte   W05
 .byte   N06 ,En3 ,v083
 .byte   N06 ,Gn2
 .byte   N06 ,Cn3
 .byte   VOL , 0*ToadstoolTourSkinsMatch_mvl/mxv
 .byte   W06
 .byte   VOL , 0*ToadstoolTourSkinsMatch_mvl/mxv
 .byte   W05
 .byte   N06 ,Fn3 ,v083
 .byte   N06 ,Cn3
 .byte   N06 ,Gn2
 .byte   VOL , 0*ToadstoolTourSkinsMatch_mvl/mxv
 .byte   W06
 .byte   VOL , 0*ToadstoolTourSkinsMatch_mvl/mxv
 .byte   W05
 .byte   N06 ,Cn3 ,v083
 .byte   N06 ,Fn3
 .byte   N06 ,Gn2
 .byte   VOL , 0*ToadstoolTourSkinsMatch_mvl/mxv
 .byte   W06
 .byte   VOL , 0*ToadstoolTourSkinsMatch_mvl/mxv
 .byte   W04
 .byte   N06 ,En3 ,v083
 .byte   N06 ,Gn2
 .byte   N06 ,Cn3
 .byte   W01
 .byte   VOL , 0*ToadstoolTourSkinsMatch_mvl/mxv
 .byte   W04
 .byte   N12 ,Gn2 ,v083
 .byte   N12 ,Dn3
 .byte   N12 ,Cn3
 .byte   W01
 .byte   VOL , 0*ToadstoolTourSkinsMatch_mvl/mxv
 .byte   W06
 .byte   VOL , 0*ToadstoolTourSkinsMatch_mvl/mxv
 .byte   W04
 .byte   N12 ,Cn3 ,v083
 .byte   N12 ,Gn2
 .byte   N12 ,En3
 .byte   W01
 .byte   VOL , 0*ToadstoolTourSkinsMatch_mvl/mxv
 .byte   W06
 .byte   VOL , 0*ToadstoolTourSkinsMatch_mvl/mxv
 .byte   W04
 .byte   N18 ,Gs2 ,v083
 .byte   N18 ,En3
 .byte   N18 ,Cn3
 .byte   W02
 .byte   VOL , 0*ToadstoolTourSkinsMatch_mvl/mxv
 .byte   W06
 .byte   VOL , 0*ToadstoolTourSkinsMatch_mvl/mxv
 .byte   W06
 .byte   VOL , 0*ToadstoolTourSkinsMatch_mvl/mxv
 .byte   W03
 .byte   N06 ,Dn3 ,v083
 .byte   N06 ,Cn3
 .byte   N06 ,Gs2
 .byte   W02
 .byte   VOL , 0*ToadstoolTourSkinsMatch_mvl/mxv
 .byte   W06
 .byte   VOL , 0*ToadstoolTourSkinsMatch_mvl/mxv
 .byte   W03
 .byte   N06 ,En3 ,v083
 .byte   N06 ,Cn3
 .byte   N06 ,Gs2
 .byte   W02
 .byte   VOL , 0*ToadstoolTourSkinsMatch_mvl/mxv
 .byte   W06
@  #04 @088   ----------------------------------------
 .byte   VOL , 0*ToadstoolTourSkinsMatch_mvl/mxv
 .byte   W02
 .byte   N06 ,Fn3 ,v083
 .byte   N06 ,As2
 .byte   N06 ,Dn3
 .byte   W03
 .byte   VOL , 0*ToadstoolTourSkinsMatch_mvl/mxv
 .byte   W06
 .byte   VOL , 0*ToadstoolTourSkinsMatch_mvl/mxv
 .byte   W02
 .byte   N06 ,Dn3 ,v083
 .byte   N06 ,As2
 .byte   N06 ,Fn3
 .byte   W03
 .byte   VOL , 0*ToadstoolTourSkinsMatch_mvl/mxv
 .byte   W06
 .byte   VOL , 0*ToadstoolTourSkinsMatch_mvl/mxv
 .byte   W02
 .byte   N06 ,Dn3 ,v083
 .byte   N06 ,En3
 .byte   N06 ,As2
 .byte   W03
 .byte   VOL , 0*ToadstoolTourSkinsMatch_mvl/mxv
 .byte   W02
 .byte   N12 ,Dn3 ,v083
 .byte   N12 ,As2
 .byte   W04
 .byte   VOL , 0*ToadstoolTourSkinsMatch_mvl/mxv
 .byte   W06
 .byte   VOL , 0*ToadstoolTourSkinsMatch_mvl/mxv
 .byte   W07
 .byte   FINE

@**************** Track 5 (Midi-Chn.4) ****************@

ToadstoolTourSkinsMatch_005:
@  #05 @000   ----------------------------------------
Label_014D4F30:
 .byte   TEMPO , 118*ToadstoolTourSkinsMatch_tbs/2
 .byte   KEYSH , ToadstoolTourSkinsMatch_key+0
 .byte   VOICE , 90
 .byte   VOL , 35*ToadstoolTourSkinsMatch_mvl/mxv
 .byte   PAN , c_v-13
 .byte   W06
 .byte   N18 ,En3 ,v102
 .byte   W18
 .byte   N06 ,Fs3
 .byte   W12
 .byte   Gn3
 .byte   W12
 .byte   An3
 .byte   W06
 .byte   N24 ,Bn3
 .byte   W24
 .byte   Dn3
 .byte   W24
@  #05 @001   ----------------------------------------
Label_014D4F4B:
 .byte   N24 ,Cn3 ,v102
 .byte   W24
 .byte   N06 ,Bn2
 .byte   W06
 .byte   Cn3
 .byte   W06
 .byte   Bn2
 .byte   W06
 .byte   An2
 .byte   W06
 .byte   N48 ,Bn2
 .byte   W48
 .byte   PEND 
@  #05 @002   ----------------------------------------
Label_014D4F5C:
 .byte   N18 ,Cn3 ,v102
 .byte   W18
 .byte   Dn3
 .byte   W18
 .byte   N12 ,En3
 .byte   W12
 .byte   N24 ,Dn3
 .byte   W24
 .byte   Fs3
 .byte   W24
 .byte   PEND 
@  #05 @003   ----------------------------------------
Label_014D4F6B:
 .byte   N18 ,Gn3 ,v102
 .byte   W18
 .byte   Ds3
 .byte   W18
 .byte   N12 ,Gn3
 .byte   W12
 .byte   N48 ,Fn3
 .byte   W48
 .byte   PEND 
@  #05 @004   ----------------------------------------
Label_014D4F78:
 .byte   N18 ,Gn3 ,v102
 .byte   W18
 .byte   N30 ,Dn3
 .byte   W30
 .byte   N24
 .byte   W24
 .byte   Cn3
 .byte   W24
 .byte   PEND 
@  #05 @005   ----------------------------------------
Label_014D4F84:
 .byte   N30 ,Cn3 ,v102
 .byte   W30
 .byte   N06 ,Dn3
 .byte   W06
 .byte   Ds3
 .byte   W06
 .byte   Gn3
 .byte   W06
 .byte   N48 ,Fn3
 .byte   W48
 .byte   PEND 
@  #05 @006   ----------------------------------------
Label_014D4F93:
 .byte   N30 ,Gn3 ,v102
 .byte   W30
 .byte   N06 ,Fn3
 .byte   W06
 .byte   En3
 .byte   W06
 .byte   Fn3
 .byte   W06
 .byte   N18 ,Dn3
 .byte   W18
 .byte   En3
 .byte   W18
 .byte   N12 ,Fn3
 .byte   W12
 .byte   PEND 
@  #05 @007   ----------------------------------------
 .byte   N18 ,Ds3 ,v102
 .byte   W18
 .byte   Cn3
 .byte   W18
 .byte   N12 ,Gn3
 .byte   W12
 .byte   N24 ,Fn3
 .byte   W24
 .byte   As3
 .byte   W24
@  #05 @008   ----------------------------------------
 .byte   N18 ,En3
 .byte   W18
 .byte   N06 ,Fs3
 .byte   W12
 .byte   Gn3
 .byte   W12
 .byte   An3
 .byte   W06
 .byte   N24 ,Bn3
 .byte   W24
 .byte   Dn3
 .byte   W24
@  #05 @009   ----------------------------------------
 .byte   PATT
  .word Label_014D4F4B
@  #05 @010   ----------------------------------------
 .byte   PATT
  .word Label_014D4F5C
@  #05 @011   ----------------------------------------
 .byte   PATT
  .word Label_014D4F6B
@  #05 @012   ----------------------------------------
 .byte   PATT
  .word Label_014D4F78
@  #05 @013   ----------------------------------------
 .byte   PATT
  .word Label_014D4F84
@  #05 @014   ----------------------------------------
 .byte   PATT
  .word Label_014D4F93
@  #05 @015   ----------------------------------------
 .byte   N18 ,Ds3 ,v102
 .byte   W18
 .byte   Cn3
 .byte   W18
 .byte   N12 ,Gn3
 .byte   W12
 .byte   N24 ,Fn3
 .byte   W24
 .byte   As3
 .byte   W18
 .byte   GOTO
  .word Label_014D4F30
@  #05 @016   ----------------------------------------
 .byte   W06
Label_014D4FF6:
 .byte   N18 ,Gn2 ,v102
 .byte   N18 ,Cn3
 .byte   N18 ,En3
 .byte   W18
 .byte   N06 ,Gn2
 .byte   N06 ,Cn3
 .byte   N06 ,Dn3
 .byte   W12
 .byte   Gn2
 .byte   N06 ,Cn3
 .byte   N06 ,En3
 .byte   W12
 .byte   Gn2
 .byte   N06 ,Cn3
 .byte   N06 ,Fn3
 .byte   W12
 .byte   Gn2
 .byte   N06 ,Cn3
 .byte   N06 ,Fn3
 .byte   W12
 .byte   Gn2
 .byte   N06 ,Cn3
 .byte   N06 ,En3
 .byte   W06
 .byte   N12 ,Gn2
 .byte   N12 ,Cn3
 .byte   N12 ,Dn3
 .byte   W12
 .byte   Gn2
 .byte   N12 ,Cn3
 .byte   N12 ,En3
 .byte   W12
 .byte   PEND 
@  #05 @017   ----------------------------------------
 .byte   PATT
  .word Label_014D4FF6
@  #05 @018   ----------------------------------------
 .byte   PATT
  .word Label_014D4FF6
@  #05 @019   ----------------------------------------
Label_014D5035:
 .byte   N18 ,Gs2 ,v102
 .byte   N18 ,Cn3
 .byte   N18 ,En3
 .byte   W18
 .byte   N06 ,Gs2
 .byte   N06 ,Cn3
 .byte   N06 ,Dn3
 .byte   W12
 .byte   Gs2
 .byte   N06 ,Cn3
 .byte   N06 ,En3
 .byte   W12
 .byte   Dn3
 .byte   N06 ,As2
 .byte   N06 ,Fn3
 .byte   W12
 .byte   Dn3
 .byte   N06 ,As2
 .byte   N06 ,Fn3
 .byte   W12
 .byte   Dn3
 .byte   N06 ,As2
 .byte   N06 ,En3
 .byte   W06
 .byte   N12 ,As2
 .byte   N12 ,Dn3
 .byte   W12
 .byte   Dn3
 .byte   N12 ,As2
 .byte   N12 ,En3
 .byte   W12
 .byte   PEND 
@  #05 @020   ----------------------------------------
 .byte   PATT
  .word Label_014D4FF6
@  #05 @021   ----------------------------------------
 .byte   PATT
  .word Label_014D4FF6
@  #05 @022   ----------------------------------------
 .byte   PATT
  .word Label_014D4FF6
@  #05 @023   ----------------------------------------
 .byte   PATT
  .word Label_014D5035
@  #05 @024   ----------------------------------------
Label_014D507C:
 .byte   N06 ,Ds3 ,v102
 .byte   W12
 .byte   Cn3
 .byte   W06
 .byte   Fn3
 .byte   W12
 .byte   Cn3
 .byte   W12
 .byte   Ds3
 .byte   W12
 .byte   Ds3
 .byte   W12
 .byte   Cn3
 .byte   W06
 .byte   Fn3
 .byte   W12
 .byte   Cn3
 .byte   W12
 .byte   PEND 
@  #05 @025   ----------------------------------------
Label_014D5091:
 .byte   N06 ,En3 ,v102
 .byte   W12
 .byte   Cn3
 .byte   W06
 .byte   Gn2
 .byte   W12
 .byte   Cn3
 .byte   W12
 .byte   En3
 .byte   W12
 .byte   En3
 .byte   W12
 .byte   Cn3
 .byte   W06
 .byte   Gn3
 .byte   W06
 .byte   Gn2
 .byte   W06
 .byte   Cn3
 .byte   W06
 .byte   Gn2
 .byte   W06
 .byte   PEND 
@  #05 @026   ----------------------------------------
 .byte   PATT
  .word Label_014D507C
@  #05 @027   ----------------------------------------
 .byte   PATT
  .word Label_014D5091
@  #05 @028   ----------------------------------------
 .byte   PATT
  .word Label_014D507C
@  #05 @029   ----------------------------------------
 .byte   PATT
  .word Label_014D5091
@  #05 @030   ----------------------------------------
 .byte   PATT
  .word Label_014D507C
@  #05 @031   ----------------------------------------
 .byte   PATT
  .word Label_014D5091
@  #05 @032   ----------------------------------------
Label_014D50C8:
 .byte   N18 ,Cn4 ,v102
 .byte   W18
 .byte   Ds4
 .byte   W18
 .byte   N12 ,Gn4
 .byte   W12
 .byte   N24 ,Fn4
 .byte   W24
 .byte   N06 ,Ds4
 .byte   W06
 .byte   Fn4
 .byte   W06
 .byte   Ds4
 .byte   W06
 .byte   Dn4
 .byte   W06
 .byte   PEND 
@  #05 @033   ----------------------------------------
Label_014D50DE:
 .byte   N48 ,Cn4 ,v102
 .byte   W48
 .byte   Gn4
 .byte   W48
 .byte   PEND 
@  #05 @034   ----------------------------------------
Label_014D50E5:
 .byte   N06 ,Fn4 ,v102
 .byte   W12
 .byte   Dn4
 .byte   W12
 .byte   As4
 .byte   W06
 .byte   Fn4
 .byte   W12
 .byte   Dn4
 .byte   W06
 .byte   N18 ,Fn4
 .byte   W18
 .byte   Cn4
 .byte   W18
 .byte   N12 ,An4
 .byte   W12
 .byte   PEND 
@  #05 @035   ----------------------------------------
 .byte   N48 ,Gn4 ,v102
 .byte   W48
 .byte   Dn4
 .byte   W48
@  #05 @036   ----------------------------------------
 .byte   PATT
  .word Label_014D50C8
@  #05 @037   ----------------------------------------
 .byte   PATT
  .word Label_014D50DE
@  #05 @038   ----------------------------------------
 .byte   PATT
  .word Label_014D50E5
@  #05 @039   ----------------------------------------
 .byte   N48 ,Gn4 ,v102
 .byte   W48
 .byte   Dn4
 .byte   W48
@  #05 @040   ----------------------------------------
 .byte   VOL , 35*ToadstoolTourSkinsMatch_mvl/mxv
 .byte   PAN , c_v-13
 .byte   N18 ,Gn2 ,v102
 .byte   N18 ,Cn3
 .byte   N18 ,En3
 .byte   W18
 .byte   N06 ,Gn2
 .byte   N06 ,Cn3
 .byte   N06 ,Dn3
 .byte   W12
 .byte   Gn2
 .byte   N06 ,Cn3
 .byte   N06 ,En3
 .byte   W12
 .byte   Gn2
 .byte   N06 ,Cn3
 .byte   N06 ,Fn3
 .byte   W12
 .byte   Gn2
 .byte   N06 ,Cn3
 .byte   N06 ,Fn3
 .byte   W12
 .byte   Gn2
 .byte   N06 ,Cn3
 .byte   N06 ,En3
 .byte   W06
 .byte   N12 ,Gn2
 .byte   N12 ,Cn3
 .byte   N12 ,Dn3
 .byte   W12
 .byte   Gn2
 .byte   N12 ,Cn3
 .byte   N12 ,En3
 .byte   W12
@  #05 @041   ----------------------------------------
 .byte   N18 ,Gn2
 .byte   N18 ,Cn3
 .byte   N18 ,En3
 .byte   W18
 .byte   N06 ,Gn2
 .byte   N06 ,Cn3
 .byte   N06 ,Dn3
 .byte   W12
 .byte   Gn2
 .byte   N06 ,Cn3
 .byte   N06 ,En3
 .byte   W12
 .byte   Gn2
 .byte   N06 ,Cn3
 .byte   N06 ,Fn3
 .byte   W12
 .byte   Gn2
 .byte   N06 ,Cn3
 .byte   N06 ,Fn3
 .byte   W12
 .byte   Gn2
 .byte   N06 ,Cn3
 .byte   N06 ,En3
 .byte   W06
 .byte   N12 ,Gn2
 .byte   N12 ,Cn3
 .byte   N12 ,Dn3
 .byte   W12
 .byte   Gn2
 .byte   N12 ,Cn3
 .byte   N12 ,En3
 .byte   W12
@  #05 @042   ----------------------------------------
 .byte   N18 ,Gn2
 .byte   N18 ,Cn3
 .byte   N18 ,En3
 .byte   W18
 .byte   N06 ,Gn2
 .byte   N06 ,Cn3
 .byte   N06 ,Dn3
 .byte   W12
 .byte   Gn2
 .byte   N06 ,Cn3
 .byte   N06 ,En3
 .byte   W12
 .byte   Gn2
 .byte   N06 ,Cn3
 .byte   N06 ,Fn3
 .byte   W12
 .byte   Gn2
 .byte   N06 ,Cn3
 .byte   N06 ,Fn3
 .byte   W12
 .byte   Gn2
 .byte   N06 ,Cn3
 .byte   N06 ,En3
 .byte   W06
 .byte   N12 ,Gn2
 .byte   N12 ,Cn3
 .byte   N12 ,Dn3
 .byte   W12
 .byte   Gn2
 .byte   N12 ,Cn3
 .byte   N12 ,En3
 .byte   W12
@  #05 @043   ----------------------------------------
 .byte   N18 ,Gs2
 .byte   N18 ,Cn3
 .byte   N18 ,En3
 .byte   W18
 .byte   N06 ,Gs2
 .byte   N06 ,Cn3
 .byte   N06 ,Dn3
 .byte   W12
 .byte   Gs2
 .byte   N06 ,Cn3
 .byte   N06 ,En3
 .byte   W12
 .byte   Dn3
 .byte   N06 ,As2
 .byte   N06 ,Fn3
 .byte   W12
 .byte   Dn3
 .byte   N06 ,As2
 .byte   N06 ,Fn3
 .byte   W12
 .byte   Dn3
 .byte   N06 ,As2
 .byte   N06 ,En3
 .byte   W06
 .byte   N12 ,As2
 .byte   N12 ,Dn3
 .byte   W12
 .byte   Dn3
 .byte   N12 ,As2
 .byte   N12 ,En3
 .byte   W12
@  #05 @044   ----------------------------------------
 .byte   N18
 .byte   W18
 .byte   N06 ,Fs3
 .byte   W12
 .byte   Gn3
 .byte   W12
 .byte   An3
 .byte   W06
 .byte   N24 ,Bn3
 .byte   W24
 .byte   Dn3
 .byte   W24
@  #05 @045   ----------------------------------------
 .byte   Cn3
 .byte   W24
 .byte   N06 ,Bn2
 .byte   W06
 .byte   Cn3
 .byte   W06
 .byte   Bn2
 .byte   W06
 .byte   An2
 .byte   W06
 .byte   N48 ,Bn2
 .byte   W48
@  #05 @046   ----------------------------------------
 .byte   N18 ,Cn3
 .byte   W18
 .byte   Dn3
 .byte   W18
 .byte   N12 ,En3
 .byte   W12
 .byte   N24 ,Dn3
 .byte   W24
 .byte   Fs3
 .byte   W24
@  #05 @047   ----------------------------------------
 .byte   N18 ,Gn3
 .byte   W18
 .byte   Ds3
 .byte   W18
 .byte   N12 ,Gn3
 .byte   W12
 .byte   N48 ,Fn3
 .byte   W48
@  #05 @048   ----------------------------------------
 .byte   N18 ,Gn3
 .byte   W18
 .byte   N30 ,Dn3
 .byte   W30
 .byte   N24
 .byte   W24
 .byte   Cn3
 .byte   W24
@  #05 @049   ----------------------------------------
 .byte   N30
 .byte   W30
 .byte   N06 ,Dn3
 .byte   W06
 .byte   Ds3
 .byte   W06
 .byte   Gn3
 .byte   W06
 .byte   N48 ,Fn3
 .byte   W48
@  #05 @050   ----------------------------------------
 .byte   N30 ,Gn3
 .byte   W30
 .byte   N06 ,Fn3
 .byte   W06
 .byte   En3
 .byte   W06
 .byte   Fn3
 .byte   W06
 .byte   N18 ,Dn3
 .byte   W18
 .byte   En3
 .byte   W18
 .byte   N12 ,Fn3
 .byte   W12
@  #05 @051   ----------------------------------------
 .byte   N18 ,Ds3
 .byte   W18
 .byte   Cn3
 .byte   W18
 .byte   N12 ,Gn3
 .byte   W12
 .byte   N24 ,Fn3
 .byte   W24
 .byte   As3
 .byte   W24
@  #05 @052   ----------------------------------------
 .byte   N18 ,En3
 .byte   W18
 .byte   N06 ,Fs3
 .byte   W12
 .byte   Gn3
 .byte   W12
 .byte   An3
 .byte   W06
 .byte   N24 ,Bn3
 .byte   W24
 .byte   Dn3
 .byte   W24
@  #05 @053   ----------------------------------------
 .byte   Cn3
 .byte   W24
 .byte   N06 ,Bn2
 .byte   W06
 .byte   Cn3
 .byte   W06
 .byte   Bn2
 .byte   W06
 .byte   An2
 .byte   W06
 .byte   N48 ,Bn2
 .byte   W48
@  #05 @054   ----------------------------------------
 .byte   N18 ,Cn3
 .byte   W18
 .byte   Dn3
 .byte   W18
 .byte   N12 ,En3
 .byte   W12
 .byte   N24 ,Dn3
 .byte   W24
 .byte   Fs3
 .byte   W24
@  #05 @055   ----------------------------------------
 .byte   N18 ,Gn3
 .byte   W18
 .byte   Ds3
 .byte   W18
 .byte   N12 ,Gn3
 .byte   W12
 .byte   N48 ,Fn3
 .byte   W48
@  #05 @056   ----------------------------------------
 .byte   N18 ,Gn3
 .byte   W18
 .byte   N30 ,Dn3
 .byte   W30
 .byte   N24
 .byte   W24
 .byte   Cn3
 .byte   W24
@  #05 @057   ----------------------------------------
 .byte   N30
 .byte   W30
 .byte   N06 ,Dn3
 .byte   W06
 .byte   Ds3
 .byte   W06
 .byte   Gn3
 .byte   W06
 .byte   N48 ,Fn3
 .byte   W48
@  #05 @058   ----------------------------------------
 .byte   N30 ,Gn3
 .byte   W30
 .byte   N06 ,Fn3
 .byte   W06
 .byte   En3
 .byte   W06
 .byte   Fn3
 .byte   W06
 .byte   N18 ,Dn3
 .byte   W18
 .byte   En3
 .byte   W18
 .byte   N12 ,Fn3
 .byte   W12
@  #05 @059   ----------------------------------------
 .byte   N18 ,Ds3
 .byte   W18
 .byte   Cn3
 .byte   W18
 .byte   N12 ,Gn3
 .byte   W12
 .byte   N24 ,Fn3
 .byte   W24
 .byte   As3
 .byte   W24
@  #05 @060   ----------------------------------------
 .byte   N18 ,Gn2
 .byte   N18 ,Cn3
 .byte   N18 ,En3
 .byte   W18
 .byte   N06 ,Gn2
 .byte   N06 ,Cn3
 .byte   N06 ,Dn3
 .byte   W12
 .byte   Gn2
 .byte   N06 ,Cn3
 .byte   N06 ,En3
 .byte   W12
 .byte   Gn2
 .byte   N06 ,Cn3
 .byte   N06 ,Fn3
 .byte   W12
 .byte   Gn2
 .byte   N06 ,Cn3
 .byte   N06 ,Fn3
 .byte   W12
 .byte   Gn2
 .byte   N06 ,Cn3
 .byte   N06 ,En3
 .byte   W06
 .byte   N12 ,Gn2
 .byte   N12 ,Cn3
 .byte   N12 ,Dn3
 .byte   W12
 .byte   Gn2
 .byte   N12 ,Cn3
 .byte   N12 ,En3
 .byte   W12
@  #05 @061   ----------------------------------------
 .byte   N18 ,Gn2
 .byte   N18 ,Cn3
 .byte   N18 ,En3
 .byte   W18
 .byte   N06 ,Gn2
 .byte   N06 ,Cn3
 .byte   N06 ,Dn3
 .byte   W12
 .byte   Gn2
 .byte   N06 ,Cn3
 .byte   N06 ,En3
 .byte   W12
 .byte   Gn2
 .byte   N06 ,Cn3
 .byte   N06 ,Fn3
 .byte   W12
 .byte   Gn2
 .byte   N06 ,Cn3
 .byte   N06 ,Fn3
 .byte   W12
 .byte   Gn2
 .byte   N06 ,Cn3
 .byte   N06 ,En3
 .byte   W06
 .byte   N12 ,Gn2
 .byte   N12 ,Cn3
 .byte   N12 ,Dn3
 .byte   W12
 .byte   Gn2
 .byte   N12 ,Cn3
 .byte   N12 ,En3
 .byte   W12
@  #05 @062   ----------------------------------------
 .byte   N18 ,Gn2
 .byte   N18 ,Cn3
 .byte   N18 ,En3
 .byte   W18
 .byte   N06 ,Gn2
 .byte   N06 ,Cn3
 .byte   N06 ,Dn3
 .byte   W12
 .byte   Gn2
 .byte   N06 ,Cn3
 .byte   N06 ,En3
 .byte   W12
 .byte   Gn2
 .byte   N06 ,Cn3
 .byte   N06 ,Fn3
 .byte   W12
 .byte   Gn2
 .byte   N06 ,Cn3
 .byte   N06 ,Fn3
 .byte   W12
 .byte   Gn2
 .byte   N06 ,Cn3
 .byte   N06 ,En3
 .byte   W06
 .byte   N12 ,Gn2
 .byte   N12 ,Cn3
 .byte   N12 ,Dn3
 .byte   W12
 .byte   Gn2
 .byte   N12 ,Cn3
 .byte   N12 ,En3
 .byte   W12
@  #05 @063   ----------------------------------------
 .byte   N18 ,Gs2
 .byte   N18 ,Cn3
 .byte   N18 ,En3
 .byte   W18
 .byte   N06 ,Gs2
 .byte   N06 ,Cn3
 .byte   N06 ,Dn3
 .byte   W12
 .byte   Gs2
 .byte   N06 ,Cn3
 .byte   N06 ,En3
 .byte   W12
 .byte   Dn3
 .byte   N06 ,As2
 .byte   N06 ,Fn3
 .byte   W12
 .byte   Dn3
 .byte   N06 ,As2
 .byte   N06 ,Fn3
 .byte   W12
 .byte   Dn3
 .byte   N06 ,As2
 .byte   N06 ,En3
 .byte   W06
 .byte   N12 ,As2
 .byte   N12 ,Dn3
 .byte   W12
 .byte   Dn3
 .byte   N12 ,As2
 .byte   N12 ,En3
 .byte   W12
@  #05 @064   ----------------------------------------
 .byte   N18 ,Gn2
 .byte   N18 ,Cn3
 .byte   N18 ,En3
 .byte   W18
 .byte   N06 ,Gn2
 .byte   N06 ,Cn3
 .byte   N06 ,Dn3
 .byte   W12
 .byte   Gn2
 .byte   N06 ,Cn3
 .byte   N06 ,En3
 .byte   W12
 .byte   Gn2
 .byte   N06 ,Cn3
 .byte   N06 ,Fn3
 .byte   W12
 .byte   Gn2
 .byte   N06 ,Cn3
 .byte   N06 ,Fn3
 .byte   W12
 .byte   Gn2
 .byte   N06 ,Cn3
 .byte   N06 ,En3
 .byte   W06
 .byte   N12 ,Gn2
 .byte   N12 ,Cn3
 .byte   N12 ,Dn3
 .byte   W12
 .byte   Gn2
 .byte   N12 ,Cn3
 .byte   N12 ,En3
 .byte   W12
@  #05 @065   ----------------------------------------
 .byte   N18 ,Gn2
 .byte   N18 ,Cn3
 .byte   N18 ,En3
 .byte   W18
 .byte   N06 ,Gn2
 .byte   N06 ,Cn3
 .byte   N06 ,Dn3
 .byte   W12
 .byte   Gn2
 .byte   N06 ,Cn3
 .byte   N06 ,En3
 .byte   W12
 .byte   Gn2
 .byte   N06 ,Cn3
 .byte   N06 ,Fn3
 .byte   W12
 .byte   Gn2
 .byte   N06 ,Cn3
 .byte   N06 ,Fn3
 .byte   W12
 .byte   Gn2
 .byte   N06 ,Cn3
 .byte   N06 ,En3
 .byte   W06
 .byte   N12 ,Gn2
 .byte   N12 ,Cn3
 .byte   N12 ,Dn3
 .byte   W12
 .byte   Gn2
 .byte   N12 ,Cn3
 .byte   N12 ,En3
 .byte   W12
@  #05 @066   ----------------------------------------
 .byte   N18 ,Gn2
 .byte   N18 ,Cn3
 .byte   N18 ,En3
 .byte   W18
 .byte   N06 ,Gn2
 .byte   N06 ,Cn3
 .byte   N06 ,Dn3
 .byte   W12
 .byte   Gn2
 .byte   N06 ,Cn3
 .byte   N06 ,En3
 .byte   W12
 .byte   Gn2
 .byte   N06 ,Cn3
 .byte   N06 ,Fn3
 .byte   W12
 .byte   Gn2
 .byte   N06 ,Cn3
 .byte   N06 ,Fn3
 .byte   W12
 .byte   Gn2
 .byte   N06 ,Cn3
 .byte   N06 ,En3
 .byte   W06
 .byte   N12 ,Gn2
 .byte   N12 ,Cn3
 .byte   N12 ,Dn3
 .byte   W12
 .byte   Gn2
 .byte   N12 ,Cn3
 .byte   N12 ,En3
 .byte   W12
@  #05 @067   ----------------------------------------
 .byte   N18 ,Gs2
 .byte   N18 ,Cn3
 .byte   N18 ,En3
 .byte   W18
 .byte   N06 ,Gs2
 .byte   N06 ,Cn3
 .byte   N06 ,Dn3
 .byte   W12
 .byte   Gs2
 .byte   N06 ,Cn3
 .byte   N06 ,En3
 .byte   W12
 .byte   Dn3
 .byte   N06 ,As2
 .byte   N06 ,Fn3
 .byte   W12
 .byte   Dn3
 .byte   N06 ,As2
 .byte   N06 ,Fn3
 .byte   W12
 .byte   Dn3
 .byte   N06 ,As2
 .byte   N06 ,En3
 .byte   W06
 .byte   N12 ,As2
 .byte   N12 ,Dn3
 .byte   W12
 .byte   Dn3
 .byte   N12 ,As2
 .byte   N12 ,En3
 .byte   W12
@  #05 @068   ----------------------------------------
 .byte   N06 ,Ds3
 .byte   W12
 .byte   Cn3
 .byte   W06
 .byte   Fn3
 .byte   W12
 .byte   Cn3
 .byte   W12
 .byte   Ds3
 .byte   W12
 .byte   Ds3
 .byte   W12
 .byte   Cn3
 .byte   W06
 .byte   Fn3
 .byte   W12
 .byte   Cn3
 .byte   W12
@  #05 @069   ----------------------------------------
 .byte   En3
 .byte   W12
 .byte   Cn3
 .byte   W06
 .byte   Gn2
 .byte   W12
 .byte   Cn3
 .byte   W12
 .byte   En3
 .byte   W12
 .byte   En3
 .byte   W12
 .byte   Cn3
 .byte   W06
 .byte   Gn3
 .byte   W06
 .byte   Gn2
 .byte   W06
 .byte   Cn3
 .byte   W06
 .byte   Gn2
 .byte   W06
@  #05 @070   ----------------------------------------
 .byte   Ds3
 .byte   W12
 .byte   Cn3
 .byte   W06
 .byte   Fn3
 .byte   W12
 .byte   Cn3
 .byte   W12
 .byte   Ds3
 .byte   W12
 .byte   Ds3
 .byte   W12
 .byte   Cn3
 .byte   W06
 .byte   Fn3
 .byte   W12
 .byte   Cn3
 .byte   W12
@  #05 @071   ----------------------------------------
 .byte   En3
 .byte   W12
 .byte   Cn3
 .byte   W06
 .byte   Gn2
 .byte   W12
 .byte   Cn3
 .byte   W12
 .byte   En3
 .byte   W12
 .byte   En3
 .byte   W12
 .byte   Cn3
 .byte   W06
 .byte   Gn3
 .byte   W06
 .byte   Gn2
 .byte   W06
 .byte   Cn3
 .byte   W06
 .byte   Gn2
 .byte   W06
@  #05 @072   ----------------------------------------
 .byte   Ds3
 .byte   W12
 .byte   Cn3
 .byte   W06
 .byte   Fn3
 .byte   W12
 .byte   Cn3
 .byte   W12
 .byte   Ds3
 .byte   W12
 .byte   Ds3
 .byte   W12
 .byte   Cn3
 .byte   W06
 .byte   Fn3
 .byte   W12
 .byte   Cn3
 .byte   W12
@  #05 @073   ----------------------------------------
 .byte   En3
 .byte   W12
 .byte   Cn3
 .byte   W06
 .byte   Gn2
 .byte   W12
 .byte   Cn3
 .byte   W12
 .byte   En3
 .byte   W12
 .byte   En3
 .byte   W12
 .byte   Cn3
 .byte   W06
 .byte   Gn3
 .byte   W06
 .byte   Gn2
 .byte   W06
 .byte   Cn3
 .byte   W06
 .byte   Gn2
 .byte   W06
@  #05 @074   ----------------------------------------
 .byte   Ds3
 .byte   W12
 .byte   Cn3
 .byte   W06
 .byte   Fn3
 .byte   W12
 .byte   Cn3
 .byte   W12
 .byte   Ds3
 .byte   W12
 .byte   Ds3
 .byte   W12
 .byte   Cn3
 .byte   W06
 .byte   Fn3
 .byte   W12
 .byte   Cn3
 .byte   W12
@  #05 @075   ----------------------------------------
 .byte   En3
 .byte   W12
 .byte   Cn3
 .byte   W06
 .byte   Gn2
 .byte   W12
 .byte   Cn3
 .byte   W12
 .byte   En3
 .byte   W12
 .byte   En3
 .byte   W12
 .byte   Cn3
 .byte   W06
 .byte   Gn3
 .byte   W06
 .byte   Gn2
 .byte   W06
 .byte   Cn3
 .byte   W06
 .byte   Gn2
 .byte   W06
@  #05 @076   ----------------------------------------
 .byte   N18 ,Cn4
 .byte   W18
 .byte   Ds4
 .byte   W18
 .byte   N12 ,Gn4
 .byte   W12
 .byte   N24 ,Fn4
 .byte   W24
 .byte   N06 ,Ds4
 .byte   W06
 .byte   Fn4
 .byte   W06
 .byte   Ds4
 .byte   W06
 .byte   Dn4
 .byte   W06
@  #05 @077   ----------------------------------------
 .byte   N48 ,Cn4
 .byte   W48
 .byte   Gn4
 .byte   W48
@  #05 @078   ----------------------------------------
 .byte   N06 ,Fn4
 .byte   W12
 .byte   Dn4
 .byte   W12
 .byte   As4
 .byte   W06
 .byte   Fn4
 .byte   W12
 .byte   Dn4
 .byte   W06
 .byte   N18 ,Fn4
 .byte   W18
 .byte   Cn4
 .byte   W18
 .byte   N12 ,An4
 .byte   W12
@  #05 @079   ----------------------------------------
 .byte   N48 ,Gn4
 .byte   W48
 .byte   Dn4
 .byte   W48
@  #05 @080   ----------------------------------------
 .byte   N18 ,Cn4
 .byte   W18
 .byte   Ds4
 .byte   W18
 .byte   N12 ,Gn4
 .byte   W12
 .byte   N24 ,Fn4
 .byte   W24
 .byte   N06 ,Ds4
 .byte   W06
 .byte   Fn4
 .byte   W06
 .byte   Ds4
 .byte   W06
 .byte   Dn4
 .byte   W06
@  #05 @081   ----------------------------------------
 .byte   N48 ,Cn4
 .byte   W48
 .byte   Gn4
 .byte   W48
@  #05 @082   ----------------------------------------
 .byte   N06 ,Fn4
 .byte   W12
 .byte   Dn4
 .byte   W12
 .byte   As4
 .byte   W06
 .byte   Fn4
 .byte   W12
 .byte   Dn4
 .byte   W06
 .byte   N18 ,Fn4
 .byte   W18
 .byte   Cn4
 .byte   W18
 .byte   N12 ,An4
 .byte   W12
@  #05 @083   ----------------------------------------
 .byte   N48 ,Gn4
 .byte   W48
 .byte   Dn4
 .byte   W48
@  #05 @084   ----------------------------------------
 .byte   VOL , 34*ToadstoolTourSkinsMatch_mvl/mxv
 .byte   PAN , c_v-13
 .byte   N18 ,Cn3 ,v102
 .byte   N18 ,Gn2
 .byte   N18 ,En3
 .byte   W03
 .byte   VOL , 32*ToadstoolTourSkinsMatch_mvl/mxv
 .byte   W03
 .byte   VOL , 31*ToadstoolTourSkinsMatch_mvl/mxv
 .byte   W03
 .byte   VOL , 29*ToadstoolTourSkinsMatch_mvl/mxv
 .byte   W03
 .byte   VOL , 28*ToadstoolTourSkinsMatch_mvl/mxv
 .byte   W02
 .byte   N06 ,Dn3 ,v102
 .byte   N06 ,Gn2
 .byte   N06 ,Cn3
 .byte   VOL , 27*ToadstoolTourSkinsMatch_mvl/mxv
 .byte   W03
 .byte   VOL , 25*ToadstoolTourSkinsMatch_mvl/mxv
 .byte   W03
 .byte   VOL , 24*ToadstoolTourSkinsMatch_mvl/mxv
 .byte   W03
 .byte   N06 ,En3 ,v102
 .byte   N06 ,Gn2
 .byte   N06 ,Cn3
 .byte   VOL , 23*ToadstoolTourSkinsMatch_mvl/mxv
 .byte   W03
 .byte   VOL , 21*ToadstoolTourSkinsMatch_mvl/mxv
 .byte   W03
 .byte   VOL , 20*ToadstoolTourSkinsMatch_mvl/mxv
 .byte   W03
 .byte   VOL , 19*ToadstoolTourSkinsMatch_mvl/mxv
 .byte   N06 ,Fn3 ,v102
 .byte   N06 ,Cn3
 .byte   N06 ,Gn2
 .byte   W03
 .byte   VOL , 17*ToadstoolTourSkinsMatch_mvl/mxv
 .byte   W03
 .byte   VOL , 16*ToadstoolTourSkinsMatch_mvl/mxv
 .byte   W03
 .byte   VOL , 15*ToadstoolTourSkinsMatch_mvl/mxv
 .byte   N06 ,Gn2 ,v102
 .byte   N06 ,Cn3
 .byte   N06 ,Fn3
 .byte   W02
 .byte   VOL , 13*ToadstoolTourSkinsMatch_mvl/mxv
 .byte   W03
 .byte   VOL , 12*ToadstoolTourSkinsMatch_mvl/mxv
 .byte   W03
 .byte   VOL , 11*ToadstoolTourSkinsMatch_mvl/mxv
 .byte   W01
 .byte   N06 ,Cn3 ,v102
 .byte   N06 ,En3
 .byte   N06 ,Gn2
 .byte   W02
 .byte   VOL , 10*ToadstoolTourSkinsMatch_mvl/mxv
 .byte   W03
 .byte   N12 ,Cn3 ,v102
 .byte   N12 ,Gn2
 .byte   N12 ,Dn3
 .byte   VOL , 8*ToadstoolTourSkinsMatch_mvl/mxv
 .byte   W03
 .byte   VOL , 7*ToadstoolTourSkinsMatch_mvl/mxv
 .byte   W03
 .byte   VOL , 6*ToadstoolTourSkinsMatch_mvl/mxv
 .byte   W03
 .byte   VOL , 5*ToadstoolTourSkinsMatch_mvl/mxv
 .byte   N12 ,En3 ,v102
 .byte   N12 ,Gn2
 .byte   N12 ,Cn3
 .byte   W03
 .byte   VOL , 3*ToadstoolTourSkinsMatch_mvl/mxv
 .byte   W03
 .byte   VOL , 2*ToadstoolTourSkinsMatch_mvl/mxv
 .byte   W03
 .byte   VOL , 1*ToadstoolTourSkinsMatch_mvl/mxv
 .byte   W01
 .byte   N18 ,Gn2 ,v102
 .byte   N18 ,Cn3
 .byte   N18 ,En3
 .byte   W02
 .byte   VOL , 0*ToadstoolTourSkinsMatch_mvl/mxv
 .byte   W03
 .byte   VOL , 0*ToadstoolTourSkinsMatch_mvl/mxv
 .byte   W03
 .byte   VOL , 0*ToadstoolTourSkinsMatch_mvl/mxv
 .byte   W03
 .byte   VOL , 0*ToadstoolTourSkinsMatch_mvl/mxv
 .byte   W03
 .byte   VOL , 0*ToadstoolTourSkinsMatch_mvl/mxv
 .byte   N06 ,Dn3 ,v102
 .byte   N06 ,Gn2
 .byte   N06 ,Cn3
 .byte   W03
 .byte   VOL , 0*ToadstoolTourSkinsMatch_mvl/mxv
 .byte   W03
 .byte   VOL , 0*ToadstoolTourSkinsMatch_mvl/mxv
 .byte   W03
@  #05 @085   ----------------------------------------
 .byte   VOL , 0*ToadstoolTourSkinsMatch_mvl/mxv
 .byte   N06 ,Gn2 ,v102
 .byte   N06 ,En3
 .byte   N06 ,Cn3
 .byte   W03
 .byte   VOL , 0*ToadstoolTourSkinsMatch_mvl/mxv
 .byte   W03
 .byte   VOL , 0*ToadstoolTourSkinsMatch_mvl/mxv
 .byte   W03
 .byte   VOL , 0*ToadstoolTourSkinsMatch_mvl/mxv
 .byte   W01
 .byte   N06 ,Cn3 ,v102
 .byte   N06 ,Gn2
 .byte   N06 ,Fn3
 .byte   W02
 .byte   VOL , 0*ToadstoolTourSkinsMatch_mvl/mxv
 .byte   W03
 .byte   VOL , 0*ToadstoolTourSkinsMatch_mvl/mxv
 .byte   W03
 .byte   VOL , 0*ToadstoolTourSkinsMatch_mvl/mxv
 .byte   W02
 .byte   N06 ,Cn3 ,v102
 .byte   N06 ,Fn3
 .byte   N06 ,Gn2
 .byte   W01
 .byte   VOL , 0*ToadstoolTourSkinsMatch_mvl/mxv
 .byte   W03
 .byte   VOL , 0*ToadstoolTourSkinsMatch_mvl/mxv
 .byte   W03
 .byte   VOL , 0*ToadstoolTourSkinsMatch_mvl/mxv
 .byte   W02
 .byte   N06 ,Gn2 ,v102
 .byte   N06 ,Cn3
 .byte   N06 ,En3
 .byte   W01
 .byte   VOL , 0*ToadstoolTourSkinsMatch_mvl/mxv
 .byte   W03
 .byte   VOL , 0*ToadstoolTourSkinsMatch_mvl/mxv
 .byte   W01
 .byte   N12 ,Cn3 ,v102
 .byte   N12 ,Dn3
 .byte   N12 ,Gn2
 .byte   W02
 .byte   VOL , 0*ToadstoolTourSkinsMatch_mvl/mxv
 .byte   W03
 .byte   VOL , 0*ToadstoolTourSkinsMatch_mvl/mxv
 .byte   W03
 .byte   VOL , 0*ToadstoolTourSkinsMatch_mvl/mxv
 .byte   W01
 .byte   N12 ,Gn2 ,v102
 .byte   N12 ,Cn3
 .byte   N12 ,En3
 .byte   W02
 .byte   VOL , 0*ToadstoolTourSkinsMatch_mvl/mxv
 .byte   W03
 .byte   VOL , 0*ToadstoolTourSkinsMatch_mvl/mxv
 .byte   W03
 .byte   VOL , 0*ToadstoolTourSkinsMatch_mvl/mxv
 .byte   W02
 .byte   N18 ,Gn2 ,v102
 .byte   N18 ,En3
 .byte   N18 ,Cn3
 .byte   W01
 .byte   VOL , 0*ToadstoolTourSkinsMatch_mvl/mxv
 .byte   W03
 .byte   VOL , 0*ToadstoolTourSkinsMatch_mvl/mxv
 .byte   W03
 .byte   VOL , 0*ToadstoolTourSkinsMatch_mvl/mxv
 .byte   W03
 .byte   VOL , 0*ToadstoolTourSkinsMatch_mvl/mxv
 .byte   W03
 .byte   VOL , 0*ToadstoolTourSkinsMatch_mvl/mxv
 .byte   W01
 .byte   N06 ,Gn2 ,v102
 .byte   N06 ,Cn3
 .byte   N06 ,Dn3
 .byte   W02
 .byte   VOL , 0*ToadstoolTourSkinsMatch_mvl/mxv
 .byte   W03
 .byte   VOL , 0*ToadstoolTourSkinsMatch_mvl/mxv
 .byte   W03
 .byte   VOL , 0*ToadstoolTourSkinsMatch_mvl/mxv
 .byte   W01
 .byte   N06 ,Cn3 ,v102
 .byte   N06 ,Gn2
 .byte   N06 ,En3
 .byte   W01
 .byte   VOL , 0*ToadstoolTourSkinsMatch_mvl/mxv
 .byte   W03
 .byte   VOL , 0*ToadstoolTourSkinsMatch_mvl/mxv
 .byte   W03
 .byte   VOL , 0*ToadstoolTourSkinsMatch_mvl/mxv
 .byte   W02
 .byte   N06 ,Fn3 ,v102
 .byte   N06 ,Cn3
 .byte   N06 ,Gn2
 .byte   W01
 .byte   VOL , 0*ToadstoolTourSkinsMatch_mvl/mxv
 .byte   W03
 .byte   VOL , 0*ToadstoolTourSkinsMatch_mvl/mxv
 .byte   W03
 .byte   VOL , 0*ToadstoolTourSkinsMatch_mvl/mxv
 .byte   W03
 .byte   N06 ,Gn2 ,v102
 .byte   N06 ,Cn3
 .byte   N06 ,Fn3
 .byte   VOL , 0*ToadstoolTourSkinsMatch_mvl/mxv
 .byte   W03
@  #05 @086   ----------------------------------------
 .byte   VOL , 0*ToadstoolTourSkinsMatch_mvl/mxv
 .byte   W03
 .byte   VOL , 0*ToadstoolTourSkinsMatch_mvl/mxv
 .byte   W03
 .byte   VOL , 0*ToadstoolTourSkinsMatch_mvl/mxv
 .byte   N06 ,Cn3 ,v102
 .byte   N06 ,Gn2
 .byte   N06 ,En3
 .byte   W03
 .byte   VOL , 0*ToadstoolTourSkinsMatch_mvl/mxv
 .byte   W02
 .byte   N12 ,Gn2 ,v102
 .byte   N12 ,Cn3
 .byte   N12 ,Dn3
 .byte   W01
 .byte   VOL , 0*ToadstoolTourSkinsMatch_mvl/mxv
 .byte   W03
 .byte   VOL , 0*ToadstoolTourSkinsMatch_mvl/mxv
 .byte   W03
 .byte   VOL , 0*ToadstoolTourSkinsMatch_mvl/mxv
 .byte   W02
 .byte   N12 ,Gn2 ,v102
 .byte   N12 ,En3
 .byte   N12 ,Cn3
 .byte   VOL , 0*ToadstoolTourSkinsMatch_mvl/mxv
 .byte   W03
 .byte   VOL , 0*ToadstoolTourSkinsMatch_mvl/mxv
 .byte   W03
 .byte   VOL , 0*ToadstoolTourSkinsMatch_mvl/mxv
 .byte   W03
 .byte   N18 ,En3 ,v102
 .byte   N18 ,Gs2
 .byte   N18 ,Cn3
 .byte   VOL , 0*ToadstoolTourSkinsMatch_mvl/mxv
 .byte   W03
 .byte   VOL , 0*ToadstoolTourSkinsMatch_mvl/mxv
 .byte   W03
 .byte   VOL , 0*ToadstoolTourSkinsMatch_mvl/mxv
 .byte   W03
 .byte   VOL , 0*ToadstoolTourSkinsMatch_mvl/mxv
 .byte   W03
 .byte   VOL , 0*ToadstoolTourSkinsMatch_mvl/mxv
 .byte   W02
 .byte   N06 ,Cn3 ,v102
 .byte   N06 ,Dn3
 .byte   N06 ,Gs2
 .byte   W01
 .byte   VOL , 0*ToadstoolTourSkinsMatch_mvl/mxv
 .byte   W03
 .byte   VOL , 0*ToadstoolTourSkinsMatch_mvl/mxv
 .byte   W03
 .byte   VOL , 0*ToadstoolTourSkinsMatch_mvl/mxv
 .byte   W03
 .byte   N06 ,Cn3 ,v102
 .byte   N06 ,En3
 .byte   N06 ,Gs2
 .byte   VOL , 0*ToadstoolTourSkinsMatch_mvl/mxv
 .byte   W03
 .byte   VOL , 0*ToadstoolTourSkinsMatch_mvl/mxv
 .byte   W03
 .byte   VOL , 0*ToadstoolTourSkinsMatch_mvl/mxv
 .byte   W03
 .byte   N06 ,As2 ,v102
 .byte   N06 ,Fn3
 .byte   N06 ,Dn3
 .byte   VOL , 0*ToadstoolTourSkinsMatch_mvl/mxv
 .byte   W03
 .byte   VOL , 0*ToadstoolTourSkinsMatch_mvl/mxv
 .byte   W03
 .byte   VOL , 0*ToadstoolTourSkinsMatch_mvl/mxv
 .byte   W03
 .byte   VOL , 0*ToadstoolTourSkinsMatch_mvl/mxv
 .byte   N06 ,As2 ,v102
 .byte   N06 ,Dn3
 .byte   N06 ,Fn3
 .byte   W03
 .byte   VOL , 0*ToadstoolTourSkinsMatch_mvl/mxv
 .byte   W03
 .byte   VOL , 0*ToadstoolTourSkinsMatch_mvl/mxv
 .byte   W03
 .byte   VOL , 0*ToadstoolTourSkinsMatch_mvl/mxv
 .byte   W01
 .byte   N06 ,Dn3 ,v102
 .byte   N06 ,As2
 .byte   N06 ,En3
 .byte   W02
 .byte   VOL , 0*ToadstoolTourSkinsMatch_mvl/mxv
 .byte   W03
 .byte   N12 ,As2 ,v102
 .byte   N12 ,Dn3
 .byte   VOL , 0*ToadstoolTourSkinsMatch_mvl/mxv
 .byte   W03
 .byte   VOL , 0*ToadstoolTourSkinsMatch_mvl/mxv
 .byte   W03
 .byte   VOL , 0*ToadstoolTourSkinsMatch_mvl/mxv
 .byte   W03
 .byte   VOL , 0*ToadstoolTourSkinsMatch_mvl/mxv
 .byte   N12 ,Dn3 ,v102
 .byte   N12 ,En3
 .byte   N12 ,As2
 .byte   W03
@  #05 @087   ----------------------------------------
 .byte   VOL , 0*ToadstoolTourSkinsMatch_mvl/mxv
 .byte   W03
 .byte   VOL , 0*ToadstoolTourSkinsMatch_mvl/mxv
 .byte   W04
 .byte   FINE

@**************** Track 6 (Midi-Chn.5) ****************@

ToadstoolTourSkinsMatch_006:
@  #06 @000   ----------------------------------------
Label_014D220C:
 .byte   TEMPO , 118*ToadstoolTourSkinsMatch_tbs/2
 .byte   KEYSH , ToadstoolTourSkinsMatch_key+0
 .byte   VOICE , 50
 .byte   VOL , 25*ToadstoolTourSkinsMatch_mvl/mxv
 .byte   PAN , c_v-19
 .byte   W06
 .byte   N48 ,Bn2 ,v102
 .byte   N48 ,Gn3
 .byte   W48
 .byte   An2
 .byte   N48 ,Fs3
 .byte   W48
@  #06 @001   ----------------------------------------
Label_014D2221:
 .byte   N48 ,Cn3 ,v102
 .byte   N48 ,Gn3
 .byte   W48
 .byte   Bn2
 .byte   N48 ,Fs3
 .byte   W48
 .byte   PEND 
@  #06 @002   ----------------------------------------
Label_014D222C:
 .byte   N48 ,Gn2 ,v102
 .byte   N48 ,En3
 .byte   W48
 .byte   An2
 .byte   N48 ,Fs3
 .byte   W48
 .byte   PEND 
@  #06 @003   ----------------------------------------
Label_014D2237:
 .byte   N48 ,As2 ,v102
 .byte   N48 ,Gn3
 .byte   W48
 .byte   An2
 .byte   N48 ,Fn3
 .byte   W48
 .byte   PEND 
@  #06 @004   ----------------------------------------
Label_014D2242:
 .byte   N48 ,Bn2 ,v102
 .byte   N48 ,Gn3
 .byte   W48
 .byte   An2
 .byte   N48 ,Fn3
 .byte   W48
 .byte   PEND 
@  #06 @005   ----------------------------------------
Label_014D224D:
 .byte   N48 ,Gs2 ,v102
 .byte   N48 ,Ds3
 .byte   W48
 .byte   As2
 .byte   N48 ,Fn3
 .byte   W48
 .byte   PEND 
@  #06 @006   ----------------------------------------
Label_014D2258:
 .byte   N24 ,En3 ,v102
 .byte   N24 ,Gn2
 .byte   W24
 .byte   Cn3
 .byte   N24 ,Gn3
 .byte   W24
 .byte   As2
 .byte   N24 ,Fn3
 .byte   W24
 .byte   Dn3
 .byte   N24 ,As3
 .byte   W24
 .byte   PEND 
@  #06 @007   ----------------------------------------
 .byte   N48 ,Ds3 ,v102
 .byte   N48 ,Gn3
 .byte   W48
 .byte   Dn3
 .byte   N48 ,Fn3
 .byte   W48
@  #06 @008   ----------------------------------------
 .byte   Bn2
 .byte   N48 ,Gn3
 .byte   W48
 .byte   An2
 .byte   N48 ,Fs3
 .byte   W48
@  #06 @009   ----------------------------------------
 .byte   PATT
  .word Label_014D2221
@  #06 @010   ----------------------------------------
 .byte   PATT
  .word Label_014D222C
@  #06 @011   ----------------------------------------
 .byte   PATT
  .word Label_014D2237
@  #06 @012   ----------------------------------------
 .byte   PATT
  .word Label_014D2242
@  #06 @013   ----------------------------------------
 .byte   PATT
  .word Label_014D224D
@  #06 @014   ----------------------------------------
 .byte   PATT
  .word Label_014D2258
@  #06 @015   ----------------------------------------
 .byte   N48 ,Ds3 ,v102
 .byte   N48 ,Gn3
 .byte   W48
 .byte   Dn3
 .byte   N48 ,Fn3
 .byte   W42
 .byte   GOTO
  .word Label_014D220C
@  #06 @016   ----------------------------------------
 .byte   W06
Label_014D22AB:
 .byte   N48 ,Gn4 ,v102
 .byte   W48
 .byte   Cn4
 .byte   W48
 .byte   PEND 
@  #06 @017   ----------------------------------------
Label_014D22B2:
 .byte   N48 ,Gn4 ,v102
 .byte   W48
 .byte   Cn5
 .byte   W48
 .byte   PEND 
@  #06 @018   ----------------------------------------
Label_014D22B9:
 .byte   N48 ,Cn5 ,v102
 .byte   W48
 .byte   N24 ,Gn4
 .byte   W24
 .byte   Cn5
 .byte   W24
 .byte   PEND 
@  #06 @019   ----------------------------------------
Label_014D22C3:
 .byte   N48 ,Cn5 ,v102
 .byte   W48
 .byte   As4
 .byte   W48
 .byte   PEND 
@  #06 @020   ----------------------------------------
 .byte   PATT
  .word Label_014D22AB
@  #06 @021   ----------------------------------------
 .byte   PATT
  .word Label_014D22B2
@  #06 @022   ----------------------------------------
 .byte   PATT
  .word Label_014D22B9
@  #06 @023   ----------------------------------------
 .byte   PATT
  .word Label_014D22C3
@  #06 @024   ----------------------------------------
 .byte   N48 ,Cn4 ,v102
 .byte   N96 ,Gs3
 .byte   W48
 .byte   N48 ,Fn4
 .byte   W48
@  #06 @025   ----------------------------------------
 .byte   En4
 .byte   N96 ,Gn3
 .byte   W48
 .byte   N48 ,Cn4
 .byte   W48
@  #06 @026   ----------------------------------------
 .byte   As3
 .byte   N96 ,Gs3
 .byte   W48
 .byte   N48 ,Cn4
 .byte   W48
@  #06 @027   ----------------------------------------
Label_014D22F5:
 .byte   N48 ,En4 ,v102
 .byte   N96 ,Gn3
 .byte   W48
 .byte   N48 ,Gn4
 .byte   W48
 .byte   PEND 
@  #06 @028   ----------------------------------------
 .byte   N48 ,Gs4 ,v102
 .byte   N96 ,Gs3
 .byte   W48
 .byte   N48 ,Cn5
 .byte   W48
@  #06 @029   ----------------------------------------
 .byte   Cn5
 .byte   N96 ,Gn3
 .byte   W48
 .byte   N48 ,Gn4
 .byte   W48
@  #06 @030   ----------------------------------------
 .byte   Fn4
 .byte   N96 ,Gs3
 .byte   W48
 .byte   N48 ,Cn4
 .byte   W48
@  #06 @031   ----------------------------------------
 .byte   PATT
  .word Label_014D22F5
@  #06 @032   ----------------------------------------
 .byte   PATT
  .word Label_014D224D
@  #06 @033   ----------------------------------------
Label_014D2320:
 .byte   N48 ,Cn3 ,v102
 .byte   N48 ,Gn3
 .byte   W48
 .byte   En3
 .byte   N48 ,Bn3
 .byte   W48
 .byte   PEND 
@  #06 @034   ----------------------------------------
Label_014D232B:
 .byte   N48 ,Ds3 ,v102
 .byte   N48 ,As3
 .byte   W48
 .byte   Fn3
 .byte   N48 ,Cn4
 .byte   W48
 .byte   PEND 
@  #06 @035   ----------------------------------------
 .byte   N48 ,Dn3 ,v102
 .byte   N48 ,Bn3
 .byte   W48
 .byte   Bn2
 .byte   N48 ,Gn3
 .byte   W48
@  #06 @036   ----------------------------------------
 .byte   PATT
  .word Label_014D224D
@  #06 @037   ----------------------------------------
 .byte   PATT
  .word Label_014D2320
@  #06 @038   ----------------------------------------
 .byte   PATT
  .word Label_014D232B
@  #06 @039   ----------------------------------------
 .byte   N48 ,En3 ,v102
 .byte   N48 ,Bn3
 .byte   W48
 .byte   Bn2
 .byte   N48 ,Gn3
 .byte   W48
@  #06 @040   ----------------------------------------
 .byte   VOL , 25*ToadstoolTourSkinsMatch_mvl/mxv
 .byte   PAN , c_v-19
 .byte   N48 ,Gn4 ,v102
 .byte   W48
 .byte   Cn4
 .byte   W48
@  #06 @041   ----------------------------------------
 .byte   Gn4
 .byte   W48
 .byte   Cn5
 .byte   W48
@  #06 @042   ----------------------------------------
 .byte   Cn5
 .byte   W48
 .byte   N24 ,Gn4
 .byte   W24
 .byte   Cn5
 .byte   W24
@  #06 @043   ----------------------------------------
 .byte   N48
 .byte   W48
 .byte   As4
 .byte   W48
@  #06 @044   ----------------------------------------
 .byte   Bn2
 .byte   N48 ,Gn3
 .byte   W48
 .byte   An2
 .byte   N48 ,Fs3
 .byte   W48
@  #06 @045   ----------------------------------------
 .byte   Cn3
 .byte   N48 ,Gn3
 .byte   W48
 .byte   Bn2
 .byte   N48 ,Fs3
 .byte   W48
@  #06 @046   ----------------------------------------
 .byte   Gn2
 .byte   N48 ,En3
 .byte   W48
 .byte   An2
 .byte   N48 ,Fs3
 .byte   W48
@  #06 @047   ----------------------------------------
 .byte   As2
 .byte   N48 ,Gn3
 .byte   W48
 .byte   An2
 .byte   N48 ,Fn3
 .byte   W48
@  #06 @048   ----------------------------------------
 .byte   Bn2
 .byte   N48 ,Gn3
 .byte   W48
 .byte   An2
 .byte   N48 ,Fn3
 .byte   W48
@  #06 @049   ----------------------------------------
 .byte   Gs2
 .byte   N48 ,Ds3
 .byte   W48
 .byte   As2
 .byte   N48 ,Fn3
 .byte   W48
@  #06 @050   ----------------------------------------
 .byte   N24 ,En3
 .byte   N24 ,Gn2
 .byte   W24
 .byte   Cn3
 .byte   N24 ,Gn3
 .byte   W24
 .byte   As2
 .byte   N24 ,Fn3
 .byte   W24
 .byte   Dn3
 .byte   N24 ,As3
 .byte   W24
@  #06 @051   ----------------------------------------
 .byte   N48 ,Ds3
 .byte   N48 ,Gn3
 .byte   W48
 .byte   Dn3
 .byte   N48 ,Fn3
 .byte   W48
@  #06 @052   ----------------------------------------
 .byte   Bn2
 .byte   N48 ,Gn3
 .byte   W48
 .byte   An2
 .byte   N48 ,Fs3
 .byte   W48
@  #06 @053   ----------------------------------------
 .byte   Cn3
 .byte   N48 ,Gn3
 .byte   W48
 .byte   Bn2
 .byte   N48 ,Fs3
 .byte   W48
@  #06 @054   ----------------------------------------
 .byte   Gn2
 .byte   N48 ,En3
 .byte   W48
 .byte   An2
 .byte   N48 ,Fs3
 .byte   W48
@  #06 @055   ----------------------------------------
 .byte   As2
 .byte   N48 ,Gn3
 .byte   W48
 .byte   An2
 .byte   N48 ,Fn3
 .byte   W48
@  #06 @056   ----------------------------------------
 .byte   Bn2
 .byte   N48 ,Gn3
 .byte   W48
 .byte   An2
 .byte   N48 ,Fn3
 .byte   W48
@  #06 @057   ----------------------------------------
 .byte   Gs2
 .byte   N48 ,Ds3
 .byte   W48
 .byte   As2
 .byte   N48 ,Fn3
 .byte   W48
@  #06 @058   ----------------------------------------
 .byte   N24 ,En3
 .byte   N24 ,Gn2
 .byte   W24
 .byte   Cn3
 .byte   N24 ,Gn3
 .byte   W24
 .byte   As2
 .byte   N24 ,Fn3
 .byte   W24
 .byte   Dn3
 .byte   N24 ,As3
 .byte   W24
@  #06 @059   ----------------------------------------
 .byte   N48 ,Ds3
 .byte   N48 ,Gn3
 .byte   W48
 .byte   Dn3
 .byte   N48 ,Fn3
 .byte   W48
@  #06 @060   ----------------------------------------
 .byte   Gn4
 .byte   W48
 .byte   Cn4
 .byte   W48
@  #06 @061   ----------------------------------------
 .byte   Gn4
 .byte   W48
 .byte   Cn5
 .byte   W48
@  #06 @062   ----------------------------------------
 .byte   Cn5
 .byte   W48
 .byte   N24 ,Gn4
 .byte   W24
 .byte   Cn5
 .byte   W24
@  #06 @063   ----------------------------------------
 .byte   N48
 .byte   W48
 .byte   As4
 .byte   W48
@  #06 @064   ----------------------------------------
 .byte   Gn4
 .byte   W48
 .byte   Cn4
 .byte   W48
@  #06 @065   ----------------------------------------
 .byte   Gn4
 .byte   W48
 .byte   Cn5
 .byte   W48
@  #06 @066   ----------------------------------------
 .byte   Cn5
 .byte   W48
 .byte   N24 ,Gn4
 .byte   W24
 .byte   Cn5
 .byte   W24
@  #06 @067   ----------------------------------------
 .byte   N48
 .byte   W48
 .byte   As4
 .byte   W48
@  #06 @068   ----------------------------------------
 .byte   Cn4
 .byte   N96 ,Gs3
 .byte   W48
 .byte   N48 ,Fn4
 .byte   W48
@  #06 @069   ----------------------------------------
 .byte   En4
 .byte   N96 ,Gn3
 .byte   W48
 .byte   N48 ,Cn4
 .byte   W48
@  #06 @070   ----------------------------------------
 .byte   As3
 .byte   N96 ,Gs3
 .byte   W48
 .byte   N48 ,Cn4
 .byte   W48
@  #06 @071   ----------------------------------------
 .byte   En4
 .byte   N96 ,Gn3
 .byte   W48
 .byte   N48 ,Gn4
 .byte   W48
@  #06 @072   ----------------------------------------
 .byte   Gs4
 .byte   N96 ,Gs3
 .byte   W48
 .byte   N48 ,Cn5
 .byte   W48
@  #06 @073   ----------------------------------------
 .byte   Cn5
 .byte   N96 ,Gn3
 .byte   W48
 .byte   N48 ,Gn4
 .byte   W48
@  #06 @074   ----------------------------------------
 .byte   Fn4
 .byte   N96 ,Gs3
 .byte   W48
 .byte   N48 ,Cn4
 .byte   W48
@  #06 @075   ----------------------------------------
 .byte   En4
 .byte   N96 ,Gn3
 .byte   W48
 .byte   N48 ,Gn4
 .byte   W48
@  #06 @076   ----------------------------------------
 .byte   Gs2
 .byte   N48 ,Ds3
 .byte   W48
 .byte   As2
 .byte   N48 ,Fn3
 .byte   W48
@  #06 @077   ----------------------------------------
 .byte   Cn3
 .byte   N48 ,Gn3
 .byte   W48
 .byte   En3
 .byte   N48 ,Bn3
 .byte   W48
@  #06 @078   ----------------------------------------
 .byte   Ds3
 .byte   N48 ,As3
 .byte   W48
 .byte   Fn3
 .byte   N48 ,Cn4
 .byte   W48
@  #06 @079   ----------------------------------------
 .byte   Dn3
 .byte   N48 ,Bn3
 .byte   W48
 .byte   Bn2
 .byte   N48 ,Gn3
 .byte   W48
@  #06 @080   ----------------------------------------
 .byte   Gs2
 .byte   N48 ,Ds3
 .byte   W48
 .byte   As2
 .byte   N48 ,Fn3
 .byte   W48
@  #06 @081   ----------------------------------------
 .byte   Cn3
 .byte   N48 ,Gn3
 .byte   W48
 .byte   En3
 .byte   N48 ,Bn3
 .byte   W48
@  #06 @082   ----------------------------------------
 .byte   Ds3
 .byte   N48 ,As3
 .byte   W48
 .byte   Fn3
 .byte   N48 ,Cn4
 .byte   W48
@  #06 @083   ----------------------------------------
 .byte   En3
 .byte   N48 ,Bn3
 .byte   W48
 .byte   Bn2
 .byte   N48 ,Gn3
 .byte   W48
@  #06 @084   ----------------------------------------
 .byte   VOL , 24*ToadstoolTourSkinsMatch_mvl/mxv
 .byte   PAN , c_v-19
 .byte   N48 ,Gn4 ,v102
 .byte   W04
 .byte   VOL , 23*ToadstoolTourSkinsMatch_mvl/mxv
 .byte   W04
 .byte   VOL , 21*ToadstoolTourSkinsMatch_mvl/mxv
 .byte   W04
 .byte   VOL , 20*ToadstoolTourSkinsMatch_mvl/mxv
 .byte   W04
 .byte   VOL , 19*ToadstoolTourSkinsMatch_mvl/mxv
 .byte   W04
 .byte   VOL , 17*ToadstoolTourSkinsMatch_mvl/mxv
 .byte   W04
 .byte   VOL , 16*ToadstoolTourSkinsMatch_mvl/mxv
 .byte   W04
 .byte   VOL , 15*ToadstoolTourSkinsMatch_mvl/mxv
 .byte   W04
 .byte   VOL , 13*ToadstoolTourSkinsMatch_mvl/mxv
 .byte   W04
 .byte   VOL , 12*ToadstoolTourSkinsMatch_mvl/mxv
 .byte   W04
 .byte   VOL , 11*ToadstoolTourSkinsMatch_mvl/mxv
 .byte   W04
 .byte   VOL , 10*ToadstoolTourSkinsMatch_mvl/mxv
 .byte   W03
 .byte   N48 ,Cn4 ,v102
 .byte   VOL , 8*ToadstoolTourSkinsMatch_mvl/mxv
 .byte   W04
 .byte   VOL , 7*ToadstoolTourSkinsMatch_mvl/mxv
 .byte   W04
 .byte   VOL , 6*ToadstoolTourSkinsMatch_mvl/mxv
 .byte   W04
 .byte   VOL , 5*ToadstoolTourSkinsMatch_mvl/mxv
 .byte   W04
 .byte   VOL , 3*ToadstoolTourSkinsMatch_mvl/mxv
 .byte   W04
 .byte   VOL , 2*ToadstoolTourSkinsMatch_mvl/mxv
 .byte   W04
 .byte   VOL , 1*ToadstoolTourSkinsMatch_mvl/mxv
 .byte   W04
 .byte   VOL , 0*ToadstoolTourSkinsMatch_mvl/mxv
 .byte   W04
 .byte   VOL , 0*ToadstoolTourSkinsMatch_mvl/mxv
 .byte   W04
 .byte   VOL , 0*ToadstoolTourSkinsMatch_mvl/mxv
 .byte   W04
 .byte   VOL , 0*ToadstoolTourSkinsMatch_mvl/mxv
 .byte   W04
 .byte   VOL , 0*ToadstoolTourSkinsMatch_mvl/mxv
 .byte   W02
 .byte   N48 ,Gn4 ,v102
 .byte   W01
 .byte   VOL , 0*ToadstoolTourSkinsMatch_mvl/mxv
 .byte   W04
@  #06 @085   ----------------------------------------
 .byte   VOL , 0*ToadstoolTourSkinsMatch_mvl/mxv
 .byte   W04
 .byte   VOL , 0*ToadstoolTourSkinsMatch_mvl/mxv
 .byte   W04
 .byte   VOL , 0*ToadstoolTourSkinsMatch_mvl/mxv
 .byte   W04
 .byte   VOL , 0*ToadstoolTourSkinsMatch_mvl/mxv
 .byte   W04
 .byte   VOL , 0*ToadstoolTourSkinsMatch_mvl/mxv
 .byte   W04
 .byte   VOL , 0*ToadstoolTourSkinsMatch_mvl/mxv
 .byte   W04
 .byte   VOL , 0*ToadstoolTourSkinsMatch_mvl/mxv
 .byte   W04
 .byte   VOL , 0*ToadstoolTourSkinsMatch_mvl/mxv
 .byte   W04
 .byte   VOL , 0*ToadstoolTourSkinsMatch_mvl/mxv
 .byte   W04
 .byte   VOL , 0*ToadstoolTourSkinsMatch_mvl/mxv
 .byte   W04
 .byte   VOL , 0*ToadstoolTourSkinsMatch_mvl/mxv
 .byte   W01
 .byte   N48 ,Cn5 ,v102
 .byte   W02
 .byte   VOL , 0*ToadstoolTourSkinsMatch_mvl/mxv
 .byte   W04
 .byte   VOL , 0*ToadstoolTourSkinsMatch_mvl/mxv
 .byte   W04
 .byte   VOL , 0*ToadstoolTourSkinsMatch_mvl/mxv
 .byte   W04
 .byte   VOL , 0*ToadstoolTourSkinsMatch_mvl/mxv
 .byte   W04
 .byte   VOL , 0*ToadstoolTourSkinsMatch_mvl/mxv
 .byte   W04
 .byte   VOL , 0*ToadstoolTourSkinsMatch_mvl/mxv
 .byte   W04
 .byte   VOL , 0*ToadstoolTourSkinsMatch_mvl/mxv
 .byte   W04
 .byte   VOL , 0*ToadstoolTourSkinsMatch_mvl/mxv
 .byte   W04
 .byte   VOL , 0*ToadstoolTourSkinsMatch_mvl/mxv
 .byte   W04
 .byte   VOL , 0*ToadstoolTourSkinsMatch_mvl/mxv
 .byte   W04
 .byte   VOL , 0*ToadstoolTourSkinsMatch_mvl/mxv
 .byte   W04
 .byte   VOL , 0*ToadstoolTourSkinsMatch_mvl/mxv
 .byte   N48 ,Cn5 ,v102
 .byte   W03
 .byte   VOL , 0*ToadstoolTourSkinsMatch_mvl/mxv
 .byte   W04
 .byte   VOL , 0*ToadstoolTourSkinsMatch_mvl/mxv
 .byte   W04
@  #06 @086   ----------------------------------------
 .byte   VOL , 0*ToadstoolTourSkinsMatch_mvl/mxv
 .byte   W04
 .byte   VOL , 0*ToadstoolTourSkinsMatch_mvl/mxv
 .byte   W04
 .byte   VOL , 0*ToadstoolTourSkinsMatch_mvl/mxv
 .byte   W04
 .byte   VOL , 0*ToadstoolTourSkinsMatch_mvl/mxv
 .byte   W04
 .byte   VOL , 0*ToadstoolTourSkinsMatch_mvl/mxv
 .byte   W04
 .byte   VOL , 0*ToadstoolTourSkinsMatch_mvl/mxv
 .byte   W04
 .byte   VOL , 0*ToadstoolTourSkinsMatch_mvl/mxv
 .byte   W04
 .byte   VOL , 0*ToadstoolTourSkinsMatch_mvl/mxv
 .byte   W04
 .byte   VOL , 0*ToadstoolTourSkinsMatch_mvl/mxv
 .byte   W03
 .byte   N24 ,Gn4 ,v102
 .byte   VOL , 0*ToadstoolTourSkinsMatch_mvl/mxv
 .byte   W04
 .byte   VOL , 0*ToadstoolTourSkinsMatch_mvl/mxv
 .byte   W04
 .byte   VOL , 0*ToadstoolTourSkinsMatch_mvl/mxv
 .byte   W04
 .byte   VOL , 0*ToadstoolTourSkinsMatch_mvl/mxv
 .byte   W04
 .byte   VOL , 0*ToadstoolTourSkinsMatch_mvl/mxv
 .byte   W04
 .byte   VOL , 0*ToadstoolTourSkinsMatch_mvl/mxv
 .byte   W03
 .byte   N24 ,Cn5 ,v102
 .byte   VOL , 0*ToadstoolTourSkinsMatch_mvl/mxv
 .byte   W04
 .byte   VOL , 0*ToadstoolTourSkinsMatch_mvl/mxv
 .byte   W04
 .byte   VOL , 0*ToadstoolTourSkinsMatch_mvl/mxv
 .byte   W04
 .byte   VOL , 0*ToadstoolTourSkinsMatch_mvl/mxv
 .byte   W04
 .byte   VOL , 0*ToadstoolTourSkinsMatch_mvl/mxv
 .byte   W04
 .byte   VOL , 0*ToadstoolTourSkinsMatch_mvl/mxv
 .byte   W02
 .byte   N48 ,Cn5 ,v102
 .byte   W01
 .byte   VOL , 0*ToadstoolTourSkinsMatch_mvl/mxv
 .byte   W04
 .byte   VOL , 0*ToadstoolTourSkinsMatch_mvl/mxv
 .byte   W04
 .byte   VOL , 0*ToadstoolTourSkinsMatch_mvl/mxv
 .byte   W04
 .byte   VOL , 0*ToadstoolTourSkinsMatch_mvl/mxv
 .byte   W04
@  #06 @087   ----------------------------------------
 .byte   VOL , 0*ToadstoolTourSkinsMatch_mvl/mxv
 .byte   W04
 .byte   VOL , 0*ToadstoolTourSkinsMatch_mvl/mxv
 .byte   W04
 .byte   VOL , 0*ToadstoolTourSkinsMatch_mvl/mxv
 .byte   W04
 .byte   VOL , 0*ToadstoolTourSkinsMatch_mvl/mxv
 .byte   W04
 .byte   VOL , 0*ToadstoolTourSkinsMatch_mvl/mxv
 .byte   W04
 .byte   VOL , 0*ToadstoolTourSkinsMatch_mvl/mxv
 .byte   W04
 .byte   VOL , 0*ToadstoolTourSkinsMatch_mvl/mxv
 .byte   W04
 .byte   VOL , 0*ToadstoolTourSkinsMatch_mvl/mxv
 .byte   W01
 .byte   N48 ,As4 ,v102
 .byte   W02
 .byte   VOL , 0*ToadstoolTourSkinsMatch_mvl/mxv
 .byte   W04
 .byte   VOL , 0*ToadstoolTourSkinsMatch_mvl/mxv
 .byte   W04
 .byte   VOL , 0*ToadstoolTourSkinsMatch_mvl/mxv
 .byte   W04
 .byte   VOL , 0*ToadstoolTourSkinsMatch_mvl/mxv
 .byte   W04
 .byte   VOL , 0*ToadstoolTourSkinsMatch_mvl/mxv
 .byte   W04
 .byte   VOL , 0*ToadstoolTourSkinsMatch_mvl/mxv
 .byte   W04
 .byte   VOL , 0*ToadstoolTourSkinsMatch_mvl/mxv
 .byte   W04
 .byte   VOL , 0*ToadstoolTourSkinsMatch_mvl/mxv
 .byte   W04
 .byte   VOL , 0*ToadstoolTourSkinsMatch_mvl/mxv
 .byte   W04
 .byte   VOL , 0*ToadstoolTourSkinsMatch_mvl/mxv
 .byte   W04
 .byte   VOL , 0*ToadstoolTourSkinsMatch_mvl/mxv
 .byte   W04
 .byte   FINE

@**************** Track 7 (Midi-Chn.6) ****************@

ToadstoolTourSkinsMatch_007:
@  #07 @000   ----------------------------------------
Label_014B7454:
 .byte   TEMPO , 118*ToadstoolTourSkinsMatch_tbs/2
 .byte   KEYSH , ToadstoolTourSkinsMatch_key+0
 .byte   VOICE , 7
 .byte   VOL , 27*ToadstoolTourSkinsMatch_mvl/mxv
 .byte   PAN , c_v-39
 .byte   N06 ,Cn5 ,v102
 .byte   W96
@  #07 @001   ----------------------------------------
 .byte   W96
@  #07 @002   ----------------------------------------
 .byte   W96
@  #07 @003   ----------------------------------------
 .byte   W96
@  #07 @004   ----------------------------------------
 .byte   W96
@  #07 @005   ----------------------------------------
 .byte   W96
@  #07 @006   ----------------------------------------
 .byte   W96
@  #07 @007   ----------------------------------------
 .byte   W96
@  #07 @008   ----------------------------------------
 .byte   W96
@  #07 @009   ----------------------------------------
 .byte   W96
@  #07 @010   ----------------------------------------
 .byte   W96
@  #07 @011   ----------------------------------------
 .byte   W96
@  #07 @012   ----------------------------------------
 .byte   W96
@  #07 @013   ----------------------------------------
 .byte   W96
@  #07 @014   ----------------------------------------
 .byte   W96
@  #07 @015   ----------------------------------------
 .byte   W96
@  #07 @016   ----------------------------------------
 .byte   GOTO
  .word Label_014B7454
@  #07 @017   ----------------------------------------
 .byte   W06
 .byte   N06 ,Cn4 ,v102
 .byte   W06
 .byte   Cn4
 .byte   W06
 .byte   Cn5
 .byte   W06
 .byte   Cn4
 .byte   W06
 .byte   Cn5
 .byte   W06
 .byte   Cn4
 .byte   W06
 .byte   Cn4
 .byte   W06
 .byte   Cn5
 .byte   W06
 .byte   Cn4
 .byte   W06
 .byte   Cn4
 .byte   W06
 .byte   Cn5
 .byte   W06
 .byte   Cn4
 .byte   W06
 .byte   Cn5
 .byte   W06
 .byte   Cn4
 .byte   W06
 .byte   Cn4
 .byte   W06
@  #07 @018   ----------------------------------------
Label_014B7497:
 .byte   N06 ,Cn5 ,v102
 .byte   W06
 .byte   Cn4
 .byte   W06
 .byte   Cn4
 .byte   W06
 .byte   Cn5
 .byte   W06
 .byte   Cn4
 .byte   W06
 .byte   Cn5
 .byte   W06
 .byte   Cn4
 .byte   W06
 .byte   Cn4
 .byte   W06
 .byte   Cn5
 .byte   W06
 .byte   Cn4
 .byte   W06
 .byte   Cn4
 .byte   W06
 .byte   Cn5
 .byte   W06
 .byte   Cn4
 .byte   W06
 .byte   Cn5
 .byte   W06
 .byte   Cn4
 .byte   W06
 .byte   Cn4
 .byte   W06
 .byte   PEND 
@  #07 @019   ----------------------------------------
 .byte   PATT
  .word Label_014B7497
@  #07 @020   ----------------------------------------
 .byte   PATT
  .word Label_014B7497
@  #07 @021   ----------------------------------------
 .byte   PATT
  .word Label_014B7497
@  #07 @022   ----------------------------------------
 .byte   PATT
  .word Label_014B7497
@  #07 @023   ----------------------------------------
 .byte   PATT
  .word Label_014B7497
@  #07 @024   ----------------------------------------
 .byte   PATT
  .word Label_014B7497
@  #07 @025   ----------------------------------------
 .byte   N06 ,Cn5 ,v102
 .byte   W96
@  #07 @026   ----------------------------------------
 .byte   W96
@  #07 @027   ----------------------------------------
 .byte   W96
@  #07 @028   ----------------------------------------
 .byte   W96
@  #07 @029   ----------------------------------------
 .byte   W96
@  #07 @030   ----------------------------------------
 .byte   W96
@  #07 @031   ----------------------------------------
 .byte   W96
@  #07 @032   ----------------------------------------
 .byte   W96
@  #07 @033   ----------------------------------------
 .byte   W96
@  #07 @034   ----------------------------------------
 .byte   W96
@  #07 @035   ----------------------------------------
 .byte   W96
@  #07 @036   ----------------------------------------
 .byte   W96
@  #07 @037   ----------------------------------------
 .byte   W96
@  #07 @038   ----------------------------------------
 .byte   W96
@  #07 @039   ----------------------------------------
 .byte   W96
@  #07 @040   ----------------------------------------
 .byte   W96
@  #07 @041   ----------------------------------------
 .byte   W06
 .byte   VOL , 27*ToadstoolTourSkinsMatch_mvl/mxv
 .byte   PAN , c_v-39
 .byte   N06 ,Cn4 ,v102
 .byte   W06
 .byte   Cn4
 .byte   W06
 .byte   Cn5
 .byte   W06
 .byte   Cn4
 .byte   W06
 .byte   Cn5
 .byte   W06
 .byte   Cn4
 .byte   W06
 .byte   Cn4
 .byte   W06
 .byte   Cn5
 .byte   W06
 .byte   Cn4
 .byte   W06
 .byte   Cn4
 .byte   W06
 .byte   Cn5
 .byte   W06
 .byte   Cn4
 .byte   W06
 .byte   Cn5
 .byte   W06
 .byte   Cn4
 .byte   W06
 .byte   Cn4
 .byte   W06
@  #07 @042   ----------------------------------------
 .byte   Cn5
 .byte   W06
 .byte   Cn4
 .byte   W06
 .byte   Cn4
 .byte   W06
 .byte   Cn5
 .byte   W06
 .byte   Cn4
 .byte   W06
 .byte   Cn5
 .byte   W06
 .byte   Cn4
 .byte   W06
 .byte   Cn4
 .byte   W06
 .byte   Cn5
 .byte   W06
 .byte   Cn4
 .byte   W06
 .byte   Cn4
 .byte   W06
 .byte   Cn5
 .byte   W06
 .byte   Cn4
 .byte   W06
 .byte   Cn5
 .byte   W06
 .byte   Cn4
 .byte   W06
 .byte   Cn4
 .byte   W06
@  #07 @043   ----------------------------------------
 .byte   Cn5
 .byte   W06
 .byte   Cn4
 .byte   W06
 .byte   Cn4
 .byte   W06
 .byte   Cn5
 .byte   W06
 .byte   Cn4
 .byte   W06
 .byte   Cn5
 .byte   W06
 .byte   Cn4
 .byte   W06
 .byte   Cn4
 .byte   W06
 .byte   Cn5
 .byte   W06
 .byte   Cn4
 .byte   W06
 .byte   Cn4
 .byte   W06
 .byte   Cn5
 .byte   W06
 .byte   Cn4
 .byte   W06
 .byte   Cn5
 .byte   W06
 .byte   Cn4
 .byte   W06
 .byte   Cn4
 .byte   W06
@  #07 @044   ----------------------------------------
 .byte   Cn5
 .byte   W06
 .byte   Cn4
 .byte   W06
 .byte   Cn4
 .byte   W06
 .byte   Cn5
 .byte   W06
 .byte   Cn4
 .byte   W06
 .byte   Cn5
 .byte   W06
 .byte   Cn4
 .byte   W06
 .byte   Cn4
 .byte   W06
 .byte   Cn5
 .byte   W06
 .byte   Cn4
 .byte   W06
 .byte   Cn4
 .byte   W06
 .byte   Cn5
 .byte   W06
 .byte   Cn4
 .byte   W06
 .byte   Cn5
 .byte   W06
 .byte   Cn4
 .byte   W06
 .byte   Cn4
 .byte   W06
@  #07 @045   ----------------------------------------
 .byte   Cn5
 .byte   W96
@  #07 @046   ----------------------------------------
 .byte   W96
@  #07 @047   ----------------------------------------
 .byte   W96
@  #07 @048   ----------------------------------------
 .byte   W96
@  #07 @049   ----------------------------------------
 .byte   W96
@  #07 @050   ----------------------------------------
 .byte   W96
@  #07 @051   ----------------------------------------
 .byte   W96
@  #07 @052   ----------------------------------------
 .byte   W96
@  #07 @053   ----------------------------------------
 .byte   W96
@  #07 @054   ----------------------------------------
 .byte   W96
@  #07 @055   ----------------------------------------
 .byte   W96
@  #07 @056   ----------------------------------------
 .byte   W96
@  #07 @057   ----------------------------------------
 .byte   W96
@  #07 @058   ----------------------------------------
 .byte   W96
@  #07 @059   ----------------------------------------
 .byte   W96
@  #07 @060   ----------------------------------------
 .byte   W96
@  #07 @061   ----------------------------------------
 .byte   W06
 .byte   Cn4
 .byte   W06
 .byte   Cn4
 .byte   W06
 .byte   Cn5
 .byte   W06
 .byte   Cn4
 .byte   W06
 .byte   Cn5
 .byte   W06
 .byte   Cn4
 .byte   W06
 .byte   Cn4
 .byte   W06
 .byte   Cn5
 .byte   W06
 .byte   Cn4
 .byte   W06
 .byte   Cn4
 .byte   W06
 .byte   Cn5
 .byte   W06
 .byte   Cn4
 .byte   W06
 .byte   Cn5
 .byte   W06
 .byte   Cn4
 .byte   W06
 .byte   Cn4
 .byte   W06
@  #07 @062   ----------------------------------------
 .byte   Cn5
 .byte   W06
 .byte   Cn4
 .byte   W06
 .byte   Cn4
 .byte   W06
 .byte   Cn5
 .byte   W06
 .byte   Cn4
 .byte   W06
 .byte   Cn5
 .byte   W06
 .byte   Cn4
 .byte   W06
 .byte   Cn4
 .byte   W06
 .byte   Cn5
 .byte   W06
 .byte   Cn4
 .byte   W06
 .byte   Cn4
 .byte   W06
 .byte   Cn5
 .byte   W06
 .byte   Cn4
 .byte   W06
 .byte   Cn5
 .byte   W06
 .byte   Cn4
 .byte   W06
 .byte   Cn4
 .byte   W06
@  #07 @063   ----------------------------------------
 .byte   Cn5
 .byte   W06
 .byte   Cn4
 .byte   W06
 .byte   Cn4
 .byte   W06
 .byte   Cn5
 .byte   W06
 .byte   Cn4
 .byte   W06
 .byte   Cn5
 .byte   W06
 .byte   Cn4
 .byte   W06
 .byte   Cn4
 .byte   W06
 .byte   Cn5
 .byte   W06
 .byte   Cn4
 .byte   W06
 .byte   Cn4
 .byte   W06
 .byte   Cn5
 .byte   W06
 .byte   Cn4
 .byte   W06
 .byte   Cn5
 .byte   W06
 .byte   Cn4
 .byte   W06
 .byte   Cn4
 .byte   W06
@  #07 @064   ----------------------------------------
 .byte   Cn5
 .byte   W06
 .byte   Cn4
 .byte   W06
 .byte   Cn4
 .byte   W06
 .byte   Cn5
 .byte   W06
 .byte   Cn4
 .byte   W06
 .byte   Cn5
 .byte   W06
 .byte   Cn4
 .byte   W06
 .byte   Cn4
 .byte   W06
 .byte   Cn5
 .byte   W06
 .byte   Cn4
 .byte   W06
 .byte   Cn4
 .byte   W06
 .byte   Cn5
 .byte   W06
 .byte   Cn4
 .byte   W06
 .byte   Cn5
 .byte   W06
 .byte   Cn4
 .byte   W06
 .byte   Cn4
 .byte   W06
@  #07 @065   ----------------------------------------
 .byte   Cn5
 .byte   W06
 .byte   Cn4
 .byte   W06
 .byte   Cn4
 .byte   W06
 .byte   Cn5
 .byte   W06
 .byte   Cn4
 .byte   W06
 .byte   Cn5
 .byte   W06
 .byte   Cn4
 .byte   W06
 .byte   Cn4
 .byte   W06
 .byte   Cn5
 .byte   W06
 .byte   Cn4
 .byte   W06
 .byte   Cn4
 .byte   W06
 .byte   Cn5
 .byte   W06
 .byte   Cn4
 .byte   W06
 .byte   Cn5
 .byte   W06
 .byte   Cn4
 .byte   W06
 .byte   Cn4
 .byte   W06
@  #07 @066   ----------------------------------------
 .byte   Cn5
 .byte   W06
 .byte   Cn4
 .byte   W06
 .byte   Cn4
 .byte   W06
 .byte   Cn5
 .byte   W06
 .byte   Cn4
 .byte   W06
 .byte   Cn5
 .byte   W06
 .byte   Cn4
 .byte   W06
 .byte   Cn4
 .byte   W06
 .byte   Cn5
 .byte   W06
 .byte   Cn4
 .byte   W06
 .byte   Cn4
 .byte   W06
 .byte   Cn5
 .byte   W06
 .byte   Cn4
 .byte   W06
 .byte   Cn5
 .byte   W06
 .byte   Cn4
 .byte   W06
 .byte   Cn4
 .byte   W06
@  #07 @067   ----------------------------------------
 .byte   Cn5
 .byte   W06
 .byte   Cn4
 .byte   W06
 .byte   Cn4
 .byte   W06
 .byte   Cn5
 .byte   W06
 .byte   Cn4
 .byte   W06
 .byte   Cn5
 .byte   W06
 .byte   Cn4
 .byte   W06
 .byte   Cn4
 .byte   W06
 .byte   Cn5
 .byte   W06
 .byte   Cn4
 .byte   W06
 .byte   Cn4
 .byte   W06
 .byte   Cn5
 .byte   W06
 .byte   Cn4
 .byte   W06
 .byte   Cn5
 .byte   W06
 .byte   Cn4
 .byte   W06
 .byte   Cn4
 .byte   W06
@  #07 @068   ----------------------------------------
 .byte   Cn5
 .byte   W06
 .byte   Cn4
 .byte   W06
 .byte   Cn4
 .byte   W06
 .byte   Cn5
 .byte   W06
 .byte   Cn4
 .byte   W06
 .byte   Cn5
 .byte   W06
 .byte   Cn4
 .byte   W06
 .byte   Cn4
 .byte   W06
 .byte   Cn5
 .byte   W06
 .byte   Cn4
 .byte   W06
 .byte   Cn4
 .byte   W06
 .byte   Cn5
 .byte   W06
 .byte   Cn4
 .byte   W06
 .byte   Cn5
 .byte   W06
 .byte   Cn4
 .byte   W06
 .byte   Cn4
 .byte   W06
@  #07 @069   ----------------------------------------
 .byte   Cn5
 .byte   W96
@  #07 @070   ----------------------------------------
 .byte   W96
@  #07 @071   ----------------------------------------
 .byte   W96
@  #07 @072   ----------------------------------------
 .byte   W96
@  #07 @073   ----------------------------------------
 .byte   W96
@  #07 @074   ----------------------------------------
 .byte   W96
@  #07 @075   ----------------------------------------
 .byte   W96
@  #07 @076   ----------------------------------------
 .byte   W96
@  #07 @077   ----------------------------------------
 .byte   W96
@  #07 @078   ----------------------------------------
 .byte   W96
@  #07 @079   ----------------------------------------
 .byte   W96
@  #07 @080   ----------------------------------------
 .byte   W96
@  #07 @081   ----------------------------------------
 .byte   W96
@  #07 @082   ----------------------------------------
 .byte   W96
@  #07 @083   ----------------------------------------
 .byte   W96
@  #07 @084   ----------------------------------------
 .byte   W96
@  #07 @085   ----------------------------------------
 .byte   W06
 .byte   VOL , 25*ToadstoolTourSkinsMatch_mvl/mxv
 .byte   PAN , c_v-39
 .byte   N06 ,Cn4 ,v102
 .byte   W04
 .byte   VOL , 24*ToadstoolTourSkinsMatch_mvl/mxv
 .byte   W01
 .byte   N06 ,Cn4 ,v102
 .byte   W02
 .byte   VOL , 23*ToadstoolTourSkinsMatch_mvl/mxv
 .byte   W03
 .byte   N06 ,Cn5 ,v102
 .byte   VOL , 21*ToadstoolTourSkinsMatch_mvl/mxv
 .byte   W04
 .byte   VOL , 20*ToadstoolTourSkinsMatch_mvl/mxv
 .byte   W01
 .byte   N06 ,Cn4 ,v102
 .byte   W02
 .byte   VOL , 19*ToadstoolTourSkinsMatch_mvl/mxv
 .byte   W03
 .byte   N06 ,Cn5 ,v102
 .byte   VOL , 17*ToadstoolTourSkinsMatch_mvl/mxv
 .byte   W04
 .byte   VOL , 16*ToadstoolTourSkinsMatch_mvl/mxv
 .byte   W01
 .byte   N06 ,Cn4 ,v102
 .byte   W02
 .byte   VOL , 15*ToadstoolTourSkinsMatch_mvl/mxv
 .byte   W03
 .byte   N06 ,Cn4 ,v102
 .byte   VOL , 13*ToadstoolTourSkinsMatch_mvl/mxv
 .byte   W04
 .byte   VOL , 12*ToadstoolTourSkinsMatch_mvl/mxv
 .byte   W01
 .byte   N06 ,Cn5 ,v102
 .byte   W02
 .byte   VOL , 11*ToadstoolTourSkinsMatch_mvl/mxv
 .byte   W03
 .byte   N06 ,Cn4 ,v102
 .byte   VOL , 10*ToadstoolTourSkinsMatch_mvl/mxv
 .byte   W04
 .byte   VOL , 8*ToadstoolTourSkinsMatch_mvl/mxv
 .byte   W01
 .byte   N06 ,Cn4 ,v102
 .byte   W02
 .byte   VOL , 7*ToadstoolTourSkinsMatch_mvl/mxv
 .byte   W03
 .byte   N06 ,Cn5 ,v102
 .byte   VOL , 6*ToadstoolTourSkinsMatch_mvl/mxv
 .byte   W04
 .byte   VOL , 5*ToadstoolTourSkinsMatch_mvl/mxv
 .byte   W01
 .byte   N06 ,Cn4 ,v102
 .byte   W02
 .byte   VOL , 3*ToadstoolTourSkinsMatch_mvl/mxv
 .byte   W03
 .byte   N06 ,Cn5 ,v102
 .byte   VOL , 2*ToadstoolTourSkinsMatch_mvl/mxv
 .byte   W04
 .byte   VOL , 1*ToadstoolTourSkinsMatch_mvl/mxv
 .byte   W01
 .byte   N06 ,Cn4 ,v102
 .byte   W02
 .byte   VOL , 0*ToadstoolTourSkinsMatch_mvl/mxv
 .byte   W03
 .byte   N06 ,Cn4 ,v102
 .byte   VOL , 0*ToadstoolTourSkinsMatch_mvl/mxv
 .byte   W04
 .byte   VOL , 0*ToadstoolTourSkinsMatch_mvl/mxv
 .byte   W01
 .byte   N06 ,Cn5 ,v102
 .byte   W02
 .byte   VOL , 0*ToadstoolTourSkinsMatch_mvl/mxv
 .byte   W03
 .byte   N06 ,Cn4 ,v102
 .byte   VOL , 0*ToadstoolTourSkinsMatch_mvl/mxv
 .byte   W04
 .byte   VOL , 0*ToadstoolTourSkinsMatch_mvl/mxv
 .byte   W01
 .byte   N06 ,Cn4 ,v102
 .byte   W02
 .byte   VOL , 0*ToadstoolTourSkinsMatch_mvl/mxv
 .byte   W03
@  #07 @086   ----------------------------------------
 .byte   N06 ,Cn5 ,v102
 .byte   VOL , 0*ToadstoolTourSkinsMatch_mvl/mxv
 .byte   W04
 .byte   VOL , 0*ToadstoolTourSkinsMatch_mvl/mxv
 .byte   W01
 .byte   N06 ,Cn4 ,v102
 .byte   W02
 .byte   VOL , 0*ToadstoolTourSkinsMatch_mvl/mxv
 .byte   W03
 .byte   N06 ,Cn5 ,v102
 .byte   VOL , 0*ToadstoolTourSkinsMatch_mvl/mxv
 .byte   W04
 .byte   VOL , 0*ToadstoolTourSkinsMatch_mvl/mxv
 .byte   W01
 .byte   N06 ,Cn4 ,v102
 .byte   W02
 .byte   VOL , 0*ToadstoolTourSkinsMatch_mvl/mxv
 .byte   W03
 .byte   N06 ,Cn4 ,v102
 .byte   VOL , 0*ToadstoolTourSkinsMatch_mvl/mxv
 .byte   W04
 .byte   VOL , 0*ToadstoolTourSkinsMatch_mvl/mxv
 .byte   W01
 .byte   N06 ,Cn5 ,v102
 .byte   W02
 .byte   VOL , 0*ToadstoolTourSkinsMatch_mvl/mxv
 .byte   W03
 .byte   N06 ,Cn4 ,v102
 .byte   VOL , 0*ToadstoolTourSkinsMatch_mvl/mxv
 .byte   W04
 .byte   VOL , 0*ToadstoolTourSkinsMatch_mvl/mxv
 .byte   W01
 .byte   N06 ,Cn4 ,v102
 .byte   W02
 .byte   VOL , 0*ToadstoolTourSkinsMatch_mvl/mxv
 .byte   W03
 .byte   N06 ,Cn5 ,v102
 .byte   VOL , 0*ToadstoolTourSkinsMatch_mvl/mxv
 .byte   W04
 .byte   VOL , 0*ToadstoolTourSkinsMatch_mvl/mxv
 .byte   W01
 .byte   N06 ,Cn4 ,v102
 .byte   W03
 .byte   VOL , 0*ToadstoolTourSkinsMatch_mvl/mxv
 .byte   W02
 .byte   N06 ,Cn5 ,v102
 .byte   W01
 .byte   VOL , 0*ToadstoolTourSkinsMatch_mvl/mxv
 .byte   W04
 .byte   VOL , 0*ToadstoolTourSkinsMatch_mvl/mxv
 .byte   N06 ,Cn4 ,v102
 .byte   W03
 .byte   VOL , 0*ToadstoolTourSkinsMatch_mvl/mxv
 .byte   W02
 .byte   N06 ,Cn4 ,v102
 .byte   W01
 .byte   VOL , 0*ToadstoolTourSkinsMatch_mvl/mxv
 .byte   W04
 .byte   VOL , 0*ToadstoolTourSkinsMatch_mvl/mxv
 .byte   N06 ,Cn5 ,v102
 .byte   W03
 .byte   VOL , 0*ToadstoolTourSkinsMatch_mvl/mxv
 .byte   W02
 .byte   N06 ,Cn4 ,v102
 .byte   W01
 .byte   VOL , 0*ToadstoolTourSkinsMatch_mvl/mxv
 .byte   W04
 .byte   VOL , 0*ToadstoolTourSkinsMatch_mvl/mxv
 .byte   N06 ,Cn4 ,v102
 .byte   W03
 .byte   VOL , 0*ToadstoolTourSkinsMatch_mvl/mxv
 .byte   W02
 .byte   N06 ,Cn5 ,v102
 .byte   W01
 .byte   VOL , 0*ToadstoolTourSkinsMatch_mvl/mxv
 .byte   W04
 .byte   VOL , 0*ToadstoolTourSkinsMatch_mvl/mxv
 .byte   N06 ,Cn4 ,v102
 .byte   W03
 .byte   VOL , 0*ToadstoolTourSkinsMatch_mvl/mxv
 .byte   W02
 .byte   N06 ,Cn5 ,v102
 .byte   W01
 .byte   VOL , 0*ToadstoolTourSkinsMatch_mvl/mxv
 .byte   W04
 .byte   VOL , 0*ToadstoolTourSkinsMatch_mvl/mxv
 .byte   N06 ,Cn4 ,v102
 .byte   W03
@  #07 @087   ----------------------------------------
 .byte   VOL , 0*ToadstoolTourSkinsMatch_mvl/mxv
 .byte   W02
 .byte   N06 ,Cn4 ,v102
 .byte   W01
 .byte   VOL , 0*ToadstoolTourSkinsMatch_mvl/mxv
 .byte   W04
 .byte   VOL , 0*ToadstoolTourSkinsMatch_mvl/mxv
 .byte   N06 ,Cn5 ,v102
 .byte   W03
 .byte   VOL , 0*ToadstoolTourSkinsMatch_mvl/mxv
 .byte   W02
 .byte   N06 ,Cn4 ,v102
 .byte   W01
 .byte   VOL , 0*ToadstoolTourSkinsMatch_mvl/mxv
 .byte   W04
 .byte   VOL , 0*ToadstoolTourSkinsMatch_mvl/mxv
 .byte   N06 ,Cn4 ,v102
 .byte   W03
 .byte   VOL , 0*ToadstoolTourSkinsMatch_mvl/mxv
 .byte   W02
 .byte   N06 ,Cn5 ,v102
 .byte   W01
 .byte   VOL , 0*ToadstoolTourSkinsMatch_mvl/mxv
 .byte   W04
 .byte   VOL , 0*ToadstoolTourSkinsMatch_mvl/mxv
 .byte   N06 ,Cn4 ,v102
 .byte   W03
 .byte   VOL , 0*ToadstoolTourSkinsMatch_mvl/mxv
 .byte   W02
 .byte   N06 ,Cn5 ,v102
 .byte   W01
 .byte   VOL , 0*ToadstoolTourSkinsMatch_mvl/mxv
 .byte   W04
Label_014B77FB:
 .byte   VOL , 0*ToadstoolTourSkinsMatch_mvl/mxv
 .byte   N06 ,Cn4 ,v102
 .byte   W03
 .byte   PEND 
@  #07 @088   ----------------------------------------
 .byte   PATT
  .word Label_014B77FB
@  #07 @089   ----------------------------------------
 .byte   VOL , 0*ToadstoolTourSkinsMatch_mvl/mxv
 .byte   W04
 .byte   VOL , 0*ToadstoolTourSkinsMatch_mvl/mxv
 .byte   N06 ,Cn5 ,v102
 .byte   W03
 .byte   VOL , 0*ToadstoolTourSkinsMatch_mvl/mxv
 .byte   W02
 .byte   N06 ,Cn4 ,v102
 .byte   W01
 .byte   VOL , 0*ToadstoolTourSkinsMatch_mvl/mxv
 .byte   W04
 .byte   VOL , 0*ToadstoolTourSkinsMatch_mvl/mxv
 .byte   N06 ,Cn4 ,v102
 .byte   W03
 .byte   VOL , 0*ToadstoolTourSkinsMatch_mvl/mxv
 .byte   W02
 .byte   N06 ,Cn5 ,v102
 .byte   W01
 .byte   VOL , 0*ToadstoolTourSkinsMatch_mvl/mxv
 .byte   W04
 .byte   VOL , 0*ToadstoolTourSkinsMatch_mvl/mxv
 .byte   N06 ,Cn4 ,v102
 .byte   W03
 .byte   VOL , 0*ToadstoolTourSkinsMatch_mvl/mxv
 .byte   W02
 .byte   N06 ,Cn5 ,v102
 .byte   W01
 .byte   VOL , 0*ToadstoolTourSkinsMatch_mvl/mxv
 .byte   W04
Label_014B783A:
 .byte   VOL , 0*ToadstoolTourSkinsMatch_mvl/mxv
 .byte   N06 ,Cn4 ,v102
 .byte   W04
 .byte   PEND 
@  #07 @090   ----------------------------------------
 .byte   PATT
  .word Label_014B783A
@  #07 @091   ----------------------------------------
 .byte   VOL , 0*ToadstoolTourSkinsMatch_mvl/mxv
 .byte   W03
 .byte   N06 ,Cn5 ,v102
 .byte   VOL , 0*ToadstoolTourSkinsMatch_mvl/mxv
 .byte   W04
Label_014B784F:
 .byte   VOL , 0*ToadstoolTourSkinsMatch_mvl/mxv
 .byte   W01
 .byte   N06 ,Cn4 ,v102
 .byte   W02
 .byte   PEND 
@  #07 @092   ----------------------------------------
 .byte   PATT
  .word Label_014B784F
@  #07 @093   ----------------------------------------
 .byte   VOL , 0*ToadstoolTourSkinsMatch_mvl/mxv
 .byte   W04
 .byte   VOL , 0*ToadstoolTourSkinsMatch_mvl/mxv
 .byte   W01
 .byte   N06 ,Cn5 ,v102
 .byte   W02
Label_014B7866:
 .byte   VOL , 0*ToadstoolTourSkinsMatch_mvl/mxv
 .byte   W03
 .byte   N06 ,Cn4 ,v102
 .byte   PEND 
 .byte   VOL , 0*ToadstoolTourSkinsMatch_mvl/mxv
 .byte   W04
 .byte   VOL , 0*ToadstoolTourSkinsMatch_mvl/mxv
 .byte   W01
 .byte   N06 ,Cn5 ,v102
 .byte   W02
@  #07 @094   ----------------------------------------
 .byte   PATT
  .word Label_014B7866
@  #07 @095   ----------------------------------------
 .byte   VOL , 0*ToadstoolTourSkinsMatch_mvl/mxv
 .byte   W04
 .byte   VOL , 0*ToadstoolTourSkinsMatch_mvl/mxv
 .byte   W01
 .byte   N06 ,Cn4 ,v102
 .byte   W02
 .byte   VOL , 0*ToadstoolTourSkinsMatch_mvl/mxv
 .byte   W03
 .byte   N06 ,Cn5 ,v102
 .byte   VOL , 0*ToadstoolTourSkinsMatch_mvl/mxv
 .byte   W05
 .byte   FINE

@**************** Track 8 (Midi-Chn.7) ****************@

ToadstoolTourSkinsMatch_008:
@  #08 @000   ----------------------------------------
Label_014D0D24:
 .byte   TEMPO , 118*ToadstoolTourSkinsMatch_tbs/2
 .byte   KEYSH , ToadstoolTourSkinsMatch_key+0
 .byte   VOICE , 90
 .byte   VOL , 20*ToadstoolTourSkinsMatch_mvl/mxv
 .byte   PAN , c_v+38
 .byte   W06
 .byte   N18 ,En4 ,v083
 .byte   W18
 .byte   N06 ,Fs4
 .byte   W12
 .byte   Gn4
 .byte   W12
 .byte   An4
 .byte   W06
 .byte   N24 ,Bn4
 .byte   W24
 .byte   Dn4
 .byte   W24
@  #08 @001   ----------------------------------------
Label_014D0D3F:
 .byte   N24 ,Cn4 ,v083
 .byte   W24
 .byte   N06 ,Bn3
 .byte   W06
 .byte   Cn4
 .byte   W06
 .byte   Bn3
 .byte   W06
 .byte   An3
 .byte   W06
 .byte   N48 ,Bn3
 .byte   W48
 .byte   PEND 
@  #08 @002   ----------------------------------------
Label_014D0D50:
 .byte   N18 ,Cn4 ,v083
 .byte   W18
 .byte   Dn4
 .byte   W18
 .byte   N12 ,En4
 .byte   W12
 .byte   N24 ,Dn4
 .byte   W24
 .byte   Fs4
 .byte   W24
 .byte   PEND 
@  #08 @003   ----------------------------------------
Label_014D0D5F:
 .byte   N18 ,Gn4 ,v083
 .byte   W18
 .byte   Ds4
 .byte   W18
 .byte   N12 ,Gn4
 .byte   W12
 .byte   N48 ,Fn4
 .byte   W48
 .byte   PEND 
@  #08 @004   ----------------------------------------
Label_014D0D6C:
 .byte   N18 ,Gn4 ,v083
 .byte   W18
 .byte   N30 ,Dn4
 .byte   W30
 .byte   N24
 .byte   W24
 .byte   Cn4
 .byte   W24
 .byte   PEND 
@  #08 @005   ----------------------------------------
Label_014D0D78:
 .byte   N30 ,Cn4 ,v083
 .byte   W30
 .byte   N06 ,Dn4
 .byte   W06
 .byte   Ds4
 .byte   W06
 .byte   Gn4
 .byte   W06
 .byte   N48 ,Fn4
 .byte   W48
 .byte   PEND 
@  #08 @006   ----------------------------------------
Label_014D0D87:
 .byte   N30 ,Gn4 ,v083
 .byte   W30
 .byte   N06 ,Fn4
 .byte   W06
 .byte   En4
 .byte   W06
 .byte   Fn4
 .byte   W06
 .byte   N18 ,Dn4
 .byte   W18
 .byte   En4
 .byte   W18
 .byte   N12 ,Fn4
 .byte   W12
 .byte   PEND 
@  #08 @007   ----------------------------------------
 .byte   N18 ,Ds4 ,v083
 .byte   W18
 .byte   Cn4
 .byte   W18
 .byte   N12 ,Gn4
 .byte   W12
 .byte   N24 ,Fn4
 .byte   W24
 .byte   As4
 .byte   W24
@  #08 @008   ----------------------------------------
 .byte   N18 ,En4
 .byte   W18
 .byte   N06 ,Fs4
 .byte   W12
 .byte   Gn4
 .byte   W12
 .byte   An4
 .byte   W06
 .byte   N24 ,Bn4
 .byte   W24
 .byte   Dn4
 .byte   W24
@  #08 @009   ----------------------------------------
 .byte   PATT
  .word Label_014D0D3F
@  #08 @010   ----------------------------------------
 .byte   PATT
  .word Label_014D0D50
@  #08 @011   ----------------------------------------
 .byte   PATT
  .word Label_014D0D5F
@  #08 @012   ----------------------------------------
 .byte   PATT
  .word Label_014D0D6C
@  #08 @013   ----------------------------------------
 .byte   PATT
  .word Label_014D0D78
@  #08 @014   ----------------------------------------
 .byte   PATT
  .word Label_014D0D87
@  #08 @015   ----------------------------------------
 .byte   N18 ,Ds4 ,v083
 .byte   W18
 .byte   Cn4
 .byte   W18
 .byte   N12 ,Gn4
 .byte   W12
 .byte   N24 ,Fn4
 .byte   W24
 .byte   As4
 .byte   W18
 .byte   GOTO
  .word Label_014D0D24
@  #08 @016   ----------------------------------------
 .byte   W06
Label_014D0DEA:
 .byte   N18 ,Cn4 ,v083
 .byte   N18 ,En4
 .byte   W18
 .byte   N06 ,Cn4
 .byte   N06 ,Dn4
 .byte   W12
 .byte   Cn4
 .byte   N06 ,En4
 .byte   W12
 .byte   Cn4
 .byte   N06 ,Fn4
 .byte   W12
 .byte   Cn4
 .byte   N06 ,Fn4
 .byte   W12
 .byte   Cn4
 .byte   N06 ,En4
 .byte   W06
 .byte   N12 ,Cn4
 .byte   N12 ,Dn4
 .byte   W12
 .byte   Cn4
 .byte   N12 ,En4
 .byte   W12
 .byte   PEND 
@  #08 @017   ----------------------------------------
 .byte   PATT
  .word Label_014D0DEA
@  #08 @018   ----------------------------------------
 .byte   PATT
  .word Label_014D0DEA
@  #08 @019   ----------------------------------------
Label_014D0E19:
 .byte   N18 ,Cn4 ,v083
 .byte   N18 ,En4
 .byte   W18
 .byte   N06 ,Cn4
 .byte   N06 ,Dn4
 .byte   W12
 .byte   Cn4
 .byte   N06 ,En4
 .byte   W12
 .byte   As3
 .byte   N06 ,Fn4
 .byte   W12
 .byte   As3
 .byte   N06 ,Fn4
 .byte   W12
 .byte   As3
 .byte   N06 ,En4
 .byte   W06
 .byte   N12 ,As3
 .byte   N12 ,Dn4
 .byte   W12
 .byte   As3
 .byte   N12 ,En4
 .byte   W12
 .byte   PEND 
@  #08 @020   ----------------------------------------
 .byte   PATT
  .word Label_014D0DEA
@  #08 @021   ----------------------------------------
 .byte   PATT
  .word Label_014D0DEA
@  #08 @022   ----------------------------------------
 .byte   PATT
  .word Label_014D0DEA
@  #08 @023   ----------------------------------------
 .byte   PATT
  .word Label_014D0E19
@  #08 @024   ----------------------------------------
Label_014D0E52:
 .byte   N06 ,Ds4 ,v083
 .byte   W12
 .byte   Cn4
 .byte   W06
 .byte   Fn4
 .byte   W12
 .byte   Cn4
 .byte   W12
 .byte   Ds4
 .byte   W12
 .byte   Ds4
 .byte   W12
 .byte   Cn4
 .byte   W06
 .byte   Fn4
 .byte   W12
 .byte   Cn4
 .byte   W12
 .byte   PEND 
@  #08 @025   ----------------------------------------
Label_014D0E67:
 .byte   N06 ,En4 ,v083
 .byte   W12
 .byte   Cn4
 .byte   W06
 .byte   Gn3
 .byte   W12
 .byte   Cn4
 .byte   W12
 .byte   En4
 .byte   W12
 .byte   En4
 .byte   W12
 .byte   Cn4
 .byte   W06
 .byte   Gn4
 .byte   W06
 .byte   Gn3
 .byte   W06
 .byte   Cn4
 .byte   W06
 .byte   Gn3
 .byte   W06
 .byte   PEND 
@  #08 @026   ----------------------------------------
 .byte   PATT
  .word Label_014D0E52
@  #08 @027   ----------------------------------------
 .byte   PATT
  .word Label_014D0E67
@  #08 @028   ----------------------------------------
 .byte   PATT
  .word Label_014D0E52
@  #08 @029   ----------------------------------------
 .byte   PATT
  .word Label_014D0E67
@  #08 @030   ----------------------------------------
 .byte   PATT
  .word Label_014D0E52
@  #08 @031   ----------------------------------------
 .byte   PATT
  .word Label_014D0E67
@  #08 @032   ----------------------------------------
Label_014D0E9E:
 .byte   N18 ,Cn5 ,v083
 .byte   W18
 .byte   Ds5
 .byte   W18
 .byte   N12 ,Gn5
 .byte   W12
 .byte   N24 ,Fn5
 .byte   W24
 .byte   N06 ,Ds5
 .byte   W06
 .byte   Fn5
 .byte   W06
 .byte   Ds5
 .byte   W06
 .byte   Dn5
 .byte   W06
 .byte   PEND 
@  #08 @033   ----------------------------------------
Label_014D0EB4:
 .byte   N48 ,Cn5 ,v083
 .byte   W48
 .byte   Gn5
 .byte   W48
 .byte   PEND 
@  #08 @034   ----------------------------------------
Label_014D0EBB:
 .byte   N06 ,Fn5 ,v083
 .byte   W12
 .byte   Dn5
 .byte   W12
 .byte   As5
 .byte   W06
 .byte   Fn5
 .byte   W12
 .byte   Dn5
 .byte   W06
 .byte   N18 ,Fn5
 .byte   W18
 .byte   Cn5
 .byte   W18
 .byte   N12 ,An5
 .byte   W12
 .byte   PEND 
@  #08 @035   ----------------------------------------
 .byte   N48 ,Gn5 ,v083
 .byte   W48
 .byte   Dn5
 .byte   W48
@  #08 @036   ----------------------------------------
 .byte   PATT
  .word Label_014D0E9E
@  #08 @037   ----------------------------------------
 .byte   PATT
  .word Label_014D0EB4
@  #08 @038   ----------------------------------------
 .byte   PATT
  .word Label_014D0EBB
@  #08 @039   ----------------------------------------
 .byte   N48 ,Gn5 ,v083
 .byte   W48
 .byte   Dn5
 .byte   W48
@  #08 @040   ----------------------------------------
 .byte   PAN , c_v+38
 .byte   N18 ,Cn4 ,v083
 .byte   N18 ,En4
 .byte   W18
 .byte   N06 ,Cn4
 .byte   N06 ,Dn4
 .byte   W12
 .byte   Cn4
 .byte   N06 ,En4
 .byte   W12
 .byte   Cn4
 .byte   N06 ,Fn4
 .byte   W12
 .byte   Cn4
 .byte   N06 ,Fn4
 .byte   W12
 .byte   Cn4
 .byte   N06 ,En4
 .byte   W06
 .byte   N12 ,Cn4
 .byte   N12 ,Dn4
 .byte   W12
 .byte   Cn4
 .byte   N12 ,En4
 .byte   W12
@  #08 @041   ----------------------------------------
 .byte   N18 ,Cn4
 .byte   N18 ,En4
 .byte   W18
 .byte   N06 ,Cn4
 .byte   N06 ,Dn4
 .byte   W12
 .byte   Cn4
 .byte   N06 ,En4
 .byte   W12
 .byte   Cn4
 .byte   N06 ,Fn4
 .byte   W12
 .byte   Cn4
 .byte   N06 ,Fn4
 .byte   W12
 .byte   Cn4
 .byte   N06 ,En4
 .byte   W06
 .byte   N12 ,Cn4
 .byte   N12 ,Dn4
 .byte   W12
 .byte   Cn4
 .byte   N12 ,En4
 .byte   W12
@  #08 @042   ----------------------------------------
 .byte   N18 ,Cn4
 .byte   N18 ,En4
 .byte   W18
 .byte   N06 ,Cn4
 .byte   N06 ,Dn4
 .byte   W12
 .byte   Cn4
 .byte   N06 ,En4
 .byte   W12
 .byte   Cn4
 .byte   N06 ,Fn4
 .byte   W12
 .byte   Cn4
 .byte   N06 ,Fn4
 .byte   W12
 .byte   Cn4
 .byte   N06 ,En4
 .byte   W06
 .byte   N12 ,Cn4
 .byte   N12 ,Dn4
 .byte   W12
 .byte   Cn4
 .byte   N12 ,En4
 .byte   W12
@  #08 @043   ----------------------------------------
 .byte   N18 ,Cn4
 .byte   N18 ,En4
 .byte   W18
 .byte   N06 ,Cn4
 .byte   N06 ,Dn4
 .byte   W12
 .byte   Cn4
 .byte   N06 ,En4
 .byte   W12
 .byte   As3
 .byte   N06 ,Fn4
 .byte   W12
 .byte   As3
 .byte   N06 ,Fn4
 .byte   W12
 .byte   As3
 .byte   N06 ,En4
 .byte   W06
 .byte   N12 ,As3
 .byte   N12 ,Dn4
 .byte   W12
 .byte   As3
 .byte   N12 ,En4
 .byte   W12
@  #08 @044   ----------------------------------------
 .byte   N18
 .byte   W18
 .byte   N06 ,Fs4
 .byte   W12
 .byte   Gn4
 .byte   W12
 .byte   An4
 .byte   W06
 .byte   N24 ,Bn4
 .byte   W24
 .byte   Dn4
 .byte   W24
@  #08 @045   ----------------------------------------
 .byte   Cn4
 .byte   W24
 .byte   N06 ,Bn3
 .byte   W06
 .byte   Cn4
 .byte   W06
 .byte   Bn3
 .byte   W06
 .byte   An3
 .byte   W06
 .byte   N48 ,Bn3
 .byte   W48
@  #08 @046   ----------------------------------------
 .byte   N18 ,Cn4
 .byte   W18
 .byte   Dn4
 .byte   W18
 .byte   N12 ,En4
 .byte   W12
 .byte   N24 ,Dn4
 .byte   W24
 .byte   Fs4
 .byte   W24
@  #08 @047   ----------------------------------------
 .byte   N18 ,Gn4
 .byte   W18
 .byte   Ds4
 .byte   W18
 .byte   N12 ,Gn4
 .byte   W12
 .byte   N48 ,Fn4
 .byte   W48
@  #08 @048   ----------------------------------------
 .byte   N18 ,Gn4
 .byte   W18
 .byte   N30 ,Dn4
 .byte   W30
 .byte   N24
 .byte   W24
 .byte   Cn4
 .byte   W24
@  #08 @049   ----------------------------------------
 .byte   N30
 .byte   W30
 .byte   N06 ,Dn4
 .byte   W06
 .byte   Ds4
 .byte   W06
 .byte   Gn4
 .byte   W06
 .byte   N48 ,Fn4
 .byte   W48
@  #08 @050   ----------------------------------------
 .byte   N30 ,Gn4
 .byte   W30
 .byte   N06 ,Fn4
 .byte   W06
 .byte   En4
 .byte   W06
 .byte   Fn4
 .byte   W06
 .byte   N18 ,Dn4
 .byte   W18
 .byte   En4
 .byte   W18
 .byte   N12 ,Fn4
 .byte   W12
@  #08 @051   ----------------------------------------
 .byte   N18 ,Ds4
 .byte   W18
 .byte   Cn4
 .byte   W18
 .byte   N12 ,Gn4
 .byte   W12
 .byte   N24 ,Fn4
 .byte   W24
 .byte   As4
 .byte   W24
@  #08 @052   ----------------------------------------
 .byte   N18 ,En4
 .byte   W18
 .byte   N06 ,Fs4
 .byte   W12
 .byte   Gn4
 .byte   W12
 .byte   An4
 .byte   W06
 .byte   N24 ,Bn4
 .byte   W24
 .byte   Dn4
 .byte   W24
@  #08 @053   ----------------------------------------
 .byte   Cn4
 .byte   W24
 .byte   N06 ,Bn3
 .byte   W06
 .byte   Cn4
 .byte   W06
 .byte   Bn3
 .byte   W06
 .byte   An3
 .byte   W06
 .byte   N48 ,Bn3
 .byte   W48
@  #08 @054   ----------------------------------------
 .byte   N18 ,Cn4
 .byte   W18
 .byte   Dn4
 .byte   W18
 .byte   N12 ,En4
 .byte   W12
 .byte   N24 ,Dn4
 .byte   W24
 .byte   Fs4
 .byte   W24
@  #08 @055   ----------------------------------------
 .byte   N18 ,Gn4
 .byte   W18
 .byte   Ds4
 .byte   W18
 .byte   N12 ,Gn4
 .byte   W12
 .byte   N48 ,Fn4
 .byte   W48
@  #08 @056   ----------------------------------------
 .byte   N18 ,Gn4
 .byte   W18
 .byte   N30 ,Dn4
 .byte   W30
 .byte   N24
 .byte   W24
 .byte   Cn4
 .byte   W24
@  #08 @057   ----------------------------------------
 .byte   N30
 .byte   W30
 .byte   N06 ,Dn4
 .byte   W06
 .byte   Ds4
 .byte   W06
 .byte   Gn4
 .byte   W06
 .byte   N48 ,Fn4
 .byte   W48
@  #08 @058   ----------------------------------------
 .byte   N30 ,Gn4
 .byte   W30
 .byte   N06 ,Fn4
 .byte   W06
 .byte   En4
 .byte   W06
 .byte   Fn4
 .byte   W06
 .byte   N18 ,Dn4
 .byte   W18
 .byte   En4
 .byte   W18
 .byte   N12 ,Fn4
 .byte   W12
@  #08 @059   ----------------------------------------
 .byte   N18 ,Ds4
 .byte   W18
 .byte   Cn4
 .byte   W18
 .byte   N12 ,Gn4
 .byte   W12
 .byte   N24 ,Fn4
 .byte   W24
 .byte   As4
 .byte   W24
@  #08 @060   ----------------------------------------
 .byte   N18 ,Cn4
 .byte   N18 ,En4
 .byte   W18
 .byte   N06 ,Cn4
 .byte   N06 ,Dn4
 .byte   W12
 .byte   Cn4
 .byte   N06 ,En4
 .byte   W12
 .byte   Cn4
 .byte   N06 ,Fn4
 .byte   W12
 .byte   Cn4
 .byte   N06 ,Fn4
 .byte   W12
 .byte   Cn4
 .byte   N06 ,En4
 .byte   W06
 .byte   N12 ,Cn4
 .byte   N12 ,Dn4
 .byte   W12
 .byte   Cn4
 .byte   N12 ,En4
 .byte   W12
@  #08 @061   ----------------------------------------
 .byte   N18 ,Cn4
 .byte   N18 ,En4
 .byte   W18
 .byte   N06 ,Cn4
 .byte   N06 ,Dn4
 .byte   W12
 .byte   Cn4
 .byte   N06 ,En4
 .byte   W12
 .byte   Cn4
 .byte   N06 ,Fn4
 .byte   W12
 .byte   Cn4
 .byte   N06 ,Fn4
 .byte   W12
 .byte   Cn4
 .byte   N06 ,En4
 .byte   W06
 .byte   N12 ,Cn4
 .byte   N12 ,Dn4
 .byte   W12
 .byte   Cn4
 .byte   N12 ,En4
 .byte   W12
@  #08 @062   ----------------------------------------
 .byte   N18 ,Cn4
 .byte   N18 ,En4
 .byte   W18
 .byte   N06 ,Cn4
 .byte   N06 ,Dn4
 .byte   W12
 .byte   Cn4
 .byte   N06 ,En4
 .byte   W12
 .byte   Cn4
 .byte   N06 ,Fn4
 .byte   W12
 .byte   Cn4
 .byte   N06 ,Fn4
 .byte   W12
 .byte   Cn4
 .byte   N06 ,En4
 .byte   W06
 .byte   N12 ,Cn4
 .byte   N12 ,Dn4
 .byte   W12
 .byte   Cn4
 .byte   N12 ,En4
 .byte   W12
@  #08 @063   ----------------------------------------
 .byte   N18 ,Cn4
 .byte   N18 ,En4
 .byte   W18
 .byte   N06 ,Cn4
 .byte   N06 ,Dn4
 .byte   W12
 .byte   Cn4
 .byte   N06 ,En4
 .byte   W12
 .byte   As3
 .byte   N06 ,Fn4
 .byte   W12
 .byte   As3
 .byte   N06 ,Fn4
 .byte   W12
 .byte   As3
 .byte   N06 ,En4
 .byte   W06
 .byte   N12 ,As3
 .byte   N12 ,Dn4
 .byte   W12
 .byte   As3
 .byte   N12 ,En4
 .byte   W12
@  #08 @064   ----------------------------------------
 .byte   N18 ,Cn4
 .byte   N18 ,En4
 .byte   W18
 .byte   N06 ,Cn4
 .byte   N06 ,Dn4
 .byte   W12
 .byte   Cn4
 .byte   N06 ,En4
 .byte   W12
 .byte   Cn4
 .byte   N06 ,Fn4
 .byte   W12
 .byte   Cn4
 .byte   N06 ,Fn4
 .byte   W12
 .byte   Cn4
 .byte   N06 ,En4
 .byte   W06
 .byte   N12 ,Cn4
 .byte   N12 ,Dn4
 .byte   W12
 .byte   Cn4
 .byte   N12 ,En4
 .byte   W12
@  #08 @065   ----------------------------------------
 .byte   N18 ,Cn4
 .byte   N18 ,En4
 .byte   W18
 .byte   N06 ,Cn4
 .byte   N06 ,Dn4
 .byte   W12
 .byte   Cn4
 .byte   N06 ,En4
 .byte   W12
 .byte   Cn4
 .byte   N06 ,Fn4
 .byte   W12
 .byte   Cn4
 .byte   N06 ,Fn4
 .byte   W12
 .byte   Cn4
 .byte   N06 ,En4
 .byte   W06
 .byte   N12 ,Cn4
 .byte   N12 ,Dn4
 .byte   W12
 .byte   Cn4
 .byte   N12 ,En4
 .byte   W12
@  #08 @066   ----------------------------------------
 .byte   N18 ,Cn4
 .byte   N18 ,En4
 .byte   W18
 .byte   N06 ,Cn4
 .byte   N06 ,Dn4
 .byte   W12
 .byte   Cn4
 .byte   N06 ,En4
 .byte   W12
 .byte   Cn4
 .byte   N06 ,Fn4
 .byte   W12
 .byte   Cn4
 .byte   N06 ,Fn4
 .byte   W12
 .byte   Cn4
 .byte   N06 ,En4
 .byte   W06
 .byte   N12 ,Cn4
 .byte   N12 ,Dn4
 .byte   W12
 .byte   Cn4
 .byte   N12 ,En4
 .byte   W12
@  #08 @067   ----------------------------------------
 .byte   N18 ,Cn4
 .byte   N18 ,En4
 .byte   W18
 .byte   N06 ,Cn4
 .byte   N06 ,Dn4
 .byte   W12
 .byte   Cn4
 .byte   N06 ,En4
 .byte   W12
 .byte   As3
 .byte   N06 ,Fn4
 .byte   W12
 .byte   As3
 .byte   N06 ,Fn4
 .byte   W12
 .byte   As3
 .byte   N06 ,En4
 .byte   W06
 .byte   N12 ,As3
 .byte   N12 ,Dn4
 .byte   W12
 .byte   As3
 .byte   N12 ,En4
 .byte   W12
@  #08 @068   ----------------------------------------
 .byte   N06 ,Ds4
 .byte   W12
 .byte   Cn4
 .byte   W06
 .byte   Fn4
 .byte   W12
 .byte   Cn4
 .byte   W12
 .byte   Ds4
 .byte   W12
 .byte   Ds4
 .byte   W12
 .byte   Cn4
 .byte   W06
 .byte   Fn4
 .byte   W12
 .byte   Cn4
 .byte   W12
@  #08 @069   ----------------------------------------
 .byte   En4
 .byte   W12
 .byte   Cn4
 .byte   W06
 .byte   Gn3
 .byte   W12
 .byte   Cn4
 .byte   W12
 .byte   En4
 .byte   W12
 .byte   En4
 .byte   W12
 .byte   Cn4
 .byte   W06
 .byte   Gn4
 .byte   W06
 .byte   Gn3
 .byte   W06
 .byte   Cn4
 .byte   W06
 .byte   Gn3
 .byte   W06
@  #08 @070   ----------------------------------------
 .byte   Ds4
 .byte   W12
 .byte   Cn4
 .byte   W06
 .byte   Fn4
 .byte   W12
 .byte   Cn4
 .byte   W12
 .byte   Ds4
 .byte   W12
 .byte   Ds4
 .byte   W12
 .byte   Cn4
 .byte   W06
 .byte   Fn4
 .byte   W12
 .byte   Cn4
 .byte   W12
@  #08 @071   ----------------------------------------
 .byte   En4
 .byte   W12
 .byte   Cn4
 .byte   W06
 .byte   Gn3
 .byte   W12
 .byte   Cn4
 .byte   W12
 .byte   En4
 .byte   W12
 .byte   En4
 .byte   W12
 .byte   Cn4
 .byte   W06
 .byte   Gn4
 .byte   W06
 .byte   Gn3
 .byte   W06
 .byte   Cn4
 .byte   W06
 .byte   Gn3
 .byte   W06
@  #08 @072   ----------------------------------------
 .byte   Ds4
 .byte   W12
 .byte   Cn4
 .byte   W06
 .byte   Fn4
 .byte   W12
 .byte   Cn4
 .byte   W12
 .byte   Ds4
 .byte   W12
 .byte   Ds4
 .byte   W12
 .byte   Cn4
 .byte   W06
 .byte   Fn4
 .byte   W12
 .byte   Cn4
 .byte   W12
@  #08 @073   ----------------------------------------
 .byte   En4
 .byte   W12
 .byte   Cn4
 .byte   W06
 .byte   Gn3
 .byte   W12
 .byte   Cn4
 .byte   W12
 .byte   En4
 .byte   W12
 .byte   En4
 .byte   W12
 .byte   Cn4
 .byte   W06
 .byte   Gn4
 .byte   W06
 .byte   Gn3
 .byte   W06
 .byte   Cn4
 .byte   W06
 .byte   Gn3
 .byte   W06
@  #08 @074   ----------------------------------------
 .byte   Ds4
 .byte   W12
 .byte   Cn4
 .byte   W06
 .byte   Fn4
 .byte   W12
 .byte   Cn4
 .byte   W12
 .byte   Ds4
 .byte   W12
 .byte   Ds4
 .byte   W12
 .byte   Cn4
 .byte   W06
 .byte   Fn4
 .byte   W12
 .byte   Cn4
 .byte   W12
@  #08 @075   ----------------------------------------
 .byte   En4
 .byte   W12
 .byte   Cn4
 .byte   W06
 .byte   Gn3
 .byte   W12
 .byte   Cn4
 .byte   W12
 .byte   En4
 .byte   W12
 .byte   En4
 .byte   W12
 .byte   Cn4
 .byte   W06
 .byte   Gn4
 .byte   W06
 .byte   Gn3
 .byte   W06
 .byte   Cn4
 .byte   W06
 .byte   Gn3
 .byte   W06
@  #08 @076   ----------------------------------------
 .byte   N18 ,Cn5
 .byte   W18
 .byte   Ds5
 .byte   W18
 .byte   N12 ,Gn5
 .byte   W12
 .byte   N24 ,Fn5
 .byte   W24
 .byte   N06 ,Ds5
 .byte   W06
 .byte   Fn5
 .byte   W06
 .byte   Ds5
 .byte   W06
 .byte   Dn5
 .byte   W06
@  #08 @077   ----------------------------------------
 .byte   N48 ,Cn5
 .byte   W48
 .byte   Gn5
 .byte   W48
@  #08 @078   ----------------------------------------
 .byte   N06 ,Fn5
 .byte   W12
 .byte   Dn5
 .byte   W12
 .byte   As5
 .byte   W06
 .byte   Fn5
 .byte   W12
 .byte   Dn5
 .byte   W06
 .byte   N18 ,Fn5
 .byte   W18
 .byte   Cn5
 .byte   W18
 .byte   N12 ,An5
 .byte   W12
@  #08 @079   ----------------------------------------
 .byte   N48 ,Gn5
 .byte   W48
 .byte   Dn5
 .byte   W48
@  #08 @080   ----------------------------------------
 .byte   N18 ,Cn5
 .byte   W18
 .byte   Ds5
 .byte   W18
 .byte   N12 ,Gn5
 .byte   W12
 .byte   N24 ,Fn5
 .byte   W24
 .byte   N06 ,Ds5
 .byte   W06
 .byte   Fn5
 .byte   W06
 .byte   Ds5
 .byte   W06
 .byte   Dn5
 .byte   W06
@  #08 @081   ----------------------------------------
 .byte   N48 ,Cn5
 .byte   W48
 .byte   Gn5
 .byte   W48
@  #08 @082   ----------------------------------------
 .byte   N06 ,Fn5
 .byte   W12
 .byte   Dn5
 .byte   W12
 .byte   As5
 .byte   W06
 .byte   Fn5
 .byte   W12
 .byte   Dn5
 .byte   W06
 .byte   N18 ,Fn5
 .byte   W18
 .byte   Cn5
 .byte   W18
 .byte   N12 ,An5
 .byte   W12
@  #08 @083   ----------------------------------------
 .byte   N48 ,Gn5
 .byte   W48
 .byte   Dn5
 .byte   W48
@  #08 @084   ----------------------------------------
 .byte   VOL , 18*ToadstoolTourSkinsMatch_mvl/mxv
 .byte   PAN , c_v+38
 .byte   N18 ,En4 ,v083
 .byte   N18 ,Cn4
 .byte   W04
 .byte   VOL , 17*ToadstoolTourSkinsMatch_mvl/mxv
 .byte   W04
 .byte   VOL , 16*ToadstoolTourSkinsMatch_mvl/mxv
 .byte   W04
 .byte   VOL , 15*ToadstoolTourSkinsMatch_mvl/mxv
 .byte   W03
 .byte   N06 ,Cn4 ,v083
 .byte   N06 ,Dn4
 .byte   VOL , 13*ToadstoolTourSkinsMatch_mvl/mxv
 .byte   W04
 .byte   VOL , 12*ToadstoolTourSkinsMatch_mvl/mxv
 .byte   W04
 .byte   VOL , 11*ToadstoolTourSkinsMatch_mvl/mxv
 .byte   W01
 .byte   N06 ,En4 ,v083
 .byte   N06 ,Cn4
 .byte   W02
 .byte   VOL , 10*ToadstoolTourSkinsMatch_mvl/mxv
 .byte   W04
 .byte   VOL , 10*ToadstoolTourSkinsMatch_mvl/mxv
 .byte   W04
 .byte   N06 ,Cn4 ,v083
 .byte   N06 ,Fn4
 .byte   VOL , 10*ToadstoolTourSkinsMatch_mvl/mxv
 .byte   W04
 .byte   VOL , 10*ToadstoolTourSkinsMatch_mvl/mxv
 .byte   W04
 .byte   VOL , 10*ToadstoolTourSkinsMatch_mvl/mxv
 .byte   W02
 .byte   N06 ,Cn4 ,v083
 .byte   N06 ,Fn4
 .byte   W02
 .byte   VOL , 10*ToadstoolTourSkinsMatch_mvl/mxv
 .byte   W04
 .byte   VOL , 10*ToadstoolTourSkinsMatch_mvl/mxv
 .byte   W04
 .byte   VOL , 10*ToadstoolTourSkinsMatch_mvl/mxv
 .byte   N06 ,En4 ,v083
 .byte   N06 ,Cn4
 .byte   W04
 .byte   VOL , 10*ToadstoolTourSkinsMatch_mvl/mxv
 .byte   W01
 .byte   N12 ,Dn4 ,v083
 .byte   N12 ,Cn4
 .byte   W02
 .byte   VOL , 10*ToadstoolTourSkinsMatch_mvl/mxv
 .byte   W04
 .byte   VOL , 10*ToadstoolTourSkinsMatch_mvl/mxv
 .byte   W04
 .byte   N12 ,Cn4 ,v083
 .byte   N12 ,En4
 .byte   VOL , 10*ToadstoolTourSkinsMatch_mvl/mxv
 .byte   W04
 .byte   VOL , 10*ToadstoolTourSkinsMatch_mvl/mxv
 .byte   W04
 .byte   VOL , 10*ToadstoolTourSkinsMatch_mvl/mxv
 .byte   W02
 .byte   N18 ,Cn4 ,v083
 .byte   N18 ,En4
 .byte   W02
 .byte   VOL , 10*ToadstoolTourSkinsMatch_mvl/mxv
 .byte   W04
 .byte   VOL , 10*ToadstoolTourSkinsMatch_mvl/mxv
 .byte   W04
 .byte   VOL , 10*ToadstoolTourSkinsMatch_mvl/mxv
 .byte   W04
 .byte   VOL , 10*ToadstoolTourSkinsMatch_mvl/mxv
 .byte   W01
 .byte   N06 ,Dn4 ,v083
 .byte   N06 ,Cn4
 .byte   W02
@  #08 @085   ----------------------------------------
 .byte   VOL , 10*ToadstoolTourSkinsMatch_mvl/mxv
 .byte   W04
 .byte   VOL , 10*ToadstoolTourSkinsMatch_mvl/mxv
 .byte   W04
 .byte   N06 ,En4 ,v083
 .byte   N06 ,Cn4
 .byte   VOL , 10*ToadstoolTourSkinsMatch_mvl/mxv
 .byte   W04
 .byte   VOL , 10*ToadstoolTourSkinsMatch_mvl/mxv
 .byte   W04
 .byte   VOL , 10*ToadstoolTourSkinsMatch_mvl/mxv
 .byte   W02
 .byte   N06 ,Cn4 ,v083
 .byte   N06 ,Fn4
 .byte   W02
 .byte   VOL , 10*ToadstoolTourSkinsMatch_mvl/mxv
 .byte   W04
 .byte   VOL , 10*ToadstoolTourSkinsMatch_mvl/mxv
 .byte   W04
 .byte   VOL , 10*ToadstoolTourSkinsMatch_mvl/mxv
 .byte   N06 ,Cn4 ,v083
 .byte   N06 ,Fn4
 .byte   W04
 .byte   VOL , 10*ToadstoolTourSkinsMatch_mvl/mxv
 .byte   W04
 .byte   VOL , 10*ToadstoolTourSkinsMatch_mvl/mxv
 .byte   W03
 .byte   N06 ,Cn4 ,v083
 .byte   N06 ,En4
 .byte   W01
 .byte   VOL , 10*ToadstoolTourSkinsMatch_mvl/mxv
 .byte   W04
 .byte   N12 ,Cn4 ,v083
 .byte   N12 ,Dn4
 .byte   VOL , 10*ToadstoolTourSkinsMatch_mvl/mxv
 .byte   W04
 .byte   VOL , 10*ToadstoolTourSkinsMatch_mvl/mxv
 .byte   W04
 .byte   VOL , 10*ToadstoolTourSkinsMatch_mvl/mxv
 .byte   W02
 .byte   N12 ,En4 ,v083
 .byte   N12 ,Cn4
 .byte   W02
 .byte   VOL , 10*ToadstoolTourSkinsMatch_mvl/mxv
 .byte   W04
 .byte   VOL , 10*ToadstoolTourSkinsMatch_mvl/mxv
 .byte   W04
 .byte   VOL , 10*ToadstoolTourSkinsMatch_mvl/mxv
 .byte   N18 ,En4 ,v083
 .byte   N18 ,Cn4
 .byte   W04
 .byte   VOL , 10*ToadstoolTourSkinsMatch_mvl/mxv
 .byte   W04
 .byte   VOL , 10*ToadstoolTourSkinsMatch_mvl/mxv
 .byte   W04
 .byte   VOL , 10*ToadstoolTourSkinsMatch_mvl/mxv
 .byte   W04
 .byte   N06 ,Dn4 ,v083
 .byte   N06 ,Cn4
 .byte   VOL , 10*ToadstoolTourSkinsMatch_mvl/mxv
 .byte   W04
 .byte   VOL , 10*ToadstoolTourSkinsMatch_mvl/mxv
 .byte   W04
 .byte   VOL , 10*ToadstoolTourSkinsMatch_mvl/mxv
 .byte   W02
 .byte   N06 ,Cn4 ,v083
 .byte   N06 ,En4
 .byte   W02
 .byte   VOL , 10*ToadstoolTourSkinsMatch_mvl/mxv
 .byte   W04
@  #08 @086   ----------------------------------------
 .byte   VOL , 10*ToadstoolTourSkinsMatch_mvl/mxv
 .byte   W04
 .byte   VOL , 10*ToadstoolTourSkinsMatch_mvl/mxv
 .byte   N06 ,Cn4 ,v083
 .byte   N06 ,Fn4
 .byte   W04
 .byte   VOL , 10*ToadstoolTourSkinsMatch_mvl/mxv
 .byte   W04
 .byte   VOL , 10*ToadstoolTourSkinsMatch_mvl/mxv
 .byte   W03
 .byte   N06 ,Fn4 ,v083
 .byte   N06 ,Cn4
 .byte   W01
 .byte   VOL , 10*ToadstoolTourSkinsMatch_mvl/mxv
 .byte   W04
 .byte   VOL , 10*ToadstoolTourSkinsMatch_mvl/mxv
 .byte   W04
 .byte   VOL , 10*ToadstoolTourSkinsMatch_mvl/mxv
 .byte   N06 ,Cn4 ,v083
 .byte   N06 ,En4
 .byte   W03
 .byte   VOL , 10*ToadstoolTourSkinsMatch_mvl/mxv
 .byte   W02
 .byte   N12 ,Dn4 ,v083
 .byte   N12 ,Cn4
 .byte   W02
 .byte   VOL , 10*ToadstoolTourSkinsMatch_mvl/mxv
 .byte   W04
 .byte   VOL , 10*ToadstoolTourSkinsMatch_mvl/mxv
 .byte   W04
 .byte   VOL , 10*ToadstoolTourSkinsMatch_mvl/mxv
 .byte   N12 ,En4 ,v083
 .byte   N12 ,Cn4
 .byte   W04
 .byte   VOL , 10*ToadstoolTourSkinsMatch_mvl/mxv
 .byte   W04
 .byte   VOL , 10*ToadstoolTourSkinsMatch_mvl/mxv
 .byte   W02
 .byte   N18 ,En4 ,v083
 .byte   N18 ,Cn4
 .byte   W01
 .byte   VOL , 10*ToadstoolTourSkinsMatch_mvl/mxv
 .byte   W04
 .byte   VOL , 10*ToadstoolTourSkinsMatch_mvl/mxv
 .byte   W04
 .byte   VOL , 10*ToadstoolTourSkinsMatch_mvl/mxv
 .byte   W04
 .byte   VOL , 10*ToadstoolTourSkinsMatch_mvl/mxv
 .byte   W02
 .byte   N06 ,Cn4 ,v083
 .byte   N06 ,Dn4
 .byte   W02
 .byte   VOL , 10*ToadstoolTourSkinsMatch_mvl/mxv
 .byte   W04
 .byte   VOL , 10*ToadstoolTourSkinsMatch_mvl/mxv
 .byte   W04
 .byte   VOL , 10*ToadstoolTourSkinsMatch_mvl/mxv
 .byte   N06 ,En4 ,v083
 .byte   N06 ,Cn4
 .byte   W04
 .byte   VOL , 10*ToadstoolTourSkinsMatch_mvl/mxv
 .byte   W04
Label_014D13D0:
 .byte   VOL , 10*ToadstoolTourSkinsMatch_mvl/mxv
 .byte   W02
 .byte   N06 ,As3 ,v083
 .byte   N06 ,Fn4
 .byte   W01
 .byte   PEND 
 .byte   VOL , 10*ToadstoolTourSkinsMatch_mvl/mxv
 .byte   W04
 .byte   VOL , 10*ToadstoolTourSkinsMatch_mvl/mxv
 .byte   W04
@  #08 @087   ----------------------------------------
 .byte   PATT
  .word Label_014D13D0
@  #08 @088   ----------------------------------------
 .byte   VOL , 10*ToadstoolTourSkinsMatch_mvl/mxv
 .byte   W04
 .byte   VOL , 10*ToadstoolTourSkinsMatch_mvl/mxv
 .byte   W03
 .byte   N06 ,En4 ,v083
 .byte   N06 ,As3
 .byte   W01
 .byte   VOL , 10*ToadstoolTourSkinsMatch_mvl/mxv
 .byte   W04
 .byte   VOL , 10*ToadstoolTourSkinsMatch_mvl/mxv
 .byte   N12 ,As3 ,v083
 .byte   N12 ,Dn4
 .byte   W04
 .byte   VOL , 10*ToadstoolTourSkinsMatch_mvl/mxv
 .byte   W04
 .byte   VOL , 10*ToadstoolTourSkinsMatch_mvl/mxv
 .byte   W02
 .byte   N12 ,En4 ,v083
 .byte   N12 ,As3
 .byte   W01
 .byte   VOL , 10*ToadstoolTourSkinsMatch_mvl/mxv
 .byte   W04
 .byte   VOL , 10*ToadstoolTourSkinsMatch_mvl/mxv
 .byte   W05
 .byte   FINE

@**************** Track 9 (Midi-Chn.8) ****************@

ToadstoolTourSkinsMatch_009:
@  #09 @000   ----------------------------------------
Label_014B7A1C:
 .byte   TEMPO , 118*ToadstoolTourSkinsMatch_tbs/2
 .byte   KEYSH , ToadstoolTourSkinsMatch_key+0
 .byte   VOICE , 90
 .byte   VOL , 16*ToadstoolTourSkinsMatch_mvl/mxv
 .byte   PAN , c_v+12
 .byte   W96
@  #09 @001   ----------------------------------------
 .byte   W96
@  #09 @002   ----------------------------------------
 .byte   W96
@  #09 @003   ----------------------------------------
 .byte   W96
@  #09 @004   ----------------------------------------
 .byte   W96
@  #09 @005   ----------------------------------------
 .byte   W96
@  #09 @006   ----------------------------------------
 .byte   W96
@  #09 @007   ----------------------------------------
 .byte   W96
@  #09 @008   ----------------------------------------
 .byte   W96
@  #09 @009   ----------------------------------------
 .byte   W96
@  #09 @010   ----------------------------------------
 .byte   W96
@  #09 @011   ----------------------------------------
 .byte   W96
@  #09 @012   ----------------------------------------
 .byte   W96
@  #09 @013   ----------------------------------------
 .byte   W96
@  #09 @014   ----------------------------------------
 .byte   W96
@  #09 @015   ----------------------------------------
 .byte   W96
@  #09 @016   ----------------------------------------
 .byte   GOTO
  .word Label_014B7A1C
@  #09 @017   ----------------------------------------
 .byte   W96
@  #09 @018   ----------------------------------------
 .byte   W96
@  #09 @019   ----------------------------------------
 .byte   W96
@  #09 @020   ----------------------------------------
 .byte   W96
@  #09 @021   ----------------------------------------
 .byte   W96
@  #09 @022   ----------------------------------------
 .byte   W96
@  #09 @023   ----------------------------------------
 .byte   W96
@  #09 @024   ----------------------------------------
 .byte   W96
@  #09 @025   ----------------------------------------
 .byte   W96
@  #09 @026   ----------------------------------------
 .byte   W96
@  #09 @027   ----------------------------------------
 .byte   W96
@  #09 @028   ----------------------------------------
 .byte   W96
@  #09 @029   ----------------------------------------
 .byte   W06
 .byte   N48 ,Cn4 ,v102
 .byte   N48 ,Fn4
 .byte   W48
 .byte   N18
 .byte   N18 ,Gs4
 .byte   W18
 .byte   Gs4
 .byte   N18 ,Cn5
 .byte   W18
 .byte   N12
 .byte   N12 ,Fn5
 .byte   W12
@  #09 @030   ----------------------------------------
 .byte   N18 ,Cn5
 .byte   N18 ,En5
 .byte   W18
 .byte   Gn4
 .byte   N18 ,Cn5
 .byte   W18
 .byte   N12
 .byte   N12 ,En5
 .byte   W12
 .byte   N48 ,En4
 .byte   N48 ,Gn4
 .byte   W48
@  #09 @031   ----------------------------------------
 .byte   N06 ,Cn4
 .byte   N06 ,Fn4
 .byte   W06
 .byte   Fn4
 .byte   N06 ,Gs4
 .byte   W06
 .byte   Gs4
 .byte   N06 ,Cn5
 .byte   W06
 .byte   Cn4
 .byte   N06 ,Fn4
 .byte   W06
 .byte   Fn4
 .byte   N06 ,Gs4
 .byte   W06
 .byte   Gs4
 .byte   N06 ,Cn5
 .byte   W06
 .byte   Cn5
 .byte   N06 ,Fn5
 .byte   W06
 .byte   Fn5
 .byte   N06 ,Gs5
 .byte   W06
 .byte   Cn5
 .byte   N06 ,Fn5
 .byte   W06
 .byte   Fn5
 .byte   N06 ,Gs5
 .byte   W06
 .byte   Gs5
 .byte   N06 ,Cn6
 .byte   W06
 .byte   Fn5
 .byte   N06 ,Gs5
 .byte   W06
 .byte   Cn5
 .byte   N06 ,Fn5
 .byte   W06
 .byte   Fn5
 .byte   N06 ,Gs5
 .byte   W06
 .byte   Gs4
 .byte   N06 ,Cn5
 .byte   W06
 .byte   Cn5
 .byte   N06 ,Gs5
 .byte   W06
@  #09 @032   ----------------------------------------
 .byte   Gn5
 .byte   N06 ,Bn5
 .byte   W06
 .byte   Bn5
 .byte   N06 ,Cn6
 .byte   W06
 .byte   Gn5
 .byte   N06 ,Bn5
 .byte   W06
 .byte   En5
 .byte   N06 ,Gn5
 .byte   W06
 .byte   Cn5
 .byte   N06 ,En5
 .byte   W06
 .byte   En5
 .byte   N06 ,Gn5
 .byte   W06
 .byte   Cn5
 .byte   N06 ,En5
 .byte   W06
 .byte   Gn4
 .byte   N06 ,Cn5
 .byte   W06
 .byte   En4
 .byte   N06 ,Gn4
 .byte   W06
 .byte   Gn4
 .byte   N06 ,Cn5
 .byte   W06
 .byte   Cn5
 .byte   N06 ,En5
 .byte   W06
 .byte   En5
 .byte   N06 ,Gn5
 .byte   W06
 .byte   Cn5
 .byte   N06 ,En5
 .byte   W06
 .byte   En5
 .byte   N06 ,Gn5
 .byte   W06
 .byte   Gn5
 .byte   N06 ,Bn5
 .byte   W06
 .byte   Bn5
 .byte   N06 ,Cn6
 .byte   W18
@  #09 @033   ----------------------------------------
Label_014B7AED:
 .byte   N06 ,Cn5 ,v102
 .byte   W12
 .byte   Cn5
 .byte   W06
 .byte   As4
 .byte   W12
 .byte   Cn5
 .byte   W12
 .byte   Cn5
 .byte   W06
 .byte   Gn4
 .byte   W48
 .byte   PEND 
@  #09 @034   ----------------------------------------
Label_014B7AFC:
 .byte   N06 ,Cn5 ,v102
 .byte   W12
 .byte   Cn5
 .byte   W06
 .byte   Bn4
 .byte   W12
 .byte   Cn5
 .byte   W12
 .byte   Cn5
 .byte   W06
 .byte   Gn4
 .byte   W48
 .byte   PEND 
@  #09 @035   ----------------------------------------
 .byte   PATT
  .word Label_014B7AED
@  #09 @036   ----------------------------------------
 .byte   PATT
  .word Label_014B7AFC
@  #09 @037   ----------------------------------------
 .byte   PATT
  .word Label_014B7AED
@  #09 @038   ----------------------------------------
 .byte   PATT
  .word Label_014B7AFC
@  #09 @039   ----------------------------------------
 .byte   PATT
  .word Label_014B7AED
@  #09 @040   ----------------------------------------
 .byte   N06 ,Cn5 ,v102
 .byte   W12
 .byte   Cn5
 .byte   W06
 .byte   Bn4
 .byte   W12
 .byte   Cn5
 .byte   W12
 .byte   Cn5
 .byte   W06
 .byte   Gn4
 .byte   W36
 .byte   VOL , 16*ToadstoolTourSkinsMatch_mvl/mxv
 .byte   PAN , c_v+12
 .byte   W96
@  #09 @041   ----------------------------------------
 .byte   W96
@  #09 @042   ----------------------------------------
 .byte   W96
@  #09 @043   ----------------------------------------
 .byte   W96
@  #09 @044   ----------------------------------------
 .byte   W96
@  #09 @045   ----------------------------------------
 .byte   W96
@  #09 @046   ----------------------------------------
 .byte   W96
@  #09 @047   ----------------------------------------
 .byte   W96
@  #09 @048   ----------------------------------------
 .byte   W96
@  #09 @049   ----------------------------------------
 .byte   W96
@  #09 @050   ----------------------------------------
 .byte   W96
@  #09 @051   ----------------------------------------
 .byte   W96
@  #09 @052   ----------------------------------------
 .byte   W96
@  #09 @053   ----------------------------------------
 .byte   W96
@  #09 @054   ----------------------------------------
 .byte   W96
@  #09 @055   ----------------------------------------
 .byte   W96
@  #09 @056   ----------------------------------------
 .byte   W96
@  #09 @057   ----------------------------------------
 .byte   W96
@  #09 @058   ----------------------------------------
 .byte   W96
@  #09 @059   ----------------------------------------
 .byte   W96
@  #09 @060   ----------------------------------------
 .byte   W96
@  #09 @061   ----------------------------------------
 .byte   W96
@  #09 @062   ----------------------------------------
 .byte   W96
@  #09 @063   ----------------------------------------
 .byte   W96
@  #09 @064   ----------------------------------------
 .byte   W96
@  #09 @065   ----------------------------------------
 .byte   W96
@  #09 @066   ----------------------------------------
 .byte   W96
@  #09 @067   ----------------------------------------
 .byte   W96
@  #09 @068   ----------------------------------------
 .byte   W96
@  #09 @069   ----------------------------------------
 .byte   W96
@  #09 @070   ----------------------------------------
 .byte   W96
@  #09 @071   ----------------------------------------
 .byte   W96
@  #09 @072   ----------------------------------------
 .byte   N48 ,Cn4 ,v102
 .byte   N48 ,Fn4
 .byte   W48
 .byte   N18
 .byte   N18 ,Gs4
 .byte   W18
 .byte   Gs4
 .byte   N18 ,Cn5
 .byte   W18
 .byte   N12
 .byte   N12 ,Fn5
 .byte   W12
@  #09 @073   ----------------------------------------
 .byte   N18 ,Cn5
 .byte   N18 ,En5
 .byte   W18
 .byte   Gn4
 .byte   N18 ,Cn5
 .byte   W18
 .byte   N12
 .byte   N12 ,En5
 .byte   W12
 .byte   N48 ,En4
 .byte   N48 ,Gn4
 .byte   W48
@  #09 @074   ----------------------------------------
 .byte   N06 ,Cn4
 .byte   N06 ,Fn4
 .byte   W06
 .byte   Fn4
 .byte   N06 ,Gs4
 .byte   W06
 .byte   Gs4
 .byte   N06 ,Cn5
 .byte   W06
 .byte   Cn4
 .byte   N06 ,Fn4
 .byte   W06
 .byte   Fn4
 .byte   N06 ,Gs4
 .byte   W06
 .byte   Gs4
 .byte   N06 ,Cn5
 .byte   W06
 .byte   Cn5
 .byte   N06 ,Fn5
 .byte   W06
 .byte   Fn5
 .byte   N06 ,Gs5
 .byte   W06
 .byte   Cn5
 .byte   N06 ,Fn5
 .byte   W06
 .byte   Fn5
 .byte   N06 ,Gs5
 .byte   W06
 .byte   Gs5
 .byte   N06 ,Cn6
 .byte   W06
 .byte   Fn5
 .byte   N06 ,Gs5
 .byte   W06
 .byte   Cn5
 .byte   N06 ,Fn5
 .byte   W06
 .byte   Fn5
 .byte   N06 ,Gs5
 .byte   W06
 .byte   Gs4
 .byte   N06 ,Cn5
 .byte   W06
 .byte   Cn5
 .byte   N06 ,Gs5
 .byte   W06
@  #09 @075   ----------------------------------------
 .byte   Gn5
 .byte   N06 ,Bn5
 .byte   W06
 .byte   Bn5
 .byte   N06 ,Cn6
 .byte   W06
 .byte   Gn5
 .byte   N06 ,Bn5
 .byte   W06
 .byte   En5
 .byte   N06 ,Gn5
 .byte   W06
 .byte   Cn5
 .byte   N06 ,En5
 .byte   W06
 .byte   En5
 .byte   N06 ,Gn5
 .byte   W06
 .byte   Cn5
 .byte   N06 ,En5
 .byte   W06
 .byte   Gn4
 .byte   N06 ,Cn5
 .byte   W06
 .byte   En4
 .byte   N06 ,Gn4
 .byte   W06
 .byte   Gn4
 .byte   N06 ,Cn5
 .byte   W06
 .byte   Cn5
 .byte   N06 ,En5
 .byte   W06
 .byte   En5
 .byte   N06 ,Gn5
 .byte   W06
 .byte   Cn5
 .byte   N06 ,En5
 .byte   W06
 .byte   En5
 .byte   N06 ,Gn5
 .byte   W06
 .byte   Gn5
 .byte   N06 ,Bn5
 .byte   W06
 .byte   Bn5
 .byte   N06 ,Cn6
 .byte   W18
@  #09 @076   ----------------------------------------
 .byte   Cn5
 .byte   W12
 .byte   Cn5
 .byte   W06
 .byte   As4
 .byte   W12
 .byte   Cn5
 .byte   W12
 .byte   Cn5
 .byte   W06
 .byte   Gn4
 .byte   W48
@  #09 @077   ----------------------------------------
 .byte   Cn5
 .byte   W12
 .byte   Cn5
 .byte   W06
 .byte   Bn4
 .byte   W12
 .byte   Cn5
 .byte   W12
 .byte   Cn5
 .byte   W06
 .byte   Gn4
 .byte   W48
@  #09 @078   ----------------------------------------
 .byte   Cn5
 .byte   W12
 .byte   Cn5
 .byte   W06
 .byte   As4
 .byte   W12
 .byte   Cn5
 .byte   W12
 .byte   Cn5
 .byte   W06
 .byte   Gn4
 .byte   W48
@  #09 @079   ----------------------------------------
 .byte   Cn5
 .byte   W12
 .byte   Cn5
 .byte   W06
 .byte   Bn4
 .byte   W12
 .byte   Cn5
 .byte   W12
 .byte   Cn5
 .byte   W06
 .byte   Gn4
 .byte   W48
@  #09 @080   ----------------------------------------
 .byte   Cn5
 .byte   W12
 .byte   Cn5
 .byte   W06
 .byte   As4
 .byte   W12
 .byte   Cn5
 .byte   W12
 .byte   Cn5
 .byte   W06
 .byte   Gn4
 .byte   W48
@  #09 @081   ----------------------------------------
 .byte   Cn5
 .byte   W12
 .byte   Cn5
 .byte   W06
 .byte   Bn4
 .byte   W12
 .byte   Cn5
 .byte   W12
 .byte   Cn5
 .byte   W06
 .byte   Gn4
 .byte   W48
@  #09 @082   ----------------------------------------
 .byte   Cn5
 .byte   W12
 .byte   Cn5
 .byte   W06
 .byte   As4
 .byte   W12
 .byte   Cn5
 .byte   W12
 .byte   Cn5
 .byte   W06
 .byte   Gn4
 .byte   W48
@  #09 @083   ----------------------------------------
 .byte   Cn5
 .byte   W12
 .byte   Cn5
 .byte   W06
 .byte   Bn4
 .byte   W12
 .byte   Cn5
 .byte   W12
 .byte   Cn5
 .byte   W06
 .byte   Gn4
 .byte   W36
 .byte   VOL , 16*ToadstoolTourSkinsMatch_mvl/mxv
 .byte   PAN , c_v+12
 .byte   W96
@  #09 @084   ----------------------------------------
 .byte   W96
@  #09 @085   ----------------------------------------
 .byte   W96
@  #09 @086   ----------------------------------------
 .byte   W96
 .byte   FINE

@**************** Track 10 (Midi-Chn.9) ****************@

ToadstoolTourSkinsMatch_010:
@  #10 @000   ----------------------------------------
Label_01534378:
 .byte   TEMPO , 118*ToadstoolTourSkinsMatch_tbs/2
 .byte   KEYSH , ToadstoolTourSkinsMatch_key+0
 .byte   VOICE , 127
 .byte   VOL , 74*ToadstoolTourSkinsMatch_mvl/mxv
 .byte   BEND , c_v+63
 .byte   N06 ,Dn1 ,v102
 .byte   N06 ,Fn1
 .byte   W06
 .byte   Gs1
 .byte   N06 ,Cn1
 .byte   N06 ,An2
 .byte   W06
 .byte   Gs1
 .byte   W06
 .byte   Gs1
 .byte   N06 ,Dn1
 .byte   W06
 .byte   Gs1
 .byte   W06
 .byte   Gs1
 .byte   N06 ,Cn1
 .byte   W06
 .byte   Gs1
 .byte   N06 ,Cn1
 .byte   W06
 .byte   Gs1
 .byte   N06 ,Dn1
 .byte   W06
 .byte   Gs1
 .byte   W06
 .byte   Cn1
 .byte   N06 ,Gs1
 .byte   W06
 .byte   Gs1
 .byte   W06
 .byte   Dn1
 .byte   N06 ,Gs1
 .byte   W06
 .byte   Cn1
 .byte   N06 ,Gs1
 .byte   W06
 .byte   Cn1
 .byte   N06 ,Gs1
 .byte   W06
 .byte   Cn1
 .byte   N06 ,Gs1
 .byte   W06
 .byte   Dn1
 .byte   N06 ,As1
 .byte   W06
@  #10 @001   ----------------------------------------
Label_015343BE:
 .byte   N06 ,Gs1 ,v102
 .byte   W06
 .byte   Gs1
 .byte   N06 ,Cn1
 .byte   W06
 .byte   Gs1
 .byte   W06
 .byte   Gs1
 .byte   N06 ,Dn1
 .byte   W06
 .byte   Gs1
 .byte   W06
 .byte   Gs1
 .byte   N06 ,Cn1
 .byte   W06
 .byte   Gs1
 .byte   N06 ,Cn1
 .byte   W06
 .byte   Gs1
 .byte   N06 ,Dn1
 .byte   W06
 .byte   Gs1
 .byte   W06
 .byte   Cn1
 .byte   N06 ,Gs1
 .byte   W06
 .byte   Gs1
 .byte   W06
 .byte   Dn1
 .byte   N06 ,Gs1
 .byte   W06
 .byte   Cn1
 .byte   N06 ,Gs1
 .byte   W06
 .byte   Cn1
 .byte   N06 ,Gs1
 .byte   W06
 .byte   Cn1
 .byte   N06 ,Gs1
 .byte   W06
 .byte   Dn1
 .byte   N06 ,As1
 .byte   W06
 .byte   PEND 
@  #10 @002   ----------------------------------------
Label_015343F7:
 .byte   N06 ,Dn1 ,v102
 .byte   N06 ,Gs1
 .byte   W06
 .byte   Gs1
 .byte   N06 ,Cn1
 .byte   W06
 .byte   Gs1
 .byte   W06
 .byte   Gs1
 .byte   N06 ,Dn1
 .byte   W06
 .byte   Gs1
 .byte   W06
 .byte   Gs1
 .byte   N06 ,Cn1
 .byte   W06
 .byte   Gs1
 .byte   N06 ,Cn1
 .byte   W06
 .byte   Gs1
 .byte   N06 ,Dn1
 .byte   W06
 .byte   Gs1
 .byte   W06
 .byte   Cn1
 .byte   N06 ,Gs1
 .byte   W06
 .byte   Gs1
 .byte   W06
 .byte   Dn1
 .byte   N06 ,Gs1
 .byte   W06
 .byte   Cn1
 .byte   N06 ,Gs1
 .byte   W06
 .byte   Cn1
 .byte   N06 ,Gs1
 .byte   W06
 .byte   Cn1
 .byte   N06 ,Gs1
 .byte   W06
 .byte   Dn1
 .byte   N06 ,As1
 .byte   W06
 .byte   PEND 
@  #10 @003   ----------------------------------------
Label_01534432:
 .byte   N06 ,Gs1 ,v102
 .byte   W06
 .byte   Gs1
 .byte   N06 ,Cn1
 .byte   W06
 .byte   Gs1
 .byte   W06
 .byte   Gs1
 .byte   N06 ,Dn1
 .byte   W06
 .byte   Gs1
 .byte   W06
 .byte   Gs1
 .byte   N06 ,Cn1
 .byte   W06
 .byte   Gs1
 .byte   N06 ,Cn1
 .byte   W06
 .byte   Gs1
 .byte   N06 ,Dn1
 .byte   W06
 .byte   Gs1
 .byte   W06
 .byte   Cn1
 .byte   N06 ,Gs1
 .byte   W06
 .byte   Gs1
 .byte   W06
 .byte   Dn1
 .byte   N06 ,Gs1
 .byte   W06
 .byte   Cn1
 .byte   N06 ,Gs1
 .byte   W06
 .byte   Dn1
 .byte   N06 ,Gs1
 .byte   W06
 .byte   Dn1
 .byte   N06 ,Gs1
 .byte   W06
 .byte   Dn1
 .byte   N06 ,As1
 .byte   W06
 .byte   PEND 
@  #10 @004   ----------------------------------------
Label_0153446B:
 .byte   N06 ,Dn1 ,v102
 .byte   N06 ,Gs1
 .byte   W06
 .byte   Cn1
 .byte   N06 ,As1
 .byte   W12
 .byte   Gs1
 .byte   W06
 .byte   Cn1
 .byte   N06 ,Gs1
 .byte   W06
 .byte   Gs1
 .byte   W06
 .byte   Gs1
 .byte   W06
 .byte   Dn1
 .byte   N06 ,Gs1
 .byte   W06
 .byte   Gs1
 .byte   W06
 .byte   Cn1
 .byte   N06 ,Gs1
 .byte   W06
 .byte   Gs1
 .byte   W06
 .byte   Gs1
 .byte   W06
 .byte   Cn1
 .byte   N06 ,Gs1
 .byte   W06
 .byte   Gs1
 .byte   W06
 .byte   Gs1
 .byte   W06
 .byte   Dn1
 .byte   N06 ,Gs1
 .byte   W06
 .byte   PEND 
@  #10 @005   ----------------------------------------
Label_0153449A:
 .byte   N06 ,Gs1 ,v102
 .byte   W06
 .byte   Gs1
 .byte   N06 ,Cn1
 .byte   W06
 .byte   Gs1
 .byte   W06
 .byte   Gs1
 .byte   N06 ,Dn1
 .byte   W06
 .byte   Gs1
 .byte   W06
 .byte   Gs1
 .byte   N06 ,Cn1
 .byte   W06
 .byte   Gs1
 .byte   N06 ,Cn1
 .byte   W06
 .byte   Gs1
 .byte   N06 ,Dn1
 .byte   W06
 .byte   Gs1
 .byte   W06
 .byte   Gs1
 .byte   N06 ,Cn1
 .byte   W06
 .byte   Gs1
 .byte   W06
 .byte   Gs1
 .byte   N06 ,Dn1
 .byte   W06
 .byte   Gs1
 .byte   N06 ,Cn1
 .byte   W06
 .byte   Gs1
 .byte   N06 ,Cn1
 .byte   W06
 .byte   Gs1
 .byte   N06 ,Cn1
 .byte   W06
 .byte   Gs1
 .byte   N06 ,Dn1
 .byte   W06
 .byte   PEND 
@  #10 @006   ----------------------------------------
Label_015344D3:
 .byte   N06 ,Gs1 ,v102
 .byte   W06
 .byte   Cn1
 .byte   N06 ,As1
 .byte   W12
 .byte   Gs1
 .byte   W06
 .byte   Cn1
 .byte   N06 ,Gs1
 .byte   W06
 .byte   Gs1
 .byte   W06
 .byte   Gs1
 .byte   W06
 .byte   Dn1
 .byte   N06 ,Gs1
 .byte   W06
 .byte   Gs1
 .byte   W06
 .byte   Cn1
 .byte   N06 ,Gs1
 .byte   W06
 .byte   Gs1
 .byte   W06
 .byte   Gs1
 .byte   W06
 .byte   Cn1
 .byte   N06 ,Gs1
 .byte   W06
 .byte   Gs1
 .byte   W06
 .byte   Gs1
 .byte   W06
 .byte   Dn1
 .byte   N06 ,Gs1
 .byte   W06
 .byte   PEND 
@  #10 @007   ----------------------------------------
Label_01534500:
 .byte   N06 ,Gs1 ,v102
 .byte   W06
 .byte   Gs1
 .byte   N06 ,Cn1
 .byte   W06
 .byte   Gs1
 .byte   W06
 .byte   Gs1
 .byte   N06 ,Dn1
 .byte   W06
 .byte   Gs1
 .byte   W06
 .byte   Gs1
 .byte   N06 ,Cn1
 .byte   W06
 .byte   Gs1
 .byte   N06 ,Cn1
 .byte   W06
 .byte   Gs1
 .byte   N06 ,Dn1
 .byte   W06
 .byte   Gs1
 .byte   W06
 .byte   Gs1
 .byte   N06 ,Cn1
 .byte   W06
 .byte   Gs1
 .byte   W06
 .byte   Gs1
 .byte   N06 ,Dn1
 .byte   W06
 .byte   Gs1
 .byte   N06 ,Cn1
 .byte   W06
 .byte   Cn2
 .byte   N06 ,Bn1
 .byte   N06 ,Cn1
 .byte   W06
 .byte   An1
 .byte   N06 ,Bn1
 .byte   N06 ,Cn1
 .byte   W06
 .byte   Gn1
 .byte   N06 ,An1
 .byte   N06 ,Dn1
 .byte   W06
 .byte   PEND 
@  #10 @008   ----------------------------------------
 .byte   N06 ,Dn1 ,v102
 .byte   N06 ,Fn1
 .byte   N06 ,Gn1
 .byte   W06
 .byte   Gs1
 .byte   N06 ,Cn1
 .byte   N06 ,Cs2
 .byte   W06
 .byte   Gs1
 .byte   W06
 .byte   Gs1
 .byte   N06 ,Dn1
 .byte   W06
 .byte   Gs1
 .byte   W06
 .byte   Gs1
 .byte   N06 ,Cn1
 .byte   W06
 .byte   Gs1
 .byte   N06 ,Cn1
 .byte   W06
 .byte   Gs1
 .byte   N06 ,Dn1
 .byte   W06
 .byte   Gs1
 .byte   W06
 .byte   Cn1
 .byte   N06 ,Gs1
 .byte   W06
 .byte   Gs1
 .byte   W06
 .byte   Dn1
 .byte   N06 ,Gs1
 .byte   W06
 .byte   Cn1
 .byte   N06 ,Gs1
 .byte   W06
 .byte   Cn1
 .byte   N06 ,Gs1
 .byte   W06
 .byte   Cn1
 .byte   N06 ,Gs1
 .byte   W06
 .byte   Dn1
 .byte   N06 ,As1
 .byte   W06
@  #10 @009   ----------------------------------------
 .byte   PATT
  .word Label_015343BE
@  #10 @010   ----------------------------------------
 .byte   PATT
  .word Label_015343F7
@  #10 @011   ----------------------------------------
 .byte   PATT
  .word Label_01534432
@  #10 @012   ----------------------------------------
 .byte   PATT
  .word Label_0153446B
@  #10 @013   ----------------------------------------
 .byte   PATT
  .word Label_0153449A
@  #10 @014   ----------------------------------------
 .byte   PATT
  .word Label_015344D3
@  #10 @015   ----------------------------------------
 .byte   PATT
  .word Label_01534500
@  #10 @016   ----------------------------------------
 .byte   GOTO
  .word Label_01534378
@  #10 @017   ----------------------------------------
 .byte   N06 ,Dn1 ,v102
 .byte   N06 ,Fn1
 .byte   N06 ,Gn1
 .byte   W06
 .byte   An2
 .byte   N06 ,Cs2
 .byte   N06 ,Cn1
 .byte   W12
 .byte   Cn1
 .byte   W12
 .byte   Cn1
 .byte   W12
 .byte   Cn1
 .byte   W12
 .byte   Cn1
 .byte   W12
 .byte   Cn1
 .byte   W12
 .byte   As1
 .byte   N06 ,Cn1
 .byte   W12
 .byte   Gs1
 .byte   N06 ,Dn1
 .byte   W06
@  #10 @018   ----------------------------------------
 .byte   Dn1
 .byte   W06
 .byte   Dn1
 .byte   W12
 .byte   Cn1
 .byte   W12
 .byte   Cn1
 .byte   W12
 .byte   Cn1
 .byte   W12
 .byte   Cn1
 .byte   W12
 .byte   Cn1
 .byte   W12
 .byte   As1
 .byte   N06 ,Cn2
 .byte   N06 ,Dn2
 .byte   W06
 .byte   An1
 .byte   N06 ,Bn1
 .byte   W06
 .byte   Gs1
 .byte   N06 ,Gn1
 .byte   N06 ,An1
 .byte   W12
@  #10 @019   ----------------------------------------
 .byte   An2
 .byte   N06 ,Cn1
 .byte   N06 ,Cs2
 .byte   W12
 .byte   Cn1
 .byte   W12
 .byte   Cn1
 .byte   W12
 .byte   Cn1
 .byte   W12
 .byte   Cn1
 .byte   W12
 .byte   Cn1
 .byte   W12
 .byte   Cn1
 .byte   W12
 .byte   Dn1
 .byte   W06
 .byte   Dn1
 .byte   W06
@  #10 @020   ----------------------------------------
 .byte   Cn1
 .byte   W12
 .byte   Cn1
 .byte   W12
 .byte   Cn1
 .byte   W12
 .byte   Cn1
 .byte   W12
 .byte   An1
 .byte   N06 ,Dn1
 .byte   W06
 .byte   Dn1
 .byte   W06
 .byte   Gs1
 .byte   N06 ,Dn1
 .byte   W06
 .byte   Dn1
 .byte   W06
 .byte   Dn1
 .byte   W06
 .byte   Dn1
 .byte   W06
 .byte   Dn1
 .byte   W06
 .byte   Dn1
 .byte   W06
@  #10 @021   ----------------------------------------
Label_01534615:
 .byte   N06 ,Cs2 ,v102
 .byte   N06 ,An2
 .byte   N06 ,Cn1
 .byte   W12
 .byte   Cn1
 .byte   W06
 .byte   Dn1
 .byte   W06
 .byte   Cn1
 .byte   W12
 .byte   Dn1
 .byte   N06 ,Cn1
 .byte   W06
 .byte   Dn1
 .byte   W06
 .byte   Cn1
 .byte   W12
 .byte   Cn1
 .byte   W06
 .byte   Dn1
 .byte   W06
 .byte   Cn1
 .byte   N06 ,As1
 .byte   W12
 .byte   Cn1
 .byte   N06 ,Gs1
 .byte   N06 ,Dn1
 .byte   W06
 .byte   Dn1
 .byte   W06
 .byte   PEND 
@  #10 @022   ----------------------------------------
Label_0153463C:
 .byte   N06 ,Cn1 ,v102
 .byte   N06 ,Dn1
 .byte   W12
 .byte   Cn1
 .byte   W06
 .byte   Dn1
 .byte   W06
 .byte   Cn1
 .byte   W12
 .byte   Dn1
 .byte   N06 ,Cn1
 .byte   W06
 .byte   Dn1
 .byte   W06
 .byte   Cn1
 .byte   W12
 .byte   Cn1
 .byte   W06
 .byte   Dn1
 .byte   W06
 .byte   As1
 .byte   N06 ,Cn1
 .byte   W12
 .byte   Gs1
 .byte   N06 ,Dn1
 .byte   N06 ,Cn1
 .byte   W06
 .byte   Dn1
 .byte   W06
 .byte   PEND 
@  #10 @023   ----------------------------------------
 .byte   PATT
  .word Label_01534615
@  #10 @024   ----------------------------------------
 .byte   PATT
  .word Label_0153463C
@  #10 @025   ----------------------------------------
Label_0153466B:
 .byte   N06 ,An2 ,v102
 .byte   W18
 .byte   Dn1
 .byte   W18
 .byte   Cn1
 .byte   W12
 .byte   Bn1
 .byte   N06 ,Cn2
 .byte   W18
 .byte   An1
 .byte   N06 ,Gn1
 .byte   W18
 .byte   Fn1
 .byte   W12
 .byte   PEND 
@  #10 @026   ----------------------------------------
Label_0153467E:
 .byte   N06 ,Cs2 ,v102
 .byte   W18
 .byte   Dn1
 .byte   W06
 .byte   Dn1
 .byte   W12
 .byte   Cn1
 .byte   W12
 .byte   Bn1
 .byte   N06 ,Cn2
 .byte   N06 ,Dn1
 .byte   W06
 .byte   Dn1
 .byte   W06
 .byte   Dn1
 .byte   W06
 .byte   An1
 .byte   N06 ,Gn1
 .byte   N06 ,Dn1
 .byte   W06
 .byte   Dn1
 .byte   W06
 .byte   Dn1
 .byte   W06
 .byte   Fn1
 .byte   N06 ,Dn1
 .byte   W06
 .byte   Dn1
 .byte   W06
 .byte   PEND 
@  #10 @027   ----------------------------------------
 .byte   PATT
  .word Label_0153466B
@  #10 @028   ----------------------------------------
 .byte   PATT
  .word Label_0153467E
@  #10 @029   ----------------------------------------
Label_015346AD:
 .byte   N06 ,Cn1 ,v102
 .byte   W12
 .byte   Cn1
 .byte   W06
 .byte   Dn1
 .byte   W06
 .byte   Cn1
 .byte   W12
 .byte   Dn1
 .byte   N06 ,Cn1
 .byte   W06
 .byte   Dn1
 .byte   W06
 .byte   Cn1
 .byte   W12
 .byte   Cn1
 .byte   W06
 .byte   Dn1
 .byte   W06
 .byte   Cn1
 .byte   N06 ,As1
 .byte   W12
 .byte   Cn1
 .byte   N06 ,Gs1
 .byte   N06 ,Dn1
 .byte   W06
 .byte   Dn1
 .byte   W06
 .byte   PEND 
@  #10 @030   ----------------------------------------
 .byte   PATT
  .word Label_0153463C
@  #10 @031   ----------------------------------------
 .byte   PATT
  .word Label_015346AD
@  #10 @032   ----------------------------------------
 .byte   PATT
  .word Label_0153463C
@  #10 @033   ----------------------------------------
 .byte   N06 ,Gs1 ,v102
 .byte   N06 ,An2
 .byte   N06 ,Cn1
 .byte   W06
 .byte   Gs1
 .byte   W06
 .byte   Gs1
 .byte   N06 ,Dn1
 .byte   W06
 .byte   Gs1
 .byte   W06
 .byte   Gs1
 .byte   N06 ,Cn1
 .byte   W06
 .byte   Gs1
 .byte   N06 ,Cn1
 .byte   W06
 .byte   Gs1
 .byte   N06 ,Dn1
 .byte   W06
 .byte   Gs1
 .byte   W06
 .byte   Gs1
 .byte   N06 ,Cn1
 .byte   W06
 .byte   Gs1
 .byte   W06
 .byte   Gs1
 .byte   N06 ,Dn1
 .byte   W06
 .byte   Gs1
 .byte   N06 ,Cn1
 .byte   W06
 .byte   Gs1
 .byte   N06 ,Cn1
 .byte   W06
 .byte   Gs1
 .byte   N06 ,Cn1
 .byte   W06
 .byte   Gs1
 .byte   N06 ,Dn1
 .byte   W06
 .byte   Gs1
 .byte   W06
@  #10 @034   ----------------------------------------
 .byte   Gs1
 .byte   N06 ,Cn1
 .byte   W06
 .byte   Gs1
 .byte   W06
 .byte   Gs1
 .byte   N06 ,Dn1
 .byte   W06
 .byte   Gs1
 .byte   W06
 .byte   Gs1
 .byte   N06 ,Cn1
 .byte   W06
 .byte   Gs1
 .byte   N06 ,Cn1
 .byte   W06
 .byte   Gs1
 .byte   N06 ,Dn1
 .byte   W06
 .byte   Gs1
 .byte   W06
 .byte   Gs1
 .byte   N06 ,Cn1
 .byte   W06
 .byte   Gs1
 .byte   W06
 .byte   Gs1
 .byte   N06 ,Dn1
 .byte   W06
 .byte   Gs1
 .byte   N06 ,Cn1
 .byte   W06
 .byte   Gs1
 .byte   N06 ,Cn1
 .byte   W06
 .byte   Gs1
 .byte   N06 ,Cn1
 .byte   W06
 .byte   Gs1
 .byte   N06 ,Dn1
 .byte   W06
 .byte   Gs1
 .byte   N06 ,Dn1
 .byte   W06
@  #10 @035   ----------------------------------------
 .byte   Gs1
 .byte   N06 ,Cn1
 .byte   W06
 .byte   Gs1
 .byte   W06
 .byte   Gs1
 .byte   N06 ,Dn1
 .byte   W06
 .byte   Gs1
 .byte   W06
 .byte   Gs1
 .byte   N06 ,Cn1
 .byte   W06
 .byte   Gs1
 .byte   N06 ,Cn1
 .byte   W06
 .byte   Gs1
 .byte   N06 ,Dn1
 .byte   W06
 .byte   Gs1
 .byte   W06
 .byte   Gs1
 .byte   N06 ,Cn1
 .byte   W06
 .byte   Gs1
 .byte   W06
 .byte   Gs1
 .byte   N06 ,Dn1
 .byte   W06
 .byte   Gs1
 .byte   N06 ,Cn1
 .byte   W06
 .byte   Gs1
 .byte   N06 ,Cn1
 .byte   W06
 .byte   Gs1
 .byte   N06 ,Cn1
 .byte   W06
 .byte   Gs1
 .byte   N06 ,Dn1
 .byte   W06
 .byte   Gs1
 .byte   W06
@  #10 @036   ----------------------------------------
 .byte   Gs1
 .byte   N06 ,Cn1
 .byte   W06
 .byte   Gs1
 .byte   W06
 .byte   Gs1
 .byte   N06 ,Dn1
 .byte   W06
 .byte   Gs1
 .byte   W06
 .byte   Gs1
 .byte   N06 ,Cn1
 .byte   W06
 .byte   Gs1
 .byte   N06 ,Cn1
 .byte   W06
 .byte   Gs1
 .byte   N06 ,Dn1
 .byte   W06
 .byte   Gs1
 .byte   W06
 .byte   Gs1
 .byte   N06 ,Cn1
 .byte   W06
 .byte   Gs1
 .byte   W06
 .byte   Gs1
 .byte   N06 ,Dn1
 .byte   W06
 .byte   Gs1
 .byte   N06 ,Cn1
 .byte   W06
 .byte   As1
 .byte   N06 ,Cn1
 .byte   W06
 .byte   Cn1
 .byte   W06
 .byte   Gs1
 .byte   N06 ,Dn1
 .byte   W06
 .byte   Dn1
 .byte   W06
@  #10 @037   ----------------------------------------
Label_015347BB:
 .byte   N06 ,As1 ,v102
 .byte   N06 ,Cn1
 .byte   W18
 .byte   Cn1
 .byte   W18
 .byte   Dn1
 .byte   W12
 .byte   Cn1
 .byte   W18
 .byte   Cn1
 .byte   W18
 .byte   Dn1
 .byte   W12
 .byte   PEND 
@  #10 @038   ----------------------------------------
 .byte   N06 ,Gs1 ,v102
 .byte   N06 ,Cn1
 .byte   W06
 .byte   Gs1
 .byte   W06
 .byte   Gs1
 .byte   N06 ,Dn1
 .byte   W06
 .byte   Gs1
 .byte   W06
 .byte   Gs1
 .byte   N06 ,Cn1
 .byte   W06
 .byte   Gs1
 .byte   N06 ,Cn1
 .byte   W06
 .byte   Gs1
 .byte   N06 ,Dn1
 .byte   W06
 .byte   Gs1
 .byte   W06
 .byte   Gs1
 .byte   N06 ,Cn1
 .byte   W06
 .byte   Gs1
 .byte   N06 ,Cn1
 .byte   W06
 .byte   Gs1
 .byte   N06 ,Dn1
 .byte   W06
 .byte   Gs1
 .byte   N06 ,Cn1
 .byte   W06
 .byte   Gs1
 .byte   N06 ,Cn1
 .byte   W06
 .byte   Gs1
 .byte   N06 ,Cn1
 .byte   W06
 .byte   Gs1
 .byte   N06 ,Dn1
 .byte   W06
 .byte   Gs1
 .byte   N06 ,Dn1
 .byte   W06
@  #10 @039   ----------------------------------------
 .byte   PATT
  .word Label_015347BB
@  #10 @040   ----------------------------------------
 .byte   N06 ,Gs1 ,v102
 .byte   N06 ,Cn1
 .byte   W06
 .byte   Gs1
 .byte   W06
 .byte   Gs1
 .byte   N06 ,Dn1
 .byte   W06
 .byte   Gs1
 .byte   W06
 .byte   Gs1
 .byte   N06 ,Cn1
 .byte   W06
 .byte   Gs1
 .byte   N06 ,Cn1
 .byte   W06
 .byte   Gs1
 .byte   N06 ,Dn1
 .byte   W06
 .byte   Gs1
 .byte   W06
 .byte   Gs1
 .byte   N06 ,Cn1
 .byte   W06
 .byte   Gs1
 .byte   N06 ,Cn1
 .byte   W06
 .byte   Gs1
 .byte   N06 ,Dn1
 .byte   W06
 .byte   Gs1
 .byte   N06 ,Cn1
 .byte   W06
 .byte   Bn1
 .byte   N06 ,Cn2
 .byte   N06 ,Cn1
 .byte   W06
 .byte   An1
 .byte   N06 ,Bn1
 .byte   N06 ,Cn1
 .byte   W06
 .byte   Gn1
 .byte   N06 ,An1
 .byte   N06 ,Dn1
 .byte   W06
 .byte   Fn1
 .byte   N06 ,Gn1
 .byte   N06 ,Dn1
 .byte   W06
@  #10 @041   ----------------------------------------
 .byte   VOL , 74*ToadstoolTourSkinsMatch_mvl/mxv
 .byte   BEND , c_v+63
 .byte   N06 ,Cs2 ,v102
 .byte   N06 ,An2
 .byte   N06 ,Cn1
 .byte   W12
 .byte   Cn1
 .byte   W12
 .byte   Cn1
 .byte   W12
 .byte   Cn1
 .byte   W12
 .byte   Cn1
 .byte   W12
 .byte   Cn1
 .byte   W12
 .byte   Dn1
 .byte   W06
 .byte   Dn1
 .byte   W06
 .byte   Dn1
 .byte   W06
 .byte   Dn1
 .byte   W06
@  #10 @042   ----------------------------------------
 .byte   Dn1
 .byte   W12
 .byte   Cn1
 .byte   W12
 .byte   Cn1
 .byte   W12
 .byte   Cn1
 .byte   W12
 .byte   Cn1
 .byte   W12
 .byte   Cn1
 .byte   W12
 .byte   Cn2
 .byte   N06 ,Dn2
 .byte   W06
 .byte   An1
 .byte   N06 ,Bn1
 .byte   W06
 .byte   Gn1
 .byte   N06 ,An1
 .byte   W06
 .byte   Fn1
 .byte   N06 ,Gn1
 .byte   W06
@  #10 @043   ----------------------------------------
 .byte   An2
 .byte   N06 ,Cn1
 .byte   N06 ,Cs2
 .byte   W12
 .byte   Cn1
 .byte   W12
 .byte   Cn1
 .byte   W12
 .byte   Cn1
 .byte   W12
 .byte   Cn1
 .byte   W12
 .byte   Cn1
 .byte   W12
 .byte   Dn1
 .byte   W06
 .byte   Dn1
 .byte   W06
 .byte   Dn1
 .byte   W12
@  #10 @044   ----------------------------------------
 .byte   Cn1
 .byte   W12
 .byte   Cn1
 .byte   W12
 .byte   Cn1
 .byte   W12
 .byte   Cn1
 .byte   W12
 .byte   Bn1
 .byte   N06 ,Cn2
 .byte   W06
 .byte   An1
 .byte   N06 ,Bn1
 .byte   N06 ,Cn2
 .byte   W06
 .byte   An1
 .byte   N06 ,Bn1
 .byte   W06
 .byte   Gn1
 .byte   N06 ,An1
 .byte   N06 ,Bn1
 .byte   W06
 .byte   Gn1
 .byte   N06 ,An1
 .byte   W06
 .byte   Gn1
 .byte   N06 ,An1
 .byte   W06
 .byte   Fn1
 .byte   N06 ,Dn1
 .byte   N06 ,Gn1
 .byte   W06
 .byte   Dn1
 .byte   N06 ,Fn1
 .byte   W06
@  #10 @045   ----------------------------------------
 .byte   Gs1
 .byte   N06 ,Cn1
 .byte   N06 ,An2
 .byte   W06
 .byte   Gs1
 .byte   W06
 .byte   Gs1
 .byte   N06 ,Dn1
 .byte   W06
 .byte   Gs1
 .byte   W06
 .byte   Gs1
 .byte   N06 ,Cn1
 .byte   W06
 .byte   Gs1
 .byte   N06 ,Cn1
 .byte   W06
 .byte   Gs1
 .byte   N06 ,Dn1
 .byte   W06
 .byte   Gs1
 .byte   W06
 .byte   Cn1
 .byte   N06 ,Gs1
 .byte   W06
 .byte   Gs1
 .byte   W06
 .byte   Dn1
 .byte   N06 ,Gs1
 .byte   W06
 .byte   Cn1
 .byte   N06 ,Gs1
 .byte   W06
 .byte   Cn1
 .byte   N06 ,Gs1
 .byte   W06
 .byte   Cn1
 .byte   N06 ,Gs1
 .byte   W06
 .byte   Dn1
 .byte   N06 ,As1
 .byte   W06
 .byte   Gs1
 .byte   W06
@  #10 @046   ----------------------------------------
 .byte   Gs1
 .byte   N06 ,Cn1
 .byte   W06
 .byte   Gs1
 .byte   W06
 .byte   Gs1
 .byte   N06 ,Dn1
 .byte   W06
 .byte   Gs1
 .byte   W06
 .byte   Gs1
 .byte   N06 ,Cn1
 .byte   W06
 .byte   Gs1
 .byte   N06 ,Cn1
 .byte   W06
 .byte   Gs1
 .byte   N06 ,Dn1
 .byte   W06
 .byte   Gs1
 .byte   W06
 .byte   Cn1
 .byte   N06 ,Gs1
 .byte   W06
 .byte   Gs1
 .byte   W06
 .byte   Dn1
 .byte   N06 ,Gs1
 .byte   W06
 .byte   Cn1
 .byte   N06 ,Gs1
 .byte   W06
 .byte   Cn1
 .byte   N06 ,Gs1
 .byte   W06
 .byte   Cn1
 .byte   N06 ,Gs1
 .byte   W06
 .byte   Dn1
 .byte   N06 ,As1
 .byte   W06
 .byte   Dn1
 .byte   N06 ,Gs1
 .byte   W06
@  #10 @047   ----------------------------------------
 .byte   Gs1
 .byte   N06 ,Cn1
 .byte   W06
 .byte   Gs1
 .byte   W06
 .byte   Gs1
 .byte   N06 ,Dn1
 .byte   W06
 .byte   Gs1
 .byte   W06
 .byte   Gs1
 .byte   N06 ,Cn1
 .byte   W06
 .byte   Gs1
 .byte   N06 ,Cn1
 .byte   W06
 .byte   Gs1
 .byte   N06 ,Dn1
 .byte   W06
 .byte   Gs1
 .byte   W06
 .byte   Cn1
 .byte   N06 ,Gs1
 .byte   W06
 .byte   Gs1
 .byte   W06
 .byte   Dn1
 .byte   N06 ,Gs1
 .byte   W06
 .byte   Cn1
 .byte   N06 ,Gs1
 .byte   W06
 .byte   Cn1
 .byte   N06 ,Gs1
 .byte   W06
 .byte   Cn1
 .byte   N06 ,Gs1
 .byte   W06
 .byte   Dn1
 .byte   N06 ,As1
 .byte   W06
 .byte   Gs1
 .byte   W06
@  #10 @048   ----------------------------------------
 .byte   Gs1
 .byte   N06 ,Cn1
 .byte   W06
 .byte   Gs1
 .byte   W06
 .byte   Gs1
 .byte   N06 ,Dn1
 .byte   W06
 .byte   Gs1
 .byte   W06
 .byte   Gs1
 .byte   N06 ,Cn1
 .byte   W06
 .byte   Gs1
 .byte   N06 ,Cn1
 .byte   W06
 .byte   Gs1
 .byte   N06 ,Dn1
 .byte   W06
 .byte   Gs1
 .byte   W06
 .byte   Cn1
 .byte   N06 ,Gs1
 .byte   W06
 .byte   Gs1
 .byte   W06
 .byte   Dn1
 .byte   N06 ,Gs1
 .byte   W06
 .byte   Cn1
 .byte   N06 ,Gs1
 .byte   W06
 .byte   Dn1
 .byte   N06 ,Gs1
 .byte   W06
 .byte   Dn1
 .byte   N06 ,Gs1
 .byte   W06
 .byte   Dn1
 .byte   N06 ,As1
 .byte   W06
 .byte   Dn1
 .byte   N06 ,Gs1
 .byte   W06
@  #10 @049   ----------------------------------------
 .byte   Cn1
 .byte   N06 ,As1
 .byte   W12
 .byte   Gs1
 .byte   W06
 .byte   Cn1
 .byte   N06 ,Gs1
 .byte   W06
 .byte   Gs1
 .byte   W06
 .byte   Gs1
 .byte   W06
 .byte   Dn1
 .byte   N06 ,Gs1
 .byte   W06
 .byte   Gs1
 .byte   W06
 .byte   Cn1
 .byte   N06 ,Gs1
 .byte   W06
 .byte   Gs1
 .byte   W06
 .byte   Gs1
 .byte   W06
 .byte   Cn1
 .byte   N06 ,Gs1
 .byte   W06
 .byte   Gs1
 .byte   W06
 .byte   Gs1
 .byte   W06
 .byte   Dn1
 .byte   N06 ,Gs1
 .byte   W06
 .byte   Gs1
 .byte   W06
@  #10 @050   ----------------------------------------
 .byte   Gs1
 .byte   N06 ,Cn1
 .byte   W06
 .byte   Gs1
 .byte   W06
 .byte   Gs1
 .byte   N06 ,Dn1
 .byte   W06
 .byte   Gs1
 .byte   W06
 .byte   Gs1
 .byte   N06 ,Cn1
 .byte   W06
 .byte   Gs1
 .byte   N06 ,Cn1
 .byte   W06
 .byte   Gs1
 .byte   N06 ,Dn1
 .byte   W06
 .byte   Gs1
 .byte   W06
 .byte   Gs1
 .byte   N06 ,Cn1
 .byte   W06
 .byte   Gs1
 .byte   W06
 .byte   Gs1
 .byte   N06 ,Dn1
 .byte   W06
 .byte   Gs1
 .byte   N06 ,Cn1
 .byte   W06
 .byte   Gs1
 .byte   N06 ,Cn1
 .byte   W06
 .byte   Gs1
 .byte   N06 ,Cn1
 .byte   W06
 .byte   Gs1
 .byte   N06 ,Dn1
 .byte   W06
 .byte   Gs1
 .byte   W06
@  #10 @051   ----------------------------------------
 .byte   Cn1
 .byte   N06 ,As1
 .byte   W12
 .byte   Gs1
 .byte   W06
 .byte   Cn1
 .byte   N06 ,Gs1
 .byte   W06
 .byte   Gs1
 .byte   W06
 .byte   Gs1
 .byte   W06
 .byte   Dn1
 .byte   N06 ,Gs1
 .byte   W06
 .byte   Gs1
 .byte   W06
 .byte   Cn1
 .byte   N06 ,Gs1
 .byte   W06
 .byte   Gs1
 .byte   W06
 .byte   Gs1
 .byte   W06
 .byte   Cn1
 .byte   N06 ,Gs1
 .byte   W06
 .byte   Gs1
 .byte   W06
 .byte   Gs1
 .byte   W06
 .byte   Dn1
 .byte   N06 ,Gs1
 .byte   W06
 .byte   Gs1
 .byte   W06
@  #10 @052   ----------------------------------------
 .byte   Gs1
 .byte   N06 ,Cn1
 .byte   W06
 .byte   Gs1
 .byte   W06
 .byte   Gs1
 .byte   N06 ,Dn1
 .byte   W06
 .byte   Gs1
 .byte   W06
 .byte   Gs1
 .byte   N06 ,Cn1
 .byte   W06
 .byte   Gs1
 .byte   N06 ,Cn1
 .byte   W06
 .byte   Gs1
 .byte   N06 ,Dn1
 .byte   W06
 .byte   Gs1
 .byte   W06
 .byte   Gs1
 .byte   N06 ,Cn1
 .byte   W06
 .byte   Gs1
 .byte   W06
 .byte   Gs1
 .byte   N06 ,Dn1
 .byte   W06
 .byte   Gs1
 .byte   N06 ,Cn1
 .byte   W06
 .byte   Cn2
 .byte   N06 ,Bn1
 .byte   N06 ,Cn1
 .byte   W06
 .byte   An1
 .byte   N06 ,Bn1
 .byte   N06 ,Cn1
 .byte   W06
 .byte   Gn1
 .byte   N06 ,An1
 .byte   N06 ,Dn1
 .byte   W06
 .byte   Dn1
 .byte   N06 ,Fn1
 .byte   N06 ,Gn1
 .byte   W06
@  #10 @053   ----------------------------------------
 .byte   Gs1
 .byte   N06 ,Cn1
 .byte   N06 ,Cs2
 .byte   W06
 .byte   Gs1
 .byte   W06
 .byte   Gs1
 .byte   N06 ,Dn1
 .byte   W06
 .byte   Gs1
 .byte   W06
 .byte   Gs1
 .byte   N06 ,Cn1
 .byte   W06
 .byte   Gs1
 .byte   N06 ,Cn1
 .byte   W06
 .byte   Gs1
 .byte   N06 ,Dn1
 .byte   W06
 .byte   Gs1
 .byte   W06
 .byte   Cn1
 .byte   N06 ,Gs1
 .byte   W06
 .byte   Gs1
 .byte   W06
 .byte   Dn1
 .byte   N06 ,Gs1
 .byte   W06
 .byte   Cn1
 .byte   N06 ,Gs1
 .byte   W06
 .byte   Cn1
 .byte   N06 ,Gs1
 .byte   W06
 .byte   Cn1
 .byte   N06 ,Gs1
 .byte   W06
 .byte   Dn1
 .byte   N06 ,As1
 .byte   W06
 .byte   Gs1
 .byte   W06
@  #10 @054   ----------------------------------------
 .byte   Gs1
 .byte   N06 ,Cn1
 .byte   W06
 .byte   Gs1
 .byte   W06
 .byte   Gs1
 .byte   N06 ,Dn1
 .byte   W06
 .byte   Gs1
 .byte   W06
 .byte   Gs1
 .byte   N06 ,Cn1
 .byte   W06
 .byte   Gs1
 .byte   N06 ,Cn1
 .byte   W06
 .byte   Gs1
 .byte   N06 ,Dn1
 .byte   W06
 .byte   Gs1
 .byte   W06
 .byte   Cn1
 .byte   N06 ,Gs1
 .byte   W06
 .byte   Gs1
 .byte   W06
 .byte   Dn1
 .byte   N06 ,Gs1
 .byte   W06
 .byte   Cn1
 .byte   N06 ,Gs1
 .byte   W06
 .byte   Cn1
 .byte   N06 ,Gs1
 .byte   W06
 .byte   Cn1
 .byte   N06 ,Gs1
 .byte   W06
 .byte   Dn1
 .byte   N06 ,As1
 .byte   W06
 .byte   Dn1
 .byte   N06 ,Gs1
 .byte   W06
@  #10 @055   ----------------------------------------
 .byte   Gs1
 .byte   N06 ,Cn1
 .byte   W06
 .byte   Gs1
 .byte   W06
 .byte   Gs1
 .byte   N06 ,Dn1
 .byte   W06
 .byte   Gs1
 .byte   W06
 .byte   Gs1
 .byte   N06 ,Cn1
 .byte   W06
 .byte   Gs1
 .byte   N06 ,Cn1
 .byte   W06
 .byte   Gs1
 .byte   N06 ,Dn1
 .byte   W06
 .byte   Gs1
 .byte   W06
 .byte   Cn1
 .byte   N06 ,Gs1
 .byte   W06
 .byte   Gs1
 .byte   W06
 .byte   Dn1
 .byte   N06 ,Gs1
 .byte   W06
 .byte   Cn1
 .byte   N06 ,Gs1
 .byte   W06
 .byte   Cn1
 .byte   N06 ,Gs1
 .byte   W06
 .byte   Cn1
 .byte   N06 ,Gs1
 .byte   W06
 .byte   Dn1
 .byte   N06 ,As1
 .byte   W06
 .byte   Gs1
 .byte   W06
@  #10 @056   ----------------------------------------
 .byte   Gs1
 .byte   N06 ,Cn1
 .byte   W06
 .byte   Gs1
 .byte   W06
 .byte   Gs1
 .byte   N06 ,Dn1
 .byte   W06
 .byte   Gs1
 .byte   W06
 .byte   Gs1
 .byte   N06 ,Cn1
 .byte   W06
 .byte   Gs1
 .byte   N06 ,Cn1
 .byte   W06
 .byte   Gs1
 .byte   N06 ,Dn1
 .byte   W06
 .byte   Gs1
 .byte   W06
 .byte   Cn1
 .byte   N06 ,Gs1
 .byte   W06
 .byte   Gs1
 .byte   W06
 .byte   Dn1
 .byte   N06 ,Gs1
 .byte   W06
 .byte   Cn1
 .byte   N06 ,Gs1
 .byte   W06
 .byte   Dn1
 .byte   N06 ,Gs1
 .byte   W06
 .byte   Dn1
 .byte   N06 ,Gs1
 .byte   W06
 .byte   Dn1
 .byte   N06 ,As1
 .byte   W06
 .byte   Dn1
 .byte   N06 ,Gs1
 .byte   W06
@  #10 @057   ----------------------------------------
 .byte   Cn1
 .byte   N06 ,As1
 .byte   W12
 .byte   Gs1
 .byte   W06
 .byte   Cn1
 .byte   N06 ,Gs1
 .byte   W06
 .byte   Gs1
 .byte   W06
 .byte   Gs1
 .byte   W06
 .byte   Dn1
 .byte   N06 ,Gs1
 .byte   W06
 .byte   Gs1
 .byte   W06
 .byte   Cn1
 .byte   N06 ,Gs1
 .byte   W06
 .byte   Gs1
 .byte   W06
 .byte   Gs1
 .byte   W06
 .byte   Cn1
 .byte   N06 ,Gs1
 .byte   W06
 .byte   Gs1
 .byte   W06
 .byte   Gs1
 .byte   W06
 .byte   Dn1
 .byte   N06 ,Gs1
 .byte   W06
 .byte   Gs1
 .byte   W06
@  #10 @058   ----------------------------------------
 .byte   Gs1
 .byte   N06 ,Cn1
 .byte   W06
 .byte   Gs1
 .byte   W06
 .byte   Gs1
 .byte   N06 ,Dn1
 .byte   W06
 .byte   Gs1
 .byte   W06
 .byte   Gs1
 .byte   N06 ,Cn1
 .byte   W06
 .byte   Gs1
 .byte   N06 ,Cn1
 .byte   W06
 .byte   Gs1
 .byte   N06 ,Dn1
 .byte   W06
 .byte   Gs1
 .byte   W06
 .byte   Gs1
 .byte   N06 ,Cn1
 .byte   W06
 .byte   Gs1
 .byte   W06
 .byte   Gs1
 .byte   N06 ,Dn1
 .byte   W06
 .byte   Gs1
 .byte   N06 ,Cn1
 .byte   W06
 .byte   Gs1
 .byte   N06 ,Cn1
 .byte   W06
 .byte   Gs1
 .byte   N06 ,Cn1
 .byte   W06
 .byte   Gs1
 .byte   N06 ,Dn1
 .byte   W06
 .byte   Gs1
 .byte   W06
@  #10 @059   ----------------------------------------
 .byte   Cn1
 .byte   N06 ,As1
 .byte   W12
 .byte   Gs1
 .byte   W06
 .byte   Cn1
 .byte   N06 ,Gs1
 .byte   W06
 .byte   Gs1
 .byte   W06
 .byte   Gs1
 .byte   W06
 .byte   Dn1
 .byte   N06 ,Gs1
 .byte   W06
 .byte   Gs1
 .byte   W06
 .byte   Cn1
 .byte   N06 ,Gs1
 .byte   W06
 .byte   Gs1
 .byte   W06
 .byte   Gs1
 .byte   W06
 .byte   Cn1
 .byte   N06 ,Gs1
 .byte   W06
 .byte   Gs1
 .byte   W06
 .byte   Gs1
 .byte   W06
 .byte   Dn1
 .byte   N06 ,Gs1
 .byte   W06
 .byte   Gs1
 .byte   W06
@  #10 @060   ----------------------------------------
 .byte   Gs1
 .byte   N06 ,Cn1
 .byte   W06
 .byte   Gs1
 .byte   W06
 .byte   Gs1
 .byte   N06 ,Dn1
 .byte   W06
 .byte   Gs1
 .byte   W06
 .byte   Gs1
 .byte   N06 ,Cn1
 .byte   W06
 .byte   Gs1
 .byte   N06 ,Cn1
 .byte   W06
 .byte   Gs1
 .byte   N06 ,Dn1
 .byte   W06
 .byte   Gs1
 .byte   W06
 .byte   Gs1
 .byte   N06 ,Cn1
 .byte   W06
 .byte   Gs1
 .byte   W06
 .byte   Gs1
 .byte   N06 ,Dn1
 .byte   W06
 .byte   Gs1
 .byte   N06 ,Cn1
 .byte   W06
 .byte   Cn2
 .byte   N06 ,Bn1
 .byte   N06 ,Cn1
 .byte   W06
 .byte   An1
 .byte   N06 ,Bn1
 .byte   N06 ,Cn1
 .byte   W06
 .byte   Gn1
 .byte   N06 ,An1
 .byte   N06 ,Dn1
 .byte   W06
 .byte   Dn1
 .byte   N06 ,Fn1
 .byte   N06 ,Gn1
 .byte   W06
@  #10 @061   ----------------------------------------
 .byte   An2
 .byte   N06 ,Cs2
 .byte   N06 ,Cn1
 .byte   W12
 .byte   Cn1
 .byte   W12
 .byte   Cn1
 .byte   W12
 .byte   Cn1
 .byte   W12
 .byte   Cn1
 .byte   W12
 .byte   Cn1
 .byte   W12
 .byte   As1
 .byte   N06 ,Cn1
 .byte   W12
 .byte   Gs1
 .byte   N06 ,Dn1
 .byte   W06
 .byte   Dn1
 .byte   W06
@  #10 @062   ----------------------------------------
 .byte   Dn1
 .byte   W12
 .byte   Cn1
 .byte   W12
 .byte   Cn1
 .byte   W12
 .byte   Cn1
 .byte   W12
 .byte   Cn1
 .byte   W12
 .byte   Cn1
 .byte   W12
 .byte   As1
 .byte   N06 ,Cn2
 .byte   N06 ,Dn2
 .byte   W06
 .byte   An1
 .byte   N06 ,Bn1
 .byte   W06
 .byte   Gs1
 .byte   N06 ,Gn1
 .byte   N06 ,An1
 .byte   W12
@  #10 @063   ----------------------------------------
 .byte   An2
 .byte   N06 ,Cn1
 .byte   N06 ,Cs2
 .byte   W12
 .byte   Cn1
 .byte   W12
 .byte   Cn1
 .byte   W12
 .byte   Cn1
 .byte   W12
 .byte   Cn1
 .byte   W12
 .byte   Cn1
 .byte   W12
 .byte   Cn1
 .byte   W12
 .byte   Dn1
 .byte   W06
 .byte   Dn1
 .byte   W06
@  #10 @064   ----------------------------------------
 .byte   Cn1
 .byte   W12
 .byte   Cn1
 .byte   W12
 .byte   Cn1
 .byte   W12
 .byte   Cn1
 .byte   W12
 .byte   An1
 .byte   N06 ,Dn1
 .byte   W06
 .byte   Dn1
 .byte   W06
 .byte   Gs1
 .byte   N06 ,Dn1
 .byte   W06
 .byte   Dn1
 .byte   W06
 .byte   Dn1
 .byte   W06
 .byte   Dn1
 .byte   W06
 .byte   Dn1
 .byte   W06
 .byte   Dn1
 .byte   W06
@  #10 @065   ----------------------------------------
 .byte   Cs2
 .byte   N06 ,An2
 .byte   N06 ,Cn1
 .byte   W12
 .byte   Cn1
 .byte   W06
 .byte   Dn1
 .byte   W06
 .byte   Cn1
 .byte   W12
 .byte   Dn1
 .byte   N06 ,Cn1
 .byte   W06
 .byte   Dn1
 .byte   W06
 .byte   Cn1
 .byte   W12
 .byte   Cn1
 .byte   W06
 .byte   Dn1
 .byte   W06
 .byte   Cn1
 .byte   N06 ,As1
 .byte   W12
 .byte   Cn1
 .byte   N06 ,Gs1
 .byte   N06 ,Dn1
 .byte   W06
 .byte   Dn1
 .byte   W06
@  #10 @066   ----------------------------------------
 .byte   Cn1
 .byte   N06 ,Dn1
 .byte   W12
 .byte   Cn1
 .byte   W06
 .byte   Dn1
 .byte   W06
 .byte   Cn1
 .byte   W12
 .byte   Dn1
 .byte   N06 ,Cn1
 .byte   W06
 .byte   Dn1
 .byte   W06
 .byte   Cn1
 .byte   W12
 .byte   Cn1
 .byte   W06
 .byte   Dn1
 .byte   W06
 .byte   As1
 .byte   N06 ,Cn1
 .byte   W12
 .byte   Gs1
 .byte   N06 ,Dn1
 .byte   N06 ,Cn1
 .byte   W06
 .byte   Dn1
 .byte   W06
@  #10 @067   ----------------------------------------
 .byte   Cs2
 .byte   N06 ,An2
 .byte   N06 ,Cn1
 .byte   W12
 .byte   Cn1
 .byte   W06
 .byte   Dn1
 .byte   W06
 .byte   Cn1
 .byte   W12
 .byte   Dn1
 .byte   N06 ,Cn1
 .byte   W06
 .byte   Dn1
 .byte   W06
 .byte   Cn1
 .byte   W12
 .byte   Cn1
 .byte   W06
 .byte   Dn1
 .byte   W06
 .byte   Cn1
 .byte   N06 ,As1
 .byte   W12
 .byte   Cn1
 .byte   N06 ,Gs1
 .byte   N06 ,Dn1
 .byte   W06
 .byte   Dn1
 .byte   W06
@  #10 @068   ----------------------------------------
 .byte   Cn1
 .byte   N06 ,Dn1
 .byte   W12
 .byte   Cn1
 .byte   W06
 .byte   Dn1
 .byte   W06
 .byte   Cn1
 .byte   W12
 .byte   Dn1
 .byte   N06 ,Cn1
 .byte   W06
 .byte   Dn1
 .byte   W06
 .byte   Cn1
 .byte   W12
 .byte   Cn1
 .byte   W06
 .byte   Dn1
 .byte   W06
 .byte   As1
 .byte   N06 ,Cn1
 .byte   W12
 .byte   Gs1
 .byte   N06 ,Dn1
 .byte   N06 ,Cn1
 .byte   W06
 .byte   Dn1
 .byte   W06
@  #10 @069   ----------------------------------------
 .byte   An2
 .byte   W18
 .byte   Dn1
 .byte   W18
 .byte   Cn1
 .byte   W12
 .byte   Bn1
 .byte   N06 ,Cn2
 .byte   W18
 .byte   An1
 .byte   N06 ,Gn1
 .byte   W18
 .byte   Fn1
 .byte   W12
@  #10 @070   ----------------------------------------
 .byte   Cs2
 .byte   W18
 .byte   Dn1
 .byte   W06
 .byte   Dn1
 .byte   W12
 .byte   Cn1
 .byte   W12
 .byte   Bn1
 .byte   N06 ,Cn2
 .byte   N06 ,Dn1
 .byte   W06
 .byte   Dn1
 .byte   W06
 .byte   Dn1
 .byte   W06
 .byte   An1
 .byte   N06 ,Gn1
 .byte   N06 ,Dn1
 .byte   W06
 .byte   Dn1
 .byte   W06
 .byte   Dn1
 .byte   W06
 .byte   Fn1
 .byte   N06 ,Dn1
 .byte   W06
 .byte   Dn1
 .byte   W06
@  #10 @071   ----------------------------------------
 .byte   An2
 .byte   W18
 .byte   Dn1
 .byte   W18
 .byte   Cn1
 .byte   W12
 .byte   Bn1
 .byte   N06 ,Cn2
 .byte   W18
 .byte   An1
 .byte   N06 ,Gn1
 .byte   W18
 .byte   Fn1
 .byte   W12
@  #10 @072   ----------------------------------------
 .byte   Cs2
 .byte   W18
 .byte   Dn1
 .byte   W06
 .byte   Dn1
 .byte   W12
 .byte   Cn1
 .byte   W12
 .byte   Bn1
 .byte   N06 ,Cn2
 .byte   N06 ,Dn1
 .byte   W06
 .byte   Dn1
 .byte   W06
 .byte   Dn1
 .byte   W06
 .byte   An1
 .byte   N06 ,Gn1
 .byte   N06 ,Dn1
 .byte   W06
 .byte   Dn1
 .byte   W06
 .byte   Dn1
 .byte   W06
 .byte   Fn1
 .byte   N06 ,Dn1
 .byte   W06
 .byte   Dn1
 .byte   W06
@  #10 @073   ----------------------------------------
 .byte   Cn1
 .byte   W12
 .byte   Cn1
 .byte   W06
 .byte   Dn1
 .byte   W06
 .byte   Cn1
 .byte   W12
 .byte   Dn1
 .byte   N06 ,Cn1
 .byte   W06
 .byte   Dn1
 .byte   W06
 .byte   Cn1
 .byte   W12
 .byte   Cn1
 .byte   W06
 .byte   Dn1
 .byte   W06
 .byte   Cn1
 .byte   N06 ,As1
 .byte   W12
 .byte   Cn1
 .byte   N06 ,Gs1
 .byte   N06 ,Dn1
 .byte   W06
 .byte   Dn1
 .byte   W06
@  #10 @074   ----------------------------------------
 .byte   Cn1
 .byte   N06 ,Dn1
 .byte   W12
 .byte   Cn1
 .byte   W06
 .byte   Dn1
 .byte   W06
 .byte   Cn1
 .byte   W12
 .byte   Dn1
 .byte   N06 ,Cn1
 .byte   W06
 .byte   Dn1
 .byte   W06
 .byte   Cn1
 .byte   W12
 .byte   Cn1
 .byte   W06
 .byte   Dn1
 .byte   W06
 .byte   As1
 .byte   N06 ,Cn1
 .byte   W12
 .byte   Gs1
 .byte   N06 ,Dn1
 .byte   N06 ,Cn1
 .byte   W06
 .byte   Dn1
 .byte   W06
@  #10 @075   ----------------------------------------
 .byte   Cn1
 .byte   W12
 .byte   Cn1
 .byte   W06
 .byte   Dn1
 .byte   W06
 .byte   Cn1
 .byte   W12
 .byte   Dn1
 .byte   N06 ,Cn1
 .byte   W06
 .byte   Dn1
 .byte   W06
 .byte   Cn1
 .byte   W12
 .byte   Cn1
 .byte   W06
 .byte   Dn1
 .byte   W06
 .byte   Cn1
 .byte   N06 ,As1
 .byte   W12
 .byte   Cn1
 .byte   N06 ,Gs1
 .byte   N06 ,Dn1
 .byte   W06
 .byte   Dn1
 .byte   W06
@  #10 @076   ----------------------------------------
 .byte   Cn1
 .byte   N06 ,Dn1
 .byte   W12
 .byte   Cn1
 .byte   W06
 .byte   Dn1
 .byte   W06
 .byte   Cn1
 .byte   W12
 .byte   Dn1
 .byte   N06 ,Cn1
 .byte   W06
 .byte   Dn1
 .byte   W06
 .byte   Cn1
 .byte   W12
 .byte   Cn1
 .byte   W06
 .byte   Dn1
 .byte   W06
 .byte   As1
 .byte   N06 ,Cn1
 .byte   W12
 .byte   Gs1
 .byte   N06 ,Dn1
 .byte   N06 ,Cn1
 .byte   W06
 .byte   Dn1
 .byte   W06
@  #10 @077   ----------------------------------------
 .byte   Gs1
 .byte   N06 ,An2
 .byte   N06 ,Cn1
 .byte   W06
 .byte   Gs1
 .byte   W06
 .byte   Gs1
 .byte   N06 ,Dn1
 .byte   W06
 .byte   Gs1
 .byte   W06
 .byte   Gs1
 .byte   N06 ,Cn1
 .byte   W06
 .byte   Gs1
 .byte   N06 ,Cn1
 .byte   W06
 .byte   Gs1
 .byte   N06 ,Dn1
 .byte   W06
 .byte   Gs1
 .byte   W06
 .byte   Gs1
 .byte   N06 ,Cn1
 .byte   W06
 .byte   Gs1
 .byte   W06
 .byte   Gs1
 .byte   N06 ,Dn1
 .byte   W06
 .byte   Gs1
 .byte   N06 ,Cn1
 .byte   W06
 .byte   Gs1
 .byte   N06 ,Cn1
 .byte   W06
 .byte   Gs1
 .byte   N06 ,Cn1
 .byte   W06
 .byte   Gs1
 .byte   N06 ,Dn1
 .byte   W06
 .byte   Gs1
 .byte   W06
@  #10 @078   ----------------------------------------
 .byte   Gs1
 .byte   N06 ,Cn1
 .byte   W06
 .byte   Gs1
 .byte   W06
 .byte   Gs1
 .byte   N06 ,Dn1
 .byte   W06
 .byte   Gs1
 .byte   W06
 .byte   Gs1
 .byte   N06 ,Cn1
 .byte   W06
 .byte   Gs1
 .byte   N06 ,Cn1
 .byte   W06
 .byte   Gs1
 .byte   N06 ,Dn1
 .byte   W06
 .byte   Gs1
 .byte   W06
 .byte   Gs1
 .byte   N06 ,Cn1
 .byte   W06
 .byte   Gs1
 .byte   W06
 .byte   Gs1
 .byte   N06 ,Dn1
 .byte   W06
 .byte   Gs1
 .byte   N06 ,Cn1
 .byte   W06
 .byte   Gs1
 .byte   N06 ,Cn1
 .byte   W06
 .byte   Gs1
 .byte   N06 ,Cn1
 .byte   W06
 .byte   Gs1
 .byte   N06 ,Dn1
 .byte   W06
 .byte   Gs1
 .byte   N06 ,Dn1
 .byte   W06
@  #10 @079   ----------------------------------------
 .byte   Gs1
 .byte   N06 ,Cn1
 .byte   W06
 .byte   Gs1
 .byte   W06
 .byte   Gs1
 .byte   N06 ,Dn1
 .byte   W06
 .byte   Gs1
 .byte   W06
 .byte   Gs1
 .byte   N06 ,Cn1
 .byte   W06
 .byte   Gs1
 .byte   N06 ,Cn1
 .byte   W06
 .byte   Gs1
 .byte   N06 ,Dn1
 .byte   W06
 .byte   Gs1
 .byte   W06
 .byte   Gs1
 .byte   N06 ,Cn1
 .byte   W06
 .byte   Gs1
 .byte   W06
 .byte   Gs1
 .byte   N06 ,Dn1
 .byte   W06
 .byte   Gs1
 .byte   N06 ,Cn1
 .byte   W06
 .byte   Gs1
 .byte   N06 ,Cn1
 .byte   W06
 .byte   Gs1
 .byte   N06 ,Cn1
 .byte   W06
 .byte   Gs1
 .byte   N06 ,Dn1
 .byte   W06
 .byte   Gs1
 .byte   W06
@  #10 @080   ----------------------------------------
 .byte   Gs1
 .byte   N06 ,Cn1
 .byte   W06
 .byte   Gs1
 .byte   W06
 .byte   Gs1
 .byte   N06 ,Dn1
 .byte   W06
 .byte   Gs1
 .byte   W06
 .byte   Gs1
 .byte   N06 ,Cn1
 .byte   W06
 .byte   Gs1
 .byte   N06 ,Cn1
 .byte   W06
 .byte   Gs1
 .byte   N06 ,Dn1
 .byte   W06
 .byte   Gs1
 .byte   W06
 .byte   Gs1
 .byte   N06 ,Cn1
 .byte   W06
 .byte   Gs1
 .byte   W06
 .byte   Gs1
 .byte   N06 ,Dn1
 .byte   W06
 .byte   Gs1
 .byte   N06 ,Cn1
 .byte   W06
 .byte   As1
 .byte   N06 ,Cn1
 .byte   W06
 .byte   Cn1
 .byte   W06
 .byte   Gs1
 .byte   N06 ,Dn1
 .byte   W06
 .byte   Dn1
 .byte   W06
@  #10 @081   ----------------------------------------
 .byte   As1
 .byte   N06 ,Cn1
 .byte   W18
 .byte   Cn1
 .byte   W18
 .byte   Dn1
 .byte   W12
 .byte   Cn1
 .byte   W18
 .byte   Cn1
 .byte   W18
 .byte   Dn1
 .byte   W12
@  #10 @082   ----------------------------------------
 .byte   Gs1
 .byte   N06 ,Cn1
 .byte   W06
 .byte   Gs1
 .byte   W06
 .byte   Gs1
 .byte   N06 ,Dn1
 .byte   W06
 .byte   Gs1
 .byte   W06
 .byte   Gs1
 .byte   N06 ,Cn1
 .byte   W06
 .byte   Gs1
 .byte   N06 ,Cn1
 .byte   W06
 .byte   Gs1
 .byte   N06 ,Dn1
 .byte   W06
 .byte   Gs1
 .byte   W06
 .byte   Gs1
 .byte   N06 ,Cn1
 .byte   W06
 .byte   Gs1
 .byte   N06 ,Cn1
 .byte   W06
 .byte   Gs1
 .byte   N06 ,Dn1
 .byte   W06
 .byte   Gs1
 .byte   N06 ,Cn1
 .byte   W06
 .byte   Gs1
 .byte   N06 ,Cn1
 .byte   W06
 .byte   Gs1
 .byte   N06 ,Cn1
 .byte   W06
 .byte   Gs1
 .byte   N06 ,Dn1
 .byte   W06
 .byte   Gs1
 .byte   N06 ,Dn1
 .byte   W06
@  #10 @083   ----------------------------------------
 .byte   As1
 .byte   N06 ,Cn1
 .byte   W18
 .byte   Cn1
 .byte   W18
 .byte   Dn1
 .byte   W12
 .byte   Cn1
 .byte   W18
 .byte   Cn1
 .byte   W18
 .byte   Dn1
 .byte   W12
@  #10 @084   ----------------------------------------
 .byte   Gs1
 .byte   N06 ,Cn1
 .byte   W06
 .byte   Gs1
 .byte   W06
 .byte   Gs1
 .byte   N06 ,Dn1
 .byte   W06
 .byte   Gs1
 .byte   W06
 .byte   Gs1
 .byte   N06 ,Cn1
 .byte   W06
 .byte   Gs1
 .byte   N06 ,Cn1
 .byte   W06
 .byte   Gs1
 .byte   N06 ,Dn1
 .byte   W06
 .byte   Gs1
 .byte   W06
 .byte   Gs1
 .byte   N06 ,Cn1
 .byte   W06
 .byte   Gs1
 .byte   N06 ,Cn1
 .byte   W06
 .byte   Gs1
 .byte   N06 ,Dn1
 .byte   W06
 .byte   Gs1
 .byte   N06 ,Cn1
 .byte   W06
 .byte   Bn1
 .byte   N06 ,Cn2
 .byte   N06 ,Cn1
 .byte   W06
 .byte   An1
 .byte   N06 ,Bn1
 .byte   N06 ,Cn1
 .byte   W06
 .byte   Gn1
 .byte   N06 ,An1
 .byte   N06 ,Dn1
 .byte   W06
 .byte   Gn1
 .byte   N06 ,Fn1
 .byte   N06 ,Dn1
 .byte   W05
 .byte   VOL , 74*ToadstoolTourSkinsMatch_mvl/mxv
 .byte   BEND , c_v+63
 .byte   N06 ,An2 ,v102
 .byte   N06 ,Cn1
 .byte   N06 ,Cs2
 .byte   W03
@  #10 @085   ----------------------------------------
 .byte   VOL , 74*ToadstoolTourSkinsMatch_mvl/mxv
 .byte   W04
 .byte   VOL , 74*ToadstoolTourSkinsMatch_mvl/mxv
 .byte   W04
 .byte   N06 ,Cn1 ,v102
 .byte   VOL , 74*ToadstoolTourSkinsMatch_mvl/mxv
 .byte   W04
 .byte   VOL , 74*ToadstoolTourSkinsMatch_mvl/mxv
 .byte   W04
 .byte   VOL , 74*ToadstoolTourSkinsMatch_mvl/mxv
 .byte   W03
 .byte   N06 ,Cn1 ,v102
 .byte   W01
 .byte   VOL , 74*ToadstoolTourSkinsMatch_mvl/mxv
 .byte   W04
 .byte   VOL , 74*ToadstoolTourSkinsMatch_mvl/mxv
 .byte   W04
 .byte   VOL , 74*ToadstoolTourSkinsMatch_mvl/mxv
 .byte   W02
 .byte   N06 ,Cn1 ,v102
 .byte   W01
 .byte   VOL , 74*ToadstoolTourSkinsMatch_mvl/mxv
 .byte   W04
 .byte   VOL , 74*ToadstoolTourSkinsMatch_mvl/mxv
 .byte   W04
 .byte   VOL , 74*ToadstoolTourSkinsMatch_mvl/mxv
 .byte   W01
 .byte   N06 ,Cn1 ,v102
 .byte   W02
 .byte   VOL , 74*ToadstoolTourSkinsMatch_mvl/mxv
 .byte   W04
 .byte   VOL , 74*ToadstoolTourSkinsMatch_mvl/mxv
 .byte   W04
 .byte   VOL , 74*ToadstoolTourSkinsMatch_mvl/mxv
 .byte   N06 ,Cn1 ,v102
 .byte   W03
 .byte   VOL , 74*ToadstoolTourSkinsMatch_mvl/mxv
 .byte   W04
 .byte   VOL , 74*ToadstoolTourSkinsMatch_mvl/mxv
 .byte   W03
 .byte   N06 ,Dn1 ,v102
 .byte   VOL , 74*ToadstoolTourSkinsMatch_mvl/mxv
 .byte   W04
 .byte   VOL , 74*ToadstoolTourSkinsMatch_mvl/mxv
 .byte   W01
 .byte   N06 ,Dn1 ,v102
 .byte   W03
 .byte   VOL , 74*ToadstoolTourSkinsMatch_mvl/mxv
 .byte   W03
 .byte   N06 ,Dn1 ,v102
 .byte   W01
 .byte   VOL , 74*ToadstoolTourSkinsMatch_mvl/mxv
 .byte   W04
 .byte   VOL , 74*ToadstoolTourSkinsMatch_mvl/mxv
 .byte   N06 ,Dn1 ,v102
 .byte   W03
 .byte   VOL , 74*ToadstoolTourSkinsMatch_mvl/mxv
 .byte   W02
 .byte   N06 ,Dn1 ,v102
 .byte   W02
 .byte   VOL , 74*ToadstoolTourSkinsMatch_mvl/mxv
 .byte   W04
 .byte   VOL , 74*ToadstoolTourSkinsMatch_mvl/mxv
 .byte   W04
 .byte   VOL , 74*ToadstoolTourSkinsMatch_mvl/mxv
 .byte   W01
 .byte   N06 ,Cn1 ,v102
 .byte   W03
 .byte   VOL , 74*ToadstoolTourSkinsMatch_mvl/mxv
 .byte   W04
@  #10 @086   ----------------------------------------
 .byte   VOL , 74*ToadstoolTourSkinsMatch_mvl/mxv
 .byte   W04
 .byte   VOL , 74*ToadstoolTourSkinsMatch_mvl/mxv
 .byte   N06 ,Cn1 ,v102
 .byte   W04
 .byte   VOL , 74*ToadstoolTourSkinsMatch_mvl/mxv
 .byte   W04
 .byte   VOL , 74*ToadstoolTourSkinsMatch_mvl/mxv
 .byte   W03
 .byte   N06 ,Cn1 ,v102
 .byte   VOL , 74*ToadstoolTourSkinsMatch_mvl/mxv
 .byte   W04
 .byte   VOL , 74*ToadstoolTourSkinsMatch_mvl/mxv
 .byte   W04
 .byte   VOL , 74*ToadstoolTourSkinsMatch_mvl/mxv
 .byte   W02
 .byte   N06 ,Cn1 ,v102
 .byte   W01
 .byte   VOL , 74*ToadstoolTourSkinsMatch_mvl/mxv
 .byte   W04
 .byte   VOL , 74*ToadstoolTourSkinsMatch_mvl/mxv
 .byte   W04
 .byte   VOL , 74*ToadstoolTourSkinsMatch_mvl/mxv
 .byte   W01
 .byte   N06 ,Cn1 ,v102
 .byte   W02
 .byte   VOL , 74*ToadstoolTourSkinsMatch_mvl/mxv
 .byte   W04
 .byte   VOL , 74*ToadstoolTourSkinsMatch_mvl/mxv
 .byte   W04
 .byte   VOL , 74*ToadstoolTourSkinsMatch_mvl/mxv
 .byte   N06 ,Cn2 ,v102
 .byte   N06 ,Dn2
 .byte   W03
 .byte   VOL , 74*ToadstoolTourSkinsMatch_mvl/mxv
 .byte   W02
 .byte   N06 ,An1 ,v102
 .byte   N06 ,Bn1
 .byte   W01
 .byte   VOL , 74*ToadstoolTourSkinsMatch_mvl/mxv
 .byte   W04
 .byte   N06 ,Gn1 ,v102
 .byte   N06 ,An1
 .byte   VOL , 74*ToadstoolTourSkinsMatch_mvl/mxv
 .byte   W04
 .byte   VOL , 74*ToadstoolTourSkinsMatch_mvl/mxv
 .byte   W01
 .byte   N06 ,Gn1 ,v102
 .byte   N06 ,Fn1
 .byte   W02
 .byte   VOL , 74*ToadstoolTourSkinsMatch_mvl/mxv
 .byte   W03
 .byte   N06 ,Cs2 ,v102
 .byte   N06 ,Cn1
 .byte   N06 ,An2
 .byte   VOL , 74*ToadstoolTourSkinsMatch_mvl/mxv
 .byte   W04
 .byte   VOL , 74*ToadstoolTourSkinsMatch_mvl/mxv
 .byte   W04
 .byte   VOL , 74*ToadstoolTourSkinsMatch_mvl/mxv
 .byte   W02
 .byte   N06 ,Cn1 ,v102
 .byte   W01
 .byte   VOL , 74*ToadstoolTourSkinsMatch_mvl/mxv
 .byte   W04
 .byte   VOL , 74*ToadstoolTourSkinsMatch_mvl/mxv
 .byte   W04
 .byte   VOL , 74*ToadstoolTourSkinsMatch_mvl/mxv
 .byte   W01
 .byte   N06 ,Cn1 ,v102
 .byte   W02
 .byte   VOL , 74*ToadstoolTourSkinsMatch_mvl/mxv
 .byte   W04
 .byte   VOL , 74*ToadstoolTourSkinsMatch_mvl/mxv
 .byte   W04
 .byte   VOL , 74*ToadstoolTourSkinsMatch_mvl/mxv
 .byte   N06 ,Cn1 ,v102
 .byte   W03
@  #10 @087   ----------------------------------------
 .byte   VOL , 74*ToadstoolTourSkinsMatch_mvl/mxv
 .byte   W04
 .byte   VOL , 74*ToadstoolTourSkinsMatch_mvl/mxv
 .byte   W04
 .byte   N06 ,Cn1 ,v102
 .byte   VOL , 74*ToadstoolTourSkinsMatch_mvl/mxv
 .byte   W04
 .byte   VOL , 74*ToadstoolTourSkinsMatch_mvl/mxv
 .byte   W04
 .byte   VOL , 74*ToadstoolTourSkinsMatch_mvl/mxv
 .byte   W03
 .byte   N06 ,Cn1 ,v102
 .byte   W01
 .byte   VOL , 74*ToadstoolTourSkinsMatch_mvl/mxv
 .byte   W04
 .byte   VOL , 74*ToadstoolTourSkinsMatch_mvl/mxv
 .byte   W04
Label_01535092:
 .byte   VOL , 74*ToadstoolTourSkinsMatch_mvl/mxv
 .byte   W02
 .byte   N06 ,Dn1 ,v102
 .byte   W02
 .byte   PEND 
@  #10 @088   ----------------------------------------
 .byte   PATT
  .word Label_01535092
@  #10 @089   ----------------------------------------
 .byte   VOL , 74*ToadstoolTourSkinsMatch_mvl/mxv
 .byte   W04
 .byte   VOL , 74*ToadstoolTourSkinsMatch_mvl/mxv
 .byte   W01
 .byte   N06 ,Dn1 ,v102
 .byte   W03
 .byte   VOL , 74*ToadstoolTourSkinsMatch_mvl/mxv
 .byte   W04
 .byte   VOL , 74*ToadstoolTourSkinsMatch_mvl/mxv
 .byte   W04
 .byte   VOL , 74*ToadstoolTourSkinsMatch_mvl/mxv
 .byte   N06 ,Cn1 ,v102
 .byte   W03
 .byte   VOL , 74*ToadstoolTourSkinsMatch_mvl/mxv
 .byte   W04
 .byte   VOL , 74*ToadstoolTourSkinsMatch_mvl/mxv
 .byte   W03
 .byte   N06 ,Cn1 ,v102
 .byte   VOL , 74*ToadstoolTourSkinsMatch_mvl/mxv
 .byte   W04
 .byte   VOL , 74*ToadstoolTourSkinsMatch_mvl/mxv
 .byte   W04
 .byte   VOL , 74*ToadstoolTourSkinsMatch_mvl/mxv
 .byte   W02
 .byte   N06 ,Cn1 ,v102
 .byte   W01
 .byte   VOL , 74*ToadstoolTourSkinsMatch_mvl/mxv
 .byte   W04
 .byte   VOL , 74*ToadstoolTourSkinsMatch_mvl/mxv
 .byte   W04
 .byte   VOL , 74*ToadstoolTourSkinsMatch_mvl/mxv
 .byte   W01
 .byte   N06 ,Cn1 ,v102
 .byte   W02
 .byte   VOL , 74*ToadstoolTourSkinsMatch_mvl/mxv
 .byte   W04
 .byte   VOL , 74*ToadstoolTourSkinsMatch_mvl/mxv
 .byte   W04
 .byte   VOL , 74*ToadstoolTourSkinsMatch_mvl/mxv
 .byte   N06 ,Bn1 ,v102
 .byte   N06 ,Cn2
 .byte   W03
 .byte   VOL , 74*ToadstoolTourSkinsMatch_mvl/mxv
 .byte   W02
 .byte   N06 ,Bn1 ,v102
 .byte   N06 ,An1
 .byte   N06 ,Cn2
 .byte   W01
 .byte   VOL , 74*ToadstoolTourSkinsMatch_mvl/mxv
 .byte   W04
 .byte   VOL , 74*ToadstoolTourSkinsMatch_mvl/mxv
 .byte   N06 ,An1 ,v102
 .byte   N06 ,Bn1
 .byte   W04
 .byte   VOL , 74*ToadstoolTourSkinsMatch_mvl/mxv
 .byte   W01
 .byte   N06 ,Bn1 ,v102
 .byte   N06 ,An1
 .byte   N06 ,Gn1
 .byte   W02
 .byte   VOL , 74*ToadstoolTourSkinsMatch_mvl/mxv
 .byte   W03
 .byte   N06 ,Gn1 ,v102
 .byte   N06 ,An1
 .byte   VOL , 74*ToadstoolTourSkinsMatch_mvl/mxv
 .byte   W04
 .byte   VOL , 74*ToadstoolTourSkinsMatch_mvl/mxv
 .byte   N06 ,An1 ,v102
 .byte   N06 ,Gn1
 .byte   W03
 .byte   VOL , 74*ToadstoolTourSkinsMatch_mvl/mxv
 .byte   W02
 .byte   N06 ,Fn1 ,v102
 .byte   N06 ,Gn1
 .byte   N06 ,Dn1
 .byte   W01
 .byte   VOL , 74*ToadstoolTourSkinsMatch_mvl/mxv
 .byte   W04
 .byte   N06 ,Dn1 ,v102
 .byte   N06 ,Fn1
 .byte   VOL , 74*ToadstoolTourSkinsMatch_mvl/mxv
 .byte   W05
 .byte   FINE

@******************************************************@
	.align	2

ToadstoolTourSkinsMatch:
	.byte	10	@ NumTrks
	.byte	0	@ NumBlks
	.byte	ToadstoolTourSkinsMatch_pri	@ Priority
	.byte	ToadstoolTourSkinsMatch_rev	@ Reverb.
    
	.word	ToadstoolTourSkinsMatch_grp
    
	.word	ToadstoolTourSkinsMatch_001
	.word	ToadstoolTourSkinsMatch_002
	.word	ToadstoolTourSkinsMatch_003
	.word	ToadstoolTourSkinsMatch_004
	.word	ToadstoolTourSkinsMatch_005
	.word	ToadstoolTourSkinsMatch_006
	.word	ToadstoolTourSkinsMatch_007
	.word	ToadstoolTourSkinsMatch_008
	.word	ToadstoolTourSkinsMatch_009
	.word	ToadstoolTourSkinsMatch_010

	.end
