//Event file generated from Sappy .s format.
	

	#define	ToadstoolTourSkinsMatch_grp  voicegroup000
	#define	ToadstoolTourSkinsMatch_pri  10
	#define	ToadstoolTourSkinsMatch_rev  0
	#define	ToadstoolTourSkinsMatch_mvl  127
	#define	ToadstoolTourSkinsMatch_key  0
	#define	ToadstoolTourSkinsMatch_tbs  1
	#define	ToadstoolTourSkinsMatch_exg  0
	#define	ToadstoolTourSkinsMatch_cmp  1

	// .rodata
	//	ToadstoolTourSkinsMatch
	ALIGN 4


//**************** Track 1 (Midi-Chn.0) ****************//

ToadstoolTourSkinsMatch_001:
//  #01 //000   ----------------------------------------
Label_014D2F8C:
 BYTE   TEMPO   118*ToadstoolTourSkinsMatch_tbs/2
 BYTE   KEYSH   ToadstoolTourSkinsMatch_key+0
 BYTE   VOICE   36
 BYTE   VOL   35*ToadstoolTourSkinsMatch_mvl/mxv
 BYTE   PAN   c_v-1
 BYTE   N06  Fn0  v102
 BYTE   W06
 BYTE   N12  En0
 BYTE   W12
 BYTE   N06  En1
 BYTE   W06
 BYTE   N12  En0
 BYTE   W12
 BYTE   N06  En1
 BYTE   W06
 BYTE   N12  En0
 BYTE   W12
 BYTE   N06  Dn1
 BYTE   W06
 BYTE   Dn1
 BYTE   W06
 BYTE   Dn2
 BYTE   W06
 BYTE   Dn1
 BYTE   W06
 BYTE   Cn2
 BYTE   W06
 BYTE   Dn2
 BYTE   W06
 BYTE   An1
 BYTE   W06
//  #01 //001   ----------------------------------------
 BYTE   Dn1
 BYTE   W06
 BYTE   Cn1
 BYTE   W06
 BYTE   Cn1
 BYTE   W06
 BYTE   Cn1
 BYTE   W06
 BYTE   Cn1
 BYTE   W06
 BYTE   Cn1
 BYTE   W06
 BYTE   Gn0
 BYTE   W06
 BYTE   Cn1
 BYTE   W06
 BYTE   Gn0
 BYTE   W06
 BYTE   Bn0
 BYTE   W06
 BYTE   Bn0
 BYTE   W06
 BYTE   Bn1
 BYTE   W06
 BYTE   Bn0
 BYTE   W06
 BYTE   Bn0
 BYTE   W06
 BYTE   Bn0
 BYTE   W06
 BYTE   Bn1
 BYTE   W06
//  #01 //002   ----------------------------------------
 BYTE   Bn0
 BYTE   W06
 BYTE   Cn1
 BYTE   W06
 BYTE   Cn1
 BYTE   W06
 BYTE   Cn1
 BYTE   W06
 BYTE   Cn1
 BYTE   W06
 BYTE   Cn1
 BYTE   W06
 BYTE   Gn0
 BYTE   W06
 BYTE   Cn1
 BYTE   W06
 BYTE   Gn0
 BYTE   W06
 BYTE   Dn1
 BYTE   W06
 BYTE   Dn1
 BYTE   W06
 BYTE   Dn1
 BYTE   W06
 BYTE   Dn1
 BYTE   W06
 BYTE   Dn1
 BYTE   W06
 BYTE   An0
 BYTE   W06
 BYTE   Dn1
 BYTE   W06
//  #01 //003   ----------------------------------------
 BYTE   An0
 BYTE   W06
 BYTE   Ds1
 BYTE   W06
 BYTE   Ds1
 BYTE   W06
 BYTE   Ds1
 BYTE   W06
 BYTE   Ds1
 BYTE   W06
 BYTE   Ds1
 BYTE   W06
 BYTE   As0
 BYTE   W06
 BYTE   Ds1
 BYTE   W06
 BYTE   As0
 BYTE   W06
 BYTE   Fn0
 BYTE   W06
 BYTE   Fn0
 BYTE   W06
 BYTE   Fn1
 BYTE   W06
 BYTE   Fn0
 BYTE   W06
 BYTE   Ds1
 BYTE   W06
 BYTE   Fn0
 BYTE   W06
 BYTE   Fn1
 BYTE   W06
//  #01 //004   ----------------------------------------
 BYTE   Fn0
 BYTE   W06
 BYTE   N18  Gn0
 BYTE   W18
 BYTE   N12
 BYTE   W12
 BYTE   N06  Dn0
 BYTE   W06
 BYTE   Gn0
 BYTE   W06
 BYTE   Dn0
 BYTE   W06
 BYTE   N18  Fn0
 BYTE   W18
 BYTE   N12
 BYTE   W12
 BYTE   N06  Fn1
 BYTE   W06
 BYTE   Fn0
 BYTE   W06
//  #01 //005   ----------------------------------------
 BYTE   Fn1
 BYTE   W06
 BYTE   Gs0
 BYTE   W06
 BYTE   Gs1
 BYTE   W06
 BYTE   Gs0
 BYTE   W06
 BYTE   Gs1
 BYTE   W06
 BYTE   Gs0
 BYTE   W06
 BYTE   Gs1
 BYTE   W06
 BYTE   Gs0
 BYTE   W06
 BYTE   Gs1
 BYTE   W06
 BYTE   As0
 BYTE   W06
 BYTE   As1
 BYTE   W06
 BYTE   As0
 BYTE   W06
 BYTE   As1
 BYTE   W06
 BYTE   As0
 BYTE   W06
 BYTE   As1
 BYTE   W06
 BYTE   As0
 BYTE   W06
//  #01 //006   ----------------------------------------
 BYTE   As1
 BYTE   W06
 BYTE   N18  Cn1
 BYTE   W18
 BYTE   N12
 BYTE   W12
 BYTE   N06  Gn0
 BYTE   W06
 BYTE   Cn1
 BYTE   W06
 BYTE   Gn0
 BYTE   W06
 BYTE   N18  As0
 BYTE   W18
 BYTE   Fn0
 BYTE   W18
 BYTE   N12  Fn1
 BYTE   W12
//  #01 //007   ----------------------------------------
 BYTE   N06  Gs0
 BYTE   W06
 BYTE   Gs0
 BYTE   W06
 BYTE   Gs1
 BYTE   W06
 BYTE   Gs0
 BYTE   W06
 BYTE   Ds1
 BYTE   W06
 BYTE   Gs1
 BYTE   W06
 BYTE   Gs0
 BYTE   W06
 BYTE   Gs1
 BYTE   W06
 BYTE   As0
 BYTE   W06
 BYTE   As0
 BYTE   W06
 BYTE   Fn0
 BYTE   W06
 BYTE   As0
 BYTE   W06
 BYTE   Fn1
 BYTE   W06
 BYTE   As1
 BYTE   W06
 BYTE   Fn1
 BYTE   W06
 BYTE   As0
 BYTE   W06
//  #01 //008   ----------------------------------------
 BYTE   N12  En0
 BYTE   W12
 BYTE   N06  En1
 BYTE   W06
 BYTE   N12  En0
 BYTE   W12
 BYTE   N06  En1
 BYTE   W06
 BYTE   N12  En0
 BYTE   W12
 BYTE   N06  Dn1
 BYTE   W06
 BYTE   Dn1
 BYTE   W06
 BYTE   Dn2
 BYTE   W06
 BYTE   Dn1
 BYTE   W06
 BYTE   Cn2
 BYTE   W06
 BYTE   Dn2
 BYTE   W06
 BYTE   An1
 BYTE   W06
 BYTE   Dn1
 BYTE   W06
//  #01 //009   ----------------------------------------
 BYTE   Cn1
 BYTE   W06
 BYTE   Cn1
 BYTE   W06
 BYTE   Cn1
 BYTE   W06
 BYTE   Cn1
 BYTE   W06
 BYTE   Cn1
 BYTE   W06
 BYTE   Gn0
 BYTE   W06
 BYTE   Cn1
 BYTE   W06
 BYTE   Gn0
 BYTE   W06
 BYTE   Bn0
 BYTE   W06
 BYTE   Bn0
 BYTE   W06
 BYTE   Bn1
 BYTE   W06
 BYTE   Bn0
 BYTE   W06
 BYTE   Bn0
 BYTE   W06
 BYTE   Bn0
 BYTE   W06
 BYTE   Bn1
 BYTE   W06
 BYTE   Bn0
 BYTE   W06
//  #01 //010   ----------------------------------------
 BYTE   Cn1
 BYTE   W06
 BYTE   Cn1
 BYTE   W06
 BYTE   Cn1
 BYTE   W06
 BYTE   Cn1
 BYTE   W06
 BYTE   Cn1
 BYTE   W06
 BYTE   Gn0
 BYTE   W06
 BYTE   Cn1
 BYTE   W06
 BYTE   Gn0
 BYTE   W06
 BYTE   Dn1
 BYTE   W06
 BYTE   Dn1
 BYTE   W06
 BYTE   Dn1
 BYTE   W06
 BYTE   Dn1
 BYTE   W06
 BYTE   Dn1
 BYTE   W06
 BYTE   An0
 BYTE   W06
 BYTE   Dn1
 BYTE   W06
 BYTE   An0
 BYTE   W06
//  #01 //011   ----------------------------------------
 BYTE   Ds1
 BYTE   W06
 BYTE   Ds1
 BYTE   W06
 BYTE   Ds1
 BYTE   W06
 BYTE   Ds1
 BYTE   W06
 BYTE   Ds1
 BYTE   W06
 BYTE   As0
 BYTE   W06
 BYTE   Ds1
 BYTE   W06
 BYTE   As0
 BYTE   W06
 BYTE   Fn0
 BYTE   W06
 BYTE   Fn0
 BYTE   W06
 BYTE   Fn1
 BYTE   W06
 BYTE   Fn0
 BYTE   W06
 BYTE   Ds1
 BYTE   W06
 BYTE   Fn0
 BYTE   W06
 BYTE   Fn1
 BYTE   W06
 BYTE   Fn0
 BYTE   W06
//  #01 //012   ----------------------------------------
 BYTE   N18  Gn0
 BYTE   W18
 BYTE   N12
 BYTE   W12
 BYTE   N06  Dn0
 BYTE   W06
 BYTE   Gn0
 BYTE   W06
 BYTE   Dn0
 BYTE   W06
 BYTE   N18  Fn0
 BYTE   W18
 BYTE   N12
 BYTE   W12
 BYTE   N06  Fn1
 BYTE   W06
 BYTE   Fn0
 BYTE   W06
 BYTE   Fn1
 BYTE   W06
//  #01 //013   ----------------------------------------
 BYTE   Gs0
 BYTE   W06
 BYTE   Gs1
 BYTE   W06
 BYTE   Gs0
 BYTE   W06
 BYTE   Gs1
 BYTE   W06
 BYTE   Gs0
 BYTE   W06
 BYTE   Gs1
 BYTE   W06
 BYTE   Gs0
 BYTE   W06
 BYTE   Gs1
 BYTE   W06
 BYTE   As0
 BYTE   W06
 BYTE   As1
 BYTE   W06
 BYTE   As0
 BYTE   W06
 BYTE   As1
 BYTE   W06
 BYTE   As0
 BYTE   W06
 BYTE   As1
 BYTE   W06
 BYTE   As0
 BYTE   W06
 BYTE   As1
 BYTE   W06
//  #01 //014   ----------------------------------------
 BYTE   N18  Cn1
 BYTE   W18
 BYTE   N12
 BYTE   W12
 BYTE   N06  Gn0
 BYTE   W06
 BYTE   Cn1
 BYTE   W06
 BYTE   Gn0
 BYTE   W06
 BYTE   N18  As0
 BYTE   W18
 BYTE   Fn0
 BYTE   W18
 BYTE   N12  Fn1
 BYTE   W12
//  #01 //015   ----------------------------------------
 BYTE   N06  Gs0
 BYTE   W06
 BYTE   Gs0
 BYTE   W06
 BYTE   Gs1
 BYTE   W06
 BYTE   Gs0
 BYTE   W06
 BYTE   Ds1
 BYTE   W06
 BYTE   Gs1
 BYTE   W06
 BYTE   Gs0
 BYTE   W06
 BYTE   Gs1
 BYTE   W06
 BYTE   As0
 BYTE   W06
 BYTE   As0
 BYTE   W06
 BYTE   Fn0
 BYTE   W06
 BYTE   As0
 BYTE   W06
 BYTE   Fn1
 BYTE   W06
 BYTE   As1
 BYTE   W06
 BYTE   Fn1
 BYTE   W06
 BYTE   GoTo
  POIN2 Label_014D2F8C
//  #01 //016   ----------------------------------------
 BYTE   N06  As0  v102
 BYTE   W06
 BYTE   N12  Cn1
 BYTE   W12
 BYTE   Cn1
 BYTE   W12
 BYTE   Cn1
 BYTE   W12
 BYTE   Cn1
 BYTE   W12
 BYTE   Cn1
 BYTE   W12
 BYTE   Cn1
 BYTE   W12
 BYTE   Cn1
 BYTE   W12
 BYTE   Cn1
 BYTE   W12
//  #01 //017   ----------------------------------------
 BYTE   As0
 BYTE   W12
 BYTE   As0
 BYTE   W12
 BYTE   As0
 BYTE   W12
 BYTE   As0
 BYTE   W12
 BYTE   As0
 BYTE   W12
 BYTE   As0
 BYTE   W12
 BYTE   As0
 BYTE   W12
 BYTE   As0
 BYTE   W12
//  #01 //018   ----------------------------------------
 BYTE   An0
 BYTE   W12
 BYTE   An0
 BYTE   W12
 BYTE   An0
 BYTE   W12
 BYTE   An0
 BYTE   W12
 BYTE   An0
 BYTE   W12
 BYTE   An0
 BYTE   W12
 BYTE   An0
 BYTE   W12
 BYTE   An0
 BYTE   W12
//  #01 //019   ----------------------------------------
 BYTE   Gs0
 BYTE   W12
 BYTE   Gs0
 BYTE   W12
 BYTE   Gs0
 BYTE   W12
 BYTE   Gs0
 BYTE   W12
 BYTE   As0
 BYTE   W12
 BYTE   N06  As1
 BYTE   W06
 BYTE   As0
 BYTE   W06
 BYTE   Fn1
 BYTE   W06
 BYTE   Dn1
 BYTE   W06
 BYTE   As0
 BYTE   W06
 BYTE   Fn0
 BYTE   W06
//  #01 //020   ----------------------------------------
 BYTE   N18  Cn1
 BYTE   W18
 BYTE   N12
 BYTE   W12
 BYTE   N06  Gn0
 BYTE   W06
 BYTE   Cn1
 BYTE   W06
 BYTE   Gn0
 BYTE   W06
 BYTE   N12  Cn1
 BYTE   W12
 BYTE   Cn1
 BYTE   W12
 BYTE   N06
 BYTE   W06
 BYTE   Gn0
 BYTE   W06
 BYTE   Cn1
 BYTE   W06
 BYTE   Gn0
 BYTE   W06
//  #01 //021   ----------------------------------------
 BYTE   N12  As0
 BYTE   W12
 BYTE   As0
 BYTE   W12
 BYTE   N06
 BYTE   W06
 BYTE   Fn1
 BYTE   W06
 BYTE   As1
 BYTE   W06
 BYTE   As0
 BYTE   W06
 BYTE   N12
 BYTE   W12
 BYTE   As0
 BYTE   W12
 BYTE   N06
 BYTE   W06
 BYTE   As1
 BYTE   W06
 BYTE   As0
 BYTE   W06
 BYTE   As1
 BYTE   W06
//  #01 //022   ----------------------------------------
 BYTE   N12  An0
 BYTE   W12
 BYTE   N06
 BYTE   W06
 BYTE   N12  An1
 BYTE   W12
 BYTE   N06  An0
 BYTE   W06
 BYTE   En1
 BYTE   W06
 BYTE   An1
 BYTE   W06
 BYTE   N12  An0
 BYTE   W12
 BYTE   An0
 BYTE   W12
 BYTE   N06
 BYTE   W06
 BYTE   An1
 BYTE   W06
 BYTE   An0
 BYTE   W06
 BYTE   An1
 BYTE   W06
//  #01 //023   ----------------------------------------
 BYTE   N12  Gs0
 BYTE   W12
 BYTE   N06
 BYTE   W06
 BYTE   N12  Gs1
 BYTE   W12
 BYTE   N06  Gs0
 BYTE   W06
 BYTE   Ds1
 BYTE   W06
 BYTE   Gs1
 BYTE   W06
 BYTE   N12  As0
 BYTE   W12
 BYTE   N06
 BYTE   W06
 BYTE   N12  As1
 BYTE   W12
 BYTE   N06  As0
 BYTE   W06
 BYTE   Fn1
 BYTE   W06
 BYTE   As1
 BYTE   W06
//  #01 //024   ----------------------------------------
Label_014D322F:
 BYTE   N12  Cs1  v102
 BYTE   W18
 BYTE   Gs1
 BYTE   W18
 BYTE   N09  Cs2
 BYTE   W12
 BYTE   N18  Cs1
 BYTE   W18
 BYTE   Gs1
 BYTE   W18
 BYTE   N09  Cs1
 BYTE   W12
 BYTE   PEND 
//  #01 //025   ----------------------------------------
Label_014D3241:
 BYTE   N12  Cn1  v102
 BYTE   W18
 BYTE   Gn1
 BYTE   W18
 BYTE   N09  Cn2
 BYTE   W12
 BYTE   N18  Gn1
 BYTE   W18
 BYTE   Cn2
 BYTE   W18
 BYTE   N09  Cn1
 BYTE   W12
 BYTE   PEND 
//  #01 //026   ----------------------------------------
 BYTE   PATT
  POIN2 Label_014D322F
//  #01 //027   ----------------------------------------
 BYTE   PATT
  POIN2 Label_014D3241
//  #01 //028   ----------------------------------------
Label_014D325D:
 BYTE   N18  Cs1  v102
 BYTE   W18
 BYTE   N12
 BYTE   W12
 BYTE   N06  Gs0
 BYTE   W06
 BYTE   Cs1
 BYTE   W06
 BYTE   Gs0
 BYTE   W06
 BYTE   N18  Cs1
 BYTE   W18
 BYTE   N12
 BYTE   W12
 BYTE   N06  Gs0
 BYTE   W06
 BYTE   Cs1
 BYTE   W06
 BYTE   Gs0
 BYTE   W06
 BYTE   PEND 
//  #01 //029   ----------------------------------------
Label_014D3277:
 BYTE   N18  Cn1  v102
 BYTE   W18
 BYTE   N12
 BYTE   W12
 BYTE   N06  Gn0
 BYTE   W06
 BYTE   Cn1
 BYTE   W06
 BYTE   Gn0
 BYTE   W06
 BYTE   N18  Cn1
 BYTE   W18
 BYTE   N12
 BYTE   W12
 BYTE   N06  Cn2
 BYTE   W06
 BYTE   Gn1
 BYTE   W06
 BYTE   Cn1
 BYTE   W06
 BYTE   PEND 
//  #01 //030   ----------------------------------------
 BYTE   PATT
  POIN2 Label_014D325D
//  #01 //031   ----------------------------------------
 BYTE   PATT
  POIN2 Label_014D3277
//  #01 //032   ----------------------------------------
Label_014D329B:
 BYTE   N06  Gs0  v102
 BYTE   W06
 BYTE   Gs0
 BYTE   W06
 BYTE   Gs0
 BYTE   W06
 BYTE   N12
 BYTE   W12
 BYTE   N06
 BYTE   W06
 BYTE   Gs1
 BYTE   W06
 BYTE   Gs0
 BYTE   W06
 BYTE   As0
 BYTE   W06
 BYTE   As0
 BYTE   W06
 BYTE   As0
 BYTE   W06
 BYTE   N12
 BYTE   W12
 BYTE   N06
 BYTE   W06
 BYTE   As1
 BYTE   W06
 BYTE   As0
 BYTE   W06
 BYTE   PEND 
//  #01 //033   ----------------------------------------
Label_014D32BA:
 BYTE   N06  Cn1  v102
 BYTE   W06
 BYTE   Cn1
 BYTE   W06
 BYTE   Cn1
 BYTE   W06
 BYTE   N12
 BYTE   W12
 BYTE   N06
 BYTE   W06
 BYTE   Gn0
 BYTE   W06
 BYTE   Cn1
 BYTE   W06
 BYTE   Cn1
 BYTE   W06
 BYTE   Cn1
 BYTE   W06
 BYTE   Cn1
 BYTE   W06
 BYTE   N12
 BYTE   W12
 BYTE   N06  Gn1
 BYTE   W06
 BYTE   Cn2
 BYTE   W06
 BYTE   Cn1
 BYTE   W06
 BYTE   PEND 
//  #01 //034   ----------------------------------------
 BYTE   PATT
  POIN2 Label_014D329B
//  #01 //035   ----------------------------------------
 BYTE   PATT
  POIN2 Label_014D32BA
//  #01 //036   ----------------------------------------
 BYTE   PATT
  POIN2 Label_014D329B
//  #01 //037   ----------------------------------------
 BYTE   PATT
  POIN2 Label_014D32BA
//  #01 //038   ----------------------------------------
 BYTE   PATT
  POIN2 Label_014D329B
//  #01 //039   ----------------------------------------
 BYTE   N06  Cn1  v102
 BYTE   W06
 BYTE   Cn1
 BYTE   W06
 BYTE   Cn1
 BYTE   W06
 BYTE   N12
 BYTE   W12
 BYTE   N06
 BYTE   W06
 BYTE   Gn0
 BYTE   W06
 BYTE   Cn1
 BYTE   W06
 BYTE   Cn1
 BYTE   W06
 BYTE   Cn1
 BYTE   W06
 BYTE   Cn1
 BYTE   W06
 BYTE   N12
 BYTE   W12
 BYTE   N06  Gn1
 BYTE   W06
 BYTE   Cn2
 BYTE   W06
 BYTE   Cn1
 BYTE   W06
//  #01 //040   ----------------------------------------
 BYTE   VOL   35*ToadstoolTourSkinsMatch_mvl/mxv
 BYTE   PAN   c_v-1
 BYTE   N12  Cn1  v102
 BYTE   W12
 BYTE   Cn1
 BYTE   W12
 BYTE   Cn1
 BYTE   W12
 BYTE   Cn1
 BYTE   W12
 BYTE   Cn1
 BYTE   W12
 BYTE   Cn1
 BYTE   W12
 BYTE   Cn1
 BYTE   W12
 BYTE   Cn1
 BYTE   W12
//  #01 //041   ----------------------------------------
 BYTE   As0
 BYTE   W12
 BYTE   As0
 BYTE   W12
 BYTE   As0
 BYTE   W12
 BYTE   As0
 BYTE   W12
 BYTE   As0
 BYTE   W12
 BYTE   As0
 BYTE   W12
 BYTE   As0
 BYTE   W12
 BYTE   As0
 BYTE   W12
//  #01 //042   ----------------------------------------
 BYTE   An0
 BYTE   W12
 BYTE   An0
 BYTE   W12
 BYTE   An0
 BYTE   W12
 BYTE   An0
 BYTE   W12
 BYTE   An0
 BYTE   W12
 BYTE   An0
 BYTE   W12
 BYTE   An0
 BYTE   W12
 BYTE   An0
 BYTE   W12
//  #01 //043   ----------------------------------------
 BYTE   Gs0
 BYTE   W12
 BYTE   Gs0
 BYTE   W12
 BYTE   Gs0
 BYTE   W12
 BYTE   Gs0
 BYTE   W12
 BYTE   As0
 BYTE   W12
 BYTE   N06  As1
 BYTE   W06
 BYTE   As0
 BYTE   W06
 BYTE   Fn1
 BYTE   W06
 BYTE   Dn1
 BYTE   W06
 BYTE   As0
 BYTE   W06
 BYTE   Fn0
 BYTE   W06
//  #01 //044   ----------------------------------------
 BYTE   N12  En0
 BYTE   W12
 BYTE   N06  En1
 BYTE   W06
 BYTE   N12  En0
 BYTE   W12
 BYTE   N06  En1
 BYTE   W06
 BYTE   N12  En0
 BYTE   W12
 BYTE   N06  Dn1
 BYTE   W06
 BYTE   Dn1
 BYTE   W06
 BYTE   Dn2
 BYTE   W06
 BYTE   Dn1
 BYTE   W06
 BYTE   Cn2
 BYTE   W06
 BYTE   Dn2
 BYTE   W06
 BYTE   An1
 BYTE   W06
 BYTE   Dn1
 BYTE   W06
//  #01 //045   ----------------------------------------
 BYTE   Cn1
 BYTE   W06
 BYTE   Cn1
 BYTE   W06
 BYTE   Cn1
 BYTE   W06
 BYTE   Cn1
 BYTE   W06
 BYTE   Cn1
 BYTE   W06
 BYTE   Gn0
 BYTE   W06
 BYTE   Cn1
 BYTE   W06
 BYTE   Gn0
 BYTE   W06
 BYTE   Bn0
 BYTE   W06
 BYTE   Bn0
 BYTE   W06
 BYTE   Bn1
 BYTE   W06
 BYTE   Bn0
 BYTE   W06
 BYTE   Bn0
 BYTE   W06
 BYTE   Bn0
 BYTE   W06
 BYTE   Bn1
 BYTE   W06
 BYTE   Bn0
 BYTE   W06
//  #01 //046   ----------------------------------------
 BYTE   Cn1
 BYTE   W06
 BYTE   Cn1
 BYTE   W06
 BYTE   Cn1
 BYTE   W06
 BYTE   Cn1
 BYTE   W06
 BYTE   Cn1
 BYTE   W06
 BYTE   Gn0
 BYTE   W06
 BYTE   Cn1
 BYTE   W06
 BYTE   Gn0
 BYTE   W06
 BYTE   Dn1
 BYTE   W06
 BYTE   Dn1
 BYTE   W06
 BYTE   Dn1
 BYTE   W06
 BYTE   Dn1
 BYTE   W06
 BYTE   Dn1
 BYTE   W06
 BYTE   An0
 BYTE   W06
 BYTE   Dn1
 BYTE   W06
 BYTE   An0
 BYTE   W06
//  #01 //047   ----------------------------------------
 BYTE   Ds1
 BYTE   W06
 BYTE   Ds1
 BYTE   W06
 BYTE   Ds1
 BYTE   W06
 BYTE   Ds1
 BYTE   W06
 BYTE   Ds1
 BYTE   W06
 BYTE   As0
 BYTE   W06
 BYTE   Ds1
 BYTE   W06
 BYTE   As0
 BYTE   W06
 BYTE   Fn0
 BYTE   W06
 BYTE   Fn0
 BYTE   W06
 BYTE   Fn1
 BYTE   W06
 BYTE   Fn0
 BYTE   W06
 BYTE   Ds1
 BYTE   W06
 BYTE   Fn0
 BYTE   W06
 BYTE   Fn1
 BYTE   W06
 BYTE   Fn0
 BYTE   W06
//  #01 //048   ----------------------------------------
 BYTE   N18  Gn0
 BYTE   W18
 BYTE   N12
 BYTE   W12
 BYTE   N06  Dn0
 BYTE   W06
 BYTE   Gn0
 BYTE   W06
 BYTE   Dn0
 BYTE   W06
 BYTE   N18  Fn0
 BYTE   W18
 BYTE   N12
 BYTE   W12
 BYTE   N06  Fn1
 BYTE   W06
 BYTE   Fn0
 BYTE   W06
 BYTE   Fn1
 BYTE   W06
//  #01 //049   ----------------------------------------
 BYTE   Gs0
 BYTE   W06
 BYTE   Gs1
 BYTE   W06
 BYTE   Gs0
 BYTE   W06
 BYTE   Gs1
 BYTE   W06
 BYTE   Gs0
 BYTE   W06
 BYTE   Gs1
 BYTE   W06
 BYTE   Gs0
 BYTE   W06
 BYTE   Gs1
 BYTE   W06
 BYTE   As0
 BYTE   W06
 BYTE   As1
 BYTE   W06
 BYTE   As0
 BYTE   W06
 BYTE   As1
 BYTE   W06
 BYTE   As0
 BYTE   W06
 BYTE   As1
 BYTE   W06
 BYTE   As0
 BYTE   W06
 BYTE   As1
 BYTE   W06
//  #01 //050   ----------------------------------------
 BYTE   N18  Cn1
 BYTE   W18
 BYTE   N12
 BYTE   W12
 BYTE   N06  Gn0
 BYTE   W06
 BYTE   Cn1
 BYTE   W06
 BYTE   Gn0
 BYTE   W06
 BYTE   N18  As0
 BYTE   W18
 BYTE   Fn0
 BYTE   W18
 BYTE   N12  Fn1
 BYTE   W12
//  #01 //051   ----------------------------------------
 BYTE   N06  Gs0
 BYTE   W06
 BYTE   Gs0
 BYTE   W06
 BYTE   Gs1
 BYTE   W06
 BYTE   Gs0
 BYTE   W06
 BYTE   Ds1
 BYTE   W06
 BYTE   Gs1
 BYTE   W06
 BYTE   Gs0
 BYTE   W06
 BYTE   Gs1
 BYTE   W06
 BYTE   As0
 BYTE   W06
 BYTE   As0
 BYTE   W06
 BYTE   Fn0
 BYTE   W06
 BYTE   As0
 BYTE   W06
 BYTE   Fn1
 BYTE   W06
 BYTE   As1
 BYTE   W06
 BYTE   Fn1
 BYTE   W06
 BYTE   As0
 BYTE   W06
//  #01 //052   ----------------------------------------
 BYTE   N12  En0
 BYTE   W12
 BYTE   N06  En1
 BYTE   W06
 BYTE   N12  En0
 BYTE   W12
 BYTE   N06  En1
 BYTE   W06
 BYTE   N12  En0
 BYTE   W12
 BYTE   N06  Dn1
 BYTE   W06
 BYTE   Dn1
 BYTE   W06
 BYTE   Dn2
 BYTE   W06
 BYTE   Dn1
 BYTE   W06
 BYTE   Cn2
 BYTE   W06
 BYTE   Dn2
 BYTE   W06
 BYTE   An1
 BYTE   W06
 BYTE   Dn1
 BYTE   W06
//  #01 //053   ----------------------------------------
 BYTE   Cn1
 BYTE   W06
 BYTE   Cn1
 BYTE   W06
 BYTE   Cn1
 BYTE   W06
 BYTE   Cn1
 BYTE   W06
 BYTE   Cn1
 BYTE   W06
 BYTE   Gn0
 BYTE   W06
 BYTE   Cn1
 BYTE   W06
 BYTE   Gn0
 BYTE   W06
 BYTE   Bn0
 BYTE   W06
 BYTE   Bn0
 BYTE   W06
 BYTE   Bn1
 BYTE   W06
 BYTE   Bn0
 BYTE   W06
 BYTE   Bn0
 BYTE   W06
 BYTE   Bn0
 BYTE   W06
 BYTE   Bn1
 BYTE   W06
 BYTE   Bn0
 BYTE   W06
//  #01 //054   ----------------------------------------
 BYTE   Cn1
 BYTE   W06
 BYTE   Cn1
 BYTE   W06
 BYTE   Cn1
 BYTE   W06
 BYTE   Cn1
 BYTE   W06
 BYTE   Cn1
 BYTE   W06
 BYTE   Gn0
 BYTE   W06
 BYTE   Cn1
 BYTE   W06
 BYTE   Gn0
 BYTE   W06
 BYTE   Dn1
 BYTE   W06
 BYTE   Dn1
 BYTE   W06
 BYTE   Dn1
 BYTE   W06
 BYTE   Dn1
 BYTE   W06
 BYTE   Dn1
 BYTE   W06
 BYTE   An0
 BYTE   W06
 BYTE   Dn1
 BYTE   W06
 BYTE   An0
 BYTE   W06
//  #01 //055   ----------------------------------------
 BYTE   Ds1
 BYTE   W06
 BYTE   Ds1
 BYTE   W06
 BYTE   Ds1
 BYTE   W06
 BYTE   Ds1
 BYTE   W06
 BYTE   Ds1
 BYTE   W06
 BYTE   As0
 BYTE   W06
 BYTE   Ds1
 BYTE   W06
 BYTE   As0
 BYTE   W06
 BYTE   Fn0
 BYTE   W06
 BYTE   Fn0
 BYTE   W06
 BYTE   Fn1
 BYTE   W06
 BYTE   Fn0
 BYTE   W06
 BYTE   Ds1
 BYTE   W06
 BYTE   Fn0
 BYTE   W06
 BYTE   Fn1
 BYTE   W06
 BYTE   Fn0
 BYTE   W06
//  #01 //056   ----------------------------------------
 BYTE   N18  Gn0
 BYTE   W18
 BYTE   N12
 BYTE   W12
 BYTE   N06  Dn0
 BYTE   W06
 BYTE   Gn0
 BYTE   W06
 BYTE   Dn0
 BYTE   W06
 BYTE   N18  Fn0
 BYTE   W18
 BYTE   N12
 BYTE   W12
 BYTE   N06  Fn1
 BYTE   W06
 BYTE   Fn0
 BYTE   W06
 BYTE   Fn1
 BYTE   W06
//  #01 //057   ----------------------------------------
 BYTE   Gs0
 BYTE   W06
 BYTE   Gs1
 BYTE   W06
 BYTE   Gs0
 BYTE   W06
 BYTE   Gs1
 BYTE   W06
 BYTE   Gs0
 BYTE   W06
 BYTE   Gs1
 BYTE   W06
 BYTE   Gs0
 BYTE   W06
 BYTE   Gs1
 BYTE   W06
 BYTE   As0
 BYTE   W06
 BYTE   As1
 BYTE   W06
 BYTE   As0
 BYTE   W06
 BYTE   As1
 BYTE   W06
 BYTE   As0
 BYTE   W06
 BYTE   As1
 BYTE   W06
 BYTE   As0
 BYTE   W06
 BYTE   As1
 BYTE   W06
//  #01 //058   ----------------------------------------
 BYTE   N18  Cn1
 BYTE   W18
 BYTE   N12
 BYTE   W12
 BYTE   N06  Gn0
 BYTE   W06
 BYTE   Cn1
 BYTE   W06
 BYTE   Gn0
 BYTE   W06
 BYTE   N18  As0
 BYTE   W18
 BYTE   Fn0
 BYTE   W18
 BYTE   N12  Fn1
 BYTE   W12
//  #01 //059   ----------------------------------------
 BYTE   N06  Gs0
 BYTE   W06
 BYTE   Gs0
 BYTE   W06
 BYTE   Gs1
 BYTE   W06
 BYTE   Gs0
 BYTE   W06
 BYTE   Ds1
 BYTE   W06
 BYTE   Gs1
 BYTE   W06
 BYTE   Gs0
 BYTE   W06
 BYTE   Gs1
 BYTE   W06
 BYTE   As0
 BYTE   W06
 BYTE   As0
 BYTE   W06
 BYTE   Fn0
 BYTE   W06
 BYTE   As0
 BYTE   W06
 BYTE   Fn1
 BYTE   W06
 BYTE   As1
 BYTE   W06
 BYTE   Fn1
 BYTE   W06
 BYTE   As0
 BYTE   W06
//  #01 //060   ----------------------------------------
 BYTE   N12  Cn1
 BYTE   W12
 BYTE   Cn1
 BYTE   W12
 BYTE   Cn1
 BYTE   W12
 BYTE   Cn1
 BYTE   W12
 BYTE   Cn1
 BYTE   W12
 BYTE   Cn1
 BYTE   W12
 BYTE   Cn1
 BYTE   W12
 BYTE   Cn1
 BYTE   W12
//  #01 //061   ----------------------------------------
 BYTE   As0
 BYTE   W12
 BYTE   As0
 BYTE   W12
 BYTE   As0
 BYTE   W12
 BYTE   As0
 BYTE   W12
 BYTE   As0
 BYTE   W12
 BYTE   As0
 BYTE   W12
 BYTE   As0
 BYTE   W12
 BYTE   As0
 BYTE   W12
//  #01 //062   ----------------------------------------
 BYTE   An0
 BYTE   W12
 BYTE   An0
 BYTE   W12
 BYTE   An0
 BYTE   W12
 BYTE   An0
 BYTE   W12
 BYTE   An0
 BYTE   W12
 BYTE   An0
 BYTE   W12
 BYTE   An0
 BYTE   W12
 BYTE   An0
 BYTE   W12
//  #01 //063   ----------------------------------------
 BYTE   Gs0
 BYTE   W12
 BYTE   Gs0
 BYTE   W12
 BYTE   Gs0
 BYTE   W12
 BYTE   Gs0
 BYTE   W12
 BYTE   As0
 BYTE   W12
 BYTE   N06  As1
 BYTE   W06
 BYTE   As0
 BYTE   W06
 BYTE   Fn1
 BYTE   W06
 BYTE   Dn1
 BYTE   W06
 BYTE   As0
 BYTE   W06
 BYTE   Fn0
 BYTE   W06
//  #01 //064   ----------------------------------------
 BYTE   N18  Cn1
 BYTE   W18
 BYTE   N12
 BYTE   W12
 BYTE   N06  Gn0
 BYTE   W06
 BYTE   Cn1
 BYTE   W06
 BYTE   Gn0
 BYTE   W06
 BYTE   N12  Cn1
 BYTE   W12
 BYTE   Cn1
 BYTE   W12
 BYTE   N06
 BYTE   W06
 BYTE   Gn0
 BYTE   W06
 BYTE   Cn1
 BYTE   W06
 BYTE   Gn0
 BYTE   W06
//  #01 //065   ----------------------------------------
 BYTE   N12  As0
 BYTE   W12
 BYTE   As0
 BYTE   W12
 BYTE   N06
 BYTE   W06
 BYTE   Fn1
 BYTE   W06
 BYTE   As1
 BYTE   W06
 BYTE   As0
 BYTE   W06
 BYTE   N12
 BYTE   W12
 BYTE   As0
 BYTE   W12
 BYTE   N06
 BYTE   W06
 BYTE   As1
 BYTE   W06
 BYTE   As0
 BYTE   W06
 BYTE   As1
 BYTE   W06
//  #01 //066   ----------------------------------------
 BYTE   N12  An0
 BYTE   W12
 BYTE   N06
 BYTE   W06
 BYTE   N12  An1
 BYTE   W12
 BYTE   N06  An0
 BYTE   W06
 BYTE   En1
 BYTE   W06
 BYTE   An1
 BYTE   W06
 BYTE   N12  An0
 BYTE   W12
 BYTE   An0
 BYTE   W12
 BYTE   N06
 BYTE   W06
 BYTE   An1
 BYTE   W06
 BYTE   An0
 BYTE   W06
 BYTE   An1
 BYTE   W06
//  #01 //067   ----------------------------------------
 BYTE   N12  Gs0
 BYTE   W12
 BYTE   N06
 BYTE   W06
 BYTE   N12  Gs1
 BYTE   W12
 BYTE   N06  Gs0
 BYTE   W06
 BYTE   Ds1
 BYTE   W06
 BYTE   Gs1
 BYTE   W06
 BYTE   N12  As0
 BYTE   W12
 BYTE   N06
 BYTE   W06
 BYTE   N12  As1
 BYTE   W12
 BYTE   N06  As0
 BYTE   W06
 BYTE   Fn1
 BYTE   W06
 BYTE   As1
 BYTE   W06
//  #01 //068   ----------------------------------------
 BYTE   N12  Cs1
 BYTE   W18
 BYTE   Gs1
 BYTE   W18
 BYTE   N09  Cs2
 BYTE   W12
 BYTE   N18  Cs1
 BYTE   W18
 BYTE   Gs1
 BYTE   W18
 BYTE   N09  Cs1
 BYTE   W12
//  #01 //069   ----------------------------------------
 BYTE   N12  Cn1
 BYTE   W18
 BYTE   Gn1
 BYTE   W18
 BYTE   N09  Cn2
 BYTE   W12
 BYTE   N18  Gn1
 BYTE   W18
 BYTE   Cn2
 BYTE   W18
 BYTE   N09  Cn1
 BYTE   W12
//  #01 //070   ----------------------------------------
 BYTE   N12  Cs1
 BYTE   W18
 BYTE   Gs1
 BYTE   W18
 BYTE   N09  Cs2
 BYTE   W12
 BYTE   N18  Cs1
 BYTE   W18
 BYTE   Gs1
 BYTE   W18
 BYTE   N09  Cs1
 BYTE   W12
//  #01 //071   ----------------------------------------
 BYTE   N12  Cn1
 BYTE   W18
 BYTE   Gn1
 BYTE   W18
 BYTE   N09  Cn2
 BYTE   W12
 BYTE   N18  Gn1
 BYTE   W18
 BYTE   Cn2
 BYTE   W18
 BYTE   N09  Cn1
 BYTE   W12
//  #01 //072   ----------------------------------------
 BYTE   N18  Cs1
 BYTE   W18
 BYTE   N12
 BYTE   W12
 BYTE   N06  Gs0
 BYTE   W06
 BYTE   Cs1
 BYTE   W06
 BYTE   Gs0
 BYTE   W06
 BYTE   N18  Cs1
 BYTE   W18
 BYTE   N12
 BYTE   W12
 BYTE   N06  Gs0
 BYTE   W06
 BYTE   Cs1
 BYTE   W06
 BYTE   Gs0
 BYTE   W06
//  #01 //073   ----------------------------------------
 BYTE   N18  Cn1
 BYTE   W18
 BYTE   N12
 BYTE   W12
 BYTE   N06  Gn0
 BYTE   W06
 BYTE   Cn1
 BYTE   W06
 BYTE   Gn0
 BYTE   W06
 BYTE   N18  Cn1
 BYTE   W18
 BYTE   N12
 BYTE   W12
 BYTE   N06  Cn2
 BYTE   W06
 BYTE   Gn1
 BYTE   W06
 BYTE   Cn1
 BYTE   W06
//  #01 //074   ----------------------------------------
 BYTE   N18  Cs1
 BYTE   W18
 BYTE   N12
 BYTE   W12
 BYTE   N06  Gs0
 BYTE   W06
 BYTE   Cs1
 BYTE   W06
 BYTE   Gs0
 BYTE   W06
 BYTE   N18  Cs1
 BYTE   W18
 BYTE   N12
 BYTE   W12
 BYTE   N06  Gs0
 BYTE   W06
 BYTE   Cs1
 BYTE   W06
 BYTE   Gs0
 BYTE   W06
//  #01 //075   ----------------------------------------
 BYTE   N18  Cn1
 BYTE   W18
 BYTE   N12
 BYTE   W12
 BYTE   N06  Gn0
 BYTE   W06
 BYTE   Cn1
 BYTE   W06
 BYTE   Gn0
 BYTE   W06
 BYTE   N18  Cn1
 BYTE   W18
 BYTE   N12
 BYTE   W12
 BYTE   N06  Cn2
 BYTE   W06
 BYTE   Gn1
 BYTE   W06
 BYTE   Cn1
 BYTE   W06
//  #01 //076   ----------------------------------------
 BYTE   Gs0
 BYTE   W06
 BYTE   Gs0
 BYTE   W06
 BYTE   Gs0
 BYTE   W06
 BYTE   N12
 BYTE   W12
 BYTE   N06
 BYTE   W06
 BYTE   Gs1
 BYTE   W06
 BYTE   Gs0
 BYTE   W06
 BYTE   As0
 BYTE   W06
 BYTE   As0
 BYTE   W06
 BYTE   As0
 BYTE   W06
 BYTE   N12
 BYTE   W12
 BYTE   N06
 BYTE   W06
 BYTE   As1
 BYTE   W06
 BYTE   As0
 BYTE   W06
//  #01 //077   ----------------------------------------
 BYTE   Cn1
 BYTE   W06
 BYTE   Cn1
 BYTE   W06
 BYTE   Cn1
 BYTE   W06
 BYTE   N12
 BYTE   W12
 BYTE   N06
 BYTE   W06
 BYTE   Gn0
 BYTE   W06
 BYTE   Cn1
 BYTE   W06
 BYTE   Cn1
 BYTE   W06
 BYTE   Cn1
 BYTE   W06
 BYTE   Cn1
 BYTE   W06
 BYTE   N12
 BYTE   W12
 BYTE   N06  Gn1
 BYTE   W06
 BYTE   Cn2
 BYTE   W06
 BYTE   Cn1
 BYTE   W06
//  #01 //078   ----------------------------------------
 BYTE   Gs0
 BYTE   W06
 BYTE   Gs0
 BYTE   W06
 BYTE   Gs0
 BYTE   W06
 BYTE   N12
 BYTE   W12
 BYTE   N06
 BYTE   W06
 BYTE   Gs1
 BYTE   W06
 BYTE   Gs0
 BYTE   W06
 BYTE   As0
 BYTE   W06
 BYTE   As0
 BYTE   W06
 BYTE   As0
 BYTE   W06
 BYTE   N12
 BYTE   W12
 BYTE   N06
 BYTE   W06
 BYTE   As1
 BYTE   W06
 BYTE   As0
 BYTE   W06
//  #01 //079   ----------------------------------------
 BYTE   Cn1
 BYTE   W06
 BYTE   Cn1
 BYTE   W06
 BYTE   Cn1
 BYTE   W06
 BYTE   N12
 BYTE   W12
 BYTE   N06
 BYTE   W06
 BYTE   Gn0
 BYTE   W06
 BYTE   Cn1
 BYTE   W06
 BYTE   Cn1
 BYTE   W06
 BYTE   Cn1
 BYTE   W06
 BYTE   Cn1
 BYTE   W06
 BYTE   N12
 BYTE   W12
 BYTE   N06  Gn1
 BYTE   W06
 BYTE   Cn2
 BYTE   W06
 BYTE   Cn1
 BYTE   W06
//  #01 //080   ----------------------------------------
 BYTE   Gs0
 BYTE   W06
 BYTE   Gs0
 BYTE   W06
 BYTE   Gs0
 BYTE   W06
 BYTE   N12
 BYTE   W12
 BYTE   N06
 BYTE   W06
 BYTE   Gs1
 BYTE   W06
 BYTE   Gs0
 BYTE   W06
 BYTE   As0
 BYTE   W06
 BYTE   As0
 BYTE   W06
 BYTE   As0
 BYTE   W06
 BYTE   N12
 BYTE   W12
 BYTE   N06
 BYTE   W06
 BYTE   As1
 BYTE   W06
 BYTE   As0
 BYTE   W06
//  #01 //081   ----------------------------------------
 BYTE   Cn1
 BYTE   W06
 BYTE   Cn1
 BYTE   W06
 BYTE   Cn1
 BYTE   W06
 BYTE   N12
 BYTE   W12
 BYTE   N06
 BYTE   W06
 BYTE   Gn0
 BYTE   W06
 BYTE   Cn1
 BYTE   W06
 BYTE   Cn1
 BYTE   W06
 BYTE   Cn1
 BYTE   W06
 BYTE   Cn1
 BYTE   W06
 BYTE   N12
 BYTE   W12
 BYTE   N06  Gn1
 BYTE   W06
 BYTE   Cn2
 BYTE   W06
 BYTE   Cn1
 BYTE   W06
//  #01 //082   ----------------------------------------
 BYTE   Gs0
 BYTE   W06
 BYTE   Gs0
 BYTE   W06
 BYTE   Gs0
 BYTE   W06
 BYTE   N12
 BYTE   W12
 BYTE   N06
 BYTE   W06
 BYTE   Gs1
 BYTE   W06
 BYTE   Gs0
 BYTE   W06
 BYTE   As0
 BYTE   W06
 BYTE   As0
 BYTE   W06
 BYTE   As0
 BYTE   W06
 BYTE   N12
 BYTE   W12
 BYTE   N06
 BYTE   W06
 BYTE   As1
 BYTE   W06
 BYTE   As0
 BYTE   W06
//  #01 //083   ----------------------------------------
 BYTE   Cn1
 BYTE   W06
 BYTE   Cn1
 BYTE   W06
 BYTE   Cn1
 BYTE   W06
 BYTE   N12
 BYTE   W12
 BYTE   N06
 BYTE   W06
 BYTE   Gn0
 BYTE   W06
 BYTE   Cn1
 BYTE   W06
 BYTE   Cn1
 BYTE   W06
 BYTE   Cn1
 BYTE   W06
 BYTE   Cn1
 BYTE   W06
 BYTE   N12
 BYTE   W12
 BYTE   N06  Gn1
 BYTE   W06
 BYTE   Cn2
 BYTE   W06
 BYTE   Cn1
 BYTE   W05
 BYTE   VOL   34*ToadstoolTourSkinsMatch_mvl/mxv
 BYTE   PAN   c_v-1
 BYTE   N12  Cn1  v102
 BYTE   W03
//  #01 //084   ----------------------------------------
 BYTE   VOL   32*ToadstoolTourSkinsMatch_mvl/mxv
 BYTE   W03
 BYTE   VOL   31*ToadstoolTourSkinsMatch_mvl/mxv
 BYTE   W03
 BYTE   VOL   29*ToadstoolTourSkinsMatch_mvl/mxv
 BYTE   W01
 BYTE   N12  Cn1  v102
 BYTE   W02
 BYTE   VOL   28*ToadstoolTourSkinsMatch_mvl/mxv
 BYTE   W03
 BYTE   VOL   27*ToadstoolTourSkinsMatch_mvl/mxv
 BYTE   W03
 BYTE   VOL   25*ToadstoolTourSkinsMatch_mvl/mxv
 BYTE   W01
 BYTE   N12  Cn1  v102
 BYTE   W01
 BYTE   VOL   24*ToadstoolTourSkinsMatch_mvl/mxv
 BYTE   W03
 BYTE   VOL   23*ToadstoolTourSkinsMatch_mvl/mxv
 BYTE   W03
 BYTE   VOL   21*ToadstoolTourSkinsMatch_mvl/mxv
 BYTE   W02
 BYTE   N12  Cn1  v102
 BYTE   W01
 BYTE   VOL   20*ToadstoolTourSkinsMatch_mvl/mxv
 BYTE   W03
 BYTE   VOL   19*ToadstoolTourSkinsMatch_mvl/mxv
 BYTE   W03
 BYTE   VOL   17*ToadstoolTourSkinsMatch_mvl/mxv
 BYTE   W03
 BYTE   N12  Cn1  v102
 BYTE   VOL   16*ToadstoolTourSkinsMatch_mvl/mxv
 BYTE   W03
 BYTE   VOL   15*ToadstoolTourSkinsMatch_mvl/mxv
 BYTE   W03
 BYTE   VOL   13*ToadstoolTourSkinsMatch_mvl/mxv
 BYTE   W03
 BYTE   N12  Cn1  v102
 BYTE   VOL   12*ToadstoolTourSkinsMatch_mvl/mxv
 BYTE   W03
 BYTE   VOL   11*ToadstoolTourSkinsMatch_mvl/mxv
 BYTE   W03
 BYTE   VOL   10*ToadstoolTourSkinsMatch_mvl/mxv
 BYTE   W03
 BYTE   VOL   8*ToadstoolTourSkinsMatch_mvl/mxv
 BYTE   N12  Cn1  v102
 BYTE   W03
 BYTE   VOL   7*ToadstoolTourSkinsMatch_mvl/mxv
 BYTE   W03
 BYTE   VOL   6*ToadstoolTourSkinsMatch_mvl/mxv
 BYTE   W03
 BYTE   VOL   5*ToadstoolTourSkinsMatch_mvl/mxv
 BYTE   N12  Cn1  v102
 BYTE   W02
 BYTE   VOL   3*ToadstoolTourSkinsMatch_mvl/mxv
 BYTE   W03
 BYTE   VOL   2*ToadstoolTourSkinsMatch_mvl/mxv
 BYTE   W03
 BYTE   VOL   1*ToadstoolTourSkinsMatch_mvl/mxv
 BYTE   W01
 BYTE   N12  As0  v102
 BYTE   W02
 BYTE   VOL   0*ToadstoolTourSkinsMatch_mvl/mxv
 BYTE   W03
 BYTE   VOL   0*ToadstoolTourSkinsMatch_mvl/mxv
 BYTE   W03
 BYTE   VOL   0*ToadstoolTourSkinsMatch_mvl/mxv
 BYTE   W02
 BYTE   N12  As0  v102
 BYTE   W01
 BYTE   VOL   0*ToadstoolTourSkinsMatch_mvl/mxv
 BYTE   W03
 BYTE   VOL   0*ToadstoolTourSkinsMatch_mvl/mxv
 BYTE   W03
 BYTE   VOL   0*ToadstoolTourSkinsMatch_mvl/mxv
 BYTE   W02
 BYTE   N12  As0  v102
 BYTE   W01
 BYTE   VOL   0*ToadstoolTourSkinsMatch_mvl/mxv
 BYTE   W03
 BYTE   VOL   0*ToadstoolTourSkinsMatch_mvl/mxv
 BYTE   W03
//  #01 //085   ----------------------------------------
 BYTE   VOL   0*ToadstoolTourSkinsMatch_mvl/mxv
 BYTE   W03
 BYTE   N12  As0  v102
 BYTE   VOL   0*ToadstoolTourSkinsMatch_mvl/mxv
 BYTE   W03
 BYTE   VOL   0*ToadstoolTourSkinsMatch_mvl/mxv
 BYTE   W03
 BYTE   VOL   0*ToadstoolTourSkinsMatch_mvl/mxv
 BYTE   W03
 BYTE   VOL   0*ToadstoolTourSkinsMatch_mvl/mxv
 BYTE   N12  As0  v102
 BYTE   W03
 BYTE   VOL   0*ToadstoolTourSkinsMatch_mvl/mxv
 BYTE   W03
 BYTE   VOL   0*ToadstoolTourSkinsMatch_mvl/mxv
 BYTE   W03
 BYTE   VOL   0*ToadstoolTourSkinsMatch_mvl/mxv
 BYTE   N12  As0  v102
 BYTE   W03
 BYTE   VOL   0*ToadstoolTourSkinsMatch_mvl/mxv
 BYTE   W03
 BYTE   VOL   0*ToadstoolTourSkinsMatch_mvl/mxv
 BYTE   W03
 BYTE   VOL   0*ToadstoolTourSkinsMatch_mvl/mxv
 BYTE   W01
 BYTE   N12  As0  v102
 BYTE   W02
 BYTE   VOL   0*ToadstoolTourSkinsMatch_mvl/mxv
 BYTE   W03
 BYTE   VOL   0*ToadstoolTourSkinsMatch_mvl/mxv
 BYTE   W03
 BYTE   VOL   0*ToadstoolTourSkinsMatch_mvl/mxv
 BYTE   W01
 BYTE   N12  As0  v102
 BYTE   W02
 BYTE   VOL   0*ToadstoolTourSkinsMatch_mvl/mxv
 BYTE   W03
 BYTE   VOL   0*ToadstoolTourSkinsMatch_mvl/mxv
 BYTE   W03
 BYTE   VOL   0*ToadstoolTourSkinsMatch_mvl/mxv
 BYTE   W02
 BYTE   N12  An0  v102
 BYTE   W01
 BYTE   VOL   0*ToadstoolTourSkinsMatch_mvl/mxv
 BYTE   W03
 BYTE   VOL   0*ToadstoolTourSkinsMatch_mvl/mxv
 BYTE   W03
 BYTE   VOL   0*ToadstoolTourSkinsMatch_mvl/mxv
 BYTE   W02
 BYTE   N12  An0  v102
 BYTE   VOL   0*ToadstoolTourSkinsMatch_mvl/mxv
 BYTE   W03
 BYTE   VOL   0*ToadstoolTourSkinsMatch_mvl/mxv
 BYTE   W03
 BYTE   VOL   0*ToadstoolTourSkinsMatch_mvl/mxv
 BYTE   W03
 BYTE   N12  An0  v102
 BYTE   VOL   0*ToadstoolTourSkinsMatch_mvl/mxv
 BYTE   W03
 BYTE   VOL   0*ToadstoolTourSkinsMatch_mvl/mxv
 BYTE   W03
 BYTE   VOL   0*ToadstoolTourSkinsMatch_mvl/mxv
 BYTE   W03
 BYTE   VOL   0*ToadstoolTourSkinsMatch_mvl/mxv
 BYTE   N12  An0  v102
 BYTE   W03
 BYTE   VOL   0*ToadstoolTourSkinsMatch_mvl/mxv
 BYTE   W03
 BYTE   VOL   0*ToadstoolTourSkinsMatch_mvl/mxv
 BYTE   W03
 BYTE   VOL   0*ToadstoolTourSkinsMatch_mvl/mxv
 BYTE   N12  An0  v102
 BYTE   W03
 BYTE   VOL   0*ToadstoolTourSkinsMatch_mvl/mxv
 BYTE   W03
 BYTE   VOL   0*ToadstoolTourSkinsMatch_mvl/mxv
 BYTE   W03
 BYTE   VOL   0*ToadstoolTourSkinsMatch_mvl/mxv
 BYTE   W01
//  #01 //086   ----------------------------------------
 BYTE   N12  An0  v102
 BYTE   W02
 BYTE   VOL   0*ToadstoolTourSkinsMatch_mvl/mxv
 BYTE   W03
 BYTE   VOL   0*ToadstoolTourSkinsMatch_mvl/mxv
 BYTE   W03
 BYTE   VOL   0*ToadstoolTourSkinsMatch_mvl/mxv
 BYTE   W01
 BYTE   N12  An0  v102
 BYTE   W01
 BYTE   VOL   0*ToadstoolTourSkinsMatch_mvl/mxv
 BYTE   W03
 BYTE   VOL   0*ToadstoolTourSkinsMatch_mvl/mxv
 BYTE   W03
 BYTE   VOL   0*ToadstoolTourSkinsMatch_mvl/mxv
 BYTE   W02
 BYTE   N12  An0  v102
 BYTE   W01
 BYTE   VOL   0*ToadstoolTourSkinsMatch_mvl/mxv
 BYTE   W03
 BYTE   VOL   0*ToadstoolTourSkinsMatch_mvl/mxv
 BYTE   W03
 BYTE   VOL   0*ToadstoolTourSkinsMatch_mvl/mxv
 BYTE   W03
 BYTE   N12  Gs0  v102
 BYTE   VOL   0*ToadstoolTourSkinsMatch_mvl/mxv
 BYTE   W03
 BYTE   VOL   0*ToadstoolTourSkinsMatch_mvl/mxv
 BYTE   W03
 BYTE   VOL   0*ToadstoolTourSkinsMatch_mvl/mxv
 BYTE   W03
 BYTE   N12  Gs0  v102
 BYTE   VOL   0*ToadstoolTourSkinsMatch_mvl/mxv
 BYTE   W03
 BYTE   VOL   0*ToadstoolTourSkinsMatch_mvl/mxv
 BYTE   W03
 BYTE   VOL   0*ToadstoolTourSkinsMatch_mvl/mxv
 BYTE   W03
 BYTE   VOL   0*ToadstoolTourSkinsMatch_mvl/mxv
 BYTE   N12  Gs0  v102
 BYTE   W03
 BYTE   VOL   0*ToadstoolTourSkinsMatch_mvl/mxv
 BYTE   W03
 BYTE   VOL   0*ToadstoolTourSkinsMatch_mvl/mxv
 BYTE   W03
 BYTE   VOL   0*ToadstoolTourSkinsMatch_mvl/mxv
 BYTE   N12  Gs0  v102
 BYTE   W02
 BYTE   VOL   0*ToadstoolTourSkinsMatch_mvl/mxv
 BYTE   W03
 BYTE   VOL   0*ToadstoolTourSkinsMatch_mvl/mxv
 BYTE   W03
 BYTE   VOL   0*ToadstoolTourSkinsMatch_mvl/mxv
 BYTE   W01
 BYTE   N12  As0  v102
 BYTE   W02
 BYTE   VOL   0*ToadstoolTourSkinsMatch_mvl/mxv
 BYTE   W03
 BYTE   VOL   0*ToadstoolTourSkinsMatch_mvl/mxv
 BYTE   W03
 BYTE   VOL   0*ToadstoolTourSkinsMatch_mvl/mxv
 BYTE   W02
 BYTE   N06  As1  v102
 BYTE   W01
 BYTE   VOL   0*ToadstoolTourSkinsMatch_mvl/mxv
 BYTE   W03
 BYTE   VOL   0*ToadstoolTourSkinsMatch_mvl/mxv
 BYTE   N06  As0  v102
 BYTE   W03
 BYTE   VOL   0*ToadstoolTourSkinsMatch_mvl/mxv
 BYTE   W02
 BYTE   N06  Fn1  v102
 BYTE   W01
 BYTE   VOL   0*ToadstoolTourSkinsMatch_mvl/mxv
 BYTE   W03
 BYTE   VOL   0*ToadstoolTourSkinsMatch_mvl/mxv
 BYTE   W01
 BYTE   N06  Dn1  v102
 BYTE   W02
 BYTE   VOL   0*ToadstoolTourSkinsMatch_mvl/mxv
 BYTE   W03
 BYTE   N06  As0  v102
 BYTE   VOL   0*ToadstoolTourSkinsMatch_mvl/mxv
 BYTE   W03
//  #01 //087   ----------------------------------------
 BYTE   VOL   0*ToadstoolTourSkinsMatch_mvl/mxv
 BYTE   W01
 BYTE   N06  Fn0  v102
 BYTE   W02
 BYTE   VOL   0*ToadstoolTourSkinsMatch_mvl/mxv
 BYTE   W03
 BYTE   FINE

//**************** Track 2 (Midi-Chn.1) ****************//

ToadstoolTourSkinsMatch_002:
//  #02 //000   ----------------------------------------
Label_014D3920:
 BYTE   TEMPO   118*ToadstoolTourSkinsMatch_tbs/2
 BYTE   KEYSH   ToadstoolTourSkinsMatch_key+0
 BYTE   VOICE   34
 BYTE   VOL   68*ToadstoolTourSkinsMatch_mvl/mxv
 BYTE   PAN   c_v-1
 BYTE   N06  Fn0  v102
 BYTE   W06
 BYTE   N12  En0
 BYTE   W12
 BYTE   N06  En1
 BYTE   W06
 BYTE   N12  En0
 BYTE   W12
 BYTE   N06  En1
 BYTE   W06
 BYTE   N12  En0
 BYTE   W12
 BYTE   N06  Dn1
 BYTE   W06
 BYTE   Dn1
 BYTE   W06
 BYTE   Dn2
 BYTE   W06
 BYTE   Dn1
 BYTE   W06
 BYTE   Cn2
 BYTE   W06
 BYTE   Dn2
 BYTE   W06
 BYTE   An1
 BYTE   W06
//  #02 //001   ----------------------------------------
 BYTE   Dn1
 BYTE   W06
 BYTE   Cn1
 BYTE   W06
 BYTE   Cn1
 BYTE   W06
 BYTE   Cn1
 BYTE   W06
 BYTE   Cn1
 BYTE   W06
 BYTE   Cn1
 BYTE   W06
 BYTE   Gn0
 BYTE   W06
 BYTE   Cn1
 BYTE   W06
 BYTE   Gn0
 BYTE   W06
 BYTE   Bn0
 BYTE   W06
 BYTE   Bn0
 BYTE   W06
 BYTE   Bn1
 BYTE   W06
 BYTE   Bn0
 BYTE   W06
 BYTE   Bn0
 BYTE   W06
 BYTE   Bn0
 BYTE   W06
 BYTE   Bn1
 BYTE   W06
//  #02 //002   ----------------------------------------
 BYTE   Bn0
 BYTE   W06
 BYTE   Cn1
 BYTE   W06
 BYTE   Cn1
 BYTE   W06
 BYTE   Cn1
 BYTE   W06
 BYTE   Cn1
 BYTE   W06
 BYTE   Cn1
 BYTE   W06
 BYTE   Gn0
 BYTE   W06
 BYTE   Cn1
 BYTE   W06
 BYTE   Gn0
 BYTE   W06
 BYTE   Dn1
 BYTE   W06
 BYTE   Dn1
 BYTE   W06
 BYTE   Dn1
 BYTE   W06
 BYTE   Dn1
 BYTE   W06
 BYTE   Dn1
 BYTE   W06
 BYTE   An0
 BYTE   W06
 BYTE   Dn1
 BYTE   W06
//  #02 //003   ----------------------------------------
 BYTE   An0
 BYTE   W06
 BYTE   Ds1
 BYTE   W06
 BYTE   Ds1
 BYTE   W06
 BYTE   Ds1
 BYTE   W06
 BYTE   Ds1
 BYTE   W06
 BYTE   Ds1
 BYTE   W06
 BYTE   As0
 BYTE   W06
 BYTE   Ds1
 BYTE   W06
 BYTE   As0
 BYTE   W06
 BYTE   Fn0
 BYTE   W06
 BYTE   Fn0
 BYTE   W06
 BYTE   Fn1
 BYTE   W06
 BYTE   Fn0
 BYTE   W06
 BYTE   Ds1
 BYTE   W06
 BYTE   Fn0
 BYTE   W06
 BYTE   Fn1
 BYTE   W06
//  #02 //004   ----------------------------------------
 BYTE   Fn0
 BYTE   W06
 BYTE   N18  Gn0
 BYTE   W18
 BYTE   N12
 BYTE   W12
 BYTE   N06  Dn0
 BYTE   W06
 BYTE   Gn0
 BYTE   W06
 BYTE   Dn0
 BYTE   W06
 BYTE   N18  Fn0
 BYTE   W18
 BYTE   N12
 BYTE   W12
 BYTE   N06  Fn1
 BYTE   W06
 BYTE   Fn0
 BYTE   W06
//  #02 //005   ----------------------------------------
 BYTE   Fn1
 BYTE   W06
 BYTE   Gs0
 BYTE   W06
 BYTE   Gs1
 BYTE   W06
 BYTE   Gs0
 BYTE   W06
 BYTE   Gs1
 BYTE   W06
 BYTE   Gs0
 BYTE   W06
 BYTE   Gs1
 BYTE   W06
 BYTE   Gs0
 BYTE   W06
 BYTE   Gs1
 BYTE   W06
 BYTE   As0
 BYTE   W06
 BYTE   As1
 BYTE   W06
 BYTE   As0
 BYTE   W06
 BYTE   As1
 BYTE   W06
 BYTE   As0
 BYTE   W06
 BYTE   As1
 BYTE   W06
 BYTE   As0
 BYTE   W06
//  #02 //006   ----------------------------------------
 BYTE   As1
 BYTE   W06
 BYTE   N18  Cn1
 BYTE   W18
 BYTE   N12
 BYTE   W12
 BYTE   N06  Gn0
 BYTE   W06
 BYTE   Cn1
 BYTE   W06
 BYTE   Gn0
 BYTE   W06
 BYTE   N18  As0
 BYTE   W18
 BYTE   Fn0
 BYTE   W18
 BYTE   N12  Fn1
 BYTE   W12
//  #02 //007   ----------------------------------------
 BYTE   N06  Gs0
 BYTE   W06
 BYTE   Gs0
 BYTE   W06
 BYTE   Gs1
 BYTE   W06
 BYTE   Gs0
 BYTE   W06
 BYTE   Ds1
 BYTE   W06
 BYTE   Gs1
 BYTE   W06
 BYTE   Gs0
 BYTE   W06
 BYTE   Gs1
 BYTE   W06
 BYTE   As0
 BYTE   W06
 BYTE   As0
 BYTE   W06
 BYTE   Fn0
 BYTE   W06
 BYTE   As0
 BYTE   W06
 BYTE   Fn1
 BYTE   W06
 BYTE   As1
 BYTE   W06
 BYTE   Fn1
 BYTE   W06
 BYTE   As0
 BYTE   W06
//  #02 //008   ----------------------------------------
 BYTE   N12  En0
 BYTE   W12
 BYTE   N06  En1
 BYTE   W06
 BYTE   N12  En0
 BYTE   W12
 BYTE   N06  En1
 BYTE   W06
 BYTE   N12  En0
 BYTE   W12
 BYTE   N06  Dn1
 BYTE   W06
 BYTE   Dn1
 BYTE   W06
 BYTE   Dn2
 BYTE   W06
 BYTE   Dn1
 BYTE   W06
 BYTE   Cn2
 BYTE   W06
 BYTE   Dn2
 BYTE   W06
 BYTE   An1
 BYTE   W06
 BYTE   Dn1
 BYTE   W06
//  #02 //009   ----------------------------------------
 BYTE   Cn1
 BYTE   W06
 BYTE   Cn1
 BYTE   W06
 BYTE   Cn1
 BYTE   W06
 BYTE   Cn1
 BYTE   W06
 BYTE   Cn1
 BYTE   W06
 BYTE   Gn0
 BYTE   W06
 BYTE   Cn1
 BYTE   W06
 BYTE   Gn0
 BYTE   W06
 BYTE   Bn0
 BYTE   W06
 BYTE   Bn0
 BYTE   W06
 BYTE   Bn1
 BYTE   W06
 BYTE   Bn0
 BYTE   W06
 BYTE   Bn0
 BYTE   W06
 BYTE   Bn0
 BYTE   W06
 BYTE   Bn1
 BYTE   W06
 BYTE   Bn0
 BYTE   W06
//  #02 //010   ----------------------------------------
 BYTE   Cn1
 BYTE   W06
 BYTE   Cn1
 BYTE   W06
 BYTE   Cn1
 BYTE   W06
 BYTE   Cn1
 BYTE   W06
 BYTE   Cn1
 BYTE   W06
 BYTE   Gn0
 BYTE   W06
 BYTE   Cn1
 BYTE   W06
 BYTE   Gn0
 BYTE   W06
 BYTE   Dn1
 BYTE   W06
 BYTE   Dn1
 BYTE   W06
 BYTE   Dn1
 BYTE   W06
 BYTE   Dn1
 BYTE   W06
 BYTE   Dn1
 BYTE   W06
 BYTE   An0
 BYTE   W06
 BYTE   Dn1
 BYTE   W06
 BYTE   An0
 BYTE   W06
//  #02 //011   ----------------------------------------
 BYTE   Ds1
 BYTE   W06
 BYTE   Ds1
 BYTE   W06
 BYTE   Ds1
 BYTE   W06
 BYTE   Ds1
 BYTE   W06
 BYTE   Ds1
 BYTE   W06
 BYTE   As0
 BYTE   W06
 BYTE   Ds1
 BYTE   W06
 BYTE   As0
 BYTE   W06
 BYTE   Fn0
 BYTE   W06
 BYTE   Fn0
 BYTE   W06
 BYTE   Fn1
 BYTE   W06
 BYTE   Fn0
 BYTE   W06
 BYTE   Ds1
 BYTE   W06
 BYTE   Fn0
 BYTE   W06
 BYTE   Fn1
 BYTE   W06
 BYTE   Fn0
 BYTE   W06
//  #02 //012   ----------------------------------------
 BYTE   N18  Gn0
 BYTE   W18
 BYTE   N12
 BYTE   W12
 BYTE   N06  Dn0
 BYTE   W06
 BYTE   Gn0
 BYTE   W06
 BYTE   Dn0
 BYTE   W06
 BYTE   N18  Fn0
 BYTE   W18
 BYTE   N12
 BYTE   W12
 BYTE   N06  Fn1
 BYTE   W06
 BYTE   Fn0
 BYTE   W06
 BYTE   Fn1
 BYTE   W06
//  #02 //013   ----------------------------------------
 BYTE   Gs0
 BYTE   W06
 BYTE   Gs1
 BYTE   W06
 BYTE   Gs0
 BYTE   W06
 BYTE   Gs1
 BYTE   W06
 BYTE   Gs0
 BYTE   W06
 BYTE   Gs1
 BYTE   W06
 BYTE   Gs0
 BYTE   W06
 BYTE   Gs1
 BYTE   W06
 BYTE   As0
 BYTE   W06
 BYTE   As1
 BYTE   W06
 BYTE   As0
 BYTE   W06
 BYTE   As1
 BYTE   W06
 BYTE   As0
 BYTE   W06
 BYTE   As1
 BYTE   W06
 BYTE   As0
 BYTE   W06
 BYTE   As1
 BYTE   W06
//  #02 //014   ----------------------------------------
 BYTE   N18  Cn1
 BYTE   W18
 BYTE   N12
 BYTE   W12
 BYTE   N06  Gn0
 BYTE   W06
 BYTE   Cn1
 BYTE   W06
 BYTE   Gn0
 BYTE   W06
 BYTE   N18  As0
 BYTE   W18
 BYTE   Fn0
 BYTE   W18
 BYTE   N12  Fn1
 BYTE   W12
//  #02 //015   ----------------------------------------
 BYTE   N06  Gs0
 BYTE   W06
 BYTE   Gs0
 BYTE   W06
 BYTE   Gs1
 BYTE   W06
 BYTE   Gs0
 BYTE   W06
 BYTE   Ds1
 BYTE   W06
 BYTE   Gs1
 BYTE   W06
 BYTE   Gs0
 BYTE   W06
 BYTE   Gs1
 BYTE   W06
 BYTE   As0
 BYTE   W06
 BYTE   As0
 BYTE   W06
 BYTE   Fn0
 BYTE   W06
 BYTE   As0
 BYTE   W06
 BYTE   Fn1
 BYTE   W06
 BYTE   As1
 BYTE   W06
 BYTE   Fn1
 BYTE   W06
 BYTE   GoTo
  POIN2 Label_014D3920
//  #02 //016   ----------------------------------------
 BYTE   N06  As0  v102
 BYTE   W06
 BYTE   N12  Cn1
 BYTE   W12
 BYTE   Cn1
 BYTE   W12
 BYTE   Cn1
 BYTE   W12
 BYTE   Cn1
 BYTE   W12
 BYTE   Cn1
 BYTE   W12
 BYTE   Cn1
 BYTE   W12
 BYTE   Cn1
 BYTE   W12
 BYTE   Cn1
 BYTE   W12
//  #02 //017   ----------------------------------------
 BYTE   As0
 BYTE   W12
 BYTE   As0
 BYTE   W12
 BYTE   As0
 BYTE   W12
 BYTE   As0
 BYTE   W12
 BYTE   As0
 BYTE   W12
 BYTE   As0
 BYTE   W12
 BYTE   As0
 BYTE   W12
 BYTE   As0
 BYTE   W12
//  #02 //018   ----------------------------------------
 BYTE   An0
 BYTE   W12
 BYTE   An0
 BYTE   W12
 BYTE   An0
 BYTE   W12
 BYTE   An0
 BYTE   W12
 BYTE   An0
 BYTE   W12
 BYTE   An0
 BYTE   W12
 BYTE   An0
 BYTE   W12
 BYTE   An0
 BYTE   W12
//  #02 //019   ----------------------------------------
 BYTE   Gs0
 BYTE   W12
 BYTE   Gs0
 BYTE   W12
 BYTE   Gs0
 BYTE   W12
 BYTE   Gs0
 BYTE   W12
 BYTE   As0
 BYTE   W12
 BYTE   N06  As1
 BYTE   W06
 BYTE   As0
 BYTE   W06
 BYTE   Fn1
 BYTE   W06
 BYTE   Dn1
 BYTE   W06
 BYTE   As0
 BYTE   W06
 BYTE   Fn0
 BYTE   W06
//  #02 //020   ----------------------------------------
 BYTE   N18  Cn1
 BYTE   W18
 BYTE   N12
 BYTE   W12
 BYTE   N06  Gn0
 BYTE   W06
 BYTE   Cn1
 BYTE   W06
 BYTE   Gn0
 BYTE   W06
 BYTE   N12  Cn1
 BYTE   W12
 BYTE   Cn1
 BYTE   W12
 BYTE   N06
 BYTE   W06
 BYTE   Gn0
 BYTE   W06
 BYTE   Cn1
 BYTE   W06
 BYTE   Gn0
 BYTE   W06
//  #02 //021   ----------------------------------------
 BYTE   N12  As0
 BYTE   W12
 BYTE   As0
 BYTE   W12
 BYTE   N06
 BYTE   W06
 BYTE   Fn1
 BYTE   W06
 BYTE   As1
 BYTE   W06
 BYTE   As0
 BYTE   W06
 BYTE   N12
 BYTE   W12
 BYTE   As0
 BYTE   W12
 BYTE   N06
 BYTE   W06
 BYTE   As1
 BYTE   W06
 BYTE   As0
 BYTE   W06
 BYTE   As1
 BYTE   W06
//  #02 //022   ----------------------------------------
 BYTE   N12  An0
 BYTE   W12
 BYTE   N06
 BYTE   W06
 BYTE   N12  An1
 BYTE   W12
 BYTE   N06  An0
 BYTE   W06
 BYTE   En1
 BYTE   W06
 BYTE   An1
 BYTE   W06
 BYTE   N12  An0
 BYTE   W12
 BYTE   An0
 BYTE   W12
 BYTE   N06
 BYTE   W06
 BYTE   An1
 BYTE   W06
 BYTE   An0
 BYTE   W06
 BYTE   An1
 BYTE   W06
//  #02 //023   ----------------------------------------
 BYTE   N12  Gs0
 BYTE   W12
 BYTE   N06
 BYTE   W06
 BYTE   N12  Gs1
 BYTE   W12
 BYTE   N06  Gs0
 BYTE   W06
 BYTE   Ds1
 BYTE   W06
 BYTE   Gs1
 BYTE   W06
 BYTE   N12  As0
 BYTE   W12
 BYTE   N06
 BYTE   W06
 BYTE   N12  As1
 BYTE   W12
 BYTE   N06  As0
 BYTE   W06
 BYTE   Fn1
 BYTE   W06
 BYTE   As1
 BYTE   W06
//  #02 //024   ----------------------------------------
Label_014D3BC3:
 BYTE   N12  Cs1  v102
 BYTE   W18
 BYTE   Gs1
 BYTE   W18
 BYTE   N09  Cs2
 BYTE   W12
 BYTE   N18  Cs1
 BYTE   W18
 BYTE   Gs1
 BYTE   W18
 BYTE   N09  Cs1
 BYTE   W12
 BYTE   PEND 
//  #02 //025   ----------------------------------------
Label_014D3BD5:
 BYTE   N12  Cn1  v102
 BYTE   W18
 BYTE   Gn1
 BYTE   W18
 BYTE   N09  Cn2
 BYTE   W12
 BYTE   N18  Gn1
 BYTE   W18
 BYTE   Cn2
 BYTE   W18
 BYTE   N09  Cn1
 BYTE   W12
 BYTE   PEND 
//  #02 //026   ----------------------------------------
 BYTE   PATT
  POIN2 Label_014D3BC3
//  #02 //027   ----------------------------------------
 BYTE   PATT
  POIN2 Label_014D3BD5
//  #02 //028   ----------------------------------------
Label_014D3BF1:
 BYTE   N18  Cs1  v102
 BYTE   W18
 BYTE   N12
 BYTE   W12
 BYTE   N06  Gs0
 BYTE   W06
 BYTE   Cs1
 BYTE   W06
 BYTE   Gs0
 BYTE   W06
 BYTE   N18  Cs1
 BYTE   W18
 BYTE   N12
 BYTE   W12
 BYTE   N06  Gs0
 BYTE   W06
 BYTE   Cs1
 BYTE   W06
 BYTE   Gs0
 BYTE   W06
 BYTE   PEND 
//  #02 //029   ----------------------------------------
Label_014D3C0B:
 BYTE   N18  Cn1  v102
 BYTE   W18
 BYTE   N12
 BYTE   W12
 BYTE   N06  Gn0
 BYTE   W06
 BYTE   Cn1
 BYTE   W06
 BYTE   Gn0
 BYTE   W06
 BYTE   N18  Cn1
 BYTE   W18
 BYTE   N12
 BYTE   W12
 BYTE   N06  Cn2
 BYTE   W06
 BYTE   Gn1
 BYTE   W06
 BYTE   Cn1
 BYTE   W06
 BYTE   PEND 
//  #02 //030   ----------------------------------------
 BYTE   PATT
  POIN2 Label_014D3BF1
//  #02 //031   ----------------------------------------
 BYTE   PATT
  POIN2 Label_014D3C0B
//  #02 //032   ----------------------------------------
Label_014D3C2F:
 BYTE   N06  Gs0  v102
 BYTE   W06
 BYTE   Gs0
 BYTE   W06
 BYTE   Gs0
 BYTE   W06
 BYTE   N12
 BYTE   W12
 BYTE   N06
 BYTE   W06
 BYTE   Gs1
 BYTE   W06
 BYTE   Gs0
 BYTE   W06
 BYTE   As0
 BYTE   W06
 BYTE   As0
 BYTE   W06
 BYTE   As0
 BYTE   W06
 BYTE   N12
 BYTE   W12
 BYTE   N06
 BYTE   W06
 BYTE   As1
 BYTE   W06
 BYTE   As0
 BYTE   W06
 BYTE   PEND 
//  #02 //033   ----------------------------------------
Label_014D3C4E:
 BYTE   N06  Cn1  v102
 BYTE   W06
 BYTE   Cn1
 BYTE   W06
 BYTE   Cn1
 BYTE   W06
 BYTE   N12
 BYTE   W12
 BYTE   N06
 BYTE   W06
 BYTE   Gn0
 BYTE   W06
 BYTE   Cn1
 BYTE   W06
 BYTE   Cn1
 BYTE   W06
 BYTE   Cn1
 BYTE   W06
 BYTE   Cn1
 BYTE   W06
 BYTE   N12
 BYTE   W12
 BYTE   N06  Gn1
 BYTE   W06
 BYTE   Cn2
 BYTE   W06
 BYTE   Cn1
 BYTE   W06
 BYTE   PEND 
//  #02 //034   ----------------------------------------
 BYTE   PATT
  POIN2 Label_014D3C2F
//  #02 //035   ----------------------------------------
 BYTE   PATT
  POIN2 Label_014D3C4E
//  #02 //036   ----------------------------------------
 BYTE   PATT
  POIN2 Label_014D3C2F
//  #02 //037   ----------------------------------------
 BYTE   PATT
  POIN2 Label_014D3C4E
//  #02 //038   ----------------------------------------
 BYTE   PATT
  POIN2 Label_014D3C2F
//  #02 //039   ----------------------------------------
 BYTE   N06  Cn1  v102
 BYTE   W06
 BYTE   Cn1
 BYTE   W06
 BYTE   Cn1
 BYTE   W06
 BYTE   N12
 BYTE   W12
 BYTE   N06
 BYTE   W06
 BYTE   Gn0
 BYTE   W06
 BYTE   Cn1
 BYTE   W06
 BYTE   Cn1
 BYTE   W06
 BYTE   Cn1
 BYTE   W06
 BYTE   Cn1
 BYTE   W06
 BYTE   N12
 BYTE   W12
 BYTE   N06  Gn1
 BYTE   W06
 BYTE   Cn2
 BYTE   W06
 BYTE   Cn1
 BYTE   W06
//  #02 //040   ----------------------------------------
 BYTE   VOL   68*ToadstoolTourSkinsMatch_mvl/mxv
 BYTE   PAN   c_v-1
 BYTE   N12  Cn1  v102
 BYTE   W12
 BYTE   Cn1
 BYTE   W12
 BYTE   Cn1
 BYTE   W12
 BYTE   Cn1
 BYTE   W12
 BYTE   Cn1
 BYTE   W12
 BYTE   Cn1
 BYTE   W12
 BYTE   Cn1
 BYTE   W12
 BYTE   Cn1
 BYTE   W12
//  #02 //041   ----------------------------------------
 BYTE   As0
 BYTE   W12
 BYTE   As0
 BYTE   W12
 BYTE   As0
 BYTE   W12
 BYTE   As0
 BYTE   W12
 BYTE   As0
 BYTE   W12
 BYTE   As0
 BYTE   W12
 BYTE   As0
 BYTE   W12
 BYTE   As0
 BYTE   W12
//  #02 //042   ----------------------------------------
 BYTE   An0
 BYTE   W12
 BYTE   An0
 BYTE   W12
 BYTE   An0
 BYTE   W12
 BYTE   An0
 BYTE   W12
 BYTE   An0
 BYTE   W12
 BYTE   An0
 BYTE   W12
 BYTE   An0
 BYTE   W12
 BYTE   An0
 BYTE   W12
//  #02 //043   ----------------------------------------
 BYTE   Gs0
 BYTE   W12
 BYTE   Gs0
 BYTE   W12
 BYTE   Gs0
 BYTE   W12
 BYTE   Gs0
 BYTE   W12
 BYTE   As0
 BYTE   W12
 BYTE   N06  As1
 BYTE   W06
 BYTE   As0
 BYTE   W06
 BYTE   Fn1
 BYTE   W06
 BYTE   Dn1
 BYTE   W06
 BYTE   As0
 BYTE   W06
 BYTE   Fn0
 BYTE   W06
//  #02 //044   ----------------------------------------
 BYTE   N12  En0
 BYTE   W12
 BYTE   N06  En1
 BYTE   W06
 BYTE   N12  En0
 BYTE   W12
 BYTE   N06  En1
 BYTE   W06
 BYTE   N12  En0
 BYTE   W12
 BYTE   N06  Dn1
 BYTE   W06
 BYTE   Dn1
 BYTE   W06
 BYTE   Dn2
 BYTE   W06
 BYTE   Dn1
 BYTE   W06
 BYTE   Cn2
 BYTE   W06
 BYTE   Dn2
 BYTE   W06
 BYTE   An1
 BYTE   W06
 BYTE   Dn1
 BYTE   W06
//  #02 //045   ----------------------------------------
 BYTE   Cn1
 BYTE   W06
 BYTE   Cn1
 BYTE   W06
 BYTE   Cn1
 BYTE   W06
 BYTE   Cn1
 BYTE   W06
 BYTE   Cn1
 BYTE   W06
 BYTE   Gn0
 BYTE   W06
 BYTE   Cn1
 BYTE   W06
 BYTE   Gn0
 BYTE   W06
 BYTE   Bn0
 BYTE   W06
 BYTE   Bn0
 BYTE   W06
 BYTE   Bn1
 BYTE   W06
 BYTE   Bn0
 BYTE   W06
 BYTE   Bn0
 BYTE   W06
 BYTE   Bn0
 BYTE   W06
 BYTE   Bn1
 BYTE   W06
 BYTE   Bn0
 BYTE   W06
//  #02 //046   ----------------------------------------
 BYTE   Cn1
 BYTE   W06
 BYTE   Cn1
 BYTE   W06
 BYTE   Cn1
 BYTE   W06
 BYTE   Cn1
 BYTE   W06
 BYTE   Cn1
 BYTE   W06
 BYTE   Gn0
 BYTE   W06
 BYTE   Cn1
 BYTE   W06
 BYTE   Gn0
 BYTE   W06
 BYTE   Dn1
 BYTE   W06
 BYTE   Dn1
 BYTE   W06
 BYTE   Dn1
 BYTE   W06
 BYTE   Dn1
 BYTE   W06
 BYTE   Dn1
 BYTE   W06
 BYTE   An0
 BYTE   W06
 BYTE   Dn1
 BYTE   W06
 BYTE   An0
 BYTE   W06
//  #02 //047   ----------------------------------------
 BYTE   Ds1
 BYTE   W06
 BYTE   Ds1
 BYTE   W06
 BYTE   Ds1
 BYTE   W06
 BYTE   Ds1
 BYTE   W06
 BYTE   Ds1
 BYTE   W06
 BYTE   As0
 BYTE   W06
 BYTE   Ds1
 BYTE   W06
 BYTE   As0
 BYTE   W06
 BYTE   Fn0
 BYTE   W06
 BYTE   Fn0
 BYTE   W06
 BYTE   Fn1
 BYTE   W06
 BYTE   Fn0
 BYTE   W06
 BYTE   Ds1
 BYTE   W06
 BYTE   Fn0
 BYTE   W06
 BYTE   Fn1
 BYTE   W06
 BYTE   Fn0
 BYTE   W06
//  #02 //048   ----------------------------------------
 BYTE   N18  Gn0
 BYTE   W18
 BYTE   N12
 BYTE   W12
 BYTE   N06  Dn0
 BYTE   W06
 BYTE   Gn0
 BYTE   W06
 BYTE   Dn0
 BYTE   W06
 BYTE   N18  Fn0
 BYTE   W18
 BYTE   N12
 BYTE   W12
 BYTE   N06  Fn1
 BYTE   W06
 BYTE   Fn0
 BYTE   W06
 BYTE   Fn1
 BYTE   W06
//  #02 //049   ----------------------------------------
 BYTE   Gs0
 BYTE   W06
 BYTE   Gs1
 BYTE   W06
 BYTE   Gs0
 BYTE   W06
 BYTE   Gs1
 BYTE   W06
 BYTE   Gs0
 BYTE   W06
 BYTE   Gs1
 BYTE   W06
 BYTE   Gs0
 BYTE   W06
 BYTE   Gs1
 BYTE   W06
 BYTE   As0
 BYTE   W06
 BYTE   As1
 BYTE   W06
 BYTE   As0
 BYTE   W06
 BYTE   As1
 BYTE   W06
 BYTE   As0
 BYTE   W06
 BYTE   As1
 BYTE   W06
 BYTE   As0
 BYTE   W06
 BYTE   As1
 BYTE   W06
//  #02 //050   ----------------------------------------
 BYTE   N18  Cn1
 BYTE   W18
 BYTE   N12
 BYTE   W12
 BYTE   N06  Gn0
 BYTE   W06
 BYTE   Cn1
 BYTE   W06
 BYTE   Gn0
 BYTE   W06
 BYTE   N18  As0
 BYTE   W18
 BYTE   Fn0
 BYTE   W18
 BYTE   N12  Fn1
 BYTE   W12
//  #02 //051   ----------------------------------------
 BYTE   N06  Gs0
 BYTE   W06
 BYTE   Gs0
 BYTE   W06
 BYTE   Gs1
 BYTE   W06
 BYTE   Gs0
 BYTE   W06
 BYTE   Ds1
 BYTE   W06
 BYTE   Gs1
 BYTE   W06
 BYTE   Gs0
 BYTE   W06
 BYTE   Gs1
 BYTE   W06
 BYTE   As0
 BYTE   W06
 BYTE   As0
 BYTE   W06
 BYTE   Fn0
 BYTE   W06
 BYTE   As0
 BYTE   W06
 BYTE   Fn1
 BYTE   W06
 BYTE   As1
 BYTE   W06
 BYTE   Fn1
 BYTE   W06
 BYTE   As0
 BYTE   W06
//  #02 //052   ----------------------------------------
 BYTE   N12  En0
 BYTE   W12
 BYTE   N06  En1
 BYTE   W06
 BYTE   N12  En0
 BYTE   W12
 BYTE   N06  En1
 BYTE   W06
 BYTE   N12  En0
 BYTE   W12
 BYTE   N06  Dn1
 BYTE   W06
 BYTE   Dn1
 BYTE   W06
 BYTE   Dn2
 BYTE   W06
 BYTE   Dn1
 BYTE   W06
 BYTE   Cn2
 BYTE   W06
 BYTE   Dn2
 BYTE   W06
 BYTE   An1
 BYTE   W06
 BYTE   Dn1
 BYTE   W06
//  #02 //053   ----------------------------------------
 BYTE   Cn1
 BYTE   W06
 BYTE   Cn1
 BYTE   W06
 BYTE   Cn1
 BYTE   W06
 BYTE   Cn1
 BYTE   W06
 BYTE   Cn1
 BYTE   W06
 BYTE   Gn0
 BYTE   W06
 BYTE   Cn1
 BYTE   W06
 BYTE   Gn0
 BYTE   W06
 BYTE   Bn0
 BYTE   W06
 BYTE   Bn0
 BYTE   W06
 BYTE   Bn1
 BYTE   W06
 BYTE   Bn0
 BYTE   W06
 BYTE   Bn0
 BYTE   W06
 BYTE   Bn0
 BYTE   W06
 BYTE   Bn1
 BYTE   W06
 BYTE   Bn0
 BYTE   W06
//  #02 //054   ----------------------------------------
 BYTE   Cn1
 BYTE   W06
 BYTE   Cn1
 BYTE   W06
 BYTE   Cn1
 BYTE   W06
 BYTE   Cn1
 BYTE   W06
 BYTE   Cn1
 BYTE   W06
 BYTE   Gn0
 BYTE   W06
 BYTE   Cn1
 BYTE   W06
 BYTE   Gn0
 BYTE   W06
 BYTE   Dn1
 BYTE   W06
 BYTE   Dn1
 BYTE   W06
 BYTE   Dn1
 BYTE   W06
 BYTE   Dn1
 BYTE   W06
 BYTE   Dn1
 BYTE   W06
 BYTE   An0
 BYTE   W06
 BYTE   Dn1
 BYTE   W06
 BYTE   An0
 BYTE   W06
//  #02 //055   ----------------------------------------
 BYTE   Ds1
 BYTE   W06
 BYTE   Ds1
 BYTE   W06
 BYTE   Ds1
 BYTE   W06
 BYTE   Ds1
 BYTE   W06
 BYTE   Ds1
 BYTE   W06
 BYTE   As0
 BYTE   W06
 BYTE   Ds1
 BYTE   W06
 BYTE   As0
 BYTE   W06
 BYTE   Fn0
 BYTE   W06
 BYTE   Fn0
 BYTE   W06
 BYTE   Fn1
 BYTE   W06
 BYTE   Fn0
 BYTE   W06
 BYTE   Ds1
 BYTE   W06
 BYTE   Fn0
 BYTE   W06
 BYTE   Fn1
 BYTE   W06
 BYTE   Fn0
 BYTE   W06
//  #02 //056   ----------------------------------------
 BYTE   N18  Gn0
 BYTE   W18
 BYTE   N12
 BYTE   W12
 BYTE   N06  Dn0
 BYTE   W06
 BYTE   Gn0
 BYTE   W06
 BYTE   Dn0
 BYTE   W06
 BYTE   N18  Fn0
 BYTE   W18
 BYTE   N12
 BYTE   W12
 BYTE   N06  Fn1
 BYTE   W06
 BYTE   Fn0
 BYTE   W06
 BYTE   Fn1
 BYTE   W06
//  #02 //057   ----------------------------------------
 BYTE   Gs0
 BYTE   W06
 BYTE   Gs1
 BYTE   W06
 BYTE   Gs0
 BYTE   W06
 BYTE   Gs1
 BYTE   W06
 BYTE   Gs0
 BYTE   W06
 BYTE   Gs1
 BYTE   W06
 BYTE   Gs0
 BYTE   W06
 BYTE   Gs1
 BYTE   W06
 BYTE   As0
 BYTE   W06
 BYTE   As1
 BYTE   W06
 BYTE   As0
 BYTE   W06
 BYTE   As1
 BYTE   W06
 BYTE   As0
 BYTE   W06
 BYTE   As1
 BYTE   W06
 BYTE   As0
 BYTE   W06
 BYTE   As1
 BYTE   W06
//  #02 //058   ----------------------------------------
 BYTE   N18  Cn1
 BYTE   W18
 BYTE   N12
 BYTE   W12
 BYTE   N06  Gn0
 BYTE   W06
 BYTE   Cn1
 BYTE   W06
 BYTE   Gn0
 BYTE   W06
 BYTE   N18  As0
 BYTE   W18
 BYTE   Fn0
 BYTE   W18
 BYTE   N12  Fn1
 BYTE   W12
//  #02 //059   ----------------------------------------
 BYTE   N06  Gs0
 BYTE   W06
 BYTE   Gs0
 BYTE   W06
 BYTE   Gs1
 BYTE   W06
 BYTE   Gs0
 BYTE   W06
 BYTE   Ds1
 BYTE   W06
 BYTE   Gs1
 BYTE   W06
 BYTE   Gs0
 BYTE   W06
 BYTE   Gs1
 BYTE   W06
 BYTE   As0
 BYTE   W06
 BYTE   As0
 BYTE   W06
 BYTE   Fn0
 BYTE   W06
 BYTE   As0
 BYTE   W06
 BYTE   Fn1
 BYTE   W06
 BYTE   As1
 BYTE   W06
 BYTE   Fn1
 BYTE   W06
 BYTE   As0
 BYTE   W06
//  #02 //060   ----------------------------------------
 BYTE   N12  Cn1
 BYTE   W12
 BYTE   Cn1
 BYTE   W12
 BYTE   Cn1
 BYTE   W12
 BYTE   Cn1
 BYTE   W12
 BYTE   Cn1
 BYTE   W12
 BYTE   Cn1
 BYTE   W12
 BYTE   Cn1
 BYTE   W12
 BYTE   Cn1
 BYTE   W12
//  #02 //061   ----------------------------------------
 BYTE   As0
 BYTE   W12
 BYTE   As0
 BYTE   W12
 BYTE   As0
 BYTE   W12
 BYTE   As0
 BYTE   W12
 BYTE   As0
 BYTE   W12
 BYTE   As0
 BYTE   W12
 BYTE   As0
 BYTE   W12
 BYTE   As0
 BYTE   W12
//  #02 //062   ----------------------------------------
 BYTE   An0
 BYTE   W12
 BYTE   An0
 BYTE   W12
 BYTE   An0
 BYTE   W12
 BYTE   An0
 BYTE   W12
 BYTE   An0
 BYTE   W12
 BYTE   An0
 BYTE   W12
 BYTE   An0
 BYTE   W12
 BYTE   An0
 BYTE   W12
//  #02 //063   ----------------------------------------
 BYTE   Gs0
 BYTE   W12
 BYTE   Gs0
 BYTE   W12
 BYTE   Gs0
 BYTE   W12
 BYTE   Gs0
 BYTE   W12
 BYTE   As0
 BYTE   W12
 BYTE   N06  As1
 BYTE   W06
 BYTE   As0
 BYTE   W06
 BYTE   Fn1
 BYTE   W06
 BYTE   Dn1
 BYTE   W06
 BYTE   As0
 BYTE   W06
 BYTE   Fn0
 BYTE   W06
//  #02 //064   ----------------------------------------
 BYTE   N18  Cn1
 BYTE   W18
 BYTE   N12
 BYTE   W12
 BYTE   N06  Gn0
 BYTE   W06
 BYTE   Cn1
 BYTE   W06
 BYTE   Gn0
 BYTE   W06
 BYTE   N12  Cn1
 BYTE   W12
 BYTE   Cn1
 BYTE   W12
 BYTE   N06
 BYTE   W06
 BYTE   Gn0
 BYTE   W06
 BYTE   Cn1
 BYTE   W06
 BYTE   Gn0
 BYTE   W06
//  #02 //065   ----------------------------------------
 BYTE   N12  As0
 BYTE   W12
 BYTE   As0
 BYTE   W12
 BYTE   N06
 BYTE   W06
 BYTE   Fn1
 BYTE   W06
 BYTE   As1
 BYTE   W06
 BYTE   As0
 BYTE   W06
 BYTE   N12
 BYTE   W12
 BYTE   As0
 BYTE   W12
 BYTE   N06
 BYTE   W06
 BYTE   As1
 BYTE   W06
 BYTE   As0
 BYTE   W06
 BYTE   As1
 BYTE   W06
//  #02 //066   ----------------------------------------
 BYTE   N12  An0
 BYTE   W12
 BYTE   N06
 BYTE   W06
 BYTE   N12  An1
 BYTE   W12
 BYTE   N06  An0
 BYTE   W06
 BYTE   En1
 BYTE   W06
 BYTE   An1
 BYTE   W06
 BYTE   N12  An0
 BYTE   W12
 BYTE   An0
 BYTE   W12
 BYTE   N06
 BYTE   W06
 BYTE   An1
 BYTE   W06
 BYTE   An0
 BYTE   W06
 BYTE   An1
 BYTE   W06
//  #02 //067   ----------------------------------------
 BYTE   N12  Gs0
 BYTE   W12
 BYTE   N06
 BYTE   W06
 BYTE   N12  Gs1
 BYTE   W12
 BYTE   N06  Gs0
 BYTE   W06
 BYTE   Ds1
 BYTE   W06
 BYTE   Gs1
 BYTE   W06
 BYTE   N12  As0
 BYTE   W12
 BYTE   N06
 BYTE   W06
 BYTE   N12  As1
 BYTE   W12
 BYTE   N06  As0
 BYTE   W06
 BYTE   Fn1
 BYTE   W06
 BYTE   As1
 BYTE   W06
//  #02 //068   ----------------------------------------
 BYTE   N12  Cs1
 BYTE   W18
 BYTE   Gs1
 BYTE   W18
 BYTE   N09  Cs2
 BYTE   W12
 BYTE   N18  Cs1
 BYTE   W18
 BYTE   Gs1
 BYTE   W18
 BYTE   N09  Cs1
 BYTE   W12
//  #02 //069   ----------------------------------------
 BYTE   N12  Cn1
 BYTE   W18
 BYTE   Gn1
 BYTE   W18
 BYTE   N09  Cn2
 BYTE   W12
 BYTE   N18  Gn1
 BYTE   W18
 BYTE   Cn2
 BYTE   W18
 BYTE   N09  Cn1
 BYTE   W12
//  #02 //070   ----------------------------------------
 BYTE   N12  Cs1
 BYTE   W18
 BYTE   Gs1
 BYTE   W18
 BYTE   N09  Cs2
 BYTE   W12
 BYTE   N18  Cs1
 BYTE   W18
 BYTE   Gs1
 BYTE   W18
 BYTE   N09  Cs1
 BYTE   W12
//  #02 //071   ----------------------------------------
 BYTE   N12  Cn1
 BYTE   W18
 BYTE   Gn1
 BYTE   W18
 BYTE   N09  Cn2
 BYTE   W12
 BYTE   N18  Gn1
 BYTE   W18
 BYTE   Cn2
 BYTE   W18
 BYTE   N09  Cn1
 BYTE   W12
//  #02 //072   ----------------------------------------
 BYTE   N18  Cs1
 BYTE   W18
 BYTE   N12
 BYTE   W12
 BYTE   N06  Gs0
 BYTE   W06
 BYTE   Cs1
 BYTE   W06
 BYTE   Gs0
 BYTE   W06
 BYTE   N18  Cs1
 BYTE   W18
 BYTE   N12
 BYTE   W12
 BYTE   N06  Gs0
 BYTE   W06
 BYTE   Cs1
 BYTE   W06
 BYTE   Gs0
 BYTE   W06
//  #02 //073   ----------------------------------------
 BYTE   N18  Cn1
 BYTE   W18
 BYTE   N12
 BYTE   W12
 BYTE   N06  Gn0
 BYTE   W06
 BYTE   Cn1
 BYTE   W06
 BYTE   Gn0
 BYTE   W06
 BYTE   N18  Cn1
 BYTE   W18
 BYTE   N12
 BYTE   W12
 BYTE   N06  Cn2
 BYTE   W06
 BYTE   Gn1
 BYTE   W06
 BYTE   Cn1
 BYTE   W06
//  #02 //074   ----------------------------------------
 BYTE   N18  Cs1
 BYTE   W18
 BYTE   N12
 BYTE   W12
 BYTE   N06  Gs0
 BYTE   W06
 BYTE   Cs1
 BYTE   W06
 BYTE   Gs0
 BYTE   W06
 BYTE   N18  Cs1
 BYTE   W18
 BYTE   N12
 BYTE   W12
 BYTE   N06  Gs0
 BYTE   W06
 BYTE   Cs1
 BYTE   W06
 BYTE   Gs0
 BYTE   W06
//  #02 //075   ----------------------------------------
 BYTE   N18  Cn1
 BYTE   W18
 BYTE   N12
 BYTE   W12
 BYTE   N06  Gn0
 BYTE   W06
 BYTE   Cn1
 BYTE   W06
 BYTE   Gn0
 BYTE   W06
 BYTE   N18  Cn1
 BYTE   W18
 BYTE   N12
 BYTE   W12
 BYTE   N06  Cn2
 BYTE   W06
 BYTE   Gn1
 BYTE   W06
 BYTE   Cn1
 BYTE   W06
//  #02 //076   ----------------------------------------
 BYTE   Gs0
 BYTE   W06
 BYTE   Gs0
 BYTE   W06
 BYTE   Gs0
 BYTE   W06
 BYTE   N12
 BYTE   W12
 BYTE   N06
 BYTE   W06
 BYTE   Gs1
 BYTE   W06
 BYTE   Gs0
 BYTE   W06
 BYTE   As0
 BYTE   W06
 BYTE   As0
 BYTE   W06
 BYTE   As0
 BYTE   W06
 BYTE   N12
 BYTE   W12
 BYTE   N06
 BYTE   W06
 BYTE   As1
 BYTE   W06
 BYTE   As0
 BYTE   W06
//  #02 //077   ----------------------------------------
 BYTE   Cn1
 BYTE   W06
 BYTE   Cn1
 BYTE   W06
 BYTE   Cn1
 BYTE   W06
 BYTE   N12
 BYTE   W12
 BYTE   N06
 BYTE   W06
 BYTE   Gn0
 BYTE   W06
 BYTE   Cn1
 BYTE   W06
 BYTE   Cn1
 BYTE   W06
 BYTE   Cn1
 BYTE   W06
 BYTE   Cn1
 BYTE   W06
 BYTE   N12
 BYTE   W12
 BYTE   N06  Gn1
 BYTE   W06
 BYTE   Cn2
 BYTE   W06
 BYTE   Cn1
 BYTE   W06
//  #02 //078   ----------------------------------------
 BYTE   Gs0
 BYTE   W06
 BYTE   Gs0
 BYTE   W06
 BYTE   Gs0
 BYTE   W06
 BYTE   N12
 BYTE   W12
 BYTE   N06
 BYTE   W06
 BYTE   Gs1
 BYTE   W06
 BYTE   Gs0
 BYTE   W06
 BYTE   As0
 BYTE   W06
 BYTE   As0
 BYTE   W06
 BYTE   As0
 BYTE   W06
 BYTE   N12
 BYTE   W12
 BYTE   N06
 BYTE   W06
 BYTE   As1
 BYTE   W06
 BYTE   As0
 BYTE   W06
//  #02 //079   ----------------------------------------
 BYTE   Cn1
 BYTE   W06
 BYTE   Cn1
 BYTE   W06
 BYTE   Cn1
 BYTE   W06
 BYTE   N12
 BYTE   W12
 BYTE   N06
 BYTE   W06
 BYTE   Gn0
 BYTE   W06
 BYTE   Cn1
 BYTE   W06
 BYTE   Cn1
 BYTE   W06
 BYTE   Cn1
 BYTE   W06
 BYTE   Cn1
 BYTE   W06
 BYTE   N12
 BYTE   W12
 BYTE   N06  Gn1
 BYTE   W06
 BYTE   Cn2
 BYTE   W06
 BYTE   Cn1
 BYTE   W06
//  #02 //080   ----------------------------------------
 BYTE   Gs0
 BYTE   W06
 BYTE   Gs0
 BYTE   W06
 BYTE   Gs0
 BYTE   W06
 BYTE   N12
 BYTE   W12
 BYTE   N06
 BYTE   W06
 BYTE   Gs1
 BYTE   W06
 BYTE   Gs0
 BYTE   W06
 BYTE   As0
 BYTE   W06
 BYTE   As0
 BYTE   W06
 BYTE   As0
 BYTE   W06
 BYTE   N12
 BYTE   W12
 BYTE   N06
 BYTE   W06
 BYTE   As1
 BYTE   W06
 BYTE   As0
 BYTE   W06
//  #02 //081   ----------------------------------------
 BYTE   Cn1
 BYTE   W06
 BYTE   Cn1
 BYTE   W06
 BYTE   Cn1
 BYTE   W06
 BYTE   N12
 BYTE   W12
 BYTE   N06
 BYTE   W06
 BYTE   Gn0
 BYTE   W06
 BYTE   Cn1
 BYTE   W06
 BYTE   Cn1
 BYTE   W06
 BYTE   Cn1
 BYTE   W06
 BYTE   Cn1
 BYTE   W06
 BYTE   N12
 BYTE   W12
 BYTE   N06  Gn1
 BYTE   W06
 BYTE   Cn2
 BYTE   W06
 BYTE   Cn1
 BYTE   W06
//  #02 //082   ----------------------------------------
 BYTE   Gs0
 BYTE   W06
 BYTE   Gs0
 BYTE   W06
 BYTE   Gs0
 BYTE   W06
 BYTE   N12
 BYTE   W12
 BYTE   N06
 BYTE   W06
 BYTE   Gs1
 BYTE   W06
 BYTE   Gs0
 BYTE   W06
 BYTE   As0
 BYTE   W06
 BYTE   As0
 BYTE   W06
 BYTE   As0
 BYTE   W06
 BYTE   N12
 BYTE   W12
 BYTE   N06
 BYTE   W06
 BYTE   As1
 BYTE   W06
 BYTE   As0
 BYTE   W06
//  #02 //083   ----------------------------------------
 BYTE   Cn1
 BYTE   W06
 BYTE   Cn1
 BYTE   W06
 BYTE   Cn1
 BYTE   W06
 BYTE   N12
 BYTE   W12
 BYTE   N06
 BYTE   W06
 BYTE   Gn0
 BYTE   W06
 BYTE   Cn1
 BYTE   W06
 BYTE   Cn1
 BYTE   W06
 BYTE   Cn1
 BYTE   W06
 BYTE   Cn1
 BYTE   W06
 BYTE   N12
 BYTE   W12
 BYTE   N06  Gn1
 BYTE   W06
 BYTE   Cn2
 BYTE   W06
 BYTE   Cn1
 BYTE   W06
//  #02 //084   ----------------------------------------
 BYTE   VOL   67*ToadstoolTourSkinsMatch_mvl/mxv
 BYTE   PAN   c_v-1
 BYTE   N12  Cn1  v102
 BYTE   W03
 BYTE   VOL   65*ToadstoolTourSkinsMatch_mvl/mxv
 BYTE   W03
 BYTE   VOL   63*ToadstoolTourSkinsMatch_mvl/mxv
 BYTE   W03
 BYTE   VOL   62*ToadstoolTourSkinsMatch_mvl/mxv
 BYTE   W01
 BYTE   N12  Cn1  v102
 BYTE   W01
 BYTE   VOL   60*ToadstoolTourSkinsMatch_mvl/mxv
 BYTE   W03
 BYTE   VOL   59*ToadstoolTourSkinsMatch_mvl/mxv
 BYTE   W03
 BYTE   VOL   57*ToadstoolTourSkinsMatch_mvl/mxv
 BYTE   W03
 BYTE   VOL   56*ToadstoolTourSkinsMatch_mvl/mxv
 BYTE   N12  Cn1  v102
 BYTE   W03
 BYTE   VOL   54*ToadstoolTourSkinsMatch_mvl/mxv
 BYTE   W03
 BYTE   VOL   53*ToadstoolTourSkinsMatch_mvl/mxv
 BYTE   W03
 BYTE   VOL   52*ToadstoolTourSkinsMatch_mvl/mxv
 BYTE   W02
 BYTE   N12  Cn1  v102
 BYTE   W01
 BYTE   VOL   50*ToadstoolTourSkinsMatch_mvl/mxv
 BYTE   W03
 BYTE   VOL   49*ToadstoolTourSkinsMatch_mvl/mxv
 BYTE   W03
 BYTE   VOL   47*ToadstoolTourSkinsMatch_mvl/mxv
 BYTE   W03
 BYTE   VOL   46*ToadstoolTourSkinsMatch_mvl/mxv
 BYTE   N12  Cn1  v102
 BYTE   W02
 BYTE   VOL   44*ToadstoolTourSkinsMatch_mvl/mxv
 BYTE   W03
 BYTE   VOL   43*ToadstoolTourSkinsMatch_mvl/mxv
 BYTE   W03
 BYTE   VOL   42*ToadstoolTourSkinsMatch_mvl/mxv
 BYTE   W02
 BYTE   N12  Cn1  v102
 BYTE   W01
 BYTE   VOL   40*ToadstoolTourSkinsMatch_mvl/mxv
 BYTE   W03
 BYTE   VOL   39*ToadstoolTourSkinsMatch_mvl/mxv
 BYTE   W03
 BYTE   VOL   38*ToadstoolTourSkinsMatch_mvl/mxv
 BYTE   W03
 BYTE   VOL   36*ToadstoolTourSkinsMatch_mvl/mxv
 BYTE   N12  Cn1  v102
 BYTE   W02
 BYTE   VOL   35*ToadstoolTourSkinsMatch_mvl/mxv
 BYTE   W03
 BYTE   VOL   34*ToadstoolTourSkinsMatch_mvl/mxv
 BYTE   W03
 BYTE   VOL   32*ToadstoolTourSkinsMatch_mvl/mxv
 BYTE   W02
 BYTE   N12  Cn1  v102
 BYTE   VOL   31*ToadstoolTourSkinsMatch_mvl/mxv
 BYTE   W03
 BYTE   VOL   30*ToadstoolTourSkinsMatch_mvl/mxv
 BYTE   W03
 BYTE   VOL   28*ToadstoolTourSkinsMatch_mvl/mxv
 BYTE   W03
 BYTE   VOL   27*ToadstoolTourSkinsMatch_mvl/mxv
 BYTE   W01
 BYTE   N12  As0  v102
 BYTE   W02
 BYTE   VOL   26*ToadstoolTourSkinsMatch_mvl/mxv
 BYTE   W03
 BYTE   VOL   25*ToadstoolTourSkinsMatch_mvl/mxv
 BYTE   W03
 BYTE   VOL   23*ToadstoolTourSkinsMatch_mvl/mxv
 BYTE   W02
 BYTE   N12  As0  v102
 BYTE   VOL   22*ToadstoolTourSkinsMatch_mvl/mxv
 BYTE   W03
 BYTE   VOL   21*ToadstoolTourSkinsMatch_mvl/mxv
 BYTE   W03
//  #02 //085   ----------------------------------------
 BYTE   VOL   20*ToadstoolTourSkinsMatch_mvl/mxv
 BYTE   W03
 BYTE   VOL   18*ToadstoolTourSkinsMatch_mvl/mxv
 BYTE   W01
 BYTE   N12  As0  v102
 BYTE   W02
 BYTE   VOL   17*ToadstoolTourSkinsMatch_mvl/mxv
 BYTE   W03
 BYTE   VOL   16*ToadstoolTourSkinsMatch_mvl/mxv
 BYTE   W03
 BYTE   VOL   15*ToadstoolTourSkinsMatch_mvl/mxv
 BYTE   W03
 BYTE   N12  As0  v102
 BYTE   VOL   15*ToadstoolTourSkinsMatch_mvl/mxv
 BYTE   W03
 BYTE   VOL   15*ToadstoolTourSkinsMatch_mvl/mxv
 BYTE   W03
 BYTE   VOL   15*ToadstoolTourSkinsMatch_mvl/mxv
 BYTE   W03
 BYTE   VOL   15*ToadstoolTourSkinsMatch_mvl/mxv
 BYTE   W01
 BYTE   N12  As0  v102
 BYTE   W01
 BYTE   VOL   15*ToadstoolTourSkinsMatch_mvl/mxv
 BYTE   W03
 BYTE   VOL   15*ToadstoolTourSkinsMatch_mvl/mxv
 BYTE   W03
 BYTE   VOL   15*ToadstoolTourSkinsMatch_mvl/mxv
 BYTE   W03
 BYTE   VOL   15*ToadstoolTourSkinsMatch_mvl/mxv
 BYTE   N12  As0  v102
 BYTE   W03
 BYTE   VOL   15*ToadstoolTourSkinsMatch_mvl/mxv
 BYTE   W03
 BYTE   VOL   15*ToadstoolTourSkinsMatch_mvl/mxv
 BYTE   W03
 BYTE   VOL   15*ToadstoolTourSkinsMatch_mvl/mxv
 BYTE   W01
 BYTE   N12  As0  v102
 BYTE   W01
 BYTE   VOL   15*ToadstoolTourSkinsMatch_mvl/mxv
 BYTE   W03
 BYTE   VOL   15*ToadstoolTourSkinsMatch_mvl/mxv
 BYTE   W03
 BYTE   VOL   15*ToadstoolTourSkinsMatch_mvl/mxv
 BYTE   W03
 BYTE   VOL   15*ToadstoolTourSkinsMatch_mvl/mxv
 BYTE   N12  As0  v102
 BYTE   W03
 BYTE   VOL   15*ToadstoolTourSkinsMatch_mvl/mxv
 BYTE   W03
 BYTE   VOL   15*ToadstoolTourSkinsMatch_mvl/mxv
 BYTE   W03
 BYTE   VOL   15*ToadstoolTourSkinsMatch_mvl/mxv
 BYTE   W02
 BYTE   N12  An0  v102
 BYTE   W01
 BYTE   VOL   15*ToadstoolTourSkinsMatch_mvl/mxv
 BYTE   W03
 BYTE   VOL   15*ToadstoolTourSkinsMatch_mvl/mxv
 BYTE   W03
 BYTE   VOL   15*ToadstoolTourSkinsMatch_mvl/mxv
 BYTE   W03
 BYTE   VOL   15*ToadstoolTourSkinsMatch_mvl/mxv
 BYTE   N12  An0  v102
 BYTE   W02
 BYTE   VOL   15*ToadstoolTourSkinsMatch_mvl/mxv
 BYTE   W03
 BYTE   VOL   15*ToadstoolTourSkinsMatch_mvl/mxv
 BYTE   W03
 BYTE   VOL   15*ToadstoolTourSkinsMatch_mvl/mxv
 BYTE   W02
 BYTE   N12  An0  v102
 BYTE   W01
 BYTE   VOL   15*ToadstoolTourSkinsMatch_mvl/mxv
 BYTE   W03
 BYTE   VOL   15*ToadstoolTourSkinsMatch_mvl/mxv
 BYTE   W03
 BYTE   VOL   15*ToadstoolTourSkinsMatch_mvl/mxv
 BYTE   W03
//  #02 //086   ----------------------------------------
 BYTE   VOL   15*ToadstoolTourSkinsMatch_mvl/mxv
 BYTE   N12  An0  v102
 BYTE   W02
 BYTE   VOL   15*ToadstoolTourSkinsMatch_mvl/mxv
 BYTE   W03
 BYTE   VOL   15*ToadstoolTourSkinsMatch_mvl/mxv
 BYTE   W03
 BYTE   VOL   15*ToadstoolTourSkinsMatch_mvl/mxv
 BYTE   W02
 BYTE   N12  An0  v102
 BYTE   VOL   15*ToadstoolTourSkinsMatch_mvl/mxv
 BYTE   W03
 BYTE   VOL   15*ToadstoolTourSkinsMatch_mvl/mxv
 BYTE   W03
 BYTE   VOL   15*ToadstoolTourSkinsMatch_mvl/mxv
 BYTE   W03
 BYTE   VOL   15*ToadstoolTourSkinsMatch_mvl/mxv
 BYTE   W01
 BYTE   N12  An0  v102
 BYTE   W02
 BYTE   VOL   15*ToadstoolTourSkinsMatch_mvl/mxv
 BYTE   W03
 BYTE   VOL   15*ToadstoolTourSkinsMatch_mvl/mxv
 BYTE   W03
 BYTE   VOL   15*ToadstoolTourSkinsMatch_mvl/mxv
 BYTE   W02
 BYTE   N12  An0  v102
 BYTE   VOL   15*ToadstoolTourSkinsMatch_mvl/mxv
 BYTE   W03
 BYTE   VOL   15*ToadstoolTourSkinsMatch_mvl/mxv
 BYTE   W03
 BYTE   VOL   15*ToadstoolTourSkinsMatch_mvl/mxv
 BYTE   W03
 BYTE   VOL   15*ToadstoolTourSkinsMatch_mvl/mxv
 BYTE   W01
 BYTE   N12  An0  v102
 BYTE   W02
 BYTE   VOL   15*ToadstoolTourSkinsMatch_mvl/mxv
 BYTE   W03
 BYTE   VOL   15*ToadstoolTourSkinsMatch_mvl/mxv
 BYTE   W03
 BYTE   VOL   15*ToadstoolTourSkinsMatch_mvl/mxv
 BYTE   W03
 BYTE   N12  Gs0  v102
 BYTE   VOL   15*ToadstoolTourSkinsMatch_mvl/mxv
 BYTE   W03
 BYTE   VOL   15*ToadstoolTourSkinsMatch_mvl/mxv
 BYTE   W03
 BYTE   VOL   15*ToadstoolTourSkinsMatch_mvl/mxv
 BYTE   W03
 BYTE   VOL   15*ToadstoolTourSkinsMatch_mvl/mxv
 BYTE   W01
 BYTE   N12  Gs0  v102
 BYTE   W01
 BYTE   VOL   15*ToadstoolTourSkinsMatch_mvl/mxv
 BYTE   W03
 BYTE   VOL   15*ToadstoolTourSkinsMatch_mvl/mxv
 BYTE   W03
 BYTE   VOL   15*ToadstoolTourSkinsMatch_mvl/mxv
 BYTE   W03
 BYTE   VOL   15*ToadstoolTourSkinsMatch_mvl/mxv
 BYTE   N12  Gs0  v102
 BYTE   W03
 BYTE   VOL   15*ToadstoolTourSkinsMatch_mvl/mxv
 BYTE   W03
 BYTE   VOL   15*ToadstoolTourSkinsMatch_mvl/mxv
 BYTE   W03
 BYTE   VOL   15*ToadstoolTourSkinsMatch_mvl/mxv
 BYTE   W01
 BYTE   N12  Gs0  v102
 BYTE   W01
 BYTE   VOL   15*ToadstoolTourSkinsMatch_mvl/mxv
 BYTE   W03
 BYTE   VOL   15*ToadstoolTourSkinsMatch_mvl/mxv
 BYTE   W03
 BYTE   VOL   15*ToadstoolTourSkinsMatch_mvl/mxv
 BYTE   W03
 BYTE   VOL   15*ToadstoolTourSkinsMatch_mvl/mxv
 BYTE   N12  As0  v102
 BYTE   W03
 BYTE   VOL   15*ToadstoolTourSkinsMatch_mvl/mxv
 BYTE   W03
//  #02 //087   ----------------------------------------
 BYTE   VOL   15*ToadstoolTourSkinsMatch_mvl/mxv
 BYTE   W03
 BYTE   VOL   15*ToadstoolTourSkinsMatch_mvl/mxv
 BYTE   W02
 BYTE   N06  As1  v102
 BYTE   W01
 BYTE   VOL   15*ToadstoolTourSkinsMatch_mvl/mxv
 BYTE   W03
 BYTE   VOL   15*ToadstoolTourSkinsMatch_mvl/mxv
 BYTE   W01
 BYTE   N06  As0  v102
 BYTE   W02
 BYTE   VOL   15*ToadstoolTourSkinsMatch_mvl/mxv
 BYTE   W03
 BYTE   VOL   15*ToadstoolTourSkinsMatch_mvl/mxv
 BYTE   N06  Fn1  v102
 BYTE   W02
 BYTE   VOL   15*ToadstoolTourSkinsMatch_mvl/mxv
 BYTE   W03
 BYTE   N06  Dn1  v102
 BYTE   VOL   15*ToadstoolTourSkinsMatch_mvl/mxv
 BYTE   W03
 BYTE   VOL   15*ToadstoolTourSkinsMatch_mvl/mxv
 BYTE   W02
 BYTE   N06  As0  v102
 BYTE   W01
 BYTE   VOL   15*ToadstoolTourSkinsMatch_mvl/mxv
 BYTE   W03
 BYTE   VOL   15*ToadstoolTourSkinsMatch_mvl/mxv
 BYTE   W01
 BYTE   N06  Fn0  v102
 BYTE   W01
 BYTE   VOL   15*ToadstoolTourSkinsMatch_mvl/mxv
 BYTE   W04
 BYTE   FINE

//**************** Track 3 (Midi-Chn.2) ****************//

ToadstoolTourSkinsMatch_003:
//  #03 //000   ----------------------------------------
Label_014D2650:
 BYTE   TEMPO   118*ToadstoolTourSkinsMatch_tbs/2
 BYTE   KEYSH   ToadstoolTourSkinsMatch_key+0
 BYTE   VOICE   63
 BYTE   VOL   42*ToadstoolTourSkinsMatch_mvl/mxv
 BYTE   PAN   c_v+23
 BYTE   W06
 BYTE   N18  En3  v102
 BYTE   W18
 BYTE   N06  Fs3
 BYTE   W12
 BYTE   Gn3
 BYTE   W12
 BYTE   An3
 BYTE   W06
 BYTE   N24  Bn3
 BYTE   W24
 BYTE   Dn3
 BYTE   W24
//  #03 //001   ----------------------------------------
Label_014D266B:
 BYTE   N24  Cn3  v102
 BYTE   W24
 BYTE   N06  Bn2
 BYTE   W06
 BYTE   Cn3
 BYTE   W06
 BYTE   Bn2
 BYTE   W06
 BYTE   An2
 BYTE   W06
 BYTE   N48  Bn2
 BYTE   W48
 BYTE   PEND 
//  #03 //002   ----------------------------------------
Label_014D267C:
 BYTE   N18  Cn3  v102
 BYTE   W18
 BYTE   Dn3
 BYTE   W18
 BYTE   N12  En3
 BYTE   W12
 BYTE   N24  Dn3
 BYTE   W24
 BYTE   Fs3
 BYTE   W24
 BYTE   PEND 
//  #03 //003   ----------------------------------------
Label_014D268B:
 BYTE   N18  Gn3  v102
 BYTE   W18
 BYTE   Ds3
 BYTE   W18
 BYTE   N12  Gn3
 BYTE   W12
 BYTE   N48  Fn3
 BYTE   W48
 BYTE   PEND 
//  #03 //004   ----------------------------------------
Label_014D2698:
 BYTE   N18  Gn3  v102
 BYTE   W18
 BYTE   N30  Dn3
 BYTE   W30
 BYTE   N24
 BYTE   W24
 BYTE   Cn3
 BYTE   W24
 BYTE   PEND 
//  #03 //005   ----------------------------------------
Label_014D26A4:
 BYTE   N30  Cn3  v102
 BYTE   W30
 BYTE   N06  Dn3
 BYTE   W06
 BYTE   Ds3
 BYTE   W06
 BYTE   Gn3
 BYTE   W06
 BYTE   N48  Fn3
 BYTE   W48
 BYTE   PEND 
//  #03 //006   ----------------------------------------
Label_014D26B3:
 BYTE   N30  Gn3  v102
 BYTE   W30
 BYTE   N06  Fn3
 BYTE   W06
 BYTE   En3
 BYTE   W06
 BYTE   Fn3
 BYTE   W06
 BYTE   N18  Dn3
 BYTE   W18
 BYTE   En3
 BYTE   W18
 BYTE   N12  Fn3
 BYTE   W12
 BYTE   PEND 
//  #03 //007   ----------------------------------------
 BYTE   N18  Ds3  v102
 BYTE   W18
 BYTE   Cn3
 BYTE   W18
 BYTE   N12  Gn3
 BYTE   W12
 BYTE   N24  Fn3
 BYTE   W24
 BYTE   As3
 BYTE   W24
//  #03 //008   ----------------------------------------
 BYTE   N18  En3
 BYTE   W18
 BYTE   N06  Fs3
 BYTE   W12
 BYTE   Gn3
 BYTE   W12
 BYTE   An3
 BYTE   W06
 BYTE   N24  Bn3
 BYTE   W24
 BYTE   Dn3
 BYTE   W24
//  #03 //009   ----------------------------------------
 BYTE   PATT
  POIN2 Label_014D266B
//  #03 //010   ----------------------------------------
 BYTE   PATT
  POIN2 Label_014D267C
//  #03 //011   ----------------------------------------
 BYTE   PATT
  POIN2 Label_014D268B
//  #03 //012   ----------------------------------------
 BYTE   PATT
  POIN2 Label_014D2698
//  #03 //013   ----------------------------------------
 BYTE   PATT
  POIN2 Label_014D26A4
//  #03 //014   ----------------------------------------
 BYTE   PATT
  POIN2 Label_014D26B3
//  #03 //015   ----------------------------------------
 BYTE   N18  Ds3  v102
 BYTE   W18
 BYTE   Cn3
 BYTE   W18
 BYTE   N12  Gn3
 BYTE   W12
 BYTE   N24  Fn3
 BYTE   W24
 BYTE   As3
 BYTE   W18
 BYTE   GoTo
  POIN2 Label_014D2650
//  #03 //016   ----------------------------------------
 BYTE   W06
Label_014D2716:
 BYTE   N18  Gn2  v102
 BYTE   N18  Cn3
 BYTE   N18  En3
 BYTE   W18
 BYTE   N06  Gn2
 BYTE   N06  Cn3
 BYTE   N06  Dn3
 BYTE   W12
 BYTE   Gn2
 BYTE   N06  Cn3
 BYTE   N06  En3
 BYTE   W12
 BYTE   Gn2
 BYTE   N06  Cn3
 BYTE   N06  Fn3
 BYTE   W12
 BYTE   Gn2
 BYTE   N06  Cn3
 BYTE   N06  Fn3
 BYTE   W12
 BYTE   Gn2
 BYTE   N06  Cn3
 BYTE   N06  En3
 BYTE   W06
 BYTE   N12  Gn2
 BYTE   N12  Cn3
 BYTE   N12  Dn3
 BYTE   W12
 BYTE   Gn2
 BYTE   N12  Cn3
 BYTE   N12  En3
 BYTE   W12
 BYTE   PEND 
//  #03 //017   ----------------------------------------
 BYTE   PATT
  POIN2 Label_014D2716
//  #03 //018   ----------------------------------------
 BYTE   PATT
  POIN2 Label_014D2716
//  #03 //019   ----------------------------------------
Label_014D2755:
 BYTE   N18  Gs2  v102
 BYTE   N18  Cn3
 BYTE   N18  En3
 BYTE   W18
 BYTE   N06  Gs2
 BYTE   N06  Cn3
 BYTE   N06  Dn3
 BYTE   W12
 BYTE   Gs2
 BYTE   N06  Cn3
 BYTE   N06  En3
 BYTE   W12
 BYTE   Dn3
 BYTE   N06  As2
 BYTE   N06  Fn3
 BYTE   W12
 BYTE   Dn3
 BYTE   N06  As2
 BYTE   N06  Fn3
 BYTE   W12
 BYTE   Dn3
 BYTE   N06  As2
 BYTE   N06  En3
 BYTE   W06
 BYTE   N12  As2
 BYTE   N12  Dn3
 BYTE   W12
 BYTE   Dn3
 BYTE   N12  As2
 BYTE   N12  En3
 BYTE   W12
 BYTE   PEND 
//  #03 //020   ----------------------------------------
 BYTE   PATT
  POIN2 Label_014D2716
//  #03 //021   ----------------------------------------
 BYTE   PATT
  POIN2 Label_014D2716
//  #03 //022   ----------------------------------------
 BYTE   PATT
  POIN2 Label_014D2716
//  #03 //023   ----------------------------------------
 BYTE   PATT
  POIN2 Label_014D2755
//  #03 //024   ----------------------------------------
Label_014D279C:
 BYTE   N06  Ds3  v102
 BYTE   W12
 BYTE   Cn3
 BYTE   W06
 BYTE   Fn3
 BYTE   W12
 BYTE   Cn3
 BYTE   W12
 BYTE   Ds3
 BYTE   W12
 BYTE   Ds3
 BYTE   W12
 BYTE   Cn3
 BYTE   W06
 BYTE   Fn3
 BYTE   W12
 BYTE   Cn3
 BYTE   W12
 BYTE   PEND 
//  #03 //025   ----------------------------------------
Label_014D27B1:
 BYTE   N06  En3  v102
 BYTE   W12
 BYTE   Cn3
 BYTE   W06
 BYTE   Gn2
 BYTE   W12
 BYTE   Cn3
 BYTE   W12
 BYTE   En3
 BYTE   W12
 BYTE   En3
 BYTE   W12
 BYTE   Cn3
 BYTE   W06
 BYTE   Gn3
 BYTE   W06
 BYTE   Gn2
 BYTE   W06
 BYTE   Cn3
 BYTE   W06
 BYTE   Gn2
 BYTE   W06
 BYTE   PEND 
//  #03 //026   ----------------------------------------
 BYTE   PATT
  POIN2 Label_014D279C
//  #03 //027   ----------------------------------------
 BYTE   PATT
  POIN2 Label_014D27B1
//  #03 //028   ----------------------------------------
 BYTE   PATT
  POIN2 Label_014D279C
//  #03 //029   ----------------------------------------
 BYTE   PATT
  POIN2 Label_014D27B1
//  #03 //030   ----------------------------------------
 BYTE   PATT
  POIN2 Label_014D279C
//  #03 //031   ----------------------------------------
 BYTE   PATT
  POIN2 Label_014D27B1
//  #03 //032   ----------------------------------------
Label_014D27E8:
 BYTE   N18  Cn4  v102
 BYTE   W18
 BYTE   Ds4
 BYTE   W18
 BYTE   N12  Gn4
 BYTE   W12
 BYTE   N24  Fn4
 BYTE   W24
 BYTE   N06  Ds4
 BYTE   W06
 BYTE   Fn4
 BYTE   W06
 BYTE   Ds4
 BYTE   W06
 BYTE   Dn4
 BYTE   W06
 BYTE   PEND 
//  #03 //033   ----------------------------------------
Label_014D27FE:
 BYTE   N48  Cn4  v102
 BYTE   W48
 BYTE   Gn4
 BYTE   W48
 BYTE   PEND 
//  #03 //034   ----------------------------------------
Label_014D2805:
 BYTE   N06  Fn4  v102
 BYTE   W12
 BYTE   Dn4
 BYTE   W12
 BYTE   As4
 BYTE   W06
 BYTE   Fn4
 BYTE   W12
 BYTE   Dn4
 BYTE   W06
 BYTE   N18  Fn4
 BYTE   W18
 BYTE   Cn4
 BYTE   W18
 BYTE   N12  An4
 BYTE   W12
 BYTE   PEND 
//  #03 //035   ----------------------------------------
 BYTE   N48  Gn4  v102
 BYTE   W48
 BYTE   Dn4
 BYTE   W48
//  #03 //036   ----------------------------------------
 BYTE   PATT
  POIN2 Label_014D27E8
//  #03 //037   ----------------------------------------
 BYTE   PATT
  POIN2 Label_014D27FE
//  #03 //038   ----------------------------------------
 BYTE   PATT
  POIN2 Label_014D2805
//  #03 //039   ----------------------------------------
 BYTE   N48  Gn4  v102
 BYTE   W48
 BYTE   Dn4
 BYTE   W48
//  #03 //040   ----------------------------------------
 BYTE   VOL   42*ToadstoolTourSkinsMatch_mvl/mxv
 BYTE   PAN   c_v+23
 BYTE   N18  Gn2  v102
 BYTE   N18  Cn3
 BYTE   N18  En3
 BYTE   W18
 BYTE   N06  Gn2
 BYTE   N06  Cn3
 BYTE   N06  Dn3
 BYTE   W12
 BYTE   Gn2
 BYTE   N06  Cn3
 BYTE   N06  En3
 BYTE   W12
 BYTE   Gn2
 BYTE   N06  Cn3
 BYTE   N06  Fn3
 BYTE   W12
 BYTE   Gn2
 BYTE   N06  Cn3
 BYTE   N06  Fn3
 BYTE   W12
 BYTE   Gn2
 BYTE   N06  Cn3
 BYTE   N06  En3
 BYTE   W06
 BYTE   N12  Gn2
 BYTE   N12  Cn3
 BYTE   N12  Dn3
 BYTE   W12
 BYTE   Gn2
 BYTE   N12  Cn3
 BYTE   N12  En3
 BYTE   W12
//  #03 //041   ----------------------------------------
 BYTE   N18  Gn2
 BYTE   N18  Cn3
 BYTE   N18  En3
 BYTE   W18
 BYTE   N06  Gn2
 BYTE   N06  Cn3
 BYTE   N06  Dn3
 BYTE   W12
 BYTE   Gn2
 BYTE   N06  Cn3
 BYTE   N06  En3
 BYTE   W12
 BYTE   Gn2
 BYTE   N06  Cn3
 BYTE   N06  Fn3
 BYTE   W12
 BYTE   Gn2
 BYTE   N06  Cn3
 BYTE   N06  Fn3
 BYTE   W12
 BYTE   Gn2
 BYTE   N06  Cn3
 BYTE   N06  En3
 BYTE   W06
 BYTE   N12  Gn2
 BYTE   N12  Cn3
 BYTE   N12  Dn3
 BYTE   W12
 BYTE   Gn2
 BYTE   N12  Cn3
 BYTE   N12  En3
 BYTE   W12
//  #03 //042   ----------------------------------------
 BYTE   N18  Gn2
 BYTE   N18  Cn3
 BYTE   N18  En3
 BYTE   W18
 BYTE   N06  Gn2
 BYTE   N06  Cn3
 BYTE   N06  Dn3
 BYTE   W12
 BYTE   Gn2
 BYTE   N06  Cn3
 BYTE   N06  En3
 BYTE   W12
 BYTE   Gn2
 BYTE   N06  Cn3
 BYTE   N06  Fn3
 BYTE   W12
 BYTE   Gn2
 BYTE   N06  Cn3
 BYTE   N06  Fn3
 BYTE   W12
 BYTE   Gn2
 BYTE   N06  Cn3
 BYTE   N06  En3
 BYTE   W06
 BYTE   N12  Gn2
 BYTE   N12  Cn3
 BYTE   N12  Dn3
 BYTE   W12
 BYTE   Gn2
 BYTE   N12  Cn3
 BYTE   N12  En3
 BYTE   W12
//  #03 //043   ----------------------------------------
 BYTE   N18  Gs2
 BYTE   N18  Cn3
 BYTE   N18  En3
 BYTE   W18
 BYTE   N06  Gs2
 BYTE   N06  Cn3
 BYTE   N06  Dn3
 BYTE   W12
 BYTE   Gs2
 BYTE   N06  Cn3
 BYTE   N06  En3
 BYTE   W12
 BYTE   Dn3
 BYTE   N06  As2
 BYTE   N06  Fn3
 BYTE   W12
 BYTE   Dn3
 BYTE   N06  As2
 BYTE   N06  Fn3
 BYTE   W12
 BYTE   Dn3
 BYTE   N06  As2
 BYTE   N06  En3
 BYTE   W06
 BYTE   N12  As2
 BYTE   N12  Dn3
 BYTE   W12
 BYTE   Dn3
 BYTE   N12  As2
 BYTE   N12  En3
 BYTE   W12
//  #03 //044   ----------------------------------------
 BYTE   N18
 BYTE   W18
 BYTE   N06  Fs3
 BYTE   W12
 BYTE   Gn3
 BYTE   W12
 BYTE   An3
 BYTE   W06
 BYTE   N24  Bn3
 BYTE   W24
 BYTE   Dn3
 BYTE   W24
//  #03 //045   ----------------------------------------
 BYTE   Cn3
 BYTE   W24
 BYTE   N06  Bn2
 BYTE   W06
 BYTE   Cn3
 BYTE   W06
 BYTE   Bn2
 BYTE   W06
 BYTE   An2
 BYTE   W06
 BYTE   N48  Bn2
 BYTE   W48
//  #03 //046   ----------------------------------------
 BYTE   N18  Cn3
 BYTE   W18
 BYTE   Dn3
 BYTE   W18
 BYTE   N12  En3
 BYTE   W12
 BYTE   N24  Dn3
 BYTE   W24
 BYTE   Fs3
 BYTE   W24
//  #03 //047   ----------------------------------------
 BYTE   N18  Gn3
 BYTE   W18
 BYTE   Ds3
 BYTE   W18
 BYTE   N12  Gn3
 BYTE   W12
 BYTE   N48  Fn3
 BYTE   W48
//  #03 //048   ----------------------------------------
 BYTE   N18  Gn3
 BYTE   W18
 BYTE   N30  Dn3
 BYTE   W30
 BYTE   N24
 BYTE   W24
 BYTE   Cn3
 BYTE   W24
//  #03 //049   ----------------------------------------
 BYTE   N30
 BYTE   W30
 BYTE   N06  Dn3
 BYTE   W06
 BYTE   Ds3
 BYTE   W06
 BYTE   Gn3
 BYTE   W06
 BYTE   N48  Fn3
 BYTE   W48
//  #03 //050   ----------------------------------------
 BYTE   N30  Gn3
 BYTE   W30
 BYTE   N06  Fn3
 BYTE   W06
 BYTE   En3
 BYTE   W06
 BYTE   Fn3
 BYTE   W06
 BYTE   N18  Dn3
 BYTE   W18
 BYTE   En3
 BYTE   W18
 BYTE   N12  Fn3
 BYTE   W12
//  #03 //051   ----------------------------------------
 BYTE   N18  Ds3
 BYTE   W18
 BYTE   Cn3
 BYTE   W18
 BYTE   N12  Gn3
 BYTE   W12
 BYTE   N24  Fn3
 BYTE   W24
 BYTE   As3
 BYTE   W24
//  #03 //052   ----------------------------------------
 BYTE   N18  En3
 BYTE   W18
 BYTE   N06  Fs3
 BYTE   W12
 BYTE   Gn3
 BYTE   W12
 BYTE   An3
 BYTE   W06
 BYTE   N24  Bn3
 BYTE   W24
 BYTE   Dn3
 BYTE   W24
//  #03 //053   ----------------------------------------
 BYTE   Cn3
 BYTE   W24
 BYTE   N06  Bn2
 BYTE   W06
 BYTE   Cn3
 BYTE   W06
 BYTE   Bn2
 BYTE   W06
 BYTE   An2
 BYTE   W06
 BYTE   N48  Bn2
 BYTE   W48
//  #03 //054   ----------------------------------------
 BYTE   N18  Cn3
 BYTE   W18
 BYTE   Dn3
 BYTE   W18
 BYTE   N12  En3
 BYTE   W12
 BYTE   N24  Dn3
 BYTE   W24
 BYTE   Fs3
 BYTE   W24
//  #03 //055   ----------------------------------------
 BYTE   N18  Gn3
 BYTE   W18
 BYTE   Ds3
 BYTE   W18
 BYTE   N12  Gn3
 BYTE   W12
 BYTE   N48  Fn3
 BYTE   W48
//  #03 //056   ----------------------------------------
 BYTE   N18  Gn3
 BYTE   W18
 BYTE   N30  Dn3
 BYTE   W30
 BYTE   N24
 BYTE   W24
 BYTE   Cn3
 BYTE   W24
//  #03 //057   ----------------------------------------
 BYTE   N30
 BYTE   W30
 BYTE   N06  Dn3
 BYTE   W06
 BYTE   Ds3
 BYTE   W06
 BYTE   Gn3
 BYTE   W06
 BYTE   N48  Fn3
 BYTE   W48
//  #03 //058   ----------------------------------------
 BYTE   N30  Gn3
 BYTE   W30
 BYTE   N06  Fn3
 BYTE   W06
 BYTE   En3
 BYTE   W06
 BYTE   Fn3
 BYTE   W06
 BYTE   N18  Dn3
 BYTE   W18
 BYTE   En3
 BYTE   W18
 BYTE   N12  Fn3
 BYTE   W12
//  #03 //059   ----------------------------------------
 BYTE   N18  Ds3
 BYTE   W18
 BYTE   Cn3
 BYTE   W18
 BYTE   N12  Gn3
 BYTE   W12
 BYTE   N24  Fn3
 BYTE   W24
 BYTE   As3
 BYTE   W24
//  #03 //060   ----------------------------------------
 BYTE   N18  Gn2
 BYTE   N18  Cn3
 BYTE   N18  En3
 BYTE   W18
 BYTE   N06  Gn2
 BYTE   N06  Cn3
 BYTE   N06  Dn3
 BYTE   W12
 BYTE   Gn2
 BYTE   N06  Cn3
 BYTE   N06  En3
 BYTE   W12
 BYTE   Gn2
 BYTE   N06  Cn3
 BYTE   N06  Fn3
 BYTE   W12
 BYTE   Gn2
 BYTE   N06  Cn3
 BYTE   N06  Fn3
 BYTE   W12
 BYTE   Gn2
 BYTE   N06  Cn3
 BYTE   N06  En3
 BYTE   W06
 BYTE   N12  Gn2
 BYTE   N12  Cn3
 BYTE   N12  Dn3
 BYTE   W12
 BYTE   Gn2
 BYTE   N12  Cn3
 BYTE   N12  En3
 BYTE   W12
//  #03 //061   ----------------------------------------
 BYTE   N18  Gn2
 BYTE   N18  Cn3
 BYTE   N18  En3
 BYTE   W18
 BYTE   N06  Gn2
 BYTE   N06  Cn3
 BYTE   N06  Dn3
 BYTE   W12
 BYTE   Gn2
 BYTE   N06  Cn3
 BYTE   N06  En3
 BYTE   W12
 BYTE   Gn2
 BYTE   N06  Cn3
 BYTE   N06  Fn3
 BYTE   W12
 BYTE   Gn2
 BYTE   N06  Cn3
 BYTE   N06  Fn3
 BYTE   W12
 BYTE   Gn2
 BYTE   N06  Cn3
 BYTE   N06  En3
 BYTE   W06
 BYTE   N12  Gn2
 BYTE   N12  Cn3
 BYTE   N12  Dn3
 BYTE   W12
 BYTE   Gn2
 BYTE   N12  Cn3
 BYTE   N12  En3
 BYTE   W12
//  #03 //062   ----------------------------------------
 BYTE   N18  Gn2
 BYTE   N18  Cn3
 BYTE   N18  En3
 BYTE   W18
 BYTE   N06  Gn2
 BYTE   N06  Cn3
 BYTE   N06  Dn3
 BYTE   W12
 BYTE   Gn2
 BYTE   N06  Cn3
 BYTE   N06  En3
 BYTE   W12
 BYTE   Gn2
 BYTE   N06  Cn3
 BYTE   N06  Fn3
 BYTE   W12
 BYTE   Gn2
 BYTE   N06  Cn3
 BYTE   N06  Fn3
 BYTE   W12
 BYTE   Gn2
 BYTE   N06  Cn3
 BYTE   N06  En3
 BYTE   W06
 BYTE   N12  Gn2
 BYTE   N12  Cn3
 BYTE   N12  Dn3
 BYTE   W12
 BYTE   Gn2
 BYTE   N12  Cn3
 BYTE   N12  En3
 BYTE   W12
//  #03 //063   ----------------------------------------
 BYTE   N18  Gs2
 BYTE   N18  Cn3
 BYTE   N18  En3
 BYTE   W18
 BYTE   N06  Gs2
 BYTE   N06  Cn3
 BYTE   N06  Dn3
 BYTE   W12
 BYTE   Gs2
 BYTE   N06  Cn3
 BYTE   N06  En3
 BYTE   W12
 BYTE   Dn3
 BYTE   N06  As2
 BYTE   N06  Fn3
 BYTE   W12
 BYTE   Dn3
 BYTE   N06  As2
 BYTE   N06  Fn3
 BYTE   W12
 BYTE   Dn3
 BYTE   N06  As2
 BYTE   N06  En3
 BYTE   W06
 BYTE   N12  As2
 BYTE   N12  Dn3
 BYTE   W12
 BYTE   Dn3
 BYTE   N12  As2
 BYTE   N12  En3
 BYTE   W12
//  #03 //064   ----------------------------------------
 BYTE   N18  Gn2
 BYTE   N18  Cn3
 BYTE   N18  En3
 BYTE   W18
 BYTE   N06  Gn2
 BYTE   N06  Cn3
 BYTE   N06  Dn3
 BYTE   W12
 BYTE   Gn2
 BYTE   N06  Cn3
 BYTE   N06  En3
 BYTE   W12
 BYTE   Gn2
 BYTE   N06  Cn3
 BYTE   N06  Fn3
 BYTE   W12
 BYTE   Gn2
 BYTE   N06  Cn3
 BYTE   N06  Fn3
 BYTE   W12
 BYTE   Gn2
 BYTE   N06  Cn3
 BYTE   N06  En3
 BYTE   W06
 BYTE   N12  Gn2
 BYTE   N12  Cn3
 BYTE   N12  Dn3
 BYTE   W12
 BYTE   Gn2
 BYTE   N12  Cn3
 BYTE   N12  En3
 BYTE   W12
//  #03 //065   ----------------------------------------
 BYTE   N18  Gn2
 BYTE   N18  Cn3
 BYTE   N18  En3
 BYTE   W18
 BYTE   N06  Gn2
 BYTE   N06  Cn3
 BYTE   N06  Dn3
 BYTE   W12
 BYTE   Gn2
 BYTE   N06  Cn3
 BYTE   N06  En3
 BYTE   W12
 BYTE   Gn2
 BYTE   N06  Cn3
 BYTE   N06  Fn3
 BYTE   W12
 BYTE   Gn2
 BYTE   N06  Cn3
 BYTE   N06  Fn3
 BYTE   W12
 BYTE   Gn2
 BYTE   N06  Cn3
 BYTE   N06  En3
 BYTE   W06
 BYTE   N12  Gn2
 BYTE   N12  Cn3
 BYTE   N12  Dn3
 BYTE   W12
 BYTE   Gn2
 BYTE   N12  Cn3
 BYTE   N12  En3
 BYTE   W12
//  #03 //066   ----------------------------------------
 BYTE   N18  Gn2
 BYTE   N18  Cn3
 BYTE   N18  En3
 BYTE   W18
 BYTE   N06  Gn2
 BYTE   N06  Cn3
 BYTE   N06  Dn3
 BYTE   W12
 BYTE   Gn2
 BYTE   N06  Cn3
 BYTE   N06  En3
 BYTE   W12
 BYTE   Gn2
 BYTE   N06  Cn3
 BYTE   N06  Fn3
 BYTE   W12
 BYTE   Gn2
 BYTE   N06  Cn3
 BYTE   N06  Fn3
 BYTE   W12
 BYTE   Gn2
 BYTE   N06  Cn3
 BYTE   N06  En3
 BYTE   W06
 BYTE   N12  Gn2
 BYTE   N12  Cn3
 BYTE   N12  Dn3
 BYTE   W12
 BYTE   Gn2
 BYTE   N12  Cn3
 BYTE   N12  En3
 BYTE   W12
//  #03 //067   ----------------------------------------
 BYTE   N18  Gs2
 BYTE   N18  Cn3
 BYTE   N18  En3
 BYTE   W18
 BYTE   N06  Gs2
 BYTE   N06  Cn3
 BYTE   N06  Dn3
 BYTE   W12
 BYTE   Gs2
 BYTE   N06  Cn3
 BYTE   N06  En3
 BYTE   W12
 BYTE   Dn3
 BYTE   N06  As2
 BYTE   N06  Fn3
 BYTE   W12
 BYTE   Dn3
 BYTE   N06  As2
 BYTE   N06  Fn3
 BYTE   W12
 BYTE   Dn3
 BYTE   N06  As2
 BYTE   N06  En3
 BYTE   W06
 BYTE   N12  As2
 BYTE   N12  Dn3
 BYTE   W12
 BYTE   Dn3
 BYTE   N12  As2
 BYTE   N12  En3
 BYTE   W12
//  #03 //068   ----------------------------------------
 BYTE   N06  Ds3
 BYTE   W12
 BYTE   Cn3
 BYTE   W06
 BYTE   Fn3
 BYTE   W12
 BYTE   Cn3
 BYTE   W12
 BYTE   Ds3
 BYTE   W12
 BYTE   Ds3
 BYTE   W12
 BYTE   Cn3
 BYTE   W06
 BYTE   Fn3
 BYTE   W12
 BYTE   Cn3
 BYTE   W12
//  #03 //069   ----------------------------------------
 BYTE   En3
 BYTE   W12
 BYTE   Cn3
 BYTE   W06
 BYTE   Gn2
 BYTE   W12
 BYTE   Cn3
 BYTE   W12
 BYTE   En3
 BYTE   W12
 BYTE   En3
 BYTE   W12
 BYTE   Cn3
 BYTE   W06
 BYTE   Gn3
 BYTE   W06
 BYTE   Gn2
 BYTE   W06
 BYTE   Cn3
 BYTE   W06
 BYTE   Gn2
 BYTE   W06
//  #03 //070   ----------------------------------------
 BYTE   Ds3
 BYTE   W12
 BYTE   Cn3
 BYTE   W06
 BYTE   Fn3
 BYTE   W12
 BYTE   Cn3
 BYTE   W12
 BYTE   Ds3
 BYTE   W12
 BYTE   Ds3
 BYTE   W12
 BYTE   Cn3
 BYTE   W06
 BYTE   Fn3
 BYTE   W12
 BYTE   Cn3
 BYTE   W12
//  #03 //071   ----------------------------------------
 BYTE   En3
 BYTE   W12
 BYTE   Cn3
 BYTE   W06
 BYTE   Gn2
 BYTE   W12
 BYTE   Cn3
 BYTE   W12
 BYTE   En3
 BYTE   W12
 BYTE   En3
 BYTE   W12
 BYTE   Cn3
 BYTE   W06
 BYTE   Gn3
 BYTE   W06
 BYTE   Gn2
 BYTE   W06
 BYTE   Cn3
 BYTE   W06
 BYTE   Gn2
 BYTE   W06
//  #03 //072   ----------------------------------------
 BYTE   Ds3
 BYTE   W12
 BYTE   Cn3
 BYTE   W06
 BYTE   Fn3
 BYTE   W12
 BYTE   Cn3
 BYTE   W12
 BYTE   Ds3
 BYTE   W12
 BYTE   Ds3
 BYTE   W12
 BYTE   Cn3
 BYTE   W06
 BYTE   Fn3
 BYTE   W12
 BYTE   Cn3
 BYTE   W12
//  #03 //073   ----------------------------------------
 BYTE   En3
 BYTE   W12
 BYTE   Cn3
 BYTE   W06
 BYTE   Gn2
 BYTE   W12
 BYTE   Cn3
 BYTE   W12
 BYTE   En3
 BYTE   W12
 BYTE   En3
 BYTE   W12
 BYTE   Cn3
 BYTE   W06
 BYTE   Gn3
 BYTE   W06
 BYTE   Gn2
 BYTE   W06
 BYTE   Cn3
 BYTE   W06
 BYTE   Gn2
 BYTE   W06
//  #03 //074   ----------------------------------------
 BYTE   Ds3
 BYTE   W12
 BYTE   Cn3
 BYTE   W06
 BYTE   Fn3
 BYTE   W12
 BYTE   Cn3
 BYTE   W12
 BYTE   Ds3
 BYTE   W12
 BYTE   Ds3
 BYTE   W12
 BYTE   Cn3
 BYTE   W06
 BYTE   Fn3
 BYTE   W12
 BYTE   Cn3
 BYTE   W12
//  #03 //075   ----------------------------------------
 BYTE   En3
 BYTE   W12
 BYTE   Cn3
 BYTE   W06
 BYTE   Gn2
 BYTE   W12
 BYTE   Cn3
 BYTE   W12
 BYTE   En3
 BYTE   W12
 BYTE   En3
 BYTE   W12
 BYTE   Cn3
 BYTE   W06
 BYTE   Gn3
 BYTE   W06
 BYTE   Gn2
 BYTE   W06
 BYTE   Cn3
 BYTE   W06
 BYTE   Gn2
 BYTE   W06
//  #03 //076   ----------------------------------------
 BYTE   N18  Cn4
 BYTE   W18
 BYTE   Ds4
 BYTE   W18
 BYTE   N12  Gn4
 BYTE   W12
 BYTE   N24  Fn4
 BYTE   W24
 BYTE   N06  Ds4
 BYTE   W06
 BYTE   Fn4
 BYTE   W06
 BYTE   Ds4
 BYTE   W06
 BYTE   Dn4
 BYTE   W06
//  #03 //077   ----------------------------------------
 BYTE   N48  Cn4
 BYTE   W48
 BYTE   Gn4
 BYTE   W48
//  #03 //078   ----------------------------------------
 BYTE   N06  Fn4
 BYTE   W12
 BYTE   Dn4
 BYTE   W12
 BYTE   As4
 BYTE   W06
 BYTE   Fn4
 BYTE   W12
 BYTE   Dn4
 BYTE   W06
 BYTE   N18  Fn4
 BYTE   W18
 BYTE   Cn4
 BYTE   W18
 BYTE   N12  An4
 BYTE   W12
//  #03 //079   ----------------------------------------
 BYTE   N48  Gn4
 BYTE   W48
 BYTE   Dn4
 BYTE   W48
//  #03 //080   ----------------------------------------
 BYTE   N18  Cn4
 BYTE   W18
 BYTE   Ds4
 BYTE   W18
 BYTE   N12  Gn4
 BYTE   W12
 BYTE   N24  Fn4
 BYTE   W24
 BYTE   N06  Ds4
 BYTE   W06
 BYTE   Fn4
 BYTE   W06
 BYTE   Ds4
 BYTE   W06
 BYTE   Dn4
 BYTE   W06
//  #03 //081   ----------------------------------------
 BYTE   N48  Cn4
 BYTE   W48
 BYTE   Gn4
 BYTE   W48
//  #03 //082   ----------------------------------------
 BYTE   N06  Fn4
 BYTE   W12
 BYTE   Dn4
 BYTE   W12
 BYTE   As4
 BYTE   W06
 BYTE   Fn4
 BYTE   W12
 BYTE   Dn4
 BYTE   W06
 BYTE   N18  Fn4
 BYTE   W18
 BYTE   Cn4
 BYTE   W18
 BYTE   N12  An4
 BYTE   W12
//  #03 //083   ----------------------------------------
 BYTE   N48  Gn4
 BYTE   W48
 BYTE   Dn4
 BYTE   W48
//  #03 //084   ----------------------------------------
 BYTE   VOL   42*ToadstoolTourSkinsMatch_mvl/mxv
 BYTE   PAN   c_v+23
 BYTE   N18  Cn3  v102
 BYTE   N18  En3
 BYTE   N18  Gn2
 BYTE   VOL   40*ToadstoolTourSkinsMatch_mvl/mxv
 BYTE   W04
 BYTE   VOL   39*ToadstoolTourSkinsMatch_mvl/mxv
 BYTE   W04
 BYTE   VOL   38*ToadstoolTourSkinsMatch_mvl/mxv
 BYTE   W04
 BYTE   VOL   36*ToadstoolTourSkinsMatch_mvl/mxv
 BYTE   W04
 BYTE   VOL   35*ToadstoolTourSkinsMatch_mvl/mxv
 BYTE   W01
 BYTE   N06  Cn3  v102
 BYTE   N06  Gn2
 BYTE   N06  Dn3
 BYTE   W02
 BYTE   VOL   34*ToadstoolTourSkinsMatch_mvl/mxv
 BYTE   W04
 BYTE   VOL   32*ToadstoolTourSkinsMatch_mvl/mxv
 BYTE   W04
 BYTE   VOL   31*ToadstoolTourSkinsMatch_mvl/mxv
 BYTE   W01
 BYTE   N06  En3  v102
 BYTE   N06  Gn2
 BYTE   N06  Cn3
 BYTE   W02
 BYTE   VOL   30*ToadstoolTourSkinsMatch_mvl/mxv
 BYTE   W04
 BYTE   VOL   28*ToadstoolTourSkinsMatch_mvl/mxv
 BYTE   W04
 BYTE   VOL   27*ToadstoolTourSkinsMatch_mvl/mxv
 BYTE   W01
 BYTE   N06  Cn3  v102
 BYTE   N06  Fn3
 BYTE   N06  Gn2
 BYTE   W02
 BYTE   VOL   26*ToadstoolTourSkinsMatch_mvl/mxv
 BYTE   W04
 BYTE   VOL   25*ToadstoolTourSkinsMatch_mvl/mxv
 BYTE   W04
 BYTE   VOL   23*ToadstoolTourSkinsMatch_mvl/mxv
 BYTE   N06  Cn3  v102
 BYTE   N06  Fn3
 BYTE   N06  Gn2
 BYTE   W03
 BYTE   VOL   22*ToadstoolTourSkinsMatch_mvl/mxv
 BYTE   W04
 BYTE   VOL   21*ToadstoolTourSkinsMatch_mvl/mxv
 BYTE   W04
 BYTE   VOL   20*ToadstoolTourSkinsMatch_mvl/mxv
 BYTE   N06  En3  v102
 BYTE   N06  Gn2
 BYTE   N06  Cn3
 BYTE   W03
 BYTE   VOL   18*ToadstoolTourSkinsMatch_mvl/mxv
 BYTE   W02
 BYTE   N12  Dn3  v102
 BYTE   N12  Cn3
 BYTE   N12  Gn2
 BYTE   W01
 BYTE   VOL   17*ToadstoolTourSkinsMatch_mvl/mxv
 BYTE   W04
 BYTE   VOL   16*ToadstoolTourSkinsMatch_mvl/mxv
 BYTE   W04
 BYTE   VOL   15*ToadstoolTourSkinsMatch_mvl/mxv
 BYTE   W02
 BYTE   N12  En3  v102
 BYTE   N12  Gn2
 BYTE   N12  Cn3
 BYTE   W01
 BYTE   VOL   15*ToadstoolTourSkinsMatch_mvl/mxv
 BYTE   W04
 BYTE   VOL   15*ToadstoolTourSkinsMatch_mvl/mxv
 BYTE   W04
 BYTE   VOL   15*ToadstoolTourSkinsMatch_mvl/mxv
 BYTE   W02
 BYTE   N18  En3  v102
 BYTE   N18  Cn3
 BYTE   N18  Gn2
 BYTE   W01
 BYTE   VOL   15*ToadstoolTourSkinsMatch_mvl/mxv
 BYTE   W04
 BYTE   VOL   15*ToadstoolTourSkinsMatch_mvl/mxv
 BYTE   W04
//  #03 //085   ----------------------------------------
 BYTE   VOL   15*ToadstoolTourSkinsMatch_mvl/mxv
 BYTE   W04
 BYTE   VOL   15*ToadstoolTourSkinsMatch_mvl/mxv
 BYTE   W04
 BYTE   VOL   15*ToadstoolTourSkinsMatch_mvl/mxv
 BYTE   N06  Gn2  v102
 BYTE   N06  Dn3
 BYTE   N06  Cn3
 BYTE   W03
 BYTE   VOL   15*ToadstoolTourSkinsMatch_mvl/mxv
 BYTE   W04
 BYTE   VOL   15*ToadstoolTourSkinsMatch_mvl/mxv
 BYTE   W04
 BYTE   VOL   15*ToadstoolTourSkinsMatch_mvl/mxv
 BYTE   N06  Gn2  v102
 BYTE   N06  Cn3
 BYTE   N06  En3
 BYTE   W03
 BYTE   VOL   15*ToadstoolTourSkinsMatch_mvl/mxv
 BYTE   W04
 BYTE   VOL   15*ToadstoolTourSkinsMatch_mvl/mxv
 BYTE   W04
 BYTE   VOL   15*ToadstoolTourSkinsMatch_mvl/mxv
 BYTE   N06  Cn3  v102
 BYTE   N06  Gn2
 BYTE   N06  Fn3
 BYTE   W03
 BYTE   VOL   15*ToadstoolTourSkinsMatch_mvl/mxv
 BYTE   W04
 BYTE   VOL   15*ToadstoolTourSkinsMatch_mvl/mxv
 BYTE   W04
 BYTE   VOL   15*ToadstoolTourSkinsMatch_mvl/mxv
 BYTE   N06  Gn2  v102
 BYTE   N06  Fn3
 BYTE   N06  Cn3
 BYTE   W03
 BYTE   VOL   15*ToadstoolTourSkinsMatch_mvl/mxv
 BYTE   W04
 BYTE   VOL   15*ToadstoolTourSkinsMatch_mvl/mxv
 BYTE   W04
 BYTE   VOL   15*ToadstoolTourSkinsMatch_mvl/mxv
 BYTE   N06  Gn2  v102
 BYTE   N06  Cn3
 BYTE   N06  En3
 BYTE   W03
 BYTE   VOL   15*ToadstoolTourSkinsMatch_mvl/mxv
 BYTE   W02
 BYTE   N12  Cn3  v102
 BYTE   N12  Gn2
 BYTE   N12  Dn3
 BYTE   W01
 BYTE   VOL   15*ToadstoolTourSkinsMatch_mvl/mxv
 BYTE   W04
 BYTE   VOL   15*ToadstoolTourSkinsMatch_mvl/mxv
 BYTE   W04
 BYTE   VOL   15*ToadstoolTourSkinsMatch_mvl/mxv
 BYTE   W02
 BYTE   N12  Gn2  v102
 BYTE   N12  En3
 BYTE   N12  Cn3
 BYTE   W01
 BYTE   VOL   15*ToadstoolTourSkinsMatch_mvl/mxv
 BYTE   W04
 BYTE   VOL   15*ToadstoolTourSkinsMatch_mvl/mxv
 BYTE   W04
 BYTE   VOL   15*ToadstoolTourSkinsMatch_mvl/mxv
 BYTE   W02
 BYTE   N18  En3  v102
 BYTE   N18  Gn2
 BYTE   N18  Cn3
 BYTE   W01
 BYTE   VOL   15*ToadstoolTourSkinsMatch_mvl/mxv
 BYTE   W04
 BYTE   VOL   15*ToadstoolTourSkinsMatch_mvl/mxv
 BYTE   W04
 BYTE   VOL   15*ToadstoolTourSkinsMatch_mvl/mxv
 BYTE   W04
 BYTE   VOL   15*ToadstoolTourSkinsMatch_mvl/mxv
 BYTE   W04
//  #03 //086   ----------------------------------------
 BYTE   VOL   15*ToadstoolTourSkinsMatch_mvl/mxv
 BYTE   N06  Cn3  v102
 BYTE   N06  Gn2
 BYTE   N06  Dn3
 BYTE   W03
 BYTE   VOL   15*ToadstoolTourSkinsMatch_mvl/mxv
 BYTE   W04
 BYTE   VOL   15*ToadstoolTourSkinsMatch_mvl/mxv
 BYTE   W04
 BYTE   VOL   15*ToadstoolTourSkinsMatch_mvl/mxv
 BYTE   N06  Gn2  v102
 BYTE   N06  En3
 BYTE   N06  Cn3
 BYTE   W03
 BYTE   VOL   15*ToadstoolTourSkinsMatch_mvl/mxv
 BYTE   W04
 BYTE   VOL   15*ToadstoolTourSkinsMatch_mvl/mxv
 BYTE   W04
 BYTE   VOL   15*ToadstoolTourSkinsMatch_mvl/mxv
 BYTE   N06  Gn2  v102
 BYTE   N06  Cn3
 BYTE   N06  Fn3
 BYTE   W03
 BYTE   VOL   15*ToadstoolTourSkinsMatch_mvl/mxv
 BYTE   W04
 BYTE   VOL   15*ToadstoolTourSkinsMatch_mvl/mxv
 BYTE   W04
 BYTE   VOL   15*ToadstoolTourSkinsMatch_mvl/mxv
 BYTE   N06  Cn3  v102
 BYTE   N06  Gn2
 BYTE   N06  Fn3
 BYTE   W03
 BYTE   VOL   15*ToadstoolTourSkinsMatch_mvl/mxv
 BYTE   W04
 BYTE   VOL   15*ToadstoolTourSkinsMatch_mvl/mxv
 BYTE   W04
 BYTE   VOL   15*ToadstoolTourSkinsMatch_mvl/mxv
 BYTE   N06  Gn2  v102
 BYTE   N06  Cn3
 BYTE   N06  En3
 BYTE   W03
 BYTE   VOL   15*ToadstoolTourSkinsMatch_mvl/mxv
 BYTE   W02
 BYTE   N12  Dn3  v102
 BYTE   N12  Gn2
 BYTE   N12  Cn3
 BYTE   W01
 BYTE   VOL   15*ToadstoolTourSkinsMatch_mvl/mxv
 BYTE   W04
 BYTE   VOL   15*ToadstoolTourSkinsMatch_mvl/mxv
 BYTE   W04
 BYTE   VOL   15*ToadstoolTourSkinsMatch_mvl/mxv
 BYTE   W02
 BYTE   N12  En3  v102
 BYTE   N12  Cn3
 BYTE   N12  Gn2
 BYTE   W01
 BYTE   VOL   15*ToadstoolTourSkinsMatch_mvl/mxv
 BYTE   W04
 BYTE   VOL   15*ToadstoolTourSkinsMatch_mvl/mxv
 BYTE   W04
 BYTE   VOL   15*ToadstoolTourSkinsMatch_mvl/mxv
 BYTE   W02
 BYTE   N18  Cn3  v102
 BYTE   N18  En3
 BYTE   N18  Gs2
 BYTE   W02
 BYTE   VOL   15*ToadstoolTourSkinsMatch_mvl/mxv
 BYTE   W04
 BYTE   VOL   15*ToadstoolTourSkinsMatch_mvl/mxv
 BYTE   W04
 BYTE   VOL   15*ToadstoolTourSkinsMatch_mvl/mxv
 BYTE   W04
 BYTE   VOL   15*ToadstoolTourSkinsMatch_mvl/mxv
 BYTE   W03
 BYTE   N06  Dn3  v102
 BYTE   N06  Gs2
 BYTE   N06  Cn3
 BYTE   VOL   15*ToadstoolTourSkinsMatch_mvl/mxv
 BYTE   W04
 BYTE   VOL   15*ToadstoolTourSkinsMatch_mvl/mxv
 BYTE   W04
//  #03 //087   ----------------------------------------
 BYTE   VOL   15*ToadstoolTourSkinsMatch_mvl/mxv
 BYTE   W03
 BYTE   N06  En3  v102
 BYTE   N06  Gs2
 BYTE   N06  Cn3
 BYTE   VOL   15*ToadstoolTourSkinsMatch_mvl/mxv
 BYTE   W04
 BYTE   VOL   15*ToadstoolTourSkinsMatch_mvl/mxv
 BYTE   W04
 BYTE   VOL   15*ToadstoolTourSkinsMatch_mvl/mxv
 BYTE   W03
 BYTE   N06  Fn3  v102
 BYTE   N06  Dn3
 BYTE   N06  As2
 BYTE   VOL   15*ToadstoolTourSkinsMatch_mvl/mxv
 BYTE   W04
 BYTE   VOL   15*ToadstoolTourSkinsMatch_mvl/mxv
 BYTE   W04
 BYTE   VOL   15*ToadstoolTourSkinsMatch_mvl/mxv
 BYTE   W03
 BYTE   N06  Fn3  v102
 BYTE   N06  Dn3
 BYTE   N06  As2
 BYTE   VOL   15*ToadstoolTourSkinsMatch_mvl/mxv
 BYTE   W04
 BYTE   VOL   15*ToadstoolTourSkinsMatch_mvl/mxv
 BYTE   W04
 BYTE   VOL   15*ToadstoolTourSkinsMatch_mvl/mxv
 BYTE   W03
 BYTE   N06  En3  v102
 BYTE   N06  As2
 BYTE   N06  Dn3
 BYTE   VOL   15*ToadstoolTourSkinsMatch_mvl/mxv
 BYTE   W04
 BYTE   VOL   15*ToadstoolTourSkinsMatch_mvl/mxv
 BYTE   W01
 BYTE   N12  As2  v102
 BYTE   N12  Dn3
 BYTE   W02
 BYTE   VOL   15*ToadstoolTourSkinsMatch_mvl/mxv
 BYTE   W04
 BYTE   VOL   15*ToadstoolTourSkinsMatch_mvl/mxv
 BYTE   W04
 BYTE   VOL   15*ToadstoolTourSkinsMatch_mvl/mxv
 BYTE   W01
 BYTE   N12  Dn3  v102
 BYTE   N12  As2
 BYTE   N12  En3
 BYTE   W02
 BYTE   VOL   15*ToadstoolTourSkinsMatch_mvl/mxv
 BYTE   W04
 BYTE   VOL   15*ToadstoolTourSkinsMatch_mvl/mxv
 BYTE   W05
 BYTE   FINE

//**************** Track 4 (Midi-Chn.3) ****************//

ToadstoolTourSkinsMatch_004:
//  #04 //000   ----------------------------------------
Label_014D4750:
 BYTE   TEMPO   118*ToadstoolTourSkinsMatch_tbs/2
 BYTE   KEYSH   ToadstoolTourSkinsMatch_key+0
 BYTE   VOICE   63
 BYTE   VOL   11*ToadstoolTourSkinsMatch_mvl/mxv
 BYTE   PAN   c_v-25
 BYTE   N12  Dn3  v083
 BYTE   N12  As2
 BYTE   N12  En3
 BYTE   W12
 BYTE   N18
 BYTE   W18
 BYTE   N06  Fs3
 BYTE   W12
 BYTE   Gn3
 BYTE   W12
 BYTE   An3
 BYTE   W06
 BYTE   N24  Bn3
 BYTE   W24
 BYTE   Dn3
 BYTE   W24
//  #04 //001   ----------------------------------------
Label_014D4770:
 BYTE   N24  Cn3  v083
 BYTE   W24
 BYTE   N06  Bn2
 BYTE   W06
 BYTE   Cn3
 BYTE   W06
 BYTE   Bn2
 BYTE   W06
 BYTE   An2
 BYTE   W06
 BYTE   N48  Bn2
 BYTE   W48
 BYTE   PEND 
//  #04 //002   ----------------------------------------
Label_014D4781:
 BYTE   N18  Cn3  v083
 BYTE   W18
 BYTE   Dn3
 BYTE   W18
 BYTE   N12  En3
 BYTE   W12
 BYTE   N24  Dn3
 BYTE   W24
 BYTE   Fs3
 BYTE   W24
 BYTE   PEND 
//  #04 //003   ----------------------------------------
Label_014D4790:
 BYTE   N18  Gn3  v083
 BYTE   W18
 BYTE   Ds3
 BYTE   W18
 BYTE   N12  Gn3
 BYTE   W12
 BYTE   N48  Fn3
 BYTE   W48
 BYTE   PEND 
//  #04 //004   ----------------------------------------
Label_014D479D:
 BYTE   N18  Gn3  v083
 BYTE   W18
 BYTE   N30  Dn3
 BYTE   W30
 BYTE   N24
 BYTE   W24
 BYTE   Cn3
 BYTE   W24
 BYTE   PEND 
//  #04 //005   ----------------------------------------
Label_014D47A9:
 BYTE   N30  Cn3  v083
 BYTE   W30
 BYTE   N06  Dn3
 BYTE   W06
 BYTE   Ds3
 BYTE   W06
 BYTE   Gn3
 BYTE   W06
 BYTE   N48  Fn3
 BYTE   W48
 BYTE   PEND 
//  #04 //006   ----------------------------------------
Label_014D47B8:
 BYTE   N30  Gn3  v083
 BYTE   W30
 BYTE   N06  Fn3
 BYTE   W06
 BYTE   En3
 BYTE   W06
 BYTE   Fn3
 BYTE   W06
 BYTE   N18  Dn3
 BYTE   W18
 BYTE   En3
 BYTE   W18
 BYTE   N12  Fn3
 BYTE   W12
 BYTE   PEND 
//  #04 //007   ----------------------------------------
 BYTE   N18  Ds3  v083
 BYTE   W18
 BYTE   Cn3
 BYTE   W18
 BYTE   N12  Gn3
 BYTE   W12
 BYTE   N24  Fn3
 BYTE   W24
 BYTE   As3
 BYTE   W24
//  #04 //008   ----------------------------------------
 BYTE   N18  En3
 BYTE   W18
 BYTE   N06  Fs3
 BYTE   W12
 BYTE   Gn3
 BYTE   W12
 BYTE   An3
 BYTE   W06
 BYTE   N24  Bn3
 BYTE   W24
 BYTE   Dn3
 BYTE   W24
//  #04 //009   ----------------------------------------
 BYTE   PATT
  POIN2 Label_014D4770
//  #04 //010   ----------------------------------------
 BYTE   PATT
  POIN2 Label_014D4781
//  #04 //011   ----------------------------------------
 BYTE   PATT
  POIN2 Label_014D4790
//  #04 //012   ----------------------------------------
 BYTE   PATT
  POIN2 Label_014D479D
//  #04 //013   ----------------------------------------
 BYTE   PATT
  POIN2 Label_014D47A9
//  #04 //014   ----------------------------------------
 BYTE   PATT
  POIN2 Label_014D47B8
//  #04 //015   ----------------------------------------
 BYTE   N18  Ds3  v083
 BYTE   W18
 BYTE   Cn3
 BYTE   W18
 BYTE   N12  Gn3
 BYTE   W12
 BYTE   N24  Fn3
 BYTE   W24
 BYTE   As3
 BYTE   W12
 BYTE   GoTo
  POIN2 Label_014D4750
//  #04 //016   ----------------------------------------
 BYTE   W12
Label_014D481B:
 BYTE   N18  Gn2  v083
 BYTE   N18  Cn3
 BYTE   N18  En3
 BYTE   W18
 BYTE   N06  Gn2
 BYTE   N06  Cn3
 BYTE   N06  Dn3
 BYTE   W12
 BYTE   Gn2
 BYTE   N06  Cn3
 BYTE   N06  En3
 BYTE   W12
 BYTE   Gn2
 BYTE   N06  Cn3
 BYTE   N06  Fn3
 BYTE   W12
 BYTE   Gn2
 BYTE   N06  Cn3
 BYTE   N06  Fn3
 BYTE   W12
 BYTE   Gn2
 BYTE   N06  Cn3
 BYTE   N06  En3
 BYTE   W06
 BYTE   N12  Gn2
 BYTE   N12  Cn3
 BYTE   N12  Dn3
 BYTE   W12
//  #04 //017   ----------------------------------------
 BYTE   Gn2
 BYTE   N12  Cn3
 BYTE   N12  En3
 BYTE   W12
 BYTE   PEND 
//  #04 //018   ----------------------------------------
 BYTE   PATT
  POIN2 Label_014D481B
//  #04 //019   ----------------------------------------
 BYTE   PATT
  POIN2 Label_014D481B
//  #04 //020   ----------------------------------------
Label_014D485A:
 BYTE   N18  Gs2  v083
 BYTE   N18  Cn3
 BYTE   N18  En3
 BYTE   W18
 BYTE   N06  Gs2
 BYTE   N06  Cn3
 BYTE   N06  Dn3
 BYTE   W12
 BYTE   Gs2
 BYTE   N06  Cn3
 BYTE   N06  En3
 BYTE   W12
 BYTE   Dn3
 BYTE   N06  As2
 BYTE   N06  Fn3
 BYTE   W12
 BYTE   Dn3
 BYTE   N06  As2
 BYTE   N06  Fn3
 BYTE   W12
 BYTE   Dn3
 BYTE   N06  As2
 BYTE   N06  En3
 BYTE   W06
 BYTE   N12  As2
 BYTE   N12  Dn3
 BYTE   W12
 BYTE   Dn3
 BYTE   N12  As2
 BYTE   N12  En3
 BYTE   W12
 BYTE   PEND 
//  #04 //021   ----------------------------------------
 BYTE   PATT
  POIN2 Label_014D481B
//  #04 //022   ----------------------------------------
 BYTE   PATT
  POIN2 Label_014D481B
//  #04 //023   ----------------------------------------
 BYTE   PATT
  POIN2 Label_014D481B
//  #04 //024   ----------------------------------------
 BYTE   PATT
  POIN2 Label_014D485A
//  #04 //025   ----------------------------------------
Label_014D48A1:
 BYTE   N06  Ds3  v083
 BYTE   W12
 BYTE   Cn3
 BYTE   W06
 BYTE   Fn3
 BYTE   W12
 BYTE   Cn3
 BYTE   W12
 BYTE   Ds3
 BYTE   W12
 BYTE   Ds3
 BYTE   W12
 BYTE   Cn3
 BYTE   W06
 BYTE   Fn3
 BYTE   W12
 BYTE   Cn3
 BYTE   W12
 BYTE   PEND 
//  #04 //026   ----------------------------------------
Label_014D48B6:
 BYTE   N06  En3  v083
 BYTE   W12
 BYTE   Cn3
 BYTE   W06
 BYTE   Gn2
 BYTE   W12
 BYTE   Cn3
 BYTE   W12
 BYTE   En3
 BYTE   W12
 BYTE   En3
 BYTE   W12
 BYTE   Cn3
 BYTE   W06
 BYTE   Gn3
 BYTE   W06
 BYTE   Gn2
 BYTE   W06
 BYTE   Cn3
 BYTE   W06
 BYTE   Gn2
 BYTE   W06
 BYTE   PEND 
//  #04 //027   ----------------------------------------
 BYTE   PATT
  POIN2 Label_014D48A1
//  #04 //028   ----------------------------------------
 BYTE   PATT
  POIN2 Label_014D48B6
//  #04 //029   ----------------------------------------
 BYTE   PATT
  POIN2 Label_014D48A1
//  #04 //030   ----------------------------------------
 BYTE   PATT
  POIN2 Label_014D48B6
//  #04 //031   ----------------------------------------
 BYTE   PATT
  POIN2 Label_014D48A1
//  #04 //032   ----------------------------------------
 BYTE   PATT
  POIN2 Label_014D48B6
//  #04 //033   ----------------------------------------
Label_014D48ED:
 BYTE   N18  Cn4  v083
 BYTE   W18
 BYTE   Ds4
 BYTE   W18
 BYTE   N12  Gn4
 BYTE   W12
 BYTE   N24  Fn4
 BYTE   W24
 BYTE   N06  Ds4
 BYTE   W06
 BYTE   Fn4
 BYTE   W06
 BYTE   Ds4
 BYTE   W06
 BYTE   Dn4
 BYTE   W06
 BYTE   PEND 
//  #04 //034   ----------------------------------------
Label_014D4903:
 BYTE   N48  Cn4  v083
 BYTE   W48
 BYTE   Gn4
 BYTE   W48
 BYTE   PEND 
//  #04 //035   ----------------------------------------
Label_014D490A:
 BYTE   N06  Fn4  v083
 BYTE   W12
 BYTE   Dn4
 BYTE   W12
 BYTE   As4
 BYTE   W06
 BYTE   Fn4
 BYTE   W12
 BYTE   Dn4
 BYTE   W06
 BYTE   N18  Fn4
 BYTE   W18
 BYTE   Cn4
 BYTE   W18
 BYTE   N12  An4
 BYTE   W12
 BYTE   PEND 
//  #04 //036   ----------------------------------------
 BYTE   N48  Gn4  v083
 BYTE   W48
 BYTE   Dn4
 BYTE   W48
//  #04 //037   ----------------------------------------
 BYTE   PATT
  POIN2 Label_014D48ED
//  #04 //038   ----------------------------------------
 BYTE   PATT
  POIN2 Label_014D4903
//  #04 //039   ----------------------------------------
 BYTE   PATT
  POIN2 Label_014D490A
//  #04 //040   ----------------------------------------
 BYTE   N48  Gn4  v083
 BYTE   W48
 BYTE   Dn4
 BYTE   W42
 BYTE   PAN   c_v-25
 BYTE   W06
//  #04 //041   ----------------------------------------
 BYTE   N18  Gn2  v083
 BYTE   N18  Cn3
 BYTE   N18  En3
 BYTE   W18
 BYTE   N06  Gn2
 BYTE   N06  Cn3
 BYTE   N06  Dn3
 BYTE   W12
 BYTE   Gn2
 BYTE   N06  Cn3
 BYTE   N06  En3
 BYTE   W12
 BYTE   Gn2
 BYTE   N06  Cn3
 BYTE   N06  Fn3
 BYTE   W12
 BYTE   Gn2
 BYTE   N06  Cn3
 BYTE   N06  Fn3
 BYTE   W12
 BYTE   Gn2
 BYTE   N06  Cn3
 BYTE   N06  En3
 BYTE   W06
 BYTE   N12  Gn2
 BYTE   N12  Cn3
 BYTE   N12  Dn3
 BYTE   W12
 BYTE   Gn2
 BYTE   N12  Cn3
 BYTE   N12  En3
 BYTE   W12
//  #04 //042   ----------------------------------------
 BYTE   N18  Gn2
 BYTE   N18  Cn3
 BYTE   N18  En3
 BYTE   W18
 BYTE   N06  Gn2
 BYTE   N06  Cn3
 BYTE   N06  Dn3
 BYTE   W12
 BYTE   Gn2
 BYTE   N06  Cn3
 BYTE   N06  En3
 BYTE   W12
 BYTE   Gn2
 BYTE   N06  Cn3
 BYTE   N06  Fn3
 BYTE   W12
 BYTE   Gn2
 BYTE   N06  Cn3
 BYTE   N06  Fn3
 BYTE   W12
 BYTE   Gn2
 BYTE   N06  Cn3
 BYTE   N06  En3
 BYTE   W06
 BYTE   N12  Gn2
 BYTE   N12  Cn3
 BYTE   N12  Dn3
 BYTE   W12
 BYTE   Gn2
 BYTE   N12  Cn3
 BYTE   N12  En3
 BYTE   W12
//  #04 //043   ----------------------------------------
 BYTE   N18  Gn2
 BYTE   N18  Cn3
 BYTE   N18  En3
 BYTE   W18
 BYTE   N06  Gn2
 BYTE   N06  Cn3
 BYTE   N06  Dn3
 BYTE   W12
 BYTE   Gn2
 BYTE   N06  Cn3
 BYTE   N06  En3
 BYTE   W12
 BYTE   Gn2
 BYTE   N06  Cn3
 BYTE   N06  Fn3
 BYTE   W12
 BYTE   Gn2
 BYTE   N06  Cn3
 BYTE   N06  Fn3
 BYTE   W12
 BYTE   Gn2
 BYTE   N06  Cn3
 BYTE   N06  En3
 BYTE   W06
 BYTE   N12  Gn2
 BYTE   N12  Cn3
 BYTE   N12  Dn3
 BYTE   W12
 BYTE   Gn2
 BYTE   N12  Cn3
 BYTE   N12  En3
 BYTE   W12
//  #04 //044   ----------------------------------------
 BYTE   N18  Gs2
 BYTE   N18  Cn3
 BYTE   N18  En3
 BYTE   W18
 BYTE   N06  Gs2
 BYTE   N06  Cn3
 BYTE   N06  Dn3
 BYTE   W12
 BYTE   Gs2
 BYTE   N06  Cn3
 BYTE   N06  En3
 BYTE   W12
 BYTE   Dn3
 BYTE   N06  As2
 BYTE   N06  Fn3
 BYTE   W12
 BYTE   Dn3
 BYTE   N06  As2
 BYTE   N06  Fn3
 BYTE   W12
 BYTE   Dn3
 BYTE   N06  As2
 BYTE   N06  En3
 BYTE   W06
 BYTE   N12  As2
 BYTE   N12  Dn3
 BYTE   W12
 BYTE   Dn3
 BYTE   N12  As2
 BYTE   N12  En3
 BYTE   W12
//  #04 //045   ----------------------------------------
 BYTE   N18
 BYTE   W18
 BYTE   N06  Fs3
 BYTE   W12
 BYTE   Gn3
 BYTE   W12
 BYTE   An3
 BYTE   W06
 BYTE   N24  Bn3
 BYTE   W24
 BYTE   Dn3
 BYTE   W24
//  #04 //046   ----------------------------------------
 BYTE   Cn3
 BYTE   W24
 BYTE   N06  Bn2
 BYTE   W06
 BYTE   Cn3
 BYTE   W06
 BYTE   Bn2
 BYTE   W06
 BYTE   An2
 BYTE   W06
 BYTE   N48  Bn2
 BYTE   W48
//  #04 //047   ----------------------------------------
 BYTE   N18  Cn3
 BYTE   W18
 BYTE   Dn3
 BYTE   W18
 BYTE   N12  En3
 BYTE   W12
 BYTE   N24  Dn3
 BYTE   W24
 BYTE   Fs3
 BYTE   W24
//  #04 //048   ----------------------------------------
 BYTE   N18  Gn3
 BYTE   W18
 BYTE   Ds3
 BYTE   W18
 BYTE   N12  Gn3
 BYTE   W12
 BYTE   N48  Fn3
 BYTE   W48
//  #04 //049   ----------------------------------------
 BYTE   N18  Gn3
 BYTE   W18
 BYTE   N30  Dn3
 BYTE   W30
 BYTE   N24
 BYTE   W24
 BYTE   Cn3
 BYTE   W24
//  #04 //050   ----------------------------------------
 BYTE   N30
 BYTE   W30
 BYTE   N06  Dn3
 BYTE   W06
 BYTE   Ds3
 BYTE   W06
 BYTE   Gn3
 BYTE   W06
 BYTE   N48  Fn3
 BYTE   W48
//  #04 //051   ----------------------------------------
 BYTE   N30  Gn3
 BYTE   W30
 BYTE   N06  Fn3
 BYTE   W06
 BYTE   En3
 BYTE   W06
 BYTE   Fn3
 BYTE   W06
 BYTE   N18  Dn3
 BYTE   W18
 BYTE   En3
 BYTE   W18
 BYTE   N12  Fn3
 BYTE   W12
//  #04 //052   ----------------------------------------
 BYTE   N18  Ds3
 BYTE   W18
 BYTE   Cn3
 BYTE   W18
 BYTE   N12  Gn3
 BYTE   W12
 BYTE   N24  Fn3
 BYTE   W24
 BYTE   As3
 BYTE   W24
//  #04 //053   ----------------------------------------
 BYTE   N18  En3
 BYTE   W18
 BYTE   N06  Fs3
 BYTE   W12
 BYTE   Gn3
 BYTE   W12
 BYTE   An3
 BYTE   W06
 BYTE   N24  Bn3
 BYTE   W24
 BYTE   Dn3
 BYTE   W24
//  #04 //054   ----------------------------------------
 BYTE   Cn3
 BYTE   W24
 BYTE   N06  Bn2
 BYTE   W06
 BYTE   Cn3
 BYTE   W06
 BYTE   Bn2
 BYTE   W06
 BYTE   An2
 BYTE   W06
 BYTE   N48  Bn2
 BYTE   W48
//  #04 //055   ----------------------------------------
 BYTE   N18  Cn3
 BYTE   W18
 BYTE   Dn3
 BYTE   W18
 BYTE   N12  En3
 BYTE   W12
 BYTE   N24  Dn3
 BYTE   W24
 BYTE   Fs3
 BYTE   W24
//  #04 //056   ----------------------------------------
 BYTE   N18  Gn3
 BYTE   W18
 BYTE   Ds3
 BYTE   W18
 BYTE   N12  Gn3
 BYTE   W12
 BYTE   N48  Fn3
 BYTE   W48
//  #04 //057   ----------------------------------------
 BYTE   N18  Gn3
 BYTE   W18
 BYTE   N30  Dn3
 BYTE   W30
 BYTE   N24
 BYTE   W24
 BYTE   Cn3
 BYTE   W24
//  #04 //058   ----------------------------------------
 BYTE   N30
 BYTE   W30
 BYTE   N06  Dn3
 BYTE   W06
 BYTE   Ds3
 BYTE   W06
 BYTE   Gn3
 BYTE   W06
 BYTE   N48  Fn3
 BYTE   W48
//  #04 //059   ----------------------------------------
 BYTE   N30  Gn3
 BYTE   W30
 BYTE   N06  Fn3
 BYTE   W06
 BYTE   En3
 BYTE   W06
 BYTE   Fn3
 BYTE   W06
 BYTE   N18  Dn3
 BYTE   W18
 BYTE   En3
 BYTE   W18
 BYTE   N12  Fn3
 BYTE   W12
//  #04 //060   ----------------------------------------
 BYTE   N18  Ds3
 BYTE   W18
 BYTE   Cn3
 BYTE   W18
 BYTE   N12  Gn3
 BYTE   W12
 BYTE   N24  Fn3
 BYTE   W24
 BYTE   As3
 BYTE   W24
//  #04 //061   ----------------------------------------
 BYTE   N18  Gn2
 BYTE   N18  Cn3
 BYTE   N18  En3
 BYTE   W18
 BYTE   N06  Gn2
 BYTE   N06  Cn3
 BYTE   N06  Dn3
 BYTE   W12
 BYTE   Gn2
 BYTE   N06  Cn3
 BYTE   N06  En3
 BYTE   W12
 BYTE   Gn2
 BYTE   N06  Cn3
 BYTE   N06  Fn3
 BYTE   W12
 BYTE   Gn2
 BYTE   N06  Cn3
 BYTE   N06  Fn3
 BYTE   W12
 BYTE   Gn2
 BYTE   N06  Cn3
 BYTE   N06  En3
 BYTE   W06
 BYTE   N12  Gn2
 BYTE   N12  Cn3
 BYTE   N12  Dn3
 BYTE   W12
 BYTE   Gn2
 BYTE   N12  Cn3
 BYTE   N12  En3
 BYTE   W12
//  #04 //062   ----------------------------------------
 BYTE   N18  Gn2
 BYTE   N18  Cn3
 BYTE   N18  En3
 BYTE   W18
 BYTE   N06  Gn2
 BYTE   N06  Cn3
 BYTE   N06  Dn3
 BYTE   W12
 BYTE   Gn2
 BYTE   N06  Cn3
 BYTE   N06  En3
 BYTE   W12
 BYTE   Gn2
 BYTE   N06  Cn3
 BYTE   N06  Fn3
 BYTE   W12
 BYTE   Gn2
 BYTE   N06  Cn3
 BYTE   N06  Fn3
 BYTE   W12
 BYTE   Gn2
 BYTE   N06  Cn3
 BYTE   N06  En3
 BYTE   W06
 BYTE   N12  Gn2
 BYTE   N12  Cn3
 BYTE   N12  Dn3
 BYTE   W12
 BYTE   Gn2
 BYTE   N12  Cn3
 BYTE   N12  En3
 BYTE   W12
//  #04 //063   ----------------------------------------
 BYTE   N18  Gn2
 BYTE   N18  Cn3
 BYTE   N18  En3
 BYTE   W18
 BYTE   N06  Gn2
 BYTE   N06  Cn3
 BYTE   N06  Dn3
 BYTE   W12
 BYTE   Gn2
 BYTE   N06  Cn3
 BYTE   N06  En3
 BYTE   W12
 BYTE   Gn2
 BYTE   N06  Cn3
 BYTE   N06  Fn3
 BYTE   W12
 BYTE   Gn2
 BYTE   N06  Cn3
 BYTE   N06  Fn3
 BYTE   W12
 BYTE   Gn2
 BYTE   N06  Cn3
 BYTE   N06  En3
 BYTE   W06
 BYTE   N12  Gn2
 BYTE   N12  Cn3
 BYTE   N12  Dn3
 BYTE   W12
 BYTE   Gn2
 BYTE   N12  Cn3
 BYTE   N12  En3
 BYTE   W12
//  #04 //064   ----------------------------------------
 BYTE   N18  Gs2
 BYTE   N18  Cn3
 BYTE   N18  En3
 BYTE   W18
 BYTE   N06  Gs2
 BYTE   N06  Cn3
 BYTE   N06  Dn3
 BYTE   W12
 BYTE   Gs2
 BYTE   N06  Cn3
 BYTE   N06  En3
 BYTE   W12
 BYTE   Dn3
 BYTE   N06  As2
 BYTE   N06  Fn3
 BYTE   W12
 BYTE   Dn3
 BYTE   N06  As2
 BYTE   N06  Fn3
 BYTE   W12
 BYTE   Dn3
 BYTE   N06  As2
 BYTE   N06  En3
 BYTE   W06
 BYTE   N12  As2
 BYTE   N12  Dn3
 BYTE   W12
 BYTE   Dn3
 BYTE   N12  As2
 BYTE   N12  En3
 BYTE   W12
//  #04 //065   ----------------------------------------
 BYTE   N18  Gn2
 BYTE   N18  Cn3
 BYTE   N18  En3
 BYTE   W18
 BYTE   N06  Gn2
 BYTE   N06  Cn3
 BYTE   N06  Dn3
 BYTE   W12
 BYTE   Gn2
 BYTE   N06  Cn3
 BYTE   N06  En3
 BYTE   W12
 BYTE   Gn2
 BYTE   N06  Cn3
 BYTE   N06  Fn3
 BYTE   W12
 BYTE   Gn2
 BYTE   N06  Cn3
 BYTE   N06  Fn3
 BYTE   W12
 BYTE   Gn2
 BYTE   N06  Cn3
 BYTE   N06  En3
 BYTE   W06
 BYTE   N12  Gn2
 BYTE   N12  Cn3
 BYTE   N12  Dn3
 BYTE   W12
 BYTE   Gn2
 BYTE   N12  Cn3
 BYTE   N12  En3
 BYTE   W12
//  #04 //066   ----------------------------------------
 BYTE   N18  Gn2
 BYTE   N18  Cn3
 BYTE   N18  En3
 BYTE   W18
 BYTE   N06  Gn2
 BYTE   N06  Cn3
 BYTE   N06  Dn3
 BYTE   W12
 BYTE   Gn2
 BYTE   N06  Cn3
 BYTE   N06  En3
 BYTE   W12
 BYTE   Gn2
 BYTE   N06  Cn3
 BYTE   N06  Fn3
 BYTE   W12
 BYTE   Gn2
 BYTE   N06  Cn3
 BYTE   N06  Fn3
 BYTE   W12
 BYTE   Gn2
 BYTE   N06  Cn3
 BYTE   N06  En3
 BYTE   W06
 BYTE   N12  Gn2
 BYTE   N12  Cn3
 BYTE   N12  Dn3
 BYTE   W12
 BYTE   Gn2
 BYTE   N12  Cn3
 BYTE   N12  En3
 BYTE   W12
//  #04 //067   ----------------------------------------
 BYTE   N18  Gn2
 BYTE   N18  Cn3
 BYTE   N18  En3
 BYTE   W18
 BYTE   N06  Gn2
 BYTE   N06  Cn3
 BYTE   N06  Dn3
 BYTE   W12
 BYTE   Gn2
 BYTE   N06  Cn3
 BYTE   N06  En3
 BYTE   W12
 BYTE   Gn2
 BYTE   N06  Cn3
 BYTE   N06  Fn3
 BYTE   W12
 BYTE   Gn2
 BYTE   N06  Cn3
 BYTE   N06  Fn3
 BYTE   W12
 BYTE   Gn2
 BYTE   N06  Cn3
 BYTE   N06  En3
 BYTE   W06
 BYTE   N12  Gn2
 BYTE   N12  Cn3
 BYTE   N12  Dn3
 BYTE   W12
 BYTE   Gn2
 BYTE   N12  Cn3
 BYTE   N12  En3
 BYTE   W12
//  #04 //068   ----------------------------------------
 BYTE   N18  Gs2
 BYTE   N18  Cn3
 BYTE   N18  En3
 BYTE   W18
 BYTE   N06  Gs2
 BYTE   N06  Cn3
 BYTE   N06  Dn3
 BYTE   W12
 BYTE   Gs2
 BYTE   N06  Cn3
 BYTE   N06  En3
 BYTE   W12
 BYTE   Dn3
 BYTE   N06  As2
 BYTE   N06  Fn3
 BYTE   W12
 BYTE   Dn3
 BYTE   N06  As2
 BYTE   N06  Fn3
 BYTE   W12
 BYTE   Dn3
 BYTE   N06  As2
 BYTE   N06  En3
 BYTE   W06
 BYTE   N12  As2
 BYTE   N12  Dn3
 BYTE   W12
 BYTE   Dn3
 BYTE   N12  As2
 BYTE   N12  En3
 BYTE   W12
//  #04 //069   ----------------------------------------
 BYTE   N06  Ds3
 BYTE   W12
 BYTE   Cn3
 BYTE   W06
 BYTE   Fn3
 BYTE   W12
 BYTE   Cn3
 BYTE   W12
 BYTE   Ds3
 BYTE   W12
 BYTE   Ds3
 BYTE   W12
 BYTE   Cn3
 BYTE   W06
 BYTE   Fn3
 BYTE   W12
 BYTE   Cn3
 BYTE   W12
//  #04 //070   ----------------------------------------
 BYTE   En3
 BYTE   W12
 BYTE   Cn3
 BYTE   W06
 BYTE   Gn2
 BYTE   W12
 BYTE   Cn3
 BYTE   W12
 BYTE   En3
 BYTE   W12
 BYTE   En3
 BYTE   W12
 BYTE   Cn3
 BYTE   W06
 BYTE   Gn3
 BYTE   W06
 BYTE   Gn2
 BYTE   W06
 BYTE   Cn3
 BYTE   W06
 BYTE   Gn2
 BYTE   W06
//  #04 //071   ----------------------------------------
 BYTE   Ds3
 BYTE   W12
 BYTE   Cn3
 BYTE   W06
 BYTE   Fn3
 BYTE   W12
 BYTE   Cn3
 BYTE   W12
 BYTE   Ds3
 BYTE   W12
 BYTE   Ds3
 BYTE   W12
 BYTE   Cn3
 BYTE   W06
 BYTE   Fn3
 BYTE   W12
 BYTE   Cn3
 BYTE   W12
//  #04 //072   ----------------------------------------
 BYTE   En3
 BYTE   W12
 BYTE   Cn3
 BYTE   W06
 BYTE   Gn2
 BYTE   W12
 BYTE   Cn3
 BYTE   W12
 BYTE   En3
 BYTE   W12
 BYTE   En3
 BYTE   W12
 BYTE   Cn3
 BYTE   W06
 BYTE   Gn3
 BYTE   W06
 BYTE   Gn2
 BYTE   W06
 BYTE   Cn3
 BYTE   W06
 BYTE   Gn2
 BYTE   W06
//  #04 //073   ----------------------------------------
 BYTE   Ds3
 BYTE   W12
 BYTE   Cn3
 BYTE   W06
 BYTE   Fn3
 BYTE   W12
 BYTE   Cn3
 BYTE   W12
 BYTE   Ds3
 BYTE   W12
 BYTE   Ds3
 BYTE   W12
 BYTE   Cn3
 BYTE   W06
 BYTE   Fn3
 BYTE   W12
 BYTE   Cn3
 BYTE   W12
//  #04 //074   ----------------------------------------
 BYTE   En3
 BYTE   W12
 BYTE   Cn3
 BYTE   W06
 BYTE   Gn2
 BYTE   W12
 BYTE   Cn3
 BYTE   W12
 BYTE   En3
 BYTE   W12
 BYTE   En3
 BYTE   W12
 BYTE   Cn3
 BYTE   W06
 BYTE   Gn3
 BYTE   W06
 BYTE   Gn2
 BYTE   W06
 BYTE   Cn3
 BYTE   W06
 BYTE   Gn2
 BYTE   W06
//  #04 //075   ----------------------------------------
 BYTE   Ds3
 BYTE   W12
 BYTE   Cn3
 BYTE   W06
 BYTE   Fn3
 BYTE   W12
 BYTE   Cn3
 BYTE   W12
 BYTE   Ds3
 BYTE   W12
 BYTE   Ds3
 BYTE   W12
 BYTE   Cn3
 BYTE   W06
 BYTE   Fn3
 BYTE   W12
 BYTE   Cn3
 BYTE   W12
//  #04 //076   ----------------------------------------
 BYTE   En3
 BYTE   W12
 BYTE   Cn3
 BYTE   W06
 BYTE   Gn2
 BYTE   W12
 BYTE   Cn3
 BYTE   W12
 BYTE   En3
 BYTE   W12
 BYTE   En3
 BYTE   W12
 BYTE   Cn3
 BYTE   W06
 BYTE   Gn3
 BYTE   W06
 BYTE   Gn2
 BYTE   W06
 BYTE   Cn3
 BYTE   W06
 BYTE   Gn2
 BYTE   W06
//  #04 //077   ----------------------------------------
 BYTE   N18  Cn4
 BYTE   W18
 BYTE   Ds4
 BYTE   W18
 BYTE   N12  Gn4
 BYTE   W12
 BYTE   N24  Fn4
 BYTE   W24
 BYTE   N06  Ds4
 BYTE   W06
 BYTE   Fn4
 BYTE   W06
 BYTE   Ds4
 BYTE   W06
 BYTE   Dn4
 BYTE   W06
//  #04 //078   ----------------------------------------
 BYTE   N48  Cn4
 BYTE   W48
 BYTE   Gn4
 BYTE   W48
//  #04 //079   ----------------------------------------
 BYTE   N06  Fn4
 BYTE   W12
 BYTE   Dn4
 BYTE   W12
 BYTE   As4
 BYTE   W06
 BYTE   Fn4
 BYTE   W12
 BYTE   Dn4
 BYTE   W06
 BYTE   N18  Fn4
 BYTE   W18
 BYTE   Cn4
 BYTE   W18
 BYTE   N12  An4
 BYTE   W12
//  #04 //080   ----------------------------------------
 BYTE   N48  Gn4
 BYTE   W48
 BYTE   Dn4
 BYTE   W48
//  #04 //081   ----------------------------------------
 BYTE   N18  Cn4
 BYTE   W18
 BYTE   Ds4
 BYTE   W18
 BYTE   N12  Gn4
 BYTE   W12
 BYTE   N24  Fn4
 BYTE   W24
 BYTE   N06  Ds4
 BYTE   W06
 BYTE   Fn4
 BYTE   W06
 BYTE   Ds4
 BYTE   W06
 BYTE   Dn4
 BYTE   W06
//  #04 //082   ----------------------------------------
 BYTE   N48  Cn4
 BYTE   W48
 BYTE   Gn4
 BYTE   W48
//  #04 //083   ----------------------------------------
 BYTE   N06  Fn4
 BYTE   W12
 BYTE   Dn4
 BYTE   W12
 BYTE   As4
 BYTE   W06
 BYTE   Fn4
 BYTE   W12
 BYTE   Dn4
 BYTE   W06
 BYTE   N18  Fn4
 BYTE   W18
 BYTE   Cn4
 BYTE   W18
 BYTE   N12  An4
 BYTE   W12
//  #04 //084   ----------------------------------------
 BYTE   N48  Gn4
 BYTE   W48
 BYTE   Dn4
 BYTE   W42
 BYTE   VOL   10*ToadstoolTourSkinsMatch_mvl/mxv
 BYTE   PAN   c_v-25
 BYTE   W06
//  #04 //085   ----------------------------------------
 BYTE   N18  Cn3  v083
 BYTE   N18  Gn2
 BYTE   N18  En3
 BYTE   VOL   9*ToadstoolTourSkinsMatch_mvl/mxv
 BYTE   W06
 BYTE   VOL   8*ToadstoolTourSkinsMatch_mvl/mxv
 BYTE   W06
 BYTE   VOL   7*ToadstoolTourSkinsMatch_mvl/mxv
 BYTE   W05
 BYTE   N06  Gn2  v083
 BYTE   N06  Dn3
 BYTE   N06  Cn3
 BYTE   VOL   6*ToadstoolTourSkinsMatch_mvl/mxv
 BYTE   W06
 BYTE   VOL   5*ToadstoolTourSkinsMatch_mvl/mxv
 BYTE   W05
 BYTE   N06  En3  v083
 BYTE   N06  Cn3
 BYTE   N06  Gn2
 BYTE   W01
 BYTE   VOL   4*ToadstoolTourSkinsMatch_mvl/mxv
 BYTE   W06
 BYTE   VOL   3*ToadstoolTourSkinsMatch_mvl/mxv
 BYTE   W04
 BYTE   N06  Fn3  v083
 BYTE   N06  Gn2
 BYTE   N06  Cn3
 BYTE   W01
 BYTE   VOL   3*ToadstoolTourSkinsMatch_mvl/mxv
 BYTE   W06
 BYTE   VOL   2*ToadstoolTourSkinsMatch_mvl/mxv
 BYTE   W04
 BYTE   N06  Fn3  v083
 BYTE   N06  Cn3
 BYTE   N06  Gn2
 BYTE   W01
 BYTE   VOL   1*ToadstoolTourSkinsMatch_mvl/mxv
 BYTE   W06
 BYTE   VOL   0*ToadstoolTourSkinsMatch_mvl/mxv
 BYTE   W04
 BYTE   N06  En3  v083
 BYTE   N06  Gn2
 BYTE   N06  Cn3
 BYTE   W02
 BYTE   VOL   0*ToadstoolTourSkinsMatch_mvl/mxv
 BYTE   W03
 BYTE   N12  Gn2  v083
 BYTE   N12  Cn3
 BYTE   N12  Dn3
 BYTE   W02
 BYTE   VOL   0*ToadstoolTourSkinsMatch_mvl/mxv
 BYTE   W06
 BYTE   VOL   0*ToadstoolTourSkinsMatch_mvl/mxv
 BYTE   W03
 BYTE   N12  Cn3  v083
 BYTE   N12  Gn2
 BYTE   N12  En3
 BYTE   W02
 BYTE   VOL   0*ToadstoolTourSkinsMatch_mvl/mxv
 BYTE   W06
 BYTE   VOL   0*ToadstoolTourSkinsMatch_mvl/mxv
 BYTE   W03
 BYTE   N18  En3  v083
 BYTE   N18  Cn3
 BYTE   N18  Gn2
 BYTE   W02
 BYTE   VOL   0*ToadstoolTourSkinsMatch_mvl/mxv
 BYTE   W06
//  #04 //086   ----------------------------------------
 BYTE   VOL   0*ToadstoolTourSkinsMatch_mvl/mxv
 BYTE   W06
 BYTE   VOL   0*ToadstoolTourSkinsMatch_mvl/mxv
 BYTE   W02
 BYTE   N06  Gn2  v083
 BYTE   N06  Cn3
 BYTE   N06  Dn3
 BYTE   W03
 BYTE   VOL   0*ToadstoolTourSkinsMatch_mvl/mxv
 BYTE   W06
 BYTE   VOL   0*ToadstoolTourSkinsMatch_mvl/mxv
 BYTE   W02
 BYTE   N06  En3  v083
 BYTE   N06  Gn2
 BYTE   N06  Cn3
 BYTE   W03
 BYTE   VOL   0*ToadstoolTourSkinsMatch_mvl/mxv
 BYTE   W06
 BYTE   VOL   0*ToadstoolTourSkinsMatch_mvl/mxv
 BYTE   W02
 BYTE   N06  Gn2  v083
 BYTE   N06  Fn3
 BYTE   N06  Cn3
 BYTE   W04
 BYTE   VOL   0*ToadstoolTourSkinsMatch_mvl/mxv
 BYTE   W06
 BYTE   VOL   0*ToadstoolTourSkinsMatch_mvl/mxv
 BYTE   W01
 BYTE   N06  Fn3  v083
 BYTE   N06  Cn3
 BYTE   N06  Gn2
 BYTE   W04
 BYTE   VOL   0*ToadstoolTourSkinsMatch_mvl/mxv
 BYTE   W06
 BYTE   VOL   0*ToadstoolTourSkinsMatch_mvl/mxv
 BYTE   W01
 BYTE   N06  Cn3  v083
 BYTE   N06  Gn2
 BYTE   N06  En3
 BYTE   W04
 BYTE   VOL   0*ToadstoolTourSkinsMatch_mvl/mxv
 BYTE   W01
 BYTE   N12  Gn2  v083
 BYTE   N12  Dn3
 BYTE   N12  Cn3
 BYTE   W04
 BYTE   VOL   0*ToadstoolTourSkinsMatch_mvl/mxv
 BYTE   W06
 BYTE   VOL   0*ToadstoolTourSkinsMatch_mvl/mxv
 BYTE   N12  Gn2  v083
 BYTE   N12  Cn3
 BYTE   N12  En3
 BYTE   W05
 BYTE   VOL   0*ToadstoolTourSkinsMatch_mvl/mxv
 BYTE   W06
 BYTE   VOL   0*ToadstoolTourSkinsMatch_mvl/mxv
 BYTE   N18  Gn2  v083
 BYTE   N18  Cn3
 BYTE   N18  En3
 BYTE   W05
 BYTE   VOL   0*ToadstoolTourSkinsMatch_mvl/mxv
 BYTE   W06
 BYTE   VOL   0*ToadstoolTourSkinsMatch_mvl/mxv
 BYTE   W06
 BYTE   VOL   0*ToadstoolTourSkinsMatch_mvl/mxv
 BYTE   N06  Gn2  v083
 BYTE   N06  Cn3
 BYTE   N06  Dn3
 BYTE   W06
//  #04 //087   ----------------------------------------
 BYTE   VOL   0*ToadstoolTourSkinsMatch_mvl/mxv
 BYTE   W05
 BYTE   N06  En3  v083
 BYTE   N06  Gn2
 BYTE   N06  Cn3
 BYTE   VOL   0*ToadstoolTourSkinsMatch_mvl/mxv
 BYTE   W06
 BYTE   VOL   0*ToadstoolTourSkinsMatch_mvl/mxv
 BYTE   W05
 BYTE   N06  Fn3  v083
 BYTE   N06  Cn3
 BYTE   N06  Gn2
 BYTE   VOL   0*ToadstoolTourSkinsMatch_mvl/mxv
 BYTE   W06
 BYTE   VOL   0*ToadstoolTourSkinsMatch_mvl/mxv
 BYTE   W05
 BYTE   N06  Cn3  v083
 BYTE   N06  Fn3
 BYTE   N06  Gn2
 BYTE   VOL   0*ToadstoolTourSkinsMatch_mvl/mxv
 BYTE   W06
 BYTE   VOL   0*ToadstoolTourSkinsMatch_mvl/mxv
 BYTE   W04
 BYTE   N06  En3  v083
 BYTE   N06  Gn2
 BYTE   N06  Cn3
 BYTE   W01
 BYTE   VOL   0*ToadstoolTourSkinsMatch_mvl/mxv
 BYTE   W04
 BYTE   N12  Gn2  v083
 BYTE   N12  Dn3
 BYTE   N12  Cn3
 BYTE   W01
 BYTE   VOL   0*ToadstoolTourSkinsMatch_mvl/mxv
 BYTE   W06
 BYTE   VOL   0*ToadstoolTourSkinsMatch_mvl/mxv
 BYTE   W04
 BYTE   N12  Cn3  v083
 BYTE   N12  Gn2
 BYTE   N12  En3
 BYTE   W01
 BYTE   VOL   0*ToadstoolTourSkinsMatch_mvl/mxv
 BYTE   W06
 BYTE   VOL   0*ToadstoolTourSkinsMatch_mvl/mxv
 BYTE   W04
 BYTE   N18  Gs2  v083
 BYTE   N18  En3
 BYTE   N18  Cn3
 BYTE   W02
 BYTE   VOL   0*ToadstoolTourSkinsMatch_mvl/mxv
 BYTE   W06
 BYTE   VOL   0*ToadstoolTourSkinsMatch_mvl/mxv
 BYTE   W06
 BYTE   VOL   0*ToadstoolTourSkinsMatch_mvl/mxv
 BYTE   W03
 BYTE   N06  Dn3  v083
 BYTE   N06  Cn3
 BYTE   N06  Gs2
 BYTE   W02
 BYTE   VOL   0*ToadstoolTourSkinsMatch_mvl/mxv
 BYTE   W06
 BYTE   VOL   0*ToadstoolTourSkinsMatch_mvl/mxv
 BYTE   W03
 BYTE   N06  En3  v083
 BYTE   N06  Cn3
 BYTE   N06  Gs2
 BYTE   W02
 BYTE   VOL   0*ToadstoolTourSkinsMatch_mvl/mxv
 BYTE   W06
//  #04 //088   ----------------------------------------
 BYTE   VOL   0*ToadstoolTourSkinsMatch_mvl/mxv
 BYTE   W02
 BYTE   N06  Fn3  v083
 BYTE   N06  As2
 BYTE   N06  Dn3
 BYTE   W03
 BYTE   VOL   0*ToadstoolTourSkinsMatch_mvl/mxv
 BYTE   W06
 BYTE   VOL   0*ToadstoolTourSkinsMatch_mvl/mxv
 BYTE   W02
 BYTE   N06  Dn3  v083
 BYTE   N06  As2
 BYTE   N06  Fn3
 BYTE   W03
 BYTE   VOL   0*ToadstoolTourSkinsMatch_mvl/mxv
 BYTE   W06
 BYTE   VOL   0*ToadstoolTourSkinsMatch_mvl/mxv
 BYTE   W02
 BYTE   N06  Dn3  v083
 BYTE   N06  En3
 BYTE   N06  As2
 BYTE   W03
 BYTE   VOL   0*ToadstoolTourSkinsMatch_mvl/mxv
 BYTE   W02
 BYTE   N12  Dn3  v083
 BYTE   N12  As2
 BYTE   W04
 BYTE   VOL   0*ToadstoolTourSkinsMatch_mvl/mxv
 BYTE   W06
 BYTE   VOL   0*ToadstoolTourSkinsMatch_mvl/mxv
 BYTE   W07
 BYTE   FINE

//**************** Track 5 (Midi-Chn.4) ****************//

ToadstoolTourSkinsMatch_005:
//  #05 //000   ----------------------------------------
Label_014D4F30:
 BYTE   TEMPO   118*ToadstoolTourSkinsMatch_tbs/2
 BYTE   KEYSH   ToadstoolTourSkinsMatch_key+0
 BYTE   VOICE   90
 BYTE   VOL   35*ToadstoolTourSkinsMatch_mvl/mxv
 BYTE   PAN   c_v-13
 BYTE   W06
 BYTE   N18  En3  v102
 BYTE   W18
 BYTE   N06  Fs3
 BYTE   W12
 BYTE   Gn3
 BYTE   W12
 BYTE   An3
 BYTE   W06
 BYTE   N24  Bn3
 BYTE   W24
 BYTE   Dn3
 BYTE   W24
//  #05 //001   ----------------------------------------
Label_014D4F4B:
 BYTE   N24  Cn3  v102
 BYTE   W24
 BYTE   N06  Bn2
 BYTE   W06
 BYTE   Cn3
 BYTE   W06
 BYTE   Bn2
 BYTE   W06
 BYTE   An2
 BYTE   W06
 BYTE   N48  Bn2
 BYTE   W48
 BYTE   PEND 
//  #05 //002   ----------------------------------------
Label_014D4F5C:
 BYTE   N18  Cn3  v102
 BYTE   W18
 BYTE   Dn3
 BYTE   W18
 BYTE   N12  En3
 BYTE   W12
 BYTE   N24  Dn3
 BYTE   W24
 BYTE   Fs3
 BYTE   W24
 BYTE   PEND 
//  #05 //003   ----------------------------------------
Label_014D4F6B:
 BYTE   N18  Gn3  v102
 BYTE   W18
 BYTE   Ds3
 BYTE   W18
 BYTE   N12  Gn3
 BYTE   W12
 BYTE   N48  Fn3
 BYTE   W48
 BYTE   PEND 
//  #05 //004   ----------------------------------------
Label_014D4F78:
 BYTE   N18  Gn3  v102
 BYTE   W18
 BYTE   N30  Dn3
 BYTE   W30
 BYTE   N24
 BYTE   W24
 BYTE   Cn3
 BYTE   W24
 BYTE   PEND 
//  #05 //005   ----------------------------------------
Label_014D4F84:
 BYTE   N30  Cn3  v102
 BYTE   W30
 BYTE   N06  Dn3
 BYTE   W06
 BYTE   Ds3
 BYTE   W06
 BYTE   Gn3
 BYTE   W06
 BYTE   N48  Fn3
 BYTE   W48
 BYTE   PEND 
//  #05 //006   ----------------------------------------
Label_014D4F93:
 BYTE   N30  Gn3  v102
 BYTE   W30
 BYTE   N06  Fn3
 BYTE   W06
 BYTE   En3
 BYTE   W06
 BYTE   Fn3
 BYTE   W06
 BYTE   N18  Dn3
 BYTE   W18
 BYTE   En3
 BYTE   W18
 BYTE   N12  Fn3
 BYTE   W12
 BYTE   PEND 
//  #05 //007   ----------------------------------------
 BYTE   N18  Ds3  v102
 BYTE   W18
 BYTE   Cn3
 BYTE   W18
 BYTE   N12  Gn3
 BYTE   W12
 BYTE   N24  Fn3
 BYTE   W24
 BYTE   As3
 BYTE   W24
//  #05 //008   ----------------------------------------
 BYTE   N18  En3
 BYTE   W18
 BYTE   N06  Fs3
 BYTE   W12
 BYTE   Gn3
 BYTE   W12
 BYTE   An3
 BYTE   W06
 BYTE   N24  Bn3
 BYTE   W24
 BYTE   Dn3
 BYTE   W24
//  #05 //009   ----------------------------------------
 BYTE   PATT
  POIN2 Label_014D4F4B
//  #05 //010   ----------------------------------------
 BYTE   PATT
  POIN2 Label_014D4F5C
//  #05 //011   ----------------------------------------
 BYTE   PATT
  POIN2 Label_014D4F6B
//  #05 //012   ----------------------------------------
 BYTE   PATT
  POIN2 Label_014D4F78
//  #05 //013   ----------------------------------------
 BYTE   PATT
  POIN2 Label_014D4F84
//  #05 //014   ----------------------------------------
 BYTE   PATT
  POIN2 Label_014D4F93
//  #05 //015   ----------------------------------------
 BYTE   N18  Ds3  v102
 BYTE   W18
 BYTE   Cn3
 BYTE   W18
 BYTE   N12  Gn3
 BYTE   W12
 BYTE   N24  Fn3
 BYTE   W24
 BYTE   As3
 BYTE   W18
 BYTE   GoTo
  POIN2 Label_014D4F30
//  #05 //016   ----------------------------------------
 BYTE   W06
Label_014D4FF6:
 BYTE   N18  Gn2  v102
 BYTE   N18  Cn3
 BYTE   N18  En3
 BYTE   W18
 BYTE   N06  Gn2
 BYTE   N06  Cn3
 BYTE   N06  Dn3
 BYTE   W12
 BYTE   Gn2
 BYTE   N06  Cn3
 BYTE   N06  En3
 BYTE   W12
 BYTE   Gn2
 BYTE   N06  Cn3
 BYTE   N06  Fn3
 BYTE   W12
 BYTE   Gn2
 BYTE   N06  Cn3
 BYTE   N06  Fn3
 BYTE   W12
 BYTE   Gn2
 BYTE   N06  Cn3
 BYTE   N06  En3
 BYTE   W06
 BYTE   N12  Gn2
 BYTE   N12  Cn3
 BYTE   N12  Dn3
 BYTE   W12
 BYTE   Gn2
 BYTE   N12  Cn3
 BYTE   N12  En3
 BYTE   W12
 BYTE   PEND 
//  #05 //017   ----------------------------------------
 BYTE   PATT
  POIN2 Label_014D4FF6
//  #05 //018   ----------------------------------------
 BYTE   PATT
  POIN2 Label_014D4FF6
//  #05 //019   ----------------------------------------
Label_014D5035:
 BYTE   N18  Gs2  v102
 BYTE   N18  Cn3
 BYTE   N18  En3
 BYTE   W18
 BYTE   N06  Gs2
 BYTE   N06  Cn3
 BYTE   N06  Dn3
 BYTE   W12
 BYTE   Gs2
 BYTE   N06  Cn3
 BYTE   N06  En3
 BYTE   W12
 BYTE   Dn3
 BYTE   N06  As2
 BYTE   N06  Fn3
 BYTE   W12
 BYTE   Dn3
 BYTE   N06  As2
 BYTE   N06  Fn3
 BYTE   W12
 BYTE   Dn3
 BYTE   N06  As2
 BYTE   N06  En3
 BYTE   W06
 BYTE   N12  As2
 BYTE   N12  Dn3
 BYTE   W12
 BYTE   Dn3
 BYTE   N12  As2
 BYTE   N12  En3
 BYTE   W12
 BYTE   PEND 
//  #05 //020   ----------------------------------------
 BYTE   PATT
  POIN2 Label_014D4FF6
//  #05 //021   ----------------------------------------
 BYTE   PATT
  POIN2 Label_014D4FF6
//  #05 //022   ----------------------------------------
 BYTE   PATT
  POIN2 Label_014D4FF6
//  #05 //023   ----------------------------------------
 BYTE   PATT
  POIN2 Label_014D5035
//  #05 //024   ----------------------------------------
Label_014D507C:
 BYTE   N06  Ds3  v102
 BYTE   W12
 BYTE   Cn3
 BYTE   W06
 BYTE   Fn3
 BYTE   W12
 BYTE   Cn3
 BYTE   W12
 BYTE   Ds3
 BYTE   W12
 BYTE   Ds3
 BYTE   W12
 BYTE   Cn3
 BYTE   W06
 BYTE   Fn3
 BYTE   W12
 BYTE   Cn3
 BYTE   W12
 BYTE   PEND 
//  #05 //025   ----------------------------------------
Label_014D5091:
 BYTE   N06  En3  v102
 BYTE   W12
 BYTE   Cn3
 BYTE   W06
 BYTE   Gn2
 BYTE   W12
 BYTE   Cn3
 BYTE   W12
 BYTE   En3
 BYTE   W12
 BYTE   En3
 BYTE   W12
 BYTE   Cn3
 BYTE   W06
 BYTE   Gn3
 BYTE   W06
 BYTE   Gn2
 BYTE   W06
 BYTE   Cn3
 BYTE   W06
 BYTE   Gn2
 BYTE   W06
 BYTE   PEND 
//  #05 //026   ----------------------------------------
 BYTE   PATT
  POIN2 Label_014D507C
//  #05 //027   ----------------------------------------
 BYTE   PATT
  POIN2 Label_014D5091
//  #05 //028   ----------------------------------------
 BYTE   PATT
  POIN2 Label_014D507C
//  #05 //029   ----------------------------------------
 BYTE   PATT
  POIN2 Label_014D5091
//  #05 //030   ----------------------------------------
 BYTE   PATT
  POIN2 Label_014D507C
//  #05 //031   ----------------------------------------
 BYTE   PATT
  POIN2 Label_014D5091
//  #05 //032   ----------------------------------------
Label_014D50C8:
 BYTE   N18  Cn4  v102
 BYTE   W18
 BYTE   Ds4
 BYTE   W18
 BYTE   N12  Gn4
 BYTE   W12
 BYTE   N24  Fn4
 BYTE   W24
 BYTE   N06  Ds4
 BYTE   W06
 BYTE   Fn4
 BYTE   W06
 BYTE   Ds4
 BYTE   W06
 BYTE   Dn4
 BYTE   W06
 BYTE   PEND 
//  #05 //033   ----------------------------------------
Label_014D50DE:
 BYTE   N48  Cn4  v102
 BYTE   W48
 BYTE   Gn4
 BYTE   W48
 BYTE   PEND 
//  #05 //034   ----------------------------------------
Label_014D50E5:
 BYTE   N06  Fn4  v102
 BYTE   W12
 BYTE   Dn4
 BYTE   W12
 BYTE   As4
 BYTE   W06
 BYTE   Fn4
 BYTE   W12
 BYTE   Dn4
 BYTE   W06
 BYTE   N18  Fn4
 BYTE   W18
 BYTE   Cn4
 BYTE   W18
 BYTE   N12  An4
 BYTE   W12
 BYTE   PEND 
//  #05 //035   ----------------------------------------
 BYTE   N48  Gn4  v102
 BYTE   W48
 BYTE   Dn4
 BYTE   W48
//  #05 //036   ----------------------------------------
 BYTE   PATT
  POIN2 Label_014D50C8
//  #05 //037   ----------------------------------------
 BYTE   PATT
  POIN2 Label_014D50DE
//  #05 //038   ----------------------------------------
 BYTE   PATT
  POIN2 Label_014D50E5
//  #05 //039   ----------------------------------------
 BYTE   N48  Gn4  v102
 BYTE   W48
 BYTE   Dn4
 BYTE   W48
//  #05 //040   ----------------------------------------
 BYTE   VOL   35*ToadstoolTourSkinsMatch_mvl/mxv
 BYTE   PAN   c_v-13
 BYTE   N18  Gn2  v102
 BYTE   N18  Cn3
 BYTE   N18  En3
 BYTE   W18
 BYTE   N06  Gn2
 BYTE   N06  Cn3
 BYTE   N06  Dn3
 BYTE   W12
 BYTE   Gn2
 BYTE   N06  Cn3
 BYTE   N06  En3
 BYTE   W12
 BYTE   Gn2
 BYTE   N06  Cn3
 BYTE   N06  Fn3
 BYTE   W12
 BYTE   Gn2
 BYTE   N06  Cn3
 BYTE   N06  Fn3
 BYTE   W12
 BYTE   Gn2
 BYTE   N06  Cn3
 BYTE   N06  En3
 BYTE   W06
 BYTE   N12  Gn2
 BYTE   N12  Cn3
 BYTE   N12  Dn3
 BYTE   W12
 BYTE   Gn2
 BYTE   N12  Cn3
 BYTE   N12  En3
 BYTE   W12
//  #05 //041   ----------------------------------------
 BYTE   N18  Gn2
 BYTE   N18  Cn3
 BYTE   N18  En3
 BYTE   W18
 BYTE   N06  Gn2
 BYTE   N06  Cn3
 BYTE   N06  Dn3
 BYTE   W12
 BYTE   Gn2
 BYTE   N06  Cn3
 BYTE   N06  En3
 BYTE   W12
 BYTE   Gn2
 BYTE   N06  Cn3
 BYTE   N06  Fn3
 BYTE   W12
 BYTE   Gn2
 BYTE   N06  Cn3
 BYTE   N06  Fn3
 BYTE   W12
 BYTE   Gn2
 BYTE   N06  Cn3
 BYTE   N06  En3
 BYTE   W06
 BYTE   N12  Gn2
 BYTE   N12  Cn3
 BYTE   N12  Dn3
 BYTE   W12
 BYTE   Gn2
 BYTE   N12  Cn3
 BYTE   N12  En3
 BYTE   W12
//  #05 //042   ----------------------------------------
 BYTE   N18  Gn2
 BYTE   N18  Cn3
 BYTE   N18  En3
 BYTE   W18
 BYTE   N06  Gn2
 BYTE   N06  Cn3
 BYTE   N06  Dn3
 BYTE   W12
 BYTE   Gn2
 BYTE   N06  Cn3
 BYTE   N06  En3
 BYTE   W12
 BYTE   Gn2
 BYTE   N06  Cn3
 BYTE   N06  Fn3
 BYTE   W12
 BYTE   Gn2
 BYTE   N06  Cn3
 BYTE   N06  Fn3
 BYTE   W12
 BYTE   Gn2
 BYTE   N06  Cn3
 BYTE   N06  En3
 BYTE   W06
 BYTE   N12  Gn2
 BYTE   N12  Cn3
 BYTE   N12  Dn3
 BYTE   W12
 BYTE   Gn2
 BYTE   N12  Cn3
 BYTE   N12  En3
 BYTE   W12
//  #05 //043   ----------------------------------------
 BYTE   N18  Gs2
 BYTE   N18  Cn3
 BYTE   N18  En3
 BYTE   W18
 BYTE   N06  Gs2
 BYTE   N06  Cn3
 BYTE   N06  Dn3
 BYTE   W12
 BYTE   Gs2
 BYTE   N06  Cn3
 BYTE   N06  En3
 BYTE   W12
 BYTE   Dn3
 BYTE   N06  As2
 BYTE   N06  Fn3
 BYTE   W12
 BYTE   Dn3
 BYTE   N06  As2
 BYTE   N06  Fn3
 BYTE   W12
 BYTE   Dn3
 BYTE   N06  As2
 BYTE   N06  En3
 BYTE   W06
 BYTE   N12  As2
 BYTE   N12  Dn3
 BYTE   W12
 BYTE   Dn3
 BYTE   N12  As2
 BYTE   N12  En3
 BYTE   W12
//  #05 //044   ----------------------------------------
 BYTE   N18
 BYTE   W18
 BYTE   N06  Fs3
 BYTE   W12
 BYTE   Gn3
 BYTE   W12
 BYTE   An3
 BYTE   W06
 BYTE   N24  Bn3
 BYTE   W24
 BYTE   Dn3
 BYTE   W24
//  #05 //045   ----------------------------------------
 BYTE   Cn3
 BYTE   W24
 BYTE   N06  Bn2
 BYTE   W06
 BYTE   Cn3
 BYTE   W06
 BYTE   Bn2
 BYTE   W06
 BYTE   An2
 BYTE   W06
 BYTE   N48  Bn2
 BYTE   W48
//  #05 //046   ----------------------------------------
 BYTE   N18  Cn3
 BYTE   W18
 BYTE   Dn3
 BYTE   W18
 BYTE   N12  En3
 BYTE   W12
 BYTE   N24  Dn3
 BYTE   W24
 BYTE   Fs3
 BYTE   W24
//  #05 //047   ----------------------------------------
 BYTE   N18  Gn3
 BYTE   W18
 BYTE   Ds3
 BYTE   W18
 BYTE   N12  Gn3
 BYTE   W12
 BYTE   N48  Fn3
 BYTE   W48
//  #05 //048   ----------------------------------------
 BYTE   N18  Gn3
 BYTE   W18
 BYTE   N30  Dn3
 BYTE   W30
 BYTE   N24
 BYTE   W24
 BYTE   Cn3
 BYTE   W24
//  #05 //049   ----------------------------------------
 BYTE   N30
 BYTE   W30
 BYTE   N06  Dn3
 BYTE   W06
 BYTE   Ds3
 BYTE   W06
 BYTE   Gn3
 BYTE   W06
 BYTE   N48  Fn3
 BYTE   W48
//  #05 //050   ----------------------------------------
 BYTE   N30  Gn3
 BYTE   W30
 BYTE   N06  Fn3
 BYTE   W06
 BYTE   En3
 BYTE   W06
 BYTE   Fn3
 BYTE   W06
 BYTE   N18  Dn3
 BYTE   W18
 BYTE   En3
 BYTE   W18
 BYTE   N12  Fn3
 BYTE   W12
//  #05 //051   ----------------------------------------
 BYTE   N18  Ds3
 BYTE   W18
 BYTE   Cn3
 BYTE   W18
 BYTE   N12  Gn3
 BYTE   W12
 BYTE   N24  Fn3
 BYTE   W24
 BYTE   As3
 BYTE   W24
//  #05 //052   ----------------------------------------
 BYTE   N18  En3
 BYTE   W18
 BYTE   N06  Fs3
 BYTE   W12
 BYTE   Gn3
 BYTE   W12
 BYTE   An3
 BYTE   W06
 BYTE   N24  Bn3
 BYTE   W24
 BYTE   Dn3
 BYTE   W24
//  #05 //053   ----------------------------------------
 BYTE   Cn3
 BYTE   W24
 BYTE   N06  Bn2
 BYTE   W06
 BYTE   Cn3
 BYTE   W06
 BYTE   Bn2
 BYTE   W06
 BYTE   An2
 BYTE   W06
 BYTE   N48  Bn2
 BYTE   W48
//  #05 //054   ----------------------------------------
 BYTE   N18  Cn3
 BYTE   W18
 BYTE   Dn3
 BYTE   W18
 BYTE   N12  En3
 BYTE   W12
 BYTE   N24  Dn3
 BYTE   W24
 BYTE   Fs3
 BYTE   W24
//  #05 //055   ----------------------------------------
 BYTE   N18  Gn3
 BYTE   W18
 BYTE   Ds3
 BYTE   W18
 BYTE   N12  Gn3
 BYTE   W12
 BYTE   N48  Fn3
 BYTE   W48
//  #05 //056   ----------------------------------------
 BYTE   N18  Gn3
 BYTE   W18
 BYTE   N30  Dn3
 BYTE   W30
 BYTE   N24
 BYTE   W24
 BYTE   Cn3
 BYTE   W24
//  #05 //057   ----------------------------------------
 BYTE   N30
 BYTE   W30
 BYTE   N06  Dn3
 BYTE   W06
 BYTE   Ds3
 BYTE   W06
 BYTE   Gn3
 BYTE   W06
 BYTE   N48  Fn3
 BYTE   W48
//  #05 //058   ----------------------------------------
 BYTE   N30  Gn3
 BYTE   W30
 BYTE   N06  Fn3
 BYTE   W06
 BYTE   En3
 BYTE   W06
 BYTE   Fn3
 BYTE   W06
 BYTE   N18  Dn3
 BYTE   W18
 BYTE   En3
 BYTE   W18
 BYTE   N12  Fn3
 BYTE   W12
//  #05 //059   ----------------------------------------
 BYTE   N18  Ds3
 BYTE   W18
 BYTE   Cn3
 BYTE   W18
 BYTE   N12  Gn3
 BYTE   W12
 BYTE   N24  Fn3
 BYTE   W24
 BYTE   As3
 BYTE   W24
//  #05 //060   ----------------------------------------
 BYTE   N18  Gn2
 BYTE   N18  Cn3
 BYTE   N18  En3
 BYTE   W18
 BYTE   N06  Gn2
 BYTE   N06  Cn3
 BYTE   N06  Dn3
 BYTE   W12
 BYTE   Gn2
 BYTE   N06  Cn3
 BYTE   N06  En3
 BYTE   W12
 BYTE   Gn2
 BYTE   N06  Cn3
 BYTE   N06  Fn3
 BYTE   W12
 BYTE   Gn2
 BYTE   N06  Cn3
 BYTE   N06  Fn3
 BYTE   W12
 BYTE   Gn2
 BYTE   N06  Cn3
 BYTE   N06  En3
 BYTE   W06
 BYTE   N12  Gn2
 BYTE   N12  Cn3
 BYTE   N12  Dn3
 BYTE   W12
 BYTE   Gn2
 BYTE   N12  Cn3
 BYTE   N12  En3
 BYTE   W12
//  #05 //061   ----------------------------------------
 BYTE   N18  Gn2
 BYTE   N18  Cn3
 BYTE   N18  En3
 BYTE   W18
 BYTE   N06  Gn2
 BYTE   N06  Cn3
 BYTE   N06  Dn3
 BYTE   W12
 BYTE   Gn2
 BYTE   N06  Cn3
 BYTE   N06  En3
 BYTE   W12
 BYTE   Gn2
 BYTE   N06  Cn3
 BYTE   N06  Fn3
 BYTE   W12
 BYTE   Gn2
 BYTE   N06  Cn3
 BYTE   N06  Fn3
 BYTE   W12
 BYTE   Gn2
 BYTE   N06  Cn3
 BYTE   N06  En3
 BYTE   W06
 BYTE   N12  Gn2
 BYTE   N12  Cn3
 BYTE   N12  Dn3
 BYTE   W12
 BYTE   Gn2
 BYTE   N12  Cn3
 BYTE   N12  En3
 BYTE   W12
//  #05 //062   ----------------------------------------
 BYTE   N18  Gn2
 BYTE   N18  Cn3
 BYTE   N18  En3
 BYTE   W18
 BYTE   N06  Gn2
 BYTE   N06  Cn3
 BYTE   N06  Dn3
 BYTE   W12
 BYTE   Gn2
 BYTE   N06  Cn3
 BYTE   N06  En3
 BYTE   W12
 BYTE   Gn2
 BYTE   N06  Cn3
 BYTE   N06  Fn3
 BYTE   W12
 BYTE   Gn2
 BYTE   N06  Cn3
 BYTE   N06  Fn3
 BYTE   W12
 BYTE   Gn2
 BYTE   N06  Cn3
 BYTE   N06  En3
 BYTE   W06
 BYTE   N12  Gn2
 BYTE   N12  Cn3
 BYTE   N12  Dn3
 BYTE   W12
 BYTE   Gn2
 BYTE   N12  Cn3
 BYTE   N12  En3
 BYTE   W12
//  #05 //063   ----------------------------------------
 BYTE   N18  Gs2
 BYTE   N18  Cn3
 BYTE   N18  En3
 BYTE   W18
 BYTE   N06  Gs2
 BYTE   N06  Cn3
 BYTE   N06  Dn3
 BYTE   W12
 BYTE   Gs2
 BYTE   N06  Cn3
 BYTE   N06  En3
 BYTE   W12
 BYTE   Dn3
 BYTE   N06  As2
 BYTE   N06  Fn3
 BYTE   W12
 BYTE   Dn3
 BYTE   N06  As2
 BYTE   N06  Fn3
 BYTE   W12
 BYTE   Dn3
 BYTE   N06  As2
 BYTE   N06  En3
 BYTE   W06
 BYTE   N12  As2
 BYTE   N12  Dn3
 BYTE   W12
 BYTE   Dn3
 BYTE   N12  As2
 BYTE   N12  En3
 BYTE   W12
//  #05 //064   ----------------------------------------
 BYTE   N18  Gn2
 BYTE   N18  Cn3
 BYTE   N18  En3
 BYTE   W18
 BYTE   N06  Gn2
 BYTE   N06  Cn3
 BYTE   N06  Dn3
 BYTE   W12
 BYTE   Gn2
 BYTE   N06  Cn3
 BYTE   N06  En3
 BYTE   W12
 BYTE   Gn2
 BYTE   N06  Cn3
 BYTE   N06  Fn3
 BYTE   W12
 BYTE   Gn2
 BYTE   N06  Cn3
 BYTE   N06  Fn3
 BYTE   W12
 BYTE   Gn2
 BYTE   N06  Cn3
 BYTE   N06  En3
 BYTE   W06
 BYTE   N12  Gn2
 BYTE   N12  Cn3
 BYTE   N12  Dn3
 BYTE   W12
 BYTE   Gn2
 BYTE   N12  Cn3
 BYTE   N12  En3
 BYTE   W12
//  #05 //065   ----------------------------------------
 BYTE   N18  Gn2
 BYTE   N18  Cn3
 BYTE   N18  En3
 BYTE   W18
 BYTE   N06  Gn2
 BYTE   N06  Cn3
 BYTE   N06  Dn3
 BYTE   W12
 BYTE   Gn2
 BYTE   N06  Cn3
 BYTE   N06  En3
 BYTE   W12
 BYTE   Gn2
 BYTE   N06  Cn3
 BYTE   N06  Fn3
 BYTE   W12
 BYTE   Gn2
 BYTE   N06  Cn3
 BYTE   N06  Fn3
 BYTE   W12
 BYTE   Gn2
 BYTE   N06  Cn3
 BYTE   N06  En3
 BYTE   W06
 BYTE   N12  Gn2
 BYTE   N12  Cn3
 BYTE   N12  Dn3
 BYTE   W12
 BYTE   Gn2
 BYTE   N12  Cn3
 BYTE   N12  En3
 BYTE   W12
//  #05 //066   ----------------------------------------
 BYTE   N18  Gn2
 BYTE   N18  Cn3
 BYTE   N18  En3
 BYTE   W18
 BYTE   N06  Gn2
 BYTE   N06  Cn3
 BYTE   N06  Dn3
 BYTE   W12
 BYTE   Gn2
 BYTE   N06  Cn3
 BYTE   N06  En3
 BYTE   W12
 BYTE   Gn2
 BYTE   N06  Cn3
 BYTE   N06  Fn3
 BYTE   W12
 BYTE   Gn2
 BYTE   N06  Cn3
 BYTE   N06  Fn3
 BYTE   W12
 BYTE   Gn2
 BYTE   N06  Cn3
 BYTE   N06  En3
 BYTE   W06
 BYTE   N12  Gn2
 BYTE   N12  Cn3
 BYTE   N12  Dn3
 BYTE   W12
 BYTE   Gn2
 BYTE   N12  Cn3
 BYTE   N12  En3
 BYTE   W12
//  #05 //067   ----------------------------------------
 BYTE   N18  Gs2
 BYTE   N18  Cn3
 BYTE   N18  En3
 BYTE   W18
 BYTE   N06  Gs2
 BYTE   N06  Cn3
 BYTE   N06  Dn3
 BYTE   W12
 BYTE   Gs2
 BYTE   N06  Cn3
 BYTE   N06  En3
 BYTE   W12
 BYTE   Dn3
 BYTE   N06  As2
 BYTE   N06  Fn3
 BYTE   W12
 BYTE   Dn3
 BYTE   N06  As2
 BYTE   N06  Fn3
 BYTE   W12
 BYTE   Dn3
 BYTE   N06  As2
 BYTE   N06  En3
 BYTE   W06
 BYTE   N12  As2
 BYTE   N12  Dn3
 BYTE   W12
 BYTE   Dn3
 BYTE   N12  As2
 BYTE   N12  En3
 BYTE   W12
//  #05 //068   ----------------------------------------
 BYTE   N06  Ds3
 BYTE   W12
 BYTE   Cn3
 BYTE   W06
 BYTE   Fn3
 BYTE   W12
 BYTE   Cn3
 BYTE   W12
 BYTE   Ds3
 BYTE   W12
 BYTE   Ds3
 BYTE   W12
 BYTE   Cn3
 BYTE   W06
 BYTE   Fn3
 BYTE   W12
 BYTE   Cn3
 BYTE   W12
//  #05 //069   ----------------------------------------
 BYTE   En3
 BYTE   W12
 BYTE   Cn3
 BYTE   W06
 BYTE   Gn2
 BYTE   W12
 BYTE   Cn3
 BYTE   W12
 BYTE   En3
 BYTE   W12
 BYTE   En3
 BYTE   W12
 BYTE   Cn3
 BYTE   W06
 BYTE   Gn3
 BYTE   W06
 BYTE   Gn2
 BYTE   W06
 BYTE   Cn3
 BYTE   W06
 BYTE   Gn2
 BYTE   W06
//  #05 //070   ----------------------------------------
 BYTE   Ds3
 BYTE   W12
 BYTE   Cn3
 BYTE   W06
 BYTE   Fn3
 BYTE   W12
 BYTE   Cn3
 BYTE   W12
 BYTE   Ds3
 BYTE   W12
 BYTE   Ds3
 BYTE   W12
 BYTE   Cn3
 BYTE   W06
 BYTE   Fn3
 BYTE   W12
 BYTE   Cn3
 BYTE   W12
//  #05 //071   ----------------------------------------
 BYTE   En3
 BYTE   W12
 BYTE   Cn3
 BYTE   W06
 BYTE   Gn2
 BYTE   W12
 BYTE   Cn3
 BYTE   W12
 BYTE   En3
 BYTE   W12
 BYTE   En3
 BYTE   W12
 BYTE   Cn3
 BYTE   W06
 BYTE   Gn3
 BYTE   W06
 BYTE   Gn2
 BYTE   W06
 BYTE   Cn3
 BYTE   W06
 BYTE   Gn2
 BYTE   W06
//  #05 //072   ----------------------------------------
 BYTE   Ds3
 BYTE   W12
 BYTE   Cn3
 BYTE   W06
 BYTE   Fn3
 BYTE   W12
 BYTE   Cn3
 BYTE   W12
 BYTE   Ds3
 BYTE   W12
 BYTE   Ds3
 BYTE   W12
 BYTE   Cn3
 BYTE   W06
 BYTE   Fn3
 BYTE   W12
 BYTE   Cn3
 BYTE   W12
//  #05 //073   ----------------------------------------
 BYTE   En3
 BYTE   W12
 BYTE   Cn3
 BYTE   W06
 BYTE   Gn2
 BYTE   W12
 BYTE   Cn3
 BYTE   W12
 BYTE   En3
 BYTE   W12
 BYTE   En3
 BYTE   W12
 BYTE   Cn3
 BYTE   W06
 BYTE   Gn3
 BYTE   W06
 BYTE   Gn2
 BYTE   W06
 BYTE   Cn3
 BYTE   W06
 BYTE   Gn2
 BYTE   W06
//  #05 //074   ----------------------------------------
 BYTE   Ds3
 BYTE   W12
 BYTE   Cn3
 BYTE   W06
 BYTE   Fn3
 BYTE   W12
 BYTE   Cn3
 BYTE   W12
 BYTE   Ds3
 BYTE   W12
 BYTE   Ds3
 BYTE   W12
 BYTE   Cn3
 BYTE   W06
 BYTE   Fn3
 BYTE   W12
 BYTE   Cn3
 BYTE   W12
//  #05 //075   ----------------------------------------
 BYTE   En3
 BYTE   W12
 BYTE   Cn3
 BYTE   W06
 BYTE   Gn2
 BYTE   W12
 BYTE   Cn3
 BYTE   W12
 BYTE   En3
 BYTE   W12
 BYTE   En3
 BYTE   W12
 BYTE   Cn3
 BYTE   W06
 BYTE   Gn3
 BYTE   W06
 BYTE   Gn2
 BYTE   W06
 BYTE   Cn3
 BYTE   W06
 BYTE   Gn2
 BYTE   W06
//  #05 //076   ----------------------------------------
 BYTE   N18  Cn4
 BYTE   W18
 BYTE   Ds4
 BYTE   W18
 BYTE   N12  Gn4
 BYTE   W12
 BYTE   N24  Fn4
 BYTE   W24
 BYTE   N06  Ds4
 BYTE   W06
 BYTE   Fn4
 BYTE   W06
 BYTE   Ds4
 BYTE   W06
 BYTE   Dn4
 BYTE   W06
//  #05 //077   ----------------------------------------
 BYTE   N48  Cn4
 BYTE   W48
 BYTE   Gn4
 BYTE   W48
//  #05 //078   ----------------------------------------
 BYTE   N06  Fn4
 BYTE   W12
 BYTE   Dn4
 BYTE   W12
 BYTE   As4
 BYTE   W06
 BYTE   Fn4
 BYTE   W12
 BYTE   Dn4
 BYTE   W06
 BYTE   N18  Fn4
 BYTE   W18
 BYTE   Cn4
 BYTE   W18
 BYTE   N12  An4
 BYTE   W12
//  #05 //079   ----------------------------------------
 BYTE   N48  Gn4
 BYTE   W48
 BYTE   Dn4
 BYTE   W48
//  #05 //080   ----------------------------------------
 BYTE   N18  Cn4
 BYTE   W18
 BYTE   Ds4
 BYTE   W18
 BYTE   N12  Gn4
 BYTE   W12
 BYTE   N24  Fn4
 BYTE   W24
 BYTE   N06  Ds4
 BYTE   W06
 BYTE   Fn4
 BYTE   W06
 BYTE   Ds4
 BYTE   W06
 BYTE   Dn4
 BYTE   W06
//  #05 //081   ----------------------------------------
 BYTE   N48  Cn4
 BYTE   W48
 BYTE   Gn4
 BYTE   W48
//  #05 //082   ----------------------------------------
 BYTE   N06  Fn4
 BYTE   W12
 BYTE   Dn4
 BYTE   W12
 BYTE   As4
 BYTE   W06
 BYTE   Fn4
 BYTE   W12
 BYTE   Dn4
 BYTE   W06
 BYTE   N18  Fn4
 BYTE   W18
 BYTE   Cn4
 BYTE   W18
 BYTE   N12  An4
 BYTE   W12
//  #05 //083   ----------------------------------------
 BYTE   N48  Gn4
 BYTE   W48
 BYTE   Dn4
 BYTE   W48
//  #05 //084   ----------------------------------------
 BYTE   VOL   34*ToadstoolTourSkinsMatch_mvl/mxv
 BYTE   PAN   c_v-13
 BYTE   N18  Cn3  v102
 BYTE   N18  Gn2
 BYTE   N18  En3
 BYTE   W03
 BYTE   VOL   32*ToadstoolTourSkinsMatch_mvl/mxv
 BYTE   W03
 BYTE   VOL   31*ToadstoolTourSkinsMatch_mvl/mxv
 BYTE   W03
 BYTE   VOL   29*ToadstoolTourSkinsMatch_mvl/mxv
 BYTE   W03
 BYTE   VOL   28*ToadstoolTourSkinsMatch_mvl/mxv
 BYTE   W02
 BYTE   N06  Dn3  v102
 BYTE   N06  Gn2
 BYTE   N06  Cn3
 BYTE   VOL   27*ToadstoolTourSkinsMatch_mvl/mxv
 BYTE   W03
 BYTE   VOL   25*ToadstoolTourSkinsMatch_mvl/mxv
 BYTE   W03
 BYTE   VOL   24*ToadstoolTourSkinsMatch_mvl/mxv
 BYTE   W03
 BYTE   N06  En3  v102
 BYTE   N06  Gn2
 BYTE   N06  Cn3
 BYTE   VOL   23*ToadstoolTourSkinsMatch_mvl/mxv
 BYTE   W03
 BYTE   VOL   21*ToadstoolTourSkinsMatch_mvl/mxv
 BYTE   W03
 BYTE   VOL   20*ToadstoolTourSkinsMatch_mvl/mxv
 BYTE   W03
 BYTE   VOL   19*ToadstoolTourSkinsMatch_mvl/mxv
 BYTE   N06  Fn3  v102
 BYTE   N06  Cn3
 BYTE   N06  Gn2
 BYTE   W03
 BYTE   VOL   17*ToadstoolTourSkinsMatch_mvl/mxv
 BYTE   W03
 BYTE   VOL   16*ToadstoolTourSkinsMatch_mvl/mxv
 BYTE   W03
 BYTE   VOL   15*ToadstoolTourSkinsMatch_mvl/mxv
 BYTE   N06  Gn2  v102
 BYTE   N06  Cn3
 BYTE   N06  Fn3
 BYTE   W02
 BYTE   VOL   13*ToadstoolTourSkinsMatch_mvl/mxv
 BYTE   W03
 BYTE   VOL   12*ToadstoolTourSkinsMatch_mvl/mxv
 BYTE   W03
 BYTE   VOL   11*ToadstoolTourSkinsMatch_mvl/mxv
 BYTE   W01
 BYTE   N06  Cn3  v102
 BYTE   N06  En3
 BYTE   N06  Gn2
 BYTE   W02
 BYTE   VOL   10*ToadstoolTourSkinsMatch_mvl/mxv
 BYTE   W03
 BYTE   N12  Cn3  v102
 BYTE   N12  Gn2
 BYTE   N12  Dn3
 BYTE   VOL   8*ToadstoolTourSkinsMatch_mvl/mxv
 BYTE   W03
 BYTE   VOL   7*ToadstoolTourSkinsMatch_mvl/mxv
 BYTE   W03
 BYTE   VOL   6*ToadstoolTourSkinsMatch_mvl/mxv
 BYTE   W03
 BYTE   VOL   5*ToadstoolTourSkinsMatch_mvl/mxv
 BYTE   N12  En3  v102
 BYTE   N12  Gn2
 BYTE   N12  Cn3
 BYTE   W03
 BYTE   VOL   3*ToadstoolTourSkinsMatch_mvl/mxv
 BYTE   W03
 BYTE   VOL   2*ToadstoolTourSkinsMatch_mvl/mxv
 BYTE   W03
 BYTE   VOL   1*ToadstoolTourSkinsMatch_mvl/mxv
 BYTE   W01
 BYTE   N18  Gn2  v102
 BYTE   N18  Cn3
 BYTE   N18  En3
 BYTE   W02
 BYTE   VOL   0*ToadstoolTourSkinsMatch_mvl/mxv
 BYTE   W03
 BYTE   VOL   0*ToadstoolTourSkinsMatch_mvl/mxv
 BYTE   W03
 BYTE   VOL   0*ToadstoolTourSkinsMatch_mvl/mxv
 BYTE   W03
 BYTE   VOL   0*ToadstoolTourSkinsMatch_mvl/mxv
 BYTE   W03
 BYTE   VOL   0*ToadstoolTourSkinsMatch_mvl/mxv
 BYTE   N06  Dn3  v102
 BYTE   N06  Gn2
 BYTE   N06  Cn3
 BYTE   W03
 BYTE   VOL   0*ToadstoolTourSkinsMatch_mvl/mxv
 BYTE   W03
 BYTE   VOL   0*ToadstoolTourSkinsMatch_mvl/mxv
 BYTE   W03
//  #05 //085   ----------------------------------------
 BYTE   VOL   0*ToadstoolTourSkinsMatch_mvl/mxv
 BYTE   N06  Gn2  v102
 BYTE   N06  En3
 BYTE   N06  Cn3
 BYTE   W03
 BYTE   VOL   0*ToadstoolTourSkinsMatch_mvl/mxv
 BYTE   W03
 BYTE   VOL   0*ToadstoolTourSkinsMatch_mvl/mxv
 BYTE   W03
 BYTE   VOL   0*ToadstoolTourSkinsMatch_mvl/mxv
 BYTE   W01
 BYTE   N06  Cn3  v102
 BYTE   N06  Gn2
 BYTE   N06  Fn3
 BYTE   W02
 BYTE   VOL   0*ToadstoolTourSkinsMatch_mvl/mxv
 BYTE   W03
 BYTE   VOL   0*ToadstoolTourSkinsMatch_mvl/mxv
 BYTE   W03
 BYTE   VOL   0*ToadstoolTourSkinsMatch_mvl/mxv
 BYTE   W02
 BYTE   N06  Cn3  v102
 BYTE   N06  Fn3
 BYTE   N06  Gn2
 BYTE   W01
 BYTE   VOL   0*ToadstoolTourSkinsMatch_mvl/mxv
 BYTE   W03
 BYTE   VOL   0*ToadstoolTourSkinsMatch_mvl/mxv
 BYTE   W03
 BYTE   VOL   0*ToadstoolTourSkinsMatch_mvl/mxv
 BYTE   W02
 BYTE   N06  Gn2  v102
 BYTE   N06  Cn3
 BYTE   N06  En3
 BYTE   W01
 BYTE   VOL   0*ToadstoolTourSkinsMatch_mvl/mxv
 BYTE   W03
 BYTE   VOL   0*ToadstoolTourSkinsMatch_mvl/mxv
 BYTE   W01
 BYTE   N12  Cn3  v102
 BYTE   N12  Dn3
 BYTE   N12  Gn2
 BYTE   W02
 BYTE   VOL   0*ToadstoolTourSkinsMatch_mvl/mxv
 BYTE   W03
 BYTE   VOL   0*ToadstoolTourSkinsMatch_mvl/mxv
 BYTE   W03
 BYTE   VOL   0*ToadstoolTourSkinsMatch_mvl/mxv
 BYTE   W01
 BYTE   N12  Gn2  v102
 BYTE   N12  Cn3
 BYTE   N12  En3
 BYTE   W02
 BYTE   VOL   0*ToadstoolTourSkinsMatch_mvl/mxv
 BYTE   W03
 BYTE   VOL   0*ToadstoolTourSkinsMatch_mvl/mxv
 BYTE   W03
 BYTE   VOL   0*ToadstoolTourSkinsMatch_mvl/mxv
 BYTE   W02
 BYTE   N18  Gn2  v102
 BYTE   N18  En3
 BYTE   N18  Cn3
 BYTE   W01
 BYTE   VOL   0*ToadstoolTourSkinsMatch_mvl/mxv
 BYTE   W03
 BYTE   VOL   0*ToadstoolTourSkinsMatch_mvl/mxv
 BYTE   W03
 BYTE   VOL   0*ToadstoolTourSkinsMatch_mvl/mxv
 BYTE   W03
 BYTE   VOL   0*ToadstoolTourSkinsMatch_mvl/mxv
 BYTE   W03
 BYTE   VOL   0*ToadstoolTourSkinsMatch_mvl/mxv
 BYTE   W01
 BYTE   N06  Gn2  v102
 BYTE   N06  Cn3
 BYTE   N06  Dn3
 BYTE   W02
 BYTE   VOL   0*ToadstoolTourSkinsMatch_mvl/mxv
 BYTE   W03
 BYTE   VOL   0*ToadstoolTourSkinsMatch_mvl/mxv
 BYTE   W03
 BYTE   VOL   0*ToadstoolTourSkinsMatch_mvl/mxv
 BYTE   W01
 BYTE   N06  Cn3  v102
 BYTE   N06  Gn2
 BYTE   N06  En3
 BYTE   W01
 BYTE   VOL   0*ToadstoolTourSkinsMatch_mvl/mxv
 BYTE   W03
 BYTE   VOL   0*ToadstoolTourSkinsMatch_mvl/mxv
 BYTE   W03
 BYTE   VOL   0*ToadstoolTourSkinsMatch_mvl/mxv
 BYTE   W02
 BYTE   N06  Fn3  v102
 BYTE   N06  Cn3
 BYTE   N06  Gn2
 BYTE   W01
 BYTE   VOL   0*ToadstoolTourSkinsMatch_mvl/mxv
 BYTE   W03
 BYTE   VOL   0*ToadstoolTourSkinsMatch_mvl/mxv
 BYTE   W03
 BYTE   VOL   0*ToadstoolTourSkinsMatch_mvl/mxv
 BYTE   W03
 BYTE   N06  Gn2  v102
 BYTE   N06  Cn3
 BYTE   N06  Fn3
 BYTE   VOL   0*ToadstoolTourSkinsMatch_mvl/mxv
 BYTE   W03
//  #05 //086   ----------------------------------------
 BYTE   VOL   0*ToadstoolTourSkinsMatch_mvl/mxv
 BYTE   W03
 BYTE   VOL   0*ToadstoolTourSkinsMatch_mvl/mxv
 BYTE   W03
 BYTE   VOL   0*ToadstoolTourSkinsMatch_mvl/mxv
 BYTE   N06  Cn3  v102
 BYTE   N06  Gn2
 BYTE   N06  En3
 BYTE   W03
 BYTE   VOL   0*ToadstoolTourSkinsMatch_mvl/mxv
 BYTE   W02
 BYTE   N12  Gn2  v102
 BYTE   N12  Cn3
 BYTE   N12  Dn3
 BYTE   W01
 BYTE   VOL   0*ToadstoolTourSkinsMatch_mvl/mxv
 BYTE   W03
 BYTE   VOL   0*ToadstoolTourSkinsMatch_mvl/mxv
 BYTE   W03
 BYTE   VOL   0*ToadstoolTourSkinsMatch_mvl/mxv
 BYTE   W02
 BYTE   N12  Gn2  v102
 BYTE   N12  En3
 BYTE   N12  Cn3
 BYTE   VOL   0*ToadstoolTourSkinsMatch_mvl/mxv
 BYTE   W03
 BYTE   VOL   0*ToadstoolTourSkinsMatch_mvl/mxv
 BYTE   W03
 BYTE   VOL   0*ToadstoolTourSkinsMatch_mvl/mxv
 BYTE   W03
 BYTE   N18  En3  v102
 BYTE   N18  Gs2
 BYTE   N18  Cn3
 BYTE   VOL   0*ToadstoolTourSkinsMatch_mvl/mxv
 BYTE   W03
 BYTE   VOL   0*ToadstoolTourSkinsMatch_mvl/mxv
 BYTE   W03
 BYTE   VOL   0*ToadstoolTourSkinsMatch_mvl/mxv
 BYTE   W03
 BYTE   VOL   0*ToadstoolTourSkinsMatch_mvl/mxv
 BYTE   W03
 BYTE   VOL   0*ToadstoolTourSkinsMatch_mvl/mxv
 BYTE   W02
 BYTE   N06  Cn3  v102
 BYTE   N06  Dn3
 BYTE   N06  Gs2
 BYTE   W01
 BYTE   VOL   0*ToadstoolTourSkinsMatch_mvl/mxv
 BYTE   W03
 BYTE   VOL   0*ToadstoolTourSkinsMatch_mvl/mxv
 BYTE   W03
 BYTE   VOL   0*ToadstoolTourSkinsMatch_mvl/mxv
 BYTE   W03
 BYTE   N06  Cn3  v102
 BYTE   N06  En3
 BYTE   N06  Gs2
 BYTE   VOL   0*ToadstoolTourSkinsMatch_mvl/mxv
 BYTE   W03
 BYTE   VOL   0*ToadstoolTourSkinsMatch_mvl/mxv
 BYTE   W03
 BYTE   VOL   0*ToadstoolTourSkinsMatch_mvl/mxv
 BYTE   W03
 BYTE   N06  As2  v102
 BYTE   N06  Fn3
 BYTE   N06  Dn3
 BYTE   VOL   0*ToadstoolTourSkinsMatch_mvl/mxv
 BYTE   W03
 BYTE   VOL   0*ToadstoolTourSkinsMatch_mvl/mxv
 BYTE   W03
 BYTE   VOL   0*ToadstoolTourSkinsMatch_mvl/mxv
 BYTE   W03
 BYTE   VOL   0*ToadstoolTourSkinsMatch_mvl/mxv
 BYTE   N06  As2  v102
 BYTE   N06  Dn3
 BYTE   N06  Fn3
 BYTE   W03
 BYTE   VOL   0*ToadstoolTourSkinsMatch_mvl/mxv
 BYTE   W03
 BYTE   VOL   0*ToadstoolTourSkinsMatch_mvl/mxv
 BYTE   W03
 BYTE   VOL   0*ToadstoolTourSkinsMatch_mvl/mxv
 BYTE   W01
 BYTE   N06  Dn3  v102
 BYTE   N06  As2
 BYTE   N06  En3
 BYTE   W02
 BYTE   VOL   0*ToadstoolTourSkinsMatch_mvl/mxv
 BYTE   W03
 BYTE   N12  As2  v102
 BYTE   N12  Dn3
 BYTE   VOL   0*ToadstoolTourSkinsMatch_mvl/mxv
 BYTE   W03
 BYTE   VOL   0*ToadstoolTourSkinsMatch_mvl/mxv
 BYTE   W03
 BYTE   VOL   0*ToadstoolTourSkinsMatch_mvl/mxv
 BYTE   W03
 BYTE   VOL   0*ToadstoolTourSkinsMatch_mvl/mxv
 BYTE   N12  Dn3  v102
 BYTE   N12  En3
 BYTE   N12  As2
 BYTE   W03
//  #05 //087   ----------------------------------------
 BYTE   VOL   0*ToadstoolTourSkinsMatch_mvl/mxv
 BYTE   W03
 BYTE   VOL   0*ToadstoolTourSkinsMatch_mvl/mxv
 BYTE   W04
 BYTE   FINE

//**************** Track 6 (Midi-Chn.5) ****************//

ToadstoolTourSkinsMatch_006:
//  #06 //000   ----------------------------------------
Label_014D220C:
 BYTE   TEMPO   118*ToadstoolTourSkinsMatch_tbs/2
 BYTE   KEYSH   ToadstoolTourSkinsMatch_key+0
 BYTE   VOICE   50
 BYTE   VOL   25*ToadstoolTourSkinsMatch_mvl/mxv
 BYTE   PAN   c_v-19
 BYTE   W06
 BYTE   N48  Bn2  v102
 BYTE   N48  Gn3
 BYTE   W48
 BYTE   An2
 BYTE   N48  Fs3
 BYTE   W48
//  #06 //001   ----------------------------------------
Label_014D2221:
 BYTE   N48  Cn3  v102
 BYTE   N48  Gn3
 BYTE   W48
 BYTE   Bn2
 BYTE   N48  Fs3
 BYTE   W48
 BYTE   PEND 
//  #06 //002   ----------------------------------------
Label_014D222C:
 BYTE   N48  Gn2  v102
 BYTE   N48  En3
 BYTE   W48
 BYTE   An2
 BYTE   N48  Fs3
 BYTE   W48
 BYTE   PEND 
//  #06 //003   ----------------------------------------
Label_014D2237:
 BYTE   N48  As2  v102
 BYTE   N48  Gn3
 BYTE   W48
 BYTE   An2
 BYTE   N48  Fn3
 BYTE   W48
 BYTE   PEND 
//  #06 //004   ----------------------------------------
Label_014D2242:
 BYTE   N48  Bn2  v102
 BYTE   N48  Gn3
 BYTE   W48
 BYTE   An2
 BYTE   N48  Fn3
 BYTE   W48
 BYTE   PEND 
//  #06 //005   ----------------------------------------
Label_014D224D:
 BYTE   N48  Gs2  v102
 BYTE   N48  Ds3
 BYTE   W48
 BYTE   As2
 BYTE   N48  Fn3
 BYTE   W48
 BYTE   PEND 
//  #06 //006   ----------------------------------------
Label_014D2258:
 BYTE   N24  En3  v102
 BYTE   N24  Gn2
 BYTE   W24
 BYTE   Cn3
 BYTE   N24  Gn3
 BYTE   W24
 BYTE   As2
 BYTE   N24  Fn3
 BYTE   W24
 BYTE   Dn3
 BYTE   N24  As3
 BYTE   W24
 BYTE   PEND 
//  #06 //007   ----------------------------------------
 BYTE   N48  Ds3  v102
 BYTE   N48  Gn3
 BYTE   W48
 BYTE   Dn3
 BYTE   N48  Fn3
 BYTE   W48
//  #06 //008   ----------------------------------------
 BYTE   Bn2
 BYTE   N48  Gn3
 BYTE   W48
 BYTE   An2
 BYTE   N48  Fs3
 BYTE   W48
//  #06 //009   ----------------------------------------
 BYTE   PATT
  POIN2 Label_014D2221
//  #06 //010   ----------------------------------------
 BYTE   PATT
  POIN2 Label_014D222C
//  #06 //011   ----------------------------------------
 BYTE   PATT
  POIN2 Label_014D2237
//  #06 //012   ----------------------------------------
 BYTE   PATT
  POIN2 Label_014D2242
//  #06 //013   ----------------------------------------
 BYTE   PATT
  POIN2 Label_014D224D
//  #06 //014   ----------------------------------------
 BYTE   PATT
  POIN2 Label_014D2258
//  #06 //015   ----------------------------------------
 BYTE   N48  Ds3  v102
 BYTE   N48  Gn3
 BYTE   W48
 BYTE   Dn3
 BYTE   N48  Fn3
 BYTE   W42
 BYTE   GoTo
  POIN2 Label_014D220C
//  #06 //016   ----------------------------------------
 BYTE   W06
Label_014D22AB:
 BYTE   N48  Gn4  v102
 BYTE   W48
 BYTE   Cn4
 BYTE   W48
 BYTE   PEND 
//  #06 //017   ----------------------------------------
Label_014D22B2:
 BYTE   N48  Gn4  v102
 BYTE   W48
 BYTE   Cn5
 BYTE   W48
 BYTE   PEND 
//  #06 //018   ----------------------------------------
Label_014D22B9:
 BYTE   N48  Cn5  v102
 BYTE   W48
 BYTE   N24  Gn4
 BYTE   W24
 BYTE   Cn5
 BYTE   W24
 BYTE   PEND 
//  #06 //019   ----------------------------------------
Label_014D22C3:
 BYTE   N48  Cn5  v102
 BYTE   W48
 BYTE   As4
 BYTE   W48
 BYTE   PEND 
//  #06 //020   ----------------------------------------
 BYTE   PATT
  POIN2 Label_014D22AB
//  #06 //021   ----------------------------------------
 BYTE   PATT
  POIN2 Label_014D22B2
//  #06 //022   ----------------------------------------
 BYTE   PATT
  POIN2 Label_014D22B9
//  #06 //023   ----------------------------------------
 BYTE   PATT
  POIN2 Label_014D22C3
//  #06 //024   ----------------------------------------
 BYTE   N48  Cn4  v102
 BYTE   N96  Gs3
 BYTE   W48
 BYTE   N48  Fn4
 BYTE   W48
//  #06 //025   ----------------------------------------
 BYTE   En4
 BYTE   N96  Gn3
 BYTE   W48
 BYTE   N48  Cn4
 BYTE   W48
//  #06 //026   ----------------------------------------
 BYTE   As3
 BYTE   N96  Gs3
 BYTE   W48
 BYTE   N48  Cn4
 BYTE   W48
//  #06 //027   ----------------------------------------
Label_014D22F5:
 BYTE   N48  En4  v102
 BYTE   N96  Gn3
 BYTE   W48
 BYTE   N48  Gn4
 BYTE   W48
 BYTE   PEND 
//  #06 //028   ----------------------------------------
 BYTE   N48  Gs4  v102
 BYTE   N96  Gs3
 BYTE   W48
 BYTE   N48  Cn5
 BYTE   W48
//  #06 //029   ----------------------------------------
 BYTE   Cn5
 BYTE   N96  Gn3
 BYTE   W48
 BYTE   N48  Gn4
 BYTE   W48
//  #06 //030   ----------------------------------------
 BYTE   Fn4
 BYTE   N96  Gs3
 BYTE   W48
 BYTE   N48  Cn4
 BYTE   W48
//  #06 //031   ----------------------------------------
 BYTE   PATT
  POIN2 Label_014D22F5
//  #06 //032   ----------------------------------------
 BYTE   PATT
  POIN2 Label_014D224D
//  #06 //033   ----------------------------------------
Label_014D2320:
 BYTE   N48  Cn3  v102
 BYTE   N48  Gn3
 BYTE   W48
 BYTE   En3
 BYTE   N48  Bn3
 BYTE   W48
 BYTE   PEND 
//  #06 //034   ----------------------------------------
Label_014D232B:
 BYTE   N48  Ds3  v102
 BYTE   N48  As3
 BYTE   W48
 BYTE   Fn3
 BYTE   N48  Cn4
 BYTE   W48
 BYTE   PEND 
//  #06 //035   ----------------------------------------
 BYTE   N48  Dn3  v102
 BYTE   N48  Bn3
 BYTE   W48
 BYTE   Bn2
 BYTE   N48  Gn3
 BYTE   W48
//  #06 //036   ----------------------------------------
 BYTE   PATT
  POIN2 Label_014D224D
//  #06 //037   ----------------------------------------
 BYTE   PATT
  POIN2 Label_014D2320
//  #06 //038   ----------------------------------------
 BYTE   PATT
  POIN2 Label_014D232B
//  #06 //039   ----------------------------------------
 BYTE   N48  En3  v102
 BYTE   N48  Bn3
 BYTE   W48
 BYTE   Bn2
 BYTE   N48  Gn3
 BYTE   W48
//  #06 //040   ----------------------------------------
 BYTE   VOL   25*ToadstoolTourSkinsMatch_mvl/mxv
 BYTE   PAN   c_v-19
 BYTE   N48  Gn4  v102
 BYTE   W48
 BYTE   Cn4
 BYTE   W48
//  #06 //041   ----------------------------------------
 BYTE   Gn4
 BYTE   W48
 BYTE   Cn5
 BYTE   W48
//  #06 //042   ----------------------------------------
 BYTE   Cn5
 BYTE   W48
 BYTE   N24  Gn4
 BYTE   W24
 BYTE   Cn5
 BYTE   W24
//  #06 //043   ----------------------------------------
 BYTE   N48
 BYTE   W48
 BYTE   As4
 BYTE   W48
//  #06 //044   ----------------------------------------
 BYTE   Bn2
 BYTE   N48  Gn3
 BYTE   W48
 BYTE   An2
 BYTE   N48  Fs3
 BYTE   W48
//  #06 //045   ----------------------------------------
 BYTE   Cn3
 BYTE   N48  Gn3
 BYTE   W48
 BYTE   Bn2
 BYTE   N48  Fs3
 BYTE   W48
//  #06 //046   ----------------------------------------
 BYTE   Gn2
 BYTE   N48  En3
 BYTE   W48
 BYTE   An2
 BYTE   N48  Fs3
 BYTE   W48
//  #06 //047   ----------------------------------------
 BYTE   As2
 BYTE   N48  Gn3
 BYTE   W48
 BYTE   An2
 BYTE   N48  Fn3
 BYTE   W48
//  #06 //048   ----------------------------------------
 BYTE   Bn2
 BYTE   N48  Gn3
 BYTE   W48
 BYTE   An2
 BYTE   N48  Fn3
 BYTE   W48
//  #06 //049   ----------------------------------------
 BYTE   Gs2
 BYTE   N48  Ds3
 BYTE   W48
 BYTE   As2
 BYTE   N48  Fn3
 BYTE   W48
//  #06 //050   ----------------------------------------
 BYTE   N24  En3
 BYTE   N24  Gn2
 BYTE   W24
 BYTE   Cn3
 BYTE   N24  Gn3
 BYTE   W24
 BYTE   As2
 BYTE   N24  Fn3
 BYTE   W24
 BYTE   Dn3
 BYTE   N24  As3
 BYTE   W24
//  #06 //051   ----------------------------------------
 BYTE   N48  Ds3
 BYTE   N48  Gn3
 BYTE   W48
 BYTE   Dn3
 BYTE   N48  Fn3
 BYTE   W48
//  #06 //052   ----------------------------------------
 BYTE   Bn2
 BYTE   N48  Gn3
 BYTE   W48
 BYTE   An2
 BYTE   N48  Fs3
 BYTE   W48
//  #06 //053   ----------------------------------------
 BYTE   Cn3
 BYTE   N48  Gn3
 BYTE   W48
 BYTE   Bn2
 BYTE   N48  Fs3
 BYTE   W48
//  #06 //054   ----------------------------------------
 BYTE   Gn2
 BYTE   N48  En3
 BYTE   W48
 BYTE   An2
 BYTE   N48  Fs3
 BYTE   W48
//  #06 //055   ----------------------------------------
 BYTE   As2
 BYTE   N48  Gn3
 BYTE   W48
 BYTE   An2
 BYTE   N48  Fn3
 BYTE   W48
//  #06 //056   ----------------------------------------
 BYTE   Bn2
 BYTE   N48  Gn3
 BYTE   W48
 BYTE   An2
 BYTE   N48  Fn3
 BYTE   W48
//  #06 //057   ----------------------------------------
 BYTE   Gs2
 BYTE   N48  Ds3
 BYTE   W48
 BYTE   As2
 BYTE   N48  Fn3
 BYTE   W48
//  #06 //058   ----------------------------------------
 BYTE   N24  En3
 BYTE   N24  Gn2
 BYTE   W24
 BYTE   Cn3
 BYTE   N24  Gn3
 BYTE   W24
 BYTE   As2
 BYTE   N24  Fn3
 BYTE   W24
 BYTE   Dn3
 BYTE   N24  As3
 BYTE   W24
//  #06 //059   ----------------------------------------
 BYTE   N48  Ds3
 BYTE   N48  Gn3
 BYTE   W48
 BYTE   Dn3
 BYTE   N48  Fn3
 BYTE   W48
//  #06 //060   ----------------------------------------
 BYTE   Gn4
 BYTE   W48
 BYTE   Cn4
 BYTE   W48
//  #06 //061   ----------------------------------------
 BYTE   Gn4
 BYTE   W48
 BYTE   Cn5
 BYTE   W48
//  #06 //062   ----------------------------------------
 BYTE   Cn5
 BYTE   W48
 BYTE   N24  Gn4
 BYTE   W24
 BYTE   Cn5
 BYTE   W24
//  #06 //063   ----------------------------------------
 BYTE   N48
 BYTE   W48
 BYTE   As4
 BYTE   W48
//  #06 //064   ----------------------------------------
 BYTE   Gn4
 BYTE   W48
 BYTE   Cn4
 BYTE   W48
//  #06 //065   ----------------------------------------
 BYTE   Gn4
 BYTE   W48
 BYTE   Cn5
 BYTE   W48
//  #06 //066   ----------------------------------------
 BYTE   Cn5
 BYTE   W48
 BYTE   N24  Gn4
 BYTE   W24
 BYTE   Cn5
 BYTE   W24
//  #06 //067   ----------------------------------------
 BYTE   N48
 BYTE   W48
 BYTE   As4
 BYTE   W48
//  #06 //068   ----------------------------------------
 BYTE   Cn4
 BYTE   N96  Gs3
 BYTE   W48
 BYTE   N48  Fn4
 BYTE   W48
//  #06 //069   ----------------------------------------
 BYTE   En4
 BYTE   N96  Gn3
 BYTE   W48
 BYTE   N48  Cn4
 BYTE   W48
//  #06 //070   ----------------------------------------
 BYTE   As3
 BYTE   N96  Gs3
 BYTE   W48
 BYTE   N48  Cn4
 BYTE   W48
//  #06 //071   ----------------------------------------
 BYTE   En4
 BYTE   N96  Gn3
 BYTE   W48
 BYTE   N48  Gn4
 BYTE   W48
//  #06 //072   ----------------------------------------
 BYTE   Gs4
 BYTE   N96  Gs3
 BYTE   W48
 BYTE   N48  Cn5
 BYTE   W48
//  #06 //073   ----------------------------------------
 BYTE   Cn5
 BYTE   N96  Gn3
 BYTE   W48
 BYTE   N48  Gn4
 BYTE   W48
//  #06 //074   ----------------------------------------
 BYTE   Fn4
 BYTE   N96  Gs3
 BYTE   W48
 BYTE   N48  Cn4
 BYTE   W48
//  #06 //075   ----------------------------------------
 BYTE   En4
 BYTE   N96  Gn3
 BYTE   W48
 BYTE   N48  Gn4
 BYTE   W48
//  #06 //076   ----------------------------------------
 BYTE   Gs2
 BYTE   N48  Ds3
 BYTE   W48
 BYTE   As2
 BYTE   N48  Fn3
 BYTE   W48
//  #06 //077   ----------------------------------------
 BYTE   Cn3
 BYTE   N48  Gn3
 BYTE   W48
 BYTE   En3
 BYTE   N48  Bn3
 BYTE   W48
//  #06 //078   ----------------------------------------
 BYTE   Ds3
 BYTE   N48  As3
 BYTE   W48
 BYTE   Fn3
 BYTE   N48  Cn4
 BYTE   W48
//  #06 //079   ----------------------------------------
 BYTE   Dn3
 BYTE   N48  Bn3
 BYTE   W48
 BYTE   Bn2
 BYTE   N48  Gn3
 BYTE   W48
//  #06 //080   ----------------------------------------
 BYTE   Gs2
 BYTE   N48  Ds3
 BYTE   W48
 BYTE   As2
 BYTE   N48  Fn3
 BYTE   W48
//  #06 //081   ----------------------------------------
 BYTE   Cn3
 BYTE   N48  Gn3
 BYTE   W48
 BYTE   En3
 BYTE   N48  Bn3
 BYTE   W48
//  #06 //082   ----------------------------------------
 BYTE   Ds3
 BYTE   N48  As3
 BYTE   W48
 BYTE   Fn3
 BYTE   N48  Cn4
 BYTE   W48
//  #06 //083   ----------------------------------------
 BYTE   En3
 BYTE   N48  Bn3
 BYTE   W48
 BYTE   Bn2
 BYTE   N48  Gn3
 BYTE   W48
//  #06 //084   ----------------------------------------
 BYTE   VOL   24*ToadstoolTourSkinsMatch_mvl/mxv
 BYTE   PAN   c_v-19
 BYTE   N48  Gn4  v102
 BYTE   W04
 BYTE   VOL   23*ToadstoolTourSkinsMatch_mvl/mxv
 BYTE   W04
 BYTE   VOL   21*ToadstoolTourSkinsMatch_mvl/mxv
 BYTE   W04
 BYTE   VOL   20*ToadstoolTourSkinsMatch_mvl/mxv
 BYTE   W04
 BYTE   VOL   19*ToadstoolTourSkinsMatch_mvl/mxv
 BYTE   W04
 BYTE   VOL   17*ToadstoolTourSkinsMatch_mvl/mxv
 BYTE   W04
 BYTE   VOL   16*ToadstoolTourSkinsMatch_mvl/mxv
 BYTE   W04
 BYTE   VOL   15*ToadstoolTourSkinsMatch_mvl/mxv
 BYTE   W04
 BYTE   VOL   13*ToadstoolTourSkinsMatch_mvl/mxv
 BYTE   W04
 BYTE   VOL   12*ToadstoolTourSkinsMatch_mvl/mxv
 BYTE   W04
 BYTE   VOL   11*ToadstoolTourSkinsMatch_mvl/mxv
 BYTE   W04
 BYTE   VOL   10*ToadstoolTourSkinsMatch_mvl/mxv
 BYTE   W03
 BYTE   N48  Cn4  v102
 BYTE   VOL   8*ToadstoolTourSkinsMatch_mvl/mxv
 BYTE   W04
 BYTE   VOL   7*ToadstoolTourSkinsMatch_mvl/mxv
 BYTE   W04
 BYTE   VOL   6*ToadstoolTourSkinsMatch_mvl/mxv
 BYTE   W04
 BYTE   VOL   5*ToadstoolTourSkinsMatch_mvl/mxv
 BYTE   W04
 BYTE   VOL   3*ToadstoolTourSkinsMatch_mvl/mxv
 BYTE   W04
 BYTE   VOL   2*ToadstoolTourSkinsMatch_mvl/mxv
 BYTE   W04
 BYTE   VOL   1*ToadstoolTourSkinsMatch_mvl/mxv
 BYTE   W04
 BYTE   VOL   0*ToadstoolTourSkinsMatch_mvl/mxv
 BYTE   W04
 BYTE   VOL   0*ToadstoolTourSkinsMatch_mvl/mxv
 BYTE   W04
 BYTE   VOL   0*ToadstoolTourSkinsMatch_mvl/mxv
 BYTE   W04
 BYTE   VOL   0*ToadstoolTourSkinsMatch_mvl/mxv
 BYTE   W04
 BYTE   VOL   0*ToadstoolTourSkinsMatch_mvl/mxv
 BYTE   W02
 BYTE   N48  Gn4  v102
 BYTE   W01
 BYTE   VOL   0*ToadstoolTourSkinsMatch_mvl/mxv
 BYTE   W04
//  #06 //085   ----------------------------------------
 BYTE   VOL   0*ToadstoolTourSkinsMatch_mvl/mxv
 BYTE   W04
 BYTE   VOL   0*ToadstoolTourSkinsMatch_mvl/mxv
 BYTE   W04
 BYTE   VOL   0*ToadstoolTourSkinsMatch_mvl/mxv
 BYTE   W04
 BYTE   VOL   0*ToadstoolTourSkinsMatch_mvl/mxv
 BYTE   W04
 BYTE   VOL   0*ToadstoolTourSkinsMatch_mvl/mxv
 BYTE   W04
 BYTE   VOL   0*ToadstoolTourSkinsMatch_mvl/mxv
 BYTE   W04
 BYTE   VOL   0*ToadstoolTourSkinsMatch_mvl/mxv
 BYTE   W04
 BYTE   VOL   0*ToadstoolTourSkinsMatch_mvl/mxv
 BYTE   W04
 BYTE   VOL   0*ToadstoolTourSkinsMatch_mvl/mxv
 BYTE   W04
 BYTE   VOL   0*ToadstoolTourSkinsMatch_mvl/mxv
 BYTE   W04
 BYTE   VOL   0*ToadstoolTourSkinsMatch_mvl/mxv
 BYTE   W01
 BYTE   N48  Cn5  v102
 BYTE   W02
 BYTE   VOL   0*ToadstoolTourSkinsMatch_mvl/mxv
 BYTE   W04
 BYTE   VOL   0*ToadstoolTourSkinsMatch_mvl/mxv
 BYTE   W04
 BYTE   VOL   0*ToadstoolTourSkinsMatch_mvl/mxv
 BYTE   W04
 BYTE   VOL   0*ToadstoolTourSkinsMatch_mvl/mxv
 BYTE   W04
 BYTE   VOL   0*ToadstoolTourSkinsMatch_mvl/mxv
 BYTE   W04
 BYTE   VOL   0*ToadstoolTourSkinsMatch_mvl/mxv
 BYTE   W04
 BYTE   VOL   0*ToadstoolTourSkinsMatch_mvl/mxv
 BYTE   W04
 BYTE   VOL   0*ToadstoolTourSkinsMatch_mvl/mxv
 BYTE   W04
 BYTE   VOL   0*ToadstoolTourSkinsMatch_mvl/mxv
 BYTE   W04
 BYTE   VOL   0*ToadstoolTourSkinsMatch_mvl/mxv
 BYTE   W04
 BYTE   VOL   0*ToadstoolTourSkinsMatch_mvl/mxv
 BYTE   W04
 BYTE   VOL   0*ToadstoolTourSkinsMatch_mvl/mxv
 BYTE   N48  Cn5  v102
 BYTE   W03
 BYTE   VOL   0*ToadstoolTourSkinsMatch_mvl/mxv
 BYTE   W04
 BYTE   VOL   0*ToadstoolTourSkinsMatch_mvl/mxv
 BYTE   W04
//  #06 //086   ----------------------------------------
 BYTE   VOL   0*ToadstoolTourSkinsMatch_mvl/mxv
 BYTE   W04
 BYTE   VOL   0*ToadstoolTourSkinsMatch_mvl/mxv
 BYTE   W04
 BYTE   VOL   0*ToadstoolTourSkinsMatch_mvl/mxv
 BYTE   W04
 BYTE   VOL   0*ToadstoolTourSkinsMatch_mvl/mxv
 BYTE   W04
 BYTE   VOL   0*ToadstoolTourSkinsMatch_mvl/mxv
 BYTE   W04
 BYTE   VOL   0*ToadstoolTourSkinsMatch_mvl/mxv
 BYTE   W04
 BYTE   VOL   0*ToadstoolTourSkinsMatch_mvl/mxv
 BYTE   W04
 BYTE   VOL   0*ToadstoolTourSkinsMatch_mvl/mxv
 BYTE   W04
 BYTE   VOL   0*ToadstoolTourSkinsMatch_mvl/mxv
 BYTE   W03
 BYTE   N24  Gn4  v102
 BYTE   VOL   0*ToadstoolTourSkinsMatch_mvl/mxv
 BYTE   W04
 BYTE   VOL   0*ToadstoolTourSkinsMatch_mvl/mxv
 BYTE   W04
 BYTE   VOL   0*ToadstoolTourSkinsMatch_mvl/mxv
 BYTE   W04
 BYTE   VOL   0*ToadstoolTourSkinsMatch_mvl/mxv
 BYTE   W04
 BYTE   VOL   0*ToadstoolTourSkinsMatch_mvl/mxv
 BYTE   W04
 BYTE   VOL   0*ToadstoolTourSkinsMatch_mvl/mxv
 BYTE   W03
 BYTE   N24  Cn5  v102
 BYTE   VOL   0*ToadstoolTourSkinsMatch_mvl/mxv
 BYTE   W04
 BYTE   VOL   0*ToadstoolTourSkinsMatch_mvl/mxv
 BYTE   W04
 BYTE   VOL   0*ToadstoolTourSkinsMatch_mvl/mxv
 BYTE   W04
 BYTE   VOL   0*ToadstoolTourSkinsMatch_mvl/mxv
 BYTE   W04
 BYTE   VOL   0*ToadstoolTourSkinsMatch_mvl/mxv
 BYTE   W04
 BYTE   VOL   0*ToadstoolTourSkinsMatch_mvl/mxv
 BYTE   W02
 BYTE   N48  Cn5  v102
 BYTE   W01
 BYTE   VOL   0*ToadstoolTourSkinsMatch_mvl/mxv
 BYTE   W04
 BYTE   VOL   0*ToadstoolTourSkinsMatch_mvl/mxv
 BYTE   W04
 BYTE   VOL   0*ToadstoolTourSkinsMatch_mvl/mxv
 BYTE   W04
 BYTE   VOL   0*ToadstoolTourSkinsMatch_mvl/mxv
 BYTE   W04
//  #06 //087   ----------------------------------------
 BYTE   VOL   0*ToadstoolTourSkinsMatch_mvl/mxv
 BYTE   W04
 BYTE   VOL   0*ToadstoolTourSkinsMatch_mvl/mxv
 BYTE   W04
 BYTE   VOL   0*ToadstoolTourSkinsMatch_mvl/mxv
 BYTE   W04
 BYTE   VOL   0*ToadstoolTourSkinsMatch_mvl/mxv
 BYTE   W04
 BYTE   VOL   0*ToadstoolTourSkinsMatch_mvl/mxv
 BYTE   W04
 BYTE   VOL   0*ToadstoolTourSkinsMatch_mvl/mxv
 BYTE   W04
 BYTE   VOL   0*ToadstoolTourSkinsMatch_mvl/mxv
 BYTE   W04
 BYTE   VOL   0*ToadstoolTourSkinsMatch_mvl/mxv
 BYTE   W01
 BYTE   N48  As4  v102
 BYTE   W02
 BYTE   VOL   0*ToadstoolTourSkinsMatch_mvl/mxv
 BYTE   W04
 BYTE   VOL   0*ToadstoolTourSkinsMatch_mvl/mxv
 BYTE   W04
 BYTE   VOL   0*ToadstoolTourSkinsMatch_mvl/mxv
 BYTE   W04
 BYTE   VOL   0*ToadstoolTourSkinsMatch_mvl/mxv
 BYTE   W04
 BYTE   VOL   0*ToadstoolTourSkinsMatch_mvl/mxv
 BYTE   W04
 BYTE   VOL   0*ToadstoolTourSkinsMatch_mvl/mxv
 BYTE   W04
 BYTE   VOL   0*ToadstoolTourSkinsMatch_mvl/mxv
 BYTE   W04
 BYTE   VOL   0*ToadstoolTourSkinsMatch_mvl/mxv
 BYTE   W04
 BYTE   VOL   0*ToadstoolTourSkinsMatch_mvl/mxv
 BYTE   W04
 BYTE   VOL   0*ToadstoolTourSkinsMatch_mvl/mxv
 BYTE   W04
 BYTE   VOL   0*ToadstoolTourSkinsMatch_mvl/mxv
 BYTE   W04
 BYTE   FINE

//**************** Track 7 (Midi-Chn.6) ****************//

ToadstoolTourSkinsMatch_007:
//  #07 //000   ----------------------------------------
Label_014B7454:
 BYTE   TEMPO   118*ToadstoolTourSkinsMatch_tbs/2
 BYTE   KEYSH   ToadstoolTourSkinsMatch_key+0
 BYTE   VOICE   7
 BYTE   VOL   27*ToadstoolTourSkinsMatch_mvl/mxv
 BYTE   PAN   c_v-39
 BYTE   N06  Cn5  v102
 BYTE   W96
//  #07 //001   ----------------------------------------
 BYTE   W96
//  #07 //002   ----------------------------------------
 BYTE   W96
//  #07 //003   ----------------------------------------
 BYTE   W96
//  #07 //004   ----------------------------------------
 BYTE   W96
//  #07 //005   ----------------------------------------
 BYTE   W96
//  #07 //006   ----------------------------------------
 BYTE   W96
//  #07 //007   ----------------------------------------
 BYTE   W96
//  #07 //008   ----------------------------------------
 BYTE   W96
//  #07 //009   ----------------------------------------
 BYTE   W96
//  #07 //010   ----------------------------------------
 BYTE   W96
//  #07 //011   ----------------------------------------
 BYTE   W96
//  #07 //012   ----------------------------------------
 BYTE   W96
//  #07 //013   ----------------------------------------
 BYTE   W96
//  #07 //014   ----------------------------------------
 BYTE   W96
//  #07 //015   ----------------------------------------
 BYTE   W96
//  #07 //016   ----------------------------------------
 BYTE   GoTo
  POIN2 Label_014B7454
//  #07 //017   ----------------------------------------
 BYTE   W06
 BYTE   N06  Cn4  v102
 BYTE   W06
 BYTE   Cn4
 BYTE   W06
 BYTE   Cn5
 BYTE   W06
 BYTE   Cn4
 BYTE   W06
 BYTE   Cn5
 BYTE   W06
 BYTE   Cn4
 BYTE   W06
 BYTE   Cn4
 BYTE   W06
 BYTE   Cn5
 BYTE   W06
 BYTE   Cn4
 BYTE   W06
 BYTE   Cn4
 BYTE   W06
 BYTE   Cn5
 BYTE   W06
 BYTE   Cn4
 BYTE   W06
 BYTE   Cn5
 BYTE   W06
 BYTE   Cn4
 BYTE   W06
 BYTE   Cn4
 BYTE   W06
//  #07 //018   ----------------------------------------
Label_014B7497:
 BYTE   N06  Cn5  v102
 BYTE   W06
 BYTE   Cn4
 BYTE   W06
 BYTE   Cn4
 BYTE   W06
 BYTE   Cn5
 BYTE   W06
 BYTE   Cn4
 BYTE   W06
 BYTE   Cn5
 BYTE   W06
 BYTE   Cn4
 BYTE   W06
 BYTE   Cn4
 BYTE   W06
 BYTE   Cn5
 BYTE   W06
 BYTE   Cn4
 BYTE   W06
 BYTE   Cn4
 BYTE   W06
 BYTE   Cn5
 BYTE   W06
 BYTE   Cn4
 BYTE   W06
 BYTE   Cn5
 BYTE   W06
 BYTE   Cn4
 BYTE   W06
 BYTE   Cn4
 BYTE   W06
 BYTE   PEND 
//  #07 //019   ----------------------------------------
 BYTE   PATT
  POIN2 Label_014B7497
//  #07 //020   ----------------------------------------
 BYTE   PATT
  POIN2 Label_014B7497
//  #07 //021   ----------------------------------------
 BYTE   PATT
  POIN2 Label_014B7497
//  #07 //022   ----------------------------------------
 BYTE   PATT
  POIN2 Label_014B7497
//  #07 //023   ----------------------------------------
 BYTE   PATT
  POIN2 Label_014B7497
//  #07 //024   ----------------------------------------
 BYTE   PATT
  POIN2 Label_014B7497
//  #07 //025   ----------------------------------------
 BYTE   N06  Cn5  v102
 BYTE   W96
//  #07 //026   ----------------------------------------
 BYTE   W96
//  #07 //027   ----------------------------------------
 BYTE   W96
//  #07 //028   ----------------------------------------
 BYTE   W96
//  #07 //029   ----------------------------------------
 BYTE   W96
//  #07 //030   ----------------------------------------
 BYTE   W96
//  #07 //031   ----------------------------------------
 BYTE   W96
//  #07 //032   ----------------------------------------
 BYTE   W96
//  #07 //033   ----------------------------------------
 BYTE   W96
//  #07 //034   ----------------------------------------
 BYTE   W96
//  #07 //035   ----------------------------------------
 BYTE   W96
//  #07 //036   ----------------------------------------
 BYTE   W96
//  #07 //037   ----------------------------------------
 BYTE   W96
//  #07 //038   ----------------------------------------
 BYTE   W96
//  #07 //039   ----------------------------------------
 BYTE   W96
//  #07 //040   ----------------------------------------
 BYTE   W96
//  #07 //041   ----------------------------------------
 BYTE   W06
 BYTE   VOL   27*ToadstoolTourSkinsMatch_mvl/mxv
 BYTE   PAN   c_v-39
 BYTE   N06  Cn4  v102
 BYTE   W06
 BYTE   Cn4
 BYTE   W06
 BYTE   Cn5
 BYTE   W06
 BYTE   Cn4
 BYTE   W06
 BYTE   Cn5
 BYTE   W06
 BYTE   Cn4
 BYTE   W06
 BYTE   Cn4
 BYTE   W06
 BYTE   Cn5
 BYTE   W06
 BYTE   Cn4
 BYTE   W06
 BYTE   Cn4
 BYTE   W06
 BYTE   Cn5
 BYTE   W06
 BYTE   Cn4
 BYTE   W06
 BYTE   Cn5
 BYTE   W06
 BYTE   Cn4
 BYTE   W06
 BYTE   Cn4
 BYTE   W06
//  #07 //042   ----------------------------------------
 BYTE   Cn5
 BYTE   W06
 BYTE   Cn4
 BYTE   W06
 BYTE   Cn4
 BYTE   W06
 BYTE   Cn5
 BYTE   W06
 BYTE   Cn4
 BYTE   W06
 BYTE   Cn5
 BYTE   W06
 BYTE   Cn4
 BYTE   W06
 BYTE   Cn4
 BYTE   W06
 BYTE   Cn5
 BYTE   W06
 BYTE   Cn4
 BYTE   W06
 BYTE   Cn4
 BYTE   W06
 BYTE   Cn5
 BYTE   W06
 BYTE   Cn4
 BYTE   W06
 BYTE   Cn5
 BYTE   W06
 BYTE   Cn4
 BYTE   W06
 BYTE   Cn4
 BYTE   W06
//  #07 //043   ----------------------------------------
 BYTE   Cn5
 BYTE   W06
 BYTE   Cn4
 BYTE   W06
 BYTE   Cn4
 BYTE   W06
 BYTE   Cn5
 BYTE   W06
 BYTE   Cn4
 BYTE   W06
 BYTE   Cn5
 BYTE   W06
 BYTE   Cn4
 BYTE   W06
 BYTE   Cn4
 BYTE   W06
 BYTE   Cn5
 BYTE   W06
 BYTE   Cn4
 BYTE   W06
 BYTE   Cn4
 BYTE   W06
 BYTE   Cn5
 BYTE   W06
 BYTE   Cn4
 BYTE   W06
 BYTE   Cn5
 BYTE   W06
 BYTE   Cn4
 BYTE   W06
 BYTE   Cn4
 BYTE   W06
//  #07 //044   ----------------------------------------
 BYTE   Cn5
 BYTE   W06
 BYTE   Cn4
 BYTE   W06
 BYTE   Cn4
 BYTE   W06
 BYTE   Cn5
 BYTE   W06
 BYTE   Cn4
 BYTE   W06
 BYTE   Cn5
 BYTE   W06
 BYTE   Cn4
 BYTE   W06
 BYTE   Cn4
 BYTE   W06
 BYTE   Cn5
 BYTE   W06
 BYTE   Cn4
 BYTE   W06
 BYTE   Cn4
 BYTE   W06
 BYTE   Cn5
 BYTE   W06
 BYTE   Cn4
 BYTE   W06
 BYTE   Cn5
 BYTE   W06
 BYTE   Cn4
 BYTE   W06
 BYTE   Cn4
 BYTE   W06
//  #07 //045   ----------------------------------------
 BYTE   Cn5
 BYTE   W96
//  #07 //046   ----------------------------------------
 BYTE   W96
//  #07 //047   ----------------------------------------
 BYTE   W96
//  #07 //048   ----------------------------------------
 BYTE   W96
//  #07 //049   ----------------------------------------
 BYTE   W96
//  #07 //050   ----------------------------------------
 BYTE   W96
//  #07 //051   ----------------------------------------
 BYTE   W96
//  #07 //052   ----------------------------------------
 BYTE   W96
//  #07 //053   ----------------------------------------
 BYTE   W96
//  #07 //054   ----------------------------------------
 BYTE   W96
//  #07 //055   ----------------------------------------
 BYTE   W96
//  #07 //056   ----------------------------------------
 BYTE   W96
//  #07 //057   ----------------------------------------
 BYTE   W96
//  #07 //058   ----------------------------------------
 BYTE   W96
//  #07 //059   ----------------------------------------
 BYTE   W96
//  #07 //060   ----------------------------------------
 BYTE   W96
//  #07 //061   ----------------------------------------
 BYTE   W06
 BYTE   Cn4
 BYTE   W06
 BYTE   Cn4
 BYTE   W06
 BYTE   Cn5
 BYTE   W06
 BYTE   Cn4
 BYTE   W06
 BYTE   Cn5
 BYTE   W06
 BYTE   Cn4
 BYTE   W06
 BYTE   Cn4
 BYTE   W06
 BYTE   Cn5
 BYTE   W06
 BYTE   Cn4
 BYTE   W06
 BYTE   Cn4
 BYTE   W06
 BYTE   Cn5
 BYTE   W06
 BYTE   Cn4
 BYTE   W06
 BYTE   Cn5
 BYTE   W06
 BYTE   Cn4
 BYTE   W06
 BYTE   Cn4
 BYTE   W06
//  #07 //062   ----------------------------------------
 BYTE   Cn5
 BYTE   W06
 BYTE   Cn4
 BYTE   W06
 BYTE   Cn4
 BYTE   W06
 BYTE   Cn5
 BYTE   W06
 BYTE   Cn4
 BYTE   W06
 BYTE   Cn5
 BYTE   W06
 BYTE   Cn4
 BYTE   W06
 BYTE   Cn4
 BYTE   W06
 BYTE   Cn5
 BYTE   W06
 BYTE   Cn4
 BYTE   W06
 BYTE   Cn4
 BYTE   W06
 BYTE   Cn5
 BYTE   W06
 BYTE   Cn4
 BYTE   W06
 BYTE   Cn5
 BYTE   W06
 BYTE   Cn4
 BYTE   W06
 BYTE   Cn4
 BYTE   W06
//  #07 //063   ----------------------------------------
 BYTE   Cn5
 BYTE   W06
 BYTE   Cn4
 BYTE   W06
 BYTE   Cn4
 BYTE   W06
 BYTE   Cn5
 BYTE   W06
 BYTE   Cn4
 BYTE   W06
 BYTE   Cn5
 BYTE   W06
 BYTE   Cn4
 BYTE   W06
 BYTE   Cn4
 BYTE   W06
 BYTE   Cn5
 BYTE   W06
 BYTE   Cn4
 BYTE   W06
 BYTE   Cn4
 BYTE   W06
 BYTE   Cn5
 BYTE   W06
 BYTE   Cn4
 BYTE   W06
 BYTE   Cn5
 BYTE   W06
 BYTE   Cn4
 BYTE   W06
 BYTE   Cn4
 BYTE   W06
//  #07 //064   ----------------------------------------
 BYTE   Cn5
 BYTE   W06
 BYTE   Cn4
 BYTE   W06
 BYTE   Cn4
 BYTE   W06
 BYTE   Cn5
 BYTE   W06
 BYTE   Cn4
 BYTE   W06
 BYTE   Cn5
 BYTE   W06
 BYTE   Cn4
 BYTE   W06
 BYTE   Cn4
 BYTE   W06
 BYTE   Cn5
 BYTE   W06
 BYTE   Cn4
 BYTE   W06
 BYTE   Cn4
 BYTE   W06
 BYTE   Cn5
 BYTE   W06
 BYTE   Cn4
 BYTE   W06
 BYTE   Cn5
 BYTE   W06
 BYTE   Cn4
 BYTE   W06
 BYTE   Cn4
 BYTE   W06
//  #07 //065   ----------------------------------------
 BYTE   Cn5
 BYTE   W06
 BYTE   Cn4
 BYTE   W06
 BYTE   Cn4
 BYTE   W06
 BYTE   Cn5
 BYTE   W06
 BYTE   Cn4
 BYTE   W06
 BYTE   Cn5
 BYTE   W06
 BYTE   Cn4
 BYTE   W06
 BYTE   Cn4
 BYTE   W06
 BYTE   Cn5
 BYTE   W06
 BYTE   Cn4
 BYTE   W06
 BYTE   Cn4
 BYTE   W06
 BYTE   Cn5
 BYTE   W06
 BYTE   Cn4
 BYTE   W06
 BYTE   Cn5
 BYTE   W06
 BYTE   Cn4
 BYTE   W06
 BYTE   Cn4
 BYTE   W06
//  #07 //066   ----------------------------------------
 BYTE   Cn5
 BYTE   W06
 BYTE   Cn4
 BYTE   W06
 BYTE   Cn4
 BYTE   W06
 BYTE   Cn5
 BYTE   W06
 BYTE   Cn4
 BYTE   W06
 BYTE   Cn5
 BYTE   W06
 BYTE   Cn4
 BYTE   W06
 BYTE   Cn4
 BYTE   W06
 BYTE   Cn5
 BYTE   W06
 BYTE   Cn4
 BYTE   W06
 BYTE   Cn4
 BYTE   W06
 BYTE   Cn5
 BYTE   W06
 BYTE   Cn4
 BYTE   W06
 BYTE   Cn5
 BYTE   W06
 BYTE   Cn4
 BYTE   W06
 BYTE   Cn4
 BYTE   W06
//  #07 //067   ----------------------------------------
 BYTE   Cn5
 BYTE   W06
 BYTE   Cn4
 BYTE   W06
 BYTE   Cn4
 BYTE   W06
 BYTE   Cn5
 BYTE   W06
 BYTE   Cn4
 BYTE   W06
 BYTE   Cn5
 BYTE   W06
 BYTE   Cn4
 BYTE   W06
 BYTE   Cn4
 BYTE   W06
 BYTE   Cn5
 BYTE   W06
 BYTE   Cn4
 BYTE   W06
 BYTE   Cn4
 BYTE   W06
 BYTE   Cn5
 BYTE   W06
 BYTE   Cn4
 BYTE   W06
 BYTE   Cn5
 BYTE   W06
 BYTE   Cn4
 BYTE   W06
 BYTE   Cn4
 BYTE   W06
//  #07 //068   ----------------------------------------
 BYTE   Cn5
 BYTE   W06
 BYTE   Cn4
 BYTE   W06
 BYTE   Cn4
 BYTE   W06
 BYTE   Cn5
 BYTE   W06
 BYTE   Cn4
 BYTE   W06
 BYTE   Cn5
 BYTE   W06
 BYTE   Cn4
 BYTE   W06
 BYTE   Cn4
 BYTE   W06
 BYTE   Cn5
 BYTE   W06
 BYTE   Cn4
 BYTE   W06
 BYTE   Cn4
 BYTE   W06
 BYTE   Cn5
 BYTE   W06
 BYTE   Cn4
 BYTE   W06
 BYTE   Cn5
 BYTE   W06
 BYTE   Cn4
 BYTE   W06
 BYTE   Cn4
 BYTE   W06
//  #07 //069   ----------------------------------------
 BYTE   Cn5
 BYTE   W96
//  #07 //070   ----------------------------------------
 BYTE   W96
//  #07 //071   ----------------------------------------
 BYTE   W96
//  #07 //072   ----------------------------------------
 BYTE   W96
//  #07 //073   ----------------------------------------
 BYTE   W96
//  #07 //074   ----------------------------------------
 BYTE   W96
//  #07 //075   ----------------------------------------
 BYTE   W96
//  #07 //076   ----------------------------------------
 BYTE   W96
//  #07 //077   ----------------------------------------
 BYTE   W96
//  #07 //078   ----------------------------------------
 BYTE   W96
//  #07 //079   ----------------------------------------
 BYTE   W96
//  #07 //080   ----------------------------------------
 BYTE   W96
//  #07 //081   ----------------------------------------
 BYTE   W96
//  #07 //082   ----------------------------------------
 BYTE   W96
//  #07 //083   ----------------------------------------
 BYTE   W96
//  #07 //084   ----------------------------------------
 BYTE   W96
//  #07 //085   ----------------------------------------
 BYTE   W06
 BYTE   VOL   25*ToadstoolTourSkinsMatch_mvl/mxv
 BYTE   PAN   c_v-39
 BYTE   N06  Cn4  v102
 BYTE   W04
 BYTE   VOL   24*ToadstoolTourSkinsMatch_mvl/mxv
 BYTE   W01
 BYTE   N06  Cn4  v102
 BYTE   W02
 BYTE   VOL   23*ToadstoolTourSkinsMatch_mvl/mxv
 BYTE   W03
 BYTE   N06  Cn5  v102
 BYTE   VOL   21*ToadstoolTourSkinsMatch_mvl/mxv
 BYTE   W04
 BYTE   VOL   20*ToadstoolTourSkinsMatch_mvl/mxv
 BYTE   W01
 BYTE   N06  Cn4  v102
 BYTE   W02
 BYTE   VOL   19*ToadstoolTourSkinsMatch_mvl/mxv
 BYTE   W03
 BYTE   N06  Cn5  v102
 BYTE   VOL   17*ToadstoolTourSkinsMatch_mvl/mxv
 BYTE   W04
 BYTE   VOL   16*ToadstoolTourSkinsMatch_mvl/mxv
 BYTE   W01
 BYTE   N06  Cn4  v102
 BYTE   W02
 BYTE   VOL   15*ToadstoolTourSkinsMatch_mvl/mxv
 BYTE   W03
 BYTE   N06  Cn4  v102
 BYTE   VOL   13*ToadstoolTourSkinsMatch_mvl/mxv
 BYTE   W04
 BYTE   VOL   12*ToadstoolTourSkinsMatch_mvl/mxv
 BYTE   W01
 BYTE   N06  Cn5  v102
 BYTE   W02
 BYTE   VOL   11*ToadstoolTourSkinsMatch_mvl/mxv
 BYTE   W03
 BYTE   N06  Cn4  v102
 BYTE   VOL   10*ToadstoolTourSkinsMatch_mvl/mxv
 BYTE   W04
 BYTE   VOL   8*ToadstoolTourSkinsMatch_mvl/mxv
 BYTE   W01
 BYTE   N06  Cn4  v102
 BYTE   W02
 BYTE   VOL   7*ToadstoolTourSkinsMatch_mvl/mxv
 BYTE   W03
 BYTE   N06  Cn5  v102
 BYTE   VOL   6*ToadstoolTourSkinsMatch_mvl/mxv
 BYTE   W04
 BYTE   VOL   5*ToadstoolTourSkinsMatch_mvl/mxv
 BYTE   W01
 BYTE   N06  Cn4  v102
 BYTE   W02
 BYTE   VOL   3*ToadstoolTourSkinsMatch_mvl/mxv
 BYTE   W03
 BYTE   N06  Cn5  v102
 BYTE   VOL   2*ToadstoolTourSkinsMatch_mvl/mxv
 BYTE   W04
 BYTE   VOL   1*ToadstoolTourSkinsMatch_mvl/mxv
 BYTE   W01
 BYTE   N06  Cn4  v102
 BYTE   W02
 BYTE   VOL   0*ToadstoolTourSkinsMatch_mvl/mxv
 BYTE   W03
 BYTE   N06  Cn4  v102
 BYTE   VOL   0*ToadstoolTourSkinsMatch_mvl/mxv
 BYTE   W04
 BYTE   VOL   0*ToadstoolTourSkinsMatch_mvl/mxv
 BYTE   W01
 BYTE   N06  Cn5  v102
 BYTE   W02
 BYTE   VOL   0*ToadstoolTourSkinsMatch_mvl/mxv
 BYTE   W03
 BYTE   N06  Cn4  v102
 BYTE   VOL   0*ToadstoolTourSkinsMatch_mvl/mxv
 BYTE   W04
 BYTE   VOL   0*ToadstoolTourSkinsMatch_mvl/mxv
 BYTE   W01
 BYTE   N06  Cn4  v102
 BYTE   W02
 BYTE   VOL   0*ToadstoolTourSkinsMatch_mvl/mxv
 BYTE   W03
//  #07 //086   ----------------------------------------
 BYTE   N06  Cn5  v102
 BYTE   VOL   0*ToadstoolTourSkinsMatch_mvl/mxv
 BYTE   W04
 BYTE   VOL   0*ToadstoolTourSkinsMatch_mvl/mxv
 BYTE   W01
 BYTE   N06  Cn4  v102
 BYTE   W02
 BYTE   VOL   0*ToadstoolTourSkinsMatch_mvl/mxv
 BYTE   W03
 BYTE   N06  Cn5  v102
 BYTE   VOL   0*ToadstoolTourSkinsMatch_mvl/mxv
 BYTE   W04
 BYTE   VOL   0*ToadstoolTourSkinsMatch_mvl/mxv
 BYTE   W01
 BYTE   N06  Cn4  v102
 BYTE   W02
 BYTE   VOL   0*ToadstoolTourSkinsMatch_mvl/mxv
 BYTE   W03
 BYTE   N06  Cn4  v102
 BYTE   VOL   0*ToadstoolTourSkinsMatch_mvl/mxv
 BYTE   W04
 BYTE   VOL   0*ToadstoolTourSkinsMatch_mvl/mxv
 BYTE   W01
 BYTE   N06  Cn5  v102
 BYTE   W02
 BYTE   VOL   0*ToadstoolTourSkinsMatch_mvl/mxv
 BYTE   W03
 BYTE   N06  Cn4  v102
 BYTE   VOL   0*ToadstoolTourSkinsMatch_mvl/mxv
 BYTE   W04
 BYTE   VOL   0*ToadstoolTourSkinsMatch_mvl/mxv
 BYTE   W01
 BYTE   N06  Cn4  v102
 BYTE   W02
 BYTE   VOL   0*ToadstoolTourSkinsMatch_mvl/mxv
 BYTE   W03
 BYTE   N06  Cn5  v102
 BYTE   VOL   0*ToadstoolTourSkinsMatch_mvl/mxv
 BYTE   W04
 BYTE   VOL   0*ToadstoolTourSkinsMatch_mvl/mxv
 BYTE   W01
 BYTE   N06  Cn4  v102
 BYTE   W03
 BYTE   VOL   0*ToadstoolTourSkinsMatch_mvl/mxv
 BYTE   W02
 BYTE   N06  Cn5  v102
 BYTE   W01
 BYTE   VOL   0*ToadstoolTourSkinsMatch_mvl/mxv
 BYTE   W04
 BYTE   VOL   0*ToadstoolTourSkinsMatch_mvl/mxv
 BYTE   N06  Cn4  v102
 BYTE   W03
 BYTE   VOL   0*ToadstoolTourSkinsMatch_mvl/mxv
 BYTE   W02
 BYTE   N06  Cn4  v102
 BYTE   W01
 BYTE   VOL   0*ToadstoolTourSkinsMatch_mvl/mxv
 BYTE   W04
 BYTE   VOL   0*ToadstoolTourSkinsMatch_mvl/mxv
 BYTE   N06  Cn5  v102
 BYTE   W03
 BYTE   VOL   0*ToadstoolTourSkinsMatch_mvl/mxv
 BYTE   W02
 BYTE   N06  Cn4  v102
 BYTE   W01
 BYTE   VOL   0*ToadstoolTourSkinsMatch_mvl/mxv
 BYTE   W04
 BYTE   VOL   0*ToadstoolTourSkinsMatch_mvl/mxv
 BYTE   N06  Cn4  v102
 BYTE   W03
 BYTE   VOL   0*ToadstoolTourSkinsMatch_mvl/mxv
 BYTE   W02
 BYTE   N06  Cn5  v102
 BYTE   W01
 BYTE   VOL   0*ToadstoolTourSkinsMatch_mvl/mxv
 BYTE   W04
 BYTE   VOL   0*ToadstoolTourSkinsMatch_mvl/mxv
 BYTE   N06  Cn4  v102
 BYTE   W03
 BYTE   VOL   0*ToadstoolTourSkinsMatch_mvl/mxv
 BYTE   W02
 BYTE   N06  Cn5  v102
 BYTE   W01
 BYTE   VOL   0*ToadstoolTourSkinsMatch_mvl/mxv
 BYTE   W04
 BYTE   VOL   0*ToadstoolTourSkinsMatch_mvl/mxv
 BYTE   N06  Cn4  v102
 BYTE   W03
//  #07 //087   ----------------------------------------
 BYTE   VOL   0*ToadstoolTourSkinsMatch_mvl/mxv
 BYTE   W02
 BYTE   N06  Cn4  v102
 BYTE   W01
 BYTE   VOL   0*ToadstoolTourSkinsMatch_mvl/mxv
 BYTE   W04
 BYTE   VOL   0*ToadstoolTourSkinsMatch_mvl/mxv
 BYTE   N06  Cn5  v102
 BYTE   W03
 BYTE   VOL   0*ToadstoolTourSkinsMatch_mvl/mxv
 BYTE   W02
 BYTE   N06  Cn4  v102
 BYTE   W01
 BYTE   VOL   0*ToadstoolTourSkinsMatch_mvl/mxv
 BYTE   W04
 BYTE   VOL   0*ToadstoolTourSkinsMatch_mvl/mxv
 BYTE   N06  Cn4  v102
 BYTE   W03
 BYTE   VOL   0*ToadstoolTourSkinsMatch_mvl/mxv
 BYTE   W02
 BYTE   N06  Cn5  v102
 BYTE   W01
 BYTE   VOL   0*ToadstoolTourSkinsMatch_mvl/mxv
 BYTE   W04
 BYTE   VOL   0*ToadstoolTourSkinsMatch_mvl/mxv
 BYTE   N06  Cn4  v102
 BYTE   W03
 BYTE   VOL   0*ToadstoolTourSkinsMatch_mvl/mxv
 BYTE   W02
 BYTE   N06  Cn5  v102
 BYTE   W01
 BYTE   VOL   0*ToadstoolTourSkinsMatch_mvl/mxv
 BYTE   W04
Label_014B77FB:
 BYTE   VOL   0*ToadstoolTourSkinsMatch_mvl/mxv
 BYTE   N06  Cn4  v102
 BYTE   W03
 BYTE   PEND 
//  #07 //088   ----------------------------------------
 BYTE   PATT
  POIN2 Label_014B77FB
//  #07 //089   ----------------------------------------
 BYTE   VOL   0*ToadstoolTourSkinsMatch_mvl/mxv
 BYTE   W04
 BYTE   VOL   0*ToadstoolTourSkinsMatch_mvl/mxv
 BYTE   N06  Cn5  v102
 BYTE   W03
 BYTE   VOL   0*ToadstoolTourSkinsMatch_mvl/mxv
 BYTE   W02
 BYTE   N06  Cn4  v102
 BYTE   W01
 BYTE   VOL   0*ToadstoolTourSkinsMatch_mvl/mxv
 BYTE   W04
 BYTE   VOL   0*ToadstoolTourSkinsMatch_mvl/mxv
 BYTE   N06  Cn4  v102
 BYTE   W03
 BYTE   VOL   0*ToadstoolTourSkinsMatch_mvl/mxv
 BYTE   W02
 BYTE   N06  Cn5  v102
 BYTE   W01
 BYTE   VOL   0*ToadstoolTourSkinsMatch_mvl/mxv
 BYTE   W04
 BYTE   VOL   0*ToadstoolTourSkinsMatch_mvl/mxv
 BYTE   N06  Cn4  v102
 BYTE   W03
 BYTE   VOL   0*ToadstoolTourSkinsMatch_mvl/mxv
 BYTE   W02
 BYTE   N06  Cn5  v102
 BYTE   W01
 BYTE   VOL   0*ToadstoolTourSkinsMatch_mvl/mxv
 BYTE   W04
Label_014B783A:
 BYTE   VOL   0*ToadstoolTourSkinsMatch_mvl/mxv
 BYTE   N06  Cn4  v102
 BYTE   W04
 BYTE   PEND 
//  #07 //090   ----------------------------------------
 BYTE   PATT
  POIN2 Label_014B783A
//  #07 //091   ----------------------------------------
 BYTE   VOL   0*ToadstoolTourSkinsMatch_mvl/mxv
 BYTE   W03
 BYTE   N06  Cn5  v102
 BYTE   VOL   0*ToadstoolTourSkinsMatch_mvl/mxv
 BYTE   W04
Label_014B784F:
 BYTE   VOL   0*ToadstoolTourSkinsMatch_mvl/mxv
 BYTE   W01
 BYTE   N06  Cn4  v102
 BYTE   W02
 BYTE   PEND 
//  #07 //092   ----------------------------------------
 BYTE   PATT
  POIN2 Label_014B784F
//  #07 //093   ----------------------------------------
 BYTE   VOL   0*ToadstoolTourSkinsMatch_mvl/mxv
 BYTE   W04
 BYTE   VOL   0*ToadstoolTourSkinsMatch_mvl/mxv
 BYTE   W01
 BYTE   N06  Cn5  v102
 BYTE   W02
Label_014B7866:
 BYTE   VOL   0*ToadstoolTourSkinsMatch_mvl/mxv
 BYTE   W03
 BYTE   N06  Cn4  v102
 BYTE   PEND 
 BYTE   VOL   0*ToadstoolTourSkinsMatch_mvl/mxv
 BYTE   W04
 BYTE   VOL   0*ToadstoolTourSkinsMatch_mvl/mxv
 BYTE   W01
 BYTE   N06  Cn5  v102
 BYTE   W02
//  #07 //094   ----------------------------------------
 BYTE   PATT
  POIN2 Label_014B7866
//  #07 //095   ----------------------------------------
 BYTE   VOL   0*ToadstoolTourSkinsMatch_mvl/mxv
 BYTE   W04
 BYTE   VOL   0*ToadstoolTourSkinsMatch_mvl/mxv
 BYTE   W01
 BYTE   N06  Cn4  v102
 BYTE   W02
 BYTE   VOL   0*ToadstoolTourSkinsMatch_mvl/mxv
 BYTE   W03
 BYTE   N06  Cn5  v102
 BYTE   VOL   0*ToadstoolTourSkinsMatch_mvl/mxv
 BYTE   W05
 BYTE   FINE

//**************** Track 8 (Midi-Chn.7) ****************//

ToadstoolTourSkinsMatch_008:
//  #08 //000   ----------------------------------------
Label_014D0D24:
 BYTE   TEMPO   118*ToadstoolTourSkinsMatch_tbs/2
 BYTE   KEYSH   ToadstoolTourSkinsMatch_key+0
 BYTE   VOICE   90
 BYTE   VOL   20*ToadstoolTourSkinsMatch_mvl/mxv
 BYTE   PAN   c_v+38
 BYTE   W06
 BYTE   N18  En4  v083
 BYTE   W18
 BYTE   N06  Fs4
 BYTE   W12
 BYTE   Gn4
 BYTE   W12
 BYTE   An4
 BYTE   W06
 BYTE   N24  Bn4
 BYTE   W24
 BYTE   Dn4
 BYTE   W24
//  #08 //001   ----------------------------------------
Label_014D0D3F:
 BYTE   N24  Cn4  v083
 BYTE   W24
 BYTE   N06  Bn3
 BYTE   W06
 BYTE   Cn4
 BYTE   W06
 BYTE   Bn3
 BYTE   W06
 BYTE   An3
 BYTE   W06
 BYTE   N48  Bn3
 BYTE   W48
 BYTE   PEND 
//  #08 //002   ----------------------------------------
Label_014D0D50:
 BYTE   N18  Cn4  v083
 BYTE   W18
 BYTE   Dn4
 BYTE   W18
 BYTE   N12  En4
 BYTE   W12
 BYTE   N24  Dn4
 BYTE   W24
 BYTE   Fs4
 BYTE   W24
 BYTE   PEND 
//  #08 //003   ----------------------------------------
Label_014D0D5F:
 BYTE   N18  Gn4  v083
 BYTE   W18
 BYTE   Ds4
 BYTE   W18
 BYTE   N12  Gn4
 BYTE   W12
 BYTE   N48  Fn4
 BYTE   W48
 BYTE   PEND 
//  #08 //004   ----------------------------------------
Label_014D0D6C:
 BYTE   N18  Gn4  v083
 BYTE   W18
 BYTE   N30  Dn4
 BYTE   W30
 BYTE   N24
 BYTE   W24
 BYTE   Cn4
 BYTE   W24
 BYTE   PEND 
//  #08 //005   ----------------------------------------
Label_014D0D78:
 BYTE   N30  Cn4  v083
 BYTE   W30
 BYTE   N06  Dn4
 BYTE   W06
 BYTE   Ds4
 BYTE   W06
 BYTE   Gn4
 BYTE   W06
 BYTE   N48  Fn4
 BYTE   W48
 BYTE   PEND 
//  #08 //006   ----------------------------------------
Label_014D0D87:
 BYTE   N30  Gn4  v083
 BYTE   W30
 BYTE   N06  Fn4
 BYTE   W06
 BYTE   En4
 BYTE   W06
 BYTE   Fn4
 BYTE   W06
 BYTE   N18  Dn4
 BYTE   W18
 BYTE   En4
 BYTE   W18
 BYTE   N12  Fn4
 BYTE   W12
 BYTE   PEND 
//  #08 //007   ----------------------------------------
 BYTE   N18  Ds4  v083
 BYTE   W18
 BYTE   Cn4
 BYTE   W18
 BYTE   N12  Gn4
 BYTE   W12
 BYTE   N24  Fn4
 BYTE   W24
 BYTE   As4
 BYTE   W24
//  #08 //008   ----------------------------------------
 BYTE   N18  En4
 BYTE   W18
 BYTE   N06  Fs4
 BYTE   W12
 BYTE   Gn4
 BYTE   W12
 BYTE   An4
 BYTE   W06
 BYTE   N24  Bn4
 BYTE   W24
 BYTE   Dn4
 BYTE   W24
//  #08 //009   ----------------------------------------
 BYTE   PATT
  POIN2 Label_014D0D3F
//  #08 //010   ----------------------------------------
 BYTE   PATT
  POIN2 Label_014D0D50
//  #08 //011   ----------------------------------------
 BYTE   PATT
  POIN2 Label_014D0D5F
//  #08 //012   ----------------------------------------
 BYTE   PATT
  POIN2 Label_014D0D6C
//  #08 //013   ----------------------------------------
 BYTE   PATT
  POIN2 Label_014D0D78
//  #08 //014   ----------------------------------------
 BYTE   PATT
  POIN2 Label_014D0D87
//  #08 //015   ----------------------------------------
 BYTE   N18  Ds4  v083
 BYTE   W18
 BYTE   Cn4
 BYTE   W18
 BYTE   N12  Gn4
 BYTE   W12
 BYTE   N24  Fn4
 BYTE   W24
 BYTE   As4
 BYTE   W18
 BYTE   GoTo
  POIN2 Label_014D0D24
//  #08 //016   ----------------------------------------
 BYTE   W06
Label_014D0DEA:
 BYTE   N18  Cn4  v083
 BYTE   N18  En4
 BYTE   W18
 BYTE   N06  Cn4
 BYTE   N06  Dn4
 BYTE   W12
 BYTE   Cn4
 BYTE   N06  En4
 BYTE   W12
 BYTE   Cn4
 BYTE   N06  Fn4
 BYTE   W12
 BYTE   Cn4
 BYTE   N06  Fn4
 BYTE   W12
 BYTE   Cn4
 BYTE   N06  En4
 BYTE   W06
 BYTE   N12  Cn4
 BYTE   N12  Dn4
 BYTE   W12
 BYTE   Cn4
 BYTE   N12  En4
 BYTE   W12
 BYTE   PEND 
//  #08 //017   ----------------------------------------
 BYTE   PATT
  POIN2 Label_014D0DEA
//  #08 //018   ----------------------------------------
 BYTE   PATT
  POIN2 Label_014D0DEA
//  #08 //019   ----------------------------------------
Label_014D0E19:
 BYTE   N18  Cn4  v083
 BYTE   N18  En4
 BYTE   W18
 BYTE   N06  Cn4
 BYTE   N06  Dn4
 BYTE   W12
 BYTE   Cn4
 BYTE   N06  En4
 BYTE   W12
 BYTE   As3
 BYTE   N06  Fn4
 BYTE   W12
 BYTE   As3
 BYTE   N06  Fn4
 BYTE   W12
 BYTE   As3
 BYTE   N06  En4
 BYTE   W06
 BYTE   N12  As3
 BYTE   N12  Dn4
 BYTE   W12
 BYTE   As3
 BYTE   N12  En4
 BYTE   W12
 BYTE   PEND 
//  #08 //020   ----------------------------------------
 BYTE   PATT
  POIN2 Label_014D0DEA
//  #08 //021   ----------------------------------------
 BYTE   PATT
  POIN2 Label_014D0DEA
//  #08 //022   ----------------------------------------
 BYTE   PATT
  POIN2 Label_014D0DEA
//  #08 //023   ----------------------------------------
 BYTE   PATT
  POIN2 Label_014D0E19
//  #08 //024   ----------------------------------------
Label_014D0E52:
 BYTE   N06  Ds4  v083
 BYTE   W12
 BYTE   Cn4
 BYTE   W06
 BYTE   Fn4
 BYTE   W12
 BYTE   Cn4
 BYTE   W12
 BYTE   Ds4
 BYTE   W12
 BYTE   Ds4
 BYTE   W12
 BYTE   Cn4
 BYTE   W06
 BYTE   Fn4
 BYTE   W12
 BYTE   Cn4
 BYTE   W12
 BYTE   PEND 
//  #08 //025   ----------------------------------------
Label_014D0E67:
 BYTE   N06  En4  v083
 BYTE   W12
 BYTE   Cn4
 BYTE   W06
 BYTE   Gn3
 BYTE   W12
 BYTE   Cn4
 BYTE   W12
 BYTE   En4
 BYTE   W12
 BYTE   En4
 BYTE   W12
 BYTE   Cn4
 BYTE   W06
 BYTE   Gn4
 BYTE   W06
 BYTE   Gn3
 BYTE   W06
 BYTE   Cn4
 BYTE   W06
 BYTE   Gn3
 BYTE   W06
 BYTE   PEND 
//  #08 //026   ----------------------------------------
 BYTE   PATT
  POIN2 Label_014D0E52
//  #08 //027   ----------------------------------------
 BYTE   PATT
  POIN2 Label_014D0E67
//  #08 //028   ----------------------------------------
 BYTE   PATT
  POIN2 Label_014D0E52
//  #08 //029   ----------------------------------------
 BYTE   PATT
  POIN2 Label_014D0E67
//  #08 //030   ----------------------------------------
 BYTE   PATT
  POIN2 Label_014D0E52
//  #08 //031   ----------------------------------------
 BYTE   PATT
  POIN2 Label_014D0E67
//  #08 //032   ----------------------------------------
Label_014D0E9E:
 BYTE   N18  Cn5  v083
 BYTE   W18
 BYTE   Ds5
 BYTE   W18
 BYTE   N12  Gn5
 BYTE   W12
 BYTE   N24  Fn5
 BYTE   W24
 BYTE   N06  Ds5
 BYTE   W06
 BYTE   Fn5
 BYTE   W06
 BYTE   Ds5
 BYTE   W06
 BYTE   Dn5
 BYTE   W06
 BYTE   PEND 
//  #08 //033   ----------------------------------------
Label_014D0EB4:
 BYTE   N48  Cn5  v083
 BYTE   W48
 BYTE   Gn5
 BYTE   W48
 BYTE   PEND 
//  #08 //034   ----------------------------------------
Label_014D0EBB:
 BYTE   N06  Fn5  v083
 BYTE   W12
 BYTE   Dn5
 BYTE   W12
 BYTE   As5
 BYTE   W06
 BYTE   Fn5
 BYTE   W12
 BYTE   Dn5
 BYTE   W06
 BYTE   N18  Fn5
 BYTE   W18
 BYTE   Cn5
 BYTE   W18
 BYTE   N12  An5
 BYTE   W12
 BYTE   PEND 
//  #08 //035   ----------------------------------------
 BYTE   N48  Gn5  v083
 BYTE   W48
 BYTE   Dn5
 BYTE   W48
//  #08 //036   ----------------------------------------
 BYTE   PATT
  POIN2 Label_014D0E9E
//  #08 //037   ----------------------------------------
 BYTE   PATT
  POIN2 Label_014D0EB4
//  #08 //038   ----------------------------------------
 BYTE   PATT
  POIN2 Label_014D0EBB
//  #08 //039   ----------------------------------------
 BYTE   N48  Gn5  v083
 BYTE   W48
 BYTE   Dn5
 BYTE   W48
//  #08 //040   ----------------------------------------
 BYTE   PAN   c_v+38
 BYTE   N18  Cn4  v083
 BYTE   N18  En4
 BYTE   W18
 BYTE   N06  Cn4
 BYTE   N06  Dn4
 BYTE   W12
 BYTE   Cn4
 BYTE   N06  En4
 BYTE   W12
 BYTE   Cn4
 BYTE   N06  Fn4
 BYTE   W12
 BYTE   Cn4
 BYTE   N06  Fn4
 BYTE   W12
 BYTE   Cn4
 BYTE   N06  En4
 BYTE   W06
 BYTE   N12  Cn4
 BYTE   N12  Dn4
 BYTE   W12
 BYTE   Cn4
 BYTE   N12  En4
 BYTE   W12
//  #08 //041   ----------------------------------------
 BYTE   N18  Cn4
 BYTE   N18  En4
 BYTE   W18
 BYTE   N06  Cn4
 BYTE   N06  Dn4
 BYTE   W12
 BYTE   Cn4
 BYTE   N06  En4
 BYTE   W12
 BYTE   Cn4
 BYTE   N06  Fn4
 BYTE   W12
 BYTE   Cn4
 BYTE   N06  Fn4
 BYTE   W12
 BYTE   Cn4
 BYTE   N06  En4
 BYTE   W06
 BYTE   N12  Cn4
 BYTE   N12  Dn4
 BYTE   W12
 BYTE   Cn4
 BYTE   N12  En4
 BYTE   W12
//  #08 //042   ----------------------------------------
 BYTE   N18  Cn4
 BYTE   N18  En4
 BYTE   W18
 BYTE   N06  Cn4
 BYTE   N06  Dn4
 BYTE   W12
 BYTE   Cn4
 BYTE   N06  En4
 BYTE   W12
 BYTE   Cn4
 BYTE   N06  Fn4
 BYTE   W12
 BYTE   Cn4
 BYTE   N06  Fn4
 BYTE   W12
 BYTE   Cn4
 BYTE   N06  En4
 BYTE   W06
 BYTE   N12  Cn4
 BYTE   N12  Dn4
 BYTE   W12
 BYTE   Cn4
 BYTE   N12  En4
 BYTE   W12
//  #08 //043   ----------------------------------------
 BYTE   N18  Cn4
 BYTE   N18  En4
 BYTE   W18
 BYTE   N06  Cn4
 BYTE   N06  Dn4
 BYTE   W12
 BYTE   Cn4
 BYTE   N06  En4
 BYTE   W12
 BYTE   As3
 BYTE   N06  Fn4
 BYTE   W12
 BYTE   As3
 BYTE   N06  Fn4
 BYTE   W12
 BYTE   As3
 BYTE   N06  En4
 BYTE   W06
 BYTE   N12  As3
 BYTE   N12  Dn4
 BYTE   W12
 BYTE   As3
 BYTE   N12  En4
 BYTE   W12
//  #08 //044   ----------------------------------------
 BYTE   N18
 BYTE   W18
 BYTE   N06  Fs4
 BYTE   W12
 BYTE   Gn4
 BYTE   W12
 BYTE   An4
 BYTE   W06
 BYTE   N24  Bn4
 BYTE   W24
 BYTE   Dn4
 BYTE   W24
//  #08 //045   ----------------------------------------
 BYTE   Cn4
 BYTE   W24
 BYTE   N06  Bn3
 BYTE   W06
 BYTE   Cn4
 BYTE   W06
 BYTE   Bn3
 BYTE   W06
 BYTE   An3
 BYTE   W06
 BYTE   N48  Bn3
 BYTE   W48
//  #08 //046   ----------------------------------------
 BYTE   N18  Cn4
 BYTE   W18
 BYTE   Dn4
 BYTE   W18
 BYTE   N12  En4
 BYTE   W12
 BYTE   N24  Dn4
 BYTE   W24
 BYTE   Fs4
 BYTE   W24
//  #08 //047   ----------------------------------------
 BYTE   N18  Gn4
 BYTE   W18
 BYTE   Ds4
 BYTE   W18
 BYTE   N12  Gn4
 BYTE   W12
 BYTE   N48  Fn4
 BYTE   W48
//  #08 //048   ----------------------------------------
 BYTE   N18  Gn4
 BYTE   W18
 BYTE   N30  Dn4
 BYTE   W30
 BYTE   N24
 BYTE   W24
 BYTE   Cn4
 BYTE   W24
//  #08 //049   ----------------------------------------
 BYTE   N30
 BYTE   W30
 BYTE   N06  Dn4
 BYTE   W06
 BYTE   Ds4
 BYTE   W06
 BYTE   Gn4
 BYTE   W06
 BYTE   N48  Fn4
 BYTE   W48
//  #08 //050   ----------------------------------------
 BYTE   N30  Gn4
 BYTE   W30
 BYTE   N06  Fn4
 BYTE   W06
 BYTE   En4
 BYTE   W06
 BYTE   Fn4
 BYTE   W06
 BYTE   N18  Dn4
 BYTE   W18
 BYTE   En4
 BYTE   W18
 BYTE   N12  Fn4
 BYTE   W12
//  #08 //051   ----------------------------------------
 BYTE   N18  Ds4
 BYTE   W18
 BYTE   Cn4
 BYTE   W18
 BYTE   N12  Gn4
 BYTE   W12
 BYTE   N24  Fn4
 BYTE   W24
 BYTE   As4
 BYTE   W24
//  #08 //052   ----------------------------------------
 BYTE   N18  En4
 BYTE   W18
 BYTE   N06  Fs4
 BYTE   W12
 BYTE   Gn4
 BYTE   W12
 BYTE   An4
 BYTE   W06
 BYTE   N24  Bn4
 BYTE   W24
 BYTE   Dn4
 BYTE   W24
//  #08 //053   ----------------------------------------
 BYTE   Cn4
 BYTE   W24
 BYTE   N06  Bn3
 BYTE   W06
 BYTE   Cn4
 BYTE   W06
 BYTE   Bn3
 BYTE   W06
 BYTE   An3
 BYTE   W06
 BYTE   N48  Bn3
 BYTE   W48
//  #08 //054   ----------------------------------------
 BYTE   N18  Cn4
 BYTE   W18
 BYTE   Dn4
 BYTE   W18
 BYTE   N12  En4
 BYTE   W12
 BYTE   N24  Dn4
 BYTE   W24
 BYTE   Fs4
 BYTE   W24
//  #08 //055   ----------------------------------------
 BYTE   N18  Gn4
 BYTE   W18
 BYTE   Ds4
 BYTE   W18
 BYTE   N12  Gn4
 BYTE   W12
 BYTE   N48  Fn4
 BYTE   W48
//  #08 //056   ----------------------------------------
 BYTE   N18  Gn4
 BYTE   W18
 BYTE   N30  Dn4
 BYTE   W30
 BYTE   N24
 BYTE   W24
 BYTE   Cn4
 BYTE   W24
//  #08 //057   ----------------------------------------
 BYTE   N30
 BYTE   W30
 BYTE   N06  Dn4
 BYTE   W06
 BYTE   Ds4
 BYTE   W06
 BYTE   Gn4
 BYTE   W06
 BYTE   N48  Fn4
 BYTE   W48
//  #08 //058   ----------------------------------------
 BYTE   N30  Gn4
 BYTE   W30
 BYTE   N06  Fn4
 BYTE   W06
 BYTE   En4
 BYTE   W06
 BYTE   Fn4
 BYTE   W06
 BYTE   N18  Dn4
 BYTE   W18
 BYTE   En4
 BYTE   W18
 BYTE   N12  Fn4
 BYTE   W12
//  #08 //059   ----------------------------------------
 BYTE   N18  Ds4
 BYTE   W18
 BYTE   Cn4
 BYTE   W18
 BYTE   N12  Gn4
 BYTE   W12
 BYTE   N24  Fn4
 BYTE   W24
 BYTE   As4
 BYTE   W24
//  #08 //060   ----------------------------------------
 BYTE   N18  Cn4
 BYTE   N18  En4
 BYTE   W18
 BYTE   N06  Cn4
 BYTE   N06  Dn4
 BYTE   W12
 BYTE   Cn4
 BYTE   N06  En4
 BYTE   W12
 BYTE   Cn4
 BYTE   N06  Fn4
 BYTE   W12
 BYTE   Cn4
 BYTE   N06  Fn4
 BYTE   W12
 BYTE   Cn4
 BYTE   N06  En4
 BYTE   W06
 BYTE   N12  Cn4
 BYTE   N12  Dn4
 BYTE   W12
 BYTE   Cn4
 BYTE   N12  En4
 BYTE   W12
//  #08 //061   ----------------------------------------
 BYTE   N18  Cn4
 BYTE   N18  En4
 BYTE   W18
 BYTE   N06  Cn4
 BYTE   N06  Dn4
 BYTE   W12
 BYTE   Cn4
 BYTE   N06  En4
 BYTE   W12
 BYTE   Cn4
 BYTE   N06  Fn4
 BYTE   W12
 BYTE   Cn4
 BYTE   N06  Fn4
 BYTE   W12
 BYTE   Cn4
 BYTE   N06  En4
 BYTE   W06
 BYTE   N12  Cn4
 BYTE   N12  Dn4
 BYTE   W12
 BYTE   Cn4
 BYTE   N12  En4
 BYTE   W12
//  #08 //062   ----------------------------------------
 BYTE   N18  Cn4
 BYTE   N18  En4
 BYTE   W18
 BYTE   N06  Cn4
 BYTE   N06  Dn4
 BYTE   W12
 BYTE   Cn4
 BYTE   N06  En4
 BYTE   W12
 BYTE   Cn4
 BYTE   N06  Fn4
 BYTE   W12
 BYTE   Cn4
 BYTE   N06  Fn4
 BYTE   W12
 BYTE   Cn4
 BYTE   N06  En4
 BYTE   W06
 BYTE   N12  Cn4
 BYTE   N12  Dn4
 BYTE   W12
 BYTE   Cn4
 BYTE   N12  En4
 BYTE   W12
//  #08 //063   ----------------------------------------
 BYTE   N18  Cn4
 BYTE   N18  En4
 BYTE   W18
 BYTE   N06  Cn4
 BYTE   N06  Dn4
 BYTE   W12
 BYTE   Cn4
 BYTE   N06  En4
 BYTE   W12
 BYTE   As3
 BYTE   N06  Fn4
 BYTE   W12
 BYTE   As3
 BYTE   N06  Fn4
 BYTE   W12
 BYTE   As3
 BYTE   N06  En4
 BYTE   W06
 BYTE   N12  As3
 BYTE   N12  Dn4
 BYTE   W12
 BYTE   As3
 BYTE   N12  En4
 BYTE   W12
//  #08 //064   ----------------------------------------
 BYTE   N18  Cn4
 BYTE   N18  En4
 BYTE   W18
 BYTE   N06  Cn4
 BYTE   N06  Dn4
 BYTE   W12
 BYTE   Cn4
 BYTE   N06  En4
 BYTE   W12
 BYTE   Cn4
 BYTE   N06  Fn4
 BYTE   W12
 BYTE   Cn4
 BYTE   N06  Fn4
 BYTE   W12
 BYTE   Cn4
 BYTE   N06  En4
 BYTE   W06
 BYTE   N12  Cn4
 BYTE   N12  Dn4
 BYTE   W12
 BYTE   Cn4
 BYTE   N12  En4
 BYTE   W12
//  #08 //065   ----------------------------------------
 BYTE   N18  Cn4
 BYTE   N18  En4
 BYTE   W18
 BYTE   N06  Cn4
 BYTE   N06  Dn4
 BYTE   W12
 BYTE   Cn4
 BYTE   N06  En4
 BYTE   W12
 BYTE   Cn4
 BYTE   N06  Fn4
 BYTE   W12
 BYTE   Cn4
 BYTE   N06  Fn4
 BYTE   W12
 BYTE   Cn4
 BYTE   N06  En4
 BYTE   W06
 BYTE   N12  Cn4
 BYTE   N12  Dn4
 BYTE   W12
 BYTE   Cn4
 BYTE   N12  En4
 BYTE   W12
//  #08 //066   ----------------------------------------
 BYTE   N18  Cn4
 BYTE   N18  En4
 BYTE   W18
 BYTE   N06  Cn4
 BYTE   N06  Dn4
 BYTE   W12
 BYTE   Cn4
 BYTE   N06  En4
 BYTE   W12
 BYTE   Cn4
 BYTE   N06  Fn4
 BYTE   W12
 BYTE   Cn4
 BYTE   N06  Fn4
 BYTE   W12
 BYTE   Cn4
 BYTE   N06  En4
 BYTE   W06
 BYTE   N12  Cn4
 BYTE   N12  Dn4
 BYTE   W12
 BYTE   Cn4
 BYTE   N12  En4
 BYTE   W12
//  #08 //067   ----------------------------------------
 BYTE   N18  Cn4
 BYTE   N18  En4
 BYTE   W18
 BYTE   N06  Cn4
 BYTE   N06  Dn4
 BYTE   W12
 BYTE   Cn4
 BYTE   N06  En4
 BYTE   W12
 BYTE   As3
 BYTE   N06  Fn4
 BYTE   W12
 BYTE   As3
 BYTE   N06  Fn4
 BYTE   W12
 BYTE   As3
 BYTE   N06  En4
 BYTE   W06
 BYTE   N12  As3
 BYTE   N12  Dn4
 BYTE   W12
 BYTE   As3
 BYTE   N12  En4
 BYTE   W12
//  #08 //068   ----------------------------------------
 BYTE   N06  Ds4
 BYTE   W12
 BYTE   Cn4
 BYTE   W06
 BYTE   Fn4
 BYTE   W12
 BYTE   Cn4
 BYTE   W12
 BYTE   Ds4
 BYTE   W12
 BYTE   Ds4
 BYTE   W12
 BYTE   Cn4
 BYTE   W06
 BYTE   Fn4
 BYTE   W12
 BYTE   Cn4
 BYTE   W12
//  #08 //069   ----------------------------------------
 BYTE   En4
 BYTE   W12
 BYTE   Cn4
 BYTE   W06
 BYTE   Gn3
 BYTE   W12
 BYTE   Cn4
 BYTE   W12
 BYTE   En4
 BYTE   W12
 BYTE   En4
 BYTE   W12
 BYTE   Cn4
 BYTE   W06
 BYTE   Gn4
 BYTE   W06
 BYTE   Gn3
 BYTE   W06
 BYTE   Cn4
 BYTE   W06
 BYTE   Gn3
 BYTE   W06
//  #08 //070   ----------------------------------------
 BYTE   Ds4
 BYTE   W12
 BYTE   Cn4
 BYTE   W06
 BYTE   Fn4
 BYTE   W12
 BYTE   Cn4
 BYTE   W12
 BYTE   Ds4
 BYTE   W12
 BYTE   Ds4
 BYTE   W12
 BYTE   Cn4
 BYTE   W06
 BYTE   Fn4
 BYTE   W12
 BYTE   Cn4
 BYTE   W12
//  #08 //071   ----------------------------------------
 BYTE   En4
 BYTE   W12
 BYTE   Cn4
 BYTE   W06
 BYTE   Gn3
 BYTE   W12
 BYTE   Cn4
 BYTE   W12
 BYTE   En4
 BYTE   W12
 BYTE   En4
 BYTE   W12
 BYTE   Cn4
 BYTE   W06
 BYTE   Gn4
 BYTE   W06
 BYTE   Gn3
 BYTE   W06
 BYTE   Cn4
 BYTE   W06
 BYTE   Gn3
 BYTE   W06
//  #08 //072   ----------------------------------------
 BYTE   Ds4
 BYTE   W12
 BYTE   Cn4
 BYTE   W06
 BYTE   Fn4
 BYTE   W12
 BYTE   Cn4
 BYTE   W12
 BYTE   Ds4
 BYTE   W12
 BYTE   Ds4
 BYTE   W12
 BYTE   Cn4
 BYTE   W06
 BYTE   Fn4
 BYTE   W12
 BYTE   Cn4
 BYTE   W12
//  #08 //073   ----------------------------------------
 BYTE   En4
 BYTE   W12
 BYTE   Cn4
 BYTE   W06
 BYTE   Gn3
 BYTE   W12
 BYTE   Cn4
 BYTE   W12
 BYTE   En4
 BYTE   W12
 BYTE   En4
 BYTE   W12
 BYTE   Cn4
 BYTE   W06
 BYTE   Gn4
 BYTE   W06
 BYTE   Gn3
 BYTE   W06
 BYTE   Cn4
 BYTE   W06
 BYTE   Gn3
 BYTE   W06
//  #08 //074   ----------------------------------------
 BYTE   Ds4
 BYTE   W12
 BYTE   Cn4
 BYTE   W06
 BYTE   Fn4
 BYTE   W12
 BYTE   Cn4
 BYTE   W12
 BYTE   Ds4
 BYTE   W12
 BYTE   Ds4
 BYTE   W12
 BYTE   Cn4
 BYTE   W06
 BYTE   Fn4
 BYTE   W12
 BYTE   Cn4
 BYTE   W12
//  #08 //075   ----------------------------------------
 BYTE   En4
 BYTE   W12
 BYTE   Cn4
 BYTE   W06
 BYTE   Gn3
 BYTE   W12
 BYTE   Cn4
 BYTE   W12
 BYTE   En4
 BYTE   W12
 BYTE   En4
 BYTE   W12
 BYTE   Cn4
 BYTE   W06
 BYTE   Gn4
 BYTE   W06
 BYTE   Gn3
 BYTE   W06
 BYTE   Cn4
 BYTE   W06
 BYTE   Gn3
 BYTE   W06
//  #08 //076   ----------------------------------------
 BYTE   N18  Cn5
 BYTE   W18
 BYTE   Ds5
 BYTE   W18
 BYTE   N12  Gn5
 BYTE   W12
 BYTE   N24  Fn5
 BYTE   W24
 BYTE   N06  Ds5
 BYTE   W06
 BYTE   Fn5
 BYTE   W06
 BYTE   Ds5
 BYTE   W06
 BYTE   Dn5
 BYTE   W06
//  #08 //077   ----------------------------------------
 BYTE   N48  Cn5
 BYTE   W48
 BYTE   Gn5
 BYTE   W48
//  #08 //078   ----------------------------------------
 BYTE   N06  Fn5
 BYTE   W12
 BYTE   Dn5
 BYTE   W12
 BYTE   As5
 BYTE   W06
 BYTE   Fn5
 BYTE   W12
 BYTE   Dn5
 BYTE   W06
 BYTE   N18  Fn5
 BYTE   W18
 BYTE   Cn5
 BYTE   W18
 BYTE   N12  An5
 BYTE   W12
//  #08 //079   ----------------------------------------
 BYTE   N48  Gn5
 BYTE   W48
 BYTE   Dn5
 BYTE   W48
//  #08 //080   ----------------------------------------
 BYTE   N18  Cn5
 BYTE   W18
 BYTE   Ds5
 BYTE   W18
 BYTE   N12  Gn5
 BYTE   W12
 BYTE   N24  Fn5
 BYTE   W24
 BYTE   N06  Ds5
 BYTE   W06
 BYTE   Fn5
 BYTE   W06
 BYTE   Ds5
 BYTE   W06
 BYTE   Dn5
 BYTE   W06
//  #08 //081   ----------------------------------------
 BYTE   N48  Cn5
 BYTE   W48
 BYTE   Gn5
 BYTE   W48
//  #08 //082   ----------------------------------------
 BYTE   N06  Fn5
 BYTE   W12
 BYTE   Dn5
 BYTE   W12
 BYTE   As5
 BYTE   W06
 BYTE   Fn5
 BYTE   W12
 BYTE   Dn5
 BYTE   W06
 BYTE   N18  Fn5
 BYTE   W18
 BYTE   Cn5
 BYTE   W18
 BYTE   N12  An5
 BYTE   W12
//  #08 //083   ----------------------------------------
 BYTE   N48  Gn5
 BYTE   W48
 BYTE   Dn5
 BYTE   W48
//  #08 //084   ----------------------------------------
 BYTE   VOL   18*ToadstoolTourSkinsMatch_mvl/mxv
 BYTE   PAN   c_v+38
 BYTE   N18  En4  v083
 BYTE   N18  Cn4
 BYTE   W04
 BYTE   VOL   17*ToadstoolTourSkinsMatch_mvl/mxv
 BYTE   W04
 BYTE   VOL   16*ToadstoolTourSkinsMatch_mvl/mxv
 BYTE   W04
 BYTE   VOL   15*ToadstoolTourSkinsMatch_mvl/mxv
 BYTE   W03
 BYTE   N06  Cn4  v083
 BYTE   N06  Dn4
 BYTE   VOL   13*ToadstoolTourSkinsMatch_mvl/mxv
 BYTE   W04
 BYTE   VOL   12*ToadstoolTourSkinsMatch_mvl/mxv
 BYTE   W04
 BYTE   VOL   11*ToadstoolTourSkinsMatch_mvl/mxv
 BYTE   W01
 BYTE   N06  En4  v083
 BYTE   N06  Cn4
 BYTE   W02
 BYTE   VOL   10*ToadstoolTourSkinsMatch_mvl/mxv
 BYTE   W04
 BYTE   VOL   10*ToadstoolTourSkinsMatch_mvl/mxv
 BYTE   W04
 BYTE   N06  Cn4  v083
 BYTE   N06  Fn4
 BYTE   VOL   10*ToadstoolTourSkinsMatch_mvl/mxv
 BYTE   W04
 BYTE   VOL   10*ToadstoolTourSkinsMatch_mvl/mxv
 BYTE   W04
 BYTE   VOL   10*ToadstoolTourSkinsMatch_mvl/mxv
 BYTE   W02
 BYTE   N06  Cn4  v083
 BYTE   N06  Fn4
 BYTE   W02
 BYTE   VOL   10*ToadstoolTourSkinsMatch_mvl/mxv
 BYTE   W04
 BYTE   VOL   10*ToadstoolTourSkinsMatch_mvl/mxv
 BYTE   W04
 BYTE   VOL   10*ToadstoolTourSkinsMatch_mvl/mxv
 BYTE   N06  En4  v083
 BYTE   N06  Cn4
 BYTE   W04
 BYTE   VOL   10*ToadstoolTourSkinsMatch_mvl/mxv
 BYTE   W01
 BYTE   N12  Dn4  v083
 BYTE   N12  Cn4
 BYTE   W02
 BYTE   VOL   10*ToadstoolTourSkinsMatch_mvl/mxv
 BYTE   W04
 BYTE   VOL   10*ToadstoolTourSkinsMatch_mvl/mxv
 BYTE   W04
 BYTE   N12  Cn4  v083
 BYTE   N12  En4
 BYTE   VOL   10*ToadstoolTourSkinsMatch_mvl/mxv
 BYTE   W04
 BYTE   VOL   10*ToadstoolTourSkinsMatch_mvl/mxv
 BYTE   W04
 BYTE   VOL   10*ToadstoolTourSkinsMatch_mvl/mxv
 BYTE   W02
 BYTE   N18  Cn4  v083
 BYTE   N18  En4
 BYTE   W02
 BYTE   VOL   10*ToadstoolTourSkinsMatch_mvl/mxv
 BYTE   W04
 BYTE   VOL   10*ToadstoolTourSkinsMatch_mvl/mxv
 BYTE   W04
 BYTE   VOL   10*ToadstoolTourSkinsMatch_mvl/mxv
 BYTE   W04
 BYTE   VOL   10*ToadstoolTourSkinsMatch_mvl/mxv
 BYTE   W01
 BYTE   N06  Dn4  v083
 BYTE   N06  Cn4
 BYTE   W02
//  #08 //085   ----------------------------------------
 BYTE   VOL   10*ToadstoolTourSkinsMatch_mvl/mxv
 BYTE   W04
 BYTE   VOL   10*ToadstoolTourSkinsMatch_mvl/mxv
 BYTE   W04
 BYTE   N06  En4  v083
 BYTE   N06  Cn4
 BYTE   VOL   10*ToadstoolTourSkinsMatch_mvl/mxv
 BYTE   W04
 BYTE   VOL   10*ToadstoolTourSkinsMatch_mvl/mxv
 BYTE   W04
 BYTE   VOL   10*ToadstoolTourSkinsMatch_mvl/mxv
 BYTE   W02
 BYTE   N06  Cn4  v083
 BYTE   N06  Fn4
 BYTE   W02
 BYTE   VOL   10*ToadstoolTourSkinsMatch_mvl/mxv
 BYTE   W04
 BYTE   VOL   10*ToadstoolTourSkinsMatch_mvl/mxv
 BYTE   W04
 BYTE   VOL   10*ToadstoolTourSkinsMatch_mvl/mxv
 BYTE   N06  Cn4  v083
 BYTE   N06  Fn4
 BYTE   W04
 BYTE   VOL   10*ToadstoolTourSkinsMatch_mvl/mxv
 BYTE   W04
 BYTE   VOL   10*ToadstoolTourSkinsMatch_mvl/mxv
 BYTE   W03
 BYTE   N06  Cn4  v083
 BYTE   N06  En4
 BYTE   W01
 BYTE   VOL   10*ToadstoolTourSkinsMatch_mvl/mxv
 BYTE   W04
 BYTE   N12  Cn4  v083
 BYTE   N12  Dn4
 BYTE   VOL   10*ToadstoolTourSkinsMatch_mvl/mxv
 BYTE   W04
 BYTE   VOL   10*ToadstoolTourSkinsMatch_mvl/mxv
 BYTE   W04
 BYTE   VOL   10*ToadstoolTourSkinsMatch_mvl/mxv
 BYTE   W02
 BYTE   N12  En4  v083
 BYTE   N12  Cn4
 BYTE   W02
 BYTE   VOL   10*ToadstoolTourSkinsMatch_mvl/mxv
 BYTE   W04
 BYTE   VOL   10*ToadstoolTourSkinsMatch_mvl/mxv
 BYTE   W04
 BYTE   VOL   10*ToadstoolTourSkinsMatch_mvl/mxv
 BYTE   N18  En4  v083
 BYTE   N18  Cn4
 BYTE   W04
 BYTE   VOL   10*ToadstoolTourSkinsMatch_mvl/mxv
 BYTE   W04
 BYTE   VOL   10*ToadstoolTourSkinsMatch_mvl/mxv
 BYTE   W04
 BYTE   VOL   10*ToadstoolTourSkinsMatch_mvl/mxv
 BYTE   W04
 BYTE   N06  Dn4  v083
 BYTE   N06  Cn4
 BYTE   VOL   10*ToadstoolTourSkinsMatch_mvl/mxv
 BYTE   W04
 BYTE   VOL   10*ToadstoolTourSkinsMatch_mvl/mxv
 BYTE   W04
 BYTE   VOL   10*ToadstoolTourSkinsMatch_mvl/mxv
 BYTE   W02
 BYTE   N06  Cn4  v083
 BYTE   N06  En4
 BYTE   W02
 BYTE   VOL   10*ToadstoolTourSkinsMatch_mvl/mxv
 BYTE   W04
//  #08 //086   ----------------------------------------
 BYTE   VOL   10*ToadstoolTourSkinsMatch_mvl/mxv
 BYTE   W04
 BYTE   VOL   10*ToadstoolTourSkinsMatch_mvl/mxv
 BYTE   N06  Cn4  v083
 BYTE   N06  Fn4
 BYTE   W04
 BYTE   VOL   10*ToadstoolTourSkinsMatch_mvl/mxv
 BYTE   W04
 BYTE   VOL   10*ToadstoolTourSkinsMatch_mvl/mxv
 BYTE   W03
 BYTE   N06  Fn4  v083
 BYTE   N06  Cn4
 BYTE   W01
 BYTE   VOL   10*ToadstoolTourSkinsMatch_mvl/mxv
 BYTE   W04
 BYTE   VOL   10*ToadstoolTourSkinsMatch_mvl/mxv
 BYTE   W04
 BYTE   VOL   10*ToadstoolTourSkinsMatch_mvl/mxv
 BYTE   N06  Cn4  v083
 BYTE   N06  En4
 BYTE   W03
 BYTE   VOL   10*ToadstoolTourSkinsMatch_mvl/mxv
 BYTE   W02
 BYTE   N12  Dn4  v083
 BYTE   N12  Cn4
 BYTE   W02
 BYTE   VOL   10*ToadstoolTourSkinsMatch_mvl/mxv
 BYTE   W04
 BYTE   VOL   10*ToadstoolTourSkinsMatch_mvl/mxv
 BYTE   W04
 BYTE   VOL   10*ToadstoolTourSkinsMatch_mvl/mxv
 BYTE   N12  En4  v083
 BYTE   N12  Cn4
 BYTE   W04
 BYTE   VOL   10*ToadstoolTourSkinsMatch_mvl/mxv
 BYTE   W04
 BYTE   VOL   10*ToadstoolTourSkinsMatch_mvl/mxv
 BYTE   W02
 BYTE   N18  En4  v083
 BYTE   N18  Cn4
 BYTE   W01
 BYTE   VOL   10*ToadstoolTourSkinsMatch_mvl/mxv
 BYTE   W04
 BYTE   VOL   10*ToadstoolTourSkinsMatch_mvl/mxv
 BYTE   W04
 BYTE   VOL   10*ToadstoolTourSkinsMatch_mvl/mxv
 BYTE   W04
 BYTE   VOL   10*ToadstoolTourSkinsMatch_mvl/mxv
 BYTE   W02
 BYTE   N06  Cn4  v083
 BYTE   N06  Dn4
 BYTE   W02
 BYTE   VOL   10*ToadstoolTourSkinsMatch_mvl/mxv
 BYTE   W04
 BYTE   VOL   10*ToadstoolTourSkinsMatch_mvl/mxv
 BYTE   W04
 BYTE   VOL   10*ToadstoolTourSkinsMatch_mvl/mxv
 BYTE   N06  En4  v083
 BYTE   N06  Cn4
 BYTE   W04
 BYTE   VOL   10*ToadstoolTourSkinsMatch_mvl/mxv
 BYTE   W04
Label_014D13D0:
 BYTE   VOL   10*ToadstoolTourSkinsMatch_mvl/mxv
 BYTE   W02
 BYTE   N06  As3  v083
 BYTE   N06  Fn4
 BYTE   W01
 BYTE   PEND 
 BYTE   VOL   10*ToadstoolTourSkinsMatch_mvl/mxv
 BYTE   W04
 BYTE   VOL   10*ToadstoolTourSkinsMatch_mvl/mxv
 BYTE   W04
//  #08 //087   ----------------------------------------
 BYTE   PATT
  POIN2 Label_014D13D0
//  #08 //088   ----------------------------------------
 BYTE   VOL   10*ToadstoolTourSkinsMatch_mvl/mxv
 BYTE   W04
 BYTE   VOL   10*ToadstoolTourSkinsMatch_mvl/mxv
 BYTE   W03
 BYTE   N06  En4  v083
 BYTE   N06  As3
 BYTE   W01
 BYTE   VOL   10*ToadstoolTourSkinsMatch_mvl/mxv
 BYTE   W04
 BYTE   VOL   10*ToadstoolTourSkinsMatch_mvl/mxv
 BYTE   N12  As3  v083
 BYTE   N12  Dn4
 BYTE   W04
 BYTE   VOL   10*ToadstoolTourSkinsMatch_mvl/mxv
 BYTE   W04
 BYTE   VOL   10*ToadstoolTourSkinsMatch_mvl/mxv
 BYTE   W02
 BYTE   N12  En4  v083
 BYTE   N12  As3
 BYTE   W01
 BYTE   VOL   10*ToadstoolTourSkinsMatch_mvl/mxv
 BYTE   W04
 BYTE   VOL   10*ToadstoolTourSkinsMatch_mvl/mxv
 BYTE   W05
 BYTE   FINE

//**************** Track 9 (Midi-Chn.8) ****************//

ToadstoolTourSkinsMatch_009:
//  #09 //000   ----------------------------------------
Label_014B7A1C:
 BYTE   TEMPO   118*ToadstoolTourSkinsMatch_tbs/2
 BYTE   KEYSH   ToadstoolTourSkinsMatch_key+0
 BYTE   VOICE   90
 BYTE   VOL   16*ToadstoolTourSkinsMatch_mvl/mxv
 BYTE   PAN   c_v+12
 BYTE   W96
//  #09 //001   ----------------------------------------
 BYTE   W96
//  #09 //002   ----------------------------------------
 BYTE   W96
//  #09 //003   ----------------------------------------
 BYTE   W96
//  #09 //004   ----------------------------------------
 BYTE   W96
//  #09 //005   ----------------------------------------
 BYTE   W96
//  #09 //006   ----------------------------------------
 BYTE   W96
//  #09 //007   ----------------------------------------
 BYTE   W96
//  #09 //008   ----------------------------------------
 BYTE   W96
//  #09 //009   ----------------------------------------
 BYTE   W96
//  #09 //010   ----------------------------------------
 BYTE   W96
//  #09 //011   ----------------------------------------
 BYTE   W96
//  #09 //012   ----------------------------------------
 BYTE   W96
//  #09 //013   ----------------------------------------
 BYTE   W96
//  #09 //014   ----------------------------------------
 BYTE   W96
//  #09 //015   ----------------------------------------
 BYTE   W96
//  #09 //016   ----------------------------------------
 BYTE   GoTo
  POIN2 Label_014B7A1C
//  #09 //017   ----------------------------------------
 BYTE   W96
//  #09 //018   ----------------------------------------
 BYTE   W96
//  #09 //019   ----------------------------------------
 BYTE   W96
//  #09 //020   ----------------------------------------
 BYTE   W96
//  #09 //021   ----------------------------------------
 BYTE   W96
//  #09 //022   ----------------------------------------
 BYTE   W96
//  #09 //023   ----------------------------------------
 BYTE   W96
//  #09 //024   ----------------------------------------
 BYTE   W96
//  #09 //025   ----------------------------------------
 BYTE   W96
//  #09 //026   ----------------------------------------
 BYTE   W96
//  #09 //027   ----------------------------------------
 BYTE   W96
//  #09 //028   ----------------------------------------
 BYTE   W96
//  #09 //029   ----------------------------------------
 BYTE   W06
 BYTE   N48  Cn4  v102
 BYTE   N48  Fn4
 BYTE   W48
 BYTE   N18
 BYTE   N18  Gs4
 BYTE   W18
 BYTE   Gs4
 BYTE   N18  Cn5
 BYTE   W18
 BYTE   N12
 BYTE   N12  Fn5
 BYTE   W12
//  #09 //030   ----------------------------------------
 BYTE   N18  Cn5
 BYTE   N18  En5
 BYTE   W18
 BYTE   Gn4
 BYTE   N18  Cn5
 BYTE   W18
 BYTE   N12
 BYTE   N12  En5
 BYTE   W12
 BYTE   N48  En4
 BYTE   N48  Gn4
 BYTE   W48
//  #09 //031   ----------------------------------------
 BYTE   N06  Cn4
 BYTE   N06  Fn4
 BYTE   W06
 BYTE   Fn4
 BYTE   N06  Gs4
 BYTE   W06
 BYTE   Gs4
 BYTE   N06  Cn5
 BYTE   W06
 BYTE   Cn4
 BYTE   N06  Fn4
 BYTE   W06
 BYTE   Fn4
 BYTE   N06  Gs4
 BYTE   W06
 BYTE   Gs4
 BYTE   N06  Cn5
 BYTE   W06
 BYTE   Cn5
 BYTE   N06  Fn5
 BYTE   W06
 BYTE   Fn5
 BYTE   N06  Gs5
 BYTE   W06
 BYTE   Cn5
 BYTE   N06  Fn5
 BYTE   W06
 BYTE   Fn5
 BYTE   N06  Gs5
 BYTE   W06
 BYTE   Gs5
 BYTE   N06  Cn6
 BYTE   W06
 BYTE   Fn5
 BYTE   N06  Gs5
 BYTE   W06
 BYTE   Cn5
 BYTE   N06  Fn5
 BYTE   W06
 BYTE   Fn5
 BYTE   N06  Gs5
 BYTE   W06
 BYTE   Gs4
 BYTE   N06  Cn5
 BYTE   W06
 BYTE   Cn5
 BYTE   N06  Gs5
 BYTE   W06
//  #09 //032   ----------------------------------------
 BYTE   Gn5
 BYTE   N06  Bn5
 BYTE   W06
 BYTE   Bn5
 BYTE   N06  Cn6
 BYTE   W06
 BYTE   Gn5
 BYTE   N06  Bn5
 BYTE   W06
 BYTE   En5
 BYTE   N06  Gn5
 BYTE   W06
 BYTE   Cn5
 BYTE   N06  En5
 BYTE   W06
 BYTE   En5
 BYTE   N06  Gn5
 BYTE   W06
 BYTE   Cn5
 BYTE   N06  En5
 BYTE   W06
 BYTE   Gn4
 BYTE   N06  Cn5
 BYTE   W06
 BYTE   En4
 BYTE   N06  Gn4
 BYTE   W06
 BYTE   Gn4
 BYTE   N06  Cn5
 BYTE   W06
 BYTE   Cn5
 BYTE   N06  En5
 BYTE   W06
 BYTE   En5
 BYTE   N06  Gn5
 BYTE   W06
 BYTE   Cn5
 BYTE   N06  En5
 BYTE   W06
 BYTE   En5
 BYTE   N06  Gn5
 BYTE   W06
 BYTE   Gn5
 BYTE   N06  Bn5
 BYTE   W06
 BYTE   Bn5
 BYTE   N06  Cn6
 BYTE   W18
//  #09 //033   ----------------------------------------
Label_014B7AED:
 BYTE   N06  Cn5  v102
 BYTE   W12
 BYTE   Cn5
 BYTE   W06
 BYTE   As4
 BYTE   W12
 BYTE   Cn5
 BYTE   W12
 BYTE   Cn5
 BYTE   W06
 BYTE   Gn4
 BYTE   W48
 BYTE   PEND 
//  #09 //034   ----------------------------------------
Label_014B7AFC:
 BYTE   N06  Cn5  v102
 BYTE   W12
 BYTE   Cn5
 BYTE   W06
 BYTE   Bn4
 BYTE   W12
 BYTE   Cn5
 BYTE   W12
 BYTE   Cn5
 BYTE   W06
 BYTE   Gn4
 BYTE   W48
 BYTE   PEND 
//  #09 //035   ----------------------------------------
 BYTE   PATT
  POIN2 Label_014B7AED
//  #09 //036   ----------------------------------------
 BYTE   PATT
  POIN2 Label_014B7AFC
//  #09 //037   ----------------------------------------
 BYTE   PATT
  POIN2 Label_014B7AED
//  #09 //038   ----------------------------------------
 BYTE   PATT
  POIN2 Label_014B7AFC
//  #09 //039   ----------------------------------------
 BYTE   PATT
  POIN2 Label_014B7AED
//  #09 //040   ----------------------------------------
 BYTE   N06  Cn5  v102
 BYTE   W12
 BYTE   Cn5
 BYTE   W06
 BYTE   Bn4
 BYTE   W12
 BYTE   Cn5
 BYTE   W12
 BYTE   Cn5
 BYTE   W06
 BYTE   Gn4
 BYTE   W36
 BYTE   VOL   16*ToadstoolTourSkinsMatch_mvl/mxv
 BYTE   PAN   c_v+12
 BYTE   W96
//  #09 //041   ----------------------------------------
 BYTE   W96
//  #09 //042   ----------------------------------------
 BYTE   W96
//  #09 //043   ----------------------------------------
 BYTE   W96
//  #09 //044   ----------------------------------------
 BYTE   W96
//  #09 //045   ----------------------------------------
 BYTE   W96
//  #09 //046   ----------------------------------------
 BYTE   W96
//  #09 //047   ----------------------------------------
 BYTE   W96
//  #09 //048   ----------------------------------------
 BYTE   W96
//  #09 //049   ----------------------------------------
 BYTE   W96
//  #09 //050   ----------------------------------------
 BYTE   W96
//  #09 //051   ----------------------------------------
 BYTE   W96
//  #09 //052   ----------------------------------------
 BYTE   W96
//  #09 //053   ----------------------------------------
 BYTE   W96
//  #09 //054   ----------------------------------------
 BYTE   W96
//  #09 //055   ----------------------------------------
 BYTE   W96
//  #09 //056   ----------------------------------------
 BYTE   W96
//  #09 //057   ----------------------------------------
 BYTE   W96
//  #09 //058   ----------------------------------------
 BYTE   W96
//  #09 //059   ----------------------------------------
 BYTE   W96
//  #09 //060   ----------------------------------------
 BYTE   W96
//  #09 //061   ----------------------------------------
 BYTE   W96
//  #09 //062   ----------------------------------------
 BYTE   W96
//  #09 //063   ----------------------------------------
 BYTE   W96
//  #09 //064   ----------------------------------------
 BYTE   W96
//  #09 //065   ----------------------------------------
 BYTE   W96
//  #09 //066   ----------------------------------------
 BYTE   W96
//  #09 //067   ----------------------------------------
 BYTE   W96
//  #09 //068   ----------------------------------------
 BYTE   W96
//  #09 //069   ----------------------------------------
 BYTE   W96
//  #09 //070   ----------------------------------------
 BYTE   W96
//  #09 //071   ----------------------------------------
 BYTE   W96
//  #09 //072   ----------------------------------------
 BYTE   N48  Cn4  v102
 BYTE   N48  Fn4
 BYTE   W48
 BYTE   N18
 BYTE   N18  Gs4
 BYTE   W18
 BYTE   Gs4
 BYTE   N18  Cn5
 BYTE   W18
 BYTE   N12
 BYTE   N12  Fn5
 BYTE   W12
//  #09 //073   ----------------------------------------
 BYTE   N18  Cn5
 BYTE   N18  En5
 BYTE   W18
 BYTE   Gn4
 BYTE   N18  Cn5
 BYTE   W18
 BYTE   N12
 BYTE   N12  En5
 BYTE   W12
 BYTE   N48  En4
 BYTE   N48  Gn4
 BYTE   W48
//  #09 //074   ----------------------------------------
 BYTE   N06  Cn4
 BYTE   N06  Fn4
 BYTE   W06
 BYTE   Fn4
 BYTE   N06  Gs4
 BYTE   W06
 BYTE   Gs4
 BYTE   N06  Cn5
 BYTE   W06
 BYTE   Cn4
 BYTE   N06  Fn4
 BYTE   W06
 BYTE   Fn4
 BYTE   N06  Gs4
 BYTE   W06
 BYTE   Gs4
 BYTE   N06  Cn5
 BYTE   W06
 BYTE   Cn5
 BYTE   N06  Fn5
 BYTE   W06
 BYTE   Fn5
 BYTE   N06  Gs5
 BYTE   W06
 BYTE   Cn5
 BYTE   N06  Fn5
 BYTE   W06
 BYTE   Fn5
 BYTE   N06  Gs5
 BYTE   W06
 BYTE   Gs5
 BYTE   N06  Cn6
 BYTE   W06
 BYTE   Fn5
 BYTE   N06  Gs5
 BYTE   W06
 BYTE   Cn5
 BYTE   N06  Fn5
 BYTE   W06
 BYTE   Fn5
 BYTE   N06  Gs5
 BYTE   W06
 BYTE   Gs4
 BYTE   N06  Cn5
 BYTE   W06
 BYTE   Cn5
 BYTE   N06  Gs5
 BYTE   W06
//  #09 //075   ----------------------------------------
 BYTE   Gn5
 BYTE   N06  Bn5
 BYTE   W06
 BYTE   Bn5
 BYTE   N06  Cn6
 BYTE   W06
 BYTE   Gn5
 BYTE   N06  Bn5
 BYTE   W06
 BYTE   En5
 BYTE   N06  Gn5
 BYTE   W06
 BYTE   Cn5
 BYTE   N06  En5
 BYTE   W06
 BYTE   En5
 BYTE   N06  Gn5
 BYTE   W06
 BYTE   Cn5
 BYTE   N06  En5
 BYTE   W06
 BYTE   Gn4
 BYTE   N06  Cn5
 BYTE   W06
 BYTE   En4
 BYTE   N06  Gn4
 BYTE   W06
 BYTE   Gn4
 BYTE   N06  Cn5
 BYTE   W06
 BYTE   Cn5
 BYTE   N06  En5
 BYTE   W06
 BYTE   En5
 BYTE   N06  Gn5
 BYTE   W06
 BYTE   Cn5
 BYTE   N06  En5
 BYTE   W06
 BYTE   En5
 BYTE   N06  Gn5
 BYTE   W06
 BYTE   Gn5
 BYTE   N06  Bn5
 BYTE   W06
 BYTE   Bn5
 BYTE   N06  Cn6
 BYTE   W18
//  #09 //076   ----------------------------------------
 BYTE   Cn5
 BYTE   W12
 BYTE   Cn5
 BYTE   W06
 BYTE   As4
 BYTE   W12
 BYTE   Cn5
 BYTE   W12
 BYTE   Cn5
 BYTE   W06
 BYTE   Gn4
 BYTE   W48
//  #09 //077   ----------------------------------------
 BYTE   Cn5
 BYTE   W12
 BYTE   Cn5
 BYTE   W06
 BYTE   Bn4
 BYTE   W12
 BYTE   Cn5
 BYTE   W12
 BYTE   Cn5
 BYTE   W06
 BYTE   Gn4
 BYTE   W48
//  #09 //078   ----------------------------------------
 BYTE   Cn5
 BYTE   W12
 BYTE   Cn5
 BYTE   W06
 BYTE   As4
 BYTE   W12
 BYTE   Cn5
 BYTE   W12
 BYTE   Cn5
 BYTE   W06
 BYTE   Gn4
 BYTE   W48
//  #09 //079   ----------------------------------------
 BYTE   Cn5
 BYTE   W12
 BYTE   Cn5
 BYTE   W06
 BYTE   Bn4
 BYTE   W12
 BYTE   Cn5
 BYTE   W12
 BYTE   Cn5
 BYTE   W06
 BYTE   Gn4
 BYTE   W48
//  #09 //080   ----------------------------------------
 BYTE   Cn5
 BYTE   W12
 BYTE   Cn5
 BYTE   W06
 BYTE   As4
 BYTE   W12
 BYTE   Cn5
 BYTE   W12
 BYTE   Cn5
 BYTE   W06
 BYTE   Gn4
 BYTE   W48
//  #09 //081   ----------------------------------------
 BYTE   Cn5
 BYTE   W12
 BYTE   Cn5
 BYTE   W06
 BYTE   Bn4
 BYTE   W12
 BYTE   Cn5
 BYTE   W12
 BYTE   Cn5
 BYTE   W06
 BYTE   Gn4
 BYTE   W48
//  #09 //082   ----------------------------------------
 BYTE   Cn5
 BYTE   W12
 BYTE   Cn5
 BYTE   W06
 BYTE   As4
 BYTE   W12
 BYTE   Cn5
 BYTE   W12
 BYTE   Cn5
 BYTE   W06
 BYTE   Gn4
 BYTE   W48
//  #09 //083   ----------------------------------------
 BYTE   Cn5
 BYTE   W12
 BYTE   Cn5
 BYTE   W06
 BYTE   Bn4
 BYTE   W12
 BYTE   Cn5
 BYTE   W12
 BYTE   Cn5
 BYTE   W06
 BYTE   Gn4
 BYTE   W36
 BYTE   VOL   16*ToadstoolTourSkinsMatch_mvl/mxv
 BYTE   PAN   c_v+12
 BYTE   W96
//  #09 //084   ----------------------------------------
 BYTE   W96
//  #09 //085   ----------------------------------------
 BYTE   W96
//  #09 //086   ----------------------------------------
 BYTE   W96
 BYTE   FINE

//**************** Track 10 (Midi-Chn.9) ****************//

ToadstoolTourSkinsMatch_010:
//  #10 //000   ----------------------------------------
Label_01534378:
 BYTE   TEMPO   118*ToadstoolTourSkinsMatch_tbs/2
 BYTE   KEYSH   ToadstoolTourSkinsMatch_key+0
 BYTE   VOICE   127
 BYTE   VOL   74*ToadstoolTourSkinsMatch_mvl/mxv
 BYTE   BEND   c_v+63
 BYTE   N06  Dn1  v102
 BYTE   N06  Fn1
 BYTE   W06
 BYTE   Gs1
 BYTE   N06  Cn1
 BYTE   N06  An2
 BYTE   W06
 BYTE   Gs1
 BYTE   W06
 BYTE   Gs1
 BYTE   N06  Dn1
 BYTE   W06
 BYTE   Gs1
 BYTE   W06
 BYTE   Gs1
 BYTE   N06  Cn1
 BYTE   W06
 BYTE   Gs1
 BYTE   N06  Cn1
 BYTE   W06
 BYTE   Gs1
 BYTE   N06  Dn1
 BYTE   W06
 BYTE   Gs1
 BYTE   W06
 BYTE   Cn1
 BYTE   N06  Gs1
 BYTE   W06
 BYTE   Gs1
 BYTE   W06
 BYTE   Dn1
 BYTE   N06  Gs1
 BYTE   W06
 BYTE   Cn1
 BYTE   N06  Gs1
 BYTE   W06
 BYTE   Cn1
 BYTE   N06  Gs1
 BYTE   W06
 BYTE   Cn1
 BYTE   N06  Gs1
 BYTE   W06
 BYTE   Dn1
 BYTE   N06  As1
 BYTE   W06
//  #10 //001   ----------------------------------------
Label_015343BE:
 BYTE   N06  Gs1  v102
 BYTE   W06
 BYTE   Gs1
 BYTE   N06  Cn1
 BYTE   W06
 BYTE   Gs1
 BYTE   W06
 BYTE   Gs1
 BYTE   N06  Dn1
 BYTE   W06
 BYTE   Gs1
 BYTE   W06
 BYTE   Gs1
 BYTE   N06  Cn1
 BYTE   W06
 BYTE   Gs1
 BYTE   N06  Cn1
 BYTE   W06
 BYTE   Gs1
 BYTE   N06  Dn1
 BYTE   W06
 BYTE   Gs1
 BYTE   W06
 BYTE   Cn1
 BYTE   N06  Gs1
 BYTE   W06
 BYTE   Gs1
 BYTE   W06
 BYTE   Dn1
 BYTE   N06  Gs1
 BYTE   W06
 BYTE   Cn1
 BYTE   N06  Gs1
 BYTE   W06
 BYTE   Cn1
 BYTE   N06  Gs1
 BYTE   W06
 BYTE   Cn1
 BYTE   N06  Gs1
 BYTE   W06
 BYTE   Dn1
 BYTE   N06  As1
 BYTE   W06
 BYTE   PEND 
//  #10 //002   ----------------------------------------
Label_015343F7:
 BYTE   N06  Dn1  v102
 BYTE   N06  Gs1
 BYTE   W06
 BYTE   Gs1
 BYTE   N06  Cn1
 BYTE   W06
 BYTE   Gs1
 BYTE   W06
 BYTE   Gs1
 BYTE   N06  Dn1
 BYTE   W06
 BYTE   Gs1
 BYTE   W06
 BYTE   Gs1
 BYTE   N06  Cn1
 BYTE   W06
 BYTE   Gs1
 BYTE   N06  Cn1
 BYTE   W06
 BYTE   Gs1
 BYTE   N06  Dn1
 BYTE   W06
 BYTE   Gs1
 BYTE   W06
 BYTE   Cn1
 BYTE   N06  Gs1
 BYTE   W06
 BYTE   Gs1
 BYTE   W06
 BYTE   Dn1
 BYTE   N06  Gs1
 BYTE   W06
 BYTE   Cn1
 BYTE   N06  Gs1
 BYTE   W06
 BYTE   Cn1
 BYTE   N06  Gs1
 BYTE   W06
 BYTE   Cn1
 BYTE   N06  Gs1
 BYTE   W06
 BYTE   Dn1
 BYTE   N06  As1
 BYTE   W06
 BYTE   PEND 
//  #10 //003   ----------------------------------------
Label_01534432:
 BYTE   N06  Gs1  v102
 BYTE   W06
 BYTE   Gs1
 BYTE   N06  Cn1
 BYTE   W06
 BYTE   Gs1
 BYTE   W06
 BYTE   Gs1
 BYTE   N06  Dn1
 BYTE   W06
 BYTE   Gs1
 BYTE   W06
 BYTE   Gs1
 BYTE   N06  Cn1
 BYTE   W06
 BYTE   Gs1
 BYTE   N06  Cn1
 BYTE   W06
 BYTE   Gs1
 BYTE   N06  Dn1
 BYTE   W06
 BYTE   Gs1
 BYTE   W06
 BYTE   Cn1
 BYTE   N06  Gs1
 BYTE   W06
 BYTE   Gs1
 BYTE   W06
 BYTE   Dn1
 BYTE   N06  Gs1
 BYTE   W06
 BYTE   Cn1
 BYTE   N06  Gs1
 BYTE   W06
 BYTE   Dn1
 BYTE   N06  Gs1
 BYTE   W06
 BYTE   Dn1
 BYTE   N06  Gs1
 BYTE   W06
 BYTE   Dn1
 BYTE   N06  As1
 BYTE   W06
 BYTE   PEND 
//  #10 //004   ----------------------------------------
Label_0153446B:
 BYTE   N06  Dn1  v102
 BYTE   N06  Gs1
 BYTE   W06
 BYTE   Cn1
 BYTE   N06  As1
 BYTE   W12
 BYTE   Gs1
 BYTE   W06
 BYTE   Cn1
 BYTE   N06  Gs1
 BYTE   W06
 BYTE   Gs1
 BYTE   W06
 BYTE   Gs1
 BYTE   W06
 BYTE   Dn1
 BYTE   N06  Gs1
 BYTE   W06
 BYTE   Gs1
 BYTE   W06
 BYTE   Cn1
 BYTE   N06  Gs1
 BYTE   W06
 BYTE   Gs1
 BYTE   W06
 BYTE   Gs1
 BYTE   W06
 BYTE   Cn1
 BYTE   N06  Gs1
 BYTE   W06
 BYTE   Gs1
 BYTE   W06
 BYTE   Gs1
 BYTE   W06
 BYTE   Dn1
 BYTE   N06  Gs1
 BYTE   W06
 BYTE   PEND 
//  #10 //005   ----------------------------------------
Label_0153449A:
 BYTE   N06  Gs1  v102
 BYTE   W06
 BYTE   Gs1
 BYTE   N06  Cn1
 BYTE   W06
 BYTE   Gs1
 BYTE   W06
 BYTE   Gs1
 BYTE   N06  Dn1
 BYTE   W06
 BYTE   Gs1
 BYTE   W06
 BYTE   Gs1
 BYTE   N06  Cn1
 BYTE   W06
 BYTE   Gs1
 BYTE   N06  Cn1
 BYTE   W06
 BYTE   Gs1
 BYTE   N06  Dn1
 BYTE   W06
 BYTE   Gs1
 BYTE   W06
 BYTE   Gs1
 BYTE   N06  Cn1
 BYTE   W06
 BYTE   Gs1
 BYTE   W06
 BYTE   Gs1
 BYTE   N06  Dn1
 BYTE   W06
 BYTE   Gs1
 BYTE   N06  Cn1
 BYTE   W06
 BYTE   Gs1
 BYTE   N06  Cn1
 BYTE   W06
 BYTE   Gs1
 BYTE   N06  Cn1
 BYTE   W06
 BYTE   Gs1
 BYTE   N06  Dn1
 BYTE   W06
 BYTE   PEND 
//  #10 //006   ----------------------------------------
Label_015344D3:
 BYTE   N06  Gs1  v102
 BYTE   W06
 BYTE   Cn1
 BYTE   N06  As1
 BYTE   W12
 BYTE   Gs1
 BYTE   W06
 BYTE   Cn1
 BYTE   N06  Gs1
 BYTE   W06
 BYTE   Gs1
 BYTE   W06
 BYTE   Gs1
 BYTE   W06
 BYTE   Dn1
 BYTE   N06  Gs1
 BYTE   W06
 BYTE   Gs1
 BYTE   W06
 BYTE   Cn1
 BYTE   N06  Gs1
 BYTE   W06
 BYTE   Gs1
 BYTE   W06
 BYTE   Gs1
 BYTE   W06
 BYTE   Cn1
 BYTE   N06  Gs1
 BYTE   W06
 BYTE   Gs1
 BYTE   W06
 BYTE   Gs1
 BYTE   W06
 BYTE   Dn1
 BYTE   N06  Gs1
 BYTE   W06
 BYTE   PEND 
//  #10 //007   ----------------------------------------
Label_01534500:
 BYTE   N06  Gs1  v102
 BYTE   W06
 BYTE   Gs1
 BYTE   N06  Cn1
 BYTE   W06
 BYTE   Gs1
 BYTE   W06
 BYTE   Gs1
 BYTE   N06  Dn1
 BYTE   W06
 BYTE   Gs1
 BYTE   W06
 BYTE   Gs1
 BYTE   N06  Cn1
 BYTE   W06
 BYTE   Gs1
 BYTE   N06  Cn1
 BYTE   W06
 BYTE   Gs1
 BYTE   N06  Dn1
 BYTE   W06
 BYTE   Gs1
 BYTE   W06
 BYTE   Gs1
 BYTE   N06  Cn1
 BYTE   W06
 BYTE   Gs1
 BYTE   W06
 BYTE   Gs1
 BYTE   N06  Dn1
 BYTE   W06
 BYTE   Gs1
 BYTE   N06  Cn1
 BYTE   W06
 BYTE   Cn2
 BYTE   N06  Bn1
 BYTE   N06  Cn1
 BYTE   W06
 BYTE   An1
 BYTE   N06  Bn1
 BYTE   N06  Cn1
 BYTE   W06
 BYTE   Gn1
 BYTE   N06  An1
 BYTE   N06  Dn1
 BYTE   W06
 BYTE   PEND 
//  #10 //008   ----------------------------------------
 BYTE   N06  Dn1  v102
 BYTE   N06  Fn1
 BYTE   N06  Gn1
 BYTE   W06
 BYTE   Gs1
 BYTE   N06  Cn1
 BYTE   N06  Cs2
 BYTE   W06
 BYTE   Gs1
 BYTE   W06
 BYTE   Gs1
 BYTE   N06  Dn1
 BYTE   W06
 BYTE   Gs1
 BYTE   W06
 BYTE   Gs1
 BYTE   N06  Cn1
 BYTE   W06
 BYTE   Gs1
 BYTE   N06  Cn1
 BYTE   W06
 BYTE   Gs1
 BYTE   N06  Dn1
 BYTE   W06
 BYTE   Gs1
 BYTE   W06
 BYTE   Cn1
 BYTE   N06  Gs1
 BYTE   W06
 BYTE   Gs1
 BYTE   W06
 BYTE   Dn1
 BYTE   N06  Gs1
 BYTE   W06
 BYTE   Cn1
 BYTE   N06  Gs1
 BYTE   W06
 BYTE   Cn1
 BYTE   N06  Gs1
 BYTE   W06
 BYTE   Cn1
 BYTE   N06  Gs1
 BYTE   W06
 BYTE   Dn1
 BYTE   N06  As1
 BYTE   W06
//  #10 //009   ----------------------------------------
 BYTE   PATT
  POIN2 Label_015343BE
//  #10 //010   ----------------------------------------
 BYTE   PATT
  POIN2 Label_015343F7
//  #10 //011   ----------------------------------------
 BYTE   PATT
  POIN2 Label_01534432
//  #10 //012   ----------------------------------------
 BYTE   PATT
  POIN2 Label_0153446B
//  #10 //013   ----------------------------------------
 BYTE   PATT
  POIN2 Label_0153449A
//  #10 //014   ----------------------------------------
 BYTE   PATT
  POIN2 Label_015344D3
//  #10 //015   ----------------------------------------
 BYTE   PATT
  POIN2 Label_01534500
//  #10 //016   ----------------------------------------
 BYTE   GoTo
  POIN2 Label_01534378
//  #10 //017   ----------------------------------------
 BYTE   N06  Dn1  v102
 BYTE   N06  Fn1
 BYTE   N06  Gn1
 BYTE   W06
 BYTE   An2
 BYTE   N06  Cs2
 BYTE   N06  Cn1
 BYTE   W12
 BYTE   Cn1
 BYTE   W12
 BYTE   Cn1
 BYTE   W12
 BYTE   Cn1
 BYTE   W12
 BYTE   Cn1
 BYTE   W12
 BYTE   Cn1
 BYTE   W12
 BYTE   As1
 BYTE   N06  Cn1
 BYTE   W12
 BYTE   Gs1
 BYTE   N06  Dn1
 BYTE   W06
//  #10 //018   ----------------------------------------
 BYTE   Dn1
 BYTE   W06
 BYTE   Dn1
 BYTE   W12
 BYTE   Cn1
 BYTE   W12
 BYTE   Cn1
 BYTE   W12
 BYTE   Cn1
 BYTE   W12
 BYTE   Cn1
 BYTE   W12
 BYTE   Cn1
 BYTE   W12
 BYTE   As1
 BYTE   N06  Cn2
 BYTE   N06  Dn2
 BYTE   W06
 BYTE   An1
 BYTE   N06  Bn1
 BYTE   W06
 BYTE   Gs1
 BYTE   N06  Gn1
 BYTE   N06  An1
 BYTE   W12
//  #10 //019   ----------------------------------------
 BYTE   An2
 BYTE   N06  Cn1
 BYTE   N06  Cs2
 BYTE   W12
 BYTE   Cn1
 BYTE   W12
 BYTE   Cn1
 BYTE   W12
 BYTE   Cn1
 BYTE   W12
 BYTE   Cn1
 BYTE   W12
 BYTE   Cn1
 BYTE   W12
 BYTE   Cn1
 BYTE   W12
 BYTE   Dn1
 BYTE   W06
 BYTE   Dn1
 BYTE   W06
//  #10 //020   ----------------------------------------
 BYTE   Cn1
 BYTE   W12
 BYTE   Cn1
 BYTE   W12
 BYTE   Cn1
 BYTE   W12
 BYTE   Cn1
 BYTE   W12
 BYTE   An1
 BYTE   N06  Dn1
 BYTE   W06
 BYTE   Dn1
 BYTE   W06
 BYTE   Gs1
 BYTE   N06  Dn1
 BYTE   W06
 BYTE   Dn1
 BYTE   W06
 BYTE   Dn1
 BYTE   W06
 BYTE   Dn1
 BYTE   W06
 BYTE   Dn1
 BYTE   W06
 BYTE   Dn1
 BYTE   W06
//  #10 //021   ----------------------------------------
Label_01534615:
 BYTE   N06  Cs2  v102
 BYTE   N06  An2
 BYTE   N06  Cn1
 BYTE   W12
 BYTE   Cn1
 BYTE   W06
 BYTE   Dn1
 BYTE   W06
 BYTE   Cn1
 BYTE   W12
 BYTE   Dn1
 BYTE   N06  Cn1
 BYTE   W06
 BYTE   Dn1
 BYTE   W06
 BYTE   Cn1
 BYTE   W12
 BYTE   Cn1
 BYTE   W06
 BYTE   Dn1
 BYTE   W06
 BYTE   Cn1
 BYTE   N06  As1
 BYTE   W12
 BYTE   Cn1
 BYTE   N06  Gs1
 BYTE   N06  Dn1
 BYTE   W06
 BYTE   Dn1
 BYTE   W06
 BYTE   PEND 
//  #10 //022   ----------------------------------------
Label_0153463C:
 BYTE   N06  Cn1  v102
 BYTE   N06  Dn1
 BYTE   W12
 BYTE   Cn1
 BYTE   W06
 BYTE   Dn1
 BYTE   W06
 BYTE   Cn1
 BYTE   W12
 BYTE   Dn1
 BYTE   N06  Cn1
 BYTE   W06
 BYTE   Dn1
 BYTE   W06
 BYTE   Cn1
 BYTE   W12
 BYTE   Cn1
 BYTE   W06
 BYTE   Dn1
 BYTE   W06
 BYTE   As1
 BYTE   N06  Cn1
 BYTE   W12
 BYTE   Gs1
 BYTE   N06  Dn1
 BYTE   N06  Cn1
 BYTE   W06
 BYTE   Dn1
 BYTE   W06
 BYTE   PEND 
//  #10 //023   ----------------------------------------
 BYTE   PATT
  POIN2 Label_01534615
//  #10 //024   ----------------------------------------
 BYTE   PATT
  POIN2 Label_0153463C
//  #10 //025   ----------------------------------------
Label_0153466B:
 BYTE   N06  An2  v102
 BYTE   W18
 BYTE   Dn1
 BYTE   W18
 BYTE   Cn1
 BYTE   W12
 BYTE   Bn1
 BYTE   N06  Cn2
 BYTE   W18
 BYTE   An1
 BYTE   N06  Gn1
 BYTE   W18
 BYTE   Fn1
 BYTE   W12
 BYTE   PEND 
//  #10 //026   ----------------------------------------
Label_0153467E:
 BYTE   N06  Cs2  v102
 BYTE   W18
 BYTE   Dn1
 BYTE   W06
 BYTE   Dn1
 BYTE   W12
 BYTE   Cn1
 BYTE   W12
 BYTE   Bn1
 BYTE   N06  Cn2
 BYTE   N06  Dn1
 BYTE   W06
 BYTE   Dn1
 BYTE   W06
 BYTE   Dn1
 BYTE   W06
 BYTE   An1
 BYTE   N06  Gn1
 BYTE   N06  Dn1
 BYTE   W06
 BYTE   Dn1
 BYTE   W06
 BYTE   Dn1
 BYTE   W06
 BYTE   Fn1
 BYTE   N06  Dn1
 BYTE   W06
 BYTE   Dn1
 BYTE   W06
 BYTE   PEND 
//  #10 //027   ----------------------------------------
 BYTE   PATT
  POIN2 Label_0153466B
//  #10 //028   ----------------------------------------
 BYTE   PATT
  POIN2 Label_0153467E
//  #10 //029   ----------------------------------------
Label_015346AD:
 BYTE   N06  Cn1  v102
 BYTE   W12
 BYTE   Cn1
 BYTE   W06
 BYTE   Dn1
 BYTE   W06
 BYTE   Cn1
 BYTE   W12
 BYTE   Dn1
 BYTE   N06  Cn1
 BYTE   W06
 BYTE   Dn1
 BYTE   W06
 BYTE   Cn1
 BYTE   W12
 BYTE   Cn1
 BYTE   W06
 BYTE   Dn1
 BYTE   W06
 BYTE   Cn1
 BYTE   N06  As1
 BYTE   W12
 BYTE   Cn1
 BYTE   N06  Gs1
 BYTE   N06  Dn1
 BYTE   W06
 BYTE   Dn1
 BYTE   W06
 BYTE   PEND 
//  #10 //030   ----------------------------------------
 BYTE   PATT
  POIN2 Label_0153463C
//  #10 //031   ----------------------------------------
 BYTE   PATT
  POIN2 Label_015346AD
//  #10 //032   ----------------------------------------
 BYTE   PATT
  POIN2 Label_0153463C
//  #10 //033   ----------------------------------------
 BYTE   N06  Gs1  v102
 BYTE   N06  An2
 BYTE   N06  Cn1
 BYTE   W06
 BYTE   Gs1
 BYTE   W06
 BYTE   Gs1
 BYTE   N06  Dn1
 BYTE   W06
 BYTE   Gs1
 BYTE   W06
 BYTE   Gs1
 BYTE   N06  Cn1
 BYTE   W06
 BYTE   Gs1
 BYTE   N06  Cn1
 BYTE   W06
 BYTE   Gs1
 BYTE   N06  Dn1
 BYTE   W06
 BYTE   Gs1
 BYTE   W06
 BYTE   Gs1
 BYTE   N06  Cn1
 BYTE   W06
 BYTE   Gs1
 BYTE   W06
 BYTE   Gs1
 BYTE   N06  Dn1
 BYTE   W06
 BYTE   Gs1
 BYTE   N06  Cn1
 BYTE   W06
 BYTE   Gs1
 BYTE   N06  Cn1
 BYTE   W06
 BYTE   Gs1
 BYTE   N06  Cn1
 BYTE   W06
 BYTE   Gs1
 BYTE   N06  Dn1
 BYTE   W06
 BYTE   Gs1
 BYTE   W06
//  #10 //034   ----------------------------------------
 BYTE   Gs1
 BYTE   N06  Cn1
 BYTE   W06
 BYTE   Gs1
 BYTE   W06
 BYTE   Gs1
 BYTE   N06  Dn1
 BYTE   W06
 BYTE   Gs1
 BYTE   W06
 BYTE   Gs1
 BYTE   N06  Cn1
 BYTE   W06
 BYTE   Gs1
 BYTE   N06  Cn1
 BYTE   W06
 BYTE   Gs1
 BYTE   N06  Dn1
 BYTE   W06
 BYTE   Gs1
 BYTE   W06
 BYTE   Gs1
 BYTE   N06  Cn1
 BYTE   W06
 BYTE   Gs1
 BYTE   W06
 BYTE   Gs1
 BYTE   N06  Dn1
 BYTE   W06
 BYTE   Gs1
 BYTE   N06  Cn1
 BYTE   W06
 BYTE   Gs1
 BYTE   N06  Cn1
 BYTE   W06
 BYTE   Gs1
 BYTE   N06  Cn1
 BYTE   W06
 BYTE   Gs1
 BYTE   N06  Dn1
 BYTE   W06
 BYTE   Gs1
 BYTE   N06  Dn1
 BYTE   W06
//  #10 //035   ----------------------------------------
 BYTE   Gs1
 BYTE   N06  Cn1
 BYTE   W06
 BYTE   Gs1
 BYTE   W06
 BYTE   Gs1
 BYTE   N06  Dn1
 BYTE   W06
 BYTE   Gs1
 BYTE   W06
 BYTE   Gs1
 BYTE   N06  Cn1
 BYTE   W06
 BYTE   Gs1
 BYTE   N06  Cn1
 BYTE   W06
 BYTE   Gs1
 BYTE   N06  Dn1
 BYTE   W06
 BYTE   Gs1
 BYTE   W06
 BYTE   Gs1
 BYTE   N06  Cn1
 BYTE   W06
 BYTE   Gs1
 BYTE   W06
 BYTE   Gs1
 BYTE   N06  Dn1
 BYTE   W06
 BYTE   Gs1
 BYTE   N06  Cn1
 BYTE   W06
 BYTE   Gs1
 BYTE   N06  Cn1
 BYTE   W06
 BYTE   Gs1
 BYTE   N06  Cn1
 BYTE   W06
 BYTE   Gs1
 BYTE   N06  Dn1
 BYTE   W06
 BYTE   Gs1
 BYTE   W06
//  #10 //036   ----------------------------------------
 BYTE   Gs1
 BYTE   N06  Cn1
 BYTE   W06
 BYTE   Gs1
 BYTE   W06
 BYTE   Gs1
 BYTE   N06  Dn1
 BYTE   W06
 BYTE   Gs1
 BYTE   W06
 BYTE   Gs1
 BYTE   N06  Cn1
 BYTE   W06
 BYTE   Gs1
 BYTE   N06  Cn1
 BYTE   W06
 BYTE   Gs1
 BYTE   N06  Dn1
 BYTE   W06
 BYTE   Gs1
 BYTE   W06
 BYTE   Gs1
 BYTE   N06  Cn1
 BYTE   W06
 BYTE   Gs1
 BYTE   W06
 BYTE   Gs1
 BYTE   N06  Dn1
 BYTE   W06
 BYTE   Gs1
 BYTE   N06  Cn1
 BYTE   W06
 BYTE   As1
 BYTE   N06  Cn1
 BYTE   W06
 BYTE   Cn1
 BYTE   W06
 BYTE   Gs1
 BYTE   N06  Dn1
 BYTE   W06
 BYTE   Dn1
 BYTE   W06
//  #10 //037   ----------------------------------------
Label_015347BB:
 BYTE   N06  As1  v102
 BYTE   N06  Cn1
 BYTE   W18
 BYTE   Cn1
 BYTE   W18
 BYTE   Dn1
 BYTE   W12
 BYTE   Cn1
 BYTE   W18
 BYTE   Cn1
 BYTE   W18
 BYTE   Dn1
 BYTE   W12
 BYTE   PEND 
//  #10 //038   ----------------------------------------
 BYTE   N06  Gs1  v102
 BYTE   N06  Cn1
 BYTE   W06
 BYTE   Gs1
 BYTE   W06
 BYTE   Gs1
 BYTE   N06  Dn1
 BYTE   W06
 BYTE   Gs1
 BYTE   W06
 BYTE   Gs1
 BYTE   N06  Cn1
 BYTE   W06
 BYTE   Gs1
 BYTE   N06  Cn1
 BYTE   W06
 BYTE   Gs1
 BYTE   N06  Dn1
 BYTE   W06
 BYTE   Gs1
 BYTE   W06
 BYTE   Gs1
 BYTE   N06  Cn1
 BYTE   W06
 BYTE   Gs1
 BYTE   N06  Cn1
 BYTE   W06
 BYTE   Gs1
 BYTE   N06  Dn1
 BYTE   W06
 BYTE   Gs1
 BYTE   N06  Cn1
 BYTE   W06
 BYTE   Gs1
 BYTE   N06  Cn1
 BYTE   W06
 BYTE   Gs1
 BYTE   N06  Cn1
 BYTE   W06
 BYTE   Gs1
 BYTE   N06  Dn1
 BYTE   W06
 BYTE   Gs1
 BYTE   N06  Dn1
 BYTE   W06
//  #10 //039   ----------------------------------------
 BYTE   PATT
  POIN2 Label_015347BB
//  #10 //040   ----------------------------------------
 BYTE   N06  Gs1  v102
 BYTE   N06  Cn1
 BYTE   W06
 BYTE   Gs1
 BYTE   W06
 BYTE   Gs1
 BYTE   N06  Dn1
 BYTE   W06
 BYTE   Gs1
 BYTE   W06
 BYTE   Gs1
 BYTE   N06  Cn1
 BYTE   W06
 BYTE   Gs1
 BYTE   N06  Cn1
 BYTE   W06
 BYTE   Gs1
 BYTE   N06  Dn1
 BYTE   W06
 BYTE   Gs1
 BYTE   W06
 BYTE   Gs1
 BYTE   N06  Cn1
 BYTE   W06
 BYTE   Gs1
 BYTE   N06  Cn1
 BYTE   W06
 BYTE   Gs1
 BYTE   N06  Dn1
 BYTE   W06
 BYTE   Gs1
 BYTE   N06  Cn1
 BYTE   W06
 BYTE   Bn1
 BYTE   N06  Cn2
 BYTE   N06  Cn1
 BYTE   W06
 BYTE   An1
 BYTE   N06  Bn1
 BYTE   N06  Cn1
 BYTE   W06
 BYTE   Gn1
 BYTE   N06  An1
 BYTE   N06  Dn1
 BYTE   W06
 BYTE   Fn1
 BYTE   N06  Gn1
 BYTE   N06  Dn1
 BYTE   W06
//  #10 //041   ----------------------------------------
 BYTE   VOL   74*ToadstoolTourSkinsMatch_mvl/mxv
 BYTE   BEND   c_v+63
 BYTE   N06  Cs2  v102
 BYTE   N06  An2
 BYTE   N06  Cn1
 BYTE   W12
 BYTE   Cn1
 BYTE   W12
 BYTE   Cn1
 BYTE   W12
 BYTE   Cn1
 BYTE   W12
 BYTE   Cn1
 BYTE   W12
 BYTE   Cn1
 BYTE   W12
 BYTE   Dn1
 BYTE   W06
 BYTE   Dn1
 BYTE   W06
 BYTE   Dn1
 BYTE   W06
 BYTE   Dn1
 BYTE   W06
//  #10 //042   ----------------------------------------
 BYTE   Dn1
 BYTE   W12
 BYTE   Cn1
 BYTE   W12
 BYTE   Cn1
 BYTE   W12
 BYTE   Cn1
 BYTE   W12
 BYTE   Cn1
 BYTE   W12
 BYTE   Cn1
 BYTE   W12
 BYTE   Cn2
 BYTE   N06  Dn2
 BYTE   W06
 BYTE   An1
 BYTE   N06  Bn1
 BYTE   W06
 BYTE   Gn1
 BYTE   N06  An1
 BYTE   W06
 BYTE   Fn1
 BYTE   N06  Gn1
 BYTE   W06
//  #10 //043   ----------------------------------------
 BYTE   An2
 BYTE   N06  Cn1
 BYTE   N06  Cs2
 BYTE   W12
 BYTE   Cn1
 BYTE   W12
 BYTE   Cn1
 BYTE   W12
 BYTE   Cn1
 BYTE   W12
 BYTE   Cn1
 BYTE   W12
 BYTE   Cn1
 BYTE   W12
 BYTE   Dn1
 BYTE   W06
 BYTE   Dn1
 BYTE   W06
 BYTE   Dn1
 BYTE   W12
//  #10 //044   ----------------------------------------
 BYTE   Cn1
 BYTE   W12
 BYTE   Cn1
 BYTE   W12
 BYTE   Cn1
 BYTE   W12
 BYTE   Cn1
 BYTE   W12
 BYTE   Bn1
 BYTE   N06  Cn2
 BYTE   W06
 BYTE   An1
 BYTE   N06  Bn1
 BYTE   N06  Cn2
 BYTE   W06
 BYTE   An1
 BYTE   N06  Bn1
 BYTE   W06
 BYTE   Gn1
 BYTE   N06  An1
 BYTE   N06  Bn1
 BYTE   W06
 BYTE   Gn1
 BYTE   N06  An1
 BYTE   W06
 BYTE   Gn1
 BYTE   N06  An1
 BYTE   W06
 BYTE   Fn1
 BYTE   N06  Dn1
 BYTE   N06  Gn1
 BYTE   W06
 BYTE   Dn1
 BYTE   N06  Fn1
 BYTE   W06
//  #10 //045   ----------------------------------------
 BYTE   Gs1
 BYTE   N06  Cn1
 BYTE   N06  An2
 BYTE   W06
 BYTE   Gs1
 BYTE   W06
 BYTE   Gs1
 BYTE   N06  Dn1
 BYTE   W06
 BYTE   Gs1
 BYTE   W06
 BYTE   Gs1
 BYTE   N06  Cn1
 BYTE   W06
 BYTE   Gs1
 BYTE   N06  Cn1
 BYTE   W06
 BYTE   Gs1
 BYTE   N06  Dn1
 BYTE   W06
 BYTE   Gs1
 BYTE   W06
 BYTE   Cn1
 BYTE   N06  Gs1
 BYTE   W06
 BYTE   Gs1
 BYTE   W06
 BYTE   Dn1
 BYTE   N06  Gs1
 BYTE   W06
 BYTE   Cn1
 BYTE   N06  Gs1
 BYTE   W06
 BYTE   Cn1
 BYTE   N06  Gs1
 BYTE   W06
 BYTE   Cn1
 BYTE   N06  Gs1
 BYTE   W06
 BYTE   Dn1
 BYTE   N06  As1
 BYTE   W06
 BYTE   Gs1
 BYTE   W06
//  #10 //046   ----------------------------------------
 BYTE   Gs1
 BYTE   N06  Cn1
 BYTE   W06
 BYTE   Gs1
 BYTE   W06
 BYTE   Gs1
 BYTE   N06  Dn1
 BYTE   W06
 BYTE   Gs1
 BYTE   W06
 BYTE   Gs1
 BYTE   N06  Cn1
 BYTE   W06
 BYTE   Gs1
 BYTE   N06  Cn1
 BYTE   W06
 BYTE   Gs1
 BYTE   N06  Dn1
 BYTE   W06
 BYTE   Gs1
 BYTE   W06
 BYTE   Cn1
 BYTE   N06  Gs1
 BYTE   W06
 BYTE   Gs1
 BYTE   W06
 BYTE   Dn1
 BYTE   N06  Gs1
 BYTE   W06
 BYTE   Cn1
 BYTE   N06  Gs1
 BYTE   W06
 BYTE   Cn1
 BYTE   N06  Gs1
 BYTE   W06
 BYTE   Cn1
 BYTE   N06  Gs1
 BYTE   W06
 BYTE   Dn1
 BYTE   N06  As1
 BYTE   W06
 BYTE   Dn1
 BYTE   N06  Gs1
 BYTE   W06
//  #10 //047   ----------------------------------------
 BYTE   Gs1
 BYTE   N06  Cn1
 BYTE   W06
 BYTE   Gs1
 BYTE   W06
 BYTE   Gs1
 BYTE   N06  Dn1
 BYTE   W06
 BYTE   Gs1
 BYTE   W06
 BYTE   Gs1
 BYTE   N06  Cn1
 BYTE   W06
 BYTE   Gs1
 BYTE   N06  Cn1
 BYTE   W06
 BYTE   Gs1
 BYTE   N06  Dn1
 BYTE   W06
 BYTE   Gs1
 BYTE   W06
 BYTE   Cn1
 BYTE   N06  Gs1
 BYTE   W06
 BYTE   Gs1
 BYTE   W06
 BYTE   Dn1
 BYTE   N06  Gs1
 BYTE   W06
 BYTE   Cn1
 BYTE   N06  Gs1
 BYTE   W06
 BYTE   Cn1
 BYTE   N06  Gs1
 BYTE   W06
 BYTE   Cn1
 BYTE   N06  Gs1
 BYTE   W06
 BYTE   Dn1
 BYTE   N06  As1
 BYTE   W06
 BYTE   Gs1
 BYTE   W06
//  #10 //048   ----------------------------------------
 BYTE   Gs1
 BYTE   N06  Cn1
 BYTE   W06
 BYTE   Gs1
 BYTE   W06
 BYTE   Gs1
 BYTE   N06  Dn1
 BYTE   W06
 BYTE   Gs1
 BYTE   W06
 BYTE   Gs1
 BYTE   N06  Cn1
 BYTE   W06
 BYTE   Gs1
 BYTE   N06  Cn1
 BYTE   W06
 BYTE   Gs1
 BYTE   N06  Dn1
 BYTE   W06
 BYTE   Gs1
 BYTE   W06
 BYTE   Cn1
 BYTE   N06  Gs1
 BYTE   W06
 BYTE   Gs1
 BYTE   W06
 BYTE   Dn1
 BYTE   N06  Gs1
 BYTE   W06
 BYTE   Cn1
 BYTE   N06  Gs1
 BYTE   W06
 BYTE   Dn1
 BYTE   N06  Gs1
 BYTE   W06
 BYTE   Dn1
 BYTE   N06  Gs1
 BYTE   W06
 BYTE   Dn1
 BYTE   N06  As1
 BYTE   W06
 BYTE   Dn1
 BYTE   N06  Gs1
 BYTE   W06
//  #10 //049   ----------------------------------------
 BYTE   Cn1
 BYTE   N06  As1
 BYTE   W12
 BYTE   Gs1
 BYTE   W06
 BYTE   Cn1
 BYTE   N06  Gs1
 BYTE   W06
 BYTE   Gs1
 BYTE   W06
 BYTE   Gs1
 BYTE   W06
 BYTE   Dn1
 BYTE   N06  Gs1
 BYTE   W06
 BYTE   Gs1
 BYTE   W06
 BYTE   Cn1
 BYTE   N06  Gs1
 BYTE   W06
 BYTE   Gs1
 BYTE   W06
 BYTE   Gs1
 BYTE   W06
 BYTE   Cn1
 BYTE   N06  Gs1
 BYTE   W06
 BYTE   Gs1
 BYTE   W06
 BYTE   Gs1
 BYTE   W06
 BYTE   Dn1
 BYTE   N06  Gs1
 BYTE   W06
 BYTE   Gs1
 BYTE   W06
//  #10 //050   ----------------------------------------
 BYTE   Gs1
 BYTE   N06  Cn1
 BYTE   W06
 BYTE   Gs1
 BYTE   W06
 BYTE   Gs1
 BYTE   N06  Dn1
 BYTE   W06
 BYTE   Gs1
 BYTE   W06
 BYTE   Gs1
 BYTE   N06  Cn1
 BYTE   W06
 BYTE   Gs1
 BYTE   N06  Cn1
 BYTE   W06
 BYTE   Gs1
 BYTE   N06  Dn1
 BYTE   W06
 BYTE   Gs1
 BYTE   W06
 BYTE   Gs1
 BYTE   N06  Cn1
 BYTE   W06
 BYTE   Gs1
 BYTE   W06
 BYTE   Gs1
 BYTE   N06  Dn1
 BYTE   W06
 BYTE   Gs1
 BYTE   N06  Cn1
 BYTE   W06
 BYTE   Gs1
 BYTE   N06  Cn1
 BYTE   W06
 BYTE   Gs1
 BYTE   N06  Cn1
 BYTE   W06
 BYTE   Gs1
 BYTE   N06  Dn1
 BYTE   W06
 BYTE   Gs1
 BYTE   W06
//  #10 //051   ----------------------------------------
 BYTE   Cn1
 BYTE   N06  As1
 BYTE   W12
 BYTE   Gs1
 BYTE   W06
 BYTE   Cn1
 BYTE   N06  Gs1
 BYTE   W06
 BYTE   Gs1
 BYTE   W06
 BYTE   Gs1
 BYTE   W06
 BYTE   Dn1
 BYTE   N06  Gs1
 BYTE   W06
 BYTE   Gs1
 BYTE   W06
 BYTE   Cn1
 BYTE   N06  Gs1
 BYTE   W06
 BYTE   Gs1
 BYTE   W06
 BYTE   Gs1
 BYTE   W06
 BYTE   Cn1
 BYTE   N06  Gs1
 BYTE   W06
 BYTE   Gs1
 BYTE   W06
 BYTE   Gs1
 BYTE   W06
 BYTE   Dn1
 BYTE   N06  Gs1
 BYTE   W06
 BYTE   Gs1
 BYTE   W06
//  #10 //052   ----------------------------------------
 BYTE   Gs1
 BYTE   N06  Cn1
 BYTE   W06
 BYTE   Gs1
 BYTE   W06
 BYTE   Gs1
 BYTE   N06  Dn1
 BYTE   W06
 BYTE   Gs1
 BYTE   W06
 BYTE   Gs1
 BYTE   N06  Cn1
 BYTE   W06
 BYTE   Gs1
 BYTE   N06  Cn1
 BYTE   W06
 BYTE   Gs1
 BYTE   N06  Dn1
 BYTE   W06
 BYTE   Gs1
 BYTE   W06
 BYTE   Gs1
 BYTE   N06  Cn1
 BYTE   W06
 BYTE   Gs1
 BYTE   W06
 BYTE   Gs1
 BYTE   N06  Dn1
 BYTE   W06
 BYTE   Gs1
 BYTE   N06  Cn1
 BYTE   W06
 BYTE   Cn2
 BYTE   N06  Bn1
 BYTE   N06  Cn1
 BYTE   W06
 BYTE   An1
 BYTE   N06  Bn1
 BYTE   N06  Cn1
 BYTE   W06
 BYTE   Gn1
 BYTE   N06  An1
 BYTE   N06  Dn1
 BYTE   W06
 BYTE   Dn1
 BYTE   N06  Fn1
 BYTE   N06  Gn1
 BYTE   W06
//  #10 //053   ----------------------------------------
 BYTE   Gs1
 BYTE   N06  Cn1
 BYTE   N06  Cs2
 BYTE   W06
 BYTE   Gs1
 BYTE   W06
 BYTE   Gs1
 BYTE   N06  Dn1
 BYTE   W06
 BYTE   Gs1
 BYTE   W06
 BYTE   Gs1
 BYTE   N06  Cn1
 BYTE   W06
 BYTE   Gs1
 BYTE   N06  Cn1
 BYTE   W06
 BYTE   Gs1
 BYTE   N06  Dn1
 BYTE   W06
 BYTE   Gs1
 BYTE   W06
 BYTE   Cn1
 BYTE   N06  Gs1
 BYTE   W06
 BYTE   Gs1
 BYTE   W06
 BYTE   Dn1
 BYTE   N06  Gs1
 BYTE   W06
 BYTE   Cn1
 BYTE   N06  Gs1
 BYTE   W06
 BYTE   Cn1
 BYTE   N06  Gs1
 BYTE   W06
 BYTE   Cn1
 BYTE   N06  Gs1
 BYTE   W06
 BYTE   Dn1
 BYTE   N06  As1
 BYTE   W06
 BYTE   Gs1
 BYTE   W06
//  #10 //054   ----------------------------------------
 BYTE   Gs1
 BYTE   N06  Cn1
 BYTE   W06
 BYTE   Gs1
 BYTE   W06
 BYTE   Gs1
 BYTE   N06  Dn1
 BYTE   W06
 BYTE   Gs1
 BYTE   W06
 BYTE   Gs1
 BYTE   N06  Cn1
 BYTE   W06
 BYTE   Gs1
 BYTE   N06  Cn1
 BYTE   W06
 BYTE   Gs1
 BYTE   N06  Dn1
 BYTE   W06
 BYTE   Gs1
 BYTE   W06
 BYTE   Cn1
 BYTE   N06  Gs1
 BYTE   W06
 BYTE   Gs1
 BYTE   W06
 BYTE   Dn1
 BYTE   N06  Gs1
 BYTE   W06
 BYTE   Cn1
 BYTE   N06  Gs1
 BYTE   W06
 BYTE   Cn1
 BYTE   N06  Gs1
 BYTE   W06
 BYTE   Cn1
 BYTE   N06  Gs1
 BYTE   W06
 BYTE   Dn1
 BYTE   N06  As1
 BYTE   W06
 BYTE   Dn1
 BYTE   N06  Gs1
 BYTE   W06
//  #10 //055   ----------------------------------------
 BYTE   Gs1
 BYTE   N06  Cn1
 BYTE   W06
 BYTE   Gs1
 BYTE   W06
 BYTE   Gs1
 BYTE   N06  Dn1
 BYTE   W06
 BYTE   Gs1
 BYTE   W06
 BYTE   Gs1
 BYTE   N06  Cn1
 BYTE   W06
 BYTE   Gs1
 BYTE   N06  Cn1
 BYTE   W06
 BYTE   Gs1
 BYTE   N06  Dn1
 BYTE   W06
 BYTE   Gs1
 BYTE   W06
 BYTE   Cn1
 BYTE   N06  Gs1
 BYTE   W06
 BYTE   Gs1
 BYTE   W06
 BYTE   Dn1
 BYTE   N06  Gs1
 BYTE   W06
 BYTE   Cn1
 BYTE   N06  Gs1
 BYTE   W06
 BYTE   Cn1
 BYTE   N06  Gs1
 BYTE   W06
 BYTE   Cn1
 BYTE   N06  Gs1
 BYTE   W06
 BYTE   Dn1
 BYTE   N06  As1
 BYTE   W06
 BYTE   Gs1
 BYTE   W06
//  #10 //056   ----------------------------------------
 BYTE   Gs1
 BYTE   N06  Cn1
 BYTE   W06
 BYTE   Gs1
 BYTE   W06
 BYTE   Gs1
 BYTE   N06  Dn1
 BYTE   W06
 BYTE   Gs1
 BYTE   W06
 BYTE   Gs1
 BYTE   N06  Cn1
 BYTE   W06
 BYTE   Gs1
 BYTE   N06  Cn1
 BYTE   W06
 BYTE   Gs1
 BYTE   N06  Dn1
 BYTE   W06
 BYTE   Gs1
 BYTE   W06
 BYTE   Cn1
 BYTE   N06  Gs1
 BYTE   W06
 BYTE   Gs1
 BYTE   W06
 BYTE   Dn1
 BYTE   N06  Gs1
 BYTE   W06
 BYTE   Cn1
 BYTE   N06  Gs1
 BYTE   W06
 BYTE   Dn1
 BYTE   N06  Gs1
 BYTE   W06
 BYTE   Dn1
 BYTE   N06  Gs1
 BYTE   W06
 BYTE   Dn1
 BYTE   N06  As1
 BYTE   W06
 BYTE   Dn1
 BYTE   N06  Gs1
 BYTE   W06
//  #10 //057   ----------------------------------------
 BYTE   Cn1
 BYTE   N06  As1
 BYTE   W12
 BYTE   Gs1
 BYTE   W06
 BYTE   Cn1
 BYTE   N06  Gs1
 BYTE   W06
 BYTE   Gs1
 BYTE   W06
 BYTE   Gs1
 BYTE   W06
 BYTE   Dn1
 BYTE   N06  Gs1
 BYTE   W06
 BYTE   Gs1
 BYTE   W06
 BYTE   Cn1
 BYTE   N06  Gs1
 BYTE   W06
 BYTE   Gs1
 BYTE   W06
 BYTE   Gs1
 BYTE   W06
 BYTE   Cn1
 BYTE   N06  Gs1
 BYTE   W06
 BYTE   Gs1
 BYTE   W06
 BYTE   Gs1
 BYTE   W06
 BYTE   Dn1
 BYTE   N06  Gs1
 BYTE   W06
 BYTE   Gs1
 BYTE   W06
//  #10 //058   ----------------------------------------
 BYTE   Gs1
 BYTE   N06  Cn1
 BYTE   W06
 BYTE   Gs1
 BYTE   W06
 BYTE   Gs1
 BYTE   N06  Dn1
 BYTE   W06
 BYTE   Gs1
 BYTE   W06
 BYTE   Gs1
 BYTE   N06  Cn1
 BYTE   W06
 BYTE   Gs1
 BYTE   N06  Cn1
 BYTE   W06
 BYTE   Gs1
 BYTE   N06  Dn1
 BYTE   W06
 BYTE   Gs1
 BYTE   W06
 BYTE   Gs1
 BYTE   N06  Cn1
 BYTE   W06
 BYTE   Gs1
 BYTE   W06
 BYTE   Gs1
 BYTE   N06  Dn1
 BYTE   W06
 BYTE   Gs1
 BYTE   N06  Cn1
 BYTE   W06
 BYTE   Gs1
 BYTE   N06  Cn1
 BYTE   W06
 BYTE   Gs1
 BYTE   N06  Cn1
 BYTE   W06
 BYTE   Gs1
 BYTE   N06  Dn1
 BYTE   W06
 BYTE   Gs1
 BYTE   W06
//  #10 //059   ----------------------------------------
 BYTE   Cn1
 BYTE   N06  As1
 BYTE   W12
 BYTE   Gs1
 BYTE   W06
 BYTE   Cn1
 BYTE   N06  Gs1
 BYTE   W06
 BYTE   Gs1
 BYTE   W06
 BYTE   Gs1
 BYTE   W06
 BYTE   Dn1
 BYTE   N06  Gs1
 BYTE   W06
 BYTE   Gs1
 BYTE   W06
 BYTE   Cn1
 BYTE   N06  Gs1
 BYTE   W06
 BYTE   Gs1
 BYTE   W06
 BYTE   Gs1
 BYTE   W06
 BYTE   Cn1
 BYTE   N06  Gs1
 BYTE   W06
 BYTE   Gs1
 BYTE   W06
 BYTE   Gs1
 BYTE   W06
 BYTE   Dn1
 BYTE   N06  Gs1
 BYTE   W06
 BYTE   Gs1
 BYTE   W06
//  #10 //060   ----------------------------------------
 BYTE   Gs1
 BYTE   N06  Cn1
 BYTE   W06
 BYTE   Gs1
 BYTE   W06
 BYTE   Gs1
 BYTE   N06  Dn1
 BYTE   W06
 BYTE   Gs1
 BYTE   W06
 BYTE   Gs1
 BYTE   N06  Cn1
 BYTE   W06
 BYTE   Gs1
 BYTE   N06  Cn1
 BYTE   W06
 BYTE   Gs1
 BYTE   N06  Dn1
 BYTE   W06
 BYTE   Gs1
 BYTE   W06
 BYTE   Gs1
 BYTE   N06  Cn1
 BYTE   W06
 BYTE   Gs1
 BYTE   W06
 BYTE   Gs1
 BYTE   N06  Dn1
 BYTE   W06
 BYTE   Gs1
 BYTE   N06  Cn1
 BYTE   W06
 BYTE   Cn2
 BYTE   N06  Bn1
 BYTE   N06  Cn1
 BYTE   W06
 BYTE   An1
 BYTE   N06  Bn1
 BYTE   N06  Cn1
 BYTE   W06
 BYTE   Gn1
 BYTE   N06  An1
 BYTE   N06  Dn1
 BYTE   W06
 BYTE   Dn1
 BYTE   N06  Fn1
 BYTE   N06  Gn1
 BYTE   W06
//  #10 //061   ----------------------------------------
 BYTE   An2
 BYTE   N06  Cs2
 BYTE   N06  Cn1
 BYTE   W12
 BYTE   Cn1
 BYTE   W12
 BYTE   Cn1
 BYTE   W12
 BYTE   Cn1
 BYTE   W12
 BYTE   Cn1
 BYTE   W12
 BYTE   Cn1
 BYTE   W12
 BYTE   As1
 BYTE   N06  Cn1
 BYTE   W12
 BYTE   Gs1
 BYTE   N06  Dn1
 BYTE   W06
 BYTE   Dn1
 BYTE   W06
//  #10 //062   ----------------------------------------
 BYTE   Dn1
 BYTE   W12
 BYTE   Cn1
 BYTE   W12
 BYTE   Cn1
 BYTE   W12
 BYTE   Cn1
 BYTE   W12
 BYTE   Cn1
 BYTE   W12
 BYTE   Cn1
 BYTE   W12
 BYTE   As1
 BYTE   N06  Cn2
 BYTE   N06  Dn2
 BYTE   W06
 BYTE   An1
 BYTE   N06  Bn1
 BYTE   W06
 BYTE   Gs1
 BYTE   N06  Gn1
 BYTE   N06  An1
 BYTE   W12
//  #10 //063   ----------------------------------------
 BYTE   An2
 BYTE   N06  Cn1
 BYTE   N06  Cs2
 BYTE   W12
 BYTE   Cn1
 BYTE   W12
 BYTE   Cn1
 BYTE   W12
 BYTE   Cn1
 BYTE   W12
 BYTE   Cn1
 BYTE   W12
 BYTE   Cn1
 BYTE   W12
 BYTE   Cn1
 BYTE   W12
 BYTE   Dn1
 BYTE   W06
 BYTE   Dn1
 BYTE   W06
//  #10 //064   ----------------------------------------
 BYTE   Cn1
 BYTE   W12
 BYTE   Cn1
 BYTE   W12
 BYTE   Cn1
 BYTE   W12
 BYTE   Cn1
 BYTE   W12
 BYTE   An1
 BYTE   N06  Dn1
 BYTE   W06
 BYTE   Dn1
 BYTE   W06
 BYTE   Gs1
 BYTE   N06  Dn1
 BYTE   W06
 BYTE   Dn1
 BYTE   W06
 BYTE   Dn1
 BYTE   W06
 BYTE   Dn1
 BYTE   W06
 BYTE   Dn1
 BYTE   W06
 BYTE   Dn1
 BYTE   W06
//  #10 //065   ----------------------------------------
 BYTE   Cs2
 BYTE   N06  An2
 BYTE   N06  Cn1
 BYTE   W12
 BYTE   Cn1
 BYTE   W06
 BYTE   Dn1
 BYTE   W06
 BYTE   Cn1
 BYTE   W12
 BYTE   Dn1
 BYTE   N06  Cn1
 BYTE   W06
 BYTE   Dn1
 BYTE   W06
 BYTE   Cn1
 BYTE   W12
 BYTE   Cn1
 BYTE   W06
 BYTE   Dn1
 BYTE   W06
 BYTE   Cn1
 BYTE   N06  As1
 BYTE   W12
 BYTE   Cn1
 BYTE   N06  Gs1
 BYTE   N06  Dn1
 BYTE   W06
 BYTE   Dn1
 BYTE   W06
//  #10 //066   ----------------------------------------
 BYTE   Cn1
 BYTE   N06  Dn1
 BYTE   W12
 BYTE   Cn1
 BYTE   W06
 BYTE   Dn1
 BYTE   W06
 BYTE   Cn1
 BYTE   W12
 BYTE   Dn1
 BYTE   N06  Cn1
 BYTE   W06
 BYTE   Dn1
 BYTE   W06
 BYTE   Cn1
 BYTE   W12
 BYTE   Cn1
 BYTE   W06
 BYTE   Dn1
 BYTE   W06
 BYTE   As1
 BYTE   N06  Cn1
 BYTE   W12
 BYTE   Gs1
 BYTE   N06  Dn1
 BYTE   N06  Cn1
 BYTE   W06
 BYTE   Dn1
 BYTE   W06
//  #10 //067   ----------------------------------------
 BYTE   Cs2
 BYTE   N06  An2
 BYTE   N06  Cn1
 BYTE   W12
 BYTE   Cn1
 BYTE   W06
 BYTE   Dn1
 BYTE   W06
 BYTE   Cn1
 BYTE   W12
 BYTE   Dn1
 BYTE   N06  Cn1
 BYTE   W06
 BYTE   Dn1
 BYTE   W06
 BYTE   Cn1
 BYTE   W12
 BYTE   Cn1
 BYTE   W06
 BYTE   Dn1
 BYTE   W06
 BYTE   Cn1
 BYTE   N06  As1
 BYTE   W12
 BYTE   Cn1
 BYTE   N06  Gs1
 BYTE   N06  Dn1
 BYTE   W06
 BYTE   Dn1
 BYTE   W06
//  #10 //068   ----------------------------------------
 BYTE   Cn1
 BYTE   N06  Dn1
 BYTE   W12
 BYTE   Cn1
 BYTE   W06
 BYTE   Dn1
 BYTE   W06
 BYTE   Cn1
 BYTE   W12
 BYTE   Dn1
 BYTE   N06  Cn1
 BYTE   W06
 BYTE   Dn1
 BYTE   W06
 BYTE   Cn1
 BYTE   W12
 BYTE   Cn1
 BYTE   W06
 BYTE   Dn1
 BYTE   W06
 BYTE   As1
 BYTE   N06  Cn1
 BYTE   W12
 BYTE   Gs1
 BYTE   N06  Dn1
 BYTE   N06  Cn1
 BYTE   W06
 BYTE   Dn1
 BYTE   W06
//  #10 //069   ----------------------------------------
 BYTE   An2
 BYTE   W18
 BYTE   Dn1
 BYTE   W18
 BYTE   Cn1
 BYTE   W12
 BYTE   Bn1
 BYTE   N06  Cn2
 BYTE   W18
 BYTE   An1
 BYTE   N06  Gn1
 BYTE   W18
 BYTE   Fn1
 BYTE   W12
//  #10 //070   ----------------------------------------
 BYTE   Cs2
 BYTE   W18
 BYTE   Dn1
 BYTE   W06
 BYTE   Dn1
 BYTE   W12
 BYTE   Cn1
 BYTE   W12
 BYTE   Bn1
 BYTE   N06  Cn2
 BYTE   N06  Dn1
 BYTE   W06
 BYTE   Dn1
 BYTE   W06
 BYTE   Dn1
 BYTE   W06
 BYTE   An1
 BYTE   N06  Gn1
 BYTE   N06  Dn1
 BYTE   W06
 BYTE   Dn1
 BYTE   W06
 BYTE   Dn1
 BYTE   W06
 BYTE   Fn1
 BYTE   N06  Dn1
 BYTE   W06
 BYTE   Dn1
 BYTE   W06
//  #10 //071   ----------------------------------------
 BYTE   An2
 BYTE   W18
 BYTE   Dn1
 BYTE   W18
 BYTE   Cn1
 BYTE   W12
 BYTE   Bn1
 BYTE   N06  Cn2
 BYTE   W18
 BYTE   An1
 BYTE   N06  Gn1
 BYTE   W18
 BYTE   Fn1
 BYTE   W12
//  #10 //072   ----------------------------------------
 BYTE   Cs2
 BYTE   W18
 BYTE   Dn1
 BYTE   W06
 BYTE   Dn1
 BYTE   W12
 BYTE   Cn1
 BYTE   W12
 BYTE   Bn1
 BYTE   N06  Cn2
 BYTE   N06  Dn1
 BYTE   W06
 BYTE   Dn1
 BYTE   W06
 BYTE   Dn1
 BYTE   W06
 BYTE   An1
 BYTE   N06  Gn1
 BYTE   N06  Dn1
 BYTE   W06
 BYTE   Dn1
 BYTE   W06
 BYTE   Dn1
 BYTE   W06
 BYTE   Fn1
 BYTE   N06  Dn1
 BYTE   W06
 BYTE   Dn1
 BYTE   W06
//  #10 //073   ----------------------------------------
 BYTE   Cn1
 BYTE   W12
 BYTE   Cn1
 BYTE   W06
 BYTE   Dn1
 BYTE   W06
 BYTE   Cn1
 BYTE   W12
 BYTE   Dn1
 BYTE   N06  Cn1
 BYTE   W06
 BYTE   Dn1
 BYTE   W06
 BYTE   Cn1
 BYTE   W12
 BYTE   Cn1
 BYTE   W06
 BYTE   Dn1
 BYTE   W06
 BYTE   Cn1
 BYTE   N06  As1
 BYTE   W12
 BYTE   Cn1
 BYTE   N06  Gs1
 BYTE   N06  Dn1
 BYTE   W06
 BYTE   Dn1
 BYTE   W06
//  #10 //074   ----------------------------------------
 BYTE   Cn1
 BYTE   N06  Dn1
 BYTE   W12
 BYTE   Cn1
 BYTE   W06
 BYTE   Dn1
 BYTE   W06
 BYTE   Cn1
 BYTE   W12
 BYTE   Dn1
 BYTE   N06  Cn1
 BYTE   W06
 BYTE   Dn1
 BYTE   W06
 BYTE   Cn1
 BYTE   W12
 BYTE   Cn1
 BYTE   W06
 BYTE   Dn1
 BYTE   W06
 BYTE   As1
 BYTE   N06  Cn1
 BYTE   W12
 BYTE   Gs1
 BYTE   N06  Dn1
 BYTE   N06  Cn1
 BYTE   W06
 BYTE   Dn1
 BYTE   W06
//  #10 //075   ----------------------------------------
 BYTE   Cn1
 BYTE   W12
 BYTE   Cn1
 BYTE   W06
 BYTE   Dn1
 BYTE   W06
 BYTE   Cn1
 BYTE   W12
 BYTE   Dn1
 BYTE   N06  Cn1
 BYTE   W06
 BYTE   Dn1
 BYTE   W06
 BYTE   Cn1
 BYTE   W12
 BYTE   Cn1
 BYTE   W06
 BYTE   Dn1
 BYTE   W06
 BYTE   Cn1
 BYTE   N06  As1
 BYTE   W12
 BYTE   Cn1
 BYTE   N06  Gs1
 BYTE   N06  Dn1
 BYTE   W06
 BYTE   Dn1
 BYTE   W06
//  #10 //076   ----------------------------------------
 BYTE   Cn1
 BYTE   N06  Dn1
 BYTE   W12
 BYTE   Cn1
 BYTE   W06
 BYTE   Dn1
 BYTE   W06
 BYTE   Cn1
 BYTE   W12
 BYTE   Dn1
 BYTE   N06  Cn1
 BYTE   W06
 BYTE   Dn1
 BYTE   W06
 BYTE   Cn1
 BYTE   W12
 BYTE   Cn1
 BYTE   W06
 BYTE   Dn1
 BYTE   W06
 BYTE   As1
 BYTE   N06  Cn1
 BYTE   W12
 BYTE   Gs1
 BYTE   N06  Dn1
 BYTE   N06  Cn1
 BYTE   W06
 BYTE   Dn1
 BYTE   W06
//  #10 //077   ----------------------------------------
 BYTE   Gs1
 BYTE   N06  An2
 BYTE   N06  Cn1
 BYTE   W06
 BYTE   Gs1
 BYTE   W06
 BYTE   Gs1
 BYTE   N06  Dn1
 BYTE   W06
 BYTE   Gs1
 BYTE   W06
 BYTE   Gs1
 BYTE   N06  Cn1
 BYTE   W06
 BYTE   Gs1
 BYTE   N06  Cn1
 BYTE   W06
 BYTE   Gs1
 BYTE   N06  Dn1
 BYTE   W06
 BYTE   Gs1
 BYTE   W06
 BYTE   Gs1
 BYTE   N06  Cn1
 BYTE   W06
 BYTE   Gs1
 BYTE   W06
 BYTE   Gs1
 BYTE   N06  Dn1
 BYTE   W06
 BYTE   Gs1
 BYTE   N06  Cn1
 BYTE   W06
 BYTE   Gs1
 BYTE   N06  Cn1
 BYTE   W06
 BYTE   Gs1
 BYTE   N06  Cn1
 BYTE   W06
 BYTE   Gs1
 BYTE   N06  Dn1
 BYTE   W06
 BYTE   Gs1
 BYTE   W06
//  #10 //078   ----------------------------------------
 BYTE   Gs1
 BYTE   N06  Cn1
 BYTE   W06
 BYTE   Gs1
 BYTE   W06
 BYTE   Gs1
 BYTE   N06  Dn1
 BYTE   W06
 BYTE   Gs1
 BYTE   W06
 BYTE   Gs1
 BYTE   N06  Cn1
 BYTE   W06
 BYTE   Gs1
 BYTE   N06  Cn1
 BYTE   W06
 BYTE   Gs1
 BYTE   N06  Dn1
 BYTE   W06
 BYTE   Gs1
 BYTE   W06
 BYTE   Gs1
 BYTE   N06  Cn1
 BYTE   W06
 BYTE   Gs1
 BYTE   W06
 BYTE   Gs1
 BYTE   N06  Dn1
 BYTE   W06
 BYTE   Gs1
 BYTE   N06  Cn1
 BYTE   W06
 BYTE   Gs1
 BYTE   N06  Cn1
 BYTE   W06
 BYTE   Gs1
 BYTE   N06  Cn1
 BYTE   W06
 BYTE   Gs1
 BYTE   N06  Dn1
 BYTE   W06
 BYTE   Gs1
 BYTE   N06  Dn1
 BYTE   W06
//  #10 //079   ----------------------------------------
 BYTE   Gs1
 BYTE   N06  Cn1
 BYTE   W06
 BYTE   Gs1
 BYTE   W06
 BYTE   Gs1
 BYTE   N06  Dn1
 BYTE   W06
 BYTE   Gs1
 BYTE   W06
 BYTE   Gs1
 BYTE   N06  Cn1
 BYTE   W06
 BYTE   Gs1
 BYTE   N06  Cn1
 BYTE   W06
 BYTE   Gs1
 BYTE   N06  Dn1
 BYTE   W06
 BYTE   Gs1
 BYTE   W06
 BYTE   Gs1
 BYTE   N06  Cn1
 BYTE   W06
 BYTE   Gs1
 BYTE   W06
 BYTE   Gs1
 BYTE   N06  Dn1
 BYTE   W06
 BYTE   Gs1
 BYTE   N06  Cn1
 BYTE   W06
 BYTE   Gs1
 BYTE   N06  Cn1
 BYTE   W06
 BYTE   Gs1
 BYTE   N06  Cn1
 BYTE   W06
 BYTE   Gs1
 BYTE   N06  Dn1
 BYTE   W06
 BYTE   Gs1
 BYTE   W06
//  #10 //080   ----------------------------------------
 BYTE   Gs1
 BYTE   N06  Cn1
 BYTE   W06
 BYTE   Gs1
 BYTE   W06
 BYTE   Gs1
 BYTE   N06  Dn1
 BYTE   W06
 BYTE   Gs1
 BYTE   W06
 BYTE   Gs1
 BYTE   N06  Cn1
 BYTE   W06
 BYTE   Gs1
 BYTE   N06  Cn1
 BYTE   W06
 BYTE   Gs1
 BYTE   N06  Dn1
 BYTE   W06
 BYTE   Gs1
 BYTE   W06
 BYTE   Gs1
 BYTE   N06  Cn1
 BYTE   W06
 BYTE   Gs1
 BYTE   W06
 BYTE   Gs1
 BYTE   N06  Dn1
 BYTE   W06
 BYTE   Gs1
 BYTE   N06  Cn1
 BYTE   W06
 BYTE   As1
 BYTE   N06  Cn1
 BYTE   W06
 BYTE   Cn1
 BYTE   W06
 BYTE   Gs1
 BYTE   N06  Dn1
 BYTE   W06
 BYTE   Dn1
 BYTE   W06
//  #10 //081   ----------------------------------------
 BYTE   As1
 BYTE   N06  Cn1
 BYTE   W18
 BYTE   Cn1
 BYTE   W18
 BYTE   Dn1
 BYTE   W12
 BYTE   Cn1
 BYTE   W18
 BYTE   Cn1
 BYTE   W18
 BYTE   Dn1
 BYTE   W12
//  #10 //082   ----------------------------------------
 BYTE   Gs1
 BYTE   N06  Cn1
 BYTE   W06
 BYTE   Gs1
 BYTE   W06
 BYTE   Gs1
 BYTE   N06  Dn1
 BYTE   W06
 BYTE   Gs1
 BYTE   W06
 BYTE   Gs1
 BYTE   N06  Cn1
 BYTE   W06
 BYTE   Gs1
 BYTE   N06  Cn1
 BYTE   W06
 BYTE   Gs1
 BYTE   N06  Dn1
 BYTE   W06
 BYTE   Gs1
 BYTE   W06
 BYTE   Gs1
 BYTE   N06  Cn1
 BYTE   W06
 BYTE   Gs1
 BYTE   N06  Cn1
 BYTE   W06
 BYTE   Gs1
 BYTE   N06  Dn1
 BYTE   W06
 BYTE   Gs1
 BYTE   N06  Cn1
 BYTE   W06
 BYTE   Gs1
 BYTE   N06  Cn1
 BYTE   W06
 BYTE   Gs1
 BYTE   N06  Cn1
 BYTE   W06
 BYTE   Gs1
 BYTE   N06  Dn1
 BYTE   W06
 BYTE   Gs1
 BYTE   N06  Dn1
 BYTE   W06
//  #10 //083   ----------------------------------------
 BYTE   As1
 BYTE   N06  Cn1
 BYTE   W18
 BYTE   Cn1
 BYTE   W18
 BYTE   Dn1
 BYTE   W12
 BYTE   Cn1
 BYTE   W18
 BYTE   Cn1
 BYTE   W18
 BYTE   Dn1
 BYTE   W12
//  #10 //084   ----------------------------------------
 BYTE   Gs1
 BYTE   N06  Cn1
 BYTE   W06
 BYTE   Gs1
 BYTE   W06
 BYTE   Gs1
 BYTE   N06  Dn1
 BYTE   W06
 BYTE   Gs1
 BYTE   W06
 BYTE   Gs1
 BYTE   N06  Cn1
 BYTE   W06
 BYTE   Gs1
 BYTE   N06  Cn1
 BYTE   W06
 BYTE   Gs1
 BYTE   N06  Dn1
 BYTE   W06
 BYTE   Gs1
 BYTE   W06
 BYTE   Gs1
 BYTE   N06  Cn1
 BYTE   W06
 BYTE   Gs1
 BYTE   N06  Cn1
 BYTE   W06
 BYTE   Gs1
 BYTE   N06  Dn1
 BYTE   W06
 BYTE   Gs1
 BYTE   N06  Cn1
 BYTE   W06
 BYTE   Bn1
 BYTE   N06  Cn2
 BYTE   N06  Cn1
 BYTE   W06
 BYTE   An1
 BYTE   N06  Bn1
 BYTE   N06  Cn1
 BYTE   W06
 BYTE   Gn1
 BYTE   N06  An1
 BYTE   N06  Dn1
 BYTE   W06
 BYTE   Gn1
 BYTE   N06  Fn1
 BYTE   N06  Dn1
 BYTE   W05
 BYTE   VOL   74*ToadstoolTourSkinsMatch_mvl/mxv
 BYTE   BEND   c_v+63
 BYTE   N06  An2  v102
 BYTE   N06  Cn1
 BYTE   N06  Cs2
 BYTE   W03
//  #10 //085   ----------------------------------------
 BYTE   VOL   74*ToadstoolTourSkinsMatch_mvl/mxv
 BYTE   W04
 BYTE   VOL   74*ToadstoolTourSkinsMatch_mvl/mxv
 BYTE   W04
 BYTE   N06  Cn1  v102
 BYTE   VOL   74*ToadstoolTourSkinsMatch_mvl/mxv
 BYTE   W04
 BYTE   VOL   74*ToadstoolTourSkinsMatch_mvl/mxv
 BYTE   W04
 BYTE   VOL   74*ToadstoolTourSkinsMatch_mvl/mxv
 BYTE   W03
 BYTE   N06  Cn1  v102
 BYTE   W01
 BYTE   VOL   74*ToadstoolTourSkinsMatch_mvl/mxv
 BYTE   W04
 BYTE   VOL   74*ToadstoolTourSkinsMatch_mvl/mxv
 BYTE   W04
 BYTE   VOL   74*ToadstoolTourSkinsMatch_mvl/mxv
 BYTE   W02
 BYTE   N06  Cn1  v102
 BYTE   W01
 BYTE   VOL   74*ToadstoolTourSkinsMatch_mvl/mxv
 BYTE   W04
 BYTE   VOL   74*ToadstoolTourSkinsMatch_mvl/mxv
 BYTE   W04
 BYTE   VOL   74*ToadstoolTourSkinsMatch_mvl/mxv
 BYTE   W01
 BYTE   N06  Cn1  v102
 BYTE   W02
 BYTE   VOL   74*ToadstoolTourSkinsMatch_mvl/mxv
 BYTE   W04
 BYTE   VOL   74*ToadstoolTourSkinsMatch_mvl/mxv
 BYTE   W04
 BYTE   VOL   74*ToadstoolTourSkinsMatch_mvl/mxv
 BYTE   N06  Cn1  v102
 BYTE   W03
 BYTE   VOL   74*ToadstoolTourSkinsMatch_mvl/mxv
 BYTE   W04
 BYTE   VOL   74*ToadstoolTourSkinsMatch_mvl/mxv
 BYTE   W03
 BYTE   N06  Dn1  v102
 BYTE   VOL   74*ToadstoolTourSkinsMatch_mvl/mxv
 BYTE   W04
 BYTE   VOL   74*ToadstoolTourSkinsMatch_mvl/mxv
 BYTE   W01
 BYTE   N06  Dn1  v102
 BYTE   W03
 BYTE   VOL   74*ToadstoolTourSkinsMatch_mvl/mxv
 BYTE   W03
 BYTE   N06  Dn1  v102
 BYTE   W01
 BYTE   VOL   74*ToadstoolTourSkinsMatch_mvl/mxv
 BYTE   W04
 BYTE   VOL   74*ToadstoolTourSkinsMatch_mvl/mxv
 BYTE   N06  Dn1  v102
 BYTE   W03
 BYTE   VOL   74*ToadstoolTourSkinsMatch_mvl/mxv
 BYTE   W02
 BYTE   N06  Dn1  v102
 BYTE   W02
 BYTE   VOL   74*ToadstoolTourSkinsMatch_mvl/mxv
 BYTE   W04
 BYTE   VOL   74*ToadstoolTourSkinsMatch_mvl/mxv
 BYTE   W04
 BYTE   VOL   74*ToadstoolTourSkinsMatch_mvl/mxv
 BYTE   W01
 BYTE   N06  Cn1  v102
 BYTE   W03
 BYTE   VOL   74*ToadstoolTourSkinsMatch_mvl/mxv
 BYTE   W04
//  #10 //086   ----------------------------------------
 BYTE   VOL   74*ToadstoolTourSkinsMatch_mvl/mxv
 BYTE   W04
 BYTE   VOL   74*ToadstoolTourSkinsMatch_mvl/mxv
 BYTE   N06  Cn1  v102
 BYTE   W04
 BYTE   VOL   74*ToadstoolTourSkinsMatch_mvl/mxv
 BYTE   W04
 BYTE   VOL   74*ToadstoolTourSkinsMatch_mvl/mxv
 BYTE   W03
 BYTE   N06  Cn1  v102
 BYTE   VOL   74*ToadstoolTourSkinsMatch_mvl/mxv
 BYTE   W04
 BYTE   VOL   74*ToadstoolTourSkinsMatch_mvl/mxv
 BYTE   W04
 BYTE   VOL   74*ToadstoolTourSkinsMatch_mvl/mxv
 BYTE   W02
 BYTE   N06  Cn1  v102
 BYTE   W01
 BYTE   VOL   74*ToadstoolTourSkinsMatch_mvl/mxv
 BYTE   W04
 BYTE   VOL   74*ToadstoolTourSkinsMatch_mvl/mxv
 BYTE   W04
 BYTE   VOL   74*ToadstoolTourSkinsMatch_mvl/mxv
 BYTE   W01
 BYTE   N06  Cn1  v102
 BYTE   W02
 BYTE   VOL   74*ToadstoolTourSkinsMatch_mvl/mxv
 BYTE   W04
 BYTE   VOL   74*ToadstoolTourSkinsMatch_mvl/mxv
 BYTE   W04
 BYTE   VOL   74*ToadstoolTourSkinsMatch_mvl/mxv
 BYTE   N06  Cn2  v102
 BYTE   N06  Dn2
 BYTE   W03
 BYTE   VOL   74*ToadstoolTourSkinsMatch_mvl/mxv
 BYTE   W02
 BYTE   N06  An1  v102
 BYTE   N06  Bn1
 BYTE   W01
 BYTE   VOL   74*ToadstoolTourSkinsMatch_mvl/mxv
 BYTE   W04
 BYTE   N06  Gn1  v102
 BYTE   N06  An1
 BYTE   VOL   74*ToadstoolTourSkinsMatch_mvl/mxv
 BYTE   W04
 BYTE   VOL   74*ToadstoolTourSkinsMatch_mvl/mxv
 BYTE   W01
 BYTE   N06  Gn1  v102
 BYTE   N06  Fn1
 BYTE   W02
 BYTE   VOL   74*ToadstoolTourSkinsMatch_mvl/mxv
 BYTE   W03
 BYTE   N06  Cs2  v102
 BYTE   N06  Cn1
 BYTE   N06  An2
 BYTE   VOL   74*ToadstoolTourSkinsMatch_mvl/mxv
 BYTE   W04
 BYTE   VOL   74*ToadstoolTourSkinsMatch_mvl/mxv
 BYTE   W04
 BYTE   VOL   74*ToadstoolTourSkinsMatch_mvl/mxv
 BYTE   W02
 BYTE   N06  Cn1  v102
 BYTE   W01
 BYTE   VOL   74*ToadstoolTourSkinsMatch_mvl/mxv
 BYTE   W04
 BYTE   VOL   74*ToadstoolTourSkinsMatch_mvl/mxv
 BYTE   W04
 BYTE   VOL   74*ToadstoolTourSkinsMatch_mvl/mxv
 BYTE   W01
 BYTE   N06  Cn1  v102
 BYTE   W02
 BYTE   VOL   74*ToadstoolTourSkinsMatch_mvl/mxv
 BYTE   W04
 BYTE   VOL   74*ToadstoolTourSkinsMatch_mvl/mxv
 BYTE   W04
 BYTE   VOL   74*ToadstoolTourSkinsMatch_mvl/mxv
 BYTE   N06  Cn1  v102
 BYTE   W03
//  #10 //087   ----------------------------------------
 BYTE   VOL   74*ToadstoolTourSkinsMatch_mvl/mxv
 BYTE   W04
 BYTE   VOL   74*ToadstoolTourSkinsMatch_mvl/mxv
 BYTE   W04
 BYTE   N06  Cn1  v102
 BYTE   VOL   74*ToadstoolTourSkinsMatch_mvl/mxv
 BYTE   W04
 BYTE   VOL   74*ToadstoolTourSkinsMatch_mvl/mxv
 BYTE   W04
 BYTE   VOL   74*ToadstoolTourSkinsMatch_mvl/mxv
 BYTE   W03
 BYTE   N06  Cn1  v102
 BYTE   W01
 BYTE   VOL   74*ToadstoolTourSkinsMatch_mvl/mxv
 BYTE   W04
 BYTE   VOL   74*ToadstoolTourSkinsMatch_mvl/mxv
 BYTE   W04
Label_01535092:
 BYTE   VOL   74*ToadstoolTourSkinsMatch_mvl/mxv
 BYTE   W02
 BYTE   N06  Dn1  v102
 BYTE   W02
 BYTE   PEND 
//  #10 //088   ----------------------------------------
 BYTE   PATT
  POIN2 Label_01535092
//  #10 //089   ----------------------------------------
 BYTE   VOL   74*ToadstoolTourSkinsMatch_mvl/mxv
 BYTE   W04
 BYTE   VOL   74*ToadstoolTourSkinsMatch_mvl/mxv
 BYTE   W01
 BYTE   N06  Dn1  v102
 BYTE   W03
 BYTE   VOL   74*ToadstoolTourSkinsMatch_mvl/mxv
 BYTE   W04
 BYTE   VOL   74*ToadstoolTourSkinsMatch_mvl/mxv
 BYTE   W04
 BYTE   VOL   74*ToadstoolTourSkinsMatch_mvl/mxv
 BYTE   N06  Cn1  v102
 BYTE   W03
 BYTE   VOL   74*ToadstoolTourSkinsMatch_mvl/mxv
 BYTE   W04
 BYTE   VOL   74*ToadstoolTourSkinsMatch_mvl/mxv
 BYTE   W03
 BYTE   N06  Cn1  v102
 BYTE   VOL   74*ToadstoolTourSkinsMatch_mvl/mxv
 BYTE   W04
 BYTE   VOL   74*ToadstoolTourSkinsMatch_mvl/mxv
 BYTE   W04
 BYTE   VOL   74*ToadstoolTourSkinsMatch_mvl/mxv
 BYTE   W02
 BYTE   N06  Cn1  v102
 BYTE   W01
 BYTE   VOL   74*ToadstoolTourSkinsMatch_mvl/mxv
 BYTE   W04
 BYTE   VOL   74*ToadstoolTourSkinsMatch_mvl/mxv
 BYTE   W04
 BYTE   VOL   74*ToadstoolTourSkinsMatch_mvl/mxv
 BYTE   W01
 BYTE   N06  Cn1  v102
 BYTE   W02
 BYTE   VOL   74*ToadstoolTourSkinsMatch_mvl/mxv
 BYTE   W04
 BYTE   VOL   74*ToadstoolTourSkinsMatch_mvl/mxv
 BYTE   W04
 BYTE   VOL   74*ToadstoolTourSkinsMatch_mvl/mxv
 BYTE   N06  Bn1  v102
 BYTE   N06  Cn2
 BYTE   W03
 BYTE   VOL   74*ToadstoolTourSkinsMatch_mvl/mxv
 BYTE   W02
 BYTE   N06  Bn1  v102
 BYTE   N06  An1
 BYTE   N06  Cn2
 BYTE   W01
 BYTE   VOL   74*ToadstoolTourSkinsMatch_mvl/mxv
 BYTE   W04
 BYTE   VOL   74*ToadstoolTourSkinsMatch_mvl/mxv
 BYTE   N06  An1  v102
 BYTE   N06  Bn1
 BYTE   W04
 BYTE   VOL   74*ToadstoolTourSkinsMatch_mvl/mxv
 BYTE   W01
 BYTE   N06  Bn1  v102
 BYTE   N06  An1
 BYTE   N06  Gn1
 BYTE   W02
 BYTE   VOL   74*ToadstoolTourSkinsMatch_mvl/mxv
 BYTE   W03
 BYTE   N06  Gn1  v102
 BYTE   N06  An1
 BYTE   VOL   74*ToadstoolTourSkinsMatch_mvl/mxv
 BYTE   W04
 BYTE   VOL   74*ToadstoolTourSkinsMatch_mvl/mxv
 BYTE   N06  An1  v102
 BYTE   N06  Gn1
 BYTE   W03
 BYTE   VOL   74*ToadstoolTourSkinsMatch_mvl/mxv
 BYTE   W02
 BYTE   N06  Fn1  v102
 BYTE   N06  Gn1
 BYTE   N06  Dn1
 BYTE   W01
 BYTE   VOL   74*ToadstoolTourSkinsMatch_mvl/mxv
 BYTE   W04
 BYTE   N06  Dn1  v102
 BYTE   N06  Fn1
 BYTE   VOL   74*ToadstoolTourSkinsMatch_mvl/mxv
 BYTE   W05
 BYTE   FINE

//******************************************************//
	ALIGN 4

ToadstoolTourSkinsMatch:
	BYTE	10	// NumTrks
	BYTE	0	// NumBlks
	BYTE	ToadstoolTourSkinsMatch_pri	// Priority
	BYTE	ToadstoolTourSkinsMatch_rev	// Reverb.
    
	POIN2	ToadstoolTourSkinsMatch_grp
    
	POIN2	ToadstoolTourSkinsMatch_001
	POIN2	ToadstoolTourSkinsMatch_002
	POIN2	ToadstoolTourSkinsMatch_003
	POIN2	ToadstoolTourSkinsMatch_004
	POIN2	ToadstoolTourSkinsMatch_005
	POIN2	ToadstoolTourSkinsMatch_006
	POIN2	ToadstoolTourSkinsMatch_007
	POIN2	ToadstoolTourSkinsMatch_008
	POIN2	ToadstoolTourSkinsMatch_009
	POIN2	ToadstoolTourSkinsMatch_010

	
