//Event file generated from Sappy .s format.
	

	#define	VoicesOfTheTemple_grp  voicegroup000
	#define	VoicesOfTheTemple_pri  0
	#define	VoicesOfTheTemple_rev  0
	#define	VoicesOfTheTemple_mvl  127
	#define	VoicesOfTheTemple_key  0
	#define	VoicesOfTheTemple_tbs  1
	#define	VoicesOfTheTemple_exg  0
	#define	VoicesOfTheTemple_cmp  1

	// .rodata
	//	VoicesOfTheTemple
	ALIGN 4


//**************** Track 1 (Midi-Chn.0) ****************//

VoicesOfTheTemple_001:
//  #01 //000   ----------------------------------------
 BYTE   KEYSH   VoicesOfTheTemple_key+0
Label_54D75A:
 BYTE   TEMPO   60*VoicesOfTheTemple_tbs/2
 BYTE   VOICE   49
 BYTE   VOL   60*VoicesOfTheTemple_mvl/mxv
 BYTE   PAN   c_v+0
 BYTE   VOL   37*VoicesOfTheTemple_mvl/mxv
 BYTE   N96  Cn1  v127
 BYTE   N96  Gn1
 BYTE   N96  Gn2
 BYTE   W96
//  #01 //001   ----------------------------------------
Label_54D76C:
 BYTE   N96  Cs1  v127
 BYTE   N96  Gs1
 BYTE   N96  Gs2
 BYTE   W96
 BYTE   PEND 
//  #01 //002   ----------------------------------------
Label_54D775:
 BYTE   N96  Cn1  v127
 BYTE   N96  Gn1
 BYTE   N96  Gn2
 BYTE   W96
 BYTE   PEND 
//  #01 //003   ----------------------------------------
 BYTE   PATT
  POIN2 Label_54D76C
//  #01 //004   ----------------------------------------
 BYTE   PATT
  POIN2 Label_54D775
//  #01 //005   ----------------------------------------
 BYTE   PATT
  POIN2 Label_54D76C
//  #01 //006   ----------------------------------------
 BYTE   PATT
  POIN2 Label_54D775
//  #01 //007   ----------------------------------------
 BYTE   PATT
  POIN2 Label_54D76C
//  #01 //008   ----------------------------------------
Label_54D797:
 BYTE   N96  Cs1  v127
 BYTE   N96  As1
 BYTE   N96  As2
 BYTE   W96
 BYTE   PEND 
//  #01 //009   ----------------------------------------
Label_54D7A0:
 BYTE   N96  Bn0  v127
 BYTE   N96  Bn1
 BYTE   N96  Bn2
 BYTE   W96
 BYTE   PEND 
//  #01 //010   ----------------------------------------
Label_54D7A9:
 BYTE   TIE  Cn1  v127
 BYTE   TIE  Cn2
 BYTE   TIE  Cn3
 BYTE   W96
 BYTE   PEND 
//  #01 //011   ----------------------------------------
 BYTE   W96
//  #01 //012   ----------------------------------------
 BYTE   W96
//  #01 //013   ----------------------------------------
 BYTE   W96
//  #01 //014   ----------------------------------------
 BYTE   EOT
 BYTE   Cn1  v048
 BYTE   Cn3
Label_54D7B9:
 BYTE   TIE  Gs1  v127
 BYTE   TIE  Cs2
 BYTE   TIE  Gs2
 BYTE   W96
 BYTE   PEND 
//  #01 //015   ----------------------------------------
 BYTE   W36
 BYTE   W02
 BYTE   EOT
 BYTE   Cs2
 BYTE   W04
 BYTE   N54  Cn2
 BYTE   W54
//  #01 //016   ----------------------------------------
 BYTE   EOT
 BYTE   Gs1  v056
Label_54D7CD:
 BYTE   N96  Gs1  v127
 BYTE   N36  Cs2
 BYTE   N96  Gs2
 BYTE   W42
 BYTE   N54  Cn2
 BYTE   W54
 BYTE   PEND 
//  #01 //017   ----------------------------------------
Label_54D7D9:
 BYTE   N96  An1  v127
 BYTE   N48  Dn2
 BYTE   N96  An2
 BYTE   W48
 BYTE   N48  Cs2
 BYTE   W48
 BYTE   PEND 
//  #01 //018   ----------------------------------------
Label_54D7E5:
 BYTE   TIE  An1  v127
 BYTE   N96  Dn2
 BYTE   TIE  An2
 BYTE   W96
 BYTE   PEND 
//  #01 //019   ----------------------------------------
 BYTE   N96  Cs2
 BYTE   W96
//  #01 //020   ----------------------------------------
 BYTE   EOT
 BYTE   An1  v057
Label_54D7F4:
 BYTE   N48  Gn1  v127
 BYTE   N48  Cn2
 BYTE   N48  Gn2
 BYTE   W48
 BYTE   Dn1
 BYTE   N48  Gn1
 BYTE   N48  Dn2
 BYTE   W48
 BYTE   PEND 
//  #01 //021   ----------------------------------------
Label_54D803:
 BYTE   TIE  Cn1  v127
 BYTE   TIE  Cn2
 BYTE   W96
 BYTE   PEND 
//  #01 //022   ----------------------------------------
 BYTE   W96
//  #01 //023   ----------------------------------------
 BYTE   W96
//  #01 //024   ----------------------------------------
 BYTE   EOT
 BYTE   Cn1  v048
//  #01 //025   ----------------------------------------
 BYTE   PATT
  POIN2 Label_54D775
//  #01 //026   ----------------------------------------
 BYTE   PATT
  POIN2 Label_54D76C
//  #01 //027   ----------------------------------------
 BYTE   PATT
  POIN2 Label_54D775
//  #01 //028   ----------------------------------------
 BYTE   PATT
  POIN2 Label_54D76C
//  #01 //029   ----------------------------------------
 BYTE   PATT
  POIN2 Label_54D797
//  #01 //030   ----------------------------------------
 BYTE   PATT
  POIN2 Label_54D7A0
//  #01 //031   ----------------------------------------
 BYTE   PATT
  POIN2 Label_54D7A9
//  #01 //032   ----------------------------------------
 BYTE   W96
//  #01 //033   ----------------------------------------
 BYTE   W96
//  #01 //034   ----------------------------------------
 BYTE   W96
//  #01 //035   ----------------------------------------
 BYTE   EOT
 BYTE   Cn1  v048
 BYTE   Cn3
//  #01 //036   ----------------------------------------
 BYTE   PATT
  POIN2 Label_54D7B9
//  #01 //037   ----------------------------------------
 BYTE   W36
 BYTE   W02
 BYTE   EOT
 BYTE   Cs2
 BYTE   W04
 BYTE   N54  Cn2  v127
 BYTE   W54
//  #01 //038   ----------------------------------------
 BYTE   EOT
 BYTE   Gs1  v056
//  #01 //039   ----------------------------------------
 BYTE   PATT
  POIN2 Label_54D7CD
//  #01 //040   ----------------------------------------
 BYTE   PATT
  POIN2 Label_54D7D9
//  #01 //041   ----------------------------------------
 BYTE   PATT
  POIN2 Label_54D7E5
//  #01 //042   ----------------------------------------
 BYTE   N96  Cs2  v127
 BYTE   W96
//  #01 //043   ----------------------------------------
 BYTE   EOT
 BYTE   An1  v057
//  #01 //044   ----------------------------------------
 BYTE   PATT
  POIN2 Label_54D7F4
//  #01 //045   ----------------------------------------
 BYTE   PATT
  POIN2 Label_54D803
//  #01 //046   ----------------------------------------
 BYTE   W96
//  #01 //047   ----------------------------------------
 BYTE   W03
 BYTE   GoTo
  POIN2 Label_54D75A
//  #01 //048   ----------------------------------------
 BYTE   W92
 BYTE   W01
 BYTE   EOT
 BYTE   Cn1  v048
 BYTE   N96  Cn1  v127
 BYTE   N96  Gn1
 BYTE   N96  Gn2
 BYTE   W04
//  #01 //049   ----------------------------------------
 BYTE   VOL   37*VoicesOfTheTemple_mvl/mxv
 BYTE   W04
 BYTE   VOL   56*VoicesOfTheTemple_mvl/mxv
 BYTE   W04
 BYTE   VOL   56*VoicesOfTheTemple_mvl/mxv
 BYTE   W04
 BYTE   VOL   55*VoicesOfTheTemple_mvl/mxv
 BYTE   W04
 BYTE   VOL   54*VoicesOfTheTemple_mvl/mxv
 BYTE   W05
 BYTE   VOL   54*VoicesOfTheTemple_mvl/mxv
 BYTE   W04
 BYTE   VOL   53*VoicesOfTheTemple_mvl/mxv
 BYTE   W04
 BYTE   VOL   52*VoicesOfTheTemple_mvl/mxv
 BYTE   W04
 BYTE   VOL   52*VoicesOfTheTemple_mvl/mxv
 BYTE   W04
 BYTE   VOL   51*VoicesOfTheTemple_mvl/mxv
 BYTE   W04
 BYTE   VOL   51*VoicesOfTheTemple_mvl/mxv
 BYTE   W05
 BYTE   VOL   50*VoicesOfTheTemple_mvl/mxv
 BYTE   W04
 BYTE   VOL   49*VoicesOfTheTemple_mvl/mxv
 BYTE   W04
 BYTE   VOL   49*VoicesOfTheTemple_mvl/mxv
 BYTE   W04
 BYTE   VOL   48*VoicesOfTheTemple_mvl/mxv
 BYTE   W04
 BYTE   VOL   47*VoicesOfTheTemple_mvl/mxv
 BYTE   W04
 BYTE   VOL   47*VoicesOfTheTemple_mvl/mxv
 BYTE   W05
 BYTE   VOL   46*VoicesOfTheTemple_mvl/mxv
 BYTE   W04
 BYTE   VOL   45*VoicesOfTheTemple_mvl/mxv
 BYTE   W04
 BYTE   VOL   45*VoicesOfTheTemple_mvl/mxv
 BYTE   W04
 BYTE   VOL   44*VoicesOfTheTemple_mvl/mxv
 BYTE   W04
 BYTE   VOL   44*VoicesOfTheTemple_mvl/mxv
 BYTE   W04
 BYTE   VOL   43*VoicesOfTheTemple_mvl/mxv
 BYTE   W01
 BYTE   N96  Cs1
 BYTE   N96  Gs1
 BYTE   N96  Gs2
 BYTE   W04
//  #01 //050   ----------------------------------------
 BYTE   VOL   22*VoicesOfTheTemple_mvl/mxv
 BYTE   W04
 BYTE   VOL   42*VoicesOfTheTemple_mvl/mxv
 BYTE   W04
 BYTE   VOL   41*VoicesOfTheTemple_mvl/mxv
 BYTE   W04
 BYTE   VOL   40*VoicesOfTheTemple_mvl/mxv
 BYTE   W04
 BYTE   VOL   40*VoicesOfTheTemple_mvl/mxv
 BYTE   W05
 BYTE   VOL   39*VoicesOfTheTemple_mvl/mxv
 BYTE   W04
 BYTE   VOL   39*VoicesOfTheTemple_mvl/mxv
 BYTE   W04
 BYTE   VOL   38*VoicesOfTheTemple_mvl/mxv
 BYTE   W04
 BYTE   VOL   37*VoicesOfTheTemple_mvl/mxv
 BYTE   W04
 BYTE   VOL   37*VoicesOfTheTemple_mvl/mxv
 BYTE   W04
 BYTE   VOL   36*VoicesOfTheTemple_mvl/mxv
 BYTE   W05
 BYTE   VOL   35*VoicesOfTheTemple_mvl/mxv
 BYTE   W04
 BYTE   VOL   35*VoicesOfTheTemple_mvl/mxv
 BYTE   W04
 BYTE   VOL   34*VoicesOfTheTemple_mvl/mxv
 BYTE   W04
 BYTE   VOL   34*VoicesOfTheTemple_mvl/mxv
 BYTE   W04
 BYTE   VOL   33*VoicesOfTheTemple_mvl/mxv
 BYTE   W04
 BYTE   VOL   32*VoicesOfTheTemple_mvl/mxv
 BYTE   W05
 BYTE   VOL   32*VoicesOfTheTemple_mvl/mxv
 BYTE   W04
 BYTE   VOL   31*VoicesOfTheTemple_mvl/mxv
 BYTE   W04
 BYTE   VOL   30*VoicesOfTheTemple_mvl/mxv
 BYTE   W04
 BYTE   VOL   30*VoicesOfTheTemple_mvl/mxv
 BYTE   W04
 BYTE   VOL   29*VoicesOfTheTemple_mvl/mxv
 BYTE   W04
 BYTE   VOL   28*VoicesOfTheTemple_mvl/mxv
 BYTE   W01
 BYTE   N96  Cn1
 BYTE   N96  Gn1
 BYTE   N96  Gn2
 BYTE   W04
//  #01 //051   ----------------------------------------
 BYTE   VOL   8*VoicesOfTheTemple_mvl/mxv
 BYTE   W04
 BYTE   VOL   27*VoicesOfTheTemple_mvl/mxv
 BYTE   W04
 BYTE   VOL   27*VoicesOfTheTemple_mvl/mxv
 BYTE   W04
 BYTE   VOL   26*VoicesOfTheTemple_mvl/mxv
 BYTE   W04
 BYTE   VOL   25*VoicesOfTheTemple_mvl/mxv
 BYTE   W05
 BYTE   VOL   25*VoicesOfTheTemple_mvl/mxv
 BYTE   W04
 BYTE   VOL   24*VoicesOfTheTemple_mvl/mxv
 BYTE   W04
 BYTE   VOL   23*VoicesOfTheTemple_mvl/mxv
 BYTE   W04
 BYTE   VOL   23*VoicesOfTheTemple_mvl/mxv
 BYTE   W04
 BYTE   VOL   22*VoicesOfTheTemple_mvl/mxv
 BYTE   W04
 BYTE   VOL   22*VoicesOfTheTemple_mvl/mxv
 BYTE   W05
 BYTE   VOL   21*VoicesOfTheTemple_mvl/mxv
 BYTE   W04
 BYTE   VOL   20*VoicesOfTheTemple_mvl/mxv
 BYTE   W04
 BYTE   VOL   20*VoicesOfTheTemple_mvl/mxv
 BYTE   W04
 BYTE   VOL   19*VoicesOfTheTemple_mvl/mxv
 BYTE   W04
 BYTE   VOL   18*VoicesOfTheTemple_mvl/mxv
 BYTE   W04
 BYTE   VOL   18*VoicesOfTheTemple_mvl/mxv
 BYTE   W05
 BYTE   VOL   17*VoicesOfTheTemple_mvl/mxv
 BYTE   W04
 BYTE   VOL   17*VoicesOfTheTemple_mvl/mxv
 BYTE   W04
 BYTE   VOL   16*VoicesOfTheTemple_mvl/mxv
 BYTE   W04
 BYTE   VOL   15*VoicesOfTheTemple_mvl/mxv
 BYTE   W04
 BYTE   VOL   15*VoicesOfTheTemple_mvl/mxv
 BYTE   W04
 BYTE   VOL   14*VoicesOfTheTemple_mvl/mxv
 BYTE   W01
 BYTE   N96  Cs1
 BYTE   N96  Gs1
 BYTE   N96  Gs2
 BYTE   W04
//  #01 //052   ----------------------------------------
 BYTE   VOL   0*VoicesOfTheTemple_mvl/mxv
 BYTE   W04
 BYTE   VOL   13*VoicesOfTheTemple_mvl/mxv
 BYTE   W04
 BYTE   VOL   12*VoicesOfTheTemple_mvl/mxv
 BYTE   W04
 BYTE   VOL   11*VoicesOfTheTemple_mvl/mxv
 BYTE   W04
 BYTE   VOL   11*VoicesOfTheTemple_mvl/mxv
 BYTE   W05
 BYTE   VOL   10*VoicesOfTheTemple_mvl/mxv
 BYTE   W04
 BYTE   VOL   10*VoicesOfTheTemple_mvl/mxv
 BYTE   W04
 BYTE   VOL   9*VoicesOfTheTemple_mvl/mxv
 BYTE   W04
 BYTE   VOL   8*VoicesOfTheTemple_mvl/mxv
 BYTE   W04
 BYTE   VOL   8*VoicesOfTheTemple_mvl/mxv
 BYTE   W04
 BYTE   VOL   7*VoicesOfTheTemple_mvl/mxv
 BYTE   W05
 BYTE   VOL   6*VoicesOfTheTemple_mvl/mxv
 BYTE   W04
 BYTE   VOL   6*VoicesOfTheTemple_mvl/mxv
 BYTE   W04
 BYTE   VOL   5*VoicesOfTheTemple_mvl/mxv
 BYTE   W04
 BYTE   VOL   5*VoicesOfTheTemple_mvl/mxv
 BYTE   W04
 BYTE   VOL   4*VoicesOfTheTemple_mvl/mxv
 BYTE   W04
 BYTE   VOL   3*VoicesOfTheTemple_mvl/mxv
 BYTE   W05
 BYTE   VOL   3*VoicesOfTheTemple_mvl/mxv
 BYTE   W04
 BYTE   VOL   2*VoicesOfTheTemple_mvl/mxv
 BYTE   W04
 BYTE   VOL   1*VoicesOfTheTemple_mvl/mxv
 BYTE   W04
 BYTE   VOL   1*VoicesOfTheTemple_mvl/mxv
 BYTE   W04
 BYTE   VOL   0*VoicesOfTheTemple_mvl/mxv
 BYTE   W04
 BYTE   VOL   0*VoicesOfTheTemple_mvl/mxv
 BYTE   W01
 BYTE   VOL   0*VoicesOfTheTemple_mvl/mxv
 BYTE   FINE

//**************** Track 2 (Midi-Chn.1) ****************//

VoicesOfTheTemple_002:
//  #02 //000   ----------------------------------------
 BYTE   KEYSH   VoicesOfTheTemple_key+0
Label_54EAFD:
 BYTE   VOICE   47
 BYTE   VOL   60*VoicesOfTheTemple_mvl/mxv
 BYTE   PAN   c_v+0
 BYTE   VOL   27*VoicesOfTheTemple_mvl/mxv
 BYTE   N03  Ds1  v127
 BYTE   W12
 BYTE   N03
 BYTE   W09
 BYTE   N03
 BYTE   W03
 BYTE   N03
 BYTE   W06
 BYTE   N03
 BYTE   W06
 BYTE   N03
 BYTE   W12
 BYTE   N03
 BYTE   W12
 BYTE   N03
 BYTE   W09
 BYTE   N03
 BYTE   W03
 BYTE   N03
 BYTE   W06
 BYTE   N03
 BYTE   W06
 BYTE   N03
 BYTE   W12
//  #02 //001   ----------------------------------------
Label_54EB1F:
 BYTE   N03  Ds1  v127
 BYTE   W12
 BYTE   N03
 BYTE   W09
 BYTE   N03
 BYTE   W03
 BYTE   N03
 BYTE   W06
 BYTE   N03
 BYTE   W06
 BYTE   N03
 BYTE   W12
 BYTE   N03
 BYTE   W12
 BYTE   N03
 BYTE   W09
 BYTE   N03
 BYTE   W03
 BYTE   N03
 BYTE   W06
 BYTE   N03
 BYTE   W06
 BYTE   N03
 BYTE   W12
 BYTE   PEND 
//  #02 //002   ----------------------------------------
 BYTE   PATT
  POIN2 Label_54EB1F
//  #02 //003   ----------------------------------------
 BYTE   PATT
  POIN2 Label_54EB1F
//  #02 //004   ----------------------------------------
 BYTE   PATT
  POIN2 Label_54EB1F
//  #02 //005   ----------------------------------------
 BYTE   PATT
  POIN2 Label_54EB1F
//  #02 //006   ----------------------------------------
 BYTE   PATT
  POIN2 Label_54EB1F
//  #02 //007   ----------------------------------------
 BYTE   PATT
  POIN2 Label_54EB1F
//  #02 //008   ----------------------------------------
 BYTE   PATT
  POIN2 Label_54EB1F
//  #02 //009   ----------------------------------------
 BYTE   PATT
  POIN2 Label_54EB1F
//  #02 //010   ----------------------------------------
 BYTE   PATT
  POIN2 Label_54EB1F
//  #02 //011   ----------------------------------------
 BYTE   PATT
  POIN2 Label_54EB1F
//  #02 //012   ----------------------------------------
 BYTE   PATT
  POIN2 Label_54EB1F
//  #02 //013   ----------------------------------------
 BYTE   PATT
  POIN2 Label_54EB1F
//  #02 //014   ----------------------------------------
 BYTE   PATT
  POIN2 Label_54EB1F
//  #02 //015   ----------------------------------------
 BYTE   PATT
  POIN2 Label_54EB1F
//  #02 //016   ----------------------------------------
 BYTE   PATT
  POIN2 Label_54EB1F
//  #02 //017   ----------------------------------------
 BYTE   PATT
  POIN2 Label_54EB1F
//  #02 //018   ----------------------------------------
 BYTE   PATT
  POIN2 Label_54EB1F
//  #02 //019   ----------------------------------------
 BYTE   PATT
  POIN2 Label_54EB1F
//  #02 //020   ----------------------------------------
 BYTE   PATT
  POIN2 Label_54EB1F
//  #02 //021   ----------------------------------------
 BYTE   PATT
  POIN2 Label_54EB1F
//  #02 //022   ----------------------------------------
 BYTE   PATT
  POIN2 Label_54EB1F
//  #02 //023   ----------------------------------------
 BYTE   PATT
  POIN2 Label_54EB1F
//  #02 //024   ----------------------------------------
 BYTE   PATT
  POIN2 Label_54EB1F
//  #02 //025   ----------------------------------------
 BYTE   PATT
  POIN2 Label_54EB1F
//  #02 //026   ----------------------------------------
 BYTE   PATT
  POIN2 Label_54EB1F
//  #02 //027   ----------------------------------------
 BYTE   PATT
  POIN2 Label_54EB1F
//  #02 //028   ----------------------------------------
 BYTE   PATT
  POIN2 Label_54EB1F
//  #02 //029   ----------------------------------------
 BYTE   PATT
  POIN2 Label_54EB1F
//  #02 //030   ----------------------------------------
 BYTE   PATT
  POIN2 Label_54EB1F
//  #02 //031   ----------------------------------------
 BYTE   PATT
  POIN2 Label_54EB1F
//  #02 //032   ----------------------------------------
 BYTE   PATT
  POIN2 Label_54EB1F
//  #02 //033   ----------------------------------------
 BYTE   PATT
  POIN2 Label_54EB1F
//  #02 //034   ----------------------------------------
 BYTE   PATT
  POIN2 Label_54EB1F
//  #02 //035   ----------------------------------------
 BYTE   PATT
  POIN2 Label_54EB1F
//  #02 //036   ----------------------------------------
 BYTE   PATT
  POIN2 Label_54EB1F
//  #02 //037   ----------------------------------------
 BYTE   PATT
  POIN2 Label_54EB1F
//  #02 //038   ----------------------------------------
 BYTE   PATT
  POIN2 Label_54EB1F
//  #02 //039   ----------------------------------------
 BYTE   PATT
  POIN2 Label_54EB1F
//  #02 //040   ----------------------------------------
 BYTE   PATT
  POIN2 Label_54EB1F
//  #02 //041   ----------------------------------------
 BYTE   PATT
  POIN2 Label_54EB1F
//  #02 //042   ----------------------------------------
 BYTE   PATT
  POIN2 Label_54EB1F
//  #02 //043   ----------------------------------------
 BYTE   N03  Ds1  v127
 BYTE   W03
 BYTE   GoTo
  POIN2 Label_54EAFD
//  #02 //044   ----------------------------------------
 BYTE   W09
 BYTE   N03  Ds1  v127
 BYTE   W09
 BYTE   N03
 BYTE   W03
 BYTE   N03
 BYTE   W06
 BYTE   N03
 BYTE   W06
 BYTE   N03
 BYTE   W12
 BYTE   N03
 BYTE   W12
 BYTE   N03
 BYTE   W09
 BYTE   N03
 BYTE   W03
 BYTE   N03
 BYTE   W06
 BYTE   N03
 BYTE   W06
 BYTE   N03
 BYTE   W12
 BYTE   N03
 BYTE   W05
//  #02 //045   ----------------------------------------
 BYTE   VOL   26*VoicesOfTheTemple_mvl/mxv
 BYTE   W05
 BYTE   VOL   45*VoicesOfTheTemple_mvl/mxv
 BYTE   W02
 BYTE   N03
 BYTE   W03
 BYTE   VOL   25*VoicesOfTheTemple_mvl/mxv
 BYTE   W05
 BYTE   VOL   44*VoicesOfTheTemple_mvl/mxv
 BYTE   W01
 BYTE   N03
 BYTE   W03
 BYTE   N03
 BYTE   W01
 BYTE   VOL   24*VoicesOfTheTemple_mvl/mxv
 BYTE   W05
 BYTE   VOL   43*VoicesOfTheTemple_mvl/mxv
 BYTE   N03
 BYTE   W05
 BYTE   VOL   22*VoicesOfTheTemple_mvl/mxv
 BYTE   W01
 BYTE   N03
 BYTE   W04
 BYTE   VOL   22*VoicesOfTheTemple_mvl/mxv
 BYTE   W06
 BYTE   VOL   41*VoicesOfTheTemple_mvl/mxv
 BYTE   W02
 BYTE   N03
 BYTE   W03
 BYTE   VOL   20*VoicesOfTheTemple_mvl/mxv
 BYTE   W05
 BYTE   VOL   40*VoicesOfTheTemple_mvl/mxv
 BYTE   W04
 BYTE   N03
 BYTE   W01
 BYTE   VOL   19*VoicesOfTheTemple_mvl/mxv
 BYTE   W05
 BYTE   VOL   39*VoicesOfTheTemple_mvl/mxv
 BYTE   W03
 BYTE   N03
 BYTE   W02
 BYTE   VOL   18*VoicesOfTheTemple_mvl/mxv
 BYTE   W01
 BYTE   N03
 BYTE   W04
 BYTE   VOL   17*VoicesOfTheTemple_mvl/mxv
 BYTE   W02
 BYTE   N03
 BYTE   W03
 BYTE   VOL   17*VoicesOfTheTemple_mvl/mxv
 BYTE   W03
 BYTE   N03
 BYTE   W03
 BYTE   VOL   16*VoicesOfTheTemple_mvl/mxv
 BYTE   W05
 BYTE   VOL   35*VoicesOfTheTemple_mvl/mxv
 BYTE   W04
 BYTE   N03
 BYTE   W01
 BYTE   VOL   15*VoicesOfTheTemple_mvl/mxv
 BYTE   W05
//  #02 //046   ----------------------------------------
 BYTE   VOL   34*VoicesOfTheTemple_mvl/mxv
 BYTE   W05
 BYTE   VOL   34*VoicesOfTheTemple_mvl/mxv
 BYTE   W01
 BYTE   N03
 BYTE   W04
 BYTE   VOL   13*VoicesOfTheTemple_mvl/mxv
 BYTE   W05
 BYTE   VOL   32*VoicesOfTheTemple_mvl/mxv
 BYTE   N03
 BYTE   W03
 BYTE   N03
 BYTE   W02
 BYTE   VOL   12*VoicesOfTheTemple_mvl/mxv
 BYTE   W04
 BYTE   N03
 BYTE   W01
 BYTE   VOL   11*VoicesOfTheTemple_mvl/mxv
 BYTE   W05
 BYTE   N03
 BYTE   W01
 BYTE   VOL   10*VoicesOfTheTemple_mvl/mxv
 BYTE   W05
 BYTE   VOL   30*VoicesOfTheTemple_mvl/mxv
 BYTE   W05
 BYTE   VOL   29*VoicesOfTheTemple_mvl/mxv
 BYTE   W01
 BYTE   N03
 BYTE   W04
 BYTE   VOL   8*VoicesOfTheTemple_mvl/mxv
 BYTE   W05
 BYTE   VOL   28*VoicesOfTheTemple_mvl/mxv
 BYTE   W03
 BYTE   N03
 BYTE   W02
 BYTE   VOL   7*VoicesOfTheTemple_mvl/mxv
 BYTE   W05
 BYTE   VOL   27*VoicesOfTheTemple_mvl/mxv
 BYTE   W02
 BYTE   N03
 BYTE   W03
 BYTE   VOL   6*VoicesOfTheTemple_mvl/mxv
 BYTE   N03
 BYTE   W06
 BYTE   VOL   5*VoicesOfTheTemple_mvl/mxv
 BYTE   N03
 BYTE   W05
 BYTE   VOL   5*VoicesOfTheTemple_mvl/mxv
 BYTE   W01
 BYTE   N03
 BYTE   W04
 BYTE   VOL   4*VoicesOfTheTemple_mvl/mxv
 BYTE   W05
 BYTE   VOL   23*VoicesOfTheTemple_mvl/mxv
 BYTE   W03
 BYTE   N03
 BYTE   W02
 BYTE   VOL   3*VoicesOfTheTemple_mvl/mxv
 BYTE   W05
//  #02 //047   ----------------------------------------
 BYTE   VOL   22*VoicesOfTheTemple_mvl/mxv
 BYTE   W05
 BYTE   VOL   22*VoicesOfTheTemple_mvl/mxv
 BYTE   N03
 BYTE   W05
 BYTE   VOL   1*VoicesOfTheTemple_mvl/mxv
 BYTE   W04
 BYTE   N03
 BYTE   W02
 BYTE   VOL   0*VoicesOfTheTemple_mvl/mxv
 BYTE   W01
 BYTE   N03
 BYTE   W04
 BYTE   VOL   0*VoicesOfTheTemple_mvl/mxv
 BYTE   W02
 BYTE   N03
 BYTE   W03
 BYTE   VOL   0*VoicesOfTheTemple_mvl/mxv
 BYTE   W03
 BYTE   N03
 BYTE   W02
 BYTE   VOL   0*VoicesOfTheTemple_mvl/mxv
 BYTE   W05
 BYTE   VOL   18*VoicesOfTheTemple_mvl/mxv
 BYTE   W05
 BYTE   VOL   17*VoicesOfTheTemple_mvl/mxv
 BYTE   N03
 BYTE   W05
 BYTE   VOL   0*VoicesOfTheTemple_mvl/mxv
 BYTE   W05
 BYTE   VOL   16*VoicesOfTheTemple_mvl/mxv
 BYTE   W02
 BYTE   N03
 BYTE   W03
 BYTE   VOL   0*VoicesOfTheTemple_mvl/mxv
 BYTE   W06
 BYTE   VOL   15*VoicesOfTheTemple_mvl/mxv
 BYTE   N03
 BYTE   W03
 BYTE   N03
 BYTE   W02
 BYTE   VOL   0*VoicesOfTheTemple_mvl/mxv
 BYTE   W04
 BYTE   N03
 BYTE   W01
 BYTE   VOL   0*VoicesOfTheTemple_mvl/mxv
 BYTE   W05
 BYTE   VOL   13*VoicesOfTheTemple_mvl/mxv
 BYTE   N03
 BYTE   W05
 BYTE   VOL   0*VoicesOfTheTemple_mvl/mxv
 BYTE   W05
 BYTE   VOL   11*VoicesOfTheTemple_mvl/mxv
 BYTE   W02
 BYTE   N03
 BYTE   W03
 BYTE   VOL   0*VoicesOfTheTemple_mvl/mxv
 BYTE   W05
//  #02 //048   ----------------------------------------
 BYTE   VOL   10*VoicesOfTheTemple_mvl/mxv
 BYTE   W04
 BYTE   N03
 BYTE   W02
 BYTE   VOL   0*VoicesOfTheTemple_mvl/mxv
 BYTE   W05
 BYTE   VOL   9*VoicesOfTheTemple_mvl/mxv
 BYTE   W02
 BYTE   N03
 BYTE   W03
 BYTE   VOL   0*VoicesOfTheTemple_mvl/mxv
 BYTE   N03
 BYTE   W05
 BYTE   VOL   0*VoicesOfTheTemple_mvl/mxv
 BYTE   W01
 BYTE   N03
 BYTE   W04
 BYTE   VOL   0*VoicesOfTheTemple_mvl/mxv
 BYTE   W02
 BYTE   N03
 BYTE   W03
 BYTE   VOL   0*VoicesOfTheTemple_mvl/mxv
 BYTE   W05
 BYTE   VOL   6*VoicesOfTheTemple_mvl/mxv
 BYTE   W04
 BYTE   N03
 BYTE   W01
 BYTE   VOL   0*VoicesOfTheTemple_mvl/mxv
 BYTE   W06
 BYTE   VOL   5*VoicesOfTheTemple_mvl/mxv
 BYTE   W05
 BYTE   VOL   4*VoicesOfTheTemple_mvl/mxv
 BYTE   N03
 BYTE   W05
 BYTE   VOL   0*VoicesOfTheTemple_mvl/mxv
 BYTE   W04
 BYTE   N03
 BYTE   W01
 BYTE   VOL   0*VoicesOfTheTemple_mvl/mxv
 BYTE   W02
 BYTE   N03
 BYTE   W03
 BYTE   VOL   0*VoicesOfTheTemple_mvl/mxv
 BYTE   W03
 BYTE   N03
 BYTE   W02
 BYTE   VOL   0*VoicesOfTheTemple_mvl/mxv
 BYTE   W04
 BYTE   N03
 BYTE   W01
 BYTE   VOL   0*VoicesOfTheTemple_mvl/mxv
 BYTE   W05
 BYTE   VOL   0*VoicesOfTheTemple_mvl/mxv
 BYTE   W05
 BYTE   VOL   0*VoicesOfTheTemple_mvl/mxv
 BYTE   W01
 BYTE   VOL   0*VoicesOfTheTemple_mvl/mxv
 BYTE   FINE

//**************** Track 3 (Midi-Chn.2) ****************//

VoicesOfTheTemple_003:
//  #03 //000   ----------------------------------------
 BYTE   KEYSH   VoicesOfTheTemple_key+0
Label_0113D992:
 BYTE   VOICE   73
 BYTE   VOL   60*VoicesOfTheTemple_mvl/mxv
 BYTE   PAN   c_v+0
 BYTE   VOL   40*VoicesOfTheTemple_mvl/mxv
 BYTE   W96
//  #03 //001   ----------------------------------------
 BYTE   W96
//  #03 //002   ----------------------------------------
 BYTE   W96
//  #03 //003   ----------------------------------------
Label_0113D99D:
 BYTE   W90
 BYTE   N03  Gn4  v127
 BYTE   W03
 BYTE   Gs4
 BYTE   W03
 BYTE   PEND 
//  #03 //004   ----------------------------------------
Label_0113D9A5:
 BYTE   N18  Gn4  v127
 BYTE   W18
 BYTE   N03  Gn3
 BYTE   W03
 BYTE   Gs3
 BYTE   W03
 BYTE   N72  Gn3
 BYTE   W01
 BYTE   VOL   39*VoicesOfTheTemple_mvl/mxv
 BYTE   W01
 BYTE   VOL   59*VoicesOfTheTemple_mvl/mxv
 BYTE   W01
 BYTE   VOL   58*VoicesOfTheTemple_mvl/mxv
 BYTE   W01
 BYTE   VOL   57*VoicesOfTheTemple_mvl/mxv
 BYTE   W01
 BYTE   VOL   57*VoicesOfTheTemple_mvl/mxv
 BYTE   W01
 BYTE   VOL   56*VoicesOfTheTemple_mvl/mxv
 BYTE   W01
 BYTE   VOL   56*VoicesOfTheTemple_mvl/mxv
 BYTE   W02
 BYTE   VOL   55*VoicesOfTheTemple_mvl/mxv
 BYTE   W01
 BYTE   VOL   54*VoicesOfTheTemple_mvl/mxv
 BYTE   W01
 BYTE   VOL   54*VoicesOfTheTemple_mvl/mxv
 BYTE   W01
 BYTE   VOL   53*VoicesOfTheTemple_mvl/mxv
 BYTE   W01
 BYTE   VOL   52*VoicesOfTheTemple_mvl/mxv
 BYTE   W01
 BYTE   VOL   52*VoicesOfTheTemple_mvl/mxv
 BYTE   W01
 BYTE   VOL   51*VoicesOfTheTemple_mvl/mxv
 BYTE   W01
 BYTE   VOL   51*VoicesOfTheTemple_mvl/mxv
 BYTE   W02
 BYTE   VOL   50*VoicesOfTheTemple_mvl/mxv
 BYTE   W01
 BYTE   VOL   49*VoicesOfTheTemple_mvl/mxv
 BYTE   W01
 BYTE   VOL   49*VoicesOfTheTemple_mvl/mxv
 BYTE   W01
 BYTE   VOL   48*VoicesOfTheTemple_mvl/mxv
 BYTE   W01
 BYTE   VOL   47*VoicesOfTheTemple_mvl/mxv
 BYTE   W01
 BYTE   VOL   47*VoicesOfTheTemple_mvl/mxv
 BYTE   W01
 BYTE   VOL   46*VoicesOfTheTemple_mvl/mxv
 BYTE   W01
 BYTE   VOL   45*VoicesOfTheTemple_mvl/mxv
 BYTE   W02
 BYTE   VOL   45*VoicesOfTheTemple_mvl/mxv
 BYTE   W01
 BYTE   VOL   44*VoicesOfTheTemple_mvl/mxv
 BYTE   W01
 BYTE   VOL   44*VoicesOfTheTemple_mvl/mxv
 BYTE   W01
 BYTE   VOL   43*VoicesOfTheTemple_mvl/mxv
 BYTE   W01
 BYTE   VOL   42*VoicesOfTheTemple_mvl/mxv
 BYTE   W01
 BYTE   VOL   42*VoicesOfTheTemple_mvl/mxv
 BYTE   W01
 BYTE   VOL   41*VoicesOfTheTemple_mvl/mxv
 BYTE   W01
 BYTE   VOL   40*VoicesOfTheTemple_mvl/mxv
 BYTE   W02
 BYTE   VOL   40*VoicesOfTheTemple_mvl/mxv
 BYTE   W01
 BYTE   VOL   39*VoicesOfTheTemple_mvl/mxv
 BYTE   W01
 BYTE   VOL   39*VoicesOfTheTemple_mvl/mxv
 BYTE   W01
 BYTE   VOL   38*VoicesOfTheTemple_mvl/mxv
 BYTE   W01
 BYTE   VOL   37*VoicesOfTheTemple_mvl/mxv
 BYTE   W01
 BYTE   VOL   37*VoicesOfTheTemple_mvl/mxv
 BYTE   W01
 BYTE   VOL   36*VoicesOfTheTemple_mvl/mxv
 BYTE   W01
 BYTE   VOL   35*VoicesOfTheTemple_mvl/mxv
 BYTE   W02
 BYTE   VOL   35*VoicesOfTheTemple_mvl/mxv
 BYTE   W01
 BYTE   VOL   34*VoicesOfTheTemple_mvl/mxv
 BYTE   W01
 BYTE   VOL   34*VoicesOfTheTemple_mvl/mxv
 BYTE   W01
 BYTE   VOL   33*VoicesOfTheTemple_mvl/mxv
 BYTE   W01
 BYTE   VOL   32*VoicesOfTheTemple_mvl/mxv
 BYTE   W01
 BYTE   VOL   32*VoicesOfTheTemple_mvl/mxv
 BYTE   W01
 BYTE   VOL   31*VoicesOfTheTemple_mvl/mxv
 BYTE   W01
 BYTE   VOL   30*VoicesOfTheTemple_mvl/mxv
 BYTE   W02
 BYTE   VOL   30*VoicesOfTheTemple_mvl/mxv
 BYTE   W01
 BYTE   VOL   29*VoicesOfTheTemple_mvl/mxv
 BYTE   W01
 BYTE   VOL   28*VoicesOfTheTemple_mvl/mxv
 BYTE   W01
 BYTE   VOL   28*VoicesOfTheTemple_mvl/mxv
 BYTE   W01
 BYTE   VOL   27*VoicesOfTheTemple_mvl/mxv
 BYTE   W01
 BYTE   VOL   27*VoicesOfTheTemple_mvl/mxv
 BYTE   W01
 BYTE   VOL   26*VoicesOfTheTemple_mvl/mxv
 BYTE   W01
 BYTE   VOL   25*VoicesOfTheTemple_mvl/mxv
 BYTE   W02
 BYTE   VOL   25*VoicesOfTheTemple_mvl/mxv
 BYTE   W01
 BYTE   VOL   24*VoicesOfTheTemple_mvl/mxv
 BYTE   W01
 BYTE   VOL   23*VoicesOfTheTemple_mvl/mxv
 BYTE   W01
 BYTE   VOL   23*VoicesOfTheTemple_mvl/mxv
 BYTE   W01
 BYTE   VOL   22*VoicesOfTheTemple_mvl/mxv
 BYTE   W01
 BYTE   VOL   22*VoicesOfTheTemple_mvl/mxv
 BYTE   W01
 BYTE   VOL   21*VoicesOfTheTemple_mvl/mxv
 BYTE   W01
 BYTE   VOL   20*VoicesOfTheTemple_mvl/mxv
 BYTE   W02
 BYTE   PEND 
//  #03 //005   ----------------------------------------
Label_0113DA31:
 BYTE   VOL   40*VoicesOfTheTemple_mvl/mxv
 BYTE   W90
 BYTE   N03  Gn4  v127
 BYTE   W03
 BYTE   Gs4
 BYTE   W03
 BYTE   PEND 
//  #03 //006   ----------------------------------------
Label_0113DA3B:
 BYTE   N06  Gn4  v127
 BYTE   W06
 BYTE   Fn4
 BYTE   W06
 BYTE   As3
 BYTE   W06
 BYTE   N24  Cn4
 BYTE   W24
 BYTE   N03  Gn3
 BYTE   W03
 BYTE   Gs3
 BYTE   W03
 BYTE   N06  Gn3
 BYTE   W06
 BYTE   Fn3
 BYTE   W06
 BYTE   As2
 BYTE   W06
 BYTE   TIE  Cn3
 BYTE   W30
 BYTE   PEND 
//  #03 //007   ----------------------------------------
Label_0113DA56:
 BYTE   W01
 BYTE   VOL   39*VoicesOfTheTemple_mvl/mxv
 BYTE   W02
 BYTE   VOL   59*VoicesOfTheTemple_mvl/mxv
 BYTE   W01
 BYTE   VOL   58*VoicesOfTheTemple_mvl/mxv
 BYTE   W02
 BYTE   VOL   57*VoicesOfTheTemple_mvl/mxv
 BYTE   W01
 BYTE   VOL   57*VoicesOfTheTemple_mvl/mxv
 BYTE   W02
 BYTE   VOL   56*VoicesOfTheTemple_mvl/mxv
 BYTE   W01
 BYTE   VOL   56*VoicesOfTheTemple_mvl/mxv
 BYTE   W02
 BYTE   VOL   55*VoicesOfTheTemple_mvl/mxv
 BYTE   W01
 BYTE   VOL   54*VoicesOfTheTemple_mvl/mxv
 BYTE   W02
 BYTE   VOL   54*VoicesOfTheTemple_mvl/mxv
 BYTE   W01
 BYTE   VOL   53*VoicesOfTheTemple_mvl/mxv
 BYTE   W02
 BYTE   VOL   52*VoicesOfTheTemple_mvl/mxv
 BYTE   W01
 BYTE   VOL   52*VoicesOfTheTemple_mvl/mxv
 BYTE   W02
 BYTE   VOL   51*VoicesOfTheTemple_mvl/mxv
 BYTE   W01
 BYTE   VOL   51*VoicesOfTheTemple_mvl/mxv
 BYTE   W02
 BYTE   VOL   50*VoicesOfTheTemple_mvl/mxv
 BYTE   W01
 BYTE   VOL   49*VoicesOfTheTemple_mvl/mxv
 BYTE   W02
 BYTE   VOL   49*VoicesOfTheTemple_mvl/mxv
 BYTE   W01
 BYTE   VOL   48*VoicesOfTheTemple_mvl/mxv
 BYTE   W02
 BYTE   VOL   47*VoicesOfTheTemple_mvl/mxv
 BYTE   W01
 BYTE   VOL   47*VoicesOfTheTemple_mvl/mxv
 BYTE   W02
 BYTE   VOL   46*VoicesOfTheTemple_mvl/mxv
 BYTE   W01
 BYTE   VOL   45*VoicesOfTheTemple_mvl/mxv
 BYTE   W02
 BYTE   VOL   45*VoicesOfTheTemple_mvl/mxv
 BYTE   W01
 BYTE   VOL   44*VoicesOfTheTemple_mvl/mxv
 BYTE   W02
 BYTE   VOL   44*VoicesOfTheTemple_mvl/mxv
 BYTE   W01
 BYTE   VOL   43*VoicesOfTheTemple_mvl/mxv
 BYTE   W02
 BYTE   VOL   42*VoicesOfTheTemple_mvl/mxv
 BYTE   W01
 BYTE   VOL   42*VoicesOfTheTemple_mvl/mxv
 BYTE   W02
 BYTE   VOL   41*VoicesOfTheTemple_mvl/mxv
 BYTE   W01
 BYTE   VOL   40*VoicesOfTheTemple_mvl/mxv
 BYTE   W02
 BYTE   VOL   40*VoicesOfTheTemple_mvl/mxv
 BYTE   W01
 BYTE   VOL   39*VoicesOfTheTemple_mvl/mxv
 BYTE   W02
 BYTE   VOL   39*VoicesOfTheTemple_mvl/mxv
 BYTE   W01
 BYTE   VOL   38*VoicesOfTheTemple_mvl/mxv
 BYTE   W02
 BYTE   VOL   37*VoicesOfTheTemple_mvl/mxv
 BYTE   W01
 BYTE   VOL   37*VoicesOfTheTemple_mvl/mxv
 BYTE   W02
 BYTE   VOL   36*VoicesOfTheTemple_mvl/mxv
 BYTE   W01
 BYTE   VOL   35*VoicesOfTheTemple_mvl/mxv
 BYTE   W02
 BYTE   VOL   35*VoicesOfTheTemple_mvl/mxv
 BYTE   W01
 BYTE   VOL   34*VoicesOfTheTemple_mvl/mxv
 BYTE   W02
 BYTE   VOL   34*VoicesOfTheTemple_mvl/mxv
 BYTE   W01
 BYTE   VOL   33*VoicesOfTheTemple_mvl/mxv
 BYTE   W02
 BYTE   VOL   32*VoicesOfTheTemple_mvl/mxv
 BYTE   W01
 BYTE   VOL   32*VoicesOfTheTemple_mvl/mxv
 BYTE   W02
 BYTE   VOL   31*VoicesOfTheTemple_mvl/mxv
 BYTE   W01
 BYTE   VOL   30*VoicesOfTheTemple_mvl/mxv
 BYTE   W02
 BYTE   VOL   30*VoicesOfTheTemple_mvl/mxv
 BYTE   W01
 BYTE   VOL   29*VoicesOfTheTemple_mvl/mxv
 BYTE   W02
 BYTE   VOL   28*VoicesOfTheTemple_mvl/mxv
 BYTE   W01
 BYTE   VOL   28*VoicesOfTheTemple_mvl/mxv
 BYTE   W02
 BYTE   VOL   27*VoicesOfTheTemple_mvl/mxv
 BYTE   W01
 BYTE   VOL   27*VoicesOfTheTemple_mvl/mxv
 BYTE   W02
 BYTE   VOL   26*VoicesOfTheTemple_mvl/mxv
 BYTE   W01
 BYTE   VOL   25*VoicesOfTheTemple_mvl/mxv
 BYTE   W02
 BYTE   VOL   25*VoicesOfTheTemple_mvl/mxv
 BYTE   W01
 BYTE   VOL   24*VoicesOfTheTemple_mvl/mxv
 BYTE   W02
 BYTE   VOL   23*VoicesOfTheTemple_mvl/mxv
 BYTE   W01
 BYTE   VOL   23*VoicesOfTheTemple_mvl/mxv
 BYTE   W02
 BYTE   VOL   22*VoicesOfTheTemple_mvl/mxv
 BYTE   W01
 BYTE   VOL   22*VoicesOfTheTemple_mvl/mxv
 BYTE   W02
 BYTE   VOL   21*VoicesOfTheTemple_mvl/mxv
 BYTE   W01
 BYTE   VOL   20*VoicesOfTheTemple_mvl/mxv
 BYTE   W02
 BYTE   PEND 
//  #03 //008   ----------------------------------------
 BYTE   EOT
 BYTE   Cn3
Label_0113DAD9:
 BYTE   VOL   0*VoicesOfTheTemple_mvl/mxv
 BYTE   W48
 BYTE   VOL   60*VoicesOfTheTemple_mvl/mxv
 BYTE   W12
 BYTE   N03  Cn4  v127
 BYTE   W03
 BYTE   As3
 BYTE   W03
 BYTE   Gn3
 BYTE   W03
 BYTE   As3
 BYTE   W03
 BYTE   N12  Cn4
 BYTE   W12
 BYTE   Ds4
 BYTE   W12
 BYTE   PEND 
//  #03 //009   ----------------------------------------
Label_0113DAEE:
 BYTE   N24  Dn4  v127
 BYTE   W24
 BYTE   As3
 BYTE   W24
 BYTE   N48  Gn3
 BYTE   W48
 BYTE   PEND 
//  #03 //010   ----------------------------------------
 BYTE   W96
//  #03 //011   ----------------------------------------
Label_0113DAF9:
 BYTE   N06  Fn3  v127
 BYTE   W06
 BYTE   N42  Gn3
 BYTE   W42
 BYTE   N06  As2
 BYTE   W06
 BYTE   N42  Cn3
 BYTE   W42
 BYTE   PEND 
//  #03 //012   ----------------------------------------
 BYTE   W96
//  #03 //013   ----------------------------------------
 BYTE   W96
//  #03 //014   ----------------------------------------
Label_0113DB09:
 BYTE   W36
 BYTE   N04  Cs4  v127
 BYTE   W04
 BYTE   En4
 BYTE   W05
 BYTE   N03  Bn3
 BYTE   W03
 BYTE   N12  Cs4
 BYTE   W12
 BYTE   N04  Fs3
 BYTE   W04
 BYTE   Gs3
 BYTE   W05
 BYTE   N03  En3
 BYTE   W03
 BYTE   N42  Cs3
 BYTE   W24
 BYTE   PEND 
//  #03 //015   ----------------------------------------
Label_0113DB22:
 BYTE   W18
 BYTE   N03  Bn3  v127
 BYTE   W03
 BYTE   Cs4
 BYTE   W03
 BYTE   N12  Bn3
 BYTE   W12
 BYTE   N06  Fs3
 BYTE   W06
 BYTE   N54  Gs3
 BYTE   W54
 BYTE   PEND 
//  #03 //016   ----------------------------------------
Label_0113DB33:
 BYTE   W90
 BYTE   N03  Fn3  v127
 BYTE   W03
 BYTE   Gn3
 BYTE   W03
 BYTE   PEND 
//  #03 //017   ----------------------------------------
Label_0113DB3B:
 BYTE   N18  An3  v127
 BYTE   W18
 BYTE   Gn3
 BYTE   W18
 BYTE   N12  As3
 BYTE   W12
 BYTE   N18  An3
 BYTE   W18
 BYTE   Gn3
 BYTE   W18
 BYTE   N12  Ds3
 BYTE   W12
 BYTE   PEND 
//  #03 //018   ----------------------------------------
Label_0113DB4D:
 BYTE   N96  Dn3  v127
 BYTE   W01
 BYTE   VOL   39*VoicesOfTheTemple_mvl/mxv
 BYTE   W02
 BYTE   VOL   59*VoicesOfTheTemple_mvl/mxv
 BYTE   W01
 BYTE   VOL   58*VoicesOfTheTemple_mvl/mxv
 BYTE   W02
 BYTE   VOL   57*VoicesOfTheTemple_mvl/mxv
 BYTE   W01
 BYTE   VOL   57*VoicesOfTheTemple_mvl/mxv
 BYTE   W02
 BYTE   VOL   56*VoicesOfTheTemple_mvl/mxv
 BYTE   W01
 BYTE   VOL   56*VoicesOfTheTemple_mvl/mxv
 BYTE   W02
 BYTE   VOL   55*VoicesOfTheTemple_mvl/mxv
 BYTE   W01
 BYTE   VOL   54*VoicesOfTheTemple_mvl/mxv
 BYTE   W02
 BYTE   VOL   54*VoicesOfTheTemple_mvl/mxv
 BYTE   W01
 BYTE   VOL   53*VoicesOfTheTemple_mvl/mxv
 BYTE   W02
 BYTE   VOL   52*VoicesOfTheTemple_mvl/mxv
 BYTE   W01
 BYTE   VOL   52*VoicesOfTheTemple_mvl/mxv
 BYTE   W02
 BYTE   VOL   51*VoicesOfTheTemple_mvl/mxv
 BYTE   W01
 BYTE   VOL   51*VoicesOfTheTemple_mvl/mxv
 BYTE   W02
 BYTE   VOL   50*VoicesOfTheTemple_mvl/mxv
 BYTE   W01
 BYTE   VOL   49*VoicesOfTheTemple_mvl/mxv
 BYTE   W02
 BYTE   VOL   49*VoicesOfTheTemple_mvl/mxv
 BYTE   W01
 BYTE   VOL   48*VoicesOfTheTemple_mvl/mxv
 BYTE   W02
 BYTE   VOL   47*VoicesOfTheTemple_mvl/mxv
 BYTE   W01
 BYTE   VOL   47*VoicesOfTheTemple_mvl/mxv
 BYTE   W02
 BYTE   VOL   46*VoicesOfTheTemple_mvl/mxv
 BYTE   W01
 BYTE   VOL   45*VoicesOfTheTemple_mvl/mxv
 BYTE   W02
 BYTE   VOL   45*VoicesOfTheTemple_mvl/mxv
 BYTE   W01
 BYTE   VOL   44*VoicesOfTheTemple_mvl/mxv
 BYTE   W02
 BYTE   VOL   44*VoicesOfTheTemple_mvl/mxv
 BYTE   W01
 BYTE   VOL   43*VoicesOfTheTemple_mvl/mxv
 BYTE   W02
 BYTE   VOL   42*VoicesOfTheTemple_mvl/mxv
 BYTE   W01
 BYTE   VOL   42*VoicesOfTheTemple_mvl/mxv
 BYTE   W02
 BYTE   VOL   41*VoicesOfTheTemple_mvl/mxv
 BYTE   W01
 BYTE   VOL   40*VoicesOfTheTemple_mvl/mxv
 BYTE   W02
 BYTE   VOL   40*VoicesOfTheTemple_mvl/mxv
 BYTE   W01
 BYTE   VOL   39*VoicesOfTheTemple_mvl/mxv
 BYTE   W02
 BYTE   VOL   39*VoicesOfTheTemple_mvl/mxv
 BYTE   W01
 BYTE   VOL   38*VoicesOfTheTemple_mvl/mxv
 BYTE   W02
 BYTE   VOL   37*VoicesOfTheTemple_mvl/mxv
 BYTE   W01
 BYTE   VOL   37*VoicesOfTheTemple_mvl/mxv
 BYTE   W02
 BYTE   VOL   36*VoicesOfTheTemple_mvl/mxv
 BYTE   W01
 BYTE   VOL   35*VoicesOfTheTemple_mvl/mxv
 BYTE   W02
 BYTE   VOL   35*VoicesOfTheTemple_mvl/mxv
 BYTE   W01
 BYTE   VOL   34*VoicesOfTheTemple_mvl/mxv
 BYTE   W02
 BYTE   VOL   34*VoicesOfTheTemple_mvl/mxv
 BYTE   W01
 BYTE   VOL   33*VoicesOfTheTemple_mvl/mxv
 BYTE   W02
 BYTE   VOL   32*VoicesOfTheTemple_mvl/mxv
 BYTE   W01
 BYTE   VOL   32*VoicesOfTheTemple_mvl/mxv
 BYTE   W02
 BYTE   VOL   31*VoicesOfTheTemple_mvl/mxv
 BYTE   W01
 BYTE   VOL   30*VoicesOfTheTemple_mvl/mxv
 BYTE   W02
 BYTE   VOL   30*VoicesOfTheTemple_mvl/mxv
 BYTE   W01
 BYTE   VOL   29*VoicesOfTheTemple_mvl/mxv
 BYTE   W02
 BYTE   VOL   28*VoicesOfTheTemple_mvl/mxv
 BYTE   W01
 BYTE   VOL   28*VoicesOfTheTemple_mvl/mxv
 BYTE   W02
 BYTE   VOL   27*VoicesOfTheTemple_mvl/mxv
 BYTE   W01
 BYTE   VOL   27*VoicesOfTheTemple_mvl/mxv
 BYTE   W02
 BYTE   VOL   26*VoicesOfTheTemple_mvl/mxv
 BYTE   W01
 BYTE   VOL   25*VoicesOfTheTemple_mvl/mxv
 BYTE   W02
 BYTE   VOL   25*VoicesOfTheTemple_mvl/mxv
 BYTE   W01
 BYTE   VOL   24*VoicesOfTheTemple_mvl/mxv
 BYTE   W02
 BYTE   VOL   23*VoicesOfTheTemple_mvl/mxv
 BYTE   W01
 BYTE   VOL   23*VoicesOfTheTemple_mvl/mxv
 BYTE   W02
 BYTE   VOL   22*VoicesOfTheTemple_mvl/mxv
 BYTE   W01
 BYTE   VOL   22*VoicesOfTheTemple_mvl/mxv
 BYTE   W02
 BYTE   VOL   21*VoicesOfTheTemple_mvl/mxv
 BYTE   W01
 BYTE   VOL   20*VoicesOfTheTemple_mvl/mxv
 BYTE   W02
 BYTE   PEND 
//  #03 //019   ----------------------------------------
Label_0113DBD1:
 BYTE   VOL   40*VoicesOfTheTemple_mvl/mxv
 BYTE   N96  Cs3  v127
 BYTE   W01
 BYTE   VOL   39*VoicesOfTheTemple_mvl/mxv
 BYTE   W02
 BYTE   VOL   59*VoicesOfTheTemple_mvl/mxv
 BYTE   W01
 BYTE   VOL   58*VoicesOfTheTemple_mvl/mxv
 BYTE   W02
 BYTE   VOL   57*VoicesOfTheTemple_mvl/mxv
 BYTE   W01
 BYTE   VOL   57*VoicesOfTheTemple_mvl/mxv
 BYTE   W02
 BYTE   VOL   56*VoicesOfTheTemple_mvl/mxv
 BYTE   W01
 BYTE   VOL   56*VoicesOfTheTemple_mvl/mxv
 BYTE   W02
 BYTE   VOL   55*VoicesOfTheTemple_mvl/mxv
 BYTE   W01
 BYTE   VOL   54*VoicesOfTheTemple_mvl/mxv
 BYTE   W02
 BYTE   VOL   54*VoicesOfTheTemple_mvl/mxv
 BYTE   W01
 BYTE   VOL   53*VoicesOfTheTemple_mvl/mxv
 BYTE   W02
 BYTE   VOL   52*VoicesOfTheTemple_mvl/mxv
 BYTE   W01
 BYTE   VOL   52*VoicesOfTheTemple_mvl/mxv
 BYTE   W02
 BYTE   VOL   51*VoicesOfTheTemple_mvl/mxv
 BYTE   W01
 BYTE   VOL   51*VoicesOfTheTemple_mvl/mxv
 BYTE   W02
 BYTE   VOL   50*VoicesOfTheTemple_mvl/mxv
 BYTE   W01
 BYTE   VOL   49*VoicesOfTheTemple_mvl/mxv
 BYTE   W02
 BYTE   VOL   49*VoicesOfTheTemple_mvl/mxv
 BYTE   W01
 BYTE   VOL   48*VoicesOfTheTemple_mvl/mxv
 BYTE   W02
 BYTE   VOL   47*VoicesOfTheTemple_mvl/mxv
 BYTE   W01
 BYTE   VOL   47*VoicesOfTheTemple_mvl/mxv
 BYTE   W02
 BYTE   VOL   46*VoicesOfTheTemple_mvl/mxv
 BYTE   W01
 BYTE   VOL   45*VoicesOfTheTemple_mvl/mxv
 BYTE   W02
 BYTE   VOL   45*VoicesOfTheTemple_mvl/mxv
 BYTE   W01
 BYTE   VOL   44*VoicesOfTheTemple_mvl/mxv
 BYTE   W02
 BYTE   VOL   44*VoicesOfTheTemple_mvl/mxv
 BYTE   W01
 BYTE   VOL   43*VoicesOfTheTemple_mvl/mxv
 BYTE   W02
 BYTE   VOL   42*VoicesOfTheTemple_mvl/mxv
 BYTE   W01
 BYTE   VOL   42*VoicesOfTheTemple_mvl/mxv
 BYTE   W02
 BYTE   VOL   41*VoicesOfTheTemple_mvl/mxv
 BYTE   W01
 BYTE   VOL   40*VoicesOfTheTemple_mvl/mxv
 BYTE   W02
 BYTE   VOL   40*VoicesOfTheTemple_mvl/mxv
 BYTE   W01
 BYTE   VOL   39*VoicesOfTheTemple_mvl/mxv
 BYTE   W02
 BYTE   VOL   39*VoicesOfTheTemple_mvl/mxv
 BYTE   W01
 BYTE   VOL   38*VoicesOfTheTemple_mvl/mxv
 BYTE   W02
 BYTE   VOL   37*VoicesOfTheTemple_mvl/mxv
 BYTE   W01
 BYTE   VOL   37*VoicesOfTheTemple_mvl/mxv
 BYTE   W02
 BYTE   VOL   36*VoicesOfTheTemple_mvl/mxv
 BYTE   W01
 BYTE   VOL   35*VoicesOfTheTemple_mvl/mxv
 BYTE   W02
 BYTE   VOL   35*VoicesOfTheTemple_mvl/mxv
 BYTE   W01
 BYTE   VOL   34*VoicesOfTheTemple_mvl/mxv
 BYTE   W02
 BYTE   VOL   34*VoicesOfTheTemple_mvl/mxv
 BYTE   W01
 BYTE   VOL   33*VoicesOfTheTemple_mvl/mxv
 BYTE   W02
 BYTE   VOL   32*VoicesOfTheTemple_mvl/mxv
 BYTE   W01
 BYTE   VOL   32*VoicesOfTheTemple_mvl/mxv
 BYTE   W02
 BYTE   VOL   31*VoicesOfTheTemple_mvl/mxv
 BYTE   W01
 BYTE   VOL   30*VoicesOfTheTemple_mvl/mxv
 BYTE   W02
 BYTE   VOL   30*VoicesOfTheTemple_mvl/mxv
 BYTE   W01
 BYTE   VOL   29*VoicesOfTheTemple_mvl/mxv
 BYTE   W02
 BYTE   VOL   28*VoicesOfTheTemple_mvl/mxv
 BYTE   W01
 BYTE   VOL   28*VoicesOfTheTemple_mvl/mxv
 BYTE   W02
 BYTE   VOL   27*VoicesOfTheTemple_mvl/mxv
 BYTE   W01
 BYTE   VOL   27*VoicesOfTheTemple_mvl/mxv
 BYTE   W02
 BYTE   VOL   26*VoicesOfTheTemple_mvl/mxv
 BYTE   W01
 BYTE   VOL   25*VoicesOfTheTemple_mvl/mxv
 BYTE   W02
 BYTE   VOL   25*VoicesOfTheTemple_mvl/mxv
 BYTE   W01
 BYTE   VOL   24*VoicesOfTheTemple_mvl/mxv
 BYTE   W02
 BYTE   VOL   23*VoicesOfTheTemple_mvl/mxv
 BYTE   W01
 BYTE   VOL   23*VoicesOfTheTemple_mvl/mxv
 BYTE   W02
 BYTE   VOL   22*VoicesOfTheTemple_mvl/mxv
 BYTE   W01
 BYTE   VOL   22*VoicesOfTheTemple_mvl/mxv
 BYTE   W02
 BYTE   VOL   21*VoicesOfTheTemple_mvl/mxv
 BYTE   W01
 BYTE   VOL   20*VoicesOfTheTemple_mvl/mxv
 BYTE   W02
 BYTE   PEND 
//  #03 //020   ----------------------------------------
Label_0113DC57:
 BYTE   VOL   40*VoicesOfTheTemple_mvl/mxv
 BYTE   N48  Cn3  v127
 BYTE   W48
 BYTE   N06  Fn2
 BYTE   W06
 BYTE   N42  Gn2
 BYTE   W42
 BYTE   PEND 
//  #03 //021   ----------------------------------------
 BYTE   W96
//  #03 //022   ----------------------------------------
 BYTE   W96
//  #03 //023   ----------------------------------------
 BYTE   PATT
  POIN2 Label_0113D99D
//  #03 //024   ----------------------------------------
 BYTE   PATT
  POIN2 Label_0113D9A5
//  #03 //025   ----------------------------------------
 BYTE   PATT
  POIN2 Label_0113DA31
//  #03 //026   ----------------------------------------
 BYTE   PATT
  POIN2 Label_0113DA3B
//  #03 //027   ----------------------------------------
 BYTE   PATT
  POIN2 Label_0113DA56
//  #03 //028   ----------------------------------------
 BYTE   EOT
 BYTE   Cn3
//  #03 //029   ----------------------------------------
 BYTE   PATT
  POIN2 Label_0113DAD9
//  #03 //030   ----------------------------------------
 BYTE   PATT
  POIN2 Label_0113DAEE
//  #03 //031   ----------------------------------------
 BYTE   W96
//  #03 //032   ----------------------------------------
 BYTE   PATT
  POIN2 Label_0113DAF9
//  #03 //033   ----------------------------------------
 BYTE   W96
//  #03 //034   ----------------------------------------
 BYTE   W96
//  #03 //035   ----------------------------------------
 BYTE   PATT
  POIN2 Label_0113DB09
//  #03 //036   ----------------------------------------
 BYTE   PATT
  POIN2 Label_0113DB22
//  #03 //037   ----------------------------------------
 BYTE   PATT
  POIN2 Label_0113DB33
//  #03 //038   ----------------------------------------
 BYTE   PATT
  POIN2 Label_0113DB3B
//  #03 //039   ----------------------------------------
 BYTE   PATT
  POIN2 Label_0113DB4D
//  #03 //040   ----------------------------------------
 BYTE   PATT
  POIN2 Label_0113DBD1
//  #03 //041   ----------------------------------------
 BYTE   PATT
  POIN2 Label_0113DC57
//  #03 //042   ----------------------------------------
 BYTE   W96
//  #03 //043   ----------------------------------------
 BYTE   W96
//  #03 //044   ----------------------------------------
 BYTE   W03
 BYTE   GoTo
  POIN2 Label_0113D992
//  #03 //045   ----------------------------------------
 BYTE   W84
 BYTE   W03
 BYTE   N03  Gn4  v127
 BYTE   W03
 BYTE   Gs4
 BYTE   W03
//  #03 //046   ----------------------------------------
 BYTE   PATT
  POIN2 Label_0113D9A5
//  #03 //047   ----------------------------------------
 BYTE   VOL   20*VoicesOfTheTemple_mvl/mxv
 BYTE   W04
 BYTE   VOL   39*VoicesOfTheTemple_mvl/mxv
 BYTE   W05
 BYTE   VOL   39*VoicesOfTheTemple_mvl/mxv
 BYTE   W04
 BYTE   VOL   38*VoicesOfTheTemple_mvl/mxv
 BYTE   W05
 BYTE   VOL   37*VoicesOfTheTemple_mvl/mxv
 BYTE   W04
 BYTE   VOL   37*VoicesOfTheTemple_mvl/mxv
 BYTE   W05
 BYTE   VOL   36*VoicesOfTheTemple_mvl/mxv
 BYTE   W04
 BYTE   VOL   35*VoicesOfTheTemple_mvl/mxv
 BYTE   W05
 BYTE   VOL   35*VoicesOfTheTemple_mvl/mxv
 BYTE   W04
 BYTE   VOL   34*VoicesOfTheTemple_mvl/mxv
 BYTE   W05
 BYTE   VOL   34*VoicesOfTheTemple_mvl/mxv
 BYTE   W04
 BYTE   VOL   33*VoicesOfTheTemple_mvl/mxv
 BYTE   W05
 BYTE   VOL   32*VoicesOfTheTemple_mvl/mxv
 BYTE   W04
 BYTE   VOL   32*VoicesOfTheTemple_mvl/mxv
 BYTE   W05
 BYTE   VOL   31*VoicesOfTheTemple_mvl/mxv
 BYTE   W04
 BYTE   VOL   30*VoicesOfTheTemple_mvl/mxv
 BYTE   W05
 BYTE   VOL   30*VoicesOfTheTemple_mvl/mxv
 BYTE   W04
 BYTE   VOL   29*VoicesOfTheTemple_mvl/mxv
 BYTE   W05
 BYTE   VOL   28*VoicesOfTheTemple_mvl/mxv
 BYTE   W04
 BYTE   VOL   28*VoicesOfTheTemple_mvl/mxv
 BYTE   W05
 BYTE   VOL   27*VoicesOfTheTemple_mvl/mxv
 BYTE   N03  Gn4  v127
 BYTE   W03
 BYTE   Gs4
 BYTE   W01
 BYTE   VOL   7*VoicesOfTheTemple_mvl/mxv
 BYTE   W02
//  #03 //048   ----------------------------------------
 BYTE   N06  Gn4
 BYTE   W03
 BYTE   VOL   6*VoicesOfTheTemple_mvl/mxv
 BYTE   W03
 BYTE   N06  Fn4
 BYTE   W01
 BYTE   VOL   5*VoicesOfTheTemple_mvl/mxv
 BYTE   W05
 BYTE   VOL   25*VoicesOfTheTemple_mvl/mxv
 BYTE   N06  As3
 BYTE   W04
 BYTE   VOL   4*VoicesOfTheTemple_mvl/mxv
 BYTE   W02
 BYTE   N24  Cn4
 BYTE   W03
 BYTE   VOL   3*VoicesOfTheTemple_mvl/mxv
 BYTE   W04
 BYTE   VOL   23*VoicesOfTheTemple_mvl/mxv
 BYTE   W05
 BYTE   VOL   22*VoicesOfTheTemple_mvl/mxv
 BYTE   W04
 BYTE   VOL   22*VoicesOfTheTemple_mvl/mxv
 BYTE   W05
 BYTE   VOL   21*VoicesOfTheTemple_mvl/mxv
 BYTE   W03
 BYTE   N03  Gn3
 BYTE   W01
 BYTE   VOL   0*VoicesOfTheTemple_mvl/mxv
 BYTE   W02
 BYTE   N03  Gs3
 BYTE   W03
 BYTE   VOL   0*VoicesOfTheTemple_mvl/mxv
 BYTE   N06  Gn3
 BYTE   W04
 BYTE   VOL   0*VoicesOfTheTemple_mvl/mxv
 BYTE   W02
 BYTE   N06  Fn3
 BYTE   W03
 BYTE   VOL   0*VoicesOfTheTemple_mvl/mxv
 BYTE   W03
 BYTE   N06  As2
 BYTE   W01
 BYTE   VOL   0*VoicesOfTheTemple_mvl/mxv
 BYTE   W05
 BYTE   VOL   17*VoicesOfTheTemple_mvl/mxv
 BYTE   TIE  Cn3
 BYTE   W04
 BYTE   VOL   0*VoicesOfTheTemple_mvl/mxv
 BYTE   W05
 BYTE   VOL   16*VoicesOfTheTemple_mvl/mxv
 BYTE   W04
 BYTE   VOL   15*VoicesOfTheTemple_mvl/mxv
 BYTE   W05
 BYTE   VOL   15*VoicesOfTheTemple_mvl/mxv
 BYTE   W04
 BYTE   VOL   14*VoicesOfTheTemple_mvl/mxv
 BYTE   W05
 BYTE   VOL   13*VoicesOfTheTemple_mvl/mxv
 BYTE   W03
//  #03 //049   ----------------------------------------
 BYTE   W01
 BYTE   VOL   13*VoicesOfTheTemple_mvl/mxv
 BYTE   W05
 BYTE   VOL   12*VoicesOfTheTemple_mvl/mxv
 BYTE   W04
 BYTE   VOL   11*VoicesOfTheTemple_mvl/mxv
 BYTE   W05
 BYTE   VOL   11*VoicesOfTheTemple_mvl/mxv
 BYTE   W04
 BYTE   VOL   10*VoicesOfTheTemple_mvl/mxv
 BYTE   W05
 BYTE   VOL   10*VoicesOfTheTemple_mvl/mxv
 BYTE   W04
 BYTE   VOL   9*VoicesOfTheTemple_mvl/mxv
 BYTE   W05
 BYTE   VOL   8*VoicesOfTheTemple_mvl/mxv
 BYTE   W04
 BYTE   VOL   8*VoicesOfTheTemple_mvl/mxv
 BYTE   W05
 BYTE   VOL   7*VoicesOfTheTemple_mvl/mxv
 BYTE   W04
 BYTE   VOL   6*VoicesOfTheTemple_mvl/mxv
 BYTE   W05
 BYTE   VOL   6*VoicesOfTheTemple_mvl/mxv
 BYTE   W04
 BYTE   VOL   5*VoicesOfTheTemple_mvl/mxv
 BYTE   W05
 BYTE   VOL   5*VoicesOfTheTemple_mvl/mxv
 BYTE   W04
 BYTE   VOL   4*VoicesOfTheTemple_mvl/mxv
 BYTE   W05
 BYTE   VOL   3*VoicesOfTheTemple_mvl/mxv
 BYTE   W04
 BYTE   VOL   3*VoicesOfTheTemple_mvl/mxv
 BYTE   W05
 BYTE   VOL   2*VoicesOfTheTemple_mvl/mxv
 BYTE   W04
 BYTE   VOL   1*VoicesOfTheTemple_mvl/mxv
 BYTE   W05
 BYTE   VOL   1*VoicesOfTheTemple_mvl/mxv
 BYTE   W04
 BYTE   VOL   0*VoicesOfTheTemple_mvl/mxv
 BYTE   W05
//  #03 //050   ----------------------------------------
 BYTE   EOT
 BYTE   VOL   0*VoicesOfTheTemple_mvl/mxv
 BYTE   FINE

//**************** Track 4 (Midi-Chn.3) ****************//

VoicesOfTheTemple_004:
//  #04 //000   ----------------------------------------
 BYTE   KEYSH   VoicesOfTheTemple_key+0
Label_54E0BA:
 BYTE   VOICE   45
 BYTE   VOL   60*VoicesOfTheTemple_mvl/mxv
 BYTE   PAN   c_v+0
 BYTE   VOL   27*VoicesOfTheTemple_mvl/mxv
 BYTE   W96
//  #04 //001   ----------------------------------------
 BYTE   W96
//  #04 //002   ----------------------------------------
 BYTE   W96
//  #04 //003   ----------------------------------------
 BYTE   W96
//  #04 //004   ----------------------------------------
 BYTE   W96
//  #04 //005   ----------------------------------------
 BYTE   W96
//  #04 //006   ----------------------------------------
 BYTE   W96
//  #04 //007   ----------------------------------------
 BYTE   W96
//  #04 //008   ----------------------------------------
 BYTE   W96
//  #04 //009   ----------------------------------------
 BYTE   W96
//  #04 //010   ----------------------------------------
 BYTE   W96
//  #04 //011   ----------------------------------------
 BYTE   W96
//  #04 //012   ----------------------------------------
 BYTE   W96
//  #04 //013   ----------------------------------------
Label_54E0CF:
 BYTE   N03  Gn3  v127
 BYTE   W03
 BYTE   Ds3
 BYTE   W03
 BYTE   Cn3
 BYTE   W03
 BYTE   Ds3
 BYTE   W03
 BYTE   Cn3
 BYTE   W03
 BYTE   As2
 BYTE   W03
 BYTE   Gn2
 BYTE   W03
 BYTE   Ds2
 BYTE   W03
 BYTE   Cn2
 BYTE   W03
 BYTE   Ds2
 BYTE   W03
 BYTE   Cn2
 BYTE   W03
 BYTE   As1
 BYTE   W60
 BYTE   W03
 BYTE   PEND 
//  #04 //014   ----------------------------------------
Label_54E0EB:
 BYTE   N04  Gs2  v127
 BYTE   W04
 BYTE   An2
 BYTE   W05
 BYTE   N03  Cs2
 BYTE   W03
 BYTE   N04  Gs2
 BYTE   W04
 BYTE   An2
 BYTE   W05
 BYTE   N03  Cs2
 BYTE   W03
 BYTE   N04  Gs2
 BYTE   W04
 BYTE   An2
 BYTE   W05
 BYTE   N03  Cs2
 BYTE   W03
 BYTE   N04  Fs2
 BYTE   W04
 BYTE   Gs2
 BYTE   W05
 BYTE   N03  Cs2
 BYTE   W03
 BYTE   N04  Gs2
 BYTE   W04
 BYTE   An2
 BYTE   W05
 BYTE   N03  Cs2
 BYTE   W03
 BYTE   N04  Gs2
 BYTE   W04
 BYTE   An2
 BYTE   W05
 BYTE   N03  Cs2
 BYTE   W03
 BYTE   N04  Gs2
 BYTE   W04
 BYTE   An2
 BYTE   W05
 BYTE   N03  Cs2
 BYTE   W03
 BYTE   N04  Fs2
 BYTE   W04
 BYTE   Gs2
 BYTE   W05
 BYTE   N03  Cs2
 BYTE   W03
 BYTE   PEND 
//  #04 //015   ----------------------------------------
 BYTE   W96
//  #04 //016   ----------------------------------------
Label_54E12E:
 BYTE   N04  Fs2  v127
 BYTE   W04
 BYTE   Cs3
 BYTE   W05
 BYTE   N03  Fs3
 BYTE   W03
 BYTE   N04  Cs4
 BYTE   W04
 BYTE   An3
 BYTE   W05
 BYTE   N03  Fs3
 BYTE   W03
 BYTE   N04  Cs3
 BYTE   W04
 BYTE   An2
 BYTE   W05
 BYTE   N03  Fs2
 BYTE   W03
 BYTE   N04  Cs2
 BYTE   W04
 BYTE   An1
 BYTE   W05
 BYTE   N03  Fs1
 BYTE   W03
 BYTE   N04  Fs2
 BYTE   W04
 BYTE   Cs3
 BYTE   W05
 BYTE   N03  Fs3
 BYTE   W03
 BYTE   N04  Cn4
 BYTE   W04
 BYTE   An3
 BYTE   W05
 BYTE   N03  Fs3
 BYTE   W03
 BYTE   N04  Cs3
 BYTE   W04
 BYTE   An2
 BYTE   W05
 BYTE   N03  Fs2
 BYTE   W03
 BYTE   N04  Cs2
 BYTE   W04
 BYTE   An1
 BYTE   W05
 BYTE   N03  Fs1
 BYTE   W03
 BYTE   PEND 
//  #04 //017   ----------------------------------------
Label_54E170:
 BYTE   N04  Gn2  v127
 BYTE   W04
 BYTE   Dn3
 BYTE   W05
 BYTE   N03  Gn3
 BYTE   W03
 BYTE   N04  Dn4
 BYTE   W04
 BYTE   As3
 BYTE   W05
 BYTE   N03  Gn3
 BYTE   W03
 BYTE   N04  Dn3
 BYTE   W04
 BYTE   As2
 BYTE   W05
 BYTE   N03  Gn2
 BYTE   W03
 BYTE   N04  Dn2
 BYTE   W04
 BYTE   As1
 BYTE   W05
 BYTE   N03  Gn1
 BYTE   W03
 BYTE   N04  Gn2
 BYTE   W04
 BYTE   Dn3
 BYTE   W05
 BYTE   N03  Gn3
 BYTE   W03
 BYTE   N04  Cs4
 BYTE   W04
 BYTE   As3
 BYTE   W05
 BYTE   N03  Gn3
 BYTE   W03
 BYTE   N04  Dn3
 BYTE   W04
 BYTE   As2
 BYTE   W05
 BYTE   N03  Gn2
 BYTE   W03
 BYTE   N04  Dn2
 BYTE   W04
 BYTE   As1
 BYTE   W05
 BYTE   N03  Gn1
 BYTE   W03
 BYTE   PEND 
//  #04 //018   ----------------------------------------
 BYTE   W96
//  #04 //019   ----------------------------------------
 BYTE   W96
//  #04 //020   ----------------------------------------
 BYTE   W96
//  #04 //021   ----------------------------------------
 BYTE   PATT
  POIN2 Label_54E0CF
//  #04 //022   ----------------------------------------
 BYTE   W96
//  #04 //023   ----------------------------------------
 BYTE   W96
//  #04 //024   ----------------------------------------
 BYTE   W96
//  #04 //025   ----------------------------------------
 BYTE   W96
//  #04 //026   ----------------------------------------
 BYTE   W96
//  #04 //027   ----------------------------------------
 BYTE   W96
//  #04 //028   ----------------------------------------
 BYTE   W96
//  #04 //029   ----------------------------------------
 BYTE   W96
//  #04 //030   ----------------------------------------
 BYTE   W96
//  #04 //031   ----------------------------------------
 BYTE   W96
//  #04 //032   ----------------------------------------
 BYTE   W96
//  #04 //033   ----------------------------------------
 BYTE   PATT
  POIN2 Label_54E0CF
//  #04 //034   ----------------------------------------
 BYTE   PATT
  POIN2 Label_54E0EB
//  #04 //035   ----------------------------------------
 BYTE   W96
//  #04 //036   ----------------------------------------
 BYTE   PATT
  POIN2 Label_54E12E
//  #04 //037   ----------------------------------------
 BYTE   PATT
  POIN2 Label_54E170
//  #04 //038   ----------------------------------------
 BYTE   W96
//  #04 //039   ----------------------------------------
 BYTE   W96
//  #04 //040   ----------------------------------------
 BYTE   W96
//  #04 //041   ----------------------------------------
 BYTE   PATT
  POIN2 Label_54E0CF
//  #04 //042   ----------------------------------------
 BYTE   W96
//  #04 //043   ----------------------------------------
 BYTE   W03
 BYTE   GoTo
  POIN2 Label_54E0BA
//  #04 //044   ----------------------------------------
 BYTE   W92
 BYTE   W01
 BYTE   W96
//  #04 //045   ----------------------------------------
 BYTE   W96
//  #04 //046   ----------------------------------------
 BYTE   W96
//  #04 //047   ----------------------------------------
 BYTE   W96
 BYTE   FINE

//**************** Track 5 (Midi-Chn.4) ****************//

VoicesOfTheTemple_005:
//  #05 //000   ----------------------------------------
 BYTE   KEYSH   VoicesOfTheTemple_key+0
Label_0113DD7E:
 BYTE   VOICE   46
 BYTE   VOL   60*VoicesOfTheTemple_mvl/mxv
 BYTE   PAN   c_v+0
 BYTE   VOL   27*VoicesOfTheTemple_mvl/mxv
 BYTE   N04  Fn2  v127
 BYTE   W04
 BYTE   Gn2
 BYTE   W05
 BYTE   N03  Cn2
 BYTE   W03
 BYTE   N04  Fn2
 BYTE   W04
 BYTE   Gn2
 BYTE   W05
 BYTE   N03  Cn2
 BYTE   W03
 BYTE   N04  Fn2
 BYTE   W04
 BYTE   Gn2
 BYTE   W05
 BYTE   N03  Cn2
 BYTE   W03
 BYTE   N04  Fn2
 BYTE   W04
 BYTE   Gn2
 BYTE   W05
 BYTE   N03  Cn2
 BYTE   W03
 BYTE   N04  Fn2
 BYTE   W04
 BYTE   Gn2
 BYTE   W05
 BYTE   N03  Cn2
 BYTE   W03
 BYTE   N04  Fn2
 BYTE   W04
 BYTE   Gn2
 BYTE   W05
 BYTE   N03  Cn2
 BYTE   W03
 BYTE   N04  Fn2
 BYTE   W04
 BYTE   Gn2
 BYTE   W05
 BYTE   N03  Cn2
 BYTE   W03
 BYTE   N04  Fn2
 BYTE   W04
 BYTE   Gn2
 BYTE   W05
 BYTE   N03  Cn2
 BYTE   W03
//  #05 //001   ----------------------------------------
Label_0113DDC7:
 BYTE   N04  Gn2  v127
 BYTE   W04
 BYTE   Gs2
 BYTE   W05
 BYTE   N03  Cs2
 BYTE   W03
 BYTE   N04  Gn2
 BYTE   W04
 BYTE   Gs2
 BYTE   W05
 BYTE   N03  Cs2
 BYTE   W03
 BYTE   N04  Gn2
 BYTE   W04
 BYTE   Gs2
 BYTE   W05
 BYTE   N03  Cs2
 BYTE   W03
 BYTE   N04  Gn2
 BYTE   W04
 BYTE   Gs2
 BYTE   W05
 BYTE   N03  Cs2
 BYTE   W03
 BYTE   N04  Gn2
 BYTE   W04
 BYTE   Gs2
 BYTE   W05
 BYTE   N03  Cs2
 BYTE   W03
 BYTE   N04  Gn2
 BYTE   W04
 BYTE   Gs2
 BYTE   W05
 BYTE   N03  Cs2
 BYTE   W03
 BYTE   N04  Gn2
 BYTE   W04
 BYTE   Gs2
 BYTE   W05
 BYTE   N03  Cs2
 BYTE   W03
 BYTE   N04  Gn2
 BYTE   W04
 BYTE   Gs2
 BYTE   W05
 BYTE   N03  Cs2
 BYTE   W03
 BYTE   PEND 
//  #05 //002   ----------------------------------------
Label_0113DE09:
 BYTE   N04  Fn2  v127
 BYTE   W04
 BYTE   Gn2
 BYTE   W05
 BYTE   N03  Cn2
 BYTE   W03
 BYTE   N04  Fn2
 BYTE   W04
 BYTE   Gn2
 BYTE   W05
 BYTE   N03  Cn2
 BYTE   W03
 BYTE   N04  Fn2
 BYTE   W04
 BYTE   Gn2
 BYTE   W05
 BYTE   N03  Cn2
 BYTE   W03
 BYTE   N04  Fn2
 BYTE   W04
 BYTE   Gn2
 BYTE   W05
 BYTE   N03  Cn2
 BYTE   W03
 BYTE   N04  Fn2
 BYTE   W04
 BYTE   Gn2
 BYTE   W05
 BYTE   N03  Cn2
 BYTE   W03
 BYTE   N04  Fn2
 BYTE   W04
 BYTE   Gn2
 BYTE   W05
 BYTE   N03  Cn2
 BYTE   W03
 BYTE   N04  Fn2
 BYTE   W04
 BYTE   Gn2
 BYTE   W05
 BYTE   N03  Cn2
 BYTE   W03
 BYTE   N04  Fn2
 BYTE   W04
 BYTE   Gn2
 BYTE   W05
 BYTE   N03  Cn2
 BYTE   W03
 BYTE   PEND 
//  #05 //003   ----------------------------------------
Label_0113DE4B:
 BYTE   N04  Gn2  v127
 BYTE   W04
 BYTE   Gs2
 BYTE   W05
 BYTE   N03  Cs2
 BYTE   W03
 BYTE   N04  Gn2
 BYTE   W04
 BYTE   Gs2
 BYTE   W05
 BYTE   N03  Cs2
 BYTE   W03
 BYTE   N04  Gn2
 BYTE   W04
 BYTE   Gs2
 BYTE   W05
 BYTE   N03  Cs2
 BYTE   W03
 BYTE   N04  Gn2
 BYTE   W04
 BYTE   Gs2
 BYTE   W05
 BYTE   N03  Cs2
 BYTE   W03
 BYTE   N04  Gn2
 BYTE   W04
 BYTE   Gs2
 BYTE   W05
 BYTE   N03  Cs2
 BYTE   W03
 BYTE   N04  Gn2
 BYTE   W04
 BYTE   Gs2
 BYTE   W05
 BYTE   N03  Cn2
 BYTE   W03
 BYTE   N04  Cs2
 BYTE   W04
 BYTE   Fn2
 BYTE   W05
 BYTE   N03  Gs2
 BYTE   W03
 BYTE   N04  Cs3
 BYTE   W04
 BYTE   Gs2
 BYTE   W05
 BYTE   N03  Fn2
 BYTE   W03
 BYTE   PEND 
//  #05 //004   ----------------------------------------
 BYTE   PATT
  POIN2 Label_0113DE09
//  #05 //005   ----------------------------------------
 BYTE   PATT
  POIN2 Label_0113DDC7
//  #05 //006   ----------------------------------------
 BYTE   PATT
  POIN2 Label_0113DE09
//  #05 //007   ----------------------------------------
 BYTE   PATT
  POIN2 Label_0113DE4B
//  #05 //008   ----------------------------------------
 BYTE   PATT
  POIN2 Label_0113DDC7
//  #05 //009   ----------------------------------------
Label_0113DEA6:
 BYTE   N04  Fn2  v127
 BYTE   W04
 BYTE   Gn2
 BYTE   W05
 BYTE   N03  Cs2
 BYTE   W03
 BYTE   N04  Fn2
 BYTE   W04
 BYTE   Gn2
 BYTE   W05
 BYTE   N03  Cs2
 BYTE   W03
 BYTE   N04  Fn2
 BYTE   W04
 BYTE   Gn2
 BYTE   W05
 BYTE   N03  Cs2
 BYTE   W03
 BYTE   N04  Fn2
 BYTE   W04
 BYTE   Gn2
 BYTE   W05
 BYTE   N03  Cs2
 BYTE   W03
 BYTE   N04  Fn2
 BYTE   W04
 BYTE   Gn2
 BYTE   W05
 BYTE   N03  Cs2
 BYTE   W03
 BYTE   N04  Fn2
 BYTE   W04
 BYTE   Gn2
 BYTE   W05
 BYTE   N03  Cs2
 BYTE   W03
 BYTE   N04  Fn2
 BYTE   W04
 BYTE   Gn2
 BYTE   W05
 BYTE   N03  Cs2
 BYTE   W03
 BYTE   N04  Fn2
 BYTE   W04
 BYTE   Gn2
 BYTE   W05
 BYTE   N03  Cs2
 BYTE   W03
 BYTE   PEND 
//  #05 //010   ----------------------------------------
Label_0113DEE8:
 BYTE   N04  Fn2  v127
 BYTE   W04
 BYTE   Gn2
 BYTE   W05
 BYTE   N03  Cn2
 BYTE   W03
 BYTE   N04  Fn2
 BYTE   W04
 BYTE   Gn2
 BYTE   W05
 BYTE   N03  Cn2
 BYTE   W03
 BYTE   N04  Fn2
 BYTE   W04
 BYTE   Gn2
 BYTE   W05
 BYTE   N03  Cn2
 BYTE   W03
 BYTE   N04  Fn2
 BYTE   W04
 BYTE   Gn2
 BYTE   W05
 BYTE   N03  Cn2
 BYTE   W03
 BYTE   N04  Fn2
 BYTE   W04
 BYTE   Gn2
 BYTE   W05
 BYTE   N03  Cn2
 BYTE   W03
 BYTE   N04  Fn2
 BYTE   W04
 BYTE   Gn2
 BYTE   W05
 BYTE   N03  Cn2
 BYTE   W03
 BYTE   N04  Fn2
 BYTE   W04
 BYTE   Gn2
 BYTE   W05
 BYTE   N03  Cn2
 BYTE   W03
 BYTE   N04  Fn2
 BYTE   W04
 BYTE   Gn2
 BYTE   W05
 BYTE   N03  Fn3
 BYTE   W03
 BYTE   PEND 
//  #05 //011   ----------------------------------------
 BYTE   PATT
  POIN2 Label_0113DE09
//  #05 //012   ----------------------------------------
 BYTE   PATT
  POIN2 Label_0113DE09
//  #05 //013   ----------------------------------------
 BYTE   PATT
  POIN2 Label_0113DE09
//  #05 //014   ----------------------------------------
 BYTE   W96
//  #05 //015   ----------------------------------------
Label_0113DF3A:
 BYTE   N04  Fs2  v127
 BYTE   W04
 BYTE   Cs3
 BYTE   W05
 BYTE   N03  Fs3
 BYTE   W03
 BYTE   N04  Cs4
 BYTE   W04
 BYTE   An3
 BYTE   W05
 BYTE   N03  Fs3
 BYTE   W03
 BYTE   N04  Cs3
 BYTE   W04
 BYTE   An2
 BYTE   W05
 BYTE   N03  Fs2
 BYTE   W03
 BYTE   N04  Cs2
 BYTE   W04
 BYTE   An1
 BYTE   W05
 BYTE   N03  Fs1
 BYTE   W03
 BYTE   N04  Fs2
 BYTE   W04
 BYTE   Cs3
 BYTE   W05
 BYTE   N03  Fs3
 BYTE   W03
 BYTE   N04  Cn4
 BYTE   W04
 BYTE   An3
 BYTE   W05
 BYTE   N03  Fs3
 BYTE   W03
 BYTE   N04  Cs3
 BYTE   W04
 BYTE   An2
 BYTE   W05
 BYTE   N03  Fs2
 BYTE   W03
 BYTE   N04  Cs2
 BYTE   W04
 BYTE   An1
 BYTE   W05
 BYTE   N03  Fs1
 BYTE   W03
 BYTE   PEND 
//  #05 //016   ----------------------------------------
 BYTE   W96
//  #05 //017   ----------------------------------------
 BYTE   W96
//  #05 //018   ----------------------------------------
Label_0113DF7E:
 BYTE   N04  Gn2  v127
 BYTE   W04
 BYTE   An2
 BYTE   W05
 BYTE   N03  Dn2
 BYTE   W03
 BYTE   N04  Gn2
 BYTE   W04
 BYTE   An2
 BYTE   W05
 BYTE   N03  Dn2
 BYTE   W03
 BYTE   N04  Gn2
 BYTE   W04
 BYTE   An2
 BYTE   W05
 BYTE   N03  Dn2
 BYTE   W03
 BYTE   N04  Gn2
 BYTE   W04
 BYTE   An2
 BYTE   W05
 BYTE   N03  Dn2
 BYTE   W03
 BYTE   N04  Gn2
 BYTE   W04
 BYTE   An2
 BYTE   W05
 BYTE   N03  Dn2
 BYTE   W03
 BYTE   N04  Gn2
 BYTE   W04
 BYTE   An2
 BYTE   W05
 BYTE   N03  Dn2
 BYTE   W03
 BYTE   N04  Gn2
 BYTE   W04
 BYTE   An2
 BYTE   W05
 BYTE   N03  Dn2
 BYTE   W03
 BYTE   N04  Gn2
 BYTE   W04
 BYTE   An2
 BYTE   W05
 BYTE   N03  Dn2
 BYTE   W03
 BYTE   PEND 
//  #05 //019   ----------------------------------------
Label_0113DFC0:
 BYTE   N04  Fs2  v127
 BYTE   W04
 BYTE   Gs2
 BYTE   W05
 BYTE   N03  Cs2
 BYTE   W03
 BYTE   N04  Fs2
 BYTE   W04
 BYTE   Gs2
 BYTE   W05
 BYTE   N03  Cs2
 BYTE   W03
 BYTE   N04  Fs2
 BYTE   W04
 BYTE   Gs2
 BYTE   W05
 BYTE   N03  Cs2
 BYTE   W03
 BYTE   N04  Fs2
 BYTE   W04
 BYTE   Gs2
 BYTE   W05
 BYTE   N03  Cs2
 BYTE   W03
 BYTE   N04  Fs2
 BYTE   W04
 BYTE   Gs2
 BYTE   W05
 BYTE   N03  Cs2
 BYTE   W03
 BYTE   N04  Fs2
 BYTE   W04
 BYTE   Gs2
 BYTE   W05
 BYTE   N03  Cs2
 BYTE   W03
 BYTE   N04  Fs2
 BYTE   W04
 BYTE   Gs2
 BYTE   W05
 BYTE   N03  Cs2
 BYTE   W03
 BYTE   N04  Fs2
 BYTE   W04
 BYTE   Gs2
 BYTE   W05
 BYTE   N03  Cs2
 BYTE   W03
 BYTE   PEND 
//  #05 //020   ----------------------------------------
 BYTE   PATT
  POIN2 Label_0113DE09
//  #05 //021   ----------------------------------------
 BYTE   PATT
  POIN2 Label_0113DE09
//  #05 //022   ----------------------------------------
 BYTE   PATT
  POIN2 Label_0113DE09
//  #05 //023   ----------------------------------------
 BYTE   PATT
  POIN2 Label_0113DE09
//  #05 //024   ----------------------------------------
 BYTE   PATT
  POIN2 Label_0113DE09
//  #05 //025   ----------------------------------------
 BYTE   PATT
  POIN2 Label_0113DDC7
//  #05 //026   ----------------------------------------
 BYTE   PATT
  POIN2 Label_0113DE09
//  #05 //027   ----------------------------------------
 BYTE   PATT
  POIN2 Label_0113DE4B
//  #05 //028   ----------------------------------------
 BYTE   PATT
  POIN2 Label_0113DDC7
//  #05 //029   ----------------------------------------
 BYTE   PATT
  POIN2 Label_0113DEA6
//  #05 //030   ----------------------------------------
 BYTE   PATT
  POIN2 Label_0113DEE8
//  #05 //031   ----------------------------------------
 BYTE   PATT
  POIN2 Label_0113DE09
//  #05 //032   ----------------------------------------
 BYTE   PATT
  POIN2 Label_0113DE09
//  #05 //033   ----------------------------------------
 BYTE   PATT
  POIN2 Label_0113DE09
//  #05 //034   ----------------------------------------
 BYTE   W96
//  #05 //035   ----------------------------------------
 BYTE   PATT
  POIN2 Label_0113DF3A
//  #05 //036   ----------------------------------------
 BYTE   W96
//  #05 //037   ----------------------------------------
 BYTE   W96
//  #05 //038   ----------------------------------------
 BYTE   PATT
  POIN2 Label_0113DF7E
//  #05 //039   ----------------------------------------
 BYTE   PATT
  POIN2 Label_0113DFC0
//  #05 //040   ----------------------------------------
 BYTE   PATT
  POIN2 Label_0113DE09
//  #05 //041   ----------------------------------------
 BYTE   PATT
  POIN2 Label_0113DE09
//  #05 //042   ----------------------------------------
 BYTE   PATT
  POIN2 Label_0113DE09
//  #05 //043   ----------------------------------------
 BYTE   N04  Fn2  v127
 BYTE   W03
 BYTE   GoTo
  POIN2 Label_0113DD7E
//  #05 //044   ----------------------------------------
 BYTE   W01
 BYTE   N04  Gn2  v127
 BYTE   W05
 BYTE   N03  Cn2
 BYTE   W03
 BYTE   N04  Fn2
 BYTE   W04
 BYTE   Gn2
 BYTE   W05
 BYTE   N03  Cn2
 BYTE   W03
 BYTE   N04  Fn2
 BYTE   W04
 BYTE   Gn2
 BYTE   W05
 BYTE   N03  Cn2
 BYTE   W03
 BYTE   N04  Fn2
 BYTE   W04
 BYTE   Gn2
 BYTE   W05
 BYTE   N03  Cn2
 BYTE   W03
 BYTE   N04  Fn2
 BYTE   W04
 BYTE   Gn2
 BYTE   W05
 BYTE   N03  Cn2
 BYTE   W03
 BYTE   N04  Fn2
 BYTE   W04
 BYTE   Gn2
 BYTE   W05
 BYTE   N03  Cn2
 BYTE   W03
 BYTE   N04  Fn2
 BYTE   W04
 BYTE   Gn2
 BYTE   W05
 BYTE   N03  Cn2
 BYTE   W03
 BYTE   N04  Fn2
 BYTE   W04
 BYTE   Gn2
 BYTE   W05
 BYTE   N03  Cn2
 BYTE   W03
 BYTE   N04  Fn2
 BYTE   W04
//  #05 //045   ----------------------------------------
 BYTE   Gn2
 BYTE   W01
 BYTE   VOL   26*VoicesOfTheTemple_mvl/mxv
 BYTE   W04
 BYTE   N03  Cn2
 BYTE   W01
 BYTE   VOL   25*VoicesOfTheTemple_mvl/mxv
 BYTE   W02
 BYTE   N04  Fn2
 BYTE   W03
 BYTE   VOL   25*VoicesOfTheTemple_mvl/mxv
 BYTE   W01
 BYTE   N04  Gn2
 BYTE   W04
 BYTE   VOL   24*VoicesOfTheTemple_mvl/mxv
 BYTE   W01
 BYTE   N03  Cn2
 BYTE   W03
 BYTE   N04  Fn2
 BYTE   W01
 BYTE   VOL   24*VoicesOfTheTemple_mvl/mxv
 BYTE   W03
 BYTE   N04  Gn2
 BYTE   W02
 BYTE   VOL   23*VoicesOfTheTemple_mvl/mxv
 BYTE   W03
 BYTE   N03  Cn2
 BYTE   W02
 BYTE   VOL   22*VoicesOfTheTemple_mvl/mxv
 BYTE   W01
 BYTE   N04  Fn2
 BYTE   W04
 BYTE   VOL   22*VoicesOfTheTemple_mvl/mxv
 BYTE   N04  Gn2
 BYTE   W05
 BYTE   N03  Cn2
 BYTE   W01
 BYTE   VOL   21*VoicesOfTheTemple_mvl/mxv
 BYTE   W02
 BYTE   N04  Fn2
 BYTE   W03
 BYTE   VOL   20*VoicesOfTheTemple_mvl/mxv
 BYTE   W01
 BYTE   N04  Gn2
 BYTE   W04
 BYTE   VOL   20*VoicesOfTheTemple_mvl/mxv
 BYTE   W01
 BYTE   N03  Cn2
 BYTE   W03
 BYTE   N04  Fn2
 BYTE   W01
 BYTE   VOL   19*VoicesOfTheTemple_mvl/mxv
 BYTE   W03
 BYTE   N04  Gn2
 BYTE   W02
 BYTE   VOL   19*VoicesOfTheTemple_mvl/mxv
 BYTE   W03
 BYTE   N03  Cn2
 BYTE   W02
 BYTE   VOL   18*VoicesOfTheTemple_mvl/mxv
 BYTE   W01
 BYTE   N04  Fn2
 BYTE   W04
 BYTE   VOL   17*VoicesOfTheTemple_mvl/mxv
 BYTE   N04  Gn2
 BYTE   W05
 BYTE   VOL   17*VoicesOfTheTemple_mvl/mxv
 BYTE   N03  Cn2
 BYTE   W03
 BYTE   N04  Fn2
 BYTE   W03
 BYTE   VOL   16*VoicesOfTheTemple_mvl/mxv
 BYTE   W01
 BYTE   N04  Gn2
 BYTE   W04
 BYTE   VOL   15*VoicesOfTheTemple_mvl/mxv
 BYTE   W01
 BYTE   N03  Cn2
 BYTE   W03
 BYTE   N04  Gn2
 BYTE   W01
 BYTE   VOL   15*VoicesOfTheTemple_mvl/mxv
 BYTE   W03
//  #05 //046   ----------------------------------------
 BYTE   N04  Gs2
 BYTE   W02
 BYTE   VOL   14*VoicesOfTheTemple_mvl/mxv
 BYTE   W03
 BYTE   N03  Cs2
 BYTE   W02
 BYTE   VOL   14*VoicesOfTheTemple_mvl/mxv
 BYTE   W01
 BYTE   N04  Gn2
 BYTE   W04
 BYTE   VOL   13*VoicesOfTheTemple_mvl/mxv
 BYTE   N04  Gs2
 BYTE   W05
 BYTE   VOL   12*VoicesOfTheTemple_mvl/mxv
 BYTE   N03  Cs2
 BYTE   W03
 BYTE   N04  Gn2
 BYTE   W02
 BYTE   VOL   12*VoicesOfTheTemple_mvl/mxv
 BYTE   W02
 BYTE   N04  Gs2
 BYTE   W03
 BYTE   VOL   11*VoicesOfTheTemple_mvl/mxv
 BYTE   W02
 BYTE   N03  Cs2
 BYTE   W03
 BYTE   N04  Gn2
 BYTE   W01
 BYTE   VOL   10*VoicesOfTheTemple_mvl/mxv
 BYTE   W03
 BYTE   N04  Gs2
 BYTE   W02
 BYTE   VOL   10*VoicesOfTheTemple_mvl/mxv
 BYTE   W03
 BYTE   N03  Cs2
 BYTE   W02
 BYTE   VOL   9*VoicesOfTheTemple_mvl/mxv
 BYTE   W01
 BYTE   N04  Gn2
 BYTE   W04
 BYTE   VOL   8*VoicesOfTheTemple_mvl/mxv
 BYTE   N04  Gs2
 BYTE   W05
 BYTE   VOL   8*VoicesOfTheTemple_mvl/mxv
 BYTE   N03  Cs2
 BYTE   W03
 BYTE   N04  Gn2
 BYTE   W02
 BYTE   VOL   7*VoicesOfTheTemple_mvl/mxv
 BYTE   W02
 BYTE   N04  Gs2
 BYTE   W03
 BYTE   VOL   7*VoicesOfTheTemple_mvl/mxv
 BYTE   W02
 BYTE   N03  Cs2
 BYTE   W03
 BYTE   VOL   6*VoicesOfTheTemple_mvl/mxv
 BYTE   N04  Gn2
 BYTE   W04
 BYTE   Gs2
 BYTE   W02
 BYTE   VOL   5*VoicesOfTheTemple_mvl/mxv
 BYTE   W03
 BYTE   N03  Cs2
 BYTE   W02
 BYTE   VOL   5*VoicesOfTheTemple_mvl/mxv
 BYTE   W01
 BYTE   N04  Gn2
 BYTE   W04
 BYTE   VOL   4*VoicesOfTheTemple_mvl/mxv
 BYTE   N04  Gs2
 BYTE   W05
 BYTE   VOL   3*VoicesOfTheTemple_mvl/mxv
 BYTE   N03  Cs2
 BYTE   W03
 BYTE   N04  Fn2
 BYTE   W02
 BYTE   VOL   3*VoicesOfTheTemple_mvl/mxv
 BYTE   W02
//  #05 //047   ----------------------------------------
 BYTE   N04  Gn2
 BYTE   W03
 BYTE   VOL   2*VoicesOfTheTemple_mvl/mxv
 BYTE   W02
 BYTE   N03  Cn2
 BYTE   W03
 BYTE   VOL   2*VoicesOfTheTemple_mvl/mxv
 BYTE   N04  Fn2
 BYTE   W04
 BYTE   Gn2
 BYTE   W01
 BYTE   VOL   1*VoicesOfTheTemple_mvl/mxv
 BYTE   W04
 BYTE   N03  Cn2
 BYTE   W02
 BYTE   VOL   0*VoicesOfTheTemple_mvl/mxv
 BYTE   W01
 BYTE   N04  Fn2
 BYTE   W04
 BYTE   VOL   0*VoicesOfTheTemple_mvl/mxv
 BYTE   N04  Gn2
 BYTE   W05
 BYTE   VOL   0*VoicesOfTheTemple_mvl/mxv
 BYTE   N03  Cn2
 BYTE   W03
 BYTE   N04  Fn2
 BYTE   W02
 BYTE   VOL   0*VoicesOfTheTemple_mvl/mxv
 BYTE   W02
 BYTE   N04  Gn2
 BYTE   W03
 BYTE   VOL   0*VoicesOfTheTemple_mvl/mxv
 BYTE   W02
 BYTE   N03  Cn2
 BYTE   W03
 BYTE   VOL   0*VoicesOfTheTemple_mvl/mxv
 BYTE   N04  Fn2
 BYTE   W04
 BYTE   Gn2
 BYTE   W01
 BYTE   VOL   0*VoicesOfTheTemple_mvl/mxv
 BYTE   W04
 BYTE   N03  Cn2
 BYTE   W01
 BYTE   VOL   0*VoicesOfTheTemple_mvl/mxv
 BYTE   W02
 BYTE   N04  Fn2
 BYTE   W03
 BYTE   VOL   0*VoicesOfTheTemple_mvl/mxv
 BYTE   W01
 BYTE   N04  Gn2
 BYTE   W05
 BYTE   VOL   0*VoicesOfTheTemple_mvl/mxv
 BYTE   N03  Cn2
 BYTE   W03
 BYTE   N04  Fn2
 BYTE   W02
 BYTE   VOL   0*VoicesOfTheTemple_mvl/mxv
 BYTE   W02
 BYTE   N04  Gn2
 BYTE   W03
 BYTE   VOL   0*VoicesOfTheTemple_mvl/mxv
 BYTE   W02
 BYTE   N03  Cn2
 BYTE   W03
 BYTE   VOL   0*VoicesOfTheTemple_mvl/mxv
 BYTE   N04  Fn2
 BYTE   W04
 BYTE   Gn2
 BYTE   W01
 BYTE   VOL   0*VoicesOfTheTemple_mvl/mxv
 BYTE   W04
 BYTE   N03  Cn2
 BYTE   W01
 BYTE   VOL   0*VoicesOfTheTemple_mvl/mxv
 BYTE   W02
 BYTE   N04  Gn2
 BYTE   W03
 BYTE   VOL   0*VoicesOfTheTemple_mvl/mxv
 BYTE   W01
//  #05 //048   ----------------------------------------
 BYTE   N04  Gs2
 BYTE   W04
 BYTE   VOL   0*VoicesOfTheTemple_mvl/mxv
 BYTE   W01
 BYTE   N03  Cs2
 BYTE   W03
 BYTE   N04  Gn2
 BYTE   W02
 BYTE   VOL   0*VoicesOfTheTemple_mvl/mxv
 BYTE   W02
 BYTE   N04  Gs2
 BYTE   W03
 BYTE   VOL   0*VoicesOfTheTemple_mvl/mxv
 BYTE   W02
 BYTE   N03  Cs2
 BYTE   W03
 BYTE   VOL   0*VoicesOfTheTemple_mvl/mxv
 BYTE   N04  Gn2
 BYTE   W04
 BYTE   Gs2
 BYTE   W01
 BYTE   VOL   0*VoicesOfTheTemple_mvl/mxv
 BYTE   W04
 BYTE   N03  Cs2
 BYTE   W01
 BYTE   VOL   0*VoicesOfTheTemple_mvl/mxv
 BYTE   W02
 BYTE   N04  Gn2
 BYTE   W03
 BYTE   VOL   0*VoicesOfTheTemple_mvl/mxv
 BYTE   W01
 BYTE   N04  Gs2
 BYTE   W04
 BYTE   VOL   0*VoicesOfTheTemple_mvl/mxv
 BYTE   W01
 BYTE   N03  Cs2
 BYTE   W03
 BYTE   N04  Gn2
 BYTE   W01
 BYTE   VOL   0*VoicesOfTheTemple_mvl/mxv
 BYTE   W03
 BYTE   N04  Gs2
 BYTE   W03
 BYTE   VOL   0*VoicesOfTheTemple_mvl/mxv
 BYTE   W02
 BYTE   N03  Cs2
 BYTE   W03
 BYTE   VOL   0*VoicesOfTheTemple_mvl/mxv
 BYTE   N04  Gn2
 BYTE   W04
 BYTE   Gs2
 BYTE   W01
 BYTE   VOL   0*VoicesOfTheTemple_mvl/mxv
 BYTE   W04
 BYTE   N03  Cn2
 BYTE   W01
 BYTE   VOL   0*VoicesOfTheTemple_mvl/mxv
 BYTE   W02
 BYTE   N04  Cs2
 BYTE   W03
 BYTE   VOL   0*VoicesOfTheTemple_mvl/mxv
 BYTE   W01
 BYTE   N04  Fn2
 BYTE   W04
 BYTE   VOL   0*VoicesOfTheTemple_mvl/mxv
 BYTE   W01
 BYTE   N03  Gs2
 BYTE   W03
 BYTE   N04  Cs3
 BYTE   W01
 BYTE   VOL   0*VoicesOfTheTemple_mvl/mxv
 BYTE   W03
 BYTE   N04  Gs2
 BYTE   W02
 BYTE   VOL   0*VoicesOfTheTemple_mvl/mxv
 BYTE   W03
 BYTE   N03  Fn2
 BYTE   W02
 BYTE   VOL   0*VoicesOfTheTemple_mvl/mxv
 BYTE   W01
 BYTE   VOL   0*VoicesOfTheTemple_mvl/mxv
 BYTE   FINE

//**************** Track 6 (Midi-Chn.5) ****************//

VoicesOfTheTemple_006:
//  #06 //000   ----------------------------------------
 BYTE   KEYSH   VoicesOfTheTemple_key+0
Label_54E1F2:
 BYTE   VOICE   11
 BYTE   VOL   60*VoicesOfTheTemple_mvl/mxv
 BYTE   PAN   c_v+0
 BYTE   VOL   27*VoicesOfTheTemple_mvl/mxv
 BYTE   W96
//  #06 //001   ----------------------------------------
Label_54E1FB:
 BYTE   N03  Cn3  v127
 BYTE   W03
 BYTE   Dn3
 BYTE   W03
 BYTE   N03
 BYTE   W03
 BYTE   Cn3
 BYTE   W03
 BYTE   N03
 BYTE   W03
 BYTE   Dn3
 BYTE   W03
 BYTE   N03
 BYTE   W03
 BYTE   Cn3
 BYTE   W03
 BYTE   N03
 BYTE   W03
 BYTE   Dn3
 BYTE   W03
 BYTE   N03
 BYTE   W03
 BYTE   Cn3
 BYTE   W03
 BYTE   N03
 BYTE   W03
 BYTE   Dn3
 BYTE   W03
 BYTE   N03
 BYTE   W03
 BYTE   Cn3
 BYTE   W48
 BYTE   W03
 BYTE   PEND 
//  #06 //002   ----------------------------------------
 BYTE   W96
//  #06 //003   ----------------------------------------
Label_54E220:
 BYTE   N03  Ds3  v127
 BYTE   W03
 BYTE   En3
 BYTE   W03
 BYTE   N03
 BYTE   W03
 BYTE   Ds3
 BYTE   W03
 BYTE   N03
 BYTE   W03
 BYTE   En3
 BYTE   W03
 BYTE   N03
 BYTE   W03
 BYTE   Ds3
 BYTE   W03
 BYTE   N03
 BYTE   W03
 BYTE   En3
 BYTE   W03
 BYTE   N03
 BYTE   W03
 BYTE   Ds3
 BYTE   W03
 BYTE   N03
 BYTE   W03
 BYTE   En3
 BYTE   W03
 BYTE   N03
 BYTE   W03
 BYTE   Ds3
 BYTE   W48
 BYTE   W03
 BYTE   PEND 
//  #06 //004   ----------------------------------------
 BYTE   W96
//  #06 //005   ----------------------------------------
 BYTE   PATT
  POIN2 Label_54E1FB
//  #06 //006   ----------------------------------------
 BYTE   W96
//  #06 //007   ----------------------------------------
 BYTE   PATT
  POIN2 Label_54E220
//  #06 //008   ----------------------------------------
 BYTE   W96
//  #06 //009   ----------------------------------------
 BYTE   PATT
  POIN2 Label_54E1FB
//  #06 //010   ----------------------------------------
 BYTE   W96
//  #06 //011   ----------------------------------------
 BYTE   PATT
  POIN2 Label_54E220
//  #06 //012   ----------------------------------------
 BYTE   W96
//  #06 //013   ----------------------------------------
 BYTE   PATT
  POIN2 Label_54E1FB
//  #06 //014   ----------------------------------------
 BYTE   W96
//  #06 //015   ----------------------------------------
 BYTE   PATT
  POIN2 Label_54E220
//  #06 //016   ----------------------------------------
 BYTE   W96
//  #06 //017   ----------------------------------------
 BYTE   PATT
  POIN2 Label_54E1FB
//  #06 //018   ----------------------------------------
 BYTE   W96
//  #06 //019   ----------------------------------------
 BYTE   PATT
  POIN2 Label_54E220
//  #06 //020   ----------------------------------------
 BYTE   W96
//  #06 //021   ----------------------------------------
 BYTE   PATT
  POIN2 Label_54E1FB
//  #06 //022   ----------------------------------------
 BYTE   W96
//  #06 //023   ----------------------------------------
 BYTE   PATT
  POIN2 Label_54E220
//  #06 //024   ----------------------------------------
 BYTE   W96
//  #06 //025   ----------------------------------------
 BYTE   PATT
  POIN2 Label_54E1FB
//  #06 //026   ----------------------------------------
 BYTE   W96
//  #06 //027   ----------------------------------------
 BYTE   PATT
  POIN2 Label_54E220
//  #06 //028   ----------------------------------------
 BYTE   W96
//  #06 //029   ----------------------------------------
 BYTE   PATT
  POIN2 Label_54E1FB
//  #06 //030   ----------------------------------------
 BYTE   W96
//  #06 //031   ----------------------------------------
 BYTE   PATT
  POIN2 Label_54E220
//  #06 //032   ----------------------------------------
 BYTE   W96
//  #06 //033   ----------------------------------------
 BYTE   PATT
  POIN2 Label_54E1FB
//  #06 //034   ----------------------------------------
 BYTE   W96
//  #06 //035   ----------------------------------------
 BYTE   PATT
  POIN2 Label_54E220
//  #06 //036   ----------------------------------------
 BYTE   W96
//  #06 //037   ----------------------------------------
 BYTE   PATT
  POIN2 Label_54E1FB
//  #06 //038   ----------------------------------------
 BYTE   W96
//  #06 //039   ----------------------------------------
 BYTE   PATT
  POIN2 Label_54E220
//  #06 //040   ----------------------------------------
 BYTE   W96
//  #06 //041   ----------------------------------------
 BYTE   PATT
  POIN2 Label_54E1FB
//  #06 //042   ----------------------------------------
 BYTE   W96
//  #06 //043   ----------------------------------------
 BYTE   N03  Ds3  v127
 BYTE   W03
 BYTE   GoTo
  POIN2 Label_54E1F2
//  #06 //044   ----------------------------------------
 BYTE   N03  En3  v127
 BYTE   W03
 BYTE   N03
 BYTE   W03
 BYTE   Ds3
 BYTE   W03
 BYTE   N03
 BYTE   W03
 BYTE   En3
 BYTE   W03
 BYTE   N03
 BYTE   W03
 BYTE   Ds3
 BYTE   W03
 BYTE   N03
 BYTE   W03
 BYTE   En3
 BYTE   W03
 BYTE   N03
 BYTE   W03
 BYTE   Ds3
 BYTE   W03
 BYTE   N03
 BYTE   W03
 BYTE   En3
 BYTE   W03
 BYTE   N03
 BYTE   W03
 BYTE   Ds3
 BYTE   W48
 BYTE   W03
 BYTE   W05
//  #06 //045   ----------------------------------------
 BYTE   VOL   26*VoicesOfTheTemple_mvl/mxv
 BYTE   W05
 BYTE   VOL   45*VoicesOfTheTemple_mvl/mxv
 BYTE   W05
 BYTE   VOL   45*VoicesOfTheTemple_mvl/mxv
 BYTE   W05
 BYTE   VOL   44*VoicesOfTheTemple_mvl/mxv
 BYTE   W05
 BYTE   VOL   44*VoicesOfTheTemple_mvl/mxv
 BYTE   W05
 BYTE   VOL   43*VoicesOfTheTemple_mvl/mxv
 BYTE   W05
 BYTE   VOL   42*VoicesOfTheTemple_mvl/mxv
 BYTE   W05
 BYTE   VOL   42*VoicesOfTheTemple_mvl/mxv
 BYTE   W06
 BYTE   VOL   41*VoicesOfTheTemple_mvl/mxv
 BYTE   W05
 BYTE   VOL   40*VoicesOfTheTemple_mvl/mxv
 BYTE   W05
 BYTE   VOL   40*VoicesOfTheTemple_mvl/mxv
 BYTE   W05
 BYTE   VOL   39*VoicesOfTheTemple_mvl/mxv
 BYTE   W05
 BYTE   VOL   39*VoicesOfTheTemple_mvl/mxv
 BYTE   W05
 BYTE   VOL   38*VoicesOfTheTemple_mvl/mxv
 BYTE   W05
 BYTE   VOL   37*VoicesOfTheTemple_mvl/mxv
 BYTE   W05
 BYTE   VOL   37*VoicesOfTheTemple_mvl/mxv
 BYTE   W06
 BYTE   VOL   36*VoicesOfTheTemple_mvl/mxv
 BYTE   W05
 BYTE   VOL   35*VoicesOfTheTemple_mvl/mxv
 BYTE   W04
 BYTE   N03  Cn3
 BYTE   W01
 BYTE   VOL   15*VoicesOfTheTemple_mvl/mxv
 BYTE   W02
 BYTE   N03  Dn3
 BYTE   W03
//  #06 //046   ----------------------------------------
 BYTE   VOL   14*VoicesOfTheTemple_mvl/mxv
 BYTE   N03
 BYTE   W03
 BYTE   Cn3
 BYTE   W02
 BYTE   VOL   14*VoicesOfTheTemple_mvl/mxv
 BYTE   W01
 BYTE   N03
 BYTE   W03
 BYTE   Dn3
 BYTE   W01
 BYTE   VOL   13*VoicesOfTheTemple_mvl/mxv
 BYTE   W02
 BYTE   N03
 BYTE   W03
 BYTE   VOL   12*VoicesOfTheTemple_mvl/mxv
 BYTE   N03  Cn3
 BYTE   W03
 BYTE   N03
 BYTE   W02
 BYTE   VOL   12*VoicesOfTheTemple_mvl/mxv
 BYTE   W01
 BYTE   N03  Dn3
 BYTE   W03
 BYTE   N03
 BYTE   W01
 BYTE   VOL   11*VoicesOfTheTemple_mvl/mxv
 BYTE   W02
 BYTE   N03  Cn3
 BYTE   W03
 BYTE   N03
 BYTE   W01
 BYTE   VOL   10*VoicesOfTheTemple_mvl/mxv
 BYTE   W02
 BYTE   N03  Dn3
 BYTE   W03
 BYTE   VOL   10*VoicesOfTheTemple_mvl/mxv
 BYTE   N03
 BYTE   W03
 BYTE   Cn3
 BYTE   W02
 BYTE   VOL   9*VoicesOfTheTemple_mvl/mxv
 BYTE   W05
 BYTE   VOL   28*VoicesOfTheTemple_mvl/mxv
 BYTE   W05
 BYTE   VOL   28*VoicesOfTheTemple_mvl/mxv
 BYTE   W05
 BYTE   VOL   27*VoicesOfTheTemple_mvl/mxv
 BYTE   W05
 BYTE   VOL   27*VoicesOfTheTemple_mvl/mxv
 BYTE   W05
 BYTE   VOL   26*VoicesOfTheTemple_mvl/mxv
 BYTE   W06
 BYTE   VOL   25*VoicesOfTheTemple_mvl/mxv
 BYTE   W05
 BYTE   VOL   25*VoicesOfTheTemple_mvl/mxv
 BYTE   W05
 BYTE   VOL   24*VoicesOfTheTemple_mvl/mxv
 BYTE   W05
 BYTE   VOL   23*VoicesOfTheTemple_mvl/mxv
 BYTE   W03
 BYTE   W02
 BYTE   VOL   23*VoicesOfTheTemple_mvl/mxv
 BYTE   W05
//  #06 //047   ----------------------------------------
 BYTE   VOL   22*VoicesOfTheTemple_mvl/mxv
 BYTE   W05
 BYTE   VOL   22*VoicesOfTheTemple_mvl/mxv
 BYTE   W05
 BYTE   VOL   21*VoicesOfTheTemple_mvl/mxv
 BYTE   W06
 BYTE   VOL   20*VoicesOfTheTemple_mvl/mxv
 BYTE   W05
 BYTE   VOL   20*VoicesOfTheTemple_mvl/mxv
 BYTE   W05
 BYTE   VOL   19*VoicesOfTheTemple_mvl/mxv
 BYTE   W05
 BYTE   VOL   18*VoicesOfTheTemple_mvl/mxv
 BYTE   W05
 BYTE   VOL   18*VoicesOfTheTemple_mvl/mxv
 BYTE   W05
 BYTE   VOL   17*VoicesOfTheTemple_mvl/mxv
 BYTE   W05
 BYTE   VOL   17*VoicesOfTheTemple_mvl/mxv
 BYTE   W05
 BYTE   VOL   16*VoicesOfTheTemple_mvl/mxv
 BYTE   W05
 BYTE   VOL   15*VoicesOfTheTemple_mvl/mxv
 BYTE   W06
 BYTE   VOL   15*VoicesOfTheTemple_mvl/mxv
 BYTE   W05
 BYTE   VOL   14*VoicesOfTheTemple_mvl/mxv
 BYTE   W05
 BYTE   VOL   13*VoicesOfTheTemple_mvl/mxv
 BYTE   W05
 BYTE   VOL   13*VoicesOfTheTemple_mvl/mxv
 BYTE   W05
 BYTE   VOL   12*VoicesOfTheTemple_mvl/mxv
 BYTE   W05
 BYTE   VOL   11*VoicesOfTheTemple_mvl/mxv
 BYTE   W02
 BYTE   N03  Ds3
 BYTE   W03
 BYTE   VOL   0*VoicesOfTheTemple_mvl/mxv
 BYTE   N03  En3
 BYTE   W03
 BYTE   N03
 BYTE   W02
//  #06 //048   ----------------------------------------
 BYTE   VOL   0*VoicesOfTheTemple_mvl/mxv
 BYTE   W01
 BYTE   N03  Ds3
 BYTE   W03
 BYTE   N03
 BYTE   W02
 BYTE   VOL   0*VoicesOfTheTemple_mvl/mxv
 BYTE   W01
 BYTE   N03  En3
 BYTE   W03
 BYTE   N03
 BYTE   W01
 BYTE   VOL   0*VoicesOfTheTemple_mvl/mxv
 BYTE   W02
 BYTE   N03  Ds3
 BYTE   W03
 BYTE   VOL   0*VoicesOfTheTemple_mvl/mxv
 BYTE   N03
 BYTE   W03
 BYTE   En3
 BYTE   W02
 BYTE   VOL   0*VoicesOfTheTemple_mvl/mxv
 BYTE   W01
 BYTE   N03
 BYTE   W03
 BYTE   Ds3
 BYTE   W01
 BYTE   VOL   0*VoicesOfTheTemple_mvl/mxv
 BYTE   W02
 BYTE   N03
 BYTE   W03
 BYTE   VOL   0*VoicesOfTheTemple_mvl/mxv
 BYTE   N03  En3
 BYTE   W03
 BYTE   N03
 BYTE   W02
 BYTE   VOL   0*VoicesOfTheTemple_mvl/mxv
 BYTE   W01
 BYTE   N03  Ds3
 BYTE   W04
 BYTE   VOL   0*VoicesOfTheTemple_mvl/mxv
 BYTE   W06
 BYTE   VOL   5*VoicesOfTheTemple_mvl/mxv
 BYTE   W05
 BYTE   VOL   4*VoicesOfTheTemple_mvl/mxv
 BYTE   W05
 BYTE   VOL   3*VoicesOfTheTemple_mvl/mxv
 BYTE   W05
 BYTE   VOL   3*VoicesOfTheTemple_mvl/mxv
 BYTE   W05
 BYTE   VOL   2*VoicesOfTheTemple_mvl/mxv
 BYTE   W05
 BYTE   VOL   1*VoicesOfTheTemple_mvl/mxv
 BYTE   W05
 BYTE   VOL   1*VoicesOfTheTemple_mvl/mxv
 BYTE   W05
 BYTE   VOL   0*VoicesOfTheTemple_mvl/mxv
 BYTE   W05
 BYTE   VOL   0*VoicesOfTheTemple_mvl/mxv
 BYTE   W01
 BYTE   VOL   0*VoicesOfTheTemple_mvl/mxv
 BYTE   FINE

//******************************************************//
	ALIGN 4

VoicesOfTheTemple:
	BYTE	6	// NumTrks
	BYTE	0	// NumBlks
	BYTE	VoicesOfTheTemple_pri	// Priority
	BYTE	VoicesOfTheTemple_rev	// Reverb.
    
	POIN2	VoicesOfTheTemple_grp
    
	POIN2	VoicesOfTheTemple_001
	POIN2	VoicesOfTheTemple_002
	POIN2	VoicesOfTheTemple_003
	POIN2	VoicesOfTheTemple_004
	POIN2	VoicesOfTheTemple_005
	POIN2	VoicesOfTheTemple_006

	
