	.include "MPlayDef.s"

	.equ	WarioBattleCanyon_grp, voicegroup000
	.equ	WarioBattleCanyon_pri, 0
	.equ	WarioBattleCanyon_rev, 0
	.equ	WarioBattleCanyon_mvl, 127
	.equ	WarioBattleCanyon_key, 0
	.equ	WarioBattleCanyon_tbs, 1
	.equ	WarioBattleCanyon_exg, 0
	.equ	WarioBattleCanyon_cmp, 1

	.section .rodata
	.global	WarioBattleCanyon
	.align	2


@**************** Track 1 (Midi-Chn.0) ****************@

WarioBattleCanyon_001:
@  #01 @000   ----------------------------------------
 .byte   KEYSH , WarioBattleCanyon_key+0
Label_0128A14E:
 .byte   TEMPO , 174*WarioBattleCanyon_tbs/2
 .byte   VOICE , 58
 .byte   VOL , 45*WarioBattleCanyon_mvl/mxv
 .byte   PAN , c_v+0
 .byte   N12 ,Cn1 ,v100
 .byte   W24
 .byte   Gn1
 .byte   W24
 .byte   N24 ,Gs1
 .byte   W24
 .byte   N12 ,Bn1
 .byte   W24
@  #01 @001   ----------------------------------------
Label_0128A162:
 .byte   N12 ,Cn1 ,v100
 .byte   W24
 .byte   Gn1
 .byte   W24
 .byte   N24 ,Gs1
 .byte   W24
 .byte   N12 ,Bn1
 .byte   W24
 .byte   PEND 
@  #01 @002   ----------------------------------------
 .byte   PATT
  .word Label_0128A162
@  #01 @003   ----------------------------------------
Label_0128A174:
 .byte   N24 ,Cn2 ,v100
 .byte   W24
 .byte   N12 ,Dn2
 .byte   W24
 .byte   N24 ,Cn2
 .byte   W24
 .byte   N12 ,Bn1
 .byte   W24
 .byte   PEND 
@  #01 @004   ----------------------------------------
 .byte   PATT
  .word Label_0128A162
@  #01 @005   ----------------------------------------
 .byte   PATT
  .word Label_0128A162
@  #01 @006   ----------------------------------------
 .byte   PATT
  .word Label_0128A162
@  #01 @007   ----------------------------------------
 .byte   N12 ,Cn2 ,v100
 .byte   W24
 .byte   Dn2
 .byte   W72
@  #01 @008   ----------------------------------------
Label_0128A197:
 .byte   N18 ,Cn1 ,v127
 .byte   W48
 .byte   Gn0
 .byte   W48
 .byte   PEND 
@  #01 @009   ----------------------------------------
 .byte   PATT
  .word Label_0128A197
@  #01 @010   ----------------------------------------
 .byte   PATT
  .word Label_0128A197
@  #01 @011   ----------------------------------------
 .byte   PATT
  .word Label_0128A197
@  #01 @012   ----------------------------------------
 .byte   PATT
  .word Label_0128A197
@  #01 @013   ----------------------------------------
 .byte   PATT
  .word Label_0128A197
@  #01 @014   ----------------------------------------
 .byte   PATT
  .word Label_0128A197
@  #01 @015   ----------------------------------------
 .byte   N12 ,Cn1 ,v127
 .byte   W24
 .byte   Gn0
 .byte   W72
@  #01 @016   ----------------------------------------
 .byte   W96
@  #01 @017   ----------------------------------------
 .byte   W96
@  #01 @018   ----------------------------------------
 .byte   W96
@  #01 @019   ----------------------------------------
 .byte   W96
@  #01 @020   ----------------------------------------
 .byte   W96
@  #01 @021   ----------------------------------------
 .byte   W96
@  #01 @022   ----------------------------------------
 .byte   W96
@  #01 @023   ----------------------------------------
 .byte   W96
@  #01 @024   ----------------------------------------
 .byte   W96
@  #01 @025   ----------------------------------------
 .byte   W96
@  #01 @026   ----------------------------------------
 .byte   W96
@  #01 @027   ----------------------------------------
 .byte   W96
@  #01 @028   ----------------------------------------
 .byte   W96
@  #01 @029   ----------------------------------------
 .byte   W96
@  #01 @030   ----------------------------------------
 .byte   W96
@  #01 @031   ----------------------------------------
 .byte   W96
@  #01 @032   ----------------------------------------
 .byte   Gs1 ,v100
 .byte   W48
 .byte   Gn1
 .byte   W24
 .byte   Fs1
 .byte   W24
@  #01 @033   ----------------------------------------
 .byte   Fn1
 .byte   W24
 .byte   En1
 .byte   W24
 .byte   Ds1
 .byte   W24
 .byte   Dn1
 .byte   W24
@  #01 @034   ----------------------------------------
 .byte   TIE ,Cs1
 .byte   W96
@  #01 @035   ----------------------------------------
 .byte   W48
 .byte   EOT
 .byte   W48
@  #01 @036   ----------------------------------------
 .byte   N12 ,Cn1
 .byte   W24
 .byte   Gn1
 .byte   W24
 .byte   N24 ,Gs1
 .byte   W24
 .byte   N12 ,Bn1
 .byte   W24
@  #01 @037   ----------------------------------------
 .byte   PATT
  .word Label_0128A162
@  #01 @038   ----------------------------------------
 .byte   PATT
  .word Label_0128A162
@  #01 @039   ----------------------------------------
 .byte   PATT
  .word Label_0128A174
@  #01 @040   ----------------------------------------
 .byte   N12 ,Cn1 ,v100
 .byte   W24
 .byte   Gn1 ,v088
 .byte   W24
 .byte   N24 ,Gs1 ,v076
 .byte   W24
 .byte   N12 ,Bn1 ,v064
 .byte   W24
@  #01 @041   ----------------------------------------
 .byte   Cn1 ,v052
 .byte   W24
 .byte   Gn1 ,v040
 .byte   W24
 .byte   N24 ,Gs1 ,v028
 .byte   W24
 .byte   N12 ,Bn1 ,v016
 .byte   W24
@  #01 @042   ----------------------------------------
 .byte   GOTO
  .word Label_0128A14E
 .byte   FINE

@**************** Track 2 (Midi-Chn.1) ****************@

WarioBattleCanyon_002:
@  #02 @000   ----------------------------------------
 .byte   KEYSH , WarioBattleCanyon_key+0
Label_0128A226:
 .byte   VOICE , 50
 .byte   VOL , 15*WarioBattleCanyon_mvl/mxv
 .byte   PAN , c_v+0
 .byte   N12 ,Cn1 ,v100
 .byte   W24
 .byte   Gn1
 .byte   W72
@  #02 @001   ----------------------------------------
Label_0128A232:
 .byte   N12 ,Cn1 ,v100
 .byte   W24
 .byte   Gn1
 .byte   W72
 .byte   PEND 
@  #02 @002   ----------------------------------------
 .byte   PATT
  .word Label_0128A232
@  #02 @003   ----------------------------------------
Label_0128A23E:
 .byte   N12 ,Cn1 ,v100
 .byte   W24
 .byte   Gn1
 .byte   W24
 .byte   Cn1
 .byte   W24
 .byte   Gn0
 .byte   W24
 .byte   PEND 
@  #02 @004   ----------------------------------------
 .byte   PATT
  .word Label_0128A232
@  #02 @005   ----------------------------------------
 .byte   PATT
  .word Label_0128A232
@  #02 @006   ----------------------------------------
 .byte   PATT
  .word Label_0128A232
@  #02 @007   ----------------------------------------
 .byte   N12 ,Fs1 ,v116
 .byte   N12 ,Fs2
 .byte   W24
 .byte   Gn1 ,v120
 .byte   N12 ,Gn2 ,v116
 .byte   W72
@  #02 @008   ----------------------------------------
 .byte   W96
@  #02 @009   ----------------------------------------
 .byte   W96
@  #02 @010   ----------------------------------------
 .byte   W96
@  #02 @011   ----------------------------------------
 .byte   W96
@  #02 @012   ----------------------------------------
 .byte   W96
@  #02 @013   ----------------------------------------
 .byte   W96
@  #02 @014   ----------------------------------------
 .byte   W96
@  #02 @015   ----------------------------------------
 .byte   W96
@  #02 @016   ----------------------------------------
Label_0128A26C:
 .byte   N48 ,Ds3 ,v080
 .byte   W48
 .byte   N12 ,Dn3
 .byte   W48
 .byte   PEND 
@  #02 @017   ----------------------------------------
 .byte   PATT
  .word Label_0128A26C
@  #02 @018   ----------------------------------------
 .byte   PATT
  .word Label_0128A26C
@  #02 @019   ----------------------------------------
Label_0128A27E:
 .byte   N60 ,Cs3 ,v080
 .byte   W72
 .byte   N12
 .byte   W12
 .byte   Dn3
 .byte   W12
 .byte   PEND 
@  #02 @020   ----------------------------------------
 .byte   PATT
  .word Label_0128A26C
@  #02 @021   ----------------------------------------
 .byte   PATT
  .word Label_0128A26C
@  #02 @022   ----------------------------------------
 .byte   PATT
  .word Label_0128A26C
@  #02 @023   ----------------------------------------
Label_0128A296:
 .byte   N72 ,Cs3 ,v080
 .byte   W72
 .byte   N12
 .byte   W12
 .byte   Dn3
 .byte   W12
 .byte   PEND 
@  #02 @024   ----------------------------------------
 .byte   PATT
  .word Label_0128A26C
@  #02 @025   ----------------------------------------
 .byte   PATT
  .word Label_0128A26C
@  #02 @026   ----------------------------------------
 .byte   PATT
  .word Label_0128A26C
@  #02 @027   ----------------------------------------
 .byte   PATT
  .word Label_0128A27E
@  #02 @028   ----------------------------------------
 .byte   PATT
  .word Label_0128A26C
@  #02 @029   ----------------------------------------
 .byte   PATT
  .word Label_0128A26C
@  #02 @030   ----------------------------------------
 .byte   PATT
  .word Label_0128A26C
@  #02 @031   ----------------------------------------
 .byte   PATT
  .word Label_0128A296
@  #02 @032   ----------------------------------------
 .byte   W96
@  #02 @033   ----------------------------------------
 .byte   W96
@  #02 @034   ----------------------------------------
 .byte   W96
@  #02 @035   ----------------------------------------
 .byte   W96
@  #02 @036   ----------------------------------------
 .byte   N12 ,Cn1 ,v100
 .byte   W24
 .byte   Gn1
 .byte   W72
@  #02 @037   ----------------------------------------
 .byte   PATT
  .word Label_0128A232
@  #02 @038   ----------------------------------------
 .byte   PATT
  .word Label_0128A232
@  #02 @039   ----------------------------------------
 .byte   PATT
  .word Label_0128A23E
@  #02 @040   ----------------------------------------
 .byte   N12 ,Cn1 ,v104
 .byte   W24
 .byte   Gn1 ,v092
 .byte   W72
@  #02 @041   ----------------------------------------
 .byte   Cn1 ,v052
 .byte   W24
 .byte   Gn1 ,v040
 .byte   W72
@  #02 @042   ----------------------------------------
 .byte   GOTO
  .word Label_0128A226
 .byte   FINE

@**************** Track 3 (Midi-Chn.2) ****************@

WarioBattleCanyon_003:
@  #03 @000   ----------------------------------------
 .byte   KEYSH , WarioBattleCanyon_key+0
Label_0128A2F6:
 .byte   VOICE , 48
 .byte   VOL , 22*WarioBattleCanyon_mvl/mxv
 .byte   PAN , c_v+0
 .byte   W96
@  #03 @001   ----------------------------------------
 .byte   W96
@  #03 @002   ----------------------------------------
 .byte   W96
@  #03 @003   ----------------------------------------
 .byte   W96
@  #03 @004   ----------------------------------------
 .byte   W96
@  #03 @005   ----------------------------------------
 .byte   W96
@  #03 @006   ----------------------------------------
 .byte   W96
@  #03 @007   ----------------------------------------
 .byte   W96
@  #03 @008   ----------------------------------------
 .byte   W96
@  #03 @009   ----------------------------------------
 .byte   W96
@  #03 @010   ----------------------------------------
 .byte   W96
@  #03 @011   ----------------------------------------
 .byte   W96
@  #03 @012   ----------------------------------------
 .byte   W96
@  #03 @013   ----------------------------------------
 .byte   W96
@  #03 @014   ----------------------------------------
 .byte   W96
@  #03 @015   ----------------------------------------
 .byte   W96
@  #03 @016   ----------------------------------------
Label_0128A30C:
 .byte   N48 ,Bn4 ,v100
 .byte   N48 ,Ds5
 .byte   W48
 .byte   N12 ,As4
 .byte   N12 ,Dn5
 .byte   W48
 .byte   PEND 
@  #03 @017   ----------------------------------------
 .byte   PATT
  .word Label_0128A30C
@  #03 @018   ----------------------------------------
 .byte   PATT
  .word Label_0128A30C
@  #03 @019   ----------------------------------------
Label_0128A322:
 .byte   N72 ,An4 ,v100
 .byte   N72 ,Cs5
 .byte   W72
 .byte   N12 ,An4
 .byte   N12 ,Cs5
 .byte   W12
 .byte   As4
 .byte   N12 ,Dn5
 .byte   W12
 .byte   PEND 
@  #03 @020   ----------------------------------------
 .byte   PATT
  .word Label_0128A30C
@  #03 @021   ----------------------------------------
 .byte   PATT
  .word Label_0128A30C
@  #03 @022   ----------------------------------------
Label_0128A33C:
 .byte   N48 ,Bn4 ,v100
 .byte   N48 ,Ds5
 .byte   W48
 .byte   N12 ,Dn5
 .byte   N12 ,Fn5
 .byte   W48
 .byte   PEND 
@  #03 @023   ----------------------------------------
 .byte   N48 ,Cs5
 .byte   N48 ,Fs5
 .byte   W96
@  #03 @024   ----------------------------------------
 .byte   PATT
  .word Label_0128A30C
@  #03 @025   ----------------------------------------
 .byte   PATT
  .word Label_0128A30C
@  #03 @026   ----------------------------------------
 .byte   PATT
  .word Label_0128A30C
@  #03 @027   ----------------------------------------
 .byte   PATT
  .word Label_0128A322
@  #03 @028   ----------------------------------------
 .byte   PATT
  .word Label_0128A30C
@  #03 @029   ----------------------------------------
 .byte   PATT
  .word Label_0128A30C
@  #03 @030   ----------------------------------------
 .byte   PATT
  .word Label_0128A33C
@  #03 @031   ----------------------------------------
 .byte   N48 ,Cs5 ,v100
 .byte   N48 ,Fs5
 .byte   W96
@  #03 @032   ----------------------------------------
 .byte   W96
@  #03 @033   ----------------------------------------
 .byte   W96
@  #03 @034   ----------------------------------------
 .byte   W96
@  #03 @035   ----------------------------------------
 .byte   W96
@  #03 @036   ----------------------------------------
 .byte   W96
@  #03 @037   ----------------------------------------
 .byte   W96
@  #03 @038   ----------------------------------------
 .byte   W96
@  #03 @039   ----------------------------------------
 .byte   W96
@  #03 @040   ----------------------------------------
 .byte   W96
@  #03 @041   ----------------------------------------
 .byte   W96
@  #03 @042   ----------------------------------------
 .byte   GOTO
  .word Label_0128A2F6
 .byte   FINE

@**************** Track 4 (Midi-Chn.3) ****************@

WarioBattleCanyon_004:
@  #04 @000   ----------------------------------------
 .byte   KEYSH , WarioBattleCanyon_key+0
Label_0128A38A:
 .byte   VOICE , 10
 .byte   VOL , 17*WarioBattleCanyon_mvl/mxv
 .byte   PAN , c_v+0
 .byte   W48
 .byte   N24 ,Ds6 ,v100
 .byte   W24
 .byte   Dn6
 .byte   W24
@  #04 @001   ----------------------------------------
Label_0128A397:
 .byte   W48
 .byte   N24 ,Ds6 ,v100
 .byte   W24
 .byte   Dn6
 .byte   W24
 .byte   PEND 
@  #04 @002   ----------------------------------------
 .byte   PATT
  .word Label_0128A397
@  #04 @003   ----------------------------------------
Label_0128A3A4:
 .byte   N24 ,Ds6 ,v100
 .byte   W24
 .byte   N16 ,Fn6
 .byte   W16
 .byte   N04 ,Ds6
 .byte   W04
 .byte   Fn6
 .byte   W04
 .byte   N24 ,Ds6
 .byte   W24
 .byte   Dn6
 .byte   W24
 .byte   PEND 
@  #04 @004   ----------------------------------------
 .byte   PATT
  .word Label_0128A397
@  #04 @005   ----------------------------------------
 .byte   PATT
  .word Label_0128A397
@  #04 @006   ----------------------------------------
 .byte   PATT
  .word Label_0128A397
@  #04 @007   ----------------------------------------
 .byte   N24 ,Fs5 ,v100
 .byte   W24
 .byte   Gn5
 .byte   W72
@  #04 @008   ----------------------------------------
 .byte   W96
@  #04 @009   ----------------------------------------
 .byte   W96
@  #04 @010   ----------------------------------------
 .byte   W96
@  #04 @011   ----------------------------------------
 .byte   W96
@  #04 @012   ----------------------------------------
 .byte   W96
@  #04 @013   ----------------------------------------
 .byte   W96
@  #04 @014   ----------------------------------------
 .byte   W96
@  #04 @015   ----------------------------------------
 .byte   W96
@  #04 @016   ----------------------------------------
Label_0128A3D3:
 .byte   N24 ,Ds6 ,v100
 .byte   W48
 .byte   Dn6
 .byte   W48
 .byte   PEND 
@  #04 @017   ----------------------------------------
 .byte   PATT
  .word Label_0128A3D3
@  #04 @018   ----------------------------------------
 .byte   PATT
  .word Label_0128A3D3
@  #04 @019   ----------------------------------------
Label_0128A3E4:
 .byte   N24 ,Cs6 ,v100
 .byte   W72
 .byte   N12
 .byte   W12
 .byte   Dn6
 .byte   W12
 .byte   PEND 
@  #04 @020   ----------------------------------------
 .byte   PATT
  .word Label_0128A3D3
@  #04 @021   ----------------------------------------
 .byte   PATT
  .word Label_0128A3D3
@  #04 @022   ----------------------------------------
 .byte   PATT
  .word Label_0128A3D3
@  #04 @023   ----------------------------------------
Label_0128A3FC:
 .byte   N24 ,Fs6 ,v100
 .byte   W48
 .byte   Fn6
 .byte   W48
 .byte   PEND 
@  #04 @024   ----------------------------------------
 .byte   PATT
  .word Label_0128A3D3
@  #04 @025   ----------------------------------------
 .byte   PATT
  .word Label_0128A3D3
@  #04 @026   ----------------------------------------
 .byte   PATT
  .word Label_0128A3D3
@  #04 @027   ----------------------------------------
 .byte   PATT
  .word Label_0128A3E4
@  #04 @028   ----------------------------------------
 .byte   PATT
  .word Label_0128A3D3
@  #04 @029   ----------------------------------------
 .byte   PATT
  .word Label_0128A3D3
@  #04 @030   ----------------------------------------
 .byte   PATT
  .word Label_0128A3D3
@  #04 @031   ----------------------------------------
 .byte   PATT
  .word Label_0128A3FC
@  #04 @032   ----------------------------------------
 .byte   W96
@  #04 @033   ----------------------------------------
 .byte   W96
@  #04 @034   ----------------------------------------
 .byte   W96
@  #04 @035   ----------------------------------------
 .byte   W96
@  #04 @036   ----------------------------------------
 .byte   W48
 .byte   N24 ,Ds6 ,v100
 .byte   W24
 .byte   Dn6
 .byte   W24
@  #04 @037   ----------------------------------------
 .byte   PATT
  .word Label_0128A397
@  #04 @038   ----------------------------------------
 .byte   PATT
  .word Label_0128A397
@  #04 @039   ----------------------------------------
 .byte   PATT
  .word Label_0128A3A4
@  #04 @040   ----------------------------------------
 .byte   W48
 .byte   N24 ,Ds6 ,v076
 .byte   W24
 .byte   Dn6 ,v064
 .byte   W24
@  #04 @041   ----------------------------------------
 .byte   W48
 .byte   Ds6 ,v028
 .byte   W24
 .byte   Dn6 ,v012
 .byte   W24
@  #04 @042   ----------------------------------------
 .byte   GOTO
  .word Label_0128A38A
 .byte   FINE

@**************** Track 5 (Midi-Chn.4) ****************@

WarioBattleCanyon_005:
@  #05 @000   ----------------------------------------
 .byte   KEYSH , WarioBattleCanyon_key+0
Label_0128A45E:
 .byte   VOICE , 68
 .byte   VOL , 12*WarioBattleCanyon_mvl/mxv
 .byte   PAN , c_v+0
 .byte   W48
 .byte   N24 ,Cn3 ,v100
 .byte   N24 ,Ds3
 .byte   W24
 .byte   N12 ,Bn2
 .byte   N12 ,Dn3
 .byte   W24
@  #05 @001   ----------------------------------------
Label_0128A470:
 .byte   W48
 .byte   N24 ,Cn3 ,v100
 .byte   N24 ,Ds3
 .byte   W24
 .byte   N12 ,Bn2
 .byte   N12 ,Dn3
 .byte   W24
 .byte   PEND 
@  #05 @002   ----------------------------------------
 .byte   PATT
  .word Label_0128A470
@  #05 @003   ----------------------------------------
Label_0128A482:
 .byte   N24 ,Cn3 ,v100
 .byte   N24 ,Ds3
 .byte   W24
 .byte   N12 ,Dn3
 .byte   N12 ,Fn3
 .byte   W12
 .byte   N06 ,Cn3
 .byte   N06 ,Ds3
 .byte   W06
 .byte   Dn3
 .byte   N06 ,Fn3
 .byte   W06
 .byte   N24 ,Cn3
 .byte   N24 ,Ds3
 .byte   W24
 .byte   N12 ,Bn2
 .byte   N12 ,Dn3
 .byte   W24
 .byte   PEND 
@  #05 @004   ----------------------------------------
 .byte   PATT
  .word Label_0128A470
@  #05 @005   ----------------------------------------
 .byte   PATT
  .word Label_0128A470
@  #05 @006   ----------------------------------------
 .byte   PATT
  .word Label_0128A470
@  #05 @007   ----------------------------------------
 .byte   N12 ,Fs2 ,v127
 .byte   N12 ,Fs3
 .byte   W24
 .byte   Gn2
 .byte   N12 ,Gn3
 .byte   W72
@  #05 @008   ----------------------------------------
Label_0128A4BA:
 .byte   W24
 .byte   N12 ,Gn3 ,v100
 .byte   W12
 .byte   An3
 .byte   W12
 .byte   As3
 .byte   W24
 .byte   N12
 .byte   W24
 .byte   PEND 
@  #05 @009   ----------------------------------------
Label_0128A4C6:
 .byte   N12 ,As3 ,v100
 .byte   W24
 .byte   N12
 .byte   W24
 .byte   N12
 .byte   W12
 .byte   An3
 .byte   W12
 .byte   Gn3
 .byte   W24
 .byte   PEND 
@  #05 @010   ----------------------------------------
Label_0128A4D3:
 .byte   N24 ,Fs3 ,v100
 .byte   W24
 .byte   N12 ,Gn3
 .byte   W24
 .byte   N24 ,An3
 .byte   W24
 .byte   N12 ,Gn3
 .byte   W24
 .byte   PEND 
@  #05 @011   ----------------------------------------
 .byte   PATT
  .word Label_0128A4D3
@  #05 @012   ----------------------------------------
 .byte   PATT
  .word Label_0128A4BA
@  #05 @013   ----------------------------------------
 .byte   PATT
  .word Label_0128A4C6
@  #05 @014   ----------------------------------------
 .byte   PATT
  .word Label_0128A4D3
@  #05 @015   ----------------------------------------
 .byte   N12 ,Fs3 ,v100
 .byte   W24
 .byte   Gn3
 .byte   W72
@  #05 @016   ----------------------------------------
Label_0128A4FB:
 .byte   W24
 .byte   N12 ,Gs1 ,v127
 .byte   W48
 .byte   N12
 .byte   W24
 .byte   PEND 
@  #05 @017   ----------------------------------------
 .byte   PATT
  .word Label_0128A4FB
@  #05 @018   ----------------------------------------
 .byte   PATT
  .word Label_0128A4FB
@  #05 @019   ----------------------------------------
Label_0128A50D:
 .byte   W24
 .byte   N12 ,Fs1 ,v127
 .byte   W48
 .byte   N12
 .byte   W24
 .byte   PEND 
@  #05 @020   ----------------------------------------
 .byte   PATT
  .word Label_0128A4FB
@  #05 @021   ----------------------------------------
 .byte   PATT
  .word Label_0128A4FB
@  #05 @022   ----------------------------------------
 .byte   PATT
  .word Label_0128A4FB
@  #05 @023   ----------------------------------------
 .byte   PATT
  .word Label_0128A50D
@  #05 @024   ----------------------------------------
 .byte   PATT
  .word Label_0128A4FB
@  #05 @025   ----------------------------------------
 .byte   PATT
  .word Label_0128A4FB
@  #05 @026   ----------------------------------------
 .byte   PATT
  .word Label_0128A4FB
@  #05 @027   ----------------------------------------
 .byte   PATT
  .word Label_0128A50D
@  #05 @028   ----------------------------------------
 .byte   PATT
  .word Label_0128A4FB
@  #05 @029   ----------------------------------------
 .byte   PATT
  .word Label_0128A4FB
@  #05 @030   ----------------------------------------
 .byte   PATT
  .word Label_0128A4FB
@  #05 @031   ----------------------------------------
 .byte   PATT
  .word Label_0128A50D
@  #05 @032   ----------------------------------------
 .byte   N12 ,Gs1 ,v127
 .byte   W48
 .byte   Gn1
 .byte   W24
 .byte   Fs1
 .byte   W24
@  #05 @033   ----------------------------------------
 .byte   Fn1
 .byte   W24
 .byte   En1
 .byte   W24
 .byte   Ds1
 .byte   W24
 .byte   Dn1
 .byte   W24
@  #05 @034   ----------------------------------------
 .byte   TIE ,Cs1
 .byte   W96
@  #05 @035   ----------------------------------------
 .byte   W48
 .byte   EOT
 .byte   W48
@  #05 @036   ----------------------------------------
 .byte   W48
 .byte   N24 ,Cn3 ,v100
 .byte   N24 ,Ds3
 .byte   W24
 .byte   N12 ,Bn2
 .byte   N12 ,Dn3
 .byte   W24
@  #05 @037   ----------------------------------------
 .byte   PATT
  .word Label_0128A470
@  #05 @038   ----------------------------------------
 .byte   PATT
  .word Label_0128A470
@  #05 @039   ----------------------------------------
 .byte   PATT
  .word Label_0128A482
@  #05 @040   ----------------------------------------
 .byte   W48
 .byte   N24 ,Cn3 ,v076
 .byte   N24 ,Ds3
 .byte   W24
 .byte   N12 ,Bn2 ,v064
 .byte   N12 ,Dn3
 .byte   W24
@  #05 @041   ----------------------------------------
 .byte   W48
 .byte   N24 ,Cn3 ,v028
 .byte   N24 ,Ds3
 .byte   W24
 .byte   N12 ,Bn2 ,v016
 .byte   N12 ,Dn3
 .byte   W24
@  #05 @042   ----------------------------------------
 .byte   GOTO
  .word Label_0128A45E
 .byte   FINE

@**************** Track 6 (Midi-Chn.5) ****************@

WarioBattleCanyon_006:
@  #06 @000   ----------------------------------------
 .byte   KEYSH , WarioBattleCanyon_key+0
Label_0128A5A6:
 .byte   VOICE , 57
 .byte   VOL , 24*WarioBattleCanyon_mvl/mxv
 .byte   PAN , c_v+0
 .byte   W96
@  #06 @001   ----------------------------------------
 .byte   W96
@  #06 @002   ----------------------------------------
 .byte   W96
@  #06 @003   ----------------------------------------
 .byte   W96
@  #06 @004   ----------------------------------------
 .byte   W96
@  #06 @005   ----------------------------------------
 .byte   W96
@  #06 @006   ----------------------------------------
 .byte   W96
@  #06 @007   ----------------------------------------
 .byte   W96
@  #06 @008   ----------------------------------------
Label_0128A5B4:
 .byte   W24
 .byte   N12 ,Ds3 ,v100
 .byte   N12 ,Gn3
 .byte   W12
 .byte   Fs3
 .byte   N12 ,An3
 .byte   W12
 .byte   N09 ,Gn3
 .byte   N09 ,As3
 .byte   W24
 .byte   Gn3
 .byte   N09 ,As3
 .byte   W24
 .byte   PEND 
@  #06 @009   ----------------------------------------
Label_0128A5C9:
 .byte   N09 ,Gn3 ,v100
 .byte   N09 ,As3
 .byte   W24
 .byte   Gn3
 .byte   N09 ,As3
 .byte   W24
 .byte   N12 ,Gn3
 .byte   N12 ,As3
 .byte   W12
 .byte   Fs3
 .byte   N12 ,An3
 .byte   W12
 .byte   Ds3
 .byte   N12 ,Gn3
 .byte   W24
 .byte   PEND 
@  #06 @010   ----------------------------------------
Label_0128A5E1:
 .byte   N24 ,Dn3 ,v100
 .byte   N24 ,Fs3
 .byte   W24
 .byte   N09 ,Ds3
 .byte   N09 ,Gn3
 .byte   W24
 .byte   N24 ,Fs3
 .byte   N24 ,An3
 .byte   W24
 .byte   N09 ,Ds3
 .byte   N09 ,Gn3
 .byte   W24
 .byte   PEND 
@  #06 @011   ----------------------------------------
 .byte   PATT
  .word Label_0128A5E1
@  #06 @012   ----------------------------------------
 .byte   PATT
  .word Label_0128A5B4
@  #06 @013   ----------------------------------------
 .byte   PATT
  .word Label_0128A5C9
@  #06 @014   ----------------------------------------
 .byte   PATT
  .word Label_0128A5E1
@  #06 @015   ----------------------------------------
 .byte   N10 ,Dn3 ,v127
 .byte   N10 ,Fs3
 .byte   W24
 .byte   N12 ,Ds3
 .byte   N12 ,Gn3
 .byte   W72
@  #06 @016   ----------------------------------------
Label_0128A616:
 .byte   W24
 .byte   N24 ,Ds3 ,v068
 .byte   W24
 .byte   N12 ,Dn3
 .byte   W12
 .byte   Ds3
 .byte   W12
 .byte   Dn3
 .byte   W24
 .byte   PEND 
@  #06 @017   ----------------------------------------
 .byte   PATT
  .word Label_0128A616
@  #06 @018   ----------------------------------------
 .byte   PATT
  .word Label_0128A616
@  #06 @019   ----------------------------------------
Label_0128A62D:
 .byte   N72 ,Cs3 ,v068
 .byte   W72
 .byte   N12
 .byte   W12
 .byte   Dn3
 .byte   W12
 .byte   PEND 
@  #06 @020   ----------------------------------------
 .byte   PATT
  .word Label_0128A616
@  #06 @021   ----------------------------------------
 .byte   PATT
  .word Label_0128A616
@  #06 @022   ----------------------------------------
 .byte   PATT
  .word Label_0128A616
@  #06 @023   ----------------------------------------
 .byte   PATT
  .word Label_0128A62D
@  #06 @024   ----------------------------------------
 .byte   PATT
  .word Label_0128A616
@  #06 @025   ----------------------------------------
 .byte   PATT
  .word Label_0128A616
@  #06 @026   ----------------------------------------
 .byte   PATT
  .word Label_0128A616
@  #06 @027   ----------------------------------------
 .byte   PATT
  .word Label_0128A62D
@  #06 @028   ----------------------------------------
 .byte   PATT
  .word Label_0128A616
@  #06 @029   ----------------------------------------
 .byte   PATT
  .word Label_0128A616
@  #06 @030   ----------------------------------------
 .byte   PATT
  .word Label_0128A616
@  #06 @031   ----------------------------------------
 .byte   PATT
  .word Label_0128A62D
@  #06 @032   ----------------------------------------
 .byte   W96
@  #06 @033   ----------------------------------------
 .byte   W96
@  #06 @034   ----------------------------------------
 .byte   W96
@  #06 @035   ----------------------------------------
 .byte   W96
@  #06 @036   ----------------------------------------
 .byte   W96
@  #06 @037   ----------------------------------------
 .byte   W96
@  #06 @038   ----------------------------------------
 .byte   W96
@  #06 @039   ----------------------------------------
 .byte   W96
@  #06 @040   ----------------------------------------
 .byte   W96
@  #06 @041   ----------------------------------------
 .byte   W96
@  #06 @042   ----------------------------------------
 .byte   GOTO
  .word Label_0128A5A6
 .byte   FINE

@**************** Track 7 (Midi-Chn.6) ****************@

WarioBattleCanyon_007:
@  #07 @000   ----------------------------------------
 .byte   KEYSH , WarioBattleCanyon_key+0
Label_0128A686:
 .byte   VOICE , 73
 .byte   VOL , 3*WarioBattleCanyon_mvl/mxv
 .byte   PAN , c_v+0
 .byte   W96
@  #07 @001   ----------------------------------------
 .byte   W96
@  #07 @002   ----------------------------------------
 .byte   W96
@  #07 @003   ----------------------------------------
 .byte   W96
@  #07 @004   ----------------------------------------
 .byte   W96
@  #07 @005   ----------------------------------------
 .byte   W96
@  #07 @006   ----------------------------------------
 .byte   W96
@  #07 @007   ----------------------------------------
 .byte   W96
@  #07 @008   ----------------------------------------
Label_0128A694:
 .byte   W24
 .byte   N12 ,Gn5 ,v100
 .byte   W12
 .byte   An5
 .byte   W12
 .byte   As5
 .byte   W24
 .byte   N12
 .byte   W24
 .byte   PEND 
@  #07 @009   ----------------------------------------
Label_0128A6A0:
 .byte   N12 ,As5 ,v100
 .byte   W24
 .byte   N12
 .byte   W24
 .byte   N12
 .byte   W12
 .byte   An5
 .byte   W12
 .byte   Gn5
 .byte   W24
 .byte   PEND 
@  #07 @010   ----------------------------------------
Label_0128A6AD:
 .byte   N24 ,Fs5 ,v100
 .byte   W24
 .byte   N12 ,Gn5
 .byte   W24
 .byte   N24 ,An5
 .byte   W24
 .byte   N12 ,Gn5
 .byte   W24
 .byte   PEND 
@  #07 @011   ----------------------------------------
 .byte   PATT
  .word Label_0128A6AD
@  #07 @012   ----------------------------------------
 .byte   PATT
  .word Label_0128A694
@  #07 @013   ----------------------------------------
 .byte   PATT
  .word Label_0128A6A0
@  #07 @014   ----------------------------------------
 .byte   PATT
  .word Label_0128A6AD
@  #07 @015   ----------------------------------------
 .byte   N12 ,Fs5 ,v100
 .byte   W24
 .byte   Gn5
 .byte   W72
@  #07 @016   ----------------------------------------
 .byte   W96
@  #07 @017   ----------------------------------------
 .byte   W96
@  #07 @018   ----------------------------------------
 .byte   W96
@  #07 @019   ----------------------------------------
 .byte   W96
@  #07 @020   ----------------------------------------
 .byte   W96
@  #07 @021   ----------------------------------------
 .byte   W96
@  #07 @022   ----------------------------------------
 .byte   W96
@  #07 @023   ----------------------------------------
 .byte   W96
@  #07 @024   ----------------------------------------
 .byte   W96
@  #07 @025   ----------------------------------------
 .byte   W96
@  #07 @026   ----------------------------------------
 .byte   W96
@  #07 @027   ----------------------------------------
 .byte   W96
@  #07 @028   ----------------------------------------
 .byte   W96
@  #07 @029   ----------------------------------------
 .byte   W96
@  #07 @030   ----------------------------------------
 .byte   W96
@  #07 @031   ----------------------------------------
 .byte   W96
@  #07 @032   ----------------------------------------
 .byte   W24
 .byte   Gs3
 .byte   N12 ,Bn3
 .byte   N12 ,Ds4
 .byte   N12 ,Ds5
 .byte   W24
 .byte   Gn3
 .byte   N12 ,As3
 .byte   N12 ,Dn4
 .byte   N12 ,Dn5
 .byte   W24
 .byte   Fs3
 .byte   N12 ,An3
 .byte   N12 ,Cs4
 .byte   N12 ,Cs5
 .byte   W24
@  #07 @033   ----------------------------------------
 .byte   Fn3
 .byte   N12 ,Gs3
 .byte   N12 ,Cn4
 .byte   N12 ,Cn5
 .byte   W24
 .byte   En3
 .byte   N12 ,Gn3
 .byte   N12 ,Bn3
 .byte   N12 ,Bn4
 .byte   W24
 .byte   Ds3
 .byte   N12 ,Fs3
 .byte   N12 ,As3
 .byte   N12 ,As4
 .byte   W24
 .byte   Dn3
 .byte   N12 ,Fn3
 .byte   N12 ,An3
 .byte   N12 ,An4
 .byte   W24
@  #07 @034   ----------------------------------------
 .byte   TIE ,Cs3
 .byte   TIE ,En3
 .byte   TIE ,Gs3
 .byte   N06 ,Gs4
 .byte   W06
 .byte   An4
 .byte   W06
 .byte   Gs4
 .byte   W06
 .byte   An4
 .byte   W06
 .byte   Gs4
 .byte   W06
 .byte   An4
 .byte   W06
 .byte   Gs4
 .byte   W06
 .byte   An4
 .byte   W06
 .byte   Gs4
 .byte   W06
 .byte   An4
 .byte   W06
 .byte   Gs4
 .byte   W06
 .byte   An4
 .byte   W06
 .byte   Gs4
 .byte   W06
 .byte   An4
 .byte   W06
 .byte   Gs4
 .byte   W06
 .byte   An4
 .byte   W06
@  #07 @035   ----------------------------------------
 .byte   N48 ,Gs4
 .byte   W48
 .byte   EOT
 .byte   Cs3 ,v064
 .byte   Gs3
 .byte   W48
@  #07 @036   ----------------------------------------
 .byte   W96
@  #07 @037   ----------------------------------------
 .byte   W96
@  #07 @038   ----------------------------------------
 .byte   W96
@  #07 @039   ----------------------------------------
 .byte   W96
@  #07 @040   ----------------------------------------
 .byte   W96
@  #07 @041   ----------------------------------------
 .byte   W96
@  #07 @042   ----------------------------------------
 .byte   GOTO
  .word Label_0128A686
 .byte   FINE

@**************** Track 8 (Midi-Chn.7) ****************@

WarioBattleCanyon_008:
@  #08 @000   ----------------------------------------
 .byte   KEYSH , WarioBattleCanyon_key+0
Label_0128A75E:
 .byte   VOICE , 47
 .byte   VOL , 45*WarioBattleCanyon_mvl/mxv
 .byte   PAN , c_v+0
 .byte   W48
 .byte   N24 ,Cn2 ,v064
 .byte   W48
@  #08 @001   ----------------------------------------
 .byte   W48
 .byte   Gn1 ,v068
 .byte   W48
@  #08 @002   ----------------------------------------
 .byte   W48
 .byte   Cn2
 .byte   W48
@  #08 @003   ----------------------------------------
 .byte   W48
 .byte   Gn1
 .byte   W48
@  #08 @004   ----------------------------------------
 .byte   W48
 .byte   Cn2 ,v064
 .byte   W48
@  #08 @005   ----------------------------------------
 .byte   W48
 .byte   Gn1
 .byte   W48
@  #08 @006   ----------------------------------------
 .byte   W48
 .byte   Cn2
 .byte   W48
@  #08 @007   ----------------------------------------
Label_0128A77D:
 .byte   N24 ,Cn2 ,v127
 .byte   W24
 .byte   Gn1
 .byte   W72
 .byte   PEND 
@  #08 @008   ----------------------------------------
 .byte   W96
@  #08 @009   ----------------------------------------
 .byte   W96
@  #08 @010   ----------------------------------------
 .byte   W96
@  #08 @011   ----------------------------------------
 .byte   W96
@  #08 @012   ----------------------------------------
 .byte   W96
@  #08 @013   ----------------------------------------
 .byte   W96
@  #08 @014   ----------------------------------------
 .byte   W96
@  #08 @015   ----------------------------------------
 .byte   PATT
  .word Label_0128A77D
@  #08 @016   ----------------------------------------
 .byte   N24 ,Gs1 ,v127
 .byte   W96
@  #08 @017   ----------------------------------------
 .byte   N24
 .byte   W96
@  #08 @018   ----------------------------------------
 .byte   N24
 .byte   W96
@  #08 @019   ----------------------------------------
Label_0128A798:
 .byte   N24 ,Fs1 ,v127
 .byte   W72
 .byte   N12
 .byte   W12
 .byte   Gn1
 .byte   W12
 .byte   PEND 
@  #08 @020   ----------------------------------------
 .byte   N24 ,Gs1
 .byte   W96
@  #08 @021   ----------------------------------------
 .byte   N24
 .byte   W96
@  #08 @022   ----------------------------------------
 .byte   N24
 .byte   W96
@  #08 @023   ----------------------------------------
 .byte   An1
 .byte   W96
@  #08 @024   ----------------------------------------
 .byte   Gs1
 .byte   W96
@  #08 @025   ----------------------------------------
 .byte   N24
 .byte   W96
@  #08 @026   ----------------------------------------
 .byte   N24
 .byte   W96
@  #08 @027   ----------------------------------------
 .byte   PATT
  .word Label_0128A798
@  #08 @028   ----------------------------------------
 .byte   N24 ,Gs1 ,v127
 .byte   W96
@  #08 @029   ----------------------------------------
 .byte   N24
 .byte   W96
@  #08 @030   ----------------------------------------
 .byte   N24
 .byte   W96
@  #08 @031   ----------------------------------------
 .byte   An1
 .byte   W96
@  #08 @032   ----------------------------------------
 .byte   N12 ,Gs1
 .byte   W48
 .byte   Gn1 ,v072
 .byte   W24
 .byte   Fs1
 .byte   W24
@  #08 @033   ----------------------------------------
 .byte   Fn1
 .byte   W24
 .byte   En1
 .byte   W24
 .byte   Ds1
 .byte   W24
 .byte   Dn1
 .byte   W24
@  #08 @034   ----------------------------------------
 .byte   Cs1
 .byte   W96
@  #08 @035   ----------------------------------------
 .byte   W96
@  #08 @036   ----------------------------------------
 .byte   W48
 .byte   N24 ,Cn2 ,v100
 .byte   W48
@  #08 @037   ----------------------------------------
 .byte   W48
 .byte   Gn1
 .byte   W48
@  #08 @038   ----------------------------------------
 .byte   W48
 .byte   Cn2
 .byte   W48
@  #08 @039   ----------------------------------------
 .byte   W48
 .byte   Gn1
 .byte   W48
@  #08 @040   ----------------------------------------
 .byte   W48
 .byte   Cn2 ,v072
 .byte   W48
@  #08 @041   ----------------------------------------
 .byte   W48
 .byte   Gn1 ,v028
 .byte   W48
@  #08 @042   ----------------------------------------
 .byte   GOTO
  .word Label_0128A75E
 .byte   FINE

@**************** Track 9 (Midi-Chn.8) ****************@

WarioBattleCanyon_009:
@  #09 @000   ----------------------------------------
 .byte   KEYSH , WarioBattleCanyon_key+0
Label_0128A7F2:
 .byte   VOICE , 121
 .byte   VOL , 23*WarioBattleCanyon_mvl/mxv
 .byte   PAN , c_v+0
 .byte   N03 ,En1 ,v080
 .byte   W72
 .byte   En1 ,v072
 .byte   W12
 .byte   N03
 .byte   W12
@  #09 @001   ----------------------------------------
Label_0128A801:
 .byte   N03 ,En1 ,v080
 .byte   W72
 .byte   En1 ,v072
 .byte   W12
 .byte   N03
 .byte   W12
 .byte   PEND 
@  #09 @002   ----------------------------------------
 .byte   PATT
  .word Label_0128A801
@  #09 @003   ----------------------------------------
Label_0128A810:
 .byte   N03 ,En1 ,v072
 .byte   W24
 .byte   N03
 .byte   W24
 .byte   En1 ,v056
 .byte   W06
 .byte   En1 ,v052
 .byte   W06
 .byte   En1 ,v044
 .byte   W06
 .byte   N03
 .byte   W06
 .byte   En1 ,v060
 .byte   W12
 .byte   En1 ,v072
 .byte   W12
 .byte   PEND 
@  #09 @004   ----------------------------------------
 .byte   PATT
  .word Label_0128A801
@  #09 @005   ----------------------------------------
 .byte   PATT
  .word Label_0128A801
@  #09 @006   ----------------------------------------
 .byte   PATT
  .word Label_0128A801
@  #09 @007   ----------------------------------------
 .byte   N03 ,En1 ,v100
 .byte   W24
 .byte   Cs2 ,v127
 .byte   W24
 .byte   En1 ,v028
 .byte   W06
 .byte   En1 ,v036
 .byte   W06
 .byte   En1 ,v044
 .byte   W06
 .byte   En1 ,v048
 .byte   W06
 .byte   En1 ,v056
 .byte   W06
 .byte   En1 ,v064
 .byte   W06
 .byte   En1 ,v068
 .byte   W06
 .byte   En1 ,v076
 .byte   W06
@  #09 @008   ----------------------------------------
Label_0128A856:
 .byte   N03 ,En1 ,v084
 .byte   N03 ,Cs2 ,v127
 .byte   W24
 .byte   En1 ,v080
 .byte   W12
 .byte   En1 ,v064
 .byte   W12
 .byte   En1 ,v080
 .byte   W24
 .byte   En1 ,v064
 .byte   W24
 .byte   PEND 
@  #09 @009   ----------------------------------------
Label_0128A86A:
 .byte   N03 ,En1 ,v080
 .byte   N03 ,Cs2 ,v127
 .byte   W24
 .byte   En1 ,v080
 .byte   W12
 .byte   En1 ,v072
 .byte   W12
 .byte   En1 ,v080
 .byte   W24
 .byte   N03
 .byte   W12
 .byte   En1 ,v068
 .byte   W12
 .byte   PEND 
@  #09 @010   ----------------------------------------
 .byte   N03
 .byte   N03 ,Cs2 ,v127
 .byte   W24
 .byte   En1 ,v068
 .byte   W24
 .byte   N03
 .byte   W24
 .byte   N03
 .byte   W06
 .byte   N03
 .byte   W06
 .byte   N03
 .byte   W12
@  #09 @011   ----------------------------------------
 .byte   N03
 .byte   N03 ,Cs2 ,v127
 .byte   W24
 .byte   En1 ,v068
 .byte   W24
 .byte   N03
 .byte   W24
 .byte   N03
 .byte   W12
 .byte   N03
 .byte   W12
@  #09 @012   ----------------------------------------
 .byte   PATT
  .word Label_0128A856
@  #09 @013   ----------------------------------------
 .byte   PATT
  .word Label_0128A86A
@  #09 @014   ----------------------------------------
 .byte   N03 ,En1 ,v068
 .byte   N03 ,Cs2 ,v127
 .byte   W24
 .byte   En1 ,v068
 .byte   W24
 .byte   N03
 .byte   W24
 .byte   N03
 .byte   W06
 .byte   N03
 .byte   W06
 .byte   N03
 .byte   W06
 .byte   En1 ,v044
 .byte   W06
@  #09 @015   ----------------------------------------
 .byte   En1 ,v068
 .byte   N03 ,Cs2 ,v127
 .byte   W24
 .byte   En1 ,v068
 .byte   N03 ,Cs2 ,v127
 .byte   W72
@  #09 @016   ----------------------------------------
Label_0128A8C9:
 .byte   N03 ,En1 ,v068
 .byte   W72
 .byte   N03
 .byte   W12
 .byte   N03
 .byte   W12
 .byte   PEND 
@  #09 @017   ----------------------------------------
 .byte   PATT
  .word Label_0128A8C9
@  #09 @018   ----------------------------------------
 .byte   PATT
  .word Label_0128A8C9
@  #09 @019   ----------------------------------------
Label_0128A8DC:
 .byte   N03 ,En1 ,v068
 .byte   W24
 .byte   N03
 .byte   W24
 .byte   N03
 .byte   W06
 .byte   En1 ,v064
 .byte   W06
 .byte   En1 ,v056
 .byte   W06
 .byte   N03
 .byte   W06
 .byte   En1 ,v064
 .byte   W12
 .byte   En1 ,v068
 .byte   W12
 .byte   PEND 
@  #09 @020   ----------------------------------------
 .byte   PATT
  .word Label_0128A8C9
@  #09 @021   ----------------------------------------
 .byte   PATT
  .word Label_0128A8C9
@  #09 @022   ----------------------------------------
 .byte   PATT
  .word Label_0128A8C9
@  #09 @023   ----------------------------------------
 .byte   PATT
  .word Label_0128A8DC
@  #09 @024   ----------------------------------------
 .byte   PATT
  .word Label_0128A8C9
@  #09 @025   ----------------------------------------
 .byte   PATT
  .word Label_0128A8C9
@  #09 @026   ----------------------------------------
 .byte   PATT
  .word Label_0128A8C9
@  #09 @027   ----------------------------------------
 .byte   PATT
  .word Label_0128A8DC
@  #09 @028   ----------------------------------------
 .byte   PATT
  .word Label_0128A8C9
@  #09 @029   ----------------------------------------
 .byte   PATT
  .word Label_0128A8C9
@  #09 @030   ----------------------------------------
 .byte   PATT
  .word Label_0128A8C9
@  #09 @031   ----------------------------------------
 .byte   PATT
  .word Label_0128A8DC
@  #09 @032   ----------------------------------------
 .byte   N03 ,Cs2 ,v127
 .byte   W96
@  #09 @033   ----------------------------------------
 .byte   W96
@  #09 @034   ----------------------------------------
 .byte   W96
@  #09 @035   ----------------------------------------
 .byte   W96
@  #09 @036   ----------------------------------------
 .byte   En1 ,v080
 .byte   W72
 .byte   En1 ,v072
 .byte   W12
 .byte   N03
 .byte   W12
@  #09 @037   ----------------------------------------
 .byte   PATT
  .word Label_0128A801
@  #09 @038   ----------------------------------------
 .byte   PATT
  .word Label_0128A801
@  #09 @039   ----------------------------------------
 .byte   PATT
  .word Label_0128A810
@  #09 @040   ----------------------------------------
 .byte   N03 ,En1 ,v076
 .byte   W72
 .byte   En1 ,v048
 .byte   W12
 .byte   En1 ,v044
 .byte   W12
@  #09 @041   ----------------------------------------
 .byte   En1 ,v040
 .byte   W72
 .byte   En1 ,v012
 .byte   W12
 .byte   En1 ,v008
 .byte   W12
@  #09 @042   ----------------------------------------
 .byte   GOTO
  .word Label_0128A7F2
 .byte   FINE

@**************** Track 10 (Midi-Chn.9) ****************@

WarioBattleCanyon_010:
@  #10 @000   ----------------------------------------
 .byte   KEYSH , WarioBattleCanyon_key+0
Label_0128A96A:
 .byte   VOICE , 119
 .byte   VOL , 34*WarioBattleCanyon_mvl/mxv
 .byte   PAN , c_v+0
 .byte   W96
@  #10 @001   ----------------------------------------
 .byte   W96
@  #10 @002   ----------------------------------------
 .byte   W96
@  #10 @003   ----------------------------------------
 .byte   W96
@  #10 @004   ----------------------------------------
 .byte   W96
@  #10 @005   ----------------------------------------
 .byte   W96
@  #10 @006   ----------------------------------------
 .byte   W96
@  #10 @007   ----------------------------------------
 .byte   W48
 .byte   N72 ,Cn3 ,v100
 .byte   W48
@  #10 @008   ----------------------------------------
 .byte   W96
@  #10 @009   ----------------------------------------
 .byte   W96
@  #10 @010   ----------------------------------------
 .byte   W96
@  #10 @011   ----------------------------------------
 .byte   W96
@  #10 @012   ----------------------------------------
 .byte   W96
@  #10 @013   ----------------------------------------
 .byte   W96
@  #10 @014   ----------------------------------------
 .byte   W96
@  #10 @015   ----------------------------------------
 .byte   W48
 .byte   N48 ,Cn2
 .byte   W48
@  #10 @016   ----------------------------------------
 .byte   W96
@  #10 @017   ----------------------------------------
 .byte   W96
@  #10 @018   ----------------------------------------
 .byte   W96
@  #10 @019   ----------------------------------------
 .byte   W96
@  #10 @020   ----------------------------------------
 .byte   W96
@  #10 @021   ----------------------------------------
 .byte   W96
@  #10 @022   ----------------------------------------
 .byte   W96
@  #10 @023   ----------------------------------------
 .byte   W96
@  #10 @024   ----------------------------------------
 .byte   W96
@  #10 @025   ----------------------------------------
 .byte   W96
@  #10 @026   ----------------------------------------
 .byte   W96
@  #10 @027   ----------------------------------------
 .byte   W96
@  #10 @028   ----------------------------------------
 .byte   W96
@  #10 @029   ----------------------------------------
 .byte   W96
@  #10 @030   ----------------------------------------
 .byte   W96
@  #10 @031   ----------------------------------------
 .byte   W96
@  #10 @032   ----------------------------------------
 .byte   W96
@  #10 @033   ----------------------------------------
 .byte   W96
@  #10 @034   ----------------------------------------
 .byte   W96
@  #10 @035   ----------------------------------------
 .byte   W96
@  #10 @036   ----------------------------------------
 .byte   W96
@  #10 @037   ----------------------------------------
 .byte   W96
@  #10 @038   ----------------------------------------
 .byte   W96
@  #10 @039   ----------------------------------------
 .byte   W96
@  #10 @040   ----------------------------------------
 .byte   W96
@  #10 @041   ----------------------------------------
 .byte   W96
@  #10 @042   ----------------------------------------
 .byte   GOTO
  .word Label_0128A96A
 .byte   FINE

@******************************************************@
	.align	2

WarioBattleCanyon:
	.byte	10	@ NumTrks
	.byte	0	@ NumBlks
	.byte	WarioBattleCanyon_pri	@ Priority
	.byte	WarioBattleCanyon_rev	@ Reverb.
    
	.word	WarioBattleCanyon_grp
    
	.word	WarioBattleCanyon_001
	.word	WarioBattleCanyon_002
	.word	WarioBattleCanyon_003
	.word	WarioBattleCanyon_004
	.word	WarioBattleCanyon_005
	.word	WarioBattleCanyon_006
	.word	WarioBattleCanyon_007
	.word	WarioBattleCanyon_008
	.word	WarioBattleCanyon_009
	.word	WarioBattleCanyon_010

	.end
