//Event file generated from Sappy .s format.
	

	#define	WarioBattleCanyon_grp  voicegroup000
	#define	WarioBattleCanyon_pri  0
	#define	WarioBattleCanyon_rev  0
	#define	WarioBattleCanyon_mvl  127
	#define	WarioBattleCanyon_key  0
	#define	WarioBattleCanyon_tbs  1
	#define	WarioBattleCanyon_exg  0
	#define	WarioBattleCanyon_cmp  1

	// .rodata
	//	WarioBattleCanyon
	ALIGN 4


//**************** Track 1 (Midi-Chn.0) ****************//

WarioBattleCanyon_001:
//  #01 //000   ----------------------------------------
 BYTE   KEYSH   WarioBattleCanyon_key+0
Label_0128A14E:
 BYTE   TEMPO   174*WarioBattleCanyon_tbs/2
 BYTE   VOICE   58
 BYTE   VOL   45*WarioBattleCanyon_mvl/mxv
 BYTE   PAN   c_v+0
 BYTE   N12  Cn1  v100
 BYTE   W24
 BYTE   Gn1
 BYTE   W24
 BYTE   N24  Gs1
 BYTE   W24
 BYTE   N12  Bn1
 BYTE   W24
//  #01 //001   ----------------------------------------
Label_0128A162:
 BYTE   N12  Cn1  v100
 BYTE   W24
 BYTE   Gn1
 BYTE   W24
 BYTE   N24  Gs1
 BYTE   W24
 BYTE   N12  Bn1
 BYTE   W24
 BYTE   PEND 
//  #01 //002   ----------------------------------------
 BYTE   PATT
  POIN2 Label_0128A162
//  #01 //003   ----------------------------------------
Label_0128A174:
 BYTE   N24  Cn2  v100
 BYTE   W24
 BYTE   N12  Dn2
 BYTE   W24
 BYTE   N24  Cn2
 BYTE   W24
 BYTE   N12  Bn1
 BYTE   W24
 BYTE   PEND 
//  #01 //004   ----------------------------------------
 BYTE   PATT
  POIN2 Label_0128A162
//  #01 //005   ----------------------------------------
 BYTE   PATT
  POIN2 Label_0128A162
//  #01 //006   ----------------------------------------
 BYTE   PATT
  POIN2 Label_0128A162
//  #01 //007   ----------------------------------------
 BYTE   N12  Cn2  v100
 BYTE   W24
 BYTE   Dn2
 BYTE   W72
//  #01 //008   ----------------------------------------
Label_0128A197:
 BYTE   N18  Cn1  v127
 BYTE   W48
 BYTE   Gn0
 BYTE   W48
 BYTE   PEND 
//  #01 //009   ----------------------------------------
 BYTE   PATT
  POIN2 Label_0128A197
//  #01 //010   ----------------------------------------
 BYTE   PATT
  POIN2 Label_0128A197
//  #01 //011   ----------------------------------------
 BYTE   PATT
  POIN2 Label_0128A197
//  #01 //012   ----------------------------------------
 BYTE   PATT
  POIN2 Label_0128A197
//  #01 //013   ----------------------------------------
 BYTE   PATT
  POIN2 Label_0128A197
//  #01 //014   ----------------------------------------
 BYTE   PATT
  POIN2 Label_0128A197
//  #01 //015   ----------------------------------------
 BYTE   N12  Cn1  v127
 BYTE   W24
 BYTE   Gn0
 BYTE   W72
//  #01 //016   ----------------------------------------
 BYTE   W96
//  #01 //017   ----------------------------------------
 BYTE   W96
//  #01 //018   ----------------------------------------
 BYTE   W96
//  #01 //019   ----------------------------------------
 BYTE   W96
//  #01 //020   ----------------------------------------
 BYTE   W96
//  #01 //021   ----------------------------------------
 BYTE   W96
//  #01 //022   ----------------------------------------
 BYTE   W96
//  #01 //023   ----------------------------------------
 BYTE   W96
//  #01 //024   ----------------------------------------
 BYTE   W96
//  #01 //025   ----------------------------------------
 BYTE   W96
//  #01 //026   ----------------------------------------
 BYTE   W96
//  #01 //027   ----------------------------------------
 BYTE   W96
//  #01 //028   ----------------------------------------
 BYTE   W96
//  #01 //029   ----------------------------------------
 BYTE   W96
//  #01 //030   ----------------------------------------
 BYTE   W96
//  #01 //031   ----------------------------------------
 BYTE   W96
//  #01 //032   ----------------------------------------
 BYTE   Gs1  v100
 BYTE   W48
 BYTE   Gn1
 BYTE   W24
 BYTE   Fs1
 BYTE   W24
//  #01 //033   ----------------------------------------
 BYTE   Fn1
 BYTE   W24
 BYTE   En1
 BYTE   W24
 BYTE   Ds1
 BYTE   W24
 BYTE   Dn1
 BYTE   W24
//  #01 //034   ----------------------------------------
 BYTE   TIE  Cs1
 BYTE   W96
//  #01 //035   ----------------------------------------
 BYTE   W48
 BYTE   EOT
 BYTE   W48
//  #01 //036   ----------------------------------------
 BYTE   N12  Cn1
 BYTE   W24
 BYTE   Gn1
 BYTE   W24
 BYTE   N24  Gs1
 BYTE   W24
 BYTE   N12  Bn1
 BYTE   W24
//  #01 //037   ----------------------------------------
 BYTE   PATT
  POIN2 Label_0128A162
//  #01 //038   ----------------------------------------
 BYTE   PATT
  POIN2 Label_0128A162
//  #01 //039   ----------------------------------------
 BYTE   PATT
  POIN2 Label_0128A174
//  #01 //040   ----------------------------------------
 BYTE   N12  Cn1  v100
 BYTE   W24
 BYTE   Gn1  v088
 BYTE   W24
 BYTE   N24  Gs1  v076
 BYTE   W24
 BYTE   N12  Bn1  v064
 BYTE   W24
//  #01 //041   ----------------------------------------
 BYTE   Cn1  v052
 BYTE   W24
 BYTE   Gn1  v040
 BYTE   W24
 BYTE   N24  Gs1  v028
 BYTE   W24
 BYTE   N12  Bn1  v016
 BYTE   W24
//  #01 //042   ----------------------------------------
 BYTE   GoTo
  POIN2 Label_0128A14E
 BYTE   FINE

//**************** Track 2 (Midi-Chn.1) ****************//

WarioBattleCanyon_002:
//  #02 //000   ----------------------------------------
 BYTE   KEYSH   WarioBattleCanyon_key+0
Label_0128A226:
 BYTE   VOICE   50
 BYTE   VOL   15*WarioBattleCanyon_mvl/mxv
 BYTE   PAN   c_v+0
 BYTE   N12  Cn1  v100
 BYTE   W24
 BYTE   Gn1
 BYTE   W72
//  #02 //001   ----------------------------------------
Label_0128A232:
 BYTE   N12  Cn1  v100
 BYTE   W24
 BYTE   Gn1
 BYTE   W72
 BYTE   PEND 
//  #02 //002   ----------------------------------------
 BYTE   PATT
  POIN2 Label_0128A232
//  #02 //003   ----------------------------------------
Label_0128A23E:
 BYTE   N12  Cn1  v100
 BYTE   W24
 BYTE   Gn1
 BYTE   W24
 BYTE   Cn1
 BYTE   W24
 BYTE   Gn0
 BYTE   W24
 BYTE   PEND 
//  #02 //004   ----------------------------------------
 BYTE   PATT
  POIN2 Label_0128A232
//  #02 //005   ----------------------------------------
 BYTE   PATT
  POIN2 Label_0128A232
//  #02 //006   ----------------------------------------
 BYTE   PATT
  POIN2 Label_0128A232
//  #02 //007   ----------------------------------------
 BYTE   N12  Fs1  v116
 BYTE   N12  Fs2
 BYTE   W24
 BYTE   Gn1  v120
 BYTE   N12  Gn2  v116
 BYTE   W72
//  #02 //008   ----------------------------------------
 BYTE   W96
//  #02 //009   ----------------------------------------
 BYTE   W96
//  #02 //010   ----------------------------------------
 BYTE   W96
//  #02 //011   ----------------------------------------
 BYTE   W96
//  #02 //012   ----------------------------------------
 BYTE   W96
//  #02 //013   ----------------------------------------
 BYTE   W96
//  #02 //014   ----------------------------------------
 BYTE   W96
//  #02 //015   ----------------------------------------
 BYTE   W96
//  #02 //016   ----------------------------------------
Label_0128A26C:
 BYTE   N48  Ds3  v080
 BYTE   W48
 BYTE   N12  Dn3
 BYTE   W48
 BYTE   PEND 
//  #02 //017   ----------------------------------------
 BYTE   PATT
  POIN2 Label_0128A26C
//  #02 //018   ----------------------------------------
 BYTE   PATT
  POIN2 Label_0128A26C
//  #02 //019   ----------------------------------------
Label_0128A27E:
 BYTE   N60  Cs3  v080
 BYTE   W72
 BYTE   N12
 BYTE   W12
 BYTE   Dn3
 BYTE   W12
 BYTE   PEND 
//  #02 //020   ----------------------------------------
 BYTE   PATT
  POIN2 Label_0128A26C
//  #02 //021   ----------------------------------------
 BYTE   PATT
  POIN2 Label_0128A26C
//  #02 //022   ----------------------------------------
 BYTE   PATT
  POIN2 Label_0128A26C
//  #02 //023   ----------------------------------------
Label_0128A296:
 BYTE   N72  Cs3  v080
 BYTE   W72
 BYTE   N12
 BYTE   W12
 BYTE   Dn3
 BYTE   W12
 BYTE   PEND 
//  #02 //024   ----------------------------------------
 BYTE   PATT
  POIN2 Label_0128A26C
//  #02 //025   ----------------------------------------
 BYTE   PATT
  POIN2 Label_0128A26C
//  #02 //026   ----------------------------------------
 BYTE   PATT
  POIN2 Label_0128A26C
//  #02 //027   ----------------------------------------
 BYTE   PATT
  POIN2 Label_0128A27E
//  #02 //028   ----------------------------------------
 BYTE   PATT
  POIN2 Label_0128A26C
//  #02 //029   ----------------------------------------
 BYTE   PATT
  POIN2 Label_0128A26C
//  #02 //030   ----------------------------------------
 BYTE   PATT
  POIN2 Label_0128A26C
//  #02 //031   ----------------------------------------
 BYTE   PATT
  POIN2 Label_0128A296
//  #02 //032   ----------------------------------------
 BYTE   W96
//  #02 //033   ----------------------------------------
 BYTE   W96
//  #02 //034   ----------------------------------------
 BYTE   W96
//  #02 //035   ----------------------------------------
 BYTE   W96
//  #02 //036   ----------------------------------------
 BYTE   N12  Cn1  v100
 BYTE   W24
 BYTE   Gn1
 BYTE   W72
//  #02 //037   ----------------------------------------
 BYTE   PATT
  POIN2 Label_0128A232
//  #02 //038   ----------------------------------------
 BYTE   PATT
  POIN2 Label_0128A232
//  #02 //039   ----------------------------------------
 BYTE   PATT
  POIN2 Label_0128A23E
//  #02 //040   ----------------------------------------
 BYTE   N12  Cn1  v104
 BYTE   W24
 BYTE   Gn1  v092
 BYTE   W72
//  #02 //041   ----------------------------------------
 BYTE   Cn1  v052
 BYTE   W24
 BYTE   Gn1  v040
 BYTE   W72
//  #02 //042   ----------------------------------------
 BYTE   GoTo
  POIN2 Label_0128A226
 BYTE   FINE

//**************** Track 3 (Midi-Chn.2) ****************//

WarioBattleCanyon_003:
//  #03 //000   ----------------------------------------
 BYTE   KEYSH   WarioBattleCanyon_key+0
Label_0128A2F6:
 BYTE   VOICE   48
 BYTE   VOL   22*WarioBattleCanyon_mvl/mxv
 BYTE   PAN   c_v+0
 BYTE   W96
//  #03 //001   ----------------------------------------
 BYTE   W96
//  #03 //002   ----------------------------------------
 BYTE   W96
//  #03 //003   ----------------------------------------
 BYTE   W96
//  #03 //004   ----------------------------------------
 BYTE   W96
//  #03 //005   ----------------------------------------
 BYTE   W96
//  #03 //006   ----------------------------------------
 BYTE   W96
//  #03 //007   ----------------------------------------
 BYTE   W96
//  #03 //008   ----------------------------------------
 BYTE   W96
//  #03 //009   ----------------------------------------
 BYTE   W96
//  #03 //010   ----------------------------------------
 BYTE   W96
//  #03 //011   ----------------------------------------
 BYTE   W96
//  #03 //012   ----------------------------------------
 BYTE   W96
//  #03 //013   ----------------------------------------
 BYTE   W96
//  #03 //014   ----------------------------------------
 BYTE   W96
//  #03 //015   ----------------------------------------
 BYTE   W96
//  #03 //016   ----------------------------------------
Label_0128A30C:
 BYTE   N48  Bn4  v100
 BYTE   N48  Ds5
 BYTE   W48
 BYTE   N12  As4
 BYTE   N12  Dn5
 BYTE   W48
 BYTE   PEND 
//  #03 //017   ----------------------------------------
 BYTE   PATT
  POIN2 Label_0128A30C
//  #03 //018   ----------------------------------------
 BYTE   PATT
  POIN2 Label_0128A30C
//  #03 //019   ----------------------------------------
Label_0128A322:
 BYTE   N72  An4  v100
 BYTE   N72  Cs5
 BYTE   W72
 BYTE   N12  An4
 BYTE   N12  Cs5
 BYTE   W12
 BYTE   As4
 BYTE   N12  Dn5
 BYTE   W12
 BYTE   PEND 
//  #03 //020   ----------------------------------------
 BYTE   PATT
  POIN2 Label_0128A30C
//  #03 //021   ----------------------------------------
 BYTE   PATT
  POIN2 Label_0128A30C
//  #03 //022   ----------------------------------------
Label_0128A33C:
 BYTE   N48  Bn4  v100
 BYTE   N48  Ds5
 BYTE   W48
 BYTE   N12  Dn5
 BYTE   N12  Fn5
 BYTE   W48
 BYTE   PEND 
//  #03 //023   ----------------------------------------
 BYTE   N48  Cs5
 BYTE   N48  Fs5
 BYTE   W96
//  #03 //024   ----------------------------------------
 BYTE   PATT
  POIN2 Label_0128A30C
//  #03 //025   ----------------------------------------
 BYTE   PATT
  POIN2 Label_0128A30C
//  #03 //026   ----------------------------------------
 BYTE   PATT
  POIN2 Label_0128A30C
//  #03 //027   ----------------------------------------
 BYTE   PATT
  POIN2 Label_0128A322
//  #03 //028   ----------------------------------------
 BYTE   PATT
  POIN2 Label_0128A30C
//  #03 //029   ----------------------------------------
 BYTE   PATT
  POIN2 Label_0128A30C
//  #03 //030   ----------------------------------------
 BYTE   PATT
  POIN2 Label_0128A33C
//  #03 //031   ----------------------------------------
 BYTE   N48  Cs5  v100
 BYTE   N48  Fs5
 BYTE   W96
//  #03 //032   ----------------------------------------
 BYTE   W96
//  #03 //033   ----------------------------------------
 BYTE   W96
//  #03 //034   ----------------------------------------
 BYTE   W96
//  #03 //035   ----------------------------------------
 BYTE   W96
//  #03 //036   ----------------------------------------
 BYTE   W96
//  #03 //037   ----------------------------------------
 BYTE   W96
//  #03 //038   ----------------------------------------
 BYTE   W96
//  #03 //039   ----------------------------------------
 BYTE   W96
//  #03 //040   ----------------------------------------
 BYTE   W96
//  #03 //041   ----------------------------------------
 BYTE   W96
//  #03 //042   ----------------------------------------
 BYTE   GoTo
  POIN2 Label_0128A2F6
 BYTE   FINE

//**************** Track 4 (Midi-Chn.3) ****************//

WarioBattleCanyon_004:
//  #04 //000   ----------------------------------------
 BYTE   KEYSH   WarioBattleCanyon_key+0
Label_0128A38A:
 BYTE   VOICE   10
 BYTE   VOL   17*WarioBattleCanyon_mvl/mxv
 BYTE   PAN   c_v+0
 BYTE   W48
 BYTE   N24  Ds6  v100
 BYTE   W24
 BYTE   Dn6
 BYTE   W24
//  #04 //001   ----------------------------------------
Label_0128A397:
 BYTE   W48
 BYTE   N24  Ds6  v100
 BYTE   W24
 BYTE   Dn6
 BYTE   W24
 BYTE   PEND 
//  #04 //002   ----------------------------------------
 BYTE   PATT
  POIN2 Label_0128A397
//  #04 //003   ----------------------------------------
Label_0128A3A4:
 BYTE   N24  Ds6  v100
 BYTE   W24
 BYTE   N16  Fn6
 BYTE   W16
 BYTE   N04  Ds6
 BYTE   W04
 BYTE   Fn6
 BYTE   W04
 BYTE   N24  Ds6
 BYTE   W24
 BYTE   Dn6
 BYTE   W24
 BYTE   PEND 
//  #04 //004   ----------------------------------------
 BYTE   PATT
  POIN2 Label_0128A397
//  #04 //005   ----------------------------------------
 BYTE   PATT
  POIN2 Label_0128A397
//  #04 //006   ----------------------------------------
 BYTE   PATT
  POIN2 Label_0128A397
//  #04 //007   ----------------------------------------
 BYTE   N24  Fs5  v100
 BYTE   W24
 BYTE   Gn5
 BYTE   W72
//  #04 //008   ----------------------------------------
 BYTE   W96
//  #04 //009   ----------------------------------------
 BYTE   W96
//  #04 //010   ----------------------------------------
 BYTE   W96
//  #04 //011   ----------------------------------------
 BYTE   W96
//  #04 //012   ----------------------------------------
 BYTE   W96
//  #04 //013   ----------------------------------------
 BYTE   W96
//  #04 //014   ----------------------------------------
 BYTE   W96
//  #04 //015   ----------------------------------------
 BYTE   W96
//  #04 //016   ----------------------------------------
Label_0128A3D3:
 BYTE   N24  Ds6  v100
 BYTE   W48
 BYTE   Dn6
 BYTE   W48
 BYTE   PEND 
//  #04 //017   ----------------------------------------
 BYTE   PATT
  POIN2 Label_0128A3D3
//  #04 //018   ----------------------------------------
 BYTE   PATT
  POIN2 Label_0128A3D3
//  #04 //019   ----------------------------------------
Label_0128A3E4:
 BYTE   N24  Cs6  v100
 BYTE   W72
 BYTE   N12
 BYTE   W12
 BYTE   Dn6
 BYTE   W12
 BYTE   PEND 
//  #04 //020   ----------------------------------------
 BYTE   PATT
  POIN2 Label_0128A3D3
//  #04 //021   ----------------------------------------
 BYTE   PATT
  POIN2 Label_0128A3D3
//  #04 //022   ----------------------------------------
 BYTE   PATT
  POIN2 Label_0128A3D3
//  #04 //023   ----------------------------------------
Label_0128A3FC:
 BYTE   N24  Fs6  v100
 BYTE   W48
 BYTE   Fn6
 BYTE   W48
 BYTE   PEND 
//  #04 //024   ----------------------------------------
 BYTE   PATT
  POIN2 Label_0128A3D3
//  #04 //025   ----------------------------------------
 BYTE   PATT
  POIN2 Label_0128A3D3
//  #04 //026   ----------------------------------------
 BYTE   PATT
  POIN2 Label_0128A3D3
//  #04 //027   ----------------------------------------
 BYTE   PATT
  POIN2 Label_0128A3E4
//  #04 //028   ----------------------------------------
 BYTE   PATT
  POIN2 Label_0128A3D3
//  #04 //029   ----------------------------------------
 BYTE   PATT
  POIN2 Label_0128A3D3
//  #04 //030   ----------------------------------------
 BYTE   PATT
  POIN2 Label_0128A3D3
//  #04 //031   ----------------------------------------
 BYTE   PATT
  POIN2 Label_0128A3FC
//  #04 //032   ----------------------------------------
 BYTE   W96
//  #04 //033   ----------------------------------------
 BYTE   W96
//  #04 //034   ----------------------------------------
 BYTE   W96
//  #04 //035   ----------------------------------------
 BYTE   W96
//  #04 //036   ----------------------------------------
 BYTE   W48
 BYTE   N24  Ds6  v100
 BYTE   W24
 BYTE   Dn6
 BYTE   W24
//  #04 //037   ----------------------------------------
 BYTE   PATT
  POIN2 Label_0128A397
//  #04 //038   ----------------------------------------
 BYTE   PATT
  POIN2 Label_0128A397
//  #04 //039   ----------------------------------------
 BYTE   PATT
  POIN2 Label_0128A3A4
//  #04 //040   ----------------------------------------
 BYTE   W48
 BYTE   N24  Ds6  v076
 BYTE   W24
 BYTE   Dn6  v064
 BYTE   W24
//  #04 //041   ----------------------------------------
 BYTE   W48
 BYTE   Ds6  v028
 BYTE   W24
 BYTE   Dn6  v012
 BYTE   W24
//  #04 //042   ----------------------------------------
 BYTE   GoTo
  POIN2 Label_0128A38A
 BYTE   FINE

//**************** Track 5 (Midi-Chn.4) ****************//

WarioBattleCanyon_005:
//  #05 //000   ----------------------------------------
 BYTE   KEYSH   WarioBattleCanyon_key+0
Label_0128A45E:
 BYTE   VOICE   68
 BYTE   VOL   12*WarioBattleCanyon_mvl/mxv
 BYTE   PAN   c_v+0
 BYTE   W48
 BYTE   N24  Cn3  v100
 BYTE   N24  Ds3
 BYTE   W24
 BYTE   N12  Bn2
 BYTE   N12  Dn3
 BYTE   W24
//  #05 //001   ----------------------------------------
Label_0128A470:
 BYTE   W48
 BYTE   N24  Cn3  v100
 BYTE   N24  Ds3
 BYTE   W24
 BYTE   N12  Bn2
 BYTE   N12  Dn3
 BYTE   W24
 BYTE   PEND 
//  #05 //002   ----------------------------------------
 BYTE   PATT
  POIN2 Label_0128A470
//  #05 //003   ----------------------------------------
Label_0128A482:
 BYTE   N24  Cn3  v100
 BYTE   N24  Ds3
 BYTE   W24
 BYTE   N12  Dn3
 BYTE   N12  Fn3
 BYTE   W12
 BYTE   N06  Cn3
 BYTE   N06  Ds3
 BYTE   W06
 BYTE   Dn3
 BYTE   N06  Fn3
 BYTE   W06
 BYTE   N24  Cn3
 BYTE   N24  Ds3
 BYTE   W24
 BYTE   N12  Bn2
 BYTE   N12  Dn3
 BYTE   W24
 BYTE   PEND 
//  #05 //004   ----------------------------------------
 BYTE   PATT
  POIN2 Label_0128A470
//  #05 //005   ----------------------------------------
 BYTE   PATT
  POIN2 Label_0128A470
//  #05 //006   ----------------------------------------
 BYTE   PATT
  POIN2 Label_0128A470
//  #05 //007   ----------------------------------------
 BYTE   N12  Fs2  v127
 BYTE   N12  Fs3
 BYTE   W24
 BYTE   Gn2
 BYTE   N12  Gn3
 BYTE   W72
//  #05 //008   ----------------------------------------
Label_0128A4BA:
 BYTE   W24
 BYTE   N12  Gn3  v100
 BYTE   W12
 BYTE   An3
 BYTE   W12
 BYTE   As3
 BYTE   W24
 BYTE   N12
 BYTE   W24
 BYTE   PEND 
//  #05 //009   ----------------------------------------
Label_0128A4C6:
 BYTE   N12  As3  v100
 BYTE   W24
 BYTE   N12
 BYTE   W24
 BYTE   N12
 BYTE   W12
 BYTE   An3
 BYTE   W12
 BYTE   Gn3
 BYTE   W24
 BYTE   PEND 
//  #05 //010   ----------------------------------------
Label_0128A4D3:
 BYTE   N24  Fs3  v100
 BYTE   W24
 BYTE   N12  Gn3
 BYTE   W24
 BYTE   N24  An3
 BYTE   W24
 BYTE   N12  Gn3
 BYTE   W24
 BYTE   PEND 
//  #05 //011   ----------------------------------------
 BYTE   PATT
  POIN2 Label_0128A4D3
//  #05 //012   ----------------------------------------
 BYTE   PATT
  POIN2 Label_0128A4BA
//  #05 //013   ----------------------------------------
 BYTE   PATT
  POIN2 Label_0128A4C6
//  #05 //014   ----------------------------------------
 BYTE   PATT
  POIN2 Label_0128A4D3
//  #05 //015   ----------------------------------------
 BYTE   N12  Fs3  v100
 BYTE   W24
 BYTE   Gn3
 BYTE   W72
//  #05 //016   ----------------------------------------
Label_0128A4FB:
 BYTE   W24
 BYTE   N12  Gs1  v127
 BYTE   W48
 BYTE   N12
 BYTE   W24
 BYTE   PEND 
//  #05 //017   ----------------------------------------
 BYTE   PATT
  POIN2 Label_0128A4FB
//  #05 //018   ----------------------------------------
 BYTE   PATT
  POIN2 Label_0128A4FB
//  #05 //019   ----------------------------------------
Label_0128A50D:
 BYTE   W24
 BYTE   N12  Fs1  v127
 BYTE   W48
 BYTE   N12
 BYTE   W24
 BYTE   PEND 
//  #05 //020   ----------------------------------------
 BYTE   PATT
  POIN2 Label_0128A4FB
//  #05 //021   ----------------------------------------
 BYTE   PATT
  POIN2 Label_0128A4FB
//  #05 //022   ----------------------------------------
 BYTE   PATT
  POIN2 Label_0128A4FB
//  #05 //023   ----------------------------------------
 BYTE   PATT
  POIN2 Label_0128A50D
//  #05 //024   ----------------------------------------
 BYTE   PATT
  POIN2 Label_0128A4FB
//  #05 //025   ----------------------------------------
 BYTE   PATT
  POIN2 Label_0128A4FB
//  #05 //026   ----------------------------------------
 BYTE   PATT
  POIN2 Label_0128A4FB
//  #05 //027   ----------------------------------------
 BYTE   PATT
  POIN2 Label_0128A50D
//  #05 //028   ----------------------------------------
 BYTE   PATT
  POIN2 Label_0128A4FB
//  #05 //029   ----------------------------------------
 BYTE   PATT
  POIN2 Label_0128A4FB
//  #05 //030   ----------------------------------------
 BYTE   PATT
  POIN2 Label_0128A4FB
//  #05 //031   ----------------------------------------
 BYTE   PATT
  POIN2 Label_0128A50D
//  #05 //032   ----------------------------------------
 BYTE   N12  Gs1  v127
 BYTE   W48
 BYTE   Gn1
 BYTE   W24
 BYTE   Fs1
 BYTE   W24
//  #05 //033   ----------------------------------------
 BYTE   Fn1
 BYTE   W24
 BYTE   En1
 BYTE   W24
 BYTE   Ds1
 BYTE   W24
 BYTE   Dn1
 BYTE   W24
//  #05 //034   ----------------------------------------
 BYTE   TIE  Cs1
 BYTE   W96
//  #05 //035   ----------------------------------------
 BYTE   W48
 BYTE   EOT
 BYTE   W48
//  #05 //036   ----------------------------------------
 BYTE   W48
 BYTE   N24  Cn3  v100
 BYTE   N24  Ds3
 BYTE   W24
 BYTE   N12  Bn2
 BYTE   N12  Dn3
 BYTE   W24
//  #05 //037   ----------------------------------------
 BYTE   PATT
  POIN2 Label_0128A470
//  #05 //038   ----------------------------------------
 BYTE   PATT
  POIN2 Label_0128A470
//  #05 //039   ----------------------------------------
 BYTE   PATT
  POIN2 Label_0128A482
//  #05 //040   ----------------------------------------
 BYTE   W48
 BYTE   N24  Cn3  v076
 BYTE   N24  Ds3
 BYTE   W24
 BYTE   N12  Bn2  v064
 BYTE   N12  Dn3
 BYTE   W24
//  #05 //041   ----------------------------------------
 BYTE   W48
 BYTE   N24  Cn3  v028
 BYTE   N24  Ds3
 BYTE   W24
 BYTE   N12  Bn2  v016
 BYTE   N12  Dn3
 BYTE   W24
//  #05 //042   ----------------------------------------
 BYTE   GoTo
  POIN2 Label_0128A45E
 BYTE   FINE

//**************** Track 6 (Midi-Chn.5) ****************//

WarioBattleCanyon_006:
//  #06 //000   ----------------------------------------
 BYTE   KEYSH   WarioBattleCanyon_key+0
Label_0128A5A6:
 BYTE   VOICE   57
 BYTE   VOL   24*WarioBattleCanyon_mvl/mxv
 BYTE   PAN   c_v+0
 BYTE   W96
//  #06 //001   ----------------------------------------
 BYTE   W96
//  #06 //002   ----------------------------------------
 BYTE   W96
//  #06 //003   ----------------------------------------
 BYTE   W96
//  #06 //004   ----------------------------------------
 BYTE   W96
//  #06 //005   ----------------------------------------
 BYTE   W96
//  #06 //006   ----------------------------------------
 BYTE   W96
//  #06 //007   ----------------------------------------
 BYTE   W96
//  #06 //008   ----------------------------------------
Label_0128A5B4:
 BYTE   W24
 BYTE   N12  Ds3  v100
 BYTE   N12  Gn3
 BYTE   W12
 BYTE   Fs3
 BYTE   N12  An3
 BYTE   W12
 BYTE   N09  Gn3
 BYTE   N09  As3
 BYTE   W24
 BYTE   Gn3
 BYTE   N09  As3
 BYTE   W24
 BYTE   PEND 
//  #06 //009   ----------------------------------------
Label_0128A5C9:
 BYTE   N09  Gn3  v100
 BYTE   N09  As3
 BYTE   W24
 BYTE   Gn3
 BYTE   N09  As3
 BYTE   W24
 BYTE   N12  Gn3
 BYTE   N12  As3
 BYTE   W12
 BYTE   Fs3
 BYTE   N12  An3
 BYTE   W12
 BYTE   Ds3
 BYTE   N12  Gn3
 BYTE   W24
 BYTE   PEND 
//  #06 //010   ----------------------------------------
Label_0128A5E1:
 BYTE   N24  Dn3  v100
 BYTE   N24  Fs3
 BYTE   W24
 BYTE   N09  Ds3
 BYTE   N09  Gn3
 BYTE   W24
 BYTE   N24  Fs3
 BYTE   N24  An3
 BYTE   W24
 BYTE   N09  Ds3
 BYTE   N09  Gn3
 BYTE   W24
 BYTE   PEND 
//  #06 //011   ----------------------------------------
 BYTE   PATT
  POIN2 Label_0128A5E1
//  #06 //012   ----------------------------------------
 BYTE   PATT
  POIN2 Label_0128A5B4
//  #06 //013   ----------------------------------------
 BYTE   PATT
  POIN2 Label_0128A5C9
//  #06 //014   ----------------------------------------
 BYTE   PATT
  POIN2 Label_0128A5E1
//  #06 //015   ----------------------------------------
 BYTE   N10  Dn3  v127
 BYTE   N10  Fs3
 BYTE   W24
 BYTE   N12  Ds3
 BYTE   N12  Gn3
 BYTE   W72
//  #06 //016   ----------------------------------------
Label_0128A616:
 BYTE   W24
 BYTE   N24  Ds3  v068
 BYTE   W24
 BYTE   N12  Dn3
 BYTE   W12
 BYTE   Ds3
 BYTE   W12
 BYTE   Dn3
 BYTE   W24
 BYTE   PEND 
//  #06 //017   ----------------------------------------
 BYTE   PATT
  POIN2 Label_0128A616
//  #06 //018   ----------------------------------------
 BYTE   PATT
  POIN2 Label_0128A616
//  #06 //019   ----------------------------------------
Label_0128A62D:
 BYTE   N72  Cs3  v068
 BYTE   W72
 BYTE   N12
 BYTE   W12
 BYTE   Dn3
 BYTE   W12
 BYTE   PEND 
//  #06 //020   ----------------------------------------
 BYTE   PATT
  POIN2 Label_0128A616
//  #06 //021   ----------------------------------------
 BYTE   PATT
  POIN2 Label_0128A616
//  #06 //022   ----------------------------------------
 BYTE   PATT
  POIN2 Label_0128A616
//  #06 //023   ----------------------------------------
 BYTE   PATT
  POIN2 Label_0128A62D
//  #06 //024   ----------------------------------------
 BYTE   PATT
  POIN2 Label_0128A616
//  #06 //025   ----------------------------------------
 BYTE   PATT
  POIN2 Label_0128A616
//  #06 //026   ----------------------------------------
 BYTE   PATT
  POIN2 Label_0128A616
//  #06 //027   ----------------------------------------
 BYTE   PATT
  POIN2 Label_0128A62D
//  #06 //028   ----------------------------------------
 BYTE   PATT
  POIN2 Label_0128A616
//  #06 //029   ----------------------------------------
 BYTE   PATT
  POIN2 Label_0128A616
//  #06 //030   ----------------------------------------
 BYTE   PATT
  POIN2 Label_0128A616
//  #06 //031   ----------------------------------------
 BYTE   PATT
  POIN2 Label_0128A62D
//  #06 //032   ----------------------------------------
 BYTE   W96
//  #06 //033   ----------------------------------------
 BYTE   W96
//  #06 //034   ----------------------------------------
 BYTE   W96
//  #06 //035   ----------------------------------------
 BYTE   W96
//  #06 //036   ----------------------------------------
 BYTE   W96
//  #06 //037   ----------------------------------------
 BYTE   W96
//  #06 //038   ----------------------------------------
 BYTE   W96
//  #06 //039   ----------------------------------------
 BYTE   W96
//  #06 //040   ----------------------------------------
 BYTE   W96
//  #06 //041   ----------------------------------------
 BYTE   W96
//  #06 //042   ----------------------------------------
 BYTE   GoTo
  POIN2 Label_0128A5A6
 BYTE   FINE

//**************** Track 7 (Midi-Chn.6) ****************//

WarioBattleCanyon_007:
//  #07 //000   ----------------------------------------
 BYTE   KEYSH   WarioBattleCanyon_key+0
Label_0128A686:
 BYTE   VOICE   73
 BYTE   VOL   3*WarioBattleCanyon_mvl/mxv
 BYTE   PAN   c_v+0
 BYTE   W96
//  #07 //001   ----------------------------------------
 BYTE   W96
//  #07 //002   ----------------------------------------
 BYTE   W96
//  #07 //003   ----------------------------------------
 BYTE   W96
//  #07 //004   ----------------------------------------
 BYTE   W96
//  #07 //005   ----------------------------------------
 BYTE   W96
//  #07 //006   ----------------------------------------
 BYTE   W96
//  #07 //007   ----------------------------------------
 BYTE   W96
//  #07 //008   ----------------------------------------
Label_0128A694:
 BYTE   W24
 BYTE   N12  Gn5  v100
 BYTE   W12
 BYTE   An5
 BYTE   W12
 BYTE   As5
 BYTE   W24
 BYTE   N12
 BYTE   W24
 BYTE   PEND 
//  #07 //009   ----------------------------------------
Label_0128A6A0:
 BYTE   N12  As5  v100
 BYTE   W24
 BYTE   N12
 BYTE   W24
 BYTE   N12
 BYTE   W12
 BYTE   An5
 BYTE   W12
 BYTE   Gn5
 BYTE   W24
 BYTE   PEND 
//  #07 //010   ----------------------------------------
Label_0128A6AD:
 BYTE   N24  Fs5  v100
 BYTE   W24
 BYTE   N12  Gn5
 BYTE   W24
 BYTE   N24  An5
 BYTE   W24
 BYTE   N12  Gn5
 BYTE   W24
 BYTE   PEND 
//  #07 //011   ----------------------------------------
 BYTE   PATT
  POIN2 Label_0128A6AD
//  #07 //012   ----------------------------------------
 BYTE   PATT
  POIN2 Label_0128A694
//  #07 //013   ----------------------------------------
 BYTE   PATT
  POIN2 Label_0128A6A0
//  #07 //014   ----------------------------------------
 BYTE   PATT
  POIN2 Label_0128A6AD
//  #07 //015   ----------------------------------------
 BYTE   N12  Fs5  v100
 BYTE   W24
 BYTE   Gn5
 BYTE   W72
//  #07 //016   ----------------------------------------
 BYTE   W96
//  #07 //017   ----------------------------------------
 BYTE   W96
//  #07 //018   ----------------------------------------
 BYTE   W96
//  #07 //019   ----------------------------------------
 BYTE   W96
//  #07 //020   ----------------------------------------
 BYTE   W96
//  #07 //021   ----------------------------------------
 BYTE   W96
//  #07 //022   ----------------------------------------
 BYTE   W96
//  #07 //023   ----------------------------------------
 BYTE   W96
//  #07 //024   ----------------------------------------
 BYTE   W96
//  #07 //025   ----------------------------------------
 BYTE   W96
//  #07 //026   ----------------------------------------
 BYTE   W96
//  #07 //027   ----------------------------------------
 BYTE   W96
//  #07 //028   ----------------------------------------
 BYTE   W96
//  #07 //029   ----------------------------------------
 BYTE   W96
//  #07 //030   ----------------------------------------
 BYTE   W96
//  #07 //031   ----------------------------------------
 BYTE   W96
//  #07 //032   ----------------------------------------
 BYTE   W24
 BYTE   Gs3
 BYTE   N12  Bn3
 BYTE   N12  Ds4
 BYTE   N12  Ds5
 BYTE   W24
 BYTE   Gn3
 BYTE   N12  As3
 BYTE   N12  Dn4
 BYTE   N12  Dn5
 BYTE   W24
 BYTE   Fs3
 BYTE   N12  An3
 BYTE   N12  Cs4
 BYTE   N12  Cs5
 BYTE   W24
//  #07 //033   ----------------------------------------
 BYTE   Fn3
 BYTE   N12  Gs3
 BYTE   N12  Cn4
 BYTE   N12  Cn5
 BYTE   W24
 BYTE   En3
 BYTE   N12  Gn3
 BYTE   N12  Bn3
 BYTE   N12  Bn4
 BYTE   W24
 BYTE   Ds3
 BYTE   N12  Fs3
 BYTE   N12  As3
 BYTE   N12  As4
 BYTE   W24
 BYTE   Dn3
 BYTE   N12  Fn3
 BYTE   N12  An3
 BYTE   N12  An4
 BYTE   W24
//  #07 //034   ----------------------------------------
 BYTE   TIE  Cs3
 BYTE   TIE  En3
 BYTE   TIE  Gs3
 BYTE   N06  Gs4
 BYTE   W06
 BYTE   An4
 BYTE   W06
 BYTE   Gs4
 BYTE   W06
 BYTE   An4
 BYTE   W06
 BYTE   Gs4
 BYTE   W06
 BYTE   An4
 BYTE   W06
 BYTE   Gs4
 BYTE   W06
 BYTE   An4
 BYTE   W06
 BYTE   Gs4
 BYTE   W06
 BYTE   An4
 BYTE   W06
 BYTE   Gs4
 BYTE   W06
 BYTE   An4
 BYTE   W06
 BYTE   Gs4
 BYTE   W06
 BYTE   An4
 BYTE   W06
 BYTE   Gs4
 BYTE   W06
 BYTE   An4
 BYTE   W06
//  #07 //035   ----------------------------------------
 BYTE   N48  Gs4
 BYTE   W48
 BYTE   EOT
 BYTE   Cs3  v064
 BYTE   Gs3
 BYTE   W48
//  #07 //036   ----------------------------------------
 BYTE   W96
//  #07 //037   ----------------------------------------
 BYTE   W96
//  #07 //038   ----------------------------------------
 BYTE   W96
//  #07 //039   ----------------------------------------
 BYTE   W96
//  #07 //040   ----------------------------------------
 BYTE   W96
//  #07 //041   ----------------------------------------
 BYTE   W96
//  #07 //042   ----------------------------------------
 BYTE   GoTo
  POIN2 Label_0128A686
 BYTE   FINE

//**************** Track 8 (Midi-Chn.7) ****************//

WarioBattleCanyon_008:
//  #08 //000   ----------------------------------------
 BYTE   KEYSH   WarioBattleCanyon_key+0
Label_0128A75E:
 BYTE   VOICE   47
 BYTE   VOL   45*WarioBattleCanyon_mvl/mxv
 BYTE   PAN   c_v+0
 BYTE   W48
 BYTE   N24  Cn2  v064
 BYTE   W48
//  #08 //001   ----------------------------------------
 BYTE   W48
 BYTE   Gn1  v068
 BYTE   W48
//  #08 //002   ----------------------------------------
 BYTE   W48
 BYTE   Cn2
 BYTE   W48
//  #08 //003   ----------------------------------------
 BYTE   W48
 BYTE   Gn1
 BYTE   W48
//  #08 //004   ----------------------------------------
 BYTE   W48
 BYTE   Cn2  v064
 BYTE   W48
//  #08 //005   ----------------------------------------
 BYTE   W48
 BYTE   Gn1
 BYTE   W48
//  #08 //006   ----------------------------------------
 BYTE   W48
 BYTE   Cn2
 BYTE   W48
//  #08 //007   ----------------------------------------
Label_0128A77D:
 BYTE   N24  Cn2  v127
 BYTE   W24
 BYTE   Gn1
 BYTE   W72
 BYTE   PEND 
//  #08 //008   ----------------------------------------
 BYTE   W96
//  #08 //009   ----------------------------------------
 BYTE   W96
//  #08 //010   ----------------------------------------
 BYTE   W96
//  #08 //011   ----------------------------------------
 BYTE   W96
//  #08 //012   ----------------------------------------
 BYTE   W96
//  #08 //013   ----------------------------------------
 BYTE   W96
//  #08 //014   ----------------------------------------
 BYTE   W96
//  #08 //015   ----------------------------------------
 BYTE   PATT
  POIN2 Label_0128A77D
//  #08 //016   ----------------------------------------
 BYTE   N24  Gs1  v127
 BYTE   W96
//  #08 //017   ----------------------------------------
 BYTE   N24
 BYTE   W96
//  #08 //018   ----------------------------------------
 BYTE   N24
 BYTE   W96
//  #08 //019   ----------------------------------------
Label_0128A798:
 BYTE   N24  Fs1  v127
 BYTE   W72
 BYTE   N12
 BYTE   W12
 BYTE   Gn1
 BYTE   W12
 BYTE   PEND 
//  #08 //020   ----------------------------------------
 BYTE   N24  Gs1
 BYTE   W96
//  #08 //021   ----------------------------------------
 BYTE   N24
 BYTE   W96
//  #08 //022   ----------------------------------------
 BYTE   N24
 BYTE   W96
//  #08 //023   ----------------------------------------
 BYTE   An1
 BYTE   W96
//  #08 //024   ----------------------------------------
 BYTE   Gs1
 BYTE   W96
//  #08 //025   ----------------------------------------
 BYTE   N24
 BYTE   W96
//  #08 //026   ----------------------------------------
 BYTE   N24
 BYTE   W96
//  #08 //027   ----------------------------------------
 BYTE   PATT
  POIN2 Label_0128A798
//  #08 //028   ----------------------------------------
 BYTE   N24  Gs1  v127
 BYTE   W96
//  #08 //029   ----------------------------------------
 BYTE   N24
 BYTE   W96
//  #08 //030   ----------------------------------------
 BYTE   N24
 BYTE   W96
//  #08 //031   ----------------------------------------
 BYTE   An1
 BYTE   W96
//  #08 //032   ----------------------------------------
 BYTE   N12  Gs1
 BYTE   W48
 BYTE   Gn1  v072
 BYTE   W24
 BYTE   Fs1
 BYTE   W24
//  #08 //033   ----------------------------------------
 BYTE   Fn1
 BYTE   W24
 BYTE   En1
 BYTE   W24
 BYTE   Ds1
 BYTE   W24
 BYTE   Dn1
 BYTE   W24
//  #08 //034   ----------------------------------------
 BYTE   Cs1
 BYTE   W96
//  #08 //035   ----------------------------------------
 BYTE   W96
//  #08 //036   ----------------------------------------
 BYTE   W48
 BYTE   N24  Cn2  v100
 BYTE   W48
//  #08 //037   ----------------------------------------
 BYTE   W48
 BYTE   Gn1
 BYTE   W48
//  #08 //038   ----------------------------------------
 BYTE   W48
 BYTE   Cn2
 BYTE   W48
//  #08 //039   ----------------------------------------
 BYTE   W48
 BYTE   Gn1
 BYTE   W48
//  #08 //040   ----------------------------------------
 BYTE   W48
 BYTE   Cn2  v072
 BYTE   W48
//  #08 //041   ----------------------------------------
 BYTE   W48
 BYTE   Gn1  v028
 BYTE   W48
//  #08 //042   ----------------------------------------
 BYTE   GoTo
  POIN2 Label_0128A75E
 BYTE   FINE

//**************** Track 9 (Midi-Chn.8) ****************//

WarioBattleCanyon_009:
//  #09 //000   ----------------------------------------
 BYTE   KEYSH   WarioBattleCanyon_key+0
Label_0128A7F2:
 BYTE   VOICE   121
 BYTE   VOL   23*WarioBattleCanyon_mvl/mxv
 BYTE   PAN   c_v+0
 BYTE   N03  En1  v080
 BYTE   W72
 BYTE   En1  v072
 BYTE   W12
 BYTE   N03
 BYTE   W12
//  #09 //001   ----------------------------------------
Label_0128A801:
 BYTE   N03  En1  v080
 BYTE   W72
 BYTE   En1  v072
 BYTE   W12
 BYTE   N03
 BYTE   W12
 BYTE   PEND 
//  #09 //002   ----------------------------------------
 BYTE   PATT
  POIN2 Label_0128A801
//  #09 //003   ----------------------------------------
Label_0128A810:
 BYTE   N03  En1  v072
 BYTE   W24
 BYTE   N03
 BYTE   W24
 BYTE   En1  v056
 BYTE   W06
 BYTE   En1  v052
 BYTE   W06
 BYTE   En1  v044
 BYTE   W06
 BYTE   N03
 BYTE   W06
 BYTE   En1  v060
 BYTE   W12
 BYTE   En1  v072
 BYTE   W12
 BYTE   PEND 
//  #09 //004   ----------------------------------------
 BYTE   PATT
  POIN2 Label_0128A801
//  #09 //005   ----------------------------------------
 BYTE   PATT
  POIN2 Label_0128A801
//  #09 //006   ----------------------------------------
 BYTE   PATT
  POIN2 Label_0128A801
//  #09 //007   ----------------------------------------
 BYTE   N03  En1  v100
 BYTE   W24
 BYTE   Cs2  v127
 BYTE   W24
 BYTE   En1  v028
 BYTE   W06
 BYTE   En1  v036
 BYTE   W06
 BYTE   En1  v044
 BYTE   W06
 BYTE   En1  v048
 BYTE   W06
 BYTE   En1  v056
 BYTE   W06
 BYTE   En1  v064
 BYTE   W06
 BYTE   En1  v068
 BYTE   W06
 BYTE   En1  v076
 BYTE   W06
//  #09 //008   ----------------------------------------
Label_0128A856:
 BYTE   N03  En1  v084
 BYTE   N03  Cs2  v127
 BYTE   W24
 BYTE   En1  v080
 BYTE   W12
 BYTE   En1  v064
 BYTE   W12
 BYTE   En1  v080
 BYTE   W24
 BYTE   En1  v064
 BYTE   W24
 BYTE   PEND 
//  #09 //009   ----------------------------------------
Label_0128A86A:
 BYTE   N03  En1  v080
 BYTE   N03  Cs2  v127
 BYTE   W24
 BYTE   En1  v080
 BYTE   W12
 BYTE   En1  v072
 BYTE   W12
 BYTE   En1  v080
 BYTE   W24
 BYTE   N03
 BYTE   W12
 BYTE   En1  v068
 BYTE   W12
 BYTE   PEND 
//  #09 //010   ----------------------------------------
 BYTE   N03
 BYTE   N03  Cs2  v127
 BYTE   W24
 BYTE   En1  v068
 BYTE   W24
 BYTE   N03
 BYTE   W24
 BYTE   N03
 BYTE   W06
 BYTE   N03
 BYTE   W06
 BYTE   N03
 BYTE   W12
//  #09 //011   ----------------------------------------
 BYTE   N03
 BYTE   N03  Cs2  v127
 BYTE   W24
 BYTE   En1  v068
 BYTE   W24
 BYTE   N03
 BYTE   W24
 BYTE   N03
 BYTE   W12
 BYTE   N03
 BYTE   W12
//  #09 //012   ----------------------------------------
 BYTE   PATT
  POIN2 Label_0128A856
//  #09 //013   ----------------------------------------
 BYTE   PATT
  POIN2 Label_0128A86A
//  #09 //014   ----------------------------------------
 BYTE   N03  En1  v068
 BYTE   N03  Cs2  v127
 BYTE   W24
 BYTE   En1  v068
 BYTE   W24
 BYTE   N03
 BYTE   W24
 BYTE   N03
 BYTE   W06
 BYTE   N03
 BYTE   W06
 BYTE   N03
 BYTE   W06
 BYTE   En1  v044
 BYTE   W06
//  #09 //015   ----------------------------------------
 BYTE   En1  v068
 BYTE   N03  Cs2  v127
 BYTE   W24
 BYTE   En1  v068
 BYTE   N03  Cs2  v127
 BYTE   W72
//  #09 //016   ----------------------------------------
Label_0128A8C9:
 BYTE   N03  En1  v068
 BYTE   W72
 BYTE   N03
 BYTE   W12
 BYTE   N03
 BYTE   W12
 BYTE   PEND 
//  #09 //017   ----------------------------------------
 BYTE   PATT
  POIN2 Label_0128A8C9
//  #09 //018   ----------------------------------------
 BYTE   PATT
  POIN2 Label_0128A8C9
//  #09 //019   ----------------------------------------
Label_0128A8DC:
 BYTE   N03  En1  v068
 BYTE   W24
 BYTE   N03
 BYTE   W24
 BYTE   N03
 BYTE   W06
 BYTE   En1  v064
 BYTE   W06
 BYTE   En1  v056
 BYTE   W06
 BYTE   N03
 BYTE   W06
 BYTE   En1  v064
 BYTE   W12
 BYTE   En1  v068
 BYTE   W12
 BYTE   PEND 
//  #09 //020   ----------------------------------------
 BYTE   PATT
  POIN2 Label_0128A8C9
//  #09 //021   ----------------------------------------
 BYTE   PATT
  POIN2 Label_0128A8C9
//  #09 //022   ----------------------------------------
 BYTE   PATT
  POIN2 Label_0128A8C9
//  #09 //023   ----------------------------------------
 BYTE   PATT
  POIN2 Label_0128A8DC
//  #09 //024   ----------------------------------------
 BYTE   PATT
  POIN2 Label_0128A8C9
//  #09 //025   ----------------------------------------
 BYTE   PATT
  POIN2 Label_0128A8C9
//  #09 //026   ----------------------------------------
 BYTE   PATT
  POIN2 Label_0128A8C9
//  #09 //027   ----------------------------------------
 BYTE   PATT
  POIN2 Label_0128A8DC
//  #09 //028   ----------------------------------------
 BYTE   PATT
  POIN2 Label_0128A8C9
//  #09 //029   ----------------------------------------
 BYTE   PATT
  POIN2 Label_0128A8C9
//  #09 //030   ----------------------------------------
 BYTE   PATT
  POIN2 Label_0128A8C9
//  #09 //031   ----------------------------------------
 BYTE   PATT
  POIN2 Label_0128A8DC
//  #09 //032   ----------------------------------------
 BYTE   N03  Cs2  v127
 BYTE   W96
//  #09 //033   ----------------------------------------
 BYTE   W96
//  #09 //034   ----------------------------------------
 BYTE   W96
//  #09 //035   ----------------------------------------
 BYTE   W96
//  #09 //036   ----------------------------------------
 BYTE   En1  v080
 BYTE   W72
 BYTE   En1  v072
 BYTE   W12
 BYTE   N03
 BYTE   W12
//  #09 //037   ----------------------------------------
 BYTE   PATT
  POIN2 Label_0128A801
//  #09 //038   ----------------------------------------
 BYTE   PATT
  POIN2 Label_0128A801
//  #09 //039   ----------------------------------------
 BYTE   PATT
  POIN2 Label_0128A810
//  #09 //040   ----------------------------------------
 BYTE   N03  En1  v076
 BYTE   W72
 BYTE   En1  v048
 BYTE   W12
 BYTE   En1  v044
 BYTE   W12
//  #09 //041   ----------------------------------------
 BYTE   En1  v040
 BYTE   W72
 BYTE   En1  v012
 BYTE   W12
 BYTE   En1  v008
 BYTE   W12
//  #09 //042   ----------------------------------------
 BYTE   GoTo
  POIN2 Label_0128A7F2
 BYTE   FINE

//**************** Track 10 (Midi-Chn.9) ****************//

WarioBattleCanyon_010:
//  #10 //000   ----------------------------------------
 BYTE   KEYSH   WarioBattleCanyon_key+0
Label_0128A96A:
 BYTE   VOICE   119
 BYTE   VOL   34*WarioBattleCanyon_mvl/mxv
 BYTE   PAN   c_v+0
 BYTE   W96
//  #10 //001   ----------------------------------------
 BYTE   W96
//  #10 //002   ----------------------------------------
 BYTE   W96
//  #10 //003   ----------------------------------------
 BYTE   W96
//  #10 //004   ----------------------------------------
 BYTE   W96
//  #10 //005   ----------------------------------------
 BYTE   W96
//  #10 //006   ----------------------------------------
 BYTE   W96
//  #10 //007   ----------------------------------------
 BYTE   W48
 BYTE   N72  Cn3  v100
 BYTE   W48
//  #10 //008   ----------------------------------------
 BYTE   W96
//  #10 //009   ----------------------------------------
 BYTE   W96
//  #10 //010   ----------------------------------------
 BYTE   W96
//  #10 //011   ----------------------------------------
 BYTE   W96
//  #10 //012   ----------------------------------------
 BYTE   W96
//  #10 //013   ----------------------------------------
 BYTE   W96
//  #10 //014   ----------------------------------------
 BYTE   W96
//  #10 //015   ----------------------------------------
 BYTE   W48
 BYTE   N48  Cn2
 BYTE   W48
//  #10 //016   ----------------------------------------
 BYTE   W96
//  #10 //017   ----------------------------------------
 BYTE   W96
//  #10 //018   ----------------------------------------
 BYTE   W96
//  #10 //019   ----------------------------------------
 BYTE   W96
//  #10 //020   ----------------------------------------
 BYTE   W96
//  #10 //021   ----------------------------------------
 BYTE   W96
//  #10 //022   ----------------------------------------
 BYTE   W96
//  #10 //023   ----------------------------------------
 BYTE   W96
//  #10 //024   ----------------------------------------
 BYTE   W96
//  #10 //025   ----------------------------------------
 BYTE   W96
//  #10 //026   ----------------------------------------
 BYTE   W96
//  #10 //027   ----------------------------------------
 BYTE   W96
//  #10 //028   ----------------------------------------
 BYTE   W96
//  #10 //029   ----------------------------------------
 BYTE   W96
//  #10 //030   ----------------------------------------
 BYTE   W96
//  #10 //031   ----------------------------------------
 BYTE   W96
//  #10 //032   ----------------------------------------
 BYTE   W96
//  #10 //033   ----------------------------------------
 BYTE   W96
//  #10 //034   ----------------------------------------
 BYTE   W96
//  #10 //035   ----------------------------------------
 BYTE   W96
//  #10 //036   ----------------------------------------
 BYTE   W96
//  #10 //037   ----------------------------------------
 BYTE   W96
//  #10 //038   ----------------------------------------
 BYTE   W96
//  #10 //039   ----------------------------------------
 BYTE   W96
//  #10 //040   ----------------------------------------
 BYTE   W96
//  #10 //041   ----------------------------------------
 BYTE   W96
//  #10 //042   ----------------------------------------
 BYTE   GoTo
  POIN2 Label_0128A96A
 BYTE   FINE

//******************************************************//
	ALIGN 4

WarioBattleCanyon:
	BYTE	10	// NumTrks
	BYTE	0	// NumBlks
	BYTE	WarioBattleCanyon_pri	// Priority
	BYTE	WarioBattleCanyon_rev	// Reverb.
    
	POIN2	WarioBattleCanyon_grp
    
	POIN2	WarioBattleCanyon_001
	POIN2	WarioBattleCanyon_002
	POIN2	WarioBattleCanyon_003
	POIN2	WarioBattleCanyon_004
	POIN2	WarioBattleCanyon_005
	POIN2	WarioBattleCanyon_006
	POIN2	WarioBattleCanyon_007
	POIN2	WarioBattleCanyon_008
	POIN2	WarioBattleCanyon_009
	POIN2	WarioBattleCanyon_010

	
